# Alias OBJ Model File
# Exported from SketchUp, (c) 2000-2012 Trimble Navigation Limited
# File units = meters

mtllib line.mtl

# object line

g Mesh1 Model

usemtl FrontColor
v 0.01 0 -10050
vt -0.393701 395669
vn 0 -1 -0
v 0 0 1025
vt 0 -40354.3
v 0 0 -10050
vt 0 395669
f 1/1/1 2/2/1 3/3/1

v 0.01 0 1025
vt -0.393701 -40354.3
f 2/2/1 1/1/1 4/4/1

usemtl BackColor
vn -0 1 0
f 3/3/2 2/2/2 1/1/2

usemtl FrontColor
vt 40354.3 0
vn -1 0 -0
v 0 0.01 -10050
vt -395669 0.393701
vt -395669 0
f 2/5/3 5/6/3 3/7/3

v 0 0.01 1025
vt 40354.3 0.393701
f 5/6/3 2/5/3 6/8/3

usemtl BackColor
vn 1 -0 0
f 6/8/4 2/5/4 5/6/4

usemtl FrontColor
vt 0 0
vn 0 0 1
v 0.01 0.01 1025
vt 0.393701 0.393701
vt 0 0.393701
f 2/9/5 7/10/5 6/11/5

vt 0.393701 0
f 7/10/5 2/9/5 4/12/5

usemtl BackColor
vn -0 -0 -1
f 4/12/6 2/9/6 7/10/6

f 4/4/2 1/1/2 2/2/2

usemtl FrontColor
vt 395669 0
vn 1 0 5.63993e-20
vt -40354.3 0.393701
vt -40354.3 0
f 1/13/7 7/14/7 4/15/7

v 0.01 0.01 -10050
vt 395669 0.393701
f 7/14/7 1/13/7 8/16/7

usemtl BackColor
vn -1 -0 -5.63993e-20
f 4/15/8 7/14/8 1/13/8

f 8/16/8 1/13/8 7/14/8

usemtl FrontColor
vt -0.393701 0
vn 0 0 -1
vt -0.393701 0.393701
f 1/17/9 5/11/9 8/18/9

f 5/11/9 1/17/9 3/9/9

usemtl BackColor
vn -0 -0 1
f 3/9/10 1/17/10 5/11/10

f 8/18/10 5/11/10 1/17/10

usemtl FrontColor
vn 0 1 -0
vt 0.393701 -40354.3
vt 0.393701 395669
f 5/3/11 7/19/11 8/20/11

f 7/19/11 5/3/11 6/2/11

usemtl BackColor
vn -0 -1 0
f 6/2/12 5/3/12 7/19/12

f 8/20/12 7/19/12 5/3/12

f 6/11/6 7/10/6 2/9/6

f 3/7/4 5/6/4 2/5/4

g Mesh2 Model

l 3 2

l 1 3

l 4 1

l 2 4

l 2 6

l 6 7

l 5 6

l 8 5

l 7 8

l 4 7

l 1 8

l 3 5

