# Alias OBJ Model File
# Exported from SketchUp, (c) 2000-2012 Trimble Navigation Limited
# File units = meters

mtllib line.mtl

# object line

g Mesh1 Model

usemtl FrontColor
v 0 0.35422 -49.6658
vt 0 13.9457
vn 0 -1.15506e-12 -1
v 0.01 0.34422 -49.6658
vt -0.393701 13.552
v 0 0.34422 -49.6658
vt 0 13.552
f 1/1/1 2/2/1 3/3/1

v 0.01 0.35422 -49.6658
vt -0.393701 13.9457
f 2/2/1 1/1/1 4/4/1

usemtl BackColor
vn -0 1.15506e-12 1
f 3/3/2 2/2/2 1/1/2

f 4/4/2 1/1/2 2/2/2

g Mesh2 Model

usemtl FrontColor
v 0.01 0 -50
vt -0.393701 1968.5
vn 0 -1 -0
v 0 0 25
vt 0 -984.252
v 0 0 -50
vt 0 1968.5
f 5/5/3 6/6/3 7/7/3

v 0.01 0 25
vt -0.393701 -984.252
f 6/6/3 5/5/3 8/8/3

usemtl BackColor
vn -0 1 0
f 7/7/4 6/6/4 5/5/4

usemtl FrontColor
vt 984.252 0
vn -1 0 -0
v 0 0.01 -50
vt -1968.5 0.393701
vt -1968.5 0
f 6/9/5 9/10/5 7/11/5

v 0 0.01 25
vt 984.252 0.393701
f 9/10/5 6/9/5 10/12/5

usemtl BackColor
vn 1 -0 0
f 10/12/6 6/9/6 9/10/6

usemtl FrontColor
vt 0 0
vn 0 0 1
v 0.01 0.01 25
vt 0.393701 0.393701
vt 0 0.393701
f 6/13/7 11/14/7 10/15/7

vt 0.393701 0
f 11/14/7 6/13/7 8/16/7

usemtl BackColor
vn -0 -0 -1
f 8/16/8 6/13/8 11/14/8

f 8/8/4 5/5/4 6/6/4

usemtl FrontColor
vt 1968.5 0
vn 1 0 5.63993e-20
vt -984.252 0.393701
vt -984.252 0
f 5/17/9 11/18/9 8/19/9

v 0.01 0.01 -50
vt 1968.5 0.393701
f 11/18/9 5/17/9 12/20/9

usemtl BackColor
vn -1 -0 -5.63993e-20
f 8/19/10 11/18/10 5/17/10

f 12/20/10 5/17/10 11/18/10

usemtl FrontColor
vt -0.393701 0
vn 0 0 -1
vt -0.393701 0.393701
f 5/21/11 9/15/11 12/22/11

f 9/15/11 5/21/11 7/13/11

usemtl BackColor
vn -0 -0 1
f 7/13/12 5/21/12 9/15/12

f 12/22/12 9/15/12 5/21/12

usemtl FrontColor
vn 0 1 -0
vt 0.393701 -984.252
vt 0.393701 1968.5
f 9/7/13 11/23/13 12/24/13

f 11/23/13 9/7/13 10/6/13

usemtl BackColor
vn -0 -1 0
f 10/6/14 9/7/14 11/23/14

f 12/24/14 11/23/14 9/7/14

f 10/15/8 11/14/8 6/13/8

f 7/11/6 9/10/6 6/9/6

g Mesh3 Model

l 2 3

l 4 2

l 1 4

l 3 1

g Mesh4 Model

l 7 6

l 5 7

l 8 5

l 6 8

l 6 10

l 10 11

l 9 10

l 12 9

l 11 12

l 8 11

l 5 12

l 7 9

