MFile 1 9 1024
MTrk
0 TimeSig 12/8 36 8
0 KeySig 254 major
0 Tempo 428571
0 Tempo 461538
0 Meta TrkName "Bach's Brandenburg Concerto No.6, 3rd mov't"
402368 Tempo 468750
402453 Tempo 504201
402555 Tempo 517241
402657 Tempo 530973
402759 Tempo 545454
402861 Tempo 560747
402963 Tempo 576923
403065 Tempo 594059
403167 Tempo 612244
403175 Tempo 571428
403275 Tempo 625000
403375 Tempo 689655
403475 Tempo 779220
403575 Tempo 882352
403675 Tempo 1016949
403775 Tempo 1224489
403875 Tempo 1500000
403904 Tempo 1153846
403909 Tempo 1304347
403911 Tempo 1538461
403966 Tempo 2222222
404870 Tempo 2000000
404925 Tempo 5454545
404993 Tempo 468750
678803 Tempo 600000
678926 Tempo 588235
679026 Tempo 594059
679126 Tempo 606060
679226 Tempo 618556
679326 Tempo 625000
679426 Tempo 638297
679526 Tempo 652173
679626 Tempo 659340
679726 Tempo 674157
679826 Tempo 689655
679918 Tempo 740740
680018 Tempo 821917
680350 Tempo 3529411
680459 Tempo 1034482
688128 Meta TrkEnd
TrkEnd
MTrk
0 PrCh ch=1 p=41
0 Par ch=1 c=121 v=127
0 Par ch=1 c=91 v=127
0 Par ch=1 c=1 v=10
0 Par ch=1 c=10 v=40
0 Meta TrkName "Viola I da braccio"
5632 On ch=1 n=65 v=64
6016 On ch=1 n=65 v=0
6144 On ch=1 n=70 v=64
6656 On ch=1 n=70 v=0
6656 On ch=1 n=69 v=64
7040 On ch=1 n=69 v=0
7168 On ch=1 n=70 v=64
7552 On ch=1 n=70 v=0
7680 On ch=1 n=62 v=64
8192 On ch=1 n=62 v=0
8192 On ch=1 n=65 v=64
8576 On ch=1 n=65 v=0
8704 On ch=1 n=70 v=64
9088 On ch=1 n=70 v=0
9216 On ch=1 n=70 v=64
9728 On ch=1 n=70 v=0
9728 On ch=1 n=69 v=64
10112 On ch=1 n=69 v=0
10240 On ch=1 n=70 v=64
10624 On ch=1 n=70 v=0
10752 On ch=1 n=62 v=64
11264 On ch=1 n=62 v=0
11264 On ch=1 n=65 v=64
11648 On ch=1 n=65 v=0
11776 On ch=1 n=70 v=64
12160 On ch=1 n=70 v=0
12288 On ch=1 n=72 v=64
12800 On ch=1 n=72 v=0
12800 On ch=1 n=70 v=64
13184 On ch=1 n=70 v=0
13312 On ch=1 n=72 v=64
13696 On ch=1 n=72 v=0
13824 On ch=1 n=65 v=64
14336 On ch=1 n=65 v=0
14336 On ch=1 n=69 v=64
14720 On ch=1 n=69 v=0
14848 On ch=1 n=72 v=64
15232 On ch=1 n=72 v=0
15360 On ch=1 n=74 v=64
15872 On ch=1 n=74 v=0
15872 On ch=1 n=72 v=64
16256 On ch=1 n=72 v=0
16384 On ch=1 n=74 v=64
16768 On ch=1 n=74 v=0
16896 On ch=1 n=70 v=64
17920 On ch=1 n=70 v=0
17920 On ch=1 n=74 v=64
18944 On ch=1 n=74 v=0
18944 On ch=1 n=67 v=64
19328 On ch=1 n=67 v=0
19456 On ch=1 n=70 v=64
20480 On ch=1 n=70 v=0
20480 On ch=1 n=64 v=64
20864 On ch=1 n=64 v=0
20992 On ch=1 n=72 v=64
22016 On ch=1 n=72 v=0
22016 On ch=1 n=65 v=64
22400 On ch=1 n=65 v=0
22528 On ch=1 n=69 v=64
23552 On ch=1 n=69 v=0
23552 On ch=1 n=62 v=64
23936 On ch=1 n=62 v=0
24064 On ch=1 n=70 v=64
25088 On ch=1 n=70 v=0
25088 On ch=1 n=64 v=64
25472 On ch=1 n=64 v=0
25600 On ch=1 n=67 v=64
26624 On ch=1 n=67 v=0
26624 On ch=1 n=60 v=64
27008 On ch=1 n=60 v=0
27136 On ch=1 n=70 v=64
27520 On ch=1 n=70 v=0
27648 On ch=1 n=69 v=64
28160 On ch=1 n=69 v=0
28160 On ch=1 n=67 v=64
28544 On ch=1 n=67 v=0
28672 On ch=1 n=69 v=64
29056 On ch=1 n=69 v=0
29184 On ch=1 n=65 v=64
29696 On ch=1 n=65 v=0
29696 On ch=1 n=69 v=64
30080 On ch=1 n=69 v=0
30208 On ch=1 n=72 v=64
30592 On ch=1 n=72 v=0
30720 On ch=1 n=77 v=64
31104 On ch=1 n=77 v=0
31232 On ch=1 n=70 v=64
31616 On ch=1 n=70 v=0
31744 On ch=1 n=74 v=64
32768 On ch=1 n=74 v=0
32768 On ch=1 n=67 v=64
33152 On ch=1 n=67 v=0
33280 On ch=1 n=75 v=64
34304 On ch=1 n=75 v=0
34304 On ch=1 n=69 v=64
34688 On ch=1 n=69 v=0
34816 On ch=1 n=72 v=64
35840 On ch=1 n=72 v=0
35840 On ch=1 n=65 v=64
36224 On ch=1 n=65 v=0
36352 On ch=1 n=74 v=64
37376 On ch=1 n=74 v=0
37376 On ch=1 n=65 v=64
37760 On ch=1 n=65 v=0
37888 On ch=1 n=70 v=64
38912 On ch=1 n=70 v=0
38912 On ch=1 n=62 v=64
39296 On ch=1 n=62 v=0
39424 On ch=1 n=65 v=64
40448 On ch=1 n=65 v=0
40448 On ch=1 n=58 v=64
40832 On ch=1 n=58 v=0
40960 On ch=1 n=62 v=64
41344 On ch=1 n=62 v=0
41472 On ch=1 n=65 v=64
41856 On ch=1 n=65 v=0
41984 On ch=1 n=62 v=64
42368 On ch=1 n=62 v=0
42496 On ch=1 n=65 v=64
42880 On ch=1 n=65 v=0
43008 On ch=1 n=70 v=64
43392 On ch=1 n=70 v=0
43520 On ch=1 n=65 v=64
43904 On ch=1 n=65 v=0
44032 On ch=1 n=67 v=64
45056 On ch=1 n=67 v=0
45056 On ch=1 n=65 v=64
45440 On ch=1 n=65 v=0
45568 On ch=1 n=70 v=64
46592 On ch=1 n=70 v=0
46592 On ch=1 n=65 v=64
46976 On ch=1 n=65 v=0
47104 On ch=1 n=67 v=64
48128 On ch=1 n=67 v=0
48128 On ch=1 n=65 v=64
48512 On ch=1 n=65 v=0
48640 On ch=1 n=70 v=64
49664 On ch=1 n=70 v=0
49664 On ch=1 n=67 v=64
50048 On ch=1 n=67 v=0
50176 On ch=1 n=75 v=64
51200 On ch=1 n=75 v=0
51200 On ch=1 n=69 v=64
51584 On ch=1 n=69 v=0
51712 On ch=1 n=77 v=64
52224 On ch=1 n=77 v=0
52224 On ch=1 n=74 v=64
52608 On ch=1 n=74 v=0
52736 On ch=1 n=70 v=64
53120 On ch=1 n=70 v=0
53248 On ch=1 n=69 v=64
53632 On ch=1 n=69 v=0
53760 On ch=1 n=70 v=64
54528 On ch=1 n=70 v=0
54528 On ch=1 n=65 v=64
54784 On ch=1 n=65 v=0
54784 On ch=1 n=67 v=64
55040 On ch=1 n=67 v=0
55040 On ch=1 n=69 v=64
55296 On ch=1 n=69 v=0
55296 On ch=1 n=70 v=45
55552 On ch=1 n=70 v=0
55552 On ch=1 n=69 v=45
55808 On ch=1 n=69 v=0
55808 On ch=1 n=70 v=45
56192 On ch=1 n=70 v=0
57600 On ch=1 n=65 v=45
57856 On ch=1 n=65 v=0
57856 On ch=1 n=67 v=45
58112 On ch=1 n=67 v=0
58112 On ch=1 n=69 v=45
58368 On ch=1 n=69 v=0
58368 On ch=1 n=70 v=45
58624 On ch=1 n=70 v=0
58624 On ch=1 n=69 v=45
58880 On ch=1 n=69 v=0
58880 On ch=1 n=70 v=45
59264 On ch=1 n=70 v=0
60672 On ch=1 n=67 v=45
60928 On ch=1 n=67 v=0
60928 On ch=1 n=69 v=45
61184 On ch=1 n=69 v=0
61184 On ch=1 n=70 v=45
61440 On ch=1 n=70 v=0
61440 On ch=1 n=72 v=45
61696 On ch=1 n=72 v=0
61696 On ch=1 n=70 v=45
61952 On ch=1 n=70 v=0
61952 On ch=1 n=72 v=45
62208 On ch=1 n=72 v=0
62208 On ch=1 n=70 v=45
62464 On ch=1 n=70 v=0
62464 On ch=1 n=69 v=45
62720 On ch=1 n=69 v=0
62720 On ch=1 n=67 v=45
62976 On ch=1 n=67 v=0
62976 On ch=1 n=65 v=45
63360 On ch=1 n=65 v=0
63488 On ch=1 n=69 v=45
63872 On ch=1 n=69 v=0
64000 On ch=1 n=72 v=45
64384 On ch=1 n=72 v=0
64512 On ch=1 n=74 v=45
64768 On ch=1 n=74 v=0
64768 On ch=1 n=72 v=45
65024 On ch=1 n=72 v=0
65024 On ch=1 n=74 v=45
65280 On ch=1 n=74 v=0
65280 On ch=1 n=75 v=45
65536 On ch=1 n=75 v=0
65536 On ch=1 n=74 v=45
65792 On ch=1 n=74 v=0
65792 On ch=1 n=72 v=45
66048 On ch=1 n=72 v=0
66048 On ch=1 n=70 v=64
66432 On ch=1 n=70 v=0
66560 On ch=1 n=65 v=64
66944 On ch=1 n=65 v=0
67072 On ch=1 n=74 v=64
68096 On ch=1 n=74 v=0
68096 On ch=1 n=67 v=64
68480 On ch=1 n=67 v=0
68608 On ch=1 n=70 v=64
69632 On ch=1 n=70 v=0
69632 On ch=1 n=64 v=64
70016 On ch=1 n=64 v=0
70144 On ch=1 n=72 v=64
71168 On ch=1 n=72 v=0
71168 On ch=1 n=65 v=64
71552 On ch=1 n=65 v=0
71680 On ch=1 n=69 v=64
72704 On ch=1 n=69 v=0
72704 On ch=1 n=62 v=64
73088 On ch=1 n=62 v=0
73216 On ch=1 n=70 v=64
74240 On ch=1 n=70 v=0
74240 On ch=1 n=64 v=64
74624 On ch=1 n=64 v=0
74752 On ch=1 n=67 v=64
75776 On ch=1 n=67 v=0
75776 On ch=1 n=60 v=64
76160 On ch=1 n=60 v=0
76288 On ch=1 n=70 v=64
76672 On ch=1 n=70 v=0
76800 On ch=1 n=69 v=64
77312 On ch=1 n=69 v=0
77312 On ch=1 n=67 v=64
77696 On ch=1 n=67 v=0
77824 On ch=1 n=69 v=64
78208 On ch=1 n=69 v=0
78336 On ch=1 n=65 v=64
78848 On ch=1 n=65 v=0
78848 On ch=1 n=57 v=64
79232 On ch=1 n=57 v=0
79360 On ch=1 n=60 v=64
79744 On ch=1 n=60 v=0
79872 On ch=1 n=65 v=64
80384 On ch=1 n=65 v=0
80384 On ch=1 n=64 v=64
80768 On ch=1 n=64 v=0
80896 On ch=1 n=65 v=64
81280 On ch=1 n=65 v=0
81408 On ch=1 n=57 v=64
81920 On ch=1 n=57 v=0
81920 On ch=1 n=60 v=64
82304 On ch=1 n=60 v=0
82432 On ch=1 n=65 v=64
82816 On ch=1 n=65 v=0
82944 On ch=1 n=65 v=64
83456 On ch=1 n=65 v=0
83456 On ch=1 n=64 v=64
83840 On ch=1 n=64 v=0
83968 On ch=1 n=65 v=64
84352 On ch=1 n=65 v=0
84480 On ch=1 n=57 v=64
84992 On ch=1 n=57 v=0
84992 On ch=1 n=60 v=64
85376 On ch=1 n=60 v=0
85504 On ch=1 n=65 v=64
85888 On ch=1 n=65 v=0
86016 On ch=1 n=67 v=64
86528 On ch=1 n=67 v=0
86528 On ch=1 n=65 v=64
86912 On ch=1 n=65 v=0
87040 On ch=1 n=67 v=64
87424 On ch=1 n=67 v=0
87552 On ch=1 n=60 v=64
88064 On ch=1 n=60 v=0
88064 On ch=1 n=64 v=64
88448 On ch=1 n=64 v=0
88576 On ch=1 n=67 v=64
88960 On ch=1 n=67 v=0
89088 On ch=1 n=69 v=64
89600 On ch=1 n=69 v=0
89600 On ch=1 n=67 v=64
89984 On ch=1 n=67 v=0
90112 On ch=1 n=69 v=64
90496 On ch=1 n=69 v=0
90624 On ch=1 n=65 v=64
91648 On ch=1 n=65 v=0
92928 On ch=1 n=60 v=45
93184 On ch=1 n=60 v=0
93184 On ch=1 n=62 v=45
93440 On ch=1 n=62 v=0
93440 On ch=1 n=64 v=45
93696 On ch=1 n=64 v=0
93696 On ch=1 n=65 v=45
93952 On ch=1 n=65 v=0
93952 On ch=1 n=64 v=45
94208 On ch=1 n=64 v=0
94208 On ch=1 n=65 v=45
94592 On ch=1 n=65 v=0
96000 On ch=1 n=60 v=45
96256 On ch=1 n=60 v=0
96256 On ch=1 n=62 v=45
96512 On ch=1 n=62 v=0
96512 On ch=1 n=64 v=45
96768 On ch=1 n=64 v=0
96768 On ch=1 n=65 v=45
97024 On ch=1 n=65 v=0
97024 On ch=1 n=64 v=45
97280 On ch=1 n=64 v=0
97280 On ch=1 n=65 v=45
97664 On ch=1 n=65 v=0
99072 On ch=1 n=62 v=45
99328 On ch=1 n=62 v=0
99328 On ch=1 n=64 v=45
99584 On ch=1 n=64 v=0
99584 On ch=1 n=65 v=45
99840 On ch=1 n=65 v=0
99840 On ch=1 n=67 v=45
100096 On ch=1 n=67 v=0
100096 On ch=1 n=65 v=45
100352 On ch=1 n=65 v=0
100352 On ch=1 n=67 v=45
100608 On ch=1 n=67 v=0
100608 On ch=1 n=65 v=45
100864 On ch=1 n=65 v=0
100864 On ch=1 n=64 v=45
101120 On ch=1 n=64 v=0
101120 On ch=1 n=62 v=45
101376 On ch=1 n=62 v=0
101376 On ch=1 n=60 v=45
101632 On ch=1 n=60 v=0
101632 On ch=1 n=58 v=45
101888 On ch=1 n=58 v=0
101888 On ch=1 n=60 v=45
102144 On ch=1 n=60 v=0
102144 On ch=1 n=62 v=45
102400 On ch=1 n=62 v=0
102400 On ch=1 n=60 v=45
102656 On ch=1 n=60 v=0
102656 On ch=1 n=58 v=45
102912 On ch=1 n=58 v=0
102912 On ch=1 n=57 v=45
103168 On ch=1 n=57 v=0
103168 On ch=1 n=55 v=45
103424 On ch=1 n=55 v=0
103424 On ch=1 n=57 v=45
103680 On ch=1 n=57 v=0
103680 On ch=1 n=58 v=45
103936 On ch=1 n=58 v=0
103936 On ch=1 n=60 v=45
104192 On ch=1 n=60 v=0
104192 On ch=1 n=57 v=45
104448 On ch=1 n=57 v=0
104448 On ch=1 n=62 v=45
104704 On ch=1 n=62 v=0
104704 On ch=1 n=64 v=45
104960 On ch=1 n=64 v=0
104960 On ch=1 n=65 v=46
105216 On ch=1 n=65 v=0
105216 On ch=1 n=64 v=46
105472 On ch=1 n=64 v=0
105472 On ch=1 n=62 v=47
105728 On ch=1 n=62 v=0
105728 On ch=1 n=60 v=47
105984 On ch=1 n=60 v=0
105984 On ch=1 n=59 v=47
106240 On ch=1 n=59 v=0
106240 On ch=1 n=57 v=48
106496 On ch=1 n=57 v=0
106496 On ch=1 n=55 v=48
106752 On ch=1 n=55 v=0
106752 On ch=1 n=57 v=49
107008 On ch=1 n=57 v=0
107008 On ch=1 n=59 v=49
107264 On ch=1 n=59 v=0
107264 On ch=1 n=55 v=49
107520 On ch=1 n=55 v=0
107520 On ch=1 n=60 v=50
107776 On ch=1 n=60 v=0
107776 On ch=1 n=62 v=50
108032 On ch=1 n=62 v=0
108032 On ch=1 n=64 v=51
108288 On ch=1 n=64 v=0
108288 On ch=1 n=62 v=51
108544 On ch=1 n=62 v=0
108544 On ch=1 n=60 v=51
108800 On ch=1 n=60 v=0
108800 On ch=1 n=59 v=52
109056 On ch=1 n=59 v=0
109056 On ch=1 n=57 v=52
109312 On ch=1 n=57 v=0
109312 On ch=1 n=55 v=53
109568 On ch=1 n=55 v=0
109568 On ch=1 n=53 v=53
109824 On ch=1 n=53 v=0
109824 On ch=1 n=55 v=53
110080 On ch=1 n=55 v=0
110080 On ch=1 n=57 v=54
110336 On ch=1 n=57 v=0
110336 On ch=1 n=53 v=54
110592 On ch=1 n=53 v=0
110592 On ch=1 n=59 v=55
110848 On ch=1 n=59 v=0
110848 On ch=1 n=60 v=55
111104 On ch=1 n=60 v=0
111104 On ch=1 n=62 v=55
111360 On ch=1 n=62 v=0
111360 On ch=1 n=60 v=56
111616 On ch=1 n=60 v=0
111616 On ch=1 n=59 v=56
111872 On ch=1 n=59 v=0
111872 On ch=1 n=57 v=56
112128 On ch=1 n=57 v=0
112128 On ch=1 n=55 v=57
112384 On ch=1 n=55 v=0
112384 On ch=1 n=57 v=57
112640 On ch=1 n=57 v=0
112640 On ch=1 n=59 v=58
112896 On ch=1 n=59 v=0
112896 On ch=1 n=57 v=58
113152 On ch=1 n=57 v=0
113152 On ch=1 n=55 v=58
113408 On ch=1 n=55 v=0
113408 On ch=1 n=53 v=59
113664 On ch=1 n=53 v=0
113664 On ch=1 n=55 v=59
113920 On ch=1 n=55 v=0
113920 On ch=1 n=60 v=60
114176 On ch=1 n=60 v=0
114176 On ch=1 n=59 v=60
114432 On ch=1 n=59 v=0
114432 On ch=1 n=57 v=60
114688 On ch=1 n=57 v=0
114688 On ch=1 n=55 v=61
114944 On ch=1 n=55 v=0
114944 On ch=1 n=53 v=61
115200 On ch=1 n=53 v=0
115200 On ch=1 n=52 v=62
115456 On ch=1 n=52 v=0
115456 On ch=1 n=53 v=62
115712 On ch=1 n=53 v=0
115712 On ch=1 n=55 v=62
115968 On ch=1 n=55 v=0
115968 On ch=1 n=53 v=63
116224 On ch=1 n=53 v=0
116224 On ch=1 n=52 v=63
116480 On ch=1 n=52 v=0
116480 On ch=1 n=50 v=64
116736 On ch=1 n=50 v=0
116736 On ch=1 n=48 v=64
117120 On ch=1 n=48 v=0
117248 On ch=1 n=60 v=64
117632 On ch=1 n=60 v=0
117760 On ch=1 n=69 v=64
118784 On ch=1 n=69 v=0
118784 On ch=1 n=62 v=64
119168 On ch=1 n=62 v=0
119296 On ch=1 n=70 v=64
120320 On ch=1 n=70 v=0
120320 On ch=1 n=64 v=64
120704 On ch=1 n=64 v=0
120832 On ch=1 n=67 v=64
121856 On ch=1 n=67 v=0
121856 On ch=1 n=60 v=64
122240 On ch=1 n=60 v=0
122368 On ch=1 n=69 v=64
123392 On ch=1 n=69 v=0
123392 On ch=1 n=60 v=64
123776 On ch=1 n=60 v=0
123904 On ch=1 n=65 v=64
124928 On ch=1 n=65 v=0
124928 On ch=1 n=57 v=64
125312 On ch=1 n=57 v=0
125440 On ch=1 n=60 v=64
126464 On ch=1 n=60 v=0
126464 On ch=1 n=53 v=64
126848 On ch=1 n=53 v=0
126976 On ch=1 n=57 v=64
127360 On ch=1 n=57 v=0
127488 On ch=1 n=60 v=64
127872 On ch=1 n=60 v=0
128000 On ch=1 n=57 v=64
128384 On ch=1 n=57 v=0
128512 On ch=1 n=60 v=64
128896 On ch=1 n=60 v=0
129024 On ch=1 n=65 v=50
129408 On ch=1 n=65 v=0
129536 On ch=1 n=60 v=51
129920 On ch=1 n=60 v=0
130048 On ch=1 n=62 v=52
131072 On ch=1 n=62 v=0
131072 On ch=1 n=60 v=55
131328 On ch=1 n=60 v=0
131328 On ch=1 n=58 v=55
131584 On ch=1 n=58 v=0
131584 On ch=1 n=57 v=56
131840 On ch=1 n=57 v=0
131840 On ch=1 n=55 v=56
132096 On ch=1 n=55 v=0
132096 On ch=1 n=57 v=57
132352 On ch=1 n=57 v=0
132352 On ch=1 n=58 v=58
132608 On ch=1 n=58 v=0
132608 On ch=1 n=60 v=58
132864 On ch=1 n=60 v=0
132864 On ch=1 n=58 v=59
133120 On ch=1 n=58 v=0
133120 On ch=1 n=57 v=59
133376 On ch=1 n=57 v=0
133376 On ch=1 n=55 v=60
133632 On ch=1 n=55 v=0
133632 On ch=1 n=53 v=61
133888 On ch=1 n=53 v=0
133888 On ch=1 n=55 v=61
134144 On ch=1 n=55 v=0
134144 On ch=1 n=57 v=62
134400 On ch=1 n=57 v=0
134400 On ch=1 n=55 v=62
134656 On ch=1 n=55 v=0
134656 On ch=1 n=53 v=63
134912 On ch=1 n=53 v=0
134912 On ch=1 n=52 v=63
135168 On ch=1 n=52 v=0
135168 On ch=1 n=50 v=64
135680 On ch=1 n=50 v=0
135680 On ch=1 n=62 v=64
136064 On ch=1 n=62 v=0
136192 On ch=1 n=70 v=64
137216 On ch=1 n=70 v=0
137216 On ch=1 n=64 v=64
137600 On ch=1 n=64 v=0
137728 On ch=1 n=72 v=64
138240 On ch=1 n=72 v=0
138240 On ch=1 n=69 v=64
138624 On ch=1 n=69 v=0
138752 On ch=1 n=65 v=64
139136 On ch=1 n=65 v=0
139264 On ch=1 n=64 v=64
139392 On ch=1 n=64 v=0
139392 On ch=1 n=65 v=64
139520 On ch=1 n=65 v=0
139520 On ch=1 n=64 v=64
139712 On ch=1 n=64 v=0
139776 On ch=1 n=65 v=64
140800 On ch=1 n=65 v=0
142336 On ch=1 n=69 v=64
142720 On ch=1 n=69 v=0
142848 On ch=1 n=74 v=64
144896 On ch=1 n=74 v=0
144896 On ch=1 n=67 v=64
145280 On ch=1 n=67 v=0
145408 On ch=1 n=71 v=64
145792 On ch=1 n=71 v=0
145920 On ch=1 n=72 v=64
146304 On ch=1 n=72 v=0
146432 On ch=1 n=60 v=64
146816 On ch=1 n=60 v=0
148480 On ch=1 n=67 v=64
148864 On ch=1 n=67 v=0
148992 On ch=1 n=72 v=64
151040 On ch=1 n=72 v=0
151040 On ch=1 n=65 v=64
151424 On ch=1 n=65 v=0
151552 On ch=1 n=69 v=64
151936 On ch=1 n=69 v=0
152064 On ch=1 n=70 v=64
152448 On ch=1 n=70 v=0
152576 On ch=1 n=58 v=64
152960 On ch=1 n=58 v=0
154624 On ch=1 n=70 v=64
155008 On ch=1 n=70 v=0
155136 On ch=1 n=75 v=64
157184 On ch=1 n=75 v=0
157184 On ch=1 n=69 v=64
157568 On ch=1 n=69 v=0
157696 On ch=1 n=72 v=64
158080 On ch=1 n=72 v=0
158208 On ch=1 n=74 v=64
160256 On ch=1 n=74 v=0
160256 On ch=1 n=67 v=64
160640 On ch=1 n=67 v=0
160768 On ch=1 n=70 v=64
161152 On ch=1 n=70 v=0
161280 On ch=1 n=72 v=64
163328 On ch=1 n=72 v=0
163328 On ch=1 n=65 v=64
163712 On ch=1 n=65 v=0
163840 On ch=1 n=70 v=64
164864 On ch=1 n=70 v=0
164864 On ch=1 n=69 v=64
165248 On ch=1 n=69 v=0
165376 On ch=1 n=77 v=64
166400 On ch=1 n=77 v=0
166400 On ch=1 n=72 v=64
166784 On ch=1 n=72 v=0
166912 On ch=1 n=74 v=64
167424 On ch=1 n=74 v=0
167424 On ch=1 n=74 v=64
167936 On ch=1 n=74 v=0
167936 On ch=1 n=72 v=64
168320 On ch=1 n=72 v=0
168448 On ch=1 n=77 v=64
169472 On ch=1 n=77 v=0
169472 On ch=1 n=72 v=64
169856 On ch=1 n=72 v=0
169984 On ch=1 n=74 v=64
171008 On ch=1 n=74 v=0
171008 On ch=1 n=72 v=64
171392 On ch=1 n=72 v=0
171520 On ch=1 n=75 v=64
172544 On ch=1 n=75 v=0
172544 On ch=1 n=69 v=64
172928 On ch=1 n=69 v=0
173056 On ch=1 n=72 v=64
174080 On ch=1 n=72 v=0
174080 On ch=1 n=65 v=64
174464 On ch=1 n=65 v=0
174592 On ch=1 n=69 v=64
175616 On ch=1 n=69 v=0
175616 On ch=1 n=72 v=64
176000 On ch=1 n=72 v=0
176128 On ch=1 n=75 v=64
177152 On ch=1 n=75 v=0
177152 On ch=1 n=74 v=64
177536 On ch=1 n=74 v=0
177664 On ch=1 n=58 v=64
178048 On ch=1 n=58 v=0
178176 On ch=1 n=65 v=55
178432 On ch=1 n=65 v=0
178432 On ch=1 n=67 v=55
178688 On ch=1 n=67 v=0
178688 On ch=1 n=68 v=55
178944 On ch=1 n=68 v=0
178944 On ch=1 n=67 v=55
179200 On ch=1 n=67 v=0
179200 On ch=1 n=65 v=55
179456 On ch=1 n=65 v=0
179456 On ch=1 n=63 v=55
179712 On ch=1 n=63 v=0
179712 On ch=1 n=62 v=55
179968 On ch=1 n=62 v=0
179968 On ch=1 n=63 v=55
180224 On ch=1 n=63 v=0
180224 On ch=1 n=65 v=55
180480 On ch=1 n=65 v=0
180480 On ch=1 n=63 v=55
180736 On ch=1 n=63 v=0
180736 On ch=1 n=62 v=55
180992 On ch=1 n=62 v=0
180992 On ch=1 n=60 v=55
181248 On ch=1 n=60 v=0
181248 On ch=1 n=58 v=55
181504 On ch=1 n=58 v=0
181504 On ch=1 n=60 v=55
181760 On ch=1 n=60 v=0
181760 On ch=1 n=62 v=55
182016 On ch=1 n=62 v=0
182016 On ch=1 n=63 v=55
182272 On ch=1 n=63 v=0
182272 On ch=1 n=65 v=55
182528 On ch=1 n=65 v=0
182528 On ch=1 n=62 v=55
182784 On ch=1 n=62 v=0
182784 On ch=1 n=63 v=55
183168 On ch=1 n=63 v=0
183296 On ch=1 n=51 v=55
183680 On ch=1 n=51 v=0
183808 On ch=1 n=67 v=55
184832 On ch=1 n=67 v=0
184832 On ch=1 n=60 v=64
185216 On ch=1 n=60 v=0
185344 On ch=1 n=70 v=64
186368 On ch=1 n=70 v=0
186368 On ch=1 n=69 v=64
186752 On ch=1 n=69 v=0
189952 On ch=1 n=74 v=64
190976 On ch=1 n=74 v=0
190976 On ch=1 n=72 v=66
191360 On ch=1 n=72 v=0
191488 On ch=1 n=75 v=68
192512 On ch=1 n=75 v=0
192512 On ch=1 n=74 v=71
192896 On ch=1 n=74 v=0
193024 On ch=1 n=77 v=73
194048 On ch=1 n=77 v=0
194048 On ch=1 n=75 v=75
194304 On ch=1 n=75 v=0
194304 On ch=1 n=74 v=72
194560 On ch=1 n=74 v=0
194560 On ch=1 n=72 v=69
194816 On ch=1 n=72 v=0
194816 On ch=1 n=70 v=67
195072 On ch=1 n=70 v=0
195072 On ch=1 n=69 v=64
195328 On ch=1 n=69 v=0
195328 On ch=1 n=67 v=61
195584 On ch=1 n=67 v=0
195584 On ch=1 n=65 v=58
195840 On ch=1 n=65 v=0
195840 On ch=1 n=63 v=56
196096 On ch=1 n=63 v=0
196096 On ch=1 n=62 v=53
196352 On ch=1 n=62 v=0
196352 On ch=1 n=60 v=50
196608 On ch=1 n=60 v=0
196608 On ch=1 n=58 v=50
196864 On ch=1 n=58 v=0
196864 On ch=1 n=57 v=50
197120 On ch=1 n=57 v=0
197120 On ch=1 n=58 v=51
197504 On ch=1 n=58 v=0
198912 On ch=1 n=53 v=53
199168 On ch=1 n=53 v=0
199168 On ch=1 n=55 v=53
199424 On ch=1 n=55 v=0
199424 On ch=1 n=57 v=53
199680 On ch=1 n=57 v=0
199680 On ch=1 n=58 v=54
199936 On ch=1 n=58 v=0
199936 On ch=1 n=57 v=54
200192 On ch=1 n=57 v=0
200192 On ch=1 n=58 v=54
200576 On ch=1 n=58 v=0
201984 On ch=1 n=55 v=56
202240 On ch=1 n=55 v=0
202240 On ch=1 n=57 v=56
202496 On ch=1 n=57 v=0
202496 On ch=1 n=58 v=57
202752 On ch=1 n=58 v=0
202752 On ch=1 n=60 v=57
203008 On ch=1 n=60 v=0
203008 On ch=1 n=58 v=57
203264 On ch=1 n=58 v=0
203264 On ch=1 n=60 v=58
203520 On ch=1 n=60 v=0
203520 On ch=1 n=58 v=58
203776 On ch=1 n=58 v=0
203776 On ch=1 n=57 v=58
204032 On ch=1 n=57 v=0
204032 On ch=1 n=55 v=58
204288 On ch=1 n=55 v=0
204288 On ch=1 n=53 v=59
204672 On ch=1 n=53 v=0
204800 On ch=1 n=57 v=59
205184 On ch=1 n=57 v=0
205312 On ch=1 n=60 v=60
205696 On ch=1 n=60 v=0
205824 On ch=1 n=62 v=61
206080 On ch=1 n=62 v=0
206080 On ch=1 n=60 v=61
206336 On ch=1 n=60 v=0
206336 On ch=1 n=62 v=61
206592 On ch=1 n=62 v=0
206592 On ch=1 n=63 v=61
206848 On ch=1 n=63 v=0
206848 On ch=1 n=62 v=62
207104 On ch=1 n=62 v=0
207104 On ch=1 n=60 v=62
207360 On ch=1 n=60 v=0
207360 On ch=1 n=58 v=62
207616 On ch=1 n=58 v=0
207616 On ch=1 n=62 v=63
207872 On ch=1 n=62 v=0
207872 On ch=1 n=65 v=63
208128 On ch=1 n=65 v=0
208128 On ch=1 n=70 v=63
208384 On ch=1 n=70 v=0
208384 On ch=1 n=74 v=63
208640 On ch=1 n=74 v=0
208640 On ch=1 n=75 v=64
208896 On ch=1 n=75 v=0
208896 On ch=1 n=77 v=64
209280 On ch=1 n=77 v=0
209408 On ch=1 n=70 v=64
209792 On ch=1 n=70 v=0
209920 On ch=1 n=74 v=64
210944 On ch=1 n=74 v=0
210944 On ch=1 n=67 v=64
211328 On ch=1 n=67 v=0
211456 On ch=1 n=75 v=64
212480 On ch=1 n=75 v=0
212480 On ch=1 n=69 v=64
212864 On ch=1 n=69 v=0
212992 On ch=1 n=72 v=64
214016 On ch=1 n=72 v=0
214016 On ch=1 n=65 v=64
214400 On ch=1 n=65 v=0
214528 On ch=1 n=74 v=64
215296 On ch=1 n=74 v=0
215296 On ch=1 n=70 v=55
215552 On ch=1 n=70 v=0
215552 On ch=1 n=69 v=55
215808 On ch=1 n=69 v=0
215808 On ch=1 n=67 v=55
216064 On ch=1 n=67 v=0
216064 On ch=1 n=65 v=55
216320 On ch=1 n=65 v=0
216320 On ch=1 n=63 v=55
216576 On ch=1 n=63 v=0
216576 On ch=1 n=62 v=55
216832 On ch=1 n=62 v=0
216832 On ch=1 n=67 v=55
217088 On ch=1 n=67 v=0
217088 On ch=1 n=65 v=55
217344 On ch=1 n=65 v=0
217344 On ch=1 n=63 v=55
217600 On ch=1 n=63 v=0
217600 On ch=1 n=62 v=55
217856 On ch=1 n=62 v=0
217856 On ch=1 n=60 v=55
218112 On ch=1 n=60 v=0
218112 On ch=1 n=58 v=55
218368 On ch=1 n=58 v=0
218368 On ch=1 n=53 v=55
218624 On ch=1 n=53 v=0
218624 On ch=1 n=55 v=55
218880 On ch=1 n=55 v=0
218880 On ch=1 n=57 v=55
219136 On ch=1 n=57 v=0
219136 On ch=1 n=58 v=55
219392 On ch=1 n=58 v=0
219392 On ch=1 n=60 v=55
219648 On ch=1 n=60 v=0
219648 On ch=1 n=62 v=55
219904 On ch=1 n=62 v=0
219904 On ch=1 n=60 v=55
220160 On ch=1 n=60 v=0
220160 On ch=1 n=58 v=55
220416 On ch=1 n=58 v=0
220416 On ch=1 n=60 v=55
220672 On ch=1 n=60 v=0
220672 On ch=1 n=62 v=55
220928 On ch=1 n=62 v=0
220928 On ch=1 n=63 v=55
221184 On ch=1 n=63 v=0
221184 On ch=1 n=65 v=64
221568 On ch=1 n=65 v=0
221696 On ch=1 n=58 v=64
222080 On ch=1 n=58 v=0
222208 On ch=1 n=67 v=64
223232 On ch=1 n=67 v=0
223232 On ch=1 n=65 v=64
223616 On ch=1 n=65 v=0
223744 On ch=1 n=70 v=64
224768 On ch=1 n=70 v=0
224768 On ch=1 n=65 v=64
225152 On ch=1 n=65 v=0
225280 On ch=1 n=67 v=64
226304 On ch=1 n=67 v=0
226304 On ch=1 n=65 v=64
226688 On ch=1 n=65 v=0
226816 On ch=1 n=70 v=64
227840 On ch=1 n=70 v=0
227840 On ch=1 n=67 v=64
228224 On ch=1 n=67 v=0
228352 On ch=1 n=75 v=64
229376 On ch=1 n=75 v=0
229376 On ch=1 n=69 v=64
229760 On ch=1 n=69 v=0
229888 On ch=1 n=77 v=64
230400 On ch=1 n=77 v=0
230400 On ch=1 n=74 v=64
230784 On ch=1 n=74 v=0
230912 On ch=1 n=70 v=64
231296 On ch=1 n=70 v=0
231424 On ch=1 n=69 v=64
231808 On ch=1 n=69 v=0
231936 On ch=1 n=70 v=64
232192 On ch=1 n=70 v=0
232192 On ch=1 n=65 v=64
232448 On ch=1 n=65 v=0
232448 On ch=1 n=62 v=64
232704 On ch=1 n=62 v=0
232704 On ch=1 n=58 v=64
232960 On ch=1 n=58 v=0
232960 On ch=1 n=62 v=64
233216 On ch=1 n=62 v=0
233216 On ch=1 n=65 v=64
233472 On ch=1 n=65 v=0
233472 On ch=1 n=70 v=64
233984 On ch=1 n=70 v=0
233984 On ch=1 n=69 v=64
234368 On ch=1 n=69 v=0
234496 On ch=1 n=70 v=64
234880 On ch=1 n=70 v=0
235008 On ch=1 n=62 v=64
235520 On ch=1 n=62 v=0
235520 On ch=1 n=65 v=64
235904 On ch=1 n=65 v=0
236032 On ch=1 n=70 v=64
236416 On ch=1 n=70 v=0
236544 On ch=1 n=70 v=64
237056 On ch=1 n=70 v=0
237056 On ch=1 n=69 v=64
237440 On ch=1 n=69 v=0
237568 On ch=1 n=70 v=64
237952 On ch=1 n=70 v=0
238080 On ch=1 n=62 v=64
238592 On ch=1 n=62 v=0
238592 On ch=1 n=65 v=64
238976 On ch=1 n=65 v=0
239104 On ch=1 n=70 v=64
239488 On ch=1 n=70 v=0
239616 On ch=1 n=72 v=64
240128 On ch=1 n=72 v=0
240128 On ch=1 n=70 v=64
240512 On ch=1 n=70 v=0
240640 On ch=1 n=72 v=64
241024 On ch=1 n=72 v=0
241152 On ch=1 n=65 v=64
241664 On ch=1 n=65 v=0
241664 On ch=1 n=69 v=64
242048 On ch=1 n=69 v=0
242176 On ch=1 n=72 v=64
242560 On ch=1 n=72 v=0
242688 On ch=1 n=74 v=64
243200 On ch=1 n=74 v=0
243200 On ch=1 n=72 v=64
243584 On ch=1 n=72 v=0
243712 On ch=1 n=74 v=64
244096 On ch=1 n=74 v=0
244224 On ch=1 n=70 v=64
245248 On ch=1 n=70 v=0
245248 On ch=1 n=74 v=64
246272 On ch=1 n=74 v=0
246272 On ch=1 n=67 v=64
246656 On ch=1 n=67 v=0
246784 On ch=1 n=70 v=64
247808 On ch=1 n=70 v=0
247808 On ch=1 n=64 v=64
248192 On ch=1 n=64 v=0
248320 On ch=1 n=72 v=64
249344 On ch=1 n=72 v=0
249344 On ch=1 n=65 v=64
249728 On ch=1 n=65 v=0
249856 On ch=1 n=69 v=64
250880 On ch=1 n=69 v=0
250880 On ch=1 n=62 v=64
251264 On ch=1 n=62 v=0
251392 On ch=1 n=70 v=64
252416 On ch=1 n=70 v=0
252416 On ch=1 n=64 v=64
252800 On ch=1 n=64 v=0
252928 On ch=1 n=67 v=64
253952 On ch=1 n=67 v=0
253952 On ch=1 n=60 v=64
254336 On ch=1 n=60 v=0
254464 On ch=1 n=70 v=64
254848 On ch=1 n=70 v=0
254976 On ch=1 n=69 v=64
255488 On ch=1 n=69 v=0
255488 On ch=1 n=67 v=64
255872 On ch=1 n=67 v=0
256000 On ch=1 n=69 v=64
256384 On ch=1 n=69 v=0
256512 On ch=1 n=65 v=64
257024 On ch=1 n=65 v=0
257024 On ch=1 n=69 v=64
257408 On ch=1 n=69 v=0
257536 On ch=1 n=72 v=64
257920 On ch=1 n=72 v=0
258048 On ch=1 n=77 v=64
258432 On ch=1 n=77 v=0
258560 On ch=1 n=70 v=64
258944 On ch=1 n=70 v=0
259072 On ch=1 n=74 v=64
260096 On ch=1 n=74 v=0
260096 On ch=1 n=67 v=64
260480 On ch=1 n=67 v=0
260608 On ch=1 n=75 v=64
261632 On ch=1 n=75 v=0
261632 On ch=1 n=69 v=64
262016 On ch=1 n=69 v=0
262144 On ch=1 n=72 v=64
263168 On ch=1 n=72 v=0
263168 On ch=1 n=65 v=64
263552 On ch=1 n=65 v=0
263680 On ch=1 n=74 v=64
264704 On ch=1 n=74 v=0
264704 On ch=1 n=65 v=64
265088 On ch=1 n=65 v=0
265216 On ch=1 n=70 v=64
266240 On ch=1 n=70 v=0
266240 On ch=1 n=62 v=64
266624 On ch=1 n=62 v=0
266752 On ch=1 n=65 v=64
267776 On ch=1 n=65 v=0
267776 On ch=1 n=58 v=64
268160 On ch=1 n=58 v=0
268288 On ch=1 n=62 v=64
268672 On ch=1 n=62 v=0
268800 On ch=1 n=65 v=64
269184 On ch=1 n=65 v=0
269312 On ch=1 n=62 v=64
269696 On ch=1 n=62 v=0
269824 On ch=1 n=65 v=64
270208 On ch=1 n=65 v=0
270336 On ch=1 n=70 v=64
270720 On ch=1 n=70 v=0
270848 On ch=1 n=65 v=64
271232 On ch=1 n=65 v=0
271360 On ch=1 n=67 v=64
272384 On ch=1 n=67 v=0
272384 On ch=1 n=65 v=64
272768 On ch=1 n=65 v=0
272896 On ch=1 n=70 v=64
273920 On ch=1 n=70 v=0
273920 On ch=1 n=65 v=64
274304 On ch=1 n=65 v=0
274432 On ch=1 n=67 v=64
275456 On ch=1 n=67 v=0
275456 On ch=1 n=65 v=64
275840 On ch=1 n=65 v=0
275968 On ch=1 n=70 v=64
276992 On ch=1 n=70 v=0
276992 On ch=1 n=67 v=64
277376 On ch=1 n=67 v=0
277504 On ch=1 n=75 v=64
278528 On ch=1 n=75 v=0
278528 On ch=1 n=69 v=64
278912 On ch=1 n=69 v=0
279040 On ch=1 n=77 v=64
279552 On ch=1 n=77 v=0
279552 On ch=1 n=74 v=64
279936 On ch=1 n=74 v=0
280064 On ch=1 n=70 v=64
280448 On ch=1 n=70 v=0
280576 On ch=1 n=69 v=64
280704 On ch=1 n=69 v=0
280704 On ch=1 n=67 v=64
280832 On ch=1 n=67 v=0
280832 On ch=1 n=69 v=64
281024 On ch=1 n=69 v=0
281088 On ch=1 n=70 v=64
281856 On ch=1 n=70 v=0
281856 On ch=1 n=74 v=70
282112 On ch=1 n=74 v=0
282112 On ch=1 n=72 v=70
282368 On ch=1 n=72 v=0
282368 On ch=1 n=74 v=70
282624 On ch=1 n=74 v=0
282624 On ch=1 n=70 v=70
282880 On ch=1 n=70 v=0
282880 On ch=1 n=74 v=70
283136 On ch=1 n=74 v=0
283136 On ch=1 n=69 v=70
283392 On ch=1 n=69 v=0
283392 On ch=1 n=74 v=70
283648 On ch=1 n=74 v=0
283648 On ch=1 n=67 v=70
283904 On ch=1 n=67 v=0
283904 On ch=1 n=74 v=70
284160 On ch=1 n=74 v=0
284160 On ch=1 n=66 v=70
284416 On ch=1 n=66 v=0
284416 On ch=1 n=74 v=70
284672 On ch=1 n=74 v=0
284672 On ch=1 n=64 v=70
284928 On ch=1 n=64 v=0
284928 On ch=1 n=74 v=70
285184 On ch=1 n=74 v=0
285184 On ch=1 n=66 v=70
285440 On ch=1 n=66 v=0
285440 On ch=1 n=74 v=70
285696 On ch=1 n=74 v=0
285696 On ch=1 n=67 v=70
285952 On ch=1 n=67 v=0
285952 On ch=1 n=74 v=70
286208 On ch=1 n=74 v=0
286208 On ch=1 n=66 v=70
286464 On ch=1 n=66 v=0
286464 On ch=1 n=74 v=70
286720 On ch=1 n=74 v=0
286720 On ch=1 n=67 v=70
286976 On ch=1 n=67 v=0
286976 On ch=1 n=74 v=70
287232 On ch=1 n=74 v=0
287232 On ch=1 n=69 v=70
287488 On ch=1 n=69 v=0
287488 On ch=1 n=74 v=70
287744 On ch=1 n=74 v=0
287744 On ch=1 n=67 v=70
288000 On ch=1 n=67 v=0
288000 On ch=1 n=74 v=70
288256 On ch=1 n=74 v=0
288256 On ch=1 n=69 v=70
288512 On ch=1 n=69 v=0
288512 On ch=1 n=74 v=70
288768 On ch=1 n=74 v=0
288768 On ch=1 n=70 v=70
289024 On ch=1 n=70 v=0
289024 On ch=1 n=74 v=70
289280 On ch=1 n=74 v=0
289280 On ch=1 n=69 v=70
289536 On ch=1 n=69 v=0
289536 On ch=1 n=74 v=70
289792 On ch=1 n=74 v=0
289792 On ch=1 n=70 v=70
290048 On ch=1 n=70 v=0
290048 On ch=1 n=74 v=70
290304 On ch=1 n=74 v=0
290304 On ch=1 n=72 v=70
290560 On ch=1 n=72 v=0
290560 On ch=1 n=74 v=70
290816 On ch=1 n=74 v=0
290816 On ch=1 n=70 v=70
291072 On ch=1 n=70 v=0
291072 On ch=1 n=74 v=70
291328 On ch=1 n=74 v=0
291328 On ch=1 n=69 v=70
291584 On ch=1 n=69 v=0
291584 On ch=1 n=74 v=70
291840 On ch=1 n=74 v=0
291840 On ch=1 n=70 v=70
292096 On ch=1 n=70 v=0
292096 On ch=1 n=74 v=70
292352 On ch=1 n=74 v=0
292352 On ch=1 n=69 v=70
292608 On ch=1 n=69 v=0
292608 On ch=1 n=74 v=70
292864 On ch=1 n=74 v=0
292864 On ch=1 n=67 v=70
293120 On ch=1 n=67 v=0
293120 On ch=1 n=74 v=70
293376 On ch=1 n=74 v=0
293376 On ch=1 n=66 v=70
293632 On ch=1 n=66 v=0
293632 On ch=1 n=62 v=70
293888 On ch=1 n=62 v=0
293888 On ch=1 n=66 v=70
294144 On ch=1 n=66 v=0
294144 On ch=1 n=69 v=70
294400 On ch=1 n=69 v=0
294400 On ch=1 n=74 v=70
294656 On ch=1 n=74 v=0
294656 On ch=1 n=75 v=70
294912 On ch=1 n=75 v=0
294912 On ch=1 n=77 v=55
296448 On ch=1 n=77 v=0
296704 On ch=1 n=60 v=55
296960 On ch=1 n=60 v=0
296960 On ch=1 n=63 v=55
297216 On ch=1 n=63 v=0
297216 On ch=1 n=67 v=55
297472 On ch=1 n=67 v=0
297472 On ch=1 n=72 v=55
297728 On ch=1 n=72 v=0
297728 On ch=1 n=74 v=55
297984 On ch=1 n=74 v=0
297984 On ch=1 n=75 v=55
299520 On ch=1 n=75 v=0
299776 On ch=1 n=58 v=55
300032 On ch=1 n=58 v=0
300032 On ch=1 n=62 v=55
300288 On ch=1 n=62 v=0
300288 On ch=1 n=65 v=55
300544 On ch=1 n=65 v=0
300544 On ch=1 n=70 v=55
300800 On ch=1 n=70 v=0
300800 On ch=1 n=72 v=55
301056 On ch=1 n=72 v=0
301056 On ch=1 n=74 v=55
302592 On ch=1 n=74 v=0
302848 On ch=1 n=57 v=55
303104 On ch=1 n=57 v=0
303104 On ch=1 n=60 v=55
303360 On ch=1 n=60 v=0
303360 On ch=1 n=66 v=55
303616 On ch=1 n=66 v=0
303616 On ch=1 n=69 v=55
303872 On ch=1 n=69 v=0
303872 On ch=1 n=70 v=55
304128 On ch=1 n=70 v=0
304128 On ch=1 n=72 v=55
305664 On ch=1 n=72 v=0
305920 On ch=1 n=55 v=55
306176 On ch=1 n=55 v=0
306176 On ch=1 n=57 v=55
306432 On ch=1 n=57 v=0
306432 On ch=1 n=58 v=55
306688 On ch=1 n=58 v=0
306688 On ch=1 n=60 v=55
306944 On ch=1 n=60 v=0
306944 On ch=1 n=62 v=55
307200 On ch=1 n=62 v=0
307200 On ch=1 n=63 v=55
308992 On ch=1 n=63 v=0
308992 On ch=1 n=57 v=57
309248 On ch=1 n=57 v=0
309248 On ch=1 n=58 v=58
309504 On ch=1 n=58 v=0
309504 On ch=1 n=60 v=58
309760 On ch=1 n=60 v=0
309760 On ch=1 n=62 v=58
310016 On ch=1 n=62 v=0
310016 On ch=1 n=64 v=58
310272 On ch=1 n=64 v=0
310272 On ch=1 n=65 v=59
312064 On ch=1 n=65 v=0
312064 On ch=1 n=58 v=61
312320 On ch=1 n=58 v=0
312320 On ch=1 n=60 v=61
312576 On ch=1 n=60 v=0
312576 On ch=1 n=62 v=62
312832 On ch=1 n=62 v=0
312832 On ch=1 n=64 v=62
313088 On ch=1 n=64 v=0
313088 On ch=1 n=66 v=62
313344 On ch=1 n=66 v=0
313344 On ch=1 n=67 v=63
314112 On ch=1 n=67 v=0
314112 On ch=1 n=70 v=63
314368 On ch=1 n=70 v=0
314368 On ch=1 n=72 v=64
314624 On ch=1 n=72 v=0
314624 On ch=1 n=74 v=64
314880 On ch=1 n=74 v=0
314880 On ch=1 n=75 v=64
315136 On ch=1 n=75 v=0
315136 On ch=1 n=74 v=65
315392 On ch=1 n=74 v=0
315392 On ch=1 n=72 v=65
315648 On ch=1 n=72 v=0
315648 On ch=1 n=70 v=65
315904 On ch=1 n=70 v=0
315904 On ch=1 n=69 v=66
316160 On ch=1 n=69 v=0
316160 On ch=1 n=67 v=66
316416 On ch=1 n=67 v=0
316416 On ch=1 n=66 v=66
316672 On ch=1 n=66 v=0
316672 On ch=1 n=64 v=67
316928 On ch=1 n=64 v=0
316928 On ch=1 n=66 v=67
317184 On ch=1 n=66 v=0
317184 On ch=1 n=67 v=67
317440 On ch=1 n=67 v=0
317440 On ch=1 n=66 v=68
317696 On ch=1 n=66 v=0
317696 On ch=1 n=67 v=68
317952 On ch=1 n=67 v=0
317952 On ch=1 n=69 v=68
318208 On ch=1 n=69 v=0
318208 On ch=1 n=67 v=68
318464 On ch=1 n=67 v=0
318464 On ch=1 n=69 v=69
318720 On ch=1 n=69 v=0
318720 On ch=1 n=70 v=69
318976 On ch=1 n=70 v=0
318976 On ch=1 n=69 v=69
319232 On ch=1 n=69 v=0
319232 On ch=1 n=70 v=70
319488 On ch=1 n=70 v=0
319488 On ch=1 n=67 v=70
320000 On ch=1 n=67 v=0
320000 On ch=1 n=66 v=70
320384 On ch=1 n=66 v=0
320512 On ch=1 n=67 v=70
320896 On ch=1 n=67 v=0
321024 On ch=1 n=58 v=70
321536 On ch=1 n=58 v=0
321536 On ch=1 n=62 v=70
321920 On ch=1 n=62 v=0
322048 On ch=1 n=67 v=70
322432 On ch=1 n=67 v=0
322560 On ch=1 n=67 v=70
323072 On ch=1 n=67 v=0
323072 On ch=1 n=66 v=70
323456 On ch=1 n=66 v=0
323584 On ch=1 n=67 v=70
323968 On ch=1 n=67 v=0
324096 On ch=1 n=58 v=70
324608 On ch=1 n=58 v=0
324608 On ch=1 n=62 v=70
324992 On ch=1 n=62 v=0
325120 On ch=1 n=67 v=70
325504 On ch=1 n=67 v=0
325632 On ch=1 n=69 v=70
326144 On ch=1 n=69 v=0
326144 On ch=1 n=67 v=70
326528 On ch=1 n=67 v=0
326656 On ch=1 n=69 v=70
327040 On ch=1 n=69 v=0
327168 On ch=1 n=62 v=70
327680 On ch=1 n=62 v=0
327680 On ch=1 n=66 v=70
328064 On ch=1 n=66 v=0
328192 On ch=1 n=69 v=70
328576 On ch=1 n=69 v=0
328704 On ch=1 n=70 v=70
329216 On ch=1 n=70 v=0
329216 On ch=1 n=69 v=70
329600 On ch=1 n=69 v=0
329728 On ch=1 n=70 v=70
330112 On ch=1 n=70 v=0
330240 On ch=1 n=67 v=70
331264 On ch=1 n=67 v=0
331264 On ch=1 n=74 v=70
331648 On ch=1 n=74 v=0
331776 On ch=1 n=79 v=50
333824 On ch=1 n=79 v=0
333824 On ch=1 n=73 v=50
334208 On ch=1 n=73 v=0
334336 On ch=1 n=76 v=50
334720 On ch=1 n=76 v=0
334848 On ch=1 n=77 v=50
335104 On ch=1 n=77 v=0
335104 On ch=1 n=76 v=50
335360 On ch=1 n=76 v=0
335360 On ch=1 n=74 v=50
335616 On ch=1 n=74 v=0
335616 On ch=1 n=77 v=50
335872 On ch=1 n=77 v=0
335872 On ch=1 n=76 v=50
336128 On ch=1 n=76 v=0
336128 On ch=1 n=79 v=50
336384 On ch=1 n=79 v=0
336384 On ch=1 n=77 v=50
336640 On ch=1 n=77 v=0
336640 On ch=1 n=69 v=50
336896 On ch=1 n=69 v=0
336896 On ch=1 n=74 v=50
337152 On ch=1 n=74 v=0
337152 On ch=1 n=76 v=50
337280 On ch=1 n=76 v=0
337280 On ch=1 n=77 v=50
337408 On ch=1 n=77 v=0
337408 On ch=1 n=76 v=50
337664 On ch=1 n=76 v=0
337664 On ch=1 n=77 v=50
337792 On ch=1 n=77 v=0
337792 On ch=1 n=79 v=50
337920 On ch=1 n=79 v=0
337920 On ch=1 n=77 v=50
339968 On ch=1 n=77 v=0
339968 On ch=1 n=71 v=55
340352 On ch=1 n=71 v=0
340480 On ch=1 n=74 v=56
340864 On ch=1 n=74 v=0
340992 On ch=1 n=75 v=57
341248 On ch=1 n=75 v=0
341248 On ch=1 n=74 v=58
341504 On ch=1 n=74 v=0
341504 On ch=1 n=72 v=58
341760 On ch=1 n=72 v=0
341760 On ch=1 n=75 v=59
342016 On ch=1 n=75 v=0
342016 On ch=1 n=74 v=59
342272 On ch=1 n=74 v=0
342272 On ch=1 n=77 v=60
342528 On ch=1 n=77 v=0
342528 On ch=1 n=75 v=61
342912 On ch=1 n=75 v=0
343040 On ch=1 n=72 v=62
343424 On ch=1 n=72 v=0
343552 On ch=1 n=75 v=63
343936 On ch=1 n=75 v=0
344064 On ch=1 n=74 v=64
346112 On ch=1 n=74 v=0
346112 On ch=1 n=67 v=64
346496 On ch=1 n=67 v=0
346624 On ch=1 n=70 v=64
347008 On ch=1 n=70 v=0
347136 On ch=1 n=72 v=64
349184 On ch=1 n=72 v=0
349184 On ch=1 n=65 v=64
349568 On ch=1 n=65 v=0
349696 On ch=1 n=69 v=64
350080 On ch=1 n=69 v=0
350208 On ch=1 n=70 v=64
352256 On ch=1 n=70 v=0
352256 On ch=1 n=64 v=64
352640 On ch=1 n=64 v=0
352768 On ch=1 n=67 v=64
353152 On ch=1 n=67 v=0
353280 On ch=1 n=69 v=64
357888 On ch=1 n=69 v=0
358656 On ch=1 n=69 v=64
358912 On ch=1 n=69 v=0
358912 On ch=1 n=79 v=64
359168 On ch=1 n=79 v=0
359168 On ch=1 n=69 v=64
359424 On ch=1 n=69 v=0
359424 On ch=1 n=77 v=64
359680 On ch=1 n=77 v=0
359680 On ch=1 n=69 v=64
359936 On ch=1 n=69 v=0
359936 On ch=1 n=76 v=64
360192 On ch=1 n=76 v=0
360192 On ch=1 n=69 v=64
360448 On ch=1 n=69 v=0
360448 On ch=1 n=74 v=64
360704 On ch=1 n=74 v=0
360704 On ch=1 n=69 v=64
360960 On ch=1 n=69 v=0
360960 On ch=1 n=73 v=64
361216 On ch=1 n=73 v=0
361216 On ch=1 n=69 v=64
361472 On ch=1 n=69 v=0
361472 On ch=1 n=71 v=64
361728 On ch=1 n=71 v=0
361728 On ch=1 n=69 v=64
361984 On ch=1 n=69 v=0
361984 On ch=1 n=73 v=64
362240 On ch=1 n=73 v=0
362240 On ch=1 n=69 v=64
362496 On ch=1 n=69 v=0
362496 On ch=1 n=74 v=64
362752 On ch=1 n=74 v=0
362752 On ch=1 n=69 v=64
363008 On ch=1 n=69 v=0
363008 On ch=1 n=73 v=64
363264 On ch=1 n=73 v=0
363264 On ch=1 n=69 v=64
363520 On ch=1 n=69 v=0
363520 On ch=1 n=74 v=64
363776 On ch=1 n=74 v=0
363776 On ch=1 n=69 v=64
364032 On ch=1 n=69 v=0
364032 On ch=1 n=76 v=64
364288 On ch=1 n=76 v=0
364288 On ch=1 n=69 v=64
364544 On ch=1 n=69 v=0
364544 On ch=1 n=74 v=64
364800 On ch=1 n=74 v=0
364800 On ch=1 n=69 v=64
365056 On ch=1 n=69 v=0
365056 On ch=1 n=73 v=64
365312 On ch=1 n=73 v=0
365312 On ch=1 n=69 v=64
365568 On ch=1 n=69 v=0
365568 On ch=1 n=74 v=64
365824 On ch=1 n=74 v=0
365824 On ch=1 n=69 v=64
366080 On ch=1 n=69 v=0
366080 On ch=1 n=76 v=64
366336 On ch=1 n=76 v=0
366336 On ch=1 n=69 v=64
366592 On ch=1 n=69 v=0
366592 On ch=1 n=77 v=64
366848 On ch=1 n=77 v=0
366848 On ch=1 n=69 v=64
367104 On ch=1 n=69 v=0
367104 On ch=1 n=76 v=64
367488 On ch=1 n=76 v=0
367616 On ch=1 n=69 v=64
368000 On ch=1 n=69 v=0
368896 On ch=1 n=62 v=50
369152 On ch=1 n=62 v=0
369152 On ch=1 n=65 v=50
369408 On ch=1 n=65 v=0
369408 On ch=1 n=69 v=50
369664 On ch=1 n=69 v=0
369664 On ch=1 n=74 v=50
369920 On ch=1 n=74 v=0
369920 On ch=1 n=72 v=50
370176 On ch=1 n=72 v=0
370176 On ch=1 n=70 v=50
371968 On ch=1 n=70 v=0
371968 On ch=1 n=60 v=50
372224 On ch=1 n=60 v=0
372224 On ch=1 n=64 v=50
372480 On ch=1 n=64 v=0
372480 On ch=1 n=67 v=50
372736 On ch=1 n=67 v=0
372736 On ch=1 n=72 v=50
372992 On ch=1 n=72 v=0
372992 On ch=1 n=70 v=50
373248 On ch=1 n=70 v=0
373248 On ch=1 n=69 v=50
375040 On ch=1 n=69 v=0
375040 On ch=1 n=58 v=50
375296 On ch=1 n=58 v=0
375296 On ch=1 n=62 v=50
375552 On ch=1 n=62 v=0
375552 On ch=1 n=65 v=50
375808 On ch=1 n=65 v=0
375808 On ch=1 n=70 v=50
376064 On ch=1 n=70 v=0
376064 On ch=1 n=69 v=50
376320 On ch=1 n=69 v=0
376320 On ch=1 n=67 v=50
378112 On ch=1 n=67 v=0
378112 On ch=1 n=57 v=50
378368 On ch=1 n=57 v=0
378368 On ch=1 n=61 v=50
378624 On ch=1 n=61 v=0
378624 On ch=1 n=64 v=50
378880 On ch=1 n=64 v=0
378880 On ch=1 n=69 v=50
379136 On ch=1 n=69 v=0
379136 On ch=1 n=67 v=50
379392 On ch=1 n=67 v=0
379392 On ch=1 n=65 v=50
381184 On ch=1 n=65 v=0
381184 On ch=1 n=64 v=51
381440 On ch=1 n=64 v=0
381440 On ch=1 n=62 v=51
381696 On ch=1 n=62 v=0
381696 On ch=1 n=60 v=52
381952 On ch=1 n=60 v=0
381952 On ch=1 n=58 v=52
382208 On ch=1 n=58 v=0
382208 On ch=1 n=57 v=53
382464 On ch=1 n=57 v=0
382464 On ch=1 n=67 v=53
384256 On ch=1 n=67 v=0
384256 On ch=1 n=65 v=57
384512 On ch=1 n=65 v=0
384512 On ch=1 n=64 v=57
384768 On ch=1 n=64 v=0
384768 On ch=1 n=62 v=58
385024 On ch=1 n=62 v=0
385024 On ch=1 n=60 v=58
385280 On ch=1 n=60 v=0
385280 On ch=1 n=58 v=59
385536 On ch=1 n=58 v=0
385536 On ch=1 n=69 v=59
387328 On ch=1 n=69 v=0
387328 On ch=1 n=67 v=63
387584 On ch=1 n=67 v=0
387584 On ch=1 n=65 v=64
387840 On ch=1 n=65 v=0
387840 On ch=1 n=64 v=64
388096 On ch=1 n=64 v=0
388096 On ch=1 n=62 v=65
388352 On ch=1 n=62 v=0
388352 On ch=1 n=61 v=65
388608 On ch=1 n=61 v=0
388608 On ch=1 n=62 v=66
388864 On ch=1 n=62 v=0
388864 On ch=1 n=60 v=66
389120 On ch=1 n=60 v=0
389120 On ch=1 n=58 v=67
389376 On ch=1 n=58 v=0
389376 On ch=1 n=57 v=67
389632 On ch=1 n=57 v=0
389632 On ch=1 n=55 v=68
389888 On ch=1 n=55 v=0
389888 On ch=1 n=53 v=68
390144 On ch=1 n=53 v=0
390144 On ch=1 n=52 v=69
390400 On ch=1 n=52 v=0
390400 On ch=1 n=50 v=69
390656 On ch=1 n=50 v=0
390656 On ch=1 n=52 v=70
390912 On ch=1 n=52 v=0
390912 On ch=1 n=53 v=70
391168 On ch=1 n=53 v=0
391168 On ch=1 n=52 v=71
391424 On ch=1 n=52 v=0
391424 On ch=1 n=53 v=71
391680 On ch=1 n=53 v=0
391680 On ch=1 n=55 v=72
391936 On ch=1 n=55 v=0
391936 On ch=1 n=53 v=72
392192 On ch=1 n=53 v=0
392192 On ch=1 n=55 v=73
392448 On ch=1 n=55 v=0
392448 On ch=1 n=57 v=73
392704 On ch=1 n=57 v=0
392704 On ch=1 n=55 v=74
392960 On ch=1 n=55 v=0
392960 On ch=1 n=57 v=74
393216 On ch=1 n=57 v=0
393216 On ch=1 n=53 v=50
393600 On ch=1 n=53 v=0
393728 On ch=1 n=57 v=50
394112 On ch=1 n=57 v=0
394240 On ch=1 n=58 v=50
395264 On ch=1 n=58 v=0
395264 On ch=1 n=57 v=50
395648 On ch=1 n=57 v=0
395776 On ch=1 n=62 v=50
396800 On ch=1 n=62 v=0
396800 On ch=1 n=57 v=50
397184 On ch=1 n=57 v=0
397312 On ch=1 n=58 v=50
398336 On ch=1 n=58 v=0
398336 On ch=1 n=57 v=50
398720 On ch=1 n=57 v=0
398848 On ch=1 n=62 v=50
399872 On ch=1 n=62 v=0
399872 On ch=1 n=59 v=50
400256 On ch=1 n=59 v=0
400384 On ch=1 n=67 v=50
401408 On ch=1 n=67 v=0
401408 On ch=1 n=61 v=50
401792 On ch=1 n=61 v=0
401920 On ch=1 n=69 v=50
402304 On ch=1 n=69 v=0
402432 On ch=1 n=65 v=50
402816 On ch=1 n=65 v=0
402944 On ch=1 n=62 v=50
403328 On ch=1 n=62 v=0
403456 On ch=1 n=61 v=50
403584 On ch=1 n=61 v=0
403584 On ch=1 n=62 v=50
403712 On ch=1 n=62 v=0
403712 On ch=1 n=61 v=50
403922 On ch=1 n=61 v=0
403968 On ch=1 n=62 v=50
404931 On ch=1 n=62 v=0
404992 On ch=1 n=65 v=64
405376 On ch=1 n=65 v=0
405504 On ch=1 n=70 v=64
406016 On ch=1 n=70 v=0
406016 On ch=1 n=69 v=64
406400 On ch=1 n=69 v=0
406528 On ch=1 n=70 v=64
406912 On ch=1 n=70 v=0
407040 On ch=1 n=62 v=64
407552 On ch=1 n=62 v=0
407552 On ch=1 n=65 v=64
407936 On ch=1 n=65 v=0
408064 On ch=1 n=70 v=64
408448 On ch=1 n=70 v=0
408576 On ch=1 n=70 v=64
409088 On ch=1 n=70 v=0
409088 On ch=1 n=69 v=64
409472 On ch=1 n=69 v=0
409600 On ch=1 n=70 v=64
409984 On ch=1 n=70 v=0
410112 On ch=1 n=62 v=64
410624 On ch=1 n=62 v=0
410624 On ch=1 n=65 v=64
411008 On ch=1 n=65 v=0
411136 On ch=1 n=70 v=64
411520 On ch=1 n=70 v=0
411648 On ch=1 n=72 v=64
412160 On ch=1 n=72 v=0
412160 On ch=1 n=70 v=64
412544 On ch=1 n=70 v=0
412672 On ch=1 n=72 v=64
413056 On ch=1 n=72 v=0
413184 On ch=1 n=65 v=64
413696 On ch=1 n=65 v=0
413696 On ch=1 n=69 v=64
414080 On ch=1 n=69 v=0
414208 On ch=1 n=72 v=64
414592 On ch=1 n=72 v=0
414720 On ch=1 n=74 v=64
415232 On ch=1 n=74 v=0
415232 On ch=1 n=72 v=64
415616 On ch=1 n=72 v=0
415744 On ch=1 n=74 v=64
416128 On ch=1 n=74 v=0
416256 On ch=1 n=70 v=64
417280 On ch=1 n=70 v=0
417280 On ch=1 n=74 v=64
418304 On ch=1 n=74 v=0
418304 On ch=1 n=67 v=64
418688 On ch=1 n=67 v=0
418816 On ch=1 n=70 v=64
419840 On ch=1 n=70 v=0
419840 On ch=1 n=64 v=64
420224 On ch=1 n=64 v=0
420352 On ch=1 n=72 v=64
421376 On ch=1 n=72 v=0
421376 On ch=1 n=65 v=64
421760 On ch=1 n=65 v=0
421888 On ch=1 n=69 v=64
422912 On ch=1 n=69 v=0
422912 On ch=1 n=62 v=64
423296 On ch=1 n=62 v=0
423424 On ch=1 n=70 v=64
424448 On ch=1 n=70 v=0
424448 On ch=1 n=64 v=64
424832 On ch=1 n=64 v=0
424960 On ch=1 n=67 v=64
425984 On ch=1 n=67 v=0
425984 On ch=1 n=60 v=64
426368 On ch=1 n=60 v=0
426496 On ch=1 n=70 v=64
426880 On ch=1 n=70 v=0
427008 On ch=1 n=69 v=64
427520 On ch=1 n=69 v=0
427520 On ch=1 n=67 v=64
427904 On ch=1 n=67 v=0
428032 On ch=1 n=69 v=64
428416 On ch=1 n=69 v=0
428544 On ch=1 n=65 v=64
429056 On ch=1 n=65 v=0
429056 On ch=1 n=69 v=64
429440 On ch=1 n=69 v=0
429568 On ch=1 n=72 v=64
429952 On ch=1 n=72 v=0
430080 On ch=1 n=77 v=64
430464 On ch=1 n=77 v=0
430592 On ch=1 n=70 v=64
430976 On ch=1 n=70 v=0
431104 On ch=1 n=74 v=64
432128 On ch=1 n=74 v=0
432128 On ch=1 n=67 v=64
432512 On ch=1 n=67 v=0
432640 On ch=1 n=75 v=64
433664 On ch=1 n=75 v=0
433664 On ch=1 n=69 v=64
434048 On ch=1 n=69 v=0
434176 On ch=1 n=72 v=64
435200 On ch=1 n=72 v=0
435200 On ch=1 n=65 v=64
435584 On ch=1 n=65 v=0
435712 On ch=1 n=74 v=64
436736 On ch=1 n=74 v=0
436736 On ch=1 n=65 v=64
437120 On ch=1 n=65 v=0
437248 On ch=1 n=70 v=64
438272 On ch=1 n=70 v=0
438272 On ch=1 n=62 v=64
438656 On ch=1 n=62 v=0
438784 On ch=1 n=65 v=64
439808 On ch=1 n=65 v=0
439808 On ch=1 n=58 v=64
440192 On ch=1 n=58 v=0
440320 On ch=1 n=62 v=64
440704 On ch=1 n=62 v=0
440832 On ch=1 n=65 v=64
441216 On ch=1 n=65 v=0
441344 On ch=1 n=62 v=64
441728 On ch=1 n=62 v=0
441856 On ch=1 n=65 v=64
442240 On ch=1 n=65 v=0
442368 On ch=1 n=70 v=64
442752 On ch=1 n=70 v=0
442880 On ch=1 n=65 v=64
443264 On ch=1 n=65 v=0
443392 On ch=1 n=67 v=64
444416 On ch=1 n=67 v=0
444416 On ch=1 n=65 v=64
444800 On ch=1 n=65 v=0
444928 On ch=1 n=70 v=64
445952 On ch=1 n=70 v=0
445952 On ch=1 n=65 v=64
446336 On ch=1 n=65 v=0
446464 On ch=1 n=67 v=64
447488 On ch=1 n=67 v=0
447488 On ch=1 n=65 v=64
447872 On ch=1 n=65 v=0
448000 On ch=1 n=70 v=64
449024 On ch=1 n=70 v=0
449024 On ch=1 n=67 v=64
449408 On ch=1 n=67 v=0
449536 On ch=1 n=75 v=64
450560 On ch=1 n=75 v=0
450560 On ch=1 n=69 v=64
450944 On ch=1 n=69 v=0
451072 On ch=1 n=77 v=64
451584 On ch=1 n=77 v=0
451584 On ch=1 n=74 v=64
451968 On ch=1 n=74 v=0
452096 On ch=1 n=70 v=64
452480 On ch=1 n=70 v=0
452608 On ch=1 n=69 v=64
452992 On ch=1 n=69 v=0
453120 On ch=1 n=70 v=64
453888 On ch=1 n=70 v=0
453888 On ch=1 n=65 v=64
454144 On ch=1 n=65 v=0
454144 On ch=1 n=67 v=64
454400 On ch=1 n=67 v=0
454400 On ch=1 n=69 v=64
454656 On ch=1 n=69 v=0
454656 On ch=1 n=70 v=45
454912 On ch=1 n=70 v=0
454912 On ch=1 n=69 v=45
455168 On ch=1 n=69 v=0
455168 On ch=1 n=70 v=45
455552 On ch=1 n=70 v=0
456960 On ch=1 n=65 v=45
457216 On ch=1 n=65 v=0
457216 On ch=1 n=67 v=45
457472 On ch=1 n=67 v=0
457472 On ch=1 n=69 v=45
457728 On ch=1 n=69 v=0
457728 On ch=1 n=70 v=45
457984 On ch=1 n=70 v=0
457984 On ch=1 n=69 v=45
458240 On ch=1 n=69 v=0
458240 On ch=1 n=70 v=45
458624 On ch=1 n=70 v=0
460032 On ch=1 n=67 v=45
460288 On ch=1 n=67 v=0
460288 On ch=1 n=69 v=45
460544 On ch=1 n=69 v=0
460544 On ch=1 n=70 v=45
460800 On ch=1 n=70 v=0
460800 On ch=1 n=72 v=45
461056 On ch=1 n=72 v=0
461056 On ch=1 n=70 v=45
461312 On ch=1 n=70 v=0
461312 On ch=1 n=72 v=45
461568 On ch=1 n=72 v=0
461568 On ch=1 n=70 v=45
461824 On ch=1 n=70 v=0
461824 On ch=1 n=69 v=45
462080 On ch=1 n=69 v=0
462080 On ch=1 n=67 v=45
462336 On ch=1 n=67 v=0
462336 On ch=1 n=65 v=45
462720 On ch=1 n=65 v=0
462848 On ch=1 n=69 v=45
463232 On ch=1 n=69 v=0
463360 On ch=1 n=72 v=45
463744 On ch=1 n=72 v=0
463872 On ch=1 n=74 v=45
464128 On ch=1 n=74 v=0
464128 On ch=1 n=72 v=45
464384 On ch=1 n=72 v=0
464384 On ch=1 n=74 v=45
464640 On ch=1 n=74 v=0
464640 On ch=1 n=75 v=45
464896 On ch=1 n=75 v=0
464896 On ch=1 n=74 v=45
465152 On ch=1 n=74 v=0
465152 On ch=1 n=72 v=45
465408 On ch=1 n=72 v=0
465408 On ch=1 n=70 v=64
465792 On ch=1 n=70 v=0
465920 On ch=1 n=65 v=64
466304 On ch=1 n=65 v=0
466432 On ch=1 n=74 v=64
467456 On ch=1 n=74 v=0
467456 On ch=1 n=67 v=64
467840 On ch=1 n=67 v=0
467968 On ch=1 n=70 v=64
468992 On ch=1 n=70 v=0
468992 On ch=1 n=64 v=64
469376 On ch=1 n=64 v=0
469504 On ch=1 n=72 v=64
470528 On ch=1 n=72 v=0
470528 On ch=1 n=65 v=64
470912 On ch=1 n=65 v=0
471040 On ch=1 n=69 v=64
472064 On ch=1 n=69 v=0
472064 On ch=1 n=62 v=64
472448 On ch=1 n=62 v=0
472576 On ch=1 n=70 v=64
473600 On ch=1 n=70 v=0
473600 On ch=1 n=64 v=64
473984 On ch=1 n=64 v=0
474112 On ch=1 n=67 v=64
475136 On ch=1 n=67 v=0
475136 On ch=1 n=60 v=64
475520 On ch=1 n=60 v=0
475648 On ch=1 n=70 v=64
476032 On ch=1 n=70 v=0
476160 On ch=1 n=69 v=64
476672 On ch=1 n=69 v=0
476672 On ch=1 n=67 v=64
477056 On ch=1 n=67 v=0
477184 On ch=1 n=69 v=64
477568 On ch=1 n=69 v=0
477696 On ch=1 n=65 v=64
478208 On ch=1 n=65 v=0
478208 On ch=1 n=57 v=64
478592 On ch=1 n=57 v=0
478720 On ch=1 n=60 v=64
479104 On ch=1 n=60 v=0
479232 On ch=1 n=65 v=64
479744 On ch=1 n=65 v=0
479744 On ch=1 n=64 v=64
480128 On ch=1 n=64 v=0
480256 On ch=1 n=65 v=64
480640 On ch=1 n=65 v=0
480768 On ch=1 n=57 v=64
481280 On ch=1 n=57 v=0
481280 On ch=1 n=60 v=64
481664 On ch=1 n=60 v=0
481792 On ch=1 n=65 v=64
482176 On ch=1 n=65 v=0
482304 On ch=1 n=65 v=64
482816 On ch=1 n=65 v=0
482816 On ch=1 n=64 v=64
483200 On ch=1 n=64 v=0
483328 On ch=1 n=65 v=64
483712 On ch=1 n=65 v=0
483840 On ch=1 n=57 v=64
484352 On ch=1 n=57 v=0
484352 On ch=1 n=60 v=64
484736 On ch=1 n=60 v=0
484864 On ch=1 n=65 v=64
485248 On ch=1 n=65 v=0
485376 On ch=1 n=67 v=64
485888 On ch=1 n=67 v=0
485888 On ch=1 n=65 v=64
486272 On ch=1 n=65 v=0
486400 On ch=1 n=67 v=64
486784 On ch=1 n=67 v=0
486912 On ch=1 n=60 v=64
487424 On ch=1 n=60 v=0
487424 On ch=1 n=64 v=64
487808 On ch=1 n=64 v=0
487936 On ch=1 n=67 v=64
488320 On ch=1 n=67 v=0
488448 On ch=1 n=69 v=64
488960 On ch=1 n=69 v=0
488960 On ch=1 n=67 v=64
489344 On ch=1 n=67 v=0
489472 On ch=1 n=69 v=64
489856 On ch=1 n=69 v=0
489984 On ch=1 n=65 v=64
491008 On ch=1 n=65 v=0
492288 On ch=1 n=60 v=45
492544 On ch=1 n=60 v=0
492544 On ch=1 n=62 v=45
492800 On ch=1 n=62 v=0
492800 On ch=1 n=64 v=45
493056 On ch=1 n=64 v=0
493056 On ch=1 n=65 v=45
493312 On ch=1 n=65 v=0
493312 On ch=1 n=64 v=45
493568 On ch=1 n=64 v=0
493568 On ch=1 n=65 v=45
493952 On ch=1 n=65 v=0
495360 On ch=1 n=60 v=45
495616 On ch=1 n=60 v=0
495616 On ch=1 n=62 v=45
495872 On ch=1 n=62 v=0
495872 On ch=1 n=64 v=45
496128 On ch=1 n=64 v=0
496128 On ch=1 n=65 v=45
496384 On ch=1 n=65 v=0
496384 On ch=1 n=64 v=45
496640 On ch=1 n=64 v=0
496640 On ch=1 n=65 v=45
497024 On ch=1 n=65 v=0
498432 On ch=1 n=62 v=45
498688 On ch=1 n=62 v=0
498688 On ch=1 n=64 v=45
498944 On ch=1 n=64 v=0
498944 On ch=1 n=65 v=45
499200 On ch=1 n=65 v=0
499200 On ch=1 n=67 v=45
499456 On ch=1 n=67 v=0
499456 On ch=1 n=65 v=45
499712 On ch=1 n=65 v=0
499712 On ch=1 n=67 v=45
499968 On ch=1 n=67 v=0
499968 On ch=1 n=65 v=45
500224 On ch=1 n=65 v=0
500224 On ch=1 n=64 v=45
500480 On ch=1 n=64 v=0
500480 On ch=1 n=62 v=45
500736 On ch=1 n=62 v=0
500736 On ch=1 n=60 v=45
500992 On ch=1 n=60 v=0
500992 On ch=1 n=58 v=45
501248 On ch=1 n=58 v=0
501248 On ch=1 n=60 v=45
501504 On ch=1 n=60 v=0
501504 On ch=1 n=62 v=45
501760 On ch=1 n=62 v=0
501760 On ch=1 n=60 v=45
502016 On ch=1 n=60 v=0
502016 On ch=1 n=58 v=45
502272 On ch=1 n=58 v=0
502272 On ch=1 n=57 v=45
502528 On ch=1 n=57 v=0
502528 On ch=1 n=55 v=45
502784 On ch=1 n=55 v=0
502784 On ch=1 n=57 v=45
503040 On ch=1 n=57 v=0
503040 On ch=1 n=58 v=45
503296 On ch=1 n=58 v=0
503296 On ch=1 n=60 v=45
503552 On ch=1 n=60 v=0
503552 On ch=1 n=57 v=45
503808 On ch=1 n=57 v=0
503808 On ch=1 n=62 v=45
504064 On ch=1 n=62 v=0
504064 On ch=1 n=64 v=45
504320 On ch=1 n=64 v=0
504320 On ch=1 n=65 v=46
504576 On ch=1 n=65 v=0
504576 On ch=1 n=64 v=46
504832 On ch=1 n=64 v=0
504832 On ch=1 n=62 v=47
505088 On ch=1 n=62 v=0
505088 On ch=1 n=60 v=47
505344 On ch=1 n=60 v=0
505344 On ch=1 n=59 v=47
505600 On ch=1 n=59 v=0
505600 On ch=1 n=57 v=48
505856 On ch=1 n=57 v=0
505856 On ch=1 n=55 v=48
506112 On ch=1 n=55 v=0
506112 On ch=1 n=57 v=49
506368 On ch=1 n=57 v=0
506368 On ch=1 n=59 v=49
506624 On ch=1 n=59 v=0
506624 On ch=1 n=55 v=49
506880 On ch=1 n=55 v=0
506880 On ch=1 n=60 v=50
507136 On ch=1 n=60 v=0
507136 On ch=1 n=62 v=50
507392 On ch=1 n=62 v=0
507392 On ch=1 n=64 v=51
507648 On ch=1 n=64 v=0
507648 On ch=1 n=62 v=51
507904 On ch=1 n=62 v=0
507904 On ch=1 n=60 v=51
508160 On ch=1 n=60 v=0
508160 On ch=1 n=59 v=52
508416 On ch=1 n=59 v=0
508416 On ch=1 n=57 v=52
508672 On ch=1 n=57 v=0
508672 On ch=1 n=55 v=53
508928 On ch=1 n=55 v=0
508928 On ch=1 n=53 v=53
509184 On ch=1 n=53 v=0
509184 On ch=1 n=55 v=53
509440 On ch=1 n=55 v=0
509440 On ch=1 n=57 v=54
509696 On ch=1 n=57 v=0
509696 On ch=1 n=53 v=54
509952 On ch=1 n=53 v=0
509952 On ch=1 n=59 v=55
510208 On ch=1 n=59 v=0
510208 On ch=1 n=60 v=55
510464 On ch=1 n=60 v=0
510464 On ch=1 n=62 v=55
510720 On ch=1 n=62 v=0
510720 On ch=1 n=60 v=56
510976 On ch=1 n=60 v=0
510976 On ch=1 n=59 v=56
511232 On ch=1 n=59 v=0
511232 On ch=1 n=57 v=56
511488 On ch=1 n=57 v=0
511488 On ch=1 n=55 v=57
511744 On ch=1 n=55 v=0
511744 On ch=1 n=57 v=57
512000 On ch=1 n=57 v=0
512000 On ch=1 n=59 v=58
512256 On ch=1 n=59 v=0
512256 On ch=1 n=57 v=58
512512 On ch=1 n=57 v=0
512512 On ch=1 n=55 v=58
512768 On ch=1 n=55 v=0
512768 On ch=1 n=53 v=59
513024 On ch=1 n=53 v=0
513024 On ch=1 n=55 v=59
513280 On ch=1 n=55 v=0
513280 On ch=1 n=60 v=60
513536 On ch=1 n=60 v=0
513536 On ch=1 n=59 v=60
513792 On ch=1 n=59 v=0
513792 On ch=1 n=57 v=60
514048 On ch=1 n=57 v=0
514048 On ch=1 n=55 v=61
514304 On ch=1 n=55 v=0
514304 On ch=1 n=53 v=61
514560 On ch=1 n=53 v=0
514560 On ch=1 n=52 v=62
514816 On ch=1 n=52 v=0
514816 On ch=1 n=53 v=62
515072 On ch=1 n=53 v=0
515072 On ch=1 n=55 v=62
515328 On ch=1 n=55 v=0
515328 On ch=1 n=53 v=63
515584 On ch=1 n=53 v=0
515584 On ch=1 n=52 v=63
515840 On ch=1 n=52 v=0
515840 On ch=1 n=50 v=64
516096 On ch=1 n=50 v=0
516096 On ch=1 n=48 v=64
516480 On ch=1 n=48 v=0
516608 On ch=1 n=60 v=64
516992 On ch=1 n=60 v=0
517120 On ch=1 n=69 v=64
518144 On ch=1 n=69 v=0
518144 On ch=1 n=62 v=64
518528 On ch=1 n=62 v=0
518656 On ch=1 n=70 v=64
519680 On ch=1 n=70 v=0
519680 On ch=1 n=64 v=64
520064 On ch=1 n=64 v=0
520192 On ch=1 n=67 v=64
521216 On ch=1 n=67 v=0
521216 On ch=1 n=60 v=64
521600 On ch=1 n=60 v=0
521728 On ch=1 n=69 v=64
522752 On ch=1 n=69 v=0
522752 On ch=1 n=60 v=64
523136 On ch=1 n=60 v=0
523264 On ch=1 n=65 v=64
524288 On ch=1 n=65 v=0
524288 On ch=1 n=57 v=64
524672 On ch=1 n=57 v=0
524800 On ch=1 n=60 v=64
525824 On ch=1 n=60 v=0
525824 On ch=1 n=53 v=64
526208 On ch=1 n=53 v=0
526336 On ch=1 n=57 v=64
526720 On ch=1 n=57 v=0
526848 On ch=1 n=60 v=64
527232 On ch=1 n=60 v=0
527360 On ch=1 n=57 v=64
527744 On ch=1 n=57 v=0
527872 On ch=1 n=60 v=64
528256 On ch=1 n=60 v=0
528384 On ch=1 n=65 v=50
528768 On ch=1 n=65 v=0
528896 On ch=1 n=60 v=51
529280 On ch=1 n=60 v=0
529408 On ch=1 n=62 v=52
530432 On ch=1 n=62 v=0
530432 On ch=1 n=60 v=55
530688 On ch=1 n=60 v=0
530688 On ch=1 n=58 v=55
530944 On ch=1 n=58 v=0
530944 On ch=1 n=57 v=56
531200 On ch=1 n=57 v=0
531200 On ch=1 n=55 v=56
531456 On ch=1 n=55 v=0
531456 On ch=1 n=57 v=57
531712 On ch=1 n=57 v=0
531712 On ch=1 n=58 v=58
531968 On ch=1 n=58 v=0
531968 On ch=1 n=60 v=58
532224 On ch=1 n=60 v=0
532224 On ch=1 n=58 v=59
532480 On ch=1 n=58 v=0
532480 On ch=1 n=57 v=59
532736 On ch=1 n=57 v=0
532736 On ch=1 n=55 v=60
532992 On ch=1 n=55 v=0
532992 On ch=1 n=53 v=61
533248 On ch=1 n=53 v=0
533248 On ch=1 n=55 v=61
533504 On ch=1 n=55 v=0
533504 On ch=1 n=57 v=62
533760 On ch=1 n=57 v=0
533760 On ch=1 n=55 v=62
534016 On ch=1 n=55 v=0
534016 On ch=1 n=53 v=63
534272 On ch=1 n=53 v=0
534272 On ch=1 n=52 v=63
534528 On ch=1 n=52 v=0
534528 On ch=1 n=50 v=64
535040 On ch=1 n=50 v=0
535040 On ch=1 n=62 v=64
535424 On ch=1 n=62 v=0
535552 On ch=1 n=70 v=64
536576 On ch=1 n=70 v=0
536576 On ch=1 n=64 v=64
536960 On ch=1 n=64 v=0
537088 On ch=1 n=72 v=64
537600 On ch=1 n=72 v=0
537600 On ch=1 n=69 v=64
537984 On ch=1 n=69 v=0
538112 On ch=1 n=65 v=64
538496 On ch=1 n=65 v=0
538624 On ch=1 n=64 v=64
538752 On ch=1 n=64 v=0
538752 On ch=1 n=65 v=64
538880 On ch=1 n=65 v=0
538880 On ch=1 n=64 v=64
539072 On ch=1 n=64 v=0
539136 On ch=1 n=65 v=64
540160 On ch=1 n=65 v=0
541696 On ch=1 n=69 v=64
542080 On ch=1 n=69 v=0
542208 On ch=1 n=74 v=64
544256 On ch=1 n=74 v=0
544256 On ch=1 n=67 v=64
544640 On ch=1 n=67 v=0
544768 On ch=1 n=71 v=64
545152 On ch=1 n=71 v=0
545280 On ch=1 n=72 v=64
545664 On ch=1 n=72 v=0
545792 On ch=1 n=60 v=64
546176 On ch=1 n=60 v=0
547840 On ch=1 n=67 v=64
548224 On ch=1 n=67 v=0
548352 On ch=1 n=72 v=64
550400 On ch=1 n=72 v=0
550400 On ch=1 n=65 v=64
550784 On ch=1 n=65 v=0
550912 On ch=1 n=69 v=64
551296 On ch=1 n=69 v=0
551424 On ch=1 n=70 v=64
551808 On ch=1 n=70 v=0
551936 On ch=1 n=58 v=64
552320 On ch=1 n=58 v=0
553984 On ch=1 n=70 v=64
554368 On ch=1 n=70 v=0
554496 On ch=1 n=75 v=64
556544 On ch=1 n=75 v=0
556544 On ch=1 n=69 v=64
556928 On ch=1 n=69 v=0
557056 On ch=1 n=72 v=64
557440 On ch=1 n=72 v=0
557568 On ch=1 n=74 v=64
559616 On ch=1 n=74 v=0
559616 On ch=1 n=67 v=64
560000 On ch=1 n=67 v=0
560128 On ch=1 n=70 v=64
560512 On ch=1 n=70 v=0
560640 On ch=1 n=72 v=64
562688 On ch=1 n=72 v=0
562688 On ch=1 n=65 v=64
563072 On ch=1 n=65 v=0
563200 On ch=1 n=70 v=64
564224 On ch=1 n=70 v=0
564224 On ch=1 n=69 v=64
564608 On ch=1 n=69 v=0
564736 On ch=1 n=77 v=64
565760 On ch=1 n=77 v=0
565760 On ch=1 n=72 v=64
566144 On ch=1 n=72 v=0
566272 On ch=1 n=74 v=64
566784 On ch=1 n=74 v=0
566784 On ch=1 n=74 v=64
567296 On ch=1 n=74 v=0
567296 On ch=1 n=72 v=64
567680 On ch=1 n=72 v=0
567808 On ch=1 n=77 v=64
568832 On ch=1 n=77 v=0
568832 On ch=1 n=72 v=64
569216 On ch=1 n=72 v=0
569344 On ch=1 n=74 v=64
570368 On ch=1 n=74 v=0
570368 On ch=1 n=72 v=64
570752 On ch=1 n=72 v=0
570880 On ch=1 n=75 v=64
571904 On ch=1 n=75 v=0
571904 On ch=1 n=69 v=64
572288 On ch=1 n=69 v=0
572416 On ch=1 n=72 v=64
573440 On ch=1 n=72 v=0
573440 On ch=1 n=65 v=64
573824 On ch=1 n=65 v=0
573952 On ch=1 n=69 v=64
574976 On ch=1 n=69 v=0
574976 On ch=1 n=72 v=64
575360 On ch=1 n=72 v=0
575488 On ch=1 n=75 v=64
576512 On ch=1 n=75 v=0
576512 On ch=1 n=74 v=64
576896 On ch=1 n=74 v=0
577024 On ch=1 n=58 v=64
577408 On ch=1 n=58 v=0
577536 On ch=1 n=65 v=55
577792 On ch=1 n=65 v=0
577792 On ch=1 n=67 v=55
578048 On ch=1 n=67 v=0
578048 On ch=1 n=68 v=55
578304 On ch=1 n=68 v=0
578304 On ch=1 n=67 v=55
578560 On ch=1 n=67 v=0
578560 On ch=1 n=65 v=55
578816 On ch=1 n=65 v=0
578816 On ch=1 n=63 v=55
579072 On ch=1 n=63 v=0
579072 On ch=1 n=62 v=55
579328 On ch=1 n=62 v=0
579328 On ch=1 n=63 v=55
579584 On ch=1 n=63 v=0
579584 On ch=1 n=65 v=55
579840 On ch=1 n=65 v=0
579840 On ch=1 n=63 v=55
580096 On ch=1 n=63 v=0
580096 On ch=1 n=62 v=55
580352 On ch=1 n=62 v=0
580352 On ch=1 n=60 v=55
580608 On ch=1 n=60 v=0
580608 On ch=1 n=58 v=55
580864 On ch=1 n=58 v=0
580864 On ch=1 n=60 v=55
581120 On ch=1 n=60 v=0
581120 On ch=1 n=62 v=55
581376 On ch=1 n=62 v=0
581376 On ch=1 n=63 v=55
581632 On ch=1 n=63 v=0
581632 On ch=1 n=65 v=55
581888 On ch=1 n=65 v=0
581888 On ch=1 n=62 v=55
582144 On ch=1 n=62 v=0
582144 On ch=1 n=63 v=55
582528 On ch=1 n=63 v=0
582656 On ch=1 n=51 v=55
583040 On ch=1 n=51 v=0
583168 On ch=1 n=67 v=55
584192 On ch=1 n=67 v=0
584192 On ch=1 n=60 v=64
584576 On ch=1 n=60 v=0
584704 On ch=1 n=70 v=64
585728 On ch=1 n=70 v=0
585728 On ch=1 n=69 v=64
586112 On ch=1 n=69 v=0
589312 On ch=1 n=74 v=64
590336 On ch=1 n=74 v=0
590336 On ch=1 n=72 v=66
590720 On ch=1 n=72 v=0
590848 On ch=1 n=75 v=68
591872 On ch=1 n=75 v=0
591872 On ch=1 n=74 v=71
592256 On ch=1 n=74 v=0
592384 On ch=1 n=77 v=73
593408 On ch=1 n=77 v=0
593408 On ch=1 n=75 v=75
593664 On ch=1 n=75 v=0
593664 On ch=1 n=74 v=72
593920 On ch=1 n=74 v=0
593920 On ch=1 n=72 v=69
594176 On ch=1 n=72 v=0
594176 On ch=1 n=70 v=67
594432 On ch=1 n=70 v=0
594432 On ch=1 n=69 v=64
594688 On ch=1 n=69 v=0
594688 On ch=1 n=67 v=61
594944 On ch=1 n=67 v=0
594944 On ch=1 n=65 v=58
595200 On ch=1 n=65 v=0
595200 On ch=1 n=63 v=56
595456 On ch=1 n=63 v=0
595456 On ch=1 n=62 v=53
595712 On ch=1 n=62 v=0
595712 On ch=1 n=60 v=50
595968 On ch=1 n=60 v=0
595968 On ch=1 n=58 v=50
596224 On ch=1 n=58 v=0
596224 On ch=1 n=57 v=50
596480 On ch=1 n=57 v=0
596480 On ch=1 n=58 v=51
596864 On ch=1 n=58 v=0
598272 On ch=1 n=53 v=53
598528 On ch=1 n=53 v=0
598528 On ch=1 n=55 v=53
598784 On ch=1 n=55 v=0
598784 On ch=1 n=57 v=53
599040 On ch=1 n=57 v=0
599040 On ch=1 n=58 v=54
599296 On ch=1 n=58 v=0
599296 On ch=1 n=57 v=54
599552 On ch=1 n=57 v=0
599552 On ch=1 n=58 v=54
599936 On ch=1 n=58 v=0
601344 On ch=1 n=55 v=56
601600 On ch=1 n=55 v=0
601600 On ch=1 n=57 v=56
601856 On ch=1 n=57 v=0
601856 On ch=1 n=58 v=57
602112 On ch=1 n=58 v=0
602112 On ch=1 n=60 v=57
602368 On ch=1 n=60 v=0
602368 On ch=1 n=58 v=57
602624 On ch=1 n=58 v=0
602624 On ch=1 n=60 v=58
602880 On ch=1 n=60 v=0
602880 On ch=1 n=58 v=58
603136 On ch=1 n=58 v=0
603136 On ch=1 n=57 v=58
603392 On ch=1 n=57 v=0
603392 On ch=1 n=55 v=58
603648 On ch=1 n=55 v=0
603648 On ch=1 n=53 v=59
604032 On ch=1 n=53 v=0
604160 On ch=1 n=57 v=59
604544 On ch=1 n=57 v=0
604672 On ch=1 n=60 v=60
605056 On ch=1 n=60 v=0
605184 On ch=1 n=62 v=61
605440 On ch=1 n=62 v=0
605440 On ch=1 n=60 v=61
605696 On ch=1 n=60 v=0
605696 On ch=1 n=62 v=61
605952 On ch=1 n=62 v=0
605952 On ch=1 n=63 v=61
606208 On ch=1 n=63 v=0
606208 On ch=1 n=62 v=62
606464 On ch=1 n=62 v=0
606464 On ch=1 n=60 v=62
606720 On ch=1 n=60 v=0
606720 On ch=1 n=58 v=62
606976 On ch=1 n=58 v=0
606976 On ch=1 n=62 v=63
607232 On ch=1 n=62 v=0
607232 On ch=1 n=65 v=63
607488 On ch=1 n=65 v=0
607488 On ch=1 n=70 v=63
607744 On ch=1 n=70 v=0
607744 On ch=1 n=74 v=63
608000 On ch=1 n=74 v=0
608000 On ch=1 n=75 v=64
608256 On ch=1 n=75 v=0
608256 On ch=1 n=77 v=64
608640 On ch=1 n=77 v=0
608768 On ch=1 n=70 v=64
609152 On ch=1 n=70 v=0
609280 On ch=1 n=74 v=64
610304 On ch=1 n=74 v=0
610304 On ch=1 n=67 v=64
610688 On ch=1 n=67 v=0
610816 On ch=1 n=75 v=64
611840 On ch=1 n=75 v=0
611840 On ch=1 n=69 v=64
612224 On ch=1 n=69 v=0
612352 On ch=1 n=72 v=64
613376 On ch=1 n=72 v=0
613376 On ch=1 n=65 v=64
613760 On ch=1 n=65 v=0
613888 On ch=1 n=74 v=64
614656 On ch=1 n=74 v=0
614656 On ch=1 n=70 v=55
614912 On ch=1 n=70 v=0
614912 On ch=1 n=69 v=55
615168 On ch=1 n=69 v=0
615168 On ch=1 n=67 v=55
615424 On ch=1 n=67 v=0
615424 On ch=1 n=65 v=55
615680 On ch=1 n=65 v=0
615680 On ch=1 n=63 v=55
615936 On ch=1 n=63 v=0
615936 On ch=1 n=62 v=55
616192 On ch=1 n=62 v=0
616192 On ch=1 n=67 v=55
616448 On ch=1 n=67 v=0
616448 On ch=1 n=65 v=55
616704 On ch=1 n=65 v=0
616704 On ch=1 n=63 v=55
616960 On ch=1 n=63 v=0
616960 On ch=1 n=62 v=55
617216 On ch=1 n=62 v=0
617216 On ch=1 n=60 v=55
617472 On ch=1 n=60 v=0
617472 On ch=1 n=58 v=55
617728 On ch=1 n=58 v=0
617728 On ch=1 n=53 v=55
617984 On ch=1 n=53 v=0
617984 On ch=1 n=55 v=55
618240 On ch=1 n=55 v=0
618240 On ch=1 n=57 v=55
618496 On ch=1 n=57 v=0
618496 On ch=1 n=58 v=55
618752 On ch=1 n=58 v=0
618752 On ch=1 n=60 v=55
619008 On ch=1 n=60 v=0
619008 On ch=1 n=62 v=55
619264 On ch=1 n=62 v=0
619264 On ch=1 n=60 v=55
619520 On ch=1 n=60 v=0
619520 On ch=1 n=58 v=55
619776 On ch=1 n=58 v=0
619776 On ch=1 n=60 v=55
620032 On ch=1 n=60 v=0
620032 On ch=1 n=62 v=55
620288 On ch=1 n=62 v=0
620288 On ch=1 n=63 v=55
620544 On ch=1 n=63 v=0
620544 On ch=1 n=65 v=64
620928 On ch=1 n=65 v=0
621056 On ch=1 n=58 v=64
621440 On ch=1 n=58 v=0
621568 On ch=1 n=67 v=64
622592 On ch=1 n=67 v=0
622592 On ch=1 n=65 v=64
622976 On ch=1 n=65 v=0
623104 On ch=1 n=70 v=64
624128 On ch=1 n=70 v=0
624128 On ch=1 n=65 v=64
624512 On ch=1 n=65 v=0
624640 On ch=1 n=67 v=64
625664 On ch=1 n=67 v=0
625664 On ch=1 n=65 v=64
626048 On ch=1 n=65 v=0
626176 On ch=1 n=70 v=64
627200 On ch=1 n=70 v=0
627200 On ch=1 n=67 v=64
627584 On ch=1 n=67 v=0
627712 On ch=1 n=75 v=64
628736 On ch=1 n=75 v=0
628736 On ch=1 n=69 v=64
629120 On ch=1 n=69 v=0
629248 On ch=1 n=77 v=64
629760 On ch=1 n=77 v=0
629760 On ch=1 n=74 v=64
630144 On ch=1 n=74 v=0
630272 On ch=1 n=70 v=64
630656 On ch=1 n=70 v=0
630784 On ch=1 n=69 v=64
631168 On ch=1 n=69 v=0
631296 On ch=1 n=70 v=64
631552 On ch=1 n=70 v=0
631552 On ch=1 n=65 v=64
631808 On ch=1 n=65 v=0
631808 On ch=1 n=62 v=64
632064 On ch=1 n=62 v=0
632064 On ch=1 n=58 v=64
632320 On ch=1 n=58 v=0
632320 On ch=1 n=62 v=64
632576 On ch=1 n=62 v=0
632576 On ch=1 n=65 v=64
632832 On ch=1 n=65 v=0
632832 On ch=1 n=70 v=64
633344 On ch=1 n=70 v=0
633344 On ch=1 n=69 v=64
633728 On ch=1 n=69 v=0
633856 On ch=1 n=70 v=64
634240 On ch=1 n=70 v=0
634368 On ch=1 n=62 v=64
634880 On ch=1 n=62 v=0
634880 On ch=1 n=65 v=64
635264 On ch=1 n=65 v=0
635392 On ch=1 n=70 v=64
635776 On ch=1 n=70 v=0
635904 On ch=1 n=70 v=64
636416 On ch=1 n=70 v=0
636416 On ch=1 n=69 v=64
636800 On ch=1 n=69 v=0
636928 On ch=1 n=70 v=64
637312 On ch=1 n=70 v=0
637440 On ch=1 n=62 v=64
637952 On ch=1 n=62 v=0
637952 On ch=1 n=65 v=64
638336 On ch=1 n=65 v=0
638464 On ch=1 n=70 v=64
638848 On ch=1 n=70 v=0
638976 On ch=1 n=72 v=64
639488 On ch=1 n=72 v=0
639488 On ch=1 n=70 v=64
639872 On ch=1 n=70 v=0
640000 On ch=1 n=72 v=64
640384 On ch=1 n=72 v=0
640512 On ch=1 n=65 v=64
641024 On ch=1 n=65 v=0
641024 On ch=1 n=69 v=64
641408 On ch=1 n=69 v=0
641536 On ch=1 n=72 v=64
641920 On ch=1 n=72 v=0
642048 On ch=1 n=74 v=64
642560 On ch=1 n=74 v=0
642560 On ch=1 n=72 v=64
642944 On ch=1 n=72 v=0
643072 On ch=1 n=74 v=64
643456 On ch=1 n=74 v=0
643584 On ch=1 n=70 v=64
644608 On ch=1 n=70 v=0
644608 On ch=1 n=74 v=64
645632 On ch=1 n=74 v=0
645632 On ch=1 n=67 v=64
646016 On ch=1 n=67 v=0
646144 On ch=1 n=70 v=64
647168 On ch=1 n=70 v=0
647168 On ch=1 n=64 v=64
647552 On ch=1 n=64 v=0
647680 On ch=1 n=72 v=64
648704 On ch=1 n=72 v=0
648704 On ch=1 n=65 v=64
649088 On ch=1 n=65 v=0
649216 On ch=1 n=69 v=64
650240 On ch=1 n=69 v=0
650240 On ch=1 n=62 v=64
650624 On ch=1 n=62 v=0
650752 On ch=1 n=70 v=64
651776 On ch=1 n=70 v=0
651776 On ch=1 n=64 v=64
652160 On ch=1 n=64 v=0
652288 On ch=1 n=67 v=64
653312 On ch=1 n=67 v=0
653312 On ch=1 n=60 v=64
653696 On ch=1 n=60 v=0
653824 On ch=1 n=70 v=64
654208 On ch=1 n=70 v=0
654336 On ch=1 n=69 v=64
654848 On ch=1 n=69 v=0
654848 On ch=1 n=67 v=64
655232 On ch=1 n=67 v=0
655360 On ch=1 n=69 v=64
655744 On ch=1 n=69 v=0
655872 On ch=1 n=65 v=64
656384 On ch=1 n=65 v=0
656384 On ch=1 n=69 v=64
656768 On ch=1 n=69 v=0
656896 On ch=1 n=72 v=64
657280 On ch=1 n=72 v=0
657408 On ch=1 n=77 v=64
657792 On ch=1 n=77 v=0
657920 On ch=1 n=70 v=64
658304 On ch=1 n=70 v=0
658432 On ch=1 n=74 v=64
659456 On ch=1 n=74 v=0
659456 On ch=1 n=67 v=64
659840 On ch=1 n=67 v=0
659968 On ch=1 n=75 v=64
660992 On ch=1 n=75 v=0
660992 On ch=1 n=69 v=64
661376 On ch=1 n=69 v=0
661504 On ch=1 n=72 v=64
662528 On ch=1 n=72 v=0
662528 On ch=1 n=65 v=64
662912 On ch=1 n=65 v=0
663040 On ch=1 n=74 v=64
664064 On ch=1 n=74 v=0
664064 On ch=1 n=65 v=64
664448 On ch=1 n=65 v=0
664576 On ch=1 n=70 v=64
665600 On ch=1 n=70 v=0
665600 On ch=1 n=62 v=64
665984 On ch=1 n=62 v=0
666112 On ch=1 n=65 v=64
667136 On ch=1 n=65 v=0
667136 On ch=1 n=58 v=64
667520 On ch=1 n=58 v=0
667648 On ch=1 n=62 v=64
668032 On ch=1 n=62 v=0
668160 On ch=1 n=65 v=64
668544 On ch=1 n=65 v=0
668672 On ch=1 n=62 v=64
669056 On ch=1 n=62 v=0
669184 On ch=1 n=65 v=64
669568 On ch=1 n=65 v=0
669696 On ch=1 n=70 v=64
670080 On ch=1 n=70 v=0
670208 On ch=1 n=65 v=64
670592 On ch=1 n=65 v=0
670720 On ch=1 n=67 v=64
671744 On ch=1 n=67 v=0
671744 On ch=1 n=65 v=64
672128 On ch=1 n=65 v=0
672256 On ch=1 n=70 v=64
673280 On ch=1 n=70 v=0
673280 On ch=1 n=65 v=64
673664 On ch=1 n=65 v=0
673792 On ch=1 n=67 v=64
674816 On ch=1 n=67 v=0
674816 On ch=1 n=65 v=64
675200 On ch=1 n=65 v=0
675328 On ch=1 n=70 v=64
676352 On ch=1 n=70 v=0
676352 On ch=1 n=67 v=64
676736 On ch=1 n=67 v=0
676864 On ch=1 n=75 v=64
677888 On ch=1 n=75 v=0
677888 On ch=1 n=69 v=64
678272 On ch=1 n=69 v=0
678400 On ch=1 n=77 v=64
678912 On ch=1 n=77 v=0
678912 On ch=1 n=74 v=64
679296 On ch=1 n=74 v=0
679424 On ch=1 n=70 v=64
679808 On ch=1 n=70 v=0
679936 On ch=1 n=69 v=64
680064 On ch=1 n=69 v=0
680064 On ch=1 n=67 v=64
680192 On ch=1 n=67 v=0
680192 On ch=1 n=69 v=64
680384 On ch=1 n=69 v=0
680448 On ch=1 n=70 v=64
683520 On ch=1 n=70 v=0
688128 Par ch=1 c=91 v=127
688128 Meta TrkEnd
TrkEnd
MTrk
0 PrCh ch=2 p=41
0 Par ch=2 c=121 v=127
0 Par ch=2 c=91 v=127
0 Par ch=2 c=1 v=10
0 Par ch=2 c=10 v=80
0 Meta TrkName "Viola II da braccio"
5632 On ch=2 n=65 v=64
6016 On ch=2 n=65 v=0
6144 On ch=2 n=70 v=64
6656 On ch=2 n=70 v=0
6656 On ch=2 n=69 v=64
7040 On ch=2 n=69 v=0
7168 On ch=2 n=70 v=64
7552 On ch=2 n=70 v=0
7680 On ch=2 n=62 v=64
8192 On ch=2 n=62 v=0
8192 On ch=2 n=65 v=64
8576 On ch=2 n=65 v=0
8704 On ch=2 n=70 v=64
9088 On ch=2 n=70 v=0
9216 On ch=2 n=70 v=64
9728 On ch=2 n=70 v=0
9728 On ch=2 n=69 v=64
10112 On ch=2 n=69 v=0
10240 On ch=2 n=70 v=64
10624 On ch=2 n=70 v=0
10752 On ch=2 n=62 v=64
11264 On ch=2 n=62 v=0
11264 On ch=2 n=65 v=64
11648 On ch=2 n=65 v=0
11776 On ch=2 n=70 v=64
12160 On ch=2 n=70 v=0
12288 On ch=2 n=72 v=64
12800 On ch=2 n=72 v=0
12800 On ch=2 n=70 v=64
13184 On ch=2 n=70 v=0
13312 On ch=2 n=72 v=64
13696 On ch=2 n=72 v=0
13824 On ch=2 n=65 v=64
14336 On ch=2 n=65 v=0
14336 On ch=2 n=69 v=64
14720 On ch=2 n=69 v=0
14848 On ch=2 n=72 v=64
15232 On ch=2 n=72 v=0
15360 On ch=2 n=74 v=64
15872 On ch=2 n=74 v=0
15872 On ch=2 n=72 v=64
16256 On ch=2 n=72 v=0
16384 On ch=2 n=74 v=64
16768 On ch=2 n=74 v=0
16896 On ch=2 n=70 v=64
17920 On ch=2 n=70 v=0
17920 On ch=2 n=74 v=64
18944 On ch=2 n=74 v=0
18944 On ch=2 n=67 v=64
19328 On ch=2 n=67 v=0
19456 On ch=2 n=70 v=64
20480 On ch=2 n=70 v=0
20480 On ch=2 n=64 v=64
20864 On ch=2 n=64 v=0
20992 On ch=2 n=72 v=64
22016 On ch=2 n=72 v=0
22016 On ch=2 n=65 v=64
22400 On ch=2 n=65 v=0
22528 On ch=2 n=69 v=64
23552 On ch=2 n=69 v=0
23552 On ch=2 n=62 v=64
23936 On ch=2 n=62 v=0
24064 On ch=2 n=70 v=64
25088 On ch=2 n=70 v=0
25088 On ch=2 n=64 v=64
25472 On ch=2 n=64 v=0
25600 On ch=2 n=67 v=64
26624 On ch=2 n=67 v=0
26624 On ch=2 n=60 v=64
27008 On ch=2 n=60 v=0
27136 On ch=2 n=70 v=64
27520 On ch=2 n=70 v=0
27648 On ch=2 n=69 v=64
28160 On ch=2 n=69 v=0
28160 On ch=2 n=67 v=64
28544 On ch=2 n=67 v=0
28672 On ch=2 n=69 v=64
29056 On ch=2 n=69 v=0
29184 On ch=2 n=65 v=64
29696 On ch=2 n=65 v=0
29696 On ch=2 n=69 v=64
30080 On ch=2 n=69 v=0
30208 On ch=2 n=72 v=64
30592 On ch=2 n=72 v=0
30720 On ch=2 n=77 v=64
31104 On ch=2 n=77 v=0
31232 On ch=2 n=70 v=64
31616 On ch=2 n=70 v=0
31744 On ch=2 n=74 v=64
32768 On ch=2 n=74 v=0
32768 On ch=2 n=67 v=64
33152 On ch=2 n=67 v=0
33280 On ch=2 n=75 v=64
34304 On ch=2 n=75 v=0
34304 On ch=2 n=69 v=64
34688 On ch=2 n=69 v=0
34816 On ch=2 n=72 v=64
35840 On ch=2 n=72 v=0
35840 On ch=2 n=65 v=64
36224 On ch=2 n=65 v=0
36352 On ch=2 n=74 v=64
37376 On ch=2 n=74 v=0
37376 On ch=2 n=65 v=64
37760 On ch=2 n=65 v=0
37888 On ch=2 n=70 v=64
38912 On ch=2 n=70 v=0
38912 On ch=2 n=62 v=64
39296 On ch=2 n=62 v=0
39424 On ch=2 n=65 v=64
40448 On ch=2 n=65 v=0
40448 On ch=2 n=58 v=64
40832 On ch=2 n=58 v=0
40960 On ch=2 n=62 v=64
41344 On ch=2 n=62 v=0
41472 On ch=2 n=65 v=64
41856 On ch=2 n=65 v=0
41984 On ch=2 n=62 v=64
42368 On ch=2 n=62 v=0
42496 On ch=2 n=65 v=64
42880 On ch=2 n=65 v=0
43008 On ch=2 n=70 v=64
43392 On ch=2 n=70 v=0
43520 On ch=2 n=65 v=64
43904 On ch=2 n=65 v=0
44032 On ch=2 n=67 v=64
45056 On ch=2 n=67 v=0
45056 On ch=2 n=65 v=64
45440 On ch=2 n=65 v=0
45568 On ch=2 n=70 v=64
46592 On ch=2 n=70 v=0
46592 On ch=2 n=65 v=64
46976 On ch=2 n=65 v=0
47104 On ch=2 n=67 v=64
48128 On ch=2 n=67 v=0
48128 On ch=2 n=65 v=64
48512 On ch=2 n=65 v=0
48640 On ch=2 n=70 v=64
49664 On ch=2 n=70 v=0
49664 On ch=2 n=67 v=64
50048 On ch=2 n=67 v=0
50176 On ch=2 n=75 v=64
51200 On ch=2 n=75 v=0
51200 On ch=2 n=69 v=64
51584 On ch=2 n=69 v=0
51712 On ch=2 n=77 v=64
52224 On ch=2 n=77 v=0
52224 On ch=2 n=74 v=64
52608 On ch=2 n=74 v=0
52736 On ch=2 n=70 v=64
53120 On ch=2 n=70 v=0
53248 On ch=2 n=69 v=64
53632 On ch=2 n=69 v=0
53760 On ch=2 n=70 v=64
54784 On ch=2 n=70 v=0
56064 On ch=2 n=65 v=45
56320 On ch=2 n=65 v=0
56320 On ch=2 n=67 v=45
56576 On ch=2 n=67 v=0
56576 On ch=2 n=69 v=45
56832 On ch=2 n=69 v=0
56832 On ch=2 n=70 v=45
57088 On ch=2 n=70 v=0
57088 On ch=2 n=69 v=45
57344 On ch=2 n=69 v=0
57344 On ch=2 n=70 v=45
57728 On ch=2 n=70 v=0
59136 On ch=2 n=65 v=45
59392 On ch=2 n=65 v=0
59392 On ch=2 n=67 v=45
59648 On ch=2 n=67 v=0
59648 On ch=2 n=69 v=45
59904 On ch=2 n=69 v=0
59904 On ch=2 n=70 v=45
60160 On ch=2 n=70 v=0
60160 On ch=2 n=69 v=45
60416 On ch=2 n=69 v=0
60416 On ch=2 n=70 v=45
60800 On ch=2 n=70 v=0
62208 On ch=2 n=67 v=45
62464 On ch=2 n=67 v=0
62464 On ch=2 n=69 v=45
62720 On ch=2 n=69 v=0
62720 On ch=2 n=70 v=45
62976 On ch=2 n=70 v=0
62976 On ch=2 n=72 v=45
63232 On ch=2 n=72 v=0
63232 On ch=2 n=70 v=45
63488 On ch=2 n=70 v=0
63488 On ch=2 n=72 v=45
63744 On ch=2 n=72 v=0
63744 On ch=2 n=70 v=45
64000 On ch=2 n=70 v=0
64000 On ch=2 n=69 v=45
64256 On ch=2 n=69 v=0
64256 On ch=2 n=67 v=45
64512 On ch=2 n=67 v=0
64512 On ch=2 n=65 v=45
64768 On ch=2 n=65 v=0
64768 On ch=2 n=63 v=45
65024 On ch=2 n=63 v=0
65024 On ch=2 n=65 v=45
65280 On ch=2 n=65 v=0
65280 On ch=2 n=67 v=45
65536 On ch=2 n=67 v=0
65536 On ch=2 n=65 v=45
65792 On ch=2 n=65 v=0
65792 On ch=2 n=63 v=45
66048 On ch=2 n=63 v=0
66048 On ch=2 n=62 v=45
66304 On ch=2 n=62 v=0
66304 On ch=2 n=60 v=45
66560 On ch=2 n=60 v=0
66560 On ch=2 n=62 v=45
66816 On ch=2 n=62 v=0
66816 On ch=2 n=63 v=45
67072 On ch=2 n=63 v=0
67072 On ch=2 n=65 v=45
67328 On ch=2 n=65 v=0
67328 On ch=2 n=62 v=45
67584 On ch=2 n=62 v=0
67584 On ch=2 n=67 v=45
67840 On ch=2 n=67 v=0
67840 On ch=2 n=69 v=45
68096 On ch=2 n=69 v=0
68096 On ch=2 n=70 v=46
68352 On ch=2 n=70 v=0
68352 On ch=2 n=69 v=46
68608 On ch=2 n=69 v=0
68608 On ch=2 n=67 v=47
68864 On ch=2 n=67 v=0
68864 On ch=2 n=65 v=47
69120 On ch=2 n=65 v=0
69120 On ch=2 n=64 v=47
69376 On ch=2 n=64 v=0
69376 On ch=2 n=62 v=48
69632 On ch=2 n=62 v=0
69632 On ch=2 n=60 v=48
69888 On ch=2 n=60 v=0
69888 On ch=2 n=62 v=49
70144 On ch=2 n=62 v=0
70144 On ch=2 n=64 v=49
70400 On ch=2 n=64 v=0
70400 On ch=2 n=60 v=49
70656 On ch=2 n=60 v=0
70656 On ch=2 n=65 v=50
70912 On ch=2 n=65 v=0
70912 On ch=2 n=67 v=50
71168 On ch=2 n=67 v=0
71168 On ch=2 n=69 v=51
71424 On ch=2 n=69 v=0
71424 On ch=2 n=67 v=51
71680 On ch=2 n=67 v=0
71680 On ch=2 n=65 v=51
71936 On ch=2 n=65 v=0
71936 On ch=2 n=64 v=52
72192 On ch=2 n=64 v=0
72192 On ch=2 n=62 v=52
72448 On ch=2 n=62 v=0
72448 On ch=2 n=60 v=53
72704 On ch=2 n=60 v=0
72704 On ch=2 n=58 v=53
72960 On ch=2 n=58 v=0
72960 On ch=2 n=60 v=53
73216 On ch=2 n=60 v=0
73216 On ch=2 n=62 v=54
73472 On ch=2 n=62 v=0
73472 On ch=2 n=58 v=54
73728 On ch=2 n=58 v=0
73728 On ch=2 n=64 v=55
73984 On ch=2 n=64 v=0
73984 On ch=2 n=65 v=55
74240 On ch=2 n=65 v=0
74240 On ch=2 n=67 v=55
74496 On ch=2 n=67 v=0
74496 On ch=2 n=65 v=56
74752 On ch=2 n=65 v=0
74752 On ch=2 n=64 v=56
75008 On ch=2 n=64 v=0
75008 On ch=2 n=62 v=56
75264 On ch=2 n=62 v=0
75264 On ch=2 n=60 v=57
75520 On ch=2 n=60 v=0
75520 On ch=2 n=62 v=57
75776 On ch=2 n=62 v=0
75776 On ch=2 n=64 v=58
76032 On ch=2 n=64 v=0
76032 On ch=2 n=62 v=58
76288 On ch=2 n=62 v=0
76288 On ch=2 n=60 v=58
76544 On ch=2 n=60 v=0
76544 On ch=2 n=58 v=59
76800 On ch=2 n=58 v=0
76800 On ch=2 n=60 v=59
77056 On ch=2 n=60 v=0
77056 On ch=2 n=65 v=60
77312 On ch=2 n=65 v=0
77312 On ch=2 n=64 v=60
77568 On ch=2 n=64 v=0
77568 On ch=2 n=62 v=60
77824 On ch=2 n=62 v=0
77824 On ch=2 n=60 v=61
78080 On ch=2 n=60 v=0
78080 On ch=2 n=58 v=61
78336 On ch=2 n=58 v=0
78336 On ch=2 n=57 v=62
78592 On ch=2 n=57 v=0
78592 On ch=2 n=58 v=62
78848 On ch=2 n=58 v=0
78848 On ch=2 n=60 v=62
79104 On ch=2 n=60 v=0
79104 On ch=2 n=58 v=63
79360 On ch=2 n=58 v=0
79360 On ch=2 n=57 v=63
79616 On ch=2 n=57 v=0
79616 On ch=2 n=55 v=64
79872 On ch=2 n=55 v=0
79872 On ch=2 n=53 v=64
80896 On ch=2 n=53 v=0
80896 On ch=2 n=65 v=64
81280 On ch=2 n=65 v=0
81408 On ch=2 n=57 v=64
81920 On ch=2 n=57 v=0
81920 On ch=2 n=60 v=64
82304 On ch=2 n=60 v=0
82432 On ch=2 n=65 v=64
82816 On ch=2 n=65 v=0
82944 On ch=2 n=65 v=64
83456 On ch=2 n=65 v=0
83456 On ch=2 n=64 v=64
83840 On ch=2 n=64 v=0
83968 On ch=2 n=65 v=64
84352 On ch=2 n=65 v=0
84480 On ch=2 n=57 v=64
84992 On ch=2 n=57 v=0
84992 On ch=2 n=60 v=64
85376 On ch=2 n=60 v=0
85504 On ch=2 n=65 v=64
85888 On ch=2 n=65 v=0
86016 On ch=2 n=67 v=64
86528 On ch=2 n=67 v=0
86528 On ch=2 n=65 v=64
86912 On ch=2 n=65 v=0
87040 On ch=2 n=67 v=64
87424 On ch=2 n=67 v=0
87552 On ch=2 n=60 v=64
88064 On ch=2 n=60 v=0
88064 On ch=2 n=64 v=64
88448 On ch=2 n=64 v=0
88576 On ch=2 n=67 v=64
88960 On ch=2 n=67 v=0
89088 On ch=2 n=69 v=64
89600 On ch=2 n=69 v=0
89600 On ch=2 n=67 v=64
89984 On ch=2 n=67 v=0
90112 On ch=2 n=69 v=64
90496 On ch=2 n=69 v=0
90624 On ch=2 n=65 v=64
91392 On ch=2 n=65 v=0
91392 On ch=2 n=60 v=64
91648 On ch=2 n=60 v=0
91648 On ch=2 n=62 v=64
91904 On ch=2 n=62 v=0
91904 On ch=2 n=64 v=64
92160 On ch=2 n=64 v=0
92160 On ch=2 n=65 v=45
92416 On ch=2 n=65 v=0
92416 On ch=2 n=64 v=45
92672 On ch=2 n=64 v=0
92672 On ch=2 n=65 v=45
93056 On ch=2 n=65 v=0
94464 On ch=2 n=60 v=45
94720 On ch=2 n=60 v=0
94720 On ch=2 n=62 v=45
94976 On ch=2 n=62 v=0
94976 On ch=2 n=64 v=45
95232 On ch=2 n=64 v=0
95232 On ch=2 n=65 v=45
95488 On ch=2 n=65 v=0
95488 On ch=2 n=64 v=45
95744 On ch=2 n=64 v=0
95744 On ch=2 n=65 v=45
96128 On ch=2 n=65 v=0
97536 On ch=2 n=62 v=45
97792 On ch=2 n=62 v=0
97792 On ch=2 n=64 v=45
98048 On ch=2 n=64 v=0
98048 On ch=2 n=65 v=45
98304 On ch=2 n=65 v=0
98304 On ch=2 n=67 v=45
98560 On ch=2 n=67 v=0
98560 On ch=2 n=65 v=45
98816 On ch=2 n=65 v=0
98816 On ch=2 n=67 v=45
99072 On ch=2 n=67 v=0
99072 On ch=2 n=65 v=45
99328 On ch=2 n=65 v=0
99328 On ch=2 n=64 v=45
99584 On ch=2 n=64 v=0
99584 On ch=2 n=62 v=45
99840 On ch=2 n=62 v=0
99840 On ch=2 n=60 v=45
100224 On ch=2 n=60 v=0
100352 On ch=2 n=64 v=45
100736 On ch=2 n=64 v=0
100864 On ch=2 n=67 v=45
101248 On ch=2 n=67 v=0
101376 On ch=2 n=69 v=45
101632 On ch=2 n=69 v=0
101632 On ch=2 n=67 v=45
101888 On ch=2 n=67 v=0
101888 On ch=2 n=69 v=45
102144 On ch=2 n=69 v=0
102144 On ch=2 n=70 v=45
102400 On ch=2 n=70 v=0
102400 On ch=2 n=69 v=45
102656 On ch=2 n=69 v=0
102656 On ch=2 n=67 v=45
102912 On ch=2 n=67 v=0
102912 On ch=2 n=65 v=64
103296 On ch=2 n=65 v=0
103424 On ch=2 n=60 v=64
103808 On ch=2 n=60 v=0
103936 On ch=2 n=69 v=64
104960 On ch=2 n=69 v=0
104960 On ch=2 n=62 v=64
105344 On ch=2 n=62 v=0
105472 On ch=2 n=65 v=64
106496 On ch=2 n=65 v=0
106496 On ch=2 n=59 v=64
106880 On ch=2 n=59 v=0
107008 On ch=2 n=67 v=64
108032 On ch=2 n=67 v=0
108032 On ch=2 n=60 v=64
108416 On ch=2 n=60 v=0
108544 On ch=2 n=64 v=64
109568 On ch=2 n=64 v=0
109568 On ch=2 n=57 v=64
109952 On ch=2 n=57 v=0
110080 On ch=2 n=65 v=64
111104 On ch=2 n=65 v=0
111104 On ch=2 n=59 v=64
111488 On ch=2 n=59 v=0
111616 On ch=2 n=62 v=64
112640 On ch=2 n=62 v=0
112640 On ch=2 n=55 v=64
113024 On ch=2 n=55 v=0
113152 On ch=2 n=65 v=64
113536 On ch=2 n=65 v=0
113664 On ch=2 n=64 v=64
114176 On ch=2 n=64 v=0
114176 On ch=2 n=62 v=64
114560 On ch=2 n=62 v=0
114688 On ch=2 n=64 v=64
115072 On ch=2 n=64 v=0
115200 On ch=2 n=60 v=64
115712 On ch=2 n=60 v=0
115712 On ch=2 n=64 v=64
116096 On ch=2 n=64 v=0
116224 On ch=2 n=67 v=64
116608 On ch=2 n=67 v=0
116736 On ch=2 n=72 v=64
117120 On ch=2 n=72 v=0
117248 On ch=2 n=65 v=64
117632 On ch=2 n=65 v=0
117760 On ch=2 n=69 v=64
118784 On ch=2 n=69 v=0
118784 On ch=2 n=62 v=64
119168 On ch=2 n=62 v=0
119296 On ch=2 n=70 v=64
120320 On ch=2 n=70 v=0
120320 On ch=2 n=64 v=64
120704 On ch=2 n=64 v=0
120832 On ch=2 n=67 v=64
121856 On ch=2 n=67 v=0
121856 On ch=2 n=60 v=64
122240 On ch=2 n=60 v=0
122368 On ch=2 n=69 v=64
123136 On ch=2 n=69 v=0
123136 On ch=2 n=65 v=51
123392 On ch=2 n=65 v=0
123392 On ch=2 n=64 v=51
123648 On ch=2 n=64 v=0
123648 On ch=2 n=62 v=52
123904 On ch=2 n=62 v=0
123904 On ch=2 n=60 v=52
124160 On ch=2 n=60 v=0
124160 On ch=2 n=58 v=53
124416 On ch=2 n=58 v=0
124416 On ch=2 n=57 v=54
124672 On ch=2 n=57 v=0
124672 On ch=2 n=62 v=54
124928 On ch=2 n=62 v=0
124928 On ch=2 n=60 v=55
125184 On ch=2 n=60 v=0
125184 On ch=2 n=58 v=55
125440 On ch=2 n=58 v=0
125440 On ch=2 n=57 v=56
125696 On ch=2 n=57 v=0
125696 On ch=2 n=55 v=56
125952 On ch=2 n=55 v=0
125952 On ch=2 n=53 v=57
126208 On ch=2 n=53 v=0
126208 On ch=2 n=48 v=58
126464 On ch=2 n=48 v=0
126464 On ch=2 n=50 v=58
126720 On ch=2 n=50 v=0
126720 On ch=2 n=52 v=59
126976 On ch=2 n=52 v=0
126976 On ch=2 n=53 v=59
127232 On ch=2 n=53 v=0
127232 On ch=2 n=55 v=60
127488 On ch=2 n=55 v=0
127488 On ch=2 n=57 v=61
127744 On ch=2 n=57 v=0
127744 On ch=2 n=55 v=61
128000 On ch=2 n=55 v=0
128000 On ch=2 n=53 v=62
128256 On ch=2 n=53 v=0
128256 On ch=2 n=55 v=62
128512 On ch=2 n=55 v=0
128512 On ch=2 n=57 v=63
128768 On ch=2 n=57 v=0
128768 On ch=2 n=58 v=63
129024 On ch=2 n=58 v=0
129024 On ch=2 n=60 v=64
129408 On ch=2 n=60 v=0
129536 On ch=2 n=53 v=64
129920 On ch=2 n=53 v=0
130048 On ch=2 n=62 v=64
131072 On ch=2 n=62 v=0
131072 On ch=2 n=60 v=64
131456 On ch=2 n=60 v=0
131584 On ch=2 n=65 v=64
132608 On ch=2 n=65 v=0
132608 On ch=2 n=60 v=64
132992 On ch=2 n=60 v=0
133120 On ch=2 n=62 v=64
134144 On ch=2 n=62 v=0
134144 On ch=2 n=60 v=64
134528 On ch=2 n=60 v=0
134656 On ch=2 n=65 v=64
135680 On ch=2 n=65 v=0
135680 On ch=2 n=62 v=64
136064 On ch=2 n=62 v=0
136192 On ch=2 n=70 v=64
137216 On ch=2 n=70 v=0
137216 On ch=2 n=64 v=64
137600 On ch=2 n=64 v=0
137728 On ch=2 n=72 v=64
138240 On ch=2 n=72 v=0
138240 On ch=2 n=69 v=64
138624 On ch=2 n=69 v=0
138752 On ch=2 n=65 v=64
139136 On ch=2 n=65 v=0
139264 On ch=2 n=64 v=64
139392 On ch=2 n=64 v=0
139392 On ch=2 n=65 v=64
139520 On ch=2 n=65 v=0
139520 On ch=2 n=64 v=64
139712 On ch=2 n=64 v=0
139776 On ch=2 n=65 v=64
140800 On ch=2 n=65 v=0
140800 On ch=2 n=60 v=64
141184 On ch=2 n=60 v=0
141312 On ch=2 n=65 v=64
143360 On ch=2 n=65 v=0
143360 On ch=2 n=59 v=64
143744 On ch=2 n=59 v=0
143872 On ch=2 n=62 v=64
144256 On ch=2 n=62 v=0
144384 On ch=2 n=63 v=55
144640 On ch=2 n=63 v=0
144640 On ch=2 n=65 v=55
144896 On ch=2 n=65 v=0
144896 On ch=2 n=67 v=55
145152 On ch=2 n=67 v=0
145152 On ch=2 n=65 v=55
145408 On ch=2 n=65 v=0
145408 On ch=2 n=63 v=55
145664 On ch=2 n=63 v=0
145664 On ch=2 n=62 v=55
145920 On ch=2 n=62 v=0
145920 On ch=2 n=63 v=55
146176 On ch=2 n=63 v=0
146176 On ch=2 n=62 v=55
146432 On ch=2 n=62 v=0
146432 On ch=2 n=60 v=55
146688 On ch=2 n=60 v=0
146688 On ch=2 n=63 v=55
146944 On ch=2 n=63 v=0
146944 On ch=2 n=62 v=55
147200 On ch=2 n=62 v=0
147200 On ch=2 n=65 v=55
147456 On ch=2 n=65 v=0
147456 On ch=2 n=63 v=64
149504 On ch=2 n=63 v=0
149504 On ch=2 n=57 v=64
149888 On ch=2 n=57 v=0
150016 On ch=2 n=60 v=64
150400 On ch=2 n=60 v=0
150528 On ch=2 n=62 v=55
150784 On ch=2 n=62 v=0
150784 On ch=2 n=63 v=55
151040 On ch=2 n=63 v=0
151040 On ch=2 n=65 v=55
151296 On ch=2 n=65 v=0
151296 On ch=2 n=63 v=55
151552 On ch=2 n=63 v=0
151552 On ch=2 n=62 v=55
151808 On ch=2 n=62 v=0
151808 On ch=2 n=60 v=55
152064 On ch=2 n=60 v=0
152064 On ch=2 n=62 v=55
152448 On ch=2 n=62 v=0
152576 On ch=2 n=58 v=64
152960 On ch=2 n=58 v=0
153088 On ch=2 n=62 v=64
153472 On ch=2 n=62 v=0
153600 On ch=2 n=67 v=64
155648 On ch=2 n=67 v=0
155648 On ch=2 n=60 v=64
156032 On ch=2 n=60 v=0
156160 On ch=2 n=63 v=64
156544 On ch=2 n=63 v=0
156672 On ch=2 n=65 v=64
158720 On ch=2 n=65 v=0
158720 On ch=2 n=58 v=64
159104 On ch=2 n=58 v=0
159232 On ch=2 n=62 v=64
159616 On ch=2 n=62 v=0
159744 On ch=2 n=63 v=64
161792 On ch=2 n=63 v=0
161792 On ch=2 n=57 v=64
162176 On ch=2 n=57 v=0
162304 On ch=2 n=60 v=64
162688 On ch=2 n=60 v=0
162816 On ch=2 n=62 v=64
163072 On ch=2 n=62 v=0
163072 On ch=2 n=60 v=64
163328 On ch=2 n=60 v=0
163328 On ch=2 n=62 v=64
163584 On ch=2 n=62 v=0
163584 On ch=2 n=63 v=64
163840 On ch=2 n=63 v=0
163840 On ch=2 n=65 v=64
164096 On ch=2 n=65 v=0
164096 On ch=2 n=67 v=64
164352 On ch=2 n=67 v=0
164352 On ch=2 n=60 v=64
164736 On ch=2 n=60 v=0
164864 On ch=2 n=53 v=64
165248 On ch=2 n=53 v=0
165376 On ch=2 n=77 v=64
166400 On ch=2 n=77 v=0
166400 On ch=2 n=72 v=64
166784 On ch=2 n=72 v=0
166912 On ch=2 n=74 v=64
167424 On ch=2 n=74 v=0
167424 On ch=2 n=74 v=64
167936 On ch=2 n=74 v=0
167936 On ch=2 n=72 v=64
168320 On ch=2 n=72 v=0
168448 On ch=2 n=77 v=64
169472 On ch=2 n=77 v=0
169472 On ch=2 n=72 v=64
169856 On ch=2 n=72 v=0
169984 On ch=2 n=74 v=64
171008 On ch=2 n=74 v=0
171008 On ch=2 n=72 v=64
171392 On ch=2 n=72 v=0
171520 On ch=2 n=65 v=64
171904 On ch=2 n=65 v=0
172032 On ch=2 n=72 v=55
172288 On ch=2 n=72 v=0
172288 On ch=2 n=74 v=55
172544 On ch=2 n=74 v=0
172544 On ch=2 n=75 v=55
172800 On ch=2 n=75 v=0
172800 On ch=2 n=74 v=55
173056 On ch=2 n=74 v=0
173056 On ch=2 n=72 v=55
173312 On ch=2 n=72 v=0
173312 On ch=2 n=70 v=55
173568 On ch=2 n=70 v=0
173568 On ch=2 n=69 v=55
173824 On ch=2 n=69 v=0
173824 On ch=2 n=70 v=55
174080 On ch=2 n=70 v=0
174080 On ch=2 n=72 v=55
174336 On ch=2 n=72 v=0
174336 On ch=2 n=70 v=55
174592 On ch=2 n=70 v=0
174592 On ch=2 n=69 v=55
174848 On ch=2 n=69 v=0
174848 On ch=2 n=67 v=55
175104 On ch=2 n=67 v=0
175104 On ch=2 n=65 v=55
175360 On ch=2 n=65 v=0
175360 On ch=2 n=67 v=55
175616 On ch=2 n=67 v=0
175616 On ch=2 n=69 v=55
175872 On ch=2 n=69 v=0
175872 On ch=2 n=70 v=55
176128 On ch=2 n=70 v=0
176128 On ch=2 n=72 v=55
176384 On ch=2 n=72 v=0
176384 On ch=2 n=69 v=55
176640 On ch=2 n=69 v=0
176640 On ch=2 n=70 v=55
177024 On ch=2 n=70 v=0
177152 On ch=2 n=58 v=55
177536 On ch=2 n=58 v=0
177664 On ch=2 n=68 v=55
178688 On ch=2 n=68 v=0
178688 On ch=2 n=62 v=64
179072 On ch=2 n=62 v=0
179200 On ch=2 n=65 v=64
180224 On ch=2 n=65 v=0
180224 On ch=2 n=58 v=64
180608 On ch=2 n=58 v=0
180736 On ch=2 n=62 v=64
181760 On ch=2 n=62 v=0
181760 On ch=2 n=65 v=64
182144 On ch=2 n=65 v=0
182272 On ch=2 n=68 v=64
183296 On ch=2 n=68 v=0
183296 On ch=2 n=67 v=64
183680 On ch=2 n=67 v=0
186880 On ch=2 n=69 v=64
187904 On ch=2 n=69 v=0
187904 On ch=2 n=62 v=64
188288 On ch=2 n=62 v=0
188416 On ch=2 n=72 v=64
189440 On ch=2 n=72 v=0
189440 On ch=2 n=70 v=64
189824 On ch=2 n=70 v=0
190464 On ch=2 n=63 v=64
191488 On ch=2 n=63 v=0
191488 On ch=2 n=60 v=68
191872 On ch=2 n=60 v=0
192000 On ch=2 n=65 v=70
193024 On ch=2 n=65 v=0
193024 On ch=2 n=62 v=73
193408 On ch=2 n=62 v=0
193536 On ch=2 n=67 v=75
194304 On ch=2 n=67 v=0
194304 On ch=2 n=65 v=72
194560 On ch=2 n=65 v=0
194560 On ch=2 n=63 v=69
194816 On ch=2 n=63 v=0
194816 On ch=2 n=62 v=67
195072 On ch=2 n=62 v=0
195072 On ch=2 n=60 v=64
195328 On ch=2 n=60 v=0
195328 On ch=2 n=58 v=61
195584 On ch=2 n=58 v=0
195584 On ch=2 n=57 v=58
195840 On ch=2 n=57 v=0
195840 On ch=2 n=55 v=56
196096 On ch=2 n=55 v=0
196096 On ch=2 n=53 v=53
196352 On ch=2 n=53 v=0
196352 On ch=2 n=51 v=50
196608 On ch=2 n=51 v=0
196608 On ch=2 n=50 v=50
196992 On ch=2 n=50 v=0
197376 On ch=2 n=53 v=51
197632 On ch=2 n=53 v=0
197632 On ch=2 n=55 v=51
197888 On ch=2 n=55 v=0
197888 On ch=2 n=57 v=51
198144 On ch=2 n=57 v=0
198144 On ch=2 n=58 v=52
198400 On ch=2 n=58 v=0
198400 On ch=2 n=57 v=52
198656 On ch=2 n=57 v=0
198656 On ch=2 n=58 v=52
199040 On ch=2 n=58 v=0
200448 On ch=2 n=53 v=54
200704 On ch=2 n=53 v=0
200704 On ch=2 n=55 v=55
200960 On ch=2 n=55 v=0
200960 On ch=2 n=57 v=55
201216 On ch=2 n=57 v=0
201216 On ch=2 n=58 v=55
201472 On ch=2 n=58 v=0
201472 On ch=2 n=57 v=56
201728 On ch=2 n=57 v=0
201728 On ch=2 n=58 v=56
202112 On ch=2 n=58 v=0
203520 On ch=2 n=55 v=58
203776 On ch=2 n=55 v=0
203776 On ch=2 n=57 v=58
204032 On ch=2 n=57 v=0
204032 On ch=2 n=58 v=58
204288 On ch=2 n=58 v=0
204288 On ch=2 n=60 v=59
204544 On ch=2 n=60 v=0
204544 On ch=2 n=58 v=59
204800 On ch=2 n=58 v=0
204800 On ch=2 n=60 v=59
205056 On ch=2 n=60 v=0
205056 On ch=2 n=58 v=60
205312 On ch=2 n=58 v=0
205312 On ch=2 n=57 v=60
205568 On ch=2 n=57 v=0
205568 On ch=2 n=55 v=60
205824 On ch=2 n=55 v=0
205824 On ch=2 n=53 v=61
206080 On ch=2 n=53 v=0
206080 On ch=2 n=51 v=61
206336 On ch=2 n=51 v=0
206336 On ch=2 n=53 v=61
206592 On ch=2 n=53 v=0
206592 On ch=2 n=55 v=61
206848 On ch=2 n=55 v=0
206848 On ch=2 n=53 v=62
207104 On ch=2 n=53 v=0
207104 On ch=2 n=51 v=62
207360 On ch=2 n=51 v=0
207360 On ch=2 n=50 v=62
208384 On ch=2 n=50 v=0
208384 On ch=2 n=77 v=63
209280 On ch=2 n=77 v=0
209408 On ch=2 n=70 v=64
209792 On ch=2 n=70 v=0
209920 On ch=2 n=74 v=64
210944 On ch=2 n=74 v=0
210944 On ch=2 n=67 v=64
211328 On ch=2 n=67 v=0
211456 On ch=2 n=75 v=64
212480 On ch=2 n=75 v=0
212480 On ch=2 n=69 v=64
212864 On ch=2 n=69 v=0
212992 On ch=2 n=72 v=64
214016 On ch=2 n=72 v=0
214016 On ch=2 n=65 v=64
214400 On ch=2 n=65 v=0
214528 On ch=2 n=74 v=64
215552 On ch=2 n=74 v=0
215552 On ch=2 n=65 v=64
215936 On ch=2 n=65 v=0
216064 On ch=2 n=70 v=64
217088 On ch=2 n=70 v=0
217088 On ch=2 n=62 v=64
217472 On ch=2 n=62 v=0
217600 On ch=2 n=65 v=64
218624 On ch=2 n=65 v=0
218624 On ch=2 n=58 v=64
219008 On ch=2 n=58 v=0
219136 On ch=2 n=62 v=64
219520 On ch=2 n=62 v=0
219648 On ch=2 n=65 v=64
220032 On ch=2 n=65 v=0
220160 On ch=2 n=62 v=64
220544 On ch=2 n=62 v=0
220672 On ch=2 n=65 v=64
221056 On ch=2 n=65 v=0
221184 On ch=2 n=70 v=55
221568 On ch=2 n=70 v=0
221696 On ch=2 n=65 v=55
222080 On ch=2 n=65 v=0
222208 On ch=2 n=67 v=56
223232 On ch=2 n=67 v=0
223232 On ch=2 n=65 v=57
223488 On ch=2 n=65 v=0
223488 On ch=2 n=63 v=57
223744 On ch=2 n=63 v=0
223744 On ch=2 n=62 v=57
224000 On ch=2 n=62 v=0
224000 On ch=2 n=60 v=57
224256 On ch=2 n=60 v=0
224256 On ch=2 n=62 v=57
224512 On ch=2 n=62 v=0
224512 On ch=2 n=63 v=57
224768 On ch=2 n=63 v=0
224768 On ch=2 n=65 v=58
225024 On ch=2 n=65 v=0
225024 On ch=2 n=63 v=58
225280 On ch=2 n=63 v=0
225280 On ch=2 n=62 v=58
225536 On ch=2 n=62 v=0
225536 On ch=2 n=60 v=58
225792 On ch=2 n=60 v=0
225792 On ch=2 n=58 v=58
226048 On ch=2 n=58 v=0
226048 On ch=2 n=60 v=59
226304 On ch=2 n=60 v=0
226304 On ch=2 n=62 v=59
226560 On ch=2 n=62 v=0
226560 On ch=2 n=60 v=59
226816 On ch=2 n=60 v=0
226816 On ch=2 n=58 v=59
227072 On ch=2 n=58 v=0
227072 On ch=2 n=57 v=59
227328 On ch=2 n=57 v=0
227328 On ch=2 n=55 v=60
227584 On ch=2 n=55 v=0
227584 On ch=2 n=57 v=60
227840 On ch=2 n=57 v=0
227840 On ch=2 n=58 v=60
228096 On ch=2 n=58 v=0
228096 On ch=2 n=62 v=60
228352 On ch=2 n=62 v=0
228352 On ch=2 n=60 v=60
228608 On ch=2 n=60 v=0
228608 On ch=2 n=58 v=60
228864 On ch=2 n=58 v=0
228864 On ch=2 n=57 v=61
229120 On ch=2 n=57 v=0
229120 On ch=2 n=58 v=61
229376 On ch=2 n=58 v=0
229376 On ch=2 n=60 v=61
229632 On ch=2 n=60 v=0
229632 On ch=2 n=63 v=61
229888 On ch=2 n=63 v=0
229888 On ch=2 n=62 v=61
230144 On ch=2 n=62 v=0
230144 On ch=2 n=60 v=62
230400 On ch=2 n=60 v=0
230400 On ch=2 n=58 v=62
230656 On ch=2 n=58 v=0
230656 On ch=2 n=57 v=62
230912 On ch=2 n=57 v=0
230912 On ch=2 n=58 v=62
231168 On ch=2 n=58 v=0
231168 On ch=2 n=62 v=62
231424 On ch=2 n=62 v=0
231424 On ch=2 n=60 v=63
231680 On ch=2 n=60 v=0
231680 On ch=2 n=63 v=63
231936 On ch=2 n=63 v=0
231936 On ch=2 n=62 v=63
232192 On ch=2 n=62 v=0
232192 On ch=2 n=65 v=63
232448 On ch=2 n=65 v=0
232448 On ch=2 n=62 v=63
232704 On ch=2 n=62 v=0
232704 On ch=2 n=58 v=63
232960 On ch=2 n=58 v=0
232960 On ch=2 n=62 v=64
233216 On ch=2 n=62 v=0
233216 On ch=2 n=65 v=64
233472 On ch=2 n=65 v=0
233472 On ch=2 n=70 v=64
233984 On ch=2 n=70 v=0
233984 On ch=2 n=69 v=64
234368 On ch=2 n=69 v=0
234496 On ch=2 n=70 v=64
234880 On ch=2 n=70 v=0
235008 On ch=2 n=62 v=64
235520 On ch=2 n=62 v=0
235520 On ch=2 n=65 v=64
235904 On ch=2 n=65 v=0
236032 On ch=2 n=70 v=64
236416 On ch=2 n=70 v=0
236544 On ch=2 n=70 v=64
237056 On ch=2 n=70 v=0
237056 On ch=2 n=69 v=64
237440 On ch=2 n=69 v=0
237568 On ch=2 n=70 v=64
237952 On ch=2 n=70 v=0
238080 On ch=2 n=62 v=64
238592 On ch=2 n=62 v=0
238592 On ch=2 n=65 v=64
238976 On ch=2 n=65 v=0
239104 On ch=2 n=70 v=64
239488 On ch=2 n=70 v=0
239616 On ch=2 n=72 v=64
240128 On ch=2 n=72 v=0
240128 On ch=2 n=70 v=64
240512 On ch=2 n=70 v=0
240640 On ch=2 n=72 v=64
241024 On ch=2 n=72 v=0
241152 On ch=2 n=65 v=64
241664 On ch=2 n=65 v=0
241664 On ch=2 n=69 v=64
242048 On ch=2 n=69 v=0
242176 On ch=2 n=72 v=64
242560 On ch=2 n=72 v=0
242688 On ch=2 n=74 v=64
243200 On ch=2 n=74 v=0
243200 On ch=2 n=72 v=64
243584 On ch=2 n=72 v=0
243712 On ch=2 n=74 v=64
244096 On ch=2 n=74 v=0
244224 On ch=2 n=70 v=64
245248 On ch=2 n=70 v=0
245248 On ch=2 n=74 v=64
246272 On ch=2 n=74 v=0
246272 On ch=2 n=67 v=64
246656 On ch=2 n=67 v=0
246784 On ch=2 n=70 v=64
247808 On ch=2 n=70 v=0
247808 On ch=2 n=64 v=64
248192 On ch=2 n=64 v=0
248320 On ch=2 n=72 v=64
249344 On ch=2 n=72 v=0
249344 On ch=2 n=65 v=64
249728 On ch=2 n=65 v=0
249856 On ch=2 n=69 v=64
250880 On ch=2 n=69 v=0
250880 On ch=2 n=62 v=64
251264 On ch=2 n=62 v=0
251392 On ch=2 n=70 v=64
252416 On ch=2 n=70 v=0
252416 On ch=2 n=64 v=64
252800 On ch=2 n=64 v=0
252928 On ch=2 n=67 v=64
253952 On ch=2 n=67 v=0
253952 On ch=2 n=60 v=64
254336 On ch=2 n=60 v=0
254464 On ch=2 n=70 v=64
254848 On ch=2 n=70 v=0
254976 On ch=2 n=69 v=64
255488 On ch=2 n=69 v=0
255488 On ch=2 n=67 v=64
255872 On ch=2 n=67 v=0
256000 On ch=2 n=69 v=64
256384 On ch=2 n=69 v=0
256512 On ch=2 n=65 v=64
257024 On ch=2 n=65 v=0
257024 On ch=2 n=69 v=64
257408 On ch=2 n=69 v=0
257536 On ch=2 n=72 v=64
257920 On ch=2 n=72 v=0
258048 On ch=2 n=77 v=64
258432 On ch=2 n=77 v=0
258560 On ch=2 n=70 v=64
258944 On ch=2 n=70 v=0
259072 On ch=2 n=74 v=64
260096 On ch=2 n=74 v=0
260096 On ch=2 n=67 v=64
260480 On ch=2 n=67 v=0
260608 On ch=2 n=75 v=64
261632 On ch=2 n=75 v=0
261632 On ch=2 n=69 v=64
262016 On ch=2 n=69 v=0
262144 On ch=2 n=72 v=64
263168 On ch=2 n=72 v=0
263168 On ch=2 n=65 v=64
263552 On ch=2 n=65 v=0
263680 On ch=2 n=74 v=64
264704 On ch=2 n=74 v=0
264704 On ch=2 n=65 v=64
265088 On ch=2 n=65 v=0
265216 On ch=2 n=70 v=64
266240 On ch=2 n=70 v=0
266240 On ch=2 n=62 v=64
266624 On ch=2 n=62 v=0
266752 On ch=2 n=65 v=64
267776 On ch=2 n=65 v=0
267776 On ch=2 n=58 v=64
268160 On ch=2 n=58 v=0
268288 On ch=2 n=62 v=64
268672 On ch=2 n=62 v=0
268800 On ch=2 n=65 v=64
269184 On ch=2 n=65 v=0
269312 On ch=2 n=62 v=64
269696 On ch=2 n=62 v=0
269824 On ch=2 n=65 v=64
270208 On ch=2 n=65 v=0
270336 On ch=2 n=70 v=64
270720 On ch=2 n=70 v=0
270848 On ch=2 n=65 v=64
271232 On ch=2 n=65 v=0
271360 On ch=2 n=67 v=64
272384 On ch=2 n=67 v=0
272384 On ch=2 n=65 v=64
272768 On ch=2 n=65 v=0
272896 On ch=2 n=70 v=64
273920 On ch=2 n=70 v=0
273920 On ch=2 n=65 v=64
274304 On ch=2 n=65 v=0
274432 On ch=2 n=67 v=64
275456 On ch=2 n=67 v=0
275456 On ch=2 n=65 v=64
275840 On ch=2 n=65 v=0
275968 On ch=2 n=70 v=64
276992 On ch=2 n=70 v=0
276992 On ch=2 n=67 v=64
277376 On ch=2 n=67 v=0
277504 On ch=2 n=75 v=64
278528 On ch=2 n=75 v=0
278528 On ch=2 n=69 v=64
278912 On ch=2 n=69 v=0
279040 On ch=2 n=77 v=64
279552 On ch=2 n=77 v=0
279552 On ch=2 n=74 v=64
279936 On ch=2 n=74 v=0
280064 On ch=2 n=70 v=64
280448 On ch=2 n=70 v=0
280576 On ch=2 n=69 v=64
280704 On ch=2 n=69 v=0
280704 On ch=2 n=67 v=64
280832 On ch=2 n=67 v=0
280832 On ch=2 n=69 v=64
281024 On ch=2 n=69 v=0
281088 On ch=2 n=70 v=64
282112 On ch=2 n=70 v=0
284928 On ch=2 n=62 v=64
285184 On ch=2 n=62 v=0
285184 On ch=2 n=72 v=64
285440 On ch=2 n=72 v=0
285440 On ch=2 n=62 v=64
285696 On ch=2 n=62 v=0
285696 On ch=2 n=70 v=64
285952 On ch=2 n=70 v=0
285952 On ch=2 n=62 v=64
286208 On ch=2 n=62 v=0
286208 On ch=2 n=69 v=64
286464 On ch=2 n=69 v=0
286464 On ch=2 n=62 v=64
286720 On ch=2 n=62 v=0
286720 On ch=2 n=67 v=64
286976 On ch=2 n=67 v=0
286976 On ch=2 n=62 v=64
287232 On ch=2 n=62 v=0
287232 On ch=2 n=66 v=64
287488 On ch=2 n=66 v=0
287488 On ch=2 n=62 v=64
287744 On ch=2 n=62 v=0
287744 On ch=2 n=64 v=64
288000 On ch=2 n=64 v=0
288000 On ch=2 n=62 v=64
288256 On ch=2 n=62 v=0
288256 On ch=2 n=66 v=64
288512 On ch=2 n=66 v=0
288512 On ch=2 n=62 v=64
288768 On ch=2 n=62 v=0
288768 On ch=2 n=67 v=64
289024 On ch=2 n=67 v=0
289024 On ch=2 n=62 v=64
289280 On ch=2 n=62 v=0
289280 On ch=2 n=66 v=64
289536 On ch=2 n=66 v=0
289536 On ch=2 n=62 v=64
289792 On ch=2 n=62 v=0
289792 On ch=2 n=67 v=64
290048 On ch=2 n=67 v=0
290048 On ch=2 n=62 v=64
290304 On ch=2 n=62 v=0
290304 On ch=2 n=69 v=64
290560 On ch=2 n=69 v=0
290560 On ch=2 n=62 v=64
290816 On ch=2 n=62 v=0
290816 On ch=2 n=67 v=64
291072 On ch=2 n=67 v=0
291072 On ch=2 n=62 v=64
291328 On ch=2 n=62 v=0
291328 On ch=2 n=66 v=64
291584 On ch=2 n=66 v=0
291584 On ch=2 n=62 v=64
291840 On ch=2 n=62 v=0
291840 On ch=2 n=67 v=64
292096 On ch=2 n=67 v=0
292096 On ch=2 n=62 v=64
292352 On ch=2 n=62 v=0
292352 On ch=2 n=69 v=64
292608 On ch=2 n=69 v=0
292608 On ch=2 n=62 v=64
292864 On ch=2 n=62 v=0
292864 On ch=2 n=70 v=64
293120 On ch=2 n=70 v=0
293120 On ch=2 n=62 v=64
293376 On ch=2 n=62 v=0
293376 On ch=2 n=69 v=64
293760 On ch=2 n=69 v=0
293888 On ch=2 n=62 v=64
294272 On ch=2 n=62 v=0
295168 On ch=2 n=55 v=55
295424 On ch=2 n=55 v=0
295424 On ch=2 n=59 v=55
295680 On ch=2 n=59 v=0
295680 On ch=2 n=62 v=55
295936 On ch=2 n=62 v=0
295936 On ch=2 n=67 v=55
296192 On ch=2 n=67 v=0
296192 On ch=2 n=71 v=55
296448 On ch=2 n=71 v=0
296448 On ch=2 n=75 v=55
297984 On ch=2 n=75 v=0
298240 On ch=2 n=53 v=55
298496 On ch=2 n=53 v=0
298496 On ch=2 n=57 v=55
298752 On ch=2 n=57 v=0
298752 On ch=2 n=60 v=55
299008 On ch=2 n=60 v=0
299008 On ch=2 n=65 v=55
299264 On ch=2 n=65 v=0
299264 On ch=2 n=69 v=55
299520 On ch=2 n=69 v=0
299520 On ch=2 n=74 v=55
301056 On ch=2 n=74 v=0
301312 On ch=2 n=51 v=55
301568 On ch=2 n=51 v=0
301568 On ch=2 n=55 v=55
301824 On ch=2 n=55 v=0
301824 On ch=2 n=58 v=55
302080 On ch=2 n=58 v=0
302080 On ch=2 n=63 v=55
302336 On ch=2 n=63 v=0
302336 On ch=2 n=67 v=55
302592 On ch=2 n=67 v=0
302592 On ch=2 n=72 v=55
304128 On ch=2 n=72 v=0
304384 On ch=2 n=50 v=55
304640 On ch=2 n=50 v=0
304640 On ch=2 n=54 v=55
304896 On ch=2 n=54 v=0
304896 On ch=2 n=57 v=55
305152 On ch=2 n=57 v=0
305152 On ch=2 n=62 v=55
305408 On ch=2 n=62 v=0
305408 On ch=2 n=66 v=55
305664 On ch=2 n=66 v=0
305664 On ch=2 n=70 v=55
307456 On ch=2 n=70 v=0
307456 On ch=2 n=69 v=55
307712 On ch=2 n=69 v=0
307712 On ch=2 n=67 v=56
307968 On ch=2 n=67 v=0
307968 On ch=2 n=65 v=56
308224 On ch=2 n=65 v=0
308224 On ch=2 n=63 v=56
308480 On ch=2 n=63 v=0
308480 On ch=2 n=62 v=57
308736 On ch=2 n=62 v=0
308736 On ch=2 n=72 v=57
310528 On ch=2 n=72 v=0
310528 On ch=2 n=70 v=59
310784 On ch=2 n=70 v=0
310784 On ch=2 n=69 v=59
311040 On ch=2 n=69 v=0
311040 On ch=2 n=67 v=60
311296 On ch=2 n=67 v=0
311296 On ch=2 n=65 v=60
311552 On ch=2 n=65 v=0
311552 On ch=2 n=63 v=60
311808 On ch=2 n=63 v=0
311808 On ch=2 n=74 v=61
313600 On ch=2 n=74 v=0
313600 On ch=2 n=72 v=63
313856 On ch=2 n=72 v=0
313856 On ch=2 n=70 v=63
314112 On ch=2 n=70 v=0
314112 On ch=2 n=69 v=63
314368 On ch=2 n=69 v=0
314368 On ch=2 n=67 v=64
314624 On ch=2 n=67 v=0
314624 On ch=2 n=66 v=64
314880 On ch=2 n=66 v=0
314880 On ch=2 n=67 v=64
315136 On ch=2 n=67 v=0
315136 On ch=2 n=65 v=65
315392 On ch=2 n=65 v=0
315392 On ch=2 n=63 v=65
315648 On ch=2 n=63 v=0
315648 On ch=2 n=62 v=65
315904 On ch=2 n=62 v=0
315904 On ch=2 n=60 v=66
316160 On ch=2 n=60 v=0
316160 On ch=2 n=58 v=66
316416 On ch=2 n=58 v=0
316416 On ch=2 n=57 v=66
316672 On ch=2 n=57 v=0
316672 On ch=2 n=55 v=67
316928 On ch=2 n=55 v=0
316928 On ch=2 n=57 v=67
317184 On ch=2 n=57 v=0
317184 On ch=2 n=58 v=67
317440 On ch=2 n=58 v=0
317440 On ch=2 n=57 v=68
317696 On ch=2 n=57 v=0
317696 On ch=2 n=58 v=68
317952 On ch=2 n=58 v=0
317952 On ch=2 n=60 v=68
318208 On ch=2 n=60 v=0
318208 On ch=2 n=58 v=68
318464 On ch=2 n=58 v=0
318464 On ch=2 n=60 v=69
318720 On ch=2 n=60 v=0
318720 On ch=2 n=62 v=69
318976 On ch=2 n=62 v=0
318976 On ch=2 n=60 v=69
319232 On ch=2 n=60 v=0
319232 On ch=2 n=62 v=70
319488 On ch=2 n=62 v=0
319488 On ch=2 n=58 v=70
320000 On ch=2 n=58 v=0
320000 On ch=2 n=62 v=70
320384 On ch=2 n=62 v=0
320512 On ch=2 n=67 v=70
320896 On ch=2 n=67 v=0
321024 On ch=2 n=58 v=70
321536 On ch=2 n=58 v=0
321536 On ch=2 n=62 v=70
321920 On ch=2 n=62 v=0
322048 On ch=2 n=67 v=70
322432 On ch=2 n=67 v=0
322560 On ch=2 n=67 v=70
323072 On ch=2 n=67 v=0
323072 On ch=2 n=66 v=70
323456 On ch=2 n=66 v=0
323584 On ch=2 n=67 v=70
323968 On ch=2 n=67 v=0
324096 On ch=2 n=58 v=70
324608 On ch=2 n=58 v=0
324608 On ch=2 n=62 v=70
324992 On ch=2 n=62 v=0
325120 On ch=2 n=67 v=70
325504 On ch=2 n=67 v=0
325632 On ch=2 n=69 v=70
326144 On ch=2 n=69 v=0
326144 On ch=2 n=67 v=70
326528 On ch=2 n=67 v=0
326656 On ch=2 n=69 v=70
327040 On ch=2 n=69 v=0
327168 On ch=2 n=62 v=70
327680 On ch=2 n=62 v=0
327680 On ch=2 n=66 v=70
328064 On ch=2 n=66 v=0
328192 On ch=2 n=69 v=70
328576 On ch=2 n=69 v=0
328704 On ch=2 n=70 v=70
329216 On ch=2 n=70 v=0
329216 On ch=2 n=69 v=70
329600 On ch=2 n=69 v=0
329728 On ch=2 n=70 v=70
330112 On ch=2 n=70 v=0
330240 On ch=2 n=67 v=70
331264 On ch=2 n=67 v=0
332800 On ch=2 n=71 v=64
333184 On ch=2 n=71 v=0
333312 On ch=2 n=76 v=64
335360 On ch=2 n=76 v=0
335360 On ch=2 n=69 v=64
335744 On ch=2 n=69 v=0
335872 On ch=2 n=73 v=64
336256 On ch=2 n=73 v=0
336384 On ch=2 n=74 v=64
336768 On ch=2 n=74 v=0
336896 On ch=2 n=62 v=64
337280 On ch=2 n=62 v=0
338944 On ch=2 n=69 v=64
339328 On ch=2 n=69 v=0
339456 On ch=2 n=74 v=64
341504 On ch=2 n=74 v=0
341504 On ch=2 n=67 v=64
341888 On ch=2 n=67 v=0
342016 On ch=2 n=71 v=64
342400 On ch=2 n=71 v=0
342528 On ch=2 n=72 v=64
344576 On ch=2 n=72 v=0
344576 On ch=2 n=66 v=64
344960 On ch=2 n=66 v=0
345088 On ch=2 n=69 v=64
345472 On ch=2 n=69 v=0
345600 On ch=2 n=70 v=64
347648 On ch=2 n=70 v=0
347648 On ch=2 n=64 v=64
348032 On ch=2 n=64 v=0
348160 On ch=2 n=67 v=64
348544 On ch=2 n=67 v=0
348672 On ch=2 n=69 v=64
350720 On ch=2 n=69 v=0
350720 On ch=2 n=62 v=64
351104 On ch=2 n=62 v=0
351232 On ch=2 n=65 v=64
351616 On ch=2 n=65 v=0
351744 On ch=2 n=67 v=64
353536 On ch=2 n=67 v=0
353536 On ch=2 n=69 v=64
353792 On ch=2 n=69 v=0
353792 On ch=2 n=67 v=64
354048 On ch=2 n=67 v=0
354048 On ch=2 n=65 v=64
354304 On ch=2 n=65 v=0
354304 On ch=2 n=64 v=64
354560 On ch=2 n=64 v=0
354560 On ch=2 n=65 v=64
354816 On ch=2 n=65 v=0
354816 On ch=2 n=67 v=64
355072 On ch=2 n=67 v=0
355072 On ch=2 n=65 v=64
355328 On ch=2 n=65 v=0
355328 On ch=2 n=67 v=64
355584 On ch=2 n=67 v=0
355584 On ch=2 n=69 v=64
355840 On ch=2 n=69 v=0
355840 On ch=2 n=67 v=64
356096 On ch=2 n=67 v=0
356096 On ch=2 n=69 v=64
356352 On ch=2 n=69 v=0
356352 On ch=2 n=65 v=70
356608 On ch=2 n=65 v=0
356608 On ch=2 n=69 v=70
356864 On ch=2 n=69 v=0
356864 On ch=2 n=64 v=70
357120 On ch=2 n=64 v=0
357120 On ch=2 n=69 v=70
357376 On ch=2 n=69 v=0
357376 On ch=2 n=62 v=70
357632 On ch=2 n=62 v=0
357632 On ch=2 n=69 v=70
357888 On ch=2 n=69 v=0
357888 On ch=2 n=61 v=70
358144 On ch=2 n=61 v=0
358144 On ch=2 n=69 v=70
358400 On ch=2 n=69 v=0
358400 On ch=2 n=59 v=70
358656 On ch=2 n=59 v=0
358656 On ch=2 n=69 v=70
358912 On ch=2 n=69 v=0
358912 On ch=2 n=61 v=70
359168 On ch=2 n=61 v=0
359168 On ch=2 n=69 v=70
359424 On ch=2 n=69 v=0
359424 On ch=2 n=62 v=70
359680 On ch=2 n=62 v=0
359680 On ch=2 n=69 v=70
359936 On ch=2 n=69 v=0
359936 On ch=2 n=61 v=70
360192 On ch=2 n=61 v=0
360192 On ch=2 n=69 v=70
360448 On ch=2 n=69 v=0
360448 On ch=2 n=62 v=70
360704 On ch=2 n=62 v=0
360704 On ch=2 n=69 v=70
360960 On ch=2 n=69 v=0
360960 On ch=2 n=64 v=70
361216 On ch=2 n=64 v=0
361216 On ch=2 n=69 v=70
361472 On ch=2 n=69 v=0
361472 On ch=2 n=62 v=70
361728 On ch=2 n=62 v=0
361728 On ch=2 n=69 v=70
361984 On ch=2 n=69 v=0
361984 On ch=2 n=64 v=70
362240 On ch=2 n=64 v=0
362240 On ch=2 n=69 v=70
362496 On ch=2 n=69 v=0
362496 On ch=2 n=65 v=70
362752 On ch=2 n=65 v=0
362752 On ch=2 n=69 v=70
363008 On ch=2 n=69 v=0
363008 On ch=2 n=64 v=70
363264 On ch=2 n=64 v=0
363264 On ch=2 n=69 v=70
363520 On ch=2 n=69 v=0
363520 On ch=2 n=65 v=70
363776 On ch=2 n=65 v=0
363776 On ch=2 n=69 v=70
364032 On ch=2 n=69 v=0
364032 On ch=2 n=67 v=70
364288 On ch=2 n=67 v=0
364288 On ch=2 n=69 v=70
364544 On ch=2 n=69 v=0
364544 On ch=2 n=65 v=70
364800 On ch=2 n=65 v=0
364800 On ch=2 n=69 v=70
365056 On ch=2 n=69 v=0
365056 On ch=2 n=64 v=70
365312 On ch=2 n=64 v=0
365312 On ch=2 n=69 v=70
365568 On ch=2 n=69 v=0
365568 On ch=2 n=65 v=70
365824 On ch=2 n=65 v=0
365824 On ch=2 n=69 v=70
366080 On ch=2 n=69 v=0
366080 On ch=2 n=64 v=70
366336 On ch=2 n=64 v=0
366336 On ch=2 n=69 v=70
366592 On ch=2 n=69 v=0
366592 On ch=2 n=62 v=70
366848 On ch=2 n=62 v=0
366848 On ch=2 n=69 v=70
367104 On ch=2 n=69 v=0
367104 On ch=2 n=61 v=70
367360 On ch=2 n=61 v=0
367360 On ch=2 n=57 v=70
367616 On ch=2 n=57 v=0
367616 On ch=2 n=61 v=70
367872 On ch=2 n=61 v=0
367872 On ch=2 n=64 v=70
368128 On ch=2 n=64 v=0
368128 On ch=2 n=69 v=70
368384 On ch=2 n=69 v=0
368384 On ch=2 n=67 v=70
368640 On ch=2 n=67 v=0
368640 On ch=2 n=65 v=50
370432 On ch=2 n=65 v=0
370432 On ch=2 n=55 v=50
370688 On ch=2 n=55 v=0
370688 On ch=2 n=58 v=50
370944 On ch=2 n=58 v=0
370944 On ch=2 n=62 v=50
371200 On ch=2 n=62 v=0
371200 On ch=2 n=67 v=50
371456 On ch=2 n=67 v=0
371456 On ch=2 n=65 v=50
371712 On ch=2 n=65 v=0
371712 On ch=2 n=64 v=50
373504 On ch=2 n=64 v=0
373504 On ch=2 n=53 v=50
373760 On ch=2 n=53 v=0
373760 On ch=2 n=57 v=50
374016 On ch=2 n=57 v=0
374016 On ch=2 n=60 v=50
374272 On ch=2 n=60 v=0
374272 On ch=2 n=65 v=50
374528 On ch=2 n=65 v=0
374528 On ch=2 n=64 v=50
374784 On ch=2 n=64 v=0
374784 On ch=2 n=62 v=50
376576 On ch=2 n=62 v=0
376576 On ch=2 n=52 v=50
376832 On ch=2 n=52 v=0
376832 On ch=2 n=55 v=50
377088 On ch=2 n=55 v=0
377088 On ch=2 n=59 v=50
377344 On ch=2 n=59 v=0
377344 On ch=2 n=64 v=50
377600 On ch=2 n=64 v=0
377600 On ch=2 n=62 v=50
377856 On ch=2 n=62 v=0
377856 On ch=2 n=61 v=50
379392 On ch=2 n=61 v=0
379648 On ch=2 n=62 v=50
379904 On ch=2 n=62 v=0
379904 On ch=2 n=64 v=50
380160 On ch=2 n=64 v=0
380160 On ch=2 n=65 v=50
380416 On ch=2 n=65 v=0
380416 On ch=2 n=67 v=50
380672 On ch=2 n=67 v=0
380672 On ch=2 n=69 v=50
380928 On ch=2 n=69 v=0
380928 On ch=2 n=70 v=50
382720 On ch=2 n=70 v=0
382720 On ch=2 n=64 v=54
382976 On ch=2 n=64 v=0
382976 On ch=2 n=65 v=54
383232 On ch=2 n=65 v=0
383232 On ch=2 n=67 v=55
383488 On ch=2 n=67 v=0
383488 On ch=2 n=69 v=55
383744 On ch=2 n=69 v=0
383744 On ch=2 n=71 v=56
384000 On ch=2 n=71 v=0
384000 On ch=2 n=72 v=56
385792 On ch=2 n=72 v=0
385792 On ch=2 n=65 v=60
386048 On ch=2 n=65 v=0
386048 On ch=2 n=67 v=60
386304 On ch=2 n=67 v=0
386304 On ch=2 n=69 v=61
386560 On ch=2 n=69 v=0
386560 On ch=2 n=71 v=61
386816 On ch=2 n=71 v=0
386816 On ch=2 n=73 v=62
387072 On ch=2 n=73 v=0
387072 On ch=2 n=74 v=63
387840 On ch=2 n=74 v=0
387840 On ch=2 n=65 v=64
388096 On ch=2 n=65 v=0
388096 On ch=2 n=67 v=65
388352 On ch=2 n=67 v=0
388352 On ch=2 n=69 v=65
388608 On ch=2 n=69 v=0
388608 On ch=2 n=70 v=66
388864 On ch=2 n=70 v=0
388864 On ch=2 n=69 v=66
389120 On ch=2 n=69 v=0
389120 On ch=2 n=67 v=67
389376 On ch=2 n=67 v=0
389376 On ch=2 n=65 v=67
389632 On ch=2 n=65 v=0
389632 On ch=2 n=64 v=68
389888 On ch=2 n=64 v=0
389888 On ch=2 n=62 v=68
390144 On ch=2 n=62 v=0
390144 On ch=2 n=61 v=69
390400 On ch=2 n=61 v=0
390400 On ch=2 n=59 v=69
390656 On ch=2 n=59 v=0
390656 On ch=2 n=61 v=70
390912 On ch=2 n=61 v=0
390912 On ch=2 n=62 v=70
391168 On ch=2 n=62 v=0
391168 On ch=2 n=61 v=71
391424 On ch=2 n=61 v=0
391424 On ch=2 n=62 v=71
391680 On ch=2 n=62 v=0
391680 On ch=2 n=64 v=72
391936 On ch=2 n=64 v=0
391936 On ch=2 n=62 v=72
392192 On ch=2 n=62 v=0
392192 On ch=2 n=64 v=73
392448 On ch=2 n=64 v=0
392448 On ch=2 n=65 v=73
392704 On ch=2 n=65 v=0
392704 On ch=2 n=64 v=74
392960 On ch=2 n=64 v=0
392960 On ch=2 n=65 v=74
393216 On ch=2 n=65 v=0
393216 On ch=2 n=62 v=50
393600 On ch=2 n=62 v=0
393728 On ch=2 n=57 v=50
394112 On ch=2 n=57 v=0
394240 On ch=2 n=58 v=50
395264 On ch=2 n=58 v=0
395264 On ch=2 n=57 v=50
395648 On ch=2 n=57 v=0
395776 On ch=2 n=62 v=50
396800 On ch=2 n=62 v=0
396800 On ch=2 n=57 v=50
397184 On ch=2 n=57 v=0
397312 On ch=2 n=58 v=50
398336 On ch=2 n=58 v=0
398336 On ch=2 n=57 v=50
398720 On ch=2 n=57 v=0
398848 On ch=2 n=62 v=50
399872 On ch=2 n=62 v=0
399872 On ch=2 n=59 v=50
400256 On ch=2 n=59 v=0
400384 On ch=2 n=67 v=50
401408 On ch=2 n=67 v=0
401408 On ch=2 n=61 v=50
401792 On ch=2 n=61 v=0
401920 On ch=2 n=69 v=50
402304 On ch=2 n=69 v=0
402432 On ch=2 n=65 v=50
402816 On ch=2 n=65 v=0
402944 On ch=2 n=62 v=50
403328 On ch=2 n=62 v=0
403456 On ch=2 n=61 v=50
403584 On ch=2 n=61 v=0
403584 On ch=2 n=62 v=50
403712 On ch=2 n=62 v=0
403712 On ch=2 n=61 v=50
403922 On ch=2 n=61 v=0
403968 On ch=2 n=62 v=50
404931 On ch=2 n=62 v=0
404992 On ch=2 n=65 v=64
405376 On ch=2 n=65 v=0
405504 On ch=2 n=70 v=64
406016 On ch=2 n=70 v=0
406016 On ch=2 n=69 v=64
406400 On ch=2 n=69 v=0
406528 On ch=2 n=70 v=64
406912 On ch=2 n=70 v=0
407040 On ch=2 n=62 v=64
407552 On ch=2 n=62 v=0
407552 On ch=2 n=65 v=64
407936 On ch=2 n=65 v=0
408064 On ch=2 n=70 v=64
408448 On ch=2 n=70 v=0
408576 On ch=2 n=70 v=64
409088 On ch=2 n=70 v=0
409088 On ch=2 n=69 v=64
409472 On ch=2 n=69 v=0
409600 On ch=2 n=70 v=64
409984 On ch=2 n=70 v=0
410112 On ch=2 n=62 v=64
410624 On ch=2 n=62 v=0
410624 On ch=2 n=65 v=64
411008 On ch=2 n=65 v=0
411136 On ch=2 n=70 v=64
411520 On ch=2 n=70 v=0
411648 On ch=2 n=72 v=64
412160 On ch=2 n=72 v=0
412160 On ch=2 n=70 v=64
412544 On ch=2 n=70 v=0
412672 On ch=2 n=72 v=64
413056 On ch=2 n=72 v=0
413184 On ch=2 n=65 v=64
413696 On ch=2 n=65 v=0
413696 On ch=2 n=69 v=64
414080 On ch=2 n=69 v=0
414208 On ch=2 n=72 v=64
414592 On ch=2 n=72 v=0
414720 On ch=2 n=74 v=64
415232 On ch=2 n=74 v=0
415232 On ch=2 n=72 v=64
415616 On ch=2 n=72 v=0
415744 On ch=2 n=74 v=64
416128 On ch=2 n=74 v=0
416256 On ch=2 n=70 v=64
417280 On ch=2 n=70 v=0
417280 On ch=2 n=74 v=64
418304 On ch=2 n=74 v=0
418304 On ch=2 n=67 v=64
418688 On ch=2 n=67 v=0
418816 On ch=2 n=70 v=64
419840 On ch=2 n=70 v=0
419840 On ch=2 n=64 v=64
420224 On ch=2 n=64 v=0
420352 On ch=2 n=72 v=64
421376 On ch=2 n=72 v=0
421376 On ch=2 n=65 v=64
421760 On ch=2 n=65 v=0
421888 On ch=2 n=69 v=64
422912 On ch=2 n=69 v=0
422912 On ch=2 n=62 v=64
423296 On ch=2 n=62 v=0
423424 On ch=2 n=70 v=64
424448 On ch=2 n=70 v=0
424448 On ch=2 n=64 v=64
424832 On ch=2 n=64 v=0
424960 On ch=2 n=67 v=64
425984 On ch=2 n=67 v=0
425984 On ch=2 n=60 v=64
426368 On ch=2 n=60 v=0
426496 On ch=2 n=70 v=64
426880 On ch=2 n=70 v=0
427008 On ch=2 n=69 v=64
427520 On ch=2 n=69 v=0
427520 On ch=2 n=67 v=64
427904 On ch=2 n=67 v=0
428032 On ch=2 n=69 v=64
428416 On ch=2 n=69 v=0
428544 On ch=2 n=65 v=64
429056 On ch=2 n=65 v=0
429056 On ch=2 n=69 v=64
429440 On ch=2 n=69 v=0
429568 On ch=2 n=72 v=64
429952 On ch=2 n=72 v=0
430080 On ch=2 n=77 v=64
430464 On ch=2 n=77 v=0
430592 On ch=2 n=70 v=64
430976 On ch=2 n=70 v=0
431104 On ch=2 n=74 v=64
432128 On ch=2 n=74 v=0
432128 On ch=2 n=67 v=64
432512 On ch=2 n=67 v=0
432640 On ch=2 n=75 v=64
433664 On ch=2 n=75 v=0
433664 On ch=2 n=69 v=64
434048 On ch=2 n=69 v=0
434176 On ch=2 n=72 v=64
435200 On ch=2 n=72 v=0
435200 On ch=2 n=65 v=64
435584 On ch=2 n=65 v=0
435712 On ch=2 n=74 v=64
436736 On ch=2 n=74 v=0
436736 On ch=2 n=65 v=64
437120 On ch=2 n=65 v=0
437248 On ch=2 n=70 v=64
438272 On ch=2 n=70 v=0
438272 On ch=2 n=62 v=64
438656 On ch=2 n=62 v=0
438784 On ch=2 n=65 v=64
439808 On ch=2 n=65 v=0
439808 On ch=2 n=58 v=64
440192 On ch=2 n=58 v=0
440320 On ch=2 n=62 v=64
440704 On ch=2 n=62 v=0
440832 On ch=2 n=65 v=64
441216 On ch=2 n=65 v=0
441344 On ch=2 n=62 v=64
441728 On ch=2 n=62 v=0
441856 On ch=2 n=65 v=64
442240 On ch=2 n=65 v=0
442368 On ch=2 n=70 v=64
442752 On ch=2 n=70 v=0
442880 On ch=2 n=65 v=64
443264 On ch=2 n=65 v=0
443392 On ch=2 n=67 v=64
444416 On ch=2 n=67 v=0
444416 On ch=2 n=65 v=64
444800 On ch=2 n=65 v=0
444928 On ch=2 n=70 v=64
445952 On ch=2 n=70 v=0
445952 On ch=2 n=65 v=64
446336 On ch=2 n=65 v=0
446464 On ch=2 n=67 v=64
447488 On ch=2 n=67 v=0
447488 On ch=2 n=65 v=64
447872 On ch=2 n=65 v=0
448000 On ch=2 n=70 v=64
449024 On ch=2 n=70 v=0
449024 On ch=2 n=67 v=64
449408 On ch=2 n=67 v=0
449536 On ch=2 n=75 v=64
450560 On ch=2 n=75 v=0
450560 On ch=2 n=69 v=64
450944 On ch=2 n=69 v=0
451072 On ch=2 n=77 v=64
451584 On ch=2 n=77 v=0
451584 On ch=2 n=74 v=64
451968 On ch=2 n=74 v=0
452096 On ch=2 n=70 v=64
452480 On ch=2 n=70 v=0
452608 On ch=2 n=69 v=64
452992 On ch=2 n=69 v=0
453120 On ch=2 n=70 v=64
454144 On ch=2 n=70 v=0
455424 On ch=2 n=65 v=45
455680 On ch=2 n=65 v=0
455680 On ch=2 n=67 v=45
455936 On ch=2 n=67 v=0
455936 On ch=2 n=69 v=45
456192 On ch=2 n=69 v=0
456192 On ch=2 n=70 v=45
456448 On ch=2 n=70 v=0
456448 On ch=2 n=69 v=45
456704 On ch=2 n=69 v=0
456704 On ch=2 n=70 v=45
457088 On ch=2 n=70 v=0
458496 On ch=2 n=65 v=45
458752 On ch=2 n=65 v=0
458752 On ch=2 n=67 v=45
459008 On ch=2 n=67 v=0
459008 On ch=2 n=69 v=45
459264 On ch=2 n=69 v=0
459264 On ch=2 n=70 v=45
459520 On ch=2 n=70 v=0
459520 On ch=2 n=69 v=45
459776 On ch=2 n=69 v=0
459776 On ch=2 n=70 v=45
460160 On ch=2 n=70 v=0
461568 On ch=2 n=67 v=45
461824 On ch=2 n=67 v=0
461824 On ch=2 n=69 v=45
462080 On ch=2 n=69 v=0
462080 On ch=2 n=70 v=45
462336 On ch=2 n=70 v=0
462336 On ch=2 n=72 v=45
462592 On ch=2 n=72 v=0
462592 On ch=2 n=70 v=45
462848 On ch=2 n=70 v=0
462848 On ch=2 n=72 v=45
463104 On ch=2 n=72 v=0
463104 On ch=2 n=70 v=45
463360 On ch=2 n=70 v=0
463360 On ch=2 n=69 v=45
463616 On ch=2 n=69 v=0
463616 On ch=2 n=67 v=45
463872 On ch=2 n=67 v=0
463872 On ch=2 n=65 v=45
464128 On ch=2 n=65 v=0
464128 On ch=2 n=63 v=45
464384 On ch=2 n=63 v=0
464384 On ch=2 n=65 v=45
464640 On ch=2 n=65 v=0
464640 On ch=2 n=67 v=45
464896 On ch=2 n=67 v=0
464896 On ch=2 n=65 v=45
465152 On ch=2 n=65 v=0
465152 On ch=2 n=63 v=45
465408 On ch=2 n=63 v=0
465408 On ch=2 n=62 v=45
465664 On ch=2 n=62 v=0
465664 On ch=2 n=60 v=45
465920 On ch=2 n=60 v=0
465920 On ch=2 n=62 v=45
466176 On ch=2 n=62 v=0
466176 On ch=2 n=63 v=45
466432 On ch=2 n=63 v=0
466432 On ch=2 n=65 v=45
466688 On ch=2 n=65 v=0
466688 On ch=2 n=62 v=45
466944 On ch=2 n=62 v=0
466944 On ch=2 n=67 v=45
467200 On ch=2 n=67 v=0
467200 On ch=2 n=69 v=45
467456 On ch=2 n=69 v=0
467456 On ch=2 n=70 v=46
467712 On ch=2 n=70 v=0
467712 On ch=2 n=69 v=46
467968 On ch=2 n=69 v=0
467968 On ch=2 n=67 v=47
468224 On ch=2 n=67 v=0
468224 On ch=2 n=65 v=47
468480 On ch=2 n=65 v=0
468480 On ch=2 n=64 v=47
468736 On ch=2 n=64 v=0
468736 On ch=2 n=62 v=48
468992 On ch=2 n=62 v=0
468992 On ch=2 n=60 v=48
469248 On ch=2 n=60 v=0
469248 On ch=2 n=62 v=49
469504 On ch=2 n=62 v=0
469504 On ch=2 n=64 v=49
469760 On ch=2 n=64 v=0
469760 On ch=2 n=60 v=49
470016 On ch=2 n=60 v=0
470016 On ch=2 n=65 v=50
470272 On ch=2 n=65 v=0
470272 On ch=2 n=67 v=50
470528 On ch=2 n=67 v=0
470528 On ch=2 n=69 v=51
470784 On ch=2 n=69 v=0
470784 On ch=2 n=67 v=51
471040 On ch=2 n=67 v=0
471040 On ch=2 n=65 v=51
471296 On ch=2 n=65 v=0
471296 On ch=2 n=64 v=52
471552 On ch=2 n=64 v=0
471552 On ch=2 n=62 v=52
471808 On ch=2 n=62 v=0
471808 On ch=2 n=60 v=53
472064 On ch=2 n=60 v=0
472064 On ch=2 n=58 v=53
472320 On ch=2 n=58 v=0
472320 On ch=2 n=60 v=53
472576 On ch=2 n=60 v=0
472576 On ch=2 n=62 v=54
472832 On ch=2 n=62 v=0
472832 On ch=2 n=58 v=54
473088 On ch=2 n=58 v=0
473088 On ch=2 n=64 v=55
473344 On ch=2 n=64 v=0
473344 On ch=2 n=65 v=55
473600 On ch=2 n=65 v=0
473600 On ch=2 n=67 v=55
473856 On ch=2 n=67 v=0
473856 On ch=2 n=65 v=56
474112 On ch=2 n=65 v=0
474112 On ch=2 n=64 v=56
474368 On ch=2 n=64 v=0
474368 On ch=2 n=62 v=56
474624 On ch=2 n=62 v=0
474624 On ch=2 n=60 v=57
474880 On ch=2 n=60 v=0
474880 On ch=2 n=62 v=57
475136 On ch=2 n=62 v=0
475136 On ch=2 n=64 v=58
475392 On ch=2 n=64 v=0
475392 On ch=2 n=62 v=58
475648 On ch=2 n=62 v=0
475648 On ch=2 n=60 v=58
475904 On ch=2 n=60 v=0
475904 On ch=2 n=58 v=59
476160 On ch=2 n=58 v=0
476160 On ch=2 n=60 v=59
476416 On ch=2 n=60 v=0
476416 On ch=2 n=65 v=60
476672 On ch=2 n=65 v=0
476672 On ch=2 n=64 v=60
476928 On ch=2 n=64 v=0
476928 On ch=2 n=62 v=60
477184 On ch=2 n=62 v=0
477184 On ch=2 n=60 v=61
477440 On ch=2 n=60 v=0
477440 On ch=2 n=58 v=61
477696 On ch=2 n=58 v=0
477696 On ch=2 n=57 v=62
477952 On ch=2 n=57 v=0
477952 On ch=2 n=58 v=62
478208 On ch=2 n=58 v=0
478208 On ch=2 n=60 v=62
478464 On ch=2 n=60 v=0
478464 On ch=2 n=58 v=63
478720 On ch=2 n=58 v=0
478720 On ch=2 n=57 v=63
478976 On ch=2 n=57 v=0
478976 On ch=2 n=55 v=64
479232 On ch=2 n=55 v=0
479232 On ch=2 n=53 v=64
480256 On ch=2 n=53 v=0
480256 On ch=2 n=65 v=64
480640 On ch=2 n=65 v=0
480768 On ch=2 n=57 v=64
481280 On ch=2 n=57 v=0
481280 On ch=2 n=60 v=64
481664 On ch=2 n=60 v=0
481792 On ch=2 n=65 v=64
482176 On ch=2 n=65 v=0
482304 On ch=2 n=65 v=64
482816 On ch=2 n=65 v=0
482816 On ch=2 n=64 v=64
483200 On ch=2 n=64 v=0
483328 On ch=2 n=65 v=64
483712 On ch=2 n=65 v=0
483840 On ch=2 n=57 v=64
484352 On ch=2 n=57 v=0
484352 On ch=2 n=60 v=64
484736 On ch=2 n=60 v=0
484864 On ch=2 n=65 v=64
485248 On ch=2 n=65 v=0
485376 On ch=2 n=67 v=64
485888 On ch=2 n=67 v=0
485888 On ch=2 n=65 v=64
486272 On ch=2 n=65 v=0
486400 On ch=2 n=67 v=64
486784 On ch=2 n=67 v=0
486912 On ch=2 n=60 v=64
487424 On ch=2 n=60 v=0
487424 On ch=2 n=64 v=64
487808 On ch=2 n=64 v=0
487936 On ch=2 n=67 v=64
488320 On ch=2 n=67 v=0
488448 On ch=2 n=69 v=64
488960 On ch=2 n=69 v=0
488960 On ch=2 n=67 v=64
489344 On ch=2 n=67 v=0
489472 On ch=2 n=69 v=64
489856 On ch=2 n=69 v=0
489984 On ch=2 n=65 v=64
490752 On ch=2 n=65 v=0
490752 On ch=2 n=60 v=64
491008 On ch=2 n=60 v=0
491008 On ch=2 n=62 v=64
491264 On ch=2 n=62 v=0
491264 On ch=2 n=64 v=64
491520 On ch=2 n=64 v=0
491520 On ch=2 n=65 v=45
491776 On ch=2 n=65 v=0
491776 On ch=2 n=64 v=45
492032 On ch=2 n=64 v=0
492032 On ch=2 n=65 v=45
492416 On ch=2 n=65 v=0
493824 On ch=2 n=60 v=45
494080 On ch=2 n=60 v=0
494080 On ch=2 n=62 v=45
494336 On ch=2 n=62 v=0
494336 On ch=2 n=64 v=45
494592 On ch=2 n=64 v=0
494592 On ch=2 n=65 v=45
494848 On ch=2 n=65 v=0
494848 On ch=2 n=64 v=45
495104 On ch=2 n=64 v=0
495104 On ch=2 n=65 v=45
495488 On ch=2 n=65 v=0
496896 On ch=2 n=62 v=45
497152 On ch=2 n=62 v=0
497152 On ch=2 n=64 v=45
497408 On ch=2 n=64 v=0
497408 On ch=2 n=65 v=45
497664 On ch=2 n=65 v=0
497664 On ch=2 n=67 v=45
497920 On ch=2 n=67 v=0
497920 On ch=2 n=65 v=45
498176 On ch=2 n=65 v=0
498176 On ch=2 n=67 v=45
498432 On ch=2 n=67 v=0
498432 On ch=2 n=65 v=45
498688 On ch=2 n=65 v=0
498688 On ch=2 n=64 v=45
498944 On ch=2 n=64 v=0
498944 On ch=2 n=62 v=45
499200 On ch=2 n=62 v=0
499200 On ch=2 n=60 v=45
499584 On ch=2 n=60 v=0
499712 On ch=2 n=64 v=45
500096 On ch=2 n=64 v=0
500224 On ch=2 n=67 v=45
500608 On ch=2 n=67 v=0
500736 On ch=2 n=69 v=45
500992 On ch=2 n=69 v=0
500992 On ch=2 n=67 v=45
501248 On ch=2 n=67 v=0
501248 On ch=2 n=69 v=45
501504 On ch=2 n=69 v=0
501504 On ch=2 n=70 v=45
501760 On ch=2 n=70 v=0
501760 On ch=2 n=69 v=45
502016 On ch=2 n=69 v=0
502016 On ch=2 n=67 v=45
502272 On ch=2 n=67 v=0
502272 On ch=2 n=65 v=64
502656 On ch=2 n=65 v=0
502784 On ch=2 n=60 v=64
503168 On ch=2 n=60 v=0
503296 On ch=2 n=69 v=64
504320 On ch=2 n=69 v=0
504320 On ch=2 n=62 v=64
504704 On ch=2 n=62 v=0
504832 On ch=2 n=65 v=64
505856 On ch=2 n=65 v=0
505856 On ch=2 n=59 v=64
506240 On ch=2 n=59 v=0
506368 On ch=2 n=67 v=64
507392 On ch=2 n=67 v=0
507392 On ch=2 n=60 v=64
507776 On ch=2 n=60 v=0
507904 On ch=2 n=64 v=64
508928 On ch=2 n=64 v=0
508928 On ch=2 n=57 v=64
509312 On ch=2 n=57 v=0
509440 On ch=2 n=65 v=64
510464 On ch=2 n=65 v=0
510464 On ch=2 n=59 v=64
510848 On ch=2 n=59 v=0
510976 On ch=2 n=62 v=64
512000 On ch=2 n=62 v=0
512000 On ch=2 n=55 v=64
512384 On ch=2 n=55 v=0
512512 On ch=2 n=65 v=64
512896 On ch=2 n=65 v=0
513024 On ch=2 n=64 v=64
513536 On ch=2 n=64 v=0
513536 On ch=2 n=62 v=64
513920 On ch=2 n=62 v=0
514048 On ch=2 n=64 v=64
514432 On ch=2 n=64 v=0
514560 On ch=2 n=60 v=64
515072 On ch=2 n=60 v=0
515072 On ch=2 n=64 v=64
515456 On ch=2 n=64 v=0
515584 On ch=2 n=67 v=64
515968 On ch=2 n=67 v=0
516096 On ch=2 n=72 v=64
516480 On ch=2 n=72 v=0
516608 On ch=2 n=65 v=64
516992 On ch=2 n=65 v=0
517120 On ch=2 n=69 v=64
518144 On ch=2 n=69 v=0
518144 On ch=2 n=62 v=64
518528 On ch=2 n=62 v=0
518656 On ch=2 n=70 v=64
519680 On ch=2 n=70 v=0
519680 On ch=2 n=64 v=64
520064 On ch=2 n=64 v=0
520192 On ch=2 n=67 v=64
521216 On ch=2 n=67 v=0
521216 On ch=2 n=60 v=64
521600 On ch=2 n=60 v=0
521728 On ch=2 n=69 v=64
522496 On ch=2 n=69 v=0
522496 On ch=2 n=65 v=51
522752 On ch=2 n=65 v=0
522752 On ch=2 n=64 v=51
523008 On ch=2 n=64 v=0
523008 On ch=2 n=62 v=52
523264 On ch=2 n=62 v=0
523264 On ch=2 n=60 v=52
523520 On ch=2 n=60 v=0
523520 On ch=2 n=58 v=53
523776 On ch=2 n=58 v=0
523776 On ch=2 n=57 v=54
524032 On ch=2 n=57 v=0
524032 On ch=2 n=62 v=54
524288 On ch=2 n=62 v=0
524288 On ch=2 n=60 v=55
524544 On ch=2 n=60 v=0
524544 On ch=2 n=58 v=55
524800 On ch=2 n=58 v=0
524800 On ch=2 n=57 v=56
525056 On ch=2 n=57 v=0
525056 On ch=2 n=55 v=56
525312 On ch=2 n=55 v=0
525312 On ch=2 n=53 v=57
525568 On ch=2 n=53 v=0
525568 On ch=2 n=48 v=58
525824 On ch=2 n=48 v=0
525824 On ch=2 n=50 v=58
526080 On ch=2 n=50 v=0
526080 On ch=2 n=52 v=59
526336 On ch=2 n=52 v=0
526336 On ch=2 n=53 v=59
526592 On ch=2 n=53 v=0
526592 On ch=2 n=55 v=60
526848 On ch=2 n=55 v=0
526848 On ch=2 n=57 v=61
527104 On ch=2 n=57 v=0
527104 On ch=2 n=55 v=61
527360 On ch=2 n=55 v=0
527360 On ch=2 n=53 v=62
527616 On ch=2 n=53 v=0
527616 On ch=2 n=55 v=62
527872 On ch=2 n=55 v=0
527872 On ch=2 n=57 v=63
528128 On ch=2 n=57 v=0
528128 On ch=2 n=58 v=63
528384 On ch=2 n=58 v=0
528384 On ch=2 n=60 v=64
528768 On ch=2 n=60 v=0
528896 On ch=2 n=53 v=64
529280 On ch=2 n=53 v=0
529408 On ch=2 n=62 v=64
530432 On ch=2 n=62 v=0
530432 On ch=2 n=60 v=64
530816 On ch=2 n=60 v=0
530944 On ch=2 n=65 v=64
531968 On ch=2 n=65 v=0
531968 On ch=2 n=60 v=64
532352 On ch=2 n=60 v=0
532480 On ch=2 n=62 v=64
533504 On ch=2 n=62 v=0
533504 On ch=2 n=60 v=64
533888 On ch=2 n=60 v=0
534016 On ch=2 n=65 v=64
535040 On ch=2 n=65 v=0
535040 On ch=2 n=62 v=64
535424 On ch=2 n=62 v=0
535552 On ch=2 n=70 v=64
536576 On ch=2 n=70 v=0
536576 On ch=2 n=64 v=64
536960 On ch=2 n=64 v=0
537088 On ch=2 n=72 v=64
537600 On ch=2 n=72 v=0
537600 On ch=2 n=69 v=64
537984 On ch=2 n=69 v=0
538112 On ch=2 n=65 v=64
538496 On ch=2 n=65 v=0
538624 On ch=2 n=64 v=64
538752 On ch=2 n=64 v=0
538752 On ch=2 n=65 v=64
538880 On ch=2 n=65 v=0
538880 On ch=2 n=64 v=64
539072 On ch=2 n=64 v=0
539136 On ch=2 n=65 v=64
540160 On ch=2 n=65 v=0
540160 On ch=2 n=60 v=64
540544 On ch=2 n=60 v=0
540672 On ch=2 n=65 v=64
542720 On ch=2 n=65 v=0
542720 On ch=2 n=59 v=64
543104 On ch=2 n=59 v=0
543232 On ch=2 n=62 v=64
543616 On ch=2 n=62 v=0
543744 On ch=2 n=63 v=55
544000 On ch=2 n=63 v=0
544000 On ch=2 n=65 v=55
544256 On ch=2 n=65 v=0
544256 On ch=2 n=67 v=55
544512 On ch=2 n=67 v=0
544512 On ch=2 n=65 v=55
544768 On ch=2 n=65 v=0
544768 On ch=2 n=63 v=55
545024 On ch=2 n=63 v=0
545024 On ch=2 n=62 v=55
545280 On ch=2 n=62 v=0
545280 On ch=2 n=63 v=55
545536 On ch=2 n=63 v=0
545536 On ch=2 n=62 v=55
545792 On ch=2 n=62 v=0
545792 On ch=2 n=60 v=55
546048 On ch=2 n=60 v=0
546048 On ch=2 n=63 v=55
546304 On ch=2 n=63 v=0
546304 On ch=2 n=62 v=55
546560 On ch=2 n=62 v=0
546560 On ch=2 n=65 v=55
546816 On ch=2 n=65 v=0
546816 On ch=2 n=63 v=64
548864 On ch=2 n=63 v=0
548864 On ch=2 n=57 v=64
549248 On ch=2 n=57 v=0
549376 On ch=2 n=60 v=64
549760 On ch=2 n=60 v=0
549888 On ch=2 n=62 v=55
550144 On ch=2 n=62 v=0
550144 On ch=2 n=63 v=55
550400 On ch=2 n=63 v=0
550400 On ch=2 n=65 v=55
550656 On ch=2 n=65 v=0
550656 On ch=2 n=63 v=55
550912 On ch=2 n=63 v=0
550912 On ch=2 n=62 v=55
551168 On ch=2 n=62 v=0
551168 On ch=2 n=60 v=55
551424 On ch=2 n=60 v=0
551424 On ch=2 n=62 v=55
551808 On ch=2 n=62 v=0
551936 On ch=2 n=58 v=64
552320 On ch=2 n=58 v=0
552448 On ch=2 n=62 v=64
552832 On ch=2 n=62 v=0
552960 On ch=2 n=67 v=64
555008 On ch=2 n=67 v=0
555008 On ch=2 n=60 v=64
555392 On ch=2 n=60 v=0
555520 On ch=2 n=63 v=64
555904 On ch=2 n=63 v=0
556032 On ch=2 n=65 v=64
558080 On ch=2 n=65 v=0
558080 On ch=2 n=58 v=64
558464 On ch=2 n=58 v=0
558592 On ch=2 n=62 v=64
558976 On ch=2 n=62 v=0
559104 On ch=2 n=63 v=64
561152 On ch=2 n=63 v=0
561152 On ch=2 n=57 v=64
561536 On ch=2 n=57 v=0
561664 On ch=2 n=60 v=64
562048 On ch=2 n=60 v=0
562176 On ch=2 n=62 v=64
562432 On ch=2 n=62 v=0
562432 On ch=2 n=60 v=64
562688 On ch=2 n=60 v=0
562688 On ch=2 n=62 v=64
562944 On ch=2 n=62 v=0
562944 On ch=2 n=63 v=64
563200 On ch=2 n=63 v=0
563200 On ch=2 n=65 v=64
563456 On ch=2 n=65 v=0
563456 On ch=2 n=67 v=64
563712 On ch=2 n=67 v=0
563712 On ch=2 n=60 v=64
564096 On ch=2 n=60 v=0
564224 On ch=2 n=53 v=64
564608 On ch=2 n=53 v=0
564736 On ch=2 n=77 v=64
565760 On ch=2 n=77 v=0
565760 On ch=2 n=72 v=64
566144 On ch=2 n=72 v=0
566272 On ch=2 n=74 v=64
566784 On ch=2 n=74 v=0
566784 On ch=2 n=74 v=64
567296 On ch=2 n=74 v=0
567296 On ch=2 n=72 v=64
567680 On ch=2 n=72 v=0
567808 On ch=2 n=77 v=64
568832 On ch=2 n=77 v=0
568832 On ch=2 n=72 v=64
569216 On ch=2 n=72 v=0
569344 On ch=2 n=74 v=64
570368 On ch=2 n=74 v=0
570368 On ch=2 n=72 v=64
570752 On ch=2 n=72 v=0
570880 On ch=2 n=65 v=64
571264 On ch=2 n=65 v=0
571392 On ch=2 n=72 v=55
571648 On ch=2 n=72 v=0
571648 On ch=2 n=74 v=55
571904 On ch=2 n=74 v=0
571904 On ch=2 n=75 v=55
572160 On ch=2 n=75 v=0
572160 On ch=2 n=74 v=55
572416 On ch=2 n=74 v=0
572416 On ch=2 n=72 v=55
572672 On ch=2 n=72 v=0
572672 On ch=2 n=70 v=55
572928 On ch=2 n=70 v=0
572928 On ch=2 n=69 v=55
573184 On ch=2 n=69 v=0
573184 On ch=2 n=70 v=55
573440 On ch=2 n=70 v=0
573440 On ch=2 n=72 v=55
573696 On ch=2 n=72 v=0
573696 On ch=2 n=70 v=55
573952 On ch=2 n=70 v=0
573952 On ch=2 n=69 v=55
574208 On ch=2 n=69 v=0
574208 On ch=2 n=67 v=55
574464 On ch=2 n=67 v=0
574464 On ch=2 n=65 v=55
574720 On ch=2 n=65 v=0
574720 On ch=2 n=67 v=55
574976 On ch=2 n=67 v=0
574976 On ch=2 n=69 v=55
575232 On ch=2 n=69 v=0
575232 On ch=2 n=70 v=55
575488 On ch=2 n=70 v=0
575488 On ch=2 n=72 v=55
575744 On ch=2 n=72 v=0
575744 On ch=2 n=69 v=55
576000 On ch=2 n=69 v=0
576000 On ch=2 n=70 v=55
576384 On ch=2 n=70 v=0
576512 On ch=2 n=58 v=55
576896 On ch=2 n=58 v=0
577024 On ch=2 n=68 v=55
578048 On ch=2 n=68 v=0
578048 On ch=2 n=62 v=64
578432 On ch=2 n=62 v=0
578560 On ch=2 n=65 v=64
579584 On ch=2 n=65 v=0
579584 On ch=2 n=58 v=64
579968 On ch=2 n=58 v=0
580096 On ch=2 n=62 v=64
581120 On ch=2 n=62 v=0
581120 On ch=2 n=65 v=64
581504 On ch=2 n=65 v=0
581632 On ch=2 n=68 v=64
582656 On ch=2 n=68 v=0
582656 On ch=2 n=67 v=64
583040 On ch=2 n=67 v=0
586240 On ch=2 n=69 v=64
587264 On ch=2 n=69 v=0
587264 On ch=2 n=62 v=64
587648 On ch=2 n=62 v=0
587776 On ch=2 n=72 v=64
588800 On ch=2 n=72 v=0
588800 On ch=2 n=70 v=64
589184 On ch=2 n=70 v=0
589824 On ch=2 n=63 v=64
590848 On ch=2 n=63 v=0
590848 On ch=2 n=60 v=68
591232 On ch=2 n=60 v=0
591360 On ch=2 n=65 v=70
592384 On ch=2 n=65 v=0
592384 On ch=2 n=62 v=73
592768 On ch=2 n=62 v=0
592896 On ch=2 n=67 v=75
593664 On ch=2 n=67 v=0
593664 On ch=2 n=65 v=72
593920 On ch=2 n=65 v=0
593920 On ch=2 n=63 v=69
594176 On ch=2 n=63 v=0
594176 On ch=2 n=62 v=67
594432 On ch=2 n=62 v=0
594432 On ch=2 n=60 v=64
594688 On ch=2 n=60 v=0
594688 On ch=2 n=58 v=61
594944 On ch=2 n=58 v=0
594944 On ch=2 n=57 v=58
595200 On ch=2 n=57 v=0
595200 On ch=2 n=55 v=56
595456 On ch=2 n=55 v=0
595456 On ch=2 n=53 v=53
595712 On ch=2 n=53 v=0
595712 On ch=2 n=51 v=50
595968 On ch=2 n=51 v=0
595968 On ch=2 n=50 v=50
596352 On ch=2 n=50 v=0
596736 On ch=2 n=53 v=51
596992 On ch=2 n=53 v=0
596992 On ch=2 n=55 v=51
597248 On ch=2 n=55 v=0
597248 On ch=2 n=57 v=51
597504 On ch=2 n=57 v=0
597504 On ch=2 n=58 v=52
597760 On ch=2 n=58 v=0
597760 On ch=2 n=57 v=52
598016 On ch=2 n=57 v=0
598016 On ch=2 n=58 v=52
598400 On ch=2 n=58 v=0
599808 On ch=2 n=53 v=54
600064 On ch=2 n=53 v=0
600064 On ch=2 n=55 v=55
600320 On ch=2 n=55 v=0
600320 On ch=2 n=57 v=55
600576 On ch=2 n=57 v=0
600576 On ch=2 n=58 v=55
600832 On ch=2 n=58 v=0
600832 On ch=2 n=57 v=56
601088 On ch=2 n=57 v=0
601088 On ch=2 n=58 v=56
601472 On ch=2 n=58 v=0
602880 On ch=2 n=55 v=58
603136 On ch=2 n=55 v=0
603136 On ch=2 n=57 v=58
603392 On ch=2 n=57 v=0
603392 On ch=2 n=58 v=58
603648 On ch=2 n=58 v=0
603648 On ch=2 n=60 v=59
603904 On ch=2 n=60 v=0
603904 On ch=2 n=58 v=59
604160 On ch=2 n=58 v=0
604160 On ch=2 n=60 v=59
604416 On ch=2 n=60 v=0
604416 On ch=2 n=58 v=60
604672 On ch=2 n=58 v=0
604672 On ch=2 n=57 v=60
604928 On ch=2 n=57 v=0
604928 On ch=2 n=55 v=60
605184 On ch=2 n=55 v=0
605184 On ch=2 n=53 v=61
605440 On ch=2 n=53 v=0
605440 On ch=2 n=51 v=61
605696 On ch=2 n=51 v=0
605696 On ch=2 n=53 v=61
605952 On ch=2 n=53 v=0
605952 On ch=2 n=55 v=61
606208 On ch=2 n=55 v=0
606208 On ch=2 n=53 v=62
606464 On ch=2 n=53 v=0
606464 On ch=2 n=51 v=62
606720 On ch=2 n=51 v=0
606720 On ch=2 n=50 v=62
607744 On ch=2 n=50 v=0
607744 On ch=2 n=77 v=63
608640 On ch=2 n=77 v=0
608768 On ch=2 n=70 v=64
609152 On ch=2 n=70 v=0
609280 On ch=2 n=74 v=64
610304 On ch=2 n=74 v=0
610304 On ch=2 n=67 v=64
610688 On ch=2 n=67 v=0
610816 On ch=2 n=75 v=64
611840 On ch=2 n=75 v=0
611840 On ch=2 n=69 v=64
612224 On ch=2 n=69 v=0
612352 On ch=2 n=72 v=64
613376 On ch=2 n=72 v=0
613376 On ch=2 n=65 v=64
613760 On ch=2 n=65 v=0
613888 On ch=2 n=74 v=64
614912 On ch=2 n=74 v=0
614912 On ch=2 n=65 v=64
615296 On ch=2 n=65 v=0
615424 On ch=2 n=70 v=64
616448 On ch=2 n=70 v=0
616448 On ch=2 n=62 v=64
616832 On ch=2 n=62 v=0
616960 On ch=2 n=65 v=64
617984 On ch=2 n=65 v=0
617984 On ch=2 n=58 v=64
618368 On ch=2 n=58 v=0
618496 On ch=2 n=62 v=64
618880 On ch=2 n=62 v=0
619008 On ch=2 n=65 v=64
619392 On ch=2 n=65 v=0
619520 On ch=2 n=62 v=64
619904 On ch=2 n=62 v=0
620032 On ch=2 n=65 v=64
620416 On ch=2 n=65 v=0
620544 On ch=2 n=70 v=55
620928 On ch=2 n=70 v=0
621056 On ch=2 n=65 v=55
621440 On ch=2 n=65 v=0
621568 On ch=2 n=67 v=56
622592 On ch=2 n=67 v=0
622592 On ch=2 n=65 v=57
622848 On ch=2 n=65 v=0
622848 On ch=2 n=63 v=57
623104 On ch=2 n=63 v=0
623104 On ch=2 n=62 v=57
623360 On ch=2 n=62 v=0
623360 On ch=2 n=60 v=57
623616 On ch=2 n=60 v=0
623616 On ch=2 n=62 v=57
623872 On ch=2 n=62 v=0
623872 On ch=2 n=63 v=57
624128 On ch=2 n=63 v=0
624128 On ch=2 n=65 v=58
624384 On ch=2 n=65 v=0
624384 On ch=2 n=63 v=58
624640 On ch=2 n=63 v=0
624640 On ch=2 n=62 v=58
624896 On ch=2 n=62 v=0
624896 On ch=2 n=60 v=58
625152 On ch=2 n=60 v=0
625152 On ch=2 n=58 v=58
625408 On ch=2 n=58 v=0
625408 On ch=2 n=60 v=59
625664 On ch=2 n=60 v=0
625664 On ch=2 n=62 v=59
625920 On ch=2 n=62 v=0
625920 On ch=2 n=60 v=59
626176 On ch=2 n=60 v=0
626176 On ch=2 n=58 v=59
626432 On ch=2 n=58 v=0
626432 On ch=2 n=57 v=59
626688 On ch=2 n=57 v=0
626688 On ch=2 n=55 v=60
626944 On ch=2 n=55 v=0
626944 On ch=2 n=57 v=60
627200 On ch=2 n=57 v=0
627200 On ch=2 n=58 v=60
627456 On ch=2 n=58 v=0
627456 On ch=2 n=62 v=60
627712 On ch=2 n=62 v=0
627712 On ch=2 n=60 v=60
627968 On ch=2 n=60 v=0
627968 On ch=2 n=58 v=60
628224 On ch=2 n=58 v=0
628224 On ch=2 n=57 v=61
628480 On ch=2 n=57 v=0
628480 On ch=2 n=58 v=61
628736 On ch=2 n=58 v=0
628736 On ch=2 n=60 v=61
628992 On ch=2 n=60 v=0
628992 On ch=2 n=63 v=61
629248 On ch=2 n=63 v=0
629248 On ch=2 n=62 v=61
629504 On ch=2 n=62 v=0
629504 On ch=2 n=60 v=62
629760 On ch=2 n=60 v=0
629760 On ch=2 n=58 v=62
630016 On ch=2 n=58 v=0
630016 On ch=2 n=57 v=62
630272 On ch=2 n=57 v=0
630272 On ch=2 n=58 v=62
630528 On ch=2 n=58 v=0
630528 On ch=2 n=62 v=62
630784 On ch=2 n=62 v=0
630784 On ch=2 n=60 v=63
631040 On ch=2 n=60 v=0
631040 On ch=2 n=63 v=63
631296 On ch=2 n=63 v=0
631296 On ch=2 n=62 v=63
631552 On ch=2 n=62 v=0
631552 On ch=2 n=65 v=63
631808 On ch=2 n=65 v=0
631808 On ch=2 n=62 v=63
632064 On ch=2 n=62 v=0
632064 On ch=2 n=58 v=63
632320 On ch=2 n=58 v=0
632320 On ch=2 n=62 v=64
632576 On ch=2 n=62 v=0
632576 On ch=2 n=65 v=64
632832 On ch=2 n=65 v=0
632832 On ch=2 n=70 v=64
633344 On ch=2 n=70 v=0
633344 On ch=2 n=69 v=64
633728 On ch=2 n=69 v=0
633856 On ch=2 n=70 v=64
634240 On ch=2 n=70 v=0
634368 On ch=2 n=62 v=64
634880 On ch=2 n=62 v=0
634880 On ch=2 n=65 v=64
635264 On ch=2 n=65 v=0
635392 On ch=2 n=70 v=64
635776 On ch=2 n=70 v=0
635904 On ch=2 n=70 v=64
636416 On ch=2 n=70 v=0
636416 On ch=2 n=69 v=64
636800 On ch=2 n=69 v=0
636928 On ch=2 n=70 v=64
637312 On ch=2 n=70 v=0
637440 On ch=2 n=62 v=64
637952 On ch=2 n=62 v=0
637952 On ch=2 n=65 v=64
638336 On ch=2 n=65 v=0
638464 On ch=2 n=70 v=64
638848 On ch=2 n=70 v=0
638976 On ch=2 n=72 v=64
639488 On ch=2 n=72 v=0
639488 On ch=2 n=70 v=64
639872 On ch=2 n=70 v=0
640000 On ch=2 n=72 v=64
640384 On ch=2 n=72 v=0
640512 On ch=2 n=65 v=64
641024 On ch=2 n=65 v=0
641024 On ch=2 n=69 v=64
641408 On ch=2 n=69 v=0
641536 On ch=2 n=72 v=64
641920 On ch=2 n=72 v=0
642048 On ch=2 n=74 v=64
642560 On ch=2 n=74 v=0
642560 On ch=2 n=72 v=64
642944 On ch=2 n=72 v=0
643072 On ch=2 n=74 v=64
643456 On ch=2 n=74 v=0
643584 On ch=2 n=70 v=64
644608 On ch=2 n=70 v=0
644608 On ch=2 n=74 v=64
645632 On ch=2 n=74 v=0
645632 On ch=2 n=67 v=64
646016 On ch=2 n=67 v=0
646144 On ch=2 n=70 v=64
647168 On ch=2 n=70 v=0
647168 On ch=2 n=64 v=64
647552 On ch=2 n=64 v=0
647680 On ch=2 n=72 v=64
648704 On ch=2 n=72 v=0
648704 On ch=2 n=65 v=64
649088 On ch=2 n=65 v=0
649216 On ch=2 n=69 v=64
650240 On ch=2 n=69 v=0
650240 On ch=2 n=62 v=64
650624 On ch=2 n=62 v=0
650752 On ch=2 n=70 v=64
651776 On ch=2 n=70 v=0
651776 On ch=2 n=64 v=64
652160 On ch=2 n=64 v=0
652288 On ch=2 n=67 v=64
653312 On ch=2 n=67 v=0
653312 On ch=2 n=60 v=64
653696 On ch=2 n=60 v=0
653824 On ch=2 n=70 v=64
654208 On ch=2 n=70 v=0
654336 On ch=2 n=69 v=64
654848 On ch=2 n=69 v=0
654848 On ch=2 n=67 v=64
655232 On ch=2 n=67 v=0
655360 On ch=2 n=69 v=64
655744 On ch=2 n=69 v=0
655872 On ch=2 n=65 v=64
656384 On ch=2 n=65 v=0
656384 On ch=2 n=69 v=64
656768 On ch=2 n=69 v=0
656896 On ch=2 n=72 v=64
657280 On ch=2 n=72 v=0
657408 On ch=2 n=77 v=64
657792 On ch=2 n=77 v=0
657920 On ch=2 n=70 v=64
658304 On ch=2 n=70 v=0
658432 On ch=2 n=74 v=64
659456 On ch=2 n=74 v=0
659456 On ch=2 n=67 v=64
659840 On ch=2 n=67 v=0
659968 On ch=2 n=75 v=64
660992 On ch=2 n=75 v=0
660992 On ch=2 n=69 v=64
661376 On ch=2 n=69 v=0
661504 On ch=2 n=72 v=64
662528 On ch=2 n=72 v=0
662528 On ch=2 n=65 v=64
662912 On ch=2 n=65 v=0
663040 On ch=2 n=74 v=64
664064 On ch=2 n=74 v=0
664064 On ch=2 n=65 v=64
664448 On ch=2 n=65 v=0
664576 On ch=2 n=70 v=64
665600 On ch=2 n=70 v=0
665600 On ch=2 n=62 v=64
665984 On ch=2 n=62 v=0
666112 On ch=2 n=65 v=64
667136 On ch=2 n=65 v=0
667136 On ch=2 n=58 v=64
667520 On ch=2 n=58 v=0
667648 On ch=2 n=62 v=64
668032 On ch=2 n=62 v=0
668160 On ch=2 n=65 v=64
668544 On ch=2 n=65 v=0
668672 On ch=2 n=62 v=64
669056 On ch=2 n=62 v=0
669184 On ch=2 n=65 v=64
669568 On ch=2 n=65 v=0
669696 On ch=2 n=70 v=64
670080 On ch=2 n=70 v=0
670208 On ch=2 n=65 v=64
670592 On ch=2 n=65 v=0
670720 On ch=2 n=67 v=64
671744 On ch=2 n=67 v=0
671744 On ch=2 n=65 v=64
672128 On ch=2 n=65 v=0
672256 On ch=2 n=70 v=64
673280 On ch=2 n=70 v=0
673280 On ch=2 n=65 v=64
673664 On ch=2 n=65 v=0
673792 On ch=2 n=67 v=64
674816 On ch=2 n=67 v=0
674816 On ch=2 n=65 v=64
675200 On ch=2 n=65 v=0
675328 On ch=2 n=70 v=64
676352 On ch=2 n=70 v=0
676352 On ch=2 n=67 v=64
676736 On ch=2 n=67 v=0
676864 On ch=2 n=75 v=64
677888 On ch=2 n=75 v=0
677888 On ch=2 n=69 v=64
678272 On ch=2 n=69 v=0
678400 On ch=2 n=77 v=64
678912 On ch=2 n=77 v=0
678912 On ch=2 n=74 v=64
679296 On ch=2 n=74 v=0
679424 On ch=2 n=70 v=64
679808 On ch=2 n=70 v=0
679936 On ch=2 n=69 v=64
680064 On ch=2 n=69 v=0
680064 On ch=2 n=67 v=64
680192 On ch=2 n=67 v=0
680192 On ch=2 n=69 v=64
680384 On ch=2 n=69 v=0
680448 On ch=2 n=70 v=64
683520 On ch=2 n=70 v=0
688128 Par ch=2 c=121 v=127
688128 Meta TrkEnd
TrkEnd
MTrk
0 PrCh ch=3 p=41
0 Par ch=3 c=121 v=127
0 Par ch=3 c=91 v=127
0 Par ch=3 c=7 v=100
0 Par ch=3 c=1 v=10
0 Par ch=3 c=10 v=20
0 Meta TrkName "Viola I da gamba"
6144 On ch=3 n=65 v=64
7168 On ch=3 n=65 v=0
7680 On ch=3 n=65 v=64
8704 On ch=3 n=65 v=0
9216 On ch=3 n=67 v=64
10240 On ch=3 n=67 v=0
10752 On ch=3 n=70 v=64
11776 On ch=3 n=70 v=0
12288 On ch=3 n=70 v=64
13312 On ch=3 n=70 v=0
13824 On ch=3 n=69 v=64
14848 On ch=3 n=69 v=0
15360 On ch=3 n=70 v=64
15872 On ch=3 n=70 v=0
15872 On ch=3 n=69 v=64
16256 On ch=3 n=69 v=0
16384 On ch=3 n=70 v=64
16768 On ch=3 n=70 v=0
16896 On ch=3 n=65 v=64
17920 On ch=3 n=65 v=0
17920 On ch=3 n=65 v=64
18304 On ch=3 n=65 v=0
18432 On ch=3 n=67 v=64
19456 On ch=3 n=67 v=0
19968 On ch=3 n=67 v=64
20992 On ch=3 n=67 v=0
21504 On ch=3 n=65 v=64
22528 On ch=3 n=65 v=0
23040 On ch=3 n=65 v=64
24064 On ch=3 n=65 v=0
24576 On ch=3 n=64 v=64
25600 On ch=3 n=64 v=0
25600 On ch=3 n=60 v=64
25984 On ch=3 n=60 v=0
26112 On ch=3 n=60 v=64
27136 On ch=3 n=60 v=0
27136 On ch=3 n=64 v=64
27520 On ch=3 n=64 v=0
27648 On ch=3 n=65 v=64
28160 On ch=3 n=65 v=0
28160 On ch=3 n=64 v=64
28544 On ch=3 n=64 v=0
28672 On ch=3 n=65 v=64
29056 On ch=3 n=65 v=0
29184 On ch=3 n=60 v=64
30208 On ch=3 n=60 v=0
30208 On ch=3 n=65 v=64
30592 On ch=3 n=65 v=0
30720 On ch=3 n=65 v=64
31744 On ch=3 n=65 v=0
32256 On ch=3 n=65 v=64
33280 On ch=3 n=65 v=0
33792 On ch=3 n=63 v=64
34816 On ch=3 n=63 v=0
35328 On ch=3 n=65 v=64
36352 On ch=3 n=65 v=0
36864 On ch=3 n=65 v=64
37376 On ch=3 n=65 v=0
37376 On ch=3 n=62 v=64
37760 On ch=3 n=62 v=0
37888 On ch=3 n=65 v=64
38272 On ch=3 n=65 v=0
38400 On ch=3 n=62 v=64
38912 On ch=3 n=62 v=0
38912 On ch=3 n=58 v=64
39296 On ch=3 n=58 v=0
39424 On ch=3 n=62 v=64
39808 On ch=3 n=62 v=0
39936 On ch=3 n=58 v=64
40448 On ch=3 n=58 v=0
40448 On ch=3 n=62 v=64
40832 On ch=3 n=62 v=0
40960 On ch=3 n=65 v=64
41344 On ch=3 n=65 v=0
41472 On ch=3 n=70 v=64
41856 On ch=3 n=70 v=0
41984 On ch=3 n=65 v=64
42368 On ch=3 n=65 v=0
42496 On ch=3 n=70 v=64
42880 On ch=3 n=70 v=0
43008 On ch=3 n=62 v=64
44032 On ch=3 n=62 v=0
44544 On ch=3 n=63 v=64
45568 On ch=3 n=63 v=0
46080 On ch=3 n=62 v=64
47104 On ch=3 n=62 v=0
47616 On ch=3 n=63 v=64
48640 On ch=3 n=63 v=0
48640 On ch=3 n=62 v=64
49024 On ch=3 n=62 v=0
49152 On ch=3 n=63 v=64
50176 On ch=3 n=63 v=0
50176 On ch=3 n=67 v=64
50560 On ch=3 n=67 v=0
50688 On ch=3 n=65 v=64
51712 On ch=3 n=65 v=0
51712 On ch=3 n=72 v=64
52096 On ch=3 n=72 v=0
52224 On ch=3 n=70 v=64
52608 On ch=3 n=70 v=0
52736 On ch=3 n=65 v=64
53120 On ch=3 n=65 v=0
53248 On ch=3 n=65 v=64
53632 On ch=3 n=65 v=0
53760 On ch=3 n=65 v=64
54784 On ch=3 n=65 v=0
79872 On ch=3 n=60 v=64
80896 On ch=3 n=60 v=0
81408 On ch=3 n=60 v=64
82432 On ch=3 n=60 v=0
82944 On ch=3 n=62 v=64
83968 On ch=3 n=62 v=0
84480 On ch=3 n=65 v=64
85504 On ch=3 n=65 v=0
86016 On ch=3 n=65 v=64
87040 On ch=3 n=65 v=0
87552 On ch=3 n=64 v=64
88576 On ch=3 n=64 v=0
89088 On ch=3 n=65 v=64
89600 On ch=3 n=65 v=0
89600 On ch=3 n=64 v=64
89984 On ch=3 n=64 v=0
90112 On ch=3 n=65 v=64
90496 On ch=3 n=65 v=0
90624 On ch=3 n=60 v=64
91648 On ch=3 n=60 v=0
116736 On ch=3 n=65 v=64
117760 On ch=3 n=65 v=0
118272 On ch=3 n=65 v=64
119296 On ch=3 n=65 v=0
119808 On ch=3 n=65 v=64
120832 On ch=3 n=65 v=0
121344 On ch=3 n=64 v=64
122368 On ch=3 n=64 v=0
122880 On ch=3 n=65 v=64
123904 On ch=3 n=65 v=0
129024 On ch=3 n=57 v=64
130048 On ch=3 n=57 v=0
130560 On ch=3 n=58 v=64
131584 On ch=3 n=58 v=0
134656 On ch=3 n=60 v=64
135168 On ch=3 n=60 v=0
135168 On ch=3 n=62 v=64
136192 On ch=3 n=62 v=0
136192 On ch=3 n=67 v=64
136576 On ch=3 n=67 v=0
136704 On ch=3 n=55 v=64
137728 On ch=3 n=55 v=0
137728 On ch=3 n=67 v=64
138112 On ch=3 n=67 v=0
138240 On ch=3 n=65 v=64
138624 On ch=3 n=65 v=0
138752 On ch=3 n=60 v=64
139136 On ch=3 n=60 v=0
139264 On ch=3 n=60 v=64
139648 On ch=3 n=60 v=0
139776 On ch=3 n=60 v=64
140800 On ch=3 n=60 v=0
145408 On ch=3 n=67 v=64
145792 On ch=3 n=67 v=0
145920 On ch=3 n=63 v=64
146944 On ch=3 n=63 v=0
151552 On ch=3 n=65 v=64
151936 On ch=3 n=65 v=0
152064 On ch=3 n=62 v=64
153088 On ch=3 n=62 v=0
156160 On ch=3 n=60 v=64
156544 On ch=3 n=60 v=0
156672 On ch=3 n=60 v=64
158208 On ch=3 n=60 v=0
159232 On ch=3 n=58 v=64
159616 On ch=3 n=58 v=0
159744 On ch=3 n=58 v=64
161280 On ch=3 n=58 v=0
162304 On ch=3 n=57 v=64
162688 On ch=3 n=57 v=0
162816 On ch=3 n=58 v=64
164352 On ch=3 n=58 v=0
165888 On ch=3 n=69 v=64
166912 On ch=3 n=69 v=0
167424 On ch=3 n=70 v=64
168448 On ch=3 n=70 v=0
168960 On ch=3 n=69 v=64
169984 On ch=3 n=69 v=0
170496 On ch=3 n=65 v=64
171520 On ch=3 n=65 v=0
171520 On ch=3 n=65 v=64
171904 On ch=3 n=65 v=0
172032 On ch=3 n=53 v=64
173056 On ch=3 n=53 v=0
173056 On ch=3 n=65 v=64
173440 On ch=3 n=65 v=0
173568 On ch=3 n=53 v=64
174592 On ch=3 n=53 v=0
174592 On ch=3 n=65 v=64
174976 On ch=3 n=65 v=0
175104 On ch=3 n=53 v=64
176128 On ch=3 n=53 v=0
176128 On ch=3 n=69 v=64
176512 On ch=3 n=69 v=0
176640 On ch=3 n=65 v=64
177664 On ch=3 n=65 v=0
177664 On ch=3 n=65 v=64
178048 On ch=3 n=65 v=0
178176 On ch=3 n=58 v=64
179200 On ch=3 n=58 v=0
179200 On ch=3 n=70 v=64
179584 On ch=3 n=70 v=0
179712 On ch=3 n=58 v=64
180736 On ch=3 n=58 v=0
180736 On ch=3 n=70 v=64
181120 On ch=3 n=70 v=0
181248 On ch=3 n=58 v=64
182272 On ch=3 n=58 v=0
182272 On ch=3 n=70 v=64
182656 On ch=3 n=70 v=0
182784 On ch=3 n=58 v=64
183808 On ch=3 n=58 v=0
184320 On ch=3 n=60 v=64
185344 On ch=3 n=60 v=0
185856 On ch=3 n=60 v=64
186880 On ch=3 n=60 v=0
187392 On ch=3 n=62 v=64
188416 On ch=3 n=62 v=0
188928 On ch=3 n=62 v=64
189952 On ch=3 n=62 v=0
190464 On ch=3 n=65 v=64
191488 On ch=3 n=65 v=0
192000 On ch=3 n=58 v=64
193024 On ch=3 n=58 v=0
193536 On ch=3 n=58 v=64
194560 On ch=3 n=58 v=0
195072 On ch=3 n=65 v=64
196096 On ch=3 n=65 v=0
208896 On ch=3 n=70 v=64
209920 On ch=3 n=70 v=0
210432 On ch=3 n=70 v=64
211456 On ch=3 n=70 v=0
211968 On ch=3 n=70 v=64
212992 On ch=3 n=70 v=0
213504 On ch=3 n=69 v=64
214528 On ch=3 n=69 v=0
215040 On ch=3 n=70 v=64
216064 On ch=3 n=70 v=0
221184 On ch=3 n=62 v=64
222208 On ch=3 n=62 v=0
222720 On ch=3 n=63 v=64
223744 On ch=3 n=63 v=0
224256 On ch=3 n=65 v=64
225280 On ch=3 n=65 v=0
233472 On ch=3 n=65 v=64
234496 On ch=3 n=65 v=0
235008 On ch=3 n=65 v=64
236032 On ch=3 n=65 v=0
236544 On ch=3 n=67 v=64
237568 On ch=3 n=67 v=0
238080 On ch=3 n=70 v=64
239104 On ch=3 n=70 v=0
239616 On ch=3 n=70 v=64
240640 On ch=3 n=70 v=0
241152 On ch=3 n=69 v=64
242176 On ch=3 n=69 v=0
242688 On ch=3 n=70 v=64
243200 On ch=3 n=70 v=0
243200 On ch=3 n=69 v=64
243584 On ch=3 n=69 v=0
243712 On ch=3 n=70 v=64
244096 On ch=3 n=70 v=0
244224 On ch=3 n=65 v=64
245248 On ch=3 n=65 v=0
245248 On ch=3 n=65 v=64
245632 On ch=3 n=65 v=0
245760 On ch=3 n=67 v=64
246784 On ch=3 n=67 v=0
247296 On ch=3 n=67 v=64
248320 On ch=3 n=67 v=0
248832 On ch=3 n=65 v=64
249856 On ch=3 n=65 v=0
250368 On ch=3 n=65 v=64
251392 On ch=3 n=65 v=0
251904 On ch=3 n=64 v=64
252928 On ch=3 n=64 v=0
252928 On ch=3 n=60 v=64
253312 On ch=3 n=60 v=0
253440 On ch=3 n=60 v=64
254464 On ch=3 n=60 v=0
254464 On ch=3 n=64 v=64
254848 On ch=3 n=64 v=0
254976 On ch=3 n=65 v=64
255488 On ch=3 n=65 v=0
255488 On ch=3 n=64 v=64
255872 On ch=3 n=64 v=0
256000 On ch=3 n=65 v=64
256384 On ch=3 n=65 v=0
256512 On ch=3 n=60 v=64
257536 On ch=3 n=60 v=0
257536 On ch=3 n=65 v=64
257920 On ch=3 n=65 v=0
258048 On ch=3 n=65 v=64
259072 On ch=3 n=65 v=0
259584 On ch=3 n=65 v=64
260608 On ch=3 n=65 v=0
261120 On ch=3 n=63 v=64
262144 On ch=3 n=63 v=0
262656 On ch=3 n=65 v=64
263680 On ch=3 n=65 v=0
264192 On ch=3 n=65 v=64
264704 On ch=3 n=65 v=0
264704 On ch=3 n=62 v=64
265088 On ch=3 n=62 v=0
265216 On ch=3 n=65 v=64
265600 On ch=3 n=65 v=0
265728 On ch=3 n=62 v=64
266240 On ch=3 n=62 v=0
266240 On ch=3 n=58 v=64
266624 On ch=3 n=58 v=0
266752 On ch=3 n=62 v=64
267136 On ch=3 n=62 v=0
267264 On ch=3 n=58 v=64
267776 On ch=3 n=58 v=0
267776 On ch=3 n=62 v=64
268160 On ch=3 n=62 v=0
268288 On ch=3 n=65 v=64
268672 On ch=3 n=65 v=0
268800 On ch=3 n=70 v=64
269184 On ch=3 n=70 v=0
269312 On ch=3 n=65 v=64
269696 On ch=3 n=65 v=0
269824 On ch=3 n=70 v=64
270208 On ch=3 n=70 v=0
270336 On ch=3 n=62 v=64
271360 On ch=3 n=62 v=0
271872 On ch=3 n=63 v=64
272896 On ch=3 n=63 v=0
273408 On ch=3 n=62 v=64
274432 On ch=3 n=62 v=0
274944 On ch=3 n=63 v=64
275968 On ch=3 n=63 v=0
275968 On ch=3 n=62 v=64
276352 On ch=3 n=62 v=0
276480 On ch=3 n=63 v=64
277504 On ch=3 n=63 v=0
277504 On ch=3 n=67 v=64
277888 On ch=3 n=67 v=0
278016 On ch=3 n=65 v=64
279040 On ch=3 n=65 v=0
279040 On ch=3 n=72 v=64
279424 On ch=3 n=72 v=0
279552 On ch=3 n=70 v=64
279936 On ch=3 n=70 v=0
280064 On ch=3 n=65 v=64
280448 On ch=3 n=65 v=0
280576 On ch=3 n=65 v=64
280960 On ch=3 n=65 v=0
281088 On ch=3 n=65 v=64
282112 On ch=3 n=65 v=0
319488 On ch=3 n=62 v=70
320512 On ch=3 n=62 v=0
321024 On ch=3 n=62 v=70
322048 On ch=3 n=62 v=0
322560 On ch=3 n=63 v=70
323584 On ch=3 n=63 v=0
324096 On ch=3 n=67 v=70
325120 On ch=3 n=67 v=0
325632 On ch=3 n=67 v=70
326656 On ch=3 n=67 v=0
327168 On ch=3 n=66 v=70
328192 On ch=3 n=66 v=0
328704 On ch=3 n=67 v=70
329216 On ch=3 n=67 v=0
329216 On ch=3 n=66 v=70
329600 On ch=3 n=66 v=0
329728 On ch=3 n=67 v=70
330112 On ch=3 n=67 v=0
330240 On ch=3 n=62 v=70
331264 On ch=3 n=62 v=0
335872 On ch=3 n=69 v=64
336256 On ch=3 n=69 v=0
336384 On ch=3 n=69 v=64
337408 On ch=3 n=69 v=0
342016 On ch=3 n=67 v=64
342400 On ch=3 n=67 v=0
342528 On ch=3 n=67 v=64
343552 On ch=3 n=67 v=0
346624 On ch=3 n=62 v=64
347008 On ch=3 n=62 v=0
347136 On ch=3 n=67 v=64
348672 On ch=3 n=67 v=0
349696 On ch=3 n=60 v=64
350080 On ch=3 n=60 v=0
350208 On ch=3 n=65 v=64
351744 On ch=3 n=65 v=0
352768 On ch=3 n=70 v=64
353152 On ch=3 n=70 v=0
353280 On ch=3 n=64 v=64
354816 On ch=3 n=64 v=0
356352 On ch=3 n=57 v=64
357376 On ch=3 n=57 v=0
357376 On ch=3 n=69 v=64
357760 On ch=3 n=69 v=0
357888 On ch=3 n=57 v=64
358912 On ch=3 n=57 v=0
358912 On ch=3 n=69 v=64
359296 On ch=3 n=69 v=0
359424 On ch=3 n=57 v=64
360448 On ch=3 n=57 v=0
360448 On ch=3 n=69 v=64
360832 On ch=3 n=69 v=0
360960 On ch=3 n=57 v=64
361984 On ch=3 n=57 v=0
361984 On ch=3 n=69 v=64
362368 On ch=3 n=69 v=0
362496 On ch=3 n=57 v=64
363520 On ch=3 n=57 v=0
363520 On ch=3 n=69 v=64
363904 On ch=3 n=69 v=0
364032 On ch=3 n=57 v=64
365056 On ch=3 n=57 v=0
365056 On ch=3 n=69 v=64
365440 On ch=3 n=69 v=0
365568 On ch=3 n=57 v=64
366592 On ch=3 n=57 v=0
366592 On ch=3 n=69 v=64
366976 On ch=3 n=69 v=0
367104 On ch=3 n=57 v=64
368128 On ch=3 n=57 v=0
393216 On ch=3 n=57 v=50
394240 On ch=3 n=57 v=0
394752 On ch=3 n=55 v=50
395776 On ch=3 n=55 v=0
396288 On ch=3 n=53 v=50
397312 On ch=3 n=53 v=0
397824 On ch=3 n=50 v=50
398848 On ch=3 n=50 v=0
399360 On ch=3 n=59 v=50
400384 On ch=3 n=59 v=0
400384 On ch=3 n=59 v=50
400768 On ch=3 n=59 v=0
400896 On ch=3 n=61 v=50
401920 On ch=3 n=61 v=0
401920 On ch=3 n=64 v=50
402304 On ch=3 n=64 v=0
402432 On ch=3 n=62 v=50
402816 On ch=3 n=62 v=0
402944 On ch=3 n=57 v=50
403328 On ch=3 n=57 v=0
403456 On ch=3 n=57 v=50
403840 On ch=3 n=57 v=0
403968 On ch=3 n=57 v=50
404931 On ch=3 n=57 v=0
405504 On ch=3 n=65 v=64
406528 On ch=3 n=65 v=0
407040 On ch=3 n=65 v=64
408064 On ch=3 n=65 v=0
408576 On ch=3 n=67 v=64
409600 On ch=3 n=67 v=0
410112 On ch=3 n=70 v=64
411136 On ch=3 n=70 v=0
411648 On ch=3 n=70 v=64
412672 On ch=3 n=70 v=0
413184 On ch=3 n=69 v=64
414208 On ch=3 n=69 v=0
414720 On ch=3 n=70 v=64
415232 On ch=3 n=70 v=0
415232 On ch=3 n=69 v=64
415616 On ch=3 n=69 v=0
415744 On ch=3 n=70 v=64
416128 On ch=3 n=70 v=0
416256 On ch=3 n=65 v=64
417280 On ch=3 n=65 v=0
417280 On ch=3 n=65 v=64
417664 On ch=3 n=65 v=0
417792 On ch=3 n=67 v=64
418816 On ch=3 n=67 v=0
419328 On ch=3 n=67 v=64
420352 On ch=3 n=67 v=0
420864 On ch=3 n=65 v=64
421888 On ch=3 n=65 v=0
422400 On ch=3 n=65 v=64
423424 On ch=3 n=65 v=0
423936 On ch=3 n=64 v=64
424960 On ch=3 n=64 v=0
424960 On ch=3 n=60 v=64
425344 On ch=3 n=60 v=0
425472 On ch=3 n=60 v=64
426496 On ch=3 n=60 v=0
426496 On ch=3 n=64 v=64
426880 On ch=3 n=64 v=0
427008 On ch=3 n=65 v=64
427520 On ch=3 n=65 v=0
427520 On ch=3 n=64 v=64
427904 On ch=3 n=64 v=0
428032 On ch=3 n=65 v=64
428416 On ch=3 n=65 v=0
428544 On ch=3 n=60 v=64
429568 On ch=3 n=60 v=0
429568 On ch=3 n=65 v=64
429952 On ch=3 n=65 v=0
430080 On ch=3 n=65 v=64
431104 On ch=3 n=65 v=0
431616 On ch=3 n=65 v=64
432640 On ch=3 n=65 v=0
433152 On ch=3 n=63 v=64
434176 On ch=3 n=63 v=0
434688 On ch=3 n=65 v=64
435712 On ch=3 n=65 v=0
436224 On ch=3 n=65 v=64
436736 On ch=3 n=65 v=0
436736 On ch=3 n=62 v=64
437120 On ch=3 n=62 v=0
437248 On ch=3 n=65 v=64
437632 On ch=3 n=65 v=0
437760 On ch=3 n=62 v=64
438272 On ch=3 n=62 v=0
438272 On ch=3 n=58 v=64
438656 On ch=3 n=58 v=0
438784 On ch=3 n=62 v=64
439168 On ch=3 n=62 v=0
439296 On ch=3 n=58 v=64
439808 On ch=3 n=58 v=0
439808 On ch=3 n=62 v=64
440192 On ch=3 n=62 v=0
440320 On ch=3 n=65 v=64
440704 On ch=3 n=65 v=0
440832 On ch=3 n=70 v=64
441216 On ch=3 n=70 v=0
441344 On ch=3 n=65 v=64
441728 On ch=3 n=65 v=0
441856 On ch=3 n=70 v=64
442240 On ch=3 n=70 v=0
442368 On ch=3 n=62 v=64
443392 On ch=3 n=62 v=0
443904 On ch=3 n=63 v=64
444928 On ch=3 n=63 v=0
445440 On ch=3 n=62 v=64
446464 On ch=3 n=62 v=0
446976 On ch=3 n=63 v=64
448000 On ch=3 n=63 v=0
448000 On ch=3 n=62 v=64
448384 On ch=3 n=62 v=0
448512 On ch=3 n=63 v=64
449536 On ch=3 n=63 v=0
449536 On ch=3 n=67 v=64
449920 On ch=3 n=67 v=0
450048 On ch=3 n=65 v=64
451072 On ch=3 n=65 v=0
451072 On ch=3 n=72 v=64
451456 On ch=3 n=72 v=0
451584 On ch=3 n=70 v=64
451968 On ch=3 n=70 v=0
452096 On ch=3 n=65 v=64
452480 On ch=3 n=65 v=0
452608 On ch=3 n=65 v=64
452992 On ch=3 n=65 v=0
453120 On ch=3 n=65 v=64
454144 On ch=3 n=65 v=0
479232 On ch=3 n=60 v=64
480256 On ch=3 n=60 v=0
480768 On ch=3 n=60 v=64
481792 On ch=3 n=60 v=0
482304 On ch=3 n=62 v=64
483328 On ch=3 n=62 v=0
483840 On ch=3 n=65 v=64
484864 On ch=3 n=65 v=0
485376 On ch=3 n=65 v=64
486400 On ch=3 n=65 v=0
486912 On ch=3 n=64 v=64
487936 On ch=3 n=64 v=0
488448 On ch=3 n=65 v=64
488960 On ch=3 n=65 v=0
488960 On ch=3 n=64 v=64
489344 On ch=3 n=64 v=0
489472 On ch=3 n=65 v=64
489856 On ch=3 n=65 v=0
489984 On ch=3 n=60 v=64
491008 On ch=3 n=60 v=0
516096 On ch=3 n=65 v=64
517120 On ch=3 n=65 v=0
517632 On ch=3 n=65 v=64
518656 On ch=3 n=65 v=0
519168 On ch=3 n=65 v=64
520192 On ch=3 n=65 v=0
520704 On ch=3 n=64 v=64
521728 On ch=3 n=64 v=0
522240 On ch=3 n=65 v=64
523264 On ch=3 n=65 v=0
528384 On ch=3 n=57 v=64
529408 On ch=3 n=57 v=0
529920 On ch=3 n=58 v=64
530944 On ch=3 n=58 v=0
534016 On ch=3 n=60 v=64
534528 On ch=3 n=60 v=0
534528 On ch=3 n=62 v=64
535552 On ch=3 n=62 v=0
535552 On ch=3 n=67 v=64
535936 On ch=3 n=67 v=0
536064 On ch=3 n=55 v=64
537088 On ch=3 n=55 v=0
537088 On ch=3 n=67 v=64
537472 On ch=3 n=67 v=0
537600 On ch=3 n=65 v=64
537984 On ch=3 n=65 v=0
538112 On ch=3 n=60 v=64
538496 On ch=3 n=60 v=0
538624 On ch=3 n=60 v=64
539008 On ch=3 n=60 v=0
539136 On ch=3 n=60 v=64
540160 On ch=3 n=60 v=0
544768 On ch=3 n=67 v=64
545152 On ch=3 n=67 v=0
545280 On ch=3 n=63 v=64
546304 On ch=3 n=63 v=0
550912 On ch=3 n=65 v=64
551296 On ch=3 n=65 v=0
551424 On ch=3 n=62 v=64
552448 On ch=3 n=62 v=0
555520 On ch=3 n=60 v=64
555904 On ch=3 n=60 v=0
556032 On ch=3 n=60 v=64
557568 On ch=3 n=60 v=0
558592 On ch=3 n=58 v=64
558976 On ch=3 n=58 v=0
559104 On ch=3 n=58 v=64
560640 On ch=3 n=58 v=0
561664 On ch=3 n=57 v=64
562048 On ch=3 n=57 v=0
562176 On ch=3 n=58 v=64
563712 On ch=3 n=58 v=0
565248 On ch=3 n=69 v=64
566272 On ch=3 n=69 v=0
566784 On ch=3 n=70 v=64
567808 On ch=3 n=70 v=0
568320 On ch=3 n=69 v=64
569344 On ch=3 n=69 v=0
569856 On ch=3 n=65 v=64
570880 On ch=3 n=65 v=0
570880 On ch=3 n=65 v=64
571264 On ch=3 n=65 v=0
571392 On ch=3 n=53 v=64
572416 On ch=3 n=53 v=0
572416 On ch=3 n=65 v=64
572800 On ch=3 n=65 v=0
572928 On ch=3 n=53 v=64
573952 On ch=3 n=53 v=0
573952 On ch=3 n=65 v=64
574336 On ch=3 n=65 v=0
574464 On ch=3 n=53 v=64
575488 On ch=3 n=53 v=0
575488 On ch=3 n=69 v=64
575872 On ch=3 n=69 v=0
576000 On ch=3 n=65 v=64
577024 On ch=3 n=65 v=0
577024 On ch=3 n=65 v=64
577408 On ch=3 n=65 v=0
577536 On ch=3 n=58 v=64
578560 On ch=3 n=58 v=0
578560 On ch=3 n=70 v=64
578944 On ch=3 n=70 v=0
579072 On ch=3 n=58 v=64
580096 On ch=3 n=58 v=0
580096 On ch=3 n=70 v=64
580480 On ch=3 n=70 v=0
580608 On ch=3 n=58 v=64
581632 On ch=3 n=58 v=0
581632 On ch=3 n=70 v=64
582016 On ch=3 n=70 v=0
582144 On ch=3 n=58 v=64
583168 On ch=3 n=58 v=0
583680 On ch=3 n=60 v=64
584704 On ch=3 n=60 v=0
585216 On ch=3 n=60 v=64
586240 On ch=3 n=60 v=0
586752 On ch=3 n=62 v=64
587776 On ch=3 n=62 v=0
588288 On ch=3 n=62 v=64
589312 On ch=3 n=62 v=0
589824 On ch=3 n=65 v=64
590848 On ch=3 n=65 v=0
591360 On ch=3 n=58 v=64
592384 On ch=3 n=58 v=0
592896 On ch=3 n=58 v=64
593920 On ch=3 n=58 v=0
594432 On ch=3 n=65 v=64
595456 On ch=3 n=65 v=0
608256 On ch=3 n=70 v=64
609280 On ch=3 n=70 v=0
609792 On ch=3 n=70 v=64
610816 On ch=3 n=70 v=0
611328 On ch=3 n=70 v=64
612352 On ch=3 n=70 v=0
612864 On ch=3 n=69 v=64
613888 On ch=3 n=69 v=0
614400 On ch=3 n=70 v=64
615424 On ch=3 n=70 v=0
620544 On ch=3 n=62 v=64
621568 On ch=3 n=62 v=0
622080 On ch=3 n=63 v=64
623104 On ch=3 n=63 v=0
623616 On ch=3 n=65 v=64
624640 On ch=3 n=65 v=0
632832 On ch=3 n=65 v=64
633856 On ch=3 n=65 v=0
634368 On ch=3 n=65 v=64
635392 On ch=3 n=65 v=0
635904 On ch=3 n=67 v=64
636928 On ch=3 n=67 v=0
637440 On ch=3 n=70 v=64
638464 On ch=3 n=70 v=0
638976 On ch=3 n=70 v=64
640000 On ch=3 n=70 v=0
640512 On ch=3 n=69 v=64
641536 On ch=3 n=69 v=0
642048 On ch=3 n=70 v=64
642560 On ch=3 n=70 v=0
642560 On ch=3 n=69 v=64
642944 On ch=3 n=69 v=0
643072 On ch=3 n=70 v=64
643456 On ch=3 n=70 v=0
643584 On ch=3 n=65 v=64
644608 On ch=3 n=65 v=0
644608 On ch=3 n=65 v=64
644992 On ch=3 n=65 v=0
645120 On ch=3 n=67 v=64
646144 On ch=3 n=67 v=0
646656 On ch=3 n=67 v=64
647680 On ch=3 n=67 v=0
648192 On ch=3 n=65 v=64
649216 On ch=3 n=65 v=0
649728 On ch=3 n=65 v=64
650752 On ch=3 n=65 v=0
651264 On ch=3 n=64 v=64
652288 On ch=3 n=64 v=0
652288 On ch=3 n=60 v=64
652672 On ch=3 n=60 v=0
652800 On ch=3 n=60 v=64
653824 On ch=3 n=60 v=0
653824 On ch=3 n=64 v=64
654208 On ch=3 n=64 v=0
654336 On ch=3 n=65 v=64
654848 On ch=3 n=65 v=0
654848 On ch=3 n=64 v=64
655232 On ch=3 n=64 v=0
655360 On ch=3 n=65 v=64
655744 On ch=3 n=65 v=0
655872 On ch=3 n=60 v=64
656896 On ch=3 n=60 v=0
656896 On ch=3 n=65 v=64
657280 On ch=3 n=65 v=0
657408 On ch=3 n=65 v=64
658432 On ch=3 n=65 v=0
658944 On ch=3 n=65 v=64
659968 On ch=3 n=65 v=0
660480 On ch=3 n=63 v=64
661504 On ch=3 n=63 v=0
662016 On ch=3 n=65 v=64
663040 On ch=3 n=65 v=0
663552 On ch=3 n=65 v=64
664064 On ch=3 n=65 v=0
664064 On ch=3 n=62 v=64
664448 On ch=3 n=62 v=0
664576 On ch=3 n=65 v=64
664960 On ch=3 n=65 v=0
665088 On ch=3 n=62 v=64
665600 On ch=3 n=62 v=0
665600 On ch=3 n=58 v=64
665984 On ch=3 n=58 v=0
666112 On ch=3 n=62 v=64
666496 On ch=3 n=62 v=0
666624 On ch=3 n=58 v=64
667136 On ch=3 n=58 v=0
667136 On ch=3 n=62 v=64
667520 On ch=3 n=62 v=0
667648 On ch=3 n=65 v=64
668032 On ch=3 n=65 v=0
668160 On ch=3 n=70 v=64
668544 On ch=3 n=70 v=0
668672 On ch=3 n=65 v=64
669056 On ch=3 n=65 v=0
669184 On ch=3 n=70 v=64
669568 On ch=3 n=70 v=0
669696 On ch=3 n=62 v=64
670720 On ch=3 n=62 v=0
671232 On ch=3 n=63 v=64
672256 On ch=3 n=63 v=0
672768 On ch=3 n=62 v=64
673792 On ch=3 n=62 v=0
674304 On ch=3 n=63 v=64
675328 On ch=3 n=63 v=0
675328 On ch=3 n=62 v=64
675712 On ch=3 n=62 v=0
675840 On ch=3 n=63 v=64
676864 On ch=3 n=63 v=0
676864 On ch=3 n=67 v=64
677248 On ch=3 n=67 v=0
677376 On ch=3 n=65 v=64
678400 On ch=3 n=65 v=0
678400 On ch=3 n=72 v=64
678784 On ch=3 n=72 v=0
678912 On ch=3 n=70 v=64
679296 On ch=3 n=70 v=0
679424 On ch=3 n=65 v=64
679808 On ch=3 n=65 v=0
679936 On ch=3 n=65 v=64
680320 On ch=3 n=65 v=0
680448 On ch=3 n=65 v=64
683520 On ch=3 n=65 v=0
688128 Par ch=3 c=121 v=127
688128 Meta TrkEnd
TrkEnd
MTrk
0 PrCh ch=4 p=41
0 Par ch=4 c=121 v=127
0 Par ch=4 c=91 v=127
0 Par ch=4 c=7 v=100
0 Par ch=4 c=1 v=10
0 Par ch=4 c=10 v=110
0 Meta TrkName "Viola II da gamba"
6144 On ch=4 n=62 v=64
7168 On ch=4 n=62 v=0
7680 On ch=4 n=58 v=64
8704 On ch=4 n=58 v=0
9216 On ch=4 n=62 v=64
10240 On ch=4 n=62 v=0
10752 On ch=4 n=65 v=64
11776 On ch=4 n=65 v=0
12288 On ch=4 n=67 v=64
13312 On ch=4 n=67 v=0
13824 On ch=4 n=65 v=64
14848 On ch=4 n=65 v=0
15360 On ch=4 n=65 v=64
15872 On ch=4 n=65 v=0
15872 On ch=4 n=63 v=64
16256 On ch=4 n=63 v=0
16384 On ch=4 n=65 v=64
16768 On ch=4 n=65 v=0
16896 On ch=4 n=62 v=64
17408 On ch=4 n=62 v=0
17408 On ch=4 n=60 v=64
17792 On ch=4 n=60 v=0
17920 On ch=4 n=62 v=64
18304 On ch=4 n=62 v=0
18432 On ch=4 n=55 v=64
19456 On ch=4 n=55 v=0
19968 On ch=4 n=64 v=64
20992 On ch=4 n=64 v=0
21504 On ch=4 n=57 v=64
22528 On ch=4 n=57 v=0
23040 On ch=4 n=62 v=64
24064 On ch=4 n=62 v=0
24576 On ch=4 n=55 v=64
25600 On ch=4 n=55 v=0
25600 On ch=4 n=52 v=64
25984 On ch=4 n=52 v=0
26112 On ch=4 n=57 v=64
27136 On ch=4 n=57 v=0
27136 On ch=4 n=58 v=64
27520 On ch=4 n=58 v=0
27648 On ch=4 n=60 v=64
28160 On ch=4 n=60 v=0
28160 On ch=4 n=58 v=64
28544 On ch=4 n=58 v=0
28672 On ch=4 n=60 v=64
29056 On ch=4 n=60 v=0
29184 On ch=4 n=57 v=64
29696 On ch=4 n=57 v=0
29696 On ch=4 n=55 v=64
30080 On ch=4 n=55 v=0
30208 On ch=4 n=57 v=64
30592 On ch=4 n=57 v=0
30720 On ch=4 n=58 v=64
31744 On ch=4 n=58 v=0
32256 On ch=4 n=58 v=64
33280 On ch=4 n=58 v=0
33792 On ch=4 n=58 v=64
34816 On ch=4 n=58 v=0
35328 On ch=4 n=57 v=64
36352 On ch=4 n=57 v=0
36864 On ch=4 n=58 v=64
37888 On ch=4 n=58 v=0
37888 On ch=4 n=62 v=64
38272 On ch=4 n=62 v=0
38400 On ch=4 n=53 v=64
39424 On ch=4 n=53 v=0
39424 On ch=4 n=58 v=64
39808 On ch=4 n=58 v=0
39936 On ch=4 n=50 v=64
40448 On ch=4 n=50 v=0
40448 On ch=4 n=53 v=64
40832 On ch=4 n=53 v=0
40960 On ch=4 n=58 v=64
41344 On ch=4 n=58 v=0
41472 On ch=4 n=62 v=64
41856 On ch=4 n=62 v=0
41984 On ch=4 n=58 v=64
42368 On ch=4 n=58 v=0
42496 On ch=4 n=62 v=64
42880 On ch=4 n=62 v=0
43008 On ch=4 n=65 v=64
44032 On ch=4 n=65 v=0
44544 On ch=4 n=58 v=64
45568 On ch=4 n=58 v=0
46080 On ch=4 n=53 v=64
47104 On ch=4 n=53 v=0
47616 On ch=4 n=58 v=64
48640 On ch=4 n=58 v=0
48640 On ch=4 n=53 v=64
49024 On ch=4 n=53 v=0
49152 On ch=4 n=55 v=64
50176 On ch=4 n=55 v=0
50176 On ch=4 n=60 v=64
50560 On ch=4 n=60 v=0
50688 On ch=4 n=57 v=64
51712 On ch=4 n=57 v=0
51712 On ch=4 n=53 v=64
52096 On ch=4 n=53 v=0
52224 On ch=4 n=65 v=64
52608 On ch=4 n=65 v=0
52736 On ch=4 n=62 v=64
53120 On ch=4 n=62 v=0
53248 On ch=4 n=60 v=64
53632 On ch=4 n=60 v=0
53760 On ch=4 n=62 v=64
54784 On ch=4 n=62 v=0
79872 On ch=4 n=57 v=64
80896 On ch=4 n=57 v=0
81408 On ch=4 n=53 v=64
82432 On ch=4 n=53 v=0
82944 On ch=4 n=57 v=64
83968 On ch=4 n=57 v=0
84480 On ch=4 n=60 v=64
85504 On ch=4 n=60 v=0
86016 On ch=4 n=62 v=64
87040 On ch=4 n=62 v=0
87552 On ch=4 n=60 v=64
88576 On ch=4 n=60 v=0
89088 On ch=4 n=60 v=64
89600 On ch=4 n=60 v=0
89600 On ch=4 n=58 v=64
89984 On ch=4 n=58 v=0
90112 On ch=4 n=60 v=64
90496 On ch=4 n=60 v=0
90624 On ch=4 n=57 v=64
91648 On ch=4 n=57 v=0
116736 On ch=4 n=60 v=64
117760 On ch=4 n=60 v=0
118272 On ch=4 n=60 v=64
119296 On ch=4 n=60 v=0
119808 On ch=4 n=58 v=64
120832 On ch=4 n=58 v=0
121344 On ch=4 n=60 v=64
122368 On ch=4 n=60 v=0
122880 On ch=4 n=60 v=64
123904 On ch=4 n=60 v=0
129024 On ch=4 n=60 v=64
130048 On ch=4 n=60 v=0
130560 On ch=4 n=53 v=64
131584 On ch=4 n=53 v=0
134656 On ch=4 n=57 v=64
135168 On ch=4 n=57 v=0
135168 On ch=4 n=58 v=64
136192 On ch=4 n=58 v=0
136192 On ch=4 n=62 v=64
136576 On ch=4 n=62 v=0
136704 On ch=4 n=64 v=64
137728 On ch=4 n=64 v=0
137728 On ch=4 n=60 v=64
138112 On ch=4 n=60 v=0
138240 On ch=4 n=60 v=64
138624 On ch=4 n=60 v=0
138752 On ch=4 n=57 v=64
139136 On ch=4 n=57 v=0
139264 On ch=4 n=55 v=64
139648 On ch=4 n=55 v=0
139776 On ch=4 n=57 v=64
140800 On ch=4 n=57 v=0
145408 On ch=4 n=55 v=64
145792 On ch=4 n=55 v=0
145920 On ch=4 n=55 v=64
146944 On ch=4 n=55 v=0
151552 On ch=4 n=53 v=64
151936 On ch=4 n=53 v=0
152064 On ch=4 n=53 v=64
153088 On ch=4 n=53 v=0
156160 On ch=4 n=57 v=64
156544 On ch=4 n=57 v=0
156672 On ch=4 n=53 v=64
158208 On ch=4 n=53 v=0
159232 On ch=4 n=55 v=64
159616 On ch=4 n=55 v=0
159744 On ch=4 n=51 v=64
161280 On ch=4 n=51 v=0
162304 On ch=4 n=53 v=64
162688 On ch=4 n=53 v=0
162816 On ch=4 n=58 v=64
164352 On ch=4 n=58 v=0
165888 On ch=4 n=65 v=64
166912 On ch=4 n=65 v=0
167424 On ch=4 n=65 v=64
168448 On ch=4 n=65 v=0
168960 On ch=4 n=60 v=64
169984 On ch=4 n=60 v=0
170496 On ch=4 n=58 v=64
171520 On ch=4 n=58 v=0
171520 On ch=4 n=57 v=64
171904 On ch=4 n=57 v=0
172032 On ch=4 n=53 v=64
173056 On ch=4 n=53 v=0
173056 On ch=4 n=65 v=64
173440 On ch=4 n=65 v=0
173568 On ch=4 n=53 v=64
174592 On ch=4 n=53 v=0
174592 On ch=4 n=65 v=64
174976 On ch=4 n=65 v=0
175104 On ch=4 n=53 v=64
176128 On ch=4 n=53 v=0
176128 On ch=4 n=65 v=64
176512 On ch=4 n=65 v=0
176640 On ch=4 n=53 v=64
177664 On ch=4 n=53 v=0
177664 On ch=4 n=62 v=64
178048 On ch=4 n=62 v=0
178176 On ch=4 n=58 v=64
179200 On ch=4 n=58 v=0
179200 On ch=4 n=70 v=64
179584 On ch=4 n=70 v=0
179712 On ch=4 n=58 v=64
180736 On ch=4 n=58 v=0
180736 On ch=4 n=70 v=64
181120 On ch=4 n=70 v=0
181248 On ch=4 n=58 v=64
182272 On ch=4 n=58 v=0
182272 On ch=4 n=62 v=64
182656 On ch=4 n=62 v=0
182784 On ch=4 n=58 v=64
183808 On ch=4 n=58 v=0
184320 On ch=4 n=55 v=64
185344 On ch=4 n=55 v=0
185856 On ch=4 n=53 v=64
186880 On ch=4 n=53 v=0
187392 On ch=4 n=57 v=64
188416 On ch=4 n=57 v=0
188928 On ch=4 n=55 v=64
189952 On ch=4 n=55 v=0
190464 On ch=4 n=60 v=64
191488 On ch=4 n=60 v=0
192000 On ch=4 n=58 v=64
193024 On ch=4 n=58 v=0
193536 On ch=4 n=55 v=64
194560 On ch=4 n=55 v=0
195072 On ch=4 n=60 v=64
196096 On ch=4 n=60 v=0
208896 On ch=4 n=65 v=64
209920 On ch=4 n=65 v=0
210432 On ch=4 n=65 v=64
211456 On ch=4 n=65 v=0
211968 On ch=4 n=63 v=64
212992 On ch=4 n=63 v=0
213504 On ch=4 n=65 v=64
214528 On ch=4 n=65 v=0
215040 On ch=4 n=65 v=64
216064 On ch=4 n=65 v=0
221184 On ch=4 n=58 v=64
222208 On ch=4 n=58 v=0
222720 On ch=4 n=58 v=64
223744 On ch=4 n=58 v=0
224256 On ch=4 n=58 v=64
225280 On ch=4 n=58 v=0
233472 On ch=4 n=62 v=64
234496 On ch=4 n=62 v=0
235008 On ch=4 n=58 v=64
236032 On ch=4 n=58 v=0
236544 On ch=4 n=62 v=64
237568 On ch=4 n=62 v=0
238080 On ch=4 n=65 v=64
239104 On ch=4 n=65 v=0
239616 On ch=4 n=67 v=64
240640 On ch=4 n=67 v=0
241152 On ch=4 n=65 v=64
242176 On ch=4 n=65 v=0
242688 On ch=4 n=65 v=64
243200 On ch=4 n=65 v=0
243200 On ch=4 n=63 v=64
243584 On ch=4 n=63 v=0
243712 On ch=4 n=65 v=64
244096 On ch=4 n=65 v=0
244224 On ch=4 n=62 v=64
244736 On ch=4 n=62 v=0
244736 On ch=4 n=60 v=64
245120 On ch=4 n=60 v=0
245248 On ch=4 n=62 v=64
245632 On ch=4 n=62 v=0
245760 On ch=4 n=55 v=64
246784 On ch=4 n=55 v=0
247296 On ch=4 n=64 v=64
248320 On ch=4 n=64 v=0
248832 On ch=4 n=57 v=64
249856 On ch=4 n=57 v=0
250368 On ch=4 n=62 v=64
251392 On ch=4 n=62 v=0
251904 On ch=4 n=55 v=64
252928 On ch=4 n=55 v=0
252928 On ch=4 n=52 v=64
253312 On ch=4 n=52 v=0
253440 On ch=4 n=57 v=64
254464 On ch=4 n=57 v=0
254464 On ch=4 n=58 v=64
254848 On ch=4 n=58 v=0
254976 On ch=4 n=60 v=64
255488 On ch=4 n=60 v=0
255488 On ch=4 n=58 v=64
255872 On ch=4 n=58 v=0
256000 On ch=4 n=60 v=64
256384 On ch=4 n=60 v=0
256512 On ch=4 n=57 v=64
257024 On ch=4 n=57 v=0
257024 On ch=4 n=55 v=64
257408 On ch=4 n=55 v=0
257536 On ch=4 n=57 v=64
257920 On ch=4 n=57 v=0
258048 On ch=4 n=58 v=64
259072 On ch=4 n=58 v=0
259584 On ch=4 n=58 v=64
260608 On ch=4 n=58 v=0
261120 On ch=4 n=58 v=64
262144 On ch=4 n=58 v=0
262656 On ch=4 n=57 v=64
263680 On ch=4 n=57 v=0
264192 On ch=4 n=58 v=64
265216 On ch=4 n=58 v=0
265216 On ch=4 n=62 v=64
265600 On ch=4 n=62 v=0
265728 On ch=4 n=53 v=64
266752 On ch=4 n=53 v=0
266752 On ch=4 n=58 v=64
267136 On ch=4 n=58 v=0
267264 On ch=4 n=50 v=64
267776 On ch=4 n=50 v=0
267776 On ch=4 n=53 v=64
268160 On ch=4 n=53 v=0
268288 On ch=4 n=58 v=64
268672 On ch=4 n=58 v=0
268800 On ch=4 n=62 v=64
269184 On ch=4 n=62 v=0
269312 On ch=4 n=58 v=64
269696 On ch=4 n=58 v=0
269824 On ch=4 n=62 v=64
270208 On ch=4 n=62 v=0
270336 On ch=4 n=65 v=64
271360 On ch=4 n=65 v=0
271872 On ch=4 n=58 v=64
272896 On ch=4 n=58 v=0
273408 On ch=4 n=53 v=64
274432 On ch=4 n=53 v=0
274944 On ch=4 n=58 v=64
275968 On ch=4 n=58 v=0
275968 On ch=4 n=53 v=64
276352 On ch=4 n=53 v=0
276480 On ch=4 n=55 v=64
277504 On ch=4 n=55 v=0
277504 On ch=4 n=60 v=64
277888 On ch=4 n=60 v=0
278016 On ch=4 n=57 v=64
279040 On ch=4 n=57 v=0
279040 On ch=4 n=53 v=64
279424 On ch=4 n=53 v=0
279552 On ch=4 n=65 v=64
279936 On ch=4 n=65 v=0
280064 On ch=4 n=62 v=64
280448 On ch=4 n=62 v=0
280576 On ch=4 n=60 v=64
280960 On ch=4 n=60 v=0
281088 On ch=4 n=62 v=64
282112 On ch=4 n=62 v=0
319488 On ch=4 n=58 v=70
320512 On ch=4 n=58 v=0
321024 On ch=4 n=55 v=70
322048 On ch=4 n=55 v=0
322560 On ch=4 n=58 v=70
323584 On ch=4 n=58 v=0
324096 On ch=4 n=62 v=70
325120 On ch=4 n=62 v=0
325632 On ch=4 n=63 v=70
326656 On ch=4 n=63 v=0
327168 On ch=4 n=62 v=70
328192 On ch=4 n=62 v=0
328704 On ch=4 n=62 v=70
329216 On ch=4 n=62 v=0
329216 On ch=4 n=60 v=70
329600 On ch=4 n=60 v=0
329728 On ch=4 n=62 v=70
330112 On ch=4 n=62 v=0
330240 On ch=4 n=58 v=70
331264 On ch=4 n=58 v=0
335872 On ch=4 n=64 v=64
336256 On ch=4 n=64 v=0
336384 On ch=4 n=62 v=64
337408 On ch=4 n=62 v=0
342016 On ch=4 n=62 v=64
342400 On ch=4 n=62 v=0
342528 On ch=4 n=60 v=64
343552 On ch=4 n=60 v=0
346624 On ch=4 n=58 v=64
347008 On ch=4 n=58 v=0
347136 On ch=4 n=58 v=64
348672 On ch=4 n=58 v=0
349696 On ch=4 n=57 v=64
350080 On ch=4 n=57 v=0
350208 On ch=4 n=57 v=64
351744 On ch=4 n=57 v=0
352768 On ch=4 n=55 v=64
353152 On ch=4 n=55 v=0
353280 On ch=4 n=57 v=64
354816 On ch=4 n=57 v=0
356352 On ch=4 n=57 v=64
357376 On ch=4 n=57 v=0
357376 On ch=4 n=69 v=64
357760 On ch=4 n=69 v=0
357888 On ch=4 n=57 v=64
358912 On ch=4 n=57 v=0
358912 On ch=4 n=69 v=64
359296 On ch=4 n=69 v=0
359424 On ch=4 n=57 v=64
360448 On ch=4 n=57 v=0
360448 On ch=4 n=69 v=64
360832 On ch=4 n=69 v=0
360960 On ch=4 n=57 v=64
361984 On ch=4 n=57 v=0
361984 On ch=4 n=69 v=64
362368 On ch=4 n=69 v=0
362496 On ch=4 n=57 v=64
363520 On ch=4 n=57 v=0
363520 On ch=4 n=69 v=64
363904 On ch=4 n=69 v=0
364032 On ch=4 n=57 v=64
365056 On ch=4 n=57 v=0
365056 On ch=4 n=69 v=64
365440 On ch=4 n=69 v=0
365568 On ch=4 n=57 v=64
366592 On ch=4 n=57 v=0
366592 On ch=4 n=69 v=64
366976 On ch=4 n=69 v=0
367104 On ch=4 n=57 v=64
368128 On ch=4 n=57 v=0
393216 On ch=4 n=53 v=50
394240 On ch=4 n=53 v=0
394752 On ch=4 n=50 v=50
395776 On ch=4 n=50 v=0
396288 On ch=4 n=57 v=50
397312 On ch=4 n=57 v=0
397824 On ch=4 n=55 v=50
398848 On ch=4 n=55 v=0
398848 On ch=4 n=53 v=50
399232 On ch=4 n=53 v=0
399360 On ch=4 n=50 v=50
400384 On ch=4 n=50 v=0
400384 On ch=4 n=52 v=50
400768 On ch=4 n=52 v=0
400896 On ch=4 n=52 v=50
401920 On ch=4 n=52 v=0
401920 On ch=4 n=52 v=50
402304 On ch=4 n=52 v=0
402432 On ch=4 n=57 v=50
402816 On ch=4 n=57 v=0
402944 On ch=4 n=53 v=50
403328 On ch=4 n=53 v=0
403456 On ch=4 n=52 v=50
403840 On ch=4 n=52 v=0
403968 On ch=4 n=53 v=50
404931 On ch=4 n=53 v=0
405504 On ch=4 n=62 v=64
406528 On ch=4 n=62 v=0
407040 On ch=4 n=58 v=64
408064 On ch=4 n=58 v=0
408576 On ch=4 n=62 v=64
409600 On ch=4 n=62 v=0
410112 On ch=4 n=65 v=64
411136 On ch=4 n=65 v=0
411648 On ch=4 n=67 v=64
412672 On ch=4 n=67 v=0
413184 On ch=4 n=65 v=64
414208 On ch=4 n=65 v=0
414720 On ch=4 n=65 v=64
415232 On ch=4 n=65 v=0
415232 On ch=4 n=63 v=64
415616 On ch=4 n=63 v=0
415744 On ch=4 n=65 v=64
416128 On ch=4 n=65 v=0
416256 On ch=4 n=62 v=64
416768 On ch=4 n=62 v=0
416768 On ch=4 n=60 v=64
417152 On ch=4 n=60 v=0
417280 On ch=4 n=62 v=64
417664 On ch=4 n=62 v=0
417792 On ch=4 n=55 v=64
418816 On ch=4 n=55 v=0
419328 On ch=4 n=64 v=64
420352 On ch=4 n=64 v=0
420864 On ch=4 n=57 v=64
421888 On ch=4 n=57 v=0
422400 On ch=4 n=62 v=64
423424 On ch=4 n=62 v=0
423936 On ch=4 n=55 v=64
424960 On ch=4 n=55 v=0
424960 On ch=4 n=52 v=64
425344 On ch=4 n=52 v=0
425472 On ch=4 n=57 v=64
426496 On ch=4 n=57 v=0
426496 On ch=4 n=58 v=64
426880 On ch=4 n=58 v=0
427008 On ch=4 n=60 v=64
427520 On ch=4 n=60 v=0
427520 On ch=4 n=58 v=64
427904 On ch=4 n=58 v=0
428032 On ch=4 n=60 v=64
428416 On ch=4 n=60 v=0
428544 On ch=4 n=57 v=64
429056 On ch=4 n=57 v=0
429056 On ch=4 n=55 v=64
429440 On ch=4 n=55 v=0
429568 On ch=4 n=57 v=64
429952 On ch=4 n=57 v=0
430080 On ch=4 n=58 v=64
431104 On ch=4 n=58 v=0
431616 On ch=4 n=58 v=64
432640 On ch=4 n=58 v=0
433152 On ch=4 n=58 v=64
434176 On ch=4 n=58 v=0
434688 On ch=4 n=57 v=64
435712 On ch=4 n=57 v=0
436224 On ch=4 n=58 v=64
437248 On ch=4 n=58 v=0
437248 On ch=4 n=62 v=64
437632 On ch=4 n=62 v=0
437760 On ch=4 n=53 v=64
438784 On ch=4 n=53 v=0
438784 On ch=4 n=58 v=64
439168 On ch=4 n=58 v=0
439296 On ch=4 n=50 v=64
439808 On ch=4 n=50 v=0
439808 On ch=4 n=53 v=64
440192 On ch=4 n=53 v=0
440320 On ch=4 n=58 v=64
440704 On ch=4 n=58 v=0
440832 On ch=4 n=62 v=64
441216 On ch=4 n=62 v=0
441344 On ch=4 n=58 v=64
441728 On ch=4 n=58 v=0
441856 On ch=4 n=62 v=64
442240 On ch=4 n=62 v=0
442368 On ch=4 n=65 v=64
443392 On ch=4 n=65 v=0
443904 On ch=4 n=58 v=64
444928 On ch=4 n=58 v=0
445440 On ch=4 n=53 v=64
446464 On ch=4 n=53 v=0
446976 On ch=4 n=58 v=64
448000 On ch=4 n=58 v=0
448000 On ch=4 n=53 v=64
448384 On ch=4 n=53 v=0
448512 On ch=4 n=55 v=64
449536 On ch=4 n=55 v=0
449536 On ch=4 n=60 v=64
449920 On ch=4 n=60 v=0
450048 On ch=4 n=57 v=64
451072 On ch=4 n=57 v=0
451072 On ch=4 n=53 v=64
451456 On ch=4 n=53 v=0
451584 On ch=4 n=65 v=64
451968 On ch=4 n=65 v=0
452096 On ch=4 n=62 v=64
452480 On ch=4 n=62 v=0
452608 On ch=4 n=60 v=64
452992 On ch=4 n=60 v=0
453120 On ch=4 n=62 v=64
454144 On ch=4 n=62 v=0
479232 On ch=4 n=57 v=64
480256 On ch=4 n=57 v=0
480768 On ch=4 n=53 v=64
481792 On ch=4 n=53 v=0
482304 On ch=4 n=57 v=64
483328 On ch=4 n=57 v=0
483840 On ch=4 n=60 v=64
484864 On ch=4 n=60 v=0
485376 On ch=4 n=62 v=64
486400 On ch=4 n=62 v=0
486912 On ch=4 n=60 v=64
487936 On ch=4 n=60 v=0
488448 On ch=4 n=60 v=64
488960 On ch=4 n=60 v=0
488960 On ch=4 n=58 v=64
489344 On ch=4 n=58 v=0
489472 On ch=4 n=60 v=64
489856 On ch=4 n=60 v=0
489984 On ch=4 n=57 v=64
491008 On ch=4 n=57 v=0
516096 On ch=4 n=60 v=64
517120 On ch=4 n=60 v=0
517632 On ch=4 n=60 v=64
518656 On ch=4 n=60 v=0
519168 On ch=4 n=58 v=64
520192 On ch=4 n=58 v=0
520704 On ch=4 n=60 v=64
521728 On ch=4 n=60 v=0
522240 On ch=4 n=60 v=64
523264 On ch=4 n=60 v=0
528384 On ch=4 n=60 v=64
529408 On ch=4 n=60 v=0
529920 On ch=4 n=53 v=64
530944 On ch=4 n=53 v=0
534016 On ch=4 n=57 v=64
534528 On ch=4 n=57 v=0
534528 On ch=4 n=58 v=64
535552 On ch=4 n=58 v=0
535552 On ch=4 n=62 v=64
535936 On ch=4 n=62 v=0
536064 On ch=4 n=64 v=64
537088 On ch=4 n=64 v=0
537088 On ch=4 n=60 v=64
537472 On ch=4 n=60 v=0
537600 On ch=4 n=60 v=64
537984 On ch=4 n=60 v=0
538112 On ch=4 n=57 v=64
538496 On ch=4 n=57 v=0
538624 On ch=4 n=55 v=64
539008 On ch=4 n=55 v=0
539136 On ch=4 n=57 v=64
540160 On ch=4 n=57 v=0
544768 On ch=4 n=55 v=64
545152 On ch=4 n=55 v=0
545280 On ch=4 n=55 v=64
546304 On ch=4 n=55 v=0
550912 On ch=4 n=53 v=64
551296 On ch=4 n=53 v=0
551424 On ch=4 n=53 v=64
552448 On ch=4 n=53 v=0
555520 On ch=4 n=57 v=64
555904 On ch=4 n=57 v=0
556032 On ch=4 n=53 v=64
557568 On ch=4 n=53 v=0
558592 On ch=4 n=55 v=64
558976 On ch=4 n=55 v=0
559104 On ch=4 n=51 v=64
560640 On ch=4 n=51 v=0
561664 On ch=4 n=53 v=64
562048 On ch=4 n=53 v=0
562176 On ch=4 n=58 v=64
563712 On ch=4 n=58 v=0
565248 On ch=4 n=65 v=64
566272 On ch=4 n=65 v=0
566784 On ch=4 n=65 v=64
567808 On ch=4 n=65 v=0
568320 On ch=4 n=60 v=64
569344 On ch=4 n=60 v=0
569856 On ch=4 n=58 v=64
570880 On ch=4 n=58 v=0
570880 On ch=4 n=57 v=64
571264 On ch=4 n=57 v=0
571392 On ch=4 n=53 v=64
572416 On ch=4 n=53 v=0
572416 On ch=4 n=65 v=64
572800 On ch=4 n=65 v=0
572928 On ch=4 n=53 v=64
573952 On ch=4 n=53 v=0
573952 On ch=4 n=65 v=64
574336 On ch=4 n=65 v=0
574464 On ch=4 n=53 v=64
575488 On ch=4 n=53 v=0
575488 On ch=4 n=65 v=64
575872 On ch=4 n=65 v=0
576000 On ch=4 n=53 v=64
577024 On ch=4 n=53 v=0
577024 On ch=4 n=62 v=64
577408 On ch=4 n=62 v=0
577536 On ch=4 n=58 v=64
578560 On ch=4 n=58 v=0
578560 On ch=4 n=70 v=64
578944 On ch=4 n=70 v=0
579072 On ch=4 n=58 v=64
580096 On ch=4 n=58 v=0
580096 On ch=4 n=70 v=64
580480 On ch=4 n=70 v=0
580608 On ch=4 n=58 v=64
581632 On ch=4 n=58 v=0
581632 On ch=4 n=62 v=64
582016 On ch=4 n=62 v=0
582144 On ch=4 n=58 v=64
583168 On ch=4 n=58 v=0
583680 On ch=4 n=55 v=64
584704 On ch=4 n=55 v=0
585216 On ch=4 n=53 v=64
586240 On ch=4 n=53 v=0
586752 On ch=4 n=57 v=64
587776 On ch=4 n=57 v=0
588288 On ch=4 n=55 v=64
589312 On ch=4 n=55 v=0
589824 On ch=4 n=60 v=64
590848 On ch=4 n=60 v=0
591360 On ch=4 n=58 v=64
592384 On ch=4 n=58 v=0
592896 On ch=4 n=55 v=64
593920 On ch=4 n=55 v=0
594432 On ch=4 n=60 v=64
595456 On ch=4 n=60 v=0
608256 On ch=4 n=65 v=64
609280 On ch=4 n=65 v=0
609792 On ch=4 n=65 v=64
610816 On ch=4 n=65 v=0
611328 On ch=4 n=63 v=64
612352 On ch=4 n=63 v=0
612864 On ch=4 n=65 v=64
613888 On ch=4 n=65 v=0
614400 On ch=4 n=65 v=64
615424 On ch=4 n=65 v=0
620544 On ch=4 n=58 v=64
621568 On ch=4 n=58 v=0
622080 On ch=4 n=58 v=64
623104 On ch=4 n=58 v=0
623616 On ch=4 n=58 v=64
624640 On ch=4 n=58 v=0
632832 On ch=4 n=62 v=64
633856 On ch=4 n=62 v=0
634368 On ch=4 n=58 v=64
635392 On ch=4 n=58 v=0
635904 On ch=4 n=62 v=64
636928 On ch=4 n=62 v=0
637440 On ch=4 n=65 v=64
638464 On ch=4 n=65 v=0
638976 On ch=4 n=67 v=64
640000 On ch=4 n=67 v=0
640512 On ch=4 n=65 v=64
641536 On ch=4 n=65 v=0
642048 On ch=4 n=65 v=64
642560 On ch=4 n=65 v=0
642560 On ch=4 n=63 v=64
642944 On ch=4 n=63 v=0
643072 On ch=4 n=65 v=64
643456 On ch=4 n=65 v=0
643584 On ch=4 n=62 v=64
644096 On ch=4 n=62 v=0
644096 On ch=4 n=60 v=64
644480 On ch=4 n=60 v=0
644608 On ch=4 n=62 v=64
644992 On ch=4 n=62 v=0
645120 On ch=4 n=55 v=64
646144 On ch=4 n=55 v=0
646656 On ch=4 n=64 v=64
647680 On ch=4 n=64 v=0
648192 On ch=4 n=57 v=64
649216 On ch=4 n=57 v=0
649728 On ch=4 n=62 v=64
650752 On ch=4 n=62 v=0
651264 On ch=4 n=55 v=64
652288 On ch=4 n=55 v=0
652288 On ch=4 n=52 v=64
652672 On ch=4 n=52 v=0
652800 On ch=4 n=57 v=64
653824 On ch=4 n=57 v=0
653824 On ch=4 n=58 v=64
654208 On ch=4 n=58 v=0
654336 On ch=4 n=60 v=64
654848 On ch=4 n=60 v=0
654848 On ch=4 n=58 v=64
655232 On ch=4 n=58 v=0
655360 On ch=4 n=60 v=64
655744 On ch=4 n=60 v=0
655872 On ch=4 n=57 v=64
656384 On ch=4 n=57 v=0
656384 On ch=4 n=55 v=64
656768 On ch=4 n=55 v=0
656896 On ch=4 n=57 v=64
657280 On ch=4 n=57 v=0
657408 On ch=4 n=58 v=64
658432 On ch=4 n=58 v=0
658944 On ch=4 n=58 v=64
659968 On ch=4 n=58 v=0
660480 On ch=4 n=58 v=64
661504 On ch=4 n=58 v=0
662016 On ch=4 n=57 v=64
663040 On ch=4 n=57 v=0
663552 On ch=4 n=58 v=64
664576 On ch=4 n=58 v=0
664576 On ch=4 n=62 v=64
664960 On ch=4 n=62 v=0
665088 On ch=4 n=53 v=64
666112 On ch=4 n=53 v=0
666112 On ch=4 n=58 v=64
666496 On ch=4 n=58 v=0
666624 On ch=4 n=50 v=64
667136 On ch=4 n=50 v=0
667136 On ch=4 n=53 v=64
667520 On ch=4 n=53 v=0
667648 On ch=4 n=58 v=64
668032 On ch=4 n=58 v=0
668160 On ch=4 n=62 v=64
668544 On ch=4 n=62 v=0
668672 On ch=4 n=58 v=64
669056 On ch=4 n=58 v=0
669184 On ch=4 n=62 v=64
669568 On ch=4 n=62 v=0
669696 On ch=4 n=65 v=64
670720 On ch=4 n=65 v=0
671232 On ch=4 n=58 v=64
672256 On ch=4 n=58 v=0
672768 On ch=4 n=53 v=64
673792 On ch=4 n=53 v=0
674304 On ch=4 n=58 v=64
675328 On ch=4 n=58 v=0
675328 On ch=4 n=53 v=64
675712 On ch=4 n=53 v=0
675840 On ch=4 n=55 v=64
676864 On ch=4 n=55 v=0
676864 On ch=4 n=60 v=64
677248 On ch=4 n=60 v=0
677376 On ch=4 n=57 v=64
678400 On ch=4 n=57 v=0
678400 On ch=4 n=53 v=64
678784 On ch=4 n=53 v=0
678912 On ch=4 n=65 v=64
679296 On ch=4 n=65 v=0
679424 On ch=4 n=62 v=64
679808 On ch=4 n=62 v=0
679936 On ch=4 n=60 v=64
680320 On ch=4 n=60 v=0
680448 On ch=4 n=62 v=64
683520 On ch=4 n=62 v=0
688128 Par ch=4 c=121 v=127
688128 Meta TrkEnd
TrkEnd
MTrk
0 PrCh ch=5 p=42
0 Par ch=5 c=121 v=127
0 Par ch=5 c=91 v=127
0 Par ch=5 c=1 v=10
0 Par ch=5 c=10 v=50
0 Meta TrkName "Violoncello"
6144 On ch=5 n=58 v=64
7168 On ch=5 n=58 v=0
7680 On ch=5 n=57 v=64
8704 On ch=5 n=57 v=0
9216 On ch=5 n=55 v=64
10240 On ch=5 n=55 v=0
10752 On ch=5 n=53 v=64
11776 On ch=5 n=53 v=0
12288 On ch=5 n=51 v=64
13312 On ch=5 n=51 v=0
13824 On ch=5 n=53 v=64
14848 On ch=5 n=53 v=0
15360 On ch=5 n=46 v=64
16384 On ch=5 n=46 v=0
16384 On ch=5 n=53 v=64
16768 On ch=5 n=53 v=0
16896 On ch=5 n=58 v=64
17408 On ch=5 n=58 v=0
17408 On ch=5 n=57 v=64
17792 On ch=5 n=57 v=0
17920 On ch=5 n=58 v=64
18304 On ch=5 n=58 v=0
18432 On ch=5 n=52 v=64
19456 On ch=5 n=52 v=0
19968 On ch=5 n=48 v=64
20992 On ch=5 n=48 v=0
21504 On ch=5 n=50 v=64
22528 On ch=5 n=50 v=0
23040 On ch=5 n=46 v=64
24064 On ch=5 n=46 v=0
24576 On ch=5 n=48 v=64
25600 On ch=5 n=48 v=0
25600 On ch=5 n=46 v=64
25984 On ch=5 n=46 v=0
26112 On ch=5 n=45 v=64
27136 On ch=5 n=45 v=0
27136 On ch=5 n=43 v=64
27520 On ch=5 n=43 v=0
27648 On ch=5 n=41 v=64
28672 On ch=5 n=41 v=0
28672 On ch=5 n=48 v=64
29056 On ch=5 n=48 v=0
29184 On ch=5 n=53 v=64
29696 On ch=5 n=53 v=0
29696 On ch=5 n=51 v=64
30080 On ch=5 n=51 v=0
30208 On ch=5 n=53 v=64
30592 On ch=5 n=53 v=0
30720 On ch=5 n=50 v=64
31744 On ch=5 n=50 v=0
32256 On ch=5 n=55 v=64
33280 On ch=5 n=55 v=0
33792 On ch=5 n=48 v=64
34816 On ch=5 n=48 v=0
35328 On ch=5 n=53 v=64
36352 On ch=5 n=53 v=0
36864 On ch=5 n=46 v=64
37888 On ch=5 n=46 v=0
37888 On ch=5 n=58 v=64
38272 On ch=5 n=58 v=0
38400 On ch=5 n=46 v=64
39424 On ch=5 n=46 v=0
39424 On ch=5 n=58 v=64
39808 On ch=5 n=58 v=0
39936 On ch=5 n=46 v=64
40960 On ch=5 n=46 v=0
40960 On ch=5 n=58 v=64
41344 On ch=5 n=58 v=0
41472 On ch=5 n=46 v=64
42496 On ch=5 n=46 v=0
42496 On ch=5 n=58 v=64
42880 On ch=5 n=58 v=0
43008 On ch=5 n=46 v=64
44032 On ch=5 n=46 v=0
44544 On ch=5 n=58 v=64
45568 On ch=5 n=58 v=0
46080 On ch=5 n=46 v=64
47104 On ch=5 n=46 v=0
47616 On ch=5 n=58 v=64
48640 On ch=5 n=58 v=0
48640 On ch=5 n=46 v=64
49024 On ch=5 n=46 v=0
49152 On ch=5 n=51 v=64
50176 On ch=5 n=51 v=0
50176 On ch=5 n=48 v=64
50560 On ch=5 n=48 v=0
50688 On ch=5 n=53 v=64
51712 On ch=5 n=53 v=0
51712 On ch=5 n=45 v=64
52096 On ch=5 n=45 v=0
52224 On ch=5 n=46 v=64
52608 On ch=5 n=46 v=0
52736 On ch=5 n=50 v=64
53120 On ch=5 n=50 v=0
53248 On ch=5 n=53 v=64
53632 On ch=5 n=53 v=0
53760 On ch=5 n=58 v=64
54144 On ch=5 n=58 v=0
54272 On ch=5 n=50 v=64
54656 On ch=5 n=50 v=0
54784 On ch=5 n=53 v=64
55168 On ch=5 n=53 v=0
55296 On ch=5 n=46 v=64
55808 On ch=5 n=46 v=0
55808 On ch=5 n=50 v=64
56192 On ch=5 n=50 v=0
56320 On ch=5 n=53 v=64
56704 On ch=5 n=53 v=0
56832 On ch=5 n=45 v=64
57344 On ch=5 n=45 v=0
57344 On ch=5 n=50 v=64
57728 On ch=5 n=50 v=0
57856 On ch=5 n=53 v=64
58240 On ch=5 n=53 v=0
58368 On ch=5 n=43 v=64
58880 On ch=5 n=43 v=0
58880 On ch=5 n=46 v=64
59264 On ch=5 n=46 v=0
59392 On ch=5 n=50 v=64
59776 On ch=5 n=50 v=0
59904 On ch=5 n=41 v=64
60416 On ch=5 n=41 v=0
60416 On ch=5 n=46 v=64
60800 On ch=5 n=46 v=0
60928 On ch=5 n=50 v=64
61312 On ch=5 n=50 v=0
61440 On ch=5 n=39 v=64
61952 On ch=5 n=39 v=0
61952 On ch=5 n=43 v=64
62336 On ch=5 n=43 v=0
62464 On ch=5 n=48 v=64
62848 On ch=5 n=48 v=0
62976 On ch=5 n=45 v=64
63488 On ch=5 n=45 v=0
63488 On ch=5 n=48 v=64
63872 On ch=5 n=48 v=0
64000 On ch=5 n=41 v=64
64384 On ch=5 n=41 v=0
64512 On ch=5 n=46 v=64
65024 On ch=5 n=46 v=0
65024 On ch=5 n=50 v=64
65408 On ch=5 n=50 v=0
65536 On ch=5 n=53 v=64
65920 On ch=5 n=53 v=0
66048 On ch=5 n=58 v=64
66560 On ch=5 n=58 v=0
66560 On ch=5 n=57 v=64
66944 On ch=5 n=57 v=0
67072 On ch=5 n=58 v=64
67456 On ch=5 n=58 v=0
67584 On ch=5 n=52 v=64
67968 On ch=5 n=52 v=0
68096 On ch=5 n=55 v=64
68480 On ch=5 n=55 v=0
68608 On ch=5 n=52 v=64
68992 On ch=5 n=52 v=0
69120 On ch=5 n=48 v=64
69504 On ch=5 n=48 v=0
69632 On ch=5 n=57 v=64
70016 On ch=5 n=57 v=0
70144 On ch=5 n=48 v=64
70528 On ch=5 n=48 v=0
70656 On ch=5 n=50 v=64
71040 On ch=5 n=50 v=0
71168 On ch=5 n=53 v=64
71552 On ch=5 n=53 v=0
71680 On ch=5 n=50 v=64
72064 On ch=5 n=50 v=0
72192 On ch=5 n=46 v=64
72576 On ch=5 n=46 v=0
72704 On ch=5 n=55 v=64
73088 On ch=5 n=55 v=0
73216 On ch=5 n=46 v=64
73600 On ch=5 n=46 v=0
73728 On ch=5 n=48 v=64
74752 On ch=5 n=48 v=0
74752 On ch=5 n=46 v=64
75264 On ch=5 n=46 v=0
75264 On ch=5 n=45 v=64
76288 On ch=5 n=45 v=0
76288 On ch=5 n=43 v=64
76800 On ch=5 n=43 v=0
76800 On ch=5 n=41 v=64
77824 On ch=5 n=41 v=0
79872 On ch=5 n=53 v=64
80896 On ch=5 n=53 v=0
81408 On ch=5 n=52 v=64
82432 On ch=5 n=52 v=0
82944 On ch=5 n=50 v=64
83968 On ch=5 n=50 v=0
84480 On ch=5 n=48 v=64
85504 On ch=5 n=48 v=0
86016 On ch=5 n=46 v=64
87040 On ch=5 n=46 v=0
87552 On ch=5 n=48 v=64
88576 On ch=5 n=48 v=0
89088 On ch=5 n=41 v=64
91008 On ch=5 n=41 v=0
91136 On ch=5 n=45 v=64
91520 On ch=5 n=45 v=0
91648 On ch=5 n=48 v=64
92032 On ch=5 n=48 v=0
92160 On ch=5 n=53 v=64
92672 On ch=5 n=53 v=0
92672 On ch=5 n=57 v=64
93056 On ch=5 n=57 v=0
93184 On ch=5 n=60 v=64
93568 On ch=5 n=60 v=0
93696 On ch=5 n=52 v=64
94208 On ch=5 n=52 v=0
94208 On ch=5 n=57 v=64
94592 On ch=5 n=57 v=0
94720 On ch=5 n=60 v=64
95104 On ch=5 n=60 v=0
95232 On ch=5 n=50 v=64
95744 On ch=5 n=50 v=0
95744 On ch=5 n=53 v=64
96128 On ch=5 n=53 v=0
96256 On ch=5 n=57 v=64
96640 On ch=5 n=57 v=0
96768 On ch=5 n=48 v=64
97280 On ch=5 n=48 v=0
97280 On ch=5 n=53 v=64
97664 On ch=5 n=53 v=0
97792 On ch=5 n=57 v=64
98176 On ch=5 n=57 v=0
98304 On ch=5 n=46 v=64
98816 On ch=5 n=46 v=0
98816 On ch=5 n=50 v=64
99200 On ch=5 n=50 v=0
99328 On ch=5 n=55 v=64
99712 On ch=5 n=55 v=0
99840 On ch=5 n=52 v=64
100352 On ch=5 n=52 v=0
100352 On ch=5 n=55 v=64
100736 On ch=5 n=55 v=0
100864 On ch=5 n=48 v=64
101248 On ch=5 n=48 v=0
101376 On ch=5 n=41 v=64
101888 On ch=5 n=41 v=0
101888 On ch=5 n=45 v=64
102272 On ch=5 n=45 v=0
102400 On ch=5 n=48 v=64
102784 On ch=5 n=48 v=0
102912 On ch=5 n=53 v=64
103424 On ch=5 n=53 v=0
103424 On ch=5 n=52 v=64
103808 On ch=5 n=52 v=0
103936 On ch=5 n=53 v=64
104320 On ch=5 n=53 v=0
104448 On ch=5 n=47 v=64
104832 On ch=5 n=47 v=0
104960 On ch=5 n=50 v=64
105344 On ch=5 n=50 v=0
105472 On ch=5 n=47 v=64
105856 On ch=5 n=47 v=0
105984 On ch=5 n=43 v=64
106368 On ch=5 n=43 v=0
106496 On ch=5 n=52 v=64
106880 On ch=5 n=52 v=0
107008 On ch=5 n=43 v=64
107392 On ch=5 n=43 v=0
107520 On ch=5 n=45 v=64
107904 On ch=5 n=45 v=0
108032 On ch=5 n=48 v=64
108416 On ch=5 n=48 v=0
108544 On ch=5 n=45 v=64
108928 On ch=5 n=45 v=0
109056 On ch=5 n=41 v=64
109440 On ch=5 n=41 v=0
109568 On ch=5 n=50 v=64
109952 On ch=5 n=50 v=0
110080 On ch=5 n=41 v=64
110464 On ch=5 n=41 v=0
110592 On ch=5 n=43 v=64
111616 On ch=5 n=43 v=0
111616 On ch=5 n=41 v=64
112128 On ch=5 n=41 v=0
112128 On ch=5 n=40 v=64
113152 On ch=5 n=40 v=0
113152 On ch=5 n=38 v=64
113664 On ch=5 n=38 v=0
113664 On ch=5 n=36 v=64
114688 On ch=5 n=36 v=0
116736 On ch=5 n=45 v=64
117760 On ch=5 n=45 v=0
118272 On ch=5 n=50 v=64
119296 On ch=5 n=50 v=0
119808 On ch=5 n=43 v=64
120832 On ch=5 n=43 v=0
121344 On ch=5 n=48 v=64
122368 On ch=5 n=48 v=0
122880 On ch=5 n=41 v=64
123904 On ch=5 n=41 v=0
123904 On ch=5 n=53 v=64
124288 On ch=5 n=53 v=0
124416 On ch=5 n=41 v=64
125440 On ch=5 n=41 v=0
125440 On ch=5 n=53 v=64
125824 On ch=5 n=53 v=0
125952 On ch=5 n=41 v=64
126976 On ch=5 n=41 v=0
126976 On ch=5 n=53 v=64
127360 On ch=5 n=53 v=0
127488 On ch=5 n=41 v=64
128512 On ch=5 n=41 v=0
128512 On ch=5 n=53 v=64
128896 On ch=5 n=53 v=0
129024 On ch=5 n=41 v=64
130048 On ch=5 n=41 v=0
130560 On ch=5 n=53 v=64
131584 On ch=5 n=53 v=0
132096 On ch=5 n=41 v=64
133120 On ch=5 n=41 v=0
133632 On ch=5 n=53 v=64
134656 On ch=5 n=53 v=0
134656 On ch=5 n=41 v=64
135040 On ch=5 n=41 v=0
135168 On ch=5 n=46 v=64
136192 On ch=5 n=46 v=0
136192 On ch=5 n=43 v=64
136576 On ch=5 n=43 v=0
136704 On ch=5 n=48 v=64
137728 On ch=5 n=48 v=0
137728 On ch=5 n=52 v=64
138112 On ch=5 n=52 v=0
138240 On ch=5 n=53 v=64
138624 On ch=5 n=53 v=0
138752 On ch=5 n=57 v=64
139136 On ch=5 n=57 v=0
139264 On ch=5 n=60 v=64
139648 On ch=5 n=60 v=0
139776 On ch=5 n=53 v=55
140032 On ch=5 n=53 v=0
140032 On ch=5 n=55 v=55
140288 On ch=5 n=55 v=0
140288 On ch=5 n=57 v=55
140544 On ch=5 n=57 v=0
140544 On ch=5 n=55 v=55
140800 On ch=5 n=55 v=0
140800 On ch=5 n=53 v=55
141056 On ch=5 n=53 v=0
141056 On ch=5 n=51 v=55
141312 On ch=5 n=51 v=0
141312 On ch=5 n=50 v=55
141568 On ch=5 n=50 v=0
141568 On ch=5 n=51 v=55
141824 On ch=5 n=51 v=0
141824 On ch=5 n=53 v=55
142080 On ch=5 n=53 v=0
142080 On ch=5 n=51 v=55
142336 On ch=5 n=51 v=0
142336 On ch=5 n=50 v=55
142592 On ch=5 n=50 v=0
142592 On ch=5 n=48 v=55
142848 On ch=5 n=48 v=0
142848 On ch=5 n=47 v=55
143104 On ch=5 n=47 v=0
143104 On ch=5 n=50 v=55
143360 On ch=5 n=50 v=0
143360 On ch=5 n=55 v=55
143616 On ch=5 n=55 v=0
143616 On ch=5 n=53 v=55
143872 On ch=5 n=53 v=0
143872 On ch=5 n=51 v=55
144128 On ch=5 n=51 v=0
144128 On ch=5 n=50 v=55
144384 On ch=5 n=50 v=0
144384 On ch=5 n=48 v=55
144768 On ch=5 n=48 v=0
144896 On ch=5 n=51 v=64
145280 On ch=5 n=51 v=0
145408 On ch=5 n=55 v=64
145792 On ch=5 n=55 v=0
145920 On ch=5 n=60 v=64
146304 On ch=5 n=60 v=0
146432 On ch=5 n=51 v=64
146816 On ch=5 n=51 v=0
146944 On ch=5 n=55 v=64
147328 On ch=5 n=55 v=0
147456 On ch=5 n=48 v=55
147712 On ch=5 n=48 v=0
147712 On ch=5 n=50 v=55
147968 On ch=5 n=50 v=0
147968 On ch=5 n=51 v=55
148224 On ch=5 n=51 v=0
148224 On ch=5 n=50 v=55
148480 On ch=5 n=50 v=0
148480 On ch=5 n=48 v=55
148736 On ch=5 n=48 v=0
148736 On ch=5 n=46 v=55
148992 On ch=5 n=46 v=0
148992 On ch=5 n=45 v=55
149248 On ch=5 n=45 v=0
149248 On ch=5 n=48 v=55
149504 On ch=5 n=48 v=0
149504 On ch=5 n=53 v=55
149760 On ch=5 n=53 v=0
149760 On ch=5 n=51 v=55
150016 On ch=5 n=51 v=0
150016 On ch=5 n=50 v=55
150272 On ch=5 n=50 v=0
150272 On ch=5 n=48 v=55
150528 On ch=5 n=48 v=0
150528 On ch=5 n=46 v=64
150912 On ch=5 n=46 v=0
151040 On ch=5 n=50 v=64
151424 On ch=5 n=50 v=0
151552 On ch=5 n=53 v=64
151936 On ch=5 n=53 v=0
152064 On ch=5 n=58 v=50
152320 On ch=5 n=58 v=0
152320 On ch=5 n=60 v=50
152576 On ch=5 n=60 v=0
152576 On ch=5 n=58 v=51
152832 On ch=5 n=58 v=0
152832 On ch=5 n=57 v=51
153088 On ch=5 n=57 v=0
153088 On ch=5 n=55 v=51
153344 On ch=5 n=55 v=0
153344 On ch=5 n=53 v=51
153600 On ch=5 n=53 v=0
153600 On ch=5 n=51 v=52
153856 On ch=5 n=51 v=0
153856 On ch=5 n=53 v=52
154112 On ch=5 n=53 v=0
154112 On ch=5 n=55 v=52
154368 On ch=5 n=55 v=0
154368 On ch=5 n=53 v=52
154624 On ch=5 n=53 v=0
154624 On ch=5 n=51 v=53
154880 On ch=5 n=51 v=0
154880 On ch=5 n=50 v=53
155136 On ch=5 n=50 v=0
155136 On ch=5 n=48 v=53
155392 On ch=5 n=48 v=0
155392 On ch=5 n=51 v=53
155648 On ch=5 n=51 v=0
155648 On ch=5 n=57 v=54
155904 On ch=5 n=57 v=0
155904 On ch=5 n=55 v=54
156160 On ch=5 n=55 v=0
156160 On ch=5 n=53 v=54
156416 On ch=5 n=53 v=0
156416 On ch=5 n=51 v=54
156672 On ch=5 n=51 v=0
156672 On ch=5 n=50 v=55
156928 On ch=5 n=50 v=0
156928 On ch=5 n=51 v=55
157184 On ch=5 n=51 v=0
157184 On ch=5 n=53 v=55
157440 On ch=5 n=53 v=0
157440 On ch=5 n=51 v=56
157696 On ch=5 n=51 v=0
157696 On ch=5 n=50 v=56
157952 On ch=5 n=50 v=0
157952 On ch=5 n=48 v=56
158208 On ch=5 n=48 v=0
158208 On ch=5 n=46 v=56
158464 On ch=5 n=46 v=0
158464 On ch=5 n=50 v=57
158720 On ch=5 n=50 v=0
158720 On ch=5 n=55 v=57
158976 On ch=5 n=55 v=0
158976 On ch=5 n=53 v=57
159232 On ch=5 n=53 v=0
159232 On ch=5 n=51 v=57
159488 On ch=5 n=51 v=0
159488 On ch=5 n=50 v=58
159744 On ch=5 n=50 v=0
159744 On ch=5 n=48 v=58
160000 On ch=5 n=48 v=0
160000 On ch=5 n=50 v=58
160256 On ch=5 n=50 v=0
160256 On ch=5 n=51 v=58
160512 On ch=5 n=51 v=0
160512 On ch=5 n=50 v=59
160768 On ch=5 n=50 v=0
160768 On ch=5 n=48 v=59
161024 On ch=5 n=48 v=0
161024 On ch=5 n=46 v=59
161280 On ch=5 n=46 v=0
161280 On ch=5 n=45 v=60
161536 On ch=5 n=45 v=0
161536 On ch=5 n=48 v=60
161792 On ch=5 n=48 v=0
161792 On ch=5 n=53 v=60
162048 On ch=5 n=53 v=0
162048 On ch=5 n=51 v=60
162304 On ch=5 n=51 v=0
162304 On ch=5 n=50 v=61
162560 On ch=5 n=50 v=0
162560 On ch=5 n=48 v=61
162816 On ch=5 n=48 v=0
162816 On ch=5 n=46 v=61
163072 On ch=5 n=46 v=0
163072 On ch=5 n=45 v=61
163328 On ch=5 n=45 v=0
163328 On ch=5 n=46 v=62
163584 On ch=5 n=46 v=0
163584 On ch=5 n=48 v=62
163840 On ch=5 n=48 v=0
163840 On ch=5 n=50 v=62
164096 On ch=5 n=50 v=0
164096 On ch=5 n=51 v=62
164352 On ch=5 n=51 v=0
164352 On ch=5 n=53 v=63
164608 On ch=5 n=53 v=0
164608 On ch=5 n=52 v=63
164864 On ch=5 n=52 v=0
164864 On ch=5 n=53 v=63
165120 On ch=5 n=53 v=0
165120 On ch=5 n=48 v=63
165376 On ch=5 n=48 v=0
165376 On ch=5 n=45 v=64
165632 On ch=5 n=45 v=0
165632 On ch=5 n=48 v=64
165888 On ch=5 n=48 v=0
165888 On ch=5 n=41 v=50
166912 On ch=5 n=41 v=0
167424 On ch=5 n=53 v=50
168448 On ch=5 n=53 v=0
168960 On ch=5 n=41 v=50
169984 On ch=5 n=41 v=0
170496 On ch=5 n=53 v=50
170752 On ch=5 n=53 v=0
170752 On ch=5 n=48 v=50
171008 On ch=5 n=48 v=0
171008 On ch=5 n=50 v=50
171264 On ch=5 n=50 v=0
171264 On ch=5 n=51 v=50
171520 On ch=5 n=51 v=0
171520 On ch=5 n=53 v=50
171776 On ch=5 n=53 v=0
171776 On ch=5 n=55 v=50
172032 On ch=5 n=55 v=0
172032 On ch=5 n=57 v=50
172288 On ch=5 n=57 v=0
172288 On ch=5 n=58 v=50
172544 On ch=5 n=58 v=0
172544 On ch=5 n=60 v=50
172800 On ch=5 n=60 v=0
172800 On ch=5 n=58 v=50
173056 On ch=5 n=58 v=0
173056 On ch=5 n=57 v=50
173312 On ch=5 n=57 v=0
173312 On ch=5 n=55 v=50
173568 On ch=5 n=55 v=0
173568 On ch=5 n=53 v=50
173824 On ch=5 n=53 v=0
173824 On ch=5 n=55 v=50
174080 On ch=5 n=55 v=0
174080 On ch=5 n=57 v=50
174336 On ch=5 n=57 v=0
174336 On ch=5 n=55 v=50
174592 On ch=5 n=55 v=0
174592 On ch=5 n=53 v=50
174848 On ch=5 n=53 v=0
174848 On ch=5 n=51 v=50
175104 On ch=5 n=51 v=0
175104 On ch=5 n=50 v=50
175360 On ch=5 n=50 v=0
175360 On ch=5 n=51 v=50
175616 On ch=5 n=51 v=0
175616 On ch=5 n=53 v=50
175872 On ch=5 n=53 v=0
175872 On ch=5 n=51 v=50
176128 On ch=5 n=51 v=0
176128 On ch=5 n=50 v=50
176384 On ch=5 n=50 v=0
176384 On ch=5 n=48 v=50
176640 On ch=5 n=48 v=0
176640 On ch=5 n=46 v=50
176896 On ch=5 n=46 v=0
176896 On ch=5 n=53 v=50
177152 On ch=5 n=53 v=0
177152 On ch=5 n=55 v=50
177408 On ch=5 n=55 v=0
177408 On ch=5 n=57 v=50
177664 On ch=5 n=57 v=0
177664 On ch=5 n=58 v=50
177920 On ch=5 n=58 v=0
177920 On ch=5 n=60 v=50
178176 On ch=5 n=60 v=0
178176 On ch=5 n=62 v=50
178432 On ch=5 n=62 v=0
178432 On ch=5 n=63 v=50
178688 On ch=5 n=63 v=0
178688 On ch=5 n=65 v=50
178944 On ch=5 n=65 v=0
178944 On ch=5 n=63 v=50
179200 On ch=5 n=63 v=0
179200 On ch=5 n=62 v=50
179456 On ch=5 n=62 v=0
179456 On ch=5 n=60 v=50
179712 On ch=5 n=60 v=0
179712 On ch=5 n=58 v=50
179968 On ch=5 n=58 v=0
179968 On ch=5 n=60 v=50
180224 On ch=5 n=60 v=0
180224 On ch=5 n=62 v=50
180480 On ch=5 n=62 v=0
180480 On ch=5 n=60 v=50
180736 On ch=5 n=60 v=0
180736 On ch=5 n=58 v=50
180992 On ch=5 n=58 v=0
180992 On ch=5 n=56 v=50
181248 On ch=5 n=56 v=0
181248 On ch=5 n=55 v=50
181504 On ch=5 n=55 v=0
181504 On ch=5 n=56 v=50
181760 On ch=5 n=56 v=0
181760 On ch=5 n=58 v=50
182016 On ch=5 n=58 v=0
182016 On ch=5 n=56 v=50
182272 On ch=5 n=56 v=0
182272 On ch=5 n=55 v=50
182528 On ch=5 n=55 v=0
182528 On ch=5 n=53 v=50
182784 On ch=5 n=53 v=0
182784 On ch=5 n=51 v=50
183040 On ch=5 n=51 v=0
183040 On ch=5 n=52 v=50
183296 On ch=5 n=52 v=0
183296 On ch=5 n=55 v=50
183552 On ch=5 n=55 v=0
183552 On ch=5 n=52 v=50
183808 On ch=5 n=52 v=0
183808 On ch=5 n=51 v=50
184064 On ch=5 n=51 v=0
184064 On ch=5 n=50 v=50
184320 On ch=5 n=50 v=0
184320 On ch=5 n=48 v=50
184576 On ch=5 n=48 v=0
184576 On ch=5 n=50 v=50
184832 On ch=5 n=50 v=0
184832 On ch=5 n=52 v=50
185088 On ch=5 n=52 v=0
185088 On ch=5 n=50 v=50
185344 On ch=5 n=50 v=0
185344 On ch=5 n=52 v=50
185600 On ch=5 n=52 v=0
185600 On ch=5 n=48 v=50
185856 On ch=5 n=48 v=0
185856 On ch=5 n=53 v=50
186112 On ch=5 n=53 v=0
186112 On ch=5 n=55 v=50
186368 On ch=5 n=55 v=0
186368 On ch=5 n=57 v=50
186624 On ch=5 n=57 v=0
186624 On ch=5 n=55 v=50
186880 On ch=5 n=55 v=0
186880 On ch=5 n=53 v=50
187136 On ch=5 n=53 v=0
187136 On ch=5 n=51 v=50
187392 On ch=5 n=51 v=0
187392 On ch=5 n=50 v=50
187648 On ch=5 n=50 v=0
187648 On ch=5 n=52 v=50
187904 On ch=5 n=52 v=0
187904 On ch=5 n=54 v=50
188160 On ch=5 n=54 v=0
188160 On ch=5 n=52 v=50
188416 On ch=5 n=52 v=0
188416 On ch=5 n=54 v=50
188672 On ch=5 n=54 v=0
188672 On ch=5 n=50 v=50
188928 On ch=5 n=50 v=0
188928 On ch=5 n=55 v=50
189184 On ch=5 n=55 v=0
189184 On ch=5 n=54 v=50
189440 On ch=5 n=54 v=0
189440 On ch=5 n=55 v=50
189696 On ch=5 n=55 v=0
189696 On ch=5 n=57 v=50
189952 On ch=5 n=57 v=0
189952 On ch=5 n=58 v=50
190208 On ch=5 n=58 v=0
190208 On ch=5 n=55 v=50
190464 On ch=5 n=55 v=0
190464 On ch=5 n=57 v=50
190720 On ch=5 n=57 v=0
190720 On ch=5 n=55 v=50
190976 On ch=5 n=55 v=0
190976 On ch=5 n=57 v=50
191232 On ch=5 n=57 v=0
191232 On ch=5 n=58 v=50
191488 On ch=5 n=58 v=0
191488 On ch=5 n=60 v=50
191744 On ch=5 n=60 v=0
191744 On ch=5 n=57 v=50
192000 On ch=5 n=57 v=0
192000 On ch=5 n=58 v=50
192256 On ch=5 n=58 v=0
192256 On ch=5 n=57 v=50
192512 On ch=5 n=57 v=0
192512 On ch=5 n=58 v=50
192768 On ch=5 n=58 v=0
192768 On ch=5 n=60 v=50
193024 On ch=5 n=60 v=0
193024 On ch=5 n=62 v=50
193280 On ch=5 n=62 v=0
193280 On ch=5 n=58 v=50
193536 On ch=5 n=58 v=0
193536 On ch=5 n=51 v=50
193792 On ch=5 n=51 v=0
193792 On ch=5 n=50 v=50
194048 On ch=5 n=50 v=0
194048 On ch=5 n=51 v=50
194304 On ch=5 n=51 v=0
194304 On ch=5 n=53 v=50
194560 On ch=5 n=53 v=0
194560 On ch=5 n=55 v=50
194816 On ch=5 n=55 v=0
194816 On ch=5 n=51 v=50
195072 On ch=5 n=51 v=0
195072 On ch=5 n=53 v=50
195456 On ch=5 n=53 v=0
195584 On ch=5 n=41 v=50
195968 On ch=5 n=41 v=0
196096 On ch=5 n=53 v=50
196480 On ch=5 n=53 v=0
196608 On ch=5 n=46 v=50
197120 On ch=5 n=46 v=0
197120 On ch=5 n=50 v=50
197504 On ch=5 n=50 v=0
197632 On ch=5 n=53 v=50
198016 On ch=5 n=53 v=0
198144 On ch=5 n=45 v=50
198656 On ch=5 n=45 v=0
198656 On ch=5 n=50 v=50
199040 On ch=5 n=50 v=0
199168 On ch=5 n=53 v=50
199552 On ch=5 n=53 v=0
199680 On ch=5 n=43 v=50
200192 On ch=5 n=43 v=0
200192 On ch=5 n=46 v=50
200576 On ch=5 n=46 v=0
200704 On ch=5 n=50 v=50
201088 On ch=5 n=50 v=0
201216 On ch=5 n=41 v=50
201728 On ch=5 n=41 v=0
201728 On ch=5 n=46 v=50
202112 On ch=5 n=46 v=0
202240 On ch=5 n=50 v=50
202624 On ch=5 n=50 v=0
202752 On ch=5 n=39 v=50
203264 On ch=5 n=39 v=0
203264 On ch=5 n=43 v=50
203648 On ch=5 n=43 v=0
203776 On ch=5 n=48 v=50
204160 On ch=5 n=48 v=0
204288 On ch=5 n=45 v=50
204800 On ch=5 n=45 v=0
204800 On ch=5 n=48 v=50
205184 On ch=5 n=48 v=0
205312 On ch=5 n=41 v=50
205696 On ch=5 n=41 v=0
205824 On ch=5 n=46 v=50
206336 On ch=5 n=46 v=0
206336 On ch=5 n=50 v=50
206720 On ch=5 n=50 v=0
206848 On ch=5 n=53 v=50
207232 On ch=5 n=53 v=0
207360 On ch=5 n=58 v=50
207872 On ch=5 n=58 v=0
207872 On ch=5 n=57 v=50
208256 On ch=5 n=57 v=0
208384 On ch=5 n=58 v=50
208768 On ch=5 n=58 v=0
208896 On ch=5 n=50 v=64
209920 On ch=5 n=50 v=0
210432 On ch=5 n=55 v=64
211456 On ch=5 n=55 v=0
211968 On ch=5 n=48 v=64
212992 On ch=5 n=48 v=0
213504 On ch=5 n=53 v=64
214528 On ch=5 n=53 v=0
215040 On ch=5 n=46 v=64
216064 On ch=5 n=46 v=0
216064 On ch=5 n=58 v=64
216448 On ch=5 n=58 v=0
216576 On ch=5 n=46 v=64
217600 On ch=5 n=46 v=0
217600 On ch=5 n=58 v=64
217984 On ch=5 n=58 v=0
218112 On ch=5 n=46 v=64
219136 On ch=5 n=46 v=0
219136 On ch=5 n=58 v=64
219520 On ch=5 n=58 v=0
219648 On ch=5 n=46 v=64
220672 On ch=5 n=46 v=0
220672 On ch=5 n=58 v=64
221056 On ch=5 n=58 v=0
221184 On ch=5 n=46 v=64
222208 On ch=5 n=46 v=0
222720 On ch=5 n=58 v=64
223744 On ch=5 n=58 v=0
224256 On ch=5 n=46 v=64
225280 On ch=5 n=46 v=0
225792 On ch=5 n=58 v=64
226816 On ch=5 n=58 v=0
226816 On ch=5 n=46 v=64
227200 On ch=5 n=46 v=0
227328 On ch=5 n=51 v=64
228352 On ch=5 n=51 v=0
228352 On ch=5 n=48 v=64
228736 On ch=5 n=48 v=0
228864 On ch=5 n=53 v=64
229888 On ch=5 n=53 v=0
229888 On ch=5 n=57 v=64
230272 On ch=5 n=57 v=0
230400 On ch=5 n=58 v=64
230784 On ch=5 n=58 v=0
230912 On ch=5 n=50 v=64
231296 On ch=5 n=50 v=0
231424 On ch=5 n=53 v=64
231808 On ch=5 n=53 v=0
231936 On ch=5 n=46 v=64
232960 On ch=5 n=46 v=0
233472 On ch=5 n=58 v=64
234496 On ch=5 n=58 v=0
235008 On ch=5 n=57 v=64
236032 On ch=5 n=57 v=0
236544 On ch=5 n=55 v=64
237568 On ch=5 n=55 v=0
238080 On ch=5 n=53 v=64
239104 On ch=5 n=53 v=0
239616 On ch=5 n=51 v=64
240640 On ch=5 n=51 v=0
241152 On ch=5 n=53 v=64
242176 On ch=5 n=53 v=0
242688 On ch=5 n=46 v=64
243712 On ch=5 n=46 v=0
243712 On ch=5 n=53 v=64
244096 On ch=5 n=53 v=0
244224 On ch=5 n=58 v=64
244736 On ch=5 n=58 v=0
244736 On ch=5 n=57 v=64
245120 On ch=5 n=57 v=0
245248 On ch=5 n=58 v=64
245632 On ch=5 n=58 v=0
245760 On ch=5 n=52 v=64
246784 On ch=5 n=52 v=0
247296 On ch=5 n=48 v=64
248320 On ch=5 n=48 v=0
248832 On ch=5 n=50 v=64
249856 On ch=5 n=50 v=0
250368 On ch=5 n=46 v=64
251392 On ch=5 n=46 v=0
251904 On ch=5 n=48 v=64
252928 On ch=5 n=48 v=0
252928 On ch=5 n=46 v=64
253312 On ch=5 n=46 v=0
253440 On ch=5 n=45 v=64
254464 On ch=5 n=45 v=0
254464 On ch=5 n=43 v=64
254848 On ch=5 n=43 v=0
254976 On ch=5 n=41 v=64
256000 On ch=5 n=41 v=0
256000 On ch=5 n=48 v=64
256384 On ch=5 n=48 v=0
256512 On ch=5 n=53 v=64
257024 On ch=5 n=53 v=0
257024 On ch=5 n=51 v=64
257408 On ch=5 n=51 v=0
257536 On ch=5 n=53 v=64
257920 On ch=5 n=53 v=0
258048 On ch=5 n=50 v=64
259072 On ch=5 n=50 v=0
259584 On ch=5 n=55 v=64
260608 On ch=5 n=55 v=0
261120 On ch=5 n=48 v=64
262144 On ch=5 n=48 v=0
262656 On ch=5 n=53 v=64
263680 On ch=5 n=53 v=0
264192 On ch=5 n=46 v=64
265216 On ch=5 n=46 v=0
265216 On ch=5 n=58 v=64
265600 On ch=5 n=58 v=0
265728 On ch=5 n=46 v=64
266752 On ch=5 n=46 v=0
266752 On ch=5 n=58 v=64
267136 On ch=5 n=58 v=0
267264 On ch=5 n=46 v=64
268288 On ch=5 n=46 v=0
268288 On ch=5 n=58 v=64
268672 On ch=5 n=58 v=0
268800 On ch=5 n=46 v=64
269824 On ch=5 n=46 v=0
269824 On ch=5 n=58 v=64
270208 On ch=5 n=58 v=0
270336 On ch=5 n=46 v=64
271360 On ch=5 n=46 v=0
271872 On ch=5 n=58 v=64
272896 On ch=5 n=58 v=0
273408 On ch=5 n=46 v=64
274432 On ch=5 n=46 v=0
274944 On ch=5 n=58 v=64
275968 On ch=5 n=58 v=0
275968 On ch=5 n=46 v=64
276352 On ch=5 n=46 v=0
276480 On ch=5 n=51 v=64
277504 On ch=5 n=51 v=0
277504 On ch=5 n=48 v=64
277888 On ch=5 n=48 v=0
278016 On ch=5 n=53 v=64
279040 On ch=5 n=53 v=0
279040 On ch=5 n=45 v=64
279424 On ch=5 n=45 v=0
279552 On ch=5 n=46 v=64
279936 On ch=5 n=46 v=0
280064 On ch=5 n=50 v=64
280448 On ch=5 n=50 v=0
280576 On ch=5 n=53 v=64
280960 On ch=5 n=53 v=0
281088 On ch=5 n=46 v=64
282112 On ch=5 n=46 v=0
282624 On ch=5 n=50 v=64
283648 On ch=5 n=50 v=0
283648 On ch=5 n=62 v=64
284032 On ch=5 n=62 v=0
284160 On ch=5 n=50 v=64
285184 On ch=5 n=50 v=0
285184 On ch=5 n=62 v=64
285568 On ch=5 n=62 v=0
285696 On ch=5 n=50 v=64
286720 On ch=5 n=50 v=0
286720 On ch=5 n=62 v=64
287104 On ch=5 n=62 v=0
287232 On ch=5 n=50 v=64
288256 On ch=5 n=50 v=0
288256 On ch=5 n=62 v=64
288640 On ch=5 n=62 v=0
288768 On ch=5 n=50 v=64
289792 On ch=5 n=50 v=0
289792 On ch=5 n=62 v=64
290176 On ch=5 n=62 v=0
290304 On ch=5 n=50 v=64
291328 On ch=5 n=50 v=0
291328 On ch=5 n=62 v=64
291712 On ch=5 n=62 v=0
291840 On ch=5 n=50 v=64
292864 On ch=5 n=50 v=0
292864 On ch=5 n=62 v=64
293248 On ch=5 n=62 v=0
293376 On ch=5 n=50 v=64
294400 On ch=5 n=50 v=0
294400 On ch=5 n=48 v=64
294784 On ch=5 n=48 v=0
294912 On ch=5 n=47 v=55
295936 On ch=5 n=47 v=0
296448 On ch=5 n=48 v=55
297472 On ch=5 n=48 v=0
297984 On ch=5 n=45 v=55
299008 On ch=5 n=45 v=0
299520 On ch=5 n=46 v=55
300544 On ch=5 n=46 v=0
301056 On ch=5 n=43 v=55
302080 On ch=5 n=43 v=0
302592 On ch=5 n=45 v=55
303616 On ch=5 n=45 v=0
304128 On ch=5 n=42 v=55
305152 On ch=5 n=42 v=0
305664 On ch=5 n=43 v=55
306688 On ch=5 n=43 v=0
307200 On ch=5 n=48 v=55
308224 On ch=5 n=48 v=0
308736 On ch=5 n=45 v=57
309760 On ch=5 n=45 v=0
310272 On ch=5 n=50 v=59
311296 On ch=5 n=50 v=0
311808 On ch=5 n=46 v=61
312832 On ch=5 n=46 v=0
313344 On ch=5 n=51 v=63
314368 On ch=5 n=51 v=0
314880 On ch=5 n=48 v=64
315904 On ch=5 n=48 v=0
316416 On ch=5 n=50 v=66
317440 On ch=5 n=50 v=0
317952 On ch=5 n=38 v=68
318976 On ch=5 n=38 v=0
319488 On ch=5 n=55 v=70
320512 On ch=5 n=55 v=0
321024 On ch=5 n=53 v=70
322048 On ch=5 n=53 v=0
322560 On ch=5 n=51 v=70
323584 On ch=5 n=51 v=0
324096 On ch=5 n=50 v=70
325120 On ch=5 n=50 v=0
325632 On ch=5 n=48 v=70
326656 On ch=5 n=48 v=0
327168 On ch=5 n=50 v=70
328192 On ch=5 n=50 v=0
328704 On ch=5 n=43 v=70
329728 On ch=5 n=43 v=0
329728 On ch=5 n=50 v=70
330112 On ch=5 n=50 v=0
330240 On ch=5 n=55 v=55
330496 On ch=5 n=55 v=0
330496 On ch=5 n=57 v=55
330752 On ch=5 n=57 v=0
330752 On ch=5 n=58 v=55
331008 On ch=5 n=58 v=0
331008 On ch=5 n=57 v=55
331264 On ch=5 n=57 v=0
331264 On ch=5 n=55 v=55
331520 On ch=5 n=55 v=0
331520 On ch=5 n=53 v=55
331776 On ch=5 n=53 v=0
331776 On ch=5 n=52 v=55
332032 On ch=5 n=52 v=0
332032 On ch=5 n=53 v=55
332288 On ch=5 n=53 v=0
332288 On ch=5 n=55 v=55
332544 On ch=5 n=55 v=0
332544 On ch=5 n=53 v=55
332800 On ch=5 n=53 v=0
332800 On ch=5 n=52 v=55
333056 On ch=5 n=52 v=0
333056 On ch=5 n=50 v=55
333312 On ch=5 n=50 v=0
333312 On ch=5 n=49 v=55
333568 On ch=5 n=49 v=0
333568 On ch=5 n=52 v=55
333824 On ch=5 n=52 v=0
333824 On ch=5 n=57 v=55
334080 On ch=5 n=57 v=0
334080 On ch=5 n=55 v=55
334336 On ch=5 n=55 v=0
334336 On ch=5 n=53 v=55
334592 On ch=5 n=53 v=0
334592 On ch=5 n=52 v=55
334848 On ch=5 n=52 v=0
334848 On ch=5 n=50 v=55
335232 On ch=5 n=50 v=0
335360 On ch=5 n=53 v=55
335744 On ch=5 n=53 v=0
335872 On ch=5 n=57 v=55
336256 On ch=5 n=57 v=0
336384 On ch=5 n=62 v=55
336768 On ch=5 n=62 v=0
336896 On ch=5 n=53 v=55
337280 On ch=5 n=53 v=0
337408 On ch=5 n=57 v=55
337792 On ch=5 n=57 v=0
337920 On ch=5 n=50 v=55
338176 On ch=5 n=50 v=0
338176 On ch=5 n=51 v=55
338432 On ch=5 n=51 v=0
338432 On ch=5 n=53 v=55
338688 On ch=5 n=53 v=0
338688 On ch=5 n=51 v=55
338944 On ch=5 n=51 v=0
338944 On ch=5 n=50 v=55
339200 On ch=5 n=50 v=0
339200 On ch=5 n=48 v=55
339456 On ch=5 n=48 v=0
339456 On ch=5 n=47 v=55
339712 On ch=5 n=47 v=0
339712 On ch=5 n=50 v=55
339968 On ch=5 n=50 v=0
339968 On ch=5 n=55 v=55
340224 On ch=5 n=55 v=0
340224 On ch=5 n=53 v=55
340480 On ch=5 n=53 v=0
340480 On ch=5 n=51 v=55
340736 On ch=5 n=51 v=0
340736 On ch=5 n=50 v=55
340992 On ch=5 n=50 v=0
340992 On ch=5 n=48 v=55
341376 On ch=5 n=48 v=0
341504 On ch=5 n=51 v=55
341888 On ch=5 n=51 v=0
342016 On ch=5 n=55 v=55
342400 On ch=5 n=55 v=0
342528 On ch=5 n=60 v=55
342784 On ch=5 n=60 v=0
342784 On ch=5 n=62 v=55
343040 On ch=5 n=62 v=0
343040 On ch=5 n=60 v=55
343296 On ch=5 n=60 v=0
343296 On ch=5 n=58 v=55
343552 On ch=5 n=58 v=0
343552 On ch=5 n=57 v=55
343808 On ch=5 n=57 v=0
343808 On ch=5 n=55 v=55
344064 On ch=5 n=55 v=0
344064 On ch=5 n=54 v=55
344320 On ch=5 n=54 v=0
344320 On ch=5 n=57 v=55
344576 On ch=5 n=57 v=0
344576 On ch=5 n=62 v=55
344832 On ch=5 n=62 v=0
344832 On ch=5 n=60 v=55
345088 On ch=5 n=60 v=0
345088 On ch=5 n=58 v=55
345344 On ch=5 n=58 v=0
345344 On ch=5 n=57 v=55
345600 On ch=5 n=57 v=0
345600 On ch=5 n=55 v=55
345856 On ch=5 n=55 v=0
345856 On ch=5 n=57 v=55
346112 On ch=5 n=57 v=0
346112 On ch=5 n=58 v=55
346368 On ch=5 n=58 v=0
346368 On ch=5 n=57 v=55
346624 On ch=5 n=57 v=0
346624 On ch=5 n=55 v=55
346880 On ch=5 n=55 v=0
346880 On ch=5 n=53 v=55
347136 On ch=5 n=53 v=0
347136 On ch=5 n=52 v=55
347392 On ch=5 n=52 v=0
347392 On ch=5 n=55 v=55
347648 On ch=5 n=55 v=0
347648 On ch=5 n=60 v=55
347904 On ch=5 n=60 v=0
347904 On ch=5 n=58 v=55
348160 On ch=5 n=58 v=0
348160 On ch=5 n=57 v=55
348416 On ch=5 n=57 v=0
348416 On ch=5 n=55 v=55
348672 On ch=5 n=55 v=0
348672 On ch=5 n=53 v=55
348928 On ch=5 n=53 v=0
348928 On ch=5 n=55 v=55
349184 On ch=5 n=55 v=0
349184 On ch=5 n=57 v=55
349440 On ch=5 n=57 v=0
349440 On ch=5 n=55 v=55
349696 On ch=5 n=55 v=0
349696 On ch=5 n=53 v=55
349952 On ch=5 n=53 v=0
349952 On ch=5 n=51 v=55
350208 On ch=5 n=51 v=0
350208 On ch=5 n=50 v=55
350464 On ch=5 n=50 v=0
350464 On ch=5 n=53 v=55
350720 On ch=5 n=53 v=0
350720 On ch=5 n=58 v=55
350976 On ch=5 n=58 v=0
350976 On ch=5 n=57 v=55
351232 On ch=5 n=57 v=0
351232 On ch=5 n=55 v=55
351488 On ch=5 n=55 v=0
351488 On ch=5 n=53 v=55
351744 On ch=5 n=53 v=0
351744 On ch=5 n=52 v=55
352000 On ch=5 n=52 v=0
352000 On ch=5 n=53 v=55
352256 On ch=5 n=53 v=0
352256 On ch=5 n=55 v=55
352512 On ch=5 n=55 v=0
352512 On ch=5 n=53 v=55
352768 On ch=5 n=53 v=0
352768 On ch=5 n=52 v=55
353024 On ch=5 n=52 v=0
353024 On ch=5 n=50 v=55
353280 On ch=5 n=50 v=0
353280 On ch=5 n=49 v=55
353792 On ch=5 n=49 v=0
353792 On ch=5 n=50 v=55
354176 On ch=5 n=50 v=0
354304 On ch=5 n=52 v=55
354688 On ch=5 n=52 v=0
354816 On ch=5 n=45 v=55
355840 On ch=5 n=45 v=0
355840 On ch=5 n=49 v=55
356224 On ch=5 n=49 v=0
356352 On ch=5 n=50 v=64
357376 On ch=5 n=50 v=0
357888 On ch=5 n=45 v=64
358912 On ch=5 n=45 v=0
359424 On ch=5 n=38 v=64
360448 On ch=5 n=38 v=0
360960 On ch=5 n=45 v=64
361984 On ch=5 n=45 v=0
362496 On ch=5 n=50 v=64
363520 On ch=5 n=50 v=0
364032 On ch=5 n=57 v=64
365056 On ch=5 n=57 v=0
365568 On ch=5 n=62 v=64
366592 On ch=5 n=62 v=0
367104 On ch=5 n=57 v=64
368128 On ch=5 n=57 v=0
368640 On ch=5 n=50 v=50
369664 On ch=5 n=50 v=0
370176 On ch=5 n=55 v=50
371200 On ch=5 n=55 v=0
371712 On ch=5 n=48 v=50
372736 On ch=5 n=48 v=0
373248 On ch=5 n=53 v=50
374272 On ch=5 n=53 v=0
374784 On ch=5 n=58 v=50
375808 On ch=5 n=58 v=0
376320 On ch=5 n=52 v=50
377344 On ch=5 n=52 v=0
377856 On ch=5 n=57 v=50
378880 On ch=5 n=57 v=0
379392 On ch=5 n=50 v=50
380416 On ch=5 n=50 v=0
380928 On ch=5 n=55 v=50
381952 On ch=5 n=55 v=0
382464 On ch=5 n=52 v=53
383488 On ch=5 n=52 v=0
384000 On ch=5 n=57 v=56
385024 On ch=5 n=57 v=0
385536 On ch=5 n=53 v=59
386560 On ch=5 n=53 v=0
387072 On ch=5 n=58 v=63
388096 On ch=5 n=58 v=0
388608 On ch=5 n=55 v=66
389632 On ch=5 n=55 v=0
390144 On ch=5 n=57 v=69
391168 On ch=5 n=57 v=0
391680 On ch=5 n=45 v=72
392704 On ch=5 n=45 v=0
393216 On ch=5 n=50 v=50
394240 On ch=5 n=50 v=0
394752 On ch=5 n=38 v=50
395776 On ch=5 n=38 v=0
396288 On ch=5 n=50 v=50
397312 On ch=5 n=50 v=0
397824 On ch=5 n=38 v=50
398848 On ch=5 n=38 v=0
398848 On ch=5 n=50 v=50
399232 On ch=5 n=50 v=0
399360 On ch=5 n=55 v=50
400384 On ch=5 n=55 v=0
400384 On ch=5 n=52 v=50
400768 On ch=5 n=52 v=0
400896 On ch=5 n=57 v=50
401920 On ch=5 n=57 v=0
401920 On ch=5 n=49 v=50
402304 On ch=5 n=49 v=0
402432 On ch=5 n=50 v=50
402816 On ch=5 n=50 v=0
402944 On ch=5 n=41 v=50
403328 On ch=5 n=41 v=0
403456 On ch=5 n=45 v=50
403840 On ch=5 n=45 v=0
403968 On ch=5 n=38 v=50
404931 On ch=5 n=38 v=0
405504 On ch=5 n=58 v=64
406528 On ch=5 n=58 v=0
407040 On ch=5 n=57 v=64
408064 On ch=5 n=57 v=0
408576 On ch=5 n=55 v=64
409600 On ch=5 n=55 v=0
410112 On ch=5 n=53 v=64
411136 On ch=5 n=53 v=0
411648 On ch=5 n=51 v=64
412672 On ch=5 n=51 v=0
413184 On ch=5 n=53 v=64
414208 On ch=5 n=53 v=0
414720 On ch=5 n=46 v=64
415744 On ch=5 n=46 v=0
415744 On ch=5 n=53 v=64
416128 On ch=5 n=53 v=0
416256 On ch=5 n=58 v=64
416768 On ch=5 n=58 v=0
416768 On ch=5 n=57 v=64
417152 On ch=5 n=57 v=0
417280 On ch=5 n=58 v=64
417664 On ch=5 n=58 v=0
417792 On ch=5 n=52 v=64
418816 On ch=5 n=52 v=0
419328 On ch=5 n=48 v=64
420352 On ch=5 n=48 v=0
420864 On ch=5 n=50 v=64
421888 On ch=5 n=50 v=0
422400 On ch=5 n=46 v=64
423424 On ch=5 n=46 v=0
423936 On ch=5 n=48 v=64
424960 On ch=5 n=48 v=0
424960 On ch=5 n=46 v=64
425344 On ch=5 n=46 v=0
425472 On ch=5 n=45 v=64
426496 On ch=5 n=45 v=0
426496 On ch=5 n=43 v=64
426880 On ch=5 n=43 v=0
427008 On ch=5 n=41 v=64
428032 On ch=5 n=41 v=0
428032 On ch=5 n=48 v=64
428416 On ch=5 n=48 v=0
428544 On ch=5 n=53 v=64
429056 On ch=5 n=53 v=0
429056 On ch=5 n=51 v=64
429440 On ch=5 n=51 v=0
429568 On ch=5 n=53 v=64
429952 On ch=5 n=53 v=0
430080 On ch=5 n=50 v=64
431104 On ch=5 n=50 v=0
431616 On ch=5 n=55 v=64
432640 On ch=5 n=55 v=0
433152 On ch=5 n=48 v=64
434176 On ch=5 n=48 v=0
434688 On ch=5 n=53 v=64
435712 On ch=5 n=53 v=0
436224 On ch=5 n=46 v=64
437248 On ch=5 n=46 v=0
437248 On ch=5 n=58 v=64
437632 On ch=5 n=58 v=0
437760 On ch=5 n=46 v=64
438784 On ch=5 n=46 v=0
438784 On ch=5 n=58 v=64
439168 On ch=5 n=58 v=0
439296 On ch=5 n=46 v=64
440320 On ch=5 n=46 v=0
440320 On ch=5 n=58 v=64
440704 On ch=5 n=58 v=0
440832 On ch=5 n=46 v=64
441856 On ch=5 n=46 v=0
441856 On ch=5 n=58 v=64
442240 On ch=5 n=58 v=0
442368 On ch=5 n=46 v=64
443392 On ch=5 n=46 v=0
443904 On ch=5 n=58 v=64
444928 On ch=5 n=58 v=0
445440 On ch=5 n=46 v=64
446464 On ch=5 n=46 v=0
446976 On ch=5 n=58 v=64
448000 On ch=5 n=58 v=0
448000 On ch=5 n=46 v=64
448384 On ch=5 n=46 v=0
448512 On ch=5 n=51 v=64
449536 On ch=5 n=51 v=0
449536 On ch=5 n=48 v=64
449920 On ch=5 n=48 v=0
450048 On ch=5 n=53 v=64
451072 On ch=5 n=53 v=0
451072 On ch=5 n=45 v=64
451456 On ch=5 n=45 v=0
451584 On ch=5 n=46 v=64
451968 On ch=5 n=46 v=0
452096 On ch=5 n=50 v=64
452480 On ch=5 n=50 v=0
452608 On ch=5 n=53 v=64
452992 On ch=5 n=53 v=0
453120 On ch=5 n=58 v=64
453504 On ch=5 n=58 v=0
453632 On ch=5 n=50 v=64
454016 On ch=5 n=50 v=0
454144 On ch=5 n=53 v=64
454528 On ch=5 n=53 v=0
454656 On ch=5 n=46 v=64
455168 On ch=5 n=46 v=0
455168 On ch=5 n=50 v=64
455552 On ch=5 n=50 v=0
455680 On ch=5 n=53 v=64
456064 On ch=5 n=53 v=0
456192 On ch=5 n=45 v=64
456704 On ch=5 n=45 v=0
456704 On ch=5 n=50 v=64
457088 On ch=5 n=50 v=0
457216 On ch=5 n=53 v=64
457600 On ch=5 n=53 v=0
457728 On ch=5 n=43 v=64
458240 On ch=5 n=43 v=0
458240 On ch=5 n=46 v=64
458624 On ch=5 n=46 v=0
458752 On ch=5 n=50 v=64
459136 On ch=5 n=50 v=0
459264 On ch=5 n=41 v=64
459776 On ch=5 n=41 v=0
459776 On ch=5 n=46 v=64
460160 On ch=5 n=46 v=0
460288 On ch=5 n=50 v=64
460672 On ch=5 n=50 v=0
460800 On ch=5 n=39 v=64
461312 On ch=5 n=39 v=0
461312 On ch=5 n=43 v=64
461696 On ch=5 n=43 v=0
461824 On ch=5 n=48 v=64
462208 On ch=5 n=48 v=0
462336 On ch=5 n=45 v=64
462848 On ch=5 n=45 v=0
462848 On ch=5 n=48 v=64
463232 On ch=5 n=48 v=0
463360 On ch=5 n=41 v=64
463744 On ch=5 n=41 v=0
463872 On ch=5 n=46 v=64
464384 On ch=5 n=46 v=0
464384 On ch=5 n=50 v=64
464768 On ch=5 n=50 v=0
464896 On ch=5 n=53 v=64
465280 On ch=5 n=53 v=0
465408 On ch=5 n=58 v=64
465920 On ch=5 n=58 v=0
465920 On ch=5 n=57 v=64
466304 On ch=5 n=57 v=0
466432 On ch=5 n=58 v=64
466816 On ch=5 n=58 v=0
466944 On ch=5 n=52 v=64
467328 On ch=5 n=52 v=0
467456 On ch=5 n=55 v=64
467840 On ch=5 n=55 v=0
467968 On ch=5 n=52 v=64
468352 On ch=5 n=52 v=0
468480 On ch=5 n=48 v=64
468864 On ch=5 n=48 v=0
468992 On ch=5 n=57 v=64
469376 On ch=5 n=57 v=0
469504 On ch=5 n=48 v=64
469888 On ch=5 n=48 v=0
470016 On ch=5 n=50 v=64
470400 On ch=5 n=50 v=0
470528 On ch=5 n=53 v=64
470912 On ch=5 n=53 v=0
471040 On ch=5 n=50 v=64
471424 On ch=5 n=50 v=0
471552 On ch=5 n=46 v=64
471936 On ch=5 n=46 v=0
472064 On ch=5 n=55 v=64
472448 On ch=5 n=55 v=0
472576 On ch=5 n=46 v=64
472960 On ch=5 n=46 v=0
473088 On ch=5 n=48 v=64
474112 On ch=5 n=48 v=0
474112 On ch=5 n=46 v=64
474624 On ch=5 n=46 v=0
474624 On ch=5 n=45 v=64
475648 On ch=5 n=45 v=0
475648 On ch=5 n=43 v=64
476160 On ch=5 n=43 v=0
476160 On ch=5 n=41 v=64
477184 On ch=5 n=41 v=0
479232 On ch=5 n=53 v=64
480256 On ch=5 n=53 v=0
480768 On ch=5 n=52 v=64
481792 On ch=5 n=52 v=0
482304 On ch=5 n=50 v=64
483328 On ch=5 n=50 v=0
483840 On ch=5 n=48 v=64
484864 On ch=5 n=48 v=0
485376 On ch=5 n=46 v=64
486400 On ch=5 n=46 v=0
486912 On ch=5 n=48 v=64
487936 On ch=5 n=48 v=0
488448 On ch=5 n=41 v=64
490368 On ch=5 n=41 v=0
490496 On ch=5 n=45 v=64
490880 On ch=5 n=45 v=0
491008 On ch=5 n=48 v=64
491392 On ch=5 n=48 v=0
491520 On ch=5 n=53 v=64
492032 On ch=5 n=53 v=0
492032 On ch=5 n=57 v=64
492416 On ch=5 n=57 v=0
492544 On ch=5 n=60 v=64
492928 On ch=5 n=60 v=0
493056 On ch=5 n=52 v=64
493568 On ch=5 n=52 v=0
493568 On ch=5 n=57 v=64
493952 On ch=5 n=57 v=0
494080 On ch=5 n=60 v=64
494464 On ch=5 n=60 v=0
494592 On ch=5 n=50 v=64
495104 On ch=5 n=50 v=0
495104 On ch=5 n=53 v=64
495488 On ch=5 n=53 v=0
495616 On ch=5 n=57 v=64
496000 On ch=5 n=57 v=0
496128 On ch=5 n=48 v=64
496640 On ch=5 n=48 v=0
496640 On ch=5 n=53 v=64
497024 On ch=5 n=53 v=0
497152 On ch=5 n=57 v=64
497536 On ch=5 n=57 v=0
497664 On ch=5 n=46 v=64
498176 On ch=5 n=46 v=0
498176 On ch=5 n=50 v=64
498560 On ch=5 n=50 v=0
498688 On ch=5 n=55 v=64
499072 On ch=5 n=55 v=0
499200 On ch=5 n=52 v=64
499712 On ch=5 n=52 v=0
499712 On ch=5 n=55 v=64
500096 On ch=5 n=55 v=0
500224 On ch=5 n=48 v=64
500608 On ch=5 n=48 v=0
500736 On ch=5 n=41 v=64
501248 On ch=5 n=41 v=0
501248 On ch=5 n=45 v=64
501632 On ch=5 n=45 v=0
501760 On ch=5 n=48 v=64
502144 On ch=5 n=48 v=0
502272 On ch=5 n=53 v=64
502784 On ch=5 n=53 v=0
502784 On ch=5 n=52 v=64
503168 On ch=5 n=52 v=0
503296 On ch=5 n=53 v=64
503680 On ch=5 n=53 v=0
503808 On ch=5 n=47 v=64
504192 On ch=5 n=47 v=0
504320 On ch=5 n=50 v=64
504704 On ch=5 n=50 v=0
504832 On ch=5 n=47 v=64
505216 On ch=5 n=47 v=0
505344 On ch=5 n=43 v=64
505728 On ch=5 n=43 v=0
505856 On ch=5 n=52 v=64
506240 On ch=5 n=52 v=0
506368 On ch=5 n=43 v=64
506752 On ch=5 n=43 v=0
506880 On ch=5 n=45 v=64
507264 On ch=5 n=45 v=0
507392 On ch=5 n=48 v=64
507776 On ch=5 n=48 v=0
507904 On ch=5 n=45 v=64
508288 On ch=5 n=45 v=0
508416 On ch=5 n=41 v=64
508800 On ch=5 n=41 v=0
508928 On ch=5 n=50 v=64
509312 On ch=5 n=50 v=0
509440 On ch=5 n=41 v=64
509824 On ch=5 n=41 v=0
509952 On ch=5 n=43 v=64
510976 On ch=5 n=43 v=0
510976 On ch=5 n=41 v=64
511488 On ch=5 n=41 v=0
511488 On ch=5 n=40 v=64
512512 On ch=5 n=40 v=0
512512 On ch=5 n=38 v=64
513024 On ch=5 n=38 v=0
513024 On ch=5 n=36 v=64
514048 On ch=5 n=36 v=0
516096 On ch=5 n=45 v=64
517120 On ch=5 n=45 v=0
517632 On ch=5 n=50 v=64
518656 On ch=5 n=50 v=0
519168 On ch=5 n=43 v=64
520192 On ch=5 n=43 v=0
520704 On ch=5 n=48 v=64
521728 On ch=5 n=48 v=0
522240 On ch=5 n=41 v=64
523264 On ch=5 n=41 v=0
523264 On ch=5 n=53 v=64
523648 On ch=5 n=53 v=0
523776 On ch=5 n=41 v=64
524800 On ch=5 n=41 v=0
524800 On ch=5 n=53 v=64
525184 On ch=5 n=53 v=0
525312 On ch=5 n=41 v=64
526336 On ch=5 n=41 v=0
526336 On ch=5 n=53 v=64
526720 On ch=5 n=53 v=0
526848 On ch=5 n=41 v=64
527872 On ch=5 n=41 v=0
527872 On ch=5 n=53 v=64
528256 On ch=5 n=53 v=0
528384 On ch=5 n=41 v=64
529408 On ch=5 n=41 v=0
529920 On ch=5 n=53 v=64
530944 On ch=5 n=53 v=0
531456 On ch=5 n=41 v=64
532480 On ch=5 n=41 v=0
532992 On ch=5 n=53 v=64
534016 On ch=5 n=53 v=0
534016 On ch=5 n=41 v=64
534400 On ch=5 n=41 v=0
534528 On ch=5 n=46 v=64
535552 On ch=5 n=46 v=0
535552 On ch=5 n=43 v=64
535936 On ch=5 n=43 v=0
536064 On ch=5 n=48 v=64
537088 On ch=5 n=48 v=0
537088 On ch=5 n=52 v=64
537472 On ch=5 n=52 v=0
537600 On ch=5 n=53 v=64
537984 On ch=5 n=53 v=0
538112 On ch=5 n=57 v=64
538496 On ch=5 n=57 v=0
538624 On ch=5 n=60 v=64
539008 On ch=5 n=60 v=0
539136 On ch=5 n=53 v=55
539392 On ch=5 n=53 v=0
539392 On ch=5 n=55 v=55
539648 On ch=5 n=55 v=0
539648 On ch=5 n=57 v=55
539904 On ch=5 n=57 v=0
539904 On ch=5 n=55 v=55
540160 On ch=5 n=55 v=0
540160 On ch=5 n=53 v=55
540416 On ch=5 n=53 v=0
540416 On ch=5 n=51 v=55
540672 On ch=5 n=51 v=0
540672 On ch=5 n=50 v=55
540928 On ch=5 n=50 v=0
540928 On ch=5 n=51 v=55
541184 On ch=5 n=51 v=0
541184 On ch=5 n=53 v=55
541440 On ch=5 n=53 v=0
541440 On ch=5 n=51 v=55
541696 On ch=5 n=51 v=0
541696 On ch=5 n=50 v=55
541952 On ch=5 n=50 v=0
541952 On ch=5 n=48 v=55
542208 On ch=5 n=48 v=0
542208 On ch=5 n=47 v=55
542464 On ch=5 n=47 v=0
542464 On ch=5 n=50 v=55
542720 On ch=5 n=50 v=0
542720 On ch=5 n=55 v=55
542976 On ch=5 n=55 v=0
542976 On ch=5 n=53 v=55
543232 On ch=5 n=53 v=0
543232 On ch=5 n=51 v=55
543488 On ch=5 n=51 v=0
543488 On ch=5 n=50 v=55
543744 On ch=5 n=50 v=0
543744 On ch=5 n=48 v=55
544128 On ch=5 n=48 v=0
544256 On ch=5 n=51 v=64
544640 On ch=5 n=51 v=0
544768 On ch=5 n=55 v=64
545152 On ch=5 n=55 v=0
545280 On ch=5 n=60 v=64
545664 On ch=5 n=60 v=0
545792 On ch=5 n=51 v=64
546176 On ch=5 n=51 v=0
546304 On ch=5 n=55 v=64
546688 On ch=5 n=55 v=0
546816 On ch=5 n=48 v=55
547072 On ch=5 n=48 v=0
547072 On ch=5 n=50 v=55
547328 On ch=5 n=50 v=0
547328 On ch=5 n=51 v=55
547584 On ch=5 n=51 v=0
547584 On ch=5 n=50 v=55
547840 On ch=5 n=50 v=0
547840 On ch=5 n=48 v=55
548096 On ch=5 n=48 v=0
548096 On ch=5 n=46 v=55
548352 On ch=5 n=46 v=0
548352 On ch=5 n=45 v=55
548608 On ch=5 n=45 v=0
548608 On ch=5 n=48 v=55
548864 On ch=5 n=48 v=0
548864 On ch=5 n=53 v=55
549120 On ch=5 n=53 v=0
549120 On ch=5 n=51 v=55
549376 On ch=5 n=51 v=0
549376 On ch=5 n=50 v=55
549632 On ch=5 n=50 v=0
549632 On ch=5 n=48 v=55
549888 On ch=5 n=48 v=0
549888 On ch=5 n=46 v=64
550272 On ch=5 n=46 v=0
550400 On ch=5 n=50 v=64
550784 On ch=5 n=50 v=0
550912 On ch=5 n=53 v=64
551296 On ch=5 n=53 v=0
551424 On ch=5 n=58 v=50
551680 On ch=5 n=58 v=0
551680 On ch=5 n=60 v=50
551936 On ch=5 n=60 v=0
551936 On ch=5 n=58 v=51
552192 On ch=5 n=58 v=0
552192 On ch=5 n=57 v=51
552448 On ch=5 n=57 v=0
552448 On ch=5 n=55 v=51
552704 On ch=5 n=55 v=0
552704 On ch=5 n=53 v=51
552960 On ch=5 n=53 v=0
552960 On ch=5 n=51 v=52
553216 On ch=5 n=51 v=0
553216 On ch=5 n=53 v=52
553472 On ch=5 n=53 v=0
553472 On ch=5 n=55 v=52
553728 On ch=5 n=55 v=0
553728 On ch=5 n=53 v=52
553984 On ch=5 n=53 v=0
553984 On ch=5 n=51 v=53
554240 On ch=5 n=51 v=0
554240 On ch=5 n=50 v=53
554496 On ch=5 n=50 v=0
554496 On ch=5 n=48 v=53
554752 On ch=5 n=48 v=0
554752 On ch=5 n=51 v=53
555008 On ch=5 n=51 v=0
555008 On ch=5 n=57 v=54
555264 On ch=5 n=57 v=0
555264 On ch=5 n=55 v=54
555520 On ch=5 n=55 v=0
555520 On ch=5 n=53 v=54
555776 On ch=5 n=53 v=0
555776 On ch=5 n=51 v=54
556032 On ch=5 n=51 v=0
556032 On ch=5 n=50 v=55
556288 On ch=5 n=50 v=0
556288 On ch=5 n=51 v=55
556544 On ch=5 n=51 v=0
556544 On ch=5 n=53 v=55
556800 On ch=5 n=53 v=0
556800 On ch=5 n=51 v=56
557056 On ch=5 n=51 v=0
557056 On ch=5 n=50 v=56
557312 On ch=5 n=50 v=0
557312 On ch=5 n=48 v=56
557568 On ch=5 n=48 v=0
557568 On ch=5 n=46 v=56
557824 On ch=5 n=46 v=0
557824 On ch=5 n=50 v=57
558080 On ch=5 n=50 v=0
558080 On ch=5 n=55 v=57
558336 On ch=5 n=55 v=0
558336 On ch=5 n=53 v=57
558592 On ch=5 n=53 v=0
558592 On ch=5 n=51 v=57
558848 On ch=5 n=51 v=0
558848 On ch=5 n=50 v=58
559104 On ch=5 n=50 v=0
559104 On ch=5 n=48 v=58
559360 On ch=5 n=48 v=0
559360 On ch=5 n=50 v=58
559616 On ch=5 n=50 v=0
559616 On ch=5 n=51 v=58
559872 On ch=5 n=51 v=0
559872 On ch=5 n=50 v=59
560128 On ch=5 n=50 v=0
560128 On ch=5 n=48 v=59
560384 On ch=5 n=48 v=0
560384 On ch=5 n=46 v=59
560640 On ch=5 n=46 v=0
560640 On ch=5 n=45 v=60
560896 On ch=5 n=45 v=0
560896 On ch=5 n=48 v=60
561152 On ch=5 n=48 v=0
561152 On ch=5 n=53 v=60
561408 On ch=5 n=53 v=0
561408 On ch=5 n=51 v=60
561664 On ch=5 n=51 v=0
561664 On ch=5 n=50 v=61
561920 On ch=5 n=50 v=0
561920 On ch=5 n=48 v=61
562176 On ch=5 n=48 v=0
562176 On ch=5 n=46 v=61
562432 On ch=5 n=46 v=0
562432 On ch=5 n=45 v=61
562688 On ch=5 n=45 v=0
562688 On ch=5 n=46 v=62
562944 On ch=5 n=46 v=0
562944 On ch=5 n=48 v=62
563200 On ch=5 n=48 v=0
563200 On ch=5 n=50 v=62
563456 On ch=5 n=50 v=0
563456 On ch=5 n=51 v=62
563712 On ch=5 n=51 v=0
563712 On ch=5 n=53 v=63
563968 On ch=5 n=53 v=0
563968 On ch=5 n=52 v=63
564224 On ch=5 n=52 v=0
564224 On ch=5 n=53 v=63
564480 On ch=5 n=53 v=0
564480 On ch=5 n=48 v=63
564736 On ch=5 n=48 v=0
564736 On ch=5 n=45 v=64
564992 On ch=5 n=45 v=0
564992 On ch=5 n=48 v=64
565248 On ch=5 n=48 v=0
565248 On ch=5 n=41 v=50
566272 On ch=5 n=41 v=0
566784 On ch=5 n=53 v=50
567808 On ch=5 n=53 v=0
568320 On ch=5 n=41 v=50
569344 On ch=5 n=41 v=0
569856 On ch=5 n=53 v=50
570112 On ch=5 n=53 v=0
570112 On ch=5 n=48 v=50
570368 On ch=5 n=48 v=0
570368 On ch=5 n=50 v=50
570624 On ch=5 n=50 v=0
570624 On ch=5 n=51 v=50
570880 On ch=5 n=51 v=0
570880 On ch=5 n=53 v=50
571136 On ch=5 n=53 v=0
571136 On ch=5 n=55 v=50
571392 On ch=5 n=55 v=0
571392 On ch=5 n=57 v=50
571648 On ch=5 n=57 v=0
571648 On ch=5 n=58 v=50
571904 On ch=5 n=58 v=0
571904 On ch=5 n=60 v=50
572160 On ch=5 n=60 v=0
572160 On ch=5 n=58 v=50
572416 On ch=5 n=58 v=0
572416 On ch=5 n=57 v=50
572672 On ch=5 n=57 v=0
572672 On ch=5 n=55 v=50
572928 On ch=5 n=55 v=0
572928 On ch=5 n=53 v=50
573184 On ch=5 n=53 v=0
573184 On ch=5 n=55 v=50
573440 On ch=5 n=55 v=0
573440 On ch=5 n=57 v=50
573696 On ch=5 n=57 v=0
573696 On ch=5 n=55 v=50
573952 On ch=5 n=55 v=0
573952 On ch=5 n=53 v=50
574208 On ch=5 n=53 v=0
574208 On ch=5 n=51 v=50
574464 On ch=5 n=51 v=0
574464 On ch=5 n=50 v=50
574720 On ch=5 n=50 v=0
574720 On ch=5 n=51 v=50
574976 On ch=5 n=51 v=0
574976 On ch=5 n=53 v=50
575232 On ch=5 n=53 v=0
575232 On ch=5 n=51 v=50
575488 On ch=5 n=51 v=0
575488 On ch=5 n=50 v=50
575744 On ch=5 n=50 v=0
575744 On ch=5 n=48 v=50
576000 On ch=5 n=48 v=0
576000 On ch=5 n=46 v=50
576256 On ch=5 n=46 v=0
576256 On ch=5 n=53 v=50
576512 On ch=5 n=53 v=0
576512 On ch=5 n=55 v=50
576768 On ch=5 n=55 v=0
576768 On ch=5 n=57 v=50
577024 On ch=5 n=57 v=0
577024 On ch=5 n=58 v=50
577280 On ch=5 n=58 v=0
577280 On ch=5 n=60 v=50
577536 On ch=5 n=60 v=0
577536 On ch=5 n=62 v=50
577792 On ch=5 n=62 v=0
577792 On ch=5 n=63 v=50
578048 On ch=5 n=63 v=0
578048 On ch=5 n=65 v=50
578304 On ch=5 n=65 v=0
578304 On ch=5 n=63 v=50
578560 On ch=5 n=63 v=0
578560 On ch=5 n=62 v=50
578816 On ch=5 n=62 v=0
578816 On ch=5 n=60 v=50
579072 On ch=5 n=60 v=0
579072 On ch=5 n=58 v=50
579328 On ch=5 n=58 v=0
579328 On ch=5 n=60 v=50
579584 On ch=5 n=60 v=0
579584 On ch=5 n=62 v=50
579840 On ch=5 n=62 v=0
579840 On ch=5 n=60 v=50
580096 On ch=5 n=60 v=0
580096 On ch=5 n=58 v=50
580352 On ch=5 n=58 v=0
580352 On ch=5 n=56 v=50
580608 On ch=5 n=56 v=0
580608 On ch=5 n=55 v=50
580864 On ch=5 n=55 v=0
580864 On ch=5 n=56 v=50
581120 On ch=5 n=56 v=0
581120 On ch=5 n=58 v=50
581376 On ch=5 n=58 v=0
581376 On ch=5 n=56 v=50
581632 On ch=5 n=56 v=0
581632 On ch=5 n=55 v=50
581888 On ch=5 n=55 v=0
581888 On ch=5 n=53 v=50
582144 On ch=5 n=53 v=0
582144 On ch=5 n=51 v=50
582400 On ch=5 n=51 v=0
582400 On ch=5 n=52 v=50
582656 On ch=5 n=52 v=0
582656 On ch=5 n=55 v=50
582912 On ch=5 n=55 v=0
582912 On ch=5 n=52 v=50
583168 On ch=5 n=52 v=0
583168 On ch=5 n=51 v=50
583424 On ch=5 n=51 v=0
583424 On ch=5 n=50 v=50
583680 On ch=5 n=50 v=0
583680 On ch=5 n=48 v=50
583936 On ch=5 n=48 v=0
583936 On ch=5 n=50 v=50
584192 On ch=5 n=50 v=0
584192 On ch=5 n=52 v=50
584448 On ch=5 n=52 v=0
584448 On ch=5 n=50 v=50
584704 On ch=5 n=50 v=0
584704 On ch=5 n=52 v=50
584960 On ch=5 n=52 v=0
584960 On ch=5 n=48 v=50
585216 On ch=5 n=48 v=0
585216 On ch=5 n=53 v=50
585472 On ch=5 n=53 v=0
585472 On ch=5 n=55 v=50
585728 On ch=5 n=55 v=0
585728 On ch=5 n=57 v=50
585984 On ch=5 n=57 v=0
585984 On ch=5 n=55 v=50
586240 On ch=5 n=55 v=0
586240 On ch=5 n=53 v=50
586496 On ch=5 n=53 v=0
586496 On ch=5 n=51 v=50
586752 On ch=5 n=51 v=0
586752 On ch=5 n=50 v=50
587008 On ch=5 n=50 v=0
587008 On ch=5 n=52 v=50
587264 On ch=5 n=52 v=0
587264 On ch=5 n=54 v=50
587520 On ch=5 n=54 v=0
587520 On ch=5 n=52 v=50
587776 On ch=5 n=52 v=0
587776 On ch=5 n=54 v=50
588032 On ch=5 n=54 v=0
588032 On ch=5 n=50 v=50
588288 On ch=5 n=50 v=0
588288 On ch=5 n=55 v=50
588544 On ch=5 n=55 v=0
588544 On ch=5 n=54 v=50
588800 On ch=5 n=54 v=0
588800 On ch=5 n=55 v=50
589056 On ch=5 n=55 v=0
589056 On ch=5 n=57 v=50
589312 On ch=5 n=57 v=0
589312 On ch=5 n=58 v=50
589568 On ch=5 n=58 v=0
589568 On ch=5 n=55 v=50
589824 On ch=5 n=55 v=0
589824 On ch=5 n=57 v=50
590080 On ch=5 n=57 v=0
590080 On ch=5 n=55 v=50
590336 On ch=5 n=55 v=0
590336 On ch=5 n=57 v=50
590592 On ch=5 n=57 v=0
590592 On ch=5 n=58 v=50
590848 On ch=5 n=58 v=0
590848 On ch=5 n=60 v=50
591104 On ch=5 n=60 v=0
591104 On ch=5 n=57 v=50
591360 On ch=5 n=57 v=0
591360 On ch=5 n=58 v=50
591616 On ch=5 n=58 v=0
591616 On ch=5 n=57 v=50
591872 On ch=5 n=57 v=0
591872 On ch=5 n=58 v=50
592128 On ch=5 n=58 v=0
592128 On ch=5 n=60 v=50
592384 On ch=5 n=60 v=0
592384 On ch=5 n=62 v=50
592640 On ch=5 n=62 v=0
592640 On ch=5 n=58 v=50
592896 On ch=5 n=58 v=0
592896 On ch=5 n=51 v=50
593152 On ch=5 n=51 v=0
593152 On ch=5 n=50 v=50
593408 On ch=5 n=50 v=0
593408 On ch=5 n=51 v=50
593664 On ch=5 n=51 v=0
593664 On ch=5 n=53 v=50
593920 On ch=5 n=53 v=0
593920 On ch=5 n=55 v=50
594176 On ch=5 n=55 v=0
594176 On ch=5 n=51 v=50
594432 On ch=5 n=51 v=0
594432 On ch=5 n=53 v=50
594816 On ch=5 n=53 v=0
594944 On ch=5 n=41 v=50
595328 On ch=5 n=41 v=0
595456 On ch=5 n=53 v=50
595840 On ch=5 n=53 v=0
595968 On ch=5 n=46 v=50
596480 On ch=5 n=46 v=0
596480 On ch=5 n=50 v=50
596864 On ch=5 n=50 v=0
596992 On ch=5 n=53 v=50
597376 On ch=5 n=53 v=0
597504 On ch=5 n=45 v=50
598016 On ch=5 n=45 v=0
598016 On ch=5 n=50 v=50
598400 On ch=5 n=50 v=0
598528 On ch=5 n=53 v=50
598912 On ch=5 n=53 v=0
599040 On ch=5 n=43 v=50
599552 On ch=5 n=43 v=0
599552 On ch=5 n=46 v=50
599936 On ch=5 n=46 v=0
600064 On ch=5 n=50 v=50
600448 On ch=5 n=50 v=0
600576 On ch=5 n=41 v=50
601088 On ch=5 n=41 v=0
601088 On ch=5 n=46 v=50
601472 On ch=5 n=46 v=0
601600 On ch=5 n=50 v=50
601984 On ch=5 n=50 v=0
602112 On ch=5 n=39 v=50
602624 On ch=5 n=39 v=0
602624 On ch=5 n=43 v=50
603008 On ch=5 n=43 v=0
603136 On ch=5 n=48 v=50
603520 On ch=5 n=48 v=0
603648 On ch=5 n=45 v=50
604160 On ch=5 n=45 v=0
604160 On ch=5 n=48 v=50
604544 On ch=5 n=48 v=0
604672 On ch=5 n=41 v=50
605056 On ch=5 n=41 v=0
605184 On ch=5 n=46 v=50
605696 On ch=5 n=46 v=0
605696 On ch=5 n=50 v=50
606080 On ch=5 n=50 v=0
606208 On ch=5 n=53 v=50
606592 On ch=5 n=53 v=0
606720 On ch=5 n=58 v=50
607232 On ch=5 n=58 v=0
607232 On ch=5 n=57 v=50
607616 On ch=5 n=57 v=0
607744 On ch=5 n=58 v=50
608128 On ch=5 n=58 v=0
608256 On ch=5 n=50 v=64
609280 On ch=5 n=50 v=0
609792 On ch=5 n=55 v=64
610816 On ch=5 n=55 v=0
611328 On ch=5 n=48 v=64
612352 On ch=5 n=48 v=0
612864 On ch=5 n=53 v=64
613888 On ch=5 n=53 v=0
614400 On ch=5 n=46 v=64
615424 On ch=5 n=46 v=0
615424 On ch=5 n=58 v=64
615808 On ch=5 n=58 v=0
615936 On ch=5 n=46 v=64
616960 On ch=5 n=46 v=0
616960 On ch=5 n=58 v=64
617344 On ch=5 n=58 v=0
617472 On ch=5 n=46 v=64
618496 On ch=5 n=46 v=0
618496 On ch=5 n=58 v=64
618880 On ch=5 n=58 v=0
619008 On ch=5 n=46 v=64
620032 On ch=5 n=46 v=0
620032 On ch=5 n=58 v=64
620416 On ch=5 n=58 v=0
620544 On ch=5 n=46 v=64
621568 On ch=5 n=46 v=0
622080 On ch=5 n=58 v=64
623104 On ch=5 n=58 v=0
623616 On ch=5 n=46 v=64
624640 On ch=5 n=46 v=0
625152 On ch=5 n=58 v=64
626176 On ch=5 n=58 v=0
626176 On ch=5 n=46 v=64
626560 On ch=5 n=46 v=0
626688 On ch=5 n=51 v=64
627712 On ch=5 n=51 v=0
627712 On ch=5 n=48 v=64
628096 On ch=5 n=48 v=0
628224 On ch=5 n=53 v=64
629248 On ch=5 n=53 v=0
629248 On ch=5 n=57 v=64
629632 On ch=5 n=57 v=0
629760 On ch=5 n=58 v=64
630144 On ch=5 n=58 v=0
630272 On ch=5 n=50 v=64
630656 On ch=5 n=50 v=0
630784 On ch=5 n=53 v=64
631168 On ch=5 n=53 v=0
631296 On ch=5 n=46 v=64
632320 On ch=5 n=46 v=0
632832 On ch=5 n=58 v=64
633856 On ch=5 n=58 v=0
634368 On ch=5 n=57 v=64
635392 On ch=5 n=57 v=0
635904 On ch=5 n=55 v=64
636928 On ch=5 n=55 v=0
637440 On ch=5 n=53 v=64
638464 On ch=5 n=53 v=0
638976 On ch=5 n=51 v=64
640000 On ch=5 n=51 v=0
640512 On ch=5 n=53 v=64
641536 On ch=5 n=53 v=0
642048 On ch=5 n=46 v=64
643072 On ch=5 n=46 v=0
643072 On ch=5 n=53 v=64
643456 On ch=5 n=53 v=0
643584 On ch=5 n=58 v=64
644096 On ch=5 n=58 v=0
644096 On ch=5 n=57 v=64
644480 On ch=5 n=57 v=0
644608 On ch=5 n=58 v=64
644992 On ch=5 n=58 v=0
645120 On ch=5 n=52 v=64
646144 On ch=5 n=52 v=0
646656 On ch=5 n=48 v=64
647680 On ch=5 n=48 v=0
648192 On ch=5 n=50 v=64
649216 On ch=5 n=50 v=0
649728 On ch=5 n=46 v=64
650752 On ch=5 n=46 v=0
651264 On ch=5 n=48 v=64
652288 On ch=5 n=48 v=0
652288 On ch=5 n=46 v=64
652672 On ch=5 n=46 v=0
652800 On ch=5 n=45 v=64
653824 On ch=5 n=45 v=0
653824 On ch=5 n=43 v=64
654208 On ch=5 n=43 v=0
654336 On ch=5 n=41 v=64
655360 On ch=5 n=41 v=0
655360 On ch=5 n=48 v=64
655744 On ch=5 n=48 v=0
655872 On ch=5 n=53 v=64
656384 On ch=5 n=53 v=0
656384 On ch=5 n=51 v=64
656768 On ch=5 n=51 v=0
656896 On ch=5 n=53 v=64
657280 On ch=5 n=53 v=0
657408 On ch=5 n=50 v=64
658432 On ch=5 n=50 v=0
658944 On ch=5 n=55 v=64
659968 On ch=5 n=55 v=0
660480 On ch=5 n=48 v=64
661504 On ch=5 n=48 v=0
662016 On ch=5 n=53 v=64
663040 On ch=5 n=53 v=0
663552 On ch=5 n=46 v=64
664576 On ch=5 n=46 v=0
664576 On ch=5 n=58 v=64
664960 On ch=5 n=58 v=0
665088 On ch=5 n=46 v=64
666112 On ch=5 n=46 v=0
666112 On ch=5 n=58 v=64
666496 On ch=5 n=58 v=0
666624 On ch=5 n=46 v=64
667648 On ch=5 n=46 v=0
667648 On ch=5 n=58 v=64
668032 On ch=5 n=58 v=0
668160 On ch=5 n=46 v=64
669184 On ch=5 n=46 v=0
669184 On ch=5 n=58 v=64
669568 On ch=5 n=58 v=0
669696 On ch=5 n=46 v=64
670720 On ch=5 n=46 v=0
671232 On ch=5 n=58 v=64
672256 On ch=5 n=58 v=0
672768 On ch=5 n=46 v=64
673792 On ch=5 n=46 v=0
674304 On ch=5 n=58 v=64
675328 On ch=5 n=58 v=0
675328 On ch=5 n=46 v=64
675712 On ch=5 n=46 v=0
675840 On ch=5 n=51 v=64
676864 On ch=5 n=51 v=0
676864 On ch=5 n=48 v=64
677248 On ch=5 n=48 v=0
677376 On ch=5 n=53 v=64
678400 On ch=5 n=53 v=0
678400 On ch=5 n=45 v=64
678784 On ch=5 n=45 v=0
678912 On ch=5 n=46 v=64
679296 On ch=5 n=46 v=0
679424 On ch=5 n=50 v=64
679808 On ch=5 n=50 v=0
679936 On ch=5 n=53 v=64
680320 On ch=5 n=53 v=0
680448 On ch=5 n=46 v=64
683520 On ch=5 n=46 v=0
688128 Par ch=5 c=121 v=127
688128 Meta TrkEnd
TrkEnd
MTrk
0 PrCh ch=6 p=42
0 Par ch=6 c=121 v=127
0 Par ch=6 c=91 v=127
0 Par ch=6 c=7 v=100
0 Par ch=6 c=1 v=10
0 Par ch=6 c=10 v=70
0 Meta TrkName "Violone"
6144 On ch=6 n=46 v=64
7168 On ch=6 n=46 v=0
7680 On ch=6 n=45 v=64
8704 On ch=6 n=45 v=0
9216 On ch=6 n=43 v=64
10240 On ch=6 n=43 v=0
10752 On ch=6 n=41 v=64
11776 On ch=6 n=41 v=0
12288 On ch=6 n=39 v=64
13312 On ch=6 n=39 v=0
13824 On ch=6 n=41 v=64
14848 On ch=6 n=41 v=0
15360 On ch=6 n=34 v=64
16384 On ch=6 n=34 v=0
16384 On ch=6 n=41 v=64
16768 On ch=6 n=41 v=0
16896 On ch=6 n=46 v=64
17408 On ch=6 n=46 v=0
17408 On ch=6 n=45 v=64
17792 On ch=6 n=45 v=0
17920 On ch=6 n=46 v=64
18304 On ch=6 n=46 v=0
18432 On ch=6 n=40 v=64
19456 On ch=6 n=40 v=0
19968 On ch=6 n=36 v=64
20992 On ch=6 n=36 v=0
21504 On ch=6 n=38 v=64
22528 On ch=6 n=38 v=0
23040 On ch=6 n=34 v=64
24064 On ch=6 n=34 v=0
24576 On ch=6 n=36 v=64
25600 On ch=6 n=36 v=0
25600 On ch=6 n=34 v=64
25984 On ch=6 n=34 v=0
26112 On ch=6 n=33 v=64
27136 On ch=6 n=33 v=0
27136 On ch=6 n=31 v=64
27520 On ch=6 n=31 v=0
27648 On ch=6 n=29 v=64
28672 On ch=6 n=29 v=0
28672 On ch=6 n=36 v=64
29056 On ch=6 n=36 v=0
29184 On ch=6 n=41 v=64
29696 On ch=6 n=41 v=0
29696 On ch=6 n=39 v=64
30080 On ch=6 n=39 v=0
30208 On ch=6 n=41 v=64
30592 On ch=6 n=41 v=0
30720 On ch=6 n=38 v=64
31744 On ch=6 n=38 v=0
32256 On ch=6 n=43 v=64
33280 On ch=6 n=43 v=0
33792 On ch=6 n=36 v=64
34816 On ch=6 n=36 v=0
35328 On ch=6 n=41 v=64
36352 On ch=6 n=41 v=0
36864 On ch=6 n=34 v=64
37888 On ch=6 n=34 v=0
37888 On ch=6 n=46 v=64
38272 On ch=6 n=46 v=0
38400 On ch=6 n=34 v=64
39424 On ch=6 n=34 v=0
39424 On ch=6 n=46 v=64
39808 On ch=6 n=46 v=0
39936 On ch=6 n=34 v=64
40960 On ch=6 n=34 v=0
40960 On ch=6 n=46 v=64
41344 On ch=6 n=46 v=0
41472 On ch=6 n=34 v=64
42496 On ch=6 n=34 v=0
42496 On ch=6 n=46 v=64
42880 On ch=6 n=46 v=0
43008 On ch=6 n=34 v=64
44032 On ch=6 n=34 v=0
44544 On ch=6 n=46 v=64
45568 On ch=6 n=46 v=0
46080 On ch=6 n=34 v=64
47104 On ch=6 n=34 v=0
47616 On ch=6 n=46 v=64
48640 On ch=6 n=46 v=0
48640 On ch=6 n=34 v=64
49024 On ch=6 n=34 v=0
49152 On ch=6 n=39 v=64
50176 On ch=6 n=39 v=0
50176 On ch=6 n=36 v=64
50560 On ch=6 n=36 v=0
50688 On ch=6 n=41 v=64
51712 On ch=6 n=41 v=0
51712 On ch=6 n=33 v=64
52096 On ch=6 n=33 v=0
52224 On ch=6 n=34 v=64
52608 On ch=6 n=34 v=0
52736 On ch=6 n=38 v=64
53120 On ch=6 n=38 v=0
53248 On ch=6 n=41 v=64
53632 On ch=6 n=41 v=0
53760 On ch=6 n=46 v=64
54144 On ch=6 n=46 v=0
54272 On ch=6 n=38 v=64
54656 On ch=6 n=38 v=0
54784 On ch=6 n=41 v=64
55168 On ch=6 n=41 v=0
55296 On ch=6 n=34 v=64
56320 On ch=6 n=34 v=0
79872 On ch=6 n=41 v=64
80896 On ch=6 n=41 v=0
81408 On ch=6 n=40 v=64
82432 On ch=6 n=40 v=0
82944 On ch=6 n=38 v=64
83968 On ch=6 n=38 v=0
84480 On ch=6 n=36 v=64
85504 On ch=6 n=36 v=0
86016 On ch=6 n=34 v=64
87040 On ch=6 n=34 v=0
87552 On ch=6 n=36 v=64
88576 On ch=6 n=36 v=0
89088 On ch=6 n=29 v=64
91648 On ch=6 n=29 v=0
116736 On ch=6 n=33 v=64
117760 On ch=6 n=33 v=0
118272 On ch=6 n=38 v=64
119296 On ch=6 n=38 v=0
119808 On ch=6 n=31 v=64
120832 On ch=6 n=31 v=0
121344 On ch=6 n=36 v=64
122368 On ch=6 n=36 v=0
122880 On ch=6 n=29 v=64
123904 On ch=6 n=29 v=0
129024 On ch=6 n=29 v=64
130048 On ch=6 n=29 v=0
130560 On ch=6 n=41 v=64
131584 On ch=6 n=41 v=0
134656 On ch=6 n=29 v=64
135040 On ch=6 n=29 v=0
135168 On ch=6 n=34 v=64
136192 On ch=6 n=34 v=0
136192 On ch=6 n=31 v=64
136576 On ch=6 n=31 v=0
136704 On ch=6 n=36 v=64
137728 On ch=6 n=36 v=0
137728 On ch=6 n=40 v=64
138112 On ch=6 n=40 v=0
138240 On ch=6 n=41 v=64
138624 On ch=6 n=41 v=0
138752 On ch=6 n=33 v=64
139136 On ch=6 n=33 v=0
139264 On ch=6 n=36 v=64
139648 On ch=6 n=36 v=0
139776 On ch=6 n=29 v=64
140800 On ch=6 n=29 v=0
145408 On ch=6 n=31 v=64
145664 On ch=6 n=31 v=0
145920 On ch=6 n=36 v=64
146944 On ch=6 n=36 v=0
151552 On ch=6 n=29 v=64
151808 On ch=6 n=29 v=0
152064 On ch=6 n=34 v=64
153088 On ch=6 n=34 v=0
156160 On ch=6 n=36 v=64
156544 On ch=6 n=36 v=0
156672 On ch=6 n=38 v=64
158208 On ch=6 n=38 v=0
159232 On ch=6 n=34 v=64
159616 On ch=6 n=34 v=0
159744 On ch=6 n=36 v=64
161280 On ch=6 n=36 v=0
162304 On ch=6 n=29 v=64
162688 On ch=6 n=29 v=0
162816 On ch=6 n=34 v=64
164352 On ch=6 n=34 v=0
165888 On ch=6 n=29 v=64
166912 On ch=6 n=29 v=0
167424 On ch=6 n=41 v=64
168448 On ch=6 n=41 v=0
168960 On ch=6 n=29 v=64
169984 On ch=6 n=29 v=0
170496 On ch=6 n=41 v=64
171520 On ch=6 n=41 v=0
176128 On ch=6 n=29 v=64
176512 On ch=6 n=29 v=0
176640 On ch=6 n=34 v=64
177664 On ch=6 n=34 v=0
182272 On ch=6 n=34 v=64
182656 On ch=6 n=34 v=0
182784 On ch=6 n=39 v=64
183808 On ch=6 n=39 v=0
184320 On ch=6 n=40 v=64
185344 On ch=6 n=40 v=0
185856 On ch=6 n=41 v=64
186880 On ch=6 n=41 v=0
187392 On ch=6 n=42 v=64
188416 On ch=6 n=42 v=0
188928 On ch=6 n=43 v=64
189952 On ch=6 n=43 v=0
190464 On ch=6 n=45 v=64
191488 On ch=6 n=45 v=0
192000 On ch=6 n=46 v=64
193024 On ch=6 n=46 v=0
193536 On ch=6 n=39 v=64
194560 On ch=6 n=39 v=0
195072 On ch=6 n=41 v=64
196096 On ch=6 n=41 v=0
208896 On ch=6 n=38 v=64
209920 On ch=6 n=38 v=0
210432 On ch=6 n=43 v=64
211456 On ch=6 n=43 v=0
211968 On ch=6 n=36 v=64
212992 On ch=6 n=36 v=0
213504 On ch=6 n=41 v=64
214528 On ch=6 n=41 v=0
215040 On ch=6 n=34 v=64
216064 On ch=6 n=34 v=0
221184 On ch=6 n=34 v=64
222208 On ch=6 n=34 v=0
222720 On ch=6 n=46 v=64
223744 On ch=6 n=46 v=0
224256 On ch=6 n=34 v=64
225280 On ch=6 n=34 v=0
225792 On ch=6 n=46 v=64
226816 On ch=6 n=46 v=0
233472 On ch=6 n=46 v=64
234496 On ch=6 n=46 v=0
235008 On ch=6 n=45 v=64
236032 On ch=6 n=45 v=0
236544 On ch=6 n=43 v=64
237568 On ch=6 n=43 v=0
238080 On ch=6 n=41 v=64
239104 On ch=6 n=41 v=0
239616 On ch=6 n=39 v=64
240640 On ch=6 n=39 v=0
241152 On ch=6 n=41 v=64
242176 On ch=6 n=41 v=0
242688 On ch=6 n=34 v=64
243712 On ch=6 n=34 v=0
243712 On ch=6 n=41 v=64
244096 On ch=6 n=41 v=0
244224 On ch=6 n=46 v=64
244736 On ch=6 n=46 v=0
244736 On ch=6 n=45 v=64
245120 On ch=6 n=45 v=0
245248 On ch=6 n=46 v=64
245632 On ch=6 n=46 v=0
245760 On ch=6 n=40 v=64
246784 On ch=6 n=40 v=0
247296 On ch=6 n=36 v=64
248320 On ch=6 n=36 v=0
248832 On ch=6 n=38 v=64
249856 On ch=6 n=38 v=0
250368 On ch=6 n=34 v=64
251392 On ch=6 n=34 v=0
251904 On ch=6 n=36 v=64
252928 On ch=6 n=36 v=0
252928 On ch=6 n=34 v=64
253312 On ch=6 n=34 v=0
253440 On ch=6 n=33 v=64
254464 On ch=6 n=33 v=0
254464 On ch=6 n=31 v=64
254848 On ch=6 n=31 v=0
254976 On ch=6 n=29 v=64
256000 On ch=6 n=29 v=0
256000 On ch=6 n=36 v=64
256384 On ch=6 n=36 v=0
256512 On ch=6 n=41 v=64
257024 On ch=6 n=41 v=0
257024 On ch=6 n=39 v=64
257408 On ch=6 n=39 v=0
257536 On ch=6 n=41 v=64
257920 On ch=6 n=41 v=0
258048 On ch=6 n=38 v=64
259072 On ch=6 n=38 v=0
259584 On ch=6 n=43 v=64
260608 On ch=6 n=43 v=0
261120 On ch=6 n=36 v=64
262144 On ch=6 n=36 v=0
262656 On ch=6 n=41 v=64
263680 On ch=6 n=41 v=0
264192 On ch=6 n=34 v=64
265216 On ch=6 n=34 v=0
265216 On ch=6 n=46 v=64
265600 On ch=6 n=46 v=0
265728 On ch=6 n=34 v=64
266752 On ch=6 n=34 v=0
266752 On ch=6 n=46 v=64
267136 On ch=6 n=46 v=0
267264 On ch=6 n=34 v=64
268288 On ch=6 n=34 v=0
268288 On ch=6 n=46 v=64
268672 On ch=6 n=46 v=0
268800 On ch=6 n=34 v=64
269824 On ch=6 n=34 v=0
269824 On ch=6 n=46 v=64
270208 On ch=6 n=46 v=0
270336 On ch=6 n=34 v=64
271360 On ch=6 n=34 v=0
271872 On ch=6 n=46 v=64
272896 On ch=6 n=46 v=0
273408 On ch=6 n=34 v=64
274432 On ch=6 n=34 v=0
274944 On ch=6 n=46 v=64
275968 On ch=6 n=46 v=0
275968 On ch=6 n=34 v=64
276352 On ch=6 n=34 v=0
276480 On ch=6 n=39 v=64
277504 On ch=6 n=39 v=0
277504 On ch=6 n=36 v=64
277888 On ch=6 n=36 v=0
278016 On ch=6 n=41 v=64
279040 On ch=6 n=41 v=0
279040 On ch=6 n=33 v=64
279424 On ch=6 n=33 v=0
279552 On ch=6 n=34 v=64
279936 On ch=6 n=34 v=0
280064 On ch=6 n=26 v=64
280448 On ch=6 n=26 v=0
280576 On ch=6 n=29 v=64
280960 On ch=6 n=29 v=0
281088 On ch=6 n=22 v=64
282112 On ch=6 n=22 v=0
282624 On ch=6 n=26 v=64
283648 On ch=6 n=26 v=0
283648 On ch=6 n=38 v=64
284032 On ch=6 n=38 v=0
284160 On ch=6 n=26 v=64
285184 On ch=6 n=26 v=0
285184 On ch=6 n=38 v=64
285568 On ch=6 n=38 v=0
285696 On ch=6 n=26 v=64
286720 On ch=6 n=26 v=0
286720 On ch=6 n=38 v=64
287104 On ch=6 n=38 v=0
287232 On ch=6 n=26 v=64
288256 On ch=6 n=26 v=0
288256 On ch=6 n=38 v=64
288640 On ch=6 n=38 v=0
288768 On ch=6 n=26 v=64
289792 On ch=6 n=26 v=0
289792 On ch=6 n=38 v=64
290176 On ch=6 n=38 v=0
290304 On ch=6 n=26 v=64
291328 On ch=6 n=26 v=0
291328 On ch=6 n=38 v=64
291712 On ch=6 n=38 v=0
291840 On ch=6 n=26 v=64
292864 On ch=6 n=26 v=0
292864 On ch=6 n=38 v=64
293248 On ch=6 n=38 v=0
293376 On ch=6 n=26 v=64
294400 On ch=6 n=26 v=0
319488 On ch=6 n=43 v=70
320512 On ch=6 n=43 v=0
321024 On ch=6 n=41 v=70
322048 On ch=6 n=41 v=0
322560 On ch=6 n=39 v=70
323584 On ch=6 n=39 v=0
324096 On ch=6 n=38 v=70
325120 On ch=6 n=38 v=0
325632 On ch=6 n=36 v=70
326656 On ch=6 n=36 v=0
327168 On ch=6 n=38 v=70
328192 On ch=6 n=38 v=0
328704 On ch=6 n=31 v=70
329728 On ch=6 n=31 v=0
329728 On ch=6 n=38 v=70
330112 On ch=6 n=38 v=0
330240 On ch=6 n=43 v=70
331264 On ch=6 n=43 v=0
335872 On ch=6 n=33 v=64
336128 On ch=6 n=33 v=0
336384 On ch=6 n=38 v=64
337408 On ch=6 n=38 v=0
342016 On ch=6 n=31 v=64
342272 On ch=6 n=31 v=0
342528 On ch=6 n=36 v=64
343552 On ch=6 n=36 v=0
346624 On ch=6 n=43 v=64
347008 On ch=6 n=43 v=0
347136 On ch=6 n=40 v=64
348672 On ch=6 n=40 v=0
349696 On ch=6 n=41 v=64
350080 On ch=6 n=41 v=0
350208 On ch=6 n=38 v=64
351744 On ch=6 n=38 v=0
352768 On ch=6 n=40 v=64
353280 On ch=6 n=40 v=0
353280 On ch=6 n=37 v=64
354816 On ch=6 n=37 v=0
356352 On ch=6 n=38 v=64
357376 On ch=6 n=38 v=0
357888 On ch=6 n=33 v=64
358912 On ch=6 n=33 v=0
359424 On ch=6 n=26 v=64
360448 On ch=6 n=26 v=0
360960 On ch=6 n=33 v=64
361984 On ch=6 n=33 v=0
362496 On ch=6 n=38 v=64
363520 On ch=6 n=38 v=0
364032 On ch=6 n=45 v=64
365056 On ch=6 n=45 v=0
365568 On ch=6 n=50 v=64
366592 On ch=6 n=50 v=0
367104 On ch=6 n=45 v=64
368128 On ch=6 n=45 v=0
393216 On ch=6 n=38 v=50
394240 On ch=6 n=38 v=0
394752 On ch=6 n=26 v=50
395776 On ch=6 n=26 v=0
396288 On ch=6 n=38 v=50
397312 On ch=6 n=38 v=0
397824 On ch=6 n=26 v=50
398848 On ch=6 n=26 v=0
398848 On ch=6 n=38 v=50
399232 On ch=6 n=38 v=0
399360 On ch=6 n=43 v=50
400384 On ch=6 n=43 v=0
400384 On ch=6 n=40 v=50
400768 On ch=6 n=40 v=0
400896 On ch=6 n=45 v=50
401920 On ch=6 n=45 v=0
401920 On ch=6 n=37 v=50
402304 On ch=6 n=37 v=0
402432 On ch=6 n=38 v=50
402816 On ch=6 n=38 v=0
402944 On ch=6 n=29 v=50
403328 On ch=6 n=29 v=0
403456 On ch=6 n=33 v=50
403840 On ch=6 n=33 v=0
403968 On ch=6 n=26 v=50
404930 On ch=6 n=26 v=0
405504 On ch=6 n=46 v=64
406528 On ch=6 n=46 v=0
407040 On ch=6 n=45 v=64
408064 On ch=6 n=45 v=0
408576 On ch=6 n=43 v=64
409600 On ch=6 n=43 v=0
410112 On ch=6 n=41 v=64
411136 On ch=6 n=41 v=0
411648 On ch=6 n=39 v=64
412672 On ch=6 n=39 v=0
413184 On ch=6 n=41 v=64
414208 On ch=6 n=41 v=0
414720 On ch=6 n=34 v=64
415744 On ch=6 n=34 v=0
415744 On ch=6 n=41 v=64
416128 On ch=6 n=41 v=0
416256 On ch=6 n=46 v=64
416768 On ch=6 n=46 v=0
416768 On ch=6 n=45 v=64
417152 On ch=6 n=45 v=0
417280 On ch=6 n=46 v=64
417664 On ch=6 n=46 v=0
417792 On ch=6 n=40 v=64
418816 On ch=6 n=40 v=0
419328 On ch=6 n=36 v=64
420352 On ch=6 n=36 v=0
420864 On ch=6 n=38 v=64
421888 On ch=6 n=38 v=0
422400 On ch=6 n=34 v=64
423424 On ch=6 n=34 v=0
423936 On ch=6 n=36 v=64
424960 On ch=6 n=36 v=0
424960 On ch=6 n=34 v=64
425344 On ch=6 n=34 v=0
425472 On ch=6 n=33 v=64
426496 On ch=6 n=33 v=0
426496 On ch=6 n=31 v=64
426880 On ch=6 n=31 v=0
427008 On ch=6 n=29 v=64
428032 On ch=6 n=29 v=0
428032 On ch=6 n=36 v=64
428416 On ch=6 n=36 v=0
428544 On ch=6 n=41 v=64
429056 On ch=6 n=41 v=0
429056 On ch=6 n=39 v=64
429440 On ch=6 n=39 v=0
429568 On ch=6 n=41 v=64
429952 On ch=6 n=41 v=0
430080 On ch=6 n=38 v=64
431104 On ch=6 n=38 v=0
431616 On ch=6 n=43 v=64
432640 On ch=6 n=43 v=0
433152 On ch=6 n=36 v=64
434176 On ch=6 n=36 v=0
434688 On ch=6 n=41 v=64
435712 On ch=6 n=41 v=0
436224 On ch=6 n=34 v=64
437248 On ch=6 n=34 v=0
437248 On ch=6 n=46 v=64
437632 On ch=6 n=46 v=0
437760 On ch=6 n=34 v=64
438784 On ch=6 n=34 v=0
438784 On ch=6 n=46 v=64
439168 On ch=6 n=46 v=0
439296 On ch=6 n=34 v=64
440320 On ch=6 n=34 v=0
440320 On ch=6 n=46 v=64
440704 On ch=6 n=46 v=0
440832 On ch=6 n=34 v=64
441856 On ch=6 n=34 v=0
441856 On ch=6 n=46 v=64
442240 On ch=6 n=46 v=0
442368 On ch=6 n=34 v=64
443392 On ch=6 n=34 v=0
443904 On ch=6 n=46 v=64
444928 On ch=6 n=46 v=0
445440 On ch=6 n=34 v=64
446464 On ch=6 n=34 v=0
446976 On ch=6 n=46 v=64
448000 On ch=6 n=46 v=0
448000 On ch=6 n=34 v=64
448384 On ch=6 n=34 v=0
448512 On ch=6 n=39 v=64
449536 On ch=6 n=39 v=0
449536 On ch=6 n=36 v=64
449920 On ch=6 n=36 v=0
450048 On ch=6 n=41 v=64
451072 On ch=6 n=41 v=0
451072 On ch=6 n=33 v=64
451456 On ch=6 n=33 v=0
451584 On ch=6 n=34 v=64
451968 On ch=6 n=34 v=0
452096 On ch=6 n=38 v=64
452480 On ch=6 n=38 v=0
452608 On ch=6 n=41 v=64
452992 On ch=6 n=41 v=0
453120 On ch=6 n=46 v=64
453504 On ch=6 n=46 v=0
453632 On ch=6 n=38 v=64
454016 On ch=6 n=38 v=0
454144 On ch=6 n=41 v=64
454528 On ch=6 n=41 v=0
454656 On ch=6 n=34 v=64
455680 On ch=6 n=34 v=0
479232 On ch=6 n=41 v=64
480256 On ch=6 n=41 v=0
480768 On ch=6 n=40 v=64
481792 On ch=6 n=40 v=0
482304 On ch=6 n=38 v=64
483328 On ch=6 n=38 v=0
483840 On ch=6 n=36 v=64
484864 On ch=6 n=36 v=0
485376 On ch=6 n=34 v=64
486400 On ch=6 n=34 v=0
486912 On ch=6 n=36 v=64
487936 On ch=6 n=36 v=0
488448 On ch=6 n=29 v=64
491008 On ch=6 n=29 v=0
516096 On ch=6 n=33 v=64
517120 On ch=6 n=33 v=0
517632 On ch=6 n=38 v=64
518656 On ch=6 n=38 v=0
519168 On ch=6 n=31 v=64
520192 On ch=6 n=31 v=0
520704 On ch=6 n=36 v=64
521728 On ch=6 n=36 v=0
522240 On ch=6 n=29 v=64
523264 On ch=6 n=29 v=0
528384 On ch=6 n=29 v=64
529408 On ch=6 n=29 v=0
529920 On ch=6 n=41 v=64
530944 On ch=6 n=41 v=0
534016 On ch=6 n=29 v=64
534400 On ch=6 n=29 v=0
534528 On ch=6 n=34 v=64
535552 On ch=6 n=34 v=0
535552 On ch=6 n=31 v=64
535936 On ch=6 n=31 v=0
536064 On ch=6 n=36 v=64
537088 On ch=6 n=36 v=0
537088 On ch=6 n=40 v=64
537472 On ch=6 n=40 v=0
537600 On ch=6 n=41 v=64
537984 On ch=6 n=41 v=0
538112 On ch=6 n=33 v=64
538496 On ch=6 n=33 v=0
538624 On ch=6 n=36 v=64
539008 On ch=6 n=36 v=0
539136 On ch=6 n=29 v=64
540160 On ch=6 n=29 v=0
544768 On ch=6 n=31 v=64
545024 On ch=6 n=31 v=0
545280 On ch=6 n=36 v=64
546304 On ch=6 n=36 v=0
550912 On ch=6 n=29 v=64
551168 On ch=6 n=29 v=0
551424 On ch=6 n=34 v=64
552448 On ch=6 n=34 v=0
555520 On ch=6 n=36 v=64
555904 On ch=6 n=36 v=0
556032 On ch=6 n=38 v=64
557568 On ch=6 n=38 v=0
558592 On ch=6 n=34 v=64
558976 On ch=6 n=34 v=0
559104 On ch=6 n=36 v=64
560640 On ch=6 n=36 v=0
561664 On ch=6 n=29 v=64
562048 On ch=6 n=29 v=0
562176 On ch=6 n=34 v=64
563712 On ch=6 n=34 v=0
565248 On ch=6 n=29 v=64
566272 On ch=6 n=29 v=0
566784 On ch=6 n=41 v=64
567808 On ch=6 n=41 v=0
568320 On ch=6 n=29 v=64
569344 On ch=6 n=29 v=0
569856 On ch=6 n=41 v=64
570880 On ch=6 n=41 v=0
575488 On ch=6 n=29 v=64
575872 On ch=6 n=29 v=0
576000 On ch=6 n=34 v=64
577024 On ch=6 n=34 v=0
581632 On ch=6 n=34 v=64
582016 On ch=6 n=34 v=0
582144 On ch=6 n=39 v=64
583168 On ch=6 n=39 v=0
583680 On ch=6 n=40 v=64
584704 On ch=6 n=40 v=0
585216 On ch=6 n=41 v=64
586240 On ch=6 n=41 v=0
586752 On ch=6 n=42 v=64
587776 On ch=6 n=42 v=0
588288 On ch=6 n=43 v=64
589312 On ch=6 n=43 v=0
589824 On ch=6 n=45 v=64
590848 On ch=6 n=45 v=0
591360 On ch=6 n=46 v=64
592384 On ch=6 n=46 v=0
592896 On ch=6 n=39 v=64
593920 On ch=6 n=39 v=0
594432 On ch=6 n=41 v=64
595456 On ch=6 n=41 v=0
608256 On ch=6 n=38 v=64
609280 On ch=6 n=38 v=0
609792 On ch=6 n=43 v=64
610816 On ch=6 n=43 v=0
611328 On ch=6 n=36 v=64
612352 On ch=6 n=36 v=0
612864 On ch=6 n=41 v=64
613888 On ch=6 n=41 v=0
614400 On ch=6 n=34 v=64
615424 On ch=6 n=34 v=0
620544 On ch=6 n=34 v=64
621568 On ch=6 n=34 v=0
622080 On ch=6 n=46 v=64
623104 On ch=6 n=46 v=0
623616 On ch=6 n=34 v=64
624640 On ch=6 n=34 v=0
625152 On ch=6 n=46 v=64
626176 On ch=6 n=46 v=0
632832 On ch=6 n=46 v=64
633856 On ch=6 n=46 v=0
634368 On ch=6 n=45 v=64
635392 On ch=6 n=45 v=0
635904 On ch=6 n=43 v=64
636928 On ch=6 n=43 v=0
637440 On ch=6 n=41 v=64
638464 On ch=6 n=41 v=0
638976 On ch=6 n=39 v=64
640000 On ch=6 n=39 v=0
640512 On ch=6 n=41 v=64
641536 On ch=6 n=41 v=0
642048 On ch=6 n=34 v=64
643072 On ch=6 n=34 v=0
643072 On ch=6 n=41 v=64
643456 On ch=6 n=41 v=0
643584 On ch=6 n=46 v=64
644096 On ch=6 n=46 v=0
644096 On ch=6 n=45 v=64
644480 On ch=6 n=45 v=0
644608 On ch=6 n=46 v=64
644992 On ch=6 n=46 v=0
645120 On ch=6 n=40 v=64
646144 On ch=6 n=40 v=0
646656 On ch=6 n=36 v=64
647680 On ch=6 n=36 v=0
648192 On ch=6 n=38 v=64
649216 On ch=6 n=38 v=0
649728 On ch=6 n=34 v=64
650752 On ch=6 n=34 v=0
651264 On ch=6 n=36 v=64
652288 On ch=6 n=36 v=0
652288 On ch=6 n=34 v=64
652672 On ch=6 n=34 v=0
652800 On ch=6 n=33 v=64
653824 On ch=6 n=33 v=0
653824 On ch=6 n=31 v=64
654208 On ch=6 n=31 v=0
654336 On ch=6 n=29 v=64
655360 On ch=6 n=29 v=0
655360 On ch=6 n=36 v=64
655744 On ch=6 n=36 v=0
655872 On ch=6 n=41 v=64
656384 On ch=6 n=41 v=0
656384 On ch=6 n=39 v=64
656768 On ch=6 n=39 v=0
656896 On ch=6 n=41 v=64
657280 On ch=6 n=41 v=0
657408 On ch=6 n=38 v=64
658432 On ch=6 n=38 v=0
658944 On ch=6 n=43 v=64
659968 On ch=6 n=43 v=0
660480 On ch=6 n=36 v=64
661504 On ch=6 n=36 v=0
662016 On ch=6 n=41 v=64
663040 On ch=6 n=41 v=0
663552 On ch=6 n=34 v=64
664576 On ch=6 n=34 v=0
664576 On ch=6 n=46 v=64
664960 On ch=6 n=46 v=0
665088 On ch=6 n=34 v=64
666112 On ch=6 n=34 v=0
666112 On ch=6 n=46 v=64
666496 On ch=6 n=46 v=0
666624 On ch=6 n=34 v=64
667648 On ch=6 n=34 v=0
667648 On ch=6 n=46 v=64
668032 On ch=6 n=46 v=0
668160 On ch=6 n=34 v=64
669184 On ch=6 n=34 v=0
669184 On ch=6 n=46 v=64
669568 On ch=6 n=46 v=0
669696 On ch=6 n=34 v=64
670720 On ch=6 n=34 v=0
671232 On ch=6 n=46 v=64
672256 On ch=6 n=46 v=0
672768 On ch=6 n=34 v=64
673792 On ch=6 n=34 v=0
674304 On ch=6 n=46 v=64
675328 On ch=6 n=46 v=0
675328 On ch=6 n=34 v=64
675712 On ch=6 n=34 v=0
675840 On ch=6 n=39 v=64
676864 On ch=6 n=39 v=0
676864 On ch=6 n=36 v=64
677248 On ch=6 n=36 v=0
677376 On ch=6 n=41 v=64
678400 On ch=6 n=41 v=0
678400 On ch=6 n=33 v=64
678784 On ch=6 n=33 v=0
678912 On ch=6 n=34 v=64
679296 On ch=6 n=34 v=0
679424 On ch=6 n=26 v=64
679808 On ch=6 n=26 v=0
679936 On ch=6 n=29 v=64
680320 On ch=6 n=29 v=0
680448 On ch=6 n=22 v=64
683520 On ch=6 n=22 v=0
688128 Par ch=6 c=121 v=127
688128 Meta TrkEnd
TrkEnd
MTrk
0 PrCh ch=7 p=6
0 Par ch=7 c=121 v=127
0 Par ch=7 c=91 v=127
0 Par ch=7 c=7 v=100
0 Par ch=7 c=10 v=60
0 Meta TrkName "Cembalo"
6144 On ch=7 n=58 v=64
7168 On ch=7 n=58 v=0
7680 On ch=7 n=57 v=64
8704 On ch=7 n=57 v=0
9216 On ch=7 n=55 v=64
10240 On ch=7 n=55 v=0
10752 On ch=7 n=53 v=64
11776 On ch=7 n=53 v=0
12288 On ch=7 n=51 v=64
13312 On ch=7 n=51 v=0
13824 On ch=7 n=53 v=64
14848 On ch=7 n=53 v=0
15360 On ch=7 n=46 v=64
16384 On ch=7 n=46 v=0
16384 On ch=7 n=53 v=64
16768 On ch=7 n=53 v=0
16896 On ch=7 n=58 v=64
17408 On ch=7 n=58 v=0
17408 On ch=7 n=57 v=64
17792 On ch=7 n=57 v=0
17920 On ch=7 n=58 v=64
18304 On ch=7 n=58 v=0
18432 On ch=7 n=52 v=64
19456 On ch=7 n=52 v=0
19968 On ch=7 n=48 v=64
20992 On ch=7 n=48 v=0
21504 On ch=7 n=50 v=64
22528 On ch=7 n=50 v=0
23040 On ch=7 n=46 v=64
24064 On ch=7 n=46 v=0
24576 On ch=7 n=48 v=64
25600 On ch=7 n=48 v=0
25600 On ch=7 n=46 v=64
25984 On ch=7 n=46 v=0
26112 On ch=7 n=45 v=64
27136 On ch=7 n=45 v=0
27136 On ch=7 n=43 v=64
27520 On ch=7 n=43 v=0
27648 On ch=7 n=41 v=64
28672 On ch=7 n=41 v=0
28672 On ch=7 n=48 v=64
29056 On ch=7 n=48 v=0
29184 On ch=7 n=53 v=64
29696 On ch=7 n=53 v=0
29696 On ch=7 n=51 v=64
30080 On ch=7 n=51 v=0
30208 On ch=7 n=53 v=64
30592 On ch=7 n=53 v=0
30720 On ch=7 n=50 v=64
31744 On ch=7 n=50 v=0
32256 On ch=7 n=55 v=64
33280 On ch=7 n=55 v=0
33792 On ch=7 n=48 v=64
34816 On ch=7 n=48 v=0
35328 On ch=7 n=53 v=64
36352 On ch=7 n=53 v=0
36864 On ch=7 n=46 v=64
37888 On ch=7 n=46 v=0
37888 On ch=7 n=58 v=64
38272 On ch=7 n=58 v=0
38400 On ch=7 n=46 v=64
39424 On ch=7 n=46 v=0
39424 On ch=7 n=58 v=64
39808 On ch=7 n=58 v=0
39936 On ch=7 n=46 v=64
40960 On ch=7 n=46 v=0
40960 On ch=7 n=58 v=64
41344 On ch=7 n=58 v=0
41472 On ch=7 n=46 v=64
42496 On ch=7 n=46 v=0
42496 On ch=7 n=58 v=64
42880 On ch=7 n=58 v=0
43008 On ch=7 n=46 v=64
44032 On ch=7 n=46 v=0
44544 On ch=7 n=58 v=64
45568 On ch=7 n=58 v=0
46080 On ch=7 n=46 v=64
47104 On ch=7 n=46 v=0
47616 On ch=7 n=58 v=64
48640 On ch=7 n=58 v=0
48640 On ch=7 n=46 v=64
49024 On ch=7 n=46 v=0
49152 On ch=7 n=51 v=64
50176 On ch=7 n=51 v=0
50176 On ch=7 n=48 v=64
50560 On ch=7 n=48 v=0
50688 On ch=7 n=53 v=64
51712 On ch=7 n=53 v=0
51712 On ch=7 n=45 v=64
52096 On ch=7 n=45 v=0
52224 On ch=7 n=46 v=64
52608 On ch=7 n=46 v=0
52736 On ch=7 n=50 v=64
53120 On ch=7 n=50 v=0
53248 On ch=7 n=53 v=64
53632 On ch=7 n=53 v=0
53760 On ch=7 n=58 v=64
54144 On ch=7 n=58 v=0
54272 On ch=7 n=50 v=64
54656 On ch=7 n=50 v=0
54784 On ch=7 n=53 v=64
55168 On ch=7 n=53 v=0
55296 On ch=7 n=46 v=64
56320 On ch=7 n=46 v=0
79872 On ch=7 n=53 v=64
80896 On ch=7 n=53 v=0
81408 On ch=7 n=52 v=64
82432 On ch=7 n=52 v=0
82944 On ch=7 n=50 v=64
83968 On ch=7 n=50 v=0
84480 On ch=7 n=48 v=64
85504 On ch=7 n=48 v=0
86016 On ch=7 n=46 v=64
87040 On ch=7 n=46 v=0
87552 On ch=7 n=48 v=64
88576 On ch=7 n=48 v=0
89088 On ch=7 n=41 v=64
91648 On ch=7 n=41 v=0
116736 On ch=7 n=45 v=64
117760 On ch=7 n=45 v=0
118272 On ch=7 n=50 v=64
119296 On ch=7 n=50 v=0
119808 On ch=7 n=43 v=64
120832 On ch=7 n=43 v=0
121344 On ch=7 n=48 v=64
122368 On ch=7 n=48 v=0
122880 On ch=7 n=41 v=64
123904 On ch=7 n=41 v=0
129024 On ch=7 n=41 v=64
130048 On ch=7 n=41 v=0
130560 On ch=7 n=53 v=64
131584 On ch=7 n=53 v=0
134656 On ch=7 n=41 v=64
135040 On ch=7 n=41 v=0
135168 On ch=7 n=46 v=64
136192 On ch=7 n=46 v=0
136192 On ch=7 n=43 v=64
136576 On ch=7 n=43 v=0
136704 On ch=7 n=48 v=64
137728 On ch=7 n=48 v=0
137728 On ch=7 n=52 v=64
138112 On ch=7 n=52 v=0
138240 On ch=7 n=53 v=64
138624 On ch=7 n=53 v=0
138752 On ch=7 n=45 v=64
139136 On ch=7 n=45 v=0
139264 On ch=7 n=48 v=64
139648 On ch=7 n=48 v=0
139776 On ch=7 n=41 v=64
140800 On ch=7 n=41 v=0
145408 On ch=7 n=43 v=64
145664 On ch=7 n=43 v=0
145920 On ch=7 n=48 v=64
146944 On ch=7 n=48 v=0
151552 On ch=7 n=41 v=64
151808 On ch=7 n=41 v=0
152064 On ch=7 n=46 v=64
153088 On ch=7 n=46 v=0
156160 On ch=7 n=48 v=64
156544 On ch=7 n=48 v=0
156672 On ch=7 n=50 v=64
158208 On ch=7 n=50 v=0
159232 On ch=7 n=46 v=64
159616 On ch=7 n=46 v=0
159744 On ch=7 n=48 v=64
161280 On ch=7 n=48 v=0
162304 On ch=7 n=41 v=64
162688 On ch=7 n=41 v=0
162816 On ch=7 n=46 v=64
164352 On ch=7 n=46 v=0
165888 On ch=7 n=41 v=64
166912 On ch=7 n=41 v=0
167424 On ch=7 n=53 v=64
168448 On ch=7 n=53 v=0
168960 On ch=7 n=41 v=64
169984 On ch=7 n=41 v=0
170496 On ch=7 n=53 v=64
171520 On ch=7 n=53 v=0
176128 On ch=7 n=41 v=64
176512 On ch=7 n=41 v=0
176640 On ch=7 n=46 v=64
177664 On ch=7 n=46 v=0
182272 On ch=7 n=46 v=64
182656 On ch=7 n=46 v=0
182784 On ch=7 n=51 v=64
183808 On ch=7 n=51 v=0
184320 On ch=7 n=52 v=64
185344 On ch=7 n=52 v=0
185856 On ch=7 n=53 v=64
186880 On ch=7 n=53 v=0
187392 On ch=7 n=54 v=64
188416 On ch=7 n=54 v=0
188928 On ch=7 n=55 v=64
189952 On ch=7 n=55 v=0
190464 On ch=7 n=57 v=64
191488 On ch=7 n=57 v=0
192000 On ch=7 n=58 v=64
193024 On ch=7 n=58 v=0
193536 On ch=7 n=51 v=64
194560 On ch=7 n=51 v=0
195072 On ch=7 n=53 v=64
196096 On ch=7 n=53 v=0
208896 On ch=7 n=50 v=64
209920 On ch=7 n=50 v=0
210432 On ch=7 n=55 v=64
211456 On ch=7 n=55 v=0
211968 On ch=7 n=48 v=64
212992 On ch=7 n=48 v=0
213504 On ch=7 n=53 v=64
214528 On ch=7 n=53 v=0
215040 On ch=7 n=46 v=64
216064 On ch=7 n=46 v=0
221184 On ch=7 n=46 v=64
222208 On ch=7 n=46 v=0
222720 On ch=7 n=58 v=64
223744 On ch=7 n=58 v=0
224256 On ch=7 n=46 v=64
225280 On ch=7 n=46 v=0
225792 On ch=7 n=58 v=64
226816 On ch=7 n=58 v=0
233472 On ch=7 n=58 v=64
234496 On ch=7 n=58 v=0
235008 On ch=7 n=57 v=64
236032 On ch=7 n=57 v=0
236544 On ch=7 n=55 v=64
237568 On ch=7 n=55 v=0
238080 On ch=7 n=53 v=64
239104 On ch=7 n=53 v=0
239616 On ch=7 n=51 v=64
240640 On ch=7 n=51 v=0
241152 On ch=7 n=53 v=64
242176 On ch=7 n=53 v=0
242688 On ch=7 n=46 v=64
243712 On ch=7 n=46 v=0
243712 On ch=7 n=53 v=64
244096 On ch=7 n=53 v=0
244224 On ch=7 n=58 v=64
244736 On ch=7 n=58 v=0
244736 On ch=7 n=57 v=64
245120 On ch=7 n=57 v=0
245248 On ch=7 n=58 v=64
245632 On ch=7 n=58 v=0
245760 On ch=7 n=52 v=64
246784 On ch=7 n=52 v=0
247296 On ch=7 n=48 v=64
248320 On ch=7 n=48 v=0
248832 On ch=7 n=50 v=64
249856 On ch=7 n=50 v=0
250368 On ch=7 n=46 v=64
251392 On ch=7 n=46 v=0
251904 On ch=7 n=48 v=64
252928 On ch=7 n=48 v=0
252928 On ch=7 n=46 v=64
253312 On ch=7 n=46 v=0
253440 On ch=7 n=45 v=64
254464 On ch=7 n=45 v=0
254464 On ch=7 n=43 v=64
254848 On ch=7 n=43 v=0
254976 On ch=7 n=41 v=64
256000 On ch=7 n=41 v=0
256000 On ch=7 n=48 v=64
256384 On ch=7 n=48 v=0
256512 On ch=7 n=53 v=64
257024 On ch=7 n=53 v=0
257024 On ch=7 n=51 v=64
257408 On ch=7 n=51 v=0
257536 On ch=7 n=53 v=64
257920 On ch=7 n=53 v=0
258048 On ch=7 n=50 v=64
259072 On ch=7 n=50 v=0
259584 On ch=7 n=55 v=64
260608 On ch=7 n=55 v=0
261120 On ch=7 n=48 v=64
262144 On ch=7 n=48 v=0
262656 On ch=7 n=53 v=64
263680 On ch=7 n=53 v=0
264192 On ch=7 n=46 v=64
265216 On ch=7 n=46 v=0
265216 On ch=7 n=58 v=64
265600 On ch=7 n=58 v=0
265728 On ch=7 n=46 v=64
266752 On ch=7 n=46 v=0
266752 On ch=7 n=58 v=64
267136 On ch=7 n=58 v=0
267264 On ch=7 n=46 v=64
268288 On ch=7 n=46 v=0
268288 On ch=7 n=58 v=64
268672 On ch=7 n=58 v=0
268800 On ch=7 n=46 v=64
269824 On ch=7 n=46 v=0
269824 On ch=7 n=58 v=64
270208 On ch=7 n=58 v=0
270336 On ch=7 n=46 v=64
271360 On ch=7 n=46 v=0
271872 On ch=7 n=58 v=64
272896 On ch=7 n=58 v=0
273408 On ch=7 n=46 v=64
274432 On ch=7 n=46 v=0
274944 On ch=7 n=58 v=64
275968 On ch=7 n=58 v=0
275968 On ch=7 n=46 v=64
276352 On ch=7 n=46 v=0
276480 On ch=7 n=51 v=64
277504 On ch=7 n=51 v=0
277504 On ch=7 n=48 v=64
277888 On ch=7 n=48 v=0
278016 On ch=7 n=53 v=64
279040 On ch=7 n=53 v=0
279040 On ch=7 n=45 v=64
279424 On ch=7 n=45 v=0
279552 On ch=7 n=46 v=64
279936 On ch=7 n=46 v=0
280064 On ch=7 n=38 v=64
280448 On ch=7 n=38 v=0
280576 On ch=7 n=41 v=64
280960 On ch=7 n=41 v=0
281088 On ch=7 n=34 v=64
282112 On ch=7 n=34 v=0
282624 On ch=7 n=38 v=64
283648 On ch=7 n=38 v=0
283648 On ch=7 n=50 v=64
284032 On ch=7 n=50 v=0
284160 On ch=7 n=38 v=64
285184 On ch=7 n=38 v=0
285184 On ch=7 n=50 v=64
285568 On ch=7 n=50 v=0
285696 On ch=7 n=38 v=64
286720 On ch=7 n=38 v=0
286720 On ch=7 n=50 v=64
287104 On ch=7 n=50 v=0
287232 On ch=7 n=38 v=64
288256 On ch=7 n=38 v=0
288256 On ch=7 n=50 v=64
288640 On ch=7 n=50 v=0
288768 On ch=7 n=38 v=64
289792 On ch=7 n=38 v=0
289792 On ch=7 n=50 v=64
290176 On ch=7 n=50 v=0
290304 On ch=7 n=38 v=64
291328 On ch=7 n=38 v=0
291328 On ch=7 n=50 v=64
291712 On ch=7 n=50 v=0
291840 On ch=7 n=38 v=64
292864 On ch=7 n=38 v=0
292864 On ch=7 n=50 v=64
293248 On ch=7 n=50 v=0
293376 On ch=7 n=38 v=64
294400 On ch=7 n=38 v=0
319488 On ch=7 n=55 v=70
320512 On ch=7 n=55 v=0
321024 On ch=7 n=53 v=70
322048 On ch=7 n=53 v=0
322560 On ch=7 n=51 v=70
323584 On ch=7 n=51 v=0
324096 On ch=7 n=50 v=70
325120 On ch=7 n=50 v=0
325632 On ch=7 n=48 v=70
326656 On ch=7 n=48 v=0
327168 On ch=7 n=50 v=70
328192 On ch=7 n=50 v=0
328704 On ch=7 n=43 v=70
329728 On ch=7 n=43 v=0
329728 On ch=7 n=50 v=70
330112 On ch=7 n=50 v=0
330240 On ch=7 n=55 v=70
331264 On ch=7 n=55 v=0
335872 On ch=7 n=45 v=64
336128 On ch=7 n=45 v=0
336384 On ch=7 n=50 v=64
337408 On ch=7 n=50 v=0
342016 On ch=7 n=43 v=64
342272 On ch=7 n=43 v=0
342528 On ch=7 n=48 v=64
343552 On ch=7 n=48 v=0
346624 On ch=7 n=55 v=64
347008 On ch=7 n=55 v=0
347136 On ch=7 n=52 v=64
348672 On ch=7 n=52 v=0
349696 On ch=7 n=53 v=64
350080 On ch=7 n=53 v=0
350208 On ch=7 n=50 v=64
351744 On ch=7 n=50 v=0
352768 On ch=7 n=52 v=64
353280 On ch=7 n=52 v=0
353280 On ch=7 n=49 v=64
354816 On ch=7 n=49 v=0
356352 On ch=7 n=50 v=64
357376 On ch=7 n=50 v=0
357888 On ch=7 n=45 v=64
358912 On ch=7 n=45 v=0
359424 On ch=7 n=38 v=64
360448 On ch=7 n=38 v=0
360960 On ch=7 n=45 v=64
361984 On ch=7 n=45 v=0
362496 On ch=7 n=50 v=64
363520 On ch=7 n=50 v=0
364032 On ch=7 n=57 v=64
365056 On ch=7 n=57 v=0
365568 On ch=7 n=62 v=64
366592 On ch=7 n=62 v=0
367104 On ch=7 n=57 v=64
368128 On ch=7 n=57 v=0
393216 On ch=7 n=50 v=50
394240 On ch=7 n=50 v=0
394752 On ch=7 n=38 v=50
395776 On ch=7 n=38 v=0
396288 On ch=7 n=50 v=50
397312 On ch=7 n=50 v=0
397824 On ch=7 n=38 v=50
398848 On ch=7 n=38 v=0
398848 On ch=7 n=50 v=50
399232 On ch=7 n=50 v=0
399360 On ch=7 n=55 v=50
400384 On ch=7 n=55 v=0
400384 On ch=7 n=52 v=50
400768 On ch=7 n=52 v=0
400896 On ch=7 n=57 v=50
401920 On ch=7 n=57 v=0
401920 On ch=7 n=49 v=50
402304 On ch=7 n=49 v=0
402432 On ch=7 n=50 v=50
402816 On ch=7 n=50 v=0
402944 On ch=7 n=41 v=50
403328 On ch=7 n=41 v=0
403456 On ch=7 n=45 v=50
403840 On ch=7 n=45 v=0
403968 On ch=7 n=38 v=50
404931 On ch=7 n=38 v=0
405504 On ch=7 n=58 v=64
406528 On ch=7 n=58 v=0
407040 On ch=7 n=57 v=64
408064 On ch=7 n=57 v=0
408576 On ch=7 n=55 v=64
409600 On ch=7 n=55 v=0
410112 On ch=7 n=53 v=64
411136 On ch=7 n=53 v=0
411648 On ch=7 n=51 v=64
412672 On ch=7 n=51 v=0
413184 On ch=7 n=53 v=64
414208 On ch=7 n=53 v=0
414720 On ch=7 n=46 v=64
415744 On ch=7 n=46 v=0
415744 On ch=7 n=53 v=64
416128 On ch=7 n=53 v=0
416256 On ch=7 n=58 v=64
416768 On ch=7 n=58 v=0
416768 On ch=7 n=57 v=64
417152 On ch=7 n=57 v=0
417280 On ch=7 n=58 v=64
417664 On ch=7 n=58 v=0
417792 On ch=7 n=52 v=64
418816 On ch=7 n=52 v=0
419328 On ch=7 n=48 v=64
420352 On ch=7 n=48 v=0
420864 On ch=7 n=50 v=64
421888 On ch=7 n=50 v=0
422400 On ch=7 n=46 v=64
423424 On ch=7 n=46 v=0
423936 On ch=7 n=48 v=64
424960 On ch=7 n=48 v=0
424960 On ch=7 n=46 v=64
425344 On ch=7 n=46 v=0
425472 On ch=7 n=45 v=64
426496 On ch=7 n=45 v=0
426496 On ch=7 n=43 v=64
426880 On ch=7 n=43 v=0
427008 On ch=7 n=41 v=64
428032 On ch=7 n=41 v=0
428032 On ch=7 n=48 v=64
428416 On ch=7 n=48 v=0
428544 On ch=7 n=53 v=64
429056 On ch=7 n=53 v=0
429056 On ch=7 n=51 v=64
429440 On ch=7 n=51 v=0
429568 On ch=7 n=53 v=64
429952 On ch=7 n=53 v=0
430080 On ch=7 n=50 v=64
431104 On ch=7 n=50 v=0
431616 On ch=7 n=55 v=64
432640 On ch=7 n=55 v=0
433152 On ch=7 n=48 v=64
434176 On ch=7 n=48 v=0
434688 On ch=7 n=53 v=64
435712 On ch=7 n=53 v=0
436224 On ch=7 n=46 v=64
437248 On ch=7 n=46 v=0
437248 On ch=7 n=58 v=64
437632 On ch=7 n=58 v=0
437760 On ch=7 n=46 v=64
438784 On ch=7 n=46 v=0
438784 On ch=7 n=58 v=64
439168 On ch=7 n=58 v=0
439296 On ch=7 n=46 v=64
440320 On ch=7 n=46 v=0
440320 On ch=7 n=58 v=64
440704 On ch=7 n=58 v=0
440832 On ch=7 n=46 v=64
441856 On ch=7 n=46 v=0
441856 On ch=7 n=58 v=64
442240 On ch=7 n=58 v=0
442368 On ch=7 n=46 v=64
443392 On ch=7 n=46 v=0
443904 On ch=7 n=58 v=64
444928 On ch=7 n=58 v=0
445440 On ch=7 n=46 v=64
446464 On ch=7 n=46 v=0
446976 On ch=7 n=58 v=64
448000 On ch=7 n=58 v=0
448000 On ch=7 n=46 v=64
448384 On ch=7 n=46 v=0
448512 On ch=7 n=51 v=64
449536 On ch=7 n=51 v=0
449536 On ch=7 n=48 v=64
449920 On ch=7 n=48 v=0
450048 On ch=7 n=53 v=64
451072 On ch=7 n=53 v=0
451072 On ch=7 n=45 v=64
451456 On ch=7 n=45 v=0
451584 On ch=7 n=46 v=64
451968 On ch=7 n=46 v=0
452096 On ch=7 n=50 v=64
452480 On ch=7 n=50 v=0
452608 On ch=7 n=53 v=64
452992 On ch=7 n=53 v=0
453120 On ch=7 n=58 v=64
453504 On ch=7 n=58 v=0
453632 On ch=7 n=50 v=64
454016 On ch=7 n=50 v=0
454144 On ch=7 n=53 v=64
454528 On ch=7 n=53 v=0
454656 On ch=7 n=46 v=64
455680 On ch=7 n=46 v=0
479232 On ch=7 n=53 v=64
480256 On ch=7 n=53 v=0
480768 On ch=7 n=52 v=64
481792 On ch=7 n=52 v=0
482304 On ch=7 n=50 v=64
483328 On ch=7 n=50 v=0
483840 On ch=7 n=48 v=64
484864 On ch=7 n=48 v=0
485376 On ch=7 n=46 v=64
486400 On ch=7 n=46 v=0
486912 On ch=7 n=48 v=64
487936 On ch=7 n=48 v=0
488448 On ch=7 n=41 v=64
491008 On ch=7 n=41 v=0
516096 On ch=7 n=45 v=64
517120 On ch=7 n=45 v=0
517632 On ch=7 n=50 v=64
518656 On ch=7 n=50 v=0
519168 On ch=7 n=43 v=64
520192 On ch=7 n=43 v=0
520704 On ch=7 n=48 v=64
521728 On ch=7 n=48 v=0
522240 On ch=7 n=41 v=64
523264 On ch=7 n=41 v=0
528384 On ch=7 n=41 v=64
529408 On ch=7 n=41 v=0
529920 On ch=7 n=53 v=64
530944 On ch=7 n=53 v=0
534016 On ch=7 n=41 v=64
534400 On ch=7 n=41 v=0
534528 On ch=7 n=46 v=64
535552 On ch=7 n=46 v=0
535552 On ch=7 n=43 v=64
535936 On ch=7 n=43 v=0
536064 On ch=7 n=48 v=64
537088 On ch=7 n=48 v=0
537088 On ch=7 n=52 v=64
537472 On ch=7 n=52 v=0
537600 On ch=7 n=53 v=64
537984 On ch=7 n=53 v=0
538112 On ch=7 n=45 v=64
538496 On ch=7 n=45 v=0
538624 On ch=7 n=48 v=64
539008 On ch=7 n=48 v=0
539136 On ch=7 n=41 v=64
540160 On ch=7 n=41 v=0
544768 On ch=7 n=43 v=64
545024 On ch=7 n=43 v=0
545280 On ch=7 n=48 v=64
546304 On ch=7 n=48 v=0
550912 On ch=7 n=41 v=64
551168 On ch=7 n=41 v=0
551424 On ch=7 n=46 v=64
552448 On ch=7 n=46 v=0
555520 On ch=7 n=48 v=64
555904 On ch=7 n=48 v=0
556032 On ch=7 n=50 v=64
557568 On ch=7 n=50 v=0
558592 On ch=7 n=46 v=64
558976 On ch=7 n=46 v=0
559104 On ch=7 n=48 v=64
560640 On ch=7 n=48 v=0
561664 On ch=7 n=41 v=64
562048 On ch=7 n=41 v=0
562176 On ch=7 n=46 v=64
563712 On ch=7 n=46 v=0
565248 On ch=7 n=41 v=64
566272 On ch=7 n=41 v=0
566784 On ch=7 n=53 v=64
567808 On ch=7 n=53 v=0
568320 On ch=7 n=41 v=64
569344 On ch=7 n=41 v=0
569856 On ch=7 n=53 v=64
570880 On ch=7 n=53 v=0
575488 On ch=7 n=41 v=64
575872 On ch=7 n=41 v=0
576000 On ch=7 n=46 v=64
577024 On ch=7 n=46 v=0
581632 On ch=7 n=46 v=64
582016 On ch=7 n=46 v=0
582144 On ch=7 n=51 v=64
583168 On ch=7 n=51 v=0
583680 On ch=7 n=52 v=64
584704 On ch=7 n=52 v=0
585216 On ch=7 n=53 v=64
586240 On ch=7 n=53 v=0
586752 On ch=7 n=54 v=64
587776 On ch=7 n=54 v=0
588288 On ch=7 n=55 v=64
589312 On ch=7 n=55 v=0
589824 On ch=7 n=57 v=64
590848 On ch=7 n=57 v=0
591360 On ch=7 n=58 v=64
592384 On ch=7 n=58 v=0
592896 On ch=7 n=51 v=64
593920 On ch=7 n=51 v=0
594432 On ch=7 n=53 v=64
595456 On ch=7 n=53 v=0
608256 On ch=7 n=50 v=64
609280 On ch=7 n=50 v=0
609792 On ch=7 n=55 v=64
610816 On ch=7 n=55 v=0
611328 On ch=7 n=48 v=64
612352 On ch=7 n=48 v=0
612864 On ch=7 n=53 v=64
613888 On ch=7 n=53 v=0
614400 On ch=7 n=46 v=64
615424 On ch=7 n=46 v=0
620544 On ch=7 n=46 v=64
621568 On ch=7 n=46 v=0
622080 On ch=7 n=58 v=64
623104 On ch=7 n=58 v=0
623616 On ch=7 n=46 v=64
624640 On ch=7 n=46 v=0
625152 On ch=7 n=58 v=64
626176 On ch=7 n=58 v=0
632832 On ch=7 n=58 v=64
633856 On ch=7 n=58 v=0
634368 On ch=7 n=57 v=64
635392 On ch=7 n=57 v=0
635904 On ch=7 n=55 v=64
636928 On ch=7 n=55 v=0
637440 On ch=7 n=53 v=64
638464 On ch=7 n=53 v=0
638976 On ch=7 n=51 v=64
640000 On ch=7 n=51 v=0
640512 On ch=7 n=53 v=64
641536 On ch=7 n=53 v=0
642048 On ch=7 n=46 v=64
643072 On ch=7 n=46 v=0
643072 On ch=7 n=53 v=64
643456 On ch=7 n=53 v=0
643584 On ch=7 n=58 v=64
644096 On ch=7 n=58 v=0
644096 On ch=7 n=57 v=64
644480 On ch=7 n=57 v=0
644608 On ch=7 n=58 v=64
644992 On ch=7 n=58 v=0
645120 On ch=7 n=52 v=64
646144 On ch=7 n=52 v=0
646656 On ch=7 n=48 v=64
647680 On ch=7 n=48 v=0
648192 On ch=7 n=50 v=64
649216 On ch=7 n=50 v=0
649728 On ch=7 n=46 v=64
650752 On ch=7 n=46 v=0
651264 On ch=7 n=48 v=64
652288 On ch=7 n=48 v=0
652288 On ch=7 n=46 v=64
652672 On ch=7 n=46 v=0
652800 On ch=7 n=45 v=64
653824 On ch=7 n=45 v=0
653824 On ch=7 n=43 v=64
654208 On ch=7 n=43 v=0
654336 On ch=7 n=41 v=64
655360 On ch=7 n=41 v=0
655360 On ch=7 n=48 v=64
655744 On ch=7 n=48 v=0
655872 On ch=7 n=53 v=64
656384 On ch=7 n=53 v=0
656384 On ch=7 n=51 v=64
656768 On ch=7 n=51 v=0
656896 On ch=7 n=53 v=64
657280 On ch=7 n=53 v=0
657408 On ch=7 n=50 v=64
658432 On ch=7 n=50 v=0
658944 On ch=7 n=55 v=64
659968 On ch=7 n=55 v=0
660480 On ch=7 n=48 v=64
661504 On ch=7 n=48 v=0
662016 On ch=7 n=53 v=64
663040 On ch=7 n=53 v=0
663552 On ch=7 n=46 v=64
664576 On ch=7 n=46 v=0
664576 On ch=7 n=58 v=64
664960 On ch=7 n=58 v=0
665088 On ch=7 n=46 v=64
666112 On ch=7 n=46 v=0
666112 On ch=7 n=58 v=64
666496 On ch=7 n=58 v=0
666624 On ch=7 n=46 v=64
667648 On ch=7 n=46 v=0
667648 On ch=7 n=58 v=64
668032 On ch=7 n=58 v=0
668160 On ch=7 n=46 v=64
669184 On ch=7 n=46 v=0
669184 On ch=7 n=58 v=64
669568 On ch=7 n=58 v=0
669696 On ch=7 n=46 v=64
670720 On ch=7 n=46 v=0
671232 On ch=7 n=58 v=64
672256 On ch=7 n=58 v=0
672768 On ch=7 n=46 v=64
673792 On ch=7 n=46 v=0
674304 On ch=7 n=58 v=64
675328 On ch=7 n=58 v=0
675328 On ch=7 n=46 v=64
675712 On ch=7 n=46 v=0
675840 On ch=7 n=51 v=64
676864 On ch=7 n=51 v=0
676864 On ch=7 n=48 v=64
677248 On ch=7 n=48 v=0
677376 On ch=7 n=53 v=64
678400 On ch=7 n=53 v=0
678400 On ch=7 n=45 v=64
678784 On ch=7 n=45 v=0
678912 On ch=7 n=46 v=64
679296 On ch=7 n=46 v=0
679424 On ch=7 n=38 v=64
679808 On ch=7 n=38 v=0
679936 On ch=7 n=41 v=64
680320 On ch=7 n=41 v=0
680448 On ch=7 n=34 v=64
683520 On ch=7 n=34 v=0
688128 Par ch=7 c=121 v=127
688128 Meta TrkEnd
TrkEnd
MTrk
0 Meta TrkName "seq. by David Siu   dss@po.cwru.edu"
688128 Meta TrkEnd
TrkEnd