MFile 1 27 480
MTrk
0 TimeSig 4/4 24 8
0 KeySig 2 major
0 Tempo 526316
0 Meta Marker "This file was composed in direct accordance with the Eulenberg Edition of
"The Messiah" (oratorio by George Frederick Handel)."
175200 Tempo 789474
175200 Meta TrkEnd
TrkEnd
MTrk
0 Meta 0x21 00
0 Meta TrkName "Oboe 1-2"
0 PrCh ch=1 p=68
0 Par ch=1 c=7 v=110
0 Par ch=1 c=10 v=30
30 Par ch=1 c=91 v=80
7680 On ch=1 n=74 v=100
8250 On ch=1 n=74 v=0
8406 On ch=1 n=69 v=100
8596 On ch=1 n=69 v=0
8640 On ch=1 n=71 v=100
8830 On ch=1 n=71 v=0
8886 On ch=1 n=69 v=100
9076 On ch=1 n=69 v=0
9600 On ch=1 n=74 v=100
10170 On ch=1 n=74 v=0
10326 On ch=1 n=69 v=100
10516 On ch=1 n=69 v=0
10560 On ch=1 n=71 v=100
10750 On ch=1 n=71 v=0
10806 On ch=1 n=69 v=100
10996 On ch=1 n=69 v=0
11273 On ch=1 n=74 v=100
11368 On ch=1 n=74 v=0
11403 On ch=1 n=74 v=100
11498 On ch=1 n=74 v=0
11520 On ch=1 n=74 v=100
11710 On ch=1 n=74 v=0
11766 On ch=1 n=74 v=100
11956 On ch=1 n=74 v=0
12233 On ch=1 n=74 v=100
12328 On ch=1 n=74 v=0
12363 On ch=1 n=74 v=100
12458 On ch=1 n=74 v=0
12480 On ch=1 n=74 v=100
12670 On ch=1 n=74 v=0
12726 On ch=1 n=74 v=100
12916 On ch=1 n=74 v=0
13206 On ch=1 n=74 v=100
13396 On ch=1 n=74 v=0
13440 On ch=1 n=73 v=100
13630 On ch=1 n=73 v=0
13686 On ch=1 n=74 v=100
14066 On ch=1 n=74 v=0
14166 On ch=1 n=73 v=100
14356 On ch=1 n=73 v=0
14400 On ch=1 n=74 v=100
14780 On ch=1 n=74 v=0
15360 On ch=1 n=76 v=100
15930 On ch=1 n=76 v=0
16086 On ch=1 n=69 v=100
16276 On ch=1 n=69 v=0
16320 On ch=1 n=78 v=100
16510 On ch=1 n=78 v=0
16566 On ch=1 n=76 v=100
16756 On ch=1 n=76 v=0
17280 On ch=1 n=76 v=100
17850 On ch=1 n=76 v=0
18006 On ch=1 n=69 v=100
18196 On ch=1 n=69 v=0
18240 On ch=1 n=78 v=100
18430 On ch=1 n=78 v=0
18486 On ch=1 n=76 v=100
18676 On ch=1 n=76 v=0
18953 On ch=1 n=76 v=100
19048 On ch=1 n=76 v=0
19083 On ch=1 n=76 v=100
19178 On ch=1 n=76 v=0
19200 On ch=1 n=78 v=100
19390 On ch=1 n=78 v=0
19446 On ch=1 n=76 v=100
19636 On ch=1 n=76 v=0
19913 On ch=1 n=76 v=100
20008 On ch=1 n=76 v=0
20043 On ch=1 n=76 v=100
20138 On ch=1 n=76 v=0
20160 On ch=1 n=78 v=100
20350 On ch=1 n=78 v=0
20406 On ch=1 n=76 v=100
20596 On ch=1 n=76 v=0
20886 On ch=1 n=76 v=100
21076 On ch=1 n=76 v=0
21120 On ch=1 n=78 v=100
21310 On ch=1 n=78 v=0
21366 On ch=1 n=76 v=100
21556 On ch=1 n=76 v=0
21600 On ch=1 n=74 v=100
21980 On ch=1 n=74 v=0
22080 On ch=1 n=73 v=100
22460 On ch=1 n=73 v=0
23040 On ch=1 n=69 v=100
23800 On ch=1 n=69 v=0
24000 On ch=1 n=71 v=100
24380 On ch=1 n=71 v=0
24480 On ch=1 n=73 v=100
24860 On ch=1 n=73 v=0
24960 On ch=1 n=74 v=100
25150 On ch=1 n=74 v=0
25206 On ch=1 n=62 v=100
25396 On ch=1 n=62 v=0
25440 On ch=1 n=74 v=100
26010 On ch=1 n=74 v=0
26166 On ch=1 n=74 v=100
26356 On ch=1 n=74 v=0
26400 On ch=1 n=73 v=100
26780 On ch=1 n=73 v=0
26880 On ch=1 n=71 v=100
27640 On ch=1 n=71 v=0
27840 On ch=1 n=69 v=100
28220 On ch=1 n=69 v=0
28553 On ch=1 n=76 v=100
28648 On ch=1 n=76 v=0
28683 On ch=1 n=76 v=100
28778 On ch=1 n=76 v=0
28800 On ch=1 n=74 v=100
28990 On ch=1 n=74 v=0
29046 On ch=1 n=73 v=100
29236 On ch=1 n=73 v=0
29513 On ch=1 n=76 v=100
29608 On ch=1 n=76 v=0
29643 On ch=1 n=76 v=100
29738 On ch=1 n=76 v=0
29760 On ch=1 n=74 v=100
29950 On ch=1 n=74 v=0
30006 On ch=1 n=73 v=100
30196 On ch=1 n=73 v=0
30473 On ch=1 n=76 v=100
30568 On ch=1 n=76 v=0
30603 On ch=1 n=76 v=100
30698 On ch=1 n=76 v=0
30720 On ch=1 n=78 v=100
30910 On ch=1 n=78 v=0
30953 On ch=1 n=76 v=100
31143 On ch=1 n=76 v=0
31433 On ch=1 n=76 v=100
31528 On ch=1 n=76 v=0
31563 On ch=1 n=76 v=100
31658 On ch=1 n=76 v=0
31680 On ch=1 n=78 v=100
31870 On ch=1 n=78 v=0
31926 On ch=1 n=76 v=100
32116 On ch=1 n=76 v=0
38153 On ch=1 n=74 v=100
38248 On ch=1 n=74 v=0
38283 On ch=1 n=74 v=100
38378 On ch=1 n=74 v=0
38400 On ch=1 n=74 v=100
38590 On ch=1 n=74 v=0
38646 On ch=1 n=74 v=100
38836 On ch=1 n=74 v=0
39100 On ch=1 n=74 v=100
39195 On ch=1 n=74 v=0
39243 On ch=1 n=74 v=100
39338 On ch=1 n=74 v=0
39360 On ch=1 n=74 v=100
39550 On ch=1 n=74 v=0
39606 On ch=1 n=74 v=100
39796 On ch=1 n=74 v=0
40073 On ch=1 n=74 v=100
40168 On ch=1 n=74 v=0
40203 On ch=1 n=74 v=100
40298 On ch=1 n=74 v=0
40320 On ch=1 n=74 v=100
40510 On ch=1 n=74 v=0
40566 On ch=1 n=74 v=100
40756 On ch=1 n=74 v=0
41020 On ch=1 n=74 v=100
41115 On ch=1 n=74 v=0
41163 On ch=1 n=74 v=100
41258 On ch=1 n=74 v=0
41280 On ch=1 n=74 v=100
41470 On ch=1 n=74 v=0
41526 On ch=1 n=74 v=100
41716 On ch=1 n=74 v=0
42240 On ch=1 n=74 v=100
43000 On ch=1 n=74 v=0
43200 On ch=1 n=76 v=100
43580 On ch=1 n=76 v=0
43680 On ch=1 n=78 v=100
44060 On ch=1 n=78 v=0
44160 On ch=1 n=79 v=100
44350 On ch=1 n=79 v=0
44406 On ch=1 n=67 v=100
44596 On ch=1 n=67 v=0
44640 On ch=1 n=79 v=100
45210 On ch=1 n=79 v=0
45366 On ch=1 n=79 v=100
45556 On ch=1 n=79 v=0
45600 On ch=1 n=78 v=100
45980 On ch=1 n=78 v=0
46080 On ch=1 n=76 v=100
46840 On ch=1 n=76 v=0
47040 On ch=1 n=74 v=100
47420 On ch=1 n=74 v=0
47753 On ch=1 n=74 v=100
47848 On ch=1 n=74 v=0
47883 On ch=1 n=74 v=100
47978 On ch=1 n=74 v=0
48000 On ch=1 n=73 v=100
48190 On ch=1 n=73 v=0
48246 On ch=1 n=69 v=100
48436 On ch=1 n=69 v=0
48713 On ch=1 n=73 v=100
48808 On ch=1 n=73 v=0
48843 On ch=1 n=73 v=100
48938 On ch=1 n=73 v=0
48960 On ch=1 n=74 v=100
49150 On ch=1 n=74 v=0
49193 On ch=1 n=74 v=100
49288 On ch=1 n=74 v=0
49323 On ch=1 n=74 v=100
49418 On ch=1 n=74 v=0
49440 On ch=1 n=76 v=100
49630 On ch=1 n=76 v=0
49686 On ch=1 n=76 v=100
49876 On ch=1 n=76 v=0
49920 On ch=1 n=69 v=100
50300 On ch=1 n=69 v=0
50633 On ch=1 n=74 v=100
50728 On ch=1 n=74 v=0
50763 On ch=1 n=73 v=100
50858 On ch=1 n=73 v=0
50880 On ch=1 n=71 v=100
51070 On ch=1 n=71 v=0
51126 On ch=1 n=71 v=100
51316 On ch=1 n=71 v=0
51606 On ch=1 n=76 v=100
51796 On ch=1 n=76 v=0
51840 On ch=1 n=74 v=100
52030 On ch=1 n=74 v=0
52086 On ch=1 n=73 v=100
52276 On ch=1 n=73 v=0
52320 On ch=1 n=74 v=100
52510 On ch=1 n=74 v=0
52553 On ch=1 n=76 v=100
52648 On ch=1 n=76 v=0
52683 On ch=1 n=74 v=100
52778 On ch=1 n=74 v=0
52800 On ch=1 n=73 v=100
52990 On ch=1 n=73 v=0
53033 On ch=1 n=73 v=100
53128 On ch=1 n=73 v=0
53163 On ch=1 n=73 v=100
53258 On ch=1 n=73 v=0
53280 On ch=1 n=76 v=100
53470 On ch=1 n=76 v=0
53526 On ch=1 n=73 v=100
53716 On ch=1 n=73 v=0
53993 On ch=1 n=69 v=100
54088 On ch=1 n=69 v=0
54123 On ch=1 n=69 v=100
54218 On ch=1 n=69 v=0
54240 On ch=1 n=74 v=100
54430 On ch=1 n=74 v=0
54486 On ch=1 n=69 v=100
54676 On ch=1 n=69 v=0
54953 On ch=1 n=73 v=100
55048 On ch=1 n=73 v=0
55083 On ch=1 n=73 v=100
55178 On ch=1 n=73 v=0
55200 On ch=1 n=76 v=100
55390 On ch=1 n=76 v=0
55446 On ch=1 n=73 v=100
55636 On ch=1 n=73 v=0
55913 On ch=1 n=69 v=100
56008 On ch=1 n=69 v=0
56043 On ch=1 n=69 v=100
56138 On ch=1 n=69 v=0
56160 On ch=1 n=78 v=100
56350 On ch=1 n=78 v=0
56406 On ch=1 n=74 v=100
56596 On ch=1 n=74 v=0
56873 On ch=1 n=73 v=100
56968 On ch=1 n=73 v=0
57003 On ch=1 n=73 v=100
57098 On ch=1 n=73 v=0
57120 On ch=1 n=74 v=100
57310 On ch=1 n=74 v=0
57366 On ch=1 n=69 v=100
57556 On ch=1 n=69 v=0
57833 On ch=1 n=71 v=100
57928 On ch=1 n=71 v=0
57963 On ch=1 n=71 v=100
58058 On ch=1 n=71 v=0
58080 On ch=1 n=76 v=100
58270 On ch=1 n=76 v=0
58326 On ch=1 n=76 v=100
58516 On ch=1 n=76 v=0
58793 On ch=1 n=73 v=100
58888 On ch=1 n=73 v=0
58923 On ch=1 n=73 v=100
59018 On ch=1 n=73 v=0
59040 On ch=1 n=74 v=100
59230 On ch=1 n=74 v=0
59273 On ch=1 n=74 v=100
59368 On ch=1 n=74 v=0
59403 On ch=1 n=74 v=100
59498 On ch=1 n=74 v=0
59520 On ch=1 n=74 v=100
59900 On ch=1 n=74 v=0
60000 On ch=1 n=73 v=100
60380 On ch=1 n=73 v=0
60480 On ch=1 n=74 v=100
60860 On ch=1 n=74 v=0
60960 On ch=1 n=74 v=100
61340 On ch=1 n=74 v=0
61440 On ch=1 n=74 v=100
61820 On ch=1 n=74 v=0
61920 On ch=1 n=74 v=100
62300 On ch=1 n=74 v=0
62400 On ch=1 n=74 v=100
63160 On ch=1 n=74 v=0
64800 On ch=1 n=69 v=100
65180 On ch=1 n=69 v=0
65280 On ch=1 n=69 v=100
65660 On ch=1 n=69 v=0
65760 On ch=1 n=67 v=100
66140 On ch=1 n=67 v=0
66240 On ch=1 n=66 v=100
66620 On ch=1 n=66 v=0
66720 On ch=1 n=64 v=100
67005 On ch=1 n=64 v=0
67083 On ch=1 n=62 v=100
67178 On ch=1 n=62 v=0
67200 On ch=1 n=62 v=100
68721 On ch=1 n=62 v=0
70080 On ch=1 n=66 v=100
70460 On ch=1 n=66 v=0
70560 On ch=1 n=64 v=100
70845 On ch=1 n=64 v=0
70923 On ch=1 n=62 v=100
71018 On ch=1 n=62 v=0
71040 On ch=1 n=62 v=100
72180 On ch=1 n=62 v=0
72480 On ch=1 n=78 v=100
72860 On ch=1 n=78 v=0
72960 On ch=1 n=76 v=100
73340 On ch=1 n=76 v=0
73440 On ch=1 n=74 v=100
73820 On ch=1 n=74 v=0
73920 On ch=1 n=74 v=100
74300 On ch=1 n=74 v=0
74400 On ch=1 n=73 v=100
74780 On ch=1 n=73 v=0
74880 On ch=1 n=74 v=100
75450 On ch=1 n=74 v=0
75606 On ch=1 n=73 v=100
75796 On ch=1 n=73 v=0
75840 On ch=1 n=74 v=100
76220 On ch=1 n=74 v=0
76320 On ch=1 n=74 v=100
76700 On ch=1 n=74 v=0
76800 On ch=1 n=73 v=100
77370 On ch=1 n=73 v=0
77513 On ch=1 n=69 v=100
77703 On ch=1 n=69 v=0
77760 On ch=1 n=71 v=100
78140 On ch=1 n=71 v=0
78240 On ch=1 n=73 v=100
78620 On ch=1 n=73 v=0
78720 On ch=1 n=74 v=100
79480 On ch=1 n=74 v=0
93600 On ch=1 n=74 v=100
93980 On ch=1 n=74 v=0
94080 On ch=1 n=81 v=100
94460 On ch=1 n=81 v=0
94560 On ch=1 n=73 v=100
94940 On ch=1 n=73 v=0
95040 On ch=1 n=78 v=100
95420 On ch=1 n=78 v=0
95520 On ch=1 n=69 v=100
95900 On ch=1 n=69 v=0
96000 On ch=1 n=74 v=100
96380 On ch=1 n=74 v=0
96480 On ch=1 n=73 v=100
96670 On ch=1 n=73 v=0
96726 On ch=1 n=71 v=100
96916 On ch=1 n=71 v=0
96960 On ch=1 n=73 v=100
97340 On ch=1 n=73 v=0
97440 On ch=1 n=71 v=100
97725 On ch=1 n=71 v=0
97803 On ch=1 n=69 v=100
97898 On ch=1 n=69 v=0
97920 On ch=1 n=69 v=100
98680 On ch=1 n=69 v=0
98880 On ch=1 n=69 v=100
99260 On ch=1 n=69 v=0
99360 On ch=1 n=69 v=100
99740 On ch=1 n=69 v=0
99840 On ch=1 n=69 v=100
103256 On ch=1 n=69 v=0
104160 On ch=1 n=69 v=100
104540 On ch=1 n=69 v=0
104640 On ch=1 n=69 v=100
105020 On ch=1 n=69 v=0
105120 On ch=1 n=69 v=100
105500 On ch=1 n=69 v=0
105600 On ch=1 n=69 v=100
109016 On ch=1 n=69 v=0
110400 On ch=1 n=74 v=100
110780 On ch=1 n=74 v=0
110880 On ch=1 n=74 v=100
111260 On ch=1 n=74 v=0
111360 On ch=1 n=74 v=100
115534 On ch=1 n=74 v=0
115680 On ch=1 n=74 v=100
116060 On ch=1 n=74 v=0
116160 On ch=1 n=76 v=100
116540 On ch=1 n=76 v=0
116640 On ch=1 n=76 v=100
117020 On ch=1 n=76 v=0
117120 On ch=1 n=76 v=100
121679 On ch=1 n=76 v=0
121920 On ch=1 n=78 v=100
122300 On ch=1 n=78 v=0
122400 On ch=1 n=78 v=100
122780 On ch=1 n=78 v=0
122880 On ch=1 n=78 v=100
127246 On ch=1 n=78 v=0
127433 On ch=1 n=78 v=100
127623 On ch=1 n=78 v=0
127680 On ch=1 n=79 v=100
128060 On ch=1 n=79 v=0
128160 On ch=1 n=79 v=100
128540 On ch=1 n=79 v=0
128640 On ch=1 n=79 v=100
131105 On ch=1 n=79 v=0
131286 On ch=1 n=79 v=100
131476 On ch=1 n=79 v=0
131520 On ch=1 n=78 v=100
131710 On ch=1 n=78 v=0
131766 On ch=1 n=76 v=100
131956 On ch=1 n=76 v=0
132000 On ch=1 n=78 v=100
132190 On ch=1 n=78 v=0
132246 On ch=1 n=79 v=100
132436 On ch=1 n=79 v=0
132480 On ch=1 n=76 v=100
133240 On ch=1 n=76 v=0
133686 On ch=1 n=73 v=100
133876 On ch=1 n=73 v=0
133920 On ch=1 n=74 v=100
134110 On ch=1 n=74 v=0
134166 On ch=1 n=76 v=100
134356 On ch=1 n=76 v=0
134400 On ch=1 n=69 v=100
134780 On ch=1 n=69 v=0
137760 On ch=1 n=69 v=100
138140 On ch=1 n=69 v=0
138240 On ch=1 n=74 v=100
138620 On ch=1 n=74 v=0
138720 On ch=1 n=66 v=100
139100 On ch=1 n=66 v=0
139200 On ch=1 n=71 v=100
139580 On ch=1 n=71 v=0
139680 On ch=1 n=62 v=100
140060 On ch=1 n=62 v=0
140160 On ch=1 n=67 v=100
140540 On ch=1 n=67 v=0
140640 On ch=1 n=66 v=100
140830 On ch=1 n=66 v=0
140886 On ch=1 n=64 v=100
141076 On ch=1 n=64 v=0
141120 On ch=1 n=66 v=100
141500 On ch=1 n=66 v=0
141600 On ch=1 n=64 v=100
141885 On ch=1 n=64 v=0
141963 On ch=1 n=62 v=100
142058 On ch=1 n=62 v=0
142080 On ch=1 n=62 v=100
142840 On ch=1 n=62 v=0
144726 On ch=1 n=74 v=100
144916 On ch=1 n=74 v=0
144960 On ch=1 n=79 v=100
145150 On ch=1 n=79 v=0
145206 On ch=1 n=78 v=100
145396 On ch=1 n=78 v=0
145686 On ch=1 n=74 v=100
145876 On ch=1 n=74 v=0
145920 On ch=1 n=79 v=100
146110 On ch=1 n=79 v=0
146166 On ch=1 n=78 v=100
146356 On ch=1 n=78 v=0
148553 On ch=1 n=74 v=100
148648 On ch=1 n=74 v=0
148683 On ch=1 n=74 v=100
148778 On ch=1 n=74 v=0
148800 On ch=1 n=79 v=100
148990 On ch=1 n=79 v=0
149046 On ch=1 n=78 v=100
149236 On ch=1 n=78 v=0
149513 On ch=1 n=74 v=100
149608 On ch=1 n=74 v=0
149643 On ch=1 n=74 v=100
149738 On ch=1 n=74 v=0
149760 On ch=1 n=79 v=100
149950 On ch=1 n=79 v=0
149993 On ch=1 n=78 v=100
150183 On ch=1 n=78 v=0
150486 On ch=1 n=69 v=100
150676 On ch=1 n=69 v=0
150720 On ch=1 n=69 v=100
151100 On ch=1 n=69 v=0
151200 On ch=1 n=74 v=100
151580 On ch=1 n=74 v=0
151680 On ch=1 n=78 v=100
152060 On ch=1 n=78 v=0
152160 On ch=1 n=74 v=100
152540 On ch=1 n=74 v=0
152640 On ch=1 n=74 v=100
153020 On ch=1 n=74 v=0
153120 On ch=1 n=69 v=100
153310 On ch=1 n=69 v=0
153366 On ch=1 n=69 v=100
153556 On ch=1 n=69 v=0
153600 On ch=1 n=73 v=100
153980 On ch=1 n=73 v=0
154080 On ch=1 n=74 v=100
154270 On ch=1 n=74 v=0
154326 On ch=1 n=74 v=100
154516 On ch=1 n=74 v=0
154560 On ch=1 n=74 v=100
154940 On ch=1 n=74 v=0
155040 On ch=1 n=73 v=100
155420 On ch=1 n=73 v=0
155520 On ch=1 n=74 v=100
155900 On ch=1 n=74 v=0
156480 On ch=1 n=69 v=100
156860 On ch=1 n=69 v=0
156960 On ch=1 n=69 v=100
157340 On ch=1 n=69 v=0
157440 On ch=1 n=74 v=100
157820 On ch=1 n=74 v=0
158166 On ch=1 n=69 v=100
158356 On ch=1 n=69 v=0
158400 On ch=1 n=69 v=100
158780 On ch=1 n=69 v=0
158880 On ch=1 n=69 v=100
159260 On ch=1 n=69 v=0
159360 On ch=1 n=74 v=100
159740 On ch=1 n=74 v=0
160320 On ch=1 n=69 v=100
160700 On ch=1 n=69 v=0
160800 On ch=1 n=69 v=100
161180 On ch=1 n=69 v=0
161280 On ch=1 n=74 v=100
161660 On ch=1 n=74 v=0
162006 On ch=1 n=69 v=100
162196 On ch=1 n=69 v=0
162240 On ch=1 n=69 v=100
162620 On ch=1 n=69 v=0
162720 On ch=1 n=69 v=100
163100 On ch=1 n=69 v=0
163200 On ch=1 n=74 v=100
163580 On ch=1 n=74 v=0
164640 On ch=1 n=69 v=100
165020 On ch=1 n=69 v=0
165120 On ch=1 n=74 v=100
165500 On ch=1 n=74 v=0
165600 On ch=1 n=78 v=100
165980 On ch=1 n=78 v=0
166080 On ch=1 n=71 v=100
166460 On ch=1 n=71 v=0
166560 On ch=1 n=74 v=100
166940 On ch=1 n=74 v=0
167040 On ch=1 n=79 v=100
167420 On ch=1 n=79 v=0
167520 On ch=1 n=78 v=100
167710 On ch=1 n=78 v=0
167766 On ch=1 n=76 v=100
167956 On ch=1 n=76 v=0
168000 On ch=1 n=76 v=100
168760 On ch=1 n=76 v=0
168960 On ch=1 n=74 v=100
169340 On ch=1 n=74 v=0
169920 On ch=1 n=74 v=100
170300 On ch=1 n=74 v=0
170400 On ch=1 n=74 v=100
170780 On ch=1 n=74 v=0
170880 On ch=1 n=74 v=100
171260 On ch=1 n=74 v=0
171606 On ch=1 n=74 v=100
171796 On ch=1 n=74 v=0
171840 On ch=1 n=74 v=100
172220 On ch=1 n=74 v=0
172320 On ch=1 n=74 v=100
172700 On ch=1 n=74 v=0
172800 On ch=1 n=74 v=100
173180 On ch=1 n=74 v=0
173513 On ch=1 n=74 v=100
173608 On ch=1 n=74 v=0
173643 On ch=1 n=74 v=100
173738 On ch=1 n=74 v=0
173760 On ch=1 n=74 v=100
173950 On ch=1 n=74 v=0
174006 On ch=1 n=74 v=100
174196 On ch=1 n=74 v=0
174473 On ch=1 n=74 v=100
174568 On ch=1 n=74 v=0
174603 On ch=1 n=74 v=100
174698 On ch=1 n=74 v=0
174720 On ch=1 n=74 v=100
174910 On ch=1 n=74 v=0
174966 On ch=1 n=74 v=100
175156 On ch=1 n=74 v=0
175433 On ch=1 n=74 v=100
175528 On ch=1 n=74 v=0
175563 On ch=1 n=74 v=100
175658 On ch=1 n=74 v=0
175680 On ch=1 n=74 v=100
175870 On ch=1 n=74 v=0
175926 On ch=1 n=74 v=100
176116 On ch=1 n=74 v=0
176393 On ch=1 n=74 v=100
176488 On ch=1 n=74 v=0
176523 On ch=1 n=74 v=100
176618 On ch=1 n=74 v=0
176640 On ch=1 n=74 v=100
176830 On ch=1 n=74 v=0
176886 On ch=1 n=74 v=100
177076 On ch=1 n=74 v=0
178080 On ch=1 n=74 v=100
178460 On ch=1 n=74 v=0
178560 On ch=1 n=74 v=100
179700 On ch=1 n=74 v=0
180000 On ch=1 n=74 v=100
180380 On ch=1 n=74 v=0
180480 On ch=1 n=74 v=100
182001 On ch=1 n=74 v=0
182001 Meta TrkEnd
TrkEnd
MTrk
0 Meta 0x21 00
0 Meta TrkName "Bassoon 1-2"
0 PrCh ch=2 p=70
0 Par ch=2 c=7 v=90
0 Par ch=2 c=10 v=70
61 Par ch=2 c=91 v=80
1920 On ch=2 n=50 v=100
2110 On ch=2 n=50 v=0
2166 On ch=2 n=52 v=100
2356 On ch=2 n=52 v=0
2400 On ch=2 n=54 v=100
2590 On ch=2 n=54 v=0
2646 On ch=2 n=50 v=100
2836 On ch=2 n=50 v=0
2880 On ch=2 n=55 v=100
3070 On ch=2 n=55 v=0
3126 On ch=2 n=50 v=100
3316 On ch=2 n=50 v=0
3360 On ch=2 n=52 v=100
3550 On ch=2 n=52 v=0
3606 On ch=2 n=57 v=100
3796 On ch=2 n=57 v=0
3840 On ch=2 n=50 v=100
4030 On ch=2 n=50 v=0
4086 On ch=2 n=52 v=100
4276 On ch=2 n=52 v=0
4320 On ch=2 n=54 v=100
4510 On ch=2 n=54 v=0
4566 On ch=2 n=50 v=100
4756 On ch=2 n=50 v=0
4800 On ch=2 n=52 v=100
4990 On ch=2 n=52 v=0
5046 On ch=2 n=50 v=100
5236 On ch=2 n=50 v=0
5526 On ch=2 n=54 v=100
5716 On ch=2 n=54 v=0
5760 On ch=2 n=52 v=100
5950 On ch=2 n=52 v=0
6006 On ch=2 n=50 v=100
6196 On ch=2 n=50 v=0
6240 On ch=2 n=57 v=100
6430 On ch=2 n=57 v=0
6486 On ch=2 n=45 v=100
6676 On ch=2 n=45 v=0
6720 On ch=2 n=50 v=100
7100 On ch=2 n=50 v=0
7680 On ch=2 n=50 v=100
7870 On ch=2 n=50 v=0
7926 On ch=2 n=50 v=100
8116 On ch=2 n=50 v=0
8160 On ch=2 n=52 v=100
8350 On ch=2 n=52 v=0
8406 On ch=2 n=54 v=100
8596 On ch=2 n=54 v=0
8640 On ch=2 n=55 v=100
8830 On ch=2 n=55 v=0
8886 On ch=2 n=50 v=100
9076 On ch=2 n=50 v=0
9600 On ch=2 n=50 v=100
9790 On ch=2 n=50 v=0
9846 On ch=2 n=50 v=100
10036 On ch=2 n=50 v=0
10080 On ch=2 n=52 v=100
10270 On ch=2 n=52 v=0
10326 On ch=2 n=54 v=100
10516 On ch=2 n=54 v=0
10560 On ch=2 n=55 v=100
10750 On ch=2 n=55 v=0
10806 On ch=2 n=50 v=100
10996 On ch=2 n=50 v=0
11273 On ch=2 n=54 v=100
11368 On ch=2 n=54 v=0
11403 On ch=2 n=54 v=100
11498 On ch=2 n=54 v=0
11520 On ch=2 n=55 v=100
11710 On ch=2 n=55 v=0
11766 On ch=2 n=50 v=100
11956 On ch=2 n=50 v=0
12233 On ch=2 n=54 v=100
12328 On ch=2 n=54 v=0
12363 On ch=2 n=54 v=100
12458 On ch=2 n=54 v=0
12480 On ch=2 n=55 v=100
12670 On ch=2 n=55 v=0
12726 On ch=2 n=50 v=100
12916 On ch=2 n=50 v=0
13206 On ch=2 n=54 v=100
13396 On ch=2 n=54 v=0
13440 On ch=2 n=52 v=100
13630 On ch=2 n=52 v=0
13686 On ch=2 n=50 v=100
13876 On ch=2 n=50 v=0
13920 On ch=2 n=57 v=100
14110 On ch=2 n=57 v=0
14166 On ch=2 n=45 v=100
14356 On ch=2 n=45 v=0
14400 On ch=2 n=50 v=100
14590 On ch=2 n=50 v=0
14646 On ch=2 n=54 v=100
14836 On ch=2 n=54 v=0
14880 On ch=2 n=52 v=100
15070 On ch=2 n=52 v=0
15126 On ch=2 n=50 v=100
15316 On ch=2 n=50 v=0
15360 On ch=2 n=57 v=100
15930 On ch=2 n=57 v=0
16086 On ch=2 n=61 v=100
16276 On ch=2 n=61 v=0
16320 On ch=2 n=62 v=100
16510 On ch=2 n=62 v=0
16566 On ch=2 n=57 v=100
16756 On ch=2 n=57 v=0
17280 On ch=2 n=57 v=100
17850 On ch=2 n=57 v=0
18006 On ch=2 n=61 v=100
18196 On ch=2 n=61 v=0
18240 On ch=2 n=62 v=100
18430 On ch=2 n=62 v=0
18486 On ch=2 n=57 v=100
18676 On ch=2 n=57 v=0
18953 On ch=2 n=61 v=100
19048 On ch=2 n=61 v=0
19083 On ch=2 n=61 v=100
19178 On ch=2 n=61 v=0
19200 On ch=2 n=62 v=100
19390 On ch=2 n=62 v=0
19446 On ch=2 n=57 v=100
19636 On ch=2 n=57 v=0
19913 On ch=2 n=61 v=100
20008 On ch=2 n=61 v=0
20043 On ch=2 n=61 v=100
20138 On ch=2 n=61 v=0
20160 On ch=2 n=62 v=100
20350 On ch=2 n=62 v=0
20406 On ch=2 n=57 v=100
20596 On ch=2 n=57 v=0
20886 On ch=2 n=61 v=100
21076 On ch=2 n=61 v=0
21120 On ch=2 n=62 v=100
21310 On ch=2 n=62 v=0
21366 On ch=2 n=61 v=100
21556 On ch=2 n=61 v=0
21600 On ch=2 n=59 v=100
21980 On ch=2 n=59 v=0
22080 On ch=2 n=57 v=100
22460 On ch=2 n=57 v=0
23040 On ch=2 n=57 v=100
23800 On ch=2 n=57 v=0
24000 On ch=2 n=59 v=100
24380 On ch=2 n=59 v=0
24480 On ch=2 n=61 v=100
24860 On ch=2 n=61 v=0
24960 On ch=2 n=62 v=100
25150 On ch=2 n=62 v=0
25206 On ch=2 n=50 v=100
25396 On ch=2 n=50 v=0
25440 On ch=2 n=62 v=100
26200 On ch=2 n=62 v=0
26400 On ch=2 n=61 v=100
26780 On ch=2 n=61 v=0
26880 On ch=2 n=59 v=100
27640 On ch=2 n=59 v=0
27840 On ch=2 n=57 v=100
28220 On ch=2 n=57 v=0
28553 On ch=2 n=61 v=100
28648 On ch=2 n=61 v=0
28683 On ch=2 n=61 v=100
28778 On ch=2 n=61 v=0
28800 On ch=2 n=62 v=100
28990 On ch=2 n=62 v=0
29046 On ch=2 n=57 v=100
29236 On ch=2 n=57 v=0
29513 On ch=2 n=61 v=100
29608 On ch=2 n=61 v=0
29643 On ch=2 n=61 v=100
29738 On ch=2 n=61 v=0
29760 On ch=2 n=62 v=100
29950 On ch=2 n=62 v=0
30006 On ch=2 n=57 v=100
30196 On ch=2 n=57 v=0
30473 On ch=2 n=61 v=100
30568 On ch=2 n=61 v=0
30603 On ch=2 n=61 v=100
30698 On ch=2 n=61 v=0
30720 On ch=2 n=62 v=100
30910 On ch=2 n=62 v=0
30966 On ch=2 n=57 v=100
31156 On ch=2 n=57 v=0
31433 On ch=2 n=61 v=100
31528 On ch=2 n=61 v=0
31563 On ch=2 n=61 v=100
31658 On ch=2 n=61 v=0
31680 On ch=2 n=62 v=100
31870 On ch=2 n=62 v=0
31926 On ch=2 n=57 v=100
32116 On ch=2 n=57 v=0
32640 On ch=2 n=50 v=100
33400 On ch=2 n=50 v=0
33600 On ch=2 n=52 v=100
33980 On ch=2 n=52 v=0
34080 On ch=2 n=54 v=100
34460 On ch=2 n=54 v=0
34560 On ch=2 n=55 v=100
34750 On ch=2 n=55 v=0
34806 On ch=2 n=43 v=100
34996 On ch=2 n=43 v=0
35040 On ch=2 n=55 v=100
35800 On ch=2 n=55 v=0
36000 On ch=2 n=54 v=100
36380 On ch=2 n=54 v=0
36480 On ch=2 n=52 v=100
37240 On ch=2 n=52 v=0
37440 On ch=2 n=50 v=100
37820 On ch=2 n=50 v=0
38153 On ch=2 n=54 v=100
38248 On ch=2 n=54 v=0
38283 On ch=2 n=54 v=100
38378 On ch=2 n=54 v=0
38400 On ch=2 n=55 v=100
38590 On ch=2 n=55 v=0
38646 On ch=2 n=50 v=100
38836 On ch=2 n=50 v=0
39113 On ch=2 n=54 v=100
39208 On ch=2 n=54 v=0
39243 On ch=2 n=54 v=100
39338 On ch=2 n=54 v=0
39360 On ch=2 n=55 v=100
39550 On ch=2 n=55 v=0
39606 On ch=2 n=50 v=100
39796 On ch=2 n=50 v=0
40073 On ch=2 n=54 v=100
40168 On ch=2 n=54 v=0
40203 On ch=2 n=54 v=100
40298 On ch=2 n=54 v=0
40320 On ch=2 n=55 v=100
40510 On ch=2 n=55 v=0
40566 On ch=2 n=50 v=100
40756 On ch=2 n=50 v=0
41033 On ch=2 n=54 v=100
41128 On ch=2 n=54 v=0
41163 On ch=2 n=54 v=100
41258 On ch=2 n=54 v=0
41280 On ch=2 n=55 v=100
41470 On ch=2 n=55 v=0
41526 On ch=2 n=50 v=100
41716 On ch=2 n=50 v=0
46793 On ch=2 n=57 v=100
46888 On ch=2 n=57 v=0
46923 On ch=2 n=57 v=100
47018 On ch=2 n=57 v=0
47040 On ch=2 n=54 v=100
47230 On ch=2 n=54 v=0
47286 On ch=2 n=50 v=100
47476 On ch=2 n=50 v=0
47520 On ch=2 n=62 v=100
47710 On ch=2 n=62 v=0
47766 On ch=2 n=50 v=100
47956 On ch=2 n=50 v=0
48000 On ch=2 n=57 v=100
48760 On ch=2 n=57 v=0
48960 On ch=2 n=59 v=100
49340 On ch=2 n=59 v=0
49440 On ch=2 n=61 v=100
49820 On ch=2 n=61 v=0
49920 On ch=2 n=62 v=100
50110 On ch=2 n=62 v=0
50166 On ch=2 n=50 v=100
50356 On ch=2 n=50 v=0
50400 On ch=2 n=62 v=100
51160 On ch=2 n=62 v=0
51360 On ch=2 n=61 v=100
51740 On ch=2 n=61 v=0
51840 On ch=2 n=59 v=100
52600 On ch=2 n=59 v=0
52800 On ch=2 n=57 v=100
53180 On ch=2 n=57 v=0
53513 On ch=2 n=57 v=100
53608 On ch=2 n=57 v=0
53643 On ch=2 n=57 v=100
53738 On ch=2 n=57 v=0
53760 On ch=2 n=54 v=100
53950 On ch=2 n=54 v=0
54006 On ch=2 n=50 v=100
54196 On ch=2 n=50 v=0
54473 On ch=2 n=62 v=100
54568 On ch=2 n=62 v=0
54603 On ch=2 n=62 v=100
54698 On ch=2 n=62 v=0
54720 On ch=2 n=61 v=100
54910 On ch=2 n=61 v=0
54966 On ch=2 n=57 v=100
55156 On ch=2 n=57 v=0
55200 On ch=2 n=61 v=100
55390 On ch=2 n=61 v=0
55446 On ch=2 n=57 v=100
55636 On ch=2 n=57 v=0
55680 On ch=2 n=62 v=100
56250 On ch=2 n=62 v=0
56380 On ch=2 n=62 v=100
56475 On ch=2 n=62 v=0
56523 On ch=2 n=62 v=100
56618 On ch=2 n=62 v=0
56640 On ch=2 n=61 v=100
56830 On ch=2 n=61 v=0
56886 On ch=2 n=57 v=100
57076 On ch=2 n=57 v=0
57353 On ch=2 n=62 v=100
57448 On ch=2 n=62 v=0
57483 On ch=2 n=62 v=100
57578 On ch=2 n=62 v=0
57600 On ch=2 n=59 v=100
57790 On ch=2 n=59 v=0
57846 On ch=2 n=55 v=100
58036 On ch=2 n=55 v=0
58313 On ch=2 n=52 v=100
58408 On ch=2 n=52 v=0
58443 On ch=2 n=52 v=100
58538 On ch=2 n=52 v=0
58560 On ch=2 n=57 v=100
58750 On ch=2 n=57 v=0
58806 On ch=2 n=57 v=100
58996 On ch=2 n=57 v=0
59273 On ch=2 n=59 v=100
59368 On ch=2 n=59 v=0
59403 On ch=2 n=59 v=100
59498 On ch=2 n=59 v=0
59520 On ch=2 n=55 v=100
59710 On ch=2 n=55 v=0
59766 On ch=2 n=52 v=100
59956 On ch=2 n=52 v=0
60000 On ch=2 n=57 v=100
60285 On ch=2 n=57 v=0
60363 On ch=2 n=55 v=100
60458 On ch=2 n=55 v=0
60480 On ch=2 n=54 v=100
60860 On ch=2 n=54 v=0
61193 On ch=2 n=62 v=100
61288 On ch=2 n=62 v=0
61323 On ch=2 n=62 v=100
61418 On ch=2 n=62 v=0
61440 On ch=2 n=59 v=100
61630 On ch=2 n=59 v=0
61686 On ch=2 n=55 v=100
61876 On ch=2 n=55 v=0
61920 On ch=2 n=59 v=100
62110 On ch=2 n=59 v=0
62166 On ch=2 n=61 v=100
62356 On ch=2 n=61 v=0
62400 On ch=2 n=62 v=100
62590 On ch=2 n=62 v=0
62633 On ch=2 n=50 v=100
62728 On ch=2 n=50 v=0
62763 On ch=2 n=50 v=100
62858 On ch=2 n=50 v=0
62880 On ch=2 n=50 v=100
63070 On ch=2 n=50 v=0
63126 On ch=2 n=50 v=100
63316 On ch=2 n=50 v=0
63360 On ch=2 n=47 v=100
63550 On ch=2 n=47 v=0
63593 On ch=2 n=47 v=100
63688 On ch=2 n=47 v=0
63723 On ch=2 n=47 v=100
63818 On ch=2 n=47 v=0
63840 On ch=2 n=43 v=100
64030 On ch=2 n=43 v=0
64086 On ch=2 n=43 v=100
64276 On ch=2 n=43 v=0
64320 On ch=2 n=50 v=100
64700 On ch=2 n=50 v=0
64800 On ch=2 n=50 v=100
65180 On ch=2 n=50 v=0
65280 On ch=2 n=49 v=100
65660 On ch=2 n=49 v=0
65760 On ch=2 n=47 v=100
66140 On ch=2 n=47 v=0
66240 On ch=2 n=45 v=100
66620 On ch=2 n=45 v=0
66720 On ch=2 n=55 v=100
67100 On ch=2 n=55 v=0
67200 On ch=2 n=54 v=100
68340 On ch=2 n=54 v=0
68640 On ch=2 n=50 v=100
69020 On ch=2 n=50 v=0
69120 On ch=2 n=49 v=100
69500 On ch=2 n=49 v=0
69600 On ch=2 n=47 v=100
69980 On ch=2 n=47 v=0
70080 On ch=2 n=45 v=100
70650 On ch=2 n=45 v=0
70793 On ch=2 n=45 v=100
70983 On ch=2 n=45 v=0
71040 On ch=2 n=50 v=100
72180 On ch=2 n=50 v=0
72480 On ch=2 n=62 v=100
72860 On ch=2 n=62 v=0
72960 On ch=2 n=61 v=100
73340 On ch=2 n=61 v=0
73440 On ch=2 n=59 v=100
73820 On ch=2 n=59 v=0
73920 On ch=2 n=57 v=100
74300 On ch=2 n=57 v=0
74400 On ch=2 n=55 v=100
74780 On ch=2 n=55 v=0
74880 On ch=2 n=54 v=100
75450 On ch=2 n=54 v=0
75606 On ch=2 n=52 v=100
75796 On ch=2 n=52 v=0
75840 On ch=2 n=50 v=100
76220 On ch=2 n=50 v=0
76320 On ch=2 n=59 v=100
76700 On ch=2 n=59 v=0
76800 On ch=2 n=57 v=100
77370 On ch=2 n=57 v=0
77526 On ch=2 n=54 v=100
77716 On ch=2 n=54 v=0
77760 On ch=2 n=55 v=100
78140 On ch=2 n=55 v=0
78240 On ch=2 n=52 v=100
78620 On ch=2 n=52 v=0
78720 On ch=2 n=50 v=100
79290 On ch=2 n=50 v=0
79446 On ch=2 n=57 v=100
79636 On ch=2 n=57 v=0
79680 On ch=2 n=62 v=100
80060 On ch=2 n=62 v=0
80160 On ch=2 n=54 v=100
80540 On ch=2 n=54 v=0
80640 On ch=2 n=59 v=100
81020 On ch=2 n=59 v=0
81120 On ch=2 n=50 v=100
81500 On ch=2 n=50 v=0
81600 On ch=2 n=55 v=100
81980 On ch=2 n=55 v=0
82080 On ch=2 n=54 v=100
82270 On ch=2 n=54 v=0
82326 On ch=2 n=52 v=100
82516 On ch=2 n=52 v=0
82560 On ch=2 n=52 v=100
83320 On ch=2 n=52 v=0
83520 On ch=2 n=50 v=100
83900 On ch=2 n=50 v=0
85206 On ch=2 n=57 v=100
85396 On ch=2 n=57 v=0
85440 On ch=2 n=62 v=100
85630 On ch=2 n=62 v=0
85686 On ch=2 n=50 v=100
85876 On ch=2 n=50 v=0
86166 On ch=2 n=54 v=100
86356 On ch=2 n=54 v=0
86400 On ch=2 n=59 v=100
86590 On ch=2 n=59 v=0
86646 On ch=2 n=56 v=100
86836 On ch=2 n=56 v=0
86880 On ch=2 n=57 v=100
87260 On ch=2 n=57 v=0
87606 On ch=2 n=52 v=100
87796 On ch=2 n=52 v=0
87840 On ch=2 n=50 v=100
88030 On ch=2 n=50 v=0
88086 On ch=2 n=52 v=100
88276 On ch=2 n=52 v=0
88320 On ch=2 n=49 v=100
88510 On ch=2 n=49 v=0
88566 On ch=2 n=57 v=100
88756 On ch=2 n=57 v=0
88800 On ch=2 n=55 v=100
88990 On ch=2 n=55 v=0
89046 On ch=2 n=57 v=100
89236 On ch=2 n=57 v=0
89280 On ch=2 n=54 v=100
89660 On ch=2 n=54 v=0
90006 On ch=2 n=54 v=100
90196 On ch=2 n=54 v=0
90240 On ch=2 n=55 v=100
90430 On ch=2 n=55 v=0
90486 On ch=2 n=50 v=100
90676 On ch=2 n=50 v=0
90966 On ch=2 n=59 v=100
91156 On ch=2 n=59 v=0
91200 On ch=2 n=64 v=100
91390 On ch=2 n=64 v=0
91446 On ch=2 n=61 v=100
91636 On ch=2 n=61 v=0
91680 On ch=2 n=62 v=100
91870 On ch=2 n=62 v=0
91926 On ch=2 n=55 v=100
92116 On ch=2 n=55 v=0
92160 On ch=2 n=57 v=100
92350 On ch=2 n=57 v=0
92406 On ch=2 n=45 v=100
92596 On ch=2 n=45 v=0
92886 On ch=2 n=57 v=100
93076 On ch=2 n=57 v=0
93120 On ch=2 n=54 v=100
93310 On ch=2 n=54 v=0
93366 On ch=2 n=50 v=100
93556 On ch=2 n=50 v=0
93846 On ch=2 n=62 v=100
94036 On ch=2 n=62 v=0
94080 On ch=2 n=61 v=100
94270 On ch=2 n=61 v=0
94326 On ch=2 n=57 v=100
94516 On ch=2 n=57 v=0
94793 On ch=2 n=61 v=100
94983 On ch=2 n=61 v=0
95039 On ch=2 n=62 v=100
95229 On ch=2 n=62 v=0
95273 On ch=2 n=50 v=100
95463 On ch=2 n=50 v=0
95753 On ch=2 n=54 v=100
95943 On ch=2 n=54 v=0
96000 On ch=2 n=59 v=100
96190 On ch=2 n=59 v=0
96246 On ch=2 n=56 v=100
96436 On ch=2 n=56 v=0
96480 On ch=2 n=57 v=100
96670 On ch=2 n=57 v=0
96726 On ch=2 n=50 v=100
96916 On ch=2 n=50 v=0
96960 On ch=2 n=52 v=100
97150 On ch=2 n=52 v=0
97206 On ch=2 n=40 v=100
97396 On ch=2 n=40 v=0
97686 On ch=2 n=52 v=100
97876 On ch=2 n=52 v=0
97920 On ch=2 n=49 v=100
98300 On ch=2 n=49 v=0
98400 On ch=2 n=45 v=100
98780 On ch=2 n=45 v=0
100566 On ch=2 n=61 v=100
100756 On ch=2 n=61 v=0
100800 On ch=2 n=62 v=100
100990 On ch=2 n=62 v=0
101046 On ch=2 n=57 v=100
101236 On ch=2 n=57 v=0
101526 On ch=2 n=61 v=100
101716 On ch=2 n=61 v=0
101760 On ch=2 n=62 v=100
101950 On ch=2 n=62 v=0
102006 On ch=2 n=57 v=100
102196 On ch=2 n=57 v=0
102473 On ch=2 n=61 v=100
102568 On ch=2 n=61 v=0
102603 On ch=2 n=61 v=100
102698 On ch=2 n=61 v=0
102720 On ch=2 n=62 v=100
102910 On ch=2 n=62 v=0
102966 On ch=2 n=57 v=100
103156 On ch=2 n=57 v=0
103433 On ch=2 n=61 v=100
103528 On ch=2 n=61 v=0
103563 On ch=2 n=61 v=100
103658 On ch=2 n=61 v=0
103680 On ch=2 n=62 v=100
103870 On ch=2 n=62 v=0
103926 On ch=2 n=57 v=100
104116 On ch=2 n=57 v=0
106326 On ch=2 n=61 v=100
106516 On ch=2 n=61 v=0
106560 On ch=2 n=62 v=100
106750 On ch=2 n=62 v=0
106806 On ch=2 n=57 v=100
106996 On ch=2 n=57 v=0
107286 On ch=2 n=61 v=100
107476 On ch=2 n=61 v=0
107520 On ch=2 n=62 v=100
107710 On ch=2 n=62 v=0
107766 On ch=2 n=57 v=100
107956 On ch=2 n=57 v=0
108233 On ch=2 n=61 v=100
108328 On ch=2 n=61 v=0
108363 On ch=2 n=61 v=100
108458 On ch=2 n=61 v=0
108480 On ch=2 n=62 v=100
108670 On ch=2 n=62 v=0
108726 On ch=2 n=57 v=100
108916 On ch=2 n=57 v=0
109193 On ch=2 n=61 v=100
109288 On ch=2 n=61 v=0
109323 On ch=2 n=61 v=100
109418 On ch=2 n=61 v=0
109440 On ch=2 n=62 v=100
109630 On ch=2 n=62 v=0
109686 On ch=2 n=57 v=100
109876 On ch=2 n=57 v=0
112086 On ch=2 n=54 v=100
112276 On ch=2 n=54 v=0
112320 On ch=2 n=55 v=100
112510 On ch=2 n=55 v=0
112566 On ch=2 n=50 v=100
112756 On ch=2 n=50 v=0
113046 On ch=2 n=54 v=100
113236 On ch=2 n=54 v=0
113280 On ch=2 n=55 v=100
113470 On ch=2 n=55 v=0
113526 On ch=2 n=50 v=100
113716 On ch=2 n=50 v=0
113993 On ch=2 n=54 v=100
114088 On ch=2 n=54 v=0
114123 On ch=2 n=54 v=100
114218 On ch=2 n=54 v=0
114240 On ch=2 n=55 v=100
114430 On ch=2 n=55 v=0
114486 On ch=2 n=50 v=100
114676 On ch=2 n=50 v=0
114953 On ch=2 n=54 v=100
115048 On ch=2 n=54 v=0
115083 On ch=2 n=54 v=100
115178 On ch=2 n=54 v=0
115200 On ch=2 n=55 v=100
115390 On ch=2 n=55 v=0
115446 On ch=2 n=50 v=100
115636 On ch=2 n=50 v=0
117846 On ch=2 n=56 v=100
118036 On ch=2 n=56 v=0
118080 On ch=2 n=57 v=100
118270 On ch=2 n=57 v=0
118326 On ch=2 n=52 v=100
118516 On ch=2 n=52 v=0
118806 On ch=2 n=56 v=100
118996 On ch=2 n=56 v=0
119040 On ch=2 n=57 v=100
119230 On ch=2 n=57 v=0
119286 On ch=2 n=52 v=100
119476 On ch=2 n=52 v=0
119753 On ch=2 n=56 v=100
119848 On ch=2 n=56 v=0
119883 On ch=2 n=56 v=100
119978 On ch=2 n=56 v=0
120000 On ch=2 n=57 v=100
120190 On ch=2 n=57 v=0
120246 On ch=2 n=52 v=100
120436 On ch=2 n=52 v=0
120713 On ch=2 n=56 v=100
120808 On ch=2 n=56 v=0
120843 On ch=2 n=56 v=100
120938 On ch=2 n=56 v=0
120960 On ch=2 n=57 v=100
121150 On ch=2 n=57 v=0
121206 On ch=2 n=52 v=100
121396 On ch=2 n=52 v=0
123606 On ch=2 n=58 v=100
123796 On ch=2 n=58 v=0
123840 On ch=2 n=59 v=100
124030 On ch=2 n=59 v=0
124086 On ch=2 n=54 v=100
124276 On ch=2 n=54 v=0
124566 On ch=2 n=58 v=100
124756 On ch=2 n=58 v=0
124800 On ch=2 n=59 v=100
124990 On ch=2 n=59 v=0
125046 On ch=2 n=54 v=100
125236 On ch=2 n=54 v=0
125513 On ch=2 n=58 v=100
125608 On ch=2 n=58 v=0
125643 On ch=2 n=58 v=100
125738 On ch=2 n=58 v=0
125760 On ch=2 n=59 v=100
125950 On ch=2 n=59 v=0
126006 On ch=2 n=54 v=100
126196 On ch=2 n=54 v=0
126473 On ch=2 n=58 v=100
126568 On ch=2 n=58 v=0
126603 On ch=2 n=58 v=100
126698 On ch=2 n=58 v=0
126720 On ch=2 n=59 v=100
127100 On ch=2 n=59 v=0
127200 On ch=2 n=47 v=100
127580 On ch=2 n=47 v=0
129600 On ch=2 n=59 v=100
129980 On ch=2 n=59 v=0
130080 On ch=2 n=59 v=100
130460 On ch=2 n=59 v=0
130560 On ch=2 n=61 v=100
131130 On ch=2 n=61 v=0
131286 On ch=2 n=61 v=100
131476 On ch=2 n=61 v=0
131520 On ch=2 n=62 v=100
131900 On ch=2 n=62 v=0
132000 On ch=2 n=50 v=100
132380 On ch=2 n=50 v=0
132480 On ch=2 n=57 v=100
133050 On ch=2 n=57 v=0
133206 On ch=2 n=45 v=100
133396 On ch=2 n=45 v=0
133440 On ch=2 n=57 v=100
133820 On ch=2 n=57 v=0
133920 On ch=2 n=49 v=100
134300 On ch=2 n=49 v=0
134400 On ch=2 n=54 v=100
134780 On ch=2 n=54 v=0
134880 On ch=2 n=45 v=100
135260 On ch=2 n=45 v=0
135360 On ch=2 n=50 v=100
135740 On ch=2 n=50 v=0
135840 On ch=2 n=49 v=100
136220 On ch=2 n=49 v=0
136320 On ch=2 n=47 v=100
137080 On ch=2 n=47 v=0
137280 On ch=2 n=45 v=100
137660 On ch=2 n=45 v=0
139446 On ch=2 n=50 v=100
139636 On ch=2 n=50 v=0
139680 On ch=2 n=55 v=100
139870 On ch=2 n=55 v=0
139926 On ch=2 n=54 v=100
140116 On ch=2 n=54 v=0
140160 On ch=2 n=52 v=100
140540 On ch=2 n=52 v=0
140640 On ch=2 n=54 v=100
140830 On ch=2 n=54 v=0
140886 On ch=2 n=55 v=100
141076 On ch=2 n=55 v=0
141120 On ch=2 n=57 v=100
141500 On ch=2 n=57 v=0
141600 On ch=2 n=55 v=100
141790 On ch=2 n=55 v=0
141846 On ch=2 n=57 v=100
142036 On ch=2 n=57 v=0
142080 On ch=2 n=54 v=100
142460 On ch=2 n=54 v=0
142560 On ch=2 n=50 v=100
142940 On ch=2 n=50 v=0
144726 On ch=2 n=54 v=100
144916 On ch=2 n=54 v=0
144960 On ch=2 n=55 v=100
145150 On ch=2 n=55 v=0
145206 On ch=2 n=50 v=100
145396 On ch=2 n=50 v=0
145686 On ch=2 n=54 v=100
145876 On ch=2 n=54 v=0
145920 On ch=2 n=55 v=100
146110 On ch=2 n=55 v=0
146166 On ch=2 n=50 v=100
146356 On ch=2 n=50 v=0
148553 On ch=2 n=54 v=100
148648 On ch=2 n=54 v=0
148683 On ch=2 n=54 v=100
148778 On ch=2 n=54 v=0
148800 On ch=2 n=55 v=100
148990 On ch=2 n=55 v=0
149046 On ch=2 n=50 v=100
149236 On ch=2 n=50 v=0
149513 On ch=2 n=54 v=100
149608 On ch=2 n=54 v=0
149643 On ch=2 n=54 v=100
149738 On ch=2 n=54 v=0
149760 On ch=2 n=55 v=100
149950 On ch=2 n=55 v=0
150006 On ch=2 n=50 v=100
150196 On ch=2 n=50 v=0
150486 On ch=2 n=50 v=100
150676 On ch=2 n=50 v=0
150720 On ch=2 n=62 v=100
151100 On ch=2 n=62 v=0
151200 On ch=2 n=54 v=100
151580 On ch=2 n=54 v=0
151680 On ch=2 n=59 v=100
152060 On ch=2 n=59 v=0
152160 On ch=2 n=50 v=100
152540 On ch=2 n=50 v=0
152640 On ch=2 n=55 v=100
153020 On ch=2 n=55 v=0
153120 On ch=2 n=54 v=100
153310 On ch=2 n=54 v=0
153366 On ch=2 n=54 v=100
153556 On ch=2 n=54 v=0
153600 On ch=2 n=52 v=100
153980 On ch=2 n=52 v=0
154080 On ch=2 n=50 v=100
154270 On ch=2 n=50 v=0
154326 On ch=2 n=50 v=100
154516 On ch=2 n=50 v=0
154560 On ch=2 n=57 v=100
155320 On ch=2 n=57 v=0
155520 On ch=2 n=50 v=100
155900 On ch=2 n=50 v=0
156480 On ch=2 n=50 v=100
156860 On ch=2 n=50 v=0
156960 On ch=2 n=50 v=100
157340 On ch=2 n=50 v=0
157440 On ch=2 n=62 v=100
157820 On ch=2 n=62 v=0
158166 On ch=2 n=50 v=100
158356 On ch=2 n=50 v=0
158400 On ch=2 n=50 v=100
158780 On ch=2 n=50 v=0
158880 On ch=2 n=50 v=100
159260 On ch=2 n=50 v=0
159360 On ch=2 n=62 v=100
159740 On ch=2 n=62 v=0
160320 On ch=2 n=50 v=100
160700 On ch=2 n=50 v=0
160800 On ch=2 n=50 v=100
161180 On ch=2 n=50 v=0
161280 On ch=2 n=62 v=100
161660 On ch=2 n=62 v=0
162006 On ch=2 n=50 v=100
162196 On ch=2 n=50 v=0
162240 On ch=2 n=50 v=100
162620 On ch=2 n=50 v=0
162720 On ch=2 n=50 v=100
163100 On ch=2 n=50 v=0
163200 On ch=2 n=62 v=100
163580 On ch=2 n=62 v=0
163926 On ch=2 n=50 v=100
164116 On ch=2 n=50 v=0
164160 On ch=2 n=62 v=100
164540 On ch=2 n=62 v=0
164640 On ch=2 n=54 v=100
165020 On ch=2 n=54 v=0
165120 On ch=2 n=59 v=100
165500 On ch=2 n=59 v=0
165600 On ch=2 n=50 v=100
165980 On ch=2 n=50 v=0
166080 On ch=2 n=55 v=100
166460 On ch=2 n=55 v=0
166560 On ch=2 n=54 v=100
166750 On ch=2 n=54 v=0
166806 On ch=2 n=54 v=100
166996 On ch=2 n=54 v=0
167040 On ch=2 n=52 v=100
167420 On ch=2 n=52 v=0
167520 On ch=2 n=50 v=100
167710 On ch=2 n=50 v=0
167766 On ch=2 n=50 v=100
167956 On ch=2 n=50 v=0
168000 On ch=2 n=57 v=100
168760 On ch=2 n=57 v=0
168960 On ch=2 n=50 v=100
169340 On ch=2 n=50 v=0
169686 On ch=2 n=54 v=100
169876 On ch=2 n=54 v=0
169920 On ch=2 n=55 v=100
170110 On ch=2 n=55 v=0
170166 On ch=2 n=50 v=100
170356 On ch=2 n=50 v=0
170646 On ch=2 n=54 v=100
170836 On ch=2 n=54 v=0
170880 On ch=2 n=55 v=100
171070 On ch=2 n=55 v=0
171126 On ch=2 n=50 v=100
171316 On ch=2 n=50 v=0
171606 On ch=2 n=54 v=100
171796 On ch=2 n=54 v=0
171840 On ch=2 n=55 v=100
172030 On ch=2 n=55 v=0
172086 On ch=2 n=50 v=100
172276 On ch=2 n=50 v=0
172566 On ch=2 n=54 v=100
172756 On ch=2 n=54 v=0
172800 On ch=2 n=55 v=100
172990 On ch=2 n=55 v=0
173046 On ch=2 n=50 v=100
173236 On ch=2 n=50 v=0
173513 On ch=2 n=54 v=100
173608 On ch=2 n=54 v=0
173643 On ch=2 n=54 v=100
173738 On ch=2 n=54 v=0
173760 On ch=2 n=55 v=100
173950 On ch=2 n=55 v=0
174006 On ch=2 n=50 v=100
174196 On ch=2 n=50 v=0
174473 On ch=2 n=54 v=100
174568 On ch=2 n=54 v=0
174603 On ch=2 n=54 v=100
174698 On ch=2 n=54 v=0
174720 On ch=2 n=55 v=100
174910 On ch=2 n=55 v=0
174966 On ch=2 n=50 v=100
175156 On ch=2 n=50 v=0
175433 On ch=2 n=54 v=100
175528 On ch=2 n=54 v=0
175563 On ch=2 n=54 v=100
175658 On ch=2 n=54 v=0
175680 On ch=2 n=55 v=100
175870 On ch=2 n=55 v=0
175926 On ch=2 n=50 v=100
176116 On ch=2 n=50 v=0
176393 On ch=2 n=54 v=100
176488 On ch=2 n=54 v=0
176523 On ch=2 n=54 v=100
176618 On ch=2 n=54 v=0
176640 On ch=2 n=55 v=100
176830 On ch=2 n=55 v=0
176886 On ch=2 n=50 v=100
177076 On ch=2 n=50 v=0
178080 On ch=2 n=50 v=100
178460 On ch=2 n=50 v=0
178560 On ch=2 n=43 v=100
179700 On ch=2 n=43 v=0
180000 On ch=2 n=43 v=100
180380 On ch=2 n=43 v=0
180480 On ch=2 n=38 v=100
182001 On ch=2 n=38 v=0
182001 Meta TrkEnd
TrkEnd
MTrk
0 Meta 0x21 00
0 Meta TrkName "Trumpet 1-2"
0 PrCh ch=3 p=56
0 Par ch=3 c=7 v=127
0 Par ch=3 c=10 v=50
152 Par ch=3 c=91 v=80
28553 On ch=3 n=69 v=120
28553 On ch=3 n=76 v=120
28648 On ch=3 n=76 v=0
28648 On ch=3 n=69 v=0
28683 On ch=3 n=76 v=120
28683 On ch=3 n=69 v=120
28778 On ch=3 n=69 v=0
28778 On ch=3 n=76 v=0
28800 On ch=3 n=78 v=120
28800 On ch=3 n=69 v=120
28990 On ch=3 n=69 v=0
28990 On ch=3 n=78 v=0
29046 On ch=3 n=76 v=120
29046 On ch=3 n=69 v=120
29236 On ch=3 n=69 v=0
29236 On ch=3 n=76 v=0
29500 On ch=3 n=76 v=120
29513 On ch=3 n=69 v=120
29595 On ch=3 n=76 v=0
29608 On ch=3 n=69 v=0
29643 On ch=3 n=76 v=120
29643 On ch=3 n=69 v=120
29738 On ch=3 n=69 v=0
29738 On ch=3 n=76 v=0
29760 On ch=3 n=78 v=120
29760 On ch=3 n=69 v=120
29950 On ch=3 n=69 v=0
29950 On ch=3 n=78 v=0
30006 On ch=3 n=76 v=120
30006 On ch=3 n=69 v=120
30196 On ch=3 n=69 v=0
30196 On ch=3 n=76 v=0
30473 On ch=3 n=81 v=120
30473 On ch=3 n=76 v=120
30568 On ch=3 n=76 v=0
30568 On ch=3 n=81 v=0
30603 On ch=3 n=81 v=120
30603 On ch=3 n=76 v=120
30698 On ch=3 n=76 v=0
30698 On ch=3 n=81 v=0
30720 On ch=3 n=81 v=120
30720 On ch=3 n=78 v=120
30910 On ch=3 n=78 v=0
30910 On ch=3 n=81 v=0
30953 On ch=3 n=81 v=120
30953 On ch=3 n=76 v=120
31048 On ch=3 n=76 v=0
31048 On ch=3 n=81 v=0
31083 On ch=3 n=81 v=120
31083 On ch=3 n=76 v=120
31178 On ch=3 n=76 v=0
31178 On ch=3 n=81 v=0
31200 On ch=3 n=81 v=120
31200 On ch=3 n=76 v=120
31390 On ch=3 n=76 v=0
31390 On ch=3 n=81 v=0
31433 On ch=3 n=76 v=120
31433 On ch=3 n=69 v=120
31528 On ch=3 n=69 v=0
31528 On ch=3 n=76 v=0
31563 On ch=3 n=76 v=120
31563 On ch=3 n=69 v=120
31658 On ch=3 n=69 v=0
31658 On ch=3 n=76 v=0
31680 On ch=3 n=78 v=120
31680 On ch=3 n=69 v=120
31870 On ch=3 n=69 v=0
31870 On ch=3 n=78 v=0
31926 On ch=3 n=76 v=120
31926 On ch=3 n=69 v=120
32116 On ch=3 n=69 v=0
32116 On ch=3 n=76 v=0
38153 On ch=3 n=81 v=120
38166 On ch=3 n=74 v=120
38248 On ch=3 n=81 v=0
38261 On ch=3 n=74 v=0
38283 On ch=3 n=81 v=120
38283 On ch=3 n=74 v=120
38378 On ch=3 n=74 v=0
38378 On ch=3 n=81 v=0
38400 On ch=3 n=83 v=120
38400 On ch=3 n=79 v=120
38590 On ch=3 n=79 v=0
38590 On ch=3 n=83 v=0
38646 On ch=3 n=81 v=120
38646 On ch=3 n=78 v=120
38836 On ch=3 n=78 v=0
38836 On ch=3 n=81 v=0
39113 On ch=3 n=74 v=120
39126 On ch=3 n=81 v=120
39208 On ch=3 n=74 v=0
39221 On ch=3 n=81 v=0
39243 On ch=3 n=74 v=120
39243 On ch=3 n=81 v=120
39338 On ch=3 n=81 v=0
39338 On ch=3 n=74 v=0
39360 On ch=3 n=83 v=120
39360 On ch=3 n=79 v=120
39550 On ch=3 n=79 v=0
39550 On ch=3 n=83 v=0
39606 On ch=3 n=81 v=120
39606 On ch=3 n=78 v=120
39796 On ch=3 n=78 v=0
39796 On ch=3 n=81 v=0
40073 On ch=3 n=74 v=120
40073 On ch=3 n=66 v=120
40168 On ch=3 n=66 v=0
40168 On ch=3 n=74 v=0
40203 On ch=3 n=74 v=120
40203 On ch=3 n=66 v=120
40298 On ch=3 n=66 v=0
40298 On ch=3 n=74 v=0
40320 On ch=3 n=79 v=120
40320 On ch=3 n=62 v=120
40510 On ch=3 n=62 v=0
40510 On ch=3 n=79 v=0
40553 On ch=3 n=78 v=120
40553 On ch=3 n=62 v=120
40648 On ch=3 n=62 v=0
40648 On ch=3 n=78 v=0
40683 On ch=3 n=78 v=120
40683 On ch=3 n=62 v=120
40778 On ch=3 n=62 v=0
40778 On ch=3 n=78 v=0
40800 On ch=3 n=78 v=120
40800 On ch=3 n=69 v=120
40990 On ch=3 n=69 v=0
40990 On ch=3 n=78 v=0
41033 On ch=3 n=74 v=120
41033 On ch=3 n=66 v=120
41128 On ch=3 n=66 v=0
41128 On ch=3 n=74 v=0
41163 On ch=3 n=66 v=120
41163 On ch=3 n=74 v=120
41258 On ch=3 n=74 v=0
41258 On ch=3 n=66 v=0
41280 On ch=3 n=62 v=120
41280 On ch=3 n=74 v=120
41470 On ch=3 n=74 v=0
41470 On ch=3 n=62 v=0
41513 On ch=3 n=69 v=120
41513 On ch=3 n=66 v=120
41608 On ch=3 n=66 v=0
41608 On ch=3 n=69 v=0
41643 On ch=3 n=69 v=120
41643 On ch=3 n=66 v=120
41738 On ch=3 n=66 v=0
41738 On ch=3 n=69 v=0
41760 On ch=3 n=69 v=120
41760 On ch=3 n=66 v=120
41950 On ch=3 n=66 v=0
41950 On ch=3 n=69 v=0
41993 On ch=3 n=69 v=120
41993 On ch=3 n=66 v=120
42088 On ch=3 n=66 v=0
42088 On ch=3 n=69 v=0
42123 On ch=3 n=69 v=120
42123 On ch=3 n=66 v=120
42218 On ch=3 n=66 v=0
42218 On ch=3 n=69 v=0
42240 On ch=3 n=66 v=120
42240 On ch=3 n=62 v=120
42620 On ch=3 n=62 v=0
42620 On ch=3 n=66 v=0
48233 On ch=3 n=69 v=120
48233 On ch=3 n=76 v=120
48328 On ch=3 n=76 v=0
48328 On ch=3 n=69 v=0
48363 On ch=3 n=76 v=120
48363 On ch=3 n=69 v=120
48458 On ch=3 n=69 v=0
48458 On ch=3 n=76 v=0
48480 On ch=3 n=76 v=120
48480 On ch=3 n=69 v=120
48670 On ch=3 n=69 v=0
48670 On ch=3 n=76 v=0
48713 On ch=3 n=78 v=120
48726 On ch=3 n=69 v=120
48808 On ch=3 n=78 v=0
48843 On ch=3 n=76 v=120
48916 On ch=3 n=69 v=0
48938 On ch=3 n=76 v=0
48960 On ch=3 n=74 v=120
49150 On ch=3 n=74 v=0
49193 On ch=3 n=79 v=120
49193 On ch=3 n=62 v=120
49288 On ch=3 n=62 v=0
49288 On ch=3 n=79 v=0
49323 On ch=3 n=78 v=120
49323 On ch=3 n=62 v=120
49418 On ch=3 n=62 v=0
49418 On ch=3 n=78 v=0
49440 On ch=3 n=76 v=120
49440 On ch=3 n=69 v=120
49630 On ch=3 n=69 v=0
49630 On ch=3 n=76 v=0
49673 On ch=3 n=81 v=120
49673 On ch=3 n=76 v=120
49673 On ch=3 n=69 v=120
49768 On ch=3 n=69 v=0
49768 On ch=3 n=76 v=0
49768 On ch=3 n=81 v=0
49803 On ch=3 n=79 v=120
49803 On ch=3 n=76 v=120
49803 On ch=3 n=69 v=120
49898 On ch=3 n=69 v=0
49898 On ch=3 n=76 v=0
49898 On ch=3 n=79 v=0
49920 On ch=3 n=78 v=120
49920 On ch=3 n=69 v=120
50300 On ch=3 n=69 v=0
50300 On ch=3 n=78 v=0
50646 On ch=3 n=78 v=120
50646 On ch=3 n=74 v=120
50836 On ch=3 n=74 v=0
50836 On ch=3 n=78 v=0
50880 On ch=3 n=76 v=120
50880 On ch=3 n=80 v=120
51260 On ch=3 n=80 v=0
51360 On ch=3 n=81 v=120
51450 On ch=3 n=76 v=0
51606 On ch=3 n=76 v=120
51796 On ch=3 n=76 v=0
51840 On ch=3 n=74 v=120
51930 On ch=3 n=81 v=0
52030 On ch=3 n=74 v=0
52086 On ch=3 n=81 v=120
52086 On ch=3 n=69 v=120
52276 On ch=3 n=69 v=0
52276 On ch=3 n=81 v=0
52320 On ch=3 n=74 v=120
52320 On ch=3 n=80 v=120
52510 On ch=3 n=74 v=0
52553 On ch=3 n=76 v=120
52648 On ch=3 n=76 v=0
52683 On ch=3 n=74 v=120
52700 On ch=3 n=80 v=0
52778 On ch=3 n=74 v=0
52800 On ch=3 n=81 v=120
52800 On ch=3 n=76 v=120
53180 On ch=3 n=76 v=0
53180 On ch=3 n=81 v=0
53513 On ch=3 n=81 v=120
53513 On ch=3 n=76 v=120
53608 On ch=3 n=76 v=0
53608 On ch=3 n=81 v=0
53643 On ch=3 n=81 v=120
53643 On ch=3 n=76 v=120
53738 On ch=3 n=76 v=0
53738 On ch=3 n=81 v=0
53760 On ch=3 n=81 v=120
53760 On ch=3 n=74 v=120
53950 On ch=3 n=74 v=0
53950 On ch=3 n=81 v=0
54006 On ch=3 n=78 v=120
54006 On ch=3 n=69 v=120
54196 On ch=3 n=69 v=0
54196 On ch=3 n=78 v=0
54473 On ch=3 n=78 v=120
54473 On ch=3 n=66 v=120
54568 On ch=3 n=66 v=0
54568 On ch=3 n=78 v=0
54603 On ch=3 n=78 v=120
54603 On ch=3 n=66 v=120
54698 On ch=3 n=66 v=0
54698 On ch=3 n=78 v=0
54720 On ch=3 n=76 v=120
54720 On ch=3 n=69 v=120
54910 On ch=3 n=69 v=0
54910 On ch=3 n=76 v=0
54966 On ch=3 n=76 v=120
54966 On ch=3 n=69 v=120
55156 On ch=3 n=69 v=0
55156 On ch=3 n=76 v=0
55680 On ch=3 n=74 v=120
56440 On ch=3 n=74 v=0
56640 On ch=3 n=76 v=120
57020 On ch=3 n=76 v=0
57120 On ch=3 n=78 v=120
57500 On ch=3 n=78 v=0
57600 On ch=3 n=79 v=120
57980 On ch=3 n=79 v=0
58080 On ch=3 n=79 v=120
58840 On ch=3 n=79 v=0
59040 On ch=3 n=78 v=120
59420 On ch=3 n=78 v=0
59520 On ch=3 n=76 v=120
60280 On ch=3 n=76 v=0
60480 On ch=3 n=74 v=120
62001 On ch=3 n=74 v=0
62633 On ch=3 n=78 v=120
62633 On ch=3 n=69 v=120
62728 On ch=3 n=69 v=0
62728 On ch=3 n=78 v=0
62763 On ch=3 n=78 v=120
62763 On ch=3 n=69 v=120
62858 On ch=3 n=69 v=0
62858 On ch=3 n=78 v=0
62880 On ch=3 n=78 v=120
62880 On ch=3 n=69 v=120
63070 On ch=3 n=69 v=0
63070 On ch=3 n=78 v=0
63126 On ch=3 n=78 v=120
63126 On ch=3 n=69 v=120
63316 On ch=3 n=69 v=0
63316 On ch=3 n=78 v=0
63360 On ch=3 n=79 v=120
63360 On ch=3 n=74 v=120
63550 On ch=3 n=74 v=0
63550 On ch=3 n=79 v=0
63593 On ch=3 n=74 v=120
63593 On ch=3 n=62 v=120
63688 On ch=3 n=62 v=0
63688 On ch=3 n=74 v=0
63723 On ch=3 n=74 v=120
63723 On ch=3 n=62 v=120
63818 On ch=3 n=62 v=0
63818 On ch=3 n=74 v=0
63840 On ch=3 n=74 v=120
63840 On ch=3 n=62 v=120
64030 On ch=3 n=62 v=0
64030 On ch=3 n=74 v=0
64086 On ch=3 n=74 v=120
64086 On ch=3 n=62 v=120
64276 On ch=3 n=62 v=0
64276 On ch=3 n=74 v=0
64320 On ch=3 n=69 v=120
64320 On ch=3 n=66 v=120
64700 On ch=3 n=66 v=0
64700 On ch=3 n=69 v=0
72480 On ch=3 n=81 v=120
72480 On ch=3 n=78 v=120
72860 On ch=3 n=78 v=0
72860 On ch=3 n=81 v=0
72960 On ch=3 n=81 v=120
72960 On ch=3 n=76 v=120
73340 On ch=3 n=76 v=0
73340 On ch=3 n=81 v=0
73440 On ch=3 n=79 v=120
73440 On ch=3 n=74 v=120
73820 On ch=3 n=74 v=0
73820 On ch=3 n=79 v=0
73920 On ch=3 n=78 v=120
73920 On ch=3 n=74 v=120
74300 On ch=3 n=74 v=0
74300 On ch=3 n=78 v=0
74400 On ch=3 n=76 v=120
74400 On ch=3 n=69 v=120
74685 On ch=3 n=76 v=0
74763 On ch=3 n=74 v=120
74780 On ch=3 n=69 v=0
74858 On ch=3 n=74 v=0
74880 On ch=3 n=74 v=120
74880 On ch=3 n=69 v=120
75450 On ch=3 n=69 v=0
75450 On ch=3 n=74 v=0
75606 On ch=3 n=76 v=120
75606 On ch=3 n=69 v=120
75796 On ch=3 n=69 v=0
75796 On ch=3 n=76 v=0
75840 On ch=3 n=78 v=120
75840 On ch=3 n=69 v=120
76220 On ch=3 n=69 v=0
76220 On ch=3 n=78 v=0
76320 On ch=3 n=80 v=120
76320 On ch=3 n=74 v=120
76700 On ch=3 n=74 v=0
76700 On ch=3 n=80 v=0
76800 On ch=3 n=81 v=120
76800 On ch=3 n=76 v=120
77370 On ch=3 n=76 v=0
77370 On ch=3 n=81 v=0
77526 On ch=3 n=81 v=120
77526 On ch=3 n=78 v=120
77716 On ch=3 n=78 v=0
77716 On ch=3 n=81 v=0
77760 On ch=3 n=74 v=120
77760 On ch=3 n=74 v=120
78140 On ch=3 n=74 v=0
78140 On ch=3 n=74 v=0
78240 On ch=3 n=79 v=120
78240 On ch=3 n=76 v=120
78620 On ch=3 n=76 v=0
78620 On ch=3 n=79 v=0
78720 On ch=3 n=78 v=120
78720 On ch=3 n=69 v=120
79480 On ch=3 n=69 v=0
79480 On ch=3 n=78 v=0
100566 On ch=3 n=76 v=120
100566 On ch=3 n=69 v=120
100756 On ch=3 n=69 v=0
100756 On ch=3 n=76 v=0
100800 On ch=3 n=78 v=120
100800 On ch=3 n=69 v=120
100990 On ch=3 n=69 v=0
100990 On ch=3 n=78 v=0
101046 On ch=3 n=76 v=120
101046 On ch=3 n=69 v=120
101236 On ch=3 n=69 v=0
101236 On ch=3 n=76 v=0
101526 On ch=3 n=76 v=120
101526 On ch=3 n=69 v=120
101716 On ch=3 n=69 v=0
101716 On ch=3 n=76 v=0
101760 On ch=3 n=78 v=120
101760 On ch=3 n=69 v=120
101950 On ch=3 n=69 v=0
101950 On ch=3 n=78 v=0
102006 On ch=3 n=76 v=120
102006 On ch=3 n=69 v=120
102196 On ch=3 n=69 v=0
102196 On ch=3 n=76 v=0
102473 On ch=3 n=76 v=120
102473 On ch=3 n=69 v=120
102568 On ch=3 n=69 v=0
102568 On ch=3 n=76 v=0
102603 On ch=3 n=76 v=120
102603 On ch=3 n=69 v=120
102698 On ch=3 n=69 v=0
102698 On ch=3 n=76 v=0
102720 On ch=3 n=78 v=120
102720 On ch=3 n=69 v=120
102910 On ch=3 n=69 v=0
102910 On ch=3 n=78 v=0
102966 On ch=3 n=76 v=120
102966 On ch=3 n=69 v=120
103156 On ch=3 n=69 v=0
103156 On ch=3 n=76 v=0
103433 On ch=3 n=76 v=120
103433 On ch=3 n=69 v=120
103528 On ch=3 n=69 v=0
103528 On ch=3 n=76 v=0
103563 On ch=3 n=76 v=120
103563 On ch=3 n=69 v=120
103658 On ch=3 n=69 v=0
103658 On ch=3 n=76 v=0
103680 On ch=3 n=78 v=120
103680 On ch=3 n=69 v=120
103870 On ch=3 n=69 v=0
103870 On ch=3 n=78 v=0
103926 On ch=3 n=76 v=120
103926 On ch=3 n=69 v=120
104116 On ch=3 n=69 v=0
104116 On ch=3 n=76 v=0
106080 On ch=3 n=81 v=120
106326 On ch=3 n=76 v=120
106516 On ch=3 n=76 v=0
106560 On ch=3 n=78 v=120
106750 On ch=3 n=78 v=0
106806 On ch=3 n=76 v=120
106996 On ch=3 n=76 v=0
107286 On ch=3 n=76 v=120
107476 On ch=3 n=76 v=0
107520 On ch=3 n=78 v=120
107710 On ch=3 n=78 v=0
107766 On ch=3 n=76 v=120
107956 On ch=3 n=76 v=0
108233 On ch=3 n=76 v=120
108328 On ch=3 n=76 v=0
108363 On ch=3 n=76 v=120
108458 On ch=3 n=76 v=0
108480 On ch=3 n=78 v=120
108670 On ch=3 n=78 v=0
108726 On ch=3 n=76 v=120
108916 On ch=3 n=76 v=0
109193 On ch=3 n=76 v=120
109288 On ch=3 n=76 v=0
109323 On ch=3 n=76 v=120
109418 On ch=3 n=76 v=0
109440 On ch=3 n=78 v=120
109630 On ch=3 n=78 v=0
109686 On ch=3 n=76 v=120
109856 On ch=3 n=81 v=0
109876 On ch=3 n=76 v=0
109920 On ch=3 n=81 v=120
110015 On ch=3 n=81 v=0
110036 On ch=3 n=79 v=120
110131 On ch=3 n=79 v=0
110153 On ch=3 n=78 v=120
110248 On ch=3 n=78 v=0
110283 On ch=3 n=76 v=120
110378 On ch=3 n=76 v=0
110400 On ch=3 n=74 v=120
110780 On ch=3 n=74 v=0
110880 On ch=3 n=74 v=120
111260 On ch=3 n=74 v=0
111360 On ch=3 n=74 v=120
115534 On ch=3 n=74 v=0
115680 On ch=3 n=74 v=120
116060 On ch=3 n=74 v=0
116160 On ch=3 n=76 v=120
116540 On ch=3 n=76 v=0
116640 On ch=3 n=76 v=120
117020 On ch=3 n=76 v=0
117120 On ch=3 n=76 v=120
121679 On ch=3 n=76 v=0
121920 On ch=3 n=78 v=120
122300 On ch=3 n=78 v=0
122400 On ch=3 n=78 v=120
122780 On ch=3 n=78 v=0
122880 On ch=3 n=78 v=120
127220 On ch=3 n=78 v=0
127446 On ch=3 n=78 v=120
127636 On ch=3 n=78 v=0
127680 On ch=3 n=79 v=120
128060 On ch=3 n=79 v=0
128160 On ch=3 n=79 v=120
128540 On ch=3 n=79 v=0
128640 On ch=3 n=79 v=120
129600 On ch=3 n=74 v=120
129980 On ch=3 n=74 v=0
130080 On ch=3 n=74 v=120
130460 On ch=3 n=74 v=0
130560 On ch=3 n=76 v=120
131118 On ch=3 n=79 v=0
131130 On ch=3 n=76 v=0
131286 On ch=3 n=79 v=120
131286 On ch=3 n=76 v=120
131476 On ch=3 n=76 v=0
131476 On ch=3 n=79 v=0
131520 On ch=3 n=78 v=120
131520 On ch=3 n=74 v=120
131710 On ch=3 n=74 v=0
131710 On ch=3 n=78 v=0
131766 On ch=3 n=76 v=120
131766 On ch=3 n=69 v=120
131956 On ch=3 n=69 v=0
131956 On ch=3 n=76 v=0
132000 On ch=3 n=78 v=120
132000 On ch=3 n=69 v=120
132190 On ch=3 n=69 v=0
132190 On ch=3 n=78 v=0
132246 On ch=3 n=79 v=120
132246 On ch=3 n=69 v=120
132436 On ch=3 n=69 v=0
132436 On ch=3 n=79 v=0
132480 On ch=3 n=76 v=120
132480 On ch=3 n=69 v=120
133240 On ch=3 n=69 v=0
133240 On ch=3 n=76 v=0
143040 On ch=3 n=62 v=120
143420 On ch=3 n=62 v=0
143520 On ch=3 n=62 v=120
143900 On ch=3 n=62 v=0
144000 On ch=3 n=62 v=120
146465 On ch=3 n=62 v=0
146646 On ch=3 n=62 v=120
146836 On ch=3 n=62 v=0
146880 On ch=3 n=62 v=120
147260 On ch=3 n=62 v=0
147360 On ch=3 n=62 v=120
147740 On ch=3 n=62 v=0
147840 On ch=3 n=62 v=120
149881 On ch=3 n=62 v=0
149993 On ch=3 n=62 v=120
150088 On ch=3 n=62 v=0
150123 On ch=3 n=62 v=120
150218 On ch=3 n=62 v=0
150240 On ch=3 n=66 v=120
150240 On ch=3 n=62 v=120
150430 On ch=3 n=62 v=0
150430 On ch=3 n=66 v=0
150486 On ch=3 n=69 v=120
150486 On ch=3 n=62 v=120
150676 On ch=3 n=62 v=0
150676 On ch=3 n=69 v=0
150720 On ch=3 n=74 v=120
150720 On ch=3 n=66 v=120
151100 On ch=3 n=66 v=0
151100 On ch=3 n=74 v=0
151200 On ch=3 n=81 v=120
151200 On ch=3 n=74 v=120
151580 On ch=3 n=74 v=0
151580 On ch=3 n=81 v=0
151680 On ch=3 n=86 v=120
151680 On ch=3 n=74 v=120
152060 On ch=3 n=74 v=0
152060 On ch=3 n=86 v=0
152160 On ch=3 n=78 v=120
152160 On ch=3 n=74 v=120
152540 On ch=3 n=74 v=0
152540 On ch=3 n=78 v=0
152640 On ch=3 n=83 v=120
152640 On ch=3 n=74 v=120
153020 On ch=3 n=74 v=0
153020 On ch=3 n=83 v=0
153120 On ch=3 n=74 v=120
153120 On ch=3 n=74 v=120
153500 On ch=3 n=74 v=0
153500 On ch=3 n=74 v=0
153600 On ch=3 n=79 v=120
153600 On ch=3 n=76 v=120
153980 On ch=3 n=76 v=0
153980 On ch=3 n=79 v=0
154080 On ch=3 n=78 v=120
154080 On ch=3 n=74 v=120
154270 On ch=3 n=74 v=0
154270 On ch=3 n=78 v=0
154326 On ch=3 n=76 v=120
154326 On ch=3 n=69 v=120
154516 On ch=3 n=69 v=0
154516 On ch=3 n=76 v=0
154560 On ch=3 n=76 v=120
154560 On ch=3 n=69 v=120
154750 On ch=3 n=69 v=0
154793 On ch=3 n=69 v=120
154888 On ch=3 n=69 v=0
154923 On ch=3 n=69 v=120
155018 On ch=3 n=69 v=0
155040 On ch=3 n=69 v=120
155130 On ch=3 n=76 v=0
155230 On ch=3 n=69 v=0
155286 On ch=3 n=74 v=120
155286 On ch=3 n=69 v=120
155476 On ch=3 n=69 v=0
155476 On ch=3 n=74 v=0
155520 On ch=3 n=78 v=120
155520 On ch=3 n=66 v=120
155710 On ch=3 n=78 v=0
155900 On ch=3 n=66 v=0
156480 On ch=3 n=78 v=120
156480 On ch=3 n=74 v=120
156860 On ch=3 n=74 v=0
156860 On ch=3 n=78 v=0
156960 On ch=3 n=78 v=120
156960 On ch=3 n=74 v=120
157245 On ch=3 n=74 v=0
157245 On ch=3 n=78 v=0
157323 On ch=3 n=79 v=120
157323 On ch=3 n=76 v=120
157418 On ch=3 n=76 v=0
157418 On ch=3 n=79 v=0
157440 On ch=3 n=81 v=120
157440 On ch=3 n=78 v=120
157820 On ch=3 n=78 v=0
157820 On ch=3 n=81 v=0
158166 On ch=3 n=78 v=120
158166 On ch=3 n=81 v=120
158356 On ch=3 n=81 v=0
158356 On ch=3 n=78 v=0
158412 On ch=3 n=78 v=120
158412 On ch=3 n=74 v=120
158792 On ch=3 n=74 v=0
158792 On ch=3 n=78 v=0
158892 On ch=3 n=78 v=120
158892 On ch=3 n=74 v=120
159177 On ch=3 n=74 v=0
159177 On ch=3 n=78 v=0
159243 On ch=3 n=79 v=120
159243 On ch=3 n=76 v=120
159338 On ch=3 n=76 v=0
159338 On ch=3 n=79 v=0
159360 On ch=3 n=81 v=120
159360 On ch=3 n=78 v=120
159740 On ch=3 n=78 v=0
159740 On ch=3 n=81 v=0
160332 On ch=3 n=74 v=120
160332 On ch=3 n=78 v=120
160712 On ch=3 n=78 v=0
160712 On ch=3 n=74 v=0
160812 On ch=3 n=78 v=120
160812 On ch=3 n=74 v=120
161097 On ch=3 n=74 v=0
161097 On ch=3 n=78 v=0
161163 On ch=3 n=79 v=120
161163 On ch=3 n=76 v=120
161258 On ch=3 n=76 v=0
161258 On ch=3 n=79 v=0
161280 On ch=3 n=81 v=120
161280 On ch=3 n=78 v=120
161660 On ch=3 n=78 v=0
161660 On ch=3 n=81 v=0
162006 On ch=3 n=81 v=120
162006 On ch=3 n=78 v=120
162196 On ch=3 n=78 v=0
162196 On ch=3 n=81 v=0
162252 On ch=3 n=78 v=120
162252 On ch=3 n=74 v=120
162632 On ch=3 n=74 v=0
162632 On ch=3 n=78 v=0
162732 On ch=3 n=78 v=120
162732 On ch=3 n=74 v=120
163017 On ch=3 n=74 v=0
163017 On ch=3 n=78 v=0
163083 On ch=3 n=79 v=120
163083 On ch=3 n=76 v=120
163178 On ch=3 n=76 v=0
163178 On ch=3 n=79 v=0
163200 On ch=3 n=81 v=120
163200 On ch=3 n=78 v=120
163580 On ch=3 n=78 v=0
163580 On ch=3 n=81 v=0
164640 On ch=3 n=69 v=120
164640 On ch=3 n=66 v=120
165020 On ch=3 n=66 v=0
165020 On ch=3 n=69 v=0
165120 On ch=3 n=74 v=120
165120 On ch=3 n=66 v=120
165310 On ch=3 n=66 v=0
165366 On ch=3 n=62 v=120
165500 On ch=3 n=74 v=0
165556 On ch=3 n=62 v=0
165600 On ch=3 n=78 v=120
165600 On ch=3 n=69 v=120
165790 On ch=3 n=69 v=0
165846 On ch=3 n=66 v=120
165980 On ch=3 n=78 v=0
166036 On ch=3 n=66 v=0
166080 On ch=3 n=83 v=120
166080 On ch=3 n=74 v=120
166460 On ch=3 n=74 v=0
166460 On ch=3 n=83 v=0
166560 On ch=3 n=74 v=120
166560 On ch=3 n=69 v=120
166940 On ch=3 n=69 v=0
166940 On ch=3 n=74 v=0
167040 On ch=3 n=79 v=120
167420 On ch=3 n=79 v=0
167520 On ch=3 n=78 v=120
167520 On ch=3 n=74 v=120
167710 On ch=3 n=74 v=0
167710 On ch=3 n=78 v=0
167766 On ch=3 n=76 v=120
167766 On ch=3 n=69 v=120
167956 On ch=3 n=69 v=0
167956 On ch=3 n=76 v=0
168000 On ch=3 n=76 v=120
168000 On ch=3 n=69 v=120
168190 On ch=3 n=69 v=0
168233 On ch=3 n=69 v=120
168328 On ch=3 n=69 v=0
168363 On ch=3 n=69 v=120
168458 On ch=3 n=69 v=0
168480 On ch=3 n=69 v=120
168570 On ch=3 n=76 v=0
168670 On ch=3 n=69 v=0
168726 On ch=3 n=69 v=120
168726 On ch=3 n=74 v=120
168916 On ch=3 n=74 v=0
168916 On ch=3 n=69 v=0
168960 On ch=3 n=74 v=120
168960 On ch=3 n=66 v=120
169150 On ch=3 n=74 v=0
169193 On ch=3 n=62 v=120
169288 On ch=3 n=62 v=0
169323 On ch=3 n=62 v=120
169340 On ch=3 n=66 v=0
169418 On ch=3 n=62 v=0
169440 On ch=3 n=66 v=120
169630 On ch=3 n=66 v=0
169673 On ch=3 n=69 v=120
169686 On ch=3 n=66 v=120
169768 On ch=3 n=69 v=0
169803 On ch=3 n=69 v=120
169876 On ch=3 n=66 v=0
169898 On ch=3 n=69 v=0
169920 On ch=3 n=74 v=120
169920 On ch=3 n=62 v=120
170110 On ch=3 n=62 v=0
170166 On ch=3 n=62 v=120
170300 On ch=3 n=74 v=0
170356 On ch=3 n=62 v=0
170400 On ch=3 n=74 v=120
170646 On ch=3 n=69 v=120
170780 On ch=3 n=74 v=0
170836 On ch=3 n=69 v=0
170880 On ch=3 n=74 v=120
170880 On ch=3 n=62 v=120
171070 On ch=3 n=62 v=0
171070 On ch=3 n=74 v=0
171126 On ch=3 n=78 v=120
171126 On ch=3 n=74 v=120
171316 On ch=3 n=74 v=0
171316 On ch=3 n=78 v=0
171360 On ch=3 n=81 v=120
171360 On ch=3 n=78 v=120
171550 On ch=3 n=78 v=0
171550 On ch=3 n=81 v=0
171606 On ch=3 n=78 v=120
171606 On ch=3 n=74 v=120
171796 On ch=3 n=74 v=0
171796 On ch=3 n=78 v=0
171840 On ch=3 n=74 v=120
171840 On ch=3 n=62 v=120
172220 On ch=3 n=62 v=0
172220 On ch=3 n=74 v=0
172320 On ch=3 n=74 v=120
172320 On ch=3 n=62 v=120
172700 On ch=3 n=62 v=0
172700 On ch=3 n=74 v=0
172800 On ch=3 n=74 v=120
172800 On ch=3 n=62 v=120
172990 On ch=3 n=62 v=0
172990 On ch=3 n=74 v=0
173046 On ch=3 n=78 v=120
173046 On ch=3 n=74 v=120
173236 On ch=3 n=74 v=0
173236 On ch=3 n=78 v=0
173280 On ch=3 n=81 v=120
173280 On ch=3 n=78 v=120
173470 On ch=3 n=78 v=0
173470 On ch=3 n=81 v=0
173526 On ch=3 n=78 v=120
173526 On ch=3 n=74 v=120
173716 On ch=3 n=74 v=0
173716 On ch=3 n=78 v=0
173760 On ch=3 n=74 v=120
173760 On ch=3 n=62 v=120
174140 On ch=3 n=62 v=0
174140 On ch=3 n=74 v=0
174240 On ch=3 n=74 v=120
174240 On ch=3 n=62 v=120
174620 On ch=3 n=62 v=0
174620 On ch=3 n=74 v=0
174720 On ch=3 n=74 v=120
174720 On ch=3 n=62 v=120
174910 On ch=3 n=62 v=0
174910 On ch=3 n=74 v=0
174953 On ch=3 n=78 v=120
174953 On ch=3 n=74 v=120
175048 On ch=3 n=74 v=0
175048 On ch=3 n=78 v=0
175083 On ch=3 n=76 v=120
175083 On ch=3 n=79 v=120
175178 On ch=3 n=79 v=0
175178 On ch=3 n=76 v=0
175200 On ch=3 n=81 v=120
175200 On ch=3 n=78 v=120
175390 On ch=3 n=78 v=0
175390 On ch=3 n=81 v=0
175446 On ch=3 n=78 v=120
175446 On ch=3 n=74 v=120
175636 On ch=3 n=74 v=0
175636 On ch=3 n=78 v=0
175680 On ch=3 n=74 v=120
175680 On ch=3 n=62 v=120
175870 On ch=3 n=62 v=0
175870 On ch=3 n=74 v=0
175913 On ch=3 n=74 v=120
175913 On ch=3 n=78 v=120
176008 On ch=3 n=78 v=0
176008 On ch=3 n=74 v=0
176043 On ch=3 n=76 v=120
176043 On ch=3 n=79 v=120
176138 On ch=3 n=79 v=0
176138 On ch=3 n=76 v=0
176160 On ch=3 n=81 v=120
176160 On ch=3 n=78 v=120
176350 On ch=3 n=78 v=0
176350 On ch=3 n=81 v=0
176393 On ch=3 n=78 v=120
176393 On ch=3 n=74 v=120
176488 On ch=3 n=74 v=0
176488 On ch=3 n=78 v=0
176523 On ch=3 n=78 v=120
176523 On ch=3 n=74 v=120
176618 On ch=3 n=74 v=0
176618 On ch=3 n=78 v=0
176640 On ch=3 n=74 v=120
176640 On ch=3 n=62 v=120
176830 On ch=3 n=62 v=0
176830 On ch=3 n=74 v=0
176886 On ch=3 n=74 v=120
176886 On ch=3 n=66 v=120
177076 On ch=3 n=66 v=0
177076 On ch=3 n=74 v=0
178080 On ch=3 n=78 v=120
178080 On ch=3 n=69 v=120
178460 On ch=3 n=69 v=0
178460 On ch=3 n=78 v=0
178560 On ch=3 n=74 v=120
178560 On ch=3 n=62 v=120
179700 On ch=3 n=62 v=0
179700 On ch=3 n=74 v=0
180000 On ch=3 n=62 v=120
180000 On ch=3 n=74 v=120
180380 On ch=3 n=74 v=0
180380 On ch=3 n=62 v=0
180480 On ch=3 n=74 v=120
180480 On ch=3 n=66 v=120
182001 On ch=3 n=66 v=0
182001 On ch=3 n=74 v=0
182001 Meta TrkEnd
TrkEnd
MTrk
0 Meta 0x21 00
0 Meta TrkName "Timpani"
0 PrCh ch=4 p=47
0 Par ch=4 c=7 v=122
0 Par ch=4 c=10 v=40
91 Par ch=4 c=91 v=127
28553 On ch=4 n=45 v=120
28648 On ch=4 n=45 v=0
28683 On ch=4 n=45 v=120
28778 On ch=4 n=45 v=0
28800 On ch=4 n=50 v=120
28990 On ch=4 n=50 v=0
29046 On ch=4 n=45 v=120
29236 On ch=4 n=45 v=0
29513 On ch=4 n=45 v=120
29608 On ch=4 n=45 v=0
29643 On ch=4 n=45 v=120
29738 On ch=4 n=45 v=0
29760 On ch=4 n=50 v=120
29950 On ch=4 n=50 v=0
30006 On ch=4 n=45 v=120
30196 On ch=4 n=45 v=0
30473 On ch=4 n=45 v=120
30568 On ch=4 n=45 v=0
30603 On ch=4 n=45 v=120
30698 On ch=4 n=45 v=0
30720 On ch=4 n=50 v=120
30910 On ch=4 n=50 v=0
30953 On ch=4 n=45 v=120
31048 On ch=4 n=45 v=0
31083 On ch=4 n=45 v=120
31178 On ch=4 n=45 v=0
31200 On ch=4 n=45 v=120
31390 On ch=4 n=45 v=0
31433 On ch=4 n=45 v=120
31528 On ch=4 n=45 v=0
31563 On ch=4 n=45 v=120
31658 On ch=4 n=45 v=0
31680 On ch=4 n=50 v=120
31870 On ch=4 n=50 v=0
31926 On ch=4 n=45 v=120
32116 On ch=4 n=45 v=0
38153 On ch=4 n=50 v=120
38248 On ch=4 n=50 v=0
38283 On ch=4 n=50 v=120
38378 On ch=4 n=50 v=0
38400 On ch=4 n=50 v=120
38590 On ch=4 n=50 v=0
38646 On ch=4 n=50 v=120
38836 On ch=4 n=50 v=0
39113 On ch=4 n=50 v=120
39208 On ch=4 n=50 v=0
39243 On ch=4 n=50 v=120
39338 On ch=4 n=50 v=0
39360 On ch=4 n=50 v=120
39550 On ch=4 n=50 v=0
39606 On ch=4 n=50 v=120
39796 On ch=4 n=50 v=0
40073 On ch=4 n=50 v=120
40168 On ch=4 n=50 v=0
40203 On ch=4 n=50 v=120
40298 On ch=4 n=50 v=0
40320 On ch=4 n=50 v=120
40510 On ch=4 n=50 v=0
40553 On ch=4 n=50 v=120
40648 On ch=4 n=50 v=0
40683 On ch=4 n=50 v=120
40778 On ch=4 n=50 v=0
40800 On ch=4 n=50 v=120
40990 On ch=4 n=50 v=0
41033 On ch=4 n=50 v=120
41128 On ch=4 n=50 v=0
41163 On ch=4 n=50 v=120
41258 On ch=4 n=50 v=0
41280 On ch=4 n=50 v=120
41470 On ch=4 n=50 v=0
41513 On ch=4 n=50 v=120
41608 On ch=4 n=50 v=0
41643 On ch=4 n=50 v=120
41738 On ch=4 n=50 v=0
41760 On ch=4 n=50 v=120
41950 On ch=4 n=50 v=0
41993 On ch=4 n=50 v=120
42088 On ch=4 n=50 v=0
42123 On ch=4 n=50 v=120
42218 On ch=4 n=50 v=0
42240 On ch=4 n=50 v=120
42620 On ch=4 n=50 v=0
48233 On ch=4 n=45 v=120
48328 On ch=4 n=45 v=0
48363 On ch=4 n=45 v=120
48458 On ch=4 n=45 v=0
48480 On ch=4 n=45 v=120
48670 On ch=4 n=45 v=0
48726 On ch=4 n=45 v=120
48916 On ch=4 n=45 v=0
48960 On ch=4 n=50 v=120
49150 On ch=4 n=50 v=0
49193 On ch=4 n=50 v=120
49288 On ch=4 n=50 v=0
49323 On ch=4 n=50 v=120
49418 On ch=4 n=50 v=0
49440 On ch=4 n=45 v=120
49630 On ch=4 n=45 v=0
49673 On ch=4 n=45 v=120
49768 On ch=4 n=45 v=0
49803 On ch=4 n=45 v=120
49898 On ch=4 n=45 v=0
49920 On ch=4 n=50 v=120
50110 On ch=4 n=50 v=0
50166 On ch=4 n=45 v=120
50356 On ch=4 n=45 v=0
50400 On ch=4 n=50 v=120
50970 On ch=4 n=50 v=0
51126 On ch=4 n=50 v=120
51316 On ch=4 n=50 v=0
51360 On ch=4 n=45 v=120
51740 On ch=4 n=45 v=0
52086 On ch=4 n=50 v=120
52276 On ch=4 n=50 v=0
52320 On ch=4 n=50 v=120
52605 On ch=4 n=50 v=0
52683 On ch=4 n=50 v=120
52778 On ch=4 n=50 v=0
52800 On ch=4 n=45 v=120
53180 On ch=4 n=45 v=0
53513 On ch=4 n=45 v=120
53608 On ch=4 n=45 v=0
53643 On ch=4 n=45 v=120
53738 On ch=4 n=45 v=0
53760 On ch=4 n=50 v=120
53950 On ch=4 n=50 v=0
54006 On ch=4 n=50 v=120
54196 On ch=4 n=50 v=0
54473 On ch=4 n=50 v=120
54568 On ch=4 n=50 v=0
54603 On ch=4 n=50 v=120
54698 On ch=4 n=50 v=0
54720 On ch=4 n=45 v=120
54910 On ch=4 n=45 v=0
54953 On ch=4 n=45 v=120
55143 On ch=4 n=45 v=0
62633 On ch=4 n=50 v=120
62728 On ch=4 n=50 v=0
62763 On ch=4 n=50 v=120
62858 On ch=4 n=50 v=0
62880 On ch=4 n=50 v=120
63070 On ch=4 n=50 v=0
63126 On ch=4 n=50 v=120
63316 On ch=4 n=50 v=0
63360 On ch=4 n=50 v=120
63550 On ch=4 n=50 v=0
63593 On ch=4 n=50 v=120
63688 On ch=4 n=50 v=0
63723 On ch=4 n=50 v=120
63818 On ch=4 n=50 v=0
63840 On ch=4 n=50 v=120
64030 On ch=4 n=50 v=0
64086 On ch=4 n=50 v=120
64276 On ch=4 n=50 v=0
64320 On ch=4 n=50 v=120
64510 On ch=4 n=50 v=0
72480 On ch=4 n=50 v=120
72860 On ch=4 n=50 v=0
72960 On ch=4 n=45 v=120
73340 On ch=4 n=45 v=0
73440 On ch=4 n=50 v=120
73820 On ch=4 n=50 v=0
73920 On ch=4 n=45 v=120
74490 On ch=4 n=45 v=0
74646 On ch=4 n=45 v=120
74836 On ch=4 n=45 v=0
74880 On ch=4 n=50 v=120
75450 On ch=4 n=50 v=0
75606 On ch=4 n=45 v=120
75796 On ch=4 n=45 v=0
75840 On ch=4 n=50 v=120
76220 On ch=4 n=50 v=0
76320 On ch=4 n=50 v=120
76700 On ch=4 n=50 v=0
76800 On ch=4 n=45 v=120
77370 On ch=4 n=45 v=0
77526 On ch=4 n=50 v=120
77716 On ch=4 n=50 v=0
77760 On ch=4 n=50 v=120
78140 On ch=4 n=50 v=0
78240 On ch=4 n=45 v=120
78620 On ch=4 n=45 v=0
78720 On ch=4 n=50 v=120
79480 On ch=4 n=50 v=0
100566 On ch=4 n=45 v=120
100756 On ch=4 n=45 v=0
100800 On ch=4 n=50 v=120
100990 On ch=4 n=50 v=0
101046 On ch=4 n=45 v=120
101236 On ch=4 n=45 v=0
101526 On ch=4 n=45 v=120
101716 On ch=4 n=45 v=0
101760 On ch=4 n=50 v=120
101950 On ch=4 n=50 v=0
102006 On ch=4 n=45 v=120
102196 On ch=4 n=45 v=0
102473 On ch=4 n=45 v=120
102568 On ch=4 n=45 v=0
102603 On ch=4 n=45 v=120
102698 On ch=4 n=45 v=0
102720 On ch=4 n=50 v=120
102910 On ch=4 n=50 v=0
102966 On ch=4 n=45 v=120
103156 On ch=4 n=45 v=0
103433 On ch=4 n=45 v=120
103528 On ch=4 n=45 v=0
103563 On ch=4 n=45 v=120
103658 On ch=4 n=45 v=0
103680 On ch=4 n=50 v=120
103870 On ch=4 n=50 v=0
103926 On ch=4 n=45 v=120
104116 On ch=4 n=45 v=0
106326 On ch=4 n=45 v=120
106516 On ch=4 n=45 v=0
106560 On ch=4 n=50 v=120
106750 On ch=4 n=50 v=0
106806 On ch=4 n=45 v=120
106996 On ch=4 n=45 v=0
107286 On ch=4 n=45 v=120
107476 On ch=4 n=45 v=0
107520 On ch=4 n=50 v=120
107710 On ch=4 n=50 v=0
107766 On ch=4 n=45 v=120
107956 On ch=4 n=45 v=0
108233 On ch=4 n=45 v=120
108328 On ch=4 n=45 v=0
108363 On ch=4 n=45 v=120
108458 On ch=4 n=45 v=0
108480 On ch=4 n=50 v=120
108670 On ch=4 n=50 v=0
108726 On ch=4 n=45 v=120
108916 On ch=4 n=45 v=0
109193 On ch=4 n=45 v=120
109288 On ch=4 n=45 v=0
109323 On ch=4 n=45 v=120
109418 On ch=4 n=45 v=0
109440 On ch=4 n=50 v=120
109630 On ch=4 n=50 v=0
109686 On ch=4 n=45 v=120
109876 On ch=4 n=45 v=0
129600 On ch=4 n=50 v=120
129980 On ch=4 n=50 v=0
130080 On ch=4 n=50 v=120
130460 On ch=4 n=50 v=0
130560 On ch=4 n=45 v=120
131130 On ch=4 n=45 v=0
131286 On ch=4 n=45 v=120
131476 On ch=4 n=45 v=0
131520 On ch=4 n=50 v=120
131710 On ch=4 n=50 v=0
131766 On ch=4 n=50 v=120
131956 On ch=4 n=50 v=0
132000 On ch=4 n=50 v=120
132190 On ch=4 n=50 v=0
132246 On ch=4 n=50 v=120
132436 On ch=4 n=50 v=0
132480 On ch=4 n=45 v=120
133240 On ch=4 n=45 v=0
144726 On ch=4 n=50 v=120
144916 On ch=4 n=50 v=0
144960 On ch=4 n=50 v=120
145150 On ch=4 n=50 v=0
145206 On ch=4 n=50 v=120
145396 On ch=4 n=50 v=0
145686 On ch=4 n=50 v=120
145876 On ch=4 n=50 v=0
145920 On ch=4 n=50 v=120
146110 On ch=4 n=50 v=0
146166 On ch=4 n=50 v=120
146356 On ch=4 n=50 v=0
148553 On ch=4 n=50 v=120
148648 On ch=4 n=50 v=0
148683 On ch=4 n=50 v=120
148778 On ch=4 n=50 v=0
148800 On ch=4 n=50 v=120
148990 On ch=4 n=50 v=0
149046 On ch=4 n=50 v=120
149236 On ch=4 n=50 v=0
149513 On ch=4 n=50 v=120
149608 On ch=4 n=50 v=0
149643 On ch=4 n=50 v=120
149738 On ch=4 n=50 v=0
149760 On ch=4 n=50 v=120
149950 On ch=4 n=50 v=0
149993 On ch=4 n=50 v=120
150088 On ch=4 n=50 v=0
150123 On ch=4 n=50 v=120
150218 On ch=4 n=50 v=0
150240 On ch=4 n=50 v=120
150430 On ch=4 n=50 v=0
150486 On ch=4 n=50 v=120
150676 On ch=4 n=50 v=0
150720 On ch=4 n=50 v=120
150910 On ch=4 n=50 v=0
150966 On ch=4 n=50 v=120
151156 On ch=4 n=50 v=0
151200 On ch=4 n=50 v=120
151390 On ch=4 n=50 v=0
151446 On ch=4 n=50 v=120
151636 On ch=4 n=50 v=0
151680 On ch=4 n=50 v=120
152060 On ch=4 n=50 v=0
152160 On ch=4 n=50 v=120
152445 On ch=4 n=50 v=0
152523 On ch=4 n=50 v=120
152618 On ch=4 n=50 v=0
152640 On ch=4 n=50 v=120
152830 On ch=4 n=50 v=0
152873 On ch=4 n=50 v=120
152968 On ch=4 n=50 v=0
153003 On ch=4 n=50 v=120
153098 On ch=4 n=50 v=0
153120 On ch=4 n=50 v=120
153310 On ch=4 n=50 v=0
153366 On ch=4 n=50 v=120
153556 On ch=4 n=50 v=0
153600 On ch=4 n=45 v=120
153980 On ch=4 n=45 v=0
154080 On ch=4 n=50 v=120
154460 On ch=4 n=50 v=0
154560 On ch=4 n=45 v=120
155130 On ch=4 n=45 v=0
155286 On ch=4 n=45 v=120
155476 On ch=4 n=45 v=0
155520 On ch=4 n=50 v=120
155900 On ch=4 n=50 v=0
156480 On ch=4 n=50 v=120
156860 On ch=4 n=50 v=0
156960 On ch=4 n=50 v=120
157245 On ch=4 n=50 v=0
157323 On ch=4 n=50 v=120
157418 On ch=4 n=50 v=0
157440 On ch=4 n=50 v=120
157820 On ch=4 n=50 v=0
158166 On ch=4 n=50 v=120
158356 On ch=4 n=50 v=0
158400 On ch=4 n=50 v=120
158780 On ch=4 n=50 v=0
158880 On ch=4 n=50 v=120
159165 On ch=4 n=50 v=0
159243 On ch=4 n=50 v=120
159338 On ch=4 n=50 v=0
159360 On ch=4 n=50 v=120
159740 On ch=4 n=50 v=0
160320 On ch=4 n=50 v=120
160700 On ch=4 n=50 v=0
160800 On ch=4 n=50 v=120
161180 On ch=4 n=50 v=0
161280 On ch=4 n=50 v=120
161660 On ch=4 n=50 v=0
162006 On ch=4 n=50 v=120
162196 On ch=4 n=50 v=0
162240 On ch=4 n=50 v=120
162620 On ch=4 n=50 v=0
162720 On ch=4 n=50 v=120
163005 On ch=4 n=50 v=0
163083 On ch=4 n=50 v=120
163178 On ch=4 n=50 v=0
163200 On ch=4 n=50 v=120
163580 On ch=4 n=50 v=0
164640 On ch=4 n=50 v=120
165020 On ch=4 n=50 v=0
165120 On ch=4 n=50 v=120
165500 On ch=4 n=50 v=0
165600 On ch=4 n=50 v=120
165980 On ch=4 n=50 v=0
166080 On ch=4 n=50 v=120
166460 On ch=4 n=50 v=0
166560 On ch=4 n=50 v=120
166940 On ch=4 n=50 v=0
167040 On ch=4 n=45 v=120
167420 On ch=4 n=45 v=0
167520 On ch=4 n=50 v=120
167710 On ch=4 n=50 v=0
167766 On ch=4 n=50 v=120
167956 On ch=4 n=50 v=0
168000 On ch=4 n=45 v=120
168570 On ch=4 n=45 v=0
168726 On ch=4 n=45 v=120
168916 On ch=4 n=45 v=0
168960 On ch=4 n=50 v=120
169340 On ch=4 n=50 v=0
169686 On ch=4 n=50 v=120
169876 On ch=4 n=50 v=0
169920 On ch=4 n=50 v=120
170110 On ch=4 n=50 v=0
170166 On ch=4 n=50 v=120
170356 On ch=4 n=50 v=0
170646 On ch=4 n=50 v=120
170836 On ch=4 n=50 v=0
170880 On ch=4 n=50 v=120
171260 On ch=4 n=50 v=0
171606 On ch=4 n=50 v=120
171796 On ch=4 n=50 v=0
171840 On ch=4 n=50 v=120
172030 On ch=4 n=50 v=0
172086 On ch=4 n=50 v=120
172276 On ch=4 n=50 v=0
172566 On ch=4 n=50 v=120
172756 On ch=4 n=50 v=0
172800 On ch=4 n=50 v=120
172990 On ch=4 n=50 v=0
173046 On ch=4 n=50 v=120
173236 On ch=4 n=50 v=0
173513 On ch=4 n=50 v=120
173608 On ch=4 n=50 v=0
173643 On ch=4 n=50 v=120
173738 On ch=4 n=50 v=0
173760 On ch=4 n=50 v=120
173950 On ch=4 n=50 v=0
174006 On ch=4 n=50 v=120
174196 On ch=4 n=50 v=0
174473 On ch=4 n=50 v=120
174568 On ch=4 n=50 v=0
174603 On ch=4 n=50 v=120
174698 On ch=4 n=50 v=0
174720 On ch=4 n=50 v=120
175100 On ch=4 n=50 v=0
175433 On ch=4 n=50 v=120
175528 On ch=4 n=50 v=0
175563 On ch=4 n=50 v=120
175658 On ch=4 n=50 v=0
175680 On ch=4 n=50 v=120
175870 On ch=4 n=50 v=0
175913 On ch=4 n=50 v=120
176008 On ch=4 n=50 v=0
176043 On ch=4 n=50 v=120
176138 On ch=4 n=50 v=0
176160 On ch=4 n=50 v=120
176350 On ch=4 n=50 v=0
176393 On ch=4 n=50 v=120
176488 On ch=4 n=50 v=0
176523 On ch=4 n=50 v=120
176618 On ch=4 n=50 v=0
176640 On ch=4 n=50 v=120
176830 On ch=4 n=50 v=0
176886 On ch=4 n=50 v=120
177076 On ch=4 n=50 v=0
178080 On ch=4 n=50 v=120
178460 On ch=4 n=50 v=0
178560 On ch=4 n=50 v=120
179700 On ch=4 n=50 v=0
180000 On ch=4 n=50 v=120
180380 On ch=4 n=50 v=0
180480 On ch=4 n=50 v=120
182001 On ch=4 n=50 v=0
182001 Meta TrkEnd
TrkEnd
MTrk
0 Meta 0x21 00
0 Meta TrkName "Violin 1"
0 PrCh ch=5 p=48
0 Par ch=5 c=7 v=127
0 Par ch=5 c=10 v=20
122 Par ch=5 c=91 v=100
1920 On ch=5 n=74 v=100
2490 On ch=5 n=74 v=0
2646 On ch=5 n=81 v=100
2836 On ch=5 n=81 v=0
2880 On ch=5 n=83 v=100
3070 On ch=5 n=83 v=0
3126 On ch=5 n=81 v=100
3316 On ch=5 n=81 v=0
3840 On ch=5 n=86 v=100
4410 On ch=5 n=86 v=0
4566 On ch=5 n=78 v=100
4756 On ch=5 n=78 v=0
4800 On ch=5 n=79 v=100
4990 On ch=5 n=79 v=0
5046 On ch=5 n=78 v=100
5236 On ch=5 n=78 v=0
5526 On ch=5 n=81 v=100
5716 On ch=5 n=81 v=0
5760 On ch=5 n=79 v=100
5950 On ch=5 n=79 v=0
6006 On ch=5 n=78 v=100
6196 On ch=5 n=78 v=0
6240 On ch=5 n=76 v=100
6620 On ch=5 n=76 v=0
6720 On ch=5 n=74 v=100
6910 On ch=5 n=74 v=0
6966 On ch=5 n=69 v=100
7156 On ch=5 n=69 v=0
7200 On ch=5 n=71 v=100
7390 On ch=5 n=71 v=0
7446 On ch=5 n=73 v=100
7636 On ch=5 n=73 v=0
7680 On ch=5 n=74 v=100
8060 On ch=5 n=74 v=0
8640 On ch=5 n=74 v=100
9210 On ch=5 n=74 v=0
9366 On ch=5 n=69 v=100
9556 On ch=5 n=69 v=0
9600 On ch=5 n=66 v=100
9790 On ch=5 n=66 v=0
9846 On ch=5 n=62 v=100
10036 On ch=5 n=62 v=0
10560 On ch=5 n=86 v=100
11130 On ch=5 n=86 v=0
11286 On ch=5 n=81 v=100
11476 On ch=5 n=81 v=0
11520 On ch=5 n=74 v=100
11710 On ch=5 n=74 v=0
11753 On ch=5 n=78 v=100
11848 On ch=5 n=78 v=0
11883 On ch=5 n=78 v=100
11978 On ch=5 n=78 v=0
12000 On ch=5 n=79 v=100
12190 On ch=5 n=79 v=0
12246 On ch=5 n=78 v=100
12436 On ch=5 n=78 v=0
12713 On ch=5 n=81 v=100
12808 On ch=5 n=81 v=0
12843 On ch=5 n=81 v=100
12938 On ch=5 n=81 v=0
12960 On ch=5 n=83 v=100
13150 On ch=5 n=83 v=0
13206 On ch=5 n=81 v=100
13396 On ch=5 n=81 v=0
14166 On ch=5 n=76 v=100
14356 On ch=5 n=76 v=0
14400 On ch=5 n=78 v=100
14590 On ch=5 n=78 v=0
14646 On ch=5 n=81 v=100
14836 On ch=5 n=81 v=0
14880 On ch=5 n=79 v=100
15070 On ch=5 n=79 v=0
15126 On ch=5 n=78 v=100
15316 On ch=5 n=78 v=0
15360 On ch=5 n=76 v=100
15740 On ch=5 n=76 v=0
16320 On ch=5 n=81 v=100
16890 On ch=5 n=81 v=0
17046 On ch=5 n=76 v=100
17236 On ch=5 n=76 v=0
17280 On ch=5 n=73 v=100
17660 On ch=5 n=73 v=0
18473 On ch=5 n=76 v=100
18568 On ch=5 n=76 v=0
18603 On ch=5 n=76 v=100
18698 On ch=5 n=76 v=0
18720 On ch=5 n=78 v=100
18910 On ch=5 n=78 v=0
18966 On ch=5 n=76 v=100
19156 On ch=5 n=76 v=0
19433 On ch=5 n=85 v=100
19528 On ch=5 n=85 v=0
19563 On ch=5 n=85 v=100
19658 On ch=5 n=85 v=0
19680 On ch=5 n=86 v=100
19870 On ch=5 n=86 v=0
19926 On ch=5 n=85 v=100
20116 On ch=5 n=85 v=0
20393 On ch=5 n=85 v=100
20488 On ch=5 n=85 v=0
20523 On ch=5 n=85 v=100
20618 On ch=5 n=85 v=0
20640 On ch=5 n=86 v=100
20830 On ch=5 n=86 v=0
20886 On ch=5 n=85 v=100
21076 On ch=5 n=85 v=0
21120 On ch=5 n=78 v=100
21310 On ch=5 n=78 v=0
21366 On ch=5 n=81 v=100
21746 On ch=5 n=81 v=0
21846 On ch=5 n=80 v=100
22036 On ch=5 n=80 v=0
22080 On ch=5 n=81 v=100
22270 On ch=5 n=81 v=0
22313 On ch=5 n=76 v=100
22408 On ch=5 n=76 v=0
22443 On ch=5 n=76 v=100
22538 On ch=5 n=76 v=0
22560 On ch=5 n=78 v=100
22750 On ch=5 n=78 v=0
22806 On ch=5 n=76 v=100
22996 On ch=5 n=76 v=0
23040 On ch=5 n=69 v=100
23800 On ch=5 n=69 v=0
24000 On ch=5 n=71 v=100
24380 On ch=5 n=71 v=0
24480 On ch=5 n=73 v=100
24860 On ch=5 n=73 v=0
24960 On ch=5 n=74 v=100
25150 On ch=5 n=74 v=0
25206 On ch=5 n=62 v=100
25396 On ch=5 n=62 v=0
25440 On ch=5 n=74 v=100
26200 On ch=5 n=74 v=0
26400 On ch=5 n=73 v=100
26780 On ch=5 n=73 v=0
26880 On ch=5 n=71 v=100
27640 On ch=5 n=71 v=0
27840 On ch=5 n=69 v=100
28220 On ch=5 n=69 v=0
28553 On ch=5 n=81 v=100
28648 On ch=5 n=81 v=0
28683 On ch=5 n=81 v=100
28778 On ch=5 n=81 v=0
28800 On ch=5 n=86 v=100
28990 On ch=5 n=86 v=0
29046 On ch=5 n=85 v=100
29236 On ch=5 n=85 v=0
29526 On ch=5 n=81 v=100
29621 On ch=5 n=81 v=0
29656 On ch=5 n=81 v=100
29751 On ch=5 n=81 v=0
29773 On ch=5 n=86 v=100
29963 On ch=5 n=86 v=0
30019 On ch=5 n=85 v=100
30209 On ch=5 n=85 v=0
30473 On ch=5 n=81 v=100
30568 On ch=5 n=81 v=0
30603 On ch=5 n=81 v=100
30698 On ch=5 n=81 v=0
30720 On ch=5 n=86 v=100
30910 On ch=5 n=86 v=0
30953 On ch=5 n=85 v=100
31048 On ch=5 n=85 v=0
31083 On ch=5 n=85 v=100
31178 On ch=5 n=85 v=0
31200 On ch=5 n=85 v=100
31390 On ch=5 n=85 v=0
31433 On ch=5 n=81 v=100
31528 On ch=5 n=81 v=0
31563 On ch=5 n=81 v=100
31658 On ch=5 n=81 v=0
31680 On ch=5 n=86 v=100
31870 On ch=5 n=86 v=0
31926 On ch=5 n=85 v=100
32116 On ch=5 n=85 v=0
32640 On ch=5 n=62 v=100
33400 On ch=5 n=62 v=0
33600 On ch=5 n=64 v=100
33980 On ch=5 n=64 v=0
34080 On ch=5 n=66 v=100
34460 On ch=5 n=66 v=0
34560 On ch=5 n=67 v=100
34750 On ch=5 n=67 v=0
34806 On ch=5 n=55 v=100
34996 On ch=5 n=55 v=0
35040 On ch=5 n=67 v=100
35800 On ch=5 n=67 v=0
36000 On ch=5 n=66 v=100
36380 On ch=5 n=66 v=0
36480 On ch=5 n=64 v=100
37240 On ch=5 n=64 v=0
37440 On ch=5 n=62 v=100
37820 On ch=5 n=62 v=0
38153 On ch=5 n=81 v=100
38248 On ch=5 n=81 v=0
38283 On ch=5 n=81 v=100
38378 On ch=5 n=81 v=0
38400 On ch=5 n=83 v=100
38590 On ch=5 n=83 v=0
38646 On ch=5 n=81 v=100
38836 On ch=5 n=81 v=0
39113 On ch=5 n=86 v=100
39208 On ch=5 n=86 v=0
39243 On ch=5 n=81 v=100
39338 On ch=5 n=81 v=0
39360 On ch=5 n=83 v=100
39550 On ch=5 n=83 v=0
39606 On ch=5 n=81 v=100
39796 On ch=5 n=81 v=0
40073 On ch=5 n=86 v=100
40168 On ch=5 n=86 v=0
40203 On ch=5 n=81 v=100
40298 On ch=5 n=81 v=0
40320 On ch=5 n=83 v=100
40510 On ch=5 n=83 v=0
40553 On ch=5 n=86 v=100
40648 On ch=5 n=86 v=0
40683 On ch=5 n=86 v=100
40778 On ch=5 n=86 v=0
40800 On ch=5 n=86 v=100
40990 On ch=5 n=86 v=0
41033 On ch=5 n=86 v=100
41128 On ch=5 n=86 v=0
41163 On ch=5 n=81 v=100
41258 On ch=5 n=81 v=0
41280 On ch=5 n=83 v=100
41470 On ch=5 n=83 v=0
41526 On ch=5 n=81 v=100
41716 On ch=5 n=81 v=0
42240 On ch=5 n=74 v=100
43000 On ch=5 n=74 v=0
43200 On ch=5 n=76 v=100
43580 On ch=5 n=76 v=0
43680 On ch=5 n=78 v=100
44060 On ch=5 n=78 v=0
44160 On ch=5 n=79 v=100
44350 On ch=5 n=79 v=0
44406 On ch=5 n=67 v=100
44596 On ch=5 n=67 v=0
44640 On ch=5 n=79 v=100
45400 On ch=5 n=79 v=0
45600 On ch=5 n=78 v=100
45980 On ch=5 n=78 v=0
46080 On ch=5 n=76 v=100
46840 On ch=5 n=76 v=0
47040 On ch=5 n=74 v=100
47420 On ch=5 n=74 v=0
47753 On ch=5 n=86 v=100
47848 On ch=5 n=86 v=0
47883 On ch=5 n=86 v=100
47978 On ch=5 n=86 v=0
48000 On ch=5 n=85 v=100
48190 On ch=5 n=85 v=0
48246 On ch=5 n=81 v=100
48436 On ch=5 n=81 v=0
48713 On ch=5 n=78 v=100
48808 On ch=5 n=78 v=0
48843 On ch=5 n=76 v=100
48938 On ch=5 n=76 v=0
48960 On ch=5 n=74 v=100
49150 On ch=5 n=74 v=0
49193 On ch=5 n=79 v=100
49288 On ch=5 n=79 v=0
49323 On ch=5 n=78 v=100
49418 On ch=5 n=78 v=0
49440 On ch=5 n=76 v=100
49630 On ch=5 n=76 v=0
49673 On ch=5 n=81 v=100
49768 On ch=5 n=81 v=0
49803 On ch=5 n=79 v=100
49898 On ch=5 n=79 v=0
49920 On ch=5 n=78 v=100
50300 On ch=5 n=78 v=0
50633 On ch=5 n=86 v=100
50728 On ch=5 n=86 v=0
50763 On ch=5 n=85 v=100
50858 On ch=5 n=85 v=0
50880 On ch=5 n=83 v=100
51070 On ch=5 n=83 v=0
51113 On ch=5 n=80 v=100
51208 On ch=5 n=80 v=0
51243 On ch=5 n=78 v=100
51338 On ch=5 n=78 v=0
51360 On ch=5 n=76 v=100
51550 On ch=5 n=76 v=0
51593 On ch=5 n=78 v=100
51688 On ch=5 n=78 v=0
51723 On ch=5 n=76 v=100
51818 On ch=5 n=76 v=0
51840 On ch=5 n=74 v=100
52030 On ch=5 n=74 v=0
52073 On ch=5 n=73 v=100
52263 On ch=5 n=73 v=0
52320 On ch=5 n=74 v=100
52510 On ch=5 n=74 v=0
52553 On ch=5 n=76 v=100
52648 On ch=5 n=76 v=0
52683 On ch=5 n=74 v=100
52778 On ch=5 n=74 v=0
52800 On ch=5 n=73 v=100
52990 On ch=5 n=73 v=0
53033 On ch=5 n=76 v=100
53128 On ch=5 n=76 v=0
53163 On ch=5 n=76 v=100
53258 On ch=5 n=76 v=0
53280 On ch=5 n=81 v=100
53470 On ch=5 n=81 v=0
53526 On ch=5 n=76 v=100
53716 On ch=5 n=76 v=0
53993 On ch=5 n=81 v=100
54088 On ch=5 n=81 v=0
54123 On ch=5 n=81 v=100
54218 On ch=5 n=81 v=0
54240 On ch=5 n=86 v=100
54430 On ch=5 n=86 v=0
54486 On ch=5 n=81 v=100
54676 On ch=5 n=81 v=0
54953 On ch=5 n=81 v=100
55048 On ch=5 n=81 v=0
55083 On ch=5 n=81 v=100
55178 On ch=5 n=81 v=0
55200 On ch=5 n=81 v=100
55390 On ch=5 n=81 v=0
55446 On ch=5 n=76 v=100
55636 On ch=5 n=76 v=0
55913 On ch=5 n=69 v=100
56008 On ch=5 n=69 v=0
56043 On ch=5 n=69 v=100
56138 On ch=5 n=69 v=0
56160 On ch=5 n=78 v=100
56350 On ch=5 n=78 v=0
56406 On ch=5 n=74 v=100
56596 On ch=5 n=74 v=0
56873 On ch=5 n=85 v=100
56968 On ch=5 n=85 v=0
57003 On ch=5 n=85 v=100
57098 On ch=5 n=85 v=0
57120 On ch=5 n=86 v=100
57310 On ch=5 n=86 v=0
57366 On ch=5 n=81 v=100
57556 On ch=5 n=81 v=0
57600 On ch=5 n=74 v=100
57790 On ch=5 n=74 v=0
57833 On ch=5 n=71 v=100
57928 On ch=5 n=71 v=0
57963 On ch=5 n=71 v=100
58058 On ch=5 n=71 v=0
58080 On ch=5 n=76 v=100
58270 On ch=5 n=76 v=0
58326 On ch=5 n=76 v=100
58516 On ch=5 n=76 v=0
58793 On ch=5 n=85 v=100
58888 On ch=5 n=85 v=0
58923 On ch=5 n=85 v=100
59018 On ch=5 n=85 v=0
59040 On ch=5 n=86 v=100
59230 On ch=5 n=86 v=0
59286 On ch=5 n=86 v=100
59476 On ch=5 n=86 v=0
59520 On ch=5 n=86 v=100
59710 On ch=5 n=86 v=0
59766 On ch=5 n=86 v=100
59956 On ch=5 n=86 v=0
60000 On ch=5 n=85 v=100
60285 On ch=5 n=85 v=0
60363 On ch=5 n=85 v=100
60458 On ch=5 n=85 v=0
60480 On ch=5 n=86 v=100
60670 On ch=5 n=86 v=0
60713 On ch=5 n=85 v=100
60808 On ch=5 n=85 v=0
60843 On ch=5 n=85 v=100
60938 On ch=5 n=85 v=0
60960 On ch=5 n=78 v=100
61150 On ch=5 n=78 v=0
61206 On ch=5 n=74 v=100
61396 On ch=5 n=74 v=0
61686 On ch=5 n=86 v=100
61876 On ch=5 n=86 v=0
61920 On ch=5 n=86 v=100
62110 On ch=5 n=86 v=0
62166 On ch=5 n=86 v=100
62356 On ch=5 n=86 v=0
62400 On ch=5 n=85 v=100
62590 On ch=5 n=85 v=0
62633 On ch=5 n=85 v=100
62728 On ch=5 n=85 v=0
62763 On ch=5 n=85 v=100
62858 On ch=5 n=85 v=0
62880 On ch=5 n=78 v=100
63070 On ch=5 n=78 v=0
63126 On ch=5 n=74 v=100
63316 On ch=5 n=74 v=0
63360 On ch=5 n=79 v=100
63550 On ch=5 n=79 v=0
63593 On ch=5 n=79 v=100
63688 On ch=5 n=79 v=0
63723 On ch=5 n=79 v=100
63818 On ch=5 n=79 v=0
63840 On ch=5 n=83 v=100
64030 On ch=5 n=83 v=0
64086 On ch=5 n=83 v=100
64276 On ch=5 n=83 v=0
64320 On ch=5 n=81 v=100
64700 On ch=5 n=81 v=0
64800 On ch=5 n=69 v=100
65180 On ch=5 n=69 v=0
65280 On ch=5 n=69 v=100
65660 On ch=5 n=69 v=0
65760 On ch=5 n=67 v=100
66140 On ch=5 n=67 v=0
66240 On ch=5 n=66 v=100
66620 On ch=5 n=66 v=0
66720 On ch=5 n=64 v=100
67005 On ch=5 n=64 v=0
67083 On ch=5 n=62 v=100
67178 On ch=5 n=62 v=0
67200 On ch=5 n=62 v=100
68340 On ch=5 n=62 v=0
68640 On ch=5 n=69 v=100
69020 On ch=5 n=69 v=0
69120 On ch=5 n=69 v=100
69500 On ch=5 n=69 v=0
69600 On ch=5 n=67 v=100
69980 On ch=5 n=67 v=0
70080 On ch=5 n=66 v=100
70460 On ch=5 n=66 v=0
70560 On ch=5 n=64 v=100
70845 On ch=5 n=64 v=0
70923 On ch=5 n=62 v=100
71018 On ch=5 n=62 v=0
71040 On ch=5 n=62 v=100
72180 On ch=5 n=62 v=0
72480 On ch=5 n=81 v=100
72860 On ch=5 n=81 v=0
72960 On ch=5 n=81 v=100
73340 On ch=5 n=81 v=0
73440 On ch=5 n=79 v=100
73820 On ch=5 n=79 v=0
73920 On ch=5 n=78 v=100
74300 On ch=5 n=78 v=0
74400 On ch=5 n=76 v=100
74685 On ch=5 n=76 v=0
74763 On ch=5 n=74 v=100
74858 On ch=5 n=74 v=0
74880 On ch=5 n=74 v=100
75450 On ch=5 n=74 v=0
75606 On ch=5 n=76 v=100
75796 On ch=5 n=76 v=0
75840 On ch=5 n=78 v=100
76220 On ch=5 n=78 v=0
76320 On ch=5 n=80 v=100
76700 On ch=5 n=80 v=0
76800 On ch=5 n=81 v=100
77370 On ch=5 n=81 v=0
77526 On ch=5 n=81 v=100
77716 On ch=5 n=81 v=0
77760 On ch=5 n=83 v=100
78140 On ch=5 n=83 v=0
78240 On ch=5 n=85 v=100
78620 On ch=5 n=85 v=0
78720 On ch=5 n=86 v=100
79480 On ch=5 n=86 v=0
84000 On ch=5 n=62 v=100
84380 On ch=5 n=62 v=0
84480 On ch=5 n=69 v=100
84860 On ch=5 n=69 v=0
84960 On ch=5 n=61 v=100
85340 On ch=5 n=61 v=0
85440 On ch=5 n=66 v=100
85820 On ch=5 n=66 v=0
85920 On ch=5 n=57 v=100
86300 On ch=5 n=57 v=0
86400 On ch=5 n=62 v=100
86780 On ch=5 n=62 v=0
86880 On ch=5 n=61 v=100
87070 On ch=5 n=61 v=0
87126 On ch=5 n=59 v=100
87316 On ch=5 n=59 v=0
87360 On ch=5 n=61 v=100
87740 On ch=5 n=61 v=0
87840 On ch=5 n=59 v=100
88125 On ch=5 n=59 v=0
88203 On ch=5 n=57 v=100
88298 On ch=5 n=57 v=0
88320 On ch=5 n=57 v=100
88700 On ch=5 n=57 v=0
89526 On ch=5 n=57 v=100
89716 On ch=5 n=57 v=0
89760 On ch=5 n=62 v=100
89950 On ch=5 n=62 v=0
90006 On ch=5 n=62 v=100
90196 On ch=5 n=62 v=0
90240 On ch=5 n=62 v=100
90620 On ch=5 n=62 v=0
90966 On ch=5 n=59 v=100
91156 On ch=5 n=59 v=0
91200 On ch=5 n=64 v=100
91390 On ch=5 n=64 v=0
91446 On ch=5 n=61 v=100
91636 On ch=5 n=61 v=0
91680 On ch=5 n=62 v=100
92440 On ch=5 n=62 v=0
92640 On ch=5 n=61 v=100
93020 On ch=5 n=61 v=0
93120 On ch=5 n=62 v=100
93500 On ch=5 n=62 v=0
93600 On ch=5 n=74 v=100
93980 On ch=5 n=74 v=0
94080 On ch=5 n=81 v=100
94460 On ch=5 n=81 v=0
94560 On ch=5 n=73 v=100
94940 On ch=5 n=73 v=0
95040 On ch=5 n=78 v=100
95420 On ch=5 n=78 v=0
95507 On ch=5 n=69 v=100
95887 On ch=5 n=69 v=0
96000 On ch=5 n=74 v=100
96380 On ch=5 n=74 v=0
96480 On ch=5 n=73 v=100
96670 On ch=5 n=73 v=0
96726 On ch=5 n=71 v=100
96916 On ch=5 n=71 v=0
96960 On ch=5 n=73 v=100
97340 On ch=5 n=73 v=0
97440 On ch=5 n=71 v=100
97725 On ch=5 n=71 v=0
97803 On ch=5 n=69 v=100
97898 On ch=5 n=69 v=0
97920 On ch=5 n=69 v=100
98680 On ch=5 n=69 v=0
100553 On ch=5 n=81 v=100
100743 On ch=5 n=81 v=0
100800 On ch=5 n=86 v=100
100990 On ch=5 n=86 v=0
101046 On ch=5 n=85 v=100
101236 On ch=5 n=85 v=0
101513 On ch=5 n=81 v=100
101703 On ch=5 n=81 v=0
101760 On ch=5 n=86 v=100
101950 On ch=5 n=86 v=0
102006 On ch=5 n=85 v=100
102196 On ch=5 n=85 v=0
102473 On ch=5 n=81 v=100
102568 On ch=5 n=81 v=0
102603 On ch=5 n=81 v=100
102698 On ch=5 n=81 v=0
102720 On ch=5 n=86 v=100
102910 On ch=5 n=86 v=0
102966 On ch=5 n=85 v=100
103156 On ch=5 n=85 v=0
103433 On ch=5 n=81 v=100
103528 On ch=5 n=81 v=0
103563 On ch=5 n=81 v=100
103658 On ch=5 n=81 v=0
103680 On ch=5 n=86 v=100
103870 On ch=5 n=86 v=0
103926 On ch=5 n=85 v=100
104116 On ch=5 n=85 v=0
106313 On ch=5 n=81 v=100
106503 On ch=5 n=81 v=0
106560 On ch=5 n=86 v=100
106750 On ch=5 n=86 v=0
106806 On ch=5 n=85 v=100
106996 On ch=5 n=85 v=0
107273 On ch=5 n=81 v=100
107463 On ch=5 n=81 v=0
107520 On ch=5 n=86 v=100
107710 On ch=5 n=86 v=0
107766 On ch=5 n=85 v=100
107956 On ch=5 n=85 v=0
108233 On ch=5 n=81 v=100
108328 On ch=5 n=81 v=0
108363 On ch=5 n=81 v=100
108458 On ch=5 n=81 v=0
108480 On ch=5 n=86 v=100
108670 On ch=5 n=86 v=0
108726 On ch=5 n=85 v=100
108916 On ch=5 n=85 v=0
109193 On ch=5 n=81 v=100
109288 On ch=5 n=81 v=0
109323 On ch=5 n=81 v=100
109418 On ch=5 n=81 v=0
109440 On ch=5 n=86 v=100
109630 On ch=5 n=86 v=0
109686 On ch=5 n=85 v=100
109876 On ch=5 n=85 v=0
112086 On ch=5 n=81 v=100
112276 On ch=5 n=81 v=0
112320 On ch=5 n=83 v=100
112510 On ch=5 n=83 v=0
112566 On ch=5 n=81 v=100
112756 On ch=5 n=81 v=0
112800 On ch=5 n=86 v=100
112990 On ch=5 n=86 v=0
113046 On ch=5 n=81 v=100
113236 On ch=5 n=81 v=0
113280 On ch=5 n=83 v=100
113470 On ch=5 n=83 v=0
113526 On ch=5 n=81 v=100
113716 On ch=5 n=81 v=0
113993 On ch=5 n=81 v=100
114088 On ch=5 n=81 v=0
114123 On ch=5 n=81 v=100
114218 On ch=5 n=81 v=0
114240 On ch=5 n=83 v=100
114430 On ch=5 n=83 v=0
114486 On ch=5 n=81 v=100
114676 On ch=5 n=81 v=0
114953 On ch=5 n=81 v=100
115048 On ch=5 n=81 v=0
115083 On ch=5 n=81 v=100
115178 On ch=5 n=81 v=0
115200 On ch=5 n=83 v=100
115390 On ch=5 n=83 v=0
115446 On ch=5 n=81 v=100
115636 On ch=5 n=81 v=0
117846 On ch=5 n=83 v=100
118036 On ch=5 n=83 v=0
118080 On ch=5 n=85 v=100
118270 On ch=5 n=85 v=0
118326 On ch=5 n=83 v=100
118516 On ch=5 n=83 v=0
118560 On ch=5 n=76 v=100
118750 On ch=5 n=76 v=0
118806 On ch=5 n=83 v=100
118996 On ch=5 n=83 v=0
119040 On ch=5 n=85 v=100
119230 On ch=5 n=85 v=0
119286 On ch=5 n=83 v=100
119476 On ch=5 n=83 v=0
119520 On ch=5 n=76 v=100
119710 On ch=5 n=76 v=0
119753 On ch=5 n=83 v=100
119848 On ch=5 n=83 v=0
119883 On ch=5 n=83 v=100
119978 On ch=5 n=83 v=0
120000 On ch=5 n=85 v=100
120190 On ch=5 n=85 v=0
120246 On ch=5 n=83 v=100
120436 On ch=5 n=83 v=0
120713 On ch=5 n=83 v=100
120808 On ch=5 n=83 v=0
120843 On ch=5 n=83 v=100
120938 On ch=5 n=83 v=0
120960 On ch=5 n=85 v=100
121150 On ch=5 n=85 v=0
121206 On ch=5 n=83 v=100
121396 On ch=5 n=83 v=0
123606 On ch=5 n=85 v=100
123796 On ch=5 n=85 v=0
123840 On ch=5 n=86 v=100
124030 On ch=5 n=86 v=0
124086 On ch=5 n=85 v=100
124276 On ch=5 n=85 v=0
124320 On ch=5 n=78 v=100
124510 On ch=5 n=78 v=0
124566 On ch=5 n=85 v=100
124756 On ch=5 n=85 v=0
124800 On ch=5 n=86 v=100
124990 On ch=5 n=86 v=0
125046 On ch=5 n=85 v=100
125236 On ch=5 n=85 v=0
125280 On ch=5 n=78 v=100
125470 On ch=5 n=78 v=0
125513 On ch=5 n=85 v=100
125608 On ch=5 n=85 v=0
125643 On ch=5 n=85 v=100
125738 On ch=5 n=85 v=0
125760 On ch=5 n=86 v=100
125950 On ch=5 n=86 v=0
126006 On ch=5 n=85 v=100
126196 On ch=5 n=85 v=0
126473 On ch=5 n=85 v=100
126568 On ch=5 n=85 v=0
126603 On ch=5 n=85 v=100
126698 On ch=5 n=85 v=0
126720 On ch=5 n=86 v=100
127100 On ch=5 n=86 v=0
127200 On ch=5 n=74 v=100
127580 On ch=5 n=74 v=0
129600 On ch=5 n=86 v=100
129980 On ch=5 n=86 v=0
130080 On ch=5 n=86 v=100
130460 On ch=5 n=86 v=0
130560 On ch=5 n=81 v=100
130750 On ch=5 n=81 v=0
130806 On ch=5 n=76 v=100
130996 On ch=5 n=76 v=0
131040 On ch=5 n=76 v=100
131230 On ch=5 n=76 v=0
131286 On ch=5 n=79 v=100
131476 On ch=5 n=79 v=0
131520 On ch=5 n=78 v=100
131710 On ch=5 n=78 v=0
131766 On ch=5 n=76 v=100
131956 On ch=5 n=76 v=0
132000 On ch=5 n=78 v=100
132190 On ch=5 n=78 v=0
132246 On ch=5 n=79 v=100
132436 On ch=5 n=79 v=0
132480 On ch=5 n=76 v=100
133240 On ch=5 n=76 v=0
137760 On ch=5 n=81 v=100
138140 On ch=5 n=81 v=0
138240 On ch=5 n=86 v=100
138620 On ch=5 n=86 v=0
138720 On ch=5 n=78 v=100
139100 On ch=5 n=78 v=0
139200 On ch=5 n=83 v=100
139580 On ch=5 n=83 v=0
139680 On ch=5 n=74 v=100
140060 On ch=5 n=74 v=0
140160 On ch=5 n=79 v=100
140540 On ch=5 n=79 v=0
140640 On ch=5 n=78 v=100
140830 On ch=5 n=78 v=0
140886 On ch=5 n=76 v=100
141076 On ch=5 n=76 v=0
141120 On ch=5 n=78 v=100
141500 On ch=5 n=78 v=0
141600 On ch=5 n=76 v=100
141885 On ch=5 n=76 v=0
141963 On ch=5 n=74 v=100
142058 On ch=5 n=74 v=0
142080 On ch=5 n=74 v=100
142840 On ch=5 n=74 v=0
143040 On ch=5 n=62 v=100
143420 On ch=5 n=62 v=0
143520 On ch=5 n=62 v=100
143900 On ch=5 n=62 v=0
144000 On ch=5 n=62 v=100
144380 On ch=5 n=62 v=0
144726 On ch=5 n=81 v=100
144916 On ch=5 n=81 v=0
144960 On ch=5 n=83 v=100
145150 On ch=5 n=83 v=0
145206 On ch=5 n=81 v=100
145396 On ch=5 n=81 v=0
145686 On ch=5 n=81 v=100
145876 On ch=5 n=81 v=0
145920 On ch=5 n=83 v=100
146110 On ch=5 n=83 v=0
146166 On ch=5 n=81 v=100
146356 On ch=5 n=81 v=0
146646 On ch=5 n=62 v=100
146836 On ch=5 n=62 v=0
146880 On ch=5 n=62 v=100
147260 On ch=5 n=62 v=0
147360 On ch=5 n=62 v=100
147740 On ch=5 n=62 v=0
147840 On ch=5 n=62 v=100
148220 On ch=5 n=62 v=0
148553 On ch=5 n=81 v=100
148648 On ch=5 n=81 v=0
148683 On ch=5 n=81 v=100
148778 On ch=5 n=81 v=0
148800 On ch=5 n=83 v=100
148990 On ch=5 n=83 v=0
149046 On ch=5 n=81 v=100
149236 On ch=5 n=81 v=0
149513 On ch=5 n=81 v=100
149608 On ch=5 n=81 v=0
149643 On ch=5 n=81 v=100
149738 On ch=5 n=81 v=0
149760 On ch=5 n=83 v=100
149950 On ch=5 n=83 v=0
150006 On ch=5 n=81 v=100
150196 On ch=5 n=81 v=0
151200 On ch=5 n=81 v=100
151580 On ch=5 n=81 v=0
151680 On ch=5 n=86 v=100
152060 On ch=5 n=86 v=0
152160 On ch=5 n=78 v=100
152540 On ch=5 n=78 v=0
152640 On ch=5 n=83 v=100
153020 On ch=5 n=83 v=0
153120 On ch=5 n=74 v=100
153500 On ch=5 n=74 v=0
153600 On ch=5 n=79 v=100
153980 On ch=5 n=79 v=0
154080 On ch=5 n=78 v=100
154270 On ch=5 n=78 v=0
154326 On ch=5 n=76 v=100
154516 On ch=5 n=76 v=0
154560 On ch=5 n=76 v=100
155130 On ch=5 n=76 v=0
155286 On ch=5 n=81 v=100
155476 On ch=5 n=81 v=0
155520 On ch=5 n=78 v=100
155615 On ch=5 n=78 v=0
155636 On ch=5 n=76 v=100
155731 On ch=5 n=76 v=0
155753 On ch=5 n=78 v=100
155848 On ch=5 n=78 v=0
155883 On ch=5 n=79 v=100
155978 On ch=5 n=79 v=0
156000 On ch=5 n=81 v=100
156095 On ch=5 n=81 v=0
156116 On ch=5 n=79 v=100
156211 On ch=5 n=79 v=0
156233 On ch=5 n=78 v=100
156328 On ch=5 n=78 v=0
156363 On ch=5 n=76 v=100
156458 On ch=5 n=76 v=0
156480 On ch=5 n=74 v=100
156670 On ch=5 n=74 v=0
156713 On ch=5 n=74 v=100
156808 On ch=5 n=74 v=0
156843 On ch=5 n=74 v=100
156938 On ch=5 n=74 v=0
156960 On ch=5 n=78 v=100
157150 On ch=5 n=78 v=0
157193 On ch=5 n=78 v=100
157288 On ch=5 n=78 v=0
157323 On ch=5 n=79 v=100
157418 On ch=5 n=79 v=0
157440 On ch=5 n=81 v=100
157630 On ch=5 n=81 v=0
157673 On ch=5 n=78 v=100
157768 On ch=5 n=78 v=0
157803 On ch=5 n=79 v=100
157898 On ch=5 n=79 v=0
157920 On ch=5 n=81 v=100
158110 On ch=5 n=81 v=0
158153 On ch=5 n=83 v=100
158248 On ch=5 n=83 v=0
158283 On ch=5 n=85 v=100
158378 On ch=5 n=85 v=0
158400 On ch=5 n=86 v=100
158590 On ch=5 n=86 v=0
158620 On ch=5 n=74 v=100
158715 On ch=5 n=74 v=0
158763 On ch=5 n=76 v=100
158858 On ch=5 n=76 v=0
158880 On ch=5 n=78 v=100
159070 On ch=5 n=78 v=0
159113 On ch=5 n=78 v=100
159208 On ch=5 n=78 v=0
159243 On ch=5 n=79 v=100
159338 On ch=5 n=79 v=0
159360 On ch=5 n=81 v=100
159550 On ch=5 n=81 v=0
159593 On ch=5 n=78 v=100
159688 On ch=5 n=78 v=0
159723 On ch=5 n=79 v=100
159818 On ch=5 n=79 v=0
159840 On ch=5 n=81 v=100
160030 On ch=5 n=81 v=0
160073 On ch=5 n=83 v=100
160168 On ch=5 n=83 v=0
160203 On ch=5 n=85 v=100
160298 On ch=5 n=85 v=0
160320 On ch=5 n=86 v=100
160510 On ch=5 n=86 v=0
160553 On ch=5 n=74 v=100
160648 On ch=5 n=74 v=0
160683 On ch=5 n=76 v=100
160778 On ch=5 n=76 v=0
160800 On ch=5 n=78 v=100
160990 On ch=5 n=78 v=0
161033 On ch=5 n=78 v=100
161128 On ch=5 n=78 v=0
161163 On ch=5 n=79 v=100
161258 On ch=5 n=79 v=0
161280 On ch=5 n=81 v=100
161470 On ch=5 n=81 v=0
161513 On ch=5 n=78 v=100
161608 On ch=5 n=78 v=0
161643 On ch=5 n=79 v=100
161738 On ch=5 n=79 v=0
161760 On ch=5 n=81 v=100
161950 On ch=5 n=81 v=0
161993 On ch=5 n=83 v=100
162088 On ch=5 n=83 v=0
162123 On ch=5 n=85 v=100
162218 On ch=5 n=85 v=0
162240 On ch=5 n=86 v=100
162430 On ch=5 n=86 v=0
162473 On ch=5 n=74 v=100
162568 On ch=5 n=74 v=0
162603 On ch=5 n=76 v=100
162698 On ch=5 n=76 v=0
162720 On ch=5 n=78 v=100
162910 On ch=5 n=78 v=0
162953 On ch=5 n=78 v=100
163048 On ch=5 n=78 v=0
163083 On ch=5 n=79 v=100
163178 On ch=5 n=79 v=0
163200 On ch=5 n=81 v=100
163390 On ch=5 n=81 v=0
163433 On ch=5 n=78 v=100
163528 On ch=5 n=78 v=0
163563 On ch=5 n=79 v=100
163658 On ch=5 n=79 v=0
163680 On ch=5 n=81 v=100
163870 On ch=5 n=81 v=0
163913 On ch=5 n=83 v=100
164008 On ch=5 n=83 v=0
164043 On ch=5 n=85 v=100
164138 On ch=5 n=85 v=0
164160 On ch=5 n=86 v=100
164540 On ch=5 n=86 v=0
164640 On ch=5 n=81 v=100
165020 On ch=5 n=81 v=0
165120 On ch=5 n=86 v=100
165500 On ch=5 n=86 v=0
165600 On ch=5 n=78 v=100
165980 On ch=5 n=78 v=0
166080 On ch=5 n=83 v=100
166460 On ch=5 n=83 v=0
166560 On ch=5 n=74 v=100
166940 On ch=5 n=74 v=0
167040 On ch=5 n=79 v=100
167420 On ch=5 n=79 v=0
167520 On ch=5 n=78 v=100
167710 On ch=5 n=78 v=0
167766 On ch=5 n=76 v=100
167956 On ch=5 n=76 v=0
168000 On ch=5 n=76 v=100
168570 On ch=5 n=76 v=0
168726 On ch=5 n=74 v=100
168916 On ch=5 n=74 v=0
168960 On ch=5 n=74 v=100
169340 On ch=5 n=74 v=0
169686 On ch=5 n=81 v=100
169876 On ch=5 n=81 v=0
169920 On ch=5 n=83 v=100
170110 On ch=5 n=83 v=0
170166 On ch=5 n=81 v=100
170356 On ch=5 n=81 v=0
170646 On ch=5 n=81 v=100
170836 On ch=5 n=81 v=0
170880 On ch=5 n=83 v=100
171070 On ch=5 n=83 v=0
171126 On ch=5 n=81 v=100
171316 On ch=5 n=81 v=0
171606 On ch=5 n=81 v=100
171796 On ch=5 n=81 v=0
171840 On ch=5 n=83 v=100
172030 On ch=5 n=83 v=0
172086 On ch=5 n=81 v=100
172276 On ch=5 n=81 v=0
172566 On ch=5 n=81 v=100
172756 On ch=5 n=81 v=0
172800 On ch=5 n=83 v=100
172990 On ch=5 n=83 v=0
173033 On ch=5 n=81 v=100
173128 On ch=5 n=81 v=0
173163 On ch=5 n=81 v=100
173258 On ch=5 n=81 v=0
173280 On ch=5 n=86 v=100
173470 On ch=5 n=86 v=0
173513 On ch=5 n=81 v=100
173608 On ch=5 n=81 v=0
173643 On ch=5 n=81 v=100
173738 On ch=5 n=81 v=0
173760 On ch=5 n=83 v=100
173950 On ch=5 n=83 v=0
173993 On ch=5 n=81 v=100
174088 On ch=5 n=81 v=0
174123 On ch=5 n=81 v=100
174218 On ch=5 n=81 v=0
174240 On ch=5 n=86 v=100
174430 On ch=5 n=86 v=0
174473 On ch=5 n=81 v=100
174568 On ch=5 n=81 v=0
174603 On ch=5 n=81 v=100
174698 On ch=5 n=81 v=0
174720 On ch=5 n=83 v=100
174910 On ch=5 n=83 v=0
174953 On ch=5 n=81 v=100
175048 On ch=5 n=81 v=0
175083 On ch=5 n=81 v=100
175178 On ch=5 n=81 v=0
175200 On ch=5 n=86 v=100
175390 On ch=5 n=86 v=0
175433 On ch=5 n=81 v=100
175528 On ch=5 n=81 v=0
175563 On ch=5 n=81 v=100
175658 On ch=5 n=81 v=0
175680 On ch=5 n=83 v=100
175870 On ch=5 n=83 v=0
175913 On ch=5 n=81 v=100
176008 On ch=5 n=81 v=0
176043 On ch=5 n=81 v=100
176138 On ch=5 n=81 v=0
176160 On ch=5 n=86 v=100
176350 On ch=5 n=86 v=0
176393 On ch=5 n=81 v=100
176488 On ch=5 n=81 v=0
176523 On ch=5 n=81 v=100
176618 On ch=5 n=81 v=0
176640 On ch=5 n=83 v=100
176830 On ch=5 n=83 v=0
176886 On ch=5 n=81 v=100
177076 On ch=5 n=81 v=0
178080 On ch=5 n=81 v=100
178460 On ch=5 n=81 v=0
178560 On ch=5 n=83 v=100
179700 On ch=5 n=83 v=0
180000 On ch=5 n=83 v=100
180380 On ch=5 n=83 v=0
180480 On ch=5 n=81 v=100
182001 On ch=5 n=81 v=0
182001 Meta TrkEnd
TrkEnd
MTrk
0 Meta 0x21 00
0 Meta TrkName "Violin 2"
0 PrCh ch=6 p=48
0 Par ch=6 c=7 v=127
0 Par ch=6 c=10 v=40
182 Par ch=6 c=91 v=80
1920 On ch=6 n=69 v=100
2490 On ch=6 n=69 v=0
2646 On ch=6 n=78 v=100
2836 On ch=6 n=78 v=0
2880 On ch=6 n=79 v=100
3070 On ch=6 n=79 v=0
3126 On ch=6 n=78 v=100
3316 On ch=6 n=78 v=0
3840 On ch=6 n=78 v=100
4220 On ch=6 n=78 v=0
4320 On ch=6 n=69 v=100
4510 On ch=6 n=69 v=0
4566 On ch=6 n=74 v=100
4756 On ch=6 n=74 v=0
4800 On ch=6 n=73 v=100
4990 On ch=6 n=73 v=0
5046 On ch=6 n=74 v=100
5236 On ch=6 n=74 v=0
5526 On ch=6 n=69 v=100
5716 On ch=6 n=69 v=0
5760 On ch=6 n=73 v=100
5950 On ch=6 n=73 v=0
6006 On ch=6 n=74 v=100
6386 On ch=6 n=74 v=0
6486 On ch=6 n=73 v=100
6676 On ch=6 n=73 v=0
6720 On ch=6 n=74 v=100
6910 On ch=6 n=74 v=0
6966 On ch=6 n=66 v=100
7156 On ch=6 n=66 v=0
7200 On ch=6 n=67 v=100
7390 On ch=6 n=67 v=0
7446 On ch=6 n=64 v=100
7636 On ch=6 n=64 v=0
7680 On ch=6 n=66 v=100
8060 On ch=6 n=66 v=0
8640 On ch=6 n=62 v=100
9210 On ch=6 n=62 v=0
9366 On ch=6 n=66 v=100
9556 On ch=6 n=66 v=0
9600 On ch=6 n=62 v=100
9790 On ch=6 n=62 v=0
9846 On ch=6 n=57 v=100
10036 On ch=6 n=57 v=0
10560 On ch=6 n=74 v=100
11130 On ch=6 n=74 v=0
11286 On ch=6 n=74 v=100
11476 On ch=6 n=74 v=0
11520 On ch=6 n=71 v=100
11710 On ch=6 n=71 v=0
11753 On ch=6 n=69 v=100
11848 On ch=6 n=69 v=0
11883 On ch=6 n=69 v=100
11978 On ch=6 n=69 v=0
12000 On ch=6 n=71 v=100
12190 On ch=6 n=71 v=0
12246 On ch=6 n=69 v=100
12436 On ch=6 n=69 v=0
12713 On ch=6 n=78 v=100
12808 On ch=6 n=78 v=0
12843 On ch=6 n=78 v=100
12938 On ch=6 n=78 v=0
12960 On ch=6 n=79 v=100
13150 On ch=6 n=79 v=0
13206 On ch=6 n=74 v=100
13396 On ch=6 n=74 v=0
14166 On ch=6 n=73 v=100
14356 On ch=6 n=73 v=0
14400 On ch=6 n=74 v=100
14590 On ch=6 n=74 v=0
14646 On ch=6 n=74 v=100
14836 On ch=6 n=74 v=0
14880 On ch=6 n=73 v=100
15070 On ch=6 n=73 v=0
15126 On ch=6 n=74 v=100
15316 On ch=6 n=74 v=0
15360 On ch=6 n=73 v=100
15740 On ch=6 n=73 v=0
16320 On ch=6 n=69 v=100
16890 On ch=6 n=69 v=0
17046 On ch=6 n=73 v=100
17236 On ch=6 n=73 v=0
17280 On ch=6 n=69 v=100
17660 On ch=6 n=69 v=0
18473 On ch=6 n=73 v=100
18568 On ch=6 n=73 v=0
18603 On ch=6 n=73 v=100
18698 On ch=6 n=73 v=0
18720 On ch=6 n=74 v=100
18910 On ch=6 n=74 v=0
18966 On ch=6 n=73 v=100
19156 On ch=6 n=73 v=0
19433 On ch=6 n=76 v=100
19528 On ch=6 n=76 v=0
19563 On ch=6 n=76 v=100
19658 On ch=6 n=76 v=0
19680 On ch=6 n=78 v=100
19870 On ch=6 n=78 v=0
19926 On ch=6 n=76 v=100
20116 On ch=6 n=76 v=0
20393 On ch=6 n=76 v=100
20488 On ch=6 n=76 v=0
20523 On ch=6 n=76 v=100
20618 On ch=6 n=76 v=0
20640 On ch=6 n=78 v=100
20830 On ch=6 n=78 v=0
20886 On ch=6 n=76 v=100
21076 On ch=6 n=76 v=0
21120 On ch=6 n=69 v=100
21310 On ch=6 n=69 v=0
21366 On ch=6 n=76 v=100
21556 On ch=6 n=76 v=0
21600 On ch=6 n=74 v=100
21980 On ch=6 n=74 v=0
22080 On ch=6 n=73 v=100
22270 On ch=6 n=73 v=0
22313 On ch=6 n=73 v=100
22408 On ch=6 n=73 v=0
22443 On ch=6 n=73 v=100
22538 On ch=6 n=73 v=0
22560 On ch=6 n=74 v=100
22750 On ch=6 n=74 v=0
22806 On ch=6 n=73 v=100
22996 On ch=6 n=73 v=0
23040 On ch=6 n=69 v=100
23800 On ch=6 n=69 v=0
24000 On ch=6 n=71 v=100
24380 On ch=6 n=71 v=0
24480 On ch=6 n=73 v=100
24860 On ch=6 n=73 v=0
24960 On ch=6 n=74 v=100
25150 On ch=6 n=74 v=0
25206 On ch=6 n=62 v=100
25396 On ch=6 n=62 v=0
25440 On ch=6 n=74 v=100
26200 On ch=6 n=74 v=0
26400 On ch=6 n=73 v=100
26780 On ch=6 n=73 v=0
26880 On ch=6 n=71 v=100
27640 On ch=6 n=71 v=0
27840 On ch=6 n=69 v=100
28220 On ch=6 n=69 v=0
28553 On ch=6 n=76 v=100
28648 On ch=6 n=76 v=0
28683 On ch=6 n=76 v=100
28778 On ch=6 n=76 v=0
28800 On ch=6 n=78 v=100
28990 On ch=6 n=78 v=0
29046 On ch=6 n=76 v=100
29236 On ch=6 n=76 v=0
29513 On ch=6 n=76 v=100
29608 On ch=6 n=76 v=0
29643 On ch=6 n=76 v=100
29738 On ch=6 n=76 v=0
29760 On ch=6 n=78 v=100
29950 On ch=6 n=78 v=0
30006 On ch=6 n=76 v=100
30196 On ch=6 n=76 v=0
30473 On ch=6 n=76 v=100
30568 On ch=6 n=76 v=0
30603 On ch=6 n=76 v=100
30698 On ch=6 n=76 v=0
30720 On ch=6 n=78 v=100
30910 On ch=6 n=78 v=0
30953 On ch=6 n=76 v=100
31048 On ch=6 n=76 v=0
31083 On ch=6 n=76 v=100
31178 On ch=6 n=76 v=0
31200 On ch=6 n=76 v=100
31390 On ch=6 n=76 v=0
31433 On ch=6 n=76 v=100
31528 On ch=6 n=76 v=0
31563 On ch=6 n=76 v=100
31658 On ch=6 n=76 v=0
31680 On ch=6 n=78 v=100
31870 On ch=6 n=78 v=0
31926 On ch=6 n=76 v=100
32116 On ch=6 n=76 v=0
32640 On ch=6 n=62 v=100
33400 On ch=6 n=62 v=0
33600 On ch=6 n=64 v=100
33980 On ch=6 n=64 v=0
34080 On ch=6 n=66 v=100
34460 On ch=6 n=66 v=0
34560 On ch=6 n=67 v=100
34750 On ch=6 n=67 v=0
34806 On ch=6 n=55 v=100
34996 On ch=6 n=55 v=0
35040 On ch=6 n=67 v=100
35800 On ch=6 n=67 v=0
36000 On ch=6 n=66 v=100
36380 On ch=6 n=66 v=0
36480 On ch=6 n=64 v=100
37240 On ch=6 n=64 v=0
37440 On ch=6 n=62 v=100
37820 On ch=6 n=62 v=0
38153 On ch=6 n=74 v=100
38248 On ch=6 n=74 v=0
38283 On ch=6 n=74 v=100
38378 On ch=6 n=74 v=0
38400 On ch=6 n=79 v=100
38590 On ch=6 n=79 v=0
38646 On ch=6 n=78 v=100
38836 On ch=6 n=78 v=0
39113 On ch=6 n=81 v=100
39208 On ch=6 n=81 v=0
39243 On ch=6 n=74 v=100
39338 On ch=6 n=74 v=0
39360 On ch=6 n=79 v=100
39550 On ch=6 n=79 v=0
39606 On ch=6 n=78 v=100
39796 On ch=6 n=78 v=0
40073 On ch=6 n=81 v=100
40168 On ch=6 n=81 v=0
40203 On ch=6 n=74 v=100
40298 On ch=6 n=74 v=0
40320 On ch=6 n=79 v=100
40510 On ch=6 n=79 v=0
40553 On ch=6 n=78 v=100
40648 On ch=6 n=78 v=0
40683 On ch=6 n=78 v=100
40778 On ch=6 n=78 v=0
40800 On ch=6 n=78 v=100
40990 On ch=6 n=78 v=0
41033 On ch=6 n=81 v=100
41128 On ch=6 n=81 v=0
41163 On ch=6 n=74 v=100
41258 On ch=6 n=74 v=0
41280 On ch=6 n=79 v=100
41470 On ch=6 n=79 v=0
41526 On ch=6 n=78 v=100
41716 On ch=6 n=78 v=0
43433 On ch=6 n=69 v=100
43528 On ch=6 n=69 v=0
43563 On ch=6 n=69 v=100
43658 On ch=6 n=69 v=0
43680 On ch=6 n=66 v=100
43870 On ch=6 n=66 v=0
43926 On ch=6 n=62 v=100
44116 On ch=6 n=62 v=0
44393 On ch=6 n=62 v=100
44488 On ch=6 n=62 v=0
44523 On ch=6 n=62 v=100
44618 On ch=6 n=62 v=0
44640 On ch=6 n=71 v=100
44830 On ch=6 n=71 v=0
44886 On ch=6 n=71 v=100
45076 On ch=6 n=71 v=0
45120 On ch=6 n=64 v=100
45310 On ch=6 n=64 v=0
45366 On ch=6 n=69 v=100
45556 On ch=6 n=69 v=0
45833 On ch=6 n=69 v=100
45928 On ch=6 n=69 v=0
45963 On ch=6 n=69 v=100
46058 On ch=6 n=69 v=0
46080 On ch=6 n=67 v=100
46270 On ch=6 n=67 v=0
46326 On ch=6 n=64 v=100
46516 On ch=6 n=64 v=0
46560 On ch=6 n=69 v=100
46750 On ch=6 n=69 v=0
46806 On ch=6 n=69 v=100
46996 On ch=6 n=69 v=0
47040 On ch=6 n=69 v=100
47230 On ch=6 n=69 v=0
47273 On ch=6 n=81 v=100
47368 On ch=6 n=81 v=0
47403 On ch=6 n=81 v=100
47498 On ch=6 n=81 v=0
47520 On ch=6 n=78 v=100
47710 On ch=6 n=78 v=0
47766 On ch=6 n=74 v=100
47956 On ch=6 n=74 v=0
48233 On ch=6 n=76 v=100
48328 On ch=6 n=76 v=0
48363 On ch=6 n=76 v=100
48458 On ch=6 n=76 v=0
48480 On ch=6 n=73 v=100
48670 On ch=6 n=73 v=0
48713 On ch=6 n=85 v=100
48808 On ch=6 n=85 v=0
48843 On ch=6 n=85 v=100
48938 On ch=6 n=85 v=0
48960 On ch=6 n=86 v=100
49150 On ch=6 n=86 v=0
49193 On ch=6 n=74 v=100
49288 On ch=6 n=74 v=0
49323 On ch=6 n=74 v=100
49418 On ch=6 n=74 v=0
49440 On ch=6 n=69 v=100
49630 On ch=6 n=69 v=0
49673 On ch=6 n=76 v=100
49768 On ch=6 n=76 v=0
49803 On ch=6 n=76 v=100
49898 On ch=6 n=76 v=0
49920 On ch=6 n=69 v=100
50110 On ch=6 n=69 v=0
50153 On ch=6 n=81 v=100
50248 On ch=6 n=81 v=0
50283 On ch=6 n=79 v=100
50378 On ch=6 n=79 v=0
50400 On ch=6 n=78 v=100
50590 On ch=6 n=78 v=0
50633 On ch=6 n=83 v=100
50728 On ch=6 n=83 v=0
50763 On ch=6 n=81 v=100
50858 On ch=6 n=81 v=0
50880 On ch=6 n=80 v=100
51070 On ch=6 n=80 v=0
51126 On ch=6 n=76 v=100
51316 On ch=6 n=76 v=0
51360 On ch=6 n=81 v=100
52120 On ch=6 n=81 v=0
52320 On ch=6 n=80 v=100
52700 On ch=6 n=80 v=0
52800 On ch=6 n=81 v=100
52990 On ch=6 n=81 v=0
53033 On ch=6 n=73 v=100
53128 On ch=6 n=73 v=0
53163 On ch=6 n=73 v=100
53258 On ch=6 n=73 v=0
53280 On ch=6 n=76 v=100
53470 On ch=6 n=76 v=0
53526 On ch=6 n=73 v=100
53716 On ch=6 n=73 v=0
53993 On ch=6 n=78 v=100
54088 On ch=6 n=78 v=0
54123 On ch=6 n=78 v=100
54218 On ch=6 n=78 v=0
54240 On ch=6 n=81 v=100
54430 On ch=6 n=81 v=0
54486 On ch=6 n=78 v=100
54676 On ch=6 n=78 v=0
54953 On ch=6 n=73 v=100
55048 On ch=6 n=73 v=0
55083 On ch=6 n=73 v=100
55178 On ch=6 n=73 v=0
55200 On ch=6 n=76 v=100
55390 On ch=6 n=76 v=0
55446 On ch=6 n=73 v=100
55636 On ch=6 n=73 v=0
55913 On ch=6 n=66 v=100
56008 On ch=6 n=66 v=0
56043 On ch=6 n=66 v=100
56138 On ch=6 n=66 v=0
56160 On ch=6 n=69 v=100
56350 On ch=6 n=69 v=0
56393 On ch=6 n=78 v=100
56488 On ch=6 n=78 v=0
56523 On ch=6 n=78 v=100
56618 On ch=6 n=78 v=0
56640 On ch=6 n=81 v=100
56830 On ch=6 n=81 v=0
56873 On ch=6 n=76 v=100
56968 On ch=6 n=76 v=0
57003 On ch=6 n=76 v=100
57098 On ch=6 n=76 v=0
57120 On ch=6 n=69 v=100
57310 On ch=6 n=69 v=0
57353 On ch=6 n=74 v=100
57448 On ch=6 n=74 v=0
57483 On ch=6 n=74 v=100
57578 On ch=6 n=74 v=0
57600 On ch=6 n=79 v=100
57790 On ch=6 n=79 v=0
57833 On ch=6 n=74 v=100
57928 On ch=6 n=74 v=0
57963 On ch=6 n=74 v=100
58058 On ch=6 n=74 v=0
58080 On ch=6 n=71 v=100
58270 On ch=6 n=71 v=0
58313 On ch=6 n=67 v=100
58408 On ch=6 n=67 v=0
58443 On ch=6 n=67 v=100
58538 On ch=6 n=67 v=0
58560 On ch=6 n=64 v=100
58750 On ch=6 n=64 v=0
58793 On ch=6 n=76 v=100
58888 On ch=6 n=76 v=0
58923 On ch=6 n=76 v=100
59018 On ch=6 n=76 v=0
59040 On ch=6 n=78 v=100
59230 On ch=6 n=78 v=0
59273 On ch=6 n=74 v=100
59368 On ch=6 n=74 v=0
59403 On ch=6 n=74 v=100
59498 On ch=6 n=74 v=0
59520 On ch=6 n=83 v=100
59710 On ch=6 n=83 v=0
59766 On ch=6 n=79 v=100
59956 On ch=6 n=79 v=0
60000 On ch=6 n=76 v=100
60285 On ch=6 n=76 v=0
60363 On ch=6 n=76 v=100
60458 On ch=6 n=76 v=0
60480 On ch=6 n=81 v=100
60670 On ch=6 n=81 v=0
60713 On ch=6 n=74 v=100
60808 On ch=6 n=74 v=0
60843 On ch=6 n=74 v=100
60938 On ch=6 n=74 v=0
60960 On ch=6 n=69 v=100
61150 On ch=6 n=69 v=0
61193 On ch=6 n=78 v=100
61288 On ch=6 n=78 v=0
61323 On ch=6 n=78 v=100
61418 On ch=6 n=78 v=0
61440 On ch=6 n=79 v=100
61630 On ch=6 n=79 v=0
61686 On ch=6 n=79 v=100
61876 On ch=6 n=79 v=0
61920 On ch=6 n=79 v=100
62110 On ch=6 n=79 v=0
62166 On ch=6 n=79 v=100
62356 On ch=6 n=79 v=0
62400 On ch=6 n=78 v=100
62590 On ch=6 n=78 v=0
62633 On ch=6 n=78 v=100
62728 On ch=6 n=78 v=0
62763 On ch=6 n=78 v=100
62858 On ch=6 n=78 v=0
62880 On ch=6 n=74 v=100
63070 On ch=6 n=74 v=0
63126 On ch=6 n=69 v=100
63316 On ch=6 n=69 v=0
63360 On ch=6 n=74 v=100
63550 On ch=6 n=74 v=0
63593 On ch=6 n=74 v=100
63688 On ch=6 n=74 v=0
63723 On ch=6 n=74 v=100
63818 On ch=6 n=74 v=0
63840 On ch=6 n=79 v=100
64030 On ch=6 n=79 v=0
64086 On ch=6 n=79 v=100
64276 On ch=6 n=79 v=0
64320 On ch=6 n=78 v=100
64700 On ch=6 n=78 v=0
64800 On ch=6 n=66 v=100
65180 On ch=6 n=66 v=0
65280 On ch=6 n=64 v=100
65660 On ch=6 n=64 v=0
65760 On ch=6 n=62 v=100
66520 On ch=6 n=62 v=0
66720 On ch=6 n=61 v=100
67100 On ch=6 n=61 v=0
67200 On ch=6 n=62 v=100
68340 On ch=6 n=62 v=0
68640 On ch=6 n=66 v=100
69020 On ch=6 n=66 v=0
69120 On ch=6 n=64 v=100
69500 On ch=6 n=64 v=0
69600 On ch=6 n=62 v=100
70360 On ch=6 n=62 v=0
70560 On ch=6 n=61 v=100
70845 On ch=6 n=61 v=0
70923 On ch=6 n=62 v=100
71018 On ch=6 n=62 v=0
71040 On ch=6 n=57 v=100
72180 On ch=6 n=57 v=0
72480 On ch=6 n=78 v=100
72860 On ch=6 n=78 v=0
72960 On ch=6 n=76 v=100
73340 On ch=6 n=76 v=0
73440 On ch=6 n=74 v=100
73820 On ch=6 n=74 v=0
73920 On ch=6 n=74 v=100
74300 On ch=6 n=74 v=0
74400 On ch=6 n=73 v=100
74780 On ch=6 n=73 v=0
74880 On ch=6 n=69 v=100
75450 On ch=6 n=69 v=0
75606 On ch=6 n=73 v=100
75796 On ch=6 n=73 v=0
75840 On ch=6 n=74 v=100
76220 On ch=6 n=74 v=0
76320 On ch=6 n=74 v=100
76700 On ch=6 n=74 v=0
76800 On ch=6 n=73 v=100
77370 On ch=6 n=73 v=0
77526 On ch=6 n=74 v=100
77716 On ch=6 n=74 v=0
77760 On ch=6 n=74 v=100
78140 On ch=6 n=74 v=0
78240 On ch=6 n=79 v=100
78620 On ch=6 n=79 v=0
78720 On ch=6 n=78 v=100
79480 On ch=6 n=78 v=0
88800 On ch=6 n=69 v=100
89180 On ch=6 n=69 v=0
89280 On ch=6 n=74 v=100
89660 On ch=6 n=74 v=0
89760 On ch=6 n=66 v=100
90140 On ch=6 n=66 v=0
90240 On ch=6 n=71 v=100
90620 On ch=6 n=71 v=0
90720 On ch=6 n=62 v=100
91100 On ch=6 n=62 v=0
91200 On ch=6 n=67 v=100
91580 On ch=6 n=67 v=0
91680 On ch=6 n=66 v=100
91870 On ch=6 n=66 v=0
91926 On ch=6 n=64 v=100
92116 On ch=6 n=64 v=0
92160 On ch=6 n=66 v=100
92540 On ch=6 n=66 v=0
92640 On ch=6 n=64 v=100
92925 On ch=6 n=64 v=0
93003 On ch=6 n=62 v=100
93098 On ch=6 n=62 v=0
93120 On ch=6 n=62 v=100
93310 On ch=6 n=62 v=0
93366 On ch=6 n=69 v=100
93556 On ch=6 n=69 v=0
93600 On ch=6 n=66 v=100
93790 On ch=6 n=66 v=0
93846 On ch=6 n=62 v=100
94036 On ch=6 n=62 v=0
94326 On ch=6 n=64 v=100
94516 On ch=6 n=64 v=0
94560 On ch=6 n=69 v=100
94750 On ch=6 n=69 v=0
94806 On ch=6 n=64 v=100
94996 On ch=6 n=64 v=0
95286 On ch=6 n=62 v=100
95476 On ch=6 n=62 v=0
95520 On ch=6 n=61 v=100
95710 On ch=6 n=61 v=0
95766 On ch=6 n=57 v=100
95956 On ch=6 n=57 v=0
96000 On ch=6 n=62 v=100
96190 On ch=6 n=62 v=0
96246 On ch=6 n=71 v=100
96436 On ch=6 n=71 v=0
96480 On ch=6 n=69 v=100
97240 On ch=6 n=69 v=0
97440 On ch=6 n=68 v=100
97820 On ch=6 n=68 v=0
97920 On ch=6 n=69 v=100
98300 On ch=6 n=69 v=0
98400 On ch=6 n=64 v=100
98780 On ch=6 n=64 v=0
100566 On ch=6 n=76 v=100
100756 On ch=6 n=76 v=0
100800 On ch=6 n=78 v=100
100990 On ch=6 n=78 v=0
101046 On ch=6 n=76 v=100
101236 On ch=6 n=76 v=0
101526 On ch=6 n=76 v=100
101716 On ch=6 n=76 v=0
101760 On ch=6 n=78 v=100
101950 On ch=6 n=78 v=0
102006 On ch=6 n=76 v=100
102196 On ch=6 n=76 v=0
102473 On ch=6 n=76 v=100
102568 On ch=6 n=76 v=0
102603 On ch=6 n=76 v=100
102698 On ch=6 n=76 v=0
102720 On ch=6 n=78 v=100
102910 On ch=6 n=78 v=0
102966 On ch=6 n=76 v=100
103156 On ch=6 n=76 v=0
103433 On ch=6 n=76 v=100
103528 On ch=6 n=76 v=0
103563 On ch=6 n=76 v=100
103658 On ch=6 n=76 v=0
103680 On ch=6 n=78 v=100
103870 On ch=6 n=78 v=0
103926 On ch=6 n=76 v=100
104116 On ch=6 n=76 v=0
106326 On ch=6 n=76 v=100
106516 On ch=6 n=76 v=0
106560 On ch=6 n=78 v=100
106750 On ch=6 n=78 v=0
106806 On ch=6 n=76 v=100
106996 On ch=6 n=76 v=0
107286 On ch=6 n=76 v=100
107476 On ch=6 n=76 v=0
107520 On ch=6 n=78 v=100
107710 On ch=6 n=78 v=0
107766 On ch=6 n=76 v=100
107956 On ch=6 n=76 v=0
108233 On ch=6 n=76 v=100
108328 On ch=6 n=76 v=0
108363 On ch=6 n=76 v=100
108458 On ch=6 n=76 v=0
108480 On ch=6 n=78 v=100
108670 On ch=6 n=78 v=0
108726 On ch=6 n=76 v=100
108916 On ch=6 n=76 v=0
109193 On ch=6 n=76 v=100
109288 On ch=6 n=76 v=0
109323 On ch=6 n=76 v=100
109418 On ch=6 n=76 v=0
109440 On ch=6 n=78 v=100
109630 On ch=6 n=78 v=0
109686 On ch=6 n=76 v=100
109876 On ch=6 n=76 v=0
112086 On ch=6 n=74 v=100
112276 On ch=6 n=74 v=0
112320 On ch=6 n=79 v=100
112510 On ch=6 n=79 v=0
112566 On ch=6 n=78 v=100
112756 On ch=6 n=78 v=0
112800 On ch=6 n=81 v=100
112990 On ch=6 n=81 v=0
113046 On ch=6 n=78 v=100
113236 On ch=6 n=78 v=0
113280 On ch=6 n=74 v=100
113470 On ch=6 n=74 v=0
113526 On ch=6 n=78 v=100
113716 On ch=6 n=78 v=0
113993 On ch=6 n=74 v=100
114088 On ch=6 n=74 v=0
114123 On ch=6 n=74 v=100
114218 On ch=6 n=74 v=0
114240 On ch=6 n=79 v=100
114430 On ch=6 n=79 v=0
114486 On ch=6 n=78 v=100
114676 On ch=6 n=78 v=0
114953 On ch=6 n=74 v=100
115048 On ch=6 n=74 v=0
115083 On ch=6 n=74 v=100
115178 On ch=6 n=74 v=0
115200 On ch=6 n=79 v=100
115390 On ch=6 n=79 v=0
115446 On ch=6 n=78 v=100
115636 On ch=6 n=78 v=0
117846 On ch=6 n=76 v=100
118036 On ch=6 n=76 v=0
118080 On ch=6 n=81 v=100
118270 On ch=6 n=81 v=0
118326 On ch=6 n=80 v=100
118516 On ch=6 n=80 v=0
118560 On ch=6 n=71 v=100
118750 On ch=6 n=71 v=0
118806 On ch=6 n=80 v=100
118996 On ch=6 n=80 v=0
119040 On ch=6 n=81 v=100
119230 On ch=6 n=81 v=0
119286 On ch=6 n=80 v=100
119476 On ch=6 n=80 v=0
119520 On ch=6 n=76 v=100
119710 On ch=6 n=76 v=0
119753 On ch=6 n=80 v=100
119848 On ch=6 n=80 v=0
119883 On ch=6 n=80 v=100
119978 On ch=6 n=80 v=0
120000 On ch=6 n=81 v=100
120190 On ch=6 n=81 v=0
120246 On ch=6 n=80 v=100
120436 On ch=6 n=80 v=0
120713 On ch=6 n=80 v=100
120808 On ch=6 n=80 v=0
120843 On ch=6 n=80 v=100
120938 On ch=6 n=80 v=0
120960 On ch=6 n=81 v=100
121150 On ch=6 n=81 v=0
121206 On ch=6 n=80 v=100
121396 On ch=6 n=80 v=0
123606 On ch=6 n=78 v=100
123796 On ch=6 n=78 v=0
123840 On ch=6 n=83 v=100
124030 On ch=6 n=83 v=0
124086 On ch=6 n=82 v=100
124276 On ch=6 n=82 v=0
124320 On ch=6 n=73 v=100
124510 On ch=6 n=73 v=0
124566 On ch=6 n=78 v=100
124756 On ch=6 n=78 v=0
124800 On ch=6 n=83 v=100
124990 On ch=6 n=83 v=0
125046 On ch=6 n=82 v=100
125236 On ch=6 n=82 v=0
125280 On ch=6 n=73 v=100
125470 On ch=6 n=73 v=0
125513 On ch=6 n=78 v=100
125608 On ch=6 n=78 v=0
125643 On ch=6 n=78 v=100
125738 On ch=6 n=78 v=0
125760 On ch=6 n=83 v=100
125950 On ch=6 n=83 v=0
126006 On ch=6 n=82 v=100
126196 On ch=6 n=82 v=0
126473 On ch=6 n=78 v=100
126568 On ch=6 n=78 v=0
126603 On ch=6 n=78 v=100
126698 On ch=6 n=78 v=0
126720 On ch=6 n=83 v=100
127100 On ch=6 n=83 v=0
127200 On ch=6 n=78 v=100
127580 On ch=6 n=78 v=0
129600 On ch=6 n=74 v=100
129980 On ch=6 n=74 v=0
130080 On ch=6 n=74 v=100
130460 On ch=6 n=74 v=0
130560 On ch=6 n=76 v=100
130750 On ch=6 n=76 v=0
130806 On ch=6 n=73 v=100
130996 On ch=6 n=73 v=0
131040 On ch=6 n=73 v=100
131230 On ch=6 n=73 v=0
131286 On ch=6 n=76 v=100
131476 On ch=6 n=76 v=0
131520 On ch=6 n=74 v=100
131710 On ch=6 n=74 v=0
131766 On ch=6 n=73 v=100
131956 On ch=6 n=73 v=0
132000 On ch=6 n=74 v=100
132190 On ch=6 n=74 v=0
132246 On ch=6 n=76 v=100
132436 On ch=6 n=76 v=0
132480 On ch=6 n=73 v=100
133240 On ch=6 n=73 v=0
133686 On ch=6 n=73 v=100
133876 On ch=6 n=73 v=0
133920 On ch=6 n=74 v=100
134110 On ch=6 n=74 v=0
134166 On ch=6 n=76 v=100
134356 On ch=6 n=76 v=0
134400 On ch=6 n=69 v=100
134780 On ch=6 n=69 v=0
135606 On ch=6 n=78 v=100
135796 On ch=6 n=78 v=0
135840 On ch=6 n=80 v=100
136030 On ch=6 n=80 v=0
136086 On ch=6 n=81 v=100
136276 On ch=6 n=81 v=0
136320 On ch=6 n=74 v=100
136510 On ch=6 n=74 v=0
136566 On ch=6 n=73 v=100
136756 On ch=6 n=73 v=0
136800 On ch=6 n=74 v=100
136990 On ch=6 n=74 v=0
137033 On ch=6 n=76 v=100
137128 On ch=6 n=76 v=0
137163 On ch=6 n=74 v=100
137258 On ch=6 n=74 v=0
137280 On ch=6 n=73 v=100
137470 On ch=6 n=73 v=0
137526 On ch=6 n=64 v=100
137716 On ch=6 n=64 v=0
137760 On ch=6 n=69 v=100
137950 On ch=6 n=69 v=0
138006 On ch=6 n=67 v=100
138196 On ch=6 n=67 v=0
138240 On ch=6 n=66 v=100
138810 On ch=6 n=66 v=0
138966 On ch=6 n=64 v=100
139156 On ch=6 n=64 v=0
139200 On ch=6 n=62 v=100
139770 On ch=6 n=62 v=0
139926 On ch=6 n=74 v=100
140116 On ch=6 n=74 v=0
140160 On ch=6 n=74 v=100
140350 On ch=6 n=74 v=0
140406 On ch=6 n=73 v=100
140596 On ch=6 n=73 v=0
140640 On ch=6 n=74 v=100
140830 On ch=6 n=74 v=0
140886 On ch=6 n=74 v=100
141076 On ch=6 n=74 v=0
141120 On ch=6 n=74 v=100
141500 On ch=6 n=74 v=0
141600 On ch=6 n=73 v=100
141980 On ch=6 n=73 v=0
142080 On ch=6 n=74 v=100
142840 On ch=6 n=74 v=0
143040 On ch=6 n=62 v=100
143420 On ch=6 n=62 v=0
143520 On ch=6 n=62 v=100
143900 On ch=6 n=62 v=0
144000 On ch=6 n=62 v=100
144380 On ch=6 n=62 v=0
144726 On ch=6 n=74 v=100
144916 On ch=6 n=74 v=0
144960 On ch=6 n=79 v=100
145150 On ch=6 n=79 v=0
145206 On ch=6 n=78 v=100
145396 On ch=6 n=78 v=0
145686 On ch=6 n=74 v=100
145876 On ch=6 n=74 v=0
145920 On ch=6 n=79 v=100
146110 On ch=6 n=79 v=0
146166 On ch=6 n=78 v=100
146356 On ch=6 n=78 v=0
146646 On ch=6 n=62 v=100
146836 On ch=6 n=62 v=0
146880 On ch=6 n=62 v=100
147260 On ch=6 n=62 v=0
147360 On ch=6 n=62 v=100
147740 On ch=6 n=62 v=0
147840 On ch=6 n=62 v=100
148220 On ch=6 n=62 v=0
148553 On ch=6 n=74 v=100
148648 On ch=6 n=74 v=0
148683 On ch=6 n=74 v=100
148778 On ch=6 n=74 v=0
148800 On ch=6 n=79 v=100
148990 On ch=6 n=79 v=0
149046 On ch=6 n=78 v=100
149236 On ch=6 n=78 v=0
149513 On ch=6 n=74 v=100
149608 On ch=6 n=74 v=0
149643 On ch=6 n=74 v=100
149738 On ch=6 n=74 v=0
149760 On ch=6 n=79 v=100
149950 On ch=6 n=79 v=0
150006 On ch=6 n=78 v=100
150196 On ch=6 n=78 v=0
150486 On ch=6 n=81 v=100
150676 On ch=6 n=81 v=0
150720 On ch=6 n=78 v=100
150815 On ch=6 n=78 v=0
150836 On ch=6 n=76 v=100
150931 On ch=6 n=76 v=0
150953 On ch=6 n=78 v=100
151048 On ch=6 n=78 v=0
151083 On ch=6 n=79 v=100
151178 On ch=6 n=79 v=0
151200 On ch=6 n=81 v=100
151295 On ch=6 n=81 v=0
151316 On ch=6 n=79 v=100
151411 On ch=6 n=79 v=0
151433 On ch=6 n=78 v=100
151528 On ch=6 n=78 v=0
151563 On ch=6 n=76 v=100
151658 On ch=6 n=76 v=0
151680 On ch=6 n=74 v=100
151775 On ch=6 n=74 v=0
151796 On ch=6 n=73 v=100
151891 On ch=6 n=73 v=0
151913 On ch=6 n=74 v=100
152008 On ch=6 n=74 v=0
152043 On ch=6 n=76 v=100
152138 On ch=6 n=76 v=0
152160 On ch=6 n=74 v=100
152255 On ch=6 n=74 v=0
152276 On ch=6 n=73 v=100
152371 On ch=6 n=73 v=0
152393 On ch=6 n=71 v=100
152488 On ch=6 n=71 v=0
152523 On ch=6 n=69 v=100
152618 On ch=6 n=69 v=0
152640 On ch=6 n=67 v=100
152735 On ch=6 n=67 v=0
152756 On ch=6 n=69 v=100
152851 On ch=6 n=69 v=0
152873 On ch=6 n=71 v=100
152968 On ch=6 n=71 v=0
153003 On ch=6 n=67 v=100
153098 On ch=6 n=67 v=0
153120 On ch=6 n=69 v=100
153310 On ch=6 n=69 v=0
153366 On ch=6 n=81 v=100
153556 On ch=6 n=81 v=0
153600 On ch=6 n=85 v=100
153980 On ch=6 n=85 v=0
154080 On ch=6 n=86 v=100
154270 On ch=6 n=86 v=0
154326 On ch=6 n=86 v=100
154516 On ch=6 n=86 v=0
154560 On ch=6 n=86 v=100
154940 On ch=6 n=86 v=0
155040 On ch=6 n=86 v=100
155420 On ch=6 n=86 v=0
155520 On ch=6 n=86 v=100
155710 On ch=6 n=86 v=0
155753 On ch=6 n=74 v=100
155848 On ch=6 n=74 v=0
155883 On ch=6 n=76 v=100
155978 On ch=6 n=76 v=0
156000 On ch=6 n=78 v=100
156095 On ch=6 n=78 v=0
156116 On ch=6 n=76 v=100
156211 On ch=6 n=76 v=0
156233 On ch=6 n=74 v=100
156328 On ch=6 n=74 v=0
156363 On ch=6 n=73 v=100
156458 On ch=6 n=73 v=0
156480 On ch=6 n=74 v=100
156670 On ch=6 n=74 v=0
156713 On ch=6 n=69 v=100
156808 On ch=6 n=69 v=0
156843 On ch=6 n=69 v=100
156938 On ch=6 n=69 v=0
156960 On ch=6 n=74 v=100
157150 On ch=6 n=74 v=0
157193 On ch=6 n=74 v=100
157288 On ch=6 n=74 v=0
157323 On ch=6 n=76 v=100
157418 On ch=6 n=76 v=0
157440 On ch=6 n=78 v=100
157630 On ch=6 n=78 v=0
157673 On ch=6 n=74 v=100
157768 On ch=6 n=74 v=0
157803 On ch=6 n=76 v=100
157898 On ch=6 n=76 v=0
157920 On ch=6 n=78 v=100
158110 On ch=6 n=78 v=0
158153 On ch=6 n=79 v=100
158248 On ch=6 n=79 v=0
158283 On ch=6 n=76 v=100
158378 On ch=6 n=76 v=0
158400 On ch=6 n=78 v=100
158590 On ch=6 n=78 v=0
158633 On ch=6 n=78 v=100
158728 On ch=6 n=78 v=0
158763 On ch=6 n=79 v=100
158858 On ch=6 n=79 v=0
158880 On ch=6 n=81 v=100
159070 On ch=6 n=81 v=0
159113 On ch=6 n=74 v=100
159208 On ch=6 n=74 v=0
159243 On ch=6 n=76 v=100
159338 On ch=6 n=76 v=0
159360 On ch=6 n=78 v=100
159550 On ch=6 n=78 v=0
159593 On ch=6 n=74 v=100
159688 On ch=6 n=74 v=0
159723 On ch=6 n=76 v=100
159818 On ch=6 n=76 v=0
159840 On ch=6 n=78 v=100
160030 On ch=6 n=78 v=0
160073 On ch=6 n=79 v=100
160168 On ch=6 n=79 v=0
160203 On ch=6 n=76 v=100
160298 On ch=6 n=76 v=0
160320 On ch=6 n=78 v=100
160510 On ch=6 n=78 v=0
160553 On ch=6 n=78 v=100
160648 On ch=6 n=78 v=0
160683 On ch=6 n=79 v=100
160778 On ch=6 n=79 v=0
160800 On ch=6 n=81 v=100
160990 On ch=6 n=81 v=0
161033 On ch=6 n=74 v=100
161128 On ch=6 n=74 v=0
161163 On ch=6 n=76 v=100
161258 On ch=6 n=76 v=0
161280 On ch=6 n=78 v=100
161470 On ch=6 n=78 v=0
161513 On ch=6 n=74 v=100
161608 On ch=6 n=74 v=0
161643 On ch=6 n=76 v=100
161738 On ch=6 n=76 v=0
161760 On ch=6 n=78 v=100
161950 On ch=6 n=78 v=0
161993 On ch=6 n=79 v=100
162088 On ch=6 n=79 v=0
162123 On ch=6 n=76 v=100
162218 On ch=6 n=76 v=0
162240 On ch=6 n=78 v=100
162430 On ch=6 n=78 v=0
162473 On ch=6 n=78 v=100
162568 On ch=6 n=78 v=0
162603 On ch=6 n=79 v=100
162698 On ch=6 n=79 v=0
162720 On ch=6 n=81 v=100
162910 On ch=6 n=81 v=0
162953 On ch=6 n=74 v=100
163048 On ch=6 n=74 v=0
163083 On ch=6 n=76 v=100
163178 On ch=6 n=76 v=0
163200 On ch=6 n=78 v=100
163390 On ch=6 n=78 v=0
163433 On ch=6 n=74 v=100
163528 On ch=6 n=74 v=0
163563 On ch=6 n=76 v=100
163658 On ch=6 n=76 v=0
163680 On ch=6 n=78 v=100
163870 On ch=6 n=78 v=0
163913 On ch=6 n=79 v=100
164008 On ch=6 n=79 v=0
164043 On ch=6 n=76 v=100
164138 On ch=6 n=76 v=0
164160 On ch=6 n=78 v=100
164350 On ch=6 n=78 v=0
164393 On ch=6 n=78 v=100
164488 On ch=6 n=78 v=0
164523 On ch=6 n=79 v=100
164618 On ch=6 n=79 v=0
164640 On ch=6 n=81 v=100
164735 On ch=6 n=81 v=0
164756 On ch=6 n=79 v=100
164851 On ch=6 n=79 v=0
164873 On ch=6 n=78 v=100
164968 On ch=6 n=78 v=0
165003 On ch=6 n=76 v=100
165098 On ch=6 n=76 v=0
165120 On ch=6 n=74 v=100
165215 On ch=6 n=74 v=0
165236 On ch=6 n=73 v=100
165331 On ch=6 n=73 v=0
165353 On ch=6 n=74 v=100
165448 On ch=6 n=74 v=0
165483 On ch=6 n=76 v=100
165578 On ch=6 n=76 v=0
165600 On ch=6 n=74 v=100
165695 On ch=6 n=74 v=0
165716 On ch=6 n=73 v=100
165811 On ch=6 n=73 v=0
165833 On ch=6 n=71 v=100
165928 On ch=6 n=71 v=0
165963 On ch=6 n=69 v=100
166058 On ch=6 n=69 v=0
166080 On ch=6 n=67 v=100
166175 On ch=6 n=67 v=0
166196 On ch=6 n=69 v=100
166291 On ch=6 n=69 v=0
166313 On ch=6 n=71 v=100
166408 On ch=6 n=71 v=0
166443 On ch=6 n=67 v=100
166538 On ch=6 n=67 v=0
166560 On ch=6 n=69 v=100
166750 On ch=6 n=69 v=0
166806 On ch=6 n=81 v=100
166996 On ch=6 n=81 v=0
167040 On ch=6 n=73 v=100
167420 On ch=6 n=73 v=0
167520 On ch=6 n=74 v=100
167900 On ch=6 n=74 v=0
168000 On ch=6 n=74 v=100
168380 On ch=6 n=74 v=0
168480 On ch=6 n=73 v=100
168860 On ch=6 n=73 v=0
168960 On ch=6 n=74 v=100
169340 On ch=6 n=74 v=0
169686 On ch=6 n=74 v=100
169876 On ch=6 n=74 v=0
169920 On ch=6 n=79 v=100
170110 On ch=6 n=79 v=0
170166 On ch=6 n=78 v=100
170356 On ch=6 n=78 v=0
170646 On ch=6 n=74 v=100
170836 On ch=6 n=74 v=0
170880 On ch=6 n=79 v=100
171070 On ch=6 n=79 v=0
171126 On ch=6 n=78 v=100
171316 On ch=6 n=78 v=0
171606 On ch=6 n=74 v=100
171796 On ch=6 n=74 v=0
171840 On ch=6 n=79 v=100
172030 On ch=6 n=79 v=0
172086 On ch=6 n=78 v=100
172276 On ch=6 n=78 v=0
172566 On ch=6 n=74 v=100
172756 On ch=6 n=74 v=0
172800 On ch=6 n=79 v=100
172990 On ch=6 n=79 v=0
173033 On ch=6 n=78 v=100
173128 On ch=6 n=78 v=0
173163 On ch=6 n=78 v=100
173258 On ch=6 n=78 v=0
173280 On ch=6 n=78 v=100
173470 On ch=6 n=78 v=0
173513 On ch=6 n=74 v=100
173608 On ch=6 n=74 v=0
173643 On ch=6 n=74 v=100
173738 On ch=6 n=74 v=0
173760 On ch=6 n=79 v=100
173950 On ch=6 n=79 v=0
173993 On ch=6 n=78 v=100
174088 On ch=6 n=78 v=0
174123 On ch=6 n=78 v=100
174218 On ch=6 n=78 v=0
174240 On ch=6 n=78 v=100
174430 On ch=6 n=78 v=0
174473 On ch=6 n=74 v=100
174568 On ch=6 n=74 v=0
174603 On ch=6 n=74 v=100
174698 On ch=6 n=74 v=0
174720 On ch=6 n=79 v=100
174910 On ch=6 n=79 v=0
174953 On ch=6 n=78 v=100
175048 On ch=6 n=78 v=0
175083 On ch=6 n=78 v=100
175178 On ch=6 n=78 v=0
175200 On ch=6 n=78 v=100
175390 On ch=6 n=78 v=0
175433 On ch=6 n=74 v=100
175528 On ch=6 n=74 v=0
175563 On ch=6 n=74 v=100
175658 On ch=6 n=74 v=0
175680 On ch=6 n=79 v=100
175870 On ch=6 n=79 v=0
175913 On ch=6 n=78 v=100
176008 On ch=6 n=78 v=0
176043 On ch=6 n=78 v=100
176138 On ch=6 n=78 v=0
176160 On ch=6 n=78 v=100
176350 On ch=6 n=78 v=0
176393 On ch=6 n=74 v=100
176488 On ch=6 n=74 v=0
176523 On ch=6 n=74 v=100
176618 On ch=6 n=74 v=0
176640 On ch=6 n=79 v=100
176830 On ch=6 n=79 v=0
176886 On ch=6 n=78 v=100
177076 On ch=6 n=78 v=0
178080 On ch=6 n=78 v=100
178460 On ch=6 n=78 v=0
178560 On ch=6 n=79 v=100
179700 On ch=6 n=79 v=0
180000 On ch=6 n=79 v=100
180380 On ch=6 n=79 v=0
180480 On ch=6 n=78 v=100
182001 On ch=6 n=78 v=0
182001 Meta TrkEnd
TrkEnd
MTrk
0 Meta 0x21 00
0 Meta TrkName "Viola"
0 PrCh ch=7 p=48
0 Par ch=7 c=7 v=127
0 Par ch=7 c=10 v=70
213 Par ch=7 c=91 v=80
1920 On ch=7 n=66 v=100
2110 On ch=7 n=66 v=0
2166 On ch=7 n=67 v=100
2356 On ch=7 n=67 v=0
2400 On ch=7 n=69 v=100
2590 On ch=7 n=69 v=0
2646 On ch=7 n=62 v=100
2836 On ch=7 n=62 v=0
2880 On ch=7 n=74 v=100
3070 On ch=7 n=74 v=0
3126 On ch=7 n=62 v=100
3316 On ch=7 n=62 v=0
3840 On ch=7 n=69 v=100
4410 On ch=7 n=69 v=0
4566 On ch=7 n=69 v=100
4756 On ch=7 n=69 v=0
4800 On ch=7 n=67 v=100
4990 On ch=7 n=67 v=0
5046 On ch=7 n=69 v=100
5236 On ch=7 n=69 v=0
5526 On ch=7 n=62 v=100
5716 On ch=7 n=62 v=0
5760 On ch=7 n=67 v=100
5950 On ch=7 n=67 v=0
6006 On ch=7 n=69 v=100
6196 On ch=7 n=69 v=0
6240 On ch=7 n=69 v=100
6430 On ch=7 n=69 v=0
6486 On ch=7 n=64 v=100
6676 On ch=7 n=64 v=0
6720 On ch=7 n=66 v=100
7100 On ch=7 n=66 v=0
8640 On ch=7 n=62 v=100
9210 On ch=7 n=62 v=0
9366 On ch=7 n=62 v=100
9556 On ch=7 n=62 v=0
9600 On ch=7 n=57 v=100
9790 On ch=7 n=57 v=0
9846 On ch=7 n=54 v=100
10036 On ch=7 n=54 v=0
10560 On ch=7 n=62 v=100
11130 On ch=7 n=62 v=0
11286 On ch=7 n=62 v=100
11476 On ch=7 n=62 v=0
11520 On ch=7 n=62 v=100
11710 On ch=7 n=62 v=0
11753 On ch=7 n=62 v=100
11848 On ch=7 n=62 v=0
11883 On ch=7 n=62 v=100
11978 On ch=7 n=62 v=0
12000 On ch=7 n=62 v=100
12190 On ch=7 n=62 v=0
12246 On ch=7 n=62 v=100
12436 On ch=7 n=62 v=0
12713 On ch=7 n=62 v=100
12808 On ch=7 n=62 v=0
12843 On ch=7 n=62 v=100
12938 On ch=7 n=62 v=0
12960 On ch=7 n=62 v=100
13150 On ch=7 n=62 v=0
13206 On ch=7 n=62 v=100
13396 On ch=7 n=62 v=0
14166 On ch=7 n=69 v=100
14356 On ch=7 n=69 v=0
14400 On ch=7 n=69 v=100
14590 On ch=7 n=69 v=0
14646 On ch=7 n=69 v=100
14836 On ch=7 n=69 v=0
14880 On ch=7 n=64 v=100
15070 On ch=7 n=64 v=0
15126 On ch=7 n=69 v=100
15316 On ch=7 n=69 v=0
15360 On ch=7 n=69 v=100
15740 On ch=7 n=69 v=0
16320 On ch=7 n=69 v=100
16890 On ch=7 n=69 v=0
17046 On ch=7 n=69 v=100
17236 On ch=7 n=69 v=0
17280 On ch=7 n=64 v=100
17660 On ch=7 n=64 v=0
18473 On ch=7 n=69 v=100
18568 On ch=7 n=69 v=0
18603 On ch=7 n=69 v=100
18698 On ch=7 n=69 v=0
18720 On ch=7 n=69 v=100
18910 On ch=7 n=69 v=0
18966 On ch=7 n=69 v=100
19156 On ch=7 n=69 v=0
19433 On ch=7 n=69 v=100
19528 On ch=7 n=69 v=0
19563 On ch=7 n=69 v=100
19658 On ch=7 n=69 v=0
19680 On ch=7 n=69 v=100
19870 On ch=7 n=69 v=0
19926 On ch=7 n=69 v=100
20116 On ch=7 n=69 v=0
20393 On ch=7 n=69 v=100
20488 On ch=7 n=69 v=0
20523 On ch=7 n=69 v=100
20618 On ch=7 n=69 v=0
20640 On ch=7 n=69 v=100
20830 On ch=7 n=69 v=0
20886 On ch=7 n=69 v=100
21076 On ch=7 n=69 v=0
21120 On ch=7 n=74 v=100
21310 On ch=7 n=74 v=0
21366 On ch=7 n=69 v=100
21556 On ch=7 n=69 v=0
21600 On ch=7 n=71 v=100
21980 On ch=7 n=71 v=0
22080 On ch=7 n=64 v=100
22270 On ch=7 n=64 v=0
22313 On ch=7 n=69 v=100
22408 On ch=7 n=69 v=0
22443 On ch=7 n=69 v=100
22538 On ch=7 n=69 v=0
22560 On ch=7 n=69 v=100
22750 On ch=7 n=69 v=0
22806 On ch=7 n=69 v=100
22996 On ch=7 n=69 v=0
23040 On ch=7 n=69 v=100
23800 On ch=7 n=69 v=0
24000 On ch=7 n=71 v=100
24380 On ch=7 n=71 v=0
24480 On ch=7 n=73 v=100
24860 On ch=7 n=73 v=0
24960 On ch=7 n=74 v=100
25150 On ch=7 n=74 v=0
25206 On ch=7 n=62 v=100
25396 On ch=7 n=62 v=0
25440 On ch=7 n=74 v=100
26200 On ch=7 n=74 v=0
26400 On ch=7 n=73 v=100
26780 On ch=7 n=73 v=0
26880 On ch=7 n=71 v=100
27640 On ch=7 n=71 v=0
27840 On ch=7 n=69 v=100
28220 On ch=7 n=69 v=0
28553 On ch=7 n=69 v=100
28648 On ch=7 n=69 v=0
28683 On ch=7 n=69 v=100
28778 On ch=7 n=69 v=0
28800 On ch=7 n=69 v=100
28990 On ch=7 n=69 v=0
29046 On ch=7 n=69 v=100
29236 On ch=7 n=69 v=0
29513 On ch=7 n=69 v=100
29608 On ch=7 n=69 v=0
29643 On ch=7 n=69 v=100
29738 On ch=7 n=69 v=0
29760 On ch=7 n=69 v=100
29950 On ch=7 n=69 v=0
30006 On ch=7 n=69 v=100
30196 On ch=7 n=69 v=0
30473 On ch=7 n=69 v=100
30568 On ch=7 n=69 v=0
30603 On ch=7 n=69 v=100
30698 On ch=7 n=69 v=0
30720 On ch=7 n=69 v=100
30910 On ch=7 n=69 v=0
30953 On ch=7 n=69 v=100
31048 On ch=7 n=69 v=0
31083 On ch=7 n=69 v=100
31178 On ch=7 n=69 v=0
31200 On ch=7 n=69 v=100
31390 On ch=7 n=69 v=0
31433 On ch=7 n=73 v=100
31528 On ch=7 n=73 v=0
31563 On ch=7 n=73 v=100
31658 On ch=7 n=73 v=0
31680 On ch=7 n=69 v=100
31870 On ch=7 n=69 v=0
31926 On ch=7 n=69 v=100
32116 On ch=7 n=69 v=0
32640 On ch=7 n=62 v=100
33400 On ch=7 n=62 v=0
33600 On ch=7 n=64 v=100
33980 On ch=7 n=64 v=0
34080 On ch=7 n=66 v=100
34460 On ch=7 n=66 v=0
34560 On ch=7 n=67 v=100
34750 On ch=7 n=67 v=0
34806 On ch=7 n=55 v=100
34996 On ch=7 n=55 v=0
35040 On ch=7 n=67 v=100
35800 On ch=7 n=67 v=0
36000 On ch=7 n=66 v=100
36380 On ch=7 n=66 v=0
36480 On ch=7 n=64 v=100
37240 On ch=7 n=64 v=0
37440 On ch=7 n=62 v=100
37820 On ch=7 n=62 v=0
38153 On ch=7 n=62 v=100
38248 On ch=7 n=62 v=0
38283 On ch=7 n=62 v=100
38378 On ch=7 n=62 v=0
38400 On ch=7 n=74 v=100
38590 On ch=7 n=74 v=0
38646 On ch=7 n=74 v=100
38836 On ch=7 n=74 v=0
39113 On ch=7 n=62 v=100
39208 On ch=7 n=62 v=0
39243 On ch=7 n=66 v=100
39338 On ch=7 n=66 v=0
39360 On ch=7 n=74 v=100
39550 On ch=7 n=74 v=0
39606 On ch=7 n=74 v=100
39796 On ch=7 n=74 v=0
40073 On ch=7 n=62 v=100
40168 On ch=7 n=62 v=0
40203 On ch=7 n=66 v=100
40298 On ch=7 n=66 v=0
40320 On ch=7 n=74 v=100
40510 On ch=7 n=74 v=0
40553 On ch=7 n=74 v=100
40648 On ch=7 n=74 v=0
40683 On ch=7 n=69 v=100
40778 On ch=7 n=69 v=0
40800 On ch=7 n=62 v=100
40990 On ch=7 n=62 v=0
41033 On ch=7 n=62 v=100
41128 On ch=7 n=62 v=0
41163 On ch=7 n=62 v=100
41258 On ch=7 n=62 v=0
41280 On ch=7 n=74 v=100
41470 On ch=7 n=74 v=0
41526 On ch=7 n=74 v=100
41716 On ch=7 n=74 v=0
42953 On ch=7 n=62 v=100
43048 On ch=7 n=62 v=0
43083 On ch=7 n=62 v=100
43178 On ch=7 n=62 v=0
43200 On ch=7 n=61 v=100
43390 On ch=7 n=61 v=0
43446 On ch=7 n=57 v=100
43636 On ch=7 n=57 v=0
43913 On ch=7 n=62 v=100
44008 On ch=7 n=62 v=0
44043 On ch=7 n=62 v=100
44138 On ch=7 n=62 v=0
44160 On ch=7 n=59 v=100
44350 On ch=7 n=59 v=0
44406 On ch=7 n=59 v=100
44596 On ch=7 n=59 v=0
44873 On ch=7 n=64 v=100
44968 On ch=7 n=64 v=0
45003 On ch=7 n=64 v=100
45098 On ch=7 n=64 v=0
45120 On ch=7 n=61 v=100
45310 On ch=7 n=61 v=0
45366 On ch=7 n=57 v=100
45556 On ch=7 n=57 v=0
45600 On ch=7 n=62 v=100
46360 On ch=7 n=62 v=0
46560 On ch=7 n=61 v=100
46940 On ch=7 n=61 v=0
47040 On ch=7 n=62 v=100
47230 On ch=7 n=62 v=0
47273 On ch=7 n=66 v=100
47368 On ch=7 n=66 v=0
47403 On ch=7 n=66 v=100
47498 On ch=7 n=66 v=0
47520 On ch=7 n=69 v=100
47710 On ch=7 n=69 v=0
47766 On ch=7 n=66 v=100
47956 On ch=7 n=66 v=0
48233 On ch=7 n=73 v=100
48328 On ch=7 n=73 v=0
48363 On ch=7 n=73 v=100
48458 On ch=7 n=73 v=0
48480 On ch=7 n=69 v=100
48670 On ch=7 n=69 v=0
48713 On ch=7 n=73 v=100
48808 On ch=7 n=73 v=0
48843 On ch=7 n=69 v=100
48938 On ch=7 n=69 v=0
48960 On ch=7 n=66 v=100
49150 On ch=7 n=66 v=0
49193 On ch=7 n=62 v=100
49288 On ch=7 n=62 v=0
49323 On ch=7 n=62 v=100
49418 On ch=7 n=62 v=0
49440 On ch=7 n=73 v=100
49630 On ch=7 n=73 v=0
49673 On ch=7 n=73 v=100
49768 On ch=7 n=73 v=0
49803 On ch=7 n=73 v=100
49898 On ch=7 n=73 v=0
49920 On ch=7 n=66 v=100
50110 On ch=7 n=66 v=0
50153 On ch=7 n=66 v=100
50248 On ch=7 n=66 v=0
50283 On ch=7 n=64 v=100
50378 On ch=7 n=64 v=0
50400 On ch=7 n=62 v=100
50590 On ch=7 n=62 v=0
50646 On ch=7 n=66 v=100
50836 On ch=7 n=66 v=0
50880 On ch=7 n=71 v=100
51070 On ch=7 n=71 v=0
51126 On ch=7 n=71 v=100
51316 On ch=7 n=71 v=0
51360 On ch=7 n=73 v=100
51550 On ch=7 n=73 v=0
51606 On ch=7 n=73 v=100
51796 On ch=7 n=73 v=0
51840 On ch=7 n=66 v=100
52030 On ch=7 n=66 v=0
52086 On ch=7 n=66 v=100
52276 On ch=7 n=66 v=0
52320 On ch=7 n=62 v=100
52510 On ch=7 n=62 v=0
52566 On ch=7 n=62 v=100
52756 On ch=7 n=62 v=0
52800 On ch=7 n=64 v=100
52990 On ch=7 n=64 v=0
53033 On ch=7 n=69 v=100
53128 On ch=7 n=69 v=0
53163 On ch=7 n=69 v=100
53258 On ch=7 n=69 v=0
53280 On ch=7 n=73 v=100
53470 On ch=7 n=73 v=0
53526 On ch=7 n=69 v=100
53716 On ch=7 n=69 v=0
53993 On ch=7 n=69 v=100
54088 On ch=7 n=69 v=0
54123 On ch=7 n=69 v=100
54218 On ch=7 n=69 v=0
54240 On ch=7 n=66 v=100
54430 On ch=7 n=66 v=0
54486 On ch=7 n=62 v=100
54676 On ch=7 n=62 v=0
54953 On ch=7 n=64 v=100
55048 On ch=7 n=64 v=0
55083 On ch=7 n=64 v=100
55178 On ch=7 n=64 v=0
55200 On ch=7 n=61 v=100
55390 On ch=7 n=61 v=0
55446 On ch=7 n=57 v=100
55636 On ch=7 n=57 v=0
55913 On ch=7 n=62 v=100
56008 On ch=7 n=62 v=0
56043 On ch=7 n=62 v=100
56138 On ch=7 n=62 v=0
56160 On ch=7 n=74 v=100
56350 On ch=7 n=74 v=0
56393 On ch=7 n=69 v=100
56488 On ch=7 n=69 v=0
56523 On ch=7 n=69 v=100
56618 On ch=7 n=69 v=0
56640 On ch=7 n=64 v=100
56830 On ch=7 n=64 v=0
56873 On ch=7 n=69 v=100
56968 On ch=7 n=69 v=0
57003 On ch=7 n=69 v=100
57098 On ch=7 n=69 v=0
57120 On ch=7 n=66 v=100
57310 On ch=7 n=66 v=0
57353 On ch=7 n=66 v=100
57448 On ch=7 n=66 v=0
57483 On ch=7 n=66 v=100
57578 On ch=7 n=66 v=0
57600 On ch=7 n=62 v=100
57790 On ch=7 n=62 v=0
57833 On ch=7 n=62 v=100
57928 On ch=7 n=62 v=0
57963 On ch=7 n=62 v=100
58058 On ch=7 n=62 v=0
58080 On ch=7 n=67 v=100
58270 On ch=7 n=67 v=0
58313 On ch=7 n=67 v=100
58408 On ch=7 n=67 v=0
58443 On ch=7 n=67 v=100
58538 On ch=7 n=67 v=0
58560 On ch=7 n=61 v=100
58750 On ch=7 n=61 v=0
58793 On ch=7 n=69 v=100
58888 On ch=7 n=69 v=0
58923 On ch=7 n=69 v=100
59018 On ch=7 n=69 v=0
59040 On ch=7 n=74 v=100
59230 On ch=7 n=74 v=0
59273 On ch=7 n=66 v=100
59368 On ch=7 n=66 v=0
59403 On ch=7 n=62 v=100
59498 On ch=7 n=62 v=0
59520 On ch=7 n=64 v=100
59710 On ch=7 n=64 v=0
59766 On ch=7 n=71 v=100
59956 On ch=7 n=71 v=0
60000 On ch=7 n=61 v=100
60190 On ch=7 n=61 v=0
60246 On ch=7 n=69 v=100
60436 On ch=7 n=69 v=0
60480 On ch=7 n=69 v=100
60670 On ch=7 n=69 v=0
60713 On ch=7 n=66 v=100
60808 On ch=7 n=66 v=0
60843 On ch=7 n=66 v=100
60938 On ch=7 n=66 v=0
60960 On ch=7 n=62 v=100
61150 On ch=7 n=62 v=0
61193 On ch=7 n=69 v=100
61288 On ch=7 n=69 v=0
61323 On ch=7 n=69 v=100
61418 On ch=7 n=69 v=0
61440 On ch=7 n=62 v=100
61630 On ch=7 n=62 v=0
61673 On ch=7 n=62 v=100
61768 On ch=7 n=62 v=0
61803 On ch=7 n=62 v=100
61898 On ch=7 n=62 v=0
61920 On ch=7 n=62 v=100
62110 On ch=7 n=62 v=0
62166 On ch=7 n=64 v=100
62356 On ch=7 n=64 v=0
62400 On ch=7 n=66 v=100
62590 On ch=7 n=66 v=0
62633 On ch=7 n=66 v=100
62728 On ch=7 n=66 v=0
62763 On ch=7 n=66 v=100
62858 On ch=7 n=66 v=0
62880 On ch=7 n=69 v=100
63070 On ch=7 n=69 v=0
63126 On ch=7 n=66 v=100
63316 On ch=7 n=66 v=0
63360 On ch=7 n=67 v=100
63550 On ch=7 n=67 v=0
63593 On ch=7 n=67 v=100
63688 On ch=7 n=67 v=0
63723 On ch=7 n=67 v=100
63818 On ch=7 n=67 v=0
63840 On ch=7 n=62 v=100
64030 On ch=7 n=62 v=0
64086 On ch=7 n=62 v=100
64276 On ch=7 n=62 v=0
64320 On ch=7 n=62 v=100
64700 On ch=7 n=62 v=0
64800 On ch=7 n=62 v=100
65180 On ch=7 n=62 v=0
65280 On ch=7 n=57 v=100
65660 On ch=7 n=57 v=0
65760 On ch=7 n=62 v=100
66140 On ch=7 n=62 v=0
66240 On ch=7 n=57 v=100
66620 On ch=7 n=57 v=0
66720 On ch=7 n=61 v=100
67100 On ch=7 n=61 v=0
67200 On ch=7 n=57 v=100
68340 On ch=7 n=57 v=0
68640 On ch=7 n=62 v=100
69020 On ch=7 n=62 v=0
69120 On ch=7 n=57 v=100
69500 On ch=7 n=57 v=0
69600 On ch=7 n=50 v=100
69980 On ch=7 n=50 v=0
70080 On ch=7 n=57 v=100
70460 On ch=7 n=57 v=0
70560 On ch=7 n=55 v=100
70845 On ch=7 n=55 v=0
70923 On ch=7 n=54 v=100
71018 On ch=7 n=54 v=0
71040 On ch=7 n=54 v=100
72180 On ch=7 n=54 v=0
72480 On ch=7 n=74 v=100
72860 On ch=7 n=74 v=0
72960 On ch=7 n=69 v=100
73340 On ch=7 n=69 v=0
73440 On ch=7 n=62 v=100
73820 On ch=7 n=62 v=0
73920 On ch=7 n=69 v=100
74300 On ch=7 n=69 v=0
74400 On ch=7 n=64 v=100
74780 On ch=7 n=64 v=0
74880 On ch=7 n=66 v=100
75450 On ch=7 n=66 v=0
75606 On ch=7 n=67 v=100
75796 On ch=7 n=67 v=0
75840 On ch=7 n=69 v=100
76220 On ch=7 n=69 v=0
76320 On ch=7 n=71 v=100
76700 On ch=7 n=71 v=0
76800 On ch=7 n=64 v=100
77370 On ch=7 n=64 v=0
77526 On ch=7 n=66 v=100
77716 On ch=7 n=66 v=0
77760 On ch=7 n=67 v=100
78140 On ch=7 n=67 v=0
78240 On ch=7 n=67 v=100
78620 On ch=7 n=67 v=0
78720 On ch=7 n=69 v=100
79480 On ch=7 n=69 v=0
84000 On ch=7 n=62 v=100
84380 On ch=7 n=62 v=0
84480 On ch=7 n=69 v=100
84860 On ch=7 n=69 v=0
84960 On ch=7 n=61 v=100
85340 On ch=7 n=61 v=0
85440 On ch=7 n=66 v=100
85820 On ch=7 n=66 v=0
85920 On ch=7 n=57 v=100
86300 On ch=7 n=57 v=0
86400 On ch=7 n=62 v=100
86780 On ch=7 n=62 v=0
86880 On ch=7 n=61 v=100
87070 On ch=7 n=61 v=0
87126 On ch=7 n=59 v=100
87316 On ch=7 n=59 v=0
87360 On ch=7 n=61 v=100
87740 On ch=7 n=61 v=0
87840 On ch=7 n=59 v=100
88125 On ch=7 n=59 v=0
88203 On ch=7 n=57 v=100
88298 On ch=7 n=57 v=0
88320 On ch=7 n=57 v=100
88700 On ch=7 n=57 v=0
88800 On ch=7 n=69 v=100
89180 On ch=7 n=69 v=0
89280 On ch=7 n=74 v=100
89660 On ch=7 n=74 v=0
89760 On ch=7 n=66 v=100
90140 On ch=7 n=66 v=0
90240 On ch=7 n=71 v=100
90620 On ch=7 n=71 v=0
90720 On ch=7 n=62 v=100
91100 On ch=7 n=62 v=0
91200 On ch=7 n=67 v=100
91580 On ch=7 n=67 v=0
91680 On ch=7 n=66 v=100
91870 On ch=7 n=66 v=0
91926 On ch=7 n=64 v=100
92116 On ch=7 n=64 v=0
92160 On ch=7 n=66 v=100
92540 On ch=7 n=66 v=0
92640 On ch=7 n=64 v=100
92925 On ch=7 n=64 v=0
93003 On ch=7 n=62 v=100
93098 On ch=7 n=62 v=0
93120 On ch=7 n=62 v=100
93500 On ch=7 n=62 v=0
93846 On ch=7 n=66 v=100
94036 On ch=7 n=66 v=0
94080 On ch=7 n=64 v=100
94270 On ch=7 n=64 v=0
94326 On ch=7 n=61 v=100
94516 On ch=7 n=61 v=0
94806 On ch=7 n=69 v=100
94996 On ch=7 n=69 v=0
95040 On ch=7 n=69 v=100
95230 On ch=7 n=69 v=0
95286 On ch=7 n=62 v=100
95476 On ch=7 n=62 v=0
95766 On ch=7 n=69 v=100
95956 On ch=7 n=69 v=0
96000 On ch=7 n=66 v=100
96190 On ch=7 n=66 v=0
96246 On ch=7 n=64 v=100
96436 On ch=7 n=64 v=0
96480 On ch=7 n=64 v=100
96670 On ch=7 n=64 v=0
96726 On ch=7 n=66 v=100
96916 On ch=7 n=66 v=0
96960 On ch=7 n=64 v=100
97340 On ch=7 n=64 v=0
97440 On ch=7 n=64 v=100
97820 On ch=7 n=64 v=0
97920 On ch=7 n=64 v=100
98300 On ch=7 n=64 v=0
98400 On ch=7 n=61 v=100
98780 On ch=7 n=61 v=0
100566 On ch=7 n=69 v=100
100756 On ch=7 n=69 v=0
100800 On ch=7 n=69 v=100
100990 On ch=7 n=69 v=0
101046 On ch=7 n=69 v=100
101236 On ch=7 n=69 v=0
101526 On ch=7 n=69 v=100
101716 On ch=7 n=69 v=0
101760 On ch=7 n=69 v=100
101950 On ch=7 n=69 v=0
102006 On ch=7 n=69 v=100
102196 On ch=7 n=69 v=0
102473 On ch=7 n=69 v=100
102568 On ch=7 n=69 v=0
102603 On ch=7 n=69 v=100
102698 On ch=7 n=69 v=0
102720 On ch=7 n=69 v=100
102910 On ch=7 n=69 v=0
102966 On ch=7 n=69 v=100
103156 On ch=7 n=69 v=0
103433 On ch=7 n=69 v=100
103528 On ch=7 n=69 v=0
103563 On ch=7 n=69 v=100
103658 On ch=7 n=69 v=0
103680 On ch=7 n=69 v=100
103870 On ch=7 n=69 v=0
103926 On ch=7 n=69 v=100
104116 On ch=7 n=69 v=0
106326 On ch=7 n=69 v=100
106516 On ch=7 n=69 v=0
106560 On ch=7 n=69 v=100
106750 On ch=7 n=69 v=0
106806 On ch=7 n=69 v=100
106996 On ch=7 n=69 v=0
107286 On ch=7 n=69 v=100
107476 On ch=7 n=69 v=0
107520 On ch=7 n=69 v=100
107710 On ch=7 n=69 v=0
107766 On ch=7 n=69 v=100
107956 On ch=7 n=69 v=0
108233 On ch=7 n=69 v=100
108328 On ch=7 n=69 v=0
108363 On ch=7 n=69 v=100
108458 On ch=7 n=69 v=0
108480 On ch=7 n=69 v=100
108670 On ch=7 n=69 v=0
108726 On ch=7 n=69 v=100
108916 On ch=7 n=69 v=0
109193 On ch=7 n=69 v=100
109288 On ch=7 n=69 v=0
109323 On ch=7 n=69 v=100
109418 On ch=7 n=69 v=0
109440 On ch=7 n=69 v=100
109630 On ch=7 n=69 v=0
109686 On ch=7 n=69 v=100
109876 On ch=7 n=69 v=0
112086 On ch=7 n=62 v=100
112276 On ch=7 n=62 v=0
112320 On ch=7 n=62 v=100
112510 On ch=7 n=62 v=0
112566 On ch=7 n=62 v=100
112756 On ch=7 n=62 v=0
112800 On ch=7 n=66 v=100
112990 On ch=7 n=66 v=0
113046 On ch=7 n=62 v=100
113236 On ch=7 n=62 v=0
113280 On ch=7 n=62 v=100
113470 On ch=7 n=62 v=0
113526 On ch=7 n=62 v=100
113716 On ch=7 n=62 v=0
113993 On ch=7 n=62 v=100
114088 On ch=7 n=62 v=0
114123 On ch=7 n=62 v=100
114218 On ch=7 n=62 v=0
114240 On ch=7 n=62 v=100
114430 On ch=7 n=62 v=0
114486 On ch=7 n=62 v=100
114676 On ch=7 n=62 v=0
114953 On ch=7 n=62 v=100
115048 On ch=7 n=62 v=0
115083 On ch=7 n=62 v=100
115178 On ch=7 n=62 v=0
115200 On ch=7 n=62 v=100
115390 On ch=7 n=62 v=0
115446 On ch=7 n=62 v=100
115636 On ch=7 n=62 v=0
117846 On ch=7 n=64 v=100
118036 On ch=7 n=64 v=0
118080 On ch=7 n=64 v=100
118270 On ch=7 n=64 v=0
118326 On ch=7 n=64 v=100
118516 On ch=7 n=64 v=0
118560 On ch=7 n=68 v=100
118750 On ch=7 n=68 v=0
118806 On ch=7 n=64 v=100
118996 On ch=7 n=64 v=0
119040 On ch=7 n=64 v=100
119230 On ch=7 n=64 v=0
119286 On ch=7 n=64 v=100
119476 On ch=7 n=64 v=0
119520 On ch=7 n=68 v=100
119710 On ch=7 n=68 v=0
119753 On ch=7 n=64 v=100
119848 On ch=7 n=64 v=0
119883 On ch=7 n=64 v=100
119978 On ch=7 n=64 v=0
120000 On ch=7 n=64 v=100
120190 On ch=7 n=64 v=0
120246 On ch=7 n=64 v=100
120436 On ch=7 n=64 v=0
120713 On ch=7 n=64 v=100
120808 On ch=7 n=64 v=0
120843 On ch=7 n=64 v=100
120938 On ch=7 n=64 v=0
120960 On ch=7 n=64 v=100
121150 On ch=7 n=64 v=0
121206 On ch=7 n=64 v=100
121396 On ch=7 n=64 v=0
123606 On ch=7 n=66 v=100
123796 On ch=7 n=66 v=0
123840 On ch=7 n=66 v=100
124030 On ch=7 n=66 v=0
124086 On ch=7 n=66 v=100
124276 On ch=7 n=66 v=0
124320 On ch=7 n=70 v=100
124510 On ch=7 n=70 v=0
124566 On ch=7 n=66 v=100
124756 On ch=7 n=66 v=0
124800 On ch=7 n=66 v=100
124990 On ch=7 n=66 v=0
125046 On ch=7 n=66 v=100
125236 On ch=7 n=66 v=0
125280 On ch=7 n=70 v=100
125470 On ch=7 n=70 v=0
125513 On ch=7 n=66 v=100
125608 On ch=7 n=66 v=0
125643 On ch=7 n=66 v=100
125738 On ch=7 n=66 v=0
125760 On ch=7 n=66 v=100
125950 On ch=7 n=66 v=0
126006 On ch=7 n=66 v=100
126196 On ch=7 n=66 v=0
126473 On ch=7 n=66 v=100
126568 On ch=7 n=66 v=0
126603 On ch=7 n=66 v=100
126698 On ch=7 n=66 v=0
126720 On ch=7 n=66 v=100
127100 On ch=7 n=66 v=0
127200 On ch=7 n=66 v=100
127580 On ch=7 n=66 v=0
129600 On ch=7 n=67 v=100
129980 On ch=7 n=67 v=0
130080 On ch=7 n=67 v=100
130460 On ch=7 n=67 v=0
130560 On ch=7 n=64 v=100
131130 On ch=7 n=64 v=0
131286 On ch=7 n=69 v=100
131476 On ch=7 n=69 v=0
131520 On ch=7 n=69 v=100
131710 On ch=7 n=69 v=0
131766 On ch=7 n=69 v=100
131956 On ch=7 n=69 v=0
132000 On ch=7 n=69 v=100
132190 On ch=7 n=69 v=0
132246 On ch=7 n=69 v=100
132436 On ch=7 n=69 v=0
132480 On ch=7 n=69 v=100
133240 On ch=7 n=69 v=0
134646 On ch=7 n=69 v=100
134836 On ch=7 n=69 v=0
134880 On ch=7 n=71 v=100
135070 On ch=7 n=71 v=0
135126 On ch=7 n=73 v=100
135316 On ch=7 n=73 v=0
135360 On ch=7 n=66 v=100
135550 On ch=7 n=66 v=0
135606 On ch=7 n=69 v=100
135796 On ch=7 n=69 v=0
135840 On ch=7 n=64 v=100
136030 On ch=7 n=64 v=0
136086 On ch=7 n=69 v=100
136276 On ch=7 n=69 v=0
136320 On ch=7 n=69 v=100
136700 On ch=7 n=69 v=0
136800 On ch=7 n=68 v=100
137180 On ch=7 n=68 v=0
137280 On ch=7 n=69 v=100
137660 On ch=7 n=69 v=0
138486 On ch=7 n=57 v=100
138676 On ch=7 n=57 v=0
138720 On ch=7 n=62 v=100
138910 On ch=7 n=62 v=0
138966 On ch=7 n=61 v=100
139156 On ch=7 n=61 v=0
139200 On ch=7 n=59 v=100
139770 On ch=7 n=59 v=0
139926 On ch=7 n=69 v=100
140116 On ch=7 n=69 v=0
140160 On ch=7 n=67 v=100
140540 On ch=7 n=67 v=0
140640 On ch=7 n=69 v=100
140830 On ch=7 n=69 v=0
140886 On ch=7 n=71 v=100
141076 On ch=7 n=71 v=0
141120 On ch=7 n=69 v=100
141880 On ch=7 n=69 v=0
142080 On ch=7 n=69 v=100
142840 On ch=7 n=69 v=0
143040 On ch=7 n=62 v=100
143420 On ch=7 n=62 v=0
143520 On ch=7 n=62 v=100
143900 On ch=7 n=62 v=0
144000 On ch=7 n=62 v=100
144380 On ch=7 n=62 v=0
144726 On ch=7 n=62 v=100
144916 On ch=7 n=62 v=0
144960 On ch=7 n=74 v=100
145150 On ch=7 n=74 v=0
145206 On ch=7 n=74 v=100
145396 On ch=7 n=74 v=0
145686 On ch=7 n=62 v=100
145876 On ch=7 n=62 v=0
145920 On ch=7 n=74 v=100
146110 On ch=7 n=74 v=0
146166 On ch=7 n=74 v=100
146356 On ch=7 n=74 v=0
146646 On ch=7 n=62 v=100
146836 On ch=7 n=62 v=0
146880 On ch=7 n=62 v=100
147260 On ch=7 n=62 v=0
147360 On ch=7 n=62 v=100
147740 On ch=7 n=62 v=0
147840 On ch=7 n=62 v=100
148220 On ch=7 n=62 v=0
148553 On ch=7 n=62 v=100
148648 On ch=7 n=62 v=0
148683 On ch=7 n=62 v=100
148778 On ch=7 n=62 v=0
148800 On ch=7 n=62 v=100
148990 On ch=7 n=62 v=0
149046 On ch=7 n=62 v=100
149236 On ch=7 n=62 v=0
149513 On ch=7 n=62 v=100
149608 On ch=7 n=62 v=0
149643 On ch=7 n=62 v=100
149738 On ch=7 n=62 v=0
149760 On ch=7 n=62 v=100
149950 On ch=7 n=62 v=0
150006 On ch=7 n=62 v=100
150196 On ch=7 n=62 v=0
150486 On ch=7 n=66 v=100
150676 On ch=7 n=66 v=0
150720 On ch=7 n=69 v=100
151100 On ch=7 n=69 v=0
151200 On ch=7 n=62 v=100
151580 On ch=7 n=62 v=0
151680 On ch=7 n=66 v=100
152060 On ch=7 n=66 v=0
152160 On ch=7 n=66 v=100
152540 On ch=7 n=66 v=0
152640 On ch=7 n=62 v=100
153020 On ch=7 n=62 v=0
153120 On ch=7 n=62 v=100
153500 On ch=7 n=62 v=0
153600 On ch=7 n=64 v=100
153980 On ch=7 n=64 v=0
154080 On ch=7 n=69 v=100
154460 On ch=7 n=69 v=0
154560 On ch=7 n=69 v=100
154940 On ch=7 n=69 v=0
155040 On ch=7 n=69 v=100
155420 On ch=7 n=69 v=0
155520 On ch=7 n=69 v=100
155900 On ch=7 n=69 v=0
156480 On ch=7 n=66 v=100
156670 On ch=7 n=66 v=0
156713 On ch=7 n=66 v=100
156808 On ch=7 n=66 v=0
156843 On ch=7 n=66 v=100
156938 On ch=7 n=66 v=0
156960 On ch=7 n=69 v=100
157150 On ch=7 n=69 v=0
157193 On ch=7 n=69 v=100
157288 On ch=7 n=69 v=0
157323 On ch=7 n=69 v=100
157418 On ch=7 n=69 v=0
157440 On ch=7 n=69 v=100
157820 On ch=7 n=69 v=0
158166 On ch=7 n=69 v=100
158356 On ch=7 n=69 v=0
158400 On ch=7 n=69 v=100
158590 On ch=7 n=69 v=0
158633 On ch=7 n=69 v=100
158728 On ch=7 n=69 v=0
158763 On ch=7 n=69 v=100
158858 On ch=7 n=69 v=0
158880 On ch=7 n=69 v=100
159070 On ch=7 n=69 v=0
159113 On ch=7 n=69 v=100
159208 On ch=7 n=69 v=0
159243 On ch=7 n=69 v=100
159338 On ch=7 n=69 v=0
159360 On ch=7 n=74 v=100
159740 On ch=7 n=74 v=0
160320 On ch=7 n=69 v=100
160510 On ch=7 n=69 v=0
160553 On ch=7 n=69 v=100
160648 On ch=7 n=69 v=0
160683 On ch=7 n=69 v=100
160778 On ch=7 n=69 v=0
160800 On ch=7 n=69 v=100
160990 On ch=7 n=69 v=0
161033 On ch=7 n=69 v=100
161128 On ch=7 n=69 v=0
161163 On ch=7 n=69 v=100
161258 On ch=7 n=69 v=0
161280 On ch=7 n=74 v=100
161660 On ch=7 n=74 v=0
162006 On ch=7 n=69 v=100
162196 On ch=7 n=69 v=0
162240 On ch=7 n=69 v=100
162430 On ch=7 n=69 v=0
162473 On ch=7 n=69 v=100
162568 On ch=7 n=69 v=0
162603 On ch=7 n=69 v=100
162698 On ch=7 n=69 v=0
162720 On ch=7 n=69 v=100
162910 On ch=7 n=69 v=0
162953 On ch=7 n=69 v=100
163048 On ch=7 n=69 v=0
163083 On ch=7 n=69 v=100
163178 On ch=7 n=69 v=0
163200 On ch=7 n=69 v=100
163580 On ch=7 n=69 v=0
163926 On ch=7 n=69 v=100
164116 On ch=7 n=69 v=0
164160 On ch=7 n=69 v=100
164540 On ch=7 n=69 v=0
164640 On ch=7 n=62 v=100
165020 On ch=7 n=62 v=0
165120 On ch=7 n=66 v=100
165310 On ch=7 n=66 v=0
165366 On ch=7 n=62 v=100
165556 On ch=7 n=62 v=0
165600 On ch=7 n=69 v=100
165790 On ch=7 n=69 v=0
165846 On ch=7 n=66 v=100
166036 On ch=7 n=66 v=0
166080 On ch=7 n=62 v=100
166460 On ch=7 n=62 v=0
166560 On ch=7 n=69 v=100
166940 On ch=7 n=69 v=0
167040 On ch=7 n=64 v=100
167420 On ch=7 n=64 v=0
167520 On ch=7 n=69 v=100
167710 On ch=7 n=69 v=0
167766 On ch=7 n=69 v=100
167956 On ch=7 n=69 v=0
168000 On ch=7 n=69 v=100
168380 On ch=7 n=69 v=0
168480 On ch=7 n=64 v=100
168860 On ch=7 n=64 v=0
168960 On ch=7 n=66 v=100
169340 On ch=7 n=66 v=0
169686 On ch=7 n=69 v=100
169876 On ch=7 n=69 v=0
169920 On ch=7 n=74 v=100
170110 On ch=7 n=74 v=0
170166 On ch=7 n=62 v=100
170356 On ch=7 n=62 v=0
170646 On ch=7 n=69 v=100
170836 On ch=7 n=69 v=0
170880 On ch=7 n=74 v=100
171070 On ch=7 n=74 v=0
171126 On ch=7 n=62 v=100
171316 On ch=7 n=62 v=0
171606 On ch=7 n=69 v=100
171796 On ch=7 n=69 v=0
171840 On ch=7 n=74 v=100
172030 On ch=7 n=74 v=0
172086 On ch=7 n=62 v=100
172276 On ch=7 n=62 v=0
172566 On ch=7 n=69 v=100
172756 On ch=7 n=69 v=0
172800 On ch=7 n=74 v=100
172990 On ch=7 n=74 v=0
173033 On ch=7 n=62 v=100
173128 On ch=7 n=62 v=0
173163 On ch=7 n=62 v=100
173258 On ch=7 n=62 v=0
173280 On ch=7 n=69 v=100
173470 On ch=7 n=69 v=0
173513 On ch=7 n=66 v=100
173608 On ch=7 n=66 v=0
173643 On ch=7 n=66 v=100
173738 On ch=7 n=66 v=0
173760 On ch=7 n=62 v=100
173950 On ch=7 n=62 v=0
173993 On ch=7 n=62 v=100
174088 On ch=7 n=62 v=0
174123 On ch=7 n=62 v=100
174218 On ch=7 n=62 v=0
174240 On ch=7 n=69 v=100
174430 On ch=7 n=69 v=0
174473 On ch=7 n=66 v=100
174568 On ch=7 n=66 v=0
174603 On ch=7 n=66 v=100
174698 On ch=7 n=66 v=0
174720 On ch=7 n=62 v=100
174910 On ch=7 n=62 v=0
174953 On ch=7 n=62 v=100
175048 On ch=7 n=62 v=0
175083 On ch=7 n=62 v=100
175178 On ch=7 n=62 v=0
175200 On ch=7 n=69 v=100
175390 On ch=7 n=69 v=0
175433 On ch=7 n=66 v=100
175528 On ch=7 n=66 v=0
175563 On ch=7 n=66 v=100
175658 On ch=7 n=66 v=0
175680 On ch=7 n=62 v=100
175870 On ch=7 n=62 v=0
175913 On ch=7 n=62 v=100
176008 On ch=7 n=62 v=0
176043 On ch=7 n=62 v=100
176138 On ch=7 n=62 v=0
176160 On ch=7 n=69 v=100
176350 On ch=7 n=69 v=0
176393 On ch=7 n=66 v=100
176488 On ch=7 n=66 v=0
176523 On ch=7 n=66 v=100
176618 On ch=7 n=66 v=0
176640 On ch=7 n=62 v=100
176830 On ch=7 n=62 v=0
176886 On ch=7 n=62 v=100
177076 On ch=7 n=62 v=0
178080 On ch=7 n=62 v=100
178460 On ch=7 n=62 v=0
178560 On ch=7 n=62 v=100
179700 On ch=7 n=62 v=0
180000 On ch=7 n=62 v=100
180380 On ch=7 n=62 v=0
180480 On ch=7 n=62 v=100
182001 On ch=7 n=62 v=0
182001 Meta TrkEnd
TrkEnd
MTrk
0 Meta 0x21 00
0 Meta TrkName "Violoncello"
0 PrCh ch=8 p=48
0 Par ch=8 c=7 v=127
0 Par ch=8 c=10 v=90
243 Par ch=8 c=91 v=80
28553 On ch=8 n=61 v=100
28648 On ch=8 n=61 v=0
28683 On ch=8 n=61 v=100
28778 On ch=8 n=61 v=0
28800 On ch=8 n=62 v=100
28990 On ch=8 n=62 v=0
29046 On ch=8 n=57 v=100
29236 On ch=8 n=57 v=0
29513 On ch=8 n=61 v=100
29608 On ch=8 n=61 v=0
29643 On ch=8 n=61 v=100
29738 On ch=8 n=61 v=0
29760 On ch=8 n=62 v=100
29950 On ch=8 n=62 v=0
30006 On ch=8 n=57 v=100
30196 On ch=8 n=57 v=0
30473 On ch=8 n=61 v=100
30568 On ch=8 n=61 v=0
30603 On ch=8 n=61 v=100
30698 On ch=8 n=61 v=0
30720 On ch=8 n=62 v=100
30910 On ch=8 n=62 v=0
30966 On ch=8 n=57 v=100
31156 On ch=8 n=57 v=0
31433 On ch=8 n=61 v=100
31528 On ch=8 n=61 v=0
31563 On ch=8 n=61 v=100
31658 On ch=8 n=61 v=0
31680 On ch=8 n=62 v=100
31870 On ch=8 n=62 v=0
31926 On ch=8 n=57 v=100
32116 On ch=8 n=57 v=0
38153 On ch=8 n=54 v=100
38248 On ch=8 n=54 v=0
38283 On ch=8 n=54 v=100
38378 On ch=8 n=54 v=0
38400 On ch=8 n=55 v=100
38590 On ch=8 n=55 v=0
38646 On ch=8 n=50 v=100
38836 On ch=8 n=50 v=0
39113 On ch=8 n=54 v=100
39208 On ch=8 n=54 v=0
39243 On ch=8 n=54 v=100
39338 On ch=8 n=54 v=0
39360 On ch=8 n=55 v=100
39550 On ch=8 n=55 v=0
39606 On ch=8 n=50 v=100
39796 On ch=8 n=50 v=0
40073 On ch=8 n=54 v=100
40168 On ch=8 n=54 v=0
40203 On ch=8 n=54 v=100
40298 On ch=8 n=54 v=0
40320 On ch=8 n=55 v=100
40510 On ch=8 n=55 v=0
40566 On ch=8 n=50 v=100
40756 On ch=8 n=50 v=0
41033 On ch=8 n=54 v=100
41128 On ch=8 n=54 v=0
41163 On ch=8 n=54 v=100
41258 On ch=8 n=54 v=0
41280 On ch=8 n=55 v=100
41470 On ch=8 n=55 v=0
41526 On ch=8 n=50 v=100
41716 On ch=8 n=50 v=0
42953 On ch=8 n=62 v=100
43048 On ch=8 n=62 v=0
43083 On ch=8 n=62 v=100
43178 On ch=8 n=62 v=0
43200 On ch=8 n=61 v=100
43390 On ch=8 n=61 v=0
43446 On ch=8 n=57 v=100
43636 On ch=8 n=57 v=0
43913 On ch=8 n=62 v=100
44008 On ch=8 n=62 v=0
44043 On ch=8 n=62 v=100
44138 On ch=8 n=62 v=0
44160 On ch=8 n=59 v=100
44350 On ch=8 n=59 v=0
44406 On ch=8 n=59 v=100
44596 On ch=8 n=59 v=0
44873 On ch=8 n=64 v=100
44968 On ch=8 n=64 v=0
45003 On ch=8 n=64 v=100
45098 On ch=8 n=64 v=0
45120 On ch=8 n=61 v=100
45310 On ch=8 n=61 v=0
45366 On ch=8 n=57 v=100
45556 On ch=8 n=57 v=0
45600 On ch=8 n=62 v=100
46360 On ch=8 n=62 v=0
46560 On ch=8 n=61 v=100
46750 On ch=8 n=61 v=0
46793 On ch=8 n=57 v=100
46888 On ch=8 n=57 v=0
46923 On ch=8 n=57 v=100
47018 On ch=8 n=57 v=0
138486 On ch=8 n=57 v=100
138676 On ch=8 n=57 v=0
138720 On ch=8 n=62 v=100
138910 On ch=8 n=62 v=0
138966 On ch=8 n=61 v=100
139156 On ch=8 n=61 v=0
139200 On ch=8 n=59 v=100
139390 On ch=8 n=59 v=0
139446 On ch=8 n=50 v=100
139636 On ch=8 n=50 v=0
139680 On ch=8 n=55 v=100
139870 On ch=8 n=55 v=0
139926 On ch=8 n=54 v=100
140116 On ch=8 n=54 v=0
140116 Meta TrkEnd
TrkEnd
MTrk
0 Meta 0x21 00
0 Meta TrkName "Contrabass"
0 PrCh ch=9 p=48
0 Par ch=9 c=7 v=127
0 Par ch=9 c=10 v=110
1186 Par ch=9 c=91 v=80
1920 On ch=9 n=50 v=100
2110 On ch=9 n=50 v=0
2166 On ch=9 n=52 v=100
2356 On ch=9 n=52 v=0
2400 On ch=9 n=54 v=100
2590 On ch=9 n=54 v=0
2646 On ch=9 n=50 v=100
2836 On ch=9 n=50 v=0
2880 On ch=9 n=55 v=100
3070 On ch=9 n=55 v=0
3126 On ch=9 n=50 v=100
3316 On ch=9 n=50 v=0
3360 On ch=9 n=52 v=100
3550 On ch=9 n=52 v=0
3606 On ch=9 n=57 v=100
3796 On ch=9 n=57 v=0
3840 On ch=9 n=50 v=100
4030 On ch=9 n=50 v=0
4086 On ch=9 n=52 v=100
4276 On ch=9 n=52 v=0
4320 On ch=9 n=54 v=100
4510 On ch=9 n=54 v=0
4566 On ch=9 n=50 v=100
4756 On ch=9 n=50 v=0
4800 On ch=9 n=52 v=100
4990 On ch=9 n=52 v=0
5046 On ch=9 n=50 v=100
5236 On ch=9 n=50 v=0
5526 On ch=9 n=54 v=100
5716 On ch=9 n=54 v=0
5760 On ch=9 n=52 v=100
5950 On ch=9 n=52 v=0
6006 On ch=9 n=50 v=100
6196 On ch=9 n=50 v=0
6240 On ch=9 n=57 v=100
6430 On ch=9 n=57 v=0
6486 On ch=9 n=45 v=100
6676 On ch=9 n=45 v=0
6720 On ch=9 n=50 v=100
7100 On ch=9 n=50 v=0
7680 On ch=9 n=50 v=100
7870 On ch=9 n=50 v=0
7926 On ch=9 n=50 v=100
8116 On ch=9 n=50 v=0
8160 On ch=9 n=52 v=100
8350 On ch=9 n=52 v=0
8406 On ch=9 n=54 v=100
8596 On ch=9 n=54 v=0
8640 On ch=9 n=55 v=100
8830 On ch=9 n=55 v=0
8886 On ch=9 n=50 v=100
9076 On ch=9 n=50 v=0
9600 On ch=9 n=50 v=100
9790 On ch=9 n=50 v=0
9846 On ch=9 n=50 v=100
10036 On ch=9 n=50 v=0
10080 On ch=9 n=52 v=100
10270 On ch=9 n=52 v=0
10326 On ch=9 n=54 v=100
10516 On ch=9 n=54 v=0
10560 On ch=9 n=55 v=100
10750 On ch=9 n=55 v=0
10806 On ch=9 n=50 v=100
10996 On ch=9 n=50 v=0
11273 On ch=9 n=54 v=100
11368 On ch=9 n=54 v=0
11403 On ch=9 n=54 v=100
11498 On ch=9 n=54 v=0
11520 On ch=9 n=55 v=100
11710 On ch=9 n=55 v=0
11766 On ch=9 n=50 v=100
11956 On ch=9 n=50 v=0
12233 On ch=9 n=54 v=100
12328 On ch=9 n=54 v=0
12363 On ch=9 n=54 v=100
12458 On ch=9 n=54 v=0
12480 On ch=9 n=55 v=100
12670 On ch=9 n=55 v=0
12726 On ch=9 n=50 v=100
12916 On ch=9 n=50 v=0
13206 On ch=9 n=54 v=100
13396 On ch=9 n=54 v=0
13440 On ch=9 n=52 v=100
13630 On ch=9 n=52 v=0
13686 On ch=9 n=50 v=100
13876 On ch=9 n=50 v=0
13920 On ch=9 n=57 v=100
14110 On ch=9 n=57 v=0
14166 On ch=9 n=45 v=100
14356 On ch=9 n=45 v=0
14400 On ch=9 n=50 v=100
14590 On ch=9 n=50 v=0
14646 On ch=9 n=54 v=100
14836 On ch=9 n=54 v=0
14880 On ch=9 n=52 v=100
15070 On ch=9 n=52 v=0
15126 On ch=9 n=50 v=100
15316 On ch=9 n=50 v=0
15360 On ch=9 n=57 v=100
15930 On ch=9 n=57 v=0
16086 On ch=9 n=61 v=100
16276 On ch=9 n=61 v=0
16320 On ch=9 n=62 v=100
16510 On ch=9 n=62 v=0
16566 On ch=9 n=57 v=100
16756 On ch=9 n=57 v=0
17280 On ch=9 n=57 v=100
17850 On ch=9 n=57 v=0
18006 On ch=9 n=61 v=100
18196 On ch=9 n=61 v=0
18240 On ch=9 n=62 v=100
18430 On ch=9 n=62 v=0
18486 On ch=9 n=57 v=100
18676 On ch=9 n=57 v=0
18953 On ch=9 n=61 v=100
19048 On ch=9 n=61 v=0
19083 On ch=9 n=61 v=100
19178 On ch=9 n=61 v=0
19200 On ch=9 n=62 v=100
19390 On ch=9 n=62 v=0
19446 On ch=9 n=57 v=100
19636 On ch=9 n=57 v=0
19913 On ch=9 n=61 v=100
20008 On ch=9 n=61 v=0
20043 On ch=9 n=61 v=100
20138 On ch=9 n=61 v=0
20160 On ch=9 n=62 v=100
20350 On ch=9 n=62 v=0
20406 On ch=9 n=57 v=100
20596 On ch=9 n=57 v=0
20886 On ch=9 n=61 v=100
21076 On ch=9 n=61 v=0
21120 On ch=9 n=62 v=100
21310 On ch=9 n=62 v=0
21366 On ch=9 n=61 v=100
21556 On ch=9 n=61 v=0
21600 On ch=9 n=59 v=100
21980 On ch=9 n=59 v=0
22080 On ch=9 n=57 v=100
22460 On ch=9 n=57 v=0
23040 On ch=9 n=57 v=100
23800 On ch=9 n=57 v=0
24000 On ch=9 n=59 v=100
24380 On ch=9 n=59 v=0
24480 On ch=9 n=61 v=100
24860 On ch=9 n=61 v=0
24960 On ch=9 n=62 v=100
25150 On ch=9 n=62 v=0
25206 On ch=9 n=50 v=100
25396 On ch=9 n=50 v=0
25440 On ch=9 n=62 v=100
26200 On ch=9 n=62 v=0
26400 On ch=9 n=61 v=100
26780 On ch=9 n=61 v=0
26880 On ch=9 n=59 v=100
27640 On ch=9 n=59 v=0
27840 On ch=9 n=57 v=100
28220 On ch=9 n=57 v=0
28553 On ch=9 n=61 v=100
28648 On ch=9 n=61 v=0
28683 On ch=9 n=61 v=100
28778 On ch=9 n=61 v=0
28800 On ch=9 n=62 v=100
28990 On ch=9 n=62 v=0
29046 On ch=9 n=57 v=100
29236 On ch=9 n=57 v=0
29513 On ch=9 n=61 v=100
29608 On ch=9 n=61 v=0
29643 On ch=9 n=61 v=100
29738 On ch=9 n=61 v=0
29760 On ch=9 n=62 v=100
29950 On ch=9 n=62 v=0
30006 On ch=9 n=57 v=100
30196 On ch=9 n=57 v=0
30473 On ch=9 n=61 v=100
30568 On ch=9 n=61 v=0
30603 On ch=9 n=61 v=100
30698 On ch=9 n=61 v=0
30720 On ch=9 n=62 v=100
30910 On ch=9 n=62 v=0
30966 On ch=9 n=57 v=100
31156 On ch=9 n=57 v=0
31433 On ch=9 n=61 v=100
31528 On ch=9 n=61 v=0
31563 On ch=9 n=61 v=100
31658 On ch=9 n=61 v=0
31680 On ch=9 n=62 v=100
31870 On ch=9 n=62 v=0
31926 On ch=9 n=57 v=100
32116 On ch=9 n=57 v=0
32640 On ch=9 n=50 v=100
33400 On ch=9 n=50 v=0
33600 On ch=9 n=52 v=100
33980 On ch=9 n=52 v=0
34080 On ch=9 n=54 v=100
34460 On ch=9 n=54 v=0
34560 On ch=9 n=55 v=100
34750 On ch=9 n=55 v=0
34806 On ch=9 n=43 v=100
34996 On ch=9 n=43 v=0
35040 On ch=9 n=55 v=100
35800 On ch=9 n=55 v=0
36000 On ch=9 n=54 v=100
36380 On ch=9 n=54 v=0
36480 On ch=9 n=52 v=100
37240 On ch=9 n=52 v=0
37440 On ch=9 n=50 v=100
37820 On ch=9 n=50 v=0
38153 On ch=9 n=54 v=100
38248 On ch=9 n=54 v=0
38283 On ch=9 n=54 v=100
38378 On ch=9 n=54 v=0
38400 On ch=9 n=55 v=100
38590 On ch=9 n=55 v=0
38646 On ch=9 n=50 v=100
38836 On ch=9 n=50 v=0
39113 On ch=9 n=54 v=100
39208 On ch=9 n=54 v=0
39243 On ch=9 n=54 v=100
39338 On ch=9 n=54 v=0
39360 On ch=9 n=55 v=100
39550 On ch=9 n=55 v=0
39606 On ch=9 n=50 v=100
39796 On ch=9 n=50 v=0
40073 On ch=9 n=54 v=100
40168 On ch=9 n=54 v=0
40203 On ch=9 n=54 v=100
40298 On ch=9 n=54 v=0
40320 On ch=9 n=55 v=100
40510 On ch=9 n=55 v=0
40566 On ch=9 n=50 v=100
40756 On ch=9 n=50 v=0
41033 On ch=9 n=54 v=100
41128 On ch=9 n=54 v=0
41163 On ch=9 n=54 v=100
41258 On ch=9 n=54 v=0
41280 On ch=9 n=55 v=100
41470 On ch=9 n=55 v=0
41526 On ch=9 n=50 v=100
41716 On ch=9 n=50 v=0
46793 On ch=9 n=57 v=100
46888 On ch=9 n=57 v=0
46923 On ch=9 n=57 v=100
47018 On ch=9 n=57 v=0
47040 On ch=9 n=54 v=100
47230 On ch=9 n=54 v=0
47286 On ch=9 n=50 v=100
47476 On ch=9 n=50 v=0
47520 On ch=9 n=62 v=100
47710 On ch=9 n=62 v=0
47766 On ch=9 n=50 v=100
47956 On ch=9 n=50 v=0
48000 On ch=9 n=57 v=100
48760 On ch=9 n=57 v=0
48960 On ch=9 n=59 v=100
49340 On ch=9 n=59 v=0
49440 On ch=9 n=61 v=100
49820 On ch=9 n=61 v=0
49920 On ch=9 n=62 v=100
50110 On ch=9 n=62 v=0
50166 On ch=9 n=50 v=100
50356 On ch=9 n=50 v=0
50400 On ch=9 n=62 v=100
51160 On ch=9 n=62 v=0
51360 On ch=9 n=61 v=100
51740 On ch=9 n=61 v=0
51840 On ch=9 n=59 v=100
52600 On ch=9 n=59 v=0
52800 On ch=9 n=57 v=100
53180 On ch=9 n=57 v=0
53513 On ch=9 n=57 v=100
53608 On ch=9 n=57 v=0
53643 On ch=9 n=57 v=100
53738 On ch=9 n=57 v=0
53760 On ch=9 n=54 v=100
53950 On ch=9 n=54 v=0
54006 On ch=9 n=50 v=100
54196 On ch=9 n=50 v=0
54473 On ch=9 n=62 v=100
54568 On ch=9 n=62 v=0
54603 On ch=9 n=62 v=100
54698 On ch=9 n=62 v=0
54720 On ch=9 n=61 v=100
54910 On ch=9 n=61 v=0
54966 On ch=9 n=57 v=100
55156 On ch=9 n=57 v=0
55200 On ch=9 n=61 v=100
55390 On ch=9 n=61 v=0
55446 On ch=9 n=57 v=100
55636 On ch=9 n=57 v=0
55680 On ch=9 n=62 v=100
56250 On ch=9 n=62 v=0
56380 On ch=9 n=62 v=100
56475 On ch=9 n=62 v=0
56523 On ch=9 n=62 v=100
56618 On ch=9 n=62 v=0
56640 On ch=9 n=61 v=100
56830 On ch=9 n=61 v=0
56886 On ch=9 n=57 v=100
57076 On ch=9 n=57 v=0
57353 On ch=9 n=62 v=100
57448 On ch=9 n=62 v=0
57483 On ch=9 n=62 v=100
57578 On ch=9 n=62 v=0
57600 On ch=9 n=59 v=100
57790 On ch=9 n=59 v=0
57846 On ch=9 n=55 v=100
58036 On ch=9 n=55 v=0
58313 On ch=9 n=52 v=100
58408 On ch=9 n=52 v=0
58443 On ch=9 n=52 v=100
58538 On ch=9 n=52 v=0
58560 On ch=9 n=57 v=100
58750 On ch=9 n=57 v=0
58806 On ch=9 n=57 v=100
58996 On ch=9 n=57 v=0
59273 On ch=9 n=59 v=100
59368 On ch=9 n=59 v=0
59403 On ch=9 n=59 v=100
59498 On ch=9 n=59 v=0
59520 On ch=9 n=55 v=100
59710 On ch=9 n=55 v=0
59766 On ch=9 n=52 v=100
59956 On ch=9 n=52 v=0
60000 On ch=9 n=57 v=100
60285 On ch=9 n=57 v=0
60363 On ch=9 n=55 v=100
60458 On ch=9 n=55 v=0
60480 On ch=9 n=54 v=100
60860 On ch=9 n=54 v=0
61193 On ch=9 n=62 v=100
61288 On ch=9 n=62 v=0
61323 On ch=9 n=62 v=100
61418 On ch=9 n=62 v=0
61440 On ch=9 n=59 v=100
61630 On ch=9 n=59 v=0
61686 On ch=9 n=55 v=100
61876 On ch=9 n=55 v=0
61920 On ch=9 n=59 v=100
62110 On ch=9 n=59 v=0
62166 On ch=9 n=61 v=100
62356 On ch=9 n=61 v=0
62400 On ch=9 n=62 v=100
62590 On ch=9 n=62 v=0
62633 On ch=9 n=50 v=100
62728 On ch=9 n=50 v=0
62763 On ch=9 n=50 v=100
62858 On ch=9 n=50 v=0
62880 On ch=9 n=50 v=100
63070 On ch=9 n=50 v=0
63126 On ch=9 n=50 v=100
63316 On ch=9 n=50 v=0
63360 On ch=9 n=47 v=100
63550 On ch=9 n=47 v=0
63593 On ch=9 n=47 v=100
63688 On ch=9 n=47 v=0
63723 On ch=9 n=47 v=100
63818 On ch=9 n=47 v=0
63840 On ch=9 n=43 v=100
64030 On ch=9 n=43 v=0
64086 On ch=9 n=43 v=100
64276 On ch=9 n=43 v=0
64320 On ch=9 n=50 v=100
64700 On ch=9 n=50 v=0
64800 On ch=9 n=50 v=100
65180 On ch=9 n=50 v=0
65280 On ch=9 n=49 v=100
65660 On ch=9 n=49 v=0
65760 On ch=9 n=47 v=100
66140 On ch=9 n=47 v=0
66240 On ch=9 n=45 v=100
66620 On ch=9 n=45 v=0
66720 On ch=9 n=55 v=100
67100 On ch=9 n=55 v=0
67200 On ch=9 n=54 v=100
68340 On ch=9 n=54 v=0
68640 On ch=9 n=50 v=100
69020 On ch=9 n=50 v=0
69120 On ch=9 n=49 v=100
69500 On ch=9 n=49 v=0
69600 On ch=9 n=47 v=100
69980 On ch=9 n=47 v=0
70080 On ch=9 n=45 v=100
70650 On ch=9 n=45 v=0
70793 On ch=9 n=45 v=100
70983 On ch=9 n=45 v=0
71040 On ch=9 n=50 v=100
72180 On ch=9 n=50 v=0
72480 On ch=9 n=62 v=100
72860 On ch=9 n=62 v=0
72960 On ch=9 n=61 v=100
73340 On ch=9 n=61 v=0
73440 On ch=9 n=59 v=100
73820 On ch=9 n=59 v=0
73920 On ch=9 n=57 v=100
74300 On ch=9 n=57 v=0
74400 On ch=9 n=55 v=100
74780 On ch=9 n=55 v=0
74880 On ch=9 n=54 v=100
75450 On ch=9 n=54 v=0
75606 On ch=9 n=52 v=100
75796 On ch=9 n=52 v=0
75840 On ch=9 n=50 v=100
76220 On ch=9 n=50 v=0
76320 On ch=9 n=59 v=100
76700 On ch=9 n=59 v=0
76800 On ch=9 n=57 v=100
77370 On ch=9 n=57 v=0
77526 On ch=9 n=54 v=100
77716 On ch=9 n=54 v=0
77760 On ch=9 n=55 v=100
78140 On ch=9 n=55 v=0
78240 On ch=9 n=52 v=100
78620 On ch=9 n=52 v=0
78720 On ch=9 n=50 v=100
79290 On ch=9 n=50 v=0
79446 On ch=9 n=57 v=100
79636 On ch=9 n=57 v=0
79680 On ch=9 n=62 v=100
80060 On ch=9 n=62 v=0
80160 On ch=9 n=54 v=100
80540 On ch=9 n=54 v=0
80640 On ch=9 n=59 v=100
81020 On ch=9 n=59 v=0
81120 On ch=9 n=50 v=100
81500 On ch=9 n=50 v=0
81600 On ch=9 n=55 v=100
81980 On ch=9 n=55 v=0
82080 On ch=9 n=54 v=100
82270 On ch=9 n=54 v=0
82326 On ch=9 n=52 v=100
82516 On ch=9 n=52 v=0
82560 On ch=9 n=52 v=100
83320 On ch=9 n=52 v=0
83520 On ch=9 n=50 v=100
83900 On ch=9 n=50 v=0
85206 On ch=9 n=57 v=100
85396 On ch=9 n=57 v=0
85440 On ch=9 n=62 v=100
85630 On ch=9 n=62 v=0
85686 On ch=9 n=50 v=100
85876 On ch=9 n=50 v=0
86166 On ch=9 n=54 v=100
86356 On ch=9 n=54 v=0
86400 On ch=9 n=59 v=100
86590 On ch=9 n=59 v=0
86646 On ch=9 n=56 v=100
86836 On ch=9 n=56 v=0
86880 On ch=9 n=57 v=100
87260 On ch=9 n=57 v=0
87606 On ch=9 n=52 v=100
87796 On ch=9 n=52 v=0
87840 On ch=9 n=50 v=100
88030 On ch=9 n=50 v=0
88086 On ch=9 n=52 v=100
88276 On ch=9 n=52 v=0
88320 On ch=9 n=49 v=100
88510 On ch=9 n=49 v=0
88566 On ch=9 n=57 v=100
88756 On ch=9 n=57 v=0
88800 On ch=9 n=55 v=100
88990 On ch=9 n=55 v=0
89046 On ch=9 n=57 v=100
89236 On ch=9 n=57 v=0
89280 On ch=9 n=54 v=100
89660 On ch=9 n=54 v=0
90006 On ch=9 n=54 v=100
90196 On ch=9 n=54 v=0
90240 On ch=9 n=55 v=100
90430 On ch=9 n=55 v=0
90486 On ch=9 n=50 v=100
90676 On ch=9 n=50 v=0
90966 On ch=9 n=59 v=100
91156 On ch=9 n=59 v=0
91200 On ch=9 n=64 v=100
91390 On ch=9 n=64 v=0
91446 On ch=9 n=61 v=100
91636 On ch=9 n=61 v=0
91680 On ch=9 n=62 v=100
91870 On ch=9 n=62 v=0
91926 On ch=9 n=55 v=100
92116 On ch=9 n=55 v=0
92160 On ch=9 n=57 v=100
92350 On ch=9 n=57 v=0
92406 On ch=9 n=45 v=100
92596 On ch=9 n=45 v=0
92886 On ch=9 n=57 v=100
93076 On ch=9 n=57 v=0
93120 On ch=9 n=54 v=100
93310 On ch=9 n=54 v=0
93366 On ch=9 n=50 v=100
93556 On ch=9 n=50 v=0
93846 On ch=9 n=62 v=100
94036 On ch=9 n=62 v=0
94080 On ch=9 n=61 v=100
94270 On ch=9 n=61 v=0
94326 On ch=9 n=57 v=100
94516 On ch=9 n=57 v=0
94793 On ch=9 n=61 v=100
94983 On ch=9 n=61 v=0
95039 On ch=9 n=62 v=100
95229 On ch=9 n=62 v=0
95273 On ch=9 n=50 v=100
95463 On ch=9 n=50 v=0
95753 On ch=9 n=54 v=100
95943 On ch=9 n=54 v=0
96000 On ch=9 n=59 v=100
96190 On ch=9 n=59 v=0
96246 On ch=9 n=56 v=100
96436 On ch=9 n=56 v=0
96480 On ch=9 n=57 v=100
96670 On ch=9 n=57 v=0
96726 On ch=9 n=50 v=100
96916 On ch=9 n=50 v=0
96960 On ch=9 n=52 v=100
97150 On ch=9 n=52 v=0
97206 On ch=9 n=40 v=100
97396 On ch=9 n=40 v=0
97686 On ch=9 n=52 v=100
97876 On ch=9 n=52 v=0
97920 On ch=9 n=49 v=100
98300 On ch=9 n=49 v=0
98400 On ch=9 n=45 v=100
98780 On ch=9 n=45 v=0
100566 On ch=9 n=61 v=100
100756 On ch=9 n=61 v=0
100800 On ch=9 n=62 v=100
100990 On ch=9 n=62 v=0
101046 On ch=9 n=57 v=100
101236 On ch=9 n=57 v=0
101526 On ch=9 n=61 v=100
101716 On ch=9 n=61 v=0
101760 On ch=9 n=62 v=100
101950 On ch=9 n=62 v=0
102006 On ch=9 n=57 v=100
102196 On ch=9 n=57 v=0
102473 On ch=9 n=61 v=100
102568 On ch=9 n=61 v=0
102603 On ch=9 n=61 v=100
102698 On ch=9 n=61 v=0
102720 On ch=9 n=62 v=100
102910 On ch=9 n=62 v=0
102966 On ch=9 n=57 v=100
103156 On ch=9 n=57 v=0
103433 On ch=9 n=61 v=100
103528 On ch=9 n=61 v=0
103563 On ch=9 n=61 v=100
103658 On ch=9 n=61 v=0
103680 On ch=9 n=62 v=100
103870 On ch=9 n=62 v=0
103926 On ch=9 n=57 v=100
104116 On ch=9 n=57 v=0
106326 On ch=9 n=61 v=100
106516 On ch=9 n=61 v=0
106560 On ch=9 n=62 v=100
106750 On ch=9 n=62 v=0
106806 On ch=9 n=57 v=100
106996 On ch=9 n=57 v=0
107286 On ch=9 n=61 v=100
107476 On ch=9 n=61 v=0
107520 On ch=9 n=62 v=100
107710 On ch=9 n=62 v=0
107766 On ch=9 n=57 v=100
107956 On ch=9 n=57 v=0
108233 On ch=9 n=61 v=100
108328 On ch=9 n=61 v=0
108363 On ch=9 n=61 v=100
108458 On ch=9 n=61 v=0
108480 On ch=9 n=62 v=100
108670 On ch=9 n=62 v=0
108726 On ch=9 n=57 v=100
108916 On ch=9 n=57 v=0
109193 On ch=9 n=61 v=100
109288 On ch=9 n=61 v=0
109323 On ch=9 n=61 v=100
109418 On ch=9 n=61 v=0
109440 On ch=9 n=62 v=100
109630 On ch=9 n=62 v=0
109686 On ch=9 n=57 v=100
109876 On ch=9 n=57 v=0
112086 On ch=9 n=54 v=100
112276 On ch=9 n=54 v=0
112320 On ch=9 n=55 v=100
112510 On ch=9 n=55 v=0
112566 On ch=9 n=50 v=100
112756 On ch=9 n=50 v=0
113046 On ch=9 n=54 v=100
113236 On ch=9 n=54 v=0
113280 On ch=9 n=55 v=100
113470 On ch=9 n=55 v=0
113526 On ch=9 n=50 v=100
113716 On ch=9 n=50 v=0
113993 On ch=9 n=54 v=100
114088 On ch=9 n=54 v=0
114123 On ch=9 n=54 v=100
114218 On ch=9 n=54 v=0
114240 On ch=9 n=55 v=100
114430 On ch=9 n=55 v=0
114486 On ch=9 n=50 v=100
114676 On ch=9 n=50 v=0
114953 On ch=9 n=54 v=100
115048 On ch=9 n=54 v=0
115083 On ch=9 n=54 v=100
115178 On ch=9 n=54 v=0
115200 On ch=9 n=55 v=100
115390 On ch=9 n=55 v=0
115446 On ch=9 n=50 v=100
115636 On ch=9 n=50 v=0
117846 On ch=9 n=56 v=100
118036 On ch=9 n=56 v=0
118080 On ch=9 n=57 v=100
118270 On ch=9 n=57 v=0
118326 On ch=9 n=52 v=100
118516 On ch=9 n=52 v=0
118806 On ch=9 n=56 v=100
118996 On ch=9 n=56 v=0
119040 On ch=9 n=57 v=100
119230 On ch=9 n=57 v=0
119286 On ch=9 n=52 v=100
119476 On ch=9 n=52 v=0
119753 On ch=9 n=56 v=100
119848 On ch=9 n=56 v=0
119883 On ch=9 n=56 v=100
119978 On ch=9 n=56 v=0
120000 On ch=9 n=57 v=100
120190 On ch=9 n=57 v=0
120246 On ch=9 n=52 v=100
120436 On ch=9 n=52 v=0
120713 On ch=9 n=56 v=100
120808 On ch=9 n=56 v=0
120843 On ch=9 n=56 v=100
120938 On ch=9 n=56 v=0
120960 On ch=9 n=57 v=100
121150 On ch=9 n=57 v=0
121206 On ch=9 n=52 v=100
121396 On ch=9 n=52 v=0
123606 On ch=9 n=58 v=100
123796 On ch=9 n=58 v=0
123840 On ch=9 n=59 v=100
124030 On ch=9 n=59 v=0
124086 On ch=9 n=54 v=100
124276 On ch=9 n=54 v=0
124566 On ch=9 n=58 v=100
124756 On ch=9 n=58 v=0
124800 On ch=9 n=59 v=100
124990 On ch=9 n=59 v=0
125046 On ch=9 n=54 v=100
125236 On ch=9 n=54 v=0
125513 On ch=9 n=58 v=100
125608 On ch=9 n=58 v=0
125643 On ch=9 n=58 v=100
125738 On ch=9 n=58 v=0
125760 On ch=9 n=59 v=100
125950 On ch=9 n=59 v=0
126006 On ch=9 n=54 v=100
126196 On ch=9 n=54 v=0
126473 On ch=9 n=58 v=100
126568 On ch=9 n=58 v=0
126603 On ch=9 n=58 v=100
126698 On ch=9 n=58 v=0
126720 On ch=9 n=59 v=100
127100 On ch=9 n=59 v=0
127200 On ch=9 n=47 v=100
127580 On ch=9 n=47 v=0
129600 On ch=9 n=59 v=100
129980 On ch=9 n=59 v=0
130080 On ch=9 n=59 v=100
130460 On ch=9 n=59 v=0
130560 On ch=9 n=61 v=100
131130 On ch=9 n=61 v=0
131286 On ch=9 n=61 v=100
131476 On ch=9 n=61 v=0
131520 On ch=9 n=62 v=100
131900 On ch=9 n=62 v=0
132000 On ch=9 n=50 v=100
132380 On ch=9 n=50 v=0
132480 On ch=9 n=57 v=100
133050 On ch=9 n=57 v=0
133206 On ch=9 n=45 v=100
133396 On ch=9 n=45 v=0
133440 On ch=9 n=57 v=100
133820 On ch=9 n=57 v=0
133920 On ch=9 n=49 v=100
134300 On ch=9 n=49 v=0
134400 On ch=9 n=54 v=100
134780 On ch=9 n=54 v=0
134880 On ch=9 n=45 v=100
135260 On ch=9 n=45 v=0
135360 On ch=9 n=50 v=100
135740 On ch=9 n=50 v=0
135840 On ch=9 n=49 v=100
136220 On ch=9 n=49 v=0
136320 On ch=9 n=47 v=100
137080 On ch=9 n=47 v=0
137280 On ch=9 n=45 v=100
137660 On ch=9 n=45 v=0
139446 On ch=9 n=50 v=100
139636 On ch=9 n=50 v=0
139680 On ch=9 n=55 v=100
139870 On ch=9 n=55 v=0
139926 On ch=9 n=54 v=100
140116 On ch=9 n=54 v=0
140160 On ch=9 n=52 v=100
140540 On ch=9 n=52 v=0
140640 On ch=9 n=54 v=100
140830 On ch=9 n=54 v=0
140886 On ch=9 n=55 v=100
141076 On ch=9 n=55 v=0
141120 On ch=9 n=57 v=100
141500 On ch=9 n=57 v=0
141600 On ch=9 n=55 v=100
141790 On ch=9 n=55 v=0
141846 On ch=9 n=57 v=100
142036 On ch=9 n=57 v=0
142080 On ch=9 n=54 v=100
142460 On ch=9 n=54 v=0
142560 On ch=9 n=50 v=100
142940 On ch=9 n=50 v=0
144726 On ch=9 n=54 v=100
144916 On ch=9 n=54 v=0
144960 On ch=9 n=55 v=100
145150 On ch=9 n=55 v=0
145206 On ch=9 n=50 v=100
145396 On ch=9 n=50 v=0
145686 On ch=9 n=54 v=100
145876 On ch=9 n=54 v=0
145920 On ch=9 n=55 v=100
146110 On ch=9 n=55 v=0
146166 On ch=9 n=50 v=100
146356 On ch=9 n=50 v=0
148553 On ch=9 n=54 v=100
148648 On ch=9 n=54 v=0
148683 On ch=9 n=54 v=100
148778 On ch=9 n=54 v=0
148800 On ch=9 n=55 v=100
148990 On ch=9 n=55 v=0
149046 On ch=9 n=50 v=100
149236 On ch=9 n=50 v=0
149513 On ch=9 n=54 v=100
149608 On ch=9 n=54 v=0
149643 On ch=9 n=54 v=100
149738 On ch=9 n=54 v=0
149760 On ch=9 n=55 v=100
149950 On ch=9 n=55 v=0
150006 On ch=9 n=50 v=100
150196 On ch=9 n=50 v=0
150486 On ch=9 n=50 v=100
150676 On ch=9 n=50 v=0
150720 On ch=9 n=62 v=100
151100 On ch=9 n=62 v=0
151200 On ch=9 n=54 v=100
151580 On ch=9 n=54 v=0
151680 On ch=9 n=59 v=100
152060 On ch=9 n=59 v=0
152160 On ch=9 n=50 v=100
152540 On ch=9 n=50 v=0
152640 On ch=9 n=55 v=100
153020 On ch=9 n=55 v=0
153120 On ch=9 n=54 v=100
153310 On ch=9 n=54 v=0
153366 On ch=9 n=54 v=100
153556 On ch=9 n=54 v=0
153600 On ch=9 n=52 v=100
153980 On ch=9 n=52 v=0
154080 On ch=9 n=50 v=100
154270 On ch=9 n=50 v=0
154326 On ch=9 n=50 v=100
154516 On ch=9 n=50 v=0
154560 On ch=9 n=57 v=100
155320 On ch=9 n=57 v=0
155520 On ch=9 n=50 v=100
155900 On ch=9 n=50 v=0
156480 On ch=9 n=50 v=100
156860 On ch=9 n=50 v=0
156960 On ch=9 n=50 v=100
157340 On ch=9 n=50 v=0
157440 On ch=9 n=62 v=100
157820 On ch=9 n=62 v=0
158166 On ch=9 n=50 v=100
158356 On ch=9 n=50 v=0
158400 On ch=9 n=50 v=100
158780 On ch=9 n=50 v=0
158880 On ch=9 n=50 v=100
159260 On ch=9 n=50 v=0
159360 On ch=9 n=62 v=100
159740 On ch=9 n=62 v=0
160320 On ch=9 n=50 v=100
160700 On ch=9 n=50 v=0
160800 On ch=9 n=50 v=100
161180 On ch=9 n=50 v=0
161280 On ch=9 n=62 v=100
161660 On ch=9 n=62 v=0
162006 On ch=9 n=50 v=100
162196 On ch=9 n=50 v=0
162240 On ch=9 n=50 v=100
162620 On ch=9 n=50 v=0
162720 On ch=9 n=50 v=100
163100 On ch=9 n=50 v=0
163200 On ch=9 n=62 v=100
163580 On ch=9 n=62 v=0
163926 On ch=9 n=50 v=100
164116 On ch=9 n=50 v=0
164160 On ch=9 n=62 v=100
164540 On ch=9 n=62 v=0
164640 On ch=9 n=54 v=100
165020 On ch=9 n=54 v=0
165120 On ch=9 n=59 v=100
165500 On ch=9 n=59 v=0
165600 On ch=9 n=50 v=100
165980 On ch=9 n=50 v=0
166080 On ch=9 n=55 v=100
166460 On ch=9 n=55 v=0
166560 On ch=9 n=54 v=100
166750 On ch=9 n=54 v=0
166806 On ch=9 n=54 v=100
166996 On ch=9 n=54 v=0
167040 On ch=9 n=52 v=100
167420 On ch=9 n=52 v=0
167520 On ch=9 n=50 v=100
167710 On ch=9 n=50 v=0
167766 On ch=9 n=50 v=100
167956 On ch=9 n=50 v=0
168000 On ch=9 n=57 v=100
168760 On ch=9 n=57 v=0
168960 On ch=9 n=50 v=100
169340 On ch=9 n=50 v=0
169686 On ch=9 n=54 v=100
169876 On ch=9 n=54 v=0
169920 On ch=9 n=55 v=100
170110 On ch=9 n=55 v=0
170166 On ch=9 n=50 v=100
170356 On ch=9 n=50 v=0
170646 On ch=9 n=54 v=100
170836 On ch=9 n=54 v=0
170880 On ch=9 n=55 v=100
171070 On ch=9 n=55 v=0
171126 On ch=9 n=50 v=100
171316 On ch=9 n=50 v=0
171606 On ch=9 n=54 v=100
171796 On ch=9 n=54 v=0
171840 On ch=9 n=55 v=100
172030 On ch=9 n=55 v=0
172086 On ch=9 n=50 v=100
172276 On ch=9 n=50 v=0
172566 On ch=9 n=54 v=100
172756 On ch=9 n=54 v=0
172800 On ch=9 n=55 v=100
172990 On ch=9 n=55 v=0
173046 On ch=9 n=50 v=100
173236 On ch=9 n=50 v=0
173513 On ch=9 n=54 v=100
173608 On ch=9 n=54 v=0
173643 On ch=9 n=54 v=100
173738 On ch=9 n=54 v=0
173760 On ch=9 n=55 v=100
173950 On ch=9 n=55 v=0
174006 On ch=9 n=50 v=100
174196 On ch=9 n=50 v=0
174473 On ch=9 n=54 v=100
174568 On ch=9 n=54 v=0
174603 On ch=9 n=54 v=100
174698 On ch=9 n=54 v=0
174720 On ch=9 n=55 v=100
174910 On ch=9 n=55 v=0
174966 On ch=9 n=50 v=100
175156 On ch=9 n=50 v=0
175433 On ch=9 n=54 v=100
175528 On ch=9 n=54 v=0
175563 On ch=9 n=54 v=100
175658 On ch=9 n=54 v=0
175680 On ch=9 n=55 v=100
175870 On ch=9 n=55 v=0
175926 On ch=9 n=50 v=100
176116 On ch=9 n=50 v=0
176393 On ch=9 n=54 v=100
176488 On ch=9 n=54 v=0
176523 On ch=9 n=54 v=100
176618 On ch=9 n=54 v=0
176640 On ch=9 n=55 v=100
176830 On ch=9 n=55 v=0
176886 On ch=9 n=50 v=100
177076 On ch=9 n=50 v=0
178080 On ch=9 n=50 v=100
178460 On ch=9 n=50 v=0
178560 On ch=9 n=43 v=100
179700 On ch=9 n=43 v=0
180000 On ch=9 n=43 v=100
180380 On ch=9 n=43 v=0
180480 On ch=9 n=38 v=100
182001 On ch=9 n=38 v=0
182001 Meta TrkEnd
TrkEnd
MTrk
0 Meta 0x21 00
0 Par ch=10 c=10 v=64
0 Meta TrkEnd
TrkEnd
MTrk
0 Meta 0x21 00
0 Meta TrkName "Organ"
0 PrCh ch=11 p=19
0 Par ch=11 c=7 v=125
0 Par ch=11 c=10 v=64
1216 Par ch=11 c=91 v=90
1920 On ch=11 n=50 v=110
2110 On ch=11 n=50 v=0
2166 On ch=11 n=52 v=110
2356 On ch=11 n=52 v=0
2400 On ch=11 n=54 v=110
2590 On ch=11 n=54 v=0
2646 On ch=11 n=50 v=110
2836 On ch=11 n=50 v=0
2880 On ch=11 n=55 v=110
3070 On ch=11 n=55 v=0
3126 On ch=11 n=50 v=110
3316 On ch=11 n=50 v=0
3360 On ch=11 n=52 v=110
3550 On ch=11 n=52 v=0
3606 On ch=11 n=57 v=110
3796 On ch=11 n=57 v=0
3840 On ch=11 n=50 v=110
4030 On ch=11 n=50 v=0
4086 On ch=11 n=52 v=110
4276 On ch=11 n=52 v=0
4320 On ch=11 n=54 v=110
4510 On ch=11 n=54 v=0
4566 On ch=11 n=50 v=110
4756 On ch=11 n=50 v=0
4800 On ch=11 n=52 v=110
4990 On ch=11 n=52 v=0
5046 On ch=11 n=50 v=110
5236 On ch=11 n=50 v=0
5526 On ch=11 n=54 v=110
5716 On ch=11 n=54 v=0
5760 On ch=11 n=52 v=110
5950 On ch=11 n=52 v=0
6006 On ch=11 n=50 v=110
6196 On ch=11 n=50 v=0
6240 On ch=11 n=57 v=110
6430 On ch=11 n=57 v=0
6486 On ch=11 n=45 v=110
6676 On ch=11 n=45 v=0
6720 On ch=11 n=50 v=110
7100 On ch=11 n=50 v=0
7680 On ch=11 n=50 v=110
7870 On ch=11 n=50 v=0
7926 On ch=11 n=50 v=110
8116 On ch=11 n=50 v=0
8160 On ch=11 n=52 v=110
8350 On ch=11 n=52 v=0
8406 On ch=11 n=54 v=110
8596 On ch=11 n=54 v=0
8640 On ch=11 n=55 v=110
8830 On ch=11 n=55 v=0
8886 On ch=11 n=50 v=110
9076 On ch=11 n=50 v=0
9600 On ch=11 n=50 v=110
9790 On ch=11 n=50 v=0
9846 On ch=11 n=50 v=110
10036 On ch=11 n=50 v=0
10080 On ch=11 n=52 v=110
10270 On ch=11 n=52 v=0
10326 On ch=11 n=54 v=110
10516 On ch=11 n=54 v=0
10560 On ch=11 n=55 v=110
10750 On ch=11 n=55 v=0
10806 On ch=11 n=50 v=110
10996 On ch=11 n=50 v=0
11273 On ch=11 n=54 v=110
11368 On ch=11 n=54 v=0
11403 On ch=11 n=54 v=110
11498 On ch=11 n=54 v=0
11520 On ch=11 n=55 v=110
11710 On ch=11 n=55 v=0
11766 On ch=11 n=50 v=110
11956 On ch=11 n=50 v=0
12233 On ch=11 n=54 v=110
12328 On ch=11 n=54 v=0
12363 On ch=11 n=54 v=110
12458 On ch=11 n=54 v=0
12480 On ch=11 n=55 v=110
12670 On ch=11 n=55 v=0
12726 On ch=11 n=50 v=110
12916 On ch=11 n=50 v=0
13206 On ch=11 n=54 v=110
13396 On ch=11 n=54 v=0
13440 On ch=11 n=52 v=110
13630 On ch=11 n=52 v=0
13686 On ch=11 n=50 v=110
13876 On ch=11 n=50 v=0
13920 On ch=11 n=57 v=110
14110 On ch=11 n=57 v=0
14166 On ch=11 n=45 v=110
14356 On ch=11 n=45 v=0
14400 On ch=11 n=50 v=110
14590 On ch=11 n=50 v=0
14646 On ch=11 n=54 v=110
14836 On ch=11 n=54 v=0
14880 On ch=11 n=52 v=110
15070 On ch=11 n=52 v=0
15126 On ch=11 n=50 v=110
15316 On ch=11 n=50 v=0
15360 On ch=11 n=57 v=110
15930 On ch=11 n=57 v=0
16086 On ch=11 n=61 v=110
16276 On ch=11 n=61 v=0
16320 On ch=11 n=62 v=110
16510 On ch=11 n=62 v=0
16566 On ch=11 n=57 v=110
16756 On ch=11 n=57 v=0
17280 On ch=11 n=57 v=110
17850 On ch=11 n=57 v=0
18006 On ch=11 n=61 v=110
18196 On ch=11 n=61 v=0
18240 On ch=11 n=62 v=110
18430 On ch=11 n=62 v=0
18486 On ch=11 n=57 v=110
18676 On ch=11 n=57 v=0
18953 On ch=11 n=61 v=110
19048 On ch=11 n=61 v=0
19083 On ch=11 n=61 v=110
19178 On ch=11 n=61 v=0
19200 On ch=11 n=62 v=110
19390 On ch=11 n=62 v=0
19446 On ch=11 n=57 v=110
19636 On ch=11 n=57 v=0
19913 On ch=11 n=61 v=110
20008 On ch=11 n=61 v=0
20043 On ch=11 n=61 v=110
20138 On ch=11 n=61 v=0
20160 On ch=11 n=62 v=110
20350 On ch=11 n=62 v=0
20406 On ch=11 n=57 v=110
20596 On ch=11 n=57 v=0
20886 On ch=11 n=61 v=110
21076 On ch=11 n=61 v=0
21120 On ch=11 n=62 v=110
21310 On ch=11 n=62 v=0
21366 On ch=11 n=61 v=110
21556 On ch=11 n=61 v=0
21600 On ch=11 n=59 v=110
21980 On ch=11 n=59 v=0
22080 On ch=11 n=57 v=110
22460 On ch=11 n=57 v=0
23040 On ch=11 n=57 v=110
23800 On ch=11 n=57 v=0
24000 On ch=11 n=59 v=110
24380 On ch=11 n=59 v=0
24480 On ch=11 n=61 v=110
24860 On ch=11 n=61 v=0
24960 On ch=11 n=62 v=110
25150 On ch=11 n=62 v=0
25206 On ch=11 n=50 v=110
25396 On ch=11 n=50 v=0
25440 On ch=11 n=62 v=110
26200 On ch=11 n=62 v=0
26400 On ch=11 n=61 v=110
26780 On ch=11 n=61 v=0
26880 On ch=11 n=59 v=110
27640 On ch=11 n=59 v=0
27840 On ch=11 n=57 v=110
28220 On ch=11 n=57 v=0
28553 On ch=11 n=61 v=110
28648 On ch=11 n=61 v=0
28683 On ch=11 n=61 v=110
28778 On ch=11 n=61 v=0
28800 On ch=11 n=62 v=110
28990 On ch=11 n=62 v=0
29046 On ch=11 n=57 v=110
29236 On ch=11 n=57 v=0
29513 On ch=11 n=61 v=110
29608 On ch=11 n=61 v=0
29643 On ch=11 n=61 v=110
29738 On ch=11 n=61 v=0
29760 On ch=11 n=62 v=110
29950 On ch=11 n=62 v=0
30006 On ch=11 n=57 v=110
30196 On ch=11 n=57 v=0
30473 On ch=11 n=61 v=110
30568 On ch=11 n=61 v=0
30603 On ch=11 n=61 v=110
30698 On ch=11 n=61 v=0
30720 On ch=11 n=62 v=110
30910 On ch=11 n=62 v=0
30966 On ch=11 n=57 v=110
31156 On ch=11 n=57 v=0
31433 On ch=11 n=61 v=110
31528 On ch=11 n=61 v=0
31563 On ch=11 n=61 v=110
31658 On ch=11 n=61 v=0
31680 On ch=11 n=62 v=110
31870 On ch=11 n=62 v=0
31926 On ch=11 n=57 v=110
32116 On ch=11 n=57 v=0
32640 On ch=11 n=50 v=110
33400 On ch=11 n=50 v=0
33600 On ch=11 n=52 v=110
33980 On ch=11 n=52 v=0
34080 On ch=11 n=54 v=110
34460 On ch=11 n=54 v=0
34560 On ch=11 n=55 v=110
34750 On ch=11 n=55 v=0
34806 On ch=11 n=43 v=110
34996 On ch=11 n=43 v=0
35040 On ch=11 n=55 v=110
35800 On ch=11 n=55 v=0
36000 On ch=11 n=54 v=110
36380 On ch=11 n=54 v=0
36480 On ch=11 n=52 v=110
37240 On ch=11 n=52 v=0
37440 On ch=11 n=50 v=110
37820 On ch=11 n=50 v=0
38153 On ch=11 n=54 v=110
38248 On ch=11 n=54 v=0
38283 On ch=11 n=54 v=110
38378 On ch=11 n=54 v=0
38400 On ch=11 n=55 v=110
38590 On ch=11 n=55 v=0
38646 On ch=11 n=50 v=110
38836 On ch=11 n=50 v=0
39113 On ch=11 n=54 v=110
39208 On ch=11 n=54 v=0
39243 On ch=11 n=54 v=110
39338 On ch=11 n=54 v=0
39360 On ch=11 n=55 v=110
39550 On ch=11 n=55 v=0
39606 On ch=11 n=50 v=110
39796 On ch=11 n=50 v=0
40073 On ch=11 n=54 v=110
40168 On ch=11 n=54 v=0
40203 On ch=11 n=54 v=110
40298 On ch=11 n=54 v=0
40320 On ch=11 n=55 v=110
40510 On ch=11 n=55 v=0
40566 On ch=11 n=50 v=110
40756 On ch=11 n=50 v=0
41033 On ch=11 n=54 v=110
41128 On ch=11 n=54 v=0
41163 On ch=11 n=54 v=110
41258 On ch=11 n=54 v=0
41280 On ch=11 n=55 v=110
41470 On ch=11 n=55 v=0
41526 On ch=11 n=50 v=110
41716 On ch=11 n=50 v=0
42240 On ch=11 n=74 v=110
42810 On ch=11 n=74 v=0
46793 On ch=11 n=57 v=110
46888 On ch=11 n=57 v=0
46923 On ch=11 n=57 v=110
47018 On ch=11 n=57 v=0
47040 On ch=11 n=54 v=110
47230 On ch=11 n=54 v=0
47286 On ch=11 n=50 v=110
47476 On ch=11 n=50 v=0
47520 On ch=11 n=62 v=110
47710 On ch=11 n=62 v=0
47766 On ch=11 n=50 v=110
47956 On ch=11 n=50 v=0
48000 On ch=11 n=57 v=110
48760 On ch=11 n=57 v=0
48960 On ch=11 n=59 v=110
49340 On ch=11 n=59 v=0
49440 On ch=11 n=61 v=110
49820 On ch=11 n=61 v=0
49920 On ch=11 n=62 v=110
50110 On ch=11 n=62 v=0
50166 On ch=11 n=50 v=110
50356 On ch=11 n=50 v=0
50400 On ch=11 n=62 v=110
51160 On ch=11 n=62 v=0
51360 On ch=11 n=61 v=110
51740 On ch=11 n=61 v=0
51840 On ch=11 n=59 v=110
52600 On ch=11 n=59 v=0
52800 On ch=11 n=57 v=110
53180 On ch=11 n=57 v=0
53513 On ch=11 n=57 v=110
53608 On ch=11 n=57 v=0
53643 On ch=11 n=57 v=110
53738 On ch=11 n=57 v=0
53760 On ch=11 n=54 v=110
53950 On ch=11 n=54 v=0
54006 On ch=11 n=50 v=110
54196 On ch=11 n=50 v=0
54473 On ch=11 n=62 v=110
54568 On ch=11 n=62 v=0
54603 On ch=11 n=62 v=110
54698 On ch=11 n=62 v=0
54720 On ch=11 n=61 v=110
54910 On ch=11 n=61 v=0
54966 On ch=11 n=57 v=110
55156 On ch=11 n=57 v=0
55200 On ch=11 n=61 v=110
55390 On ch=11 n=61 v=0
55446 On ch=11 n=57 v=110
55636 On ch=11 n=57 v=0
55680 On ch=11 n=62 v=110
56250 On ch=11 n=62 v=0
56380 On ch=11 n=62 v=110
56475 On ch=11 n=62 v=0
56523 On ch=11 n=62 v=110
56618 On ch=11 n=62 v=0
56640 On ch=11 n=61 v=110
56830 On ch=11 n=61 v=0
56886 On ch=11 n=57 v=110
57076 On ch=11 n=57 v=0
57353 On ch=11 n=62 v=110
57448 On ch=11 n=62 v=0
57483 On ch=11 n=62 v=110
57578 On ch=11 n=62 v=0
57600 On ch=11 n=59 v=110
57790 On ch=11 n=59 v=0
57846 On ch=11 n=55 v=110
58036 On ch=11 n=55 v=0
58313 On ch=11 n=52 v=110
58408 On ch=11 n=52 v=0
58443 On ch=11 n=52 v=110
58538 On ch=11 n=52 v=0
58560 On ch=11 n=57 v=110
58750 On ch=11 n=57 v=0
58806 On ch=11 n=57 v=110
58996 On ch=11 n=57 v=0
59273 On ch=11 n=59 v=110
59368 On ch=11 n=59 v=0
59403 On ch=11 n=59 v=110
59498 On ch=11 n=59 v=0
59520 On ch=11 n=55 v=110
59710 On ch=11 n=55 v=0
59766 On ch=11 n=52 v=110
59956 On ch=11 n=52 v=0
60000 On ch=11 n=57 v=110
60285 On ch=11 n=57 v=0
60363 On ch=11 n=55 v=110
60458 On ch=11 n=55 v=0
60480 On ch=11 n=54 v=110
60860 On ch=11 n=54 v=0
61193 On ch=11 n=62 v=110
61288 On ch=11 n=62 v=0
61323 On ch=11 n=62 v=110
61418 On ch=11 n=62 v=0
61440 On ch=11 n=59 v=110
61630 On ch=11 n=59 v=0
61686 On ch=11 n=55 v=110
61876 On ch=11 n=55 v=0
61920 On ch=11 n=59 v=110
62110 On ch=11 n=59 v=0
62166 On ch=11 n=61 v=110
62356 On ch=11 n=61 v=0
62400 On ch=11 n=62 v=110
62590 On ch=11 n=62 v=0
62633 On ch=11 n=50 v=110
62728 On ch=11 n=50 v=0
62763 On ch=11 n=50 v=110
62858 On ch=11 n=50 v=0
62880 On ch=11 n=50 v=110
63070 On ch=11 n=50 v=0
63126 On ch=11 n=50 v=110
63316 On ch=11 n=50 v=0
63360 On ch=11 n=47 v=110
63550 On ch=11 n=47 v=0
63593 On ch=11 n=47 v=110
63688 On ch=11 n=47 v=0
63723 On ch=11 n=47 v=110
63818 On ch=11 n=47 v=0
63840 On ch=11 n=43 v=110
64030 On ch=11 n=43 v=0
64086 On ch=11 n=43 v=110
64276 On ch=11 n=43 v=0
64320 On ch=11 n=50 v=110
64700 On ch=11 n=50 v=0
64800 On ch=11 n=50 v=110
65180 On ch=11 n=50 v=0
65280 On ch=11 n=49 v=110
65660 On ch=11 n=49 v=0
65760 On ch=11 n=47 v=110
66140 On ch=11 n=47 v=0
66240 On ch=11 n=45 v=110
66620 On ch=11 n=45 v=0
66720 On ch=11 n=55 v=110
67100 On ch=11 n=55 v=0
67200 On ch=11 n=54 v=110
68340 On ch=11 n=54 v=0
68640 On ch=11 n=50 v=110
69020 On ch=11 n=50 v=0
69120 On ch=11 n=49 v=110
69500 On ch=11 n=49 v=0
69600 On ch=11 n=47 v=110
69980 On ch=11 n=47 v=0
70080 On ch=11 n=45 v=110
70650 On ch=11 n=45 v=0
70793 On ch=11 n=45 v=110
70983 On ch=11 n=45 v=0
71040 On ch=11 n=50 v=110
72180 On ch=11 n=50 v=0
72480 On ch=11 n=62 v=110
72860 On ch=11 n=62 v=0
72960 On ch=11 n=61 v=110
73340 On ch=11 n=61 v=0
73440 On ch=11 n=59 v=110
73820 On ch=11 n=59 v=0
73920 On ch=11 n=57 v=110
74300 On ch=11 n=57 v=0
74400 On ch=11 n=55 v=110
74780 On ch=11 n=55 v=0
74880 On ch=11 n=54 v=110
75450 On ch=11 n=54 v=0
75606 On ch=11 n=52 v=110
75796 On ch=11 n=52 v=0
75840 On ch=11 n=50 v=110
76220 On ch=11 n=50 v=0
76320 On ch=11 n=59 v=110
76700 On ch=11 n=59 v=0
76800 On ch=11 n=57 v=110
77370 On ch=11 n=57 v=0
77526 On ch=11 n=54 v=110
77716 On ch=11 n=54 v=0
77760 On ch=11 n=55 v=110
78140 On ch=11 n=55 v=0
78240 On ch=11 n=52 v=110
78620 On ch=11 n=52 v=0
78720 On ch=11 n=50 v=110
79290 On ch=11 n=50 v=0
79446 On ch=11 n=57 v=110
79636 On ch=11 n=57 v=0
79680 On ch=11 n=62 v=110
80060 On ch=11 n=62 v=0
80160 On ch=11 n=54 v=110
80540 On ch=11 n=54 v=0
80640 On ch=11 n=59 v=110
81020 On ch=11 n=59 v=0
81120 On ch=11 n=50 v=110
81500 On ch=11 n=50 v=0
81600 On ch=11 n=55 v=110
81980 On ch=11 n=55 v=0
82080 On ch=11 n=54 v=110
82270 On ch=11 n=54 v=0
82326 On ch=11 n=52 v=110
82516 On ch=11 n=52 v=0
82560 On ch=11 n=52 v=110
83320 On ch=11 n=52 v=0
83520 On ch=11 n=50 v=110
83900 On ch=11 n=50 v=0
84000 On ch=11 n=62 v=110
84380 On ch=11 n=62 v=0
84480 On ch=11 n=69 v=110
84860 On ch=11 n=69 v=0
84960 On ch=11 n=61 v=110
85150 On ch=11 n=61 v=0
85206 On ch=11 n=57 v=110
85396 On ch=11 n=57 v=0
85440 On ch=11 n=62 v=110
85630 On ch=11 n=62 v=0
85686 On ch=11 n=50 v=110
85876 On ch=11 n=50 v=0
86166 On ch=11 n=54 v=110
86356 On ch=11 n=54 v=0
86400 On ch=11 n=59 v=110
86590 On ch=11 n=59 v=0
86646 On ch=11 n=56 v=110
86836 On ch=11 n=56 v=0
86880 On ch=11 n=57 v=110
87260 On ch=11 n=57 v=0
87606 On ch=11 n=52 v=110
87796 On ch=11 n=52 v=0
87840 On ch=11 n=50 v=110
88030 On ch=11 n=50 v=0
88086 On ch=11 n=52 v=110
88276 On ch=11 n=52 v=0
88320 On ch=11 n=49 v=110
88510 On ch=11 n=49 v=0
88566 On ch=11 n=57 v=110
88756 On ch=11 n=57 v=0
88800 On ch=11 n=55 v=110
88990 On ch=11 n=55 v=0
89046 On ch=11 n=57 v=110
89236 On ch=11 n=57 v=0
89280 On ch=11 n=54 v=110
89660 On ch=11 n=54 v=0
90006 On ch=11 n=54 v=110
90196 On ch=11 n=54 v=0
90240 On ch=11 n=55 v=110
90430 On ch=11 n=55 v=0
90486 On ch=11 n=50 v=110
90676 On ch=11 n=50 v=0
90966 On ch=11 n=59 v=110
91156 On ch=11 n=59 v=0
91200 On ch=11 n=64 v=110
91390 On ch=11 n=64 v=0
91446 On ch=11 n=61 v=110
91636 On ch=11 n=61 v=0
91680 On ch=11 n=62 v=110
91870 On ch=11 n=62 v=0
91926 On ch=11 n=55 v=110
92116 On ch=11 n=55 v=0
92160 On ch=11 n=57 v=110
92350 On ch=11 n=57 v=0
92406 On ch=11 n=45 v=110
92596 On ch=11 n=45 v=0
92886 On ch=11 n=57 v=110
93076 On ch=11 n=57 v=0
93120 On ch=11 n=54 v=110
93310 On ch=11 n=54 v=0
93366 On ch=11 n=50 v=110
93556 On ch=11 n=50 v=0
93846 On ch=11 n=62 v=110
94036 On ch=11 n=62 v=0
94080 On ch=11 n=61 v=110
94270 On ch=11 n=61 v=0
94326 On ch=11 n=57 v=110
94516 On ch=11 n=57 v=0
94793 On ch=11 n=61 v=110
94983 On ch=11 n=61 v=0
95039 On ch=11 n=62 v=110
95229 On ch=11 n=62 v=0
95273 On ch=11 n=50 v=110
95463 On ch=11 n=50 v=0
95753 On ch=11 n=54 v=110
95943 On ch=11 n=54 v=0
96000 On ch=11 n=59 v=110
96190 On ch=11 n=59 v=0
96246 On ch=11 n=56 v=110
96436 On ch=11 n=56 v=0
96480 On ch=11 n=57 v=110
96670 On ch=11 n=57 v=0
96726 On ch=11 n=50 v=110
96916 On ch=11 n=50 v=0
96960 On ch=11 n=52 v=110
97150 On ch=11 n=52 v=0
97206 On ch=11 n=40 v=110
97396 On ch=11 n=40 v=0
97686 On ch=11 n=52 v=110
97876 On ch=11 n=52 v=0
97920 On ch=11 n=49 v=110
98300 On ch=11 n=49 v=0
98400 On ch=11 n=45 v=110
98780 On ch=11 n=45 v=0
100566 On ch=11 n=61 v=110
100756 On ch=11 n=61 v=0
100800 On ch=11 n=62 v=110
100990 On ch=11 n=62 v=0
101046 On ch=11 n=57 v=110
101236 On ch=11 n=57 v=0
101526 On ch=11 n=61 v=110
101716 On ch=11 n=61 v=0
101760 On ch=11 n=62 v=110
101950 On ch=11 n=62 v=0
102006 On ch=11 n=57 v=110
102196 On ch=11 n=57 v=0
102473 On ch=11 n=61 v=110
102568 On ch=11 n=61 v=0
102603 On ch=11 n=61 v=110
102698 On ch=11 n=61 v=0
102720 On ch=11 n=62 v=110
102910 On ch=11 n=62 v=0
102966 On ch=11 n=57 v=110
103156 On ch=11 n=57 v=0
103433 On ch=11 n=61 v=110
103528 On ch=11 n=61 v=0
103563 On ch=11 n=61 v=110
103658 On ch=11 n=61 v=0
103680 On ch=11 n=62 v=110
103870 On ch=11 n=62 v=0
103926 On ch=11 n=57 v=110
104116 On ch=11 n=57 v=0
106326 On ch=11 n=61 v=110
106516 On ch=11 n=61 v=0
106560 On ch=11 n=62 v=110
106750 On ch=11 n=62 v=0
106806 On ch=11 n=57 v=110
106996 On ch=11 n=57 v=0
107286 On ch=11 n=61 v=110
107476 On ch=11 n=61 v=0
107520 On ch=11 n=62 v=110
107710 On ch=11 n=62 v=0
107766 On ch=11 n=57 v=110
107956 On ch=11 n=57 v=0
108233 On ch=11 n=61 v=110
108328 On ch=11 n=61 v=0
108363 On ch=11 n=61 v=110
108458 On ch=11 n=61 v=0
108480 On ch=11 n=62 v=110
108670 On ch=11 n=62 v=0
108726 On ch=11 n=57 v=110
108916 On ch=11 n=57 v=0
109193 On ch=11 n=61 v=110
109288 On ch=11 n=61 v=0
109323 On ch=11 n=61 v=110
109418 On ch=11 n=61 v=0
109440 On ch=11 n=62 v=110
109630 On ch=11 n=62 v=0
109686 On ch=11 n=57 v=110
109876 On ch=11 n=57 v=0
112086 On ch=11 n=54 v=110
112276 On ch=11 n=54 v=0
112320 On ch=11 n=55 v=110
112510 On ch=11 n=55 v=0
112566 On ch=11 n=50 v=110
112756 On ch=11 n=50 v=0
113046 On ch=11 n=54 v=110
113236 On ch=11 n=54 v=0
113280 On ch=11 n=55 v=110
113470 On ch=11 n=55 v=0
113526 On ch=11 n=50 v=110
113716 On ch=11 n=50 v=0
113993 On ch=11 n=54 v=110
114088 On ch=11 n=54 v=0
114123 On ch=11 n=54 v=110
114218 On ch=11 n=54 v=0
114240 On ch=11 n=55 v=110
114430 On ch=11 n=55 v=0
114486 On ch=11 n=50 v=110
114676 On ch=11 n=50 v=0
114953 On ch=11 n=54 v=110
115048 On ch=11 n=54 v=0
115083 On ch=11 n=54 v=110
115178 On ch=11 n=54 v=0
115200 On ch=11 n=55 v=110
115390 On ch=11 n=55 v=0
115446 On ch=11 n=50 v=110
115636 On ch=11 n=50 v=0
117846 On ch=11 n=56 v=110
118036 On ch=11 n=56 v=0
118080 On ch=11 n=57 v=110
118270 On ch=11 n=57 v=0
118326 On ch=11 n=52 v=110
118516 On ch=11 n=52 v=0
118806 On ch=11 n=56 v=110
118996 On ch=11 n=56 v=0
119040 On ch=11 n=57 v=110
119230 On ch=11 n=57 v=0
119286 On ch=11 n=52 v=110
119476 On ch=11 n=52 v=0
119753 On ch=11 n=56 v=110
119848 On ch=11 n=56 v=0
119883 On ch=11 n=56 v=110
119978 On ch=11 n=56 v=0
120000 On ch=11 n=57 v=110
120190 On ch=11 n=57 v=0
120246 On ch=11 n=52 v=110
120436 On ch=11 n=52 v=0
120713 On ch=11 n=56 v=110
120808 On ch=11 n=56 v=0
120843 On ch=11 n=56 v=110
120938 On ch=11 n=56 v=0
120960 On ch=11 n=57 v=110
121150 On ch=11 n=57 v=0
121206 On ch=11 n=52 v=110
121396 On ch=11 n=52 v=0
123606 On ch=11 n=58 v=110
123796 On ch=11 n=58 v=0
123840 On ch=11 n=59 v=110
124030 On ch=11 n=59 v=0
124086 On ch=11 n=54 v=110
124276 On ch=11 n=54 v=0
124566 On ch=11 n=58 v=110
124756 On ch=11 n=58 v=0
124800 On ch=11 n=59 v=110
124990 On ch=11 n=59 v=0
125046 On ch=11 n=54 v=110
125236 On ch=11 n=54 v=0
125513 On ch=11 n=58 v=110
125608 On ch=11 n=58 v=0
125643 On ch=11 n=58 v=110
125738 On ch=11 n=58 v=0
125760 On ch=11 n=59 v=110
125950 On ch=11 n=59 v=0
126006 On ch=11 n=54 v=110
126196 On ch=11 n=54 v=0
126473 On ch=11 n=58 v=110
126568 On ch=11 n=58 v=0
126603 On ch=11 n=58 v=110
126698 On ch=11 n=58 v=0
126720 On ch=11 n=59 v=110
127100 On ch=11 n=59 v=0
127200 On ch=11 n=47 v=110
127580 On ch=11 n=47 v=0
129600 On ch=11 n=59 v=110
129980 On ch=11 n=59 v=0
130080 On ch=11 n=59 v=110
130460 On ch=11 n=59 v=0
130560 On ch=11 n=61 v=110
131130 On ch=11 n=61 v=0
131286 On ch=11 n=61 v=110
131476 On ch=11 n=61 v=0
131520 On ch=11 n=62 v=110
131900 On ch=11 n=62 v=0
132000 On ch=11 n=50 v=110
132380 On ch=11 n=50 v=0
132480 On ch=11 n=57 v=110
133050 On ch=11 n=57 v=0
133206 On ch=11 n=45 v=110
133396 On ch=11 n=45 v=0
133440 On ch=11 n=57 v=110
133820 On ch=11 n=57 v=0
133920 On ch=11 n=49 v=110
134300 On ch=11 n=49 v=0
134400 On ch=11 n=54 v=110
134780 On ch=11 n=54 v=0
134880 On ch=11 n=45 v=110
135260 On ch=11 n=45 v=0
135360 On ch=11 n=50 v=110
135740 On ch=11 n=50 v=0
135840 On ch=11 n=49 v=110
136220 On ch=11 n=49 v=0
136320 On ch=11 n=47 v=110
137080 On ch=11 n=47 v=0
137280 On ch=11 n=45 v=110
137526 On ch=11 n=64 v=110
137660 On ch=11 n=45 v=0
137716 On ch=11 n=64 v=0
137760 On ch=11 n=69 v=110
137950 On ch=11 n=69 v=0
138006 On ch=11 n=67 v=110
138196 On ch=11 n=67 v=0
138240 On ch=11 n=66 v=110
138620 On ch=11 n=66 v=0
139446 On ch=11 n=50 v=110
139636 On ch=11 n=50 v=0
139680 On ch=11 n=55 v=110
139870 On ch=11 n=55 v=0
139926 On ch=11 n=54 v=110
140116 On ch=11 n=54 v=0
140160 On ch=11 n=52 v=110
140540 On ch=11 n=52 v=0
140640 On ch=11 n=54 v=110
140830 On ch=11 n=54 v=0
140886 On ch=11 n=55 v=110
141076 On ch=11 n=55 v=0
141120 On ch=11 n=57 v=110
141500 On ch=11 n=57 v=0
141600 On ch=11 n=55 v=110
141790 On ch=11 n=55 v=0
141846 On ch=11 n=57 v=110
142036 On ch=11 n=57 v=0
142080 On ch=11 n=54 v=110
142460 On ch=11 n=54 v=0
142560 On ch=11 n=50 v=110
142940 On ch=11 n=50 v=0
144726 On ch=11 n=54 v=110
144916 On ch=11 n=54 v=0
144960 On ch=11 n=55 v=110
145150 On ch=11 n=55 v=0
145206 On ch=11 n=50 v=110
145396 On ch=11 n=50 v=0
145686 On ch=11 n=54 v=110
145876 On ch=11 n=54 v=0
145920 On ch=11 n=55 v=110
146110 On ch=11 n=55 v=0
146166 On ch=11 n=50 v=110
146356 On ch=11 n=50 v=0
148553 On ch=11 n=54 v=110
148648 On ch=11 n=54 v=0
148683 On ch=11 n=54 v=110
148778 On ch=11 n=54 v=0
148800 On ch=11 n=55 v=110
148990 On ch=11 n=55 v=0
149046 On ch=11 n=50 v=110
149236 On ch=11 n=50 v=0
149513 On ch=11 n=54 v=110
149608 On ch=11 n=54 v=0
149643 On ch=11 n=54 v=110
149738 On ch=11 n=54 v=0
149760 On ch=11 n=55 v=110
149950 On ch=11 n=55 v=0
150006 On ch=11 n=50 v=110
150196 On ch=11 n=50 v=0
150486 On ch=11 n=50 v=110
150676 On ch=11 n=50 v=0
150720 On ch=11 n=62 v=110
151100 On ch=11 n=62 v=0
151200 On ch=11 n=54 v=110
151580 On ch=11 n=54 v=0
151680 On ch=11 n=59 v=110
152060 On ch=11 n=59 v=0
152160 On ch=11 n=50 v=110
152540 On ch=11 n=50 v=0
152640 On ch=11 n=55 v=110
153020 On ch=11 n=55 v=0
153120 On ch=11 n=54 v=110
153310 On ch=11 n=54 v=0
153366 On ch=11 n=54 v=110
153556 On ch=11 n=54 v=0
153600 On ch=11 n=52 v=110
153980 On ch=11 n=52 v=0
154080 On ch=11 n=50 v=110
154270 On ch=11 n=50 v=0
154326 On ch=11 n=50 v=110
154516 On ch=11 n=50 v=0
154560 On ch=11 n=57 v=110
155320 On ch=11 n=57 v=0
155520 On ch=11 n=50 v=110
155900 On ch=11 n=50 v=0
156480 On ch=11 n=50 v=110
156860 On ch=11 n=50 v=0
156960 On ch=11 n=50 v=110
157340 On ch=11 n=50 v=0
157440 On ch=11 n=62 v=110
157820 On ch=11 n=62 v=0
158166 On ch=11 n=50 v=110
158356 On ch=11 n=50 v=0
158400 On ch=11 n=50 v=110
158780 On ch=11 n=50 v=0
158880 On ch=11 n=50 v=110
159260 On ch=11 n=50 v=0
159360 On ch=11 n=62 v=110
159740 On ch=11 n=62 v=0
160320 On ch=11 n=50 v=110
160700 On ch=11 n=50 v=0
160800 On ch=11 n=50 v=110
161180 On ch=11 n=50 v=0
161280 On ch=11 n=62 v=110
161660 On ch=11 n=62 v=0
162006 On ch=11 n=50 v=110
162196 On ch=11 n=50 v=0
162240 On ch=11 n=50 v=110
162620 On ch=11 n=50 v=0
162720 On ch=11 n=50 v=110
163100 On ch=11 n=50 v=0
163200 On ch=11 n=62 v=110
163580 On ch=11 n=62 v=0
163926 On ch=11 n=50 v=110
164116 On ch=11 n=50 v=0
164160 On ch=11 n=62 v=110
164540 On ch=11 n=62 v=0
164640 On ch=11 n=54 v=110
165020 On ch=11 n=54 v=0
165120 On ch=11 n=59 v=110
165500 On ch=11 n=59 v=0
165600 On ch=11 n=50 v=110
165980 On ch=11 n=50 v=0
166080 On ch=11 n=55 v=110
166460 On ch=11 n=55 v=0
166560 On ch=11 n=54 v=110
166750 On ch=11 n=54 v=0
166806 On ch=11 n=54 v=110
166996 On ch=11 n=54 v=0
167040 On ch=11 n=52 v=110
167420 On ch=11 n=52 v=0
167520 On ch=11 n=50 v=110
167710 On ch=11 n=50 v=0
167766 On ch=11 n=50 v=110
167956 On ch=11 n=50 v=0
168000 On ch=11 n=57 v=110
168760 On ch=11 n=57 v=0
168960 On ch=11 n=50 v=110
169340 On ch=11 n=50 v=0
169686 On ch=11 n=54 v=110
169876 On ch=11 n=54 v=0
169920 On ch=11 n=55 v=110
170110 On ch=11 n=55 v=0
170166 On ch=11 n=50 v=110
170356 On ch=11 n=50 v=0
170646 On ch=11 n=54 v=110
170836 On ch=11 n=54 v=0
170880 On ch=11 n=55 v=110
171070 On ch=11 n=55 v=0
171126 On ch=11 n=50 v=110
171316 On ch=11 n=50 v=0
171606 On ch=11 n=54 v=110
171796 On ch=11 n=54 v=0
171840 On ch=11 n=55 v=110
172030 On ch=11 n=55 v=0
172086 On ch=11 n=50 v=110
172276 On ch=11 n=50 v=0
172566 On ch=11 n=54 v=110
172756 On ch=11 n=54 v=0
172800 On ch=11 n=55 v=110
172990 On ch=11 n=55 v=0
173046 On ch=11 n=50 v=110
173236 On ch=11 n=50 v=0
173513 On ch=11 n=54 v=110
173608 On ch=11 n=54 v=0
173643 On ch=11 n=54 v=110
173738 On ch=11 n=54 v=0
173760 On ch=11 n=55 v=110
173950 On ch=11 n=55 v=0
174006 On ch=11 n=50 v=110
174196 On ch=11 n=50 v=0
174473 On ch=11 n=54 v=110
174568 On ch=11 n=54 v=0
174603 On ch=11 n=54 v=110
174698 On ch=11 n=54 v=0
174720 On ch=11 n=55 v=110
174910 On ch=11 n=55 v=0
174966 On ch=11 n=50 v=110
175156 On ch=11 n=50 v=0
175433 On ch=11 n=54 v=110
175528 On ch=11 n=54 v=0
175563 On ch=11 n=54 v=110
175658 On ch=11 n=54 v=0
175680 On ch=11 n=55 v=110
175870 On ch=11 n=55 v=0
175926 On ch=11 n=50 v=110
176116 On ch=11 n=50 v=0
176393 On ch=11 n=54 v=110
176488 On ch=11 n=54 v=0
176523 On ch=11 n=54 v=110
176618 On ch=11 n=54 v=0
176640 On ch=11 n=55 v=110
176830 On ch=11 n=55 v=0
176886 On ch=11 n=50 v=110
177076 On ch=11 n=50 v=0
178080 On ch=11 n=50 v=110
178460 On ch=11 n=50 v=0
178560 On ch=11 n=43 v=110
179700 On ch=11 n=43 v=0
180000 On ch=11 n=43 v=110
180380 On ch=11 n=43 v=0
180480 On ch=11 n=38 v=110
182001 On ch=11 n=38 v=0
182001 Meta TrkEnd
TrkEnd
MTrk
0 Meta 0x21 00
0 Meta TrkName "Soprano"
0 PrCh ch=12 p=52
0 Par ch=12 c=7 v=127
0 Par ch=12 c=10 v=30
1246 Par ch=12 c=91 v=80
7680 On ch=12 n=74 v=110
8250 On ch=12 n=74 v=0
8406 On ch=12 n=69 v=110
8596 On ch=12 n=69 v=0
8640 On ch=12 n=71 v=110
8830 On ch=12 n=71 v=0
8886 On ch=12 n=69 v=110
9076 On ch=12 n=69 v=0
9600 On ch=12 n=74 v=110
10170 On ch=12 n=74 v=0
10326 On ch=12 n=69 v=110
10516 On ch=12 n=69 v=0
10560 On ch=12 n=71 v=110
10750 On ch=12 n=71 v=0
10806 On ch=12 n=69 v=110
10996 On ch=12 n=69 v=0
11273 On ch=12 n=74 v=110
11368 On ch=12 n=74 v=0
11403 On ch=12 n=74 v=110
11498 On ch=12 n=74 v=0
11520 On ch=12 n=74 v=110
11710 On ch=12 n=74 v=0
11766 On ch=12 n=74 v=110
11956 On ch=12 n=74 v=0
12233 On ch=12 n=74 v=110
12328 On ch=12 n=74 v=0
12363 On ch=12 n=74 v=110
12458 On ch=12 n=74 v=0
12480 On ch=12 n=74 v=110
12670 On ch=12 n=74 v=0
12726 On ch=12 n=74 v=110
12916 On ch=12 n=74 v=0
13206 On ch=12 n=74 v=110
13396 On ch=12 n=74 v=0
13440 On ch=12 n=73 v=110
13630 On ch=12 n=73 v=0
13686 On ch=12 n=74 v=110
14066 On ch=12 n=74 v=0
14166 On ch=12 n=73 v=110
14356 On ch=12 n=73 v=0
14400 On ch=12 n=74 v=110
14780 On ch=12 n=74 v=0
15360 On ch=12 n=76 v=110
15930 On ch=12 n=76 v=0
16086 On ch=12 n=69 v=110
16276 On ch=12 n=69 v=0
16320 On ch=12 n=78 v=110
16510 On ch=12 n=78 v=0
16566 On ch=12 n=76 v=110
16756 On ch=12 n=76 v=0
17280 On ch=12 n=76 v=110
17850 On ch=12 n=76 v=0
18006 On ch=12 n=69 v=110
18196 On ch=12 n=69 v=0
18240 On ch=12 n=78 v=110
18430 On ch=12 n=78 v=0
18486 On ch=12 n=76 v=110
18676 On ch=12 n=76 v=0
18953 On ch=12 n=76 v=110
19048 On ch=12 n=76 v=0
19083 On ch=12 n=76 v=110
19178 On ch=12 n=76 v=0
19200 On ch=12 n=78 v=110
19390 On ch=12 n=78 v=0
19446 On ch=12 n=76 v=110
19636 On ch=12 n=76 v=0
19913 On ch=12 n=76 v=110
20008 On ch=12 n=76 v=0
20043 On ch=12 n=76 v=110
20138 On ch=12 n=76 v=0
20160 On ch=12 n=78 v=110
20350 On ch=12 n=78 v=0
20406 On ch=12 n=76 v=110
20596 On ch=12 n=76 v=0
20886 On ch=12 n=76 v=110
21076 On ch=12 n=76 v=0
21120 On ch=12 n=78 v=110
21310 On ch=12 n=78 v=0
21366 On ch=12 n=76 v=110
21556 On ch=12 n=76 v=0
21600 On ch=12 n=74 v=110
21980 On ch=12 n=74 v=0
22080 On ch=12 n=73 v=110
22460 On ch=12 n=73 v=0
23040 On ch=12 n=69 v=110
23800 On ch=12 n=69 v=0
24000 On ch=12 n=71 v=110
24380 On ch=12 n=71 v=0
24480 On ch=12 n=73 v=110
24860 On ch=12 n=73 v=0
24960 On ch=12 n=74 v=110
25150 On ch=12 n=74 v=0
25206 On ch=12 n=62 v=110
25396 On ch=12 n=62 v=0
25440 On ch=12 n=74 v=110
26010 On ch=12 n=74 v=0
26166 On ch=12 n=74 v=110
26356 On ch=12 n=74 v=0
26400 On ch=12 n=73 v=110
26780 On ch=12 n=73 v=0
26880 On ch=12 n=71 v=110
27640 On ch=12 n=71 v=0
27840 On ch=12 n=69 v=110
28220 On ch=12 n=69 v=0
28553 On ch=12 n=76 v=110
28648 On ch=12 n=76 v=0
28683 On ch=12 n=76 v=110
28778 On ch=12 n=76 v=0
28800 On ch=12 n=74 v=110
28990 On ch=12 n=74 v=0
29046 On ch=12 n=73 v=110
29236 On ch=12 n=73 v=0
29513 On ch=12 n=76 v=110
29608 On ch=12 n=76 v=0
29643 On ch=12 n=76 v=110
29738 On ch=12 n=76 v=0
29760 On ch=12 n=74 v=110
29950 On ch=12 n=74 v=0
30006 On ch=12 n=73 v=110
30196 On ch=12 n=73 v=0
30473 On ch=12 n=76 v=110
30568 On ch=12 n=76 v=0
30603 On ch=12 n=76 v=110
30698 On ch=12 n=76 v=0
30720 On ch=12 n=78 v=110
30910 On ch=12 n=78 v=0
30953 On ch=12 n=76 v=110
31143 On ch=12 n=76 v=0
31433 On ch=12 n=76 v=110
31528 On ch=12 n=76 v=0
31563 On ch=12 n=76 v=110
31658 On ch=12 n=76 v=0
31680 On ch=12 n=78 v=110
31870 On ch=12 n=78 v=0
31926 On ch=12 n=76 v=110
32116 On ch=12 n=76 v=0
38153 On ch=12 n=74 v=110
38248 On ch=12 n=74 v=0
38283 On ch=12 n=74 v=110
38378 On ch=12 n=74 v=0
38400 On ch=12 n=74 v=110
38590 On ch=12 n=74 v=0
38646 On ch=12 n=74 v=110
38836 On ch=12 n=74 v=0
39100 On ch=12 n=74 v=110
39195 On ch=12 n=74 v=0
39243 On ch=12 n=74 v=110
39338 On ch=12 n=74 v=0
39360 On ch=12 n=74 v=110
39550 On ch=12 n=74 v=0
39606 On ch=12 n=74 v=110
39796 On ch=12 n=74 v=0
40073 On ch=12 n=74 v=110
40168 On ch=12 n=74 v=0
40203 On ch=12 n=74 v=110
40298 On ch=12 n=74 v=0
40320 On ch=12 n=74 v=110
40510 On ch=12 n=74 v=0
40566 On ch=12 n=74 v=110
40756 On ch=12 n=74 v=0
41020 On ch=12 n=74 v=110
41115 On ch=12 n=74 v=0
41163 On ch=12 n=74 v=110
41258 On ch=12 n=74 v=0
41280 On ch=12 n=74 v=110
41470 On ch=12 n=74 v=0
41526 On ch=12 n=74 v=110
41716 On ch=12 n=74 v=0
42240 On ch=12 n=74 v=110
43000 On ch=12 n=74 v=0
43200 On ch=12 n=76 v=110
43580 On ch=12 n=76 v=0
43680 On ch=12 n=78 v=110
44060 On ch=12 n=78 v=0
44160 On ch=12 n=79 v=110
44350 On ch=12 n=79 v=0
44406 On ch=12 n=67 v=110
44596 On ch=12 n=67 v=0
44640 On ch=12 n=79 v=110
45210 On ch=12 n=79 v=0
45366 On ch=12 n=79 v=110
45556 On ch=12 n=79 v=0
45600 On ch=12 n=78 v=110
45980 On ch=12 n=78 v=0
46080 On ch=12 n=76 v=110
46840 On ch=12 n=76 v=0
47040 On ch=12 n=74 v=110
47420 On ch=12 n=74 v=0
47753 On ch=12 n=74 v=110
47848 On ch=12 n=74 v=0
47883 On ch=12 n=74 v=110
47978 On ch=12 n=74 v=0
48000 On ch=12 n=73 v=110
48190 On ch=12 n=73 v=0
48246 On ch=12 n=69 v=110
48436 On ch=12 n=69 v=0
48713 On ch=12 n=73 v=110
48808 On ch=12 n=73 v=0
48843 On ch=12 n=73 v=110
48938 On ch=12 n=73 v=0
48960 On ch=12 n=74 v=110
49150 On ch=12 n=74 v=0
49193 On ch=12 n=74 v=110
49288 On ch=12 n=74 v=0
49323 On ch=12 n=74 v=110
49418 On ch=12 n=74 v=0
49440 On ch=12 n=76 v=110
49630 On ch=12 n=76 v=0
49686 On ch=12 n=76 v=110
49876 On ch=12 n=76 v=0
49920 On ch=12 n=69 v=110
50300 On ch=12 n=69 v=0
50633 On ch=12 n=74 v=110
50728 On ch=12 n=74 v=0
50763 On ch=12 n=73 v=110
50858 On ch=12 n=73 v=0
50880 On ch=12 n=71 v=110
51070 On ch=12 n=71 v=0
51126 On ch=12 n=71 v=110
51316 On ch=12 n=71 v=0
51606 On ch=12 n=76 v=110
51796 On ch=12 n=76 v=0
51840 On ch=12 n=74 v=110
52030 On ch=12 n=74 v=0
52086 On ch=12 n=73 v=110
52276 On ch=12 n=73 v=0
52320 On ch=12 n=74 v=110
52510 On ch=12 n=74 v=0
52553 On ch=12 n=76 v=110
52648 On ch=12 n=76 v=0
52683 On ch=12 n=74 v=110
52778 On ch=12 n=74 v=0
52800 On ch=12 n=73 v=110
52990 On ch=12 n=73 v=0
53033 On ch=12 n=73 v=110
53128 On ch=12 n=73 v=0
53163 On ch=12 n=73 v=110
53258 On ch=12 n=73 v=0
53280 On ch=12 n=76 v=110
53470 On ch=12 n=76 v=0
53526 On ch=12 n=73 v=110
53716 On ch=12 n=73 v=0
53993 On ch=12 n=69 v=110
54088 On ch=12 n=69 v=0
54123 On ch=12 n=69 v=110
54218 On ch=12 n=69 v=0
54240 On ch=12 n=74 v=110
54430 On ch=12 n=74 v=0
54486 On ch=12 n=69 v=110
54676 On ch=12 n=69 v=0
54953 On ch=12 n=73 v=110
55048 On ch=12 n=73 v=0
55083 On ch=12 n=73 v=110
55178 On ch=12 n=73 v=0
55200 On ch=12 n=76 v=110
55390 On ch=12 n=76 v=0
55446 On ch=12 n=73 v=110
55636 On ch=12 n=73 v=0
55913 On ch=12 n=69 v=110
56008 On ch=12 n=69 v=0
56043 On ch=12 n=69 v=110
56138 On ch=12 n=69 v=0
56160 On ch=12 n=78 v=110
56350 On ch=12 n=78 v=0
56406 On ch=12 n=74 v=110
56596 On ch=12 n=74 v=0
56873 On ch=12 n=73 v=110
56968 On ch=12 n=73 v=0
57003 On ch=12 n=73 v=110
57098 On ch=12 n=73 v=0
57120 On ch=12 n=74 v=110
57310 On ch=12 n=74 v=0
57366 On ch=12 n=69 v=110
57556 On ch=12 n=69 v=0
57833 On ch=12 n=71 v=110
57928 On ch=12 n=71 v=0
57963 On ch=12 n=71 v=110
58058 On ch=12 n=71 v=0
58080 On ch=12 n=76 v=110
58270 On ch=12 n=76 v=0
58326 On ch=12 n=76 v=110
58516 On ch=12 n=76 v=0
58793 On ch=12 n=73 v=110
58888 On ch=12 n=73 v=0
58923 On ch=12 n=73 v=110
59018 On ch=12 n=73 v=0
59040 On ch=12 n=74 v=110
59230 On ch=12 n=74 v=0
59273 On ch=12 n=74 v=110
59368 On ch=12 n=74 v=0
59403 On ch=12 n=74 v=110
59498 On ch=12 n=74 v=0
59520 On ch=12 n=74 v=110
59900 On ch=12 n=74 v=0
60000 On ch=12 n=73 v=110
60380 On ch=12 n=73 v=0
60480 On ch=12 n=74 v=110
60860 On ch=12 n=74 v=0
60960 On ch=12 n=74 v=110
61340 On ch=12 n=74 v=0
61440 On ch=12 n=74 v=110
61820 On ch=12 n=74 v=0
61920 On ch=12 n=74 v=110
62300 On ch=12 n=74 v=0
62400 On ch=12 n=74 v=110
63160 On ch=12 n=74 v=0
64800 On ch=12 n=69 v=110
65180 On ch=12 n=69 v=0
65280 On ch=12 n=69 v=110
65660 On ch=12 n=69 v=0
65760 On ch=12 n=67 v=110
66140 On ch=12 n=67 v=0
66240 On ch=12 n=66 v=110
66620 On ch=12 n=66 v=0
66720 On ch=12 n=64 v=110
67005 On ch=12 n=64 v=0
67083 On ch=12 n=62 v=110
67178 On ch=12 n=62 v=0
67200 On ch=12 n=62 v=110
68721 On ch=12 n=62 v=0
70080 On ch=12 n=66 v=110
70460 On ch=12 n=66 v=0
70560 On ch=12 n=64 v=110
70845 On ch=12 n=64 v=0
70923 On ch=12 n=62 v=110
71018 On ch=12 n=62 v=0
71040 On ch=12 n=62 v=110
72180 On ch=12 n=62 v=0
72480 On ch=12 n=78 v=110
72860 On ch=12 n=78 v=0
72960 On ch=12 n=76 v=110
73340 On ch=12 n=76 v=0
73440 On ch=12 n=74 v=110
73820 On ch=12 n=74 v=0
73920 On ch=12 n=74 v=110
74300 On ch=12 n=74 v=0
74400 On ch=12 n=73 v=110
74780 On ch=12 n=73 v=0
74880 On ch=12 n=74 v=110
75450 On ch=12 n=74 v=0
75606 On ch=12 n=73 v=110
75796 On ch=12 n=73 v=0
75840 On ch=12 n=74 v=110
76220 On ch=12 n=74 v=0
76320 On ch=12 n=74 v=110
76700 On ch=12 n=74 v=0
76800 On ch=12 n=73 v=110
77370 On ch=12 n=73 v=0
77513 On ch=12 n=69 v=110
77703 On ch=12 n=69 v=0
77760 On ch=12 n=71 v=110
78140 On ch=12 n=71 v=0
78240 On ch=12 n=73 v=110
78620 On ch=12 n=73 v=0
78720 On ch=12 n=74 v=110
79480 On ch=12 n=74 v=0
93600 On ch=12 n=74 v=110
93980 On ch=12 n=74 v=0
94080 On ch=12 n=81 v=110
94460 On ch=12 n=81 v=0
94560 On ch=12 n=73 v=110
94940 On ch=12 n=73 v=0
95040 On ch=12 n=78 v=110
95420 On ch=12 n=78 v=0
95520 On ch=12 n=69 v=110
95900 On ch=12 n=69 v=0
96000 On ch=12 n=74 v=110
96380 On ch=12 n=74 v=0
96480 On ch=12 n=73 v=110
96670 On ch=12 n=73 v=0
96726 On ch=12 n=71 v=110
96916 On ch=12 n=71 v=0
96960 On ch=12 n=73 v=110
97340 On ch=12 n=73 v=0
97440 On ch=12 n=71 v=110
97725 On ch=12 n=71 v=0
97803 On ch=12 n=69 v=110
97898 On ch=12 n=69 v=0
97920 On ch=12 n=69 v=110
98680 On ch=12 n=69 v=0
98880 On ch=12 n=69 v=110
99260 On ch=12 n=69 v=0
99360 On ch=12 n=69 v=110
99740 On ch=12 n=69 v=0
99840 On ch=12 n=69 v=110
103256 On ch=12 n=69 v=0
104160 On ch=12 n=69 v=110
104540 On ch=12 n=69 v=0
104640 On ch=12 n=69 v=110
105020 On ch=12 n=69 v=0
105120 On ch=12 n=69 v=110
105500 On ch=12 n=69 v=0
105600 On ch=12 n=69 v=110
109016 On ch=12 n=69 v=0
110400 On ch=12 n=74 v=110
110780 On ch=12 n=74 v=0
110880 On ch=12 n=74 v=110
111260 On ch=12 n=74 v=0
111360 On ch=12 n=74 v=110
115534 On ch=12 n=74 v=0
115680 On ch=12 n=74 v=110
116060 On ch=12 n=74 v=0
116160 On ch=12 n=76 v=110
116540 On ch=12 n=76 v=0
116640 On ch=12 n=76 v=110
117020 On ch=12 n=76 v=0
117120 On ch=12 n=76 v=110
121679 On ch=12 n=76 v=0
121920 On ch=12 n=78 v=110
122300 On ch=12 n=78 v=0
122400 On ch=12 n=78 v=110
122780 On ch=12 n=78 v=0
122880 On ch=12 n=78 v=110
127246 On ch=12 n=78 v=0
127433 On ch=12 n=78 v=110
127623 On ch=12 n=78 v=0
127680 On ch=12 n=79 v=110
128060 On ch=12 n=79 v=0
128160 On ch=12 n=79 v=110
128540 On ch=12 n=79 v=0
128640 On ch=12 n=79 v=110
131105 On ch=12 n=79 v=0
131286 On ch=12 n=79 v=110
131476 On ch=12 n=79 v=0
131520 On ch=12 n=78 v=110
131710 On ch=12 n=78 v=0
131766 On ch=12 n=76 v=110
131956 On ch=12 n=76 v=0
132000 On ch=12 n=78 v=110
132190 On ch=12 n=78 v=0
132246 On ch=12 n=79 v=110
132436 On ch=12 n=79 v=0
132480 On ch=12 n=76 v=110
133240 On ch=12 n=76 v=0
133686 On ch=12 n=73 v=110
133876 On ch=12 n=73 v=0
133920 On ch=12 n=74 v=110
134110 On ch=12 n=74 v=0
134166 On ch=12 n=76 v=110
134356 On ch=12 n=76 v=0
134400 On ch=12 n=69 v=110
134780 On ch=12 n=69 v=0
137760 On ch=12 n=69 v=110
138140 On ch=12 n=69 v=0
138240 On ch=12 n=74 v=110
138620 On ch=12 n=74 v=0
138720 On ch=12 n=66 v=110
139100 On ch=12 n=66 v=0
139200 On ch=12 n=71 v=110
139580 On ch=12 n=71 v=0
139680 On ch=12 n=62 v=110
140060 On ch=12 n=62 v=0
140160 On ch=12 n=67 v=110
140540 On ch=12 n=67 v=0
140640 On ch=12 n=66 v=110
140830 On ch=12 n=66 v=0
140886 On ch=12 n=64 v=110
141076 On ch=12 n=64 v=0
141120 On ch=12 n=66 v=110
141500 On ch=12 n=66 v=0
141600 On ch=12 n=64 v=110
141885 On ch=12 n=64 v=0
141963 On ch=12 n=62 v=110
142058 On ch=12 n=62 v=0
142080 On ch=12 n=62 v=110
142840 On ch=12 n=62 v=0
144726 On ch=12 n=74 v=110
144916 On ch=12 n=74 v=0
144960 On ch=12 n=79 v=110
145150 On ch=12 n=79 v=0
145206 On ch=12 n=78 v=110
145396 On ch=12 n=78 v=0
145686 On ch=12 n=74 v=110
145876 On ch=12 n=74 v=0
145920 On ch=12 n=79 v=110
146110 On ch=12 n=79 v=0
146166 On ch=12 n=78 v=110
146356 On ch=12 n=78 v=0
148553 On ch=12 n=74 v=110
148648 On ch=12 n=74 v=0
148683 On ch=12 n=74 v=110
148778 On ch=12 n=74 v=0
148800 On ch=12 n=79 v=110
148990 On ch=12 n=79 v=0
149046 On ch=12 n=78 v=110
149236 On ch=12 n=78 v=0
149513 On ch=12 n=74 v=110
149608 On ch=12 n=74 v=0
149643 On ch=12 n=74 v=110
149738 On ch=12 n=74 v=0
149760 On ch=12 n=79 v=110
149950 On ch=12 n=79 v=0
149993 On ch=12 n=78 v=110
150183 On ch=12 n=78 v=0
150486 On ch=12 n=69 v=110
150676 On ch=12 n=69 v=0
150720 On ch=12 n=69 v=110
151100 On ch=12 n=69 v=0
151200 On ch=12 n=74 v=110
151580 On ch=12 n=74 v=0
151680 On ch=12 n=78 v=110
152060 On ch=12 n=78 v=0
152160 On ch=12 n=74 v=110
152540 On ch=12 n=74 v=0
152640 On ch=12 n=74 v=110
153020 On ch=12 n=74 v=0
153120 On ch=12 n=69 v=110
153310 On ch=12 n=69 v=0
153366 On ch=12 n=69 v=110
153556 On ch=12 n=69 v=0
153600 On ch=12 n=73 v=110
153980 On ch=12 n=73 v=0
154080 On ch=12 n=74 v=110
154270 On ch=12 n=74 v=0
154326 On ch=12 n=74 v=110
154516 On ch=12 n=74 v=0
154560 On ch=12 n=74 v=110
154940 On ch=12 n=74 v=0
155040 On ch=12 n=73 v=110
155420 On ch=12 n=73 v=0
155520 On ch=12 n=74 v=110
155900 On ch=12 n=74 v=0
156480 On ch=12 n=69 v=110
156860 On ch=12 n=69 v=0
156960 On ch=12 n=69 v=110
157340 On ch=12 n=69 v=0
157440 On ch=12 n=74 v=110
157820 On ch=12 n=74 v=0
158166 On ch=12 n=69 v=110
158356 On ch=12 n=69 v=0
158400 On ch=12 n=69 v=110
158780 On ch=12 n=69 v=0
158880 On ch=12 n=69 v=110
159260 On ch=12 n=69 v=0
159360 On ch=12 n=74 v=110
159740 On ch=12 n=74 v=0
160320 On ch=12 n=69 v=110
160700 On ch=12 n=69 v=0
160800 On ch=12 n=69 v=110
161180 On ch=12 n=69 v=0
161280 On ch=12 n=74 v=110
161660 On ch=12 n=74 v=0
162006 On ch=12 n=69 v=110
162196 On ch=12 n=69 v=0
162240 On ch=12 n=69 v=110
162620 On ch=12 n=69 v=0
162720 On ch=12 n=69 v=110
163100 On ch=12 n=69 v=0
163200 On ch=12 n=74 v=110
163580 On ch=12 n=74 v=0
164640 On ch=12 n=69 v=110
165020 On ch=12 n=69 v=0
165120 On ch=12 n=74 v=110
165500 On ch=12 n=74 v=0
165600 On ch=12 n=78 v=110
165980 On ch=12 n=78 v=0
166080 On ch=12 n=71 v=110
166460 On ch=12 n=71 v=0
166560 On ch=12 n=74 v=110
166940 On ch=12 n=74 v=0
167040 On ch=12 n=79 v=110
167420 On ch=12 n=79 v=0
167520 On ch=12 n=78 v=110
167710 On ch=12 n=78 v=0
167766 On ch=12 n=76 v=110
167956 On ch=12 n=76 v=0
168000 On ch=12 n=76 v=110
168760 On ch=12 n=76 v=0
168960 On ch=12 n=74 v=110
169340 On ch=12 n=74 v=0
169920 On ch=12 n=74 v=110
170300 On ch=12 n=74 v=0
170400 On ch=12 n=74 v=110
170780 On ch=12 n=74 v=0
170880 On ch=12 n=74 v=110
171260 On ch=12 n=74 v=0
171606 On ch=12 n=74 v=110
171796 On ch=12 n=74 v=0
171840 On ch=12 n=74 v=110
172220 On ch=12 n=74 v=0
172320 On ch=12 n=74 v=110
172700 On ch=12 n=74 v=0
172800 On ch=12 n=74 v=110
173180 On ch=12 n=74 v=0
173513 On ch=12 n=74 v=110
173590 On ch=12 n=74 v=0
173643 On ch=12 n=74 v=110
173720 On ch=12 n=74 v=0
173760 On ch=12 n=74 v=110
173926 On ch=12 n=74 v=0
174006 On ch=12 n=74 v=110
174173 On ch=12 n=74 v=0
174473 On ch=12 n=74 v=110
174568 On ch=12 n=74 v=0
174603 On ch=12 n=74 v=110
174698 On ch=12 n=74 v=0
174720 On ch=12 n=74 v=110
174910 On ch=12 n=74 v=0
174966 On ch=12 n=74 v=110
175156 On ch=12 n=74 v=0
175433 On ch=12 n=74 v=110
175528 On ch=12 n=74 v=0
175563 On ch=12 n=74 v=110
175658 On ch=12 n=74 v=0
175680 On ch=12 n=74 v=110
175870 On ch=12 n=74 v=0
175926 On ch=12 n=74 v=110
176116 On ch=12 n=74 v=0
176393 On ch=12 n=74 v=110
176488 On ch=12 n=74 v=0
176523 On ch=12 n=74 v=110
176618 On ch=12 n=74 v=0
176640 On ch=12 n=74 v=110
176830 On ch=12 n=74 v=0
176886 On ch=12 n=74 v=110
177076 On ch=12 n=74 v=0
178080 On ch=12 n=74 v=110
178460 On ch=12 n=74 v=0
178560 On ch=12 n=74 v=110
179700 On ch=12 n=74 v=0
180000 On ch=12 n=74 v=110
180380 On ch=12 n=74 v=0
180480 On ch=12 n=74 v=110
182001 On ch=12 n=74 v=0
182001 Meta TrkEnd
TrkEnd
MTrk
0 Meta 0x21 00
0 Meta TrkName "Alto"
0 PrCh ch=13 p=52
0 Par ch=13 c=7 v=127
0 Par ch=13 c=10 v=50
1277 Par ch=13 c=91 v=80
7680 On ch=13 n=69 v=110
8244 On ch=13 n=69 v=0
8380 On ch=13 n=69 v=110
8570 On ch=13 n=69 v=0
8640 On ch=13 n=67 v=110
8830 On ch=13 n=67 v=0
8899 On ch=13 n=66 v=110
9089 On ch=13 n=66 v=0
9600 On ch=13 n=69 v=110
10164 On ch=13 n=69 v=0
10300 On ch=13 n=69 v=110
10490 On ch=13 n=69 v=0
10560 On ch=13 n=67 v=110
10750 On ch=13 n=67 v=0
10819 On ch=13 n=66 v=110
11009 On ch=13 n=66 v=0
11247 On ch=13 n=69 v=110
11342 On ch=13 n=69 v=0
11403 On ch=13 n=69 v=110
11498 On ch=13 n=69 v=0
11520 On ch=13 n=71 v=110
11710 On ch=13 n=71 v=0
11792 On ch=13 n=69 v=110
11982 On ch=13 n=69 v=0
12220 On ch=13 n=69 v=110
12315 On ch=13 n=69 v=0
12363 On ch=13 n=69 v=110
12458 On ch=13 n=69 v=0
12480 On ch=13 n=71 v=110
12670 On ch=13 n=71 v=0
12739 On ch=13 n=69 v=110
12929 On ch=13 n=69 v=0
13167 On ch=13 n=69 v=110
13357 On ch=13 n=69 v=0
13427 On ch=13 n=67 v=110
13617 On ch=13 n=67 v=0
13673 On ch=13 n=66 v=110
13863 On ch=13 n=66 v=0
13920 On ch=13 n=64 v=110
14110 On ch=13 n=64 v=0
14166 On ch=13 n=64 v=110
14356 On ch=13 n=64 v=0
14412 On ch=13 n=66 v=110
14792 On ch=13 n=66 v=0
15360 On ch=13 n=69 v=110
15930 On ch=13 n=69 v=0
16099 On ch=13 n=69 v=110
16289 On ch=13 n=69 v=0
16320 On ch=13 n=69 v=110
16510 On ch=13 n=69 v=0
16579 On ch=13 n=69 v=110
16769 On ch=13 n=69 v=0
17280 On ch=13 n=69 v=110
17850 On ch=13 n=69 v=0
18019 On ch=13 n=69 v=110
18209 On ch=13 n=69 v=0
18253 On ch=13 n=69 v=110
18443 On ch=13 n=69 v=0
18512 On ch=13 n=69 v=110
18702 On ch=13 n=69 v=0
18927 On ch=13 n=69 v=110
19022 On ch=13 n=69 v=0
19057 On ch=13 n=69 v=110
19152 On ch=13 n=69 v=0
19200 On ch=13 n=69 v=110
19390 On ch=13 n=69 v=0
19472 On ch=13 n=69 v=110
19662 On ch=13 n=69 v=0
19926 On ch=13 n=69 v=110
20021 On ch=13 n=69 v=0
20056 On ch=13 n=69 v=110
20151 On ch=13 n=69 v=0
20199 On ch=13 n=69 v=110
20389 On ch=13 n=69 v=0
20471 On ch=13 n=69 v=110
20661 On ch=13 n=69 v=0
20886 On ch=13 n=69 v=110
21076 On ch=13 n=69 v=0
21120 On ch=13 n=69 v=110
21690 On ch=13 n=69 v=0
21833 On ch=13 n=68 v=110
22023 On ch=13 n=68 v=0
22080 On ch=13 n=69 v=110
22460 On ch=13 n=69 v=0
23040 On ch=13 n=69 v=110
23800 On ch=13 n=69 v=0
24000 On ch=13 n=59 v=110
24380 On ch=13 n=59 v=0
24480 On ch=13 n=61 v=110
24860 On ch=13 n=61 v=0
24960 On ch=13 n=62 v=110
25150 On ch=13 n=62 v=0
25219 On ch=13 n=62 v=110
25409 On ch=13 n=62 v=0
25440 On ch=13 n=62 v=110
26004 On ch=13 n=62 v=0
26166 On ch=13 n=62 v=110
26356 On ch=13 n=62 v=0
26412 On ch=13 n=61 v=110
26792 On ch=13 n=61 v=0
26880 On ch=13 n=59 v=110
27640 On ch=13 n=59 v=0
27840 On ch=13 n=57 v=110
28220 On ch=13 n=57 v=0
28514 On ch=13 n=69 v=110
28609 On ch=13 n=69 v=0
28657 On ch=13 n=69 v=110
28752 On ch=13 n=69 v=0
28800 On ch=13 n=69 v=110
28990 On ch=13 n=69 v=0
29072 On ch=13 n=69 v=110
29262 On ch=13 n=69 v=0
29487 On ch=13 n=69 v=110
29582 On ch=13 n=69 v=0
29630 On ch=13 n=69 v=110
29725 On ch=13 n=69 v=0
29772 On ch=13 n=69 v=110
29962 On ch=13 n=69 v=0
30032 On ch=13 n=69 v=110
30222 On ch=13 n=69 v=0
30447 On ch=13 n=69 v=110
30542 On ch=13 n=69 v=0
30590 On ch=13 n=69 v=110
30685 On ch=13 n=69 v=0
30732 On ch=13 n=69 v=110
30922 On ch=13 n=69 v=0
30979 On ch=13 n=69 v=110
31169 On ch=13 n=69 v=0
31459 On ch=13 n=69 v=110
31554 On ch=13 n=69 v=0
31602 On ch=13 n=69 v=110
31697 On ch=13 n=69 v=0
31731 On ch=13 n=69 v=110
31921 On ch=13 n=69 v=0
31978 On ch=13 n=69 v=110
32168 On ch=13 n=69 v=0
32640 On ch=13 n=62 v=110
33400 On ch=13 n=62 v=0
33600 On ch=13 n=64 v=110
33980 On ch=13 n=64 v=0
34080 On ch=13 n=66 v=110
34460 On ch=13 n=66 v=0
34560 On ch=13 n=67 v=110
34750 On ch=13 n=67 v=0
34819 On ch=13 n=55 v=110
35009 On ch=13 n=55 v=0
35040 On ch=13 n=67 v=110
35591 On ch=13 n=67 v=0
35766 On ch=13 n=67 v=110
35956 On ch=13 n=67 v=0
36012 On ch=13 n=66 v=110
36392 On ch=13 n=66 v=0
36480 On ch=13 n=64 v=110
37240 On ch=13 n=64 v=0
37440 On ch=13 n=62 v=110
37820 On ch=13 n=62 v=0
38127 On ch=13 n=69 v=110
38222 On ch=13 n=69 v=0
38270 On ch=13 n=69 v=110
38365 On ch=13 n=69 v=0
38413 On ch=13 n=71 v=110
38603 On ch=13 n=71 v=0
38685 On ch=13 n=69 v=110
38875 On ch=13 n=69 v=0
39100 On ch=13 n=69 v=110
39195 On ch=13 n=69 v=0
39243 On ch=13 n=69 v=110
39338 On ch=13 n=69 v=0
39385 On ch=13 n=71 v=110
39575 On ch=13 n=71 v=0
39645 On ch=13 n=69 v=110
39835 On ch=13 n=69 v=0
40060 On ch=13 n=69 v=110
40155 On ch=13 n=69 v=0
40203 On ch=13 n=69 v=110
40298 On ch=13 n=69 v=0
40345 On ch=13 n=71 v=110
40535 On ch=13 n=71 v=0
40592 On ch=13 n=69 v=110
40782 On ch=13 n=69 v=0
41059 On ch=13 n=69 v=110
41154 On ch=13 n=69 v=0
41215 On ch=13 n=69 v=110
41310 On ch=13 n=69 v=0
41344 On ch=13 n=71 v=110
41534 On ch=13 n=71 v=0
41591 On ch=13 n=69 v=110
41781 On ch=13 n=69 v=0
45833 On ch=13 n=69 v=110
45928 On ch=13 n=69 v=0
45963 On ch=13 n=69 v=110
46058 On ch=13 n=69 v=0
46080 On ch=13 n=67 v=110
46270 On ch=13 n=67 v=0
46313 On ch=13 n=64 v=110
46408 On ch=13 n=64 v=0
46443 On ch=13 n=64 v=110
46538 On ch=13 n=64 v=0
46560 On ch=13 n=69 v=110
46750 On ch=13 n=69 v=0
46806 On ch=13 n=69 v=110
46996 On ch=13 n=69 v=0
47040 On ch=13 n=69 v=110
47230 On ch=13 n=69 v=0
47273 On ch=13 n=69 v=110
47368 On ch=13 n=69 v=0
47403 On ch=13 n=69 v=110
47498 On ch=13 n=69 v=0
47545 On ch=13 n=66 v=110
47735 On ch=13 n=66 v=0
47766 On ch=13 n=62 v=110
47956 On ch=13 n=62 v=0
48233 On ch=13 n=64 v=110
48328 On ch=13 n=64 v=0
48363 On ch=13 n=64 v=110
48458 On ch=13 n=64 v=0
48480 On ch=13 n=61 v=110
48670 On ch=13 n=61 v=0
48726 On ch=13 n=57 v=110
48916 On ch=13 n=57 v=0
49193 On ch=13 n=67 v=110
49288 On ch=13 n=67 v=0
49323 On ch=13 n=66 v=110
49418 On ch=13 n=66 v=0
49440 On ch=13 n=64 v=110
49630 On ch=13 n=64 v=0
49673 On ch=13 n=69 v=110
49768 On ch=13 n=69 v=0
49803 On ch=13 n=67 v=110
49898 On ch=13 n=67 v=0
49920 On ch=13 n=66 v=110
50300 On ch=13 n=66 v=0
50633 On ch=13 n=71 v=110
50728 On ch=13 n=71 v=0
50763 On ch=13 n=69 v=110
50858 On ch=13 n=69 v=0
50880 On ch=13 n=68 v=110
51070 On ch=13 n=68 v=0
51113 On ch=13 n=64 v=110
51208 On ch=13 n=64 v=0
51243 On ch=13 n=64 v=110
51338 On ch=13 n=64 v=0
51360 On ch=13 n=69 v=110
52207 On ch=13 n=69 v=0
52320 On ch=13 n=68 v=110
52700 On ch=13 n=68 v=0
52800 On ch=13 n=69 v=110
53180 On ch=13 n=69 v=0
53513 On ch=13 n=64 v=110
53608 On ch=13 n=64 v=0
53643 On ch=13 n=64 v=110
53738 On ch=13 n=64 v=0
53760 On ch=13 n=69 v=110
53950 On ch=13 n=69 v=0
54006 On ch=13 n=66 v=110
54196 On ch=13 n=66 v=0
54473 On ch=13 n=66 v=110
54568 On ch=13 n=66 v=0
54603 On ch=13 n=66 v=110
54698 On ch=13 n=66 v=0
54720 On ch=13 n=64 v=110
54910 On ch=13 n=64 v=0
54966 On ch=13 n=61 v=110
55156 On ch=13 n=61 v=0
55680 On ch=13 n=62 v=110
56440 On ch=13 n=62 v=0
56640 On ch=13 n=64 v=110
57020 On ch=13 n=64 v=0
57120 On ch=13 n=66 v=110
57500 On ch=13 n=66 v=0
57600 On ch=13 n=67 v=110
57790 On ch=13 n=67 v=0
57859 On ch=13 n=55 v=110
58049 On ch=13 n=55 v=0
58080 On ch=13 n=67 v=110
58631 On ch=13 n=67 v=0
58806 On ch=13 n=67 v=110
58996 On ch=13 n=67 v=0
59052 On ch=13 n=66 v=110
59432 On ch=13 n=66 v=0
59520 On ch=13 n=64 v=110
60280 On ch=13 n=64 v=0
60480 On ch=13 n=62 v=110
60670 On ch=13 n=62 v=0
60713 On ch=13 n=69 v=110
60808 On ch=13 n=69 v=0
60843 On ch=13 n=69 v=110
60938 On ch=13 n=69 v=0
60960 On ch=13 n=66 v=110
61150 On ch=13 n=66 v=0
61206 On ch=13 n=62 v=110
61396 On ch=13 n=62 v=0
61686 On ch=13 n=71 v=110
61876 On ch=13 n=71 v=0
61920 On ch=13 n=71 v=110
62110 On ch=13 n=71 v=0
62166 On ch=13 n=71 v=110
62356 On ch=13 n=71 v=0
62400 On ch=13 n=69 v=110
63160 On ch=13 n=69 v=0
64800 On ch=13 n=66 v=110
65180 On ch=13 n=66 v=0
65280 On ch=13 n=64 v=110
65660 On ch=13 n=64 v=0
65760 On ch=13 n=62 v=110
66140 On ch=13 n=62 v=0
66240 On ch=13 n=62 v=110
66620 On ch=13 n=62 v=0
66720 On ch=13 n=61 v=110
67100 On ch=13 n=61 v=0
67200 On ch=13 n=62 v=110
68721 On ch=13 n=62 v=0
69600 On ch=13 n=62 v=110
70360 On ch=13 n=62 v=0
70560 On ch=13 n=61 v=110
70940 On ch=13 n=61 v=0
71040 On ch=13 n=62 v=110
72180 On ch=13 n=62 v=0
72480 On ch=13 n=69 v=110
72860 On ch=13 n=69 v=0
72960 On ch=13 n=69 v=110
73340 On ch=13 n=69 v=0
73440 On ch=13 n=62 v=110
73820 On ch=13 n=62 v=0
73920 On ch=13 n=66 v=110
74300 On ch=13 n=66 v=0
74400 On ch=13 n=64 v=110
74685 On ch=13 n=64 v=0
74711 On ch=13 n=62 v=110
74854 On ch=13 n=62 v=0
74880 On ch=13 n=62 v=110
75450 On ch=13 n=62 v=0
75593 On ch=13 n=64 v=110
75783 On ch=13 n=64 v=0
75840 On ch=13 n=66 v=110
76220 On ch=13 n=66 v=0
76320 On ch=13 n=68 v=110
76700 On ch=13 n=68 v=0
76800 On ch=13 n=69 v=110
77370 On ch=13 n=69 v=0
77526 On ch=13 n=69 v=110
77716 On ch=13 n=69 v=0
77760 On ch=13 n=67 v=110
78140 On ch=13 n=67 v=0
78240 On ch=13 n=67 v=110
78620 On ch=13 n=67 v=0
78720 On ch=13 n=69 v=110
79480 On ch=13 n=69 v=0
88800 On ch=13 n=69 v=110
89180 On ch=13 n=69 v=0
89280 On ch=13 n=74 v=110
89660 On ch=13 n=74 v=0
89760 On ch=13 n=66 v=110
90140 On ch=13 n=66 v=0
90240 On ch=13 n=71 v=110
90620 On ch=13 n=71 v=0
90720 On ch=13 n=62 v=110
91100 On ch=13 n=62 v=0
91200 On ch=13 n=67 v=110
91580 On ch=13 n=67 v=0
91680 On ch=13 n=66 v=110
91870 On ch=13 n=66 v=0
91926 On ch=13 n=64 v=110
92116 On ch=13 n=64 v=0
92160 On ch=13 n=66 v=110
92540 On ch=13 n=66 v=0
92640 On ch=13 n=64 v=110
92925 On ch=13 n=64 v=0
92990 On ch=13 n=62 v=110
93085 On ch=13 n=62 v=0
93120 On ch=13 n=62 v=110
93310 On ch=13 n=62 v=0
93366 On ch=13 n=69 v=110
93556 On ch=13 n=69 v=0
93600 On ch=13 n=66 v=110
93790 On ch=13 n=66 v=0
93846 On ch=13 n=62 v=110
94036 On ch=13 n=62 v=0
94326 On ch=13 n=64 v=110
94516 On ch=13 n=64 v=0
94560 On ch=13 n=69 v=110
94750 On ch=13 n=69 v=0
94806 On ch=13 n=64 v=110
94996 On ch=13 n=64 v=0
95766 On ch=13 n=61 v=110
95956 On ch=13 n=61 v=0
96000 On ch=13 n=62 v=110
96190 On ch=13 n=62 v=0
96246 On ch=13 n=71 v=110
96436 On ch=13 n=71 v=0
96480 On ch=13 n=69 v=110
97240 On ch=13 n=69 v=0
97440 On ch=13 n=68 v=110
97820 On ch=13 n=68 v=0
97920 On ch=13 n=69 v=110
98300 On ch=13 n=69 v=0
98400 On ch=13 n=64 v=110
98780 On ch=13 n=64 v=0
98880 On ch=13 n=69 v=110
99260 On ch=13 n=69 v=0
99360 On ch=13 n=69 v=110
99740 On ch=13 n=69 v=0
99840 On ch=13 n=69 v=110
103256 On ch=13 n=69 v=0
104160 On ch=13 n=69 v=110
104540 On ch=13 n=69 v=0
104640 On ch=13 n=69 v=110
105020 On ch=13 n=69 v=0
105120 On ch=13 n=69 v=110
105500 On ch=13 n=69 v=0
105600 On ch=13 n=69 v=110
110159 On ch=13 n=69 v=0
112086 On ch=13 n=69 v=110
112276 On ch=13 n=69 v=0
112320 On ch=13 n=71 v=110
112510 On ch=13 n=71 v=0
112566 On ch=13 n=69 v=110
112756 On ch=13 n=69 v=0
113046 On ch=13 n=69 v=110
113236 On ch=13 n=69 v=0
113280 On ch=13 n=71 v=110
113470 On ch=13 n=71 v=0
113526 On ch=13 n=69 v=110
113716 On ch=13 n=69 v=0
113993 On ch=13 n=69 v=110
114088 On ch=13 n=69 v=0
114123 On ch=13 n=69 v=110
114218 On ch=13 n=69 v=0
114240 On ch=13 n=71 v=110
114430 On ch=13 n=71 v=0
114486 On ch=13 n=69 v=110
114676 On ch=13 n=69 v=0
114966 On ch=13 n=69 v=110
115061 On ch=13 n=69 v=0
115083 On ch=13 n=69 v=110
115178 On ch=13 n=69 v=0
115200 On ch=13 n=71 v=110
115390 On ch=13 n=71 v=0
115446 On ch=13 n=69 v=110
115636 On ch=13 n=69 v=0
117846 On ch=13 n=64 v=110
118036 On ch=13 n=64 v=0
118080 On ch=13 n=69 v=110
118270 On ch=13 n=69 v=0
118326 On ch=13 n=68 v=110
118516 On ch=13 n=68 v=0
118806 On ch=13 n=64 v=110
118996 On ch=13 n=64 v=0
119040 On ch=13 n=69 v=110
119230 On ch=13 n=69 v=0
119286 On ch=13 n=68 v=110
119476 On ch=13 n=68 v=0
119753 On ch=13 n=64 v=110
119848 On ch=13 n=64 v=0
119883 On ch=13 n=64 v=110
119978 On ch=13 n=64 v=0
120000 On ch=13 n=69 v=110
120190 On ch=13 n=69 v=0
120246 On ch=13 n=68 v=110
120436 On ch=13 n=68 v=0
120713 On ch=13 n=64 v=110
120808 On ch=13 n=64 v=0
120843 On ch=13 n=64 v=110
120938 On ch=13 n=64 v=0
120960 On ch=13 n=69 v=110
121150 On ch=13 n=69 v=0
121206 On ch=13 n=68 v=110
121396 On ch=13 n=68 v=0
123606 On ch=13 n=66 v=110
123796 On ch=13 n=66 v=0
123840 On ch=13 n=71 v=110
124030 On ch=13 n=71 v=0
124086 On ch=13 n=70 v=110
124276 On ch=13 n=70 v=0
124566 On ch=13 n=66 v=110
124756 On ch=13 n=66 v=0
124800 On ch=13 n=71 v=110
124990 On ch=13 n=71 v=0
125046 On ch=13 n=70 v=110
125236 On ch=13 n=70 v=0
125513 On ch=13 n=66 v=110
125608 On ch=13 n=66 v=0
125643 On ch=13 n=66 v=110
125738 On ch=13 n=66 v=0
125760 On ch=13 n=71 v=110
125950 On ch=13 n=71 v=0
126032 On ch=13 n=70 v=110
126222 On ch=13 n=70 v=0
126473 On ch=13 n=66 v=110
126568 On ch=13 n=66 v=0
126603 On ch=13 n=66 v=110
126698 On ch=13 n=66 v=0
126720 On ch=13 n=71 v=110
127100 On ch=13 n=71 v=0
127200 On ch=13 n=66 v=110
127580 On ch=13 n=66 v=0
129600 On ch=13 n=71 v=110
129980 On ch=13 n=71 v=0
130080 On ch=13 n=71 v=110
130460 On ch=13 n=71 v=0
130560 On ch=13 n=69 v=110
131130 On ch=13 n=69 v=0
131286 On ch=13 n=69 v=110
131476 On ch=13 n=69 v=0
131520 On ch=13 n=69 v=110
131900 On ch=13 n=69 v=0
132000 On ch=13 n=69 v=110
132380 On ch=13 n=69 v=0
132480 On ch=13 n=69 v=110
133240 On ch=13 n=69 v=0
135606 On ch=13 n=66 v=110
135796 On ch=13 n=66 v=0
135840 On ch=13 n=68 v=110
136030 On ch=13 n=68 v=0
136086 On ch=13 n=69 v=110
136276 On ch=13 n=69 v=0
136320 On ch=13 n=62 v=110
136510 On ch=13 n=62 v=0
136566 On ch=13 n=61 v=110
136756 On ch=13 n=61 v=0
136800 On ch=13 n=62 v=110
136990 On ch=13 n=62 v=0
137033 On ch=13 n=64 v=110
137128 On ch=13 n=64 v=0
137163 On ch=13 n=62 v=110
137258 On ch=13 n=62 v=0
137280 On ch=13 n=61 v=110
137470 On ch=13 n=61 v=0
137526 On ch=13 n=64 v=110
137716 On ch=13 n=64 v=0
137760 On ch=13 n=69 v=110
137950 On ch=13 n=69 v=0
138006 On ch=13 n=67 v=110
138196 On ch=13 n=67 v=0
138240 On ch=13 n=66 v=110
138810 On ch=13 n=66 v=0
138966 On ch=13 n=64 v=110
139156 On ch=13 n=64 v=0
139200 On ch=13 n=62 v=110
139770 On ch=13 n=62 v=0
139926 On ch=13 n=62 v=110
140116 On ch=13 n=62 v=0
140160 On ch=13 n=62 v=110
140350 On ch=13 n=62 v=0
140406 On ch=13 n=61 v=110
140596 On ch=13 n=61 v=0
140640 On ch=13 n=62 v=110
140830 On ch=13 n=62 v=0
140886 On ch=13 n=62 v=110
141076 On ch=13 n=62 v=0
141120 On ch=13 n=62 v=110
141500 On ch=13 n=62 v=0
141600 On ch=13 n=61 v=110
141980 On ch=13 n=61 v=0
142080 On ch=13 n=62 v=110
142840 On ch=13 n=62 v=0
143040 On ch=13 n=62 v=110
143420 On ch=13 n=62 v=0
143520 On ch=13 n=62 v=110
143900 On ch=13 n=62 v=0
144000 On ch=13 n=62 v=110
144380 On ch=13 n=62 v=0
144726 On ch=13 n=69 v=110
144916 On ch=13 n=69 v=0
144960 On ch=13 n=71 v=110
145150 On ch=13 n=71 v=0
145206 On ch=13 n=69 v=110
145396 On ch=13 n=69 v=0
145686 On ch=13 n=69 v=110
145876 On ch=13 n=69 v=0
145920 On ch=13 n=71 v=110
146110 On ch=13 n=71 v=0
146166 On ch=13 n=69 v=110
146356 On ch=13 n=69 v=0
146646 On ch=13 n=62 v=110
146836 On ch=13 n=62 v=0
146880 On ch=13 n=62 v=110
147260 On ch=13 n=62 v=0
147360 On ch=13 n=62 v=110
147740 On ch=13 n=62 v=0
147840 On ch=13 n=62 v=110
148220 On ch=13 n=62 v=0
148553 On ch=13 n=69 v=110
148648 On ch=13 n=69 v=0
148683 On ch=13 n=69 v=110
148778 On ch=13 n=69 v=0
148800 On ch=13 n=71 v=110
148990 On ch=13 n=71 v=0
149046 On ch=13 n=69 v=110
149236 On ch=13 n=69 v=0
149526 On ch=13 n=69 v=110
149621 On ch=13 n=69 v=0
149643 On ch=13 n=69 v=110
149738 On ch=13 n=69 v=0
149760 On ch=13 n=71 v=110
149950 On ch=13 n=71 v=0
150006 On ch=13 n=69 v=110
150196 On ch=13 n=69 v=0
151200 On ch=13 n=69 v=110
151580 On ch=13 n=69 v=0
151680 On ch=13 n=74 v=110
152060 On ch=13 n=74 v=0
152160 On ch=13 n=66 v=110
152540 On ch=13 n=66 v=0
152640 On ch=13 n=71 v=110
153020 On ch=13 n=71 v=0
153120 On ch=13 n=62 v=110
153500 On ch=13 n=62 v=0
153600 On ch=13 n=67 v=110
153980 On ch=13 n=67 v=0
154080 On ch=13 n=66 v=110
154270 On ch=13 n=66 v=0
154326 On ch=13 n=64 v=110
154516 On ch=13 n=64 v=0
154560 On ch=13 n=64 v=110
155320 On ch=13 n=64 v=0
155520 On ch=13 n=66 v=110
155900 On ch=13 n=66 v=0
156480 On ch=13 n=66 v=110
156860 On ch=13 n=66 v=0
156960 On ch=13 n=66 v=110
157245 On ch=13 n=66 v=0
157323 On ch=13 n=67 v=110
157413 On ch=13 n=67 v=0
157440 On ch=13 n=69 v=110
158010 On ch=13 n=69 v=0
158166 On ch=13 n=66 v=110
158356 On ch=13 n=66 v=0
158400 On ch=13 n=66 v=110
158780 On ch=13 n=66 v=0
158880 On ch=13 n=66 v=110
159165 On ch=13 n=66 v=0
159243 On ch=13 n=67 v=110
159333 On ch=13 n=67 v=0
159360 On ch=13 n=69 v=110
159740 On ch=13 n=69 v=0
160320 On ch=13 n=66 v=110
160700 On ch=13 n=66 v=0
160800 On ch=13 n=66 v=110
161180 On ch=13 n=66 v=0
161280 On ch=13 n=69 v=110
161660 On ch=13 n=69 v=0
162006 On ch=13 n=66 v=110
162196 On ch=13 n=66 v=0
162240 On ch=13 n=66 v=110
162620 On ch=13 n=66 v=0
162720 On ch=13 n=66 v=110
163005 On ch=13 n=66 v=0
163083 On ch=13 n=67 v=110
163173 On ch=13 n=67 v=0
163200 On ch=13 n=69 v=110
163580 On ch=13 n=69 v=0
164640 On ch=13 n=66 v=110
165020 On ch=13 n=66 v=0
165120 On ch=13 n=66 v=110
165500 On ch=13 n=66 v=0
165600 On ch=13 n=66 v=110
165980 On ch=13 n=66 v=0
166080 On ch=13 n=62 v=110
166460 On ch=13 n=62 v=0
166560 On ch=13 n=69 v=110
166940 On ch=13 n=69 v=0
167040 On ch=13 n=64 v=110
167420 On ch=13 n=64 v=0
167520 On ch=13 n=69 v=110
167710 On ch=13 n=69 v=0
167766 On ch=13 n=69 v=110
167956 On ch=13 n=69 v=0
168000 On ch=13 n=69 v=110
168760 On ch=13 n=69 v=0
168960 On ch=13 n=69 v=110
169340 On ch=13 n=69 v=0
169686 On ch=13 n=69 v=110
169876 On ch=13 n=69 v=0
169920 On ch=13 n=71 v=110
170110 On ch=13 n=71 v=0
170166 On ch=13 n=69 v=110
170356 On ch=13 n=69 v=0
170646 On ch=13 n=69 v=110
170836 On ch=13 n=69 v=0
170880 On ch=13 n=71 v=110
171070 On ch=13 n=71 v=0
171126 On ch=13 n=69 v=110
171316 On ch=13 n=69 v=0
171606 On ch=13 n=69 v=110
171796 On ch=13 n=69 v=0
171840 On ch=13 n=71 v=110
172030 On ch=13 n=71 v=0
172086 On ch=13 n=69 v=110
172276 On ch=13 n=69 v=0
172566 On ch=13 n=69 v=110
172756 On ch=13 n=69 v=0
172800 On ch=13 n=71 v=110
172990 On ch=13 n=71 v=0
173046 On ch=13 n=69 v=110
173236 On ch=13 n=69 v=0
173512 On ch=13 n=69 v=110
173607 On ch=13 n=69 v=0
173642 On ch=13 n=69 v=110
173737 On ch=13 n=69 v=0
173759 On ch=13 n=71 v=110
173949 On ch=13 n=71 v=0
174005 On ch=13 n=69 v=110
174195 On ch=13 n=69 v=0
174472 On ch=13 n=69 v=110
174567 On ch=13 n=69 v=0
174602 On ch=13 n=69 v=110
174697 On ch=13 n=69 v=0
174719 On ch=13 n=71 v=110
174909 On ch=13 n=71 v=0
174965 On ch=13 n=69 v=110
175155 On ch=13 n=69 v=0
175432 On ch=13 n=69 v=110
175527 On ch=13 n=69 v=0
175562 On ch=13 n=69 v=110
175657 On ch=13 n=69 v=0
175679 On ch=13 n=71 v=110
175869 On ch=13 n=71 v=0
175925 On ch=13 n=69 v=110
176115 On ch=13 n=69 v=0
176392 On ch=13 n=69 v=110
176487 On ch=13 n=69 v=0
176522 On ch=13 n=69 v=110
176617 On ch=13 n=69 v=0
176639 On ch=13 n=71 v=110
176829 On ch=13 n=71 v=0
176885 On ch=13 n=69 v=110
177075 On ch=13 n=69 v=0
178080 On ch=13 n=66 v=110
178460 On ch=13 n=66 v=0
178560 On ch=13 n=67 v=110
179700 On ch=13 n=67 v=0
180000 On ch=13 n=67 v=110
180380 On ch=13 n=67 v=0
180480 On ch=13 n=66 v=110
182001 On ch=13 n=66 v=0
182001 Meta TrkEnd
TrkEnd
MTrk
0 Meta 0x21 00
0 Meta TrkName "Tenor"
0 PrCh ch=14 p=52
0 Par ch=14 c=7 v=127
0 Par ch=14 c=10 v=80
1307 Par ch=14 c=91 v=80
7680 On ch=14 n=66 v=110
8244 On ch=14 n=66 v=0
8406 On ch=14 n=62 v=110
8596 On ch=14 n=62 v=0
8640 On ch=14 n=62 v=110
8830 On ch=14 n=62 v=0
8886 On ch=14 n=62 v=110
9076 On ch=14 n=62 v=0
9600 On ch=14 n=66 v=110
10164 On ch=14 n=66 v=0
10326 On ch=14 n=62 v=110
10516 On ch=14 n=62 v=0
10560 On ch=14 n=62 v=110
10750 On ch=14 n=62 v=0
10806 On ch=14 n=62 v=110
10996 On ch=14 n=62 v=0
11273 On ch=14 n=62 v=110
11368 On ch=14 n=62 v=0
11403 On ch=14 n=62 v=110
11498 On ch=14 n=62 v=0
11520 On ch=14 n=67 v=110
11710 On ch=14 n=67 v=0
11766 On ch=14 n=66 v=110
11956 On ch=14 n=66 v=0
12233 On ch=14 n=62 v=110
12328 On ch=14 n=62 v=0
12363 On ch=14 n=62 v=110
12458 On ch=14 n=62 v=0
12480 On ch=14 n=67 v=110
12670 On ch=14 n=67 v=0
12726 On ch=14 n=66 v=110
12916 On ch=14 n=66 v=0
13206 On ch=14 n=62 v=110
13396 On ch=14 n=62 v=0
13440 On ch=14 n=64 v=110
13630 On ch=14 n=64 v=0
13686 On ch=14 n=57 v=110
14066 On ch=14 n=57 v=0
14153 On ch=14 n=57 v=110
14343 On ch=14 n=57 v=0
14400 On ch=14 n=57 v=110
14780 On ch=14 n=57 v=0
15360 On ch=14 n=61 v=110
15930 On ch=14 n=61 v=0
16086 On ch=14 n=64 v=110
16276 On ch=14 n=64 v=0
16320 On ch=14 n=62 v=110
16510 On ch=14 n=62 v=0
16566 On ch=14 n=61 v=110
16756 On ch=14 n=61 v=0
17280 On ch=14 n=61 v=110
17850 On ch=14 n=61 v=0
18006 On ch=14 n=64 v=110
18196 On ch=14 n=64 v=0
18240 On ch=14 n=62 v=110
18430 On ch=14 n=62 v=0
18486 On ch=14 n=61 v=110
18676 On ch=14 n=61 v=0
18953 On ch=14 n=64 v=110
19048 On ch=14 n=64 v=0
19083 On ch=14 n=64 v=110
19178 On ch=14 n=64 v=0
19200 On ch=14 n=62 v=110
19390 On ch=14 n=62 v=0
19446 On ch=14 n=61 v=110
19636 On ch=14 n=61 v=0
19913 On ch=14 n=64 v=110
20008 On ch=14 n=64 v=0
20043 On ch=14 n=64 v=110
20138 On ch=14 n=64 v=0
20160 On ch=14 n=62 v=110
20350 On ch=14 n=62 v=0
20406 On ch=14 n=61 v=110
20596 On ch=14 n=61 v=0
20886 On ch=14 n=64 v=110
21076 On ch=14 n=64 v=0
21120 On ch=14 n=62 v=110
21310 On ch=14 n=62 v=0
21366 On ch=14 n=64 v=110
21556 On ch=14 n=64 v=0
21600 On ch=14 n=66 v=110
21790 On ch=14 n=66 v=0
21846 On ch=14 n=62 v=110
22036 On ch=14 n=62 v=0
22080 On ch=14 n=64 v=110
22460 On ch=14 n=64 v=0
23040 On ch=14 n=57 v=110
23800 On ch=14 n=57 v=0
24012 On ch=14 n=59 v=110
24392 On ch=14 n=59 v=0
24480 On ch=14 n=61 v=110
24860 On ch=14 n=61 v=0
24960 On ch=14 n=62 v=110
25150 On ch=14 n=62 v=0
25206 On ch=14 n=50 v=110
25396 On ch=14 n=50 v=0
25440 On ch=14 n=62 v=110
25991 On ch=14 n=62 v=0
26153 On ch=14 n=62 v=110
26343 On ch=14 n=62 v=0
26400 On ch=14 n=61 v=110
26780 On ch=14 n=61 v=0
26880 On ch=14 n=59 v=110
27640 On ch=14 n=59 v=0
27840 On ch=14 n=57 v=110
28220 On ch=14 n=57 v=0
28553 On ch=14 n=57 v=110
28648 On ch=14 n=57 v=0
28683 On ch=14 n=57 v=110
28778 On ch=14 n=57 v=0
28800 On ch=14 n=66 v=110
28990 On ch=14 n=66 v=0
29046 On ch=14 n=64 v=110
29236 On ch=14 n=64 v=0
29513 On ch=14 n=64 v=110
29608 On ch=14 n=64 v=0
29643 On ch=14 n=64 v=110
29738 On ch=14 n=64 v=0
29760 On ch=14 n=66 v=110
29950 On ch=14 n=66 v=0
30006 On ch=14 n=64 v=110
30196 On ch=14 n=64 v=0
30473 On ch=14 n=64 v=110
30568 On ch=14 n=64 v=0
30603 On ch=14 n=64 v=110
30698 On ch=14 n=64 v=0
30720 On ch=14 n=62 v=110
30910 On ch=14 n=62 v=0
30966 On ch=14 n=61 v=110
31156 On ch=14 n=61 v=0
31433 On ch=14 n=64 v=110
31528 On ch=14 n=64 v=0
31563 On ch=14 n=64 v=110
31658 On ch=14 n=64 v=0
31680 On ch=14 n=62 v=110
31870 On ch=14 n=62 v=0
31913 On ch=14 n=61 v=110
32103 On ch=14 n=61 v=0
32640 On ch=14 n=62 v=110
33400 On ch=14 n=62 v=0
33600 On ch=14 n=64 v=110
33980 On ch=14 n=64 v=0
34080 On ch=14 n=66 v=110
34460 On ch=14 n=66 v=0
34560 On ch=14 n=67 v=110
34750 On ch=14 n=67 v=0
34806 On ch=14 n=55 v=110
34996 On ch=14 n=55 v=0
35040 On ch=14 n=55 v=110
35591 On ch=14 n=55 v=0
35766 On ch=14 n=55 v=110
35956 On ch=14 n=55 v=0
36012 On ch=14 n=54 v=110
36392 On ch=14 n=54 v=0
36480 On ch=14 n=52 v=110
37240 On ch=14 n=52 v=0
37440 On ch=14 n=50 v=110
37820 On ch=14 n=50 v=0
38153 On ch=14 n=62 v=110
38248 On ch=14 n=62 v=0
38283 On ch=14 n=62 v=110
38378 On ch=14 n=62 v=0
38400 On ch=14 n=67 v=110
38590 On ch=14 n=67 v=0
38646 On ch=14 n=66 v=110
38836 On ch=14 n=66 v=0
39113 On ch=14 n=62 v=110
39208 On ch=14 n=62 v=0
39243 On ch=14 n=62 v=110
39338 On ch=14 n=62 v=0
39385 On ch=14 n=67 v=110
39575 On ch=14 n=67 v=0
39645 On ch=14 n=66 v=110
39835 On ch=14 n=66 v=0
40060 On ch=14 n=62 v=110
40155 On ch=14 n=62 v=0
40203 On ch=14 n=62 v=110
40298 On ch=14 n=62 v=0
40320 On ch=14 n=67 v=110
40510 On ch=14 n=67 v=0
40566 On ch=14 n=66 v=110
40756 On ch=14 n=66 v=0
41033 On ch=14 n=62 v=110
41128 On ch=14 n=62 v=0
41163 On ch=14 n=62 v=110
41258 On ch=14 n=62 v=0
41280 On ch=14 n=67 v=110
41470 On ch=14 n=67 v=0
41526 On ch=14 n=66 v=110
41716 On ch=14 n=66 v=0
42953 On ch=14 n=62 v=110
43048 On ch=14 n=62 v=0
43083 On ch=14 n=62 v=110
43178 On ch=14 n=62 v=0
43200 On ch=14 n=61 v=110
43390 On ch=14 n=61 v=0
43446 On ch=14 n=57 v=110
43636 On ch=14 n=57 v=0
43913 On ch=14 n=62 v=110
44008 On ch=14 n=62 v=0
44043 On ch=14 n=62 v=110
44138 On ch=14 n=62 v=0
44160 On ch=14 n=59 v=110
44350 On ch=14 n=59 v=0
44406 On ch=14 n=59 v=110
44596 On ch=14 n=59 v=0
44873 On ch=14 n=64 v=110
44968 On ch=14 n=64 v=0
45003 On ch=14 n=64 v=110
45098 On ch=14 n=64 v=0
45120 On ch=14 n=61 v=110
45310 On ch=14 n=61 v=0
45366 On ch=14 n=57 v=110
45556 On ch=14 n=57 v=0
45600 On ch=14 n=62 v=110
46447 On ch=14 n=62 v=0
46560 On ch=14 n=61 v=110
46940 On ch=14 n=61 v=0
47040 On ch=14 n=62 v=110
47230 On ch=14 n=62 v=0
47273 On ch=14 n=66 v=110
47368 On ch=14 n=66 v=0
47403 On ch=14 n=66 v=110
47498 On ch=14 n=66 v=0
47520 On ch=14 n=69 v=110
47710 On ch=14 n=69 v=0
47766 On ch=14 n=66 v=110
47956 On ch=14 n=66 v=0
48000 On ch=14 n=57 v=110
48760 On ch=14 n=57 v=0
48960 On ch=14 n=59 v=110
49340 On ch=14 n=59 v=0
49440 On ch=14 n=61 v=110
49820 On ch=14 n=61 v=0
49920 On ch=14 n=62 v=110
50110 On ch=14 n=62 v=0
50179 On ch=14 n=50 v=110
50369 On ch=14 n=50 v=0
50400 On ch=14 n=62 v=110
50951 On ch=14 n=62 v=0
51126 On ch=14 n=62 v=110
51316 On ch=14 n=62 v=0
51360 On ch=14 n=61 v=110
51740 On ch=14 n=61 v=0
51840 On ch=14 n=59 v=110
52600 On ch=14 n=59 v=0
52800 On ch=14 n=57 v=110
52990 On ch=14 n=57 v=0
53033 On ch=14 n=64 v=110
53128 On ch=14 n=64 v=0
53163 On ch=14 n=64 v=110
53258 On ch=14 n=64 v=0
53280 On ch=14 n=61 v=110
53470 On ch=14 n=61 v=0
53526 On ch=14 n=57 v=110
53716 On ch=14 n=57 v=0
53993 On ch=14 n=62 v=110
54088 On ch=14 n=62 v=0
54123 On ch=14 n=62 v=110
54218 On ch=14 n=62 v=0
54240 On ch=14 n=66 v=110
54430 On ch=14 n=66 v=0
54486 On ch=14 n=62 v=110
54676 On ch=14 n=62 v=0
54953 On ch=14 n=64 v=110
55048 On ch=14 n=64 v=0
55083 On ch=14 n=64 v=110
55178 On ch=14 n=64 v=0
55200 On ch=14 n=61 v=110
55390 On ch=14 n=61 v=0
55446 On ch=14 n=57 v=110
55636 On ch=14 n=57 v=0
55680 On ch=14 n=62 v=110
56440 On ch=14 n=62 v=0
56640 On ch=14 n=64 v=110
57020 On ch=14 n=64 v=0
57120 On ch=14 n=66 v=110
57500 On ch=14 n=66 v=0
57600 On ch=14 n=67 v=110
57790 On ch=14 n=67 v=0
57859 On ch=14 n=55 v=110
58049 On ch=14 n=55 v=0
58080 On ch=14 n=67 v=110
58631 On ch=14 n=67 v=0
58806 On ch=14 n=67 v=110
58996 On ch=14 n=67 v=0
59040 On ch=14 n=66 v=110
59420 On ch=14 n=66 v=0
59520 On ch=14 n=64 v=110
60280 On ch=14 n=64 v=0
60480 On ch=14 n=62 v=110
61050 On ch=14 n=62 v=0
61206 On ch=14 n=66 v=110
61396 On ch=14 n=66 v=0
61440 On ch=14 n=67 v=110
62010 On ch=14 n=67 v=0
62166 On ch=14 n=67 v=110
62356 On ch=14 n=67 v=0
62400 On ch=14 n=66 v=110
63160 On ch=14 n=66 v=0
64800 On ch=14 n=62 v=110
65180 On ch=14 n=62 v=0
65280 On ch=14 n=57 v=110
65660 On ch=14 n=57 v=0
65760 On ch=14 n=50 v=110
66140 On ch=14 n=50 v=0
66240 On ch=14 n=57 v=110
66810 On ch=14 n=57 v=0
66966 On ch=14 n=57 v=110
67156 On ch=14 n=57 v=0
67200 On ch=14 n=57 v=110
68721 On ch=14 n=57 v=0
70080 On ch=14 n=57 v=110
70460 On ch=14 n=57 v=0
70560 On ch=14 n=55 v=110
70845 On ch=14 n=55 v=0
70923 On ch=14 n=54 v=110
71013 On ch=14 n=54 v=0
71040 On ch=14 n=54 v=110
72180 On ch=14 n=54 v=0
72480 On ch=14 n=62 v=110
72860 On ch=14 n=62 v=0
72960 On ch=14 n=64 v=110
73340 On ch=14 n=64 v=0
73440 On ch=14 n=67 v=110
73820 On ch=14 n=67 v=0
73920 On ch=14 n=57 v=110
74490 On ch=14 n=57 v=0
74646 On ch=14 n=57 v=110
74836 On ch=14 n=57 v=0
74880 On ch=14 n=57 v=110
75450 On ch=14 n=57 v=0
75606 On ch=14 n=55 v=110
75796 On ch=14 n=55 v=0
75840 On ch=14 n=57 v=110
76220 On ch=14 n=57 v=0
76320 On ch=14 n=62 v=110
76700 On ch=14 n=62 v=0
76800 On ch=14 n=64 v=110
77370 On ch=14 n=64 v=0
77526 On ch=14 n=62 v=110
77716 On ch=14 n=62 v=0
77760 On ch=14 n=62 v=110
78140 On ch=14 n=62 v=0
78240 On ch=14 n=64 v=110
78620 On ch=14 n=64 v=0
78720 On ch=14 n=66 v=110
79480 On ch=14 n=66 v=0
84000 On ch=14 n=62 v=110
84380 On ch=14 n=62 v=0
84480 On ch=14 n=69 v=110
84860 On ch=14 n=69 v=0
84960 On ch=14 n=61 v=110
85340 On ch=14 n=61 v=0
85440 On ch=14 n=66 v=110
85820 On ch=14 n=66 v=0
85920 On ch=14 n=57 v=110
86300 On ch=14 n=57 v=0
86400 On ch=14 n=62 v=110
86780 On ch=14 n=62 v=0
86880 On ch=14 n=61 v=110
87070 On ch=14 n=61 v=0
87126 On ch=14 n=59 v=110
87316 On ch=14 n=59 v=0
87360 On ch=14 n=61 v=110
87740 On ch=14 n=61 v=0
87840 On ch=14 n=59 v=110
88125 On ch=14 n=59 v=0
88203 On ch=14 n=57 v=110
88298 On ch=14 n=57 v=0
88320 On ch=14 n=57 v=110
88700 On ch=14 n=57 v=0
89526 On ch=14 n=57 v=110
89716 On ch=14 n=57 v=0
89760 On ch=14 n=62 v=110
89950 On ch=14 n=62 v=0
90006 On ch=14 n=62 v=110
90196 On ch=14 n=62 v=0
90240 On ch=14 n=62 v=110
90620 On ch=14 n=62 v=0
90966 On ch=14 n=59 v=110
91156 On ch=14 n=59 v=0
91200 On ch=14 n=64 v=110
91390 On ch=14 n=64 v=0
91446 On ch=14 n=61 v=110
91636 On ch=14 n=61 v=0
91680 On ch=14 n=62 v=110
91870 On ch=14 n=62 v=0
91926 On ch=14 n=62 v=110
92116 On ch=14 n=62 v=0
92160 On ch=14 n=62 v=110
92540 On ch=14 n=62 v=0
92640 On ch=14 n=61 v=110
93020 On ch=14 n=61 v=0
93120 On ch=14 n=62 v=110
93500 On ch=14 n=62 v=0
95286 On ch=14 n=62 v=110
95476 On ch=14 n=62 v=0
95520 On ch=14 n=61 v=110
95710 On ch=14 n=61 v=0
95766 On ch=14 n=57 v=110
95956 On ch=14 n=57 v=0
96000 On ch=14 n=66 v=110
96190 On ch=14 n=66 v=0
96246 On ch=14 n=64 v=110
96626 On ch=14 n=64 v=0
96726 On ch=14 n=66 v=110
96916 On ch=14 n=66 v=0
96960 On ch=14 n=64 v=110
97150 On ch=14 n=64 v=0
97206 On ch=14 n=64 v=110
97396 On ch=14 n=64 v=0
97686 On ch=14 n=64 v=110
97876 On ch=14 n=64 v=0
97920 On ch=14 n=64 v=110
98300 On ch=14 n=64 v=0
98400 On ch=14 n=61 v=110
98780 On ch=14 n=61 v=0
100566 On ch=14 n=64 v=110
100756 On ch=14 n=64 v=0
100800 On ch=14 n=66 v=110
100990 On ch=14 n=66 v=0
101046 On ch=14 n=64 v=110
101236 On ch=14 n=64 v=0
101526 On ch=14 n=64 v=110
101716 On ch=14 n=64 v=0
101760 On ch=14 n=66 v=110
101950 On ch=14 n=66 v=0
102006 On ch=14 n=64 v=110
102196 On ch=14 n=64 v=0
102473 On ch=14 n=64 v=110
102568 On ch=14 n=64 v=0
102603 On ch=14 n=64 v=110
102698 On ch=14 n=64 v=0
102707 On ch=14 n=66 v=110
102897 On ch=14 n=66 v=0
102966 On ch=14 n=64 v=110
103156 On ch=14 n=64 v=0
103433 On ch=14 n=64 v=110
103528 On ch=14 n=64 v=0
103563 On ch=14 n=64 v=110
103658 On ch=14 n=64 v=0
103680 On ch=14 n=66 v=110
103870 On ch=14 n=66 v=0
103926 On ch=14 n=64 v=110
104116 On ch=14 n=64 v=0
106326 On ch=14 n=64 v=110
106516 On ch=14 n=64 v=0
106560 On ch=14 n=66 v=110
106750 On ch=14 n=66 v=0
106806 On ch=14 n=64 v=110
106996 On ch=14 n=64 v=0
107286 On ch=14 n=64 v=110
107476 On ch=14 n=64 v=0
107520 On ch=14 n=66 v=110
107710 On ch=14 n=66 v=0
107766 On ch=14 n=64 v=110
107956 On ch=14 n=64 v=0
108233 On ch=14 n=64 v=110
108328 On ch=14 n=64 v=0
108363 On ch=14 n=64 v=110
108458 On ch=14 n=64 v=0
108467 On ch=14 n=66 v=110
108657 On ch=14 n=66 v=0
108726 On ch=14 n=64 v=110
108916 On ch=14 n=64 v=0
109193 On ch=14 n=64 v=110
109288 On ch=14 n=64 v=0
109323 On ch=14 n=64 v=110
109418 On ch=14 n=64 v=0
109440 On ch=14 n=66 v=110
109630 On ch=14 n=66 v=0
109686 On ch=14 n=64 v=110
109876 On ch=14 n=64 v=0
112086 On ch=14 n=62 v=110
112276 On ch=14 n=62 v=0
112320 On ch=14 n=67 v=110
112510 On ch=14 n=67 v=0
112566 On ch=14 n=66 v=110
112756 On ch=14 n=66 v=0
113046 On ch=14 n=62 v=110
113236 On ch=14 n=62 v=0
113280 On ch=14 n=67 v=110
113470 On ch=14 n=67 v=0
113526 On ch=14 n=66 v=110
113716 On ch=14 n=66 v=0
113993 On ch=14 n=62 v=110
114088 On ch=14 n=62 v=0
114123 On ch=14 n=62 v=110
114218 On ch=14 n=62 v=0
114227 On ch=14 n=67 v=110
114417 On ch=14 n=67 v=0
114486 On ch=14 n=66 v=110
114676 On ch=14 n=66 v=0
114953 On ch=14 n=62 v=110
115048 On ch=14 n=62 v=0
115083 On ch=14 n=62 v=110
115178 On ch=14 n=62 v=0
115200 On ch=14 n=67 v=110
115390 On ch=14 n=67 v=0
115446 On ch=14 n=66 v=110
115636 On ch=14 n=66 v=0
117846 On ch=14 n=59 v=110
118036 On ch=14 n=59 v=0
118080 On ch=14 n=61 v=110
118270 On ch=14 n=61 v=0
118326 On ch=14 n=59 v=110
118516 On ch=14 n=59 v=0
118806 On ch=14 n=59 v=110
118996 On ch=14 n=59 v=0
119040 On ch=14 n=61 v=110
119230 On ch=14 n=61 v=0
119286 On ch=14 n=59 v=110
119476 On ch=14 n=59 v=0
119753 On ch=14 n=59 v=110
119848 On ch=14 n=59 v=0
119883 On ch=14 n=59 v=110
119978 On ch=14 n=59 v=0
120000 On ch=14 n=61 v=110
120190 On ch=14 n=61 v=0
120246 On ch=14 n=59 v=110
120436 On ch=14 n=59 v=0
120713 On ch=14 n=59 v=110
120808 On ch=14 n=59 v=0
120843 On ch=14 n=59 v=110
120938 On ch=14 n=59 v=0
120960 On ch=14 n=61 v=110
121150 On ch=14 n=61 v=0
121206 On ch=14 n=59 v=110
121396 On ch=14 n=59 v=0
123606 On ch=14 n=61 v=110
123796 On ch=14 n=61 v=0
123840 On ch=14 n=62 v=110
124030 On ch=14 n=62 v=0
124086 On ch=14 n=61 v=110
124276 On ch=14 n=61 v=0
124566 On ch=14 n=61 v=110
124756 On ch=14 n=61 v=0
124800 On ch=14 n=62 v=110
124990 On ch=14 n=62 v=0
125046 On ch=14 n=61 v=110
125236 On ch=14 n=61 v=0
125513 On ch=14 n=61 v=110
125608 On ch=14 n=61 v=0
125643 On ch=14 n=61 v=110
125738 On ch=14 n=61 v=0
125760 On ch=14 n=62 v=110
125950 On ch=14 n=62 v=0
126006 On ch=14 n=61 v=110
126196 On ch=14 n=61 v=0
126473 On ch=14 n=61 v=110
126568 On ch=14 n=61 v=0
126603 On ch=14 n=61 v=110
126698 On ch=14 n=61 v=0
126720 On ch=14 n=62 v=110
127100 On ch=14 n=62 v=0
127200 On ch=14 n=62 v=110
127580 On ch=14 n=62 v=0
129600 On ch=14 n=62 v=110
129980 On ch=14 n=62 v=0
130080 On ch=14 n=62 v=110
130460 On ch=14 n=62 v=0
130560 On ch=14 n=64 v=110
131130 On ch=14 n=64 v=0
131286 On ch=14 n=64 v=110
131476 On ch=14 n=64 v=0
131520 On ch=14 n=62 v=110
131710 On ch=14 n=62 v=0
131766 On ch=14 n=61 v=110
131956 On ch=14 n=61 v=0
132000 On ch=14 n=62 v=110
132190 On ch=14 n=62 v=0
132246 On ch=14 n=64 v=110
132436 On ch=14 n=64 v=0
132480 On ch=14 n=61 v=110
133240 On ch=14 n=61 v=0
134646 On ch=14 n=57 v=110
134836 On ch=14 n=57 v=0
134880 On ch=14 n=59 v=110
135070 On ch=14 n=59 v=0
135126 On ch=14 n=61 v=110
135316 On ch=14 n=61 v=0
135360 On ch=14 n=54 v=110
135550 On ch=14 n=54 v=0
135606 On ch=14 n=57 v=110
135796 On ch=14 n=57 v=0
135840 On ch=14 n=57 v=110
136675 On ch=14 n=57 v=0
136800 On ch=14 n=56 v=110
137180 On ch=14 n=56 v=0
137280 On ch=14 n=57 v=110
137660 On ch=14 n=57 v=0
138486 On ch=14 n=57 v=110
138676 On ch=14 n=57 v=0
138720 On ch=14 n=62 v=110
138910 On ch=14 n=62 v=0
138966 On ch=14 n=61 v=110
139156 On ch=14 n=61 v=0
139200 On ch=14 n=59 v=110
139770 On ch=14 n=59 v=0
139926 On ch=14 n=57 v=110
140116 On ch=14 n=57 v=0
140160 On ch=14 n=55 v=110
140540 On ch=14 n=55 v=0
140640 On ch=14 n=55 v=110
140830 On ch=14 n=55 v=0
140886 On ch=14 n=59 v=110
141076 On ch=14 n=59 v=0
141120 On ch=14 n=57 v=110
141880 On ch=14 n=57 v=0
142080 On ch=14 n=57 v=110
142840 On ch=14 n=57 v=0
143040 On ch=14 n=62 v=110
143420 On ch=14 n=62 v=0
143520 On ch=14 n=62 v=110
143900 On ch=14 n=62 v=0
144000 On ch=14 n=62 v=110
146504 On ch=14 n=62 v=0
146646 On ch=14 n=62 v=110
146836 On ch=14 n=62 v=0
146880 On ch=14 n=62 v=110
147260 On ch=14 n=62 v=0
147360 On ch=14 n=62 v=110
147740 On ch=14 n=62 v=0
147840 On ch=14 n=62 v=110
150113 On ch=14 n=62 v=0
150486 On ch=14 n=66 v=110
150676 On ch=14 n=66 v=0
150720 On ch=14 n=66 v=110
151100 On ch=14 n=66 v=0
151200 On ch=14 n=62 v=110
151580 On ch=14 n=62 v=0
151680 On ch=14 n=62 v=110
152060 On ch=14 n=62 v=0
152160 On ch=14 n=62 v=110
152540 On ch=14 n=62 v=0
152640 On ch=14 n=59 v=110
153020 On ch=14 n=59 v=0
153120 On ch=14 n=57 v=110
153310 On ch=14 n=57 v=0
153366 On ch=14 n=57 v=110
153556 On ch=14 n=57 v=0
153600 On ch=14 n=55 v=110
153980 On ch=14 n=55 v=0
154080 On ch=14 n=57 v=110
154270 On ch=14 n=57 v=0
154326 On ch=14 n=57 v=110
154516 On ch=14 n=57 v=0
154560 On ch=14 n=57 v=110
155320 On ch=14 n=57 v=0
155520 On ch=14 n=57 v=110
155900 On ch=14 n=57 v=0
156480 On ch=14 n=62 v=110
156860 On ch=14 n=62 v=0
156960 On ch=14 n=62 v=110
157245 On ch=14 n=62 v=0
157323 On ch=14 n=64 v=110
157413 On ch=14 n=64 v=0
157440 On ch=14 n=66 v=110
158010 On ch=14 n=66 v=0
158166 On ch=14 n=62 v=110
158356 On ch=14 n=62 v=0
158400 On ch=14 n=62 v=110
158780 On ch=14 n=62 v=0
158880 On ch=14 n=62 v=110
159165 On ch=14 n=62 v=0
159243 On ch=14 n=64 v=110
159333 On ch=14 n=64 v=0
159360 On ch=14 n=66 v=110
159740 On ch=14 n=66 v=0
160320 On ch=14 n=62 v=110
160700 On ch=14 n=62 v=0
160800 On ch=14 n=62 v=110
161085 On ch=14 n=62 v=0
161163 On ch=14 n=64 v=110
161258 On ch=14 n=64 v=0
161280 On ch=14 n=66 v=110
161660 On ch=14 n=66 v=0
162006 On ch=14 n=62 v=110
162196 On ch=14 n=62 v=0
162240 On ch=14 n=62 v=110
162620 On ch=14 n=62 v=0
162720 On ch=14 n=62 v=110
163005 On ch=14 n=62 v=0
163083 On ch=14 n=64 v=110
163173 On ch=14 n=64 v=0
163200 On ch=14 n=66 v=110
163580 On ch=14 n=66 v=0
164640 On ch=14 n=62 v=110
165020 On ch=14 n=62 v=0
165120 On ch=14 n=62 v=110
165500 On ch=14 n=62 v=0
165600 On ch=14 n=57 v=110
165980 On ch=14 n=57 v=0
166080 On ch=14 n=59 v=110
166460 On ch=14 n=59 v=0
166560 On ch=14 n=57 v=110
166940 On ch=14 n=57 v=0
167040 On ch=14 n=61 v=110
167420 On ch=14 n=61 v=0
167520 On ch=14 n=62 v=110
167710 On ch=14 n=62 v=0
167766 On ch=14 n=62 v=110
167956 On ch=14 n=62 v=0
168000 On ch=14 n=62 v=110
168380 On ch=14 n=62 v=0
168480 On ch=14 n=61 v=110
168860 On ch=14 n=61 v=0
168960 On ch=14 n=66 v=110
169340 On ch=14 n=66 v=0
169686 On ch=14 n=62 v=110
169876 On ch=14 n=62 v=0
169920 On ch=14 n=67 v=110
170110 On ch=14 n=67 v=0
170166 On ch=14 n=66 v=110
170356 On ch=14 n=66 v=0
170646 On ch=14 n=62 v=110
170836 On ch=14 n=62 v=0
170880 On ch=14 n=67 v=110
171070 On ch=14 n=67 v=0
171126 On ch=14 n=66 v=110
171316 On ch=14 n=66 v=0
171606 On ch=14 n=62 v=110
171796 On ch=14 n=62 v=0
171840 On ch=14 n=67 v=110
172030 On ch=14 n=67 v=0
172086 On ch=14 n=66 v=110
172276 On ch=14 n=66 v=0
172566 On ch=14 n=62 v=110
172756 On ch=14 n=62 v=0
172800 On ch=14 n=67 v=110
172990 On ch=14 n=67 v=0
173046 On ch=14 n=66 v=110
173236 On ch=14 n=66 v=0
173513 On ch=14 n=62 v=110
173608 On ch=14 n=62 v=0
173643 On ch=14 n=62 v=110
173738 On ch=14 n=62 v=0
173760 On ch=14 n=67 v=110
173950 On ch=14 n=67 v=0
174006 On ch=14 n=66 v=110
174196 On ch=14 n=66 v=0
174473 On ch=14 n=62 v=110
174568 On ch=14 n=62 v=0
174603 On ch=14 n=62 v=110
174698 On ch=14 n=62 v=0
174720 On ch=14 n=67 v=110
174910 On ch=14 n=67 v=0
174966 On ch=14 n=66 v=110
175156 On ch=14 n=66 v=0
175433 On ch=14 n=62 v=110
175528 On ch=14 n=62 v=0
175563 On ch=14 n=62 v=110
175658 On ch=14 n=62 v=0
175680 On ch=14 n=67 v=110
175870 On ch=14 n=67 v=0
175926 On ch=14 n=66 v=110
176116 On ch=14 n=66 v=0
176393 On ch=14 n=62 v=110
176488 On ch=14 n=62 v=0
176523 On ch=14 n=62 v=110
176618 On ch=14 n=62 v=0
176640 On ch=14 n=67 v=110
176830 On ch=14 n=67 v=0
176886 On ch=14 n=66 v=110
177076 On ch=14 n=66 v=0
178080 On ch=14 n=57 v=110
178460 On ch=14 n=57 v=0
178560 On ch=14 n=59 v=110
179700 On ch=14 n=59 v=0
180000 On ch=14 n=59 v=110
180380 On ch=14 n=59 v=0
180480 On ch=14 n=57 v=110
182001 On ch=14 n=57 v=0
182001 Meta TrkEnd
TrkEnd
MTrk
0 Meta 0x21 00
0 Meta TrkName "Bass"
0 PrCh ch=15 p=52
0 Par ch=15 c=7 v=127
0 Par ch=15 c=10 v=100
1338 Par ch=15 c=91 v=80
7680 On ch=15 n=50 v=110
8250 On ch=15 n=50 v=0
8406 On ch=15 n=54 v=110
8596 On ch=15 n=54 v=0
8640 On ch=15 n=55 v=110
8830 On ch=15 n=55 v=0
8886 On ch=15 n=50 v=110
9076 On ch=15 n=50 v=0
9600 On ch=15 n=50 v=110
10170 On ch=15 n=50 v=0
10326 On ch=15 n=54 v=110
10516 On ch=15 n=54 v=0
10560 On ch=15 n=55 v=110
10750 On ch=15 n=55 v=0
10806 On ch=15 n=50 v=110
10996 On ch=15 n=50 v=0
11273 On ch=15 n=54 v=110
11368 On ch=15 n=54 v=0
11403 On ch=15 n=54 v=110
11498 On ch=15 n=54 v=0
11520 On ch=15 n=55 v=110
11710 On ch=15 n=55 v=0
11766 On ch=15 n=50 v=110
11956 On ch=15 n=50 v=0
12233 On ch=15 n=54 v=110
12328 On ch=15 n=54 v=0
12363 On ch=15 n=54 v=110
12458 On ch=15 n=54 v=0
12480 On ch=15 n=55 v=110
12670 On ch=15 n=55 v=0
12726 On ch=15 n=50 v=110
12916 On ch=15 n=50 v=0
13206 On ch=15 n=54 v=110
13396 On ch=15 n=54 v=0
13440 On ch=15 n=52 v=110
13630 On ch=15 n=52 v=0
13686 On ch=15 n=50 v=110
13876 On ch=15 n=50 v=0
13920 On ch=15 n=57 v=110
14110 On ch=15 n=57 v=0
14166 On ch=15 n=57 v=110
14356 On ch=15 n=57 v=0
14400 On ch=15 n=50 v=110
14780 On ch=15 n=50 v=0
15360 On ch=15 n=57 v=110
15930 On ch=15 n=57 v=0
16086 On ch=15 n=61 v=110
16276 On ch=15 n=61 v=0
16320 On ch=15 n=62 v=110
16510 On ch=15 n=62 v=0
16566 On ch=15 n=57 v=110
16756 On ch=15 n=57 v=0
17280 On ch=15 n=57 v=110
17850 On ch=15 n=57 v=0
18006 On ch=15 n=61 v=110
18196 On ch=15 n=61 v=0
18240 On ch=15 n=62 v=110
18430 On ch=15 n=62 v=0
18486 On ch=15 n=57 v=110
18676 On ch=15 n=57 v=0
18953 On ch=15 n=61 v=110
19048 On ch=15 n=61 v=0
19083 On ch=15 n=61 v=110
19178 On ch=15 n=61 v=0
19200 On ch=15 n=62 v=110
19390 On ch=15 n=62 v=0
19446 On ch=15 n=57 v=110
19636 On ch=15 n=57 v=0
19913 On ch=15 n=61 v=110
20008 On ch=15 n=61 v=0
20043 On ch=15 n=61 v=110
20138 On ch=15 n=61 v=0
20160 On ch=15 n=62 v=110
20350 On ch=15 n=62 v=0
20406 On ch=15 n=57 v=110
20596 On ch=15 n=57 v=0
20886 On ch=15 n=61 v=110
21076 On ch=15 n=61 v=0
21120 On ch=15 n=62 v=110
21310 On ch=15 n=62 v=0
21366 On ch=15 n=61 v=110
21556 On ch=15 n=61 v=0
21600 On ch=15 n=59 v=110
21980 On ch=15 n=59 v=0
23040 On ch=15 n=57 v=110
23800 On ch=15 n=57 v=0
24000 On ch=15 n=59 v=110
24380 On ch=15 n=59 v=0
24480 On ch=15 n=61 v=110
24860 On ch=15 n=61 v=0
24960 On ch=15 n=62 v=110
25150 On ch=15 n=62 v=0
25206 On ch=15 n=50 v=110
25396 On ch=15 n=50 v=0
25440 On ch=15 n=62 v=110
26010 On ch=15 n=62 v=0
26166 On ch=15 n=62 v=110
26356 On ch=15 n=62 v=0
26400 On ch=15 n=61 v=110
26780 On ch=15 n=61 v=0
26880 On ch=15 n=59 v=110
27640 On ch=15 n=59 v=0
27840 On ch=15 n=57 v=110
28220 On ch=15 n=57 v=0
28553 On ch=15 n=61 v=110
28648 On ch=15 n=61 v=0
28683 On ch=15 n=61 v=110
28778 On ch=15 n=61 v=0
28800 On ch=15 n=62 v=110
28990 On ch=15 n=62 v=0
29046 On ch=15 n=57 v=110
29236 On ch=15 n=57 v=0
29513 On ch=15 n=61 v=110
29608 On ch=15 n=61 v=0
29643 On ch=15 n=61 v=110
29738 On ch=15 n=61 v=0
29760 On ch=15 n=62 v=110
29950 On ch=15 n=62 v=0
30006 On ch=15 n=57 v=110
30196 On ch=15 n=57 v=0
30473 On ch=15 n=61 v=110
30568 On ch=15 n=61 v=0
30603 On ch=15 n=61 v=110
30698 On ch=15 n=61 v=0
30720 On ch=15 n=62 v=110
30910 On ch=15 n=62 v=0
30966 On ch=15 n=57 v=110
31156 On ch=15 n=57 v=0
31433 On ch=15 n=61 v=110
31528 On ch=15 n=61 v=0
31563 On ch=15 n=61 v=110
31658 On ch=15 n=61 v=0
31680 On ch=15 n=62 v=110
31870 On ch=15 n=62 v=0
31926 On ch=15 n=57 v=110
32116 On ch=15 n=57 v=0
32640 On ch=15 n=50 v=110
33400 On ch=15 n=50 v=0
33600 On ch=15 n=52 v=110
33980 On ch=15 n=52 v=0
34080 On ch=15 n=54 v=110
34460 On ch=15 n=54 v=0
34560 On ch=15 n=55 v=110
34750 On ch=15 n=55 v=0
34806 On ch=15 n=43 v=110
34996 On ch=15 n=43 v=0
35040 On ch=15 n=55 v=110
35610 On ch=15 n=55 v=0
35766 On ch=15 n=55 v=110
35956 On ch=15 n=55 v=0
36000 On ch=15 n=54 v=110
36380 On ch=15 n=54 v=0
36480 On ch=15 n=52 v=110
37240 On ch=15 n=52 v=0
37440 On ch=15 n=50 v=110
37820 On ch=15 n=50 v=0
38153 On ch=15 n=54 v=110
38248 On ch=15 n=54 v=0
38283 On ch=15 n=54 v=110
38378 On ch=15 n=54 v=0
38400 On ch=15 n=55 v=110
38590 On ch=15 n=55 v=0
38646 On ch=15 n=50 v=110
38836 On ch=15 n=50 v=0
39113 On ch=15 n=54 v=110
39208 On ch=15 n=54 v=0
39243 On ch=15 n=54 v=110
39338 On ch=15 n=54 v=0
39360 On ch=15 n=55 v=110
39550 On ch=15 n=55 v=0
39606 On ch=15 n=50 v=110
39796 On ch=15 n=50 v=0
40073 On ch=15 n=54 v=110
40168 On ch=15 n=54 v=0
40203 On ch=15 n=54 v=110
40298 On ch=15 n=54 v=0
40320 On ch=15 n=55 v=110
40510 On ch=15 n=55 v=0
40566 On ch=15 n=50 v=110
40756 On ch=15 n=50 v=0
41033 On ch=15 n=54 v=110
41128 On ch=15 n=54 v=0
41163 On ch=15 n=54 v=110
41258 On ch=15 n=54 v=0
41280 On ch=15 n=55 v=110
41470 On ch=15 n=55 v=0
41526 On ch=15 n=50 v=110
41716 On ch=15 n=50 v=0
46793 On ch=15 n=57 v=110
46888 On ch=15 n=57 v=0
46923 On ch=15 n=57 v=110
47018 On ch=15 n=57 v=0
47040 On ch=15 n=54 v=110
47230 On ch=15 n=54 v=0
47286 On ch=15 n=50 v=110
47476 On ch=15 n=50 v=0
48000 On ch=15 n=57 v=110
48760 On ch=15 n=57 v=0
48960 On ch=15 n=59 v=110
49340 On ch=15 n=59 v=0
49440 On ch=15 n=61 v=110
49820 On ch=15 n=61 v=0
49920 On ch=15 n=62 v=110
50110 On ch=15 n=62 v=0
50166 On ch=15 n=50 v=110
50356 On ch=15 n=50 v=0
50400 On ch=15 n=62 v=110
50970 On ch=15 n=62 v=0
51126 On ch=15 n=62 v=110
51316 On ch=15 n=62 v=0
51360 On ch=15 n=61 v=110
51740 On ch=15 n=61 v=0
51840 On ch=15 n=59 v=110
52600 On ch=15 n=59 v=0
52800 On ch=15 n=57 v=110
53180 On ch=15 n=57 v=0
53513 On ch=15 n=57 v=110
53608 On ch=15 n=57 v=0
53643 On ch=15 n=57 v=110
53738 On ch=15 n=57 v=0
53760 On ch=15 n=54 v=110
53950 On ch=15 n=54 v=0
54006 On ch=15 n=50 v=110
54196 On ch=15 n=50 v=0
54473 On ch=15 n=62 v=110
54568 On ch=15 n=62 v=0
54603 On ch=15 n=62 v=110
54698 On ch=15 n=62 v=0
54720 On ch=15 n=61 v=110
54910 On ch=15 n=61 v=0
54966 On ch=15 n=57 v=110
55156 On ch=15 n=57 v=0
56380 On ch=15 n=62 v=110
56475 On ch=15 n=62 v=0
56523 On ch=15 n=62 v=110
56618 On ch=15 n=62 v=0
56640 On ch=15 n=61 v=110
56830 On ch=15 n=61 v=0
56886 On ch=15 n=57 v=110
57076 On ch=15 n=57 v=0
57353 On ch=15 n=62 v=110
57448 On ch=15 n=62 v=0
57483 On ch=15 n=62 v=110
57578 On ch=15 n=62 v=0
57600 On ch=15 n=59 v=110
57790 On ch=15 n=59 v=0
57846 On ch=15 n=55 v=110
58036 On ch=15 n=55 v=0
58313 On ch=15 n=52 v=110
58408 On ch=15 n=52 v=0
58443 On ch=15 n=52 v=110
58538 On ch=15 n=52 v=0
58560 On ch=15 n=57 v=110
58750 On ch=15 n=57 v=0
58806 On ch=15 n=57 v=110
58996 On ch=15 n=57 v=0
59273 On ch=15 n=59 v=110
59368 On ch=15 n=59 v=0
59403 On ch=15 n=59 v=110
59498 On ch=15 n=59 v=0
59520 On ch=15 n=55 v=110
59710 On ch=15 n=55 v=0
59753 On ch=15 n=52 v=110
59848 On ch=15 n=52 v=0
59883 On ch=15 n=52 v=110
59978 On ch=15 n=52 v=0
60000 On ch=15 n=57 v=110
60285 On ch=15 n=57 v=0
60363 On ch=15 n=55 v=110
60458 On ch=15 n=55 v=0
60480 On ch=15 n=54 v=110
60860 On ch=15 n=54 v=0
61193 On ch=15 n=62 v=110
61288 On ch=15 n=62 v=0
61323 On ch=15 n=62 v=110
61418 On ch=15 n=62 v=0
61440 On ch=15 n=59 v=110
61630 On ch=15 n=59 v=0
61673 On ch=15 n=55 v=110
61768 On ch=15 n=55 v=0
61803 On ch=15 n=55 v=110
61898 On ch=15 n=55 v=0
61920 On ch=15 n=59 v=110
62110 On ch=15 n=59 v=0
62166 On ch=15 n=61 v=110
62356 On ch=15 n=61 v=0
64320 On ch=15 n=50 v=110
64700 On ch=15 n=50 v=0
64800 On ch=15 n=50 v=110
65180 On ch=15 n=50 v=0
65280 On ch=15 n=49 v=110
65660 On ch=15 n=49 v=0
65760 On ch=15 n=47 v=110
66140 On ch=15 n=47 v=0
66240 On ch=15 n=45 v=110
66620 On ch=15 n=45 v=0
66720 On ch=15 n=55 v=110
67005 On ch=15 n=55 v=0
67083 On ch=15 n=54 v=110
67178 On ch=15 n=54 v=0
67200 On ch=15 n=54 v=110
68340 On ch=15 n=54 v=0
70080 On ch=15 n=45 v=110
70650 On ch=15 n=45 v=0
70793 On ch=15 n=45 v=110
70983 On ch=15 n=45 v=0
71040 On ch=15 n=50 v=110
72180 On ch=15 n=50 v=0
72480 On ch=15 n=62 v=110
72860 On ch=15 n=62 v=0
72960 On ch=15 n=61 v=110
73340 On ch=15 n=61 v=0
73440 On ch=15 n=59 v=110
73820 On ch=15 n=59 v=0
73920 On ch=15 n=57 v=110
74300 On ch=15 n=57 v=0
74400 On ch=15 n=55 v=110
74685 On ch=15 n=55 v=0
74763 On ch=15 n=54 v=110
74858 On ch=15 n=54 v=0
74880 On ch=15 n=54 v=110
75450 On ch=15 n=54 v=0
75606 On ch=15 n=52 v=110
75796 On ch=15 n=52 v=0
75840 On ch=15 n=50 v=110
76220 On ch=15 n=50 v=0
76320 On ch=15 n=59 v=110
76700 On ch=15 n=59 v=0
76800 On ch=15 n=57 v=110
77370 On ch=15 n=57 v=0
77526 On ch=15 n=54 v=110
77716 On ch=15 n=54 v=0
77760 On ch=15 n=55 v=110
78140 On ch=15 n=55 v=0
78240 On ch=15 n=52 v=110
78620 On ch=15 n=52 v=0
78720 On ch=15 n=50 v=110
79290 On ch=15 n=50 v=0
79446 On ch=15 n=57 v=110
79636 On ch=15 n=57 v=0
79680 On ch=15 n=62 v=110
80060 On ch=15 n=62 v=0
80160 On ch=15 n=54 v=110
80540 On ch=15 n=54 v=0
80640 On ch=15 n=59 v=110
81020 On ch=15 n=59 v=0
81120 On ch=15 n=50 v=110
81500 On ch=15 n=50 v=0
81600 On ch=15 n=55 v=110
81980 On ch=15 n=55 v=0
82080 On ch=15 n=54 v=110
82270 On ch=15 n=54 v=0
82326 On ch=15 n=52 v=110
82516 On ch=15 n=52 v=0
82560 On ch=15 n=52 v=110
83320 On ch=15 n=52 v=0
83520 On ch=15 n=50 v=110
83900 On ch=15 n=50 v=0
85206 On ch=15 n=57 v=110
85396 On ch=15 n=57 v=0
85440 On ch=15 n=62 v=110
85630 On ch=15 n=62 v=0
85686 On ch=15 n=50 v=110
85876 On ch=15 n=50 v=0
86166 On ch=15 n=54 v=110
86356 On ch=15 n=54 v=0
86400 On ch=15 n=59 v=110
86590 On ch=15 n=59 v=0
86646 On ch=15 n=56 v=110
86836 On ch=15 n=56 v=0
86880 On ch=15 n=57 v=110
87260 On ch=15 n=57 v=0
87606 On ch=15 n=52 v=110
87796 On ch=15 n=52 v=0
87840 On ch=15 n=50 v=110
88030 On ch=15 n=50 v=0
88086 On ch=15 n=52 v=110
88276 On ch=15 n=52 v=0
88320 On ch=15 n=49 v=110
88510 On ch=15 n=49 v=0
88566 On ch=15 n=57 v=110
88756 On ch=15 n=57 v=0
88800 On ch=15 n=55 v=110
88990 On ch=15 n=55 v=0
89046 On ch=15 n=57 v=110
89236 On ch=15 n=57 v=0
89280 On ch=15 n=54 v=110
89660 On ch=15 n=54 v=0
90006 On ch=15 n=54 v=110
90196 On ch=15 n=54 v=0
90240 On ch=15 n=55 v=110
90430 On ch=15 n=55 v=0
90486 On ch=15 n=50 v=110
90676 On ch=15 n=50 v=0
91926 On ch=15 n=55 v=110
92116 On ch=15 n=55 v=0
92160 On ch=15 n=57 v=110
92350 On ch=15 n=57 v=0
92406 On ch=15 n=45 v=110
92596 On ch=15 n=45 v=0
92886 On ch=15 n=57 v=110
93076 On ch=15 n=57 v=0
93120 On ch=15 n=54 v=110
93310 On ch=15 n=54 v=0
93366 On ch=15 n=50 v=110
93556 On ch=15 n=50 v=0
93846 On ch=15 n=62 v=110
94036 On ch=15 n=62 v=0
94080 On ch=15 n=61 v=110
94270 On ch=15 n=61 v=0
94326 On ch=15 n=57 v=110
94516 On ch=15 n=57 v=0
94793 On ch=15 n=61 v=110
94983 On ch=15 n=61 v=0
95039 On ch=15 n=62 v=110
95229 On ch=15 n=62 v=0
95273 On ch=15 n=50 v=110
95463 On ch=15 n=50 v=0
95753 On ch=15 n=54 v=110
95943 On ch=15 n=54 v=0
96000 On ch=15 n=59 v=110
96190 On ch=15 n=59 v=0
96246 On ch=15 n=56 v=110
96436 On ch=15 n=56 v=0
96480 On ch=15 n=57 v=110
96670 On ch=15 n=57 v=0
96726 On ch=15 n=50 v=110
96916 On ch=15 n=50 v=0
96960 On ch=15 n=52 v=110
97150 On ch=15 n=52 v=0
97206 On ch=15 n=52 v=110
97396 On ch=15 n=52 v=0
97686 On ch=15 n=52 v=110
97876 On ch=15 n=52 v=0
97920 On ch=15 n=49 v=110
98300 On ch=15 n=49 v=0
98400 On ch=15 n=45 v=110
98780 On ch=15 n=45 v=0
100566 On ch=15 n=61 v=110
100756 On ch=15 n=61 v=0
100800 On ch=15 n=62 v=110
100990 On ch=15 n=62 v=0
101046 On ch=15 n=57 v=110
101236 On ch=15 n=57 v=0
101526 On ch=15 n=61 v=110
101716 On ch=15 n=61 v=0
101760 On ch=15 n=62 v=110
101950 On ch=15 n=62 v=0
102006 On ch=15 n=57 v=110
102196 On ch=15 n=57 v=0
102473 On ch=15 n=61 v=110
102568 On ch=15 n=61 v=0
102603 On ch=15 n=61 v=110
102698 On ch=15 n=61 v=0
102720 On ch=15 n=62 v=110
102910 On ch=15 n=62 v=0
102966 On ch=15 n=57 v=110
103156 On ch=15 n=57 v=0
103433 On ch=15 n=61 v=110
103528 On ch=15 n=61 v=0
103563 On ch=15 n=61 v=110
103658 On ch=15 n=61 v=0
103680 On ch=15 n=62 v=110
103870 On ch=15 n=62 v=0
103926 On ch=15 n=57 v=110
104116 On ch=15 n=57 v=0
106326 On ch=15 n=61 v=110
106516 On ch=15 n=61 v=0
106560 On ch=15 n=62 v=110
106750 On ch=15 n=62 v=0
106806 On ch=15 n=57 v=110
106996 On ch=15 n=57 v=0
107286 On ch=15 n=61 v=110
107476 On ch=15 n=61 v=0
107520 On ch=15 n=62 v=110
107710 On ch=15 n=62 v=0
107766 On ch=15 n=57 v=110
107956 On ch=15 n=57 v=0
108233 On ch=15 n=61 v=110
108328 On ch=15 n=61 v=0
108363 On ch=15 n=61 v=110
108458 On ch=15 n=61 v=0
108480 On ch=15 n=62 v=110
108670 On ch=15 n=62 v=0
108726 On ch=15 n=57 v=110
108916 On ch=15 n=57 v=0
109193 On ch=15 n=61 v=110
109288 On ch=15 n=61 v=0
109323 On ch=15 n=61 v=110
109418 On ch=15 n=61 v=0
109440 On ch=15 n=62 v=110
109630 On ch=15 n=62 v=0
109686 On ch=15 n=57 v=110
109876 On ch=15 n=57 v=0
112086 On ch=15 n=54 v=110
112276 On ch=15 n=54 v=0
112320 On ch=15 n=55 v=110
112510 On ch=15 n=55 v=0
112566 On ch=15 n=50 v=110
112756 On ch=15 n=50 v=0
113046 On ch=15 n=54 v=110
113236 On ch=15 n=54 v=0
113280 On ch=15 n=55 v=110
113470 On ch=15 n=55 v=0
113526 On ch=15 n=50 v=110
113716 On ch=15 n=50 v=0
113993 On ch=15 n=54 v=110
114088 On ch=15 n=54 v=0
114123 On ch=15 n=54 v=110
114218 On ch=15 n=54 v=0
114240 On ch=15 n=55 v=110
114430 On ch=15 n=55 v=0
114486 On ch=15 n=50 v=110
114676 On ch=15 n=50 v=0
114953 On ch=15 n=54 v=110
115048 On ch=15 n=54 v=0
115083 On ch=15 n=54 v=110
115178 On ch=15 n=54 v=0
115200 On ch=15 n=55 v=110
115390 On ch=15 n=55 v=0
115446 On ch=15 n=50 v=110
115636 On ch=15 n=50 v=0
117846 On ch=15 n=56 v=110
118036 On ch=15 n=56 v=0
118080 On ch=15 n=57 v=110
118270 On ch=15 n=57 v=0
118326 On ch=15 n=52 v=110
118516 On ch=15 n=52 v=0
118806 On ch=15 n=56 v=110
118996 On ch=15 n=56 v=0
119040 On ch=15 n=57 v=110
119230 On ch=15 n=57 v=0
119286 On ch=15 n=52 v=110
119476 On ch=15 n=52 v=0
119753 On ch=15 n=56 v=110
119848 On ch=15 n=56 v=0
119883 On ch=15 n=56 v=110
119978 On ch=15 n=56 v=0
120000 On ch=15 n=57 v=110
120190 On ch=15 n=57 v=0
120246 On ch=15 n=52 v=110
120436 On ch=15 n=52 v=0
120713 On ch=15 n=56 v=110
120808 On ch=15 n=56 v=0
120843 On ch=15 n=56 v=110
120938 On ch=15 n=56 v=0
120960 On ch=15 n=57 v=110
121150 On ch=15 n=57 v=0
121206 On ch=15 n=52 v=110
121396 On ch=15 n=52 v=0
123606 On ch=15 n=58 v=110
123796 On ch=15 n=58 v=0
123840 On ch=15 n=59 v=110
124030 On ch=15 n=59 v=0
124086 On ch=15 n=54 v=110
124276 On ch=15 n=54 v=0
124566 On ch=15 n=58 v=110
124756 On ch=15 n=58 v=0
124800 On ch=15 n=59 v=110
124990 On ch=15 n=59 v=0
125046 On ch=15 n=54 v=110
125236 On ch=15 n=54 v=0
125513 On ch=15 n=58 v=110
125608 On ch=15 n=58 v=0
125643 On ch=15 n=58 v=110
125738 On ch=15 n=58 v=0
125760 On ch=15 n=59 v=110
125950 On ch=15 n=59 v=0
126006 On ch=15 n=54 v=110
126196 On ch=15 n=54 v=0
126473 On ch=15 n=58 v=110
126568 On ch=15 n=58 v=0
126603 On ch=15 n=58 v=110
126698 On ch=15 n=58 v=0
126720 On ch=15 n=59 v=110
127100 On ch=15 n=59 v=0
127200 On ch=15 n=47 v=110
127580 On ch=15 n=47 v=0
129600 On ch=15 n=59 v=110
129980 On ch=15 n=59 v=0
130080 On ch=15 n=59 v=110
130460 On ch=15 n=59 v=0
130560 On ch=15 n=61 v=110
131130 On ch=15 n=61 v=0
131286 On ch=15 n=61 v=110
131476 On ch=15 n=61 v=0
131520 On ch=15 n=62 v=110
131900 On ch=15 n=62 v=0
132000 On ch=15 n=50 v=110
132380 On ch=15 n=50 v=0
132480 On ch=15 n=57 v=110
133050 On ch=15 n=57 v=0
133206 On ch=15 n=45 v=110
133396 On ch=15 n=45 v=0
133440 On ch=15 n=57 v=110
133820 On ch=15 n=57 v=0
133920 On ch=15 n=49 v=110
134300 On ch=15 n=49 v=0
134400 On ch=15 n=54 v=110
134780 On ch=15 n=54 v=0
134880 On ch=15 n=45 v=110
135260 On ch=15 n=45 v=0
135360 On ch=15 n=50 v=110
135740 On ch=15 n=50 v=0
135840 On ch=15 n=49 v=110
136030 On ch=15 n=49 v=0
136086 On ch=15 n=49 v=110
136276 On ch=15 n=49 v=0
136320 On ch=15 n=47 v=110
137080 On ch=15 n=47 v=0
137280 On ch=15 n=45 v=110
137660 On ch=15 n=45 v=0
139446 On ch=15 n=50 v=110
139636 On ch=15 n=50 v=0
139680 On ch=15 n=55 v=110
139870 On ch=15 n=55 v=0
139926 On ch=15 n=54 v=110
140116 On ch=15 n=54 v=0
140160 On ch=15 n=52 v=110
140540 On ch=15 n=52 v=0
140640 On ch=15 n=54 v=110
140830 On ch=15 n=54 v=0
140886 On ch=15 n=55 v=110
141076 On ch=15 n=55 v=0
141120 On ch=15 n=57 v=110
141500 On ch=15 n=57 v=0
141600 On ch=15 n=55 v=110
141790 On ch=15 n=55 v=0
141846 On ch=15 n=57 v=110
142036 On ch=15 n=57 v=0
142080 On ch=15 n=54 v=110
142460 On ch=15 n=54 v=0
142560 On ch=15 n=50 v=110
142940 On ch=15 n=50 v=0
143040 On ch=15 n=62 v=110
143420 On ch=15 n=62 v=0
143520 On ch=15 n=62 v=110
143900 On ch=15 n=62 v=0
144000 On ch=15 n=62 v=110
144380 On ch=15 n=62 v=0
144726 On ch=15 n=54 v=110
144916 On ch=15 n=54 v=0
144960 On ch=15 n=55 v=110
145150 On ch=15 n=55 v=0
145206 On ch=15 n=50 v=110
145396 On ch=15 n=50 v=0
145686 On ch=15 n=54 v=110
145876 On ch=15 n=54 v=0
145920 On ch=15 n=55 v=110
146110 On ch=15 n=55 v=0
146166 On ch=15 n=50 v=110
146356 On ch=15 n=50 v=0
146646 On ch=15 n=62 v=110
146836 On ch=15 n=62 v=0
146880 On ch=15 n=62 v=110
147260 On ch=15 n=62 v=0
147360 On ch=15 n=62 v=110
147740 On ch=15 n=62 v=0
147840 On ch=15 n=62 v=110
148220 On ch=15 n=62 v=0
148553 On ch=15 n=54 v=110
148648 On ch=15 n=54 v=0
148683 On ch=15 n=54 v=110
148778 On ch=15 n=54 v=0
148800 On ch=15 n=55 v=110
148990 On ch=15 n=55 v=0
149046 On ch=15 n=50 v=110
149236 On ch=15 n=50 v=0
149513 On ch=15 n=54 v=110
149608 On ch=15 n=54 v=0
149643 On ch=15 n=54 v=110
149738 On ch=15 n=54 v=0
149760 On ch=15 n=55 v=110
149950 On ch=15 n=55 v=0
150006 On ch=15 n=50 v=110
150196 On ch=15 n=50 v=0
150486 On ch=15 n=50 v=110
150676 On ch=15 n=50 v=0
150720 On ch=15 n=62 v=110
151100 On ch=15 n=62 v=0
151200 On ch=15 n=54 v=110
151580 On ch=15 n=54 v=0
151680 On ch=15 n=59 v=110
152060 On ch=15 n=59 v=0
152160 On ch=15 n=50 v=110
152540 On ch=15 n=50 v=0
152640 On ch=15 n=55 v=110
153020 On ch=15 n=55 v=0
153120 On ch=15 n=54 v=110
153310 On ch=15 n=54 v=0
153366 On ch=15 n=54 v=110
153556 On ch=15 n=54 v=0
153600 On ch=15 n=52 v=110
153980 On ch=15 n=52 v=0
154080 On ch=15 n=50 v=110
154270 On ch=15 n=50 v=0
154326 On ch=15 n=50 v=110
154516 On ch=15 n=50 v=0
154560 On ch=15 n=57 v=110
155320 On ch=15 n=57 v=0
155520 On ch=15 n=50 v=110
155900 On ch=15 n=50 v=0
156480 On ch=15 n=50 v=110
156860 On ch=15 n=50 v=0
156960 On ch=15 n=50 v=110
157340 On ch=15 n=50 v=0
157440 On ch=15 n=62 v=110
157820 On ch=15 n=62 v=0
158166 On ch=15 n=50 v=110
158356 On ch=15 n=50 v=0
158400 On ch=15 n=50 v=110
158780 On ch=15 n=50 v=0
158880 On ch=15 n=50 v=110
159260 On ch=15 n=50 v=0
159360 On ch=15 n=62 v=110
159740 On ch=15 n=62 v=0
160320 On ch=15 n=50 v=110
160700 On ch=15 n=50 v=0
160800 On ch=15 n=50 v=110
161180 On ch=15 n=50 v=0
161280 On ch=15 n=62 v=110
161660 On ch=15 n=62 v=0
162006 On ch=15 n=50 v=110
162196 On ch=15 n=50 v=0
162240 On ch=15 n=50 v=110
162620 On ch=15 n=50 v=0
162720 On ch=15 n=50 v=110
163100 On ch=15 n=50 v=0
163200 On ch=15 n=62 v=110
163580 On ch=15 n=62 v=0
163926 On ch=15 n=50 v=110
164116 On ch=15 n=50 v=0
164160 On ch=15 n=62 v=110
164540 On ch=15 n=62 v=0
164640 On ch=15 n=54 v=110
165020 On ch=15 n=54 v=0
165120 On ch=15 n=59 v=110
165500 On ch=15 n=59 v=0
165600 On ch=15 n=50 v=110
165980 On ch=15 n=50 v=0
166080 On ch=15 n=55 v=110
166460 On ch=15 n=55 v=0
166560 On ch=15 n=54 v=110
166750 On ch=15 n=54 v=0
166806 On ch=15 n=54 v=110
166996 On ch=15 n=54 v=0
167040 On ch=15 n=52 v=110
167420 On ch=15 n=52 v=0
167520 On ch=15 n=50 v=110
167710 On ch=15 n=50 v=0
167766 On ch=15 n=50 v=110
167956 On ch=15 n=50 v=0
168000 On ch=15 n=57 v=110
168760 On ch=15 n=57 v=0
168960 On ch=15 n=50 v=110
169340 On ch=15 n=50 v=0
169686 On ch=15 n=54 v=110
169876 On ch=15 n=54 v=0
169920 On ch=15 n=55 v=110
170110 On ch=15 n=55 v=0
170166 On ch=15 n=50 v=110
170356 On ch=15 n=50 v=0
170646 On ch=15 n=54 v=110
170836 On ch=15 n=54 v=0
170880 On ch=15 n=55 v=110
171070 On ch=15 n=55 v=0
171126 On ch=15 n=50 v=110
171316 On ch=15 n=50 v=0
171606 On ch=15 n=54 v=110
171796 On ch=15 n=54 v=0
171840 On ch=15 n=55 v=110
172030 On ch=15 n=55 v=0
172086 On ch=15 n=50 v=110
172276 On ch=15 n=50 v=0
172566 On ch=15 n=54 v=110
172756 On ch=15 n=54 v=0
172800 On ch=15 n=55 v=110
172990 On ch=15 n=55 v=0
173046 On ch=15 n=50 v=110
173236 On ch=15 n=50 v=0
173513 On ch=15 n=54 v=110
173608 On ch=15 n=54 v=0
173643 On ch=15 n=54 v=110
173738 On ch=15 n=54 v=0
173760 On ch=15 n=55 v=110
173950 On ch=15 n=55 v=0
174006 On ch=15 n=50 v=110
174196 On ch=15 n=50 v=0
174473 On ch=15 n=54 v=110
174568 On ch=15 n=54 v=0
174603 On ch=15 n=54 v=110
174698 On ch=15 n=54 v=0
174720 On ch=15 n=55 v=110
174910 On ch=15 n=55 v=0
174966 On ch=15 n=50 v=110
175156 On ch=15 n=50 v=0
175433 On ch=15 n=54 v=110
175528 On ch=15 n=54 v=0
175563 On ch=15 n=54 v=110
175658 On ch=15 n=54 v=0
175680 On ch=15 n=55 v=110
175870 On ch=15 n=55 v=0
175926 On ch=15 n=50 v=110
176116 On ch=15 n=50 v=0
176393 On ch=15 n=54 v=110
176488 On ch=15 n=54 v=0
176523 On ch=15 n=54 v=110
176618 On ch=15 n=54 v=0
176640 On ch=15 n=55 v=110
176830 On ch=15 n=55 v=0
176886 On ch=15 n=50 v=110
177076 On ch=15 n=50 v=0
178080 On ch=15 n=50 v=110
178460 On ch=15 n=50 v=0
178560 On ch=15 n=55 v=110
179700 On ch=15 n=55 v=0
180000 On ch=15 n=55 v=110
180380 On ch=15 n=55 v=0
180480 On ch=15 n=50 v=110
182001 On ch=15 n=50 v=0
182001 Meta TrkEnd
TrkEnd
MTrk
0 Meta 0x21 00
0 Meta TrkName "No. 42: Chorus: Hallelujah"
0 Meta TrkEnd
TrkEnd
MTrk
0 Meta 0x21 00
0 Meta TrkName "From "The Messiah", oratorio "
0 Meta TrkEnd
TrkEnd
MTrk
0 Meta 0x21 00
0 Meta TrkName "by G. F. Handel (1740)."
0 Meta TrkEnd
TrkEnd
MTrk
0 Meta 0x21 00
0 Meta TrkName "Based on Eulenberg #956"
0 Meta TrkEnd
TrkEnd
MTrk
0 Meta 0x21 00
0 Meta TrkName "Score by Schering/Soldan"
0 Meta TrkEnd
TrkEnd
MTrk
0 Meta 0x21 00
0 Meta TrkName "Adapted for MIDI by"
0 Meta TrkEnd
TrkEnd
MTrk
0 Meta 0x21 00
0 Meta TrkName "Peter Modin."
0 Meta TrkEnd
TrkEnd
MTrk
0 Meta 0x21 00
0 Meta TrkName "Work completed"
0 Meta TrkEnd
TrkEnd
MTrk
0 Meta 0x21 00
0 Meta TrkName "June 1, 1998"
0 Meta TrkEnd
TrkEnd
MTrk
0 Meta 0x21 00
0 Meta TrkName "using Digital Orchestrator Plus."
0 Meta TrkEnd
TrkEnd
MTrk
0 Meta 0x21 00
0 Meta TrkName "peter_modin@hotmail.com"
0 Meta TrkEnd
TrkEnd
