MFile 1 26 480
MTrk
0 TimeSig 4/4 24 8
0 KeySig 253 major
0 SMPTE 32 0 0 0 1
0 Tempo 857142
3840 Tempo 500000
7680 KeySig 255 major
49920 Tempo 480000
65520 Tempo 461538
65760 Tempo 459605
66000 Tempo 458644
66240 Tempo 457687
66480 Tempo 456735
66720 Tempo 455786
66960 Tempo 454841
67200 Tempo 453900
67440 Tempo 452963
67680 Tempo 452030
67920 Tempo 451101
68160 Tempo 450176
68400 Tempo 449254
68640 Tempo 448336
68880 Tempo 447422
69120 Tempo 446511
69360 Tempo 445604
69600 Tempo 444702
69840 Tempo 443802
70080 Tempo 442906
70320 Tempo 442014
70560 Tempo 441125
70800 Tempo 440240
71040 Tempo 439359
71280 Tempo 438481
71520 Tempo 437607
71760 Tempo 436735
72000 Tempo 435868
72240 Tempo 435004
72480 Tempo 434143
72720 Tempo 433286
72960 Tempo 432432
73200 Tempo 431582
73440 Tempo 430734
73680 Tempo 429890
73920 Tempo 429050
74160 Tempo 428213
74400 Tempo 427379
74640 Tempo 426548
74880 Tempo 425720
75120 Tempo 424896
75360 Tempo 424075
75600 Tempo 423257
75840 Tempo 422442
76080 Tempo 421630
76320 Tempo 420821
76560 Tempo 420016
76800 Tempo 419213
77040 Tempo 418414
77280 Tempo 417618
77520 Tempo 416825
77760 Tempo 416034
78000 Tempo 415247
78240 Tempo 414463
78480 Tempo 413681
78720 Tempo 412903
78960 Tempo 412127
79200 Tempo 411355
79440 Tempo 410585
79680 Tempo 409818
79920 Tempo 409053
80160 Tempo 408293
80400 Tempo 407535
80640 Tempo 406779
80880 Tempo 406027
81120 Tempo 405277
81360 Tempo 404529
81600 Tempo 403785
81840 Tempo 403044
82080 Tempo 402304
82320 Tempo 401568
82560 Tempo 400835
82800 Tempo 400104
83040 Tempo 399376
83280 Tempo 398650
83520 Tempo 397927
83760 Tempo 397207
84000 Tempo 396489
84240 Tempo 395774
84480 Tempo 395061
84720 Tempo 394351
84960 Tempo 393644
85200 Tempo 392939
85440 Tempo 392237
85680 Tempo 391537
85920 Tempo 390839
86160 Tempo 390144
86400 Tempo 389452
86640 Tempo 388762
86880 Tempo 388074
87120 Tempo 387389
87360 Tempo 386707
87600 Tempo 386025
87840 Tempo 385348
88080 Tempo 384673
88320 Tempo 384000
88560 Tempo 383329
88800 Tempo 382660
89040 Tempo 381994
89280 Tempo 381330
89520 Tempo 380669
89760 Tempo 380009
90000 Tempo 379353
90240 Tempo 378698
90480 Tempo 378045
90720 Tempo 377395
90960 Tempo 376747
91200 Tempo 376101
91440 Tempo 375458
91680 Tempo 374817
91920 Tempo 374177
92160 Tempo 373540
92400 Tempo 372906
92640 Tempo 372273
92880 Tempo 371642
93120 Tempo 371014
93360 Tempo 370388
93600 Tempo 369764
93840 Tempo 369142
94080 KeySig 2 minor
94080 Tempo 368522
94320 Tempo 367904
94560 Tempo 367288
94800 Tempo 366674
95040 Tempo 366063
95280 Tempo 365453
95520 Tempo 364845
95760 Tempo 363636
145920 Tempo 299999
149760 Tempo 363636
153600 Tempo 299999
157440 Tempo 363636
161280 Tempo 285714
165120 Tempo 363636
165120 Meta TrkEnd
TrkEnd
MTrk
0 Meta 0x20 00
0 Meta TrkName "Piccolo "
0 Meta InstrName "Flauto piccolo"
111840 On ch=1 n=97 v=110
111960 On ch=1 n=94 v=110
111990 On ch=1 n=97 v=0
112080 On ch=1 n=97 v=110
112110 On ch=1 n=94 v=0
112170 On ch=1 n=97 v=0
112800 On ch=1 n=97 v=110
112920 On ch=1 n=94 v=110
112950 On ch=1 n=97 v=0
113040 On ch=1 n=97 v=110
113070 On ch=1 n=94 v=0
113130 On ch=1 n=97 v=0
113760 On ch=1 n=98 v=110
113880 On ch=1 n=94 v=110
113910 On ch=1 n=98 v=0
114000 On ch=1 n=98 v=110
114030 On ch=1 n=94 v=0
114240 On ch=1 n=98 v=0
114720 On ch=1 n=97 v=110
114840 On ch=1 n=94 v=110
114870 On ch=1 n=97 v=0
114960 On ch=1 n=97 v=110
114990 On ch=1 n=94 v=0
115200 On ch=1 n=97 v=0
115680 On ch=1 n=97 v=110
115800 On ch=1 n=94 v=110
115830 On ch=1 n=97 v=0
115920 On ch=1 n=97 v=110
115950 On ch=1 n=94 v=0
116010 On ch=1 n=97 v=0
116640 On ch=1 n=97 v=110
116760 On ch=1 n=94 v=110
116790 On ch=1 n=97 v=0
116880 On ch=1 n=97 v=110
116910 On ch=1 n=94 v=0
116970 On ch=1 n=97 v=0
117600 On ch=1 n=98 v=110
117720 On ch=1 n=94 v=110
117750 On ch=1 n=98 v=0
117840 On ch=1 n=98 v=110
117870 On ch=1 n=94 v=0
118080 On ch=1 n=98 v=0
118560 On ch=1 n=97 v=110
118680 On ch=1 n=94 v=110
118710 On ch=1 n=97 v=0
118800 On ch=1 n=97 v=110
118830 On ch=1 n=94 v=0
119040 On ch=1 n=97 v=0
119520 On ch=1 n=97 v=110
119640 On ch=1 n=94 v=110
119670 On ch=1 n=97 v=0
119760 On ch=1 n=97 v=110
119790 On ch=1 n=94 v=0
120000 On ch=1 n=97 v=0
120480 On ch=1 n=97 v=110
120600 On ch=1 n=94 v=110
120630 On ch=1 n=97 v=0
120720 On ch=1 n=97 v=110
120750 On ch=1 n=94 v=0
120960 On ch=1 n=97 v=0
121440 On ch=1 n=99 v=110
121560 On ch=1 n=94 v=110
121590 On ch=1 n=99 v=0
121680 On ch=1 n=99 v=110
121710 On ch=1 n=94 v=0
121920 On ch=1 n=99 v=0
122400 On ch=1 n=97 v=110
122520 On ch=1 n=94 v=110
122550 On ch=1 n=97 v=0
122640 On ch=1 n=97 v=110
122670 On ch=1 n=94 v=0
122880 On ch=1 n=97 v=0
123360 On ch=1 n=97 v=110
123480 On ch=1 n=94 v=110
123510 On ch=1 n=97 v=0
123600 On ch=1 n=97 v=110
123630 On ch=1 n=94 v=0
123840 On ch=1 n=97 v=0
124320 On ch=1 n=97 v=110
124440 On ch=1 n=94 v=110
124470 On ch=1 n=97 v=0
124560 On ch=1 n=97 v=110
124590 On ch=1 n=94 v=0
124800 On ch=1 n=97 v=0
125280 On ch=1 n=99 v=110
125400 On ch=1 n=94 v=110
125430 On ch=1 n=99 v=0
125520 On ch=1 n=99 v=110
125550 On ch=1 n=94 v=0
125760 On ch=1 n=99 v=0
126240 On ch=1 n=97 v=110
126360 On ch=1 n=94 v=110
126390 On ch=1 n=97 v=0
126480 On ch=1 n=97 v=110
126510 On ch=1 n=94 v=0
126720 On ch=1 n=97 v=0
142560 On ch=1 n=92 v=110
142620 On ch=1 n=93 v=110
142635 On ch=1 n=92 v=0
142680 On ch=1 n=94 v=110
142695 On ch=1 n=93 v=0
142740 On ch=1 n=95 v=110
142755 On ch=1 n=94 v=0
142860 On ch=1 n=95 v=0
144480 On ch=1 n=92 v=110
144540 On ch=1 n=93 v=110
144555 On ch=1 n=92 v=0
144600 On ch=1 n=94 v=110
144615 On ch=1 n=93 v=0
144660 On ch=1 n=95 v=110
144675 On ch=1 n=94 v=0
144780 On ch=1 n=95 v=0
147360 On ch=1 n=90 v=85
147480 On ch=1 n=90 v=0
147600 On ch=1 n=95 v=89
147720 On ch=1 n=95 v=0
147840 On ch=1 n=94 v=93
147960 On ch=1 n=94 v=0
148080 On ch=1 n=90 v=97
148200 On ch=1 n=90 v=0
148320 On ch=1 n=94 v=101
148440 On ch=1 n=94 v=0
148560 On ch=1 n=97 v=105
148680 On ch=1 n=97 v=0
148800 On ch=1 n=95 v=110
148920 On ch=1 n=95 v=0
150240 On ch=1 n=92 v=110
150300 On ch=1 n=93 v=110
150315 On ch=1 n=92 v=0
150360 On ch=1 n=94 v=110
150375 On ch=1 n=93 v=0
150420 On ch=1 n=95 v=110
150435 On ch=1 n=94 v=0
150540 On ch=1 n=95 v=0
152160 On ch=1 n=92 v=110
152220 On ch=1 n=93 v=110
152235 On ch=1 n=92 v=0
152280 On ch=1 n=94 v=110
152295 On ch=1 n=93 v=0
152340 On ch=1 n=95 v=110
152355 On ch=1 n=94 v=0
152460 On ch=1 n=95 v=0
155040 On ch=1 n=90 v=80
155160 On ch=1 n=90 v=0
155280 On ch=1 n=95 v=85
155400 On ch=1 n=95 v=0
155520 On ch=1 n=94 v=90
155640 On ch=1 n=94 v=0
155760 On ch=1 n=90 v=95
155880 On ch=1 n=90 v=0
156000 On ch=1 n=94 v=100
156120 On ch=1 n=94 v=0
156240 On ch=1 n=97 v=105
156360 On ch=1 n=97 v=0
156480 On ch=1 n=95 v=110
156600 On ch=1 n=95 v=0
157920 On ch=1 n=92 v=110
157980 On ch=1 n=93 v=110
157995 On ch=1 n=92 v=0
158040 On ch=1 n=94 v=110
158055 On ch=1 n=93 v=0
158100 On ch=1 n=95 v=110
158115 On ch=1 n=94 v=0
158220 On ch=1 n=95 v=0
159840 On ch=1 n=92 v=110
159900 On ch=1 n=93 v=110
159915 On ch=1 n=92 v=0
159960 On ch=1 n=94 v=110
159975 On ch=1 n=93 v=0
160020 On ch=1 n=95 v=110
160035 On ch=1 n=94 v=0
160140 On ch=1 n=95 v=0
161760 On ch=1 n=92 v=50
161820 On ch=1 n=93 v=51
161835 On ch=1 n=92 v=0
161880 On ch=1 n=94 v=52
161895 On ch=1 n=93 v=0
161940 On ch=1 n=95 v=53
161955 On ch=1 n=94 v=0
162060 On ch=1 n=95 v=0
162240 On ch=1 n=92 v=58
162300 On ch=1 n=93 v=59
162315 On ch=1 n=92 v=0
162360 On ch=1 n=94 v=60
162375 On ch=1 n=93 v=0
162420 On ch=1 n=95 v=61
162435 On ch=1 n=94 v=0
162540 On ch=1 n=95 v=0
162720 On ch=1 n=92 v=67
162780 On ch=1 n=93 v=68
162795 On ch=1 n=92 v=0
162840 On ch=1 n=94 v=69
162855 On ch=1 n=93 v=0
162900 On ch=1 n=95 v=70
162915 On ch=1 n=94 v=0
163020 On ch=1 n=95 v=0
163200 On ch=1 n=92 v=75
163260 On ch=1 n=93 v=76
163275 On ch=1 n=92 v=0
163320 On ch=1 n=94 v=77
163335 On ch=1 n=93 v=0
163380 On ch=1 n=95 v=78
163395 On ch=1 n=94 v=0
163500 On ch=1 n=95 v=0
163680 On ch=1 n=92 v=84
163740 On ch=1 n=93 v=85
163755 On ch=1 n=92 v=0
163800 On ch=1 n=94 v=86
163815 On ch=1 n=93 v=0
163860 On ch=1 n=95 v=87
163875 On ch=1 n=94 v=0
163980 On ch=1 n=95 v=0
164160 On ch=1 n=92 v=92
164220 On ch=1 n=93 v=93
164235 On ch=1 n=92 v=0
164280 On ch=1 n=94 v=95
164295 On ch=1 n=93 v=0
164340 On ch=1 n=95 v=96
164355 On ch=1 n=94 v=0
164460 On ch=1 n=95 v=0
164640 On ch=1 n=92 v=101
164700 On ch=1 n=93 v=102
164715 On ch=1 n=92 v=0
164760 On ch=1 n=94 v=103
164775 On ch=1 n=93 v=0
164820 On ch=1 n=95 v=104
164835 On ch=1 n=94 v=0
164940 On ch=1 n=95 v=0
168480 Par ch=1 c=11 v=100
169440 On ch=1 n=92 v=127
169500 On ch=1 n=93 v=127
169515 On ch=1 n=92 v=0
169560 On ch=1 n=94 v=127
169575 On ch=1 n=93 v=0
169620 On ch=1 n=95 v=127
169635 On ch=1 n=94 v=0
169830 On ch=1 n=95 v=0
169830 Meta TrkEnd
TrkEnd
MTrk
0 Meta 0x20 01
0 Meta TrkName "Flute   "
0 Meta InstrName "Flauti  "
50400 On ch=2 n=78 v=50
50490 On ch=2 n=78 v=0
51360 On ch=2 n=78 v=50
51450 On ch=2 n=78 v=0
52320 On ch=2 n=78 v=50
52410 On ch=2 n=78 v=0
53280 On ch=2 n=78 v=50
53370 On ch=2 n=78 v=0
54240 On ch=2 n=78 v=50
54330 On ch=2 n=78 v=0
55200 On ch=2 n=78 v=50
55290 On ch=2 n=78 v=0
56160 On ch=2 n=78 v=50
56250 On ch=2 n=78 v=0
57120 On ch=2 n=78 v=50
57210 On ch=2 n=78 v=0
65760 On ch=2 n=78 v=50
65850 On ch=2 n=78 v=0
66720 On ch=2 n=78 v=51
66810 On ch=2 n=78 v=0
67680 On ch=2 n=78 v=52
67770 On ch=2 n=78 v=0
68640 On ch=2 n=78 v=53
68730 On ch=2 n=78 v=0
69600 On ch=2 n=78 v=54
69690 On ch=2 n=78 v=0
70560 On ch=2 n=78 v=55
70650 On ch=2 n=78 v=0
71520 On ch=2 n=78 v=56
71610 On ch=2 n=78 v=0
72000 On ch=2 n=85 v=56
72480 On ch=2 n=78 v=57
72570 On ch=2 n=78 v=0
72930 On ch=2 n=85 v=0
81120 On ch=2 n=78 v=65
81210 On ch=2 n=78 v=0
82080 On ch=2 n=78 v=66
82170 On ch=2 n=78 v=0
83040 On ch=2 n=78 v=67
83130 On ch=2 n=78 v=0
84000 On ch=2 n=78 v=68
84090 On ch=2 n=78 v=0
84960 On ch=2 n=78 v=69
85050 On ch=2 n=78 v=0
85920 On ch=2 n=78 v=70
86010 On ch=2 n=78 v=0
86880 On ch=2 n=78 v=71
86970 On ch=2 n=78 v=0
87840 On ch=2 n=78 v=72
87930 On ch=2 n=78 v=0
88800 On ch=2 n=78 v=72
88890 On ch=2 n=78 v=0
89760 On ch=2 n=78 v=73
89850 On ch=2 n=78 v=0
90720 On ch=2 n=78 v=74
90810 On ch=2 n=78 v=0
91680 On ch=2 n=78 v=75
91770 On ch=2 n=78 v=0
92640 On ch=2 n=78 v=76
92730 On ch=2 n=78 v=0
93600 On ch=2 n=78 v=77
93690 On ch=2 n=78 v=0
94560 On ch=2 n=78 v=78
94650 On ch=2 n=78 v=0
95520 On ch=2 n=78 v=79
95610 On ch=2 n=78 v=0
96480 On ch=2 n=86 v=90
96480 On ch=2 n=90 v=90
96600 On ch=2 n=85 v=90
96600 On ch=2 n=89 v=90
96630 On ch=2 n=86 v=0
96630 On ch=2 n=90 v=0
96720 On ch=2 n=86 v=90
96720 On ch=2 n=90 v=90
96750 On ch=2 n=85 v=0
96750 On ch=2 n=89 v=0
96810 On ch=2 n=86 v=0
96810 On ch=2 n=90 v=0
97440 On ch=2 n=86 v=90
97440 On ch=2 n=90 v=90
97560 On ch=2 n=85 v=90
97560 On ch=2 n=89 v=90
97590 On ch=2 n=86 v=0
97590 On ch=2 n=90 v=0
97680 On ch=2 n=86 v=90
97680 On ch=2 n=90 v=90
97710 On ch=2 n=85 v=0
97710 On ch=2 n=89 v=0
97770 On ch=2 n=86 v=0
97770 On ch=2 n=90 v=0
98400 On ch=2 n=85 v=90
98400 On ch=2 n=89 v=90
98520 On ch=2 n=84 v=90
98520 On ch=2 n=88 v=90
98550 On ch=2 n=85 v=0
98550 On ch=2 n=89 v=0
98640 On ch=2 n=85 v=90
98640 On ch=2 n=89 v=90
98670 On ch=2 n=84 v=0
98670 On ch=2 n=88 v=0
98880 On ch=2 n=85 v=0
98880 On ch=2 n=89 v=0
99360 On ch=2 n=84 v=90
99360 On ch=2 n=88 v=90
99480 On ch=2 n=83 v=90
99480 On ch=2 n=87 v=90
99510 On ch=2 n=84 v=0
99510 On ch=2 n=88 v=0
99600 On ch=2 n=84 v=90
99600 On ch=2 n=88 v=90
99630 On ch=2 n=83 v=0
99630 On ch=2 n=87 v=0
99840 On ch=2 n=84 v=0
99840 On ch=2 n=88 v=0
100320 On ch=2 n=83 v=90
100320 On ch=2 n=86 v=90
100440 On ch=2 n=82 v=90
100440 On ch=2 n=85 v=90
100470 On ch=2 n=83 v=0
100470 On ch=2 n=86 v=0
100560 On ch=2 n=83 v=90
100560 On ch=2 n=86 v=90
100590 On ch=2 n=82 v=0
100590 On ch=2 n=85 v=0
100800 On ch=2 n=83 v=0
100800 On ch=2 n=86 v=0
101280 On ch=2 n=86 v=90
101280 On ch=2 n=90 v=90
101400 On ch=2 n=85 v=90
101400 On ch=2 n=89 v=90
101430 On ch=2 n=86 v=0
101430 On ch=2 n=90 v=0
101520 On ch=2 n=86 v=90
101520 On ch=2 n=90 v=90
101550 On ch=2 n=85 v=0
101550 On ch=2 n=89 v=0
101760 On ch=2 n=86 v=0
101760 On ch=2 n=90 v=0
102240 On ch=2 n=90 v=90
102240 On ch=2 n=93 v=90
102360 On ch=2 n=89 v=90
102360 On ch=2 n=92 v=90
102390 On ch=2 n=90 v=0
102390 On ch=2 n=93 v=0
102480 On ch=2 n=90 v=90
102480 On ch=2 n=93 v=90
102510 On ch=2 n=89 v=0
102510 On ch=2 n=92 v=0
102720 On ch=2 n=90 v=0
102720 On ch=2 n=93 v=0
103200 On ch=2 n=90 v=90
103200 On ch=2 n=93 v=90
103320 On ch=2 n=89 v=90
103320 On ch=2 n=92 v=90
103350 On ch=2 n=90 v=0
103350 On ch=2 n=93 v=0
103440 On ch=2 n=90 v=90
103440 On ch=2 n=93 v=90
103470 On ch=2 n=89 v=0
103470 On ch=2 n=92 v=0
103680 On ch=2 n=90 v=0
103680 On ch=2 n=93 v=0
104160 On ch=2 n=86 v=90
104160 On ch=2 n=90 v=90
104280 On ch=2 n=85 v=90
104280 On ch=2 n=89 v=90
104310 On ch=2 n=86 v=0
104310 On ch=2 n=90 v=0
104400 On ch=2 n=86 v=90
104400 On ch=2 n=90 v=90
104430 On ch=2 n=85 v=0
104430 On ch=2 n=89 v=0
104640 On ch=2 n=86 v=0
104640 On ch=2 n=90 v=0
105120 On ch=2 n=86 v=90
105120 On ch=2 n=90 v=90
105240 On ch=2 n=85 v=90
105240 On ch=2 n=89 v=90
105270 On ch=2 n=86 v=0
105270 On ch=2 n=90 v=0
105360 On ch=2 n=86 v=90
105360 On ch=2 n=90 v=90
105390 On ch=2 n=85 v=0
105390 On ch=2 n=89 v=0
105600 On ch=2 n=86 v=0
105600 On ch=2 n=90 v=0
106080 On ch=2 n=85 v=90
106080 On ch=2 n=89 v=90
106200 On ch=2 n=84 v=90
106200 On ch=2 n=88 v=90
106230 On ch=2 n=85 v=0
106230 On ch=2 n=89 v=0
106320 On ch=2 n=85 v=90
106320 On ch=2 n=89 v=90
106350 On ch=2 n=84 v=0
106350 On ch=2 n=88 v=0
106560 On ch=2 n=85 v=0
106560 On ch=2 n=89 v=0
107040 On ch=2 n=84 v=90
107040 On ch=2 n=88 v=90
107160 On ch=2 n=83 v=90
107160 On ch=2 n=87 v=90
107190 On ch=2 n=84 v=0
107190 On ch=2 n=88 v=0
107280 On ch=2 n=84 v=90
107280 On ch=2 n=88 v=90
107310 On ch=2 n=83 v=0
107310 On ch=2 n=87 v=0
107520 On ch=2 n=84 v=0
107520 On ch=2 n=88 v=0
108000 On ch=2 n=83 v=90
108000 On ch=2 n=86 v=90
108120 On ch=2 n=82 v=90
108120 On ch=2 n=85 v=90
108150 On ch=2 n=83 v=0
108150 On ch=2 n=86 v=0
108240 On ch=2 n=83 v=90
108240 On ch=2 n=86 v=90
108270 On ch=2 n=82 v=0
108270 On ch=2 n=85 v=0
108480 On ch=2 n=83 v=0
108480 On ch=2 n=86 v=0
108960 On ch=2 n=86 v=90
108960 On ch=2 n=90 v=90
109080 On ch=2 n=85 v=90
109080 On ch=2 n=89 v=90
109110 On ch=2 n=86 v=0
109110 On ch=2 n=90 v=0
109200 On ch=2 n=86 v=90
109200 On ch=2 n=90 v=90
109230 On ch=2 n=85 v=0
109230 On ch=2 n=89 v=0
109440 On ch=2 n=86 v=0
109440 On ch=2 n=90 v=0
109920 On ch=2 n=90 v=90
109920 On ch=2 n=93 v=90
110040 On ch=2 n=89 v=90
110040 On ch=2 n=92 v=90
110070 On ch=2 n=90 v=0
110070 On ch=2 n=93 v=0
110160 On ch=2 n=90 v=90
110160 On ch=2 n=93 v=90
110190 On ch=2 n=89 v=0
110190 On ch=2 n=92 v=0
110400 On ch=2 n=90 v=0
110400 On ch=2 n=93 v=0
110880 On ch=2 n=90 v=90
110880 On ch=2 n=93 v=90
111000 On ch=2 n=89 v=90
111000 On ch=2 n=92 v=90
111030 On ch=2 n=90 v=0
111030 On ch=2 n=93 v=0
111120 On ch=2 n=90 v=90
111120 On ch=2 n=93 v=90
111150 On ch=2 n=89 v=0
111150 On ch=2 n=92 v=0
111360 On ch=2 n=90 v=0
111360 On ch=2 n=93 v=0
111840 On ch=2 n=90 v=90
111840 On ch=2 n=94 v=90
111960 On ch=2 n=85 v=90
111990 On ch=2 n=94 v=0
112080 On ch=2 n=94 v=90
112110 On ch=2 n=85 v=0
112320 On ch=2 n=90 v=0
112320 On ch=2 n=94 v=0
112800 On ch=2 n=90 v=90
112800 On ch=2 n=94 v=90
112920 On ch=2 n=85 v=90
112950 On ch=2 n=94 v=0
113040 On ch=2 n=94 v=90
113070 On ch=2 n=85 v=0
113280 On ch=2 n=90 v=0
113280 On ch=2 n=94 v=0
113760 On ch=2 n=90 v=90
113760 On ch=2 n=94 v=90
113880 On ch=2 n=86 v=90
113910 On ch=2 n=94 v=0
114000 On ch=2 n=94 v=90
114030 On ch=2 n=86 v=0
114240 On ch=2 n=90 v=0
114240 On ch=2 n=94 v=0
114720 On ch=2 n=90 v=90
114720 On ch=2 n=94 v=90
114840 On ch=2 n=85 v=90
114870 On ch=2 n=94 v=0
114960 On ch=2 n=94 v=90
114990 On ch=2 n=85 v=0
115200 On ch=2 n=90 v=0
115200 On ch=2 n=94 v=0
115680 On ch=2 n=90 v=90
115680 On ch=2 n=94 v=90
115800 On ch=2 n=85 v=90
115830 On ch=2 n=94 v=0
115920 On ch=2 n=94 v=90
115950 On ch=2 n=85 v=0
116160 On ch=2 n=90 v=0
116160 On ch=2 n=94 v=0
116640 On ch=2 n=90 v=90
116640 On ch=2 n=94 v=90
116760 On ch=2 n=85 v=90
116790 On ch=2 n=94 v=0
116880 On ch=2 n=94 v=90
116910 On ch=2 n=85 v=0
117120 On ch=2 n=90 v=0
117120 On ch=2 n=94 v=0
117600 On ch=2 n=90 v=90
117600 On ch=2 n=94 v=90
117720 On ch=2 n=86 v=90
117750 On ch=2 n=94 v=0
117840 On ch=2 n=94 v=90
117870 On ch=2 n=86 v=0
118080 On ch=2 n=90 v=0
118080 On ch=2 n=94 v=0
118560 On ch=2 n=90 v=90
118560 On ch=2 n=94 v=90
118680 On ch=2 n=85 v=90
118710 On ch=2 n=94 v=0
118800 On ch=2 n=94 v=90
118830 On ch=2 n=85 v=0
119040 On ch=2 n=90 v=0
119040 On ch=2 n=94 v=0
119520 On ch=2 n=90 v=90
119520 On ch=2 n=94 v=90
119640 On ch=2 n=85 v=90
119670 On ch=2 n=94 v=0
119760 On ch=2 n=94 v=90
119790 On ch=2 n=85 v=0
120000 On ch=2 n=90 v=0
120000 On ch=2 n=94 v=0
120480 On ch=2 n=90 v=90
120480 On ch=2 n=94 v=90
120600 On ch=2 n=85 v=90
120630 On ch=2 n=94 v=0
120720 On ch=2 n=94 v=90
120750 On ch=2 n=85 v=0
120960 On ch=2 n=90 v=0
120960 On ch=2 n=94 v=0
121440 On ch=2 n=90 v=90
121440 On ch=2 n=94 v=90
121560 On ch=2 n=87 v=90
121590 On ch=2 n=94 v=0
121680 On ch=2 n=94 v=90
121710 On ch=2 n=87 v=0
121920 On ch=2 n=90 v=0
121920 On ch=2 n=94 v=0
122400 On ch=2 n=90 v=90
122400 On ch=2 n=94 v=90
122520 On ch=2 n=85 v=90
122550 On ch=2 n=94 v=0
122640 On ch=2 n=94 v=90
122670 On ch=2 n=85 v=0
122880 On ch=2 n=90 v=0
122880 On ch=2 n=94 v=0
123360 On ch=2 n=90 v=90
123360 On ch=2 n=94 v=90
123480 On ch=2 n=85 v=90
123510 On ch=2 n=94 v=0
123600 On ch=2 n=94 v=90
123630 On ch=2 n=85 v=0
123840 On ch=2 n=90 v=0
123840 On ch=2 n=94 v=0
124320 On ch=2 n=90 v=90
124320 On ch=2 n=94 v=90
124440 On ch=2 n=85 v=90
124470 On ch=2 n=94 v=0
124560 On ch=2 n=94 v=90
124590 On ch=2 n=85 v=0
124800 On ch=2 n=90 v=0
124800 On ch=2 n=94 v=0
125280 On ch=2 n=90 v=90
125280 On ch=2 n=94 v=90
125400 On ch=2 n=87 v=90
125430 On ch=2 n=94 v=0
125520 On ch=2 n=94 v=90
125550 On ch=2 n=87 v=0
125760 On ch=2 n=90 v=0
125760 On ch=2 n=94 v=0
126240 On ch=2 n=90 v=90
126240 On ch=2 n=94 v=90
126360 On ch=2 n=85 v=90
126390 On ch=2 n=94 v=0
126480 On ch=2 n=94 v=90
126510 On ch=2 n=85 v=0
126720 On ch=2 n=90 v=0
126720 On ch=2 n=94 v=0
127200 On ch=2 n=86 v=90
127200 On ch=2 n=90 v=90
127320 On ch=2 n=85 v=90
127320 On ch=2 n=89 v=90
127350 On ch=2 n=86 v=0
127350 On ch=2 n=90 v=0
127440 On ch=2 n=86 v=90
127440 On ch=2 n=90 v=90
127470 On ch=2 n=85 v=0
127470 On ch=2 n=89 v=0
127680 On ch=2 n=86 v=0
127680 On ch=2 n=90 v=0
128160 On ch=2 n=86 v=90
128160 On ch=2 n=90 v=90
128280 On ch=2 n=85 v=90
128280 On ch=2 n=89 v=90
128310 On ch=2 n=86 v=0
128310 On ch=2 n=90 v=0
128400 On ch=2 n=86 v=90
128400 On ch=2 n=90 v=90
128430 On ch=2 n=85 v=0
128430 On ch=2 n=89 v=0
128640 On ch=2 n=86 v=0
128640 On ch=2 n=90 v=0
129120 On ch=2 n=85 v=90
129120 On ch=2 n=89 v=90
129240 On ch=2 n=84 v=90
129240 On ch=2 n=88 v=90
129270 On ch=2 n=85 v=0
129270 On ch=2 n=89 v=0
129360 On ch=2 n=85 v=90
129360 On ch=2 n=89 v=90
129390 On ch=2 n=84 v=0
129390 On ch=2 n=88 v=0
129600 On ch=2 n=85 v=0
129600 On ch=2 n=89 v=0
130080 On ch=2 n=84 v=90
130080 On ch=2 n=88 v=90
130200 On ch=2 n=83 v=90
130200 On ch=2 n=87 v=90
130230 On ch=2 n=84 v=0
130230 On ch=2 n=88 v=0
130320 On ch=2 n=84 v=90
130320 On ch=2 n=88 v=90
130350 On ch=2 n=83 v=0
130350 On ch=2 n=87 v=0
130560 On ch=2 n=84 v=0
130560 On ch=2 n=88 v=0
131040 On ch=2 n=83 v=90
131040 On ch=2 n=86 v=90
131160 On ch=2 n=82 v=90
131160 On ch=2 n=85 v=90
131190 On ch=2 n=83 v=0
131190 On ch=2 n=86 v=0
131280 On ch=2 n=83 v=90
131280 On ch=2 n=86 v=90
131310 On ch=2 n=82 v=0
131310 On ch=2 n=85 v=0
131520 On ch=2 n=83 v=0
131520 On ch=2 n=86 v=0
132000 On ch=2 n=86 v=90
132000 On ch=2 n=90 v=90
132120 On ch=2 n=85 v=90
132120 On ch=2 n=89 v=90
132150 On ch=2 n=86 v=0
132150 On ch=2 n=90 v=0
132240 On ch=2 n=86 v=90
132240 On ch=2 n=90 v=90
132270 On ch=2 n=85 v=0
132270 On ch=2 n=89 v=0
132480 On ch=2 n=86 v=0
132480 On ch=2 n=90 v=0
132960 On ch=2 n=90 v=90
132960 On ch=2 n=93 v=90
133080 On ch=2 n=89 v=90
133080 On ch=2 n=92 v=90
133110 On ch=2 n=90 v=0
133110 On ch=2 n=93 v=0
133200 On ch=2 n=90 v=90
133200 On ch=2 n=93 v=90
133230 On ch=2 n=89 v=0
133230 On ch=2 n=92 v=0
133440 On ch=2 n=90 v=0
133440 On ch=2 n=93 v=0
133920 On ch=2 n=90 v=90
133920 On ch=2 n=93 v=90
134040 On ch=2 n=89 v=90
134040 On ch=2 n=92 v=90
134070 On ch=2 n=90 v=0
134070 On ch=2 n=93 v=0
134160 On ch=2 n=90 v=90
134160 On ch=2 n=93 v=90
134190 On ch=2 n=89 v=0
134190 On ch=2 n=92 v=0
134400 On ch=2 n=90 v=0
134400 On ch=2 n=93 v=0
134880 On ch=2 n=86 v=90
134880 On ch=2 n=90 v=90
135000 On ch=2 n=85 v=90
135000 On ch=2 n=89 v=90
135030 On ch=2 n=86 v=0
135030 On ch=2 n=90 v=0
135120 On ch=2 n=86 v=90
135120 On ch=2 n=90 v=90
135150 On ch=2 n=85 v=0
135150 On ch=2 n=89 v=0
135360 On ch=2 n=86 v=0
135360 On ch=2 n=90 v=0
135840 On ch=2 n=86 v=90
135840 On ch=2 n=90 v=90
135960 On ch=2 n=85 v=90
135960 On ch=2 n=89 v=90
135990 On ch=2 n=86 v=0
135990 On ch=2 n=90 v=0
136080 On ch=2 n=86 v=90
136080 On ch=2 n=90 v=90
136110 On ch=2 n=85 v=0
136110 On ch=2 n=89 v=0
136320 On ch=2 n=86 v=0
136320 On ch=2 n=90 v=0
136800 On ch=2 n=85 v=90
136800 On ch=2 n=89 v=90
136920 On ch=2 n=84 v=90
136920 On ch=2 n=88 v=90
136950 On ch=2 n=85 v=0
136950 On ch=2 n=89 v=0
137040 On ch=2 n=85 v=90
137040 On ch=2 n=89 v=90
137070 On ch=2 n=84 v=0
137070 On ch=2 n=88 v=0
137280 On ch=2 n=85 v=0
137280 On ch=2 n=89 v=0
137760 On ch=2 n=84 v=90
137760 On ch=2 n=88 v=90
137880 On ch=2 n=83 v=90
137880 On ch=2 n=87 v=90
137910 On ch=2 n=84 v=0
137910 On ch=2 n=88 v=0
138000 On ch=2 n=84 v=90
138000 On ch=2 n=88 v=90
138030 On ch=2 n=83 v=0
138030 On ch=2 n=87 v=0
138240 On ch=2 n=84 v=0
138240 On ch=2 n=88 v=0
138720 On ch=2 n=83 v=90
138720 On ch=2 n=86 v=90
138840 On ch=2 n=82 v=90
138840 On ch=2 n=85 v=90
138870 On ch=2 n=83 v=0
138870 On ch=2 n=86 v=0
138960 On ch=2 n=83 v=90
138960 On ch=2 n=86 v=90
138990 On ch=2 n=82 v=0
138990 On ch=2 n=85 v=0
139200 On ch=2 n=83 v=0
139200 On ch=2 n=86 v=0
139680 On ch=2 n=86 v=90
139680 On ch=2 n=90 v=90
139800 On ch=2 n=85 v=90
139800 On ch=2 n=89 v=90
139830 On ch=2 n=86 v=0
139830 On ch=2 n=90 v=0
139920 On ch=2 n=86 v=90
139920 On ch=2 n=90 v=90
139950 On ch=2 n=85 v=0
139950 On ch=2 n=89 v=0
140160 On ch=2 n=86 v=0
140160 On ch=2 n=90 v=0
140640 On ch=2 n=86 v=90
140640 On ch=2 n=90 v=90
140760 On ch=2 n=85 v=90
140760 On ch=2 n=89 v=90
140790 On ch=2 n=86 v=0
140790 On ch=2 n=90 v=0
140880 On ch=2 n=86 v=90
140880 On ch=2 n=90 v=90
140910 On ch=2 n=85 v=0
140910 On ch=2 n=89 v=0
141120 On ch=2 n=86 v=0
141120 On ch=2 n=90 v=0
141600 On ch=2 n=86 v=90
141600 On ch=2 n=90 v=90
141720 On ch=2 n=85 v=90
141720 On ch=2 n=89 v=90
141750 On ch=2 n=86 v=0
141750 On ch=2 n=90 v=0
141840 On ch=2 n=86 v=90
141840 On ch=2 n=90 v=90
141870 On ch=2 n=85 v=0
141870 On ch=2 n=89 v=0
142080 On ch=2 n=86 v=0
142080 On ch=2 n=90 v=0
142560 On ch=2 n=86 v=100
142560 On ch=2 n=89 v=100
142680 On ch=2 n=85 v=100
142680 On ch=2 n=88 v=100
142710 On ch=2 n=86 v=0
142710 On ch=2 n=89 v=0
142800 On ch=2 n=86 v=100
142800 On ch=2 n=89 v=100
142830 On ch=2 n=85 v=0
142830 On ch=2 n=88 v=0
143040 On ch=2 n=86 v=0
143040 On ch=2 n=89 v=0
144480 On ch=2 n=86 v=100
144480 On ch=2 n=90 v=100
144600 On ch=2 n=85 v=100
144600 On ch=2 n=89 v=100
144630 On ch=2 n=86 v=0
144630 On ch=2 n=90 v=0
144720 On ch=2 n=86 v=100
144720 On ch=2 n=90 v=100
144750 On ch=2 n=85 v=0
144750 On ch=2 n=89 v=0
144960 On ch=2 n=86 v=0
144960 On ch=2 n=90 v=0
145920 On ch=2 n=83 v=60
146070 On ch=2 n=83 v=0
146160 On ch=2 n=85 v=63
146310 On ch=2 n=85 v=0
146400 On ch=2 n=86 v=66
146550 On ch=2 n=86 v=0
146640 On ch=2 n=88 v=70
146790 On ch=2 n=88 v=0
146880 On ch=2 n=90 v=73
147030 On ch=2 n=90 v=0
147120 On ch=2 n=86 v=76
147270 On ch=2 n=86 v=0
147360 On ch=2 n=90 v=80
147510 On ch=2 n=90 v=0
147840 On ch=2 n=94 v=86
147990 On ch=2 n=94 v=0
148080 On ch=2 n=90 v=90
148230 On ch=2 n=90 v=0
148320 On ch=2 n=94 v=93
148470 On ch=2 n=94 v=0
148800 On ch=2 n=95 v=100
149730 On ch=2 n=95 v=0
150240 On ch=2 n=86 v=100
150240 On ch=2 n=89 v=100
150360 On ch=2 n=85 v=100
150360 On ch=2 n=88 v=100
150390 On ch=2 n=86 v=0
150390 On ch=2 n=89 v=0
150480 On ch=2 n=86 v=100
150480 On ch=2 n=89 v=100
150510 On ch=2 n=85 v=0
150510 On ch=2 n=88 v=0
150720 On ch=2 n=86 v=0
150720 On ch=2 n=89 v=0
152160 On ch=2 n=86 v=100
152160 On ch=2 n=90 v=100
152280 On ch=2 n=85 v=100
152280 On ch=2 n=89 v=100
152310 On ch=2 n=86 v=0
152310 On ch=2 n=90 v=0
152400 On ch=2 n=86 v=100
152400 On ch=2 n=90 v=100
152430 On ch=2 n=85 v=0
152430 On ch=2 n=89 v=0
152640 On ch=2 n=86 v=0
152640 On ch=2 n=90 v=0
153600 On ch=2 n=83 v=80
153750 On ch=2 n=83 v=0
153840 On ch=2 n=85 v=81
153990 On ch=2 n=85 v=0
154080 On ch=2 n=86 v=83
154230 On ch=2 n=86 v=0
154320 On ch=2 n=88 v=85
154470 On ch=2 n=88 v=0
154560 On ch=2 n=90 v=86
154710 On ch=2 n=90 v=0
154800 On ch=2 n=86 v=88
154950 On ch=2 n=86 v=0
155040 On ch=2 n=90 v=90
155190 On ch=2 n=90 v=0
155520 On ch=2 n=94 v=93
155670 On ch=2 n=94 v=0
155760 On ch=2 n=90 v=95
155910 On ch=2 n=90 v=0
156000 On ch=2 n=94 v=96
156150 On ch=2 n=94 v=0
156480 On ch=2 n=95 v=100
157410 On ch=2 n=95 v=0
157920 On ch=2 n=86 v=100
157920 On ch=2 n=89 v=100
158040 On ch=2 n=85 v=100
158040 On ch=2 n=88 v=100
158070 On ch=2 n=86 v=0
158070 On ch=2 n=89 v=0
158160 On ch=2 n=86 v=100
158160 On ch=2 n=89 v=100
158190 On ch=2 n=85 v=0
158190 On ch=2 n=88 v=0
158400 On ch=2 n=86 v=0
158400 On ch=2 n=89 v=0
159840 On ch=2 n=86 v=100
159840 On ch=2 n=89 v=100
159960 On ch=2 n=85 v=100
159960 On ch=2 n=88 v=100
159990 On ch=2 n=86 v=0
159990 On ch=2 n=89 v=0
160080 On ch=2 n=86 v=100
160080 On ch=2 n=89 v=100
160110 On ch=2 n=85 v=0
160110 On ch=2 n=88 v=0
160320 On ch=2 n=86 v=0
160320 On ch=2 n=89 v=0
161760 On ch=2 n=86 v=51
161760 On ch=2 n=89 v=51
161880 On ch=2 n=85 v=53
161880 On ch=2 n=88 v=53
161910 On ch=2 n=86 v=0
161910 On ch=2 n=89 v=0
162000 On ch=2 n=86 v=55
162000 On ch=2 n=89 v=55
162030 On ch=2 n=85 v=0
162030 On ch=2 n=88 v=0
162210 On ch=2 n=86 v=0
162210 On ch=2 n=89 v=0
162240 On ch=2 n=86 v=58
162240 On ch=2 n=89 v=58
162360 On ch=2 n=85 v=60
162360 On ch=2 n=88 v=60
162390 On ch=2 n=86 v=0
162390 On ch=2 n=89 v=0
162480 On ch=2 n=86 v=62
162480 On ch=2 n=89 v=62
162510 On ch=2 n=85 v=0
162510 On ch=2 n=88 v=0
162690 On ch=2 n=86 v=0
162690 On ch=2 n=89 v=0
162720 On ch=2 n=86 v=65
162720 On ch=2 n=89 v=65
162840 On ch=2 n=85 v=67
162840 On ch=2 n=88 v=67
162870 On ch=2 n=86 v=0
162870 On ch=2 n=89 v=0
162960 On ch=2 n=86 v=69
162960 On ch=2 n=89 v=69
162990 On ch=2 n=85 v=0
162990 On ch=2 n=88 v=0
163170 On ch=2 n=86 v=0
163170 On ch=2 n=89 v=0
163200 On ch=2 n=86 v=72
163200 On ch=2 n=89 v=72
163320 On ch=2 n=85 v=74
163320 On ch=2 n=88 v=74
163350 On ch=2 n=86 v=0
163350 On ch=2 n=89 v=0
163440 On ch=2 n=86 v=75
163440 On ch=2 n=89 v=75
163470 On ch=2 n=85 v=0
163470 On ch=2 n=88 v=0
163650 On ch=2 n=86 v=0
163650 On ch=2 n=89 v=0
163680 On ch=2 n=86 v=79
163680 On ch=2 n=89 v=79
163800 On ch=2 n=85 v=81
163800 On ch=2 n=88 v=81
163830 On ch=2 n=86 v=0
163830 On ch=2 n=89 v=0
163920 On ch=2 n=86 v=82
163920 On ch=2 n=89 v=82
163950 On ch=2 n=85 v=0
163950 On ch=2 n=88 v=0
164130 On ch=2 n=86 v=0
164130 On ch=2 n=89 v=0
164160 On ch=2 n=86 v=86
164160 On ch=2 n=89 v=86
164280 On ch=2 n=85 v=87
164280 On ch=2 n=88 v=87
164310 On ch=2 n=86 v=0
164310 On ch=2 n=89 v=0
164400 On ch=2 n=86 v=89
164400 On ch=2 n=89 v=89
164430 On ch=2 n=85 v=0
164430 On ch=2 n=88 v=0
164610 On ch=2 n=86 v=0
164610 On ch=2 n=89 v=0
164640 On ch=2 n=86 v=93
164640 On ch=2 n=89 v=93
164760 On ch=2 n=85 v=94
164760 On ch=2 n=88 v=94
164790 On ch=2 n=86 v=0
164790 On ch=2 n=89 v=0
164880 On ch=2 n=86 v=96
164880 On ch=2 n=89 v=96
164910 On ch=2 n=85 v=0
164910 On ch=2 n=88 v=0
165090 On ch=2 n=86 v=0
165090 On ch=2 n=89 v=0
168480 Par ch=2 c=11 v=100
169440 On ch=2 n=86 v=127
169440 On ch=2 n=90 v=127
169560 On ch=2 n=85 v=127
169560 On ch=2 n=89 v=127
169590 On ch=2 n=86 v=0
169590 On ch=2 n=90 v=0
169680 On ch=2 n=86 v=127
169680 On ch=2 n=90 v=127
169710 On ch=2 n=85 v=0
169710 On ch=2 n=89 v=0
169890 On ch=2 n=86 v=0
169890 On ch=2 n=90 v=0
169890 Meta TrkEnd
TrkEnd
MTrk
0 Meta 0x20 02
0 Meta TrkName "Oboe    "
0 Meta InstrName "Oboi    "
56640 On ch=3 n=69 v=60
56640 On ch=3 n=81 v=60
57570 On ch=3 n=69 v=0
57570 On ch=3 n=81 v=0
57600 On ch=3 n=71 v=50
57690 On ch=3 n=71 v=0
57840 On ch=3 n=73 v=50
57930 On ch=3 n=73 v=0
58080 On ch=3 n=74 v=50
58170 On ch=3 n=74 v=0
58320 On ch=3 n=76 v=50
58410 On ch=3 n=76 v=0
58560 On ch=3 n=78 v=65
58650 On ch=3 n=78 v=0
58800 On ch=3 n=74 v=50
58890 On ch=3 n=74 v=0
59040 On ch=3 n=78 v=50
59130 On ch=3 n=78 v=0
59520 On ch=3 n=77 v=65
59610 On ch=3 n=77 v=0
59760 On ch=3 n=73 v=50
59850 On ch=3 n=73 v=0
60000 On ch=3 n=77 v=50
60090 On ch=3 n=77 v=0
60480 On ch=3 n=76 v=65
60570 On ch=3 n=76 v=0
60720 On ch=3 n=72 v=50
60810 On ch=3 n=72 v=0
60960 On ch=3 n=76 v=50
61050 On ch=3 n=76 v=0
61440 On ch=3 n=71 v=50
61530 On ch=3 n=71 v=0
61680 On ch=3 n=73 v=50
61770 On ch=3 n=73 v=0
61920 On ch=3 n=74 v=50
62010 On ch=3 n=74 v=0
62160 On ch=3 n=76 v=50
62250 On ch=3 n=76 v=0
62400 On ch=3 n=78 v=50
62490 On ch=3 n=78 v=0
62640 On ch=3 n=74 v=50
62730 On ch=3 n=74 v=0
62880 On ch=3 n=78 v=50
62970 On ch=3 n=78 v=0
63120 On ch=3 n=83 v=50
63210 On ch=3 n=83 v=0
63360 On ch=3 n=81 v=50
63450 On ch=3 n=81 v=0
63600 On ch=3 n=78 v=50
63690 On ch=3 n=78 v=0
63840 On ch=3 n=74 v=50
63930 On ch=3 n=74 v=0
64080 On ch=3 n=78 v=50
64170 On ch=3 n=78 v=0
64320 On ch=3 n=81 v=65
65250 On ch=3 n=81 v=0
72000 On ch=3 n=73 v=56
72930 On ch=3 n=73 v=0
72960 On ch=3 n=78 v=57
73050 On ch=3 n=78 v=0
73200 On ch=3 n=80 v=57
73290 On ch=3 n=80 v=0
73440 On ch=3 n=82 v=57
73530 On ch=3 n=82 v=0
73680 On ch=3 n=83 v=58
73770 On ch=3 n=83 v=0
73920 On ch=3 n=85 v=73
74010 On ch=3 n=85 v=0
74160 On ch=3 n=82 v=58
74250 On ch=3 n=82 v=0
74400 On ch=3 n=85 v=58
74490 On ch=3 n=85 v=0
74880 On ch=3 n=86 v=74
74970 On ch=3 n=86 v=0
75120 On ch=3 n=82 v=59
75210 On ch=3 n=82 v=0
75360 On ch=3 n=86 v=59
75450 On ch=3 n=86 v=0
75840 On ch=3 n=85 v=75
75930 On ch=3 n=85 v=0
76080 On ch=3 n=82 v=60
76170 On ch=3 n=82 v=0
76320 On ch=3 n=85 v=60
76410 On ch=3 n=85 v=0
76800 On ch=3 n=78 v=61
76890 On ch=3 n=78 v=0
77040 On ch=3 n=80 v=61
77130 On ch=3 n=80 v=0
77280 On ch=3 n=82 v=61
77370 On ch=3 n=82 v=0
77520 On ch=3 n=83 v=61
77610 On ch=3 n=83 v=0
77760 On ch=3 n=85 v=77
77850 On ch=3 n=85 v=0
78000 On ch=3 n=82 v=62
78090 On ch=3 n=82 v=0
78240 On ch=3 n=85 v=62
78330 On ch=3 n=85 v=0
78720 On ch=3 n=86 v=78
78810 On ch=3 n=86 v=0
78960 On ch=3 n=82 v=63
79050 On ch=3 n=82 v=0
79200 On ch=3 n=86 v=63
79290 On ch=3 n=86 v=0
79680 On ch=3 n=85 v=64
80610 On ch=3 n=85 v=0
87360 On ch=3 n=69 v=71
87360 On ch=3 n=81 v=71
88290 On ch=3 n=69 v=0
88290 On ch=3 n=81 v=0
88320 On ch=3 n=59 v=72
88320 On ch=3 n=71 v=72
88410 On ch=3 n=59 v=0
88410 On ch=3 n=71 v=0
88560 On ch=3 n=61 v=72
88560 On ch=3 n=73 v=72
88650 On ch=3 n=61 v=0
88650 On ch=3 n=73 v=0
88800 On ch=3 n=62 v=72
88800 On ch=3 n=74 v=72
88890 On ch=3 n=62 v=0
88890 On ch=3 n=74 v=0
89040 On ch=3 n=64 v=73
89040 On ch=3 n=76 v=73
89130 On ch=3 n=64 v=0
89130 On ch=3 n=76 v=0
89280 On ch=3 n=66 v=88
89280 On ch=3 n=78 v=88
89370 On ch=3 n=66 v=0
89370 On ch=3 n=78 v=0
89520 On ch=3 n=62 v=73
89520 On ch=3 n=74 v=73
89610 On ch=3 n=62 v=0
89610 On ch=3 n=74 v=0
89760 On ch=3 n=66 v=73
89760 On ch=3 n=78 v=73
89850 On ch=3 n=66 v=0
89850 On ch=3 n=78 v=0
90240 On ch=3 n=65 v=89
90240 On ch=3 n=77 v=89
90330 On ch=3 n=65 v=0
90330 On ch=3 n=77 v=0
90480 On ch=3 n=61 v=74
90480 On ch=3 n=73 v=74
90570 On ch=3 n=61 v=0
90570 On ch=3 n=73 v=0
90720 On ch=3 n=65 v=74
90720 On ch=3 n=77 v=74
90810 On ch=3 n=65 v=0
90810 On ch=3 n=77 v=0
91200 On ch=3 n=64 v=90
91200 On ch=3 n=76 v=90
91290 On ch=3 n=64 v=0
91290 On ch=3 n=76 v=0
91440 On ch=3 n=60 v=75
91440 On ch=3 n=72 v=75
91530 On ch=3 n=60 v=0
91530 On ch=3 n=72 v=0
91680 On ch=3 n=64 v=75
91680 On ch=3 n=76 v=75
91770 On ch=3 n=64 v=0
91770 On ch=3 n=76 v=0
92160 On ch=3 n=59 v=76
92160 On ch=3 n=71 v=76
92250 On ch=3 n=59 v=0
92250 On ch=3 n=71 v=0
92400 On ch=3 n=61 v=76
92400 On ch=3 n=73 v=76
92490 On ch=3 n=61 v=0
92490 On ch=3 n=73 v=0
92640 On ch=3 n=62 v=76
92640 On ch=3 n=74 v=76
92730 On ch=3 n=62 v=0
92730 On ch=3 n=74 v=0
92880 On ch=3 n=64 v=76
92880 On ch=3 n=76 v=76
92970 On ch=3 n=64 v=0
92970 On ch=3 n=76 v=0
93120 On ch=3 n=66 v=77
93120 On ch=3 n=78 v=77
93210 On ch=3 n=66 v=0
93210 On ch=3 n=78 v=0
93360 On ch=3 n=62 v=77
93360 On ch=3 n=74 v=77
93450 On ch=3 n=62 v=0
93450 On ch=3 n=74 v=0
93600 On ch=3 n=66 v=77
93600 On ch=3 n=78 v=77
93690 On ch=3 n=66 v=0
93690 On ch=3 n=78 v=0
93840 On ch=3 n=71 v=77
93840 On ch=3 n=83 v=77
93930 On ch=3 n=71 v=0
93930 On ch=3 n=83 v=0
94080 On ch=3 n=66 v=78
94080 On ch=3 n=78 v=78
94170 On ch=3 n=66 v=0
94170 On ch=3 n=78 v=0
94320 On ch=3 n=62 v=78
94320 On ch=3 n=74 v=78
94410 On ch=3 n=62 v=0
94410 On ch=3 n=74 v=0
94560 On ch=3 n=66 v=78
94560 On ch=3 n=78 v=78
94650 On ch=3 n=66 v=0
94650 On ch=3 n=78 v=0
94800 On ch=3 n=71 v=78
94800 On ch=3 n=83 v=78
94890 On ch=3 n=71 v=0
94890 On ch=3 n=83 v=0
95040 On ch=3 n=59 v=94
95040 On ch=3 n=71 v=94
95970 On ch=3 n=59 v=0
95970 On ch=3 n=71 v=0
96480 On ch=3 n=74 v=80
96480 On ch=3 n=78 v=80
96600 On ch=3 n=73 v=80
96600 On ch=3 n=77 v=80
96630 On ch=3 n=74 v=0
96630 On ch=3 n=78 v=0
96720 On ch=3 n=74 v=80
96720 On ch=3 n=78 v=80
96750 On ch=3 n=73 v=0
96750 On ch=3 n=77 v=0
96810 On ch=3 n=74 v=0
96810 On ch=3 n=78 v=0
97440 On ch=3 n=74 v=80
97440 On ch=3 n=78 v=80
97560 On ch=3 n=73 v=80
97560 On ch=3 n=77 v=80
97590 On ch=3 n=74 v=0
97590 On ch=3 n=78 v=0
97680 On ch=3 n=74 v=80
97680 On ch=3 n=78 v=80
97710 On ch=3 n=73 v=0
97710 On ch=3 n=77 v=0
97920 On ch=3 n=74 v=0
97920 On ch=3 n=78 v=0
98400 On ch=3 n=73 v=80
98400 On ch=3 n=77 v=80
98520 On ch=3 n=72 v=80
98520 On ch=3 n=76 v=80
98550 On ch=3 n=73 v=0
98550 On ch=3 n=77 v=0
98640 On ch=3 n=73 v=80
98640 On ch=3 n=77 v=80
98670 On ch=3 n=72 v=0
98670 On ch=3 n=76 v=0
98880 On ch=3 n=73 v=0
98880 On ch=3 n=77 v=0
99360 On ch=3 n=72 v=80
99360 On ch=3 n=76 v=80
99480 On ch=3 n=71 v=80
99480 On ch=3 n=75 v=80
99510 On ch=3 n=72 v=0
99510 On ch=3 n=76 v=0
99600 On ch=3 n=72 v=80
99600 On ch=3 n=76 v=80
99630 On ch=3 n=71 v=0
99630 On ch=3 n=75 v=0
99840 On ch=3 n=72 v=0
99840 On ch=3 n=76 v=0
100320 On ch=3 n=71 v=80
100320 On ch=3 n=74 v=80
100440 On ch=3 n=70 v=80
100440 On ch=3 n=73 v=80
100470 On ch=3 n=71 v=0
100470 On ch=3 n=74 v=0
100560 On ch=3 n=71 v=80
100560 On ch=3 n=74 v=80
100590 On ch=3 n=70 v=0
100590 On ch=3 n=73 v=0
100800 On ch=3 n=71 v=0
100800 On ch=3 n=74 v=0
101280 On ch=3 n=74 v=80
101280 On ch=3 n=78 v=80
101400 On ch=3 n=73 v=80
101400 On ch=3 n=77 v=80
101430 On ch=3 n=74 v=0
101430 On ch=3 n=78 v=0
101520 On ch=3 n=74 v=80
101520 On ch=3 n=78 v=80
101550 On ch=3 n=73 v=0
101550 On ch=3 n=77 v=0
101760 On ch=3 n=74 v=0
101760 On ch=3 n=78 v=0
102240 On ch=3 n=78 v=80
102240 On ch=3 n=81 v=80
102360 On ch=3 n=77 v=80
102360 On ch=3 n=80 v=80
102390 On ch=3 n=78 v=0
102390 On ch=3 n=81 v=0
102480 On ch=3 n=78 v=80
102480 On ch=3 n=81 v=80
102510 On ch=3 n=77 v=0
102510 On ch=3 n=80 v=0
102720 On ch=3 n=78 v=0
102720 On ch=3 n=81 v=0
103200 On ch=3 n=78 v=80
103200 On ch=3 n=81 v=80
103320 On ch=3 n=77 v=80
103320 On ch=3 n=80 v=80
103350 On ch=3 n=78 v=0
103350 On ch=3 n=81 v=0
103440 On ch=3 n=78 v=80
103440 On ch=3 n=81 v=80
103470 On ch=3 n=77 v=0
103470 On ch=3 n=80 v=0
103680 On ch=3 n=78 v=0
103680 On ch=3 n=81 v=0
104160 On ch=3 n=74 v=80
104160 On ch=3 n=78 v=80
104280 On ch=3 n=73 v=80
104280 On ch=3 n=77 v=80
104310 On ch=3 n=74 v=0
104310 On ch=3 n=78 v=0
104400 On ch=3 n=74 v=80
104400 On ch=3 n=78 v=80
104430 On ch=3 n=73 v=0
104430 On ch=3 n=77 v=0
104640 On ch=3 n=74 v=0
104640 On ch=3 n=78 v=0
105120 On ch=3 n=74 v=80
105120 On ch=3 n=78 v=80
105240 On ch=3 n=73 v=80
105240 On ch=3 n=77 v=80
105270 On ch=3 n=74 v=0
105270 On ch=3 n=78 v=0
105360 On ch=3 n=74 v=80
105360 On ch=3 n=78 v=80
105390 On ch=3 n=73 v=0
105390 On ch=3 n=77 v=0
105600 On ch=3 n=74 v=0
105600 On ch=3 n=78 v=0
106080 On ch=3 n=73 v=80
106080 On ch=3 n=77 v=80
106200 On ch=3 n=72 v=80
106200 On ch=3 n=76 v=80
106230 On ch=3 n=73 v=0
106230 On ch=3 n=77 v=0
106320 On ch=3 n=73 v=80
106320 On ch=3 n=77 v=80
106350 On ch=3 n=72 v=0
106350 On ch=3 n=76 v=0
106560 On ch=3 n=73 v=0
106560 On ch=3 n=77 v=0
107040 On ch=3 n=72 v=80
107040 On ch=3 n=76 v=80
107160 On ch=3 n=71 v=80
107160 On ch=3 n=75 v=80
107190 On ch=3 n=72 v=0
107190 On ch=3 n=76 v=0
107280 On ch=3 n=72 v=80
107280 On ch=3 n=76 v=80
107310 On ch=3 n=71 v=0
107310 On ch=3 n=75 v=0
107520 On ch=3 n=72 v=0
107520 On ch=3 n=76 v=0
108000 On ch=3 n=71 v=80
108000 On ch=3 n=74 v=80
108120 On ch=3 n=70 v=80
108120 On ch=3 n=73 v=80
108150 On ch=3 n=71 v=0
108150 On ch=3 n=74 v=0
108240 On ch=3 n=71 v=80
108240 On ch=3 n=74 v=80
108270 On ch=3 n=70 v=0
108270 On ch=3 n=73 v=0
108480 On ch=3 n=71 v=0
108480 On ch=3 n=74 v=0
108960 On ch=3 n=74 v=80
108960 On ch=3 n=78 v=80
109080 On ch=3 n=73 v=80
109080 On ch=3 n=77 v=80
109110 On ch=3 n=74 v=0
109110 On ch=3 n=78 v=0
109200 On ch=3 n=74 v=80
109200 On ch=3 n=78 v=80
109230 On ch=3 n=73 v=0
109230 On ch=3 n=77 v=0
109440 On ch=3 n=74 v=0
109440 On ch=3 n=78 v=0
109920 On ch=3 n=78 v=80
109920 On ch=3 n=81 v=80
110040 On ch=3 n=77 v=80
110040 On ch=3 n=80 v=80
110070 On ch=3 n=78 v=0
110070 On ch=3 n=81 v=0
110160 On ch=3 n=78 v=80
110160 On ch=3 n=81 v=80
110190 On ch=3 n=77 v=0
110190 On ch=3 n=80 v=0
110400 On ch=3 n=78 v=0
110400 On ch=3 n=81 v=0
110880 On ch=3 n=78 v=80
110880 On ch=3 n=81 v=80
111000 On ch=3 n=77 v=80
111000 On ch=3 n=80 v=80
111030 On ch=3 n=78 v=0
111030 On ch=3 n=81 v=0
111120 On ch=3 n=78 v=80
111120 On ch=3 n=81 v=80
111150 On ch=3 n=77 v=0
111150 On ch=3 n=80 v=0
111360 On ch=3 n=78 v=0
111360 On ch=3 n=81 v=0
111840 On ch=3 n=82 v=80
111840 On ch=3 n=85 v=80
111960 On ch=3 n=78 v=80
111990 On ch=3 n=85 v=0
112080 On ch=3 n=85 v=80
112110 On ch=3 n=78 v=0
112320 On ch=3 n=82 v=0
112320 On ch=3 n=85 v=0
112800 On ch=3 n=82 v=80
112800 On ch=3 n=85 v=80
112920 On ch=3 n=78 v=80
112950 On ch=3 n=85 v=0
113040 On ch=3 n=85 v=80
113070 On ch=3 n=78 v=0
113280 On ch=3 n=82 v=0
113280 On ch=3 n=85 v=0
113760 On ch=3 n=82 v=80
113760 On ch=3 n=86 v=80
113880 On ch=3 n=78 v=80
113910 On ch=3 n=86 v=0
114000 On ch=3 n=86 v=80
114030 On ch=3 n=78 v=0
114240 On ch=3 n=82 v=0
114240 On ch=3 n=86 v=0
114720 On ch=3 n=82 v=80
114720 On ch=3 n=85 v=80
114840 On ch=3 n=78 v=80
114870 On ch=3 n=85 v=0
114960 On ch=3 n=85 v=80
114990 On ch=3 n=78 v=0
115200 On ch=3 n=82 v=0
115200 On ch=3 n=85 v=0
115680 On ch=3 n=82 v=80
115680 On ch=3 n=85 v=80
115800 On ch=3 n=78 v=80
115830 On ch=3 n=85 v=0
115920 On ch=3 n=85 v=80
115950 On ch=3 n=78 v=0
116160 On ch=3 n=82 v=0
116160 On ch=3 n=85 v=0
116640 On ch=3 n=82 v=80
116640 On ch=3 n=85 v=80
116760 On ch=3 n=78 v=80
116790 On ch=3 n=85 v=0
116880 On ch=3 n=85 v=80
116910 On ch=3 n=78 v=0
117120 On ch=3 n=82 v=0
117120 On ch=3 n=85 v=0
117600 On ch=3 n=82 v=80
117600 On ch=3 n=86 v=80
117720 On ch=3 n=78 v=80
117750 On ch=3 n=86 v=0
117840 On ch=3 n=86 v=80
117870 On ch=3 n=78 v=0
118080 On ch=3 n=82 v=0
118080 On ch=3 n=86 v=0
118560 On ch=3 n=82 v=80
118560 On ch=3 n=85 v=80
118680 On ch=3 n=78 v=80
118710 On ch=3 n=85 v=0
118800 On ch=3 n=85 v=80
118830 On ch=3 n=78 v=0
119040 On ch=3 n=82 v=0
119040 On ch=3 n=85 v=0
119520 On ch=3 n=82 v=80
119520 On ch=3 n=85 v=80
119640 On ch=3 n=78 v=80
119670 On ch=3 n=85 v=0
119760 On ch=3 n=85 v=80
119790 On ch=3 n=78 v=0
120000 On ch=3 n=82 v=0
120000 On ch=3 n=85 v=0
120480 On ch=3 n=82 v=80
120480 On ch=3 n=85 v=80
120600 On ch=3 n=78 v=80
120630 On ch=3 n=85 v=0
120720 On ch=3 n=85 v=80
120750 On ch=3 n=78 v=0
120960 On ch=3 n=82 v=0
120960 On ch=3 n=85 v=0
121440 On ch=3 n=82 v=80
121440 On ch=3 n=87 v=80
121560 On ch=3 n=78 v=80
121590 On ch=3 n=87 v=0
121680 On ch=3 n=87 v=80
121710 On ch=3 n=78 v=0
121920 On ch=3 n=82 v=0
121920 On ch=3 n=87 v=0
122400 On ch=3 n=82 v=80
122400 On ch=3 n=85 v=80
122520 On ch=3 n=78 v=80
122550 On ch=3 n=85 v=0
122640 On ch=3 n=85 v=80
122670 On ch=3 n=78 v=0
122880 On ch=3 n=82 v=0
122880 On ch=3 n=85 v=0
123360 On ch=3 n=82 v=80
123360 On ch=3 n=85 v=80
123480 On ch=3 n=78 v=80
123510 On ch=3 n=85 v=0
123600 On ch=3 n=85 v=80
123630 On ch=3 n=78 v=0
123840 On ch=3 n=82 v=0
123840 On ch=3 n=85 v=0
124320 On ch=3 n=82 v=80
124320 On ch=3 n=85 v=80
124440 On ch=3 n=78 v=80
124470 On ch=3 n=85 v=0
124560 On ch=3 n=85 v=80
124590 On ch=3 n=78 v=0
124800 On ch=3 n=82 v=0
124800 On ch=3 n=85 v=0
125280 On ch=3 n=82 v=80
125280 On ch=3 n=87 v=80
125400 On ch=3 n=78 v=80
125430 On ch=3 n=87 v=0
125520 On ch=3 n=87 v=80
125550 On ch=3 n=78 v=0
125760 On ch=3 n=82 v=0
125760 On ch=3 n=87 v=0
126240 On ch=3 n=82 v=80
126240 On ch=3 n=85 v=80
126360 On ch=3 n=78 v=80
126390 On ch=3 n=85 v=0
126480 On ch=3 n=85 v=80
126510 On ch=3 n=78 v=0
126720 On ch=3 n=82 v=0
126720 On ch=3 n=85 v=0
127200 On ch=3 n=74 v=100
127200 On ch=3 n=78 v=100
127320 On ch=3 n=73 v=100
127320 On ch=3 n=77 v=100
127350 On ch=3 n=74 v=0
127350 On ch=3 n=78 v=0
127440 On ch=3 n=74 v=100
127440 On ch=3 n=78 v=100
127470 On ch=3 n=73 v=0
127470 On ch=3 n=77 v=0
127680 On ch=3 n=74 v=0
127680 On ch=3 n=78 v=0
128160 On ch=3 n=74 v=100
128160 On ch=3 n=78 v=100
128280 On ch=3 n=73 v=100
128280 On ch=3 n=77 v=100
128310 On ch=3 n=74 v=0
128310 On ch=3 n=78 v=0
128400 On ch=3 n=74 v=100
128400 On ch=3 n=78 v=100
128430 On ch=3 n=73 v=0
128430 On ch=3 n=77 v=0
128640 On ch=3 n=74 v=0
128640 On ch=3 n=78 v=0
129120 On ch=3 n=73 v=100
129120 On ch=3 n=77 v=100
129240 On ch=3 n=72 v=100
129240 On ch=3 n=76 v=100
129270 On ch=3 n=73 v=0
129270 On ch=3 n=77 v=0
129360 On ch=3 n=73 v=100
129360 On ch=3 n=77 v=100
129390 On ch=3 n=72 v=0
129390 On ch=3 n=76 v=0
129600 On ch=3 n=73 v=0
129600 On ch=3 n=77 v=0
130080 On ch=3 n=72 v=100
130080 On ch=3 n=76 v=100
130200 On ch=3 n=71 v=100
130200 On ch=3 n=75 v=100
130230 On ch=3 n=72 v=0
130230 On ch=3 n=76 v=0
130320 On ch=3 n=72 v=100
130320 On ch=3 n=76 v=100
130350 On ch=3 n=71 v=0
130350 On ch=3 n=75 v=0
130560 On ch=3 n=72 v=0
130560 On ch=3 n=76 v=0
131040 On ch=3 n=71 v=100
131040 On ch=3 n=74 v=100
131160 On ch=3 n=70 v=100
131160 On ch=3 n=73 v=100
131190 On ch=3 n=71 v=0
131190 On ch=3 n=74 v=0
131280 On ch=3 n=71 v=100
131280 On ch=3 n=74 v=100
131310 On ch=3 n=70 v=0
131310 On ch=3 n=73 v=0
131520 On ch=3 n=71 v=0
131520 On ch=3 n=74 v=0
132000 On ch=3 n=74 v=100
132000 On ch=3 n=78 v=100
132120 On ch=3 n=73 v=100
132120 On ch=3 n=77 v=100
132150 On ch=3 n=74 v=0
132150 On ch=3 n=78 v=0
132240 On ch=3 n=74 v=100
132240 On ch=3 n=78 v=100
132270 On ch=3 n=73 v=0
132270 On ch=3 n=77 v=0
132480 On ch=3 n=74 v=0
132480 On ch=3 n=78 v=0
132960 On ch=3 n=78 v=100
132960 On ch=3 n=81 v=100
133080 On ch=3 n=77 v=100
133080 On ch=3 n=80 v=100
133110 On ch=3 n=78 v=0
133110 On ch=3 n=81 v=0
133200 On ch=3 n=78 v=100
133200 On ch=3 n=81 v=100
133230 On ch=3 n=77 v=0
133230 On ch=3 n=80 v=0
133440 On ch=3 n=78 v=0
133440 On ch=3 n=81 v=0
133920 On ch=3 n=78 v=100
133920 On ch=3 n=81 v=100
134040 On ch=3 n=77 v=100
134040 On ch=3 n=80 v=100
134070 On ch=3 n=78 v=0
134070 On ch=3 n=81 v=0
134160 On ch=3 n=78 v=100
134160 On ch=3 n=81 v=100
134190 On ch=3 n=77 v=0
134190 On ch=3 n=80 v=0
134400 On ch=3 n=78 v=0
134400 On ch=3 n=81 v=0
134880 On ch=3 n=74 v=100
134880 On ch=3 n=78 v=100
135000 On ch=3 n=73 v=100
135000 On ch=3 n=77 v=100
135030 On ch=3 n=74 v=0
135030 On ch=3 n=78 v=0
135120 On ch=3 n=74 v=100
135120 On ch=3 n=78 v=100
135150 On ch=3 n=73 v=0
135150 On ch=3 n=77 v=0
135360 On ch=3 n=74 v=0
135360 On ch=3 n=78 v=0
135840 On ch=3 n=74 v=100
135840 On ch=3 n=78 v=100
135960 On ch=3 n=73 v=100
135960 On ch=3 n=77 v=100
135990 On ch=3 n=74 v=0
135990 On ch=3 n=78 v=0
136080 On ch=3 n=74 v=100
136080 On ch=3 n=78 v=100
136110 On ch=3 n=73 v=0
136110 On ch=3 n=77 v=0
136320 On ch=3 n=74 v=0
136320 On ch=3 n=78 v=0
136800 On ch=3 n=73 v=100
136800 On ch=3 n=77 v=100
136920 On ch=3 n=72 v=100
136920 On ch=3 n=76 v=100
136950 On ch=3 n=73 v=0
136950 On ch=3 n=77 v=0
137040 On ch=3 n=73 v=100
137040 On ch=3 n=77 v=100
137070 On ch=3 n=72 v=0
137070 On ch=3 n=76 v=0
137280 On ch=3 n=73 v=0
137280 On ch=3 n=77 v=0
137760 On ch=3 n=72 v=100
137760 On ch=3 n=76 v=100
137880 On ch=3 n=71 v=100
137880 On ch=3 n=75 v=100
137910 On ch=3 n=72 v=0
137910 On ch=3 n=76 v=0
138000 On ch=3 n=72 v=100
138000 On ch=3 n=76 v=100
138030 On ch=3 n=71 v=0
138030 On ch=3 n=75 v=0
138240 On ch=3 n=72 v=0
138240 On ch=3 n=76 v=0
138720 On ch=3 n=71 v=100
138720 On ch=3 n=74 v=100
138840 On ch=3 n=70 v=100
138840 On ch=3 n=73 v=100
138870 On ch=3 n=71 v=0
138870 On ch=3 n=74 v=0
138960 On ch=3 n=71 v=100
138960 On ch=3 n=74 v=100
138990 On ch=3 n=70 v=0
138990 On ch=3 n=73 v=0
139200 On ch=3 n=71 v=0
139200 On ch=3 n=74 v=0
139680 On ch=3 n=74 v=100
139680 On ch=3 n=78 v=100
139800 On ch=3 n=73 v=100
139800 On ch=3 n=77 v=100
139830 On ch=3 n=74 v=0
139830 On ch=3 n=78 v=0
139920 On ch=3 n=74 v=100
139920 On ch=3 n=78 v=100
139950 On ch=3 n=73 v=0
139950 On ch=3 n=77 v=0
140160 On ch=3 n=74 v=0
140160 On ch=3 n=78 v=0
140640 On ch=3 n=74 v=100
140640 On ch=3 n=78 v=100
140760 On ch=3 n=73 v=100
140760 On ch=3 n=77 v=100
140790 On ch=3 n=74 v=0
140790 On ch=3 n=78 v=0
140880 On ch=3 n=74 v=100
140880 On ch=3 n=78 v=100
140910 On ch=3 n=73 v=0
140910 On ch=3 n=77 v=0
141120 On ch=3 n=74 v=0
141120 On ch=3 n=78 v=0
141600 On ch=3 n=74 v=100
141600 On ch=3 n=78 v=100
141720 On ch=3 n=73 v=100
141720 On ch=3 n=77 v=100
141750 On ch=3 n=74 v=0
141750 On ch=3 n=78 v=0
141840 On ch=3 n=74 v=100
141840 On ch=3 n=78 v=100
141870 On ch=3 n=73 v=0
141870 On ch=3 n=77 v=0
142080 On ch=3 n=74 v=0
142080 On ch=3 n=78 v=0
142560 On ch=3 n=80 v=100
142560 On ch=3 n=83 v=100
142650 On ch=3 n=80 v=0
142650 On ch=3 n=83 v=0
144480 On ch=3 n=78 v=100
144480 On ch=3 n=83 v=100
144570 On ch=3 n=78 v=0
144570 On ch=3 n=83 v=0
145920 On ch=3 n=59 v=80
145920 On ch=3 n=71 v=80
146070 On ch=3 n=59 v=0
146070 On ch=3 n=71 v=0
146160 On ch=3 n=61 v=82
146160 On ch=3 n=73 v=82
146310 On ch=3 n=61 v=0
146310 On ch=3 n=73 v=0
146400 On ch=3 n=62 v=85
146400 On ch=3 n=74 v=85
146550 On ch=3 n=62 v=0
146550 On ch=3 n=74 v=0
146640 On ch=3 n=64 v=87
146640 On ch=3 n=76 v=87
146790 On ch=3 n=64 v=0
146790 On ch=3 n=76 v=0
146880 On ch=3 n=66 v=90
146880 On ch=3 n=78 v=90
147030 On ch=3 n=66 v=0
147030 On ch=3 n=78 v=0
147120 On ch=3 n=62 v=92
147120 On ch=3 n=74 v=92
147270 On ch=3 n=62 v=0
147270 On ch=3 n=74 v=0
147360 On ch=3 n=66 v=95
147360 On ch=3 n=78 v=95
147510 On ch=3 n=66 v=0
147510 On ch=3 n=78 v=0
147600 On ch=3 n=71 v=97
147600 On ch=3 n=83 v=97
147750 On ch=3 n=71 v=0
147750 On ch=3 n=83 v=0
147840 On ch=3 n=70 v=100
147840 On ch=3 n=82 v=100
147990 On ch=3 n=70 v=0
147990 On ch=3 n=82 v=0
148080 On ch=3 n=66 v=102
148080 On ch=3 n=78 v=102
148230 On ch=3 n=66 v=0
148230 On ch=3 n=78 v=0
148320 On ch=3 n=70 v=105
148320 On ch=3 n=82 v=105
148470 On ch=3 n=70 v=0
148470 On ch=3 n=82 v=0
148560 On ch=3 n=73 v=107
148560 On ch=3 n=85 v=107
148710 On ch=3 n=73 v=0
148710 On ch=3 n=85 v=0
148800 On ch=3 n=71 v=110
148800 On ch=3 n=83 v=110
149730 On ch=3 n=71 v=0
149730 On ch=3 n=83 v=0
150240 On ch=3 n=80 v=100
150240 On ch=3 n=83 v=100
150330 On ch=3 n=80 v=0
150330 On ch=3 n=83 v=0
152160 On ch=3 n=78 v=100
152160 On ch=3 n=83 v=100
152250 On ch=3 n=78 v=0
152250 On ch=3 n=83 v=0
153600 On ch=3 n=59 v=80
153600 On ch=3 n=71 v=80
153750 On ch=3 n=59 v=0
153750 On ch=3 n=71 v=0
153840 On ch=3 n=61 v=82
153840 On ch=3 n=73 v=82
153990 On ch=3 n=61 v=0
153990 On ch=3 n=73 v=0
154080 On ch=3 n=62 v=85
154080 On ch=3 n=74 v=85
154230 On ch=3 n=62 v=0
154230 On ch=3 n=74 v=0
154320 On ch=3 n=64 v=87
154320 On ch=3 n=76 v=87
154470 On ch=3 n=64 v=0
154470 On ch=3 n=76 v=0
154560 On ch=3 n=66 v=90
154560 On ch=3 n=78 v=90
154710 On ch=3 n=66 v=0
154710 On ch=3 n=78 v=0
154800 On ch=3 n=62 v=92
154800 On ch=3 n=74 v=92
154950 On ch=3 n=62 v=0
154950 On ch=3 n=74 v=0
155040 On ch=3 n=66 v=95
155040 On ch=3 n=78 v=95
155190 On ch=3 n=66 v=0
155190 On ch=3 n=78 v=0
155280 On ch=3 n=71 v=97
155280 On ch=3 n=83 v=97
155430 On ch=3 n=71 v=0
155430 On ch=3 n=83 v=0
155520 On ch=3 n=70 v=100
155520 On ch=3 n=82 v=100
155670 On ch=3 n=70 v=0
155670 On ch=3 n=82 v=0
155760 On ch=3 n=66 v=102
155760 On ch=3 n=78 v=102
155910 On ch=3 n=66 v=0
155910 On ch=3 n=78 v=0
156000 On ch=3 n=70 v=105
156000 On ch=3 n=82 v=105
156150 On ch=3 n=70 v=0
156150 On ch=3 n=82 v=0
156240 On ch=3 n=73 v=107
156240 On ch=3 n=85 v=107
156390 On ch=3 n=73 v=0
156390 On ch=3 n=85 v=0
156480 On ch=3 n=71 v=110
156480 On ch=3 n=83 v=110
157410 On ch=3 n=71 v=0
157410 On ch=3 n=83 v=0
157920 On ch=3 n=80 v=100
157920 On ch=3 n=83 v=100
158010 On ch=3 n=80 v=0
158010 On ch=3 n=83 v=0
159840 On ch=3 n=80 v=100
159840 On ch=3 n=83 v=100
159930 On ch=3 n=80 v=0
159930 On ch=3 n=83 v=0
161760 On ch=3 n=80 v=50
161760 On ch=3 n=83 v=50
161850 On ch=3 n=80 v=0
161850 On ch=3 n=83 v=0
162240 On ch=3 n=80 v=60
162240 On ch=3 n=83 v=60
162330 On ch=3 n=80 v=0
162330 On ch=3 n=83 v=0
162720 On ch=3 n=80 v=70
162720 On ch=3 n=83 v=70
162810 On ch=3 n=80 v=0
162810 On ch=3 n=83 v=0
163200 On ch=3 n=80 v=80
163200 On ch=3 n=83 v=80
163290 On ch=3 n=80 v=0
163290 On ch=3 n=83 v=0
163680 On ch=3 n=80 v=90
163680 On ch=3 n=83 v=90
163770 On ch=3 n=80 v=0
163770 On ch=3 n=83 v=0
164160 On ch=3 n=80 v=100
164160 On ch=3 n=83 v=100
164250 On ch=3 n=80 v=0
164250 On ch=3 n=83 v=0
164640 On ch=3 n=80 v=110
164640 On ch=3 n=83 v=110
164730 On ch=3 n=80 v=0
164730 On ch=3 n=83 v=0
168480 Par ch=3 c=11 v=100
169440 On ch=3 n=83 v=127
169650 On ch=3 n=83 v=0
169650 Meta TrkEnd
TrkEnd
MTrk
0 Meta 0x20 03
0 Meta TrkName "Clarinet in A"
0 Meta InstrName "Clarinetti in A"
50400 On ch=4 n=74 v=50
50400 On ch=4 n=78 v=50
50490 On ch=4 n=74 v=0
50490 On ch=4 n=78 v=0
51360 On ch=4 n=74 v=50
51360 On ch=4 n=78 v=50
51450 On ch=4 n=74 v=0
51450 On ch=4 n=78 v=0
52320 On ch=4 n=73 v=50
52320 On ch=4 n=77 v=50
52410 On ch=4 n=73 v=0
52410 On ch=4 n=77 v=0
53280 On ch=4 n=73 v=50
53280 On ch=4 n=77 v=50
53370 On ch=4 n=73 v=0
53370 On ch=4 n=77 v=0
54240 On ch=4 n=71 v=50
54240 On ch=4 n=74 v=50
54330 On ch=4 n=71 v=0
54330 On ch=4 n=74 v=0
55200 On ch=4 n=71 v=50
55200 On ch=4 n=74 v=50
55290 On ch=4 n=71 v=0
55290 On ch=4 n=74 v=0
56160 On ch=4 n=69 v=50
56160 On ch=4 n=74 v=50
56250 On ch=4 n=69 v=0
56250 On ch=4 n=74 v=0
57120 On ch=4 n=69 v=50
57120 On ch=4 n=74 v=50
57210 On ch=4 n=69 v=0
57210 On ch=4 n=74 v=0
57600 On ch=4 n=59 v=50
57690 On ch=4 n=59 v=0
57840 On ch=4 n=61 v=50
57930 On ch=4 n=61 v=0
58080 On ch=4 n=62 v=50
58170 On ch=4 n=62 v=0
58320 On ch=4 n=64 v=50
58410 On ch=4 n=64 v=0
58560 On ch=4 n=66 v=65
58650 On ch=4 n=66 v=0
58800 On ch=4 n=62 v=50
58890 On ch=4 n=62 v=0
59040 On ch=4 n=66 v=50
59130 On ch=4 n=66 v=0
59520 On ch=4 n=65 v=65
59610 On ch=4 n=65 v=0
59760 On ch=4 n=61 v=50
59850 On ch=4 n=61 v=0
60000 On ch=4 n=65 v=50
60090 On ch=4 n=65 v=0
60480 On ch=4 n=64 v=65
60570 On ch=4 n=64 v=0
60720 On ch=4 n=60 v=50
60810 On ch=4 n=60 v=0
60960 On ch=4 n=64 v=50
61050 On ch=4 n=64 v=0
61440 On ch=4 n=59 v=50
61530 On ch=4 n=59 v=0
61680 On ch=4 n=61 v=50
61770 On ch=4 n=61 v=0
61920 On ch=4 n=62 v=50
62010 On ch=4 n=62 v=0
62160 On ch=4 n=64 v=50
62250 On ch=4 n=64 v=0
62400 On ch=4 n=66 v=50
62490 On ch=4 n=66 v=0
62640 On ch=4 n=62 v=50
62730 On ch=4 n=62 v=0
62880 On ch=4 n=66 v=50
62970 On ch=4 n=66 v=0
63120 On ch=4 n=71 v=50
63210 On ch=4 n=71 v=0
63360 On ch=4 n=69 v=50
63450 On ch=4 n=69 v=0
63600 On ch=4 n=66 v=50
63690 On ch=4 n=66 v=0
63840 On ch=4 n=62 v=50
63930 On ch=4 n=62 v=0
64080 On ch=4 n=66 v=50
64170 On ch=4 n=66 v=0
64320 On ch=4 n=69 v=65
65250 On ch=4 n=69 v=0
65760 On ch=4 n=70 v=50
65760 On ch=4 n=73 v=50
65850 On ch=4 n=70 v=0
65850 On ch=4 n=73 v=0
66720 On ch=4 n=70 v=51
66720 On ch=4 n=73 v=51
66810 On ch=4 n=70 v=0
66810 On ch=4 n=73 v=0
67680 On ch=4 n=70 v=52
67680 On ch=4 n=74 v=52
67770 On ch=4 n=70 v=0
67770 On ch=4 n=74 v=0
68640 On ch=4 n=70 v=53
68640 On ch=4 n=73 v=53
68730 On ch=4 n=70 v=0
68730 On ch=4 n=73 v=0
69600 On ch=4 n=70 v=54
69600 On ch=4 n=73 v=54
69690 On ch=4 n=70 v=0
69690 On ch=4 n=73 v=0
70560 On ch=4 n=70 v=55
70560 On ch=4 n=73 v=55
70650 On ch=4 n=70 v=0
70650 On ch=4 n=73 v=0
71520 On ch=4 n=70 v=56
71520 On ch=4 n=74 v=56
71610 On ch=4 n=70 v=0
71610 On ch=4 n=74 v=0
72480 On ch=4 n=70 v=57
72480 On ch=4 n=73 v=57
72570 On ch=4 n=70 v=0
72570 On ch=4 n=73 v=0
72960 On ch=4 n=66 v=57
73050 On ch=4 n=66 v=0
73200 On ch=4 n=68 v=57
73290 On ch=4 n=68 v=0
73440 On ch=4 n=70 v=57
73530 On ch=4 n=70 v=0
73680 On ch=4 n=71 v=58
73770 On ch=4 n=71 v=0
73920 On ch=4 n=73 v=73
74010 On ch=4 n=73 v=0
74160 On ch=4 n=70 v=58
74250 On ch=4 n=70 v=0
74400 On ch=4 n=73 v=58
74490 On ch=4 n=73 v=0
74880 On ch=4 n=74 v=74
74970 On ch=4 n=74 v=0
75120 On ch=4 n=70 v=59
75210 On ch=4 n=70 v=0
75360 On ch=4 n=74 v=59
75450 On ch=4 n=74 v=0
75840 On ch=4 n=73 v=75
75930 On ch=4 n=73 v=0
76080 On ch=4 n=70 v=60
76170 On ch=4 n=70 v=0
76320 On ch=4 n=73 v=60
76410 On ch=4 n=73 v=0
76800 On ch=4 n=66 v=61
76890 On ch=4 n=66 v=0
77040 On ch=4 n=68 v=61
77130 On ch=4 n=68 v=0
77280 On ch=4 n=70 v=61
77370 On ch=4 n=70 v=0
77520 On ch=4 n=71 v=61
77610 On ch=4 n=71 v=0
77760 On ch=4 n=73 v=77
77850 On ch=4 n=73 v=0
78000 On ch=4 n=70 v=62
78090 On ch=4 n=70 v=0
78240 On ch=4 n=73 v=62
78330 On ch=4 n=73 v=0
78720 On ch=4 n=74 v=78
78810 On ch=4 n=74 v=0
78960 On ch=4 n=70 v=63
79050 On ch=4 n=70 v=0
79200 On ch=4 n=74 v=63
79290 On ch=4 n=74 v=0
79680 On ch=4 n=73 v=64
80610 On ch=4 n=73 v=0
81120 On ch=4 n=74 v=65
81120 On ch=4 n=78 v=65
81210 On ch=4 n=74 v=0
81210 On ch=4 n=78 v=0
82080 On ch=4 n=74 v=66
82080 On ch=4 n=78 v=66
82170 On ch=4 n=74 v=0
82170 On ch=4 n=78 v=0
83040 On ch=4 n=73 v=67
83040 On ch=4 n=77 v=67
83130 On ch=4 n=73 v=0
83130 On ch=4 n=77 v=0
84000 On ch=4 n=72 v=68
84000 On ch=4 n=76 v=68
84090 On ch=4 n=72 v=0
84090 On ch=4 n=76 v=0
84960 On ch=4 n=71 v=69
84960 On ch=4 n=74 v=69
85050 On ch=4 n=71 v=0
85050 On ch=4 n=74 v=0
85920 On ch=4 n=71 v=70
85920 On ch=4 n=74 v=70
86010 On ch=4 n=71 v=0
86010 On ch=4 n=74 v=0
86880 On ch=4 n=69 v=71
86880 On ch=4 n=74 v=71
86970 On ch=4 n=69 v=0
86970 On ch=4 n=74 v=0
87840 On ch=4 n=69 v=72
87840 On ch=4 n=74 v=72
87930 On ch=4 n=69 v=0
87930 On ch=4 n=74 v=0
88800 On ch=4 n=74 v=72
88800 On ch=4 n=78 v=72
88890 On ch=4 n=74 v=0
88890 On ch=4 n=78 v=0
89760 On ch=4 n=74 v=73
89760 On ch=4 n=78 v=73
89850 On ch=4 n=74 v=0
89850 On ch=4 n=78 v=0
90720 On ch=4 n=73 v=74
90720 On ch=4 n=77 v=74
90810 On ch=4 n=73 v=0
90810 On ch=4 n=77 v=0
91680 On ch=4 n=72 v=75
91680 On ch=4 n=76 v=75
91770 On ch=4 n=72 v=0
91770 On ch=4 n=76 v=0
92640 On ch=4 n=71 v=76
92640 On ch=4 n=74 v=76
92730 On ch=4 n=71 v=0
92730 On ch=4 n=74 v=0
93600 On ch=4 n=71 v=77
93600 On ch=4 n=74 v=77
93690 On ch=4 n=71 v=0
93690 On ch=4 n=74 v=0
94560 On ch=4 n=71 v=78
94560 On ch=4 n=74 v=78
94650 On ch=4 n=71 v=0
94650 On ch=4 n=74 v=0
95520 On ch=4 n=71 v=79
95520 On ch=4 n=74 v=79
95610 On ch=4 n=71 v=0
95610 On ch=4 n=74 v=0
96480 On ch=4 n=74 v=100
96480 On ch=4 n=78 v=100
96600 On ch=4 n=73 v=100
96600 On ch=4 n=77 v=100
96630 On ch=4 n=74 v=0
96630 On ch=4 n=78 v=0
96720 On ch=4 n=74 v=100
96720 On ch=4 n=78 v=100
96750 On ch=4 n=73 v=0
96750 On ch=4 n=77 v=0
96810 On ch=4 n=74 v=0
96810 On ch=4 n=78 v=0
97440 On ch=4 n=74 v=100
97440 On ch=4 n=78 v=100
97560 On ch=4 n=73 v=100
97560 On ch=4 n=77 v=100
97590 On ch=4 n=74 v=0
97590 On ch=4 n=78 v=0
97680 On ch=4 n=74 v=100
97680 On ch=4 n=78 v=100
97710 On ch=4 n=73 v=0
97710 On ch=4 n=77 v=0
97770 On ch=4 n=74 v=0
97770 On ch=4 n=78 v=0
98400 On ch=4 n=73 v=100
98400 On ch=4 n=77 v=100
98520 On ch=4 n=72 v=100
98520 On ch=4 n=76 v=100
98550 On ch=4 n=73 v=0
98550 On ch=4 n=77 v=0
98640 On ch=4 n=73 v=100
98640 On ch=4 n=77 v=100
98670 On ch=4 n=72 v=0
98670 On ch=4 n=76 v=0
98880 On ch=4 n=73 v=0
98880 On ch=4 n=77 v=0
99360 On ch=4 n=72 v=100
99360 On ch=4 n=76 v=100
99480 On ch=4 n=71 v=100
99480 On ch=4 n=75 v=100
99510 On ch=4 n=72 v=0
99510 On ch=4 n=76 v=0
99600 On ch=4 n=72 v=100
99600 On ch=4 n=76 v=100
99630 On ch=4 n=71 v=0
99630 On ch=4 n=75 v=0
99840 On ch=4 n=72 v=0
99840 On ch=4 n=76 v=0
100320 On ch=4 n=71 v=100
100320 On ch=4 n=74 v=100
100440 On ch=4 n=70 v=100
100440 On ch=4 n=73 v=100
100470 On ch=4 n=71 v=0
100470 On ch=4 n=74 v=0
100560 On ch=4 n=71 v=100
100560 On ch=4 n=74 v=100
100590 On ch=4 n=70 v=0
100590 On ch=4 n=73 v=0
100800 On ch=4 n=71 v=0
100800 On ch=4 n=74 v=0
101280 On ch=4 n=74 v=100
101280 On ch=4 n=78 v=100
101400 On ch=4 n=73 v=100
101400 On ch=4 n=77 v=100
101430 On ch=4 n=74 v=0
101430 On ch=4 n=78 v=0
101520 On ch=4 n=74 v=100
101520 On ch=4 n=78 v=100
101550 On ch=4 n=73 v=0
101550 On ch=4 n=77 v=0
101760 On ch=4 n=74 v=0
101760 On ch=4 n=78 v=0
102240 On ch=4 n=78 v=100
102240 On ch=4 n=81 v=100
102360 On ch=4 n=77 v=100
102360 On ch=4 n=80 v=100
102390 On ch=4 n=78 v=0
102390 On ch=4 n=81 v=0
102480 On ch=4 n=78 v=100
102480 On ch=4 n=81 v=100
102510 On ch=4 n=77 v=0
102510 On ch=4 n=80 v=0
102720 On ch=4 n=78 v=0
102720 On ch=4 n=81 v=0
103200 On ch=4 n=78 v=100
103200 On ch=4 n=81 v=100
103320 On ch=4 n=77 v=100
103320 On ch=4 n=80 v=100
103350 On ch=4 n=78 v=0
103350 On ch=4 n=81 v=0
103440 On ch=4 n=78 v=100
103440 On ch=4 n=81 v=100
103470 On ch=4 n=77 v=0
103470 On ch=4 n=80 v=0
103680 On ch=4 n=78 v=0
103680 On ch=4 n=81 v=0
104160 On ch=4 n=74 v=100
104160 On ch=4 n=78 v=100
104280 On ch=4 n=73 v=100
104280 On ch=4 n=77 v=100
104310 On ch=4 n=74 v=0
104310 On ch=4 n=78 v=0
104400 On ch=4 n=74 v=100
104400 On ch=4 n=78 v=100
104430 On ch=4 n=73 v=0
104430 On ch=4 n=77 v=0
104640 On ch=4 n=74 v=0
104640 On ch=4 n=78 v=0
105120 On ch=4 n=74 v=100
105120 On ch=4 n=78 v=100
105240 On ch=4 n=73 v=100
105240 On ch=4 n=77 v=100
105270 On ch=4 n=74 v=0
105270 On ch=4 n=78 v=0
105360 On ch=4 n=74 v=100
105360 On ch=4 n=78 v=100
105390 On ch=4 n=73 v=0
105390 On ch=4 n=77 v=0
105600 On ch=4 n=74 v=0
105600 On ch=4 n=78 v=0
106080 On ch=4 n=73 v=100
106080 On ch=4 n=77 v=100
106200 On ch=4 n=72 v=100
106200 On ch=4 n=76 v=100
106230 On ch=4 n=73 v=0
106230 On ch=4 n=77 v=0
106320 On ch=4 n=73 v=100
106320 On ch=4 n=77 v=100
106350 On ch=4 n=72 v=0
106350 On ch=4 n=76 v=0
106560 On ch=4 n=73 v=0
106560 On ch=4 n=77 v=0
107040 On ch=4 n=72 v=100
107040 On ch=4 n=76 v=100
107160 On ch=4 n=71 v=100
107160 On ch=4 n=75 v=100
107190 On ch=4 n=72 v=0
107190 On ch=4 n=76 v=0
107280 On ch=4 n=72 v=100
107280 On ch=4 n=76 v=100
107310 On ch=4 n=71 v=0
107310 On ch=4 n=75 v=0
107520 On ch=4 n=72 v=0
107520 On ch=4 n=76 v=0
108000 On ch=4 n=71 v=100
108000 On ch=4 n=74 v=100
108120 On ch=4 n=70 v=100
108120 On ch=4 n=73 v=100
108150 On ch=4 n=71 v=0
108150 On ch=4 n=74 v=0
108240 On ch=4 n=71 v=100
108240 On ch=4 n=74 v=100
108270 On ch=4 n=70 v=0
108270 On ch=4 n=73 v=0
108480 On ch=4 n=71 v=0
108480 On ch=4 n=74 v=0
108960 On ch=4 n=74 v=100
108960 On ch=4 n=78 v=100
109080 On ch=4 n=73 v=100
109080 On ch=4 n=77 v=100
109110 On ch=4 n=74 v=0
109110 On ch=4 n=78 v=0
109200 On ch=4 n=74 v=100
109200 On ch=4 n=78 v=100
109230 On ch=4 n=73 v=0
109230 On ch=4 n=77 v=0
109440 On ch=4 n=74 v=0
109440 On ch=4 n=78 v=0
109920 On ch=4 n=78 v=100
109920 On ch=4 n=81 v=100
110040 On ch=4 n=77 v=100
110040 On ch=4 n=80 v=100
110070 On ch=4 n=78 v=0
110070 On ch=4 n=81 v=0
110160 On ch=4 n=78 v=100
110160 On ch=4 n=81 v=100
110190 On ch=4 n=77 v=0
110190 On ch=4 n=80 v=0
110400 On ch=4 n=78 v=0
110400 On ch=4 n=81 v=0
110880 On ch=4 n=78 v=100
110880 On ch=4 n=81 v=100
111000 On ch=4 n=77 v=100
111000 On ch=4 n=80 v=100
111030 On ch=4 n=78 v=0
111030 On ch=4 n=81 v=0
111120 On ch=4 n=78 v=100
111120 On ch=4 n=81 v=100
111150 On ch=4 n=77 v=0
111150 On ch=4 n=80 v=0
111360 On ch=4 n=78 v=0
111360 On ch=4 n=81 v=0
111840 On ch=4 n=73 v=100
111840 On ch=4 n=78 v=100
111960 On ch=4 n=70 v=100
111990 On ch=4 n=78 v=0
112080 On ch=4 n=78 v=100
112110 On ch=4 n=70 v=0
112320 On ch=4 n=73 v=0
112320 On ch=4 n=78 v=0
112800 On ch=4 n=73 v=100
112800 On ch=4 n=78 v=100
112920 On ch=4 n=70 v=100
112950 On ch=4 n=78 v=0
113040 On ch=4 n=78 v=100
113070 On ch=4 n=70 v=0
113280 On ch=4 n=73 v=0
113280 On ch=4 n=78 v=0
113760 On ch=4 n=74 v=100
113760 On ch=4 n=78 v=100
113880 On ch=4 n=70 v=100
113910 On ch=4 n=78 v=0
114000 On ch=4 n=78 v=100
114030 On ch=4 n=70 v=0
114240 On ch=4 n=74 v=0
114240 On ch=4 n=78 v=0
114720 On ch=4 n=73 v=100
114720 On ch=4 n=78 v=100
114840 On ch=4 n=70 v=100
114870 On ch=4 n=78 v=0
114960 On ch=4 n=78 v=100
114990 On ch=4 n=70 v=0
115200 On ch=4 n=73 v=0
115200 On ch=4 n=78 v=0
115680 On ch=4 n=73 v=100
115680 On ch=4 n=78 v=100
115800 On ch=4 n=70 v=100
115830 On ch=4 n=78 v=0
115920 On ch=4 n=78 v=100
115950 On ch=4 n=70 v=0
116160 On ch=4 n=73 v=0
116160 On ch=4 n=78 v=0
116640 On ch=4 n=73 v=100
116640 On ch=4 n=78 v=100
116760 On ch=4 n=70 v=100
116790 On ch=4 n=78 v=0
116880 On ch=4 n=78 v=100
116910 On ch=4 n=70 v=0
117120 On ch=4 n=73 v=0
117120 On ch=4 n=78 v=0
117600 On ch=4 n=74 v=100
117600 On ch=4 n=78 v=100
117720 On ch=4 n=70 v=100
117750 On ch=4 n=78 v=0
117840 On ch=4 n=78 v=100
117870 On ch=4 n=70 v=0
118080 On ch=4 n=74 v=0
118080 On ch=4 n=78 v=0
118560 On ch=4 n=73 v=100
118560 On ch=4 n=78 v=100
118680 On ch=4 n=70 v=100
118710 On ch=4 n=78 v=0
118800 On ch=4 n=78 v=100
118830 On ch=4 n=70 v=0
119040 On ch=4 n=73 v=0
119040 On ch=4 n=78 v=0
119520 On ch=4 n=73 v=100
119520 On ch=4 n=78 v=100
119640 On ch=4 n=70 v=100
119670 On ch=4 n=78 v=0
119760 On ch=4 n=78 v=100
119790 On ch=4 n=70 v=0
120000 On ch=4 n=73 v=0
120000 On ch=4 n=78 v=0
120480 On ch=4 n=73 v=100
120480 On ch=4 n=78 v=100
120600 On ch=4 n=70 v=100
120630 On ch=4 n=78 v=0
120720 On ch=4 n=78 v=100
120750 On ch=4 n=70 v=0
120960 On ch=4 n=73 v=0
120960 On ch=4 n=78 v=0
121440 On ch=4 n=75 v=100
121440 On ch=4 n=78 v=100
121560 On ch=4 n=70 v=100
121590 On ch=4 n=78 v=0
121680 On ch=4 n=78 v=100
121710 On ch=4 n=70 v=0
121920 On ch=4 n=75 v=0
121920 On ch=4 n=78 v=0
122400 On ch=4 n=73 v=100
122400 On ch=4 n=78 v=100
122520 On ch=4 n=70 v=100
122550 On ch=4 n=78 v=0
122640 On ch=4 n=78 v=100
122670 On ch=4 n=70 v=0
122880 On ch=4 n=73 v=0
122880 On ch=4 n=78 v=0
123360 On ch=4 n=73 v=100
123360 On ch=4 n=78 v=100
123480 On ch=4 n=70 v=100
123510 On ch=4 n=78 v=0
123600 On ch=4 n=78 v=100
123630 On ch=4 n=70 v=0
123840 On ch=4 n=73 v=0
123840 On ch=4 n=78 v=0
124320 On ch=4 n=73 v=100
124320 On ch=4 n=78 v=100
124440 On ch=4 n=70 v=100
124470 On ch=4 n=78 v=0
124560 On ch=4 n=78 v=100
124590 On ch=4 n=70 v=0
124800 On ch=4 n=73 v=0
124800 On ch=4 n=78 v=0
125280 On ch=4 n=75 v=100
125280 On ch=4 n=78 v=100
125400 On ch=4 n=70 v=100
125430 On ch=4 n=78 v=0
125520 On ch=4 n=78 v=100
125550 On ch=4 n=70 v=0
125760 On ch=4 n=75 v=0
125760 On ch=4 n=78 v=0
126240 On ch=4 n=73 v=100
126240 On ch=4 n=78 v=100
126360 On ch=4 n=70 v=100
126390 On ch=4 n=78 v=0
126480 On ch=4 n=78 v=100
126510 On ch=4 n=70 v=0
126720 On ch=4 n=73 v=0
126720 On ch=4 n=78 v=0
127200 On ch=4 n=74 v=100
127200 On ch=4 n=78 v=100
127320 On ch=4 n=73 v=100
127320 On ch=4 n=77 v=100
127350 On ch=4 n=74 v=0
127350 On ch=4 n=78 v=0
127440 On ch=4 n=74 v=100
127440 On ch=4 n=78 v=100
127470 On ch=4 n=73 v=0
127470 On ch=4 n=77 v=0
127680 On ch=4 n=74 v=0
127680 On ch=4 n=78 v=0
128160 On ch=4 n=74 v=100
128160 On ch=4 n=78 v=100
128280 On ch=4 n=73 v=100
128280 On ch=4 n=77 v=100
128310 On ch=4 n=74 v=0
128310 On ch=4 n=78 v=0
128400 On ch=4 n=74 v=100
128400 On ch=4 n=78 v=100
128430 On ch=4 n=73 v=0
128430 On ch=4 n=77 v=0
128640 On ch=4 n=74 v=0
128640 On ch=4 n=78 v=0
129120 On ch=4 n=73 v=100
129120 On ch=4 n=77 v=100
129240 On ch=4 n=72 v=100
129240 On ch=4 n=76 v=100
129270 On ch=4 n=73 v=0
129270 On ch=4 n=77 v=0
129360 On ch=4 n=73 v=100
129360 On ch=4 n=77 v=100
129390 On ch=4 n=72 v=0
129390 On ch=4 n=76 v=0
129600 On ch=4 n=73 v=0
129600 On ch=4 n=77 v=0
130080 On ch=4 n=72 v=100
130080 On ch=4 n=76 v=100
130200 On ch=4 n=71 v=100
130200 On ch=4 n=75 v=100
130230 On ch=4 n=72 v=0
130230 On ch=4 n=76 v=0
130320 On ch=4 n=72 v=100
130320 On ch=4 n=76 v=100
130350 On ch=4 n=71 v=0
130350 On ch=4 n=75 v=0
130560 On ch=4 n=72 v=0
130560 On ch=4 n=76 v=0
131040 On ch=4 n=71 v=100
131040 On ch=4 n=74 v=100
131160 On ch=4 n=70 v=100
131160 On ch=4 n=73 v=100
131190 On ch=4 n=71 v=0
131190 On ch=4 n=74 v=0
131280 On ch=4 n=71 v=100
131280 On ch=4 n=74 v=100
131310 On ch=4 n=70 v=0
131310 On ch=4 n=73 v=0
131520 On ch=4 n=71 v=0
131520 On ch=4 n=74 v=0
132000 On ch=4 n=74 v=100
132000 On ch=4 n=78 v=100
132120 On ch=4 n=73 v=100
132120 On ch=4 n=77 v=100
132150 On ch=4 n=74 v=0
132150 On ch=4 n=78 v=0
132240 On ch=4 n=74 v=100
132240 On ch=4 n=78 v=100
132270 On ch=4 n=73 v=0
132270 On ch=4 n=77 v=0
132480 On ch=4 n=74 v=0
132480 On ch=4 n=78 v=0
132960 On ch=4 n=78 v=100
132960 On ch=4 n=81 v=100
133080 On ch=4 n=77 v=100
133080 On ch=4 n=80 v=100
133110 On ch=4 n=78 v=0
133110 On ch=4 n=81 v=0
133200 On ch=4 n=78 v=100
133200 On ch=4 n=81 v=100
133230 On ch=4 n=77 v=0
133230 On ch=4 n=80 v=0
133440 On ch=4 n=78 v=0
133440 On ch=4 n=81 v=0
133920 On ch=4 n=78 v=100
133920 On ch=4 n=81 v=100
134040 On ch=4 n=77 v=100
134040 On ch=4 n=80 v=100
134070 On ch=4 n=78 v=0
134070 On ch=4 n=81 v=0
134160 On ch=4 n=78 v=100
134160 On ch=4 n=81 v=100
134190 On ch=4 n=77 v=0
134190 On ch=4 n=80 v=0
134400 On ch=4 n=78 v=0
134400 On ch=4 n=81 v=0
134880 On ch=4 n=74 v=100
134880 On ch=4 n=78 v=100
135000 On ch=4 n=73 v=100
135000 On ch=4 n=77 v=100
135030 On ch=4 n=74 v=0
135030 On ch=4 n=78 v=0
135120 On ch=4 n=74 v=100
135120 On ch=4 n=78 v=100
135150 On ch=4 n=73 v=0
135150 On ch=4 n=77 v=0
135360 On ch=4 n=74 v=0
135360 On ch=4 n=78 v=0
135840 On ch=4 n=74 v=100
135840 On ch=4 n=78 v=100
135960 On ch=4 n=73 v=100
135960 On ch=4 n=77 v=100
135990 On ch=4 n=74 v=0
135990 On ch=4 n=78 v=0
136080 On ch=4 n=74 v=100
136080 On ch=4 n=78 v=100
136110 On ch=4 n=73 v=0
136110 On ch=4 n=77 v=0
136320 On ch=4 n=74 v=0
136320 On ch=4 n=78 v=0
136800 On ch=4 n=73 v=100
136800 On ch=4 n=77 v=100
136920 On ch=4 n=72 v=100
136920 On ch=4 n=76 v=100
136950 On ch=4 n=73 v=0
136950 On ch=4 n=77 v=0
137040 On ch=4 n=73 v=100
137040 On ch=4 n=77 v=100
137070 On ch=4 n=72 v=0
137070 On ch=4 n=76 v=0
137280 On ch=4 n=73 v=0
137280 On ch=4 n=77 v=0
137760 On ch=4 n=72 v=100
137760 On ch=4 n=76 v=100
137880 On ch=4 n=71 v=100
137880 On ch=4 n=75 v=100
137910 On ch=4 n=72 v=0
137910 On ch=4 n=76 v=0
138000 On ch=4 n=72 v=100
138000 On ch=4 n=76 v=100
138030 On ch=4 n=71 v=0
138030 On ch=4 n=75 v=0
138240 On ch=4 n=72 v=0
138240 On ch=4 n=76 v=0
138720 On ch=4 n=71 v=100
138720 On ch=4 n=74 v=100
138840 On ch=4 n=70 v=100
138840 On ch=4 n=73 v=100
138870 On ch=4 n=71 v=0
138870 On ch=4 n=74 v=0
138960 On ch=4 n=71 v=100
138960 On ch=4 n=74 v=100
138990 On ch=4 n=70 v=0
138990 On ch=4 n=73 v=0
139200 On ch=4 n=71 v=0
139200 On ch=4 n=74 v=0
139680 On ch=4 n=74 v=100
139680 On ch=4 n=78 v=100
139800 On ch=4 n=73 v=100
139800 On ch=4 n=77 v=100
139830 On ch=4 n=74 v=0
139830 On ch=4 n=78 v=0
139920 On ch=4 n=74 v=100
139920 On ch=4 n=78 v=100
139950 On ch=4 n=73 v=0
139950 On ch=4 n=77 v=0
140160 On ch=4 n=74 v=0
140160 On ch=4 n=78 v=0
140640 On ch=4 n=74 v=100
140640 On ch=4 n=78 v=100
140760 On ch=4 n=73 v=100
140760 On ch=4 n=77 v=100
140790 On ch=4 n=74 v=0
140790 On ch=4 n=78 v=0
140880 On ch=4 n=74 v=100
140880 On ch=4 n=78 v=100
140910 On ch=4 n=73 v=0
140910 On ch=4 n=77 v=0
141120 On ch=4 n=74 v=0
141120 On ch=4 n=78 v=0
141600 On ch=4 n=74 v=100
141600 On ch=4 n=78 v=100
141720 On ch=4 n=73 v=100
141720 On ch=4 n=77 v=100
141750 On ch=4 n=74 v=0
141750 On ch=4 n=78 v=0
141840 On ch=4 n=74 v=100
141840 On ch=4 n=78 v=100
141870 On ch=4 n=73 v=0
141870 On ch=4 n=77 v=0
142080 On ch=4 n=74 v=0
142080 On ch=4 n=78 v=0
142560 On ch=4 n=74 v=100
142560 On ch=4 n=77 v=100
142680 On ch=4 n=73 v=100
142680 On ch=4 n=76 v=100
142710 On ch=4 n=74 v=0
142710 On ch=4 n=77 v=0
142800 On ch=4 n=74 v=100
142800 On ch=4 n=77 v=100
142830 On ch=4 n=73 v=0
142830 On ch=4 n=76 v=0
143040 On ch=4 n=74 v=0
143040 On ch=4 n=77 v=0
144480 On ch=4 n=74 v=100
144480 On ch=4 n=78 v=100
144600 On ch=4 n=73 v=100
144600 On ch=4 n=77 v=100
144630 On ch=4 n=74 v=0
144630 On ch=4 n=78 v=0
144720 On ch=4 n=74 v=100
144720 On ch=4 n=78 v=100
144750 On ch=4 n=73 v=0
144750 On ch=4 n=77 v=0
144960 On ch=4 n=74 v=0
144960 On ch=4 n=78 v=0
145920 On ch=4 n=59 v=80
145920 On ch=4 n=71 v=80
146070 On ch=4 n=59 v=0
146070 On ch=4 n=71 v=0
146160 On ch=4 n=61 v=82
146160 On ch=4 n=73 v=82
146310 On ch=4 n=61 v=0
146310 On ch=4 n=73 v=0
146400 On ch=4 n=62 v=85
146400 On ch=4 n=74 v=85
146550 On ch=4 n=62 v=0
146550 On ch=4 n=74 v=0
146640 On ch=4 n=64 v=87
146640 On ch=4 n=76 v=87
146790 On ch=4 n=64 v=0
146790 On ch=4 n=76 v=0
146880 On ch=4 n=66 v=90
146880 On ch=4 n=78 v=90
147030 On ch=4 n=66 v=0
147030 On ch=4 n=78 v=0
147120 On ch=4 n=62 v=92
147120 On ch=4 n=74 v=92
147270 On ch=4 n=62 v=0
147270 On ch=4 n=74 v=0
147360 On ch=4 n=66 v=95
147360 On ch=4 n=78 v=95
147510 On ch=4 n=66 v=0
147510 On ch=4 n=78 v=0
147600 On ch=4 n=71 v=97
147600 On ch=4 n=83 v=97
147750 On ch=4 n=71 v=0
147750 On ch=4 n=83 v=0
147840 On ch=4 n=70 v=100
147840 On ch=4 n=82 v=100
147990 On ch=4 n=70 v=0
147990 On ch=4 n=82 v=0
148080 On ch=4 n=66 v=102
148080 On ch=4 n=78 v=102
148230 On ch=4 n=66 v=0
148230 On ch=4 n=78 v=0
148320 On ch=4 n=70 v=105
148320 On ch=4 n=82 v=105
148470 On ch=4 n=70 v=0
148470 On ch=4 n=82 v=0
148560 On ch=4 n=73 v=107
148560 On ch=4 n=85 v=107
148710 On ch=4 n=73 v=0
148710 On ch=4 n=85 v=0
148800 On ch=4 n=71 v=110
148800 On ch=4 n=83 v=110
149730 On ch=4 n=71 v=0
149730 On ch=4 n=83 v=0
150240 On ch=4 n=74 v=100
150240 On ch=4 n=77 v=100
150360 On ch=4 n=73 v=100
150360 On ch=4 n=76 v=100
150390 On ch=4 n=74 v=0
150390 On ch=4 n=77 v=0
150480 On ch=4 n=74 v=100
150480 On ch=4 n=77 v=100
150510 On ch=4 n=73 v=0
150510 On ch=4 n=76 v=0
150720 On ch=4 n=74 v=0
150720 On ch=4 n=77 v=0
152160 On ch=4 n=74 v=100
152160 On ch=4 n=78 v=100
152280 On ch=4 n=73 v=100
152280 On ch=4 n=77 v=100
152310 On ch=4 n=74 v=0
152310 On ch=4 n=78 v=0
152400 On ch=4 n=74 v=100
152400 On ch=4 n=78 v=100
152430 On ch=4 n=73 v=0
152430 On ch=4 n=77 v=0
152640 On ch=4 n=74 v=0
152640 On ch=4 n=78 v=0
153600 On ch=4 n=59 v=80
153600 On ch=4 n=71 v=80
153750 On ch=4 n=59 v=0
153750 On ch=4 n=71 v=0
153840 On ch=4 n=61 v=82
153840 On ch=4 n=73 v=82
153990 On ch=4 n=61 v=0
153990 On ch=4 n=73 v=0
154080 On ch=4 n=62 v=85
154080 On ch=4 n=74 v=85
154230 On ch=4 n=62 v=0
154230 On ch=4 n=74 v=0
154320 On ch=4 n=64 v=87
154320 On ch=4 n=76 v=87
154470 On ch=4 n=64 v=0
154470 On ch=4 n=76 v=0
154560 On ch=4 n=66 v=90
154560 On ch=4 n=78 v=90
154710 On ch=4 n=66 v=0
154710 On ch=4 n=78 v=0
154800 On ch=4 n=62 v=92
154800 On ch=4 n=74 v=92
154950 On ch=4 n=62 v=0
154950 On ch=4 n=74 v=0
155040 On ch=4 n=66 v=95
155040 On ch=4 n=78 v=95
155190 On ch=4 n=66 v=0
155190 On ch=4 n=78 v=0
155280 On ch=4 n=71 v=97
155280 On ch=4 n=83 v=97
155430 On ch=4 n=71 v=0
155430 On ch=4 n=83 v=0
155520 On ch=4 n=70 v=100
155520 On ch=4 n=82 v=100
155670 On ch=4 n=70 v=0
155670 On ch=4 n=82 v=0
155760 On ch=4 n=66 v=102
155760 On ch=4 n=78 v=102
155910 On ch=4 n=66 v=0
155910 On ch=4 n=78 v=0
156000 On ch=4 n=70 v=105
156000 On ch=4 n=82 v=105
156150 On ch=4 n=70 v=0
156150 On ch=4 n=82 v=0
156240 On ch=4 n=73 v=107
156240 On ch=4 n=85 v=107
156390 On ch=4 n=73 v=0
156390 On ch=4 n=85 v=0
156480 On ch=4 n=71 v=110
156480 On ch=4 n=83 v=110
157410 On ch=4 n=71 v=0
157410 On ch=4 n=83 v=0
157920 On ch=4 n=74 v=100
157920 On ch=4 n=77 v=100
158040 On ch=4 n=73 v=100
158040 On ch=4 n=76 v=100
158070 On ch=4 n=74 v=0
158070 On ch=4 n=77 v=0
158160 On ch=4 n=74 v=100
158160 On ch=4 n=77 v=100
158190 On ch=4 n=73 v=0
158190 On ch=4 n=76 v=0
158400 On ch=4 n=74 v=0
158400 On ch=4 n=77 v=0
159840 On ch=4 n=74 v=100
159840 On ch=4 n=77 v=100
159960 On ch=4 n=73 v=100
159960 On ch=4 n=76 v=100
159990 On ch=4 n=74 v=0
159990 On ch=4 n=77 v=0
160080 On ch=4 n=74 v=100
160080 On ch=4 n=77 v=100
160110 On ch=4 n=73 v=0
160110 On ch=4 n=76 v=0
160320 On ch=4 n=74 v=0
160320 On ch=4 n=77 v=0
161760 On ch=4 n=74 v=50
161760 On ch=4 n=77 v=50
161880 On ch=4 n=73 v=52
161880 On ch=4 n=76 v=52
161910 On ch=4 n=74 v=0
161910 On ch=4 n=77 v=0
162000 On ch=4 n=74 v=54
162000 On ch=4 n=77 v=54
162030 On ch=4 n=73 v=0
162030 On ch=4 n=76 v=0
162210 On ch=4 n=74 v=0
162210 On ch=4 n=77 v=0
162240 On ch=4 n=74 v=58
162240 On ch=4 n=77 v=58
162360 On ch=4 n=73 v=60
162360 On ch=4 n=76 v=60
162390 On ch=4 n=74 v=0
162390 On ch=4 n=77 v=0
162480 On ch=4 n=74 v=62
162480 On ch=4 n=77 v=62
162510 On ch=4 n=73 v=0
162510 On ch=4 n=76 v=0
162690 On ch=4 n=74 v=0
162690 On ch=4 n=77 v=0
162720 On ch=4 n=74 v=67
162720 On ch=4 n=77 v=67
162840 On ch=4 n=73 v=69
162840 On ch=4 n=76 v=69
162870 On ch=4 n=74 v=0
162870 On ch=4 n=77 v=0
162960 On ch=4 n=74 v=71
162960 On ch=4 n=77 v=71
162990 On ch=4 n=73 v=0
162990 On ch=4 n=76 v=0
163170 On ch=4 n=74 v=0
163170 On ch=4 n=77 v=0
163200 On ch=4 n=74 v=75
163200 On ch=4 n=77 v=75
163320 On ch=4 n=73 v=77
163320 On ch=4 n=76 v=77
163350 On ch=4 n=74 v=0
163350 On ch=4 n=77 v=0
163440 On ch=4 n=74 v=80
163440 On ch=4 n=77 v=80
163470 On ch=4 n=73 v=0
163470 On ch=4 n=76 v=0
163650 On ch=4 n=74 v=0
163650 On ch=4 n=77 v=0
163680 On ch=4 n=74 v=84
163680 On ch=4 n=77 v=84
163800 On ch=4 n=73 v=86
163800 On ch=4 n=76 v=86
163830 On ch=4 n=74 v=0
163830 On ch=4 n=77 v=0
163920 On ch=4 n=74 v=88
163920 On ch=4 n=77 v=88
163950 On ch=4 n=73 v=0
163950 On ch=4 n=76 v=0
164130 On ch=4 n=74 v=0
164130 On ch=4 n=77 v=0
164160 On ch=4 n=74 v=92
164160 On ch=4 n=77 v=92
164280 On ch=4 n=73 v=95
164280 On ch=4 n=76 v=95
164310 On ch=4 n=74 v=0
164310 On ch=4 n=77 v=0
164400 On ch=4 n=74 v=97
164400 On ch=4 n=77 v=97
164430 On ch=4 n=73 v=0
164430 On ch=4 n=76 v=0
164610 On ch=4 n=74 v=0
164610 On ch=4 n=77 v=0
164640 On ch=4 n=74 v=101
164640 On ch=4 n=77 v=101
164760 On ch=4 n=73 v=103
164760 On ch=4 n=76 v=103
164790 On ch=4 n=74 v=0
164790 On ch=4 n=77 v=0
164880 On ch=4 n=74 v=105
164880 On ch=4 n=77 v=105
164910 On ch=4 n=73 v=0
164910 On ch=4 n=76 v=0
165090 On ch=4 n=74 v=0
165090 On ch=4 n=77 v=0
168480 Par ch=4 c=11 v=100
169440 On ch=4 n=74 v=127
169440 On ch=4 n=78 v=127
169560 On ch=4 n=73 v=127
169560 On ch=4 n=77 v=127
169590 On ch=4 n=74 v=0
169590 On ch=4 n=78 v=0
169680 On ch=4 n=74 v=127
169680 On ch=4 n=78 v=127
169710 On ch=4 n=73 v=0
169710 On ch=4 n=77 v=0
169890 On ch=4 n=74 v=0
169890 On ch=4 n=78 v=0
169890 Meta TrkEnd
TrkEnd
MTrk
0 Meta 0x20 04
0 Meta TrkName "Bassoon I"
0 Meta InstrName "Fagotti "
3840 On ch=5 n=47 v=40
3920 On ch=5 n=47 v=0
4320 On ch=5 n=54 v=40
4400 On ch=5 n=54 v=0
4800 On ch=5 n=47 v=40
4880 On ch=5 n=47 v=0
5280 On ch=5 n=54 v=40
5360 On ch=5 n=54 v=0
5760 On ch=5 n=47 v=40
5840 On ch=5 n=47 v=0
6240 On ch=5 n=54 v=40
6320 On ch=5 n=54 v=0
6720 On ch=5 n=47 v=40
6800 On ch=5 n=47 v=0
7200 On ch=5 n=54 v=40
7280 On ch=5 n=54 v=0
7680 On ch=5 n=47 v=40
7760 On ch=5 n=47 v=0
8160 On ch=5 n=54 v=40
8240 On ch=5 n=54 v=0
8640 On ch=5 n=47 v=40
8720 On ch=5 n=47 v=0
9120 On ch=5 n=54 v=40
9200 On ch=5 n=54 v=0
9600 On ch=5 n=50 v=40
9680 On ch=5 n=50 v=0
10080 On ch=5 n=57 v=40
10160 On ch=5 n=57 v=0
10560 On ch=5 n=50 v=40
10640 On ch=5 n=50 v=0
11040 On ch=5 n=57 v=40
11120 On ch=5 n=57 v=0
11520 On ch=5 n=47 v=40
11600 On ch=5 n=47 v=0
11760 On ch=5 n=49 v=40
11840 On ch=5 n=49 v=0
12000 On ch=5 n=50 v=40
12080 On ch=5 n=50 v=0
12240 On ch=5 n=52 v=40
12320 On ch=5 n=52 v=0
12480 On ch=5 n=54 v=65
12560 On ch=5 n=54 v=0
12720 On ch=5 n=50 v=40
12800 On ch=5 n=50 v=0
12960 On ch=5 n=54 v=40
13040 On ch=5 n=54 v=0
13440 On ch=5 n=53 v=65
13520 On ch=5 n=53 v=0
13680 On ch=5 n=49 v=40
13760 On ch=5 n=49 v=0
13920 On ch=5 n=53 v=40
14000 On ch=5 n=53 v=0
14400 On ch=5 n=52 v=65
14480 On ch=5 n=52 v=0
14640 On ch=5 n=48 v=40
14720 On ch=5 n=48 v=0
14880 On ch=5 n=52 v=40
14960 On ch=5 n=52 v=0
15360 On ch=5 n=47 v=40
15440 On ch=5 n=47 v=0
15600 On ch=5 n=49 v=40
15680 On ch=5 n=49 v=0
15840 On ch=5 n=50 v=40
15920 On ch=5 n=50 v=0
16080 On ch=5 n=52 v=40
16160 On ch=5 n=52 v=0
16320 On ch=5 n=54 v=40
16400 On ch=5 n=54 v=0
16560 On ch=5 n=50 v=40
16640 On ch=5 n=50 v=0
16800 On ch=5 n=54 v=40
16880 On ch=5 n=54 v=0
17040 On ch=5 n=59 v=40
17120 On ch=5 n=59 v=0
17280 On ch=5 n=57 v=65
17360 On ch=5 n=57 v=0
17520 On ch=5 n=54 v=40
17600 On ch=5 n=54 v=0
17760 On ch=5 n=50 v=40
17840 On ch=5 n=50 v=0
18000 On ch=5 n=54 v=40
18080 On ch=5 n=54 v=0
18240 On ch=5 n=57 v=55
18690 On ch=5 n=57 v=0
19200 On ch=5 n=54 v=40
19280 On ch=5 n=54 v=0
19680 On ch=5 n=61 v=40
19760 On ch=5 n=61 v=0
20160 On ch=5 n=54 v=40
20240 On ch=5 n=54 v=0
20640 On ch=5 n=58 v=40
20720 On ch=5 n=58 v=0
21120 On ch=5 n=50 v=40
21200 On ch=5 n=50 v=0
21600 On ch=5 n=58 v=40
21680 On ch=5 n=58 v=0
22080 On ch=5 n=54 v=40
22160 On ch=5 n=54 v=0
22560 On ch=5 n=58 v=40
22640 On ch=5 n=58 v=0
23040 On ch=5 n=54 v=40
23120 On ch=5 n=54 v=0
23520 On ch=5 n=61 v=40
23600 On ch=5 n=61 v=0
24000 On ch=5 n=54 v=40
24080 On ch=5 n=54 v=0
24480 On ch=5 n=58 v=40
24560 On ch=5 n=58 v=0
24960 On ch=5 n=50 v=40
25040 On ch=5 n=50 v=0
25440 On ch=5 n=58 v=40
25520 On ch=5 n=58 v=0
25920 On ch=5 n=54 v=40
26000 On ch=5 n=54 v=0
26400 On ch=5 n=58 v=40
26480 On ch=5 n=58 v=0
26880 On ch=5 n=54 v=40
26960 On ch=5 n=54 v=0
27120 On ch=5 n=56 v=40
27200 On ch=5 n=56 v=0
27360 On ch=5 n=58 v=40
27440 On ch=5 n=58 v=0
27600 On ch=5 n=59 v=40
27680 On ch=5 n=59 v=0
27840 On ch=5 n=61 v=60
27920 On ch=5 n=61 v=0
28080 On ch=5 n=58 v=40
28160 On ch=5 n=58 v=0
28320 On ch=5 n=61 v=40
28400 On ch=5 n=61 v=0
28800 On ch=5 n=62 v=60
28880 On ch=5 n=62 v=0
29040 On ch=5 n=58 v=40
29120 On ch=5 n=58 v=0
29280 On ch=5 n=62 v=40
29360 On ch=5 n=62 v=0
29760 On ch=5 n=61 v=60
29840 On ch=5 n=61 v=0
30000 On ch=5 n=58 v=40
30080 On ch=5 n=58 v=0
30240 On ch=5 n=61 v=40
30320 On ch=5 n=61 v=0
30720 On ch=5 n=54 v=40
30800 On ch=5 n=54 v=0
30960 On ch=5 n=56 v=40
31040 On ch=5 n=56 v=0
31200 On ch=5 n=58 v=40
31280 On ch=5 n=58 v=0
31440 On ch=5 n=59 v=40
31520 On ch=5 n=59 v=0
31680 On ch=5 n=61 v=60
31760 On ch=5 n=61 v=0
31920 On ch=5 n=58 v=40
32000 On ch=5 n=58 v=0
32160 On ch=5 n=61 v=40
32240 On ch=5 n=61 v=0
32640 On ch=5 n=62 v=60
32720 On ch=5 n=62 v=0
32880 On ch=5 n=58 v=40
32960 On ch=5 n=58 v=0
33120 On ch=5 n=62 v=40
33200 On ch=5 n=62 v=0
33600 On ch=5 n=61 v=60
33680 On ch=5 n=61 v=0
34560 On ch=5 n=47 v=40
34640 On ch=5 n=47 v=0
35040 On ch=5 n=54 v=40
35120 On ch=5 n=54 v=0
35520 On ch=5 n=47 v=40
35600 On ch=5 n=47 v=0
36000 On ch=5 n=54 v=40
36080 On ch=5 n=54 v=0
36480 On ch=5 n=47 v=40
36560 On ch=5 n=47 v=0
36960 On ch=5 n=54 v=40
37040 On ch=5 n=54 v=0
37440 On ch=5 n=47 v=40
37520 On ch=5 n=47 v=0
37920 On ch=5 n=54 v=40
38000 On ch=5 n=54 v=0
38400 On ch=5 n=47 v=40
38480 On ch=5 n=47 v=0
38880 On ch=5 n=54 v=40
38960 On ch=5 n=54 v=0
39360 On ch=5 n=47 v=40
39440 On ch=5 n=47 v=0
39840 On ch=5 n=54 v=40
39920 On ch=5 n=54 v=0
40320 On ch=5 n=50 v=40
40400 On ch=5 n=50 v=0
40800 On ch=5 n=57 v=40
40880 On ch=5 n=57 v=0
41280 On ch=5 n=50 v=40
41360 On ch=5 n=50 v=0
41760 On ch=5 n=57 v=40
41840 On ch=5 n=57 v=0
42240 On ch=5 n=47 v=40
42320 On ch=5 n=47 v=0
42480 On ch=5 n=49 v=40
42560 On ch=5 n=49 v=0
42720 On ch=5 n=50 v=40
42800 On ch=5 n=50 v=0
42960 On ch=5 n=52 v=40
43040 On ch=5 n=52 v=0
43200 On ch=5 n=54 v=65
43280 On ch=5 n=54 v=0
43440 On ch=5 n=50 v=40
43520 On ch=5 n=50 v=0
43680 On ch=5 n=54 v=40
43760 On ch=5 n=54 v=0
44160 On ch=5 n=53 v=65
44240 On ch=5 n=53 v=0
44400 On ch=5 n=49 v=40
44480 On ch=5 n=49 v=0
44640 On ch=5 n=53 v=40
44720 On ch=5 n=53 v=0
45120 On ch=5 n=52 v=65
45200 On ch=5 n=52 v=0
45360 On ch=5 n=48 v=40
45440 On ch=5 n=48 v=0
45600 On ch=5 n=52 v=40
45680 On ch=5 n=52 v=0
46080 On ch=5 n=47 v=40
46160 On ch=5 n=47 v=0
46320 On ch=5 n=49 v=40
46400 On ch=5 n=49 v=0
46560 On ch=5 n=50 v=40
46640 On ch=5 n=50 v=0
46800 On ch=5 n=52 v=40
46880 On ch=5 n=52 v=0
47040 On ch=5 n=54 v=40
47120 On ch=5 n=54 v=0
47280 On ch=5 n=50 v=40
47360 On ch=5 n=50 v=0
47520 On ch=5 n=54 v=40
47600 On ch=5 n=54 v=0
47760 On ch=5 n=59 v=40
47840 On ch=5 n=59 v=0
48000 On ch=5 n=54 v=40
48080 On ch=5 n=54 v=0
48240 On ch=5 n=50 v=40
48320 On ch=5 n=50 v=0
48480 On ch=5 n=54 v=40
48560 On ch=5 n=54 v=0
48720 On ch=5 n=59 v=40
48800 On ch=5 n=59 v=0
48960 On ch=5 n=47 v=40
49890 On ch=5 n=47 v=0
57600 On ch=5 n=42 v=50
57690 On ch=5 n=42 v=0
58080 On ch=5 n=54 v=50
58170 On ch=5 n=54 v=0
58560 On ch=5 n=42 v=50
58650 On ch=5 n=42 v=0
59040 On ch=5 n=54 v=50
59130 On ch=5 n=54 v=0
59520 On ch=5 n=42 v=50
59610 On ch=5 n=42 v=0
60000 On ch=5 n=53 v=50
60090 On ch=5 n=53 v=0
60480 On ch=5 n=42 v=50
60570 On ch=5 n=42 v=0
60960 On ch=5 n=52 v=50
61050 On ch=5 n=52 v=0
61440 On ch=5 n=42 v=50
61530 On ch=5 n=42 v=0
61920 On ch=5 n=50 v=50
62010 On ch=5 n=50 v=0
62400 On ch=5 n=42 v=50
62490 On ch=5 n=42 v=0
62880 On ch=5 n=50 v=50
62970 On ch=5 n=50 v=0
63360 On ch=5 n=45 v=50
63450 On ch=5 n=45 v=0
63840 On ch=5 n=50 v=50
63930 On ch=5 n=50 v=0
64320 On ch=5 n=45 v=50
64410 On ch=5 n=45 v=0
64800 On ch=5 n=50 v=50
64890 On ch=5 n=50 v=0
72960 On ch=5 n=49 v=57
73050 On ch=5 n=49 v=0
73440 On ch=5 n=54 v=57
73530 On ch=5 n=54 v=0
73920 On ch=5 n=49 v=58
74010 On ch=5 n=49 v=0
74400 On ch=5 n=54 v=58
74490 On ch=5 n=54 v=0
74880 On ch=5 n=50 v=59
74970 On ch=5 n=50 v=0
75360 On ch=5 n=54 v=59
75450 On ch=5 n=54 v=0
75840 On ch=5 n=49 v=60
75930 On ch=5 n=49 v=0
76320 On ch=5 n=54 v=60
76410 On ch=5 n=54 v=0
76800 On ch=5 n=49 v=61
76890 On ch=5 n=49 v=0
77280 On ch=5 n=54 v=61
77370 On ch=5 n=54 v=0
77760 On ch=5 n=49 v=62
77850 On ch=5 n=49 v=0
78240 On ch=5 n=54 v=62
78330 On ch=5 n=54 v=0
78720 On ch=5 n=50 v=63
78810 On ch=5 n=50 v=0
79200 On ch=5 n=54 v=63
79290 On ch=5 n=54 v=0
79680 On ch=5 n=49 v=64
79770 On ch=5 n=49 v=0
80160 On ch=5 n=54 v=64
80250 On ch=5 n=54 v=0
80640 On ch=5 n=42 v=65
80730 On ch=5 n=42 v=0
81120 On ch=5 n=54 v=65
81210 On ch=5 n=54 v=0
81600 On ch=5 n=42 v=65
81690 On ch=5 n=42 v=0
82080 On ch=5 n=54 v=66
82170 On ch=5 n=54 v=0
82560 On ch=5 n=42 v=66
82650 On ch=5 n=42 v=0
83040 On ch=5 n=53 v=67
83130 On ch=5 n=53 v=0
83520 On ch=5 n=42 v=67
83610 On ch=5 n=42 v=0
84000 On ch=5 n=52 v=68
84090 On ch=5 n=52 v=0
84480 On ch=5 n=42 v=68
84570 On ch=5 n=42 v=0
84960 On ch=5 n=50 v=69
85050 On ch=5 n=50 v=0
85440 On ch=5 n=42 v=69
85530 On ch=5 n=42 v=0
85920 On ch=5 n=50 v=70
86010 On ch=5 n=50 v=0
86400 On ch=5 n=45 v=70
86490 On ch=5 n=45 v=0
86880 On ch=5 n=50 v=71
86970 On ch=5 n=50 v=0
87360 On ch=5 n=45 v=71
87450 On ch=5 n=45 v=0
87840 On ch=5 n=50 v=72
87930 On ch=5 n=50 v=0
88320 On ch=5 n=42 v=72
88410 On ch=5 n=42 v=0
88800 On ch=5 n=54 v=72
88890 On ch=5 n=54 v=0
89280 On ch=5 n=42 v=73
89370 On ch=5 n=42 v=0
89760 On ch=5 n=54 v=73
89850 On ch=5 n=54 v=0
90240 On ch=5 n=42 v=74
90330 On ch=5 n=42 v=0
90720 On ch=5 n=53 v=74
90810 On ch=5 n=53 v=0
91200 On ch=5 n=42 v=75
91290 On ch=5 n=42 v=0
91680 On ch=5 n=52 v=75
91770 On ch=5 n=52 v=0
92160 On ch=5 n=42 v=76
92250 On ch=5 n=42 v=0
92640 On ch=5 n=50 v=76
92730 On ch=5 n=50 v=0
93600 On ch=5 n=50 v=77
93690 On ch=5 n=50 v=0
94560 On ch=5 n=50 v=78
94650 On ch=5 n=50 v=0
95520 On ch=5 n=50 v=79
95610 On ch=5 n=50 v=0
96480 On ch=5 n=66 v=100
96600 On ch=5 n=65 v=100
96630 On ch=5 n=66 v=0
96720 On ch=5 n=66 v=100
96750 On ch=5 n=65 v=0
96810 On ch=5 n=66 v=0
97440 On ch=5 n=66 v=100
97560 On ch=5 n=65 v=100
97590 On ch=5 n=66 v=0
97680 On ch=5 n=66 v=100
97710 On ch=5 n=65 v=0
97770 On ch=5 n=66 v=0
98400 On ch=5 n=65 v=100
98520 On ch=5 n=64 v=100
98550 On ch=5 n=65 v=0
98640 On ch=5 n=65 v=100
98670 On ch=5 n=64 v=0
98880 On ch=5 n=65 v=0
99360 On ch=5 n=64 v=100
99480 On ch=5 n=63 v=100
99510 On ch=5 n=64 v=0
99600 On ch=5 n=64 v=100
99630 On ch=5 n=63 v=0
99840 On ch=5 n=64 v=0
100320 On ch=5 n=62 v=100
100440 On ch=5 n=61 v=100
100470 On ch=5 n=62 v=0
100560 On ch=5 n=62 v=100
100590 On ch=5 n=61 v=0
100800 On ch=5 n=62 v=0
101280 On ch=5 n=66 v=100
101400 On ch=5 n=65 v=100
101430 On ch=5 n=66 v=0
101520 On ch=5 n=66 v=100
101550 On ch=5 n=65 v=0
101760 On ch=5 n=66 v=0
102240 On ch=5 n=69 v=100
102360 On ch=5 n=68 v=100
102390 On ch=5 n=69 v=0
102480 On ch=5 n=69 v=100
102510 On ch=5 n=68 v=0
102720 On ch=5 n=69 v=0
103200 On ch=5 n=69 v=100
103320 On ch=5 n=68 v=100
103350 On ch=5 n=69 v=0
103440 On ch=5 n=69 v=100
103470 On ch=5 n=68 v=0
103680 On ch=5 n=69 v=0
104160 On ch=5 n=66 v=100
104280 On ch=5 n=65 v=100
104310 On ch=5 n=66 v=0
104400 On ch=5 n=66 v=100
104430 On ch=5 n=65 v=0
104640 On ch=5 n=66 v=0
105120 On ch=5 n=66 v=100
105240 On ch=5 n=65 v=100
105270 On ch=5 n=66 v=0
105360 On ch=5 n=66 v=100
105390 On ch=5 n=65 v=0
105600 On ch=5 n=66 v=0
106080 On ch=5 n=65 v=100
106200 On ch=5 n=64 v=100
106230 On ch=5 n=65 v=0
106320 On ch=5 n=65 v=100
106350 On ch=5 n=64 v=0
106560 On ch=5 n=65 v=0
107040 On ch=5 n=64 v=100
107160 On ch=5 n=63 v=100
107190 On ch=5 n=64 v=0
107280 On ch=5 n=64 v=100
107310 On ch=5 n=63 v=0
107520 On ch=5 n=64 v=0
108000 On ch=5 n=62 v=100
108120 On ch=5 n=61 v=100
108150 On ch=5 n=62 v=0
108240 On ch=5 n=62 v=100
108270 On ch=5 n=61 v=0
108480 On ch=5 n=62 v=0
108960 On ch=5 n=66 v=100
109080 On ch=5 n=65 v=100
109110 On ch=5 n=66 v=0
109200 On ch=5 n=66 v=100
109230 On ch=5 n=65 v=0
109440 On ch=5 n=66 v=0
109920 On ch=5 n=69 v=100
110040 On ch=5 n=68 v=100
110070 On ch=5 n=69 v=0
110160 On ch=5 n=69 v=100
110190 On ch=5 n=68 v=0
110400 On ch=5 n=69 v=0
110880 On ch=5 n=69 v=100
111000 On ch=5 n=68 v=100
111030 On ch=5 n=69 v=0
111120 On ch=5 n=69 v=100
111150 On ch=5 n=68 v=0
111360 On ch=5 n=69 v=0
111840 On ch=5 n=70 v=100
111960 On ch=5 n=66 v=100
111990 On ch=5 n=70 v=0
112080 On ch=5 n=70 v=100
112110 On ch=5 n=66 v=0
112320 On ch=5 n=70 v=0
112800 On ch=5 n=70 v=100
112920 On ch=5 n=66 v=100
112950 On ch=5 n=70 v=0
113040 On ch=5 n=70 v=100
113070 On ch=5 n=66 v=0
113280 On ch=5 n=70 v=0
113760 On ch=5 n=70 v=100
113880 On ch=5 n=66 v=100
113910 On ch=5 n=70 v=0
114000 On ch=5 n=70 v=100
114030 On ch=5 n=66 v=0
114240 On ch=5 n=70 v=0
114720 On ch=5 n=70 v=100
114840 On ch=5 n=66 v=100
114870 On ch=5 n=70 v=0
114960 On ch=5 n=70 v=100
114990 On ch=5 n=66 v=0
115200 On ch=5 n=70 v=0
115680 On ch=5 n=70 v=100
115800 On ch=5 n=66 v=100
115830 On ch=5 n=70 v=0
115920 On ch=5 n=70 v=100
115950 On ch=5 n=66 v=0
116160 On ch=5 n=70 v=0
116640 On ch=5 n=70 v=100
116760 On ch=5 n=66 v=100
116790 On ch=5 n=70 v=0
116880 On ch=5 n=70 v=100
116910 On ch=5 n=66 v=0
117120 On ch=5 n=70 v=0
117600 On ch=5 n=70 v=100
117720 On ch=5 n=66 v=100
117750 On ch=5 n=70 v=0
117840 On ch=5 n=70 v=100
117870 On ch=5 n=66 v=0
118080 On ch=5 n=70 v=0
118560 On ch=5 n=70 v=100
118680 On ch=5 n=66 v=100
118710 On ch=5 n=70 v=0
118800 On ch=5 n=70 v=100
118830 On ch=5 n=66 v=0
119040 On ch=5 n=70 v=0
119520 On ch=5 n=70 v=100
119640 On ch=5 n=66 v=100
119670 On ch=5 n=70 v=0
119760 On ch=5 n=70 v=100
119790 On ch=5 n=66 v=0
120000 On ch=5 n=70 v=0
120480 On ch=5 n=70 v=100
120600 On ch=5 n=66 v=100
120630 On ch=5 n=70 v=0
120720 On ch=5 n=70 v=100
120750 On ch=5 n=66 v=0
120960 On ch=5 n=70 v=0
121440 On ch=5 n=70 v=100
121560 On ch=5 n=66 v=100
121590 On ch=5 n=70 v=0
121680 On ch=5 n=70 v=100
121710 On ch=5 n=66 v=0
121920 On ch=5 n=70 v=0
122400 On ch=5 n=70 v=100
122520 On ch=5 n=66 v=100
122550 On ch=5 n=70 v=0
122640 On ch=5 n=70 v=100
122670 On ch=5 n=66 v=0
122880 On ch=5 n=70 v=0
123360 On ch=5 n=70 v=100
123480 On ch=5 n=66 v=100
123510 On ch=5 n=70 v=0
123600 On ch=5 n=70 v=100
123630 On ch=5 n=66 v=0
123840 On ch=5 n=70 v=0
124320 On ch=5 n=70 v=100
124440 On ch=5 n=66 v=100
124470 On ch=5 n=70 v=0
124560 On ch=5 n=70 v=100
124590 On ch=5 n=66 v=0
124800 On ch=5 n=70 v=0
125280 On ch=5 n=70 v=100
125400 On ch=5 n=66 v=100
125430 On ch=5 n=70 v=0
125520 On ch=5 n=70 v=100
125550 On ch=5 n=66 v=0
125760 On ch=5 n=70 v=0
126240 On ch=5 n=70 v=100
126360 On ch=5 n=66 v=100
126390 On ch=5 n=70 v=0
126480 On ch=5 n=70 v=100
126510 On ch=5 n=66 v=0
126720 On ch=5 n=70 v=0
127200 On ch=5 n=66 v=100
127320 On ch=5 n=65 v=100
127350 On ch=5 n=66 v=0
127440 On ch=5 n=66 v=100
127470 On ch=5 n=65 v=0
127680 On ch=5 n=66 v=0
128160 On ch=5 n=66 v=100
128280 On ch=5 n=65 v=100
128310 On ch=5 n=66 v=0
128400 On ch=5 n=66 v=100
128430 On ch=5 n=65 v=0
128640 On ch=5 n=66 v=0
129120 On ch=5 n=65 v=100
129240 On ch=5 n=64 v=100
129270 On ch=5 n=65 v=0
129360 On ch=5 n=65 v=100
129390 On ch=5 n=64 v=0
129600 On ch=5 n=65 v=0
130080 On ch=5 n=64 v=100
130200 On ch=5 n=63 v=100
130230 On ch=5 n=64 v=0
130320 On ch=5 n=64 v=100
130350 On ch=5 n=63 v=0
130560 On ch=5 n=64 v=0
131040 On ch=5 n=62 v=100
131160 On ch=5 n=61 v=100
131190 On ch=5 n=62 v=0
131280 On ch=5 n=62 v=100
131310 On ch=5 n=61 v=0
131520 On ch=5 n=62 v=0
132000 On ch=5 n=66 v=100
132120 On ch=5 n=65 v=100
132150 On ch=5 n=66 v=0
132240 On ch=5 n=66 v=100
132270 On ch=5 n=65 v=0
132480 On ch=5 n=66 v=0
132960 On ch=5 n=69 v=100
133080 On ch=5 n=68 v=100
133110 On ch=5 n=69 v=0
133200 On ch=5 n=69 v=100
133230 On ch=5 n=68 v=0
133440 On ch=5 n=69 v=0
133920 On ch=5 n=69 v=100
134040 On ch=5 n=68 v=100
134070 On ch=5 n=69 v=0
134160 On ch=5 n=69 v=100
134190 On ch=5 n=68 v=0
134400 On ch=5 n=69 v=0
134880 On ch=5 n=66 v=100
135000 On ch=5 n=65 v=100
135030 On ch=5 n=66 v=0
135120 On ch=5 n=66 v=100
135150 On ch=5 n=65 v=0
135360 On ch=5 n=66 v=0
135840 On ch=5 n=66 v=100
135960 On ch=5 n=65 v=100
135990 On ch=5 n=66 v=0
136080 On ch=5 n=66 v=100
136110 On ch=5 n=65 v=0
136320 On ch=5 n=66 v=0
136800 On ch=5 n=65 v=100
136920 On ch=5 n=64 v=100
136950 On ch=5 n=65 v=0
137040 On ch=5 n=65 v=100
137070 On ch=5 n=64 v=0
137280 On ch=5 n=65 v=0
137760 On ch=5 n=64 v=100
137880 On ch=5 n=63 v=100
137910 On ch=5 n=64 v=0
138000 On ch=5 n=64 v=100
138030 On ch=5 n=63 v=0
138240 On ch=5 n=64 v=0
138720 On ch=5 n=62 v=100
138840 On ch=5 n=61 v=100
138870 On ch=5 n=62 v=0
138960 On ch=5 n=62 v=100
138990 On ch=5 n=61 v=0
139200 On ch=5 n=62 v=0
139680 On ch=5 n=66 v=100
139800 On ch=5 n=65 v=100
139830 On ch=5 n=66 v=0
139920 On ch=5 n=66 v=100
139950 On ch=5 n=65 v=0
140160 On ch=5 n=66 v=0
140640 On ch=5 n=66 v=100
140760 On ch=5 n=65 v=100
140790 On ch=5 n=66 v=0
140880 On ch=5 n=66 v=100
140910 On ch=5 n=65 v=0
141120 On ch=5 n=66 v=0
141600 On ch=5 n=66 v=100
141720 On ch=5 n=65 v=100
141750 On ch=5 n=66 v=0
141840 On ch=5 n=66 v=100
141870 On ch=5 n=65 v=0
142080 On ch=5 n=66 v=0
142560 On ch=5 n=65 v=100
142680 On ch=5 n=64 v=100
142710 On ch=5 n=65 v=0
142800 On ch=5 n=65 v=100
142830 On ch=5 n=64 v=0
143040 On ch=5 n=65 v=0
144480 On ch=5 n=66 v=100
144600 On ch=5 n=65 v=100
144630 On ch=5 n=66 v=0
144720 On ch=5 n=66 v=100
144750 On ch=5 n=65 v=0
144960 On ch=5 n=66 v=0
145920 On ch=5 n=55 v=100
146640 On ch=5 n=55 v=0
146880 On ch=5 n=54 v=100
147600 On ch=5 n=54 v=0
147840 On ch=5 n=42 v=100
148560 On ch=5 n=42 v=0
148800 On ch=5 n=47 v=100
149520 On ch=5 n=47 v=0
150240 On ch=5 n=65 v=100
150360 On ch=5 n=64 v=100
150390 On ch=5 n=65 v=0
150480 On ch=5 n=65 v=100
150510 On ch=5 n=64 v=0
150720 On ch=5 n=65 v=0
152160 On ch=5 n=66 v=100
152280 On ch=5 n=65 v=100
152310 On ch=5 n=66 v=0
152400 On ch=5 n=66 v=100
152430 On ch=5 n=65 v=0
152640 On ch=5 n=66 v=0
153600 On ch=5 n=55 v=100
154320 On ch=5 n=55 v=0
154560 On ch=5 n=54 v=100
155280 On ch=5 n=54 v=0
155520 On ch=5 n=42 v=100
156240 On ch=5 n=42 v=0
156480 On ch=5 n=47 v=100
157200 On ch=5 n=47 v=0
157920 On ch=5 n=65 v=100
158040 On ch=5 n=64 v=100
158070 On ch=5 n=65 v=0
158160 On ch=5 n=65 v=100
158190 On ch=5 n=64 v=0
158400 On ch=5 n=65 v=0
159840 On ch=5 n=65 v=100
159960 On ch=5 n=64 v=100
159990 On ch=5 n=65 v=0
160080 On ch=5 n=65 v=100
160110 On ch=5 n=64 v=0
160320 On ch=5 n=65 v=0
161760 On ch=5 n=65 v=50
161880 On ch=5 n=64 v=52
161910 On ch=5 n=65 v=0
162000 On ch=5 n=65 v=54
162030 On ch=5 n=64 v=0
162210 On ch=5 n=65 v=0
162240 On ch=5 n=65 v=58
162360 On ch=5 n=64 v=60
162390 On ch=5 n=65 v=0
162480 On ch=5 n=65 v=62
162510 On ch=5 n=64 v=0
162690 On ch=5 n=65 v=0
162720 On ch=5 n=65 v=67
162840 On ch=5 n=64 v=69
162870 On ch=5 n=65 v=0
162960 On ch=5 n=65 v=71
162990 On ch=5 n=64 v=0
163170 On ch=5 n=65 v=0
163200 On ch=5 n=65 v=75
163320 On ch=5 n=64 v=77
163350 On ch=5 n=65 v=0
163440 On ch=5 n=65 v=80
163470 On ch=5 n=64 v=0
163650 On ch=5 n=65 v=0
163680 On ch=5 n=65 v=84
163800 On ch=5 n=64 v=86
163830 On ch=5 n=65 v=0
163920 On ch=5 n=65 v=88
163950 On ch=5 n=64 v=0
164130 On ch=5 n=65 v=0
164160 On ch=5 n=65 v=92
164280 On ch=5 n=64 v=95
164310 On ch=5 n=65 v=0
164400 On ch=5 n=65 v=97
164430 On ch=5 n=64 v=0
164610 On ch=5 n=65 v=0
164640 On ch=5 n=65 v=101
164760 On ch=5 n=64 v=103
164790 On ch=5 n=65 v=0
164880 On ch=5 n=65 v=105
164910 On ch=5 n=64 v=0
165090 On ch=5 n=65 v=0
168480 Par ch=5 c=11 v=100
169440 On ch=5 n=66 v=127
169560 On ch=5 n=65 v=127
169590 On ch=5 n=66 v=0
169680 On ch=5 n=66 v=127
169710 On ch=5 n=65 v=0
169890 On ch=5 n=66 v=0
169890 Meta TrkEnd
TrkEnd
MTrk
0 Meta 0x20 04
0 Meta TrkName "Bassoon II"
0 Meta InstrName "Fagotti "
3840 On ch=5 n=35 v=40
3920 On ch=5 n=35 v=0
4320 On ch=5 n=42 v=40
4400 On ch=5 n=42 v=0
4800 On ch=5 n=35 v=40
4880 On ch=5 n=35 v=0
5280 On ch=5 n=42 v=40
5360 On ch=5 n=42 v=0
5760 On ch=5 n=35 v=40
5840 On ch=5 n=35 v=0
6240 On ch=5 n=42 v=40
6320 On ch=5 n=42 v=0
6720 On ch=5 n=35 v=40
6800 On ch=5 n=35 v=0
7200 On ch=5 n=42 v=40
7280 On ch=5 n=42 v=0
7680 On ch=5 n=35 v=40
7760 On ch=5 n=35 v=0
8160 On ch=5 n=42 v=40
8240 On ch=5 n=42 v=0
8640 On ch=5 n=35 v=40
8720 On ch=5 n=35 v=0
9120 On ch=5 n=42 v=40
9200 On ch=5 n=42 v=0
9600 On ch=5 n=38 v=40
9680 On ch=5 n=38 v=0
10080 On ch=5 n=45 v=40
10160 On ch=5 n=45 v=0
10560 On ch=5 n=38 v=40
10640 On ch=5 n=38 v=0
11040 On ch=5 n=45 v=40
11120 On ch=5 n=45 v=0
11520 On ch=5 n=35 v=40
11600 On ch=5 n=35 v=0
11760 On ch=5 n=37 v=40
11840 On ch=5 n=37 v=0
12000 On ch=5 n=38 v=40
12080 On ch=5 n=38 v=0
12240 On ch=5 n=40 v=40
12320 On ch=5 n=40 v=0
12480 On ch=5 n=42 v=65
12560 On ch=5 n=42 v=0
12720 On ch=5 n=38 v=40
12800 On ch=5 n=38 v=0
12960 On ch=5 n=42 v=40
13040 On ch=5 n=42 v=0
13440 On ch=5 n=41 v=65
13520 On ch=5 n=41 v=0
13680 On ch=5 n=37 v=40
13760 On ch=5 n=37 v=0
13920 On ch=5 n=41 v=40
14000 On ch=5 n=41 v=0
14400 On ch=5 n=40 v=65
14480 On ch=5 n=40 v=0
14640 On ch=5 n=36 v=40
14720 On ch=5 n=36 v=0
14880 On ch=5 n=40 v=40
14960 On ch=5 n=40 v=0
15360 On ch=5 n=35 v=40
15440 On ch=5 n=35 v=0
15600 On ch=5 n=37 v=40
15680 On ch=5 n=37 v=0
15840 On ch=5 n=38 v=40
15920 On ch=5 n=38 v=0
16080 On ch=5 n=40 v=40
16160 On ch=5 n=40 v=0
16320 On ch=5 n=42 v=40
16400 On ch=5 n=42 v=0
16560 On ch=5 n=38 v=40
16640 On ch=5 n=38 v=0
16800 On ch=5 n=42 v=40
16880 On ch=5 n=42 v=0
17040 On ch=5 n=47 v=40
17120 On ch=5 n=47 v=0
17280 On ch=5 n=45 v=65
17360 On ch=5 n=45 v=0
17520 On ch=5 n=42 v=40
17600 On ch=5 n=42 v=0
17760 On ch=5 n=38 v=40
17840 On ch=5 n=38 v=0
18000 On ch=5 n=42 v=40
18080 On ch=5 n=42 v=0
18240 On ch=5 n=45 v=55
18690 On ch=5 n=45 v=0
19200 On ch=5 n=42 v=40
19280 On ch=5 n=42 v=0
19680 On ch=5 n=49 v=40
19760 On ch=5 n=49 v=0
20160 On ch=5 n=42 v=40
20240 On ch=5 n=42 v=0
20640 On ch=5 n=46 v=40
20720 On ch=5 n=46 v=0
21120 On ch=5 n=38 v=40
21200 On ch=5 n=38 v=0
21600 On ch=5 n=46 v=40
21680 On ch=5 n=46 v=0
22080 On ch=5 n=42 v=40
22160 On ch=5 n=42 v=0
22560 On ch=5 n=46 v=40
22640 On ch=5 n=46 v=0
23040 On ch=5 n=42 v=40
23120 On ch=5 n=42 v=0
23520 On ch=5 n=49 v=40
23600 On ch=5 n=49 v=0
24000 On ch=5 n=42 v=40
24080 On ch=5 n=42 v=0
24480 On ch=5 n=46 v=40
24560 On ch=5 n=46 v=0
24960 On ch=5 n=38 v=40
25040 On ch=5 n=38 v=0
25440 On ch=5 n=46 v=40
25520 On ch=5 n=46 v=0
25920 On ch=5 n=42 v=40
26000 On ch=5 n=42 v=0
26400 On ch=5 n=46 v=40
26480 On ch=5 n=46 v=0
26880 On ch=5 n=42 v=40
26960 On ch=5 n=42 v=0
27120 On ch=5 n=44 v=40
27200 On ch=5 n=44 v=0
27360 On ch=5 n=46 v=40
27440 On ch=5 n=46 v=0
27600 On ch=5 n=47 v=40
27680 On ch=5 n=47 v=0
27840 On ch=5 n=49 v=60
27920 On ch=5 n=49 v=0
28080 On ch=5 n=46 v=40
28160 On ch=5 n=46 v=0
28320 On ch=5 n=49 v=40
28400 On ch=5 n=49 v=0
28800 On ch=5 n=50 v=60
28880 On ch=5 n=50 v=0
29040 On ch=5 n=46 v=40
29120 On ch=5 n=46 v=0
29280 On ch=5 n=50 v=40
29360 On ch=5 n=50 v=0
29760 On ch=5 n=49 v=60
29840 On ch=5 n=49 v=0
30000 On ch=5 n=46 v=40
30080 On ch=5 n=46 v=0
30240 On ch=5 n=49 v=40
30320 On ch=5 n=49 v=0
30720 On ch=5 n=42 v=40
30800 On ch=5 n=42 v=0
30960 On ch=5 n=44 v=40
31040 On ch=5 n=44 v=0
31200 On ch=5 n=46 v=40
31280 On ch=5 n=46 v=0
31440 On ch=5 n=47 v=40
31520 On ch=5 n=47 v=0
31680 On ch=5 n=49 v=60
31760 On ch=5 n=49 v=0
31920 On ch=5 n=46 v=40
32000 On ch=5 n=46 v=0
32160 On ch=5 n=49 v=40
32240 On ch=5 n=49 v=0
32640 On ch=5 n=50 v=60
32720 On ch=5 n=50 v=0
32880 On ch=5 n=46 v=40
32960 On ch=5 n=46 v=0
33120 On ch=5 n=50 v=40
33200 On ch=5 n=50 v=0
33600 On ch=5 n=49 v=60
33680 On ch=5 n=49 v=0
34560 On ch=5 n=35 v=40
34640 On ch=5 n=35 v=0
35040 On ch=5 n=42 v=40
35120 On ch=5 n=42 v=0
35520 On ch=5 n=35 v=40
35600 On ch=5 n=35 v=0
36000 On ch=5 n=42 v=40
36080 On ch=5 n=42 v=0
36480 On ch=5 n=35 v=40
36560 On ch=5 n=35 v=0
36960 On ch=5 n=42 v=40
37040 On ch=5 n=42 v=0
37440 On ch=5 n=35 v=40
37520 On ch=5 n=35 v=0
37920 On ch=5 n=42 v=40
38000 On ch=5 n=42 v=0
38400 On ch=5 n=35 v=40
38480 On ch=5 n=35 v=0
38880 On ch=5 n=42 v=40
38960 On ch=5 n=42 v=0
39360 On ch=5 n=35 v=40
39440 On ch=5 n=35 v=0
39840 On ch=5 n=42 v=40
39920 On ch=5 n=42 v=0
40320 On ch=5 n=38 v=40
40400 On ch=5 n=38 v=0
40800 On ch=5 n=45 v=40
40880 On ch=5 n=45 v=0
41280 On ch=5 n=38 v=40
41360 On ch=5 n=38 v=0
41760 On ch=5 n=45 v=40
41840 On ch=5 n=45 v=0
42240 On ch=5 n=35 v=40
42320 On ch=5 n=35 v=0
42480 On ch=5 n=37 v=40
42560 On ch=5 n=37 v=0
42720 On ch=5 n=38 v=40
42800 On ch=5 n=38 v=0
42960 On ch=5 n=40 v=40
43040 On ch=5 n=40 v=0
43200 On ch=5 n=42 v=65
43280 On ch=5 n=42 v=0
43440 On ch=5 n=38 v=40
43520 On ch=5 n=38 v=0
43680 On ch=5 n=42 v=40
43760 On ch=5 n=42 v=0
44160 On ch=5 n=41 v=65
44240 On ch=5 n=41 v=0
44400 On ch=5 n=37 v=40
44480 On ch=5 n=37 v=0
44640 On ch=5 n=41 v=40
44720 On ch=5 n=41 v=0
45120 On ch=5 n=40 v=65
45200 On ch=5 n=40 v=0
45360 On ch=5 n=36 v=40
45440 On ch=5 n=36 v=0
45600 On ch=5 n=40 v=40
45680 On ch=5 n=40 v=0
46080 On ch=5 n=35 v=40
46160 On ch=5 n=35 v=0
46320 On ch=5 n=37 v=40
46400 On ch=5 n=37 v=0
46560 On ch=5 n=38 v=40
46640 On ch=5 n=38 v=0
46800 On ch=5 n=40 v=40
46880 On ch=5 n=40 v=0
47040 On ch=5 n=42 v=40
47120 On ch=5 n=42 v=0
47280 On ch=5 n=38 v=40
47360 On ch=5 n=38 v=0
47520 On ch=5 n=42 v=40
47600 On ch=5 n=42 v=0
47760 On ch=5 n=47 v=40
47840 On ch=5 n=47 v=0
48000 On ch=5 n=42 v=40
48080 On ch=5 n=42 v=0
48240 On ch=5 n=38 v=40
48320 On ch=5 n=38 v=0
48480 On ch=5 n=42 v=40
48560 On ch=5 n=42 v=0
48720 On ch=5 n=47 v=40
48800 On ch=5 n=47 v=0
48960 On ch=5 n=35 v=40
49890 On ch=5 n=35 v=0
57600 On ch=5 n=35 v=50
57690 On ch=5 n=35 v=0
58080 On ch=5 n=50 v=50
58170 On ch=5 n=50 v=0
58560 On ch=5 n=35 v=50
58650 On ch=5 n=35 v=0
59040 On ch=5 n=50 v=50
59130 On ch=5 n=50 v=0
59520 On ch=5 n=35 v=50
59610 On ch=5 n=35 v=0
60000 On ch=5 n=49 v=50
60090 On ch=5 n=49 v=0
60480 On ch=5 n=35 v=50
60570 On ch=5 n=35 v=0
60960 On ch=5 n=48 v=50
61050 On ch=5 n=48 v=0
61440 On ch=5 n=35 v=50
61530 On ch=5 n=35 v=0
61920 On ch=5 n=47 v=50
62010 On ch=5 n=47 v=0
62400 On ch=5 n=35 v=50
62490 On ch=5 n=35 v=0
62880 On ch=5 n=47 v=50
62970 On ch=5 n=47 v=0
63360 On ch=5 n=38 v=50
63450 On ch=5 n=38 v=0
63840 On ch=5 n=45 v=50
63930 On ch=5 n=45 v=0
64320 On ch=5 n=38 v=50
64410 On ch=5 n=38 v=0
64800 On ch=5 n=45 v=50
64890 On ch=5 n=45 v=0
72960 On ch=5 n=42 v=57
73050 On ch=5 n=42 v=0
73440 On ch=5 n=49 v=57
73530 On ch=5 n=49 v=0
73920 On ch=5 n=42 v=58
74010 On ch=5 n=42 v=0
74400 On ch=5 n=49 v=58
74490 On ch=5 n=49 v=0
74880 On ch=5 n=38 v=59
74970 On ch=5 n=38 v=0
75360 On ch=5 n=50 v=59
75450 On ch=5 n=50 v=0
75840 On ch=5 n=42 v=60
75930 On ch=5 n=42 v=0
76320 On ch=5 n=49 v=60
76410 On ch=5 n=49 v=0
76800 On ch=5 n=42 v=61
76890 On ch=5 n=42 v=0
77280 On ch=5 n=49 v=61
77370 On ch=5 n=49 v=0
77760 On ch=5 n=42 v=62
77850 On ch=5 n=42 v=0
78240 On ch=5 n=49 v=62
78330 On ch=5 n=49 v=0
78720 On ch=5 n=38 v=63
78810 On ch=5 n=38 v=0
79200 On ch=5 n=50 v=63
79290 On ch=5 n=50 v=0
79680 On ch=5 n=42 v=64
79770 On ch=5 n=42 v=0
80160 On ch=5 n=49 v=64
80250 On ch=5 n=49 v=0
80640 On ch=5 n=35 v=65
80730 On ch=5 n=35 v=0
81120 On ch=5 n=50 v=65
81210 On ch=5 n=50 v=0
81600 On ch=5 n=35 v=65
81690 On ch=5 n=35 v=0
82080 On ch=5 n=50 v=66
82170 On ch=5 n=50 v=0
82560 On ch=5 n=35 v=66
82650 On ch=5 n=35 v=0
83040 On ch=5 n=49 v=67
83130 On ch=5 n=49 v=0
83520 On ch=5 n=35 v=67
83610 On ch=5 n=35 v=0
84000 On ch=5 n=48 v=68
84090 On ch=5 n=48 v=0
84480 On ch=5 n=35 v=68
84570 On ch=5 n=35 v=0
84960 On ch=5 n=47 v=69
85050 On ch=5 n=47 v=0
85440 On ch=5 n=35 v=69
85530 On ch=5 n=35 v=0
85920 On ch=5 n=47 v=70
86010 On ch=5 n=47 v=0
86400 On ch=5 n=38 v=70
86490 On ch=5 n=38 v=0
86880 On ch=5 n=45 v=71
86970 On ch=5 n=45 v=0
87360 On ch=5 n=38 v=71
87450 On ch=5 n=38 v=0
87840 On ch=5 n=45 v=72
87930 On ch=5 n=45 v=0
88320 On ch=5 n=35 v=72
88410 On ch=5 n=35 v=0
88800 On ch=5 n=50 v=72
88890 On ch=5 n=50 v=0
89280 On ch=5 n=35 v=73
89370 On ch=5 n=35 v=0
89760 On ch=5 n=50 v=73
89850 On ch=5 n=50 v=0
90240 On ch=5 n=35 v=74
90330 On ch=5 n=35 v=0
90720 On ch=5 n=49 v=74
90810 On ch=5 n=49 v=0
91200 On ch=5 n=35 v=75
91290 On ch=5 n=35 v=0
91680 On ch=5 n=48 v=75
91770 On ch=5 n=48 v=0
92160 On ch=5 n=35 v=76
92250 On ch=5 n=35 v=0
92640 On ch=5 n=47 v=76
92730 On ch=5 n=47 v=0
93600 On ch=5 n=47 v=77
93690 On ch=5 n=47 v=0
94560 On ch=5 n=47 v=78
94650 On ch=5 n=47 v=0
95520 On ch=5 n=47 v=79
95610 On ch=5 n=47 v=0
96480 On ch=5 n=62 v=100
96600 On ch=5 n=61 v=100
96630 On ch=5 n=62 v=0
96720 On ch=5 n=62 v=100
96750 On ch=5 n=61 v=0
96810 On ch=5 n=62 v=0
97440 On ch=5 n=62 v=100
97560 On ch=5 n=61 v=100
97590 On ch=5 n=62 v=0
97680 On ch=5 n=62 v=100
97710 On ch=5 n=61 v=0
97770 On ch=5 n=62 v=0
98400 On ch=5 n=61 v=100
98520 On ch=5 n=60 v=100
98550 On ch=5 n=61 v=0
98640 On ch=5 n=61 v=100
98670 On ch=5 n=60 v=0
98880 On ch=5 n=61 v=0
99360 On ch=5 n=60 v=100
99480 On ch=5 n=59 v=100
99510 On ch=5 n=60 v=0
99600 On ch=5 n=60 v=100
99630 On ch=5 n=59 v=0
99840 On ch=5 n=60 v=0
100320 On ch=5 n=59 v=100
100440 On ch=5 n=58 v=100
100470 On ch=5 n=59 v=0
100560 On ch=5 n=59 v=100
100590 On ch=5 n=58 v=0
100800 On ch=5 n=59 v=0
101280 On ch=5 n=62 v=100
101400 On ch=5 n=61 v=100
101430 On ch=5 n=62 v=0
101520 On ch=5 n=62 v=100
101550 On ch=5 n=61 v=0
101760 On ch=5 n=62 v=0
102240 On ch=5 n=66 v=100
102360 On ch=5 n=65 v=100
102390 On ch=5 n=66 v=0
102480 On ch=5 n=66 v=100
102510 On ch=5 n=65 v=0
102720 On ch=5 n=66 v=0
103200 On ch=5 n=66 v=100
103320 On ch=5 n=65 v=100
103350 On ch=5 n=66 v=0
103440 On ch=5 n=66 v=100
103470 On ch=5 n=65 v=0
103680 On ch=5 n=66 v=0
104160 On ch=5 n=62 v=100
104280 On ch=5 n=61 v=100
104310 On ch=5 n=62 v=0
104400 On ch=5 n=62 v=100
104430 On ch=5 n=61 v=0
104640 On ch=5 n=62 v=0
105120 On ch=5 n=62 v=100
105240 On ch=5 n=61 v=100
105270 On ch=5 n=62 v=0
105360 On ch=5 n=62 v=100
105390 On ch=5 n=61 v=0
105600 On ch=5 n=62 v=0
106080 On ch=5 n=61 v=100
106200 On ch=5 n=60 v=100
106230 On ch=5 n=61 v=0
106320 On ch=5 n=61 v=100
106350 On ch=5 n=60 v=0
106560 On ch=5 n=61 v=0
107040 On ch=5 n=60 v=100
107160 On ch=5 n=59 v=100
107190 On ch=5 n=60 v=0
107280 On ch=5 n=60 v=100
107310 On ch=5 n=59 v=0
107520 On ch=5 n=60 v=0
108000 On ch=5 n=59 v=100
108120 On ch=5 n=58 v=100
108150 On ch=5 n=59 v=0
108240 On ch=5 n=59 v=100
108270 On ch=5 n=58 v=0
108480 On ch=5 n=59 v=0
108960 On ch=5 n=62 v=100
109080 On ch=5 n=61 v=100
109110 On ch=5 n=62 v=0
109200 On ch=5 n=62 v=100
109230 On ch=5 n=61 v=0
109440 On ch=5 n=62 v=0
109920 On ch=5 n=66 v=100
110040 On ch=5 n=65 v=100
110070 On ch=5 n=66 v=0
110160 On ch=5 n=66 v=100
110190 On ch=5 n=65 v=0
110400 On ch=5 n=66 v=0
110880 On ch=5 n=66 v=100
111000 On ch=5 n=65 v=100
111030 On ch=5 n=66 v=0
111120 On ch=5 n=66 v=100
111150 On ch=5 n=65 v=0
111360 On ch=5 n=66 v=0
111840 On ch=5 n=66 v=100
111960 On ch=5 n=61 v=100
111990 On ch=5 n=66 v=0
112080 On ch=5 n=66 v=100
112110 On ch=5 n=61 v=0
112320 On ch=5 n=66 v=0
112800 On ch=5 n=66 v=100
112920 On ch=5 n=61 v=100
112950 On ch=5 n=66 v=0
113040 On ch=5 n=66 v=100
113070 On ch=5 n=61 v=0
113280 On ch=5 n=66 v=0
113760 On ch=5 n=66 v=100
113880 On ch=5 n=62 v=100
113910 On ch=5 n=66 v=0
114000 On ch=5 n=66 v=100
114030 On ch=5 n=62 v=0
114240 On ch=5 n=66 v=0
114720 On ch=5 n=66 v=100
114840 On ch=5 n=61 v=100
114870 On ch=5 n=66 v=0
114960 On ch=5 n=66 v=100
114990 On ch=5 n=61 v=0
115200 On ch=5 n=66 v=0
115680 On ch=5 n=66 v=100
115800 On ch=5 n=61 v=100
115830 On ch=5 n=66 v=0
115920 On ch=5 n=66 v=100
115950 On ch=5 n=61 v=0
116160 On ch=5 n=66 v=0
116640 On ch=5 n=66 v=100
116760 On ch=5 n=61 v=100
116790 On ch=5 n=66 v=0
116880 On ch=5 n=66 v=100
116910 On ch=5 n=61 v=0
117120 On ch=5 n=66 v=0
117600 On ch=5 n=66 v=100
117720 On ch=5 n=62 v=100
117750 On ch=5 n=66 v=0
117840 On ch=5 n=66 v=100
117870 On ch=5 n=62 v=0
118080 On ch=5 n=66 v=0
118560 On ch=5 n=66 v=100
118680 On ch=5 n=61 v=100
118710 On ch=5 n=66 v=0
118800 On ch=5 n=66 v=100
118830 On ch=5 n=61 v=0
119040 On ch=5 n=66 v=0
119520 On ch=5 n=66 v=100
119640 On ch=5 n=61 v=100
119670 On ch=5 n=66 v=0
119760 On ch=5 n=66 v=100
119790 On ch=5 n=61 v=0
120000 On ch=5 n=66 v=0
120480 On ch=5 n=66 v=100
120600 On ch=5 n=61 v=100
120630 On ch=5 n=66 v=0
120720 On ch=5 n=66 v=100
120750 On ch=5 n=61 v=0
120960 On ch=5 n=66 v=0
121440 On ch=5 n=66 v=100
121560 On ch=5 n=63 v=100
121590 On ch=5 n=66 v=0
121680 On ch=5 n=66 v=100
121710 On ch=5 n=63 v=0
121920 On ch=5 n=66 v=0
122400 On ch=5 n=66 v=100
122520 On ch=5 n=61 v=100
122550 On ch=5 n=66 v=0
122640 On ch=5 n=66 v=100
122670 On ch=5 n=61 v=0
122880 On ch=5 n=66 v=0
123360 On ch=5 n=66 v=100
123480 On ch=5 n=61 v=100
123510 On ch=5 n=66 v=0
123600 On ch=5 n=66 v=100
123630 On ch=5 n=61 v=0
123840 On ch=5 n=66 v=0
124320 On ch=5 n=66 v=100
124440 On ch=5 n=61 v=100
124470 On ch=5 n=66 v=0
124560 On ch=5 n=66 v=100
124590 On ch=5 n=61 v=0
124800 On ch=5 n=66 v=0
125280 On ch=5 n=66 v=100
125400 On ch=5 n=63 v=100
125430 On ch=5 n=66 v=0
125520 On ch=5 n=66 v=100
125550 On ch=5 n=63 v=0
125760 On ch=5 n=66 v=0
126240 On ch=5 n=66 v=100
126360 On ch=5 n=61 v=100
126390 On ch=5 n=66 v=0
126480 On ch=5 n=66 v=100
126510 On ch=5 n=61 v=0
126720 On ch=5 n=66 v=0
127200 On ch=5 n=62 v=100
127320 On ch=5 n=61 v=100
127350 On ch=5 n=62 v=0
127440 On ch=5 n=62 v=100
127470 On ch=5 n=61 v=0
127680 On ch=5 n=62 v=0
128160 On ch=5 n=62 v=100
128280 On ch=5 n=61 v=100
128310 On ch=5 n=62 v=0
128400 On ch=5 n=62 v=100
128430 On ch=5 n=61 v=0
128640 On ch=5 n=62 v=0
129120 On ch=5 n=61 v=100
129240 On ch=5 n=60 v=100
129270 On ch=5 n=61 v=0
129360 On ch=5 n=61 v=100
129390 On ch=5 n=60 v=0
129600 On ch=5 n=61 v=0
130080 On ch=5 n=60 v=100
130200 On ch=5 n=59 v=100
130230 On ch=5 n=60 v=0
130320 On ch=5 n=60 v=100
130350 On ch=5 n=59 v=0
130560 On ch=5 n=60 v=0
131040 On ch=5 n=59 v=100
131160 On ch=5 n=58 v=100
131190 On ch=5 n=59 v=0
131280 On ch=5 n=59 v=100
131310 On ch=5 n=58 v=0
131520 On ch=5 n=59 v=0
132000 On ch=5 n=62 v=100
132120 On ch=5 n=61 v=100
132150 On ch=5 n=62 v=0
132240 On ch=5 n=62 v=100
132270 On ch=5 n=61 v=0
132480 On ch=5 n=62 v=0
132960 On ch=5 n=66 v=100
133080 On ch=5 n=65 v=100
133110 On ch=5 n=66 v=0
133200 On ch=5 n=66 v=100
133230 On ch=5 n=65 v=0
133440 On ch=5 n=66 v=0
133920 On ch=5 n=66 v=100
134040 On ch=5 n=65 v=100
134070 On ch=5 n=66 v=0
134160 On ch=5 n=66 v=100
134190 On ch=5 n=65 v=0
134400 On ch=5 n=66 v=0
134880 On ch=5 n=62 v=100
135000 On ch=5 n=61 v=100
135030 On ch=5 n=62 v=0
135120 On ch=5 n=62 v=100
135150 On ch=5 n=61 v=0
135360 On ch=5 n=62 v=0
135840 On ch=5 n=62 v=100
135960 On ch=5 n=61 v=100
135990 On ch=5 n=62 v=0
136080 On ch=5 n=62 v=100
136110 On ch=5 n=61 v=0
136320 On ch=5 n=62 v=0
136800 On ch=5 n=61 v=100
136920 On ch=5 n=60 v=100
136950 On ch=5 n=61 v=0
137040 On ch=5 n=61 v=100
137070 On ch=5 n=60 v=0
137280 On ch=5 n=61 v=0
137760 On ch=5 n=60 v=100
137880 On ch=5 n=59 v=100
137910 On ch=5 n=60 v=0
138000 On ch=5 n=60 v=100
138030 On ch=5 n=59 v=0
138240 On ch=5 n=60 v=0
138720 On ch=5 n=59 v=100
138840 On ch=5 n=58 v=100
138870 On ch=5 n=59 v=0
138960 On ch=5 n=59 v=100
138990 On ch=5 n=58 v=0
139200 On ch=5 n=59 v=0
139680 On ch=5 n=62 v=100
139800 On ch=5 n=61 v=100
139830 On ch=5 n=62 v=0
139920 On ch=5 n=62 v=100
139950 On ch=5 n=61 v=0
140160 On ch=5 n=62 v=0
140640 On ch=5 n=62 v=100
140760 On ch=5 n=61 v=100
140790 On ch=5 n=62 v=0
140880 On ch=5 n=62 v=100
140910 On ch=5 n=61 v=0
141120 On ch=5 n=62 v=0
141600 On ch=5 n=62 v=100
141720 On ch=5 n=61 v=100
141750 On ch=5 n=62 v=0
141840 On ch=5 n=62 v=100
141870 On ch=5 n=61 v=0
142080 On ch=5 n=62 v=0
142560 On ch=5 n=62 v=100
142680 On ch=5 n=61 v=100
142710 On ch=5 n=62 v=0
142800 On ch=5 n=62 v=100
142830 On ch=5 n=61 v=0
143040 On ch=5 n=62 v=0
144480 On ch=5 n=62 v=100
144600 On ch=5 n=61 v=100
144630 On ch=5 n=62 v=0
144720 On ch=5 n=62 v=100
144750 On ch=5 n=61 v=0
144960 On ch=5 n=62 v=0
150240 On ch=5 n=62 v=100
150360 On ch=5 n=61 v=100
150390 On ch=5 n=62 v=0
150480 On ch=5 n=62 v=100
150510 On ch=5 n=61 v=0
150720 On ch=5 n=62 v=0
152160 On ch=5 n=62 v=100
152280 On ch=5 n=61 v=100
152310 On ch=5 n=62 v=0
152400 On ch=5 n=62 v=100
152430 On ch=5 n=61 v=0
152640 On ch=5 n=62 v=0
157920 On ch=5 n=62 v=100
158040 On ch=5 n=61 v=100
158070 On ch=5 n=62 v=0
158160 On ch=5 n=62 v=100
158190 On ch=5 n=61 v=0
158400 On ch=5 n=62 v=0
159840 On ch=5 n=62 v=100
159960 On ch=5 n=61 v=100
159990 On ch=5 n=62 v=0
160080 On ch=5 n=62 v=100
160110 On ch=5 n=61 v=0
160320 On ch=5 n=62 v=0
161760 On ch=5 n=62 v=50
161880 On ch=5 n=61 v=52
161910 On ch=5 n=62 v=0
162000 On ch=5 n=62 v=54
162030 On ch=5 n=61 v=0
162210 On ch=5 n=62 v=0
162240 On ch=5 n=62 v=58
162360 On ch=5 n=61 v=60
162390 On ch=5 n=62 v=0
162480 On ch=5 n=62 v=62
162510 On ch=5 n=61 v=0
162690 On ch=5 n=62 v=0
162720 On ch=5 n=62 v=67
162840 On ch=5 n=61 v=69
162870 On ch=5 n=62 v=0
162960 On ch=5 n=62 v=71
162990 On ch=5 n=61 v=0
163170 On ch=5 n=62 v=0
163200 On ch=5 n=62 v=75
163320 On ch=5 n=61 v=77
163350 On ch=5 n=62 v=0
163440 On ch=5 n=62 v=80
163470 On ch=5 n=61 v=0
163650 On ch=5 n=62 v=0
163680 On ch=5 n=62 v=84
163800 On ch=5 n=61 v=86
163830 On ch=5 n=62 v=0
163920 On ch=5 n=62 v=88
163950 On ch=5 n=61 v=0
164130 On ch=5 n=62 v=0
164160 On ch=5 n=62 v=92
164280 On ch=5 n=61 v=95
164310 On ch=5 n=62 v=0
164400 On ch=5 n=62 v=97
164430 On ch=5 n=61 v=0
164610 On ch=5 n=62 v=0
164640 On ch=5 n=62 v=101
164760 On ch=5 n=61 v=103
164790 On ch=5 n=62 v=0
164880 On ch=5 n=62 v=105
164910 On ch=5 n=61 v=0
165090 On ch=5 n=62 v=0
168480 Par ch=5 c=11 v=100
169440 On ch=5 n=62 v=127
169560 On ch=5 n=61 v=127
169590 On ch=5 n=62 v=0
169680 On ch=5 n=62 v=127
169710 On ch=5 n=61 v=0
169890 On ch=5 n=62 v=0
169890 Meta TrkEnd
TrkEnd
MTrk
0 Meta 0x20 05
0 Meta TrkName "Horn in E I"
0 Meta InstrName "Corni in E"
1920 On ch=6 n=54 v=80
1920 On ch=6 n=66 v=115
2160 Par ch=6 c=11 v=100
2180 Par ch=6 c=11 v=99
2190 Par ch=6 c=11 v=98
2200 Par ch=6 c=11 v=97
2210 Par ch=6 c=11 v=97
2220 Par ch=6 c=11 v=96
2240 Par ch=6 c=11 v=94
2250 Par ch=6 c=11 v=94
2260 Par ch=6 c=11 v=93
2270 Par ch=6 c=11 v=92
2280 Par ch=6 c=11 v=91
2290 Par ch=6 c=11 v=91
2310 Par ch=6 c=11 v=89
2320 Par ch=6 c=11 v=88
2330 Par ch=6 c=11 v=88
2340 Par ch=6 c=11 v=87
2350 Par ch=6 c=11 v=86
2360 Par ch=6 c=11 v=85
2380 Par ch=6 c=11 v=84
2390 Par ch=6 c=11 v=83
2400 Par ch=6 c=11 v=82
2410 Par ch=6 c=11 v=82
2420 Par ch=6 c=11 v=81
2430 Par ch=6 c=11 v=80
2450 Par ch=6 c=11 v=79
2460 Par ch=6 c=11 v=78
2470 Par ch=6 c=11 v=77
2480 Par ch=6 c=11 v=76
2490 Par ch=6 c=11 v=76
2500 Par ch=6 c=11 v=75
2520 Par ch=6 c=11 v=73
2530 Par ch=6 c=11 v=73
2540 Par ch=6 c=11 v=72
2550 Par ch=6 c=11 v=71
2560 Par ch=6 c=11 v=70
2570 Par ch=6 c=11 v=70
2590 Par ch=6 c=11 v=68
2600 Par ch=6 c=11 v=67
2610 Par ch=6 c=11 v=67
2620 Par ch=6 c=11 v=66
2630 Par ch=6 c=11 v=65
3930 On ch=6 n=54 v=0
3930 On ch=6 n=66 v=0
4290 Par ch=6 c=11 v=80
10560 On ch=6 n=45 v=60
10560 On ch=6 n=57 v=102
11520 On ch=6 n=45 v=0
11520 On ch=6 n=57 v=0
18240 On ch=6 n=45 v=60
18240 On ch=6 n=57 v=102
19200 On ch=6 n=45 v=0
19200 On ch=6 n=57 v=0
25920 On ch=6 n=49 v=60
25920 On ch=6 n=61 v=102
26880 On ch=6 n=49 v=0
26880 On ch=6 n=61 v=0
33600 On ch=6 n=49 v=60
33600 On ch=6 n=61 v=102
34560 On ch=6 n=49 v=0
34560 On ch=6 n=61 v=0
41280 On ch=6 n=45 v=60
41280 On ch=6 n=57 v=102
42240 On ch=6 n=45 v=0
42240 On ch=6 n=57 v=0
50400 On ch=6 n=54 v=40
50400 On ch=6 n=66 v=40
50520 On ch=6 n=54 v=0
50520 On ch=6 n=66 v=0
51360 On ch=6 n=54 v=40
51360 On ch=6 n=66 v=40
51480 On ch=6 n=54 v=0
51480 On ch=6 n=66 v=0
52320 On ch=6 n=54 v=40
52320 On ch=6 n=66 v=40
52440 On ch=6 n=54 v=0
52440 On ch=6 n=66 v=0
53280 On ch=6 n=54 v=40
53280 On ch=6 n=66 v=40
53400 On ch=6 n=54 v=0
53400 On ch=6 n=66 v=0
54240 On ch=6 n=54 v=40
54240 On ch=6 n=66 v=40
54360 On ch=6 n=54 v=0
54360 On ch=6 n=66 v=0
55200 On ch=6 n=54 v=40
55200 On ch=6 n=66 v=40
55320 On ch=6 n=54 v=0
55320 On ch=6 n=66 v=0
56160 On ch=6 n=54 v=40
56160 On ch=6 n=66 v=40
56280 On ch=6 n=54 v=0
56280 On ch=6 n=66 v=0
57120 On ch=6 n=54 v=40
57120 On ch=6 n=66 v=40
57240 On ch=6 n=54 v=0
57240 On ch=6 n=66 v=0
58080 On ch=6 n=54 v=40
58080 On ch=6 n=66 v=40
58200 On ch=6 n=54 v=0
58200 On ch=6 n=66 v=0
59040 On ch=6 n=54 v=40
59040 On ch=6 n=66 v=40
59160 On ch=6 n=54 v=0
59160 On ch=6 n=66 v=0
60000 On ch=6 n=54 v=40
60000 On ch=6 n=66 v=40
60120 On ch=6 n=54 v=0
60120 On ch=6 n=66 v=0
60960 On ch=6 n=54 v=40
60960 On ch=6 n=66 v=40
61080 On ch=6 n=54 v=0
61080 On ch=6 n=66 v=0
61920 On ch=6 n=54 v=40
61920 On ch=6 n=66 v=40
62040 On ch=6 n=54 v=0
62040 On ch=6 n=66 v=0
62880 On ch=6 n=54 v=40
62880 On ch=6 n=66 v=40
63000 On ch=6 n=54 v=0
63000 On ch=6 n=66 v=0
63840 On ch=6 n=54 v=40
63840 On ch=6 n=66 v=40
63960 On ch=6 n=54 v=0
63960 On ch=6 n=66 v=0
64800 On ch=6 n=54 v=40
64800 On ch=6 n=66 v=40
64920 On ch=6 n=54 v=0
64920 On ch=6 n=66 v=0
65760 On ch=6 n=54 v=40
65760 On ch=6 n=66 v=40
65880 On ch=6 n=54 v=0
65880 On ch=6 n=66 v=0
66720 On ch=6 n=54 v=41
66720 On ch=6 n=66 v=41
66840 On ch=6 n=54 v=0
66840 On ch=6 n=66 v=0
67680 On ch=6 n=54 v=42
67680 On ch=6 n=66 v=42
67800 On ch=6 n=54 v=0
67800 On ch=6 n=66 v=0
68640 On ch=6 n=54 v=43
68640 On ch=6 n=66 v=43
68760 On ch=6 n=54 v=0
68760 On ch=6 n=66 v=0
69600 On ch=6 n=54 v=44
69600 On ch=6 n=66 v=44
69720 On ch=6 n=54 v=0
69720 On ch=6 n=66 v=0
70560 On ch=6 n=54 v=45
70560 On ch=6 n=66 v=45
70680 On ch=6 n=54 v=0
70680 On ch=6 n=66 v=0
71520 On ch=6 n=54 v=46
71520 On ch=6 n=66 v=46
71640 On ch=6 n=54 v=0
71640 On ch=6 n=66 v=0
72480 On ch=6 n=54 v=47
72480 On ch=6 n=66 v=47
72600 On ch=6 n=54 v=0
72600 On ch=6 n=66 v=0
73440 On ch=6 n=54 v=47
73440 On ch=6 n=66 v=47
73560 On ch=6 n=54 v=0
73560 On ch=6 n=66 v=0
74400 On ch=6 n=54 v=48
74400 On ch=6 n=66 v=48
74520 On ch=6 n=54 v=0
74520 On ch=6 n=66 v=0
75360 On ch=6 n=54 v=49
75360 On ch=6 n=66 v=49
75480 On ch=6 n=54 v=0
75480 On ch=6 n=66 v=0
76320 On ch=6 n=54 v=50
76320 On ch=6 n=66 v=50
76440 On ch=6 n=54 v=0
76440 On ch=6 n=66 v=0
77280 On ch=6 n=54 v=51
77280 On ch=6 n=66 v=51
77400 On ch=6 n=54 v=0
77400 On ch=6 n=66 v=0
78240 On ch=6 n=54 v=52
78240 On ch=6 n=66 v=52
78360 On ch=6 n=54 v=0
78360 On ch=6 n=66 v=0
79200 On ch=6 n=54 v=53
79200 On ch=6 n=66 v=53
79320 On ch=6 n=54 v=0
79320 On ch=6 n=66 v=0
80160 On ch=6 n=54 v=54
80160 On ch=6 n=66 v=54
80280 On ch=6 n=54 v=0
80280 On ch=6 n=66 v=0
81120 On ch=6 n=54 v=55
81120 On ch=6 n=66 v=55
81240 On ch=6 n=54 v=0
81240 On ch=6 n=66 v=0
82080 On ch=6 n=54 v=56
82080 On ch=6 n=66 v=56
82200 On ch=6 n=54 v=0
82200 On ch=6 n=66 v=0
83040 On ch=6 n=54 v=57
83040 On ch=6 n=66 v=57
83160 On ch=6 n=54 v=0
83160 On ch=6 n=66 v=0
84000 On ch=6 n=54 v=58
84000 On ch=6 n=66 v=58
84120 On ch=6 n=54 v=0
84120 On ch=6 n=66 v=0
84960 On ch=6 n=54 v=59
84960 On ch=6 n=66 v=59
85080 On ch=6 n=54 v=0
85080 On ch=6 n=66 v=0
85920 On ch=6 n=54 v=60
85920 On ch=6 n=66 v=60
86040 On ch=6 n=54 v=0
86040 On ch=6 n=66 v=0
86880 On ch=6 n=54 v=61
86880 On ch=6 n=66 v=61
87000 On ch=6 n=54 v=0
87000 On ch=6 n=66 v=0
87840 On ch=6 n=54 v=62
87840 On ch=6 n=66 v=62
87960 On ch=6 n=54 v=0
87960 On ch=6 n=66 v=0
88800 On ch=6 n=54 v=62
88800 On ch=6 n=66 v=62
88920 On ch=6 n=54 v=0
88920 On ch=6 n=66 v=0
89760 On ch=6 n=54 v=63
89760 On ch=6 n=66 v=63
89880 On ch=6 n=54 v=0
89880 On ch=6 n=66 v=0
90720 On ch=6 n=54 v=64
90720 On ch=6 n=66 v=64
90840 On ch=6 n=54 v=0
90840 On ch=6 n=66 v=0
91680 On ch=6 n=54 v=65
91680 On ch=6 n=66 v=65
91800 On ch=6 n=54 v=0
91800 On ch=6 n=66 v=0
92640 On ch=6 n=54 v=66
92640 On ch=6 n=66 v=66
92760 On ch=6 n=54 v=0
92760 On ch=6 n=66 v=0
93600 On ch=6 n=54 v=67
93600 On ch=6 n=66 v=67
93720 On ch=6 n=54 v=0
93720 On ch=6 n=66 v=0
94560 On ch=6 n=54 v=68
94560 On ch=6 n=66 v=68
94680 On ch=6 n=54 v=0
94680 On ch=6 n=66 v=0
95520 On ch=6 n=54 v=69
95520 On ch=6 n=66 v=69
95640 On ch=6 n=54 v=0
95640 On ch=6 n=66 v=0
96000 On ch=6 n=59 v=110
96000 On ch=6 n=71 v=110
96930 On ch=6 n=59 v=0
96930 On ch=6 n=71 v=0
96960 On ch=6 n=59 v=110
96960 On ch=6 n=71 v=110
97890 On ch=6 n=59 v=0
97890 On ch=6 n=71 v=0
97920 On ch=6 n=59 v=110
97920 On ch=6 n=71 v=110
98850 On ch=6 n=59 v=0
98850 On ch=6 n=71 v=0
98880 On ch=6 n=59 v=110
98880 On ch=6 n=71 v=110
99810 On ch=6 n=59 v=0
99810 On ch=6 n=71 v=0
99840 On ch=6 n=59 v=110
99840 On ch=6 n=71 v=110
100770 On ch=6 n=59 v=0
100770 On ch=6 n=71 v=0
100800 On ch=6 n=59 v=110
100800 On ch=6 n=71 v=110
101730 On ch=6 n=59 v=0
101730 On ch=6 n=71 v=0
101760 On ch=6 n=62 v=110
101760 On ch=6 n=69 v=110
102690 On ch=6 n=62 v=0
102690 On ch=6 n=69 v=0
102720 On ch=6 n=62 v=110
102720 On ch=6 n=69 v=110
103650 On ch=6 n=62 v=0
103650 On ch=6 n=69 v=0
103680 On ch=6 n=59 v=110
103680 On ch=6 n=71 v=110
104610 On ch=6 n=59 v=0
104610 On ch=6 n=71 v=0
104640 On ch=6 n=59 v=110
104640 On ch=6 n=71 v=110
105570 On ch=6 n=59 v=0
105570 On ch=6 n=71 v=0
105600 On ch=6 n=59 v=110
105600 On ch=6 n=71 v=110
106530 On ch=6 n=59 v=0
106530 On ch=6 n=71 v=0
106560 On ch=6 n=59 v=110
106560 On ch=6 n=71 v=110
107490 On ch=6 n=59 v=0
107490 On ch=6 n=71 v=0
107520 On ch=6 n=59 v=110
107520 On ch=6 n=71 v=110
108450 On ch=6 n=59 v=0
108450 On ch=6 n=71 v=0
108480 On ch=6 n=59 v=110
108480 On ch=6 n=71 v=110
109410 On ch=6 n=59 v=0
109410 On ch=6 n=71 v=0
109440 On ch=6 n=62 v=110
109440 On ch=6 n=69 v=110
110370 On ch=6 n=62 v=0
110370 On ch=6 n=69 v=0
110400 On ch=6 n=62 v=110
110400 On ch=6 n=69 v=110
111330 On ch=6 n=62 v=0
111330 On ch=6 n=69 v=0
111360 On ch=6 n=66 v=110
112290 On ch=6 n=66 v=0
112320 On ch=6 n=66 v=110
113250 On ch=6 n=66 v=0
113280 On ch=6 n=62 v=110
114210 On ch=6 n=62 v=0
114240 On ch=6 n=66 v=110
115170 On ch=6 n=66 v=0
115200 On ch=6 n=54 v=110
115200 On ch=6 n=66 v=110
115320 On ch=6 n=54 v=0
115320 On ch=6 n=66 v=0
115440 On ch=6 n=56 v=110
115440 On ch=6 n=66 v=110
115560 On ch=6 n=56 v=0
115560 On ch=6 n=66 v=0
115680 On ch=6 n=58 v=110
115680 On ch=6 n=66 v=110
115800 On ch=6 n=58 v=0
115800 On ch=6 n=66 v=0
115920 On ch=6 n=59 v=110
115920 On ch=6 n=66 v=110
116040 On ch=6 n=59 v=0
116040 On ch=6 n=66 v=0
116160 On ch=6 n=61 v=110
116160 On ch=6 n=66 v=110
116280 On ch=6 n=61 v=0
116280 On ch=6 n=66 v=0
116400 On ch=6 n=58 v=110
116400 On ch=6 n=66 v=110
116520 On ch=6 n=58 v=0
116520 On ch=6 n=66 v=0
116640 On ch=6 n=61 v=110
116640 On ch=6 n=66 v=110
116760 On ch=6 n=61 v=0
116760 On ch=6 n=66 v=0
117120 On ch=6 n=62 v=110
117120 On ch=6 n=66 v=110
117240 On ch=6 n=62 v=0
117240 On ch=6 n=66 v=0
117360 On ch=6 n=58 v=110
117360 On ch=6 n=66 v=110
117480 On ch=6 n=58 v=0
117480 On ch=6 n=66 v=0
117600 On ch=6 n=62 v=110
117600 On ch=6 n=66 v=110
117720 On ch=6 n=62 v=0
117720 On ch=6 n=66 v=0
118080 On ch=6 n=61 v=110
118080 On ch=6 n=66 v=110
119010 On ch=6 n=61 v=0
119010 On ch=6 n=66 v=0
119040 On ch=6 n=66 v=110
119970 On ch=6 n=66 v=0
120000 On ch=6 n=66 v=110
120930 On ch=6 n=66 v=0
120960 On ch=6 n=63 v=110
121890 On ch=6 n=63 v=0
121920 On ch=6 n=66 v=110
122850 On ch=6 n=66 v=0
122880 On ch=6 n=54 v=110
122880 On ch=6 n=66 v=110
123000 On ch=6 n=54 v=0
123000 On ch=6 n=66 v=0
123120 On ch=6 n=56 v=110
123120 On ch=6 n=66 v=110
123240 On ch=6 n=56 v=0
123240 On ch=6 n=66 v=0
123360 On ch=6 n=58 v=110
123360 On ch=6 n=66 v=110
123480 On ch=6 n=58 v=0
123480 On ch=6 n=66 v=0
123600 On ch=6 n=59 v=110
123600 On ch=6 n=66 v=110
123720 On ch=6 n=59 v=0
123720 On ch=6 n=66 v=0
123840 On ch=6 n=61 v=110
123840 On ch=6 n=66 v=110
123960 On ch=6 n=61 v=0
123960 On ch=6 n=66 v=0
124080 On ch=6 n=58 v=110
124080 On ch=6 n=66 v=110
124200 On ch=6 n=58 v=0
124200 On ch=6 n=66 v=0
124320 On ch=6 n=61 v=110
124320 On ch=6 n=66 v=110
124440 On ch=6 n=61 v=0
124440 On ch=6 n=66 v=0
124800 On ch=6 n=63 v=110
124800 On ch=6 n=66 v=110
124920 On ch=6 n=63 v=0
124920 On ch=6 n=66 v=0
125040 On ch=6 n=58 v=110
125040 On ch=6 n=66 v=110
125160 On ch=6 n=58 v=0
125160 On ch=6 n=66 v=0
125280 On ch=6 n=63 v=110
125280 On ch=6 n=66 v=110
125400 On ch=6 n=63 v=0
125400 On ch=6 n=66 v=0
125760 On ch=6 n=61 v=110
125760 On ch=6 n=66 v=110
126690 On ch=6 n=61 v=0
126690 On ch=6 n=66 v=0
126720 On ch=6 n=59 v=110
126720 On ch=6 n=71 v=110
127650 On ch=6 n=59 v=0
127650 On ch=6 n=71 v=0
127680 On ch=6 n=59 v=110
127680 On ch=6 n=71 v=110
128610 On ch=6 n=59 v=0
128610 On ch=6 n=71 v=0
128640 On ch=6 n=59 v=110
128640 On ch=6 n=71 v=110
129570 On ch=6 n=59 v=0
129570 On ch=6 n=71 v=0
129600 On ch=6 n=59 v=110
129600 On ch=6 n=71 v=110
130530 On ch=6 n=59 v=0
130530 On ch=6 n=71 v=0
130560 On ch=6 n=59 v=110
130560 On ch=6 n=71 v=110
131490 On ch=6 n=59 v=0
131490 On ch=6 n=71 v=0
131520 On ch=6 n=59 v=110
131520 On ch=6 n=71 v=110
132450 On ch=6 n=59 v=0
132450 On ch=6 n=71 v=0
132480 On ch=6 n=62 v=110
132480 On ch=6 n=69 v=110
133410 On ch=6 n=62 v=0
133410 On ch=6 n=69 v=0
133440 On ch=6 n=62 v=110
133440 On ch=6 n=69 v=110
134370 On ch=6 n=62 v=0
134370 On ch=6 n=69 v=0
134400 On ch=6 n=59 v=110
134400 On ch=6 n=71 v=110
134610 On ch=6 n=59 v=0
134610 On ch=6 n=71 v=0
134640 On ch=6 n=59 v=110
134640 On ch=6 n=71 v=110
134850 On ch=6 n=59 v=0
134850 On ch=6 n=71 v=0
134880 On ch=6 n=59 v=110
134880 On ch=6 n=71 v=110
135090 On ch=6 n=59 v=0
135090 On ch=6 n=71 v=0
135120 On ch=6 n=59 v=110
135120 On ch=6 n=71 v=110
135330 On ch=6 n=59 v=0
135330 On ch=6 n=71 v=0
135360 On ch=6 n=59 v=110
135360 On ch=6 n=71 v=110
135570 On ch=6 n=59 v=0
135570 On ch=6 n=71 v=0
135600 On ch=6 n=59 v=110
135600 On ch=6 n=71 v=110
135810 On ch=6 n=59 v=0
135810 On ch=6 n=71 v=0
135840 On ch=6 n=59 v=110
135840 On ch=6 n=71 v=110
136290 On ch=6 n=59 v=0
136290 On ch=6 n=71 v=0
136320 On ch=6 n=59 v=110
136320 On ch=6 n=71 v=110
136530 On ch=6 n=59 v=0
136530 On ch=6 n=71 v=0
136560 On ch=6 n=59 v=110
136560 On ch=6 n=71 v=110
136770 On ch=6 n=59 v=0
136770 On ch=6 n=71 v=0
136800 On ch=6 n=59 v=110
136800 On ch=6 n=71 v=110
137250 On ch=6 n=59 v=0
137250 On ch=6 n=71 v=0
137280 On ch=6 n=59 v=110
137280 On ch=6 n=71 v=110
137490 On ch=6 n=59 v=0
137490 On ch=6 n=71 v=0
137520 On ch=6 n=59 v=110
137520 On ch=6 n=71 v=110
137730 On ch=6 n=59 v=0
137730 On ch=6 n=71 v=0
137760 On ch=6 n=59 v=110
137760 On ch=6 n=71 v=110
138210 On ch=6 n=59 v=0
138210 On ch=6 n=71 v=0
138240 On ch=6 n=59 v=110
138240 On ch=6 n=71 v=110
138450 On ch=6 n=59 v=0
138450 On ch=6 n=71 v=0
138480 On ch=6 n=59 v=110
138480 On ch=6 n=71 v=110
138690 On ch=6 n=59 v=0
138690 On ch=6 n=71 v=0
138720 On ch=6 n=59 v=110
138720 On ch=6 n=71 v=110
138930 On ch=6 n=59 v=0
138930 On ch=6 n=71 v=0
138960 On ch=6 n=59 v=110
138960 On ch=6 n=71 v=110
139170 On ch=6 n=59 v=0
139170 On ch=6 n=71 v=0
139200 On ch=6 n=59 v=110
139200 On ch=6 n=71 v=110
139410 On ch=6 n=59 v=0
139410 On ch=6 n=71 v=0
139440 On ch=6 n=59 v=110
139440 On ch=6 n=71 v=110
139650 On ch=6 n=59 v=0
139650 On ch=6 n=71 v=0
139680 On ch=6 n=59 v=110
139680 On ch=6 n=71 v=110
139890 On ch=6 n=59 v=0
139890 On ch=6 n=71 v=0
139920 On ch=6 n=59 v=110
139920 On ch=6 n=71 v=110
140130 On ch=6 n=59 v=0
140130 On ch=6 n=71 v=0
140160 On ch=6 n=59 v=110
140160 On ch=6 n=71 v=110
140370 On ch=6 n=59 v=0
140370 On ch=6 n=71 v=0
140400 On ch=6 n=59 v=110
140400 On ch=6 n=71 v=110
140610 On ch=6 n=59 v=0
140610 On ch=6 n=71 v=0
140640 On ch=6 n=59 v=110
140640 On ch=6 n=71 v=110
140850 On ch=6 n=59 v=0
140850 On ch=6 n=71 v=0
140880 On ch=6 n=59 v=110
140880 On ch=6 n=71 v=110
141090 On ch=6 n=59 v=0
141090 On ch=6 n=71 v=0
141120 On ch=6 n=59 v=110
142050 On ch=6 n=59 v=0
142560 On ch=6 n=59 v=110
142560 On ch=6 n=71 v=110
142680 On ch=6 n=59 v=0
142680 On ch=6 n=71 v=0
144480 On ch=6 n=62 v=110
144480 On ch=6 n=71 v=110
144600 On ch=6 n=62 v=0
144600 On ch=6 n=71 v=0
146400 On ch=6 n=59 v=110
146400 On ch=6 n=62 v=110
146520 On ch=6 n=59 v=0
146520 On ch=6 n=62 v=0
147360 On ch=6 n=59 v=110
147360 On ch=6 n=62 v=110
147480 On ch=6 n=59 v=0
147480 On ch=6 n=62 v=0
148320 On ch=6 n=58 v=110
148320 On ch=6 n=61 v=110
148440 On ch=6 n=58 v=0
148440 On ch=6 n=61 v=0
149280 On ch=6 n=59 v=110
149280 On ch=6 n=62 v=110
149400 On ch=6 n=59 v=0
149400 On ch=6 n=62 v=0
150240 On ch=6 n=59 v=110
150240 On ch=6 n=71 v=110
150360 On ch=6 n=59 v=0
150360 On ch=6 n=71 v=0
152160 On ch=6 n=62 v=110
152160 On ch=6 n=71 v=110
152280 On ch=6 n=62 v=0
152280 On ch=6 n=71 v=0
154080 On ch=6 n=59 v=110
154080 On ch=6 n=62 v=110
154200 On ch=6 n=59 v=0
154200 On ch=6 n=62 v=0
155040 On ch=6 n=59 v=110
155040 On ch=6 n=62 v=110
155160 On ch=6 n=59 v=0
155160 On ch=6 n=62 v=0
156000 On ch=6 n=58 v=110
156000 On ch=6 n=64 v=110
156120 On ch=6 n=58 v=0
156120 On ch=6 n=64 v=0
156960 On ch=6 n=59 v=110
156960 On ch=6 n=62 v=110
157080 On ch=6 n=59 v=0
157080 On ch=6 n=62 v=0
157920 On ch=6 n=59 v=110
157920 On ch=6 n=71 v=110
158040 On ch=6 n=59 v=0
158040 On ch=6 n=71 v=0
159840 On ch=6 n=59 v=110
159840 On ch=6 n=71 v=110
159960 On ch=6 n=59 v=0
159960 On ch=6 n=71 v=0
161760 On ch=6 n=59 v=76
161760 On ch=6 n=71 v=76
161880 On ch=6 n=59 v=0
161880 On ch=6 n=71 v=0
162240 On ch=6 n=59 v=82
162240 On ch=6 n=71 v=82
162360 On ch=6 n=59 v=0
162360 On ch=6 n=71 v=0
162720 On ch=6 n=59 v=88
162720 On ch=6 n=71 v=88
162840 On ch=6 n=59 v=0
162840 On ch=6 n=71 v=0
163200 On ch=6 n=59 v=95
163200 On ch=6 n=71 v=95
163320 On ch=6 n=59 v=0
163320 On ch=6 n=71 v=0
163680 On ch=6 n=59 v=101
163680 On ch=6 n=71 v=101
163800 On ch=6 n=59 v=0
163800 On ch=6 n=71 v=0
164160 On ch=6 n=59 v=107
164160 On ch=6 n=71 v=107
164280 On ch=6 n=59 v=0
164280 On ch=6 n=71 v=0
164640 On ch=6 n=59 v=113
164640 On ch=6 n=71 v=113
164760 On ch=6 n=59 v=0
164760 On ch=6 n=71 v=0
168480 Par ch=6 c=11 v=100
169440 On ch=6 n=62 v=127
169440 On ch=6 n=71 v=127
169650 On ch=6 n=62 v=0
169650 On ch=6 n=71 v=0
169650 Meta TrkEnd
TrkEnd
MTrk
0 Meta 0x20 05
0 Meta TrkName "Horn in E II"
0 Meta InstrName "Corni in E"
50400 On ch=6 n=62 v=40
50520 On ch=6 n=62 v=0
51360 On ch=6 n=62 v=40
51480 On ch=6 n=62 v=0
52320 On ch=6 n=61 v=40
52320 On ch=6 n=65 v=40
52440 On ch=6 n=61 v=0
52440 On ch=6 n=65 v=0
53280 On ch=6 n=60 v=40
53280 On ch=6 n=64 v=40
53400 On ch=6 n=60 v=0
53400 On ch=6 n=64 v=0
54240 On ch=6 n=59 v=40
54240 On ch=6 n=62 v=40
54360 On ch=6 n=59 v=0
54360 On ch=6 n=62 v=0
55200 On ch=6 n=59 v=40
55200 On ch=6 n=62 v=40
55320 On ch=6 n=59 v=0
55320 On ch=6 n=62 v=0
56160 On ch=6 n=57 v=40
56160 On ch=6 n=62 v=40
56280 On ch=6 n=57 v=0
56280 On ch=6 n=62 v=0
57120 On ch=6 n=57 v=40
57120 On ch=6 n=62 v=40
57240 On ch=6 n=57 v=0
57240 On ch=6 n=62 v=0
58080 On ch=6 n=62 v=40
58200 On ch=6 n=62 v=0
59040 On ch=6 n=62 v=40
59160 On ch=6 n=62 v=0
60000 On ch=6 n=61 v=40
60000 On ch=6 n=65 v=40
60120 On ch=6 n=61 v=0
60120 On ch=6 n=65 v=0
60960 On ch=6 n=60 v=40
60960 On ch=6 n=64 v=40
61080 On ch=6 n=60 v=0
61080 On ch=6 n=64 v=0
61920 On ch=6 n=59 v=40
61920 On ch=6 n=62 v=40
62040 On ch=6 n=59 v=0
62040 On ch=6 n=62 v=0
62880 On ch=6 n=59 v=40
62880 On ch=6 n=62 v=40
63000 On ch=6 n=59 v=0
63000 On ch=6 n=62 v=0
63840 On ch=6 n=57 v=40
63840 On ch=6 n=62 v=40
63960 On ch=6 n=57 v=0
63960 On ch=6 n=62 v=0
64800 On ch=6 n=57 v=40
64800 On ch=6 n=62 v=40
64920 On ch=6 n=57 v=0
64920 On ch=6 n=62 v=0
65760 On ch=6 n=58 v=40
65760 On ch=6 n=61 v=40
65880 On ch=6 n=58 v=0
65880 On ch=6 n=61 v=0
66720 On ch=6 n=58 v=41
66720 On ch=6 n=61 v=41
66840 On ch=6 n=58 v=0
66840 On ch=6 n=61 v=0
67680 On ch=6 n=58 v=42
67680 On ch=6 n=62 v=42
67800 On ch=6 n=58 v=0
67800 On ch=6 n=62 v=0
68640 On ch=6 n=58 v=43
68640 On ch=6 n=61 v=43
68760 On ch=6 n=58 v=0
68760 On ch=6 n=61 v=0
69600 On ch=6 n=58 v=44
69600 On ch=6 n=61 v=44
69720 On ch=6 n=58 v=0
69720 On ch=6 n=61 v=0
70560 On ch=6 n=58 v=45
70560 On ch=6 n=61 v=45
70680 On ch=6 n=58 v=0
70680 On ch=6 n=61 v=0
71520 On ch=6 n=58 v=46
71520 On ch=6 n=62 v=46
71640 On ch=6 n=58 v=0
71640 On ch=6 n=62 v=0
72480 On ch=6 n=58 v=47
72480 On ch=6 n=61 v=47
72600 On ch=6 n=58 v=0
72600 On ch=6 n=61 v=0
73440 On ch=6 n=58 v=47
73440 On ch=6 n=61 v=47
73560 On ch=6 n=58 v=0
73560 On ch=6 n=61 v=0
74400 On ch=6 n=58 v=48
74400 On ch=6 n=61 v=48
74520 On ch=6 n=58 v=0
74520 On ch=6 n=61 v=0
75360 On ch=6 n=58 v=49
75360 On ch=6 n=62 v=49
75480 On ch=6 n=58 v=0
75480 On ch=6 n=62 v=0
76320 On ch=6 n=58 v=50
76320 On ch=6 n=61 v=50
76440 On ch=6 n=58 v=0
76440 On ch=6 n=61 v=0
77280 On ch=6 n=58 v=51
77280 On ch=6 n=61 v=51
77400 On ch=6 n=58 v=0
77400 On ch=6 n=61 v=0
78240 On ch=6 n=58 v=52
78240 On ch=6 n=61 v=52
78360 On ch=6 n=58 v=0
78360 On ch=6 n=61 v=0
79200 On ch=6 n=58 v=53
79200 On ch=6 n=62 v=53
79320 On ch=6 n=58 v=0
79320 On ch=6 n=62 v=0
80160 On ch=6 n=58 v=54
80160 On ch=6 n=61 v=54
80280 On ch=6 n=58 v=0
80280 On ch=6 n=61 v=0
81120 On ch=6 n=62 v=55
81240 On ch=6 n=62 v=0
82080 On ch=6 n=62 v=56
82200 On ch=6 n=62 v=0
83040 On ch=6 n=61 v=57
83040 On ch=6 n=65 v=57
83160 On ch=6 n=61 v=0
83160 On ch=6 n=65 v=0
84000 On ch=6 n=60 v=58
84000 On ch=6 n=64 v=58
84120 On ch=6 n=60 v=0
84120 On ch=6 n=64 v=0
84960 On ch=6 n=59 v=59
84960 On ch=6 n=62 v=59
85080 On ch=6 n=59 v=0
85080 On ch=6 n=62 v=0
85920 On ch=6 n=59 v=60
85920 On ch=6 n=62 v=60
86040 On ch=6 n=59 v=0
86040 On ch=6 n=62 v=0
86880 On ch=6 n=57 v=61
86880 On ch=6 n=62 v=61
87000 On ch=6 n=57 v=0
87000 On ch=6 n=62 v=0
87840 On ch=6 n=57 v=62
87840 On ch=6 n=62 v=62
87960 On ch=6 n=57 v=0
87960 On ch=6 n=62 v=0
88800 On ch=6 n=62 v=62
88920 On ch=6 n=62 v=0
89760 On ch=6 n=62 v=63
89880 On ch=6 n=62 v=0
90720 On ch=6 n=61 v=64
90720 On ch=6 n=65 v=64
90840 On ch=6 n=61 v=0
90840 On ch=6 n=65 v=0
91680 On ch=6 n=60 v=65
91680 On ch=6 n=64 v=65
91800 On ch=6 n=60 v=0
91800 On ch=6 n=64 v=0
92640 On ch=6 n=59 v=66
92640 On ch=6 n=62 v=66
92760 On ch=6 n=59 v=0
92760 On ch=6 n=62 v=0
93600 On ch=6 n=59 v=67
93600 On ch=6 n=62 v=67
93720 On ch=6 n=59 v=0
93720 On ch=6 n=62 v=0
94560 On ch=6 n=59 v=68
94560 On ch=6 n=62 v=68
94680 On ch=6 n=59 v=0
94680 On ch=6 n=62 v=0
95520 On ch=6 n=59 v=69
95520 On ch=6 n=62 v=69
95640 On ch=6 n=59 v=0
95640 On ch=6 n=62 v=0
142560 On ch=6 n=62 v=105
142560 On ch=6 n=68 v=105
142680 On ch=6 n=62 v=0
142680 On ch=6 n=68 v=0
150240 On ch=6 n=62 v=105
150240 On ch=6 n=68 v=105
150360 On ch=6 n=62 v=0
150360 On ch=6 n=68 v=0
157920 On ch=6 n=62 v=105
157920 On ch=6 n=68 v=105
158040 On ch=6 n=62 v=0
158040 On ch=6 n=68 v=0
159840 On ch=6 n=62 v=105
159840 On ch=6 n=68 v=105
159960 On ch=6 n=62 v=0
159960 On ch=6 n=68 v=0
161760 On ch=6 n=62 v=58
161760 On ch=6 n=68 v=58
161880 On ch=6 n=62 v=0
161880 On ch=6 n=68 v=0
162240 On ch=6 n=62 v=66
162240 On ch=6 n=68 v=66
162360 On ch=6 n=62 v=0
162360 On ch=6 n=68 v=0
162720 On ch=6 n=62 v=74
162720 On ch=6 n=68 v=74
162840 On ch=6 n=62 v=0
162840 On ch=6 n=68 v=0
163200 On ch=6 n=62 v=82
163200 On ch=6 n=68 v=82
163320 On ch=6 n=62 v=0
163320 On ch=6 n=68 v=0
163680 On ch=6 n=62 v=90
163680 On ch=6 n=68 v=90
163800 On ch=6 n=62 v=0
163800 On ch=6 n=68 v=0
164160 On ch=6 n=62 v=98
164160 On ch=6 n=68 v=98
164280 On ch=6 n=62 v=0
164280 On ch=6 n=68 v=0
164640 On ch=6 n=62 v=106
164640 On ch=6 n=68 v=106
164760 On ch=6 n=62 v=0
164760 On ch=6 n=68 v=0
164760 Meta TrkEnd
TrkEnd
MTrk
0 Meta 0x20 06
0 Meta TrkName "Trumpet in E"
0 Meta InstrName "Trombe in E"
96480 On ch=7 n=66 v=120
96480 On ch=7 n=78 v=120
96600 On ch=7 n=66 v=0
96600 On ch=7 n=78 v=0
97440 On ch=7 n=66 v=120
97440 On ch=7 n=78 v=120
97560 On ch=7 n=66 v=0
97560 On ch=7 n=78 v=0
98400 On ch=7 n=66 v=120
98400 On ch=7 n=78 v=120
98520 On ch=7 n=66 v=0
98520 On ch=7 n=78 v=0
99360 On ch=7 n=66 v=120
99360 On ch=7 n=78 v=120
99480 On ch=7 n=66 v=0
99480 On ch=7 n=78 v=0
100320 On ch=7 n=66 v=120
100320 On ch=7 n=78 v=120
100440 On ch=7 n=66 v=0
100440 On ch=7 n=78 v=0
101280 On ch=7 n=66 v=120
101280 On ch=7 n=78 v=120
101400 On ch=7 n=66 v=0
101400 On ch=7 n=78 v=0
102240 On ch=7 n=66 v=120
102240 On ch=7 n=78 v=120
102360 On ch=7 n=66 v=0
102360 On ch=7 n=78 v=0
103200 On ch=7 n=66 v=120
103200 On ch=7 n=78 v=120
103320 On ch=7 n=66 v=0
103320 On ch=7 n=78 v=0
104160 On ch=7 n=66 v=120
104160 On ch=7 n=78 v=120
104280 On ch=7 n=66 v=0
104280 On ch=7 n=78 v=0
105120 On ch=7 n=66 v=120
105120 On ch=7 n=78 v=120
105240 On ch=7 n=66 v=0
105240 On ch=7 n=78 v=0
106080 On ch=7 n=66 v=120
106080 On ch=7 n=78 v=120
106200 On ch=7 n=66 v=0
106200 On ch=7 n=78 v=0
107040 On ch=7 n=66 v=120
107040 On ch=7 n=78 v=120
107160 On ch=7 n=66 v=0
107160 On ch=7 n=78 v=0
108000 On ch=7 n=66 v=120
108000 On ch=7 n=78 v=120
108120 On ch=7 n=66 v=0
108120 On ch=7 n=78 v=0
108960 On ch=7 n=66 v=120
108960 On ch=7 n=78 v=120
109080 On ch=7 n=66 v=0
109080 On ch=7 n=78 v=0
109920 On ch=7 n=66 v=120
109920 On ch=7 n=78 v=120
110040 On ch=7 n=66 v=0
110040 On ch=7 n=78 v=0
110880 On ch=7 n=66 v=120
110880 On ch=7 n=78 v=120
111000 On ch=7 n=66 v=0
111000 On ch=7 n=78 v=0
111840 On ch=7 n=70 v=120
111840 On ch=7 n=78 v=120
111960 On ch=7 n=70 v=0
111960 On ch=7 n=78 v=0
112800 On ch=7 n=70 v=120
112800 On ch=7 n=78 v=120
112920 On ch=7 n=70 v=0
112920 On ch=7 n=78 v=0
113760 On ch=7 n=70 v=120
113760 On ch=7 n=78 v=120
113880 On ch=7 n=70 v=0
113880 On ch=7 n=78 v=0
114720 On ch=7 n=70 v=120
114720 On ch=7 n=78 v=120
114840 On ch=7 n=70 v=0
114840 On ch=7 n=78 v=0
115200 On ch=7 n=66 v=120
115200 On ch=7 n=78 v=120
115320 On ch=7 n=66 v=0
115320 On ch=7 n=78 v=0
115440 On ch=7 n=68 v=120
115440 On ch=7 n=78 v=120
115560 On ch=7 n=68 v=0
115560 On ch=7 n=78 v=0
115680 On ch=7 n=70 v=120
115680 On ch=7 n=78 v=120
115800 On ch=7 n=70 v=0
115800 On ch=7 n=78 v=0
115920 On ch=7 n=71 v=120
115920 On ch=7 n=78 v=120
116040 On ch=7 n=71 v=0
116040 On ch=7 n=78 v=0
116160 On ch=7 n=73 v=120
116160 On ch=7 n=78 v=120
116280 On ch=7 n=73 v=0
116280 On ch=7 n=78 v=0
116400 On ch=7 n=70 v=120
116400 On ch=7 n=78 v=120
116520 On ch=7 n=70 v=0
116520 On ch=7 n=78 v=0
116640 On ch=7 n=73 v=120
116640 On ch=7 n=78 v=120
116760 On ch=7 n=73 v=0
116760 On ch=7 n=78 v=0
117120 On ch=7 n=74 v=120
117120 On ch=7 n=78 v=120
117240 On ch=7 n=74 v=0
117240 On ch=7 n=78 v=0
117360 On ch=7 n=70 v=120
117360 On ch=7 n=78 v=120
117480 On ch=7 n=70 v=0
117480 On ch=7 n=78 v=0
117600 On ch=7 n=74 v=120
117600 On ch=7 n=78 v=120
117720 On ch=7 n=74 v=0
117720 On ch=7 n=78 v=0
118080 On ch=7 n=73 v=120
118080 On ch=7 n=78 v=120
119010 On ch=7 n=73 v=0
119010 On ch=7 n=78 v=0
119520 On ch=7 n=70 v=120
119520 On ch=7 n=78 v=120
119640 On ch=7 n=70 v=0
119640 On ch=7 n=78 v=0
120480 On ch=7 n=70 v=120
120480 On ch=7 n=78 v=120
120600 On ch=7 n=70 v=0
120600 On ch=7 n=78 v=0
121440 On ch=7 n=70 v=120
121440 On ch=7 n=78 v=120
121560 On ch=7 n=70 v=0
121560 On ch=7 n=78 v=0
122400 On ch=7 n=70 v=120
122400 On ch=7 n=78 v=120
122520 On ch=7 n=70 v=0
122520 On ch=7 n=78 v=0
122880 On ch=7 n=66 v=120
122880 On ch=7 n=78 v=120
123000 On ch=7 n=66 v=0
123000 On ch=7 n=78 v=0
123120 On ch=7 n=68 v=120
123120 On ch=7 n=78 v=120
123240 On ch=7 n=68 v=0
123240 On ch=7 n=78 v=0
123360 On ch=7 n=70 v=120
123360 On ch=7 n=78 v=120
123480 On ch=7 n=70 v=0
123480 On ch=7 n=78 v=0
123600 On ch=7 n=71 v=120
123600 On ch=7 n=78 v=120
123720 On ch=7 n=71 v=0
123720 On ch=7 n=78 v=0
123840 On ch=7 n=73 v=120
123840 On ch=7 n=78 v=120
123960 On ch=7 n=73 v=0
123960 On ch=7 n=78 v=0
124080 On ch=7 n=70 v=120
124080 On ch=7 n=78 v=120
124200 On ch=7 n=70 v=0
124200 On ch=7 n=78 v=0
124320 On ch=7 n=73 v=120
124320 On ch=7 n=78 v=120
124440 On ch=7 n=73 v=0
124440 On ch=7 n=78 v=0
124800 On ch=7 n=75 v=120
124800 On ch=7 n=78 v=120
124920 On ch=7 n=75 v=0
124920 On ch=7 n=78 v=0
125040 On ch=7 n=70 v=120
125040 On ch=7 n=78 v=120
125160 On ch=7 n=70 v=0
125160 On ch=7 n=78 v=0
125280 On ch=7 n=75 v=120
125280 On ch=7 n=78 v=120
125400 On ch=7 n=75 v=0
125400 On ch=7 n=78 v=0
125760 On ch=7 n=73 v=120
125760 On ch=7 n=78 v=120
126690 On ch=7 n=73 v=0
126690 On ch=7 n=78 v=0
127200 On ch=7 n=66 v=120
127200 On ch=7 n=78 v=120
127320 On ch=7 n=66 v=0
127320 On ch=7 n=78 v=0
128160 On ch=7 n=66 v=120
128160 On ch=7 n=78 v=120
128280 On ch=7 n=66 v=0
128280 On ch=7 n=78 v=0
129120 On ch=7 n=66 v=120
129120 On ch=7 n=78 v=120
129240 On ch=7 n=66 v=0
129240 On ch=7 n=78 v=0
130080 On ch=7 n=66 v=120
130080 On ch=7 n=78 v=120
130200 On ch=7 n=66 v=0
130200 On ch=7 n=78 v=0
131040 On ch=7 n=66 v=120
131040 On ch=7 n=78 v=120
131160 On ch=7 n=66 v=0
131160 On ch=7 n=78 v=0
132000 On ch=7 n=66 v=120
132000 On ch=7 n=78 v=120
132120 On ch=7 n=66 v=0
132120 On ch=7 n=78 v=0
132960 On ch=7 n=66 v=120
132960 On ch=7 n=78 v=120
133080 On ch=7 n=66 v=0
133080 On ch=7 n=78 v=0
133920 On ch=7 n=66 v=120
133920 On ch=7 n=78 v=120
134040 On ch=7 n=66 v=0
134040 On ch=7 n=78 v=0
134880 On ch=7 n=66 v=120
134880 On ch=7 n=78 v=120
135000 On ch=7 n=66 v=0
135000 On ch=7 n=78 v=0
135840 On ch=7 n=66 v=120
135840 On ch=7 n=78 v=120
135960 On ch=7 n=66 v=0
135960 On ch=7 n=78 v=0
136800 On ch=7 n=66 v=120
136800 On ch=7 n=78 v=120
136920 On ch=7 n=66 v=0
136920 On ch=7 n=78 v=0
137760 On ch=7 n=66 v=120
137760 On ch=7 n=78 v=120
137880 On ch=7 n=66 v=0
137880 On ch=7 n=78 v=0
138720 On ch=7 n=66 v=120
138720 On ch=7 n=78 v=120
138840 On ch=7 n=66 v=0
138840 On ch=7 n=78 v=0
139680 On ch=7 n=66 v=120
139680 On ch=7 n=78 v=120
139800 On ch=7 n=66 v=0
139800 On ch=7 n=78 v=0
140640 On ch=7 n=66 v=120
140640 On ch=7 n=78 v=120
140760 On ch=7 n=66 v=0
140760 On ch=7 n=78 v=0
141600 On ch=7 n=66 v=120
141600 On ch=7 n=78 v=120
141720 On ch=7 n=66 v=0
141720 On ch=7 n=78 v=0
142560 On ch=7 n=65 v=120
142560 On ch=7 n=77 v=120
142680 On ch=7 n=65 v=0
142680 On ch=7 n=77 v=0
144480 On ch=7 n=66 v=120
144480 On ch=7 n=78 v=120
144600 On ch=7 n=66 v=0
144600 On ch=7 n=78 v=0
146400 On ch=7 n=67 v=120
146400 On ch=7 n=71 v=120
146520 On ch=7 n=67 v=0
146520 On ch=7 n=71 v=0
147360 On ch=7 n=66 v=120
147360 On ch=7 n=71 v=120
147480 On ch=7 n=66 v=0
147480 On ch=7 n=71 v=0
148320 On ch=7 n=66 v=120
148320 On ch=7 n=70 v=120
148440 On ch=7 n=66 v=0
148440 On ch=7 n=70 v=0
149280 On ch=7 n=66 v=120
149280 On ch=7 n=71 v=120
149400 On ch=7 n=66 v=0
149400 On ch=7 n=71 v=0
150240 On ch=7 n=65 v=120
150240 On ch=7 n=77 v=120
150360 On ch=7 n=65 v=0
150360 On ch=7 n=77 v=0
152160 On ch=7 n=66 v=120
152160 On ch=7 n=78 v=120
152280 On ch=7 n=66 v=0
152280 On ch=7 n=78 v=0
154080 On ch=7 n=67 v=120
154080 On ch=7 n=71 v=120
154200 On ch=7 n=67 v=0
154200 On ch=7 n=71 v=0
155040 On ch=7 n=66 v=120
155040 On ch=7 n=71 v=120
155160 On ch=7 n=66 v=0
155160 On ch=7 n=71 v=0
156000 On ch=7 n=66 v=120
156000 On ch=7 n=70 v=120
156120 On ch=7 n=66 v=0
156120 On ch=7 n=70 v=0
156960 On ch=7 n=66 v=120
156960 On ch=7 n=71 v=120
157080 On ch=7 n=66 v=0
157080 On ch=7 n=71 v=0
157920 On ch=7 n=65 v=120
157920 On ch=7 n=77 v=120
158040 On ch=7 n=65 v=0
158040 On ch=7 n=77 v=0
159840 On ch=7 n=65 v=120
159840 On ch=7 n=77 v=120
159960 On ch=7 n=65 v=0
159960 On ch=7 n=77 v=0
161760 On ch=7 n=65 v=59
161760 On ch=7 n=77 v=59
161880 On ch=7 n=65 v=0
161880 On ch=7 n=77 v=0
162240 On ch=7 n=65 v=69
162240 On ch=7 n=77 v=69
162360 On ch=7 n=65 v=0
162360 On ch=7 n=77 v=0
162720 On ch=7 n=65 v=78
162720 On ch=7 n=77 v=78
162840 On ch=7 n=65 v=0
162840 On ch=7 n=77 v=0
163200 On ch=7 n=65 v=88
163200 On ch=7 n=77 v=88
163320 On ch=7 n=65 v=0
163320 On ch=7 n=77 v=0
163680 On ch=7 n=65 v=98
163680 On ch=7 n=77 v=98
163800 On ch=7 n=65 v=0
163800 On ch=7 n=77 v=0
164160 On ch=7 n=65 v=107
164160 On ch=7 n=77 v=107
164280 On ch=7 n=65 v=0
164280 On ch=7 n=77 v=0
164640 On ch=7 n=65 v=117
164640 On ch=7 n=77 v=117
164760 On ch=7 n=65 v=0
164760 On ch=7 n=77 v=0
168480 Par ch=7 c=11 v=100
169440 On ch=7 n=66 v=127
169440 On ch=7 n=78 v=127
169650 On ch=7 n=66 v=0
169650 On ch=7 n=78 v=0
169650 Meta TrkEnd
TrkEnd
MTrk
0 Meta 0x20 07
0 Meta TrkName "Timpani "
0 Meta InstrName "Timpani "
80637 On ch=8 n=47 v=70
81087 On ch=8 n=47 v=0
81597 On ch=8 n=47 v=70
82047 On ch=8 n=47 v=0
84477 On ch=8 n=47 v=70
84927 On ch=8 n=47 v=0
85437 On ch=8 n=47 v=70
85887 On ch=8 n=47 v=0
88317 On ch=8 n=47 v=70
88767 On ch=8 n=47 v=0
89277 On ch=8 n=47 v=70
89727 On ch=8 n=47 v=0
92157 On ch=8 n=47 v=70
92607 On ch=8 n=47 v=0
92637 On ch=8 n=47 v=73
93087 On ch=8 n=47 v=0
93117 On ch=8 n=47 v=77
93567 On ch=8 n=47 v=0
93597 On ch=8 n=47 v=80
94047 On ch=8 n=47 v=0
94077 On ch=8 n=47 v=84
94527 On ch=8 n=47 v=0
94557 On ch=8 n=47 v=87
95007 On ch=8 n=47 v=0
95037 On ch=8 n=47 v=91
95487 On ch=8 n=47 v=0
95517 On ch=8 n=47 v=95
95967 On ch=8 n=47 v=0
95997 On ch=8 n=47 v=55
96057 On ch=8 n=47 v=0
96103 On ch=8 n=47 v=55
96163 On ch=8 n=47 v=0
96208 On ch=8 n=47 v=54
96268 On ch=8 n=47 v=0
96312 On ch=8 n=47 v=56
96372 On ch=8 n=47 v=0
96418 On ch=8 n=47 v=56
96478 On ch=8 n=47 v=0
96523 On ch=8 n=47 v=55
96583 On ch=8 n=47 v=0
96627 On ch=8 n=47 v=55
96687 On ch=8 n=47 v=0
96732 On ch=8 n=47 v=57
96792 On ch=8 n=47 v=0
96838 On ch=8 n=47 v=55
96898 On ch=8 n=47 v=0
96943 On ch=8 n=47 v=55
97003 On ch=8 n=47 v=0
97047 On ch=8 n=47 v=55
97107 On ch=8 n=47 v=0
97152 On ch=8 n=47 v=55
97212 On ch=8 n=47 v=0
97256 On ch=8 n=47 v=55
97316 On ch=8 n=47 v=0
97362 On ch=8 n=47 v=57
97422 On ch=8 n=47 v=0
97467 On ch=8 n=47 v=56
97527 On ch=8 n=47 v=0
97572 On ch=8 n=47 v=55
97632 On ch=8 n=47 v=0
97678 On ch=8 n=47 v=57
97738 On ch=8 n=47 v=0
97783 On ch=8 n=47 v=55
97843 On ch=8 n=47 v=0
97886 On ch=8 n=47 v=54
97946 On ch=8 n=47 v=0
97992 On ch=8 n=47 v=57
98052 On ch=8 n=47 v=0
98097 On ch=8 n=47 v=57
98157 On ch=8 n=47 v=0
98203 On ch=8 n=47 v=54
98263 On ch=8 n=47 v=0
98307 On ch=8 n=47 v=55
98367 On ch=8 n=47 v=0
98412 On ch=8 n=47 v=54
98472 On ch=8 n=47 v=0
98517 On ch=8 n=47 v=55
98577 On ch=8 n=47 v=0
98622 On ch=8 n=47 v=57
98682 On ch=8 n=47 v=0
98727 On ch=8 n=47 v=54
98787 On ch=8 n=47 v=0
98832 On ch=8 n=47 v=54
98892 On ch=8 n=47 v=0
98938 On ch=8 n=47 v=55
98998 On ch=8 n=47 v=0
99042 On ch=8 n=47 v=53
99102 On ch=8 n=47 v=0
99148 On ch=8 n=47 v=54
99208 On ch=8 n=47 v=0
99252 On ch=8 n=47 v=53
99312 On ch=8 n=47 v=0
99358 On ch=8 n=47 v=56
99418 On ch=8 n=47 v=0
99463 On ch=8 n=47 v=56
99523 On ch=8 n=47 v=0
99567 On ch=8 n=47 v=54
99627 On ch=8 n=47 v=0
99671 On ch=8 n=47 v=54
99731 On ch=8 n=47 v=0
99777 On ch=8 n=47 v=56
99837 On ch=8 n=47 v=0
99883 On ch=8 n=47 v=54
99943 On ch=8 n=47 v=0
99987 On ch=8 n=47 v=54
100047 On ch=8 n=47 v=0
100092 On ch=8 n=47 v=53
100152 On ch=8 n=47 v=0
100197 On ch=8 n=47 v=53
100257 On ch=8 n=47 v=0
100302 On ch=8 n=47 v=54
100362 On ch=8 n=47 v=0
100406 On ch=8 n=47 v=55
100466 On ch=8 n=47 v=0
100513 On ch=8 n=47 v=57
100573 On ch=8 n=47 v=0
100618 On ch=8 n=47 v=53
100678 On ch=8 n=47 v=0
100723 On ch=8 n=47 v=55
100783 On ch=8 n=47 v=0
100826 On ch=8 n=47 v=54
100886 On ch=8 n=47 v=0
100931 On ch=8 n=47 v=54
100991 On ch=8 n=47 v=0
101037 On ch=8 n=47 v=54
101097 On ch=8 n=47 v=0
101143 On ch=8 n=47 v=54
101203 On ch=8 n=47 v=0
101247 On ch=8 n=47 v=57
101307 On ch=8 n=47 v=0
101353 On ch=8 n=47 v=55
101413 On ch=8 n=47 v=0
101457 On ch=8 n=47 v=53
101517 On ch=8 n=47 v=0
101771 On ch=8 n=42 v=54
101831 On ch=8 n=42 v=0
101876 On ch=8 n=42 v=54
101936 On ch=8 n=42 v=0
101982 On ch=8 n=42 v=54
102042 On ch=8 n=42 v=0
102087 On ch=8 n=42 v=55
102147 On ch=8 n=42 v=0
102192 On ch=8 n=42 v=55
102252 On ch=8 n=42 v=0
102298 On ch=8 n=42 v=57
102358 On ch=8 n=42 v=0
102402 On ch=8 n=42 v=55
102462 On ch=8 n=42 v=0
102507 On ch=8 n=42 v=57
102567 On ch=8 n=42 v=0
102717 On ch=8 n=42 v=55
103167 On ch=8 n=42 v=0
103677 On ch=8 n=47 v=55
103887 On ch=8 n=47 v=0
103917 On ch=8 n=47 v=55
104127 On ch=8 n=47 v=0
104157 On ch=8 n=47 v=55
104367 On ch=8 n=47 v=0
104397 On ch=8 n=47 v=55
104607 On ch=8 n=47 v=0
104637 On ch=8 n=47 v=55
104847 On ch=8 n=47 v=0
104877 On ch=8 n=47 v=55
105087 On ch=8 n=47 v=0
105117 On ch=8 n=47 v=55
105567 On ch=8 n=47 v=0
105597 On ch=8 n=47 v=55
105807 On ch=8 n=47 v=0
105837 On ch=8 n=47 v=55
106047 On ch=8 n=47 v=0
106077 On ch=8 n=47 v=55
106527 On ch=8 n=47 v=0
106557 On ch=8 n=47 v=55
106767 On ch=8 n=47 v=0
106797 On ch=8 n=47 v=55
107007 On ch=8 n=47 v=0
107037 On ch=8 n=47 v=55
107487 On ch=8 n=47 v=0
107517 On ch=8 n=47 v=55
107727 On ch=8 n=47 v=0
107757 On ch=8 n=47 v=55
107967 On ch=8 n=47 v=0
107997 On ch=8 n=47 v=55
108207 On ch=8 n=47 v=0
108237 On ch=8 n=47 v=55
108447 On ch=8 n=47 v=0
108477 On ch=8 n=47 v=55
108687 On ch=8 n=47 v=0
108717 On ch=8 n=47 v=55
108927 On ch=8 n=47 v=0
108957 On ch=8 n=47 v=55
109167 On ch=8 n=47 v=0
109197 On ch=8 n=47 v=55
109407 On ch=8 n=47 v=0
109437 On ch=8 n=42 v=55
109647 On ch=8 n=42 v=0
109677 On ch=8 n=42 v=55
109887 On ch=8 n=42 v=0
109917 On ch=8 n=42 v=55
110127 On ch=8 n=42 v=0
110157 On ch=8 n=42 v=55
110367 On ch=8 n=42 v=0
110397 On ch=8 n=42 v=55
110847 On ch=8 n=42 v=0
111357 On ch=8 n=42 v=55
111417 On ch=8 n=42 v=0
111463 On ch=8 n=42 v=55
111523 On ch=8 n=42 v=0
111568 On ch=8 n=42 v=54
111628 On ch=8 n=42 v=0
111672 On ch=8 n=42 v=56
111732 On ch=8 n=42 v=0
111778 On ch=8 n=42 v=56
111838 On ch=8 n=42 v=0
111883 On ch=8 n=42 v=55
111943 On ch=8 n=42 v=0
111987 On ch=8 n=42 v=55
112047 On ch=8 n=42 v=0
112092 On ch=8 n=42 v=57
112152 On ch=8 n=42 v=0
112198 On ch=8 n=42 v=55
112258 On ch=8 n=42 v=0
112303 On ch=8 n=42 v=55
112363 On ch=8 n=42 v=0
112407 On ch=8 n=42 v=55
112467 On ch=8 n=42 v=0
112512 On ch=8 n=42 v=55
112572 On ch=8 n=42 v=0
112616 On ch=8 n=42 v=55
112676 On ch=8 n=42 v=0
112722 On ch=8 n=42 v=57
112782 On ch=8 n=42 v=0
112827 On ch=8 n=42 v=56
112887 On ch=8 n=42 v=0
112932 On ch=8 n=42 v=55
112992 On ch=8 n=42 v=0
113038 On ch=8 n=42 v=57
113098 On ch=8 n=42 v=0
113143 On ch=8 n=42 v=55
113203 On ch=8 n=42 v=0
113246 On ch=8 n=42 v=54
113306 On ch=8 n=42 v=0
113352 On ch=8 n=42 v=57
113412 On ch=8 n=42 v=0
113457 On ch=8 n=42 v=57
113517 On ch=8 n=42 v=0
113563 On ch=8 n=42 v=54
113623 On ch=8 n=42 v=0
113667 On ch=8 n=42 v=55
113727 On ch=8 n=42 v=0
113772 On ch=8 n=42 v=54
113832 On ch=8 n=42 v=0
113877 On ch=8 n=42 v=55
113937 On ch=8 n=42 v=0
113982 On ch=8 n=42 v=57
114042 On ch=8 n=42 v=0
114087 On ch=8 n=42 v=54
114147 On ch=8 n=42 v=0
114192 On ch=8 n=42 v=54
114252 On ch=8 n=42 v=0
114298 On ch=8 n=42 v=55
114358 On ch=8 n=42 v=0
114402 On ch=8 n=42 v=53
114462 On ch=8 n=42 v=0
114508 On ch=8 n=42 v=54
114568 On ch=8 n=42 v=0
114612 On ch=8 n=42 v=53
114672 On ch=8 n=42 v=0
114718 On ch=8 n=42 v=56
114778 On ch=8 n=42 v=0
114823 On ch=8 n=42 v=56
114883 On ch=8 n=42 v=0
114927 On ch=8 n=42 v=54
114987 On ch=8 n=42 v=0
115031 On ch=8 n=42 v=54
115091 On ch=8 n=42 v=0
115197 On ch=8 n=42 v=55
115407 On ch=8 n=42 v=0
115437 On ch=8 n=42 v=55
115647 On ch=8 n=42 v=0
115677 On ch=8 n=42 v=55
115887 On ch=8 n=42 v=0
115917 On ch=8 n=42 v=55
116127 On ch=8 n=42 v=0
116157 On ch=8 n=42 v=55
116367 On ch=8 n=42 v=0
116397 On ch=8 n=42 v=55
116607 On ch=8 n=42 v=0
116637 On ch=8 n=42 v=55
117087 On ch=8 n=42 v=0
117117 On ch=8 n=42 v=55
117327 On ch=8 n=42 v=0
117357 On ch=8 n=42 v=55
117567 On ch=8 n=42 v=0
117597 On ch=8 n=42 v=55
118047 On ch=8 n=42 v=0
118077 On ch=8 n=42 v=55
118527 On ch=8 n=42 v=0
119037 On ch=8 n=42 v=55
119097 On ch=8 n=42 v=0
119143 On ch=8 n=42 v=55
119203 On ch=8 n=42 v=0
119248 On ch=8 n=42 v=54
119308 On ch=8 n=42 v=0
119352 On ch=8 n=42 v=56
119412 On ch=8 n=42 v=0
119458 On ch=8 n=42 v=56
119518 On ch=8 n=42 v=0
119563 On ch=8 n=42 v=55
119623 On ch=8 n=42 v=0
119667 On ch=8 n=42 v=55
119727 On ch=8 n=42 v=0
119772 On ch=8 n=42 v=57
119832 On ch=8 n=42 v=0
119878 On ch=8 n=42 v=55
119938 On ch=8 n=42 v=0
119983 On ch=8 n=42 v=55
120043 On ch=8 n=42 v=0
120087 On ch=8 n=42 v=55
120147 On ch=8 n=42 v=0
120192 On ch=8 n=42 v=55
120252 On ch=8 n=42 v=0
120296 On ch=8 n=42 v=55
120356 On ch=8 n=42 v=0
120402 On ch=8 n=42 v=57
120462 On ch=8 n=42 v=0
120507 On ch=8 n=42 v=56
120567 On ch=8 n=42 v=0
120612 On ch=8 n=42 v=55
120672 On ch=8 n=42 v=0
120718 On ch=8 n=42 v=57
120778 On ch=8 n=42 v=0
120823 On ch=8 n=42 v=55
120883 On ch=8 n=42 v=0
120926 On ch=8 n=42 v=54
120986 On ch=8 n=42 v=0
121032 On ch=8 n=42 v=57
121092 On ch=8 n=42 v=0
121137 On ch=8 n=42 v=57
121197 On ch=8 n=42 v=0
121243 On ch=8 n=42 v=54
121303 On ch=8 n=42 v=0
121347 On ch=8 n=42 v=55
121407 On ch=8 n=42 v=0
121452 On ch=8 n=42 v=54
121512 On ch=8 n=42 v=0
121557 On ch=8 n=42 v=55
121617 On ch=8 n=42 v=0
121662 On ch=8 n=42 v=57
121722 On ch=8 n=42 v=0
121767 On ch=8 n=42 v=54
121827 On ch=8 n=42 v=0
121872 On ch=8 n=42 v=54
121932 On ch=8 n=42 v=0
121978 On ch=8 n=42 v=55
122038 On ch=8 n=42 v=0
122082 On ch=8 n=42 v=53
122142 On ch=8 n=42 v=0
122188 On ch=8 n=42 v=54
122248 On ch=8 n=42 v=0
122292 On ch=8 n=42 v=53
122352 On ch=8 n=42 v=0
122398 On ch=8 n=42 v=56
122458 On ch=8 n=42 v=0
122503 On ch=8 n=42 v=56
122563 On ch=8 n=42 v=0
122607 On ch=8 n=42 v=54
122667 On ch=8 n=42 v=0
122711 On ch=8 n=42 v=54
122771 On ch=8 n=42 v=0
122877 On ch=8 n=42 v=55
123087 On ch=8 n=42 v=0
123117 On ch=8 n=42 v=55
123327 On ch=8 n=42 v=0
123357 On ch=8 n=42 v=55
123567 On ch=8 n=42 v=0
123597 On ch=8 n=42 v=55
123807 On ch=8 n=42 v=0
123837 On ch=8 n=42 v=55
124047 On ch=8 n=42 v=0
124077 On ch=8 n=42 v=55
124287 On ch=8 n=42 v=0
124317 On ch=8 n=42 v=55
124767 On ch=8 n=42 v=0
124797 On ch=8 n=42 v=55
125007 On ch=8 n=42 v=0
125037 On ch=8 n=42 v=55
125247 On ch=8 n=42 v=0
125277 On ch=8 n=42 v=55
125727 On ch=8 n=42 v=0
125757 On ch=8 n=42 v=55
126207 On ch=8 n=42 v=0
126717 On ch=8 n=47 v=55
126777 On ch=8 n=47 v=0
126823 On ch=8 n=47 v=55
126883 On ch=8 n=47 v=0
126928 On ch=8 n=47 v=54
126988 On ch=8 n=47 v=0
127032 On ch=8 n=47 v=56
127092 On ch=8 n=47 v=0
127138 On ch=8 n=47 v=56
127198 On ch=8 n=47 v=0
127243 On ch=8 n=47 v=55
127303 On ch=8 n=47 v=0
127347 On ch=8 n=47 v=55
127407 On ch=8 n=47 v=0
127452 On ch=8 n=47 v=57
127512 On ch=8 n=47 v=0
127558 On ch=8 n=47 v=55
127618 On ch=8 n=47 v=0
127663 On ch=8 n=47 v=55
127723 On ch=8 n=47 v=0
127767 On ch=8 n=47 v=55
127827 On ch=8 n=47 v=0
127872 On ch=8 n=47 v=55
127932 On ch=8 n=47 v=0
127976 On ch=8 n=47 v=55
128036 On ch=8 n=47 v=0
128082 On ch=8 n=47 v=57
128142 On ch=8 n=47 v=0
128187 On ch=8 n=47 v=56
128247 On ch=8 n=47 v=0
128292 On ch=8 n=47 v=55
128352 On ch=8 n=47 v=0
128398 On ch=8 n=47 v=57
128458 On ch=8 n=47 v=0
128503 On ch=8 n=47 v=55
128563 On ch=8 n=47 v=0
128606 On ch=8 n=47 v=54
128666 On ch=8 n=47 v=0
128712 On ch=8 n=47 v=57
128772 On ch=8 n=47 v=0
128817 On ch=8 n=47 v=57
128877 On ch=8 n=47 v=0
128923 On ch=8 n=47 v=54
128983 On ch=8 n=47 v=0
129027 On ch=8 n=47 v=55
129087 On ch=8 n=47 v=0
129132 On ch=8 n=47 v=54
129192 On ch=8 n=47 v=0
129237 On ch=8 n=47 v=55
129297 On ch=8 n=47 v=0
129342 On ch=8 n=47 v=57
129402 On ch=8 n=47 v=0
129447 On ch=8 n=47 v=54
129507 On ch=8 n=47 v=0
129552 On ch=8 n=47 v=54
129612 On ch=8 n=47 v=0
129658 On ch=8 n=47 v=55
129718 On ch=8 n=47 v=0
129762 On ch=8 n=47 v=53
129822 On ch=8 n=47 v=0
129868 On ch=8 n=47 v=54
129928 On ch=8 n=47 v=0
129972 On ch=8 n=47 v=53
130032 On ch=8 n=47 v=0
130078 On ch=8 n=47 v=56
130138 On ch=8 n=47 v=0
130183 On ch=8 n=47 v=56
130243 On ch=8 n=47 v=0
130287 On ch=8 n=47 v=54
130347 On ch=8 n=47 v=0
130391 On ch=8 n=47 v=54
130451 On ch=8 n=47 v=0
130497 On ch=8 n=47 v=56
130557 On ch=8 n=47 v=0
130603 On ch=8 n=47 v=54
130663 On ch=8 n=47 v=0
130707 On ch=8 n=47 v=54
130767 On ch=8 n=47 v=0
130812 On ch=8 n=47 v=53
130872 On ch=8 n=47 v=0
130917 On ch=8 n=47 v=53
130977 On ch=8 n=47 v=0
131022 On ch=8 n=47 v=54
131082 On ch=8 n=47 v=0
131126 On ch=8 n=47 v=55
131186 On ch=8 n=47 v=0
131233 On ch=8 n=47 v=57
131293 On ch=8 n=47 v=0
131338 On ch=8 n=47 v=53
131398 On ch=8 n=47 v=0
131443 On ch=8 n=47 v=55
131503 On ch=8 n=47 v=0
131546 On ch=8 n=47 v=54
131606 On ch=8 n=47 v=0
131651 On ch=8 n=47 v=54
131711 On ch=8 n=47 v=0
131757 On ch=8 n=47 v=54
131817 On ch=8 n=47 v=0
131863 On ch=8 n=47 v=54
131923 On ch=8 n=47 v=0
131967 On ch=8 n=47 v=57
132027 On ch=8 n=47 v=0
132073 On ch=8 n=47 v=55
132133 On ch=8 n=47 v=0
132177 On ch=8 n=47 v=53
132237 On ch=8 n=47 v=0
132491 On ch=8 n=42 v=54
132551 On ch=8 n=42 v=0
132596 On ch=8 n=42 v=54
132656 On ch=8 n=42 v=0
132702 On ch=8 n=42 v=54
132762 On ch=8 n=42 v=0
132807 On ch=8 n=42 v=55
132867 On ch=8 n=42 v=0
132912 On ch=8 n=42 v=55
132972 On ch=8 n=42 v=0
133018 On ch=8 n=42 v=57
133078 On ch=8 n=42 v=0
133122 On ch=8 n=42 v=55
133182 On ch=8 n=42 v=0
133227 On ch=8 n=42 v=57
133287 On ch=8 n=42 v=0
133437 On ch=8 n=42 v=55
133887 On ch=8 n=42 v=0
134397 On ch=8 n=47 v=55
134607 On ch=8 n=47 v=0
134637 On ch=8 n=47 v=55
134847 On ch=8 n=47 v=0
134877 On ch=8 n=47 v=55
135087 On ch=8 n=47 v=0
135117 On ch=8 n=47 v=55
135327 On ch=8 n=47 v=0
135357 On ch=8 n=47 v=55
135567 On ch=8 n=47 v=0
135597 On ch=8 n=47 v=55
135807 On ch=8 n=47 v=0
135837 On ch=8 n=47 v=55
136287 On ch=8 n=47 v=0
136317 On ch=8 n=47 v=55
136527 On ch=8 n=47 v=0
136557 On ch=8 n=47 v=55
136767 On ch=8 n=47 v=0
136797 On ch=8 n=47 v=55
137247 On ch=8 n=47 v=0
137277 On ch=8 n=47 v=55
137487 On ch=8 n=47 v=0
137517 On ch=8 n=47 v=55
137727 On ch=8 n=47 v=0
137757 On ch=8 n=47 v=55
138207 On ch=8 n=47 v=0
138237 On ch=8 n=47 v=55
138447 On ch=8 n=47 v=0
138477 On ch=8 n=47 v=55
138687 On ch=8 n=47 v=0
138717 On ch=8 n=47 v=55
138927 On ch=8 n=47 v=0
138957 On ch=8 n=47 v=55
139167 On ch=8 n=47 v=0
139197 On ch=8 n=47 v=55
139407 On ch=8 n=47 v=0
139437 On ch=8 n=47 v=55
139647 On ch=8 n=47 v=0
139677 On ch=8 n=47 v=55
139887 On ch=8 n=47 v=0
139917 On ch=8 n=47 v=55
140127 On ch=8 n=47 v=0
140157 On ch=8 n=47 v=55
140367 On ch=8 n=47 v=0
140397 On ch=8 n=47 v=55
140607 On ch=8 n=47 v=0
140637 On ch=8 n=47 v=55
140847 On ch=8 n=47 v=0
140877 On ch=8 n=47 v=55
141087 On ch=8 n=47 v=0
141117 On ch=8 n=47 v=55
141567 On ch=8 n=47 v=0
142077 On ch=8 n=47 v=90
142527 On ch=8 n=47 v=0
143997 On ch=8 n=47 v=90
144447 On ch=8 n=47 v=0
149757 On ch=8 n=47 v=90
150207 On ch=8 n=47 v=0
151677 On ch=8 n=47 v=90
152127 On ch=8 n=47 v=0
157437 On ch=8 n=47 v=90
157887 On ch=8 n=47 v=0
159357 On ch=8 n=47 v=90
159807 On ch=8 n=47 v=0
161277 On ch=8 n=47 v=90
161727 On ch=8 n=47 v=0
166077 On ch=8 n=47 v=40
166137 On ch=8 n=47 v=0
166183 On ch=8 n=47 v=43
166243 On ch=8 n=47 v=0
166288 On ch=8 n=47 v=47
166348 On ch=8 n=47 v=0
166392 On ch=8 n=47 v=50
166452 On ch=8 n=47 v=0
166498 On ch=8 n=47 v=54
166558 On ch=8 n=47 v=0
166603 On ch=8 n=47 v=57
166663 On ch=8 n=47 v=0
166707 On ch=8 n=47 v=61
166767 On ch=8 n=47 v=0
166812 On ch=8 n=47 v=65
166872 On ch=8 n=47 v=0
166918 On ch=8 n=47 v=68
166978 On ch=8 n=47 v=0
167023 On ch=8 n=47 v=72
167083 On ch=8 n=47 v=0
167127 On ch=8 n=47 v=75
167187 On ch=8 n=47 v=0
167232 On ch=8 n=47 v=79
167292 On ch=8 n=47 v=0
167336 On ch=8 n=47 v=82
167396 On ch=8 n=47 v=0
167442 On ch=8 n=47 v=86
167502 On ch=8 n=47 v=0
167547 On ch=8 n=47 v=89
167607 On ch=8 n=47 v=0
167652 On ch=8 n=47 v=93
167712 On ch=8 n=47 v=0
167758 On ch=8 n=47 v=97
167818 On ch=8 n=47 v=0
167863 On ch=8 n=47 v=100
167923 On ch=8 n=47 v=0
167966 On ch=8 n=47 v=104
168026 On ch=8 n=47 v=0
168072 On ch=8 n=47 v=107
168132 On ch=8 n=47 v=0
168177 On ch=8 n=47 v=111
168237 On ch=8 n=47 v=0
168283 On ch=8 n=47 v=115
168343 On ch=8 n=47 v=0
168387 On ch=8 n=47 v=118
168447 On ch=8 n=47 v=0
168957 On ch=8 n=47 v=127
169407 On ch=8 n=47 v=0
169407 Meta TrkEnd
TrkEnd
MTrk
0 Meta 0x20 08
0 Meta TrkName "Trombone I"
0 Meta InstrName "Tromboni"
96480 On ch=9 n=62 v=127
96480 On ch=9 n=66 v=127
96600 On ch=9 n=62 v=0
96600 On ch=9 n=66 v=0
97440 On ch=9 n=62 v=127
97440 On ch=9 n=66 v=127
97560 On ch=9 n=62 v=0
97560 On ch=9 n=66 v=0
98400 On ch=9 n=61 v=127
98400 On ch=9 n=65 v=127
98520 On ch=9 n=61 v=0
98520 On ch=9 n=65 v=0
99360 On ch=9 n=60 v=127
99360 On ch=9 n=64 v=127
99480 On ch=9 n=60 v=0
99480 On ch=9 n=64 v=0
100320 On ch=9 n=59 v=127
100320 On ch=9 n=62 v=127
100440 On ch=9 n=59 v=0
100440 On ch=9 n=62 v=0
101280 On ch=9 n=59 v=127
101280 On ch=9 n=62 v=127
101400 On ch=9 n=59 v=0
101400 On ch=9 n=62 v=0
102240 On ch=9 n=57 v=127
102240 On ch=9 n=62 v=127
102360 On ch=9 n=57 v=0
102360 On ch=9 n=62 v=0
103200 On ch=9 n=57 v=127
103200 On ch=9 n=62 v=127
103320 On ch=9 n=57 v=0
103320 On ch=9 n=62 v=0
104160 On ch=9 n=62 v=127
104160 On ch=9 n=66 v=127
104280 On ch=9 n=62 v=0
104280 On ch=9 n=66 v=0
105120 On ch=9 n=62 v=127
105120 On ch=9 n=66 v=127
105240 On ch=9 n=62 v=0
105240 On ch=9 n=66 v=0
106080 On ch=9 n=61 v=127
106080 On ch=9 n=65 v=127
106200 On ch=9 n=61 v=0
106200 On ch=9 n=65 v=0
107040 On ch=9 n=60 v=127
107040 On ch=9 n=64 v=127
107160 On ch=9 n=60 v=0
107160 On ch=9 n=64 v=0
108000 On ch=9 n=59 v=127
108000 On ch=9 n=62 v=127
108120 On ch=9 n=59 v=0
108120 On ch=9 n=62 v=0
108960 On ch=9 n=59 v=127
108960 On ch=9 n=62 v=127
109080 On ch=9 n=59 v=0
109080 On ch=9 n=62 v=0
109920 On ch=9 n=57 v=127
109920 On ch=9 n=62 v=127
110040 On ch=9 n=57 v=0
110040 On ch=9 n=62 v=0
110880 On ch=9 n=57 v=127
110880 On ch=9 n=62 v=127
111000 On ch=9 n=57 v=0
111000 On ch=9 n=62 v=0
111840 On ch=9 n=61 v=127
111840 On ch=9 n=66 v=127
111960 On ch=9 n=61 v=0
111960 On ch=9 n=66 v=0
112800 On ch=9 n=61 v=127
112800 On ch=9 n=66 v=127
112920 On ch=9 n=61 v=0
112920 On ch=9 n=66 v=0
113760 On ch=9 n=62 v=127
113760 On ch=9 n=66 v=127
113880 On ch=9 n=62 v=0
113880 On ch=9 n=66 v=0
114720 On ch=9 n=61 v=127
114720 On ch=9 n=66 v=127
114840 On ch=9 n=61 v=0
114840 On ch=9 n=66 v=0
115680 On ch=9 n=61 v=127
115680 On ch=9 n=66 v=127
115800 On ch=9 n=61 v=0
115800 On ch=9 n=66 v=0
116640 On ch=9 n=61 v=127
116640 On ch=9 n=66 v=127
116760 On ch=9 n=61 v=0
116760 On ch=9 n=66 v=0
117600 On ch=9 n=62 v=127
117600 On ch=9 n=66 v=127
117720 On ch=9 n=62 v=0
117720 On ch=9 n=66 v=0
118560 On ch=9 n=61 v=127
118560 On ch=9 n=66 v=127
118680 On ch=9 n=61 v=0
118680 On ch=9 n=66 v=0
119520 On ch=9 n=61 v=127
119520 On ch=9 n=66 v=127
119640 On ch=9 n=61 v=0
119640 On ch=9 n=66 v=0
120480 On ch=9 n=61 v=127
120480 On ch=9 n=66 v=127
120600 On ch=9 n=61 v=0
120600 On ch=9 n=66 v=0
121440 On ch=9 n=63 v=127
121440 On ch=9 n=66 v=127
121560 On ch=9 n=63 v=0
121560 On ch=9 n=66 v=0
122400 On ch=9 n=61 v=127
122400 On ch=9 n=66 v=127
122520 On ch=9 n=61 v=0
122520 On ch=9 n=66 v=0
123360 On ch=9 n=61 v=127
123360 On ch=9 n=66 v=127
123480 On ch=9 n=61 v=0
123480 On ch=9 n=66 v=0
124320 On ch=9 n=61 v=127
124320 On ch=9 n=66 v=127
124440 On ch=9 n=61 v=0
124440 On ch=9 n=66 v=0
125280 On ch=9 n=63 v=127
125280 On ch=9 n=66 v=127
125400 On ch=9 n=63 v=0
125400 On ch=9 n=66 v=0
126240 On ch=9 n=61 v=127
126240 On ch=9 n=66 v=127
126360 On ch=9 n=61 v=0
126360 On ch=9 n=66 v=0
127200 On ch=9 n=62 v=127
127200 On ch=9 n=66 v=127
127320 On ch=9 n=62 v=0
127320 On ch=9 n=66 v=0
128160 On ch=9 n=62 v=127
128160 On ch=9 n=66 v=127
128280 On ch=9 n=62 v=0
128280 On ch=9 n=66 v=0
129120 On ch=9 n=61 v=127
129120 On ch=9 n=65 v=127
129240 On ch=9 n=61 v=0
129240 On ch=9 n=65 v=0
130080 On ch=9 n=60 v=127
130080 On ch=9 n=64 v=127
130200 On ch=9 n=60 v=0
130200 On ch=9 n=64 v=0
131040 On ch=9 n=59 v=127
131040 On ch=9 n=62 v=127
131160 On ch=9 n=59 v=0
131160 On ch=9 n=62 v=0
132000 On ch=9 n=59 v=127
132000 On ch=9 n=62 v=127
132120 On ch=9 n=59 v=0
132120 On ch=9 n=62 v=0
132960 On ch=9 n=57 v=127
132960 On ch=9 n=62 v=127
133080 On ch=9 n=57 v=0
133080 On ch=9 n=62 v=0
133920 On ch=9 n=57 v=127
133920 On ch=9 n=62 v=127
134040 On ch=9 n=57 v=0
134040 On ch=9 n=62 v=0
134880 On ch=9 n=62 v=127
134880 On ch=9 n=66 v=127
135000 On ch=9 n=62 v=0
135000 On ch=9 n=66 v=0
135840 On ch=9 n=62 v=127
135840 On ch=9 n=66 v=127
135960 On ch=9 n=62 v=0
135960 On ch=9 n=66 v=0
136800 On ch=9 n=61 v=127
136800 On ch=9 n=65 v=127
136920 On ch=9 n=61 v=0
136920 On ch=9 n=65 v=0
137760 On ch=9 n=60 v=127
137760 On ch=9 n=64 v=127
137880 On ch=9 n=60 v=0
137880 On ch=9 n=64 v=0
138720 On ch=9 n=59 v=127
138720 On ch=9 n=62 v=127
138840 On ch=9 n=59 v=0
138840 On ch=9 n=62 v=0
139680 On ch=9 n=59 v=127
139680 On ch=9 n=62 v=127
139800 On ch=9 n=59 v=0
139800 On ch=9 n=62 v=0
140640 On ch=9 n=59 v=127
140640 On ch=9 n=62 v=127
140760 On ch=9 n=59 v=0
140760 On ch=9 n=62 v=0
141600 On ch=9 n=59 v=127
141600 On ch=9 n=62 v=127
141720 On ch=9 n=59 v=0
141720 On ch=9 n=62 v=0
142560 On ch=9 n=53 v=127
142560 On ch=9 n=56 v=127
142680 On ch=9 n=53 v=0
142680 On ch=9 n=56 v=0
144480 On ch=9 n=54 v=127
144480 On ch=9 n=59 v=127
144600 On ch=9 n=54 v=0
144600 On ch=9 n=59 v=0
146400 On ch=9 n=50 v=127
146400 On ch=9 n=55 v=127
146520 On ch=9 n=50 v=0
146520 On ch=9 n=55 v=0
147360 On ch=9 n=50 v=127
147360 On ch=9 n=54 v=127
147480 On ch=9 n=50 v=0
147480 On ch=9 n=54 v=0
148320 On ch=9 n=49 v=127
148320 On ch=9 n=54 v=127
148440 On ch=9 n=49 v=0
148440 On ch=9 n=54 v=0
149280 On ch=9 n=50 v=127
149280 On ch=9 n=54 v=127
149400 On ch=9 n=50 v=0
149400 On ch=9 n=54 v=0
150240 On ch=9 n=53 v=127
150240 On ch=9 n=56 v=127
150360 On ch=9 n=53 v=0
150360 On ch=9 n=56 v=0
152160 On ch=9 n=54 v=127
152160 On ch=9 n=59 v=127
152280 On ch=9 n=54 v=0
152280 On ch=9 n=59 v=0
154080 On ch=9 n=50 v=127
154080 On ch=9 n=55 v=127
154200 On ch=9 n=50 v=0
154200 On ch=9 n=55 v=0
155040 On ch=9 n=50 v=127
155040 On ch=9 n=54 v=127
155160 On ch=9 n=50 v=0
155160 On ch=9 n=54 v=0
156000 On ch=9 n=49 v=127
156000 On ch=9 n=54 v=127
156120 On ch=9 n=49 v=0
156120 On ch=9 n=54 v=0
156960 On ch=9 n=50 v=127
156960 On ch=9 n=54 v=127
157080 On ch=9 n=50 v=0
157080 On ch=9 n=54 v=0
157920 On ch=9 n=53 v=127
157920 On ch=9 n=56 v=127
158040 On ch=9 n=53 v=0
158040 On ch=9 n=56 v=0
159840 On ch=9 n=53 v=127
159840 On ch=9 n=56 v=127
159960 On ch=9 n=53 v=0
159960 On ch=9 n=56 v=0
161760 On ch=9 n=53 v=59
161760 On ch=9 n=56 v=59
161880 On ch=9 n=53 v=0
161880 On ch=9 n=56 v=0
162240 On ch=9 n=53 v=69
162240 On ch=9 n=56 v=69
162360 On ch=9 n=53 v=0
162360 On ch=9 n=56 v=0
162720 On ch=9 n=53 v=78
162720 On ch=9 n=56 v=78
162840 On ch=9 n=53 v=0
162840 On ch=9 n=56 v=0
163200 On ch=9 n=53 v=88
163200 On ch=9 n=56 v=88
163320 On ch=9 n=53 v=0
163320 On ch=9 n=56 v=0
163680 On ch=9 n=53 v=98
163680 On ch=9 n=56 v=98
163800 On ch=9 n=53 v=0
163800 On ch=9 n=56 v=0
164160 On ch=9 n=53 v=107
164160 On ch=9 n=56 v=107
164280 On ch=9 n=53 v=0
164280 On ch=9 n=56 v=0
164640 On ch=9 n=53 v=117
164640 On ch=9 n=56 v=117
164760 On ch=9 n=53 v=0
164760 On ch=9 n=56 v=0
168480 Par ch=9 c=11 v=100
169440 On ch=9 n=54 v=127
169440 On ch=9 n=59 v=127
169650 On ch=9 n=54 v=0
169650 On ch=9 n=59 v=0
169650 Meta TrkEnd
TrkEnd
MTrk
0 Meta 0x20 08
0 Meta TrkName "Trombone II"
0 Meta InstrName "Tromboni"
92640 On ch=9 n=59 v=65
92730 On ch=9 n=59 v=0
93120 On ch=9 n=57 v=70
93210 On ch=9 n=57 v=0
93600 On ch=9 n=55 v=75
93690 On ch=9 n=55 v=0
94080 On ch=9 n=54 v=80
94170 On ch=9 n=54 v=0
94560 On ch=9 n=52 v=85
94650 On ch=9 n=52 v=0
95040 On ch=9 n=50 v=90
95130 On ch=9 n=50 v=0
95520 On ch=9 n=49 v=95
95610 On ch=9 n=49 v=0
96000 On ch=9 n=47 v=127
96120 On ch=9 n=47 v=0
96480 On ch=9 n=54 v=127
96600 On ch=9 n=54 v=0
96960 On ch=9 n=47 v=127
97080 On ch=9 n=47 v=0
97440 On ch=9 n=54 v=127
97560 On ch=9 n=54 v=0
97920 On ch=9 n=47 v=127
98040 On ch=9 n=47 v=0
98400 On ch=9 n=54 v=127
98520 On ch=9 n=54 v=0
98880 On ch=9 n=47 v=127
99000 On ch=9 n=47 v=0
99360 On ch=9 n=54 v=127
99480 On ch=9 n=54 v=0
99840 On ch=9 n=47 v=127
99960 On ch=9 n=47 v=0
100320 On ch=9 n=54 v=127
100440 On ch=9 n=54 v=0
100800 On ch=9 n=47 v=127
100920 On ch=9 n=47 v=0
101280 On ch=9 n=54 v=127
101400 On ch=9 n=54 v=0
101760 On ch=9 n=50 v=127
101880 On ch=9 n=50 v=0
102240 On ch=9 n=54 v=127
102360 On ch=9 n=54 v=0
102720 On ch=9 n=50 v=127
102840 On ch=9 n=50 v=0
103200 On ch=9 n=54 v=127
103320 On ch=9 n=54 v=0
103680 On ch=9 n=47 v=127
103800 On ch=9 n=47 v=0
104160 On ch=9 n=54 v=127
104280 On ch=9 n=54 v=0
104640 On ch=9 n=47 v=127
104760 On ch=9 n=47 v=0
105120 On ch=9 n=54 v=127
105240 On ch=9 n=54 v=0
105600 On ch=9 n=47 v=127
105720 On ch=9 n=47 v=0
106080 On ch=9 n=54 v=127
106200 On ch=9 n=54 v=0
106560 On ch=9 n=47 v=127
106680 On ch=9 n=47 v=0
107040 On ch=9 n=54 v=127
107160 On ch=9 n=54 v=0
107520 On ch=9 n=47 v=127
107640 On ch=9 n=47 v=0
108000 On ch=9 n=54 v=127
108120 On ch=9 n=54 v=0
108480 On ch=9 n=47 v=127
108600 On ch=9 n=47 v=0
108960 On ch=9 n=54 v=127
109080 On ch=9 n=54 v=0
109440 On ch=9 n=50 v=127
109560 On ch=9 n=50 v=0
109920 On ch=9 n=54 v=127
110040 On ch=9 n=54 v=0
110400 On ch=9 n=50 v=127
110520 On ch=9 n=50 v=0
110880 On ch=9 n=54 v=127
111000 On ch=9 n=54 v=0
111360 On ch=9 n=54 v=127
111480 On ch=9 n=54 v=0
111840 On ch=9 n=58 v=127
111960 On ch=9 n=58 v=0
112320 On ch=9 n=54 v=127
112440 On ch=9 n=54 v=0
112800 On ch=9 n=58 v=127
112920 On ch=9 n=58 v=0
113280 On ch=9 n=50 v=127
113400 On ch=9 n=50 v=0
113760 On ch=9 n=58 v=127
113880 On ch=9 n=58 v=0
114240 On ch=9 n=54 v=127
114360 On ch=9 n=54 v=0
114720 On ch=9 n=58 v=127
114840 On ch=9 n=58 v=0
115200 On ch=9 n=54 v=127
115320 On ch=9 n=54 v=0
115680 On ch=9 n=58 v=127
115800 On ch=9 n=58 v=0
116160 On ch=9 n=54 v=127
116280 On ch=9 n=54 v=0
116640 On ch=9 n=58 v=127
116760 On ch=9 n=58 v=0
117120 On ch=9 n=50 v=127
117240 On ch=9 n=50 v=0
117600 On ch=9 n=58 v=127
117720 On ch=9 n=58 v=0
118080 On ch=9 n=54 v=127
118200 On ch=9 n=54 v=0
118560 On ch=9 n=58 v=127
118680 On ch=9 n=58 v=0
119040 On ch=9 n=54 v=127
119160 On ch=9 n=54 v=0
119520 On ch=9 n=58 v=127
119640 On ch=9 n=58 v=0
120000 On ch=9 n=54 v=127
120120 On ch=9 n=54 v=0
120480 On ch=9 n=58 v=127
120600 On ch=9 n=58 v=0
120960 On ch=9 n=51 v=127
121080 On ch=9 n=51 v=0
121440 On ch=9 n=58 v=127
121560 On ch=9 n=58 v=0
121920 On ch=9 n=54 v=127
122040 On ch=9 n=54 v=0
122400 On ch=9 n=58 v=127
122520 On ch=9 n=58 v=0
122880 On ch=9 n=54 v=127
123000 On ch=9 n=54 v=0
123360 On ch=9 n=58 v=127
123480 On ch=9 n=58 v=0
123840 On ch=9 n=54 v=127
123960 On ch=9 n=54 v=0
124320 On ch=9 n=58 v=127
124440 On ch=9 n=58 v=0
124800 On ch=9 n=51 v=127
124920 On ch=9 n=51 v=0
125280 On ch=9 n=58 v=127
125400 On ch=9 n=58 v=0
125760 On ch=9 n=54 v=127
125880 On ch=9 n=54 v=0
126240 On ch=9 n=58 v=127
126360 On ch=9 n=58 v=0
126720 On ch=9 n=47 v=127
126840 On ch=9 n=47 v=0
127200 On ch=9 n=54 v=127
127320 On ch=9 n=54 v=0
127680 On ch=9 n=47 v=127
127800 On ch=9 n=47 v=0
128160 On ch=9 n=54 v=127
128280 On ch=9 n=54 v=0
128640 On ch=9 n=47 v=127
128760 On ch=9 n=47 v=0
129120 On ch=9 n=54 v=127
129240 On ch=9 n=54 v=0
129600 On ch=9 n=47 v=127
129720 On ch=9 n=47 v=0
130080 On ch=9 n=54 v=127
130200 On ch=9 n=54 v=0
130560 On ch=9 n=47 v=127
130680 On ch=9 n=47 v=0
131040 On ch=9 n=54 v=127
131160 On ch=9 n=54 v=0
131520 On ch=9 n=47 v=127
131640 On ch=9 n=47 v=0
132000 On ch=9 n=54 v=127
132120 On ch=9 n=54 v=0
132480 On ch=9 n=50 v=127
132600 On ch=9 n=50 v=0
132960 On ch=9 n=54 v=127
133080 On ch=9 n=54 v=0
133440 On ch=9 n=50 v=127
133560 On ch=9 n=50 v=0
133920 On ch=9 n=54 v=127
134040 On ch=9 n=54 v=0
134400 On ch=9 n=47 v=127
134520 On ch=9 n=47 v=0
134880 On ch=9 n=54 v=127
135000 On ch=9 n=54 v=0
135360 On ch=9 n=47 v=127
135480 On ch=9 n=47 v=0
135840 On ch=9 n=54 v=127
135960 On ch=9 n=54 v=0
136320 On ch=9 n=47 v=127
136440 On ch=9 n=47 v=0
136800 On ch=9 n=54 v=127
136920 On ch=9 n=54 v=0
137280 On ch=9 n=47 v=127
137400 On ch=9 n=47 v=0
137760 On ch=9 n=54 v=127
137880 On ch=9 n=54 v=0
138240 On ch=9 n=47 v=127
138360 On ch=9 n=47 v=0
138720 On ch=9 n=54 v=127
138840 On ch=9 n=54 v=0
139200 On ch=9 n=47 v=127
139320 On ch=9 n=47 v=0
139680 On ch=9 n=54 v=127
139800 On ch=9 n=54 v=0
140160 On ch=9 n=47 v=127
140280 On ch=9 n=47 v=0
140640 On ch=9 n=54 v=127
140760 On ch=9 n=54 v=0
141120 On ch=9 n=47 v=127
141240 On ch=9 n=47 v=0
141600 On ch=9 n=54 v=127
141720 On ch=9 n=54 v=0
142560 On ch=9 n=50 v=127
142680 On ch=9 n=50 v=0
144480 On ch=9 n=50 v=127
144600 On ch=9 n=50 v=0
145920 On ch=9 n=55 v=127
146410 On ch=9 n=55 v=0
146880 On ch=9 n=54 v=127
147370 On ch=9 n=54 v=0
147840 On ch=9 n=42 v=127
148530 On ch=9 n=42 v=0
148800 On ch=9 n=47 v=127
149490 On ch=9 n=47 v=0
150240 On ch=9 n=50 v=127
150360 On ch=9 n=50 v=0
152160 On ch=9 n=50 v=127
152280 On ch=9 n=50 v=0
153600 On ch=9 n=55 v=127
154090 On ch=9 n=55 v=0
154560 On ch=9 n=54 v=127
155050 On ch=9 n=54 v=0
155520 On ch=9 n=42 v=127
156210 On ch=9 n=42 v=0
156480 On ch=9 n=47 v=127
157170 On ch=9 n=47 v=0
157920 On ch=9 n=50 v=127
158040 On ch=9 n=50 v=0
159840 On ch=9 n=50 v=127
159960 On ch=9 n=50 v=0
161760 On ch=9 n=50 v=70
161880 On ch=9 n=50 v=0
162240 On ch=9 n=50 v=80
162360 On ch=9 n=50 v=0
162720 On ch=9 n=50 v=90
162840 On ch=9 n=50 v=0
163200 On ch=9 n=50 v=100
163320 On ch=9 n=50 v=0
163680 On ch=9 n=50 v=110
163800 On ch=9 n=50 v=0
164160 On ch=9 n=50 v=120
164280 On ch=9 n=50 v=0
164640 On ch=9 n=50 v=127
164760 On ch=9 n=50 v=0
168480 Par ch=9 c=11 v=100
168960 On ch=9 n=47 v=127
169080 On ch=9 n=47 v=0
169440 On ch=9 n=50 v=127
169650 On ch=9 n=50 v=0
169650 Meta TrkEnd
TrkEnd
MTrk
0 Meta 0x20 10
0 Meta TrkName "Tuba    "
0 Meta InstrName "Tuba    "
92640 On ch=11 n=47 v=65
92730 On ch=11 n=47 v=0
93120 On ch=11 n=45 v=70
93210 On ch=11 n=45 v=0
93600 On ch=11 n=43 v=75
93690 On ch=11 n=43 v=0
94080 On ch=11 n=42 v=80
94170 On ch=11 n=42 v=0
94560 On ch=11 n=40 v=85
94650 On ch=11 n=40 v=0
95040 On ch=11 n=38 v=90
95130 On ch=11 n=38 v=0
95520 On ch=11 n=37 v=95
95610 On ch=11 n=37 v=0
96000 On ch=11 n=35 v=127
96120 On ch=11 n=35 v=0
96960 On ch=11 n=35 v=127
97080 On ch=11 n=35 v=0
97920 On ch=11 n=35 v=127
98040 On ch=11 n=35 v=0
98880 On ch=11 n=35 v=127
99000 On ch=11 n=35 v=0
99840 On ch=11 n=35 v=127
99960 On ch=11 n=35 v=0
100800 On ch=11 n=35 v=127
100920 On ch=11 n=35 v=0
101760 On ch=11 n=38 v=127
101880 On ch=11 n=38 v=0
102720 On ch=11 n=38 v=127
102840 On ch=11 n=38 v=0
103680 On ch=11 n=35 v=127
103800 On ch=11 n=35 v=0
104640 On ch=11 n=35 v=127
104760 On ch=11 n=35 v=0
105600 On ch=11 n=35 v=127
105720 On ch=11 n=35 v=0
106560 On ch=11 n=35 v=127
106680 On ch=11 n=35 v=0
107520 On ch=11 n=35 v=127
107640 On ch=11 n=35 v=0
108480 On ch=11 n=35 v=127
108600 On ch=11 n=35 v=0
109440 On ch=11 n=38 v=127
109560 On ch=11 n=38 v=0
110400 On ch=11 n=38 v=127
110520 On ch=11 n=38 v=0
111360 On ch=11 n=42 v=127
111480 On ch=11 n=42 v=0
112320 On ch=11 n=42 v=127
112440 On ch=11 n=42 v=0
113280 On ch=11 n=38 v=127
113400 On ch=11 n=38 v=0
114240 On ch=11 n=42 v=127
114360 On ch=11 n=42 v=0
115200 On ch=11 n=42 v=127
115320 On ch=11 n=42 v=0
116160 On ch=11 n=42 v=127
116280 On ch=11 n=42 v=0
117120 On ch=11 n=38 v=127
117240 On ch=11 n=38 v=0
118080 On ch=11 n=42 v=127
118200 On ch=11 n=42 v=0
119040 On ch=11 n=42 v=127
119160 On ch=11 n=42 v=0
120000 On ch=11 n=42 v=127
120120 On ch=11 n=42 v=0
120960 On ch=11 n=39 v=127
121080 On ch=11 n=39 v=0
121920 On ch=11 n=42 v=127
122040 On ch=11 n=42 v=0
122880 On ch=11 n=42 v=127
123000 On ch=11 n=42 v=0
123840 On ch=11 n=42 v=127
123960 On ch=11 n=42 v=0
124800 On ch=11 n=39 v=127
124920 On ch=11 n=39 v=0
125760 On ch=11 n=42 v=127
125880 On ch=11 n=42 v=0
126720 On ch=11 n=35 v=127
127170 On ch=11 n=35 v=0
127680 On ch=11 n=35 v=127
128130 On ch=11 n=35 v=0
128640 On ch=11 n=35 v=127
129090 On ch=11 n=35 v=0
129600 On ch=11 n=35 v=127
130050 On ch=11 n=35 v=0
130560 On ch=11 n=35 v=127
131010 On ch=11 n=35 v=0
131520 On ch=11 n=35 v=127
131970 On ch=11 n=35 v=0
132480 On ch=11 n=38 v=127
132930 On ch=11 n=38 v=0
133440 On ch=11 n=38 v=127
133890 On ch=11 n=38 v=0
134400 On ch=11 n=35 v=127
134850 On ch=11 n=35 v=0
135360 On ch=11 n=35 v=127
135810 On ch=11 n=35 v=0
136320 On ch=11 n=35 v=127
136770 On ch=11 n=35 v=0
137280 On ch=11 n=35 v=127
137730 On ch=11 n=35 v=0
138240 On ch=11 n=35 v=127
138690 On ch=11 n=35 v=0
139200 On ch=11 n=35 v=127
139650 On ch=11 n=35 v=0
140160 On ch=11 n=35 v=127
140610 On ch=11 n=35 v=0
141120 On ch=11 n=35 v=127
141570 On ch=11 n=35 v=0
142080 On ch=11 n=35 v=127
142530 On ch=11 n=35 v=0
144000 On ch=11 n=35 v=127
144450 On ch=11 n=35 v=0
145920 On ch=11 n=43 v=127
146610 On ch=11 n=43 v=0
146880 On ch=11 n=42 v=127
147570 On ch=11 n=42 v=0
147840 On ch=11 n=30 v=127
148530 On ch=11 n=30 v=0
148800 On ch=11 n=35 v=127
149490 On ch=11 n=35 v=0
149760 On ch=11 n=35 v=127
150210 On ch=11 n=35 v=0
151680 On ch=11 n=35 v=127
152130 On ch=11 n=35 v=0
153600 On ch=11 n=43 v=127
154290 On ch=11 n=43 v=0
154560 On ch=11 n=42 v=127
155250 On ch=11 n=42 v=0
155520 On ch=11 n=30 v=127
156210 On ch=11 n=30 v=0
156480 On ch=11 n=35 v=127
157170 On ch=11 n=35 v=0
157440 On ch=11 n=35 v=127
157560 On ch=11 n=35 v=0
159360 On ch=11 n=35 v=127
159480 On ch=11 n=35 v=0
161280 On ch=11 n=35 v=127
161400 On ch=11 n=35 v=0
168480 Par ch=11 c=11 v=100
168960 On ch=11 n=35 v=127
169080 On ch=11 n=35 v=0
169440 On ch=11 n=47 v=127
169650 On ch=11 n=47 v=0
169650 Meta TrkEnd
TrkEnd
MTrk
0 Meta 0x20 09
0 Meta TrkName "Bass Drum"
0 Meta InstrName "Gran Cassa / Piatti"
3837 On ch=10 n=36 v=26
4317 On ch=10 n=36 v=0
7677 On ch=10 n=36 v=26
8157 On ch=10 n=36 v=0
11517 On ch=10 n=36 v=26
11997 On ch=10 n=36 v=0
15357 On ch=10 n=36 v=26
15837 On ch=10 n=36 v=0
19197 On ch=10 n=36 v=26
19677 On ch=10 n=36 v=0
23037 On ch=10 n=36 v=26
23517 On ch=10 n=36 v=0
26877 On ch=10 n=36 v=26
27357 On ch=10 n=36 v=0
30717 On ch=10 n=36 v=26
31197 On ch=10 n=36 v=0
34557 On ch=10 n=36 v=26
35037 On ch=10 n=36 v=0
38397 On ch=10 n=36 v=26
38877 On ch=10 n=36 v=0
42237 On ch=10 n=36 v=26
42717 On ch=10 n=36 v=0
46077 On ch=10 n=36 v=26
46557 On ch=10 n=36 v=0
49917 On ch=10 n=36 v=41
50397 On ch=10 n=36 v=0
53757 On ch=10 n=36 v=41
54237 On ch=10 n=36 v=0
57597 On ch=10 n=36 v=41
58077 On ch=10 n=36 v=0
61437 On ch=10 n=36 v=41
61917 On ch=10 n=36 v=0
65277 On ch=10 n=36 v=40
65757 On ch=10 n=36 v=0
69117 On ch=10 n=36 v=42
69597 On ch=10 n=36 v=0
72957 On ch=10 n=36 v=45
73437 On ch=10 n=36 v=0
76797 On ch=10 n=36 v=48
77277 On ch=10 n=36 v=0
80637 On ch=10 n=36 v=50
81117 On ch=10 n=36 v=0
84477 On ch=10 n=36 v=53
84957 On ch=10 n=36 v=0
88317 On ch=10 n=36 v=56
88797 On ch=10 n=36 v=0
92157 On ch=10 n=36 v=58
92637 On ch=10 n=36 v=0
95997 On ch=10 n=36 v=70
96447 On ch=10 n=36 v=0
96957 On ch=10 n=36 v=70
97407 On ch=10 n=36 v=0
97917 On ch=10 n=36 v=70
98367 On ch=10 n=36 v=0
98877 On ch=10 n=36 v=70
99327 On ch=10 n=36 v=0
99837 On ch=10 n=36 v=70
100287 On ch=10 n=36 v=0
100797 On ch=10 n=36 v=70
101247 On ch=10 n=36 v=0
101757 On ch=10 n=36 v=70
102207 On ch=10 n=36 v=0
102717 On ch=10 n=36 v=70
103167 On ch=10 n=36 v=0
103677 On ch=10 n=36 v=70
104127 On ch=10 n=36 v=0
104637 On ch=10 n=36 v=70
105087 On ch=10 n=36 v=0
105597 On ch=10 n=36 v=70
106047 On ch=10 n=36 v=0
106557 On ch=10 n=36 v=70
107007 On ch=10 n=36 v=0
107517 On ch=10 n=36 v=70
107967 On ch=10 n=36 v=0
108477 On ch=10 n=36 v=70
108927 On ch=10 n=36 v=0
109437 On ch=10 n=36 v=70
109887 On ch=10 n=36 v=0
110397 On ch=10 n=36 v=70
110847 On ch=10 n=36 v=0
111357 On ch=10 n=36 v=70
111807 On ch=10 n=36 v=0
112317 On ch=10 n=36 v=70
112767 On ch=10 n=36 v=0
113277 On ch=10 n=36 v=70
113727 On ch=10 n=36 v=0
114237 On ch=10 n=36 v=70
114687 On ch=10 n=36 v=0
115197 On ch=10 n=36 v=70
115647 On ch=10 n=36 v=0
116157 On ch=10 n=36 v=70
116607 On ch=10 n=36 v=0
117117 On ch=10 n=36 v=70
117567 On ch=10 n=36 v=0
118077 On ch=10 n=36 v=70
118527 On ch=10 n=36 v=0
119037 On ch=10 n=36 v=70
119487 On ch=10 n=36 v=0
119997 On ch=10 n=36 v=70
120447 On ch=10 n=36 v=0
120957 On ch=10 n=36 v=70
121407 On ch=10 n=36 v=0
121917 On ch=10 n=36 v=70
122367 On ch=10 n=36 v=0
122877 On ch=10 n=36 v=70
123327 On ch=10 n=36 v=0
123837 On ch=10 n=36 v=70
124287 On ch=10 n=36 v=0
124797 On ch=10 n=36 v=70
125247 On ch=10 n=36 v=0
125757 On ch=10 n=36 v=70
126207 On ch=10 n=36 v=0
126717 On ch=10 n=36 v=75
127167 On ch=10 n=36 v=0
127677 On ch=10 n=36 v=75
128127 On ch=10 n=36 v=0
128637 On ch=10 n=36 v=75
129087 On ch=10 n=36 v=0
129597 On ch=10 n=36 v=75
130047 On ch=10 n=36 v=0
130557 On ch=10 n=36 v=75
131007 On ch=10 n=36 v=0
131517 On ch=10 n=36 v=75
131967 On ch=10 n=36 v=0
132477 On ch=10 n=36 v=75
132927 On ch=10 n=36 v=0
133437 On ch=10 n=36 v=75
133887 On ch=10 n=36 v=0
134397 On ch=10 n=36 v=75
134847 On ch=10 n=36 v=0
135357 On ch=10 n=36 v=75
135807 On ch=10 n=36 v=0
136317 On ch=10 n=36 v=75
136767 On ch=10 n=36 v=0
137277 On ch=10 n=36 v=75
137727 On ch=10 n=36 v=0
138237 On ch=10 n=36 v=75
138687 On ch=10 n=36 v=0
139197 On ch=10 n=36 v=75
139647 On ch=10 n=36 v=0
140157 On ch=10 n=36 v=75
140607 On ch=10 n=36 v=0
141117 On ch=10 n=36 v=75
141567 On ch=10 n=36 v=0
142077 On ch=10 n=36 v=80
142527 On ch=10 n=36 v=0
143997 On ch=10 n=36 v=80
144447 On ch=10 n=36 v=0
149757 On ch=10 n=36 v=80
150207 On ch=10 n=36 v=0
151677 On ch=10 n=36 v=80
152127 On ch=10 n=36 v=0
157437 On ch=10 n=36 v=80
157887 On ch=10 n=36 v=0
159357 On ch=10 n=36 v=80
159807 On ch=10 n=36 v=0
161277 On ch=10 n=36 v=80
161727 On ch=10 n=36 v=0
168957 On ch=10 n=36 v=105
169407 On ch=10 n=36 v=0
169407 Meta TrkEnd
TrkEnd
MTrk
0 Meta 0x20 09
0 Meta TrkName "Cymbal  "
0 Meta InstrName "Gran Cassa / Piatti"
96477 On ch=10 n=59 v=70
96927 On ch=10 n=59 v=0
97437 On ch=10 n=59 v=70
97887 On ch=10 n=59 v=0
98397 On ch=10 n=59 v=70
98847 On ch=10 n=59 v=0
99357 On ch=10 n=59 v=70
99807 On ch=10 n=59 v=0
100317 On ch=10 n=59 v=70
100767 On ch=10 n=59 v=0
101277 On ch=10 n=59 v=70
101727 On ch=10 n=59 v=0
102237 On ch=10 n=59 v=70
102687 On ch=10 n=59 v=0
103197 On ch=10 n=59 v=70
103647 On ch=10 n=59 v=0
104157 On ch=10 n=59 v=70
104607 On ch=10 n=59 v=0
105117 On ch=10 n=59 v=70
105567 On ch=10 n=59 v=0
106077 On ch=10 n=59 v=70
106527 On ch=10 n=59 v=0
107037 On ch=10 n=59 v=70
107487 On ch=10 n=59 v=0
107997 On ch=10 n=59 v=70
108447 On ch=10 n=59 v=0
108957 On ch=10 n=59 v=70
109407 On ch=10 n=59 v=0
109917 On ch=10 n=59 v=70
110367 On ch=10 n=59 v=0
110877 On ch=10 n=59 v=70
111327 On ch=10 n=59 v=0
111837 On ch=10 n=59 v=70
112287 On ch=10 n=59 v=0
112797 On ch=10 n=59 v=70
113247 On ch=10 n=59 v=0
113757 On ch=10 n=59 v=70
114207 On ch=10 n=59 v=0
114717 On ch=10 n=59 v=70
115167 On ch=10 n=59 v=0
115677 On ch=10 n=59 v=70
116127 On ch=10 n=59 v=0
116637 On ch=10 n=59 v=70
117087 On ch=10 n=59 v=0
117597 On ch=10 n=59 v=70
118047 On ch=10 n=59 v=0
118557 On ch=10 n=59 v=70
119007 On ch=10 n=59 v=0
119517 On ch=10 n=59 v=70
119967 On ch=10 n=59 v=0
120477 On ch=10 n=59 v=70
120927 On ch=10 n=59 v=0
121437 On ch=10 n=59 v=70
121887 On ch=10 n=59 v=0
122397 On ch=10 n=59 v=70
122847 On ch=10 n=59 v=0
123357 On ch=10 n=59 v=70
123807 On ch=10 n=59 v=0
124317 On ch=10 n=59 v=70
124767 On ch=10 n=59 v=0
125277 On ch=10 n=59 v=70
125727 On ch=10 n=59 v=0
126237 On ch=10 n=59 v=70
126687 On ch=10 n=59 v=0
127197 On ch=10 n=59 v=70
127647 On ch=10 n=59 v=0
128157 On ch=10 n=59 v=70
128607 On ch=10 n=59 v=0
129117 On ch=10 n=59 v=70
129567 On ch=10 n=59 v=0
130077 On ch=10 n=59 v=70
130527 On ch=10 n=59 v=0
131037 On ch=10 n=59 v=70
131487 On ch=10 n=59 v=0
131997 On ch=10 n=59 v=70
132447 On ch=10 n=59 v=0
132957 On ch=10 n=59 v=70
133407 On ch=10 n=59 v=0
133917 On ch=10 n=59 v=70
134367 On ch=10 n=59 v=0
134877 On ch=10 n=59 v=70
135327 On ch=10 n=59 v=0
135837 On ch=10 n=59 v=70
136287 On ch=10 n=59 v=0
136797 On ch=10 n=59 v=70
137247 On ch=10 n=59 v=0
137757 On ch=10 n=59 v=70
138207 On ch=10 n=59 v=0
138717 On ch=10 n=59 v=70
139167 On ch=10 n=59 v=0
139677 On ch=10 n=59 v=70
140127 On ch=10 n=59 v=0
140637 On ch=10 n=59 v=70
141087 On ch=10 n=59 v=0
141597 On ch=10 n=59 v=70
142047 On ch=10 n=59 v=0
142557 On ch=10 n=59 v=90
143007 On ch=10 n=59 v=0
144477 On ch=10 n=59 v=90
144927 On ch=10 n=59 v=0
150237 On ch=10 n=59 v=90
150687 On ch=10 n=59 v=0
152157 On ch=10 n=59 v=90
152607 On ch=10 n=59 v=0
157917 On ch=10 n=59 v=90
158367 On ch=10 n=59 v=0
159837 On ch=10 n=59 v=90
160287 On ch=10 n=59 v=0
161757 On ch=10 n=59 v=48
162207 On ch=10 n=59 v=0
162237 On ch=10 n=59 v=56
162687 On ch=10 n=59 v=0
162717 On ch=10 n=59 v=64
163167 On ch=10 n=59 v=0
163197 On ch=10 n=59 v=72
163647 On ch=10 n=59 v=0
163677 On ch=10 n=59 v=80
164127 On ch=10 n=59 v=0
164157 On ch=10 n=59 v=88
164607 On ch=10 n=59 v=0
164637 On ch=10 n=59 v=96
165087 On ch=10 n=59 v=0
169437 On ch=10 n=59 v=110
169887 On ch=10 n=59 v=0
169887 Meta TrkEnd
TrkEnd
MTrk
0 Meta 0x20 11
0 Meta TrkName "Violin I"
0 Meta InstrName "Violini I"
49920 On ch=12 n=71 v=55
50130 On ch=12 n=71 v=0
50160 On ch=12 n=73 v=55
50370 On ch=12 n=73 v=0
50400 On ch=12 n=74 v=55
50610 On ch=12 n=74 v=0
50640 On ch=12 n=76 v=55
50850 On ch=12 n=76 v=0
50880 On ch=12 n=78 v=70
51090 On ch=12 n=78 v=0
51120 On ch=12 n=74 v=55
51330 On ch=12 n=74 v=0
51360 On ch=12 n=78 v=55
51810 On ch=12 n=78 v=0
51840 On ch=12 n=77 v=70
52050 On ch=12 n=77 v=0
52080 On ch=12 n=73 v=55
52290 On ch=12 n=73 v=0
52320 On ch=12 n=77 v=55
52770 On ch=12 n=77 v=0
52800 On ch=12 n=76 v=70
53010 On ch=12 n=76 v=0
53040 On ch=12 n=72 v=55
53250 On ch=12 n=72 v=0
53280 On ch=12 n=76 v=55
53730 On ch=12 n=76 v=0
53760 On ch=12 n=71 v=55
53970 On ch=12 n=71 v=0
54000 On ch=12 n=73 v=55
54210 On ch=12 n=73 v=0
54240 On ch=12 n=74 v=55
54450 On ch=12 n=74 v=0
54480 On ch=12 n=76 v=55
54690 On ch=12 n=76 v=0
54720 On ch=12 n=78 v=55
54930 On ch=12 n=78 v=0
54960 On ch=12 n=74 v=55
55170 On ch=12 n=74 v=0
55200 On ch=12 n=78 v=55
55410 On ch=12 n=78 v=0
55440 On ch=12 n=83 v=55
55650 On ch=12 n=83 v=0
55680 On ch=12 n=81 v=70
55890 On ch=12 n=81 v=0
55920 On ch=12 n=78 v=55
56130 On ch=12 n=78 v=0
56160 On ch=12 n=74 v=55
56370 On ch=12 n=74 v=0
56400 On ch=12 n=78 v=55
56610 On ch=12 n=78 v=0
56640 On ch=12 n=81 v=55
57090 On ch=12 n=81 v=0
58080 On ch=12 n=74 v=55
58080 On ch=12 n=78 v=55
58530 On ch=12 n=74 v=0
58530 On ch=12 n=78 v=0
59040 On ch=12 n=74 v=55
59040 On ch=12 n=78 v=55
59490 On ch=12 n=74 v=0
59490 On ch=12 n=78 v=0
60000 On ch=12 n=73 v=55
60000 On ch=12 n=77 v=55
60450 On ch=12 n=73 v=0
60450 On ch=12 n=77 v=0
60960 On ch=12 n=72 v=55
60960 On ch=12 n=76 v=55
61410 On ch=12 n=72 v=0
61410 On ch=12 n=76 v=0
61920 On ch=12 n=71 v=55
61920 On ch=12 n=74 v=55
62370 On ch=12 n=71 v=0
62370 On ch=12 n=74 v=0
62880 On ch=12 n=71 v=55
62880 On ch=12 n=74 v=55
63330 On ch=12 n=71 v=0
63330 On ch=12 n=74 v=0
63840 On ch=12 n=69 v=55
63840 On ch=12 n=74 v=55
64290 On ch=12 n=69 v=0
64290 On ch=12 n=74 v=0
64800 On ch=12 n=69 v=55
64800 On ch=12 n=74 v=55
65250 On ch=12 n=69 v=0
65250 On ch=12 n=74 v=0
65280 On ch=12 n=78 v=55
65490 On ch=12 n=78 v=0
65520 On ch=12 n=80 v=55
65730 On ch=12 n=80 v=0
65760 On ch=12 n=82 v=55
65970 On ch=12 n=82 v=0
66000 On ch=12 n=83 v=55
66210 On ch=12 n=83 v=0
66240 On ch=12 n=85 v=56
66450 On ch=12 n=85 v=0
66480 On ch=12 n=82 v=56
66690 On ch=12 n=82 v=0
66720 On ch=12 n=85 v=56
67170 On ch=12 n=85 v=0
67200 On ch=12 n=86 v=57
67410 On ch=12 n=86 v=0
67440 On ch=12 n=82 v=57
67650 On ch=12 n=82 v=0
67680 On ch=12 n=86 v=57
68130 On ch=12 n=86 v=0
68160 On ch=12 n=85 v=58
68370 On ch=12 n=85 v=0
68400 On ch=12 n=82 v=58
68610 On ch=12 n=82 v=0
68640 On ch=12 n=85 v=58
69090 On ch=12 n=85 v=0
69120 On ch=12 n=78 v=59
69330 On ch=12 n=78 v=0
69360 On ch=12 n=80 v=59
69570 On ch=12 n=80 v=0
69600 On ch=12 n=82 v=59
69810 On ch=12 n=82 v=0
69840 On ch=12 n=83 v=60
70050 On ch=12 n=83 v=0
70080 On ch=12 n=85 v=60
70290 On ch=12 n=85 v=0
70320 On ch=12 n=82 v=60
70530 On ch=12 n=82 v=0
70560 On ch=12 n=85 v=60
71010 On ch=12 n=85 v=0
71040 On ch=12 n=86 v=61
71250 On ch=12 n=86 v=0
71280 On ch=12 n=82 v=61
71490 On ch=12 n=82 v=0
71520 On ch=12 n=86 v=61
71970 On ch=12 n=86 v=0
72000 On ch=12 n=85 v=62
72450 On ch=12 n=85 v=0
73440 On ch=12 n=70 v=64
73440 On ch=12 n=73 v=64
73890 On ch=12 n=70 v=0
73890 On ch=12 n=73 v=0
74400 On ch=12 n=70 v=65
74400 On ch=12 n=73 v=65
74850 On ch=12 n=70 v=0
74850 On ch=12 n=73 v=0
75360 On ch=12 n=70 v=66
75360 On ch=12 n=74 v=66
75810 On ch=12 n=70 v=0
75810 On ch=12 n=74 v=0
76320 On ch=12 n=70 v=67
76320 On ch=12 n=73 v=67
76770 On ch=12 n=70 v=0
76770 On ch=12 n=73 v=0
77280 On ch=12 n=70 v=68
77280 On ch=12 n=73 v=68
77730 On ch=12 n=70 v=0
77730 On ch=12 n=73 v=0
78240 On ch=12 n=70 v=69
78240 On ch=12 n=73 v=69
78690 On ch=12 n=70 v=0
78690 On ch=12 n=73 v=0
79200 On ch=12 n=70 v=70
79200 On ch=12 n=74 v=70
79650 On ch=12 n=70 v=0
79650 On ch=12 n=74 v=0
80160 On ch=12 n=70 v=71
80160 On ch=12 n=73 v=71
80610 On ch=12 n=70 v=0
80610 On ch=12 n=73 v=0
80640 On ch=12 n=71 v=72
80850 On ch=12 n=71 v=0
80880 On ch=12 n=73 v=72
81090 On ch=12 n=73 v=0
81120 On ch=12 n=74 v=72
81330 On ch=12 n=74 v=0
81360 On ch=12 n=76 v=72
81570 On ch=12 n=76 v=0
81600 On ch=12 n=78 v=73
81810 On ch=12 n=78 v=0
81840 On ch=12 n=74 v=73
82050 On ch=12 n=74 v=0
82080 On ch=12 n=78 v=73
82530 On ch=12 n=78 v=0
82560 On ch=12 n=77 v=74
82770 On ch=12 n=77 v=0
82800 On ch=12 n=73 v=74
83010 On ch=12 n=73 v=0
83040 On ch=12 n=77 v=74
83490 On ch=12 n=77 v=0
83520 On ch=12 n=76 v=75
83730 On ch=12 n=76 v=0
83760 On ch=12 n=72 v=75
83970 On ch=12 n=72 v=0
84000 On ch=12 n=76 v=75
84450 On ch=12 n=76 v=0
84480 On ch=12 n=71 v=76
84690 On ch=12 n=71 v=0
84720 On ch=12 n=73 v=76
84930 On ch=12 n=73 v=0
84960 On ch=12 n=74 v=76
85170 On ch=12 n=74 v=0
85200 On ch=12 n=76 v=77
85410 On ch=12 n=76 v=0
85440 On ch=12 n=78 v=77
85650 On ch=12 n=78 v=0
85680 On ch=12 n=74 v=77
85890 On ch=12 n=74 v=0
85920 On ch=12 n=78 v=78
86130 On ch=12 n=78 v=0
86160 On ch=12 n=83 v=78
86370 On ch=12 n=83 v=0
86400 On ch=12 n=81 v=78
86610 On ch=12 n=81 v=0
86640 On ch=12 n=78 v=78
86850 On ch=12 n=78 v=0
86880 On ch=12 n=74 v=79
87090 On ch=12 n=74 v=0
87120 On ch=12 n=78 v=79
87330 On ch=12 n=78 v=0
87360 On ch=12 n=81 v=79
87810 On ch=12 n=81 v=0
88800 On ch=12 n=78 v=76
88896 On ch=12 n=79 v=76
88905 On ch=12 n=78 v=0
88992 On ch=12 n=78 v=76
89001 On ch=12 n=79 v=0
89088 On ch=12 n=77 v=76
89097 On ch=12 n=78 v=0
89184 On ch=12 n=78 v=76
89193 On ch=12 n=77 v=0
89289 On ch=12 n=78 v=0
89760 On ch=12 n=78 v=77
89856 On ch=12 n=79 v=77
89865 On ch=12 n=78 v=0
89952 On ch=12 n=78 v=77
89961 On ch=12 n=79 v=0
90048 On ch=12 n=77 v=77
90057 On ch=12 n=78 v=0
90144 On ch=12 n=78 v=77
90153 On ch=12 n=77 v=0
90249 On ch=12 n=78 v=0
90720 On ch=12 n=78 v=78
90816 On ch=12 n=79 v=78
90825 On ch=12 n=78 v=0
90912 On ch=12 n=78 v=78
90921 On ch=12 n=79 v=0
91008 On ch=12 n=77 v=78
91017 On ch=12 n=78 v=0
91104 On ch=12 n=78 v=78
91113 On ch=12 n=77 v=0
91209 On ch=12 n=78 v=0
91680 On ch=12 n=78 v=79
91776 On ch=12 n=79 v=79
91785 On ch=12 n=78 v=0
91872 On ch=12 n=78 v=79
91881 On ch=12 n=79 v=0
91968 On ch=12 n=77 v=79
91977 On ch=12 n=78 v=0
92064 On ch=12 n=78 v=79
92073 On ch=12 n=77 v=0
92169 On ch=12 n=78 v=0
92640 On ch=12 n=78 v=85
92736 On ch=12 n=79 v=87
92745 On ch=12 n=78 v=0
92832 On ch=12 n=78 v=88
92841 On ch=12 n=79 v=0
92928 On ch=12 n=77 v=89
92937 On ch=12 n=78 v=0
93024 On ch=12 n=78 v=90
93033 On ch=12 n=77 v=0
93114 On ch=12 n=78 v=0
93120 On ch=12 n=78 v=91
93216 On ch=12 n=79 v=92
93225 On ch=12 n=78 v=0
93312 On ch=12 n=78 v=94
93321 On ch=12 n=79 v=0
93408 On ch=12 n=77 v=95
93417 On ch=12 n=78 v=0
93504 On ch=12 n=78 v=96
93513 On ch=12 n=77 v=0
93594 On ch=12 n=78 v=0
93600 On ch=12 n=78 v=97
93696 On ch=12 n=79 v=98
93705 On ch=12 n=78 v=0
93792 On ch=12 n=78 v=99
93801 On ch=12 n=79 v=0
93888 On ch=12 n=77 v=101
93897 On ch=12 n=78 v=0
93984 On ch=12 n=78 v=102
93993 On ch=12 n=77 v=0
94074 On ch=12 n=78 v=0
94080 On ch=12 n=78 v=103
94176 On ch=12 n=79 v=104
94185 On ch=12 n=78 v=0
94272 On ch=12 n=78 v=105
94281 On ch=12 n=79 v=0
94368 On ch=12 n=77 v=107
94377 On ch=12 n=78 v=0
94464 On ch=12 n=78 v=108
94473 On ch=12 n=77 v=0
94554 On ch=12 n=78 v=0
94560 On ch=12 n=78 v=109
94656 On ch=12 n=79 v=110
94665 On ch=12 n=78 v=0
94752 On ch=12 n=78 v=111
94761 On ch=12 n=79 v=0
94848 On ch=12 n=77 v=112
94857 On ch=12 n=78 v=0
94944 On ch=12 n=78 v=114
94953 On ch=12 n=77 v=0
95034 On ch=12 n=78 v=0
95040 On ch=12 n=78 v=115
95136 On ch=12 n=79 v=116
95145 On ch=12 n=78 v=0
95232 On ch=12 n=78 v=117
95241 On ch=12 n=79 v=0
95328 On ch=12 n=77 v=118
95337 On ch=12 n=78 v=0
95424 On ch=12 n=78 v=119
95433 On ch=12 n=77 v=0
95514 On ch=12 n=78 v=0
95520 On ch=12 n=78 v=121
95616 On ch=12 n=79 v=122
95625 On ch=12 n=78 v=0
95712 On ch=12 n=78 v=123
95721 On ch=12 n=79 v=0
95808 On ch=12 n=77 v=124
95817 On ch=12 n=78 v=0
95904 On ch=12 n=78 v=125
95913 On ch=12 n=77 v=0
95994 On ch=12 n=78 v=0
95994 Par ch=12 c=11 v=85
96000 On ch=12 n=83 v=127
96210 On ch=12 n=83 v=0
96240 On ch=12 n=85 v=127
96450 On ch=12 n=85 v=0
96480 On ch=12 n=86 v=127
96690 On ch=12 n=86 v=0
96720 On ch=12 n=88 v=127
96930 On ch=12 n=88 v=0
96960 On ch=12 n=90 v=127
97170 On ch=12 n=90 v=0
97200 On ch=12 n=86 v=127
97410 On ch=12 n=86 v=0
97440 On ch=12 n=90 v=127
97530 On ch=12 n=90 v=0
97560 On ch=12 n=90 v=127
97650 On ch=12 n=90 v=0
97680 On ch=12 n=90 v=127
97770 On ch=12 n=90 v=0
97800 On ch=12 n=90 v=127
97890 On ch=12 n=90 v=0
97920 On ch=12 n=89 v=127
98130 On ch=12 n=89 v=0
98160 On ch=12 n=85 v=127
98370 On ch=12 n=85 v=0
98400 On ch=12 n=89 v=127
98490 On ch=12 n=89 v=0
98520 On ch=12 n=89 v=127
98610 On ch=12 n=89 v=0
98640 On ch=12 n=89 v=127
98730 On ch=12 n=89 v=0
98760 On ch=12 n=89 v=127
98850 On ch=12 n=89 v=0
98880 On ch=12 n=88 v=127
99090 On ch=12 n=88 v=0
99120 On ch=12 n=84 v=127
99330 On ch=12 n=84 v=0
99360 On ch=12 n=88 v=127
99450 On ch=12 n=88 v=0
99480 On ch=12 n=88 v=127
99570 On ch=12 n=88 v=0
99600 On ch=12 n=88 v=127
99690 On ch=12 n=88 v=0
99720 On ch=12 n=88 v=127
99810 On ch=12 n=88 v=0
99840 On ch=12 n=83 v=127
100050 On ch=12 n=83 v=0
100080 On ch=12 n=85 v=127
100290 On ch=12 n=85 v=0
100320 On ch=12 n=86 v=127
100530 On ch=12 n=86 v=0
100560 On ch=12 n=88 v=127
100770 On ch=12 n=88 v=0
100800 On ch=12 n=90 v=127
101010 On ch=12 n=90 v=0
101040 On ch=12 n=86 v=127
101250 On ch=12 n=86 v=0
101280 On ch=12 n=90 v=127
101490 On ch=12 n=90 v=0
101520 On ch=12 n=95 v=127
101730 On ch=12 n=95 v=0
101760 On ch=12 n=93 v=127
101970 On ch=12 n=93 v=0
102000 On ch=12 n=90 v=127
102210 On ch=12 n=90 v=0
102240 On ch=12 n=86 v=127
102450 On ch=12 n=86 v=0
102480 On ch=12 n=90 v=127
102690 On ch=12 n=90 v=0
102720 On ch=12 n=93 v=127
102810 On ch=12 n=93 v=0
102840 On ch=12 n=93 v=127
102930 On ch=12 n=93 v=0
102960 On ch=12 n=93 v=127
103050 On ch=12 n=93 v=0
103080 On ch=12 n=93 v=127
103170 On ch=12 n=93 v=0
103200 On ch=12 n=93 v=127
103290 On ch=12 n=93 v=0
103320 On ch=12 n=93 v=127
103410 On ch=12 n=93 v=0
103440 On ch=12 n=93 v=127
103530 On ch=12 n=93 v=0
103560 On ch=12 n=93 v=127
103650 On ch=12 n=93 v=0
103680 On ch=12 n=83 v=127
103890 On ch=12 n=83 v=0
103920 On ch=12 n=85 v=127
104130 On ch=12 n=85 v=0
104160 On ch=12 n=86 v=127
104370 On ch=12 n=86 v=0
104400 On ch=12 n=88 v=127
104610 On ch=12 n=88 v=0
104640 On ch=12 n=90 v=127
104850 On ch=12 n=90 v=0
104880 On ch=12 n=86 v=127
105090 On ch=12 n=86 v=0
105120 On ch=12 n=90 v=127
105210 On ch=12 n=90 v=0
105240 On ch=12 n=90 v=127
105330 On ch=12 n=90 v=0
105360 On ch=12 n=90 v=127
105450 On ch=12 n=90 v=0
105480 On ch=12 n=90 v=127
105570 On ch=12 n=90 v=0
105600 On ch=12 n=89 v=127
105810 On ch=12 n=89 v=0
105840 On ch=12 n=85 v=127
106050 On ch=12 n=85 v=0
106080 On ch=12 n=89 v=127
106170 On ch=12 n=89 v=0
106200 On ch=12 n=89 v=127
106290 On ch=12 n=89 v=0
106320 On ch=12 n=89 v=127
106410 On ch=12 n=89 v=0
106440 On ch=12 n=89 v=127
106530 On ch=12 n=89 v=0
106560 On ch=12 n=88 v=127
106770 On ch=12 n=88 v=0
106800 On ch=12 n=84 v=127
107010 On ch=12 n=84 v=0
107040 On ch=12 n=88 v=127
107130 On ch=12 n=88 v=0
107160 On ch=12 n=88 v=127
107250 On ch=12 n=88 v=0
107280 On ch=12 n=88 v=127
107370 On ch=12 n=88 v=0
107400 On ch=12 n=88 v=127
107490 On ch=12 n=88 v=0
107520 On ch=12 n=83 v=127
107730 On ch=12 n=83 v=0
107760 On ch=12 n=85 v=127
107970 On ch=12 n=85 v=0
108000 On ch=12 n=86 v=127
108210 On ch=12 n=86 v=0
108240 On ch=12 n=88 v=127
108450 On ch=12 n=88 v=0
108480 On ch=12 n=90 v=127
108690 On ch=12 n=90 v=0
108720 On ch=12 n=86 v=127
108930 On ch=12 n=86 v=0
108960 On ch=12 n=90 v=127
109170 On ch=12 n=90 v=0
109200 On ch=12 n=95 v=127
109410 On ch=12 n=95 v=0
109440 On ch=12 n=93 v=127
109650 On ch=12 n=93 v=0
109680 On ch=12 n=90 v=127
109890 On ch=12 n=90 v=0
109920 On ch=12 n=86 v=127
110130 On ch=12 n=86 v=0
110160 On ch=12 n=90 v=127
110370 On ch=12 n=90 v=0
110400 On ch=12 n=93 v=127
110490 On ch=12 n=93 v=0
110520 On ch=12 n=93 v=127
110610 On ch=12 n=93 v=0
110640 On ch=12 n=93 v=127
110730 On ch=12 n=93 v=0
110760 On ch=12 n=93 v=127
110850 On ch=12 n=93 v=0
110880 On ch=12 n=93 v=127
110970 On ch=12 n=93 v=0
111000 On ch=12 n=93 v=127
111090 On ch=12 n=93 v=0
111120 On ch=12 n=93 v=127
111210 On ch=12 n=93 v=0
111240 On ch=12 n=93 v=127
111330 On ch=12 n=93 v=0
111360 On ch=12 n=90 v=127
111570 On ch=12 n=90 v=0
111600 On ch=12 n=92 v=127
111810 On ch=12 n=92 v=0
111840 On ch=12 n=94 v=127
112050 On ch=12 n=94 v=0
112080 On ch=12 n=95 v=127
112290 On ch=12 n=95 v=0
112320 On ch=12 n=97 v=127
112530 On ch=12 n=97 v=0
112560 On ch=12 n=94 v=127
112770 On ch=12 n=94 v=0
112800 On ch=12 n=97 v=127
112890 On ch=12 n=97 v=0
112920 On ch=12 n=97 v=127
113010 On ch=12 n=97 v=0
113040 On ch=12 n=97 v=127
113130 On ch=12 n=97 v=0
113160 On ch=12 n=97 v=127
113250 On ch=12 n=97 v=0
113280 On ch=12 n=98 v=127
113490 On ch=12 n=98 v=0
113520 On ch=12 n=94 v=127
113730 On ch=12 n=94 v=0
113760 On ch=12 n=98 v=127
113850 On ch=12 n=98 v=0
113880 On ch=12 n=98 v=127
113970 On ch=12 n=98 v=0
114000 On ch=12 n=98 v=127
114090 On ch=12 n=98 v=0
114120 On ch=12 n=98 v=127
114210 On ch=12 n=98 v=0
114240 On ch=12 n=97 v=127
114450 On ch=12 n=97 v=0
114480 On ch=12 n=94 v=127
114690 On ch=12 n=94 v=0
114720 On ch=12 n=97 v=127
114810 On ch=12 n=97 v=0
114840 On ch=12 n=97 v=127
114930 On ch=12 n=97 v=0
114960 On ch=12 n=97 v=127
115050 On ch=12 n=97 v=0
115080 On ch=12 n=97 v=127
115170 On ch=12 n=97 v=0
115200 On ch=12 n=90 v=127
115410 On ch=12 n=90 v=0
115440 On ch=12 n=92 v=127
115650 On ch=12 n=92 v=0
115680 On ch=12 n=94 v=127
115890 On ch=12 n=94 v=0
115920 On ch=12 n=95 v=127
116130 On ch=12 n=95 v=0
116160 On ch=12 n=97 v=127
116370 On ch=12 n=97 v=0
116400 On ch=12 n=94 v=127
116610 On ch=12 n=94 v=0
116640 On ch=12 n=97 v=127
116730 On ch=12 n=97 v=0
116760 On ch=12 n=97 v=127
116850 On ch=12 n=97 v=0
116880 On ch=12 n=97 v=127
116970 On ch=12 n=97 v=0
117000 On ch=12 n=97 v=127
117090 On ch=12 n=97 v=0
117120 On ch=12 n=98 v=127
117330 On ch=12 n=98 v=0
117360 On ch=12 n=94 v=127
117570 On ch=12 n=94 v=0
117600 On ch=12 n=98 v=127
117690 On ch=12 n=98 v=0
117720 On ch=12 n=98 v=127
117810 On ch=12 n=98 v=0
117840 On ch=12 n=98 v=127
117930 On ch=12 n=98 v=0
117960 On ch=12 n=98 v=127
118050 On ch=12 n=98 v=0
118080 On ch=12 n=97 v=127
118170 On ch=12 n=97 v=0
118200 On ch=12 n=97 v=127
118290 On ch=12 n=97 v=0
118320 On ch=12 n=97 v=127
118410 On ch=12 n=97 v=0
118440 On ch=12 n=97 v=127
118530 On ch=12 n=97 v=0
118560 On ch=12 n=97 v=127
118650 On ch=12 n=97 v=0
118680 On ch=12 n=97 v=127
118770 On ch=12 n=97 v=0
118800 On ch=12 n=97 v=127
118890 On ch=12 n=97 v=0
118920 On ch=12 n=97 v=127
119010 On ch=12 n=97 v=0
119040 On ch=12 n=90 v=127
119250 On ch=12 n=90 v=0
119280 On ch=12 n=92 v=127
119490 On ch=12 n=92 v=0
119520 On ch=12 n=94 v=127
119730 On ch=12 n=94 v=0
119760 On ch=12 n=95 v=127
119970 On ch=12 n=95 v=0
120000 On ch=12 n=97 v=127
120210 On ch=12 n=97 v=0
120240 On ch=12 n=94 v=127
120450 On ch=12 n=94 v=0
120480 On ch=12 n=97 v=127
120570 On ch=12 n=97 v=0
120600 On ch=12 n=97 v=127
120690 On ch=12 n=97 v=0
120720 On ch=12 n=97 v=127
120810 On ch=12 n=97 v=0
120840 On ch=12 n=97 v=127
120930 On ch=12 n=97 v=0
120960 On ch=12 n=99 v=127
121170 On ch=12 n=99 v=0
121200 On ch=12 n=94 v=127
121410 On ch=12 n=94 v=0
121440 On ch=12 n=99 v=127
121530 On ch=12 n=99 v=0
121560 On ch=12 n=99 v=127
121650 On ch=12 n=99 v=0
121680 On ch=12 n=99 v=127
121770 On ch=12 n=99 v=0
121800 On ch=12 n=99 v=127
121890 On ch=12 n=99 v=0
121920 On ch=12 n=97 v=127
122130 On ch=12 n=97 v=0
122160 On ch=12 n=94 v=127
122370 On ch=12 n=94 v=0
122400 On ch=12 n=97 v=127
122490 On ch=12 n=97 v=0
122520 On ch=12 n=97 v=127
122610 On ch=12 n=97 v=0
122640 On ch=12 n=97 v=127
122730 On ch=12 n=97 v=0
122760 On ch=12 n=97 v=127
122850 On ch=12 n=97 v=0
122880 On ch=12 n=90 v=127
123090 On ch=12 n=90 v=0
123120 On ch=12 n=92 v=127
123330 On ch=12 n=92 v=0
123360 On ch=12 n=94 v=127
123570 On ch=12 n=94 v=0
123600 On ch=12 n=95 v=127
123810 On ch=12 n=95 v=0
123840 On ch=12 n=97 v=127
124050 On ch=12 n=97 v=0
124080 On ch=12 n=94 v=127
124290 On ch=12 n=94 v=0
124320 On ch=12 n=97 v=127
124410 On ch=12 n=97 v=0
124440 On ch=12 n=97 v=127
124530 On ch=12 n=97 v=0
124560 On ch=12 n=97 v=127
124650 On ch=12 n=97 v=0
124680 On ch=12 n=97 v=127
124770 On ch=12 n=97 v=0
124800 On ch=12 n=99 v=127
125010 On ch=12 n=99 v=0
125040 On ch=12 n=94 v=127
125250 On ch=12 n=94 v=0
125280 On ch=12 n=99 v=127
125370 On ch=12 n=99 v=0
125400 On ch=12 n=99 v=127
125490 On ch=12 n=99 v=0
125520 On ch=12 n=99 v=127
125610 On ch=12 n=99 v=0
125640 On ch=12 n=99 v=127
125730 On ch=12 n=99 v=0
125760 On ch=12 n=97 v=127
125850 On ch=12 n=97 v=0
125880 On ch=12 n=97 v=127
125970 On ch=12 n=97 v=0
126000 On ch=12 n=97 v=127
126090 On ch=12 n=97 v=0
126120 On ch=12 n=97 v=127
126210 On ch=12 n=97 v=0
126240 On ch=12 n=97 v=127
126330 On ch=12 n=97 v=0
126360 On ch=12 n=97 v=127
126450 On ch=12 n=97 v=0
126480 On ch=12 n=97 v=127
126570 On ch=12 n=97 v=0
126600 On ch=12 n=97 v=127
126690 On ch=12 n=97 v=0
126720 On ch=12 n=83 v=127
126930 On ch=12 n=83 v=0
126960 On ch=12 n=85 v=127
127170 On ch=12 n=85 v=0
127200 On ch=12 n=86 v=127
127410 On ch=12 n=86 v=0
127440 On ch=12 n=88 v=127
127650 On ch=12 n=88 v=0
127680 On ch=12 n=90 v=127
127890 On ch=12 n=90 v=0
127920 On ch=12 n=86 v=127
128130 On ch=12 n=86 v=0
128160 On ch=12 n=90 v=127
128250 On ch=12 n=90 v=0
128280 On ch=12 n=90 v=127
128370 On ch=12 n=90 v=0
128400 On ch=12 n=90 v=127
128490 On ch=12 n=90 v=0
128520 On ch=12 n=90 v=127
128610 On ch=12 n=90 v=0
128640 On ch=12 n=89 v=127
128850 On ch=12 n=89 v=0
128880 On ch=12 n=85 v=127
129090 On ch=12 n=85 v=0
129120 On ch=12 n=89 v=127
129210 On ch=12 n=89 v=0
129240 On ch=12 n=89 v=127
129330 On ch=12 n=89 v=0
129360 On ch=12 n=89 v=127
129450 On ch=12 n=89 v=0
129480 On ch=12 n=89 v=127
129570 On ch=12 n=89 v=0
129600 On ch=12 n=88 v=127
129810 On ch=12 n=88 v=0
129840 On ch=12 n=84 v=127
130050 On ch=12 n=84 v=0
130080 On ch=12 n=88 v=127
130170 On ch=12 n=88 v=0
130200 On ch=12 n=88 v=127
130290 On ch=12 n=88 v=0
130320 On ch=12 n=88 v=127
130410 On ch=12 n=88 v=0
130440 On ch=12 n=88 v=127
130530 On ch=12 n=88 v=0
130560 On ch=12 n=83 v=127
130770 On ch=12 n=83 v=0
130800 On ch=12 n=85 v=127
131010 On ch=12 n=85 v=0
131040 On ch=12 n=86 v=127
131250 On ch=12 n=86 v=0
131280 On ch=12 n=88 v=127
131490 On ch=12 n=88 v=0
131520 On ch=12 n=90 v=127
131730 On ch=12 n=90 v=0
131760 On ch=12 n=86 v=127
131970 On ch=12 n=86 v=0
132000 On ch=12 n=90 v=127
132210 On ch=12 n=90 v=0
132240 On ch=12 n=95 v=127
132450 On ch=12 n=95 v=0
132480 On ch=12 n=93 v=127
132690 On ch=12 n=93 v=0
132720 On ch=12 n=90 v=127
132930 On ch=12 n=90 v=0
132960 On ch=12 n=86 v=127
133170 On ch=12 n=86 v=0
133200 On ch=12 n=90 v=127
133410 On ch=12 n=90 v=0
133440 On ch=12 n=93 v=127
133530 On ch=12 n=93 v=0
133560 On ch=12 n=93 v=127
133650 On ch=12 n=93 v=0
133680 On ch=12 n=93 v=127
133770 On ch=12 n=93 v=0
133800 On ch=12 n=93 v=127
133890 On ch=12 n=93 v=0
133920 On ch=12 n=93 v=127
134010 On ch=12 n=93 v=0
134040 On ch=12 n=93 v=127
134130 On ch=12 n=93 v=0
134160 On ch=12 n=93 v=127
134250 On ch=12 n=93 v=0
134280 On ch=12 n=93 v=127
134370 On ch=12 n=93 v=0
134400 On ch=12 n=83 v=127
134610 On ch=12 n=83 v=0
134640 On ch=12 n=85 v=127
134850 On ch=12 n=85 v=0
134880 On ch=12 n=86 v=127
135090 On ch=12 n=86 v=0
135120 On ch=12 n=88 v=127
135330 On ch=12 n=88 v=0
135360 On ch=12 n=90 v=127
135570 On ch=12 n=90 v=0
135600 On ch=12 n=86 v=127
135810 On ch=12 n=86 v=0
135840 On ch=12 n=90 v=127
135930 On ch=12 n=90 v=0
135960 On ch=12 n=90 v=127
136050 On ch=12 n=90 v=0
136080 On ch=12 n=90 v=127
136170 On ch=12 n=90 v=0
136200 On ch=12 n=90 v=127
136290 On ch=12 n=90 v=0
136320 On ch=12 n=89 v=127
136530 On ch=12 n=89 v=0
136560 On ch=12 n=85 v=127
136770 On ch=12 n=85 v=0
136800 On ch=12 n=89 v=127
136890 On ch=12 n=89 v=0
136920 On ch=12 n=89 v=127
137010 On ch=12 n=89 v=0
137040 On ch=12 n=89 v=127
137130 On ch=12 n=89 v=0
137160 On ch=12 n=89 v=127
137250 On ch=12 n=89 v=0
137340 On ch=12 n=88 v=127
137550 On ch=12 n=88 v=0
137580 On ch=12 n=84 v=127
137760 On ch=12 n=88 v=127
137790 On ch=12 n=84 v=0
137850 On ch=12 n=88 v=0
137880 On ch=12 n=88 v=127
137970 On ch=12 n=88 v=0
138000 On ch=12 n=88 v=127
138090 On ch=12 n=88 v=0
138120 On ch=12 n=88 v=127
138210 On ch=12 n=88 v=0
138240 On ch=12 n=83 v=127
138450 On ch=12 n=83 v=0
138480 On ch=12 n=85 v=127
138690 On ch=12 n=85 v=0
138720 On ch=12 n=86 v=127
138930 On ch=12 n=86 v=0
138960 On ch=12 n=88 v=127
139170 On ch=12 n=88 v=0
139200 On ch=12 n=90 v=127
139410 On ch=12 n=90 v=0
139440 On ch=12 n=86 v=127
139650 On ch=12 n=86 v=0
139680 On ch=12 n=90 v=127
139890 On ch=12 n=90 v=0
139920 On ch=12 n=95 v=127
140130 On ch=12 n=95 v=0
140160 On ch=12 n=90 v=127
140370 On ch=12 n=90 v=0
140400 On ch=12 n=86 v=127
140610 On ch=12 n=86 v=0
140640 On ch=12 n=90 v=127
140850 On ch=12 n=90 v=0
140880 On ch=12 n=95 v=127
141090 On ch=12 n=95 v=0
141120 On ch=12 n=83 v=127
141210 On ch=12 n=83 v=0
141240 On ch=12 n=83 v=127
141330 On ch=12 n=83 v=0
141360 On ch=12 n=83 v=127
141450 On ch=12 n=83 v=0
141480 On ch=12 n=83 v=127
141570 On ch=12 n=83 v=0
141600 On ch=12 n=83 v=127
141690 On ch=12 n=83 v=0
141720 On ch=12 n=83 v=127
141810 On ch=12 n=83 v=0
141840 On ch=12 n=83 v=127
141930 On ch=12 n=83 v=0
141960 On ch=12 n=83 v=127
142050 On ch=12 n=83 v=0
142560 On ch=12 n=95 v=127
142680 On ch=12 n=95 v=0
144480 On ch=12 n=95 v=127
144600 On ch=12 n=95 v=0
150240 On ch=12 n=95 v=127
150360 On ch=12 n=95 v=0
152160 On ch=12 n=95 v=127
152280 On ch=12 n=95 v=0
153600 On ch=12 n=83 v=80
153810 On ch=12 n=83 v=0
153840 On ch=12 n=85 v=83
154050 On ch=12 n=85 v=0
154080 On ch=12 n=86 v=87
154290 On ch=12 n=86 v=0
154320 On ch=12 n=88 v=91
154530 On ch=12 n=88 v=0
154560 On ch=12 n=90 v=95
154770 On ch=12 n=90 v=0
154800 On ch=12 n=86 v=99
155010 On ch=12 n=86 v=0
155040 On ch=12 n=90 v=103
155250 On ch=12 n=90 v=0
155280 On ch=12 n=95 v=107
155490 On ch=12 n=95 v=0
155520 On ch=12 n=94 v=111
155730 On ch=12 n=94 v=0
155760 On ch=12 n=90 v=115
155970 On ch=12 n=90 v=0
156000 On ch=12 n=94 v=119
156210 On ch=12 n=94 v=0
156240 On ch=12 n=97 v=123
156450 On ch=12 n=97 v=0
156480 On ch=12 n=95 v=127
156570 On ch=12 n=95 v=0
156600 On ch=12 n=95 v=127
156690 On ch=12 n=95 v=0
156720 On ch=12 n=95 v=127
156810 On ch=12 n=95 v=0
156840 On ch=12 n=95 v=127
156930 On ch=12 n=95 v=0
156960 On ch=12 n=95 v=127
157050 On ch=12 n=95 v=0
157080 On ch=12 n=95 v=127
157170 On ch=12 n=95 v=0
157200 On ch=12 n=95 v=127
157290 On ch=12 n=95 v=0
157320 On ch=12 n=95 v=127
157410 On ch=12 n=95 v=0
157920 On ch=12 n=95 v=127
158040 On ch=12 n=95 v=0
159840 On ch=12 n=95 v=127
159960 On ch=12 n=95 v=0
161760 On ch=12 n=95 v=52
162120 On ch=12 n=95 v=0
162240 On ch=12 n=95 v=64
162600 On ch=12 n=95 v=0
162720 On ch=12 n=95 v=77
163080 On ch=12 n=95 v=0
163200 On ch=12 n=95 v=89
163320 On ch=12 n=95 v=0
163680 On ch=12 n=95 v=102
163800 On ch=12 n=95 v=0
164160 On ch=12 n=95 v=114
164280 On ch=12 n=95 v=0
164640 On ch=12 n=95 v=127
164760 On ch=12 n=95 v=0
168480 Par ch=12 c=11 v=100
169440 On ch=12 n=95 v=127
169650 On ch=12 n=95 v=0
169650 Meta TrkEnd
TrkEnd
MTrk
0 Meta 0x20 12
0 Meta TrkName "Violin II"
0 Meta InstrName "Violini II"
49920 On ch=13 n=59 v=55
50130 On ch=13 n=59 v=0
50160 On ch=13 n=61 v=55
50370 On ch=13 n=61 v=0
50400 On ch=13 n=62 v=55
50610 On ch=13 n=62 v=0
50640 On ch=13 n=64 v=55
50850 On ch=13 n=64 v=0
50880 On ch=13 n=66 v=70
51090 On ch=13 n=66 v=0
51120 On ch=13 n=62 v=55
51330 On ch=13 n=62 v=0
51360 On ch=13 n=66 v=55
51810 On ch=13 n=66 v=0
51840 On ch=13 n=65 v=70
52050 On ch=13 n=65 v=0
52080 On ch=13 n=61 v=55
52290 On ch=13 n=61 v=0
52320 On ch=13 n=65 v=55
52770 On ch=13 n=65 v=0
52800 On ch=13 n=64 v=70
53010 On ch=13 n=64 v=0
53040 On ch=13 n=60 v=55
53250 On ch=13 n=60 v=0
53280 On ch=13 n=64 v=55
53730 On ch=13 n=64 v=0
53760 On ch=13 n=59 v=55
53970 On ch=13 n=59 v=0
54000 On ch=13 n=61 v=55
54210 On ch=13 n=61 v=0
54240 On ch=13 n=62 v=55
54450 On ch=13 n=62 v=0
54480 On ch=13 n=64 v=55
54690 On ch=13 n=64 v=0
54720 On ch=13 n=66 v=55
54930 On ch=13 n=66 v=0
54960 On ch=13 n=62 v=55
55170 On ch=13 n=62 v=0
55200 On ch=13 n=66 v=55
55410 On ch=13 n=66 v=0
55440 On ch=13 n=71 v=55
55650 On ch=13 n=71 v=0
55680 On ch=13 n=69 v=70
55890 On ch=13 n=69 v=0
55920 On ch=13 n=66 v=55
56130 On ch=13 n=66 v=0
56160 On ch=13 n=62 v=55
56370 On ch=13 n=62 v=0
56400 On ch=13 n=66 v=55
56610 On ch=13 n=66 v=0
56640 On ch=13 n=69 v=55
57090 On ch=13 n=69 v=0
58080 On ch=13 n=66 v=55
58530 On ch=13 n=66 v=0
59040 On ch=13 n=66 v=55
59490 On ch=13 n=66 v=0
60000 On ch=13 n=66 v=55
60000 On ch=13 n=78 v=55
60450 On ch=13 n=66 v=0
60450 On ch=13 n=78 v=0
60960 On ch=13 n=66 v=55
60960 On ch=13 n=78 v=55
61410 On ch=13 n=66 v=0
61410 On ch=13 n=78 v=0
61920 On ch=13 n=66 v=55
61920 On ch=13 n=78 v=55
62370 On ch=13 n=66 v=0
62370 On ch=13 n=78 v=0
62880 On ch=13 n=66 v=55
62880 On ch=13 n=78 v=55
63330 On ch=13 n=66 v=0
63330 On ch=13 n=78 v=0
63840 On ch=13 n=66 v=55
63840 On ch=13 n=78 v=55
64290 On ch=13 n=66 v=0
64290 On ch=13 n=78 v=0
64800 On ch=13 n=66 v=55
64800 On ch=13 n=78 v=55
65250 On ch=13 n=66 v=0
65250 On ch=13 n=78 v=0
65280 On ch=13 n=66 v=55
65490 On ch=13 n=66 v=0
65520 On ch=13 n=68 v=55
65730 On ch=13 n=68 v=0
65760 On ch=13 n=70 v=55
65970 On ch=13 n=70 v=0
66000 On ch=13 n=71 v=55
66210 On ch=13 n=71 v=0
66240 On ch=13 n=73 v=56
66450 On ch=13 n=73 v=0
66480 On ch=13 n=70 v=56
66690 On ch=13 n=70 v=0
66720 On ch=13 n=73 v=56
67170 On ch=13 n=73 v=0
67200 On ch=13 n=74 v=57
67410 On ch=13 n=74 v=0
67440 On ch=13 n=70 v=57
67650 On ch=13 n=70 v=0
67680 On ch=13 n=74 v=57
68130 On ch=13 n=74 v=0
68160 On ch=13 n=73 v=58
68370 On ch=13 n=73 v=0
68400 On ch=13 n=70 v=58
68610 On ch=13 n=70 v=0
68640 On ch=13 n=73 v=58
69090 On ch=13 n=73 v=0
69120 On ch=13 n=66 v=59
69330 On ch=13 n=66 v=0
69360 On ch=13 n=68 v=59
69570 On ch=13 n=68 v=0
69600 On ch=13 n=70 v=59
69810 On ch=13 n=70 v=0
69840 On ch=13 n=71 v=60
70050 On ch=13 n=71 v=0
70080 On ch=13 n=73 v=60
70290 On ch=13 n=73 v=0
70320 On ch=13 n=70 v=60
70530 On ch=13 n=70 v=0
70560 On ch=13 n=73 v=60
71010 On ch=13 n=73 v=0
71040 On ch=13 n=74 v=61
71250 On ch=13 n=74 v=0
71280 On ch=13 n=70 v=61
71490 On ch=13 n=70 v=0
71520 On ch=13 n=74 v=61
71970 On ch=13 n=74 v=0
72000 On ch=13 n=73 v=62
72450 On ch=13 n=73 v=0
73440 On ch=13 n=66 v=64
73440 On ch=13 n=78 v=64
73890 On ch=13 n=66 v=0
73890 On ch=13 n=78 v=0
74400 On ch=13 n=66 v=65
74400 On ch=13 n=78 v=65
74850 On ch=13 n=66 v=0
74850 On ch=13 n=78 v=0
75360 On ch=13 n=66 v=66
75360 On ch=13 n=78 v=66
75810 On ch=13 n=66 v=0
75810 On ch=13 n=78 v=0
76320 On ch=13 n=66 v=67
76320 On ch=13 n=78 v=67
76770 On ch=13 n=66 v=0
76770 On ch=13 n=78 v=0
77280 On ch=13 n=66 v=68
77280 On ch=13 n=78 v=68
77730 On ch=13 n=66 v=0
77730 On ch=13 n=78 v=0
78240 On ch=13 n=66 v=69
78240 On ch=13 n=78 v=69
78690 On ch=13 n=66 v=0
78690 On ch=13 n=78 v=0
79200 On ch=13 n=66 v=70
79200 On ch=13 n=78 v=70
79650 On ch=13 n=66 v=0
79650 On ch=13 n=78 v=0
80160 On ch=13 n=66 v=71
80160 On ch=13 n=78 v=71
80610 On ch=13 n=66 v=0
80610 On ch=13 n=78 v=0
80640 On ch=13 n=59 v=72
80850 On ch=13 n=59 v=0
80880 On ch=13 n=61 v=72
81090 On ch=13 n=61 v=0
81120 On ch=13 n=62 v=72
81330 On ch=13 n=62 v=0
81360 On ch=13 n=64 v=72
81570 On ch=13 n=64 v=0
81600 On ch=13 n=66 v=73
81810 On ch=13 n=66 v=0
81840 On ch=13 n=62 v=73
82050 On ch=13 n=62 v=0
82080 On ch=13 n=66 v=73
82530 On ch=13 n=66 v=0
82560 On ch=13 n=65 v=74
82770 On ch=13 n=65 v=0
82800 On ch=13 n=61 v=74
83010 On ch=13 n=61 v=0
83040 On ch=13 n=65 v=74
83490 On ch=13 n=65 v=0
83520 On ch=13 n=64 v=75
83730 On ch=13 n=64 v=0
83760 On ch=13 n=60 v=75
83970 On ch=13 n=60 v=0
84000 On ch=13 n=64 v=75
84450 On ch=13 n=64 v=0
84480 On ch=13 n=59 v=76
84690 On ch=13 n=59 v=0
84720 On ch=13 n=61 v=76
84930 On ch=13 n=61 v=0
84960 On ch=13 n=62 v=76
85170 On ch=13 n=62 v=0
85200 On ch=13 n=64 v=77
85410 On ch=13 n=64 v=0
85440 On ch=13 n=66 v=77
85650 On ch=13 n=66 v=0
85680 On ch=13 n=62 v=77
85890 On ch=13 n=62 v=0
85920 On ch=13 n=66 v=78
86130 On ch=13 n=66 v=0
86160 On ch=13 n=71 v=78
86370 On ch=13 n=71 v=0
86400 On ch=13 n=69 v=78
86610 On ch=13 n=69 v=0
86640 On ch=13 n=66 v=78
86850 On ch=13 n=66 v=0
86880 On ch=13 n=62 v=79
87090 On ch=13 n=62 v=0
87120 On ch=13 n=66 v=79
87330 On ch=13 n=66 v=0
87360 On ch=13 n=69 v=79
87810 On ch=13 n=69 v=0
88800 On ch=13 n=66 v=76
88896 On ch=13 n=67 v=76
88905 On ch=13 n=66 v=0
88992 On ch=13 n=66 v=76
89001 On ch=13 n=67 v=0
89088 On ch=13 n=65 v=76
89097 On ch=13 n=66 v=0
89184 On ch=13 n=66 v=76
89193 On ch=13 n=65 v=0
89289 On ch=13 n=66 v=0
89760 On ch=13 n=66 v=77
89856 On ch=13 n=67 v=77
89865 On ch=13 n=66 v=0
89952 On ch=13 n=66 v=77
89961 On ch=13 n=67 v=0
90048 On ch=13 n=65 v=77
90057 On ch=13 n=66 v=0
90144 On ch=13 n=66 v=77
90153 On ch=13 n=65 v=0
90249 On ch=13 n=66 v=0
90720 On ch=13 n=66 v=78
90816 On ch=13 n=67 v=78
90825 On ch=13 n=66 v=0
90912 On ch=13 n=66 v=78
90921 On ch=13 n=67 v=0
91008 On ch=13 n=65 v=78
91017 On ch=13 n=66 v=0
91104 On ch=13 n=66 v=78
91113 On ch=13 n=65 v=0
91209 On ch=13 n=66 v=0
91680 On ch=13 n=66 v=79
91776 On ch=13 n=67 v=79
91785 On ch=13 n=66 v=0
91872 On ch=13 n=66 v=79
91881 On ch=13 n=67 v=0
91968 On ch=13 n=65 v=79
91977 On ch=13 n=66 v=0
92064 On ch=13 n=66 v=79
92073 On ch=13 n=65 v=0
92169 On ch=13 n=66 v=0
92640 On ch=13 n=66 v=85
92736 On ch=13 n=67 v=87
92745 On ch=13 n=66 v=0
92832 On ch=13 n=66 v=88
92841 On ch=13 n=67 v=0
92928 On ch=13 n=65 v=89
92937 On ch=13 n=66 v=0
93024 On ch=13 n=66 v=90
93033 On ch=13 n=65 v=0
93114 On ch=13 n=66 v=0
93120 On ch=13 n=66 v=91
93216 On ch=13 n=67 v=92
93225 On ch=13 n=66 v=0
93312 On ch=13 n=66 v=94
93321 On ch=13 n=67 v=0
93408 On ch=13 n=65 v=95
93417 On ch=13 n=66 v=0
93504 On ch=13 n=66 v=96
93513 On ch=13 n=65 v=0
93594 On ch=13 n=66 v=0
93600 On ch=13 n=66 v=97
93696 On ch=13 n=67 v=98
93705 On ch=13 n=66 v=0
93792 On ch=13 n=66 v=99
93801 On ch=13 n=67 v=0
93888 On ch=13 n=65 v=101
93897 On ch=13 n=66 v=0
93984 On ch=13 n=66 v=102
93993 On ch=13 n=65 v=0
94074 On ch=13 n=66 v=0
94080 On ch=13 n=66 v=103
94176 On ch=13 n=67 v=104
94185 On ch=13 n=66 v=0
94272 On ch=13 n=66 v=105
94281 On ch=13 n=67 v=0
94368 On ch=13 n=65 v=107
94377 On ch=13 n=66 v=0
94464 On ch=13 n=66 v=108
94473 On ch=13 n=65 v=0
94554 On ch=13 n=66 v=0
94560 On ch=13 n=66 v=109
94656 On ch=13 n=67 v=110
94665 On ch=13 n=66 v=0
94752 On ch=13 n=66 v=111
94761 On ch=13 n=67 v=0
94848 On ch=13 n=65 v=112
94857 On ch=13 n=66 v=0
94944 On ch=13 n=66 v=114
94953 On ch=13 n=65 v=0
95034 On ch=13 n=66 v=0
95040 On ch=13 n=66 v=115
95136 On ch=13 n=67 v=116
95145 On ch=13 n=66 v=0
95232 On ch=13 n=66 v=117
95241 On ch=13 n=67 v=0
95328 On ch=13 n=65 v=118
95337 On ch=13 n=66 v=0
95424 On ch=13 n=66 v=119
95433 On ch=13 n=65 v=0
95514 On ch=13 n=66 v=0
95520 On ch=13 n=66 v=121
95616 On ch=13 n=67 v=122
95625 On ch=13 n=66 v=0
95712 On ch=13 n=66 v=123
95721 On ch=13 n=67 v=0
95808 On ch=13 n=65 v=124
95817 On ch=13 n=66 v=0
95904 On ch=13 n=66 v=125
95913 On ch=13 n=65 v=0
95994 On ch=13 n=66 v=0
95994 Par ch=13 c=11 v=85
96000 On ch=13 n=71 v=127
96210 On ch=13 n=71 v=0
96240 On ch=13 n=73 v=127
96450 On ch=13 n=73 v=0
96480 On ch=13 n=74 v=127
96690 On ch=13 n=74 v=0
96720 On ch=13 n=76 v=127
96930 On ch=13 n=76 v=0
96960 On ch=13 n=78 v=127
97170 On ch=13 n=78 v=0
97200 On ch=13 n=74 v=127
97410 On ch=13 n=74 v=0
97440 On ch=13 n=78 v=127
97530 On ch=13 n=78 v=0
97560 On ch=13 n=78 v=127
97650 On ch=13 n=78 v=0
97680 On ch=13 n=78 v=127
97770 On ch=13 n=78 v=0
97800 On ch=13 n=78 v=127
97890 On ch=13 n=78 v=0
97920 On ch=13 n=77 v=127
98130 On ch=13 n=77 v=0
98160 On ch=13 n=73 v=127
98370 On ch=13 n=73 v=0
98400 On ch=13 n=77 v=127
98490 On ch=13 n=77 v=0
98520 On ch=13 n=77 v=127
98610 On ch=13 n=77 v=0
98640 On ch=13 n=77 v=127
98730 On ch=13 n=77 v=0
98760 On ch=13 n=77 v=127
98850 On ch=13 n=77 v=0
98880 On ch=13 n=76 v=127
99090 On ch=13 n=76 v=0
99120 On ch=13 n=72 v=127
99330 On ch=13 n=72 v=0
99360 On ch=13 n=76 v=127
99450 On ch=13 n=76 v=0
99480 On ch=13 n=76 v=127
99570 On ch=13 n=76 v=0
99600 On ch=13 n=76 v=127
99690 On ch=13 n=76 v=0
99720 On ch=13 n=76 v=127
99810 On ch=13 n=76 v=0
99840 On ch=13 n=71 v=127
100050 On ch=13 n=71 v=0
100080 On ch=13 n=73 v=127
100290 On ch=13 n=73 v=0
100320 On ch=13 n=74 v=127
100530 On ch=13 n=74 v=0
100560 On ch=13 n=76 v=127
100770 On ch=13 n=76 v=0
100800 On ch=13 n=78 v=127
101010 On ch=13 n=78 v=0
101040 On ch=13 n=74 v=127
101250 On ch=13 n=74 v=0
101280 On ch=13 n=78 v=127
101490 On ch=13 n=78 v=0
101520 On ch=13 n=83 v=127
101730 On ch=13 n=83 v=0
101760 On ch=13 n=81 v=127
101970 On ch=13 n=81 v=0
102000 On ch=13 n=78 v=127
102210 On ch=13 n=78 v=0
102240 On ch=13 n=74 v=127
102450 On ch=13 n=74 v=0
102480 On ch=13 n=78 v=127
102690 On ch=13 n=78 v=0
102720 On ch=13 n=81 v=127
102810 On ch=13 n=81 v=0
102840 On ch=13 n=81 v=127
102930 On ch=13 n=81 v=0
102960 On ch=13 n=81 v=127
103050 On ch=13 n=81 v=0
103080 On ch=13 n=81 v=127
103170 On ch=13 n=81 v=0
103200 On ch=13 n=81 v=127
103290 On ch=13 n=81 v=0
103320 On ch=13 n=81 v=127
103410 On ch=13 n=81 v=0
103440 On ch=13 n=81 v=127
103530 On ch=13 n=81 v=0
103560 On ch=13 n=81 v=127
103650 On ch=13 n=81 v=0
103680 On ch=13 n=71 v=127
103890 On ch=13 n=71 v=0
103920 On ch=13 n=73 v=127
104130 On ch=13 n=73 v=0
104160 On ch=13 n=74 v=127
104370 On ch=13 n=74 v=0
104400 On ch=13 n=76 v=127
104610 On ch=13 n=76 v=0
104640 On ch=13 n=78 v=127
104850 On ch=13 n=78 v=0
104880 On ch=13 n=74 v=127
105090 On ch=13 n=74 v=0
105120 On ch=13 n=78 v=127
105210 On ch=13 n=78 v=0
105240 On ch=13 n=78 v=127
105330 On ch=13 n=78 v=0
105360 On ch=13 n=78 v=127
105450 On ch=13 n=78 v=0
105480 On ch=13 n=78 v=127
105570 On ch=13 n=78 v=0
105600 On ch=13 n=77 v=127
105810 On ch=13 n=77 v=0
105840 On ch=13 n=73 v=127
106050 On ch=13 n=73 v=0
106080 On ch=13 n=77 v=127
106170 On ch=13 n=77 v=0
106200 On ch=13 n=77 v=127
106290 On ch=13 n=77 v=0
106320 On ch=13 n=77 v=127
106410 On ch=13 n=77 v=0
106440 On ch=13 n=77 v=127
106530 On ch=13 n=77 v=0
106560 On ch=13 n=76 v=127
106770 On ch=13 n=76 v=0
106800 On ch=13 n=72 v=127
107010 On ch=13 n=72 v=0
107040 On ch=13 n=76 v=127
107130 On ch=13 n=76 v=0
107160 On ch=13 n=76 v=127
107250 On ch=13 n=76 v=0
107280 On ch=13 n=76 v=127
107370 On ch=13 n=76 v=0
107400 On ch=13 n=76 v=127
107490 On ch=13 n=76 v=0
107520 On ch=13 n=71 v=127
107730 On ch=13 n=71 v=0
107760 On ch=13 n=73 v=127
107970 On ch=13 n=73 v=0
108000 On ch=13 n=74 v=127
108210 On ch=13 n=74 v=0
108240 On ch=13 n=76 v=127
108450 On ch=13 n=76 v=0
108480 On ch=13 n=78 v=127
108690 On ch=13 n=78 v=0
108720 On ch=13 n=74 v=127
108930 On ch=13 n=74 v=0
108960 On ch=13 n=78 v=127
109170 On ch=13 n=78 v=0
109200 On ch=13 n=83 v=127
109410 On ch=13 n=83 v=0
109440 On ch=13 n=81 v=127
109650 On ch=13 n=81 v=0
109680 On ch=13 n=78 v=127
109890 On ch=13 n=78 v=0
109920 On ch=13 n=74 v=127
110130 On ch=13 n=74 v=0
110160 On ch=13 n=78 v=127
110370 On ch=13 n=78 v=0
110400 On ch=13 n=81 v=127
110490 On ch=13 n=81 v=0
110520 On ch=13 n=81 v=127
110610 On ch=13 n=81 v=0
110640 On ch=13 n=81 v=127
110730 On ch=13 n=81 v=0
110760 On ch=13 n=81 v=127
110850 On ch=13 n=81 v=0
110880 On ch=13 n=81 v=127
110970 On ch=13 n=81 v=0
111000 On ch=13 n=81 v=127
111090 On ch=13 n=81 v=0
111120 On ch=13 n=81 v=127
111210 On ch=13 n=81 v=0
111240 On ch=13 n=81 v=127
111330 On ch=13 n=81 v=0
111360 On ch=13 n=78 v=127
111570 On ch=13 n=78 v=0
111600 On ch=13 n=80 v=127
111810 On ch=13 n=80 v=0
111840 On ch=13 n=82 v=127
112050 On ch=13 n=82 v=0
112080 On ch=13 n=83 v=127
112290 On ch=13 n=83 v=0
112320 On ch=13 n=85 v=127
112530 On ch=13 n=85 v=0
112560 On ch=13 n=82 v=127
112770 On ch=13 n=82 v=0
112800 On ch=13 n=85 v=127
112890 On ch=13 n=85 v=0
112920 On ch=13 n=85 v=127
113010 On ch=13 n=85 v=0
113040 On ch=13 n=85 v=127
113130 On ch=13 n=85 v=0
113160 On ch=13 n=85 v=127
113250 On ch=13 n=85 v=0
113280 On ch=13 n=86 v=127
113490 On ch=13 n=86 v=0
113520 On ch=13 n=82 v=127
113730 On ch=13 n=82 v=0
113760 On ch=13 n=86 v=127
113850 On ch=13 n=86 v=0
113880 On ch=13 n=86 v=127
113970 On ch=13 n=86 v=0
114000 On ch=13 n=86 v=127
114090 On ch=13 n=86 v=0
114120 On ch=13 n=86 v=127
114210 On ch=13 n=86 v=0
114240 On ch=13 n=85 v=127
114450 On ch=13 n=85 v=0
114480 On ch=13 n=82 v=127
114690 On ch=13 n=82 v=0
114720 On ch=13 n=85 v=127
114810 On ch=13 n=85 v=0
114840 On ch=13 n=85 v=127
114930 On ch=13 n=85 v=0
114960 On ch=13 n=85 v=127
115050 On ch=13 n=85 v=0
115080 On ch=13 n=85 v=127
115170 On ch=13 n=85 v=0
115200 On ch=13 n=78 v=127
115410 On ch=13 n=78 v=0
115440 On ch=13 n=80 v=127
115650 On ch=13 n=80 v=0
115680 On ch=13 n=82 v=127
115890 On ch=13 n=82 v=0
115920 On ch=13 n=83 v=127
116130 On ch=13 n=83 v=0
116160 On ch=13 n=85 v=127
116370 On ch=13 n=85 v=0
116400 On ch=13 n=82 v=127
116610 On ch=13 n=82 v=0
116640 On ch=13 n=85 v=127
116730 On ch=13 n=85 v=0
116760 On ch=13 n=85 v=127
116850 On ch=13 n=85 v=0
116880 On ch=13 n=85 v=127
116970 On ch=13 n=85 v=0
117000 On ch=13 n=85 v=127
117090 On ch=13 n=85 v=0
117120 On ch=13 n=86 v=127
117330 On ch=13 n=86 v=0
117360 On ch=13 n=82 v=127
117570 On ch=13 n=82 v=0
117600 On ch=13 n=86 v=127
117690 On ch=13 n=86 v=0
117720 On ch=13 n=86 v=127
117810 On ch=13 n=86 v=0
117840 On ch=13 n=86 v=127
117930 On ch=13 n=86 v=0
117960 On ch=13 n=86 v=127
118050 On ch=13 n=86 v=0
118080 On ch=13 n=85 v=127
118170 On ch=13 n=85 v=0
118200 On ch=13 n=85 v=127
118290 On ch=13 n=85 v=0
118320 On ch=13 n=85 v=127
118410 On ch=13 n=85 v=0
118440 On ch=13 n=85 v=127
118530 On ch=13 n=85 v=0
118560 On ch=13 n=85 v=127
118650 On ch=13 n=85 v=0
118680 On ch=13 n=85 v=127
118770 On ch=13 n=85 v=0
118800 On ch=13 n=85 v=127
118890 On ch=13 n=85 v=0
118920 On ch=13 n=85 v=127
119010 On ch=13 n=85 v=0
119040 On ch=13 n=78 v=127
119250 On ch=13 n=78 v=0
119280 On ch=13 n=80 v=127
119490 On ch=13 n=80 v=0
119520 On ch=13 n=82 v=127
119730 On ch=13 n=82 v=0
119760 On ch=13 n=83 v=127
119970 On ch=13 n=83 v=0
120000 On ch=13 n=85 v=127
120210 On ch=13 n=85 v=0
120240 On ch=13 n=82 v=127
120450 On ch=13 n=82 v=0
120480 On ch=13 n=85 v=127
120570 On ch=13 n=85 v=0
120600 On ch=13 n=85 v=127
120690 On ch=13 n=85 v=0
120720 On ch=13 n=85 v=127
120810 On ch=13 n=85 v=0
120840 On ch=13 n=85 v=127
120930 On ch=13 n=85 v=0
120960 On ch=13 n=87 v=127
121170 On ch=13 n=87 v=0
121200 On ch=13 n=82 v=127
121410 On ch=13 n=82 v=0
121440 On ch=13 n=87 v=127
121530 On ch=13 n=87 v=0
121560 On ch=13 n=87 v=127
121650 On ch=13 n=87 v=0
121680 On ch=13 n=87 v=127
121770 On ch=13 n=87 v=0
121800 On ch=13 n=87 v=127
121890 On ch=13 n=87 v=0
121920 On ch=13 n=85 v=127
122130 On ch=13 n=85 v=0
122160 On ch=13 n=82 v=127
122370 On ch=13 n=82 v=0
122400 On ch=13 n=85 v=127
122490 On ch=13 n=85 v=0
122520 On ch=13 n=85 v=127
122610 On ch=13 n=85 v=0
122640 On ch=13 n=85 v=127
122730 On ch=13 n=85 v=0
122760 On ch=13 n=85 v=127
122850 On ch=13 n=85 v=0
122880 On ch=13 n=78 v=127
123090 On ch=13 n=78 v=0
123120 On ch=13 n=80 v=127
123330 On ch=13 n=80 v=0
123360 On ch=13 n=82 v=127
123570 On ch=13 n=82 v=0
123600 On ch=13 n=83 v=127
123810 On ch=13 n=83 v=0
123840 On ch=13 n=85 v=127
124050 On ch=13 n=85 v=0
124080 On ch=13 n=82 v=127
124290 On ch=13 n=82 v=0
124320 On ch=13 n=85 v=127
124410 On ch=13 n=85 v=0
124440 On ch=13 n=85 v=127
124530 On ch=13 n=85 v=0
124560 On ch=13 n=85 v=127
124650 On ch=13 n=85 v=0
124680 On ch=13 n=85 v=127
124770 On ch=13 n=85 v=0
124800 On ch=13 n=87 v=127
125010 On ch=13 n=87 v=0
125040 On ch=13 n=82 v=127
125250 On ch=13 n=82 v=0
125280 On ch=13 n=87 v=127
125370 On ch=13 n=87 v=0
125400 On ch=13 n=87 v=127
125490 On ch=13 n=87 v=0
125520 On ch=13 n=87 v=127
125610 On ch=13 n=87 v=0
125640 On ch=13 n=87 v=127
125730 On ch=13 n=87 v=0
125760 On ch=13 n=85 v=127
125850 On ch=13 n=85 v=0
125880 On ch=13 n=85 v=127
125970 On ch=13 n=85 v=0
126000 On ch=13 n=85 v=127
126090 On ch=13 n=85 v=0
126120 On ch=13 n=85 v=127
126210 On ch=13 n=85 v=0
126240 On ch=13 n=85 v=127
126330 On ch=13 n=85 v=0
126360 On ch=13 n=85 v=127
126450 On ch=13 n=85 v=0
126480 On ch=13 n=85 v=127
126570 On ch=13 n=85 v=0
126600 On ch=13 n=85 v=127
126690 On ch=13 n=85 v=0
126720 On ch=13 n=71 v=127
126930 On ch=13 n=71 v=0
126960 On ch=13 n=73 v=127
127170 On ch=13 n=73 v=0
127200 On ch=13 n=74 v=127
127410 On ch=13 n=74 v=0
127440 On ch=13 n=76 v=127
127650 On ch=13 n=76 v=0
127680 On ch=13 n=78 v=127
127890 On ch=13 n=78 v=0
127920 On ch=13 n=74 v=127
128130 On ch=13 n=74 v=0
128160 On ch=13 n=78 v=127
128250 On ch=13 n=78 v=0
128280 On ch=13 n=78 v=127
128370 On ch=13 n=78 v=0
128400 On ch=13 n=78 v=127
128490 On ch=13 n=78 v=0
128520 On ch=13 n=78 v=127
128610 On ch=13 n=78 v=0
128640 On ch=13 n=77 v=127
128850 On ch=13 n=77 v=0
128880 On ch=13 n=73 v=127
129090 On ch=13 n=73 v=0
129120 On ch=13 n=77 v=127
129210 On ch=13 n=77 v=0
129240 On ch=13 n=77 v=127
129330 On ch=13 n=77 v=0
129360 On ch=13 n=77 v=127
129450 On ch=13 n=77 v=0
129480 On ch=13 n=77 v=127
129570 On ch=13 n=77 v=0
129600 On ch=13 n=76 v=127
129810 On ch=13 n=76 v=0
129840 On ch=13 n=72 v=127
130050 On ch=13 n=72 v=0
130080 On ch=13 n=76 v=127
130170 On ch=13 n=76 v=0
130200 On ch=13 n=76 v=127
130290 On ch=13 n=76 v=0
130320 On ch=13 n=76 v=127
130410 On ch=13 n=76 v=0
130440 On ch=13 n=76 v=127
130530 On ch=13 n=76 v=0
130560 On ch=13 n=71 v=127
130770 On ch=13 n=71 v=0
130800 On ch=13 n=73 v=127
131010 On ch=13 n=73 v=0
131040 On ch=13 n=74 v=127
131250 On ch=13 n=74 v=0
131280 On ch=13 n=76 v=127
131490 On ch=13 n=76 v=0
131520 On ch=13 n=78 v=127
131730 On ch=13 n=78 v=0
131760 On ch=13 n=74 v=127
131970 On ch=13 n=74 v=0
132000 On ch=13 n=78 v=127
132210 On ch=13 n=78 v=0
132240 On ch=13 n=83 v=127
132450 On ch=13 n=83 v=0
132480 On ch=13 n=81 v=127
132690 On ch=13 n=81 v=0
132720 On ch=13 n=78 v=127
132930 On ch=13 n=78 v=0
132960 On ch=13 n=74 v=127
133170 On ch=13 n=74 v=0
133200 On ch=13 n=78 v=127
133410 On ch=13 n=78 v=0
133440 On ch=13 n=81 v=127
133530 On ch=13 n=81 v=0
133560 On ch=13 n=81 v=127
133650 On ch=13 n=81 v=0
133680 On ch=13 n=81 v=127
133770 On ch=13 n=81 v=0
133800 On ch=13 n=81 v=127
133890 On ch=13 n=81 v=0
133920 On ch=13 n=81 v=127
134010 On ch=13 n=81 v=0
134040 On ch=13 n=81 v=127
134130 On ch=13 n=81 v=0
134160 On ch=13 n=81 v=127
134250 On ch=13 n=81 v=0
134280 On ch=13 n=81 v=127
134370 On ch=13 n=81 v=0
134400 On ch=13 n=71 v=127
134610 On ch=13 n=71 v=0
134640 On ch=13 n=73 v=127
134850 On ch=13 n=73 v=0
134880 On ch=13 n=74 v=127
135090 On ch=13 n=74 v=0
135120 On ch=13 n=76 v=127
135330 On ch=13 n=76 v=0
135360 On ch=13 n=78 v=127
135570 On ch=13 n=78 v=0
135600 On ch=13 n=74 v=127
135810 On ch=13 n=74 v=0
135840 On ch=13 n=78 v=127
135930 On ch=13 n=78 v=0
135960 On ch=13 n=78 v=127
136050 On ch=13 n=78 v=0
136080 On ch=13 n=78 v=127
136170 On ch=13 n=78 v=0
136200 On ch=13 n=78 v=127
136290 On ch=13 n=78 v=0
136320 On ch=13 n=77 v=127
136530 On ch=13 n=77 v=0
136560 On ch=13 n=73 v=127
136770 On ch=13 n=73 v=0
136800 On ch=13 n=77 v=127
136890 On ch=13 n=77 v=0
136920 On ch=13 n=77 v=127
137010 On ch=13 n=77 v=0
137040 On ch=13 n=77 v=127
137130 On ch=13 n=77 v=0
137160 On ch=13 n=77 v=127
137250 On ch=13 n=77 v=0
137340 On ch=13 n=76 v=127
137550 On ch=13 n=76 v=0
137580 On ch=13 n=72 v=127
137760 On ch=13 n=76 v=127
137790 On ch=13 n=72 v=0
137850 On ch=13 n=76 v=0
137880 On ch=13 n=76 v=127
137970 On ch=13 n=76 v=0
138000 On ch=13 n=76 v=127
138090 On ch=13 n=76 v=0
138120 On ch=13 n=76 v=127
138210 On ch=13 n=76 v=0
138240 On ch=13 n=71 v=127
138450 On ch=13 n=71 v=0
138480 On ch=13 n=73 v=127
138690 On ch=13 n=73 v=0
138720 On ch=13 n=74 v=127
138930 On ch=13 n=74 v=0
138960 On ch=13 n=76 v=127
139170 On ch=13 n=76 v=0
139200 On ch=13 n=78 v=127
139410 On ch=13 n=78 v=0
139440 On ch=13 n=74 v=127
139650 On ch=13 n=74 v=0
139680 On ch=13 n=78 v=127
139890 On ch=13 n=78 v=0
139920 On ch=13 n=83 v=127
140130 On ch=13 n=83 v=0
140160 On ch=13 n=78 v=127
140370 On ch=13 n=78 v=0
140400 On ch=13 n=74 v=127
140610 On ch=13 n=74 v=0
140640 On ch=13 n=78 v=127
140850 On ch=13 n=78 v=0
140880 On ch=13 n=83 v=127
141090 On ch=13 n=83 v=0
141120 On ch=13 n=71 v=127
141210 On ch=13 n=71 v=0
141240 On ch=13 n=71 v=127
141330 On ch=13 n=71 v=0
141360 On ch=13 n=71 v=127
141450 On ch=13 n=71 v=0
141480 On ch=13 n=71 v=127
141570 On ch=13 n=71 v=0
141600 On ch=13 n=71 v=127
141690 On ch=13 n=71 v=0
141720 On ch=13 n=71 v=127
141810 On ch=13 n=71 v=0
141840 On ch=13 n=71 v=127
141930 On ch=13 n=71 v=0
141960 On ch=13 n=71 v=127
142050 On ch=13 n=71 v=0
142560 On ch=13 n=80 v=127
142620 On ch=13 n=81 v=127
142635 On ch=13 n=80 v=0
142680 On ch=13 n=82 v=127
142695 On ch=13 n=81 v=0
142740 On ch=13 n=83 v=127
142755 On ch=13 n=82 v=0
142860 On ch=13 n=83 v=0
144480 On ch=13 n=80 v=127
144540 On ch=13 n=81 v=127
144555 On ch=13 n=80 v=0
144600 On ch=13 n=82 v=127
144615 On ch=13 n=81 v=0
144660 On ch=13 n=83 v=127
144675 On ch=13 n=82 v=0
144780 On ch=13 n=83 v=0
150240 On ch=13 n=80 v=127
150300 On ch=13 n=81 v=127
150315 On ch=13 n=80 v=0
150360 On ch=13 n=82 v=127
150375 On ch=13 n=81 v=0
150420 On ch=13 n=83 v=127
150435 On ch=13 n=82 v=0
150540 On ch=13 n=83 v=0
152160 On ch=13 n=80 v=127
152220 On ch=13 n=81 v=127
152235 On ch=13 n=80 v=0
152280 On ch=13 n=82 v=127
152295 On ch=13 n=81 v=0
152340 On ch=13 n=83 v=127
152355 On ch=13 n=82 v=0
152460 On ch=13 n=83 v=0
153600 On ch=13 n=71 v=80
153810 On ch=13 n=71 v=0
153840 On ch=13 n=73 v=83
154050 On ch=13 n=73 v=0
154080 On ch=13 n=74 v=87
154290 On ch=13 n=74 v=0
154320 On ch=13 n=76 v=91
154530 On ch=13 n=76 v=0
154560 On ch=13 n=78 v=95
154770 On ch=13 n=78 v=0
154800 On ch=13 n=74 v=99
155010 On ch=13 n=74 v=0
155040 On ch=13 n=78 v=103
155250 On ch=13 n=78 v=0
155280 On ch=13 n=83 v=107
155490 On ch=13 n=83 v=0
155520 On ch=13 n=82 v=111
155730 On ch=13 n=82 v=0
155760 On ch=13 n=78 v=115
155970 On ch=13 n=78 v=0
156000 On ch=13 n=82 v=119
156210 On ch=13 n=82 v=0
156240 On ch=13 n=85 v=123
156450 On ch=13 n=85 v=0
156480 On ch=13 n=83 v=127
156570 On ch=13 n=83 v=0
156600 On ch=13 n=83 v=127
156690 On ch=13 n=83 v=0
156720 On ch=13 n=83 v=127
156810 On ch=13 n=83 v=0
156840 On ch=13 n=83 v=127
156930 On ch=13 n=83 v=0
156960 On ch=13 n=83 v=127
157050 On ch=13 n=83 v=0
157080 On ch=13 n=83 v=127
157170 On ch=13 n=83 v=0
157200 On ch=13 n=83 v=127
157290 On ch=13 n=83 v=0
157320 On ch=13 n=83 v=127
157410 On ch=13 n=83 v=0
157920 On ch=13 n=80 v=127
157980 On ch=13 n=81 v=127
157995 On ch=13 n=80 v=0
158040 On ch=13 n=82 v=127
158055 On ch=13 n=81 v=0
158100 On ch=13 n=83 v=127
158115 On ch=13 n=82 v=0
158220 On ch=13 n=83 v=0
159840 On ch=13 n=80 v=127
159900 On ch=13 n=81 v=127
159915 On ch=13 n=80 v=0
159960 On ch=13 n=82 v=127
159975 On ch=13 n=81 v=0
160020 On ch=13 n=83 v=127
160035 On ch=13 n=82 v=0
160140 On ch=13 n=83 v=0
161760 On ch=13 n=80 v=51
161820 On ch=13 n=81 v=53
161835 On ch=13 n=80 v=0
161880 On ch=13 n=82 v=54
161895 On ch=13 n=81 v=0
161940 On ch=13 n=83 v=56
161955 On ch=13 n=82 v=0
162060 On ch=13 n=83 v=0
162240 On ch=13 n=80 v=63
162300 On ch=13 n=81 v=65
162315 On ch=13 n=80 v=0
162360 On ch=13 n=82 v=66
162375 On ch=13 n=81 v=0
162420 On ch=13 n=83 v=68
162435 On ch=13 n=82 v=0
162540 On ch=13 n=83 v=0
162720 On ch=13 n=80 v=75
162780 On ch=13 n=81 v=76
162795 On ch=13 n=80 v=0
162840 On ch=13 n=82 v=78
162855 On ch=13 n=81 v=0
162900 On ch=13 n=83 v=79
162915 On ch=13 n=82 v=0
163020 On ch=13 n=83 v=0
163200 On ch=13 n=80 v=87
163260 On ch=13 n=81 v=88
163275 On ch=13 n=80 v=0
163320 On ch=13 n=82 v=90
163335 On ch=13 n=81 v=0
163380 On ch=13 n=83 v=91
163395 On ch=13 n=82 v=0
163500 On ch=13 n=83 v=0
163680 On ch=13 n=80 v=98
163740 On ch=13 n=81 v=100
163755 On ch=13 n=80 v=0
163800 On ch=13 n=82 v=101
163815 On ch=13 n=81 v=0
163860 On ch=13 n=83 v=103
163875 On ch=13 n=82 v=0
163980 On ch=13 n=83 v=0
164160 On ch=13 n=80 v=110
164220 On ch=13 n=81 v=112
164235 On ch=13 n=80 v=0
164280 On ch=13 n=82 v=113
164295 On ch=13 n=81 v=0
164340 On ch=13 n=83 v=115
164355 On ch=13 n=82 v=0
164460 On ch=13 n=83 v=0
164640 On ch=13 n=80 v=122
164700 On ch=13 n=81 v=124
164715 On ch=13 n=80 v=0
164760 On ch=13 n=82 v=125
164775 On ch=13 n=81 v=0
164820 On ch=13 n=83 v=127
164835 On ch=13 n=82 v=0
164940 On ch=13 n=83 v=0
168480 Par ch=13 c=11 v=100
169440 On ch=13 n=80 v=127
169500 On ch=13 n=81 v=127
169515 On ch=13 n=80 v=0
169560 On ch=13 n=82 v=127
169575 On ch=13 n=81 v=0
169620 On ch=13 n=83 v=127
169635 On ch=13 n=82 v=0
169830 On ch=13 n=83 v=0
169830 Meta TrkEnd
TrkEnd
MTrk
0 Meta 0x20 13
0 Meta TrkName "Viola   "
0 Meta InstrName "Viole   "
50400 On ch=14 n=54 v=75
50520 On ch=14 n=53 v=60
50550 On ch=14 n=54 v=0
50640 On ch=14 n=54 v=60
50670 On ch=14 n=53 v=0
50850 On ch=14 n=54 v=0
51360 On ch=14 n=54 v=75
51480 On ch=14 n=53 v=60
51510 On ch=14 n=54 v=0
51600 On ch=14 n=54 v=60
51630 On ch=14 n=53 v=0
51810 On ch=14 n=54 v=0
52320 On ch=14 n=54 v=75
52440 On ch=14 n=53 v=60
52470 On ch=14 n=54 v=0
52560 On ch=14 n=54 v=60
52590 On ch=14 n=53 v=0
52770 On ch=14 n=54 v=0
53280 On ch=14 n=54 v=75
53400 On ch=14 n=53 v=60
53430 On ch=14 n=54 v=0
53520 On ch=14 n=54 v=60
53550 On ch=14 n=53 v=0
53730 On ch=14 n=54 v=0
54240 On ch=14 n=54 v=75
54360 On ch=14 n=53 v=60
54390 On ch=14 n=54 v=0
54480 On ch=14 n=54 v=60
54510 On ch=14 n=53 v=0
54690 On ch=14 n=54 v=0
55200 On ch=14 n=54 v=75
55320 On ch=14 n=53 v=60
55350 On ch=14 n=54 v=0
55440 On ch=14 n=54 v=60
55470 On ch=14 n=53 v=0
55650 On ch=14 n=54 v=0
56160 On ch=14 n=57 v=75
56280 On ch=14 n=56 v=60
56310 On ch=14 n=57 v=0
56400 On ch=14 n=57 v=60
56430 On ch=14 n=56 v=0
56610 On ch=14 n=57 v=0
57120 On ch=14 n=57 v=75
57240 On ch=14 n=56 v=60
57270 On ch=14 n=57 v=0
57360 On ch=14 n=57 v=60
57390 On ch=14 n=56 v=0
57570 On ch=14 n=57 v=0
58080 On ch=14 n=54 v=75
58176 On ch=14 n=55 v=60
58185 On ch=14 n=54 v=0
58272 On ch=14 n=54 v=60
58281 On ch=14 n=55 v=0
58368 On ch=14 n=53 v=60
58377 On ch=14 n=54 v=0
58464 On ch=14 n=54 v=60
58473 On ch=14 n=53 v=0
58569 On ch=14 n=54 v=0
59040 On ch=14 n=54 v=75
59136 On ch=14 n=55 v=60
59145 On ch=14 n=54 v=0
59232 On ch=14 n=54 v=60
59241 On ch=14 n=55 v=0
59328 On ch=14 n=53 v=60
59337 On ch=14 n=54 v=0
59424 On ch=14 n=54 v=60
59433 On ch=14 n=53 v=0
59529 On ch=14 n=54 v=0
60000 On ch=14 n=54 v=75
60096 On ch=14 n=55 v=60
60105 On ch=14 n=54 v=0
60192 On ch=14 n=54 v=60
60201 On ch=14 n=55 v=0
60288 On ch=14 n=53 v=60
60297 On ch=14 n=54 v=0
60384 On ch=14 n=54 v=60
60393 On ch=14 n=53 v=0
60489 On ch=14 n=54 v=0
60960 On ch=14 n=54 v=75
61056 On ch=14 n=55 v=60
61065 On ch=14 n=54 v=0
61152 On ch=14 n=54 v=60
61161 On ch=14 n=55 v=0
61248 On ch=14 n=53 v=60
61257 On ch=14 n=54 v=0
61344 On ch=14 n=54 v=60
61353 On ch=14 n=53 v=0
61449 On ch=14 n=54 v=0
61920 On ch=14 n=54 v=75
62016 On ch=14 n=55 v=60
62025 On ch=14 n=54 v=0
62112 On ch=14 n=54 v=60
62121 On ch=14 n=55 v=0
62208 On ch=14 n=53 v=60
62217 On ch=14 n=54 v=0
62304 On ch=14 n=54 v=60
62313 On ch=14 n=53 v=0
62409 On ch=14 n=54 v=0
62880 On ch=14 n=54 v=75
62976 On ch=14 n=55 v=60
62985 On ch=14 n=54 v=0
63072 On ch=14 n=54 v=60
63081 On ch=14 n=55 v=0
63168 On ch=14 n=53 v=60
63177 On ch=14 n=54 v=0
63264 On ch=14 n=54 v=60
63273 On ch=14 n=53 v=0
63369 On ch=14 n=54 v=0
63840 On ch=14 n=57 v=75
63936 On ch=14 n=59 v=60
63945 On ch=14 n=57 v=0
64032 On ch=14 n=57 v=60
64041 On ch=14 n=59 v=0
64128 On ch=14 n=56 v=60
64137 On ch=14 n=57 v=0
64224 On ch=14 n=57 v=60
64233 On ch=14 n=56 v=0
64329 On ch=14 n=57 v=0
64800 On ch=14 n=57 v=75
64896 On ch=14 n=59 v=60
64905 On ch=14 n=57 v=0
64992 On ch=14 n=57 v=60
65001 On ch=14 n=59 v=0
65088 On ch=14 n=56 v=60
65097 On ch=14 n=57 v=0
65184 On ch=14 n=57 v=60
65193 On ch=14 n=56 v=0
65289 On ch=14 n=57 v=0
65760 On ch=14 n=49 v=60
65880 On ch=14 n=48 v=60
65910 On ch=14 n=49 v=0
66000 On ch=14 n=49 v=60
66030 On ch=14 n=48 v=0
66210 On ch=14 n=49 v=0
66720 On ch=14 n=49 v=61
66840 On ch=14 n=48 v=61
66870 On ch=14 n=49 v=0
66960 On ch=14 n=49 v=61
66990 On ch=14 n=48 v=0
67170 On ch=14 n=49 v=0
67680 On ch=14 n=50 v=61
67800 On ch=14 n=49 v=61
67830 On ch=14 n=50 v=0
67920 On ch=14 n=50 v=61
67950 On ch=14 n=49 v=0
68130 On ch=14 n=50 v=0
68640 On ch=14 n=49 v=62
68760 On ch=14 n=48 v=62
68790 On ch=14 n=49 v=0
68880 On ch=14 n=49 v=62
68910 On ch=14 n=48 v=0
69090 On ch=14 n=49 v=0
69600 On ch=14 n=49 v=63
69720 On ch=14 n=48 v=63
69750 On ch=14 n=49 v=0
69840 On ch=14 n=49 v=63
69870 On ch=14 n=48 v=0
70050 On ch=14 n=49 v=0
70560 On ch=14 n=49 v=63
70680 On ch=14 n=48 v=64
70710 On ch=14 n=49 v=0
70800 On ch=14 n=49 v=64
70830 On ch=14 n=48 v=0
71010 On ch=14 n=49 v=0
71520 On ch=14 n=50 v=64
71640 On ch=14 n=49 v=64
71670 On ch=14 n=50 v=0
71760 On ch=14 n=50 v=64
71790 On ch=14 n=49 v=0
71970 On ch=14 n=50 v=0
72480 On ch=14 n=49 v=65
72600 On ch=14 n=48 v=65
72630 On ch=14 n=49 v=0
72720 On ch=14 n=49 v=65
72750 On ch=14 n=48 v=0
72930 On ch=14 n=49 v=0
73440 On ch=14 n=49 v=66
73536 On ch=14 n=50 v=66
73545 On ch=14 n=49 v=0
73632 On ch=14 n=49 v=66
73641 On ch=14 n=50 v=0
73728 On ch=14 n=48 v=66
73737 On ch=14 n=49 v=0
73824 On ch=14 n=49 v=66
73833 On ch=14 n=48 v=0
73929 On ch=14 n=49 v=0
74400 On ch=14 n=49 v=66
74496 On ch=14 n=50 v=66
74505 On ch=14 n=49 v=0
74592 On ch=14 n=49 v=66
74601 On ch=14 n=50 v=0
74688 On ch=14 n=48 v=67
74697 On ch=14 n=49 v=0
74784 On ch=14 n=49 v=67
74793 On ch=14 n=48 v=0
74889 On ch=14 n=49 v=0
75360 On ch=14 n=50 v=67
75456 On ch=14 n=52 v=67
75465 On ch=14 n=50 v=0
75552 On ch=14 n=50 v=67
75561 On ch=14 n=52 v=0
75648 On ch=14 n=49 v=67
75657 On ch=14 n=50 v=0
75744 On ch=14 n=50 v=67
75753 On ch=14 n=49 v=0
75849 On ch=14 n=50 v=0
76320 On ch=14 n=49 v=68
76416 On ch=14 n=50 v=68
76425 On ch=14 n=49 v=0
76512 On ch=14 n=49 v=68
76521 On ch=14 n=50 v=0
76608 On ch=14 n=48 v=68
76617 On ch=14 n=49 v=0
76704 On ch=14 n=49 v=68
76713 On ch=14 n=48 v=0
76809 On ch=14 n=49 v=0
77280 On ch=14 n=49 v=68
77376 On ch=14 n=50 v=69
77385 On ch=14 n=49 v=0
77472 On ch=14 n=49 v=69
77481 On ch=14 n=50 v=0
77568 On ch=14 n=48 v=69
77577 On ch=14 n=49 v=0
77664 On ch=14 n=49 v=69
77673 On ch=14 n=48 v=0
77769 On ch=14 n=49 v=0
78240 On ch=14 n=49 v=69
78336 On ch=14 n=50 v=69
78345 On ch=14 n=49 v=0
78432 On ch=14 n=49 v=69
78441 On ch=14 n=50 v=0
78528 On ch=14 n=48 v=69
78537 On ch=14 n=49 v=0
78624 On ch=14 n=49 v=69
78633 On ch=14 n=48 v=0
78729 On ch=14 n=49 v=0
79200 On ch=14 n=50 v=70
79296 On ch=14 n=52 v=70
79305 On ch=14 n=50 v=0
79392 On ch=14 n=50 v=70
79401 On ch=14 n=52 v=0
79488 On ch=14 n=49 v=70
79497 On ch=14 n=50 v=0
79584 On ch=14 n=50 v=70
79593 On ch=14 n=49 v=0
79689 On ch=14 n=50 v=0
80160 On ch=14 n=49 v=71
80256 On ch=14 n=50 v=71
80265 On ch=14 n=49 v=0
80352 On ch=14 n=49 v=71
80361 On ch=14 n=50 v=0
80448 On ch=14 n=48 v=71
80457 On ch=14 n=49 v=0
80544 On ch=14 n=49 v=71
80553 On ch=14 n=48 v=0
80649 On ch=14 n=49 v=0
81120 On ch=14 n=54 v=71
81240 On ch=14 n=53 v=71
81270 On ch=14 n=54 v=0
81360 On ch=14 n=54 v=71
81390 On ch=14 n=53 v=0
81570 On ch=14 n=54 v=0
82080 On ch=14 n=54 v=72
82200 On ch=14 n=53 v=72
82230 On ch=14 n=54 v=0
82320 On ch=14 n=54 v=72
82350 On ch=14 n=53 v=0
82530 On ch=14 n=54 v=0
83040 On ch=14 n=54 v=73
83160 On ch=14 n=53 v=73
83190 On ch=14 n=54 v=0
83280 On ch=14 n=54 v=73
83310 On ch=14 n=53 v=0
83490 On ch=14 n=54 v=0
84000 On ch=14 n=54 v=73
84120 On ch=14 n=53 v=74
84150 On ch=14 n=54 v=0
84240 On ch=14 n=54 v=74
84270 On ch=14 n=53 v=0
84450 On ch=14 n=54 v=0
84960 On ch=14 n=54 v=74
85080 On ch=14 n=53 v=74
85110 On ch=14 n=54 v=0
85200 On ch=14 n=54 v=74
85230 On ch=14 n=53 v=0
85410 On ch=14 n=54 v=0
85920 On ch=14 n=54 v=75
86040 On ch=14 n=53 v=75
86070 On ch=14 n=54 v=0
86160 On ch=14 n=54 v=75
86190 On ch=14 n=53 v=0
86370 On ch=14 n=54 v=0
86880 On ch=14 n=57 v=76
87000 On ch=14 n=56 v=76
87030 On ch=14 n=57 v=0
87120 On ch=14 n=57 v=76
87150 On ch=14 n=56 v=0
87330 On ch=14 n=57 v=0
87840 On ch=14 n=57 v=76
87960 On ch=14 n=56 v=76
87990 On ch=14 n=57 v=0
88080 On ch=14 n=57 v=76
88110 On ch=14 n=56 v=0
88290 On ch=14 n=57 v=0
88320 On ch=14 n=54 v=77
88416 On ch=14 n=55 v=77
88425 On ch=14 n=54 v=0
88512 On ch=14 n=54 v=77
88521 On ch=14 n=55 v=0
88608 On ch=14 n=53 v=77
88617 On ch=14 n=54 v=0
88704 On ch=14 n=54 v=77
88713 On ch=14 n=53 v=0
88809 On ch=14 n=54 v=0
89280 On ch=14 n=54 v=77
89376 On ch=14 n=55 v=77
89385 On ch=14 n=54 v=0
89472 On ch=14 n=54 v=78
89481 On ch=14 n=55 v=0
89568 On ch=14 n=53 v=78
89577 On ch=14 n=54 v=0
89664 On ch=14 n=54 v=78
89673 On ch=14 n=53 v=0
89769 On ch=14 n=54 v=0
90240 On ch=14 n=54 v=78
90336 On ch=14 n=55 v=78
90345 On ch=14 n=54 v=0
90432 On ch=14 n=54 v=78
90441 On ch=14 n=55 v=0
90528 On ch=14 n=53 v=78
90537 On ch=14 n=54 v=0
90624 On ch=14 n=54 v=78
90633 On ch=14 n=53 v=0
90729 On ch=14 n=54 v=0
91200 On ch=14 n=54 v=79
91296 On ch=14 n=55 v=79
91305 On ch=14 n=54 v=0
91392 On ch=14 n=54 v=79
91401 On ch=14 n=55 v=0
91488 On ch=14 n=53 v=79
91497 On ch=14 n=54 v=0
91584 On ch=14 n=54 v=79
91593 On ch=14 n=53 v=0
91689 On ch=14 n=54 v=0
92160 On ch=14 n=54 v=80
92256 On ch=14 n=55 v=81
92265 On ch=14 n=54 v=0
92352 On ch=14 n=54 v=82
92361 On ch=14 n=55 v=0
92448 On ch=14 n=53 v=83
92457 On ch=14 n=54 v=0
92544 On ch=14 n=54 v=84
92553 On ch=14 n=53 v=0
92634 On ch=14 n=54 v=0
92640 On ch=14 n=54 v=85
92736 On ch=14 n=55 v=87
92745 On ch=14 n=54 v=0
92832 On ch=14 n=54 v=88
92841 On ch=14 n=55 v=0
92928 On ch=14 n=53 v=89
92937 On ch=14 n=54 v=0
93024 On ch=14 n=54 v=90
93033 On ch=14 n=53 v=0
93114 On ch=14 n=54 v=0
93120 On ch=14 n=54 v=91
93216 On ch=14 n=55 v=92
93225 On ch=14 n=54 v=0
93312 On ch=14 n=54 v=94
93321 On ch=14 n=55 v=0
93408 On ch=14 n=53 v=95
93417 On ch=14 n=54 v=0
93504 On ch=14 n=54 v=96
93513 On ch=14 n=53 v=0
93594 On ch=14 n=54 v=0
93600 On ch=14 n=54 v=97
93696 On ch=14 n=55 v=98
93705 On ch=14 n=54 v=0
93792 On ch=14 n=54 v=99
93801 On ch=14 n=55 v=0
93888 On ch=14 n=53 v=101
93897 On ch=14 n=54 v=0
93984 On ch=14 n=54 v=102
93993 On ch=14 n=53 v=0
94074 On ch=14 n=54 v=0
94080 On ch=14 n=54 v=103
94176 On ch=14 n=55 v=104
94185 On ch=14 n=54 v=0
94272 On ch=14 n=54 v=105
94281 On ch=14 n=55 v=0
94368 On ch=14 n=53 v=107
94377 On ch=14 n=54 v=0
94464 On ch=14 n=54 v=108
94473 On ch=14 n=53 v=0
94554 On ch=14 n=54 v=0
94560 On ch=14 n=54 v=109
94656 On ch=14 n=55 v=110
94665 On ch=14 n=54 v=0
94752 On ch=14 n=54 v=111
94761 On ch=14 n=55 v=0
94848 On ch=14 n=53 v=112
94857 On ch=14 n=54 v=0
94944 On ch=14 n=54 v=114
94953 On ch=14 n=53 v=0
95034 On ch=14 n=54 v=0
95040 On ch=14 n=54 v=115
95136 On ch=14 n=55 v=116
95145 On ch=14 n=54 v=0
95232 On ch=14 n=54 v=117
95241 On ch=14 n=55 v=0
95328 On ch=14 n=53 v=118
95337 On ch=14 n=54 v=0
95424 On ch=14 n=54 v=119
95433 On ch=14 n=53 v=0
95514 On ch=14 n=54 v=0
95520 On ch=14 n=54 v=121
95616 On ch=14 n=55 v=122
95625 On ch=14 n=54 v=0
95712 On ch=14 n=54 v=123
95721 On ch=14 n=55 v=0
95808 On ch=14 n=53 v=124
95817 On ch=14 n=54 v=0
95904 On ch=14 n=54 v=125
95913 On ch=14 n=53 v=0
95994 On ch=14 n=54 v=0
95994 Par ch=14 c=11 v=85
96000 On ch=14 n=59 v=127
96210 On ch=14 n=59 v=0
96240 On ch=14 n=61 v=127
96450 On ch=14 n=61 v=0
96480 On ch=14 n=62 v=127
96690 On ch=14 n=62 v=0
96720 On ch=14 n=64 v=127
96930 On ch=14 n=64 v=0
96960 On ch=14 n=66 v=127
97170 On ch=14 n=66 v=0
97200 On ch=14 n=62 v=127
97410 On ch=14 n=62 v=0
97440 On ch=14 n=66 v=127
97530 On ch=14 n=66 v=0
97560 On ch=14 n=66 v=127
97650 On ch=14 n=66 v=0
97680 On ch=14 n=66 v=127
97770 On ch=14 n=66 v=0
97800 On ch=14 n=66 v=127
97890 On ch=14 n=66 v=0
97920 On ch=14 n=65 v=127
98130 On ch=14 n=65 v=0
98160 On ch=14 n=61 v=127
98370 On ch=14 n=61 v=0
98400 On ch=14 n=65 v=127
98490 On ch=14 n=65 v=0
98520 On ch=14 n=65 v=127
98610 On ch=14 n=65 v=0
98640 On ch=14 n=65 v=127
98730 On ch=14 n=65 v=0
98760 On ch=14 n=65 v=127
98850 On ch=14 n=65 v=0
98880 On ch=14 n=64 v=127
99090 On ch=14 n=64 v=0
99120 On ch=14 n=60 v=127
99330 On ch=14 n=60 v=0
99360 On ch=14 n=64 v=127
99450 On ch=14 n=64 v=0
99480 On ch=14 n=64 v=127
99570 On ch=14 n=64 v=0
99600 On ch=14 n=64 v=127
99690 On ch=14 n=64 v=0
99720 On ch=14 n=64 v=127
99810 On ch=14 n=64 v=0
99840 On ch=14 n=59 v=127
100050 On ch=14 n=59 v=0
100080 On ch=14 n=61 v=127
100290 On ch=14 n=61 v=0
100320 On ch=14 n=62 v=127
100530 On ch=14 n=62 v=0
100560 On ch=14 n=64 v=127
100770 On ch=14 n=64 v=0
100800 On ch=14 n=66 v=127
101010 On ch=14 n=66 v=0
101040 On ch=14 n=62 v=127
101250 On ch=14 n=62 v=0
101280 On ch=14 n=66 v=127
101490 On ch=14 n=66 v=0
101520 On ch=14 n=71 v=127
101730 On ch=14 n=71 v=0
101760 On ch=14 n=69 v=127
101970 On ch=14 n=69 v=0
102000 On ch=14 n=66 v=127
102210 On ch=14 n=66 v=0
102240 On ch=14 n=62 v=127
102450 On ch=14 n=62 v=0
102480 On ch=14 n=66 v=127
102690 On ch=14 n=66 v=0
102720 On ch=14 n=69 v=127
102810 On ch=14 n=69 v=0
102840 On ch=14 n=69 v=127
102930 On ch=14 n=69 v=0
102960 On ch=14 n=69 v=127
103050 On ch=14 n=69 v=0
103080 On ch=14 n=69 v=127
103170 On ch=14 n=69 v=0
103200 On ch=14 n=69 v=127
103290 On ch=14 n=69 v=0
103320 On ch=14 n=69 v=127
103410 On ch=14 n=69 v=0
103440 On ch=14 n=69 v=127
103530 On ch=14 n=69 v=0
103560 On ch=14 n=69 v=127
103650 On ch=14 n=69 v=0
103680 On ch=14 n=59 v=127
103890 On ch=14 n=59 v=0
103920 On ch=14 n=61 v=127
104130 On ch=14 n=61 v=0
104160 On ch=14 n=62 v=127
104370 On ch=14 n=62 v=0
104400 On ch=14 n=64 v=127
104610 On ch=14 n=64 v=0
104640 On ch=14 n=66 v=127
104850 On ch=14 n=66 v=0
104880 On ch=14 n=62 v=127
105090 On ch=14 n=62 v=0
105120 On ch=14 n=66 v=127
105210 On ch=14 n=66 v=0
105240 On ch=14 n=66 v=127
105330 On ch=14 n=66 v=0
105360 On ch=14 n=66 v=127
105450 On ch=14 n=66 v=0
105480 On ch=14 n=66 v=127
105570 On ch=14 n=66 v=0
105600 On ch=14 n=65 v=127
105810 On ch=14 n=65 v=0
105840 On ch=14 n=61 v=127
106050 On ch=14 n=61 v=0
106080 On ch=14 n=65 v=127
106170 On ch=14 n=65 v=0
106200 On ch=14 n=65 v=127
106290 On ch=14 n=65 v=0
106320 On ch=14 n=65 v=127
106410 On ch=14 n=65 v=0
106440 On ch=14 n=65 v=127
106530 On ch=14 n=65 v=0
106560 On ch=14 n=64 v=127
106770 On ch=14 n=64 v=0
106800 On ch=14 n=60 v=127
107010 On ch=14 n=60 v=0
107040 On ch=14 n=64 v=127
107130 On ch=14 n=64 v=0
107160 On ch=14 n=64 v=127
107250 On ch=14 n=64 v=0
107280 On ch=14 n=64 v=127
107370 On ch=14 n=64 v=0
107400 On ch=14 n=64 v=127
107490 On ch=14 n=64 v=0
107520 On ch=14 n=59 v=127
107730 On ch=14 n=59 v=0
107760 On ch=14 n=61 v=127
107970 On ch=14 n=61 v=0
108000 On ch=14 n=62 v=127
108210 On ch=14 n=62 v=0
108240 On ch=14 n=64 v=127
108450 On ch=14 n=64 v=0
108480 On ch=14 n=66 v=127
108690 On ch=14 n=66 v=0
108720 On ch=14 n=62 v=127
108930 On ch=14 n=62 v=0
108960 On ch=14 n=66 v=127
109170 On ch=14 n=66 v=0
109200 On ch=14 n=71 v=127
109410 On ch=14 n=71 v=0
109440 On ch=14 n=69 v=127
109650 On ch=14 n=69 v=0
109680 On ch=14 n=66 v=127
109890 On ch=14 n=66 v=0
109920 On ch=14 n=62 v=127
110130 On ch=14 n=62 v=0
110160 On ch=14 n=66 v=127
110370 On ch=14 n=66 v=0
110400 On ch=14 n=69 v=127
110490 On ch=14 n=69 v=0
110520 On ch=14 n=69 v=127
110610 On ch=14 n=69 v=0
110640 On ch=14 n=69 v=127
110730 On ch=14 n=69 v=0
110760 On ch=14 n=69 v=127
110850 On ch=14 n=69 v=0
110880 On ch=14 n=69 v=127
110970 On ch=14 n=69 v=0
111000 On ch=14 n=69 v=127
111090 On ch=14 n=69 v=0
111120 On ch=14 n=69 v=127
111210 On ch=14 n=69 v=0
111240 On ch=14 n=69 v=127
111330 On ch=14 n=69 v=0
111360 On ch=14 n=66 v=127
111570 On ch=14 n=66 v=0
111600 On ch=14 n=68 v=127
111810 On ch=14 n=68 v=0
111840 On ch=14 n=70 v=127
112050 On ch=14 n=70 v=0
112080 On ch=14 n=71 v=127
112290 On ch=14 n=71 v=0
112320 On ch=14 n=73 v=127
112530 On ch=14 n=73 v=0
112560 On ch=14 n=70 v=127
112770 On ch=14 n=70 v=0
112800 On ch=14 n=73 v=127
112890 On ch=14 n=73 v=0
112920 On ch=14 n=73 v=127
113010 On ch=14 n=73 v=0
113040 On ch=14 n=73 v=127
113130 On ch=14 n=73 v=0
113160 On ch=14 n=73 v=127
113250 On ch=14 n=73 v=0
113280 On ch=14 n=74 v=127
113490 On ch=14 n=74 v=0
113520 On ch=14 n=70 v=127
113730 On ch=14 n=70 v=0
113760 On ch=14 n=74 v=127
113850 On ch=14 n=74 v=0
113880 On ch=14 n=74 v=127
113970 On ch=14 n=74 v=0
114000 On ch=14 n=74 v=127
114090 On ch=14 n=74 v=0
114120 On ch=14 n=74 v=127
114210 On ch=14 n=74 v=0
114240 On ch=14 n=73 v=127
114450 On ch=14 n=73 v=0
114480 On ch=14 n=70 v=127
114690 On ch=14 n=70 v=0
114720 On ch=14 n=73 v=127
114810 On ch=14 n=73 v=0
114840 On ch=14 n=73 v=127
114930 On ch=14 n=73 v=0
114960 On ch=14 n=73 v=127
115050 On ch=14 n=73 v=0
115080 On ch=14 n=73 v=127
115170 On ch=14 n=73 v=0
115200 On ch=14 n=66 v=127
115410 On ch=14 n=66 v=0
115440 On ch=14 n=68 v=127
115650 On ch=14 n=68 v=0
115680 On ch=14 n=70 v=127
115890 On ch=14 n=70 v=0
115920 On ch=14 n=71 v=127
116130 On ch=14 n=71 v=0
116160 On ch=14 n=73 v=127
116370 On ch=14 n=73 v=0
116400 On ch=14 n=70 v=127
116610 On ch=14 n=70 v=0
116640 On ch=14 n=73 v=127
116730 On ch=14 n=73 v=0
116760 On ch=14 n=73 v=127
116850 On ch=14 n=73 v=0
116880 On ch=14 n=73 v=127
116970 On ch=14 n=73 v=0
117000 On ch=14 n=73 v=127
117090 On ch=14 n=73 v=0
117120 On ch=14 n=74 v=127
117330 On ch=14 n=74 v=0
117360 On ch=14 n=70 v=127
117570 On ch=14 n=70 v=0
117600 On ch=14 n=74 v=127
117690 On ch=14 n=74 v=0
117720 On ch=14 n=74 v=127
117810 On ch=14 n=74 v=0
117840 On ch=14 n=74 v=127
117930 On ch=14 n=74 v=0
117960 On ch=14 n=74 v=127
118050 On ch=14 n=74 v=0
118080 On ch=14 n=73 v=127
118170 On ch=14 n=73 v=0
118200 On ch=14 n=73 v=127
118290 On ch=14 n=73 v=0
118320 On ch=14 n=73 v=127
118410 On ch=14 n=73 v=0
118440 On ch=14 n=73 v=127
118530 On ch=14 n=73 v=0
118560 On ch=14 n=73 v=127
118650 On ch=14 n=73 v=0
118680 On ch=14 n=73 v=127
118770 On ch=14 n=73 v=0
118800 On ch=14 n=73 v=127
118890 On ch=14 n=73 v=0
118920 On ch=14 n=73 v=127
119010 On ch=14 n=73 v=0
119040 On ch=14 n=66 v=127
119250 On ch=14 n=66 v=0
119280 On ch=14 n=68 v=127
119490 On ch=14 n=68 v=0
119520 On ch=14 n=70 v=127
119730 On ch=14 n=70 v=0
119760 On ch=14 n=71 v=127
119970 On ch=14 n=71 v=0
120000 On ch=14 n=73 v=127
120210 On ch=14 n=73 v=0
120240 On ch=14 n=70 v=127
120450 On ch=14 n=70 v=0
120480 On ch=14 n=73 v=127
120570 On ch=14 n=73 v=0
120600 On ch=14 n=73 v=127
120690 On ch=14 n=73 v=0
120720 On ch=14 n=73 v=127
120810 On ch=14 n=73 v=0
120840 On ch=14 n=73 v=127
120930 On ch=14 n=73 v=0
120960 On ch=14 n=75 v=127
121170 On ch=14 n=75 v=0
121200 On ch=14 n=70 v=127
121410 On ch=14 n=70 v=0
121440 On ch=14 n=75 v=127
121530 On ch=14 n=75 v=0
121560 On ch=14 n=75 v=127
121650 On ch=14 n=75 v=0
121680 On ch=14 n=75 v=127
121770 On ch=14 n=75 v=0
121800 On ch=14 n=75 v=127
121890 On ch=14 n=75 v=0
121920 On ch=14 n=73 v=127
122130 On ch=14 n=73 v=0
122160 On ch=14 n=70 v=127
122370 On ch=14 n=70 v=0
122400 On ch=14 n=73 v=127
122490 On ch=14 n=73 v=0
122520 On ch=14 n=73 v=127
122610 On ch=14 n=73 v=0
122640 On ch=14 n=73 v=127
122730 On ch=14 n=73 v=0
122760 On ch=14 n=73 v=127
122850 On ch=14 n=73 v=0
122880 On ch=14 n=66 v=127
123090 On ch=14 n=66 v=0
123120 On ch=14 n=68 v=127
123330 On ch=14 n=68 v=0
123360 On ch=14 n=70 v=127
123570 On ch=14 n=70 v=0
123600 On ch=14 n=71 v=127
123810 On ch=14 n=71 v=0
123840 On ch=14 n=73 v=127
124050 On ch=14 n=73 v=0
124080 On ch=14 n=70 v=127
124290 On ch=14 n=70 v=0
124320 On ch=14 n=73 v=127
124410 On ch=14 n=73 v=0
124440 On ch=14 n=73 v=127
124530 On ch=14 n=73 v=0
124560 On ch=14 n=73 v=127
124650 On ch=14 n=73 v=0
124680 On ch=14 n=73 v=127
124770 On ch=14 n=73 v=0
124800 On ch=14 n=75 v=127
125010 On ch=14 n=75 v=0
125040 On ch=14 n=70 v=127
125250 On ch=14 n=70 v=0
125280 On ch=14 n=75 v=127
125370 On ch=14 n=75 v=0
125400 On ch=14 n=75 v=127
125490 On ch=14 n=75 v=0
125520 On ch=14 n=75 v=127
125610 On ch=14 n=75 v=0
125640 On ch=14 n=75 v=127
125730 On ch=14 n=75 v=0
125760 On ch=14 n=73 v=127
125850 On ch=14 n=73 v=0
125880 On ch=14 n=73 v=127
125970 On ch=14 n=73 v=0
126000 On ch=14 n=73 v=127
126090 On ch=14 n=73 v=0
126120 On ch=14 n=73 v=127
126210 On ch=14 n=73 v=0
126240 On ch=14 n=73 v=127
126330 On ch=14 n=73 v=0
126360 On ch=14 n=73 v=127
126450 On ch=14 n=73 v=0
126480 On ch=14 n=73 v=127
126570 On ch=14 n=73 v=0
126600 On ch=14 n=73 v=127
126690 On ch=14 n=73 v=0
126720 On ch=14 n=59 v=127
126930 On ch=14 n=59 v=0
126960 On ch=14 n=61 v=127
127170 On ch=14 n=61 v=0
127200 On ch=14 n=62 v=127
127410 On ch=14 n=62 v=0
127440 On ch=14 n=64 v=127
127650 On ch=14 n=64 v=0
127680 On ch=14 n=66 v=127
127890 On ch=14 n=66 v=0
127920 On ch=14 n=62 v=127
128130 On ch=14 n=62 v=0
128160 On ch=14 n=66 v=127
128250 On ch=14 n=66 v=0
128280 On ch=14 n=66 v=127
128370 On ch=14 n=66 v=0
128400 On ch=14 n=66 v=127
128490 On ch=14 n=66 v=0
128520 On ch=14 n=66 v=127
128610 On ch=14 n=66 v=0
128640 On ch=14 n=65 v=127
128850 On ch=14 n=65 v=0
128880 On ch=14 n=61 v=127
129090 On ch=14 n=61 v=0
129120 On ch=14 n=65 v=127
129210 On ch=14 n=65 v=0
129240 On ch=14 n=65 v=127
129330 On ch=14 n=65 v=0
129360 On ch=14 n=65 v=127
129450 On ch=14 n=65 v=0
129480 On ch=14 n=65 v=127
129570 On ch=14 n=65 v=0
129600 On ch=14 n=64 v=127
129810 On ch=14 n=64 v=0
129840 On ch=14 n=60 v=127
130050 On ch=14 n=60 v=0
130080 On ch=14 n=64 v=127
130170 On ch=14 n=64 v=0
130200 On ch=14 n=64 v=127
130290 On ch=14 n=64 v=0
130320 On ch=14 n=64 v=127
130410 On ch=14 n=64 v=0
130440 On ch=14 n=64 v=127
130530 On ch=14 n=64 v=0
130560 On ch=14 n=59 v=127
130770 On ch=14 n=59 v=0
130800 On ch=14 n=61 v=127
131010 On ch=14 n=61 v=0
131040 On ch=14 n=62 v=127
131250 On ch=14 n=62 v=0
131280 On ch=14 n=64 v=127
131490 On ch=14 n=64 v=0
131520 On ch=14 n=66 v=127
131730 On ch=14 n=66 v=0
131760 On ch=14 n=62 v=127
131970 On ch=14 n=62 v=0
132000 On ch=14 n=66 v=127
132210 On ch=14 n=66 v=0
132240 On ch=14 n=71 v=127
132450 On ch=14 n=71 v=0
132480 On ch=14 n=69 v=127
132690 On ch=14 n=69 v=0
132720 On ch=14 n=66 v=127
132930 On ch=14 n=66 v=0
132960 On ch=14 n=62 v=127
133170 On ch=14 n=62 v=0
133200 On ch=14 n=66 v=127
133410 On ch=14 n=66 v=0
133440 On ch=14 n=69 v=127
133530 On ch=14 n=69 v=0
133560 On ch=14 n=69 v=127
133650 On ch=14 n=69 v=0
133680 On ch=14 n=69 v=127
133770 On ch=14 n=69 v=0
133800 On ch=14 n=69 v=127
133890 On ch=14 n=69 v=0
133920 On ch=14 n=69 v=127
134010 On ch=14 n=69 v=0
134040 On ch=14 n=69 v=127
134130 On ch=14 n=69 v=0
134160 On ch=14 n=69 v=127
134250 On ch=14 n=69 v=0
134280 On ch=14 n=69 v=127
134370 On ch=14 n=69 v=0
134400 On ch=14 n=59 v=127
134610 On ch=14 n=59 v=0
134640 On ch=14 n=61 v=127
134850 On ch=14 n=61 v=0
134880 On ch=14 n=62 v=127
135090 On ch=14 n=62 v=0
135120 On ch=14 n=64 v=127
135330 On ch=14 n=64 v=0
135360 On ch=14 n=66 v=127
135570 On ch=14 n=66 v=0
135600 On ch=14 n=62 v=127
135810 On ch=14 n=62 v=0
135840 On ch=14 n=66 v=127
135930 On ch=14 n=66 v=0
135960 On ch=14 n=66 v=127
136050 On ch=14 n=66 v=0
136080 On ch=14 n=66 v=127
136170 On ch=14 n=66 v=0
136200 On ch=14 n=66 v=127
136290 On ch=14 n=66 v=0
136320 On ch=14 n=65 v=127
136530 On ch=14 n=65 v=0
136560 On ch=14 n=61 v=127
136770 On ch=14 n=61 v=0
136800 On ch=14 n=65 v=127
136890 On ch=14 n=65 v=0
136920 On ch=14 n=65 v=127
137010 On ch=14 n=65 v=0
137040 On ch=14 n=65 v=127
137130 On ch=14 n=65 v=0
137160 On ch=14 n=65 v=127
137250 On ch=14 n=65 v=0
137340 On ch=14 n=64 v=127
137550 On ch=14 n=64 v=0
137580 On ch=14 n=60 v=127
137760 On ch=14 n=64 v=127
137790 On ch=14 n=60 v=0
137850 On ch=14 n=64 v=0
137880 On ch=14 n=64 v=127
137970 On ch=14 n=64 v=0
138000 On ch=14 n=64 v=127
138090 On ch=14 n=64 v=0
138120 On ch=14 n=64 v=127
138210 On ch=14 n=64 v=0
138240 On ch=14 n=59 v=127
138450 On ch=14 n=59 v=0
138480 On ch=14 n=61 v=127
138690 On ch=14 n=61 v=0
138720 On ch=14 n=62 v=127
138930 On ch=14 n=62 v=0
138960 On ch=14 n=64 v=127
139170 On ch=14 n=64 v=0
139200 On ch=14 n=66 v=127
139410 On ch=14 n=66 v=0
139440 On ch=14 n=62 v=127
139650 On ch=14 n=62 v=0
139680 On ch=14 n=66 v=127
139890 On ch=14 n=66 v=0
139920 On ch=14 n=71 v=127
140130 On ch=14 n=71 v=0
140160 On ch=14 n=66 v=127
140370 On ch=14 n=66 v=0
140400 On ch=14 n=62 v=127
140610 On ch=14 n=62 v=0
140640 On ch=14 n=66 v=127
140850 On ch=14 n=66 v=0
140880 On ch=14 n=71 v=127
141090 On ch=14 n=71 v=0
141120 On ch=14 n=59 v=127
141210 On ch=14 n=59 v=0
141240 On ch=14 n=59 v=127
141330 On ch=14 n=59 v=0
141360 On ch=14 n=59 v=127
141450 On ch=14 n=59 v=0
141480 On ch=14 n=59 v=127
141570 On ch=14 n=59 v=0
141600 On ch=14 n=59 v=127
141690 On ch=14 n=59 v=0
141720 On ch=14 n=59 v=127
141810 On ch=14 n=59 v=0
141840 On ch=14 n=59 v=127
141930 On ch=14 n=59 v=0
141960 On ch=14 n=59 v=127
142050 On ch=14 n=59 v=0
142560 On ch=14 n=68 v=127
142620 On ch=14 n=69 v=127
142635 On ch=14 n=68 v=0
142680 On ch=14 n=70 v=127
142695 On ch=14 n=69 v=0
142740 On ch=14 n=71 v=127
142755 On ch=14 n=70 v=0
142860 On ch=14 n=71 v=0
144480 On ch=14 n=68 v=127
144540 On ch=14 n=69 v=127
144555 On ch=14 n=68 v=0
144600 On ch=14 n=70 v=127
144615 On ch=14 n=69 v=0
144660 On ch=14 n=71 v=127
144675 On ch=14 n=70 v=0
144780 On ch=14 n=71 v=0
150240 On ch=14 n=68 v=127
150300 On ch=14 n=69 v=127
150315 On ch=14 n=68 v=0
150360 On ch=14 n=70 v=127
150375 On ch=14 n=69 v=0
150420 On ch=14 n=71 v=127
150435 On ch=14 n=70 v=0
150540 On ch=14 n=71 v=0
152160 On ch=14 n=68 v=127
152220 On ch=14 n=69 v=127
152235 On ch=14 n=68 v=0
152280 On ch=14 n=70 v=127
152295 On ch=14 n=69 v=0
152340 On ch=14 n=71 v=127
152355 On ch=14 n=70 v=0
152460 On ch=14 n=71 v=0
153600 On ch=14 n=59 v=80
153810 On ch=14 n=59 v=0
153840 On ch=14 n=61 v=83
154050 On ch=14 n=61 v=0
154080 On ch=14 n=62 v=87
154290 On ch=14 n=62 v=0
154320 On ch=14 n=64 v=91
154530 On ch=14 n=64 v=0
154560 On ch=14 n=66 v=95
154770 On ch=14 n=66 v=0
154800 On ch=14 n=62 v=99
155010 On ch=14 n=62 v=0
155040 On ch=14 n=66 v=103
155250 On ch=14 n=66 v=0
155280 On ch=14 n=71 v=107
155490 On ch=14 n=71 v=0
155520 On ch=14 n=70 v=111
155730 On ch=14 n=70 v=0
155760 On ch=14 n=66 v=115
155970 On ch=14 n=66 v=0
156000 On ch=14 n=70 v=119
156210 On ch=14 n=70 v=0
156240 On ch=14 n=73 v=123
156450 On ch=14 n=73 v=0
156480 On ch=14 n=71 v=127
156570 On ch=14 n=71 v=0
156600 On ch=14 n=71 v=127
156690 On ch=14 n=71 v=0
156720 On ch=14 n=71 v=127
156810 On ch=14 n=71 v=0
156840 On ch=14 n=71 v=127
156930 On ch=14 n=71 v=0
156960 On ch=14 n=71 v=127
157050 On ch=14 n=71 v=0
157080 On ch=14 n=71 v=127
157170 On ch=14 n=71 v=0
157200 On ch=14 n=71 v=127
157290 On ch=14 n=71 v=0
157320 On ch=14 n=71 v=127
157410 On ch=14 n=71 v=0
157920 On ch=14 n=68 v=127
157980 On ch=14 n=69 v=127
157995 On ch=14 n=68 v=0
158040 On ch=14 n=70 v=127
158055 On ch=14 n=69 v=0
158100 On ch=14 n=71 v=127
158115 On ch=14 n=70 v=0
158220 On ch=14 n=71 v=0
159840 On ch=14 n=68 v=127
159900 On ch=14 n=69 v=127
159915 On ch=14 n=68 v=0
159960 On ch=14 n=70 v=127
159975 On ch=14 n=69 v=0
160020 On ch=14 n=71 v=127
160035 On ch=14 n=70 v=0
160140 On ch=14 n=71 v=0
161760 On ch=14 n=68 v=51
161820 On ch=14 n=69 v=53
161835 On ch=14 n=68 v=0
161880 On ch=14 n=70 v=54
161895 On ch=14 n=69 v=0
161940 On ch=14 n=71 v=56
161955 On ch=14 n=70 v=0
162060 On ch=14 n=71 v=0
162240 On ch=14 n=68 v=63
162300 On ch=14 n=69 v=65
162315 On ch=14 n=68 v=0
162360 On ch=14 n=70 v=66
162375 On ch=14 n=69 v=0
162420 On ch=14 n=71 v=68
162435 On ch=14 n=70 v=0
162540 On ch=14 n=71 v=0
162720 On ch=14 n=68 v=75
162780 On ch=14 n=69 v=76
162795 On ch=14 n=68 v=0
162840 On ch=14 n=70 v=78
162855 On ch=14 n=69 v=0
162900 On ch=14 n=71 v=79
162915 On ch=14 n=70 v=0
163020 On ch=14 n=71 v=0
163200 On ch=14 n=68 v=87
163260 On ch=14 n=69 v=88
163275 On ch=14 n=68 v=0
163320 On ch=14 n=70 v=90
163335 On ch=14 n=69 v=0
163380 On ch=14 n=71 v=91
163395 On ch=14 n=70 v=0
163500 On ch=14 n=71 v=0
163680 On ch=14 n=68 v=98
163740 On ch=14 n=69 v=100
163755 On ch=14 n=68 v=0
163800 On ch=14 n=70 v=101
163815 On ch=14 n=69 v=0
163860 On ch=14 n=71 v=103
163875 On ch=14 n=70 v=0
163980 On ch=14 n=71 v=0
164160 On ch=14 n=68 v=110
164220 On ch=14 n=69 v=112
164235 On ch=14 n=68 v=0
164280 On ch=14 n=70 v=113
164295 On ch=14 n=69 v=0
164340 On ch=14 n=71 v=115
164355 On ch=14 n=70 v=0
164460 On ch=14 n=71 v=0
164640 On ch=14 n=68 v=122
164700 On ch=14 n=69 v=124
164715 On ch=14 n=68 v=0
164760 On ch=14 n=70 v=125
164775 On ch=14 n=69 v=0
164820 On ch=14 n=71 v=127
164835 On ch=14 n=70 v=0
164940 On ch=14 n=71 v=0
168480 Par ch=14 c=11 v=100
169440 On ch=14 n=68 v=127
169500 On ch=14 n=69 v=127
169515 On ch=14 n=68 v=0
169560 On ch=14 n=70 v=127
169575 On ch=14 n=69 v=0
169620 On ch=14 n=71 v=127
169635 On ch=14 n=70 v=0
169830 On ch=14 n=71 v=0
169830 Meta TrkEnd
TrkEnd
MTrk
0 Meta 0x20 14
0 Meta TrkName "Cello   "
0 Meta InstrName "Violoncelli"
3840 On ch=15 n=47 v=65
4050 On ch=15 n=47 v=0
4080 On ch=15 n=49 v=65
4290 On ch=15 n=49 v=0
4320 On ch=15 n=50 v=65
4530 On ch=15 n=50 v=0
4560 On ch=15 n=52 v=65
4770 On ch=15 n=52 v=0
4800 On ch=15 n=54 v=85
5010 On ch=15 n=54 v=0
5040 On ch=15 n=50 v=65
5250 On ch=15 n=50 v=0
5280 On ch=15 n=54 v=65
5730 On ch=15 n=54 v=0
5760 On ch=15 n=53 v=85
5970 On ch=15 n=53 v=0
6000 On ch=15 n=49 v=65
6210 On ch=15 n=49 v=0
6240 On ch=15 n=53 v=65
6690 On ch=15 n=53 v=0
6720 On ch=15 n=52 v=85
6930 On ch=15 n=52 v=0
6960 On ch=15 n=48 v=65
7170 On ch=15 n=48 v=0
7200 On ch=15 n=52 v=65
7650 On ch=15 n=52 v=0
7680 On ch=15 n=47 v=65
7890 On ch=15 n=47 v=0
7920 On ch=15 n=49 v=65
8130 On ch=15 n=49 v=0
8160 On ch=15 n=50 v=65
8370 On ch=15 n=50 v=0
8400 On ch=15 n=52 v=65
8610 On ch=15 n=52 v=0
8640 On ch=15 n=54 v=65
8850 On ch=15 n=54 v=0
8880 On ch=15 n=50 v=65
9090 On ch=15 n=50 v=0
9120 On ch=15 n=54 v=65
9330 On ch=15 n=54 v=0
9360 On ch=15 n=59 v=65
9570 On ch=15 n=59 v=0
9600 On ch=15 n=57 v=85
9810 On ch=15 n=57 v=0
9840 On ch=15 n=54 v=65
10050 On ch=15 n=54 v=0
10080 On ch=15 n=50 v=65
10290 On ch=15 n=50 v=0
10320 On ch=15 n=54 v=65
10530 On ch=15 n=54 v=0
10560 On ch=15 n=57 v=85
11010 On ch=15 n=57 v=0
11520 On ch=15 n=47 v=45
11730 On ch=15 n=47 v=0
12000 On ch=15 n=54 v=45
12210 On ch=15 n=54 v=0
12480 On ch=15 n=47 v=45
12690 On ch=15 n=47 v=0
12960 On ch=15 n=54 v=45
13170 On ch=15 n=54 v=0
13440 On ch=15 n=47 v=45
13650 On ch=15 n=47 v=0
13920 On ch=15 n=54 v=45
14130 On ch=15 n=54 v=0
14400 On ch=15 n=47 v=45
14610 On ch=15 n=47 v=0
14880 On ch=15 n=54 v=45
15090 On ch=15 n=54 v=0
15360 On ch=15 n=47 v=45
15570 On ch=15 n=47 v=0
15840 On ch=15 n=54 v=45
16050 On ch=15 n=54 v=0
16320 On ch=15 n=47 v=45
16530 On ch=15 n=47 v=0
16800 On ch=15 n=54 v=45
17010 On ch=15 n=54 v=0
17280 On ch=15 n=50 v=45
17490 On ch=15 n=50 v=0
17760 On ch=15 n=57 v=45
17970 On ch=15 n=57 v=0
18240 On ch=15 n=50 v=45
18450 On ch=15 n=50 v=0
18720 On ch=15 n=57 v=45
18930 On ch=15 n=57 v=0
19200 On ch=15 n=54 v=65
19410 On ch=15 n=54 v=0
19440 On ch=15 n=56 v=65
19650 On ch=15 n=56 v=0
19680 On ch=15 n=58 v=65
19890 On ch=15 n=58 v=0
19920 On ch=15 n=59 v=65
20130 On ch=15 n=59 v=0
20160 On ch=15 n=61 v=85
20370 On ch=15 n=61 v=0
20400 On ch=15 n=58 v=65
20610 On ch=15 n=58 v=0
20640 On ch=15 n=61 v=65
20850 On ch=15 n=61 v=0
21120 On ch=15 n=62 v=85
21330 On ch=15 n=62 v=0
21360 On ch=15 n=58 v=65
21570 On ch=15 n=58 v=0
21600 On ch=15 n=62 v=65
22050 On ch=15 n=62 v=0
22080 On ch=15 n=61 v=85
22290 On ch=15 n=61 v=0
22320 On ch=15 n=58 v=65
22530 On ch=15 n=58 v=0
22560 On ch=15 n=61 v=65
23010 On ch=15 n=61 v=0
23040 On ch=15 n=54 v=65
23250 On ch=15 n=54 v=0
23280 On ch=15 n=56 v=65
23490 On ch=15 n=56 v=0
23520 On ch=15 n=58 v=65
23730 On ch=15 n=58 v=0
23760 On ch=15 n=59 v=65
23970 On ch=15 n=59 v=0
24000 On ch=15 n=61 v=85
24210 On ch=15 n=61 v=0
24240 On ch=15 n=58 v=65
24450 On ch=15 n=58 v=0
24480 On ch=15 n=61 v=65
24690 On ch=15 n=61 v=0
24960 On ch=15 n=62 v=85
25170 On ch=15 n=62 v=0
25200 On ch=15 n=58 v=65
25410 On ch=15 n=58 v=0
25440 On ch=15 n=62 v=65
25890 On ch=15 n=62 v=0
25920 On ch=15 n=61 v=85
26370 On ch=15 n=61 v=0
26880 On ch=15 n=54 v=45
27330 On ch=15 n=54 v=0
27360 On ch=15 n=61 v=45
27810 On ch=15 n=61 v=0
27840 On ch=15 n=54 v=45
28290 On ch=15 n=54 v=0
28320 On ch=15 n=58 v=45
28770 On ch=15 n=58 v=0
28800 On ch=15 n=50 v=45
29250 On ch=15 n=50 v=0
29280 On ch=15 n=58 v=45
29730 On ch=15 n=58 v=0
29760 On ch=15 n=54 v=45
30210 On ch=15 n=54 v=0
30240 On ch=15 n=58 v=45
30690 On ch=15 n=58 v=0
30720 On ch=15 n=54 v=45
31170 On ch=15 n=54 v=0
31200 On ch=15 n=61 v=45
31650 On ch=15 n=61 v=0
31680 On ch=15 n=54 v=45
32130 On ch=15 n=54 v=0
32160 On ch=15 n=58 v=45
32610 On ch=15 n=58 v=0
32640 On ch=15 n=50 v=45
33090 On ch=15 n=50 v=0
33120 On ch=15 n=58 v=45
33570 On ch=15 n=58 v=0
33600 On ch=15 n=54 v=45
34050 On ch=15 n=54 v=0
34080 On ch=15 n=58 v=45
34530 On ch=15 n=58 v=0
34560 On ch=15 n=47 v=65
34770 On ch=15 n=47 v=0
34800 On ch=15 n=49 v=65
35010 On ch=15 n=49 v=0
35040 On ch=15 n=50 v=65
35250 On ch=15 n=50 v=0
35280 On ch=15 n=52 v=65
35490 On ch=15 n=52 v=0
35520 On ch=15 n=54 v=85
35730 On ch=15 n=54 v=0
35760 On ch=15 n=50 v=65
35970 On ch=15 n=50 v=0
36000 On ch=15 n=54 v=65
36210 On ch=15 n=54 v=0
36480 On ch=15 n=53 v=85
36690 On ch=15 n=53 v=0
36720 On ch=15 n=49 v=65
36930 On ch=15 n=49 v=0
36960 On ch=15 n=53 v=65
37410 On ch=15 n=53 v=0
37440 On ch=15 n=52 v=85
37650 On ch=15 n=52 v=0
37680 On ch=15 n=48 v=65
37890 On ch=15 n=48 v=0
37920 On ch=15 n=52 v=65
38370 On ch=15 n=52 v=0
38400 On ch=15 n=47 v=65
38610 On ch=15 n=47 v=0
38640 On ch=15 n=49 v=65
38850 On ch=15 n=49 v=0
38880 On ch=15 n=50 v=65
39090 On ch=15 n=50 v=0
39120 On ch=15 n=52 v=65
39330 On ch=15 n=52 v=0
39360 On ch=15 n=54 v=65
39570 On ch=15 n=54 v=0
39600 On ch=15 n=50 v=65
39810 On ch=15 n=50 v=0
39840 On ch=15 n=54 v=65
40050 On ch=15 n=54 v=0
40080 On ch=15 n=59 v=65
40290 On ch=15 n=59 v=0
40320 On ch=15 n=57 v=85
40530 On ch=15 n=57 v=0
40560 On ch=15 n=54 v=65
40770 On ch=15 n=54 v=0
40800 On ch=15 n=50 v=65
41010 On ch=15 n=50 v=0
41040 On ch=15 n=54 v=65
41250 On ch=15 n=54 v=0
41280 On ch=15 n=57 v=85
41730 On ch=15 n=57 v=0
42240 On ch=15 n=47 v=45
42690 On ch=15 n=47 v=0
42720 On ch=15 n=54 v=45
43170 On ch=15 n=54 v=0
43200 On ch=15 n=47 v=45
43650 On ch=15 n=47 v=0
43680 On ch=15 n=54 v=45
44130 On ch=15 n=54 v=0
44160 On ch=15 n=47 v=45
44610 On ch=15 n=47 v=0
44640 On ch=15 n=54 v=45
45090 On ch=15 n=54 v=0
45120 On ch=15 n=47 v=45
45570 On ch=15 n=47 v=0
45600 On ch=15 n=54 v=45
46050 On ch=15 n=54 v=0
46080 On ch=15 n=47 v=45
46530 On ch=15 n=47 v=0
46560 On ch=15 n=59 v=45
47010 On ch=15 n=59 v=0
47040 On ch=15 n=57 v=45
47490 On ch=15 n=57 v=0
47520 On ch=15 n=55 v=45
47970 On ch=15 n=55 v=0
48000 On ch=15 n=54 v=45
48450 On ch=15 n=54 v=0
48480 On ch=15 n=52 v=45
48930 On ch=15 n=52 v=0
48960 On ch=15 n=50 v=45
49410 On ch=15 n=50 v=0
49440 On ch=15 n=49 v=45
49890 On ch=15 n=49 v=0
49920 On ch=15 n=47 v=70
50370 On ch=15 n=47 v=0
50400 On ch=15 n=59 v=70
50850 On ch=15 n=59 v=0
50880 On ch=15 n=47 v=70
51330 On ch=15 n=47 v=0
51360 On ch=15 n=59 v=70
51810 On ch=15 n=59 v=0
51840 On ch=15 n=47 v=70
52290 On ch=15 n=47 v=0
52320 On ch=15 n=59 v=70
52770 On ch=15 n=59 v=0
52800 On ch=15 n=47 v=70
53250 On ch=15 n=47 v=0
53280 On ch=15 n=59 v=70
53730 On ch=15 n=59 v=0
53760 On ch=15 n=47 v=70
54210 On ch=15 n=47 v=0
54240 On ch=15 n=59 v=70
54690 On ch=15 n=59 v=0
54720 On ch=15 n=47 v=70
55170 On ch=15 n=47 v=0
55200 On ch=15 n=59 v=70
55650 On ch=15 n=59 v=0
55680 On ch=15 n=50 v=70
56130 On ch=15 n=50 v=0
56160 On ch=15 n=62 v=70
56610 On ch=15 n=62 v=0
56640 On ch=15 n=50 v=70
57090 On ch=15 n=50 v=0
57120 On ch=15 n=62 v=70
57570 On ch=15 n=62 v=0
57600 On ch=15 n=47 v=70
58050 On ch=15 n=47 v=0
58080 On ch=15 n=59 v=70
58530 On ch=15 n=59 v=0
58560 On ch=15 n=47 v=70
59010 On ch=15 n=47 v=0
59040 On ch=15 n=59 v=70
59490 On ch=15 n=59 v=0
59520 On ch=15 n=47 v=70
59970 On ch=15 n=47 v=0
60000 On ch=15 n=59 v=70
60450 On ch=15 n=59 v=0
60480 On ch=15 n=47 v=70
60930 On ch=15 n=47 v=0
60960 On ch=15 n=59 v=70
61410 On ch=15 n=59 v=0
61440 On ch=15 n=47 v=70
61890 On ch=15 n=47 v=0
61920 On ch=15 n=59 v=70
62370 On ch=15 n=59 v=0
62400 On ch=15 n=47 v=70
62850 On ch=15 n=47 v=0
62880 On ch=15 n=59 v=70
63330 On ch=15 n=59 v=0
63360 On ch=15 n=50 v=70
63810 On ch=15 n=50 v=0
63840 On ch=15 n=62 v=70
64290 On ch=15 n=62 v=0
64320 On ch=15 n=50 v=70
64770 On ch=15 n=50 v=0
64800 On ch=15 n=62 v=70
65250 On ch=15 n=62 v=0
65280 On ch=15 n=54 v=70
65730 On ch=15 n=54 v=0
65760 On ch=15 n=66 v=70
66210 On ch=15 n=66 v=0
66240 On ch=15 n=54 v=70
66690 On ch=15 n=54 v=0
66720 On ch=15 n=66 v=70
67170 On ch=15 n=66 v=0
67200 On ch=15 n=50 v=70
67650 On ch=15 n=50 v=0
67680 On ch=15 n=62 v=70
68130 On ch=15 n=62 v=0
68160 On ch=15 n=54 v=71
68610 On ch=15 n=54 v=0
68640 On ch=15 n=66 v=71
69090 On ch=15 n=66 v=0
69120 On ch=15 n=54 v=71
69570 On ch=15 n=54 v=0
69600 On ch=15 n=66 v=71
70050 On ch=15 n=66 v=0
70080 On ch=15 n=54 v=71
70530 On ch=15 n=54 v=0
70560 On ch=15 n=66 v=71
71010 On ch=15 n=66 v=0
71040 On ch=15 n=50 v=72
71490 On ch=15 n=50 v=0
71520 On ch=15 n=62 v=72
71970 On ch=15 n=62 v=0
72000 On ch=15 n=54 v=72
72450 On ch=15 n=54 v=0
72480 On ch=15 n=66 v=72
72930 On ch=15 n=66 v=0
72960 On ch=15 n=54 v=72
73410 On ch=15 n=54 v=0
73920 On ch=15 n=54 v=73
74370 On ch=15 n=54 v=0
74880 On ch=15 n=50 v=73
75330 On ch=15 n=50 v=0
75360 On ch=15 n=62 v=73
75810 On ch=15 n=62 v=0
75840 On ch=15 n=54 v=73
76290 On ch=15 n=54 v=0
76800 On ch=15 n=54 v=74
77250 On ch=15 n=54 v=0
77760 On ch=15 n=54 v=74
78210 On ch=15 n=54 v=0
78720 On ch=15 n=50 v=75
79170 On ch=15 n=50 v=0
79200 On ch=15 n=62 v=75
79650 On ch=15 n=62 v=0
79680 On ch=15 n=54 v=75
80130 On ch=15 n=54 v=0
80640 On ch=15 n=42 v=75
80760 On ch=15 n=41 v=75
80790 On ch=15 n=42 v=0
80880 On ch=15 n=42 v=75
80910 On ch=15 n=41 v=0
81090 On ch=15 n=42 v=0
81600 On ch=15 n=42 v=76
81720 On ch=15 n=41 v=76
81750 On ch=15 n=42 v=0
81840 On ch=15 n=42 v=76
81870 On ch=15 n=41 v=0
82050 On ch=15 n=42 v=0
82560 On ch=15 n=42 v=76
82680 On ch=15 n=41 v=76
82710 On ch=15 n=42 v=0
82800 On ch=15 n=42 v=76
82830 On ch=15 n=41 v=0
83010 On ch=15 n=42 v=0
83520 On ch=15 n=42 v=76
83640 On ch=15 n=41 v=76
83670 On ch=15 n=42 v=0
83760 On ch=15 n=42 v=76
83790 On ch=15 n=41 v=0
83970 On ch=15 n=42 v=0
84480 On ch=15 n=42 v=77
84600 On ch=15 n=41 v=77
84630 On ch=15 n=42 v=0
84720 On ch=15 n=42 v=77
84750 On ch=15 n=41 v=0
84930 On ch=15 n=42 v=0
85440 On ch=15 n=42 v=77
85560 On ch=15 n=41 v=77
85590 On ch=15 n=42 v=0
85680 On ch=15 n=42 v=77
85710 On ch=15 n=41 v=0
85890 On ch=15 n=42 v=0
86400 On ch=15 n=45 v=77
86520 On ch=15 n=44 v=77
86550 On ch=15 n=45 v=0
86640 On ch=15 n=45 v=77
86670 On ch=15 n=44 v=0
86850 On ch=15 n=45 v=0
87360 On ch=15 n=45 v=78
87480 On ch=15 n=44 v=78
87510 On ch=15 n=45 v=0
87600 On ch=15 n=45 v=78
87630 On ch=15 n=44 v=0
87810 On ch=15 n=45 v=0
88320 On ch=15 n=42 v=78
88416 On ch=15 n=43 v=78
88425 On ch=15 n=42 v=0
88512 On ch=15 n=42 v=78
88521 On ch=15 n=43 v=0
88608 On ch=15 n=41 v=78
88617 On ch=15 n=42 v=0
88704 On ch=15 n=42 v=78
88713 On ch=15 n=41 v=0
88809 On ch=15 n=42 v=0
89280 On ch=15 n=42 v=78
89376 On ch=15 n=43 v=78
89385 On ch=15 n=42 v=0
89472 On ch=15 n=42 v=79
89481 On ch=15 n=43 v=0
89568 On ch=15 n=41 v=79
89577 On ch=15 n=42 v=0
89664 On ch=15 n=42 v=79
89673 On ch=15 n=41 v=0
89769 On ch=15 n=42 v=0
90240 On ch=15 n=42 v=79
90336 On ch=15 n=43 v=79
90345 On ch=15 n=42 v=0
90432 On ch=15 n=42 v=79
90441 On ch=15 n=43 v=0
90528 On ch=15 n=41 v=79
90537 On ch=15 n=42 v=0
90624 On ch=15 n=42 v=79
90633 On ch=15 n=41 v=0
90729 On ch=15 n=42 v=0
91200 On ch=15 n=42 v=79
91296 On ch=15 n=43 v=79
91305 On ch=15 n=42 v=0
91392 On ch=15 n=42 v=79
91401 On ch=15 n=43 v=0
91488 On ch=15 n=41 v=79
91497 On ch=15 n=42 v=0
91584 On ch=15 n=42 v=79
91593 On ch=15 n=41 v=0
91689 On ch=15 n=42 v=0
92160 On ch=15 n=42 v=80
92256 On ch=15 n=43 v=81
92265 On ch=15 n=42 v=0
92352 On ch=15 n=42 v=82
92361 On ch=15 n=43 v=0
92448 On ch=15 n=41 v=83
92457 On ch=15 n=42 v=0
92544 On ch=15 n=42 v=84
92553 On ch=15 n=41 v=0
92640 On ch=15 n=59 v=85
92649 On ch=15 n=42 v=0
92730 On ch=15 n=59 v=0
93120 On ch=15 n=57 v=91
93210 On ch=15 n=57 v=0
93600 On ch=15 n=55 v=97
93690 On ch=15 n=55 v=0
94080 On ch=15 n=54 v=103
94170 On ch=15 n=54 v=0
94560 On ch=15 n=52 v=109
94650 On ch=15 n=52 v=0
95040 On ch=15 n=50 v=115
95130 On ch=15 n=50 v=0
95520 On ch=15 n=49 v=121
95610 On ch=15 n=49 v=0
96000 On ch=15 n=47 v=100
96210 On ch=15 n=47 v=0
96240 On ch=15 n=45 v=100
96450 On ch=15 n=45 v=0
96480 On ch=15 n=43 v=100
96690 On ch=15 n=43 v=0
96720 On ch=15 n=42 v=100
96930 On ch=15 n=42 v=0
96960 On ch=15 n=47 v=100
97170 On ch=15 n=47 v=0
97200 On ch=15 n=45 v=100
97410 On ch=15 n=45 v=0
97440 On ch=15 n=43 v=100
97650 On ch=15 n=43 v=0
97680 On ch=15 n=42 v=100
97890 On ch=15 n=42 v=0
97920 On ch=15 n=47 v=100
98130 On ch=15 n=47 v=0
98160 On ch=15 n=45 v=100
98370 On ch=15 n=45 v=0
98400 On ch=15 n=43 v=100
98610 On ch=15 n=43 v=0
98640 On ch=15 n=42 v=100
98850 On ch=15 n=42 v=0
98880 On ch=15 n=47 v=100
99090 On ch=15 n=47 v=0
99120 On ch=15 n=45 v=100
99330 On ch=15 n=45 v=0
99360 On ch=15 n=43 v=100
99570 On ch=15 n=43 v=0
99600 On ch=15 n=42 v=100
99810 On ch=15 n=42 v=0
99840 On ch=15 n=47 v=100
100050 On ch=15 n=47 v=0
100080 On ch=15 n=45 v=100
100290 On ch=15 n=45 v=0
100320 On ch=15 n=43 v=100
100530 On ch=15 n=43 v=0
100560 On ch=15 n=42 v=100
100770 On ch=15 n=42 v=0
100800 On ch=15 n=47 v=100
101010 On ch=15 n=47 v=0
101040 On ch=15 n=45 v=100
101250 On ch=15 n=45 v=0
101280 On ch=15 n=43 v=100
101490 On ch=15 n=43 v=0
101520 On ch=15 n=42 v=100
101730 On ch=15 n=42 v=0
101760 On ch=15 n=50 v=100
101970 On ch=15 n=50 v=0
102000 On ch=15 n=49 v=100
102210 On ch=15 n=49 v=0
102240 On ch=15 n=47 v=100
102450 On ch=15 n=47 v=0
102480 On ch=15 n=45 v=100
102690 On ch=15 n=45 v=0
102720 On ch=15 n=50 v=100
102930 On ch=15 n=50 v=0
102960 On ch=15 n=49 v=100
103170 On ch=15 n=49 v=0
103200 On ch=15 n=47 v=100
103410 On ch=15 n=47 v=0
103440 On ch=15 n=45 v=100
103650 On ch=15 n=45 v=0
103680 On ch=15 n=47 v=100
103890 On ch=15 n=47 v=0
103920 On ch=15 n=45 v=100
104130 On ch=15 n=45 v=0
104160 On ch=15 n=43 v=100
104370 On ch=15 n=43 v=0
104400 On ch=15 n=42 v=100
104610 On ch=15 n=42 v=0
104640 On ch=15 n=47 v=100
104850 On ch=15 n=47 v=0
104880 On ch=15 n=45 v=100
105090 On ch=15 n=45 v=0
105120 On ch=15 n=43 v=100
105330 On ch=15 n=43 v=0
105360 On ch=15 n=42 v=100
105570 On ch=15 n=42 v=0
105600 On ch=15 n=47 v=100
105810 On ch=15 n=47 v=0
105840 On ch=15 n=45 v=100
106050 On ch=15 n=45 v=0
106080 On ch=15 n=43 v=100
106290 On ch=15 n=43 v=0
106320 On ch=15 n=42 v=100
106530 On ch=15 n=42 v=0
106560 On ch=15 n=47 v=100
106770 On ch=15 n=47 v=0
106800 On ch=15 n=45 v=100
107010 On ch=15 n=45 v=0
107040 On ch=15 n=43 v=100
107250 On ch=15 n=43 v=0
107280 On ch=15 n=42 v=100
107490 On ch=15 n=42 v=0
107520 On ch=15 n=47 v=100
107730 On ch=15 n=47 v=0
107760 On ch=15 n=45 v=100
107970 On ch=15 n=45 v=0
108000 On ch=15 n=43 v=100
108210 On ch=15 n=43 v=0
108240 On ch=15 n=42 v=100
108450 On ch=15 n=42 v=0
108480 On ch=15 n=47 v=100
108690 On ch=15 n=47 v=0
108720 On ch=15 n=45 v=100
108930 On ch=15 n=45 v=0
108960 On ch=15 n=43 v=100
109170 On ch=15 n=43 v=0
109200 On ch=15 n=42 v=100
109410 On ch=15 n=42 v=0
109440 On ch=15 n=50 v=100
109650 On ch=15 n=50 v=0
109680 On ch=15 n=49 v=100
109890 On ch=15 n=49 v=0
109920 On ch=15 n=47 v=100
110130 On ch=15 n=47 v=0
110160 On ch=15 n=45 v=100
110370 On ch=15 n=45 v=0
110400 On ch=15 n=50 v=100
110610 On ch=15 n=50 v=0
110640 On ch=15 n=49 v=100
110850 On ch=15 n=49 v=0
110880 On ch=15 n=47 v=100
111090 On ch=15 n=47 v=0
111120 On ch=15 n=45 v=100
111330 On ch=15 n=45 v=0
111360 On ch=15 n=54 v=100
111570 On ch=15 n=54 v=0
111600 On ch=15 n=52 v=100
111810 On ch=15 n=52 v=0
111840 On ch=15 n=50 v=100
112050 On ch=15 n=50 v=0
112080 On ch=15 n=49 v=100
112290 On ch=15 n=49 v=0
112320 On ch=15 n=54 v=100
112530 On ch=15 n=54 v=0
112560 On ch=15 n=52 v=100
112770 On ch=15 n=52 v=0
112800 On ch=15 n=50 v=100
113010 On ch=15 n=50 v=0
113040 On ch=15 n=49 v=100
113250 On ch=15 n=49 v=0
113280 On ch=15 n=50 v=100
113490 On ch=15 n=50 v=0
113520 On ch=15 n=49 v=100
113730 On ch=15 n=49 v=0
113760 On ch=15 n=50 v=100
113970 On ch=15 n=50 v=0
114000 On ch=15 n=52 v=100
114210 On ch=15 n=52 v=0
114240 On ch=15 n=54 v=100
114450 On ch=15 n=54 v=0
114480 On ch=15 n=52 v=100
114690 On ch=15 n=52 v=0
114720 On ch=15 n=50 v=100
114930 On ch=15 n=50 v=0
114960 On ch=15 n=49 v=100
115170 On ch=15 n=49 v=0
115200 On ch=15 n=54 v=100
115410 On ch=15 n=54 v=0
115440 On ch=15 n=52 v=100
115650 On ch=15 n=52 v=0
115680 On ch=15 n=50 v=100
115890 On ch=15 n=50 v=0
115920 On ch=15 n=49 v=100
116130 On ch=15 n=49 v=0
116160 On ch=15 n=54 v=100
116370 On ch=15 n=54 v=0
116400 On ch=15 n=52 v=100
116610 On ch=15 n=52 v=0
116640 On ch=15 n=50 v=100
116850 On ch=15 n=50 v=0
116880 On ch=15 n=49 v=100
117090 On ch=15 n=49 v=0
117120 On ch=15 n=50 v=100
117330 On ch=15 n=50 v=0
117360 On ch=15 n=49 v=100
117570 On ch=15 n=49 v=0
117600 On ch=15 n=50 v=100
117810 On ch=15 n=50 v=0
117840 On ch=15 n=52 v=100
118050 On ch=15 n=52 v=0
118080 On ch=15 n=54 v=100
118290 On ch=15 n=54 v=0
118320 On ch=15 n=52 v=100
118530 On ch=15 n=52 v=0
118560 On ch=15 n=50 v=100
118770 On ch=15 n=50 v=0
118800 On ch=15 n=49 v=100
119010 On ch=15 n=49 v=0
119040 On ch=15 n=54 v=100
119250 On ch=15 n=54 v=0
119280 On ch=15 n=53 v=100
119490 On ch=15 n=53 v=0
119520 On ch=15 n=51 v=100
119730 On ch=15 n=51 v=0
119760 On ch=15 n=49 v=100
119970 On ch=15 n=49 v=0
120000 On ch=15 n=54 v=100
120210 On ch=15 n=54 v=0
120240 On ch=15 n=53 v=100
120450 On ch=15 n=53 v=0
120480 On ch=15 n=51 v=100
120690 On ch=15 n=51 v=0
120720 On ch=15 n=49 v=100
120930 On ch=15 n=49 v=0
120960 On ch=15 n=51 v=100
121170 On ch=15 n=51 v=0
121200 On ch=15 n=49 v=100
121410 On ch=15 n=49 v=0
121440 On ch=15 n=51 v=100
121650 On ch=15 n=51 v=0
121680 On ch=15 n=53 v=100
121890 On ch=15 n=53 v=0
121920 On ch=15 n=54 v=100
122130 On ch=15 n=54 v=0
122160 On ch=15 n=53 v=100
122370 On ch=15 n=53 v=0
122400 On ch=15 n=51 v=100
122610 On ch=15 n=51 v=0
122640 On ch=15 n=49 v=100
122850 On ch=15 n=49 v=0
122880 On ch=15 n=54 v=100
123090 On ch=15 n=54 v=0
123120 On ch=15 n=53 v=100
123330 On ch=15 n=53 v=0
123360 On ch=15 n=51 v=100
123570 On ch=15 n=51 v=0
123600 On ch=15 n=49 v=100
123810 On ch=15 n=49 v=0
123840 On ch=15 n=54 v=100
124050 On ch=15 n=54 v=0
124080 On ch=15 n=53 v=100
124290 On ch=15 n=53 v=0
124320 On ch=15 n=51 v=100
124530 On ch=15 n=51 v=0
124560 On ch=15 n=49 v=100
124770 On ch=15 n=49 v=0
124800 On ch=15 n=51 v=100
125010 On ch=15 n=51 v=0
125040 On ch=15 n=49 v=100
125250 On ch=15 n=49 v=0
125280 On ch=15 n=51 v=100
125490 On ch=15 n=51 v=0
125520 On ch=15 n=53 v=100
125730 On ch=15 n=53 v=0
125760 On ch=15 n=54 v=100
125970 On ch=15 n=54 v=0
126000 On ch=15 n=53 v=100
126210 On ch=15 n=53 v=0
126240 On ch=15 n=51 v=100
126450 On ch=15 n=51 v=0
126480 On ch=15 n=49 v=100
126690 On ch=15 n=49 v=0
126720 On ch=15 n=47 v=100
126930 On ch=15 n=47 v=0
126960 On ch=15 n=45 v=100
127170 On ch=15 n=45 v=0
127200 On ch=15 n=43 v=100
127410 On ch=15 n=43 v=0
127440 On ch=15 n=42 v=100
127650 On ch=15 n=42 v=0
127680 On ch=15 n=47 v=100
127890 On ch=15 n=47 v=0
127920 On ch=15 n=45 v=100
128130 On ch=15 n=45 v=0
128160 On ch=15 n=43 v=100
128370 On ch=15 n=43 v=0
128400 On ch=15 n=42 v=100
128610 On ch=15 n=42 v=0
128640 On ch=15 n=47 v=100
128850 On ch=15 n=47 v=0
128880 On ch=15 n=45 v=100
129090 On ch=15 n=45 v=0
129120 On ch=15 n=43 v=100
129330 On ch=15 n=43 v=0
129360 On ch=15 n=42 v=100
129570 On ch=15 n=42 v=0
129600 On ch=15 n=47 v=100
129810 On ch=15 n=47 v=0
129840 On ch=15 n=45 v=100
130050 On ch=15 n=45 v=0
130080 On ch=15 n=43 v=100
130290 On ch=15 n=43 v=0
130320 On ch=15 n=42 v=100
130530 On ch=15 n=42 v=0
130560 On ch=15 n=47 v=100
130770 On ch=15 n=47 v=0
130800 On ch=15 n=45 v=100
131010 On ch=15 n=45 v=0
131040 On ch=15 n=43 v=100
131250 On ch=15 n=43 v=0
131280 On ch=15 n=42 v=100
131490 On ch=15 n=42 v=0
131520 On ch=15 n=47 v=100
131730 On ch=15 n=47 v=0
131760 On ch=15 n=45 v=100
131970 On ch=15 n=45 v=0
132000 On ch=15 n=43 v=100
132210 On ch=15 n=43 v=0
132240 On ch=15 n=42 v=100
132450 On ch=15 n=42 v=0
132480 On ch=15 n=50 v=100
132690 On ch=15 n=50 v=0
132720 On ch=15 n=49 v=100
132930 On ch=15 n=49 v=0
132960 On ch=15 n=47 v=100
133170 On ch=15 n=47 v=0
133200 On ch=15 n=45 v=100
133410 On ch=15 n=45 v=0
133440 On ch=15 n=50 v=100
133650 On ch=15 n=50 v=0
133680 On ch=15 n=49 v=100
133890 On ch=15 n=49 v=0
133920 On ch=15 n=47 v=100
134130 On ch=15 n=47 v=0
134160 On ch=15 n=45 v=100
134370 On ch=15 n=45 v=0
134400 On ch=15 n=47 v=100
134610 On ch=15 n=47 v=0
134640 On ch=15 n=45 v=100
134850 On ch=15 n=45 v=0
134880 On ch=15 n=43 v=100
135090 On ch=15 n=43 v=0
135120 On ch=15 n=42 v=100
135330 On ch=15 n=42 v=0
135360 On ch=15 n=47 v=100
135570 On ch=15 n=47 v=0
135600 On ch=15 n=45 v=100
135810 On ch=15 n=45 v=0
135840 On ch=15 n=43 v=100
136050 On ch=15 n=43 v=0
136080 On ch=15 n=42 v=100
136290 On ch=15 n=42 v=0
136320 On ch=15 n=47 v=100
136530 On ch=15 n=47 v=0
136560 On ch=15 n=45 v=100
136770 On ch=15 n=45 v=0
136800 On ch=15 n=43 v=100
137010 On ch=15 n=43 v=0
137040 On ch=15 n=42 v=100
137250 On ch=15 n=42 v=0
137280 On ch=15 n=47 v=100
137490 On ch=15 n=47 v=0
137520 On ch=15 n=45 v=100
137730 On ch=15 n=45 v=0
137760 On ch=15 n=43 v=100
137970 On ch=15 n=43 v=0
138000 On ch=15 n=42 v=100
138210 On ch=15 n=42 v=0
138240 On ch=15 n=47 v=100
138450 On ch=15 n=47 v=0
138480 On ch=15 n=45 v=100
138690 On ch=15 n=45 v=0
138720 On ch=15 n=43 v=100
138930 On ch=15 n=43 v=0
138960 On ch=15 n=42 v=100
139170 On ch=15 n=42 v=0
139200 On ch=15 n=47 v=100
139410 On ch=15 n=47 v=0
139440 On ch=15 n=45 v=100
139650 On ch=15 n=45 v=0
139680 On ch=15 n=43 v=100
139890 On ch=15 n=43 v=0
139920 On ch=15 n=42 v=100
140130 On ch=15 n=42 v=0
140160 On ch=15 n=47 v=100
140370 On ch=15 n=47 v=0
140400 On ch=15 n=45 v=100
140610 On ch=15 n=45 v=0
140640 On ch=15 n=43 v=100
140850 On ch=15 n=43 v=0
140880 On ch=15 n=42 v=100
141090 On ch=15 n=42 v=0
141120 On ch=15 n=47 v=100
141330 On ch=15 n=47 v=0
141360 On ch=15 n=45 v=100
141570 On ch=15 n=45 v=0
141600 On ch=15 n=43 v=100
141810 On ch=15 n=43 v=0
141840 On ch=15 n=42 v=100
142050 On ch=15 n=42 v=0
142080 On ch=15 n=47 v=100
142530 On ch=15 n=47 v=0
144000 On ch=15 n=47 v=100
144450 On ch=15 n=47 v=0
149760 On ch=15 n=47 v=100
150210 On ch=15 n=47 v=0
151680 On ch=15 n=47 v=100
152130 On ch=15 n=47 v=0
153600 On ch=15 n=55 v=100
154050 On ch=15 n=55 v=0
154560 On ch=15 n=54 v=100
155010 On ch=15 n=54 v=0
155520 On ch=15 n=42 v=100
155970 On ch=15 n=42 v=0
156480 On ch=15 n=47 v=100
156930 On ch=15 n=47 v=0
157440 On ch=15 n=47 v=100
157890 On ch=15 n=47 v=0
159360 On ch=15 n=47 v=100
159810 On ch=15 n=47 v=0
161280 On ch=15 n=47 v=100
161730 On ch=15 n=47 v=0
168480 Par ch=15 c=11 v=100
168960 On ch=15 n=47 v=126
169080 On ch=15 n=47 v=0
169440 On ch=15 n=59 v=126
169650 On ch=15 n=59 v=0
169650 Meta TrkEnd
TrkEnd
MTrk
0 Meta 0x20 15
0 Meta TrkName "Contrabass"
0 Meta InstrName "Bassi   "
3840 On ch=16 n=35 v=65
4050 On ch=16 n=35 v=0
4080 On ch=16 n=37 v=65
4290 On ch=16 n=37 v=0
4320 On ch=16 n=38 v=65
4530 On ch=16 n=38 v=0
4560 On ch=16 n=40 v=65
4770 On ch=16 n=40 v=0
4800 On ch=16 n=42 v=85
5010 On ch=16 n=42 v=0
5040 On ch=16 n=38 v=65
5250 On ch=16 n=38 v=0
5280 On ch=16 n=42 v=65
5730 On ch=16 n=42 v=0
5760 On ch=16 n=41 v=85
5970 On ch=16 n=41 v=0
6000 On ch=16 n=37 v=65
6210 On ch=16 n=37 v=0
6240 On ch=16 n=41 v=65
6690 On ch=16 n=41 v=0
6720 On ch=16 n=40 v=85
6930 On ch=16 n=40 v=0
6960 On ch=16 n=36 v=65
7170 On ch=16 n=36 v=0
7200 On ch=16 n=40 v=65
7650 On ch=16 n=40 v=0
7680 On ch=16 n=35 v=65
7890 On ch=16 n=35 v=0
7920 On ch=16 n=37 v=65
8130 On ch=16 n=37 v=0
8160 On ch=16 n=38 v=65
8370 On ch=16 n=38 v=0
8400 On ch=16 n=40 v=65
8610 On ch=16 n=40 v=0
8640 On ch=16 n=42 v=65
8850 On ch=16 n=42 v=0
8880 On ch=16 n=38 v=65
9090 On ch=16 n=38 v=0
9120 On ch=16 n=42 v=65
9330 On ch=16 n=42 v=0
9360 On ch=16 n=47 v=65
9570 On ch=16 n=47 v=0
9600 On ch=16 n=45 v=85
9810 On ch=16 n=45 v=0
9840 On ch=16 n=42 v=65
10050 On ch=16 n=42 v=0
10080 On ch=16 n=38 v=65
10290 On ch=16 n=38 v=0
10320 On ch=16 n=42 v=65
10530 On ch=16 n=42 v=0
10560 On ch=16 n=45 v=85
11010 On ch=16 n=45 v=0
11520 On ch=16 n=35 v=45
11730 On ch=16 n=35 v=0
12000 On ch=16 n=42 v=45
12210 On ch=16 n=42 v=0
12480 On ch=16 n=35 v=45
12690 On ch=16 n=35 v=0
12960 On ch=16 n=42 v=45
13170 On ch=16 n=42 v=0
13440 On ch=16 n=35 v=45
13650 On ch=16 n=35 v=0
13920 On ch=16 n=42 v=45
14130 On ch=16 n=42 v=0
14400 On ch=16 n=35 v=45
14610 On ch=16 n=35 v=0
14880 On ch=16 n=42 v=45
15090 On ch=16 n=42 v=0
15360 On ch=16 n=35 v=45
15570 On ch=16 n=35 v=0
15840 On ch=16 n=42 v=45
16050 On ch=16 n=42 v=0
16320 On ch=16 n=35 v=45
16530 On ch=16 n=35 v=0
16800 On ch=16 n=42 v=45
17010 On ch=16 n=42 v=0
17280 On ch=16 n=38 v=45
17490 On ch=16 n=38 v=0
17760 On ch=16 n=45 v=45
17970 On ch=16 n=45 v=0
18240 On ch=16 n=38 v=45
18450 On ch=16 n=38 v=0
18720 On ch=16 n=45 v=45
18930 On ch=16 n=45 v=0
19200 On ch=16 n=42 v=65
19410 On ch=16 n=42 v=0
19440 On ch=16 n=44 v=65
19650 On ch=16 n=44 v=0
19680 On ch=16 n=46 v=65
19890 On ch=16 n=46 v=0
19920 On ch=16 n=47 v=65
20130 On ch=16 n=47 v=0
20160 On ch=16 n=49 v=85
20370 On ch=16 n=49 v=0
20400 On ch=16 n=46 v=65
20610 On ch=16 n=46 v=0
20640 On ch=16 n=49 v=65
20850 On ch=16 n=49 v=0
21120 On ch=16 n=50 v=85
21330 On ch=16 n=50 v=0
21360 On ch=16 n=46 v=65
21570 On ch=16 n=46 v=0
21600 On ch=16 n=50 v=65
22050 On ch=16 n=50 v=0
22080 On ch=16 n=49 v=85
22290 On ch=16 n=49 v=0
22320 On ch=16 n=46 v=65
22530 On ch=16 n=46 v=0
22560 On ch=16 n=49 v=65
23010 On ch=16 n=49 v=0
23040 On ch=16 n=42 v=65
23250 On ch=16 n=42 v=0
23280 On ch=16 n=44 v=65
23490 On ch=16 n=44 v=0
23520 On ch=16 n=46 v=65
23730 On ch=16 n=46 v=0
23760 On ch=16 n=47 v=65
23970 On ch=16 n=47 v=0
24000 On ch=16 n=49 v=85
24210 On ch=16 n=49 v=0
24240 On ch=16 n=46 v=65
24450 On ch=16 n=46 v=0
24480 On ch=16 n=49 v=65
24690 On ch=16 n=49 v=0
24960 On ch=16 n=50 v=85
25170 On ch=16 n=50 v=0
25200 On ch=16 n=46 v=65
25410 On ch=16 n=46 v=0
25440 On ch=16 n=50 v=65
25890 On ch=16 n=50 v=0
25920 On ch=16 n=49 v=85
26370 On ch=16 n=49 v=0
26880 On ch=16 n=42 v=45
27330 On ch=16 n=42 v=0
27360 On ch=16 n=49 v=45
27810 On ch=16 n=49 v=0
27840 On ch=16 n=42 v=45
28290 On ch=16 n=42 v=0
28320 On ch=16 n=46 v=45
28770 On ch=16 n=46 v=0
28800 On ch=16 n=38 v=45
29250 On ch=16 n=38 v=0
29280 On ch=16 n=46 v=45
29730 On ch=16 n=46 v=0
29760 On ch=16 n=42 v=45
30210 On ch=16 n=42 v=0
30240 On ch=16 n=46 v=45
30690 On ch=16 n=46 v=0
30720 On ch=16 n=42 v=45
31170 On ch=16 n=42 v=0
31200 On ch=16 n=49 v=45
31650 On ch=16 n=49 v=0
31680 On ch=16 n=42 v=45
32130 On ch=16 n=42 v=0
32160 On ch=16 n=46 v=45
32610 On ch=16 n=46 v=0
32640 On ch=16 n=38 v=45
33090 On ch=16 n=38 v=0
33120 On ch=16 n=46 v=45
33570 On ch=16 n=46 v=0
33600 On ch=16 n=42 v=45
34050 On ch=16 n=42 v=0
34080 On ch=16 n=46 v=45
34530 On ch=16 n=46 v=0
34560 On ch=16 n=35 v=65
34770 On ch=16 n=35 v=0
34800 On ch=16 n=37 v=65
35010 On ch=16 n=37 v=0
35040 On ch=16 n=38 v=65
35250 On ch=16 n=38 v=0
35280 On ch=16 n=40 v=65
35490 On ch=16 n=40 v=0
35520 On ch=16 n=42 v=85
35730 On ch=16 n=42 v=0
35760 On ch=16 n=38 v=65
35970 On ch=16 n=38 v=0
36000 On ch=16 n=42 v=65
36210 On ch=16 n=42 v=0
36480 On ch=16 n=41 v=85
36690 On ch=16 n=41 v=0
36720 On ch=16 n=37 v=65
36930 On ch=16 n=37 v=0
36960 On ch=16 n=41 v=65
37410 On ch=16 n=41 v=0
37440 On ch=16 n=40 v=85
37650 On ch=16 n=40 v=0
37680 On ch=16 n=36 v=65
37890 On ch=16 n=36 v=0
37920 On ch=16 n=40 v=65
38370 On ch=16 n=40 v=0
38400 On ch=16 n=35 v=65
38610 On ch=16 n=35 v=0
38640 On ch=16 n=37 v=65
38850 On ch=16 n=37 v=0
38880 On ch=16 n=38 v=65
39090 On ch=16 n=38 v=0
39120 On ch=16 n=40 v=65
39330 On ch=16 n=40 v=0
39360 On ch=16 n=42 v=65
39570 On ch=16 n=42 v=0
39600 On ch=16 n=38 v=65
39810 On ch=16 n=38 v=0
39840 On ch=16 n=42 v=65
40050 On ch=16 n=42 v=0
40080 On ch=16 n=47 v=65
40290 On ch=16 n=47 v=0
40320 On ch=16 n=45 v=85
40530 On ch=16 n=45 v=0
40560 On ch=16 n=42 v=65
40770 On ch=16 n=42 v=0
40800 On ch=16 n=38 v=65
41010 On ch=16 n=38 v=0
41040 On ch=16 n=42 v=65
41250 On ch=16 n=42 v=0
41280 On ch=16 n=45 v=85
41730 On ch=16 n=45 v=0
42240 On ch=16 n=35 v=45
42690 On ch=16 n=35 v=0
42720 On ch=16 n=42 v=45
43170 On ch=16 n=42 v=0
43200 On ch=16 n=35 v=45
43650 On ch=16 n=35 v=0
43680 On ch=16 n=42 v=45
44130 On ch=16 n=42 v=0
44160 On ch=16 n=35 v=45
44610 On ch=16 n=35 v=0
44640 On ch=16 n=42 v=45
45090 On ch=16 n=42 v=0
45120 On ch=16 n=35 v=45
45570 On ch=16 n=35 v=0
45600 On ch=16 n=42 v=45
46050 On ch=16 n=42 v=0
46080 On ch=16 n=35 v=45
46530 On ch=16 n=35 v=0
46560 On ch=16 n=47 v=45
47010 On ch=16 n=47 v=0
47040 On ch=16 n=45 v=45
47490 On ch=16 n=45 v=0
47520 On ch=16 n=43 v=45
47970 On ch=16 n=43 v=0
48000 On ch=16 n=42 v=45
48450 On ch=16 n=42 v=0
48480 On ch=16 n=40 v=45
48930 On ch=16 n=40 v=0
48960 On ch=16 n=38 v=45
49410 On ch=16 n=38 v=0
49440 On ch=16 n=37 v=45
49890 On ch=16 n=37 v=0
49920 On ch=16 n=35 v=70
50370 On ch=16 n=35 v=0
50400 On ch=16 n=47 v=70
50850 On ch=16 n=47 v=0
50880 On ch=16 n=35 v=70
51330 On ch=16 n=35 v=0
51360 On ch=16 n=47 v=70
51810 On ch=16 n=47 v=0
51840 On ch=16 n=35 v=70
52290 On ch=16 n=35 v=0
52320 On ch=16 n=47 v=70
52770 On ch=16 n=47 v=0
52800 On ch=16 n=35 v=70
53250 On ch=16 n=35 v=0
53280 On ch=16 n=47 v=70
53730 On ch=16 n=47 v=0
53760 On ch=16 n=35 v=70
54210 On ch=16 n=35 v=0
54240 On ch=16 n=47 v=70
54690 On ch=16 n=47 v=0
54720 On ch=16 n=35 v=70
55170 On ch=16 n=35 v=0
55200 On ch=16 n=47 v=70
55650 On ch=16 n=47 v=0
55680 On ch=16 n=38 v=70
56130 On ch=16 n=38 v=0
56160 On ch=16 n=50 v=70
56610 On ch=16 n=50 v=0
56640 On ch=16 n=38 v=70
57090 On ch=16 n=38 v=0
57120 On ch=16 n=50 v=70
57570 On ch=16 n=50 v=0
57600 On ch=16 n=35 v=70
58050 On ch=16 n=35 v=0
58080 On ch=16 n=47 v=70
58530 On ch=16 n=47 v=0
58560 On ch=16 n=35 v=70
59010 On ch=16 n=35 v=0
59040 On ch=16 n=47 v=70
59490 On ch=16 n=47 v=0
59520 On ch=16 n=35 v=70
59970 On ch=16 n=35 v=0
60000 On ch=16 n=47 v=70
60450 On ch=16 n=47 v=0
60480 On ch=16 n=35 v=70
60930 On ch=16 n=35 v=0
60960 On ch=16 n=47 v=70
61410 On ch=16 n=47 v=0
61440 On ch=16 n=35 v=70
61890 On ch=16 n=35 v=0
61920 On ch=16 n=47 v=70
62370 On ch=16 n=47 v=0
62400 On ch=16 n=35 v=70
62850 On ch=16 n=35 v=0
62880 On ch=16 n=47 v=70
63330 On ch=16 n=47 v=0
63360 On ch=16 n=38 v=70
63810 On ch=16 n=38 v=0
63840 On ch=16 n=50 v=70
64290 On ch=16 n=50 v=0
64320 On ch=16 n=38 v=70
64770 On ch=16 n=38 v=0
64800 On ch=16 n=50 v=70
65250 On ch=16 n=50 v=0
65280 On ch=16 n=42 v=70
65730 On ch=16 n=42 v=0
65760 On ch=16 n=54 v=70
66210 On ch=16 n=54 v=0
66240 On ch=16 n=42 v=70
66690 On ch=16 n=42 v=0
66720 On ch=16 n=54 v=70
67170 On ch=16 n=54 v=0
67200 On ch=16 n=38 v=70
67650 On ch=16 n=38 v=0
67680 On ch=16 n=50 v=70
68130 On ch=16 n=50 v=0
68160 On ch=16 n=42 v=71
68610 On ch=16 n=42 v=0
68640 On ch=16 n=54 v=71
69090 On ch=16 n=54 v=0
69120 On ch=16 n=42 v=71
69570 On ch=16 n=42 v=0
69600 On ch=16 n=54 v=71
70050 On ch=16 n=54 v=0
70080 On ch=16 n=42 v=71
70530 On ch=16 n=42 v=0
70560 On ch=16 n=54 v=71
71010 On ch=16 n=54 v=0
71040 On ch=16 n=38 v=72
71490 On ch=16 n=38 v=0
71520 On ch=16 n=50 v=72
71970 On ch=16 n=50 v=0
72000 On ch=16 n=42 v=72
72450 On ch=16 n=42 v=0
72480 On ch=16 n=54 v=72
72930 On ch=16 n=54 v=0
72960 On ch=16 n=42 v=72
73410 On ch=16 n=42 v=0
73440 On ch=16 n=54 v=73
73890 On ch=16 n=54 v=0
73920 On ch=16 n=42 v=73
74370 On ch=16 n=42 v=0
74400 On ch=16 n=54 v=73
74850 On ch=16 n=54 v=0
74880 On ch=16 n=38 v=73
75330 On ch=16 n=38 v=0
75360 On ch=16 n=50 v=73
75810 On ch=16 n=50 v=0
75840 On ch=16 n=42 v=73
76290 On ch=16 n=42 v=0
76320 On ch=16 n=54 v=74
76770 On ch=16 n=54 v=0
76800 On ch=16 n=42 v=74
77250 On ch=16 n=42 v=0
77280 On ch=16 n=54 v=74
77730 On ch=16 n=54 v=0
77760 On ch=16 n=42 v=74
78210 On ch=16 n=42 v=0
78240 On ch=16 n=54 v=74
78690 On ch=16 n=54 v=0
78720 On ch=16 n=38 v=75
79170 On ch=16 n=38 v=0
79200 On ch=16 n=50 v=75
79650 On ch=16 n=50 v=0
79680 On ch=16 n=42 v=75
80130 On ch=16 n=42 v=0
80160 On ch=16 n=54 v=75
80610 On ch=16 n=54 v=0
80640 On ch=16 n=35 v=75
81090 On ch=16 n=35 v=0
81120 On ch=16 n=47 v=75
81570 On ch=16 n=47 v=0
81600 On ch=16 n=35 v=76
82050 On ch=16 n=35 v=0
82080 On ch=16 n=47 v=76
82530 On ch=16 n=47 v=0
82560 On ch=16 n=35 v=76
83010 On ch=16 n=35 v=0
83040 On ch=16 n=47 v=76
83490 On ch=16 n=47 v=0
83520 On ch=16 n=35 v=76
83970 On ch=16 n=35 v=0
84000 On ch=16 n=47 v=76
84450 On ch=16 n=47 v=0
84480 On ch=16 n=35 v=77
84930 On ch=16 n=35 v=0
84960 On ch=16 n=47 v=77
85410 On ch=16 n=47 v=0
85440 On ch=16 n=35 v=77
85890 On ch=16 n=35 v=0
85920 On ch=16 n=47 v=77
86370 On ch=16 n=47 v=0
86400 On ch=16 n=38 v=77
86850 On ch=16 n=38 v=0
86880 On ch=16 n=50 v=78
87330 On ch=16 n=50 v=0
87360 On ch=16 n=38 v=78
87810 On ch=16 n=38 v=0
87840 On ch=16 n=50 v=78
88290 On ch=16 n=50 v=0
88320 On ch=16 n=35 v=78
88770 On ch=16 n=35 v=0
88800 On ch=16 n=47 v=78
89250 On ch=16 n=47 v=0
89280 On ch=16 n=35 v=78
89730 On ch=16 n=35 v=0
89760 On ch=16 n=47 v=79
90210 On ch=16 n=47 v=0
90240 On ch=16 n=35 v=79
90690 On ch=16 n=35 v=0
90720 On ch=16 n=47 v=79
91170 On ch=16 n=47 v=0
91200 On ch=16 n=35 v=79
91650 On ch=16 n=35 v=0
91680 On ch=16 n=47 v=79
92130 On ch=16 n=47 v=0
92160 On ch=16 n=35 v=80
92610 On ch=16 n=35 v=0
92640 On ch=16 n=47 v=85
92730 On ch=16 n=47 v=0
93120 On ch=16 n=45 v=91
93210 On ch=16 n=45 v=0
93600 On ch=16 n=43 v=97
93690 On ch=16 n=43 v=0
94080 On ch=16 n=42 v=103
94170 On ch=16 n=42 v=0
94560 On ch=16 n=40 v=109
94650 On ch=16 n=40 v=0
95040 On ch=16 n=38 v=115
95130 On ch=16 n=38 v=0
95520 On ch=16 n=37 v=121
95610 On ch=16 n=37 v=0
96000 On ch=16 n=35 v=100
96210 On ch=16 n=35 v=0
96240 On ch=16 n=33 v=100
96450 On ch=16 n=33 v=0
96480 On ch=16 n=31 v=100
96690 On ch=16 n=31 v=0
96720 On ch=16 n=30 v=100
96930 On ch=16 n=30 v=0
96960 On ch=16 n=35 v=100
97170 On ch=16 n=35 v=0
97200 On ch=16 n=33 v=100
97410 On ch=16 n=33 v=0
97440 On ch=16 n=31 v=100
97650 On ch=16 n=31 v=0
97680 On ch=16 n=30 v=100
97890 On ch=16 n=30 v=0
97920 On ch=16 n=35 v=100
98130 On ch=16 n=35 v=0
98160 On ch=16 n=33 v=100
98370 On ch=16 n=33 v=0
98400 On ch=16 n=31 v=100
98610 On ch=16 n=31 v=0
98640 On ch=16 n=30 v=100
98850 On ch=16 n=30 v=0
98880 On ch=16 n=35 v=100
99090 On ch=16 n=35 v=0
99120 On ch=16 n=33 v=100
99330 On ch=16 n=33 v=0
99360 On ch=16 n=31 v=100
99570 On ch=16 n=31 v=0
99600 On ch=16 n=30 v=100
99810 On ch=16 n=30 v=0
99840 On ch=16 n=35 v=100
100050 On ch=16 n=35 v=0
100080 On ch=16 n=33 v=100
100290 On ch=16 n=33 v=0
100320 On ch=16 n=31 v=100
100530 On ch=16 n=31 v=0
100560 On ch=16 n=30 v=100
100770 On ch=16 n=30 v=0
100800 On ch=16 n=35 v=100
101010 On ch=16 n=35 v=0
101040 On ch=16 n=33 v=100
101250 On ch=16 n=33 v=0
101280 On ch=16 n=31 v=100
101490 On ch=16 n=31 v=0
101520 On ch=16 n=30 v=100
101730 On ch=16 n=30 v=0
101760 On ch=16 n=38 v=100
101970 On ch=16 n=38 v=0
102000 On ch=16 n=37 v=100
102210 On ch=16 n=37 v=0
102240 On ch=16 n=35 v=100
102450 On ch=16 n=35 v=0
102480 On ch=16 n=33 v=100
102690 On ch=16 n=33 v=0
102720 On ch=16 n=38 v=100
102930 On ch=16 n=38 v=0
102960 On ch=16 n=37 v=100
103170 On ch=16 n=37 v=0
103200 On ch=16 n=35 v=100
103410 On ch=16 n=35 v=0
103440 On ch=16 n=33 v=100
103650 On ch=16 n=33 v=0
103680 On ch=16 n=35 v=100
103890 On ch=16 n=35 v=0
103920 On ch=16 n=33 v=100
104130 On ch=16 n=33 v=0
104160 On ch=16 n=31 v=100
104370 On ch=16 n=31 v=0
104400 On ch=16 n=30 v=100
104610 On ch=16 n=30 v=0
104640 On ch=16 n=35 v=100
104850 On ch=16 n=35 v=0
104880 On ch=16 n=33 v=100
105090 On ch=16 n=33 v=0
105120 On ch=16 n=31 v=100
105330 On ch=16 n=31 v=0
105360 On ch=16 n=30 v=100
105570 On ch=16 n=30 v=0
105600 On ch=16 n=35 v=100
105810 On ch=16 n=35 v=0
105840 On ch=16 n=33 v=100
106050 On ch=16 n=33 v=0
106080 On ch=16 n=31 v=100
106290 On ch=16 n=31 v=0
106320 On ch=16 n=30 v=100
106530 On ch=16 n=30 v=0
106560 On ch=16 n=35 v=100
106770 On ch=16 n=35 v=0
106800 On ch=16 n=33 v=100
107010 On ch=16 n=33 v=0
107040 On ch=16 n=31 v=100
107250 On ch=16 n=31 v=0
107280 On ch=16 n=30 v=100
107490 On ch=16 n=30 v=0
107520 On ch=16 n=35 v=100
107730 On ch=16 n=35 v=0
107760 On ch=16 n=33 v=100
107970 On ch=16 n=33 v=0
108000 On ch=16 n=31 v=100
108210 On ch=16 n=31 v=0
108240 On ch=16 n=30 v=100
108450 On ch=16 n=30 v=0
108480 On ch=16 n=35 v=100
108690 On ch=16 n=35 v=0
108720 On ch=16 n=33 v=100
108930 On ch=16 n=33 v=0
108960 On ch=16 n=31 v=100
109170 On ch=16 n=31 v=0
109200 On ch=16 n=30 v=100
109410 On ch=16 n=30 v=0
109440 On ch=16 n=38 v=100
109650 On ch=16 n=38 v=0
109680 On ch=16 n=37 v=100
109890 On ch=16 n=37 v=0
109920 On ch=16 n=35 v=100
110130 On ch=16 n=35 v=0
110160 On ch=16 n=33 v=100
110370 On ch=16 n=33 v=0
110400 On ch=16 n=38 v=100
110610 On ch=16 n=38 v=0
110640 On ch=16 n=37 v=100
110850 On ch=16 n=37 v=0
110880 On ch=16 n=35 v=100
111090 On ch=16 n=35 v=0
111120 On ch=16 n=33 v=100
111330 On ch=16 n=33 v=0
111360 On ch=16 n=42 v=100
111570 On ch=16 n=42 v=0
111600 On ch=16 n=40 v=100
111810 On ch=16 n=40 v=0
111840 On ch=16 n=38 v=100
112050 On ch=16 n=38 v=0
112080 On ch=16 n=37 v=100
112290 On ch=16 n=37 v=0
112320 On ch=16 n=42 v=100
112530 On ch=16 n=42 v=0
112560 On ch=16 n=40 v=100
112770 On ch=16 n=40 v=0
112800 On ch=16 n=38 v=100
113010 On ch=16 n=38 v=0
113040 On ch=16 n=37 v=100
113250 On ch=16 n=37 v=0
113280 On ch=16 n=38 v=100
113490 On ch=16 n=38 v=0
113520 On ch=16 n=37 v=100
113730 On ch=16 n=37 v=0
113760 On ch=16 n=38 v=100
113970 On ch=16 n=38 v=0
114000 On ch=16 n=40 v=100
114210 On ch=16 n=40 v=0
114240 On ch=16 n=42 v=100
114450 On ch=16 n=42 v=0
114480 On ch=16 n=40 v=100
114690 On ch=16 n=40 v=0
114720 On ch=16 n=38 v=100
114930 On ch=16 n=38 v=0
114960 On ch=16 n=37 v=100
115170 On ch=16 n=37 v=0
115200 On ch=16 n=42 v=100
115410 On ch=16 n=42 v=0
115440 On ch=16 n=40 v=100
115650 On ch=16 n=40 v=0
115680 On ch=16 n=38 v=100
115890 On ch=16 n=38 v=0
115920 On ch=16 n=37 v=100
116130 On ch=16 n=37 v=0
116160 On ch=16 n=42 v=100
116370 On ch=16 n=42 v=0
116400 On ch=16 n=40 v=100
116610 On ch=16 n=40 v=0
116640 On ch=16 n=38 v=100
116850 On ch=16 n=38 v=0
116880 On ch=16 n=37 v=100
117090 On ch=16 n=37 v=0
117120 On ch=16 n=38 v=100
117330 On ch=16 n=38 v=0
117360 On ch=16 n=37 v=100
117570 On ch=16 n=37 v=0
117600 On ch=16 n=38 v=100
117810 On ch=16 n=38 v=0
117840 On ch=16 n=40 v=100
118050 On ch=16 n=40 v=0
118080 On ch=16 n=42 v=100
118290 On ch=16 n=42 v=0
118320 On ch=16 n=40 v=100
118530 On ch=16 n=40 v=0
118560 On ch=16 n=38 v=100
118770 On ch=16 n=38 v=0
118800 On ch=16 n=37 v=100
119010 On ch=16 n=37 v=0
119040 On ch=16 n=42 v=100
119250 On ch=16 n=42 v=0
119280 On ch=16 n=41 v=100
119490 On ch=16 n=41 v=0
119520 On ch=16 n=39 v=100
119730 On ch=16 n=39 v=0
119760 On ch=16 n=37 v=100
119970 On ch=16 n=37 v=0
120000 On ch=16 n=42 v=100
120210 On ch=16 n=42 v=0
120240 On ch=16 n=41 v=100
120450 On ch=16 n=41 v=0
120480 On ch=16 n=39 v=100
120690 On ch=16 n=39 v=0
120720 On ch=16 n=37 v=100
120930 On ch=16 n=37 v=0
120960 On ch=16 n=39 v=100
121170 On ch=16 n=39 v=0
121200 On ch=16 n=37 v=100
121410 On ch=16 n=37 v=0
121440 On ch=16 n=39 v=100
121650 On ch=16 n=39 v=0
121680 On ch=16 n=41 v=100
121890 On ch=16 n=41 v=0
121920 On ch=16 n=42 v=100
122130 On ch=16 n=42 v=0
122160 On ch=16 n=41 v=100
122370 On ch=16 n=41 v=0
122400 On ch=16 n=39 v=100
122610 On ch=16 n=39 v=0
122640 On ch=16 n=37 v=100
122850 On ch=16 n=37 v=0
122880 On ch=16 n=42 v=100
123090 On ch=16 n=42 v=0
123120 On ch=16 n=41 v=100
123330 On ch=16 n=41 v=0
123360 On ch=16 n=39 v=100
123570 On ch=16 n=39 v=0
123600 On ch=16 n=37 v=100
123810 On ch=16 n=37 v=0
123840 On ch=16 n=42 v=100
124050 On ch=16 n=42 v=0
124080 On ch=16 n=41 v=100
124290 On ch=16 n=41 v=0
124320 On ch=16 n=39 v=100
124530 On ch=16 n=39 v=0
124560 On ch=16 n=37 v=100
124770 On ch=16 n=37 v=0
124800 On ch=16 n=39 v=100
125010 On ch=16 n=39 v=0
125040 On ch=16 n=37 v=100
125250 On ch=16 n=37 v=0
125280 On ch=16 n=39 v=100
125490 On ch=16 n=39 v=0
125520 On ch=16 n=41 v=100
125730 On ch=16 n=41 v=0
125760 On ch=16 n=42 v=100
125970 On ch=16 n=42 v=0
126000 On ch=16 n=41 v=100
126210 On ch=16 n=41 v=0
126240 On ch=16 n=39 v=100
126450 On ch=16 n=39 v=0
126480 On ch=16 n=37 v=100
126690 On ch=16 n=37 v=0
126720 On ch=16 n=35 v=100
126930 On ch=16 n=35 v=0
126960 On ch=16 n=33 v=100
127170 On ch=16 n=33 v=0
127200 On ch=16 n=31 v=100
127410 On ch=16 n=31 v=0
127440 On ch=16 n=30 v=100
127650 On ch=16 n=30 v=0
127680 On ch=16 n=35 v=100
127890 On ch=16 n=35 v=0
127920 On ch=16 n=33 v=100
128130 On ch=16 n=33 v=0
128160 On ch=16 n=31 v=100
128370 On ch=16 n=31 v=0
128400 On ch=16 n=30 v=100
128610 On ch=16 n=30 v=0
128640 On ch=16 n=35 v=100
128850 On ch=16 n=35 v=0
128880 On ch=16 n=33 v=100
129090 On ch=16 n=33 v=0
129120 On ch=16 n=31 v=100
129330 On ch=16 n=31 v=0
129360 On ch=16 n=30 v=100
129570 On ch=16 n=30 v=0
129600 On ch=16 n=35 v=100
129810 On ch=16 n=35 v=0
129840 On ch=16 n=33 v=100
130050 On ch=16 n=33 v=0
130080 On ch=16 n=31 v=100
130290 On ch=16 n=31 v=0
130320 On ch=16 n=30 v=100
130530 On ch=16 n=30 v=0
130560 On ch=16 n=35 v=100
130770 On ch=16 n=35 v=0
130800 On ch=16 n=33 v=100
131010 On ch=16 n=33 v=0
131040 On ch=16 n=31 v=100
131250 On ch=16 n=31 v=0
131280 On ch=16 n=30 v=100
131490 On ch=16 n=30 v=0
131520 On ch=16 n=35 v=100
131730 On ch=16 n=35 v=0
131760 On ch=16 n=33 v=100
131970 On ch=16 n=33 v=0
132000 On ch=16 n=31 v=100
132210 On ch=16 n=31 v=0
132240 On ch=16 n=30 v=100
132450 On ch=16 n=30 v=0
132480 On ch=16 n=38 v=100
132690 On ch=16 n=38 v=0
132720 On ch=16 n=37 v=100
132930 On ch=16 n=37 v=0
132960 On ch=16 n=35 v=100
133170 On ch=16 n=35 v=0
133200 On ch=16 n=33 v=100
133410 On ch=16 n=33 v=0
133440 On ch=16 n=38 v=100
133650 On ch=16 n=38 v=0
133680 On ch=16 n=37 v=100
133890 On ch=16 n=37 v=0
133920 On ch=16 n=35 v=100
134130 On ch=16 n=35 v=0
134160 On ch=16 n=33 v=100
134370 On ch=16 n=33 v=0
134400 On ch=16 n=35 v=100
134610 On ch=16 n=35 v=0
134640 On ch=16 n=33 v=100
134850 On ch=16 n=33 v=0
134880 On ch=16 n=31 v=100
135090 On ch=16 n=31 v=0
135120 On ch=16 n=30 v=100
135330 On ch=16 n=30 v=0
135360 On ch=16 n=35 v=100
135570 On ch=16 n=35 v=0
135600 On ch=16 n=33 v=100
135810 On ch=16 n=33 v=0
135840 On ch=16 n=31 v=100
136050 On ch=16 n=31 v=0
136080 On ch=16 n=30 v=100
136290 On ch=16 n=30 v=0
136320 On ch=16 n=35 v=100
136530 On ch=16 n=35 v=0
136560 On ch=16 n=33 v=100
136770 On ch=16 n=33 v=0
136800 On ch=16 n=31 v=100
137010 On ch=16 n=31 v=0
137040 On ch=16 n=30 v=100
137250 On ch=16 n=30 v=0
137280 On ch=16 n=35 v=100
137490 On ch=16 n=35 v=0
137520 On ch=16 n=33 v=100
137730 On ch=16 n=33 v=0
137760 On ch=16 n=31 v=100
137970 On ch=16 n=31 v=0
138000 On ch=16 n=30 v=100
138210 On ch=16 n=30 v=0
138240 On ch=16 n=35 v=100
138450 On ch=16 n=35 v=0
138480 On ch=16 n=33 v=100
138690 On ch=16 n=33 v=0
138720 On ch=16 n=31 v=100
138930 On ch=16 n=31 v=0
138960 On ch=16 n=30 v=100
139170 On ch=16 n=30 v=0
139200 On ch=16 n=35 v=100
139410 On ch=16 n=35 v=0
139440 On ch=16 n=33 v=100
139650 On ch=16 n=33 v=0
139680 On ch=16 n=31 v=100
139890 On ch=16 n=31 v=0
139920 On ch=16 n=30 v=100
140130 On ch=16 n=30 v=0
140160 On ch=16 n=35 v=100
140370 On ch=16 n=35 v=0
140400 On ch=16 n=33 v=100
140610 On ch=16 n=33 v=0
140640 On ch=16 n=31 v=100
140850 On ch=16 n=31 v=0
140880 On ch=16 n=30 v=100
141090 On ch=16 n=30 v=0
141120 On ch=16 n=35 v=100
141330 On ch=16 n=35 v=0
141360 On ch=16 n=33 v=100
141570 On ch=16 n=33 v=0
141600 On ch=16 n=31 v=100
141810 On ch=16 n=31 v=0
141840 On ch=16 n=30 v=100
142050 On ch=16 n=30 v=0
142080 On ch=16 n=35 v=100
142530 On ch=16 n=35 v=0
144000 On ch=16 n=35 v=100
144450 On ch=16 n=35 v=0
149760 On ch=16 n=35 v=100
150210 On ch=16 n=35 v=0
151680 On ch=16 n=35 v=100
152130 On ch=16 n=35 v=0
153600 On ch=16 n=43 v=100
154050 On ch=16 n=43 v=0
154560 On ch=16 n=42 v=100
155010 On ch=16 n=42 v=0
155520 On ch=16 n=30 v=100
155970 On ch=16 n=30 v=0
156480 On ch=16 n=35 v=100
156930 On ch=16 n=35 v=0
157440 On ch=16 n=35 v=100
157890 On ch=16 n=35 v=0
159360 On ch=16 n=35 v=100
159810 On ch=16 n=35 v=0
161280 On ch=16 n=35 v=100
161730 On ch=16 n=35 v=0
168480 Par ch=16 c=11 v=100
168960 On ch=16 n=35 v=127
169080 On ch=16 n=35 v=0
169440 On ch=16 n=47 v=127
169650 On ch=16 n=47 v=0
169650 Meta TrkEnd
TrkEnd
MTrk
0 Meta TrkName "Controls"
0 Meta InstrName "M original  "
480 SysEx f0 42 12 40 00 7f 00 41 f7 01 f0
481 SysEx f0 42 12 40 01 30 03 0c f7 01 f0
482 SysEx f0 42 12 40 01 10 02 02 04 00 00 00 00 00 02 00 00 04 04 04 01 01 17 f7 01 c0
483 PrCh ch=1 p=72
484 Par ch=1 c=7 v=127
493 Par ch=1 c=10 v=53
503 Par ch=1 c=91 v=127
513 Par ch=1 c=93 v=18
547 PrCh ch=2 p=73
548 Par ch=2 c=7 v=127
557 Par ch=2 c=10 v=48
567 Par ch=2 c=91 v=127
577 Par ch=2 c=93 v=16
581 PrCh ch=3 p=70
582 Par ch=3 c=7 v=127
591 Par ch=3 c=10 v=60
601 Par ch=3 c=91 v=127
611 Par ch=3 c=93 v=11
630 PrCh ch=4 p=71
631 Par ch=4 c=7 v=127
640 Par ch=4 c=10 v=50
650 Par ch=4 c=91 v=127
660 Par ch=4 c=93 v=26
664 PrCh ch=5 p=70
665 Par ch=5 c=7 v=127
674 Par ch=5 c=10 v=67
684 Par ch=5 c=91 v=127
694 Par ch=5 c=93 v=23
698 PrCh ch=6 p=60
699 Par ch=6 c=7 v=127
708 Par ch=6 c=10 v=81
718 Par ch=6 c=91 v=127
728 Par ch=6 c=93 v=19
732 Par ch=6 c=99 v=1
734 Par ch=6 c=98 v=32
736 Par ch=6 c=6 v=14
762 PrCh ch=7 p=56
763 Par ch=7 c=7 v=127
772 Par ch=7 c=10 v=57
782 Par ch=7 c=91 v=127
792 Par ch=7 c=93 v=25
796 PrCh ch=8 p=47
797 Par ch=8 c=7 v=127
806 Par ch=8 c=10 v=60
816 Par ch=8 c=91 v=127
826 Par ch=8 c=93 v=29
830 PrCh ch=9 p=57
831 Par ch=9 c=7 v=127
840 Par ch=9 c=10 v=67
850 Par ch=9 c=91 v=127
860 Par ch=9 c=93 v=31
864 PrCh ch=10 p=48
865 Par ch=10 c=7 v=127
874 Par ch=10 c=10 v=53
884 Par ch=10 c=91 v=127
894 Par ch=10 c=93 v=40
898 PrCh ch=11 p=58
899 Par ch=11 c=7 v=127
908 Par ch=11 c=10 v=71
918 Par ch=11 c=91 v=127
928 Par ch=11 c=93 v=21
932 PrCh ch=12 p=45
933 Par ch=12 c=7 v=127
942 Par ch=12 c=10 v=18
952 Par ch=12 c=91 v=127
962 Par ch=12 c=93 v=26
966 PrCh ch=13 p=45
967 Par ch=13 c=7 v=127
976 Par ch=13 c=10 v=43
986 Par ch=13 c=91 v=127
996 Par ch=13 c=93 v=19
1000 PrCh ch=14 p=48
1001 Par ch=14 c=7 v=127
1010 Par ch=14 c=10 v=95
1020 Par ch=14 c=91 v=127
1030 Par ch=14 c=93 v=27
1034 PrCh ch=15 p=45
1035 Par ch=15 c=7 v=127
1044 Par ch=15 c=10 v=116
1054 Par ch=15 c=91 v=127
1064 Par ch=15 c=93 v=14
1068 PrCh ch=16 p=45
1069 Par ch=16 c=7 v=127
1078 Par ch=16 c=10 v=92
1088 Par ch=16 c=91 v=127
1098 Par ch=16 c=93 v=29
1309 Par ch=1 c=11 v=80
1329 Par ch=2 c=11 v=80
1349 Par ch=3 c=11 v=80
1369 Par ch=4 c=11 v=80
1389 Par ch=5 c=11 v=80
1409 Par ch=6 c=11 v=100
1429 Par ch=7 c=11 v=80
1449 Par ch=8 c=11 v=127
1469 Par ch=9 c=11 v=80
1489 Par ch=10 c=11 v=127
1509 Par ch=11 c=11 v=80
1529 Par ch=12 c=11 v=80
1549 Par ch=13 c=11 v=80
1569 Par ch=14 c=11 v=80
1589 Par ch=15 c=11 v=80
1609 Par ch=16 c=11 v=80
49920 Par ch=6 c=99 v=1
49922 Par ch=6 c=98 v=32
49924 Par ch=6 c=6 v=64
80610 PrCh ch=15 p=48
88290 PrCh ch=12 p=48
88292 PrCh ch=13 p=48
92610 PrCh ch=16 p=48
92610 Meta TrkEnd
TrkEnd
MTrk
0 Meta TrkName "Edvard Grieg:"
0 Meta InstrName "M original  "
0 Meta Text "Edvard Grieg (1843 - 1907)"
6720 Meta Text " "
6720 Meta TrkEnd
TrkEnd
MTrk
0 Meta TrkName "Peer Gynt Suite No. 1"
0 Meta InstrName "M original  "
0 Meta Text "Peer Gynt Suite No. 1, Op. 46"
6720 Meta Text " "
6720 Meta TrkEnd
TrkEnd
MTrk
0 Meta TrkName "4. Hall Of Mt. King"
0 Meta InstrName "M original  "
0 Meta Text "4. In The Hall Of The Mountain King - "Alla marcia e molto marcato""
6720 Meta Text " "
6720 Meta TrkEnd
TrkEnd
MTrk
0 Meta TrkName "sequenced by H.-J. Roeder"
0 Meta InstrName "M original  "
0 Meta Text "sequenced by Hans-Joachim Roeder (roeder@fmi.uni-passau.de.earth.ufp)"
6720 Meta Text " "
6720 Meta TrkEnd
TrkEnd