MFile 1 28 96
MTrk
0 TimeSig 4/4 24 8
0 KeySig 0 major
0 Tempo 3000000
384 Tempo 1000000
768 Tempo 428571
960 Tempo 869565
1536 Tempo 428571
1680 Tempo 1500000
1752 Tempo 428571
1944 Tempo 1000000
2016 Tempo 750000
2211 Tempo 869565
9600 Meta Marker "1"
16512 Meta Marker "2"
18432 Meta Marker "3"
21120 Tempo 895522
21216 Tempo 937500
21312 Tempo 967742
21408 Tempo 1000000
21504 Tempo 869565
23664 Tempo 937500
23712 Tempo 1000000
23760 Tempo 1090909
23808 Tempo 1200000
24000 Tempo 1000000
24576 Tempo 428571
24576 Meta Marker "4"
24720 Tempo 1500000
24792 Tempo 428571
24984 Tempo 1000000
25056 Tempo 750000
25728 Tempo 600000
28416 Meta Marker "5"
33408 Tempo 674157
33498 Tempo 750000
33696 Tempo 869565
34083 Tempo 1000000
34134 Tempo 1200000
34176 Tempo 800000
36480 Tempo 869565
36669 Tempo 937500
36864 Tempo 1000000
37056 Tempo 1090909
37248 Tempo 1000000
37248 Meta Marker "6"
44928 Meta Marker "7"
49536 Meta Marker "8"
54912 Meta Marker "9"
58080 Tempo 937500
62976 Tempo 869565
62976 Meta Marker "10"
63168 Tempo 800000
63360 Tempo 750000
63552 Tempo 705882
63744 Tempo 674157
63936 Tempo 638298
64128 Tempo 600000
68736 Meta Marker "11"
75264 Tempo 550459
75264 Meta Marker "12"
79104 Tempo 576923
79872 Tempo 600000
79872 Meta Marker "13"
86784 Meta Marker "14"
93696 Tempo 428571
93696 Meta Marker "15"
93888 Tempo 375000
94080 Tempo 674157
94464 Tempo 428571
94608 Tempo 750000
94656 Tempo 428571
94848 Tempo 674157
95064 Tempo 428571
95256 Tempo 1000000
95328 Tempo 750000
95802 Tempo 869565
96576 Tempo 1000000
97056 Tempo 1200000
97152 Tempo 1500000
97341 Tempo 2000000
97440 Tempo 3000000
97536 Tempo 1200000
97536 Meta Marker "16"
99072 Tempo 1000000
100608 Tempo 937500
103680 Tempo 869565
104448 Tempo 800000
105216 Tempo 750000
105600 Tempo 705882
105984 Tempo 674157
106368 Tempo 638298
106752 Tempo 600000
106752 Meta Marker "17"
111360 Tempo 674157
111453 Tempo 750000
111546 Tempo 869565
111645 Tempo 1000000
111680 Tempo 1200000
111712 Tempo 1500000
111744 Tempo 600000
111744 Meta Marker "18"
112500 Tempo 3000000
112512 Tempo 600000
113268 Tempo 3000000
113280 Tempo 600000
114816 Tempo 638298
114912 Tempo 674157
115008 Tempo 705882
115104 Tempo 750000
115200 Tempo 600000
115200 Meta Marker "19"
124800 Tempo 750000
124800 Meta Marker "20"
125952 Tempo 869565
126144 Tempo 937500
126176 Tempo 1000000
126208 Tempo 1090909
126242 Tempo 1200000
126272 Tempo 1333333
126304 Tempo 1500000
126336 Tempo 869565
126528 Tempo 1000000
127104 Tempo 428571
127248 Tempo 1500000
127320 Tempo 428571
127512 Tempo 1000000
127584 Tempo 750000
127779 Tempo 869565
129024 Meta Marker "21"
135552 Meta Marker "22"
141696 Tempo 937500
142080 Tempo 1000000
142848 Tempo 1090909
142848 Meta Marker "23"
147456 Tempo 1200000
150528 Tempo 1000000
150528 Meta Marker "24"
155136 Meta Marker "25"
161280 Meta Marker "26"
168576 Tempo 1200000
169344 Tempo 600000
169344 Meta Marker "27"
170208 Tempo 1000000
170586 Tempo 1500000
170586 Meta TrkEnd
TrkEnd
MTrk
0 Meta 0x21 00
0 Meta TrkName "PICCOLO"
2 Meta Text "*** GS RESET ***"
2 Meta 0x21 00
2 SysEx f0 42 12 40 00 7f 00 41 f7 00 ff
2 Meta 0x21 00
49 Meta Text "*** SINGLE MODE ***"
49 Meta 0x21 00
49 SysEx f0 42 12 00 00 7f 00 01 f7 00 ff
49 Meta 0x21 00
96 Meta Text "*** MASTER TUNE ***"
96 Meta 0x21 00
96 SysEx f0 42 12 40 00 00 00 04 00 00 3c f7 00 ff
96 Meta 0x21 00
100 Meta Text "*** MASTER VOLUME ***"
100 Meta 0x21 00
100 SysEx f0 42 12 40 00 04 7f 3d f7 00 ff
100 Meta 0x21 00
104 Meta Text "*** REVERB MACRO ***"
104 Meta 0x21 00
104 SysEx f0 42 12 40 01 30 03 0c f7 00 ff
104 Meta 0x21 00
108 Meta Text "*** CHORUS MACRO ***"
108 Meta 0x21 00
108 SysEx f0 42 12 40 01 38 00 07 f7 00 ff
108 Meta 0x21 00
112 Meta Text "*** DELAY MACRO *** "
112 Meta 0x21 00
112 SysEx f0 42 12 40 01 50 02 6d f7 00 ff
112 Meta 0x21 00
192 Par ch=1 c=1 v=8
196 Par ch=1 c=7 v=127
200 Par ch=1 c=10 v=37
204 Par ch=1 c=11 v=64
208 Par ch=1 c=91 v=112
212 Par ch=1 c=93 v=32
216 Par ch=1 c=0 v=0
216 Par ch=1 c=32 v=0
216 PrCh ch=1 p=72
22656 Par ch=1 c=11 v=64
22656 On ch=1 n=99 v=111
22664 Par ch=1 c=11 v=63
22668 Par ch=1 c=11 v=62
22676 Par ch=1 c=11 v=61
22680 Par ch=1 c=11 v=60
22688 Par ch=1 c=11 v=59
22692 Par ch=1 c=11 v=58
22700 Par ch=1 c=11 v=57
22704 Par ch=1 c=11 v=56
22712 Par ch=1 c=11 v=55
22716 Par ch=1 c=11 v=54
22724 Par ch=1 c=11 v=53
22728 Par ch=1 c=11 v=52
22736 Par ch=1 c=11 v=51
22740 Par ch=1 c=11 v=50
22748 Par ch=1 c=11 v=49
22752 On ch=1 n=99 v=0
22752 Par ch=1 c=11 v=48
22752 On ch=1 n=94 v=111
22906 On ch=1 n=94 v=0
22944 Par ch=1 c=11 v=48
22944 On ch=1 n=95 v=111
22952 Par ch=1 c=11 v=49
22956 Par ch=1 c=11 v=50
22964 Par ch=1 c=11 v=51
22968 Par ch=1 c=11 v=52
22976 Par ch=1 c=11 v=53
22980 Par ch=1 c=11 v=54
22984 Par ch=1 c=11 v=55
22992 Par ch=1 c=11 v=56
22996 Par ch=1 c=11 v=57
23004 Par ch=1 c=11 v=58
23008 Par ch=1 c=11 v=59
23012 Par ch=1 c=11 v=60
23020 Par ch=1 c=11 v=61
23024 Par ch=1 c=11 v=62
23032 Par ch=1 c=11 v=63
23036 Par ch=1 c=11 v=64
23040 Par ch=1 c=11 v=64
23060 Par ch=1 c=11 v=63
23076 Par ch=1 c=11 v=62
23092 Par ch=1 c=11 v=61
23108 Par ch=1 c=11 v=60
23128 Par ch=1 c=11 v=59
23136 On ch=1 n=95 v=0
23136 On ch=1 n=94 v=111
23144 Par ch=1 c=11 v=58
23160 Par ch=1 c=11 v=57
23176 Par ch=1 c=11 v=56
23196 Par ch=1 c=11 v=55
23212 Par ch=1 c=11 v=54
23228 Par ch=1 c=11 v=53
23244 Par ch=1 c=11 v=52
23264 Par ch=1 c=11 v=51
23280 Par ch=1 c=11 v=50
23290 On ch=1 n=94 v=0
23296 Par ch=1 c=11 v=49
23312 Par ch=1 c=11 v=48
23328 Par ch=1 c=11 v=48
23328 On ch=1 n=92 v=111
23344 Par ch=1 c=11 v=49
23360 Par ch=1 c=11 v=50
23366 On ch=1 n=92 v=0
23372 Par ch=1 c=11 v=51
23376 On ch=1 n=91 v=111
23388 Par ch=1 c=11 v=52
23404 Par ch=1 c=11 v=53
23414 On ch=1 n=91 v=0
23416 Par ch=1 c=11 v=54
23424 On ch=1 n=94 v=111
23432 Par ch=1 c=11 v=55
23448 Par ch=1 c=11 v=56
23460 Par ch=1 c=11 v=57
23472 On ch=1 n=94 v=0
23472 On ch=1 n=92 v=111
23476 Par ch=1 c=11 v=58
23488 Par ch=1 c=11 v=59
23504 Par ch=1 c=11 v=60
23520 Par ch=1 c=11 v=61
23532 Par ch=1 c=11 v=62
23548 Par ch=1 c=11 v=63
23549 On ch=1 n=92 v=0
23564 Par ch=1 c=11 v=64
23568 On ch=1 n=90 v=111
23576 Par ch=1 c=11 v=65
23592 Par ch=1 c=11 v=66
23608 Par ch=1 c=11 v=67
23620 Par ch=1 c=11 v=68
23636 Par ch=1 c=11 v=69
23645 On ch=1 n=90 v=0
23648 Par ch=1 c=11 v=70
23664 Par ch=1 c=11 v=71
23664 On ch=1 n=89 v=111
23680 Par ch=1 c=11 v=72
23692 Par ch=1 c=11 v=73
23708 Par ch=1 c=11 v=74
23712 On ch=1 n=89 v=0
23712 On ch=1 n=92 v=111
23724 Par ch=1 c=11 v=75
23736 Par ch=1 c=11 v=76
23750 On ch=1 n=92 v=0
23752 Par ch=1 c=11 v=77
23760 On ch=1 n=86 v=111
23768 Par ch=1 c=11 v=78
23780 Par ch=1 c=11 v=79
23796 Par ch=1 c=11 v=80
23798 On ch=1 n=86 v=0
23808 On ch=1 n=87 v=111
23962 On ch=1 n=87 v=0
24192 Par ch=1 c=11 v=64
25728 Par ch=1 c=0 v=0
25728 Par ch=1 c=32 v=0
25728 PrCh ch=1 p=73
25728 On ch=1 n=60 v=79
25920 On ch=1 n=60 v=0
25920 On ch=1 n=62 v=79
25951 On ch=1 n=62 v=0
26016 On ch=1 n=65 v=79
26047 On ch=1 n=65 v=0
26088 On ch=1 n=68 v=79
26104 On ch=1 n=68 v=0
26112 On ch=1 n=72 v=79
26237 On ch=1 n=72 v=0
26368 Par ch=1 c=11 v=64
26368 On ch=1 n=60 v=47
26372 Par ch=1 c=11 v=65
26376 Par ch=1 c=11 v=66
26380 Par ch=1 c=11 v=67
26384 Par ch=1 c=11 v=68
26388 Par ch=1 c=11 v=69
26389 On ch=1 n=60 v=0
26392 Par ch=1 c=11 v=70
26396 Par ch=1 c=11 v=71
26400 Par ch=1 c=11 v=72
26400 On ch=1 n=62 v=47
26404 Par ch=1 c=11 v=73
26408 Par ch=1 c=11 v=74
26412 Par ch=1 c=11 v=75
26416 Par ch=1 c=11 v=76
26420 Par ch=1 c=11 v=77
26421 On ch=1 n=62 v=0
26424 Par ch=1 c=11 v=78
26428 Par ch=1 c=11 v=79
26432 Par ch=1 c=11 v=80
26432 On ch=1 n=65 v=47
26436 Par ch=1 c=11 v=81
26440 Par ch=1 c=11 v=82
26444 Par ch=1 c=11 v=83
26448 Par ch=1 c=11 v=84
26452 Par ch=1 c=11 v=85
26453 On ch=1 n=65 v=0
26456 Par ch=1 c=11 v=86
26460 Par ch=1 c=11 v=87
26464 Par ch=1 c=11 v=88
26464 On ch=1 n=68 v=47
26468 Par ch=1 c=11 v=89
26472 Par ch=1 c=11 v=90
26476 Par ch=1 c=11 v=91
26480 Par ch=1 c=11 v=92
26484 Par ch=1 c=11 v=93
26485 On ch=1 n=68 v=0
26488 Par ch=1 c=11 v=94
26492 Par ch=1 c=11 v=95
26496 On ch=1 n=72 v=47
26517 On ch=1 n=72 v=0
26560 Par ch=1 c=11 v=64
26560 On ch=1 n=60 v=47
26564 Par ch=1 c=11 v=65
26568 Par ch=1 c=11 v=66
26572 Par ch=1 c=11 v=67
26576 Par ch=1 c=11 v=68
26580 Par ch=1 c=11 v=69
26581 On ch=1 n=60 v=0
26584 Par ch=1 c=11 v=70
26588 Par ch=1 c=11 v=71
26592 Par ch=1 c=11 v=72
26592 On ch=1 n=62 v=47
26596 Par ch=1 c=11 v=73
26600 Par ch=1 c=11 v=74
26604 Par ch=1 c=11 v=75
26608 Par ch=1 c=11 v=76
26612 Par ch=1 c=11 v=77
26613 On ch=1 n=62 v=0
26616 Par ch=1 c=11 v=78
26620 Par ch=1 c=11 v=79
26624 Par ch=1 c=11 v=80
26624 On ch=1 n=65 v=47
26628 Par ch=1 c=11 v=81
26632 Par ch=1 c=11 v=82
26636 Par ch=1 c=11 v=83
26640 Par ch=1 c=11 v=84
26644 Par ch=1 c=11 v=85
26645 On ch=1 n=65 v=0
26648 Par ch=1 c=11 v=86
26652 Par ch=1 c=11 v=87
26656 Par ch=1 c=11 v=88
26656 On ch=1 n=68 v=47
26660 Par ch=1 c=11 v=89
26664 Par ch=1 c=11 v=90
26668 Par ch=1 c=11 v=91
26672 Par ch=1 c=11 v=92
26676 Par ch=1 c=11 v=93
26677 On ch=1 n=68 v=0
26680 Par ch=1 c=11 v=94
26684 Par ch=1 c=11 v=95
26688 On ch=1 n=72 v=47
26709 On ch=1 n=72 v=0
26752 Par ch=1 c=11 v=64
26752 On ch=1 n=60 v=47
26756 Par ch=1 c=11 v=65
26760 Par ch=1 c=11 v=66
26764 Par ch=1 c=11 v=67
26768 Par ch=1 c=11 v=68
26772 Par ch=1 c=11 v=69
26773 On ch=1 n=60 v=0
26776 Par ch=1 c=11 v=70
26780 Par ch=1 c=11 v=71
26784 Par ch=1 c=11 v=72
26784 On ch=1 n=62 v=47
26788 Par ch=1 c=11 v=73
26792 Par ch=1 c=11 v=74
26796 Par ch=1 c=11 v=75
26800 Par ch=1 c=11 v=76
26804 Par ch=1 c=11 v=77
26805 On ch=1 n=62 v=0
26808 Par ch=1 c=11 v=78
26812 Par ch=1 c=11 v=79
26816 Par ch=1 c=11 v=80
26816 On ch=1 n=65 v=47
26820 Par ch=1 c=11 v=81
26824 Par ch=1 c=11 v=82
26828 Par ch=1 c=11 v=83
26832 Par ch=1 c=11 v=84
26836 Par ch=1 c=11 v=85
26837 On ch=1 n=65 v=0
26840 Par ch=1 c=11 v=86
26844 Par ch=1 c=11 v=87
26848 Par ch=1 c=11 v=88
26848 On ch=1 n=68 v=47
26852 Par ch=1 c=11 v=89
26856 Par ch=1 c=11 v=90
26860 Par ch=1 c=11 v=91
26864 Par ch=1 c=11 v=92
26868 Par ch=1 c=11 v=93
26869 On ch=1 n=68 v=0
26872 Par ch=1 c=11 v=94
26876 Par ch=1 c=11 v=95
26880 On ch=1 n=72 v=47
26911 On ch=1 n=72 v=0
26976 Par ch=1 c=11 v=64
27136 Par ch=1 c=11 v=64
27136 On ch=1 n=60 v=47
27140 Par ch=1 c=11 v=65
27144 Par ch=1 c=11 v=67
27148 Par ch=1 c=11 v=68
27152 Par ch=1 c=11 v=70
27156 Par ch=1 c=11 v=71
27157 On ch=1 n=60 v=0
27160 Par ch=1 c=11 v=73
27164 Par ch=1 c=11 v=74
27168 Par ch=1 c=11 v=76
27168 On ch=1 n=62 v=47
27172 Par ch=1 c=11 v=77
27176 Par ch=1 c=11 v=79
27180 Par ch=1 c=11 v=80
27184 Par ch=1 c=11 v=82
27188 Par ch=1 c=11 v=83
27189 On ch=1 n=62 v=0
27192 Par ch=1 c=11 v=85
27196 Par ch=1 c=11 v=86
27200 Par ch=1 c=11 v=88
27200 On ch=1 n=65 v=47
27204 Par ch=1 c=11 v=90
27208 Par ch=1 c=11 v=91
27212 Par ch=1 c=11 v=93
27216 Par ch=1 c=11 v=94
27220 Par ch=1 c=11 v=96
27221 On ch=1 n=65 v=0
27224 Par ch=1 c=11 v=97
27228 Par ch=1 c=11 v=99
27232 Par ch=1 c=11 v=100
27232 On ch=1 n=68 v=47
27236 Par ch=1 c=11 v=102
27240 Par ch=1 c=11 v=103
27244 Par ch=1 c=11 v=105
27248 Par ch=1 c=11 v=106
27252 Par ch=1 c=11 v=108
27253 On ch=1 n=68 v=0
27256 Par ch=1 c=11 v=109
27260 Par ch=1 c=11 v=111
27264 On ch=1 n=72 v=47
27295 On ch=1 n=72 v=0
27520 Par ch=1 c=11 v=64
27520 On ch=1 n=60 v=47
27524 Par ch=1 c=11 v=65
27528 Par ch=1 c=11 v=67
27532 Par ch=1 c=11 v=68
27536 Par ch=1 c=11 v=70
27540 Par ch=1 c=11 v=71
27541 On ch=1 n=60 v=0
27544 Par ch=1 c=11 v=73
27548 Par ch=1 c=11 v=74
27552 Par ch=1 c=11 v=76
27552 On ch=1 n=63 v=47
27556 Par ch=1 c=11 v=77
27560 Par ch=1 c=11 v=79
27564 Par ch=1 c=11 v=80
27568 Par ch=1 c=11 v=82
27572 Par ch=1 c=11 v=83
27573 On ch=1 n=63 v=0
27576 Par ch=1 c=11 v=85
27580 Par ch=1 c=11 v=86
27584 Par ch=1 c=11 v=88
27584 On ch=1 n=67 v=47
27588 Par ch=1 c=11 v=90
27592 Par ch=1 c=11 v=91
27596 Par ch=1 c=11 v=93
27600 Par ch=1 c=11 v=94
27604 Par ch=1 c=11 v=96
27605 On ch=1 n=67 v=0
27608 Par ch=1 c=11 v=97
27612 Par ch=1 c=11 v=99
27616 Par ch=1 c=11 v=100
27616 On ch=1 n=72 v=47
27620 Par ch=1 c=11 v=102
27624 Par ch=1 c=11 v=103
27628 Par ch=1 c=11 v=105
27632 Par ch=1 c=11 v=106
27636 Par ch=1 c=11 v=108
27637 On ch=1 n=72 v=0
27640 Par ch=1 c=11 v=109
27644 Par ch=1 c=11 v=111
27648 On ch=1 n=72 v=47
27696 Par ch=1 c=11 v=64
27955 On ch=1 n=72 v=0
28032 On ch=1 n=72 v=47
28080 Par ch=1 c=11 v=64
28088 Par ch=1 c=11 v=65
28092 Par ch=1 c=11 v=66
28096 Par ch=1 c=11 v=67
28104 Par ch=1 c=11 v=68
28108 Par ch=1 c=11 v=69
28112 Par ch=1 c=11 v=70
28120 Par ch=1 c=11 v=71
28124 Par ch=1 c=11 v=72
28128 Par ch=1 c=11 v=73
28136 Par ch=1 c=11 v=74
28140 Par ch=1 c=11 v=75
28144 Par ch=1 c=11 v=76
28152 Par ch=1 c=11 v=77
28156 Par ch=1 c=11 v=78
28160 Par ch=1 c=11 v=79
28168 Par ch=1 c=11 v=80
28172 Par ch=1 c=11 v=81
28176 Par ch=1 c=11 v=82
28184 Par ch=1 c=11 v=83
28188 Par ch=1 c=11 v=84
28192 Par ch=1 c=11 v=85
28200 Par ch=1 c=11 v=86
28204 Par ch=1 c=11 v=87
28208 Par ch=1 c=11 v=88
28216 Par ch=1 c=11 v=89
28220 Par ch=1 c=11 v=90
28224 Par ch=1 c=11 v=91
28232 Par ch=1 c=11 v=92
28236 Par ch=1 c=11 v=93
28240 Par ch=1 c=11 v=94
28248 Par ch=1 c=11 v=95
28252 Par ch=1 c=11 v=96
28256 Par ch=1 c=11 v=97
28264 Par ch=1 c=11 v=98
28268 Par ch=1 c=11 v=99
28272 Par ch=1 c=11 v=100
28280 Par ch=1 c=11 v=101
28284 Par ch=1 c=11 v=102
28288 Par ch=1 c=11 v=103
28296 Par ch=1 c=11 v=104
28300 Par ch=1 c=11 v=105
28304 Par ch=1 c=11 v=106
28312 Par ch=1 c=11 v=107
28316 Par ch=1 c=11 v=108
28320 Par ch=1 c=11 v=109
28328 Par ch=1 c=11 v=110
28332 Par ch=1 c=11 v=111
28336 Par ch=1 c=11 v=112
28344 Par ch=1 c=11 v=113
28348 Par ch=1 c=11 v=114
28352 Par ch=1 c=11 v=115
28360 Par ch=1 c=11 v=116
28364 Par ch=1 c=11 v=117
28368 Par ch=1 c=11 v=118
28376 Par ch=1 c=11 v=119
28380 Par ch=1 c=11 v=120
28384 Par ch=1 c=11 v=121
28392 Par ch=1 c=11 v=122
28396 Par ch=1 c=11 v=123
28400 Par ch=1 c=11 v=124
28408 Par ch=1 c=11 v=125
28412 Par ch=1 c=11 v=126
28454 On ch=1 n=72 v=0
28512 Par ch=1 c=11 v=64
29088 On ch=1 n=82 v=47
29119 On ch=1 n=82 v=0
29160 On ch=1 n=84 v=47
29176 On ch=1 n=84 v=0
29184 Par ch=1 c=11 v=64
29184 On ch=1 n=84 v=47
29200 Par ch=1 c=11 v=65
29216 Par ch=1 c=11 v=66
29232 Par ch=1 c=11 v=67
29248 Par ch=1 c=11 v=68
29261 On ch=1 n=84 v=0
29264 Par ch=1 c=11 v=69
29280 Par ch=1 c=11 v=70
29280 On ch=1 n=75 v=47
29296 Par ch=1 c=11 v=71
29311 On ch=1 n=75 v=0
29312 Par ch=1 c=11 v=72
29328 Par ch=1 c=11 v=73
29344 Par ch=1 c=11 v=74
29352 On ch=1 n=80 v=47
29360 Par ch=1 c=11 v=75
29368 On ch=1 n=80 v=0
29376 Par ch=1 c=11 v=76
29376 On ch=1 n=80 v=47
29388 Par ch=1 c=11 v=77
29404 Par ch=1 c=11 v=78
29420 Par ch=1 c=11 v=79
29436 Par ch=1 c=11 v=80
29452 Par ch=1 c=11 v=81
29453 On ch=1 n=80 v=0
29468 Par ch=1 c=11 v=82
29472 On ch=1 n=82 v=47
29484 Par ch=1 c=11 v=83
29500 Par ch=1 c=11 v=84
29503 On ch=1 n=82 v=0
29516 Par ch=1 c=11 v=85
29532 Par ch=1 c=11 v=86
29544 On ch=1 n=84 v=47
29548 Par ch=1 c=11 v=87
29560 On ch=1 n=84 v=0
29564 Par ch=1 c=11 v=88
29568 On ch=1 n=84 v=47
29576 Par ch=1 c=11 v=89
29592 Par ch=1 c=11 v=90
29608 Par ch=1 c=11 v=91
29624 Par ch=1 c=11 v=92
29640 Par ch=1 c=11 v=93
29645 On ch=1 n=84 v=0
29656 Par ch=1 c=11 v=94
29664 On ch=1 n=75 v=47
29672 Par ch=1 c=11 v=95
29685 On ch=1 n=75 v=0
29688 Par ch=1 c=11 v=96
29696 On ch=1 n=72 v=47
29704 Par ch=1 c=11 v=97
29717 On ch=1 n=72 v=0
29720 Par ch=1 c=11 v=98
29728 On ch=1 n=75 v=47
29736 Par ch=1 c=11 v=99
29749 On ch=1 n=75 v=0
29752 Par ch=1 c=11 v=100
29760 On ch=1 n=80 v=47
29764 Par ch=1 c=11 v=101
29780 Par ch=1 c=11 v=102
29796 Par ch=1 c=11 v=103
29812 Par ch=1 c=11 v=104
29828 Par ch=1 c=11 v=105
29837 On ch=1 n=80 v=0
29844 Par ch=1 c=11 v=106
29856 On ch=1 n=82 v=47
29860 Par ch=1 c=11 v=107
29876 Par ch=1 c=11 v=108
29877 On ch=1 n=82 v=0
29888 On ch=1 n=80 v=47
29892 Par ch=1 c=11 v=109
29908 Par ch=1 c=11 v=110
29909 On ch=1 n=80 v=0
29920 On ch=1 n=82 v=47
29924 Par ch=1 c=11 v=111
29940 Par ch=1 c=11 v=112
29941 On ch=1 n=82 v=0
29952 Par ch=1 c=11 v=64
29952 On ch=1 n=84 v=47
30106 On ch=1 n=84 v=0
30240 Par ch=1 c=11 v=64
30240 On ch=1 n=72 v=95
30248 Par ch=1 c=11 v=65
30252 Par ch=1 c=11 v=66
30260 Par ch=1 c=11 v=67
30261 On ch=1 n=72 v=0
30264 Par ch=1 c=11 v=68
30272 Par ch=1 c=11 v=69
30272 On ch=1 n=75 v=95
30276 Par ch=1 c=11 v=70
30280 Par ch=1 c=11 v=71
30288 Par ch=1 c=11 v=72
30292 Par ch=1 c=11 v=73
30293 On ch=1 n=75 v=0
30300 Par ch=1 c=11 v=74
30304 Par ch=1 c=11 v=75
30304 On ch=1 n=80 v=95
30308 Par ch=1 c=11 v=76
30316 Par ch=1 c=11 v=77
30320 Par ch=1 c=11 v=78
30325 On ch=1 n=80 v=0
30328 Par ch=1 c=11 v=79
30332 Par ch=1 c=11 v=80
30336 On ch=1 n=84 v=95
30490 On ch=1 n=84 v=0
30624 Par ch=1 c=11 v=64
30624 On ch=1 n=72 v=95
30632 Par ch=1 c=11 v=65
30636 Par ch=1 c=11 v=66
30644 Par ch=1 c=11 v=67
30645 On ch=1 n=72 v=0
30648 Par ch=1 c=11 v=68
30656 Par ch=1 c=11 v=69
30656 On ch=1 n=75 v=95
30660 Par ch=1 c=11 v=70
30668 Par ch=1 c=11 v=71
30672 Par ch=1 c=11 v=72
30677 On ch=1 n=75 v=0
30680 Par ch=1 c=11 v=73
30684 Par ch=1 c=11 v=74
30688 On ch=1 n=80 v=95
30692 Par ch=1 c=11 v=75
30696 Par ch=1 c=11 v=76
30704 Par ch=1 c=11 v=77
30708 Par ch=1 c=11 v=78
30709 On ch=1 n=80 v=0
30716 Par ch=1 c=11 v=79
30720 On ch=1 n=91 v=95
30768 Par ch=1 c=11 v=32
33792 Par ch=1 c=11 v=32
33804 Par ch=1 c=11 v=33
33816 Par ch=1 c=11 v=34
33828 Par ch=1 c=11 v=35
33840 Par ch=1 c=11 v=36
33852 Par ch=1 c=11 v=37
33864 Par ch=1 c=11 v=38
33876 Par ch=1 c=11 v=39
33888 Par ch=1 c=11 v=40
33900 Par ch=1 c=11 v=41
33912 Par ch=1 c=11 v=42
33920 Par ch=1 c=11 v=43
33932 Par ch=1 c=11 v=44
33944 Par ch=1 c=11 v=45
33956 Par ch=1 c=11 v=46
33968 Par ch=1 c=11 v=47
33980 Par ch=1 c=11 v=48
33992 Par ch=1 c=11 v=49
34004 Par ch=1 c=11 v=50
34016 Par ch=1 c=11 v=51
34028 Par ch=1 c=11 v=52
34040 Par ch=1 c=11 v=53
34048 Par ch=1 c=11 v=54
34060 Par ch=1 c=11 v=55
34072 Par ch=1 c=11 v=56
34084 Par ch=1 c=11 v=57
34096 Par ch=1 c=11 v=58
34108 Par ch=1 c=11 v=59
34120 Par ch=1 c=11 v=60
34132 Par ch=1 c=11 v=61
34144 Par ch=1 c=11 v=62
34156 Par ch=1 c=11 v=63
34168 Par ch=1 c=11 v=64
34253 On ch=1 n=91 v=0
34272 On ch=1 n=86 v=127
34349 On ch=1 n=86 v=0
34368 On ch=1 n=84 v=127
34445 On ch=1 n=84 v=0
34464 On ch=1 n=82 v=127
34541 On ch=1 n=82 v=0
34560 On ch=1 n=86 v=111
34608 Par ch=1 c=11 v=32
34620 Par ch=1 c=11 v=33
34632 Par ch=1 c=11 v=34
34640 Par ch=1 c=11 v=35
34652 Par ch=1 c=11 v=36
34660 Par ch=1 c=11 v=37
34672 Par ch=1 c=11 v=38
34680 Par ch=1 c=11 v=39
34692 Par ch=1 c=11 v=40
34700 Par ch=1 c=11 v=41
34712 Par ch=1 c=11 v=42
34720 Par ch=1 c=11 v=43
34732 Par ch=1 c=11 v=44
34744 Par ch=1 c=11 v=45
34752 Par ch=1 c=11 v=46
34764 Par ch=1 c=11 v=47
34772 Par ch=1 c=11 v=48
34784 Par ch=1 c=11 v=49
34792 Par ch=1 c=11 v=50
34804 Par ch=1 c=11 v=51
34812 Par ch=1 c=11 v=52
34824 Par ch=1 c=11 v=53
34832 Par ch=1 c=11 v=54
34844 Par ch=1 c=11 v=55
34856 Par ch=1 c=11 v=56
34864 Par ch=1 c=11 v=57
34876 Par ch=1 c=11 v=58
34884 Par ch=1 c=11 v=59
34896 Par ch=1 c=11 v=60
34904 Par ch=1 c=11 v=61
34916 Par ch=1 c=11 v=62
34924 Par ch=1 c=11 v=63
34936 Par ch=1 c=11 v=64
35021 On ch=1 n=86 v=0
35040 On ch=1 n=82 v=111
35117 On ch=1 n=82 v=0
35136 On ch=1 n=81 v=111
35213 On ch=1 n=81 v=0
35232 On ch=1 n=79 v=111
35309 On ch=1 n=79 v=0
35328 On ch=1 n=82 v=111
35376 Par ch=1 c=11 v=32
35388 Par ch=1 c=11 v=33
35400 Par ch=1 c=11 v=34
35408 Par ch=1 c=11 v=35
35420 Par ch=1 c=11 v=36
35428 Par ch=1 c=11 v=37
35440 Par ch=1 c=11 v=38
35448 Par ch=1 c=11 v=39
35460 Par ch=1 c=11 v=40
35468 Par ch=1 c=11 v=41
35480 Par ch=1 c=11 v=42
35488 Par ch=1 c=11 v=43
35500 Par ch=1 c=11 v=44
35512 Par ch=1 c=11 v=45
35520 Par ch=1 c=11 v=46
35532 Par ch=1 c=11 v=47
35540 Par ch=1 c=11 v=48
35552 Par ch=1 c=11 v=49
35560 Par ch=1 c=11 v=50
35572 Par ch=1 c=11 v=51
35580 Par ch=1 c=11 v=52
35592 Par ch=1 c=11 v=53
35600 Par ch=1 c=11 v=54
35612 Par ch=1 c=11 v=55
35624 Par ch=1 c=11 v=56
35632 Par ch=1 c=11 v=57
35644 Par ch=1 c=11 v=58
35652 Par ch=1 c=11 v=59
35664 Par ch=1 c=11 v=60
35672 Par ch=1 c=11 v=61
35684 Par ch=1 c=11 v=62
35692 Par ch=1 c=11 v=63
35704 Par ch=1 c=11 v=64
35789 On ch=1 n=82 v=0
35808 On ch=1 n=67 v=111
35885 On ch=1 n=67 v=0
35904 On ch=1 n=65 v=111
35981 On ch=1 n=65 v=0
36000 On ch=1 n=63 v=111
36077 On ch=1 n=63 v=0
36096 Par ch=1 c=11 v=64
36096 On ch=1 n=70 v=111
36120 Par ch=1 c=11 v=63
36144 Par ch=1 c=11 v=62
36164 Par ch=1 c=11 v=61
36173 On ch=1 n=70 v=0
36188 Par ch=1 c=11 v=60
36192 On ch=1 n=65 v=111
36212 Par ch=1 c=11 v=59
36232 Par ch=1 c=11 v=58
36256 Par ch=1 c=11 v=57
36269 On ch=1 n=65 v=0
36280 Par ch=1 c=11 v=56
36288 On ch=1 n=63 v=111
36300 Par ch=1 c=11 v=55
36324 Par ch=1 c=11 v=54
36348 Par ch=1 c=11 v=53
36365 On ch=1 n=63 v=0
36368 Par ch=1 c=11 v=52
36384 On ch=1 n=62 v=111
36392 Par ch=1 c=11 v=51
36416 Par ch=1 c=11 v=50
36436 Par ch=1 c=11 v=49
36460 Par ch=1 c=11 v=48
36461 On ch=1 n=62 v=0
36480 Par ch=1 c=11 v=64
36480 On ch=1 n=67 v=79
36576 On ch=1 n=67 v=0
36576 On ch=1 n=61 v=79
36653 On ch=1 n=61 v=0
36672 Par ch=1 c=11 v=64
36672 On ch=1 n=67 v=79
36684 Par ch=1 c=11 v=63
36696 Par ch=1 c=11 v=62
36708 Par ch=1 c=11 v=61
36720 Par ch=1 c=11 v=60
36732 Par ch=1 c=11 v=59
36740 Par ch=1 c=11 v=58
36752 Par ch=1 c=11 v=57
36764 Par ch=1 c=11 v=56
36768 On ch=1 n=67 v=0
36768 On ch=1 n=60 v=79
36776 Par ch=1 c=11 v=55
36788 Par ch=1 c=11 v=54
36800 Par ch=1 c=11 v=53
36808 Par ch=1 c=11 v=52
36820 Par ch=1 c=11 v=51
36832 Par ch=1 c=11 v=50
36844 Par ch=1 c=11 v=49
36845 On ch=1 n=60 v=0
36856 Par ch=1 c=11 v=48
36864 Par ch=1 c=11 v=64
48768 On ch=1 n=64 v=15
49459 On ch=1 n=64 v=0
63072 Par ch=1 c=11 v=64
63072 On ch=1 n=64 v=31
63092 Par ch=1 c=11 v=65
63108 Par ch=1 c=11 v=66
63124 Par ch=1 c=11 v=67
63140 Par ch=1 c=11 v=68
63160 Par ch=1 c=11 v=69
63176 Par ch=1 c=11 v=70
63192 Par ch=1 c=11 v=71
63208 Par ch=1 c=11 v=72
63228 Par ch=1 c=11 v=73
63244 Par ch=1 c=11 v=74
63260 Par ch=1 c=11 v=75
63264 On ch=1 n=64 v=0
63264 On ch=1 n=65 v=31
63276 Par ch=1 c=11 v=76
63296 Par ch=1 c=11 v=77
63312 On ch=1 n=65 v=0
63312 Par ch=1 c=11 v=78
63312 On ch=1 n=74 v=31
63328 Par ch=1 c=11 v=79
63344 Par ch=1 c=11 v=80
63360 On ch=1 n=74 v=0
63360 On ch=1 n=74 v=31
63456 On ch=1 n=74 v=0
63456 Par ch=1 c=11 v=80
63456 On ch=1 n=68 v=31
63472 Par ch=1 c=11 v=79
63488 Par ch=1 c=11 v=78
63504 Par ch=1 c=11 v=77
63520 Par ch=1 c=11 v=76
63536 Par ch=1 c=11 v=75
63552 Par ch=1 c=11 v=74
63568 Par ch=1 c=11 v=73
63584 Par ch=1 c=11 v=72
63600 Par ch=1 c=11 v=71
63616 Par ch=1 c=11 v=70
63632 Par ch=1 c=11 v=69
63648 On ch=1 n=68 v=0
63648 Par ch=1 c=11 v=68
63648 On ch=1 n=69 v=31
63664 Par ch=1 c=11 v=67
63680 Par ch=1 c=11 v=66
63696 Par ch=1 c=11 v=65
63712 Par ch=1 c=11 v=64
63725 On ch=1 n=69 v=0
63744 Par ch=1 c=11 v=64
63744 On ch=1 n=76 v=31
63756 Par ch=1 c=11 v=65
63768 Par ch=1 c=11 v=66
63780 Par ch=1 c=11 v=67
63792 Par ch=1 c=11 v=68
63804 Par ch=1 c=11 v=69
63816 Par ch=1 c=11 v=70
63828 Par ch=1 c=11 v=71
63840 On ch=1 n=76 v=0
63840 Par ch=1 c=11 v=72
63840 On ch=1 n=70 v=31
63852 Par ch=1 c=11 v=73
63864 Par ch=1 c=11 v=74
63872 Par ch=1 c=11 v=75
63884 Par ch=1 c=11 v=76
63896 Par ch=1 c=11 v=77
63908 Par ch=1 c=11 v=78
63920 Par ch=1 c=11 v=79
63932 Par ch=1 c=11 v=80
63944 Par ch=1 c=11 v=81
63956 Par ch=1 c=11 v=82
63968 Par ch=1 c=11 v=83
63980 Par ch=1 c=11 v=84
63992 Par ch=1 c=11 v=85
64000 Par ch=1 c=11 v=86
64012 Par ch=1 c=11 v=87
64024 Par ch=1 c=11 v=88
64032 On ch=1 n=70 v=0
64032 On ch=1 n=71 v=31
64036 Par ch=1 c=11 v=89
64048 Par ch=1 c=11 v=90
64060 Par ch=1 c=11 v=91
64072 Par ch=1 c=11 v=92
64084 Par ch=1 c=11 v=93
64096 Par ch=1 c=11 v=94
64108 Par ch=1 c=11 v=95
64109 On ch=1 n=71 v=0
64120 Par ch=1 c=11 v=96
64128 On ch=1 n=91 v=31
64282 On ch=1 n=91 v=0
64320 On ch=1 n=87 v=31
64336 Par ch=1 c=11 v=96
64352 Par ch=1 c=11 v=97
64368 Par ch=1 c=11 v=98
64384 Par ch=1 c=11 v=99
64400 Par ch=1 c=11 v=100
64416 Par ch=1 c=11 v=101
64432 Par ch=1 c=11 v=102
64435 On ch=1 n=87 v=0
64444 Par ch=1 c=11 v=103
64460 Par ch=1 c=11 v=104
64464 On ch=1 n=88 v=31
64476 Par ch=1 c=11 v=105
64492 Par ch=1 c=11 v=106
64502 On ch=1 n=88 v=0
64508 Par ch=1 c=11 v=107
64512 On ch=1 n=84 v=31
64524 Par ch=1 c=11 v=108
64540 Par ch=1 c=11 v=109
64550 On ch=1 n=84 v=0
64556 Par ch=1 c=11 v=110
64568 Par ch=1 c=11 v=111
64584 Par ch=1 c=11 v=112
64600 Par ch=1 c=11 v=113
64608 On ch=1 n=83 v=31
64616 Par ch=1 c=11 v=114
64632 Par ch=1 c=11 v=115
64648 Par ch=1 c=11 v=116
64664 Par ch=1 c=11 v=117
64680 Par ch=1 c=11 v=118
64692 Par ch=1 c=11 v=119
64708 Par ch=1 c=11 v=120
64724 Par ch=1 c=11 v=121
64740 Par ch=1 c=11 v=122
64756 Par ch=1 c=11 v=123
64760 On ch=1 n=83 v=0
64772 Par ch=1 c=11 v=124
64788 Par ch=1 c=11 v=125
64800 Par ch=1 c=11 v=126
64800 On ch=1 n=83 v=31
64876 On ch=1 n=83 v=0
64896 Par ch=1 c=11 v=64
64896 On ch=1 n=91 v=95
64973 On ch=1 n=91 v=0
64992 On ch=1 n=95 v=95
65030 On ch=1 n=95 v=0
65064 On ch=1 n=93 v=95
65083 On ch=1 n=93 v=0
65088 On ch=1 n=91 v=95
65203 On ch=1 n=91 v=0
65232 Par ch=1 c=11 v=64
65232 On ch=1 n=90 v=95
65260 Par ch=1 c=11 v=65
65284 Par ch=1 c=11 v=66
65312 Par ch=1 c=11 v=67
65318 On ch=1 n=90 v=0
65328 On ch=1 n=88 v=95
65336 Par ch=1 c=11 v=68
65360 Par ch=1 c=11 v=69
65366 On ch=1 n=88 v=0
65376 On ch=1 n=91 v=95
65388 Par ch=1 c=11 v=70
65407 On ch=1 n=91 v=0
65412 Par ch=1 c=11 v=71
65436 Par ch=1 c=11 v=72
65448 On ch=1 n=90 v=95
65464 On ch=1 n=90 v=0
65464 Par ch=1 c=11 v=73
65472 On ch=1 n=88 v=95
65488 Par ch=1 c=11 v=74
65512 Par ch=1 c=11 v=75
65540 Par ch=1 c=11 v=76
65564 Par ch=1 c=11 v=77
65566 On ch=1 n=88 v=0
65588 Par ch=1 c=11 v=78
65616 Par ch=1 c=11 v=79
65616 On ch=1 n=86 v=95
65640 Par ch=1 c=11 v=80
65647 On ch=1 n=86 v=0
65664 Par ch=1 c=11 v=64
65664 On ch=1 n=84 v=79
65894 On ch=1 n=84 v=0
65952 On ch=1 n=83 v=79
66029 On ch=1 n=83 v=0
66048 On ch=1 n=81 v=79
66202 On ch=1 n=81 v=0
66432 On ch=1 n=72 v=79
66662 On ch=1 n=72 v=0
66720 On ch=1 n=72 v=79
66797 On ch=1 n=72 v=0
66816 On ch=1 n=72 v=79
66970 On ch=1 n=72 v=0
67872 On ch=1 n=76 v=95
67903 On ch=1 n=76 v=0
67944 On ch=1 n=78 v=95
67960 On ch=1 n=78 v=0
67968 On ch=1 n=78 v=95
68045 On ch=1 n=78 v=0
68064 On ch=1 n=69 v=95
68095 On ch=1 n=69 v=0
68136 On ch=1 n=74 v=95
68152 On ch=1 n=74 v=0
68160 On ch=1 n=74 v=95
68237 On ch=1 n=74 v=0
68256 On ch=1 n=76 v=95
68277 On ch=1 n=76 v=0
68288 On ch=1 n=78 v=95
68309 On ch=1 n=78 v=0
68320 On ch=1 n=79 v=95
68341 On ch=1 n=79 v=0
68352 Par ch=1 c=11 v=64
68352 On ch=1 n=81 v=95
68376 Par ch=1 c=11 v=65
68400 Par ch=1 c=11 v=66
68420 Par ch=1 c=11 v=67
68429 On ch=1 n=81 v=0
68444 Par ch=1 c=11 v=68
68448 On ch=1 n=78 v=95
68468 Par ch=1 c=11 v=69
68469 On ch=1 n=78 v=0
68480 On ch=1 n=79 v=95
68488 Par ch=1 c=11 v=70
68501 On ch=1 n=79 v=0
68512 Par ch=1 c=11 v=71
68512 On ch=1 n=81 v=95
68533 On ch=1 n=81 v=0
68536 Par ch=1 c=11 v=72
68544 On ch=1 n=83 v=95
68556 Par ch=1 c=11 v=73
68580 Par ch=1 c=11 v=74
68604 Par ch=1 c=11 v=75
68621 On ch=1 n=83 v=0
68624 Par ch=1 c=11 v=76
68640 On ch=1 n=80 v=95
68648 Par ch=1 c=11 v=77
68661 On ch=1 n=80 v=0
68672 Par ch=1 c=11 v=78
68672 On ch=1 n=81 v=95
68692 Par ch=1 c=11 v=79
68693 On ch=1 n=81 v=0
68704 On ch=1 n=83 v=95
68716 Par ch=1 c=11 v=80
68725 On ch=1 n=83 v=0
68736 Par ch=1 c=11 v=64
68736 On ch=1 n=85 v=95
68784 Par ch=1 c=11 v=32
68890 On ch=1 n=85 v=0
69120 Par ch=1 c=11 v=64
69120 On ch=1 n=85 v=95
69144 Par ch=1 c=11 v=63
69158 On ch=1 n=85 v=0
69168 Par ch=1 c=11 v=62
69188 Par ch=1 c=11 v=61
69192 On ch=1 n=83 v=95
69211 On ch=1 n=83 v=0
69212 Par ch=1 c=11 v=60
69216 On ch=1 n=81 v=95
69236 Par ch=1 c=11 v=59
69254 On ch=1 n=81 v=0
69256 Par ch=1 c=11 v=58
69280 Par ch=1 c=11 v=57
69288 On ch=1 n=80 v=95
69304 Par ch=1 c=11 v=56
69307 On ch=1 n=80 v=0
69312 On ch=1 n=78 v=95
69324 Par ch=1 c=11 v=55
69348 Par ch=1 c=11 v=54
69350 On ch=1 n=78 v=0
69372 Par ch=1 c=11 v=53
69384 On ch=1 n=76 v=95
69392 Par ch=1 c=11 v=52
69403 On ch=1 n=76 v=0
69408 On ch=1 n=75 v=95
69416 Par ch=1 c=11 v=51
69440 Par ch=1 c=11 v=50
69446 On ch=1 n=75 v=0
69460 Par ch=1 c=11 v=49
69480 On ch=1 n=73 v=95
69484 Par ch=1 c=11 v=48
69499 On ch=1 n=73 v=0
69888 Par ch=1 c=11 v=64
69888 On ch=1 n=85 v=95
69912 Par ch=1 c=11 v=63
69926 On ch=1 n=85 v=0
69936 Par ch=1 c=11 v=62
69956 Par ch=1 c=11 v=61
69960 On ch=1 n=83 v=95
69979 On ch=1 n=83 v=0
69980 Par ch=1 c=11 v=60
69984 On ch=1 n=81 v=95
70004 Par ch=1 c=11 v=59
70022 On ch=1 n=81 v=0
70024 Par ch=1 c=11 v=58
70048 Par ch=1 c=11 v=57
70056 On ch=1 n=80 v=95
70072 Par ch=1 c=11 v=56
70075 On ch=1 n=80 v=0
70080 On ch=1 n=78 v=95
70092 Par ch=1 c=11 v=55
70116 Par ch=1 c=11 v=54
70118 On ch=1 n=78 v=0
70140 Par ch=1 c=11 v=53
70152 On ch=1 n=76 v=95
70160 Par ch=1 c=11 v=52
70171 On ch=1 n=76 v=0
70176 On ch=1 n=74 v=95
70184 Par ch=1 c=11 v=51
70208 Par ch=1 c=11 v=50
70214 On ch=1 n=74 v=0
70228 Par ch=1 c=11 v=49
70248 On ch=1 n=73 v=95
70252 Par ch=1 c=11 v=48
70267 On ch=1 n=73 v=0
70656 Par ch=1 c=11 v=64
70656 On ch=1 n=85 v=111
70704 Par ch=1 c=11 v=32
70810 On ch=1 n=85 v=0
71040 Par ch=1 c=11 v=64
71040 On ch=1 n=85 v=111
71088 Par ch=1 c=11 v=32
71194 On ch=1 n=85 v=0
71424 Par ch=1 c=11 v=64
71424 On ch=1 n=86 v=111
71520 On ch=1 n=86 v=0
71520 On ch=1 n=85 v=47
71674 On ch=1 n=85 v=0
71808 On ch=1 n=86 v=111
71904 On ch=1 n=86 v=0
71904 On ch=1 n=85 v=47
72058 On ch=1 n=85 v=0
72192 On ch=1 n=86 v=95
72288 On ch=1 n=86 v=0
72288 On ch=1 n=85 v=47
72442 On ch=1 n=85 v=0
72576 Par ch=1 c=0 v=0
72576 Par ch=1 c=32 v=0
72576 PrCh ch=1 p=72
76032 On ch=1 n=104 v=79
76063 On ch=1 n=104 v=0
76104 On ch=1 n=98 v=79
76128 On ch=1 n=98 v=0
76128 On ch=1 n=90 v=79
76166 On ch=1 n=90 v=0
76224 On ch=1 n=104 v=79
76255 On ch=1 n=104 v=0
76296 On ch=1 n=98 v=79
76320 On ch=1 n=98 v=0
76320 On ch=1 n=90 v=79
76358 On ch=1 n=90 v=0
76416 On ch=1 n=104 v=79
76447 On ch=1 n=104 v=0
76488 On ch=1 n=98 v=79
76512 On ch=1 n=98 v=0
76512 On ch=1 n=90 v=79
76550 On ch=1 n=90 v=0
76608 On ch=1 n=104 v=79
76639 On ch=1 n=104 v=0
76680 On ch=1 n=98 v=79
76704 On ch=1 n=98 v=0
76704 On ch=1 n=90 v=79
76742 On ch=1 n=90 v=0
109728 On ch=1 n=94 v=111
109805 On ch=1 n=94 v=0
109824 On ch=1 n=106 v=111
109978 On ch=1 n=106 v=0
110016 On ch=1 n=99 v=111
110285 On ch=1 n=99 v=0
110304 On ch=1 n=101 v=111
110381 On ch=1 n=101 v=0
110400 On ch=1 n=103 v=111
110477 On ch=1 n=103 v=0
110496 On ch=1 n=104 v=111
110573 On ch=1 n=104 v=0
112224 On ch=1 n=102 v=111
112245 On ch=1 n=102 v=0
112256 On ch=1 n=101 v=111
112277 On ch=1 n=101 v=0
112288 On ch=1 n=99 v=111
112309 On ch=1 n=99 v=0
112320 On ch=1 n=99 v=111
112341 On ch=1 n=99 v=0
112352 On ch=1 n=97 v=111
112373 On ch=1 n=97 v=0
112384 On ch=1 n=95 v=111
112405 On ch=1 n=95 v=0
112416 On ch=1 n=94 v=111
112437 On ch=1 n=94 v=0
112448 On ch=1 n=90 v=111
112469 On ch=1 n=90 v=0
112480 On ch=1 n=94 v=111
112493 On ch=1 n=94 v=0
112992 On ch=1 n=102 v=111
113018 On ch=1 n=102 v=0
113024 On ch=1 n=101 v=111
113050 On ch=1 n=101 v=0
113056 On ch=1 n=99 v=111
113082 On ch=1 n=99 v=0
113088 On ch=1 n=99 v=111
113114 On ch=1 n=99 v=0
113120 On ch=1 n=97 v=111
113146 On ch=1 n=97 v=0
113152 On ch=1 n=95 v=111
113178 On ch=1 n=95 v=0
113184 On ch=1 n=94 v=111
113210 On ch=1 n=94 v=0
113216 On ch=1 n=90 v=111
113242 On ch=1 n=90 v=0
113248 On ch=1 n=94 v=111
113261 On ch=1 n=94 v=0
113280 On ch=1 n=95 v=127
113376 On ch=1 n=95 v=0
113376 On ch=1 n=94 v=127
113472 On ch=1 n=94 v=0
113472 On ch=1 n=93 v=127
113568 On ch=1 n=93 v=0
113568 On ch=1 n=94 v=127
113645 On ch=1 n=94 v=0
113664 Par ch=1 c=11 v=64
113664 On ch=1 n=97 v=127
113688 Par ch=1 c=11 v=65
113712 Par ch=1 c=11 v=66
113732 Par ch=1 c=11 v=67
113756 Par ch=1 c=11 v=68
113760 On ch=1 n=97 v=0
113760 On ch=1 n=96 v=127
113780 Par ch=1 c=11 v=69
113800 Par ch=1 c=11 v=70
113824 Par ch=1 c=11 v=71
113848 Par ch=1 c=11 v=72
113856 On ch=1 n=96 v=0
113856 On ch=1 n=95 v=127
113868 Par ch=1 c=11 v=73
113892 Par ch=1 c=11 v=74
113916 Par ch=1 c=11 v=75
113936 Par ch=1 c=11 v=76
113952 On ch=1 n=95 v=0
113952 On ch=1 n=96 v=127
113960 Par ch=1 c=11 v=77
113984 Par ch=1 c=11 v=78
114004 Par ch=1 c=11 v=79
114028 Par ch=1 c=11 v=80
114029 On ch=1 n=96 v=0
114048 Par ch=1 c=11 v=64
114048 On ch=1 n=99 v=111
114144 On ch=1 n=99 v=0
114144 On ch=1 n=98 v=111
114288 On ch=1 n=98 v=0
114288 On ch=1 n=102 v=111
114336 On ch=1 n=102 v=0
114336 On ch=1 n=101 v=111
114384 On ch=1 n=101 v=0
114384 On ch=1 n=92 v=111
114422 On ch=1 n=92 v=0
114432 On ch=1 n=92 v=111
114480 On ch=1 n=92 v=0
114480 On ch=1 n=91 v=111
114528 On ch=1 n=91 v=0
114528 On ch=1 n=101 v=111
114576 On ch=1 n=101 v=0
114576 On ch=1 n=99 v=111
114624 On ch=1 n=99 v=0
114624 On ch=1 n=90 v=111
114672 On ch=1 n=90 v=0
114672 On ch=1 n=98 v=111
114720 On ch=1 n=98 v=0
114720 On ch=1 n=97 v=111
114768 On ch=1 n=97 v=0
114768 On ch=1 n=89 v=111
114806 On ch=1 n=89 v=0
114816 On ch=1 n=89 v=111
114864 On ch=1 n=89 v=0
114864 On ch=1 n=88 v=111
114912 On ch=1 n=88 v=0
114912 On ch=1 n=96 v=111
114960 On ch=1 n=96 v=0
114960 On ch=1 n=95 v=111
115008 On ch=1 n=95 v=0
115008 On ch=1 n=87 v=111
115056 On ch=1 n=87 v=0
115056 On ch=1 n=86 v=111
115104 On ch=1 n=86 v=0
115104 On ch=1 n=94 v=111
115152 On ch=1 n=94 v=0
115152 On ch=1 n=93 v=111
115190 On ch=1 n=93 v=0
115200 Par ch=1 c=11 v=64
115200 On ch=1 n=92 v=111
115212 Par ch=1 c=11 v=63
115224 Par ch=1 c=11 v=62
115236 Par ch=1 c=11 v=61
115248 Par ch=1 c=11 v=60
115260 Par ch=1 c=11 v=59
115268 Par ch=1 c=11 v=58
115280 Par ch=1 c=11 v=57
115292 Par ch=1 c=11 v=56
115304 Par ch=1 c=11 v=55
115316 Par ch=1 c=11 v=54
115328 Par ch=1 c=11 v=53
115336 Par ch=1 c=11 v=52
115348 Par ch=1 c=11 v=51
115360 Par ch=1 c=11 v=50
115372 Par ch=1 c=11 v=49
115384 Par ch=1 c=11 v=48
115392 On ch=1 n=92 v=0
115392 Par ch=1 c=11 v=47
115392 On ch=1 n=90 v=111
115404 Par ch=1 c=11 v=46
115416 Par ch=1 c=11 v=45
115428 Par ch=1 c=11 v=44
115440 Par ch=1 c=11 v=43
115452 Par ch=1 c=11 v=42
115460 Par ch=1 c=11 v=41
115472 Par ch=1 c=11 v=40
115484 Par ch=1 c=11 v=39
115496 Par ch=1 c=11 v=38
115508 Par ch=1 c=11 v=37
115520 Par ch=1 c=11 v=36
115528 Par ch=1 c=11 v=35
115540 Par ch=1 c=11 v=34
115552 Par ch=1 c=11 v=33
115564 Par ch=1 c=11 v=32
115584 Par ch=1 c=11 v=32
115596 Par ch=1 c=11 v=33
115608 Par ch=1 c=11 v=34
115620 Par ch=1 c=11 v=35
115632 Par ch=1 c=11 v=36
115644 Par ch=1 c=11 v=37
115656 Par ch=1 c=11 v=38
115660 On ch=1 n=90 v=0
115668 Par ch=1 c=11 v=39
115680 Par ch=1 c=11 v=40
115680 On ch=1 n=88 v=111
115692 Par ch=1 c=11 v=41
115704 Par ch=1 c=11 v=42
115712 Par ch=1 c=11 v=43
115724 Par ch=1 c=11 v=44
115736 Par ch=1 c=11 v=45
115748 Par ch=1 c=11 v=46
115756 On ch=1 n=88 v=0
115760 Par ch=1 c=11 v=47
115772 Par ch=1 c=11 v=48
115776 On ch=1 n=87 v=111
115784 Par ch=1 c=11 v=49
115796 Par ch=1 c=11 v=50
115808 Par ch=1 c=11 v=51
115820 Par ch=1 c=11 v=52
115832 Par ch=1 c=11 v=53
115840 Par ch=1 c=11 v=54
115852 On ch=1 n=87 v=0
115852 Par ch=1 c=11 v=55
115864 Par ch=1 c=11 v=56
115872 On ch=1 n=86 v=111
115876 Par ch=1 c=11 v=57
115888 Par ch=1 c=11 v=58
115900 Par ch=1 c=11 v=59
115912 Par ch=1 c=11 v=60
115924 Par ch=1 c=11 v=61
115936 Par ch=1 c=11 v=62
115948 On ch=1 n=86 v=0
115948 Par ch=1 c=11 v=63
115960 Par ch=1 c=11 v=64
115968 On ch=1 n=92 v=111
116160 On ch=1 n=92 v=0
116160 On ch=1 n=90 v=111
116428 On ch=1 n=90 v=0
116448 Par ch=1 c=11 v=64
116448 On ch=1 n=89 v=111
116468 Par ch=1 c=11 v=63
116484 Par ch=1 c=11 v=62
116500 Par ch=1 c=11 v=61
116516 Par ch=1 c=11 v=60
116524 On ch=1 n=89 v=0
116536 Par ch=1 c=11 v=59
116544 On ch=1 n=88 v=111
116552 Par ch=1 c=11 v=58
116568 Par ch=1 c=11 v=57
116584 Par ch=1 c=11 v=56
116604 Par ch=1 c=11 v=55
116620 On ch=1 n=88 v=0
116620 Par ch=1 c=11 v=54
116636 Par ch=1 c=11 v=53
116640 On ch=1 n=87 v=111
116652 Par ch=1 c=11 v=52
116672 Par ch=1 c=11 v=51
116688 Par ch=1 c=11 v=50
116704 Par ch=1 c=11 v=49
116716 On ch=1 n=87 v=0
116720 Par ch=1 c=11 v=48
117120 Par ch=1 c=11 v=64
119328 On ch=1 n=102 v=100
119366 On ch=1 n=102 v=0
119400 On ch=1 n=101 v=100
119419 On ch=1 n=101 v=0
119424 On ch=1 n=98 v=100
119472 On ch=1 n=98 v=0
119472 On ch=1 n=99 v=100
119510 On ch=1 n=99 v=0
119520 On ch=1 n=90 v=100
119551 On ch=1 n=90 v=0
119592 On ch=1 n=92 v=100
119608 On ch=1 n=92 v=0
119616 On ch=1 n=94 v=100
119693 On ch=1 n=94 v=0
119712 On ch=1 n=97 v=100
119750 On ch=1 n=97 v=0
119784 On ch=1 n=95 v=100
119803 On ch=1 n=95 v=0
119808 On ch=1 n=94 v=100
119885 On ch=1 n=94 v=0
119904 On ch=1 n=87 v=100
119981 On ch=1 n=87 v=0
120096 On ch=1 n=104 v=100
120127 On ch=1 n=104 v=0
120168 On ch=1 n=100 v=100
120184 On ch=1 n=100 v=0
120192 On ch=1 n=98 v=100
120240 On ch=1 n=98 v=0
120240 On ch=1 n=99 v=100
120271 On ch=1 n=99 v=0
120288 On ch=1 n=92 v=100
120319 On ch=1 n=92 v=0
120360 On ch=1 n=94 v=100
120376 On ch=1 n=94 v=0
120384 On ch=1 n=95 v=100
120461 On ch=1 n=95 v=0
121248 On ch=1 n=99 v=100
121279 On ch=1 n=99 v=0
121320 On ch=1 n=98 v=100
121336 On ch=1 n=98 v=0
121344 On ch=1 n=97 v=100
121375 On ch=1 n=97 v=0
121416 On ch=1 n=96 v=100
121432 On ch=1 n=96 v=0
121440 On ch=1 n=95 v=100
121471 On ch=1 n=95 v=0
121512 On ch=1 n=94 v=100
121528 On ch=1 n=94 v=0
121536 On ch=1 n=93 v=100
121567 On ch=1 n=93 v=0
121608 On ch=1 n=92 v=100
121624 On ch=1 n=92 v=0
121632 On ch=1 n=91 v=100
121663 On ch=1 n=91 v=0
121704 On ch=1 n=90 v=100
121720 On ch=1 n=90 v=0
121728 On ch=1 n=95 v=100
121759 On ch=1 n=95 v=0
121800 On ch=1 n=94 v=100
121816 On ch=1 n=94 v=0
121824 On ch=1 n=93 v=100
121855 On ch=1 n=93 v=0
121896 On ch=1 n=92 v=100
121912 On ch=1 n=92 v=0
121920 On ch=1 n=91 v=100
121951 On ch=1 n=91 v=0
121992 On ch=1 n=90 v=100
122008 On ch=1 n=90 v=0
122016 On ch=1 n=89 v=100
122047 On ch=1 n=89 v=0
122088 On ch=1 n=88 v=100
122104 On ch=1 n=88 v=0
122112 On ch=1 n=93 v=100
122143 On ch=1 n=93 v=0
123360 On ch=1 n=91 v=100
123363 On ch=1 n=96 v=100
123366 On ch=1 n=103 v=100
123372 On ch=1 n=91 v=0
123375 On ch=1 n=96 v=0
123382 On ch=1 n=103 v=0
124128 On ch=1 n=91 v=100
124131 On ch=1 n=97 v=100
124134 On ch=1 n=103 v=100
124140 On ch=1 n=91 v=0
124143 On ch=1 n=97 v=0
124150 On ch=1 n=103 v=0
125952 Par ch=1 c=11 v=64
125952 On ch=1 n=91 v=100
125960 On ch=1 n=91 v=0
125960 On ch=1 n=92 v=100
125968 On ch=1 n=92 v=0
125968 On ch=1 n=91 v=100
125976 On ch=1 n=91 v=0
125976 Par ch=1 c=11 v=65
125976 On ch=1 n=92 v=100
125984 On ch=1 n=92 v=0
125984 On ch=1 n=91 v=100
125992 On ch=1 n=91 v=0
125992 On ch=1 n=92 v=100
126000 On ch=1 n=92 v=0
126000 Par ch=1 c=11 v=66
126000 On ch=1 n=91 v=100
126008 On ch=1 n=91 v=0
126008 On ch=1 n=92 v=100
126016 On ch=1 n=92 v=0
126016 On ch=1 n=91 v=100
126020 Par ch=1 c=11 v=67
126024 On ch=1 n=91 v=0
126024 On ch=1 n=92 v=100
126032 On ch=1 n=92 v=0
126032 On ch=1 n=91 v=100
126040 On ch=1 n=91 v=0
126040 On ch=1 n=92 v=100
126044 Par ch=1 c=11 v=68
126048 On ch=1 n=92 v=0
126048 On ch=1 n=91 v=100
126056 On ch=1 n=91 v=0
126056 On ch=1 n=92 v=100
126064 On ch=1 n=92 v=0
126064 On ch=1 n=91 v=100
126068 Par ch=1 c=11 v=69
126072 On ch=1 n=91 v=0
126072 On ch=1 n=92 v=100
126080 On ch=1 n=92 v=0
126080 On ch=1 n=91 v=100
126088 On ch=1 n=91 v=0
126088 Par ch=1 c=11 v=70
126088 On ch=1 n=92 v=100
126096 On ch=1 n=92 v=0
126096 On ch=1 n=91 v=100
126104 On ch=1 n=91 v=0
126104 On ch=1 n=92 v=100
126112 On ch=1 n=92 v=0
126112 Par ch=1 c=11 v=71
126112 On ch=1 n=91 v=100
126120 On ch=1 n=91 v=0
126120 On ch=1 n=92 v=100
126128 On ch=1 n=92 v=0
126128 On ch=1 n=91 v=100
126136 On ch=1 n=91 v=0
126136 Par ch=1 c=11 v=72
126136 On ch=1 n=92 v=100
126144 On ch=1 n=92 v=0
126144 On ch=1 n=91 v=100
126152 On ch=1 n=91 v=0
126152 On ch=1 n=92 v=100
126156 Par ch=1 c=11 v=73
126160 On ch=1 n=92 v=0
126160 On ch=1 n=91 v=100
126168 On ch=1 n=91 v=0
126168 On ch=1 n=92 v=100
126176 On ch=1 n=92 v=0
126176 On ch=1 n=91 v=100
126180 Par ch=1 c=11 v=74
126184 On ch=1 n=91 v=0
126184 On ch=1 n=92 v=100
126192 On ch=1 n=92 v=0
126192 On ch=1 n=91 v=100
126200 On ch=1 n=91 v=0
126200 On ch=1 n=92 v=100
126204 Par ch=1 c=11 v=75
126208 On ch=1 n=92 v=0
126208 On ch=1 n=91 v=100
126216 On ch=1 n=91 v=0
126216 On ch=1 n=92 v=100
126224 On ch=1 n=92 v=0
126224 Par ch=1 c=11 v=76
126224 On ch=1 n=91 v=100
126232 On ch=1 n=91 v=0
126232 On ch=1 n=92 v=100
126240 On ch=1 n=92 v=0
126240 On ch=1 n=91 v=100
126248 On ch=1 n=91 v=0
126248 Par ch=1 c=11 v=77
126248 On ch=1 n=92 v=100
126256 On ch=1 n=92 v=0
126256 On ch=1 n=91 v=100
126264 On ch=1 n=91 v=0
126264 On ch=1 n=92 v=100
126272 On ch=1 n=92 v=0
126272 Par ch=1 c=11 v=78
126272 On ch=1 n=91 v=100
126280 On ch=1 n=91 v=0
126280 On ch=1 n=92 v=100
126288 On ch=1 n=92 v=0
126288 On ch=1 n=91 v=100
126292 Par ch=1 c=11 v=79
126296 On ch=1 n=91 v=0
126296 On ch=1 n=92 v=100
126304 On ch=1 n=92 v=0
126304 On ch=1 n=91 v=100
126312 On ch=1 n=91 v=0
126312 On ch=1 n=90 v=100
126316 Par ch=1 c=11 v=80
126320 On ch=1 n=90 v=0
126320 On ch=1 n=91 v=100
126328 On ch=1 n=91 v=0
126336 Par ch=1 c=11 v=64
126336 On ch=1 n=96 v=100
126367 On ch=1 n=96 v=0
156000 On ch=1 n=91 v=79
156154 On ch=1 n=91 v=0
156288 On ch=1 n=91 v=79
156442 On ch=1 n=91 v=0
156672 Par ch=1 c=11 v=64
156672 On ch=1 n=86 v=47
156676 Par ch=1 c=11 v=65
156680 Par ch=1 c=11 v=66
156684 Par ch=1 c=11 v=68
156688 Par ch=1 c=11 v=69
156692 Par ch=1 c=11 v=71
156696 Par ch=1 c=11 v=72
156700 Par ch=1 c=11 v=73
156704 Par ch=1 c=11 v=75
156708 Par ch=1 c=11 v=76
156712 Par ch=1 c=11 v=78
156716 Par ch=1 c=11 v=79
156720 Par ch=1 c=11 v=79
156724 Par ch=1 c=11 v=78
156728 Par ch=1 c=11 v=77
156732 Par ch=1 c=11 v=76
156736 Par ch=1 c=11 v=74
156740 Par ch=1 c=11 v=73
156744 Par ch=1 c=11 v=72
156748 Par ch=1 c=11 v=71
156752 Par ch=1 c=11 v=69
156756 Par ch=1 c=11 v=68
156760 Par ch=1 c=11 v=67
156764 Par ch=1 c=11 v=66
156768 Par ch=1 c=11 v=64
156826 On ch=1 n=86 v=0
156864 Par ch=1 c=11 v=64
156864 On ch=1 n=89 v=47
156868 Par ch=1 c=11 v=65
156872 Par ch=1 c=11 v=66
156876 Par ch=1 c=11 v=68
156880 Par ch=1 c=11 v=69
156884 Par ch=1 c=11 v=71
156888 Par ch=1 c=11 v=72
156892 Par ch=1 c=11 v=73
156896 Par ch=1 c=11 v=75
156900 Par ch=1 c=11 v=76
156904 Par ch=1 c=11 v=78
156908 Par ch=1 c=11 v=79
156912 Par ch=1 c=11 v=79
156916 Par ch=1 c=11 v=78
156920 Par ch=1 c=11 v=77
156924 Par ch=1 c=11 v=76
156928 Par ch=1 c=11 v=74
156932 Par ch=1 c=11 v=73
156936 Par ch=1 c=11 v=72
156940 Par ch=1 c=11 v=71
156944 Par ch=1 c=11 v=69
156948 Par ch=1 c=11 v=68
156952 Par ch=1 c=11 v=67
156956 Par ch=1 c=11 v=66
156960 Par ch=1 c=11 v=64
156979 On ch=1 n=89 v=0
157008 On ch=1 n=87 v=47
157039 On ch=1 n=87 v=0
157056 On ch=1 n=86 v=47
157286 On ch=1 n=86 v=0
157344 On ch=1 n=92 v=47
157421 On ch=1 n=92 v=0
157440 On ch=1 n=91 v=47
157517 On ch=1 n=91 v=0
157536 On ch=1 n=86 v=47
157594 On ch=1 n=86 v=0
157608 On ch=1 n=87 v=47
157624 On ch=1 n=87 v=0
157632 On ch=1 n=89 v=47
157709 On ch=1 n=89 v=0
157728 On ch=1 n=92 v=47
157805 On ch=1 n=92 v=0
157824 On ch=1 n=91 v=47
157862 On ch=1 n=91 v=0
157920 On ch=1 n=99 v=47
158074 On ch=1 n=99 v=0
158112 On ch=1 n=98 v=47
158189 On ch=1 n=98 v=0
158208 On ch=1 n=97 v=47
158246 On ch=1 n=97 v=0
169344 On ch=1 n=96 v=111
169357 On ch=1 n=96 v=0
169376 On ch=1 n=95 v=111
169389 On ch=1 n=95 v=0
169408 On ch=1 n=94 v=111
169421 On ch=1 n=94 v=0
169440 On ch=1 n=93 v=111
169453 On ch=1 n=93 v=0
169472 On ch=1 n=92 v=111
169485 On ch=1 n=92 v=0
169504 On ch=1 n=91 v=111
169517 On ch=1 n=91 v=0
169536 On ch=1 n=90 v=111
169549 On ch=1 n=90 v=0
169568 On ch=1 n=89 v=111
169581 On ch=1 n=89 v=0
169600 On ch=1 n=88 v=111
169613 On ch=1 n=88 v=0
169632 On ch=1 n=87 v=111
169645 On ch=1 n=87 v=0
169664 On ch=1 n=86 v=111
169677 On ch=1 n=86 v=0
169696 On ch=1 n=85 v=111
169709 On ch=1 n=85 v=0
169728 On ch=1 n=84 v=111
169741 On ch=1 n=84 v=0
169760 On ch=1 n=83 v=111
169773 On ch=1 n=83 v=0
169792 On ch=1 n=82 v=111
169805 On ch=1 n=82 v=0
169824 On ch=1 n=81 v=111
169837 On ch=1 n=81 v=0
169856 On ch=1 n=80 v=111
169869 On ch=1 n=80 v=0
169888 On ch=1 n=79 v=111
169901 On ch=1 n=79 v=0
169920 On ch=1 n=78 v=111
169933 On ch=1 n=78 v=0
169952 On ch=1 n=77 v=111
169965 On ch=1 n=77 v=0
169984 On ch=1 n=76 v=111
169997 On ch=1 n=76 v=0
170016 On ch=1 n=75 v=111
170029 On ch=1 n=75 v=0
170048 On ch=1 n=74 v=111
170061 On ch=1 n=74 v=0
170080 On ch=1 n=73 v=111
170093 On ch=1 n=73 v=0
170112 On ch=1 n=72 v=111
170150 On ch=1 n=72 v=0
170150 Meta TrkEnd
TrkEnd
MTrk
0 Meta 0x21 00
0 Meta TrkName "FLUTE"
192 Par ch=2 c=1 v=8
196 Par ch=2 c=7 v=127
200 Par ch=2 c=10 v=55
204 Par ch=2 c=11 v=64
208 Par ch=2 c=91 v=112
212 Par ch=2 c=93 v=32
216 Par ch=2 c=0 v=0
216 Par ch=2 c=32 v=0
216 PrCh ch=2 p=73
10320 On ch=2 n=67 v=79
10320 On ch=2 n=79 v=79
10351 On ch=2 n=79 v=0
10351 On ch=2 n=67 v=0
10368 On ch=2 n=84 v=79
10368 On ch=2 n=72 v=79
10445 On ch=2 n=72 v=0
10445 On ch=2 n=84 v=0
10464 On ch=2 n=70 v=79
10464 On ch=2 n=82 v=79
10495 On ch=2 n=82 v=0
10495 On ch=2 n=70 v=0
10536 On ch=2 n=80 v=79
10536 On ch=2 n=68 v=79
10552 On ch=2 n=68 v=0
10552 On ch=2 n=80 v=0
10560 Par ch=2 c=11 v=64
10560 On ch=2 n=67 v=79
10560 On ch=2 n=79 v=79
10572 Par ch=2 c=11 v=63
10580 Par ch=2 c=11 v=62
10588 Par ch=2 c=11 v=61
10596 Par ch=2 c=11 v=60
10608 Par ch=2 c=11 v=59
10616 Par ch=2 c=11 v=58
10624 Par ch=2 c=11 v=57
10632 Par ch=2 c=11 v=56
10640 Par ch=2 c=11 v=55
10652 Par ch=2 c=11 v=54
10660 Par ch=2 c=11 v=53
10668 Par ch=2 c=11 v=52
10675 On ch=2 n=79 v=0
10675 On ch=2 n=67 v=0
10676 Par ch=2 c=11 v=51
10684 Par ch=2 c=11 v=50
10696 Par ch=2 c=11 v=49
10704 Par ch=2 c=11 v=48
10704 On ch=2 n=65 v=79
10704 On ch=2 n=77 v=79
10712 Par ch=2 c=11 v=47
10720 Par ch=2 c=11 v=46
10728 Par ch=2 c=11 v=45
10735 On ch=2 n=77 v=0
10735 On ch=2 n=65 v=0
10740 Par ch=2 c=11 v=44
10748 Par ch=2 c=11 v=43
10752 On ch=2 n=75 v=79
10752 On ch=2 n=63 v=79
10756 Par ch=2 c=11 v=42
10764 Par ch=2 c=11 v=41
10772 Par ch=2 c=11 v=40
10784 Par ch=2 c=11 v=39
10790 On ch=2 n=63 v=0
10790 On ch=2 n=75 v=0
10792 Par ch=2 c=11 v=38
10800 Par ch=2 c=11 v=37
10808 Par ch=2 c=11 v=36
10816 Par ch=2 c=11 v=35
10824 On ch=2 n=74 v=79
10824 On ch=2 n=62 v=79
10828 Par ch=2 c=11 v=34
10836 Par ch=2 c=11 v=33
10843 On ch=2 n=62 v=0
10843 On ch=2 n=74 v=0
10844 Par ch=2 c=11 v=32
10848 On ch=2 n=72 v=79
10848 On ch=2 n=60 v=79
10852 Par ch=2 c=11 v=31
10860 Par ch=2 c=11 v=30
10872 Par ch=2 c=11 v=29
10880 Par ch=2 c=11 v=28
10888 Par ch=2 c=11 v=27
10896 Par ch=2 c=11 v=26
10904 Par ch=2 c=11 v=25
10916 Par ch=2 c=11 v=24
10924 Par ch=2 c=11 v=23
10932 Par ch=2 c=11 v=22
10940 Par ch=2 c=11 v=21
10948 Par ch=2 c=11 v=20
10960 Par ch=2 c=11 v=19
10963 On ch=2 n=60 v=0
10963 On ch=2 n=72 v=0
10968 Par ch=2 c=11 v=18
10976 Par ch=2 c=11 v=17
10984 Par ch=2 c=11 v=16
10992 Par ch=2 c=11 v=64
10992 On ch=2 n=74 v=47
10992 On ch=2 n=62 v=47
11023 On ch=2 n=62 v=0
11023 On ch=2 n=74 v=0
11040 On ch=2 n=63 v=47
11040 On ch=2 n=75 v=47
11061 On ch=2 n=75 v=0
11061 On ch=2 n=63 v=0
11072 On ch=2 n=74 v=47
11072 On ch=2 n=62 v=47
11093 On ch=2 n=62 v=0
11093 On ch=2 n=74 v=0
11104 On ch=2 n=60 v=47
11104 On ch=2 n=72 v=47
11125 On ch=2 n=72 v=0
11125 On ch=2 n=60 v=0
11136 On ch=2 n=67 v=31
11136 On ch=2 n=79 v=31
11290 On ch=2 n=79 v=0
11290 On ch=2 n=67 v=0
11328 On ch=2 n=74 v=31
11328 On ch=2 n=62 v=31
11443 On ch=2 n=62 v=0
11443 On ch=2 n=74 v=0
11472 On ch=2 n=74 v=31
11472 On ch=2 n=62 v=31
11503 On ch=2 n=62 v=0
11503 On ch=2 n=74 v=0
11520 Par ch=2 c=11 v=64
11520 On ch=2 n=79 v=31
11520 On ch=2 n=67 v=31
11528 Par ch=2 c=11 v=65
11536 Par ch=2 c=11 v=66
11544 Par ch=2 c=11 v=67
11552 Par ch=2 c=11 v=68
11560 Par ch=2 c=11 v=69
11568 Par ch=2 c=11 v=70
11576 Par ch=2 c=11 v=71
11584 Par ch=2 c=11 v=72
11592 Par ch=2 c=11 v=73
11600 Par ch=2 c=11 v=74
11608 Par ch=2 c=11 v=75
11616 Par ch=2 c=11 v=76
11624 Par ch=2 c=11 v=77
11632 Par ch=2 c=11 v=78
11640 Par ch=2 c=11 v=79
11648 Par ch=2 c=11 v=80
11656 Par ch=2 c=11 v=81
11664 Par ch=2 c=11 v=82
11672 Par ch=2 c=11 v=83
11680 Par ch=2 c=11 v=84
11688 Par ch=2 c=11 v=85
11696 Par ch=2 c=11 v=86
11704 Par ch=2 c=11 v=87
11712 Par ch=2 c=11 v=88
11716 Par ch=2 c=11 v=89
11724 Par ch=2 c=11 v=90
11732 Par ch=2 c=11 v=91
11740 Par ch=2 c=11 v=92
11748 Par ch=2 c=11 v=93
11750 On ch=2 n=67 v=0
11750 On ch=2 n=79 v=0
11756 Par ch=2 c=11 v=94
11764 Par ch=2 c=11 v=95
11772 Par ch=2 c=11 v=96
11780 Par ch=2 c=11 v=97
11788 Par ch=2 c=11 v=98
11796 Par ch=2 c=11 v=99
11804 Par ch=2 c=11 v=100
11808 On ch=2 n=77 v=31
11812 Par ch=2 c=11 v=101
11820 Par ch=2 c=11 v=102
11828 Par ch=2 c=11 v=103
11836 Par ch=2 c=11 v=104
11844 Par ch=2 c=11 v=105
11846 On ch=2 n=77 v=0
11852 Par ch=2 c=11 v=106
11856 On ch=2 n=75 v=31
11860 Par ch=2 c=11 v=107
11868 Par ch=2 c=11 v=108
11876 Par ch=2 c=11 v=109
11884 Par ch=2 c=11 v=110
11892 Par ch=2 c=11 v=111
11894 On ch=2 n=75 v=0
11900 Par ch=2 c=11 v=112
11904 Par ch=2 c=11 v=64
11904 On ch=2 n=74 v=79
11981 On ch=2 n=74 v=0
12000 On ch=2 n=67 v=79
12038 On ch=2 n=67 v=0
12072 On ch=2 n=67 v=79
12091 On ch=2 n=67 v=0
12096 On ch=2 n=74 v=79
12173 On ch=2 n=74 v=0
12192 On ch=2 n=77 v=79
12250 On ch=2 n=77 v=0
12264 On ch=2 n=75 v=79
12283 On ch=2 n=75 v=0
12288 On ch=2 n=74 v=79
12319 On ch=2 n=74 v=0
12480 On ch=2 n=68 v=95
12634 On ch=2 n=68 v=0
12672 On ch=2 n=75 v=95
12768 Par ch=2 c=11 v=32
13133 On ch=2 n=75 v=0
13440 Par ch=2 c=11 v=64
13440 On ch=2 n=79 v=47
13594 On ch=2 n=79 v=0
13632 Par ch=2 c=11 v=64
13632 On ch=2 n=76 v=47
13644 Par ch=2 c=11 v=65
13652 Par ch=2 c=11 v=66
13660 Par ch=2 c=11 v=67
13672 Par ch=2 c=11 v=68
13680 Par ch=2 c=11 v=69
13688 Par ch=2 c=11 v=70
13696 Par ch=2 c=11 v=71
13708 Par ch=2 c=11 v=72
13716 Par ch=2 c=11 v=73
13724 Par ch=2 c=11 v=74
13736 Par ch=2 c=11 v=75
13744 Par ch=2 c=11 v=76
13747 On ch=2 n=76 v=0
13752 Par ch=2 c=11 v=77
13760 Par ch=2 c=11 v=78
13772 Par ch=2 c=11 v=79
13776 On ch=2 n=77 v=47
13780 Par ch=2 c=11 v=80
13788 Par ch=2 c=11 v=81
13800 Par ch=2 c=11 v=82
13807 On ch=2 n=77 v=0
13808 Par ch=2 c=11 v=83
13816 Par ch=2 c=11 v=84
13824 Par ch=2 c=11 v=85
13824 On ch=2 n=80 v=47
13836 Par ch=2 c=11 v=86
13844 Par ch=2 c=11 v=87
13852 Par ch=2 c=11 v=88
13862 On ch=2 n=80 v=0
13864 Par ch=2 c=11 v=89
13872 Par ch=2 c=11 v=90
13880 Par ch=2 c=11 v=91
13888 Par ch=2 c=11 v=92
13900 Par ch=2 c=11 v=93
13908 Par ch=2 c=11 v=94
13916 Par ch=2 c=11 v=95
13920 On ch=2 n=79 v=47
13928 Par ch=2 c=11 v=96
13936 Par ch=2 c=11 v=97
13944 Par ch=2 c=11 v=98
13952 Par ch=2 c=11 v=99
13964 Par ch=2 c=11 v=100
13972 Par ch=2 c=11 v=101
13980 Par ch=2 c=11 v=102
13992 Par ch=2 c=11 v=103
13997 On ch=2 n=79 v=0
14000 Par ch=2 c=11 v=104
14008 Par ch=2 c=11 v=105
14016 Par ch=2 c=11 v=106
14028 Par ch=2 c=11 v=107
14036 Par ch=2 c=11 v=108
14044 Par ch=2 c=11 v=109
14056 Par ch=2 c=11 v=110
14064 Par ch=2 c=11 v=111
14072 Par ch=2 c=11 v=112
14080 Par ch=2 c=11 v=113
14080 On ch=2 n=72 v=47
14092 Par ch=2 c=11 v=114
14100 Par ch=2 c=11 v=115
14101 On ch=2 n=72 v=0
14108 Par ch=2 c=11 v=116
14112 On ch=2 n=79 v=47
14120 Par ch=2 c=11 v=117
14128 Par ch=2 c=11 v=118
14133 On ch=2 n=79 v=0
14136 Par ch=2 c=11 v=119
14144 Par ch=2 c=11 v=120
14144 On ch=2 n=82 v=47
14156 Par ch=2 c=11 v=121
14164 Par ch=2 c=11 v=122
14165 On ch=2 n=82 v=0
14172 Par ch=2 c=11 v=123
14176 On ch=2 n=85 v=47
14184 Par ch=2 c=11 v=124
14192 Par ch=2 c=11 v=125
14197 On ch=2 n=85 v=0
14200 Par ch=2 c=11 v=126
14208 Par ch=2 c=11 v=64
14208 On ch=2 n=84 v=111
14239 On ch=2 n=84 v=0
14280 On ch=2 n=82 v=111
14296 On ch=2 n=82 v=0
14304 On ch=2 n=80 v=111
14335 On ch=2 n=80 v=0
14376 On ch=2 n=79 v=111
14392 On ch=2 n=79 v=0
14400 On ch=2 n=77 v=111
14431 On ch=2 n=77 v=0
14472 On ch=2 n=75 v=111
14488 On ch=2 n=75 v=0
14496 On ch=2 n=73 v=111
14527 On ch=2 n=73 v=0
14568 On ch=2 n=72 v=111
14584 On ch=2 n=72 v=0
14592 On ch=2 n=80 v=111
14623 On ch=2 n=80 v=0
14664 On ch=2 n=79 v=111
14680 On ch=2 n=79 v=0
14688 On ch=2 n=77 v=111
14719 On ch=2 n=77 v=0
14760 On ch=2 n=75 v=111
14776 On ch=2 n=75 v=0
14784 On ch=2 n=73 v=111
14815 On ch=2 n=73 v=0
14856 On ch=2 n=72 v=111
14872 On ch=2 n=72 v=0
14880 On ch=2 n=70 v=111
14911 On ch=2 n=70 v=0
14952 On ch=2 n=68 v=111
14968 On ch=2 n=68 v=0
14976 On ch=2 n=67 v=111
15130 On ch=2 n=67 v=0
15168 On ch=2 n=68 v=111
15245 On ch=2 n=68 v=0
15264 On ch=2 n=69 v=111
15341 On ch=2 n=69 v=0
15360 On ch=2 n=70 v=111
15514 On ch=2 n=70 v=0
15552 On ch=2 n=71 v=111
15560 On ch=2 n=71 v=0
15560 On ch=2 n=72 v=111
15568 On ch=2 n=72 v=0
15568 On ch=2 n=71 v=111
15576 On ch=2 n=71 v=0
15576 On ch=2 n=72 v=111
15584 On ch=2 n=72 v=0
15584 On ch=2 n=71 v=111
15592 On ch=2 n=71 v=0
15592 On ch=2 n=72 v=111
15600 On ch=2 n=72 v=0
15600 On ch=2 n=71 v=111
15608 On ch=2 n=71 v=0
15608 On ch=2 n=72 v=111
15616 On ch=2 n=72 v=0
15616 On ch=2 n=71 v=111
15624 On ch=2 n=71 v=0
15624 On ch=2 n=72 v=111
15632 On ch=2 n=72 v=0
15632 On ch=2 n=71 v=111
15640 On ch=2 n=71 v=0
15640 On ch=2 n=72 v=111
15648 On ch=2 n=72 v=0
15648 On ch=2 n=71 v=111
15656 On ch=2 n=71 v=0
15656 On ch=2 n=72 v=111
15664 On ch=2 n=72 v=0
15664 On ch=2 n=71 v=111
15672 On ch=2 n=71 v=0
15672 On ch=2 n=72 v=111
15680 On ch=2 n=72 v=0
15680 On ch=2 n=71 v=111
15688 On ch=2 n=71 v=0
15688 On ch=2 n=72 v=111
15696 On ch=2 n=72 v=0
15696 On ch=2 n=71 v=111
15704 On ch=2 n=71 v=0
15704 On ch=2 n=72 v=111
15712 On ch=2 n=72 v=0
15712 On ch=2 n=71 v=111
15720 On ch=2 n=71 v=0
15720 On ch=2 n=69 v=111
15728 On ch=2 n=69 v=0
15728 On ch=2 n=71 v=111
15744 On ch=2 n=71 v=0
15744 On ch=2 n=72 v=111
15782 On ch=2 n=72 v=0
16512 Par ch=2 c=11 v=64
16512 On ch=2 n=79 v=111
16524 Par ch=2 c=11 v=63
16532 Par ch=2 c=11 v=62
16540 Par ch=2 c=11 v=61
16548 Par ch=2 c=11 v=60
16560 Par ch=2 c=11 v=59
16568 Par ch=2 c=11 v=58
16576 Par ch=2 c=11 v=57
16584 Par ch=2 c=11 v=56
16596 Par ch=2 c=11 v=55
16604 Par ch=2 c=11 v=54
16612 Par ch=2 c=11 v=53
16620 Par ch=2 c=11 v=52
16632 Par ch=2 c=11 v=51
16640 Par ch=2 c=11 v=50
16648 Par ch=2 c=11 v=49
16656 Par ch=2 c=11 v=48
16668 Par ch=2 c=11 v=47
16676 Par ch=2 c=11 v=46
16684 Par ch=2 c=11 v=45
16692 Par ch=2 c=11 v=44
16704 Par ch=2 c=11 v=43
16712 Par ch=2 c=11 v=42
16720 Par ch=2 c=11 v=41
16728 Par ch=2 c=11 v=40
16740 Par ch=2 c=11 v=39
16748 Par ch=2 c=11 v=38
16756 Par ch=2 c=11 v=37
16764 Par ch=2 c=11 v=36
16776 Par ch=2 c=11 v=35
16784 Par ch=2 c=11 v=34
16792 Par ch=2 c=11 v=33
16800 On ch=2 n=79 v=0
16800 Par ch=2 c=11 v=32
16800 On ch=2 n=75 v=111
16804 Par ch=2 c=11 v=33
16808 Par ch=2 c=11 v=34
16812 Par ch=2 c=11 v=36
16816 Par ch=2 c=11 v=37
16820 Par ch=2 c=11 v=38
16824 Par ch=2 c=11 v=40
16828 Par ch=2 c=11 v=41
16832 Par ch=2 c=11 v=43
16836 Par ch=2 c=11 v=44
16840 Par ch=2 c=11 v=45
16844 Par ch=2 c=11 v=47
16848 Par ch=2 c=11 v=48
16852 Par ch=2 c=11 v=49
16856 Par ch=2 c=11 v=51
16860 Par ch=2 c=11 v=52
16864 Par ch=2 c=11 v=54
16868 Par ch=2 c=11 v=55
16872 Par ch=2 c=11 v=56
16876 Par ch=2 c=11 v=58
16880 Par ch=2 c=11 v=59
16884 Par ch=2 c=11 v=60
16888 Par ch=2 c=11 v=62
16892 Par ch=2 c=11 v=63
16896 On ch=2 n=75 v=0
16896 Par ch=2 c=11 v=64
16896 On ch=2 n=74 v=111
16900 Par ch=2 c=11 v=63
16904 Par ch=2 c=11 v=62
16908 Par ch=2 c=11 v=60
16912 Par ch=2 c=11 v=59
16916 Par ch=2 c=11 v=58
16920 Par ch=2 c=11 v=56
16924 Par ch=2 c=11 v=55
16928 Par ch=2 c=11 v=54
16932 Par ch=2 c=11 v=52
16936 Par ch=2 c=11 v=51
16940 Par ch=2 c=11 v=50
16944 Par ch=2 c=11 v=48
16948 Par ch=2 c=11 v=47
16952 Par ch=2 c=11 v=46
16956 Par ch=2 c=11 v=44
16960 Par ch=2 c=11 v=43
16964 Par ch=2 c=11 v=42
16968 Par ch=2 c=11 v=40
16972 Par ch=2 c=11 v=39
16976 Par ch=2 c=11 v=38
16980 Par ch=2 c=11 v=36
16984 Par ch=2 c=11 v=35
16988 Par ch=2 c=11 v=34
16992 On ch=2 n=74 v=0
16992 Par ch=2 c=11 v=32
16992 On ch=2 n=72 v=111
17069 On ch=2 n=72 v=0
17184 Par ch=2 c=11 v=65
17184 On ch=2 n=75 v=79
17188 Par ch=2 c=11 v=64
17192 Par ch=2 c=11 v=63
17196 Par ch=2 c=11 v=61
17200 Par ch=2 c=11 v=60
17204 Par ch=2 c=11 v=59
17208 Par ch=2 c=11 v=57
17212 Par ch=2 c=11 v=56
17216 Par ch=2 c=11 v=54
17220 Par ch=2 c=11 v=53
17222 On ch=2 n=75 v=0
17224 Par ch=2 c=11 v=52
17228 Par ch=2 c=11 v=50
17232 Par ch=2 c=11 v=49
17232 On ch=2 n=74 v=79
17236 Par ch=2 c=11 v=48
17240 Par ch=2 c=11 v=46
17244 Par ch=2 c=11 v=45
17248 Par ch=2 c=11 v=43
17252 Par ch=2 c=11 v=42
17256 Par ch=2 c=11 v=41
17260 Par ch=2 c=11 v=39
17264 Par ch=2 c=11 v=38
17268 Par ch=2 c=11 v=37
17270 On ch=2 n=74 v=0
17272 Par ch=2 c=11 v=35
17276 Par ch=2 c=11 v=34
17280 Par ch=2 c=11 v=32
17280 On ch=2 n=74 v=79
17328 On ch=2 n=74 v=0
17328 On ch=2 n=72 v=79
17366 On ch=2 n=72 v=0
17376 Par ch=2 c=11 v=64
17376 On ch=2 n=75 v=79
17384 Par ch=2 c=11 v=63
17388 Par ch=2 c=11 v=62
17392 Par ch=2 c=11 v=61
17396 Par ch=2 c=11 v=60
17400 Par ch=2 c=11 v=59
17404 Par ch=2 c=11 v=58
17408 Par ch=2 c=11 v=57
17412 Par ch=2 c=11 v=56
17414 On ch=2 n=75 v=0
17420 Par ch=2 c=11 v=55
17424 Par ch=2 c=11 v=54
17424 On ch=2 n=74 v=79
17428 Par ch=2 c=11 v=53
17432 Par ch=2 c=11 v=52
17436 Par ch=2 c=11 v=51
17440 Par ch=2 c=11 v=50
17444 Par ch=2 c=11 v=49
17448 Par ch=2 c=11 v=48
17456 Par ch=2 c=11 v=47
17460 Par ch=2 c=11 v=46
17462 On ch=2 n=74 v=0
17464 Par ch=2 c=11 v=45
17468 Par ch=2 c=11 v=44
17472 Par ch=2 c=11 v=43
17472 On ch=2 n=74 v=79
17476 Par ch=2 c=11 v=42
17480 Par ch=2 c=11 v=41
17484 Par ch=2 c=11 v=40
17492 Par ch=2 c=11 v=39
17496 Par ch=2 c=11 v=38
17500 Par ch=2 c=11 v=37
17504 Par ch=2 c=11 v=36
17508 Par ch=2 c=11 v=35
17512 Par ch=2 c=11 v=34
17516 Par ch=2 c=11 v=33
17520 On ch=2 n=74 v=0
17520 Par ch=2 c=11 v=32
17520 On ch=2 n=72 v=79
17558 On ch=2 n=72 v=0
17568 On ch=2 n=75 v=79
17606 On ch=2 n=75 v=0
17616 On ch=2 n=79 v=79
17654 On ch=2 n=79 v=0
17664 Par ch=2 c=11 v=64
17664 On ch=2 n=82 v=47
17672 Par ch=2 c=11 v=63
17676 Par ch=2 c=11 v=62
17684 Par ch=2 c=11 v=61
17688 Par ch=2 c=11 v=60
17696 Par ch=2 c=11 v=59
17700 Par ch=2 c=11 v=58
17708 Par ch=2 c=11 v=57
17712 Par ch=2 c=11 v=56
17720 Par ch=2 c=11 v=55
17724 Par ch=2 c=11 v=54
17732 Par ch=2 c=11 v=53
17736 Par ch=2 c=11 v=52
17744 Par ch=2 c=11 v=51
17748 Par ch=2 c=11 v=50
17756 Par ch=2 c=11 v=49
17760 On ch=2 n=82 v=0
17760 Par ch=2 c=11 v=48
17760 On ch=2 n=80 v=47
17875 On ch=2 n=80 v=0
17952 Par ch=2 c=11 v=48
17952 On ch=2 n=75 v=63
17960 Par ch=2 c=11 v=49
17964 Par ch=2 c=11 v=50
17972 Par ch=2 c=11 v=51
17976 Par ch=2 c=11 v=52
17984 Par ch=2 c=11 v=53
17988 Par ch=2 c=11 v=54
17992 Par ch=2 c=11 v=55
18000 Par ch=2 c=11 v=56
18004 Par ch=2 c=11 v=57
18012 Par ch=2 c=11 v=58
18016 Par ch=2 c=11 v=59
18020 Par ch=2 c=11 v=60
18028 Par ch=2 c=11 v=61
18032 Par ch=2 c=11 v=62
18040 Par ch=2 c=11 v=63
18044 Par ch=2 c=11 v=64
18048 On ch=2 n=75 v=0
18048 Par ch=2 c=11 v=64
18048 On ch=2 n=82 v=63
18056 Par ch=2 c=11 v=63
18060 Par ch=2 c=11 v=62
18068 Par ch=2 c=11 v=61
18072 Par ch=2 c=11 v=60
18080 Par ch=2 c=11 v=59
18084 Par ch=2 c=11 v=58
18092 Par ch=2 c=11 v=57
18096 Par ch=2 c=11 v=56
18104 Par ch=2 c=11 v=55
18108 Par ch=2 c=11 v=54
18116 Par ch=2 c=11 v=53
18120 Par ch=2 c=11 v=52
18128 Par ch=2 c=11 v=51
18132 Par ch=2 c=11 v=50
18140 Par ch=2 c=11 v=49
18144 On ch=2 n=82 v=0
18144 Par ch=2 c=11 v=48
18144 On ch=2 n=80 v=63
18221 On ch=2 n=80 v=0
18288 Par ch=2 c=11 v=64
18288 On ch=2 n=79 v=47
18288 On ch=2 n=67 v=47
18336 On ch=2 n=67 v=0
18336 On ch=2 n=79 v=0
18336 On ch=2 n=80 v=47
18336 On ch=2 n=68 v=47
18384 On ch=2 n=68 v=0
18384 On ch=2 n=80 v=0
18384 On ch=2 n=82 v=47
18384 On ch=2 n=70 v=47
18432 On ch=2 n=70 v=0
18432 On ch=2 n=82 v=0
18432 On ch=2 n=83 v=47
18432 On ch=2 n=71 v=47
19738 On ch=2 n=71 v=0
19738 On ch=2 n=83 v=0
19776 On ch=2 n=68 v=47
19776 On ch=2 n=80 v=47
19968 On ch=2 n=80 v=0
19968 On ch=2 n=68 v=0
19968 On ch=2 n=78 v=47
19968 On ch=2 n=66 v=47
20544 On ch=2 n=66 v=0
20544 On ch=2 n=78 v=0
20736 Par ch=2 c=11 v=64
22656 Par ch=2 c=11 v=64
22656 On ch=2 n=87 v=111
22664 Par ch=2 c=11 v=63
22668 Par ch=2 c=11 v=62
22676 Par ch=2 c=11 v=61
22680 Par ch=2 c=11 v=60
22688 Par ch=2 c=11 v=59
22692 Par ch=2 c=11 v=58
22700 Par ch=2 c=11 v=57
22704 Par ch=2 c=11 v=56
22712 Par ch=2 c=11 v=55
22716 Par ch=2 c=11 v=54
22724 Par ch=2 c=11 v=53
22728 Par ch=2 c=11 v=52
22736 Par ch=2 c=11 v=51
22740 Par ch=2 c=11 v=50
22748 Par ch=2 c=11 v=49
22752 On ch=2 n=87 v=0
22752 Par ch=2 c=11 v=48
22752 On ch=2 n=82 v=111
22906 On ch=2 n=82 v=0
22944 Par ch=2 c=11 v=48
22944 On ch=2 n=83 v=111
22944 On ch=2 n=95 v=111
22952 Par ch=2 c=11 v=49
22956 Par ch=2 c=11 v=50
22964 Par ch=2 c=11 v=51
22968 Par ch=2 c=11 v=52
22976 Par ch=2 c=11 v=53
22980 Par ch=2 c=11 v=54
22984 Par ch=2 c=11 v=55
22992 Par ch=2 c=11 v=56
22996 Par ch=2 c=11 v=57
23004 Par ch=2 c=11 v=58
23008 Par ch=2 c=11 v=59
23012 Par ch=2 c=11 v=60
23020 Par ch=2 c=11 v=61
23024 Par ch=2 c=11 v=62
23032 Par ch=2 c=11 v=63
23036 Par ch=2 c=11 v=64
23040 Par ch=2 c=11 v=64
23060 Par ch=2 c=11 v=63
23076 Par ch=2 c=11 v=62
23092 Par ch=2 c=11 v=61
23108 Par ch=2 c=11 v=60
23128 Par ch=2 c=11 v=59
23136 On ch=2 n=95 v=0
23136 On ch=2 n=83 v=0
23136 On ch=2 n=82 v=111
23136 On ch=2 n=94 v=111
23144 Par ch=2 c=11 v=58
23160 Par ch=2 c=11 v=57
23176 Par ch=2 c=11 v=56
23196 Par ch=2 c=11 v=55
23212 Par ch=2 c=11 v=54
23228 Par ch=2 c=11 v=53
23244 Par ch=2 c=11 v=52
23264 Par ch=2 c=11 v=51
23280 Par ch=2 c=11 v=50
23290 On ch=2 n=94 v=0
23290 On ch=2 n=82 v=0
23296 Par ch=2 c=11 v=49
23312 Par ch=2 c=11 v=48
23328 Par ch=2 c=11 v=48
23328 On ch=2 n=80 v=111
23328 On ch=2 n=92 v=111
23344 Par ch=2 c=11 v=49
23360 Par ch=2 c=11 v=50
23366 On ch=2 n=92 v=0
23366 On ch=2 n=80 v=0
23372 Par ch=2 c=11 v=51
23376 On ch=2 n=79 v=111
23376 On ch=2 n=91 v=111
23388 Par ch=2 c=11 v=52
23404 Par ch=2 c=11 v=53
23414 On ch=2 n=91 v=0
23414 On ch=2 n=79 v=0
23416 Par ch=2 c=11 v=54
23424 On ch=2 n=82 v=111
23424 On ch=2 n=94 v=111
23432 Par ch=2 c=11 v=55
23448 Par ch=2 c=11 v=56
23460 Par ch=2 c=11 v=57
23472 On ch=2 n=94 v=0
23472 On ch=2 n=82 v=0
23472 On ch=2 n=80 v=111
23472 On ch=2 n=92 v=111
23476 Par ch=2 c=11 v=58
23488 Par ch=2 c=11 v=59
23504 Par ch=2 c=11 v=60
23520 Par ch=2 c=11 v=61
23532 Par ch=2 c=11 v=62
23548 Par ch=2 c=11 v=63
23549 On ch=2 n=92 v=0
23549 On ch=2 n=80 v=0
23564 Par ch=2 c=11 v=64
23568 On ch=2 n=78 v=111
23568 On ch=2 n=90 v=111
23576 Par ch=2 c=11 v=65
23592 Par ch=2 c=11 v=66
23608 Par ch=2 c=11 v=67
23620 Par ch=2 c=11 v=68
23636 Par ch=2 c=11 v=69
23645 On ch=2 n=90 v=0
23645 On ch=2 n=78 v=0
23648 Par ch=2 c=11 v=70
23664 Par ch=2 c=11 v=71
23664 On ch=2 n=77 v=111
23664 On ch=2 n=89 v=111
23680 Par ch=2 c=11 v=72
23692 Par ch=2 c=11 v=73
23708 Par ch=2 c=11 v=74
23712 On ch=2 n=89 v=0
23712 On ch=2 n=77 v=0
23712 On ch=2 n=80 v=111
23712 On ch=2 n=92 v=111
23724 Par ch=2 c=11 v=75
23736 Par ch=2 c=11 v=76
23750 On ch=2 n=92 v=0
23750 On ch=2 n=80 v=0
23752 Par ch=2 c=11 v=77
23760 On ch=2 n=74 v=111
23760 On ch=2 n=86 v=111
23768 Par ch=2 c=11 v=78
23780 Par ch=2 c=11 v=79
23796 Par ch=2 c=11 v=80
23798 On ch=2 n=86 v=0
23798 On ch=2 n=74 v=0
23808 On ch=2 n=75 v=111
23808 On ch=2 n=87 v=111
23962 On ch=2 n=87 v=0
23962 On ch=2 n=75 v=0
24192 Par ch=2 c=11 v=64
25728 On ch=2 n=60 v=79
25920 On ch=2 n=60 v=0
25920 On ch=2 n=62 v=79
25951 On ch=2 n=62 v=0
26016 On ch=2 n=65 v=79
26047 On ch=2 n=65 v=0
26088 On ch=2 n=68 v=79
26104 On ch=2 n=68 v=0
26112 On ch=2 n=72 v=79
26237 On ch=2 n=72 v=0
26368 Par ch=2 c=11 v=64
26368 On ch=2 n=60 v=47
26372 Par ch=2 c=11 v=65
26376 Par ch=2 c=11 v=66
26380 Par ch=2 c=11 v=67
26384 Par ch=2 c=11 v=68
26388 Par ch=2 c=11 v=69
26389 On ch=2 n=60 v=0
26392 Par ch=2 c=11 v=70
26396 Par ch=2 c=11 v=71
26400 Par ch=2 c=11 v=72
26400 On ch=2 n=62 v=47
26404 Par ch=2 c=11 v=73
26408 Par ch=2 c=11 v=74
26412 Par ch=2 c=11 v=75
26416 Par ch=2 c=11 v=76
26420 Par ch=2 c=11 v=77
26421 On ch=2 n=62 v=0
26424 Par ch=2 c=11 v=78
26428 Par ch=2 c=11 v=79
26432 Par ch=2 c=11 v=80
26432 On ch=2 n=65 v=47
26436 Par ch=2 c=11 v=81
26440 Par ch=2 c=11 v=82
26444 Par ch=2 c=11 v=83
26448 Par ch=2 c=11 v=84
26452 Par ch=2 c=11 v=85
26453 On ch=2 n=65 v=0
26456 Par ch=2 c=11 v=86
26460 Par ch=2 c=11 v=87
26464 Par ch=2 c=11 v=88
26464 On ch=2 n=68 v=47
26468 Par ch=2 c=11 v=89
26472 Par ch=2 c=11 v=90
26476 Par ch=2 c=11 v=91
26480 Par ch=2 c=11 v=92
26484 Par ch=2 c=11 v=93
26485 On ch=2 n=68 v=0
26488 Par ch=2 c=11 v=94
26492 Par ch=2 c=11 v=95
26496 On ch=2 n=72 v=47
26517 On ch=2 n=72 v=0
26560 Par ch=2 c=11 v=64
26560 On ch=2 n=60 v=47
26564 Par ch=2 c=11 v=65
26568 Par ch=2 c=11 v=66
26572 Par ch=2 c=11 v=67
26576 Par ch=2 c=11 v=68
26580 Par ch=2 c=11 v=69
26581 On ch=2 n=60 v=0
26584 Par ch=2 c=11 v=70
26588 Par ch=2 c=11 v=71
26592 Par ch=2 c=11 v=72
26592 On ch=2 n=62 v=47
26596 Par ch=2 c=11 v=73
26600 Par ch=2 c=11 v=74
26604 Par ch=2 c=11 v=75
26608 Par ch=2 c=11 v=76
26612 Par ch=2 c=11 v=77
26613 On ch=2 n=62 v=0
26616 Par ch=2 c=11 v=78
26620 Par ch=2 c=11 v=79
26624 Par ch=2 c=11 v=80
26624 On ch=2 n=65 v=47
26628 Par ch=2 c=11 v=81
26632 Par ch=2 c=11 v=82
26636 Par ch=2 c=11 v=83
26640 Par ch=2 c=11 v=84
26644 Par ch=2 c=11 v=85
26645 On ch=2 n=65 v=0
26648 Par ch=2 c=11 v=86
26652 Par ch=2 c=11 v=87
26656 Par ch=2 c=11 v=88
26656 On ch=2 n=68 v=47
26660 Par ch=2 c=11 v=89
26664 Par ch=2 c=11 v=90
26668 Par ch=2 c=11 v=91
26672 Par ch=2 c=11 v=92
26676 Par ch=2 c=11 v=93
26677 On ch=2 n=68 v=0
26680 Par ch=2 c=11 v=94
26684 Par ch=2 c=11 v=95
26688 On ch=2 n=72 v=47
26709 On ch=2 n=72 v=0
26752 Par ch=2 c=11 v=64
26752 On ch=2 n=60 v=47
26756 Par ch=2 c=11 v=65
26760 Par ch=2 c=11 v=66
26764 Par ch=2 c=11 v=67
26768 Par ch=2 c=11 v=68
26772 Par ch=2 c=11 v=69
26773 On ch=2 n=60 v=0
26776 Par ch=2 c=11 v=70
26780 Par ch=2 c=11 v=71
26784 Par ch=2 c=11 v=72
26784 On ch=2 n=62 v=47
26788 Par ch=2 c=11 v=73
26792 Par ch=2 c=11 v=74
26796 Par ch=2 c=11 v=75
26800 Par ch=2 c=11 v=76
26804 Par ch=2 c=11 v=77
26805 On ch=2 n=62 v=0
26808 Par ch=2 c=11 v=78
26812 Par ch=2 c=11 v=79
26816 Par ch=2 c=11 v=80
26816 On ch=2 n=65 v=47
26820 Par ch=2 c=11 v=81
26824 Par ch=2 c=11 v=82
26828 Par ch=2 c=11 v=83
26832 Par ch=2 c=11 v=84
26836 Par ch=2 c=11 v=85
26837 On ch=2 n=65 v=0
26840 Par ch=2 c=11 v=86
26844 Par ch=2 c=11 v=87
26848 Par ch=2 c=11 v=88
26848 On ch=2 n=68 v=47
26852 Par ch=2 c=11 v=89
26856 Par ch=2 c=11 v=90
26860 Par ch=2 c=11 v=91
26864 Par ch=2 c=11 v=92
26868 Par ch=2 c=11 v=93
26869 On ch=2 n=68 v=0
26872 Par ch=2 c=11 v=94
26876 Par ch=2 c=11 v=95
26880 On ch=2 n=72 v=47
26911 On ch=2 n=72 v=0
26976 Par ch=2 c=11 v=64
27136 Par ch=2 c=11 v=64
27136 On ch=2 n=60 v=47
27140 Par ch=2 c=11 v=65
27144 Par ch=2 c=11 v=67
27148 Par ch=2 c=11 v=68
27152 Par ch=2 c=11 v=70
27156 Par ch=2 c=11 v=71
27157 On ch=2 n=60 v=0
27160 Par ch=2 c=11 v=73
27164 Par ch=2 c=11 v=74
27168 Par ch=2 c=11 v=76
27168 On ch=2 n=62 v=47
27172 Par ch=2 c=11 v=77
27176 Par ch=2 c=11 v=79
27180 Par ch=2 c=11 v=80
27184 Par ch=2 c=11 v=82
27188 Par ch=2 c=11 v=83
27189 On ch=2 n=62 v=0
27192 Par ch=2 c=11 v=85
27196 Par ch=2 c=11 v=86
27200 Par ch=2 c=11 v=88
27200 On ch=2 n=65 v=47
27204 Par ch=2 c=11 v=90
27208 Par ch=2 c=11 v=91
27212 Par ch=2 c=11 v=93
27216 Par ch=2 c=11 v=94
27220 Par ch=2 c=11 v=96
27221 On ch=2 n=65 v=0
27224 Par ch=2 c=11 v=97
27228 Par ch=2 c=11 v=99
27232 Par ch=2 c=11 v=100
27232 On ch=2 n=68 v=47
27236 Par ch=2 c=11 v=102
27240 Par ch=2 c=11 v=103
27244 Par ch=2 c=11 v=105
27248 Par ch=2 c=11 v=106
27252 Par ch=2 c=11 v=108
27253 On ch=2 n=68 v=0
27256 Par ch=2 c=11 v=109
27260 Par ch=2 c=11 v=111
27264 On ch=2 n=72 v=47
27295 On ch=2 n=72 v=0
27520 Par ch=2 c=11 v=64
27520 On ch=2 n=60 v=47
27524 Par ch=2 c=11 v=65
27528 Par ch=2 c=11 v=67
27532 Par ch=2 c=11 v=68
27536 Par ch=2 c=11 v=70
27540 Par ch=2 c=11 v=71
27541 On ch=2 n=60 v=0
27544 Par ch=2 c=11 v=73
27548 Par ch=2 c=11 v=74
27552 Par ch=2 c=11 v=76
27552 On ch=2 n=63 v=47
27556 Par ch=2 c=11 v=77
27560 Par ch=2 c=11 v=79
27564 Par ch=2 c=11 v=80
27568 Par ch=2 c=11 v=82
27572 Par ch=2 c=11 v=83
27573 On ch=2 n=63 v=0
27576 Par ch=2 c=11 v=85
27580 Par ch=2 c=11 v=86
27584 Par ch=2 c=11 v=88
27584 On ch=2 n=67 v=47
27588 Par ch=2 c=11 v=90
27592 Par ch=2 c=11 v=91
27596 Par ch=2 c=11 v=93
27600 Par ch=2 c=11 v=94
27604 Par ch=2 c=11 v=96
27605 On ch=2 n=67 v=0
27608 Par ch=2 c=11 v=97
27612 Par ch=2 c=11 v=99
27616 Par ch=2 c=11 v=100
27616 On ch=2 n=72 v=47
27620 Par ch=2 c=11 v=102
27624 Par ch=2 c=11 v=103
27628 Par ch=2 c=11 v=105
27632 Par ch=2 c=11 v=106
27636 Par ch=2 c=11 v=108
27637 On ch=2 n=72 v=0
27640 Par ch=2 c=11 v=109
27644 Par ch=2 c=11 v=111
27648 On ch=2 n=75 v=47
27696 Par ch=2 c=11 v=64
27955 On ch=2 n=75 v=0
28032 On ch=2 n=75 v=47
28080 Par ch=2 c=11 v=64
28088 Par ch=2 c=11 v=65
28092 Par ch=2 c=11 v=66
28096 Par ch=2 c=11 v=67
28104 Par ch=2 c=11 v=68
28108 Par ch=2 c=11 v=69
28112 Par ch=2 c=11 v=70
28120 Par ch=2 c=11 v=71
28124 Par ch=2 c=11 v=72
28128 Par ch=2 c=11 v=73
28136 Par ch=2 c=11 v=74
28140 Par ch=2 c=11 v=75
28144 Par ch=2 c=11 v=76
28152 Par ch=2 c=11 v=77
28156 Par ch=2 c=11 v=78
28160 Par ch=2 c=11 v=79
28168 Par ch=2 c=11 v=80
28172 Par ch=2 c=11 v=81
28176 Par ch=2 c=11 v=82
28184 Par ch=2 c=11 v=83
28188 Par ch=2 c=11 v=84
28192 Par ch=2 c=11 v=85
28200 Par ch=2 c=11 v=86
28204 Par ch=2 c=11 v=87
28208 Par ch=2 c=11 v=88
28216 Par ch=2 c=11 v=89
28220 Par ch=2 c=11 v=90
28224 Par ch=2 c=11 v=91
28232 Par ch=2 c=11 v=92
28236 Par ch=2 c=11 v=93
28240 Par ch=2 c=11 v=94
28248 Par ch=2 c=11 v=95
28252 Par ch=2 c=11 v=96
28256 Par ch=2 c=11 v=97
28264 Par ch=2 c=11 v=98
28268 Par ch=2 c=11 v=99
28272 Par ch=2 c=11 v=100
28280 Par ch=2 c=11 v=101
28284 Par ch=2 c=11 v=102
28288 Par ch=2 c=11 v=103
28296 Par ch=2 c=11 v=104
28300 Par ch=2 c=11 v=105
28304 Par ch=2 c=11 v=106
28312 Par ch=2 c=11 v=107
28316 Par ch=2 c=11 v=108
28320 Par ch=2 c=11 v=109
28328 Par ch=2 c=11 v=110
28332 Par ch=2 c=11 v=111
28336 Par ch=2 c=11 v=112
28344 Par ch=2 c=11 v=113
28348 Par ch=2 c=11 v=114
28352 Par ch=2 c=11 v=115
28360 Par ch=2 c=11 v=116
28364 Par ch=2 c=11 v=117
28368 Par ch=2 c=11 v=118
28376 Par ch=2 c=11 v=119
28380 Par ch=2 c=11 v=120
28384 Par ch=2 c=11 v=121
28392 Par ch=2 c=11 v=122
28396 Par ch=2 c=11 v=123
28400 Par ch=2 c=11 v=124
28408 Par ch=2 c=11 v=125
28412 Par ch=2 c=11 v=126
28454 On ch=2 n=75 v=0
28512 Par ch=2 c=11 v=64
29088 On ch=2 n=82 v=47
29119 On ch=2 n=82 v=0
29160 On ch=2 n=84 v=47
29176 On ch=2 n=84 v=0
29184 Par ch=2 c=11 v=64
29184 On ch=2 n=84 v=47
29200 Par ch=2 c=11 v=65
29216 Par ch=2 c=11 v=66
29232 Par ch=2 c=11 v=67
29248 Par ch=2 c=11 v=68
29261 On ch=2 n=84 v=0
29264 Par ch=2 c=11 v=69
29280 Par ch=2 c=11 v=70
29280 On ch=2 n=75 v=47
29296 Par ch=2 c=11 v=71
29311 On ch=2 n=75 v=0
29312 Par ch=2 c=11 v=72
29328 Par ch=2 c=11 v=73
29344 Par ch=2 c=11 v=74
29352 On ch=2 n=80 v=47
29360 Par ch=2 c=11 v=75
29368 On ch=2 n=80 v=0
29376 Par ch=2 c=11 v=76
29376 On ch=2 n=80 v=47
29388 Par ch=2 c=11 v=77
29404 Par ch=2 c=11 v=78
29420 Par ch=2 c=11 v=79
29436 Par ch=2 c=11 v=80
29452 Par ch=2 c=11 v=81
29453 On ch=2 n=80 v=0
29468 Par ch=2 c=11 v=82
29472 On ch=2 n=82 v=47
29484 Par ch=2 c=11 v=83
29500 Par ch=2 c=11 v=84
29503 On ch=2 n=82 v=0
29516 Par ch=2 c=11 v=85
29532 Par ch=2 c=11 v=86
29544 On ch=2 n=84 v=47
29548 Par ch=2 c=11 v=87
29560 On ch=2 n=84 v=0
29564 Par ch=2 c=11 v=88
29568 On ch=2 n=84 v=47
29576 Par ch=2 c=11 v=89
29592 Par ch=2 c=11 v=90
29608 Par ch=2 c=11 v=91
29624 Par ch=2 c=11 v=92
29640 Par ch=2 c=11 v=93
29645 On ch=2 n=84 v=0
29656 Par ch=2 c=11 v=94
29664 On ch=2 n=75 v=47
29672 Par ch=2 c=11 v=95
29685 On ch=2 n=75 v=0
29688 Par ch=2 c=11 v=96
29696 On ch=2 n=72 v=47
29704 Par ch=2 c=11 v=97
29717 On ch=2 n=72 v=0
29720 Par ch=2 c=11 v=98
29728 On ch=2 n=75 v=47
29736 Par ch=2 c=11 v=99
29749 On ch=2 n=75 v=0
29752 Par ch=2 c=11 v=100
29760 On ch=2 n=80 v=47
29764 Par ch=2 c=11 v=101
29780 Par ch=2 c=11 v=102
29796 Par ch=2 c=11 v=103
29812 Par ch=2 c=11 v=104
29828 Par ch=2 c=11 v=105
29837 On ch=2 n=80 v=0
29844 Par ch=2 c=11 v=106
29856 On ch=2 n=82 v=47
29860 Par ch=2 c=11 v=107
29876 Par ch=2 c=11 v=108
29877 On ch=2 n=82 v=0
29888 On ch=2 n=80 v=47
29892 Par ch=2 c=11 v=109
29908 Par ch=2 c=11 v=110
29909 On ch=2 n=80 v=0
29920 On ch=2 n=82 v=47
29924 Par ch=2 c=11 v=111
29940 Par ch=2 c=11 v=112
29941 On ch=2 n=82 v=0
29952 Par ch=2 c=11 v=64
29952 On ch=2 n=84 v=47
30106 On ch=2 n=84 v=0
30240 Par ch=2 c=11 v=64
30240 On ch=2 n=72 v=95
30248 Par ch=2 c=11 v=65
30252 Par ch=2 c=11 v=66
30260 Par ch=2 c=11 v=67
30261 On ch=2 n=72 v=0
30264 Par ch=2 c=11 v=68
30272 Par ch=2 c=11 v=69
30272 On ch=2 n=75 v=95
30276 Par ch=2 c=11 v=70
30280 Par ch=2 c=11 v=71
30288 Par ch=2 c=11 v=72
30292 Par ch=2 c=11 v=73
30293 On ch=2 n=75 v=0
30300 Par ch=2 c=11 v=74
30304 Par ch=2 c=11 v=75
30304 On ch=2 n=80 v=95
30308 Par ch=2 c=11 v=76
30316 Par ch=2 c=11 v=77
30320 Par ch=2 c=11 v=78
30325 On ch=2 n=80 v=0
30328 Par ch=2 c=11 v=79
30332 Par ch=2 c=11 v=80
30336 On ch=2 n=84 v=95
30490 On ch=2 n=84 v=0
30624 Par ch=2 c=11 v=64
30624 On ch=2 n=72 v=95
30632 Par ch=2 c=11 v=65
30636 Par ch=2 c=11 v=66
30644 Par ch=2 c=11 v=67
30645 On ch=2 n=72 v=0
30648 Par ch=2 c=11 v=68
30656 Par ch=2 c=11 v=69
30656 On ch=2 n=75 v=95
30660 Par ch=2 c=11 v=70
30668 Par ch=2 c=11 v=71
30672 Par ch=2 c=11 v=72
30677 On ch=2 n=75 v=0
30680 Par ch=2 c=11 v=73
30684 Par ch=2 c=11 v=74
30688 On ch=2 n=80 v=95
30692 Par ch=2 c=11 v=75
30696 Par ch=2 c=11 v=76
30704 Par ch=2 c=11 v=77
30708 Par ch=2 c=11 v=78
30709 On ch=2 n=80 v=0
30716 Par ch=2 c=11 v=79
30720 On ch=2 n=91 v=95
30768 Par ch=2 c=11 v=32
33792 Par ch=2 c=11 v=32
33804 Par ch=2 c=11 v=33
33816 Par ch=2 c=11 v=34
33828 Par ch=2 c=11 v=35
33840 Par ch=2 c=11 v=36
33852 Par ch=2 c=11 v=37
33864 Par ch=2 c=11 v=38
33876 Par ch=2 c=11 v=39
33888 Par ch=2 c=11 v=40
33900 Par ch=2 c=11 v=41
33912 Par ch=2 c=11 v=42
33920 Par ch=2 c=11 v=43
33932 Par ch=2 c=11 v=44
33944 Par ch=2 c=11 v=45
33956 Par ch=2 c=11 v=46
33968 Par ch=2 c=11 v=47
33980 Par ch=2 c=11 v=48
33992 Par ch=2 c=11 v=49
34004 Par ch=2 c=11 v=50
34016 Par ch=2 c=11 v=51
34028 Par ch=2 c=11 v=52
34040 Par ch=2 c=11 v=53
34048 Par ch=2 c=11 v=54
34060 Par ch=2 c=11 v=55
34072 Par ch=2 c=11 v=56
34084 Par ch=2 c=11 v=57
34096 Par ch=2 c=11 v=58
34108 Par ch=2 c=11 v=59
34120 Par ch=2 c=11 v=60
34132 Par ch=2 c=11 v=61
34144 Par ch=2 c=11 v=62
34156 Par ch=2 c=11 v=63
34168 Par ch=2 c=11 v=64
34253 On ch=2 n=91 v=0
34272 On ch=2 n=86 v=127
34349 On ch=2 n=86 v=0
34368 On ch=2 n=84 v=127
34445 On ch=2 n=84 v=0
34464 On ch=2 n=82 v=127
34541 On ch=2 n=82 v=0
34560 On ch=2 n=86 v=111
34608 Par ch=2 c=11 v=32
34620 Par ch=2 c=11 v=33
34632 Par ch=2 c=11 v=34
34640 Par ch=2 c=11 v=35
34652 Par ch=2 c=11 v=36
34660 Par ch=2 c=11 v=37
34672 Par ch=2 c=11 v=38
34680 Par ch=2 c=11 v=39
34692 Par ch=2 c=11 v=40
34700 Par ch=2 c=11 v=41
34712 Par ch=2 c=11 v=42
34720 Par ch=2 c=11 v=43
34732 Par ch=2 c=11 v=44
34744 Par ch=2 c=11 v=45
34752 Par ch=2 c=11 v=46
34764 Par ch=2 c=11 v=47
34772 Par ch=2 c=11 v=48
34784 Par ch=2 c=11 v=49
34792 Par ch=2 c=11 v=50
34804 Par ch=2 c=11 v=51
34812 Par ch=2 c=11 v=52
34824 Par ch=2 c=11 v=53
34832 Par ch=2 c=11 v=54
34844 Par ch=2 c=11 v=55
34856 Par ch=2 c=11 v=56
34864 Par ch=2 c=11 v=57
34876 Par ch=2 c=11 v=58
34884 Par ch=2 c=11 v=59
34896 Par ch=2 c=11 v=60
34904 Par ch=2 c=11 v=61
34916 Par ch=2 c=11 v=62
34924 Par ch=2 c=11 v=63
34936 Par ch=2 c=11 v=64
35021 On ch=2 n=86 v=0
35040 On ch=2 n=82 v=111
35117 On ch=2 n=82 v=0
35136 On ch=2 n=81 v=111
35213 On ch=2 n=81 v=0
35232 On ch=2 n=79 v=111
35309 On ch=2 n=79 v=0
35328 On ch=2 n=82 v=111
35376 Par ch=2 c=11 v=32
35388 Par ch=2 c=11 v=33
35400 Par ch=2 c=11 v=34
35408 Par ch=2 c=11 v=35
35420 Par ch=2 c=11 v=36
35428 Par ch=2 c=11 v=37
35440 Par ch=2 c=11 v=38
35448 Par ch=2 c=11 v=39
35460 Par ch=2 c=11 v=40
35468 Par ch=2 c=11 v=41
35480 Par ch=2 c=11 v=42
35488 Par ch=2 c=11 v=43
35500 Par ch=2 c=11 v=44
35512 Par ch=2 c=11 v=45
35520 Par ch=2 c=11 v=46
35532 Par ch=2 c=11 v=47
35540 Par ch=2 c=11 v=48
35552 Par ch=2 c=11 v=49
35560 Par ch=2 c=11 v=50
35572 Par ch=2 c=11 v=51
35580 Par ch=2 c=11 v=52
35592 Par ch=2 c=11 v=53
35600 Par ch=2 c=11 v=54
35612 Par ch=2 c=11 v=55
35624 Par ch=2 c=11 v=56
35632 Par ch=2 c=11 v=57
35644 Par ch=2 c=11 v=58
35652 Par ch=2 c=11 v=59
35664 Par ch=2 c=11 v=60
35672 Par ch=2 c=11 v=61
35684 Par ch=2 c=11 v=62
35692 Par ch=2 c=11 v=63
35704 Par ch=2 c=11 v=64
35789 On ch=2 n=82 v=0
35808 On ch=2 n=79 v=111
35808 On ch=2 n=67 v=111
35885 On ch=2 n=67 v=0
35885 On ch=2 n=79 v=0
35904 On ch=2 n=77 v=111
35904 On ch=2 n=65 v=111
35981 On ch=2 n=65 v=0
35981 On ch=2 n=77 v=0
36000 On ch=2 n=63 v=111
36000 On ch=2 n=75 v=111
36077 On ch=2 n=75 v=0
36077 On ch=2 n=63 v=0
36096 Par ch=2 c=11 v=64
36096 On ch=2 n=82 v=111
36096 On ch=2 n=70 v=111
36120 Par ch=2 c=11 v=63
36144 Par ch=2 c=11 v=62
36164 Par ch=2 c=11 v=61
36173 On ch=2 n=70 v=0
36173 On ch=2 n=82 v=0
36188 Par ch=2 c=11 v=60
36192 On ch=2 n=77 v=111
36192 On ch=2 n=65 v=111
36212 Par ch=2 c=11 v=59
36232 Par ch=2 c=11 v=58
36256 Par ch=2 c=11 v=57
36269 On ch=2 n=65 v=0
36269 On ch=2 n=77 v=0
36280 Par ch=2 c=11 v=56
36288 On ch=2 n=75 v=111
36288 On ch=2 n=63 v=111
36300 Par ch=2 c=11 v=55
36324 Par ch=2 c=11 v=54
36348 Par ch=2 c=11 v=53
36365 On ch=2 n=63 v=0
36365 On ch=2 n=75 v=0
36368 Par ch=2 c=11 v=52
36384 On ch=2 n=74 v=111
36384 On ch=2 n=62 v=111
36392 Par ch=2 c=11 v=51
36416 Par ch=2 c=11 v=50
36436 Par ch=2 c=11 v=49
36460 Par ch=2 c=11 v=48
36461 On ch=2 n=62 v=0
36461 On ch=2 n=74 v=0
36480 Par ch=2 c=11 v=64
36480 On ch=2 n=79 v=79
36576 On ch=2 n=79 v=0
36576 On ch=2 n=73 v=79
36653 On ch=2 n=73 v=0
36672 Par ch=2 c=11 v=64
36672 On ch=2 n=79 v=79
36692 Par ch=2 c=11 v=63
36708 Par ch=2 c=11 v=62
36724 Par ch=2 c=11 v=61
36740 Par ch=2 c=11 v=60
36760 Par ch=2 c=11 v=59
36768 On ch=2 n=79 v=0
36768 On ch=2 n=72 v=79
36776 Par ch=2 c=11 v=58
36792 Par ch=2 c=11 v=57
36808 Par ch=2 c=11 v=56
36828 Par ch=2 c=11 v=55
36844 Par ch=2 c=11 v=54
36845 On ch=2 n=72 v=0
36860 Par ch=2 c=11 v=53
36864 On ch=2 n=79 v=79
36876 Par ch=2 c=11 v=52
36896 Par ch=2 c=11 v=51
36912 Par ch=2 c=11 v=50
36928 Par ch=2 c=11 v=49
36944 Par ch=2 c=11 v=48
36960 On ch=2 n=79 v=0
36960 Par ch=2 c=11 v=47
36960 On ch=2 n=70 v=79
36980 Par ch=2 c=11 v=46
36996 Par ch=2 c=11 v=45
37012 Par ch=2 c=11 v=44
37028 Par ch=2 c=11 v=43
37037 On ch=2 n=70 v=0
37048 Par ch=2 c=11 v=42
37056 On ch=2 n=78 v=79
37064 Par ch=2 c=11 v=41
37080 Par ch=2 c=11 v=40
37096 Par ch=2 c=11 v=39
37116 Par ch=2 c=11 v=38
37132 Par ch=2 c=11 v=37
37148 Par ch=2 c=11 v=36
37152 On ch=2 n=78 v=0
37152 On ch=2 n=70 v=79
37164 Par ch=2 c=11 v=35
37184 Par ch=2 c=11 v=34
37200 Par ch=2 c=11 v=33
37216 Par ch=2 c=11 v=32
37229 On ch=2 n=70 v=0
37248 Par ch=2 c=11 v=64
37248 On ch=2 n=79 v=31
37248 On ch=2 n=67 v=31
37402 On ch=2 n=67 v=0
37402 On ch=2 n=79 v=0
37632 On ch=2 n=79 v=31
37632 On ch=2 n=67 v=31
37786 On ch=2 n=67 v=0
37786 On ch=2 n=79 v=0
38016 On ch=2 n=79 v=31
38016 On ch=2 n=67 v=31
38170 On ch=2 n=67 v=0
38170 On ch=2 n=79 v=0
38784 On ch=2 n=79 v=31
38784 On ch=2 n=67 v=31
38938 On ch=2 n=67 v=0
38938 On ch=2 n=79 v=0
39552 On ch=2 n=67 v=31
39706 On ch=2 n=67 v=0
39744 On ch=2 n=69 v=31
39821 On ch=2 n=69 v=0
39840 On ch=2 n=70 v=31
39871 On ch=2 n=70 v=0
39912 On ch=2 n=74 v=31
39928 On ch=2 n=74 v=0
39936 Par ch=2 c=11 v=64
39936 On ch=2 n=79 v=31
39944 Par ch=2 c=11 v=65
39948 Par ch=2 c=11 v=66
39956 Par ch=2 c=11 v=67
39960 Par ch=2 c=11 v=68
39968 Par ch=2 c=11 v=69
39972 Par ch=2 c=11 v=70
39976 Par ch=2 c=11 v=71
39984 Par ch=2 c=11 v=72
39988 Par ch=2 c=11 v=73
39996 Par ch=2 c=11 v=74
40000 Par ch=2 c=11 v=75
40004 Par ch=2 c=11 v=76
40012 Par ch=2 c=11 v=77
40016 Par ch=2 c=11 v=78
40024 Par ch=2 c=11 v=79
40028 Par ch=2 c=11 v=80
40032 Par ch=2 c=11 v=80
40040 Par ch=2 c=11 v=79
40044 Par ch=2 c=11 v=78
40052 Par ch=2 c=11 v=77
40056 Par ch=2 c=11 v=76
40064 Par ch=2 c=11 v=75
40068 Par ch=2 c=11 v=74
40076 Par ch=2 c=11 v=73
40080 Par ch=2 c=11 v=72
40088 Par ch=2 c=11 v=71
40090 On ch=2 n=79 v=0
40092 Par ch=2 c=11 v=70
40100 Par ch=2 c=11 v=69
40104 Par ch=2 c=11 v=68
40112 Par ch=2 c=11 v=67
40116 Par ch=2 c=11 v=66
40124 Par ch=2 c=11 v=65
40128 Par ch=2 c=11 v=64
41088 On ch=2 n=75 v=15
41280 On ch=2 n=75 v=0
41280 On ch=2 n=74 v=15
41318 On ch=2 n=74 v=0
41472 On ch=2 n=75 v=15
41616 On ch=2 n=74 v=15
41654 On ch=2 n=74 v=0
41664 On ch=2 n=75 v=0
48768 On ch=2 n=76 v=15
48768 On ch=2 n=71 v=15
49459 On ch=2 n=71 v=0
49459 On ch=2 n=76 v=0
50304 On ch=2 n=71 v=31
50304 On ch=2 n=83 v=31
51917 On ch=2 n=83 v=0
51917 On ch=2 n=71 v=0
56448 On ch=2 n=76 v=31
56640 On ch=2 n=76 v=0
56640 On ch=2 n=71 v=31
56794 On ch=2 n=71 v=0
56832 On ch=2 n=76 v=31
57024 On ch=2 n=76 v=0
57024 On ch=2 n=71 v=31
57523 On ch=2 n=71 v=0
63072 Par ch=2 c=11 v=64
63072 On ch=2 n=76 v=31
63092 Par ch=2 c=11 v=65
63108 Par ch=2 c=11 v=66
63124 Par ch=2 c=11 v=67
63140 Par ch=2 c=11 v=68
63160 Par ch=2 c=11 v=69
63176 Par ch=2 c=11 v=70
63192 Par ch=2 c=11 v=71
63208 Par ch=2 c=11 v=72
63228 Par ch=2 c=11 v=73
63244 Par ch=2 c=11 v=74
63260 Par ch=2 c=11 v=75
63264 On ch=2 n=76 v=0
63264 On ch=2 n=77 v=31
63276 Par ch=2 c=11 v=76
63296 Par ch=2 c=11 v=77
63312 On ch=2 n=77 v=0
63312 Par ch=2 c=11 v=78
63312 On ch=2 n=86 v=31
63328 Par ch=2 c=11 v=79
63344 Par ch=2 c=11 v=80
63360 On ch=2 n=86 v=0
63360 On ch=2 n=86 v=31
63456 On ch=2 n=86 v=0
63456 Par ch=2 c=11 v=80
63456 On ch=2 n=80 v=31
63472 Par ch=2 c=11 v=79
63488 Par ch=2 c=11 v=78
63504 Par ch=2 c=11 v=77
63520 Par ch=2 c=11 v=76
63536 Par ch=2 c=11 v=75
63552 Par ch=2 c=11 v=74
63568 Par ch=2 c=11 v=73
63584 Par ch=2 c=11 v=72
63600 Par ch=2 c=11 v=71
63616 Par ch=2 c=11 v=70
63632 Par ch=2 c=11 v=69
63648 On ch=2 n=80 v=0
63648 Par ch=2 c=11 v=68
63648 On ch=2 n=81 v=31
63664 Par ch=2 c=11 v=67
63680 Par ch=2 c=11 v=66
63696 Par ch=2 c=11 v=65
63712 Par ch=2 c=11 v=64
63725 On ch=2 n=81 v=0
63744 Par ch=2 c=11 v=64
63744 On ch=2 n=88 v=31
63756 Par ch=2 c=11 v=65
63768 Par ch=2 c=11 v=66
63780 Par ch=2 c=11 v=67
63792 Par ch=2 c=11 v=68
63804 Par ch=2 c=11 v=69
63816 Par ch=2 c=11 v=70
63828 Par ch=2 c=11 v=71
63840 On ch=2 n=88 v=0
63840 Par ch=2 c=11 v=72
63840 On ch=2 n=82 v=31
63852 Par ch=2 c=11 v=73
63864 Par ch=2 c=11 v=74
63872 Par ch=2 c=11 v=75
63884 Par ch=2 c=11 v=76
63896 Par ch=2 c=11 v=77
63908 Par ch=2 c=11 v=78
63920 Par ch=2 c=11 v=79
63932 Par ch=2 c=11 v=80
63944 Par ch=2 c=11 v=81
63956 Par ch=2 c=11 v=82
63968 Par ch=2 c=11 v=83
63980 Par ch=2 c=11 v=84
63992 Par ch=2 c=11 v=85
64000 Par ch=2 c=11 v=86
64012 Par ch=2 c=11 v=87
64024 Par ch=2 c=11 v=88
64032 On ch=2 n=82 v=0
64032 On ch=2 n=83 v=31
64036 Par ch=2 c=11 v=89
64048 Par ch=2 c=11 v=90
64060 Par ch=2 c=11 v=91
64072 Par ch=2 c=11 v=92
64084 Par ch=2 c=11 v=93
64096 Par ch=2 c=11 v=94
64108 Par ch=2 c=11 v=95
64109 On ch=2 n=83 v=0
64120 Par ch=2 c=11 v=96
64128 On ch=2 n=91 v=31
64282 On ch=2 n=91 v=0
64320 On ch=2 n=87 v=31
64336 Par ch=2 c=11 v=96
64352 Par ch=2 c=11 v=97
64368 Par ch=2 c=11 v=98
64384 Par ch=2 c=11 v=99
64400 Par ch=2 c=11 v=100
64416 Par ch=2 c=11 v=101
64432 Par ch=2 c=11 v=102
64435 On ch=2 n=87 v=0
64444 Par ch=2 c=11 v=103
64460 Par ch=2 c=11 v=104
64464 On ch=2 n=88 v=31
64476 Par ch=2 c=11 v=105
64492 Par ch=2 c=11 v=106
64502 On ch=2 n=88 v=0
64508 Par ch=2 c=11 v=107
64512 On ch=2 n=84 v=31
64524 Par ch=2 c=11 v=108
64540 Par ch=2 c=11 v=109
64550 On ch=2 n=84 v=0
64556 Par ch=2 c=11 v=110
64568 Par ch=2 c=11 v=111
64584 Par ch=2 c=11 v=112
64600 Par ch=2 c=11 v=113
64608 On ch=2 n=83 v=31
64616 Par ch=2 c=11 v=114
64632 Par ch=2 c=11 v=115
64648 Par ch=2 c=11 v=116
64664 Par ch=2 c=11 v=117
64680 Par ch=2 c=11 v=118
64692 Par ch=2 c=11 v=119
64708 Par ch=2 c=11 v=120
64724 Par ch=2 c=11 v=121
64740 Par ch=2 c=11 v=122
64756 Par ch=2 c=11 v=123
64760 On ch=2 n=83 v=0
64772 Par ch=2 c=11 v=124
64788 Par ch=2 c=11 v=125
64800 Par ch=2 c=11 v=126
64800 On ch=2 n=83 v=31
64877 On ch=2 n=83 v=0
64896 Par ch=2 c=11 v=64
64896 On ch=2 n=91 v=95
64973 On ch=2 n=91 v=0
64992 On ch=2 n=95 v=95
65030 On ch=2 n=95 v=0
65064 On ch=2 n=93 v=95
65083 On ch=2 n=93 v=0
65088 On ch=2 n=91 v=95
65203 On ch=2 n=91 v=0
65232 Par ch=2 c=11 v=64
65232 On ch=2 n=90 v=95
65260 Par ch=2 c=11 v=65
65284 Par ch=2 c=11 v=66
65312 Par ch=2 c=11 v=67
65318 On ch=2 n=90 v=0
65328 On ch=2 n=88 v=95
65336 Par ch=2 c=11 v=68
65360 Par ch=2 c=11 v=69
65366 On ch=2 n=88 v=0
65376 On ch=2 n=91 v=95
65388 Par ch=2 c=11 v=70
65407 On ch=2 n=91 v=0
65412 Par ch=2 c=11 v=71
65436 Par ch=2 c=11 v=72
65448 On ch=2 n=90 v=95
65464 On ch=2 n=90 v=0
65464 Par ch=2 c=11 v=73
65472 On ch=2 n=88 v=95
65488 Par ch=2 c=11 v=74
65512 Par ch=2 c=11 v=75
65540 Par ch=2 c=11 v=76
65564 Par ch=2 c=11 v=77
65566 On ch=2 n=88 v=0
65588 Par ch=2 c=11 v=78
65616 Par ch=2 c=11 v=79
65616 On ch=2 n=86 v=95
65640 Par ch=2 c=11 v=80
65647 On ch=2 n=86 v=0
65664 Par ch=2 c=11 v=64
65664 On ch=2 n=84 v=79
65894 On ch=2 n=84 v=0
65952 On ch=2 n=83 v=79
66029 On ch=2 n=83 v=0
66048 On ch=2 n=81 v=79
66202 On ch=2 n=81 v=0
66432 On ch=2 n=81 v=79
66662 On ch=2 n=81 v=0
66720 On ch=2 n=79 v=79
66797 On ch=2 n=79 v=0
66816 On ch=2 n=77 v=79
66970 On ch=2 n=77 v=0
67872 On ch=2 n=76 v=95
67903 On ch=2 n=76 v=0
67944 On ch=2 n=78 v=95
67960 On ch=2 n=78 v=0
67968 On ch=2 n=78 v=95
68045 On ch=2 n=78 v=0
68064 On ch=2 n=69 v=95
68095 On ch=2 n=69 v=0
68136 On ch=2 n=74 v=95
68152 On ch=2 n=74 v=0
68160 On ch=2 n=74 v=95
68237 On ch=2 n=74 v=0
68256 On ch=2 n=76 v=95
68277 On ch=2 n=76 v=0
68288 On ch=2 n=78 v=95
68309 On ch=2 n=78 v=0
68320 On ch=2 n=79 v=95
68341 On ch=2 n=79 v=0
68352 Par ch=2 c=11 v=64
68352 On ch=2 n=81 v=95
68376 Par ch=2 c=11 v=65
68400 Par ch=2 c=11 v=66
68420 Par ch=2 c=11 v=67
68429 On ch=2 n=81 v=0
68444 Par ch=2 c=11 v=68
68448 On ch=2 n=78 v=95
68468 Par ch=2 c=11 v=69
68469 On ch=2 n=78 v=0
68480 On ch=2 n=79 v=95
68488 Par ch=2 c=11 v=70
68501 On ch=2 n=79 v=0
68512 Par ch=2 c=11 v=71
68512 On ch=2 n=81 v=95
68533 On ch=2 n=81 v=0
68536 Par ch=2 c=11 v=72
68544 On ch=2 n=83 v=95
68556 Par ch=2 c=11 v=73
68580 Par ch=2 c=11 v=74
68604 Par ch=2 c=11 v=75
68621 On ch=2 n=83 v=0
68624 Par ch=2 c=11 v=76
68640 On ch=2 n=80 v=95
68648 Par ch=2 c=11 v=77
68661 On ch=2 n=80 v=0
68672 Par ch=2 c=11 v=78
68672 On ch=2 n=81 v=95
68692 Par ch=2 c=11 v=79
68693 On ch=2 n=81 v=0
68704 On ch=2 n=83 v=95
68716 Par ch=2 c=11 v=80
68725 On ch=2 n=83 v=0
68736 Par ch=2 c=11 v=64
68736 On ch=2 n=85 v=95
68784 Par ch=2 c=11 v=32
68890 On ch=2 n=85 v=0
69120 Par ch=2 c=11 v=64
69120 On ch=2 n=85 v=95
69144 Par ch=2 c=11 v=63
69158 On ch=2 n=85 v=0
69168 Par ch=2 c=11 v=62
69188 Par ch=2 c=11 v=61
69192 On ch=2 n=83 v=95
69211 On ch=2 n=83 v=0
69212 Par ch=2 c=11 v=60
69216 On ch=2 n=81 v=95
69236 Par ch=2 c=11 v=59
69254 On ch=2 n=81 v=0
69256 Par ch=2 c=11 v=58
69280 Par ch=2 c=11 v=57
69288 On ch=2 n=80 v=95
69304 Par ch=2 c=11 v=56
69307 On ch=2 n=80 v=0
69312 On ch=2 n=78 v=95
69324 Par ch=2 c=11 v=55
69348 Par ch=2 c=11 v=54
69350 On ch=2 n=78 v=0
69372 Par ch=2 c=11 v=53
69384 On ch=2 n=76 v=95
69392 Par ch=2 c=11 v=52
69403 On ch=2 n=76 v=0
69408 On ch=2 n=75 v=95
69416 Par ch=2 c=11 v=51
69440 Par ch=2 c=11 v=50
69446 On ch=2 n=75 v=0
69460 Par ch=2 c=11 v=49
69480 On ch=2 n=73 v=95
69484 Par ch=2 c=11 v=48
69499 On ch=2 n=73 v=0
69888 Par ch=2 c=11 v=64
69888 On ch=2 n=85 v=95
69912 Par ch=2 c=11 v=63
69926 On ch=2 n=85 v=0
69936 Par ch=2 c=11 v=62
69956 Par ch=2 c=11 v=61
69960 On ch=2 n=83 v=95
69979 On ch=2 n=83 v=0
69980 Par ch=2 c=11 v=60
69984 On ch=2 n=81 v=95
70004 Par ch=2 c=11 v=59
70022 On ch=2 n=81 v=0
70024 Par ch=2 c=11 v=58
70048 Par ch=2 c=11 v=57
70056 On ch=2 n=80 v=95
70072 Par ch=2 c=11 v=56
70075 On ch=2 n=80 v=0
70080 On ch=2 n=78 v=95
70092 Par ch=2 c=11 v=55
70116 Par ch=2 c=11 v=54
70118 On ch=2 n=78 v=0
70140 Par ch=2 c=11 v=53
70152 On ch=2 n=76 v=95
70160 Par ch=2 c=11 v=52
70171 On ch=2 n=76 v=0
70176 On ch=2 n=74 v=95
70184 Par ch=2 c=11 v=51
70208 Par ch=2 c=11 v=50
70214 On ch=2 n=74 v=0
70228 Par ch=2 c=11 v=49
70248 On ch=2 n=73 v=95
70252 Par ch=2 c=11 v=48
70267 On ch=2 n=73 v=0
70656 Par ch=2 c=11 v=64
70656 On ch=2 n=85 v=111
70704 Par ch=2 c=11 v=32
70810 On ch=2 n=85 v=0
71040 Par ch=2 c=11 v=64
71040 On ch=2 n=85 v=111
71088 Par ch=2 c=11 v=32
71194 On ch=2 n=85 v=0
71424 Par ch=2 c=11 v=64
71424 On ch=2 n=86 v=111
71520 On ch=2 n=86 v=0
71520 On ch=2 n=85 v=47
71674 On ch=2 n=85 v=0
71808 On ch=2 n=86 v=111
71904 On ch=2 n=86 v=0
71904 On ch=2 n=85 v=47
72058 On ch=2 n=85 v=0
72192 On ch=2 n=86 v=95
72288 On ch=2 n=86 v=0
72288 On ch=2 n=85 v=47
72442 On ch=2 n=85 v=0
72576 On ch=2 n=90 v=31
72730 On ch=2 n=90 v=0
72768 On ch=2 n=78 v=31
73267 On ch=2 n=78 v=0
73344 On ch=2 n=90 v=31
73498 On ch=2 n=90 v=0
73536 On ch=2 n=78 v=31
74035 On ch=2 n=78 v=0
74112 On ch=2 n=90 v=31
74266 On ch=2 n=90 v=0
74304 On ch=2 n=78 v=31
74458 On ch=2 n=78 v=0
74496 Par ch=2 c=11 v=64
74496 On ch=2 n=84 v=47
74512 Par ch=2 c=11 v=65
74524 Par ch=2 c=11 v=66
74536 Par ch=2 c=11 v=67
74548 Par ch=2 c=11 v=68
74560 Par ch=2 c=11 v=69
74572 Par ch=2 c=11 v=70
74584 Par ch=2 c=11 v=71
74596 Par ch=2 c=11 v=72
74608 Par ch=2 c=11 v=73
74620 Par ch=2 c=11 v=74
74632 Par ch=2 c=11 v=75
74644 Par ch=2 c=11 v=76
74656 Par ch=2 c=11 v=77
74668 Par ch=2 c=11 v=78
74680 Par ch=2 c=11 v=79
74688 On ch=2 n=84 v=0
74688 On ch=2 n=85 v=47
74692 Par ch=2 c=11 v=80
74704 Par ch=2 c=11 v=81
74716 Par ch=2 c=11 v=82
74728 Par ch=2 c=11 v=83
74740 Par ch=2 c=11 v=84
74752 Par ch=2 c=11 v=85
74768 Par ch=2 c=11 v=86
74780 Par ch=2 c=11 v=87
74792 Par ch=2 c=11 v=88
74804 Par ch=2 c=11 v=89
74816 Par ch=2 c=11 v=90
74828 Par ch=2 c=11 v=91
74840 Par ch=2 c=11 v=92
74842 On ch=2 n=85 v=0
74852 Par ch=2 c=11 v=93
74864 Par ch=2 c=11 v=94
74876 Par ch=2 c=11 v=95
74880 On ch=2 n=84 v=47
74888 Par ch=2 c=11 v=96
74900 Par ch=2 c=11 v=97
74912 Par ch=2 c=11 v=98
74924 Par ch=2 c=11 v=99
74936 Par ch=2 c=11 v=100
74948 Par ch=2 c=11 v=101
74960 Par ch=2 c=11 v=102
74972 Par ch=2 c=11 v=103
74984 Par ch=2 c=11 v=104
74996 Par ch=2 c=11 v=105
75008 Par ch=2 c=11 v=106
75024 Par ch=2 c=11 v=107
75036 Par ch=2 c=11 v=108
75048 Par ch=2 c=11 v=109
75060 Par ch=2 c=11 v=110
75072 On ch=2 n=84 v=0
75072 Par ch=2 c=11 v=111
75072 On ch=2 n=85 v=47
75084 Par ch=2 c=11 v=112
75096 Par ch=2 c=11 v=113
75108 Par ch=2 c=11 v=114
75120 Par ch=2 c=11 v=115
75132 Par ch=2 c=11 v=116
75144 Par ch=2 c=11 v=117
75156 Par ch=2 c=11 v=118
75168 Par ch=2 c=11 v=119
75180 Par ch=2 c=11 v=120
75192 Par ch=2 c=11 v=121
75204 Par ch=2 c=11 v=122
75216 Par ch=2 c=11 v=123
75228 Par ch=2 c=11 v=124
75240 Par ch=2 c=11 v=125
75252 Par ch=2 c=11 v=126
75264 On ch=2 n=85 v=0
75360 Par ch=2 c=11 v=64
75360 On ch=2 n=91 v=95
75477 On ch=2 n=91 v=0
75488 On ch=2 n=90 v=95
75509 On ch=2 n=90 v=0
75520 On ch=2 n=89 v=95
75541 On ch=2 n=89 v=0
75552 On ch=2 n=88 v=95
75573 On ch=2 n=88 v=0
75584 On ch=2 n=87 v=95
75605 On ch=2 n=87 v=0
75616 On ch=2 n=86 v=95
75637 On ch=2 n=86 v=0
75648 On ch=2 n=85 v=95
75669 On ch=2 n=85 v=0
75680 On ch=2 n=84 v=95
75701 On ch=2 n=84 v=0
75712 On ch=2 n=83 v=95
75733 On ch=2 n=83 v=0
75744 On ch=2 n=82 v=95
75765 On ch=2 n=82 v=0
75776 On ch=2 n=81 v=95
75797 On ch=2 n=81 v=0
75808 On ch=2 n=80 v=95
75829 On ch=2 n=80 v=0
75840 On ch=2 n=79 v=95
75879 On ch=2 n=79 v=0
76032 On ch=2 n=92 v=79
76063 On ch=2 n=92 v=0
76104 On ch=2 n=86 v=79
76128 On ch=2 n=86 v=0
76128 On ch=2 n=78 v=79
76166 On ch=2 n=78 v=0
76224 On ch=2 n=92 v=79
76255 On ch=2 n=92 v=0
76296 On ch=2 n=86 v=79
76320 On ch=2 n=86 v=0
76320 On ch=2 n=78 v=79
76358 On ch=2 n=78 v=0
76416 On ch=2 n=92 v=79
76447 On ch=2 n=92 v=0
76488 On ch=2 n=86 v=79
76512 On ch=2 n=86 v=0
76512 On ch=2 n=78 v=79
76550 On ch=2 n=78 v=0
76608 On ch=2 n=92 v=79
76639 On ch=2 n=92 v=0
76680 On ch=2 n=86 v=79
76704 On ch=2 n=86 v=0
76704 On ch=2 n=78 v=79
76742 On ch=2 n=78 v=0
77568 On ch=2 n=80 v=111
77664 On ch=2 n=80 v=0
77664 On ch=2 n=72 v=111
77856 On ch=2 n=72 v=0
77856 On ch=2 n=73 v=111
77933 On ch=2 n=73 v=0
77952 On ch=2 n=78 v=111
78048 On ch=2 n=78 v=0
78048 On ch=2 n=70 v=111
78240 On ch=2 n=70 v=0
78240 On ch=2 n=71 v=111
78317 On ch=2 n=71 v=0
78336 Par ch=2 c=11 v=64
78336 On ch=2 n=76 v=111
78360 Par ch=2 c=11 v=63
78384 Par ch=2 c=11 v=62
78404 Par ch=2 c=11 v=61
78428 Par ch=2 c=11 v=60
78432 On ch=2 n=76 v=0
78432 On ch=2 n=68 v=111
78452 Par ch=2 c=11 v=59
78472 Par ch=2 c=11 v=58
78496 Par ch=2 c=11 v=57
78520 Par ch=2 c=11 v=56
78540 Par ch=2 c=11 v=55
78564 Par ch=2 c=11 v=54
78588 Par ch=2 c=11 v=53
78608 Par ch=2 c=11 v=52
78624 On ch=2 n=68 v=0
78624 On ch=2 n=69 v=111
78632 Par ch=2 c=11 v=51
78656 Par ch=2 c=11 v=50
78676 Par ch=2 c=11 v=49
78700 Par ch=2 c=11 v=48
78701 On ch=2 n=69 v=0
78720 Par ch=2 c=11 v=47
78720 On ch=2 n=76 v=111
78744 Par ch=2 c=11 v=46
78768 Par ch=2 c=11 v=45
78788 Par ch=2 c=11 v=44
78812 Par ch=2 c=11 v=43
78816 On ch=2 n=76 v=0
78816 On ch=2 n=70 v=111
78836 Par ch=2 c=11 v=42
78856 Par ch=2 c=11 v=41
78880 Par ch=2 c=11 v=40
78904 Par ch=2 c=11 v=39
78924 Par ch=2 c=11 v=38
78948 Par ch=2 c=11 v=37
78972 Par ch=2 c=11 v=36
78992 Par ch=2 c=11 v=35
79008 On ch=2 n=70 v=0
79008 On ch=2 n=71 v=111
79016 Par ch=2 c=11 v=34
79040 Par ch=2 c=11 v=33
79060 Par ch=2 c=11 v=32
79085 On ch=2 n=71 v=0
79488 Par ch=2 c=11 v=64
79872 On ch=2 n=72 v=47
80064 On ch=2 n=72 v=0
80064 On ch=2 n=77 v=47
80160 On ch=2 n=77 v=0
80160 On ch=2 n=79 v=47
80256 On ch=2 n=79 v=0
80256 On ch=2 n=81 v=47
80352 On ch=2 n=81 v=0
80352 On ch=2 n=82 v=47
80448 On ch=2 n=82 v=0
80448 On ch=2 n=84 v=47
80544 On ch=2 n=84 v=0
80544 On ch=2 n=86 v=47
80592 On ch=2 n=86 v=0
80592 On ch=2 n=88 v=47
80630 On ch=2 n=88 v=0
80640 Par ch=2 c=11 v=64
80640 On ch=2 n=91 v=47
80644 Par ch=2 c=11 v=65
80648 Par ch=2 c=11 v=66
80652 Par ch=2 c=11 v=68
80656 Par ch=2 c=11 v=69
80660 Par ch=2 c=11 v=71
80664 Par ch=2 c=11 v=72
80668 Par ch=2 c=11 v=73
80672 Par ch=2 c=11 v=75
80676 Par ch=2 c=11 v=76
80680 Par ch=2 c=11 v=78
80684 Par ch=2 c=11 v=79
80688 Par ch=2 c=11 v=79
80692 Par ch=2 c=11 v=78
80696 Par ch=2 c=11 v=77
80700 Par ch=2 c=11 v=76
80704 Par ch=2 c=11 v=74
80708 Par ch=2 c=11 v=73
80712 Par ch=2 c=11 v=72
80716 Par ch=2 c=11 v=71
80720 Par ch=2 c=11 v=69
80724 Par ch=2 c=11 v=68
80728 Par ch=2 c=11 v=67
80732 Par ch=2 c=11 v=66
80736 On ch=2 n=91 v=0
80736 Par ch=2 c=11 v=64
80736 On ch=2 n=89 v=47
80890 On ch=2 n=89 v=0
80928 On ch=2 n=88 v=47
80966 On ch=2 n=88 v=0
80976 On ch=2 n=89 v=47
81014 On ch=2 n=89 v=0
81024 Par ch=2 c=11 v=64
81024 On ch=2 n=91 v=47
81028 Par ch=2 c=11 v=65
81032 Par ch=2 c=11 v=66
81036 Par ch=2 c=11 v=68
81040 Par ch=2 c=11 v=69
81044 Par ch=2 c=11 v=71
81048 Par ch=2 c=11 v=72
81052 Par ch=2 c=11 v=73
81056 Par ch=2 c=11 v=75
81060 Par ch=2 c=11 v=76
81064 Par ch=2 c=11 v=78
81068 Par ch=2 c=11 v=79
81072 On ch=2 n=91 v=0
81072 Par ch=2 c=11 v=79
81072 On ch=2 n=89 v=47
81076 Par ch=2 c=11 v=78
81080 Par ch=2 c=11 v=77
81084 Par ch=2 c=11 v=76
81088 Par ch=2 c=11 v=74
81092 Par ch=2 c=11 v=73
81096 Par ch=2 c=11 v=72
81100 Par ch=2 c=11 v=71
81104 Par ch=2 c=11 v=69
81108 Par ch=2 c=11 v=68
81110 On ch=2 n=89 v=0
81112 Par ch=2 c=11 v=67
81116 Par ch=2 c=11 v=66
81120 Par ch=2 c=11 v=64
81120 On ch=2 n=88 v=47
81168 On ch=2 n=88 v=0
81168 On ch=2 n=89 v=47
81206 On ch=2 n=89 v=0
81216 Par ch=2 c=11 v=64
81216 On ch=2 n=88 v=47
81220 Par ch=2 c=11 v=65
81224 Par ch=2 c=11 v=66
81228 Par ch=2 c=11 v=68
81232 Par ch=2 c=11 v=69
81236 Par ch=2 c=11 v=71
81240 Par ch=2 c=11 v=72
81244 Par ch=2 c=11 v=73
81248 Par ch=2 c=11 v=75
81252 Par ch=2 c=11 v=76
81256 Par ch=2 c=11 v=78
81260 Par ch=2 c=11 v=79
81264 On ch=2 n=88 v=0
81264 Par ch=2 c=11 v=79
81264 On ch=2 n=86 v=47
81268 Par ch=2 c=11 v=78
81272 Par ch=2 c=11 v=77
81276 Par ch=2 c=11 v=76
81280 Par ch=2 c=11 v=74
81284 Par ch=2 c=11 v=73
81288 Par ch=2 c=11 v=72
81292 Par ch=2 c=11 v=71
81296 Par ch=2 c=11 v=69
81300 Par ch=2 c=11 v=68
81302 On ch=2 n=86 v=0
81304 Par ch=2 c=11 v=67
81308 Par ch=2 c=11 v=66
81312 Par ch=2 c=11 v=64
81312 On ch=2 n=85 v=47
81360 On ch=2 n=85 v=0
81360 On ch=2 n=86 v=47
81398 On ch=2 n=86 v=0
81408 Par ch=2 c=11 v=64
81408 On ch=2 n=84 v=47
81412 Par ch=2 c=11 v=65
81416 Par ch=2 c=11 v=66
81420 Par ch=2 c=11 v=68
81424 Par ch=2 c=11 v=69
81428 Par ch=2 c=11 v=71
81432 Par ch=2 c=11 v=72
81436 Par ch=2 c=11 v=73
81440 Par ch=2 c=11 v=75
81444 Par ch=2 c=11 v=76
81448 Par ch=2 c=11 v=78
81452 Par ch=2 c=11 v=79
81456 Par ch=2 c=11 v=79
81460 Par ch=2 c=11 v=78
81464 Par ch=2 c=11 v=77
81468 Par ch=2 c=11 v=76
81472 Par ch=2 c=11 v=74
81476 Par ch=2 c=11 v=73
81480 Par ch=2 c=11 v=72
81484 Par ch=2 c=11 v=71
81488 Par ch=2 c=11 v=69
81492 Par ch=2 c=11 v=68
81496 Par ch=2 c=11 v=67
81500 Par ch=2 c=11 v=66
81504 On ch=2 n=84 v=0
81504 Par ch=2 c=11 v=64
81504 On ch=2 n=83 v=47
81658 On ch=2 n=83 v=0
81696 On ch=2 n=81 v=47
81744 On ch=2 n=81 v=0
81744 On ch=2 n=83 v=47
81782 On ch=2 n=83 v=0
81792 Par ch=2 c=11 v=64
81792 On ch=2 n=81 v=47
81796 Par ch=2 c=11 v=65
81800 Par ch=2 c=11 v=66
81804 Par ch=2 c=11 v=68
81808 Par ch=2 c=11 v=69
81812 Par ch=2 c=11 v=71
81816 Par ch=2 c=11 v=72
81820 Par ch=2 c=11 v=73
81824 Par ch=2 c=11 v=75
81828 Par ch=2 c=11 v=76
81832 Par ch=2 c=11 v=78
81836 Par ch=2 c=11 v=79
81840 Par ch=2 c=11 v=79
81844 Par ch=2 c=11 v=78
81848 Par ch=2 c=11 v=77
81852 Par ch=2 c=11 v=76
81856 Par ch=2 c=11 v=74
81860 Par ch=2 c=11 v=73
81864 Par ch=2 c=11 v=72
81868 Par ch=2 c=11 v=71
81872 Par ch=2 c=11 v=69
81876 Par ch=2 c=11 v=68
81880 Par ch=2 c=11 v=67
81884 Par ch=2 c=11 v=66
81888 On ch=2 n=81 v=0
81888 Par ch=2 c=11 v=64
81888 On ch=2 n=79 v=47
82042 On ch=2 n=79 v=0
82080 On ch=2 n=89 v=47
82128 On ch=2 n=89 v=0
82128 On ch=2 n=88 v=47
82166 On ch=2 n=88 v=0
82176 Par ch=2 c=11 v=64
82176 On ch=2 n=88 v=47
82180 Par ch=2 c=11 v=65
82184 Par ch=2 c=11 v=66
82188 Par ch=2 c=11 v=68
82192 Par ch=2 c=11 v=69
82196 Par ch=2 c=11 v=71
82200 Par ch=2 c=11 v=72
82204 Par ch=2 c=11 v=73
82208 Par ch=2 c=11 v=75
82212 Par ch=2 c=11 v=76
82216 Par ch=2 c=11 v=78
82220 Par ch=2 c=11 v=79
82224 Par ch=2 c=11 v=79
82228 Par ch=2 c=11 v=78
82232 Par ch=2 c=11 v=77
82236 Par ch=2 c=11 v=76
82240 Par ch=2 c=11 v=74
82244 Par ch=2 c=11 v=73
82248 Par ch=2 c=11 v=72
82252 Par ch=2 c=11 v=71
82256 Par ch=2 c=11 v=69
82260 Par ch=2 c=11 v=68
82264 Par ch=2 c=11 v=67
82268 Par ch=2 c=11 v=66
82272 On ch=2 n=88 v=0
82272 Par ch=2 c=11 v=64
82272 On ch=2 n=86 v=47
82368 On ch=2 n=71 v=47
82426 On ch=2 n=86 v=0
82464 On ch=2 n=85 v=47
82512 On ch=2 n=85 v=0
82512 On ch=2 n=86 v=47
82560 On ch=2 n=86 v=0
82560 Par ch=2 c=11 v=64
82560 On ch=2 n=85 v=47
82576 Par ch=2 c=11 v=65
82592 Par ch=2 c=11 v=66
82608 On ch=2 n=85 v=0
82608 Par ch=2 c=11 v=67
82608 On ch=2 n=86 v=47
82620 Par ch=2 c=11 v=68
82636 Par ch=2 c=11 v=69
82652 Par ch=2 c=11 v=70
82656 On ch=2 n=71 v=0
82656 On ch=2 n=72 v=47
82668 Par ch=2 c=11 v=71
82680 Par ch=2 c=11 v=72
82696 Par ch=2 c=11 v=73
82704 On ch=2 n=86 v=0
82704 On ch=2 n=88 v=47
82712 Par ch=2 c=11 v=74
82728 Par ch=2 c=11 v=75
82740 Par ch=2 c=11 v=76
82752 On ch=2 n=72 v=0
82752 On ch=2 n=73 v=47
82756 Par ch=2 c=11 v=77
82772 Par ch=2 c=11 v=78
82788 Par ch=2 c=11 v=79
82800 On ch=2 n=88 v=0
82800 Par ch=2 c=11 v=80
82800 On ch=2 n=89 v=47
82848 On ch=2 n=89 v=0
82848 On ch=2 n=73 v=0
82848 On ch=2 n=74 v=47
82848 On ch=2 n=93 v=47
82896 On ch=2 n=93 v=0
82896 On ch=2 n=91 v=47
82925 On ch=2 n=74 v=0
82944 On ch=2 n=91 v=0
82944 Par ch=2 c=11 v=80
82944 On ch=2 n=76 v=47
82944 On ch=2 n=88 v=47
82948 Par ch=2 c=11 v=81
82952 Par ch=2 c=11 v=82
82956 Par ch=2 c=11 v=84
82960 Par ch=2 c=11 v=85
82964 Par ch=2 c=11 v=87
82968 Par ch=2 c=11 v=88
82972 Par ch=2 c=11 v=89
82976 Par ch=2 c=11 v=91
82980 Par ch=2 c=11 v=92
82984 Par ch=2 c=11 v=94
82988 Par ch=2 c=11 v=95
82992 Par ch=2 c=11 v=95
82996 Par ch=2 c=11 v=93
83000 Par ch=2 c=11 v=90
83004 Par ch=2 c=11 v=88
83008 Par ch=2 c=11 v=85
83012 Par ch=2 c=11 v=83
83016 Par ch=2 c=11 v=80
83020 Par ch=2 c=11 v=77
83024 Par ch=2 c=11 v=75
83028 Par ch=2 c=11 v=72
83032 Par ch=2 c=11 v=70
83036 Par ch=2 c=11 v=67
83040 On ch=2 n=76 v=0
83040 Par ch=2 c=11 v=64
83136 On ch=2 n=88 v=0
83136 On ch=2 n=79 v=47
83213 On ch=2 n=79 v=0
84000 On ch=2 n=91 v=47
84038 On ch=2 n=91 v=0
84072 On ch=2 n=89 v=47
84088 On ch=2 n=89 v=0
84096 Par ch=2 c=11 v=64
84096 On ch=2 n=65 v=47
84096 On ch=2 n=62 v=47
84096 On ch=2 n=88 v=47
84100 Par ch=2 c=11 v=65
84104 Par ch=2 c=11 v=66
84108 Par ch=2 c=11 v=68
84112 Par ch=2 c=11 v=69
84116 Par ch=2 c=11 v=71
84120 Par ch=2 c=11 v=72
84124 Par ch=2 c=11 v=73
84128 Par ch=2 c=11 v=75
84132 Par ch=2 c=11 v=76
84136 Par ch=2 c=11 v=78
84140 Par ch=2 c=11 v=79
84144 Par ch=2 c=11 v=79
84148 Par ch=2 c=11 v=78
84152 Par ch=2 c=11 v=77
84156 Par ch=2 c=11 v=76
84160 Par ch=2 c=11 v=74
84164 Par ch=2 c=11 v=73
84168 Par ch=2 c=11 v=72
84172 Par ch=2 c=11 v=71
84176 Par ch=2 c=11 v=69
84180 Par ch=2 c=11 v=68
84184 Par ch=2 c=11 v=67
84188 Par ch=2 c=11 v=66
84192 On ch=2 n=88 v=0
84192 On ch=2 n=86 v=47
84346 On ch=2 n=86 v=0
84384 Par ch=2 c=11 v=64
84384 On ch=2 n=89 v=47
84388 Par ch=2 c=11 v=65
84392 Par ch=2 c=11 v=66
84396 Par ch=2 c=11 v=68
84400 Par ch=2 c=11 v=69
84404 Par ch=2 c=11 v=71
84408 Par ch=2 c=11 v=72
84412 Par ch=2 c=11 v=73
84416 Par ch=2 c=11 v=75
84420 Par ch=2 c=11 v=76
84422 On ch=2 n=89 v=0
84424 Par ch=2 c=11 v=78
84428 Par ch=2 c=11 v=79
84432 Par ch=2 c=11 v=79
84436 Par ch=2 c=11 v=78
84440 Par ch=2 c=11 v=77
84444 Par ch=2 c=11 v=76
84448 Par ch=2 c=11 v=74
84452 Par ch=2 c=11 v=73
84456 Par ch=2 c=11 v=72
84456 On ch=2 n=88 v=47
84460 Par ch=2 c=11 v=71
84464 Par ch=2 c=11 v=69
84468 Par ch=2 c=11 v=68
84472 On ch=2 n=88 v=0
84472 Par ch=2 c=11 v=67
84476 Par ch=2 c=11 v=66
84480 On ch=2 n=88 v=47
84528 On ch=2 n=88 v=0
84528 On ch=2 n=86 v=47
84566 On ch=2 n=86 v=0
84576 Par ch=2 c=11 v=64
84576 On ch=2 n=89 v=47
84580 Par ch=2 c=11 v=65
84584 Par ch=2 c=11 v=66
84588 Par ch=2 c=11 v=68
84592 Par ch=2 c=11 v=69
84596 Par ch=2 c=11 v=71
84600 Par ch=2 c=11 v=72
84604 Par ch=2 c=11 v=73
84608 Par ch=2 c=11 v=75
84612 Par ch=2 c=11 v=76
84614 On ch=2 n=89 v=0
84616 Par ch=2 c=11 v=78
84620 Par ch=2 c=11 v=79
84624 Par ch=2 c=11 v=79
84628 Par ch=2 c=11 v=78
84632 Par ch=2 c=11 v=77
84634 On ch=2 n=62 v=0
84634 On ch=2 n=65 v=0
84636 Par ch=2 c=11 v=76
84640 Par ch=2 c=11 v=74
84644 Par ch=2 c=11 v=73
84648 Par ch=2 c=11 v=72
84648 On ch=2 n=88 v=47
84652 Par ch=2 c=11 v=71
84656 Par ch=2 c=11 v=69
84660 Par ch=2 c=11 v=68
84664 On ch=2 n=88 v=0
84664 Par ch=2 c=11 v=67
84668 Par ch=2 c=11 v=66
84672 On ch=2 n=88 v=47
84720 On ch=2 n=88 v=0
84720 On ch=2 n=86 v=47
84758 On ch=2 n=86 v=0
84768 Par ch=2 c=11 v=64
84768 On ch=2 n=90 v=47
84772 Par ch=2 c=11 v=65
84776 Par ch=2 c=11 v=66
84780 Par ch=2 c=11 v=68
84784 Par ch=2 c=11 v=69
84788 Par ch=2 c=11 v=71
84792 Par ch=2 c=11 v=72
84796 Par ch=2 c=11 v=73
84800 Par ch=2 c=11 v=75
84804 Par ch=2 c=11 v=76
84806 On ch=2 n=90 v=0
84808 Par ch=2 c=11 v=78
84812 Par ch=2 c=11 v=79
84816 Par ch=2 c=11 v=79
84820 Par ch=2 c=11 v=78
84824 Par ch=2 c=11 v=77
84828 Par ch=2 c=11 v=76
84832 Par ch=2 c=11 v=74
84836 Par ch=2 c=11 v=73
84840 Par ch=2 c=11 v=72
84840 On ch=2 n=89 v=47
84844 Par ch=2 c=11 v=71
84848 Par ch=2 c=11 v=69
84852 Par ch=2 c=11 v=68
84856 On ch=2 n=89 v=0
84856 Par ch=2 c=11 v=67
84860 Par ch=2 c=11 v=66
84864 Par ch=2 c=11 v=64
84864 On ch=2 n=86 v=47
84912 On ch=2 n=86 v=0
84912 On ch=2 n=87 v=47
84950 On ch=2 n=87 v=0
84960 On ch=2 n=78 v=47
84991 On ch=2 n=78 v=0
85032 On ch=2 n=80 v=47
85048 On ch=2 n=80 v=0
85056 On ch=2 n=82 v=47
85152 On ch=2 n=82 v=0
85152 On ch=2 n=85 v=47
85183 On ch=2 n=85 v=0
85224 On ch=2 n=83 v=47
85240 On ch=2 n=83 v=0
85248 On ch=2 n=70 v=47
85248 On ch=2 n=82 v=47
85344 On ch=2 n=82 v=0
85344 On ch=2 n=70 v=0
85344 On ch=2 n=75 v=47
85344 On ch=2 n=63 v=47
85498 On ch=2 n=63 v=0
85632 On ch=2 n=73 v=47
85632 On ch=2 n=85 v=47
85728 On ch=2 n=85 v=0
85728 On ch=2 n=73 v=0
85728 On ch=2 n=71 v=47
85728 On ch=2 n=83 v=47
85805 On ch=2 n=83 v=0
85805 On ch=2 n=71 v=0
86112 On ch=2 n=75 v=0
86208 On ch=2 n=71 v=47
86496 On ch=2 n=71 v=0
86496 On ch=2 n=69 v=47
86592 On ch=2 n=69 v=0
86592 On ch=2 n=70 v=47
86688 On ch=2 n=70 v=0
86688 On ch=2 n=66 v=47
86784 On ch=2 n=66 v=0
86784 On ch=2 n=78 v=47
86861 On ch=2 n=78 v=0
88992 On ch=2 n=66 v=47
89069 On ch=2 n=66 v=0
89088 On ch=2 n=78 v=47
89088 On ch=2 n=75 v=47
89126 On ch=2 n=75 v=0
89126 On ch=2 n=78 v=0
89136 On ch=2 n=80 v=47
89136 On ch=2 n=76 v=47
89174 On ch=2 n=76 v=0
89174 On ch=2 n=80 v=0
89184 On ch=2 n=78 v=47
89184 On ch=2 n=75 v=47
89222 On ch=2 n=75 v=0
89222 On ch=2 n=78 v=0
89232 On ch=2 n=76 v=47
89232 On ch=2 n=73 v=47
89270 On ch=2 n=73 v=0
89270 On ch=2 n=76 v=0
89280 On ch=2 n=75 v=47
89280 On ch=2 n=71 v=47
89318 On ch=2 n=71 v=0
89318 On ch=2 n=75 v=0
89328 On ch=2 n=76 v=47
89328 On ch=2 n=73 v=47
89366 On ch=2 n=73 v=0
89366 On ch=2 n=76 v=0
89376 On ch=2 n=75 v=47
89376 On ch=2 n=71 v=47
89414 On ch=2 n=71 v=0
89414 On ch=2 n=75 v=0
89424 On ch=2 n=73 v=47
89424 On ch=2 n=66 v=47
89462 On ch=2 n=66 v=0
89462 On ch=2 n=73 v=0
89472 On ch=2 n=71 v=47
89472 On ch=2 n=63 v=47
89568 On ch=2 n=63 v=0
89568 On ch=2 n=71 v=0
89568 On ch=2 n=66 v=47
89894 On ch=2 n=66 v=0
90048 On ch=2 n=75 v=47
90048 On ch=2 n=71 v=47
90240 On ch=2 n=71 v=0
90240 On ch=2 n=75 v=0
90240 On ch=2 n=78 v=47
90240 On ch=2 n=75 v=47
90271 On ch=2 n=75 v=0
90271 On ch=2 n=78 v=0
90432 On ch=2 n=66 v=47
90586 On ch=2 n=66 v=0
90720 On ch=2 n=64 v=47
90720 On ch=2 n=73 v=47
90720 On ch=2 n=66 v=47
90751 On ch=2 n=73 v=0
90751 On ch=2 n=64 v=0
90792 On ch=2 n=63 v=47
90792 On ch=2 n=71 v=47
90808 On ch=2 n=71 v=0
90808 On ch=2 n=63 v=0
90816 On ch=2 n=63 v=47
90816 On ch=2 n=71 v=47
90854 On ch=2 n=66 v=0
90893 On ch=2 n=71 v=0
90893 On ch=2 n=63 v=0
90912 Par ch=2 c=11 v=64
90912 On ch=2 n=64 v=47
90912 On ch=2 n=73 v=47
90912 On ch=2 n=66 v=47
90943 On ch=2 n=73 v=0
90943 On ch=2 n=64 v=0
90944 Par ch=2 c=11 v=63
90972 Par ch=2 c=11 v=62
90984 On ch=2 n=63 v=47
90984 On ch=2 n=71 v=47
91000 On ch=2 n=71 v=0
91000 On ch=2 n=63 v=0
91000 Par ch=2 c=11 v=61
91008 On ch=2 n=63 v=47
91008 On ch=2 n=71 v=47
91028 Par ch=2 c=11 v=60
91046 On ch=2 n=66 v=0
91056 Par ch=2 c=11 v=59
91084 Par ch=2 c=11 v=58
91085 On ch=2 n=71 v=0
91085 On ch=2 n=63 v=0
91104 On ch=2 n=66 v=47
91104 On ch=2 n=64 v=47
91104 On ch=2 n=73 v=47
91112 Par ch=2 c=11 v=57
91135 On ch=2 n=73 v=0
91135 On ch=2 n=64 v=0
91140 Par ch=2 c=11 v=56
91168 Par ch=2 c=11 v=55
91176 On ch=2 n=63 v=47
91176 On ch=2 n=71 v=47
91192 On ch=2 n=71 v=0
91192 On ch=2 n=63 v=0
91196 Par ch=2 c=11 v=54
91200 On ch=2 n=63 v=47
91200 On ch=2 n=71 v=47
91224 Par ch=2 c=11 v=53
91238 On ch=2 n=66 v=0
91252 Par ch=2 c=11 v=52
91277 On ch=2 n=71 v=0
91277 On ch=2 n=63 v=0
91280 Par ch=2 c=11 v=51
91296 On ch=2 n=64 v=47
91296 On ch=2 n=73 v=47
91296 On ch=2 n=66 v=47
91308 Par ch=2 c=11 v=50
91327 On ch=2 n=73 v=0
91327 On ch=2 n=64 v=0
91336 Par ch=2 c=11 v=49
91364 Par ch=2 c=11 v=48
91368 On ch=2 n=63 v=47
91368 On ch=2 n=71 v=47
91384 On ch=2 n=71 v=0
91384 On ch=2 n=63 v=0
91392 On ch=2 n=63 v=47
91392 On ch=2 n=71 v=47
91546 On ch=2 n=71 v=0
91546 On ch=2 n=63 v=0
91546 On ch=2 n=66 v=0
91680 Par ch=2 c=11 v=64
91680 On ch=2 n=66 v=31
91680 On ch=2 n=64 v=31
91680 On ch=2 n=73 v=31
91711 On ch=2 n=73 v=0
91711 On ch=2 n=64 v=0
91752 On ch=2 n=63 v=31
91752 On ch=2 n=71 v=31
91768 On ch=2 n=71 v=0
91768 On ch=2 n=63 v=0
91776 On ch=2 n=63 v=31
91776 On ch=2 n=71 v=31
91905 On ch=2 n=71 v=0
91930 On ch=2 n=63 v=0
91930 On ch=2 n=66 v=0
92064 On ch=2 n=64 v=31
92064 On ch=2 n=73 v=31
92064 On ch=2 n=66 v=31
92095 On ch=2 n=73 v=0
92095 On ch=2 n=64 v=0
92136 On ch=2 n=63 v=31
92136 On ch=2 n=71 v=31
92152 On ch=2 n=71 v=0
92152 On ch=2 n=63 v=0
92160 On ch=2 n=63 v=31
92160 On ch=2 n=71 v=31
92198 On ch=2 n=71 v=0
92198 On ch=2 n=63 v=0
92198 On ch=2 n=66 v=0
94464 On ch=2 n=66 v=111
94488 On ch=2 n=66 v=0
94488 On ch=2 n=65 v=111
94512 On ch=2 n=65 v=0
94512 On ch=2 n=66 v=111
94536 On ch=2 n=66 v=0
94536 On ch=2 n=68 v=111
94560 On ch=2 n=68 v=0
94560 On ch=2 n=69 v=111
94598 On ch=2 n=69 v=0
95232 On ch=2 n=75 v=111
95263 On ch=2 n=75 v=0
95304 On ch=2 n=70 v=111
95320 On ch=2 n=70 v=0
95328 On ch=2 n=63 v=111
95359 On ch=2 n=63 v=0
100704 On ch=2 n=75 v=47
100781 On ch=2 n=75 v=0
100848 On ch=2 n=75 v=47
100879 On ch=2 n=75 v=0
100896 On ch=2 n=77 v=47
100917 On ch=2 n=77 v=0
100928 On ch=2 n=75 v=47
100949 On ch=2 n=75 v=0
100960 On ch=2 n=74 v=47
100981 On ch=2 n=74 v=0
100992 On ch=2 n=75 v=47
101023 On ch=2 n=75 v=0
101064 On ch=2 n=70 v=47
101080 On ch=2 n=70 v=0
101088 On ch=2 n=63 v=47
101119 On ch=2 n=63 v=0
102000 On ch=2 n=77 v=47
102031 On ch=2 n=77 v=0
102048 On ch=2 n=78 v=47
102069 On ch=2 n=78 v=0
102080 On ch=2 n=77 v=47
102101 On ch=2 n=77 v=0
102112 On ch=2 n=75 v=47
102133 On ch=2 n=75 v=0
102144 On ch=2 n=73 v=47
102175 On ch=2 n=73 v=0
102216 On ch=2 n=77 v=47
102232 On ch=2 n=77 v=0
102240 On ch=2 n=82 v=47
102394 On ch=2 n=82 v=0
102432 On ch=2 n=81 v=47
102453 On ch=2 n=81 v=0
102464 On ch=2 n=82 v=47
102485 On ch=2 n=82 v=0
102496 On ch=2 n=84 v=47
102517 On ch=2 n=84 v=0
102528 On ch=2 n=77 v=47
102559 On ch=2 n=77 v=0
102600 On ch=2 n=80 v=47
102616 On ch=2 n=80 v=0
102624 On ch=2 n=85 v=47
102778 On ch=2 n=85 v=0
102816 On ch=2 n=84 v=47
102837 On ch=2 n=84 v=0
102848 On ch=2 n=85 v=47
102869 On ch=2 n=85 v=0
102880 On ch=2 n=87 v=47
102901 On ch=2 n=87 v=0
102912 On ch=2 n=80 v=47
102943 On ch=2 n=80 v=0
102984 On ch=2 n=85 v=47
103000 On ch=2 n=85 v=0
103008 On ch=2 n=92 v=47
103046 On ch=2 n=92 v=0
104448 On ch=2 n=83 v=47
104602 On ch=2 n=83 v=0
104704 On ch=2 n=83 v=47
104725 On ch=2 n=83 v=0
104736 On ch=2 n=85 v=47
104757 On ch=2 n=85 v=0
104768 On ch=2 n=83 v=47
104789 On ch=2 n=83 v=0
104800 On ch=2 n=82 v=47
104821 On ch=2 n=82 v=0
104832 On ch=2 n=83 v=47
104863 On ch=2 n=83 v=0
104904 On ch=2 n=80 v=47
104920 On ch=2 n=80 v=0
104928 On ch=2 n=71 v=47
104959 On ch=2 n=71 v=0
107904 On ch=2 n=70 v=127
107935 On ch=2 n=70 v=0
107976 On ch=2 n=73 v=127
107992 On ch=2 n=73 v=0
108000 On ch=2 n=78 v=127
108154 On ch=2 n=78 v=0
108960 Par ch=2 c=11 v=64
108960 On ch=2 n=77 v=47
108972 Par ch=2 c=11 v=65
108980 Par ch=2 c=11 v=66
108992 Par ch=2 c=11 v=67
109000 Par ch=2 c=11 v=68
109012 Par ch=2 c=11 v=69
109020 Par ch=2 c=11 v=70
109032 Par ch=2 c=11 v=71
109037 On ch=2 n=77 v=0
109040 Par ch=2 c=11 v=72
109052 Par ch=2 c=11 v=73
109056 On ch=2 n=79 v=47
109060 Par ch=2 c=11 v=74
109068 Par ch=2 c=11 v=75
109080 Par ch=2 c=11 v=76
109088 Par ch=2 c=11 v=77
109100 Par ch=2 c=11 v=78
109108 Par ch=2 c=11 v=79
109120 Par ch=2 c=11 v=80
109128 Par ch=2 c=11 v=81
109133 On ch=2 n=79 v=0
109140 Par ch=2 c=11 v=82
109148 Par ch=2 c=11 v=83
109152 On ch=2 n=82 v=47
109156 Par ch=2 c=11 v=84
109168 Par ch=2 c=11 v=85
109176 Par ch=2 c=11 v=86
109188 Par ch=2 c=11 v=87
109196 Par ch=2 c=11 v=88
109208 Par ch=2 c=11 v=89
109216 Par ch=2 c=11 v=90
109228 Par ch=2 c=11 v=91
109229 On ch=2 n=82 v=0
109236 Par ch=2 c=11 v=92
109248 Par ch=2 c=11 v=93
109248 On ch=2 n=87 v=47
109256 Par ch=2 c=11 v=94
109264 Par ch=2 c=11 v=95
109276 Par ch=2 c=11 v=96
109284 Par ch=2 c=11 v=97
109296 Par ch=2 c=11 v=98
109304 Par ch=2 c=11 v=99
109316 Par ch=2 c=11 v=100
109324 Par ch=2 c=11 v=101
109325 On ch=2 n=87 v=0
109336 Par ch=2 c=11 v=102
109344 Par ch=2 c=11 v=103
109344 On ch=2 n=86 v=47
109352 Par ch=2 c=11 v=104
109364 Par ch=2 c=11 v=105
109372 Par ch=2 c=11 v=106
109375 On ch=2 n=86 v=0
109384 Par ch=2 c=11 v=107
109392 Par ch=2 c=11 v=108
109404 Par ch=2 c=11 v=109
109412 Par ch=2 c=11 v=110
109416 On ch=2 n=84 v=47
109424 Par ch=2 c=11 v=111
109432 On ch=2 n=84 v=0
109432 Par ch=2 c=11 v=112
109440 On ch=2 n=82 v=47
109594 On ch=2 n=82 v=0
109728 Par ch=2 c=11 v=64
109728 On ch=2 n=82 v=111
109805 On ch=2 n=82 v=0
109824 On ch=2 n=94 v=111
109978 On ch=2 n=94 v=0
110016 On ch=2 n=87 v=111
110285 On ch=2 n=87 v=0
110304 On ch=2 n=89 v=111
110381 On ch=2 n=89 v=0
110400 On ch=2 n=91 v=111
110477 On ch=2 n=91 v=0
110496 On ch=2 n=92 v=111
110573 On ch=2 n=92 v=0
110592 Par ch=2 c=11 v=64
110592 On ch=2 n=82 v=47
110600 Par ch=2 c=11 v=65
110608 Par ch=2 c=11 v=66
110612 Par ch=2 c=11 v=67
110620 Par ch=2 c=11 v=68
110624 Par ch=2 c=11 v=69
110632 Par ch=2 c=11 v=70
110636 Par ch=2 c=11 v=71
110644 Par ch=2 c=11 v=72
110648 Par ch=2 c=11 v=73
110656 Par ch=2 c=11 v=74
110660 Par ch=2 c=11 v=75
110668 Par ch=2 c=11 v=76
110672 Par ch=2 c=11 v=77
110680 Par ch=2 c=11 v=78
110684 Par ch=2 c=11 v=79
110692 Par ch=2 c=11 v=80
110696 Par ch=2 c=11 v=81
110704 Par ch=2 c=11 v=82
110708 Par ch=2 c=11 v=83
110716 Par ch=2 c=11 v=84
110720 Par ch=2 c=11 v=85
110728 Par ch=2 c=11 v=86
110736 Par ch=2 c=11 v=87
110740 Par ch=2 c=11 v=88
110748 Par ch=2 c=11 v=89
110752 Par ch=2 c=11 v=90
110760 Par ch=2 c=11 v=91
110764 Par ch=2 c=11 v=92
110772 Par ch=2 c=11 v=93
110776 Par ch=2 c=11 v=94
110784 Par ch=2 c=11 v=95
110788 Par ch=2 c=11 v=96
110796 Par ch=2 c=11 v=97
110800 Par ch=2 c=11 v=98
110808 Par ch=2 c=11 v=99
110812 Par ch=2 c=11 v=100
110820 Par ch=2 c=11 v=101
110824 Par ch=2 c=11 v=102
110832 Par ch=2 c=11 v=103
110836 Par ch=2 c=11 v=104
110844 Par ch=2 c=11 v=105
110848 Par ch=2 c=11 v=106
110856 Par ch=2 c=11 v=107
110864 Par ch=2 c=11 v=108
110868 Par ch=2 c=11 v=109
110876 Par ch=2 c=11 v=110
110880 Par ch=2 c=11 v=111
110888 Par ch=2 c=11 v=112
110892 Par ch=2 c=11 v=113
110900 Par ch=2 c=11 v=114
110904 Par ch=2 c=11 v=115
110912 Par ch=2 c=11 v=116
110916 Par ch=2 c=11 v=117
110924 Par ch=2 c=11 v=118
110928 Par ch=2 c=11 v=119
110936 Par ch=2 c=11 v=120
110940 Par ch=2 c=11 v=121
110948 Par ch=2 c=11 v=122
110952 Par ch=2 c=11 v=123
110960 Par ch=2 c=11 v=124
110964 Par ch=2 c=11 v=125
110972 Par ch=2 c=11 v=126
111053 On ch=2 n=82 v=0
111072 Par ch=2 c=11 v=64
111072 On ch=2 n=80 v=111
111110 On ch=2 n=80 v=0
111120 On ch=2 n=78 v=111
111158 On ch=2 n=78 v=0
111168 On ch=2 n=77 v=111
111245 On ch=2 n=77 v=0
111264 On ch=2 n=75 v=111
111341 On ch=2 n=75 v=0
111360 On ch=2 n=83 v=111
111412 Par ch=2 c=11 v=16
111416 Par ch=2 c=11 v=17
111420 Par ch=2 c=11 v=19
111424 Par ch=2 c=11 v=20
111428 Par ch=2 c=11 v=21
111432 Par ch=2 c=11 v=23
111436 Par ch=2 c=11 v=24
111440 Par ch=2 c=11 v=26
111444 Par ch=2 c=11 v=27
111448 Par ch=2 c=11 v=28
111452 Par ch=2 c=11 v=30
111456 Par ch=2 c=11 v=31
111460 Par ch=2 c=11 v=33
111464 Par ch=2 c=11 v=34
111468 Par ch=2 c=11 v=35
111472 Par ch=2 c=11 v=37
111476 Par ch=2 c=11 v=38
111480 Par ch=2 c=11 v=40
111484 Par ch=2 c=11 v=41
111488 Par ch=2 c=11 v=42
111492 Par ch=2 c=11 v=44
111496 Par ch=2 c=11 v=45
111500 Par ch=2 c=11 v=46
111504 Par ch=2 c=11 v=48
111508 Par ch=2 c=11 v=49
111512 Par ch=2 c=11 v=51
111516 Par ch=2 c=11 v=52
111520 Par ch=2 c=11 v=53
111524 Par ch=2 c=11 v=55
111528 Par ch=2 c=11 v=56
111532 Par ch=2 c=11 v=58
111536 Par ch=2 c=11 v=59
111540 Par ch=2 c=11 v=60
111544 Par ch=2 c=11 v=62
111548 Par ch=2 c=11 v=63
111552 Par ch=2 c=11 v=64
111590 On ch=2 n=83 v=0
111600 On ch=2 n=87 v=111
111638 On ch=2 n=87 v=0
111648 On ch=2 n=85 v=111
111686 On ch=2 n=85 v=0
111696 On ch=2 n=83 v=111
111734 On ch=2 n=83 v=0
111744 On ch=2 n=81 v=111
112051 On ch=2 n=81 v=0
112224 On ch=2 n=90 v=111
112245 On ch=2 n=90 v=0
112256 On ch=2 n=89 v=111
112277 On ch=2 n=89 v=0
112288 On ch=2 n=87 v=111
112309 On ch=2 n=87 v=0
112320 On ch=2 n=87 v=111
112341 On ch=2 n=87 v=0
112352 On ch=2 n=85 v=111
112373 On ch=2 n=85 v=0
112384 On ch=2 n=83 v=111
112405 On ch=2 n=83 v=0
112416 On ch=2 n=82 v=111
112437 On ch=2 n=82 v=0
112448 On ch=2 n=78 v=111
112469 On ch=2 n=78 v=0
112480 On ch=2 n=82 v=111
112493 On ch=2 n=82 v=0
112512 On ch=2 n=81 v=111
112819 On ch=2 n=81 v=0
112992 On ch=2 n=90 v=111
113018 On ch=2 n=90 v=0
113024 On ch=2 n=89 v=111
113050 On ch=2 n=89 v=0
113056 On ch=2 n=87 v=111
113082 On ch=2 n=87 v=0
113088 On ch=2 n=87 v=111
113114 On ch=2 n=87 v=0
113120 On ch=2 n=85 v=111
113146 On ch=2 n=85 v=0
113152 On ch=2 n=83 v=111
113178 On ch=2 n=83 v=0
113184 On ch=2 n=82 v=111
113210 On ch=2 n=82 v=0
113216 On ch=2 n=78 v=111
113242 On ch=2 n=78 v=0
113248 On ch=2 n=82 v=111
113261 On ch=2 n=82 v=0
113280 On ch=2 n=83 v=127
113376 On ch=2 n=83 v=0
113376 On ch=2 n=82 v=127
113472 On ch=2 n=82 v=0
113472 On ch=2 n=81 v=127
113568 On ch=2 n=81 v=0
113568 On ch=2 n=82 v=127
113645 On ch=2 n=82 v=0
113664 Par ch=2 c=11 v=64
113664 On ch=2 n=85 v=127
113688 Par ch=2 c=11 v=65
113712 Par ch=2 c=11 v=66
113732 Par ch=2 c=11 v=67
113756 Par ch=2 c=11 v=68
113760 On ch=2 n=85 v=0
113760 On ch=2 n=84 v=127
113780 Par ch=2 c=11 v=69
113800 Par ch=2 c=11 v=70
113824 Par ch=2 c=11 v=71
113848 Par ch=2 c=11 v=72
113856 On ch=2 n=84 v=0
113856 On ch=2 n=83 v=127
113868 Par ch=2 c=11 v=73
113892 Par ch=2 c=11 v=74
113916 Par ch=2 c=11 v=75
113936 Par ch=2 c=11 v=76
113952 On ch=2 n=83 v=0
113952 On ch=2 n=84 v=127
113960 Par ch=2 c=11 v=77
113984 Par ch=2 c=11 v=78
114004 Par ch=2 c=11 v=79
114028 Par ch=2 c=11 v=80
114029 On ch=2 n=84 v=0
114048 Par ch=2 c=11 v=64
114048 On ch=2 n=87 v=111
114144 On ch=2 n=87 v=0
114144 On ch=2 n=86 v=111
114288 On ch=2 n=86 v=0
114288 On ch=2 n=90 v=111
114336 On ch=2 n=90 v=0
114336 On ch=2 n=89 v=111
114384 On ch=2 n=89 v=0
114384 On ch=2 n=80 v=111
114422 On ch=2 n=80 v=0
114432 On ch=2 n=80 v=111
114480 On ch=2 n=80 v=0
114480 On ch=2 n=79 v=111
114528 On ch=2 n=79 v=0
114528 On ch=2 n=89 v=111
114576 On ch=2 n=89 v=0
114576 On ch=2 n=87 v=111
114624 On ch=2 n=87 v=0
114624 On ch=2 n=78 v=111
114672 On ch=2 n=78 v=0
114672 On ch=2 n=86 v=111
114720 On ch=2 n=86 v=0
114720 On ch=2 n=85 v=111
114768 On ch=2 n=85 v=0
114768 On ch=2 n=77 v=111
114806 On ch=2 n=77 v=0
114816 On ch=2 n=77 v=111
114864 On ch=2 n=77 v=0
114864 On ch=2 n=76 v=111
114912 On ch=2 n=76 v=0
114912 On ch=2 n=84 v=111
114960 On ch=2 n=84 v=0
114960 On ch=2 n=83 v=111
115008 On ch=2 n=83 v=0
115008 On ch=2 n=75 v=111
115056 On ch=2 n=75 v=0
115056 On ch=2 n=74 v=111
115104 On ch=2 n=74 v=0
115104 On ch=2 n=82 v=111
115152 On ch=2 n=82 v=0
115152 On ch=2 n=81 v=111
115190 On ch=2 n=81 v=0
115200 Par ch=2 c=11 v=64
115200 On ch=2 n=80 v=111
115212 Par ch=2 c=11 v=63
115224 Par ch=2 c=11 v=62
115236 Par ch=2 c=11 v=61
115248 Par ch=2 c=11 v=60
115260 Par ch=2 c=11 v=59
115268 Par ch=2 c=11 v=58
115280 Par ch=2 c=11 v=57
115292 Par ch=2 c=11 v=56
115304 Par ch=2 c=11 v=55
115316 Par ch=2 c=11 v=54
115328 Par ch=2 c=11 v=53
115336 Par ch=2 c=11 v=52
115348 Par ch=2 c=11 v=51
115360 Par ch=2 c=11 v=50
115372 Par ch=2 c=11 v=49
115384 Par ch=2 c=11 v=48
115392 On ch=2 n=80 v=0
115392 Par ch=2 c=11 v=47
115392 On ch=2 n=78 v=111
115404 Par ch=2 c=11 v=46
115416 Par ch=2 c=11 v=45
115428 Par ch=2 c=11 v=44
115440 Par ch=2 c=11 v=43
115452 Par ch=2 c=11 v=42
115460 Par ch=2 c=11 v=41
115472 Par ch=2 c=11 v=40
115484 Par ch=2 c=11 v=39
115496 Par ch=2 c=11 v=38
115508 Par ch=2 c=11 v=37
115520 Par ch=2 c=11 v=36
115528 Par ch=2 c=11 v=35
115540 Par ch=2 c=11 v=34
115552 Par ch=2 c=11 v=33
115564 Par ch=2 c=11 v=32
115584 Par ch=2 c=11 v=32
115596 Par ch=2 c=11 v=33
115608 Par ch=2 c=11 v=34
115620 Par ch=2 c=11 v=35
115632 Par ch=2 c=11 v=36
115644 Par ch=2 c=11 v=37
115656 Par ch=2 c=11 v=38
115660 On ch=2 n=78 v=0
115668 Par ch=2 c=11 v=39
115680 Par ch=2 c=11 v=40
115680 On ch=2 n=76 v=111
115692 Par ch=2 c=11 v=41
115704 Par ch=2 c=11 v=42
115712 Par ch=2 c=11 v=43
115724 Par ch=2 c=11 v=44
115736 Par ch=2 c=11 v=45
115748 Par ch=2 c=11 v=46
115756 On ch=2 n=76 v=0
115760 Par ch=2 c=11 v=47
115772 Par ch=2 c=11 v=48
115776 On ch=2 n=75 v=111
115784 Par ch=2 c=11 v=49
115796 Par ch=2 c=11 v=50
115808 Par ch=2 c=11 v=51
115820 Par ch=2 c=11 v=52
115832 Par ch=2 c=11 v=53
115840 Par ch=2 c=11 v=54
115852 On ch=2 n=75 v=0
115852 Par ch=2 c=11 v=55
115864 Par ch=2 c=11 v=56
115872 On ch=2 n=74 v=111
115876 Par ch=2 c=11 v=57
115888 Par ch=2 c=11 v=58
115900 Par ch=2 c=11 v=59
115912 Par ch=2 c=11 v=60
115924 Par ch=2 c=11 v=61
115936 Par ch=2 c=11 v=62
115948 On ch=2 n=74 v=0
115948 Par ch=2 c=11 v=63
115960 Par ch=2 c=11 v=64
115968 On ch=2 n=80 v=111
116160 On ch=2 n=80 v=0
116160 On ch=2 n=78 v=111
116428 On ch=2 n=78 v=0
116448 Par ch=2 c=11 v=64
116448 On ch=2 n=77 v=111
116468 Par ch=2 c=11 v=63
116484 Par ch=2 c=11 v=62
116500 Par ch=2 c=11 v=61
116516 Par ch=2 c=11 v=60
116524 On ch=2 n=77 v=0
116536 Par ch=2 c=11 v=59
116544 On ch=2 n=76 v=111
116552 Par ch=2 c=11 v=58
116568 Par ch=2 c=11 v=57
116584 Par ch=2 c=11 v=56
116604 Par ch=2 c=11 v=55
116620 On ch=2 n=76 v=0
116620 Par ch=2 c=11 v=54
116636 Par ch=2 c=11 v=53
116640 On ch=2 n=75 v=111
116652 Par ch=2 c=11 v=52
116672 Par ch=2 c=11 v=51
116688 Par ch=2 c=11 v=50
116704 Par ch=2 c=11 v=49
116716 On ch=2 n=75 v=0
116720 Par ch=2 c=11 v=48
116736 Par ch=2 c=11 v=64
116736 On ch=2 n=75 v=79
116784 Par ch=2 c=11 v=63
116828 Par ch=2 c=11 v=62
116872 Par ch=2 c=11 v=61
116920 Par ch=2 c=11 v=60
116964 Par ch=2 c=11 v=59
117008 Par ch=2 c=11 v=58
117056 Par ch=2 c=11 v=57
117100 Par ch=2 c=11 v=56
117144 Par ch=2 c=11 v=55
117188 Par ch=2 c=11 v=54
117236 Par ch=2 c=11 v=53
117280 Par ch=2 c=11 v=52
117324 Par ch=2 c=11 v=51
117372 Par ch=2 c=11 v=50
117416 Par ch=2 c=11 v=49
117427 On ch=2 n=75 v=0
117460 Par ch=2 c=11 v=48
117760 Par ch=2 c=11 v=64
117760 On ch=2 n=78 v=127
117781 On ch=2 n=78 v=0
117792 On ch=2 n=80 v=127
117813 On ch=2 n=80 v=0
117824 On ch=2 n=78 v=127
117845 On ch=2 n=78 v=0
117856 On ch=2 n=77 v=127
117877 On ch=2 n=77 v=0
117888 On ch=2 n=78 v=127
117926 On ch=2 n=78 v=0
117960 On ch=2 n=75 v=127
117979 On ch=2 n=75 v=0
117984 On ch=2 n=66 v=127
118022 On ch=2 n=66 v=0
118176 On ch=2 n=77 v=127
118202 On ch=2 n=77 v=0
118208 On ch=2 n=78 v=127
118234 On ch=2 n=78 v=0
118240 On ch=2 n=80 v=127
118266 On ch=2 n=80 v=0
118272 On ch=2 n=82 v=127
118368 On ch=2 n=82 v=0
118368 On ch=2 n=78 v=127
118399 On ch=2 n=78 v=0
118440 On ch=2 n=80 v=127
118456 On ch=2 n=80 v=0
118464 On ch=2 n=82 v=127
118560 On ch=2 n=82 v=0
118560 On ch=2 n=85 v=127
118591 On ch=2 n=85 v=0
118632 On ch=2 n=83 v=127
118648 On ch=2 n=83 v=0
118656 On ch=2 n=82 v=127
118733 On ch=2 n=82 v=0
118752 On ch=2 n=75 v=127
118829 On ch=2 n=75 v=0
118944 On ch=2 n=85 v=127
118982 On ch=2 n=85 v=0
119016 On ch=2 n=83 v=127
119035 On ch=2 n=83 v=0
119040 On ch=2 n=82 v=127
119117 On ch=2 n=82 v=0
119136 On ch=2 n=87 v=127
119213 On ch=2 n=87 v=0
119328 On ch=2 n=90 v=127
119366 On ch=2 n=90 v=0
119400 On ch=2 n=89 v=127
119419 On ch=2 n=89 v=0
119424 On ch=2 n=86 v=127
119472 On ch=2 n=86 v=0
119472 On ch=2 n=87 v=127
119510 On ch=2 n=87 v=0
119520 On ch=2 n=78 v=127
119551 On ch=2 n=78 v=0
119592 On ch=2 n=80 v=127
119608 On ch=2 n=80 v=0
119616 On ch=2 n=82 v=127
119693 On ch=2 n=82 v=0
119712 On ch=2 n=85 v=127
119750 On ch=2 n=85 v=0
119784 On ch=2 n=83 v=127
119803 On ch=2 n=83 v=0
119808 On ch=2 n=82 v=127
119885 On ch=2 n=82 v=0
119904 On ch=2 n=75 v=127
119981 On ch=2 n=75 v=0
120096 On ch=2 n=92 v=111
120127 On ch=2 n=92 v=0
120168 On ch=2 n=88 v=111
120184 On ch=2 n=88 v=0
120192 On ch=2 n=86 v=111
120240 On ch=2 n=86 v=0
120240 On ch=2 n=87 v=111
120271 On ch=2 n=87 v=0
120288 On ch=2 n=80 v=111
120319 On ch=2 n=80 v=0
120360 On ch=2 n=82 v=111
120376 On ch=2 n=82 v=0
120384 On ch=2 n=83 v=111
120446 On ch=2 n=83 v=0
120480 On ch=2 n=89 v=111
120518 On ch=2 n=89 v=0
120552 On ch=2 n=87 v=111
120568 On ch=2 n=87 v=0
120576 On ch=2 n=85 v=111
120607 On ch=2 n=85 v=0
120648 On ch=2 n=80 v=111
120672 On ch=2 n=80 v=0
120672 On ch=2 n=89 v=111
120703 On ch=2 n=89 v=0
120744 On ch=2 n=87 v=111
120760 On ch=2 n=87 v=0
120768 On ch=2 n=85 v=111
120799 On ch=2 n=85 v=0
120840 On ch=2 n=83 v=111
120864 On ch=2 n=83 v=0
120864 On ch=2 n=93 v=111
120895 On ch=2 n=93 v=0
120936 On ch=2 n=91 v=111
120952 On ch=2 n=91 v=0
120960 On ch=2 n=90 v=111
120991 On ch=2 n=90 v=0
121032 On ch=2 n=84 v=111
121056 On ch=2 n=84 v=0
121056 On ch=2 n=93 v=111
121087 On ch=2 n=93 v=0
121128 On ch=2 n=91 v=111
121144 On ch=2 n=91 v=0
121152 On ch=2 n=90 v=111
121183 On ch=2 n=90 v=0
121224 On ch=2 n=84 v=111
121248 On ch=2 n=84 v=0
121248 On ch=2 n=87 v=111
121279 On ch=2 n=87 v=0
121728 On ch=2 n=95 v=127
121759 On ch=2 n=95 v=0
121800 On ch=2 n=94 v=127
121816 On ch=2 n=94 v=0
121824 On ch=2 n=93 v=127
121855 On ch=2 n=93 v=0
121896 On ch=2 n=92 v=127
121912 On ch=2 n=92 v=0
121920 On ch=2 n=91 v=127
121951 On ch=2 n=91 v=0
121992 On ch=2 n=90 v=127
122008 On ch=2 n=90 v=0
122016 On ch=2 n=89 v=127
122047 On ch=2 n=89 v=0
122088 On ch=2 n=88 v=127
122104 On ch=2 n=88 v=0
122112 On ch=2 n=93 v=127
122133 On ch=2 n=93 v=0
122144 On ch=2 n=92 v=127
122165 On ch=2 n=92 v=0
122176 On ch=2 n=91 v=127
122197 On ch=2 n=91 v=0
122208 On ch=2 n=90 v=127
122229 On ch=2 n=90 v=0
122240 On ch=2 n=89 v=127
122261 On ch=2 n=89 v=0
122272 On ch=2 n=88 v=127
122293 On ch=2 n=88 v=0
122304 On ch=2 n=87 v=127
122325 On ch=2 n=87 v=0
122336 On ch=2 n=86 v=127
122357 On ch=2 n=86 v=0
122368 On ch=2 n=85 v=127
122389 On ch=2 n=85 v=0
122400 On ch=2 n=84 v=127
122421 On ch=2 n=84 v=0
122432 On ch=2 n=83 v=127
122453 On ch=2 n=83 v=0
122464 On ch=2 n=82 v=127
122485 On ch=2 n=82 v=0
122496 On ch=2 n=81 v=127
122528 On ch=2 n=81 v=0
122528 On ch=2 n=80 v=127
122560 On ch=2 n=80 v=0
122560 On ch=2 n=79 v=127
122592 On ch=2 n=79 v=0
122592 On ch=2 n=78 v=127
122624 On ch=2 n=78 v=0
122624 On ch=2 n=77 v=127
122656 On ch=2 n=77 v=0
122656 On ch=2 n=76 v=127
122688 On ch=2 n=76 v=0
122688 On ch=2 n=75 v=127
122720 On ch=2 n=75 v=0
122720 On ch=2 n=74 v=127
122752 On ch=2 n=74 v=0
122752 On ch=2 n=73 v=127
122784 On ch=2 n=73 v=0
122784 On ch=2 n=72 v=127
122816 On ch=2 n=72 v=0
122816 On ch=2 n=70 v=127
122848 On ch=2 n=70 v=0
122848 On ch=2 n=69 v=127
122880 On ch=2 n=69 v=0
122880 On ch=2 n=67 v=127
122918 On ch=2 n=67 v=0
123264 On ch=2 n=79 v=100
123267 On ch=2 n=84 v=100
123270 On ch=2 n=91 v=100
123276 On ch=2 n=79 v=0
123279 On ch=2 n=84 v=0
123286 On ch=2 n=91 v=0
123360 On ch=2 n=79 v=100
123363 On ch=2 n=84 v=100
123366 On ch=2 n=91 v=100
123372 On ch=2 n=79 v=0
123375 On ch=2 n=84 v=0
123382 On ch=2 n=91 v=0
124032 On ch=2 n=79 v=100
124035 On ch=2 n=85 v=100
124038 On ch=2 n=91 v=100
124044 On ch=2 n=79 v=0
124047 On ch=2 n=85 v=0
124054 On ch=2 n=91 v=0
124128 On ch=2 n=79 v=100
124131 On ch=2 n=85 v=100
124134 On ch=2 n=91 v=100
124140 On ch=2 n=79 v=0
124143 On ch=2 n=85 v=0
124150 On ch=2 n=91 v=0
125952 Par ch=2 c=11 v=64
125952 On ch=2 n=79 v=100
125960 On ch=2 n=79 v=0
125960 On ch=2 n=80 v=100
125968 On ch=2 n=80 v=0
125968 On ch=2 n=79 v=100
125976 On ch=2 n=79 v=0
125976 Par ch=2 c=11 v=65
125976 On ch=2 n=80 v=100
125984 On ch=2 n=80 v=0
125984 On ch=2 n=79 v=100
125992 On ch=2 n=79 v=0
125992 On ch=2 n=80 v=100
126000 On ch=2 n=80 v=0
126000 Par ch=2 c=11 v=66
126000 On ch=2 n=79 v=100
126008 On ch=2 n=79 v=0
126008 On ch=2 n=80 v=100
126016 On ch=2 n=80 v=0
126016 On ch=2 n=79 v=100
126020 Par ch=2 c=11 v=67
126024 On ch=2 n=79 v=0
126024 On ch=2 n=80 v=100
126032 On ch=2 n=80 v=0
126032 On ch=2 n=79 v=100
126040 On ch=2 n=79 v=0
126040 On ch=2 n=80 v=100
126044 Par ch=2 c=11 v=68
126048 On ch=2 n=80 v=0
126048 On ch=2 n=79 v=100
126056 On ch=2 n=79 v=0
126056 On ch=2 n=80 v=100
126064 On ch=2 n=80 v=0
126064 On ch=2 n=79 v=100
126068 Par ch=2 c=11 v=69
126072 On ch=2 n=79 v=0
126072 On ch=2 n=80 v=100
126080 On ch=2 n=80 v=0
126080 On ch=2 n=79 v=100
126088 On ch=2 n=79 v=0
126088 Par ch=2 c=11 v=70
126088 On ch=2 n=80 v=100
126096 On ch=2 n=80 v=0
126096 On ch=2 n=79 v=100
126104 On ch=2 n=79 v=0
126104 On ch=2 n=80 v=100
126112 On ch=2 n=80 v=0
126112 Par ch=2 c=11 v=71
126112 On ch=2 n=79 v=100
126120 On ch=2 n=79 v=0
126120 On ch=2 n=80 v=100
126128 On ch=2 n=80 v=0
126128 On ch=2 n=79 v=100
126136 On ch=2 n=79 v=0
126136 Par ch=2 c=11 v=72
126136 On ch=2 n=80 v=100
126144 On ch=2 n=80 v=0
126144 On ch=2 n=79 v=100
126152 On ch=2 n=79 v=0
126152 On ch=2 n=80 v=100
126156 Par ch=2 c=11 v=73
126160 On ch=2 n=80 v=0
126160 On ch=2 n=79 v=100
126168 On ch=2 n=79 v=0
126168 On ch=2 n=80 v=100
126176 On ch=2 n=80 v=0
126176 On ch=2 n=79 v=100
126180 Par ch=2 c=11 v=74
126184 On ch=2 n=79 v=0
126184 On ch=2 n=80 v=100
126192 On ch=2 n=80 v=0
126192 On ch=2 n=79 v=100
126200 On ch=2 n=79 v=0
126200 On ch=2 n=80 v=100
126204 Par ch=2 c=11 v=75
126208 On ch=2 n=80 v=0
126208 On ch=2 n=79 v=100
126216 On ch=2 n=79 v=0
126216 On ch=2 n=80 v=100
126224 On ch=2 n=80 v=0
126224 Par ch=2 c=11 v=76
126224 On ch=2 n=79 v=100
126232 On ch=2 n=79 v=0
126232 On ch=2 n=80 v=100
126240 On ch=2 n=80 v=0
126240 On ch=2 n=79 v=100
126248 On ch=2 n=79 v=0
126248 Par ch=2 c=11 v=77
126248 On ch=2 n=80 v=100
126256 On ch=2 n=80 v=0
126256 On ch=2 n=79 v=100
126264 On ch=2 n=79 v=0
126264 On ch=2 n=80 v=100
126272 On ch=2 n=80 v=0
126272 Par ch=2 c=11 v=78
126272 On ch=2 n=79 v=100
126280 On ch=2 n=79 v=0
126280 On ch=2 n=80 v=100
126288 On ch=2 n=80 v=0
126288 On ch=2 n=79 v=100
126292 Par ch=2 c=11 v=79
126296 On ch=2 n=79 v=0
126296 On ch=2 n=80 v=100
126304 On ch=2 n=80 v=0
126304 On ch=2 n=79 v=100
126312 On ch=2 n=79 v=0
126312 On ch=2 n=78 v=100
126316 Par ch=2 c=11 v=80
126320 On ch=2 n=78 v=0
126320 On ch=2 n=79 v=100
126328 On ch=2 n=79 v=0
126336 Par ch=2 c=11 v=64
126336 On ch=2 n=84 v=100
126367 On ch=2 n=84 v=0
130848 On ch=2 n=72 v=47
130886 On ch=2 n=72 v=0
130944 On ch=2 n=79 v=47
130944 On ch=2 n=67 v=47
131098 On ch=2 n=67 v=0
131098 On ch=2 n=79 v=0
131136 On ch=2 n=86 v=47
131136 On ch=2 n=74 v=47
131251 On ch=2 n=74 v=0
131251 On ch=2 n=86 v=0
131280 On ch=2 n=84 v=47
131280 On ch=2 n=72 v=47
131311 On ch=2 n=72 v=0
131311 On ch=2 n=84 v=0
131328 On ch=2 n=79 v=47
131328 On ch=2 n=67 v=47
131482 On ch=2 n=67 v=0
131482 On ch=2 n=79 v=0
131520 On ch=2 n=86 v=47
131520 On ch=2 n=74 v=47
131635 On ch=2 n=74 v=0
131635 On ch=2 n=86 v=0
131664 On ch=2 n=84 v=47
131664 On ch=2 n=72 v=47
131695 On ch=2 n=72 v=0
131695 On ch=2 n=84 v=0
131712 On ch=2 n=79 v=47
131712 On ch=2 n=67 v=47
131789 On ch=2 n=67 v=0
131789 On ch=2 n=79 v=0
131808 On ch=2 n=84 v=47
131808 On ch=2 n=72 v=47
131839 On ch=2 n=72 v=0
131839 On ch=2 n=84 v=0
131880 On ch=2 n=82 v=47
131880 On ch=2 n=70 v=47
131896 On ch=2 n=70 v=0
131896 On ch=2 n=82 v=0
131904 On ch=2 n=79 v=47
131904 On ch=2 n=67 v=47
132019 On ch=2 n=67 v=0
132019 On ch=2 n=79 v=0
132048 On ch=2 n=77 v=47
132048 On ch=2 n=65 v=47
132079 On ch=2 n=65 v=0
132079 On ch=2 n=77 v=0
132096 On ch=2 n=75 v=47
132096 On ch=2 n=63 v=47
132143 On ch=2 n=63 v=0
132143 On ch=2 n=75 v=0
132168 On ch=2 n=77 v=47
132168 On ch=2 n=65 v=47
132184 On ch=2 n=65 v=0
132184 On ch=2 n=77 v=0
132192 On ch=2 n=79 v=47
132192 On ch=2 n=67 v=47
132307 On ch=2 n=67 v=0
132307 On ch=2 n=79 v=0
132336 On ch=2 n=77 v=47
132336 On ch=2 n=65 v=47
132367 On ch=2 n=65 v=0
132367 On ch=2 n=77 v=0
132384 On ch=2 n=75 v=47
132384 On ch=2 n=63 v=47
132405 On ch=2 n=63 v=0
132405 On ch=2 n=75 v=0
132416 On ch=2 n=74 v=47
132416 On ch=2 n=62 v=47
132437 On ch=2 n=62 v=0
132437 On ch=2 n=74 v=0
132448 On ch=2 n=72 v=47
132448 On ch=2 n=60 v=47
132469 On ch=2 n=60 v=0
132469 On ch=2 n=72 v=0
132480 On ch=2 n=68 v=47
132557 On ch=2 n=68 v=0
133152 On ch=2 n=80 v=47
133229 On ch=2 n=80 v=0
133248 Par ch=2 c=11 v=64
133248 On ch=2 n=79 v=47
133264 Par ch=2 c=11 v=65
133280 Par ch=2 c=11 v=66
133296 Par ch=2 c=11 v=67
133312 Par ch=2 c=11 v=68
133325 On ch=2 n=79 v=0
133328 Par ch=2 c=11 v=69
133344 Par ch=2 c=11 v=70
133344 On ch=2 n=74 v=47
133360 Par ch=2 c=11 v=71
133376 Par ch=2 c=11 v=72
133392 Par ch=2 c=11 v=73
133402 On ch=2 n=74 v=0
133408 Par ch=2 c=11 v=74
133416 On ch=2 n=75 v=47
133424 Par ch=2 c=11 v=75
133435 On ch=2 n=75 v=0
133440 Par ch=2 c=11 v=76
133440 On ch=2 n=77 v=47
133452 Par ch=2 c=11 v=77
133468 Par ch=2 c=11 v=78
133484 Par ch=2 c=11 v=79
133500 Par ch=2 c=11 v=80
133516 Par ch=2 c=11 v=81
133517 On ch=2 n=77 v=0
133532 Par ch=2 c=11 v=82
133536 On ch=2 n=80 v=47
133548 Par ch=2 c=11 v=83
133564 Par ch=2 c=11 v=84
133580 Par ch=2 c=11 v=85
133596 Par ch=2 c=11 v=86
133612 Par ch=2 c=11 v=87
133613 On ch=2 n=80 v=0
133628 Par ch=2 c=11 v=88
133632 On ch=2 n=79 v=47
133640 Par ch=2 c=11 v=89
133656 Par ch=2 c=11 v=90
133663 On ch=2 n=79 v=0
133672 Par ch=2 c=11 v=91
133688 Par ch=2 c=11 v=92
133704 Par ch=2 c=11 v=93
133720 Par ch=2 c=11 v=94
133728 On ch=2 n=87 v=47
133736 Par ch=2 c=11 v=95
133752 Par ch=2 c=11 v=96
133768 Par ch=2 c=11 v=97
133784 Par ch=2 c=11 v=98
133800 Par ch=2 c=11 v=99
133816 Par ch=2 c=11 v=100
133828 Par ch=2 c=11 v=101
133844 Par ch=2 c=11 v=102
133860 Par ch=2 c=11 v=103
133876 Par ch=2 c=11 v=104
133882 On ch=2 n=87 v=0
133892 Par ch=2 c=11 v=105
133908 Par ch=2 c=11 v=106
133920 On ch=2 n=86 v=47
133924 Par ch=2 c=11 v=107
133940 Par ch=2 c=11 v=108
133956 Par ch=2 c=11 v=109
133972 Par ch=2 c=11 v=110
133988 Par ch=2 c=11 v=111
133997 On ch=2 n=86 v=0
134004 Par ch=2 c=11 v=112
134016 Par ch=2 c=11 v=64
134016 On ch=2 n=84 v=95
134093 On ch=2 n=84 v=0
134112 On ch=2 n=75 v=95
134170 On ch=2 n=75 v=0
134184 On ch=2 n=77 v=95
134203 On ch=2 n=77 v=0
134208 On ch=2 n=79 v=95
134285 On ch=2 n=79 v=0
134304 On ch=2 n=82 v=95
134362 On ch=2 n=82 v=0
134376 On ch=2 n=80 v=95
134395 On ch=2 n=80 v=0
134400 On ch=2 n=79 v=95
134438 On ch=2 n=79 v=0
134496 On ch=2 n=72 v=95
134650 On ch=2 n=72 v=0
134688 On ch=2 n=74 v=95
134714 On ch=2 n=74 v=0
134720 On ch=2 n=75 v=95
134746 On ch=2 n=75 v=0
134752 On ch=2 n=77 v=95
134778 On ch=2 n=77 v=0
134784 On ch=2 n=79 v=95
134815 On ch=2 n=79 v=0
135424 Par ch=2 c=11 v=64
135424 On ch=2 n=72 v=95
135432 Par ch=2 c=11 v=65
135440 Par ch=2 c=11 v=66
135445 On ch=2 n=72 v=0
135448 Par ch=2 c=11 v=67
135456 Par ch=2 c=11 v=68
135456 On ch=2 n=79 v=95
135464 Par ch=2 c=11 v=69
135472 Par ch=2 c=11 v=70
135477 On ch=2 n=79 v=0
135480 Par ch=2 c=11 v=71
135488 Par ch=2 c=11 v=72
135488 On ch=2 n=82 v=95
135492 Par ch=2 c=11 v=73
135500 Par ch=2 c=11 v=74
135508 Par ch=2 c=11 v=75
135509 On ch=2 n=82 v=0
135516 Par ch=2 c=11 v=76
135520 On ch=2 n=85 v=95
135524 Par ch=2 c=11 v=77
135532 Par ch=2 c=11 v=78
135540 Par ch=2 c=11 v=79
135541 On ch=2 n=85 v=0
135548 Par ch=2 c=11 v=80
135552 Par ch=2 c=11 v=64
135552 On ch=2 n=84 v=111
135583 On ch=2 n=84 v=0
135624 On ch=2 n=82 v=111
135640 On ch=2 n=82 v=0
135648 On ch=2 n=80 v=111
135679 On ch=2 n=80 v=0
135720 On ch=2 n=79 v=111
135736 On ch=2 n=79 v=0
135744 On ch=2 n=77 v=111
135775 On ch=2 n=77 v=0
135816 On ch=2 n=75 v=111
135832 On ch=2 n=75 v=0
135840 On ch=2 n=73 v=111
135871 On ch=2 n=73 v=0
135912 On ch=2 n=72 v=111
135928 On ch=2 n=72 v=0
135936 On ch=2 n=80 v=111
135967 On ch=2 n=80 v=0
136008 On ch=2 n=79 v=111
136024 On ch=2 n=79 v=0
136032 On ch=2 n=77 v=111
136063 On ch=2 n=77 v=0
136104 On ch=2 n=75 v=111
136120 On ch=2 n=75 v=0
136128 On ch=2 n=73 v=111
136159 On ch=2 n=73 v=0
136200 On ch=2 n=72 v=111
136216 On ch=2 n=72 v=0
136224 On ch=2 n=70 v=111
136255 On ch=2 n=70 v=0
136296 On ch=2 n=68 v=111
136312 On ch=2 n=68 v=0
136320 On ch=2 n=67 v=111
136358 On ch=2 n=67 v=0
137088 On ch=2 n=79 v=111
137376 On ch=2 n=79 v=0
137376 On ch=2 n=75 v=111
137472 On ch=2 n=75 v=0
137472 Par ch=2 c=11 v=64
137472 On ch=2 n=74 v=111
137476 Par ch=2 c=11 v=62
137480 Par ch=2 c=11 v=60
137484 Par ch=2 c=11 v=58
137488 Par ch=2 c=11 v=56
137492 Par ch=2 c=11 v=54
137496 Par ch=2 c=11 v=52
137500 Par ch=2 c=11 v=50
137504 Par ch=2 c=11 v=48
137508 Par ch=2 c=11 v=46
137512 Par ch=2 c=11 v=44
137516 Par ch=2 c=11 v=42
137520 Par ch=2 c=11 v=40
137524 Par ch=2 c=11 v=38
137528 Par ch=2 c=11 v=36
137532 Par ch=2 c=11 v=34
137536 Par ch=2 c=11 v=32
137540 Par ch=2 c=11 v=30
137544 Par ch=2 c=11 v=28
137548 Par ch=2 c=11 v=26
137552 Par ch=2 c=11 v=24
137556 Par ch=2 c=11 v=22
137560 Par ch=2 c=11 v=20
137564 Par ch=2 c=11 v=18
137568 On ch=2 n=74 v=0
137568 On ch=2 n=72 v=111
137645 On ch=2 n=72 v=0
137760 Par ch=2 c=11 v=64
137760 On ch=2 n=75 v=79
137798 On ch=2 n=75 v=0
137808 On ch=2 n=74 v=63
137846 On ch=2 n=74 v=0
137856 On ch=2 n=74 v=47
137904 On ch=2 n=74 v=0
137904 On ch=2 n=72 v=47
137942 On ch=2 n=72 v=0
137952 On ch=2 n=74 v=47
137990 On ch=2 n=74 v=0
138000 On ch=2 n=75 v=47
138038 On ch=2 n=75 v=0
138048 Par ch=2 c=11 v=64
138048 On ch=2 n=77 v=47
138060 Par ch=2 c=11 v=65
138072 Par ch=2 c=11 v=66
138084 Par ch=2 c=11 v=67
138086 On ch=2 n=77 v=0
138096 Par ch=2 c=11 v=68
138096 On ch=2 n=75 v=47
138108 Par ch=2 c=11 v=69
138116 Par ch=2 c=11 v=70
138128 Par ch=2 c=11 v=71
138134 On ch=2 n=75 v=0
138140 Par ch=2 c=11 v=72
138144 On ch=2 n=77 v=47
138152 Par ch=2 c=11 v=73
138164 Par ch=2 c=11 v=74
138176 Par ch=2 c=11 v=75
138184 Par ch=2 c=11 v=76
138192 On ch=2 n=77 v=0
138192 On ch=2 n=79 v=47
138196 Par ch=2 c=11 v=77
138208 Par ch=2 c=11 v=78
138220 Par ch=2 c=11 v=79
138230 On ch=2 n=79 v=0
138232 Par ch=2 c=11 v=80
138240 Par ch=2 c=11 v=80
138240 On ch=2 n=82 v=47
138248 Par ch=2 c=11 v=79
138252 Par ch=2 c=11 v=78
138260 Par ch=2 c=11 v=77
138264 Par ch=2 c=11 v=76
138272 Par ch=2 c=11 v=75
138276 Par ch=2 c=11 v=74
138284 Par ch=2 c=11 v=73
138288 Par ch=2 c=11 v=72
138296 Par ch=2 c=11 v=71
138300 Par ch=2 c=11 v=70
138308 Par ch=2 c=11 v=69
138312 Par ch=2 c=11 v=68
138320 Par ch=2 c=11 v=67
138324 Par ch=2 c=11 v=66
138332 Par ch=2 c=11 v=65
138336 On ch=2 n=82 v=0
138336 Par ch=2 c=11 v=64
138336 On ch=2 n=80 v=47
138413 On ch=2 n=80 v=0
138528 On ch=2 n=75 v=47
138624 On ch=2 n=75 v=0
138624 On ch=2 n=82 v=47
138720 On ch=2 n=82 v=0
138720 On ch=2 n=80 v=47
138835 On ch=2 n=80 v=0
138864 Par ch=2 c=11 v=64
138864 On ch=2 n=79 v=47
138876 Par ch=2 c=11 v=63
138884 Par ch=2 c=11 v=62
138892 Par ch=2 c=11 v=61
138900 Par ch=2 c=11 v=60
138902 On ch=2 n=79 v=0
138908 Par ch=2 c=11 v=59
138912 On ch=2 n=80 v=47
138916 Par ch=2 c=11 v=58
138924 Par ch=2 c=11 v=57
138932 Par ch=2 c=11 v=56
138944 Par ch=2 c=11 v=55
138950 On ch=2 n=80 v=0
138952 Par ch=2 c=11 v=54
138960 Par ch=2 c=11 v=53
138960 On ch=2 n=82 v=47
138968 Par ch=2 c=11 v=52
138976 Par ch=2 c=11 v=51
138984 Par ch=2 c=11 v=50
138992 Par ch=2 c=11 v=49
138998 On ch=2 n=82 v=0
139000 Par ch=2 c=11 v=48
139008 Par ch=2 c=11 v=64
139008 On ch=2 n=83 v=47
139392 Par ch=2 c=11 v=64
139416 Par ch=2 c=11 v=63
139440 Par ch=2 c=11 v=62
139460 Par ch=2 c=11 v=61
139484 Par ch=2 c=11 v=60
139508 Par ch=2 c=11 v=59
139528 Par ch=2 c=11 v=58
139552 Par ch=2 c=11 v=57
139576 Par ch=2 c=11 v=56
139596 Par ch=2 c=11 v=55
139620 Par ch=2 c=11 v=54
139644 Par ch=2 c=11 v=53
139664 Par ch=2 c=11 v=52
139688 Par ch=2 c=11 v=51
139699 On ch=2 n=83 v=0
139712 Par ch=2 c=11 v=50
139732 Par ch=2 c=11 v=49
139756 Par ch=2 c=11 v=48
139776 Par ch=2 c=11 v=64
139776 On ch=2 n=85 v=31
139776 On ch=2 n=81 v=31
140064 On ch=2 n=81 v=0
140064 On ch=2 n=85 v=0
140064 On ch=2 n=83 v=31
140064 On ch=2 n=80 v=31
140141 On ch=2 n=80 v=0
140141 On ch=2 n=83 v=0
140160 On ch=2 n=85 v=31
140160 On ch=2 n=81 v=31
140448 On ch=2 n=81 v=0
140448 On ch=2 n=85 v=0
140448 On ch=2 n=83 v=31
140448 On ch=2 n=80 v=31
140525 On ch=2 n=80 v=0
140525 On ch=2 n=83 v=0
140544 Par ch=2 c=11 v=64
140544 On ch=2 n=76 v=15
140544 On ch=2 n=85 v=15
140544 On ch=2 n=81 v=15
140592 Par ch=2 c=11 v=63
140636 Par ch=2 c=11 v=62
140680 Par ch=2 c=11 v=61
140728 Par ch=2 c=11 v=60
140772 Par ch=2 c=11 v=59
140816 Par ch=2 c=11 v=58
140864 Par ch=2 c=11 v=57
140908 Par ch=2 c=11 v=56
140952 Par ch=2 c=11 v=55
140996 Par ch=2 c=11 v=54
141044 Par ch=2 c=11 v=53
141088 Par ch=2 c=11 v=52
141132 Par ch=2 c=11 v=51
141180 Par ch=2 c=11 v=50
141224 Par ch=2 c=11 v=49
141268 Par ch=2 c=11 v=48
141389 On ch=2 n=81 v=0
141389 On ch=2 n=85 v=0
141389 On ch=2 n=76 v=0
142080 On ch=2 n=80 v=31
142080 On ch=2 n=76 v=31
142080 On ch=2 n=88 v=47
142234 On ch=2 n=88 v=0
142272 On ch=2 n=76 v=0
142272 On ch=2 n=80 v=0
142272 On ch=2 n=81 v=31
142272 On ch=2 n=78 v=31
142272 On ch=2 n=87 v=47
142387 On ch=2 n=87 v=0
142416 On ch=2 n=83 v=47
142426 On ch=2 n=78 v=0
142426 On ch=2 n=81 v=0
142454 On ch=2 n=83 v=0
142464 On ch=2 n=80 v=31
142464 On ch=2 n=76 v=31
142464 On ch=2 n=88 v=47
142618 On ch=2 n=88 v=0
142656 On ch=2 n=76 v=0
142656 On ch=2 n=80 v=0
142656 Par ch=2 c=11 v=64
142656 On ch=2 n=81 v=31
142656 On ch=2 n=78 v=31
142656 On ch=2 n=87 v=47
142668 Par ch=2 c=11 v=63
142680 Par ch=2 c=11 v=62
142692 Par ch=2 c=11 v=61
142704 Par ch=2 c=11 v=60
142716 Par ch=2 c=11 v=59
142724 Par ch=2 c=11 v=58
142736 Par ch=2 c=11 v=57
142748 Par ch=2 c=11 v=56
142760 Par ch=2 c=11 v=55
142771 On ch=2 n=87 v=0
142772 Par ch=2 c=11 v=54
142784 Par ch=2 c=11 v=53
142792 Par ch=2 c=11 v=52
142800 On ch=2 n=83 v=47
142804 Par ch=2 c=11 v=51
142810 On ch=2 n=78 v=0
142810 On ch=2 n=81 v=0
142816 Par ch=2 c=11 v=50
142828 Par ch=2 c=11 v=49
142838 On ch=2 n=83 v=0
142840 Par ch=2 c=11 v=48
142848 On ch=2 n=80 v=31
142848 On ch=2 n=76 v=31
142848 On ch=2 n=88 v=47
143002 On ch=2 n=88 v=0
143002 On ch=2 n=76 v=0
143002 On ch=2 n=80 v=0
143136 Par ch=2 c=11 v=64
153984 On ch=2 n=72 v=31
153984 On ch=2 n=67 v=31
154015 On ch=2 n=67 v=0
154015 On ch=2 n=72 v=0
154080 On ch=2 n=71 v=31
154080 On ch=2 n=67 v=31
154157 On ch=2 n=67 v=0
154157 On ch=2 n=71 v=0
154368 On ch=2 n=71 v=31
154368 On ch=2 n=67 v=31
154399 On ch=2 n=67 v=0
154399 On ch=2 n=71 v=0
154464 On ch=2 n=70 v=31
154464 On ch=2 n=65 v=31
154541 On ch=2 n=65 v=0
154541 On ch=2 n=70 v=0
154752 On ch=2 n=70 v=31
154752 On ch=2 n=65 v=31
154783 On ch=2 n=65 v=0
154783 On ch=2 n=70 v=0
154848 On ch=2 n=68 v=31
154848 On ch=2 n=63 v=31
154925 On ch=2 n=63 v=0
154925 On ch=2 n=68 v=0
155328 On ch=2 n=80 v=47
155344 On ch=2 n=80 v=0
155344 On ch=2 n=77 v=47
155360 On ch=2 n=77 v=0
155360 On ch=2 n=86 v=47
155376 On ch=2 n=86 v=0
155376 On ch=2 n=80 v=47
155407 On ch=2 n=80 v=0
155712 On ch=2 n=80 v=95
155728 On ch=2 n=80 v=0
155728 On ch=2 n=77 v=95
155744 On ch=2 n=77 v=0
155744 On ch=2 n=86 v=95
155760 On ch=2 n=86 v=0
155760 On ch=2 n=80 v=95
155791 On ch=2 n=80 v=0
156048 On ch=2 n=72 v=95
156058 On ch=2 n=72 v=0
156064 On ch=2 n=79 v=95
156074 On ch=2 n=79 v=0
156080 On ch=2 n=84 v=95
156090 On ch=2 n=84 v=0
156096 On ch=2 n=79 v=95
156211 On ch=2 n=79 v=0
156288 On ch=2 n=72 v=95
156298 On ch=2 n=72 v=0
156304 On ch=2 n=79 v=95
156314 On ch=2 n=79 v=0
156320 On ch=2 n=84 v=95
156330 On ch=2 n=84 v=0
156336 On ch=2 n=79 v=95
156451 On ch=2 n=79 v=0
156672 Par ch=2 c=11 v=64
156672 On ch=2 n=74 v=47
156676 Par ch=2 c=11 v=65
156680 Par ch=2 c=11 v=66
156684 Par ch=2 c=11 v=68
156688 Par ch=2 c=11 v=69
156692 Par ch=2 c=11 v=71
156696 Par ch=2 c=11 v=72
156700 Par ch=2 c=11 v=73
156704 Par ch=2 c=11 v=75
156708 Par ch=2 c=11 v=76
156712 Par ch=2 c=11 v=78
156716 Par ch=2 c=11 v=79
156720 Par ch=2 c=11 v=79
156724 Par ch=2 c=11 v=78
156728 Par ch=2 c=11 v=77
156732 Par ch=2 c=11 v=76
156736 Par ch=2 c=11 v=74
156740 Par ch=2 c=11 v=73
156744 Par ch=2 c=11 v=72
156748 Par ch=2 c=11 v=71
156752 Par ch=2 c=11 v=69
156756 Par ch=2 c=11 v=68
156760 Par ch=2 c=11 v=67
156764 Par ch=2 c=11 v=66
156768 Par ch=2 c=11 v=64
156826 On ch=2 n=74 v=0
156864 Par ch=2 c=11 v=64
156864 On ch=2 n=77 v=47
156868 Par ch=2 c=11 v=65
156872 Par ch=2 c=11 v=66
156876 Par ch=2 c=11 v=68
156880 Par ch=2 c=11 v=69
156884 Par ch=2 c=11 v=71
156888 Par ch=2 c=11 v=72
156892 Par ch=2 c=11 v=73
156896 Par ch=2 c=11 v=75
156900 Par ch=2 c=11 v=76
156904 Par ch=2 c=11 v=78
156908 Par ch=2 c=11 v=79
156912 Par ch=2 c=11 v=79
156916 Par ch=2 c=11 v=78
156920 Par ch=2 c=11 v=77
156924 Par ch=2 c=11 v=76
156928 Par ch=2 c=11 v=74
156932 Par ch=2 c=11 v=73
156936 Par ch=2 c=11 v=72
156940 Par ch=2 c=11 v=71
156944 Par ch=2 c=11 v=69
156948 Par ch=2 c=11 v=68
156952 Par ch=2 c=11 v=67
156956 Par ch=2 c=11 v=66
156960 Par ch=2 c=11 v=64
156979 On ch=2 n=77 v=0
157008 On ch=2 n=75 v=47
157039 On ch=2 n=75 v=0
157056 On ch=2 n=74 v=47
157286 On ch=2 n=74 v=0
157344 On ch=2 n=80 v=47
157421 On ch=2 n=80 v=0
157440 On ch=2 n=79 v=47
157517 On ch=2 n=79 v=0
157536 On ch=2 n=74 v=47
157594 On ch=2 n=74 v=0
157608 On ch=2 n=75 v=47
157624 On ch=2 n=75 v=0
157632 On ch=2 n=77 v=47
157709 On ch=2 n=77 v=0
157728 On ch=2 n=80 v=47
157805 On ch=2 n=80 v=0
157824 On ch=2 n=79 v=47
157862 On ch=2 n=79 v=0
157920 On ch=2 n=87 v=47
158074 On ch=2 n=87 v=0
158112 On ch=2 n=86 v=47
158189 On ch=2 n=86 v=0
158208 Par ch=2 c=11 v=64
158208 On ch=2 n=85 v=47
158220 Par ch=2 c=11 v=65
158232 Par ch=2 c=11 v=66
158244 Par ch=2 c=11 v=67
158256 Par ch=2 c=11 v=68
158268 Par ch=2 c=11 v=69
158276 Par ch=2 c=11 v=70
158288 Par ch=2 c=11 v=71
158300 Par ch=2 c=11 v=72
158312 Par ch=2 c=11 v=73
158324 Par ch=2 c=11 v=74
158336 Par ch=2 c=11 v=75
158344 Par ch=2 c=11 v=76
158356 Par ch=2 c=11 v=77
158368 Par ch=2 c=11 v=78
158380 Par ch=2 c=11 v=79
158392 Par ch=2 c=11 v=80
158400 Par ch=2 c=11 v=80
158412 Par ch=2 c=11 v=79
158424 Par ch=2 c=11 v=78
158432 Par ch=2 c=11 v=77
158438 On ch=2 n=85 v=0
158444 Par ch=2 c=11 v=76
158456 Par ch=2 c=11 v=75
158464 Par ch=2 c=11 v=74
158476 Par ch=2 c=11 v=73
158488 Par ch=2 c=11 v=72
158496 Par ch=2 c=11 v=71
158496 On ch=2 n=84 v=47
158508 Par ch=2 c=11 v=70
158520 Par ch=2 c=11 v=69
158528 Par ch=2 c=11 v=68
158540 Par ch=2 c=11 v=67
158552 Par ch=2 c=11 v=66
158560 Par ch=2 c=11 v=65
158572 Par ch=2 c=11 v=64
158573 On ch=2 n=84 v=0
158592 Par ch=2 c=11 v=64
158592 On ch=2 n=82 v=47
158600 Par ch=2 c=11 v=65
158604 Par ch=2 c=11 v=66
158612 Par ch=2 c=11 v=67
158616 Par ch=2 c=11 v=68
158624 Par ch=2 c=11 v=69
158628 Par ch=2 c=11 v=70
158636 Par ch=2 c=11 v=71
158640 Par ch=2 c=11 v=72
158648 Par ch=2 c=11 v=73
158652 Par ch=2 c=11 v=74
158660 Par ch=2 c=11 v=75
158664 Par ch=2 c=11 v=76
158672 Par ch=2 c=11 v=77
158676 Par ch=2 c=11 v=78
158684 Par ch=2 c=11 v=79
158688 Par ch=2 c=11 v=80
158696 Par ch=2 c=11 v=81
158700 Par ch=2 c=11 v=82
158708 Par ch=2 c=11 v=83
158712 Par ch=2 c=11 v=84
158720 Par ch=2 c=11 v=85
158724 Par ch=2 c=11 v=86
158732 Par ch=2 c=11 v=87
158736 Par ch=2 c=11 v=88
158744 Par ch=2 c=11 v=89
158748 Par ch=2 c=11 v=90
158756 Par ch=2 c=11 v=91
158760 Par ch=2 c=11 v=92
158768 Par ch=2 c=11 v=93
158772 Par ch=2 c=11 v=94
158780 Par ch=2 c=11 v=95
158784 Par ch=2 c=11 v=96
158792 Par ch=2 c=11 v=97
158796 Par ch=2 c=11 v=98
158804 Par ch=2 c=11 v=99
158808 Par ch=2 c=11 v=100
158816 Par ch=2 c=11 v=101
158820 Par ch=2 c=11 v=102
158822 On ch=2 n=82 v=0
158828 Par ch=2 c=11 v=103
158832 Par ch=2 c=11 v=104
158840 Par ch=2 c=11 v=105
158844 Par ch=2 c=11 v=106
158852 Par ch=2 c=11 v=107
158856 Par ch=2 c=11 v=108
158864 Par ch=2 c=11 v=109
158868 Par ch=2 c=11 v=110
158876 Par ch=2 c=11 v=111
158880 Par ch=2 c=11 v=112
158880 On ch=2 n=80 v=47
158918 On ch=2 n=80 v=0
158928 On ch=2 n=79 v=47
158966 On ch=2 n=79 v=0
158976 Par ch=2 c=11 v=64
158976 On ch=2 n=78 v=95
159206 On ch=2 n=78 v=0
159264 On ch=2 n=77 v=95
159341 On ch=2 n=77 v=0
159360 Par ch=2 c=11 v=64
159360 On ch=2 n=75 v=95
159384 Par ch=2 c=11 v=65
159408 Par ch=2 c=11 v=66
159428 Par ch=2 c=11 v=67
159452 Par ch=2 c=11 v=68
159476 Par ch=2 c=11 v=69
159496 Par ch=2 c=11 v=70
159520 Par ch=2 c=11 v=71
159544 Par ch=2 c=11 v=72
159564 Par ch=2 c=11 v=73
159588 Par ch=2 c=11 v=74
159590 On ch=2 n=75 v=0
159612 Par ch=2 c=11 v=75
159632 Par ch=2 c=11 v=76
159648 On ch=2 n=74 v=95
159656 Par ch=2 c=11 v=77
159680 Par ch=2 c=11 v=78
159686 On ch=2 n=74 v=0
159696 On ch=2 n=72 v=95
159700 Par ch=2 c=11 v=79
159724 Par ch=2 c=11 v=80
159734 On ch=2 n=72 v=0
159744 Par ch=2 c=11 v=64
159744 On ch=2 n=71 v=111
160128 Par ch=2 c=11 v=64
160152 Par ch=2 c=11 v=65
160176 Par ch=2 c=11 v=66
160196 Par ch=2 c=11 v=67
160220 Par ch=2 c=11 v=68
160244 Par ch=2 c=11 v=69
160264 Par ch=2 c=11 v=70
160288 Par ch=2 c=11 v=71
160312 Par ch=2 c=11 v=72
160332 Par ch=2 c=11 v=73
160356 Par ch=2 c=11 v=74
160380 Par ch=2 c=11 v=75
160400 Par ch=2 c=11 v=76
160424 Par ch=2 c=11 v=77
160448 Par ch=2 c=11 v=78
160468 Par ch=2 c=11 v=79
160492 Par ch=2 c=11 v=80
160512 On ch=2 n=71 v=0
160512 On ch=2 n=72 v=111
160550 On ch=2 n=72 v=0
161280 Par ch=2 c=11 v=64
161280 On ch=2 n=79 v=47
161818 On ch=2 n=79 v=0
161856 Par ch=2 c=11 v=64
161856 On ch=2 n=75 v=47
161880 Par ch=2 c=11 v=63
161904 Par ch=2 c=11 v=62
161928 Par ch=2 c=11 v=61
161952 Par ch=2 c=11 v=60
161976 Par ch=2 c=11 v=59
162000 Par ch=2 c=11 v=58
162010 On ch=2 n=75 v=0
162024 Par ch=2 c=11 v=57
162048 Par ch=2 c=11 v=56
162048 On ch=2 n=72 v=47
162072 Par ch=2 c=11 v=55
162096 Par ch=2 c=11 v=54
162120 Par ch=2 c=11 v=53
162144 Par ch=2 c=11 v=52
162168 Par ch=2 c=11 v=51
162192 Par ch=2 c=11 v=50
162202 On ch=2 n=72 v=0
162216 Par ch=2 c=11 v=49
162240 Par ch=2 c=11 v=48
162240 On ch=2 n=67 v=47
162394 On ch=2 n=67 v=0
162816 Par ch=2 c=11 v=64
168576 Par ch=2 c=11 v=64
168576 On ch=2 n=72 v=47
168576 On ch=2 n=79 v=47
168624 Par ch=2 c=11 v=63
168668 Par ch=2 c=11 v=62
168712 Par ch=2 c=11 v=61
168760 Par ch=2 c=11 v=60
168804 Par ch=2 c=11 v=59
168848 Par ch=2 c=11 v=58
168896 Par ch=2 c=11 v=57
168940 Par ch=2 c=11 v=56
168984 Par ch=2 c=11 v=55
169028 Par ch=2 c=11 v=54
169076 Par ch=2 c=11 v=53
169120 Par ch=2 c=11 v=52
169164 Par ch=2 c=11 v=51
169212 Par ch=2 c=11 v=50
169256 Par ch=2 c=11 v=49
169267 On ch=2 n=79 v=0
169267 On ch=2 n=72 v=0
169300 Par ch=2 c=11 v=48
169344 Par ch=2 c=11 v=64
169344 On ch=2 n=84 v=111
169357 On ch=2 n=84 v=0
169376 On ch=2 n=83 v=111
169389 On ch=2 n=83 v=0
169408 On ch=2 n=82 v=111
169421 On ch=2 n=82 v=0
169440 On ch=2 n=81 v=111
169453 On ch=2 n=81 v=0
169472 On ch=2 n=80 v=111
169485 On ch=2 n=80 v=0
169504 On ch=2 n=79 v=111
169517 On ch=2 n=79 v=0
169536 On ch=2 n=78 v=111
169549 On ch=2 n=78 v=0
169568 On ch=2 n=77 v=111
169581 On ch=2 n=77 v=0
169600 On ch=2 n=76 v=111
169613 On ch=2 n=76 v=0
169632 On ch=2 n=75 v=111
169645 On ch=2 n=75 v=0
169664 On ch=2 n=74 v=111
169677 On ch=2 n=74 v=0
169696 On ch=2 n=73 v=111
169709 On ch=2 n=73 v=0
169728 On ch=2 n=72 v=111
169741 On ch=2 n=72 v=0
169760 On ch=2 n=71 v=111
169773 On ch=2 n=71 v=0
169792 On ch=2 n=70 v=111
169805 On ch=2 n=70 v=0
169824 On ch=2 n=69 v=111
169837 On ch=2 n=69 v=0
169856 On ch=2 n=68 v=111
169869 On ch=2 n=68 v=0
169888 On ch=2 n=67 v=111
169901 On ch=2 n=67 v=0
169920 On ch=2 n=66 v=111
169933 On ch=2 n=66 v=0
169952 On ch=2 n=65 v=111
169965 On ch=2 n=65 v=0
169984 On ch=2 n=64 v=111
169997 On ch=2 n=64 v=0
170016 On ch=2 n=63 v=111
170029 On ch=2 n=63 v=0
170048 On ch=2 n=62 v=111
170061 On ch=2 n=62 v=0
170080 On ch=2 n=61 v=111
170093 On ch=2 n=61 v=0
170112 On ch=2 n=60 v=111
170150 On ch=2 n=60 v=0
170496 On ch=2 n=60 v=31
170534 On ch=2 n=60 v=0
170534 Meta TrkEnd
TrkEnd
MTrk
0 Meta 0x21 00
0 Meta TrkName "OBOE"
192 Par ch=3 c=1 v=8
196 Par ch=3 c=7 v=127
200 Par ch=3 c=10 v=73
204 Par ch=3 c=11 v=64
208 Par ch=3 c=91 v=112
212 Par ch=3 c=93 v=32
216 Par ch=3 c=0 v=0
216 Par ch=3 c=32 v=0
216 PrCh ch=3 p=68
6912 On ch=3 n=60 v=47
7219 On ch=3 n=60 v=0
7296 On ch=3 n=62 v=47
7450 On ch=3 n=62 v=0
7488 On ch=3 n=65 v=47
7603 On ch=3 n=65 v=0
7632 On ch=3 n=68 v=47
7663 On ch=3 n=68 v=0
7680 On ch=3 n=72 v=47
7834 On ch=3 n=72 v=0
7872 On ch=3 n=67 v=47
7987 On ch=3 n=67 v=0
8016 On ch=3 n=67 v=47
8047 On ch=3 n=67 v=0
8064 On ch=3 n=72 v=47
8218 On ch=3 n=72 v=0
8320 On ch=3 n=72 v=47
8341 On ch=3 n=72 v=0
8352 On ch=3 n=74 v=47
8373 On ch=3 n=74 v=0
8384 On ch=3 n=72 v=47
8405 On ch=3 n=72 v=0
8416 On ch=3 n=71 v=47
8437 On ch=3 n=71 v=0
8448 On ch=3 n=72 v=47
8479 On ch=3 n=72 v=0
8520 On ch=3 n=67 v=47
8536 On ch=3 n=67 v=0
8544 On ch=3 n=60 v=47
8575 On ch=3 n=60 v=0
8736 On ch=3 n=72 v=47
8767 On ch=3 n=72 v=0
8832 Par ch=3 c=11 v=96
8832 On ch=3 n=79 v=47
8880 Par ch=3 c=11 v=64
8986 On ch=3 n=79 v=0
9120 On ch=3 n=72 v=47
9151 On ch=3 n=72 v=0
9192 On ch=3 n=72 v=47
9208 On ch=3 n=72 v=0
9216 On ch=3 n=79 v=47
9293 On ch=3 n=79 v=0
9312 On ch=3 n=72 v=47
9343 On ch=3 n=72 v=0
9384 On ch=3 n=72 v=47
9400 On ch=3 n=72 v=0
9408 On ch=3 n=79 v=47
9485 On ch=3 n=79 v=0
9504 On ch=3 n=72 v=47
9535 On ch=3 n=72 v=0
9576 On ch=3 n=72 v=47
9592 On ch=3 n=72 v=0
9600 On ch=3 n=79 v=47
9677 On ch=3 n=79 v=0
10320 On ch=3 n=79 v=79
10320 On ch=3 n=67 v=79
10351 On ch=3 n=67 v=0
10351 On ch=3 n=79 v=0
10368 On ch=3 n=72 v=79
10368 On ch=3 n=84 v=79
10445 On ch=3 n=84 v=0
10445 On ch=3 n=72 v=0
10464 On ch=3 n=82 v=79
10464 On ch=3 n=70 v=79
10495 On ch=3 n=70 v=0
10495 On ch=3 n=82 v=0
10536 On ch=3 n=68 v=79
10536 On ch=3 n=80 v=79
10552 On ch=3 n=80 v=0
10552 On ch=3 n=68 v=0
10560 Par ch=3 c=11 v=64
10560 On ch=3 n=79 v=79
10560 On ch=3 n=67 v=79
10572 Par ch=3 c=11 v=63
10580 Par ch=3 c=11 v=62
10588 Par ch=3 c=11 v=61
10596 Par ch=3 c=11 v=60
10608 Par ch=3 c=11 v=59
10616 Par ch=3 c=11 v=58
10624 Par ch=3 c=11 v=57
10632 Par ch=3 c=11 v=56
10640 Par ch=3 c=11 v=55
10652 Par ch=3 c=11 v=54
10660 Par ch=3 c=11 v=53
10668 Par ch=3 c=11 v=52
10675 On ch=3 n=67 v=0
10675 On ch=3 n=79 v=0
10676 Par ch=3 c=11 v=51
10684 Par ch=3 c=11 v=50
10696 Par ch=3 c=11 v=49
10704 Par ch=3 c=11 v=48
10704 On ch=3 n=77 v=79
10704 On ch=3 n=65 v=79
10712 Par ch=3 c=11 v=47
10720 Par ch=3 c=11 v=46
10728 Par ch=3 c=11 v=45
10735 On ch=3 n=65 v=0
10735 On ch=3 n=77 v=0
10740 Par ch=3 c=11 v=44
10748 Par ch=3 c=11 v=43
10752 On ch=3 n=63 v=79
10752 On ch=3 n=75 v=79
10756 Par ch=3 c=11 v=42
10764 Par ch=3 c=11 v=41
10772 Par ch=3 c=11 v=40
10784 Par ch=3 c=11 v=39
10790 On ch=3 n=75 v=0
10790 On ch=3 n=63 v=0
10792 Par ch=3 c=11 v=38
10800 Par ch=3 c=11 v=37
10808 Par ch=3 c=11 v=36
10816 Par ch=3 c=11 v=35
10824 On ch=3 n=62 v=79
10824 On ch=3 n=74 v=79
10828 Par ch=3 c=11 v=34
10836 Par ch=3 c=11 v=33
10843 On ch=3 n=74 v=0
10843 On ch=3 n=62 v=0
10844 Par ch=3 c=11 v=32
10848 On ch=3 n=60 v=79
10848 On ch=3 n=72 v=79
10852 Par ch=3 c=11 v=31
10860 Par ch=3 c=11 v=30
10872 Par ch=3 c=11 v=29
10880 Par ch=3 c=11 v=28
10888 Par ch=3 c=11 v=27
10896 Par ch=3 c=11 v=26
10904 Par ch=3 c=11 v=25
10916 Par ch=3 c=11 v=24
10924 Par ch=3 c=11 v=23
10932 Par ch=3 c=11 v=22
10940 Par ch=3 c=11 v=21
10948 Par ch=3 c=11 v=20
10960 Par ch=3 c=11 v=19
10963 On ch=3 n=72 v=0
10963 On ch=3 n=60 v=0
10968 Par ch=3 c=11 v=18
10976 Par ch=3 c=11 v=17
10984 Par ch=3 c=11 v=16
10992 Par ch=3 c=11 v=64
10992 On ch=3 n=62 v=47
10992 On ch=3 n=74 v=47
11023 On ch=3 n=74 v=0
11023 On ch=3 n=62 v=0
11040 On ch=3 n=75 v=47
11040 On ch=3 n=63 v=47
11061 On ch=3 n=63 v=0
11061 On ch=3 n=75 v=0
11072 On ch=3 n=62 v=47
11072 On ch=3 n=74 v=47
11093 On ch=3 n=74 v=0
11093 On ch=3 n=62 v=0
11104 On ch=3 n=72 v=47
11104 On ch=3 n=60 v=47
11125 On ch=3 n=60 v=0
11125 On ch=3 n=72 v=0
11136 On ch=3 n=79 v=31
11136 On ch=3 n=67 v=31
11290 On ch=3 n=67 v=0
11290 On ch=3 n=79 v=0
11328 On ch=3 n=62 v=31
11328 On ch=3 n=74 v=31
11443 On ch=3 n=74 v=0
11443 On ch=3 n=62 v=0
11472 On ch=3 n=62 v=31
11472 On ch=3 n=74 v=31
11503 On ch=3 n=74 v=0
11503 On ch=3 n=62 v=0
11520 Par ch=3 c=11 v=64
11520 On ch=3 n=67 v=31
11520 On ch=3 n=79 v=31
11528 Par ch=3 c=11 v=65
11536 Par ch=3 c=11 v=66
11544 Par ch=3 c=11 v=67
11552 Par ch=3 c=11 v=68
11560 Par ch=3 c=11 v=69
11568 Par ch=3 c=11 v=70
11576 Par ch=3 c=11 v=71
11584 Par ch=3 c=11 v=72
11592 Par ch=3 c=11 v=73
11600 Par ch=3 c=11 v=74
11608 Par ch=3 c=11 v=75
11616 Par ch=3 c=11 v=76
11624 Par ch=3 c=11 v=77
11632 Par ch=3 c=11 v=78
11640 Par ch=3 c=11 v=79
11648 Par ch=3 c=11 v=80
11656 Par ch=3 c=11 v=81
11664 Par ch=3 c=11 v=82
11672 Par ch=3 c=11 v=83
11680 Par ch=3 c=11 v=84
11688 Par ch=3 c=11 v=85
11696 Par ch=3 c=11 v=86
11704 Par ch=3 c=11 v=87
11712 Par ch=3 c=11 v=88
11716 Par ch=3 c=11 v=89
11724 Par ch=3 c=11 v=90
11732 Par ch=3 c=11 v=91
11740 Par ch=3 c=11 v=92
11748 Par ch=3 c=11 v=93
11750 On ch=3 n=79 v=0
11750 On ch=3 n=67 v=0
11756 Par ch=3 c=11 v=94
11764 Par ch=3 c=11 v=95
11772 Par ch=3 c=11 v=96
11780 Par ch=3 c=11 v=97
11788 Par ch=3 c=11 v=98
11796 Par ch=3 c=11 v=99
11804 Par ch=3 c=11 v=100
11808 On ch=3 n=77 v=31
11812 Par ch=3 c=11 v=101
11820 Par ch=3 c=11 v=102
11828 Par ch=3 c=11 v=103
11836 Par ch=3 c=11 v=104
11844 Par ch=3 c=11 v=105
11846 On ch=3 n=77 v=0
11852 Par ch=3 c=11 v=106
11856 On ch=3 n=75 v=31
11860 Par ch=3 c=11 v=107
11868 Par ch=3 c=11 v=108
11876 Par ch=3 c=11 v=109
11884 Par ch=3 c=11 v=110
11892 Par ch=3 c=11 v=111
11894 On ch=3 n=75 v=0
11900 Par ch=3 c=11 v=112
11904 Par ch=3 c=11 v=64
11904 On ch=3 n=74 v=79
11981 On ch=3 n=74 v=0
12000 On ch=3 n=67 v=79
12038 On ch=3 n=67 v=0
12072 On ch=3 n=67 v=79
12091 On ch=3 n=67 v=0
12096 On ch=3 n=74 v=79
12173 On ch=3 n=74 v=0
12192 On ch=3 n=77 v=79
12250 On ch=3 n=77 v=0
12264 On ch=3 n=75 v=79
12283 On ch=3 n=75 v=0
12288 On ch=3 n=74 v=79
12319 On ch=3 n=74 v=0
12480 On ch=3 n=68 v=95
12634 On ch=3 n=68 v=0
12672 On ch=3 n=75 v=95
12768 Par ch=3 c=11 v=32
13133 On ch=3 n=75 v=0
13440 Par ch=3 c=11 v=64
13440 On ch=3 n=79 v=47
13594 On ch=3 n=79 v=0
13632 Par ch=3 c=11 v=64
13632 On ch=3 n=76 v=47
13644 Par ch=3 c=11 v=65
13652 Par ch=3 c=11 v=66
13660 Par ch=3 c=11 v=67
13672 Par ch=3 c=11 v=68
13680 Par ch=3 c=11 v=69
13688 Par ch=3 c=11 v=70
13696 Par ch=3 c=11 v=71
13708 Par ch=3 c=11 v=72
13716 Par ch=3 c=11 v=73
13724 Par ch=3 c=11 v=74
13736 Par ch=3 c=11 v=75
13744 Par ch=3 c=11 v=76
13747 On ch=3 n=76 v=0
13752 Par ch=3 c=11 v=77
13760 Par ch=3 c=11 v=78
13772 Par ch=3 c=11 v=79
13776 On ch=3 n=77 v=47
13780 Par ch=3 c=11 v=80
13788 Par ch=3 c=11 v=81
13800 Par ch=3 c=11 v=82
13807 On ch=3 n=77 v=0
13808 Par ch=3 c=11 v=83
13816 Par ch=3 c=11 v=84
13824 Par ch=3 c=11 v=85
13824 On ch=3 n=80 v=47
13836 Par ch=3 c=11 v=86
13844 Par ch=3 c=11 v=87
13852 Par ch=3 c=11 v=88
13862 On ch=3 n=80 v=0
13864 Par ch=3 c=11 v=89
13872 Par ch=3 c=11 v=90
13880 Par ch=3 c=11 v=91
13888 Par ch=3 c=11 v=92
13900 Par ch=3 c=11 v=93
13908 Par ch=3 c=11 v=94
13916 Par ch=3 c=11 v=95
13920 On ch=3 n=79 v=47
13928 Par ch=3 c=11 v=96
13936 Par ch=3 c=11 v=97
13944 Par ch=3 c=11 v=98
13952 Par ch=3 c=11 v=99
13964 Par ch=3 c=11 v=100
13972 Par ch=3 c=11 v=101
13980 Par ch=3 c=11 v=102
13992 Par ch=3 c=11 v=103
13997 On ch=3 n=79 v=0
14000 Par ch=3 c=11 v=104
14008 Par ch=3 c=11 v=105
14016 Par ch=3 c=11 v=106
14028 Par ch=3 c=11 v=107
14036 Par ch=3 c=11 v=108
14044 Par ch=3 c=11 v=109
14056 Par ch=3 c=11 v=110
14064 Par ch=3 c=11 v=111
14072 Par ch=3 c=11 v=112
14080 Par ch=3 c=11 v=113
14080 On ch=3 n=72 v=47
14092 Par ch=3 c=11 v=114
14100 Par ch=3 c=11 v=115
14101 On ch=3 n=72 v=0
14108 Par ch=3 c=11 v=116
14112 On ch=3 n=79 v=47
14120 Par ch=3 c=11 v=117
14128 Par ch=3 c=11 v=118
14133 On ch=3 n=79 v=0
14136 Par ch=3 c=11 v=119
14144 Par ch=3 c=11 v=120
14144 On ch=3 n=82 v=47
14156 Par ch=3 c=11 v=121
14164 Par ch=3 c=11 v=122
14165 On ch=3 n=82 v=0
14172 Par ch=3 c=11 v=123
14176 On ch=3 n=85 v=47
14184 Par ch=3 c=11 v=124
14192 Par ch=3 c=11 v=125
14197 On ch=3 n=85 v=0
14200 Par ch=3 c=11 v=126
14208 Par ch=3 c=11 v=64
14208 On ch=3 n=84 v=111
14239 On ch=3 n=84 v=0
14280 On ch=3 n=82 v=111
14296 On ch=3 n=82 v=0
14304 On ch=3 n=80 v=111
14335 On ch=3 n=80 v=0
14376 On ch=3 n=79 v=111
14392 On ch=3 n=79 v=0
14400 On ch=3 n=77 v=111
14431 On ch=3 n=77 v=0
14472 On ch=3 n=75 v=111
14488 On ch=3 n=75 v=0
14496 On ch=3 n=73 v=111
14527 On ch=3 n=73 v=0
14568 On ch=3 n=72 v=111
14584 On ch=3 n=72 v=0
14592 On ch=3 n=80 v=111
14623 On ch=3 n=80 v=0
14664 On ch=3 n=79 v=111
14680 On ch=3 n=79 v=0
14688 On ch=3 n=77 v=111
14719 On ch=3 n=77 v=0
14760 On ch=3 n=75 v=111
14776 On ch=3 n=75 v=0
14784 On ch=3 n=73 v=111
14815 On ch=3 n=73 v=0
14856 On ch=3 n=72 v=111
14872 On ch=3 n=72 v=0
14880 On ch=3 n=70 v=111
14911 On ch=3 n=70 v=0
14952 On ch=3 n=68 v=111
14968 On ch=3 n=68 v=0
14976 On ch=3 n=67 v=111
15130 On ch=3 n=67 v=0
15168 On ch=3 n=68 v=111
15245 On ch=3 n=68 v=0
15264 On ch=3 n=69 v=111
15341 On ch=3 n=69 v=0
15360 On ch=3 n=70 v=111
15514 On ch=3 n=70 v=0
15552 On ch=3 n=71 v=111
15560 On ch=3 n=71 v=0
15560 On ch=3 n=72 v=111
15568 On ch=3 n=72 v=0
15568 On ch=3 n=71 v=111
15576 On ch=3 n=71 v=0
15576 On ch=3 n=72 v=111
15584 On ch=3 n=72 v=0
15584 On ch=3 n=71 v=111
15592 On ch=3 n=71 v=0
15592 On ch=3 n=72 v=111
15600 On ch=3 n=72 v=0
15600 On ch=3 n=71 v=111
15608 On ch=3 n=71 v=0
15608 On ch=3 n=72 v=111
15616 On ch=3 n=72 v=0
15616 On ch=3 n=71 v=111
15624 On ch=3 n=71 v=0
15624 On ch=3 n=72 v=111
15632 On ch=3 n=72 v=0
15632 On ch=3 n=71 v=111
15640 On ch=3 n=71 v=0
15640 On ch=3 n=72 v=111
15648 On ch=3 n=72 v=0
15648 On ch=3 n=71 v=111
15656 On ch=3 n=71 v=0
15656 On ch=3 n=72 v=111
15664 On ch=3 n=72 v=0
15664 On ch=3 n=71 v=111
15672 On ch=3 n=71 v=0
15672 On ch=3 n=72 v=111
15680 On ch=3 n=72 v=0
15680 On ch=3 n=71 v=111
15688 On ch=3 n=71 v=0
15688 On ch=3 n=72 v=111
15696 On ch=3 n=72 v=0
15696 On ch=3 n=71 v=111
15704 On ch=3 n=71 v=0
15704 On ch=3 n=72 v=111
15712 On ch=3 n=72 v=0
15712 On ch=3 n=71 v=111
15720 On ch=3 n=71 v=0
15720 On ch=3 n=69 v=111
15728 On ch=3 n=69 v=0
15728 On ch=3 n=71 v=111
15744 On ch=3 n=71 v=0
15744 On ch=3 n=72 v=111
15782 On ch=3 n=72 v=0
16512 Par ch=3 c=11 v=64
16512 On ch=3 n=79 v=111
16524 Par ch=3 c=11 v=63
16532 Par ch=3 c=11 v=62
16540 Par ch=3 c=11 v=61
16548 Par ch=3 c=11 v=60
16560 Par ch=3 c=11 v=59
16568 Par ch=3 c=11 v=58
16576 Par ch=3 c=11 v=57
16584 Par ch=3 c=11 v=56
16596 Par ch=3 c=11 v=55
16604 Par ch=3 c=11 v=54
16612 Par ch=3 c=11 v=53
16620 Par ch=3 c=11 v=52
16632 Par ch=3 c=11 v=51
16640 Par ch=3 c=11 v=50
16648 Par ch=3 c=11 v=49
16656 Par ch=3 c=11 v=48
16668 Par ch=3 c=11 v=47
16676 Par ch=3 c=11 v=46
16684 Par ch=3 c=11 v=45
16692 Par ch=3 c=11 v=44
16704 Par ch=3 c=11 v=43
16712 Par ch=3 c=11 v=42
16720 Par ch=3 c=11 v=41
16728 Par ch=3 c=11 v=40
16740 Par ch=3 c=11 v=39
16748 Par ch=3 c=11 v=38
16756 Par ch=3 c=11 v=37
16764 Par ch=3 c=11 v=36
16776 Par ch=3 c=11 v=35
16784 Par ch=3 c=11 v=34
16792 Par ch=3 c=11 v=33
16800 On ch=3 n=79 v=0
16800 Par ch=3 c=11 v=32
16800 On ch=3 n=75 v=111
16804 Par ch=3 c=11 v=33
16808 Par ch=3 c=11 v=34
16812 Par ch=3 c=11 v=36
16816 Par ch=3 c=11 v=37
16820 Par ch=3 c=11 v=38
16824 Par ch=3 c=11 v=40
16828 Par ch=3 c=11 v=41
16832 Par ch=3 c=11 v=43
16836 Par ch=3 c=11 v=44
16840 Par ch=3 c=11 v=45
16844 Par ch=3 c=11 v=47
16848 Par ch=3 c=11 v=48
16852 Par ch=3 c=11 v=49
16856 Par ch=3 c=11 v=51
16860 Par ch=3 c=11 v=52
16864 Par ch=3 c=11 v=54
16868 Par ch=3 c=11 v=55
16872 Par ch=3 c=11 v=56
16876 Par ch=3 c=11 v=58
16880 Par ch=3 c=11 v=59
16884 Par ch=3 c=11 v=60
16888 Par ch=3 c=11 v=62
16892 Par ch=3 c=11 v=63
16896 On ch=3 n=75 v=0
16896 Par ch=3 c=11 v=64
16896 On ch=3 n=74 v=111
16900 Par ch=3 c=11 v=63
16904 Par ch=3 c=11 v=62
16908 Par ch=3 c=11 v=60
16912 Par ch=3 c=11 v=59
16916 Par ch=3 c=11 v=58
16920 Par ch=3 c=11 v=56
16924 Par ch=3 c=11 v=55
16928 Par ch=3 c=11 v=54
16932 Par ch=3 c=11 v=52
16936 Par ch=3 c=11 v=51
16940 Par ch=3 c=11 v=50
16944 Par ch=3 c=11 v=48
16948 Par ch=3 c=11 v=47
16952 Par ch=3 c=11 v=46
16956 Par ch=3 c=11 v=44
16960 Par ch=3 c=11 v=43
16964 Par ch=3 c=11 v=42
16968 Par ch=3 c=11 v=40
16972 Par ch=3 c=11 v=39
16976 Par ch=3 c=11 v=38
16980 Par ch=3 c=11 v=36
16984 Par ch=3 c=11 v=35
16988 Par ch=3 c=11 v=34
16992 On ch=3 n=74 v=0
16992 Par ch=3 c=11 v=32
16992 On ch=3 n=72 v=111
17069 On ch=3 n=72 v=0
17184 Par ch=3 c=11 v=65
17184 On ch=3 n=75 v=79
17188 Par ch=3 c=11 v=64
17192 Par ch=3 c=11 v=63
17196 Par ch=3 c=11 v=61
17200 Par ch=3 c=11 v=60
17204 Par ch=3 c=11 v=59
17208 Par ch=3 c=11 v=57
17212 Par ch=3 c=11 v=56
17216 Par ch=3 c=11 v=54
17220 Par ch=3 c=11 v=53
17222 On ch=3 n=75 v=0
17224 Par ch=3 c=11 v=52
17228 Par ch=3 c=11 v=50
17232 Par ch=3 c=11 v=49
17232 On ch=3 n=74 v=79
17236 Par ch=3 c=11 v=48
17240 Par ch=3 c=11 v=46
17244 Par ch=3 c=11 v=45
17248 Par ch=3 c=11 v=43
17252 Par ch=3 c=11 v=42
17256 Par ch=3 c=11 v=41
17260 Par ch=3 c=11 v=39
17264 Par ch=3 c=11 v=38
17268 Par ch=3 c=11 v=37
17270 On ch=3 n=74 v=0
17272 Par ch=3 c=11 v=35
17276 Par ch=3 c=11 v=34
17280 Par ch=3 c=11 v=32
17280 On ch=3 n=74 v=79
17328 On ch=3 n=74 v=0
17328 On ch=3 n=72 v=79
17366 On ch=3 n=72 v=0
17376 Par ch=3 c=11 v=64
17376 On ch=3 n=75 v=79
17384 Par ch=3 c=11 v=63
17388 Par ch=3 c=11 v=62
17392 Par ch=3 c=11 v=61
17396 Par ch=3 c=11 v=60
17400 Par ch=3 c=11 v=59
17404 Par ch=3 c=11 v=58
17408 Par ch=3 c=11 v=57
17412 Par ch=3 c=11 v=56
17414 On ch=3 n=75 v=0
17420 Par ch=3 c=11 v=55
17424 Par ch=3 c=11 v=54
17424 On ch=3 n=74 v=79
17428 Par ch=3 c=11 v=53
17432 Par ch=3 c=11 v=52
17436 Par ch=3 c=11 v=51
17440 Par ch=3 c=11 v=50
17444 Par ch=3 c=11 v=49
17448 Par ch=3 c=11 v=48
17456 Par ch=3 c=11 v=47
17460 Par ch=3 c=11 v=46
17462 On ch=3 n=74 v=0
17464 Par ch=3 c=11 v=45
17468 Par ch=3 c=11 v=44
17472 Par ch=3 c=11 v=43
17472 On ch=3 n=74 v=79
17476 Par ch=3 c=11 v=42
17480 Par ch=3 c=11 v=41
17484 Par ch=3 c=11 v=40
17492 Par ch=3 c=11 v=39
17496 Par ch=3 c=11 v=38
17500 Par ch=3 c=11 v=37
17504 Par ch=3 c=11 v=36
17508 Par ch=3 c=11 v=35
17512 Par ch=3 c=11 v=34
17516 Par ch=3 c=11 v=33
17520 On ch=3 n=74 v=0
17520 Par ch=3 c=11 v=32
17520 On ch=3 n=72 v=79
17558 On ch=3 n=72 v=0
17568 On ch=3 n=75 v=79
17606 On ch=3 n=75 v=0
17616 On ch=3 n=79 v=79
17654 On ch=3 n=79 v=0
17664 Par ch=3 c=11 v=64
17664 On ch=3 n=82 v=47
17672 Par ch=3 c=11 v=63
17676 Par ch=3 c=11 v=62
17684 Par ch=3 c=11 v=61
17688 Par ch=3 c=11 v=60
17696 Par ch=3 c=11 v=59
17700 Par ch=3 c=11 v=58
17708 Par ch=3 c=11 v=57
17712 Par ch=3 c=11 v=56
17720 Par ch=3 c=11 v=55
17724 Par ch=3 c=11 v=54
17732 Par ch=3 c=11 v=53
17736 Par ch=3 c=11 v=52
17744 Par ch=3 c=11 v=51
17748 Par ch=3 c=11 v=50
17756 Par ch=3 c=11 v=49
17760 On ch=3 n=82 v=0
17760 Par ch=3 c=11 v=48
17760 On ch=3 n=80 v=47
17837 On ch=3 n=80 v=0
18048 Par ch=3 c=11 v=64
24000 Par ch=3 c=11 v=64
24000 On ch=3 n=67 v=111
24008 Par ch=3 c=11 v=63
24012 Par ch=3 c=11 v=62
24020 Par ch=3 c=11 v=61
24024 Par ch=3 c=11 v=60
24032 Par ch=3 c=11 v=59
24036 Par ch=3 c=11 v=58
24040 Par ch=3 c=11 v=57
24048 Par ch=3 c=11 v=56
24052 Par ch=3 c=11 v=55
24060 Par ch=3 c=11 v=54
24064 Par ch=3 c=11 v=53
24068 Par ch=3 c=11 v=52
24076 Par ch=3 c=11 v=51
24080 Par ch=3 c=11 v=50
24088 Par ch=3 c=11 v=49
24092 Par ch=3 c=11 v=48
24096 Par ch=3 c=11 v=47
24104 Par ch=3 c=11 v=46
24108 Par ch=3 c=11 v=45
24116 Par ch=3 c=11 v=44
24120 Par ch=3 c=11 v=43
24128 Par ch=3 c=11 v=42
24132 Par ch=3 c=11 v=41
24136 Par ch=3 c=11 v=40
24144 Par ch=3 c=11 v=39
24148 Par ch=3 c=11 v=38
24154 On ch=3 n=67 v=0
24156 Par ch=3 c=11 v=37
24160 Par ch=3 c=11 v=36
24164 Par ch=3 c=11 v=35
24172 Par ch=3 c=11 v=34
24176 Par ch=3 c=11 v=33
24184 Par ch=3 c=11 v=32
24384 Par ch=3 c=11 v=64
25728 On ch=3 n=60 v=79
25920 On ch=3 n=60 v=0
25920 On ch=3 n=62 v=79
25951 On ch=3 n=62 v=0
26016 On ch=3 n=65 v=79
26047 On ch=3 n=65 v=0
26088 On ch=3 n=68 v=79
26104 On ch=3 n=68 v=0
26112 On ch=3 n=72 v=79
26237 On ch=3 n=72 v=0
26368 Par ch=3 c=11 v=64
26368 On ch=3 n=60 v=47
26372 Par ch=3 c=11 v=65
26376 Par ch=3 c=11 v=66
26380 Par ch=3 c=11 v=67
26384 Par ch=3 c=11 v=68
26388 Par ch=3 c=11 v=69
26389 On ch=3 n=60 v=0
26392 Par ch=3 c=11 v=70
26396 Par ch=3 c=11 v=71
26400 Par ch=3 c=11 v=72
26400 On ch=3 n=62 v=47
26404 Par ch=3 c=11 v=73
26408 Par ch=3 c=11 v=74
26412 Par ch=3 c=11 v=75
26416 Par ch=3 c=11 v=76
26420 Par ch=3 c=11 v=77
26421 On ch=3 n=62 v=0
26424 Par ch=3 c=11 v=78
26428 Par ch=3 c=11 v=79
26432 Par ch=3 c=11 v=80
26432 On ch=3 n=65 v=47
26436 Par ch=3 c=11 v=81
26440 Par ch=3 c=11 v=82
26444 Par ch=3 c=11 v=83
26448 Par ch=3 c=11 v=84
26452 Par ch=3 c=11 v=85
26453 On ch=3 n=65 v=0
26456 Par ch=3 c=11 v=86
26460 Par ch=3 c=11 v=87
26464 Par ch=3 c=11 v=88
26464 On ch=3 n=68 v=47
26468 Par ch=3 c=11 v=89
26472 Par ch=3 c=11 v=90
26476 Par ch=3 c=11 v=91
26480 Par ch=3 c=11 v=92
26484 Par ch=3 c=11 v=93
26485 On ch=3 n=68 v=0
26488 Par ch=3 c=11 v=94
26492 Par ch=3 c=11 v=95
26496 On ch=3 n=72 v=47
26517 On ch=3 n=72 v=0
26560 Par ch=3 c=11 v=64
26560 On ch=3 n=60 v=47
26564 Par ch=3 c=11 v=65
26568 Par ch=3 c=11 v=66
26572 Par ch=3 c=11 v=67
26576 Par ch=3 c=11 v=68
26580 Par ch=3 c=11 v=69
26581 On ch=3 n=60 v=0
26584 Par ch=3 c=11 v=70
26588 Par ch=3 c=11 v=71
26592 Par ch=3 c=11 v=72
26592 On ch=3 n=62 v=47
26596 Par ch=3 c=11 v=73
26600 Par ch=3 c=11 v=74
26604 Par ch=3 c=11 v=75
26608 Par ch=3 c=11 v=76
26612 Par ch=3 c=11 v=77
26613 On ch=3 n=62 v=0
26616 Par ch=3 c=11 v=78
26620 Par ch=3 c=11 v=79
26624 Par ch=3 c=11 v=80
26624 On ch=3 n=65 v=47
26628 Par ch=3 c=11 v=81
26632 Par ch=3 c=11 v=82
26636 Par ch=3 c=11 v=83
26640 Par ch=3 c=11 v=84
26644 Par ch=3 c=11 v=85
26645 On ch=3 n=65 v=0
26648 Par ch=3 c=11 v=86
26652 Par ch=3 c=11 v=87
26656 Par ch=3 c=11 v=88
26656 On ch=3 n=68 v=47
26660 Par ch=3 c=11 v=89
26664 Par ch=3 c=11 v=90
26668 Par ch=3 c=11 v=91
26672 Par ch=3 c=11 v=92
26676 Par ch=3 c=11 v=93
26677 On ch=3 n=68 v=0
26680 Par ch=3 c=11 v=94
26684 Par ch=3 c=11 v=95
26688 On ch=3 n=72 v=47
26709 On ch=3 n=72 v=0
26752 Par ch=3 c=11 v=64
26752 On ch=3 n=60 v=47
26756 Par ch=3 c=11 v=65
26760 Par ch=3 c=11 v=66
26764 Par ch=3 c=11 v=67
26768 Par ch=3 c=11 v=68
26772 Par ch=3 c=11 v=69
26773 On ch=3 n=60 v=0
26776 Par ch=3 c=11 v=70
26780 Par ch=3 c=11 v=71
26784 Par ch=3 c=11 v=72
26784 On ch=3 n=62 v=47
26788 Par ch=3 c=11 v=73
26792 Par ch=3 c=11 v=74
26796 Par ch=3 c=11 v=75
26800 Par ch=3 c=11 v=76
26804 Par ch=3 c=11 v=77
26805 On ch=3 n=62 v=0
26808 Par ch=3 c=11 v=78
26812 Par ch=3 c=11 v=79
26816 Par ch=3 c=11 v=80
26816 On ch=3 n=65 v=47
26820 Par ch=3 c=11 v=81
26824 Par ch=3 c=11 v=82
26828 Par ch=3 c=11 v=83
26832 Par ch=3 c=11 v=84
26836 Par ch=3 c=11 v=85
26837 On ch=3 n=65 v=0
26840 Par ch=3 c=11 v=86
26844 Par ch=3 c=11 v=87
26848 Par ch=3 c=11 v=88
26848 On ch=3 n=68 v=47
26852 Par ch=3 c=11 v=89
26856 Par ch=3 c=11 v=90
26860 Par ch=3 c=11 v=91
26864 Par ch=3 c=11 v=92
26868 Par ch=3 c=11 v=93
26869 On ch=3 n=68 v=0
26872 Par ch=3 c=11 v=94
26876 Par ch=3 c=11 v=95
26880 On ch=3 n=72 v=47
26911 On ch=3 n=72 v=0
26976 Par ch=3 c=11 v=64
27136 Par ch=3 c=11 v=64
27136 On ch=3 n=60 v=47
27140 Par ch=3 c=11 v=65
27144 Par ch=3 c=11 v=67
27148 Par ch=3 c=11 v=68
27152 Par ch=3 c=11 v=70
27156 Par ch=3 c=11 v=71
27157 On ch=3 n=60 v=0
27160 Par ch=3 c=11 v=73
27164 Par ch=3 c=11 v=74
27168 Par ch=3 c=11 v=76
27168 On ch=3 n=62 v=47
27172 Par ch=3 c=11 v=77
27176 Par ch=3 c=11 v=79
27180 Par ch=3 c=11 v=80
27184 Par ch=3 c=11 v=82
27188 Par ch=3 c=11 v=83
27189 On ch=3 n=62 v=0
27192 Par ch=3 c=11 v=85
27196 Par ch=3 c=11 v=86
27200 Par ch=3 c=11 v=88
27200 On ch=3 n=65 v=47
27204 Par ch=3 c=11 v=90
27208 Par ch=3 c=11 v=91
27212 Par ch=3 c=11 v=93
27216 Par ch=3 c=11 v=94
27220 Par ch=3 c=11 v=96
27221 On ch=3 n=65 v=0
27224 Par ch=3 c=11 v=97
27228 Par ch=3 c=11 v=99
27232 Par ch=3 c=11 v=100
27232 On ch=3 n=68 v=47
27236 Par ch=3 c=11 v=102
27240 Par ch=3 c=11 v=103
27244 Par ch=3 c=11 v=105
27248 Par ch=3 c=11 v=106
27252 Par ch=3 c=11 v=108
27253 On ch=3 n=68 v=0
27256 Par ch=3 c=11 v=109
27260 Par ch=3 c=11 v=111
27264 On ch=3 n=72 v=47
27295 On ch=3 n=72 v=0
27520 Par ch=3 c=11 v=64
27520 On ch=3 n=60 v=47
27524 Par ch=3 c=11 v=65
27528 Par ch=3 c=11 v=67
27532 Par ch=3 c=11 v=68
27536 Par ch=3 c=11 v=70
27540 Par ch=3 c=11 v=71
27541 On ch=3 n=60 v=0
27544 Par ch=3 c=11 v=73
27548 Par ch=3 c=11 v=74
27552 Par ch=3 c=11 v=76
27552 On ch=3 n=63 v=47
27556 Par ch=3 c=11 v=77
27560 Par ch=3 c=11 v=79
27564 Par ch=3 c=11 v=80
27568 Par ch=3 c=11 v=82
27572 Par ch=3 c=11 v=83
27573 On ch=3 n=63 v=0
27576 Par ch=3 c=11 v=85
27580 Par ch=3 c=11 v=86
27584 Par ch=3 c=11 v=88
27584 On ch=3 n=67 v=47
27588 Par ch=3 c=11 v=90
27592 Par ch=3 c=11 v=91
27596 Par ch=3 c=11 v=93
27600 Par ch=3 c=11 v=94
27604 Par ch=3 c=11 v=96
27605 On ch=3 n=67 v=0
27608 Par ch=3 c=11 v=97
27612 Par ch=3 c=11 v=99
27616 Par ch=3 c=11 v=100
27616 On ch=3 n=72 v=47
27620 Par ch=3 c=11 v=102
27624 Par ch=3 c=11 v=103
27628 Par ch=3 c=11 v=105
27632 Par ch=3 c=11 v=106
27636 Par ch=3 c=11 v=108
27637 On ch=3 n=72 v=0
27640 Par ch=3 c=11 v=109
27644 Par ch=3 c=11 v=111
27648 On ch=3 n=75 v=47
27696 Par ch=3 c=11 v=64
27955 On ch=3 n=75 v=0
28032 On ch=3 n=75 v=47
28080 Par ch=3 c=11 v=64
28088 Par ch=3 c=11 v=65
28092 Par ch=3 c=11 v=66
28096 Par ch=3 c=11 v=67
28104 Par ch=3 c=11 v=68
28108 Par ch=3 c=11 v=69
28112 Par ch=3 c=11 v=70
28120 Par ch=3 c=11 v=71
28124 Par ch=3 c=11 v=72
28128 Par ch=3 c=11 v=73
28136 Par ch=3 c=11 v=74
28140 Par ch=3 c=11 v=75
28144 Par ch=3 c=11 v=76
28152 Par ch=3 c=11 v=77
28156 Par ch=3 c=11 v=78
28160 Par ch=3 c=11 v=79
28168 Par ch=3 c=11 v=80
28172 Par ch=3 c=11 v=81
28176 Par ch=3 c=11 v=82
28184 Par ch=3 c=11 v=83
28188 Par ch=3 c=11 v=84
28192 Par ch=3 c=11 v=85
28200 Par ch=3 c=11 v=86
28204 Par ch=3 c=11 v=87
28208 Par ch=3 c=11 v=88
28216 Par ch=3 c=11 v=89
28220 Par ch=3 c=11 v=90
28224 Par ch=3 c=11 v=91
28232 Par ch=3 c=11 v=92
28236 Par ch=3 c=11 v=93
28240 Par ch=3 c=11 v=94
28248 Par ch=3 c=11 v=95
28252 Par ch=3 c=11 v=96
28256 Par ch=3 c=11 v=97
28264 Par ch=3 c=11 v=98
28268 Par ch=3 c=11 v=99
28272 Par ch=3 c=11 v=100
28280 Par ch=3 c=11 v=101
28284 Par ch=3 c=11 v=102
28288 Par ch=3 c=11 v=103
28296 Par ch=3 c=11 v=104
28300 Par ch=3 c=11 v=105
28304 Par ch=3 c=11 v=106
28312 Par ch=3 c=11 v=107
28316 Par ch=3 c=11 v=108
28320 Par ch=3 c=11 v=109
28328 Par ch=3 c=11 v=110
28332 Par ch=3 c=11 v=111
28336 Par ch=3 c=11 v=112
28344 Par ch=3 c=11 v=113
28348 Par ch=3 c=11 v=114
28352 Par ch=3 c=11 v=115
28360 Par ch=3 c=11 v=116
28364 Par ch=3 c=11 v=117
28368 Par ch=3 c=11 v=118
28376 Par ch=3 c=11 v=119
28380 Par ch=3 c=11 v=120
28384 Par ch=3 c=11 v=121
28392 Par ch=3 c=11 v=122
28396 Par ch=3 c=11 v=123
28400 Par ch=3 c=11 v=124
28408 Par ch=3 c=11 v=125
28412 Par ch=3 c=11 v=126
28454 On ch=3 n=75 v=0
28512 Par ch=3 c=11 v=64
29088 On ch=3 n=82 v=47
29119 On ch=3 n=82 v=0
29160 On ch=3 n=84 v=47
29176 On ch=3 n=84 v=0
29184 Par ch=3 c=11 v=64
29184 On ch=3 n=84 v=47
29200 Par ch=3 c=11 v=65
29216 Par ch=3 c=11 v=66
29232 Par ch=3 c=11 v=67
29248 Par ch=3 c=11 v=68
29261 On ch=3 n=84 v=0
29264 Par ch=3 c=11 v=69
29280 Par ch=3 c=11 v=70
29280 On ch=3 n=75 v=47
29296 Par ch=3 c=11 v=71
29311 On ch=3 n=75 v=0
29312 Par ch=3 c=11 v=72
29328 Par ch=3 c=11 v=73
29344 Par ch=3 c=11 v=74
29352 On ch=3 n=80 v=47
29360 Par ch=3 c=11 v=75
29368 On ch=3 n=80 v=0
29376 Par ch=3 c=11 v=76
29376 On ch=3 n=80 v=47
29388 Par ch=3 c=11 v=77
29404 Par ch=3 c=11 v=78
29420 Par ch=3 c=11 v=79
29436 Par ch=3 c=11 v=80
29452 Par ch=3 c=11 v=81
29453 On ch=3 n=80 v=0
29468 Par ch=3 c=11 v=82
29472 On ch=3 n=82 v=47
29484 Par ch=3 c=11 v=83
29500 Par ch=3 c=11 v=84
29503 On ch=3 n=82 v=0
29516 Par ch=3 c=11 v=85
29532 Par ch=3 c=11 v=86
29544 On ch=3 n=84 v=47
29548 Par ch=3 c=11 v=87
29560 On ch=3 n=84 v=0
29564 Par ch=3 c=11 v=88
29568 On ch=3 n=84 v=47
29576 Par ch=3 c=11 v=89
29592 Par ch=3 c=11 v=90
29608 Par ch=3 c=11 v=91
29624 Par ch=3 c=11 v=92
29640 Par ch=3 c=11 v=93
29645 On ch=3 n=84 v=0
29656 Par ch=3 c=11 v=94
29664 On ch=3 n=75 v=47
29672 Par ch=3 c=11 v=95
29685 On ch=3 n=75 v=0
29688 Par ch=3 c=11 v=96
29696 On ch=3 n=72 v=47
29704 Par ch=3 c=11 v=97
29717 On ch=3 n=72 v=0
29720 Par ch=3 c=11 v=98
29728 On ch=3 n=75 v=47
29736 Par ch=3 c=11 v=99
29749 On ch=3 n=75 v=0
29752 Par ch=3 c=11 v=100
29760 On ch=3 n=80 v=47
29764 Par ch=3 c=11 v=101
29780 Par ch=3 c=11 v=102
29796 Par ch=3 c=11 v=103
29812 Par ch=3 c=11 v=104
29828 Par ch=3 c=11 v=105
29837 On ch=3 n=80 v=0
29844 Par ch=3 c=11 v=106
29856 On ch=3 n=82 v=47
29860 Par ch=3 c=11 v=107
29876 Par ch=3 c=11 v=108
29877 On ch=3 n=82 v=0
29888 On ch=3 n=80 v=47
29892 Par ch=3 c=11 v=109
29908 Par ch=3 c=11 v=110
29909 On ch=3 n=80 v=0
29920 On ch=3 n=82 v=47
29924 Par ch=3 c=11 v=111
29940 Par ch=3 c=11 v=112
29941 On ch=3 n=82 v=0
29952 Par ch=3 c=11 v=64
29952 On ch=3 n=84 v=47
30106 On ch=3 n=84 v=0
30240 Par ch=3 c=11 v=64
30240 On ch=3 n=72 v=95
30248 Par ch=3 c=11 v=65
30252 Par ch=3 c=11 v=66
30260 Par ch=3 c=11 v=67
30261 On ch=3 n=72 v=0
30264 Par ch=3 c=11 v=68
30272 Par ch=3 c=11 v=69
30272 On ch=3 n=75 v=95
30276 Par ch=3 c=11 v=70
30280 Par ch=3 c=11 v=71
30288 Par ch=3 c=11 v=72
30292 Par ch=3 c=11 v=73
30293 On ch=3 n=75 v=0
30300 Par ch=3 c=11 v=74
30304 Par ch=3 c=11 v=75
30304 On ch=3 n=80 v=95
30308 Par ch=3 c=11 v=76
30316 Par ch=3 c=11 v=77
30320 Par ch=3 c=11 v=78
30325 On ch=3 n=80 v=0
30328 Par ch=3 c=11 v=79
30332 Par ch=3 c=11 v=80
30336 On ch=3 n=84 v=95
30490 On ch=3 n=84 v=0
30624 Par ch=3 c=11 v=64
30624 On ch=3 n=72 v=95
30632 Par ch=3 c=11 v=65
30636 Par ch=3 c=11 v=66
30644 Par ch=3 c=11 v=67
30645 On ch=3 n=72 v=0
30648 Par ch=3 c=11 v=68
30656 Par ch=3 c=11 v=69
30656 On ch=3 n=75 v=95
30660 Par ch=3 c=11 v=70
30668 Par ch=3 c=11 v=71
30672 Par ch=3 c=11 v=72
30677 On ch=3 n=75 v=0
30680 Par ch=3 c=11 v=73
30684 Par ch=3 c=11 v=74
30688 On ch=3 n=80 v=95
30692 Par ch=3 c=11 v=75
30696 Par ch=3 c=11 v=76
30704 Par ch=3 c=11 v=77
30708 Par ch=3 c=11 v=78
30709 On ch=3 n=80 v=0
30716 Par ch=3 c=11 v=79
30720 On ch=3 n=79 v=95
30768 Par ch=3 c=11 v=32
32563 On ch=3 n=79 v=0
33024 Par ch=3 c=11 v=64
33408 Par ch=3 c=11 v=64
33408 On ch=3 n=79 v=111
33416 Par ch=3 c=11 v=63
33420 Par ch=3 c=11 v=62
33428 Par ch=3 c=11 v=61
33432 Par ch=3 c=11 v=60
33440 Par ch=3 c=11 v=59
33444 Par ch=3 c=11 v=58
33448 Par ch=3 c=11 v=57
33456 Par ch=3 c=11 v=56
33460 Par ch=3 c=11 v=55
33468 Par ch=3 c=11 v=54
33472 Par ch=3 c=11 v=53
33476 Par ch=3 c=11 v=52
33484 Par ch=3 c=11 v=51
33488 Par ch=3 c=11 v=50
33496 Par ch=3 c=11 v=49
33500 Par ch=3 c=11 v=48
33504 On ch=3 n=79 v=0
33504 Par ch=3 c=11 v=48
33504 On ch=3 n=77 v=111
33516 Par ch=3 c=11 v=49
33528 Par ch=3 c=11 v=50
33540 Par ch=3 c=11 v=51
33552 Par ch=3 c=11 v=52
33564 Par ch=3 c=11 v=53
33576 Par ch=3 c=11 v=54
33588 Par ch=3 c=11 v=55
33600 Par ch=3 c=11 v=56
33612 Par ch=3 c=11 v=57
33624 Par ch=3 c=11 v=58
33636 Par ch=3 c=11 v=59
33648 Par ch=3 c=11 v=60
33660 Par ch=3 c=11 v=61
33672 Par ch=3 c=11 v=62
33684 Par ch=3 c=11 v=63
33696 On ch=3 n=77 v=0
33696 Par ch=3 c=11 v=64
33696 On ch=3 n=80 v=111
33744 On ch=3 n=80 v=0
33744 On ch=3 n=79 v=111
33782 On ch=3 n=79 v=0
33792 On ch=3 n=77 v=111
33888 On ch=3 n=77 v=0
33888 On ch=3 n=75 v=111
33936 On ch=3 n=75 v=0
33936 On ch=3 n=74 v=111
33984 On ch=3 n=74 v=0
33984 Par ch=3 c=11 v=64
33984 On ch=3 n=71 v=111
33996 Par ch=3 c=11 v=65
34008 Par ch=3 c=11 v=66
34020 Par ch=3 c=11 v=67
34032 On ch=3 n=71 v=0
34032 Par ch=3 c=11 v=68
34032 On ch=3 n=72 v=111
34044 Par ch=3 c=11 v=69
34052 Par ch=3 c=11 v=70
34064 Par ch=3 c=11 v=71
34076 Par ch=3 c=11 v=72
34080 On ch=3 n=72 v=0
34080 On ch=3 n=77 v=111
34088 Par ch=3 c=11 v=73
34100 Par ch=3 c=11 v=74
34112 Par ch=3 c=11 v=75
34120 Par ch=3 c=11 v=76
34128 On ch=3 n=77 v=0
34128 On ch=3 n=75 v=111
34132 Par ch=3 c=11 v=77
34144 Par ch=3 c=11 v=78
34156 Par ch=3 c=11 v=79
34166 On ch=3 n=75 v=0
34168 Par ch=3 c=11 v=80
34176 Par ch=3 c=11 v=64
34176 On ch=3 n=74 v=111
34188 Par ch=3 c=11 v=63
34200 Par ch=3 c=11 v=62
34212 Par ch=3 c=11 v=61
34224 Par ch=3 c=11 v=60
34236 Par ch=3 c=11 v=59
34244 Par ch=3 c=11 v=58
34256 Par ch=3 c=11 v=57
34268 Par ch=3 c=11 v=56
34280 Par ch=3 c=11 v=55
34292 Par ch=3 c=11 v=54
34304 Par ch=3 c=11 v=53
34312 Par ch=3 c=11 v=52
34324 Par ch=3 c=11 v=51
34336 Par ch=3 c=11 v=50
34348 Par ch=3 c=11 v=49
34360 Par ch=3 c=11 v=48
34368 Par ch=3 c=11 v=47
34380 Par ch=3 c=11 v=46
34392 Par ch=3 c=11 v=45
34404 Par ch=3 c=11 v=44
34416 Par ch=3 c=11 v=43
34428 Par ch=3 c=11 v=42
34436 Par ch=3 c=11 v=41
34448 Par ch=3 c=11 v=40
34460 Par ch=3 c=11 v=39
34472 Par ch=3 c=11 v=38
34484 Par ch=3 c=11 v=37
34496 Par ch=3 c=11 v=36
34504 Par ch=3 c=11 v=35
34516 Par ch=3 c=11 v=34
34528 Par ch=3 c=11 v=33
34540 Par ch=3 c=11 v=32
34790 On ch=3 n=74 v=0
34944 Par ch=3 c=11 v=64
34944 On ch=3 n=70 v=111
34956 Par ch=3 c=11 v=63
34968 Par ch=3 c=11 v=62
34980 Par ch=3 c=11 v=61
34992 Par ch=3 c=11 v=60
35004 Par ch=3 c=11 v=59
35012 Par ch=3 c=11 v=58
35024 Par ch=3 c=11 v=57
35036 Par ch=3 c=11 v=56
35048 Par ch=3 c=11 v=55
35060 Par ch=3 c=11 v=54
35072 Par ch=3 c=11 v=53
35080 Par ch=3 c=11 v=52
35092 Par ch=3 c=11 v=51
35104 Par ch=3 c=11 v=50
35116 Par ch=3 c=11 v=49
35128 Par ch=3 c=11 v=48
35136 Par ch=3 c=11 v=47
35148 Par ch=3 c=11 v=46
35160 Par ch=3 c=11 v=45
35172 Par ch=3 c=11 v=44
35184 Par ch=3 c=11 v=43
35196 Par ch=3 c=11 v=42
35204 Par ch=3 c=11 v=41
35216 Par ch=3 c=11 v=40
35228 Par ch=3 c=11 v=39
35240 Par ch=3 c=11 v=38
35252 Par ch=3 c=11 v=37
35264 Par ch=3 c=11 v=36
35272 Par ch=3 c=11 v=35
35284 Par ch=3 c=11 v=34
35296 Par ch=3 c=11 v=33
35308 Par ch=3 c=11 v=32
35558 On ch=3 n=70 v=0
35712 Par ch=3 c=11 v=64
35712 On ch=3 n=72 v=95
35760 Par ch=3 c=11 v=32
35935 On ch=3 n=72 v=0
35976 On ch=3 n=70 v=95
35992 On ch=3 n=70 v=0
36000 On ch=3 n=68 v=95
36031 On ch=3 n=68 v=0
36072 On ch=3 n=67 v=95
36088 On ch=3 n=67 v=0
36096 Par ch=3 c=11 v=64
36096 On ch=3 n=72 v=95
36144 Par ch=3 c=11 v=32
36319 On ch=3 n=72 v=0
36360 On ch=3 n=70 v=95
36376 On ch=3 n=70 v=0
36384 On ch=3 n=65 v=95
36415 On ch=3 n=65 v=0
36456 On ch=3 n=62 v=95
36472 On ch=3 n=62 v=0
36480 On ch=3 n=72 v=95
36511 On ch=3 n=72 v=0
36552 On ch=3 n=70 v=95
36568 On ch=3 n=70 v=0
36576 On ch=3 n=64 v=95
36607 On ch=3 n=64 v=0
36648 On ch=3 n=61 v=95
36664 On ch=3 n=61 v=0
36672 On ch=3 n=72 v=95
36703 On ch=3 n=72 v=0
36744 On ch=3 n=70 v=95
36760 On ch=3 n=70 v=0
36768 On ch=3 n=67 v=95
36799 On ch=3 n=67 v=0
36840 On ch=3 n=63 v=95
36856 On ch=3 n=63 v=0
36864 On ch=3 n=62 v=95
36902 On ch=3 n=62 v=0
37248 Par ch=3 c=11 v=64
39552 On ch=3 n=67 v=47
39706 On ch=3 n=67 v=0
39744 Par ch=3 c=11 v=64
39744 On ch=3 n=69 v=47
39752 Par ch=3 c=11 v=65
39756 Par ch=3 c=11 v=66
39764 Par ch=3 c=11 v=67
39768 Par ch=3 c=11 v=68
39776 Par ch=3 c=11 v=69
39780 Par ch=3 c=11 v=70
39788 Par ch=3 c=11 v=71
39792 Par ch=3 c=11 v=72
39800 Par ch=3 c=11 v=73
39804 Par ch=3 c=11 v=74
39808 Par ch=3 c=11 v=75
39816 Par ch=3 c=11 v=76
39820 Par ch=3 c=11 v=77
39821 On ch=3 n=69 v=0
39828 Par ch=3 c=11 v=78
39832 Par ch=3 c=11 v=79
39840 Par ch=3 c=11 v=80
39840 On ch=3 n=70 v=47
39844 Par ch=3 c=11 v=81
39852 Par ch=3 c=11 v=82
39856 Par ch=3 c=11 v=83
39864 Par ch=3 c=11 v=84
39868 Par ch=3 c=11 v=85
39871 On ch=3 n=70 v=0
39872 Par ch=3 c=11 v=86
39880 Par ch=3 c=11 v=87
39884 Par ch=3 c=11 v=88
39892 Par ch=3 c=11 v=89
39896 Par ch=3 c=11 v=90
39904 Par ch=3 c=11 v=91
39908 Par ch=3 c=11 v=92
39912 On ch=3 n=74 v=47
39916 Par ch=3 c=11 v=93
39920 Par ch=3 c=11 v=94
39928 On ch=3 n=74 v=0
39928 Par ch=3 c=11 v=95
39932 Par ch=3 c=11 v=96
39936 On ch=3 n=79 v=47
39944 Par ch=3 c=11 v=96
39948 Par ch=3 c=11 v=97
39952 Par ch=3 c=11 v=98
39960 Par ch=3 c=11 v=99
39964 Par ch=3 c=11 v=100
39968 Par ch=3 c=11 v=101
39976 Par ch=3 c=11 v=102
39980 Par ch=3 c=11 v=103
39984 Par ch=3 c=11 v=104
39992 Par ch=3 c=11 v=105
39996 Par ch=3 c=11 v=106
40000 Par ch=3 c=11 v=107
40008 Par ch=3 c=11 v=108
40012 Par ch=3 c=11 v=109
40016 Par ch=3 c=11 v=110
40024 Par ch=3 c=11 v=111
40028 Par ch=3 c=11 v=112
40032 Par ch=3 c=11 v=112
40040 Par ch=3 c=11 v=111
40044 Par ch=3 c=11 v=110
40052 Par ch=3 c=11 v=109
40056 Par ch=3 c=11 v=108
40064 Par ch=3 c=11 v=107
40068 Par ch=3 c=11 v=106
40072 Par ch=3 c=11 v=105
40080 Par ch=3 c=11 v=104
40084 Par ch=3 c=11 v=103
40090 On ch=3 n=79 v=0
40092 Par ch=3 c=11 v=102
40096 Par ch=3 c=11 v=101
40100 Par ch=3 c=11 v=100
40108 Par ch=3 c=11 v=99
40112 Par ch=3 c=11 v=98
40120 Par ch=3 c=11 v=97
40124 Par ch=3 c=11 v=96
40128 On ch=3 n=78 v=47
40243 On ch=3 n=78 v=0
40272 On ch=3 n=74 v=47
40310 On ch=3 n=74 v=0
40320 On ch=3 n=78 v=47
40344 Par ch=3 c=11 v=96
40364 Par ch=3 c=11 v=95
40388 Par ch=3 c=11 v=94
40408 Par ch=3 c=11 v=93
40432 Par ch=3 c=11 v=92
40452 Par ch=3 c=11 v=91
40474 On ch=3 n=78 v=0
40476 Par ch=3 c=11 v=90
40496 Par ch=3 c=11 v=89
40512 On ch=3 n=77 v=47
40520 Par ch=3 c=11 v=88
40540 Par ch=3 c=11 v=87
40564 Par ch=3 c=11 v=86
40584 Par ch=3 c=11 v=85
40608 Par ch=3 c=11 v=84
40627 On ch=3 n=77 v=0
40628 Par ch=3 c=11 v=83
40652 Par ch=3 c=11 v=82
40656 On ch=3 n=74 v=47
40672 Par ch=3 c=11 v=81
40694 On ch=3 n=74 v=0
40696 Par ch=3 c=11 v=80
40704 On ch=3 n=77 v=47
40716 Par ch=3 c=11 v=79
40740 Par ch=3 c=11 v=78
40760 Par ch=3 c=11 v=77
40784 Par ch=3 c=11 v=76
40804 Par ch=3 c=11 v=75
40828 Par ch=3 c=11 v=74
40848 Par ch=3 c=11 v=73
40858 On ch=3 n=77 v=0
40872 Par ch=3 c=11 v=72
40892 Par ch=3 c=11 v=71
40896 On ch=3 n=75 v=47
40916 Par ch=3 c=11 v=70
40936 Par ch=3 c=11 v=69
40960 Par ch=3 c=11 v=68
40980 Par ch=3 c=11 v=67
41004 Par ch=3 c=11 v=66
41011 On ch=3 n=75 v=0
41024 Par ch=3 c=11 v=65
41040 On ch=3 n=72 v=47
41048 Par ch=3 c=11 v=64
41078 On ch=3 n=72 v=0
41088 Par ch=3 c=11 v=64
41088 On ch=3 n=67 v=47
41088 On ch=3 n=75 v=47
41096 Par ch=3 c=11 v=65
41100 Par ch=3 c=11 v=66
41108 Par ch=3 c=11 v=67
41112 Par ch=3 c=11 v=68
41120 Par ch=3 c=11 v=69
41124 Par ch=3 c=11 v=70
41128 Par ch=3 c=11 v=71
41136 Par ch=3 c=11 v=72
41140 Par ch=3 c=11 v=73
41148 Par ch=3 c=11 v=74
41152 Par ch=3 c=11 v=75
41156 Par ch=3 c=11 v=76
41164 Par ch=3 c=11 v=77
41168 Par ch=3 c=11 v=78
41176 Par ch=3 c=11 v=79
41180 Par ch=3 c=11 v=80
41184 Par ch=3 c=11 v=80
41192 Par ch=3 c=11 v=79
41196 Par ch=3 c=11 v=78
41204 Par ch=3 c=11 v=77
41208 Par ch=3 c=11 v=76
41216 Par ch=3 c=11 v=75
41220 Par ch=3 c=11 v=74
41228 Par ch=3 c=11 v=73
41232 Par ch=3 c=11 v=72
41240 Par ch=3 c=11 v=71
41242 On ch=3 n=75 v=0
41244 Par ch=3 c=11 v=70
41252 Par ch=3 c=11 v=69
41256 Par ch=3 c=11 v=68
41264 Par ch=3 c=11 v=67
41268 Par ch=3 c=11 v=66
41276 Par ch=3 c=11 v=65
41280 Par ch=3 c=11 v=64
41280 On ch=3 n=74 v=47
41376 On ch=3 n=67 v=0
41376 On ch=3 n=66 v=47
41395 On ch=3 n=74 v=0
41424 On ch=3 n=70 v=47
41453 On ch=3 n=66 v=0
41462 On ch=3 n=70 v=0
41472 Par ch=3 c=11 v=64
41472 On ch=3 n=67 v=47
41472 On ch=3 n=75 v=47
41480 Par ch=3 c=11 v=65
41484 Par ch=3 c=11 v=66
41492 Par ch=3 c=11 v=67
41496 Par ch=3 c=11 v=68
41504 Par ch=3 c=11 v=69
41508 Par ch=3 c=11 v=70
41512 Par ch=3 c=11 v=71
41520 Par ch=3 c=11 v=72
41524 Par ch=3 c=11 v=73
41532 Par ch=3 c=11 v=74
41536 Par ch=3 c=11 v=75
41540 Par ch=3 c=11 v=76
41548 Par ch=3 c=11 v=77
41552 Par ch=3 c=11 v=78
41560 Par ch=3 c=11 v=79
41564 Par ch=3 c=11 v=80
41568 Par ch=3 c=11 v=80
41576 Par ch=3 c=11 v=79
41580 Par ch=3 c=11 v=78
41588 Par ch=3 c=11 v=77
41592 Par ch=3 c=11 v=76
41600 Par ch=3 c=11 v=75
41604 Par ch=3 c=11 v=74
41612 Par ch=3 c=11 v=73
41616 Par ch=3 c=11 v=72
41624 Par ch=3 c=11 v=71
41626 On ch=3 n=75 v=0
41628 Par ch=3 c=11 v=70
41636 Par ch=3 c=11 v=69
41640 Par ch=3 c=11 v=68
41648 Par ch=3 c=11 v=67
41652 Par ch=3 c=11 v=66
41660 Par ch=3 c=11 v=65
41664 Par ch=3 c=11 v=64
41664 On ch=3 n=74 v=47
41760 On ch=3 n=67 v=0
41760 On ch=3 n=66 v=47
41779 On ch=3 n=74 v=0
41808 On ch=3 n=70 v=47
41837 On ch=3 n=66 v=0
41846 On ch=3 n=70 v=0
41856 Par ch=3 c=11 v=64
41856 On ch=3 n=75 v=31
41864 Par ch=3 c=11 v=65
41868 Par ch=3 c=11 v=66
41876 Par ch=3 c=11 v=67
41880 Par ch=3 c=11 v=68
41888 Par ch=3 c=11 v=69
41892 Par ch=3 c=11 v=70
41896 Par ch=3 c=11 v=71
41904 Par ch=3 c=11 v=72
41908 Par ch=3 c=11 v=73
41916 Par ch=3 c=11 v=74
41920 Par ch=3 c=11 v=75
41924 Par ch=3 c=11 v=76
41932 Par ch=3 c=11 v=77
41936 Par ch=3 c=11 v=78
41944 Par ch=3 c=11 v=79
41948 Par ch=3 c=11 v=80
41952 Par ch=3 c=11 v=80
41960 Par ch=3 c=11 v=79
41964 Par ch=3 c=11 v=78
41972 Par ch=3 c=11 v=77
41976 Par ch=3 c=11 v=76
41984 Par ch=3 c=11 v=75
41988 Par ch=3 c=11 v=74
41996 Par ch=3 c=11 v=73
42000 Par ch=3 c=11 v=72
42008 Par ch=3 c=11 v=71
42012 Par ch=3 c=11 v=70
42020 Par ch=3 c=11 v=69
42024 Par ch=3 c=11 v=68
42032 Par ch=3 c=11 v=67
42036 Par ch=3 c=11 v=66
42044 Par ch=3 c=11 v=65
42048 On ch=3 n=75 v=0
42048 Par ch=3 c=11 v=64
42048 On ch=3 n=74 v=31
42202 On ch=3 n=74 v=0
42240 Par ch=3 c=11 v=64
42240 On ch=3 n=75 v=31
42248 Par ch=3 c=11 v=65
42252 Par ch=3 c=11 v=66
42260 Par ch=3 c=11 v=67
42264 Par ch=3 c=11 v=68
42272 Par ch=3 c=11 v=69
42276 Par ch=3 c=11 v=70
42280 Par ch=3 c=11 v=71
42288 Par ch=3 c=11 v=72
42292 Par ch=3 c=11 v=73
42300 Par ch=3 c=11 v=74
42304 Par ch=3 c=11 v=75
42308 Par ch=3 c=11 v=76
42316 Par ch=3 c=11 v=77
42320 Par ch=3 c=11 v=78
42328 Par ch=3 c=11 v=79
42332 Par ch=3 c=11 v=80
42336 Par ch=3 c=11 v=80
42344 Par ch=3 c=11 v=79
42348 Par ch=3 c=11 v=78
42356 Par ch=3 c=11 v=77
42360 Par ch=3 c=11 v=76
42368 Par ch=3 c=11 v=75
42372 Par ch=3 c=11 v=74
42380 Par ch=3 c=11 v=73
42384 Par ch=3 c=11 v=72
42392 Par ch=3 c=11 v=71
42396 Par ch=3 c=11 v=70
42404 Par ch=3 c=11 v=69
42408 Par ch=3 c=11 v=68
42416 Par ch=3 c=11 v=67
42420 Par ch=3 c=11 v=66
42428 Par ch=3 c=11 v=65
42432 On ch=3 n=75 v=0
42432 Par ch=3 c=11 v=64
42432 On ch=3 n=74 v=31
42586 On ch=3 n=74 v=0
42624 Par ch=3 c=11 v=64
42624 On ch=3 n=75 v=31
42632 Par ch=3 c=11 v=65
42636 Par ch=3 c=11 v=66
42644 Par ch=3 c=11 v=67
42648 Par ch=3 c=11 v=68
42656 Par ch=3 c=11 v=69
42660 Par ch=3 c=11 v=70
42664 Par ch=3 c=11 v=71
42672 Par ch=3 c=11 v=72
42676 Par ch=3 c=11 v=73
42684 Par ch=3 c=11 v=74
42688 Par ch=3 c=11 v=75
42692 Par ch=3 c=11 v=76
42700 Par ch=3 c=11 v=77
42704 Par ch=3 c=11 v=78
42712 Par ch=3 c=11 v=79
42716 Par ch=3 c=11 v=80
42720 Par ch=3 c=11 v=80
42728 Par ch=3 c=11 v=79
42732 Par ch=3 c=11 v=78
42740 Par ch=3 c=11 v=77
42744 Par ch=3 c=11 v=76
42752 Par ch=3 c=11 v=75
42756 Par ch=3 c=11 v=74
42764 Par ch=3 c=11 v=73
42768 Par ch=3 c=11 v=72
42776 Par ch=3 c=11 v=71
42780 Par ch=3 c=11 v=70
42788 Par ch=3 c=11 v=69
42792 Par ch=3 c=11 v=68
42800 Par ch=3 c=11 v=67
42804 Par ch=3 c=11 v=66
42812 Par ch=3 c=11 v=65
42816 Par ch=3 c=11 v=64
43008 On ch=3 n=75 v=0
43008 On ch=3 n=74 v=31
43315 On ch=3 n=74 v=0
43392 Par ch=3 c=11 v=64
43392 On ch=3 n=75 v=31
43400 Par ch=3 c=11 v=65
43404 Par ch=3 c=11 v=66
43412 Par ch=3 c=11 v=67
43416 Par ch=3 c=11 v=68
43424 Par ch=3 c=11 v=69
43428 Par ch=3 c=11 v=70
43432 Par ch=3 c=11 v=71
43440 Par ch=3 c=11 v=72
43444 Par ch=3 c=11 v=73
43452 Par ch=3 c=11 v=74
43456 Par ch=3 c=11 v=75
43460 Par ch=3 c=11 v=76
43468 Par ch=3 c=11 v=77
43472 Par ch=3 c=11 v=78
43480 Par ch=3 c=11 v=79
43484 Par ch=3 c=11 v=80
43488 Par ch=3 c=11 v=80
43496 Par ch=3 c=11 v=79
43500 Par ch=3 c=11 v=78
43508 Par ch=3 c=11 v=77
43512 Par ch=3 c=11 v=76
43520 Par ch=3 c=11 v=75
43524 Par ch=3 c=11 v=74
43532 Par ch=3 c=11 v=73
43536 Par ch=3 c=11 v=72
43544 Par ch=3 c=11 v=71
43548 Par ch=3 c=11 v=70
43556 Par ch=3 c=11 v=69
43560 Par ch=3 c=11 v=68
43568 Par ch=3 c=11 v=67
43572 Par ch=3 c=11 v=66
43580 Par ch=3 c=11 v=65
43584 Par ch=3 c=11 v=64
43776 On ch=3 n=75 v=0
43776 On ch=3 n=74 v=15
44314 On ch=3 n=74 v=0
48000 On ch=3 n=81 v=31
48000 On ch=3 n=84 v=31
48096 On ch=3 n=84 v=0
48096 On ch=3 n=81 v=0
48096 On ch=3 n=79 v=31
48096 On ch=3 n=83 v=31
48192 On ch=3 n=83 v=0
48192 On ch=3 n=79 v=0
48192 On ch=3 n=77 v=31
48192 On ch=3 n=81 v=31
48288 On ch=3 n=81 v=0
48288 On ch=3 n=77 v=0
48288 On ch=3 n=76 v=31
48288 On ch=3 n=79 v=31
48336 On ch=3 n=79 v=0
48336 On ch=3 n=76 v=0
48336 On ch=3 n=74 v=31
48336 On ch=3 n=77 v=31
48384 On ch=3 n=77 v=0
48384 On ch=3 n=74 v=0
48384 On ch=3 n=72 v=31
48384 On ch=3 n=76 v=31
48461 On ch=3 n=76 v=0
48461 On ch=3 n=72 v=0
50304 Par ch=3 c=11 v=64
50304 On ch=3 n=76 v=47
50312 Par ch=3 c=11 v=65
50316 Par ch=3 c=11 v=66
50324 Par ch=3 c=11 v=67
50328 Par ch=3 c=11 v=68
50336 Par ch=3 c=11 v=69
50340 Par ch=3 c=11 v=70
50344 Par ch=3 c=11 v=71
50352 Par ch=3 c=11 v=72
50356 Par ch=3 c=11 v=73
50364 Par ch=3 c=11 v=74
50368 Par ch=3 c=11 v=75
50372 Par ch=3 c=11 v=76
50380 Par ch=3 c=11 v=77
50384 Par ch=3 c=11 v=78
50392 Par ch=3 c=11 v=79
50396 Par ch=3 c=11 v=80
50400 Par ch=3 c=11 v=80
50408 Par ch=3 c=11 v=79
50412 Par ch=3 c=11 v=78
50420 Par ch=3 c=11 v=77
50424 Par ch=3 c=11 v=76
50432 Par ch=3 c=11 v=75
50436 Par ch=3 c=11 v=74
50444 Par ch=3 c=11 v=73
50448 Par ch=3 c=11 v=72
50456 Par ch=3 c=11 v=71
50458 On ch=3 n=76 v=0
50460 Par ch=3 c=11 v=70
50468 Par ch=3 c=11 v=69
50472 Par ch=3 c=11 v=68
50480 Par ch=3 c=11 v=67
50484 Par ch=3 c=11 v=66
50492 Par ch=3 c=11 v=65
50496 Par ch=3 c=11 v=64
50496 On ch=3 n=75 v=47
50640 On ch=3 n=75 v=0
50640 On ch=3 n=71 v=47
50678 On ch=3 n=71 v=0
50688 Par ch=3 c=11 v=64
50688 On ch=3 n=75 v=47
50696 Par ch=3 c=11 v=65
50700 Par ch=3 c=11 v=66
50708 Par ch=3 c=11 v=67
50712 Par ch=3 c=11 v=68
50720 Par ch=3 c=11 v=69
50724 Par ch=3 c=11 v=70
50728 Par ch=3 c=11 v=71
50736 Par ch=3 c=11 v=72
50740 Par ch=3 c=11 v=73
50748 Par ch=3 c=11 v=74
50752 Par ch=3 c=11 v=75
50756 Par ch=3 c=11 v=76
50764 Par ch=3 c=11 v=77
50768 Par ch=3 c=11 v=78
50776 Par ch=3 c=11 v=79
50780 Par ch=3 c=11 v=80
50784 Par ch=3 c=11 v=80
50792 Par ch=3 c=11 v=79
50796 Par ch=3 c=11 v=78
50804 Par ch=3 c=11 v=77
50808 Par ch=3 c=11 v=76
50816 Par ch=3 c=11 v=75
50820 Par ch=3 c=11 v=74
50828 Par ch=3 c=11 v=73
50832 Par ch=3 c=11 v=72
50840 Par ch=3 c=11 v=71
50842 On ch=3 n=75 v=0
50844 Par ch=3 c=11 v=70
50852 Par ch=3 c=11 v=69
50856 Par ch=3 c=11 v=68
50864 Par ch=3 c=11 v=67
50868 Par ch=3 c=11 v=66
50876 Par ch=3 c=11 v=65
50880 Par ch=3 c=11 v=64
50880 On ch=3 n=73 v=47
51024 On ch=3 n=73 v=0
51024 On ch=3 n=69 v=47
51062 On ch=3 n=69 v=0
51072 Par ch=3 c=11 v=64
51072 On ch=3 n=73 v=47
51080 Par ch=3 c=11 v=65
51084 Par ch=3 c=11 v=66
51092 Par ch=3 c=11 v=67
51096 Par ch=3 c=11 v=68
51104 Par ch=3 c=11 v=69
51108 Par ch=3 c=11 v=70
51112 Par ch=3 c=11 v=71
51120 Par ch=3 c=11 v=72
51124 Par ch=3 c=11 v=73
51132 Par ch=3 c=11 v=74
51136 Par ch=3 c=11 v=75
51140 Par ch=3 c=11 v=76
51148 Par ch=3 c=11 v=77
51152 Par ch=3 c=11 v=78
51160 Par ch=3 c=11 v=79
51164 Par ch=3 c=11 v=80
51168 Par ch=3 c=11 v=80
51176 Par ch=3 c=11 v=79
51180 Par ch=3 c=11 v=78
51188 Par ch=3 c=11 v=77
51192 Par ch=3 c=11 v=76
51200 Par ch=3 c=11 v=75
51204 Par ch=3 c=11 v=74
51212 Par ch=3 c=11 v=73
51216 Par ch=3 c=11 v=72
51224 Par ch=3 c=11 v=71
51228 Par ch=3 c=11 v=70
51236 Par ch=3 c=11 v=69
51240 Par ch=3 c=11 v=68
51248 Par ch=3 c=11 v=67
51252 Par ch=3 c=11 v=66
51260 Par ch=3 c=11 v=65
51264 On ch=3 n=73 v=0
51264 Par ch=3 c=11 v=64
51264 On ch=3 n=71 v=47
51418 On ch=3 n=71 v=0
51456 Par ch=3 c=11 v=64
51456 On ch=3 n=73 v=47
51464 Par ch=3 c=11 v=65
51468 Par ch=3 c=11 v=66
51476 Par ch=3 c=11 v=67
51480 Par ch=3 c=11 v=68
51488 Par ch=3 c=11 v=69
51492 Par ch=3 c=11 v=70
51496 Par ch=3 c=11 v=71
51504 Par ch=3 c=11 v=72
51508 Par ch=3 c=11 v=73
51516 Par ch=3 c=11 v=74
51520 Par ch=3 c=11 v=75
51524 Par ch=3 c=11 v=76
51532 Par ch=3 c=11 v=77
51536 Par ch=3 c=11 v=78
51544 Par ch=3 c=11 v=79
51548 Par ch=3 c=11 v=80
51552 Par ch=3 c=11 v=80
51560 Par ch=3 c=11 v=79
51564 Par ch=3 c=11 v=78
51572 Par ch=3 c=11 v=77
51576 Par ch=3 c=11 v=76
51584 Par ch=3 c=11 v=75
51588 Par ch=3 c=11 v=74
51596 Par ch=3 c=11 v=73
51600 Par ch=3 c=11 v=72
51608 Par ch=3 c=11 v=71
51612 Par ch=3 c=11 v=70
51620 Par ch=3 c=11 v=69
51624 Par ch=3 c=11 v=68
51632 Par ch=3 c=11 v=67
51636 Par ch=3 c=11 v=66
51644 Par ch=3 c=11 v=65
51648 On ch=3 n=73 v=0
51648 Par ch=3 c=11 v=64
51648 On ch=3 n=71 v=47
52992 Par ch=3 c=11 v=64
53004 Par ch=3 c=11 v=63
53016 Par ch=3 c=11 v=62
53028 Par ch=3 c=11 v=61
53040 Par ch=3 c=11 v=60
53052 Par ch=3 c=11 v=59
53060 Par ch=3 c=11 v=58
53072 Par ch=3 c=11 v=57
53084 Par ch=3 c=11 v=56
53096 Par ch=3 c=11 v=55
53108 Par ch=3 c=11 v=54
53120 Par ch=3 c=11 v=53
53128 Par ch=3 c=11 v=52
53140 Par ch=3 c=11 v=51
53152 Par ch=3 c=11 v=50
53164 Par ch=3 c=11 v=49
53176 Par ch=3 c=11 v=48
53184 Par ch=3 c=11 v=47
53196 Par ch=3 c=11 v=46
53208 Par ch=3 c=11 v=45
53220 Par ch=3 c=11 v=44
53232 Par ch=3 c=11 v=43
53244 Par ch=3 c=11 v=42
53252 Par ch=3 c=11 v=41
53264 Par ch=3 c=11 v=40
53276 Par ch=3 c=11 v=39
53288 Par ch=3 c=11 v=38
53299 On ch=3 n=71 v=0
53300 Par ch=3 c=11 v=37
53312 Par ch=3 c=11 v=36
53320 Par ch=3 c=11 v=35
53332 Par ch=3 c=11 v=34
53344 Par ch=3 c=11 v=33
53356 Par ch=3 c=11 v=32
53760 Par ch=3 c=11 v=64
63072 Par ch=3 c=11 v=64
63072 On ch=3 n=76 v=31
63072 On ch=3 n=64 v=31
63092 Par ch=3 c=11 v=65
63108 Par ch=3 c=11 v=66
63124 Par ch=3 c=11 v=67
63140 Par ch=3 c=11 v=68
63160 Par ch=3 c=11 v=69
63176 Par ch=3 c=11 v=70
63192 Par ch=3 c=11 v=71
63208 Par ch=3 c=11 v=72
63228 Par ch=3 c=11 v=73
63244 Par ch=3 c=11 v=74
63260 Par ch=3 c=11 v=75
63264 On ch=3 n=64 v=0
63264 On ch=3 n=76 v=0
63264 On ch=3 n=77 v=31
63264 On ch=3 n=65 v=31
63276 Par ch=3 c=11 v=76
63296 Par ch=3 c=11 v=77
63312 On ch=3 n=65 v=0
63312 On ch=3 n=77 v=0
63312 Par ch=3 c=11 v=78
63312 On ch=3 n=86 v=31
63312 On ch=3 n=74 v=31
63328 Par ch=3 c=11 v=79
63344 Par ch=3 c=11 v=80
63360 On ch=3 n=74 v=0
63360 On ch=3 n=86 v=0
63360 On ch=3 n=86 v=31
63360 On ch=3 n=74 v=31
63456 On ch=3 n=74 v=0
63456 On ch=3 n=86 v=0
63456 Par ch=3 c=11 v=80
63456 On ch=3 n=80 v=31
63456 On ch=3 n=68 v=31
63472 Par ch=3 c=11 v=79
63488 Par ch=3 c=11 v=78
63504 Par ch=3 c=11 v=77
63520 Par ch=3 c=11 v=76
63536 Par ch=3 c=11 v=75
63552 Par ch=3 c=11 v=74
63568 Par ch=3 c=11 v=73
63584 Par ch=3 c=11 v=72
63600 Par ch=3 c=11 v=71
63616 Par ch=3 c=11 v=70
63632 Par ch=3 c=11 v=69
63648 On ch=3 n=68 v=0
63648 On ch=3 n=80 v=0
63648 Par ch=3 c=11 v=68
63648 On ch=3 n=81 v=31
63648 On ch=3 n=69 v=31
63664 Par ch=3 c=11 v=67
63680 Par ch=3 c=11 v=66
63696 Par ch=3 c=11 v=65
63712 Par ch=3 c=11 v=64
63725 On ch=3 n=69 v=0
63725 On ch=3 n=81 v=0
63744 Par ch=3 c=11 v=64
63744 On ch=3 n=88 v=31
63744 On ch=3 n=76 v=31
63756 Par ch=3 c=11 v=65
63768 Par ch=3 c=11 v=66
63780 Par ch=3 c=11 v=67
63792 Par ch=3 c=11 v=68
63804 Par ch=3 c=11 v=69
63816 Par ch=3 c=11 v=70
63828 Par ch=3 c=11 v=71
63840 On ch=3 n=76 v=0
63840 On ch=3 n=88 v=0
63840 Par ch=3 c=11 v=72
63840 On ch=3 n=82 v=31
63840 On ch=3 n=70 v=31
63852 Par ch=3 c=11 v=73
63864 Par ch=3 c=11 v=74
63872 Par ch=3 c=11 v=75
63884 Par ch=3 c=11 v=76
63896 Par ch=3 c=11 v=77
63908 Par ch=3 c=11 v=78
63920 Par ch=3 c=11 v=79
63932 Par ch=3 c=11 v=80
63944 Par ch=3 c=11 v=81
63956 Par ch=3 c=11 v=82
63968 Par ch=3 c=11 v=83
63980 Par ch=3 c=11 v=84
63992 Par ch=3 c=11 v=85
64000 Par ch=3 c=11 v=86
64012 Par ch=3 c=11 v=87
64024 Par ch=3 c=11 v=88
64032 On ch=3 n=70 v=0
64032 On ch=3 n=82 v=0
64032 On ch=3 n=83 v=31
64032 On ch=3 n=71 v=31
64036 Par ch=3 c=11 v=89
64048 Par ch=3 c=11 v=90
64060 Par ch=3 c=11 v=91
64072 Par ch=3 c=11 v=92
64084 Par ch=3 c=11 v=93
64096 Par ch=3 c=11 v=94
64108 Par ch=3 c=11 v=95
64109 On ch=3 n=71 v=0
64109 On ch=3 n=83 v=0
64120 Par ch=3 c=11 v=96
64128 On ch=3 n=88 v=31
64128 On ch=3 n=83 v=31
64282 On ch=3 n=83 v=0
64282 On ch=3 n=88 v=0
64320 On ch=3 n=84 v=31
64320 On ch=3 n=81 v=31
64336 Par ch=3 c=11 v=96
64352 Par ch=3 c=11 v=97
64368 Par ch=3 c=11 v=98
64384 Par ch=3 c=11 v=99
64400 Par ch=3 c=11 v=100
64416 Par ch=3 c=11 v=101
64432 Par ch=3 c=11 v=102
64435 On ch=3 n=81 v=0
64435 On ch=3 n=84 v=0
64444 Par ch=3 c=11 v=103
64460 Par ch=3 c=11 v=104
64464 On ch=3 n=83 v=31
64464 On ch=3 n=79 v=31
64476 Par ch=3 c=11 v=105
64492 Par ch=3 c=11 v=106
64502 On ch=3 n=79 v=0
64502 On ch=3 n=83 v=0
64508 Par ch=3 c=11 v=107
64512 On ch=3 n=81 v=31
64512 On ch=3 n=76 v=31
64524 Par ch=3 c=11 v=108
64540 Par ch=3 c=11 v=109
64550 On ch=3 n=76 v=0
64550 On ch=3 n=81 v=0
64556 Par ch=3 c=11 v=110
64568 Par ch=3 c=11 v=111
64584 Par ch=3 c=11 v=112
64600 Par ch=3 c=11 v=113
64608 On ch=3 n=78 v=31
64608 On ch=3 n=75 v=31
64616 Par ch=3 c=11 v=114
64632 Par ch=3 c=11 v=115
64648 Par ch=3 c=11 v=116
64664 Par ch=3 c=11 v=117
64680 Par ch=3 c=11 v=118
64692 Par ch=3 c=11 v=119
64708 Par ch=3 c=11 v=120
64724 Par ch=3 c=11 v=121
64740 Par ch=3 c=11 v=122
64756 Par ch=3 c=11 v=123
64760 On ch=3 n=75 v=0
64760 On ch=3 n=78 v=0
64772 Par ch=3 c=11 v=124
64788 Par ch=3 c=11 v=125
64800 Par ch=3 c=11 v=126
64800 On ch=3 n=71 v=31
64838 On ch=3 n=71 v=0
64896 Par ch=3 c=11 v=64
64896 On ch=3 n=83 v=95
64896 On ch=3 n=71 v=95
65434 On ch=3 n=71 v=0
65434 On ch=3 n=83 v=0
65664 On ch=3 n=84 v=79
65664 On ch=3 n=76 v=79
65894 On ch=3 n=76 v=0
65894 On ch=3 n=84 v=0
65952 On ch=3 n=76 v=79
65952 On ch=3 n=83 v=79
66029 On ch=3 n=83 v=0
66029 On ch=3 n=76 v=0
66048 On ch=3 n=81 v=79
66048 On ch=3 n=76 v=79
66202 On ch=3 n=76 v=0
66202 On ch=3 n=81 v=0
66432 On ch=3 n=81 v=79
66432 On ch=3 n=72 v=79
66662 On ch=3 n=72 v=0
66662 On ch=3 n=81 v=0
66720 On ch=3 n=79 v=79
66720 On ch=3 n=72 v=79
66797 On ch=3 n=72 v=0
66797 On ch=3 n=79 v=0
66816 On ch=3 n=77 v=79
66816 On ch=3 n=72 v=79
66970 On ch=3 n=72 v=0
66970 On ch=3 n=77 v=0
67872 On ch=3 n=76 v=95
67903 On ch=3 n=76 v=0
67944 On ch=3 n=78 v=95
67960 On ch=3 n=78 v=0
67968 On ch=3 n=78 v=95
68045 On ch=3 n=78 v=0
68064 On ch=3 n=69 v=95
68095 On ch=3 n=69 v=0
68136 On ch=3 n=74 v=95
68152 On ch=3 n=74 v=0
68160 On ch=3 n=74 v=95
68237 On ch=3 n=74 v=0
68256 On ch=3 n=76 v=95
68277 On ch=3 n=76 v=0
68288 On ch=3 n=78 v=95
68309 On ch=3 n=78 v=0
68320 On ch=3 n=79 v=95
68341 On ch=3 n=79 v=0
68352 Par ch=3 c=11 v=64
68352 On ch=3 n=81 v=95
68376 Par ch=3 c=11 v=65
68400 Par ch=3 c=11 v=66
68420 Par ch=3 c=11 v=67
68429 On ch=3 n=81 v=0
68444 Par ch=3 c=11 v=68
68448 On ch=3 n=78 v=95
68468 Par ch=3 c=11 v=69
68469 On ch=3 n=78 v=0
68480 On ch=3 n=79 v=95
68488 Par ch=3 c=11 v=70
68501 On ch=3 n=79 v=0
68512 Par ch=3 c=11 v=71
68512 On ch=3 n=81 v=95
68533 On ch=3 n=81 v=0
68536 Par ch=3 c=11 v=72
68544 On ch=3 n=83 v=95
68556 Par ch=3 c=11 v=73
68580 Par ch=3 c=11 v=74
68604 Par ch=3 c=11 v=75
68621 On ch=3 n=83 v=0
68624 Par ch=3 c=11 v=76
68640 On ch=3 n=80 v=95
68648 Par ch=3 c=11 v=77
68661 On ch=3 n=80 v=0
68672 Par ch=3 c=11 v=78
68672 On ch=3 n=81 v=95
68692 Par ch=3 c=11 v=79
68693 On ch=3 n=81 v=0
68704 On ch=3 n=83 v=95
68716 Par ch=3 c=11 v=80
68725 On ch=3 n=83 v=0
68736 Par ch=3 c=11 v=64
68736 On ch=3 n=85 v=95
68784 Par ch=3 c=11 v=32
68890 On ch=3 n=85 v=0
69120 Par ch=3 c=11 v=64
69120 On ch=3 n=85 v=95
69144 Par ch=3 c=11 v=63
69158 On ch=3 n=85 v=0
69168 Par ch=3 c=11 v=62
69188 Par ch=3 c=11 v=61
69192 On ch=3 n=83 v=95
69211 On ch=3 n=83 v=0
69212 Par ch=3 c=11 v=60
69216 On ch=3 n=81 v=95
69236 Par ch=3 c=11 v=59
69254 On ch=3 n=81 v=0
69256 Par ch=3 c=11 v=58
69280 Par ch=3 c=11 v=57
69288 On ch=3 n=80 v=95
69304 Par ch=3 c=11 v=56
69307 On ch=3 n=80 v=0
69312 On ch=3 n=78 v=95
69324 Par ch=3 c=11 v=55
69348 Par ch=3 c=11 v=54
69350 On ch=3 n=78 v=0
69372 Par ch=3 c=11 v=53
69384 On ch=3 n=76 v=95
69392 Par ch=3 c=11 v=52
69403 On ch=3 n=76 v=0
69408 On ch=3 n=75 v=95
69416 Par ch=3 c=11 v=51
69440 Par ch=3 c=11 v=50
69446 On ch=3 n=75 v=0
69460 Par ch=3 c=11 v=49
69480 On ch=3 n=73 v=95
69484 Par ch=3 c=11 v=48
69499 On ch=3 n=73 v=0
69888 Par ch=3 c=11 v=64
69888 On ch=3 n=85 v=95
69912 Par ch=3 c=11 v=63
69926 On ch=3 n=85 v=0
69936 Par ch=3 c=11 v=62
69956 Par ch=3 c=11 v=61
69960 On ch=3 n=83 v=95
69979 On ch=3 n=83 v=0
69980 Par ch=3 c=11 v=60
69984 On ch=3 n=81 v=95
70004 Par ch=3 c=11 v=59
70022 On ch=3 n=81 v=0
70024 Par ch=3 c=11 v=58
70048 Par ch=3 c=11 v=57
70056 On ch=3 n=80 v=95
70072 Par ch=3 c=11 v=56
70075 On ch=3 n=80 v=0
70080 On ch=3 n=78 v=95
70092 Par ch=3 c=11 v=55
70116 Par ch=3 c=11 v=54
70118 On ch=3 n=78 v=0
70140 Par ch=3 c=11 v=53
70152 On ch=3 n=76 v=95
70160 Par ch=3 c=11 v=52
70171 On ch=3 n=76 v=0
70176 On ch=3 n=74 v=95
70184 Par ch=3 c=11 v=51
70208 Par ch=3 c=11 v=50
70214 On ch=3 n=74 v=0
70228 Par ch=3 c=11 v=49
70248 On ch=3 n=73 v=95
70252 Par ch=3 c=11 v=48
70267 On ch=3 n=73 v=0
70656 Par ch=3 c=11 v=64
70656 On ch=3 n=85 v=111
70704 Par ch=3 c=11 v=32
70810 On ch=3 n=85 v=0
71040 Par ch=3 c=11 v=64
71040 On ch=3 n=85 v=111
71088 Par ch=3 c=11 v=32
71194 On ch=3 n=85 v=0
71424 Par ch=3 c=11 v=64
71424 On ch=3 n=86 v=111
71520 On ch=3 n=86 v=0
71520 On ch=3 n=85 v=47
71674 On ch=3 n=85 v=0
71808 On ch=3 n=86 v=111
71904 On ch=3 n=86 v=0
71904 On ch=3 n=85 v=47
72058 On ch=3 n=85 v=0
72192 On ch=3 n=86 v=95
72288 On ch=3 n=86 v=0
72288 On ch=3 n=85 v=47
72442 On ch=3 n=85 v=0
74496 Par ch=3 c=11 v=64
74496 On ch=3 n=81 v=47
74496 On ch=3 n=84 v=47
74512 Par ch=3 c=11 v=65
74524 Par ch=3 c=11 v=66
74536 Par ch=3 c=11 v=67
74548 Par ch=3 c=11 v=68
74560 Par ch=3 c=11 v=69
74572 Par ch=3 c=11 v=70
74584 Par ch=3 c=11 v=71
74596 Par ch=3 c=11 v=72
74608 Par ch=3 c=11 v=73
74620 Par ch=3 c=11 v=74
74632 Par ch=3 c=11 v=75
74644 Par ch=3 c=11 v=76
74656 Par ch=3 c=11 v=77
74668 Par ch=3 c=11 v=78
74680 Par ch=3 c=11 v=79
74688 On ch=3 n=84 v=0
74688 On ch=3 n=85 v=47
74692 Par ch=3 c=11 v=80
74704 Par ch=3 c=11 v=81
74716 Par ch=3 c=11 v=82
74728 Par ch=3 c=11 v=83
74740 Par ch=3 c=11 v=84
74752 Par ch=3 c=11 v=85
74768 Par ch=3 c=11 v=86
74780 Par ch=3 c=11 v=87
74792 Par ch=3 c=11 v=88
74804 Par ch=3 c=11 v=89
74816 Par ch=3 c=11 v=90
74828 Par ch=3 c=11 v=91
74840 Par ch=3 c=11 v=92
74842 On ch=3 n=85 v=0
74842 On ch=3 n=81 v=0
74852 Par ch=3 c=11 v=93
74864 Par ch=3 c=11 v=94
74876 Par ch=3 c=11 v=95
74880 On ch=3 n=81 v=47
74880 On ch=3 n=84 v=47
74888 Par ch=3 c=11 v=96
74900 Par ch=3 c=11 v=97
74912 Par ch=3 c=11 v=98
74924 Par ch=3 c=11 v=99
74936 Par ch=3 c=11 v=100
74948 Par ch=3 c=11 v=101
74960 Par ch=3 c=11 v=102
74972 Par ch=3 c=11 v=103
74984 Par ch=3 c=11 v=104
74996 Par ch=3 c=11 v=105
75008 Par ch=3 c=11 v=106
75024 Par ch=3 c=11 v=107
75036 Par ch=3 c=11 v=108
75048 Par ch=3 c=11 v=109
75060 Par ch=3 c=11 v=110
75072 On ch=3 n=84 v=0
75072 Par ch=3 c=11 v=111
75072 On ch=3 n=85 v=47
75084 Par ch=3 c=11 v=112
75096 Par ch=3 c=11 v=113
75108 Par ch=3 c=11 v=114
75120 Par ch=3 c=11 v=115
75132 Par ch=3 c=11 v=116
75144 Par ch=3 c=11 v=117
75156 Par ch=3 c=11 v=118
75168 Par ch=3 c=11 v=119
75180 Par ch=3 c=11 v=120
75192 Par ch=3 c=11 v=121
75204 Par ch=3 c=11 v=122
75216 Par ch=3 c=11 v=123
75226 On ch=3 n=81 v=0
75228 Par ch=3 c=11 v=124
75240 Par ch=3 c=11 v=125
75252 Par ch=3 c=11 v=126
75264 On ch=3 n=85 v=0
75360 Par ch=3 c=11 v=64
75360 On ch=3 n=79 v=95
75477 On ch=3 n=79 v=0
75488 On ch=3 n=90 v=95
75488 On ch=3 n=78 v=95
75509 On ch=3 n=78 v=0
75509 On ch=3 n=90 v=0
75520 On ch=3 n=89 v=95
75520 On ch=3 n=77 v=95
75541 On ch=3 n=77 v=0
75541 On ch=3 n=89 v=0
75552 On ch=3 n=88 v=95
75552 On ch=3 n=76 v=95
75573 On ch=3 n=76 v=0
75573 On ch=3 n=88 v=0
75584 On ch=3 n=87 v=95
75584 On ch=3 n=75 v=95
75605 On ch=3 n=75 v=0
75605 On ch=3 n=87 v=0
75616 On ch=3 n=86 v=95
75616 On ch=3 n=74 v=95
75637 On ch=3 n=74 v=0
75637 On ch=3 n=86 v=0
75648 On ch=3 n=73 v=95
75648 On ch=3 n=85 v=95
75669 On ch=3 n=85 v=0
75669 On ch=3 n=73 v=0
75680 On ch=3 n=72 v=95
75680 On ch=3 n=84 v=95
75701 On ch=3 n=84 v=0
75701 On ch=3 n=72 v=0
75712 On ch=3 n=71 v=95
75712 On ch=3 n=83 v=95
75733 On ch=3 n=83 v=0
75733 On ch=3 n=71 v=0
75744 On ch=3 n=70 v=95
75744 On ch=3 n=82 v=95
75765 On ch=3 n=82 v=0
75765 On ch=3 n=70 v=0
75776 On ch=3 n=69 v=95
75776 On ch=3 n=81 v=95
75797 On ch=3 n=81 v=0
75797 On ch=3 n=69 v=0
75808 On ch=3 n=68 v=95
75808 On ch=3 n=80 v=95
75829 On ch=3 n=80 v=0
75829 On ch=3 n=68 v=0
75840 On ch=3 n=67 v=95
75840 On ch=3 n=79 v=95
75878 On ch=3 n=67 v=0
75879 On ch=3 n=79 v=0
76032 On ch=3 n=80 v=95
76262 On ch=3 n=80 v=0
76320 On ch=3 n=68 v=95
76351 On ch=3 n=68 v=0
76392 On ch=3 n=80 v=95
76408 On ch=3 n=80 v=0
76416 On ch=3 n=80 v=95
76493 On ch=3 n=80 v=0
76512 On ch=3 n=68 v=95
76543 On ch=3 n=68 v=0
76584 On ch=3 n=80 v=95
76600 On ch=3 n=80 v=0
76608 On ch=3 n=80 v=95
76685 On ch=3 n=80 v=0
76704 On ch=3 n=68 v=95
76735 On ch=3 n=68 v=0
76776 On ch=3 n=80 v=95
76792 On ch=3 n=80 v=0
76800 Par ch=3 c=11 v=64
76800 On ch=3 n=81 v=95
76812 Par ch=3 c=11 v=65
76820 Par ch=3 c=11 v=66
76828 Par ch=3 c=11 v=67
76836 Par ch=3 c=11 v=68
76848 Par ch=3 c=11 v=69
76856 Par ch=3 c=11 v=70
76864 Par ch=3 c=11 v=71
76872 Par ch=3 c=11 v=72
76884 Par ch=3 c=11 v=73
76892 Par ch=3 c=11 v=74
76900 Par ch=3 c=11 v=75
76908 Par ch=3 c=11 v=76
76920 Par ch=3 c=11 v=77
76928 Par ch=3 c=11 v=78
76936 Par ch=3 c=11 v=79
76944 Par ch=3 c=11 v=80
76982 On ch=3 n=81 v=0
77184 Par ch=3 c=11 v=64
77568 On ch=3 n=80 v=111
77664 On ch=3 n=80 v=0
77664 On ch=3 n=72 v=111
77856 On ch=3 n=72 v=0
77856 On ch=3 n=73 v=111
77933 On ch=3 n=73 v=0
77952 On ch=3 n=78 v=111
78048 On ch=3 n=78 v=0
78048 On ch=3 n=70 v=111
78240 On ch=3 n=70 v=0
78240 On ch=3 n=71 v=111
78317 On ch=3 n=71 v=0
78336 Par ch=3 c=11 v=64
78336 On ch=3 n=76 v=111
78348 Par ch=3 c=11 v=63
78360 Par ch=3 c=11 v=62
78372 Par ch=3 c=11 v=61
78384 Par ch=3 c=11 v=60
78396 Par ch=3 c=11 v=59
78404 Par ch=3 c=11 v=58
78416 Par ch=3 c=11 v=57
78428 Par ch=3 c=11 v=56
78432 On ch=3 n=76 v=0
78432 On ch=3 n=68 v=111
78440 Par ch=3 c=11 v=55
78452 Par ch=3 c=11 v=54
78464 Par ch=3 c=11 v=53
78472 Par ch=3 c=11 v=52
78484 Par ch=3 c=11 v=51
78496 Par ch=3 c=11 v=50
78508 Par ch=3 c=11 v=49
78520 Par ch=3 c=11 v=48
78528 Par ch=3 c=11 v=47
78540 Par ch=3 c=11 v=46
78552 Par ch=3 c=11 v=45
78564 Par ch=3 c=11 v=44
78576 Par ch=3 c=11 v=43
78588 Par ch=3 c=11 v=42
78596 Par ch=3 c=11 v=41
78608 Par ch=3 c=11 v=40
78620 Par ch=3 c=11 v=39
78624 On ch=3 n=68 v=0
78624 On ch=3 n=69 v=111
78632 Par ch=3 c=11 v=38
78644 Par ch=3 c=11 v=37
78656 Par ch=3 c=11 v=36
78664 Par ch=3 c=11 v=35
78676 Par ch=3 c=11 v=34
78688 Par ch=3 c=11 v=33
78700 Par ch=3 c=11 v=32
78701 On ch=3 n=69 v=0
79104 Par ch=3 c=11 v=64
81408 On ch=3 n=74 v=47
81696 On ch=3 n=74 v=0
81696 On ch=3 n=72 v=47
81792 On ch=3 n=72 v=0
81792 On ch=3 n=71 v=47
82080 On ch=3 n=71 v=0
82080 On ch=3 n=69 v=47
82176 On ch=3 n=69 v=0
82176 On ch=3 n=67 v=47
82464 On ch=3 n=67 v=0
82464 On ch=3 n=68 v=47
82656 On ch=3 n=68 v=0
82656 On ch=3 n=69 v=47
82752 On ch=3 n=69 v=0
82752 On ch=3 n=70 v=47
82848 On ch=3 n=70 v=0
82848 On ch=3 n=71 v=47
82944 On ch=3 n=71 v=0
82944 On ch=3 n=72 v=47
83021 On ch=3 n=72 v=0
83040 Par ch=3 c=11 v=64
83040 On ch=3 n=67 v=47
83044 Par ch=3 c=11 v=65
83048 Par ch=3 c=11 v=66
83052 Par ch=3 c=11 v=68
83056 Par ch=3 c=11 v=69
83060 Par ch=3 c=11 v=71
83064 Par ch=3 c=11 v=72
83068 Par ch=3 c=11 v=73
83072 Par ch=3 c=11 v=75
83076 Par ch=3 c=11 v=76
83080 Par ch=3 c=11 v=78
83084 Par ch=3 c=11 v=79
83088 Par ch=3 c=11 v=79
83092 Par ch=3 c=11 v=78
83096 Par ch=3 c=11 v=77
83100 Par ch=3 c=11 v=76
83104 Par ch=3 c=11 v=74
83108 Par ch=3 c=11 v=73
83112 On ch=3 n=67 v=0
83112 Par ch=3 c=11 v=72
83112 On ch=3 n=76 v=47
83116 Par ch=3 c=11 v=71
83120 Par ch=3 c=11 v=69
83124 Par ch=3 c=11 v=68
83128 Par ch=3 c=11 v=67
83131 On ch=3 n=76 v=0
83132 Par ch=3 c=11 v=66
83136 On ch=3 n=76 v=47
83405 On ch=3 n=76 v=0
83424 Par ch=3 c=11 v=64
83424 On ch=3 n=67 v=47
83428 Par ch=3 c=11 v=65
83432 Par ch=3 c=11 v=66
83436 Par ch=3 c=11 v=68
83440 Par ch=3 c=11 v=69
83444 Par ch=3 c=11 v=71
83448 Par ch=3 c=11 v=72
83452 Par ch=3 c=11 v=73
83456 Par ch=3 c=11 v=75
83460 Par ch=3 c=11 v=76
83464 Par ch=3 c=11 v=78
83468 Par ch=3 c=11 v=79
83472 Par ch=3 c=11 v=79
83476 Par ch=3 c=11 v=78
83480 Par ch=3 c=11 v=77
83484 Par ch=3 c=11 v=76
83488 Par ch=3 c=11 v=74
83492 Par ch=3 c=11 v=73
83496 On ch=3 n=67 v=0
83496 Par ch=3 c=11 v=72
83496 On ch=3 n=76 v=47
83500 Par ch=3 c=11 v=71
83504 Par ch=3 c=11 v=69
83508 Par ch=3 c=11 v=68
83512 Par ch=3 c=11 v=67
83515 On ch=3 n=76 v=0
83516 Par ch=3 c=11 v=66
83520 On ch=3 n=76 v=47
83789 On ch=3 n=76 v=0
83808 Par ch=3 c=11 v=64
83808 On ch=3 n=67 v=47
83812 Par ch=3 c=11 v=65
83816 Par ch=3 c=11 v=66
83820 Par ch=3 c=11 v=68
83824 Par ch=3 c=11 v=69
83828 Par ch=3 c=11 v=71
83832 Par ch=3 c=11 v=72
83836 Par ch=3 c=11 v=73
83840 Par ch=3 c=11 v=75
83844 Par ch=3 c=11 v=76
83848 Par ch=3 c=11 v=78
83852 Par ch=3 c=11 v=79
83856 Par ch=3 c=11 v=79
83860 Par ch=3 c=11 v=78
83864 Par ch=3 c=11 v=77
83868 Par ch=3 c=11 v=76
83872 Par ch=3 c=11 v=74
83876 Par ch=3 c=11 v=73
83880 On ch=3 n=67 v=0
83880 Par ch=3 c=11 v=72
83880 On ch=3 n=76 v=47
83884 Par ch=3 c=11 v=71
83888 Par ch=3 c=11 v=69
83892 Par ch=3 c=11 v=68
83896 Par ch=3 c=11 v=67
83899 On ch=3 n=76 v=0
83900 Par ch=3 c=11 v=66
83904 On ch=3 n=76 v=47
84173 On ch=3 n=76 v=0
84192 Par ch=3 c=11 v=64
84192 On ch=3 n=65 v=47
84196 Par ch=3 c=11 v=65
84200 Par ch=3 c=11 v=66
84204 Par ch=3 c=11 v=68
84208 Par ch=3 c=11 v=69
84212 Par ch=3 c=11 v=71
84216 Par ch=3 c=11 v=72
84220 Par ch=3 c=11 v=73
84224 Par ch=3 c=11 v=75
84228 Par ch=3 c=11 v=76
84232 Par ch=3 c=11 v=78
84236 Par ch=3 c=11 v=79
84240 Par ch=3 c=11 v=79
84244 Par ch=3 c=11 v=78
84248 Par ch=3 c=11 v=77
84252 Par ch=3 c=11 v=76
84256 Par ch=3 c=11 v=74
84260 Par ch=3 c=11 v=73
84264 On ch=3 n=65 v=0
84264 Par ch=3 c=11 v=72
84264 On ch=3 n=74 v=47
84268 Par ch=3 c=11 v=71
84272 Par ch=3 c=11 v=69
84276 Par ch=3 c=11 v=68
84280 Par ch=3 c=11 v=67
84283 On ch=3 n=74 v=0
84284 Par ch=3 c=11 v=66
84288 On ch=3 n=74 v=47
84557 On ch=3 n=74 v=0
84576 Par ch=3 c=11 v=64
84576 On ch=3 n=65 v=47
84580 Par ch=3 c=11 v=65
84584 Par ch=3 c=11 v=66
84588 Par ch=3 c=11 v=68
84592 Par ch=3 c=11 v=69
84596 Par ch=3 c=11 v=71
84600 Par ch=3 c=11 v=72
84604 Par ch=3 c=11 v=73
84608 Par ch=3 c=11 v=75
84612 Par ch=3 c=11 v=76
84616 Par ch=3 c=11 v=78
84620 Par ch=3 c=11 v=79
84624 Par ch=3 c=11 v=79
84628 Par ch=3 c=11 v=78
84632 Par ch=3 c=11 v=77
84636 Par ch=3 c=11 v=76
84640 Par ch=3 c=11 v=74
84644 Par ch=3 c=11 v=73
84648 On ch=3 n=65 v=0
84648 Par ch=3 c=11 v=72
84648 On ch=3 n=74 v=47
84652 Par ch=3 c=11 v=71
84656 Par ch=3 c=11 v=69
84660 Par ch=3 c=11 v=68
84664 Par ch=3 c=11 v=67
84667 On ch=3 n=74 v=0
84668 Par ch=3 c=11 v=66
84672 On ch=3 n=74 v=47
84826 On ch=3 n=74 v=0
84864 Par ch=3 c=11 v=64
86208 On ch=3 n=71 v=31
86496 On ch=3 n=71 v=0
86496 On ch=3 n=69 v=31
86592 On ch=3 n=69 v=0
86592 On ch=3 n=70 v=31
86688 On ch=3 n=70 v=0
86688 On ch=3 n=66 v=31
86784 On ch=3 n=66 v=0
86784 On ch=3 n=78 v=31
86861 On ch=3 n=78 v=0
88224 On ch=3 n=66 v=47
88255 On ch=3 n=66 v=0
88320 On ch=3 n=78 v=47
88320 On ch=3 n=75 v=47
88416 On ch=3 n=75 v=0
88416 On ch=3 n=78 v=0
88416 On ch=3 n=76 v=47
88416 On ch=3 n=73 v=47
88447 On ch=3 n=73 v=0
88447 On ch=3 n=76 v=0
88488 On ch=3 n=75 v=47
88488 On ch=3 n=71 v=47
88504 On ch=3 n=71 v=0
88504 On ch=3 n=75 v=0
88512 On ch=3 n=75 v=47
88512 On ch=3 n=71 v=47
88608 On ch=3 n=71 v=0
88608 On ch=3 n=75 v=0
88608 On ch=3 n=73 v=47
88608 On ch=3 n=66 v=47
88639 On ch=3 n=66 v=0
88639 On ch=3 n=73 v=0
88680 On ch=3 n=71 v=47
88680 On ch=3 n=63 v=47
88696 On ch=3 n=63 v=0
88696 On ch=3 n=71 v=0
88704 On ch=3 n=71 v=47
88704 On ch=3 n=63 v=47
88800 On ch=3 n=63 v=0
88800 On ch=3 n=71 v=0
88800 On ch=3 n=66 v=47
88954 On ch=3 n=66 v=0
89760 On ch=3 n=66 v=47
89798 On ch=3 n=66 v=0
89856 On ch=3 n=78 v=47
89856 On ch=3 n=75 v=47
89952 On ch=3 n=75 v=0
89952 On ch=3 n=78 v=0
89952 On ch=3 n=76 v=47
89952 On ch=3 n=73 v=47
89990 On ch=3 n=73 v=0
89990 On ch=3 n=76 v=0
90024 On ch=3 n=75 v=47
90024 On ch=3 n=71 v=47
90043 On ch=3 n=71 v=0
90043 On ch=3 n=75 v=0
90048 On ch=3 n=75 v=47
90048 On ch=3 n=71 v=47
90202 On ch=3 n=71 v=0
90202 On ch=3 n=75 v=0
90432 On ch=3 n=75 v=31
90432 On ch=3 n=71 v=31
90586 On ch=3 n=71 v=0
90586 On ch=3 n=75 v=0
94464 On ch=3 n=66 v=111
94488 On ch=3 n=66 v=0
94488 On ch=3 n=65 v=111
94512 On ch=3 n=65 v=0
94512 On ch=3 n=66 v=111
94536 On ch=3 n=66 v=0
94536 On ch=3 n=68 v=111
94560 On ch=3 n=68 v=0
94560 On ch=3 n=69 v=111
94598 On ch=3 n=69 v=0
95232 On ch=3 n=75 v=111
95263 On ch=3 n=75 v=0
95304 On ch=3 n=70 v=111
95320 On ch=3 n=70 v=0
95328 On ch=3 n=63 v=111
95359 On ch=3 n=63 v=0
101472 On ch=3 n=68 v=47
101587 On ch=3 n=68 v=0
101664 On ch=3 n=67 v=47
101685 On ch=3 n=67 v=0
101696 On ch=3 n=68 v=47
101717 On ch=3 n=68 v=0
101728 On ch=3 n=70 v=47
101749 On ch=3 n=70 v=0
101760 On ch=3 n=69 v=47
101791 On ch=3 n=69 v=0
101832 On ch=3 n=72 v=47
101848 On ch=3 n=72 v=0
101856 On ch=3 n=77 v=47
101933 On ch=3 n=77 v=0
102432 On ch=3 n=69 v=47
102453 On ch=3 n=69 v=0
102464 On ch=3 n=70 v=47
102485 On ch=3 n=70 v=0
102496 On ch=3 n=72 v=47
102517 On ch=3 n=72 v=0
102528 On ch=3 n=65 v=47
102559 On ch=3 n=65 v=0
102600 On ch=3 n=68 v=47
102616 On ch=3 n=68 v=0
102624 On ch=3 n=73 v=47
102778 On ch=3 n=73 v=0
105984 Par ch=3 c=11 v=64
105984 On ch=3 n=68 v=47
105992 Par ch=3 c=11 v=65
106000 Par ch=3 c=11 v=66
106008 Par ch=3 c=11 v=67
106016 Par ch=3 c=11 v=68
106024 Par ch=3 c=11 v=69
106032 Par ch=3 c=11 v=70
106040 Par ch=3 c=11 v=71
106048 Par ch=3 c=11 v=72
106056 Par ch=3 c=11 v=73
106061 On ch=3 n=68 v=0
106064 Par ch=3 c=11 v=74
106072 Par ch=3 c=11 v=75
106080 Par ch=3 c=11 v=76
106080 On ch=3 n=73 v=47
106088 Par ch=3 c=11 v=77
106096 Par ch=3 c=11 v=78
106104 Par ch=3 c=11 v=79
106112 Par ch=3 c=11 v=80
106120 Par ch=3 c=11 v=81
106128 Par ch=3 c=11 v=82
106136 Par ch=3 c=11 v=83
106144 Par ch=3 c=11 v=84
106152 Par ch=3 c=11 v=85
106157 On ch=3 n=73 v=0
106160 Par ch=3 c=11 v=86
106168 Par ch=3 c=11 v=87
106176 Par ch=3 c=11 v=88
106176 On ch=3 n=72 v=47
106180 Par ch=3 c=11 v=89
106188 Par ch=3 c=11 v=90
106196 Par ch=3 c=11 v=91
106204 Par ch=3 c=11 v=92
106212 Par ch=3 c=11 v=93
106220 Par ch=3 c=11 v=94
106228 Par ch=3 c=11 v=95
106236 Par ch=3 c=11 v=96
106244 Par ch=3 c=11 v=97
106252 Par ch=3 c=11 v=98
106253 On ch=3 n=72 v=0
106260 Par ch=3 c=11 v=99
106268 Par ch=3 c=11 v=100
106272 On ch=3 n=70 v=47
106276 Par ch=3 c=11 v=101
106284 Par ch=3 c=11 v=102
106292 Par ch=3 c=11 v=103
106300 Par ch=3 c=11 v=104
106308 Par ch=3 c=11 v=105
106316 Par ch=3 c=11 v=106
106324 Par ch=3 c=11 v=107
106332 Par ch=3 c=11 v=108
106340 Par ch=3 c=11 v=109
106348 Par ch=3 c=11 v=110
106349 On ch=3 n=70 v=0
106356 Par ch=3 c=11 v=111
106364 Par ch=3 c=11 v=112
106368 Par ch=3 c=11 v=64
106368 On ch=3 n=69 v=95
106522 On ch=3 n=69 v=0
107520 On ch=3 n=70 v=111
107674 On ch=3 n=70 v=0
107776 On ch=3 n=70 v=111
107797 On ch=3 n=70 v=0
107808 On ch=3 n=71 v=111
107829 On ch=3 n=71 v=0
107840 On ch=3 n=70 v=111
107861 On ch=3 n=70 v=0
107872 On ch=3 n=68 v=111
107893 On ch=3 n=68 v=0
107904 On ch=3 n=70 v=127
107935 On ch=3 n=70 v=0
107976 On ch=3 n=73 v=127
107992 On ch=3 n=73 v=0
108000 On ch=3 n=78 v=127
108154 On ch=3 n=78 v=0
108960 Par ch=3 c=11 v=64
108960 On ch=3 n=77 v=47
108972 Par ch=3 c=11 v=65
108980 Par ch=3 c=11 v=66
108992 Par ch=3 c=11 v=67
109000 Par ch=3 c=11 v=68
109012 Par ch=3 c=11 v=69
109020 Par ch=3 c=11 v=70
109032 Par ch=3 c=11 v=71
109037 On ch=3 n=77 v=0
109040 Par ch=3 c=11 v=72
109052 Par ch=3 c=11 v=73
109056 On ch=3 n=79 v=47
109060 Par ch=3 c=11 v=74
109068 Par ch=3 c=11 v=75
109080 Par ch=3 c=11 v=76
109088 Par ch=3 c=11 v=77
109100 Par ch=3 c=11 v=78
109108 Par ch=3 c=11 v=79
109120 Par ch=3 c=11 v=80
109128 Par ch=3 c=11 v=81
109133 On ch=3 n=79 v=0
109140 Par ch=3 c=11 v=82
109148 Par ch=3 c=11 v=83
109152 On ch=3 n=82 v=47
109156 Par ch=3 c=11 v=84
109168 Par ch=3 c=11 v=85
109176 Par ch=3 c=11 v=86
109188 Par ch=3 c=11 v=87
109196 Par ch=3 c=11 v=88
109208 Par ch=3 c=11 v=89
109216 Par ch=3 c=11 v=90
109228 Par ch=3 c=11 v=91
109229 On ch=3 n=82 v=0
109236 Par ch=3 c=11 v=92
109248 Par ch=3 c=11 v=93
109248 On ch=3 n=87 v=47
109256 Par ch=3 c=11 v=94
109264 Par ch=3 c=11 v=95
109276 Par ch=3 c=11 v=96
109284 Par ch=3 c=11 v=97
109296 Par ch=3 c=11 v=98
109304 Par ch=3 c=11 v=99
109316 Par ch=3 c=11 v=100
109324 Par ch=3 c=11 v=101
109325 On ch=3 n=87 v=0
109336 Par ch=3 c=11 v=102
109344 Par ch=3 c=11 v=103
109344 On ch=3 n=86 v=47
109352 Par ch=3 c=11 v=104
109364 Par ch=3 c=11 v=105
109372 Par ch=3 c=11 v=106
109375 On ch=3 n=86 v=0
109384 Par ch=3 c=11 v=107
109392 Par ch=3 c=11 v=108
109404 Par ch=3 c=11 v=109
109412 Par ch=3 c=11 v=110
109416 On ch=3 n=84 v=47
109424 Par ch=3 c=11 v=111
109432 On ch=3 n=84 v=0
109432 Par ch=3 c=11 v=112
109440 On ch=3 n=82 v=47
109747 On ch=3 n=82 v=0
109824 Par ch=3 c=11 v=64
109824 On ch=3 n=82 v=111
109978 On ch=3 n=82 v=0
110016 On ch=3 n=75 v=111
110285 On ch=3 n=75 v=0
110304 On ch=3 n=77 v=111
110381 On ch=3 n=77 v=0
110400 On ch=3 n=79 v=111
110477 On ch=3 n=79 v=0
110496 On ch=3 n=80 v=111
110573 On ch=3 n=80 v=0
110592 Par ch=3 c=11 v=64
110592 On ch=3 n=82 v=47
110600 Par ch=3 c=11 v=65
110608 Par ch=3 c=11 v=66
110612 Par ch=3 c=11 v=67
110620 Par ch=3 c=11 v=68
110624 Par ch=3 c=11 v=69
110632 Par ch=3 c=11 v=70
110636 Par ch=3 c=11 v=71
110644 Par ch=3 c=11 v=72
110648 Par ch=3 c=11 v=73
110656 Par ch=3 c=11 v=74
110660 Par ch=3 c=11 v=75
110668 Par ch=3 c=11 v=76
110672 Par ch=3 c=11 v=77
110680 Par ch=3 c=11 v=78
110684 Par ch=3 c=11 v=79
110692 Par ch=3 c=11 v=80
110696 Par ch=3 c=11 v=81
110704 Par ch=3 c=11 v=82
110708 Par ch=3 c=11 v=83
110716 Par ch=3 c=11 v=84
110720 Par ch=3 c=11 v=85
110728 Par ch=3 c=11 v=86
110736 Par ch=3 c=11 v=87
110740 Par ch=3 c=11 v=88
110748 Par ch=3 c=11 v=89
110752 Par ch=3 c=11 v=90
110760 Par ch=3 c=11 v=91
110764 Par ch=3 c=11 v=92
110772 Par ch=3 c=11 v=93
110776 Par ch=3 c=11 v=94
110784 Par ch=3 c=11 v=95
110788 Par ch=3 c=11 v=96
110796 Par ch=3 c=11 v=97
110800 Par ch=3 c=11 v=98
110808 Par ch=3 c=11 v=99
110812 Par ch=3 c=11 v=100
110820 Par ch=3 c=11 v=101
110824 Par ch=3 c=11 v=102
110832 Par ch=3 c=11 v=103
110836 Par ch=3 c=11 v=104
110844 Par ch=3 c=11 v=105
110848 Par ch=3 c=11 v=106
110856 Par ch=3 c=11 v=107
110864 Par ch=3 c=11 v=108
110868 Par ch=3 c=11 v=109
110876 Par ch=3 c=11 v=110
110880 Par ch=3 c=11 v=111
110888 Par ch=3 c=11 v=112
110892 Par ch=3 c=11 v=113
110900 Par ch=3 c=11 v=114
110904 Par ch=3 c=11 v=115
110912 Par ch=3 c=11 v=116
110916 Par ch=3 c=11 v=117
110924 Par ch=3 c=11 v=118
110928 Par ch=3 c=11 v=119
110936 Par ch=3 c=11 v=120
110940 Par ch=3 c=11 v=121
110948 Par ch=3 c=11 v=122
110952 Par ch=3 c=11 v=123
110960 Par ch=3 c=11 v=124
110964 Par ch=3 c=11 v=125
110972 Par ch=3 c=11 v=126
111053 On ch=3 n=82 v=0
111072 Par ch=3 c=11 v=64
111072 On ch=3 n=80 v=111
111110 On ch=3 n=80 v=0
111120 On ch=3 n=78 v=111
111158 On ch=3 n=78 v=0
111168 On ch=3 n=77 v=111
111245 On ch=3 n=77 v=0
111264 On ch=3 n=75 v=111
111341 On ch=3 n=75 v=0
111360 On ch=3 n=83 v=111
111412 Par ch=3 c=11 v=16
111416 Par ch=3 c=11 v=17
111420 Par ch=3 c=11 v=19
111424 Par ch=3 c=11 v=20
111428 Par ch=3 c=11 v=21
111432 Par ch=3 c=11 v=23
111436 Par ch=3 c=11 v=24
111440 Par ch=3 c=11 v=26
111444 Par ch=3 c=11 v=27
111448 Par ch=3 c=11 v=28
111452 Par ch=3 c=11 v=30
111456 Par ch=3 c=11 v=31
111460 Par ch=3 c=11 v=33
111464 Par ch=3 c=11 v=34
111468 Par ch=3 c=11 v=35
111472 Par ch=3 c=11 v=37
111476 Par ch=3 c=11 v=38
111480 Par ch=3 c=11 v=40
111484 Par ch=3 c=11 v=41
111488 Par ch=3 c=11 v=42
111492 Par ch=3 c=11 v=44
111496 Par ch=3 c=11 v=45
111500 Par ch=3 c=11 v=46
111504 Par ch=3 c=11 v=48
111508 Par ch=3 c=11 v=49
111512 Par ch=3 c=11 v=51
111516 Par ch=3 c=11 v=52
111520 Par ch=3 c=11 v=53
111524 Par ch=3 c=11 v=55
111528 Par ch=3 c=11 v=56
111532 Par ch=3 c=11 v=58
111536 Par ch=3 c=11 v=59
111540 Par ch=3 c=11 v=60
111544 Par ch=3 c=11 v=62
111548 Par ch=3 c=11 v=63
111552 Par ch=3 c=11 v=64
111590 On ch=3 n=83 v=0
111600 On ch=3 n=87 v=111
111638 On ch=3 n=87 v=0
111648 On ch=3 n=85 v=111
111686 On ch=3 n=85 v=0
111696 On ch=3 n=83 v=111
111734 On ch=3 n=83 v=0
111744 On ch=3 n=78 v=111
111744 On ch=3 n=81 v=111
112051 On ch=3 n=81 v=0
112051 On ch=3 n=78 v=0
112224 On ch=3 n=78 v=111
112245 On ch=3 n=78 v=0
112256 On ch=3 n=77 v=111
112277 On ch=3 n=77 v=0
112288 On ch=3 n=75 v=111
112309 On ch=3 n=75 v=0
112320 On ch=3 n=75 v=111
112341 On ch=3 n=75 v=0
112352 On ch=3 n=73 v=111
112373 On ch=3 n=73 v=0
112384 On ch=3 n=71 v=111
112405 On ch=3 n=71 v=0
112512 On ch=3 n=78 v=111
112512 On ch=3 n=81 v=111
112819 On ch=3 n=81 v=0
112819 On ch=3 n=78 v=0
112992 On ch=3 n=78 v=111
113018 On ch=3 n=78 v=0
113024 On ch=3 n=77 v=111
113050 On ch=3 n=77 v=0
113056 On ch=3 n=75 v=111
113082 On ch=3 n=75 v=0
113088 On ch=3 n=75 v=111
113114 On ch=3 n=75 v=0
113120 On ch=3 n=73 v=111
113146 On ch=3 n=73 v=0
113152 On ch=3 n=71 v=111
113178 On ch=3 n=71 v=0
113280 On ch=3 n=80 v=127
113280 On ch=3 n=83 v=127
113376 On ch=3 n=83 v=0
113376 On ch=3 n=80 v=0
113376 On ch=3 n=78 v=127
113376 On ch=3 n=82 v=127
113472 On ch=3 n=82 v=0
113472 On ch=3 n=81 v=127
113568 On ch=3 n=81 v=0
113568 On ch=3 n=82 v=127
113645 On ch=3 n=82 v=0
113664 On ch=3 n=78 v=0
113664 Par ch=3 c=11 v=64
113664 On ch=3 n=82 v=127
113664 On ch=3 n=85 v=127
113688 Par ch=3 c=11 v=65
113712 Par ch=3 c=11 v=66
113732 Par ch=3 c=11 v=67
113756 Par ch=3 c=11 v=68
113760 On ch=3 n=85 v=0
113760 On ch=3 n=82 v=0
113760 On ch=3 n=80 v=127
113760 On ch=3 n=84 v=127
113780 Par ch=3 c=11 v=69
113800 Par ch=3 c=11 v=70
113824 Par ch=3 c=11 v=71
113848 Par ch=3 c=11 v=72
113856 On ch=3 n=84 v=0
113856 On ch=3 n=80 v=0
113856 On ch=3 n=81 v=127
113856 On ch=3 n=83 v=127
113868 Par ch=3 c=11 v=73
113892 Par ch=3 c=11 v=74
113916 Par ch=3 c=11 v=75
113936 Par ch=3 c=11 v=76
113952 On ch=3 n=83 v=0
113952 On ch=3 n=81 v=0
113952 On ch=3 n=80 v=127
113952 On ch=3 n=84 v=127
113960 Par ch=3 c=11 v=77
113984 Par ch=3 c=11 v=78
114004 Par ch=3 c=11 v=79
114028 Par ch=3 c=11 v=80
114029 On ch=3 n=84 v=0
114048 On ch=3 n=80 v=0
114048 Par ch=3 c=11 v=64
114048 On ch=3 n=75 v=111
114048 On ch=3 n=87 v=111
114144 On ch=3 n=87 v=0
114144 On ch=3 n=75 v=0
114144 On ch=3 n=74 v=111
114144 On ch=3 n=86 v=111
114288 On ch=3 n=86 v=0
114288 On ch=3 n=74 v=0
114288 On ch=3 n=78 v=111
114288 On ch=3 n=90 v=111
114336 On ch=3 n=90 v=0
114336 On ch=3 n=78 v=0
114336 On ch=3 n=77 v=111
114336 On ch=3 n=89 v=111
114384 On ch=3 n=89 v=0
114384 On ch=3 n=77 v=0
114384 On ch=3 n=68 v=111
114384 On ch=3 n=80 v=111
114422 On ch=3 n=80 v=0
114432 On ch=3 n=68 v=0
114432 On ch=3 n=68 v=111
114432 On ch=3 n=80 v=111
114480 On ch=3 n=80 v=0
114480 On ch=3 n=68 v=0
114480 On ch=3 n=67 v=111
114480 On ch=3 n=79 v=111
114528 On ch=3 n=79 v=0
114528 On ch=3 n=67 v=0
114528 On ch=3 n=77 v=111
114528 On ch=3 n=89 v=111
114576 On ch=3 n=89 v=0
114576 On ch=3 n=77 v=0
114576 On ch=3 n=75 v=111
114576 On ch=3 n=87 v=111
114624 On ch=3 n=87 v=0
114624 On ch=3 n=75 v=0
114624 On ch=3 n=66 v=111
114624 On ch=3 n=78 v=111
114672 On ch=3 n=78 v=0
114672 On ch=3 n=66 v=0
114672 On ch=3 n=74 v=111
114672 On ch=3 n=86 v=111
114720 On ch=3 n=86 v=0
114720 On ch=3 n=74 v=0
114720 On ch=3 n=73 v=111
114720 On ch=3 n=85 v=111
114768 On ch=3 n=85 v=0
114768 On ch=3 n=73 v=0
114768 On ch=3 n=65 v=111
114768 On ch=3 n=77 v=111
114806 On ch=3 n=77 v=0
114816 On ch=3 n=65 v=0
114816 On ch=3 n=65 v=111
114816 On ch=3 n=77 v=111
114864 On ch=3 n=77 v=0
114864 On ch=3 n=65 v=0
114864 On ch=3 n=64 v=111
114864 On ch=3 n=76 v=111
114912 On ch=3 n=76 v=0
114912 On ch=3 n=64 v=0
114912 On ch=3 n=72 v=111
114912 On ch=3 n=84 v=111
114960 On ch=3 n=84 v=0
114960 On ch=3 n=72 v=0
114960 On ch=3 n=71 v=111
114960 On ch=3 n=83 v=111
115008 On ch=3 n=83 v=0
115008 On ch=3 n=71 v=0
115008 On ch=3 n=63 v=111
115008 On ch=3 n=75 v=111
115056 On ch=3 n=75 v=0
115056 On ch=3 n=63 v=0
115056 On ch=3 n=62 v=111
115056 On ch=3 n=74 v=111
115104 On ch=3 n=74 v=0
115104 On ch=3 n=62 v=0
115104 On ch=3 n=70 v=111
115104 On ch=3 n=82 v=111
115152 On ch=3 n=82 v=0
115152 On ch=3 n=70 v=0
115152 On ch=3 n=69 v=111
115152 On ch=3 n=81 v=111
115190 On ch=3 n=81 v=0
115200 On ch=3 n=69 v=0
115200 Par ch=3 c=11 v=64
115200 On ch=3 n=80 v=111
115212 Par ch=3 c=11 v=63
115224 Par ch=3 c=11 v=62
115236 Par ch=3 c=11 v=61
115248 Par ch=3 c=11 v=60
115260 Par ch=3 c=11 v=59
115268 Par ch=3 c=11 v=58
115280 Par ch=3 c=11 v=57
115292 Par ch=3 c=11 v=56
115304 Par ch=3 c=11 v=55
115316 Par ch=3 c=11 v=54
115328 Par ch=3 c=11 v=53
115336 Par ch=3 c=11 v=52
115348 Par ch=3 c=11 v=51
115360 Par ch=3 c=11 v=50
115372 Par ch=3 c=11 v=49
115384 Par ch=3 c=11 v=48
115392 On ch=3 n=80 v=0
115392 Par ch=3 c=11 v=47
115392 On ch=3 n=78 v=111
115404 Par ch=3 c=11 v=46
115416 Par ch=3 c=11 v=45
115428 Par ch=3 c=11 v=44
115440 Par ch=3 c=11 v=43
115452 Par ch=3 c=11 v=42
115460 Par ch=3 c=11 v=41
115472 Par ch=3 c=11 v=40
115484 Par ch=3 c=11 v=39
115496 Par ch=3 c=11 v=38
115508 Par ch=3 c=11 v=37
115520 Par ch=3 c=11 v=36
115528 Par ch=3 c=11 v=35
115540 Par ch=3 c=11 v=34
115552 Par ch=3 c=11 v=33
115564 Par ch=3 c=11 v=32
115584 Par ch=3 c=11 v=32
115596 Par ch=3 c=11 v=33
115608 Par ch=3 c=11 v=34
115620 Par ch=3 c=11 v=35
115632 Par ch=3 c=11 v=36
115644 Par ch=3 c=11 v=37
115656 Par ch=3 c=11 v=38
115660 On ch=3 n=78 v=0
115668 Par ch=3 c=11 v=39
115680 Par ch=3 c=11 v=40
115680 On ch=3 n=76 v=111
115692 Par ch=3 c=11 v=41
115704 Par ch=3 c=11 v=42
115712 Par ch=3 c=11 v=43
115724 Par ch=3 c=11 v=44
115736 Par ch=3 c=11 v=45
115748 Par ch=3 c=11 v=46
115756 On ch=3 n=76 v=0
115760 Par ch=3 c=11 v=47
115772 Par ch=3 c=11 v=48
115776 On ch=3 n=75 v=111
115784 Par ch=3 c=11 v=49
115796 Par ch=3 c=11 v=50
115808 Par ch=3 c=11 v=51
115820 Par ch=3 c=11 v=52
115832 Par ch=3 c=11 v=53
115840 Par ch=3 c=11 v=54
115852 On ch=3 n=75 v=0
115852 Par ch=3 c=11 v=55
115864 Par ch=3 c=11 v=56
115872 On ch=3 n=74 v=111
115876 Par ch=3 c=11 v=57
115888 Par ch=3 c=11 v=58
115900 Par ch=3 c=11 v=59
115912 Par ch=3 c=11 v=60
115924 Par ch=3 c=11 v=61
115936 Par ch=3 c=11 v=62
115948 On ch=3 n=74 v=0
115948 Par ch=3 c=11 v=63
115960 Par ch=3 c=11 v=64
115968 On ch=3 n=80 v=111
116160 On ch=3 n=80 v=0
116160 On ch=3 n=78 v=111
116428 On ch=3 n=78 v=0
116448 Par ch=3 c=11 v=64
116448 On ch=3 n=77 v=111
116468 Par ch=3 c=11 v=63
116484 Par ch=3 c=11 v=62
116500 Par ch=3 c=11 v=61
116516 Par ch=3 c=11 v=60
116524 On ch=3 n=77 v=0
116536 Par ch=3 c=11 v=59
116544 On ch=3 n=76 v=111
116552 Par ch=3 c=11 v=58
116568 Par ch=3 c=11 v=57
116584 Par ch=3 c=11 v=56
116604 Par ch=3 c=11 v=55
116620 On ch=3 n=76 v=0
116620 Par ch=3 c=11 v=54
116636 Par ch=3 c=11 v=53
116640 On ch=3 n=75 v=111
116652 Par ch=3 c=11 v=52
116672 Par ch=3 c=11 v=51
116688 Par ch=3 c=11 v=50
116704 Par ch=3 c=11 v=49
116716 On ch=3 n=75 v=0
116720 Par ch=3 c=11 v=48
116736 Par ch=3 c=11 v=64
116736 On ch=3 n=70 v=79
116736 On ch=3 n=75 v=79
116784 Par ch=3 c=11 v=63
116828 Par ch=3 c=11 v=62
116872 Par ch=3 c=11 v=61
116920 Par ch=3 c=11 v=60
116964 Par ch=3 c=11 v=59
117008 Par ch=3 c=11 v=58
117056 Par ch=3 c=11 v=57
117100 Par ch=3 c=11 v=56
117144 Par ch=3 c=11 v=55
117188 Par ch=3 c=11 v=54
117236 Par ch=3 c=11 v=53
117280 Par ch=3 c=11 v=52
117324 Par ch=3 c=11 v=51
117372 Par ch=3 c=11 v=50
117416 Par ch=3 c=11 v=49
117427 On ch=3 n=75 v=0
117427 On ch=3 n=70 v=0
117460 Par ch=3 c=11 v=48
117760 Par ch=3 c=11 v=64
117760 On ch=3 n=78 v=127
117781 On ch=3 n=78 v=0
117792 On ch=3 n=80 v=127
117813 On ch=3 n=80 v=0
117824 On ch=3 n=78 v=127
117845 On ch=3 n=78 v=0
117856 On ch=3 n=77 v=127
117877 On ch=3 n=77 v=0
117888 On ch=3 n=78 v=127
117926 On ch=3 n=78 v=0
117960 On ch=3 n=75 v=127
117979 On ch=3 n=75 v=0
117984 On ch=3 n=66 v=127
118022 On ch=3 n=66 v=0
118176 On ch=3 n=77 v=127
118202 On ch=3 n=77 v=0
118208 On ch=3 n=78 v=127
118234 On ch=3 n=78 v=0
118240 On ch=3 n=80 v=127
118266 On ch=3 n=80 v=0
118272 On ch=3 n=82 v=127
118368 On ch=3 n=82 v=0
118368 On ch=3 n=78 v=127
118399 On ch=3 n=78 v=0
118440 On ch=3 n=80 v=127
118456 On ch=3 n=80 v=0
118464 On ch=3 n=82 v=127
118560 On ch=3 n=82 v=0
118560 On ch=3 n=85 v=127
118591 On ch=3 n=85 v=0
118632 On ch=3 n=83 v=127
118648 On ch=3 n=83 v=0
118656 On ch=3 n=82 v=127
118733 On ch=3 n=82 v=0
118752 On ch=3 n=75 v=127
118829 On ch=3 n=75 v=0
118944 On ch=3 n=85 v=127
118982 On ch=3 n=85 v=0
119016 On ch=3 n=83 v=127
119035 On ch=3 n=83 v=0
119040 On ch=3 n=82 v=127
119117 On ch=3 n=82 v=0
119136 On ch=3 n=87 v=127
119213 On ch=3 n=87 v=0
119328 On ch=3 n=78 v=127
119366 On ch=3 n=78 v=0
119400 On ch=3 n=77 v=127
119419 On ch=3 n=77 v=0
119424 On ch=3 n=74 v=127
119472 On ch=3 n=74 v=0
119472 On ch=3 n=75 v=127
119510 On ch=3 n=75 v=0
119520 On ch=3 n=66 v=127
119551 On ch=3 n=66 v=0
119592 On ch=3 n=68 v=127
119608 On ch=3 n=68 v=0
119616 On ch=3 n=70 v=127
119693 On ch=3 n=70 v=0
119712 On ch=3 n=73 v=127
119750 On ch=3 n=73 v=0
119784 On ch=3 n=71 v=127
119803 On ch=3 n=71 v=0
119808 On ch=3 n=70 v=127
119885 On ch=3 n=70 v=0
119904 On ch=3 n=63 v=127
119981 On ch=3 n=63 v=0
120096 On ch=3 n=80 v=111
120127 On ch=3 n=80 v=0
120168 On ch=3 n=76 v=111
120184 On ch=3 n=76 v=0
120192 On ch=3 n=74 v=111
120240 On ch=3 n=74 v=0
120240 On ch=3 n=75 v=111
120271 On ch=3 n=75 v=0
120288 On ch=3 n=68 v=111
120319 On ch=3 n=68 v=0
120360 On ch=3 n=70 v=111
120376 On ch=3 n=70 v=0
120384 On ch=3 n=71 v=111
120422 On ch=3 n=71 v=0
120840 On ch=3 n=71 v=111
120864 On ch=3 n=71 v=0
120864 On ch=3 n=81 v=111
120895 On ch=3 n=81 v=0
120936 On ch=3 n=79 v=111
120952 On ch=3 n=79 v=0
120960 On ch=3 n=78 v=111
120991 On ch=3 n=78 v=0
121032 On ch=3 n=72 v=111
121056 On ch=3 n=72 v=0
121056 On ch=3 n=81 v=111
121087 On ch=3 n=81 v=0
121128 On ch=3 n=79 v=111
121144 On ch=3 n=79 v=0
121152 On ch=3 n=78 v=111
121183 On ch=3 n=78 v=0
121224 On ch=3 n=72 v=127
121248 On ch=3 n=72 v=0
121248 On ch=3 n=87 v=127
121279 On ch=3 n=87 v=0
121320 On ch=3 n=86 v=127
121336 On ch=3 n=86 v=0
121344 On ch=3 n=85 v=127
121375 On ch=3 n=85 v=0
121416 On ch=3 n=84 v=127
121432 On ch=3 n=84 v=0
121440 On ch=3 n=83 v=127
121471 On ch=3 n=83 v=0
121512 On ch=3 n=82 v=127
121528 On ch=3 n=82 v=0
121536 On ch=3 n=81 v=127
121567 On ch=3 n=81 v=0
121608 On ch=3 n=80 v=127
121624 On ch=3 n=80 v=0
121632 On ch=3 n=79 v=127
121663 On ch=3 n=79 v=0
121704 On ch=3 n=78 v=127
121720 On ch=3 n=78 v=0
121728 On ch=3 n=83 v=127
121759 On ch=3 n=83 v=0
121800 On ch=3 n=82 v=127
121816 On ch=3 n=82 v=0
121824 On ch=3 n=81 v=127
121855 On ch=3 n=81 v=0
121896 On ch=3 n=80 v=127
121912 On ch=3 n=80 v=0
121920 On ch=3 n=79 v=127
121951 On ch=3 n=79 v=0
121992 On ch=3 n=78 v=127
122008 On ch=3 n=78 v=0
122016 On ch=3 n=77 v=127
122047 On ch=3 n=77 v=0
122088 On ch=3 n=76 v=127
122104 On ch=3 n=76 v=0
122112 On ch=3 n=81 v=127
122528 On ch=3 n=81 v=0
122528 On ch=3 n=80 v=127
122560 On ch=3 n=80 v=0
122560 On ch=3 n=79 v=127
122592 On ch=3 n=79 v=0
122592 On ch=3 n=78 v=127
122624 On ch=3 n=78 v=0
122624 On ch=3 n=77 v=127
122656 On ch=3 n=77 v=0
122656 On ch=3 n=76 v=127
122688 On ch=3 n=76 v=0
122688 On ch=3 n=75 v=127
122720 On ch=3 n=75 v=0
122720 On ch=3 n=74 v=127
122752 On ch=3 n=74 v=0
122752 On ch=3 n=73 v=127
122784 On ch=3 n=73 v=0
122784 On ch=3 n=72 v=127
122816 On ch=3 n=72 v=0
122816 On ch=3 n=70 v=127
122848 On ch=3 n=70 v=0
122848 On ch=3 n=69 v=127
122880 On ch=3 n=69 v=0
122880 On ch=3 n=67 v=127
122918 On ch=3 n=67 v=0
123264 On ch=3 n=67 v=100
123267 On ch=3 n=72 v=100
123270 On ch=3 n=79 v=100
123276 On ch=3 n=67 v=0
123279 On ch=3 n=72 v=0
123286 On ch=3 n=79 v=0
123360 On ch=3 n=79 v=100
123363 On ch=3 n=84 v=100
123366 On ch=3 n=87 v=100
123372 On ch=3 n=79 v=0
123375 On ch=3 n=84 v=0
123382 On ch=3 n=87 v=0
124032 On ch=3 n=67 v=100
124035 On ch=3 n=73 v=100
124038 On ch=3 n=79 v=100
124044 On ch=3 n=67 v=0
124047 On ch=3 n=73 v=0
124054 On ch=3 n=79 v=0
124128 On ch=3 n=79 v=100
124131 On ch=3 n=82 v=100
124134 On ch=3 n=85 v=100
124140 On ch=3 n=79 v=0
124143 On ch=3 n=82 v=0
124150 On ch=3 n=85 v=0
125568 On ch=3 n=79 v=100
125606 On ch=3 n=79 v=0
125640 On ch=3 n=79 v=100
125659 On ch=3 n=79 v=0
125664 On ch=3 n=79 v=100
125690 On ch=3 n=79 v=0
125696 On ch=3 n=79 v=100
125722 On ch=3 n=79 v=0
125728 On ch=3 n=79 v=100
125754 On ch=3 n=79 v=0
125760 On ch=3 n=79 v=100
125798 On ch=3 n=79 v=0
125832 On ch=3 n=79 v=100
125851 On ch=3 n=79 v=0
125856 On ch=3 n=79 v=100
125882 On ch=3 n=79 v=0
125888 On ch=3 n=79 v=100
125914 On ch=3 n=79 v=0
125920 On ch=3 n=79 v=100
125946 On ch=3 n=79 v=0
125952 Par ch=3 c=11 v=64
125952 On ch=3 n=79 v=100
125960 On ch=3 n=79 v=0
125960 On ch=3 n=80 v=100
125968 On ch=3 n=80 v=0
125968 On ch=3 n=79 v=100
125976 On ch=3 n=79 v=0
125976 Par ch=3 c=11 v=65
125976 On ch=3 n=80 v=100
125984 On ch=3 n=80 v=0
125984 On ch=3 n=79 v=100
125992 On ch=3 n=79 v=0
125992 On ch=3 n=80 v=100
126000 On ch=3 n=80 v=0
126000 Par ch=3 c=11 v=66
126000 On ch=3 n=79 v=100
126008 On ch=3 n=79 v=0
126008 On ch=3 n=80 v=100
126016 On ch=3 n=80 v=0
126016 On ch=3 n=79 v=100
126020 Par ch=3 c=11 v=67
126024 On ch=3 n=79 v=0
126024 On ch=3 n=80 v=100
126032 On ch=3 n=80 v=0
126032 On ch=3 n=79 v=100
126040 On ch=3 n=79 v=0
126040 On ch=3 n=80 v=100
126044 Par ch=3 c=11 v=68
126048 On ch=3 n=80 v=0
126048 On ch=3 n=79 v=100
126056 On ch=3 n=79 v=0
126056 On ch=3 n=80 v=100
126064 On ch=3 n=80 v=0
126064 On ch=3 n=79 v=100
126068 Par ch=3 c=11 v=69
126072 On ch=3 n=79 v=0
126072 On ch=3 n=80 v=100
126080 On ch=3 n=80 v=0
126080 On ch=3 n=79 v=100
126088 On ch=3 n=79 v=0
126088 Par ch=3 c=11 v=70
126088 On ch=3 n=80 v=100
126096 On ch=3 n=80 v=0
126096 On ch=3 n=79 v=100
126104 On ch=3 n=79 v=0
126104 On ch=3 n=80 v=100
126112 On ch=3 n=80 v=0
126112 Par ch=3 c=11 v=71
126112 On ch=3 n=79 v=100
126120 On ch=3 n=79 v=0
126120 On ch=3 n=80 v=100
126128 On ch=3 n=80 v=0
126128 On ch=3 n=79 v=100
126136 On ch=3 n=79 v=0
126136 Par ch=3 c=11 v=72
126136 On ch=3 n=80 v=100
126144 On ch=3 n=80 v=0
126144 On ch=3 n=79 v=100
126152 On ch=3 n=79 v=0
126152 On ch=3 n=80 v=100
126156 Par ch=3 c=11 v=73
126160 On ch=3 n=80 v=0
126160 On ch=3 n=79 v=100
126168 On ch=3 n=79 v=0
126168 On ch=3 n=80 v=100
126176 On ch=3 n=80 v=0
126176 On ch=3 n=79 v=100
126180 Par ch=3 c=11 v=74
126184 On ch=3 n=79 v=0
126184 On ch=3 n=80 v=100
126192 On ch=3 n=80 v=0
126192 On ch=3 n=79 v=100
126200 On ch=3 n=79 v=0
126200 On ch=3 n=80 v=100
126204 Par ch=3 c=11 v=75
126208 On ch=3 n=80 v=0
126208 On ch=3 n=79 v=100
126216 On ch=3 n=79 v=0
126216 On ch=3 n=80 v=100
126224 On ch=3 n=80 v=0
126224 Par ch=3 c=11 v=76
126224 On ch=3 n=79 v=100
126232 On ch=3 n=79 v=0
126232 On ch=3 n=80 v=100
126240 On ch=3 n=80 v=0
126240 On ch=3 n=79 v=100
126248 On ch=3 n=79 v=0
126248 Par ch=3 c=11 v=77
126248 On ch=3 n=80 v=100
126256 On ch=3 n=80 v=0
126256 On ch=3 n=79 v=100
126264 On ch=3 n=79 v=0
126264 On ch=3 n=80 v=100
126272 On ch=3 n=80 v=0
126272 Par ch=3 c=11 v=78
126272 On ch=3 n=79 v=100
126280 On ch=3 n=79 v=0
126280 On ch=3 n=80 v=100
126288 On ch=3 n=80 v=0
126288 On ch=3 n=79 v=100
126292 Par ch=3 c=11 v=79
126296 On ch=3 n=79 v=0
126296 On ch=3 n=80 v=100
126304 On ch=3 n=80 v=0
126304 On ch=3 n=79 v=100
126312 On ch=3 n=79 v=0
126312 On ch=3 n=78 v=100
126316 Par ch=3 c=11 v=80
126320 On ch=3 n=78 v=0
126320 On ch=3 n=79 v=100
126328 On ch=3 n=79 v=0
126336 Par ch=3 c=11 v=64
126336 On ch=3 n=84 v=100
126367 On ch=3 n=84 v=0
129024 On ch=3 n=72 v=31
129178 On ch=3 n=72 v=0
129216 On ch=3 n=67 v=31
129331 On ch=3 n=67 v=0
129360 On ch=3 n=67 v=31
129398 On ch=3 n=67 v=0
129408 On ch=3 n=72 v=31
129562 On ch=3 n=72 v=0
129664 On ch=3 n=72 v=31
129685 On ch=3 n=72 v=0
129696 On ch=3 n=74 v=31
129717 On ch=3 n=74 v=0
129728 On ch=3 n=72 v=31
129749 On ch=3 n=72 v=0
129760 On ch=3 n=71 v=31
129781 On ch=3 n=71 v=0
129792 On ch=3 n=72 v=31
129823 On ch=3 n=72 v=0
129864 On ch=3 n=67 v=31
129880 On ch=3 n=67 v=0
129888 On ch=3 n=60 v=31
129919 On ch=3 n=60 v=0
130848 On ch=3 n=72 v=47
130886 On ch=3 n=72 v=0
130944 On ch=3 n=67 v=47
130944 On ch=3 n=79 v=47
131098 On ch=3 n=79 v=0
131098 On ch=3 n=67 v=0
131136 On ch=3 n=74 v=47
131136 On ch=3 n=86 v=47
131251 On ch=3 n=86 v=0
131251 On ch=3 n=74 v=0
131280 On ch=3 n=72 v=47
131280 On ch=3 n=84 v=47
131311 On ch=3 n=84 v=0
131311 On ch=3 n=72 v=0
131328 On ch=3 n=67 v=47
131328 On ch=3 n=79 v=47
131482 On ch=3 n=79 v=0
131482 On ch=3 n=67 v=0
131520 On ch=3 n=74 v=47
131520 On ch=3 n=86 v=47
131635 On ch=3 n=86 v=0
131635 On ch=3 n=74 v=0
131664 On ch=3 n=72 v=47
131664 On ch=3 n=84 v=47
131695 On ch=3 n=84 v=0
131695 On ch=3 n=72 v=0
131712 On ch=3 n=67 v=47
131712 On ch=3 n=79 v=47
131789 On ch=3 n=79 v=0
131789 On ch=3 n=67 v=0
131808 On ch=3 n=72 v=47
131808 On ch=3 n=84 v=47
131839 On ch=3 n=84 v=0
131839 On ch=3 n=72 v=0
131880 On ch=3 n=70 v=47
131880 On ch=3 n=82 v=47
131896 On ch=3 n=82 v=0
131896 On ch=3 n=70 v=0
131904 On ch=3 n=67 v=47
131904 On ch=3 n=79 v=47
132019 On ch=3 n=79 v=0
132019 On ch=3 n=67 v=0
132048 On ch=3 n=65 v=47
132048 On ch=3 n=77 v=47
132079 On ch=3 n=77 v=0
132079 On ch=3 n=65 v=0
132096 On ch=3 n=63 v=47
132096 On ch=3 n=75 v=47
132143 On ch=3 n=75 v=0
132143 On ch=3 n=63 v=0
132168 On ch=3 n=65 v=47
132168 On ch=3 n=77 v=47
132184 On ch=3 n=77 v=0
132184 On ch=3 n=65 v=0
132192 On ch=3 n=67 v=47
132192 On ch=3 n=79 v=47
132307 On ch=3 n=79 v=0
132307 On ch=3 n=67 v=0
132336 On ch=3 n=65 v=47
132336 On ch=3 n=77 v=47
132367 On ch=3 n=77 v=0
132367 On ch=3 n=65 v=0
132384 On ch=3 n=63 v=47
132384 On ch=3 n=75 v=47
132405 On ch=3 n=75 v=0
132405 On ch=3 n=63 v=0
132416 On ch=3 n=62 v=47
132416 On ch=3 n=74 v=47
132437 On ch=3 n=74 v=0
132437 On ch=3 n=62 v=0
132448 On ch=3 n=60 v=47
132448 On ch=3 n=72 v=47
132469 On ch=3 n=72 v=0
132469 On ch=3 n=60 v=0
132480 On ch=3 n=68 v=47
132557 On ch=3 n=68 v=0
133152 On ch=3 n=68 v=47
133152 On ch=3 n=80 v=47
133229 On ch=3 n=80 v=0
133229 On ch=3 n=68 v=0
133248 Par ch=3 c=11 v=64
133248 On ch=3 n=67 v=47
133248 On ch=3 n=79 v=47
133264 Par ch=3 c=11 v=65
133280 Par ch=3 c=11 v=66
133296 Par ch=3 c=11 v=67
133312 Par ch=3 c=11 v=68
133325 On ch=3 n=79 v=0
133325 On ch=3 n=67 v=0
133328 Par ch=3 c=11 v=69
133344 Par ch=3 c=11 v=70
133344 On ch=3 n=62 v=47
133344 On ch=3 n=74 v=47
133360 Par ch=3 c=11 v=71
133376 Par ch=3 c=11 v=72
133392 Par ch=3 c=11 v=73
133402 On ch=3 n=74 v=0
133402 On ch=3 n=62 v=0
133408 Par ch=3 c=11 v=74
133416 On ch=3 n=63 v=47
133416 On ch=3 n=75 v=47
133424 Par ch=3 c=11 v=75
133435 On ch=3 n=75 v=0
133435 On ch=3 n=63 v=0
133440 Par ch=3 c=11 v=76
133440 On ch=3 n=65 v=47
133440 On ch=3 n=77 v=47
133452 Par ch=3 c=11 v=77
133468 Par ch=3 c=11 v=78
133484 Par ch=3 c=11 v=79
133500 Par ch=3 c=11 v=80
133516 Par ch=3 c=11 v=81
133517 On ch=3 n=77 v=0
133517 On ch=3 n=65 v=0
133532 Par ch=3 c=11 v=82
133536 On ch=3 n=68 v=47
133536 On ch=3 n=80 v=47
133548 Par ch=3 c=11 v=83
133564 Par ch=3 c=11 v=84
133580 Par ch=3 c=11 v=85
133596 Par ch=3 c=11 v=86
133612 Par ch=3 c=11 v=87
133613 On ch=3 n=80 v=0
133613 On ch=3 n=68 v=0
133628 Par ch=3 c=11 v=88
133632 On ch=3 n=67 v=47
133632 On ch=3 n=79 v=47
133640 Par ch=3 c=11 v=89
133656 Par ch=3 c=11 v=90
133663 On ch=3 n=79 v=0
133663 On ch=3 n=67 v=0
133672 Par ch=3 c=11 v=91
133688 Par ch=3 c=11 v=92
133704 Par ch=3 c=11 v=93
133720 Par ch=3 c=11 v=94
133728 On ch=3 n=75 v=47
133728 On ch=3 n=87 v=47
133736 Par ch=3 c=11 v=95
133752 Par ch=3 c=11 v=96
133768 Par ch=3 c=11 v=97
133784 Par ch=3 c=11 v=98
133800 Par ch=3 c=11 v=99
133816 Par ch=3 c=11 v=100
133828 Par ch=3 c=11 v=101
133844 Par ch=3 c=11 v=102
133860 Par ch=3 c=11 v=103
133876 Par ch=3 c=11 v=104
133882 On ch=3 n=87 v=0
133882 On ch=3 n=75 v=0
133892 Par ch=3 c=11 v=105
133908 Par ch=3 c=11 v=106
133920 On ch=3 n=74 v=47
133920 On ch=3 n=86 v=47
133924 Par ch=3 c=11 v=107
133940 Par ch=3 c=11 v=108
133956 Par ch=3 c=11 v=109
133972 Par ch=3 c=11 v=110
133988 Par ch=3 c=11 v=111
133997 On ch=3 n=86 v=0
133997 On ch=3 n=74 v=0
134004 Par ch=3 c=11 v=112
134016 Par ch=3 c=11 v=64
134016 On ch=3 n=72 v=95
134016 On ch=3 n=84 v=95
134093 On ch=3 n=84 v=0
134093 On ch=3 n=72 v=0
134112 On ch=3 n=75 v=95
134170 On ch=3 n=75 v=0
134184 On ch=3 n=77 v=95
134203 On ch=3 n=77 v=0
134208 On ch=3 n=79 v=95
134285 On ch=3 n=79 v=0
134304 On ch=3 n=82 v=95
134362 On ch=3 n=82 v=0
134376 On ch=3 n=80 v=95
134395 On ch=3 n=80 v=0
134400 On ch=3 n=79 v=95
134438 On ch=3 n=79 v=0
134496 On ch=3 n=72 v=95
134650 On ch=3 n=72 v=0
134688 On ch=3 n=74 v=95
134714 On ch=3 n=74 v=0
134720 On ch=3 n=75 v=95
134746 On ch=3 n=75 v=0
134752 On ch=3 n=77 v=95
134778 On ch=3 n=77 v=0
134784 On ch=3 n=79 v=95
134815 On ch=3 n=79 v=0
135424 Par ch=3 c=11 v=64
135424 On ch=3 n=72 v=95
135432 Par ch=3 c=11 v=65
135440 Par ch=3 c=11 v=66
135445 On ch=3 n=72 v=0
135448 Par ch=3 c=11 v=67
135456 Par ch=3 c=11 v=68
135456 On ch=3 n=79 v=95
135464 Par ch=3 c=11 v=69
135472 Par ch=3 c=11 v=70
135477 On ch=3 n=79 v=0
135480 Par ch=3 c=11 v=71
135488 Par ch=3 c=11 v=72
135488 On ch=3 n=82 v=95
135492 Par ch=3 c=11 v=73
135500 Par ch=3 c=11 v=74
135508 Par ch=3 c=11 v=75
135509 On ch=3 n=82 v=0
135516 Par ch=3 c=11 v=76
135520 On ch=3 n=85 v=95
135524 Par ch=3 c=11 v=77
135532 Par ch=3 c=11 v=78
135540 Par ch=3 c=11 v=79
135541 On ch=3 n=85 v=0
135548 Par ch=3 c=11 v=80
135552 Par ch=3 c=11 v=64
135552 On ch=3 n=84 v=111
135583 On ch=3 n=84 v=0
135624 On ch=3 n=82 v=111
135640 On ch=3 n=82 v=0
135648 On ch=3 n=80 v=111
135679 On ch=3 n=80 v=0
135720 On ch=3 n=79 v=111
135736 On ch=3 n=79 v=0
135744 On ch=3 n=77 v=111
135775 On ch=3 n=77 v=0
135816 On ch=3 n=75 v=111
135832 On ch=3 n=75 v=0
135840 On ch=3 n=73 v=111
135871 On ch=3 n=73 v=0
135912 On ch=3 n=72 v=111
135928 On ch=3 n=72 v=0
135936 On ch=3 n=80 v=111
135967 On ch=3 n=80 v=0
136008 On ch=3 n=79 v=111
136024 On ch=3 n=79 v=0
136032 On ch=3 n=77 v=111
136063 On ch=3 n=77 v=0
136104 On ch=3 n=75 v=111
136120 On ch=3 n=75 v=0
136128 On ch=3 n=73 v=111
136159 On ch=3 n=73 v=0
136200 On ch=3 n=72 v=111
136216 On ch=3 n=72 v=0
136224 On ch=3 n=70 v=111
136255 On ch=3 n=70 v=0
136296 On ch=3 n=68 v=111
136312 On ch=3 n=68 v=0
136320 On ch=3 n=67 v=111
136358 On ch=3 n=67 v=0
137088 On ch=3 n=79 v=111
137376 On ch=3 n=79 v=0
137376 On ch=3 n=75 v=111
137472 On ch=3 n=75 v=0
137472 Par ch=3 c=11 v=64
137472 On ch=3 n=74 v=111
137476 Par ch=3 c=11 v=62
137480 Par ch=3 c=11 v=60
137484 Par ch=3 c=11 v=58
137488 Par ch=3 c=11 v=56
137492 Par ch=3 c=11 v=54
137496 Par ch=3 c=11 v=52
137500 Par ch=3 c=11 v=50
137504 Par ch=3 c=11 v=48
137508 Par ch=3 c=11 v=46
137512 Par ch=3 c=11 v=44
137516 Par ch=3 c=11 v=42
137520 Par ch=3 c=11 v=40
137524 Par ch=3 c=11 v=38
137528 Par ch=3 c=11 v=36
137532 Par ch=3 c=11 v=34
137536 Par ch=3 c=11 v=32
137540 Par ch=3 c=11 v=30
137544 Par ch=3 c=11 v=28
137548 Par ch=3 c=11 v=26
137552 Par ch=3 c=11 v=24
137556 Par ch=3 c=11 v=22
137560 Par ch=3 c=11 v=20
137564 Par ch=3 c=11 v=18
137568 On ch=3 n=74 v=0
137568 On ch=3 n=72 v=111
137645 On ch=3 n=72 v=0
137760 Par ch=3 c=11 v=64
137760 On ch=3 n=75 v=79
137798 On ch=3 n=75 v=0
137808 On ch=3 n=74 v=63
137846 On ch=3 n=74 v=0
137856 On ch=3 n=74 v=47
137904 On ch=3 n=74 v=0
137904 On ch=3 n=72 v=47
137942 On ch=3 n=72 v=0
137952 On ch=3 n=74 v=47
137990 On ch=3 n=74 v=0
138000 On ch=3 n=75 v=47
138038 On ch=3 n=75 v=0
138048 Par ch=3 c=11 v=64
138048 On ch=3 n=77 v=47
138060 Par ch=3 c=11 v=65
138072 Par ch=3 c=11 v=66
138084 Par ch=3 c=11 v=67
138086 On ch=3 n=77 v=0
138096 Par ch=3 c=11 v=68
138096 On ch=3 n=75 v=47
138108 Par ch=3 c=11 v=69
138116 Par ch=3 c=11 v=70
138128 Par ch=3 c=11 v=71
138134 On ch=3 n=75 v=0
138140 Par ch=3 c=11 v=72
138144 On ch=3 n=77 v=47
138152 Par ch=3 c=11 v=73
138164 Par ch=3 c=11 v=74
138176 Par ch=3 c=11 v=75
138184 Par ch=3 c=11 v=76
138192 On ch=3 n=77 v=0
138192 On ch=3 n=79 v=47
138196 Par ch=3 c=11 v=77
138208 Par ch=3 c=11 v=78
138220 Par ch=3 c=11 v=79
138230 On ch=3 n=79 v=0
138232 Par ch=3 c=11 v=80
138240 Par ch=3 c=11 v=80
138240 On ch=3 n=82 v=47
138248 Par ch=3 c=11 v=79
138252 Par ch=3 c=11 v=78
138260 Par ch=3 c=11 v=77
138264 Par ch=3 c=11 v=76
138272 Par ch=3 c=11 v=75
138276 Par ch=3 c=11 v=74
138284 Par ch=3 c=11 v=73
138288 Par ch=3 c=11 v=72
138296 Par ch=3 c=11 v=71
138300 Par ch=3 c=11 v=70
138308 Par ch=3 c=11 v=69
138312 Par ch=3 c=11 v=68
138320 Par ch=3 c=11 v=67
138324 Par ch=3 c=11 v=66
138332 Par ch=3 c=11 v=65
138336 On ch=3 n=82 v=0
138336 Par ch=3 c=11 v=64
138336 On ch=3 n=80 v=47
138413 On ch=3 n=80 v=0
138528 On ch=3 n=75 v=47
138624 On ch=3 n=75 v=0
138624 On ch=3 n=82 v=47
138720 On ch=3 n=82 v=0
138720 On ch=3 n=80 v=47
138797 On ch=3 n=80 v=0
139008 On ch=3 n=71 v=47
139392 Par ch=3 c=11 v=64
139416 Par ch=3 c=11 v=63
139440 Par ch=3 c=11 v=62
139460 Par ch=3 c=11 v=61
139484 Par ch=3 c=11 v=60
139508 Par ch=3 c=11 v=59
139528 Par ch=3 c=11 v=58
139552 Par ch=3 c=11 v=57
139576 Par ch=3 c=11 v=56
139596 Par ch=3 c=11 v=55
139620 Par ch=3 c=11 v=54
139644 Par ch=3 c=11 v=53
139664 Par ch=3 c=11 v=52
139688 Par ch=3 c=11 v=51
139699 On ch=3 n=71 v=0
139712 Par ch=3 c=11 v=50
139732 Par ch=3 c=11 v=49
139756 Par ch=3 c=11 v=48
140160 Par ch=3 c=11 v=64
156672 Par ch=3 c=11 v=64
156672 On ch=3 n=74 v=47
156676 Par ch=3 c=11 v=65
156680 Par ch=3 c=11 v=66
156684 Par ch=3 c=11 v=68
156688 Par ch=3 c=11 v=69
156692 Par ch=3 c=11 v=71
156696 Par ch=3 c=11 v=72
156700 Par ch=3 c=11 v=73
156704 Par ch=3 c=11 v=75
156708 Par ch=3 c=11 v=76
156712 Par ch=3 c=11 v=78
156716 Par ch=3 c=11 v=79
156720 Par ch=3 c=11 v=79
156724 Par ch=3 c=11 v=78
156728 Par ch=3 c=11 v=77
156732 Par ch=3 c=11 v=76
156736 Par ch=3 c=11 v=74
156740 Par ch=3 c=11 v=73
156744 Par ch=3 c=11 v=72
156748 Par ch=3 c=11 v=71
156752 Par ch=3 c=11 v=69
156756 Par ch=3 c=11 v=68
156760 Par ch=3 c=11 v=67
156764 Par ch=3 c=11 v=66
156768 Par ch=3 c=11 v=64
156826 On ch=3 n=74 v=0
156864 Par ch=3 c=11 v=64
156864 On ch=3 n=77 v=47
156868 Par ch=3 c=11 v=65
156872 Par ch=3 c=11 v=66
156876 Par ch=3 c=11 v=68
156880 Par ch=3 c=11 v=69
156884 Par ch=3 c=11 v=71
156888 Par ch=3 c=11 v=72
156892 Par ch=3 c=11 v=73
156896 Par ch=3 c=11 v=75
156900 Par ch=3 c=11 v=76
156904 Par ch=3 c=11 v=78
156908 Par ch=3 c=11 v=79
156912 Par ch=3 c=11 v=79
156916 Par ch=3 c=11 v=78
156920 Par ch=3 c=11 v=77
156924 Par ch=3 c=11 v=76
156928 Par ch=3 c=11 v=74
156932 Par ch=3 c=11 v=73
156936 Par ch=3 c=11 v=72
156940 Par ch=3 c=11 v=71
156944 Par ch=3 c=11 v=69
156948 Par ch=3 c=11 v=68
156952 Par ch=3 c=11 v=67
156956 Par ch=3 c=11 v=66
156960 Par ch=3 c=11 v=64
156979 On ch=3 n=77 v=0
157008 On ch=3 n=75 v=47
157039 On ch=3 n=75 v=0
157056 On ch=3 n=74 v=47
157286 On ch=3 n=74 v=0
157344 On ch=3 n=80 v=47
157421 On ch=3 n=80 v=0
157440 On ch=3 n=79 v=47
157517 On ch=3 n=79 v=0
157536 On ch=3 n=74 v=47
157594 On ch=3 n=74 v=0
157608 On ch=3 n=75 v=47
157624 On ch=3 n=75 v=0
157632 On ch=3 n=77 v=47
157709 On ch=3 n=77 v=0
157728 On ch=3 n=80 v=47
157805 On ch=3 n=80 v=0
157824 On ch=3 n=79 v=47
157862 On ch=3 n=79 v=0
157920 On ch=3 n=75 v=47
157920 On ch=3 n=87 v=47
158074 On ch=3 n=87 v=0
158074 On ch=3 n=75 v=0
158112 On ch=3 n=74 v=47
158112 On ch=3 n=86 v=47
158189 On ch=3 n=86 v=0
158189 On ch=3 n=74 v=0
158208 Par ch=3 c=11 v=64
158208 On ch=3 n=73 v=47
158208 On ch=3 n=85 v=47
158220 Par ch=3 c=11 v=65
158232 Par ch=3 c=11 v=66
158244 Par ch=3 c=11 v=67
158256 Par ch=3 c=11 v=68
158268 Par ch=3 c=11 v=69
158276 Par ch=3 c=11 v=70
158288 Par ch=3 c=11 v=71
158300 Par ch=3 c=11 v=72
158312 Par ch=3 c=11 v=73
158324 Par ch=3 c=11 v=74
158336 Par ch=3 c=11 v=75
158344 Par ch=3 c=11 v=76
158356 Par ch=3 c=11 v=77
158362 On ch=3 n=85 v=0
158362 On ch=3 n=73 v=0
158368 Par ch=3 c=11 v=78
158380 Par ch=3 c=11 v=79
158392 Par ch=3 c=11 v=80
158400 Par ch=3 c=11 v=80
158400 On ch=3 n=85 v=47
158412 Par ch=3 c=11 v=79
158424 Par ch=3 c=11 v=78
158432 Par ch=3 c=11 v=77
158444 Par ch=3 c=11 v=76
158456 Par ch=3 c=11 v=75
158464 Par ch=3 c=11 v=74
158476 Par ch=3 c=11 v=73
158477 On ch=3 n=85 v=0
158488 Par ch=3 c=11 v=72
158496 Par ch=3 c=11 v=71
158496 On ch=3 n=84 v=47
158508 Par ch=3 c=11 v=70
158520 Par ch=3 c=11 v=69
158528 Par ch=3 c=11 v=68
158540 Par ch=3 c=11 v=67
158552 Par ch=3 c=11 v=66
158560 Par ch=3 c=11 v=65
158572 Par ch=3 c=11 v=64
158573 On ch=3 n=84 v=0
158592 Par ch=3 c=11 v=64
158592 On ch=3 n=82 v=47
158600 Par ch=3 c=11 v=65
158604 Par ch=3 c=11 v=66
158612 Par ch=3 c=11 v=67
158616 Par ch=3 c=11 v=68
158624 Par ch=3 c=11 v=69
158628 Par ch=3 c=11 v=70
158636 Par ch=3 c=11 v=71
158640 Par ch=3 c=11 v=72
158648 Par ch=3 c=11 v=73
158652 Par ch=3 c=11 v=74
158660 Par ch=3 c=11 v=75
158664 Par ch=3 c=11 v=76
158672 Par ch=3 c=11 v=77
158676 Par ch=3 c=11 v=78
158684 Par ch=3 c=11 v=79
158688 Par ch=3 c=11 v=80
158696 Par ch=3 c=11 v=81
158700 Par ch=3 c=11 v=82
158708 Par ch=3 c=11 v=83
158712 Par ch=3 c=11 v=84
158720 Par ch=3 c=11 v=85
158724 Par ch=3 c=11 v=86
158732 Par ch=3 c=11 v=87
158736 Par ch=3 c=11 v=88
158744 Par ch=3 c=11 v=89
158746 On ch=3 n=82 v=0
158748 Par ch=3 c=11 v=90
158756 Par ch=3 c=11 v=91
158760 Par ch=3 c=11 v=92
158768 Par ch=3 c=11 v=93
158772 Par ch=3 c=11 v=94
158780 Par ch=3 c=11 v=95
158784 Par ch=3 c=11 v=96
158792 Par ch=3 c=11 v=97
158796 Par ch=3 c=11 v=98
158804 Par ch=3 c=11 v=99
158808 Par ch=3 c=11 v=100
158816 Par ch=3 c=11 v=101
158820 Par ch=3 c=11 v=102
158828 Par ch=3 c=11 v=103
158832 Par ch=3 c=11 v=104
158840 Par ch=3 c=11 v=105
158844 Par ch=3 c=11 v=106
158852 Par ch=3 c=11 v=107
158856 Par ch=3 c=11 v=108
158864 Par ch=3 c=11 v=109
158868 Par ch=3 c=11 v=110
158876 Par ch=3 c=11 v=111
158880 Par ch=3 c=11 v=112
158880 On ch=3 n=80 v=47
158918 On ch=3 n=80 v=0
158928 On ch=3 n=79 v=47
158966 On ch=3 n=79 v=0
158976 Par ch=3 c=11 v=64
158976 On ch=3 n=78 v=95
159206 On ch=3 n=78 v=0
159264 On ch=3 n=77 v=95
159341 On ch=3 n=77 v=0
159360 Par ch=3 c=11 v=64
159360 On ch=3 n=75 v=95
159384 Par ch=3 c=11 v=65
159408 Par ch=3 c=11 v=66
159428 Par ch=3 c=11 v=67
159452 Par ch=3 c=11 v=68
159476 Par ch=3 c=11 v=69
159496 Par ch=3 c=11 v=70
159520 Par ch=3 c=11 v=71
159544 Par ch=3 c=11 v=72
159564 Par ch=3 c=11 v=73
159588 Par ch=3 c=11 v=74
159590 On ch=3 n=75 v=0
159612 Par ch=3 c=11 v=75
159632 Par ch=3 c=11 v=76
159648 On ch=3 n=74 v=95
159656 Par ch=3 c=11 v=77
159680 Par ch=3 c=11 v=78
159686 On ch=3 n=74 v=0
159696 On ch=3 n=72 v=95
159700 Par ch=3 c=11 v=79
159724 Par ch=3 c=11 v=80
159734 On ch=3 n=72 v=0
159744 Par ch=3 c=11 v=64
159744 On ch=3 n=71 v=111
160128 Par ch=3 c=11 v=64
160152 Par ch=3 c=11 v=65
160176 Par ch=3 c=11 v=66
160196 Par ch=3 c=11 v=67
160220 Par ch=3 c=11 v=68
160244 Par ch=3 c=11 v=69
160264 Par ch=3 c=11 v=70
160288 Par ch=3 c=11 v=71
160312 Par ch=3 c=11 v=72
160332 Par ch=3 c=11 v=73
160356 Par ch=3 c=11 v=74
160380 Par ch=3 c=11 v=75
160400 Par ch=3 c=11 v=76
160424 Par ch=3 c=11 v=77
160435 On ch=3 n=71 v=0
160448 Par ch=3 c=11 v=78
160468 Par ch=3 c=11 v=79
160492 Par ch=3 c=11 v=80
160512 Par ch=3 c=11 v=64
160512 On ch=3 n=79 v=111
160536 Par ch=3 c=11 v=63
160560 Par ch=3 c=11 v=62
160580 Par ch=3 c=11 v=61
160604 Par ch=3 c=11 v=60
160628 Par ch=3 c=11 v=59
160648 Par ch=3 c=11 v=58
160672 Par ch=3 c=11 v=57
160696 Par ch=3 c=11 v=56
160716 Par ch=3 c=11 v=55
160740 Par ch=3 c=11 v=54
160764 Par ch=3 c=11 v=53
160784 Par ch=3 c=11 v=52
160800 On ch=3 n=79 v=0
160800 On ch=3 n=80 v=111
160808 Par ch=3 c=11 v=51
160832 Par ch=3 c=11 v=50
160852 Par ch=3 c=11 v=49
160876 Par ch=3 c=11 v=48
160877 On ch=3 n=80 v=0
160896 Par ch=3 c=11 v=47
160896 On ch=3 n=79 v=111
160920 Par ch=3 c=11 v=46
160944 Par ch=3 c=11 v=45
160964 Par ch=3 c=11 v=44
160988 Par ch=3 c=11 v=43
161012 Par ch=3 c=11 v=42
161032 Par ch=3 c=11 v=41
161056 Par ch=3 c=11 v=40
161080 Par ch=3 c=11 v=39
161100 Par ch=3 c=11 v=38
161124 Par ch=3 c=11 v=37
161148 Par ch=3 c=11 v=36
161168 Par ch=3 c=11 v=35
161184 On ch=3 n=79 v=0
161184 On ch=3 n=80 v=111
161192 Par ch=3 c=11 v=34
161216 Par ch=3 c=11 v=33
161236 Par ch=3 c=11 v=32
161261 On ch=3 n=80 v=0
161280 Par ch=3 c=11 v=64
164448 On ch=3 n=67 v=47
164640 On ch=3 n=67 v=0
164640 On ch=3 n=70 v=47
164712 On ch=3 n=70 v=0
164712 On ch=3 n=73 v=47
164736 On ch=3 n=73 v=0
164736 Par ch=3 c=11 v=64
164736 On ch=3 n=72 v=47
164748 Par ch=3 c=11 v=65
164760 Par ch=3 c=11 v=66
164772 Par ch=3 c=11 v=67
164784 Par ch=3 c=11 v=68
164796 Par ch=3 c=11 v=69
164804 Par ch=3 c=11 v=70
164816 Par ch=3 c=11 v=71
164828 Par ch=3 c=11 v=72
164840 Par ch=3 c=11 v=73
164852 Par ch=3 c=11 v=74
164864 Par ch=3 c=11 v=75
164872 Par ch=3 c=11 v=76
164884 Par ch=3 c=11 v=77
164896 Par ch=3 c=11 v=78
164908 Par ch=3 c=11 v=79
164920 Par ch=3 c=11 v=80
164928 Par ch=3 c=11 v=80
164940 Par ch=3 c=11 v=79
164952 Par ch=3 c=11 v=78
164960 Par ch=3 c=11 v=77
164966 On ch=3 n=72 v=0
164972 Par ch=3 c=11 v=76
164984 Par ch=3 c=11 v=75
164992 Par ch=3 c=11 v=74
165004 Par ch=3 c=11 v=73
165016 Par ch=3 c=11 v=72
165024 Par ch=3 c=11 v=71
165024 On ch=3 n=70 v=47
165036 Par ch=3 c=11 v=70
165048 Par ch=3 c=11 v=69
165056 Par ch=3 c=11 v=68
165062 On ch=3 n=70 v=0
165068 Par ch=3 c=11 v=67
165072 On ch=3 n=68 v=47
165080 Par ch=3 c=11 v=66
165088 Par ch=3 c=11 v=65
165100 Par ch=3 c=11 v=64
165110 On ch=3 n=68 v=0
165112 Par ch=3 c=11 v=63
165120 Par ch=3 c=11 v=64
165120 On ch=3 n=67 v=47
165124 Par ch=3 c=11 v=66
165128 Par ch=3 c=11 v=69
165132 Par ch=3 c=11 v=71
165136 Par ch=3 c=11 v=74
165140 Par ch=3 c=11 v=77
165144 Par ch=3 c=11 v=79
165148 Par ch=3 c=11 v=82
165152 Par ch=3 c=11 v=85
165156 Par ch=3 c=11 v=87
165160 Par ch=3 c=11 v=90
165164 Par ch=3 c=11 v=92
165168 Par ch=3 c=11 v=95
165172 Par ch=3 c=11 v=98
165176 Par ch=3 c=11 v=100
165180 Par ch=3 c=11 v=103
165184 Par ch=3 c=11 v=106
165188 Par ch=3 c=11 v=108
165192 Par ch=3 c=11 v=111
165196 Par ch=3 c=11 v=113
165200 Par ch=3 c=11 v=116
165204 Par ch=3 c=11 v=119
165208 Par ch=3 c=11 v=121
165212 Par ch=3 c=11 v=124
165216 On ch=3 n=67 v=0
165216 Par ch=3 c=11 v=127
165216 Par ch=3 c=11 v=80
165216 Par ch=3 c=11 v=124
165216 On ch=3 n=61 v=47
165220 Par ch=3 c=11 v=123
165224 Par ch=3 c=11 v=122
165228 Par ch=3 c=11 v=121
165232 Par ch=3 c=11 v=119
165236 Par ch=3 c=11 v=118
165240 Par ch=3 c=11 v=117
165244 Par ch=3 c=11 v=116
165248 Par ch=3 c=11 v=114
165252 Par ch=3 c=11 v=113
165256 Par ch=3 c=11 v=112
165260 Par ch=3 c=11 v=111
165264 Par ch=3 c=11 v=109
165268 Par ch=3 c=11 v=108
165272 Par ch=3 c=11 v=107
165276 Par ch=3 c=11 v=106
165280 Par ch=3 c=11 v=104
165284 Par ch=3 c=11 v=103
165288 Par ch=3 c=11 v=102
165292 Par ch=3 c=11 v=101
165296 Par ch=3 c=11 v=99
165300 Par ch=3 c=11 v=98
165304 Par ch=3 c=11 v=97
165308 Par ch=3 c=11 v=96
165312 Par ch=3 c=11 v=94
165316 Par ch=3 c=11 v=93
165320 Par ch=3 c=11 v=92
165324 Par ch=3 c=11 v=91
165328 Par ch=3 c=11 v=89
165332 Par ch=3 c=11 v=88
165336 Par ch=3 c=11 v=87
165340 Par ch=3 c=11 v=86
165344 Par ch=3 c=11 v=84
165348 Par ch=3 c=11 v=83
165352 Par ch=3 c=11 v=82
165356 Par ch=3 c=11 v=81
165360 Par ch=3 c=11 v=79
165364 Par ch=3 c=11 v=78
165368 Par ch=3 c=11 v=77
165372 Par ch=3 c=11 v=76
165376 Par ch=3 c=11 v=74
165380 Par ch=3 c=11 v=73
165384 Par ch=3 c=11 v=72
165388 Par ch=3 c=11 v=71
165392 Par ch=3 c=11 v=69
165396 Par ch=3 c=11 v=68
165400 Par ch=3 c=11 v=67
165404 Par ch=3 c=11 v=66
165408 On ch=3 n=61 v=0
165408 Par ch=3 c=11 v=64
165504 Par ch=3 c=11 v=64
165504 On ch=3 n=67 v=47
165508 Par ch=3 c=11 v=66
165512 Par ch=3 c=11 v=69
165516 Par ch=3 c=11 v=71
165520 Par ch=3 c=11 v=74
165524 Par ch=3 c=11 v=77
165528 Par ch=3 c=11 v=79
165532 Par ch=3 c=11 v=82
165536 Par ch=3 c=11 v=85
165540 Par ch=3 c=11 v=87
165544 Par ch=3 c=11 v=90
165548 Par ch=3 c=11 v=92
165552 Par ch=3 c=11 v=95
165556 Par ch=3 c=11 v=98
165560 Par ch=3 c=11 v=100
165564 Par ch=3 c=11 v=103
165568 Par ch=3 c=11 v=106
165572 Par ch=3 c=11 v=108
165576 Par ch=3 c=11 v=111
165580 Par ch=3 c=11 v=113
165584 Par ch=3 c=11 v=116
165588 Par ch=3 c=11 v=119
165592 Par ch=3 c=11 v=121
165596 Par ch=3 c=11 v=124
165600 On ch=3 n=67 v=0
165600 Par ch=3 c=11 v=127
165600 On ch=3 n=61 v=47
165604 Par ch=3 c=11 v=123
165608 Par ch=3 c=11 v=122
165612 Par ch=3 c=11 v=121
165616 Par ch=3 c=11 v=119
165620 Par ch=3 c=11 v=118
165624 Par ch=3 c=11 v=117
165628 Par ch=3 c=11 v=116
165632 Par ch=3 c=11 v=114
165636 Par ch=3 c=11 v=113
165640 Par ch=3 c=11 v=112
165644 Par ch=3 c=11 v=111
165648 Par ch=3 c=11 v=109
165652 Par ch=3 c=11 v=108
165656 Par ch=3 c=11 v=107
165660 Par ch=3 c=11 v=106
165664 Par ch=3 c=11 v=104
165668 Par ch=3 c=11 v=103
165672 Par ch=3 c=11 v=102
165676 Par ch=3 c=11 v=101
165680 Par ch=3 c=11 v=99
165684 Par ch=3 c=11 v=98
165688 Par ch=3 c=11 v=97
165692 Par ch=3 c=11 v=96
165696 Par ch=3 c=11 v=94
165700 Par ch=3 c=11 v=93
165704 Par ch=3 c=11 v=92
165708 Par ch=3 c=11 v=91
165712 Par ch=3 c=11 v=89
165716 Par ch=3 c=11 v=88
165720 Par ch=3 c=11 v=87
165724 Par ch=3 c=11 v=86
165728 Par ch=3 c=11 v=84
165732 Par ch=3 c=11 v=83
165736 Par ch=3 c=11 v=82
165740 Par ch=3 c=11 v=81
165744 Par ch=3 c=11 v=79
165748 Par ch=3 c=11 v=78
165752 Par ch=3 c=11 v=77
165756 Par ch=3 c=11 v=76
165760 Par ch=3 c=11 v=74
165764 Par ch=3 c=11 v=73
165768 Par ch=3 c=11 v=72
165772 Par ch=3 c=11 v=71
165776 Par ch=3 c=11 v=69
165780 Par ch=3 c=11 v=68
165784 Par ch=3 c=11 v=67
165788 Par ch=3 c=11 v=66
165792 On ch=3 n=61 v=0
165792 Par ch=3 c=11 v=64
168576 Par ch=3 c=11 v=64
168576 On ch=3 n=76 v=47
168580 Par ch=3 c=11 v=66
168584 Par ch=3 c=11 v=69
168588 Par ch=3 c=11 v=71
168592 Par ch=3 c=11 v=74
168596 Par ch=3 c=11 v=77
168600 Par ch=3 c=11 v=79
168604 Par ch=3 c=11 v=82
168608 Par ch=3 c=11 v=85
168612 Par ch=3 c=11 v=87
168616 Par ch=3 c=11 v=90
168620 Par ch=3 c=11 v=92
168624 Par ch=3 c=11 v=95
168628 Par ch=3 c=11 v=98
168632 Par ch=3 c=11 v=100
168636 Par ch=3 c=11 v=103
168640 Par ch=3 c=11 v=106
168644 Par ch=3 c=11 v=108
168648 Par ch=3 c=11 v=111
168652 Par ch=3 c=11 v=113
168656 Par ch=3 c=11 v=116
168660 Par ch=3 c=11 v=119
168664 Par ch=3 c=11 v=121
168668 Par ch=3 c=11 v=124
168672 On ch=3 n=76 v=0
168672 Par ch=3 c=11 v=126
168672 On ch=3 n=75 v=47
168684 Par ch=3 c=11 v=125
168692 Par ch=3 c=11 v=124
168700 Par ch=3 c=11 v=123
168712 Par ch=3 c=11 v=122
168720 Par ch=3 c=11 v=121
168728 Par ch=3 c=11 v=120
168740 Par ch=3 c=11 v=119
168748 Par ch=3 c=11 v=118
168756 Par ch=3 c=11 v=117
168768 Par ch=3 c=11 v=116
168776 Par ch=3 c=11 v=115
168784 Par ch=3 c=11 v=114
168796 Par ch=3 c=11 v=113
168804 Par ch=3 c=11 v=112
168812 Par ch=3 c=11 v=111
168824 Par ch=3 c=11 v=110
168832 Par ch=3 c=11 v=109
168840 Par ch=3 c=11 v=108
168852 Par ch=3 c=11 v=107
168860 Par ch=3 c=11 v=106
168868 Par ch=3 c=11 v=105
168880 Par ch=3 c=11 v=104
168888 Par ch=3 c=11 v=103
168896 Par ch=3 c=11 v=102
168908 Par ch=3 c=11 v=101
168916 Par ch=3 c=11 v=100
168924 Par ch=3 c=11 v=99
168936 Par ch=3 c=11 v=98
168944 Par ch=3 c=11 v=97
168952 Par ch=3 c=11 v=96
168960 Par ch=3 c=11 v=95
168972 Par ch=3 c=11 v=94
168980 Par ch=3 c=11 v=93
168988 Par ch=3 c=11 v=92
169000 Par ch=3 c=11 v=91
169008 Par ch=3 c=11 v=90
169016 Par ch=3 c=11 v=89
169028 Par ch=3 c=11 v=88
169036 Par ch=3 c=11 v=87
169044 Par ch=3 c=11 v=86
169056 Par ch=3 c=11 v=85
169064 Par ch=3 c=11 v=84
169072 Par ch=3 c=11 v=83
169084 Par ch=3 c=11 v=82
169092 Par ch=3 c=11 v=81
169100 Par ch=3 c=11 v=80
169112 Par ch=3 c=11 v=79
169120 Par ch=3 c=11 v=78
169128 Par ch=3 c=11 v=77
169140 Par ch=3 c=11 v=76
169148 Par ch=3 c=11 v=75
169156 Par ch=3 c=11 v=74
169168 Par ch=3 c=11 v=73
169176 Par ch=3 c=11 v=72
169184 Par ch=3 c=11 v=71
169190 On ch=3 n=75 v=0
169196 Par ch=3 c=11 v=70
169204 Par ch=3 c=11 v=69
169212 Par ch=3 c=11 v=68
169224 Par ch=3 c=11 v=67
169232 Par ch=3 c=11 v=66
169240 Par ch=3 c=11 v=65
169248 Par ch=3 c=11 v=64
169344 Par ch=3 c=11 v=64
169344 On ch=3 n=84 v=111
169357 On ch=3 n=84 v=0
169376 On ch=3 n=83 v=111
169389 On ch=3 n=83 v=0
169408 On ch=3 n=82 v=111
169421 On ch=3 n=82 v=0
169440 On ch=3 n=81 v=111
169453 On ch=3 n=81 v=0
169472 On ch=3 n=80 v=111
169485 On ch=3 n=80 v=0
169504 On ch=3 n=79 v=111
169517 On ch=3 n=79 v=0
169536 On ch=3 n=78 v=111
169549 On ch=3 n=78 v=0
169568 On ch=3 n=77 v=111
169581 On ch=3 n=77 v=0
169600 On ch=3 n=76 v=111
169613 On ch=3 n=76 v=0
169632 On ch=3 n=75 v=111
169645 On ch=3 n=75 v=0
169664 On ch=3 n=74 v=111
169677 On ch=3 n=74 v=0
169696 On ch=3 n=73 v=111
169709 On ch=3 n=73 v=0
169728 On ch=3 n=72 v=111
169741 On ch=3 n=72 v=0
169760 On ch=3 n=71 v=111
169773 On ch=3 n=71 v=0
169792 On ch=3 n=70 v=111
169805 On ch=3 n=70 v=0
169824 On ch=3 n=69 v=111
169837 On ch=3 n=69 v=0
169856 On ch=3 n=68 v=111
169869 On ch=3 n=68 v=0
169888 On ch=3 n=67 v=111
169901 On ch=3 n=67 v=0
169920 On ch=3 n=66 v=111
169933 On ch=3 n=66 v=0
169952 On ch=3 n=65 v=111
169965 On ch=3 n=65 v=0
169984 On ch=3 n=64 v=111
169997 On ch=3 n=64 v=0
170016 On ch=3 n=63 v=111
170029 On ch=3 n=63 v=0
170048 On ch=3 n=62 v=111
170061 On ch=3 n=62 v=0
170080 On ch=3 n=61 v=111
170093 On ch=3 n=61 v=0
170112 On ch=3 n=60 v=111
170150 On ch=3 n=60 v=0
170496 On ch=3 n=60 v=31
170534 On ch=3 n=60 v=0
170534 Meta TrkEnd
TrkEnd
MTrk
0 Meta 0x21 00
0 Meta TrkName "ENGLISH HORN"
192 Par ch=4 c=1 v=8
196 Par ch=4 c=7 v=127
200 Par ch=4 c=10 v=91
204 Par ch=4 c=11 v=64
208 Par ch=4 c=91 v=112
212 Par ch=4 c=93 v=32
216 Par ch=4 c=0 v=0
216 Par ch=4 c=32 v=0
216 PrCh ch=4 p=69
6912 On ch=4 n=60 v=47
7219 On ch=4 n=60 v=0
7296 On ch=4 n=62 v=47
7450 On ch=4 n=62 v=0
7488 On ch=4 n=65 v=47
7603 On ch=4 n=65 v=0
7632 On ch=4 n=68 v=47
7663 On ch=4 n=68 v=0
7680 On ch=4 n=72 v=47
7718 On ch=4 n=72 v=0
8736 On ch=4 n=60 v=47
8767 On ch=4 n=60 v=0
8832 Par ch=4 c=11 v=96
8832 On ch=4 n=67 v=47
8880 Par ch=4 c=11 v=64
8986 On ch=4 n=67 v=0
9120 On ch=4 n=60 v=47
9151 On ch=4 n=60 v=0
9192 On ch=4 n=60 v=47
9208 On ch=4 n=60 v=0
9216 On ch=4 n=67 v=47
9293 On ch=4 n=67 v=0
9312 On ch=4 n=60 v=47
9343 On ch=4 n=60 v=0
9384 On ch=4 n=60 v=47
9400 On ch=4 n=60 v=0
9408 On ch=4 n=67 v=47
9485 On ch=4 n=67 v=0
9504 On ch=4 n=60 v=47
9535 On ch=4 n=60 v=0
9576 On ch=4 n=60 v=47
9592 On ch=4 n=60 v=0
9600 On ch=4 n=67 v=47
9677 On ch=4 n=67 v=0
10368 On ch=4 n=67 v=47
11136 On ch=4 n=67 v=47
11290 On ch=4 n=67 v=0
11290 On ch=4 n=67 v=0
11328 On ch=4 n=62 v=31
11443 On ch=4 n=62 v=0
11472 On ch=4 n=62 v=31
11510 On ch=4 n=62 v=0
11520 Par ch=4 c=11 v=64
11520 On ch=4 n=67 v=31
11528 Par ch=4 c=11 v=65
11536 Par ch=4 c=11 v=66
11544 Par ch=4 c=11 v=67
11552 Par ch=4 c=11 v=68
11560 Par ch=4 c=11 v=69
11568 Par ch=4 c=11 v=70
11576 Par ch=4 c=11 v=71
11584 Par ch=4 c=11 v=72
11592 Par ch=4 c=11 v=73
11600 Par ch=4 c=11 v=74
11608 Par ch=4 c=11 v=75
11616 Par ch=4 c=11 v=76
11624 Par ch=4 c=11 v=77
11632 Par ch=4 c=11 v=78
11640 Par ch=4 c=11 v=79
11648 Par ch=4 c=11 v=80
11656 Par ch=4 c=11 v=81
11664 Par ch=4 c=11 v=82
11672 Par ch=4 c=11 v=83
11680 Par ch=4 c=11 v=84
11688 Par ch=4 c=11 v=85
11696 Par ch=4 c=11 v=86
11704 Par ch=4 c=11 v=87
11712 Par ch=4 c=11 v=88
11716 Par ch=4 c=11 v=89
11724 Par ch=4 c=11 v=90
11732 Par ch=4 c=11 v=91
11740 Par ch=4 c=11 v=92
11748 Par ch=4 c=11 v=93
11750 On ch=4 n=67 v=0
11756 Par ch=4 c=11 v=94
11764 Par ch=4 c=11 v=95
11772 Par ch=4 c=11 v=96
11780 Par ch=4 c=11 v=97
11788 Par ch=4 c=11 v=98
11796 Par ch=4 c=11 v=99
11804 Par ch=4 c=11 v=100
11808 On ch=4 n=65 v=31
11812 Par ch=4 c=11 v=101
11820 Par ch=4 c=11 v=102
11828 Par ch=4 c=11 v=103
11836 Par ch=4 c=11 v=104
11844 Par ch=4 c=11 v=105
11846 On ch=4 n=65 v=0
11852 Par ch=4 c=11 v=106
11856 On ch=4 n=63 v=31
11860 Par ch=4 c=11 v=107
11868 Par ch=4 c=11 v=108
11876 Par ch=4 c=11 v=109
11884 Par ch=4 c=11 v=110
11892 Par ch=4 c=11 v=111
11894 On ch=4 n=63 v=0
11900 Par ch=4 c=11 v=112
11904 Par ch=4 c=11 v=64
11904 On ch=4 n=62 v=79
11981 On ch=4 n=62 v=0
12000 On ch=4 n=55 v=79
12038 On ch=4 n=55 v=0
12072 On ch=4 n=55 v=79
12091 On ch=4 n=55 v=0
12096 On ch=4 n=62 v=79
12173 On ch=4 n=62 v=0
12192 On ch=4 n=65 v=79
12250 On ch=4 n=65 v=0
12264 On ch=4 n=63 v=79
12283 On ch=4 n=63 v=0
12288 On ch=4 n=62 v=79
12319 On ch=4 n=62 v=0
12480 On ch=4 n=68 v=95
12634 On ch=4 n=68 v=0
12672 On ch=4 n=67 v=95
12902 On ch=4 n=67 v=0
12960 On ch=4 n=66 v=95
13037 On ch=4 n=66 v=0
13056 On ch=4 n=67 v=95
13133 On ch=4 n=67 v=0
14976 Par ch=4 c=0 v=0
14976 Par ch=4 c=32 v=0
14976 PrCh ch=4 p=68
14976 On ch=4 n=67 v=111
15130 On ch=4 n=67 v=0
15168 On ch=4 n=68 v=111
15245 On ch=4 n=68 v=0
15264 On ch=4 n=69 v=111
15341 On ch=4 n=69 v=0
15360 On ch=4 n=70 v=111
15514 On ch=4 n=70 v=0
15552 On ch=4 n=71 v=111
15560 On ch=4 n=71 v=0
15560 On ch=4 n=72 v=111
15568 On ch=4 n=72 v=0
15568 On ch=4 n=71 v=111
15576 On ch=4 n=71 v=0
15576 On ch=4 n=72 v=111
15584 On ch=4 n=72 v=0
15584 On ch=4 n=71 v=111
15592 On ch=4 n=71 v=0
15592 On ch=4 n=72 v=111
15600 On ch=4 n=72 v=0
15600 On ch=4 n=71 v=111
15608 On ch=4 n=71 v=0
15608 On ch=4 n=72 v=111
15616 On ch=4 n=72 v=0
15616 On ch=4 n=71 v=111
15624 On ch=4 n=71 v=0
15624 On ch=4 n=72 v=111
15632 On ch=4 n=72 v=0
15632 On ch=4 n=71 v=111
15640 On ch=4 n=71 v=0
15640 On ch=4 n=72 v=111
15648 On ch=4 n=72 v=0
15648 On ch=4 n=71 v=111
15656 On ch=4 n=71 v=0
15656 On ch=4 n=72 v=111
15664 On ch=4 n=72 v=0
15664 On ch=4 n=71 v=111
15672 On ch=4 n=71 v=0
15672 On ch=4 n=72 v=111
15680 On ch=4 n=72 v=0
15680 On ch=4 n=71 v=111
15688 On ch=4 n=71 v=0
15688 On ch=4 n=72 v=111
15696 On ch=4 n=72 v=0
15696 On ch=4 n=71 v=111
15704 On ch=4 n=71 v=0
15704 On ch=4 n=72 v=111
15712 On ch=4 n=72 v=0
15712 On ch=4 n=71 v=111
15720 On ch=4 n=71 v=0
15720 On ch=4 n=69 v=111
15728 On ch=4 n=69 v=0
15728 On ch=4 n=71 v=111
15744 On ch=4 n=71 v=0
15744 On ch=4 n=72 v=111
15782 On ch=4 n=72 v=0
16512 Par ch=4 c=11 v=64
16512 On ch=4 n=79 v=111
16524 Par ch=4 c=11 v=63
16532 Par ch=4 c=11 v=62
16540 Par ch=4 c=11 v=61
16548 Par ch=4 c=11 v=60
16560 Par ch=4 c=11 v=59
16568 Par ch=4 c=11 v=58
16576 Par ch=4 c=11 v=57
16584 Par ch=4 c=11 v=56
16596 Par ch=4 c=11 v=55
16604 Par ch=4 c=11 v=54
16612 Par ch=4 c=11 v=53
16620 Par ch=4 c=11 v=52
16632 Par ch=4 c=11 v=51
16640 Par ch=4 c=11 v=50
16648 Par ch=4 c=11 v=49
16656 Par ch=4 c=11 v=48
16668 Par ch=4 c=11 v=47
16676 Par ch=4 c=11 v=46
16684 Par ch=4 c=11 v=45
16692 Par ch=4 c=11 v=44
16704 Par ch=4 c=11 v=43
16712 Par ch=4 c=11 v=42
16720 Par ch=4 c=11 v=41
16728 Par ch=4 c=11 v=40
16740 Par ch=4 c=11 v=39
16748 Par ch=4 c=11 v=38
16756 Par ch=4 c=11 v=37
16764 Par ch=4 c=11 v=36
16776 Par ch=4 c=11 v=35
16784 Par ch=4 c=11 v=34
16792 Par ch=4 c=11 v=33
16800 On ch=4 n=79 v=0
16800 Par ch=4 c=11 v=32
16800 On ch=4 n=75 v=111
16804 Par ch=4 c=11 v=33
16808 Par ch=4 c=11 v=34
16812 Par ch=4 c=11 v=36
16816 Par ch=4 c=11 v=37
16820 Par ch=4 c=11 v=38
16824 Par ch=4 c=11 v=40
16828 Par ch=4 c=11 v=41
16832 Par ch=4 c=11 v=43
16836 Par ch=4 c=11 v=44
16840 Par ch=4 c=11 v=45
16844 Par ch=4 c=11 v=47
16848 Par ch=4 c=11 v=48
16852 Par ch=4 c=11 v=49
16856 Par ch=4 c=11 v=51
16860 Par ch=4 c=11 v=52
16864 Par ch=4 c=11 v=54
16868 Par ch=4 c=11 v=55
16872 Par ch=4 c=11 v=56
16876 Par ch=4 c=11 v=58
16880 Par ch=4 c=11 v=59
16884 Par ch=4 c=11 v=60
16888 Par ch=4 c=11 v=62
16892 Par ch=4 c=11 v=63
16896 On ch=4 n=75 v=0
16896 Par ch=4 c=11 v=64
16896 On ch=4 n=74 v=111
16900 Par ch=4 c=11 v=63
16904 Par ch=4 c=11 v=62
16908 Par ch=4 c=11 v=60
16912 Par ch=4 c=11 v=59
16916 Par ch=4 c=11 v=58
16920 Par ch=4 c=11 v=56
16924 Par ch=4 c=11 v=55
16928 Par ch=4 c=11 v=54
16932 Par ch=4 c=11 v=52
16936 Par ch=4 c=11 v=51
16940 Par ch=4 c=11 v=50
16944 Par ch=4 c=11 v=48
16948 Par ch=4 c=11 v=47
16952 Par ch=4 c=11 v=46
16956 Par ch=4 c=11 v=44
16960 Par ch=4 c=11 v=43
16964 Par ch=4 c=11 v=42
16968 Par ch=4 c=11 v=40
16972 Par ch=4 c=11 v=39
16976 Par ch=4 c=11 v=38
16980 Par ch=4 c=11 v=36
16984 Par ch=4 c=11 v=35
16988 Par ch=4 c=11 v=34
16992 On ch=4 n=74 v=0
16992 Par ch=4 c=11 v=32
16992 On ch=4 n=72 v=111
17069 On ch=4 n=72 v=0
17280 Par ch=4 c=11 v=64
17568 On ch=4 n=63 v=79
17606 On ch=4 n=63 v=0
17616 On ch=4 n=67 v=79
17654 On ch=4 n=67 v=0
17664 Par ch=4 c=11 v=64
17664 On ch=4 n=70 v=47
17672 Par ch=4 c=11 v=63
17676 Par ch=4 c=11 v=62
17684 Par ch=4 c=11 v=61
17688 Par ch=4 c=11 v=60
17696 Par ch=4 c=11 v=59
17700 Par ch=4 c=11 v=58
17708 Par ch=4 c=11 v=57
17712 Par ch=4 c=11 v=56
17720 Par ch=4 c=11 v=55
17724 Par ch=4 c=11 v=54
17732 Par ch=4 c=11 v=53
17736 Par ch=4 c=11 v=52
17744 Par ch=4 c=11 v=51
17748 Par ch=4 c=11 v=50
17756 Par ch=4 c=11 v=49
17760 On ch=4 n=70 v=0
17760 Par ch=4 c=11 v=48
17760 On ch=4 n=68 v=47
17837 On ch=4 n=68 v=0
18048 Par ch=4 c=11 v=64
25728 On ch=4 n=60 v=79
25920 On ch=4 n=60 v=0
25920 On ch=4 n=62 v=79
25951 On ch=4 n=62 v=0
26016 On ch=4 n=65 v=79
26047 On ch=4 n=65 v=0
26088 On ch=4 n=68 v=79
26104 On ch=4 n=68 v=0
26112 On ch=4 n=72 v=79
26237 On ch=4 n=72 v=0
26368 Par ch=4 c=11 v=64
26368 On ch=4 n=60 v=47
26372 Par ch=4 c=11 v=65
26376 Par ch=4 c=11 v=66
26380 Par ch=4 c=11 v=67
26384 Par ch=4 c=11 v=68
26388 Par ch=4 c=11 v=69
26389 On ch=4 n=60 v=0
26392 Par ch=4 c=11 v=70
26396 Par ch=4 c=11 v=71
26400 Par ch=4 c=11 v=72
26400 On ch=4 n=62 v=47
26404 Par ch=4 c=11 v=73
26408 Par ch=4 c=11 v=74
26412 Par ch=4 c=11 v=75
26416 Par ch=4 c=11 v=76
26420 Par ch=4 c=11 v=77
26421 On ch=4 n=62 v=0
26424 Par ch=4 c=11 v=78
26428 Par ch=4 c=11 v=79
26432 Par ch=4 c=11 v=80
26432 On ch=4 n=65 v=47
26436 Par ch=4 c=11 v=81
26440 Par ch=4 c=11 v=82
26444 Par ch=4 c=11 v=83
26448 Par ch=4 c=11 v=84
26452 Par ch=4 c=11 v=85
26453 On ch=4 n=65 v=0
26456 Par ch=4 c=11 v=86
26460 Par ch=4 c=11 v=87
26464 Par ch=4 c=11 v=88
26464 On ch=4 n=68 v=47
26468 Par ch=4 c=11 v=89
26472 Par ch=4 c=11 v=90
26476 Par ch=4 c=11 v=91
26480 Par ch=4 c=11 v=92
26484 Par ch=4 c=11 v=93
26485 On ch=4 n=68 v=0
26488 Par ch=4 c=11 v=94
26492 Par ch=4 c=11 v=95
26496 On ch=4 n=72 v=47
26517 On ch=4 n=72 v=0
26560 Par ch=4 c=11 v=64
26560 On ch=4 n=60 v=47
26564 Par ch=4 c=11 v=65
26568 Par ch=4 c=11 v=66
26572 Par ch=4 c=11 v=67
26576 Par ch=4 c=11 v=68
26580 Par ch=4 c=11 v=69
26581 On ch=4 n=60 v=0
26584 Par ch=4 c=11 v=70
26588 Par ch=4 c=11 v=71
26592 Par ch=4 c=11 v=72
26592 On ch=4 n=62 v=47
26596 Par ch=4 c=11 v=73
26600 Par ch=4 c=11 v=74
26604 Par ch=4 c=11 v=75
26608 Par ch=4 c=11 v=76
26612 Par ch=4 c=11 v=77
26613 On ch=4 n=62 v=0
26616 Par ch=4 c=11 v=78
26620 Par ch=4 c=11 v=79
26624 Par ch=4 c=11 v=80
26624 On ch=4 n=65 v=47
26628 Par ch=4 c=11 v=81
26632 Par ch=4 c=11 v=82
26636 Par ch=4 c=11 v=83
26640 Par ch=4 c=11 v=84
26644 Par ch=4 c=11 v=85
26645 On ch=4 n=65 v=0
26648 Par ch=4 c=11 v=86
26652 Par ch=4 c=11 v=87
26656 Par ch=4 c=11 v=88
26656 On ch=4 n=68 v=47
26660 Par ch=4 c=11 v=89
26664 Par ch=4 c=11 v=90
26668 Par ch=4 c=11 v=91
26672 Par ch=4 c=11 v=92
26676 Par ch=4 c=11 v=93
26677 On ch=4 n=68 v=0
26680 Par ch=4 c=11 v=94
26684 Par ch=4 c=11 v=95
26688 On ch=4 n=72 v=47
26709 On ch=4 n=72 v=0
26752 Par ch=4 c=11 v=64
26752 On ch=4 n=60 v=47
26756 Par ch=4 c=11 v=65
26760 Par ch=4 c=11 v=66
26764 Par ch=4 c=11 v=67
26768 Par ch=4 c=11 v=68
26772 Par ch=4 c=11 v=69
26773 On ch=4 n=60 v=0
26776 Par ch=4 c=11 v=70
26780 Par ch=4 c=11 v=71
26784 Par ch=4 c=11 v=72
26784 On ch=4 n=62 v=47
26788 Par ch=4 c=11 v=73
26792 Par ch=4 c=11 v=74
26796 Par ch=4 c=11 v=75
26800 Par ch=4 c=11 v=76
26804 Par ch=4 c=11 v=77
26805 On ch=4 n=62 v=0
26808 Par ch=4 c=11 v=78
26812 Par ch=4 c=11 v=79
26816 Par ch=4 c=11 v=80
26816 On ch=4 n=65 v=47
26820 Par ch=4 c=11 v=81
26824 Par ch=4 c=11 v=82
26828 Par ch=4 c=11 v=83
26832 Par ch=4 c=11 v=84
26836 Par ch=4 c=11 v=85
26837 On ch=4 n=65 v=0
26840 Par ch=4 c=11 v=86
26844 Par ch=4 c=11 v=87
26848 Par ch=4 c=11 v=88
26848 On ch=4 n=68 v=47
26852 Par ch=4 c=11 v=89
26856 Par ch=4 c=11 v=90
26860 Par ch=4 c=11 v=91
26864 Par ch=4 c=11 v=92
26868 Par ch=4 c=11 v=93
26869 On ch=4 n=68 v=0
26872 Par ch=4 c=11 v=94
26876 Par ch=4 c=11 v=95
26880 On ch=4 n=72 v=47
26911 On ch=4 n=72 v=0
26976 Par ch=4 c=11 v=64
27136 Par ch=4 c=11 v=64
27136 On ch=4 n=60 v=47
27140 Par ch=4 c=11 v=65
27144 Par ch=4 c=11 v=67
27148 Par ch=4 c=11 v=68
27152 Par ch=4 c=11 v=70
27156 Par ch=4 c=11 v=71
27157 On ch=4 n=60 v=0
27160 Par ch=4 c=11 v=73
27164 Par ch=4 c=11 v=74
27168 Par ch=4 c=11 v=76
27168 On ch=4 n=62 v=47
27172 Par ch=4 c=11 v=77
27176 Par ch=4 c=11 v=79
27180 Par ch=4 c=11 v=80
27184 Par ch=4 c=11 v=82
27188 Par ch=4 c=11 v=83
27189 On ch=4 n=62 v=0
27192 Par ch=4 c=11 v=85
27196 Par ch=4 c=11 v=86
27200 Par ch=4 c=11 v=88
27200 On ch=4 n=65 v=47
27204 Par ch=4 c=11 v=90
27208 Par ch=4 c=11 v=91
27212 Par ch=4 c=11 v=93
27216 Par ch=4 c=11 v=94
27220 Par ch=4 c=11 v=96
27221 On ch=4 n=65 v=0
27224 Par ch=4 c=11 v=97
27228 Par ch=4 c=11 v=99
27232 Par ch=4 c=11 v=100
27232 On ch=4 n=68 v=47
27236 Par ch=4 c=11 v=102
27240 Par ch=4 c=11 v=103
27244 Par ch=4 c=11 v=105
27248 Par ch=4 c=11 v=106
27252 Par ch=4 c=11 v=108
27253 On ch=4 n=68 v=0
27256 Par ch=4 c=11 v=109
27260 Par ch=4 c=11 v=111
27264 On ch=4 n=72 v=47
27295 On ch=4 n=72 v=0
27520 Par ch=4 c=11 v=64
27520 On ch=4 n=60 v=47
27524 Par ch=4 c=11 v=65
27528 Par ch=4 c=11 v=67
27532 Par ch=4 c=11 v=68
27536 Par ch=4 c=11 v=70
27540 Par ch=4 c=11 v=71
27541 On ch=4 n=60 v=0
27544 Par ch=4 c=11 v=73
27548 Par ch=4 c=11 v=74
27552 Par ch=4 c=11 v=76
27552 On ch=4 n=63 v=47
27556 Par ch=4 c=11 v=77
27560 Par ch=4 c=11 v=79
27564 Par ch=4 c=11 v=80
27568 Par ch=4 c=11 v=82
27572 Par ch=4 c=11 v=83
27573 On ch=4 n=63 v=0
27576 Par ch=4 c=11 v=85
27580 Par ch=4 c=11 v=86
27584 Par ch=4 c=11 v=88
27584 On ch=4 n=67 v=47
27588 Par ch=4 c=11 v=90
27592 Par ch=4 c=11 v=91
27596 Par ch=4 c=11 v=93
27600 Par ch=4 c=11 v=94
27604 Par ch=4 c=11 v=96
27605 On ch=4 n=67 v=0
27608 Par ch=4 c=11 v=97
27612 Par ch=4 c=11 v=99
27616 Par ch=4 c=11 v=100
27616 On ch=4 n=72 v=47
27620 Par ch=4 c=11 v=102
27624 Par ch=4 c=11 v=103
27628 Par ch=4 c=11 v=105
27632 Par ch=4 c=11 v=106
27636 Par ch=4 c=11 v=108
27637 On ch=4 n=72 v=0
27640 Par ch=4 c=11 v=109
27644 Par ch=4 c=11 v=111
27648 On ch=4 n=72 v=47
27696 Par ch=4 c=11 v=64
27955 On ch=4 n=72 v=0
28032 On ch=4 n=72 v=47
28080 Par ch=4 c=11 v=64
28088 Par ch=4 c=11 v=65
28092 Par ch=4 c=11 v=66
28096 Par ch=4 c=11 v=67
28104 Par ch=4 c=11 v=68
28108 Par ch=4 c=11 v=69
28112 Par ch=4 c=11 v=70
28120 Par ch=4 c=11 v=71
28124 Par ch=4 c=11 v=72
28128 Par ch=4 c=11 v=73
28136 Par ch=4 c=11 v=74
28140 Par ch=4 c=11 v=75
28144 Par ch=4 c=11 v=76
28152 Par ch=4 c=11 v=77
28156 Par ch=4 c=11 v=78
28160 Par ch=4 c=11 v=79
28168 Par ch=4 c=11 v=80
28172 Par ch=4 c=11 v=81
28176 Par ch=4 c=11 v=82
28184 Par ch=4 c=11 v=83
28188 Par ch=4 c=11 v=84
28192 Par ch=4 c=11 v=85
28200 Par ch=4 c=11 v=86
28204 Par ch=4 c=11 v=87
28208 Par ch=4 c=11 v=88
28216 Par ch=4 c=11 v=89
28220 Par ch=4 c=11 v=90
28224 Par ch=4 c=11 v=91
28232 Par ch=4 c=11 v=92
28236 Par ch=4 c=11 v=93
28240 Par ch=4 c=11 v=94
28248 Par ch=4 c=11 v=95
28252 Par ch=4 c=11 v=96
28256 Par ch=4 c=11 v=97
28264 Par ch=4 c=11 v=98
28268 Par ch=4 c=11 v=99
28272 Par ch=4 c=11 v=100
28280 Par ch=4 c=11 v=101
28284 Par ch=4 c=11 v=102
28288 Par ch=4 c=11 v=103
28296 Par ch=4 c=11 v=104
28300 Par ch=4 c=11 v=105
28304 Par ch=4 c=11 v=106
28312 Par ch=4 c=11 v=107
28316 Par ch=4 c=11 v=108
28320 Par ch=4 c=11 v=109
28328 Par ch=4 c=11 v=110
28332 Par ch=4 c=11 v=111
28336 Par ch=4 c=11 v=112
28344 Par ch=4 c=11 v=113
28348 Par ch=4 c=11 v=114
28352 Par ch=4 c=11 v=115
28360 Par ch=4 c=11 v=116
28364 Par ch=4 c=11 v=117
28368 Par ch=4 c=11 v=118
28376 Par ch=4 c=11 v=119
28380 Par ch=4 c=11 v=120
28384 Par ch=4 c=11 v=121
28392 Par ch=4 c=11 v=122
28396 Par ch=4 c=11 v=123
28400 Par ch=4 c=11 v=124
28408 Par ch=4 c=11 v=125
28412 Par ch=4 c=11 v=126
28454 On ch=4 n=72 v=0
28512 Par ch=4 c=11 v=64
29088 On ch=4 n=70 v=47
29119 On ch=4 n=70 v=0
29160 On ch=4 n=72 v=47
29176 On ch=4 n=72 v=0
29184 Par ch=4 c=11 v=64
29184 On ch=4 n=72 v=47
29200 Par ch=4 c=11 v=65
29216 Par ch=4 c=11 v=66
29232 Par ch=4 c=11 v=67
29248 Par ch=4 c=11 v=68
29261 On ch=4 n=72 v=0
29264 Par ch=4 c=11 v=69
29280 Par ch=4 c=11 v=70
29280 On ch=4 n=63 v=47
29296 Par ch=4 c=11 v=71
29311 On ch=4 n=63 v=0
29312 Par ch=4 c=11 v=72
29328 Par ch=4 c=11 v=73
29344 Par ch=4 c=11 v=74
29352 On ch=4 n=68 v=47
29360 Par ch=4 c=11 v=75
29368 On ch=4 n=68 v=0
29376 Par ch=4 c=11 v=76
29376 On ch=4 n=68 v=47
29388 Par ch=4 c=11 v=77
29404 Par ch=4 c=11 v=78
29420 Par ch=4 c=11 v=79
29436 Par ch=4 c=11 v=80
29452 Par ch=4 c=11 v=81
29453 On ch=4 n=68 v=0
29468 Par ch=4 c=11 v=82
29472 On ch=4 n=70 v=47
29484 Par ch=4 c=11 v=83
29500 Par ch=4 c=11 v=84
29503 On ch=4 n=70 v=0
29516 Par ch=4 c=11 v=85
29532 Par ch=4 c=11 v=86
29544 On ch=4 n=72 v=47
29548 Par ch=4 c=11 v=87
29560 On ch=4 n=72 v=0
29564 Par ch=4 c=11 v=88
29568 On ch=4 n=72 v=47
29576 Par ch=4 c=11 v=89
29592 Par ch=4 c=11 v=90
29608 Par ch=4 c=11 v=91
29624 Par ch=4 c=11 v=92
29640 Par ch=4 c=11 v=93
29645 On ch=4 n=72 v=0
29656 Par ch=4 c=11 v=94
29664 On ch=4 n=63 v=47
29672 Par ch=4 c=11 v=95
29685 On ch=4 n=63 v=0
29688 Par ch=4 c=11 v=96
29696 On ch=4 n=60 v=47
29704 Par ch=4 c=11 v=97
29717 On ch=4 n=60 v=0
29720 Par ch=4 c=11 v=98
29728 On ch=4 n=63 v=47
29736 Par ch=4 c=11 v=99
29749 On ch=4 n=63 v=0
29752 Par ch=4 c=11 v=100
29760 On ch=4 n=68 v=47
29764 Par ch=4 c=11 v=101
29780 Par ch=4 c=11 v=102
29796 Par ch=4 c=11 v=103
29812 Par ch=4 c=11 v=104
29828 Par ch=4 c=11 v=105
29837 On ch=4 n=68 v=0
29844 Par ch=4 c=11 v=106
29856 On ch=4 n=70 v=47
29860 Par ch=4 c=11 v=107
29876 Par ch=4 c=11 v=108
29877 On ch=4 n=70 v=0
29888 On ch=4 n=68 v=47
29892 Par ch=4 c=11 v=109
29908 Par ch=4 c=11 v=110
29909 On ch=4 n=68 v=0
29920 On ch=4 n=70 v=47
29924 Par ch=4 c=11 v=111
29940 Par ch=4 c=11 v=112
29941 On ch=4 n=70 v=0
29952 Par ch=4 c=11 v=64
29952 On ch=4 n=72 v=47
30106 On ch=4 n=72 v=0
30240 Par ch=4 c=11 v=64
30240 On ch=4 n=72 v=95
30248 Par ch=4 c=11 v=65
30252 Par ch=4 c=11 v=66
30260 Par ch=4 c=11 v=67
30261 On ch=4 n=72 v=0
30264 Par ch=4 c=11 v=68
30272 Par ch=4 c=11 v=69
30272 On ch=4 n=75 v=95
30276 Par ch=4 c=11 v=70
30280 Par ch=4 c=11 v=71
30288 Par ch=4 c=11 v=72
30292 Par ch=4 c=11 v=73
30293 On ch=4 n=75 v=0
30300 Par ch=4 c=11 v=74
30304 Par ch=4 c=11 v=75
30304 On ch=4 n=80 v=95
30308 Par ch=4 c=11 v=76
30316 Par ch=4 c=11 v=77
30320 Par ch=4 c=11 v=78
30325 On ch=4 n=80 v=0
30328 Par ch=4 c=11 v=79
30332 Par ch=4 c=11 v=80
30336 On ch=4 n=84 v=95
30490 On ch=4 n=84 v=0
30624 Par ch=4 c=11 v=64
30624 On ch=4 n=72 v=95
30632 Par ch=4 c=11 v=65
30636 Par ch=4 c=11 v=66
30644 Par ch=4 c=11 v=67
30645 On ch=4 n=72 v=0
30648 Par ch=4 c=11 v=68
30656 Par ch=4 c=11 v=69
30656 On ch=4 n=75 v=95
30660 Par ch=4 c=11 v=70
30668 Par ch=4 c=11 v=71
30672 Par ch=4 c=11 v=72
30677 On ch=4 n=75 v=0
30680 Par ch=4 c=11 v=73
30684 Par ch=4 c=11 v=74
30688 On ch=4 n=80 v=95
30692 Par ch=4 c=11 v=75
30696 Par ch=4 c=11 v=76
30704 Par ch=4 c=11 v=77
30708 Par ch=4 c=11 v=78
30709 On ch=4 n=80 v=0
30716 Par ch=4 c=11 v=79
30720 On ch=4 n=79 v=95
30768 Par ch=4 c=11 v=32
32563 On ch=4 n=79 v=0
33024 Par ch=4 c=11 v=64
33408 Par ch=4 c=11 v=64
33408 On ch=4 n=75 v=111
33416 Par ch=4 c=11 v=63
33420 Par ch=4 c=11 v=62
33428 Par ch=4 c=11 v=61
33432 Par ch=4 c=11 v=60
33440 Par ch=4 c=11 v=59
33444 Par ch=4 c=11 v=58
33448 Par ch=4 c=11 v=57
33456 Par ch=4 c=11 v=56
33460 Par ch=4 c=11 v=55
33468 Par ch=4 c=11 v=54
33472 Par ch=4 c=11 v=53
33476 Par ch=4 c=11 v=52
33484 Par ch=4 c=11 v=51
33488 Par ch=4 c=11 v=50
33496 Par ch=4 c=11 v=49
33500 Par ch=4 c=11 v=48
33504 On ch=4 n=75 v=0
33504 Par ch=4 c=11 v=48
33504 On ch=4 n=74 v=111
33516 Par ch=4 c=11 v=49
33528 Par ch=4 c=11 v=50
33540 Par ch=4 c=11 v=51
33552 Par ch=4 c=11 v=52
33564 Par ch=4 c=11 v=53
33576 Par ch=4 c=11 v=54
33588 Par ch=4 c=11 v=55
33600 Par ch=4 c=11 v=56
33612 Par ch=4 c=11 v=57
33624 Par ch=4 c=11 v=58
33636 Par ch=4 c=11 v=59
33648 Par ch=4 c=11 v=60
33660 Par ch=4 c=11 v=61
33672 Par ch=4 c=11 v=62
33684 Par ch=4 c=11 v=63
33696 On ch=4 n=74 v=0
33696 Par ch=4 c=11 v=64
33696 On ch=4 n=77 v=111
33744 On ch=4 n=77 v=0
33744 On ch=4 n=75 v=111
33782 On ch=4 n=75 v=0
33792 On ch=4 n=74 v=111
33888 On ch=4 n=74 v=0
33888 On ch=4 n=72 v=111
33936 On ch=4 n=72 v=0
33936 On ch=4 n=70 v=111
33984 On ch=4 n=70 v=0
33984 Par ch=4 c=11 v=64
33984 On ch=4 n=67 v=111
33996 Par ch=4 c=11 v=65
34008 Par ch=4 c=11 v=66
34020 Par ch=4 c=11 v=67
34032 On ch=4 n=67 v=0
34032 Par ch=4 c=11 v=68
34032 On ch=4 n=69 v=111
34044 Par ch=4 c=11 v=69
34052 Par ch=4 c=11 v=70
34064 Par ch=4 c=11 v=71
34076 Par ch=4 c=11 v=72
34080 On ch=4 n=69 v=0
34080 On ch=4 n=74 v=111
34088 Par ch=4 c=11 v=73
34100 Par ch=4 c=11 v=74
34112 Par ch=4 c=11 v=75
34120 Par ch=4 c=11 v=76
34128 On ch=4 n=74 v=0
34128 On ch=4 n=72 v=111
34132 Par ch=4 c=11 v=77
34144 Par ch=4 c=11 v=78
34156 Par ch=4 c=11 v=79
34166 On ch=4 n=72 v=0
34168 Par ch=4 c=11 v=80
34176 Par ch=4 c=11 v=64
34176 On ch=4 n=70 v=111
34188 Par ch=4 c=11 v=63
34200 Par ch=4 c=11 v=62
34212 Par ch=4 c=11 v=61
34224 Par ch=4 c=11 v=60
34236 Par ch=4 c=11 v=59
34244 Par ch=4 c=11 v=58
34256 Par ch=4 c=11 v=57
34268 Par ch=4 c=11 v=56
34280 Par ch=4 c=11 v=55
34292 Par ch=4 c=11 v=54
34304 Par ch=4 c=11 v=53
34312 Par ch=4 c=11 v=52
34324 Par ch=4 c=11 v=51
34336 Par ch=4 c=11 v=50
34348 Par ch=4 c=11 v=49
34360 Par ch=4 c=11 v=48
34368 Par ch=4 c=11 v=47
34380 Par ch=4 c=11 v=46
34392 Par ch=4 c=11 v=45
34404 Par ch=4 c=11 v=44
34416 Par ch=4 c=11 v=43
34428 Par ch=4 c=11 v=42
34436 Par ch=4 c=11 v=41
34448 Par ch=4 c=11 v=40
34460 Par ch=4 c=11 v=39
34472 Par ch=4 c=11 v=38
34484 Par ch=4 c=11 v=37
34496 Par ch=4 c=11 v=36
34504 Par ch=4 c=11 v=35
34516 Par ch=4 c=11 v=34
34528 Par ch=4 c=11 v=33
34540 Par ch=4 c=11 v=32
34790 On ch=4 n=70 v=0
34944 Par ch=4 c=11 v=64
34944 On ch=4 n=67 v=111
34956 Par ch=4 c=11 v=63
34968 Par ch=4 c=11 v=62
34980 Par ch=4 c=11 v=61
34992 Par ch=4 c=11 v=60
35004 Par ch=4 c=11 v=59
35012 Par ch=4 c=11 v=58
35024 Par ch=4 c=11 v=57
35036 Par ch=4 c=11 v=56
35048 Par ch=4 c=11 v=55
35060 Par ch=4 c=11 v=54
35072 Par ch=4 c=11 v=53
35080 Par ch=4 c=11 v=52
35092 Par ch=4 c=11 v=51
35104 Par ch=4 c=11 v=50
35116 Par ch=4 c=11 v=49
35128 Par ch=4 c=11 v=48
35136 Par ch=4 c=11 v=47
35148 Par ch=4 c=11 v=46
35160 Par ch=4 c=11 v=45
35172 Par ch=4 c=11 v=44
35184 Par ch=4 c=11 v=43
35196 Par ch=4 c=11 v=42
35204 Par ch=4 c=11 v=41
35216 Par ch=4 c=11 v=40
35228 Par ch=4 c=11 v=39
35240 Par ch=4 c=11 v=38
35252 Par ch=4 c=11 v=37
35264 Par ch=4 c=11 v=36
35272 Par ch=4 c=11 v=35
35284 Par ch=4 c=11 v=34
35296 Par ch=4 c=11 v=33
35308 Par ch=4 c=11 v=32
35558 On ch=4 n=67 v=0
35712 Par ch=4 c=11 v=64
35712 On ch=4 n=72 v=95
35760 Par ch=4 c=11 v=32
35935 On ch=4 n=72 v=0
35976 On ch=4 n=70 v=95
35992 On ch=4 n=70 v=0
36000 On ch=4 n=68 v=95
36031 On ch=4 n=68 v=0
36072 On ch=4 n=67 v=95
36088 On ch=4 n=67 v=0
36096 Par ch=4 c=11 v=64
36096 On ch=4 n=72 v=95
36144 Par ch=4 c=11 v=32
36319 On ch=4 n=72 v=0
36360 On ch=4 n=70 v=95
36376 On ch=4 n=70 v=0
36384 On ch=4 n=65 v=95
36415 On ch=4 n=65 v=0
36456 On ch=4 n=62 v=95
36472 On ch=4 n=62 v=0
36480 On ch=4 n=61 v=95
36518 On ch=4 n=61 v=0
36864 Par ch=4 c=11 v=64
39552 Par ch=4 c=0 v=0
39552 Par ch=4 c=32 v=0
39552 PrCh ch=4 p=69
39552 On ch=4 n=55 v=47
39706 On ch=4 n=55 v=0
39744 On ch=4 n=57 v=47
39821 On ch=4 n=57 v=0
39840 On ch=4 n=58 v=47
39871 On ch=4 n=58 v=0
39912 On ch=4 n=62 v=47
39928 On ch=4 n=62 v=0
39936 On ch=4 n=67 v=47
40090 On ch=4 n=67 v=0
41088 Par ch=4 c=11 v=64
41088 On ch=4 n=71 v=31
41092 Par ch=4 c=11 v=65
41096 Par ch=4 c=11 v=66
41100 Par ch=4 c=11 v=68
41104 Par ch=4 c=11 v=69
41108 Par ch=4 c=11 v=71
41112 Par ch=4 c=11 v=72
41116 Par ch=4 c=11 v=73
41120 Par ch=4 c=11 v=75
41124 Par ch=4 c=11 v=76
41128 Par ch=4 c=11 v=78
41132 Par ch=4 c=11 v=79
41136 Par ch=4 c=11 v=79
41140 Par ch=4 c=11 v=78
41144 Par ch=4 c=11 v=77
41148 Par ch=4 c=11 v=76
41152 Par ch=4 c=11 v=74
41156 Par ch=4 c=11 v=73
41160 Par ch=4 c=11 v=72
41164 Par ch=4 c=11 v=71
41168 Par ch=4 c=11 v=69
41172 Par ch=4 c=11 v=68
41176 Par ch=4 c=11 v=67
41180 Par ch=4 c=11 v=66
41184 On ch=4 n=71 v=0
41184 Par ch=4 c=11 v=64
41184 On ch=4 n=70 v=31
41414 On ch=4 n=70 v=0
41472 Par ch=4 c=11 v=64
41472 On ch=4 n=71 v=31
41476 Par ch=4 c=11 v=65
41480 Par ch=4 c=11 v=66
41484 Par ch=4 c=11 v=68
41488 Par ch=4 c=11 v=69
41492 Par ch=4 c=11 v=71
41496 Par ch=4 c=11 v=72
41500 Par ch=4 c=11 v=73
41504 Par ch=4 c=11 v=75
41508 Par ch=4 c=11 v=76
41512 Par ch=4 c=11 v=78
41516 Par ch=4 c=11 v=79
41520 Par ch=4 c=11 v=79
41524 Par ch=4 c=11 v=78
41528 Par ch=4 c=11 v=77
41532 Par ch=4 c=11 v=76
41536 Par ch=4 c=11 v=74
41540 Par ch=4 c=11 v=73
41544 Par ch=4 c=11 v=72
41548 Par ch=4 c=11 v=71
41552 Par ch=4 c=11 v=69
41556 Par ch=4 c=11 v=68
41560 Par ch=4 c=11 v=67
41564 Par ch=4 c=11 v=66
41568 On ch=4 n=71 v=0
41568 Par ch=4 c=11 v=64
41568 On ch=4 n=70 v=31
41798 On ch=4 n=70 v=0
48000 On ch=4 n=72 v=31
48096 On ch=4 n=72 v=0
48096 On ch=4 n=71 v=31
48192 On ch=4 n=71 v=0
48192 On ch=4 n=69 v=31
48288 On ch=4 n=69 v=0
48288 On ch=4 n=67 v=31
48336 On ch=4 n=67 v=0
48336 On ch=4 n=65 v=31
48384 On ch=4 n=65 v=0
48384 On ch=4 n=64 v=31
48461 On ch=4 n=64 v=0
49536 On ch=4 n=59 v=31
49584 On ch=4 n=59 v=0
49584 On ch=4 n=73 v=31
49632 On ch=4 n=73 v=0
49632 On ch=4 n=71 v=31
49776 On ch=4 n=71 v=0
49776 On ch=4 n=68 v=31
49824 On ch=4 n=68 v=0
49824 On ch=4 n=66 v=31
49872 On ch=4 n=66 v=0
49872 On ch=4 n=63 v=31
49910 On ch=4 n=63 v=0
49920 On ch=4 n=59 v=31
49968 On ch=4 n=59 v=0
49968 On ch=4 n=73 v=31
50016 On ch=4 n=73 v=0
50016 On ch=4 n=71 v=31
50160 On ch=4 n=71 v=0
50160 On ch=4 n=68 v=31
50208 On ch=4 n=68 v=0
50208 On ch=4 n=66 v=31
50256 On ch=4 n=66 v=0
50256 On ch=4 n=63 v=31
50304 On ch=4 n=63 v=0
50304 On ch=4 n=59 v=31
51168 On ch=4 n=59 v=0
51168 On ch=4 n=56 v=31
51264 On ch=4 n=56 v=0
51264 On ch=4 n=57 v=31
51418 On ch=4 n=57 v=0
51456 On ch=4 n=59 v=31
51552 On ch=4 n=59 v=0
51552 On ch=4 n=56 v=31
51648 On ch=4 n=56 v=0
51648 On ch=4 n=57 v=31
51840 On ch=4 n=57 v=0
51840 On ch=4 n=59 v=31
51917 On ch=4 n=59 v=0
58080 On ch=4 n=71 v=47
58272 On ch=4 n=71 v=0
58272 On ch=4 n=69 v=47
58368 On ch=4 n=69 v=0
58368 On ch=4 n=67 v=47
58560 On ch=4 n=67 v=0
58560 On ch=4 n=69 v=47
58656 On ch=4 n=69 v=0
58656 On ch=4 n=71 v=47
58752 On ch=4 n=71 v=0
58752 On ch=4 n=72 v=47
58944 On ch=4 n=72 v=0
58944 On ch=4 n=71 v=47
59040 On ch=4 n=71 v=0
59040 On ch=4 n=69 v=47
59088 On ch=4 n=69 v=0
59088 On ch=4 n=67 v=47
59136 On ch=4 n=67 v=0
59136 On ch=4 n=66 v=47
59443 On ch=4 n=66 v=0
59592 On ch=4 n=64 v=47
59608 On ch=4 n=64 v=0
59616 On ch=4 n=66 v=47
59647 On ch=4 n=66 v=0
59688 On ch=4 n=67 v=47
59704 On ch=4 n=67 v=0
59712 On ch=4 n=69 v=47
59866 On ch=4 n=69 v=0
59976 On ch=4 n=67 v=47
59992 On ch=4 n=67 v=0
60000 On ch=4 n=69 v=47
60031 On ch=4 n=69 v=0
60072 On ch=4 n=71 v=47
60088 On ch=4 n=71 v=0
60096 On ch=4 n=72 v=47
60319 On ch=4 n=72 v=0
60384 Par ch=4 c=11 v=64
60384 On ch=4 n=71 v=47
60404 Par ch=4 c=11 v=65
60420 Par ch=4 c=11 v=66
60436 Par ch=4 c=11 v=67
60452 Par ch=4 c=11 v=68
60472 Par ch=4 c=11 v=69
60488 Par ch=4 c=11 v=70
60504 Par ch=4 c=11 v=71
60520 Par ch=4 c=11 v=72
60538 On ch=4 n=71 v=0
60540 Par ch=4 c=11 v=73
60556 Par ch=4 c=11 v=74
60572 Par ch=4 c=11 v=75
60576 On ch=4 n=76 v=47
60588 Par ch=4 c=11 v=76
60608 Par ch=4 c=11 v=77
60624 Par ch=4 c=11 v=78
60640 Par ch=4 c=11 v=79
60656 Par ch=4 c=11 v=80
60749 On ch=4 n=76 v=0
60768 On ch=4 n=74 v=47
60912 Par ch=4 c=11 v=80
60920 Par ch=4 c=11 v=79
60922 On ch=4 n=74 v=0
60928 Par ch=4 c=11 v=78
60936 Par ch=4 c=11 v=77
60944 Par ch=4 c=11 v=76
60952 Par ch=4 c=11 v=75
60960 Par ch=4 c=11 v=74
60960 On ch=4 n=76 v=47
60968 Par ch=4 c=11 v=73
60976 Par ch=4 c=11 v=72
60984 Par ch=4 c=11 v=71
60992 Par ch=4 c=11 v=70
60998 On ch=4 n=76 v=0
61000 Par ch=4 c=11 v=69
61008 Par ch=4 c=11 v=68
61008 On ch=4 n=74 v=47
61016 Par ch=4 c=11 v=67
61024 Par ch=4 c=11 v=66
61032 Par ch=4 c=11 v=65
61040 Par ch=4 c=11 v=64
61046 On ch=4 n=74 v=0
61056 On ch=4 n=72 v=47
61087 On ch=4 n=72 v=0
61128 On ch=4 n=71 v=47
61144 On ch=4 n=71 v=0
61152 On ch=4 n=69 v=47
61306 On ch=4 n=69 v=0
61344 On ch=4 n=66 v=47
61392 On ch=4 n=66 v=0
61392 On ch=4 n=71 v=47
61430 On ch=4 n=71 v=0
61440 Par ch=4 c=11 v=64
61440 On ch=4 n=71 v=47
61460 Par ch=4 c=11 v=65
61476 Par ch=4 c=11 v=66
61492 Par ch=4 c=11 v=67
61508 Par ch=4 c=11 v=68
61528 Par ch=4 c=11 v=69
61544 Par ch=4 c=11 v=70
61560 Par ch=4 c=11 v=71
61576 Par ch=4 c=11 v=72
61596 Par ch=4 c=11 v=73
61612 Par ch=4 c=11 v=74
61628 Par ch=4 c=11 v=75
61644 Par ch=4 c=11 v=76
61664 Par ch=4 c=11 v=77
61670 On ch=4 n=71 v=0
61680 Par ch=4 c=11 v=78
61696 Par ch=4 c=11 v=79
61712 Par ch=4 c=11 v=80
61728 On ch=4 n=69 v=47
61766 On ch=4 n=69 v=0
61776 On ch=4 n=67 v=47
61814 On ch=4 n=67 v=0
61824 Par ch=4 c=11 v=80
61824 On ch=4 n=66 v=47
61832 Par ch=4 c=11 v=79
61836 Par ch=4 c=11 v=78
61844 Par ch=4 c=11 v=77
61848 Par ch=4 c=11 v=76
61856 Par ch=4 c=11 v=75
61860 Par ch=4 c=11 v=74
61868 Par ch=4 c=11 v=73
61872 Par ch=4 c=11 v=72
61880 Par ch=4 c=11 v=71
61884 Par ch=4 c=11 v=70
61892 Par ch=4 c=11 v=69
61896 Par ch=4 c=11 v=68
61901 On ch=4 n=66 v=0
61904 Par ch=4 c=11 v=67
61908 Par ch=4 c=11 v=66
61916 Par ch=4 c=11 v=65
61920 Par ch=4 c=11 v=64
61920 On ch=4 n=64 v=47
62074 On ch=4 n=64 v=0
62304 Par ch=4 c=11 v=64
62304 On ch=4 n=72 v=47
62324 Par ch=4 c=11 v=65
62340 Par ch=4 c=11 v=66
62356 Par ch=4 c=11 v=67
62372 Par ch=4 c=11 v=68
62392 Par ch=4 c=11 v=69
62408 Par ch=4 c=11 v=70
62424 Par ch=4 c=11 v=71
62440 Par ch=4 c=11 v=72
62458 On ch=4 n=72 v=0
62460 Par ch=4 c=11 v=73
62476 Par ch=4 c=11 v=74
62492 Par ch=4 c=11 v=75
62496 On ch=4 n=71 v=47
62508 Par ch=4 c=11 v=76
62528 Par ch=4 c=11 v=77
62534 On ch=4 n=71 v=0
62544 Par ch=4 c=11 v=78
62544 On ch=4 n=69 v=47
62560 Par ch=4 c=11 v=79
62576 Par ch=4 c=11 v=80
62582 On ch=4 n=69 v=0
62592 Par ch=4 c=11 v=80
62592 On ch=4 n=67 v=47
62600 Par ch=4 c=11 v=79
62604 Par ch=4 c=11 v=78
62612 Par ch=4 c=11 v=77
62616 Par ch=4 c=11 v=76
62624 Par ch=4 c=11 v=75
62628 Par ch=4 c=11 v=74
62636 Par ch=4 c=11 v=73
62640 Par ch=4 c=11 v=72
62648 Par ch=4 c=11 v=71
62652 Par ch=4 c=11 v=70
62660 Par ch=4 c=11 v=69
62664 Par ch=4 c=11 v=68
62669 On ch=4 n=67 v=0
62672 Par ch=4 c=11 v=67
62676 Par ch=4 c=11 v=66
62684 Par ch=4 c=11 v=65
62688 Par ch=4 c=11 v=64
62688 On ch=4 n=66 v=47
62842 On ch=4 n=66 v=0
64128 Par ch=4 c=0 v=0
64128 Par ch=4 c=32 v=0
64128 PrCh ch=4 p=68
64128 Par ch=4 c=11 v=96
64128 On ch=4 n=83 v=31
64282 On ch=4 n=83 v=0
64320 On ch=4 n=81 v=31
64336 Par ch=4 c=11 v=96
64352 Par ch=4 c=11 v=97
64368 Par ch=4 c=11 v=98
64384 Par ch=4 c=11 v=99
64400 Par ch=4 c=11 v=100
64416 Par ch=4 c=11 v=101
64432 Par ch=4 c=11 v=102
64435 On ch=4 n=81 v=0
64444 Par ch=4 c=11 v=103
64460 Par ch=4 c=11 v=104
64464 On ch=4 n=79 v=31
64476 Par ch=4 c=11 v=105
64492 Par ch=4 c=11 v=106
64502 On ch=4 n=79 v=0
64508 Par ch=4 c=11 v=107
64512 On ch=4 n=76 v=31
64524 Par ch=4 c=11 v=108
64540 Par ch=4 c=11 v=109
64550 On ch=4 n=76 v=0
64556 Par ch=4 c=11 v=110
64568 Par ch=4 c=11 v=111
64584 Par ch=4 c=11 v=112
64600 Par ch=4 c=11 v=113
64608 On ch=4 n=75 v=31
64616 Par ch=4 c=11 v=114
64632 Par ch=4 c=11 v=115
64648 Par ch=4 c=11 v=116
64664 Par ch=4 c=11 v=117
64680 Par ch=4 c=11 v=118
64692 Par ch=4 c=11 v=119
64708 Par ch=4 c=11 v=120
64724 Par ch=4 c=11 v=121
64740 Par ch=4 c=11 v=122
64756 Par ch=4 c=11 v=123
64760 On ch=4 n=75 v=0
64772 Par ch=4 c=11 v=124
64788 Par ch=4 c=11 v=125
64800 Par ch=4 c=11 v=126
64800 On ch=4 n=71 v=31
64838 On ch=4 n=71 v=0
64896 Par ch=4 c=11 v=64
64896 On ch=4 n=79 v=95
64973 On ch=4 n=79 v=0
64992 On ch=4 n=83 v=95
65030 On ch=4 n=83 v=0
65064 On ch=4 n=81 v=95
65083 On ch=4 n=81 v=0
65088 On ch=4 n=79 v=95
65203 On ch=4 n=79 v=0
65232 Par ch=4 c=11 v=64
65232 On ch=4 n=78 v=95
65260 Par ch=4 c=11 v=65
65284 Par ch=4 c=11 v=66
65312 Par ch=4 c=11 v=67
65318 On ch=4 n=78 v=0
65328 On ch=4 n=76 v=95
65336 Par ch=4 c=11 v=68
65360 Par ch=4 c=11 v=69
65366 On ch=4 n=76 v=0
65376 On ch=4 n=79 v=95
65388 Par ch=4 c=11 v=70
65407 On ch=4 n=79 v=0
65412 Par ch=4 c=11 v=71
65436 Par ch=4 c=11 v=72
65448 On ch=4 n=78 v=95
65464 On ch=4 n=78 v=0
65464 Par ch=4 c=11 v=73
65472 On ch=4 n=76 v=95
65488 Par ch=4 c=11 v=74
65512 Par ch=4 c=11 v=75
65540 Par ch=4 c=11 v=76
65564 Par ch=4 c=11 v=77
65566 On ch=4 n=76 v=0
65588 Par ch=4 c=11 v=78
65616 Par ch=4 c=11 v=79
65616 On ch=4 n=74 v=95
65640 Par ch=4 c=11 v=80
65647 On ch=4 n=74 v=0
65664 Par ch=4 c=11 v=64
65664 On ch=4 n=72 v=79
65894 On ch=4 n=72 v=0
65952 On ch=4 n=71 v=79
66029 On ch=4 n=71 v=0
66048 On ch=4 n=69 v=79
66202 On ch=4 n=69 v=0
66432 On ch=4 n=69 v=79
66662 On ch=4 n=69 v=0
66720 On ch=4 n=67 v=79
66797 On ch=4 n=67 v=0
66816 On ch=4 n=65 v=79
66970 On ch=4 n=65 v=0
67872 On ch=4 n=76 v=95
67903 On ch=4 n=76 v=0
67944 On ch=4 n=78 v=95
67960 On ch=4 n=78 v=0
67968 On ch=4 n=78 v=95
68045 On ch=4 n=78 v=0
68064 On ch=4 n=69 v=95
68095 On ch=4 n=69 v=0
68136 On ch=4 n=74 v=95
68152 On ch=4 n=74 v=0
68160 On ch=4 n=74 v=95
68237 On ch=4 n=74 v=0
68256 On ch=4 n=76 v=95
68277 On ch=4 n=76 v=0
68288 On ch=4 n=78 v=95
68309 On ch=4 n=78 v=0
68320 On ch=4 n=79 v=95
68341 On ch=4 n=79 v=0
68352 Par ch=4 c=11 v=64
68352 On ch=4 n=81 v=95
68376 Par ch=4 c=11 v=65
68400 Par ch=4 c=11 v=66
68420 Par ch=4 c=11 v=67
68429 On ch=4 n=81 v=0
68444 Par ch=4 c=11 v=68
68448 On ch=4 n=78 v=95
68468 Par ch=4 c=11 v=69
68469 On ch=4 n=78 v=0
68480 On ch=4 n=79 v=95
68488 Par ch=4 c=11 v=70
68501 On ch=4 n=79 v=0
68512 Par ch=4 c=11 v=71
68512 On ch=4 n=81 v=95
68533 On ch=4 n=81 v=0
68536 Par ch=4 c=11 v=72
68544 On ch=4 n=83 v=95
68556 Par ch=4 c=11 v=73
68580 Par ch=4 c=11 v=74
68604 Par ch=4 c=11 v=75
68621 On ch=4 n=83 v=0
68624 Par ch=4 c=11 v=76
68640 On ch=4 n=80 v=95
68648 Par ch=4 c=11 v=77
68661 On ch=4 n=80 v=0
68672 Par ch=4 c=11 v=78
68672 On ch=4 n=81 v=95
68692 Par ch=4 c=11 v=79
68693 On ch=4 n=81 v=0
68704 On ch=4 n=83 v=95
68716 Par ch=4 c=11 v=80
68725 On ch=4 n=83 v=0
68736 Par ch=4 c=11 v=64
68736 On ch=4 n=85 v=95
68784 Par ch=4 c=11 v=32
68890 On ch=4 n=85 v=0
69120 Par ch=4 c=11 v=64
69120 On ch=4 n=85 v=95
69144 Par ch=4 c=11 v=63
69158 On ch=4 n=85 v=0
69168 Par ch=4 c=11 v=62
69188 Par ch=4 c=11 v=61
69192 On ch=4 n=83 v=95
69211 On ch=4 n=83 v=0
69212 Par ch=4 c=11 v=60
69216 On ch=4 n=81 v=95
69236 Par ch=4 c=11 v=59
69254 On ch=4 n=81 v=0
69256 Par ch=4 c=11 v=58
69280 Par ch=4 c=11 v=57
69288 On ch=4 n=80 v=95
69304 Par ch=4 c=11 v=56
69307 On ch=4 n=80 v=0
69312 On ch=4 n=78 v=95
69324 Par ch=4 c=11 v=55
69348 Par ch=4 c=11 v=54
69350 On ch=4 n=78 v=0
69372 Par ch=4 c=11 v=53
69384 On ch=4 n=76 v=95
69392 Par ch=4 c=11 v=52
69403 On ch=4 n=76 v=0
69408 On ch=4 n=75 v=95
69416 Par ch=4 c=11 v=51
69440 Par ch=4 c=11 v=50
69446 On ch=4 n=75 v=0
69460 Par ch=4 c=11 v=49
69480 On ch=4 n=73 v=95
69484 Par ch=4 c=11 v=48
69499 On ch=4 n=73 v=0
69888 Par ch=4 c=11 v=64
69888 On ch=4 n=85 v=95
69912 Par ch=4 c=11 v=63
69926 On ch=4 n=85 v=0
69936 Par ch=4 c=11 v=62
69956 Par ch=4 c=11 v=61
69960 On ch=4 n=83 v=95
69979 On ch=4 n=83 v=0
69980 Par ch=4 c=11 v=60
69984 On ch=4 n=81 v=95
70004 Par ch=4 c=11 v=59
70022 On ch=4 n=81 v=0
70024 Par ch=4 c=11 v=58
70048 Par ch=4 c=11 v=57
70056 On ch=4 n=80 v=95
70072 Par ch=4 c=11 v=56
70075 On ch=4 n=80 v=0
70080 On ch=4 n=78 v=95
70092 Par ch=4 c=11 v=55
70116 Par ch=4 c=11 v=54
70118 On ch=4 n=78 v=0
70140 Par ch=4 c=11 v=53
70152 On ch=4 n=76 v=95
70160 Par ch=4 c=11 v=52
70171 On ch=4 n=76 v=0
70176 On ch=4 n=74 v=95
70184 Par ch=4 c=11 v=51
70208 Par ch=4 c=11 v=50
70214 On ch=4 n=74 v=0
70228 Par ch=4 c=11 v=49
70248 On ch=4 n=73 v=95
70252 Par ch=4 c=11 v=48
70267 On ch=4 n=73 v=0
70656 Par ch=4 c=11 v=64
70656 On ch=4 n=73 v=111
70810 On ch=4 n=73 v=0
70848 On ch=4 n=72 v=111
70963 On ch=4 n=72 v=0
70992 On ch=4 n=68 v=111
71030 On ch=4 n=68 v=0
71040 On ch=4 n=73 v=111
71194 On ch=4 n=73 v=0
71232 On ch=4 n=72 v=111
71347 On ch=4 n=72 v=0
71376 On ch=4 n=68 v=111
71414 On ch=4 n=68 v=0
71424 On ch=4 n=74 v=111
71520 On ch=4 n=74 v=0
71520 On ch=4 n=73 v=47
71674 On ch=4 n=73 v=0
71808 On ch=4 n=74 v=111
71904 On ch=4 n=74 v=0
71904 On ch=4 n=73 v=47
72058 On ch=4 n=73 v=0
72192 On ch=4 n=74 v=95
72288 On ch=4 n=74 v=0
72288 On ch=4 n=73 v=47
72442 On ch=4 n=73 v=0
74496 Par ch=4 c=11 v=64
74496 On ch=4 n=81 v=47
74512 Par ch=4 c=11 v=65
74524 Par ch=4 c=11 v=66
74536 Par ch=4 c=11 v=67
74548 Par ch=4 c=11 v=68
74560 Par ch=4 c=11 v=69
74572 Par ch=4 c=11 v=70
74584 Par ch=4 c=11 v=71
74596 Par ch=4 c=11 v=72
74608 Par ch=4 c=11 v=73
74620 Par ch=4 c=11 v=74
74632 Par ch=4 c=11 v=75
74644 Par ch=4 c=11 v=76
74656 Par ch=4 c=11 v=77
74668 Par ch=4 c=11 v=78
74680 Par ch=4 c=11 v=79
74692 Par ch=4 c=11 v=80
74704 Par ch=4 c=11 v=81
74716 Par ch=4 c=11 v=82
74728 Par ch=4 c=11 v=83
74740 Par ch=4 c=11 v=84
74752 Par ch=4 c=11 v=85
74768 Par ch=4 c=11 v=86
74780 Par ch=4 c=11 v=87
74792 Par ch=4 c=11 v=88
74804 Par ch=4 c=11 v=89
74816 Par ch=4 c=11 v=90
74828 Par ch=4 c=11 v=91
74840 Par ch=4 c=11 v=92
74842 On ch=4 n=81 v=0
74852 Par ch=4 c=11 v=93
74864 Par ch=4 c=11 v=94
74876 Par ch=4 c=11 v=95
74880 On ch=4 n=81 v=47
74888 Par ch=4 c=11 v=96
74900 Par ch=4 c=11 v=97
74912 Par ch=4 c=11 v=98
74924 Par ch=4 c=11 v=99
74936 Par ch=4 c=11 v=100
74948 Par ch=4 c=11 v=101
74960 Par ch=4 c=11 v=102
74972 Par ch=4 c=11 v=103
74984 Par ch=4 c=11 v=104
74996 Par ch=4 c=11 v=105
75008 Par ch=4 c=11 v=106
75024 Par ch=4 c=11 v=107
75036 Par ch=4 c=11 v=108
75048 Par ch=4 c=11 v=109
75060 Par ch=4 c=11 v=110
75072 Par ch=4 c=11 v=111
75084 Par ch=4 c=11 v=112
75096 Par ch=4 c=11 v=113
75108 Par ch=4 c=11 v=114
75120 Par ch=4 c=11 v=115
75132 Par ch=4 c=11 v=116
75144 Par ch=4 c=11 v=117
75156 Par ch=4 c=11 v=118
75168 Par ch=4 c=11 v=119
75180 Par ch=4 c=11 v=120
75192 Par ch=4 c=11 v=121
75204 Par ch=4 c=11 v=122
75216 Par ch=4 c=11 v=123
75226 On ch=4 n=81 v=0
75228 Par ch=4 c=11 v=124
75240 Par ch=4 c=11 v=125
75252 Par ch=4 c=11 v=126
75360 Par ch=4 c=11 v=64
75360 On ch=4 n=79 v=95
75477 On ch=4 n=79 v=0
75488 On ch=4 n=78 v=95
75509 On ch=4 n=78 v=0
75520 On ch=4 n=77 v=95
75541 On ch=4 n=77 v=0
75552 On ch=4 n=76 v=95
75573 On ch=4 n=76 v=0
75584 On ch=4 n=75 v=95
75605 On ch=4 n=75 v=0
75616 On ch=4 n=74 v=95
75637 On ch=4 n=74 v=0
75648 On ch=4 n=73 v=95
75669 On ch=4 n=73 v=0
75680 On ch=4 n=72 v=95
75701 On ch=4 n=72 v=0
75712 On ch=4 n=71 v=95
75733 On ch=4 n=71 v=0
75744 On ch=4 n=70 v=95
75765 On ch=4 n=70 v=0
75776 On ch=4 n=69 v=95
75797 On ch=4 n=69 v=0
75808 On ch=4 n=68 v=95
75829 On ch=4 n=68 v=0
75840 On ch=4 n=67 v=95
75878 On ch=4 n=67 v=0
76032 On ch=4 n=80 v=95
76262 On ch=4 n=80 v=0
76320 On ch=4 n=68 v=95
76351 On ch=4 n=68 v=0
76392 On ch=4 n=80 v=95
76408 On ch=4 n=80 v=0
76416 On ch=4 n=80 v=95
76493 On ch=4 n=80 v=0
76512 On ch=4 n=68 v=95
76543 On ch=4 n=68 v=0
76584 On ch=4 n=80 v=95
76600 On ch=4 n=80 v=0
76608 On ch=4 n=80 v=95
76685 On ch=4 n=80 v=0
76704 On ch=4 n=68 v=95
76735 On ch=4 n=68 v=0
76776 On ch=4 n=80 v=95
76792 On ch=4 n=80 v=0
76800 On ch=4 n=81 v=95
76877 On ch=4 n=81 v=0
77568 On ch=4 n=80 v=111
77664 On ch=4 n=80 v=0
77664 On ch=4 n=72 v=111
77856 On ch=4 n=72 v=0
77856 On ch=4 n=73 v=111
77933 On ch=4 n=73 v=0
77952 Par ch=4 c=11 v=64
77952 On ch=4 n=78 v=111
77976 Par ch=4 c=11 v=63
78000 Par ch=4 c=11 v=62
78020 Par ch=4 c=11 v=61
78044 Par ch=4 c=11 v=60
78048 On ch=4 n=78 v=0
78048 On ch=4 n=70 v=111
78068 Par ch=4 c=11 v=59
78088 Par ch=4 c=11 v=58
78112 Par ch=4 c=11 v=57
78136 Par ch=4 c=11 v=56
78156 Par ch=4 c=11 v=55
78180 Par ch=4 c=11 v=54
78204 Par ch=4 c=11 v=53
78224 Par ch=4 c=11 v=52
78240 On ch=4 n=70 v=0
78240 On ch=4 n=71 v=111
78248 Par ch=4 c=11 v=51
78272 Par ch=4 c=11 v=50
78292 Par ch=4 c=11 v=49
78316 Par ch=4 c=11 v=48
78317 On ch=4 n=71 v=0
78720 Par ch=4 c=0 v=0
78720 Par ch=4 c=32 v=0
78720 PrCh ch=4 p=69
78720 Par ch=4 c=11 v=64
93984 On ch=4 n=51 v=111
94848 Par ch=4 c=11 v=64
94860 Par ch=4 c=11 v=63
94872 Par ch=4 c=11 v=62
94884 Par ch=4 c=11 v=61
94896 Par ch=4 c=11 v=60
94908 Par ch=4 c=11 v=59
94916 Par ch=4 c=11 v=58
94928 Par ch=4 c=11 v=57
94940 Par ch=4 c=11 v=56
94952 Par ch=4 c=11 v=55
94964 Par ch=4 c=11 v=54
94976 Par ch=4 c=11 v=53
94984 Par ch=4 c=11 v=52
94996 Par ch=4 c=11 v=51
95008 Par ch=4 c=11 v=50
95020 Par ch=4 c=11 v=49
95032 Par ch=4 c=11 v=48
95040 Par ch=4 c=11 v=47
95052 Par ch=4 c=11 v=46
95064 Par ch=4 c=11 v=45
95076 Par ch=4 c=11 v=44
95088 Par ch=4 c=11 v=43
95100 Par ch=4 c=11 v=42
95108 Par ch=4 c=11 v=41
95120 Par ch=4 c=11 v=40
95132 Par ch=4 c=11 v=39
95144 Par ch=4 c=11 v=38
95156 Par ch=4 c=11 v=37
95168 Par ch=4 c=11 v=36
95176 Par ch=4 c=11 v=35
95188 Par ch=4 c=11 v=34
95200 Par ch=4 c=11 v=33
95212 Par ch=4 c=11 v=32
95386 On ch=4 n=51 v=0
95616 Par ch=4 c=11 v=64
99072 Par ch=4 c=11 v=64
99072 On ch=4 n=58 v=47
99096 Par ch=4 c=11 v=63
99120 Par ch=4 c=11 v=62
99140 Par ch=4 c=11 v=61
99164 Par ch=4 c=11 v=60
99188 Par ch=4 c=11 v=59
99208 Par ch=4 c=11 v=58
99232 Par ch=4 c=11 v=57
99256 Par ch=4 c=11 v=56
99276 Par ch=4 c=11 v=55
99300 Par ch=4 c=11 v=54
99324 Par ch=4 c=11 v=53
99344 Par ch=4 c=11 v=52
99368 Par ch=4 c=11 v=51
99379 On ch=4 n=58 v=0
99392 Par ch=4 c=11 v=50
99412 Par ch=4 c=11 v=49
99436 Par ch=4 c=11 v=48
99456 Par ch=4 c=11 v=64
99456 On ch=4 n=59 v=47
99552 On ch=4 n=59 v=0
99552 Par ch=4 c=11 v=64
99552 On ch=4 n=58 v=47
99572 Par ch=4 c=11 v=63
99588 Par ch=4 c=11 v=62
99604 Par ch=4 c=11 v=61
99620 Par ch=4 c=11 v=60
99640 Par ch=4 c=11 v=59
99656 Par ch=4 c=11 v=58
99672 Par ch=4 c=11 v=57
99688 Par ch=4 c=11 v=56
99708 Par ch=4 c=11 v=55
99724 Par ch=4 c=11 v=54
99740 Par ch=4 c=11 v=53
99756 Par ch=4 c=11 v=52
99776 Par ch=4 c=11 v=51
99792 Par ch=4 c=11 v=50
99808 Par ch=4 c=11 v=49
99824 Par ch=4 c=11 v=48
100070 On ch=4 n=58 v=0
100224 Par ch=4 c=11 v=64
100224 On ch=4 n=59 v=47
100320 On ch=4 n=59 v=0
100320 Par ch=4 c=11 v=64
100320 On ch=4 n=58 v=47
100340 Par ch=4 c=11 v=63
100356 Par ch=4 c=11 v=62
100372 Par ch=4 c=11 v=61
100388 Par ch=4 c=11 v=60
100408 Par ch=4 c=11 v=59
100424 Par ch=4 c=11 v=58
100440 Par ch=4 c=11 v=57
100456 Par ch=4 c=11 v=56
100476 Par ch=4 c=11 v=55
100492 Par ch=4 c=11 v=54
100508 Par ch=4 c=11 v=53
100524 Par ch=4 c=11 v=52
100544 Par ch=4 c=11 v=51
100550 On ch=4 n=58 v=0
100560 Par ch=4 c=11 v=50
100576 Par ch=4 c=11 v=49
100592 Par ch=4 c=11 v=48
100992 Par ch=4 c=11 v=64
105984 Par ch=4 c=11 v=64
105984 On ch=4 n=68 v=47
105992 Par ch=4 c=11 v=65
106000 Par ch=4 c=11 v=66
106008 Par ch=4 c=11 v=67
106016 Par ch=4 c=11 v=68
106024 Par ch=4 c=11 v=69
106032 Par ch=4 c=11 v=70
106040 Par ch=4 c=11 v=71
106048 Par ch=4 c=11 v=72
106056 Par ch=4 c=11 v=73
106061 On ch=4 n=68 v=0
106064 Par ch=4 c=11 v=74
106072 Par ch=4 c=11 v=75
106080 Par ch=4 c=11 v=76
106080 On ch=4 n=73 v=47
106088 Par ch=4 c=11 v=77
106096 Par ch=4 c=11 v=78
106104 Par ch=4 c=11 v=79
106112 Par ch=4 c=11 v=80
106120 Par ch=4 c=11 v=81
106128 Par ch=4 c=11 v=82
106136 Par ch=4 c=11 v=83
106144 Par ch=4 c=11 v=84
106152 Par ch=4 c=11 v=85
106157 On ch=4 n=73 v=0
106160 Par ch=4 c=11 v=86
106168 Par ch=4 c=11 v=87
106176 Par ch=4 c=11 v=88
106176 On ch=4 n=72 v=47
106180 Par ch=4 c=11 v=89
106188 Par ch=4 c=11 v=90
106196 Par ch=4 c=11 v=91
106204 Par ch=4 c=11 v=92
106212 Par ch=4 c=11 v=93
106220 Par ch=4 c=11 v=94
106228 Par ch=4 c=11 v=95
106236 Par ch=4 c=11 v=96
106244 Par ch=4 c=11 v=97
106252 Par ch=4 c=11 v=98
106253 On ch=4 n=72 v=0
106260 Par ch=4 c=11 v=99
106268 Par ch=4 c=11 v=100
106272 On ch=4 n=70 v=47
106276 Par ch=4 c=11 v=101
106284 Par ch=4 c=11 v=102
106292 Par ch=4 c=11 v=103
106300 Par ch=4 c=11 v=104
106308 Par ch=4 c=11 v=105
106316 Par ch=4 c=11 v=106
106324 Par ch=4 c=11 v=107
106332 Par ch=4 c=11 v=108
106340 Par ch=4 c=11 v=109
106348 Par ch=4 c=11 v=110
106349 On ch=4 n=70 v=0
106356 Par ch=4 c=11 v=111
106364 Par ch=4 c=11 v=112
106368 Par ch=4 c=11 v=64
106368 On ch=4 n=69 v=95
106522 On ch=4 n=69 v=0
106752 Par ch=4 c=0 v=0
106752 Par ch=4 c=32 v=0
106752 PrCh ch=4 p=68
107520 On ch=4 n=70 v=111
107674 On ch=4 n=70 v=0
107776 On ch=4 n=70 v=111
107797 On ch=4 n=70 v=0
107808 On ch=4 n=71 v=111
107829 On ch=4 n=71 v=0
107840 On ch=4 n=70 v=111
107861 On ch=4 n=70 v=0
107872 On ch=4 n=68 v=111
107893 On ch=4 n=68 v=0
107904 On ch=4 n=70 v=127
107935 On ch=4 n=70 v=0
107976 On ch=4 n=73 v=127
107992 On ch=4 n=73 v=0
108000 On ch=4 n=78 v=127
108154 On ch=4 n=78 v=0
108960 Par ch=4 c=11 v=64
108960 On ch=4 n=77 v=47
108972 Par ch=4 c=11 v=65
108980 Par ch=4 c=11 v=66
108992 Par ch=4 c=11 v=67
109000 Par ch=4 c=11 v=68
109012 Par ch=4 c=11 v=69
109020 Par ch=4 c=11 v=70
109032 Par ch=4 c=11 v=71
109037 On ch=4 n=77 v=0
109040 Par ch=4 c=11 v=72
109052 Par ch=4 c=11 v=73
109056 On ch=4 n=79 v=47
109060 Par ch=4 c=11 v=74
109068 Par ch=4 c=11 v=75
109080 Par ch=4 c=11 v=76
109088 Par ch=4 c=11 v=77
109100 Par ch=4 c=11 v=78
109108 Par ch=4 c=11 v=79
109120 Par ch=4 c=11 v=80
109128 Par ch=4 c=11 v=81
109133 On ch=4 n=79 v=0
109140 Par ch=4 c=11 v=82
109148 Par ch=4 c=11 v=83
109152 On ch=4 n=82 v=47
109156 Par ch=4 c=11 v=84
109168 Par ch=4 c=11 v=85
109176 Par ch=4 c=11 v=86
109188 Par ch=4 c=11 v=87
109196 Par ch=4 c=11 v=88
109208 Par ch=4 c=11 v=89
109216 Par ch=4 c=11 v=90
109228 Par ch=4 c=11 v=91
109229 On ch=4 n=82 v=0
109236 Par ch=4 c=11 v=92
109248 Par ch=4 c=11 v=93
109248 On ch=4 n=87 v=47
109256 Par ch=4 c=11 v=94
109264 Par ch=4 c=11 v=95
109276 Par ch=4 c=11 v=96
109284 Par ch=4 c=11 v=97
109296 Par ch=4 c=11 v=98
109304 Par ch=4 c=11 v=99
109316 Par ch=4 c=11 v=100
109324 Par ch=4 c=11 v=101
109325 On ch=4 n=87 v=0
109336 Par ch=4 c=11 v=102
109344 Par ch=4 c=11 v=103
109344 On ch=4 n=86 v=47
109352 Par ch=4 c=11 v=104
109364 Par ch=4 c=11 v=105
109372 Par ch=4 c=11 v=106
109375 On ch=4 n=86 v=0
109384 Par ch=4 c=11 v=107
109392 Par ch=4 c=11 v=108
109404 Par ch=4 c=11 v=109
109412 Par ch=4 c=11 v=110
109416 On ch=4 n=84 v=47
109424 Par ch=4 c=11 v=111
109432 On ch=4 n=84 v=0
109432 Par ch=4 c=11 v=112
109440 On ch=4 n=82 v=47
109747 On ch=4 n=82 v=0
109824 Par ch=4 c=11 v=64
109824 On ch=4 n=82 v=111
109978 On ch=4 n=82 v=0
110016 On ch=4 n=75 v=111
110285 On ch=4 n=75 v=0
110304 On ch=4 n=77 v=111
110381 On ch=4 n=77 v=0
110400 On ch=4 n=79 v=111
110477 On ch=4 n=79 v=0
110496 On ch=4 n=80 v=111
110573 On ch=4 n=80 v=0
110592 Par ch=4 c=11 v=64
110592 On ch=4 n=82 v=47
110600 Par ch=4 c=11 v=65
110608 Par ch=4 c=11 v=66
110612 Par ch=4 c=11 v=67
110620 Par ch=4 c=11 v=68
110624 Par ch=4 c=11 v=69
110632 Par ch=4 c=11 v=70
110636 Par ch=4 c=11 v=71
110644 Par ch=4 c=11 v=72
110648 Par ch=4 c=11 v=73
110656 Par ch=4 c=11 v=74
110660 Par ch=4 c=11 v=75
110668 Par ch=4 c=11 v=76
110672 Par ch=4 c=11 v=77
110680 Par ch=4 c=11 v=78
110684 Par ch=4 c=11 v=79
110692 Par ch=4 c=11 v=80
110696 Par ch=4 c=11 v=81
110704 Par ch=4 c=11 v=82
110708 Par ch=4 c=11 v=83
110716 Par ch=4 c=11 v=84
110720 Par ch=4 c=11 v=85
110728 Par ch=4 c=11 v=86
110736 Par ch=4 c=11 v=87
110740 Par ch=4 c=11 v=88
110748 Par ch=4 c=11 v=89
110752 Par ch=4 c=11 v=90
110760 Par ch=4 c=11 v=91
110764 Par ch=4 c=11 v=92
110772 Par ch=4 c=11 v=93
110776 Par ch=4 c=11 v=94
110784 Par ch=4 c=11 v=95
110788 Par ch=4 c=11 v=96
110796 Par ch=4 c=11 v=97
110800 Par ch=4 c=11 v=98
110808 Par ch=4 c=11 v=99
110812 Par ch=4 c=11 v=100
110820 Par ch=4 c=11 v=101
110824 Par ch=4 c=11 v=102
110832 Par ch=4 c=11 v=103
110836 Par ch=4 c=11 v=104
110844 Par ch=4 c=11 v=105
110848 Par ch=4 c=11 v=106
110856 Par ch=4 c=11 v=107
110864 Par ch=4 c=11 v=108
110868 Par ch=4 c=11 v=109
110876 Par ch=4 c=11 v=110
110880 Par ch=4 c=11 v=111
110888 Par ch=4 c=11 v=112
110892 Par ch=4 c=11 v=113
110900 Par ch=4 c=11 v=114
110904 Par ch=4 c=11 v=115
110912 Par ch=4 c=11 v=116
110916 Par ch=4 c=11 v=117
110924 Par ch=4 c=11 v=118
110928 Par ch=4 c=11 v=119
110936 Par ch=4 c=11 v=120
110940 Par ch=4 c=11 v=121
110948 Par ch=4 c=11 v=122
110952 Par ch=4 c=11 v=123
110960 Par ch=4 c=11 v=124
110964 Par ch=4 c=11 v=125
110972 Par ch=4 c=11 v=126
111053 On ch=4 n=82 v=0
111072 Par ch=4 c=11 v=64
111072 On ch=4 n=68 v=111
111110 On ch=4 n=68 v=0
111120 On ch=4 n=66 v=111
111158 On ch=4 n=66 v=0
111168 On ch=4 n=65 v=111
111245 On ch=4 n=65 v=0
111264 On ch=4 n=63 v=111
111341 On ch=4 n=63 v=0
111360 On ch=4 n=71 v=111
111412 Par ch=4 c=11 v=16
111416 Par ch=4 c=11 v=17
111420 Par ch=4 c=11 v=19
111424 Par ch=4 c=11 v=20
111428 Par ch=4 c=11 v=21
111432 Par ch=4 c=11 v=23
111436 Par ch=4 c=11 v=24
111440 Par ch=4 c=11 v=26
111444 Par ch=4 c=11 v=27
111448 Par ch=4 c=11 v=28
111452 Par ch=4 c=11 v=30
111456 Par ch=4 c=11 v=31
111460 Par ch=4 c=11 v=33
111464 Par ch=4 c=11 v=34
111468 Par ch=4 c=11 v=35
111472 Par ch=4 c=11 v=37
111476 Par ch=4 c=11 v=38
111480 Par ch=4 c=11 v=40
111484 Par ch=4 c=11 v=41
111488 Par ch=4 c=11 v=42
111492 Par ch=4 c=11 v=44
111496 Par ch=4 c=11 v=45
111500 Par ch=4 c=11 v=46
111504 Par ch=4 c=11 v=48
111508 Par ch=4 c=11 v=49
111512 Par ch=4 c=11 v=51
111516 Par ch=4 c=11 v=52
111520 Par ch=4 c=11 v=53
111524 Par ch=4 c=11 v=55
111528 Par ch=4 c=11 v=56
111532 Par ch=4 c=11 v=58
111536 Par ch=4 c=11 v=59
111540 Par ch=4 c=11 v=60
111544 Par ch=4 c=11 v=62
111548 Par ch=4 c=11 v=63
111552 Par ch=4 c=11 v=64
111590 On ch=4 n=71 v=0
111600 On ch=4 n=75 v=111
111638 On ch=4 n=75 v=0
111648 On ch=4 n=73 v=111
111686 On ch=4 n=73 v=0
111696 On ch=4 n=71 v=111
111734 On ch=4 n=71 v=0
111744 On ch=4 n=75 v=111
112051 On ch=4 n=75 v=0
112224 On ch=4 n=78 v=111
112245 On ch=4 n=78 v=0
112256 On ch=4 n=77 v=111
112277 On ch=4 n=77 v=0
112288 On ch=4 n=75 v=111
112309 On ch=4 n=75 v=0
112320 On ch=4 n=75 v=111
112341 On ch=4 n=75 v=0
112352 On ch=4 n=73 v=111
112373 On ch=4 n=73 v=0
112384 On ch=4 n=71 v=111
112405 On ch=4 n=71 v=0
112512 On ch=4 n=75 v=111
112819 On ch=4 n=75 v=0
112992 On ch=4 n=78 v=111
113018 On ch=4 n=78 v=0
113024 On ch=4 n=77 v=111
113050 On ch=4 n=77 v=0
113056 On ch=4 n=75 v=111
113082 On ch=4 n=75 v=0
113088 On ch=4 n=75 v=111
113114 On ch=4 n=75 v=0
113120 On ch=4 n=73 v=111
113146 On ch=4 n=73 v=0
113152 On ch=4 n=71 v=111
113178 On ch=4 n=71 v=0
113280 On ch=4 n=76 v=127
113376 On ch=4 n=76 v=0
113376 On ch=4 n=74 v=127
113472 On ch=4 n=74 v=0
113472 On ch=4 n=75 v=127
113568 On ch=4 n=75 v=0
113568 On ch=4 n=74 v=127
113645 On ch=4 n=74 v=0
113664 Par ch=4 c=11 v=64
113664 On ch=4 n=77 v=127
113688 Par ch=4 c=11 v=65
113712 Par ch=4 c=11 v=66
113732 Par ch=4 c=11 v=67
113756 Par ch=4 c=11 v=68
113760 On ch=4 n=77 v=0
113760 On ch=4 n=76 v=127
113780 Par ch=4 c=11 v=69
113800 Par ch=4 c=11 v=70
113824 Par ch=4 c=11 v=71
113848 Par ch=4 c=11 v=72
113856 On ch=4 n=76 v=0
113856 On ch=4 n=77 v=127
113868 Par ch=4 c=11 v=73
113892 Par ch=4 c=11 v=74
113916 Par ch=4 c=11 v=75
113936 Par ch=4 c=11 v=76
113952 On ch=4 n=77 v=0
113952 On ch=4 n=76 v=127
113960 Par ch=4 c=11 v=77
113984 Par ch=4 c=11 v=78
114004 Par ch=4 c=11 v=79
114028 Par ch=4 c=11 v=80
114048 On ch=4 n=76 v=0
114048 Par ch=4 c=11 v=64
114048 On ch=4 n=75 v=111
114144 On ch=4 n=75 v=0
114144 On ch=4 n=74 v=111
114288 On ch=4 n=74 v=0
114288 On ch=4 n=78 v=111
114336 On ch=4 n=78 v=0
114336 On ch=4 n=77 v=111
114384 On ch=4 n=77 v=0
114384 On ch=4 n=68 v=111
114432 On ch=4 n=68 v=0
114432 On ch=4 n=68 v=111
114480 On ch=4 n=68 v=0
114480 On ch=4 n=67 v=111
114528 On ch=4 n=67 v=0
114528 On ch=4 n=77 v=111
114576 On ch=4 n=77 v=0
114576 On ch=4 n=75 v=111
114624 On ch=4 n=75 v=0
114624 On ch=4 n=66 v=111
114672 On ch=4 n=66 v=0
114672 On ch=4 n=74 v=111
114720 On ch=4 n=74 v=0
114720 On ch=4 n=73 v=111
114768 On ch=4 n=73 v=0
114768 On ch=4 n=65 v=111
114816 On ch=4 n=65 v=0
114816 On ch=4 n=65 v=111
114864 On ch=4 n=65 v=0
114864 On ch=4 n=64 v=111
114912 On ch=4 n=64 v=0
114912 On ch=4 n=72 v=111
114960 On ch=4 n=72 v=0
114960 On ch=4 n=71 v=111
115008 On ch=4 n=71 v=0
115008 On ch=4 n=63 v=111
115056 On ch=4 n=63 v=0
115056 On ch=4 n=62 v=111
115104 On ch=4 n=62 v=0
115104 On ch=4 n=70 v=111
115152 On ch=4 n=70 v=0
115152 On ch=4 n=69 v=111
115200 On ch=4 n=69 v=0
115200 Par ch=4 c=11 v=64
115200 On ch=4 n=68 v=111
115212 Par ch=4 c=11 v=63
115224 Par ch=4 c=11 v=62
115236 Par ch=4 c=11 v=61
115248 Par ch=4 c=11 v=60
115260 Par ch=4 c=11 v=59
115268 Par ch=4 c=11 v=58
115280 Par ch=4 c=11 v=57
115292 Par ch=4 c=11 v=56
115304 Par ch=4 c=11 v=55
115316 Par ch=4 c=11 v=54
115328 Par ch=4 c=11 v=53
115336 Par ch=4 c=11 v=52
115348 Par ch=4 c=11 v=51
115360 Par ch=4 c=11 v=50
115372 Par ch=4 c=11 v=49
115384 Par ch=4 c=11 v=48
115392 On ch=4 n=68 v=0
115392 Par ch=4 c=11 v=47
115392 On ch=4 n=66 v=111
115404 Par ch=4 c=11 v=46
115416 Par ch=4 c=11 v=45
115428 Par ch=4 c=11 v=44
115440 Par ch=4 c=11 v=43
115452 Par ch=4 c=11 v=42
115460 Par ch=4 c=11 v=41
115472 Par ch=4 c=11 v=40
115484 Par ch=4 c=11 v=39
115496 Par ch=4 c=11 v=38
115508 Par ch=4 c=11 v=37
115520 Par ch=4 c=11 v=36
115528 Par ch=4 c=11 v=35
115540 Par ch=4 c=11 v=34
115552 Par ch=4 c=11 v=33
115564 Par ch=4 c=11 v=32
115584 Par ch=4 c=11 v=32
115596 Par ch=4 c=11 v=33
115608 Par ch=4 c=11 v=34
115620 Par ch=4 c=11 v=35
115632 Par ch=4 c=11 v=36
115644 Par ch=4 c=11 v=37
115656 Par ch=4 c=11 v=38
115660 On ch=4 n=66 v=0
115668 Par ch=4 c=11 v=39
115680 Par ch=4 c=11 v=40
115680 On ch=4 n=64 v=111
115692 Par ch=4 c=11 v=41
115704 Par ch=4 c=11 v=42
115712 Par ch=4 c=11 v=43
115724 Par ch=4 c=11 v=44
115736 Par ch=4 c=11 v=45
115748 Par ch=4 c=11 v=46
115756 On ch=4 n=64 v=0
115760 Par ch=4 c=11 v=47
115772 Par ch=4 c=11 v=48
115776 On ch=4 n=63 v=111
115784 Par ch=4 c=11 v=49
115796 Par ch=4 c=11 v=50
115808 Par ch=4 c=11 v=51
115820 Par ch=4 c=11 v=52
115832 Par ch=4 c=11 v=53
115840 Par ch=4 c=11 v=54
115852 On ch=4 n=63 v=0
115852 Par ch=4 c=11 v=55
115864 Par ch=4 c=11 v=56
115872 On ch=4 n=62 v=111
115876 Par ch=4 c=11 v=57
115888 Par ch=4 c=11 v=58
115900 Par ch=4 c=11 v=59
115912 Par ch=4 c=11 v=60
115924 Par ch=4 c=11 v=61
115936 Par ch=4 c=11 v=62
115948 On ch=4 n=62 v=0
115948 Par ch=4 c=11 v=63
115960 Par ch=4 c=11 v=64
115968 On ch=4 n=68 v=111
116160 On ch=4 n=68 v=0
116160 On ch=4 n=66 v=111
116428 On ch=4 n=66 v=0
116448 Par ch=4 c=11 v=64
116448 On ch=4 n=65 v=111
116468 Par ch=4 c=11 v=63
116484 Par ch=4 c=11 v=62
116500 Par ch=4 c=11 v=61
116516 Par ch=4 c=11 v=60
116524 On ch=4 n=65 v=0
116536 Par ch=4 c=11 v=59
116544 On ch=4 n=64 v=111
116552 Par ch=4 c=11 v=58
116568 Par ch=4 c=11 v=57
116584 Par ch=4 c=11 v=56
116604 Par ch=4 c=11 v=55
116620 On ch=4 n=64 v=0
116620 Par ch=4 c=11 v=54
116636 Par ch=4 c=11 v=53
116640 On ch=4 n=63 v=111
116652 Par ch=4 c=11 v=52
116672 Par ch=4 c=11 v=51
116688 Par ch=4 c=11 v=50
116704 Par ch=4 c=11 v=49
116716 On ch=4 n=63 v=0
116720 Par ch=4 c=11 v=48
116736 Par ch=4 c=11 v=64
116736 On ch=4 n=63 v=79
116784 Par ch=4 c=11 v=63
116828 Par ch=4 c=11 v=62
116872 Par ch=4 c=11 v=61
116920 Par ch=4 c=11 v=60
116964 Par ch=4 c=11 v=59
117008 Par ch=4 c=11 v=58
117056 Par ch=4 c=11 v=57
117100 Par ch=4 c=11 v=56
117144 Par ch=4 c=11 v=55
117188 Par ch=4 c=11 v=54
117236 Par ch=4 c=11 v=53
117280 Par ch=4 c=11 v=52
117324 Par ch=4 c=11 v=51
117372 Par ch=4 c=11 v=50
117416 Par ch=4 c=11 v=49
117427 On ch=4 n=63 v=0
117460 Par ch=4 c=11 v=48
117760 Par ch=4 c=11 v=64
117760 On ch=4 n=78 v=127
117781 On ch=4 n=78 v=0
117792 On ch=4 n=80 v=127
117813 On ch=4 n=80 v=0
117824 On ch=4 n=78 v=127
117845 On ch=4 n=78 v=0
117856 On ch=4 n=77 v=127
117877 On ch=4 n=77 v=0
117888 On ch=4 n=78 v=127
117926 On ch=4 n=78 v=0
117960 On ch=4 n=75 v=127
117979 On ch=4 n=75 v=0
117984 On ch=4 n=66 v=127
118022 On ch=4 n=66 v=0
118176 On ch=4 n=65 v=127
118202 On ch=4 n=65 v=0
118208 On ch=4 n=66 v=127
118234 On ch=4 n=66 v=0
118240 On ch=4 n=68 v=127
118266 On ch=4 n=68 v=0
118272 On ch=4 n=70 v=127
118368 On ch=4 n=70 v=0
118368 On ch=4 n=66 v=127
118399 On ch=4 n=66 v=0
118440 On ch=4 n=68 v=127
118456 On ch=4 n=68 v=0
118464 On ch=4 n=70 v=127
118560 On ch=4 n=70 v=0
118560 On ch=4 n=73 v=127
118591 On ch=4 n=73 v=0
118632 On ch=4 n=71 v=127
118648 On ch=4 n=71 v=0
118656 On ch=4 n=70 v=127
118733 On ch=4 n=70 v=0
118752 On ch=4 n=63 v=127
118829 On ch=4 n=63 v=0
118944 On ch=4 n=73 v=127
118982 On ch=4 n=73 v=0
119016 On ch=4 n=71 v=127
119035 On ch=4 n=71 v=0
119040 On ch=4 n=70 v=127
119117 On ch=4 n=70 v=0
119136 On ch=4 n=75 v=127
119213 On ch=4 n=75 v=0
120480 On ch=4 n=77 v=111
120518 On ch=4 n=77 v=0
120552 On ch=4 n=75 v=111
120568 On ch=4 n=75 v=0
120576 On ch=4 n=73 v=111
120607 On ch=4 n=73 v=0
120648 On ch=4 n=68 v=111
120672 On ch=4 n=68 v=0
120672 On ch=4 n=77 v=111
120703 On ch=4 n=77 v=0
120744 On ch=4 n=75 v=111
120760 On ch=4 n=75 v=0
120768 On ch=4 n=73 v=111
120799 On ch=4 n=73 v=0
120840 On ch=4 n=71 v=111
120864 On ch=4 n=71 v=0
120864 On ch=4 n=81 v=111
120895 On ch=4 n=81 v=0
120936 On ch=4 n=79 v=111
120952 On ch=4 n=79 v=0
120960 On ch=4 n=78 v=111
120991 On ch=4 n=78 v=0
121032 On ch=4 n=72 v=111
121056 On ch=4 n=72 v=0
121056 On ch=4 n=81 v=111
121087 On ch=4 n=81 v=0
121128 On ch=4 n=79 v=111
121144 On ch=4 n=79 v=0
121152 On ch=4 n=78 v=111
121183 On ch=4 n=78 v=0
121224 On ch=4 n=72 v=127
121248 On ch=4 n=72 v=0
121248 On ch=4 n=75 v=127
121279 On ch=4 n=75 v=0
121320 On ch=4 n=74 v=127
121336 On ch=4 n=74 v=0
121344 On ch=4 n=73 v=127
121375 On ch=4 n=73 v=0
121416 On ch=4 n=72 v=127
121432 On ch=4 n=72 v=0
121440 On ch=4 n=71 v=127
121471 On ch=4 n=71 v=0
121512 On ch=4 n=70 v=127
121528 On ch=4 n=70 v=0
121536 On ch=4 n=69 v=127
121567 On ch=4 n=69 v=0
121608 On ch=4 n=68 v=127
121624 On ch=4 n=68 v=0
121632 On ch=4 n=67 v=127
121663 On ch=4 n=67 v=0
121704 On ch=4 n=66 v=127
121720 On ch=4 n=66 v=0
121728 On ch=4 n=71 v=127
121759 On ch=4 n=71 v=0
121800 On ch=4 n=70 v=127
121816 On ch=4 n=70 v=0
121824 On ch=4 n=69 v=127
121855 On ch=4 n=69 v=0
121896 On ch=4 n=68 v=127
121912 On ch=4 n=68 v=0
121920 On ch=4 n=67 v=127
121951 On ch=4 n=67 v=0
121992 On ch=4 n=66 v=127
122008 On ch=4 n=66 v=0
122016 On ch=4 n=65 v=127
122047 On ch=4 n=65 v=0
122088 On ch=4 n=64 v=127
122104 On ch=4 n=64 v=0
122112 On ch=4 n=81 v=127
122133 On ch=4 n=81 v=0
122144 On ch=4 n=80 v=127
122165 On ch=4 n=80 v=0
122176 On ch=4 n=79 v=127
122197 On ch=4 n=79 v=0
122208 On ch=4 n=78 v=127
122229 On ch=4 n=78 v=0
122240 On ch=4 n=77 v=127
122261 On ch=4 n=77 v=0
122272 On ch=4 n=76 v=127
122293 On ch=4 n=76 v=0
122304 On ch=4 n=75 v=127
122325 On ch=4 n=75 v=0
122336 On ch=4 n=74 v=127
122357 On ch=4 n=74 v=0
122368 On ch=4 n=73 v=127
122389 On ch=4 n=73 v=0
122400 On ch=4 n=72 v=127
122421 On ch=4 n=72 v=0
122432 On ch=4 n=71 v=127
122453 On ch=4 n=71 v=0
122464 On ch=4 n=70 v=127
122485 On ch=4 n=70 v=0
122496 On ch=4 n=69 v=127
122528 On ch=4 n=69 v=0
122528 On ch=4 n=68 v=127
122560 On ch=4 n=68 v=0
122560 On ch=4 n=67 v=127
122592 On ch=4 n=67 v=0
122592 On ch=4 n=66 v=127
122624 On ch=4 n=66 v=0
122624 On ch=4 n=65 v=127
122656 On ch=4 n=65 v=0
122656 On ch=4 n=64 v=127
122688 On ch=4 n=64 v=0
122688 On ch=4 n=63 v=127
122720 On ch=4 n=63 v=0
122720 On ch=4 n=62 v=127
122752 On ch=4 n=62 v=0
122752 On ch=4 n=61 v=127
122784 On ch=4 n=61 v=0
122784 On ch=4 n=60 v=127
122822 On ch=4 n=60 v=0
123264 On ch=4 n=67 v=100
123267 On ch=4 n=72 v=100
123270 On ch=4 n=75 v=100
123276 On ch=4 n=67 v=0
123279 On ch=4 n=72 v=0
123286 On ch=4 n=75 v=0
123360 On ch=4 n=79 v=100
123363 On ch=4 n=84 v=100
123366 On ch=4 n=87 v=100
123372 On ch=4 n=79 v=0
123375 On ch=4 n=84 v=0
123382 On ch=4 n=87 v=0
124032 On ch=4 n=67 v=100
124035 On ch=4 n=70 v=100
124038 On ch=4 n=73 v=100
124044 On ch=4 n=67 v=0
124047 On ch=4 n=70 v=0
124054 On ch=4 n=73 v=0
124128 On ch=4 n=79 v=100
124131 On ch=4 n=82 v=100
124134 On ch=4 n=85 v=100
124140 On ch=4 n=79 v=0
124143 On ch=4 n=82 v=0
124150 On ch=4 n=85 v=0
125952 Par ch=4 c=11 v=64
125952 On ch=4 n=79 v=100
125960 On ch=4 n=79 v=0
125960 On ch=4 n=80 v=100
125968 On ch=4 n=80 v=0
125968 On ch=4 n=79 v=100
125976 On ch=4 n=79 v=0
125976 Par ch=4 c=11 v=65
125976 On ch=4 n=80 v=100
125984 On ch=4 n=80 v=0
125984 On ch=4 n=79 v=100
125992 On ch=4 n=79 v=0
125992 On ch=4 n=80 v=100
126000 On ch=4 n=80 v=0
126000 Par ch=4 c=11 v=66
126000 On ch=4 n=79 v=100
126008 On ch=4 n=79 v=0
126008 On ch=4 n=80 v=100
126016 On ch=4 n=80 v=0
126016 On ch=4 n=79 v=100
126020 Par ch=4 c=11 v=67
126024 On ch=4 n=79 v=0
126024 On ch=4 n=80 v=100
126032 On ch=4 n=80 v=0
126032 On ch=4 n=79 v=100
126040 On ch=4 n=79 v=0
126040 On ch=4 n=80 v=100
126044 Par ch=4 c=11 v=68
126048 On ch=4 n=80 v=0
126048 On ch=4 n=79 v=100
126056 On ch=4 n=79 v=0
126056 On ch=4 n=80 v=100
126064 On ch=4 n=80 v=0
126064 On ch=4 n=79 v=100
126068 Par ch=4 c=11 v=69
126072 On ch=4 n=79 v=0
126072 On ch=4 n=80 v=100
126080 On ch=4 n=80 v=0
126080 On ch=4 n=79 v=100
126088 On ch=4 n=79 v=0
126088 Par ch=4 c=11 v=70
126088 On ch=4 n=80 v=100
126096 On ch=4 n=80 v=0
126096 On ch=4 n=79 v=100
126104 On ch=4 n=79 v=0
126104 On ch=4 n=80 v=100
126112 On ch=4 n=80 v=0
126112 Par ch=4 c=11 v=71
126112 On ch=4 n=79 v=100
126120 On ch=4 n=79 v=0
126120 On ch=4 n=80 v=100
126128 On ch=4 n=80 v=0
126128 On ch=4 n=79 v=100
126136 On ch=4 n=79 v=0
126136 Par ch=4 c=11 v=72
126136 On ch=4 n=80 v=100
126144 On ch=4 n=80 v=0
126144 On ch=4 n=79 v=100
126152 On ch=4 n=79 v=0
126152 On ch=4 n=80 v=100
126156 Par ch=4 c=11 v=73
126160 On ch=4 n=80 v=0
126160 On ch=4 n=79 v=100
126168 On ch=4 n=79 v=0
126168 On ch=4 n=80 v=100
126176 On ch=4 n=80 v=0
126176 On ch=4 n=79 v=100
126180 Par ch=4 c=11 v=74
126184 On ch=4 n=79 v=0
126184 On ch=4 n=80 v=100
126192 On ch=4 n=80 v=0
126192 On ch=4 n=79 v=100
126200 On ch=4 n=79 v=0
126200 On ch=4 n=80 v=100
126204 Par ch=4 c=11 v=75
126208 On ch=4 n=80 v=0
126208 On ch=4 n=79 v=100
126216 On ch=4 n=79 v=0
126216 On ch=4 n=80 v=100
126224 On ch=4 n=80 v=0
126224 Par ch=4 c=11 v=76
126224 On ch=4 n=79 v=100
126232 On ch=4 n=79 v=0
126232 On ch=4 n=80 v=100
126240 On ch=4 n=80 v=0
126240 On ch=4 n=79 v=100
126248 On ch=4 n=79 v=0
126248 Par ch=4 c=11 v=77
126248 On ch=4 n=80 v=100
126256 On ch=4 n=80 v=0
126256 On ch=4 n=79 v=100
126264 On ch=4 n=79 v=0
126264 On ch=4 n=80 v=100
126272 On ch=4 n=80 v=0
126272 Par ch=4 c=11 v=78
126272 On ch=4 n=79 v=100
126280 On ch=4 n=79 v=0
126280 On ch=4 n=80 v=100
126288 On ch=4 n=80 v=0
126288 On ch=4 n=79 v=100
126292 Par ch=4 c=11 v=79
126296 On ch=4 n=79 v=0
126296 On ch=4 n=80 v=100
126304 On ch=4 n=80 v=0
126304 On ch=4 n=79 v=100
126312 On ch=4 n=79 v=0
126312 On ch=4 n=78 v=100
126316 Par ch=4 c=11 v=80
126320 On ch=4 n=78 v=0
126320 On ch=4 n=79 v=100
126328 On ch=4 n=79 v=0
126336 Par ch=4 c=11 v=64
126336 On ch=4 n=84 v=100
126367 On ch=4 n=84 v=0
129024 Par ch=4 c=0 v=0
129024 Par ch=4 c=32 v=0
129024 PrCh ch=4 p=69
129024 On ch=4 n=60 v=31
129178 On ch=4 n=60 v=0
129216 On ch=4 n=55 v=31
129331 On ch=4 n=55 v=0
129360 On ch=4 n=55 v=31
129398 On ch=4 n=55 v=0
129408 On ch=4 n=60 v=31
129562 On ch=4 n=60 v=0
129664 On ch=4 n=60 v=31
129685 On ch=4 n=60 v=0
129696 On ch=4 n=62 v=31
129717 On ch=4 n=62 v=0
129728 On ch=4 n=60 v=31
129749 On ch=4 n=60 v=0
129760 On ch=4 n=59 v=31
129781 On ch=4 n=59 v=0
129792 On ch=4 n=60 v=31
129830 On ch=4 n=60 v=0
132096 On ch=4 n=63 v=47
132143 On ch=4 n=63 v=0
132168 On ch=4 n=65 v=47
132184 On ch=4 n=65 v=0
132192 On ch=4 n=67 v=47
132307 On ch=4 n=67 v=0
132336 On ch=4 n=65 v=47
132367 On ch=4 n=65 v=0
132384 On ch=4 n=63 v=47
132405 On ch=4 n=63 v=0
132416 On ch=4 n=62 v=47
132437 On ch=4 n=62 v=0
132448 On ch=4 n=60 v=47
132469 On ch=4 n=60 v=0
132480 On ch=4 n=56 v=47
132557 On ch=4 n=56 v=0
133152 On ch=4 n=68 v=47
133229 On ch=4 n=68 v=0
133248 Par ch=4 c=11 v=64
133248 On ch=4 n=67 v=47
133264 Par ch=4 c=11 v=65
133280 Par ch=4 c=11 v=66
133296 Par ch=4 c=11 v=67
133312 Par ch=4 c=11 v=68
133325 On ch=4 n=67 v=0
133328 Par ch=4 c=11 v=69
133344 Par ch=4 c=11 v=70
133344 On ch=4 n=62 v=47
133360 Par ch=4 c=11 v=71
133376 Par ch=4 c=11 v=72
133392 Par ch=4 c=11 v=73
133402 On ch=4 n=62 v=0
133408 Par ch=4 c=11 v=74
133416 On ch=4 n=63 v=47
133424 Par ch=4 c=11 v=75
133435 On ch=4 n=63 v=0
133440 Par ch=4 c=11 v=76
133440 On ch=4 n=65 v=47
133452 Par ch=4 c=11 v=77
133468 Par ch=4 c=11 v=78
133484 Par ch=4 c=11 v=79
133500 Par ch=4 c=11 v=80
133516 Par ch=4 c=11 v=81
133517 On ch=4 n=65 v=0
133532 Par ch=4 c=11 v=82
133536 On ch=4 n=68 v=47
133548 Par ch=4 c=11 v=83
133564 Par ch=4 c=11 v=84
133580 Par ch=4 c=11 v=85
133596 Par ch=4 c=11 v=86
133612 Par ch=4 c=11 v=87
133613 On ch=4 n=68 v=0
133628 Par ch=4 c=11 v=88
133632 On ch=4 n=67 v=47
133640 Par ch=4 c=11 v=89
133656 Par ch=4 c=11 v=90
133663 On ch=4 n=67 v=0
133672 Par ch=4 c=11 v=91
133688 Par ch=4 c=11 v=92
133704 Par ch=4 c=11 v=93
133720 Par ch=4 c=11 v=94
133728 On ch=4 n=75 v=47
133736 Par ch=4 c=11 v=95
133752 Par ch=4 c=11 v=96
133768 Par ch=4 c=11 v=97
133784 Par ch=4 c=11 v=98
133800 Par ch=4 c=11 v=99
133816 Par ch=4 c=11 v=100
133828 Par ch=4 c=11 v=101
133844 Par ch=4 c=11 v=102
133860 Par ch=4 c=11 v=103
133876 Par ch=4 c=11 v=104
133882 On ch=4 n=75 v=0
133892 Par ch=4 c=11 v=105
133908 Par ch=4 c=11 v=106
133920 On ch=4 n=74 v=47
133924 Par ch=4 c=11 v=107
133940 Par ch=4 c=11 v=108
133956 Par ch=4 c=11 v=109
133972 Par ch=4 c=11 v=110
133988 Par ch=4 c=11 v=111
133997 On ch=4 n=74 v=0
134004 Par ch=4 c=11 v=112
134016 Par ch=4 c=11 v=64
134016 On ch=4 n=72 v=95
134093 On ch=4 n=72 v=0
134112 On ch=4 n=63 v=95
134170 On ch=4 n=63 v=0
134184 On ch=4 n=65 v=95
134203 On ch=4 n=65 v=0
134208 On ch=4 n=67 v=95
134285 On ch=4 n=67 v=0
134304 On ch=4 n=70 v=95
134362 On ch=4 n=70 v=0
134376 On ch=4 n=68 v=95
134395 On ch=4 n=68 v=0
134400 On ch=4 n=67 v=95
134438 On ch=4 n=67 v=0
134496 On ch=4 n=60 v=95
134650 On ch=4 n=60 v=0
134688 On ch=4 n=62 v=95
134714 On ch=4 n=62 v=0
134720 On ch=4 n=63 v=95
134746 On ch=4 n=63 v=0
134752 On ch=4 n=65 v=95
134778 On ch=4 n=65 v=0
134784 On ch=4 n=67 v=95
134815 On ch=4 n=67 v=0
135424 Par ch=4 c=11 v=64
135424 On ch=4 n=60 v=95
135432 Par ch=4 c=11 v=65
135440 Par ch=4 c=11 v=66
135445 On ch=4 n=60 v=0
135448 Par ch=4 c=11 v=67
135456 Par ch=4 c=11 v=68
135456 On ch=4 n=67 v=95
135464 Par ch=4 c=11 v=69
135472 Par ch=4 c=11 v=70
135477 On ch=4 n=67 v=0
135480 Par ch=4 c=11 v=71
135488 Par ch=4 c=11 v=72
135488 On ch=4 n=70 v=95
135492 Par ch=4 c=11 v=73
135500 Par ch=4 c=11 v=74
135508 Par ch=4 c=11 v=75
135509 On ch=4 n=70 v=0
135516 Par ch=4 c=11 v=76
135520 On ch=4 n=73 v=95
135524 Par ch=4 c=11 v=77
135532 Par ch=4 c=11 v=78
135540 Par ch=4 c=11 v=79
135541 On ch=4 n=73 v=0
135548 Par ch=4 c=11 v=80
135552 Par ch=4 c=11 v=64
135552 On ch=4 n=72 v=111
135583 On ch=4 n=72 v=0
135624 On ch=4 n=70 v=111
135640 On ch=4 n=70 v=0
135648 On ch=4 n=68 v=111
135679 On ch=4 n=68 v=0
135720 On ch=4 n=67 v=111
135736 On ch=4 n=67 v=0
135744 On ch=4 n=65 v=111
135775 On ch=4 n=65 v=0
135816 On ch=4 n=63 v=111
135832 On ch=4 n=63 v=0
135840 On ch=4 n=61 v=111
135871 On ch=4 n=61 v=0
135912 On ch=4 n=60 v=111
135928 On ch=4 n=60 v=0
135936 On ch=4 n=68 v=111
135967 On ch=4 n=68 v=0
136008 On ch=4 n=67 v=111
136024 On ch=4 n=67 v=0
136032 On ch=4 n=65 v=111
136063 On ch=4 n=65 v=0
136104 On ch=4 n=63 v=111
136120 On ch=4 n=63 v=0
136128 On ch=4 n=61 v=111
136159 On ch=4 n=61 v=0
136200 On ch=4 n=60 v=111
136216 On ch=4 n=60 v=0
136224 On ch=4 n=58 v=111
136255 On ch=4 n=58 v=0
136296 On ch=4 n=56 v=111
136312 On ch=4 n=56 v=0
136320 On ch=4 n=55 v=111
136358 On ch=4 n=55 v=0
137088 On ch=4 n=67 v=111
137376 On ch=4 n=67 v=0
137376 On ch=4 n=63 v=111
137472 On ch=4 n=63 v=0
137472 Par ch=4 c=11 v=64
137472 On ch=4 n=62 v=111
137476 Par ch=4 c=11 v=62
137480 Par ch=4 c=11 v=60
137484 Par ch=4 c=11 v=58
137488 Par ch=4 c=11 v=56
137492 Par ch=4 c=11 v=54
137496 Par ch=4 c=11 v=52
137500 Par ch=4 c=11 v=50
137504 Par ch=4 c=11 v=48
137508 Par ch=4 c=11 v=46
137512 Par ch=4 c=11 v=44
137516 Par ch=4 c=11 v=42
137520 Par ch=4 c=11 v=40
137524 Par ch=4 c=11 v=38
137528 Par ch=4 c=11 v=36
137532 Par ch=4 c=11 v=34
137536 Par ch=4 c=11 v=32
137540 Par ch=4 c=11 v=30
137544 Par ch=4 c=11 v=28
137548 Par ch=4 c=11 v=26
137552 Par ch=4 c=11 v=24
137556 Par ch=4 c=11 v=22
137560 Par ch=4 c=11 v=20
137564 Par ch=4 c=11 v=18
137568 On ch=4 n=62 v=0
137568 On ch=4 n=60 v=111
137645 On ch=4 n=60 v=0
137856 Par ch=4 c=11 v=64
138240 On ch=4 n=70 v=47
138336 On ch=4 n=70 v=0
138336 On ch=4 n=68 v=47
138413 On ch=4 n=68 v=0
138624 On ch=4 n=70 v=47
138720 On ch=4 n=70 v=0
138720 On ch=4 n=68 v=47
138835 On ch=4 n=68 v=0
138864 Par ch=4 c=11 v=64
138864 On ch=4 n=67 v=47
138876 Par ch=4 c=11 v=63
138884 Par ch=4 c=11 v=62
138892 Par ch=4 c=11 v=61
138900 Par ch=4 c=11 v=60
138902 On ch=4 n=67 v=0
138908 Par ch=4 c=11 v=59
138912 On ch=4 n=68 v=47
138916 Par ch=4 c=11 v=58
138924 Par ch=4 c=11 v=57
138932 Par ch=4 c=11 v=56
138944 Par ch=4 c=11 v=55
138950 On ch=4 n=68 v=0
138952 Par ch=4 c=11 v=54
138960 Par ch=4 c=11 v=53
138960 On ch=4 n=70 v=47
138968 Par ch=4 c=11 v=52
138976 Par ch=4 c=11 v=51
138984 Par ch=4 c=11 v=50
138992 Par ch=4 c=11 v=49
138998 On ch=4 n=70 v=0
139000 Par ch=4 c=11 v=48
139008 On ch=4 n=71 v=47
139085 On ch=4 n=71 v=0
139392 Par ch=4 c=11 v=64
140544 Par ch=4 c=11 v=64
140544 On ch=4 n=64 v=15
140592 Par ch=4 c=11 v=63
140636 Par ch=4 c=11 v=62
140680 Par ch=4 c=11 v=61
140728 Par ch=4 c=11 v=60
140772 Par ch=4 c=11 v=59
140816 Par ch=4 c=11 v=58
140864 Par ch=4 c=11 v=57
140908 Par ch=4 c=11 v=56
140952 Par ch=4 c=11 v=55
140996 Par ch=4 c=11 v=54
141044 Par ch=4 c=11 v=53
141088 Par ch=4 c=11 v=52
141132 Par ch=4 c=11 v=51
141180 Par ch=4 c=11 v=50
141224 Par ch=4 c=11 v=49
141268 Par ch=4 c=11 v=48
141389 On ch=4 n=64 v=0
141696 Par ch=4 c=11 v=64
142080 On ch=4 n=59 v=47
142128 On ch=4 n=59 v=0
142128 On ch=4 n=73 v=47
142176 On ch=4 n=73 v=0
142176 Par ch=4 c=11 v=64
142176 On ch=4 n=71 v=47
142196 Par ch=4 c=11 v=63
142212 Par ch=4 c=11 v=62
142228 Par ch=4 c=11 v=61
142244 Par ch=4 c=11 v=60
142264 Par ch=4 c=11 v=59
142280 Par ch=4 c=11 v=58
142296 Par ch=4 c=11 v=57
142312 Par ch=4 c=11 v=56
142320 On ch=4 n=71 v=0
142320 On ch=4 n=68 v=47
142332 Par ch=4 c=11 v=55
142348 Par ch=4 c=11 v=54
142364 Par ch=4 c=11 v=53
142368 On ch=4 n=68 v=0
142368 On ch=4 n=66 v=47
142380 Par ch=4 c=11 v=52
142400 Par ch=4 c=11 v=51
142416 On ch=4 n=66 v=0
142416 Par ch=4 c=11 v=50
142416 On ch=4 n=63 v=47
142432 Par ch=4 c=11 v=49
142448 Par ch=4 c=11 v=48
142454 On ch=4 n=63 v=0
142464 On ch=4 n=59 v=47
142512 On ch=4 n=59 v=0
142512 On ch=4 n=73 v=47
142560 On ch=4 n=73 v=0
142560 Par ch=4 c=11 v=64
142560 On ch=4 n=71 v=47
142580 Par ch=4 c=11 v=63
142596 Par ch=4 c=11 v=62
142612 Par ch=4 c=11 v=61
142628 Par ch=4 c=11 v=60
142648 Par ch=4 c=11 v=59
142664 Par ch=4 c=11 v=58
142680 Par ch=4 c=11 v=57
142696 Par ch=4 c=11 v=56
142704 On ch=4 n=71 v=0
142704 On ch=4 n=68 v=47
142716 Par ch=4 c=11 v=55
142732 Par ch=4 c=11 v=54
142748 Par ch=4 c=11 v=53
142752 On ch=4 n=68 v=0
142752 On ch=4 n=66 v=47
142764 Par ch=4 c=11 v=52
142784 Par ch=4 c=11 v=51
142800 On ch=4 n=66 v=0
142800 Par ch=4 c=11 v=50
142800 On ch=4 n=63 v=47
142816 Par ch=4 c=11 v=49
142832 Par ch=4 c=11 v=48
142838 On ch=4 n=63 v=0
142848 On ch=4 n=59 v=47
142963 On ch=4 n=59 v=0
143136 Par ch=4 c=11 v=64
153984 On ch=4 n=63 v=31
154015 On ch=4 n=63 v=0
154080 On ch=4 n=63 v=31
154157 On ch=4 n=63 v=0
154368 On ch=4 n=63 v=31
154399 On ch=4 n=63 v=0
154464 On ch=4 n=61 v=31
154541 On ch=4 n=61 v=0
154752 On ch=4 n=61 v=31
154783 On ch=4 n=61 v=0
154848 On ch=4 n=60 v=31
154925 On ch=4 n=60 v=0
156672 Par ch=4 c=11 v=64
156672 On ch=4 n=62 v=47
156676 Par ch=4 c=11 v=65
156680 Par ch=4 c=11 v=66
156684 Par ch=4 c=11 v=68
156688 Par ch=4 c=11 v=69
156692 Par ch=4 c=11 v=71
156696 Par ch=4 c=11 v=72
156700 Par ch=4 c=11 v=73
156704 Par ch=4 c=11 v=75
156708 Par ch=4 c=11 v=76
156712 Par ch=4 c=11 v=78
156716 Par ch=4 c=11 v=79
156720 Par ch=4 c=11 v=79
156724 Par ch=4 c=11 v=78
156728 Par ch=4 c=11 v=77
156732 Par ch=4 c=11 v=76
156736 Par ch=4 c=11 v=74
156740 Par ch=4 c=11 v=73
156744 Par ch=4 c=11 v=72
156748 Par ch=4 c=11 v=71
156752 Par ch=4 c=11 v=69
156756 Par ch=4 c=11 v=68
156760 Par ch=4 c=11 v=67
156764 Par ch=4 c=11 v=66
156768 Par ch=4 c=11 v=64
156826 On ch=4 n=62 v=0
156864 Par ch=4 c=11 v=64
156864 On ch=4 n=65 v=47
156868 Par ch=4 c=11 v=65
156872 Par ch=4 c=11 v=66
156876 Par ch=4 c=11 v=68
156880 Par ch=4 c=11 v=69
156884 Par ch=4 c=11 v=71
156888 Par ch=4 c=11 v=72
156892 Par ch=4 c=11 v=73
156896 Par ch=4 c=11 v=75
156900 Par ch=4 c=11 v=76
156904 Par ch=4 c=11 v=78
156908 Par ch=4 c=11 v=79
156912 Par ch=4 c=11 v=79
156916 Par ch=4 c=11 v=78
156920 Par ch=4 c=11 v=77
156924 Par ch=4 c=11 v=76
156928 Par ch=4 c=11 v=74
156932 Par ch=4 c=11 v=73
156936 Par ch=4 c=11 v=72
156940 Par ch=4 c=11 v=71
156944 Par ch=4 c=11 v=69
156948 Par ch=4 c=11 v=68
156952 Par ch=4 c=11 v=67
156956 Par ch=4 c=11 v=66
156960 Par ch=4 c=11 v=64
156979 On ch=4 n=65 v=0
157008 On ch=4 n=63 v=47
157039 On ch=4 n=63 v=0
157056 On ch=4 n=62 v=47
157286 On ch=4 n=62 v=0
157344 On ch=4 n=68 v=47
157421 On ch=4 n=68 v=0
157440 On ch=4 n=67 v=47
157517 On ch=4 n=67 v=0
157536 On ch=4 n=62 v=47
157594 On ch=4 n=62 v=0
157608 On ch=4 n=63 v=47
157624 On ch=4 n=63 v=0
157632 On ch=4 n=65 v=47
157709 On ch=4 n=65 v=0
157728 On ch=4 n=68 v=47
157805 On ch=4 n=68 v=0
157824 On ch=4 n=67 v=47
157862 On ch=4 n=67 v=0
157920 On ch=4 n=75 v=47
158074 On ch=4 n=75 v=0
158112 On ch=4 n=74 v=47
158189 On ch=4 n=74 v=0
158208 Par ch=4 c=11 v=64
158208 On ch=4 n=73 v=47
158220 Par ch=4 c=11 v=65
158232 Par ch=4 c=11 v=66
158244 Par ch=4 c=11 v=67
158256 Par ch=4 c=11 v=68
158268 Par ch=4 c=11 v=69
158276 Par ch=4 c=11 v=70
158288 Par ch=4 c=11 v=71
158300 Par ch=4 c=11 v=72
158312 Par ch=4 c=11 v=73
158324 Par ch=4 c=11 v=74
158336 Par ch=4 c=11 v=75
158344 Par ch=4 c=11 v=76
158356 Par ch=4 c=11 v=77
158368 Par ch=4 c=11 v=78
158380 Par ch=4 c=11 v=79
158392 Par ch=4 c=11 v=80
158400 Par ch=4 c=11 v=80
158412 Par ch=4 c=11 v=79
158424 Par ch=4 c=11 v=78
158432 Par ch=4 c=11 v=77
158438 On ch=4 n=73 v=0
158444 Par ch=4 c=11 v=76
158456 Par ch=4 c=11 v=75
158464 Par ch=4 c=11 v=74
158476 Par ch=4 c=11 v=73
158488 Par ch=4 c=11 v=72
158496 Par ch=4 c=11 v=71
158496 On ch=4 n=72 v=47
158508 Par ch=4 c=11 v=70
158520 Par ch=4 c=11 v=69
158528 Par ch=4 c=11 v=68
158540 Par ch=4 c=11 v=67
158552 Par ch=4 c=11 v=66
158560 Par ch=4 c=11 v=65
158572 Par ch=4 c=11 v=64
158573 On ch=4 n=72 v=0
158592 Par ch=4 c=11 v=64
158592 On ch=4 n=70 v=47
158600 Par ch=4 c=11 v=65
158604 Par ch=4 c=11 v=66
158612 Par ch=4 c=11 v=67
158616 Par ch=4 c=11 v=68
158624 Par ch=4 c=11 v=69
158628 Par ch=4 c=11 v=70
158636 Par ch=4 c=11 v=71
158640 Par ch=4 c=11 v=72
158648 Par ch=4 c=11 v=73
158652 Par ch=4 c=11 v=74
158660 Par ch=4 c=11 v=75
158664 Par ch=4 c=11 v=76
158672 Par ch=4 c=11 v=77
158676 Par ch=4 c=11 v=78
158684 Par ch=4 c=11 v=79
158688 Par ch=4 c=11 v=80
158696 Par ch=4 c=11 v=81
158700 Par ch=4 c=11 v=82
158708 Par ch=4 c=11 v=83
158712 Par ch=4 c=11 v=84
158720 Par ch=4 c=11 v=85
158724 Par ch=4 c=11 v=86
158732 Par ch=4 c=11 v=87
158736 Par ch=4 c=11 v=88
158744 Par ch=4 c=11 v=89
158748 Par ch=4 c=11 v=90
158756 Par ch=4 c=11 v=91
158760 Par ch=4 c=11 v=92
158768 Par ch=4 c=11 v=93
158772 Par ch=4 c=11 v=94
158780 Par ch=4 c=11 v=95
158784 Par ch=4 c=11 v=96
158792 Par ch=4 c=11 v=97
158796 Par ch=4 c=11 v=98
158804 Par ch=4 c=11 v=99
158808 Par ch=4 c=11 v=100
158816 Par ch=4 c=11 v=101
158820 Par ch=4 c=11 v=102
158822 On ch=4 n=70 v=0
158828 Par ch=4 c=11 v=103
158832 Par ch=4 c=11 v=104
158840 Par ch=4 c=11 v=105
158844 Par ch=4 c=11 v=106
158852 Par ch=4 c=11 v=107
158856 Par ch=4 c=11 v=108
158864 Par ch=4 c=11 v=109
158868 Par ch=4 c=11 v=110
158876 Par ch=4 c=11 v=111
158880 Par ch=4 c=11 v=112
158880 On ch=4 n=68 v=47
158918 On ch=4 n=68 v=0
158928 On ch=4 n=67 v=47
158966 On ch=4 n=67 v=0
158976 Par ch=4 c=11 v=64
158976 On ch=4 n=66 v=95
159206 On ch=4 n=66 v=0
159264 On ch=4 n=65 v=95
159341 On ch=4 n=65 v=0
159360 Par ch=4 c=11 v=64
159360 On ch=4 n=63 v=95
159384 Par ch=4 c=11 v=65
159408 Par ch=4 c=11 v=66
159428 Par ch=4 c=11 v=67
159452 Par ch=4 c=11 v=68
159476 Par ch=4 c=11 v=69
159496 Par ch=4 c=11 v=70
159520 Par ch=4 c=11 v=71
159544 Par ch=4 c=11 v=72
159564 Par ch=4 c=11 v=73
159588 Par ch=4 c=11 v=74
159590 On ch=4 n=63 v=0
159612 Par ch=4 c=11 v=75
159632 Par ch=4 c=11 v=76
159648 On ch=4 n=62 v=95
159656 Par ch=4 c=11 v=77
159680 Par ch=4 c=11 v=78
159686 On ch=4 n=62 v=0
159696 On ch=4 n=60 v=95
159700 Par ch=4 c=11 v=79
159724 Par ch=4 c=11 v=80
159734 On ch=4 n=60 v=0
159744 Par ch=4 c=11 v=64
159744 On ch=4 n=59 v=111
160128 Par ch=4 c=11 v=64
160152 Par ch=4 c=11 v=65
160176 Par ch=4 c=11 v=66
160196 Par ch=4 c=11 v=67
160220 Par ch=4 c=11 v=68
160244 Par ch=4 c=11 v=69
160264 Par ch=4 c=11 v=70
160288 Par ch=4 c=11 v=71
160312 Par ch=4 c=11 v=72
160332 Par ch=4 c=11 v=73
160356 Par ch=4 c=11 v=74
160380 Par ch=4 c=11 v=75
160400 Par ch=4 c=11 v=76
160424 Par ch=4 c=11 v=77
160448 Par ch=4 c=11 v=78
160468 Par ch=4 c=11 v=79
160492 Par ch=4 c=11 v=80
160512 On ch=4 n=59 v=0
160512 On ch=4 n=60 v=111
160550 On ch=4 n=60 v=0
161280 Par ch=4 c=11 v=64
161280 On ch=4 n=67 v=47
161818 On ch=4 n=67 v=0
161856 Par ch=4 c=11 v=64
161856 On ch=4 n=63 v=47
161880 Par ch=4 c=11 v=63
161904 Par ch=4 c=11 v=62
161928 Par ch=4 c=11 v=61
161952 Par ch=4 c=11 v=60
161976 Par ch=4 c=11 v=59
162000 Par ch=4 c=11 v=58
162010 On ch=4 n=63 v=0
162024 Par ch=4 c=11 v=57
162048 Par ch=4 c=11 v=56
162048 On ch=4 n=60 v=47
162072 Par ch=4 c=11 v=55
162096 Par ch=4 c=11 v=54
162120 Par ch=4 c=11 v=53
162144 Par ch=4 c=11 v=52
162168 Par ch=4 c=11 v=51
162192 Par ch=4 c=11 v=50
162202 On ch=4 n=60 v=0
162216 Par ch=4 c=11 v=49
162240 Par ch=4 c=11 v=48
162240 On ch=4 n=55 v=47
162394 On ch=4 n=55 v=0
162816 Par ch=4 c=11 v=64
165216 Par ch=4 c=11 v=64
165216 On ch=4 n=61 v=111
165220 Par ch=4 c=11 v=63
165224 Par ch=4 c=11 v=62
165228 Par ch=4 c=11 v=61
165232 Par ch=4 c=11 v=60
165236 Par ch=4 c=11 v=59
165240 Par ch=4 c=11 v=58
165244 Par ch=4 c=11 v=57
165248 Par ch=4 c=11 v=56
165252 Par ch=4 c=11 v=55
165256 Par ch=4 c=11 v=54
165260 Par ch=4 c=11 v=53
165264 Par ch=4 c=11 v=52
165268 Par ch=4 c=11 v=51
165272 Par ch=4 c=11 v=50
165276 Par ch=4 c=11 v=49
165280 Par ch=4 c=11 v=48
165284 Par ch=4 c=11 v=47
165288 Par ch=4 c=11 v=46
165292 Par ch=4 c=11 v=45
165296 Par ch=4 c=11 v=44
165300 Par ch=4 c=11 v=43
165304 Par ch=4 c=11 v=42
165308 Par ch=4 c=11 v=41
165312 Par ch=4 c=11 v=40
165316 Par ch=4 c=11 v=39
165320 Par ch=4 c=11 v=38
165324 Par ch=4 c=11 v=37
165328 Par ch=4 c=11 v=36
165332 Par ch=4 c=11 v=35
165336 Par ch=4 c=11 v=34
165340 Par ch=4 c=11 v=33
165344 Par ch=4 c=11 v=32
165348 Par ch=4 c=11 v=31
165352 Par ch=4 c=11 v=30
165356 Par ch=4 c=11 v=29
165360 Par ch=4 c=11 v=28
165364 Par ch=4 c=11 v=27
165368 Par ch=4 c=11 v=26
165370 On ch=4 n=61 v=0
165372 Par ch=4 c=11 v=25
165376 Par ch=4 c=11 v=24
165380 Par ch=4 c=11 v=23
165384 Par ch=4 c=11 v=22
165388 Par ch=4 c=11 v=21
165392 Par ch=4 c=11 v=20
165396 Par ch=4 c=11 v=19
165400 Par ch=4 c=11 v=18
165404 Par ch=4 c=11 v=17
165600 Par ch=4 c=11 v=64
165600 On ch=4 n=61 v=111
165604 Par ch=4 c=11 v=63
165608 Par ch=4 c=11 v=62
165612 Par ch=4 c=11 v=61
165616 Par ch=4 c=11 v=60
165620 Par ch=4 c=11 v=59
165624 Par ch=4 c=11 v=58
165628 Par ch=4 c=11 v=57
165632 Par ch=4 c=11 v=56
165636 Par ch=4 c=11 v=55
165640 Par ch=4 c=11 v=54
165644 Par ch=4 c=11 v=53
165648 Par ch=4 c=11 v=52
165652 Par ch=4 c=11 v=51
165656 Par ch=4 c=11 v=50
165660 Par ch=4 c=11 v=49
165664 Par ch=4 c=11 v=48
165668 Par ch=4 c=11 v=47
165672 Par ch=4 c=11 v=46
165676 Par ch=4 c=11 v=45
165680 Par ch=4 c=11 v=44
165684 Par ch=4 c=11 v=43
165688 Par ch=4 c=11 v=42
165692 Par ch=4 c=11 v=41
165696 Par ch=4 c=11 v=40
165700 Par ch=4 c=11 v=39
165704 Par ch=4 c=11 v=38
165708 Par ch=4 c=11 v=37
165712 Par ch=4 c=11 v=36
165716 Par ch=4 c=11 v=35
165720 Par ch=4 c=11 v=34
165724 Par ch=4 c=11 v=33
165728 Par ch=4 c=11 v=32
165732 Par ch=4 c=11 v=31
165736 Par ch=4 c=11 v=30
165740 Par ch=4 c=11 v=29
165744 Par ch=4 c=11 v=28
165748 Par ch=4 c=11 v=27
165752 Par ch=4 c=11 v=26
165754 On ch=4 n=61 v=0
165756 Par ch=4 c=11 v=25
165760 Par ch=4 c=11 v=24
165764 Par ch=4 c=11 v=23
165768 Par ch=4 c=11 v=22
165772 Par ch=4 c=11 v=21
165776 Par ch=4 c=11 v=20
165780 Par ch=4 c=11 v=19
165784 Par ch=4 c=11 v=18
165788 Par ch=4 c=11 v=17
165888 Par ch=4 c=11 v=64
168000 On ch=4 n=55 v=31
168154 On ch=4 n=55 v=0
168384 On ch=4 n=55 v=31
168538 On ch=4 n=55 v=0
169344 Par ch=4 c=11 v=64
169344 On ch=4 n=72 v=111
169357 On ch=4 n=72 v=0
169376 On ch=4 n=71 v=111
169389 On ch=4 n=71 v=0
169408 On ch=4 n=70 v=111
169421 On ch=4 n=70 v=0
169440 On ch=4 n=69 v=111
169453 On ch=4 n=69 v=0
169472 On ch=4 n=68 v=111
169485 On ch=4 n=68 v=0
169504 On ch=4 n=67 v=111
169517 On ch=4 n=67 v=0
169536 On ch=4 n=66 v=111
169549 On ch=4 n=66 v=0
169568 On ch=4 n=65 v=111
169581 On ch=4 n=65 v=0
169600 On ch=4 n=64 v=111
169613 On ch=4 n=64 v=0
169632 On ch=4 n=63 v=111
169645 On ch=4 n=63 v=0
169664 On ch=4 n=62 v=111
169677 On ch=4 n=62 v=0
169696 On ch=4 n=61 v=111
169709 On ch=4 n=61 v=0
169728 On ch=4 n=60 v=111
169741 On ch=4 n=60 v=0
169824 On ch=4 n=69 v=111
169837 On ch=4 n=69 v=0
169856 On ch=4 n=68 v=111
169869 On ch=4 n=68 v=0
169888 On ch=4 n=67 v=111
169901 On ch=4 n=67 v=0
169920 On ch=4 n=66 v=111
169933 On ch=4 n=66 v=0
169952 On ch=4 n=65 v=111
169965 On ch=4 n=65 v=0
169984 On ch=4 n=64 v=111
169997 On ch=4 n=64 v=0
170016 On ch=4 n=63 v=111
170029 On ch=4 n=63 v=0
170048 On ch=4 n=62 v=111
170061 On ch=4 n=62 v=0
170080 On ch=4 n=61 v=111
170093 On ch=4 n=61 v=0
170112 On ch=4 n=60 v=111
170150 On ch=4 n=60 v=0
170496 On ch=4 n=60 v=31
170534 On ch=4 n=60 v=0
170534 Meta TrkEnd
TrkEnd
MTrk
0 Meta 0x21 00
0 Meta TrkName "Es CLARINET"
192 Par ch=5 c=1 v=8
196 Par ch=5 c=7 v=127
200 Par ch=5 c=10 v=28
204 Par ch=5 c=11 v=64
208 Par ch=5 c=91 v=112
212 Par ch=5 c=93 v=32
216 Par ch=5 c=0 v=0
216 Par ch=5 c=32 v=0
216 PrCh ch=5 p=71
30720 On ch=5 n=91 v=95
30768 Par ch=5 c=11 v=32
33792 Par ch=5 c=11 v=32
33804 Par ch=5 c=11 v=33
33816 Par ch=5 c=11 v=34
33828 Par ch=5 c=11 v=35
33840 Par ch=5 c=11 v=36
33852 Par ch=5 c=11 v=37
33864 Par ch=5 c=11 v=38
33876 Par ch=5 c=11 v=39
33888 Par ch=5 c=11 v=40
33900 Par ch=5 c=11 v=41
33912 Par ch=5 c=11 v=42
33920 Par ch=5 c=11 v=43
33932 Par ch=5 c=11 v=44
33944 Par ch=5 c=11 v=45
33956 Par ch=5 c=11 v=46
33968 Par ch=5 c=11 v=47
33980 Par ch=5 c=11 v=48
33992 Par ch=5 c=11 v=49
34004 Par ch=5 c=11 v=50
34016 Par ch=5 c=11 v=51
34028 Par ch=5 c=11 v=52
34040 Par ch=5 c=11 v=53
34048 Par ch=5 c=11 v=54
34060 Par ch=5 c=11 v=55
34072 Par ch=5 c=11 v=56
34084 Par ch=5 c=11 v=57
34096 Par ch=5 c=11 v=58
34108 Par ch=5 c=11 v=59
34120 Par ch=5 c=11 v=60
34132 Par ch=5 c=11 v=61
34144 Par ch=5 c=11 v=62
34156 Par ch=5 c=11 v=63
34168 Par ch=5 c=11 v=64
34253 On ch=5 n=91 v=0
34272 On ch=5 n=86 v=127
34349 On ch=5 n=86 v=0
34368 On ch=5 n=84 v=127
34445 On ch=5 n=84 v=0
34464 On ch=5 n=82 v=127
34541 On ch=5 n=82 v=0
34560 On ch=5 n=86 v=111
34608 Par ch=5 c=11 v=32
34620 Par ch=5 c=11 v=33
34632 Par ch=5 c=11 v=34
34640 Par ch=5 c=11 v=35
34652 Par ch=5 c=11 v=36
34660 Par ch=5 c=11 v=37
34672 Par ch=5 c=11 v=38
34680 Par ch=5 c=11 v=39
34692 Par ch=5 c=11 v=40
34700 Par ch=5 c=11 v=41
34712 Par ch=5 c=11 v=42
34720 Par ch=5 c=11 v=43
34732 Par ch=5 c=11 v=44
34744 Par ch=5 c=11 v=45
34752 Par ch=5 c=11 v=46
34764 Par ch=5 c=11 v=47
34772 Par ch=5 c=11 v=48
34784 Par ch=5 c=11 v=49
34792 Par ch=5 c=11 v=50
34804 Par ch=5 c=11 v=51
34812 Par ch=5 c=11 v=52
34824 Par ch=5 c=11 v=53
34832 Par ch=5 c=11 v=54
34844 Par ch=5 c=11 v=55
34856 Par ch=5 c=11 v=56
34864 Par ch=5 c=11 v=57
34876 Par ch=5 c=11 v=58
34884 Par ch=5 c=11 v=59
34896 Par ch=5 c=11 v=60
34904 Par ch=5 c=11 v=61
34916 Par ch=5 c=11 v=62
34924 Par ch=5 c=11 v=63
34936 Par ch=5 c=11 v=64
35021 On ch=5 n=86 v=0
35040 On ch=5 n=82 v=111
35117 On ch=5 n=82 v=0
35136 On ch=5 n=81 v=111
35213 On ch=5 n=81 v=0
35232 On ch=5 n=79 v=111
35309 On ch=5 n=79 v=0
35328 On ch=5 n=82 v=111
35712 On ch=5 n=82 v=0
75360 On ch=5 n=91 v=95
75477 On ch=5 n=91 v=0
75488 On ch=5 n=90 v=95
75509 On ch=5 n=90 v=0
75520 On ch=5 n=89 v=95
75541 On ch=5 n=89 v=0
75552 On ch=5 n=88 v=95
75573 On ch=5 n=88 v=0
75584 On ch=5 n=87 v=95
75605 On ch=5 n=87 v=0
75616 On ch=5 n=86 v=95
75637 On ch=5 n=86 v=0
75648 On ch=5 n=85 v=95
75669 On ch=5 n=85 v=0
75680 On ch=5 n=84 v=95
75701 On ch=5 n=84 v=0
75712 On ch=5 n=83 v=95
75733 On ch=5 n=83 v=0
75744 On ch=5 n=82 v=95
75765 On ch=5 n=82 v=0
75776 On ch=5 n=81 v=95
75797 On ch=5 n=81 v=0
75808 On ch=5 n=80 v=95
75829 On ch=5 n=80 v=0
75840 On ch=5 n=79 v=95
75878 On ch=5 n=79 v=0
76032 On ch=5 n=80 v=95
76262 On ch=5 n=80 v=0
76320 On ch=5 n=68 v=95
76351 On ch=5 n=68 v=0
76392 On ch=5 n=80 v=95
76408 On ch=5 n=80 v=0
76416 On ch=5 n=80 v=95
76493 On ch=5 n=80 v=0
76512 On ch=5 n=68 v=95
76543 On ch=5 n=68 v=0
76584 On ch=5 n=80 v=95
76600 On ch=5 n=80 v=0
76608 On ch=5 n=80 v=95
76685 On ch=5 n=80 v=0
76704 On ch=5 n=68 v=95
76735 On ch=5 n=68 v=0
76776 On ch=5 n=80 v=95
76792 On ch=5 n=80 v=0
76800 On ch=5 n=81 v=95
76877 On ch=5 n=81 v=0
77568 On ch=5 n=80 v=111
77664 On ch=5 n=80 v=0
77664 On ch=5 n=72 v=111
77856 On ch=5 n=72 v=0
77856 On ch=5 n=73 v=111
77933 On ch=5 n=73 v=0
77952 Par ch=5 c=11 v=64
77952 On ch=5 n=78 v=111
77976 Par ch=5 c=11 v=63
78000 Par ch=5 c=11 v=62
78020 Par ch=5 c=11 v=61
78044 Par ch=5 c=11 v=60
78048 On ch=5 n=78 v=0
78048 On ch=5 n=70 v=111
78068 Par ch=5 c=11 v=59
78088 Par ch=5 c=11 v=58
78112 Par ch=5 c=11 v=57
78136 Par ch=5 c=11 v=56
78156 Par ch=5 c=11 v=55
78180 Par ch=5 c=11 v=54
78204 Par ch=5 c=11 v=53
78224 Par ch=5 c=11 v=52
78240 On ch=5 n=70 v=0
78240 On ch=5 n=71 v=111
78248 Par ch=5 c=11 v=51
78272 Par ch=5 c=11 v=50
78292 Par ch=5 c=11 v=49
78316 Par ch=5 c=11 v=48
78317 On ch=5 n=71 v=0
78720 Par ch=5 c=11 v=64
108960 Par ch=5 c=11 v=64
108960 On ch=5 n=77 v=47
108972 Par ch=5 c=11 v=65
108980 Par ch=5 c=11 v=66
108992 Par ch=5 c=11 v=67
109000 Par ch=5 c=11 v=68
109012 Par ch=5 c=11 v=69
109020 Par ch=5 c=11 v=70
109032 Par ch=5 c=11 v=71
109037 On ch=5 n=77 v=0
109040 Par ch=5 c=11 v=72
109052 Par ch=5 c=11 v=73
109056 On ch=5 n=79 v=47
109060 Par ch=5 c=11 v=74
109068 Par ch=5 c=11 v=75
109080 Par ch=5 c=11 v=76
109088 Par ch=5 c=11 v=77
109100 Par ch=5 c=11 v=78
109108 Par ch=5 c=11 v=79
109120 Par ch=5 c=11 v=80
109128 Par ch=5 c=11 v=81
109133 On ch=5 n=79 v=0
109140 Par ch=5 c=11 v=82
109148 Par ch=5 c=11 v=83
109152 On ch=5 n=82 v=47
109156 Par ch=5 c=11 v=84
109168 Par ch=5 c=11 v=85
109176 Par ch=5 c=11 v=86
109188 Par ch=5 c=11 v=87
109196 Par ch=5 c=11 v=88
109208 Par ch=5 c=11 v=89
109216 Par ch=5 c=11 v=90
109228 Par ch=5 c=11 v=91
109229 On ch=5 n=82 v=0
109236 Par ch=5 c=11 v=92
109248 Par ch=5 c=11 v=93
109248 On ch=5 n=87 v=47
109256 Par ch=5 c=11 v=94
109264 Par ch=5 c=11 v=95
109276 Par ch=5 c=11 v=96
109284 Par ch=5 c=11 v=97
109296 Par ch=5 c=11 v=98
109304 Par ch=5 c=11 v=99
109316 Par ch=5 c=11 v=100
109324 Par ch=5 c=11 v=101
109325 On ch=5 n=87 v=0
109336 Par ch=5 c=11 v=102
109344 Par ch=5 c=11 v=103
109344 On ch=5 n=86 v=47
109352 Par ch=5 c=11 v=104
109364 Par ch=5 c=11 v=105
109372 Par ch=5 c=11 v=106
109375 On ch=5 n=86 v=0
109384 Par ch=5 c=11 v=107
109392 Par ch=5 c=11 v=108
109404 Par ch=5 c=11 v=109
109412 Par ch=5 c=11 v=110
109416 On ch=5 n=84 v=47
109424 Par ch=5 c=11 v=111
109432 On ch=5 n=84 v=0
109432 Par ch=5 c=11 v=112
109440 Par ch=5 c=11 v=112
109440 On ch=5 n=82 v=47
109468 Par ch=5 c=11 v=113
109492 Par ch=5 c=11 v=114
109520 Par ch=5 c=11 v=115
109544 Par ch=5 c=11 v=116
109568 Par ch=5 c=11 v=117
109596 Par ch=5 c=11 v=118
109620 Par ch=5 c=11 v=119
109648 Par ch=5 c=11 v=120
109672 Par ch=5 c=11 v=121
109696 Par ch=5 c=11 v=122
109724 Par ch=5 c=11 v=123
109747 On ch=5 n=82 v=0
109748 Par ch=5 c=11 v=124
109776 Par ch=5 c=11 v=125
109800 Par ch=5 c=11 v=126
109824 Par ch=5 c=11 v=64
109824 On ch=5 n=94 v=111
109978 On ch=5 n=94 v=0
110016 On ch=5 n=87 v=111
110285 On ch=5 n=87 v=0
110304 On ch=5 n=89 v=111
110381 On ch=5 n=89 v=0
110400 On ch=5 n=91 v=111
110477 On ch=5 n=91 v=0
110496 On ch=5 n=92 v=111
110573 On ch=5 n=92 v=0
110592 Par ch=5 c=11 v=64
110592 On ch=5 n=82 v=47
110600 Par ch=5 c=11 v=65
110608 Par ch=5 c=11 v=66
110612 Par ch=5 c=11 v=67
110620 Par ch=5 c=11 v=68
110624 Par ch=5 c=11 v=69
110632 Par ch=5 c=11 v=70
110636 Par ch=5 c=11 v=71
110644 Par ch=5 c=11 v=72
110648 Par ch=5 c=11 v=73
110656 Par ch=5 c=11 v=74
110660 Par ch=5 c=11 v=75
110668 Par ch=5 c=11 v=76
110672 Par ch=5 c=11 v=77
110680 Par ch=5 c=11 v=78
110684 Par ch=5 c=11 v=79
110692 Par ch=5 c=11 v=80
110696 Par ch=5 c=11 v=81
110704 Par ch=5 c=11 v=82
110708 Par ch=5 c=11 v=83
110716 Par ch=5 c=11 v=84
110720 Par ch=5 c=11 v=85
110728 Par ch=5 c=11 v=86
110736 Par ch=5 c=11 v=87
110740 Par ch=5 c=11 v=88
110748 Par ch=5 c=11 v=89
110752 Par ch=5 c=11 v=90
110760 Par ch=5 c=11 v=91
110764 Par ch=5 c=11 v=92
110772 Par ch=5 c=11 v=93
110776 Par ch=5 c=11 v=94
110784 Par ch=5 c=11 v=95
110788 Par ch=5 c=11 v=96
110796 Par ch=5 c=11 v=97
110800 Par ch=5 c=11 v=98
110808 Par ch=5 c=11 v=99
110812 Par ch=5 c=11 v=100
110820 Par ch=5 c=11 v=101
110824 Par ch=5 c=11 v=102
110832 Par ch=5 c=11 v=103
110836 Par ch=5 c=11 v=104
110844 Par ch=5 c=11 v=105
110848 Par ch=5 c=11 v=106
110856 Par ch=5 c=11 v=107
110864 Par ch=5 c=11 v=108
110868 Par ch=5 c=11 v=109
110876 Par ch=5 c=11 v=110
110880 Par ch=5 c=11 v=111
110888 Par ch=5 c=11 v=112
110892 Par ch=5 c=11 v=113
110900 Par ch=5 c=11 v=114
110904 Par ch=5 c=11 v=115
110912 Par ch=5 c=11 v=116
110916 Par ch=5 c=11 v=117
110924 Par ch=5 c=11 v=118
110928 Par ch=5 c=11 v=119
110936 Par ch=5 c=11 v=120
110940 Par ch=5 c=11 v=121
110948 Par ch=5 c=11 v=122
110952 Par ch=5 c=11 v=123
110960 Par ch=5 c=11 v=124
110964 Par ch=5 c=11 v=125
110972 Par ch=5 c=11 v=126
111053 On ch=5 n=82 v=0
111072 Par ch=5 c=11 v=64
111072 On ch=5 n=80 v=111
111110 On ch=5 n=80 v=0
111120 On ch=5 n=78 v=111
111158 On ch=5 n=78 v=0
111168 On ch=5 n=77 v=111
111245 On ch=5 n=77 v=0
111264 On ch=5 n=75 v=111
111341 On ch=5 n=75 v=0
111360 On ch=5 n=83 v=111
111412 Par ch=5 c=11 v=16
111416 Par ch=5 c=11 v=17
111420 Par ch=5 c=11 v=19
111424 Par ch=5 c=11 v=20
111428 Par ch=5 c=11 v=21
111432 Par ch=5 c=11 v=23
111436 Par ch=5 c=11 v=24
111440 Par ch=5 c=11 v=26
111444 Par ch=5 c=11 v=27
111448 Par ch=5 c=11 v=28
111452 Par ch=5 c=11 v=30
111456 Par ch=5 c=11 v=31
111460 Par ch=5 c=11 v=33
111464 Par ch=5 c=11 v=34
111468 Par ch=5 c=11 v=35
111472 Par ch=5 c=11 v=37
111476 Par ch=5 c=11 v=38
111480 Par ch=5 c=11 v=40
111484 Par ch=5 c=11 v=41
111488 Par ch=5 c=11 v=42
111492 Par ch=5 c=11 v=44
111496 Par ch=5 c=11 v=45
111500 Par ch=5 c=11 v=46
111504 Par ch=5 c=11 v=48
111508 Par ch=5 c=11 v=49
111512 Par ch=5 c=11 v=51
111516 Par ch=5 c=11 v=52
111520 Par ch=5 c=11 v=53
111524 Par ch=5 c=11 v=55
111528 Par ch=5 c=11 v=56
111532 Par ch=5 c=11 v=58
111536 Par ch=5 c=11 v=59
111540 Par ch=5 c=11 v=60
111544 Par ch=5 c=11 v=62
111548 Par ch=5 c=11 v=63
111552 Par ch=5 c=11 v=64
111590 On ch=5 n=83 v=0
111600 On ch=5 n=87 v=111
111638 On ch=5 n=87 v=0
111648 On ch=5 n=85 v=111
111686 On ch=5 n=85 v=0
111696 On ch=5 n=83 v=111
111734 On ch=5 n=83 v=0
112224 On ch=5 n=90 v=111
112245 On ch=5 n=90 v=0
112256 On ch=5 n=89 v=111
112277 On ch=5 n=89 v=0
112288 On ch=5 n=87 v=111
112309 On ch=5 n=87 v=0
112320 On ch=5 n=87 v=111
112341 On ch=5 n=87 v=0
112352 On ch=5 n=85 v=111
112373 On ch=5 n=85 v=0
112384 On ch=5 n=83 v=111
112405 On ch=5 n=83 v=0
112416 On ch=5 n=82 v=111
112437 On ch=5 n=82 v=0
112448 On ch=5 n=78 v=111
112469 On ch=5 n=78 v=0
112480 On ch=5 n=82 v=111
112493 On ch=5 n=82 v=0
112992 On ch=5 n=90 v=111
113018 On ch=5 n=90 v=0
113024 On ch=5 n=89 v=111
113050 On ch=5 n=89 v=0
113056 On ch=5 n=87 v=111
113082 On ch=5 n=87 v=0
113088 On ch=5 n=87 v=111
113114 On ch=5 n=87 v=0
113120 On ch=5 n=85 v=111
113146 On ch=5 n=85 v=0
113152 On ch=5 n=83 v=111
113178 On ch=5 n=83 v=0
113184 On ch=5 n=82 v=111
113210 On ch=5 n=82 v=0
113216 On ch=5 n=78 v=111
113242 On ch=5 n=78 v=0
113248 On ch=5 n=82 v=111
113261 On ch=5 n=82 v=0
113280 On ch=5 n=83 v=127
113376 On ch=5 n=83 v=0
113376 On ch=5 n=82 v=127
113472 On ch=5 n=82 v=0
113472 On ch=5 n=81 v=127
113568 On ch=5 n=81 v=0
113568 On ch=5 n=82 v=127
113645 On ch=5 n=82 v=0
113664 Par ch=5 c=11 v=64
113664 On ch=5 n=85 v=127
113688 Par ch=5 c=11 v=65
113712 Par ch=5 c=11 v=66
113732 Par ch=5 c=11 v=67
113756 Par ch=5 c=11 v=68
113760 On ch=5 n=85 v=0
113760 On ch=5 n=84 v=127
113780 Par ch=5 c=11 v=69
113800 Par ch=5 c=11 v=70
113824 Par ch=5 c=11 v=71
113848 Par ch=5 c=11 v=72
113856 On ch=5 n=84 v=0
113856 On ch=5 n=83 v=127
113868 Par ch=5 c=11 v=73
113892 Par ch=5 c=11 v=74
113916 Par ch=5 c=11 v=75
113936 Par ch=5 c=11 v=76
113952 On ch=5 n=83 v=0
113952 On ch=5 n=84 v=127
113960 Par ch=5 c=11 v=77
113984 Par ch=5 c=11 v=78
114004 Par ch=5 c=11 v=79
114028 Par ch=5 c=11 v=80
114029 On ch=5 n=84 v=0
114048 Par ch=5 c=11 v=64
114048 On ch=5 n=87 v=111
114096 Par ch=5 c=11 v=32
114144 On ch=5 n=87 v=0
114144 On ch=5 n=86 v=111
114288 On ch=5 n=86 v=0
114288 Par ch=5 c=11 v=64
114288 On ch=5 n=90 v=111
114336 On ch=5 n=90 v=0
114336 On ch=5 n=89 v=111
114384 On ch=5 n=89 v=0
114384 On ch=5 n=80 v=111
114422 On ch=5 n=80 v=0
114432 On ch=5 n=80 v=111
114480 On ch=5 n=80 v=0
114480 On ch=5 n=79 v=111
114528 On ch=5 n=79 v=0
114528 On ch=5 n=89 v=111
114576 On ch=5 n=89 v=0
114576 On ch=5 n=87 v=111
114624 On ch=5 n=87 v=0
114624 On ch=5 n=78 v=111
114672 On ch=5 n=78 v=0
114672 On ch=5 n=86 v=111
114720 On ch=5 n=86 v=0
114720 On ch=5 n=85 v=111
114768 On ch=5 n=85 v=0
114768 On ch=5 n=77 v=111
114806 On ch=5 n=77 v=0
114816 On ch=5 n=77 v=111
114864 On ch=5 n=77 v=0
114864 On ch=5 n=76 v=111
114912 On ch=5 n=76 v=0
114912 On ch=5 n=84 v=111
114960 On ch=5 n=84 v=0
114960 On ch=5 n=83 v=111
115008 On ch=5 n=83 v=0
115008 On ch=5 n=75 v=111
115056 On ch=5 n=75 v=0
115056 On ch=5 n=74 v=111
115104 On ch=5 n=74 v=0
115104 On ch=5 n=82 v=111
115152 On ch=5 n=82 v=0
115152 On ch=5 n=81 v=111
115190 On ch=5 n=81 v=0
115200 Par ch=5 c=11 v=64
115200 On ch=5 n=80 v=111
115212 Par ch=5 c=11 v=63
115224 Par ch=5 c=11 v=62
115236 Par ch=5 c=11 v=61
115248 Par ch=5 c=11 v=60
115260 Par ch=5 c=11 v=59
115268 Par ch=5 c=11 v=58
115280 Par ch=5 c=11 v=57
115292 Par ch=5 c=11 v=56
115304 Par ch=5 c=11 v=55
115316 Par ch=5 c=11 v=54
115328 Par ch=5 c=11 v=53
115336 Par ch=5 c=11 v=52
115348 Par ch=5 c=11 v=51
115360 Par ch=5 c=11 v=50
115372 Par ch=5 c=11 v=49
115384 Par ch=5 c=11 v=48
115392 On ch=5 n=80 v=0
115392 Par ch=5 c=11 v=47
115392 On ch=5 n=78 v=111
115404 Par ch=5 c=11 v=46
115416 Par ch=5 c=11 v=45
115428 Par ch=5 c=11 v=44
115440 Par ch=5 c=11 v=43
115452 Par ch=5 c=11 v=42
115460 Par ch=5 c=11 v=41
115472 Par ch=5 c=11 v=40
115484 Par ch=5 c=11 v=39
115496 Par ch=5 c=11 v=38
115508 Par ch=5 c=11 v=37
115520 Par ch=5 c=11 v=36
115528 Par ch=5 c=11 v=35
115540 Par ch=5 c=11 v=34
115552 Par ch=5 c=11 v=33
115564 Par ch=5 c=11 v=32
115584 Par ch=5 c=11 v=32
115596 Par ch=5 c=11 v=33
115608 Par ch=5 c=11 v=34
115620 Par ch=5 c=11 v=35
115632 Par ch=5 c=11 v=36
115644 Par ch=5 c=11 v=37
115656 Par ch=5 c=11 v=38
115661 On ch=5 n=78 v=0
115668 Par ch=5 c=11 v=39
115680 Par ch=5 c=11 v=40
115680 On ch=5 n=76 v=111
115692 Par ch=5 c=11 v=41
115704 Par ch=5 c=11 v=42
115712 Par ch=5 c=11 v=43
115724 Par ch=5 c=11 v=44
115736 Par ch=5 c=11 v=45
115748 Par ch=5 c=11 v=46
115760 Par ch=5 c=11 v=47
115772 Par ch=5 c=11 v=48
115776 On ch=5 n=76 v=0
115776 On ch=5 n=75 v=111
115784 Par ch=5 c=11 v=49
115796 Par ch=5 c=11 v=50
115808 Par ch=5 c=11 v=51
115820 Par ch=5 c=11 v=52
115832 Par ch=5 c=11 v=53
115840 Par ch=5 c=11 v=54
115852 On ch=5 n=75 v=0
115852 Par ch=5 c=11 v=55
115864 Par ch=5 c=11 v=56
115872 On ch=5 n=74 v=111
115876 Par ch=5 c=11 v=57
115888 Par ch=5 c=11 v=58
115900 Par ch=5 c=11 v=59
115912 Par ch=5 c=11 v=60
115924 Par ch=5 c=11 v=61
115936 Par ch=5 c=11 v=62
115948 On ch=5 n=74 v=0
115948 Par ch=5 c=11 v=63
115960 Par ch=5 c=11 v=64
115968 On ch=5 n=80 v=111
116160 On ch=5 n=80 v=0
116160 On ch=5 n=78 v=111
116428 On ch=5 n=78 v=0
116448 Par ch=5 c=11 v=64
116448 On ch=5 n=77 v=111
116468 Par ch=5 c=11 v=63
116484 Par ch=5 c=11 v=62
116500 Par ch=5 c=11 v=61
116516 Par ch=5 c=11 v=60
116524 On ch=5 n=77 v=0
116536 Par ch=5 c=11 v=59
116544 On ch=5 n=76 v=111
116552 Par ch=5 c=11 v=58
116568 Par ch=5 c=11 v=57
116584 Par ch=5 c=11 v=56
116604 Par ch=5 c=11 v=55
116620 On ch=5 n=76 v=0
116620 Par ch=5 c=11 v=54
116636 Par ch=5 c=11 v=53
116640 On ch=5 n=75 v=111
116652 Par ch=5 c=11 v=52
116672 Par ch=5 c=11 v=51
116688 Par ch=5 c=11 v=50
116704 Par ch=5 c=11 v=49
116716 On ch=5 n=75 v=0
116720 Par ch=5 c=11 v=48
116736 Par ch=5 c=11 v=64
116736 On ch=5 n=75 v=79
116784 Par ch=5 c=11 v=63
116828 Par ch=5 c=11 v=62
116872 Par ch=5 c=11 v=61
116920 Par ch=5 c=11 v=60
116964 Par ch=5 c=11 v=59
117008 Par ch=5 c=11 v=58
117056 Par ch=5 c=11 v=57
117100 Par ch=5 c=11 v=56
117144 Par ch=5 c=11 v=55
117188 Par ch=5 c=11 v=54
117236 Par ch=5 c=11 v=53
117280 Par ch=5 c=11 v=52
117324 Par ch=5 c=11 v=51
117372 Par ch=5 c=11 v=50
117416 Par ch=5 c=11 v=49
117427 On ch=5 n=75 v=0
117460 Par ch=5 c=11 v=48
117760 Par ch=5 c=11 v=64
117760 On ch=5 n=78 v=127
117781 On ch=5 n=78 v=0
117792 On ch=5 n=80 v=127
117813 On ch=5 n=80 v=0
117824 On ch=5 n=78 v=127
117845 On ch=5 n=78 v=0
117856 On ch=5 n=77 v=127
117877 On ch=5 n=77 v=0
117888 On ch=5 n=78 v=127
117926 On ch=5 n=78 v=0
117960 On ch=5 n=75 v=127
117979 On ch=5 n=75 v=0
117984 On ch=5 n=66 v=127
118022 On ch=5 n=66 v=0
118176 On ch=5 n=77 v=127
118202 On ch=5 n=77 v=0
118208 On ch=5 n=78 v=127
118234 On ch=5 n=78 v=0
118240 On ch=5 n=80 v=127
118266 On ch=5 n=80 v=0
118272 On ch=5 n=82 v=127
118368 On ch=5 n=82 v=0
118368 On ch=5 n=78 v=127
118399 On ch=5 n=78 v=0
118440 On ch=5 n=80 v=127
118456 On ch=5 n=80 v=0
118464 On ch=5 n=82 v=127
118560 On ch=5 n=82 v=0
118560 On ch=5 n=85 v=127
118591 On ch=5 n=85 v=0
118632 On ch=5 n=83 v=127
118648 On ch=5 n=83 v=0
118656 On ch=5 n=82 v=127
118733 On ch=5 n=82 v=0
118752 On ch=5 n=75 v=127
118829 On ch=5 n=75 v=0
118944 On ch=5 n=85 v=127
118982 On ch=5 n=85 v=0
119016 On ch=5 n=83 v=127
119035 On ch=5 n=83 v=0
119040 On ch=5 n=82 v=127
119117 On ch=5 n=82 v=0
119136 On ch=5 n=87 v=127
119213 On ch=5 n=87 v=0
119712 On ch=5 n=85 v=127
119750 On ch=5 n=85 v=0
119784 On ch=5 n=83 v=127
119803 On ch=5 n=83 v=0
119808 On ch=5 n=82 v=127
119885 On ch=5 n=82 v=0
119904 On ch=5 n=75 v=127
119981 On ch=5 n=75 v=0
120480 On ch=5 n=89 v=100
120518 On ch=5 n=89 v=0
120552 On ch=5 n=87 v=100
120568 On ch=5 n=87 v=0
120576 On ch=5 n=85 v=100
120607 On ch=5 n=85 v=0
120648 On ch=5 n=80 v=100
120672 On ch=5 n=80 v=0
120672 On ch=5 n=89 v=100
120703 On ch=5 n=89 v=0
120744 On ch=5 n=87 v=100
120760 On ch=5 n=87 v=0
120768 On ch=5 n=85 v=100
120799 On ch=5 n=85 v=0
120840 On ch=5 n=83 v=100
120864 On ch=5 n=83 v=0
120864 On ch=5 n=93 v=100
120895 On ch=5 n=93 v=0
120936 On ch=5 n=91 v=100
120952 On ch=5 n=91 v=0
120960 On ch=5 n=90 v=100
120991 On ch=5 n=90 v=0
121032 On ch=5 n=84 v=100
121056 On ch=5 n=84 v=0
121056 On ch=5 n=93 v=100
121087 On ch=5 n=93 v=0
121128 On ch=5 n=91 v=100
121144 On ch=5 n=91 v=0
121152 On ch=5 n=90 v=100
121183 On ch=5 n=90 v=0
121224 On ch=5 n=72 v=127
121248 On ch=5 n=72 v=0
121248 On ch=5 n=87 v=127
121279 On ch=5 n=87 v=0
121320 On ch=5 n=86 v=127
121336 On ch=5 n=86 v=0
121344 On ch=5 n=85 v=127
121375 On ch=5 n=85 v=0
121416 On ch=5 n=84 v=127
121432 On ch=5 n=84 v=0
121440 On ch=5 n=83 v=127
121471 On ch=5 n=83 v=0
121512 On ch=5 n=82 v=127
121528 On ch=5 n=82 v=0
121536 On ch=5 n=81 v=127
121567 On ch=5 n=81 v=0
121608 On ch=5 n=80 v=127
121624 On ch=5 n=80 v=0
121632 On ch=5 n=79 v=127
121663 On ch=5 n=79 v=0
121704 On ch=5 n=78 v=127
121720 On ch=5 n=78 v=0
121728 On ch=5 n=83 v=127
121759 On ch=5 n=83 v=0
121800 On ch=5 n=82 v=127
121816 On ch=5 n=82 v=0
121824 On ch=5 n=81 v=127
121855 On ch=5 n=81 v=0
121896 On ch=5 n=80 v=127
121912 On ch=5 n=80 v=0
121920 On ch=5 n=79 v=127
121951 On ch=5 n=79 v=0
121992 On ch=5 n=78 v=127
122008 On ch=5 n=78 v=0
122016 On ch=5 n=77 v=127
122047 On ch=5 n=77 v=0
122088 On ch=5 n=76 v=127
122104 On ch=5 n=76 v=0
122112 On ch=5 n=93 v=127
122133 On ch=5 n=93 v=0
122144 On ch=5 n=92 v=127
122165 On ch=5 n=92 v=0
122176 On ch=5 n=91 v=127
122197 On ch=5 n=91 v=0
122208 On ch=5 n=90 v=127
122229 On ch=5 n=90 v=0
122240 On ch=5 n=89 v=127
122261 On ch=5 n=89 v=0
122272 On ch=5 n=88 v=127
122293 On ch=5 n=88 v=0
122304 On ch=5 n=87 v=127
122325 On ch=5 n=87 v=0
122336 On ch=5 n=86 v=127
122357 On ch=5 n=86 v=0
122368 On ch=5 n=85 v=127
122389 On ch=5 n=85 v=0
122400 On ch=5 n=84 v=127
122421 On ch=5 n=84 v=0
122432 On ch=5 n=83 v=127
122453 On ch=5 n=83 v=0
122464 On ch=5 n=82 v=127
122485 On ch=5 n=82 v=0
122496 On ch=5 n=81 v=127
122528 On ch=5 n=81 v=0
122528 On ch=5 n=80 v=127
122560 On ch=5 n=80 v=0
122560 On ch=5 n=79 v=127
122592 On ch=5 n=79 v=0
122592 On ch=5 n=78 v=127
122624 On ch=5 n=78 v=0
122624 On ch=5 n=77 v=127
122656 On ch=5 n=77 v=0
122656 On ch=5 n=76 v=127
122688 On ch=5 n=76 v=0
122688 On ch=5 n=75 v=127
122720 On ch=5 n=75 v=0
122720 On ch=5 n=74 v=127
122752 On ch=5 n=74 v=0
122752 On ch=5 n=73 v=127
122784 On ch=5 n=73 v=0
122784 On ch=5 n=72 v=127
122816 On ch=5 n=72 v=0
122816 On ch=5 n=70 v=127
122848 On ch=5 n=70 v=0
122848 On ch=5 n=69 v=127
122880 On ch=5 n=69 v=0
122880 On ch=5 n=67 v=127
122918 On ch=5 n=67 v=0
123360 On ch=5 n=79 v=100
123363 On ch=5 n=84 v=100
123366 On ch=5 n=91 v=100
123372 On ch=5 n=79 v=0
123375 On ch=5 n=84 v=0
123382 On ch=5 n=91 v=0
124128 On ch=5 n=79 v=100
124131 On ch=5 n=85 v=100
124134 On ch=5 n=91 v=100
124140 On ch=5 n=79 v=0
124143 On ch=5 n=85 v=0
124150 On ch=5 n=91 v=0
124150 Meta TrkEnd
TrkEnd
MTrk
0 Meta 0x21 00
0 Meta TrkName "CLARINET"
192 Par ch=6 c=1 v=8
196 Par ch=6 c=7 v=127
200 Par ch=6 c=10 v=46
204 Par ch=6 c=11 v=64
208 Par ch=6 c=91 v=112
212 Par ch=6 c=93 v=32
216 Par ch=6 c=0 v=0
216 Par ch=6 c=32 v=0
216 PrCh ch=6 p=71
7680 On ch=6 n=72 v=47
7834 On ch=6 n=72 v=0
7872 On ch=6 n=67 v=47
7987 On ch=6 n=67 v=0
8016 On ch=6 n=67 v=47
8047 On ch=6 n=67 v=0
8064 On ch=6 n=72 v=47
8218 On ch=6 n=72 v=0
8320 On ch=6 n=72 v=47
8341 On ch=6 n=72 v=0
8352 On ch=6 n=74 v=47
8373 On ch=6 n=74 v=0
8384 On ch=6 n=72 v=47
8405 On ch=6 n=72 v=0
8416 On ch=6 n=71 v=47
8437 On ch=6 n=71 v=0
8448 On ch=6 n=72 v=47
8479 On ch=6 n=72 v=0
8520 On ch=6 n=67 v=47
8536 On ch=6 n=67 v=0
8544 On ch=6 n=60 v=47
8575 On ch=6 n=60 v=0
8736 On ch=6 n=72 v=47
8767 On ch=6 n=72 v=0
8832 Par ch=6 c=11 v=96
8832 On ch=6 n=79 v=47
8880 Par ch=6 c=11 v=64
8986 On ch=6 n=79 v=0
9120 On ch=6 n=72 v=47
9151 On ch=6 n=72 v=0
9192 On ch=6 n=72 v=47
9208 On ch=6 n=72 v=0
9216 On ch=6 n=79 v=47
9293 On ch=6 n=79 v=0
9312 On ch=6 n=72 v=47
9343 On ch=6 n=72 v=0
9384 On ch=6 n=72 v=47
9400 On ch=6 n=72 v=0
9408 On ch=6 n=79 v=47
9485 On ch=6 n=79 v=0
9504 On ch=6 n=72 v=47
9535 On ch=6 n=72 v=0
9576 On ch=6 n=72 v=47
9592 On ch=6 n=72 v=0
9600 On ch=6 n=79 v=47
9677 On ch=6 n=79 v=0
10320 On ch=6 n=67 v=79
10320 On ch=6 n=79 v=79
10351 On ch=6 n=79 v=0
10351 On ch=6 n=67 v=0
10368 On ch=6 n=84 v=79
10368 On ch=6 n=72 v=79
10445 On ch=6 n=72 v=0
10445 On ch=6 n=84 v=0
10464 On ch=6 n=70 v=79
10464 On ch=6 n=82 v=79
10495 On ch=6 n=82 v=0
10495 On ch=6 n=70 v=0
10536 On ch=6 n=80 v=79
10536 On ch=6 n=68 v=79
10552 On ch=6 n=68 v=0
10552 On ch=6 n=80 v=0
10560 Par ch=6 c=11 v=64
10560 On ch=6 n=67 v=79
10560 On ch=6 n=79 v=79
10572 Par ch=6 c=11 v=63
10580 Par ch=6 c=11 v=62
10588 Par ch=6 c=11 v=61
10596 Par ch=6 c=11 v=60
10608 Par ch=6 c=11 v=59
10616 Par ch=6 c=11 v=58
10624 Par ch=6 c=11 v=57
10632 Par ch=6 c=11 v=56
10640 Par ch=6 c=11 v=55
10652 Par ch=6 c=11 v=54
10660 Par ch=6 c=11 v=53
10668 Par ch=6 c=11 v=52
10675 On ch=6 n=79 v=0
10675 On ch=6 n=67 v=0
10676 Par ch=6 c=11 v=51
10684 Par ch=6 c=11 v=50
10696 Par ch=6 c=11 v=49
10704 Par ch=6 c=11 v=48
10704 On ch=6 n=65 v=79
10704 On ch=6 n=77 v=79
10712 Par ch=6 c=11 v=47
10720 Par ch=6 c=11 v=46
10728 Par ch=6 c=11 v=45
10735 On ch=6 n=77 v=0
10735 On ch=6 n=65 v=0
10740 Par ch=6 c=11 v=44
10748 Par ch=6 c=11 v=43
10752 On ch=6 n=75 v=79
10752 On ch=6 n=63 v=79
10756 Par ch=6 c=11 v=42
10764 Par ch=6 c=11 v=41
10772 Par ch=6 c=11 v=40
10784 Par ch=6 c=11 v=39
10790 On ch=6 n=63 v=0
10790 On ch=6 n=75 v=0
10792 Par ch=6 c=11 v=38
10800 Par ch=6 c=11 v=37
10808 Par ch=6 c=11 v=36
10816 Par ch=6 c=11 v=35
10824 On ch=6 n=74 v=79
10824 On ch=6 n=62 v=79
10828 Par ch=6 c=11 v=34
10836 Par ch=6 c=11 v=33
10843 On ch=6 n=62 v=0
10843 On ch=6 n=74 v=0
10844 Par ch=6 c=11 v=32
10848 On ch=6 n=72 v=79
10848 On ch=6 n=60 v=79
10852 Par ch=6 c=11 v=31
10860 Par ch=6 c=11 v=30
10872 Par ch=6 c=11 v=29
10880 Par ch=6 c=11 v=28
10888 Par ch=6 c=11 v=27
10896 Par ch=6 c=11 v=26
10904 Par ch=6 c=11 v=25
10916 Par ch=6 c=11 v=24
10924 Par ch=6 c=11 v=23
10932 Par ch=6 c=11 v=22
10940 Par ch=6 c=11 v=21
10948 Par ch=6 c=11 v=20
10960 Par ch=6 c=11 v=19
10963 On ch=6 n=60 v=0
10963 On ch=6 n=72 v=0
10968 Par ch=6 c=11 v=18
10976 Par ch=6 c=11 v=17
10984 Par ch=6 c=11 v=16
10992 Par ch=6 c=11 v=64
10992 On ch=6 n=74 v=47
10992 On ch=6 n=62 v=47
11023 On ch=6 n=62 v=0
11023 On ch=6 n=74 v=0
11040 On ch=6 n=63 v=47
11040 On ch=6 n=75 v=47
11061 On ch=6 n=75 v=0
11061 On ch=6 n=63 v=0
11072 On ch=6 n=74 v=47
11072 On ch=6 n=62 v=47
11093 On ch=6 n=62 v=0
11093 On ch=6 n=74 v=0
11104 On ch=6 n=60 v=47
11104 On ch=6 n=72 v=47
11125 On ch=6 n=72 v=0
11125 On ch=6 n=60 v=0
11136 On ch=6 n=67 v=31
11136 On ch=6 n=79 v=31
11290 On ch=6 n=79 v=0
11290 On ch=6 n=67 v=0
11328 On ch=6 n=74 v=31
11328 On ch=6 n=62 v=31
11443 On ch=6 n=62 v=0
11443 On ch=6 n=74 v=0
11472 On ch=6 n=74 v=31
11472 On ch=6 n=62 v=31
11503 On ch=6 n=62 v=0
11503 On ch=6 n=74 v=0
11520 Par ch=6 c=11 v=64
11520 On ch=6 n=79 v=31
11520 On ch=6 n=67 v=31
11528 Par ch=6 c=11 v=65
11536 Par ch=6 c=11 v=66
11544 Par ch=6 c=11 v=67
11552 Par ch=6 c=11 v=68
11560 Par ch=6 c=11 v=69
11568 Par ch=6 c=11 v=70
11576 Par ch=6 c=11 v=71
11584 Par ch=6 c=11 v=72
11592 Par ch=6 c=11 v=73
11600 Par ch=6 c=11 v=74
11608 Par ch=6 c=11 v=75
11616 Par ch=6 c=11 v=76
11624 Par ch=6 c=11 v=77
11632 Par ch=6 c=11 v=78
11640 Par ch=6 c=11 v=79
11648 Par ch=6 c=11 v=80
11656 Par ch=6 c=11 v=81
11664 Par ch=6 c=11 v=82
11672 Par ch=6 c=11 v=83
11680 Par ch=6 c=11 v=84
11688 Par ch=6 c=11 v=85
11696 Par ch=6 c=11 v=86
11704 Par ch=6 c=11 v=87
11712 Par ch=6 c=11 v=88
11716 Par ch=6 c=11 v=89
11724 Par ch=6 c=11 v=90
11732 Par ch=6 c=11 v=91
11740 Par ch=6 c=11 v=92
11748 Par ch=6 c=11 v=93
11750 On ch=6 n=67 v=0
11750 On ch=6 n=79 v=0
11756 Par ch=6 c=11 v=94
11764 Par ch=6 c=11 v=95
11772 Par ch=6 c=11 v=96
11780 Par ch=6 c=11 v=97
11788 Par ch=6 c=11 v=98
11796 Par ch=6 c=11 v=99
11804 Par ch=6 c=11 v=100
11808 On ch=6 n=65 v=31
11808 On ch=6 n=77 v=31
11812 Par ch=6 c=11 v=101
11820 Par ch=6 c=11 v=102
11828 Par ch=6 c=11 v=103
11836 Par ch=6 c=11 v=104
11844 Par ch=6 c=11 v=105
11846 On ch=6 n=77 v=0
11846 On ch=6 n=65 v=0
11852 Par ch=6 c=11 v=106
11856 On ch=6 n=63 v=31
11856 On ch=6 n=75 v=31
11860 Par ch=6 c=11 v=107
11868 Par ch=6 c=11 v=108
11876 Par ch=6 c=11 v=109
11884 Par ch=6 c=11 v=110
11892 Par ch=6 c=11 v=111
11894 On ch=6 n=75 v=0
11894 On ch=6 n=63 v=0
11900 Par ch=6 c=11 v=112
11904 Par ch=6 c=11 v=64
11904 On ch=6 n=62 v=79
11904 On ch=6 n=74 v=79
11981 On ch=6 n=74 v=0
11981 On ch=6 n=62 v=0
12000 On ch=6 n=55 v=79
12000 On ch=6 n=67 v=79
12038 On ch=6 n=67 v=0
12038 On ch=6 n=55 v=0
12072 On ch=6 n=55 v=79
12072 On ch=6 n=67 v=79
12091 On ch=6 n=67 v=0
12091 On ch=6 n=55 v=0
12096 On ch=6 n=62 v=79
12096 On ch=6 n=74 v=79
12173 On ch=6 n=74 v=0
12173 On ch=6 n=62 v=0
12192 On ch=6 n=65 v=79
12192 On ch=6 n=77 v=79
12250 On ch=6 n=77 v=0
12250 On ch=6 n=65 v=0
12264 On ch=6 n=63 v=79
12264 On ch=6 n=75 v=79
12283 On ch=6 n=75 v=0
12283 On ch=6 n=63 v=0
12288 On ch=6 n=62 v=79
12288 On ch=6 n=74 v=79
12319 On ch=6 n=74 v=0
12319 On ch=6 n=62 v=0
12480 On ch=6 n=65 v=95
12480 On ch=6 n=68 v=95
12634 On ch=6 n=68 v=0
12634 On ch=6 n=65 v=0
12672 On ch=6 n=63 v=95
12672 On ch=6 n=67 v=95
12902 On ch=6 n=67 v=0
12902 On ch=6 n=63 v=0
12960 On ch=6 n=63 v=95
12960 On ch=6 n=66 v=95
13037 On ch=6 n=66 v=0
13037 On ch=6 n=63 v=0
13056 On ch=6 n=67 v=95
13056 On ch=6 n=63 v=95
13133 On ch=6 n=63 v=0
13133 On ch=6 n=67 v=0
13440 On ch=6 n=67 v=47
13440 On ch=6 n=79 v=47
13594 On ch=6 n=79 v=0
13594 On ch=6 n=67 v=0
13632 Par ch=6 c=11 v=64
13632 On ch=6 n=64 v=47
13632 On ch=6 n=76 v=47
13644 Par ch=6 c=11 v=65
13652 Par ch=6 c=11 v=66
13660 Par ch=6 c=11 v=67
13672 Par ch=6 c=11 v=68
13680 Par ch=6 c=11 v=69
13688 Par ch=6 c=11 v=70
13696 Par ch=6 c=11 v=71
13708 Par ch=6 c=11 v=72
13716 Par ch=6 c=11 v=73
13724 Par ch=6 c=11 v=74
13736 Par ch=6 c=11 v=75
13744 Par ch=6 c=11 v=76
13747 On ch=6 n=76 v=0
13747 On ch=6 n=64 v=0
13752 Par ch=6 c=11 v=77
13760 Par ch=6 c=11 v=78
13772 Par ch=6 c=11 v=79
13776 On ch=6 n=65 v=47
13776 On ch=6 n=77 v=47
13780 Par ch=6 c=11 v=80
13788 Par ch=6 c=11 v=81
13800 Par ch=6 c=11 v=82
13807 On ch=6 n=77 v=0
13807 On ch=6 n=65 v=0
13808 Par ch=6 c=11 v=83
13816 Par ch=6 c=11 v=84
13824 Par ch=6 c=11 v=85
13824 On ch=6 n=68 v=47
13824 On ch=6 n=80 v=47
13836 Par ch=6 c=11 v=86
13844 Par ch=6 c=11 v=87
13852 Par ch=6 c=11 v=88
13862 On ch=6 n=80 v=0
13862 On ch=6 n=68 v=0
13864 Par ch=6 c=11 v=89
13872 Par ch=6 c=11 v=90
13880 Par ch=6 c=11 v=91
13888 Par ch=6 c=11 v=92
13900 Par ch=6 c=11 v=93
13908 Par ch=6 c=11 v=94
13916 Par ch=6 c=11 v=95
13920 On ch=6 n=67 v=47
13920 On ch=6 n=79 v=47
13928 Par ch=6 c=11 v=96
13936 Par ch=6 c=11 v=97
13944 Par ch=6 c=11 v=98
13952 Par ch=6 c=11 v=99
13964 Par ch=6 c=11 v=100
13972 Par ch=6 c=11 v=101
13980 Par ch=6 c=11 v=102
13992 Par ch=6 c=11 v=103
13997 On ch=6 n=79 v=0
13997 On ch=6 n=67 v=0
14000 Par ch=6 c=11 v=104
14008 Par ch=6 c=11 v=105
14016 Par ch=6 c=11 v=106
14028 Par ch=6 c=11 v=107
14036 Par ch=6 c=11 v=108
14044 Par ch=6 c=11 v=109
14056 Par ch=6 c=11 v=110
14064 Par ch=6 c=11 v=111
14072 Par ch=6 c=11 v=112
14080 Par ch=6 c=11 v=113
14080 On ch=6 n=72 v=47
14092 Par ch=6 c=11 v=114
14100 Par ch=6 c=11 v=115
14101 On ch=6 n=72 v=0
14108 Par ch=6 c=11 v=116
14112 On ch=6 n=79 v=47
14120 Par ch=6 c=11 v=117
14128 Par ch=6 c=11 v=118
14133 On ch=6 n=79 v=0
14136 Par ch=6 c=11 v=119
14144 Par ch=6 c=11 v=120
14144 On ch=6 n=82 v=47
14156 Par ch=6 c=11 v=121
14164 Par ch=6 c=11 v=122
14165 On ch=6 n=82 v=0
14172 Par ch=6 c=11 v=123
14176 On ch=6 n=85 v=47
14184 Par ch=6 c=11 v=124
14192 Par ch=6 c=11 v=125
14197 On ch=6 n=85 v=0
14200 Par ch=6 c=11 v=126
14208 Par ch=6 c=11 v=64
14208 On ch=6 n=84 v=111
14239 On ch=6 n=84 v=0
14280 On ch=6 n=82 v=111
14296 On ch=6 n=82 v=0
14304 On ch=6 n=80 v=111
14335 On ch=6 n=80 v=0
14376 On ch=6 n=79 v=111
14392 On ch=6 n=79 v=0
14400 On ch=6 n=77 v=111
14431 On ch=6 n=77 v=0
14472 On ch=6 n=75 v=111
14488 On ch=6 n=75 v=0
14496 On ch=6 n=73 v=111
14527 On ch=6 n=73 v=0
14568 On ch=6 n=72 v=111
14584 On ch=6 n=72 v=0
14592 On ch=6 n=68 v=111
14592 On ch=6 n=80 v=111
14623 On ch=6 n=80 v=0
14623 On ch=6 n=68 v=0
14664 On ch=6 n=67 v=111
14664 On ch=6 n=79 v=111
14680 On ch=6 n=79 v=0
14680 On ch=6 n=67 v=0
14688 On ch=6 n=65 v=111
14688 On ch=6 n=77 v=111
14719 On ch=6 n=77 v=0
14719 On ch=6 n=65 v=0
14760 On ch=6 n=63 v=111
14760 On ch=6 n=75 v=111
14776 On ch=6 n=75 v=0
14776 On ch=6 n=63 v=0
14784 On ch=6 n=73 v=111
14815 On ch=6 n=73 v=0
14856 On ch=6 n=72 v=111
14872 On ch=6 n=72 v=0
14880 On ch=6 n=70 v=111
14911 On ch=6 n=70 v=0
14952 On ch=6 n=68 v=111
14968 On ch=6 n=68 v=0
14976 On ch=6 n=67 v=111
15130 On ch=6 n=67 v=0
15168 On ch=6 n=68 v=111
15245 On ch=6 n=68 v=0
15264 On ch=6 n=69 v=111
15341 On ch=6 n=69 v=0
15360 On ch=6 n=70 v=111
15514 On ch=6 n=70 v=0
15552 On ch=6 n=71 v=111
15560 On ch=6 n=71 v=0
15560 On ch=6 n=72 v=111
15568 On ch=6 n=72 v=0
15568 On ch=6 n=71 v=111
15576 On ch=6 n=71 v=0
15576 On ch=6 n=72 v=111
15584 On ch=6 n=72 v=0
15584 On ch=6 n=71 v=111
15592 On ch=6 n=71 v=0
15592 On ch=6 n=72 v=111
15600 On ch=6 n=72 v=0
15600 On ch=6 n=71 v=111
15608 On ch=6 n=71 v=0
15608 On ch=6 n=72 v=111
15616 On ch=6 n=72 v=0
15616 On ch=6 n=71 v=111
15624 On ch=6 n=71 v=0
15624 On ch=6 n=72 v=111
15632 On ch=6 n=72 v=0
15632 On ch=6 n=71 v=111
15640 On ch=6 n=71 v=0
15640 On ch=6 n=72 v=111
15648 On ch=6 n=72 v=0
15648 On ch=6 n=71 v=111
15656 On ch=6 n=71 v=0
15656 On ch=6 n=72 v=111
15664 On ch=6 n=72 v=0
15664 On ch=6 n=71 v=111
15672 On ch=6 n=71 v=0
15672 On ch=6 n=72 v=111
15680 On ch=6 n=72 v=0
15680 On ch=6 n=71 v=111
15688 On ch=6 n=71 v=0
15688 On ch=6 n=72 v=111
15696 On ch=6 n=72 v=0
15696 On ch=6 n=71 v=111
15704 On ch=6 n=71 v=0
15704 On ch=6 n=72 v=111
15712 On ch=6 n=72 v=0
15712 On ch=6 n=71 v=111
15720 On ch=6 n=71 v=0
15720 On ch=6 n=69 v=111
15728 On ch=6 n=69 v=0
15728 On ch=6 n=71 v=111
15744 On ch=6 n=71 v=0
15744 On ch=6 n=72 v=111
15782 On ch=6 n=72 v=0
16512 Par ch=6 c=11 v=64
16512 On ch=6 n=79 v=111
16524 Par ch=6 c=11 v=63
16532 Par ch=6 c=11 v=62
16540 Par ch=6 c=11 v=61
16548 Par ch=6 c=11 v=60
16560 Par ch=6 c=11 v=59
16568 Par ch=6 c=11 v=58
16576 Par ch=6 c=11 v=57
16584 Par ch=6 c=11 v=56
16596 Par ch=6 c=11 v=55
16604 Par ch=6 c=11 v=54
16612 Par ch=6 c=11 v=53
16620 Par ch=6 c=11 v=52
16632 Par ch=6 c=11 v=51
16640 Par ch=6 c=11 v=50
16648 Par ch=6 c=11 v=49
16656 Par ch=6 c=11 v=48
16668 Par ch=6 c=11 v=47
16676 Par ch=6 c=11 v=46
16684 Par ch=6 c=11 v=45
16692 Par ch=6 c=11 v=44
16704 Par ch=6 c=11 v=43
16712 Par ch=6 c=11 v=42
16720 Par ch=6 c=11 v=41
16728 Par ch=6 c=11 v=40
16740 Par ch=6 c=11 v=39
16748 Par ch=6 c=11 v=38
16756 Par ch=6 c=11 v=37
16764 Par ch=6 c=11 v=36
16776 Par ch=6 c=11 v=35
16784 Par ch=6 c=11 v=34
16792 Par ch=6 c=11 v=33
16800 On ch=6 n=79 v=0
16800 Par ch=6 c=11 v=32
16800 On ch=6 n=75 v=111
16804 Par ch=6 c=11 v=33
16808 Par ch=6 c=11 v=34
16812 Par ch=6 c=11 v=36
16816 Par ch=6 c=11 v=37
16820 Par ch=6 c=11 v=38
16824 Par ch=6 c=11 v=40
16828 Par ch=6 c=11 v=41
16832 Par ch=6 c=11 v=43
16836 Par ch=6 c=11 v=44
16840 Par ch=6 c=11 v=45
16844 Par ch=6 c=11 v=47
16848 Par ch=6 c=11 v=48
16852 Par ch=6 c=11 v=49
16856 Par ch=6 c=11 v=51
16860 Par ch=6 c=11 v=52
16864 Par ch=6 c=11 v=54
16868 Par ch=6 c=11 v=55
16872 Par ch=6 c=11 v=56
16876 Par ch=6 c=11 v=58
16880 Par ch=6 c=11 v=59
16884 Par ch=6 c=11 v=60
16888 Par ch=6 c=11 v=62
16892 Par ch=6 c=11 v=63
16896 On ch=6 n=75 v=0
16896 Par ch=6 c=11 v=64
16896 On ch=6 n=74 v=111
16900 Par ch=6 c=11 v=63
16904 Par ch=6 c=11 v=62
16908 Par ch=6 c=11 v=60
16912 Par ch=6 c=11 v=59
16916 Par ch=6 c=11 v=58
16920 Par ch=6 c=11 v=56
16924 Par ch=6 c=11 v=55
16928 Par ch=6 c=11 v=54
16932 Par ch=6 c=11 v=52
16936 Par ch=6 c=11 v=51
16940 Par ch=6 c=11 v=50
16944 Par ch=6 c=11 v=48
16948 Par ch=6 c=11 v=47
16952 Par ch=6 c=11 v=46
16956 Par ch=6 c=11 v=44
16960 Par ch=6 c=11 v=43
16964 Par ch=6 c=11 v=42
16968 Par ch=6 c=11 v=40
16972 Par ch=6 c=11 v=39
16976 Par ch=6 c=11 v=38
16980 Par ch=6 c=11 v=36
16984 Par ch=6 c=11 v=35
16988 Par ch=6 c=11 v=34
16992 On ch=6 n=74 v=0
16992 Par ch=6 c=11 v=32
16992 On ch=6 n=72 v=111
17069 On ch=6 n=72 v=0
17184 Par ch=6 c=11 v=65
17184 On ch=6 n=75 v=79
17188 Par ch=6 c=11 v=64
17192 Par ch=6 c=11 v=63
17196 Par ch=6 c=11 v=61
17200 Par ch=6 c=11 v=60
17204 Par ch=6 c=11 v=59
17208 Par ch=6 c=11 v=57
17212 Par ch=6 c=11 v=56
17216 Par ch=6 c=11 v=54
17220 Par ch=6 c=11 v=53
17222 On ch=6 n=75 v=0
17224 Par ch=6 c=11 v=52
17228 Par ch=6 c=11 v=50
17232 Par ch=6 c=11 v=49
17232 On ch=6 n=74 v=79
17236 Par ch=6 c=11 v=48
17240 Par ch=6 c=11 v=46
17244 Par ch=6 c=11 v=45
17248 Par ch=6 c=11 v=43
17252 Par ch=6 c=11 v=42
17256 Par ch=6 c=11 v=41
17260 Par ch=6 c=11 v=39
17264 Par ch=6 c=11 v=38
17268 Par ch=6 c=11 v=37
17270 On ch=6 n=74 v=0
17272 Par ch=6 c=11 v=35
17276 Par ch=6 c=11 v=34
17280 Par ch=6 c=11 v=32
17280 On ch=6 n=74 v=79
17328 On ch=6 n=74 v=0
17328 On ch=6 n=72 v=79
17366 On ch=6 n=72 v=0
17376 Par ch=6 c=11 v=64
17376 On ch=6 n=75 v=79
17384 Par ch=6 c=11 v=63
17388 Par ch=6 c=11 v=62
17392 Par ch=6 c=11 v=61
17396 Par ch=6 c=11 v=60
17400 Par ch=6 c=11 v=59
17404 Par ch=6 c=11 v=58
17408 Par ch=6 c=11 v=57
17412 Par ch=6 c=11 v=56
17414 On ch=6 n=75 v=0
17420 Par ch=6 c=11 v=55
17424 Par ch=6 c=11 v=54
17424 On ch=6 n=74 v=79
17428 Par ch=6 c=11 v=53
17432 Par ch=6 c=11 v=52
17436 Par ch=6 c=11 v=51
17440 Par ch=6 c=11 v=50
17444 Par ch=6 c=11 v=49
17448 Par ch=6 c=11 v=48
17456 Par ch=6 c=11 v=47
17460 Par ch=6 c=11 v=46
17462 On ch=6 n=74 v=0
17464 Par ch=6 c=11 v=45
17468 Par ch=6 c=11 v=44
17472 Par ch=6 c=11 v=43
17472 On ch=6 n=74 v=79
17476 Par ch=6 c=11 v=42
17480 Par ch=6 c=11 v=41
17484 Par ch=6 c=11 v=40
17492 Par ch=6 c=11 v=39
17496 Par ch=6 c=11 v=38
17500 Par ch=6 c=11 v=37
17504 Par ch=6 c=11 v=36
17508 Par ch=6 c=11 v=35
17512 Par ch=6 c=11 v=34
17516 Par ch=6 c=11 v=33
17520 On ch=6 n=74 v=0
17520 Par ch=6 c=11 v=32
17520 On ch=6 n=72 v=79
17558 On ch=6 n=72 v=0
17568 On ch=6 n=63 v=79
17568 On ch=6 n=75 v=79
17606 On ch=6 n=75 v=0
17606 On ch=6 n=63 v=0
17616 On ch=6 n=67 v=79
17616 On ch=6 n=79 v=79
17654 On ch=6 n=79 v=0
17654 On ch=6 n=67 v=0
17664 Par ch=6 c=11 v=64
17664 On ch=6 n=70 v=47
17664 On ch=6 n=82 v=47
17672 Par ch=6 c=11 v=63
17676 Par ch=6 c=11 v=62
17684 Par ch=6 c=11 v=61
17688 Par ch=6 c=11 v=60
17696 Par ch=6 c=11 v=59
17700 Par ch=6 c=11 v=58
17708 Par ch=6 c=11 v=57
17712 Par ch=6 c=11 v=56
17720 Par ch=6 c=11 v=55
17724 Par ch=6 c=11 v=54
17732 Par ch=6 c=11 v=53
17736 Par ch=6 c=11 v=52
17744 Par ch=6 c=11 v=51
17748 Par ch=6 c=11 v=50
17756 Par ch=6 c=11 v=49
17760 On ch=6 n=82 v=0
17760 On ch=6 n=70 v=0
17760 Par ch=6 c=11 v=48
17760 On ch=6 n=68 v=47
17760 On ch=6 n=80 v=47
17875 On ch=6 n=80 v=0
17875 On ch=6 n=68 v=0
17952 Par ch=6 c=11 v=48
17952 On ch=6 n=63 v=63
17952 On ch=6 n=75 v=63
17960 Par ch=6 c=11 v=49
17964 Par ch=6 c=11 v=50
17972 Par ch=6 c=11 v=51
17976 Par ch=6 c=11 v=52
17984 Par ch=6 c=11 v=53
17988 Par ch=6 c=11 v=54
17992 Par ch=6 c=11 v=55
18000 Par ch=6 c=11 v=56
18004 Par ch=6 c=11 v=57
18012 Par ch=6 c=11 v=58
18016 Par ch=6 c=11 v=59
18020 Par ch=6 c=11 v=60
18028 Par ch=6 c=11 v=61
18032 Par ch=6 c=11 v=62
18040 Par ch=6 c=11 v=63
18044 Par ch=6 c=11 v=64
18048 On ch=6 n=75 v=0
18048 On ch=6 n=63 v=0
18048 Par ch=6 c=11 v=64
18048 On ch=6 n=70 v=63
18048 On ch=6 n=82 v=63
18056 Par ch=6 c=11 v=63
18060 Par ch=6 c=11 v=62
18068 Par ch=6 c=11 v=61
18072 Par ch=6 c=11 v=60
18080 Par ch=6 c=11 v=59
18084 Par ch=6 c=11 v=58
18092 Par ch=6 c=11 v=57
18096 Par ch=6 c=11 v=56
18104 Par ch=6 c=11 v=55
18108 Par ch=6 c=11 v=54
18116 Par ch=6 c=11 v=53
18120 Par ch=6 c=11 v=52
18128 Par ch=6 c=11 v=51
18132 Par ch=6 c=11 v=50
18140 Par ch=6 c=11 v=49
18144 On ch=6 n=82 v=0
18144 On ch=6 n=70 v=0
18144 Par ch=6 c=11 v=48
18144 On ch=6 n=68 v=63
18144 On ch=6 n=80 v=63
18221 On ch=6 n=80 v=0
18221 On ch=6 n=68 v=0
18288 Par ch=6 c=11 v=48
18288 On ch=6 n=67 v=47
18288 On ch=6 n=79 v=47
18296 Par ch=6 c=11 v=47
18304 Par ch=6 c=11 v=46
18312 Par ch=6 c=11 v=45
18320 Par ch=6 c=11 v=44
18328 Par ch=6 c=11 v=43
18336 On ch=6 n=79 v=0
18336 On ch=6 n=67 v=0
18336 Par ch=6 c=11 v=42
18336 On ch=6 n=68 v=47
18336 On ch=6 n=80 v=47
18344 Par ch=6 c=11 v=41
18352 Par ch=6 c=11 v=40
18360 Par ch=6 c=11 v=39
18368 Par ch=6 c=11 v=38
18376 Par ch=6 c=11 v=37
18384 On ch=6 n=80 v=0
18384 On ch=6 n=68 v=0
18384 Par ch=6 c=11 v=36
18384 On ch=6 n=70 v=47
18384 On ch=6 n=82 v=47
18392 Par ch=6 c=11 v=35
18400 Par ch=6 c=11 v=34
18408 Par ch=6 c=11 v=33
18416 Par ch=6 c=11 v=32
18432 On ch=6 n=82 v=0
18432 On ch=6 n=70 v=0
18816 Par ch=6 c=11 v=64
19200 On ch=6 n=78 v=31
19200 On ch=6 n=83 v=31
19738 On ch=6 n=83 v=0
19738 On ch=6 n=78 v=0
19776 On ch=6 n=78 v=31
19776 On ch=6 n=76 v=31
19968 On ch=6 n=76 v=0
19968 On ch=6 n=78 v=0
19968 On ch=6 n=76 v=31
19968 On ch=6 n=78 v=31
20506 On ch=6 n=78 v=0
20506 On ch=6 n=76 v=0
20736 On ch=6 n=54 v=47
20736 On ch=6 n=58 v=47
20928 On ch=6 n=58 v=0
20928 On ch=6 n=54 v=0
20928 On ch=6 n=55 v=63
20928 On ch=6 n=59 v=63
21120 On ch=6 n=59 v=0
21120 On ch=6 n=55 v=0
21120 On ch=6 n=55 v=63
21120 On ch=6 n=58 v=63
21216 On ch=6 n=58 v=0
21216 On ch=6 n=55 v=0
21216 On ch=6 n=56 v=63
21216 On ch=6 n=59 v=63
21312 On ch=6 n=59 v=0
21312 On ch=6 n=56 v=0
21312 On ch=6 n=57 v=63
21312 On ch=6 n=60 v=63
21408 On ch=6 n=60 v=0
21408 On ch=6 n=57 v=0
21408 On ch=6 n=58 v=63
21408 On ch=6 n=61 v=63
21504 On ch=6 n=61 v=0
21504 On ch=6 n=58 v=0
21504 On ch=6 n=59 v=47
21504 On ch=6 n=63 v=47
21581 On ch=6 n=63 v=0
21581 On ch=6 n=59 v=0
25728 On ch=6 n=60 v=79
25920 On ch=6 n=60 v=0
25920 On ch=6 n=62 v=79
25951 On ch=6 n=62 v=0
26016 On ch=6 n=65 v=79
26047 On ch=6 n=65 v=0
26088 On ch=6 n=68 v=79
26104 On ch=6 n=68 v=0
26112 On ch=6 n=72 v=79
26237 On ch=6 n=72 v=0
26368 Par ch=6 c=11 v=64
26368 On ch=6 n=60 v=47
26372 Par ch=6 c=11 v=65
26376 Par ch=6 c=11 v=66
26380 Par ch=6 c=11 v=67
26384 Par ch=6 c=11 v=68
26388 Par ch=6 c=11 v=69
26389 On ch=6 n=60 v=0
26392 Par ch=6 c=11 v=70
26396 Par ch=6 c=11 v=71
26400 Par ch=6 c=11 v=72
26400 On ch=6 n=62 v=47
26404 Par ch=6 c=11 v=73
26408 Par ch=6 c=11 v=74
26412 Par ch=6 c=11 v=75
26416 Par ch=6 c=11 v=76
26420 Par ch=6 c=11 v=77
26421 On ch=6 n=62 v=0
26424 Par ch=6 c=11 v=78
26428 Par ch=6 c=11 v=79
26432 Par ch=6 c=11 v=80
26432 On ch=6 n=65 v=47
26436 Par ch=6 c=11 v=81
26440 Par ch=6 c=11 v=82
26444 Par ch=6 c=11 v=83
26448 Par ch=6 c=11 v=84
26452 Par ch=6 c=11 v=85
26453 On ch=6 n=65 v=0
26456 Par ch=6 c=11 v=86
26460 Par ch=6 c=11 v=87
26464 Par ch=6 c=11 v=88
26464 On ch=6 n=68 v=47
26468 Par ch=6 c=11 v=89
26472 Par ch=6 c=11 v=90
26476 Par ch=6 c=11 v=91
26480 Par ch=6 c=11 v=92
26484 Par ch=6 c=11 v=93
26485 On ch=6 n=68 v=0
26488 Par ch=6 c=11 v=94
26492 Par ch=6 c=11 v=95
26496 On ch=6 n=72 v=47
26517 On ch=6 n=72 v=0
26560 Par ch=6 c=11 v=64
26560 On ch=6 n=60 v=47
26564 Par ch=6 c=11 v=65
26568 Par ch=6 c=11 v=66
26572 Par ch=6 c=11 v=67
26576 Par ch=6 c=11 v=68
26580 Par ch=6 c=11 v=69
26581 On ch=6 n=60 v=0
26584 Par ch=6 c=11 v=70
26588 Par ch=6 c=11 v=71
26592 Par ch=6 c=11 v=72
26592 On ch=6 n=62 v=47
26596 Par ch=6 c=11 v=73
26600 Par ch=6 c=11 v=74
26604 Par ch=6 c=11 v=75
26608 Par ch=6 c=11 v=76
26612 Par ch=6 c=11 v=77
26613 On ch=6 n=62 v=0
26616 Par ch=6 c=11 v=78
26620 Par ch=6 c=11 v=79
26624 Par ch=6 c=11 v=80
26624 On ch=6 n=65 v=47
26628 Par ch=6 c=11 v=81
26632 Par ch=6 c=11 v=82
26636 Par ch=6 c=11 v=83
26640 Par ch=6 c=11 v=84
26644 Par ch=6 c=11 v=85
26645 On ch=6 n=65 v=0
26648 Par ch=6 c=11 v=86
26652 Par ch=6 c=11 v=87
26656 Par ch=6 c=11 v=88
26656 On ch=6 n=68 v=47
26660 Par ch=6 c=11 v=89
26664 Par ch=6 c=11 v=90
26668 Par ch=6 c=11 v=91
26672 Par ch=6 c=11 v=92
26676 Par ch=6 c=11 v=93
26677 On ch=6 n=68 v=0
26680 Par ch=6 c=11 v=94
26684 Par ch=6 c=11 v=95
26688 On ch=6 n=72 v=47
26709 On ch=6 n=72 v=0
26752 Par ch=6 c=11 v=64
26752 On ch=6 n=60 v=47
26756 Par ch=6 c=11 v=65
26760 Par ch=6 c=11 v=66
26764 Par ch=6 c=11 v=67
26768 Par ch=6 c=11 v=68
26772 Par ch=6 c=11 v=69
26773 On ch=6 n=60 v=0
26776 Par ch=6 c=11 v=70
26780 Par ch=6 c=11 v=71
26784 Par ch=6 c=11 v=72
26784 On ch=6 n=62 v=47
26788 Par ch=6 c=11 v=73
26792 Par ch=6 c=11 v=74
26796 Par ch=6 c=11 v=75
26800 Par ch=6 c=11 v=76
26804 Par ch=6 c=11 v=77
26805 On ch=6 n=62 v=0
26808 Par ch=6 c=11 v=78
26812 Par ch=6 c=11 v=79
26816 Par ch=6 c=11 v=80
26816 On ch=6 n=65 v=47
26820 Par ch=6 c=11 v=81
26824 Par ch=6 c=11 v=82
26828 Par ch=6 c=11 v=83
26832 Par ch=6 c=11 v=84
26836 Par ch=6 c=11 v=85
26837 On ch=6 n=65 v=0
26840 Par ch=6 c=11 v=86
26844 Par ch=6 c=11 v=87
26848 Par ch=6 c=11 v=88
26848 On ch=6 n=68 v=47
26852 Par ch=6 c=11 v=89
26856 Par ch=6 c=11 v=90
26860 Par ch=6 c=11 v=91
26864 Par ch=6 c=11 v=92
26868 Par ch=6 c=11 v=93
26869 On ch=6 n=68 v=0
26872 Par ch=6 c=11 v=94
26876 Par ch=6 c=11 v=95
26880 On ch=6 n=72 v=47
26911 On ch=6 n=72 v=0
26976 Par ch=6 c=11 v=64
27136 Par ch=6 c=11 v=64
27136 On ch=6 n=60 v=47
27140 Par ch=6 c=11 v=65
27144 Par ch=6 c=11 v=67
27148 Par ch=6 c=11 v=68
27152 Par ch=6 c=11 v=70
27156 Par ch=6 c=11 v=71
27157 On ch=6 n=60 v=0
27160 Par ch=6 c=11 v=73
27164 Par ch=6 c=11 v=74
27168 Par ch=6 c=11 v=76
27168 On ch=6 n=62 v=47
27172 Par ch=6 c=11 v=77
27176 Par ch=6 c=11 v=79
27180 Par ch=6 c=11 v=80
27184 Par ch=6 c=11 v=82
27188 Par ch=6 c=11 v=83
27189 On ch=6 n=62 v=0
27192 Par ch=6 c=11 v=85
27196 Par ch=6 c=11 v=86
27200 Par ch=6 c=11 v=88
27200 On ch=6 n=65 v=47
27204 Par ch=6 c=11 v=90
27208 Par ch=6 c=11 v=91
27212 Par ch=6 c=11 v=93
27216 Par ch=6 c=11 v=94
27220 Par ch=6 c=11 v=96
27221 On ch=6 n=65 v=0
27224 Par ch=6 c=11 v=97
27228 Par ch=6 c=11 v=99
27232 Par ch=6 c=11 v=100
27232 On ch=6 n=68 v=47
27236 Par ch=6 c=11 v=102
27240 Par ch=6 c=11 v=103
27244 Par ch=6 c=11 v=105
27248 Par ch=6 c=11 v=106
27252 Par ch=6 c=11 v=108
27253 On ch=6 n=68 v=0
27256 Par ch=6 c=11 v=109
27260 Par ch=6 c=11 v=111
27264 On ch=6 n=72 v=47
27295 On ch=6 n=72 v=0
27520 Par ch=6 c=11 v=64
27520 On ch=6 n=60 v=47
27524 Par ch=6 c=11 v=65
27528 Par ch=6 c=11 v=67
27532 Par ch=6 c=11 v=68
27536 Par ch=6 c=11 v=70
27540 Par ch=6 c=11 v=71
27541 On ch=6 n=60 v=0
27544 Par ch=6 c=11 v=73
27548 Par ch=6 c=11 v=74
27552 Par ch=6 c=11 v=76
27552 On ch=6 n=63 v=47
27556 Par ch=6 c=11 v=77
27560 Par ch=6 c=11 v=79
27564 Par ch=6 c=11 v=80
27568 Par ch=6 c=11 v=82
27572 Par ch=6 c=11 v=83
27573 On ch=6 n=63 v=0
27576 Par ch=6 c=11 v=85
27580 Par ch=6 c=11 v=86
27584 Par ch=6 c=11 v=88
27584 On ch=6 n=67 v=47
27588 Par ch=6 c=11 v=90
27592 Par ch=6 c=11 v=91
27596 Par ch=6 c=11 v=93
27600 Par ch=6 c=11 v=94
27604 Par ch=6 c=11 v=96
27605 On ch=6 n=67 v=0
27608 Par ch=6 c=11 v=97
27612 Par ch=6 c=11 v=99
27616 Par ch=6 c=11 v=100
27616 On ch=6 n=72 v=47
27620 Par ch=6 c=11 v=102
27624 Par ch=6 c=11 v=103
27628 Par ch=6 c=11 v=105
27632 Par ch=6 c=11 v=106
27636 Par ch=6 c=11 v=108
27637 On ch=6 n=72 v=0
27640 Par ch=6 c=11 v=109
27644 Par ch=6 c=11 v=111
27648 On ch=6 n=75 v=47
27648 On ch=6 n=72 v=47
27696 Par ch=6 c=11 v=64
27955 On ch=6 n=72 v=0
27955 On ch=6 n=75 v=0
28032 On ch=6 n=75 v=47
28032 On ch=6 n=72 v=47
28080 Par ch=6 c=11 v=64
28088 Par ch=6 c=11 v=65
28092 Par ch=6 c=11 v=66
28096 Par ch=6 c=11 v=67
28104 Par ch=6 c=11 v=68
28108 Par ch=6 c=11 v=69
28112 Par ch=6 c=11 v=70
28120 Par ch=6 c=11 v=71
28124 Par ch=6 c=11 v=72
28128 Par ch=6 c=11 v=73
28136 Par ch=6 c=11 v=74
28140 Par ch=6 c=11 v=75
28144 Par ch=6 c=11 v=76
28152 Par ch=6 c=11 v=77
28156 Par ch=6 c=11 v=78
28160 Par ch=6 c=11 v=79
28168 Par ch=6 c=11 v=80
28172 Par ch=6 c=11 v=81
28176 Par ch=6 c=11 v=82
28184 Par ch=6 c=11 v=83
28188 Par ch=6 c=11 v=84
28192 Par ch=6 c=11 v=85
28200 Par ch=6 c=11 v=86
28204 Par ch=6 c=11 v=87
28208 Par ch=6 c=11 v=88
28216 Par ch=6 c=11 v=89
28220 Par ch=6 c=11 v=90
28224 Par ch=6 c=11 v=91
28232 Par ch=6 c=11 v=92
28236 Par ch=6 c=11 v=93
28240 Par ch=6 c=11 v=94
28248 Par ch=6 c=11 v=95
28252 Par ch=6 c=11 v=96
28256 Par ch=6 c=11 v=97
28264 Par ch=6 c=11 v=98
28268 Par ch=6 c=11 v=99
28272 Par ch=6 c=11 v=100
28280 Par ch=6 c=11 v=101
28284 Par ch=6 c=11 v=102
28288 Par ch=6 c=11 v=103
28296 Par ch=6 c=11 v=104
28300 Par ch=6 c=11 v=105
28304 Par ch=6 c=11 v=106
28312 Par ch=6 c=11 v=107
28316 Par ch=6 c=11 v=108
28320 Par ch=6 c=11 v=109
28328 Par ch=6 c=11 v=110
28332 Par ch=6 c=11 v=111
28336 Par ch=6 c=11 v=112
28344 Par ch=6 c=11 v=113
28348 Par ch=6 c=11 v=114
28352 Par ch=6 c=11 v=115
28360 Par ch=6 c=11 v=116
28364 Par ch=6 c=11 v=117
28368 Par ch=6 c=11 v=118
28376 Par ch=6 c=11 v=119
28380 Par ch=6 c=11 v=120
28384 Par ch=6 c=11 v=121
28392 Par ch=6 c=11 v=122
28396 Par ch=6 c=11 v=123
28400 Par ch=6 c=11 v=124
28408 Par ch=6 c=11 v=125
28412 Par ch=6 c=11 v=126
28454 On ch=6 n=72 v=0
28454 On ch=6 n=75 v=0
28512 Par ch=6 c=11 v=64
29088 On ch=6 n=82 v=47
29088 On ch=6 n=70 v=47
29119 On ch=6 n=70 v=0
29119 On ch=6 n=82 v=0
29160 On ch=6 n=84 v=47
29160 On ch=6 n=72 v=47
29176 On ch=6 n=72 v=0
29176 On ch=6 n=84 v=0
29184 Par ch=6 c=11 v=64
29184 On ch=6 n=84 v=47
29184 On ch=6 n=72 v=47
29200 Par ch=6 c=11 v=65
29216 Par ch=6 c=11 v=66
29232 Par ch=6 c=11 v=67
29248 Par ch=6 c=11 v=68
29261 On ch=6 n=72 v=0
29261 On ch=6 n=84 v=0
29264 Par ch=6 c=11 v=69
29280 Par ch=6 c=11 v=70
29280 On ch=6 n=75 v=47
29280 On ch=6 n=63 v=47
29296 Par ch=6 c=11 v=71
29311 On ch=6 n=63 v=0
29311 On ch=6 n=75 v=0
29312 Par ch=6 c=11 v=72
29328 Par ch=6 c=11 v=73
29344 Par ch=6 c=11 v=74
29352 On ch=6 n=80 v=47
29352 On ch=6 n=68 v=47
29360 Par ch=6 c=11 v=75
29368 On ch=6 n=68 v=0
29368 On ch=6 n=80 v=0
29376 Par ch=6 c=11 v=76
29376 On ch=6 n=80 v=47
29376 On ch=6 n=68 v=47
29388 Par ch=6 c=11 v=77
29404 Par ch=6 c=11 v=78
29420 Par ch=6 c=11 v=79
29436 Par ch=6 c=11 v=80
29452 Par ch=6 c=11 v=81
29453 On ch=6 n=68 v=0
29453 On ch=6 n=80 v=0
29468 Par ch=6 c=11 v=82
29472 On ch=6 n=82 v=47
29472 On ch=6 n=70 v=47
29484 Par ch=6 c=11 v=83
29500 Par ch=6 c=11 v=84
29503 On ch=6 n=70 v=0
29503 On ch=6 n=82 v=0
29516 Par ch=6 c=11 v=85
29532 Par ch=6 c=11 v=86
29544 On ch=6 n=84 v=47
29544 On ch=6 n=72 v=47
29548 Par ch=6 c=11 v=87
29560 On ch=6 n=72 v=0
29560 On ch=6 n=84 v=0
29564 Par ch=6 c=11 v=88
29568 On ch=6 n=72 v=47
29568 On ch=6 n=84 v=47
29576 Par ch=6 c=11 v=89
29592 Par ch=6 c=11 v=90
29608 Par ch=6 c=11 v=91
29624 Par ch=6 c=11 v=92
29640 Par ch=6 c=11 v=93
29645 On ch=6 n=84 v=0
29645 On ch=6 n=72 v=0
29656 Par ch=6 c=11 v=94
29664 On ch=6 n=63 v=47
29664 On ch=6 n=75 v=47
29672 Par ch=6 c=11 v=95
29685 On ch=6 n=75 v=0
29685 On ch=6 n=63 v=0
29688 Par ch=6 c=11 v=96
29696 On ch=6 n=60 v=47
29696 On ch=6 n=72 v=47
29704 Par ch=6 c=11 v=97
29717 On ch=6 n=72 v=0
29717 On ch=6 n=60 v=0
29720 Par ch=6 c=11 v=98
29728 On ch=6 n=63 v=47
29728 On ch=6 n=75 v=47
29736 Par ch=6 c=11 v=99
29749 On ch=6 n=75 v=0
29749 On ch=6 n=63 v=0
29752 Par ch=6 c=11 v=100
29760 On ch=6 n=68 v=47
29760 On ch=6 n=80 v=47
29764 Par ch=6 c=11 v=101
29780 Par ch=6 c=11 v=102
29796 Par ch=6 c=11 v=103
29812 Par ch=6 c=11 v=104
29828 Par ch=6 c=11 v=105
29837 On ch=6 n=80 v=0
29837 On ch=6 n=68 v=0
29844 Par ch=6 c=11 v=106
29856 On ch=6 n=70 v=47
29856 On ch=6 n=82 v=47
29860 Par ch=6 c=11 v=107
29876 Par ch=6 c=11 v=108
29877 On ch=6 n=82 v=0
29877 On ch=6 n=70 v=0
29888 On ch=6 n=68 v=47
29888 On ch=6 n=80 v=47
29892 Par ch=6 c=11 v=109
29908 Par ch=6 c=11 v=110
29909 On ch=6 n=80 v=0
29909 On ch=6 n=68 v=0
29920 On ch=6 n=70 v=47
29920 On ch=6 n=82 v=47
29924 Par ch=6 c=11 v=111
29940 Par ch=6 c=11 v=112
29941 On ch=6 n=82 v=0
29941 On ch=6 n=70 v=0
29952 Par ch=6 c=11 v=64
29952 On ch=6 n=72 v=47
29952 On ch=6 n=84 v=47
30106 On ch=6 n=84 v=0
30106 On ch=6 n=72 v=0
30240 Par ch=6 c=11 v=64
30240 On ch=6 n=72 v=95
30248 Par ch=6 c=11 v=65
30252 Par ch=6 c=11 v=66
30260 Par ch=6 c=11 v=67
30261 On ch=6 n=72 v=0
30264 Par ch=6 c=11 v=68
30272 Par ch=6 c=11 v=69
30272 On ch=6 n=75 v=95
30276 Par ch=6 c=11 v=70
30280 Par ch=6 c=11 v=71
30288 Par ch=6 c=11 v=72
30292 Par ch=6 c=11 v=73
30293 On ch=6 n=75 v=0
30300 Par ch=6 c=11 v=74
30304 Par ch=6 c=11 v=75
30304 On ch=6 n=80 v=95
30308 Par ch=6 c=11 v=76
30316 Par ch=6 c=11 v=77
30320 Par ch=6 c=11 v=78
30325 On ch=6 n=80 v=0
30328 Par ch=6 c=11 v=79
30332 Par ch=6 c=11 v=80
30336 On ch=6 n=84 v=95
30490 On ch=6 n=84 v=0
30624 Par ch=6 c=11 v=64
30624 On ch=6 n=72 v=95
30632 Par ch=6 c=11 v=65
30636 Par ch=6 c=11 v=66
30644 Par ch=6 c=11 v=67
30645 On ch=6 n=72 v=0
30648 Par ch=6 c=11 v=68
30656 Par ch=6 c=11 v=69
30656 On ch=6 n=75 v=95
30660 Par ch=6 c=11 v=70
30668 Par ch=6 c=11 v=71
30672 Par ch=6 c=11 v=72
30677 On ch=6 n=75 v=0
30680 Par ch=6 c=11 v=73
30684 Par ch=6 c=11 v=74
30688 On ch=6 n=80 v=95
30692 Par ch=6 c=11 v=75
30696 Par ch=6 c=11 v=76
30704 Par ch=6 c=11 v=77
30708 Par ch=6 c=11 v=78
30709 On ch=6 n=80 v=0
30716 Par ch=6 c=11 v=79
30720 On ch=6 n=79 v=95
30768 Par ch=6 c=11 v=32
32563 On ch=6 n=79 v=0
33024 Par ch=6 c=11 v=64
33408 Par ch=6 c=11 v=64
33408 On ch=6 n=79 v=111
33408 On ch=6 n=75 v=111
33416 Par ch=6 c=11 v=63
33420 Par ch=6 c=11 v=62
33428 Par ch=6 c=11 v=61
33432 Par ch=6 c=11 v=60
33440 Par ch=6 c=11 v=59
33444 Par ch=6 c=11 v=58
33448 Par ch=6 c=11 v=57
33456 Par ch=6 c=11 v=56
33460 Par ch=6 c=11 v=55
33468 Par ch=6 c=11 v=54
33472 Par ch=6 c=11 v=53
33476 Par ch=6 c=11 v=52
33484 Par ch=6 c=11 v=51
33488 Par ch=6 c=11 v=50
33496 Par ch=6 c=11 v=49
33500 Par ch=6 c=11 v=48
33504 On ch=6 n=75 v=0
33504 On ch=6 n=79 v=0
33504 Par ch=6 c=11 v=48
33504 On ch=6 n=77 v=111
33504 On ch=6 n=74 v=111
33516 Par ch=6 c=11 v=49
33528 Par ch=6 c=11 v=50
33540 Par ch=6 c=11 v=51
33552 Par ch=6 c=11 v=52
33564 Par ch=6 c=11 v=53
33576 Par ch=6 c=11 v=54
33588 Par ch=6 c=11 v=55
33600 Par ch=6 c=11 v=56
33612 Par ch=6 c=11 v=57
33624 Par ch=6 c=11 v=58
33636 Par ch=6 c=11 v=59
33648 Par ch=6 c=11 v=60
33660 Par ch=6 c=11 v=61
33672 Par ch=6 c=11 v=62
33684 Par ch=6 c=11 v=63
33696 On ch=6 n=74 v=0
33696 On ch=6 n=77 v=0
33696 Par ch=6 c=11 v=64
33696 On ch=6 n=80 v=111
33696 On ch=6 n=77 v=111
33744 On ch=6 n=77 v=0
33744 On ch=6 n=80 v=0
33744 On ch=6 n=79 v=111
33744 On ch=6 n=75 v=111
33782 On ch=6 n=75 v=0
33782 On ch=6 n=79 v=0
33792 On ch=6 n=77 v=111
33792 On ch=6 n=74 v=111
33888 On ch=6 n=74 v=0
33888 On ch=6 n=77 v=0
33888 On ch=6 n=75 v=111
33888 On ch=6 n=72 v=111
33936 On ch=6 n=72 v=0
33936 On ch=6 n=75 v=0
33936 On ch=6 n=70 v=111
33936 On ch=6 n=74 v=111
33984 On ch=6 n=74 v=0
33984 On ch=6 n=70 v=0
33984 Par ch=6 c=11 v=64
33984 On ch=6 n=67 v=111
33984 On ch=6 n=71 v=111
33996 Par ch=6 c=11 v=65
34008 Par ch=6 c=11 v=66
34020 Par ch=6 c=11 v=67
34032 On ch=6 n=71 v=0
34032 On ch=6 n=67 v=0
34032 Par ch=6 c=11 v=68
34032 On ch=6 n=72 v=111
34032 On ch=6 n=69 v=111
34044 Par ch=6 c=11 v=69
34052 Par ch=6 c=11 v=70
34064 Par ch=6 c=11 v=71
34076 Par ch=6 c=11 v=72
34080 On ch=6 n=69 v=0
34080 On ch=6 n=72 v=0
34080 On ch=6 n=77 v=111
34080 On ch=6 n=74 v=111
34088 Par ch=6 c=11 v=73
34100 Par ch=6 c=11 v=74
34112 Par ch=6 c=11 v=75
34120 Par ch=6 c=11 v=76
34128 On ch=6 n=74 v=0
34128 On ch=6 n=77 v=0
34128 On ch=6 n=72 v=111
34128 On ch=6 n=75 v=111
34132 Par ch=6 c=11 v=77
34144 Par ch=6 c=11 v=78
34156 Par ch=6 c=11 v=79
34166 On ch=6 n=75 v=0
34166 On ch=6 n=72 v=0
34168 Par ch=6 c=11 v=80
34176 Par ch=6 c=11 v=64
34176 On ch=6 n=70 v=111
34176 On ch=6 n=74 v=111
34188 Par ch=6 c=11 v=63
34200 Par ch=6 c=11 v=62
34212 Par ch=6 c=11 v=61
34224 Par ch=6 c=11 v=60
34236 Par ch=6 c=11 v=59
34244 Par ch=6 c=11 v=58
34256 Par ch=6 c=11 v=57
34268 Par ch=6 c=11 v=56
34280 Par ch=6 c=11 v=55
34292 Par ch=6 c=11 v=54
34304 Par ch=6 c=11 v=53
34312 Par ch=6 c=11 v=52
34324 Par ch=6 c=11 v=51
34336 Par ch=6 c=11 v=50
34348 Par ch=6 c=11 v=49
34360 Par ch=6 c=11 v=48
34368 Par ch=6 c=11 v=47
34380 Par ch=6 c=11 v=46
34392 Par ch=6 c=11 v=45
34404 Par ch=6 c=11 v=44
34416 Par ch=6 c=11 v=43
34428 Par ch=6 c=11 v=42
34436 Par ch=6 c=11 v=41
34448 Par ch=6 c=11 v=40
34460 Par ch=6 c=11 v=39
34472 Par ch=6 c=11 v=38
34484 Par ch=6 c=11 v=37
34496 Par ch=6 c=11 v=36
34504 Par ch=6 c=11 v=35
34516 Par ch=6 c=11 v=34
34528 Par ch=6 c=11 v=33
34540 Par ch=6 c=11 v=32
34790 On ch=6 n=74 v=0
34790 On ch=6 n=70 v=0
34944 Par ch=6 c=11 v=64
34944 On ch=6 n=70 v=111
34944 On ch=6 n=67 v=111
34956 Par ch=6 c=11 v=63
34968 Par ch=6 c=11 v=62
34980 Par ch=6 c=11 v=61
34992 Par ch=6 c=11 v=60
35004 Par ch=6 c=11 v=59
35012 Par ch=6 c=11 v=58
35024 Par ch=6 c=11 v=57
35036 Par ch=6 c=11 v=56
35048 Par ch=6 c=11 v=55
35060 Par ch=6 c=11 v=54
35072 Par ch=6 c=11 v=53
35080 Par ch=6 c=11 v=52
35092 Par ch=6 c=11 v=51
35104 Par ch=6 c=11 v=50
35116 Par ch=6 c=11 v=49
35128 Par ch=6 c=11 v=48
35136 Par ch=6 c=11 v=47
35148 Par ch=6 c=11 v=46
35160 Par ch=6 c=11 v=45
35172 Par ch=6 c=11 v=44
35184 Par ch=6 c=11 v=43
35196 Par ch=6 c=11 v=42
35204 Par ch=6 c=11 v=41
35216 Par ch=6 c=11 v=40
35228 Par ch=6 c=11 v=39
35240 Par ch=6 c=11 v=38
35252 Par ch=6 c=11 v=37
35264 Par ch=6 c=11 v=36
35272 Par ch=6 c=11 v=35
35284 Par ch=6 c=11 v=34
35296 Par ch=6 c=11 v=33
35308 Par ch=6 c=11 v=32
35558 On ch=6 n=67 v=0
35558 On ch=6 n=70 v=0
35712 Par ch=6 c=11 v=64
35712 On ch=6 n=72 v=95
35760 Par ch=6 c=11 v=32
35935 On ch=6 n=72 v=0
35976 On ch=6 n=70 v=95
35992 On ch=6 n=70 v=0
36000 On ch=6 n=68 v=95
36031 On ch=6 n=68 v=0
36072 On ch=6 n=67 v=95
36088 On ch=6 n=67 v=0
36096 Par ch=6 c=11 v=64
36096 On ch=6 n=72 v=95
36144 Par ch=6 c=11 v=32
36319 On ch=6 n=72 v=0
36360 On ch=6 n=70 v=95
36376 On ch=6 n=70 v=0
36384 On ch=6 n=65 v=95
36415 On ch=6 n=65 v=0
36456 On ch=6 n=62 v=95
36472 On ch=6 n=62 v=0
36480 On ch=6 n=72 v=95
36511 On ch=6 n=72 v=0
36552 On ch=6 n=70 v=95
36568 On ch=6 n=70 v=0
36576 On ch=6 n=64 v=95
36607 On ch=6 n=64 v=0
36648 On ch=6 n=61 v=95
36664 On ch=6 n=61 v=0
36672 On ch=6 n=60 v=95
36710 On ch=6 n=60 v=0
36864 Par ch=6 c=11 v=64
36864 On ch=6 n=72 v=47
36876 Par ch=6 c=11 v=63
36888 Par ch=6 c=11 v=62
36895 On ch=6 n=72 v=0
36900 Par ch=6 c=11 v=61
36912 Par ch=6 c=11 v=60
36924 Par ch=6 c=11 v=59
36936 Par ch=6 c=11 v=58
36936 On ch=6 n=70 v=47
36948 Par ch=6 c=11 v=57
36952 On ch=6 n=70 v=0
36960 Par ch=6 c=11 v=56
36960 On ch=6 n=65 v=47
36972 Par ch=6 c=11 v=55
36984 Par ch=6 c=11 v=54
36991 On ch=6 n=65 v=0
36996 Par ch=6 c=11 v=53
37008 Par ch=6 c=11 v=52
37020 Par ch=6 c=11 v=51
37032 Par ch=6 c=11 v=50
37032 On ch=6 n=62 v=47
37044 Par ch=6 c=11 v=49
37048 On ch=6 n=62 v=0
37056 Par ch=6 c=11 v=48
37056 On ch=6 n=70 v=47
37087 On ch=6 n=70 v=0
37128 On ch=6 n=69 v=47
37144 On ch=6 n=69 v=0
37152 On ch=6 n=66 v=47
37183 On ch=6 n=66 v=0
37224 On ch=6 n=62 v=47
37240 On ch=6 n=62 v=0
37248 Par ch=6 c=11 v=64
37248 On ch=6 n=67 v=31
37286 On ch=6 n=67 v=0
39552 On ch=6 n=55 v=31
39552 On ch=6 n=67 v=31
39706 On ch=6 n=67 v=0
39706 On ch=6 n=55 v=0
39744 On ch=6 n=57 v=31
39744 On ch=6 n=69 v=31
39821 On ch=6 n=69 v=0
39821 On ch=6 n=57 v=0
39840 On ch=6 n=58 v=31
39840 On ch=6 n=70 v=31
39871 On ch=6 n=70 v=0
39871 On ch=6 n=58 v=0
39912 On ch=6 n=62 v=31
39912 On ch=6 n=74 v=31
39928 On ch=6 n=74 v=0
39928 On ch=6 n=62 v=0
39936 On ch=6 n=67 v=31
39936 On ch=6 n=79 v=31
40013 On ch=6 n=79 v=0
40013 On ch=6 n=67 v=0
48384 On ch=6 n=69 v=23
48384 On ch=6 n=76 v=23
48384 On ch=6 n=81 v=23
48480 On ch=6 n=81 v=0
48480 On ch=6 n=69 v=0
48480 On ch=6 n=67 v=23
48480 On ch=6 n=79 v=23
48576 On ch=6 n=79 v=0
48576 On ch=6 n=67 v=0
48576 On ch=6 n=76 v=0
48576 On ch=6 n=65 v=23
48576 On ch=6 n=74 v=23
48576 On ch=6 n=77 v=23
48672 On ch=6 n=77 v=0
48672 On ch=6 n=74 v=0
48672 On ch=6 n=65 v=0
48672 On ch=6 n=64 v=23
48672 On ch=6 n=72 v=23
48672 On ch=6 n=76 v=23
48720 On ch=6 n=76 v=0
48720 On ch=6 n=72 v=0
48720 On ch=6 n=64 v=0
48720 On ch=6 n=62 v=23
48720 On ch=6 n=69 v=23
48720 On ch=6 n=74 v=23
48768 On ch=6 n=74 v=0
48768 On ch=6 n=69 v=0
48768 On ch=6 n=62 v=0
48768 On ch=6 n=64 v=23
48768 On ch=6 n=71 v=23
48768 On ch=6 n=76 v=23
48845 On ch=6 n=76 v=0
48845 On ch=6 n=71 v=0
48845 On ch=6 n=64 v=0
51840 On ch=6 n=80 v=31
51840 On ch=6 n=83 v=31
52128 On ch=6 n=83 v=0
52128 On ch=6 n=80 v=0
52128 On ch=6 n=78 v=31
52128 On ch=6 n=81 v=31
52176 On ch=6 n=81 v=0
52176 On ch=6 n=78 v=0
52176 On ch=6 n=76 v=31
52176 On ch=6 n=80 v=31
52214 On ch=6 n=80 v=0
52214 On ch=6 n=76 v=0
52224 On ch=6 n=76 v=31
52224 On ch=6 n=80 v=31
52320 On ch=6 n=80 v=0
52320 On ch=6 n=76 v=0
52320 On ch=6 n=75 v=31
52320 On ch=6 n=78 v=31
52512 On ch=6 n=78 v=0
52512 On ch=6 n=75 v=0
52512 On ch=6 n=71 v=31
52560 On ch=6 n=71 v=0
52560 On ch=6 n=78 v=31
52560 On ch=6 n=81 v=31
52598 On ch=6 n=81 v=0
52598 On ch=6 n=78 v=0
52608 On ch=6 n=78 v=31
52608 On ch=6 n=81 v=31
52704 On ch=6 n=81 v=0
52704 On ch=6 n=78 v=0
52704 On ch=6 n=76 v=31
52704 On ch=6 n=80 v=31
52896 On ch=6 n=80 v=0
52896 On ch=6 n=76 v=0
52896 On ch=6 n=71 v=31
52944 On ch=6 n=71 v=0
52944 On ch=6 n=80 v=31
52944 On ch=6 n=83 v=31
52982 On ch=6 n=83 v=0
52982 On ch=6 n=80 v=0
52992 On ch=6 n=80 v=31
52992 On ch=6 n=83 v=31
53040 On ch=6 n=83 v=0
53040 On ch=6 n=80 v=0
53040 On ch=6 n=78 v=31
53040 On ch=6 n=81 v=31
53088 On ch=6 n=81 v=0
53088 On ch=6 n=78 v=0
53088 On ch=6 n=81 v=31
53088 On ch=6 n=85 v=31
53136 On ch=6 n=85 v=0
53136 On ch=6 n=81 v=0
53136 On ch=6 n=78 v=31
53136 On ch=6 n=81 v=31
53184 On ch=6 n=81 v=0
53184 On ch=6 n=78 v=0
53184 On ch=6 n=76 v=31
53184 On ch=6 n=80 v=31
53232 On ch=6 n=80 v=0
53232 On ch=6 n=76 v=0
53232 On ch=6 n=75 v=31
53232 On ch=6 n=78 v=31
53280 On ch=6 n=78 v=0
53280 On ch=6 n=75 v=0
53280 On ch=6 n=78 v=31
53280 On ch=6 n=81 v=31
53328 On ch=6 n=81 v=0
53328 On ch=6 n=78 v=0
53328 On ch=6 n=71 v=31
53328 On ch=6 n=78 v=31
53366 On ch=6 n=78 v=0
53366 On ch=6 n=71 v=0
53376 On ch=6 n=71 v=31
53376 On ch=6 n=78 v=31
53472 On ch=6 n=78 v=0
53472 On ch=6 n=71 v=0
53472 On ch=6 n=68 v=31
53472 On ch=6 n=76 v=31
53664 On ch=6 n=76 v=0
53664 On ch=6 n=68 v=0
53664 On ch=6 n=71 v=31
53664 On ch=6 n=80 v=31
53712 On ch=6 n=80 v=0
53712 On ch=6 n=71 v=0
53712 On ch=6 n=68 v=31
53712 On ch=6 n=76 v=31
53750 On ch=6 n=76 v=0
53750 On ch=6 n=68 v=0
53760 On ch=6 n=71 v=31
53760 On ch=6 n=80 v=31
53856 On ch=6 n=80 v=0
53856 On ch=6 n=71 v=0
53856 On ch=6 n=69 v=31
53856 On ch=6 n=78 v=31
54048 On ch=6 n=78 v=0
54048 On ch=6 n=69 v=0
54048 On ch=6 n=73 v=31
54048 On ch=6 n=81 v=31
54096 On ch=6 n=81 v=0
54096 On ch=6 n=73 v=0
54096 On ch=6 n=69 v=31
54096 On ch=6 n=78 v=31
54134 On ch=6 n=78 v=0
54144 On ch=6 n=69 v=0
54144 On ch=6 n=73 v=31
54144 On ch=6 n=81 v=31
54240 On ch=6 n=81 v=0
54240 On ch=6 n=73 v=0
54240 On ch=6 n=71 v=31
54240 On ch=6 n=80 v=31
54432 On ch=6 n=80 v=0
54432 On ch=6 n=71 v=0
54432 On ch=6 n=83 v=31
54432 On ch=6 n=74 v=31
54480 On ch=6 n=74 v=0
54480 On ch=6 n=83 v=0
54480 On ch=6 n=71 v=31
54480 On ch=6 n=80 v=31
54518 On ch=6 n=80 v=0
54518 On ch=6 n=71 v=0
54528 On ch=6 n=74 v=31
54528 On ch=6 n=83 v=31
54624 On ch=6 n=83 v=0
54624 On ch=6 n=74 v=0
54624 On ch=6 n=73 v=31
54624 On ch=6 n=81 v=31
54816 On ch=6 n=81 v=0
54816 On ch=6 n=73 v=0
54816 On ch=6 n=71 v=31
54816 On ch=6 n=80 v=31
54864 On ch=6 n=80 v=0
54864 On ch=6 n=71 v=0
54864 On ch=6 n=69 v=31
54864 On ch=6 n=78 v=31
54912 On ch=6 n=78 v=0
54912 On ch=6 n=69 v=0
54912 On ch=6 n=68 v=31
54912 On ch=6 n=76 v=31
54989 On ch=6 n=76 v=0
54989 On ch=6 n=68 v=0
63072 Par ch=6 c=11 v=64
63072 On ch=6 n=64 v=31
63072 On ch=6 n=76 v=31
63092 Par ch=6 c=11 v=65
63108 Par ch=6 c=11 v=66
63124 Par ch=6 c=11 v=67
63140 Par ch=6 c=11 v=68
63160 Par ch=6 c=11 v=69
63176 Par ch=6 c=11 v=70
63192 Par ch=6 c=11 v=71
63208 Par ch=6 c=11 v=72
63228 Par ch=6 c=11 v=73
63244 Par ch=6 c=11 v=74
63260 Par ch=6 c=11 v=75
63264 On ch=6 n=76 v=0
63264 On ch=6 n=64 v=0
63264 On ch=6 n=65 v=31
63264 On ch=6 n=77 v=31
63276 Par ch=6 c=11 v=76
63296 Par ch=6 c=11 v=77
63312 On ch=6 n=77 v=0
63312 On ch=6 n=65 v=0
63312 Par ch=6 c=11 v=78
63312 On ch=6 n=74 v=31
63312 On ch=6 n=86 v=31
63328 Par ch=6 c=11 v=79
63344 Par ch=6 c=11 v=80
63360 On ch=6 n=86 v=0
63360 On ch=6 n=74 v=0
63360 On ch=6 n=74 v=31
63360 On ch=6 n=86 v=31
63456 On ch=6 n=86 v=0
63456 On ch=6 n=74 v=0
63456 Par ch=6 c=11 v=80
63456 On ch=6 n=68 v=31
63456 On ch=6 n=80 v=31
63472 Par ch=6 c=11 v=79
63488 Par ch=6 c=11 v=78
63504 Par ch=6 c=11 v=77
63520 Par ch=6 c=11 v=76
63536 Par ch=6 c=11 v=75
63552 Par ch=6 c=11 v=74
63568 Par ch=6 c=11 v=73
63584 Par ch=6 c=11 v=72
63600 Par ch=6 c=11 v=71
63616 Par ch=6 c=11 v=70
63632 Par ch=6 c=11 v=69
63648 On ch=6 n=80 v=0
63648 On ch=6 n=68 v=0
63648 Par ch=6 c=11 v=68
63648 On ch=6 n=69 v=31
63648 On ch=6 n=81 v=31
63664 Par ch=6 c=11 v=67
63680 Par ch=6 c=11 v=66
63696 Par ch=6 c=11 v=65
63712 Par ch=6 c=11 v=64
63725 On ch=6 n=81 v=0
63725 On ch=6 n=69 v=0
63744 Par ch=6 c=11 v=64
63744 On ch=6 n=76 v=31
63744 On ch=6 n=88 v=31
63756 Par ch=6 c=11 v=65
63768 Par ch=6 c=11 v=66
63780 Par ch=6 c=11 v=67
63792 Par ch=6 c=11 v=68
63804 Par ch=6 c=11 v=69
63816 Par ch=6 c=11 v=70
63828 Par ch=6 c=11 v=71
63840 On ch=6 n=88 v=0
63840 On ch=6 n=76 v=0
63840 Par ch=6 c=11 v=72
63840 On ch=6 n=70 v=31
63840 On ch=6 n=82 v=31
63852 Par ch=6 c=11 v=73
63864 Par ch=6 c=11 v=74
63872 Par ch=6 c=11 v=75
63884 Par ch=6 c=11 v=76
63896 Par ch=6 c=11 v=77
63908 Par ch=6 c=11 v=78
63920 Par ch=6 c=11 v=79
63932 Par ch=6 c=11 v=80
63944 Par ch=6 c=11 v=81
63956 Par ch=6 c=11 v=82
63968 Par ch=6 c=11 v=83
63980 Par ch=6 c=11 v=84
63992 Par ch=6 c=11 v=85
64000 Par ch=6 c=11 v=86
64012 Par ch=6 c=11 v=87
64024 Par ch=6 c=11 v=88
64032 On ch=6 n=82 v=0
64032 On ch=6 n=70 v=0
64032 On ch=6 n=71 v=31
64032 On ch=6 n=83 v=31
64036 Par ch=6 c=11 v=89
64048 Par ch=6 c=11 v=90
64060 Par ch=6 c=11 v=91
64072 Par ch=6 c=11 v=92
64084 Par ch=6 c=11 v=93
64096 Par ch=6 c=11 v=94
64108 Par ch=6 c=11 v=95
64109 On ch=6 n=83 v=0
64109 On ch=6 n=71 v=0
64120 Par ch=6 c=11 v=96
64128 On ch=6 n=83 v=31
64128 On ch=6 n=88 v=31
64282 On ch=6 n=88 v=0
64282 On ch=6 n=83 v=0
64320 On ch=6 n=81 v=31
64320 On ch=6 n=84 v=31
64336 Par ch=6 c=11 v=96
64352 Par ch=6 c=11 v=97
64368 Par ch=6 c=11 v=98
64384 Par ch=6 c=11 v=99
64400 Par ch=6 c=11 v=100
64416 Par ch=6 c=11 v=101
64432 Par ch=6 c=11 v=102
64435 On ch=6 n=84 v=0
64435 On ch=6 n=81 v=0
64444 Par ch=6 c=11 v=103
64460 Par ch=6 c=11 v=104
64464 On ch=6 n=79 v=31
64464 On ch=6 n=83 v=31
64476 Par ch=6 c=11 v=105
64492 Par ch=6 c=11 v=106
64502 On ch=6 n=83 v=0
64502 On ch=6 n=79 v=0
64508 Par ch=6 c=11 v=107
64512 On ch=6 n=76 v=31
64512 On ch=6 n=81 v=31
64524 Par ch=6 c=11 v=108
64540 Par ch=6 c=11 v=109
64550 On ch=6 n=81 v=0
64550 On ch=6 n=76 v=0
64556 Par ch=6 c=11 v=110
64568 Par ch=6 c=11 v=111
64584 Par ch=6 c=11 v=112
64600 Par ch=6 c=11 v=113
64608 On ch=6 n=75 v=31
64608 On ch=6 n=78 v=31
64616 Par ch=6 c=11 v=114
64632 Par ch=6 c=11 v=115
64648 Par ch=6 c=11 v=116
64664 Par ch=6 c=11 v=117
64680 Par ch=6 c=11 v=118
64692 Par ch=6 c=11 v=119
64708 Par ch=6 c=11 v=120
64724 Par ch=6 c=11 v=121
64740 Par ch=6 c=11 v=122
64756 Par ch=6 c=11 v=123
64760 On ch=6 n=78 v=0
64760 On ch=6 n=75 v=0
64772 Par ch=6 c=11 v=124
64788 Par ch=6 c=11 v=125
64800 Par ch=6 c=11 v=126
64800 On ch=6 n=71 v=31
64838 On ch=6 n=71 v=0
64896 Par ch=6 c=11 v=64
64896 On ch=6 n=71 v=95
64896 On ch=6 n=83 v=95
65434 On ch=6 n=83 v=0
65434 On ch=6 n=71 v=0
65664 On ch=6 n=84 v=79
65664 On ch=6 n=76 v=79
65894 On ch=6 n=76 v=0
65894 On ch=6 n=84 v=0
65952 On ch=6 n=83 v=79
65952 On ch=6 n=76 v=79
66029 On ch=6 n=76 v=0
66029 On ch=6 n=83 v=0
66048 On ch=6 n=76 v=79
66048 On ch=6 n=81 v=79
66202 On ch=6 n=81 v=0
66202 On ch=6 n=76 v=0
66432 On ch=6 n=72 v=79
66432 On ch=6 n=81 v=79
66662 On ch=6 n=81 v=0
66662 On ch=6 n=72 v=0
66720 On ch=6 n=72 v=79
66720 On ch=6 n=79 v=79
66797 On ch=6 n=79 v=0
66797 On ch=6 n=72 v=0
66816 On ch=6 n=72 v=79
66816 On ch=6 n=77 v=79
66970 On ch=6 n=77 v=0
66970 On ch=6 n=72 v=0
67872 On ch=6 n=76 v=95
67903 On ch=6 n=76 v=0
67944 On ch=6 n=78 v=95
67960 On ch=6 n=78 v=0
67968 On ch=6 n=78 v=95
68045 On ch=6 n=78 v=0
68064 On ch=6 n=69 v=95
68095 On ch=6 n=69 v=0
68136 On ch=6 n=74 v=95
68152 On ch=6 n=74 v=0
68160 On ch=6 n=74 v=95
68237 On ch=6 n=74 v=0
68256 On ch=6 n=76 v=95
68277 On ch=6 n=76 v=0
68288 On ch=6 n=78 v=95
68309 On ch=6 n=78 v=0
68320 On ch=6 n=79 v=95
68341 On ch=6 n=79 v=0
68352 Par ch=6 c=11 v=64
68352 On ch=6 n=81 v=95
68376 Par ch=6 c=11 v=65
68400 Par ch=6 c=11 v=66
68420 Par ch=6 c=11 v=67
68429 On ch=6 n=81 v=0
68444 Par ch=6 c=11 v=68
68448 On ch=6 n=78 v=95
68468 Par ch=6 c=11 v=69
68469 On ch=6 n=78 v=0
68480 On ch=6 n=79 v=95
68488 Par ch=6 c=11 v=70
68501 On ch=6 n=79 v=0
68512 Par ch=6 c=11 v=71
68512 On ch=6 n=81 v=95
68533 On ch=6 n=81 v=0
68536 Par ch=6 c=11 v=72
68544 On ch=6 n=83 v=95
68556 Par ch=6 c=11 v=73
68580 Par ch=6 c=11 v=74
68604 Par ch=6 c=11 v=75
68621 On ch=6 n=83 v=0
68624 Par ch=6 c=11 v=76
68640 On ch=6 n=80 v=95
68648 Par ch=6 c=11 v=77
68661 On ch=6 n=80 v=0
68672 Par ch=6 c=11 v=78
68672 On ch=6 n=81 v=95
68692 Par ch=6 c=11 v=79
68693 On ch=6 n=81 v=0
68704 On ch=6 n=83 v=95
68716 Par ch=6 c=11 v=80
68725 On ch=6 n=83 v=0
68736 Par ch=6 c=11 v=64
68736 On ch=6 n=85 v=95
68784 Par ch=6 c=11 v=32
68890 On ch=6 n=85 v=0
69120 Par ch=6 c=11 v=64
69120 On ch=6 n=85 v=95
69144 Par ch=6 c=11 v=63
69158 On ch=6 n=85 v=0
69168 Par ch=6 c=11 v=62
69188 Par ch=6 c=11 v=61
69192 On ch=6 n=83 v=95
69211 On ch=6 n=83 v=0
69212 Par ch=6 c=11 v=60
69216 On ch=6 n=81 v=95
69236 Par ch=6 c=11 v=59
69254 On ch=6 n=81 v=0
69256 Par ch=6 c=11 v=58
69280 Par ch=6 c=11 v=57
69288 On ch=6 n=80 v=95
69304 Par ch=6 c=11 v=56
69307 On ch=6 n=80 v=0
69312 On ch=6 n=78 v=95
69324 Par ch=6 c=11 v=55
69348 Par ch=6 c=11 v=54
69350 On ch=6 n=78 v=0
69372 Par ch=6 c=11 v=53
69384 On ch=6 n=76 v=95
69392 Par ch=6 c=11 v=52
69403 On ch=6 n=76 v=0
69408 On ch=6 n=75 v=95
69416 Par ch=6 c=11 v=51
69440 Par ch=6 c=11 v=50
69446 On ch=6 n=75 v=0
69460 Par ch=6 c=11 v=49
69480 On ch=6 n=73 v=95
69484 Par ch=6 c=11 v=48
69499 On ch=6 n=73 v=0
69888 Par ch=6 c=11 v=64
69888 On ch=6 n=85 v=95
69912 Par ch=6 c=11 v=63
69926 On ch=6 n=85 v=0
69936 Par ch=6 c=11 v=62
69956 Par ch=6 c=11 v=61
69960 On ch=6 n=83 v=95
69979 On ch=6 n=83 v=0
69980 Par ch=6 c=11 v=60
69984 On ch=6 n=81 v=95
70004 Par ch=6 c=11 v=59
70022 On ch=6 n=81 v=0
70024 Par ch=6 c=11 v=58
70048 Par ch=6 c=11 v=57
70056 On ch=6 n=80 v=95
70072 Par ch=6 c=11 v=56
70075 On ch=6 n=80 v=0
70080 On ch=6 n=78 v=95
70092 Par ch=6 c=11 v=55
70116 Par ch=6 c=11 v=54
70118 On ch=6 n=78 v=0
70140 Par ch=6 c=11 v=53
70152 On ch=6 n=76 v=95
70160 Par ch=6 c=11 v=52
70171 On ch=6 n=76 v=0
70176 On ch=6 n=74 v=95
70184 Par ch=6 c=11 v=51
70208 Par ch=6 c=11 v=50
70214 On ch=6 n=74 v=0
70228 Par ch=6 c=11 v=49
70248 On ch=6 n=73 v=95
70252 Par ch=6 c=11 v=48
70267 On ch=6 n=73 v=0
70656 Par ch=6 c=11 v=64
70656 On ch=6 n=85 v=111
70704 Par ch=6 c=11 v=32
70810 On ch=6 n=85 v=0
71040 Par ch=6 c=11 v=64
71040 On ch=6 n=85 v=111
71088 Par ch=6 c=11 v=32
71194 On ch=6 n=85 v=0
71424 Par ch=6 c=11 v=64
71424 On ch=6 n=86 v=111
71520 On ch=6 n=86 v=0
71520 On ch=6 n=85 v=47
71674 On ch=6 n=85 v=0
71808 On ch=6 n=86 v=111
71904 On ch=6 n=86 v=0
71904 On ch=6 n=85 v=47
72058 On ch=6 n=85 v=0
72192 On ch=6 n=86 v=95
72288 On ch=6 n=86 v=0
72288 On ch=6 n=85 v=47
72442 On ch=6 n=85 v=0
74496 Par ch=6 c=11 v=64
74496 On ch=6 n=84 v=47
74496 On ch=6 n=81 v=47
74512 Par ch=6 c=11 v=65
74524 Par ch=6 c=11 v=66
74536 Par ch=6 c=11 v=67
74548 Par ch=6 c=11 v=68
74560 Par ch=6 c=11 v=69
74572 Par ch=6 c=11 v=70
74584 Par ch=6 c=11 v=71
74596 Par ch=6 c=11 v=72
74608 Par ch=6 c=11 v=73
74620 Par ch=6 c=11 v=74
74632 Par ch=6 c=11 v=75
74644 Par ch=6 c=11 v=76
74656 Par ch=6 c=11 v=77
74668 Par ch=6 c=11 v=78
74680 Par ch=6 c=11 v=79
74688 On ch=6 n=84 v=0
74688 On ch=6 n=85 v=47
74692 Par ch=6 c=11 v=80
74704 Par ch=6 c=11 v=81
74716 Par ch=6 c=11 v=82
74728 Par ch=6 c=11 v=83
74740 Par ch=6 c=11 v=84
74752 Par ch=6 c=11 v=85
74768 Par ch=6 c=11 v=86
74780 Par ch=6 c=11 v=87
74792 Par ch=6 c=11 v=88
74804 Par ch=6 c=11 v=89
74816 Par ch=6 c=11 v=90
74828 Par ch=6 c=11 v=91
74840 Par ch=6 c=11 v=92
74842 On ch=6 n=85 v=0
74842 On ch=6 n=81 v=0
74852 Par ch=6 c=11 v=93
74864 Par ch=6 c=11 v=94
74876 Par ch=6 c=11 v=95
74880 On ch=6 n=84 v=47
74880 On ch=6 n=81 v=47
74888 Par ch=6 c=11 v=96
74900 Par ch=6 c=11 v=97
74912 Par ch=6 c=11 v=98
74924 Par ch=6 c=11 v=99
74936 Par ch=6 c=11 v=100
74948 Par ch=6 c=11 v=101
74960 Par ch=6 c=11 v=102
74972 Par ch=6 c=11 v=103
74984 Par ch=6 c=11 v=104
74996 Par ch=6 c=11 v=105
75008 Par ch=6 c=11 v=106
75024 Par ch=6 c=11 v=107
75036 Par ch=6 c=11 v=108
75048 Par ch=6 c=11 v=109
75060 Par ch=6 c=11 v=110
75072 On ch=6 n=84 v=0
75072 Par ch=6 c=11 v=111
75072 On ch=6 n=85 v=47
75084 Par ch=6 c=11 v=112
75096 Par ch=6 c=11 v=113
75108 Par ch=6 c=11 v=114
75120 Par ch=6 c=11 v=115
75132 Par ch=6 c=11 v=116
75144 Par ch=6 c=11 v=117
75156 Par ch=6 c=11 v=118
75168 Par ch=6 c=11 v=119
75180 Par ch=6 c=11 v=120
75192 Par ch=6 c=11 v=121
75204 Par ch=6 c=11 v=122
75216 Par ch=6 c=11 v=123
75226 On ch=6 n=81 v=0
75228 Par ch=6 c=11 v=124
75240 Par ch=6 c=11 v=125
75252 Par ch=6 c=11 v=126
75264 On ch=6 n=85 v=0
75360 Par ch=6 c=11 v=64
75360 On ch=6 n=79 v=95
75477 On ch=6 n=79 v=0
75488 On ch=6 n=78 v=95
75509 On ch=6 n=78 v=0
75520 On ch=6 n=77 v=95
75541 On ch=6 n=77 v=0
75552 On ch=6 n=76 v=95
75573 On ch=6 n=76 v=0
75584 On ch=6 n=75 v=95
75605 On ch=6 n=75 v=0
75616 On ch=6 n=74 v=95
75637 On ch=6 n=74 v=0
75648 On ch=6 n=73 v=95
75669 On ch=6 n=73 v=0
75680 On ch=6 n=72 v=95
75701 On ch=6 n=72 v=0
75712 On ch=6 n=71 v=95
75733 On ch=6 n=71 v=0
75744 On ch=6 n=70 v=95
75765 On ch=6 n=70 v=0
75776 On ch=6 n=69 v=95
75797 On ch=6 n=69 v=0
75808 On ch=6 n=68 v=95
75829 On ch=6 n=68 v=0
75840 On ch=6 n=67 v=95
75878 On ch=6 n=67 v=0
76032 On ch=6 n=80 v=95
76262 On ch=6 n=80 v=0
76320 On ch=6 n=68 v=95
76351 On ch=6 n=68 v=0
76392 On ch=6 n=80 v=95
76408 On ch=6 n=80 v=0
76416 On ch=6 n=80 v=95
76493 On ch=6 n=80 v=0
76512 On ch=6 n=68 v=95
76543 On ch=6 n=68 v=0
76584 On ch=6 n=80 v=95
76600 On ch=6 n=80 v=0
76608 On ch=6 n=80 v=95
76685 On ch=6 n=80 v=0
76704 On ch=6 n=68 v=95
76735 On ch=6 n=68 v=0
76776 On ch=6 n=80 v=95
76792 On ch=6 n=80 v=0
76800 Par ch=6 c=11 v=64
76800 On ch=6 n=81 v=95
76812 Par ch=6 c=11 v=65
76820 Par ch=6 c=11 v=66
76828 Par ch=6 c=11 v=67
76836 Par ch=6 c=11 v=68
76848 Par ch=6 c=11 v=69
76856 Par ch=6 c=11 v=70
76864 Par ch=6 c=11 v=71
76872 Par ch=6 c=11 v=72
76884 Par ch=6 c=11 v=73
76892 Par ch=6 c=11 v=74
76900 Par ch=6 c=11 v=75
76908 Par ch=6 c=11 v=76
76920 Par ch=6 c=11 v=77
76928 Par ch=6 c=11 v=78
76936 Par ch=6 c=11 v=79
76944 Par ch=6 c=11 v=80
76982 On ch=6 n=81 v=0
77184 Par ch=6 c=11 v=64
77568 On ch=6 n=80 v=111
77664 On ch=6 n=80 v=0
77664 On ch=6 n=72 v=111
77856 On ch=6 n=72 v=0
77856 On ch=6 n=73 v=111
77933 On ch=6 n=73 v=0
77952 On ch=6 n=78 v=111
78048 On ch=6 n=78 v=0
78048 On ch=6 n=70 v=111
78240 On ch=6 n=70 v=0
78240 On ch=6 n=71 v=111
78317 On ch=6 n=71 v=0
78336 Par ch=6 c=11 v=64
78336 On ch=6 n=76 v=111
78360 Par ch=6 c=11 v=63
78384 Par ch=6 c=11 v=62
78404 Par ch=6 c=11 v=61
78428 Par ch=6 c=11 v=60
78432 On ch=6 n=76 v=0
78432 On ch=6 n=68 v=111
78452 Par ch=6 c=11 v=59
78472 Par ch=6 c=11 v=58
78496 Par ch=6 c=11 v=57
78520 Par ch=6 c=11 v=56
78540 Par ch=6 c=11 v=55
78564 Par ch=6 c=11 v=54
78588 Par ch=6 c=11 v=53
78608 Par ch=6 c=11 v=52
78624 On ch=6 n=68 v=0
78624 On ch=6 n=69 v=111
78632 Par ch=6 c=11 v=51
78656 Par ch=6 c=11 v=50
78676 Par ch=6 c=11 v=49
78700 Par ch=6 c=11 v=48
78701 On ch=6 n=69 v=0
78720 Par ch=6 c=11 v=47
78720 On ch=6 n=76 v=111
78744 Par ch=6 c=11 v=46
78768 Par ch=6 c=11 v=45
78788 Par ch=6 c=11 v=44
78812 Par ch=6 c=11 v=43
78816 On ch=6 n=76 v=0
78816 On ch=6 n=70 v=111
78836 Par ch=6 c=11 v=42
78856 Par ch=6 c=11 v=41
78880 Par ch=6 c=11 v=40
78904 Par ch=6 c=11 v=39
78924 Par ch=6 c=11 v=38
78948 Par ch=6 c=11 v=37
78972 Par ch=6 c=11 v=36
78992 Par ch=6 c=11 v=35
79008 On ch=6 n=70 v=0
79008 On ch=6 n=71 v=111
79016 Par ch=6 c=11 v=34
79040 Par ch=6 c=11 v=33
79060 Par ch=6 c=11 v=32
79085 On ch=6 n=71 v=0
79488 Par ch=6 c=11 v=64
80640 On ch=6 n=60 v=47
80832 On ch=6 n=60 v=0
80832 On ch=6 n=65 v=47
80928 On ch=6 n=65 v=0
80928 On ch=6 n=67 v=47
81024 On ch=6 n=67 v=0
81024 Par ch=6 c=11 v=64
81024 On ch=6 n=69 v=47
81048 Par ch=6 c=11 v=63
81072 Par ch=6 c=11 v=62
81092 Par ch=6 c=11 v=61
81116 Par ch=6 c=11 v=60
81140 Par ch=6 c=11 v=59
81160 Par ch=6 c=11 v=58
81184 Par ch=6 c=11 v=57
81208 Par ch=6 c=11 v=56
81228 Par ch=6 c=11 v=55
81252 Par ch=6 c=11 v=54
81276 Par ch=6 c=11 v=53
81296 Par ch=6 c=11 v=52
81320 Par ch=6 c=11 v=51
81344 Par ch=6 c=11 v=50
81364 Par ch=6 c=11 v=49
81388 Par ch=6 c=11 v=48
81408 On ch=6 n=69 v=0
81408 On ch=6 n=67 v=47
81485 On ch=6 n=67 v=0
81792 Par ch=6 c=11 v=64
82944 On ch=6 n=60 v=47
83328 On ch=6 n=60 v=0
83328 On ch=6 n=61 v=47
83405 On ch=6 n=61 v=0
84864 On ch=6 n=66 v=31
84864 On ch=6 n=54 v=31
85056 On ch=6 n=54 v=0
85056 On ch=6 n=66 v=0
85056 On ch=6 n=70 v=31
85056 On ch=6 n=58 v=31
85152 On ch=6 n=58 v=0
85152 On ch=6 n=70 v=0
85152 On ch=6 n=73 v=31
85152 On ch=6 n=61 v=31
85248 On ch=6 n=61 v=0
85248 On ch=6 n=73 v=0
85248 Par ch=6 c=11 v=64
85248 On ch=6 n=75 v=31
85248 On ch=6 n=63 v=31
85272 Par ch=6 c=11 v=63
85296 Par ch=6 c=11 v=62
85316 Par ch=6 c=11 v=61
85340 Par ch=6 c=11 v=60
85344 On ch=6 n=63 v=0
85344 On ch=6 n=75 v=0
85344 On ch=6 n=77 v=31
85344 On ch=6 n=65 v=31
85364 Par ch=6 c=11 v=59
85384 Par ch=6 c=11 v=58
85408 Par ch=6 c=11 v=57
85432 Par ch=6 c=11 v=56
85440 On ch=6 n=65 v=0
85440 On ch=6 n=77 v=0
85440 On ch=6 n=78 v=31
85440 On ch=6 n=66 v=31
85452 Par ch=6 c=11 v=55
85476 Par ch=6 c=11 v=54
85500 Par ch=6 c=11 v=53
85520 Par ch=6 c=11 v=52
85536 On ch=6 n=66 v=0
85536 On ch=6 n=78 v=0
85536 On ch=6 n=80 v=31
85536 On ch=6 n=68 v=31
85544 Par ch=6 c=11 v=51
85568 Par ch=6 c=11 v=50
85584 On ch=6 n=68 v=0
85584 On ch=6 n=80 v=0
85584 On ch=6 n=82 v=31
85584 On ch=6 n=70 v=31
85588 Par ch=6 c=11 v=49
85612 Par ch=6 c=11 v=48
85622 On ch=6 n=70 v=0
85622 On ch=6 n=82 v=0
85632 On ch=6 n=78 v=47
85632 On ch=6 n=75 v=47
85862 On ch=6 n=75 v=0
85862 On ch=6 n=78 v=0
86016 Par ch=6 c=11 v=64
88224 On ch=6 n=66 v=47
88255 On ch=6 n=66 v=0
88320 On ch=6 n=75 v=47
88320 On ch=6 n=78 v=47
88416 On ch=6 n=78 v=0
88416 On ch=6 n=75 v=0
88416 On ch=6 n=73 v=47
88416 On ch=6 n=76 v=47
88447 On ch=6 n=76 v=0
88447 On ch=6 n=73 v=0
88488 On ch=6 n=71 v=47
88488 On ch=6 n=75 v=47
88504 On ch=6 n=75 v=0
88504 On ch=6 n=71 v=0
88512 On ch=6 n=71 v=47
88512 On ch=6 n=75 v=47
88608 On ch=6 n=75 v=0
88608 On ch=6 n=71 v=0
88608 On ch=6 n=66 v=47
88608 On ch=6 n=73 v=47
88639 On ch=6 n=73 v=0
88639 On ch=6 n=66 v=0
88680 On ch=6 n=63 v=47
88680 On ch=6 n=71 v=47
88696 On ch=6 n=71 v=0
88696 On ch=6 n=63 v=0
88704 On ch=6 n=63 v=47
88704 On ch=6 n=71 v=47
88800 On ch=6 n=71 v=0
88800 On ch=6 n=63 v=0
88800 On ch=6 n=66 v=47
88934 On ch=6 n=66 v=0
88992 On ch=6 n=66 v=47
89030 On ch=6 n=66 v=0
89088 On ch=6 n=75 v=47
89088 On ch=6 n=78 v=47
89126 On ch=6 n=78 v=0
89126 On ch=6 n=75 v=0
89136 On ch=6 n=76 v=47
89136 On ch=6 n=80 v=47
89174 On ch=6 n=80 v=0
89174 On ch=6 n=76 v=0
89184 On ch=6 n=75 v=47
89184 On ch=6 n=78 v=47
89222 On ch=6 n=78 v=0
89222 On ch=6 n=75 v=0
89232 On ch=6 n=73 v=47
89232 On ch=6 n=76 v=47
89270 On ch=6 n=76 v=0
89270 On ch=6 n=73 v=0
89280 On ch=6 n=71 v=47
89280 On ch=6 n=75 v=47
89318 On ch=6 n=75 v=0
89318 On ch=6 n=71 v=0
89328 On ch=6 n=73 v=47
89328 On ch=6 n=76 v=47
89366 On ch=6 n=76 v=0
89366 On ch=6 n=73 v=0
89376 On ch=6 n=71 v=47
89376 On ch=6 n=75 v=47
89414 On ch=6 n=75 v=0
89414 On ch=6 n=71 v=0
89424 On ch=6 n=66 v=47
89424 On ch=6 n=73 v=47
89462 On ch=6 n=73 v=0
89462 On ch=6 n=66 v=0
89472 On ch=6 n=63 v=47
89472 On ch=6 n=71 v=47
89568 On ch=6 n=71 v=0
89568 On ch=6 n=63 v=0
89568 On ch=6 n=66 v=47
89722 On ch=6 n=66 v=0
90240 On ch=6 n=78 v=47
90240 On ch=6 n=75 v=47
90288 On ch=6 n=75 v=0
90288 On ch=6 n=78 v=0
90288 On ch=6 n=80 v=47
90288 On ch=6 n=76 v=47
90326 On ch=6 n=76 v=0
90326 On ch=6 n=80 v=0
90336 On ch=6 n=76 v=47
90336 On ch=6 n=73 v=47
90367 On ch=6 n=73 v=0
90367 On ch=6 n=76 v=0
90408 On ch=6 n=75 v=47
90408 On ch=6 n=71 v=47
90424 On ch=6 n=71 v=0
90424 On ch=6 n=75 v=0
90432 On ch=6 n=75 v=47
90432 On ch=6 n=71 v=47
90509 On ch=6 n=71 v=0
90509 On ch=6 n=75 v=0
91488 On ch=6 n=54 v=31
91519 On ch=6 n=54 v=0
91560 On ch=6 n=51 v=31
91576 On ch=6 n=51 v=0
91584 On ch=6 n=51 v=31
91738 On ch=6 n=51 v=0
91872 On ch=6 n=54 v=31
91903 On ch=6 n=54 v=0
91944 On ch=6 n=51 v=31
91960 On ch=6 n=51 v=0
91968 On ch=6 n=51 v=31
92122 On ch=6 n=51 v=0
93984 On ch=6 n=51 v=111
94848 Par ch=6 c=11 v=64
94860 Par ch=6 c=11 v=63
94872 Par ch=6 c=11 v=62
94884 Par ch=6 c=11 v=61
94896 Par ch=6 c=11 v=60
94908 Par ch=6 c=11 v=59
94916 Par ch=6 c=11 v=58
94928 Par ch=6 c=11 v=57
94940 Par ch=6 c=11 v=56
94952 Par ch=6 c=11 v=55
94964 Par ch=6 c=11 v=54
94976 Par ch=6 c=11 v=53
94984 Par ch=6 c=11 v=52
94996 Par ch=6 c=11 v=51
95008 Par ch=6 c=11 v=50
95020 Par ch=6 c=11 v=49
95032 Par ch=6 c=11 v=48
95040 Par ch=6 c=11 v=47
95052 Par ch=6 c=11 v=46
95064 Par ch=6 c=11 v=45
95076 Par ch=6 c=11 v=44
95088 Par ch=6 c=11 v=43
95100 Par ch=6 c=11 v=42
95108 Par ch=6 c=11 v=41
95120 Par ch=6 c=11 v=40
95132 Par ch=6 c=11 v=39
95144 Par ch=6 c=11 v=38
95156 Par ch=6 c=11 v=37
95168 Par ch=6 c=11 v=36
95176 Par ch=6 c=11 v=35
95188 Par ch=6 c=11 v=34
95200 Par ch=6 c=11 v=33
95212 Par ch=6 c=11 v=32
95386 On ch=6 n=51 v=0
95616 Par ch=6 c=11 v=64
102000 On ch=6 n=65 v=47
102031 On ch=6 n=65 v=0
102048 On ch=6 n=66 v=47
102069 On ch=6 n=66 v=0
102080 On ch=6 n=65 v=47
102101 On ch=6 n=65 v=0
102112 On ch=6 n=63 v=47
102133 On ch=6 n=63 v=0
102144 On ch=6 n=61 v=47
102175 On ch=6 n=61 v=0
102216 On ch=6 n=65 v=47
102232 On ch=6 n=65 v=0
102240 On ch=6 n=70 v=47
102394 On ch=6 n=70 v=0
102816 On ch=6 n=72 v=47
102837 On ch=6 n=72 v=0
102848 On ch=6 n=73 v=47
102869 On ch=6 n=73 v=0
102880 On ch=6 n=75 v=47
102901 On ch=6 n=75 v=0
102912 On ch=6 n=68 v=47
102943 On ch=6 n=68 v=0
102984 On ch=6 n=73 v=47
103000 On ch=6 n=73 v=0
103008 On ch=6 n=80 v=47
103046 On ch=6 n=80 v=0
104448 On ch=6 n=83 v=47
104448 On ch=6 n=71 v=47
104602 On ch=6 n=71 v=0
104602 On ch=6 n=83 v=0
104704 On ch=6 n=83 v=47
104704 On ch=6 n=71 v=47
104725 On ch=6 n=71 v=0
104725 On ch=6 n=83 v=0
104736 On ch=6 n=85 v=47
104736 On ch=6 n=73 v=47
104757 On ch=6 n=73 v=0
104757 On ch=6 n=85 v=0
104768 On ch=6 n=83 v=47
104768 On ch=6 n=71 v=47
104789 On ch=6 n=71 v=0
104789 On ch=6 n=83 v=0
104800 On ch=6 n=82 v=47
104800 On ch=6 n=70 v=47
104821 On ch=6 n=70 v=0
104821 On ch=6 n=82 v=0
104832 On ch=6 n=83 v=47
104832 On ch=6 n=71 v=47
104863 On ch=6 n=71 v=0
104863 On ch=6 n=83 v=0
104904 On ch=6 n=80 v=47
104904 On ch=6 n=68 v=47
104920 On ch=6 n=68 v=0
104920 On ch=6 n=80 v=0
104928 On ch=6 n=71 v=47
104928 On ch=6 n=59 v=47
104966 On ch=6 n=59 v=0
104966 On ch=6 n=71 v=0
105984 Par ch=6 c=11 v=64
105984 On ch=6 n=65 v=47
105984 On ch=6 n=61 v=47
105992 Par ch=6 c=11 v=65
106000 Par ch=6 c=11 v=66
106008 Par ch=6 c=11 v=67
106016 Par ch=6 c=11 v=68
106024 Par ch=6 c=11 v=69
106032 Par ch=6 c=11 v=70
106040 Par ch=6 c=11 v=71
106048 Par ch=6 c=11 v=72
106056 Par ch=6 c=11 v=73
106064 Par ch=6 c=11 v=74
106072 Par ch=6 c=11 v=75
106080 Par ch=6 c=11 v=76
106088 Par ch=6 c=11 v=77
106096 Par ch=6 c=11 v=78
106104 Par ch=6 c=11 v=79
106112 Par ch=6 c=11 v=80
106120 Par ch=6 c=11 v=81
106128 Par ch=6 c=11 v=82
106136 Par ch=6 c=11 v=83
106138 On ch=6 n=61 v=0
106138 On ch=6 n=65 v=0
106144 Par ch=6 c=11 v=84
106152 Par ch=6 c=11 v=85
106160 Par ch=6 c=11 v=86
106168 Par ch=6 c=11 v=87
106176 Par ch=6 c=11 v=88
106176 On ch=6 n=68 v=47
106176 On ch=6 n=63 v=47
106180 Par ch=6 c=11 v=89
106188 Par ch=6 c=11 v=90
106196 Par ch=6 c=11 v=91
106204 Par ch=6 c=11 v=92
106212 Par ch=6 c=11 v=93
106220 Par ch=6 c=11 v=94
106228 Par ch=6 c=11 v=95
106236 Par ch=6 c=11 v=96
106244 Par ch=6 c=11 v=97
106252 Par ch=6 c=11 v=98
106253 On ch=6 n=63 v=0
106253 On ch=6 n=68 v=0
106260 Par ch=6 c=11 v=99
106268 Par ch=6 c=11 v=100
106272 On ch=6 n=64 v=47
106272 On ch=6 n=60 v=47
106276 Par ch=6 c=11 v=101
106284 Par ch=6 c=11 v=102
106292 Par ch=6 c=11 v=103
106300 Par ch=6 c=11 v=104
106308 Par ch=6 c=11 v=105
106316 Par ch=6 c=11 v=106
106324 Par ch=6 c=11 v=107
106332 Par ch=6 c=11 v=108
106340 Par ch=6 c=11 v=109
106348 Par ch=6 c=11 v=110
106349 On ch=6 n=60 v=0
106349 On ch=6 n=64 v=0
106356 Par ch=6 c=11 v=111
106364 Par ch=6 c=11 v=112
106368 Par ch=6 c=11 v=64
106368 On ch=6 n=65 v=95
106368 On ch=6 n=60 v=95
106522 On ch=6 n=60 v=0
106522 On ch=6 n=65 v=0
106752 On ch=6 n=65 v=111
106752 On ch=6 n=61 v=111
106906 On ch=6 n=61 v=0
106906 On ch=6 n=65 v=0
107040 On ch=6 n=65 v=111
107040 On ch=6 n=60 v=111
107117 On ch=6 n=60 v=0
107117 On ch=6 n=65 v=0
107136 On ch=6 n=65 v=111
107136 On ch=6 n=61 v=111
107174 On ch=6 n=61 v=0
107174 On ch=6 n=65 v=0
107520 On ch=6 n=70 v=111
107674 On ch=6 n=70 v=0
107776 On ch=6 n=70 v=111
107797 On ch=6 n=70 v=0
107808 On ch=6 n=71 v=111
107829 On ch=6 n=71 v=0
107840 On ch=6 n=70 v=111
107861 On ch=6 n=70 v=0
107872 On ch=6 n=68 v=111
107893 On ch=6 n=68 v=0
107904 On ch=6 n=70 v=127
107935 On ch=6 n=70 v=0
107976 On ch=6 n=73 v=127
107992 On ch=6 n=73 v=0
108000 On ch=6 n=78 v=127
108154 On ch=6 n=78 v=0
108960 Par ch=6 c=11 v=64
108960 On ch=6 n=77 v=47
108972 Par ch=6 c=11 v=65
108980 Par ch=6 c=11 v=66
108992 Par ch=6 c=11 v=67
109000 Par ch=6 c=11 v=68
109012 Par ch=6 c=11 v=69
109020 Par ch=6 c=11 v=70
109032 Par ch=6 c=11 v=71
109037 On ch=6 n=77 v=0
109040 Par ch=6 c=11 v=72
109052 Par ch=6 c=11 v=73
109056 On ch=6 n=79 v=47
109060 Par ch=6 c=11 v=74
109068 Par ch=6 c=11 v=75
109080 Par ch=6 c=11 v=76
109088 Par ch=6 c=11 v=77
109100 Par ch=6 c=11 v=78
109108 Par ch=6 c=11 v=79
109120 Par ch=6 c=11 v=80
109128 Par ch=6 c=11 v=81
109133 On ch=6 n=79 v=0
109140 Par ch=6 c=11 v=82
109148 Par ch=6 c=11 v=83
109152 On ch=6 n=82 v=47
109156 Par ch=6 c=11 v=84
109168 Par ch=6 c=11 v=85
109176 Par ch=6 c=11 v=86
109188 Par ch=6 c=11 v=87
109196 Par ch=6 c=11 v=88
109208 Par ch=6 c=11 v=89
109216 Par ch=6 c=11 v=90
109228 Par ch=6 c=11 v=91
109229 On ch=6 n=82 v=0
109236 Par ch=6 c=11 v=92
109248 Par ch=6 c=11 v=93
109248 On ch=6 n=87 v=47
109256 Par ch=6 c=11 v=94
109264 Par ch=6 c=11 v=95
109276 Par ch=6 c=11 v=96
109284 Par ch=6 c=11 v=97
109296 Par ch=6 c=11 v=98
109304 Par ch=6 c=11 v=99
109316 Par ch=6 c=11 v=100
109324 Par ch=6 c=11 v=101
109325 On ch=6 n=87 v=0
109336 Par ch=6 c=11 v=102
109344 Par ch=6 c=11 v=103
109344 On ch=6 n=86 v=47
109352 Par ch=6 c=11 v=104
109364 Par ch=6 c=11 v=105
109372 Par ch=6 c=11 v=106
109375 On ch=6 n=86 v=0
109384 Par ch=6 c=11 v=107
109392 Par ch=6 c=11 v=108
109404 Par ch=6 c=11 v=109
109412 Par ch=6 c=11 v=110
109416 On ch=6 n=84 v=47
109424 Par ch=6 c=11 v=111
109432 On ch=6 n=84 v=0
109432 Par ch=6 c=11 v=112
109440 On ch=6 n=82 v=47
109747 On ch=6 n=82 v=0
109824 Par ch=6 c=11 v=64
109824 On ch=6 n=94 v=111
109978 On ch=6 n=94 v=0
110016 On ch=6 n=87 v=111
110285 On ch=6 n=87 v=0
110304 On ch=6 n=89 v=111
110381 On ch=6 n=89 v=0
110400 On ch=6 n=91 v=111
110477 On ch=6 n=91 v=0
110496 On ch=6 n=92 v=111
110573 On ch=6 n=92 v=0
110592 Par ch=6 c=11 v=64
110592 On ch=6 n=82 v=47
110600 Par ch=6 c=11 v=65
110608 Par ch=6 c=11 v=66
110612 Par ch=6 c=11 v=67
110620 Par ch=6 c=11 v=68
110624 Par ch=6 c=11 v=69
110632 Par ch=6 c=11 v=70
110636 Par ch=6 c=11 v=71
110644 Par ch=6 c=11 v=72
110648 Par ch=6 c=11 v=73
110656 Par ch=6 c=11 v=74
110660 Par ch=6 c=11 v=75
110668 Par ch=6 c=11 v=76
110672 Par ch=6 c=11 v=77
110680 Par ch=6 c=11 v=78
110684 Par ch=6 c=11 v=79
110692 Par ch=6 c=11 v=80
110696 Par ch=6 c=11 v=81
110704 Par ch=6 c=11 v=82
110708 Par ch=6 c=11 v=83
110716 Par ch=6 c=11 v=84
110720 Par ch=6 c=11 v=85
110728 Par ch=6 c=11 v=86
110736 Par ch=6 c=11 v=87
110740 Par ch=6 c=11 v=88
110748 Par ch=6 c=11 v=89
110752 Par ch=6 c=11 v=90
110760 Par ch=6 c=11 v=91
110764 Par ch=6 c=11 v=92
110772 Par ch=6 c=11 v=93
110776 Par ch=6 c=11 v=94
110784 Par ch=6 c=11 v=95
110788 Par ch=6 c=11 v=96
110796 Par ch=6 c=11 v=97
110800 Par ch=6 c=11 v=98
110808 Par ch=6 c=11 v=99
110812 Par ch=6 c=11 v=100
110820 Par ch=6 c=11 v=101
110824 Par ch=6 c=11 v=102
110832 Par ch=6 c=11 v=103
110836 Par ch=6 c=11 v=104
110844 Par ch=6 c=11 v=105
110848 Par ch=6 c=11 v=106
110856 Par ch=6 c=11 v=107
110864 Par ch=6 c=11 v=108
110868 Par ch=6 c=11 v=109
110876 Par ch=6 c=11 v=110
110880 Par ch=6 c=11 v=111
110888 Par ch=6 c=11 v=112
110892 Par ch=6 c=11 v=113
110900 Par ch=6 c=11 v=114
110904 Par ch=6 c=11 v=115
110912 Par ch=6 c=11 v=116
110916 Par ch=6 c=11 v=117
110924 Par ch=6 c=11 v=118
110928 Par ch=6 c=11 v=119
110936 Par ch=6 c=11 v=120
110940 Par ch=6 c=11 v=121
110948 Par ch=6 c=11 v=122
110952 Par ch=6 c=11 v=123
110960 Par ch=6 c=11 v=124
110964 Par ch=6 c=11 v=125
110972 Par ch=6 c=11 v=126
111053 On ch=6 n=82 v=0
111072 Par ch=6 c=11 v=64
111072 On ch=6 n=80 v=111
111110 On ch=6 n=80 v=0
111120 On ch=6 n=78 v=111
111158 On ch=6 n=78 v=0
111168 On ch=6 n=77 v=111
111245 On ch=6 n=77 v=0
111264 On ch=6 n=75 v=111
111341 On ch=6 n=75 v=0
111360 On ch=6 n=83 v=111
111412 Par ch=6 c=11 v=16
111416 Par ch=6 c=11 v=17
111420 Par ch=6 c=11 v=19
111424 Par ch=6 c=11 v=20
111428 Par ch=6 c=11 v=21
111432 Par ch=6 c=11 v=23
111436 Par ch=6 c=11 v=24
111440 Par ch=6 c=11 v=26
111444 Par ch=6 c=11 v=27
111448 Par ch=6 c=11 v=28
111452 Par ch=6 c=11 v=30
111456 Par ch=6 c=11 v=31
111460 Par ch=6 c=11 v=33
111464 Par ch=6 c=11 v=34
111468 Par ch=6 c=11 v=35
111472 Par ch=6 c=11 v=37
111476 Par ch=6 c=11 v=38
111480 Par ch=6 c=11 v=40
111484 Par ch=6 c=11 v=41
111488 Par ch=6 c=11 v=42
111492 Par ch=6 c=11 v=44
111496 Par ch=6 c=11 v=45
111500 Par ch=6 c=11 v=46
111504 Par ch=6 c=11 v=48
111508 Par ch=6 c=11 v=49
111512 Par ch=6 c=11 v=51
111516 Par ch=6 c=11 v=52
111520 Par ch=6 c=11 v=53
111524 Par ch=6 c=11 v=55
111528 Par ch=6 c=11 v=56
111532 Par ch=6 c=11 v=58
111536 Par ch=6 c=11 v=59
111540 Par ch=6 c=11 v=60
111544 Par ch=6 c=11 v=62
111548 Par ch=6 c=11 v=63
111552 Par ch=6 c=11 v=64
111590 On ch=6 n=83 v=0
111600 On ch=6 n=87 v=111
111638 On ch=6 n=87 v=0
111648 On ch=6 n=85 v=111
111686 On ch=6 n=85 v=0
111696 On ch=6 n=83 v=111
111734 On ch=6 n=83 v=0
111744 On ch=6 n=78 v=111
111744 On ch=6 n=72 v=111
112051 On ch=6 n=72 v=0
112051 On ch=6 n=78 v=0
112416 On ch=6 n=82 v=111
112416 On ch=6 n=70 v=111
112437 On ch=6 n=70 v=0
112437 On ch=6 n=82 v=0
112448 On ch=6 n=78 v=111
112448 On ch=6 n=66 v=111
112469 On ch=6 n=66 v=0
112469 On ch=6 n=78 v=0
112480 On ch=6 n=82 v=111
112480 On ch=6 n=70 v=111
112493 On ch=6 n=70 v=0
112501 On ch=6 n=82 v=0
112512 On ch=6 n=72 v=111
112512 On ch=6 n=78 v=111
112819 On ch=6 n=78 v=0
112819 On ch=6 n=72 v=0
113184 On ch=6 n=82 v=111
113184 On ch=6 n=70 v=111
113210 On ch=6 n=70 v=0
113210 On ch=6 n=82 v=0
113216 On ch=6 n=78 v=111
113216 On ch=6 n=66 v=111
113242 On ch=6 n=66 v=0
113242 On ch=6 n=78 v=0
113248 On ch=6 n=82 v=111
113248 On ch=6 n=70 v=111
113261 On ch=6 n=70 v=0
113274 On ch=6 n=82 v=0
113280 On ch=6 n=80 v=127
113280 On ch=6 n=76 v=127
113376 On ch=6 n=76 v=0
113376 On ch=6 n=80 v=0
113376 On ch=6 n=78 v=127
113376 On ch=6 n=74 v=127
113472 On ch=6 n=74 v=0
113472 On ch=6 n=75 v=127
113568 On ch=6 n=75 v=0
113568 On ch=6 n=74 v=127
113606 On ch=6 n=78 v=0
113645 On ch=6 n=74 v=0
113664 Par ch=6 c=11 v=64
113664 On ch=6 n=82 v=127
113664 On ch=6 n=77 v=127
113688 Par ch=6 c=11 v=65
113712 Par ch=6 c=11 v=66
113732 Par ch=6 c=11 v=67
113756 Par ch=6 c=11 v=68
113760 On ch=6 n=77 v=0
113760 On ch=6 n=82 v=0
113760 On ch=6 n=80 v=127
113760 On ch=6 n=76 v=127
113780 Par ch=6 c=11 v=69
113800 Par ch=6 c=11 v=70
113824 Par ch=6 c=11 v=71
113848 Par ch=6 c=11 v=72
113856 On ch=6 n=76 v=0
113856 On ch=6 n=80 v=0
113856 On ch=6 n=81 v=127
113856 On ch=6 n=77 v=127
113868 Par ch=6 c=11 v=73
113892 Par ch=6 c=11 v=74
113916 Par ch=6 c=11 v=75
113936 Par ch=6 c=11 v=76
113952 On ch=6 n=77 v=0
113952 On ch=6 n=81 v=0
113952 On ch=6 n=80 v=127
113952 On ch=6 n=76 v=127
113960 Par ch=6 c=11 v=77
113984 Par ch=6 c=11 v=78
114004 Par ch=6 c=11 v=79
114028 Par ch=6 c=11 v=80
114029 On ch=6 n=76 v=0
114029 On ch=6 n=80 v=0
114048 Par ch=6 c=11 v=64
114048 On ch=6 n=75 v=111
114096 Par ch=6 c=11 v=32
114144 On ch=6 n=75 v=0
114144 On ch=6 n=74 v=111
114288 On ch=6 n=74 v=0
114288 Par ch=6 c=11 v=64
114288 On ch=6 n=78 v=111
114336 On ch=6 n=78 v=0
114336 On ch=6 n=77 v=111
114384 On ch=6 n=77 v=0
114384 On ch=6 n=68 v=111
114422 On ch=6 n=68 v=0
114432 On ch=6 n=68 v=111
114480 On ch=6 n=68 v=0
114480 On ch=6 n=67 v=111
114528 On ch=6 n=67 v=0
114528 On ch=6 n=77 v=111
114576 On ch=6 n=77 v=0
114576 On ch=6 n=75 v=111
114624 On ch=6 n=75 v=0
114624 On ch=6 n=66 v=111
114672 On ch=6 n=66 v=0
114672 On ch=6 n=74 v=111
114720 On ch=6 n=74 v=0
114720 On ch=6 n=73 v=111
114768 On ch=6 n=73 v=0
114768 On ch=6 n=65 v=111
114806 On ch=6 n=65 v=0
114816 On ch=6 n=65 v=111
114864 On ch=6 n=65 v=0
114864 On ch=6 n=64 v=111
114912 On ch=6 n=64 v=0
114912 On ch=6 n=72 v=111
114960 On ch=6 n=72 v=0
114960 On ch=6 n=71 v=111
115008 On ch=6 n=71 v=0
115008 On ch=6 n=63 v=111
115056 On ch=6 n=63 v=0
115056 On ch=6 n=62 v=111
115104 On ch=6 n=62 v=0
115104 On ch=6 n=70 v=111
115152 On ch=6 n=70 v=0
115152 On ch=6 n=69 v=111
115190 On ch=6 n=69 v=0
115200 Par ch=6 c=11 v=64
115200 On ch=6 n=68 v=111
115212 Par ch=6 c=11 v=63
115224 Par ch=6 c=11 v=62
115236 Par ch=6 c=11 v=61
115248 Par ch=6 c=11 v=60
115260 Par ch=6 c=11 v=59
115268 Par ch=6 c=11 v=58
115280 Par ch=6 c=11 v=57
115292 Par ch=6 c=11 v=56
115304 Par ch=6 c=11 v=55
115316 Par ch=6 c=11 v=54
115328 Par ch=6 c=11 v=53
115336 Par ch=6 c=11 v=52
115348 Par ch=6 c=11 v=51
115360 Par ch=6 c=11 v=50
115372 Par ch=6 c=11 v=49
115384 Par ch=6 c=11 v=48
115392 On ch=6 n=68 v=0
115392 Par ch=6 c=11 v=47
115392 On ch=6 n=66 v=111
115404 Par ch=6 c=11 v=46
115416 Par ch=6 c=11 v=45
115428 Par ch=6 c=11 v=44
115440 Par ch=6 c=11 v=43
115452 Par ch=6 c=11 v=42
115460 Par ch=6 c=11 v=41
115472 Par ch=6 c=11 v=40
115484 Par ch=6 c=11 v=39
115496 Par ch=6 c=11 v=38
115508 Par ch=6 c=11 v=37
115520 Par ch=6 c=11 v=36
115528 Par ch=6 c=11 v=35
115540 Par ch=6 c=11 v=34
115552 Par ch=6 c=11 v=33
115564 Par ch=6 c=11 v=32
115584 Par ch=6 c=11 v=32
115596 Par ch=6 c=11 v=33
115608 Par ch=6 c=11 v=34
115620 Par ch=6 c=11 v=35
115632 Par ch=6 c=11 v=36
115644 Par ch=6 c=11 v=37
115656 Par ch=6 c=11 v=38
115660 On ch=6 n=66 v=0
115668 Par ch=6 c=11 v=39
115680 Par ch=6 c=11 v=40
115680 On ch=6 n=64 v=111
115692 Par ch=6 c=11 v=41
115704 Par ch=6 c=11 v=42
115712 Par ch=6 c=11 v=43
115724 Par ch=6 c=11 v=44
115736 Par ch=6 c=11 v=45
115748 Par ch=6 c=11 v=46
115756 On ch=6 n=64 v=0
115760 Par ch=6 c=11 v=47
115772 Par ch=6 c=11 v=48
115776 On ch=6 n=63 v=111
115784 Par ch=6 c=11 v=49
115796 Par ch=6 c=11 v=50
115808 Par ch=6 c=11 v=51
115820 Par ch=6 c=11 v=52
115832 Par ch=6 c=11 v=53
115840 Par ch=6 c=11 v=54
115852 On ch=6 n=63 v=0
115852 Par ch=6 c=11 v=55
115864 Par ch=6 c=11 v=56
115872 On ch=6 n=62 v=111
115876 Par ch=6 c=11 v=57
115888 Par ch=6 c=11 v=58
115900 Par ch=6 c=11 v=59
115912 Par ch=6 c=11 v=60
115924 Par ch=6 c=11 v=61
115936 Par ch=6 c=11 v=62
115948 On ch=6 n=62 v=0
115948 Par ch=6 c=11 v=63
115960 Par ch=6 c=11 v=64
115968 On ch=6 n=68 v=111
116160 On ch=6 n=68 v=0
116160 On ch=6 n=66 v=111
116428 On ch=6 n=66 v=0
116448 Par ch=6 c=11 v=64
116448 On ch=6 n=65 v=111
116468 Par ch=6 c=11 v=63
116484 Par ch=6 c=11 v=62
116500 Par ch=6 c=11 v=61
116516 Par ch=6 c=11 v=60
116524 On ch=6 n=65 v=0
116536 Par ch=6 c=11 v=59
116544 On ch=6 n=64 v=111
116552 Par ch=6 c=11 v=58
116568 Par ch=6 c=11 v=57
116584 Par ch=6 c=11 v=56
116604 Par ch=6 c=11 v=55
116620 On ch=6 n=64 v=0
116620 Par ch=6 c=11 v=54
116636 Par ch=6 c=11 v=53
116640 On ch=6 n=63 v=111
116652 Par ch=6 c=11 v=52
116672 Par ch=6 c=11 v=51
116688 Par ch=6 c=11 v=50
116704 Par ch=6 c=11 v=49
116716 On ch=6 n=63 v=0
116720 Par ch=6 c=11 v=48
116736 Par ch=6 c=11 v=64
116736 On ch=6 n=70 v=79
116736 On ch=6 n=63 v=79
116784 Par ch=6 c=11 v=63
116828 Par ch=6 c=11 v=62
116872 Par ch=6 c=11 v=61
116920 Par ch=6 c=11 v=60
116964 Par ch=6 c=11 v=59
117008 Par ch=6 c=11 v=58
117056 Par ch=6 c=11 v=57
117100 Par ch=6 c=11 v=56
117144 Par ch=6 c=11 v=55
117188 Par ch=6 c=11 v=54
117236 Par ch=6 c=11 v=53
117280 Par ch=6 c=11 v=52
117324 Par ch=6 c=11 v=51
117372 Par ch=6 c=11 v=50
117416 Par ch=6 c=11 v=49
117427 On ch=6 n=63 v=0
117427 On ch=6 n=70 v=0
117460 Par ch=6 c=11 v=48
117760 Par ch=6 c=11 v=64
117760 On ch=6 n=78 v=127
117781 On ch=6 n=78 v=0
117792 On ch=6 n=80 v=127
117813 On ch=6 n=80 v=0
117824 On ch=6 n=78 v=127
117845 On ch=6 n=78 v=0
117856 On ch=6 n=77 v=127
117877 On ch=6 n=77 v=0
117888 On ch=6 n=78 v=127
117926 On ch=6 n=78 v=0
117960 On ch=6 n=75 v=127
117979 On ch=6 n=75 v=0
117984 On ch=6 n=66 v=127
118022 On ch=6 n=66 v=0
118176 On ch=6 n=65 v=127
118202 On ch=6 n=65 v=0
118208 On ch=6 n=66 v=127
118234 On ch=6 n=66 v=0
118240 On ch=6 n=68 v=127
118266 On ch=6 n=68 v=0
118272 On ch=6 n=70 v=127
118368 On ch=6 n=70 v=0
118368 On ch=6 n=66 v=127
118399 On ch=6 n=66 v=0
118440 On ch=6 n=68 v=127
118456 On ch=6 n=68 v=0
118464 On ch=6 n=70 v=127
118560 On ch=6 n=70 v=0
118560 On ch=6 n=73 v=127
118591 On ch=6 n=73 v=0
118632 On ch=6 n=71 v=127
118648 On ch=6 n=71 v=0
118656 On ch=6 n=70 v=127
118733 On ch=6 n=70 v=0
118752 On ch=6 n=63 v=127
118829 On ch=6 n=63 v=0
118944 On ch=6 n=73 v=127
118982 On ch=6 n=73 v=0
119016 On ch=6 n=71 v=127
119035 On ch=6 n=71 v=0
119040 On ch=6 n=70 v=127
119117 On ch=6 n=70 v=0
119136 On ch=6 n=75 v=127
119213 On ch=6 n=75 v=0
119712 On ch=6 n=73 v=127
119750 On ch=6 n=73 v=0
119784 On ch=6 n=71 v=127
119803 On ch=6 n=71 v=0
119808 On ch=6 n=70 v=127
119885 On ch=6 n=70 v=0
119904 On ch=6 n=63 v=127
119981 On ch=6 n=63 v=0
120096 On ch=6 n=80 v=111
120127 On ch=6 n=80 v=0
120168 On ch=6 n=76 v=111
120184 On ch=6 n=76 v=0
120192 On ch=6 n=74 v=111
120240 On ch=6 n=74 v=0
120240 On ch=6 n=75 v=111
120271 On ch=6 n=75 v=0
120288 On ch=6 n=68 v=111
120319 On ch=6 n=68 v=0
120360 On ch=6 n=70 v=111
120376 On ch=6 n=70 v=0
120384 On ch=6 n=71 v=111
120446 On ch=6 n=71 v=0
120480 On ch=6 n=77 v=111
120518 On ch=6 n=77 v=0
120552 On ch=6 n=75 v=111
120568 On ch=6 n=75 v=0
120576 On ch=6 n=73 v=111
120607 On ch=6 n=73 v=0
120648 On ch=6 n=68 v=111
120672 On ch=6 n=68 v=0
120672 On ch=6 n=77 v=111
120703 On ch=6 n=77 v=0
120744 On ch=6 n=75 v=111
120760 On ch=6 n=75 v=0
120768 On ch=6 n=73 v=111
120799 On ch=6 n=73 v=0
120840 On ch=6 n=71 v=111
120864 On ch=6 n=71 v=0
120864 On ch=6 n=81 v=111
120895 On ch=6 n=81 v=0
120936 On ch=6 n=79 v=111
120952 On ch=6 n=79 v=0
120960 On ch=6 n=78 v=111
120991 On ch=6 n=78 v=0
121032 On ch=6 n=72 v=111
121056 On ch=6 n=72 v=0
121056 On ch=6 n=81 v=111
121087 On ch=6 n=81 v=0
121128 On ch=6 n=79 v=111
121144 On ch=6 n=79 v=0
121152 On ch=6 n=78 v=111
121183 On ch=6 n=78 v=0
121224 On ch=6 n=72 v=127
121248 On ch=6 n=72 v=0
121248 On ch=6 n=87 v=127
121248 On ch=6 n=75 v=127
121279 On ch=6 n=75 v=0
121279 On ch=6 n=87 v=0
121320 On ch=6 n=86 v=127
121320 On ch=6 n=74 v=127
121336 On ch=6 n=74 v=0
121336 On ch=6 n=86 v=0
121344 On ch=6 n=85 v=127
121344 On ch=6 n=73 v=127
121375 On ch=6 n=73 v=0
121375 On ch=6 n=85 v=0
121416 On ch=6 n=84 v=127
121416 On ch=6 n=72 v=127
121432 On ch=6 n=72 v=0
121432 On ch=6 n=84 v=0
121440 On ch=6 n=83 v=127
121440 On ch=6 n=71 v=127
121471 On ch=6 n=71 v=0
121471 On ch=6 n=83 v=0
121512 On ch=6 n=82 v=127
121512 On ch=6 n=70 v=127
121528 On ch=6 n=70 v=0
121528 On ch=6 n=82 v=0
121536 On ch=6 n=81 v=127
121536 On ch=6 n=69 v=127
121567 On ch=6 n=69 v=0
121567 On ch=6 n=81 v=0
121608 On ch=6 n=80 v=127
121608 On ch=6 n=68 v=127
121624 On ch=6 n=68 v=0
121624 On ch=6 n=80 v=0
121632 On ch=6 n=79 v=127
121632 On ch=6 n=67 v=127
121663 On ch=6 n=67 v=0
121663 On ch=6 n=79 v=0
121704 On ch=6 n=78 v=127
121704 On ch=6 n=66 v=127
121720 On ch=6 n=66 v=0
121720 On ch=6 n=78 v=0
121728 On ch=6 n=71 v=127
121728 On ch=6 n=83 v=127
121759 On ch=6 n=83 v=0
121759 On ch=6 n=71 v=0
121800 On ch=6 n=70 v=127
121800 On ch=6 n=82 v=127
121816 On ch=6 n=82 v=0
121816 On ch=6 n=70 v=0
121824 On ch=6 n=69 v=127
121824 On ch=6 n=81 v=127
121855 On ch=6 n=81 v=0
121855 On ch=6 n=69 v=0
121896 On ch=6 n=68 v=127
121896 On ch=6 n=80 v=127
121912 On ch=6 n=80 v=0
121912 On ch=6 n=68 v=0
121920 On ch=6 n=67 v=127
121920 On ch=6 n=79 v=127
121951 On ch=6 n=79 v=0
121951 On ch=6 n=67 v=0
121992 On ch=6 n=66 v=127
121992 On ch=6 n=78 v=127
122008 On ch=6 n=78 v=0
122008 On ch=6 n=66 v=0
122016 On ch=6 n=65 v=127
122016 On ch=6 n=77 v=127
122047 On ch=6 n=77 v=0
122047 On ch=6 n=65 v=0
122088 On ch=6 n=64 v=127
122088 On ch=6 n=76 v=127
122104 On ch=6 n=76 v=0
122104 On ch=6 n=64 v=0
122112 On ch=6 n=81 v=127
122144 On ch=6 n=80 v=127
122165 On ch=6 n=80 v=0
122176 On ch=6 n=79 v=127
122197 On ch=6 n=79 v=0
122208 On ch=6 n=78 v=127
122229 On ch=6 n=78 v=0
122240 On ch=6 n=77 v=127
122261 On ch=6 n=77 v=0
122272 On ch=6 n=76 v=127
122293 On ch=6 n=76 v=0
122304 On ch=6 n=75 v=127
122325 On ch=6 n=75 v=0
122336 On ch=6 n=74 v=127
122357 On ch=6 n=74 v=0
122368 On ch=6 n=73 v=127
122389 On ch=6 n=73 v=0
122400 On ch=6 n=72 v=127
122421 On ch=6 n=72 v=0
122432 On ch=6 n=71 v=127
122453 On ch=6 n=71 v=0
122464 On ch=6 n=70 v=127
122485 On ch=6 n=70 v=0
122496 On ch=6 n=69 v=127
122528 On ch=6 n=69 v=0
122528 On ch=6 n=81 v=0
122528 On ch=6 n=68 v=127
122528 On ch=6 n=80 v=127
122560 On ch=6 n=80 v=0
122560 On ch=6 n=68 v=0
122560 On ch=6 n=67 v=127
122560 On ch=6 n=79 v=127
122592 On ch=6 n=79 v=0
122592 On ch=6 n=67 v=0
122592 On ch=6 n=66 v=127
122592 On ch=6 n=78 v=127
122624 On ch=6 n=78 v=0
122624 On ch=6 n=66 v=0
122624 On ch=6 n=65 v=127
122624 On ch=6 n=77 v=127
122656 On ch=6 n=77 v=0
122656 On ch=6 n=65 v=0
122656 On ch=6 n=64 v=127
122656 On ch=6 n=76 v=127
122688 On ch=6 n=76 v=0
122688 On ch=6 n=64 v=0
122688 On ch=6 n=63 v=127
122688 On ch=6 n=75 v=127
122720 On ch=6 n=75 v=0
122720 On ch=6 n=63 v=0
122720 On ch=6 n=62 v=127
122720 On ch=6 n=74 v=127
122752 On ch=6 n=74 v=0
122752 On ch=6 n=62 v=0
122752 On ch=6 n=61 v=127
122752 On ch=6 n=73 v=127
122784 On ch=6 n=73 v=0
122784 On ch=6 n=61 v=0
122784 On ch=6 n=60 v=127
122784 On ch=6 n=72 v=127
122816 On ch=6 n=72 v=0
122816 On ch=6 n=60 v=0
122816 On ch=6 n=58 v=127
122816 On ch=6 n=70 v=127
122848 On ch=6 n=70 v=0
122848 On ch=6 n=58 v=0
122848 On ch=6 n=57 v=127
122848 On ch=6 n=69 v=127
122880 On ch=6 n=69 v=0
122880 On ch=6 n=57 v=0
122880 On ch=6 n=55 v=127
122880 On ch=6 n=67 v=127
122918 On ch=6 n=67 v=0
122918 On ch=6 n=55 v=0
123264 On ch=6 n=67 v=100
123267 On ch=6 n=72 v=100
123270 On ch=6 n=79 v=100
123276 On ch=6 n=67 v=0
123279 On ch=6 n=72 v=0
123286 On ch=6 n=79 v=0
123360 On ch=6 n=79 v=100
123363 On ch=6 n=84 v=100
123366 On ch=6 n=87 v=100
123372 On ch=6 n=79 v=0
123375 On ch=6 n=84 v=0
123382 On ch=6 n=87 v=0
124032 On ch=6 n=67 v=100
124035 On ch=6 n=73 v=100
124038 On ch=6 n=79 v=100
124044 On ch=6 n=67 v=0
124047 On ch=6 n=73 v=0
124054 On ch=6 n=79 v=0
124128 On ch=6 n=79 v=100
124131 On ch=6 n=82 v=100
124134 On ch=6 n=85 v=100
124140 On ch=6 n=79 v=0
124143 On ch=6 n=82 v=0
124150 On ch=6 n=85 v=0
125568 On ch=6 n=79 v=100
125606 On ch=6 n=79 v=0
125640 On ch=6 n=79 v=100
125659 On ch=6 n=79 v=0
125664 On ch=6 n=79 v=100
125690 On ch=6 n=79 v=0
125696 On ch=6 n=79 v=100
125722 On ch=6 n=79 v=0
125728 On ch=6 n=79 v=100
125754 On ch=6 n=79 v=0
125760 On ch=6 n=79 v=100
125798 On ch=6 n=79 v=0
125832 On ch=6 n=79 v=100
125851 On ch=6 n=79 v=0
125856 On ch=6 n=79 v=100
125882 On ch=6 n=79 v=0
125888 On ch=6 n=79 v=100
125914 On ch=6 n=79 v=0
125920 On ch=6 n=79 v=100
125946 On ch=6 n=79 v=0
125952 Par ch=6 c=11 v=64
125952 On ch=6 n=79 v=100
125960 On ch=6 n=79 v=0
125960 On ch=6 n=80 v=100
125968 On ch=6 n=80 v=0
125968 On ch=6 n=79 v=100
125976 On ch=6 n=79 v=0
125976 Par ch=6 c=11 v=65
125976 On ch=6 n=80 v=100
125984 On ch=6 n=80 v=0
125984 On ch=6 n=79 v=100
125992 On ch=6 n=79 v=0
125992 On ch=6 n=80 v=100
126000 On ch=6 n=80 v=0
126000 Par ch=6 c=11 v=66
126000 On ch=6 n=79 v=100
126008 On ch=6 n=79 v=0
126008 On ch=6 n=80 v=100
126016 On ch=6 n=80 v=0
126016 On ch=6 n=79 v=100
126020 Par ch=6 c=11 v=67
126024 On ch=6 n=79 v=0
126024 On ch=6 n=80 v=100
126032 On ch=6 n=80 v=0
126032 On ch=6 n=79 v=100
126040 On ch=6 n=79 v=0
126040 On ch=6 n=80 v=100
126044 Par ch=6 c=11 v=68
126048 On ch=6 n=80 v=0
126048 On ch=6 n=79 v=100
126056 On ch=6 n=79 v=0
126056 On ch=6 n=80 v=100
126064 On ch=6 n=80 v=0
126064 On ch=6 n=79 v=100
126068 Par ch=6 c=11 v=69
126072 On ch=6 n=79 v=0
126072 On ch=6 n=80 v=100
126080 On ch=6 n=80 v=0
126080 On ch=6 n=79 v=100
126088 On ch=6 n=79 v=0
126088 Par ch=6 c=11 v=70
126088 On ch=6 n=80 v=100
126096 On ch=6 n=80 v=0
126096 On ch=6 n=79 v=100
126104 On ch=6 n=79 v=0
126104 On ch=6 n=80 v=100
126112 On ch=6 n=80 v=0
126112 Par ch=6 c=11 v=71
126112 On ch=6 n=79 v=100
126120 On ch=6 n=79 v=0
126120 On ch=6 n=80 v=100
126128 On ch=6 n=80 v=0
126128 On ch=6 n=79 v=100
126136 On ch=6 n=79 v=0
126136 Par ch=6 c=11 v=72
126136 On ch=6 n=80 v=100
126144 On ch=6 n=80 v=0
126144 On ch=6 n=79 v=100
126152 On ch=6 n=79 v=0
126152 On ch=6 n=80 v=100
126156 Par ch=6 c=11 v=73
126160 On ch=6 n=80 v=0
126160 On ch=6 n=79 v=100
126168 On ch=6 n=79 v=0
126168 On ch=6 n=80 v=100
126176 On ch=6 n=80 v=0
126176 On ch=6 n=79 v=100
126180 Par ch=6 c=11 v=74
126184 On ch=6 n=79 v=0
126184 On ch=6 n=80 v=100
126192 On ch=6 n=80 v=0
126192 On ch=6 n=79 v=100
126200 On ch=6 n=79 v=0
126200 On ch=6 n=80 v=100
126204 Par ch=6 c=11 v=75
126208 On ch=6 n=80 v=0
126208 On ch=6 n=79 v=100
126216 On ch=6 n=79 v=0
126216 On ch=6 n=80 v=100
126224 On ch=6 n=80 v=0
126224 Par ch=6 c=11 v=76
126224 On ch=6 n=79 v=100
126232 On ch=6 n=79 v=0
126232 On ch=6 n=80 v=100
126240 On ch=6 n=80 v=0
126240 On ch=6 n=79 v=100
126248 On ch=6 n=79 v=0
126248 Par ch=6 c=11 v=77
126248 On ch=6 n=80 v=100
126256 On ch=6 n=80 v=0
126256 On ch=6 n=79 v=100
126264 On ch=6 n=79 v=0
126264 On ch=6 n=80 v=100
126272 On ch=6 n=80 v=0
126272 Par ch=6 c=11 v=78
126272 On ch=6 n=79 v=100
126280 On ch=6 n=79 v=0
126280 On ch=6 n=80 v=100
126288 On ch=6 n=80 v=0
126288 On ch=6 n=79 v=100
126292 Par ch=6 c=11 v=79
126296 On ch=6 n=79 v=0
126296 On ch=6 n=80 v=100
126304 On ch=6 n=80 v=0
126304 On ch=6 n=79 v=100
126312 On ch=6 n=79 v=0
126312 On ch=6 n=78 v=100
126316 Par ch=6 c=11 v=80
126320 On ch=6 n=78 v=0
126320 On ch=6 n=79 v=100
126328 On ch=6 n=79 v=0
126336 Par ch=6 c=11 v=64
126336 On ch=6 n=84 v=100
126367 On ch=6 n=84 v=0
129024 On ch=6 n=60 v=31
129024 On ch=6 n=72 v=31
129178 On ch=6 n=72 v=0
129178 On ch=6 n=60 v=0
129216 On ch=6 n=55 v=31
129216 On ch=6 n=67 v=31
129331 On ch=6 n=67 v=0
129331 On ch=6 n=55 v=0
129360 On ch=6 n=55 v=31
129360 On ch=6 n=67 v=31
129398 On ch=6 n=67 v=0
129398 On ch=6 n=55 v=0
129408 On ch=6 n=60 v=31
129408 On ch=6 n=72 v=31
129562 On ch=6 n=72 v=0
129562 On ch=6 n=60 v=0
129664 On ch=6 n=60 v=31
129664 On ch=6 n=72 v=31
129685 On ch=6 n=72 v=0
129685 On ch=6 n=60 v=0
129696 On ch=6 n=62 v=31
129696 On ch=6 n=74 v=31
129717 On ch=6 n=74 v=0
129717 On ch=6 n=62 v=0
129728 On ch=6 n=60 v=31
129728 On ch=6 n=72 v=31
129749 On ch=6 n=72 v=0
129749 On ch=6 n=60 v=0
129760 On ch=6 n=59 v=31
129760 On ch=6 n=71 v=31
129781 On ch=6 n=71 v=0
129781 On ch=6 n=59 v=0
129792 On ch=6 n=60 v=31
129792 On ch=6 n=72 v=31
129823 On ch=6 n=72 v=0
129823 On ch=6 n=60 v=0
129864 On ch=6 n=67 v=31
129880 On ch=6 n=67 v=0
129888 On ch=6 n=60 v=31
129919 On ch=6 n=60 v=0
130848 On ch=6 n=72 v=47
130886 On ch=6 n=72 v=0
130944 On ch=6 n=79 v=47
130944 On ch=6 n=67 v=47
131098 On ch=6 n=67 v=0
131098 On ch=6 n=79 v=0
131136 On ch=6 n=86 v=47
131136 On ch=6 n=74 v=47
131251 On ch=6 n=74 v=0
131251 On ch=6 n=86 v=0
131280 On ch=6 n=84 v=47
131280 On ch=6 n=72 v=47
131311 On ch=6 n=72 v=0
131311 On ch=6 n=84 v=0
131328 On ch=6 n=79 v=47
131328 On ch=6 n=67 v=47
131482 On ch=6 n=67 v=0
131482 On ch=6 n=79 v=0
131520 On ch=6 n=86 v=47
131520 On ch=6 n=74 v=47
131635 On ch=6 n=74 v=0
131635 On ch=6 n=86 v=0
131664 On ch=6 n=84 v=47
131664 On ch=6 n=72 v=47
131695 On ch=6 n=72 v=0
131695 On ch=6 n=84 v=0
131712 On ch=6 n=79 v=47
131712 On ch=6 n=67 v=47
131789 On ch=6 n=67 v=0
131789 On ch=6 n=79 v=0
131808 On ch=6 n=84 v=47
131808 On ch=6 n=72 v=47
131839 On ch=6 n=72 v=0
131839 On ch=6 n=84 v=0
131880 On ch=6 n=82 v=47
131880 On ch=6 n=70 v=47
131896 On ch=6 n=70 v=0
131896 On ch=6 n=82 v=0
131904 On ch=6 n=79 v=47
131904 On ch=6 n=67 v=47
132019 On ch=6 n=67 v=0
132019 On ch=6 n=79 v=0
132048 On ch=6 n=77 v=47
132048 On ch=6 n=65 v=47
132079 On ch=6 n=65 v=0
132079 On ch=6 n=77 v=0
132096 On ch=6 n=75 v=47
132096 On ch=6 n=63 v=47
132143 On ch=6 n=63 v=0
132143 On ch=6 n=75 v=0
132168 On ch=6 n=77 v=47
132168 On ch=6 n=65 v=47
132184 On ch=6 n=65 v=0
132184 On ch=6 n=77 v=0
132192 On ch=6 n=79 v=47
132192 On ch=6 n=67 v=47
132307 On ch=6 n=67 v=0
132307 On ch=6 n=79 v=0
132336 On ch=6 n=77 v=47
132336 On ch=6 n=65 v=47
132367 On ch=6 n=65 v=0
132367 On ch=6 n=77 v=0
132384 On ch=6 n=75 v=47
132384 On ch=6 n=63 v=47
132405 On ch=6 n=63 v=0
132405 On ch=6 n=75 v=0
132416 On ch=6 n=74 v=47
132416 On ch=6 n=62 v=47
132437 On ch=6 n=62 v=0
132437 On ch=6 n=74 v=0
132448 On ch=6 n=72 v=47
132448 On ch=6 n=60 v=47
132469 On ch=6 n=60 v=0
132469 On ch=6 n=72 v=0
132480 On ch=6 n=56 v=47
132480 On ch=6 n=68 v=47
132557 On ch=6 n=68 v=0
132557 On ch=6 n=56 v=0
133152 On ch=6 n=80 v=47
133152 On ch=6 n=68 v=47
133229 On ch=6 n=68 v=0
133229 On ch=6 n=80 v=0
133248 Par ch=6 c=11 v=64
133248 On ch=6 n=79 v=47
133248 On ch=6 n=67 v=47
133264 Par ch=6 c=11 v=65
133280 Par ch=6 c=11 v=66
133296 Par ch=6 c=11 v=67
133312 Par ch=6 c=11 v=68
133325 On ch=6 n=67 v=0
133325 On ch=6 n=79 v=0
133328 Par ch=6 c=11 v=69
133344 Par ch=6 c=11 v=70
133344 On ch=6 n=74 v=47
133344 On ch=6 n=62 v=47
133360 Par ch=6 c=11 v=71
133376 Par ch=6 c=11 v=72
133392 Par ch=6 c=11 v=73
133402 On ch=6 n=62 v=0
133402 On ch=6 n=74 v=0
133408 Par ch=6 c=11 v=74
133416 On ch=6 n=75 v=47
133416 On ch=6 n=63 v=47
133424 Par ch=6 c=11 v=75
133435 On ch=6 n=63 v=0
133435 On ch=6 n=75 v=0
133440 Par ch=6 c=11 v=76
133440 On ch=6 n=77 v=47
133440 On ch=6 n=65 v=47
133452 Par ch=6 c=11 v=77
133468 Par ch=6 c=11 v=78
133484 Par ch=6 c=11 v=79
133500 Par ch=6 c=11 v=80
133516 Par ch=6 c=11 v=81
133517 On ch=6 n=65 v=0
133517 On ch=6 n=77 v=0
133532 Par ch=6 c=11 v=82
133536 On ch=6 n=80 v=47
133536 On ch=6 n=68 v=47
133548 Par ch=6 c=11 v=83
133564 Par ch=6 c=11 v=84
133580 Par ch=6 c=11 v=85
133596 Par ch=6 c=11 v=86
133612 Par ch=6 c=11 v=87
133613 On ch=6 n=68 v=0
133613 On ch=6 n=80 v=0
133628 Par ch=6 c=11 v=88
133632 On ch=6 n=79 v=47
133632 On ch=6 n=67 v=47
133640 Par ch=6 c=11 v=89
133656 Par ch=6 c=11 v=90
133663 On ch=6 n=67 v=0
133663 On ch=6 n=79 v=0
133672 Par ch=6 c=11 v=91
133688 Par ch=6 c=11 v=92
133704 Par ch=6 c=11 v=93
133720 Par ch=6 c=11 v=94
133728 On ch=6 n=87 v=47
133728 On ch=6 n=75 v=47
133736 Par ch=6 c=11 v=95
133752 Par ch=6 c=11 v=96
133768 Par ch=6 c=11 v=97
133784 Par ch=6 c=11 v=98
133800 Par ch=6 c=11 v=99
133816 Par ch=6 c=11 v=100
133828 Par ch=6 c=11 v=101
133844 Par ch=6 c=11 v=102
133860 Par ch=6 c=11 v=103
133876 Par ch=6 c=11 v=104
133882 On ch=6 n=75 v=0
133882 On ch=6 n=87 v=0
133892 Par ch=6 c=11 v=105
133908 Par ch=6 c=11 v=106
133920 On ch=6 n=86 v=47
133920 On ch=6 n=74 v=47
133924 Par ch=6 c=11 v=107
133940 Par ch=6 c=11 v=108
133956 Par ch=6 c=11 v=109
133972 Par ch=6 c=11 v=110
133988 Par ch=6 c=11 v=111
133997 On ch=6 n=74 v=0
133997 On ch=6 n=86 v=0
134004 Par ch=6 c=11 v=112
134016 Par ch=6 c=11 v=64
134016 On ch=6 n=84 v=95
134016 On ch=6 n=72 v=95
134093 On ch=6 n=72 v=0
134093 On ch=6 n=84 v=0
134112 On ch=6 n=75 v=95
134170 On ch=6 n=75 v=0
134184 On ch=6 n=77 v=95
134203 On ch=6 n=77 v=0
134208 On ch=6 n=79 v=95
134285 On ch=6 n=79 v=0
134304 On ch=6 n=82 v=95
134362 On ch=6 n=82 v=0
134376 On ch=6 n=80 v=95
134395 On ch=6 n=80 v=0
134400 On ch=6 n=79 v=95
134438 On ch=6 n=79 v=0
134496 On ch=6 n=72 v=95
134650 On ch=6 n=72 v=0
134688 On ch=6 n=74 v=95
134714 On ch=6 n=74 v=0
134720 On ch=6 n=75 v=95
134746 On ch=6 n=75 v=0
134752 On ch=6 n=77 v=95
134778 On ch=6 n=77 v=0
134784 On ch=6 n=79 v=95
134815 On ch=6 n=79 v=0
135424 Par ch=6 c=11 v=64
135424 On ch=6 n=72 v=95
135432 Par ch=6 c=11 v=65
135440 Par ch=6 c=11 v=66
135445 On ch=6 n=72 v=0
135448 Par ch=6 c=11 v=67
135456 Par ch=6 c=11 v=68
135456 On ch=6 n=79 v=95
135464 Par ch=6 c=11 v=69
135472 Par ch=6 c=11 v=70
135477 On ch=6 n=79 v=0
135480 Par ch=6 c=11 v=71
135488 Par ch=6 c=11 v=72
135488 On ch=6 n=82 v=95
135492 Par ch=6 c=11 v=73
135500 Par ch=6 c=11 v=74
135508 Par ch=6 c=11 v=75
135509 On ch=6 n=82 v=0
135516 Par ch=6 c=11 v=76
135520 On ch=6 n=85 v=95
135524 Par ch=6 c=11 v=77
135532 Par ch=6 c=11 v=78
135540 Par ch=6 c=11 v=79
135541 On ch=6 n=85 v=0
135548 Par ch=6 c=11 v=80
135552 Par ch=6 c=11 v=64
135552 On ch=6 n=84 v=111
135583 On ch=6 n=84 v=0
135624 On ch=6 n=82 v=111
135640 On ch=6 n=82 v=0
135648 On ch=6 n=80 v=111
135679 On ch=6 n=80 v=0
135720 On ch=6 n=79 v=111
135736 On ch=6 n=79 v=0
135744 On ch=6 n=77 v=111
135775 On ch=6 n=77 v=0
135816 On ch=6 n=75 v=111
135832 On ch=6 n=75 v=0
135840 On ch=6 n=73 v=111
135871 On ch=6 n=73 v=0
135912 On ch=6 n=72 v=111
135928 On ch=6 n=72 v=0
135936 On ch=6 n=80 v=111
135967 On ch=6 n=80 v=0
136008 On ch=6 n=79 v=111
136024 On ch=6 n=79 v=0
136032 On ch=6 n=77 v=111
136063 On ch=6 n=77 v=0
136104 On ch=6 n=75 v=111
136120 On ch=6 n=75 v=0
136128 On ch=6 n=73 v=111
136159 On ch=6 n=73 v=0
136200 On ch=6 n=72 v=111
136216 On ch=6 n=72 v=0
136224 On ch=6 n=70 v=111
136255 On ch=6 n=70 v=0
136296 On ch=6 n=68 v=111
136312 On ch=6 n=68 v=0
136320 On ch=6 n=67 v=111
136358 On ch=6 n=67 v=0
137088 On ch=6 n=79 v=111
137318 On ch=6 n=79 v=0
137376 On ch=6 n=75 v=111
137472 On ch=6 n=75 v=0
137472 Par ch=6 c=11 v=64
137472 On ch=6 n=74 v=111
137476 Par ch=6 c=11 v=62
137480 Par ch=6 c=11 v=60
137484 Par ch=6 c=11 v=58
137488 Par ch=6 c=11 v=56
137492 Par ch=6 c=11 v=54
137496 Par ch=6 c=11 v=52
137500 Par ch=6 c=11 v=50
137504 Par ch=6 c=11 v=48
137508 Par ch=6 c=11 v=46
137512 Par ch=6 c=11 v=44
137516 Par ch=6 c=11 v=42
137520 Par ch=6 c=11 v=40
137524 Par ch=6 c=11 v=38
137528 Par ch=6 c=11 v=36
137532 Par ch=6 c=11 v=34
137536 Par ch=6 c=11 v=32
137540 Par ch=6 c=11 v=30
137544 Par ch=6 c=11 v=28
137548 Par ch=6 c=11 v=26
137552 Par ch=6 c=11 v=24
137556 Par ch=6 c=11 v=22
137560 Par ch=6 c=11 v=20
137564 Par ch=6 c=11 v=18
137568 On ch=6 n=74 v=0
137568 On ch=6 n=72 v=111
137645 On ch=6 n=72 v=0
137856 Par ch=6 c=11 v=64
138240 Par ch=6 c=11 v=80
138240 On ch=6 n=70 v=47
138240 On ch=6 n=82 v=47
138248 Par ch=6 c=11 v=79
138252 Par ch=6 c=11 v=78
138260 Par ch=6 c=11 v=77
138264 Par ch=6 c=11 v=76
138272 Par ch=6 c=11 v=75
138276 Par ch=6 c=11 v=74
138284 Par ch=6 c=11 v=73
138288 Par ch=6 c=11 v=72
138296 Par ch=6 c=11 v=71
138300 Par ch=6 c=11 v=70
138308 Par ch=6 c=11 v=69
138312 Par ch=6 c=11 v=68
138320 Par ch=6 c=11 v=67
138324 Par ch=6 c=11 v=66
138332 Par ch=6 c=11 v=65
138336 On ch=6 n=82 v=0
138336 On ch=6 n=70 v=0
138336 Par ch=6 c=11 v=64
138336 On ch=6 n=68 v=47
138336 On ch=6 n=80 v=47
138413 On ch=6 n=80 v=0
138413 On ch=6 n=68 v=0
138624 On ch=6 n=70 v=47
138624 On ch=6 n=82 v=47
138720 On ch=6 n=82 v=0
138720 On ch=6 n=70 v=0
138720 On ch=6 n=68 v=47
138720 On ch=6 n=80 v=47
138797 On ch=6 n=80 v=0
138797 On ch=6 n=68 v=0
139776 On ch=6 n=69 v=31
139776 On ch=6 n=73 v=31
140064 On ch=6 n=73 v=0
140064 On ch=6 n=69 v=0
140064 On ch=6 n=68 v=31
140064 On ch=6 n=71 v=31
140141 On ch=6 n=71 v=0
140141 On ch=6 n=68 v=0
140160 On ch=6 n=69 v=31
140160 On ch=6 n=73 v=31
140448 On ch=6 n=73 v=0
140448 On ch=6 n=69 v=0
140448 On ch=6 n=68 v=31
140448 On ch=6 n=71 v=31
140525 On ch=6 n=71 v=0
140525 On ch=6 n=68 v=0
140544 Par ch=6 c=11 v=64
140544 On ch=6 n=69 v=15
140544 On ch=6 n=73 v=15
140592 Par ch=6 c=11 v=63
140636 Par ch=6 c=11 v=62
140680 Par ch=6 c=11 v=61
140728 Par ch=6 c=11 v=60
140772 Par ch=6 c=11 v=59
140816 Par ch=6 c=11 v=58
140864 Par ch=6 c=11 v=57
140908 Par ch=6 c=11 v=56
140952 Par ch=6 c=11 v=55
140996 Par ch=6 c=11 v=54
141044 Par ch=6 c=11 v=53
141088 Par ch=6 c=11 v=52
141132 Par ch=6 c=11 v=51
141180 Par ch=6 c=11 v=50
141224 Par ch=6 c=11 v=49
141268 Par ch=6 c=11 v=48
141389 On ch=6 n=73 v=0
141389 On ch=6 n=69 v=0
141696 Par ch=6 c=11 v=64
156672 Par ch=6 c=11 v=64
156672 On ch=6 n=62 v=47
156672 On ch=6 n=74 v=47
156676 Par ch=6 c=11 v=65
156680 Par ch=6 c=11 v=66
156684 Par ch=6 c=11 v=68
156688 Par ch=6 c=11 v=69
156692 Par ch=6 c=11 v=71
156696 Par ch=6 c=11 v=72
156700 Par ch=6 c=11 v=73
156704 Par ch=6 c=11 v=75
156708 Par ch=6 c=11 v=76
156712 Par ch=6 c=11 v=78
156716 Par ch=6 c=11 v=79
156720 Par ch=6 c=11 v=79
156724 Par ch=6 c=11 v=78
156728 Par ch=6 c=11 v=77
156732 Par ch=6 c=11 v=76
156736 Par ch=6 c=11 v=74
156740 Par ch=6 c=11 v=73
156744 Par ch=6 c=11 v=72
156748 Par ch=6 c=11 v=71
156752 Par ch=6 c=11 v=69
156756 Par ch=6 c=11 v=68
156760 Par ch=6 c=11 v=67
156764 Par ch=6 c=11 v=66
156768 Par ch=6 c=11 v=64
156826 On ch=6 n=74 v=0
156826 On ch=6 n=62 v=0
156864 Par ch=6 c=11 v=64
156864 On ch=6 n=65 v=47
156864 On ch=6 n=77 v=47
156868 Par ch=6 c=11 v=65
156872 Par ch=6 c=11 v=66
156876 Par ch=6 c=11 v=68
156880 Par ch=6 c=11 v=69
156884 Par ch=6 c=11 v=71
156888 Par ch=6 c=11 v=72
156892 Par ch=6 c=11 v=73
156896 Par ch=6 c=11 v=75
156900 Par ch=6 c=11 v=76
156904 Par ch=6 c=11 v=78
156908 Par ch=6 c=11 v=79
156912 Par ch=6 c=11 v=79
156916 Par ch=6 c=11 v=78
156920 Par ch=6 c=11 v=77
156924 Par ch=6 c=11 v=76
156928 Par ch=6 c=11 v=74
156932 Par ch=6 c=11 v=73
156936 Par ch=6 c=11 v=72
156940 Par ch=6 c=11 v=71
156944 Par ch=6 c=11 v=69
156948 Par ch=6 c=11 v=68
156952 Par ch=6 c=11 v=67
156956 Par ch=6 c=11 v=66
156960 Par ch=6 c=11 v=64
156979 On ch=6 n=77 v=0
156979 On ch=6 n=65 v=0
157008 On ch=6 n=63 v=47
157008 On ch=6 n=75 v=47
157039 On ch=6 n=75 v=0
157039 On ch=6 n=63 v=0
157056 On ch=6 n=62 v=47
157056 On ch=6 n=74 v=47
157286 On ch=6 n=74 v=0
157286 On ch=6 n=62 v=0
157344 On ch=6 n=68 v=47
157344 On ch=6 n=80 v=47
157421 On ch=6 n=80 v=0
157421 On ch=6 n=68 v=0
157440 On ch=6 n=67 v=47
157440 On ch=6 n=79 v=47
157517 On ch=6 n=79 v=0
157517 On ch=6 n=67 v=0
157536 On ch=6 n=62 v=47
157536 On ch=6 n=74 v=47
157594 On ch=6 n=74 v=0
157594 On ch=6 n=62 v=0
157608 On ch=6 n=63 v=47
157608 On ch=6 n=75 v=47
157624 On ch=6 n=75 v=0
157624 On ch=6 n=63 v=0
157632 On ch=6 n=65 v=47
157632 On ch=6 n=77 v=47
157709 On ch=6 n=77 v=0
157709 On ch=6 n=65 v=0
157728 On ch=6 n=68 v=47
157728 On ch=6 n=80 v=47
157805 On ch=6 n=80 v=0
157805 On ch=6 n=68 v=0
157824 On ch=6 n=67 v=47
157824 On ch=6 n=79 v=47
157862 On ch=6 n=79 v=0
157862 On ch=6 n=67 v=0
157920 On ch=6 n=75 v=47
157920 On ch=6 n=87 v=47
158074 On ch=6 n=87 v=0
158074 On ch=6 n=75 v=0
158112 On ch=6 n=74 v=47
158112 On ch=6 n=86 v=47
158189 On ch=6 n=86 v=0
158189 On ch=6 n=74 v=0
158208 Par ch=6 c=11 v=64
158208 On ch=6 n=73 v=47
158208 On ch=6 n=85 v=47
158220 Par ch=6 c=11 v=65
158232 Par ch=6 c=11 v=66
158244 Par ch=6 c=11 v=67
158256 Par ch=6 c=11 v=68
158268 Par ch=6 c=11 v=69
158276 Par ch=6 c=11 v=70
158288 Par ch=6 c=11 v=71
158300 Par ch=6 c=11 v=72
158312 Par ch=6 c=11 v=73
158324 Par ch=6 c=11 v=74
158336 Par ch=6 c=11 v=75
158344 Par ch=6 c=11 v=76
158356 Par ch=6 c=11 v=77
158362 On ch=6 n=85 v=0
158368 Par ch=6 c=11 v=78
158380 Par ch=6 c=11 v=79
158392 Par ch=6 c=11 v=80
158400 Par ch=6 c=11 v=80
158400 On ch=6 n=85 v=47
158412 Par ch=6 c=11 v=79
158424 Par ch=6 c=11 v=78
158432 Par ch=6 c=11 v=77
158438 On ch=6 n=73 v=0
158444 Par ch=6 c=11 v=76
158456 Par ch=6 c=11 v=75
158464 Par ch=6 c=11 v=74
158476 Par ch=6 c=11 v=73
158477 On ch=6 n=85 v=0
158488 Par ch=6 c=11 v=72
158496 Par ch=6 c=11 v=71
158496 On ch=6 n=72 v=47
158496 On ch=6 n=84 v=47
158508 Par ch=6 c=11 v=70
158520 Par ch=6 c=11 v=69
158528 Par ch=6 c=11 v=68
158540 Par ch=6 c=11 v=67
158552 Par ch=6 c=11 v=66
158560 Par ch=6 c=11 v=65
158572 Par ch=6 c=11 v=64
158573 On ch=6 n=84 v=0
158573 On ch=6 n=72 v=0
158592 Par ch=6 c=11 v=64
158592 On ch=6 n=70 v=47
158592 On ch=6 n=82 v=47
158600 Par ch=6 c=11 v=65
158604 Par ch=6 c=11 v=66
158612 Par ch=6 c=11 v=67
158616 Par ch=6 c=11 v=68
158624 Par ch=6 c=11 v=69
158628 Par ch=6 c=11 v=70
158636 Par ch=6 c=11 v=71
158640 Par ch=6 c=11 v=72
158648 Par ch=6 c=11 v=73
158652 Par ch=6 c=11 v=74
158660 Par ch=6 c=11 v=75
158664 Par ch=6 c=11 v=76
158672 Par ch=6 c=11 v=77
158676 Par ch=6 c=11 v=78
158684 Par ch=6 c=11 v=79
158688 Par ch=6 c=11 v=80
158696 Par ch=6 c=11 v=81
158700 Par ch=6 c=11 v=82
158708 Par ch=6 c=11 v=83
158712 Par ch=6 c=11 v=84
158720 Par ch=6 c=11 v=85
158724 Par ch=6 c=11 v=86
158732 Par ch=6 c=11 v=87
158736 Par ch=6 c=11 v=88
158744 Par ch=6 c=11 v=89
158748 Par ch=6 c=11 v=90
158756 Par ch=6 c=11 v=91
158760 Par ch=6 c=11 v=92
158768 Par ch=6 c=11 v=93
158772 Par ch=6 c=11 v=94
158780 Par ch=6 c=11 v=95
158784 Par ch=6 c=11 v=96
158792 Par ch=6 c=11 v=97
158796 Par ch=6 c=11 v=98
158804 Par ch=6 c=11 v=99
158808 Par ch=6 c=11 v=100
158816 Par ch=6 c=11 v=101
158820 Par ch=6 c=11 v=102
158822 On ch=6 n=82 v=0
158822 On ch=6 n=70 v=0
158828 Par ch=6 c=11 v=103
158832 Par ch=6 c=11 v=104
158840 Par ch=6 c=11 v=105
158844 Par ch=6 c=11 v=106
158852 Par ch=6 c=11 v=107
158856 Par ch=6 c=11 v=108
158864 Par ch=6 c=11 v=109
158868 Par ch=6 c=11 v=110
158876 Par ch=6 c=11 v=111
158880 Par ch=6 c=11 v=112
158880 On ch=6 n=68 v=47
158880 On ch=6 n=80 v=47
158918 On ch=6 n=80 v=0
158918 On ch=6 n=68 v=0
158928 On ch=6 n=67 v=47
158928 On ch=6 n=79 v=47
158966 On ch=6 n=79 v=0
158966 On ch=6 n=67 v=0
158976 Par ch=6 c=11 v=64
158976 On ch=6 n=66 v=95
158976 On ch=6 n=78 v=95
159206 On ch=6 n=78 v=0
159206 On ch=6 n=66 v=0
159264 On ch=6 n=65 v=95
159264 On ch=6 n=77 v=95
159341 On ch=6 n=77 v=0
159341 On ch=6 n=65 v=0
159360 Par ch=6 c=11 v=64
159360 On ch=6 n=63 v=95
159360 On ch=6 n=75 v=95
159384 Par ch=6 c=11 v=65
159408 Par ch=6 c=11 v=66
159428 Par ch=6 c=11 v=67
159452 Par ch=6 c=11 v=68
159476 Par ch=6 c=11 v=69
159496 Par ch=6 c=11 v=70
159520 Par ch=6 c=11 v=71
159544 Par ch=6 c=11 v=72
159564 Par ch=6 c=11 v=73
159588 Par ch=6 c=11 v=74
159590 On ch=6 n=75 v=0
159590 On ch=6 n=63 v=0
159612 Par ch=6 c=11 v=75
159632 Par ch=6 c=11 v=76
159648 On ch=6 n=62 v=95
159648 On ch=6 n=74 v=95
159656 Par ch=6 c=11 v=77
159680 Par ch=6 c=11 v=78
159686 On ch=6 n=74 v=0
159686 On ch=6 n=62 v=0
159696 On ch=6 n=60 v=95
159696 On ch=6 n=72 v=95
159700 Par ch=6 c=11 v=79
159724 Par ch=6 c=11 v=80
159734 On ch=6 n=72 v=0
159734 On ch=6 n=60 v=0
159744 Par ch=6 c=11 v=64
159744 On ch=6 n=59 v=111
159744 On ch=6 n=71 v=111
160128 Par ch=6 c=11 v=64
160152 Par ch=6 c=11 v=65
160176 Par ch=6 c=11 v=66
160196 Par ch=6 c=11 v=67
160220 Par ch=6 c=11 v=68
160244 Par ch=6 c=11 v=69
160264 Par ch=6 c=11 v=70
160288 Par ch=6 c=11 v=71
160312 Par ch=6 c=11 v=72
160332 Par ch=6 c=11 v=73
160356 Par ch=6 c=11 v=74
160380 Par ch=6 c=11 v=75
160400 Par ch=6 c=11 v=76
160424 Par ch=6 c=11 v=77
160448 Par ch=6 c=11 v=78
160468 Par ch=6 c=11 v=79
160492 Par ch=6 c=11 v=80
160512 On ch=6 n=71 v=0
160512 On ch=6 n=59 v=0
160512 On ch=6 n=60 v=111
160512 On ch=6 n=72 v=111
160550 On ch=6 n=72 v=0
160550 On ch=6 n=60 v=0
161280 Par ch=6 c=11 v=64
165216 On ch=6 n=58 v=47
165216 On ch=6 n=55 v=47
165216 On ch=6 n=52 v=47
165370 On ch=6 n=52 v=0
165370 On ch=6 n=55 v=0
165370 On ch=6 n=58 v=0
165600 On ch=6 n=55 v=47
165600 On ch=6 n=58 v=47
165600 On ch=6 n=52 v=47
165754 On ch=6 n=52 v=0
165754 On ch=6 n=58 v=0
165754 On ch=6 n=55 v=0
168000 On ch=6 n=52 v=31
168000 On ch=6 n=55 v=31
168154 On ch=6 n=55 v=0
168154 On ch=6 n=52 v=0
168384 On ch=6 n=52 v=31
168384 On ch=6 n=55 v=31
168538 On ch=6 n=55 v=0
168538 On ch=6 n=52 v=0
168576 Par ch=6 c=11 v=64
168576 On ch=6 n=72 v=47
168576 On ch=6 n=79 v=47
168624 Par ch=6 c=11 v=63
168668 Par ch=6 c=11 v=62
168712 Par ch=6 c=11 v=61
168760 Par ch=6 c=11 v=60
168804 Par ch=6 c=11 v=59
168848 Par ch=6 c=11 v=58
168896 Par ch=6 c=11 v=57
168940 Par ch=6 c=11 v=56
168984 Par ch=6 c=11 v=55
169028 Par ch=6 c=11 v=54
169076 Par ch=6 c=11 v=53
169120 Par ch=6 c=11 v=52
169164 Par ch=6 c=11 v=51
169212 Par ch=6 c=11 v=50
169256 Par ch=6 c=11 v=49
169267 On ch=6 n=79 v=0
169267 On ch=6 n=72 v=0
169300 Par ch=6 c=11 v=48
169344 Par ch=6 c=11 v=64
169344 On ch=6 n=72 v=111
169357 On ch=6 n=72 v=0
169376 On ch=6 n=71 v=111
169389 On ch=6 n=71 v=0
169408 On ch=6 n=70 v=111
169421 On ch=6 n=70 v=0
169440 On ch=6 n=69 v=111
169453 On ch=6 n=69 v=0
169472 On ch=6 n=68 v=111
169485 On ch=6 n=68 v=0
169504 On ch=6 n=67 v=111
169517 On ch=6 n=67 v=0
169536 On ch=6 n=66 v=111
169549 On ch=6 n=66 v=0
169568 On ch=6 n=65 v=111
169581 On ch=6 n=65 v=0
169600 On ch=6 n=64 v=111
169613 On ch=6 n=64 v=0
169632 On ch=6 n=63 v=111
169645 On ch=6 n=63 v=0
169664 On ch=6 n=62 v=111
169677 On ch=6 n=62 v=0
169696 On ch=6 n=61 v=111
169709 On ch=6 n=61 v=0
169728 On ch=6 n=60 v=111
169728 On ch=6 n=72 v=111
169741 On ch=6 n=72 v=0
169741 On ch=6 n=60 v=0
169760 On ch=6 n=59 v=111
169760 On ch=6 n=71 v=111
169773 On ch=6 n=71 v=0
169773 On ch=6 n=59 v=0
169792 On ch=6 n=58 v=111
169792 On ch=6 n=70 v=111
169805 On ch=6 n=70 v=0
169805 On ch=6 n=58 v=0
169824 On ch=6 n=57 v=111
169824 On ch=6 n=69 v=111
169837 On ch=6 n=69 v=0
169837 On ch=6 n=57 v=0
169856 On ch=6 n=56 v=111
169856 On ch=6 n=68 v=111
169869 On ch=6 n=68 v=0
169869 On ch=6 n=56 v=0
169888 On ch=6 n=55 v=111
169888 On ch=6 n=67 v=111
169901 On ch=6 n=67 v=0
169901 On ch=6 n=55 v=0
169920 On ch=6 n=54 v=111
169920 On ch=6 n=66 v=111
169933 On ch=6 n=66 v=0
169933 On ch=6 n=54 v=0
169952 On ch=6 n=53 v=111
169952 On ch=6 n=65 v=111
169965 On ch=6 n=65 v=0
169965 On ch=6 n=53 v=0
169984 On ch=6 n=52 v=111
169984 On ch=6 n=64 v=111
169997 On ch=6 n=64 v=0
169997 On ch=6 n=52 v=0
170016 On ch=6 n=63 v=111
170029 On ch=6 n=63 v=0
170048 On ch=6 n=62 v=111
170061 On ch=6 n=62 v=0
170080 On ch=6 n=61 v=111
170093 On ch=6 n=61 v=0
170112 On ch=6 n=60 v=111
170150 On ch=6 n=60 v=0
170496 On ch=6 n=60 v=31
170534 On ch=6 n=60 v=0
170534 Meta TrkEnd
TrkEnd
MTrk
0 Meta 0x21 00
0 Meta TrkName "BS CLARINET"
192 Par ch=7 c=1 v=8
196 Par ch=7 c=7 v=127
200 Par ch=7 c=10 v=64
204 Par ch=7 c=11 v=64
208 Par ch=7 c=91 v=112
212 Par ch=7 c=93 v=32
216 Par ch=7 c=0 v=8
216 Par ch=7 c=32 v=0
216 PrCh ch=7 p=71
7680 On ch=7 n=60 v=31
9523 On ch=7 n=60 v=0
9600 On ch=7 n=55 v=95
9631 On ch=7 n=55 v=0
9672 On ch=7 n=50 v=47
9688 On ch=7 n=50 v=0
9696 On ch=7 n=43 v=47
9727 On ch=7 n=43 v=0
9984 On ch=7 n=55 v=95
10015 On ch=7 n=55 v=0
10056 On ch=7 n=50 v=47
10072 On ch=7 n=50 v=0
10080 On ch=7 n=43 v=47
10111 On ch=7 n=43 v=0
11136 On ch=7 n=55 v=47
11167 On ch=7 n=55 v=0
11208 On ch=7 n=50 v=47
11224 On ch=7 n=50 v=0
11232 On ch=7 n=43 v=47
11263 On ch=7 n=43 v=0
11520 On ch=7 n=55 v=47
11551 On ch=7 n=55 v=0
11592 On ch=7 n=50 v=47
11608 On ch=7 n=50 v=0
11616 On ch=7 n=43 v=47
11647 On ch=7 n=43 v=0
12000 On ch=7 n=55 v=79
12038 On ch=7 n=55 v=0
12072 On ch=7 n=55 v=79
12091 On ch=7 n=55 v=0
12096 On ch=7 n=62 v=79
12173 On ch=7 n=62 v=0
12192 On ch=7 n=65 v=79
12250 On ch=7 n=65 v=0
12264 On ch=7 n=63 v=79
12283 On ch=7 n=63 v=0
12288 On ch=7 n=62 v=79
12319 On ch=7 n=62 v=0
12480 On ch=7 n=59 v=95
12634 On ch=7 n=59 v=0
12672 On ch=7 n=60 v=95
12902 On ch=7 n=60 v=0
12960 On ch=7 n=60 v=95
13037 On ch=7 n=60 v=0
13056 On ch=7 n=60 v=95
13133 On ch=7 n=60 v=0
13440 On ch=7 n=52 v=47
13594 On ch=7 n=52 v=0
13632 Par ch=7 c=11 v=64
13632 On ch=7 n=55 v=47
13644 Par ch=7 c=11 v=65
13652 Par ch=7 c=11 v=66
13660 Par ch=7 c=11 v=67
13672 Par ch=7 c=11 v=68
13680 Par ch=7 c=11 v=69
13688 Par ch=7 c=11 v=70
13696 Par ch=7 c=11 v=71
13708 Par ch=7 c=11 v=72
13716 Par ch=7 c=11 v=73
13724 Par ch=7 c=11 v=74
13736 Par ch=7 c=11 v=75
13744 Par ch=7 c=11 v=76
13747 On ch=7 n=55 v=0
13752 Par ch=7 c=11 v=77
13760 Par ch=7 c=11 v=78
13772 Par ch=7 c=11 v=79
13776 On ch=7 n=53 v=47
13780 Par ch=7 c=11 v=80
13788 Par ch=7 c=11 v=81
13800 Par ch=7 c=11 v=82
13808 Par ch=7 c=11 v=83
13814 On ch=7 n=53 v=0
13816 Par ch=7 c=11 v=84
13824 Par ch=7 c=11 v=85
13824 On ch=7 n=52 v=47
13836 Par ch=7 c=11 v=86
13844 Par ch=7 c=11 v=87
13852 Par ch=7 c=11 v=88
13864 Par ch=7 c=11 v=89
13872 Par ch=7 c=11 v=90
13880 Par ch=7 c=11 v=91
13888 Par ch=7 c=11 v=92
13900 Par ch=7 c=11 v=93
13908 Par ch=7 c=11 v=94
13916 Par ch=7 c=11 v=95
13928 Par ch=7 c=11 v=96
13936 Par ch=7 c=11 v=97
13938 On ch=7 n=52 v=0
13944 Par ch=7 c=11 v=98
13952 Par ch=7 c=11 v=99
13964 Par ch=7 c=11 v=100
13972 Par ch=7 c=11 v=101
13980 Par ch=7 c=11 v=102
13992 Par ch=7 c=11 v=103
14000 Par ch=7 c=11 v=104
14008 Par ch=7 c=11 v=105
14016 Par ch=7 c=11 v=106
14028 Par ch=7 c=11 v=107
14036 Par ch=7 c=11 v=108
14044 Par ch=7 c=11 v=109
14056 Par ch=7 c=11 v=110
14064 Par ch=7 c=11 v=111
14072 Par ch=7 c=11 v=112
14080 Par ch=7 c=11 v=113
14080 On ch=7 n=48 v=47
14092 Par ch=7 c=11 v=114
14100 Par ch=7 c=11 v=115
14101 On ch=7 n=48 v=0
14108 Par ch=7 c=11 v=116
14112 On ch=7 n=55 v=47
14120 Par ch=7 c=11 v=117
14128 Par ch=7 c=11 v=118
14133 On ch=7 n=55 v=0
14136 Par ch=7 c=11 v=119
14144 Par ch=7 c=11 v=120
14144 On ch=7 n=58 v=47
14156 Par ch=7 c=11 v=121
14164 Par ch=7 c=11 v=122
14165 On ch=7 n=58 v=0
14172 Par ch=7 c=11 v=123
14176 On ch=7 n=61 v=47
14184 Par ch=7 c=11 v=124
14192 Par ch=7 c=11 v=125
14197 On ch=7 n=61 v=0
14200 Par ch=7 c=11 v=126
14208 Par ch=7 c=11 v=64
14208 On ch=7 n=60 v=111
14239 On ch=7 n=60 v=0
14280 On ch=7 n=58 v=111
14296 On ch=7 n=58 v=0
14304 On ch=7 n=56 v=111
14335 On ch=7 n=56 v=0
14376 On ch=7 n=55 v=111
14392 On ch=7 n=55 v=0
14400 On ch=7 n=53 v=111
14431 On ch=7 n=53 v=0
14472 On ch=7 n=51 v=111
14488 On ch=7 n=51 v=0
14496 On ch=7 n=49 v=111
14527 On ch=7 n=49 v=0
14568 On ch=7 n=48 v=111
14584 On ch=7 n=48 v=0
14592 On ch=7 n=56 v=111
14623 On ch=7 n=56 v=0
14664 On ch=7 n=55 v=111
14680 On ch=7 n=55 v=0
14688 On ch=7 n=53 v=111
14719 On ch=7 n=53 v=0
14760 On ch=7 n=51 v=111
14776 On ch=7 n=51 v=0
14784 On ch=7 n=49 v=111
14815 On ch=7 n=49 v=0
14856 On ch=7 n=48 v=111
14872 On ch=7 n=48 v=0
14880 On ch=7 n=46 v=111
14911 On ch=7 n=46 v=0
14952 On ch=7 n=44 v=111
14968 On ch=7 n=44 v=0
14976 On ch=7 n=43 v=111
15040 On ch=7 n=43 v=0
15072 On ch=7 n=55 v=111
15136 On ch=7 n=55 v=0
15168 On ch=7 n=54 v=111
15232 On ch=7 n=54 v=0
15264 On ch=7 n=53 v=111
15328 On ch=7 n=53 v=0
15360 On ch=7 n=52 v=111
15392 On ch=7 n=52 v=0
15456 On ch=7 n=51 v=111
15585 On ch=7 n=51 v=0
15648 On ch=7 n=50 v=111
15712 On ch=7 n=50 v=0
15744 On ch=7 n=48 v=111
15776 On ch=7 n=48 v=0
50400 On ch=7 n=52 v=47
50477 On ch=7 n=52 v=0
50496 On ch=7 n=54 v=47
50573 On ch=7 n=54 v=0
50592 On ch=7 n=56 v=47
50669 On ch=7 n=56 v=0
50688 On ch=7 n=57 v=47
50765 On ch=7 n=57 v=0
50784 On ch=7 n=54 v=47
50861 On ch=7 n=54 v=0
50880 On ch=7 n=56 v=47
50957 On ch=7 n=56 v=0
50976 On ch=7 n=57 v=47
51053 On ch=7 n=57 v=0
51072 On ch=7 n=59 v=47
51610 On ch=7 n=59 v=0
58080 On ch=7 n=59 v=47
58272 On ch=7 n=59 v=0
58272 On ch=7 n=57 v=47
58368 On ch=7 n=57 v=0
58368 On ch=7 n=55 v=47
58560 On ch=7 n=55 v=0
58560 On ch=7 n=57 v=47
58656 On ch=7 n=57 v=0
58656 On ch=7 n=59 v=47
58752 On ch=7 n=59 v=0
58752 On ch=7 n=60 v=47
58944 On ch=7 n=60 v=0
58944 On ch=7 n=59 v=47
59040 On ch=7 n=59 v=0
59040 On ch=7 n=57 v=47
59088 On ch=7 n=57 v=0
59088 On ch=7 n=55 v=47
59136 On ch=7 n=55 v=0
59136 On ch=7 n=54 v=47
59443 On ch=7 n=54 v=0
59592 On ch=7 n=52 v=47
59608 On ch=7 n=52 v=0
59616 On ch=7 n=54 v=47
59647 On ch=7 n=54 v=0
59688 On ch=7 n=55 v=47
59704 On ch=7 n=55 v=0
59712 On ch=7 n=57 v=47
59866 On ch=7 n=57 v=0
59976 On ch=7 n=55 v=47
59992 On ch=7 n=55 v=0
60000 On ch=7 n=57 v=47
60031 On ch=7 n=57 v=0
60072 On ch=7 n=59 v=47
60088 On ch=7 n=59 v=0
60096 On ch=7 n=60 v=47
60319 On ch=7 n=60 v=0
60384 Par ch=7 c=11 v=64
60384 On ch=7 n=59 v=47
60404 Par ch=7 c=11 v=65
60420 Par ch=7 c=11 v=66
60436 Par ch=7 c=11 v=67
60452 Par ch=7 c=11 v=68
60472 Par ch=7 c=11 v=69
60488 Par ch=7 c=11 v=70
60504 Par ch=7 c=11 v=71
60520 Par ch=7 c=11 v=72
60538 On ch=7 n=59 v=0
60540 Par ch=7 c=11 v=73
60556 Par ch=7 c=11 v=74
60572 Par ch=7 c=11 v=75
60576 On ch=7 n=64 v=47
60588 Par ch=7 c=11 v=76
60608 Par ch=7 c=11 v=77
60624 Par ch=7 c=11 v=78
60640 Par ch=7 c=11 v=79
60656 Par ch=7 c=11 v=80
60749 On ch=7 n=64 v=0
60768 On ch=7 n=62 v=47
60912 Par ch=7 c=11 v=80
60920 Par ch=7 c=11 v=79
60922 On ch=7 n=62 v=0
60928 Par ch=7 c=11 v=78
60936 Par ch=7 c=11 v=77
60944 Par ch=7 c=11 v=76
60952 Par ch=7 c=11 v=75
60960 Par ch=7 c=11 v=74
60960 On ch=7 n=64 v=47
60968 Par ch=7 c=11 v=73
60976 Par ch=7 c=11 v=72
60984 Par ch=7 c=11 v=71
60992 Par ch=7 c=11 v=70
60998 On ch=7 n=64 v=0
61000 Par ch=7 c=11 v=69
61008 Par ch=7 c=11 v=68
61008 On ch=7 n=62 v=47
61016 Par ch=7 c=11 v=67
61024 Par ch=7 c=11 v=66
61032 Par ch=7 c=11 v=65
61040 Par ch=7 c=11 v=64
61046 On ch=7 n=62 v=0
61056 On ch=7 n=60 v=47
61087 On ch=7 n=60 v=0
61128 On ch=7 n=59 v=47
61144 On ch=7 n=59 v=0
61152 On ch=7 n=57 v=47
61306 On ch=7 n=57 v=0
61344 On ch=7 n=54 v=47
61392 On ch=7 n=54 v=0
61392 On ch=7 n=59 v=47
61430 On ch=7 n=59 v=0
61440 Par ch=7 c=11 v=64
61440 On ch=7 n=59 v=47
61460 Par ch=7 c=11 v=65
61476 Par ch=7 c=11 v=66
61492 Par ch=7 c=11 v=67
61508 Par ch=7 c=11 v=68
61528 Par ch=7 c=11 v=69
61544 Par ch=7 c=11 v=70
61560 Par ch=7 c=11 v=71
61576 Par ch=7 c=11 v=72
61596 Par ch=7 c=11 v=73
61612 Par ch=7 c=11 v=74
61628 Par ch=7 c=11 v=75
61644 Par ch=7 c=11 v=76
61664 Par ch=7 c=11 v=77
61670 On ch=7 n=59 v=0
61680 Par ch=7 c=11 v=78
61696 Par ch=7 c=11 v=79
61712 Par ch=7 c=11 v=80
61728 On ch=7 n=57 v=47
61766 On ch=7 n=57 v=0
61776 On ch=7 n=55 v=47
61814 On ch=7 n=55 v=0
61824 Par ch=7 c=11 v=80
61824 On ch=7 n=54 v=47
61832 Par ch=7 c=11 v=79
61836 Par ch=7 c=11 v=78
61844 Par ch=7 c=11 v=77
61848 Par ch=7 c=11 v=76
61856 Par ch=7 c=11 v=75
61860 Par ch=7 c=11 v=74
61868 Par ch=7 c=11 v=73
61872 Par ch=7 c=11 v=72
61880 Par ch=7 c=11 v=71
61884 Par ch=7 c=11 v=70
61892 Par ch=7 c=11 v=69
61896 Par ch=7 c=11 v=68
61901 On ch=7 n=54 v=0
61904 Par ch=7 c=11 v=67
61908 Par ch=7 c=11 v=66
61916 Par ch=7 c=11 v=65
61920 Par ch=7 c=11 v=64
61920 On ch=7 n=52 v=47
62074 On ch=7 n=52 v=0
62304 Par ch=7 c=11 v=64
62304 On ch=7 n=60 v=47
62324 Par ch=7 c=11 v=65
62340 Par ch=7 c=11 v=66
62356 Par ch=7 c=11 v=67
62372 Par ch=7 c=11 v=68
62392 Par ch=7 c=11 v=69
62408 Par ch=7 c=11 v=70
62424 Par ch=7 c=11 v=71
62440 Par ch=7 c=11 v=72
62458 On ch=7 n=60 v=0
62460 Par ch=7 c=11 v=73
62476 Par ch=7 c=11 v=74
62492 Par ch=7 c=11 v=75
62496 On ch=7 n=59 v=47
62508 Par ch=7 c=11 v=76
62528 Par ch=7 c=11 v=77
62534 On ch=7 n=59 v=0
62544 Par ch=7 c=11 v=78
62544 On ch=7 n=57 v=47
62560 Par ch=7 c=11 v=79
62576 Par ch=7 c=11 v=80
62582 On ch=7 n=57 v=0
62592 Par ch=7 c=11 v=80
62592 On ch=7 n=55 v=47
62600 Par ch=7 c=11 v=79
62604 Par ch=7 c=11 v=78
62612 Par ch=7 c=11 v=77
62616 Par ch=7 c=11 v=76
62624 Par ch=7 c=11 v=75
62628 Par ch=7 c=11 v=74
62636 Par ch=7 c=11 v=73
62640 Par ch=7 c=11 v=72
62648 Par ch=7 c=11 v=71
62652 Par ch=7 c=11 v=70
62660 Par ch=7 c=11 v=69
62664 Par ch=7 c=11 v=68
62669 On ch=7 n=55 v=0
62672 Par ch=7 c=11 v=67
62676 Par ch=7 c=11 v=66
62684 Par ch=7 c=11 v=65
62688 Par ch=7 c=11 v=64
62688 On ch=7 n=54 v=47
62842 On ch=7 n=54 v=0
64128 Par ch=7 c=0 v=0
64128 Par ch=7 c=32 v=0
64128 PrCh ch=7 p=71
64128 Par ch=7 c=11 v=96
64128 On ch=7 n=88 v=31
64282 On ch=7 n=88 v=0
64320 On ch=7 n=84 v=31
64336 Par ch=7 c=11 v=96
64352 Par ch=7 c=11 v=97
64368 Par ch=7 c=11 v=98
64384 Par ch=7 c=11 v=99
64400 Par ch=7 c=11 v=100
64416 Par ch=7 c=11 v=101
64432 Par ch=7 c=11 v=102
64435 On ch=7 n=84 v=0
64444 Par ch=7 c=11 v=103
64460 Par ch=7 c=11 v=104
64464 On ch=7 n=83 v=31
64476 Par ch=7 c=11 v=105
64492 Par ch=7 c=11 v=106
64502 On ch=7 n=83 v=0
64508 Par ch=7 c=11 v=107
64512 On ch=7 n=81 v=31
64524 Par ch=7 c=11 v=108
64540 Par ch=7 c=11 v=109
64550 On ch=7 n=81 v=0
64556 Par ch=7 c=11 v=110
64568 Par ch=7 c=11 v=111
64584 Par ch=7 c=11 v=112
64600 Par ch=7 c=11 v=113
64608 On ch=7 n=78 v=31
64616 Par ch=7 c=11 v=114
64632 Par ch=7 c=11 v=115
64648 Par ch=7 c=11 v=116
64664 Par ch=7 c=11 v=117
64680 Par ch=7 c=11 v=118
64692 Par ch=7 c=11 v=119
64708 Par ch=7 c=11 v=120
64724 Par ch=7 c=11 v=121
64740 Par ch=7 c=11 v=122
64756 Par ch=7 c=11 v=123
64760 On ch=7 n=78 v=0
64772 Par ch=7 c=11 v=124
64788 Par ch=7 c=11 v=125
64800 Par ch=7 c=11 v=126
64800 On ch=7 n=71 v=31
64838 On ch=7 n=71 v=0
64896 Par ch=7 c=11 v=64
64896 On ch=7 n=79 v=95
64973 On ch=7 n=79 v=0
64992 On ch=7 n=83 v=95
65030 On ch=7 n=83 v=0
65064 On ch=7 n=81 v=95
65083 On ch=7 n=81 v=0
65088 On ch=7 n=79 v=95
65203 On ch=7 n=79 v=0
65232 Par ch=7 c=11 v=64
65232 On ch=7 n=78 v=95
65260 Par ch=7 c=11 v=65
65284 Par ch=7 c=11 v=66
65312 Par ch=7 c=11 v=67
65318 On ch=7 n=78 v=0
65328 On ch=7 n=76 v=95
65336 Par ch=7 c=11 v=68
65360 Par ch=7 c=11 v=69
65366 On ch=7 n=76 v=0
65376 On ch=7 n=79 v=95
65388 Par ch=7 c=11 v=70
65407 On ch=7 n=79 v=0
65412 Par ch=7 c=11 v=71
65436 Par ch=7 c=11 v=72
65448 On ch=7 n=78 v=95
65464 On ch=7 n=78 v=0
65464 Par ch=7 c=11 v=73
65472 On ch=7 n=76 v=95
65488 Par ch=7 c=11 v=74
65512 Par ch=7 c=11 v=75
65540 Par ch=7 c=11 v=76
65564 Par ch=7 c=11 v=77
65566 On ch=7 n=76 v=0
65588 Par ch=7 c=11 v=78
65616 Par ch=7 c=11 v=79
65616 On ch=7 n=74 v=95
65640 Par ch=7 c=11 v=80
65647 On ch=7 n=74 v=0
65664 Par ch=7 c=11 v=64
65664 On ch=7 n=72 v=79
65894 On ch=7 n=72 v=0
65952 On ch=7 n=71 v=79
66029 On ch=7 n=71 v=0
66048 On ch=7 n=69 v=79
66202 On ch=7 n=69 v=0
66432 On ch=7 n=69 v=79
66662 On ch=7 n=69 v=0
66720 On ch=7 n=67 v=79
66797 On ch=7 n=67 v=0
66816 On ch=7 n=65 v=79
66970 On ch=7 n=65 v=0
67872 On ch=7 n=76 v=95
67903 On ch=7 n=76 v=0
67944 On ch=7 n=78 v=95
67960 On ch=7 n=78 v=0
67968 On ch=7 n=78 v=95
68045 On ch=7 n=78 v=0
68064 On ch=7 n=69 v=95
68095 On ch=7 n=69 v=0
68136 On ch=7 n=74 v=95
68152 On ch=7 n=74 v=0
68160 On ch=7 n=74 v=95
68237 On ch=7 n=74 v=0
68256 On ch=7 n=76 v=95
68277 On ch=7 n=76 v=0
68288 On ch=7 n=78 v=95
68309 On ch=7 n=78 v=0
68320 On ch=7 n=79 v=95
68341 On ch=7 n=79 v=0
68352 Par ch=7 c=11 v=64
68352 On ch=7 n=81 v=95
68376 Par ch=7 c=11 v=65
68400 Par ch=7 c=11 v=66
68420 Par ch=7 c=11 v=67
68429 On ch=7 n=81 v=0
68444 Par ch=7 c=11 v=68
68448 On ch=7 n=78 v=95
68468 Par ch=7 c=11 v=69
68469 On ch=7 n=78 v=0
68480 On ch=7 n=79 v=95
68488 Par ch=7 c=11 v=70
68501 On ch=7 n=79 v=0
68512 Par ch=7 c=11 v=71
68512 On ch=7 n=81 v=95
68533 On ch=7 n=81 v=0
68536 Par ch=7 c=11 v=72
68544 On ch=7 n=83 v=95
68556 Par ch=7 c=11 v=73
68580 Par ch=7 c=11 v=74
68604 Par ch=7 c=11 v=75
68621 On ch=7 n=83 v=0
68624 Par ch=7 c=11 v=76
68640 On ch=7 n=80 v=95
68648 Par ch=7 c=11 v=77
68661 On ch=7 n=80 v=0
68672 Par ch=7 c=11 v=78
68672 On ch=7 n=81 v=95
68692 Par ch=7 c=11 v=79
68693 On ch=7 n=81 v=0
68704 On ch=7 n=83 v=95
68716 Par ch=7 c=11 v=80
68725 On ch=7 n=83 v=0
68736 Par ch=7 c=11 v=64
68736 On ch=7 n=85 v=95
68784 Par ch=7 c=11 v=32
68890 On ch=7 n=85 v=0
69120 Par ch=7 c=11 v=64
69120 On ch=7 n=85 v=95
69144 Par ch=7 c=11 v=63
69158 On ch=7 n=85 v=0
69168 Par ch=7 c=11 v=62
69188 Par ch=7 c=11 v=61
69192 On ch=7 n=83 v=95
69211 On ch=7 n=83 v=0
69212 Par ch=7 c=11 v=60
69216 On ch=7 n=81 v=95
69236 Par ch=7 c=11 v=59
69254 On ch=7 n=81 v=0
69256 Par ch=7 c=11 v=58
69280 Par ch=7 c=11 v=57
69288 On ch=7 n=80 v=95
69304 Par ch=7 c=11 v=56
69307 On ch=7 n=80 v=0
69312 On ch=7 n=78 v=95
69324 Par ch=7 c=11 v=55
69348 Par ch=7 c=11 v=54
69350 On ch=7 n=78 v=0
69372 Par ch=7 c=11 v=53
69384 On ch=7 n=76 v=95
69392 Par ch=7 c=11 v=52
69403 On ch=7 n=76 v=0
69408 On ch=7 n=75 v=95
69416 Par ch=7 c=11 v=51
69440 Par ch=7 c=11 v=50
69446 On ch=7 n=75 v=0
69460 Par ch=7 c=11 v=49
69480 On ch=7 n=73 v=95
69484 Par ch=7 c=11 v=48
69499 On ch=7 n=73 v=0
69888 Par ch=7 c=11 v=64
69888 On ch=7 n=85 v=95
69912 Par ch=7 c=11 v=63
69926 On ch=7 n=85 v=0
69936 Par ch=7 c=11 v=62
69956 Par ch=7 c=11 v=61
69960 On ch=7 n=83 v=95
69979 On ch=7 n=83 v=0
69980 Par ch=7 c=11 v=60
69984 On ch=7 n=81 v=95
70004 Par ch=7 c=11 v=59
70022 On ch=7 n=81 v=0
70024 Par ch=7 c=11 v=58
70048 Par ch=7 c=11 v=57
70056 On ch=7 n=80 v=95
70072 Par ch=7 c=11 v=56
70075 On ch=7 n=80 v=0
70080 On ch=7 n=78 v=95
70092 Par ch=7 c=11 v=55
70116 Par ch=7 c=11 v=54
70118 On ch=7 n=78 v=0
70140 Par ch=7 c=11 v=53
70152 On ch=7 n=76 v=95
70160 Par ch=7 c=11 v=52
70171 On ch=7 n=76 v=0
70176 On ch=7 n=74 v=95
70184 Par ch=7 c=11 v=51
70208 Par ch=7 c=11 v=50
70214 On ch=7 n=74 v=0
70228 Par ch=7 c=11 v=49
70248 On ch=7 n=73 v=95
70252 Par ch=7 c=11 v=48
70267 On ch=7 n=73 v=0
70656 Par ch=7 c=11 v=64
70656 On ch=7 n=73 v=111
70810 On ch=7 n=73 v=0
70848 On ch=7 n=72 v=111
70963 On ch=7 n=72 v=0
70992 On ch=7 n=68 v=111
71030 On ch=7 n=68 v=0
71040 On ch=7 n=73 v=111
71194 On ch=7 n=73 v=0
71232 On ch=7 n=72 v=111
71347 On ch=7 n=72 v=0
71376 On ch=7 n=68 v=111
71414 On ch=7 n=68 v=0
71424 On ch=7 n=74 v=111
71520 On ch=7 n=74 v=0
71520 On ch=7 n=73 v=47
71674 On ch=7 n=73 v=0
71808 On ch=7 n=74 v=111
71904 On ch=7 n=74 v=0
71904 On ch=7 n=73 v=47
72058 On ch=7 n=73 v=0
72192 On ch=7 n=74 v=95
72288 On ch=7 n=74 v=0
72288 On ch=7 n=73 v=47
72442 On ch=7 n=73 v=0
74496 Par ch=7 c=11 v=64
74496 On ch=7 n=81 v=47
74512 Par ch=7 c=11 v=65
74524 Par ch=7 c=11 v=66
74536 Par ch=7 c=11 v=67
74548 Par ch=7 c=11 v=68
74560 Par ch=7 c=11 v=69
74572 Par ch=7 c=11 v=70
74584 Par ch=7 c=11 v=71
74596 Par ch=7 c=11 v=72
74608 Par ch=7 c=11 v=73
74620 Par ch=7 c=11 v=74
74632 Par ch=7 c=11 v=75
74644 Par ch=7 c=11 v=76
74656 Par ch=7 c=11 v=77
74668 Par ch=7 c=11 v=78
74680 Par ch=7 c=11 v=79
74692 Par ch=7 c=11 v=80
74704 Par ch=7 c=11 v=81
74716 Par ch=7 c=11 v=82
74728 Par ch=7 c=11 v=83
74740 Par ch=7 c=11 v=84
74752 Par ch=7 c=11 v=85
74768 Par ch=7 c=11 v=86
74780 Par ch=7 c=11 v=87
74792 Par ch=7 c=11 v=88
74804 Par ch=7 c=11 v=89
74816 Par ch=7 c=11 v=90
74828 Par ch=7 c=11 v=91
74840 Par ch=7 c=11 v=92
74842 On ch=7 n=81 v=0
74852 Par ch=7 c=11 v=93
74864 Par ch=7 c=11 v=94
74876 Par ch=7 c=11 v=95
74880 On ch=7 n=81 v=47
74888 Par ch=7 c=11 v=96
74900 Par ch=7 c=11 v=97
74912 Par ch=7 c=11 v=98
74924 Par ch=7 c=11 v=99
74936 Par ch=7 c=11 v=100
74948 Par ch=7 c=11 v=101
74960 Par ch=7 c=11 v=102
74972 Par ch=7 c=11 v=103
74984 Par ch=7 c=11 v=104
74996 Par ch=7 c=11 v=105
75008 Par ch=7 c=11 v=106
75024 Par ch=7 c=11 v=107
75036 Par ch=7 c=11 v=108
75048 Par ch=7 c=11 v=109
75060 Par ch=7 c=11 v=110
75072 Par ch=7 c=11 v=111
75084 Par ch=7 c=11 v=112
75096 Par ch=7 c=11 v=113
75108 Par ch=7 c=11 v=114
75120 Par ch=7 c=11 v=115
75132 Par ch=7 c=11 v=116
75144 Par ch=7 c=11 v=117
75156 Par ch=7 c=11 v=118
75168 Par ch=7 c=11 v=119
75180 Par ch=7 c=11 v=120
75192 Par ch=7 c=11 v=121
75204 Par ch=7 c=11 v=122
75216 Par ch=7 c=11 v=123
75226 On ch=7 n=81 v=0
75228 Par ch=7 c=11 v=124
75240 Par ch=7 c=11 v=125
75252 Par ch=7 c=11 v=126
75360 Par ch=7 c=11 v=64
75360 On ch=7 n=79 v=95
75477 On ch=7 n=79 v=0
75488 On ch=7 n=78 v=95
75509 On ch=7 n=78 v=0
75520 On ch=7 n=77 v=95
75541 On ch=7 n=77 v=0
75552 On ch=7 n=76 v=95
75573 On ch=7 n=76 v=0
75584 On ch=7 n=75 v=95
75605 On ch=7 n=75 v=0
75616 On ch=7 n=74 v=95
75637 On ch=7 n=74 v=0
75648 On ch=7 n=73 v=95
75669 On ch=7 n=73 v=0
75680 On ch=7 n=72 v=95
75701 On ch=7 n=72 v=0
75712 On ch=7 n=71 v=95
75733 On ch=7 n=71 v=0
75744 On ch=7 n=70 v=95
75765 On ch=7 n=70 v=0
75776 On ch=7 n=69 v=95
75797 On ch=7 n=69 v=0
75808 On ch=7 n=68 v=95
75829 On ch=7 n=68 v=0
75840 On ch=7 n=67 v=95
75878 On ch=7 n=67 v=0
76032 On ch=7 n=80 v=95
76262 On ch=7 n=80 v=0
76320 On ch=7 n=68 v=95
76351 On ch=7 n=68 v=0
76392 On ch=7 n=80 v=95
76408 On ch=7 n=80 v=0
76416 On ch=7 n=80 v=95
76493 On ch=7 n=80 v=0
76512 On ch=7 n=68 v=95
76543 On ch=7 n=68 v=0
76584 On ch=7 n=80 v=95
76600 On ch=7 n=80 v=0
76608 On ch=7 n=80 v=95
76685 On ch=7 n=80 v=0
76704 On ch=7 n=68 v=95
76735 On ch=7 n=68 v=0
76776 On ch=7 n=80 v=95
76792 On ch=7 n=80 v=0
76800 Par ch=7 c=11 v=64
76800 On ch=7 n=81 v=95
76812 Par ch=7 c=11 v=65
76820 Par ch=7 c=11 v=66
76828 Par ch=7 c=11 v=67
76836 Par ch=7 c=11 v=68
76848 Par ch=7 c=11 v=69
76856 Par ch=7 c=11 v=70
76864 Par ch=7 c=11 v=71
76872 Par ch=7 c=11 v=72
76884 Par ch=7 c=11 v=73
76892 Par ch=7 c=11 v=74
76900 Par ch=7 c=11 v=75
76908 Par ch=7 c=11 v=76
76920 Par ch=7 c=11 v=77
76928 Par ch=7 c=11 v=78
76936 Par ch=7 c=11 v=79
76944 Par ch=7 c=11 v=80
76982 On ch=7 n=81 v=0
77184 Par ch=7 c=11 v=64
77568 On ch=7 n=80 v=111
77664 On ch=7 n=80 v=0
77664 On ch=7 n=72 v=111
77856 On ch=7 n=72 v=0
77856 On ch=7 n=73 v=111
77933 On ch=7 n=73 v=0
77952 On ch=7 n=78 v=111
78048 On ch=7 n=78 v=0
78048 On ch=7 n=70 v=111
78240 On ch=7 n=70 v=0
78240 On ch=7 n=71 v=111
78317 On ch=7 n=71 v=0
78336 Par ch=7 c=11 v=64
78336 On ch=7 n=76 v=111
78360 Par ch=7 c=11 v=63
78384 Par ch=7 c=11 v=62
78404 Par ch=7 c=11 v=61
78428 Par ch=7 c=11 v=60
78432 On ch=7 n=76 v=0
78432 On ch=7 n=68 v=111
78452 Par ch=7 c=11 v=59
78472 Par ch=7 c=11 v=58
78496 Par ch=7 c=11 v=57
78520 Par ch=7 c=11 v=56
78540 Par ch=7 c=11 v=55
78564 Par ch=7 c=11 v=54
78588 Par ch=7 c=11 v=53
78608 Par ch=7 c=11 v=52
78624 On ch=7 n=68 v=0
78624 On ch=7 n=69 v=111
78632 Par ch=7 c=11 v=51
78656 Par ch=7 c=11 v=50
78676 Par ch=7 c=11 v=49
78700 Par ch=7 c=11 v=48
78701 On ch=7 n=69 v=0
78720 Par ch=7 c=11 v=47
78720 On ch=7 n=76 v=111
78744 Par ch=7 c=11 v=46
78768 Par ch=7 c=11 v=45
78788 Par ch=7 c=11 v=44
78812 Par ch=7 c=11 v=43
78816 On ch=7 n=76 v=0
78816 On ch=7 n=70 v=111
78836 Par ch=7 c=11 v=42
78856 Par ch=7 c=11 v=41
78880 Par ch=7 c=11 v=40
78904 Par ch=7 c=11 v=39
78924 Par ch=7 c=11 v=38
78948 Par ch=7 c=11 v=37
78972 Par ch=7 c=11 v=36
78992 Par ch=7 c=11 v=35
79008 On ch=7 n=70 v=0
79008 On ch=7 n=71 v=111
79016 Par ch=7 c=11 v=34
79040 Par ch=7 c=11 v=33
79060 Par ch=7 c=11 v=32
79085 On ch=7 n=71 v=0
79488 Par ch=7 c=0 v=8
79488 Par ch=7 c=32 v=0
79488 PrCh ch=7 p=71
79488 Par ch=7 c=11 v=64
91488 On ch=7 n=49 v=31
91519 On ch=7 n=49 v=0
91560 On ch=7 n=47 v=31
91576 On ch=7 n=47 v=0
91584 On ch=7 n=47 v=31
91738 On ch=7 n=47 v=0
91872 On ch=7 n=49 v=31
91903 On ch=7 n=49 v=0
91944 On ch=7 n=47 v=31
91960 On ch=7 n=47 v=0
91968 On ch=7 n=47 v=31
92122 On ch=7 n=47 v=0
93984 On ch=7 n=39 v=111
94848 Par ch=7 c=11 v=64
94860 Par ch=7 c=11 v=63
94872 Par ch=7 c=11 v=62
94884 Par ch=7 c=11 v=61
94896 Par ch=7 c=11 v=60
94908 Par ch=7 c=11 v=59
94916 Par ch=7 c=11 v=58
94928 Par ch=7 c=11 v=57
94940 Par ch=7 c=11 v=56
94952 Par ch=7 c=11 v=55
94964 Par ch=7 c=11 v=54
94976 Par ch=7 c=11 v=53
94984 Par ch=7 c=11 v=52
94996 Par ch=7 c=11 v=51
95008 Par ch=7 c=11 v=50
95020 Par ch=7 c=11 v=49
95032 Par ch=7 c=11 v=48
95040 Par ch=7 c=11 v=47
95052 Par ch=7 c=11 v=46
95064 Par ch=7 c=11 v=45
95076 Par ch=7 c=11 v=44
95088 Par ch=7 c=11 v=43
95100 Par ch=7 c=11 v=42
95108 Par ch=7 c=11 v=41
95120 Par ch=7 c=11 v=40
95132 Par ch=7 c=11 v=39
95144 Par ch=7 c=11 v=38
95156 Par ch=7 c=11 v=37
95168 Par ch=7 c=11 v=36
95176 Par ch=7 c=11 v=35
95188 Par ch=7 c=11 v=34
95200 Par ch=7 c=11 v=33
95212 Par ch=7 c=11 v=32
95386 On ch=7 n=39 v=0
95616 Par ch=7 c=11 v=64
132864 Par ch=7 c=0 v=0
132864 Par ch=7 c=32 v=0
132864 PrCh ch=7 p=71
133152 On ch=7 n=80 v=47
133229 On ch=7 n=80 v=0
133248 Par ch=7 c=11 v=64
133248 On ch=7 n=79 v=47
133264 Par ch=7 c=11 v=65
133280 Par ch=7 c=11 v=66
133296 Par ch=7 c=11 v=67
133312 Par ch=7 c=11 v=68
133325 On ch=7 n=79 v=0
133328 Par ch=7 c=11 v=69
133344 Par ch=7 c=11 v=70
133344 On ch=7 n=74 v=47
133360 Par ch=7 c=11 v=71
133376 Par ch=7 c=11 v=72
133392 Par ch=7 c=11 v=73
133402 On ch=7 n=74 v=0
133408 Par ch=7 c=11 v=74
133416 On ch=7 n=75 v=47
133424 Par ch=7 c=11 v=75
133435 On ch=7 n=75 v=0
133440 Par ch=7 c=11 v=76
133440 On ch=7 n=77 v=47
133452 Par ch=7 c=11 v=77
133468 Par ch=7 c=11 v=78
133484 Par ch=7 c=11 v=79
133500 Par ch=7 c=11 v=80
133516 Par ch=7 c=11 v=81
133517 On ch=7 n=77 v=0
133532 Par ch=7 c=11 v=82
133536 On ch=7 n=80 v=47
133548 Par ch=7 c=11 v=83
133564 Par ch=7 c=11 v=84
133580 Par ch=7 c=11 v=85
133596 Par ch=7 c=11 v=86
133612 Par ch=7 c=11 v=87
133613 On ch=7 n=80 v=0
133628 Par ch=7 c=11 v=88
133632 On ch=7 n=79 v=47
133640 Par ch=7 c=11 v=89
133656 Par ch=7 c=11 v=90
133663 On ch=7 n=79 v=0
133672 Par ch=7 c=11 v=91
133688 Par ch=7 c=11 v=92
133704 Par ch=7 c=11 v=93
133720 Par ch=7 c=11 v=94
133728 On ch=7 n=87 v=47
133736 Par ch=7 c=11 v=95
133752 Par ch=7 c=11 v=96
133768 Par ch=7 c=11 v=97
133784 Par ch=7 c=11 v=98
133800 Par ch=7 c=11 v=99
133816 Par ch=7 c=11 v=100
133828 Par ch=7 c=11 v=101
133844 Par ch=7 c=11 v=102
133860 Par ch=7 c=11 v=103
133876 Par ch=7 c=11 v=104
133882 On ch=7 n=87 v=0
133892 Par ch=7 c=11 v=105
133908 Par ch=7 c=11 v=106
133920 On ch=7 n=86 v=47
133924 Par ch=7 c=11 v=107
133940 Par ch=7 c=11 v=108
133956 Par ch=7 c=11 v=109
133972 Par ch=7 c=11 v=110
133988 Par ch=7 c=11 v=111
133997 On ch=7 n=86 v=0
134004 Par ch=7 c=11 v=112
134016 Par ch=7 c=11 v=64
134016 On ch=7 n=84 v=95
134093 On ch=7 n=84 v=0
134112 On ch=7 n=75 v=95
134170 On ch=7 n=75 v=0
134184 On ch=7 n=77 v=95
134203 On ch=7 n=77 v=0
134208 On ch=7 n=79 v=95
134285 On ch=7 n=79 v=0
134304 On ch=7 n=82 v=95
134362 On ch=7 n=82 v=0
134376 On ch=7 n=80 v=95
134395 On ch=7 n=80 v=0
134400 On ch=7 n=79 v=95
134438 On ch=7 n=79 v=0
134496 On ch=7 n=72 v=95
134650 On ch=7 n=72 v=0
134688 On ch=7 n=74 v=95
134714 On ch=7 n=74 v=0
134720 On ch=7 n=75 v=95
134746 On ch=7 n=75 v=0
134752 On ch=7 n=77 v=95
134778 On ch=7 n=77 v=0
134784 On ch=7 n=79 v=95
134815 On ch=7 n=79 v=0
135424 Par ch=7 c=11 v=64
135424 On ch=7 n=72 v=95
135432 Par ch=7 c=11 v=65
135440 Par ch=7 c=11 v=66
135445 On ch=7 n=72 v=0
135448 Par ch=7 c=11 v=67
135456 Par ch=7 c=11 v=68
135456 On ch=7 n=79 v=95
135464 Par ch=7 c=11 v=69
135472 Par ch=7 c=11 v=70
135477 On ch=7 n=79 v=0
135480 Par ch=7 c=11 v=71
135488 Par ch=7 c=11 v=72
135488 On ch=7 n=82 v=95
135492 Par ch=7 c=11 v=73
135500 Par ch=7 c=11 v=74
135508 Par ch=7 c=11 v=75
135509 On ch=7 n=82 v=0
135516 Par ch=7 c=11 v=76
135520 On ch=7 n=85 v=95
135524 Par ch=7 c=11 v=77
135532 Par ch=7 c=11 v=78
135540 Par ch=7 c=11 v=79
135541 On ch=7 n=85 v=0
135548 Par ch=7 c=11 v=80
135552 Par ch=7 c=11 v=64
135552 On ch=7 n=84 v=111
135583 On ch=7 n=84 v=0
135624 On ch=7 n=82 v=111
135640 On ch=7 n=82 v=0
135648 On ch=7 n=80 v=111
135679 On ch=7 n=80 v=0
135720 On ch=7 n=79 v=111
135736 On ch=7 n=79 v=0
135744 On ch=7 n=77 v=111
135775 On ch=7 n=77 v=0
135816 On ch=7 n=75 v=111
135832 On ch=7 n=75 v=0
135840 On ch=7 n=73 v=111
135871 On ch=7 n=73 v=0
135912 On ch=7 n=72 v=111
135928 On ch=7 n=72 v=0
135936 On ch=7 n=80 v=111
135967 On ch=7 n=80 v=0
136008 On ch=7 n=79 v=111
136024 On ch=7 n=79 v=0
136032 On ch=7 n=77 v=111
136063 On ch=7 n=77 v=0
136104 On ch=7 n=75 v=111
136120 On ch=7 n=75 v=0
136128 On ch=7 n=73 v=111
136159 On ch=7 n=73 v=0
136200 On ch=7 n=72 v=111
136216 On ch=7 n=72 v=0
136224 On ch=7 n=70 v=111
136255 On ch=7 n=70 v=0
136296 On ch=7 n=68 v=111
136312 On ch=7 n=68 v=0
136320 On ch=7 n=67 v=111
136358 On ch=7 n=67 v=0
137088 On ch=7 n=79 v=111
137318 On ch=7 n=79 v=0
137760 On ch=7 n=75 v=79
137798 On ch=7 n=75 v=0
137808 On ch=7 n=74 v=63
137846 On ch=7 n=74 v=0
137856 On ch=7 n=74 v=47
137904 On ch=7 n=74 v=0
137904 On ch=7 n=72 v=47
137942 On ch=7 n=72 v=0
137952 On ch=7 n=74 v=47
137990 On ch=7 n=74 v=0
138000 On ch=7 n=75 v=47
138038 On ch=7 n=75 v=0
138048 Par ch=7 c=11 v=64
138048 On ch=7 n=77 v=47
138060 Par ch=7 c=11 v=65
138072 Par ch=7 c=11 v=66
138084 Par ch=7 c=11 v=67
138086 On ch=7 n=77 v=0
138096 Par ch=7 c=11 v=68
138096 On ch=7 n=75 v=47
138108 Par ch=7 c=11 v=69
138116 Par ch=7 c=11 v=70
138128 Par ch=7 c=11 v=71
138134 On ch=7 n=75 v=0
138140 Par ch=7 c=11 v=72
138144 On ch=7 n=77 v=47
138152 Par ch=7 c=11 v=73
138164 Par ch=7 c=11 v=74
138176 Par ch=7 c=11 v=75
138184 Par ch=7 c=11 v=76
138192 On ch=7 n=77 v=0
138192 On ch=7 n=79 v=47
138196 Par ch=7 c=11 v=77
138208 Par ch=7 c=11 v=78
138220 Par ch=7 c=11 v=79
138230 On ch=7 n=79 v=0
138232 Par ch=7 c=11 v=80
138624 Par ch=7 c=11 v=64
168000 On ch=7 n=48 v=31
168154 On ch=7 n=48 v=0
168384 On ch=7 n=48 v=31
168538 On ch=7 n=48 v=0
169344 On ch=7 n=60 v=111
169357 On ch=7 n=60 v=0
169376 On ch=7 n=59 v=111
169389 On ch=7 n=59 v=0
169408 On ch=7 n=58 v=111
169421 On ch=7 n=58 v=0
169440 On ch=7 n=57 v=111
169453 On ch=7 n=57 v=0
169472 On ch=7 n=56 v=111
169485 On ch=7 n=56 v=0
169504 On ch=7 n=55 v=111
169517 On ch=7 n=55 v=0
169536 On ch=7 n=54 v=111
169549 On ch=7 n=54 v=0
169568 On ch=7 n=53 v=111
169581 On ch=7 n=53 v=0
169600 On ch=7 n=52 v=111
169613 On ch=7 n=52 v=0
169632 On ch=7 n=51 v=111
169645 On ch=7 n=51 v=0
169664 On ch=7 n=50 v=111
169677 On ch=7 n=50 v=0
169696 On ch=7 n=49 v=111
169709 On ch=7 n=49 v=0
169728 On ch=7 n=48 v=111
169741 On ch=7 n=48 v=0
169760 On ch=7 n=47 v=111
169773 On ch=7 n=47 v=0
169792 On ch=7 n=46 v=111
169805 On ch=7 n=46 v=0
169824 On ch=7 n=45 v=111
169837 On ch=7 n=45 v=0
169856 On ch=7 n=44 v=111
169869 On ch=7 n=44 v=0
169888 On ch=7 n=43 v=111
169901 On ch=7 n=43 v=0
169920 On ch=7 n=54 v=111
169933 On ch=7 n=54 v=0
169952 On ch=7 n=53 v=111
169965 On ch=7 n=53 v=0
169984 On ch=7 n=52 v=111
169997 On ch=7 n=52 v=0
170016 On ch=7 n=51 v=111
170029 On ch=7 n=51 v=0
170048 On ch=7 n=50 v=111
170061 On ch=7 n=50 v=0
170080 On ch=7 n=49 v=111
170093 On ch=7 n=49 v=0
170112 On ch=7 n=48 v=111
170150 On ch=7 n=48 v=0
170496 On ch=7 n=48 v=31
170534 On ch=7 n=48 v=0
170534 Meta TrkEnd
TrkEnd
MTrk
0 Meta 0x21 00
0 Meta TrkName "BASSOON"
192 Par ch=8 c=1 v=8
197 Par ch=8 c=7 v=127
200 Par ch=8 c=10 v=82
204 Par ch=8 c=11 v=64
208 Par ch=8 c=91 v=112
212 Par ch=8 c=93 v=32
216 Par ch=8 c=0 v=0
216 Par ch=8 c=32 v=0
216 PrCh ch=8 p=70
1920 Par ch=8 c=11 v=64
1920 On ch=8 n=60 v=79
1928 Par ch=8 c=11 v=63
1932 Par ch=8 c=11 v=62
1940 Par ch=8 c=11 v=61
1944 Par ch=8 c=11 v=60
1951 On ch=8 n=60 v=0
1952 Par ch=8 c=11 v=59
1956 Par ch=8 c=11 v=58
1964 Par ch=8 c=11 v=57
1968 Par ch=8 c=11 v=56
1976 Par ch=8 c=11 v=55
1980 Par ch=8 c=11 v=54
1988 Par ch=8 c=11 v=53
1992 Par ch=8 c=11 v=52
1992 On ch=8 n=55 v=79
2000 Par ch=8 c=11 v=51
2004 Par ch=8 c=11 v=50
2008 On ch=8 n=55 v=0
2012 Par ch=8 c=11 v=49
2016 Par ch=8 c=11 v=48
2016 On ch=8 n=48 v=79
2054 On ch=8 n=48 v=0
2304 Par ch=8 c=11 v=64
3840 Par ch=8 c=11 v=64
3840 On ch=8 n=55 v=63
3848 Par ch=8 c=11 v=63
3852 Par ch=8 c=11 v=62
3860 Par ch=8 c=11 v=61
3864 Par ch=8 c=11 v=60
3871 On ch=8 n=55 v=0
3872 Par ch=8 c=11 v=59
3876 Par ch=8 c=11 v=58
3884 Par ch=8 c=11 v=57
3888 Par ch=8 c=11 v=56
3896 Par ch=8 c=11 v=55
3900 Par ch=8 c=11 v=54
3908 Par ch=8 c=11 v=53
3912 Par ch=8 c=11 v=52
3912 On ch=8 n=50 v=63
3920 Par ch=8 c=11 v=51
3924 Par ch=8 c=11 v=50
3928 On ch=8 n=50 v=0
3932 Par ch=8 c=11 v=49
3936 Par ch=8 c=11 v=48
3936 On ch=8 n=43 v=63
3967 On ch=8 n=43 v=0
4224 Par ch=8 c=11 v=64
4224 On ch=8 n=55 v=63
4232 Par ch=8 c=11 v=63
4236 Par ch=8 c=11 v=62
4244 Par ch=8 c=11 v=61
4248 Par ch=8 c=11 v=60
4255 On ch=8 n=55 v=0
4256 Par ch=8 c=11 v=59
4260 Par ch=8 c=11 v=58
4268 Par ch=8 c=11 v=57
4272 Par ch=8 c=11 v=56
4280 Par ch=8 c=11 v=55
4284 Par ch=8 c=11 v=54
4292 Par ch=8 c=11 v=53
4296 Par ch=8 c=11 v=52
4296 On ch=8 n=50 v=63
4304 Par ch=8 c=11 v=51
4308 Par ch=8 c=11 v=50
4312 On ch=8 n=50 v=0
4316 Par ch=8 c=11 v=49
4320 Par ch=8 c=11 v=48
4320 On ch=8 n=43 v=63
4351 On ch=8 n=43 v=0
4512 Par ch=8 c=11 v=64
4512 On ch=8 n=56 v=63
4533 On ch=8 n=56 v=0
4544 On ch=8 n=53 v=63
4565 On ch=8 n=53 v=0
4576 On ch=8 n=62 v=63
4597 On ch=8 n=62 v=0
4992 On ch=8 n=56 v=63
5018 On ch=8 n=56 v=0
5024 On ch=8 n=53 v=63
5050 On ch=8 n=53 v=0
5056 On ch=8 n=62 v=63
5082 On ch=8 n=62 v=0
5376 Par ch=8 c=11 v=64
5376 On ch=8 n=55 v=63
5384 Par ch=8 c=11 v=63
5388 Par ch=8 c=11 v=62
5396 Par ch=8 c=11 v=61
5400 Par ch=8 c=11 v=60
5407 On ch=8 n=55 v=0
5408 Par ch=8 c=11 v=59
5412 Par ch=8 c=11 v=58
5420 Par ch=8 c=11 v=57
5424 Par ch=8 c=11 v=56
5432 Par ch=8 c=11 v=55
5436 Par ch=8 c=11 v=54
5444 Par ch=8 c=11 v=53
5448 Par ch=8 c=11 v=52
5448 On ch=8 n=50 v=63
5456 Par ch=8 c=11 v=51
5460 Par ch=8 c=11 v=50
5464 On ch=8 n=50 v=0
5468 Par ch=8 c=11 v=49
5472 Par ch=8 c=11 v=48
5472 On ch=8 n=43 v=63
5503 On ch=8 n=43 v=0
5760 Par ch=8 c=11 v=64
5760 On ch=8 n=55 v=63
5768 Par ch=8 c=11 v=63
5772 Par ch=8 c=11 v=62
5780 Par ch=8 c=11 v=61
5784 Par ch=8 c=11 v=60
5791 On ch=8 n=55 v=0
5792 Par ch=8 c=11 v=59
5796 Par ch=8 c=11 v=58
5804 Par ch=8 c=11 v=57
5808 Par ch=8 c=11 v=56
5816 Par ch=8 c=11 v=55
5820 Par ch=8 c=11 v=54
5828 Par ch=8 c=11 v=53
5832 Par ch=8 c=11 v=52
5832 On ch=8 n=50 v=63
5840 Par ch=8 c=11 v=51
5844 Par ch=8 c=11 v=50
5848 On ch=8 n=50 v=0
5852 Par ch=8 c=11 v=49
5856 Par ch=8 c=11 v=48
5856 On ch=8 n=43 v=63
5887 On ch=8 n=43 v=0
6000 Par ch=8 c=11 v=64
6000 On ch=8 n=42 v=63
6012 Par ch=8 c=11 v=63
6019 On ch=8 n=42 v=0
6020 Par ch=8 c=11 v=62
6024 On ch=8 n=43 v=63
6028 Par ch=8 c=11 v=61
6036 Par ch=8 c=11 v=60
6043 On ch=8 n=43 v=0
6044 Par ch=8 c=11 v=59
6048 On ch=8 n=44 v=63
6052 Par ch=8 c=11 v=58
6060 Par ch=8 c=11 v=57
6067 On ch=8 n=44 v=0
6068 Par ch=8 c=11 v=56
6072 On ch=8 n=43 v=63
6080 Par ch=8 c=11 v=55
6088 Par ch=8 c=11 v=54
6091 On ch=8 n=43 v=0
6096 Par ch=8 c=11 v=53
6096 On ch=8 n=41 v=63
6104 Par ch=8 c=11 v=52
6112 Par ch=8 c=11 v=51
6115 On ch=8 n=41 v=0
6120 Par ch=8 c=11 v=50
6120 On ch=8 n=38 v=63
6128 Par ch=8 c=11 v=49
6136 Par ch=8 c=11 v=48
6139 On ch=8 n=38 v=0
6528 Par ch=8 c=11 v=64
6912 On ch=8 n=48 v=31
6943 On ch=8 n=48 v=0
6984 On ch=8 n=43 v=31
7000 On ch=8 n=43 v=0
7008 On ch=8 n=36 v=31
7039 On ch=8 n=36 v=0
7296 On ch=8 n=48 v=31
7327 On ch=8 n=48 v=0
7368 On ch=8 n=43 v=31
7384 On ch=8 n=43 v=0
7392 On ch=8 n=36 v=31
7423 On ch=8 n=36 v=0
7680 On ch=8 n=60 v=31
7752 On ch=8 n=55 v=31
7768 On ch=8 n=55 v=0
7776 On ch=8 n=48 v=31
7807 On ch=8 n=48 v=0
9523 On ch=8 n=60 v=0
9600 On ch=8 n=55 v=95
9631 On ch=8 n=55 v=0
9984 On ch=8 n=55 v=95
10015 On ch=8 n=55 v=0
11136 On ch=8 n=55 v=47
11167 On ch=8 n=55 v=0
11208 On ch=8 n=50 v=47
11224 On ch=8 n=50 v=0
11232 On ch=8 n=43 v=47
11263 On ch=8 n=43 v=0
11520 On ch=8 n=67 v=47
11750 On ch=8 n=67 v=0
11808 On ch=8 n=65 v=63
11846 On ch=8 n=65 v=0
11856 On ch=8 n=63 v=63
11894 On ch=8 n=63 v=0
11904 On ch=8 n=62 v=79
11981 On ch=8 n=62 v=0
12000 On ch=8 n=55 v=79
12038 On ch=8 n=55 v=0
12072 On ch=8 n=55 v=79
12091 On ch=8 n=55 v=0
12096 On ch=8 n=62 v=79
12173 On ch=8 n=62 v=0
12192 On ch=8 n=65 v=79
12250 On ch=8 n=65 v=0
12264 On ch=8 n=63 v=79
12283 On ch=8 n=63 v=0
12288 On ch=8 n=62 v=79
12319 On ch=8 n=62 v=0
12480 On ch=8 n=59 v=95
12480 On ch=8 n=65 v=95
12632 On ch=8 n=65 v=0
12632 On ch=8 n=59 v=0
12672 On ch=8 n=60 v=95
12672 On ch=8 n=63 v=95
13133 On ch=8 n=63 v=0
13133 On ch=8 n=60 v=0
13440 On ch=8 n=48 v=47
13440 On ch=8 n=67 v=47
13478 On ch=8 n=48 v=0
13512 On ch=8 n=43 v=47
13531 On ch=8 n=43 v=0
13536 On ch=8 n=48 v=47
13594 On ch=8 n=67 v=0
13613 On ch=8 n=48 v=0
13632 Par ch=8 c=11 v=64
13632 On ch=8 n=64 v=47
13644 Par ch=8 c=11 v=65
13652 Par ch=8 c=11 v=66
13660 Par ch=8 c=11 v=67
13664 On ch=8 n=43 v=47
13672 Par ch=8 c=11 v=68
13680 Par ch=8 c=11 v=69
13688 Par ch=8 c=11 v=70
13690 On ch=8 n=43 v=0
13696 Par ch=8 c=11 v=71
13696 On ch=8 n=48 v=47
13708 Par ch=8 c=11 v=72
13716 Par ch=8 c=11 v=73
13722 On ch=8 n=48 v=0
13724 Par ch=8 c=11 v=74
13728 On ch=8 n=43 v=47
13736 Par ch=8 c=11 v=75
13744 Par ch=8 c=11 v=76
13747 On ch=8 n=64 v=0
13752 Par ch=8 c=11 v=77
13754 On ch=8 n=43 v=0
13760 Par ch=8 c=11 v=78
13760 On ch=8 n=48 v=47
13772 Par ch=8 c=11 v=79
13776 On ch=8 n=65 v=47
13780 Par ch=8 c=11 v=80
13786 On ch=8 n=48 v=0
13788 Par ch=8 c=11 v=81
13792 On ch=8 n=43 v=47
13800 Par ch=8 c=11 v=82
13808 Par ch=8 c=11 v=83
13814 On ch=8 n=65 v=0
13816 Par ch=8 c=11 v=84
13818 On ch=8 n=43 v=0
13824 Par ch=8 c=11 v=85
13824 On ch=8 n=48 v=47
13824 On ch=8 n=68 v=47
13836 Par ch=8 c=11 v=86
13844 Par ch=8 c=11 v=87
13852 Par ch=8 c=11 v=88
13862 On ch=8 n=68 v=0
13862 On ch=8 n=48 v=0
13864 Par ch=8 c=11 v=89
13872 Par ch=8 c=11 v=90
13880 Par ch=8 c=11 v=91
13888 Par ch=8 c=11 v=92
13896 On ch=8 n=55 v=47
13900 Par ch=8 c=11 v=93
13908 Par ch=8 c=11 v=94
13915 On ch=8 n=55 v=0
13916 Par ch=8 c=11 v=95
13920 On ch=8 n=60 v=47
13920 On ch=8 n=67 v=47
13928 Par ch=8 c=11 v=96
13936 Par ch=8 c=11 v=97
13944 Par ch=8 c=11 v=98
13952 Par ch=8 c=11 v=99
13964 Par ch=8 c=11 v=100
13972 Par ch=8 c=11 v=101
13980 Par ch=8 c=11 v=102
13992 Par ch=8 c=11 v=103
13997 On ch=8 n=60 v=0
14000 Par ch=8 c=11 v=104
14008 Par ch=8 c=11 v=105
14016 Par ch=8 c=11 v=106
14028 Par ch=8 c=11 v=107
14035 On ch=8 n=67 v=0
14036 Par ch=8 c=11 v=108
14044 Par ch=8 c=11 v=109
14048 On ch=8 n=55 v=47
14056 Par ch=8 c=11 v=110
14064 Par ch=8 c=11 v=111
14069 On ch=8 n=55 v=0
14072 Par ch=8 c=11 v=112
14080 Par ch=8 c=11 v=113
14080 On ch=8 n=60 v=47
14092 Par ch=8 c=11 v=114
14100 Par ch=8 c=11 v=115
14101 On ch=8 n=60 v=0
14108 Par ch=8 c=11 v=116
14112 On ch=8 n=55 v=47
14120 Par ch=8 c=11 v=117
14128 Par ch=8 c=11 v=118
14133 On ch=8 n=55 v=0
14136 Par ch=8 c=11 v=119
14144 Par ch=8 c=11 v=120
14144 On ch=8 n=58 v=47
14156 Par ch=8 c=11 v=121
14164 Par ch=8 c=11 v=122
14165 On ch=8 n=58 v=0
14172 Par ch=8 c=11 v=123
14176 On ch=8 n=61 v=47
14184 Par ch=8 c=11 v=124
14192 Par ch=8 c=11 v=125
14197 On ch=8 n=61 v=0
14200 Par ch=8 c=11 v=126
14208 Par ch=8 c=11 v=64
14208 On ch=8 n=60 v=111
14239 On ch=8 n=60 v=0
14280 On ch=8 n=58 v=111
14296 On ch=8 n=58 v=0
14304 On ch=8 n=56 v=111
14335 On ch=8 n=56 v=0
14376 On ch=8 n=55 v=111
14392 On ch=8 n=55 v=0
14400 On ch=8 n=53 v=111
14431 On ch=8 n=53 v=0
14472 On ch=8 n=51 v=111
14488 On ch=8 n=51 v=0
14496 On ch=8 n=49 v=111
14527 On ch=8 n=49 v=0
14568 On ch=8 n=48 v=111
14584 On ch=8 n=48 v=0
14592 On ch=8 n=56 v=111
14623 On ch=8 n=56 v=0
14664 On ch=8 n=55 v=111
14680 On ch=8 n=55 v=0
14688 On ch=8 n=53 v=111
14719 On ch=8 n=53 v=0
14760 On ch=8 n=51 v=111
14776 On ch=8 n=51 v=0
14784 On ch=8 n=49 v=111
14815 On ch=8 n=49 v=0
14856 On ch=8 n=48 v=111
14872 On ch=8 n=48 v=0
14880 On ch=8 n=46 v=111
14911 On ch=8 n=46 v=0
14952 On ch=8 n=44 v=111
14968 On ch=8 n=44 v=0
14976 On ch=8 n=43 v=111
15040 On ch=8 n=43 v=0
15072 On ch=8 n=55 v=111
15136 On ch=8 n=55 v=0
15168 On ch=8 n=54 v=111
15232 On ch=8 n=54 v=0
15264 On ch=8 n=53 v=111
15328 On ch=8 n=53 v=0
15360 On ch=8 n=52 v=111
15392 On ch=8 n=52 v=0
15456 On ch=8 n=51 v=111
15585 On ch=8 n=51 v=0
15648 On ch=8 n=50 v=111
15712 On ch=8 n=50 v=0
15744 On ch=8 n=48 v=111
15744 On ch=8 n=36 v=111
15782 On ch=8 n=36 v=0
15782 On ch=8 n=48 v=0
15840 On ch=8 n=48 v=111
15840 On ch=8 n=36 v=111
15878 On ch=8 n=36 v=0
15878 On ch=8 n=48 v=0
16000 On ch=8 n=48 v=111
16000 On ch=8 n=36 v=111
16021 On ch=8 n=36 v=0
16021 On ch=8 n=48 v=0
16032 On ch=8 n=48 v=111
16032 On ch=8 n=36 v=111
16053 On ch=8 n=36 v=0
16053 On ch=8 n=48 v=0
16064 On ch=8 n=48 v=111
16064 On ch=8 n=36 v=111
16085 On ch=8 n=36 v=0
16085 On ch=8 n=48 v=0
16096 On ch=8 n=48 v=111
16096 On ch=8 n=36 v=111
16117 On ch=8 n=36 v=0
16117 On ch=8 n=48 v=0
16128 On ch=8 n=36 v=111
16128 On ch=8 n=48 v=111
16166 On ch=8 n=48 v=0
16166 On ch=8 n=36 v=0
16224 On ch=8 n=36 v=111
16224 On ch=8 n=48 v=111
16262 On ch=8 n=48 v=0
16262 On ch=8 n=36 v=0
16384 On ch=8 n=36 v=111
16384 On ch=8 n=48 v=111
16405 On ch=8 n=48 v=0
16405 On ch=8 n=36 v=0
16416 On ch=8 n=36 v=111
16416 On ch=8 n=48 v=111
16437 On ch=8 n=48 v=0
16437 On ch=8 n=36 v=0
16448 On ch=8 n=36 v=111
16448 On ch=8 n=48 v=111
16469 On ch=8 n=48 v=0
16469 On ch=8 n=36 v=0
16480 On ch=8 n=36 v=111
16480 On ch=8 n=48 v=111
16501 On ch=8 n=48 v=0
16501 On ch=8 n=36 v=0
16512 On ch=8 n=48 v=111
16512 On ch=8 n=36 v=111
16550 On ch=8 n=36 v=0
16550 On ch=8 n=48 v=0
17568 On ch=8 n=63 v=47
17606 On ch=8 n=63 v=0
17616 On ch=8 n=67 v=47
17654 On ch=8 n=67 v=0
17664 Par ch=8 c=11 v=64
17664 On ch=8 n=70 v=47
17672 Par ch=8 c=11 v=63
17676 Par ch=8 c=11 v=62
17684 Par ch=8 c=11 v=61
17688 Par ch=8 c=11 v=60
17696 Par ch=8 c=11 v=59
17700 Par ch=8 c=11 v=58
17708 Par ch=8 c=11 v=57
17712 Par ch=8 c=11 v=56
17720 Par ch=8 c=11 v=55
17724 Par ch=8 c=11 v=54
17732 Par ch=8 c=11 v=53
17736 Par ch=8 c=11 v=52
17744 Par ch=8 c=11 v=51
17748 Par ch=8 c=11 v=50
17756 Par ch=8 c=11 v=49
17760 On ch=8 n=70 v=0
17760 Par ch=8 c=11 v=48
17760 On ch=8 n=68 v=47
17875 On ch=8 n=68 v=0
17952 Par ch=8 c=11 v=48
17952 On ch=8 n=63 v=63
17960 Par ch=8 c=11 v=49
17964 Par ch=8 c=11 v=50
17972 Par ch=8 c=11 v=51
17976 Par ch=8 c=11 v=52
17984 Par ch=8 c=11 v=53
17988 Par ch=8 c=11 v=54
17992 Par ch=8 c=11 v=55
18000 Par ch=8 c=11 v=56
18004 Par ch=8 c=11 v=57
18012 Par ch=8 c=11 v=58
18016 Par ch=8 c=11 v=59
18020 Par ch=8 c=11 v=60
18028 Par ch=8 c=11 v=61
18032 Par ch=8 c=11 v=62
18040 Par ch=8 c=11 v=63
18044 Par ch=8 c=11 v=64
18048 On ch=8 n=63 v=0
18048 Par ch=8 c=11 v=64
18048 On ch=8 n=70 v=63
18056 Par ch=8 c=11 v=63
18060 Par ch=8 c=11 v=62
18068 Par ch=8 c=11 v=61
18072 Par ch=8 c=11 v=60
18080 Par ch=8 c=11 v=59
18084 Par ch=8 c=11 v=58
18092 Par ch=8 c=11 v=57
18096 Par ch=8 c=11 v=56
18104 Par ch=8 c=11 v=55
18108 Par ch=8 c=11 v=54
18116 Par ch=8 c=11 v=53
18120 Par ch=8 c=11 v=52
18128 Par ch=8 c=11 v=51
18132 Par ch=8 c=11 v=50
18140 Par ch=8 c=11 v=49
18144 On ch=8 n=70 v=0
18144 Par ch=8 c=11 v=48
18144 On ch=8 n=68 v=63
18221 On ch=8 n=68 v=0
18432 Par ch=8 c=11 v=64
22656 On ch=8 n=58 v=47
22656 On ch=8 n=63 v=47
23194 On ch=8 n=63 v=0
23194 On ch=8 n=58 v=0
23232 Par ch=8 c=11 v=64
23232 On ch=8 n=61 v=47
23232 On ch=8 n=58 v=47
23244 Par ch=8 c=11 v=65
23252 Par ch=8 c=11 v=66
23260 Par ch=8 c=11 v=67
23272 Par ch=8 c=11 v=68
23280 Par ch=8 c=11 v=69
23288 Par ch=8 c=11 v=70
23296 Par ch=8 c=11 v=71
23308 Par ch=8 c=11 v=72
23316 Par ch=8 c=11 v=73
23324 Par ch=8 c=11 v=74
23336 Par ch=8 c=11 v=75
23344 Par ch=8 c=11 v=76
23352 Par ch=8 c=11 v=77
23360 Par ch=8 c=11 v=78
23372 Par ch=8 c=11 v=79
23380 Par ch=8 c=11 v=80
23386 On ch=8 n=58 v=0
23386 On ch=8 n=61 v=0
23388 Par ch=8 c=11 v=81
23400 Par ch=8 c=11 v=82
23408 Par ch=8 c=11 v=83
23416 Par ch=8 c=11 v=84
23424 Par ch=8 c=11 v=85
23424 On ch=8 n=56 v=47
23424 On ch=8 n=59 v=47
23436 Par ch=8 c=11 v=86
23444 Par ch=8 c=11 v=87
23452 Par ch=8 c=11 v=88
23464 Par ch=8 c=11 v=89
23472 Par ch=8 c=11 v=90
23480 Par ch=8 c=11 v=91
23488 Par ch=8 c=11 v=92
23500 Par ch=8 c=11 v=93
23508 Par ch=8 c=11 v=94
23516 Par ch=8 c=11 v=95
23528 Par ch=8 c=11 v=96
23536 Par ch=8 c=11 v=97
23544 Par ch=8 c=11 v=98
23552 Par ch=8 c=11 v=99
23564 Par ch=8 c=11 v=100
23572 Par ch=8 c=11 v=101
23578 On ch=8 n=59 v=0
23580 Par ch=8 c=11 v=102
23592 Par ch=8 c=11 v=103
23600 Par ch=8 c=11 v=104
23608 Par ch=8 c=11 v=105
23616 Par ch=8 c=11 v=106
23616 On ch=8 n=58 v=47
23628 Par ch=8 c=11 v=107
23636 Par ch=8 c=11 v=108
23644 Par ch=8 c=11 v=109
23656 Par ch=8 c=11 v=110
23664 Par ch=8 c=11 v=111
23672 Par ch=8 c=11 v=112
23680 Par ch=8 c=11 v=113
23692 Par ch=8 c=11 v=114
23700 Par ch=8 c=11 v=115
23708 Par ch=8 c=11 v=116
23720 Par ch=8 c=11 v=117
23728 Par ch=8 c=11 v=118
23736 Par ch=8 c=11 v=119
23744 Par ch=8 c=11 v=120
23756 Par ch=8 c=11 v=121
23764 Par ch=8 c=11 v=122
23772 Par ch=8 c=11 v=123
23784 Par ch=8 c=11 v=124
23792 Par ch=8 c=11 v=125
23800 Par ch=8 c=11 v=126
23808 On ch=8 n=56 v=0
23808 On ch=8 n=54 v=47
23962 On ch=8 n=54 v=0
23962 On ch=8 n=58 v=0
24192 Par ch=8 c=11 v=64
24576 On ch=8 n=39 v=79
24576 On ch=8 n=51 v=79
24600 On ch=8 n=51 v=0
24600 On ch=8 n=39 v=0
24600 On ch=8 n=38 v=79
24600 On ch=8 n=50 v=79
24624 On ch=8 n=50 v=0
24624 On ch=8 n=38 v=0
24624 On ch=8 n=39 v=79
24624 On ch=8 n=51 v=79
24648 On ch=8 n=51 v=0
24648 On ch=8 n=39 v=0
24648 On ch=8 n=41 v=79
24648 On ch=8 n=53 v=79
24672 On ch=8 n=53 v=0
24672 On ch=8 n=41 v=0
24672 On ch=8 n=43 v=79
24672 On ch=8 n=55 v=79
24710 On ch=8 n=55 v=0
24710 On ch=8 n=43 v=0
24960 Par ch=8 c=11 v=64
24960 On ch=8 n=48 v=95
24960 On ch=8 n=60 v=95
24968 Par ch=8 c=11 v=63
24972 Par ch=8 c=11 v=62
24980 Par ch=8 c=11 v=61
24984 Par ch=8 c=11 v=60
24991 On ch=8 n=60 v=0
24991 On ch=8 n=48 v=0
24992 Par ch=8 c=11 v=59
24996 Par ch=8 c=11 v=58
25004 Par ch=8 c=11 v=57
25008 Par ch=8 c=11 v=56
25016 Par ch=8 c=11 v=55
25020 Par ch=8 c=11 v=54
25028 Par ch=8 c=11 v=53
25032 Par ch=8 c=11 v=52
25032 On ch=8 n=43 v=95
25032 On ch=8 n=55 v=95
25040 Par ch=8 c=11 v=51
25044 Par ch=8 c=11 v=50
25048 On ch=8 n=55 v=0
25048 On ch=8 n=43 v=0
25052 Par ch=8 c=11 v=49
25056 Par ch=8 c=11 v=48
25056 On ch=8 n=48 v=95
25056 On ch=8 n=36 v=95
25087 On ch=8 n=36 v=0
25087 On ch=8 n=48 v=0
25344 Par ch=8 c=11 v=64
26880 On ch=8 n=36 v=95
26880 On ch=8 n=48 v=95
26911 On ch=8 n=48 v=0
26911 On ch=8 n=36 v=0
27264 On ch=8 n=46 v=95
27264 On ch=8 n=34 v=95
27295 On ch=8 n=34 v=0
27295 On ch=8 n=46 v=0
27648 On ch=8 n=45 v=95
27725 On ch=8 n=45 v=0
27744 On ch=8 n=46 v=95
27821 On ch=8 n=46 v=0
27840 On ch=8 n=45 v=95
27917 On ch=8 n=45 v=0
27936 On ch=8 n=46 v=95
28013 On ch=8 n=46 v=0
28032 On ch=8 n=45 v=95
28109 On ch=8 n=45 v=0
28128 On ch=8 n=46 v=95
28205 On ch=8 n=46 v=0
28224 On ch=8 n=45 v=95
28301 On ch=8 n=45 v=0
28320 On ch=8 n=46 v=95
28351 On ch=8 n=46 v=0
28368 On ch=8 n=45 v=95
28399 On ch=8 n=45 v=0
28416 On ch=8 n=44 v=95
28454 On ch=8 n=44 v=0
28992 On ch=8 n=41 v=47
28992 On ch=8 n=53 v=47
29054 On ch=8 n=53 v=0
29054 On ch=8 n=41 v=0
29088 On ch=8 n=39 v=47
29088 On ch=8 n=51 v=47
29150 On ch=8 n=51 v=0
29150 On ch=8 n=39 v=0
29184 Par ch=8 c=11 v=64
29184 On ch=8 n=56 v=47
29184 On ch=8 n=44 v=47
29200 Par ch=8 c=11 v=65
29216 Par ch=8 c=11 v=66
29232 Par ch=8 c=11 v=67
29248 Par ch=8 c=11 v=68
29264 Par ch=8 c=11 v=69
29280 Par ch=8 c=11 v=70
29296 Par ch=8 c=11 v=71
29312 Par ch=8 c=11 v=72
29328 Par ch=8 c=11 v=73
29338 On ch=8 n=44 v=0
29338 On ch=8 n=56 v=0
29344 Par ch=8 c=11 v=74
29360 Par ch=8 c=11 v=75
29376 Par ch=8 c=11 v=76
29376 On ch=8 n=41 v=47
29376 On ch=8 n=53 v=47
29388 Par ch=8 c=11 v=77
29404 Par ch=8 c=11 v=78
29420 Par ch=8 c=11 v=79
29436 Par ch=8 c=11 v=80
29438 On ch=8 n=53 v=0
29438 On ch=8 n=41 v=0
29452 Par ch=8 c=11 v=81
29468 Par ch=8 c=11 v=82
29472 On ch=8 n=51 v=47
29472 On ch=8 n=39 v=47
29484 Par ch=8 c=11 v=83
29500 Par ch=8 c=11 v=84
29516 Par ch=8 c=11 v=85
29532 Par ch=8 c=11 v=86
29534 On ch=8 n=39 v=0
29534 On ch=8 n=51 v=0
29548 Par ch=8 c=11 v=87
29564 Par ch=8 c=11 v=88
29568 On ch=8 n=56 v=47
29568 On ch=8 n=44 v=47
29576 Par ch=8 c=11 v=89
29592 Par ch=8 c=11 v=90
29608 Par ch=8 c=11 v=91
29624 Par ch=8 c=11 v=92
29640 Par ch=8 c=11 v=93
29656 Par ch=8 c=11 v=94
29672 Par ch=8 c=11 v=95
29688 Par ch=8 c=11 v=96
29704 Par ch=8 c=11 v=97
29720 Par ch=8 c=11 v=98
29722 On ch=8 n=44 v=0
29722 On ch=8 n=56 v=0
29736 Par ch=8 c=11 v=99
29752 Par ch=8 c=11 v=100
29760 On ch=8 n=41 v=47
29760 On ch=8 n=53 v=47
29764 Par ch=8 c=11 v=101
29780 Par ch=8 c=11 v=102
29796 Par ch=8 c=11 v=103
29812 Par ch=8 c=11 v=104
29822 On ch=8 n=53 v=0
29822 On ch=8 n=41 v=0
29828 Par ch=8 c=11 v=105
29844 Par ch=8 c=11 v=106
29856 On ch=8 n=51 v=47
29856 On ch=8 n=39 v=47
29860 Par ch=8 c=11 v=107
29876 Par ch=8 c=11 v=108
29892 Par ch=8 c=11 v=109
29908 Par ch=8 c=11 v=110
29918 On ch=8 n=39 v=0
29918 On ch=8 n=51 v=0
29924 Par ch=8 c=11 v=111
29940 Par ch=8 c=11 v=112
29952 Par ch=8 c=11 v=64
29952 On ch=8 n=56 v=95
29952 On ch=8 n=44 v=95
30029 On ch=8 n=44 v=0
30029 On ch=8 n=56 v=0
30144 Par ch=8 c=11 v=64
30144 On ch=8 n=56 v=47
30144 On ch=8 n=44 v=47
30156 Par ch=8 c=11 v=65
30164 Par ch=8 c=11 v=66
30172 Par ch=8 c=11 v=67
30184 Par ch=8 c=11 v=68
30192 Par ch=8 c=11 v=69
30200 Par ch=8 c=11 v=70
30208 Par ch=8 c=11 v=71
30220 Par ch=8 c=11 v=72
30228 Par ch=8 c=11 v=73
30236 Par ch=8 c=11 v=74
30248 Par ch=8 c=11 v=75
30256 Par ch=8 c=11 v=76
30264 Par ch=8 c=11 v=77
30272 Par ch=8 c=11 v=78
30284 Par ch=8 c=11 v=79
30292 Par ch=8 c=11 v=80
30298 On ch=8 n=44 v=0
30298 On ch=8 n=56 v=0
30300 Par ch=8 c=11 v=81
30312 Par ch=8 c=11 v=82
30320 Par ch=8 c=11 v=83
30328 Par ch=8 c=11 v=84
30336 Par ch=8 c=11 v=85
30336 On ch=8 n=55 v=47
30336 On ch=8 n=43 v=47
30348 Par ch=8 c=11 v=86
30356 Par ch=8 c=11 v=87
30364 Par ch=8 c=11 v=88
30376 Par ch=8 c=11 v=89
30384 Par ch=8 c=11 v=90
30392 Par ch=8 c=11 v=91
30400 Par ch=8 c=11 v=92
30412 Par ch=8 c=11 v=93
30420 Par ch=8 c=11 v=94
30428 Par ch=8 c=11 v=95
30440 Par ch=8 c=11 v=96
30448 Par ch=8 c=11 v=97
30456 Par ch=8 c=11 v=98
30464 Par ch=8 c=11 v=99
30476 Par ch=8 c=11 v=100
30484 Par ch=8 c=11 v=101
30490 On ch=8 n=43 v=0
30490 On ch=8 n=55 v=0
30492 Par ch=8 c=11 v=102
30504 Par ch=8 c=11 v=103
30512 Par ch=8 c=11 v=104
30520 Par ch=8 c=11 v=105
30528 Par ch=8 c=11 v=106
30528 On ch=8 n=54 v=47
30528 On ch=8 n=42 v=47
30540 Par ch=8 c=11 v=107
30548 Par ch=8 c=11 v=108
30556 Par ch=8 c=11 v=109
30568 Par ch=8 c=11 v=110
30576 Par ch=8 c=11 v=111
30584 Par ch=8 c=11 v=112
30592 Par ch=8 c=11 v=113
30604 Par ch=8 c=11 v=114
30612 Par ch=8 c=11 v=115
30620 Par ch=8 c=11 v=116
30632 Par ch=8 c=11 v=117
30640 Par ch=8 c=11 v=118
30648 Par ch=8 c=11 v=119
30656 Par ch=8 c=11 v=120
30668 Par ch=8 c=11 v=121
30676 Par ch=8 c=11 v=122
30682 On ch=8 n=42 v=0
30682 On ch=8 n=54 v=0
30684 Par ch=8 c=11 v=123
30696 Par ch=8 c=11 v=124
30704 Par ch=8 c=11 v=125
30712 Par ch=8 c=11 v=126
30720 On ch=8 n=43 v=63
30720 On ch=8 n=55 v=63
30768 Par ch=8 c=11 v=64
32794 On ch=8 n=55 v=0
32794 On ch=8 n=43 v=0
33024 On ch=8 n=43 v=47
33024 On ch=8 n=55 v=47
33178 On ch=8 n=55 v=0
33178 On ch=8 n=43 v=0
33408 On ch=8 n=43 v=111
33408 On ch=8 n=55 v=111
33715 On ch=8 n=55 v=0
33715 On ch=8 n=43 v=0
33792 On ch=8 n=36 v=111
33792 On ch=8 n=48 v=111
34099 On ch=8 n=48 v=0
34099 On ch=8 n=36 v=0
34176 Par ch=8 c=11 v=64
34176 On ch=8 n=38 v=95
34176 On ch=8 n=50 v=95
34224 Par ch=8 c=11 v=32
34236 Par ch=8 c=11 v=33
34248 Par ch=8 c=11 v=34
34256 Par ch=8 c=11 v=35
34268 Par ch=8 c=11 v=36
34276 Par ch=8 c=11 v=37
34288 Par ch=8 c=11 v=38
34296 Par ch=8 c=11 v=39
34308 Par ch=8 c=11 v=40
34316 Par ch=8 c=11 v=41
34328 Par ch=8 c=11 v=42
34336 Par ch=8 c=11 v=43
34348 Par ch=8 c=11 v=44
34360 Par ch=8 c=11 v=45
34368 Par ch=8 c=11 v=46
34380 Par ch=8 c=11 v=47
34388 Par ch=8 c=11 v=48
34400 Par ch=8 c=11 v=49
34408 Par ch=8 c=11 v=50
34420 Par ch=8 c=11 v=51
34428 Par ch=8 c=11 v=52
34440 Par ch=8 c=11 v=53
34448 Par ch=8 c=11 v=54
34460 Par ch=8 c=11 v=55
34472 Par ch=8 c=11 v=56
34480 Par ch=8 c=11 v=57
34492 Par ch=8 c=11 v=58
34500 Par ch=8 c=11 v=59
34512 Par ch=8 c=11 v=60
34520 Par ch=8 c=11 v=61
34532 Par ch=8 c=11 v=62
34540 Par ch=8 c=11 v=63
34552 Par ch=8 c=11 v=64
34591 On ch=8 n=50 v=0
34591 On ch=8 n=38 v=0
34632 On ch=8 n=40 v=95
34632 On ch=8 n=52 v=111
34648 On ch=8 n=52 v=0
34648 On ch=8 n=40 v=0
34656 On ch=8 n=42 v=95
34656 On ch=8 n=54 v=111
34687 On ch=8 n=54 v=0
34687 On ch=8 n=42 v=0
34728 On ch=8 n=43 v=95
34728 On ch=8 n=55 v=111
34744 On ch=8 n=55 v=0
34744 On ch=8 n=43 v=0
34752 On ch=8 n=45 v=95
34752 On ch=8 n=57 v=111
34783 On ch=8 n=57 v=0
34783 On ch=8 n=45 v=0
34824 On ch=8 n=46 v=95
34824 On ch=8 n=58 v=111
34840 On ch=8 n=58 v=0
34840 On ch=8 n=46 v=0
34848 On ch=8 n=48 v=95
34848 On ch=8 n=60 v=111
34879 On ch=8 n=60 v=0
34879 On ch=8 n=48 v=0
34920 On ch=8 n=50 v=95
34920 On ch=8 n=62 v=111
34936 On ch=8 n=62 v=0
34936 On ch=8 n=50 v=0
34944 On ch=8 n=38 v=95
34944 On ch=8 n=50 v=95
34992 Par ch=8 c=11 v=32
35004 Par ch=8 c=11 v=33
35016 Par ch=8 c=11 v=34
35024 Par ch=8 c=11 v=35
35036 Par ch=8 c=11 v=36
35044 Par ch=8 c=11 v=37
35056 Par ch=8 c=11 v=38
35064 Par ch=8 c=11 v=39
35076 Par ch=8 c=11 v=40
35084 Par ch=8 c=11 v=41
35096 Par ch=8 c=11 v=42
35104 Par ch=8 c=11 v=43
35116 Par ch=8 c=11 v=44
35128 Par ch=8 c=11 v=45
35136 Par ch=8 c=11 v=46
35148 Par ch=8 c=11 v=47
35156 Par ch=8 c=11 v=48
35168 Par ch=8 c=11 v=49
35176 Par ch=8 c=11 v=50
35188 Par ch=8 c=11 v=51
35196 Par ch=8 c=11 v=52
35208 Par ch=8 c=11 v=53
35216 Par ch=8 c=11 v=54
35228 Par ch=8 c=11 v=55
35240 Par ch=8 c=11 v=56
35248 Par ch=8 c=11 v=57
35260 Par ch=8 c=11 v=58
35268 Par ch=8 c=11 v=59
35280 Par ch=8 c=11 v=60
35288 Par ch=8 c=11 v=61
35300 Par ch=8 c=11 v=62
35308 Par ch=8 c=11 v=63
35320 Par ch=8 c=11 v=64
35359 On ch=8 n=50 v=0
35359 On ch=8 n=38 v=0
35400 On ch=8 n=40 v=95
35400 On ch=8 n=52 v=111
35416 On ch=8 n=52 v=0
35416 On ch=8 n=40 v=0
35424 On ch=8 n=42 v=95
35424 On ch=8 n=54 v=111
35455 On ch=8 n=54 v=0
35455 On ch=8 n=42 v=0
35496 On ch=8 n=43 v=95
35496 On ch=8 n=55 v=111
35512 On ch=8 n=55 v=0
35512 On ch=8 n=43 v=0
35520 On ch=8 n=45 v=95
35520 On ch=8 n=57 v=111
35551 On ch=8 n=57 v=0
35551 On ch=8 n=45 v=0
35592 On ch=8 n=46 v=95
35592 On ch=8 n=58 v=111
35608 On ch=8 n=58 v=0
35608 On ch=8 n=46 v=0
35616 On ch=8 n=48 v=95
35616 On ch=8 n=60 v=111
35647 On ch=8 n=60 v=0
35647 On ch=8 n=48 v=0
35688 On ch=8 n=50 v=95
35688 On ch=8 n=62 v=111
35704 On ch=8 n=62 v=0
35704 On ch=8 n=50 v=0
35712 Par ch=8 c=11 v=64
35712 On ch=8 n=38 v=95
35712 On ch=8 n=60 v=95
35760 Par ch=8 c=11 v=32
35774 On ch=8 n=38 v=0
35935 On ch=8 n=60 v=0
35976 On ch=8 n=58 v=95
35992 On ch=8 n=58 v=0
36000 On ch=8 n=56 v=95
36031 On ch=8 n=56 v=0
36072 On ch=8 n=55 v=95
36088 On ch=8 n=55 v=0
36096 Par ch=8 c=11 v=64
36096 On ch=8 n=60 v=95
36144 Par ch=8 c=11 v=32
36319 On ch=8 n=60 v=0
36360 On ch=8 n=58 v=95
36376 On ch=8 n=58 v=0
36384 On ch=8 n=53 v=95
36415 On ch=8 n=53 v=0
36456 On ch=8 n=50 v=95
36472 On ch=8 n=50 v=0
36480 On ch=8 n=60 v=95
36511 On ch=8 n=60 v=0
36552 On ch=8 n=58 v=95
36568 On ch=8 n=58 v=0
36576 On ch=8 n=52 v=95
36607 On ch=8 n=52 v=0
36648 On ch=8 n=49 v=95
36664 On ch=8 n=49 v=0
36672 On ch=8 n=48 v=95
36672 On ch=8 n=60 v=95
36703 On ch=8 n=60 v=0
36710 On ch=8 n=48 v=0
36744 On ch=8 n=58 v=95
36760 On ch=8 n=58 v=0
36768 On ch=8 n=55 v=95
36799 On ch=8 n=55 v=0
36840 On ch=8 n=51 v=95
36856 On ch=8 n=51 v=0
36864 On ch=8 n=50 v=95
36902 On ch=8 n=50 v=0
37248 Par ch=8 c=11 v=64
39552 On ch=8 n=55 v=31
39706 On ch=8 n=55 v=0
39744 On ch=8 n=57 v=31
39821 On ch=8 n=57 v=0
39840 On ch=8 n=58 v=31
39871 On ch=8 n=58 v=0
39912 On ch=8 n=62 v=31
39928 On ch=8 n=62 v=0
39936 On ch=8 n=67 v=31
40013 On ch=8 n=67 v=0
51072 On ch=8 n=59 v=15
51149 On ch=8 n=59 v=0
51168 On ch=8 n=56 v=15
51245 On ch=8 n=56 v=0
51264 On ch=8 n=57 v=15
51418 On ch=8 n=57 v=0
51456 On ch=8 n=59 v=15
51533 On ch=8 n=59 v=0
51552 On ch=8 n=56 v=15
51629 On ch=8 n=56 v=0
51648 On ch=8 n=57 v=15
51840 On ch=8 n=57 v=0
51840 On ch=8 n=59 v=15
51917 On ch=8 n=59 v=0
64608 On ch=8 n=57 v=95
64608 On ch=8 n=69 v=95
64634 On ch=8 n=69 v=0
64634 On ch=8 n=57 v=0
64640 On ch=8 n=55 v=95
64640 On ch=8 n=67 v=95
64666 On ch=8 n=67 v=0
64666 On ch=8 n=55 v=0
64672 On ch=8 n=54 v=95
64672 On ch=8 n=66 v=95
64698 On ch=8 n=66 v=0
64698 On ch=8 n=54 v=0
64704 On ch=8 n=52 v=95
64704 On ch=8 n=64 v=95
64730 On ch=8 n=64 v=0
64730 On ch=8 n=52 v=0
64736 On ch=8 n=51 v=95
64736 On ch=8 n=63 v=95
64762 On ch=8 n=63 v=0
64762 On ch=8 n=51 v=0
64768 On ch=8 n=49 v=95
64768 On ch=8 n=61 v=95
64794 On ch=8 n=61 v=0
64794 On ch=8 n=49 v=0
64800 On ch=8 n=47 v=95
64800 On ch=8 n=59 v=95
64826 On ch=8 n=59 v=0
64826 On ch=8 n=47 v=0
64832 On ch=8 n=45 v=95
64832 On ch=8 n=57 v=95
64858 On ch=8 n=57 v=0
64858 On ch=8 n=45 v=0
64864 On ch=8 n=42 v=95
64864 On ch=8 n=54 v=95
64890 On ch=8 n=54 v=0
64890 On ch=8 n=42 v=0
64896 On ch=8 n=52 v=95
64896 On ch=8 n=40 v=95
64934 On ch=8 n=40 v=0
64934 On ch=8 n=52 v=0
67200 On ch=8 n=50 v=111
67200 On ch=8 n=62 v=111
67226 On ch=8 n=62 v=0
67226 On ch=8 n=50 v=0
67232 On ch=8 n=49 v=111
67232 On ch=8 n=61 v=111
67258 On ch=8 n=61 v=0
67258 On ch=8 n=49 v=0
67264 On ch=8 n=47 v=111
67264 On ch=8 n=59 v=111
67290 On ch=8 n=59 v=0
67290 On ch=8 n=47 v=0
67296 On ch=8 n=45 v=111
67296 On ch=8 n=57 v=111
67322 On ch=8 n=57 v=0
67322 On ch=8 n=45 v=0
67328 On ch=8 n=43 v=111
67328 On ch=8 n=55 v=111
67354 On ch=8 n=55 v=0
67354 On ch=8 n=43 v=0
67360 On ch=8 n=42 v=111
67360 On ch=8 n=54 v=111
67386 On ch=8 n=54 v=0
67386 On ch=8 n=42 v=0
67392 On ch=8 n=40 v=111
67392 On ch=8 n=52 v=111
67418 On ch=8 n=52 v=0
67418 On ch=8 n=40 v=0
67424 On ch=8 n=38 v=111
67424 On ch=8 n=50 v=111
67450 On ch=8 n=50 v=0
67450 On ch=8 n=38 v=0
67456 On ch=8 n=36 v=111
67456 On ch=8 n=48 v=111
67482 On ch=8 n=48 v=0
67482 On ch=8 n=36 v=0
67488 On ch=8 n=46 v=111
67514 On ch=8 n=46 v=0
67520 On ch=8 n=45 v=111
67546 On ch=8 n=45 v=0
67552 On ch=8 n=43 v=111
67578 On ch=8 n=43 v=0
67584 On ch=8 n=42 v=111
67738 On ch=8 n=42 v=0
67776 On ch=8 n=46 v=95
67776 On ch=8 n=34 v=95
67814 On ch=8 n=34 v=0
67814 On ch=8 n=46 v=0
67872 On ch=8 n=45 v=95
67872 On ch=8 n=33 v=95
67910 On ch=8 n=33 v=0
67910 On ch=8 n=45 v=0
67968 On ch=8 n=50 v=95
67968 On ch=8 n=38 v=95
68006 On ch=8 n=38 v=0
68006 On ch=8 n=50 v=0
68064 On ch=8 n=42 v=95
68102 On ch=8 n=42 v=0
68160 On ch=8 n=34 v=95
68160 On ch=8 n=46 v=95
68198 On ch=8 n=46 v=0
68198 On ch=8 n=34 v=0
68256 On ch=8 n=33 v=95
68256 On ch=8 n=45 v=95
68294 On ch=8 n=45 v=0
68294 On ch=8 n=33 v=0
68352 On ch=8 n=50 v=111
68352 On ch=8 n=38 v=111
68659 On ch=8 n=38 v=0
68659 On ch=8 n=50 v=0
68736 On ch=8 n=37 v=95
68736 On ch=8 n=49 v=95
68784 Par ch=8 c=11 v=32
70272 On ch=8 n=49 v=95
70272 On ch=8 n=37 v=95
70272 On ch=8 n=49 v=95
70272 On ch=8 n=37 v=95
70272 On ch=8 n=37 v=95
70272 On ch=8 n=49 v=95
70579 On ch=8 n=49 v=0
70579 On ch=8 n=37 v=0
70579 On ch=8 n=49 v=0
70579 On ch=8 n=49 v=0
70579 On ch=8 n=49 v=0
70579 On ch=8 n=37 v=0
70579 On ch=8 n=37 v=0
70579 On ch=8 n=37 v=0
70656 Par ch=8 c=11 v=64
70656 On ch=8 n=68 v=111
70656 On ch=8 n=64 v=111
70680 Par ch=8 c=11 v=63
70704 Par ch=8 c=11 v=62
70724 Par ch=8 c=11 v=61
70748 Par ch=8 c=11 v=60
70772 Par ch=8 c=11 v=59
70792 Par ch=8 c=11 v=58
70816 Par ch=8 c=11 v=57
70840 Par ch=8 c=11 v=56
70860 Par ch=8 c=11 v=55
70884 Par ch=8 c=11 v=54
70908 Par ch=8 c=11 v=53
70928 Par ch=8 c=11 v=52
70952 Par ch=8 c=11 v=51
70963 On ch=8 n=64 v=0
70963 On ch=8 n=68 v=0
70976 Par ch=8 c=11 v=50
70996 Par ch=8 c=11 v=49
71020 Par ch=8 c=11 v=48
71040 Par ch=8 c=11 v=64
71040 On ch=8 n=64 v=111
71040 On ch=8 n=68 v=111
71088 Par ch=8 c=11 v=32
71347 On ch=8 n=68 v=0
71347 On ch=8 n=64 v=0
71808 Par ch=8 c=11 v=64
72576 On ch=8 n=54 v=47
72576 On ch=8 n=42 v=47
72730 On ch=8 n=42 v=0
72730 On ch=8 n=54 v=0
72768 On ch=8 n=56 v=47
72768 On ch=8 n=44 v=47
72883 On ch=8 n=44 v=0
72883 On ch=8 n=56 v=0
72912 On ch=8 n=57 v=47
72912 On ch=8 n=45 v=47
72950 On ch=8 n=45 v=0
72950 On ch=8 n=57 v=0
72960 On ch=8 n=57 v=47
72960 On ch=8 n=45 v=47
72998 On ch=8 n=45 v=0
72998 On ch=8 n=57 v=0
73056 On ch=8 n=59 v=47
73056 On ch=8 n=47 v=47
73210 On ch=8 n=47 v=0
73210 On ch=8 n=59 v=0
73344 On ch=8 n=54 v=47
73344 On ch=8 n=42 v=47
73498 On ch=8 n=42 v=0
73498 On ch=8 n=54 v=0
73536 On ch=8 n=56 v=47
73536 On ch=8 n=44 v=47
73651 On ch=8 n=44 v=0
73651 On ch=8 n=56 v=0
73680 On ch=8 n=57 v=47
73680 On ch=8 n=45 v=47
73711 On ch=8 n=45 v=0
73711 On ch=8 n=57 v=0
73728 On ch=8 n=57 v=47
73728 On ch=8 n=45 v=47
73759 On ch=8 n=45 v=0
73759 On ch=8 n=57 v=0
73824 On ch=8 n=61 v=47
73824 On ch=8 n=49 v=47
73978 On ch=8 n=49 v=0
73978 On ch=8 n=61 v=0
74112 On ch=8 n=54 v=47
74112 On ch=8 n=42 v=47
74266 On ch=8 n=42 v=0
74266 On ch=8 n=54 v=0
74304 On ch=8 n=56 v=47
74304 On ch=8 n=44 v=47
74381 On ch=8 n=44 v=0
74381 On ch=8 n=56 v=0
74400 On ch=8 n=57 v=47
74400 On ch=8 n=45 v=47
74431 On ch=8 n=45 v=0
74431 On ch=8 n=57 v=0
74472 On ch=8 n=61 v=47
74472 On ch=8 n=49 v=47
74488 On ch=8 n=49 v=0
74488 On ch=8 n=61 v=0
74496 Par ch=8 c=11 v=64
74496 On ch=8 n=53 v=47
74496 On ch=8 n=65 v=47
74512 Par ch=8 c=11 v=65
74524 Par ch=8 c=11 v=66
74536 Par ch=8 c=11 v=67
74548 Par ch=8 c=11 v=68
74560 Par ch=8 c=11 v=69
74572 Par ch=8 c=11 v=70
74584 Par ch=8 c=11 v=71
74596 Par ch=8 c=11 v=72
74608 Par ch=8 c=11 v=73
74620 Par ch=8 c=11 v=74
74632 Par ch=8 c=11 v=75
74644 Par ch=8 c=11 v=76
74650 On ch=8 n=65 v=0
74650 On ch=8 n=53 v=0
74656 Par ch=8 c=11 v=77
74668 Par ch=8 c=11 v=78
74680 Par ch=8 c=11 v=79
74688 On ch=8 n=66 v=47
74688 On ch=8 n=54 v=47
74692 Par ch=8 c=11 v=80
74704 Par ch=8 c=11 v=81
74716 Par ch=8 c=11 v=82
74728 Par ch=8 c=11 v=83
74740 Par ch=8 c=11 v=84
74752 Par ch=8 c=11 v=85
74768 Par ch=8 c=11 v=86
74780 Par ch=8 c=11 v=87
74792 Par ch=8 c=11 v=88
74803 On ch=8 n=54 v=0
74803 On ch=8 n=66 v=0
74804 Par ch=8 c=11 v=89
74816 Par ch=8 c=11 v=90
74828 Par ch=8 c=11 v=91
74832 On ch=8 n=54 v=47
74832 On ch=8 n=42 v=47
74840 Par ch=8 c=11 v=92
74852 Par ch=8 c=11 v=93
74863 On ch=8 n=42 v=0
74863 On ch=8 n=54 v=0
74864 Par ch=8 c=11 v=94
74876 Par ch=8 c=11 v=95
74880 On ch=8 n=65 v=47
74880 On ch=8 n=53 v=47
74888 Par ch=8 c=11 v=96
74900 Par ch=8 c=11 v=97
74912 Par ch=8 c=11 v=98
74924 Par ch=8 c=11 v=99
74936 Par ch=8 c=11 v=100
74948 Par ch=8 c=11 v=101
74960 Par ch=8 c=11 v=102
74972 Par ch=8 c=11 v=103
74984 Par ch=8 c=11 v=104
74996 Par ch=8 c=11 v=105
75008 Par ch=8 c=11 v=106
75024 Par ch=8 c=11 v=107
75034 On ch=8 n=53 v=0
75034 On ch=8 n=65 v=0
75036 Par ch=8 c=11 v=108
75048 Par ch=8 c=11 v=109
75060 Par ch=8 c=11 v=110
75072 Par ch=8 c=11 v=111
75072 On ch=8 n=54 v=47
75072 On ch=8 n=66 v=47
75084 Par ch=8 c=11 v=112
75096 Par ch=8 c=11 v=113
75108 Par ch=8 c=11 v=114
75120 Par ch=8 c=11 v=115
75132 Par ch=8 c=11 v=116
75144 Par ch=8 c=11 v=117
75156 Par ch=8 c=11 v=118
75168 Par ch=8 c=11 v=119
75180 Par ch=8 c=11 v=120
75187 On ch=8 n=66 v=0
75187 On ch=8 n=54 v=0
75192 Par ch=8 c=11 v=121
75204 Par ch=8 c=11 v=122
75216 Par ch=8 c=11 v=123
75216 On ch=8 n=42 v=47
75216 On ch=8 n=54 v=47
75228 Par ch=8 c=11 v=124
75240 Par ch=8 c=11 v=125
75247 On ch=8 n=54 v=0
75247 On ch=8 n=42 v=0
75252 Par ch=8 c=11 v=126
75360 Par ch=8 c=11 v=64
75360 On ch=8 n=38 v=100
75360 On ch=8 n=50 v=100
75477 On ch=8 n=50 v=0
75477 On ch=8 n=38 v=0
75488 On ch=8 n=38 v=100
75488 On ch=8 n=50 v=100
75509 On ch=8 n=50 v=0
75509 On ch=8 n=38 v=0
75520 On ch=8 n=38 v=100
75520 On ch=8 n=50 v=100
75541 On ch=8 n=50 v=0
75541 On ch=8 n=38 v=0
75552 On ch=8 n=38 v=100
75552 On ch=8 n=50 v=100
75573 On ch=8 n=50 v=0
75573 On ch=8 n=38 v=0
75584 On ch=8 n=38 v=100
75584 On ch=8 n=50 v=100
75605 On ch=8 n=50 v=0
75605 On ch=8 n=38 v=0
75616 On ch=8 n=38 v=100
75616 On ch=8 n=50 v=100
75637 On ch=8 n=50 v=0
75637 On ch=8 n=38 v=0
75648 On ch=8 n=38 v=100
75648 On ch=8 n=50 v=100
75686 On ch=8 n=50 v=0
75686 On ch=8 n=38 v=0
75720 On ch=8 n=38 v=100
75720 On ch=8 n=50 v=100
75739 On ch=8 n=50 v=0
75739 On ch=8 n=38 v=0
75744 On ch=8 n=38 v=100
75744 On ch=8 n=50 v=100
75782 On ch=8 n=50 v=0
75782 On ch=8 n=38 v=0
75816 On ch=8 n=38 v=100
75816 On ch=8 n=50 v=100
75835 On ch=8 n=50 v=0
75835 On ch=8 n=38 v=0
75840 On ch=8 n=38 v=100
75840 On ch=8 n=50 v=100
75878 On ch=8 n=50 v=0
75878 On ch=8 n=38 v=0
75912 On ch=8 n=38 v=100
75912 On ch=8 n=50 v=100
75931 On ch=8 n=50 v=0
75931 On ch=8 n=38 v=0
75936 On ch=8 n=38 v=100
75936 On ch=8 n=50 v=100
75974 On ch=8 n=50 v=0
75974 On ch=8 n=38 v=0
76008 On ch=8 n=38 v=100
76008 On ch=8 n=50 v=100
76027 On ch=8 n=50 v=0
76027 On ch=8 n=38 v=0
76032 On ch=8 n=62 v=100
76053 On ch=8 n=62 v=0
76064 On ch=8 n=61 v=100
76085 On ch=8 n=61 v=0
76096 On ch=8 n=60 v=100
76117 On ch=8 n=60 v=0
76128 On ch=8 n=56 v=100
76149 On ch=8 n=56 v=0
76160 On ch=8 n=55 v=100
76181 On ch=8 n=55 v=0
76192 On ch=8 n=54 v=100
76213 On ch=8 n=54 v=0
76224 On ch=8 n=62 v=100
76245 On ch=8 n=62 v=0
76256 On ch=8 n=61 v=100
76277 On ch=8 n=61 v=0
76288 On ch=8 n=60 v=100
76309 On ch=8 n=60 v=0
76320 On ch=8 n=56 v=100
76341 On ch=8 n=56 v=0
76352 On ch=8 n=55 v=100
76373 On ch=8 n=55 v=0
76384 On ch=8 n=54 v=100
76405 On ch=8 n=54 v=0
76416 On ch=8 n=62 v=100
76437 On ch=8 n=62 v=0
76448 On ch=8 n=61 v=100
76469 On ch=8 n=61 v=0
76480 On ch=8 n=60 v=100
76501 On ch=8 n=60 v=0
76512 On ch=8 n=56 v=100
76533 On ch=8 n=56 v=0
76544 On ch=8 n=55 v=100
76565 On ch=8 n=55 v=0
76576 On ch=8 n=54 v=100
76597 On ch=8 n=54 v=0
76608 On ch=8 n=50 v=100
76629 On ch=8 n=50 v=0
76640 On ch=8 n=49 v=100
76661 On ch=8 n=49 v=0
76672 On ch=8 n=48 v=100
76693 On ch=8 n=48 v=0
76704 On ch=8 n=44 v=100
76725 On ch=8 n=44 v=0
76736 On ch=8 n=43 v=100
76757 On ch=8 n=43 v=0
76768 On ch=8 n=42 v=100
76789 On ch=8 n=42 v=0
76800 On ch=8 n=37 v=127
76800 On ch=8 n=49 v=127
77491 On ch=8 n=49 v=0
77491 On ch=8 n=37 v=0
77568 On ch=8 n=37 v=127
77568 On ch=8 n=49 v=127
78259 On ch=8 n=49 v=0
78259 On ch=8 n=37 v=0
78336 On ch=8 n=37 v=79
78336 On ch=8 n=49 v=79
78720 Par ch=8 c=11 v=64
78732 Par ch=8 c=11 v=63
78744 Par ch=8 c=11 v=62
78756 Par ch=8 c=11 v=61
78768 Par ch=8 c=11 v=60
78780 Par ch=8 c=11 v=59
78788 Par ch=8 c=11 v=58
78800 Par ch=8 c=11 v=57
78812 Par ch=8 c=11 v=56
78824 Par ch=8 c=11 v=55
78836 Par ch=8 c=11 v=54
78848 Par ch=8 c=11 v=53
78856 Par ch=8 c=11 v=52
78868 Par ch=8 c=11 v=51
78880 Par ch=8 c=11 v=50
78892 Par ch=8 c=11 v=49
78904 Par ch=8 c=11 v=48
78912 Par ch=8 c=11 v=47
78924 Par ch=8 c=11 v=46
78936 Par ch=8 c=11 v=45
78948 Par ch=8 c=11 v=44
78960 Par ch=8 c=11 v=43
78972 Par ch=8 c=11 v=42
78980 Par ch=8 c=11 v=41
78992 Par ch=8 c=11 v=40
79004 Par ch=8 c=11 v=39
79016 Par ch=8 c=11 v=38
79027 On ch=8 n=49 v=0
79027 On ch=8 n=37 v=0
79028 Par ch=8 c=11 v=37
79040 Par ch=8 c=11 v=36
79048 Par ch=8 c=11 v=35
79060 Par ch=8 c=11 v=34
79072 Par ch=8 c=11 v=33
79084 Par ch=8 c=11 v=32
79104 On ch=8 n=36 v=79
79104 On ch=8 n=48 v=79
79488 Par ch=8 c=11 v=32
79512 Par ch=8 c=11 v=31
79536 Par ch=8 c=11 v=30
79556 Par ch=8 c=11 v=29
79580 Par ch=8 c=11 v=28
79604 Par ch=8 c=11 v=27
79624 Par ch=8 c=11 v=26
79648 Par ch=8 c=11 v=25
79672 Par ch=8 c=11 v=24
79692 Par ch=8 c=11 v=23
79716 Par ch=8 c=11 v=22
79740 Par ch=8 c=11 v=21
79760 Par ch=8 c=11 v=20
79784 Par ch=8 c=11 v=19
79795 On ch=8 n=48 v=0
79795 On ch=8 n=36 v=0
79808 Par ch=8 c=11 v=18
79828 Par ch=8 c=11 v=17
79852 Par ch=8 c=11 v=16
80256 Par ch=8 c=11 v=64
80640 On ch=8 n=60 v=31
80794 On ch=8 n=60 v=0
80832 On ch=8 n=65 v=31
80909 On ch=8 n=65 v=0
80928 On ch=8 n=67 v=31
81005 On ch=8 n=67 v=0
81024 Par ch=8 c=11 v=64
81024 On ch=8 n=69 v=31
81048 Par ch=8 c=11 v=63
81072 Par ch=8 c=11 v=62
81092 Par ch=8 c=11 v=61
81116 Par ch=8 c=11 v=60
81140 Par ch=8 c=11 v=59
81160 Par ch=8 c=11 v=58
81184 Par ch=8 c=11 v=57
81208 Par ch=8 c=11 v=56
81228 Par ch=8 c=11 v=55
81252 Par ch=8 c=11 v=54
81276 Par ch=8 c=11 v=53
81296 Par ch=8 c=11 v=52
81320 Par ch=8 c=11 v=51
81344 Par ch=8 c=11 v=50
81364 Par ch=8 c=11 v=49
81388 Par ch=8 c=11 v=48
81408 On ch=8 n=69 v=0
81408 On ch=8 n=67 v=31
81485 On ch=8 n=67 v=0
81792 Par ch=8 c=11 v=64
83328 Par ch=8 c=11 v=64
83328 On ch=8 n=61 v=31
83336 Par ch=8 c=11 v=65
83340 Par ch=8 c=11 v=66
83348 Par ch=8 c=11 v=67
83352 Par ch=8 c=11 v=68
83360 Par ch=8 c=11 v=69
83364 Par ch=8 c=11 v=70
83368 Par ch=8 c=11 v=71
83376 Par ch=8 c=11 v=72
83380 Par ch=8 c=11 v=73
83388 Par ch=8 c=11 v=74
83392 Par ch=8 c=11 v=75
83396 Par ch=8 c=11 v=76
83404 Par ch=8 c=11 v=77
83408 Par ch=8 c=11 v=78
83416 Par ch=8 c=11 v=79
83420 Par ch=8 c=11 v=80
83424 Par ch=8 c=11 v=80
83432 Par ch=8 c=11 v=79
83436 Par ch=8 c=11 v=78
83444 Par ch=8 c=11 v=77
83448 Par ch=8 c=11 v=76
83456 Par ch=8 c=11 v=75
83460 Par ch=8 c=11 v=74
83468 Par ch=8 c=11 v=73
83472 Par ch=8 c=11 v=72
83480 Par ch=8 c=11 v=71
83484 Par ch=8 c=11 v=70
83492 Par ch=8 c=11 v=69
83496 Par ch=8 c=11 v=68
83504 Par ch=8 c=11 v=67
83508 Par ch=8 c=11 v=66
83516 Par ch=8 c=11 v=65
83520 On ch=8 n=61 v=0
83520 Par ch=8 c=11 v=64
83520 On ch=8 n=60 v=31
83712 On ch=8 n=60 v=0
83712 On ch=8 n=59 v=31
83808 On ch=8 n=59 v=0
83808 Par ch=8 c=11 v=64
83808 On ch=8 n=60 v=31
83816 Par ch=8 c=11 v=65
83820 Par ch=8 c=11 v=66
83828 Par ch=8 c=11 v=67
83832 Par ch=8 c=11 v=68
83840 Par ch=8 c=11 v=69
83844 Par ch=8 c=11 v=70
83848 Par ch=8 c=11 v=71
83856 Par ch=8 c=11 v=72
83860 Par ch=8 c=11 v=73
83868 Par ch=8 c=11 v=74
83872 Par ch=8 c=11 v=75
83876 Par ch=8 c=11 v=76
83884 Par ch=8 c=11 v=77
83888 Par ch=8 c=11 v=78
83896 Par ch=8 c=11 v=79
83900 Par ch=8 c=11 v=80
83904 On ch=8 n=60 v=0
83904 Par ch=8 c=11 v=80
83904 On ch=8 n=59 v=31
83912 Par ch=8 c=11 v=79
83916 Par ch=8 c=11 v=78
83924 Par ch=8 c=11 v=77
83928 Par ch=8 c=11 v=76
83936 Par ch=8 c=11 v=75
83940 Par ch=8 c=11 v=74
83948 Par ch=8 c=11 v=73
83952 Par ch=8 c=11 v=72
83960 Par ch=8 c=11 v=71
83964 Par ch=8 c=11 v=70
83972 Par ch=8 c=11 v=69
83976 Par ch=8 c=11 v=68
83984 Par ch=8 c=11 v=67
83988 Par ch=8 c=11 v=66
83996 Par ch=8 c=11 v=65
84000 On ch=8 n=59 v=0
84000 On ch=8 n=58 v=31
84096 Par ch=8 c=11 v=64
84104 Par ch=8 c=11 v=65
84108 Par ch=8 c=11 v=66
84116 Par ch=8 c=11 v=67
84120 Par ch=8 c=11 v=68
84128 Par ch=8 c=11 v=69
84132 Par ch=8 c=11 v=70
84136 Par ch=8 c=11 v=71
84144 Par ch=8 c=11 v=72
84148 Par ch=8 c=11 v=73
84156 Par ch=8 c=11 v=74
84160 Par ch=8 c=11 v=75
84164 Par ch=8 c=11 v=76
84172 Par ch=8 c=11 v=77
84176 Par ch=8 c=11 v=78
84184 Par ch=8 c=11 v=79
84188 Par ch=8 c=11 v=80
84192 Par ch=8 c=11 v=80
84200 Par ch=8 c=11 v=79
84204 Par ch=8 c=11 v=78
84212 Par ch=8 c=11 v=77
84216 Par ch=8 c=11 v=76
84224 Par ch=8 c=11 v=75
84228 Par ch=8 c=11 v=74
84236 Par ch=8 c=11 v=73
84240 Par ch=8 c=11 v=72
84248 Par ch=8 c=11 v=71
84250 On ch=8 n=58 v=0
84252 Par ch=8 c=11 v=70
84260 Par ch=8 c=11 v=69
84264 Par ch=8 c=11 v=68
84272 Par ch=8 c=11 v=67
84276 Par ch=8 c=11 v=66
84284 Par ch=8 c=11 v=65
84288 Par ch=8 c=11 v=64
84288 On ch=8 n=57 v=31
84480 On ch=8 n=57 v=0
84480 On ch=8 n=56 v=31
84672 On ch=8 n=56 v=0
84672 On ch=8 n=55 v=31
84864 On ch=8 n=55 v=0
84864 On ch=8 n=54 v=31
84941 On ch=8 n=54 v=0
85632 On ch=8 n=47 v=31
85709 On ch=8 n=47 v=0
85728 On ch=8 n=51 v=31
85805 On ch=8 n=51 v=0
85824 On ch=8 n=54 v=31
85901 On ch=8 n=54 v=0
85920 On ch=8 n=55 v=31
85997 On ch=8 n=55 v=0
86016 On ch=8 n=56 v=31
86093 On ch=8 n=56 v=0
86112 On ch=8 n=51 v=31
86189 On ch=8 n=51 v=0
86208 On ch=8 n=52 v=31
86285 On ch=8 n=52 v=0
86304 On ch=8 n=50 v=31
86381 On ch=8 n=50 v=0
86400 On ch=8 n=51 v=31
86477 On ch=8 n=51 v=0
86496 On ch=8 n=48 v=31
86573 On ch=8 n=48 v=0
86592 On ch=8 n=49 v=31
86669 On ch=8 n=49 v=0
86688 On ch=8 n=42 v=31
86765 On ch=8 n=42 v=0
86784 On ch=8 n=54 v=47
86784 On ch=8 n=47 v=47
87475 On ch=8 n=47 v=0
87475 On ch=8 n=54 v=0
87552 On ch=8 n=47 v=47
87552 On ch=8 n=54 v=47
88512 On ch=8 n=54 v=0
88512 On ch=8 n=47 v=0
90048 On ch=8 n=63 v=47
90048 On ch=8 n=59 v=47
90144 On ch=8 n=59 v=0
90144 On ch=8 n=63 v=0
90144 On ch=8 n=54 v=47
90144 On ch=8 n=61 v=47
90175 On ch=8 n=61 v=0
90175 On ch=8 n=54 v=0
90216 On ch=8 n=51 v=47
90216 On ch=8 n=59 v=47
90232 On ch=8 n=59 v=0
90232 On ch=8 n=51 v=0
90240 On ch=8 n=51 v=47
90240 On ch=8 n=59 v=47
90394 On ch=8 n=59 v=0
90394 On ch=8 n=51 v=0
90912 On ch=8 n=54 v=47
90943 On ch=8 n=54 v=0
90984 On ch=8 n=59 v=47
91000 On ch=8 n=59 v=0
91008 On ch=8 n=59 v=47
91085 On ch=8 n=59 v=0
91104 On ch=8 n=54 v=47
91135 On ch=8 n=54 v=0
91176 On ch=8 n=59 v=47
91192 On ch=8 n=59 v=0
91200 On ch=8 n=59 v=47
91277 On ch=8 n=59 v=0
91296 On ch=8 n=54 v=47
91327 On ch=8 n=54 v=0
91368 On ch=8 n=59 v=47
91384 On ch=8 n=59 v=0
91392 On ch=8 n=59 v=47
91546 On ch=8 n=59 v=0
92256 On ch=8 n=49 v=31
92287 On ch=8 n=49 v=0
92328 On ch=8 n=47 v=31
92344 On ch=8 n=47 v=0
92352 On ch=8 n=47 v=31
92383 On ch=8 n=47 v=0
92640 On ch=8 n=49 v=31
92671 On ch=8 n=49 v=0
92712 On ch=8 n=47 v=31
92728 On ch=8 n=47 v=0
92736 On ch=8 n=47 v=31
92767 On ch=8 n=47 v=0
93984 On ch=8 n=39 v=111
93984 On ch=8 n=51 v=111
94080 Par ch=8 c=11 v=64
94092 Par ch=8 c=11 v=63
94104 Par ch=8 c=11 v=62
94116 Par ch=8 c=11 v=61
94128 Par ch=8 c=11 v=60
94140 Par ch=8 c=11 v=59
94148 Par ch=8 c=11 v=58
94160 Par ch=8 c=11 v=57
94172 Par ch=8 c=11 v=56
94184 Par ch=8 c=11 v=55
94196 Par ch=8 c=11 v=54
94208 Par ch=8 c=11 v=53
94216 Par ch=8 c=11 v=52
94228 Par ch=8 c=11 v=51
94240 Par ch=8 c=11 v=50
94252 Par ch=8 c=11 v=49
94264 Par ch=8 c=11 v=48
94272 Par ch=8 c=11 v=47
94284 Par ch=8 c=11 v=46
94296 Par ch=8 c=11 v=45
94308 Par ch=8 c=11 v=44
94320 Par ch=8 c=11 v=43
94332 Par ch=8 c=11 v=42
94340 Par ch=8 c=11 v=41
94352 Par ch=8 c=11 v=40
94364 Par ch=8 c=11 v=39
94376 Par ch=8 c=11 v=38
94388 Par ch=8 c=11 v=37
94400 Par ch=8 c=11 v=36
94408 Par ch=8 c=11 v=35
94420 Par ch=8 c=11 v=34
94432 Par ch=8 c=11 v=33
94444 Par ch=8 c=11 v=32
94618 On ch=8 n=51 v=0
94618 On ch=8 n=39 v=0
94656 Par ch=8 c=11 v=64
94656 On ch=8 n=34 v=111
94848 Par ch=8 c=11 v=64
94860 Par ch=8 c=11 v=63
94872 Par ch=8 c=11 v=62
94884 Par ch=8 c=11 v=61
94896 Par ch=8 c=11 v=60
94908 Par ch=8 c=11 v=59
94916 Par ch=8 c=11 v=58
94928 Par ch=8 c=11 v=57
94940 Par ch=8 c=11 v=56
94952 Par ch=8 c=11 v=55
94964 Par ch=8 c=11 v=54
94976 Par ch=8 c=11 v=53
94984 Par ch=8 c=11 v=52
94996 Par ch=8 c=11 v=51
95008 Par ch=8 c=11 v=50
95020 Par ch=8 c=11 v=49
95032 Par ch=8 c=11 v=48
95040 Par ch=8 c=11 v=47
95052 Par ch=8 c=11 v=46
95064 Par ch=8 c=11 v=45
95076 Par ch=8 c=11 v=44
95088 Par ch=8 c=11 v=43
95100 Par ch=8 c=11 v=42
95108 Par ch=8 c=11 v=41
95120 Par ch=8 c=11 v=40
95132 Par ch=8 c=11 v=39
95144 Par ch=8 c=11 v=38
95156 Par ch=8 c=11 v=37
95168 Par ch=8 c=11 v=36
95176 Par ch=8 c=11 v=35
95188 Par ch=8 c=11 v=34
95200 Par ch=8 c=11 v=33
95212 Par ch=8 c=11 v=32
95386 On ch=8 n=34 v=0
95616 Par ch=8 c=11 v=64
106752 On ch=8 n=65 v=111
106752 On ch=8 n=61 v=111
106752 On ch=8 n=58 v=111
106906 On ch=8 n=58 v=0
106906 On ch=8 n=61 v=0
106906 On ch=8 n=65 v=0
107040 On ch=8 n=65 v=111
107040 On ch=8 n=60 v=111
107040 On ch=8 n=53 v=111
107117 On ch=8 n=53 v=0
107117 On ch=8 n=60 v=0
107117 On ch=8 n=65 v=0
107136 On ch=8 n=65 v=111
107136 On ch=8 n=61 v=111
107136 On ch=8 n=58 v=111
107167 On ch=8 n=58 v=0
107167 On ch=8 n=61 v=0
107167 On ch=8 n=65 v=0
107520 On ch=8 n=61 v=111
107520 On ch=8 n=58 v=111
107520 On ch=8 n=54 v=111
107674 On ch=8 n=54 v=0
107674 On ch=8 n=58 v=0
107674 On ch=8 n=61 v=0
107808 On ch=8 n=61 v=111
107808 On ch=8 n=56 v=111
107808 On ch=8 n=49 v=111
107885 On ch=8 n=49 v=0
107885 On ch=8 n=56 v=0
107885 On ch=8 n=61 v=0
107904 On ch=8 n=61 v=111
107904 On ch=8 n=58 v=111
107904 On ch=8 n=54 v=111
107942 On ch=8 n=54 v=0
107942 On ch=8 n=58 v=0
107942 On ch=8 n=61 v=0
108960 On ch=8 n=58 v=100
108960 On ch=8 n=46 v=100
109037 On ch=8 n=46 v=0
109037 On ch=8 n=58 v=0
109056 On ch=8 n=63 v=100
109056 On ch=8 n=51 v=100
109133 On ch=8 n=51 v=0
109133 On ch=8 n=63 v=0
109152 On ch=8 n=62 v=100
109152 On ch=8 n=50 v=100
109229 On ch=8 n=50 v=0
109229 On ch=8 n=62 v=0
109248 On ch=8 n=60 v=100
109248 On ch=8 n=48 v=100
109325 On ch=8 n=48 v=0
109325 On ch=8 n=60 v=0
109344 On ch=8 n=54 v=100
109344 On ch=8 n=42 v=100
109421 On ch=8 n=42 v=0
109421 On ch=8 n=54 v=0
109440 On ch=8 n=55 v=100
109440 On ch=8 n=43 v=100
109517 On ch=8 n=43 v=0
109517 On ch=8 n=55 v=0
109536 On ch=8 n=52 v=100
109536 On ch=8 n=40 v=100
109613 On ch=8 n=40 v=0
109613 On ch=8 n=52 v=0
109632 On ch=8 n=53 v=100
109632 On ch=8 n=41 v=100
109709 On ch=8 n=41 v=0
109709 On ch=8 n=53 v=0
109728 On ch=8 n=54 v=100
109728 On ch=8 n=42 v=100
109805 On ch=8 n=42 v=0
109805 On ch=8 n=54 v=0
109824 On ch=8 n=55 v=100
109824 On ch=8 n=43 v=100
109862 On ch=8 n=43 v=0
109862 On ch=8 n=55 v=0
109896 On ch=8 n=58 v=100
109896 On ch=8 n=46 v=100
109915 On ch=8 n=46 v=0
109915 On ch=8 n=58 v=0
109920 On ch=8 n=63 v=100
109920 On ch=8 n=51 v=100
109958 On ch=8 n=51 v=0
109958 On ch=8 n=63 v=0
109992 On ch=8 n=62 v=100
109992 On ch=8 n=50 v=100
110011 On ch=8 n=50 v=0
110011 On ch=8 n=62 v=0
110016 On ch=8 n=60 v=100
110016 On ch=8 n=48 v=100
110054 On ch=8 n=48 v=0
110054 On ch=8 n=60 v=0
110088 On ch=8 n=58 v=100
110088 On ch=8 n=46 v=100
110107 On ch=8 n=46 v=0
110107 On ch=8 n=58 v=0
110112 On ch=8 n=56 v=100
110112 On ch=8 n=44 v=100
110150 On ch=8 n=44 v=0
110150 On ch=8 n=56 v=0
110184 On ch=8 n=43 v=100
110184 On ch=8 n=55 v=100
110203 On ch=8 n=55 v=0
110203 On ch=8 n=43 v=0
110208 On ch=8 n=56 v=100
110208 On ch=8 n=44 v=100
110246 On ch=8 n=44 v=0
110246 On ch=8 n=56 v=0
110280 On ch=8 n=51 v=100
110299 On ch=8 n=51 v=0
110304 On ch=8 n=56 v=100
110342 On ch=8 n=56 v=0
110376 On ch=8 n=55 v=100
110395 On ch=8 n=55 v=0
110400 On ch=8 n=53 v=100
110438 On ch=8 n=53 v=0
110472 On ch=8 n=51 v=100
110491 On ch=8 n=51 v=0
110496 On ch=8 n=49 v=100
110534 On ch=8 n=49 v=0
110568 On ch=8 n=47 v=100
110587 On ch=8 n=47 v=0
110592 On ch=8 n=46 v=100
110630 On ch=8 n=46 v=0
110664 On ch=8 n=48 v=100
110664 On ch=8 n=36 v=100
110683 On ch=8 n=36 v=0
110683 On ch=8 n=48 v=0
110688 On ch=8 n=50 v=100
110688 On ch=8 n=38 v=100
110726 On ch=8 n=38 v=0
110726 On ch=8 n=50 v=0
110760 On ch=8 n=51 v=100
110760 On ch=8 n=39 v=100
110779 On ch=8 n=39 v=0
110779 On ch=8 n=51 v=0
110784 On ch=8 n=53 v=100
110784 On ch=8 n=41 v=100
110822 On ch=8 n=41 v=0
110822 On ch=8 n=53 v=0
110856 On ch=8 n=54 v=100
110856 On ch=8 n=42 v=100
110875 On ch=8 n=42 v=0
110875 On ch=8 n=54 v=0
110880 On ch=8 n=56 v=100
110880 On ch=8 n=44 v=100
110918 On ch=8 n=44 v=0
110918 On ch=8 n=56 v=0
110952 On ch=8 n=58 v=100
110952 On ch=8 n=46 v=100
110971 On ch=8 n=46 v=0
110971 On ch=8 n=58 v=0
110976 On ch=8 n=47 v=100
110976 On ch=8 n=35 v=100
111014 On ch=8 n=35 v=0
111014 On ch=8 n=47 v=0
111048 On ch=8 n=49 v=100
111048 On ch=8 n=37 v=100
111067 On ch=8 n=37 v=0
111067 On ch=8 n=49 v=0
111072 On ch=8 n=51 v=100
111072 On ch=8 n=39 v=100
111110 On ch=8 n=39 v=0
111110 On ch=8 n=51 v=0
111144 On ch=8 n=53 v=100
111144 On ch=8 n=41 v=100
111163 On ch=8 n=41 v=0
111163 On ch=8 n=53 v=0
111168 On ch=8 n=55 v=100
111168 On ch=8 n=43 v=100
111206 On ch=8 n=43 v=0
111206 On ch=8 n=55 v=0
111240 On ch=8 n=56 v=100
111240 On ch=8 n=44 v=100
111259 On ch=8 n=44 v=0
111259 On ch=8 n=56 v=0
111264 On ch=8 n=58 v=100
111264 On ch=8 n=46 v=100
111302 On ch=8 n=46 v=0
111302 On ch=8 n=58 v=0
111336 On ch=8 n=59 v=100
111336 On ch=8 n=47 v=100
111355 On ch=8 n=47 v=0
111355 On ch=8 n=59 v=0
111360 On ch=8 n=44 v=100
111360 On ch=8 n=56 v=100
111385 On ch=8 n=56 v=0
111385 On ch=8 n=44 v=0
111392 On ch=8 n=55 v=100
111392 On ch=8 n=43 v=100
111417 On ch=8 n=43 v=0
111417 On ch=8 n=55 v=0
111424 On ch=8 n=56 v=100
111424 On ch=8 n=44 v=100
111449 On ch=8 n=44 v=0
111449 On ch=8 n=56 v=0
111456 On ch=8 n=59 v=100
111456 On ch=8 n=47 v=100
111481 On ch=8 n=47 v=0
111481 On ch=8 n=59 v=0
111488 On ch=8 n=58 v=100
111488 On ch=8 n=46 v=100
111513 On ch=8 n=46 v=0
111513 On ch=8 n=58 v=0
111520 On ch=8 n=59 v=100
111520 On ch=8 n=47 v=100
111545 On ch=8 n=47 v=0
111545 On ch=8 n=59 v=0
111552 On ch=8 n=52 v=100
111552 On ch=8 n=40 v=100
111577 On ch=8 n=40 v=0
111577 On ch=8 n=52 v=0
111584 On ch=8 n=51 v=100
111584 On ch=8 n=39 v=100
111609 On ch=8 n=39 v=0
111609 On ch=8 n=51 v=0
111616 On ch=8 n=52 v=100
111616 On ch=8 n=40 v=100
111641 On ch=8 n=40 v=0
111641 On ch=8 n=52 v=0
111648 On ch=8 n=57 v=100
111648 On ch=8 n=45 v=100
111673 On ch=8 n=45 v=0
111673 On ch=8 n=57 v=0
111680 On ch=8 n=56 v=100
111680 On ch=8 n=44 v=100
111705 On ch=8 n=44 v=0
111705 On ch=8 n=56 v=0
111712 On ch=8 n=57 v=100
111712 On ch=8 n=45 v=100
111737 On ch=8 n=45 v=0
111737 On ch=8 n=57 v=0
111744 On ch=8 n=39 v=100
112051 On ch=8 n=39 v=0
112416 On ch=8 n=66 v=100
112437 On ch=8 n=66 v=0
112448 On ch=8 n=63 v=100
112469 On ch=8 n=63 v=0
112480 On ch=8 n=66 v=100
112501 On ch=8 n=66 v=0
112512 On ch=8 n=39 v=100
112819 On ch=8 n=39 v=0
113184 On ch=8 n=66 v=100
113205 On ch=8 n=66 v=0
113216 On ch=8 n=63 v=100
113237 On ch=8 n=63 v=0
113248 On ch=8 n=66 v=100
113269 On ch=8 n=66 v=0
113280 On ch=8 n=58 v=111
113306 On ch=8 n=58 v=0
113312 On ch=8 n=57 v=111
113338 On ch=8 n=57 v=0
113344 On ch=8 n=56 v=111
113370 On ch=8 n=56 v=0
113376 On ch=8 n=54 v=111
113402 On ch=8 n=54 v=0
113408 On ch=8 n=53 v=111
113434 On ch=8 n=53 v=0
113440 On ch=8 n=52 v=111
113466 On ch=8 n=52 v=0
113472 On ch=8 n=51 v=111
113498 On ch=8 n=51 v=0
113504 On ch=8 n=49 v=111
113530 On ch=8 n=49 v=0
113536 On ch=8 n=47 v=111
113562 On ch=8 n=47 v=0
113568 On ch=8 n=46 v=111
113594 On ch=8 n=46 v=0
113600 On ch=8 n=45 v=111
113626 On ch=8 n=45 v=0
113632 On ch=8 n=46 v=111
113658 On ch=8 n=46 v=0
114048 On ch=8 n=46 v=111
114048 On ch=8 n=34 v=111
114104 Par ch=8 c=11 v=16
114112 Par ch=8 c=11 v=17
114120 Par ch=8 c=11 v=18
114124 Par ch=8 c=11 v=19
114132 Par ch=8 c=11 v=20
114140 Par ch=8 c=11 v=21
114144 Par ch=8 c=11 v=22
114152 Par ch=8 c=11 v=23
114160 Par ch=8 c=11 v=24
114164 Par ch=8 c=11 v=25
114172 Par ch=8 c=11 v=26
114180 Par ch=8 c=11 v=27
114184 Par ch=8 c=11 v=28
114192 Par ch=8 c=11 v=29
114200 Par ch=8 c=11 v=30
114204 Par ch=8 c=11 v=31
114212 Par ch=8 c=11 v=32
114220 Par ch=8 c=11 v=33
114224 Par ch=8 c=11 v=34
114232 Par ch=8 c=11 v=35
114240 Par ch=8 c=11 v=36
114244 Par ch=8 c=11 v=37
114252 Par ch=8 c=11 v=38
114260 Par ch=8 c=11 v=39
114264 Par ch=8 c=11 v=40
114272 Par ch=8 c=11 v=41
114280 Par ch=8 c=11 v=42
114288 Par ch=8 c=11 v=43
114292 Par ch=8 c=11 v=44
114300 Par ch=8 c=11 v=45
114308 Par ch=8 c=11 v=46
114312 Par ch=8 c=11 v=47
114320 Par ch=8 c=11 v=48
114328 Par ch=8 c=11 v=49
114332 Par ch=8 c=11 v=50
114340 Par ch=8 c=11 v=51
114348 Par ch=8 c=11 v=52
114352 Par ch=8 c=11 v=53
114360 Par ch=8 c=11 v=54
114368 Par ch=8 c=11 v=55
114372 Par ch=8 c=11 v=56
114380 Par ch=8 c=11 v=57
114388 Par ch=8 c=11 v=58
114392 Par ch=8 c=11 v=59
114400 Par ch=8 c=11 v=60
114408 Par ch=8 c=11 v=61
114412 Par ch=8 c=11 v=62
114420 Par ch=8 c=11 v=63
114428 Par ch=8 c=11 v=64
114444 Par ch=8 c=11 v=63
114456 Par ch=8 c=11 v=62
114468 Par ch=8 c=11 v=61
114480 Par ch=8 c=11 v=60
114492 Par ch=8 c=11 v=59
114500 Par ch=8 c=11 v=58
114512 Par ch=8 c=11 v=57
114524 Par ch=8 c=11 v=56
114536 Par ch=8 c=11 v=55
114548 Par ch=8 c=11 v=54
114560 Par ch=8 c=11 v=53
114568 Par ch=8 c=11 v=52
114580 Par ch=8 c=11 v=51
114592 Par ch=8 c=11 v=50
114604 Par ch=8 c=11 v=49
114616 Par ch=8 c=11 v=48
114624 Par ch=8 c=11 v=47
114636 Par ch=8 c=11 v=46
114648 Par ch=8 c=11 v=45
114660 Par ch=8 c=11 v=44
114672 Par ch=8 c=11 v=43
114684 Par ch=8 c=11 v=42
114692 Par ch=8 c=11 v=41
114704 Par ch=8 c=11 v=40
114716 Par ch=8 c=11 v=39
114728 Par ch=8 c=11 v=38
114740 Par ch=8 c=11 v=37
114752 Par ch=8 c=11 v=36
114760 Par ch=8 c=11 v=35
114772 Par ch=8 c=11 v=34
114784 Par ch=8 c=11 v=33
114796 Par ch=8 c=11 v=32
114816 Par ch=8 c=11 v=32
114828 Par ch=8 c=11 v=33
114840 Par ch=8 c=11 v=34
114852 Par ch=8 c=11 v=35
114864 Par ch=8 c=11 v=36
114876 Par ch=8 c=11 v=37
114888 Par ch=8 c=11 v=38
114900 Par ch=8 c=11 v=39
114912 Par ch=8 c=11 v=40
114924 Par ch=8 c=11 v=41
114936 Par ch=8 c=11 v=42
114944 Par ch=8 c=11 v=43
114956 Par ch=8 c=11 v=44
114968 Par ch=8 c=11 v=45
114980 Par ch=8 c=11 v=46
114992 Par ch=8 c=11 v=47
115004 Par ch=8 c=11 v=48
115016 Par ch=8 c=11 v=49
115028 Par ch=8 c=11 v=50
115040 Par ch=8 c=11 v=51
115052 Par ch=8 c=11 v=52
115064 Par ch=8 c=11 v=53
115072 Par ch=8 c=11 v=54
115084 Par ch=8 c=11 v=55
115096 Par ch=8 c=11 v=56
115108 Par ch=8 c=11 v=57
115120 Par ch=8 c=11 v=58
115123 On ch=8 n=34 v=0
115123 On ch=8 n=46 v=0
115132 Par ch=8 c=11 v=59
115144 Par ch=8 c=11 v=60
115156 Par ch=8 c=11 v=61
115168 Par ch=8 c=11 v=62
115180 Par ch=8 c=11 v=63
115192 Par ch=8 c=11 v=64
115200 Par ch=8 c=11 v=64
115200 On ch=8 n=35 v=111
115200 On ch=8 n=47 v=111
115212 Par ch=8 c=11 v=63
115224 Par ch=8 c=11 v=62
115236 Par ch=8 c=11 v=61
115248 Par ch=8 c=11 v=60
115260 Par ch=8 c=11 v=59
115268 Par ch=8 c=11 v=58
115280 Par ch=8 c=11 v=57
115292 Par ch=8 c=11 v=56
115304 Par ch=8 c=11 v=55
115316 Par ch=8 c=11 v=54
115328 Par ch=8 c=11 v=53
115336 Par ch=8 c=11 v=52
115348 Par ch=8 c=11 v=51
115360 Par ch=8 c=11 v=50
115372 Par ch=8 c=11 v=49
115384 Par ch=8 c=11 v=48
115392 Par ch=8 c=11 v=47
115404 Par ch=8 c=11 v=46
115416 Par ch=8 c=11 v=45
115428 On ch=8 n=47 v=0
115428 On ch=8 n=35 v=0
115428 Par ch=8 c=11 v=44
115440 Par ch=8 c=11 v=43
115452 Par ch=8 c=11 v=42
115460 Par ch=8 c=11 v=41
115472 Par ch=8 c=11 v=40
115484 Par ch=8 c=11 v=39
115488 On ch=8 n=46 v=111
115496 Par ch=8 c=11 v=38
115508 Par ch=8 c=11 v=37
115520 Par ch=8 c=11 v=36
115528 Par ch=8 c=11 v=35
115540 Par ch=8 c=11 v=34
115552 Par ch=8 c=11 v=33
115564 On ch=8 n=46 v=0
115564 Par ch=8 c=11 v=32
115584 Par ch=8 c=11 v=32
115584 On ch=8 n=45 v=111
115596 Par ch=8 c=11 v=33
115608 Par ch=8 c=11 v=34
115620 Par ch=8 c=11 v=35
115632 Par ch=8 c=11 v=36
115644 Par ch=8 c=11 v=37
115656 Par ch=8 c=11 v=38
115660 On ch=8 n=45 v=0
115668 Par ch=8 c=11 v=39
115680 Par ch=8 c=11 v=40
115680 On ch=8 n=44 v=111
115692 Par ch=8 c=11 v=41
115704 Par ch=8 c=11 v=42
115712 Par ch=8 c=11 v=43
115724 Par ch=8 c=11 v=44
115736 Par ch=8 c=11 v=45
115748 Par ch=8 c=11 v=46
115756 On ch=8 n=44 v=0
115760 Par ch=8 c=11 v=47
115772 Par ch=8 c=11 v=48
115776 On ch=8 n=45 v=111
115784 Par ch=8 c=11 v=49
115796 Par ch=8 c=11 v=50
115808 Par ch=8 c=11 v=51
115820 Par ch=8 c=11 v=52
115832 Par ch=8 c=11 v=53
115840 Par ch=8 c=11 v=54
115852 On ch=8 n=45 v=0
115852 Par ch=8 c=11 v=55
115864 Par ch=8 c=11 v=56
115872 On ch=8 n=46 v=111
115876 Par ch=8 c=11 v=57
115888 Par ch=8 c=11 v=58
115900 Par ch=8 c=11 v=59
115912 Par ch=8 c=11 v=60
115924 Par ch=8 c=11 v=61
115936 Par ch=8 c=11 v=62
115948 On ch=8 n=46 v=0
115948 Par ch=8 c=11 v=63
115960 Par ch=8 c=11 v=64
115968 On ch=8 n=47 v=111
115992 Par ch=8 c=11 v=32
116016 Par ch=8 c=11 v=31
116036 Par ch=8 c=11 v=30
116056 Par ch=8 c=11 v=29
116080 Par ch=8 c=11 v=28
116100 Par ch=8 c=11 v=27
116120 Par ch=8 c=11 v=26
116144 Par ch=8 c=11 v=25
116164 Par ch=8 c=11 v=24
116184 Par ch=8 c=11 v=23
116204 Par ch=8 c=11 v=22
116228 Par ch=8 c=11 v=21
116248 Par ch=8 c=11 v=20
116268 Par ch=8 c=11 v=19
116292 Par ch=8 c=11 v=18
116312 Par ch=8 c=11 v=17
116332 Par ch=8 c=11 v=16
116429 On ch=8 n=47 v=0
116448 Par ch=8 c=11 v=64
116448 On ch=8 n=45 v=95
116468 Par ch=8 c=11 v=63
116484 Par ch=8 c=11 v=62
116500 Par ch=8 c=11 v=61
116516 Par ch=8 c=11 v=60
116524 On ch=8 n=45 v=0
116536 Par ch=8 c=11 v=59
116544 On ch=8 n=44 v=95
116552 Par ch=8 c=11 v=58
116568 Par ch=8 c=11 v=57
116584 Par ch=8 c=11 v=56
116604 Par ch=8 c=11 v=55
116620 On ch=8 n=44 v=0
116620 Par ch=8 c=11 v=54
116636 Par ch=8 c=11 v=53
116640 On ch=8 n=45 v=95
116652 Par ch=8 c=11 v=52
116672 Par ch=8 c=11 v=51
116688 Par ch=8 c=11 v=50
116704 Par ch=8 c=11 v=49
116716 On ch=8 n=45 v=0
116720 Par ch=8 c=11 v=48
116736 Par ch=8 c=11 v=64
116736 On ch=8 n=46 v=79
116736 On ch=8 n=39 v=79
116762 On ch=8 n=39 v=0
116762 On ch=8 n=46 v=0
116768 On ch=8 n=46 v=79
116768 On ch=8 n=39 v=79
116794 On ch=8 n=39 v=0
116794 On ch=8 n=46 v=0
116800 On ch=8 n=46 v=79
116800 On ch=8 n=39 v=79
116826 On ch=8 n=39 v=0
116826 On ch=8 n=46 v=0
116832 On ch=8 n=39 v=79
116832 On ch=8 n=46 v=79
116858 On ch=8 n=46 v=0
116858 On ch=8 n=39 v=0
116864 On ch=8 n=39 v=79
116864 On ch=8 n=46 v=79
116890 On ch=8 n=46 v=0
116890 On ch=8 n=39 v=0
116896 On ch=8 n=39 v=79
116896 On ch=8 n=46 v=79
116922 On ch=8 n=46 v=0
116922 On ch=8 n=39 v=0
116928 On ch=8 n=39 v=79
116928 On ch=8 n=46 v=79
116954 On ch=8 n=46 v=0
116954 On ch=8 n=39 v=0
116960 On ch=8 n=39 v=79
116960 On ch=8 n=46 v=79
116986 On ch=8 n=46 v=0
116986 On ch=8 n=39 v=0
116992 On ch=8 n=39 v=79
116992 On ch=8 n=46 v=79
117018 On ch=8 n=46 v=0
117018 On ch=8 n=39 v=0
117024 On ch=8 n=39 v=79
117024 On ch=8 n=46 v=79
117050 On ch=8 n=46 v=0
117050 On ch=8 n=39 v=0
117056 On ch=8 n=39 v=79
117056 On ch=8 n=46 v=79
117082 On ch=8 n=46 v=0
117082 On ch=8 n=39 v=0
117088 On ch=8 n=39 v=79
117088 On ch=8 n=46 v=79
117114 On ch=8 n=46 v=0
117114 On ch=8 n=39 v=0
117120 On ch=8 n=39 v=79
117120 On ch=8 n=46 v=79
117146 On ch=8 n=46 v=0
117146 On ch=8 n=39 v=0
117152 On ch=8 n=39 v=79
117152 On ch=8 n=46 v=79
117178 On ch=8 n=46 v=0
117178 On ch=8 n=39 v=0
117184 On ch=8 n=39 v=79
117184 On ch=8 n=46 v=79
117210 On ch=8 n=46 v=0
117210 On ch=8 n=39 v=0
117216 On ch=8 n=46 v=79
117216 On ch=8 n=39 v=79
117242 On ch=8 n=39 v=0
117242 On ch=8 n=46 v=0
117248 On ch=8 n=46 v=79
117248 On ch=8 n=39 v=79
117274 On ch=8 n=39 v=0
117274 On ch=8 n=46 v=0
117280 On ch=8 n=46 v=79
117280 On ch=8 n=39 v=79
117306 On ch=8 n=39 v=0
117306 On ch=8 n=46 v=0
117312 On ch=8 n=46 v=79
117312 On ch=8 n=39 v=79
117338 On ch=8 n=39 v=0
117338 On ch=8 n=46 v=0
117344 On ch=8 n=46 v=79
117344 On ch=8 n=39 v=79
117370 On ch=8 n=39 v=0
117370 On ch=8 n=46 v=0
117376 On ch=8 n=46 v=79
117376 On ch=8 n=39 v=79
117402 On ch=8 n=39 v=0
117402 On ch=8 n=46 v=0
117408 On ch=8 n=46 v=79
117408 On ch=8 n=39 v=79
117434 On ch=8 n=39 v=0
117434 On ch=8 n=46 v=0
117440 On ch=8 n=46 v=79
117440 On ch=8 n=39 v=79
117466 On ch=8 n=39 v=0
117466 On ch=8 n=46 v=0
117472 On ch=8 n=46 v=79
117472 On ch=8 n=39 v=79
117498 On ch=8 n=39 v=0
117498 On ch=8 n=46 v=0
117504 Par ch=8 c=11 v=64
117504 On ch=8 n=39 v=79
117504 On ch=8 n=46 v=79
117530 On ch=8 n=46 v=0
117530 On ch=8 n=39 v=0
117536 On ch=8 n=39 v=79
117536 On ch=8 n=46 v=79
117552 Par ch=8 c=11 v=65
117562 On ch=8 n=46 v=0
117562 On ch=8 n=39 v=0
117568 On ch=8 n=39 v=79
117568 On ch=8 n=46 v=79
117594 On ch=8 n=46 v=0
117594 On ch=8 n=39 v=0
117596 Par ch=8 c=11 v=66
117600 On ch=8 n=46 v=79
117600 On ch=8 n=39 v=79
117626 On ch=8 n=39 v=0
117626 On ch=8 n=46 v=0
117632 On ch=8 n=46 v=79
117632 On ch=8 n=39 v=79
117640 Par ch=8 c=11 v=67
117658 On ch=8 n=39 v=0
117658 On ch=8 n=46 v=0
117664 On ch=8 n=46 v=79
117664 On ch=8 n=39 v=79
117688 Par ch=8 c=11 v=68
117690 On ch=8 n=39 v=0
117690 On ch=8 n=46 v=0
117696 On ch=8 n=46 v=79
117696 On ch=8 n=39 v=79
117722 On ch=8 n=39 v=0
117722 On ch=8 n=46 v=0
117728 On ch=8 n=46 v=79
117728 On ch=8 n=39 v=79
117732 Par ch=8 c=11 v=69
117754 On ch=8 n=39 v=0
117754 On ch=8 n=46 v=0
117760 On ch=8 n=46 v=79
117760 On ch=8 n=39 v=79
117776 Par ch=8 c=11 v=70
117786 On ch=8 n=39 v=0
117786 On ch=8 n=46 v=0
117792 On ch=8 n=46 v=79
117792 On ch=8 n=39 v=79
117818 On ch=8 n=39 v=0
117818 On ch=8 n=46 v=0
117824 Par ch=8 c=11 v=71
117824 On ch=8 n=46 v=79
117824 On ch=8 n=39 v=79
117850 On ch=8 n=39 v=0
117850 On ch=8 n=46 v=0
117856 On ch=8 n=46 v=79
117856 On ch=8 n=39 v=79
117868 Par ch=8 c=11 v=72
117882 On ch=8 n=39 v=0
117882 On ch=8 n=46 v=0
117888 On ch=8 n=39 v=79
117888 On ch=8 n=46 v=79
117912 Par ch=8 c=11 v=73
117914 On ch=8 n=46 v=0
117914 On ch=8 n=39 v=0
117920 On ch=8 n=39 v=79
117920 On ch=8 n=46 v=79
117946 On ch=8 n=46 v=0
117946 On ch=8 n=39 v=0
117952 On ch=8 n=39 v=79
117952 On ch=8 n=46 v=79
117956 Par ch=8 c=11 v=74
117978 On ch=8 n=46 v=0
117978 On ch=8 n=39 v=0
117984 On ch=8 n=46 v=79
117984 On ch=8 n=39 v=79
118004 Par ch=8 c=11 v=75
118010 On ch=8 n=39 v=0
118010 On ch=8 n=46 v=0
118016 On ch=8 n=46 v=79
118016 On ch=8 n=39 v=79
118042 On ch=8 n=39 v=0
118042 On ch=8 n=46 v=0
118048 Par ch=8 c=11 v=76
118048 On ch=8 n=46 v=79
118048 On ch=8 n=39 v=79
118074 On ch=8 n=39 v=0
118074 On ch=8 n=46 v=0
118080 On ch=8 n=46 v=79
118080 On ch=8 n=39 v=79
118092 Par ch=8 c=11 v=77
118106 On ch=8 n=39 v=0
118106 On ch=8 n=46 v=0
118112 On ch=8 n=46 v=79
118112 On ch=8 n=39 v=79
118138 On ch=8 n=39 v=0
118138 On ch=8 n=46 v=0
118140 Par ch=8 c=11 v=78
118144 On ch=8 n=46 v=79
118144 On ch=8 n=39 v=79
118170 On ch=8 n=39 v=0
118170 On ch=8 n=46 v=0
118176 On ch=8 n=46 v=79
118176 On ch=8 n=39 v=79
118184 Par ch=8 c=11 v=79
118202 On ch=8 n=39 v=0
118202 On ch=8 n=46 v=0
118208 On ch=8 n=46 v=79
118208 On ch=8 n=39 v=79
118228 Par ch=8 c=11 v=80
118234 On ch=8 n=39 v=0
118234 On ch=8 n=46 v=0
118240 On ch=8 n=46 v=79
118240 On ch=8 n=39 v=79
118266 On ch=8 n=39 v=0
118266 On ch=8 n=46 v=0
118272 Par ch=8 c=11 v=64
118272 On ch=8 n=34 v=111
118272 On ch=8 n=46 v=111
118368 On ch=8 n=46 v=0
118368 On ch=8 n=34 v=0
118368 On ch=8 n=33 v=111
118368 On ch=8 n=45 v=111
118464 On ch=8 n=45 v=0
118464 On ch=8 n=33 v=0
118464 On ch=8 n=34 v=111
118464 On ch=8 n=46 v=111
118560 On ch=8 n=46 v=0
118560 On ch=8 n=34 v=0
118560 On ch=8 n=33 v=111
118560 On ch=8 n=45 v=111
118637 On ch=8 n=45 v=0
118637 On ch=8 n=33 v=0
118656 On ch=8 n=34 v=111
118656 On ch=8 n=46 v=111
118752 On ch=8 n=46 v=0
118752 On ch=8 n=34 v=0
118752 On ch=8 n=33 v=111
118752 On ch=8 n=45 v=111
118848 On ch=8 n=45 v=0
118848 On ch=8 n=33 v=0
118848 On ch=8 n=34 v=111
118848 On ch=8 n=46 v=111
118944 On ch=8 n=46 v=0
118944 On ch=8 n=34 v=0
118944 On ch=8 n=33 v=111
118944 On ch=8 n=45 v=111
119021 On ch=8 n=45 v=0
119021 On ch=8 n=33 v=0
119040 On ch=8 n=34 v=111
119040 On ch=8 n=46 v=111
119136 On ch=8 n=46 v=0
119136 On ch=8 n=34 v=0
119136 On ch=8 n=33 v=111
119136 On ch=8 n=45 v=111
119232 On ch=8 n=45 v=0
119232 On ch=8 n=33 v=0
119232 On ch=8 n=34 v=111
119232 On ch=8 n=46 v=111
119328 On ch=8 n=46 v=0
119328 On ch=8 n=34 v=0
119328 On ch=8 n=35 v=111
119328 On ch=8 n=47 v=111
119424 On ch=8 n=47 v=0
119424 On ch=8 n=35 v=0
119424 On ch=8 n=34 v=111
119424 On ch=8 n=46 v=111
119520 On ch=8 n=46 v=0
119520 On ch=8 n=34 v=0
119520 On ch=8 n=33 v=111
119520 On ch=8 n=45 v=111
119616 On ch=8 n=45 v=0
119616 On ch=8 n=33 v=0
119616 On ch=8 n=34 v=111
119616 On ch=8 n=46 v=111
119693 On ch=8 n=46 v=0
119693 On ch=8 n=34 v=0
119712 On ch=8 n=39 v=111
119712 On ch=8 n=51 v=111
119743 On ch=8 n=51 v=0
119743 On ch=8 n=39 v=0
119784 On ch=8 n=41 v=111
119784 On ch=8 n=53 v=111
119800 On ch=8 n=53 v=0
119800 On ch=8 n=41 v=0
119808 On ch=8 n=41 v=111
119808 On ch=8 n=53 v=111
119839 On ch=8 n=41 v=0
119856 On ch=8 n=53 v=0
119856 On ch=8 n=42 v=111
119856 On ch=8 n=54 v=111
119894 On ch=8 n=54 v=0
119894 On ch=8 n=42 v=0
119904 On ch=8 n=34 v=111
119904 On ch=8 n=46 v=111
119935 On ch=8 n=46 v=0
119935 On ch=8 n=34 v=0
119976 On ch=8 n=35 v=111
119976 On ch=8 n=47 v=111
119992 On ch=8 n=35 v=0
120000 On ch=8 n=47 v=0
120000 On ch=8 n=37 v=111
120000 On ch=8 n=49 v=111
120062 On ch=8 n=49 v=0
120062 On ch=8 n=37 v=0
120096 On ch=8 n=35 v=111
120096 On ch=8 n=47 v=111
120127 On ch=8 n=35 v=0
120134 On ch=8 n=47 v=0
120168 On ch=8 n=37 v=111
120168 On ch=8 n=49 v=111
120184 On ch=8 n=37 v=0
120187 On ch=8 n=49 v=0
120192 On ch=8 n=39 v=111
120192 On ch=8 n=51 v=111
120269 On ch=8 n=51 v=0
120269 On ch=8 n=39 v=0
120288 On ch=8 n=44 v=111
120288 On ch=8 n=56 v=111
120326 On ch=8 n=56 v=0
120326 On ch=8 n=44 v=0
120360 On ch=8 n=40 v=111
120360 On ch=8 n=52 v=111
120379 On ch=8 n=52 v=0
120379 On ch=8 n=40 v=0
120384 On ch=8 n=38 v=111
120384 On ch=8 n=50 v=111
120432 On ch=8 n=50 v=0
120432 On ch=8 n=38 v=0
120432 On ch=8 n=39 v=111
120432 On ch=8 n=51 v=111
120470 On ch=8 n=51 v=0
120470 On ch=8 n=39 v=0
120480 On ch=8 n=44 v=111
120518 On ch=8 n=44 v=0
120552 On ch=8 n=46 v=111
120571 On ch=8 n=46 v=0
120576 On ch=8 n=47 v=111
120653 On ch=8 n=47 v=0
121248 On ch=8 n=51 v=127
121248 On ch=8 n=63 v=127
121279 On ch=8 n=63 v=0
121279 On ch=8 n=51 v=0
121320 On ch=8 n=50 v=127
121320 On ch=8 n=62 v=127
121336 On ch=8 n=62 v=0
121336 On ch=8 n=50 v=0
121344 On ch=8 n=49 v=127
121344 On ch=8 n=61 v=127
121375 On ch=8 n=61 v=0
121375 On ch=8 n=49 v=0
121416 On ch=8 n=48 v=127
121416 On ch=8 n=60 v=127
121432 On ch=8 n=60 v=0
121432 On ch=8 n=48 v=0
121440 On ch=8 n=47 v=127
121440 On ch=8 n=59 v=127
121471 On ch=8 n=59 v=0
121471 On ch=8 n=47 v=0
121512 On ch=8 n=46 v=127
121512 On ch=8 n=58 v=127
121528 On ch=8 n=58 v=0
121528 On ch=8 n=46 v=0
121536 On ch=8 n=45 v=127
121536 On ch=8 n=57 v=127
121567 On ch=8 n=57 v=0
121567 On ch=8 n=45 v=0
121608 On ch=8 n=44 v=127
121608 On ch=8 n=56 v=127
121624 On ch=8 n=56 v=0
121624 On ch=8 n=44 v=0
121632 On ch=8 n=43 v=127
121632 On ch=8 n=55 v=127
121663 On ch=8 n=55 v=0
121663 On ch=8 n=43 v=0
121704 On ch=8 n=42 v=127
121704 On ch=8 n=54 v=127
121720 On ch=8 n=54 v=0
121720 On ch=8 n=42 v=0
121728 On ch=8 n=59 v=127
121728 On ch=8 n=47 v=127
121759 On ch=8 n=47 v=0
121759 On ch=8 n=59 v=0
121800 On ch=8 n=58 v=127
121800 On ch=8 n=46 v=127
121816 On ch=8 n=46 v=0
121816 On ch=8 n=58 v=0
121824 On ch=8 n=57 v=127
121824 On ch=8 n=45 v=127
121855 On ch=8 n=45 v=0
121855 On ch=8 n=57 v=0
121896 On ch=8 n=56 v=127
121896 On ch=8 n=44 v=127
121912 On ch=8 n=44 v=0
121912 On ch=8 n=56 v=0
121920 On ch=8 n=55 v=127
121920 On ch=8 n=43 v=127
121951 On ch=8 n=43 v=0
121951 On ch=8 n=55 v=0
121992 On ch=8 n=54 v=127
121992 On ch=8 n=42 v=127
122008 On ch=8 n=42 v=0
122008 On ch=8 n=54 v=0
122016 On ch=8 n=53 v=127
122016 On ch=8 n=41 v=127
122047 On ch=8 n=41 v=0
122047 On ch=8 n=53 v=0
122088 On ch=8 n=52 v=127
122088 On ch=8 n=40 v=127
122104 On ch=8 n=40 v=0
122104 On ch=8 n=52 v=0
122112 On ch=8 n=69 v=127
122144 On ch=8 n=69 v=0
122144 On ch=8 n=68 v=127
122165 On ch=8 n=68 v=0
122176 On ch=8 n=67 v=127
122197 On ch=8 n=67 v=0
122208 On ch=8 n=66 v=127
122229 On ch=8 n=66 v=0
122240 On ch=8 n=65 v=127
122261 On ch=8 n=65 v=0
122272 On ch=8 n=64 v=127
122293 On ch=8 n=64 v=0
122304 On ch=8 n=63 v=127
122325 On ch=8 n=63 v=0
122336 On ch=8 n=62 v=127
122357 On ch=8 n=62 v=0
122368 On ch=8 n=61 v=127
122389 On ch=8 n=61 v=0
122400 On ch=8 n=60 v=127
122421 On ch=8 n=60 v=0
122432 On ch=8 n=59 v=127
122453 On ch=8 n=59 v=0
122464 On ch=8 n=58 v=127
122485 On ch=8 n=58 v=0
122496 On ch=8 n=57 v=127
122528 On ch=8 n=57 v=0
122528 On ch=8 n=56 v=127
122560 On ch=8 n=56 v=0
122560 On ch=8 n=55 v=127
122592 On ch=8 n=55 v=0
122592 On ch=8 n=54 v=127
122624 On ch=8 n=54 v=0
122624 On ch=8 n=53 v=127
122656 On ch=8 n=53 v=0
122656 On ch=8 n=52 v=127
122688 On ch=8 n=52 v=0
122688 On ch=8 n=51 v=127
122720 On ch=8 n=51 v=0
122720 On ch=8 n=50 v=127
122752 On ch=8 n=50 v=0
122752 On ch=8 n=49 v=127
122784 On ch=8 n=49 v=0
122784 On ch=8 n=48 v=127
122816 On ch=8 n=48 v=0
122816 On ch=8 n=46 v=127
122848 On ch=8 n=46 v=0
122848 On ch=8 n=45 v=127
122880 On ch=8 n=45 v=0
122880 On ch=8 n=43 v=127
122918 On ch=8 n=43 v=0
123264 On ch=8 n=43 v=95
123571 On ch=8 n=43 v=0
124032 On ch=8 n=43 v=95
124339 On ch=8 n=43 v=0
125952 On ch=8 n=67 v=111
125978 On ch=8 n=67 v=0
125984 On ch=8 n=66 v=111
126010 On ch=8 n=66 v=0
126016 On ch=8 n=65 v=111
126042 On ch=8 n=65 v=0
126048 On ch=8 n=63 v=111
126074 On ch=8 n=63 v=0
126080 On ch=8 n=62 v=111
126106 On ch=8 n=62 v=0
126112 On ch=8 n=60 v=111
126138 On ch=8 n=60 v=0
126144 On ch=8 n=59 v=111
126170 On ch=8 n=59 v=0
126176 On ch=8 n=56 v=111
126202 On ch=8 n=56 v=0
126208 On ch=8 n=55 v=111
126234 On ch=8 n=55 v=0
126240 On ch=8 n=53 v=111
126266 On ch=8 n=53 v=0
126272 On ch=8 n=51 v=111
126298 On ch=8 n=51 v=0
126304 On ch=8 n=50 v=111
126330 On ch=8 n=50 v=0
126336 On ch=8 n=48 v=127
126367 On ch=8 n=48 v=0
126384 On ch=8 n=36 v=127
126415 On ch=8 n=36 v=0
134016 On ch=8 n=63 v=95
134016 On ch=8 n=60 v=95
134072 Par ch=8 c=11 v=16
134080 Par ch=8 c=11 v=17
134088 Par ch=8 c=11 v=18
134092 Par ch=8 c=11 v=19
134100 Par ch=8 c=11 v=20
134108 Par ch=8 c=11 v=21
134112 Par ch=8 c=11 v=22
134120 Par ch=8 c=11 v=23
134128 Par ch=8 c=11 v=24
134136 Par ch=8 c=11 v=25
134140 Par ch=8 c=11 v=26
134148 Par ch=8 c=11 v=27
134156 Par ch=8 c=11 v=28
134160 Par ch=8 c=11 v=29
134168 Par ch=8 c=11 v=30
134176 Par ch=8 c=11 v=31
134184 Par ch=8 c=11 v=32
134188 Par ch=8 c=11 v=33
134196 Par ch=8 c=11 v=34
134204 Par ch=8 c=11 v=35
134208 Par ch=8 c=11 v=36
134216 Par ch=8 c=11 v=37
134224 Par ch=8 c=11 v=38
134232 Par ch=8 c=11 v=39
134236 Par ch=8 c=11 v=40
134244 Par ch=8 c=11 v=41
134252 Par ch=8 c=11 v=42
134256 Par ch=8 c=11 v=43
134264 Par ch=8 c=11 v=44
134272 Par ch=8 c=11 v=45
134280 Par ch=8 c=11 v=46
134284 Par ch=8 c=11 v=47
134292 Par ch=8 c=11 v=48
134300 Par ch=8 c=11 v=49
134304 Par ch=8 c=11 v=50
134312 Par ch=8 c=11 v=51
134320 Par ch=8 c=11 v=52
134328 Par ch=8 c=11 v=53
134332 Par ch=8 c=11 v=54
134340 Par ch=8 c=11 v=55
134348 Par ch=8 c=11 v=56
134352 Par ch=8 c=11 v=57
134360 Par ch=8 c=11 v=58
134368 Par ch=8 c=11 v=59
134376 Par ch=8 c=11 v=60
134380 Par ch=8 c=11 v=61
134388 Par ch=8 c=11 v=62
134396 Par ch=8 c=11 v=63
134477 On ch=8 n=60 v=0
134477 On ch=8 n=63 v=0
134784 On ch=8 n=48 v=47
134822 On ch=8 n=48 v=0
134856 On ch=8 n=43 v=47
134875 On ch=8 n=43 v=0
134880 On ch=8 n=36 v=47
134918 On ch=8 n=36 v=0
135168 On ch=8 n=48 v=79
135206 On ch=8 n=48 v=0
135240 On ch=8 n=43 v=79
135259 On ch=8 n=43 v=0
135264 On ch=8 n=36 v=79
135302 On ch=8 n=36 v=0
135392 Par ch=8 c=11 v=64
135404 Par ch=8 c=11 v=65
135412 Par ch=8 c=11 v=66
135424 Par ch=8 c=11 v=67
135424 On ch=8 n=48 v=95
135424 On ch=8 n=36 v=95
135432 Par ch=8 c=11 v=68
135440 Par ch=8 c=11 v=69
135445 On ch=8 n=36 v=0
135445 On ch=8 n=48 v=0
135452 Par ch=8 c=11 v=70
135456 On ch=8 n=55 v=95
135456 On ch=8 n=43 v=95
135460 Par ch=8 c=11 v=71
135468 Par ch=8 c=11 v=72
135477 On ch=8 n=43 v=0
135477 On ch=8 n=55 v=0
135480 Par ch=8 c=11 v=73
135488 Par ch=8 c=11 v=74
135488 On ch=8 n=58 v=95
135488 On ch=8 n=46 v=95
135496 Par ch=8 c=11 v=75
135508 Par ch=8 c=11 v=76
135509 On ch=8 n=46 v=0
135509 On ch=8 n=58 v=0
135516 Par ch=8 c=11 v=77
135520 On ch=8 n=61 v=95
135520 On ch=8 n=49 v=95
135524 Par ch=8 c=11 v=78
135536 Par ch=8 c=11 v=79
135541 On ch=8 n=49 v=0
135541 On ch=8 n=61 v=0
135544 Par ch=8 c=11 v=80
135552 Par ch=8 c=11 v=64
135552 On ch=8 n=48 v=111
135552 On ch=8 n=60 v=111
135583 On ch=8 n=60 v=0
135583 On ch=8 n=48 v=0
135624 On ch=8 n=46 v=111
135624 On ch=8 n=58 v=111
135640 On ch=8 n=58 v=0
135640 On ch=8 n=46 v=0
135648 On ch=8 n=44 v=111
135648 On ch=8 n=56 v=111
135679 On ch=8 n=56 v=0
135679 On ch=8 n=44 v=0
135720 On ch=8 n=43 v=111
135720 On ch=8 n=55 v=111
135736 On ch=8 n=55 v=0
135736 On ch=8 n=43 v=0
135744 On ch=8 n=41 v=111
135744 On ch=8 n=53 v=111
135775 On ch=8 n=53 v=0
135775 On ch=8 n=41 v=0
135816 On ch=8 n=39 v=111
135816 On ch=8 n=51 v=111
135832 On ch=8 n=51 v=0
135832 On ch=8 n=39 v=0
135840 On ch=8 n=37 v=111
135840 On ch=8 n=49 v=111
135871 On ch=8 n=49 v=0
135871 On ch=8 n=37 v=0
135912 On ch=8 n=36 v=111
135912 On ch=8 n=48 v=111
135928 On ch=8 n=48 v=0
135928 On ch=8 n=36 v=0
135936 On ch=8 n=44 v=111
135936 On ch=8 n=56 v=111
135967 On ch=8 n=56 v=0
135967 On ch=8 n=44 v=0
136008 On ch=8 n=43 v=111
136008 On ch=8 n=55 v=111
136024 On ch=8 n=55 v=0
136024 On ch=8 n=43 v=0
136032 On ch=8 n=41 v=111
136032 On ch=8 n=53 v=111
136063 On ch=8 n=53 v=0
136063 On ch=8 n=41 v=0
136104 On ch=8 n=39 v=111
136104 On ch=8 n=51 v=111
136120 On ch=8 n=51 v=0
136120 On ch=8 n=39 v=0
136128 On ch=8 n=49 v=111
136159 On ch=8 n=49 v=0
136200 On ch=8 n=48 v=111
136216 On ch=8 n=48 v=0
136224 On ch=8 n=46 v=111
136255 On ch=8 n=46 v=0
136296 On ch=8 n=44 v=111
136312 On ch=8 n=44 v=0
136320 On ch=8 n=43 v=111
136368 Par ch=8 c=11 v=32
136704 Par ch=8 c=11 v=32
136712 Par ch=8 c=11 v=33
136720 Par ch=8 c=11 v=34
136728 Par ch=8 c=11 v=35
136736 Par ch=8 c=11 v=36
136744 Par ch=8 c=11 v=37
136752 Par ch=8 c=11 v=38
136760 Par ch=8 c=11 v=39
136768 Par ch=8 c=11 v=40
136776 Par ch=8 c=11 v=41
136784 Par ch=8 c=11 v=42
136792 Par ch=8 c=11 v=43
136800 Par ch=8 c=11 v=44
136808 Par ch=8 c=11 v=45
136816 Par ch=8 c=11 v=46
136824 Par ch=8 c=11 v=47
136832 Par ch=8 c=11 v=48
136840 Par ch=8 c=11 v=49
136848 Par ch=8 c=11 v=50
136856 Par ch=8 c=11 v=51
136864 Par ch=8 c=11 v=52
136872 Par ch=8 c=11 v=53
136880 Par ch=8 c=11 v=54
136888 Par ch=8 c=11 v=55
136896 Par ch=8 c=11 v=56
136900 Par ch=8 c=11 v=57
136908 Par ch=8 c=11 v=58
136916 Par ch=8 c=11 v=59
136924 Par ch=8 c=11 v=60
136932 Par ch=8 c=11 v=61
136940 Par ch=8 c=11 v=62
136948 Par ch=8 c=11 v=63
136956 Par ch=8 c=11 v=64
136964 Par ch=8 c=11 v=65
136972 Par ch=8 c=11 v=66
136980 Par ch=8 c=11 v=67
136988 Par ch=8 c=11 v=68
136996 Par ch=8 c=11 v=69
137004 Par ch=8 c=11 v=70
137012 Par ch=8 c=11 v=71
137020 Par ch=8 c=11 v=72
137028 Par ch=8 c=11 v=73
137036 Par ch=8 c=11 v=74
137044 Par ch=8 c=11 v=75
137052 Par ch=8 c=11 v=76
137060 Par ch=8 c=11 v=77
137068 Par ch=8 c=11 v=78
137076 Par ch=8 c=11 v=79
137084 Par ch=8 c=11 v=80
137088 On ch=8 n=43 v=0
137088 Par ch=8 c=11 v=64
137088 On ch=8 n=48 v=127
137126 On ch=8 n=48 v=0
137760 On ch=8 n=63 v=79
137798 On ch=8 n=63 v=0
137808 On ch=8 n=62 v=63
137846 On ch=8 n=62 v=0
137856 On ch=8 n=62 v=47
137904 On ch=8 n=62 v=0
137904 On ch=8 n=60 v=47
137942 On ch=8 n=60 v=0
137952 On ch=8 n=62 v=47
137990 On ch=8 n=62 v=0
138000 On ch=8 n=63 v=47
138038 On ch=8 n=63 v=0
138048 Par ch=8 c=11 v=64
138048 On ch=8 n=65 v=47
138060 Par ch=8 c=11 v=65
138072 Par ch=8 c=11 v=66
138084 Par ch=8 c=11 v=67
138086 On ch=8 n=65 v=0
138096 Par ch=8 c=11 v=68
138096 On ch=8 n=63 v=47
138108 Par ch=8 c=11 v=69
138116 Par ch=8 c=11 v=70
138128 Par ch=8 c=11 v=71
138134 On ch=8 n=63 v=0
138140 Par ch=8 c=11 v=72
138144 On ch=8 n=65 v=47
138152 Par ch=8 c=11 v=73
138164 Par ch=8 c=11 v=74
138176 Par ch=8 c=11 v=75
138184 Par ch=8 c=11 v=76
138192 On ch=8 n=65 v=0
138192 On ch=8 n=67 v=47
138196 Par ch=8 c=11 v=77
138208 Par ch=8 c=11 v=78
138220 Par ch=8 c=11 v=79
138230 On ch=8 n=67 v=0
138232 Par ch=8 c=11 v=80
138240 Par ch=8 c=11 v=80
138240 On ch=8 n=70 v=47
138248 Par ch=8 c=11 v=79
138252 Par ch=8 c=11 v=78
138260 Par ch=8 c=11 v=77
138264 Par ch=8 c=11 v=76
138272 Par ch=8 c=11 v=75
138276 Par ch=8 c=11 v=74
138284 Par ch=8 c=11 v=73
138288 Par ch=8 c=11 v=72
138296 Par ch=8 c=11 v=71
138300 Par ch=8 c=11 v=70
138308 Par ch=8 c=11 v=69
138312 Par ch=8 c=11 v=68
138320 Par ch=8 c=11 v=67
138324 Par ch=8 c=11 v=66
138332 Par ch=8 c=11 v=65
138336 On ch=8 n=70 v=0
138336 Par ch=8 c=11 v=64
138336 On ch=8 n=68 v=47
138413 On ch=8 n=68 v=0
140544 Par ch=8 c=11 v=64
140544 On ch=8 n=52 v=15
140544 On ch=8 n=45 v=15
140592 Par ch=8 c=11 v=63
140636 Par ch=8 c=11 v=62
140680 Par ch=8 c=11 v=61
140728 Par ch=8 c=11 v=60
140772 Par ch=8 c=11 v=59
140816 Par ch=8 c=11 v=58
140864 Par ch=8 c=11 v=57
140908 Par ch=8 c=11 v=56
140952 Par ch=8 c=11 v=55
140996 Par ch=8 c=11 v=54
141044 Par ch=8 c=11 v=53
141088 Par ch=8 c=11 v=52
141132 Par ch=8 c=11 v=51
141180 Par ch=8 c=11 v=50
141224 Par ch=8 c=11 v=49
141268 Par ch=8 c=11 v=48
141389 On ch=8 n=45 v=0
141389 On ch=8 n=52 v=0
141696 Par ch=8 c=11 v=64
142080 On ch=8 n=47 v=15
142080 On ch=8 n=40 v=15
142925 On ch=8 n=40 v=0
142925 On ch=8 n=47 v=0
156672 Par ch=8 c=11 v=64
156672 On ch=8 n=62 v=47
156676 Par ch=8 c=11 v=65
156680 Par ch=8 c=11 v=66
156684 Par ch=8 c=11 v=68
156688 Par ch=8 c=11 v=69
156692 Par ch=8 c=11 v=71
156696 Par ch=8 c=11 v=72
156700 Par ch=8 c=11 v=73
156704 Par ch=8 c=11 v=75
156708 Par ch=8 c=11 v=76
156712 Par ch=8 c=11 v=78
156716 Par ch=8 c=11 v=79
156720 Par ch=8 c=11 v=79
156724 Par ch=8 c=11 v=78
156728 Par ch=8 c=11 v=77
156732 Par ch=8 c=11 v=76
156736 Par ch=8 c=11 v=74
156740 Par ch=8 c=11 v=73
156744 Par ch=8 c=11 v=72
156748 Par ch=8 c=11 v=71
156752 Par ch=8 c=11 v=69
156756 Par ch=8 c=11 v=68
156760 Par ch=8 c=11 v=67
156764 Par ch=8 c=11 v=66
156768 Par ch=8 c=11 v=64
156826 On ch=8 n=62 v=0
156864 Par ch=8 c=11 v=64
156864 On ch=8 n=65 v=47
156868 Par ch=8 c=11 v=65
156872 Par ch=8 c=11 v=66
156876 Par ch=8 c=11 v=68
156880 Par ch=8 c=11 v=69
156884 Par ch=8 c=11 v=71
156888 Par ch=8 c=11 v=72
156892 Par ch=8 c=11 v=73
156896 Par ch=8 c=11 v=75
156900 Par ch=8 c=11 v=76
156904 Par ch=8 c=11 v=78
156908 Par ch=8 c=11 v=79
156912 Par ch=8 c=11 v=79
156916 Par ch=8 c=11 v=78
156920 Par ch=8 c=11 v=77
156924 Par ch=8 c=11 v=76
156928 Par ch=8 c=11 v=74
156932 Par ch=8 c=11 v=73
156936 Par ch=8 c=11 v=72
156940 Par ch=8 c=11 v=71
156944 Par ch=8 c=11 v=69
156948 Par ch=8 c=11 v=68
156952 Par ch=8 c=11 v=67
156956 Par ch=8 c=11 v=66
156960 Par ch=8 c=11 v=64
156979 On ch=8 n=65 v=0
157008 On ch=8 n=63 v=47
157039 On ch=8 n=63 v=0
157056 On ch=8 n=62 v=47
157286 On ch=8 n=62 v=0
157344 On ch=8 n=68 v=47
157421 On ch=8 n=68 v=0
157440 On ch=8 n=67 v=47
157517 On ch=8 n=67 v=0
157536 On ch=8 n=62 v=47
157594 On ch=8 n=62 v=0
157608 On ch=8 n=63 v=47
157624 On ch=8 n=63 v=0
157632 On ch=8 n=65 v=47
157709 On ch=8 n=65 v=0
157728 On ch=8 n=68 v=47
157805 On ch=8 n=68 v=0
157824 On ch=8 n=67 v=47
157862 On ch=8 n=67 v=0
158208 Par ch=8 c=11 v=64
158208 On ch=8 n=73 v=47
158220 Par ch=8 c=11 v=65
158232 Par ch=8 c=11 v=66
158244 Par ch=8 c=11 v=67
158256 Par ch=8 c=11 v=68
158268 Par ch=8 c=11 v=69
158276 Par ch=8 c=11 v=70
158288 Par ch=8 c=11 v=71
158300 Par ch=8 c=11 v=72
158312 Par ch=8 c=11 v=73
158324 Par ch=8 c=11 v=74
158336 Par ch=8 c=11 v=75
158344 Par ch=8 c=11 v=76
158356 Par ch=8 c=11 v=77
158368 Par ch=8 c=11 v=78
158380 Par ch=8 c=11 v=79
158392 Par ch=8 c=11 v=80
158400 Par ch=8 c=11 v=80
158412 Par ch=8 c=11 v=79
158424 Par ch=8 c=11 v=78
158432 Par ch=8 c=11 v=77
158438 On ch=8 n=73 v=0
158444 Par ch=8 c=11 v=76
158456 Par ch=8 c=11 v=75
158464 Par ch=8 c=11 v=74
158476 Par ch=8 c=11 v=73
158488 Par ch=8 c=11 v=72
158496 Par ch=8 c=11 v=71
158496 On ch=8 n=72 v=47
158508 Par ch=8 c=11 v=70
158520 Par ch=8 c=11 v=69
158528 Par ch=8 c=11 v=68
158540 Par ch=8 c=11 v=67
158552 Par ch=8 c=11 v=66
158560 Par ch=8 c=11 v=65
158572 Par ch=8 c=11 v=64
158573 On ch=8 n=72 v=0
158592 Par ch=8 c=11 v=64
158592 On ch=8 n=70 v=47
158600 Par ch=8 c=11 v=65
158604 Par ch=8 c=11 v=66
158612 Par ch=8 c=11 v=67
158616 Par ch=8 c=11 v=68
158624 Par ch=8 c=11 v=69
158628 Par ch=8 c=11 v=70
158636 Par ch=8 c=11 v=71
158640 Par ch=8 c=11 v=72
158648 Par ch=8 c=11 v=73
158652 Par ch=8 c=11 v=74
158660 Par ch=8 c=11 v=75
158664 Par ch=8 c=11 v=76
158672 Par ch=8 c=11 v=77
158676 Par ch=8 c=11 v=78
158684 Par ch=8 c=11 v=79
158688 Par ch=8 c=11 v=80
158696 Par ch=8 c=11 v=81
158700 Par ch=8 c=11 v=82
158708 Par ch=8 c=11 v=83
158712 Par ch=8 c=11 v=84
158720 Par ch=8 c=11 v=85
158724 Par ch=8 c=11 v=86
158732 Par ch=8 c=11 v=87
158736 Par ch=8 c=11 v=88
158744 Par ch=8 c=11 v=89
158748 Par ch=8 c=11 v=90
158756 Par ch=8 c=11 v=91
158760 Par ch=8 c=11 v=92
158768 Par ch=8 c=11 v=93
158772 Par ch=8 c=11 v=94
158780 Par ch=8 c=11 v=95
158784 Par ch=8 c=11 v=96
158792 Par ch=8 c=11 v=97
158796 Par ch=8 c=11 v=98
158804 Par ch=8 c=11 v=99
158808 Par ch=8 c=11 v=100
158816 Par ch=8 c=11 v=101
158820 Par ch=8 c=11 v=102
158822 On ch=8 n=70 v=0
158828 Par ch=8 c=11 v=103
158832 Par ch=8 c=11 v=104
158840 Par ch=8 c=11 v=105
158844 Par ch=8 c=11 v=106
158852 Par ch=8 c=11 v=107
158856 Par ch=8 c=11 v=108
158864 Par ch=8 c=11 v=109
158868 Par ch=8 c=11 v=110
158876 Par ch=8 c=11 v=111
158880 Par ch=8 c=11 v=112
158880 On ch=8 n=68 v=47
158918 On ch=8 n=68 v=0
158928 On ch=8 n=67 v=47
158966 On ch=8 n=67 v=0
158976 Par ch=8 c=11 v=64
158976 On ch=8 n=66 v=95
159206 On ch=8 n=66 v=0
159264 On ch=8 n=65 v=95
159341 On ch=8 n=65 v=0
159360 Par ch=8 c=11 v=64
159360 On ch=8 n=63 v=95
159384 Par ch=8 c=11 v=65
159408 Par ch=8 c=11 v=66
159428 Par ch=8 c=11 v=67
159452 Par ch=8 c=11 v=68
159476 Par ch=8 c=11 v=69
159496 Par ch=8 c=11 v=70
159520 Par ch=8 c=11 v=71
159544 Par ch=8 c=11 v=72
159564 Par ch=8 c=11 v=73
159588 Par ch=8 c=11 v=74
159590 On ch=8 n=63 v=0
159612 Par ch=8 c=11 v=75
159632 Par ch=8 c=11 v=76
159648 On ch=8 n=62 v=95
159656 Par ch=8 c=11 v=77
159680 Par ch=8 c=11 v=78
159686 On ch=8 n=62 v=0
159696 On ch=8 n=60 v=95
159700 Par ch=8 c=11 v=79
159724 Par ch=8 c=11 v=80
159734 On ch=8 n=60 v=0
159744 Par ch=8 c=11 v=64
159744 On ch=8 n=59 v=111
160128 Par ch=8 c=11 v=64
160152 Par ch=8 c=11 v=65
160176 Par ch=8 c=11 v=66
160196 Par ch=8 c=11 v=67
160220 Par ch=8 c=11 v=68
160244 Par ch=8 c=11 v=69
160264 Par ch=8 c=11 v=70
160288 Par ch=8 c=11 v=71
160312 Par ch=8 c=11 v=72
160332 Par ch=8 c=11 v=73
160356 Par ch=8 c=11 v=74
160380 Par ch=8 c=11 v=75
160400 Par ch=8 c=11 v=76
160424 Par ch=8 c=11 v=77
160448 Par ch=8 c=11 v=78
160468 Par ch=8 c=11 v=79
160492 Par ch=8 c=11 v=80
160512 On ch=8 n=59 v=0
160512 On ch=8 n=60 v=111
160550 On ch=8 n=60 v=0
161280 Par ch=8 c=11 v=64
165216 On ch=8 n=58 v=47
165216 On ch=8 n=55 v=47
165216 On ch=8 n=52 v=47
165370 On ch=8 n=52 v=0
165370 On ch=8 n=55 v=0
165370 On ch=8 n=58 v=0
165600 On ch=8 n=58 v=47
165600 On ch=8 n=55 v=47
165600 On ch=8 n=52 v=47
165754 On ch=8 n=52 v=0
165754 On ch=8 n=55 v=0
165754 On ch=8 n=58 v=0
168000 On ch=8 n=52 v=31
168000 On ch=8 n=48 v=31
168154 On ch=8 n=48 v=0
168154 On ch=8 n=52 v=0
168384 On ch=8 n=52 v=31
168384 On ch=8 n=48 v=31
168538 On ch=8 n=48 v=0
168538 On ch=8 n=52 v=0
169344 On ch=8 n=60 v=111
169357 On ch=8 n=60 v=0
169376 On ch=8 n=59 v=111
169389 On ch=8 n=59 v=0
169408 On ch=8 n=58 v=111
169421 On ch=8 n=58 v=0
169440 On ch=8 n=57 v=111
169453 On ch=8 n=57 v=0
169472 On ch=8 n=56 v=111
169485 On ch=8 n=56 v=0
169504 On ch=8 n=55 v=111
169517 On ch=8 n=55 v=0
169536 On ch=8 n=54 v=111
169549 On ch=8 n=54 v=0
169568 On ch=8 n=53 v=111
169581 On ch=8 n=53 v=0
169600 On ch=8 n=52 v=111
169613 On ch=8 n=52 v=0
169632 On ch=8 n=51 v=111
169645 On ch=8 n=51 v=0
169664 On ch=8 n=50 v=111
169677 On ch=8 n=50 v=0
169696 On ch=8 n=49 v=111
169709 On ch=8 n=49 v=0
169728 On ch=8 n=48 v=111
169741 On ch=8 n=48 v=0
169760 On ch=8 n=47 v=111
169773 On ch=8 n=47 v=0
169792 On ch=8 n=46 v=111
169805 On ch=8 n=46 v=0
169824 On ch=8 n=45 v=111
169837 On ch=8 n=45 v=0
169856 On ch=8 n=44 v=111
169869 On ch=8 n=44 v=0
169888 On ch=8 n=43 v=111
169901 On ch=8 n=43 v=0
169920 On ch=8 n=42 v=111
169933 On ch=8 n=42 v=0
169952 On ch=8 n=41 v=111
169965 On ch=8 n=41 v=0
169984 On ch=8 n=40 v=111
169997 On ch=8 n=40 v=0
170016 On ch=8 n=39 v=111
170029 On ch=8 n=39 v=0
170048 On ch=8 n=38 v=111
170061 On ch=8 n=38 v=0
170080 On ch=8 n=37 v=111
170093 On ch=8 n=37 v=0
170112 On ch=8 n=36 v=111
170150 On ch=8 n=36 v=0
170496 On ch=8 n=36 v=31
170534 On ch=8 n=36 v=0
170534 Meta TrkEnd
TrkEnd
MTrk
0 Meta 0x21 00
0 Meta TrkName "CONTRA BASSOON"
192 Par ch=9 c=1 v=8
196 Par ch=9 c=7 v=127
200 Par ch=9 c=10 v=100
204 Par ch=9 c=11 v=64
208 Par ch=9 c=91 v=112
212 Par ch=9 c=93 v=32
216 Par ch=9 c=0 v=0
216 Par ch=9 c=32 v=0
216 PrCh ch=9 p=70
1920 Par ch=9 c=11 v=64
1920 On ch=9 n=48 v=79
1928 Par ch=9 c=11 v=63
1932 Par ch=9 c=11 v=62
1940 Par ch=9 c=11 v=61
1944 Par ch=9 c=11 v=60
1951 On ch=9 n=48 v=0
1952 Par ch=9 c=11 v=59
1956 Par ch=9 c=11 v=58
1964 Par ch=9 c=11 v=57
1968 Par ch=9 c=11 v=56
1976 Par ch=9 c=11 v=55
1980 Par ch=9 c=11 v=54
1988 Par ch=9 c=11 v=53
1992 Par ch=9 c=11 v=52
1992 On ch=9 n=43 v=79
2000 Par ch=9 c=11 v=51
2004 Par ch=9 c=11 v=50
2008 On ch=9 n=43 v=0
2012 Par ch=9 c=11 v=49
2016 Par ch=9 c=11 v=48
2016 On ch=9 n=36 v=79
2054 On ch=9 n=36 v=0
2304 Par ch=9 c=11 v=64
3840 Par ch=9 c=11 v=64
3840 On ch=9 n=43 v=63
3848 Par ch=9 c=11 v=63
3852 Par ch=9 c=11 v=62
3860 Par ch=9 c=11 v=61
3864 Par ch=9 c=11 v=60
3871 On ch=9 n=43 v=0
3872 Par ch=9 c=11 v=59
3876 Par ch=9 c=11 v=58
3884 Par ch=9 c=11 v=57
3888 Par ch=9 c=11 v=56
3896 Par ch=9 c=11 v=55
3900 Par ch=9 c=11 v=54
3908 Par ch=9 c=11 v=53
3912 Par ch=9 c=11 v=52
3912 On ch=9 n=38 v=63
3920 Par ch=9 c=11 v=51
3924 Par ch=9 c=11 v=50
3928 On ch=9 n=38 v=0
3932 Par ch=9 c=11 v=49
3936 Par ch=9 c=11 v=48
3936 On ch=9 n=31 v=63
3967 On ch=9 n=31 v=0
4224 Par ch=9 c=11 v=64
4224 On ch=9 n=43 v=63
4232 Par ch=9 c=11 v=63
4236 Par ch=9 c=11 v=62
4244 Par ch=9 c=11 v=61
4248 Par ch=9 c=11 v=60
4255 On ch=9 n=43 v=0
4256 Par ch=9 c=11 v=59
4260 Par ch=9 c=11 v=58
4268 Par ch=9 c=11 v=57
4272 Par ch=9 c=11 v=56
4280 Par ch=9 c=11 v=55
4284 Par ch=9 c=11 v=54
4292 Par ch=9 c=11 v=53
4296 Par ch=9 c=11 v=52
4296 On ch=9 n=38 v=63
4304 Par ch=9 c=11 v=51
4308 Par ch=9 c=11 v=50
4312 On ch=9 n=38 v=0
4316 Par ch=9 c=11 v=49
4320 Par ch=9 c=11 v=48
4320 On ch=9 n=31 v=63
4351 On ch=9 n=31 v=0
4512 Par ch=9 c=11 v=64
4512 On ch=9 n=44 v=63
4533 On ch=9 n=44 v=0
4544 On ch=9 n=41 v=63
4565 On ch=9 n=41 v=0
4576 On ch=9 n=50 v=63
4597 On ch=9 n=50 v=0
4992 On ch=9 n=44 v=63
5018 On ch=9 n=44 v=0
5024 On ch=9 n=41 v=63
5050 On ch=9 n=41 v=0
5056 On ch=9 n=50 v=63
5082 On ch=9 n=50 v=0
5376 Par ch=9 c=11 v=64
5376 On ch=9 n=43 v=63
5384 Par ch=9 c=11 v=63
5388 Par ch=9 c=11 v=62
5396 Par ch=9 c=11 v=61
5400 Par ch=9 c=11 v=60
5407 On ch=9 n=43 v=0
5408 Par ch=9 c=11 v=59
5412 Par ch=9 c=11 v=58
5416 Par ch=9 c=11 v=57
5424 Par ch=9 c=11 v=56
5428 Par ch=9 c=11 v=55
5436 Par ch=9 c=11 v=54
5440 Par ch=9 c=11 v=53
5444 Par ch=9 c=11 v=52
5448 On ch=9 n=38 v=63
5452 Par ch=9 c=11 v=51
5456 Par ch=9 c=11 v=50
5464 On ch=9 n=38 v=0
5464 Par ch=9 c=11 v=49
5468 Par ch=9 c=11 v=48
5472 On ch=9 n=31 v=63
5503 On ch=9 n=31 v=0
5760 Par ch=9 c=11 v=64
5760 On ch=9 n=43 v=63
5768 Par ch=9 c=11 v=63
5772 Par ch=9 c=11 v=62
5780 Par ch=9 c=11 v=61
5784 Par ch=9 c=11 v=60
5791 On ch=9 n=43 v=0
5792 Par ch=9 c=11 v=59
5796 Par ch=9 c=11 v=58
5804 Par ch=9 c=11 v=57
5808 Par ch=9 c=11 v=56
5816 Par ch=9 c=11 v=55
5820 Par ch=9 c=11 v=54
5828 Par ch=9 c=11 v=53
5832 Par ch=9 c=11 v=52
5832 On ch=9 n=38 v=63
5840 Par ch=9 c=11 v=51
5844 Par ch=9 c=11 v=50
5848 On ch=9 n=38 v=0
5852 Par ch=9 c=11 v=49
5856 Par ch=9 c=11 v=48
5856 On ch=9 n=31 v=63
5887 On ch=9 n=31 v=0
6000 Par ch=9 c=11 v=64
6000 On ch=9 n=30 v=63
6012 Par ch=9 c=11 v=63
6019 On ch=9 n=30 v=0
6020 Par ch=9 c=11 v=62
6024 On ch=9 n=31 v=63
6028 Par ch=9 c=11 v=61
6036 Par ch=9 c=11 v=60
6043 On ch=9 n=31 v=0
6044 Par ch=9 c=11 v=59
6048 On ch=9 n=32 v=63
6052 Par ch=9 c=11 v=58
6060 Par ch=9 c=11 v=57
6067 On ch=9 n=32 v=0
6068 Par ch=9 c=11 v=56
6072 On ch=9 n=31 v=63
6080 Par ch=9 c=11 v=55
6088 Par ch=9 c=11 v=54
6091 On ch=9 n=31 v=0
6096 Par ch=9 c=11 v=53
6096 On ch=9 n=29 v=63
6104 Par ch=9 c=11 v=52
6112 Par ch=9 c=11 v=51
6115 On ch=9 n=29 v=0
6120 Par ch=9 c=11 v=50
6120 On ch=9 n=26 v=63
6128 Par ch=9 c=11 v=49
6136 Par ch=9 c=11 v=48
6139 On ch=9 n=26 v=0
6528 Par ch=9 c=11 v=64
11136 On ch=9 n=43 v=47
11174 On ch=9 n=43 v=0
11208 On ch=9 n=38 v=47
11227 On ch=9 n=38 v=0
11232 On ch=9 n=31 v=47
11270 On ch=9 n=31 v=0
11520 On ch=9 n=43 v=47
11558 On ch=9 n=43 v=0
11592 On ch=9 n=38 v=47
11611 On ch=9 n=38 v=0
11616 On ch=9 n=31 v=47
11654 On ch=9 n=31 v=0
11904 On ch=9 n=36 v=47
11942 On ch=9 n=36 v=0
11976 On ch=9 n=31 v=47
11995 On ch=9 n=31 v=0
12000 On ch=9 n=36 v=47
12038 On ch=9 n=36 v=0
12072 On ch=9 n=31 v=47
12091 On ch=9 n=31 v=0
12096 On ch=9 n=36 v=47
12134 On ch=9 n=36 v=0
12240 On ch=9 n=31 v=47
12271 On ch=9 n=31 v=0
12288 On ch=9 n=36 v=47
12365 On ch=9 n=36 v=0
12432 On ch=9 n=31 v=47
12463 On ch=9 n=31 v=0
12480 On ch=9 n=36 v=47
12557 On ch=9 n=36 v=0
12624 On ch=9 n=31 v=47
12655 On ch=9 n=31 v=0
12672 On ch=9 n=36 v=47
12748 On ch=9 n=36 v=0
12864 On ch=9 n=36 v=47
12890 On ch=9 n=36 v=0
12896 On ch=9 n=31 v=47
12922 On ch=9 n=31 v=0
12928 On ch=9 n=36 v=47
12954 On ch=9 n=36 v=0
12960 On ch=9 n=31 v=47
12986 On ch=9 n=31 v=0
12992 On ch=9 n=36 v=47
13018 On ch=9 n=36 v=0
13024 On ch=9 n=31 v=47
13050 On ch=9 n=31 v=0
13056 On ch=9 n=36 v=47
13094 On ch=9 n=36 v=0
13128 On ch=9 n=43 v=47
13147 On ch=9 n=43 v=0
13152 On ch=9 n=48 v=47
13229 On ch=9 n=48 v=0
13296 On ch=9 n=46 v=47
13315 On ch=9 n=46 v=0
13320 On ch=9 n=44 v=47
13339 On ch=9 n=44 v=0
13344 On ch=9 n=43 v=47
13363 On ch=9 n=43 v=0
13368 On ch=9 n=41 v=47
13387 On ch=9 n=41 v=0
13392 On ch=9 n=39 v=47
13411 On ch=9 n=39 v=0
13416 On ch=9 n=38 v=47
13435 On ch=9 n=38 v=0
13440 On ch=9 n=36 v=47
13478 On ch=9 n=36 v=0
13512 On ch=9 n=31 v=47
13531 On ch=9 n=31 v=0
13536 On ch=9 n=36 v=47
13612 On ch=9 n=36 v=0
13664 Par ch=9 c=11 v=64
13664 On ch=9 n=31 v=47
13676 Par ch=9 c=11 v=65
13684 Par ch=9 c=11 v=66
13690 On ch=9 n=31 v=0
13692 Par ch=9 c=11 v=67
13696 On ch=9 n=36 v=47
13700 Par ch=9 c=11 v=68
13708 Par ch=9 c=11 v=69
13716 Par ch=9 c=11 v=70
13722 On ch=9 n=36 v=0
13728 Par ch=9 c=11 v=71
13728 On ch=9 n=31 v=47
13736 Par ch=9 c=11 v=72
13744 Par ch=9 c=11 v=73
13752 Par ch=9 c=11 v=74
13754 On ch=9 n=31 v=0
13760 Par ch=9 c=11 v=75
13760 On ch=9 n=36 v=47
13768 Par ch=9 c=11 v=76
13780 Par ch=9 c=11 v=77
13786 On ch=9 n=36 v=0
13788 Par ch=9 c=11 v=78
13792 On ch=9 n=31 v=47
13796 Par ch=9 c=11 v=79
13804 Par ch=9 c=11 v=80
13812 Par ch=9 c=11 v=81
13818 On ch=9 n=31 v=0
13820 Par ch=9 c=11 v=82
13824 On ch=9 n=36 v=47
13832 Par ch=9 c=11 v=83
13840 Par ch=9 c=11 v=84
13848 Par ch=9 c=11 v=85
13856 Par ch=9 c=11 v=86
13862 On ch=9 n=36 v=0
13864 Par ch=9 c=11 v=87
13872 Par ch=9 c=11 v=88
13880 Par ch=9 c=11 v=89
13892 Par ch=9 c=11 v=90
13896 On ch=9 n=43 v=47
13900 Par ch=9 c=11 v=91
13908 Par ch=9 c=11 v=92
13915 On ch=9 n=43 v=0
13916 Par ch=9 c=11 v=93
13920 On ch=9 n=48 v=47
13924 Par ch=9 c=11 v=94
13932 Par ch=9 c=11 v=95
13944 Par ch=9 c=11 v=96
13952 Par ch=9 c=11 v=97
13960 Par ch=9 c=11 v=98
13968 Par ch=9 c=11 v=99
13976 Par ch=9 c=11 v=100
13984 Par ch=9 c=11 v=101
13996 Par ch=9 c=11 v=102
13997 On ch=9 n=48 v=0
14004 Par ch=9 c=11 v=103
14012 Par ch=9 c=11 v=104
14020 Par ch=9 c=11 v=105
14028 Par ch=9 c=11 v=106
14036 Par ch=9 c=11 v=107
14044 Par ch=9 c=11 v=108
14048 On ch=9 n=43 v=47
14056 Par ch=9 c=11 v=109
14064 Par ch=9 c=11 v=110
14069 On ch=9 n=43 v=0
14072 Par ch=9 c=11 v=111
14080 Par ch=9 c=11 v=112
14080 On ch=9 n=48 v=47
14088 Par ch=9 c=11 v=113
14096 Par ch=9 c=11 v=114
14101 On ch=9 n=48 v=0
14108 Par ch=9 c=11 v=115
14112 On ch=9 n=43 v=47
14116 Par ch=9 c=11 v=116
14124 Par ch=9 c=11 v=117
14132 Par ch=9 c=11 v=118
14133 On ch=9 n=43 v=0
14140 Par ch=9 c=11 v=119
14144 On ch=9 n=46 v=47
14148 Par ch=9 c=11 v=120
14160 Par ch=9 c=11 v=121
14165 On ch=9 n=46 v=0
14168 Par ch=9 c=11 v=122
14176 Par ch=9 c=11 v=123
14176 On ch=9 n=49 v=47
14184 Par ch=9 c=11 v=124
14192 Par ch=9 c=11 v=125
14197 On ch=9 n=49 v=0
14200 Par ch=9 c=11 v=126
14208 Par ch=9 c=11 v=64
14208 On ch=9 n=48 v=111
14239 On ch=9 n=48 v=0
14280 On ch=9 n=46 v=111
14296 On ch=9 n=46 v=0
14304 On ch=9 n=44 v=111
14335 On ch=9 n=44 v=0
14376 On ch=9 n=43 v=111
14392 On ch=9 n=43 v=0
14400 On ch=9 n=41 v=111
14431 On ch=9 n=41 v=0
14472 On ch=9 n=39 v=111
14488 On ch=9 n=39 v=0
14496 On ch=9 n=37 v=111
14527 On ch=9 n=37 v=0
14568 On ch=9 n=36 v=111
14584 On ch=9 n=36 v=0
14592 On ch=9 n=44 v=111
14623 On ch=9 n=44 v=0
14664 On ch=9 n=43 v=111
14680 On ch=9 n=43 v=0
14688 On ch=9 n=41 v=111
14719 On ch=9 n=41 v=0
14760 On ch=9 n=39 v=111
14776 On ch=9 n=39 v=0
14784 On ch=9 n=37 v=111
14815 On ch=9 n=37 v=0
14856 On ch=9 n=36 v=111
14872 On ch=9 n=36 v=0
14880 On ch=9 n=34 v=111
14911 On ch=9 n=34 v=0
14952 On ch=9 n=32 v=111
14968 On ch=9 n=32 v=0
14976 On ch=9 n=31 v=111
15008 On ch=9 n=31 v=0
15072 On ch=9 n=55 v=111
15136 On ch=9 n=55 v=0
15168 On ch=9 n=54 v=111
15232 On ch=9 n=54 v=0
15264 On ch=9 n=53 v=111
15328 On ch=9 n=53 v=0
15360 On ch=9 n=52 v=111
15392 On ch=9 n=52 v=0
15456 On ch=9 n=51 v=111
15585 On ch=9 n=51 v=0
15648 On ch=9 n=50 v=111
15712 On ch=9 n=50 v=0
15744 On ch=9 n=36 v=111
15782 On ch=9 n=36 v=0
15840 On ch=9 n=36 v=111
15878 On ch=9 n=36 v=0
16000 On ch=9 n=36 v=111
16021 On ch=9 n=36 v=0
16032 On ch=9 n=36 v=111
16053 On ch=9 n=36 v=0
16064 On ch=9 n=36 v=111
16085 On ch=9 n=36 v=0
16096 On ch=9 n=36 v=111
16117 On ch=9 n=36 v=0
16128 On ch=9 n=36 v=111
16166 On ch=9 n=36 v=0
16224 On ch=9 n=36 v=111
16262 On ch=9 n=36 v=0
16384 On ch=9 n=36 v=111
16405 On ch=9 n=36 v=0
16416 On ch=9 n=36 v=111
16437 On ch=9 n=36 v=0
16448 On ch=9 n=36 v=111
16469 On ch=9 n=36 v=0
16480 On ch=9 n=36 v=111
16501 On ch=9 n=36 v=0
16512 On ch=9 n=36 v=111
16550 On ch=9 n=36 v=0
26880 On ch=9 n=36 v=95
26911 On ch=9 n=36 v=0
27264 On ch=9 n=34 v=95
27295 On ch=9 n=34 v=0
27648 On ch=9 n=33 v=95
27725 On ch=9 n=33 v=0
27744 On ch=9 n=34 v=95
27821 On ch=9 n=34 v=0
27840 On ch=9 n=33 v=95
27917 On ch=9 n=33 v=0
27936 On ch=9 n=34 v=95
28013 On ch=9 n=34 v=0
28032 On ch=9 n=33 v=95
28109 On ch=9 n=33 v=0
28128 On ch=9 n=34 v=95
28205 On ch=9 n=34 v=0
28224 On ch=9 n=33 v=95
28301 On ch=9 n=33 v=0
28320 On ch=9 n=34 v=95
28351 On ch=9 n=34 v=0
28368 On ch=9 n=33 v=95
28399 On ch=9 n=33 v=0
28416 On ch=9 n=32 v=95
28454 On ch=9 n=32 v=0
28992 On ch=9 n=41 v=47
29054 On ch=9 n=41 v=0
29088 On ch=9 n=39 v=47
29150 On ch=9 n=39 v=0
29184 Par ch=9 c=11 v=64
29184 On ch=9 n=44 v=47
29200 Par ch=9 c=11 v=65
29216 Par ch=9 c=11 v=66
29232 Par ch=9 c=11 v=67
29248 Par ch=9 c=11 v=68
29264 Par ch=9 c=11 v=69
29280 Par ch=9 c=11 v=70
29296 Par ch=9 c=11 v=71
29312 Par ch=9 c=11 v=72
29328 Par ch=9 c=11 v=73
29338 On ch=9 n=44 v=0
29344 Par ch=9 c=11 v=74
29360 Par ch=9 c=11 v=75
29376 Par ch=9 c=11 v=76
29376 On ch=9 n=41 v=47
29388 Par ch=9 c=11 v=77
29404 Par ch=9 c=11 v=78
29420 Par ch=9 c=11 v=79
29436 Par ch=9 c=11 v=80
29438 On ch=9 n=41 v=0
29452 Par ch=9 c=11 v=81
29468 Par ch=9 c=11 v=82
29472 On ch=9 n=39 v=47
29484 Par ch=9 c=11 v=83
29500 Par ch=9 c=11 v=84
29516 Par ch=9 c=11 v=85
29532 Par ch=9 c=11 v=86
29534 On ch=9 n=39 v=0
29548 Par ch=9 c=11 v=87
29564 Par ch=9 c=11 v=88
29568 On ch=9 n=44 v=47
29576 Par ch=9 c=11 v=89
29592 Par ch=9 c=11 v=90
29608 Par ch=9 c=11 v=91
29624 Par ch=9 c=11 v=92
29640 Par ch=9 c=11 v=93
29656 Par ch=9 c=11 v=94
29672 Par ch=9 c=11 v=95
29688 Par ch=9 c=11 v=96
29704 Par ch=9 c=11 v=97
29720 Par ch=9 c=11 v=98
29722 On ch=9 n=44 v=0
29736 Par ch=9 c=11 v=99
29752 Par ch=9 c=11 v=100
29760 On ch=9 n=41 v=47
29764 Par ch=9 c=11 v=101
29780 Par ch=9 c=11 v=102
29796 Par ch=9 c=11 v=103
29812 Par ch=9 c=11 v=104
29822 On ch=9 n=41 v=0
29828 Par ch=9 c=11 v=105
29844 Par ch=9 c=11 v=106
29856 On ch=9 n=39 v=47
29860 Par ch=9 c=11 v=107
29876 Par ch=9 c=11 v=108
29892 Par ch=9 c=11 v=109
29908 Par ch=9 c=11 v=110
29918 On ch=9 n=39 v=0
29924 Par ch=9 c=11 v=111
29940 Par ch=9 c=11 v=112
29952 Par ch=9 c=11 v=64
30144 Par ch=9 c=11 v=64
30144 On ch=9 n=32 v=47
30156 Par ch=9 c=11 v=65
30164 Par ch=9 c=11 v=66
30172 Par ch=9 c=11 v=67
30184 Par ch=9 c=11 v=68
30192 Par ch=9 c=11 v=69
30200 Par ch=9 c=11 v=70
30208 Par ch=9 c=11 v=71
30220 Par ch=9 c=11 v=72
30228 Par ch=9 c=11 v=73
30236 Par ch=9 c=11 v=74
30248 Par ch=9 c=11 v=75
30256 Par ch=9 c=11 v=76
30264 Par ch=9 c=11 v=77
30272 Par ch=9 c=11 v=78
30284 Par ch=9 c=11 v=79
30292 Par ch=9 c=11 v=80
30298 On ch=9 n=32 v=0
30300 Par ch=9 c=11 v=81
30312 Par ch=9 c=11 v=82
30320 Par ch=9 c=11 v=83
30328 Par ch=9 c=11 v=84
30336 Par ch=9 c=11 v=85
30336 On ch=9 n=31 v=47
30348 Par ch=9 c=11 v=86
30356 Par ch=9 c=11 v=87
30364 Par ch=9 c=11 v=88
30376 Par ch=9 c=11 v=89
30384 Par ch=9 c=11 v=90
30392 Par ch=9 c=11 v=91
30400 Par ch=9 c=11 v=92
30412 Par ch=9 c=11 v=93
30420 Par ch=9 c=11 v=94
30428 Par ch=9 c=11 v=95
30440 Par ch=9 c=11 v=96
30448 Par ch=9 c=11 v=97
30456 Par ch=9 c=11 v=98
30464 Par ch=9 c=11 v=99
30476 Par ch=9 c=11 v=100
30484 Par ch=9 c=11 v=101
30490 On ch=9 n=31 v=0
30492 Par ch=9 c=11 v=102
30504 Par ch=9 c=11 v=103
30512 Par ch=9 c=11 v=104
30520 Par ch=9 c=11 v=105
30528 Par ch=9 c=11 v=106
30528 On ch=9 n=30 v=47
30540 Par ch=9 c=11 v=107
30548 Par ch=9 c=11 v=108
30556 Par ch=9 c=11 v=109
30568 Par ch=9 c=11 v=110
30576 Par ch=9 c=11 v=111
30584 Par ch=9 c=11 v=112
30592 Par ch=9 c=11 v=113
30604 Par ch=9 c=11 v=114
30612 Par ch=9 c=11 v=115
30620 Par ch=9 c=11 v=116
30632 Par ch=9 c=11 v=117
30640 Par ch=9 c=11 v=118
30648 Par ch=9 c=11 v=119
30656 Par ch=9 c=11 v=120
30668 Par ch=9 c=11 v=121
30676 Par ch=9 c=11 v=122
30682 On ch=9 n=30 v=0
30684 Par ch=9 c=11 v=123
30696 Par ch=9 c=11 v=124
30704 Par ch=9 c=11 v=125
30712 Par ch=9 c=11 v=126
30720 On ch=9 n=31 v=63
30768 Par ch=9 c=11 v=64
32794 On ch=9 n=31 v=0
33024 On ch=9 n=31 v=47
33178 On ch=9 n=31 v=0
33408 On ch=9 n=31 v=111
33715 On ch=9 n=31 v=0
33792 On ch=9 n=24 v=111
34099 On ch=9 n=24 v=0
34176 Par ch=9 c=11 v=64
34176 On ch=9 n=26 v=95
34224 Par ch=9 c=11 v=32
34236 Par ch=9 c=11 v=33
34248 Par ch=9 c=11 v=34
34256 Par ch=9 c=11 v=35
34268 Par ch=9 c=11 v=36
34276 Par ch=9 c=11 v=37
34288 Par ch=9 c=11 v=38
34296 Par ch=9 c=11 v=39
34308 Par ch=9 c=11 v=40
34316 Par ch=9 c=11 v=41
34328 Par ch=9 c=11 v=42
34336 Par ch=9 c=11 v=43
34348 Par ch=9 c=11 v=44
34360 Par ch=9 c=11 v=45
34368 Par ch=9 c=11 v=46
34380 Par ch=9 c=11 v=47
34388 Par ch=9 c=11 v=48
34400 Par ch=9 c=11 v=49
34408 Par ch=9 c=11 v=50
34420 Par ch=9 c=11 v=51
34428 Par ch=9 c=11 v=52
34440 Par ch=9 c=11 v=53
34448 Par ch=9 c=11 v=54
34460 Par ch=9 c=11 v=55
34472 Par ch=9 c=11 v=56
34480 Par ch=9 c=11 v=57
34492 Par ch=9 c=11 v=58
34500 Par ch=9 c=11 v=59
34512 Par ch=9 c=11 v=60
34520 Par ch=9 c=11 v=61
34532 Par ch=9 c=11 v=62
34540 Par ch=9 c=11 v=63
34552 Par ch=9 c=11 v=64
34591 On ch=9 n=26 v=0
34632 On ch=9 n=40 v=95
34648 On ch=9 n=40 v=0
34656 On ch=9 n=42 v=95
34687 On ch=9 n=42 v=0
34728 On ch=9 n=43 v=95
34744 On ch=9 n=43 v=0
34752 On ch=9 n=45 v=95
34783 On ch=9 n=45 v=0
34824 On ch=9 n=46 v=95
34840 On ch=9 n=46 v=0
34848 On ch=9 n=48 v=95
34879 On ch=9 n=48 v=0
34920 On ch=9 n=50 v=95
34936 On ch=9 n=50 v=0
34944 On ch=9 n=38 v=95
34992 Par ch=9 c=11 v=32
35004 Par ch=9 c=11 v=33
35016 Par ch=9 c=11 v=34
35024 Par ch=9 c=11 v=35
35036 Par ch=9 c=11 v=36
35044 Par ch=9 c=11 v=37
35056 Par ch=9 c=11 v=38
35064 Par ch=9 c=11 v=39
35076 Par ch=9 c=11 v=40
35084 Par ch=9 c=11 v=41
35096 Par ch=9 c=11 v=42
35104 Par ch=9 c=11 v=43
35116 Par ch=9 c=11 v=44
35128 Par ch=9 c=11 v=45
35136 Par ch=9 c=11 v=46
35148 Par ch=9 c=11 v=47
35156 Par ch=9 c=11 v=48
35168 Par ch=9 c=11 v=49
35176 Par ch=9 c=11 v=50
35188 Par ch=9 c=11 v=51
35196 Par ch=9 c=11 v=52
35208 Par ch=9 c=11 v=53
35216 Par ch=9 c=11 v=54
35228 Par ch=9 c=11 v=55
35240 Par ch=9 c=11 v=56
35248 Par ch=9 c=11 v=57
35260 Par ch=9 c=11 v=58
35268 Par ch=9 c=11 v=59
35280 Par ch=9 c=11 v=60
35288 Par ch=9 c=11 v=61
35300 Par ch=9 c=11 v=62
35308 Par ch=9 c=11 v=63
35320 Par ch=9 c=11 v=64
35359 On ch=9 n=38 v=0
35400 On ch=9 n=40 v=95
35416 On ch=9 n=40 v=0
35424 On ch=9 n=42 v=95
35455 On ch=9 n=42 v=0
35496 On ch=9 n=43 v=95
35512 On ch=9 n=43 v=0
35520 On ch=9 n=45 v=95
35551 On ch=9 n=45 v=0
35592 On ch=9 n=46 v=95
35608 On ch=9 n=46 v=0
35712 Par ch=9 c=11 v=64
35712 On ch=9 n=38 v=95
35760 Par ch=9 c=11 v=32
35774 On ch=9 n=38 v=0
36096 Par ch=9 c=11 v=64
55680 On ch=9 n=28 v=31
56371 On ch=9 n=28 v=0
67200 On ch=9 n=50 v=111
67226 On ch=9 n=50 v=0
67232 On ch=9 n=49 v=111
67258 On ch=9 n=49 v=0
67264 On ch=9 n=47 v=111
67290 On ch=9 n=47 v=0
67296 On ch=9 n=45 v=111
67322 On ch=9 n=45 v=0
67328 On ch=9 n=43 v=111
67354 On ch=9 n=43 v=0
67360 On ch=9 n=42 v=111
67386 On ch=9 n=42 v=0
67392 On ch=9 n=40 v=111
67418 On ch=9 n=40 v=0
67424 On ch=9 n=38 v=111
67450 On ch=9 n=38 v=0
67456 On ch=9 n=36 v=111
67482 On ch=9 n=36 v=0
67488 On ch=9 n=34 v=111
67514 On ch=9 n=34 v=0
67520 On ch=9 n=33 v=111
67546 On ch=9 n=33 v=0
67552 On ch=9 n=31 v=111
67578 On ch=9 n=31 v=0
67584 On ch=9 n=30 v=111
67738 On ch=9 n=30 v=0
67776 On ch=9 n=34 v=95
67814 On ch=9 n=34 v=0
67872 On ch=9 n=33 v=95
67910 On ch=9 n=33 v=0
67968 On ch=9 n=38 v=95
68006 On ch=9 n=38 v=0
68064 On ch=9 n=30 v=95
68102 On ch=9 n=30 v=0
68160 On ch=9 n=34 v=95
68198 On ch=9 n=34 v=0
68256 On ch=9 n=33 v=95
68294 On ch=9 n=33 v=0
68352 On ch=9 n=38 v=111
68659 On ch=9 n=38 v=0
68736 On ch=9 n=37 v=95
68784 Par ch=9 c=11 v=32
70272 On ch=9 n=37 v=95
70272 On ch=9 n=37 v=95
70272 On ch=9 n=37 v=95
70579 On ch=9 n=37 v=0
70579 On ch=9 n=37 v=0
70579 On ch=9 n=37 v=0
70579 On ch=9 n=37 v=0
71040 Par ch=9 c=11 v=64
72576 On ch=9 n=26 v=47
72960 Par ch=9 c=11 v=80
73296 Par ch=9 c=11 v=32
73344 On ch=9 n=26 v=47
73344 On ch=9 n=26 v=47
73344 On ch=9 n=26 v=47
73651 On ch=9 n=26 v=0
73651 On ch=9 n=26 v=0
73651 On ch=9 n=26 v=0
73651 On ch=9 n=26 v=0
73728 Par ch=9 c=11 v=64
73728 On ch=9 n=26 v=95
74064 Par ch=9 c=11 v=32
74880 On ch=9 n=26 v=95
74880 On ch=9 n=26 v=95
74880 On ch=9 n=26 v=95
74888 Par ch=9 c=11 v=16
74896 Par ch=9 c=11 v=17
74904 Par ch=9 c=11 v=18
74912 Par ch=9 c=11 v=19
74920 Par ch=9 c=11 v=20
74928 Par ch=9 c=11 v=21
74936 Par ch=9 c=11 v=22
74944 Par ch=9 c=11 v=23
74952 Par ch=9 c=11 v=24
74960 Par ch=9 c=11 v=25
74968 Par ch=9 c=11 v=26
74976 Par ch=9 c=11 v=27
74980 Par ch=9 c=11 v=28
74988 Par ch=9 c=11 v=29
74996 Par ch=9 c=11 v=30
75004 Par ch=9 c=11 v=31
75012 Par ch=9 c=11 v=32
75020 Par ch=9 c=11 v=33
75028 Par ch=9 c=11 v=34
75036 Par ch=9 c=11 v=35
75044 Par ch=9 c=11 v=36
75052 Par ch=9 c=11 v=37
75060 Par ch=9 c=11 v=38
75068 Par ch=9 c=11 v=39
75072 Par ch=9 c=11 v=40
75080 Par ch=9 c=11 v=41
75088 Par ch=9 c=11 v=42
75096 Par ch=9 c=11 v=43
75104 Par ch=9 c=11 v=44
75112 Par ch=9 c=11 v=45
75120 Par ch=9 c=11 v=46
75128 Par ch=9 c=11 v=47
75136 Par ch=9 c=11 v=48
75144 Par ch=9 c=11 v=49
75152 Par ch=9 c=11 v=50
75160 Par ch=9 c=11 v=51
75168 Par ch=9 c=11 v=52
75172 Par ch=9 c=11 v=53
75180 Par ch=9 c=11 v=54
75187 On ch=9 n=26 v=0
75187 On ch=9 n=26 v=0
75187 On ch=9 n=26 v=0
75187 On ch=9 n=26 v=0
75188 Par ch=9 c=11 v=55
75196 Par ch=9 c=11 v=56
75204 Par ch=9 c=11 v=57
75212 Par ch=9 c=11 v=58
75220 Par ch=9 c=11 v=59
75228 Par ch=9 c=11 v=60
75236 Par ch=9 c=11 v=61
75244 Par ch=9 c=11 v=62
75252 Par ch=9 c=11 v=63
75260 Par ch=9 c=11 v=64
75360 Par ch=9 c=11 v=64
75360 On ch=9 n=38 v=100
75477 On ch=9 n=38 v=0
75488 On ch=9 n=38 v=100
75509 On ch=9 n=38 v=0
75520 On ch=9 n=38 v=100
75541 On ch=9 n=38 v=0
75552 On ch=9 n=38 v=100
75573 On ch=9 n=38 v=0
75584 On ch=9 n=38 v=100
75605 On ch=9 n=38 v=0
75616 On ch=9 n=38 v=100
75637 On ch=9 n=38 v=0
75648 On ch=9 n=38 v=100
75686 On ch=9 n=38 v=0
75720 On ch=9 n=38 v=100
75739 On ch=9 n=38 v=0
75744 On ch=9 n=38 v=100
75782 On ch=9 n=38 v=0
75816 On ch=9 n=38 v=100
75835 On ch=9 n=38 v=0
75840 On ch=9 n=38 v=100
75878 On ch=9 n=38 v=0
75912 On ch=9 n=38 v=100
75931 On ch=9 n=38 v=0
75936 On ch=9 n=38 v=100
75974 On ch=9 n=38 v=0
76008 On ch=9 n=38 v=100
76027 On ch=9 n=38 v=0
76032 On ch=9 n=50 v=100
76053 On ch=9 n=50 v=0
76064 On ch=9 n=49 v=100
76085 On ch=9 n=49 v=0
76096 On ch=9 n=48 v=100
76117 On ch=9 n=48 v=0
76128 On ch=9 n=44 v=100
76149 On ch=9 n=44 v=0
76160 On ch=9 n=43 v=100
76181 On ch=9 n=43 v=0
76192 On ch=9 n=42 v=100
76213 On ch=9 n=42 v=0
76224 On ch=9 n=50 v=100
76245 On ch=9 n=50 v=0
76256 On ch=9 n=49 v=100
76277 On ch=9 n=49 v=0
76288 On ch=9 n=48 v=100
76309 On ch=9 n=48 v=0
76320 On ch=9 n=44 v=100
76341 On ch=9 n=44 v=0
76352 On ch=9 n=43 v=100
76373 On ch=9 n=43 v=0
76384 On ch=9 n=42 v=100
76405 On ch=9 n=42 v=0
76416 On ch=9 n=50 v=100
76437 On ch=9 n=50 v=0
76448 On ch=9 n=49 v=100
76469 On ch=9 n=49 v=0
76480 On ch=9 n=48 v=100
76501 On ch=9 n=48 v=0
76512 On ch=9 n=44 v=100
76533 On ch=9 n=44 v=0
76544 On ch=9 n=43 v=100
76565 On ch=9 n=43 v=0
76576 On ch=9 n=42 v=100
76597 On ch=9 n=42 v=0
76608 On ch=9 n=38 v=100
76629 On ch=9 n=38 v=0
76640 On ch=9 n=37 v=100
76661 On ch=9 n=37 v=0
76672 On ch=9 n=36 v=100
76693 On ch=9 n=36 v=0
76704 On ch=9 n=32 v=100
76725 On ch=9 n=32 v=0
76736 On ch=9 n=31 v=100
76757 On ch=9 n=31 v=0
76768 On ch=9 n=30 v=100
76789 On ch=9 n=30 v=0
76800 On ch=9 n=37 v=127
77491 On ch=9 n=37 v=0
77568 On ch=9 n=37 v=127
78259 On ch=9 n=37 v=0
78336 On ch=9 n=37 v=79
78720 Par ch=9 c=11 v=64
78732 Par ch=9 c=11 v=63
78744 Par ch=9 c=11 v=62
78756 Par ch=9 c=11 v=61
78768 Par ch=9 c=11 v=60
78780 Par ch=9 c=11 v=59
78788 Par ch=9 c=11 v=58
78800 Par ch=9 c=11 v=57
78812 Par ch=9 c=11 v=56
78824 Par ch=9 c=11 v=55
78836 Par ch=9 c=11 v=54
78848 Par ch=9 c=11 v=53
78856 Par ch=9 c=11 v=52
78868 Par ch=9 c=11 v=51
78880 Par ch=9 c=11 v=50
78892 Par ch=9 c=11 v=49
78904 Par ch=9 c=11 v=48
78912 Par ch=9 c=11 v=47
78924 Par ch=9 c=11 v=46
78936 Par ch=9 c=11 v=45
78948 Par ch=9 c=11 v=44
78960 Par ch=9 c=11 v=43
78972 Par ch=9 c=11 v=42
78980 Par ch=9 c=11 v=41
78992 Par ch=9 c=11 v=40
79004 Par ch=9 c=11 v=39
79016 Par ch=9 c=11 v=38
79027 On ch=9 n=37 v=0
79028 Par ch=9 c=11 v=37
79040 Par ch=9 c=11 v=36
79048 Par ch=9 c=11 v=35
79060 Par ch=9 c=11 v=34
79072 Par ch=9 c=11 v=33
79084 Par ch=9 c=11 v=32
79104 On ch=9 n=36 v=79
79488 Par ch=9 c=11 v=32
79512 Par ch=9 c=11 v=31
79536 Par ch=9 c=11 v=30
79556 Par ch=9 c=11 v=29
79580 Par ch=9 c=11 v=28
79604 Par ch=9 c=11 v=27
79624 Par ch=9 c=11 v=26
79648 Par ch=9 c=11 v=25
79672 Par ch=9 c=11 v=24
79692 Par ch=9 c=11 v=23
79716 Par ch=9 c=11 v=22
79740 Par ch=9 c=11 v=21
79760 Par ch=9 c=11 v=20
79784 Par ch=9 c=11 v=19
79795 On ch=9 n=36 v=0
79808 Par ch=9 c=11 v=18
79828 Par ch=9 c=11 v=17
79852 Par ch=9 c=11 v=16
80256 Par ch=9 c=11 v=64
94656 On ch=9 n=22 v=111
95616 Par ch=9 c=11 v=64
95624 Par ch=9 c=11 v=63
95632 Par ch=9 c=11 v=62
95640 Par ch=9 c=11 v=61
95648 Par ch=9 c=11 v=60
95656 Par ch=9 c=11 v=59
95664 Par ch=9 c=11 v=58
95672 Par ch=9 c=11 v=57
95680 Par ch=9 c=11 v=56
95688 Par ch=9 c=11 v=55
95696 Par ch=9 c=11 v=54
95704 Par ch=9 c=11 v=53
95712 Par ch=9 c=11 v=52
95720 Par ch=9 c=11 v=51
95728 Par ch=9 c=11 v=50
95736 Par ch=9 c=11 v=49
95744 Par ch=9 c=11 v=48
95752 Par ch=9 c=11 v=47
95760 Par ch=9 c=11 v=46
95768 Par ch=9 c=11 v=45
95776 Par ch=9 c=11 v=44
95784 Par ch=9 c=11 v=43
95792 Par ch=9 c=11 v=42
95800 Par ch=9 c=11 v=41
95808 Par ch=9 c=11 v=40
95812 Par ch=9 c=11 v=39
95820 Par ch=9 c=11 v=38
95828 Par ch=9 c=11 v=37
95836 Par ch=9 c=11 v=36
95844 Par ch=9 c=11 v=35
95852 Par ch=9 c=11 v=34
95860 Par ch=9 c=11 v=33
95868 Par ch=9 c=11 v=32
95876 Par ch=9 c=11 v=31
95884 Par ch=9 c=11 v=30
95892 Par ch=9 c=11 v=29
95900 Par ch=9 c=11 v=28
95908 Par ch=9 c=11 v=27
95916 Par ch=9 c=11 v=26
95924 Par ch=9 c=11 v=25
95932 Par ch=9 c=11 v=24
95940 Par ch=9 c=11 v=23
95948 Par ch=9 c=11 v=22
95956 Par ch=9 c=11 v=21
95964 Par ch=9 c=11 v=20
95972 Par ch=9 c=11 v=19
95980 Par ch=9 c=11 v=18
95988 Par ch=9 c=11 v=17
95996 Par ch=9 c=11 v=16
96230 On ch=9 n=22 v=0
96768 Par ch=9 c=11 v=64
110280 On ch=9 n=39 v=100
110299 On ch=9 n=39 v=0
110304 On ch=9 n=44 v=100
110342 On ch=9 n=44 v=0
110376 On ch=9 n=43 v=100
110395 On ch=9 n=43 v=0
110400 On ch=9 n=41 v=100
110438 On ch=9 n=41 v=0
110472 On ch=9 n=39 v=100
110491 On ch=9 n=39 v=0
110496 On ch=9 n=37 v=100
110534 On ch=9 n=37 v=0
110568 On ch=9 n=35 v=100
110587 On ch=9 n=35 v=0
110592 On ch=9 n=34 v=100
110630 On ch=9 n=34 v=0
110664 On ch=9 n=36 v=100
110683 On ch=9 n=36 v=0
110688 On ch=9 n=38 v=100
110726 On ch=9 n=38 v=0
110760 On ch=9 n=39 v=100
110779 On ch=9 n=39 v=0
110784 On ch=9 n=41 v=100
110822 On ch=9 n=41 v=0
110856 On ch=9 n=42 v=100
110875 On ch=9 n=42 v=0
110880 On ch=9 n=44 v=100
110918 On ch=9 n=44 v=0
110952 On ch=9 n=46 v=100
110971 On ch=9 n=46 v=0
110976 On ch=9 n=35 v=100
111014 On ch=9 n=35 v=0
111048 On ch=9 n=37 v=100
111067 On ch=9 n=37 v=0
111072 On ch=9 n=39 v=100
111110 On ch=9 n=39 v=0
111144 On ch=9 n=41 v=100
111163 On ch=9 n=41 v=0
111168 On ch=9 n=43 v=100
111206 On ch=9 n=43 v=0
111240 On ch=9 n=44 v=100
111259 On ch=9 n=44 v=0
111264 On ch=9 n=46 v=100
111302 On ch=9 n=46 v=0
111336 On ch=9 n=47 v=100
111355 On ch=9 n=47 v=0
111360 On ch=9 n=44 v=100
111385 On ch=9 n=44 v=0
111392 On ch=9 n=43 v=100
111417 On ch=9 n=43 v=0
111424 On ch=9 n=44 v=100
111449 On ch=9 n=44 v=0
111456 On ch=9 n=47 v=100
111481 On ch=9 n=47 v=0
111488 On ch=9 n=46 v=100
111513 On ch=9 n=46 v=0
111520 On ch=9 n=47 v=100
111545 On ch=9 n=47 v=0
111552 On ch=9 n=40 v=100
111577 On ch=9 n=40 v=0
111584 On ch=9 n=39 v=100
111609 On ch=9 n=39 v=0
111616 On ch=9 n=40 v=100
111641 On ch=9 n=40 v=0
111648 On ch=9 n=45 v=100
111673 On ch=9 n=45 v=0
111680 On ch=9 n=44 v=100
111705 On ch=9 n=44 v=0
111712 On ch=9 n=45 v=100
111737 On ch=9 n=45 v=0
111744 On ch=9 n=34 v=111
112166 On ch=9 n=34 v=0
112416 On ch=9 n=46 v=111
112447 On ch=9 n=46 v=0
112512 On ch=9 n=34 v=111
112934 On ch=9 n=34 v=0
113184 On ch=9 n=46 v=111
113215 On ch=9 n=46 v=0
113280 On ch=9 n=46 v=111
113306 On ch=9 n=46 v=0
113312 On ch=9 n=45 v=111
113338 On ch=9 n=45 v=0
113344 On ch=9 n=44 v=111
113370 On ch=9 n=44 v=0
113376 On ch=9 n=42 v=111
113402 On ch=9 n=42 v=0
113408 On ch=9 n=41 v=111
113434 On ch=9 n=41 v=0
113440 On ch=9 n=40 v=111
113466 On ch=9 n=40 v=0
113472 On ch=9 n=39 v=111
113498 On ch=9 n=39 v=0
113504 On ch=9 n=37 v=111
113530 On ch=9 n=37 v=0
113536 On ch=9 n=35 v=111
113562 On ch=9 n=35 v=0
113568 On ch=9 n=34 v=111
113594 On ch=9 n=34 v=0
113600 On ch=9 n=33 v=111
113626 On ch=9 n=33 v=0
113632 On ch=9 n=34 v=111
113658 On ch=9 n=34 v=0
114048 On ch=9 n=34 v=111
114104 Par ch=9 c=11 v=16
114112 Par ch=9 c=11 v=17
114120 Par ch=9 c=11 v=18
114124 Par ch=9 c=11 v=19
114132 Par ch=9 c=11 v=20
114140 Par ch=9 c=11 v=21
114144 Par ch=9 c=11 v=22
114152 Par ch=9 c=11 v=23
114160 Par ch=9 c=11 v=24
114164 Par ch=9 c=11 v=25
114172 Par ch=9 c=11 v=26
114180 Par ch=9 c=11 v=27
114184 Par ch=9 c=11 v=28
114192 Par ch=9 c=11 v=29
114200 Par ch=9 c=11 v=30
114204 Par ch=9 c=11 v=31
114212 Par ch=9 c=11 v=32
114220 Par ch=9 c=11 v=33
114224 Par ch=9 c=11 v=34
114232 Par ch=9 c=11 v=35
114240 Par ch=9 c=11 v=36
114244 Par ch=9 c=11 v=37
114252 Par ch=9 c=11 v=38
114260 Par ch=9 c=11 v=39
114264 Par ch=9 c=11 v=40
114272 Par ch=9 c=11 v=41
114280 Par ch=9 c=11 v=42
114288 Par ch=9 c=11 v=43
114292 Par ch=9 c=11 v=44
114300 Par ch=9 c=11 v=45
114308 Par ch=9 c=11 v=46
114312 Par ch=9 c=11 v=47
114320 Par ch=9 c=11 v=48
114328 Par ch=9 c=11 v=49
114332 Par ch=9 c=11 v=50
114340 Par ch=9 c=11 v=51
114348 Par ch=9 c=11 v=52
114352 Par ch=9 c=11 v=53
114360 Par ch=9 c=11 v=54
114368 Par ch=9 c=11 v=55
114372 Par ch=9 c=11 v=56
114380 Par ch=9 c=11 v=57
114388 Par ch=9 c=11 v=58
114392 Par ch=9 c=11 v=59
114400 Par ch=9 c=11 v=60
114408 Par ch=9 c=11 v=61
114412 Par ch=9 c=11 v=62
114420 Par ch=9 c=11 v=63
114428 Par ch=9 c=11 v=64
114444 Par ch=9 c=11 v=63
114456 Par ch=9 c=11 v=62
114468 Par ch=9 c=11 v=61
114480 Par ch=9 c=11 v=60
114492 Par ch=9 c=11 v=59
114500 Par ch=9 c=11 v=58
114512 Par ch=9 c=11 v=57
114524 Par ch=9 c=11 v=56
114536 Par ch=9 c=11 v=55
114548 Par ch=9 c=11 v=54
114560 Par ch=9 c=11 v=53
114568 Par ch=9 c=11 v=52
114580 Par ch=9 c=11 v=51
114592 Par ch=9 c=11 v=50
114604 Par ch=9 c=11 v=49
114616 Par ch=9 c=11 v=48
114624 Par ch=9 c=11 v=47
114636 Par ch=9 c=11 v=46
114648 Par ch=9 c=11 v=45
114660 Par ch=9 c=11 v=44
114672 Par ch=9 c=11 v=43
114684 Par ch=9 c=11 v=42
114692 Par ch=9 c=11 v=41
114704 Par ch=9 c=11 v=40
114716 Par ch=9 c=11 v=39
114728 Par ch=9 c=11 v=38
114740 Par ch=9 c=11 v=37
114752 Par ch=9 c=11 v=36
114760 Par ch=9 c=11 v=35
114772 Par ch=9 c=11 v=34
114784 Par ch=9 c=11 v=33
114796 Par ch=9 c=11 v=32
114816 Par ch=9 c=11 v=32
114828 Par ch=9 c=11 v=33
114840 Par ch=9 c=11 v=34
114852 Par ch=9 c=11 v=35
114864 Par ch=9 c=11 v=36
114876 Par ch=9 c=11 v=37
114888 Par ch=9 c=11 v=38
114900 Par ch=9 c=11 v=39
114912 Par ch=9 c=11 v=40
114924 Par ch=9 c=11 v=41
114936 Par ch=9 c=11 v=42
114944 Par ch=9 c=11 v=43
114956 Par ch=9 c=11 v=44
114968 Par ch=9 c=11 v=45
114980 Par ch=9 c=11 v=46
114992 Par ch=9 c=11 v=47
115004 Par ch=9 c=11 v=48
115016 Par ch=9 c=11 v=49
115028 Par ch=9 c=11 v=50
115040 Par ch=9 c=11 v=51
115052 Par ch=9 c=11 v=52
115064 Par ch=9 c=11 v=53
115072 Par ch=9 c=11 v=54
115084 Par ch=9 c=11 v=55
115096 Par ch=9 c=11 v=56
115108 Par ch=9 c=11 v=57
115120 Par ch=9 c=11 v=58
115123 On ch=9 n=34 v=0
115132 Par ch=9 c=11 v=59
115144 Par ch=9 c=11 v=60
115156 Par ch=9 c=11 v=61
115168 Par ch=9 c=11 v=62
115180 Par ch=9 c=11 v=63
115192 Par ch=9 c=11 v=64
115200 Par ch=9 c=11 v=64
115200 On ch=9 n=35 v=111
115212 Par ch=9 c=11 v=63
115224 Par ch=9 c=11 v=62
115236 Par ch=9 c=11 v=61
115248 Par ch=9 c=11 v=60
115260 Par ch=9 c=11 v=59
115268 Par ch=9 c=11 v=58
115280 Par ch=9 c=11 v=57
115292 Par ch=9 c=11 v=56
115304 Par ch=9 c=11 v=55
115316 Par ch=9 c=11 v=54
115328 Par ch=9 c=11 v=53
115336 Par ch=9 c=11 v=52
115348 Par ch=9 c=11 v=51
115360 Par ch=9 c=11 v=50
115372 Par ch=9 c=11 v=49
115384 Par ch=9 c=11 v=48
115392 Par ch=9 c=11 v=47
115404 Par ch=9 c=11 v=46
115416 Par ch=9 c=11 v=45
115428 On ch=9 n=35 v=0
115428 Par ch=9 c=11 v=44
115440 Par ch=9 c=11 v=43
115452 Par ch=9 c=11 v=42
115460 Par ch=9 c=11 v=41
115472 Par ch=9 c=11 v=40
115484 Par ch=9 c=11 v=39
115488 On ch=9 n=34 v=111
115496 Par ch=9 c=11 v=38
115508 Par ch=9 c=11 v=37
115520 Par ch=9 c=11 v=36
115528 Par ch=9 c=11 v=35
115540 Par ch=9 c=11 v=34
115552 Par ch=9 c=11 v=33
115564 On ch=9 n=34 v=0
115564 Par ch=9 c=11 v=32
115584 Par ch=9 c=11 v=32
115584 On ch=9 n=33 v=111
115596 Par ch=9 c=11 v=33
115608 Par ch=9 c=11 v=34
115620 Par ch=9 c=11 v=35
115632 Par ch=9 c=11 v=36
115644 Par ch=9 c=11 v=37
115656 Par ch=9 c=11 v=38
115660 On ch=9 n=33 v=0
115668 Par ch=9 c=11 v=39
115680 Par ch=9 c=11 v=40
115680 On ch=9 n=32 v=111
115692 Par ch=9 c=11 v=41
115704 Par ch=9 c=11 v=42
115712 Par ch=9 c=11 v=43
115724 Par ch=9 c=11 v=44
115736 Par ch=9 c=11 v=45
115748 Par ch=9 c=11 v=46
115756 On ch=9 n=32 v=0
115760 Par ch=9 c=11 v=47
115772 Par ch=9 c=11 v=48
115776 On ch=9 n=33 v=111
115784 Par ch=9 c=11 v=49
115796 Par ch=9 c=11 v=50
115808 Par ch=9 c=11 v=51
115820 Par ch=9 c=11 v=52
115832 Par ch=9 c=11 v=53
115840 Par ch=9 c=11 v=54
115852 On ch=9 n=33 v=0
115852 Par ch=9 c=11 v=55
115864 Par ch=9 c=11 v=56
115872 On ch=9 n=34 v=111
115876 Par ch=9 c=11 v=57
115888 Par ch=9 c=11 v=58
115900 Par ch=9 c=11 v=59
115912 Par ch=9 c=11 v=60
115924 Par ch=9 c=11 v=61
115936 Par ch=9 c=11 v=62
115948 On ch=9 n=34 v=0
115948 Par ch=9 c=11 v=63
115960 Par ch=9 c=11 v=64
115968 On ch=9 n=35 v=111
115992 Par ch=9 c=11 v=32
116016 Par ch=9 c=11 v=31
116036 Par ch=9 c=11 v=30
116056 Par ch=9 c=11 v=29
116080 Par ch=9 c=11 v=28
116100 Par ch=9 c=11 v=27
116120 Par ch=9 c=11 v=26
116144 Par ch=9 c=11 v=25
116164 Par ch=9 c=11 v=24
116184 Par ch=9 c=11 v=23
116204 Par ch=9 c=11 v=22
116228 Par ch=9 c=11 v=21
116248 Par ch=9 c=11 v=20
116268 Par ch=9 c=11 v=19
116292 Par ch=9 c=11 v=18
116312 Par ch=9 c=11 v=17
116332 Par ch=9 c=11 v=16
116429 On ch=9 n=35 v=0
116448 Par ch=9 c=11 v=64
116448 On ch=9 n=33 v=95
116468 Par ch=9 c=11 v=63
116484 Par ch=9 c=11 v=62
116500 Par ch=9 c=11 v=61
116516 Par ch=9 c=11 v=60
116524 On ch=9 n=33 v=0
116536 Par ch=9 c=11 v=59
116544 On ch=9 n=32 v=95
116552 Par ch=9 c=11 v=58
116568 Par ch=9 c=11 v=57
116584 Par ch=9 c=11 v=56
116604 Par ch=9 c=11 v=55
116620 On ch=9 n=32 v=0
116620 Par ch=9 c=11 v=54
116636 Par ch=9 c=11 v=53
116640 On ch=9 n=33 v=95
116652 Par ch=9 c=11 v=52
116672 Par ch=9 c=11 v=51
116688 Par ch=9 c=11 v=50
116704 Par ch=9 c=11 v=49
116716 On ch=9 n=33 v=0
116720 Par ch=9 c=11 v=48
116736 Par ch=9 c=11 v=64
116736 On ch=9 n=34 v=79
116762 On ch=9 n=34 v=0
116768 On ch=9 n=34 v=79
116794 On ch=9 n=34 v=0
116800 On ch=9 n=34 v=79
116826 On ch=9 n=34 v=0
116832 On ch=9 n=34 v=79
116858 On ch=9 n=34 v=0
116864 On ch=9 n=34 v=79
116890 On ch=9 n=34 v=0
116896 On ch=9 n=34 v=79
116922 On ch=9 n=34 v=0
116928 On ch=9 n=34 v=79
116954 On ch=9 n=34 v=0
116960 On ch=9 n=34 v=79
116986 On ch=9 n=34 v=0
116992 On ch=9 n=34 v=79
117018 On ch=9 n=34 v=0
117024 On ch=9 n=34 v=79
117050 On ch=9 n=34 v=0
117056 On ch=9 n=34 v=79
117082 On ch=9 n=34 v=0
117088 On ch=9 n=34 v=79
117114 On ch=9 n=34 v=0
117120 On ch=9 n=34 v=79
117146 On ch=9 n=34 v=0
117152 On ch=9 n=34 v=79
117178 On ch=9 n=34 v=0
117184 On ch=9 n=34 v=79
117210 On ch=9 n=34 v=0
117216 On ch=9 n=34 v=79
117242 On ch=9 n=34 v=0
117248 On ch=9 n=34 v=79
117274 On ch=9 n=34 v=0
117280 On ch=9 n=34 v=79
117306 On ch=9 n=34 v=0
117312 On ch=9 n=34 v=79
117338 On ch=9 n=34 v=0
117344 On ch=9 n=34 v=79
117370 On ch=9 n=34 v=0
117376 On ch=9 n=34 v=79
117402 On ch=9 n=34 v=0
117408 On ch=9 n=34 v=79
117434 On ch=9 n=34 v=0
117440 On ch=9 n=34 v=79
117466 On ch=9 n=34 v=0
117472 On ch=9 n=34 v=79
117498 On ch=9 n=34 v=0
117504 Par ch=9 c=11 v=64
117504 On ch=9 n=34 v=79
117530 On ch=9 n=34 v=0
117536 On ch=9 n=34 v=79
117552 Par ch=9 c=11 v=65
117562 On ch=9 n=34 v=0
117568 On ch=9 n=34 v=79
117594 On ch=9 n=34 v=0
117596 Par ch=9 c=11 v=66
117600 On ch=9 n=34 v=79
117626 On ch=9 n=34 v=0
117632 On ch=9 n=34 v=79
117640 Par ch=9 c=11 v=67
117658 On ch=9 n=34 v=0
117664 On ch=9 n=34 v=79
117688 Par ch=9 c=11 v=68
117690 On ch=9 n=34 v=0
117696 On ch=9 n=34 v=79
117722 On ch=9 n=34 v=0
117728 On ch=9 n=34 v=79
117732 Par ch=9 c=11 v=69
117754 On ch=9 n=34 v=0
117760 On ch=9 n=34 v=79
117776 Par ch=9 c=11 v=70
117786 On ch=9 n=34 v=0
117792 On ch=9 n=34 v=79
117818 On ch=9 n=34 v=0
117824 Par ch=9 c=11 v=71
117824 On ch=9 n=34 v=79
117850 On ch=9 n=34 v=0
117856 On ch=9 n=34 v=79
117868 Par ch=9 c=11 v=72
117882 On ch=9 n=34 v=0
117888 On ch=9 n=34 v=79
117912 Par ch=9 c=11 v=73
117914 On ch=9 n=34 v=0
117920 On ch=9 n=34 v=79
117946 On ch=9 n=34 v=0
117952 On ch=9 n=34 v=79
117956 Par ch=9 c=11 v=74
117978 On ch=9 n=34 v=0
117984 On ch=9 n=34 v=79
118004 Par ch=9 c=11 v=75
118010 On ch=9 n=34 v=0
118016 On ch=9 n=34 v=79
118042 On ch=9 n=34 v=0
118048 Par ch=9 c=11 v=76
118048 On ch=9 n=34 v=79
118074 On ch=9 n=34 v=0
118080 On ch=9 n=34 v=79
118092 Par ch=9 c=11 v=77
118106 On ch=9 n=34 v=0
118112 On ch=9 n=34 v=79
118138 On ch=9 n=34 v=0
118140 Par ch=9 c=11 v=78
118144 On ch=9 n=34 v=79
118170 On ch=9 n=34 v=0
118176 On ch=9 n=34 v=79
118184 Par ch=9 c=11 v=79
118202 On ch=9 n=34 v=0
118208 On ch=9 n=34 v=79
118228 Par ch=9 c=11 v=80
118234 On ch=9 n=34 v=0
118240 On ch=9 n=34 v=79
118266 On ch=9 n=34 v=0
118272 Par ch=9 c=11 v=64
118272 On ch=9 n=34 v=111
118368 On ch=9 n=34 v=0
118368 On ch=9 n=33 v=111
118464 On ch=9 n=33 v=0
118464 On ch=9 n=34 v=111
118560 On ch=9 n=34 v=0
118560 On ch=9 n=33 v=111
118637 On ch=9 n=33 v=0
118656 On ch=9 n=34 v=111
118752 On ch=9 n=34 v=0
118752 On ch=9 n=33 v=111
118848 On ch=9 n=33 v=0
118848 On ch=9 n=34 v=111
118944 On ch=9 n=34 v=0
118944 On ch=9 n=33 v=111
119021 On ch=9 n=33 v=0
119040 On ch=9 n=34 v=111
119136 On ch=9 n=34 v=0
119136 On ch=9 n=33 v=111
119232 On ch=9 n=33 v=0
119232 On ch=9 n=34 v=111
119328 On ch=9 n=34 v=0
119328 On ch=9 n=35 v=111
119424 On ch=9 n=35 v=0
119424 On ch=9 n=34 v=111
119520 On ch=9 n=34 v=0
119520 On ch=9 n=33 v=111
119616 On ch=9 n=33 v=0
119616 On ch=9 n=34 v=111
119693 On ch=9 n=34 v=0
119712 On ch=9 n=39 v=111
119743 On ch=9 n=39 v=0
119784 On ch=9 n=41 v=111
119800 On ch=9 n=41 v=0
119808 On ch=9 n=41 v=111
119856 On ch=9 n=41 v=0
119856 On ch=9 n=42 v=111
119894 On ch=9 n=42 v=0
119904 On ch=9 n=34 v=111
119935 On ch=9 n=34 v=0
119976 On ch=9 n=35 v=111
120000 On ch=9 n=35 v=0
120000 On ch=9 n=37 v=111
120062 On ch=9 n=37 v=0
120096 On ch=9 n=35 v=111
120134 On ch=9 n=35 v=0
120168 On ch=9 n=37 v=111
120187 On ch=9 n=37 v=0
120192 On ch=9 n=39 v=111
120269 On ch=9 n=39 v=0
120288 On ch=9 n=44 v=111
120326 On ch=9 n=44 v=0
120360 On ch=9 n=40 v=111
120379 On ch=9 n=40 v=0
120384 On ch=9 n=38 v=111
120432 On ch=9 n=38 v=0
120432 On ch=9 n=39 v=111
120470 On ch=9 n=39 v=0
120480 On ch=9 n=32 v=111
120518 On ch=9 n=32 v=0
120552 On ch=9 n=34 v=111
120571 On ch=9 n=34 v=0
120576 On ch=9 n=35 v=111
120653 On ch=9 n=35 v=0
121248 On ch=9 n=51 v=127
121279 On ch=9 n=51 v=0
121320 On ch=9 n=50 v=127
121336 On ch=9 n=50 v=0
121344 On ch=9 n=49 v=127
121375 On ch=9 n=49 v=0
121416 On ch=9 n=48 v=127
121432 On ch=9 n=48 v=0
121440 On ch=9 n=47 v=127
121471 On ch=9 n=47 v=0
121512 On ch=9 n=46 v=127
121528 On ch=9 n=46 v=0
121536 On ch=9 n=45 v=127
121567 On ch=9 n=45 v=0
121608 On ch=9 n=44 v=127
121624 On ch=9 n=44 v=0
121632 On ch=9 n=43 v=127
121663 On ch=9 n=43 v=0
121704 On ch=9 n=42 v=127
121720 On ch=9 n=42 v=0
121728 On ch=9 n=47 v=127
121759 On ch=9 n=47 v=0
121800 On ch=9 n=46 v=127
121816 On ch=9 n=46 v=0
121824 On ch=9 n=45 v=127
121855 On ch=9 n=45 v=0
121896 On ch=9 n=44 v=127
121912 On ch=9 n=44 v=0
121920 On ch=9 n=43 v=127
121951 On ch=9 n=43 v=0
121992 On ch=9 n=42 v=127
122008 On ch=9 n=42 v=0
122016 On ch=9 n=41 v=127
122047 On ch=9 n=41 v=0
122088 On ch=9 n=40 v=127
122104 On ch=9 n=40 v=0
122112 On ch=9 n=45 v=127
122528 On ch=9 n=45 v=0
122528 On ch=9 n=44 v=127
122560 On ch=9 n=44 v=0
122560 On ch=9 n=43 v=127
122592 On ch=9 n=43 v=0
122592 On ch=9 n=42 v=127
122624 On ch=9 n=42 v=0
122624 On ch=9 n=41 v=127
122656 On ch=9 n=41 v=0
122656 On ch=9 n=40 v=127
122688 On ch=9 n=40 v=0
122688 On ch=9 n=39 v=127
122720 On ch=9 n=39 v=0
122720 On ch=9 n=38 v=127
122752 On ch=9 n=38 v=0
122752 On ch=9 n=37 v=127
122784 On ch=9 n=37 v=0
122784 On ch=9 n=36 v=127
122816 On ch=9 n=36 v=0
122816 On ch=9 n=34 v=127
122848 On ch=9 n=34 v=0
122848 On ch=9 n=33 v=127
122880 On ch=9 n=33 v=0
122880 On ch=9 n=31 v=127
124646 On ch=9 n=31 v=0
125952 On ch=9 n=55 v=111
125978 On ch=9 n=55 v=0
125984 On ch=9 n=54 v=111
126010 On ch=9 n=54 v=0
126016 On ch=9 n=53 v=111
126042 On ch=9 n=53 v=0
126048 On ch=9 n=51 v=111
126074 On ch=9 n=51 v=0
126080 On ch=9 n=50 v=111
126106 On ch=9 n=50 v=0
126112 On ch=9 n=48 v=111
126138 On ch=9 n=48 v=0
126144 On ch=9 n=47 v=111
126170 On ch=9 n=47 v=0
126176 On ch=9 n=44 v=111
126202 On ch=9 n=44 v=0
126208 On ch=9 n=43 v=111
126234 On ch=9 n=43 v=0
126240 On ch=9 n=41 v=111
126266 On ch=9 n=41 v=0
126272 On ch=9 n=39 v=111
126298 On ch=9 n=39 v=0
126304 On ch=9 n=38 v=111
126330 On ch=9 n=38 v=0
126336 On ch=9 n=36 v=127
126367 On ch=9 n=36 v=0
126384 On ch=9 n=24 v=127
126415 On ch=9 n=24 v=0
134784 On ch=9 n=36 v=47
134822 On ch=9 n=36 v=0
134856 On ch=9 n=31 v=47
134875 On ch=9 n=31 v=0
134880 On ch=9 n=24 v=47
134918 On ch=9 n=24 v=0
135168 On ch=9 n=36 v=79
135206 On ch=9 n=36 v=0
135240 On ch=9 n=31 v=79
135259 On ch=9 n=31 v=0
135264 On ch=9 n=24 v=79
135302 On ch=9 n=24 v=0
135392 Par ch=9 c=11 v=64
135404 Par ch=9 c=11 v=65
135412 Par ch=9 c=11 v=66
135424 Par ch=9 c=11 v=67
135424 On ch=9 n=36 v=95
135432 Par ch=9 c=11 v=68
135440 Par ch=9 c=11 v=69
135445 On ch=9 n=36 v=0
135452 Par ch=9 c=11 v=70
135456 On ch=9 n=43 v=95
135460 Par ch=9 c=11 v=71
135468 Par ch=9 c=11 v=72
135477 On ch=9 n=43 v=0
135480 Par ch=9 c=11 v=73
135488 Par ch=9 c=11 v=74
135488 On ch=9 n=46 v=95
135496 Par ch=9 c=11 v=75
135508 Par ch=9 c=11 v=76
135509 On ch=9 n=46 v=0
135516 Par ch=9 c=11 v=77
135520 On ch=9 n=49 v=95
135524 Par ch=9 c=11 v=78
135536 Par ch=9 c=11 v=79
135541 On ch=9 n=49 v=0
135544 Par ch=9 c=11 v=80
135552 Par ch=9 c=11 v=64
135552 On ch=9 n=48 v=111
135583 On ch=9 n=48 v=0
135624 On ch=9 n=46 v=111
135640 On ch=9 n=46 v=0
135648 On ch=9 n=44 v=111
135679 On ch=9 n=44 v=0
135720 On ch=9 n=43 v=111
135736 On ch=9 n=43 v=0
135744 On ch=9 n=41 v=111
135775 On ch=9 n=41 v=0
135816 On ch=9 n=39 v=111
135832 On ch=9 n=39 v=0
135840 On ch=9 n=37 v=111
135871 On ch=9 n=37 v=0
135912 On ch=9 n=36 v=111
135928 On ch=9 n=36 v=0
135936 On ch=9 n=44 v=111
135967 On ch=9 n=44 v=0
136008 On ch=9 n=43 v=111
136024 On ch=9 n=43 v=0
136032 On ch=9 n=41 v=111
136063 On ch=9 n=41 v=0
136104 On ch=9 n=39 v=111
136120 On ch=9 n=39 v=0
136128 On ch=9 n=37 v=111
136159 On ch=9 n=37 v=0
136200 On ch=9 n=36 v=111
136216 On ch=9 n=36 v=0
136224 On ch=9 n=34 v=111
136255 On ch=9 n=34 v=0
136296 On ch=9 n=32 v=111
136312 On ch=9 n=32 v=0
136320 On ch=9 n=31 v=111
136368 Par ch=9 c=11 v=32
136704 Par ch=9 c=11 v=32
136712 Par ch=9 c=11 v=33
136720 Par ch=9 c=11 v=34
136728 Par ch=9 c=11 v=35
136736 Par ch=9 c=11 v=36
136744 Par ch=9 c=11 v=37
136752 Par ch=9 c=11 v=38
136760 Par ch=9 c=11 v=39
136768 Par ch=9 c=11 v=40
136776 Par ch=9 c=11 v=41
136784 Par ch=9 c=11 v=42
136792 Par ch=9 c=11 v=43
136800 Par ch=9 c=11 v=44
136808 Par ch=9 c=11 v=45
136816 Par ch=9 c=11 v=46
136824 Par ch=9 c=11 v=47
136832 Par ch=9 c=11 v=48
136840 Par ch=9 c=11 v=49
136848 Par ch=9 c=11 v=50
136856 Par ch=9 c=11 v=51
136864 Par ch=9 c=11 v=52
136872 Par ch=9 c=11 v=53
136880 Par ch=9 c=11 v=54
136888 Par ch=9 c=11 v=55
136896 Par ch=9 c=11 v=56
136900 Par ch=9 c=11 v=57
136908 Par ch=9 c=11 v=58
136916 Par ch=9 c=11 v=59
136924 Par ch=9 c=11 v=60
136932 Par ch=9 c=11 v=61
136940 Par ch=9 c=11 v=62
136948 Par ch=9 c=11 v=63
136956 Par ch=9 c=11 v=64
136964 Par ch=9 c=11 v=65
136972 Par ch=9 c=11 v=66
136980 Par ch=9 c=11 v=67
136988 Par ch=9 c=11 v=68
136996 Par ch=9 c=11 v=69
137004 Par ch=9 c=11 v=70
137012 Par ch=9 c=11 v=71
137020 Par ch=9 c=11 v=72
137028 Par ch=9 c=11 v=73
137036 Par ch=9 c=11 v=74
137044 Par ch=9 c=11 v=75
137052 Par ch=9 c=11 v=76
137060 Par ch=9 c=11 v=77
137068 Par ch=9 c=11 v=78
137076 Par ch=9 c=11 v=79
137084 Par ch=9 c=11 v=80
137088 On ch=9 n=31 v=0
137088 Par ch=9 c=11 v=64
137088 On ch=9 n=36 v=127
137126 On ch=9 n=36 v=0
169344 On ch=9 n=48 v=111
169357 On ch=9 n=48 v=0
169376 On ch=9 n=47 v=111
169389 On ch=9 n=47 v=0
169408 On ch=9 n=46 v=111
169421 On ch=9 n=46 v=0
169440 On ch=9 n=45 v=111
169453 On ch=9 n=45 v=0
169472 On ch=9 n=44 v=111
169485 On ch=9 n=44 v=0
169504 On ch=9 n=43 v=111
169517 On ch=9 n=43 v=0
169536 On ch=9 n=42 v=111
169549 On ch=9 n=42 v=0
169568 On ch=9 n=41 v=111
169581 On ch=9 n=41 v=0
169600 On ch=9 n=40 v=111
169613 On ch=9 n=40 v=0
169632 On ch=9 n=39 v=111
169645 On ch=9 n=39 v=0
169664 On ch=9 n=38 v=111
169677 On ch=9 n=38 v=0
169696 On ch=9 n=37 v=111
169709 On ch=9 n=37 v=0
169728 On ch=9 n=36 v=111
169741 On ch=9 n=36 v=0
169760 On ch=9 n=35 v=111
169773 On ch=9 n=35 v=0
169792 On ch=9 n=34 v=111
169805 On ch=9 n=34 v=0
169824 On ch=9 n=33 v=111
169837 On ch=9 n=33 v=0
169856 On ch=9 n=32 v=111
169869 On ch=9 n=32 v=0
169888 On ch=9 n=31 v=111
169901 On ch=9 n=31 v=0
169920 On ch=9 n=30 v=111
169933 On ch=9 n=30 v=0
169952 On ch=9 n=29 v=111
169965 On ch=9 n=29 v=0
169984 On ch=9 n=28 v=111
169997 On ch=9 n=28 v=0
170016 On ch=9 n=27 v=111
170029 On ch=9 n=27 v=0
170048 On ch=9 n=26 v=111
170061 On ch=9 n=26 v=0
170080 On ch=9 n=25 v=111
170093 On ch=9 n=25 v=0
170112 On ch=9 n=24 v=111
170150 On ch=9 n=24 v=0
170496 On ch=9 n=24 v=31
170534 On ch=9 n=24 v=0
170534 Meta TrkEnd
TrkEnd
MTrk
0 Meta 0x21 00
0 Meta TrkName "DRUM"
192 Par ch=10 c=1 v=8
196 Par ch=10 c=7 v=127
200 Par ch=10 c=10 v=64
204 Par ch=10 c=11 v=64
208 Par ch=10 c=91 v=127
212 Par ch=10 c=93 v=64
216 PrCh ch=10 p=49
15744 On ch=10 n=31 v=127
15744 On ch=10 n=28 v=127
15821 On ch=10 n=28 v=0
15821 On ch=10 n=31 v=0
16512 On ch=10 n=28 v=95
16512 On ch=10 n=31 v=95
16589 On ch=10 n=31 v=0
16589 On ch=10 n=28 v=0
31104 On ch=10 n=31 v=95
31104 On ch=10 n=28 v=95
31411 On ch=10 n=28 v=0
31411 On ch=10 n=31 v=0
31872 On ch=10 n=28 v=111
31872 On ch=10 n=31 v=111
32179 On ch=10 n=31 v=0
32179 On ch=10 n=28 v=0
33408 On ch=10 n=28 v=95
33408 On ch=10 n=31 v=95
33485 On ch=10 n=31 v=0
33485 On ch=10 n=28 v=0
34176 On ch=10 n=28 v=111
34176 On ch=10 n=31 v=111
34253 On ch=10 n=31 v=0
34253 On ch=10 n=28 v=0
72960 On ch=10 n=28 v=31
72960 On ch=10 n=31 v=31
72968 On ch=10 n=31 v=0
72968 On ch=10 n=28 v=0
72968 On ch=10 n=28 v=31
72968 On ch=10 n=31 v=31
72976 On ch=10 n=31 v=0
72976 On ch=10 n=28 v=0
72976 On ch=10 n=28 v=31
72976 On ch=10 n=31 v=31
72984 On ch=10 n=31 v=0
72984 On ch=10 n=28 v=0
72984 On ch=10 n=28 v=31
72984 On ch=10 n=31 v=31
72992 On ch=10 n=31 v=0
72992 On ch=10 n=28 v=0
72992 On ch=10 n=28 v=31
72992 On ch=10 n=31 v=31
73000 On ch=10 n=31 v=0
73000 On ch=10 n=28 v=0
73000 On ch=10 n=28 v=31
73000 On ch=10 n=31 v=31
73008 On ch=10 n=31 v=0
73008 On ch=10 n=28 v=0
73008 On ch=10 n=28 v=31
73008 On ch=10 n=31 v=31
73016 On ch=10 n=31 v=0
73016 On ch=10 n=28 v=0
73016 On ch=10 n=28 v=31
73016 On ch=10 n=31 v=31
73024 On ch=10 n=31 v=0
73024 On ch=10 n=28 v=0
73024 On ch=10 n=28 v=31
73024 On ch=10 n=31 v=31
73032 On ch=10 n=31 v=0
73032 On ch=10 n=28 v=0
73032 On ch=10 n=28 v=31
73032 On ch=10 n=31 v=31
73040 On ch=10 n=31 v=0
73040 On ch=10 n=28 v=0
73040 On ch=10 n=28 v=31
73040 On ch=10 n=31 v=31
73048 On ch=10 n=31 v=0
73048 On ch=10 n=28 v=0
73048 On ch=10 n=28 v=31
73048 On ch=10 n=31 v=31
73056 On ch=10 n=31 v=0
73056 On ch=10 n=28 v=0
73056 On ch=10 n=31 v=31
73056 On ch=10 n=28 v=31
73064 On ch=10 n=28 v=0
73064 On ch=10 n=31 v=0
73064 On ch=10 n=31 v=31
73064 On ch=10 n=28 v=31
73072 On ch=10 n=28 v=0
73072 On ch=10 n=31 v=0
73072 On ch=10 n=31 v=31
73072 On ch=10 n=28 v=31
73080 On ch=10 n=28 v=0
73080 On ch=10 n=31 v=0
73080 On ch=10 n=31 v=31
73080 On ch=10 n=28 v=31
73088 On ch=10 n=28 v=0
73088 On ch=10 n=31 v=0
73088 On ch=10 n=31 v=31
73088 On ch=10 n=28 v=31
73096 On ch=10 n=28 v=0
73096 On ch=10 n=31 v=0
73096 On ch=10 n=31 v=31
73096 On ch=10 n=28 v=31
73104 On ch=10 n=28 v=0
73104 On ch=10 n=31 v=0
73104 On ch=10 n=31 v=31
73104 On ch=10 n=28 v=31
73112 On ch=10 n=28 v=0
73112 On ch=10 n=31 v=0
73112 On ch=10 n=31 v=31
73112 On ch=10 n=28 v=31
73120 On ch=10 n=28 v=0
73120 On ch=10 n=31 v=0
73120 On ch=10 n=31 v=31
73120 On ch=10 n=28 v=31
73128 On ch=10 n=28 v=0
73128 On ch=10 n=31 v=0
73128 On ch=10 n=31 v=31
73128 On ch=10 n=28 v=31
73136 On ch=10 n=28 v=0
73136 On ch=10 n=31 v=0
73136 On ch=10 n=31 v=31
73136 On ch=10 n=28 v=31
73144 On ch=10 n=28 v=0
73144 On ch=10 n=31 v=0
73144 On ch=10 n=31 v=31
73144 On ch=10 n=28 v=31
73152 On ch=10 n=28 v=0
73152 On ch=10 n=31 v=0
73152 On ch=10 n=31 v=31
73152 On ch=10 n=28 v=31
73160 On ch=10 n=28 v=0
73160 On ch=10 n=31 v=0
73160 On ch=10 n=31 v=31
73160 On ch=10 n=28 v=31
73168 On ch=10 n=28 v=0
73168 On ch=10 n=31 v=0
73168 On ch=10 n=31 v=31
73168 On ch=10 n=28 v=31
73176 On ch=10 n=28 v=0
73176 On ch=10 n=31 v=0
73176 On ch=10 n=31 v=31
73176 On ch=10 n=28 v=31
73184 On ch=10 n=28 v=0
73184 On ch=10 n=31 v=0
73184 On ch=10 n=31 v=31
73184 On ch=10 n=28 v=31
73192 On ch=10 n=28 v=0
73192 On ch=10 n=31 v=0
73192 On ch=10 n=31 v=31
73192 On ch=10 n=28 v=31
73200 On ch=10 n=28 v=0
73200 On ch=10 n=31 v=0
73200 On ch=10 n=31 v=31
73200 On ch=10 n=28 v=31
73208 On ch=10 n=28 v=0
73208 On ch=10 n=31 v=0
73208 On ch=10 n=31 v=31
73208 On ch=10 n=28 v=31
73216 On ch=10 n=28 v=0
73216 On ch=10 n=31 v=0
73216 On ch=10 n=31 v=31
73216 On ch=10 n=28 v=31
73224 On ch=10 n=28 v=0
73224 On ch=10 n=31 v=0
73224 On ch=10 n=31 v=31
73224 On ch=10 n=28 v=31
73232 On ch=10 n=28 v=0
73232 On ch=10 n=31 v=0
73232 On ch=10 n=31 v=31
73232 On ch=10 n=28 v=31
73240 On ch=10 n=28 v=0
73240 On ch=10 n=31 v=0
73240 On ch=10 n=31 v=31
73240 On ch=10 n=28 v=31
73248 On ch=10 n=28 v=0
73248 On ch=10 n=31 v=0
73248 On ch=10 n=31 v=31
73248 On ch=10 n=28 v=31
73256 On ch=10 n=28 v=0
73256 On ch=10 n=31 v=0
73256 On ch=10 n=31 v=31
73256 On ch=10 n=28 v=31
73264 On ch=10 n=28 v=0
73264 On ch=10 n=31 v=0
73264 On ch=10 n=31 v=31
73264 On ch=10 n=28 v=31
73272 On ch=10 n=28 v=0
73272 On ch=10 n=31 v=0
73272 On ch=10 n=31 v=31
73272 On ch=10 n=28 v=31
73280 On ch=10 n=28 v=0
73280 On ch=10 n=31 v=0
73280 On ch=10 n=31 v=31
73280 On ch=10 n=28 v=31
73288 On ch=10 n=28 v=0
73288 On ch=10 n=31 v=0
73288 On ch=10 n=31 v=31
73288 On ch=10 n=28 v=31
73296 On ch=10 n=28 v=0
73296 On ch=10 n=31 v=0
73296 On ch=10 n=31 v=31
73296 On ch=10 n=28 v=31
73304 On ch=10 n=28 v=0
73304 On ch=10 n=31 v=0
73304 On ch=10 n=31 v=31
73304 On ch=10 n=28 v=31
73312 On ch=10 n=28 v=0
73312 On ch=10 n=31 v=0
73312 On ch=10 n=31 v=31
73312 On ch=10 n=28 v=31
73320 On ch=10 n=28 v=0
73320 On ch=10 n=31 v=0
73320 On ch=10 n=31 v=31
73320 On ch=10 n=28 v=31
73328 On ch=10 n=28 v=0
73328 On ch=10 n=31 v=0
73328 On ch=10 n=31 v=31
73328 On ch=10 n=28 v=31
73336 On ch=10 n=28 v=0
73336 On ch=10 n=31 v=0
73336 On ch=10 n=31 v=31
73336 On ch=10 n=28 v=31
73344 On ch=10 n=28 v=0
73344 On ch=10 n=31 v=0
73728 On ch=10 n=31 v=31
73728 On ch=10 n=28 v=31
73736 On ch=10 n=28 v=0
73736 On ch=10 n=31 v=0
73736 On ch=10 n=31 v=31
73736 On ch=10 n=28 v=31
73744 On ch=10 n=28 v=0
73744 On ch=10 n=31 v=0
73744 On ch=10 n=31 v=31
73744 On ch=10 n=28 v=31
73752 On ch=10 n=28 v=0
73752 On ch=10 n=31 v=0
73752 On ch=10 n=31 v=31
73752 On ch=10 n=28 v=31
73760 On ch=10 n=28 v=0
73760 On ch=10 n=31 v=0
73760 On ch=10 n=31 v=31
73760 On ch=10 n=28 v=31
73768 On ch=10 n=28 v=0
73768 On ch=10 n=31 v=0
73768 On ch=10 n=31 v=31
73768 On ch=10 n=28 v=31
73776 On ch=10 n=28 v=0
73776 On ch=10 n=31 v=0
73776 On ch=10 n=31 v=31
73776 On ch=10 n=28 v=31
73784 On ch=10 n=28 v=0
73784 On ch=10 n=31 v=0
73784 On ch=10 n=31 v=31
73784 On ch=10 n=28 v=31
73792 On ch=10 n=28 v=0
73792 On ch=10 n=31 v=0
73792 On ch=10 n=31 v=31
73792 On ch=10 n=28 v=31
73800 On ch=10 n=28 v=0
73800 On ch=10 n=31 v=0
73800 On ch=10 n=31 v=31
73800 On ch=10 n=28 v=31
73808 On ch=10 n=28 v=0
73808 On ch=10 n=31 v=0
73808 On ch=10 n=31 v=31
73808 On ch=10 n=28 v=31
73816 On ch=10 n=28 v=0
73816 On ch=10 n=31 v=0
73816 On ch=10 n=31 v=31
73816 On ch=10 n=28 v=31
73824 On ch=10 n=28 v=0
73824 On ch=10 n=31 v=0
73824 On ch=10 n=28 v=31
73824 On ch=10 n=31 v=31
73832 On ch=10 n=31 v=0
73832 On ch=10 n=28 v=0
73832 On ch=10 n=28 v=31
73832 On ch=10 n=31 v=31
73840 On ch=10 n=31 v=0
73840 On ch=10 n=28 v=0
73840 On ch=10 n=28 v=31
73840 On ch=10 n=31 v=31
73848 On ch=10 n=31 v=0
73848 On ch=10 n=28 v=0
73848 On ch=10 n=28 v=31
73848 On ch=10 n=31 v=31
73856 On ch=10 n=31 v=0
73856 On ch=10 n=28 v=0
73856 On ch=10 n=28 v=31
73856 On ch=10 n=31 v=31
73864 On ch=10 n=31 v=0
73864 On ch=10 n=28 v=0
73864 On ch=10 n=28 v=31
73864 On ch=10 n=31 v=31
73872 On ch=10 n=31 v=0
73872 On ch=10 n=28 v=0
73872 On ch=10 n=28 v=31
73872 On ch=10 n=31 v=31
73880 On ch=10 n=31 v=0
73880 On ch=10 n=28 v=0
73880 On ch=10 n=28 v=31
73880 On ch=10 n=31 v=31
73888 On ch=10 n=31 v=0
73888 On ch=10 n=28 v=0
73888 On ch=10 n=28 v=31
73888 On ch=10 n=31 v=31
73896 On ch=10 n=31 v=0
73896 On ch=10 n=28 v=0
73896 On ch=10 n=28 v=31
73896 On ch=10 n=31 v=31
73904 On ch=10 n=31 v=0
73904 On ch=10 n=28 v=0
73904 On ch=10 n=28 v=31
73904 On ch=10 n=31 v=31
73912 On ch=10 n=31 v=0
73912 On ch=10 n=28 v=0
73912 On ch=10 n=28 v=31
73912 On ch=10 n=31 v=31
73920 On ch=10 n=31 v=0
73920 On ch=10 n=28 v=0
73920 On ch=10 n=28 v=31
73920 On ch=10 n=31 v=31
73928 On ch=10 n=31 v=0
73928 On ch=10 n=28 v=0
73928 On ch=10 n=28 v=31
73928 On ch=10 n=31 v=31
73936 On ch=10 n=31 v=0
73936 On ch=10 n=28 v=0
73936 On ch=10 n=28 v=31
73936 On ch=10 n=31 v=31
73944 On ch=10 n=31 v=0
73944 On ch=10 n=28 v=0
73944 On ch=10 n=28 v=31
73944 On ch=10 n=31 v=31
73952 On ch=10 n=31 v=0
73952 On ch=10 n=28 v=0
73952 On ch=10 n=28 v=31
73952 On ch=10 n=31 v=31
73960 On ch=10 n=31 v=0
73960 On ch=10 n=28 v=0
73960 On ch=10 n=28 v=31
73960 On ch=10 n=31 v=31
73968 On ch=10 n=31 v=0
73968 On ch=10 n=28 v=0
73968 On ch=10 n=28 v=31
73968 On ch=10 n=31 v=31
73976 On ch=10 n=31 v=0
73976 On ch=10 n=28 v=0
73976 On ch=10 n=28 v=31
73976 On ch=10 n=31 v=31
73984 On ch=10 n=31 v=0
73984 On ch=10 n=28 v=0
73984 On ch=10 n=28 v=31
73984 On ch=10 n=31 v=31
73992 On ch=10 n=31 v=0
73992 On ch=10 n=28 v=0
73992 On ch=10 n=28 v=31
73992 On ch=10 n=31 v=31
74000 On ch=10 n=31 v=0
74000 On ch=10 n=28 v=0
74000 On ch=10 n=28 v=31
74000 On ch=10 n=31 v=31
74008 On ch=10 n=31 v=0
74008 On ch=10 n=28 v=0
74008 On ch=10 n=28 v=31
74008 On ch=10 n=31 v=31
74016 On ch=10 n=31 v=0
74016 On ch=10 n=28 v=0
74016 On ch=10 n=28 v=31
74016 On ch=10 n=31 v=31
74024 On ch=10 n=31 v=0
74024 On ch=10 n=28 v=0
74024 On ch=10 n=28 v=31
74024 On ch=10 n=31 v=31
74032 On ch=10 n=31 v=0
74032 On ch=10 n=28 v=0
74032 On ch=10 n=28 v=31
74032 On ch=10 n=31 v=31
74040 On ch=10 n=31 v=0
74040 On ch=10 n=28 v=0
74040 On ch=10 n=28 v=31
74040 On ch=10 n=31 v=31
74048 On ch=10 n=31 v=0
74048 On ch=10 n=28 v=0
74048 On ch=10 n=28 v=31
74048 On ch=10 n=31 v=31
74056 On ch=10 n=31 v=0
74056 On ch=10 n=28 v=0
74056 On ch=10 n=28 v=31
74056 On ch=10 n=31 v=31
74064 On ch=10 n=31 v=0
74064 On ch=10 n=28 v=0
74064 On ch=10 n=28 v=31
74064 On ch=10 n=31 v=31
74072 On ch=10 n=31 v=0
74072 On ch=10 n=28 v=0
74072 On ch=10 n=28 v=31
74072 On ch=10 n=31 v=31
74080 On ch=10 n=31 v=0
74080 On ch=10 n=28 v=0
74080 On ch=10 n=28 v=31
74080 On ch=10 n=31 v=31
74088 On ch=10 n=31 v=0
74088 On ch=10 n=28 v=0
74088 On ch=10 n=28 v=31
74088 On ch=10 n=31 v=31
74096 On ch=10 n=31 v=0
74096 On ch=10 n=28 v=0
74096 On ch=10 n=28 v=31
74096 On ch=10 n=31 v=31
74104 On ch=10 n=31 v=0
74104 On ch=10 n=28 v=0
74104 On ch=10 n=28 v=31
74104 On ch=10 n=31 v=31
74112 On ch=10 n=31 v=0
74112 On ch=10 n=28 v=0
74496 On ch=10 n=28 v=47
74496 On ch=10 n=31 v=47
74573 On ch=10 n=31 v=0
74573 On ch=10 n=28 v=0
74880 On ch=10 n=28 v=47
74880 On ch=10 n=31 v=47
74957 On ch=10 n=31 v=0
74957 On ch=10 n=28 v=0
75264 On ch=10 n=28 v=127
75264 On ch=10 n=31 v=127
75341 On ch=10 n=31 v=0
75341 On ch=10 n=28 v=0
76032 On ch=10 n=31 v=111
76032 On ch=10 n=28 v=111
76109 On ch=10 n=28 v=0
76109 On ch=10 n=31 v=0
76800 Par ch=10 c=11 v=64
76800 On ch=10 n=28 v=63
76800 On ch=10 n=31 v=63
76808 On ch=10 n=31 v=0
76808 On ch=10 n=28 v=0
76808 On ch=10 n=28 v=63
76808 On ch=10 n=31 v=63
76812 Par ch=10 c=11 v=63
76816 On ch=10 n=31 v=0
76816 On ch=10 n=28 v=0
76816 On ch=10 n=28 v=63
76816 On ch=10 n=31 v=63
76824 On ch=10 n=31 v=0
76824 On ch=10 n=28 v=0
76824 Par ch=10 c=11 v=62
76824 On ch=10 n=28 v=63
76824 On ch=10 n=31 v=63
76832 On ch=10 n=31 v=0
76832 On ch=10 n=28 v=0
76832 On ch=10 n=28 v=63
76832 On ch=10 n=31 v=63
76836 Par ch=10 c=11 v=61
76840 On ch=10 n=31 v=0
76840 On ch=10 n=28 v=0
76840 On ch=10 n=28 v=63
76840 On ch=10 n=31 v=63
76848 On ch=10 n=31 v=0
76848 On ch=10 n=28 v=0
76848 Par ch=10 c=11 v=60
76848 On ch=10 n=28 v=63
76848 On ch=10 n=31 v=63
76856 On ch=10 n=31 v=0
76856 On ch=10 n=28 v=0
76856 On ch=10 n=28 v=63
76856 On ch=10 n=31 v=63
76860 Par ch=10 c=11 v=59
76864 On ch=10 n=31 v=0
76864 On ch=10 n=28 v=0
76864 On ch=10 n=28 v=63
76864 On ch=10 n=31 v=63
76868 Par ch=10 c=11 v=58
76872 On ch=10 n=31 v=0
76872 On ch=10 n=28 v=0
76872 On ch=10 n=28 v=63
76872 On ch=10 n=31 v=63
76880 On ch=10 n=31 v=0
76880 On ch=10 n=28 v=0
76880 Par ch=10 c=11 v=57
76880 On ch=10 n=28 v=63
76880 On ch=10 n=31 v=63
76888 On ch=10 n=31 v=0
76888 On ch=10 n=28 v=0
76888 On ch=10 n=28 v=63
76888 On ch=10 n=31 v=63
76892 Par ch=10 c=11 v=56
76896 On ch=10 n=31 v=0
76896 On ch=10 n=28 v=0
76896 On ch=10 n=31 v=63
76896 On ch=10 n=28 v=63
76904 On ch=10 n=28 v=0
76904 On ch=10 n=31 v=0
76904 Par ch=10 c=11 v=55
76904 On ch=10 n=31 v=63
76904 On ch=10 n=28 v=63
76912 On ch=10 n=28 v=0
76912 On ch=10 n=31 v=0
76912 On ch=10 n=31 v=63
76912 On ch=10 n=28 v=63
76916 Par ch=10 c=11 v=54
76920 On ch=10 n=28 v=0
76920 On ch=10 n=31 v=0
76920 On ch=10 n=31 v=63
76920 On ch=10 n=28 v=63
76928 On ch=10 n=28 v=0
76928 On ch=10 n=31 v=0
76928 Par ch=10 c=11 v=53
76928 On ch=10 n=31 v=63
76928 On ch=10 n=28 v=63
76936 On ch=10 n=28 v=0
76936 On ch=10 n=31 v=0
76936 Par ch=10 c=11 v=52
76936 On ch=10 n=31 v=63
76936 On ch=10 n=28 v=63
76944 On ch=10 n=28 v=0
76944 On ch=10 n=31 v=0
76944 On ch=10 n=31 v=63
76944 On ch=10 n=28 v=63
76948 Par ch=10 c=11 v=51
76952 On ch=10 n=28 v=0
76952 On ch=10 n=31 v=0
76952 On ch=10 n=31 v=63
76952 On ch=10 n=28 v=63
76960 On ch=10 n=28 v=0
76960 On ch=10 n=31 v=0
76960 Par ch=10 c=11 v=50
76960 On ch=10 n=31 v=63
76960 On ch=10 n=28 v=63
76968 On ch=10 n=28 v=0
76968 On ch=10 n=31 v=0
76968 On ch=10 n=31 v=63
76968 On ch=10 n=28 v=63
76972 Par ch=10 c=11 v=49
76976 On ch=10 n=28 v=0
76976 On ch=10 n=31 v=0
76976 On ch=10 n=31 v=63
76976 On ch=10 n=28 v=63
76984 On ch=10 n=28 v=0
76984 On ch=10 n=31 v=0
76984 Par ch=10 c=11 v=48
76984 On ch=10 n=31 v=63
76984 On ch=10 n=28 v=63
76992 On ch=10 n=28 v=0
76992 On ch=10 n=31 v=0
76992 Par ch=10 c=11 v=47
76992 On ch=10 n=31 v=63
76992 On ch=10 n=28 v=63
77000 On ch=10 n=28 v=0
77000 On ch=10 n=31 v=0
77000 On ch=10 n=31 v=63
77000 On ch=10 n=28 v=63
77004 Par ch=10 c=11 v=46
77008 On ch=10 n=28 v=0
77008 On ch=10 n=31 v=0
77008 On ch=10 n=31 v=63
77008 On ch=10 n=28 v=63
77016 On ch=10 n=28 v=0
77016 On ch=10 n=31 v=0
77016 Par ch=10 c=11 v=45
77016 On ch=10 n=31 v=63
77016 On ch=10 n=28 v=63
77024 On ch=10 n=28 v=0
77024 On ch=10 n=31 v=0
77024 On ch=10 n=31 v=63
77024 On ch=10 n=28 v=63
77028 Par ch=10 c=11 v=44
77032 On ch=10 n=28 v=0
77032 On ch=10 n=31 v=0
77032 On ch=10 n=31 v=63
77032 On ch=10 n=28 v=63
77040 On ch=10 n=28 v=0
77040 On ch=10 n=31 v=0
77040 Par ch=10 c=11 v=43
77040 On ch=10 n=31 v=63
77040 On ch=10 n=28 v=63
77048 On ch=10 n=28 v=0
77048 On ch=10 n=31 v=0
77048 On ch=10 n=31 v=63
77048 On ch=10 n=28 v=63
77052 Par ch=10 c=11 v=42
77056 On ch=10 n=28 v=0
77056 On ch=10 n=31 v=0
77056 On ch=10 n=31 v=63
77056 On ch=10 n=28 v=63
77060 Par ch=10 c=11 v=41
77064 On ch=10 n=28 v=0
77064 On ch=10 n=31 v=0
77064 On ch=10 n=31 v=63
77064 On ch=10 n=28 v=63
77072 On ch=10 n=28 v=0
77072 On ch=10 n=31 v=0
77072 Par ch=10 c=11 v=40
77072 On ch=10 n=31 v=63
77072 On ch=10 n=28 v=63
77080 On ch=10 n=28 v=0
77080 On ch=10 n=31 v=0
77080 On ch=10 n=31 v=63
77080 On ch=10 n=28 v=63
77084 Par ch=10 c=11 v=39
77088 On ch=10 n=28 v=0
77088 On ch=10 n=31 v=0
77088 On ch=10 n=31 v=63
77088 On ch=10 n=28 v=63
77096 On ch=10 n=28 v=0
77096 On ch=10 n=31 v=0
77096 Par ch=10 c=11 v=38
77096 On ch=10 n=31 v=63
77096 On ch=10 n=28 v=63
77104 On ch=10 n=28 v=0
77104 On ch=10 n=31 v=0
77104 On ch=10 n=31 v=63
77104 On ch=10 n=28 v=63
77108 Par ch=10 c=11 v=37
77112 On ch=10 n=28 v=0
77112 On ch=10 n=31 v=0
77112 On ch=10 n=31 v=63
77112 On ch=10 n=28 v=63
77120 On ch=10 n=28 v=0
77120 On ch=10 n=31 v=0
77120 Par ch=10 c=11 v=36
77120 On ch=10 n=31 v=63
77120 On ch=10 n=28 v=63
77128 On ch=10 n=28 v=0
77128 On ch=10 n=31 v=0
77128 Par ch=10 c=11 v=35
77128 On ch=10 n=31 v=63
77128 On ch=10 n=28 v=63
77136 On ch=10 n=28 v=0
77136 On ch=10 n=31 v=0
77136 On ch=10 n=31 v=63
77136 On ch=10 n=28 v=63
77140 Par ch=10 c=11 v=34
77144 On ch=10 n=28 v=0
77144 On ch=10 n=31 v=0
77144 On ch=10 n=31 v=63
77144 On ch=10 n=28 v=63
77152 On ch=10 n=28 v=0
77152 On ch=10 n=31 v=0
77152 Par ch=10 c=11 v=33
77152 On ch=10 n=31 v=63
77152 On ch=10 n=28 v=63
77160 On ch=10 n=28 v=0
77160 On ch=10 n=31 v=0
77160 On ch=10 n=31 v=63
77160 On ch=10 n=28 v=63
77164 Par ch=10 c=11 v=32
77168 On ch=10 n=28 v=0
77168 On ch=10 n=31 v=0
77168 On ch=10 n=31 v=63
77168 On ch=10 n=28 v=63
77176 On ch=10 n=28 v=0
77176 On ch=10 n=31 v=0
77176 On ch=10 n=31 v=63
77176 On ch=10 n=28 v=63
77184 On ch=10 n=28 v=0
77184 On ch=10 n=31 v=0
77184 On ch=10 n=31 v=63
77184 On ch=10 n=28 v=63
77280 On ch=10 n=28 v=0
77280 On ch=10 n=31 v=0
77568 Par ch=10 c=11 v=64
86784 On ch=10 n=92 v=47
86861 On ch=10 n=92 v=0
87168 On ch=10 n=92 v=47
87206 On ch=10 n=92 v=0
87552 On ch=10 n=92 v=47
87629 On ch=10 n=92 v=0
87936 On ch=10 n=92 v=47
88013 On ch=10 n=92 v=0
88320 On ch=10 n=92 v=47
88397 On ch=10 n=92 v=0
89088 On ch=10 n=92 v=47
89165 On ch=10 n=92 v=0
89856 On ch=10 n=92 v=31
89933 On ch=10 n=92 v=0
90240 On ch=10 n=92 v=31
90317 On ch=10 n=92 v=0
90624 On ch=10 n=92 v=31
90701 On ch=10 n=92 v=0
90816 On ch=10 n=92 v=27
90893 On ch=10 n=92 v=0
91008 On ch=10 n=92 v=23
91085 On ch=10 n=92 v=0
91200 On ch=10 n=92 v=19
91277 On ch=10 n=92 v=0
91392 On ch=10 n=92 v=15
91469 On ch=10 n=92 v=0
106752 On ch=10 n=28 v=95
106752 On ch=10 n=31 v=95
107290 On ch=10 n=31 v=0
107290 On ch=10 n=28 v=0
109824 On ch=10 n=28 v=111
109824 On ch=10 n=31 v=111
109920 On ch=10 n=31 v=0
109920 On ch=10 n=28 v=0
111744 On ch=10 n=28 v=111
111744 On ch=10 n=31 v=111
111821 On ch=10 n=31 v=0
111821 On ch=10 n=28 v=0
112128 On ch=10 n=92 v=111
112136 On ch=10 n=92 v=0
112136 On ch=10 n=92 v=111
112144 On ch=10 n=92 v=0
112144 On ch=10 n=92 v=111
112152 On ch=10 n=92 v=0
112152 On ch=10 n=92 v=111
112160 On ch=10 n=92 v=0
112160 On ch=10 n=92 v=111
112168 On ch=10 n=92 v=0
112168 On ch=10 n=92 v=111
112176 On ch=10 n=92 v=0
112176 On ch=10 n=92 v=111
112184 On ch=10 n=92 v=0
112184 On ch=10 n=92 v=111
112192 On ch=10 n=92 v=0
112192 On ch=10 n=92 v=111
112200 On ch=10 n=92 v=0
112200 On ch=10 n=92 v=111
112208 On ch=10 n=92 v=0
112208 On ch=10 n=92 v=111
112216 On ch=10 n=92 v=0
112216 On ch=10 n=92 v=111
112224 On ch=10 n=92 v=0
112224 On ch=10 n=92 v=111
112232 On ch=10 n=92 v=0
112232 On ch=10 n=92 v=111
112240 On ch=10 n=92 v=0
112240 On ch=10 n=92 v=111
112248 On ch=10 n=92 v=0
112248 On ch=10 n=92 v=111
112256 On ch=10 n=92 v=0
112256 On ch=10 n=92 v=111
112264 On ch=10 n=92 v=0
112264 On ch=10 n=92 v=111
112272 On ch=10 n=92 v=0
112272 On ch=10 n=92 v=111
112280 On ch=10 n=92 v=0
112280 On ch=10 n=92 v=111
112288 On ch=10 n=92 v=0
112288 On ch=10 n=92 v=111
112296 On ch=10 n=92 v=0
112296 On ch=10 n=92 v=111
112304 On ch=10 n=92 v=0
112304 On ch=10 n=92 v=111
112312 On ch=10 n=92 v=0
112312 On ch=10 n=92 v=111
112320 On ch=10 n=92 v=0
112320 On ch=10 n=92 v=111
112328 On ch=10 n=92 v=0
112328 On ch=10 n=92 v=111
112336 On ch=10 n=92 v=0
112336 On ch=10 n=92 v=111
112344 On ch=10 n=92 v=0
112344 On ch=10 n=92 v=111
112352 On ch=10 n=92 v=0
112352 On ch=10 n=92 v=111
112360 On ch=10 n=92 v=0
112360 On ch=10 n=92 v=111
112368 On ch=10 n=92 v=0
112368 On ch=10 n=92 v=111
112376 On ch=10 n=92 v=0
112376 On ch=10 n=92 v=111
112384 On ch=10 n=92 v=0
112384 On ch=10 n=92 v=111
112392 On ch=10 n=92 v=0
112392 On ch=10 n=92 v=111
112400 On ch=10 n=92 v=0
112400 On ch=10 n=92 v=111
112408 On ch=10 n=92 v=0
112408 On ch=10 n=92 v=111
112416 On ch=10 n=92 v=0
112416 On ch=10 n=92 v=111
112424 On ch=10 n=92 v=0
112424 On ch=10 n=92 v=111
112432 On ch=10 n=92 v=0
112432 On ch=10 n=92 v=111
112440 On ch=10 n=92 v=0
112440 On ch=10 n=92 v=111
112448 On ch=10 n=92 v=0
112448 On ch=10 n=92 v=111
112456 On ch=10 n=92 v=0
112456 On ch=10 n=92 v=111
112464 On ch=10 n=92 v=0
112464 On ch=10 n=92 v=111
112472 On ch=10 n=92 v=0
112472 On ch=10 n=92 v=111
112480 On ch=10 n=92 v=0
112480 On ch=10 n=92 v=111
112488 On ch=10 n=92 v=0
112488 On ch=10 n=92 v=111
112496 On ch=10 n=92 v=0
112496 On ch=10 n=92 v=111
112504 On ch=10 n=92 v=0
112512 On ch=10 n=28 v=111
112512 On ch=10 n=31 v=111
112589 On ch=10 n=31 v=0
112589 On ch=10 n=28 v=0
112896 On ch=10 n=92 v=111
112904 On ch=10 n=92 v=0
112904 On ch=10 n=92 v=111
112912 On ch=10 n=92 v=0
112912 On ch=10 n=92 v=111
112920 On ch=10 n=92 v=0
112920 On ch=10 n=92 v=111
112928 On ch=10 n=92 v=0
112928 On ch=10 n=92 v=111
112936 On ch=10 n=92 v=0
112936 On ch=10 n=92 v=111
112944 On ch=10 n=92 v=0
112944 On ch=10 n=92 v=111
112952 On ch=10 n=92 v=0
112952 On ch=10 n=92 v=111
112960 On ch=10 n=92 v=0
112960 On ch=10 n=92 v=111
112968 On ch=10 n=92 v=0
112968 On ch=10 n=92 v=111
112976 On ch=10 n=92 v=0
112976 On ch=10 n=92 v=111
112984 On ch=10 n=92 v=0
112984 On ch=10 n=92 v=111
112992 On ch=10 n=92 v=0
112992 On ch=10 n=92 v=111
113000 On ch=10 n=92 v=0
113000 On ch=10 n=92 v=111
113008 On ch=10 n=92 v=0
113008 On ch=10 n=92 v=111
113016 On ch=10 n=92 v=0
113016 On ch=10 n=92 v=111
113024 On ch=10 n=92 v=0
113024 On ch=10 n=92 v=111
113032 On ch=10 n=92 v=0
113032 On ch=10 n=92 v=111
113040 On ch=10 n=92 v=0
113040 On ch=10 n=92 v=111
113048 On ch=10 n=92 v=0
113048 On ch=10 n=92 v=111
113056 On ch=10 n=92 v=0
113056 On ch=10 n=92 v=111
113064 On ch=10 n=92 v=0
113064 On ch=10 n=92 v=111
113072 On ch=10 n=92 v=0
113072 On ch=10 n=92 v=111
113080 On ch=10 n=92 v=0
113080 On ch=10 n=92 v=111
113088 On ch=10 n=92 v=0
113088 On ch=10 n=92 v=111
113096 On ch=10 n=92 v=0
113096 On ch=10 n=92 v=111
113104 On ch=10 n=92 v=0
113104 On ch=10 n=92 v=111
113112 On ch=10 n=92 v=0
113112 On ch=10 n=92 v=111
113120 On ch=10 n=92 v=0
113120 On ch=10 n=92 v=111
113128 On ch=10 n=92 v=0
113128 On ch=10 n=92 v=111
113136 On ch=10 n=92 v=0
113136 On ch=10 n=92 v=111
113144 On ch=10 n=92 v=0
113144 On ch=10 n=92 v=111
113152 On ch=10 n=92 v=0
113152 On ch=10 n=92 v=111
113160 On ch=10 n=92 v=0
113160 On ch=10 n=92 v=111
113168 On ch=10 n=92 v=0
113168 On ch=10 n=92 v=111
113176 On ch=10 n=92 v=0
113176 On ch=10 n=92 v=111
113184 On ch=10 n=92 v=0
113184 On ch=10 n=92 v=111
113192 On ch=10 n=92 v=0
113192 On ch=10 n=92 v=111
113200 On ch=10 n=92 v=0
113200 On ch=10 n=92 v=111
113208 On ch=10 n=92 v=0
113208 On ch=10 n=92 v=111
113216 On ch=10 n=92 v=0
113216 On ch=10 n=92 v=111
113224 On ch=10 n=92 v=0
113224 On ch=10 n=92 v=111
113232 On ch=10 n=92 v=0
113232 On ch=10 n=92 v=111
113240 On ch=10 n=92 v=0
113240 On ch=10 n=92 v=111
113248 On ch=10 n=92 v=0
113248 On ch=10 n=92 v=111
113256 On ch=10 n=92 v=0
113256 On ch=10 n=92 v=111
113264 On ch=10 n=92 v=0
113264 On ch=10 n=92 v=111
113272 On ch=10 n=92 v=0
114048 On ch=10 n=28 v=111
114048 On ch=10 n=31 v=111
114125 On ch=10 n=31 v=0
114125 On ch=10 n=28 v=0
116736 On ch=10 n=45 v=63
116736 On ch=10 n=46 v=47
116744 On ch=10 n=46 v=0
116744 On ch=10 n=46 v=47
116752 On ch=10 n=46 v=0
116752 On ch=10 n=46 v=47
116760 On ch=10 n=46 v=0
116760 On ch=10 n=46 v=47
116768 On ch=10 n=46 v=0
116768 On ch=10 n=46 v=47
116776 On ch=10 n=46 v=0
116776 On ch=10 n=46 v=47
116784 On ch=10 n=46 v=0
116784 On ch=10 n=46 v=47
116792 On ch=10 n=46 v=0
116792 On ch=10 n=46 v=47
116800 On ch=10 n=46 v=0
116800 On ch=10 n=46 v=47
116808 On ch=10 n=46 v=0
116808 On ch=10 n=46 v=47
116813 On ch=10 n=45 v=0
116816 On ch=10 n=46 v=0
116816 On ch=10 n=46 v=47
116824 On ch=10 n=46 v=0
116824 On ch=10 n=46 v=47
116832 On ch=10 n=46 v=0
116832 On ch=10 n=45 v=63
116832 On ch=10 n=46 v=47
116840 On ch=10 n=46 v=0
116840 On ch=10 n=46 v=47
116848 On ch=10 n=46 v=0
116848 On ch=10 n=46 v=47
116856 On ch=10 n=46 v=0
116856 On ch=10 n=46 v=47
116864 On ch=10 n=46 v=0
116864 On ch=10 n=46 v=47
116872 On ch=10 n=46 v=0
116872 On ch=10 n=46 v=47
116880 On ch=10 n=46 v=0
116880 On ch=10 n=46 v=47
116888 On ch=10 n=46 v=0
116888 On ch=10 n=46 v=47
116896 On ch=10 n=46 v=0
116896 On ch=10 n=46 v=47
116904 On ch=10 n=46 v=0
116904 On ch=10 n=46 v=47
116909 On ch=10 n=45 v=0
116912 On ch=10 n=46 v=0
116912 On ch=10 n=46 v=47
116920 On ch=10 n=46 v=0
116920 On ch=10 n=46 v=47
116928 On ch=10 n=46 v=0
116928 On ch=10 n=45 v=63
116928 On ch=10 n=46 v=47
116936 On ch=10 n=46 v=0
116936 On ch=10 n=46 v=47
116944 On ch=10 n=46 v=0
116944 On ch=10 n=46 v=47
116952 On ch=10 n=46 v=0
116952 On ch=10 n=46 v=47
116960 On ch=10 n=46 v=0
116960 On ch=10 n=46 v=47
116968 On ch=10 n=46 v=0
116968 On ch=10 n=46 v=47
116976 On ch=10 n=46 v=0
116976 On ch=10 n=46 v=47
116984 On ch=10 n=46 v=0
116984 On ch=10 n=46 v=47
116992 On ch=10 n=46 v=0
116992 On ch=10 n=46 v=47
117000 On ch=10 n=46 v=0
117000 On ch=10 n=46 v=47
117005 On ch=10 n=45 v=0
117008 On ch=10 n=46 v=0
117008 On ch=10 n=46 v=47
117016 On ch=10 n=46 v=0
117016 On ch=10 n=46 v=47
117024 On ch=10 n=46 v=0
117024 On ch=10 n=45 v=63
117024 On ch=10 n=46 v=47
117032 On ch=10 n=46 v=0
117032 On ch=10 n=46 v=47
117040 On ch=10 n=46 v=0
117040 On ch=10 n=46 v=47
117048 On ch=10 n=46 v=0
117048 On ch=10 n=46 v=47
117056 On ch=10 n=46 v=0
117056 On ch=10 n=46 v=47
117064 On ch=10 n=46 v=0
117064 On ch=10 n=46 v=47
117072 On ch=10 n=46 v=0
117072 On ch=10 n=46 v=47
117080 On ch=10 n=46 v=0
117080 On ch=10 n=46 v=47
117088 On ch=10 n=46 v=0
117088 On ch=10 n=46 v=47
117096 On ch=10 n=46 v=0
117096 On ch=10 n=46 v=47
117101 On ch=10 n=45 v=0
117104 On ch=10 n=46 v=0
117104 On ch=10 n=46 v=47
117112 On ch=10 n=46 v=0
117112 On ch=10 n=46 v=47
117120 On ch=10 n=46 v=0
117120 On ch=10 n=46 v=47
117120 On ch=10 n=45 v=63
117128 On ch=10 n=46 v=0
117128 On ch=10 n=46 v=47
117136 On ch=10 n=46 v=0
117136 On ch=10 n=46 v=47
117144 On ch=10 n=46 v=0
117144 On ch=10 n=46 v=47
117152 On ch=10 n=46 v=0
117152 On ch=10 n=46 v=47
117160 On ch=10 n=46 v=0
117160 On ch=10 n=46 v=47
117168 On ch=10 n=46 v=0
117168 On ch=10 n=46 v=47
117176 On ch=10 n=46 v=0
117176 On ch=10 n=46 v=47
117184 On ch=10 n=46 v=0
117184 On ch=10 n=46 v=47
117192 On ch=10 n=46 v=0
117192 On ch=10 n=46 v=47
117197 On ch=10 n=45 v=0
117200 On ch=10 n=46 v=0
117200 On ch=10 n=46 v=47
117208 On ch=10 n=46 v=0
117208 On ch=10 n=46 v=47
117216 On ch=10 n=46 v=0
117216 On ch=10 n=46 v=47
117216 On ch=10 n=45 v=63
117224 On ch=10 n=46 v=0
117224 On ch=10 n=46 v=47
117232 On ch=10 n=46 v=0
117232 On ch=10 n=46 v=47
117240 On ch=10 n=46 v=0
117240 On ch=10 n=46 v=47
117248 On ch=10 n=46 v=0
117248 On ch=10 n=46 v=47
117256 On ch=10 n=46 v=0
117256 On ch=10 n=46 v=47
117264 On ch=10 n=46 v=0
117264 On ch=10 n=46 v=47
117272 On ch=10 n=46 v=0
117272 On ch=10 n=46 v=47
117280 On ch=10 n=46 v=0
117280 On ch=10 n=46 v=47
117288 On ch=10 n=46 v=0
117288 On ch=10 n=46 v=47
117293 On ch=10 n=45 v=0
117296 On ch=10 n=46 v=0
117296 On ch=10 n=46 v=47
117304 On ch=10 n=46 v=0
117304 On ch=10 n=46 v=47
117312 On ch=10 n=46 v=0
117312 On ch=10 n=46 v=47
117312 On ch=10 n=45 v=63
117320 On ch=10 n=46 v=0
117320 On ch=10 n=46 v=47
117328 On ch=10 n=46 v=0
117328 On ch=10 n=46 v=47
117336 On ch=10 n=46 v=0
117336 On ch=10 n=46 v=47
117344 On ch=10 n=46 v=0
117344 On ch=10 n=46 v=47
117352 On ch=10 n=46 v=0
117352 On ch=10 n=46 v=47
117360 On ch=10 n=46 v=0
117360 On ch=10 n=46 v=47
117368 On ch=10 n=46 v=0
117368 On ch=10 n=46 v=47
117376 On ch=10 n=46 v=0
117376 On ch=10 n=46 v=47
117384 On ch=10 n=46 v=0
117384 On ch=10 n=46 v=47
117389 On ch=10 n=45 v=0
117392 On ch=10 n=46 v=0
117392 On ch=10 n=46 v=47
117400 On ch=10 n=46 v=0
117400 On ch=10 n=46 v=47
117408 On ch=10 n=46 v=0
117408 On ch=10 n=46 v=47
117408 On ch=10 n=45 v=63
117416 On ch=10 n=46 v=0
117416 On ch=10 n=46 v=47
117424 On ch=10 n=46 v=0
117424 On ch=10 n=46 v=47
117432 On ch=10 n=46 v=0
117432 On ch=10 n=46 v=47
117440 On ch=10 n=46 v=0
117440 On ch=10 n=46 v=47
117448 On ch=10 n=46 v=0
117448 On ch=10 n=46 v=47
117456 On ch=10 n=46 v=0
117456 On ch=10 n=46 v=47
117464 On ch=10 n=46 v=0
117464 On ch=10 n=46 v=47
117472 On ch=10 n=46 v=0
117472 On ch=10 n=46 v=47
117480 On ch=10 n=46 v=0
117480 On ch=10 n=46 v=47
117485 On ch=10 n=45 v=0
117488 On ch=10 n=46 v=0
117488 On ch=10 n=46 v=47
117496 On ch=10 n=46 v=0
117496 On ch=10 n=46 v=47
117504 On ch=10 n=46 v=0
117504 On ch=10 n=46 v=47
117504 On ch=10 n=45 v=63
117512 On ch=10 n=46 v=0
117512 On ch=10 n=46 v=47
117520 On ch=10 n=46 v=0
117520 On ch=10 n=46 v=47
117528 On ch=10 n=46 v=0
117528 On ch=10 n=46 v=47
117536 On ch=10 n=46 v=0
117536 On ch=10 n=46 v=47
117544 On ch=10 n=46 v=0
117544 On ch=10 n=46 v=47
117552 On ch=10 n=46 v=0
117552 On ch=10 n=46 v=47
117560 On ch=10 n=46 v=0
117560 On ch=10 n=46 v=47
117568 On ch=10 n=46 v=0
117568 On ch=10 n=46 v=47
117576 On ch=10 n=46 v=0
117576 On ch=10 n=46 v=47
117581 On ch=10 n=45 v=0
117584 On ch=10 n=46 v=0
117584 On ch=10 n=46 v=47
117592 On ch=10 n=46 v=0
117592 On ch=10 n=46 v=47
117600 On ch=10 n=46 v=0
117600 On ch=10 n=46 v=47
117600 On ch=10 n=45 v=63
117608 On ch=10 n=46 v=0
117608 On ch=10 n=46 v=47
117616 On ch=10 n=46 v=0
117616 On ch=10 n=46 v=47
117624 On ch=10 n=46 v=0
117624 On ch=10 n=46 v=47
117632 On ch=10 n=46 v=0
117632 On ch=10 n=46 v=47
117640 On ch=10 n=46 v=0
117640 On ch=10 n=46 v=47
117648 On ch=10 n=46 v=0
117648 On ch=10 n=46 v=47
117656 On ch=10 n=46 v=0
117656 On ch=10 n=46 v=47
117664 On ch=10 n=46 v=0
117664 On ch=10 n=46 v=47
117672 On ch=10 n=46 v=0
117672 On ch=10 n=46 v=47
117677 On ch=10 n=45 v=0
117680 On ch=10 n=46 v=0
117680 On ch=10 n=46 v=47
117688 On ch=10 n=46 v=0
117688 On ch=10 n=46 v=47
117696 On ch=10 n=46 v=0
117696 On ch=10 n=46 v=47
117696 On ch=10 n=45 v=63
117704 On ch=10 n=46 v=0
117704 On ch=10 n=46 v=47
117712 On ch=10 n=46 v=0
117712 On ch=10 n=46 v=47
117720 On ch=10 n=46 v=0
117720 On ch=10 n=46 v=47
117728 On ch=10 n=46 v=0
117728 On ch=10 n=46 v=47
117736 On ch=10 n=46 v=0
117736 On ch=10 n=46 v=47
117744 On ch=10 n=46 v=0
117744 On ch=10 n=46 v=47
117752 On ch=10 n=46 v=0
117752 On ch=10 n=46 v=47
117760 On ch=10 n=46 v=0
117760 On ch=10 n=46 v=47
117768 On ch=10 n=46 v=0
117768 On ch=10 n=46 v=47
117773 On ch=10 n=45 v=0
117776 On ch=10 n=46 v=0
117776 On ch=10 n=46 v=47
117784 On ch=10 n=46 v=0
117784 On ch=10 n=46 v=47
117792 On ch=10 n=46 v=0
117792 On ch=10 n=46 v=47
117792 On ch=10 n=45 v=63
117800 On ch=10 n=46 v=0
117800 On ch=10 n=46 v=47
117808 On ch=10 n=46 v=0
117808 On ch=10 n=46 v=47
117816 On ch=10 n=46 v=0
117816 On ch=10 n=46 v=47
117824 On ch=10 n=46 v=0
117824 On ch=10 n=46 v=47
117832 On ch=10 n=46 v=0
117832 On ch=10 n=46 v=47
117840 On ch=10 n=46 v=0
117840 On ch=10 n=46 v=47
117848 On ch=10 n=46 v=0
117848 On ch=10 n=46 v=47
117856 On ch=10 n=46 v=0
117856 On ch=10 n=46 v=47
117864 On ch=10 n=46 v=0
117864 On ch=10 n=46 v=47
117869 On ch=10 n=45 v=0
117872 On ch=10 n=46 v=0
117872 On ch=10 n=46 v=47
117880 On ch=10 n=46 v=0
117880 On ch=10 n=46 v=47
117888 On ch=10 n=46 v=0
117888 On ch=10 n=46 v=47
117888 On ch=10 n=45 v=63
117896 On ch=10 n=46 v=0
117896 On ch=10 n=46 v=47
117904 On ch=10 n=46 v=0
117904 On ch=10 n=46 v=47
117912 On ch=10 n=46 v=0
117912 On ch=10 n=46 v=47
117920 On ch=10 n=46 v=0
117920 On ch=10 n=46 v=47
117928 On ch=10 n=46 v=0
117928 On ch=10 n=46 v=47
117936 On ch=10 n=46 v=0
117936 On ch=10 n=46 v=47
117944 On ch=10 n=46 v=0
117944 On ch=10 n=46 v=47
117952 On ch=10 n=46 v=0
117952 On ch=10 n=46 v=47
117960 On ch=10 n=46 v=0
117960 On ch=10 n=46 v=47
117965 On ch=10 n=45 v=0
117968 On ch=10 n=46 v=0
117968 On ch=10 n=46 v=47
117976 On ch=10 n=46 v=0
117976 On ch=10 n=46 v=47
117984 On ch=10 n=46 v=0
117984 On ch=10 n=46 v=47
117984 On ch=10 n=45 v=63
117992 On ch=10 n=46 v=0
117992 On ch=10 n=46 v=47
118000 On ch=10 n=46 v=0
118000 On ch=10 n=46 v=47
118008 On ch=10 n=46 v=0
118008 On ch=10 n=46 v=47
118016 On ch=10 n=46 v=0
118016 On ch=10 n=46 v=47
118024 On ch=10 n=46 v=0
118024 On ch=10 n=46 v=47
118032 On ch=10 n=46 v=0
118032 On ch=10 n=46 v=47
118040 On ch=10 n=46 v=0
118040 On ch=10 n=46 v=47
118048 On ch=10 n=46 v=0
118048 On ch=10 n=46 v=47
118056 On ch=10 n=46 v=0
118056 On ch=10 n=46 v=47
118061 On ch=10 n=45 v=0
118064 On ch=10 n=46 v=0
118064 On ch=10 n=46 v=47
118072 On ch=10 n=46 v=0
118072 On ch=10 n=46 v=47
118080 On ch=10 n=46 v=0
118080 On ch=10 n=46 v=47
118080 On ch=10 n=45 v=63
118088 On ch=10 n=46 v=0
118088 On ch=10 n=46 v=47
118096 On ch=10 n=46 v=0
118096 On ch=10 n=46 v=47
118104 On ch=10 n=46 v=0
118104 On ch=10 n=46 v=47
118112 On ch=10 n=46 v=0
118112 On ch=10 n=46 v=47
118120 On ch=10 n=46 v=0
118120 On ch=10 n=46 v=47
118128 On ch=10 n=46 v=0
118128 On ch=10 n=46 v=47
118136 On ch=10 n=46 v=0
118136 On ch=10 n=46 v=47
118144 On ch=10 n=46 v=0
118144 On ch=10 n=46 v=47
118152 On ch=10 n=46 v=0
118152 On ch=10 n=46 v=47
118157 On ch=10 n=45 v=0
118160 On ch=10 n=46 v=0
118160 On ch=10 n=46 v=47
118168 On ch=10 n=46 v=0
118168 On ch=10 n=46 v=47
118176 On ch=10 n=46 v=0
118176 On ch=10 n=46 v=47
118176 On ch=10 n=45 v=63
118184 On ch=10 n=46 v=0
118184 On ch=10 n=46 v=47
118192 On ch=10 n=46 v=0
118192 On ch=10 n=46 v=47
118200 On ch=10 n=46 v=0
118200 On ch=10 n=46 v=47
118208 On ch=10 n=46 v=0
118208 On ch=10 n=46 v=47
118216 On ch=10 n=46 v=0
118216 On ch=10 n=46 v=47
118224 On ch=10 n=46 v=0
118224 On ch=10 n=46 v=47
118232 On ch=10 n=46 v=0
118232 On ch=10 n=46 v=47
118240 On ch=10 n=46 v=0
118240 On ch=10 n=46 v=47
118248 On ch=10 n=46 v=0
118248 On ch=10 n=46 v=47
118253 On ch=10 n=45 v=0
118256 On ch=10 n=46 v=0
118256 On ch=10 n=46 v=47
118264 On ch=10 n=46 v=0
118264 On ch=10 n=46 v=47
118272 On ch=10 n=46 v=0
118272 On ch=10 n=45 v=127
118272 On ch=10 n=46 v=111
118349 On ch=10 n=46 v=0
118349 On ch=10 n=45 v=0
123264 On ch=10 n=31 v=95
123264 On ch=10 n=28 v=95
123302 On ch=10 n=28 v=0
123302 On ch=10 n=31 v=0
123360 On ch=10 n=28 v=95
123360 On ch=10 n=31 v=95
123398 On ch=10 n=31 v=0
123398 On ch=10 n=28 v=0
124032 On ch=10 n=31 v=95
124032 On ch=10 n=28 v=95
124070 On ch=10 n=28 v=0
124070 On ch=10 n=31 v=0
124128 On ch=10 n=31 v=95
124128 On ch=10 n=28 v=95
124166 On ch=10 n=28 v=0
124166 On ch=10 n=31 v=0
125568 On ch=10 n=31 v=31
125568 On ch=10 n=28 v=31
125576 On ch=10 n=28 v=0
125576 On ch=10 n=31 v=0
125576 On ch=10 n=31 v=31
125576 On ch=10 n=28 v=31
125584 On ch=10 n=28 v=0
125584 On ch=10 n=31 v=0
125584 On ch=10 n=31 v=31
125584 On ch=10 n=28 v=31
125592 On ch=10 n=28 v=0
125592 On ch=10 n=31 v=0
125592 On ch=10 n=31 v=31
125592 On ch=10 n=28 v=31
125600 On ch=10 n=28 v=0
125600 On ch=10 n=31 v=0
125600 On ch=10 n=31 v=31
125600 On ch=10 n=28 v=31
125608 On ch=10 n=28 v=0
125608 On ch=10 n=31 v=0
125608 On ch=10 n=31 v=31
125608 On ch=10 n=28 v=31
125616 On ch=10 n=28 v=0
125616 On ch=10 n=31 v=0
125616 On ch=10 n=31 v=31
125616 On ch=10 n=28 v=31
125624 On ch=10 n=28 v=0
125624 On ch=10 n=31 v=0
125624 On ch=10 n=31 v=31
125624 On ch=10 n=28 v=31
125632 On ch=10 n=28 v=0
125632 On ch=10 n=31 v=0
125632 On ch=10 n=31 v=31
125632 On ch=10 n=28 v=31
125640 On ch=10 n=28 v=0
125640 On ch=10 n=31 v=0
125640 On ch=10 n=31 v=31
125640 On ch=10 n=28 v=31
125648 On ch=10 n=28 v=0
125648 On ch=10 n=31 v=0
125648 On ch=10 n=31 v=31
125648 On ch=10 n=28 v=31
125656 On ch=10 n=28 v=0
125656 On ch=10 n=31 v=0
125656 On ch=10 n=31 v=31
125656 On ch=10 n=28 v=31
125664 On ch=10 n=28 v=0
125664 On ch=10 n=31 v=0
125664 On ch=10 n=28 v=31
125664 On ch=10 n=31 v=31
125672 On ch=10 n=31 v=0
125672 On ch=10 n=28 v=0
125672 On ch=10 n=28 v=31
125672 On ch=10 n=31 v=31
125680 On ch=10 n=31 v=0
125680 On ch=10 n=28 v=0
125680 On ch=10 n=28 v=31
125680 On ch=10 n=31 v=31
125688 On ch=10 n=31 v=0
125688 On ch=10 n=28 v=0
125688 On ch=10 n=28 v=31
125688 On ch=10 n=31 v=31
125696 On ch=10 n=31 v=0
125696 On ch=10 n=28 v=0
125696 On ch=10 n=28 v=31
125696 On ch=10 n=31 v=31
125704 On ch=10 n=31 v=0
125704 On ch=10 n=28 v=0
125704 On ch=10 n=28 v=31
125704 On ch=10 n=31 v=31
125712 On ch=10 n=31 v=0
125712 On ch=10 n=28 v=0
125712 On ch=10 n=28 v=31
125712 On ch=10 n=31 v=31
125720 On ch=10 n=31 v=0
125720 On ch=10 n=28 v=0
125720 On ch=10 n=28 v=31
125720 On ch=10 n=31 v=31
125728 On ch=10 n=31 v=0
125728 On ch=10 n=28 v=0
125728 On ch=10 n=28 v=31
125728 On ch=10 n=31 v=31
125736 On ch=10 n=31 v=0
125736 On ch=10 n=28 v=0
125736 On ch=10 n=28 v=31
125736 On ch=10 n=31 v=31
125744 On ch=10 n=31 v=0
125744 On ch=10 n=28 v=0
125744 On ch=10 n=28 v=31
125744 On ch=10 n=31 v=31
125752 On ch=10 n=31 v=0
125752 On ch=10 n=28 v=0
125752 On ch=10 n=28 v=31
125752 On ch=10 n=31 v=31
125760 On ch=10 n=31 v=0
125760 On ch=10 n=28 v=0
125760 On ch=10 n=28 v=31
125760 On ch=10 n=31 v=31
125768 On ch=10 n=31 v=0
125768 On ch=10 n=28 v=0
125768 On ch=10 n=28 v=31
125768 On ch=10 n=31 v=31
125776 On ch=10 n=31 v=0
125776 On ch=10 n=28 v=0
125776 On ch=10 n=28 v=31
125776 On ch=10 n=31 v=31
125784 On ch=10 n=31 v=0
125784 On ch=10 n=28 v=0
125784 On ch=10 n=28 v=31
125784 On ch=10 n=31 v=31
125792 On ch=10 n=31 v=0
125792 On ch=10 n=28 v=0
125792 On ch=10 n=28 v=31
125792 On ch=10 n=31 v=31
125800 On ch=10 n=31 v=0
125800 On ch=10 n=28 v=0
125800 On ch=10 n=28 v=31
125800 On ch=10 n=31 v=31
125808 On ch=10 n=31 v=0
125808 On ch=10 n=28 v=0
125808 On ch=10 n=28 v=31
125808 On ch=10 n=31 v=31
125816 On ch=10 n=31 v=0
125816 On ch=10 n=28 v=0
125816 On ch=10 n=28 v=31
125816 On ch=10 n=31 v=31
125824 On ch=10 n=31 v=0
125824 On ch=10 n=28 v=0
125824 On ch=10 n=28 v=31
125824 On ch=10 n=31 v=31
125832 On ch=10 n=31 v=0
125832 On ch=10 n=28 v=0
125832 On ch=10 n=28 v=31
125832 On ch=10 n=31 v=31
125840 On ch=10 n=31 v=0
125840 On ch=10 n=28 v=0
125840 On ch=10 n=28 v=31
125840 On ch=10 n=31 v=31
125848 On ch=10 n=31 v=0
125848 On ch=10 n=28 v=0
125848 On ch=10 n=28 v=31
125848 On ch=10 n=31 v=31
125856 On ch=10 n=31 v=0
125856 On ch=10 n=28 v=0
125856 On ch=10 n=28 v=31
125856 On ch=10 n=31 v=31
125864 On ch=10 n=31 v=0
125864 On ch=10 n=28 v=0
125864 On ch=10 n=28 v=31
125864 On ch=10 n=31 v=31
125872 On ch=10 n=31 v=0
125872 On ch=10 n=28 v=0
125872 On ch=10 n=28 v=31
125872 On ch=10 n=31 v=31
125880 On ch=10 n=31 v=0
125880 On ch=10 n=28 v=0
125880 On ch=10 n=28 v=31
125880 On ch=10 n=31 v=31
125888 On ch=10 n=31 v=0
125888 On ch=10 n=28 v=0
125888 On ch=10 n=28 v=31
125888 On ch=10 n=31 v=31
125896 On ch=10 n=31 v=0
125896 On ch=10 n=28 v=0
125896 On ch=10 n=28 v=31
125896 On ch=10 n=31 v=31
125904 On ch=10 n=31 v=0
125904 On ch=10 n=28 v=0
125904 On ch=10 n=28 v=31
125904 On ch=10 n=31 v=31
125912 On ch=10 n=31 v=0
125912 On ch=10 n=28 v=0
125912 On ch=10 n=28 v=31
125912 On ch=10 n=31 v=31
125920 On ch=10 n=31 v=0
125920 On ch=10 n=28 v=0
125920 On ch=10 n=28 v=31
125920 On ch=10 n=31 v=31
125928 On ch=10 n=31 v=0
125928 On ch=10 n=28 v=0
125928 On ch=10 n=28 v=31
125928 On ch=10 n=31 v=31
125936 On ch=10 n=31 v=0
125936 On ch=10 n=28 v=0
125936 On ch=10 n=28 v=31
125936 On ch=10 n=31 v=31
125944 On ch=10 n=31 v=0
125944 On ch=10 n=28 v=0
125944 On ch=10 n=28 v=31
125944 On ch=10 n=31 v=31
125952 On ch=10 n=31 v=0
125952 On ch=10 n=28 v=0
125952 Par ch=10 c=11 v=64
125952 On ch=10 n=28 v=31
125952 On ch=10 n=31 v=31
125960 On ch=10 n=31 v=0
125960 On ch=10 n=28 v=0
125960 Par ch=10 c=11 v=65
125960 On ch=10 n=28 v=31
125960 On ch=10 n=31 v=31
125968 On ch=10 n=31 v=0
125968 On ch=10 n=28 v=0
125968 Par ch=10 c=11 v=66
125968 On ch=10 n=28 v=31
125968 On ch=10 n=31 v=31
125972 Par ch=10 c=11 v=67
125976 On ch=10 n=31 v=0
125976 On ch=10 n=28 v=0
125976 On ch=10 n=28 v=31
125976 On ch=10 n=31 v=31
125980 Par ch=10 c=11 v=68
125984 On ch=10 n=31 v=0
125984 On ch=10 n=28 v=0
125984 Par ch=10 c=11 v=69
125984 On ch=10 n=28 v=31
125984 On ch=10 n=31 v=31
125992 On ch=10 n=31 v=0
125992 On ch=10 n=28 v=0
125992 Par ch=10 c=11 v=70
125992 On ch=10 n=28 v=31
125992 On ch=10 n=31 v=31
125996 Par ch=10 c=11 v=71
126000 On ch=10 n=31 v=0
126000 On ch=10 n=28 v=0
126000 On ch=10 n=28 v=31
126000 On ch=10 n=31 v=31
126004 Par ch=10 c=11 v=72
126008 On ch=10 n=31 v=0
126008 On ch=10 n=28 v=0
126008 Par ch=10 c=11 v=73
126008 On ch=10 n=28 v=31
126008 On ch=10 n=31 v=31
126016 On ch=10 n=31 v=0
126016 On ch=10 n=28 v=0
126016 Par ch=10 c=11 v=74
126016 On ch=10 n=28 v=31
126016 On ch=10 n=31 v=31
126020 Par ch=10 c=11 v=75
126024 On ch=10 n=31 v=0
126024 On ch=10 n=28 v=0
126024 On ch=10 n=28 v=31
126024 On ch=10 n=31 v=31
126028 Par ch=10 c=11 v=76
126032 On ch=10 n=31 v=0
126032 On ch=10 n=28 v=0
126032 Par ch=10 c=11 v=77
126032 On ch=10 n=28 v=31
126032 On ch=10 n=31 v=31
126040 On ch=10 n=31 v=0
126040 On ch=10 n=28 v=0
126040 Par ch=10 c=11 v=78
126040 On ch=10 n=28 v=31
126040 On ch=10 n=31 v=31
126044 Par ch=10 c=11 v=79
126048 On ch=10 n=31 v=0
126048 On ch=10 n=28 v=0
126048 On ch=10 n=31 v=31
126048 On ch=10 n=28 v=31
126052 Par ch=10 c=11 v=80
126056 On ch=10 n=28 v=0
126056 On ch=10 n=31 v=0
126056 Par ch=10 c=11 v=81
126056 On ch=10 n=31 v=31
126056 On ch=10 n=28 v=31
126064 On ch=10 n=28 v=0
126064 On ch=10 n=31 v=0
126064 Par ch=10 c=11 v=82
126064 On ch=10 n=31 v=31
126064 On ch=10 n=28 v=31
126068 Par ch=10 c=11 v=83
126072 On ch=10 n=28 v=0
126072 On ch=10 n=31 v=0
126072 On ch=10 n=31 v=31
126072 On ch=10 n=28 v=31
126076 Par ch=10 c=11 v=84
126080 On ch=10 n=28 v=0
126080 On ch=10 n=31 v=0
126080 Par ch=10 c=11 v=85
126080 On ch=10 n=31 v=31
126080 On ch=10 n=28 v=31
126088 On ch=10 n=28 v=0
126088 On ch=10 n=31 v=0
126088 Par ch=10 c=11 v=86
126088 On ch=10 n=31 v=31
126088 On ch=10 n=28 v=31
126096 On ch=10 n=28 v=0
126096 On ch=10 n=31 v=0
126096 Par ch=10 c=11 v=87
126096 On ch=10 n=31 v=31
126096 On ch=10 n=28 v=31
126100 Par ch=10 c=11 v=88
126104 On ch=10 n=28 v=0
126104 On ch=10 n=31 v=0
126104 On ch=10 n=31 v=31
126104 On ch=10 n=28 v=31
126108 Par ch=10 c=11 v=89
126112 On ch=10 n=28 v=0
126112 On ch=10 n=31 v=0
126112 Par ch=10 c=11 v=90
126112 On ch=10 n=31 v=31
126112 On ch=10 n=28 v=31
126120 On ch=10 n=28 v=0
126120 On ch=10 n=31 v=0
126120 Par ch=10 c=11 v=91
126120 On ch=10 n=31 v=31
126120 On ch=10 n=28 v=31
126124 Par ch=10 c=11 v=92
126128 On ch=10 n=28 v=0
126128 On ch=10 n=31 v=0
126128 On ch=10 n=31 v=31
126128 On ch=10 n=28 v=31
126132 Par ch=10 c=11 v=93
126136 On ch=10 n=28 v=0
126136 On ch=10 n=31 v=0
126136 Par ch=10 c=11 v=94
126136 On ch=10 n=31 v=31
126136 On ch=10 n=28 v=31
126144 On ch=10 n=28 v=0
126144 On ch=10 n=31 v=0
126144 Par ch=10 c=11 v=95
126144 On ch=10 n=31 v=31
126144 On ch=10 n=28 v=31
126148 Par ch=10 c=11 v=96
126152 On ch=10 n=28 v=0
126152 On ch=10 n=31 v=0
126152 On ch=10 n=31 v=31
126152 On ch=10 n=28 v=31
126156 Par ch=10 c=11 v=97
126160 On ch=10 n=28 v=0
126160 On ch=10 n=31 v=0
126160 Par ch=10 c=11 v=98
126160 On ch=10 n=31 v=31
126160 On ch=10 n=28 v=31
126168 On ch=10 n=28 v=0
126168 On ch=10 n=31 v=0
126168 Par ch=10 c=11 v=99
126168 On ch=10 n=31 v=31
126168 On ch=10 n=28 v=31
126172 Par ch=10 c=11 v=100
126176 On ch=10 n=28 v=0
126176 On ch=10 n=31 v=0
126176 On ch=10 n=31 v=31
126176 On ch=10 n=28 v=31
126180 Par ch=10 c=11 v=101
126184 On ch=10 n=28 v=0
126184 On ch=10 n=31 v=0
126184 Par ch=10 c=11 v=102
126184 On ch=10 n=31 v=31
126184 On ch=10 n=28 v=31
126192 On ch=10 n=28 v=0
126192 On ch=10 n=31 v=0
126192 Par ch=10 c=11 v=103
126192 On ch=10 n=31 v=31
126192 On ch=10 n=28 v=31
126196 Par ch=10 c=11 v=104
126200 On ch=10 n=28 v=0
126200 On ch=10 n=31 v=0
126200 On ch=10 n=31 v=31
126200 On ch=10 n=28 v=31
126204 Par ch=10 c=11 v=105
126208 On ch=10 n=28 v=0
126208 On ch=10 n=31 v=0
126208 Par ch=10 c=11 v=106
126208 On ch=10 n=31 v=31
126208 On ch=10 n=28 v=31
126216 On ch=10 n=28 v=0
126216 On ch=10 n=31 v=0
126216 Par ch=10 c=11 v=107
126216 On ch=10 n=31 v=31
126216 On ch=10 n=28 v=31
126224 On ch=10 n=28 v=0
126224 On ch=10 n=31 v=0
126224 Par ch=10 c=11 v=108
126224 On ch=10 n=31 v=31
126224 On ch=10 n=28 v=31
126228 Par ch=10 c=11 v=109
126232 On ch=10 n=28 v=0
126232 On ch=10 n=31 v=0
126232 On ch=10 n=31 v=31
126232 On ch=10 n=28 v=31
126236 Par ch=10 c=11 v=110
126240 On ch=10 n=28 v=0
126240 On ch=10 n=31 v=0
126240 Par ch=10 c=11 v=111
126240 On ch=10 n=31 v=31
126240 On ch=10 n=28 v=31
126248 On ch=10 n=28 v=0
126248 On ch=10 n=31 v=0
126248 Par ch=10 c=11 v=112
126248 On ch=10 n=31 v=31
126248 On ch=10 n=28 v=31
126252 Par ch=10 c=11 v=113
126256 On ch=10 n=28 v=0
126256 On ch=10 n=31 v=0
126256 On ch=10 n=31 v=31
126256 On ch=10 n=28 v=31
126260 Par ch=10 c=11 v=114
126264 On ch=10 n=28 v=0
126264 On ch=10 n=31 v=0
126264 Par ch=10 c=11 v=115
126264 On ch=10 n=31 v=31
126264 On ch=10 n=28 v=31
126272 On ch=10 n=28 v=0
126272 On ch=10 n=31 v=0
126272 Par ch=10 c=11 v=116
126272 On ch=10 n=31 v=31
126272 On ch=10 n=28 v=31
126276 Par ch=10 c=11 v=117
126280 On ch=10 n=28 v=0
126280 On ch=10 n=31 v=0
126280 On ch=10 n=31 v=31
126280 On ch=10 n=28 v=31
126284 Par ch=10 c=11 v=118
126288 On ch=10 n=28 v=0
126288 On ch=10 n=31 v=0
126288 Par ch=10 c=11 v=119
126288 On ch=10 n=31 v=31
126288 On ch=10 n=28 v=31
126296 On ch=10 n=28 v=0
126296 On ch=10 n=31 v=0
126296 Par ch=10 c=11 v=120
126296 On ch=10 n=31 v=31
126296 On ch=10 n=28 v=31
126300 Par ch=10 c=11 v=121
126304 On ch=10 n=28 v=0
126304 On ch=10 n=31 v=0
126304 On ch=10 n=31 v=31
126304 On ch=10 n=28 v=31
126308 Par ch=10 c=11 v=122
126312 On ch=10 n=28 v=0
126312 On ch=10 n=31 v=0
126312 Par ch=10 c=11 v=123
126312 On ch=10 n=31 v=31
126312 On ch=10 n=28 v=31
126320 On ch=10 n=28 v=0
126320 On ch=10 n=31 v=0
126320 Par ch=10 c=11 v=124
126320 On ch=10 n=31 v=31
126320 On ch=10 n=28 v=31
126324 Par ch=10 c=11 v=125
126328 On ch=10 n=28 v=0
126328 On ch=10 n=31 v=0
126328 On ch=10 n=31 v=31
126328 On ch=10 n=28 v=31
126332 Par ch=10 c=11 v=126
126336 On ch=10 n=28 v=0
126336 On ch=10 n=31 v=0
126336 Par ch=10 c=11 v=64
126336 On ch=10 n=31 v=127
126336 On ch=10 n=28 v=127
126374 On ch=10 n=28 v=0
126374 On ch=10 n=31 v=0
126384 On ch=10 n=31 v=127
126384 On ch=10 n=28 v=127
126422 On ch=10 n=28 v=0
126422 On ch=10 n=31 v=0
142080 On ch=10 n=92 v=31
142157 On ch=10 n=92 v=0
142464 On ch=10 n=92 v=31
142541 On ch=10 n=92 v=0
142848 On ch=10 n=92 v=31
142925 On ch=10 n=92 v=0
156672 On ch=10 n=28 v=31
156672 On ch=10 n=31 v=31
156826 On ch=10 n=31 v=0
156826 On ch=10 n=28 v=0
157056 On ch=10 n=28 v=31
157056 On ch=10 n=31 v=31
157210 On ch=10 n=31 v=0
157210 On ch=10 n=28 v=0
166272 On ch=10 n=28 v=31
166272 On ch=10 n=31 v=31
166426 On ch=10 n=31 v=0
166426 On ch=10 n=28 v=0
166656 On ch=10 n=28 v=31
166656 On ch=10 n=31 v=31
166810 On ch=10 n=31 v=0
166810 On ch=10 n=28 v=0
167040 On ch=10 n=28 v=31
167040 On ch=10 n=31 v=31
167194 On ch=10 n=31 v=0
167194 On ch=10 n=28 v=0
167424 On ch=10 n=28 v=31
167424 On ch=10 n=31 v=31
167578 On ch=10 n=31 v=0
167578 On ch=10 n=28 v=0
167808 On ch=10 n=28 v=31
167808 On ch=10 n=31 v=31
167962 On ch=10 n=31 v=0
167962 On ch=10 n=28 v=0
168192 On ch=10 n=28 v=31
168192 On ch=10 n=31 v=31
168346 On ch=10 n=31 v=0
168346 On ch=10 n=28 v=0
168576 On ch=10 n=28 v=31
168576 On ch=10 n=31 v=31
169267 On ch=10 n=31 v=0
169267 On ch=10 n=28 v=0
169267 Meta TrkEnd
TrkEnd
MTrk
0 Meta 0x21 00
0 Meta TrkName "HORN"
192 Par ch=11 c=1 v=8
196 Par ch=11 c=7 v=127
200 Par ch=11 c=10 v=1
204 Par ch=11 c=11 v=64
208 Par ch=11 c=91 v=96
212 Par ch=11 c=93 v=48
216 Par ch=11 c=0 v=0
216 Par ch=11 c=32 v=0
216 PrCh ch=11 p=60
8736 On ch=11 n=60 v=47
8767 On ch=11 n=60 v=0
8832 On ch=11 n=67 v=47
8986 On ch=11 n=67 v=0
9120 On ch=11 n=60 v=47
9151 On ch=11 n=60 v=0
9192 On ch=11 n=60 v=47
9208 On ch=11 n=60 v=0
9216 On ch=11 n=67 v=47
9293 On ch=11 n=67 v=0
9312 On ch=11 n=60 v=47
9343 On ch=11 n=60 v=0
9384 On ch=11 n=60 v=47
9400 On ch=11 n=60 v=0
9408 On ch=11 n=67 v=47
9485 On ch=11 n=67 v=0
9504 On ch=11 n=60 v=47
9535 On ch=11 n=60 v=0
9576 On ch=11 n=60 v=47
9592 On ch=11 n=60 v=0
9600 On ch=11 n=67 v=95
9754 On ch=11 n=67 v=0
9792 On ch=11 n=68 v=95
9792 On ch=11 n=72 v=95
9946 On ch=11 n=72 v=0
9946 On ch=11 n=68 v=0
9984 On ch=11 n=67 v=95
10138 On ch=11 n=67 v=0
10176 On ch=11 n=72 v=95
10176 On ch=11 n=68 v=95
10330 On ch=11 n=68 v=0
10330 On ch=11 n=72 v=0
10368 On ch=11 n=55 v=47
10368 On ch=11 n=67 v=47
11059 On ch=11 n=67 v=0
11059 On ch=11 n=55 v=0
11136 On ch=11 n=68 v=95
11136 On ch=11 n=72 v=95
11184 Par ch=11 c=11 v=32
11827 On ch=11 n=72 v=0
11827 On ch=11 n=68 v=0
11904 Par ch=11 c=11 v=64
11904 On ch=11 n=65 v=95
11904 On ch=11 n=71 v=95
12134 On ch=11 n=71 v=0
12134 On ch=11 n=65 v=0
12192 On ch=11 n=72 v=95
12192 On ch=11 n=65 v=95
12269 On ch=11 n=65 v=0
12269 On ch=11 n=72 v=0
12288 On ch=11 n=71 v=95
12288 On ch=11 n=65 v=95
12442 On ch=11 n=65 v=0
12442 On ch=11 n=71 v=0
12480 On ch=11 n=68 v=95
12480 On ch=11 n=59 v=95
12634 On ch=11 n=59 v=0
12634 On ch=11 n=68 v=0
12672 On ch=11 n=67 v=95
12672 On ch=11 n=60 v=95
12902 On ch=11 n=60 v=0
12902 On ch=11 n=67 v=0
12960 On ch=11 n=66 v=95
12960 On ch=11 n=60 v=95
13037 On ch=11 n=60 v=0
13037 On ch=11 n=66 v=0
13056 On ch=11 n=67 v=95
13056 On ch=11 n=60 v=95
13286 On ch=11 n=60 v=0
13286 On ch=11 n=67 v=0
13440 Par ch=11 c=11 v=64
13440 On ch=11 n=58 v=47
13440 On ch=11 n=61 v=47
13440 On ch=11 n=67 v=47
13594 On ch=11 n=67 v=0
13632 Par ch=11 c=11 v=64
13632 On ch=11 n=64 v=47
13644 Par ch=11 c=11 v=65
13652 Par ch=11 c=11 v=66
13660 Par ch=11 c=11 v=67
13672 Par ch=11 c=11 v=68
13680 Par ch=11 c=11 v=69
13688 Par ch=11 c=11 v=70
13696 Par ch=11 c=11 v=71
13708 Par ch=11 c=11 v=72
13716 Par ch=11 c=11 v=73
13724 Par ch=11 c=11 v=74
13736 Par ch=11 c=11 v=75
13744 Par ch=11 c=11 v=76
13747 On ch=11 n=64 v=0
13752 Par ch=11 c=11 v=77
13760 Par ch=11 c=11 v=78
13772 Par ch=11 c=11 v=79
13776 On ch=11 n=65 v=47
13780 Par ch=11 c=11 v=80
13788 Par ch=11 c=11 v=81
13800 Par ch=11 c=11 v=82
13807 On ch=11 n=65 v=0
13808 Par ch=11 c=11 v=83
13816 Par ch=11 c=11 v=84
13824 Par ch=11 c=11 v=85
13824 On ch=11 n=68 v=47
13836 Par ch=11 c=11 v=86
13844 Par ch=11 c=11 v=87
13852 Par ch=11 c=11 v=88
13862 On ch=11 n=68 v=0
13864 Par ch=11 c=11 v=89
13872 Par ch=11 c=11 v=90
13880 Par ch=11 c=11 v=91
13888 Par ch=11 c=11 v=92
13900 Par ch=11 c=11 v=93
13908 Par ch=11 c=11 v=94
13916 Par ch=11 c=11 v=95
13920 On ch=11 n=67 v=47
13928 Par ch=11 c=11 v=96
13936 Par ch=11 c=11 v=97
13944 Par ch=11 c=11 v=98
13952 Par ch=11 c=11 v=99
13964 Par ch=11 c=11 v=100
13972 Par ch=11 c=11 v=101
13978 On ch=11 n=61 v=0
13978 On ch=11 n=58 v=0
13980 Par ch=11 c=11 v=102
13992 Par ch=11 c=11 v=103
13997 On ch=11 n=67 v=0
14000 Par ch=11 c=11 v=104
14008 Par ch=11 c=11 v=105
14016 Par ch=11 c=11 v=106
14028 Par ch=11 c=11 v=107
14036 Par ch=11 c=11 v=108
14044 Par ch=11 c=11 v=109
14056 Par ch=11 c=11 v=110
14064 Par ch=11 c=11 v=111
14072 Par ch=11 c=11 v=112
14080 Par ch=11 c=11 v=113
14080 On ch=11 n=48 v=47
14080 On ch=11 n=60 v=47
14092 Par ch=11 c=11 v=114
14100 Par ch=11 c=11 v=115
14101 On ch=11 n=60 v=0
14101 On ch=11 n=48 v=0
14108 Par ch=11 c=11 v=116
14112 On ch=11 n=55 v=47
14112 On ch=11 n=67 v=47
14120 Par ch=11 c=11 v=117
14128 Par ch=11 c=11 v=118
14133 On ch=11 n=67 v=0
14133 On ch=11 n=55 v=0
14136 Par ch=11 c=11 v=119
14144 Par ch=11 c=11 v=120
14144 On ch=11 n=58 v=47
14144 On ch=11 n=70 v=47
14156 Par ch=11 c=11 v=121
14164 Par ch=11 c=11 v=122
14165 On ch=11 n=70 v=0
14165 On ch=11 n=58 v=0
14172 Par ch=11 c=11 v=123
14176 On ch=11 n=61 v=47
14176 On ch=11 n=73 v=47
14184 Par ch=11 c=11 v=124
14192 Par ch=11 c=11 v=125
14197 On ch=11 n=73 v=0
14197 On ch=11 n=61 v=0
14200 Par ch=11 c=11 v=126
14208 Par ch=11 c=11 v=64
14208 On ch=11 n=60 v=111
14208 On ch=11 n=72 v=111
14239 On ch=11 n=72 v=0
14239 On ch=11 n=60 v=0
14280 On ch=11 n=58 v=111
14280 On ch=11 n=70 v=111
14296 On ch=11 n=70 v=0
14296 On ch=11 n=58 v=0
14304 On ch=11 n=56 v=111
14304 On ch=11 n=68 v=111
14335 On ch=11 n=68 v=0
14335 On ch=11 n=56 v=0
14376 On ch=11 n=55 v=111
14376 On ch=11 n=67 v=111
14392 On ch=11 n=67 v=0
14392 On ch=11 n=55 v=0
14400 On ch=11 n=53 v=111
14400 On ch=11 n=65 v=111
14431 On ch=11 n=65 v=0
14431 On ch=11 n=53 v=0
14472 On ch=11 n=51 v=111
14472 On ch=11 n=63 v=111
14488 On ch=11 n=63 v=0
14488 On ch=11 n=51 v=0
14496 On ch=11 n=49 v=111
14496 On ch=11 n=61 v=111
14527 On ch=11 n=61 v=0
14527 On ch=11 n=49 v=0
14568 On ch=11 n=48 v=111
14568 On ch=11 n=60 v=111
14584 On ch=11 n=60 v=0
14584 On ch=11 n=48 v=0
14592 On ch=11 n=56 v=111
14592 On ch=11 n=68 v=111
14623 On ch=11 n=68 v=0
14624 On ch=11 n=56 v=0
14664 On ch=11 n=55 v=111
14664 On ch=11 n=67 v=111
14680 On ch=11 n=67 v=0
14680 On ch=11 n=55 v=0
14688 On ch=11 n=53 v=111
14688 On ch=11 n=65 v=111
14719 On ch=11 n=65 v=0
14720 On ch=11 n=53 v=0
14760 On ch=11 n=51 v=111
14760 On ch=11 n=63 v=111
14776 On ch=11 n=63 v=0
14776 On ch=11 n=51 v=0
14784 On ch=11 n=49 v=111
14784 On ch=11 n=61 v=111
14815 On ch=11 n=61 v=0
14816 On ch=11 n=49 v=0
14856 On ch=11 n=48 v=111
14856 On ch=11 n=60 v=111
14872 On ch=11 n=60 v=0
14872 On ch=11 n=48 v=0
14880 On ch=11 n=46 v=111
14880 On ch=11 n=58 v=111
14911 On ch=11 n=58 v=0
14912 On ch=11 n=46 v=0
14952 On ch=11 n=44 v=111
14952 On ch=11 n=56 v=111
14968 On ch=11 n=56 v=0
14968 On ch=11 n=44 v=0
14976 On ch=11 n=43 v=111
14976 On ch=11 n=55 v=111
15014 On ch=11 n=55 v=0
15014 On ch=11 n=43 v=0
15072 On ch=11 n=55 v=127
15072 On ch=11 n=67 v=127
15149 On ch=11 n=67 v=0
15149 On ch=11 n=55 v=0
15168 On ch=11 n=54 v=127
15168 On ch=11 n=66 v=127
15245 On ch=11 n=66 v=0
15245 On ch=11 n=54 v=0
15264 On ch=11 n=53 v=127
15264 On ch=11 n=65 v=127
15341 On ch=11 n=65 v=0
15341 On ch=11 n=53 v=0
15360 On ch=11 n=67 v=127
15360 On ch=11 n=64 v=127
15360 On ch=11 n=52 v=127
15398 On ch=11 n=52 v=0
15398 On ch=11 n=64 v=0
15456 On ch=11 n=51 v=127
15456 On ch=11 n=63 v=127
15512 On ch=11 n=67 v=0
15552 On ch=11 n=67 v=127
15552 On ch=11 n=65 v=127
15608 On ch=11 n=63 v=0
15608 On ch=11 n=51 v=0
15648 On ch=11 n=50 v=127
15648 On ch=11 n=62 v=127
15704 On ch=11 n=67 v=0
15704 On ch=11 n=65 v=0
15724 On ch=11 n=50 v=0
15724 On ch=11 n=62 v=0
15744 On ch=11 n=48 v=127
15744 On ch=11 n=60 v=127
15744 On ch=11 n=55 v=127
15744 On ch=11 n=63 v=127
15782 On ch=11 n=63 v=0
15782 On ch=11 n=48 v=0
15782 On ch=11 n=60 v=0
15782 On ch=11 n=55 v=0
15840 On ch=11 n=48 v=127
15840 On ch=11 n=60 v=127
15840 On ch=11 n=55 v=127
15840 On ch=11 n=63 v=127
15878 On ch=11 n=63 v=0
15878 On ch=11 n=48 v=0
15878 On ch=11 n=60 v=0
15878 On ch=11 n=55 v=0
16000 On ch=11 n=63 v=127
16000 On ch=11 n=60 v=127
16000 On ch=11 n=55 v=127
16000 On ch=11 n=48 v=127
16021 On ch=11 n=48 v=0
16021 On ch=11 n=63 v=0
16021 On ch=11 n=60 v=0
16021 On ch=11 n=55 v=0
16032 On ch=11 n=63 v=127
16032 On ch=11 n=60 v=127
16032 On ch=11 n=55 v=127
16032 On ch=11 n=48 v=127
16053 On ch=11 n=48 v=0
16053 On ch=11 n=63 v=0
16053 On ch=11 n=60 v=0
16053 On ch=11 n=55 v=0
16064 On ch=11 n=63 v=127
16064 On ch=11 n=60 v=127
16064 On ch=11 n=55 v=127
16064 On ch=11 n=48 v=127
16085 On ch=11 n=48 v=0
16085 On ch=11 n=63 v=0
16085 On ch=11 n=60 v=0
16085 On ch=11 n=55 v=0
16096 On ch=11 n=63 v=127
16096 On ch=11 n=60 v=127
16096 On ch=11 n=55 v=127
16096 On ch=11 n=48 v=127
16117 On ch=11 n=48 v=0
16117 On ch=11 n=63 v=0
16117 On ch=11 n=60 v=0
16117 On ch=11 n=55 v=0
16128 On ch=11 n=63 v=127
16128 On ch=11 n=55 v=127
16128 On ch=11 n=60 v=127
16128 On ch=11 n=48 v=127
16166 On ch=11 n=48 v=0
16166 On ch=11 n=63 v=0
16166 On ch=11 n=55 v=0
16166 On ch=11 n=60 v=0
16224 On ch=11 n=63 v=127
16224 On ch=11 n=55 v=127
16224 On ch=11 n=60 v=127
16224 On ch=11 n=48 v=127
16262 On ch=11 n=48 v=0
16262 On ch=11 n=63 v=0
16262 On ch=11 n=55 v=0
16262 On ch=11 n=60 v=0
16384 On ch=11 n=48 v=127
16384 On ch=11 n=55 v=127
16384 On ch=11 n=60 v=127
16384 On ch=11 n=63 v=127
16405 On ch=11 n=63 v=0
16405 On ch=11 n=48 v=0
16405 On ch=11 n=55 v=0
16405 On ch=11 n=60 v=0
16416 On ch=11 n=48 v=127
16416 On ch=11 n=55 v=127
16416 On ch=11 n=60 v=127
16416 On ch=11 n=63 v=127
16437 On ch=11 n=63 v=0
16437 On ch=11 n=48 v=0
16437 On ch=11 n=55 v=0
16437 On ch=11 n=60 v=0
16448 On ch=11 n=48 v=127
16448 On ch=11 n=55 v=127
16448 On ch=11 n=60 v=127
16448 On ch=11 n=63 v=127
16469 On ch=11 n=63 v=0
16469 On ch=11 n=48 v=0
16469 On ch=11 n=55 v=0
16469 On ch=11 n=60 v=0
16480 On ch=11 n=48 v=127
16480 On ch=11 n=55 v=127
16480 On ch=11 n=60 v=127
16480 On ch=11 n=63 v=127
16501 On ch=11 n=63 v=0
16501 On ch=11 n=48 v=0
16501 On ch=11 n=55 v=0
16501 On ch=11 n=60 v=0
16512 On ch=11 n=63 v=127
16512 On ch=11 n=60 v=127
16512 On ch=11 n=55 v=127
16512 On ch=11 n=48 v=127
16550 On ch=11 n=48 v=0
16550 On ch=11 n=63 v=0
16550 On ch=11 n=60 v=0
16550 On ch=11 n=55 v=0
18432 On ch=11 n=64 v=15
18432 On ch=11 n=68 v=15
18720 On ch=11 n=68 v=0
18720 On ch=11 n=64 v=0
18720 On ch=11 n=59 v=15
18720 On ch=11 n=66 v=15
18816 On ch=11 n=66 v=0
18816 On ch=11 n=59 v=0
18816 On ch=11 n=56 v=15
18816 On ch=11 n=64 v=15
18912 On ch=11 n=64 v=0
18912 On ch=11 n=56 v=0
18912 On ch=11 n=66 v=15
18912 On ch=11 n=59 v=15
19008 On ch=11 n=59 v=0
19008 On ch=11 n=66 v=0
19008 On ch=11 n=64 v=15
19008 On ch=11 n=68 v=15
19104 On ch=11 n=68 v=0
19104 On ch=11 n=64 v=0
19104 On ch=11 n=66 v=15
19104 On ch=11 n=59 v=15
19200 On ch=11 n=59 v=0
19200 On ch=11 n=66 v=0
19200 On ch=11 n=64 v=15
19200 On ch=11 n=56 v=15
19488 On ch=11 n=56 v=0
19488 On ch=11 n=64 v=0
19488 On ch=11 n=66 v=15
19488 On ch=11 n=59 v=15
19584 On ch=11 n=59 v=0
19584 On ch=11 n=66 v=0
19584 On ch=11 n=68 v=15
19584 On ch=11 n=64 v=15
19680 On ch=11 n=64 v=0
19680 On ch=11 n=68 v=0
19680 On ch=11 n=71 v=15
19680 On ch=11 n=68 v=15
19728 On ch=11 n=68 v=0
19728 On ch=11 n=71 v=0
19728 On ch=11 n=66 v=15
19728 On ch=11 n=69 v=15
19776 On ch=11 n=69 v=0
19776 On ch=11 n=66 v=0
19776 On ch=11 n=64 v=15
19776 On ch=11 n=68 v=15
19930 On ch=11 n=68 v=0
19930 On ch=11 n=64 v=0
19968 On ch=11 n=64 v=15
19968 On ch=11 n=66 v=15
21427 On ch=11 n=66 v=0
21427 On ch=11 n=64 v=0
21504 On ch=11 n=63 v=15
21504 On ch=11 n=66 v=15
22579 On ch=11 n=66 v=0
22579 On ch=11 n=63 v=0
22656 On ch=11 n=63 v=79
22656 On ch=11 n=66 v=79
22656 On ch=11 n=54 v=79
22886 On ch=11 n=54 v=0
22886 On ch=11 n=66 v=0
22944 On ch=11 n=63 v=0
22944 On ch=11 n=63 v=95
22944 On ch=11 n=51 v=95
22982 On ch=11 n=51 v=0
22982 On ch=11 n=63 v=0
22992 On ch=11 n=65 v=95
22992 On ch=11 n=53 v=95
23030 On ch=11 n=53 v=0
23030 On ch=11 n=65 v=0
23040 On ch=11 n=63 v=79
23040 On ch=11 n=66 v=79
23040 On ch=11 n=54 v=79
23194 On ch=11 n=54 v=0
23194 On ch=11 n=66 v=0
23194 On ch=11 n=63 v=0
23232 Par ch=11 c=11 v=64
23232 On ch=11 n=61 v=79
23232 On ch=11 n=55 v=79
23232 On ch=11 n=64 v=79
23252 Par ch=11 c=11 v=65
23268 Par ch=11 c=11 v=66
23288 Par ch=11 c=11 v=67
23304 Par ch=11 c=11 v=68
23320 Par ch=11 c=11 v=69
23340 Par ch=11 c=11 v=70
23356 Par ch=11 c=11 v=71
23372 Par ch=11 c=11 v=72
23386 On ch=11 n=64 v=0
23386 On ch=11 n=55 v=0
23392 Par ch=11 c=11 v=73
23408 Par ch=11 c=11 v=74
23424 On ch=11 n=61 v=0
23424 Par ch=11 c=11 v=75
23424 On ch=11 n=56 v=79
23424 On ch=11 n=59 v=79
23424 On ch=11 n=63 v=79
23444 Par ch=11 c=11 v=76
23460 Par ch=11 c=11 v=77
23480 Par ch=11 c=11 v=78
23496 Par ch=11 c=11 v=79
23512 Par ch=11 c=11 v=80
23532 Par ch=11 c=11 v=81
23548 Par ch=11 c=11 v=82
23564 Par ch=11 c=11 v=83
23584 Par ch=11 c=11 v=84
23600 Par ch=11 c=11 v=85
23616 On ch=11 n=63 v=0
23616 On ch=11 n=59 v=0
23616 Par ch=11 c=11 v=86
23616 On ch=11 n=62 v=79
23636 Par ch=11 c=11 v=87
23652 Par ch=11 c=11 v=88
23672 Par ch=11 c=11 v=89
23688 Par ch=11 c=11 v=90
23704 Par ch=11 c=11 v=91
23724 Par ch=11 c=11 v=92
23731 On ch=11 n=56 v=0
23740 Par ch=11 c=11 v=93
23756 Par ch=11 c=11 v=94
23770 On ch=11 n=62 v=0
23776 Par ch=11 c=11 v=95
23792 Par ch=11 c=11 v=96
23808 On ch=11 n=63 v=79
23808 On ch=11 n=54 v=79
23923 On ch=11 n=54 v=0
23923 On ch=11 n=63 v=0
24000 On ch=11 n=67 v=79
24000 On ch=11 n=55 v=79
24008 Par ch=11 c=11 v=96
24016 Par ch=11 c=11 v=95
24024 Par ch=11 c=11 v=94
24032 Par ch=11 c=11 v=93
24040 Par ch=11 c=11 v=92
24048 Par ch=11 c=11 v=91
24052 Par ch=11 c=11 v=90
24060 Par ch=11 c=11 v=89
24068 Par ch=11 c=11 v=88
24076 Par ch=11 c=11 v=87
24084 Par ch=11 c=11 v=86
24092 Par ch=11 c=11 v=85
24096 Par ch=11 c=11 v=84
24104 Par ch=11 c=11 v=83
24112 Par ch=11 c=11 v=82
24120 Par ch=11 c=11 v=81
24128 Par ch=11 c=11 v=80
24136 Par ch=11 c=11 v=79
24144 Par ch=11 c=11 v=78
24148 Par ch=11 c=11 v=77
24156 Par ch=11 c=11 v=76
24164 Par ch=11 c=11 v=75
24172 Par ch=11 c=11 v=74
24180 Par ch=11 c=11 v=73
24188 Par ch=11 c=11 v=72
24192 Par ch=11 c=11 v=71
24200 Par ch=11 c=11 v=70
24208 Par ch=11 c=11 v=69
24216 Par ch=11 c=11 v=68
24224 Par ch=11 c=11 v=67
24232 Par ch=11 c=11 v=66
24240 Par ch=11 c=11 v=65
24244 Par ch=11 c=11 v=64
24252 Par ch=11 c=11 v=63
24260 Par ch=11 c=11 v=62
24268 Par ch=11 c=11 v=61
24276 Par ch=11 c=11 v=60
24284 Par ch=11 c=11 v=59
24288 Par ch=11 c=11 v=58
24296 Par ch=11 c=11 v=57
24304 Par ch=11 c=11 v=56
24312 Par ch=11 c=11 v=55
24320 Par ch=11 c=11 v=54
24328 Par ch=11 c=11 v=53
24336 Par ch=11 c=11 v=52
24340 Par ch=11 c=11 v=51
24348 Par ch=11 c=11 v=50
24356 Par ch=11 c=11 v=49
24364 Par ch=11 c=11 v=48
24372 Par ch=11 c=11 v=47
24380 Par ch=11 c=11 v=46
24384 Par ch=11 c=11 v=45
24392 Par ch=11 c=11 v=44
24400 Par ch=11 c=11 v=43
24408 Par ch=11 c=11 v=42
24416 Par ch=11 c=11 v=41
24422 On ch=11 n=55 v=0
24422 On ch=11 n=67 v=0
24424 Par ch=11 c=11 v=40
24432 Par ch=11 c=11 v=39
24436 Par ch=11 c=11 v=38
24444 Par ch=11 c=11 v=37
24452 Par ch=11 c=11 v=36
24460 Par ch=11 c=11 v=35
24468 Par ch=11 c=11 v=34
24476 Par ch=11 c=11 v=33
24480 Par ch=11 c=11 v=32
24528 Par ch=11 c=11 v=64
25728 On ch=11 n=60 v=47
25920 On ch=11 n=60 v=0
25920 On ch=11 n=62 v=47
25951 On ch=11 n=62 v=0
26016 On ch=11 n=65 v=47
26047 On ch=11 n=65 v=0
26088 On ch=11 n=68 v=47
26104 On ch=11 n=68 v=0
26112 On ch=11 n=72 v=47
26237 On ch=11 n=72 v=0
26496 On ch=11 n=72 v=95
26527 On ch=11 n=72 v=0
26688 On ch=11 n=72 v=95
26719 On ch=11 n=72 v=0
26880 On ch=11 n=72 v=95
26911 On ch=11 n=72 v=0
26952 On ch=11 n=67 v=95
26968 On ch=11 n=67 v=0
26976 On ch=11 n=60 v=95
27007 On ch=11 n=60 v=0
27264 On ch=11 n=72 v=95
27264 On ch=11 n=75 v=95
27295 On ch=11 n=75 v=0
27295 On ch=11 n=72 v=0
27336 On ch=11 n=67 v=95
27352 On ch=11 n=67 v=0
27360 On ch=11 n=60 v=95
27391 On ch=11 n=60 v=0
27648 On ch=11 n=63 v=95
27648 On ch=11 n=60 v=95
27696 Par ch=11 c=11 v=32
27955 On ch=11 n=60 v=0
27955 On ch=11 n=63 v=0
28032 Par ch=11 c=11 v=64
28032 On ch=11 n=63 v=95
28032 On ch=11 n=60 v=95
28088 Par ch=11 c=11 v=16
28096 Par ch=11 c=11 v=17
28104 Par ch=11 c=11 v=18
28108 Par ch=11 c=11 v=19
28116 Par ch=11 c=11 v=20
28124 Par ch=11 c=11 v=21
28128 Par ch=11 c=11 v=22
28136 Par ch=11 c=11 v=23
28144 Par ch=11 c=11 v=24
28148 Par ch=11 c=11 v=25
28156 Par ch=11 c=11 v=26
28164 Par ch=11 c=11 v=27
28168 Par ch=11 c=11 v=28
28176 Par ch=11 c=11 v=29
28184 Par ch=11 c=11 v=30
28188 Par ch=11 c=11 v=31
28196 Par ch=11 c=11 v=32
28204 Par ch=11 c=11 v=33
28208 Par ch=11 c=11 v=34
28216 Par ch=11 c=11 v=35
28224 Par ch=11 c=11 v=36
28228 Par ch=11 c=11 v=37
28236 Par ch=11 c=11 v=38
28244 Par ch=11 c=11 v=39
28248 Par ch=11 c=11 v=40
28256 Par ch=11 c=11 v=41
28264 Par ch=11 c=11 v=42
28272 Par ch=11 c=11 v=43
28276 Par ch=11 c=11 v=44
28284 Par ch=11 c=11 v=45
28292 Par ch=11 c=11 v=46
28296 Par ch=11 c=11 v=47
28304 Par ch=11 c=11 v=48
28312 Par ch=11 c=11 v=49
28316 Par ch=11 c=11 v=50
28324 Par ch=11 c=11 v=51
28332 Par ch=11 c=11 v=52
28336 Par ch=11 c=11 v=53
28344 Par ch=11 c=11 v=54
28352 Par ch=11 c=11 v=55
28356 Par ch=11 c=11 v=56
28364 Par ch=11 c=11 v=57
28372 Par ch=11 c=11 v=58
28376 Par ch=11 c=11 v=59
28384 Par ch=11 c=11 v=60
28392 Par ch=11 c=11 v=61
28396 Par ch=11 c=11 v=62
28404 Par ch=11 c=11 v=63
28412 Par ch=11 c=11 v=64
28454 On ch=11 n=60 v=0
28454 On ch=11 n=63 v=0
29088 On ch=11 n=70 v=47
29119 On ch=11 n=70 v=0
29160 On ch=11 n=72 v=47
29176 On ch=11 n=72 v=0
29184 Par ch=11 c=11 v=64
29184 On ch=11 n=72 v=47
29200 Par ch=11 c=11 v=65
29216 Par ch=11 c=11 v=66
29232 Par ch=11 c=11 v=67
29248 Par ch=11 c=11 v=68
29261 On ch=11 n=72 v=0
29264 Par ch=11 c=11 v=69
29280 Par ch=11 c=11 v=70
29280 On ch=11 n=63 v=47
29296 Par ch=11 c=11 v=71
29311 On ch=11 n=63 v=0
29312 Par ch=11 c=11 v=72
29328 Par ch=11 c=11 v=73
29344 Par ch=11 c=11 v=74
29352 On ch=11 n=68 v=47
29360 Par ch=11 c=11 v=75
29368 On ch=11 n=68 v=0
29376 Par ch=11 c=11 v=76
29376 On ch=11 n=68 v=47
29388 Par ch=11 c=11 v=77
29404 Par ch=11 c=11 v=78
29420 Par ch=11 c=11 v=79
29436 Par ch=11 c=11 v=80
29452 Par ch=11 c=11 v=81
29453 On ch=11 n=68 v=0
29468 Par ch=11 c=11 v=82
29472 On ch=11 n=70 v=47
29484 Par ch=11 c=11 v=83
29500 Par ch=11 c=11 v=84
29503 On ch=11 n=70 v=0
29516 Par ch=11 c=11 v=85
29532 Par ch=11 c=11 v=86
29544 On ch=11 n=72 v=47
29548 Par ch=11 c=11 v=87
29560 On ch=11 n=72 v=0
29564 Par ch=11 c=11 v=88
29568 On ch=11 n=72 v=47
29576 Par ch=11 c=11 v=89
29592 Par ch=11 c=11 v=90
29608 Par ch=11 c=11 v=91
29624 Par ch=11 c=11 v=92
29640 Par ch=11 c=11 v=93
29645 On ch=11 n=72 v=0
29656 Par ch=11 c=11 v=94
29664 On ch=11 n=63 v=47
29672 Par ch=11 c=11 v=95
29685 On ch=11 n=63 v=0
29688 Par ch=11 c=11 v=96
29696 On ch=11 n=60 v=47
29704 Par ch=11 c=11 v=97
29717 On ch=11 n=60 v=0
29720 Par ch=11 c=11 v=98
29728 On ch=11 n=63 v=47
29736 Par ch=11 c=11 v=99
29749 On ch=11 n=63 v=0
29752 Par ch=11 c=11 v=100
29760 On ch=11 n=68 v=47
29764 Par ch=11 c=11 v=101
29780 Par ch=11 c=11 v=102
29796 Par ch=11 c=11 v=103
29812 Par ch=11 c=11 v=104
29828 Par ch=11 c=11 v=105
29837 On ch=11 n=68 v=0
29844 Par ch=11 c=11 v=106
29856 On ch=11 n=70 v=47
29860 Par ch=11 c=11 v=107
29876 Par ch=11 c=11 v=108
29877 On ch=11 n=70 v=0
29888 On ch=11 n=68 v=47
29892 Par ch=11 c=11 v=109
29908 Par ch=11 c=11 v=110
29909 On ch=11 n=68 v=0
29920 On ch=11 n=70 v=47
29924 Par ch=11 c=11 v=111
29940 Par ch=11 c=11 v=112
29941 On ch=11 n=70 v=0
29952 Par ch=11 c=11 v=64
29952 On ch=11 n=60 v=95
29952 On ch=11 n=72 v=95
29990 On ch=11 n=72 v=0
29990 On ch=11 n=60 v=0
30240 On ch=11 n=60 v=63
30261 On ch=11 n=60 v=0
30272 On ch=11 n=63 v=63
30293 On ch=11 n=63 v=0
30304 On ch=11 n=68 v=79
30325 On ch=11 n=68 v=0
30336 On ch=11 n=60 v=95
30336 On ch=11 n=72 v=95
30374 On ch=11 n=72 v=0
30374 On ch=11 n=60 v=0
30720 On ch=11 n=67 v=111
30797 On ch=11 n=67 v=0
30816 On ch=11 n=65 v=111
30893 On ch=11 n=65 v=0
30912 On ch=11 n=63 v=111
30989 On ch=11 n=63 v=0
31008 On ch=11 n=62 v=111
31029 On ch=11 n=62 v=0
31040 On ch=11 n=63 v=111
31061 On ch=11 n=63 v=0
31072 On ch=11 n=60 v=111
31093 On ch=11 n=60 v=0
31104 On ch=11 n=65 v=111
31181 On ch=11 n=65 v=0
31200 On ch=11 n=63 v=111
31277 On ch=11 n=63 v=0
31296 On ch=11 n=62 v=111
31373 On ch=11 n=62 v=0
31392 On ch=11 n=60 v=111
31413 On ch=11 n=60 v=0
31424 On ch=11 n=62 v=111
31445 On ch=11 n=62 v=0
31456 On ch=11 n=58 v=111
31477 On ch=11 n=58 v=0
31488 On ch=11 n=65 v=111
31565 On ch=11 n=65 v=0
31584 On ch=11 n=63 v=111
31661 On ch=11 n=63 v=0
31680 On ch=11 n=62 v=111
31757 On ch=11 n=62 v=0
31776 On ch=11 n=60 v=111
31797 On ch=11 n=60 v=0
31808 On ch=11 n=62 v=111
31829 On ch=11 n=62 v=0
31840 On ch=11 n=58 v=111
31861 On ch=11 n=58 v=0
31872 On ch=11 n=63 v=111
31949 On ch=11 n=63 v=0
31968 On ch=11 n=62 v=111
32045 On ch=11 n=62 v=0
32064 On ch=11 n=60 v=111
32141 On ch=11 n=60 v=0
32160 On ch=11 n=58 v=111
32181 On ch=11 n=58 v=0
32192 On ch=11 n=60 v=111
32213 On ch=11 n=60 v=0
32224 On ch=11 n=56 v=111
32245 On ch=11 n=56 v=0
32256 On ch=11 n=63 v=111
32333 On ch=11 n=63 v=0
32352 On ch=11 n=62 v=111
32429 On ch=11 n=62 v=0
32448 On ch=11 n=60 v=111
32525 On ch=11 n=60 v=0
32544 On ch=11 n=58 v=111
32565 On ch=11 n=58 v=0
32576 On ch=11 n=60 v=111
32597 On ch=11 n=60 v=0
32608 On ch=11 n=56 v=111
32629 On ch=11 n=56 v=0
32736 On ch=11 n=63 v=95
32757 On ch=11 n=63 v=0
32768 On ch=11 n=58 v=95
32789 On ch=11 n=58 v=0
32800 On ch=11 n=63 v=95
32821 On ch=11 n=63 v=0
32832 On ch=11 n=70 v=95
32986 On ch=11 n=70 v=0
33120 On ch=11 n=63 v=95
33141 On ch=11 n=63 v=0
33152 On ch=11 n=58 v=95
33173 On ch=11 n=58 v=0
33184 On ch=11 n=63 v=95
33205 On ch=11 n=63 v=0
33216 On ch=11 n=70 v=95
33370 On ch=11 n=70 v=0
33408 Par ch=11 c=11 v=64
33408 On ch=11 n=59 v=95
33408 On ch=11 n=63 v=111
33408 On ch=11 n=67 v=111
33416 Par ch=11 c=11 v=63
33420 Par ch=11 c=11 v=62
33428 Par ch=11 c=11 v=61
33432 Par ch=11 c=11 v=60
33440 Par ch=11 c=11 v=59
33444 Par ch=11 c=11 v=58
33448 Par ch=11 c=11 v=57
33456 Par ch=11 c=11 v=56
33460 Par ch=11 c=11 v=55
33468 Par ch=11 c=11 v=54
33472 Par ch=11 c=11 v=53
33476 Par ch=11 c=11 v=52
33484 Par ch=11 c=11 v=51
33488 Par ch=11 c=11 v=50
33496 Par ch=11 c=11 v=49
33500 Par ch=11 c=11 v=48
33504 On ch=11 n=67 v=0
33504 On ch=11 n=63 v=0
33504 Par ch=11 c=11 v=48
33504 On ch=11 n=62 v=111
33504 On ch=11 n=65 v=111
33516 Par ch=11 c=11 v=49
33528 Par ch=11 c=11 v=50
33540 Par ch=11 c=11 v=51
33552 Par ch=11 c=11 v=52
33564 Par ch=11 c=11 v=53
33576 Par ch=11 c=11 v=54
33588 Par ch=11 c=11 v=55
33600 Par ch=11 c=11 v=56
33612 Par ch=11 c=11 v=57
33624 Par ch=11 c=11 v=58
33636 Par ch=11 c=11 v=59
33648 Par ch=11 c=11 v=60
33660 Par ch=11 c=11 v=61
33672 Par ch=11 c=11 v=62
33684 Par ch=11 c=11 v=63
33696 On ch=11 n=65 v=0
33696 On ch=11 n=62 v=0
33696 Par ch=11 c=11 v=64
33696 On ch=11 n=65 v=111
33696 On ch=11 n=68 v=111
33715 On ch=11 n=59 v=0
33744 On ch=11 n=68 v=0
33744 On ch=11 n=65 v=0
33744 On ch=11 n=63 v=111
33744 On ch=11 n=67 v=111
33782 On ch=11 n=67 v=0
33782 On ch=11 n=63 v=0
33792 Par ch=11 c=11 v=64
33792 On ch=11 n=62 v=111
33792 On ch=11 n=65 v=111
33800 Par ch=11 c=11 v=63
33804 Par ch=11 c=11 v=62
33812 Par ch=11 c=11 v=61
33816 Par ch=11 c=11 v=60
33824 Par ch=11 c=11 v=59
33828 Par ch=11 c=11 v=58
33832 Par ch=11 c=11 v=57
33840 Par ch=11 c=11 v=56
33844 Par ch=11 c=11 v=55
33852 Par ch=11 c=11 v=54
33856 Par ch=11 c=11 v=53
33860 Par ch=11 c=11 v=52
33868 Par ch=11 c=11 v=51
33872 Par ch=11 c=11 v=50
33880 Par ch=11 c=11 v=49
33884 Par ch=11 c=11 v=48
33888 On ch=11 n=65 v=0
33888 On ch=11 n=62 v=0
33888 Par ch=11 c=11 v=48
33888 On ch=11 n=60 v=111
33888 On ch=11 n=63 v=111
33908 Par ch=11 c=11 v=49
33924 Par ch=11 c=11 v=50
33940 Par ch=11 c=11 v=51
33956 Par ch=11 c=11 v=52
33976 Par ch=11 c=11 v=53
33992 Par ch=11 c=11 v=54
34008 Par ch=11 c=11 v=55
34024 Par ch=11 c=11 v=56
34044 Par ch=11 c=11 v=57
34060 Par ch=11 c=11 v=58
34076 Par ch=11 c=11 v=59
34092 Par ch=11 c=11 v=60
34112 Par ch=11 c=11 v=61
34118 On ch=11 n=63 v=0
34118 On ch=11 n=60 v=0
34128 Par ch=11 c=11 v=62
34144 Par ch=11 c=11 v=63
34160 Par ch=11 c=11 v=64
34176 On ch=11 n=62 v=111
34176 On ch=11 n=58 v=111
34253 On ch=11 n=58 v=0
34253 On ch=11 n=62 v=0
34368 Par ch=11 c=11 v=64
34368 On ch=11 n=67 v=47
34372 Par ch=11 c=11 v=65
34376 Par ch=11 c=11 v=66
34380 Par ch=11 c=11 v=67
34384 Par ch=11 c=11 v=68
34388 Par ch=11 c=11 v=69
34392 Par ch=11 c=11 v=70
34396 Par ch=11 c=11 v=71
34400 Par ch=11 c=11 v=72
34404 Par ch=11 c=11 v=73
34408 Par ch=11 c=11 v=74
34412 Par ch=11 c=11 v=75
34416 Par ch=11 c=11 v=76
34420 Par ch=11 c=11 v=77
34424 Par ch=11 c=11 v=78
34428 Par ch=11 c=11 v=79
34432 Par ch=11 c=11 v=80
34436 Par ch=11 c=11 v=81
34440 Par ch=11 c=11 v=82
34444 Par ch=11 c=11 v=83
34448 Par ch=11 c=11 v=84
34452 Par ch=11 c=11 v=85
34456 Par ch=11 c=11 v=86
34460 Par ch=11 c=11 v=87
34464 Par ch=11 c=11 v=88
34468 Par ch=11 c=11 v=89
34472 Par ch=11 c=11 v=90
34476 Par ch=11 c=11 v=91
34480 Par ch=11 c=11 v=92
34484 Par ch=11 c=11 v=93
34488 Par ch=11 c=11 v=94
34492 Par ch=11 c=11 v=95
34496 Par ch=11 c=11 v=96
34500 Par ch=11 c=11 v=97
34504 Par ch=11 c=11 v=98
34508 Par ch=11 c=11 v=99
34512 Par ch=11 c=11 v=100
34516 Par ch=11 c=11 v=101
34520 Par ch=11 c=11 v=102
34524 Par ch=11 c=11 v=103
34528 Par ch=11 c=11 v=104
34532 Par ch=11 c=11 v=105
34536 Par ch=11 c=11 v=106
34540 Par ch=11 c=11 v=107
34544 Par ch=11 c=11 v=108
34548 Par ch=11 c=11 v=109
34552 Par ch=11 c=11 v=110
34556 Par ch=11 c=11 v=111
34560 Par ch=11 c=11 v=64
34591 On ch=11 n=67 v=0
34632 On ch=11 n=65 v=95
34648 On ch=11 n=65 v=0
34656 Par ch=11 c=11 v=64
34656 On ch=11 n=63 v=95
34664 Par ch=11 c=11 v=65
34668 Par ch=11 c=11 v=66
34676 Par ch=11 c=11 v=67
34680 Par ch=11 c=11 v=68
34687 On ch=11 n=63 v=0
34688 Par ch=11 c=11 v=69
34692 Par ch=11 c=11 v=70
34700 Par ch=11 c=11 v=71
34704 Par ch=11 c=11 v=72
34712 Par ch=11 c=11 v=73
34716 Par ch=11 c=11 v=74
34724 Par ch=11 c=11 v=75
34728 Par ch=11 c=11 v=76
34728 On ch=11 n=62 v=95
34736 Par ch=11 c=11 v=77
34740 Par ch=11 c=11 v=78
34744 On ch=11 n=62 v=0
34748 Par ch=11 c=11 v=79
34752 Par ch=11 c=11 v=80
34752 On ch=11 n=60 v=95
34756 Par ch=11 c=11 v=81
34764 Par ch=11 c=11 v=82
34768 Par ch=11 c=11 v=83
34776 Par ch=11 c=11 v=84
34780 Par ch=11 c=11 v=85
34783 On ch=11 n=60 v=0
34788 Par ch=11 c=11 v=86
34792 Par ch=11 c=11 v=87
34800 Par ch=11 c=11 v=88
34804 Par ch=11 c=11 v=89
34812 Par ch=11 c=11 v=90
34816 Par ch=11 c=11 v=91
34824 Par ch=11 c=11 v=92
34824 On ch=11 n=58 v=95
34828 Par ch=11 c=11 v=93
34836 Par ch=11 c=11 v=94
34840 On ch=11 n=58 v=0
34840 Par ch=11 c=11 v=95
34848 Par ch=11 c=11 v=96
34848 On ch=11 n=57 v=95
34852 Par ch=11 c=11 v=97
34856 Par ch=11 c=11 v=98
34864 Par ch=11 c=11 v=99
34868 Par ch=11 c=11 v=100
34876 Par ch=11 c=11 v=101
34879 On ch=11 n=57 v=0
34880 Par ch=11 c=11 v=102
34888 Par ch=11 c=11 v=103
34892 Par ch=11 c=11 v=104
34900 Par ch=11 c=11 v=105
34904 Par ch=11 c=11 v=106
34912 Par ch=11 c=11 v=107
34916 Par ch=11 c=11 v=108
34920 On ch=11 n=55 v=95
34924 Par ch=11 c=11 v=109
34928 Par ch=11 c=11 v=110
34936 On ch=11 n=55 v=0
34936 Par ch=11 c=11 v=111
34940 Par ch=11 c=11 v=112
34944 On ch=11 n=63 v=95
34992 Par ch=11 c=11 v=64
35000 Par ch=11 c=11 v=65
35008 Par ch=11 c=11 v=66
35016 Par ch=11 c=11 v=67
35020 Par ch=11 c=11 v=68
35028 Par ch=11 c=11 v=69
35036 Par ch=11 c=11 v=70
35040 Par ch=11 c=11 v=71
35048 Par ch=11 c=11 v=72
35056 Par ch=11 c=11 v=73
35064 Par ch=11 c=11 v=74
35068 Par ch=11 c=11 v=75
35076 Par ch=11 c=11 v=76
35084 Par ch=11 c=11 v=77
35088 Par ch=11 c=11 v=78
35096 Par ch=11 c=11 v=79
35104 Par ch=11 c=11 v=80
35112 Par ch=11 c=11 v=81
35116 Par ch=11 c=11 v=82
35124 Par ch=11 c=11 v=83
35132 Par ch=11 c=11 v=84
35136 Par ch=11 c=11 v=85
35144 Par ch=11 c=11 v=86
35152 Par ch=11 c=11 v=87
35160 Par ch=11 c=11 v=88
35164 Par ch=11 c=11 v=89
35172 Par ch=11 c=11 v=90
35180 Par ch=11 c=11 v=91
35184 Par ch=11 c=11 v=92
35192 Par ch=11 c=11 v=93
35200 Par ch=11 c=11 v=94
35208 Par ch=11 c=11 v=95
35212 Par ch=11 c=11 v=96
35220 Par ch=11 c=11 v=97
35228 Par ch=11 c=11 v=98
35232 Par ch=11 c=11 v=99
35240 Par ch=11 c=11 v=100
35248 Par ch=11 c=11 v=101
35256 Par ch=11 c=11 v=102
35260 Par ch=11 c=11 v=103
35268 Par ch=11 c=11 v=104
35276 Par ch=11 c=11 v=105
35280 Par ch=11 c=11 v=106
35288 Par ch=11 c=11 v=107
35296 Par ch=11 c=11 v=108
35304 Par ch=11 c=11 v=109
35308 Par ch=11 c=11 v=110
35316 Par ch=11 c=11 v=111
35324 Par ch=11 c=11 v=112
35328 Par ch=11 c=11 v=64
35359 On ch=11 n=63 v=0
35400 On ch=11 n=62 v=95
35416 On ch=11 n=62 v=0
35424 On ch=11 n=60 v=95
35455 On ch=11 n=60 v=0
35496 On ch=11 n=58 v=95
35512 On ch=11 n=58 v=0
35520 Par ch=11 c=11 v=64
35520 On ch=11 n=57 v=95
35532 Par ch=11 c=11 v=65
35544 Par ch=11 c=11 v=66
35551 On ch=11 n=57 v=0
35556 Par ch=11 c=11 v=67
35568 Par ch=11 c=11 v=68
35580 Par ch=11 c=11 v=69
35588 Par ch=11 c=11 v=70
35592 On ch=11 n=55 v=95
35600 Par ch=11 c=11 v=71
35608 On ch=11 n=55 v=0
35612 Par ch=11 c=11 v=72
35616 On ch=11 n=53 v=95
35624 Par ch=11 c=11 v=73
35636 Par ch=11 c=11 v=74
35647 On ch=11 n=53 v=0
35648 Par ch=11 c=11 v=75
35656 Par ch=11 c=11 v=76
35668 Par ch=11 c=11 v=77
35680 Par ch=11 c=11 v=78
35688 On ch=11 n=51 v=95
35692 Par ch=11 c=11 v=79
35704 On ch=11 n=51 v=0
35704 Par ch=11 c=11 v=80
35712 Par ch=11 c=11 v=64
35712 On ch=11 n=60 v=95
35760 Par ch=11 c=11 v=32
35935 On ch=11 n=60 v=0
35976 On ch=11 n=58 v=95
35992 On ch=11 n=58 v=0
36000 On ch=11 n=56 v=95
36031 On ch=11 n=56 v=0
36072 On ch=11 n=55 v=95
36088 On ch=11 n=55 v=0
36096 Par ch=11 c=11 v=64
36096 On ch=11 n=60 v=95
36144 Par ch=11 c=11 v=32
36319 On ch=11 n=60 v=0
36360 On ch=11 n=58 v=95
36376 On ch=11 n=58 v=0
36384 On ch=11 n=53 v=95
36415 On ch=11 n=53 v=0
36456 On ch=11 n=50 v=95
36472 On ch=11 n=50 v=0
36480 On ch=11 n=49 v=95
36518 On ch=11 n=49 v=0
36864 Par ch=11 c=11 v=64
38016 On ch=11 n=67 v=47
38016 On ch=11 n=55 v=47
38170 On ch=11 n=55 v=0
38170 On ch=11 n=67 v=0
38208 On ch=11 n=69 v=47
38208 On ch=11 n=57 v=47
38323 On ch=11 n=57 v=0
38323 On ch=11 n=69 v=0
38352 On ch=11 n=70 v=47
38352 On ch=11 n=58 v=47
38390 On ch=11 n=58 v=0
38390 On ch=11 n=70 v=0
38400 On ch=11 n=55 v=47
38400 On ch=11 n=67 v=47
38554 On ch=11 n=67 v=0
38554 On ch=11 n=55 v=0
38784 On ch=11 n=55 v=47
38784 On ch=11 n=67 v=47
38938 On ch=11 n=67 v=0
38938 On ch=11 n=55 v=0
38976 On ch=11 n=57 v=47
38976 On ch=11 n=69 v=47
39091 On ch=11 n=69 v=0
39091 On ch=11 n=57 v=0
39120 On ch=11 n=58 v=47
39120 On ch=11 n=70 v=47
39158 On ch=11 n=70 v=0
39158 On ch=11 n=58 v=0
39168 On ch=11 n=67 v=47
39168 On ch=11 n=55 v=47
39322 On ch=11 n=55 v=0
39322 On ch=11 n=67 v=0
41856 On ch=11 n=67 v=15
41856 On ch=11 n=55 v=15
42010 On ch=11 n=55 v=0
42010 On ch=11 n=67 v=0
42048 On ch=11 n=58 v=15
42048 On ch=11 n=70 v=15
42163 On ch=11 n=70 v=0
42163 On ch=11 n=58 v=0
42192 On ch=11 n=69 v=15
42192 On ch=11 n=57 v=15
42230 On ch=11 n=57 v=0
42230 On ch=11 n=69 v=0
42240 On ch=11 n=55 v=15
42240 On ch=11 n=67 v=15
42470 On ch=11 n=67 v=0
42470 On ch=11 n=55 v=0
42624 On ch=11 n=55 v=15
42624 On ch=11 n=67 v=15
42778 On ch=11 n=67 v=0
42778 On ch=11 n=55 v=0
42816 On ch=11 n=70 v=15
42816 On ch=11 n=58 v=15
42931 On ch=11 n=58 v=0
42931 On ch=11 n=70 v=0
42960 On ch=11 n=57 v=15
42960 On ch=11 n=69 v=15
42998 On ch=11 n=69 v=0
42998 On ch=11 n=57 v=0
43008 On ch=11 n=67 v=15
43008 On ch=11 n=55 v=15
43238 On ch=11 n=55 v=0
43238 On ch=11 n=67 v=0
43392 On ch=11 n=67 v=15
43392 On ch=11 n=55 v=15
43622 On ch=11 n=55 v=0
43622 On ch=11 n=67 v=0
43776 On ch=11 n=67 v=15
43776 On ch=11 n=55 v=15
44006 On ch=11 n=55 v=0
44006 On ch=11 n=67 v=0
45696 On ch=11 n=64 v=23
45696 On ch=11 n=60 v=23
45984 On ch=11 n=60 v=0
45984 On ch=11 n=64 v=0
45984 On ch=11 n=62 v=23
45984 On ch=11 n=55 v=23
46080 On ch=11 n=55 v=0
46080 On ch=11 n=62 v=0
46080 On ch=11 n=60 v=23
46080 On ch=11 n=52 v=23
46176 On ch=11 n=52 v=0
46176 On ch=11 n=60 v=0
46176 On ch=11 n=62 v=23
46176 On ch=11 n=55 v=23
46272 On ch=11 n=55 v=0
46272 On ch=11 n=62 v=0
46272 On ch=11 n=64 v=23
46272 On ch=11 n=60 v=23
46368 On ch=11 n=60 v=0
46368 On ch=11 n=64 v=0
46368 On ch=11 n=65 v=23
46368 On ch=11 n=62 v=23
46464 On ch=11 n=62 v=0
46464 On ch=11 n=65 v=0
46464 Par ch=11 c=11 v=64
46464 On ch=11 n=67 v=23
46464 On ch=11 n=64 v=23
46496 Par ch=11 c=11 v=63
46524 Par ch=11 c=11 v=62
46552 Par ch=11 c=11 v=61
46560 On ch=11 n=64 v=0
46560 On ch=11 n=67 v=0
46560 On ch=11 n=60 v=23
46560 On ch=11 n=52 v=23
46580 Par ch=11 c=11 v=60
46608 On ch=11 n=52 v=0
46608 On ch=11 n=60 v=0
46608 Par ch=11 c=11 v=59
46608 On ch=11 n=62 v=23
46608 On ch=11 n=55 v=23
46636 Par ch=11 c=11 v=58
46656 On ch=11 n=55 v=0
46656 On ch=11 n=62 v=0
46656 On ch=11 n=64 v=23
46656 On ch=11 n=60 v=23
46664 Par ch=11 c=11 v=57
46692 Par ch=11 c=11 v=56
46720 Par ch=11 c=11 v=55
46748 Par ch=11 c=11 v=54
46752 On ch=11 n=60 v=0
46752 On ch=11 n=64 v=0
46752 On ch=11 n=65 v=23
46752 On ch=11 n=62 v=23
46776 Par ch=11 c=11 v=53
46800 On ch=11 n=62 v=0
46800 On ch=11 n=65 v=0
46800 On ch=11 n=67 v=23
46800 On ch=11 n=64 v=23
46804 Par ch=11 c=11 v=52
46832 Par ch=11 c=11 v=51
46848 On ch=11 n=64 v=0
46848 On ch=11 n=67 v=0
46848 On ch=11 n=69 v=23
46848 On ch=11 n=64 v=23
46860 Par ch=11 c=11 v=50
46888 Par ch=11 c=11 v=49
46916 Par ch=11 c=11 v=48
46944 On ch=11 n=64 v=0
46944 On ch=11 n=69 v=0
46944 On ch=11 n=60 v=23
46944 On ch=11 n=57 v=23
46992 On ch=11 n=57 v=0
46992 On ch=11 n=60 v=0
46992 On ch=11 n=62 v=23
46992 On ch=11 n=59 v=23
47040 On ch=11 n=59 v=0
47040 On ch=11 n=62 v=0
47040 On ch=11 n=64 v=23
47040 On ch=11 n=60 v=23
47136 On ch=11 n=60 v=0
47136 On ch=11 n=64 v=0
47136 On ch=11 n=65 v=23
47136 On ch=11 n=62 v=23
47184 On ch=11 n=62 v=0
47184 On ch=11 n=65 v=0
47184 On ch=11 n=67 v=23
47184 On ch=11 n=64 v=23
47232 On ch=11 n=64 v=0
47232 On ch=11 n=67 v=0
47232 On ch=11 n=69 v=23
47232 On ch=11 n=65 v=23
47308 On ch=11 n=65 v=0
47308 On ch=11 n=69 v=0
47616 Par ch=11 c=11 v=64
53280 On ch=11 n=59 v=31
53357 On ch=11 n=59 v=0
53376 On ch=11 n=64 v=31
53376 On ch=11 n=56 v=31
53491 On ch=11 n=56 v=0
53491 On ch=11 n=64 v=0
53520 On ch=11 n=66 v=31
53520 On ch=11 n=59 v=31
53558 On ch=11 n=59 v=0
53558 On ch=11 n=66 v=0
53568 On ch=11 n=68 v=31
53568 On ch=11 n=64 v=31
53645 On ch=11 n=64 v=0
53645 On ch=11 n=68 v=0
53664 On ch=11 n=66 v=31
53664 On ch=11 n=69 v=31
53702 On ch=11 n=69 v=0
53702 On ch=11 n=66 v=0
53712 On ch=11 n=64 v=31
53712 On ch=11 n=68 v=31
53750 On ch=11 n=68 v=0
53750 On ch=11 n=64 v=0
53760 On ch=11 n=66 v=31
53760 On ch=11 n=59 v=31
53874 On ch=11 n=59 v=0
53874 On ch=11 n=66 v=0
53904 On ch=11 n=68 v=31
53904 On ch=11 n=64 v=31
53942 On ch=11 n=64 v=0
53942 On ch=11 n=68 v=0
53952 On ch=11 n=69 v=31
53952 On ch=11 n=66 v=31
54029 On ch=11 n=66 v=0
54029 On ch=11 n=69 v=0
54048 On ch=11 n=64 v=31
54048 On ch=11 n=68 v=31
54086 On ch=11 n=68 v=0
54086 On ch=11 n=64 v=0
54096 On ch=11 n=59 v=31
54096 On ch=11 n=66 v=31
54134 On ch=11 n=66 v=0
54134 On ch=11 n=59 v=0
54144 On ch=11 n=64 v=31
54144 On ch=11 n=68 v=31
54258 On ch=11 n=68 v=0
54288 On ch=11 n=69 v=31
54326 On ch=11 n=69 v=0
54336 On ch=11 n=71 v=31
54412 On ch=11 n=71 v=0
54432 On ch=11 n=73 v=31
54470 On ch=11 n=73 v=0
54480 On ch=11 n=71 v=31
54518 On ch=11 n=71 v=0
54528 On ch=11 n=69 v=31
54604 On ch=11 n=69 v=0
54624 On ch=11 n=73 v=31
54662 On ch=11 n=73 v=0
54672 On ch=11 n=74 v=31
54710 On ch=11 n=74 v=0
54720 On ch=11 n=73 v=31
54758 On ch=11 n=64 v=0
54796 On ch=11 n=73 v=0
54816 On ch=11 n=62 v=31
54816 On ch=11 n=71 v=31
54854 On ch=11 n=71 v=0
54854 On ch=11 n=62 v=0
54864 On ch=11 n=61 v=31
54864 On ch=11 n=69 v=31
54902 On ch=11 n=69 v=0
54902 On ch=11 n=61 v=0
54912 On ch=11 n=52 v=31
54912 On ch=11 n=59 v=31
54912 On ch=11 n=68 v=31
54989 On ch=11 n=68 v=0
55680 On ch=11 n=67 v=31
55776 On ch=11 n=67 v=0
55776 On ch=11 n=59 v=0
55776 On ch=11 n=64 v=31
55776 On ch=11 n=55 v=31
55872 On ch=11 n=55 v=0
55872 On ch=11 n=64 v=0
55872 On ch=11 n=69 v=31
55872 On ch=11 n=60 v=31
55968 On ch=11 n=60 v=0
55968 On ch=11 n=69 v=0
55968 Par ch=11 c=11 v=64
55968 On ch=11 n=67 v=31
55968 On ch=11 n=59 v=31
56000 Par ch=11 c=11 v=63
56016 On ch=11 n=59 v=0
56016 On ch=11 n=67 v=0
56016 On ch=11 n=66 v=31
56016 On ch=11 n=57 v=31
56028 Par ch=11 c=11 v=62
56056 Par ch=11 c=11 v=61
56064 On ch=11 n=57 v=0
56064 On ch=11 n=66 v=0
56064 On ch=11 n=71 v=31
56064 On ch=11 n=62 v=31
56084 Par ch=11 c=11 v=60
56112 Par ch=11 c=11 v=59
56140 Par ch=11 c=11 v=58
56160 On ch=11 n=62 v=0
56160 On ch=11 n=71 v=0
56160 On ch=11 n=67 v=31
56160 On ch=11 n=59 v=31
56168 Par ch=11 c=11 v=57
56196 Par ch=11 c=11 v=56
56224 Par ch=11 c=11 v=55
56252 Par ch=11 c=11 v=54
56256 On ch=11 n=59 v=0
56256 On ch=11 n=67 v=0
56256 On ch=11 n=72 v=31
56256 On ch=11 n=64 v=31
56280 Par ch=11 c=11 v=53
56308 Par ch=11 c=11 v=52
56336 Par ch=11 c=11 v=51
56352 On ch=11 n=64 v=0
56352 On ch=11 n=72 v=0
56352 On ch=11 n=71 v=31
56352 On ch=11 n=62 v=31
56364 Par ch=11 c=11 v=50
56371 On ch=11 n=52 v=0
56392 Par ch=11 c=11 v=49
56400 On ch=11 n=62 v=0
56400 On ch=11 n=71 v=0
56400 On ch=11 n=69 v=31
56400 On ch=11 n=60 v=31
56420 Par ch=11 c=11 v=48
56448 On ch=11 n=60 v=0
56448 On ch=11 n=69 v=0
56448 On ch=11 n=71 v=31
56448 On ch=11 n=59 v=31
56602 On ch=11 n=59 v=0
56602 On ch=11 n=71 v=0
56832 Par ch=11 c=11 v=64
61440 On ch=11 n=64 v=31
61440 On ch=11 n=52 v=31
61594 On ch=11 n=52 v=0
61594 On ch=11 n=64 v=0
61632 On ch=11 n=66 v=31
61632 On ch=11 n=54 v=31
61747 On ch=11 n=54 v=0
61747 On ch=11 n=66 v=0
61776 On ch=11 n=67 v=31
61776 On ch=11 n=55 v=31
61814 On ch=11 n=55 v=0
61814 On ch=11 n=67 v=0
61824 On ch=11 n=67 v=31
61824 On ch=11 n=55 v=31
61855 On ch=11 n=55 v=0
61855 On ch=11 n=67 v=0
61920 On ch=11 n=71 v=31
61920 On ch=11 n=59 v=31
62074 On ch=11 n=59 v=0
62074 On ch=11 n=71 v=0
62208 On ch=11 n=66 v=31
62208 On ch=11 n=54 v=31
62362 On ch=11 n=54 v=0
62362 On ch=11 n=66 v=0
62400 On ch=11 n=67 v=31
62400 On ch=11 n=55 v=31
62515 On ch=11 n=55 v=0
62515 On ch=11 n=67 v=0
62544 On ch=11 n=69 v=31
62544 On ch=11 n=57 v=31
62582 On ch=11 n=57 v=0
62582 On ch=11 n=69 v=0
62592 On ch=11 n=69 v=31
62592 On ch=11 n=57 v=31
62623 On ch=11 n=57 v=0
62623 On ch=11 n=69 v=0
62688 On ch=11 n=72 v=31
62688 On ch=11 n=60 v=31
62842 On ch=11 n=60 v=0
62842 On ch=11 n=72 v=0
62976 On ch=11 n=68 v=47
62976 On ch=11 n=56 v=47
63130 On ch=11 n=56 v=0
63130 On ch=11 n=68 v=0
63168 On ch=11 n=69 v=47
63168 On ch=11 n=57 v=47
63283 On ch=11 n=57 v=0
63283 On ch=11 n=69 v=0
63312 On ch=11 n=71 v=47
63312 On ch=11 n=59 v=47
63350 On ch=11 n=59 v=0
63350 On ch=11 n=71 v=0
63360 On ch=11 n=71 v=47
63360 On ch=11 n=59 v=47
63590 On ch=11 n=59 v=0
63590 On ch=11 n=71 v=0
63648 On ch=11 n=69 v=47
63648 On ch=11 n=60 v=47
63725 On ch=11 n=60 v=0
63725 On ch=11 n=69 v=0
63744 Par ch=11 c=11 v=64
63744 On ch=11 n=70 v=47
63744 On ch=11 n=61 v=47
63756 Par ch=11 c=11 v=65
63768 Par ch=11 c=11 v=66
63780 Par ch=11 c=11 v=67
63792 Par ch=11 c=11 v=68
63804 Par ch=11 c=11 v=69
63816 Par ch=11 c=11 v=70
63828 Par ch=11 c=11 v=71
63840 Par ch=11 c=11 v=72
63852 Par ch=11 c=11 v=73
63864 Par ch=11 c=11 v=74
63872 Par ch=11 c=11 v=75
63884 Par ch=11 c=11 v=76
63896 Par ch=11 c=11 v=77
63908 Par ch=11 c=11 v=78
63920 Par ch=11 c=11 v=79
63932 Par ch=11 c=11 v=80
63944 Par ch=11 c=11 v=81
63956 Par ch=11 c=11 v=82
63968 Par ch=11 c=11 v=83
63974 On ch=11 n=61 v=0
63974 On ch=11 n=70 v=0
63980 Par ch=11 c=11 v=84
63992 Par ch=11 c=11 v=85
64000 Par ch=11 c=11 v=86
64012 Par ch=11 c=11 v=87
64024 Par ch=11 c=11 v=88
64032 On ch=11 n=71 v=47
64032 On ch=11 n=66 v=47
64036 Par ch=11 c=11 v=89
64048 Par ch=11 c=11 v=90
64060 Par ch=11 c=11 v=91
64072 Par ch=11 c=11 v=92
64084 Par ch=11 c=11 v=93
64096 Par ch=11 c=11 v=94
64108 Par ch=11 c=11 v=95
64109 On ch=11 n=66 v=0
64109 On ch=11 n=71 v=0
64120 Par ch=11 c=11 v=96
64128 On ch=11 n=71 v=47
64128 On ch=11 n=64 v=47
64205 On ch=11 n=64 v=0
64205 On ch=11 n=71 v=0
64512 Par ch=11 c=11 v=64
65760 On ch=11 n=69 v=111
65914 On ch=11 n=69 v=0
65952 On ch=11 n=71 v=111
65978 On ch=11 n=71 v=0
65984 On ch=11 n=69 v=111
66005 On ch=11 n=69 v=0
66016 On ch=11 n=68 v=111
66037 On ch=11 n=68 v=0
66048 On ch=11 n=69 v=111
66079 On ch=11 n=69 v=0
66120 On ch=11 n=64 v=111
66136 On ch=11 n=64 v=0
66144 On ch=11 n=57 v=111
66175 On ch=11 n=57 v=0
66816 On ch=11 n=65 v=111
66847 On ch=11 n=65 v=0
66888 On ch=11 n=60 v=111
66904 On ch=11 n=60 v=0
66912 On ch=11 n=53 v=111
66943 On ch=11 n=53 v=0
67200 On ch=11 n=66 v=111
67200 On ch=11 n=62 v=111
67354 On ch=11 n=62 v=0
67354 On ch=11 n=66 v=0
67392 On ch=11 n=67 v=111
67392 On ch=11 n=62 v=111
67546 On ch=11 n=62 v=0
67546 On ch=11 n=67 v=0
67584 Par ch=11 c=11 v=64
67584 On ch=11 n=69 v=111
67584 On ch=11 n=62 v=111
67596 Par ch=11 c=11 v=63
67608 Par ch=11 c=11 v=62
67620 Par ch=11 c=11 v=61
67632 Par ch=11 c=11 v=60
67644 Par ch=11 c=11 v=59
67656 Par ch=11 c=11 v=58
67668 Par ch=11 c=11 v=57
67680 Par ch=11 c=11 v=56
67692 Par ch=11 c=11 v=55
67704 Par ch=11 c=11 v=54
67716 Par ch=11 c=11 v=53
67728 Par ch=11 c=11 v=52
67738 On ch=11 n=62 v=0
67738 On ch=11 n=69 v=0
67740 Par ch=11 c=11 v=51
67752 Par ch=11 c=11 v=50
67764 Par ch=11 c=11 v=49
67776 Par ch=11 c=11 v=48
67872 Par ch=11 c=11 v=64
67872 On ch=11 n=69 v=111
67872 On ch=11 n=64 v=111
67903 On ch=11 n=64 v=0
67903 On ch=11 n=69 v=0
67968 On ch=11 n=69 v=111
67968 On ch=11 n=66 v=111
68160 On ch=11 n=66 v=0
68160 On ch=11 n=69 v=0
68160 On ch=11 n=66 v=111
68160 On ch=11 n=62 v=111
68191 On ch=11 n=62 v=0
68191 On ch=11 n=66 v=0
68256 On ch=11 n=64 v=111
68256 On ch=11 n=61 v=111
68287 On ch=11 n=61 v=0
68287 On ch=11 n=64 v=0
68352 Par ch=11 c=11 v=64
68352 On ch=11 n=69 v=111
68352 On ch=11 n=62 v=111
68376 Par ch=11 c=11 v=65
68400 Par ch=11 c=11 v=66
68420 Par ch=11 c=11 v=67
68444 Par ch=11 c=11 v=68
68468 Par ch=11 c=11 v=69
68488 Par ch=11 c=11 v=70
68506 On ch=11 n=62 v=0
68506 On ch=11 n=69 v=0
68512 Par ch=11 c=11 v=71
68536 Par ch=11 c=11 v=72
68544 On ch=11 n=71 v=111
68544 On ch=11 n=66 v=111
68556 Par ch=11 c=11 v=73
68580 Par ch=11 c=11 v=74
68604 Par ch=11 c=11 v=75
68624 Par ch=11 c=11 v=76
68648 Par ch=11 c=11 v=77
68672 Par ch=11 c=11 v=78
68692 Par ch=11 c=11 v=79
68698 On ch=11 n=66 v=0
68698 On ch=11 n=71 v=0
68716 Par ch=11 c=11 v=80
68736 Par ch=11 c=11 v=64
68736 On ch=11 n=61 v=111
68890 On ch=11 n=61 v=0
68928 On ch=11 n=62 v=111
69043 On ch=11 n=62 v=0
69072 On ch=11 n=63 v=111
69103 On ch=11 n=63 v=0
69120 On ch=11 n=63 v=111
69151 On ch=11 n=63 v=0
69216 On ch=11 n=64 v=111
69370 On ch=11 n=64 v=0
69504 On ch=11 n=61 v=111
69658 On ch=11 n=61 v=0
69696 On ch=11 n=63 v=111
69811 On ch=11 n=63 v=0
69840 On ch=11 n=64 v=111
69871 On ch=11 n=64 v=0
69888 On ch=11 n=64 v=111
69919 On ch=11 n=64 v=0
69984 On ch=11 n=66 v=111
70138 On ch=11 n=66 v=0
70272 On ch=11 n=61 v=111
70426 On ch=11 n=61 v=0
70464 On ch=11 n=63 v=111
70541 On ch=11 n=63 v=0
70560 On ch=11 n=64 v=111
70591 On ch=11 n=64 v=0
70632 On ch=11 n=68 v=111
70648 On ch=11 n=68 v=0
70656 On ch=11 n=73 v=111
70656 On ch=11 n=61 v=111
70810 On ch=11 n=61 v=0
70810 On ch=11 n=73 v=0
70848 On ch=11 n=72 v=111
70848 On ch=11 n=60 v=111
70963 On ch=11 n=60 v=0
70963 On ch=11 n=72 v=0
70992 On ch=11 n=68 v=111
70992 On ch=11 n=56 v=111
71030 On ch=11 n=56 v=0
71030 On ch=11 n=68 v=0
71040 On ch=11 n=73 v=111
71040 On ch=11 n=61 v=111
71194 On ch=11 n=61 v=0
71194 On ch=11 n=73 v=0
71232 On ch=11 n=72 v=111
71232 On ch=11 n=60 v=111
71347 On ch=11 n=60 v=0
71347 On ch=11 n=72 v=0
71376 On ch=11 n=68 v=111
71376 On ch=11 n=56 v=111
71414 On ch=11 n=56 v=0
71414 On ch=11 n=68 v=0
71424 Par ch=11 c=11 v=64
71424 On ch=11 n=62 v=95
71424 On ch=11 n=74 v=95
71428 Par ch=11 c=11 v=63
71432 Par ch=11 c=11 v=62
71436 Par ch=11 c=11 v=60
71440 Par ch=11 c=11 v=59
71444 Par ch=11 c=11 v=58
71448 Par ch=11 c=11 v=56
71452 Par ch=11 c=11 v=55
71456 Par ch=11 c=11 v=54
71460 Par ch=11 c=11 v=52
71464 Par ch=11 c=11 v=51
71468 Par ch=11 c=11 v=50
71472 Par ch=11 c=11 v=48
71476 Par ch=11 c=11 v=47
71480 Par ch=11 c=11 v=46
71484 Par ch=11 c=11 v=44
71488 Par ch=11 c=11 v=43
71492 Par ch=11 c=11 v=42
71496 Par ch=11 c=11 v=40
71500 Par ch=11 c=11 v=39
71504 Par ch=11 c=11 v=38
71508 Par ch=11 c=11 v=36
71512 Par ch=11 c=11 v=35
71516 Par ch=11 c=11 v=34
71520 On ch=11 n=74 v=0
71520 On ch=11 n=62 v=0
71520 Par ch=11 c=11 v=32
71520 On ch=11 n=73 v=95
71520 On ch=11 n=61 v=95
71712 On ch=11 n=61 v=0
71712 On ch=11 n=73 v=0
71808 Par ch=11 c=11 v=64
71808 On ch=11 n=74 v=95
71808 On ch=11 n=62 v=95
71812 Par ch=11 c=11 v=63
71816 Par ch=11 c=11 v=62
71820 Par ch=11 c=11 v=60
71824 Par ch=11 c=11 v=59
71828 Par ch=11 c=11 v=58
71832 Par ch=11 c=11 v=56
71836 Par ch=11 c=11 v=55
71840 Par ch=11 c=11 v=54
71844 Par ch=11 c=11 v=52
71848 Par ch=11 c=11 v=51
71852 Par ch=11 c=11 v=50
71856 Par ch=11 c=11 v=48
71860 Par ch=11 c=11 v=47
71864 Par ch=11 c=11 v=46
71868 Par ch=11 c=11 v=44
71872 Par ch=11 c=11 v=43
71876 Par ch=11 c=11 v=42
71880 Par ch=11 c=11 v=40
71884 Par ch=11 c=11 v=39
71888 Par ch=11 c=11 v=38
71892 Par ch=11 c=11 v=36
71896 Par ch=11 c=11 v=35
71900 Par ch=11 c=11 v=34
71904 On ch=11 n=62 v=0
71904 On ch=11 n=74 v=0
71904 Par ch=11 c=11 v=32
71904 On ch=11 n=61 v=95
71904 On ch=11 n=73 v=95
72096 On ch=11 n=73 v=0
72096 On ch=11 n=61 v=0
72192 Par ch=11 c=11 v=64
72192 On ch=11 n=74 v=95
72192 On ch=11 n=62 v=95
72196 Par ch=11 c=11 v=63
72200 Par ch=11 c=11 v=62
72204 Par ch=11 c=11 v=60
72208 Par ch=11 c=11 v=59
72212 Par ch=11 c=11 v=58
72216 Par ch=11 c=11 v=56
72220 Par ch=11 c=11 v=55
72224 Par ch=11 c=11 v=54
72228 Par ch=11 c=11 v=52
72232 Par ch=11 c=11 v=51
72236 Par ch=11 c=11 v=50
72240 Par ch=11 c=11 v=48
72244 Par ch=11 c=11 v=47
72248 Par ch=11 c=11 v=46
72252 Par ch=11 c=11 v=44
72256 Par ch=11 c=11 v=43
72260 Par ch=11 c=11 v=42
72264 Par ch=11 c=11 v=40
72268 Par ch=11 c=11 v=39
72272 Par ch=11 c=11 v=38
72276 Par ch=11 c=11 v=36
72280 Par ch=11 c=11 v=35
72284 Par ch=11 c=11 v=34
72288 On ch=11 n=62 v=0
72288 On ch=11 n=74 v=0
72288 Par ch=11 c=11 v=32
72288 On ch=11 n=61 v=95
72288 On ch=11 n=73 v=95
72480 On ch=11 n=73 v=0
72480 On ch=11 n=61 v=0
72576 Par ch=11 c=11 v=64
72576 On ch=11 n=66 v=31
72576 On ch=11 n=54 v=31
72960 Par ch=11 c=11 v=112
73296 Par ch=11 c=11 v=64
73728 Par ch=11 c=11 v=112
73728 On ch=11 n=54 v=31
73728 On ch=11 n=66 v=31
73728 On ch=11 n=54 v=31
73728 On ch=11 n=66 v=31
73728 On ch=11 n=66 v=31
73728 On ch=11 n=54 v=31
74035 On ch=11 n=54 v=0
74035 On ch=11 n=66 v=0
74035 On ch=11 n=54 v=0
74035 On ch=11 n=54 v=0
74035 On ch=11 n=54 v=0
74035 On ch=11 n=66 v=0
74035 On ch=11 n=66 v=0
74035 On ch=11 n=66 v=0
74496 Par ch=11 c=11 v=64
74496 On ch=11 n=65 v=47
74496 On ch=11 n=53 v=47
74512 Par ch=11 c=11 v=65
74524 Par ch=11 c=11 v=66
74536 Par ch=11 c=11 v=67
74548 Par ch=11 c=11 v=68
74560 Par ch=11 c=11 v=69
74572 Par ch=11 c=11 v=70
74584 Par ch=11 c=11 v=71
74596 Par ch=11 c=11 v=72
74608 Par ch=11 c=11 v=73
74620 Par ch=11 c=11 v=74
74632 Par ch=11 c=11 v=75
74644 Par ch=11 c=11 v=76
74656 Par ch=11 c=11 v=77
74668 Par ch=11 c=11 v=78
74680 Par ch=11 c=11 v=79
74688 On ch=11 n=53 v=0
74688 On ch=11 n=65 v=0
74688 On ch=11 n=66 v=47
74688 On ch=11 n=54 v=47
74692 Par ch=11 c=11 v=80
74704 Par ch=11 c=11 v=81
74716 Par ch=11 c=11 v=82
74728 Par ch=11 c=11 v=83
74740 Par ch=11 c=11 v=84
74752 Par ch=11 c=11 v=85
74765 On ch=11 n=54 v=0
74765 On ch=11 n=66 v=0
74768 Par ch=11 c=11 v=86
74780 Par ch=11 c=11 v=87
74792 Par ch=11 c=11 v=88
74804 Par ch=11 c=11 v=89
74816 Par ch=11 c=11 v=90
74828 Par ch=11 c=11 v=91
74840 Par ch=11 c=11 v=92
74852 Par ch=11 c=11 v=93
74864 Par ch=11 c=11 v=94
74876 Par ch=11 c=11 v=95
74880 On ch=11 n=65 v=47
74880 On ch=11 n=53 v=47
74888 Par ch=11 c=11 v=96
74900 Par ch=11 c=11 v=97
74912 Par ch=11 c=11 v=98
74924 Par ch=11 c=11 v=99
74936 Par ch=11 c=11 v=100
74948 Par ch=11 c=11 v=101
74960 Par ch=11 c=11 v=102
74972 Par ch=11 c=11 v=103
74984 Par ch=11 c=11 v=104
74996 Par ch=11 c=11 v=105
75008 Par ch=11 c=11 v=106
75024 Par ch=11 c=11 v=107
75036 Par ch=11 c=11 v=108
75048 Par ch=11 c=11 v=109
75060 Par ch=11 c=11 v=110
75072 On ch=11 n=53 v=0
75072 On ch=11 n=65 v=0
75072 Par ch=11 c=11 v=111
75072 On ch=11 n=66 v=47
75072 On ch=11 n=54 v=47
75084 Par ch=11 c=11 v=112
75096 Par ch=11 c=11 v=113
75108 Par ch=11 c=11 v=114
75120 Par ch=11 c=11 v=115
75132 Par ch=11 c=11 v=116
75144 Par ch=11 c=11 v=117
75149 On ch=11 n=54 v=0
75149 On ch=11 n=66 v=0
75156 Par ch=11 c=11 v=118
75168 Par ch=11 c=11 v=119
75180 Par ch=11 c=11 v=120
75192 Par ch=11 c=11 v=121
75204 Par ch=11 c=11 v=122
75216 Par ch=11 c=11 v=123
75228 Par ch=11 c=11 v=124
75240 Par ch=11 c=11 v=125
75252 Par ch=11 c=11 v=126
75360 Par ch=11 c=11 v=64
75360 On ch=11 n=50 v=111
75360 On ch=11 n=58 v=111
75360 On ch=11 n=67 v=111
75477 On ch=11 n=67 v=0
75477 On ch=11 n=58 v=0
75477 On ch=11 n=50 v=0
75488 On ch=11 n=50 v=111
75488 On ch=11 n=58 v=111
75488 On ch=11 n=67 v=111
75509 On ch=11 n=67 v=0
75509 On ch=11 n=58 v=0
75509 On ch=11 n=50 v=0
75520 On ch=11 n=50 v=111
75520 On ch=11 n=58 v=111
75520 On ch=11 n=67 v=111
75541 On ch=11 n=67 v=0
75541 On ch=11 n=58 v=0
75541 On ch=11 n=50 v=0
75552 On ch=11 n=50 v=111
75552 On ch=11 n=58 v=111
75552 On ch=11 n=67 v=111
75573 On ch=11 n=67 v=0
75573 On ch=11 n=58 v=0
75573 On ch=11 n=50 v=0
75584 On ch=11 n=50 v=111
75584 On ch=11 n=58 v=111
75584 On ch=11 n=67 v=111
75605 On ch=11 n=67 v=0
75605 On ch=11 n=58 v=0
75605 On ch=11 n=50 v=0
75616 On ch=11 n=50 v=111
75616 On ch=11 n=58 v=111
75616 On ch=11 n=67 v=111
75637 On ch=11 n=67 v=0
75637 On ch=11 n=58 v=0
75637 On ch=11 n=50 v=0
75648 On ch=11 n=50 v=111
75648 On ch=11 n=58 v=111
75648 On ch=11 n=67 v=111
75686 On ch=11 n=67 v=0
75686 On ch=11 n=58 v=0
75686 On ch=11 n=50 v=0
75720 On ch=11 n=50 v=111
75720 On ch=11 n=58 v=111
75720 On ch=11 n=67 v=111
75739 On ch=11 n=67 v=0
75739 On ch=11 n=58 v=0
75739 On ch=11 n=50 v=0
75744 On ch=11 n=50 v=111
75744 On ch=11 n=58 v=111
75744 On ch=11 n=67 v=111
75782 On ch=11 n=67 v=0
75782 On ch=11 n=58 v=0
75782 On ch=11 n=50 v=0
75816 On ch=11 n=50 v=111
75816 On ch=11 n=58 v=111
75816 On ch=11 n=67 v=111
75835 On ch=11 n=67 v=0
75835 On ch=11 n=58 v=0
75835 On ch=11 n=50 v=0
75840 On ch=11 n=50 v=111
75840 On ch=11 n=58 v=111
75840 On ch=11 n=67 v=111
75878 On ch=11 n=67 v=0
75878 On ch=11 n=58 v=0
75878 On ch=11 n=50 v=0
75912 On ch=11 n=50 v=111
75912 On ch=11 n=58 v=111
75912 On ch=11 n=67 v=111
75931 On ch=11 n=67 v=0
75931 On ch=11 n=58 v=0
75931 On ch=11 n=50 v=0
75936 On ch=11 n=50 v=111
75936 On ch=11 n=58 v=111
75936 On ch=11 n=67 v=111
75974 On ch=11 n=67 v=0
75974 On ch=11 n=58 v=0
75974 On ch=11 n=50 v=0
76008 On ch=11 n=50 v=111
76008 On ch=11 n=58 v=111
76008 On ch=11 n=67 v=111
76027 On ch=11 n=67 v=0
76027 On ch=11 n=58 v=0
76027 On ch=11 n=50 v=0
76032 On ch=11 n=56 v=111
76032 On ch=11 n=66 v=111
76032 On ch=11 n=60 v=111
76032 On ch=11 n=50 v=111
76262 On ch=11 n=50 v=0
76262 On ch=11 n=56 v=0
76262 On ch=11 n=66 v=0
76262 On ch=11 n=60 v=0
76320 On ch=11 n=66 v=111
76320 On ch=11 n=60 v=111
76320 On ch=11 n=56 v=111
76320 On ch=11 n=50 v=111
76341 On ch=11 n=50 v=0
76341 On ch=11 n=66 v=0
76341 On ch=11 n=60 v=0
76341 On ch=11 n=56 v=0
76352 On ch=11 n=66 v=111
76352 On ch=11 n=60 v=111
76352 On ch=11 n=56 v=111
76352 On ch=11 n=50 v=111
76373 On ch=11 n=50 v=0
76373 On ch=11 n=66 v=0
76373 On ch=11 n=60 v=0
76373 On ch=11 n=56 v=0
76384 On ch=11 n=66 v=111
76384 On ch=11 n=60 v=111
76384 On ch=11 n=56 v=111
76384 On ch=11 n=50 v=111
76405 On ch=11 n=50 v=0
76405 On ch=11 n=66 v=0
76405 On ch=11 n=60 v=0
76405 On ch=11 n=56 v=0
76416 On ch=11 n=66 v=111
76416 On ch=11 n=60 v=111
76416 On ch=11 n=56 v=111
76416 On ch=11 n=50 v=111
76493 On ch=11 n=50 v=0
76493 On ch=11 n=66 v=0
76493 On ch=11 n=60 v=0
76493 On ch=11 n=56 v=0
76512 On ch=11 n=66 v=111
76512 On ch=11 n=60 v=111
76512 On ch=11 n=56 v=111
76512 On ch=11 n=50 v=111
76589 On ch=11 n=50 v=0
76589 On ch=11 n=66 v=0
76589 On ch=11 n=60 v=0
76589 On ch=11 n=56 v=0
76608 On ch=11 n=66 v=111
76608 On ch=11 n=60 v=111
76608 On ch=11 n=56 v=111
76608 On ch=11 n=50 v=111
76685 On ch=11 n=50 v=0
76685 On ch=11 n=66 v=0
76685 On ch=11 n=60 v=0
76685 On ch=11 n=56 v=0
76704 On ch=11 n=66 v=111
76704 On ch=11 n=60 v=111
76704 On ch=11 n=56 v=111
76704 On ch=11 n=50 v=111
76781 On ch=11 n=50 v=0
76781 On ch=11 n=66 v=0
76781 On ch=11 n=60 v=0
76781 On ch=11 n=56 v=0
76800 Par ch=11 c=11 v=80
76800 On ch=11 n=49 v=111
76800 On ch=11 n=59 v=111
76800 On ch=11 n=69 v=127
76877 On ch=11 n=59 v=0
76877 On ch=11 n=49 v=0
77030 On ch=11 n=69 v=0
77088 On ch=11 n=68 v=127
77165 On ch=11 n=68 v=0
77184 On ch=11 n=66 v=127
77261 On ch=11 n=66 v=0
77568 Par ch=11 c=11 v=64
77568 On ch=11 n=56 v=111
77568 On ch=11 n=61 v=111
77568 On ch=11 n=64 v=111
77580 Par ch=11 c=11 v=63
77592 Par ch=11 c=11 v=62
77604 Par ch=11 c=11 v=61
77616 Par ch=11 c=11 v=60
77628 Par ch=11 c=11 v=59
77636 Par ch=11 c=11 v=58
77648 Par ch=11 c=11 v=57
77660 Par ch=11 c=11 v=56
77672 Par ch=11 c=11 v=55
77684 Par ch=11 c=11 v=54
77696 Par ch=11 c=11 v=53
77704 Par ch=11 c=11 v=52
77716 Par ch=11 c=11 v=51
77728 Par ch=11 c=11 v=50
77740 Par ch=11 c=11 v=49
77752 Par ch=11 c=11 v=48
77760 Par ch=11 c=11 v=47
77772 Par ch=11 c=11 v=46
77784 Par ch=11 c=11 v=45
77796 Par ch=11 c=11 v=44
77808 Par ch=11 c=11 v=43
77820 Par ch=11 c=11 v=42
77828 Par ch=11 c=11 v=41
77840 Par ch=11 c=11 v=40
77852 Par ch=11 c=11 v=39
77864 Par ch=11 c=11 v=38
77875 On ch=11 n=64 v=0
77875 On ch=11 n=61 v=0
77875 On ch=11 n=56 v=0
77876 Par ch=11 c=11 v=37
77888 Par ch=11 c=11 v=36
77896 Par ch=11 c=11 v=35
77908 Par ch=11 c=11 v=34
77920 Par ch=11 c=11 v=33
77932 Par ch=11 c=11 v=32
77952 Par ch=11 c=11 v=64
77952 On ch=11 n=54 v=95
77952 On ch=11 n=62 v=95
77952 On ch=11 n=59 v=95
78000 Par ch=11 c=11 v=32
78020 Par ch=11 c=11 v=31
78040 Par ch=11 c=11 v=30
78060 Par ch=11 c=11 v=29
78080 Par ch=11 c=11 v=28
78100 Par ch=11 c=11 v=27
78120 Par ch=11 c=11 v=26
78140 Par ch=11 c=11 v=25
78160 Par ch=11 c=11 v=24
78180 Par ch=11 c=11 v=23
78200 Par ch=11 c=11 v=22
78220 Par ch=11 c=11 v=21
78240 Par ch=11 c=11 v=20
78259 On ch=11 n=59 v=0
78259 On ch=11 n=62 v=0
78259 On ch=11 n=54 v=0
78260 Par ch=11 c=11 v=19
78280 Par ch=11 c=11 v=18
78300 Par ch=11 c=11 v=17
78320 Par ch=11 c=11 v=16
78336 Par ch=11 c=11 v=64
78336 On ch=11 n=52 v=79
78336 On ch=11 n=56 v=79
78336 On ch=11 n=61 v=79
78490 On ch=11 n=61 v=0
78490 On ch=11 n=56 v=0
78490 On ch=11 n=52 v=0
78528 On ch=11 n=54 v=79
78528 On ch=11 n=57 v=79
78528 On ch=11 n=62 v=79
78682 On ch=11 n=62 v=0
78682 On ch=11 n=57 v=0
78682 On ch=11 n=54 v=0
78720 Par ch=11 c=11 v=64
78720 On ch=11 n=55 v=79
78720 On ch=11 n=58 v=79
78720 On ch=11 n=63 v=79
78732 Par ch=11 c=11 v=63
78744 Par ch=11 c=11 v=62
78756 Par ch=11 c=11 v=61
78768 Par ch=11 c=11 v=60
78780 Par ch=11 c=11 v=59
78788 Par ch=11 c=11 v=58
78800 Par ch=11 c=11 v=57
78812 Par ch=11 c=11 v=56
78824 Par ch=11 c=11 v=55
78836 Par ch=11 c=11 v=54
78848 Par ch=11 c=11 v=53
78856 Par ch=11 c=11 v=52
78868 Par ch=11 c=11 v=51
78874 On ch=11 n=63 v=0
78874 On ch=11 n=58 v=0
78874 On ch=11 n=55 v=0
78880 Par ch=11 c=11 v=50
78892 Par ch=11 c=11 v=49
78904 Par ch=11 c=11 v=48
78912 Par ch=11 c=11 v=47
78912 On ch=11 n=56 v=79
78912 On ch=11 n=59 v=79
78912 On ch=11 n=64 v=79
78924 Par ch=11 c=11 v=46
78936 Par ch=11 c=11 v=45
78948 Par ch=11 c=11 v=44
78960 Par ch=11 c=11 v=43
78972 Par ch=11 c=11 v=42
78980 Par ch=11 c=11 v=41
78992 Par ch=11 c=11 v=40
79004 Par ch=11 c=11 v=39
79016 Par ch=11 c=11 v=38
79028 Par ch=11 c=11 v=37
79040 Par ch=11 c=11 v=36
79048 Par ch=11 c=11 v=35
79060 Par ch=11 c=11 v=34
79066 On ch=11 n=64 v=0
79066 On ch=11 n=59 v=0
79066 On ch=11 n=56 v=0
79072 Par ch=11 c=11 v=33
79084 Par ch=11 c=11 v=32
79104 Par ch=11 c=11 v=64
79104 On ch=11 n=65 v=47
79104 On ch=11 n=60 v=47
79258 On ch=11 n=60 v=0
79258 On ch=11 n=65 v=0
79296 On ch=11 n=64 v=47
79296 On ch=11 n=60 v=47
79450 On ch=11 n=60 v=0
79450 On ch=11 n=64 v=0
79488 Par ch=11 c=11 v=64
79488 On ch=11 n=65 v=47
79488 On ch=11 n=60 v=47
79512 Par ch=11 c=11 v=63
79536 Par ch=11 c=11 v=62
79556 Par ch=11 c=11 v=61
79580 Par ch=11 c=11 v=60
79604 Par ch=11 c=11 v=59
79624 Par ch=11 c=11 v=58
79642 On ch=11 n=60 v=0
79642 On ch=11 n=65 v=0
79648 Par ch=11 c=11 v=57
79672 Par ch=11 c=11 v=56
79680 On ch=11 n=67 v=47
79680 On ch=11 n=60 v=47
79692 Par ch=11 c=11 v=55
79716 Par ch=11 c=11 v=54
79740 Par ch=11 c=11 v=53
79760 Par ch=11 c=11 v=52
79784 Par ch=11 c=11 v=51
79808 Par ch=11 c=11 v=50
79828 Par ch=11 c=11 v=49
79834 On ch=11 n=60 v=0
79834 On ch=11 n=67 v=0
79852 Par ch=11 c=11 v=48
79968 Par ch=11 c=11 v=64
84864 On ch=11 n=58 v=31
85632 On ch=11 n=58 v=0
85632 On ch=11 n=63 v=31
85632 On ch=11 n=66 v=31
85920 On ch=11 n=66 v=0
85920 On ch=11 n=67 v=31
86016 On ch=11 n=67 v=0
86016 On ch=11 n=68 v=31
86093 On ch=11 n=63 v=0
86112 On ch=11 n=68 v=0
86112 On ch=11 n=59 v=31
86112 On ch=11 n=63 v=31
86208 On ch=11 n=63 v=0
86208 On ch=11 n=64 v=31
86266 On ch=11 n=59 v=0
86304 On ch=11 n=64 v=0
86304 On ch=11 n=59 v=31
86304 On ch=11 n=65 v=31
86400 On ch=11 n=65 v=0
86400 On ch=11 n=66 v=31
86477 On ch=11 n=59 v=0
86496 On ch=11 n=57 v=31
86573 On ch=11 n=57 v=0
86592 On ch=11 n=58 v=31
86707 On ch=11 n=66 v=0
86784 On ch=11 n=58 v=0
86784 On ch=11 n=59 v=31
86822 On ch=11 n=59 v=0
87552 On ch=11 n=59 v=31
87552 On ch=11 n=63 v=31
87706 On ch=11 n=63 v=0
87706 On ch=11 n=59 v=0
87744 On ch=11 n=64 v=31
87744 On ch=11 n=61 v=31
87821 On ch=11 n=61 v=0
87821 On ch=11 n=64 v=0
87840 On ch=11 n=63 v=31
87840 On ch=11 n=66 v=31
87871 On ch=11 n=66 v=0
87871 On ch=11 n=63 v=0
87888 On ch=11 n=64 v=31
87888 On ch=11 n=68 v=31
87919 On ch=11 n=68 v=0
87919 On ch=11 n=64 v=0
87936 On ch=11 n=63 v=31
87936 On ch=11 n=66 v=31
88013 On ch=11 n=66 v=0
88013 On ch=11 n=63 v=0
88032 On ch=11 n=61 v=31
88032 On ch=11 n=64 v=31
88063 On ch=11 n=64 v=0
88063 On ch=11 n=61 v=0
88080 On ch=11 n=59 v=31
88080 On ch=11 n=63 v=31
88111 On ch=11 n=63 v=0
88111 On ch=11 n=59 v=0
88128 On ch=11 n=58 v=31
88128 On ch=11 n=61 v=31
88205 On ch=11 n=61 v=0
88205 On ch=11 n=58 v=0
88224 On ch=11 n=56 v=31
88224 On ch=11 n=59 v=31
88255 On ch=11 n=59 v=0
88255 On ch=11 n=56 v=0
88272 On ch=11 n=54 v=31
88272 On ch=11 n=58 v=31
88303 On ch=11 n=58 v=0
88303 On ch=11 n=54 v=0
88320 On ch=11 n=63 v=31
88320 On ch=11 n=66 v=31
88474 On ch=11 n=66 v=0
88474 On ch=11 n=63 v=0
88608 On ch=11 n=54 v=31
88646 On ch=11 n=54 v=0
88704 On ch=11 n=66 v=31
88800 On ch=11 n=66 v=0
88800 On ch=11 n=64 v=31
88831 On ch=11 n=64 v=0
88872 On ch=11 n=63 v=31
88888 On ch=11 n=63 v=0
88896 On ch=11 n=63 v=31
88992 On ch=11 n=63 v=0
88992 On ch=11 n=61 v=31
89023 On ch=11 n=61 v=0
89064 On ch=11 n=59 v=31
89080 On ch=11 n=59 v=0
89088 On ch=11 n=59 v=31
89126 On ch=11 n=59 v=0
89184 On ch=11 n=54 v=31
89338 On ch=11 n=54 v=0
89376 On ch=11 n=54 v=31
89414 On ch=11 n=54 v=0
89472 On ch=11 n=63 v=31
89472 On ch=11 n=66 v=31
89503 On ch=11 n=66 v=0
89503 On ch=11 n=63 v=0
89520 On ch=11 n=64 v=31
89520 On ch=11 n=68 v=31
89551 On ch=11 n=68 v=0
89551 On ch=11 n=64 v=0
89568 On ch=11 n=63 v=31
89568 On ch=11 n=66 v=31
89599 On ch=11 n=66 v=0
89599 On ch=11 n=63 v=0
89616 On ch=11 n=64 v=31
89616 On ch=11 n=61 v=31
89647 On ch=11 n=61 v=0
89647 On ch=11 n=64 v=0
89664 On ch=11 n=63 v=31
89664 On ch=11 n=59 v=31
89695 On ch=11 n=59 v=0
89695 On ch=11 n=63 v=0
89712 On ch=11 n=61 v=31
89712 On ch=11 n=64 v=31
89743 On ch=11 n=64 v=0
89743 On ch=11 n=61 v=0
89760 On ch=11 n=59 v=31
89760 On ch=11 n=63 v=31
89791 On ch=11 n=63 v=0
89791 On ch=11 n=59 v=0
89808 On ch=11 n=54 v=31
89808 On ch=11 n=61 v=31
89839 On ch=11 n=61 v=0
89839 On ch=11 n=54 v=0
89856 On ch=11 n=51 v=31
89856 On ch=11 n=59 v=31
90010 On ch=11 n=59 v=0
90010 On ch=11 n=51 v=0
90432 On ch=11 n=59 v=31
90432 On ch=11 n=63 v=31
90480 On ch=11 n=63 v=0
90480 On ch=11 n=59 v=0
90480 On ch=11 n=61 v=31
90480 On ch=11 n=64 v=31
90518 On ch=11 n=64 v=0
90518 On ch=11 n=61 v=0
90528 On ch=11 n=54 v=31
90528 On ch=11 n=61 v=31
90566 On ch=11 n=61 v=0
90566 On ch=11 n=54 v=0
90600 On ch=11 n=51 v=31
90600 On ch=11 n=59 v=31
90616 On ch=11 n=59 v=0
90616 On ch=11 n=51 v=0
90624 On ch=11 n=51 v=31
90624 On ch=11 n=59 v=31
90778 On ch=11 n=59 v=0
90778 On ch=11 n=51 v=0
93984 On ch=11 n=51 v=111
93984 On ch=11 n=39 v=111
94080 Par ch=11 c=11 v=64
94092 Par ch=11 c=11 v=63
94104 Par ch=11 c=11 v=62
94116 Par ch=11 c=11 v=61
94128 Par ch=11 c=11 v=60
94140 Par ch=11 c=11 v=59
94148 Par ch=11 c=11 v=58
94160 Par ch=11 c=11 v=57
94172 Par ch=11 c=11 v=56
94184 Par ch=11 c=11 v=55
94196 Par ch=11 c=11 v=54
94208 Par ch=11 c=11 v=53
94216 Par ch=11 c=11 v=52
94228 Par ch=11 c=11 v=51
94240 Par ch=11 c=11 v=50
94252 Par ch=11 c=11 v=49
94264 Par ch=11 c=11 v=48
94272 Par ch=11 c=11 v=47
94284 Par ch=11 c=11 v=46
94296 Par ch=11 c=11 v=45
94308 Par ch=11 c=11 v=44
94320 Par ch=11 c=11 v=43
94332 Par ch=11 c=11 v=42
94340 Par ch=11 c=11 v=41
94352 Par ch=11 c=11 v=40
94364 Par ch=11 c=11 v=39
94376 Par ch=11 c=11 v=38
94388 Par ch=11 c=11 v=37
94400 Par ch=11 c=11 v=36
94408 Par ch=11 c=11 v=35
94420 Par ch=11 c=11 v=34
94432 Par ch=11 c=11 v=33
94444 Par ch=11 c=11 v=32
94848 Par ch=11 c=11 v=32
94872 Par ch=11 c=11 v=31
94896 Par ch=11 c=11 v=30
94916 Par ch=11 c=11 v=29
94940 Par ch=11 c=11 v=28
94964 Par ch=11 c=11 v=27
94984 Par ch=11 c=11 v=26
95008 Par ch=11 c=11 v=25
95032 Par ch=11 c=11 v=24
95052 Par ch=11 c=11 v=23
95076 Par ch=11 c=11 v=22
95100 Par ch=11 c=11 v=21
95120 Par ch=11 c=11 v=20
95144 Par ch=11 c=11 v=19
95168 Par ch=11 c=11 v=18
95188 Par ch=11 c=11 v=17
95212 Par ch=11 c=11 v=16
95424 On ch=11 n=39 v=0
95424 On ch=11 n=51 v=0
95616 Par ch=11 c=11 v=64
103680 On ch=11 n=66 v=79
103680 On ch=11 n=54 v=79
103834 On ch=11 n=54 v=0
103834 On ch=11 n=66 v=0
103872 On ch=11 n=65 v=79
103872 On ch=11 n=53 v=79
104026 On ch=11 n=53 v=0
104026 On ch=11 n=65 v=0
104064 On ch=11 n=66 v=79
104064 On ch=11 n=54 v=79
104218 On ch=11 n=54 v=0
104218 On ch=11 n=66 v=0
104256 On ch=11 n=63 v=79
104256 On ch=11 n=51 v=79
104410 On ch=11 n=51 v=0
104410 On ch=11 n=63 v=0
104448 On ch=11 n=68 v=79
104448 On ch=11 n=56 v=79
104525 On ch=11 n=56 v=0
104525 On ch=11 n=68 v=0
104544 On ch=11 n=66 v=79
104544 On ch=11 n=54 v=79
104582 On ch=11 n=54 v=0
104582 On ch=11 n=66 v=0
104592 On ch=11 n=64 v=79
104592 On ch=11 n=52 v=79
104630 On ch=11 n=52 v=0
104630 On ch=11 n=64 v=0
104640 On ch=11 n=66 v=79
104640 On ch=11 n=54 v=79
104717 On ch=11 n=54 v=0
104717 On ch=11 n=66 v=0
104736 On ch=11 n=59 v=79
104736 On ch=11 n=47 v=79
104813 On ch=11 n=47 v=0
104813 On ch=11 n=59 v=0
104832 Par ch=11 c=11 v=64
104832 On ch=11 n=64 v=79
104832 On ch=11 n=52 v=79
104856 Par ch=11 c=11 v=63
104880 Par ch=11 c=11 v=62
104900 Par ch=11 c=11 v=61
104924 Par ch=11 c=11 v=60
104948 Par ch=11 c=11 v=59
104968 Par ch=11 c=11 v=58
104986 On ch=11 n=52 v=0
104986 On ch=11 n=64 v=0
104992 Par ch=11 c=11 v=57
105016 Par ch=11 c=11 v=56
105024 On ch=11 n=63 v=79
105024 On ch=11 n=51 v=79
105036 Par ch=11 c=11 v=55
105060 Par ch=11 c=11 v=54
105084 Par ch=11 c=11 v=53
105104 Par ch=11 c=11 v=52
105128 Par ch=11 c=11 v=51
105152 Par ch=11 c=11 v=50
105172 Par ch=11 c=11 v=49
105178 On ch=11 n=51 v=0
105178 On ch=11 n=63 v=0
105196 Par ch=11 c=11 v=48
105216 Par ch=11 c=11 v=64
105216 On ch=11 n=65 v=79
105216 On ch=11 n=58 v=79
105216 On ch=11 n=53 v=79
105370 On ch=11 n=53 v=0
105370 On ch=11 n=58 v=0
105370 On ch=11 n=65 v=0
105408 On ch=11 n=63 v=79
105408 On ch=11 n=59 v=79
105408 On ch=11 n=56 v=79
105562 On ch=11 n=56 v=0
105562 On ch=11 n=59 v=0
105562 On ch=11 n=63 v=0
105600 On ch=11 n=65 v=79
105600 On ch=11 n=58 v=79
105754 On ch=11 n=58 v=0
105754 On ch=11 n=65 v=0
105792 On ch=11 n=70 v=79
105792 On ch=11 n=65 v=79
105946 On ch=11 n=65 v=0
105946 On ch=11 n=70 v=0
105984 Par ch=11 c=11 v=64
105984 On ch=11 n=68 v=79
105984 On ch=11 n=65 v=79
105984 On ch=11 n=61 v=79
106008 Par ch=11 c=11 v=65
106032 Par ch=11 c=11 v=66
106052 Par ch=11 c=11 v=67
106061 On ch=11 n=61 v=0
106061 On ch=11 n=65 v=0
106061 On ch=11 n=68 v=0
106076 Par ch=11 c=11 v=68
106080 On ch=11 n=65 v=79
106080 On ch=11 n=68 v=79
106080 On ch=11 n=73 v=79
106100 Par ch=11 c=11 v=69
106120 Par ch=11 c=11 v=70
106144 Par ch=11 c=11 v=71
106157 On ch=11 n=73 v=0
106157 On ch=11 n=68 v=0
106157 On ch=11 n=65 v=0
106168 Par ch=11 c=11 v=72
106176 On ch=11 n=72 v=79
106176 On ch=11 n=68 v=79
106176 On ch=11 n=63 v=79
106188 Par ch=11 c=11 v=73
106212 Par ch=11 c=11 v=74
106236 Par ch=11 c=11 v=75
106253 On ch=11 n=63 v=0
106253 On ch=11 n=68 v=0
106253 On ch=11 n=72 v=0
106256 Par ch=11 c=11 v=76
106272 On ch=11 n=70 v=79
106272 On ch=11 n=64 v=79
106272 On ch=11 n=60 v=79
106280 Par ch=11 c=11 v=77
106304 Par ch=11 c=11 v=78
106324 Par ch=11 c=11 v=79
106348 Par ch=11 c=11 v=80
106349 On ch=11 n=60 v=0
106349 On ch=11 n=64 v=0
106349 On ch=11 n=70 v=0
106368 Par ch=11 c=11 v=64
106368 On ch=11 n=69 v=95
106368 On ch=11 n=65 v=95
106368 On ch=11 n=60 v=95
106522 On ch=11 n=60 v=0
106522 On ch=11 n=65 v=0
106522 On ch=11 n=69 v=0
106752 On ch=11 n=70 v=127
106906 On ch=11 n=70 v=0
107008 On ch=11 n=70 v=127
107029 On ch=11 n=70 v=0
107040 On ch=11 n=72 v=127
107061 On ch=11 n=72 v=0
107072 On ch=11 n=70 v=127
107093 On ch=11 n=70 v=0
107104 On ch=11 n=69 v=127
107125 On ch=11 n=69 v=0
107136 On ch=11 n=70 v=127
107167 On ch=11 n=70 v=0
107208 On ch=11 n=65 v=127
107224 On ch=11 n=65 v=0
107232 On ch=11 n=58 v=127
107263 On ch=11 n=58 v=0
107520 On ch=11 n=70 v=127
107674 On ch=11 n=70 v=0
107776 On ch=11 n=70 v=127
107797 On ch=11 n=70 v=0
107808 On ch=11 n=71 v=127
107829 On ch=11 n=71 v=0
107840 On ch=11 n=70 v=127
107861 On ch=11 n=70 v=0
107872 On ch=11 n=68 v=127
107893 On ch=11 n=68 v=0
107904 On ch=11 n=70 v=127
107935 On ch=11 n=70 v=0
107976 On ch=11 n=61 v=127
107992 On ch=11 n=61 v=0
108000 On ch=11 n=66 v=127
108152 On ch=11 n=66 v=0
109248 On ch=11 n=67 v=79
109325 On ch=11 n=67 v=0
109344 On ch=11 n=69 v=79
109421 On ch=11 n=69 v=0
109440 On ch=11 n=70 v=79
109594 On ch=11 n=70 v=0
109728 On ch=11 n=58 v=111
109805 On ch=11 n=58 v=0
109824 On ch=11 n=70 v=111
109978 On ch=11 n=70 v=0
110016 On ch=11 n=63 v=111
110112 Par ch=11 c=11 v=64
110144 Par ch=11 c=11 v=65
110172 Par ch=11 c=11 v=66
110200 Par ch=11 c=11 v=67
110228 Par ch=11 c=11 v=68
110256 Par ch=11 c=11 v=69
110284 Par ch=11 c=11 v=70
110304 On ch=11 n=63 v=0
110304 On ch=11 n=65 v=111
110312 Par ch=11 c=11 v=71
110340 Par ch=11 c=11 v=72
110368 Par ch=11 c=11 v=73
110396 Par ch=11 c=11 v=74
110400 On ch=11 n=65 v=0
110400 On ch=11 n=67 v=111
110424 Par ch=11 c=11 v=75
110452 Par ch=11 c=11 v=76
110480 Par ch=11 c=11 v=77
110496 On ch=11 n=67 v=0
110496 On ch=11 n=68 v=111
110508 Par ch=11 c=11 v=78
110536 Par ch=11 c=11 v=79
110564 Par ch=11 c=11 v=80
110592 On ch=11 n=68 v=0
110592 Par ch=11 c=11 v=64
110592 On ch=11 n=66 v=111
110746 On ch=11 n=66 v=0
110784 On ch=11 n=65 v=111
110938 On ch=11 n=65 v=0
110976 On ch=11 n=66 v=111
111130 On ch=11 n=66 v=0
111168 On ch=11 n=63 v=111
111322 On ch=11 n=63 v=0
111360 On ch=11 n=63 v=111
111360 On ch=11 n=68 v=111
111437 On ch=11 n=68 v=0
111437 On ch=11 n=63 v=0
111456 On ch=11 n=63 v=111
111456 On ch=11 n=66 v=111
111533 On ch=11 n=66 v=0
111533 On ch=11 n=63 v=0
111552 On ch=11 n=64 v=111
111552 On ch=11 n=68 v=111
111629 On ch=11 n=68 v=0
111629 On ch=11 n=64 v=0
111648 On ch=11 n=64 v=111
111648 On ch=11 n=61 v=111
111674 On ch=11 n=64 v=0
111680 On ch=11 n=66 v=111
111706 On ch=11 n=66 v=0
111712 On ch=11 n=68 v=111
111725 On ch=11 n=61 v=0
111738 On ch=11 n=68 v=0
111744 Par ch=11 c=11 v=64
111744 On ch=11 n=60 v=111
111744 On ch=11 n=63 v=111
111744 On ch=11 n=66 v=111
111744 On ch=11 n=69 v=111
111752 Par ch=11 c=11 v=63
111760 Par ch=11 c=11 v=62
111768 Par ch=11 c=11 v=61
111776 Par ch=11 c=11 v=60
111784 Par ch=11 c=11 v=59
111792 Par ch=11 c=11 v=58
111800 Par ch=11 c=11 v=57
111808 Par ch=11 c=11 v=56
111816 Par ch=11 c=11 v=55
111824 Par ch=11 c=11 v=54
111832 Par ch=11 c=11 v=53
111840 Par ch=11 c=11 v=52
111848 Par ch=11 c=11 v=51
111856 Par ch=11 c=11 v=50
111864 Par ch=11 c=11 v=49
111872 Par ch=11 c=11 v=48
111880 Par ch=11 c=11 v=47
111888 Par ch=11 c=11 v=46
111896 Par ch=11 c=11 v=45
111904 Par ch=11 c=11 v=44
111912 Par ch=11 c=11 v=43
111920 Par ch=11 c=11 v=42
111928 Par ch=11 c=11 v=41
111936 Par ch=11 c=11 v=40
111940 Par ch=11 c=11 v=39
111948 Par ch=11 c=11 v=38
111956 Par ch=11 c=11 v=37
111964 Par ch=11 c=11 v=36
111972 Par ch=11 c=11 v=35
111980 Par ch=11 c=11 v=34
111988 Par ch=11 c=11 v=33
111996 Par ch=11 c=11 v=32
112004 Par ch=11 c=11 v=31
112012 Par ch=11 c=11 v=30
112020 Par ch=11 c=11 v=29
112028 Par ch=11 c=11 v=28
112036 Par ch=11 c=11 v=27
112044 Par ch=11 c=11 v=26
112052 Par ch=11 c=11 v=25
112060 Par ch=11 c=11 v=24
112068 Par ch=11 c=11 v=23
112076 Par ch=11 c=11 v=22
112084 Par ch=11 c=11 v=21
112092 Par ch=11 c=11 v=20
112100 Par ch=11 c=11 v=19
112108 Par ch=11 c=11 v=18
112116 Par ch=11 c=11 v=17
112124 Par ch=11 c=11 v=16
112136 Par ch=11 c=11 v=16
112144 Par ch=11 c=11 v=17
112152 Par ch=11 c=11 v=18
112160 Par ch=11 c=11 v=19
112168 Par ch=11 c=11 v=20
112176 Par ch=11 c=11 v=21
112184 Par ch=11 c=11 v=22
112192 Par ch=11 c=11 v=23
112200 Par ch=11 c=11 v=24
112208 Par ch=11 c=11 v=25
112216 Par ch=11 c=11 v=26
112224 Par ch=11 c=11 v=27
112228 Par ch=11 c=11 v=28
112236 Par ch=11 c=11 v=29
112244 Par ch=11 c=11 v=30
112252 Par ch=11 c=11 v=31
112260 Par ch=11 c=11 v=32
112268 Par ch=11 c=11 v=33
112276 Par ch=11 c=11 v=34
112284 Par ch=11 c=11 v=35
112292 Par ch=11 c=11 v=36
112300 Par ch=11 c=11 v=37
112308 Par ch=11 c=11 v=38
112316 Par ch=11 c=11 v=39
112320 Par ch=11 c=11 v=40
112328 Par ch=11 c=11 v=41
112336 Par ch=11 c=11 v=42
112344 Par ch=11 c=11 v=43
112352 Par ch=11 c=11 v=44
112360 Par ch=11 c=11 v=45
112368 Par ch=11 c=11 v=46
112376 Par ch=11 c=11 v=47
112384 Par ch=11 c=11 v=48
112392 Par ch=11 c=11 v=49
112400 Par ch=11 c=11 v=50
112408 Par ch=11 c=11 v=51
112416 On ch=11 n=69 v=0
112416 On ch=11 n=60 v=0
112416 On ch=11 n=63 v=0
112416 On ch=11 n=66 v=0
112416 Par ch=11 c=11 v=52
112416 On ch=11 n=66 v=111
112416 On ch=11 n=62 v=111
112416 On ch=11 n=70 v=111
112420 Par ch=11 c=11 v=53
112428 Par ch=11 c=11 v=54
112436 Par ch=11 c=11 v=55
112444 Par ch=11 c=11 v=56
112452 Par ch=11 c=11 v=57
112460 Par ch=11 c=11 v=58
112468 Par ch=11 c=11 v=59
112476 Par ch=11 c=11 v=60
112484 Par ch=11 c=11 v=61
112492 Par ch=11 c=11 v=62
112493 On ch=11 n=70 v=0
112493 On ch=11 n=62 v=0
112493 On ch=11 n=66 v=0
112500 Par ch=11 c=11 v=63
112508 Par ch=11 c=11 v=64
112512 Par ch=11 c=11 v=64
112512 On ch=11 n=69 v=111
112512 On ch=11 n=66 v=111
112512 On ch=11 n=63 v=111
112512 On ch=11 n=60 v=111
112520 Par ch=11 c=11 v=63
112528 Par ch=11 c=11 v=62
112536 Par ch=11 c=11 v=61
112544 Par ch=11 c=11 v=60
112552 Par ch=11 c=11 v=59
112560 Par ch=11 c=11 v=58
112568 Par ch=11 c=11 v=57
112576 Par ch=11 c=11 v=56
112584 Par ch=11 c=11 v=55
112592 Par ch=11 c=11 v=54
112600 Par ch=11 c=11 v=53
112608 Par ch=11 c=11 v=52
112616 Par ch=11 c=11 v=51
112624 Par ch=11 c=11 v=50
112632 Par ch=11 c=11 v=49
112640 Par ch=11 c=11 v=48
112648 Par ch=11 c=11 v=47
112656 Par ch=11 c=11 v=46
112664 Par ch=11 c=11 v=45
112672 Par ch=11 c=11 v=44
112680 Par ch=11 c=11 v=43
112688 Par ch=11 c=11 v=42
112696 Par ch=11 c=11 v=41
112704 Par ch=11 c=11 v=40
112708 Par ch=11 c=11 v=39
112716 Par ch=11 c=11 v=38
112724 Par ch=11 c=11 v=37
112732 Par ch=11 c=11 v=36
112740 Par ch=11 c=11 v=35
112748 Par ch=11 c=11 v=34
112756 Par ch=11 c=11 v=33
112764 Par ch=11 c=11 v=32
112772 Par ch=11 c=11 v=31
112780 Par ch=11 c=11 v=30
112788 Par ch=11 c=11 v=29
112796 Par ch=11 c=11 v=28
112804 Par ch=11 c=11 v=27
112812 Par ch=11 c=11 v=26
112820 Par ch=11 c=11 v=25
112828 Par ch=11 c=11 v=24
112836 Par ch=11 c=11 v=23
112844 Par ch=11 c=11 v=22
112852 Par ch=11 c=11 v=21
112860 Par ch=11 c=11 v=20
112868 Par ch=11 c=11 v=19
112876 Par ch=11 c=11 v=18
112884 Par ch=11 c=11 v=17
112892 Par ch=11 c=11 v=16
112904 Par ch=11 c=11 v=16
112912 Par ch=11 c=11 v=17
112920 Par ch=11 c=11 v=18
112928 Par ch=11 c=11 v=19
112936 Par ch=11 c=11 v=20
112944 Par ch=11 c=11 v=21
112952 Par ch=11 c=11 v=22
112960 Par ch=11 c=11 v=23
112968 Par ch=11 c=11 v=24
112976 Par ch=11 c=11 v=25
112984 Par ch=11 c=11 v=26
112992 Par ch=11 c=11 v=27
112996 Par ch=11 c=11 v=28
113004 Par ch=11 c=11 v=29
113012 Par ch=11 c=11 v=30
113020 Par ch=11 c=11 v=31
113028 Par ch=11 c=11 v=32
113036 Par ch=11 c=11 v=33
113044 Par ch=11 c=11 v=34
113052 Par ch=11 c=11 v=35
113060 Par ch=11 c=11 v=36
113068 Par ch=11 c=11 v=37
113076 Par ch=11 c=11 v=38
113084 Par ch=11 c=11 v=39
113088 Par ch=11 c=11 v=40
113096 Par ch=11 c=11 v=41
113104 Par ch=11 c=11 v=42
113112 Par ch=11 c=11 v=43
113120 Par ch=11 c=11 v=44
113128 Par ch=11 c=11 v=45
113136 Par ch=11 c=11 v=46
113144 Par ch=11 c=11 v=47
113152 Par ch=11 c=11 v=48
113160 Par ch=11 c=11 v=49
113168 Par ch=11 c=11 v=50
113176 Par ch=11 c=11 v=51
113184 On ch=11 n=60 v=0
113184 On ch=11 n=69 v=0
113184 On ch=11 n=66 v=0
113184 On ch=11 n=63 v=0
113184 Par ch=11 c=11 v=52
113184 On ch=11 n=70 v=111
113184 On ch=11 n=62 v=111
113184 On ch=11 n=66 v=111
113188 Par ch=11 c=11 v=53
113196 Par ch=11 c=11 v=54
113204 Par ch=11 c=11 v=55
113212 Par ch=11 c=11 v=56
113220 Par ch=11 c=11 v=57
113228 Par ch=11 c=11 v=58
113236 Par ch=11 c=11 v=59
113244 Par ch=11 c=11 v=60
113252 Par ch=11 c=11 v=61
113260 Par ch=11 c=11 v=62
113261 On ch=11 n=66 v=0
113261 On ch=11 n=62 v=0
113261 On ch=11 n=70 v=0
113268 Par ch=11 c=11 v=63
113276 Par ch=11 c=11 v=64
113280 On ch=11 n=64 v=95
113280 On ch=11 n=68 v=95
113280 On ch=11 n=71 v=95
113376 On ch=11 n=71 v=0
113376 On ch=11 n=68 v=0
113376 On ch=11 n=64 v=0
113376 On ch=11 n=70 v=95
113376 On ch=11 n=62 v=95
113376 On ch=11 n=66 v=95
113472 On ch=11 n=62 v=0
113472 On ch=11 n=70 v=0
113472 On ch=11 n=63 v=95
113472 On ch=11 n=71 v=95
113568 On ch=11 n=71 v=0
113568 On ch=11 n=63 v=0
113568 On ch=11 n=70 v=95
113568 On ch=11 n=62 v=95
113606 On ch=11 n=66 v=0
113645 On ch=11 n=62 v=0
113645 On ch=11 n=70 v=0
113664 Par ch=11 c=11 v=64
113664 On ch=11 n=65 v=95
113664 On ch=11 n=70 v=95
113664 On ch=11 n=73 v=95
113676 Par ch=11 c=11 v=65
113688 Par ch=11 c=11 v=66
113700 Par ch=11 c=11 v=67
113712 Par ch=11 c=11 v=68
113724 Par ch=11 c=11 v=69
113736 Par ch=11 c=11 v=70
113748 Par ch=11 c=11 v=71
113760 On ch=11 n=73 v=0
113760 On ch=11 n=70 v=0
113760 On ch=11 n=65 v=0
113760 Par ch=11 c=11 v=72
113760 On ch=11 n=72 v=95
113760 On ch=11 n=68 v=95
113760 On ch=11 n=64 v=95
113772 Par ch=11 c=11 v=73
113784 Par ch=11 c=11 v=74
113792 Par ch=11 c=11 v=75
113804 Par ch=11 c=11 v=76
113816 Par ch=11 c=11 v=77
113828 Par ch=11 c=11 v=78
113840 Par ch=11 c=11 v=79
113852 Par ch=11 c=11 v=80
113856 On ch=11 n=64 v=0
113856 On ch=11 n=68 v=0
113856 On ch=11 n=72 v=0
113856 On ch=11 n=73 v=95
113856 On ch=11 n=69 v=95
113856 On ch=11 n=65 v=95
113864 Par ch=11 c=11 v=81
113876 Par ch=11 c=11 v=82
113888 Par ch=11 c=11 v=83
113900 Par ch=11 c=11 v=84
113912 Par ch=11 c=11 v=85
113920 Par ch=11 c=11 v=86
113932 Par ch=11 c=11 v=87
113944 Par ch=11 c=11 v=88
113952 On ch=11 n=65 v=0
113952 On ch=11 n=69 v=0
113952 On ch=11 n=73 v=0
113952 On ch=11 n=72 v=95
113952 On ch=11 n=68 v=95
113952 On ch=11 n=64 v=95
113956 Par ch=11 c=11 v=89
113968 Par ch=11 c=11 v=90
113980 Par ch=11 c=11 v=91
113992 Par ch=11 c=11 v=92
114004 Par ch=11 c=11 v=93
114016 Par ch=11 c=11 v=94
114028 Par ch=11 c=11 v=95
114040 Par ch=11 c=11 v=96
114048 On ch=11 n=64 v=0
114048 On ch=11 n=68 v=0
114048 On ch=11 n=72 v=0
114048 On ch=11 n=65 v=95
114048 On ch=11 n=68 v=95
114048 On ch=11 n=71 v=95
114068 Par ch=11 c=11 v=96
114088 Par ch=11 c=11 v=95
114108 Par ch=11 c=11 v=94
114124 Par ch=11 c=11 v=93
114125 On ch=11 n=65 v=0
114144 Par ch=11 c=11 v=92
114164 Par ch=11 c=11 v=91
114184 Par ch=11 c=11 v=90
114200 Par ch=11 c=11 v=89
114220 Par ch=11 c=11 v=88
114240 Par ch=11 c=11 v=87
114256 Par ch=11 c=11 v=86
114276 Par ch=11 c=11 v=85
114296 Par ch=11 c=11 v=84
114316 Par ch=11 c=11 v=83
114332 Par ch=11 c=11 v=82
114352 Par ch=11 c=11 v=81
114355 On ch=11 n=71 v=0
114355 On ch=11 n=68 v=0
114372 Par ch=11 c=11 v=80
114392 Par ch=11 c=11 v=79
114408 Par ch=11 c=11 v=78
114428 Par ch=11 c=11 v=77
114432 On ch=11 n=66 v=95
114432 On ch=11 n=70 v=95
114448 Par ch=11 c=11 v=76
114464 Par ch=11 c=11 v=75
114484 Par ch=11 c=11 v=74
114504 Par ch=11 c=11 v=73
114524 Par ch=11 c=11 v=72
114540 Par ch=11 c=11 v=71
114560 Par ch=11 c=11 v=70
114580 Par ch=11 c=11 v=69
114600 Par ch=11 c=11 v=68
114616 Par ch=11 c=11 v=67
114636 Par ch=11 c=11 v=66
114656 Par ch=11 c=11 v=65
114662 On ch=11 n=70 v=0
114662 On ch=11 n=66 v=0
114672 Par ch=11 c=11 v=64
115200 On ch=11 n=63 v=100
115200 On ch=11 n=51 v=100
115221 On ch=11 n=51 v=0
115221 On ch=11 n=63 v=0
115232 On ch=11 n=63 v=100
115232 On ch=11 n=51 v=100
115253 On ch=11 n=51 v=0
115253 On ch=11 n=63 v=0
115264 On ch=11 n=63 v=100
115264 On ch=11 n=51 v=100
115285 On ch=11 n=51 v=0
115285 On ch=11 n=63 v=0
115296 On ch=11 n=63 v=100
115296 On ch=11 n=51 v=100
115317 On ch=11 n=51 v=0
115317 On ch=11 n=63 v=0
115328 On ch=11 n=63 v=100
115328 On ch=11 n=51 v=100
115349 On ch=11 n=51 v=0
115349 On ch=11 n=63 v=0
115360 On ch=11 n=63 v=100
115360 On ch=11 n=51 v=100
115381 On ch=11 n=51 v=0
115381 On ch=11 n=63 v=0
115392 On ch=11 n=63 v=100
115392 On ch=11 n=51 v=100
115413 On ch=11 n=51 v=0
115413 On ch=11 n=63 v=0
115424 On ch=11 n=63 v=100
115424 On ch=11 n=51 v=100
115445 On ch=11 n=51 v=0
115445 On ch=11 n=63 v=0
115456 On ch=11 n=63 v=100
115456 On ch=11 n=51 v=100
115477 On ch=11 n=51 v=0
115477 On ch=11 n=63 v=0
115488 On ch=11 n=62 v=100
115488 On ch=11 n=50 v=100
115509 On ch=11 n=50 v=0
115509 On ch=11 n=62 v=0
115520 On ch=11 n=62 v=100
115520 On ch=11 n=50 v=100
115541 On ch=11 n=50 v=0
115541 On ch=11 n=62 v=0
115552 On ch=11 n=62 v=100
115552 On ch=11 n=50 v=100
115573 On ch=11 n=50 v=0
115573 On ch=11 n=62 v=0
115584 Par ch=11 c=11 v=64
115584 On ch=11 n=61 v=100
115584 On ch=11 n=49 v=100
115605 On ch=11 n=49 v=0
115605 On ch=11 n=61 v=0
115608 Par ch=11 c=11 v=65
115616 On ch=11 n=61 v=100
115616 On ch=11 n=49 v=100
115632 Par ch=11 c=11 v=66
115637 On ch=11 n=49 v=0
115637 On ch=11 n=61 v=0
115648 On ch=11 n=61 v=100
115648 On ch=11 n=49 v=100
115652 Par ch=11 c=11 v=67
115669 On ch=11 n=49 v=0
115669 On ch=11 n=61 v=0
115676 Par ch=11 c=11 v=68
115680 On ch=11 n=64 v=100
115680 On ch=11 n=60 v=100
115680 On ch=11 n=48 v=100
115700 Par ch=11 c=11 v=69
115701 On ch=11 n=48 v=0
115701 On ch=11 n=60 v=0
115712 On ch=11 n=60 v=100
115712 On ch=11 n=48 v=100
115720 Par ch=11 c=11 v=70
115733 On ch=11 n=48 v=0
115733 On ch=11 n=60 v=0
115744 Par ch=11 c=11 v=71
115744 On ch=11 n=60 v=100
115744 On ch=11 n=48 v=100
115757 On ch=11 n=64 v=0
115765 On ch=11 n=48 v=0
115765 On ch=11 n=60 v=0
115768 Par ch=11 c=11 v=72
115776 On ch=11 n=66 v=100
115776 On ch=11 n=59 v=100
115776 On ch=11 n=47 v=100
115788 Par ch=11 c=11 v=73
115797 On ch=11 n=47 v=0
115797 On ch=11 n=59 v=0
115808 On ch=11 n=59 v=100
115808 On ch=11 n=47 v=100
115812 Par ch=11 c=11 v=74
115829 On ch=11 n=47 v=0
115829 On ch=11 n=59 v=0
115836 Par ch=11 c=11 v=75
115840 On ch=11 n=59 v=100
115840 On ch=11 n=47 v=100
115853 On ch=11 n=66 v=0
115856 Par ch=11 c=11 v=76
115861 On ch=11 n=47 v=0
115861 On ch=11 n=59 v=0
115872 On ch=11 n=68 v=100
115872 On ch=11 n=58 v=100
115872 On ch=11 n=46 v=100
115880 Par ch=11 c=11 v=77
115893 On ch=11 n=46 v=0
115893 On ch=11 n=58 v=0
115904 Par ch=11 c=11 v=78
115904 On ch=11 n=58 v=100
115904 On ch=11 n=46 v=100
115924 Par ch=11 c=11 v=79
115925 On ch=11 n=46 v=0
115925 On ch=11 n=58 v=0
115936 On ch=11 n=58 v=100
115936 On ch=11 n=46 v=100
115948 Par ch=11 c=11 v=80
115949 On ch=11 n=68 v=0
115957 On ch=11 n=46 v=0
115957 On ch=11 n=58 v=0
115968 Par ch=11 c=11 v=64
115968 On ch=11 n=51 v=100
115968 On ch=11 n=63 v=100
115989 On ch=11 n=63 v=0
115989 On ch=11 n=51 v=0
116000 On ch=11 n=51 v=100
116000 On ch=11 n=63 v=100
116021 On ch=11 n=63 v=0
116021 On ch=11 n=51 v=0
116032 On ch=11 n=51 v=100
116032 On ch=11 n=63 v=100
116053 On ch=11 n=63 v=0
116053 On ch=11 n=51 v=0
116064 On ch=11 n=51 v=100
116064 On ch=11 n=63 v=100
116085 On ch=11 n=63 v=0
116085 On ch=11 n=51 v=0
116096 On ch=11 n=51 v=100
116096 On ch=11 n=63 v=100
116117 On ch=11 n=63 v=0
116117 On ch=11 n=51 v=0
116128 On ch=11 n=51 v=100
116128 On ch=11 n=63 v=100
116149 On ch=11 n=63 v=0
116149 On ch=11 n=51 v=0
116160 On ch=11 n=51 v=100
116160 On ch=11 n=63 v=100
116181 On ch=11 n=63 v=0
116181 On ch=11 n=51 v=0
116192 On ch=11 n=51 v=100
116192 On ch=11 n=63 v=100
116213 On ch=11 n=63 v=0
116213 On ch=11 n=51 v=0
116224 On ch=11 n=51 v=100
116224 On ch=11 n=63 v=100
116245 On ch=11 n=63 v=0
116245 On ch=11 n=51 v=0
116256 On ch=11 n=50 v=100
116256 On ch=11 n=62 v=100
116277 On ch=11 n=62 v=0
116277 On ch=11 n=50 v=0
116288 On ch=11 n=50 v=100
116288 On ch=11 n=62 v=100
116309 On ch=11 n=62 v=0
116309 On ch=11 n=50 v=0
116320 On ch=11 n=50 v=100
116320 On ch=11 n=62 v=100
116341 On ch=11 n=62 v=0
116341 On ch=11 n=50 v=0
116352 On ch=11 n=49 v=100
116352 On ch=11 n=61 v=100
116373 On ch=11 n=61 v=0
116373 On ch=11 n=49 v=0
116384 On ch=11 n=49 v=100
116384 On ch=11 n=61 v=100
116405 On ch=11 n=61 v=0
116405 On ch=11 n=49 v=0
116416 On ch=11 n=49 v=100
116416 On ch=11 n=61 v=100
116437 On ch=11 n=61 v=0
116437 On ch=11 n=49 v=0
116448 On ch=11 n=48 v=100
116448 On ch=11 n=60 v=100
116469 On ch=11 n=60 v=0
116469 On ch=11 n=48 v=0
116480 On ch=11 n=48 v=100
116480 On ch=11 n=60 v=100
116501 On ch=11 n=60 v=0
116501 On ch=11 n=48 v=0
116512 On ch=11 n=48 v=100
116512 On ch=11 n=60 v=100
116533 On ch=11 n=60 v=0
116533 On ch=11 n=48 v=0
116544 On ch=11 n=47 v=100
116544 On ch=11 n=59 v=100
116565 On ch=11 n=59 v=0
116565 On ch=11 n=47 v=0
116576 On ch=11 n=47 v=100
116576 On ch=11 n=59 v=100
116597 On ch=11 n=59 v=0
116597 On ch=11 n=47 v=0
116608 On ch=11 n=47 v=100
116608 On ch=11 n=59 v=100
116629 On ch=11 n=59 v=0
116629 On ch=11 n=47 v=0
116640 On ch=11 n=47 v=100
116640 On ch=11 n=59 v=100
116661 On ch=11 n=59 v=0
116661 On ch=11 n=47 v=0
116672 On ch=11 n=47 v=100
116672 On ch=11 n=59 v=100
116693 On ch=11 n=59 v=0
116693 On ch=11 n=47 v=0
116704 On ch=11 n=47 v=100
116704 On ch=11 n=59 v=100
116725 On ch=11 n=59 v=0
116725 On ch=11 n=47 v=0
116736 On ch=11 n=63 v=100
116736 On ch=11 n=51 v=100
116813 On ch=11 n=51 v=0
116813 On ch=11 n=63 v=0
116832 On ch=11 n=58 v=100
116832 On ch=11 n=46 v=100
116909 On ch=11 n=46 v=0
116909 On ch=11 n=58 v=0
116928 On ch=11 n=39 v=100
116928 On ch=11 n=51 v=100
117005 On ch=11 n=51 v=0
117005 On ch=11 n=39 v=0
117024 On ch=11 n=58 v=100
117024 On ch=11 n=46 v=100
117101 On ch=11 n=46 v=0
117101 On ch=11 n=58 v=0
117120 On ch=11 n=51 v=100
117120 On ch=11 n=63 v=100
117197 On ch=11 n=63 v=0
117197 On ch=11 n=51 v=0
117216 On ch=11 n=46 v=100
117216 On ch=11 n=58 v=100
117293 On ch=11 n=58 v=0
117293 On ch=11 n=46 v=0
117312 On ch=11 n=51 v=100
117312 On ch=11 n=39 v=100
117389 On ch=11 n=39 v=0
117389 On ch=11 n=51 v=0
117408 On ch=11 n=46 v=100
117408 On ch=11 n=58 v=100
117485 On ch=11 n=58 v=0
117485 On ch=11 n=46 v=0
117504 Par ch=11 c=11 v=64
117504 On ch=11 n=63 v=100
117504 On ch=11 n=51 v=100
117552 Par ch=11 c=11 v=65
117581 On ch=11 n=51 v=0
117581 On ch=11 n=63 v=0
117596 Par ch=11 c=11 v=66
117600 On ch=11 n=58 v=100
117600 On ch=11 n=46 v=100
117640 Par ch=11 c=11 v=67
117677 On ch=11 n=46 v=0
117677 On ch=11 n=58 v=0
117688 Par ch=11 c=11 v=68
117696 On ch=11 n=39 v=100
117696 On ch=11 n=51 v=100
117732 Par ch=11 c=11 v=69
117773 On ch=11 n=51 v=0
117773 On ch=11 n=39 v=0
117776 Par ch=11 c=11 v=70
117792 On ch=11 n=58 v=100
117792 On ch=11 n=46 v=100
117824 Par ch=11 c=11 v=71
117868 Par ch=11 c=11 v=72
117869 On ch=11 n=46 v=0
117869 On ch=11 n=58 v=0
117888 On ch=11 n=63 v=100
117888 On ch=11 n=51 v=100
117912 Par ch=11 c=11 v=73
117956 Par ch=11 c=11 v=74
117965 On ch=11 n=51 v=0
117965 On ch=11 n=63 v=0
117984 On ch=11 n=58 v=100
117984 On ch=11 n=46 v=100
118004 Par ch=11 c=11 v=75
118048 Par ch=11 c=11 v=76
118061 On ch=11 n=46 v=0
118061 On ch=11 n=58 v=0
118080 On ch=11 n=39 v=100
118080 On ch=11 n=51 v=100
118092 Par ch=11 c=11 v=77
118140 Par ch=11 c=11 v=78
118157 On ch=11 n=51 v=0
118157 On ch=11 n=39 v=0
118176 On ch=11 n=58 v=100
118176 On ch=11 n=46 v=100
118184 Par ch=11 c=11 v=79
118228 Par ch=11 c=11 v=80
118253 On ch=11 n=46 v=0
118253 On ch=11 n=58 v=0
118272 Par ch=11 c=11 v=64
118272 On ch=11 n=70 v=100
118272 On ch=11 n=58 v=100
118296 Par ch=11 c=11 v=63
118320 Par ch=11 c=11 v=62
118340 Par ch=11 c=11 v=61
118364 Par ch=11 c=11 v=60
118388 Par ch=11 c=11 v=59
118408 Par ch=11 c=11 v=58
118432 Par ch=11 c=11 v=57
118456 Par ch=11 c=11 v=56
118476 Par ch=11 c=11 v=55
118500 Par ch=11 c=11 v=54
118524 Par ch=11 c=11 v=53
118544 Par ch=11 c=11 v=52
118560 On ch=11 n=58 v=0
118560 On ch=11 n=70 v=0
118560 On ch=11 n=69 v=100
118560 On ch=11 n=57 v=100
118568 Par ch=11 c=11 v=51
118592 Par ch=11 c=11 v=50
118612 Par ch=11 c=11 v=49
118636 Par ch=11 c=11 v=48
118637 On ch=11 n=57 v=0
118637 On ch=11 n=69 v=0
118656 On ch=11 n=70 v=100
118656 On ch=11 n=58 v=100
118944 On ch=11 n=58 v=0
118944 On ch=11 n=70 v=0
118944 On ch=11 n=69 v=100
118944 On ch=11 n=57 v=100
119021 On ch=11 n=57 v=0
119021 On ch=11 n=69 v=0
119040 On ch=11 n=70 v=100
119040 On ch=11 n=58 v=100
119328 On ch=11 n=58 v=0
119328 On ch=11 n=70 v=0
119328 Par ch=11 c=11 v=48
119328 On ch=11 n=71 v=100
119328 On ch=11 n=59 v=100
119336 Par ch=11 c=11 v=49
119340 Par ch=11 c=11 v=50
119348 Par ch=11 c=11 v=51
119352 Par ch=11 c=11 v=52
119360 Par ch=11 c=11 v=53
119364 Par ch=11 c=11 v=54
119368 Par ch=11 c=11 v=55
119376 Par ch=11 c=11 v=56
119380 Par ch=11 c=11 v=57
119388 Par ch=11 c=11 v=58
119392 Par ch=11 c=11 v=59
119396 Par ch=11 c=11 v=60
119404 Par ch=11 c=11 v=61
119405 On ch=11 n=59 v=0
119405 On ch=11 n=71 v=0
119408 Par ch=11 c=11 v=62
119416 Par ch=11 c=11 v=63
119420 Par ch=11 c=11 v=64
119424 Par ch=11 c=11 v=64
119424 On ch=11 n=70 v=100
119424 On ch=11 n=58 v=100
119436 Par ch=11 c=11 v=63
119448 Par ch=11 c=11 v=62
119460 Par ch=11 c=11 v=61
119472 Par ch=11 c=11 v=60
119484 Par ch=11 c=11 v=59
119496 Par ch=11 c=11 v=58
119508 Par ch=11 c=11 v=57
119520 Par ch=11 c=11 v=56
119532 Par ch=11 c=11 v=55
119544 Par ch=11 c=11 v=54
119556 Par ch=11 c=11 v=53
119568 Par ch=11 c=11 v=52
119580 Par ch=11 c=11 v=51
119592 Par ch=11 c=11 v=50
119604 Par ch=11 c=11 v=49
119616 Par ch=11 c=11 v=48
119693 On ch=11 n=58 v=0
119693 On ch=11 n=70 v=0
119808 Par ch=11 c=11 v=64
120096 On ch=11 n=68 v=100
120096 On ch=11 n=63 v=100
120096 On ch=11 n=56 v=100
120346 On ch=11 n=56 v=0
120346 On ch=11 n=63 v=0
120346 On ch=11 n=68 v=0
120480 On ch=11 n=71 v=100
120480 On ch=11 n=68 v=100
120480 On ch=11 n=65 v=100
120730 On ch=11 n=65 v=0
120730 On ch=11 n=68 v=0
120730 On ch=11 n=71 v=0
120864 On ch=11 n=72 v=100
120864 On ch=11 n=69 v=100
120864 On ch=11 n=66 v=100
121190 On ch=11 n=66 v=0
121190 On ch=11 n=69 v=0
121190 On ch=11 n=72 v=0
121728 On ch=11 n=71 v=127
121728 On ch=11 n=59 v=127
122035 On ch=11 n=59 v=0
122035 On ch=11 n=71 v=0
123264 On ch=11 n=69 v=111
123264 On ch=11 n=57 v=111
123302 On ch=11 n=57 v=0
123302 On ch=11 n=69 v=0
123360 On ch=11 n=70 v=111
123360 On ch=11 n=58 v=111
123514 On ch=11 n=58 v=0
123514 On ch=11 n=70 v=0
124032 On ch=11 n=58 v=111
124032 On ch=11 n=70 v=111
124070 On ch=11 n=70 v=0
124070 On ch=11 n=58 v=0
124128 On ch=11 n=73 v=111
124128 On ch=11 n=61 v=111
124282 On ch=11 n=61 v=0
124282 On ch=11 n=73 v=0
125568 Par ch=11 c=11 v=64
125568 On ch=11 n=72 v=79
125568 On ch=11 n=68 v=79
125568 On ch=11 n=65 v=79
125584 Par ch=11 c=11 v=65
125596 Par ch=11 c=11 v=66
125606 On ch=11 n=65 v=0
125606 On ch=11 n=68 v=0
125606 On ch=11 n=72 v=0
125608 Par ch=11 c=11 v=67
125620 Par ch=11 c=11 v=68
125632 Par ch=11 c=11 v=69
125640 On ch=11 n=72 v=79
125640 On ch=11 n=68 v=79
125640 On ch=11 n=65 v=79
125644 Par ch=11 c=11 v=70
125656 Par ch=11 c=11 v=71
125659 On ch=11 n=65 v=0
125659 On ch=11 n=68 v=0
125659 On ch=11 n=72 v=0
125664 On ch=11 n=72 v=79
125664 On ch=11 n=68 v=79
125664 On ch=11 n=65 v=79
125668 Par ch=11 c=11 v=72
125680 Par ch=11 c=11 v=73
125689 On ch=11 n=65 v=0
125689 On ch=11 n=68 v=0
125689 On ch=11 n=72 v=0
125692 Par ch=11 c=11 v=74
125696 On ch=11 n=72 v=79
125696 On ch=11 n=68 v=79
125696 On ch=11 n=65 v=79
125704 Par ch=11 c=11 v=75
125716 Par ch=11 c=11 v=76
125721 On ch=11 n=65 v=0
125721 On ch=11 n=68 v=0
125721 On ch=11 n=72 v=0
125728 Par ch=11 c=11 v=77
125728 On ch=11 n=72 v=79
125728 On ch=11 n=68 v=79
125728 On ch=11 n=65 v=79
125740 Par ch=11 c=11 v=78
125752 Par ch=11 c=11 v=79
125753 On ch=11 n=65 v=0
125753 On ch=11 n=68 v=0
125753 On ch=11 n=72 v=0
125760 On ch=11 n=72 v=79
125760 On ch=11 n=68 v=79
125760 On ch=11 n=65 v=79
125764 Par ch=11 c=11 v=80
125776 Par ch=11 c=11 v=81
125788 Par ch=11 c=11 v=82
125798 On ch=11 n=65 v=0
125798 On ch=11 n=68 v=0
125798 On ch=11 n=72 v=0
125800 Par ch=11 c=11 v=83
125812 Par ch=11 c=11 v=84
125824 Par ch=11 c=11 v=85
125832 On ch=11 n=65 v=79
125832 On ch=11 n=72 v=79
125832 On ch=11 n=68 v=79
125840 Par ch=11 c=11 v=86
125851 On ch=11 n=68 v=0
125851 On ch=11 n=72 v=0
125851 On ch=11 n=65 v=0
125852 Par ch=11 c=11 v=87
125856 On ch=11 n=72 v=79
125856 On ch=11 n=68 v=79
125856 On ch=11 n=65 v=79
125864 Par ch=11 c=11 v=88
125876 Par ch=11 c=11 v=89
125881 On ch=11 n=65 v=0
125881 On ch=11 n=68 v=0
125881 On ch=11 n=72 v=0
125888 Par ch=11 c=11 v=90
125888 On ch=11 n=72 v=79
125888 On ch=11 n=68 v=79
125888 On ch=11 n=65 v=79
125900 Par ch=11 c=11 v=91
125912 Par ch=11 c=11 v=92
125913 On ch=11 n=65 v=0
125913 On ch=11 n=68 v=0
125913 On ch=11 n=72 v=0
125920 On ch=11 n=72 v=79
125920 On ch=11 n=68 v=79
125920 On ch=11 n=65 v=79
125924 Par ch=11 c=11 v=93
125936 Par ch=11 c=11 v=94
125945 On ch=11 n=65 v=0
125945 On ch=11 n=68 v=0
125945 On ch=11 n=72 v=0
125948 Par ch=11 c=11 v=95
125952 On ch=11 n=71 v=79
125952 On ch=11 n=68 v=79
125952 On ch=11 n=65 v=79
125960 Par ch=11 c=11 v=96
125972 Par ch=11 c=11 v=97
125984 Par ch=11 c=11 v=98
125990 On ch=11 n=65 v=0
125990 On ch=11 n=68 v=0
125990 On ch=11 n=71 v=0
125996 Par ch=11 c=11 v=99
126000 On ch=11 n=71 v=79
126000 On ch=11 n=68 v=79
126000 On ch=11 n=65 v=79
126008 Par ch=11 c=11 v=100
126020 Par ch=11 c=11 v=101
126032 Par ch=11 c=11 v=102
126038 On ch=11 n=65 v=0
126038 On ch=11 n=68 v=0
126038 On ch=11 n=71 v=0
126044 Par ch=11 c=11 v=103
126048 On ch=11 n=71 v=79
126048 On ch=11 n=68 v=79
126048 On ch=11 n=65 v=79
126056 Par ch=11 c=11 v=104
126068 Par ch=11 c=11 v=105
126080 Par ch=11 c=11 v=106
126086 On ch=11 n=65 v=0
126086 On ch=11 n=68 v=0
126086 On ch=11 n=71 v=0
126096 Par ch=11 c=11 v=107
126096 On ch=11 n=71 v=79
126096 On ch=11 n=68 v=79
126096 On ch=11 n=65 v=79
126108 Par ch=11 c=11 v=108
126120 Par ch=11 c=11 v=109
126132 Par ch=11 c=11 v=110
126134 On ch=11 n=65 v=0
126134 On ch=11 n=68 v=0
126134 On ch=11 n=71 v=0
126144 Par ch=11 c=11 v=111
126144 On ch=11 n=71 v=79
126144 On ch=11 n=68 v=79
126144 On ch=11 n=65 v=79
126156 Par ch=11 c=11 v=112
126168 Par ch=11 c=11 v=113
126169 On ch=11 n=65 v=0
126169 On ch=11 n=68 v=0
126169 On ch=11 n=71 v=0
126176 On ch=11 n=71 v=79
126176 On ch=11 n=68 v=79
126176 On ch=11 n=65 v=79
126180 Par ch=11 c=11 v=114
126192 Par ch=11 c=11 v=115
126201 On ch=11 n=65 v=0
126201 On ch=11 n=68 v=0
126201 On ch=11 n=71 v=0
126204 Par ch=11 c=11 v=116
126208 On ch=11 n=71 v=79
126208 On ch=11 n=68 v=79
126208 On ch=11 n=65 v=79
126216 Par ch=11 c=11 v=117
126228 Par ch=11 c=11 v=118
126233 On ch=11 n=65 v=0
126233 On ch=11 n=68 v=0
126233 On ch=11 n=71 v=0
126240 Par ch=11 c=11 v=119
126240 On ch=11 n=71 v=79
126240 On ch=11 n=68 v=79
126240 On ch=11 n=65 v=79
126252 Par ch=11 c=11 v=120
126264 Par ch=11 c=11 v=121
126265 On ch=11 n=65 v=0
126265 On ch=11 n=68 v=0
126265 On ch=11 n=71 v=0
126272 On ch=11 n=71 v=79
126272 On ch=11 n=68 v=79
126272 On ch=11 n=65 v=79
126276 Par ch=11 c=11 v=122
126288 Par ch=11 c=11 v=123
126297 On ch=11 n=65 v=0
126297 On ch=11 n=68 v=0
126297 On ch=11 n=71 v=0
126300 Par ch=11 c=11 v=124
126304 On ch=11 n=71 v=79
126304 On ch=11 n=68 v=79
126304 On ch=11 n=65 v=79
126312 Par ch=11 c=11 v=125
126324 Par ch=11 c=11 v=126
126329 On ch=11 n=65 v=0
126329 On ch=11 n=68 v=0
126329 On ch=11 n=71 v=0
126336 Par ch=11 c=11 v=64
126336 On ch=11 n=67 v=127
126336 On ch=11 n=72 v=127
126367 On ch=11 n=72 v=0
126367 On ch=11 n=67 v=0
126384 On ch=11 n=60 v=127
126415 On ch=11 n=60 v=0
128256 On ch=11 n=48 v=47
128256 On ch=11 n=60 v=47
128486 On ch=11 n=60 v=0
128486 On ch=11 n=48 v=0
128544 On ch=11 n=55 v=47
128544 On ch=11 n=43 v=47
128621 On ch=11 n=43 v=0
128621 On ch=11 n=55 v=0
128640 On ch=11 n=60 v=47
128640 On ch=11 n=48 v=47
128794 On ch=11 n=48 v=0
128794 On ch=11 n=60 v=0
128832 On ch=11 n=62 v=47
128832 On ch=11 n=50 v=47
128909 On ch=11 n=50 v=0
128909 On ch=11 n=62 v=0
128928 On ch=11 n=65 v=47
128928 On ch=11 n=53 v=47
128966 On ch=11 n=53 v=0
128966 On ch=11 n=65 v=0
129000 On ch=11 n=68 v=47
129000 On ch=11 n=56 v=47
129019 On ch=11 n=56 v=0
129019 On ch=11 n=68 v=0
129024 On ch=11 n=72 v=47
129024 On ch=11 n=60 v=47
129178 On ch=11 n=60 v=0
129178 On ch=11 n=72 v=0
129216 On ch=11 n=67 v=47
129216 On ch=11 n=55 v=47
129331 On ch=11 n=55 v=0
129331 On ch=11 n=67 v=0
129360 On ch=11 n=67 v=47
129360 On ch=11 n=55 v=47
129391 On ch=11 n=55 v=0
129391 On ch=11 n=67 v=0
129408 On ch=11 n=72 v=47
129408 On ch=11 n=60 v=47
129562 On ch=11 n=60 v=0
129562 On ch=11 n=72 v=0
129664 On ch=11 n=72 v=47
129664 On ch=11 n=60 v=47
129685 On ch=11 n=60 v=0
129685 On ch=11 n=72 v=0
129696 On ch=11 n=74 v=47
129696 On ch=11 n=62 v=47
129717 On ch=11 n=62 v=0
129717 On ch=11 n=74 v=0
129728 On ch=11 n=72 v=47
129728 On ch=11 n=60 v=47
129749 On ch=11 n=60 v=0
129749 On ch=11 n=72 v=0
129760 On ch=11 n=71 v=47
129760 On ch=11 n=59 v=47
129781 On ch=11 n=59 v=0
129781 On ch=11 n=71 v=0
129792 On ch=11 n=72 v=47
129792 On ch=11 n=60 v=47
129823 On ch=11 n=60 v=0
129823 On ch=11 n=72 v=0
129864 On ch=11 n=67 v=47
129864 On ch=11 n=55 v=47
129880 On ch=11 n=55 v=0
129880 On ch=11 n=67 v=0
129888 On ch=11 n=60 v=47
129888 On ch=11 n=48 v=47
129919 On ch=11 n=48 v=0
129919 On ch=11 n=60 v=0
130080 On ch=11 n=60 v=79
130118 On ch=11 n=60 v=0
130176 On ch=11 n=67 v=79
130330 On ch=11 n=67 v=0
130464 On ch=11 n=60 v=79
130495 On ch=11 n=60 v=0
130536 On ch=11 n=60 v=79
130552 On ch=11 n=60 v=0
130560 On ch=11 n=67 v=79
130637 On ch=11 n=67 v=0
130656 On ch=11 n=60 v=79
130687 On ch=11 n=60 v=0
130728 On ch=11 n=60 v=79
130744 On ch=11 n=60 v=0
130752 On ch=11 n=67 v=79
130829 On ch=11 n=67 v=0
130848 On ch=11 n=60 v=79
130879 On ch=11 n=60 v=0
130920 On ch=11 n=60 v=79
130936 On ch=11 n=60 v=0
130944 On ch=11 n=67 v=47
130944 On ch=11 n=55 v=47
131098 On ch=11 n=55 v=0
131098 On ch=11 n=67 v=0
131136 On ch=11 n=68 v=47
131136 On ch=11 n=72 v=47
131290 On ch=11 n=72 v=0
131290 On ch=11 n=68 v=0
131328 On ch=11 n=67 v=47
131328 On ch=11 n=55 v=47
131482 On ch=11 n=55 v=0
131482 On ch=11 n=67 v=0
131520 On ch=11 n=68 v=47
131520 On ch=11 n=72 v=47
131674 On ch=11 n=72 v=0
131674 On ch=11 n=68 v=0
131712 On ch=11 n=43 v=47
131712 On ch=11 n=67 v=47
131712 On ch=11 n=55 v=47
132403 On ch=11 n=55 v=0
132403 On ch=11 n=67 v=0
132403 On ch=11 n=43 v=0
132480 On ch=11 n=72 v=63
132480 On ch=11 n=68 v=63
133171 On ch=11 n=68 v=0
133171 On ch=11 n=72 v=0
133248 Par ch=11 c=11 v=64
133248 On ch=11 n=67 v=47
133248 On ch=11 n=71 v=47
133260 Par ch=11 c=11 v=65
133272 Par ch=11 c=11 v=66
133284 Par ch=11 c=11 v=67
133296 Par ch=11 c=11 v=68
133308 Par ch=11 c=11 v=69
133320 Par ch=11 c=11 v=70
133332 Par ch=11 c=11 v=71
133344 Par ch=11 c=11 v=72
133356 Par ch=11 c=11 v=73
133368 Par ch=11 c=11 v=74
133380 Par ch=11 c=11 v=75
133392 Par ch=11 c=11 v=76
133404 Par ch=11 c=11 v=77
133416 Par ch=11 c=11 v=78
133428 Par ch=11 c=11 v=79
133440 Par ch=11 c=11 v=80
133452 Par ch=11 c=11 v=81
133464 Par ch=11 c=11 v=82
133476 Par ch=11 c=11 v=83
133478 On ch=11 n=71 v=0
133478 On ch=11 n=67 v=0
133488 Par ch=11 c=11 v=84
133500 Par ch=11 c=11 v=85
133512 Par ch=11 c=11 v=86
133524 Par ch=11 c=11 v=87
133536 Par ch=11 c=11 v=88
133536 On ch=11 n=72 v=47
133536 On ch=11 n=65 v=47
133548 Par ch=11 c=11 v=89
133560 Par ch=11 c=11 v=90
133572 Par ch=11 c=11 v=91
133584 Par ch=11 c=11 v=92
133596 Par ch=11 c=11 v=93
133608 Par ch=11 c=11 v=94
133613 On ch=11 n=65 v=0
133613 On ch=11 n=72 v=0
133620 Par ch=11 c=11 v=95
133632 Par ch=11 c=11 v=96
133632 On ch=11 n=71 v=47
133632 On ch=11 n=65 v=47
133644 Par ch=11 c=11 v=97
133656 Par ch=11 c=11 v=98
133668 Par ch=11 c=11 v=99
133680 Par ch=11 c=11 v=100
133692 Par ch=11 c=11 v=101
133704 Par ch=11 c=11 v=102
133716 Par ch=11 c=11 v=103
133728 Par ch=11 c=11 v=104
133740 Par ch=11 c=11 v=105
133752 Par ch=11 c=11 v=106
133764 Par ch=11 c=11 v=107
133776 Par ch=11 c=11 v=108
133786 On ch=11 n=65 v=0
133786 On ch=11 n=71 v=0
133788 Par ch=11 c=11 v=109
133800 Par ch=11 c=11 v=110
133812 Par ch=11 c=11 v=111
133824 Par ch=11 c=11 v=112
133824 On ch=11 n=65 v=47
133824 On ch=11 n=68 v=47
133848 Par ch=11 c=11 v=64
133978 On ch=11 n=68 v=0
134016 On ch=11 n=65 v=0
134016 Par ch=11 c=11 v=112
134016 On ch=11 n=72 v=47
134016 On ch=11 n=60 v=47
134040 Par ch=11 c=11 v=64
134093 On ch=11 n=72 v=0
134112 On ch=11 n=63 v=47
134150 On ch=11 n=63 v=0
134184 On ch=11 n=65 v=47
134203 On ch=11 n=65 v=0
134208 On ch=11 n=67 v=47
134285 On ch=11 n=67 v=0
134304 On ch=11 n=70 v=47
134362 On ch=11 n=70 v=0
134376 On ch=11 n=68 v=47
134395 On ch=11 n=68 v=0
134400 On ch=11 n=67 v=47
134438 On ch=11 n=67 v=0
134477 On ch=11 n=60 v=0
134496 Par ch=11 c=11 v=64
134496 On ch=11 n=60 v=47
134512 Par ch=11 c=11 v=65
134524 Par ch=11 c=11 v=66
134540 Par ch=11 c=11 v=67
134552 Par ch=11 c=11 v=68
134568 Par ch=11 c=11 v=69
134580 Par ch=11 c=11 v=70
134592 Par ch=11 c=11 v=71
134608 Par ch=11 c=11 v=72
134620 Par ch=11 c=11 v=73
134636 Par ch=11 c=11 v=74
134648 Par ch=11 c=11 v=75
134650 On ch=11 n=60 v=0
134664 Par ch=11 c=11 v=76
134676 Par ch=11 c=11 v=77
134688 Par ch=11 c=11 v=78
134688 On ch=11 n=62 v=47
134704 Par ch=11 c=11 v=79
134709 On ch=11 n=62 v=0
134716 Par ch=11 c=11 v=80
134720 On ch=11 n=63 v=47
134732 Par ch=11 c=11 v=81
134741 On ch=11 n=63 v=0
134744 Par ch=11 c=11 v=82
134752 On ch=11 n=65 v=47
134760 Par ch=11 c=11 v=83
134772 Par ch=11 c=11 v=84
134773 On ch=11 n=65 v=0
134784 Par ch=11 c=11 v=85
134784 On ch=11 n=61 v=47
134784 On ch=11 n=67 v=47
134784 On ch=11 n=58 v=47
134800 Par ch=11 c=11 v=86
134812 Par ch=11 c=11 v=87
134822 On ch=11 n=67 v=0
134828 Par ch=11 c=11 v=88
134840 Par ch=11 c=11 v=89
134856 Par ch=11 c=11 v=90
134868 Par ch=11 c=11 v=91
134880 Par ch=11 c=11 v=92
134896 Par ch=11 c=11 v=93
134908 Par ch=11 c=11 v=94
134924 Par ch=11 c=11 v=95
134936 Par ch=11 c=11 v=96
134952 Par ch=11 c=11 v=97
134964 Par ch=11 c=11 v=98
134976 Par ch=11 c=11 v=99
134992 Par ch=11 c=11 v=100
135004 Par ch=11 c=11 v=101
135020 Par ch=11 c=11 v=102
135032 Par ch=11 c=11 v=103
135048 Par ch=11 c=11 v=104
135060 Par ch=11 c=11 v=105
135072 Par ch=11 c=11 v=106
135088 Par ch=11 c=11 v=107
135100 Par ch=11 c=11 v=108
135116 Par ch=11 c=11 v=109
135128 Par ch=11 c=11 v=110
135144 Par ch=11 c=11 v=111
135156 Par ch=11 c=11 v=112
135322 On ch=11 n=58 v=0
135322 On ch=11 n=61 v=0
135424 Par ch=11 c=11 v=64
135424 On ch=11 n=60 v=95
135432 Par ch=11 c=11 v=65
135440 Par ch=11 c=11 v=66
135445 On ch=11 n=60 v=0
135448 Par ch=11 c=11 v=67
135456 Par ch=11 c=11 v=68
135456 On ch=11 n=67 v=95
135464 Par ch=11 c=11 v=69
135472 Par ch=11 c=11 v=70
135477 On ch=11 n=67 v=0
135480 Par ch=11 c=11 v=71
135488 Par ch=11 c=11 v=72
135488 On ch=11 n=70 v=95
135492 Par ch=11 c=11 v=73
135500 Par ch=11 c=11 v=74
135508 Par ch=11 c=11 v=75
135509 On ch=11 n=70 v=0
135516 Par ch=11 c=11 v=76
135520 On ch=11 n=73 v=95
135524 Par ch=11 c=11 v=77
135532 Par ch=11 c=11 v=78
135540 Par ch=11 c=11 v=79
135541 On ch=11 n=73 v=0
135548 Par ch=11 c=11 v=80
135552 Par ch=11 c=11 v=64
135552 On ch=11 n=72 v=111
135583 On ch=11 n=72 v=0
135624 On ch=11 n=70 v=111
135640 On ch=11 n=70 v=0
135648 On ch=11 n=68 v=111
135679 On ch=11 n=68 v=0
135720 On ch=11 n=67 v=111
135736 On ch=11 n=67 v=0
135744 On ch=11 n=65 v=111
135775 On ch=11 n=65 v=0
135816 On ch=11 n=63 v=111
135832 On ch=11 n=63 v=0
135840 On ch=11 n=61 v=111
135871 On ch=11 n=61 v=0
135912 On ch=11 n=60 v=111
135928 On ch=11 n=60 v=0
135936 On ch=11 n=68 v=111
135967 On ch=11 n=68 v=0
136008 On ch=11 n=67 v=111
136024 On ch=11 n=67 v=0
136032 On ch=11 n=65 v=111
136063 On ch=11 n=65 v=0
136104 On ch=11 n=63 v=111
136120 On ch=11 n=63 v=0
136128 On ch=11 n=61 v=111
136159 On ch=11 n=61 v=0
136200 On ch=11 n=60 v=111
136216 On ch=11 n=60 v=0
136224 On ch=11 n=58 v=111
136255 On ch=11 n=58 v=0
136296 On ch=11 n=56 v=111
136312 On ch=11 n=56 v=0
136320 On ch=11 n=55 v=111
136320 On ch=11 n=67 v=111
136474 On ch=11 n=67 v=0
136474 On ch=11 n=55 v=0
136512 On ch=11 n=56 v=111
136512 On ch=11 n=68 v=111
136589 On ch=11 n=68 v=0
136589 On ch=11 n=56 v=0
136608 On ch=11 n=57 v=111
136608 On ch=11 n=69 v=111
136685 On ch=11 n=69 v=0
136685 On ch=11 n=57 v=0
136704 On ch=11 n=58 v=111
136704 On ch=11 n=70 v=111
136858 On ch=11 n=70 v=0
136858 On ch=11 n=58 v=0
136896 Par ch=11 c=11 v=64
136896 On ch=11 n=59 v=111
136896 On ch=11 n=71 v=111
136904 On ch=11 n=71 v=0
136904 On ch=11 n=59 v=0
136904 On ch=11 n=60 v=111
136904 On ch=11 n=72 v=111
136908 Par ch=11 c=11 v=65
136912 On ch=11 n=72 v=0
136912 On ch=11 n=60 v=0
136912 On ch=11 n=59 v=111
136912 On ch=11 n=71 v=111
136920 On ch=11 n=71 v=0
136920 On ch=11 n=59 v=0
136920 Par ch=11 c=11 v=66
136920 On ch=11 n=60 v=111
136920 On ch=11 n=72 v=111
136928 On ch=11 n=72 v=0
136928 On ch=11 n=60 v=0
136928 On ch=11 n=59 v=111
136928 On ch=11 n=71 v=111
136932 Par ch=11 c=11 v=67
136936 On ch=11 n=71 v=0
136936 On ch=11 n=59 v=0
136936 On ch=11 n=60 v=111
136936 On ch=11 n=72 v=111
136944 On ch=11 n=72 v=0
136944 On ch=11 n=60 v=0
136944 Par ch=11 c=11 v=68
136944 On ch=11 n=59 v=111
136944 On ch=11 n=71 v=111
136952 On ch=11 n=71 v=0
136952 On ch=11 n=59 v=0
136952 On ch=11 n=60 v=111
136952 On ch=11 n=72 v=111
136956 Par ch=11 c=11 v=69
136960 On ch=11 n=72 v=0
136960 On ch=11 n=60 v=0
136960 On ch=11 n=59 v=111
136960 On ch=11 n=71 v=111
136964 Par ch=11 c=11 v=70
136968 On ch=11 n=71 v=0
136968 On ch=11 n=59 v=0
136968 On ch=11 n=60 v=111
136968 On ch=11 n=72 v=111
136976 On ch=11 n=72 v=0
136976 On ch=11 n=60 v=0
136976 Par ch=11 c=11 v=71
136976 On ch=11 n=59 v=111
136976 On ch=11 n=71 v=111
136984 On ch=11 n=71 v=0
136984 On ch=11 n=59 v=0
136984 On ch=11 n=60 v=111
136984 On ch=11 n=72 v=111
136988 Par ch=11 c=11 v=72
136992 On ch=11 n=72 v=0
136992 On ch=11 n=60 v=0
136992 On ch=11 n=59 v=111
136992 On ch=11 n=71 v=111
137000 On ch=11 n=71 v=0
137000 On ch=11 n=59 v=0
137000 Par ch=11 c=11 v=73
137000 On ch=11 n=60 v=111
137000 On ch=11 n=72 v=111
137008 On ch=11 n=72 v=0
137008 On ch=11 n=60 v=0
137008 On ch=11 n=59 v=111
137008 On ch=11 n=71 v=111
137012 Par ch=11 c=11 v=74
137016 On ch=11 n=71 v=0
137016 On ch=11 n=59 v=0
137016 On ch=11 n=60 v=111
137016 On ch=11 n=72 v=111
137024 On ch=11 n=72 v=0
137024 On ch=11 n=60 v=0
137024 Par ch=11 c=11 v=75
137024 On ch=11 n=59 v=111
137024 On ch=11 n=71 v=111
137032 On ch=11 n=71 v=0
137032 On ch=11 n=59 v=0
137032 Par ch=11 c=11 v=76
137032 On ch=11 n=60 v=111
137032 On ch=11 n=72 v=111
137040 On ch=11 n=72 v=0
137040 On ch=11 n=60 v=0
137040 On ch=11 n=59 v=111
137040 On ch=11 n=71 v=111
137044 Par ch=11 c=11 v=77
137048 On ch=11 n=71 v=0
137048 On ch=11 n=59 v=0
137048 On ch=11 n=60 v=111
137048 On ch=11 n=72 v=111
137056 On ch=11 n=72 v=0
137056 On ch=11 n=60 v=0
137056 Par ch=11 c=11 v=78
137056 On ch=11 n=59 v=111
137056 On ch=11 n=71 v=111
137064 On ch=11 n=71 v=0
137064 On ch=11 n=59 v=0
137064 On ch=11 n=57 v=111
137064 On ch=11 n=69 v=111
137068 Par ch=11 c=11 v=79
137072 On ch=11 n=69 v=0
137072 On ch=11 n=57 v=0
137072 On ch=11 n=59 v=111
137072 On ch=11 n=71 v=111
137080 On ch=11 n=71 v=0
137080 On ch=11 n=59 v=0
137080 Par ch=11 c=11 v=80
137088 Par ch=11 c=11 v=64
137088 On ch=11 n=60 v=127
137088 On ch=11 n=72 v=127
137126 On ch=11 n=72 v=0
137126 On ch=11 n=60 v=0
138144 On ch=11 n=63 v=47
138240 On ch=11 n=63 v=0
138240 On ch=11 n=70 v=47
138336 On ch=11 n=70 v=0
138336 On ch=11 n=68 v=47
138413 On ch=11 n=68 v=0
138528 On ch=11 n=63 v=31
138624 On ch=11 n=63 v=0
138624 On ch=11 n=70 v=31
138720 On ch=11 n=70 v=0
138720 On ch=11 n=68 v=31
138797 On ch=11 n=68 v=0
139392 Par ch=11 c=11 v=64
139392 On ch=11 n=64 v=31
139392 On ch=11 n=52 v=31
139416 Par ch=11 c=11 v=63
139440 Par ch=11 c=11 v=62
139460 Par ch=11 c=11 v=61
139484 Par ch=11 c=11 v=60
139508 Par ch=11 c=11 v=59
139528 Par ch=11 c=11 v=58
139552 Par ch=11 c=11 v=57
139576 Par ch=11 c=11 v=56
139596 Par ch=11 c=11 v=55
139620 Par ch=11 c=11 v=54
139622 On ch=11 n=52 v=0
139622 On ch=11 n=64 v=0
139644 Par ch=11 c=11 v=53
139664 Par ch=11 c=11 v=52
139680 On ch=11 n=63 v=31
139680 On ch=11 n=51 v=31
139688 Par ch=11 c=11 v=51
139712 Par ch=11 c=11 v=50
139732 Par ch=11 c=11 v=49
139756 Par ch=11 c=11 v=48
139757 On ch=11 n=51 v=0
139757 On ch=11 n=63 v=0
139776 On ch=11 n=52 v=15
139776 On ch=11 n=40 v=15
140237 On ch=11 n=40 v=0
140237 On ch=11 n=52 v=0
140544 Par ch=11 c=11 v=64
140544 On ch=11 n=61 v=15
140544 On ch=11 n=57 v=15
140832 On ch=11 n=57 v=0
140832 On ch=11 n=61 v=0
140832 On ch=11 n=52 v=15
140832 On ch=11 n=59 v=15
140909 On ch=11 n=59 v=0
140909 On ch=11 n=52 v=0
140928 On ch=11 n=61 v=15
140928 On ch=11 n=57 v=15
141216 On ch=11 n=57 v=0
141216 On ch=11 n=61 v=0
141216 On ch=11 n=52 v=15
141216 On ch=11 n=59 v=15
141293 On ch=11 n=59 v=0
141293 On ch=11 n=52 v=0
141312 On ch=11 n=61 v=15
141312 On ch=11 n=57 v=15
141408 On ch=11 n=57 v=0
141408 On ch=11 n=61 v=0
141408 On ch=11 n=57 v=15
141408 On ch=11 n=49 v=15
141456 On ch=11 n=49 v=0
141456 On ch=11 n=57 v=0
141456 On ch=11 n=59 v=15
141456 On ch=11 n=52 v=15
141504 On ch=11 n=52 v=0
141504 On ch=11 n=59 v=0
141504 On ch=11 n=61 v=15
141504 On ch=11 n=57 v=15
141600 On ch=11 n=57 v=0
141600 On ch=11 n=61 v=0
141600 On ch=11 n=52 v=15
141600 On ch=11 n=59 v=15
141648 On ch=11 n=59 v=0
141648 On ch=11 n=52 v=0
141648 On ch=11 n=61 v=15
141648 On ch=11 n=57 v=15
141696 On ch=11 n=57 v=0
141696 On ch=11 n=61 v=0
141696 On ch=11 n=59 v=15
141696 On ch=11 n=64 v=15
141792 On ch=11 n=64 v=0
141792 On ch=11 n=59 v=0
141792 On ch=11 n=61 v=15
141792 On ch=11 n=57 v=15
141840 On ch=11 n=57 v=0
141840 On ch=11 n=61 v=0
141840 On ch=11 n=64 v=15
141840 On ch=11 n=59 v=15
141888 On ch=11 n=59 v=0
141888 On ch=11 n=64 v=0
141888 On ch=11 n=69 v=15
141888 On ch=11 n=61 v=15
141984 On ch=11 n=61 v=0
141984 On ch=11 n=69 v=0
141984 On ch=11 n=64 v=15
141984 On ch=11 n=59 v=15
142032 On ch=11 n=59 v=0
142032 On ch=11 n=64 v=0
142032 On ch=11 n=69 v=15
142032 On ch=11 n=61 v=15
142080 On ch=11 n=61 v=0
142080 On ch=11 n=69 v=0
142080 On ch=11 n=71 v=15
142080 On ch=11 n=64 v=15
142157 On ch=11 n=64 v=0
142157 On ch=11 n=71 v=0
142944 On ch=11 n=64 v=47
142944 On ch=11 n=59 v=47
142944 On ch=11 n=56 v=47
143040 On ch=11 n=56 v=0
143040 On ch=11 n=59 v=0
143040 On ch=11 n=64 v=0
143040 On ch=11 n=66 v=47
143040 On ch=11 n=61 v=47
143040 On ch=11 n=57 v=47
143136 On ch=11 n=57 v=0
143136 On ch=11 n=61 v=0
143136 On ch=11 n=66 v=0
143136 On ch=11 n=68 v=47
143136 On ch=11 n=63 v=47
143136 On ch=11 n=59 v=47
143232 On ch=11 n=59 v=0
143232 On ch=11 n=63 v=0
143232 On ch=11 n=68 v=0
143232 On ch=11 n=69 v=47
143232 On ch=11 n=64 v=47
143232 On ch=11 n=61 v=47
143328 On ch=11 n=61 v=0
143328 On ch=11 n=64 v=0
143328 On ch=11 n=69 v=0
143328 On ch=11 n=66 v=47
143328 On ch=11 n=61 v=47
143328 On ch=11 n=57 v=47
143376 On ch=11 n=57 v=0
143376 On ch=11 n=61 v=0
143376 On ch=11 n=66 v=0
143376 On ch=11 n=68 v=47
143376 On ch=11 n=63 v=47
143376 On ch=11 n=59 v=47
143424 On ch=11 n=59 v=0
143424 On ch=11 n=63 v=0
143424 On ch=11 n=68 v=0
143424 On ch=11 n=69 v=47
143424 On ch=11 n=64 v=47
143424 On ch=11 n=61 v=47
143520 On ch=11 n=61 v=0
143520 On ch=11 n=64 v=0
143520 On ch=11 n=69 v=0
143520 On ch=11 n=71 v=47
143520 On ch=11 n=66 v=47
143520 On ch=11 n=63 v=47
143616 On ch=11 n=63 v=0
143616 On ch=11 n=66 v=0
143616 On ch=11 n=71 v=0
143616 On ch=11 n=69 v=47
143616 On ch=11 n=64 v=47
143616 On ch=11 n=61 v=47
143712 On ch=11 n=61 v=0
143712 On ch=11 n=64 v=0
143712 On ch=11 n=69 v=0
143712 On ch=11 n=66 v=47
143712 On ch=11 n=61 v=47
143712 On ch=11 n=57 v=47
143808 On ch=11 n=57 v=0
143808 On ch=11 n=61 v=0
143808 On ch=11 n=66 v=0
143808 On ch=11 n=68 v=47
143808 On ch=11 n=63 v=47
143808 On ch=11 n=59 v=47
143904 On ch=11 n=59 v=0
143904 On ch=11 n=63 v=0
143904 On ch=11 n=68 v=0
143904 On ch=11 n=64 v=47
143904 On ch=11 n=59 v=47
143904 On ch=11 n=56 v=47
144000 On ch=11 n=56 v=0
144000 On ch=11 n=59 v=0
144000 On ch=11 n=64 v=0
144000 On ch=11 n=66 v=47
144000 On ch=11 n=61 v=47
144000 On ch=11 n=57 v=47
144288 On ch=11 n=57 v=0
144288 On ch=11 n=61 v=0
144288 On ch=11 n=66 v=0
144288 Par ch=11 c=11 v=64
144288 On ch=11 n=63 v=47
144288 On ch=11 n=68 v=47
144288 On ch=11 n=59 v=47
144304 Par ch=11 c=11 v=63
144320 Par ch=11 c=11 v=62
144332 Par ch=11 c=11 v=61
144336 On ch=11 n=59 v=0
144336 On ch=11 n=68 v=0
144336 On ch=11 n=63 v=0
144336 On ch=11 n=59 v=47
144336 On ch=11 n=64 v=47
144336 On ch=11 n=56 v=47
144348 Par ch=11 c=11 v=60
144360 Par ch=11 c=11 v=59
144376 Par ch=11 c=11 v=58
144384 On ch=11 n=56 v=0
144384 On ch=11 n=64 v=0
144384 On ch=11 n=59 v=0
144384 On ch=11 n=66 v=47
144384 On ch=11 n=61 v=47
144384 On ch=11 n=57 v=47
144388 Par ch=11 c=11 v=57
144404 Par ch=11 c=11 v=56
144416 Par ch=11 c=11 v=55
144432 Par ch=11 c=11 v=54
144444 Par ch=11 c=11 v=53
144460 Par ch=11 c=11 v=52
144472 Par ch=11 c=11 v=51
144488 Par ch=11 c=11 v=50
144500 Par ch=11 c=11 v=49
144516 Par ch=11 c=11 v=48
144528 Par ch=11 c=11 v=47
144544 Par ch=11 c=11 v=46
144560 Par ch=11 c=11 v=45
144572 Par ch=11 c=11 v=44
144588 Par ch=11 c=11 v=43
144600 Par ch=11 c=11 v=42
144616 Par ch=11 c=11 v=41
144628 Par ch=11 c=11 v=40
144644 Par ch=11 c=11 v=39
144656 Par ch=11 c=11 v=38
144672 On ch=11 n=57 v=0
144672 On ch=11 n=61 v=0
144672 On ch=11 n=66 v=0
144672 Par ch=11 c=11 v=37
144672 On ch=11 n=62 v=47
144672 On ch=11 n=68 v=47
144672 On ch=11 n=59 v=47
144684 Par ch=11 c=11 v=36
144700 Par ch=11 c=11 v=35
144712 Par ch=11 c=11 v=34
144720 On ch=11 n=59 v=0
144720 On ch=11 n=68 v=0
144720 On ch=11 n=62 v=0
144720 On ch=11 n=66 v=47
144720 On ch=11 n=71 v=47
144720 On ch=11 n=62 v=47
144728 Par ch=11 c=11 v=33
144740 Par ch=11 c=11 v=32
144768 On ch=11 n=62 v=0
144768 On ch=11 n=71 v=0
144768 On ch=11 n=66 v=0
144768 On ch=11 n=69 v=47
144768 On ch=11 n=64 v=47
144768 On ch=11 n=61 v=47
144864 On ch=11 n=61 v=0
144864 On ch=11 n=64 v=0
144864 On ch=11 n=69 v=0
145152 Par ch=11 c=11 v=64
145728 On ch=11 n=47 v=31
147379 On ch=11 n=47 v=0
147456 Par ch=11 c=11 v=64
147456 On ch=11 n=68 v=47
147456 On ch=11 n=56 v=31
147468 Par ch=11 c=11 v=65
147476 Par ch=11 c=11 v=66
147484 Par ch=11 c=11 v=67
147492 Par ch=11 c=11 v=68
147500 Par ch=11 c=11 v=69
147508 Par ch=11 c=11 v=70
147516 Par ch=11 c=11 v=71
147524 Par ch=11 c=11 v=72
147536 Par ch=11 c=11 v=73
147544 Par ch=11 c=11 v=74
147552 Par ch=11 c=11 v=75
147560 Par ch=11 c=11 v=76
147568 Par ch=11 c=11 v=77
147576 Par ch=11 c=11 v=78
147584 Par ch=11 c=11 v=79
147592 Par ch=11 c=11 v=80
147600 Par ch=11 c=11 v=80
147612 Par ch=11 c=11 v=79
147620 Par ch=11 c=11 v=78
147628 Par ch=11 c=11 v=77
147636 Par ch=11 c=11 v=76
147648 Par ch=11 c=11 v=75
147656 Par ch=11 c=11 v=74
147664 Par ch=11 c=11 v=73
147672 Par ch=11 c=11 v=72
147684 Par ch=11 c=11 v=71
147686 On ch=11 n=68 v=0
147692 Par ch=11 c=11 v=70
147700 Par ch=11 c=11 v=69
147708 Par ch=11 c=11 v=68
147720 Par ch=11 c=11 v=67
147728 Par ch=11 c=11 v=66
147736 Par ch=11 c=11 v=65
147744 On ch=11 n=56 v=0
147744 Par ch=11 c=11 v=64
147744 On ch=11 n=59 v=47
147744 On ch=11 n=57 v=31
147816 On ch=11 n=59 v=0
147816 On ch=11 n=68 v=47
147821 On ch=11 n=57 v=0
147835 On ch=11 n=68 v=0
147840 Par ch=11 c=11 v=64
147840 On ch=11 n=68 v=47
147840 On ch=11 n=56 v=31
147852 Par ch=11 c=11 v=65
147860 Par ch=11 c=11 v=66
147868 Par ch=11 c=11 v=67
147876 Par ch=11 c=11 v=68
147884 Par ch=11 c=11 v=69
147892 Par ch=11 c=11 v=70
147900 Par ch=11 c=11 v=71
147908 Par ch=11 c=11 v=72
147920 Par ch=11 c=11 v=73
147928 Par ch=11 c=11 v=74
147936 Par ch=11 c=11 v=75
147944 Par ch=11 c=11 v=76
147952 Par ch=11 c=11 v=77
147960 Par ch=11 c=11 v=78
147968 Par ch=11 c=11 v=79
147976 Par ch=11 c=11 v=80
147984 Par ch=11 c=11 v=80
147996 Par ch=11 c=11 v=79
148004 Par ch=11 c=11 v=78
148012 Par ch=11 c=11 v=77
148020 Par ch=11 c=11 v=76
148032 Par ch=11 c=11 v=75
148040 Par ch=11 c=11 v=74
148048 Par ch=11 c=11 v=73
148056 Par ch=11 c=11 v=72
148068 Par ch=11 c=11 v=71
148070 On ch=11 n=68 v=0
148076 Par ch=11 c=11 v=70
148084 Par ch=11 c=11 v=69
148092 Par ch=11 c=11 v=68
148104 Par ch=11 c=11 v=67
148112 Par ch=11 c=11 v=66
148120 Par ch=11 c=11 v=65
148128 On ch=11 n=56 v=0
148128 Par ch=11 c=11 v=64
148128 On ch=11 n=59 v=47
148128 On ch=11 n=57 v=31
148200 On ch=11 n=59 v=0
148200 On ch=11 n=68 v=47
148205 On ch=11 n=57 v=0
148219 On ch=11 n=68 v=0
148224 Par ch=11 c=11 v=64
148224 On ch=11 n=68 v=47
148236 Par ch=11 c=11 v=65
148244 Par ch=11 c=11 v=66
148252 Par ch=11 c=11 v=67
148260 Par ch=11 c=11 v=68
148268 Par ch=11 c=11 v=69
148276 Par ch=11 c=11 v=70
148284 Par ch=11 c=11 v=71
148292 Par ch=11 c=11 v=72
148304 Par ch=11 c=11 v=73
148312 Par ch=11 c=11 v=74
148320 Par ch=11 c=11 v=75
148328 Par ch=11 c=11 v=76
148336 Par ch=11 c=11 v=77
148344 Par ch=11 c=11 v=78
148352 Par ch=11 c=11 v=79
148360 Par ch=11 c=11 v=80
148368 Par ch=11 c=11 v=80
148380 Par ch=11 c=11 v=79
148388 Par ch=11 c=11 v=78
148396 Par ch=11 c=11 v=77
148404 Par ch=11 c=11 v=76
148416 Par ch=11 c=11 v=75
148424 Par ch=11 c=11 v=74
148432 Par ch=11 c=11 v=73
148440 Par ch=11 c=11 v=72
148452 Par ch=11 c=11 v=71
148454 On ch=11 n=68 v=0
148460 Par ch=11 c=11 v=70
148468 Par ch=11 c=11 v=69
148476 Par ch=11 c=11 v=68
148488 Par ch=11 c=11 v=67
148496 Par ch=11 c=11 v=66
148504 Par ch=11 c=11 v=65
148512 Par ch=11 c=11 v=64
148512 On ch=11 n=64 v=47
148550 On ch=11 n=64 v=0
148560 On ch=11 n=66 v=47
148598 On ch=11 n=66 v=0
148608 Par ch=11 c=11 v=64
148608 On ch=11 n=67 v=47
148620 Par ch=11 c=11 v=65
148628 Par ch=11 c=11 v=66
148636 Par ch=11 c=11 v=67
148644 Par ch=11 c=11 v=68
148652 Par ch=11 c=11 v=69
148660 Par ch=11 c=11 v=70
148668 Par ch=11 c=11 v=71
148676 Par ch=11 c=11 v=72
148688 Par ch=11 c=11 v=73
148696 Par ch=11 c=11 v=74
148704 Par ch=11 c=11 v=75
148712 Par ch=11 c=11 v=76
148720 Par ch=11 c=11 v=77
148728 Par ch=11 c=11 v=78
148736 Par ch=11 c=11 v=79
148744 Par ch=11 c=11 v=80
148752 Par ch=11 c=11 v=80
148768 Par ch=11 c=11 v=79
148780 Par ch=11 c=11 v=78
148792 Par ch=11 c=11 v=77
148808 Par ch=11 c=11 v=76
148820 Par ch=11 c=11 v=75
148832 Par ch=11 c=11 v=74
148838 On ch=11 n=67 v=0
148848 Par ch=11 c=11 v=73
148860 Par ch=11 c=11 v=72
148872 Par ch=11 c=11 v=71
148888 Par ch=11 c=11 v=70
148896 On ch=11 n=64 v=47
148900 Par ch=11 c=11 v=69
148912 Par ch=11 c=11 v=68
148928 Par ch=11 c=11 v=67
148934 On ch=11 n=64 v=0
148940 Par ch=11 c=11 v=66
148944 On ch=11 n=66 v=47
148952 Par ch=11 c=11 v=65
148968 Par ch=11 c=11 v=64
148982 On ch=11 n=66 v=0
148992 Par ch=11 c=11 v=64
148992 On ch=11 n=68 v=31
149000 Par ch=11 c=11 v=65
149004 Par ch=11 c=11 v=66
149012 Par ch=11 c=11 v=67
149016 Par ch=11 c=11 v=68
149024 Par ch=11 c=11 v=69
149028 Par ch=11 c=11 v=70
149032 Par ch=11 c=11 v=71
149040 Par ch=11 c=11 v=72
149044 Par ch=11 c=11 v=73
149052 Par ch=11 c=11 v=74
149056 Par ch=11 c=11 v=75
149060 Par ch=11 c=11 v=76
149068 Par ch=11 c=11 v=77
149072 Par ch=11 c=11 v=78
149080 Par ch=11 c=11 v=79
149084 Par ch=11 c=11 v=80
149088 Par ch=11 c=11 v=80
149096 Par ch=11 c=11 v=79
149100 Par ch=11 c=11 v=78
149108 Par ch=11 c=11 v=77
149112 Par ch=11 c=11 v=76
149120 Par ch=11 c=11 v=75
149124 Par ch=11 c=11 v=74
149132 Par ch=11 c=11 v=73
149136 Par ch=11 c=11 v=72
149144 Par ch=11 c=11 v=71
149148 Par ch=11 c=11 v=70
149156 Par ch=11 c=11 v=69
149160 Par ch=11 c=11 v=68
149168 Par ch=11 c=11 v=67
149172 Par ch=11 c=11 v=66
149180 Par ch=11 c=11 v=65
149184 On ch=11 n=68 v=0
149184 Par ch=11 c=11 v=64
149184 On ch=11 n=67 v=31
149376 Par ch=11 c=11 v=64
149400 Par ch=11 c=11 v=63
149424 Par ch=11 c=11 v=62
149444 Par ch=11 c=11 v=61
149468 Par ch=11 c=11 v=60
149492 Par ch=11 c=11 v=59
149512 Par ch=11 c=11 v=58
149536 Par ch=11 c=11 v=57
149560 Par ch=11 c=11 v=56
149580 Par ch=11 c=11 v=55
149604 Par ch=11 c=11 v=54
149628 Par ch=11 c=11 v=53
149648 Par ch=11 c=11 v=52
149672 Par ch=11 c=11 v=51
149696 Par ch=11 c=11 v=50
149716 Par ch=11 c=11 v=49
149740 Par ch=11 c=11 v=48
149760 Par ch=11 c=11 v=47
149784 Par ch=11 c=11 v=46
149808 Par ch=11 c=11 v=45
149828 Par ch=11 c=11 v=44
149852 Par ch=11 c=11 v=43
149876 Par ch=11 c=11 v=42
149896 Par ch=11 c=11 v=41
149920 Par ch=11 c=11 v=40
149944 Par ch=11 c=11 v=39
149964 Par ch=11 c=11 v=38
149988 Par ch=11 c=11 v=37
150012 Par ch=11 c=11 v=36
150032 Par ch=11 c=11 v=35
150056 Par ch=11 c=11 v=34
150067 On ch=11 n=67 v=0
150080 Par ch=11 c=11 v=33
150100 Par ch=11 c=11 v=32
150528 Par ch=11 c=11 v=64
151296 On ch=11 n=60 v=15
151296 On ch=11 n=48 v=15
151450 On ch=11 n=48 v=0
151450 On ch=11 n=60 v=0
151488 On ch=11 n=49 v=15
151488 On ch=11 n=61 v=15
151603 On ch=11 n=61 v=0
151603 On ch=11 n=49 v=0
151632 On ch=11 n=62 v=15
151632 On ch=11 n=50 v=15
151670 On ch=11 n=50 v=0
151670 On ch=11 n=62 v=0
151680 On ch=11 n=62 v=15
151680 On ch=11 n=50 v=15
151718 On ch=11 n=50 v=0
151718 On ch=11 n=62 v=0
151776 On ch=11 n=63 v=15
151776 On ch=11 n=51 v=15
151930 On ch=11 n=51 v=0
151930 On ch=11 n=63 v=0
152064 On ch=11 n=60 v=15
152064 On ch=11 n=48 v=15
152218 On ch=11 n=48 v=0
152218 On ch=11 n=60 v=0
152256 On ch=11 n=61 v=15
152256 On ch=11 n=49 v=15
152333 On ch=11 n=49 v=0
152333 On ch=11 n=61 v=0
152352 On ch=11 n=50 v=15
152352 On ch=11 n=62 v=15
152410 On ch=11 n=62 v=0
152410 On ch=11 n=50 v=0
152424 On ch=11 n=63 v=15
152424 On ch=11 n=51 v=15
152443 On ch=11 n=51 v=0
152443 On ch=11 n=63 v=0
152448 On ch=11 n=63 v=15
152448 On ch=11 n=51 v=15
152486 On ch=11 n=51 v=0
152486 On ch=11 n=63 v=0
152544 On ch=11 n=67 v=15
152544 On ch=11 n=55 v=15
152698 On ch=11 n=55 v=0
152698 On ch=11 n=67 v=0
152832 On ch=11 n=60 v=15
152832 On ch=11 n=48 v=15
152986 On ch=11 n=48 v=0
152986 On ch=11 n=60 v=0
153024 On ch=11 n=62 v=15
153024 On ch=11 n=50 v=15
153101 On ch=11 n=50 v=0
153101 On ch=11 n=62 v=0
153120 On ch=11 n=63 v=15
153120 On ch=11 n=51 v=15
153158 On ch=11 n=51 v=0
153158 On ch=11 n=63 v=0
153192 On ch=11 n=67 v=15
153192 On ch=11 n=55 v=15
153211 On ch=11 n=55 v=0
153211 On ch=11 n=67 v=0
153216 On ch=11 n=72 v=15
153216 On ch=11 n=60 v=15
153254 On ch=11 n=60 v=0
153254 On ch=11 n=72 v=0
153984 On ch=11 n=63 v=47
153984 On ch=11 n=72 v=47
153984 On ch=11 n=67 v=47
154022 On ch=11 n=67 v=0
154022 On ch=11 n=72 v=0
154022 On ch=11 n=63 v=0
154080 On ch=11 n=63 v=47
154080 On ch=11 n=71 v=47
154080 On ch=11 n=67 v=47
154234 On ch=11 n=67 v=0
154234 On ch=11 n=71 v=0
154234 On ch=11 n=63 v=0
154272 On ch=11 n=61 v=47
154272 On ch=11 n=70 v=47
154272 On ch=11 n=65 v=47
154293 On ch=11 n=65 v=0
154293 On ch=11 n=70 v=0
154293 On ch=11 n=61 v=0
154304 On ch=11 n=60 v=47
154304 On ch=11 n=68 v=47
154304 On ch=11 n=63 v=47
154325 On ch=11 n=63 v=0
154325 On ch=11 n=68 v=0
154325 On ch=11 n=60 v=0
154336 On ch=11 n=59 v=47
154336 On ch=11 n=67 v=47
154336 On ch=11 n=62 v=47
154357 On ch=11 n=62 v=0
154357 On ch=11 n=67 v=0
154357 On ch=11 n=59 v=0
154368 On ch=11 n=63 v=47
154368 On ch=11 n=71 v=47
154368 On ch=11 n=67 v=47
154406 On ch=11 n=67 v=0
154406 On ch=11 n=71 v=0
154406 On ch=11 n=63 v=0
154464 On ch=11 n=61 v=47
154464 On ch=11 n=70 v=47
154464 On ch=11 n=65 v=47
154618 On ch=11 n=65 v=0
154618 On ch=11 n=70 v=0
154618 On ch=11 n=61 v=0
154656 On ch=11 n=60 v=47
154656 On ch=11 n=68 v=47
154656 On ch=11 n=63 v=47
154677 On ch=11 n=63 v=0
154677 On ch=11 n=68 v=0
154677 On ch=11 n=60 v=0
154688 On ch=11 n=58 v=47
154688 On ch=11 n=67 v=47
154688 On ch=11 n=61 v=47
154709 On ch=11 n=61 v=0
154709 On ch=11 n=67 v=0
154709 On ch=11 n=58 v=0
154720 On ch=11 n=56 v=47
154720 On ch=11 n=65 v=47
154720 On ch=11 n=60 v=47
154741 On ch=11 n=60 v=0
154741 On ch=11 n=65 v=0
154741 On ch=11 n=56 v=0
154752 On ch=11 n=61 v=47
154752 On ch=11 n=70 v=47
154752 On ch=11 n=65 v=47
154783 On ch=11 n=65 v=0
154783 On ch=11 n=70 v=0
154783 On ch=11 n=61 v=0
154848 On ch=11 n=60 v=47
154848 On ch=11 n=68 v=47
154848 On ch=11 n=63 v=47
154973 On ch=11 n=63 v=0
154973 On ch=11 n=68 v=0
154973 On ch=11 n=60 v=0
155040 On ch=11 n=58 v=47
155040 On ch=11 n=67 v=47
155040 On ch=11 n=61 v=47
155061 On ch=11 n=61 v=0
155061 On ch=11 n=67 v=0
155061 On ch=11 n=58 v=0
155072 On ch=11 n=56 v=47
155072 On ch=11 n=65 v=47
155072 On ch=11 n=60 v=47
155093 On ch=11 n=60 v=0
155093 On ch=11 n=65 v=0
155093 On ch=11 n=56 v=0
155104 On ch=11 n=55 v=47
155104 On ch=11 n=63 v=47
155104 On ch=11 n=58 v=47
155125 On ch=11 n=58 v=0
155125 On ch=11 n=63 v=0
155125 On ch=11 n=55 v=0
155136 On ch=11 n=53 v=47
155136 On ch=11 n=62 v=47
155136 On ch=11 n=56 v=47
155174 On ch=11 n=56 v=0
155174 On ch=11 n=62 v=0
155174 On ch=11 n=53 v=0
156672 Par ch=11 c=11 v=64
156672 On ch=11 n=68 v=47
156676 Par ch=11 c=11 v=65
156680 Par ch=11 c=11 v=66
156684 Par ch=11 c=11 v=68
156688 Par ch=11 c=11 v=69
156692 Par ch=11 c=11 v=71
156696 Par ch=11 c=11 v=72
156700 Par ch=11 c=11 v=73
156704 Par ch=11 c=11 v=75
156708 Par ch=11 c=11 v=76
156712 Par ch=11 c=11 v=78
156716 Par ch=11 c=11 v=79
156720 Par ch=11 c=11 v=79
156724 Par ch=11 c=11 v=78
156728 Par ch=11 c=11 v=77
156732 Par ch=11 c=11 v=76
156736 Par ch=11 c=11 v=74
156740 Par ch=11 c=11 v=73
156744 Par ch=11 c=11 v=72
156748 Par ch=11 c=11 v=71
156752 Par ch=11 c=11 v=69
156756 Par ch=11 c=11 v=68
156760 Par ch=11 c=11 v=67
156764 Par ch=11 c=11 v=66
156768 Par ch=11 c=11 v=64
156826 On ch=11 n=68 v=0
156864 Par ch=11 c=11 v=64
156864 On ch=11 n=65 v=47
156868 Par ch=11 c=11 v=65
156872 Par ch=11 c=11 v=66
156876 Par ch=11 c=11 v=68
156880 Par ch=11 c=11 v=69
156884 Par ch=11 c=11 v=71
156888 Par ch=11 c=11 v=72
156892 Par ch=11 c=11 v=73
156896 Par ch=11 c=11 v=75
156900 Par ch=11 c=11 v=76
156904 Par ch=11 c=11 v=78
156908 Par ch=11 c=11 v=79
156912 Par ch=11 c=11 v=79
156916 Par ch=11 c=11 v=78
156920 Par ch=11 c=11 v=77
156924 Par ch=11 c=11 v=76
156928 Par ch=11 c=11 v=74
156932 Par ch=11 c=11 v=73
156936 Par ch=11 c=11 v=72
156940 Par ch=11 c=11 v=71
156944 Par ch=11 c=11 v=69
156948 Par ch=11 c=11 v=68
156952 Par ch=11 c=11 v=67
156956 Par ch=11 c=11 v=66
156960 Par ch=11 c=11 v=64
156979 On ch=11 n=65 v=0
157008 On ch=11 n=67 v=47
157039 On ch=11 n=67 v=0
157056 On ch=11 n=70 v=47
157087 On ch=11 n=70 v=0
157152 On ch=11 n=68 v=47
157306 On ch=11 n=68 v=0
158208 Par ch=11 c=11 v=64
158208 On ch=11 n=67 v=47
158212 Par ch=11 c=11 v=65
158216 Par ch=11 c=11 v=66
158220 Par ch=11 c=11 v=68
158224 Par ch=11 c=11 v=69
158228 Par ch=11 c=11 v=71
158232 Par ch=11 c=11 v=72
158236 Par ch=11 c=11 v=73
158240 Par ch=11 c=11 v=75
158244 Par ch=11 c=11 v=76
158248 Par ch=11 c=11 v=78
158252 Par ch=11 c=11 v=79
158256 Par ch=11 c=11 v=79
158260 Par ch=11 c=11 v=78
158264 Par ch=11 c=11 v=77
158268 Par ch=11 c=11 v=76
158272 Par ch=11 c=11 v=74
158276 Par ch=11 c=11 v=73
158280 Par ch=11 c=11 v=72
158284 Par ch=11 c=11 v=71
158288 Par ch=11 c=11 v=69
158292 Par ch=11 c=11 v=68
158296 Par ch=11 c=11 v=67
158300 Par ch=11 c=11 v=66
158304 Par ch=11 c=11 v=64
158362 On ch=11 n=67 v=0
158400 Par ch=11 c=11 v=64
158400 On ch=11 n=64 v=47
158404 Par ch=11 c=11 v=65
158408 Par ch=11 c=11 v=66
158412 Par ch=11 c=11 v=68
158416 Par ch=11 c=11 v=69
158420 Par ch=11 c=11 v=71
158424 Par ch=11 c=11 v=72
158428 Par ch=11 c=11 v=73
158432 Par ch=11 c=11 v=75
158436 Par ch=11 c=11 v=76
158440 Par ch=11 c=11 v=78
158444 Par ch=11 c=11 v=79
158448 Par ch=11 c=11 v=79
158452 Par ch=11 c=11 v=78
158456 Par ch=11 c=11 v=77
158460 Par ch=11 c=11 v=76
158464 Par ch=11 c=11 v=74
158468 Par ch=11 c=11 v=73
158472 Par ch=11 c=11 v=72
158476 Par ch=11 c=11 v=71
158480 Par ch=11 c=11 v=69
158484 Par ch=11 c=11 v=68
158488 Par ch=11 c=11 v=67
158492 Par ch=11 c=11 v=66
158496 Par ch=11 c=11 v=64
158515 On ch=11 n=64 v=0
158544 On ch=11 n=65 v=47
158582 On ch=11 n=65 v=0
158592 On ch=11 n=68 v=47
158623 On ch=11 n=68 v=0
158688 On ch=11 n=67 v=47
158842 On ch=11 n=67 v=0
158976 Par ch=11 c=11 v=64
158976 On ch=11 n=69 v=47
158980 Par ch=11 c=11 v=65
158984 Par ch=11 c=11 v=66
158988 Par ch=11 c=11 v=68
158992 Par ch=11 c=11 v=69
158996 Par ch=11 c=11 v=71
159000 Par ch=11 c=11 v=72
159004 Par ch=11 c=11 v=73
159008 Par ch=11 c=11 v=75
159012 Par ch=11 c=11 v=76
159016 Par ch=11 c=11 v=78
159020 Par ch=11 c=11 v=79
159024 Par ch=11 c=11 v=79
159028 Par ch=11 c=11 v=78
159032 Par ch=11 c=11 v=77
159036 Par ch=11 c=11 v=76
159040 Par ch=11 c=11 v=74
159044 Par ch=11 c=11 v=73
159048 Par ch=11 c=11 v=72
159052 Par ch=11 c=11 v=71
159056 Par ch=11 c=11 v=69
159060 Par ch=11 c=11 v=68
159064 Par ch=11 c=11 v=67
159068 Par ch=11 c=11 v=66
159072 Par ch=11 c=11 v=64
159130 On ch=11 n=69 v=0
159168 Par ch=11 c=11 v=64
159168 On ch=11 n=66 v=47
159172 Par ch=11 c=11 v=65
159176 Par ch=11 c=11 v=66
159180 Par ch=11 c=11 v=68
159184 Par ch=11 c=11 v=69
159188 Par ch=11 c=11 v=71
159192 Par ch=11 c=11 v=72
159196 Par ch=11 c=11 v=73
159200 Par ch=11 c=11 v=75
159204 Par ch=11 c=11 v=76
159208 Par ch=11 c=11 v=78
159212 Par ch=11 c=11 v=79
159216 Par ch=11 c=11 v=79
159220 Par ch=11 c=11 v=78
159224 Par ch=11 c=11 v=77
159228 Par ch=11 c=11 v=76
159232 Par ch=11 c=11 v=74
159236 Par ch=11 c=11 v=73
159240 Par ch=11 c=11 v=72
159244 Par ch=11 c=11 v=71
159248 Par ch=11 c=11 v=69
159252 Par ch=11 c=11 v=68
159256 Par ch=11 c=11 v=67
159260 Par ch=11 c=11 v=66
159264 Par ch=11 c=11 v=64
159283 On ch=11 n=66 v=0
159312 Par ch=11 c=11 v=64
159312 On ch=11 n=67 v=47
159324 Par ch=11 c=11 v=65
159332 Par ch=11 c=11 v=66
159340 Par ch=11 c=11 v=67
159348 Par ch=11 c=11 v=68
159350 On ch=11 n=67 v=0
159360 Par ch=11 c=11 v=69
159360 On ch=11 n=71 v=47
159360 On ch=11 n=59 v=47
159368 Par ch=11 c=11 v=70
159376 Par ch=11 c=11 v=71
159384 Par ch=11 c=11 v=72
159396 Par ch=11 c=11 v=73
159398 On ch=11 n=59 v=0
159398 On ch=11 n=71 v=0
159404 Par ch=11 c=11 v=74
159412 Par ch=11 c=11 v=75
159420 Par ch=11 c=11 v=76
159432 Par ch=11 c=11 v=77
159440 Par ch=11 c=11 v=78
159448 Par ch=11 c=11 v=79
159456 Par ch=11 c=11 v=80
159552 On ch=11 n=69 v=47
159552 On ch=11 n=57 v=47
159706 On ch=11 n=57 v=0
159706 On ch=11 n=69 v=0
160128 Par ch=11 c=11 v=64
160128 On ch=11 n=59 v=95
160128 On ch=11 n=65 v=95
160128 On ch=11 n=68 v=95
160152 Par ch=11 c=11 v=65
160176 Par ch=11 c=11 v=66
160196 Par ch=11 c=11 v=67
160220 Par ch=11 c=11 v=68
160244 Par ch=11 c=11 v=69
160264 Par ch=11 c=11 v=70
160288 Par ch=11 c=11 v=71
160312 Par ch=11 c=11 v=72
160332 Par ch=11 c=11 v=73
160356 Par ch=11 c=11 v=74
160380 Par ch=11 c=11 v=75
160400 Par ch=11 c=11 v=76
160424 Par ch=11 c=11 v=77
160448 Par ch=11 c=11 v=78
160468 Par ch=11 c=11 v=79
160492 Par ch=11 c=11 v=80
160512 On ch=11 n=68 v=0
160512 On ch=11 n=65 v=0
160512 On ch=11 n=59 v=0
160512 Par ch=11 c=11 v=64
160512 On ch=11 n=60 v=111
160512 On ch=11 n=63 v=111
160512 On ch=11 n=67 v=111
160550 On ch=11 n=67 v=0
160550 On ch=11 n=63 v=0
160550 On ch=11 n=60 v=0
162432 On ch=11 n=63 v=15
162470 On ch=11 n=63 v=0
162528 On ch=11 n=60 v=15
162682 On ch=11 n=60 v=0
162816 On ch=11 n=63 v=15
162854 On ch=11 n=63 v=0
162912 On ch=11 n=60 v=15
163066 On ch=11 n=60 v=0
163200 On ch=11 n=60 v=15
163354 On ch=11 n=60 v=0
163584 On ch=11 n=60 v=15
163738 On ch=11 n=60 v=0
165216 On ch=11 n=58 v=15
165370 On ch=11 n=58 v=0
165600 On ch=11 n=58 v=15
165754 On ch=11 n=58 v=0
166560 Par ch=11 c=11 v=64
166560 On ch=11 n=70 v=31
166564 Par ch=11 c=11 v=65
166568 Par ch=11 c=11 v=66
166572 Par ch=11 c=11 v=68
166576 Par ch=11 c=11 v=69
166580 Par ch=11 c=11 v=71
166584 Par ch=11 c=11 v=72
166588 Par ch=11 c=11 v=73
166592 Par ch=11 c=11 v=75
166596 Par ch=11 c=11 v=76
166600 Par ch=11 c=11 v=78
166604 Par ch=11 c=11 v=79
166608 Par ch=11 c=11 v=80
166612 Par ch=11 c=11 v=79
166616 Par ch=11 c=11 v=77
166620 Par ch=11 c=11 v=76
166624 Par ch=11 c=11 v=74
166628 Par ch=11 c=11 v=73
166632 On ch=11 n=70 v=0
166632 Par ch=11 c=11 v=71
166632 On ch=11 n=68 v=31
166636 Par ch=11 c=11 v=70
166640 Par ch=11 c=11 v=68
166644 Par ch=11 c=11 v=67
166648 On ch=11 n=68 v=0
166648 Par ch=11 c=11 v=65
166652 Par ch=11 c=11 v=64
166944 Par ch=11 c=11 v=64
166944 On ch=11 n=66 v=31
166948 Par ch=11 c=11 v=65
166952 Par ch=11 c=11 v=66
166956 Par ch=11 c=11 v=68
166960 Par ch=11 c=11 v=69
166964 Par ch=11 c=11 v=71
166968 Par ch=11 c=11 v=72
166972 Par ch=11 c=11 v=73
166976 Par ch=11 c=11 v=75
166980 Par ch=11 c=11 v=76
166984 Par ch=11 c=11 v=78
166988 Par ch=11 c=11 v=79
166992 Par ch=11 c=11 v=80
166996 Par ch=11 c=11 v=79
167000 Par ch=11 c=11 v=77
167004 Par ch=11 c=11 v=76
167008 Par ch=11 c=11 v=74
167012 Par ch=11 c=11 v=73
167016 On ch=11 n=66 v=0
167016 Par ch=11 c=11 v=71
167016 On ch=11 n=65 v=31
167020 Par ch=11 c=11 v=70
167024 Par ch=11 c=11 v=68
167028 Par ch=11 c=11 v=67
167032 On ch=11 n=65 v=0
167032 Par ch=11 c=11 v=65
167036 Par ch=11 c=11 v=64
167328 Par ch=11 c=11 v=64
167328 On ch=11 n=63 v=31
167332 Par ch=11 c=11 v=65
167336 Par ch=11 c=11 v=66
167340 Par ch=11 c=11 v=68
167344 Par ch=11 c=11 v=69
167348 Par ch=11 c=11 v=71
167352 Par ch=11 c=11 v=72
167356 Par ch=11 c=11 v=73
167360 Par ch=11 c=11 v=75
167364 Par ch=11 c=11 v=76
167368 Par ch=11 c=11 v=78
167372 Par ch=11 c=11 v=79
167376 Par ch=11 c=11 v=80
167380 Par ch=11 c=11 v=79
167384 Par ch=11 c=11 v=77
167388 Par ch=11 c=11 v=76
167392 Par ch=11 c=11 v=74
167396 Par ch=11 c=11 v=73
167400 On ch=11 n=63 v=0
167400 Par ch=11 c=11 v=71
167400 On ch=11 n=61 v=31
167404 Par ch=11 c=11 v=70
167408 Par ch=11 c=11 v=68
167412 Par ch=11 c=11 v=67
167416 On ch=11 n=61 v=0
167416 Par ch=11 c=11 v=65
167420 Par ch=11 c=11 v=64
167712 Par ch=11 c=11 v=64
167712 On ch=11 n=58 v=31
167716 Par ch=11 c=11 v=65
167720 Par ch=11 c=11 v=66
167724 Par ch=11 c=11 v=68
167728 Par ch=11 c=11 v=69
167732 Par ch=11 c=11 v=71
167736 Par ch=11 c=11 v=72
167740 Par ch=11 c=11 v=73
167744 Par ch=11 c=11 v=75
167748 Par ch=11 c=11 v=76
167752 Par ch=11 c=11 v=78
167756 Par ch=11 c=11 v=79
167760 Par ch=11 c=11 v=80
167764 Par ch=11 c=11 v=79
167768 Par ch=11 c=11 v=77
167772 Par ch=11 c=11 v=76
167776 Par ch=11 c=11 v=74
167780 Par ch=11 c=11 v=73
167784 On ch=11 n=58 v=0
167784 Par ch=11 c=11 v=71
167784 On ch=11 n=56 v=31
167788 Par ch=11 c=11 v=70
167792 Par ch=11 c=11 v=68
167796 Par ch=11 c=11 v=67
167800 On ch=11 n=56 v=0
167800 Par ch=11 c=11 v=65
167804 Par ch=11 c=11 v=64
168000 On ch=11 n=48 v=31
168000 On ch=11 n=52 v=31
168000 On ch=11 n=55 v=31
168154 On ch=11 n=55 v=0
168154 On ch=11 n=52 v=0
168154 On ch=11 n=48 v=0
168384 On ch=11 n=48 v=31
168384 On ch=11 n=52 v=31
168384 On ch=11 n=55 v=31
168538 On ch=11 n=55 v=0
168538 On ch=11 n=52 v=0
168538 On ch=11 n=48 v=0
169344 On ch=11 n=72 v=127
169344 On ch=11 n=60 v=127
169421 On ch=11 n=60 v=0
169421 On ch=11 n=72 v=0
169440 On ch=11 n=69 v=127
169440 On ch=11 n=57 v=127
169517 On ch=11 n=57 v=0
169517 On ch=11 n=69 v=0
169536 On ch=11 n=66 v=127
169536 On ch=11 n=54 v=127
169613 On ch=11 n=54 v=0
169613 On ch=11 n=66 v=0
169632 On ch=11 n=63 v=127
169632 On ch=11 n=51 v=127
169709 On ch=11 n=51 v=0
169709 On ch=11 n=63 v=0
169728 On ch=11 n=60 v=127
169728 On ch=11 n=48 v=127
169805 On ch=11 n=48 v=0
169805 On ch=11 n=60 v=0
169824 On ch=11 n=57 v=127
169824 On ch=11 n=45 v=127
169901 On ch=11 n=45 v=0
169901 On ch=11 n=57 v=0
169920 On ch=11 n=42 v=127
169920 On ch=11 n=54 v=127
169997 On ch=11 n=54 v=0
169997 On ch=11 n=42 v=0
170016 On ch=11 n=51 v=127
170016 On ch=11 n=39 v=127
170093 On ch=11 n=39 v=0
170093 On ch=11 n=51 v=0
170112 On ch=11 n=36 v=127
170112 On ch=11 n=48 v=127
170150 On ch=11 n=48 v=0
170150 On ch=11 n=36 v=0
170150 Meta TrkEnd
TrkEnd
MTrk
0 Meta 0x21 00
0 Meta TrkName "HORN"
192 Par ch=12 c=1 v=8
196 Par ch=12 c=7 v=127
200 Par ch=12 c=10 v=28
204 Par ch=12 c=11 v=64
208 Par ch=12 c=91 v=96
212 Par ch=12 c=93 v=48
216 Par ch=12 c=0 v=0
216 Par ch=12 c=32 v=0
216 PrCh ch=12 p=60
6912 On ch=12 n=60 v=8
9523 On ch=12 n=60 v=0
9600 On ch=12 n=67 v=95
9754 On ch=12 n=67 v=0
9792 On ch=12 n=72 v=95
9792 On ch=12 n=68 v=95
9946 On ch=12 n=68 v=0
9946 On ch=12 n=72 v=0
9984 On ch=12 n=67 v=95
10138 On ch=12 n=67 v=0
10176 On ch=12 n=68 v=95
10176 On ch=12 n=72 v=95
10330 On ch=12 n=72 v=0
10330 On ch=12 n=68 v=0
10368 On ch=12 n=67 v=47
10368 On ch=12 n=55 v=47
11059 On ch=12 n=55 v=0
11059 On ch=12 n=67 v=0
11136 On ch=12 n=72 v=95
11136 On ch=12 n=68 v=95
11184 Par ch=12 c=11 v=32
11827 On ch=12 n=68 v=0
11827 On ch=12 n=72 v=0
11904 Par ch=12 c=11 v=64
11904 On ch=12 n=67 v=95
11904 On ch=12 n=71 v=95
12134 On ch=12 n=71 v=0
12134 On ch=12 n=67 v=0
12192 On ch=12 n=68 v=95
12192 On ch=12 n=72 v=95
12269 On ch=12 n=72 v=0
12269 On ch=12 n=68 v=0
12288 On ch=12 n=67 v=95
12288 On ch=12 n=71 v=95
12442 On ch=12 n=71 v=0
12442 On ch=12 n=67 v=0
12480 On ch=12 n=65 v=95
12634 On ch=12 n=65 v=0
12672 On ch=12 n=63 v=95
12672 On ch=12 n=67 v=95
12902 On ch=12 n=67 v=0
12960 On ch=12 n=66 v=95
13037 On ch=12 n=66 v=0
13056 On ch=12 n=67 v=95
13286 On ch=12 n=67 v=0
13286 On ch=12 n=63 v=0
13440 Par ch=12 c=11 v=64
13440 On ch=12 n=61 v=47
13440 On ch=12 n=58 v=47
13632 Par ch=12 c=11 v=64
13644 Par ch=12 c=11 v=65
13652 Par ch=12 c=11 v=66
13660 Par ch=12 c=11 v=67
13672 Par ch=12 c=11 v=68
13680 Par ch=12 c=11 v=69
13688 Par ch=12 c=11 v=70
13696 Par ch=12 c=11 v=71
13708 Par ch=12 c=11 v=72
13716 Par ch=12 c=11 v=73
13724 Par ch=12 c=11 v=74
13736 Par ch=12 c=11 v=75
13744 Par ch=12 c=11 v=76
13752 Par ch=12 c=11 v=77
13760 Par ch=12 c=11 v=78
13772 Par ch=12 c=11 v=79
13780 Par ch=12 c=11 v=80
13788 Par ch=12 c=11 v=81
13800 Par ch=12 c=11 v=82
13808 Par ch=12 c=11 v=83
13816 Par ch=12 c=11 v=84
13824 Par ch=12 c=11 v=85
13836 Par ch=12 c=11 v=86
13844 Par ch=12 c=11 v=87
13852 Par ch=12 c=11 v=88
13864 Par ch=12 c=11 v=89
13872 Par ch=12 c=11 v=90
13880 Par ch=12 c=11 v=91
13888 Par ch=12 c=11 v=92
13900 Par ch=12 c=11 v=93
13908 Par ch=12 c=11 v=94
13916 Par ch=12 c=11 v=95
13928 Par ch=12 c=11 v=96
13936 Par ch=12 c=11 v=97
13944 Par ch=12 c=11 v=98
13952 Par ch=12 c=11 v=99
13964 Par ch=12 c=11 v=100
13972 Par ch=12 c=11 v=101
13978 On ch=12 n=58 v=0
13978 On ch=12 n=61 v=0
13980 Par ch=12 c=11 v=102
13992 Par ch=12 c=11 v=103
14000 Par ch=12 c=11 v=104
14008 Par ch=12 c=11 v=105
14016 Par ch=12 c=11 v=106
14028 Par ch=12 c=11 v=107
14036 Par ch=12 c=11 v=108
14044 Par ch=12 c=11 v=109
14056 Par ch=12 c=11 v=110
14064 Par ch=12 c=11 v=111
14072 Par ch=12 c=11 v=112
14080 Par ch=12 c=11 v=113
14080 On ch=12 n=60 v=47
14080 On ch=12 n=48 v=47
14092 Par ch=12 c=11 v=114
14100 Par ch=12 c=11 v=115
14101 On ch=12 n=48 v=0
14101 On ch=12 n=60 v=0
14108 Par ch=12 c=11 v=116
14112 On ch=12 n=67 v=47
14112 On ch=12 n=55 v=47
14120 Par ch=12 c=11 v=117
14128 Par ch=12 c=11 v=118
14133 On ch=12 n=55 v=0
14133 On ch=12 n=67 v=0
14136 Par ch=12 c=11 v=119
14144 Par ch=12 c=11 v=120
14144 On ch=12 n=70 v=47
14144 On ch=12 n=58 v=47
14156 Par ch=12 c=11 v=121
14164 Par ch=12 c=11 v=122
14165 On ch=12 n=58 v=0
14165 On ch=12 n=70 v=0
14172 Par ch=12 c=11 v=123
14176 On ch=12 n=73 v=47
14176 On ch=12 n=61 v=47
14184 Par ch=12 c=11 v=124
14192 Par ch=12 c=11 v=125
14197 On ch=12 n=61 v=0
14197 On ch=12 n=73 v=0
14200 Par ch=12 c=11 v=126
14208 Par ch=12 c=11 v=64
14208 On ch=12 n=72 v=111
14208 On ch=12 n=60 v=111
14239 On ch=12 n=60 v=0
14239 On ch=12 n=72 v=0
14280 On ch=12 n=70 v=111
14280 On ch=12 n=58 v=111
14296 On ch=12 n=58 v=0
14296 On ch=12 n=70 v=0
14304 On ch=12 n=68 v=111
14304 On ch=12 n=56 v=111
14335 On ch=12 n=56 v=0
14335 On ch=12 n=68 v=0
14376 On ch=12 n=67 v=111
14376 On ch=12 n=55 v=111
14392 On ch=12 n=55 v=0
14392 On ch=12 n=67 v=0
14400 On ch=12 n=65 v=111
14400 On ch=12 n=53 v=111
14431 On ch=12 n=53 v=0
14431 On ch=12 n=65 v=0
14472 On ch=12 n=63 v=111
14472 On ch=12 n=51 v=111
14488 On ch=12 n=51 v=0
14488 On ch=12 n=63 v=0
14496 On ch=12 n=61 v=111
14496 On ch=12 n=49 v=111
14527 On ch=12 n=49 v=0
14527 On ch=12 n=61 v=0
14568 On ch=12 n=60 v=111
14568 On ch=12 n=48 v=111
14584 On ch=12 n=48 v=0
14584 On ch=12 n=60 v=0
14592 On ch=12 n=68 v=111
14592 On ch=12 n=56 v=111
14623 On ch=12 n=68 v=0
14624 On ch=12 n=56 v=0
14664 On ch=12 n=67 v=111
14664 On ch=12 n=55 v=111
14680 On ch=12 n=55 v=0
14680 On ch=12 n=67 v=0
14688 On ch=12 n=65 v=111
14688 On ch=12 n=53 v=111
14719 On ch=12 n=65 v=0
14720 On ch=12 n=53 v=0
14760 On ch=12 n=63 v=111
14760 On ch=12 n=51 v=111
14776 On ch=12 n=51 v=0
14776 On ch=12 n=63 v=0
14784 On ch=12 n=61 v=111
14784 On ch=12 n=49 v=111
14815 On ch=12 n=61 v=0
14816 On ch=12 n=49 v=0
14856 On ch=12 n=60 v=111
14856 On ch=12 n=48 v=111
14872 On ch=12 n=48 v=0
14872 On ch=12 n=60 v=0
14880 On ch=12 n=58 v=111
14880 On ch=12 n=46 v=111
14911 On ch=12 n=58 v=0
14912 On ch=12 n=46 v=0
14952 On ch=12 n=56 v=111
14952 On ch=12 n=44 v=111
14968 On ch=12 n=44 v=0
14968 On ch=12 n=56 v=0
14976 On ch=12 n=67 v=111
14976 On ch=12 n=43 v=111
14976 On ch=12 n=55 v=111
15014 On ch=12 n=55 v=0
15014 On ch=12 n=43 v=0
15072 On ch=12 n=67 v=0
15072 On ch=12 n=67 v=111
15149 On ch=12 n=67 v=0
15168 On ch=12 n=66 v=111
15168 On ch=12 n=68 v=111
15245 On ch=12 n=68 v=0
15245 On ch=12 n=66 v=0
15264 On ch=12 n=69 v=111
15264 On ch=12 n=65 v=111
15341 On ch=12 n=65 v=0
15341 On ch=12 n=69 v=0
15360 On ch=12 n=64 v=111
15360 On ch=12 n=70 v=111
15398 On ch=12 n=64 v=0
15456 On ch=12 n=63 v=111
15514 On ch=12 n=70 v=0
15552 On ch=12 n=71 v=111
15610 On ch=12 n=63 v=0
15648 On ch=12 n=62 v=111
15706 On ch=12 n=71 v=0
15725 On ch=12 n=62 v=0
15744 On ch=12 n=60 v=111
15744 On ch=12 n=72 v=111
15898 On ch=12 n=72 v=0
15898 On ch=12 n=60 v=0
15936 On ch=12 n=67 v=111
15936 On ch=12 n=55 v=111
16090 On ch=12 n=55 v=0
16090 On ch=12 n=67 v=0
16128 On ch=12 n=60 v=111
16128 On ch=12 n=72 v=111
16282 On ch=12 n=72 v=0
16282 On ch=12 n=60 v=0
16320 On ch=12 n=67 v=111
16320 On ch=12 n=55 v=111
16474 On ch=12 n=55 v=0
16474 On ch=12 n=67 v=0
16512 Par ch=12 c=11 v=64
16512 On ch=12 n=60 v=111
16512 On ch=12 n=72 v=111
16520 Par ch=12 c=11 v=63
16528 Par ch=12 c=11 v=62
16536 Par ch=12 c=11 v=61
16544 Par ch=12 c=11 v=60
16552 Par ch=12 c=11 v=59
16560 Par ch=12 c=11 v=58
16568 Par ch=12 c=11 v=57
16576 Par ch=12 c=11 v=56
16584 Par ch=12 c=11 v=55
16592 Par ch=12 c=11 v=54
16600 Par ch=12 c=11 v=53
16608 Par ch=12 c=11 v=52
16616 Par ch=12 c=11 v=51
16624 Par ch=12 c=11 v=50
16632 Par ch=12 c=11 v=49
16640 Par ch=12 c=11 v=48
16648 Par ch=12 c=11 v=47
16656 Par ch=12 c=11 v=46
16664 Par ch=12 c=11 v=45
16672 Par ch=12 c=11 v=44
16680 Par ch=12 c=11 v=43
16688 Par ch=12 c=11 v=42
16696 Par ch=12 c=11 v=41
16704 Par ch=12 c=11 v=40
16708 Par ch=12 c=11 v=39
16716 Par ch=12 c=11 v=38
16724 Par ch=12 c=11 v=37
16732 Par ch=12 c=11 v=36
16740 Par ch=12 c=11 v=35
16748 Par ch=12 c=11 v=34
16756 Par ch=12 c=11 v=33
16764 Par ch=12 c=11 v=32
16772 Par ch=12 c=11 v=31
16780 Par ch=12 c=11 v=30
16788 Par ch=12 c=11 v=29
16796 Par ch=12 c=11 v=28
16804 Par ch=12 c=11 v=27
16812 Par ch=12 c=11 v=26
16819 On ch=12 n=72 v=0
16819 On ch=12 n=60 v=0
16820 Par ch=12 c=11 v=25
16828 Par ch=12 c=11 v=24
16836 Par ch=12 c=11 v=23
16844 Par ch=12 c=11 v=22
16852 Par ch=12 c=11 v=21
16860 Par ch=12 c=11 v=20
16868 Par ch=12 c=11 v=19
16876 Par ch=12 c=11 v=18
16884 Par ch=12 c=11 v=17
16892 Par ch=12 c=11 v=16
17280 Par ch=12 c=11 v=64
18816 On ch=12 n=64 v=31
18816 On ch=12 n=68 v=31
19104 On ch=12 n=68 v=0
19104 On ch=12 n=64 v=0
19104 On ch=12 n=59 v=31
19104 On ch=12 n=66 v=31
19200 On ch=12 n=66 v=0
19200 On ch=12 n=59 v=0
19200 On ch=12 n=64 v=31
19200 On ch=12 n=56 v=31
19296 On ch=12 n=56 v=0
19296 On ch=12 n=64 v=0
19296 On ch=12 n=66 v=31
19296 On ch=12 n=59 v=31
19392 On ch=12 n=59 v=0
19392 On ch=12 n=66 v=0
19392 On ch=12 n=64 v=31
19392 On ch=12 n=68 v=31
19488 On ch=12 n=68 v=0
19488 On ch=12 n=64 v=0
19488 On ch=12 n=68 v=31
19488 On ch=12 n=71 v=31
19536 On ch=12 n=71 v=0
19536 On ch=12 n=68 v=0
19536 On ch=12 n=69 v=31
19536 On ch=12 n=66 v=31
19584 On ch=12 n=66 v=0
19584 On ch=12 n=69 v=0
19584 On ch=12 n=64 v=31
19584 On ch=12 n=68 v=31
19680 On ch=12 n=68 v=0
19680 On ch=12 n=64 v=0
19680 On ch=12 n=56 v=31
19680 On ch=12 n=64 v=31
19910 On ch=12 n=64 v=0
19910 On ch=12 n=56 v=0
19968 Par ch=12 c=11 v=64
19968 On ch=12 n=61 v=47
19980 Par ch=12 c=11 v=65
19988 Par ch=12 c=11 v=66
19996 Par ch=12 c=11 v=67
20004 Par ch=12 c=11 v=68
20012 Par ch=12 c=11 v=69
20020 Par ch=12 c=11 v=70
20028 Par ch=12 c=11 v=71
20036 Par ch=12 c=11 v=72
20048 Par ch=12 c=11 v=73
20056 Par ch=12 c=11 v=74
20064 Par ch=12 c=11 v=75
20072 Par ch=12 c=11 v=76
20080 Par ch=12 c=11 v=77
20088 Par ch=12 c=11 v=78
20096 Par ch=12 c=11 v=79
20104 Par ch=12 c=11 v=80
20112 Par ch=12 c=11 v=80
20124 Par ch=12 c=11 v=79
20132 Par ch=12 c=11 v=78
20140 Par ch=12 c=11 v=77
20148 Par ch=12 c=11 v=76
20160 Par ch=12 c=11 v=75
20168 Par ch=12 c=11 v=74
20176 Par ch=12 c=11 v=73
20184 Par ch=12 c=11 v=72
20196 Par ch=12 c=11 v=71
20204 Par ch=12 c=11 v=70
20212 Par ch=12 c=11 v=69
20220 Par ch=12 c=11 v=68
20232 Par ch=12 c=11 v=67
20240 Par ch=12 c=11 v=66
20248 Par ch=12 c=11 v=65
20256 On ch=12 n=61 v=0
20256 Par ch=12 c=11 v=64
20256 On ch=12 n=59 v=47
20352 On ch=12 n=59 v=0
20352 Par ch=12 c=11 v=64
20352 On ch=12 n=58 v=47
20352 On ch=12 n=61 v=47
20364 Par ch=12 c=11 v=65
20372 Par ch=12 c=11 v=66
20380 Par ch=12 c=11 v=67
20388 Par ch=12 c=11 v=68
20396 Par ch=12 c=11 v=69
20404 Par ch=12 c=11 v=70
20412 Par ch=12 c=11 v=71
20420 Par ch=12 c=11 v=72
20432 Par ch=12 c=11 v=73
20440 Par ch=12 c=11 v=74
20448 Par ch=12 c=11 v=75
20456 Par ch=12 c=11 v=76
20464 Par ch=12 c=11 v=77
20472 Par ch=12 c=11 v=78
20480 Par ch=12 c=11 v=79
20488 Par ch=12 c=11 v=80
20496 Par ch=12 c=11 v=80
20508 Par ch=12 c=11 v=79
20516 Par ch=12 c=11 v=78
20524 Par ch=12 c=11 v=77
20532 Par ch=12 c=11 v=76
20544 Par ch=12 c=11 v=75
20552 Par ch=12 c=11 v=74
20560 Par ch=12 c=11 v=73
20568 Par ch=12 c=11 v=72
20580 Par ch=12 c=11 v=71
20588 Par ch=12 c=11 v=70
20596 Par ch=12 c=11 v=69
20604 Par ch=12 c=11 v=68
20616 Par ch=12 c=11 v=67
20624 Par ch=12 c=11 v=66
20632 Par ch=12 c=11 v=65
20640 On ch=12 n=61 v=0
20640 On ch=12 n=58 v=0
20640 Par ch=12 c=11 v=64
20640 On ch=12 n=59 v=63
20640 On ch=12 n=56 v=63
20717 On ch=12 n=56 v=0
20717 On ch=12 n=59 v=0
20736 On ch=12 n=58 v=47
20736 On ch=12 n=54 v=47
20890 On ch=12 n=54 v=0
20890 On ch=12 n=58 v=0
20928 On ch=12 n=59 v=47
20928 On ch=12 n=55 v=47
21120 On ch=12 n=55 v=0
21120 On ch=12 n=59 v=0
21120 On ch=12 n=58 v=47
21120 On ch=12 n=55 v=47
21216 On ch=12 n=55 v=0
21216 On ch=12 n=58 v=0
21216 On ch=12 n=59 v=47
21216 On ch=12 n=56 v=47
21312 On ch=12 n=56 v=0
21312 On ch=12 n=59 v=0
21312 On ch=12 n=60 v=47
21312 On ch=12 n=57 v=47
21408 On ch=12 n=57 v=0
21408 On ch=12 n=60 v=0
21408 On ch=12 n=61 v=47
21408 On ch=12 n=58 v=47
21504 On ch=12 n=58 v=0
21504 On ch=12 n=61 v=0
21504 On ch=12 n=59 v=47
21504 On ch=12 n=63 v=47
21581 On ch=12 n=63 v=0
21581 On ch=12 n=59 v=0
22656 On ch=12 n=54 v=79
22656 On ch=12 n=66 v=79
22656 On ch=12 n=58 v=79
22886 On ch=12 n=66 v=0
22886 On ch=12 n=54 v=0
22944 On ch=12 n=51 v=95
22944 On ch=12 n=63 v=95
22982 On ch=12 n=63 v=0
22982 On ch=12 n=51 v=0
22992 On ch=12 n=53 v=95
22992 On ch=12 n=65 v=95
23030 On ch=12 n=65 v=0
23030 On ch=12 n=53 v=0
23040 On ch=12 n=54 v=79
23040 On ch=12 n=66 v=79
23194 On ch=12 n=66 v=0
23194 On ch=12 n=54 v=0
23194 On ch=12 n=58 v=0
23232 Par ch=12 c=11 v=64
23232 On ch=12 n=64 v=79
23232 On ch=12 n=55 v=79
23232 On ch=12 n=58 v=79
23252 Par ch=12 c=11 v=65
23268 Par ch=12 c=11 v=66
23288 Par ch=12 c=11 v=67
23304 Par ch=12 c=11 v=68
23320 Par ch=12 c=11 v=69
23340 Par ch=12 c=11 v=70
23356 Par ch=12 c=11 v=71
23372 Par ch=12 c=11 v=72
23386 On ch=12 n=55 v=0
23386 On ch=12 n=64 v=0
23392 Par ch=12 c=11 v=73
23408 Par ch=12 c=11 v=74
23424 On ch=12 n=58 v=0
23424 Par ch=12 c=11 v=75
23424 On ch=12 n=56 v=79
23424 On ch=12 n=63 v=79
23444 Par ch=12 c=11 v=76
23460 Par ch=12 c=11 v=77
23480 Par ch=12 c=11 v=78
23496 Par ch=12 c=11 v=79
23512 Par ch=12 c=11 v=80
23532 Par ch=12 c=11 v=81
23548 Par ch=12 c=11 v=82
23564 Par ch=12 c=11 v=83
23584 Par ch=12 c=11 v=84
23600 Par ch=12 c=11 v=85
23616 On ch=12 n=63 v=0
23616 Par ch=12 c=11 v=86
23616 On ch=12 n=62 v=79
23636 Par ch=12 c=11 v=87
23652 Par ch=12 c=11 v=88
23672 Par ch=12 c=11 v=89
23688 Par ch=12 c=11 v=90
23704 Par ch=12 c=11 v=91
23724 Par ch=12 c=11 v=92
23731 On ch=12 n=56 v=0
23740 Par ch=12 c=11 v=93
23756 Par ch=12 c=11 v=94
23770 On ch=12 n=62 v=0
23776 Par ch=12 c=11 v=95
23792 Par ch=12 c=11 v=96
23808 On ch=12 n=63 v=79
23808 On ch=12 n=54 v=79
23808 On ch=12 n=58 v=79
23923 On ch=12 n=58 v=0
23923 On ch=12 n=54 v=0
23923 On ch=12 n=63 v=0
24000 On ch=12 n=55 v=79
24000 On ch=12 n=67 v=79
24008 Par ch=12 c=11 v=96
24012 Par ch=12 c=11 v=95
24016 Par ch=12 c=11 v=94
24020 Par ch=12 c=11 v=93
24024 Par ch=12 c=11 v=92
24028 Par ch=12 c=11 v=91
24032 Par ch=12 c=11 v=90
24036 Par ch=12 c=11 v=89
24040 Par ch=12 c=11 v=88
24048 Par ch=12 c=11 v=87
24052 Par ch=12 c=11 v=86
24056 Par ch=12 c=11 v=85
24060 Par ch=12 c=11 v=84
24064 Par ch=12 c=11 v=83
24068 Par ch=12 c=11 v=82
24072 Par ch=12 c=11 v=81
24076 Par ch=12 c=11 v=80
24080 Par ch=12 c=11 v=79
24088 Par ch=12 c=11 v=78
24092 Par ch=12 c=11 v=77
24096 Par ch=12 c=11 v=76
24100 Par ch=12 c=11 v=75
24104 Par ch=12 c=11 v=74
24108 Par ch=12 c=11 v=73
24112 Par ch=12 c=11 v=72
24116 Par ch=12 c=11 v=71
24120 Par ch=12 c=11 v=70
24128 Par ch=12 c=11 v=69
24132 Par ch=12 c=11 v=68
24136 Par ch=12 c=11 v=67
24140 Par ch=12 c=11 v=66
24144 Par ch=12 c=11 v=65
24148 Par ch=12 c=11 v=64
24152 Par ch=12 c=11 v=63
24156 Par ch=12 c=11 v=62
24160 Par ch=12 c=11 v=61
24164 Par ch=12 c=11 v=60
24172 Par ch=12 c=11 v=59
24176 Par ch=12 c=11 v=58
24180 Par ch=12 c=11 v=57
24184 Par ch=12 c=11 v=56
24188 Par ch=12 c=11 v=55
24192 Par ch=12 c=11 v=54
24196 Par ch=12 c=11 v=53
24200 Par ch=12 c=11 v=52
24204 Par ch=12 c=11 v=51
24212 Par ch=12 c=11 v=50
24216 Par ch=12 c=11 v=49
24220 Par ch=12 c=11 v=48
24224 Par ch=12 c=11 v=47
24228 Par ch=12 c=11 v=46
24232 Par ch=12 c=11 v=45
24236 Par ch=12 c=11 v=44
24240 Par ch=12 c=11 v=43
24244 Par ch=12 c=11 v=42
24252 Par ch=12 c=11 v=41
24256 Par ch=12 c=11 v=40
24260 Par ch=12 c=11 v=39
24264 Par ch=12 c=11 v=38
24268 Par ch=12 c=11 v=37
24269 On ch=12 n=67 v=0
24269 On ch=12 n=55 v=0
24272 Par ch=12 c=11 v=36
24276 Par ch=12 c=11 v=35
24280 Par ch=12 c=11 v=34
24284 Par ch=12 c=11 v=33
24288 Par ch=12 c=11 v=32
24384 Par ch=12 c=11 v=64
26880 On ch=12 n=72 v=95
26911 On ch=12 n=72 v=0
26952 On ch=12 n=67 v=95
26968 On ch=12 n=67 v=0
26976 On ch=12 n=60 v=95
27007 On ch=12 n=60 v=0
27264 On ch=12 n=75 v=95
27295 On ch=12 n=75 v=0
27336 On ch=12 n=67 v=95
27352 On ch=12 n=67 v=0
27360 On ch=12 n=60 v=95
27391 On ch=12 n=60 v=0
27648 On ch=12 n=60 v=95
27648 On ch=12 n=63 v=95
27696 Par ch=12 c=11 v=32
27955 On ch=12 n=63 v=0
27955 On ch=12 n=60 v=0
28032 Par ch=12 c=11 v=64
28032 On ch=12 n=60 v=95
28032 On ch=12 n=63 v=95
28088 Par ch=12 c=11 v=16
28096 Par ch=12 c=11 v=17
28104 Par ch=12 c=11 v=18
28108 Par ch=12 c=11 v=19
28116 Par ch=12 c=11 v=20
28124 Par ch=12 c=11 v=21
28128 Par ch=12 c=11 v=22
28136 Par ch=12 c=11 v=23
28144 Par ch=12 c=11 v=24
28148 Par ch=12 c=11 v=25
28156 Par ch=12 c=11 v=26
28164 Par ch=12 c=11 v=27
28168 Par ch=12 c=11 v=28
28176 Par ch=12 c=11 v=29
28184 Par ch=12 c=11 v=30
28188 Par ch=12 c=11 v=31
28196 Par ch=12 c=11 v=32
28204 Par ch=12 c=11 v=33
28208 Par ch=12 c=11 v=34
28216 Par ch=12 c=11 v=35
28224 Par ch=12 c=11 v=36
28228 Par ch=12 c=11 v=37
28236 Par ch=12 c=11 v=38
28244 Par ch=12 c=11 v=39
28248 Par ch=12 c=11 v=40
28256 Par ch=12 c=11 v=41
28264 Par ch=12 c=11 v=42
28272 Par ch=12 c=11 v=43
28276 Par ch=12 c=11 v=44
28284 Par ch=12 c=11 v=45
28292 Par ch=12 c=11 v=46
28296 Par ch=12 c=11 v=47
28304 Par ch=12 c=11 v=48
28312 Par ch=12 c=11 v=49
28316 Par ch=12 c=11 v=50
28324 Par ch=12 c=11 v=51
28332 Par ch=12 c=11 v=52
28336 Par ch=12 c=11 v=53
28344 Par ch=12 c=11 v=54
28352 Par ch=12 c=11 v=55
28356 Par ch=12 c=11 v=56
28364 Par ch=12 c=11 v=57
28372 Par ch=12 c=11 v=58
28376 Par ch=12 c=11 v=59
28384 Par ch=12 c=11 v=60
28392 Par ch=12 c=11 v=61
28396 Par ch=12 c=11 v=62
28404 Par ch=12 c=11 v=63
28412 Par ch=12 c=11 v=64
28454 On ch=12 n=63 v=0
28454 On ch=12 n=60 v=0
29952 On ch=12 n=60 v=95
29952 On ch=12 n=72 v=95
30000 Par ch=12 c=11 v=32
30106 On ch=12 n=72 v=0
30106 On ch=12 n=60 v=0
30336 Par ch=12 c=11 v=64
30336 On ch=12 n=72 v=95
30336 On ch=12 n=60 v=95
30384 Par ch=12 c=11 v=32
30490 On ch=12 n=60 v=0
30490 On ch=12 n=72 v=0
30624 Par ch=12 c=11 v=64
30624 On ch=12 n=60 v=95
30645 On ch=12 n=60 v=0
30656 On ch=12 n=63 v=95
30677 On ch=12 n=63 v=0
30688 On ch=12 n=68 v=95
30709 On ch=12 n=68 v=0
30720 On ch=12 n=67 v=95
30751 On ch=12 n=67 v=0
31104 Par ch=12 c=11 v=64
31104 On ch=12 n=67 v=111
31128 Par ch=12 c=11 v=63
31152 Par ch=12 c=11 v=62
31172 Par ch=12 c=11 v=61
31196 Par ch=12 c=11 v=60
31220 Par ch=12 c=11 v=59
31240 Par ch=12 c=11 v=58
31264 Par ch=12 c=11 v=57
31288 Par ch=12 c=11 v=56
31308 Par ch=12 c=11 v=55
31332 Par ch=12 c=11 v=54
31356 Par ch=12 c=11 v=53
31376 Par ch=12 c=11 v=52
31400 Par ch=12 c=11 v=51
31411 On ch=12 n=67 v=0
31424 Par ch=12 c=11 v=50
31444 Par ch=12 c=11 v=49
31468 Par ch=12 c=11 v=48
31872 Par ch=12 c=11 v=64
31872 On ch=12 n=67 v=111
31896 Par ch=12 c=11 v=63
31920 Par ch=12 c=11 v=62
31940 Par ch=12 c=11 v=61
31964 Par ch=12 c=11 v=60
31988 Par ch=12 c=11 v=59
32008 Par ch=12 c=11 v=58
32032 Par ch=12 c=11 v=57
32056 Par ch=12 c=11 v=56
32076 Par ch=12 c=11 v=55
32100 Par ch=12 c=11 v=54
32124 Par ch=12 c=11 v=53
32144 Par ch=12 c=11 v=52
32168 Par ch=12 c=11 v=51
32179 On ch=12 n=67 v=0
32192 Par ch=12 c=11 v=50
32212 Par ch=12 c=11 v=49
32236 Par ch=12 c=11 v=48
32256 Par ch=12 c=11 v=64
32736 On ch=12 n=63 v=95
32757 On ch=12 n=63 v=0
32768 On ch=12 n=58 v=95
32789 On ch=12 n=58 v=0
32800 On ch=12 n=63 v=95
32821 On ch=12 n=63 v=0
32832 On ch=12 n=70 v=95
32909 On ch=12 n=70 v=0
33120 On ch=12 n=63 v=95
33141 On ch=12 n=63 v=0
33152 On ch=12 n=58 v=95
33173 On ch=12 n=58 v=0
33184 On ch=12 n=63 v=95
33205 On ch=12 n=63 v=0
33216 On ch=12 n=70 v=95
33293 On ch=12 n=70 v=0
33408 Par ch=12 c=11 v=64
33408 On ch=12 n=67 v=111
33408 On ch=12 n=63 v=111
33408 On ch=12 n=59 v=95
33416 Par ch=12 c=11 v=63
33420 Par ch=12 c=11 v=62
33428 Par ch=12 c=11 v=61
33432 Par ch=12 c=11 v=60
33440 Par ch=12 c=11 v=59
33444 Par ch=12 c=11 v=58
33448 Par ch=12 c=11 v=57
33456 Par ch=12 c=11 v=56
33460 Par ch=12 c=11 v=55
33468 Par ch=12 c=11 v=54
33472 Par ch=12 c=11 v=53
33476 Par ch=12 c=11 v=52
33484 Par ch=12 c=11 v=51
33488 Par ch=12 c=11 v=50
33496 Par ch=12 c=11 v=49
33500 Par ch=12 c=11 v=48
33504 On ch=12 n=63 v=0
33504 On ch=12 n=67 v=0
33504 Par ch=12 c=11 v=48
33504 On ch=12 n=65 v=111
33504 On ch=12 n=62 v=111
33516 Par ch=12 c=11 v=49
33528 Par ch=12 c=11 v=50
33540 Par ch=12 c=11 v=51
33552 Par ch=12 c=11 v=52
33564 Par ch=12 c=11 v=53
33576 Par ch=12 c=11 v=54
33588 Par ch=12 c=11 v=55
33600 Par ch=12 c=11 v=56
33612 Par ch=12 c=11 v=57
33624 Par ch=12 c=11 v=58
33636 Par ch=12 c=11 v=59
33648 Par ch=12 c=11 v=60
33660 Par ch=12 c=11 v=61
33672 Par ch=12 c=11 v=62
33684 Par ch=12 c=11 v=63
33696 On ch=12 n=62 v=0
33696 On ch=12 n=65 v=0
33696 Par ch=12 c=11 v=64
33696 On ch=12 n=68 v=111
33696 On ch=12 n=65 v=111
33715 On ch=12 n=59 v=0
33744 On ch=12 n=65 v=0
33744 On ch=12 n=68 v=0
33744 On ch=12 n=67 v=111
33744 On ch=12 n=63 v=111
33782 On ch=12 n=63 v=0
33782 On ch=12 n=67 v=0
33792 On ch=12 n=67 v=111
33792 On ch=12 n=55 v=111
33792 On ch=12 n=62 v=111
33792 On ch=12 n=65 v=111
33869 On ch=12 n=55 v=0
33869 On ch=12 n=67 v=0
33888 On ch=12 n=62 v=0
33888 On ch=12 n=65 v=0
33888 On ch=12 n=68 v=111
33888 On ch=12 n=56 v=111
33888 On ch=12 n=63 v=111
33888 On ch=12 n=60 v=111
33965 On ch=12 n=60 v=0
33965 On ch=12 n=63 v=0
33984 On ch=12 n=56 v=0
33984 On ch=12 n=68 v=0
33984 On ch=12 n=68 v=111
33984 On ch=12 n=56 v=111
34061 On ch=12 n=56 v=0
34061 On ch=12 n=68 v=0
34080 On ch=12 n=69 v=111
34080 On ch=12 n=57 v=111
34157 On ch=12 n=57 v=0
34157 On ch=12 n=69 v=0
34176 On ch=12 n=70 v=111
34176 On ch=12 n=58 v=111
34330 On ch=12 n=58 v=0
34330 On ch=12 n=70 v=0
34560 On ch=12 n=67 v=95
34591 On ch=12 n=67 v=0
34632 On ch=12 n=65 v=95
34648 On ch=12 n=65 v=0
34656 On ch=12 n=63 v=95
34687 On ch=12 n=63 v=0
34728 On ch=12 n=62 v=95
34744 On ch=12 n=62 v=0
35328 On ch=12 n=63 v=95
35359 On ch=12 n=63 v=0
35400 On ch=12 n=62 v=95
35416 On ch=12 n=62 v=0
35424 On ch=12 n=60 v=95
35455 On ch=12 n=60 v=0
35496 On ch=12 n=58 v=95
35512 On ch=12 n=58 v=0
38016 On ch=12 n=55 v=47
38016 On ch=12 n=67 v=47
38170 On ch=12 n=67 v=0
38170 On ch=12 n=55 v=0
38208 On ch=12 n=57 v=47
38208 On ch=12 n=69 v=47
38323 On ch=12 n=69 v=0
38323 On ch=12 n=57 v=0
38352 On ch=12 n=58 v=47
38352 On ch=12 n=70 v=47
38390 On ch=12 n=70 v=0
38390 On ch=12 n=58 v=0
38400 On ch=12 n=67 v=47
38400 On ch=12 n=55 v=47
38554 On ch=12 n=55 v=0
38554 On ch=12 n=67 v=0
38784 On ch=12 n=67 v=47
38784 On ch=12 n=55 v=47
38938 On ch=12 n=55 v=0
38938 On ch=12 n=67 v=0
38976 On ch=12 n=69 v=47
38976 On ch=12 n=57 v=47
39091 On ch=12 n=57 v=0
39091 On ch=12 n=69 v=0
39120 On ch=12 n=70 v=47
39120 On ch=12 n=58 v=47
39158 On ch=12 n=58 v=0
39158 On ch=12 n=70 v=0
39168 On ch=12 n=55 v=47
39168 On ch=12 n=67 v=47
39322 On ch=12 n=67 v=0
39322 On ch=12 n=55 v=0
41856 On ch=12 n=55 v=15
41856 On ch=12 n=67 v=15
42010 On ch=12 n=67 v=0
42010 On ch=12 n=55 v=0
42048 On ch=12 n=70 v=15
42048 On ch=12 n=58 v=15
42163 On ch=12 n=58 v=0
42163 On ch=12 n=70 v=0
42192 On ch=12 n=57 v=15
42192 On ch=12 n=69 v=15
42230 On ch=12 n=69 v=0
42230 On ch=12 n=57 v=0
42240 On ch=12 n=67 v=15
42240 On ch=12 n=55 v=15
42470 On ch=12 n=55 v=0
42470 On ch=12 n=67 v=0
42624 On ch=12 n=67 v=15
42624 On ch=12 n=55 v=15
42778 On ch=12 n=55 v=0
42778 On ch=12 n=67 v=0
42816 On ch=12 n=58 v=15
42816 On ch=12 n=70 v=15
42931 On ch=12 n=70 v=0
42931 On ch=12 n=58 v=0
42960 On ch=12 n=69 v=15
42960 On ch=12 n=57 v=15
42998 On ch=12 n=57 v=0
42998 On ch=12 n=69 v=0
43008 On ch=12 n=55 v=15
43008 On ch=12 n=67 v=15
43238 On ch=12 n=67 v=0
43238 On ch=12 n=55 v=0
43392 On ch=12 n=55 v=15
43392 On ch=12 n=67 v=15
43622 On ch=12 n=67 v=0
43622 On ch=12 n=55 v=0
47232 On ch=12 n=65 v=23
47232 On ch=12 n=53 v=23
47462 On ch=12 n=53 v=0
47462 On ch=12 n=65 v=0
47520 On ch=12 n=60 v=23
47520 On ch=12 n=48 v=23
47558 On ch=12 n=48 v=0
47558 On ch=12 n=60 v=0
47592 On ch=12 n=65 v=23
47592 On ch=12 n=53 v=23
47611 On ch=12 n=53 v=0
47611 On ch=12 n=65 v=0
47616 On ch=12 n=65 v=23
47616 On ch=12 n=53 v=23
47846 On ch=12 n=53 v=0
47846 On ch=12 n=65 v=0
47904 On ch=12 n=60 v=23
47904 On ch=12 n=48 v=23
47942 On ch=12 n=48 v=0
47942 On ch=12 n=60 v=0
47976 On ch=12 n=65 v=23
47976 On ch=12 n=53 v=23
47995 On ch=12 n=53 v=0
47995 On ch=12 n=65 v=0
48000 On ch=12 n=65 v=23
48000 On ch=12 n=53 v=23
48691 On ch=12 n=53 v=0
48691 On ch=12 n=65 v=0
48768 On ch=12 n=64 v=23
48768 On ch=12 n=52 v=23
49536 On ch=12 n=52 v=0
49536 On ch=12 n=64 v=0
54144 On ch=12 n=59 v=31
54259 On ch=12 n=59 v=0
54288 On ch=12 n=61 v=31
54326 On ch=12 n=61 v=0
54336 On ch=12 n=62 v=31
54413 On ch=12 n=62 v=0
54432 On ch=12 n=64 v=31
54470 On ch=12 n=64 v=0
54480 On ch=12 n=62 v=31
54518 On ch=12 n=62 v=0
54528 On ch=12 n=61 v=31
54605 On ch=12 n=61 v=0
54624 On ch=12 n=69 v=31
54662 On ch=12 n=69 v=0
54672 On ch=12 n=71 v=31
54710 On ch=12 n=71 v=0
54720 On ch=12 n=69 v=31
54816 On ch=12 n=69 v=0
54816 On ch=12 n=64 v=31
54893 On ch=12 n=64 v=0
54912 On ch=12 n=59 v=31
54912 On ch=12 n=68 v=31
55008 On ch=12 n=68 v=0
55008 On ch=12 n=59 v=0
55008 On ch=12 n=56 v=31
55008 On ch=12 n=64 v=31
55104 On ch=12 n=64 v=0
55104 On ch=12 n=56 v=0
55104 On ch=12 n=57 v=31
55104 On ch=12 n=66 v=31
55200 On ch=12 n=66 v=0
55200 On ch=12 n=57 v=0
55200 On ch=12 n=63 v=31
55200 On ch=12 n=54 v=31
55277 On ch=12 n=54 v=0
55277 On ch=12 n=63 v=0
55296 On ch=12 n=59 v=31
55296 On ch=12 n=68 v=31
55392 On ch=12 n=68 v=0
55392 On ch=12 n=59 v=0
55392 On ch=12 n=64 v=31
55392 On ch=12 n=56 v=31
55488 On ch=12 n=56 v=0
55488 On ch=12 n=64 v=0
55488 On ch=12 n=66 v=31
55488 On ch=12 n=57 v=31
55584 On ch=12 n=57 v=0
55584 On ch=12 n=66 v=0
55584 On ch=12 n=54 v=31
55584 On ch=12 n=63 v=31
55661 On ch=12 n=63 v=0
55661 On ch=12 n=54 v=0
55680 On ch=12 n=67 v=31
55680 On ch=12 n=59 v=31
55776 On ch=12 n=59 v=0
55776 On ch=12 n=67 v=0
61440 On ch=12 n=64 v=31
61440 On ch=12 n=52 v=31
61901 On ch=12 n=52 v=0
61901 On ch=12 n=64 v=0
62208 On ch=12 n=64 v=31
62208 On ch=12 n=52 v=31
62669 On ch=12 n=52 v=0
62669 On ch=12 n=64 v=0
62976 On ch=12 n=64 v=47
62976 On ch=12 n=62 v=47
63130 On ch=12 n=62 v=0
63168 On ch=12 n=62 v=47
63206 On ch=12 n=64 v=0
63264 On ch=12 n=65 v=47
63322 On ch=12 n=62 v=0
63341 On ch=12 n=65 v=0
63360 On ch=12 n=65 v=47
63360 On ch=12 n=62 v=47
63590 On ch=12 n=62 v=0
63590 On ch=12 n=65 v=0
63648 On ch=12 n=65 v=47
63648 On ch=12 n=60 v=47
63725 On ch=12 n=60 v=0
63725 On ch=12 n=65 v=0
63744 Par ch=12 c=11 v=64
63744 On ch=12 n=67 v=47
63744 On ch=12 n=61 v=47
63756 Par ch=12 c=11 v=65
63768 Par ch=12 c=11 v=66
63780 Par ch=12 c=11 v=67
63792 Par ch=12 c=11 v=68
63804 Par ch=12 c=11 v=69
63816 Par ch=12 c=11 v=70
63828 Par ch=12 c=11 v=71
63840 Par ch=12 c=11 v=72
63852 Par ch=12 c=11 v=73
63864 Par ch=12 c=11 v=74
63872 Par ch=12 c=11 v=75
63884 Par ch=12 c=11 v=76
63896 Par ch=12 c=11 v=77
63908 Par ch=12 c=11 v=78
63920 Par ch=12 c=11 v=79
63932 Par ch=12 c=11 v=80
63944 Par ch=12 c=11 v=81
63956 Par ch=12 c=11 v=82
63968 Par ch=12 c=11 v=83
63974 On ch=12 n=61 v=0
63974 On ch=12 n=67 v=0
63980 Par ch=12 c=11 v=84
63992 Par ch=12 c=11 v=85
64000 Par ch=12 c=11 v=86
64012 Par ch=12 c=11 v=87
64024 Par ch=12 c=11 v=88
64032 On ch=12 n=69 v=47
64032 On ch=12 n=59 v=47
64036 Par ch=12 c=11 v=89
64048 Par ch=12 c=11 v=90
64060 Par ch=12 c=11 v=91
64072 Par ch=12 c=11 v=92
64084 Par ch=12 c=11 v=93
64096 Par ch=12 c=11 v=94
64108 Par ch=12 c=11 v=95
64109 On ch=12 n=59 v=0
64109 On ch=12 n=69 v=0
64120 Par ch=12 c=11 v=96
64128 On ch=12 n=67 v=47
64128 On ch=12 n=59 v=47
64205 On ch=12 n=59 v=0
64205 On ch=12 n=67 v=0
64512 Par ch=12 c=11 v=64
65760 On ch=12 n=69 v=111
65914 On ch=12 n=69 v=0
65952 On ch=12 n=71 v=111
65978 On ch=12 n=71 v=0
65984 On ch=12 n=69 v=111
66005 On ch=12 n=69 v=0
66016 On ch=12 n=68 v=111
66037 On ch=12 n=68 v=0
66048 On ch=12 n=69 v=111
66079 On ch=12 n=69 v=0
66120 On ch=12 n=64 v=111
66136 On ch=12 n=64 v=0
66144 On ch=12 n=57 v=111
66175 On ch=12 n=57 v=0
66816 On ch=12 n=65 v=111
66847 On ch=12 n=65 v=0
66888 On ch=12 n=60 v=111
66904 On ch=12 n=60 v=0
66912 On ch=12 n=53 v=111
66943 On ch=12 n=53 v=0
67200 On ch=12 n=62 v=111
67200 On ch=12 n=66 v=111
67354 On ch=12 n=66 v=0
67354 On ch=12 n=62 v=0
67392 On ch=12 n=62 v=111
67392 On ch=12 n=67 v=111
67546 On ch=12 n=67 v=0
67546 On ch=12 n=62 v=0
67584 Par ch=12 c=11 v=64
67584 On ch=12 n=62 v=111
67584 On ch=12 n=69 v=111
67596 Par ch=12 c=11 v=63
67608 Par ch=12 c=11 v=62
67620 Par ch=12 c=11 v=61
67632 Par ch=12 c=11 v=60
67644 Par ch=12 c=11 v=59
67656 Par ch=12 c=11 v=58
67668 Par ch=12 c=11 v=57
67680 Par ch=12 c=11 v=56
67692 Par ch=12 c=11 v=55
67704 Par ch=12 c=11 v=54
67716 Par ch=12 c=11 v=53
67728 Par ch=12 c=11 v=52
67738 On ch=12 n=69 v=0
67738 On ch=12 n=62 v=0
67740 Par ch=12 c=11 v=51
67752 Par ch=12 c=11 v=50
67764 Par ch=12 c=11 v=49
67776 Par ch=12 c=11 v=48
67872 Par ch=12 c=11 v=64
67872 On ch=12 n=61 v=111
67872 On ch=12 n=69 v=111
67903 On ch=12 n=69 v=0
67903 On ch=12 n=61 v=0
67968 On ch=12 n=66 v=111
67968 On ch=12 n=62 v=111
68160 On ch=12 n=62 v=0
68160 On ch=12 n=66 v=0
68160 On ch=12 n=69 v=111
68160 On ch=12 n=66 v=111
68191 On ch=12 n=66 v=0
68191 On ch=12 n=69 v=0
68256 On ch=12 n=69 v=111
68256 On ch=12 n=64 v=111
68287 On ch=12 n=64 v=0
68287 On ch=12 n=69 v=0
68352 Par ch=12 c=11 v=64
68352 On ch=12 n=66 v=111
68352 On ch=12 n=62 v=111
68376 Par ch=12 c=11 v=65
68400 Par ch=12 c=11 v=66
68420 Par ch=12 c=11 v=67
68444 Par ch=12 c=11 v=68
68468 Par ch=12 c=11 v=69
68488 Par ch=12 c=11 v=70
68506 On ch=12 n=62 v=0
68506 On ch=12 n=66 v=0
68512 Par ch=12 c=11 v=71
68536 Par ch=12 c=11 v=72
68544 On ch=12 n=62 v=111
68544 On ch=12 n=66 v=111
68556 Par ch=12 c=11 v=73
68580 Par ch=12 c=11 v=74
68604 Par ch=12 c=11 v=75
68624 Par ch=12 c=11 v=76
68648 Par ch=12 c=11 v=77
68672 Par ch=12 c=11 v=78
68692 Par ch=12 c=11 v=79
68698 On ch=12 n=66 v=0
68698 On ch=12 n=62 v=0
68716 Par ch=12 c=11 v=80
68736 Par ch=12 c=11 v=64
68736 On ch=12 n=61 v=111
68890 On ch=12 n=61 v=0
68928 On ch=12 n=62 v=111
69043 On ch=12 n=62 v=0
69072 On ch=12 n=63 v=111
69103 On ch=12 n=63 v=0
69120 On ch=12 n=63 v=111
69151 On ch=12 n=63 v=0
69216 On ch=12 n=64 v=111
69370 On ch=12 n=64 v=0
69504 On ch=12 n=61 v=111
69658 On ch=12 n=61 v=0
69696 On ch=12 n=63 v=111
69811 On ch=12 n=63 v=0
69840 On ch=12 n=64 v=111
69871 On ch=12 n=64 v=0
69888 On ch=12 n=64 v=111
69919 On ch=12 n=64 v=0
69984 On ch=12 n=66 v=111
70138 On ch=12 n=66 v=0
70272 On ch=12 n=61 v=111
70426 On ch=12 n=61 v=0
70464 On ch=12 n=63 v=111
70541 On ch=12 n=63 v=0
70560 On ch=12 n=64 v=111
70591 On ch=12 n=64 v=0
70632 On ch=12 n=68 v=111
70648 On ch=12 n=68 v=0
70656 Par ch=12 c=11 v=64
70656 On ch=12 n=64 v=111
70656 On ch=12 n=68 v=111
70680 Par ch=12 c=11 v=63
70704 Par ch=12 c=11 v=62
70724 Par ch=12 c=11 v=61
70748 Par ch=12 c=11 v=60
70772 Par ch=12 c=11 v=59
70792 Par ch=12 c=11 v=58
70816 Par ch=12 c=11 v=57
70840 Par ch=12 c=11 v=56
70860 Par ch=12 c=11 v=55
70884 Par ch=12 c=11 v=54
70908 Par ch=12 c=11 v=53
70928 Par ch=12 c=11 v=52
70952 Par ch=12 c=11 v=51
70963 On ch=12 n=68 v=0
70963 On ch=12 n=64 v=0
70976 Par ch=12 c=11 v=50
70996 Par ch=12 c=11 v=49
71020 Par ch=12 c=11 v=48
71040 Par ch=12 c=11 v=64
71040 On ch=12 n=68 v=111
71040 On ch=12 n=64 v=111
71064 Par ch=12 c=11 v=63
71088 Par ch=12 c=11 v=62
71108 Par ch=12 c=11 v=61
71132 Par ch=12 c=11 v=60
71156 Par ch=12 c=11 v=59
71176 Par ch=12 c=11 v=58
71200 Par ch=12 c=11 v=57
71224 Par ch=12 c=11 v=56
71244 Par ch=12 c=11 v=55
71268 Par ch=12 c=11 v=54
71292 Par ch=12 c=11 v=53
71312 Par ch=12 c=11 v=52
71336 Par ch=12 c=11 v=51
71347 On ch=12 n=64 v=0
71347 On ch=12 n=68 v=0
71360 Par ch=12 c=11 v=50
71380 Par ch=12 c=11 v=49
71404 Par ch=12 c=11 v=48
71808 Par ch=12 c=11 v=64
72576 Par ch=12 c=11 v=64
72576 On ch=12 n=42 v=47
72576 On ch=12 n=54 v=47
72584 Par ch=12 c=11 v=65
72592 Par ch=12 c=11 v=66
72600 Par ch=12 c=11 v=67
72608 Par ch=12 c=11 v=68
72616 Par ch=12 c=11 v=69
72624 Par ch=12 c=11 v=70
72632 Par ch=12 c=11 v=71
72640 Par ch=12 c=11 v=72
72648 Par ch=12 c=11 v=73
72656 Par ch=12 c=11 v=74
72664 Par ch=12 c=11 v=75
72672 Par ch=12 c=11 v=76
72680 Par ch=12 c=11 v=77
72688 Par ch=12 c=11 v=78
72696 Par ch=12 c=11 v=79
72704 Par ch=12 c=11 v=80
72712 Par ch=12 c=11 v=81
72720 Par ch=12 c=11 v=82
72728 Par ch=12 c=11 v=83
72730 On ch=12 n=54 v=0
72730 On ch=12 n=42 v=0
72736 Par ch=12 c=11 v=84
72744 Par ch=12 c=11 v=85
72752 Par ch=12 c=11 v=86
72760 Par ch=12 c=11 v=87
72768 Par ch=12 c=11 v=88
72768 On ch=12 n=44 v=47
72768 On ch=12 n=56 v=47
72772 Par ch=12 c=11 v=89
72780 Par ch=12 c=11 v=90
72788 Par ch=12 c=11 v=91
72796 Par ch=12 c=11 v=92
72804 Par ch=12 c=11 v=93
72812 Par ch=12 c=11 v=94
72820 Par ch=12 c=11 v=95
72828 Par ch=12 c=11 v=96
72836 Par ch=12 c=11 v=97
72844 Par ch=12 c=11 v=98
72852 Par ch=12 c=11 v=99
72860 Par ch=12 c=11 v=100
72868 Par ch=12 c=11 v=101
72876 Par ch=12 c=11 v=102
72883 On ch=12 n=56 v=0
72883 On ch=12 n=44 v=0
72884 Par ch=12 c=11 v=103
72892 Par ch=12 c=11 v=104
72900 Par ch=12 c=11 v=105
72908 Par ch=12 c=11 v=106
72912 On ch=12 n=45 v=47
72912 On ch=12 n=57 v=47
72916 Par ch=12 c=11 v=107
72924 Par ch=12 c=11 v=108
72932 Par ch=12 c=11 v=109
72940 Par ch=12 c=11 v=110
72948 Par ch=12 c=11 v=111
72950 On ch=12 n=57 v=0
72950 On ch=12 n=45 v=0
72956 Par ch=12 c=11 v=112
72960 On ch=12 n=45 v=47
72960 On ch=12 n=57 v=47
72998 On ch=12 n=57 v=0
72998 On ch=12 n=45 v=0
73056 On ch=12 n=47 v=47
73056 On ch=12 n=59 v=47
73210 On ch=12 n=59 v=0
73210 On ch=12 n=47 v=0
73344 Par ch=12 c=11 v=64
73344 On ch=12 n=42 v=47
73344 On ch=12 n=54 v=47
73352 Par ch=12 c=11 v=65
73360 Par ch=12 c=11 v=66
73368 Par ch=12 c=11 v=67
73376 Par ch=12 c=11 v=68
73384 Par ch=12 c=11 v=69
73392 Par ch=12 c=11 v=70
73400 Par ch=12 c=11 v=71
73408 Par ch=12 c=11 v=72
73416 Par ch=12 c=11 v=73
73424 Par ch=12 c=11 v=74
73432 Par ch=12 c=11 v=75
73440 Par ch=12 c=11 v=76
73448 Par ch=12 c=11 v=77
73456 Par ch=12 c=11 v=78
73464 Par ch=12 c=11 v=79
73472 Par ch=12 c=11 v=80
73480 Par ch=12 c=11 v=81
73488 Par ch=12 c=11 v=82
73496 Par ch=12 c=11 v=83
73498 On ch=12 n=54 v=0
73498 On ch=12 n=42 v=0
73504 Par ch=12 c=11 v=84
73512 Par ch=12 c=11 v=85
73520 Par ch=12 c=11 v=86
73528 Par ch=12 c=11 v=87
73536 Par ch=12 c=11 v=88
73536 On ch=12 n=44 v=47
73536 On ch=12 n=56 v=47
73540 Par ch=12 c=11 v=89
73548 Par ch=12 c=11 v=90
73556 Par ch=12 c=11 v=91
73564 Par ch=12 c=11 v=92
73572 Par ch=12 c=11 v=93
73580 Par ch=12 c=11 v=94
73588 Par ch=12 c=11 v=95
73596 Par ch=12 c=11 v=96
73604 Par ch=12 c=11 v=97
73612 Par ch=12 c=11 v=98
73620 Par ch=12 c=11 v=99
73628 Par ch=12 c=11 v=100
73636 Par ch=12 c=11 v=101
73644 Par ch=12 c=11 v=102
73651 On ch=12 n=56 v=0
73651 On ch=12 n=44 v=0
73652 Par ch=12 c=11 v=103
73660 Par ch=12 c=11 v=104
73668 Par ch=12 c=11 v=105
73676 Par ch=12 c=11 v=106
73680 On ch=12 n=45 v=47
73680 On ch=12 n=57 v=47
73684 Par ch=12 c=11 v=107
73692 Par ch=12 c=11 v=108
73700 Par ch=12 c=11 v=109
73708 Par ch=12 c=11 v=110
73711 On ch=12 n=57 v=0
73711 On ch=12 n=45 v=0
73716 Par ch=12 c=11 v=111
73724 Par ch=12 c=11 v=112
73728 On ch=12 n=45 v=47
73728 On ch=12 n=57 v=47
73759 On ch=12 n=57 v=0
73759 On ch=12 n=45 v=0
73824 On ch=12 n=49 v=47
73824 On ch=12 n=61 v=47
73978 On ch=12 n=61 v=0
73978 On ch=12 n=49 v=0
74112 Par ch=12 c=11 v=64
74112 On ch=12 n=42 v=79
74112 On ch=12 n=54 v=79
74136 Par ch=12 c=11 v=65
74160 Par ch=12 c=11 v=66
74180 Par ch=12 c=11 v=67
74204 Par ch=12 c=11 v=68
74228 Par ch=12 c=11 v=69
74248 Par ch=12 c=11 v=70
74266 On ch=12 n=54 v=0
74266 On ch=12 n=42 v=0
74272 Par ch=12 c=11 v=71
74296 Par ch=12 c=11 v=72
74304 On ch=12 n=44 v=79
74304 On ch=12 n=56 v=79
74316 Par ch=12 c=11 v=73
74340 Par ch=12 c=11 v=74
74364 Par ch=12 c=11 v=75
74381 On ch=12 n=56 v=0
74381 On ch=12 n=44 v=0
74384 Par ch=12 c=11 v=76
74400 On ch=12 n=45 v=79
74400 On ch=12 n=57 v=79
74408 Par ch=12 c=11 v=77
74431 On ch=12 n=57 v=0
74431 On ch=12 n=45 v=0
74432 Par ch=12 c=11 v=78
74452 Par ch=12 c=11 v=79
74472 On ch=12 n=49 v=79
74472 On ch=12 n=61 v=79
74476 Par ch=12 c=11 v=80
74488 On ch=12 n=61 v=0
74488 On ch=12 n=49 v=0
74496 Par ch=12 c=11 v=64
74496 On ch=12 n=65 v=95
74496 On ch=12 n=53 v=95
74520 Par ch=12 c=11 v=65
74544 Par ch=12 c=11 v=66
74568 Par ch=12 c=11 v=67
74592 Par ch=12 c=11 v=68
74616 Par ch=12 c=11 v=69
74636 Par ch=12 c=11 v=70
74650 On ch=12 n=53 v=0
74650 On ch=12 n=65 v=0
74660 Par ch=12 c=11 v=71
74684 Par ch=12 c=11 v=72
74688 On ch=12 n=54 v=95
74688 On ch=12 n=66 v=95
74708 Par ch=12 c=11 v=73
74732 Par ch=12 c=11 v=74
74752 Par ch=12 c=11 v=75
74776 Par ch=12 c=11 v=76
74800 Par ch=12 c=11 v=77
74803 On ch=12 n=66 v=0
74803 On ch=12 n=54 v=0
74824 Par ch=12 c=11 v=78
74848 Par ch=12 c=11 v=79
74872 Par ch=12 c=11 v=80
74880 On ch=12 n=53 v=95
74880 On ch=12 n=65 v=95
74892 Par ch=12 c=11 v=81
74916 Par ch=12 c=11 v=82
74940 Par ch=12 c=11 v=83
74964 Par ch=12 c=11 v=84
74988 Par ch=12 c=11 v=85
75008 Par ch=12 c=11 v=86
75032 Par ch=12 c=11 v=87
75034 On ch=12 n=65 v=0
75034 On ch=12 n=53 v=0
75056 Par ch=12 c=11 v=88
75072 On ch=12 n=66 v=95
75072 On ch=12 n=54 v=95
75080 Par ch=12 c=11 v=89
75104 Par ch=12 c=11 v=90
75128 Par ch=12 c=11 v=91
75148 Par ch=12 c=11 v=92
75172 Par ch=12 c=11 v=93
75187 On ch=12 n=54 v=0
75187 On ch=12 n=66 v=0
75196 Par ch=12 c=11 v=94
75220 Par ch=12 c=11 v=95
75244 Par ch=12 c=11 v=96
75360 Par ch=12 c=11 v=64
75360 On ch=12 n=67 v=111
75360 On ch=12 n=58 v=111
75360 On ch=12 n=50 v=111
75477 On ch=12 n=50 v=0
75477 On ch=12 n=58 v=0
75477 On ch=12 n=67 v=0
75488 On ch=12 n=67 v=111
75488 On ch=12 n=58 v=111
75488 On ch=12 n=50 v=111
75509 On ch=12 n=50 v=0
75509 On ch=12 n=58 v=0
75509 On ch=12 n=67 v=0
75520 On ch=12 n=67 v=111
75520 On ch=12 n=58 v=111
75520 On ch=12 n=50 v=111
75541 On ch=12 n=50 v=0
75541 On ch=12 n=58 v=0
75541 On ch=12 n=67 v=0
75552 On ch=12 n=67 v=111
75552 On ch=12 n=58 v=111
75552 On ch=12 n=50 v=111
75573 On ch=12 n=50 v=0
75573 On ch=12 n=58 v=0
75573 On ch=12 n=67 v=0
75584 On ch=12 n=67 v=111
75584 On ch=12 n=58 v=111
75584 On ch=12 n=50 v=111
75605 On ch=12 n=50 v=0
75605 On ch=12 n=58 v=0
75605 On ch=12 n=67 v=0
75616 On ch=12 n=67 v=111
75616 On ch=12 n=58 v=111
75616 On ch=12 n=50 v=111
75637 On ch=12 n=50 v=0
75637 On ch=12 n=58 v=0
75637 On ch=12 n=67 v=0
75648 On ch=12 n=67 v=111
75648 On ch=12 n=58 v=111
75648 On ch=12 n=50 v=111
75686 On ch=12 n=50 v=0
75686 On ch=12 n=58 v=0
75686 On ch=12 n=67 v=0
75720 On ch=12 n=67 v=111
75720 On ch=12 n=58 v=111
75720 On ch=12 n=50 v=111
75739 On ch=12 n=50 v=0
75739 On ch=12 n=58 v=0
75739 On ch=12 n=67 v=0
75744 On ch=12 n=67 v=111
75744 On ch=12 n=58 v=111
75744 On ch=12 n=50 v=111
75782 On ch=12 n=50 v=0
75782 On ch=12 n=58 v=0
75782 On ch=12 n=67 v=0
75816 On ch=12 n=67 v=111
75816 On ch=12 n=58 v=111
75816 On ch=12 n=50 v=111
75835 On ch=12 n=50 v=0
75835 On ch=12 n=58 v=0
75835 On ch=12 n=67 v=0
75840 On ch=12 n=67 v=111
75840 On ch=12 n=58 v=111
75840 On ch=12 n=50 v=111
75878 On ch=12 n=50 v=0
75878 On ch=12 n=58 v=0
75878 On ch=12 n=67 v=0
75912 On ch=12 n=67 v=111
75912 On ch=12 n=58 v=111
75912 On ch=12 n=50 v=111
75931 On ch=12 n=50 v=0
75931 On ch=12 n=58 v=0
75931 On ch=12 n=67 v=0
75936 On ch=12 n=67 v=111
75936 On ch=12 n=58 v=111
75936 On ch=12 n=50 v=111
75974 On ch=12 n=50 v=0
75974 On ch=12 n=58 v=0
75974 On ch=12 n=67 v=0
76008 On ch=12 n=67 v=111
76008 On ch=12 n=58 v=111
76008 On ch=12 n=50 v=111
76027 On ch=12 n=50 v=0
76027 On ch=12 n=58 v=0
76027 On ch=12 n=67 v=0
76032 On ch=12 n=50 v=111
76032 On ch=12 n=60 v=111
76032 On ch=12 n=66 v=111
76032 On ch=12 n=56 v=111
76262 On ch=12 n=56 v=0
76262 On ch=12 n=50 v=0
76262 On ch=12 n=60 v=0
76262 On ch=12 n=66 v=0
76320 On ch=12 n=50 v=111
76320 On ch=12 n=56 v=111
76320 On ch=12 n=60 v=111
76320 On ch=12 n=66 v=111
76341 On ch=12 n=66 v=0
76341 On ch=12 n=50 v=0
76341 On ch=12 n=56 v=0
76341 On ch=12 n=60 v=0
76352 On ch=12 n=50 v=111
76352 On ch=12 n=56 v=111
76352 On ch=12 n=60 v=111
76352 On ch=12 n=66 v=111
76373 On ch=12 n=66 v=0
76373 On ch=12 n=50 v=0
76373 On ch=12 n=56 v=0
76373 On ch=12 n=60 v=0
76384 On ch=12 n=50 v=111
76384 On ch=12 n=56 v=111
76384 On ch=12 n=60 v=111
76384 On ch=12 n=66 v=111
76405 On ch=12 n=66 v=0
76405 On ch=12 n=50 v=0
76405 On ch=12 n=56 v=0
76405 On ch=12 n=60 v=0
76416 On ch=12 n=50 v=111
76416 On ch=12 n=56 v=111
76416 On ch=12 n=60 v=111
76416 On ch=12 n=66 v=111
76493 On ch=12 n=66 v=0
76493 On ch=12 n=50 v=0
76493 On ch=12 n=56 v=0
76493 On ch=12 n=60 v=0
76512 On ch=12 n=50 v=111
76512 On ch=12 n=56 v=111
76512 On ch=12 n=60 v=111
76512 On ch=12 n=66 v=111
76589 On ch=12 n=66 v=0
76589 On ch=12 n=50 v=0
76589 On ch=12 n=56 v=0
76589 On ch=12 n=60 v=0
76608 On ch=12 n=50 v=111
76608 On ch=12 n=56 v=111
76608 On ch=12 n=60 v=111
76608 On ch=12 n=66 v=111
76685 On ch=12 n=66 v=0
76685 On ch=12 n=50 v=0
76685 On ch=12 n=56 v=0
76685 On ch=12 n=60 v=0
76704 On ch=12 n=50 v=111
76704 On ch=12 n=56 v=111
76704 On ch=12 n=60 v=111
76704 On ch=12 n=66 v=111
76781 On ch=12 n=66 v=0
76781 On ch=12 n=50 v=0
76781 On ch=12 n=56 v=0
76781 On ch=12 n=60 v=0
76800 Par ch=12 c=11 v=64
76800 On ch=12 n=59 v=111
76800 On ch=12 n=65 v=111
76812 Par ch=12 c=11 v=65
76824 Par ch=12 c=11 v=66
76836 Par ch=12 c=11 v=67
76848 Par ch=12 c=11 v=68
76860 Par ch=12 c=11 v=69
76872 Par ch=12 c=11 v=70
76884 Par ch=12 c=11 v=71
76896 Par ch=12 c=11 v=72
76908 Par ch=12 c=11 v=73
76920 Par ch=12 c=11 v=74
76932 Par ch=12 c=11 v=75
76944 Par ch=12 c=11 v=76
76956 Par ch=12 c=11 v=77
76968 Par ch=12 c=11 v=78
76980 Par ch=12 c=11 v=79
76992 Par ch=12 c=11 v=80
77030 On ch=12 n=65 v=0
77030 On ch=12 n=59 v=0
77184 Par ch=12 c=11 v=64
77568 Par ch=12 c=11 v=64
77568 On ch=12 n=64 v=111
77568 On ch=12 n=61 v=111
77568 On ch=12 n=56 v=111
77580 Par ch=12 c=11 v=63
77592 Par ch=12 c=11 v=62
77604 Par ch=12 c=11 v=61
77616 Par ch=12 c=11 v=60
77628 Par ch=12 c=11 v=59
77636 Par ch=12 c=11 v=58
77648 Par ch=12 c=11 v=57
77660 Par ch=12 c=11 v=56
77672 Par ch=12 c=11 v=55
77684 Par ch=12 c=11 v=54
77696 Par ch=12 c=11 v=53
77704 Par ch=12 c=11 v=52
77716 Par ch=12 c=11 v=51
77728 Par ch=12 c=11 v=50
77740 Par ch=12 c=11 v=49
77752 Par ch=12 c=11 v=48
77760 Par ch=12 c=11 v=47
77772 Par ch=12 c=11 v=46
77784 Par ch=12 c=11 v=45
77796 Par ch=12 c=11 v=44
77808 Par ch=12 c=11 v=43
77820 Par ch=12 c=11 v=42
77828 Par ch=12 c=11 v=41
77840 Par ch=12 c=11 v=40
77852 Par ch=12 c=11 v=39
77864 Par ch=12 c=11 v=38
77875 On ch=12 n=56 v=0
77875 On ch=12 n=61 v=0
77875 On ch=12 n=64 v=0
77876 Par ch=12 c=11 v=37
77888 Par ch=12 c=11 v=36
77896 Par ch=12 c=11 v=35
77908 Par ch=12 c=11 v=34
77920 Par ch=12 c=11 v=33
77932 Par ch=12 c=11 v=32
77952 Par ch=12 c=11 v=64
77952 On ch=12 n=59 v=95
77952 On ch=12 n=62 v=95
77952 On ch=12 n=54 v=95
78000 Par ch=12 c=11 v=32
78020 Par ch=12 c=11 v=31
78040 Par ch=12 c=11 v=30
78060 Par ch=12 c=11 v=29
78080 Par ch=12 c=11 v=28
78100 Par ch=12 c=11 v=27
78120 Par ch=12 c=11 v=26
78140 Par ch=12 c=11 v=25
78160 Par ch=12 c=11 v=24
78180 Par ch=12 c=11 v=23
78200 Par ch=12 c=11 v=22
78220 Par ch=12 c=11 v=21
78240 Par ch=12 c=11 v=20
78259 On ch=12 n=54 v=0
78259 On ch=12 n=62 v=0
78259 On ch=12 n=59 v=0
78260 Par ch=12 c=11 v=19
78280 Par ch=12 c=11 v=18
78300 Par ch=12 c=11 v=17
78320 Par ch=12 c=11 v=16
78336 Par ch=12 c=11 v=64
78336 On ch=12 n=61 v=79
78336 On ch=12 n=56 v=79
78336 On ch=12 n=52 v=79
78490 On ch=12 n=52 v=0
78490 On ch=12 n=56 v=0
78490 On ch=12 n=61 v=0
78528 On ch=12 n=62 v=79
78528 On ch=12 n=57 v=79
78528 On ch=12 n=54 v=79
78682 On ch=12 n=54 v=0
78682 On ch=12 n=57 v=0
78682 On ch=12 n=62 v=0
78720 Par ch=12 c=11 v=64
78720 On ch=12 n=63 v=79
78720 On ch=12 n=58 v=79
78720 On ch=12 n=55 v=79
78732 Par ch=12 c=11 v=63
78744 Par ch=12 c=11 v=62
78756 Par ch=12 c=11 v=61
78768 Par ch=12 c=11 v=60
78780 Par ch=12 c=11 v=59
78788 Par ch=12 c=11 v=58
78800 Par ch=12 c=11 v=57
78812 Par ch=12 c=11 v=56
78824 Par ch=12 c=11 v=55
78836 Par ch=12 c=11 v=54
78848 Par ch=12 c=11 v=53
78856 Par ch=12 c=11 v=52
78868 Par ch=12 c=11 v=51
78874 On ch=12 n=55 v=0
78874 On ch=12 n=58 v=0
78874 On ch=12 n=63 v=0
78880 Par ch=12 c=11 v=50
78892 Par ch=12 c=11 v=49
78904 Par ch=12 c=11 v=48
78912 Par ch=12 c=11 v=47
78912 On ch=12 n=64 v=79
78912 On ch=12 n=59 v=79
78912 On ch=12 n=56 v=79
78924 Par ch=12 c=11 v=46
78936 Par ch=12 c=11 v=45
78948 Par ch=12 c=11 v=44
78960 Par ch=12 c=11 v=43
78972 Par ch=12 c=11 v=42
78980 Par ch=12 c=11 v=41
78992 Par ch=12 c=11 v=40
79004 Par ch=12 c=11 v=39
79016 Par ch=12 c=11 v=38
79028 Par ch=12 c=11 v=37
79040 Par ch=12 c=11 v=36
79048 Par ch=12 c=11 v=35
79060 Par ch=12 c=11 v=34
79066 On ch=12 n=56 v=0
79066 On ch=12 n=59 v=0
79066 On ch=12 n=64 v=0
79072 Par ch=12 c=11 v=33
79084 Par ch=12 c=11 v=32
79104 Par ch=12 c=11 v=64
79104 On ch=12 n=57 v=47
79258 On ch=12 n=57 v=0
79296 On ch=12 n=56 v=47
79450 On ch=12 n=56 v=0
79488 On ch=12 n=57 v=47
79642 On ch=12 n=57 v=0
79680 On ch=12 n=60 v=31
81120 On ch=12 n=60 v=0
81120 On ch=12 n=61 v=31
81216 On ch=12 n=61 v=0
81216 On ch=12 n=62 v=31
81312 On ch=12 n=62 v=0
81312 On ch=12 n=64 v=31
81360 On ch=12 n=64 v=0
81360 On ch=12 n=65 v=31
81408 On ch=12 n=65 v=0
81408 On ch=12 n=67 v=31
82944 Par ch=12 c=11 v=64
82968 Par ch=12 c=11 v=63
82992 Par ch=12 c=11 v=62
83012 Par ch=12 c=11 v=61
83036 Par ch=12 c=11 v=60
83060 Par ch=12 c=11 v=59
83080 Par ch=12 c=11 v=58
83104 Par ch=12 c=11 v=57
83128 Par ch=12 c=11 v=56
83148 Par ch=12 c=11 v=55
83172 Par ch=12 c=11 v=54
83196 Par ch=12 c=11 v=53
83216 Par ch=12 c=11 v=52
83240 Par ch=12 c=11 v=51
83251 On ch=12 n=67 v=0
83264 Par ch=12 c=11 v=50
83284 Par ch=12 c=11 v=49
83308 Par ch=12 c=11 v=48
83328 On ch=12 n=67 v=31
83942 On ch=12 n=67 v=0
84096 Par ch=12 c=11 v=64
84864 On ch=12 n=66 v=47
84864 On ch=12 n=54 v=47
85152 On ch=12 n=66 v=0
85152 On ch=12 n=65 v=47
85248 On ch=12 n=65 v=0
85248 On ch=12 n=63 v=47
85536 On ch=12 n=63 v=0
85536 On ch=12 n=61 v=47
85632 On ch=12 n=61 v=0
85632 On ch=12 n=59 v=47
85709 On ch=12 n=54 v=0
85786 On ch=12 n=59 v=0
86688 On ch=12 n=54 v=31
86719 On ch=12 n=54 v=0
86784 On ch=12 n=59 v=31
86938 On ch=12 n=59 v=0
86976 On ch=12 n=61 v=31
87053 On ch=12 n=61 v=0
87072 On ch=12 n=63 v=31
87103 On ch=12 n=63 v=0
87120 On ch=12 n=64 v=31
87151 On ch=12 n=64 v=0
87168 On ch=12 n=63 v=31
87245 On ch=12 n=63 v=0
87264 On ch=12 n=61 v=31
87295 On ch=12 n=61 v=0
87312 On ch=12 n=59 v=31
87343 On ch=12 n=59 v=0
87360 On ch=12 n=58 v=31
87437 On ch=12 n=58 v=0
87456 On ch=12 n=56 v=31
87487 On ch=12 n=56 v=0
87504 On ch=12 n=54 v=31
87535 On ch=12 n=54 v=0
87552 On ch=12 n=59 v=31
87590 On ch=12 n=59 v=0
88704 On ch=12 n=54 v=31
88704 On ch=12 n=66 v=31
89472 On ch=12 n=54 v=31
89472 On ch=12 n=66 v=31
89549 On ch=12 n=66 v=0
89549 On ch=12 n=54 v=0
89549 On ch=12 n=66 v=0
89549 On ch=12 n=54 v=0
94656 On ch=12 n=46 v=111
94656 On ch=12 n=34 v=111
94848 Par ch=12 c=11 v=64
94860 Par ch=12 c=11 v=63
94872 Par ch=12 c=11 v=62
94884 Par ch=12 c=11 v=61
94896 Par ch=12 c=11 v=60
94908 Par ch=12 c=11 v=59
94916 Par ch=12 c=11 v=58
94928 Par ch=12 c=11 v=57
94940 Par ch=12 c=11 v=56
94952 Par ch=12 c=11 v=55
94964 Par ch=12 c=11 v=54
94976 Par ch=12 c=11 v=53
94984 Par ch=12 c=11 v=52
94996 Par ch=12 c=11 v=51
95008 Par ch=12 c=11 v=50
95020 Par ch=12 c=11 v=49
95032 Par ch=12 c=11 v=48
95040 Par ch=12 c=11 v=47
95052 Par ch=12 c=11 v=46
95064 Par ch=12 c=11 v=45
95076 Par ch=12 c=11 v=44
95088 Par ch=12 c=11 v=43
95100 Par ch=12 c=11 v=42
95108 Par ch=12 c=11 v=41
95120 Par ch=12 c=11 v=40
95132 Par ch=12 c=11 v=39
95144 Par ch=12 c=11 v=38
95156 Par ch=12 c=11 v=37
95168 Par ch=12 c=11 v=36
95176 Par ch=12 c=11 v=35
95188 Par ch=12 c=11 v=34
95200 Par ch=12 c=11 v=33
95212 Par ch=12 c=11 v=32
95616 Par ch=12 c=11 v=32
95640 Par ch=12 c=11 v=31
95664 Par ch=12 c=11 v=30
95684 Par ch=12 c=11 v=29
95708 Par ch=12 c=11 v=28
95732 Par ch=12 c=11 v=27
95752 Par ch=12 c=11 v=26
95776 Par ch=12 c=11 v=25
95800 Par ch=12 c=11 v=24
95820 Par ch=12 c=11 v=23
95844 Par ch=12 c=11 v=22
95868 Par ch=12 c=11 v=21
95888 Par ch=12 c=11 v=20
95912 Par ch=12 c=11 v=19
95936 Par ch=12 c=11 v=18
95956 Par ch=12 c=11 v=17
95980 Par ch=12 c=11 v=16
96230 On ch=12 n=34 v=0
96288 On ch=12 n=46 v=0
96384 Par ch=12 c=11 v=64
103680 On ch=12 n=63 v=79
103834 On ch=12 n=63 v=0
103872 On ch=12 n=63 v=79
104026 On ch=12 n=63 v=0
104064 On ch=12 n=63 v=79
104218 On ch=12 n=63 v=0
104256 On ch=12 n=58 v=79
104410 On ch=12 n=58 v=0
104448 On ch=12 n=63 v=79
104448 On ch=12 n=59 v=79
104602 On ch=12 n=59 v=0
104602 On ch=12 n=63 v=0
104640 On ch=12 n=63 v=79
104640 On ch=12 n=59 v=79
104717 On ch=12 n=59 v=0
104717 On ch=12 n=63 v=0
104736 On ch=12 n=54 v=79
104813 On ch=12 n=54 v=0
104832 Par ch=12 c=11 v=64
104832 On ch=12 n=59 v=79
104832 On ch=12 n=56 v=79
104856 Par ch=12 c=11 v=63
104880 Par ch=12 c=11 v=62
104900 Par ch=12 c=11 v=61
104924 Par ch=12 c=11 v=60
104948 Par ch=12 c=11 v=59
104968 Par ch=12 c=11 v=58
104986 On ch=12 n=56 v=0
104986 On ch=12 n=59 v=0
104992 Par ch=12 c=11 v=57
105016 Par ch=12 c=11 v=56
105024 On ch=12 n=59 v=79
105024 On ch=12 n=54 v=79
105036 Par ch=12 c=11 v=55
105060 Par ch=12 c=11 v=54
105084 Par ch=12 c=11 v=53
105104 Par ch=12 c=11 v=52
105128 Par ch=12 c=11 v=51
105152 Par ch=12 c=11 v=50
105172 Par ch=12 c=11 v=49
105178 On ch=12 n=54 v=0
105178 On ch=12 n=59 v=0
105196 Par ch=12 c=11 v=48
105216 Par ch=12 c=11 v=64
105216 On ch=12 n=53 v=79
105216 On ch=12 n=58 v=79
105216 On ch=12 n=65 v=79
105370 On ch=12 n=65 v=0
105370 On ch=12 n=58 v=0
105370 On ch=12 n=53 v=0
105408 On ch=12 n=56 v=79
105408 On ch=12 n=59 v=79
105408 On ch=12 n=63 v=79
105562 On ch=12 n=63 v=0
105562 On ch=12 n=59 v=0
105562 On ch=12 n=56 v=0
105600 On ch=12 n=63 v=79
105677 On ch=12 n=63 v=0
105696 On ch=12 n=61 v=79
105773 On ch=12 n=61 v=0
105792 On ch=12 n=60 v=79
105869 On ch=12 n=60 v=0
105888 On ch=12 n=61 v=79
105926 On ch=12 n=61 v=0
105936 On ch=12 n=63 v=79
105974 On ch=12 n=63 v=0
105984 Par ch=12 c=11 v=64
105984 On ch=12 n=61 v=79
105984 On ch=12 n=65 v=79
105984 On ch=12 n=68 v=79
106008 Par ch=12 c=11 v=65
106032 Par ch=12 c=11 v=66
106052 Par ch=12 c=11 v=67
106061 On ch=12 n=68 v=0
106061 On ch=12 n=65 v=0
106061 On ch=12 n=61 v=0
106076 Par ch=12 c=11 v=68
106080 On ch=12 n=73 v=79
106080 On ch=12 n=68 v=79
106080 On ch=12 n=65 v=79
106100 Par ch=12 c=11 v=69
106120 Par ch=12 c=11 v=70
106144 Par ch=12 c=11 v=71
106157 On ch=12 n=65 v=0
106157 On ch=12 n=68 v=0
106157 On ch=12 n=73 v=0
106168 Par ch=12 c=11 v=72
106176 On ch=12 n=63 v=79
106176 On ch=12 n=68 v=79
106176 On ch=12 n=72 v=79
106188 Par ch=12 c=11 v=73
106212 Par ch=12 c=11 v=74
106236 Par ch=12 c=11 v=75
106253 On ch=12 n=72 v=0
106253 On ch=12 n=68 v=0
106253 On ch=12 n=63 v=0
106256 Par ch=12 c=11 v=76
106272 On ch=12 n=60 v=79
106272 On ch=12 n=64 v=79
106272 On ch=12 n=70 v=79
106280 Par ch=12 c=11 v=77
106304 Par ch=12 c=11 v=78
106324 Par ch=12 c=11 v=79
106348 Par ch=12 c=11 v=80
106349 On ch=12 n=70 v=0
106349 On ch=12 n=64 v=0
106349 On ch=12 n=60 v=0
106368 Par ch=12 c=11 v=64
106368 On ch=12 n=60 v=95
106368 On ch=12 n=65 v=95
106368 On ch=12 n=69 v=95
106522 On ch=12 n=69 v=0
106522 On ch=12 n=65 v=0
106522 On ch=12 n=60 v=0
106752 On ch=12 n=70 v=127
106906 On ch=12 n=70 v=0
107008 On ch=12 n=70 v=127
107029 On ch=12 n=70 v=0
107040 On ch=12 n=72 v=127
107061 On ch=12 n=72 v=0
107072 On ch=12 n=70 v=127
107093 On ch=12 n=70 v=0
107104 On ch=12 n=69 v=127
107125 On ch=12 n=69 v=0
107136 On ch=12 n=70 v=127
107167 On ch=12 n=70 v=0
107208 On ch=12 n=65 v=127
107224 On ch=12 n=65 v=0
107232 On ch=12 n=58 v=127
107263 On ch=12 n=58 v=0
107520 On ch=12 n=58 v=127
107674 On ch=12 n=58 v=0
107776 On ch=12 n=58 v=127
107797 On ch=12 n=58 v=0
107808 On ch=12 n=59 v=127
107829 On ch=12 n=59 v=0
107840 On ch=12 n=58 v=127
107861 On ch=12 n=58 v=0
107872 On ch=12 n=56 v=127
107893 On ch=12 n=56 v=0
107904 On ch=12 n=58 v=127
107935 On ch=12 n=58 v=0
107976 On ch=12 n=61 v=127
107992 On ch=12 n=61 v=0
108000 On ch=12 n=66 v=127
108152 On ch=12 n=66 v=0
109248 On ch=12 n=67 v=79
109325 On ch=12 n=67 v=0
109344 On ch=12 n=69 v=79
109421 On ch=12 n=69 v=0
109440 Par ch=12 c=11 v=64
109440 On ch=12 n=70 v=79
109452 Par ch=12 c=11 v=63
109464 Par ch=12 c=11 v=62
109476 Par ch=12 c=11 v=61
109488 Par ch=12 c=11 v=60
109500 Par ch=12 c=11 v=59
109508 Par ch=12 c=11 v=58
109520 Par ch=12 c=11 v=57
109532 Par ch=12 c=11 v=56
109544 Par ch=12 c=11 v=55
109556 Par ch=12 c=11 v=54
109568 Par ch=12 c=11 v=53
109576 Par ch=12 c=11 v=52
109588 Par ch=12 c=11 v=51
109600 Par ch=12 c=11 v=50
109612 Par ch=12 c=11 v=49
109624 Par ch=12 c=11 v=48
109632 Par ch=12 c=11 v=47
109644 Par ch=12 c=11 v=46
109656 Par ch=12 c=11 v=45
109668 Par ch=12 c=11 v=44
109680 Par ch=12 c=11 v=43
109692 Par ch=12 c=11 v=42
109700 Par ch=12 c=11 v=41
109712 Par ch=12 c=11 v=40
109724 Par ch=12 c=11 v=39
109736 Par ch=12 c=11 v=38
109748 Par ch=12 c=11 v=37
109760 Par ch=12 c=11 v=36
109768 Par ch=12 c=11 v=35
109780 Par ch=12 c=11 v=34
109792 Par ch=12 c=11 v=33
109804 Par ch=12 c=11 v=32
109901 On ch=12 n=70 v=0
110016 Par ch=12 c=11 v=64
110112 Par ch=12 c=11 v=64
110112 On ch=12 n=63 v=95
110144 Par ch=12 c=11 v=65
110172 Par ch=12 c=11 v=66
110189 On ch=12 n=63 v=0
110200 Par ch=12 c=11 v=67
110208 On ch=12 n=72 v=95
110228 Par ch=12 c=11 v=68
110256 Par ch=12 c=11 v=69
110284 Par ch=12 c=11 v=70
110312 Par ch=12 c=11 v=71
110340 Par ch=12 c=11 v=72
110362 On ch=12 n=72 v=0
110368 Par ch=12 c=11 v=73
110396 Par ch=12 c=11 v=74
110400 On ch=12 n=71 v=95
110424 Par ch=12 c=11 v=75
110452 Par ch=12 c=11 v=76
110480 Par ch=12 c=11 v=77
110508 Par ch=12 c=11 v=78
110536 Par ch=12 c=11 v=79
110554 On ch=12 n=71 v=0
110564 Par ch=12 c=11 v=80
110592 Par ch=12 c=11 v=64
110592 On ch=12 n=58 v=111
110592 On ch=12 n=70 v=111
110648 Par ch=12 c=11 v=16
110656 Par ch=12 c=11 v=17
110664 Par ch=12 c=11 v=18
110668 Par ch=12 c=11 v=19
110676 Par ch=12 c=11 v=20
110684 Par ch=12 c=11 v=21
110688 Par ch=12 c=11 v=22
110696 Par ch=12 c=11 v=23
110704 Par ch=12 c=11 v=24
110708 Par ch=12 c=11 v=25
110716 Par ch=12 c=11 v=26
110724 Par ch=12 c=11 v=27
110728 Par ch=12 c=11 v=28
110736 Par ch=12 c=11 v=29
110744 Par ch=12 c=11 v=30
110748 Par ch=12 c=11 v=31
110756 Par ch=12 c=11 v=32
110764 Par ch=12 c=11 v=33
110768 Par ch=12 c=11 v=34
110776 Par ch=12 c=11 v=35
110784 Par ch=12 c=11 v=36
110788 Par ch=12 c=11 v=37
110796 Par ch=12 c=11 v=38
110804 Par ch=12 c=11 v=39
110808 Par ch=12 c=11 v=40
110816 Par ch=12 c=11 v=41
110824 Par ch=12 c=11 v=42
110832 Par ch=12 c=11 v=43
110836 Par ch=12 c=11 v=44
110844 Par ch=12 c=11 v=45
110852 Par ch=12 c=11 v=46
110856 Par ch=12 c=11 v=47
110864 Par ch=12 c=11 v=48
110872 Par ch=12 c=11 v=49
110876 Par ch=12 c=11 v=50
110884 Par ch=12 c=11 v=51
110892 Par ch=12 c=11 v=52
110896 Par ch=12 c=11 v=53
110904 Par ch=12 c=11 v=54
110912 Par ch=12 c=11 v=55
110916 Par ch=12 c=11 v=56
110924 Par ch=12 c=11 v=57
110932 Par ch=12 c=11 v=58
110936 Par ch=12 c=11 v=59
110944 Par ch=12 c=11 v=60
110952 Par ch=12 c=11 v=61
110956 Par ch=12 c=11 v=62
110964 Par ch=12 c=11 v=63
110972 Par ch=12 c=11 v=64
111283 On ch=12 n=70 v=0
111283 On ch=12 n=58 v=0
111360 On ch=12 n=59 v=111
111360 On ch=12 n=68 v=111
111437 On ch=12 n=68 v=0
111437 On ch=12 n=59 v=0
111456 On ch=12 n=59 v=111
111456 On ch=12 n=66 v=111
111533 On ch=12 n=66 v=0
111533 On ch=12 n=59 v=0
111552 On ch=12 n=59 v=111
111552 On ch=12 n=68 v=111
111629 On ch=12 n=68 v=0
111629 On ch=12 n=59 v=0
111648 On ch=12 n=57 v=111
111648 On ch=12 n=64 v=111
111674 On ch=12 n=64 v=0
111680 On ch=12 n=66 v=111
111706 On ch=12 n=66 v=0
111712 On ch=12 n=68 v=111
111725 On ch=12 n=57 v=0
111738 On ch=12 n=68 v=0
111744 Par ch=12 c=11 v=64
111744 On ch=12 n=69 v=111
111744 On ch=12 n=66 v=111
111744 On ch=12 n=63 v=111
111744 On ch=12 n=60 v=111
111752 Par ch=12 c=11 v=63
111760 Par ch=12 c=11 v=62
111768 Par ch=12 c=11 v=61
111776 Par ch=12 c=11 v=60
111784 Par ch=12 c=11 v=59
111792 Par ch=12 c=11 v=58
111800 Par ch=12 c=11 v=57
111808 Par ch=12 c=11 v=56
111816 Par ch=12 c=11 v=55
111824 Par ch=12 c=11 v=54
111832 Par ch=12 c=11 v=53
111840 Par ch=12 c=11 v=52
111848 Par ch=12 c=11 v=51
111856 Par ch=12 c=11 v=50
111864 Par ch=12 c=11 v=49
111872 Par ch=12 c=11 v=48
111880 Par ch=12 c=11 v=47
111888 Par ch=12 c=11 v=46
111896 Par ch=12 c=11 v=45
111904 Par ch=12 c=11 v=44
111912 Par ch=12 c=11 v=43
111920 Par ch=12 c=11 v=42
111928 Par ch=12 c=11 v=41
111936 Par ch=12 c=11 v=40
111940 Par ch=12 c=11 v=39
111948 Par ch=12 c=11 v=38
111956 Par ch=12 c=11 v=37
111964 Par ch=12 c=11 v=36
111972 Par ch=12 c=11 v=35
111980 Par ch=12 c=11 v=34
111988 Par ch=12 c=11 v=33
111996 Par ch=12 c=11 v=32
112004 Par ch=12 c=11 v=31
112012 Par ch=12 c=11 v=30
112020 Par ch=12 c=11 v=29
112028 Par ch=12 c=11 v=28
112036 Par ch=12 c=11 v=27
112044 Par ch=12 c=11 v=26
112052 Par ch=12 c=11 v=25
112060 Par ch=12 c=11 v=24
112068 Par ch=12 c=11 v=23
112076 Par ch=12 c=11 v=22
112084 Par ch=12 c=11 v=21
112092 Par ch=12 c=11 v=20
112100 Par ch=12 c=11 v=19
112108 Par ch=12 c=11 v=18
112116 Par ch=12 c=11 v=17
112124 Par ch=12 c=11 v=16
112136 Par ch=12 c=11 v=16
112144 Par ch=12 c=11 v=17
112152 Par ch=12 c=11 v=18
112160 Par ch=12 c=11 v=19
112168 Par ch=12 c=11 v=20
112176 Par ch=12 c=11 v=21
112184 Par ch=12 c=11 v=22
112192 Par ch=12 c=11 v=23
112200 Par ch=12 c=11 v=24
112208 Par ch=12 c=11 v=25
112216 Par ch=12 c=11 v=26
112224 Par ch=12 c=11 v=27
112228 Par ch=12 c=11 v=28
112236 Par ch=12 c=11 v=29
112244 Par ch=12 c=11 v=30
112252 Par ch=12 c=11 v=31
112260 Par ch=12 c=11 v=32
112268 Par ch=12 c=11 v=33
112276 Par ch=12 c=11 v=34
112284 Par ch=12 c=11 v=35
112292 Par ch=12 c=11 v=36
112300 Par ch=12 c=11 v=37
112308 Par ch=12 c=11 v=38
112316 Par ch=12 c=11 v=39
112320 Par ch=12 c=11 v=40
112328 Par ch=12 c=11 v=41
112336 Par ch=12 c=11 v=42
112344 Par ch=12 c=11 v=43
112352 Par ch=12 c=11 v=44
112360 Par ch=12 c=11 v=45
112368 Par ch=12 c=11 v=46
112376 Par ch=12 c=11 v=47
112384 Par ch=12 c=11 v=48
112392 Par ch=12 c=11 v=49
112400 Par ch=12 c=11 v=50
112408 Par ch=12 c=11 v=51
112416 On ch=12 n=60 v=0
112416 On ch=12 n=69 v=0
112416 On ch=12 n=66 v=0
112416 On ch=12 n=63 v=0
112416 Par ch=12 c=11 v=52
112416 On ch=12 n=70 v=111
112416 On ch=12 n=62 v=111
112416 On ch=12 n=66 v=111
112420 Par ch=12 c=11 v=53
112428 Par ch=12 c=11 v=54
112436 Par ch=12 c=11 v=55
112444 Par ch=12 c=11 v=56
112452 Par ch=12 c=11 v=57
112460 Par ch=12 c=11 v=58
112468 Par ch=12 c=11 v=59
112476 Par ch=12 c=11 v=60
112484 Par ch=12 c=11 v=61
112492 Par ch=12 c=11 v=62
112493 On ch=12 n=66 v=0
112493 On ch=12 n=62 v=0
112493 On ch=12 n=70 v=0
112500 Par ch=12 c=11 v=63
112508 Par ch=12 c=11 v=64
112512 Par ch=12 c=11 v=64
112512 On ch=12 n=60 v=111
112512 On ch=12 n=63 v=111
112512 On ch=12 n=66 v=111
112512 On ch=12 n=69 v=111
112520 Par ch=12 c=11 v=63
112528 Par ch=12 c=11 v=62
112536 Par ch=12 c=11 v=61
112544 Par ch=12 c=11 v=60
112552 Par ch=12 c=11 v=59
112560 Par ch=12 c=11 v=58
112568 Par ch=12 c=11 v=57
112576 Par ch=12 c=11 v=56
112584 Par ch=12 c=11 v=55
112592 Par ch=12 c=11 v=54
112600 Par ch=12 c=11 v=53
112608 Par ch=12 c=11 v=52
112616 Par ch=12 c=11 v=51
112624 Par ch=12 c=11 v=50
112632 Par ch=12 c=11 v=49
112640 Par ch=12 c=11 v=48
112648 Par ch=12 c=11 v=47
112656 Par ch=12 c=11 v=46
112664 Par ch=12 c=11 v=45
112672 Par ch=12 c=11 v=44
112680 Par ch=12 c=11 v=43
112688 Par ch=12 c=11 v=42
112696 Par ch=12 c=11 v=41
112704 Par ch=12 c=11 v=40
112708 Par ch=12 c=11 v=39
112716 Par ch=12 c=11 v=38
112724 Par ch=12 c=11 v=37
112732 Par ch=12 c=11 v=36
112740 Par ch=12 c=11 v=35
112748 Par ch=12 c=11 v=34
112756 Par ch=12 c=11 v=33
112764 Par ch=12 c=11 v=32
112772 Par ch=12 c=11 v=31
112780 Par ch=12 c=11 v=30
112788 Par ch=12 c=11 v=29
112796 Par ch=12 c=11 v=28
112804 Par ch=12 c=11 v=27
112812 Par ch=12 c=11 v=26
112820 Par ch=12 c=11 v=25
112828 Par ch=12 c=11 v=24
112836 Par ch=12 c=11 v=23
112844 Par ch=12 c=11 v=22
112852 Par ch=12 c=11 v=21
112860 Par ch=12 c=11 v=20
112868 Par ch=12 c=11 v=19
112876 Par ch=12 c=11 v=18
112884 Par ch=12 c=11 v=17
112892 Par ch=12 c=11 v=16
112904 Par ch=12 c=11 v=16
112912 Par ch=12 c=11 v=17
112920 Par ch=12 c=11 v=18
112928 Par ch=12 c=11 v=19
112936 Par ch=12 c=11 v=20
112944 Par ch=12 c=11 v=21
112952 Par ch=12 c=11 v=22
112960 Par ch=12 c=11 v=23
112968 Par ch=12 c=11 v=24
112976 Par ch=12 c=11 v=25
112984 Par ch=12 c=11 v=26
112992 Par ch=12 c=11 v=27
112996 Par ch=12 c=11 v=28
113004 Par ch=12 c=11 v=29
113012 Par ch=12 c=11 v=30
113020 Par ch=12 c=11 v=31
113028 Par ch=12 c=11 v=32
113036 Par ch=12 c=11 v=33
113044 Par ch=12 c=11 v=34
113052 Par ch=12 c=11 v=35
113060 Par ch=12 c=11 v=36
113068 Par ch=12 c=11 v=37
113076 Par ch=12 c=11 v=38
113084 Par ch=12 c=11 v=39
113088 Par ch=12 c=11 v=40
113096 Par ch=12 c=11 v=41
113104 Par ch=12 c=11 v=42
113112 Par ch=12 c=11 v=43
113120 Par ch=12 c=11 v=44
113128 Par ch=12 c=11 v=45
113136 Par ch=12 c=11 v=46
113144 Par ch=12 c=11 v=47
113152 Par ch=12 c=11 v=48
113160 Par ch=12 c=11 v=49
113168 Par ch=12 c=11 v=50
113176 Par ch=12 c=11 v=51
113184 On ch=12 n=69 v=0
113184 On ch=12 n=60 v=0
113184 On ch=12 n=63 v=0
113184 On ch=12 n=66 v=0
113184 Par ch=12 c=11 v=52
113184 On ch=12 n=66 v=111
113184 On ch=12 n=62 v=111
113184 On ch=12 n=70 v=111
113188 Par ch=12 c=11 v=53
113196 Par ch=12 c=11 v=54
113204 Par ch=12 c=11 v=55
113212 Par ch=12 c=11 v=56
113220 Par ch=12 c=11 v=57
113228 Par ch=12 c=11 v=58
113236 Par ch=12 c=11 v=59
113244 Par ch=12 c=11 v=60
113252 Par ch=12 c=11 v=61
113260 Par ch=12 c=11 v=62
113261 On ch=12 n=70 v=0
113261 On ch=12 n=62 v=0
113261 On ch=12 n=66 v=0
113268 Par ch=12 c=11 v=63
113276 Par ch=12 c=11 v=64
113280 On ch=12 n=71 v=95
113280 On ch=12 n=68 v=95
113280 On ch=12 n=64 v=95
113376 On ch=12 n=64 v=0
113376 On ch=12 n=68 v=0
113376 On ch=12 n=71 v=0
113376 On ch=12 n=66 v=95
113376 On ch=12 n=62 v=95
113376 On ch=12 n=70 v=95
113472 On ch=12 n=70 v=0
113472 On ch=12 n=62 v=0
113472 On ch=12 n=71 v=95
113472 On ch=12 n=63 v=95
113568 On ch=12 n=63 v=0
113568 On ch=12 n=71 v=0
113568 On ch=12 n=62 v=95
113568 On ch=12 n=70 v=95
113606 On ch=12 n=66 v=0
113645 On ch=12 n=70 v=0
113645 On ch=12 n=62 v=0
113664 Par ch=12 c=11 v=64
113664 On ch=12 n=73 v=95
113664 On ch=12 n=70 v=95
113664 On ch=12 n=65 v=95
113676 Par ch=12 c=11 v=65
113688 Par ch=12 c=11 v=66
113700 Par ch=12 c=11 v=67
113712 Par ch=12 c=11 v=68
113724 Par ch=12 c=11 v=69
113736 Par ch=12 c=11 v=70
113748 Par ch=12 c=11 v=71
113760 On ch=12 n=65 v=0
113760 On ch=12 n=70 v=0
113760 On ch=12 n=73 v=0
113760 Par ch=12 c=11 v=72
113760 On ch=12 n=64 v=95
113760 On ch=12 n=68 v=95
113760 On ch=12 n=72 v=95
113772 Par ch=12 c=11 v=73
113784 Par ch=12 c=11 v=74
113792 Par ch=12 c=11 v=75
113804 Par ch=12 c=11 v=76
113816 Par ch=12 c=11 v=77
113828 Par ch=12 c=11 v=78
113840 Par ch=12 c=11 v=79
113852 Par ch=12 c=11 v=80
113856 On ch=12 n=72 v=0
113856 On ch=12 n=68 v=0
113856 On ch=12 n=64 v=0
113856 On ch=12 n=65 v=95
113856 On ch=12 n=69 v=95
113856 On ch=12 n=73 v=95
113864 Par ch=12 c=11 v=81
113876 Par ch=12 c=11 v=82
113888 Par ch=12 c=11 v=83
113900 Par ch=12 c=11 v=84
113912 Par ch=12 c=11 v=85
113920 Par ch=12 c=11 v=86
113932 Par ch=12 c=11 v=87
113944 Par ch=12 c=11 v=88
113952 On ch=12 n=73 v=0
113952 On ch=12 n=69 v=0
113952 On ch=12 n=65 v=0
113952 On ch=12 n=64 v=95
113952 On ch=12 n=68 v=95
113952 On ch=12 n=72 v=95
113956 Par ch=12 c=11 v=89
113968 Par ch=12 c=11 v=90
113980 Par ch=12 c=11 v=91
113992 Par ch=12 c=11 v=92
114004 Par ch=12 c=11 v=93
114016 Par ch=12 c=11 v=94
114028 Par ch=12 c=11 v=95
114040 Par ch=12 c=11 v=96
114048 On ch=12 n=72 v=0
114048 On ch=12 n=68 v=0
114048 On ch=12 n=64 v=0
114048 On ch=12 n=71 v=95
114048 On ch=12 n=68 v=95
114048 On ch=12 n=65 v=95
114068 Par ch=12 c=11 v=96
114088 Par ch=12 c=11 v=95
114108 Par ch=12 c=11 v=94
114124 Par ch=12 c=11 v=93
114125 On ch=12 n=65 v=0
114144 Par ch=12 c=11 v=92
114164 Par ch=12 c=11 v=91
114184 Par ch=12 c=11 v=90
114200 Par ch=12 c=11 v=89
114220 Par ch=12 c=11 v=88
114240 Par ch=12 c=11 v=87
114256 Par ch=12 c=11 v=86
114276 Par ch=12 c=11 v=85
114296 Par ch=12 c=11 v=84
114316 Par ch=12 c=11 v=83
114332 Par ch=12 c=11 v=82
114352 Par ch=12 c=11 v=81
114355 On ch=12 n=68 v=0
114355 On ch=12 n=71 v=0
114372 Par ch=12 c=11 v=80
114392 Par ch=12 c=11 v=79
114408 Par ch=12 c=11 v=78
114428 Par ch=12 c=11 v=77
114432 On ch=12 n=70 v=95
114432 On ch=12 n=66 v=95
114448 Par ch=12 c=11 v=76
114464 Par ch=12 c=11 v=75
114484 Par ch=12 c=11 v=74
114504 Par ch=12 c=11 v=73
114524 Par ch=12 c=11 v=72
114540 Par ch=12 c=11 v=71
114560 Par ch=12 c=11 v=70
114580 Par ch=12 c=11 v=69
114600 Par ch=12 c=11 v=68
114616 Par ch=12 c=11 v=67
114636 Par ch=12 c=11 v=66
114656 Par ch=12 c=11 v=65
114662 On ch=12 n=66 v=0
114662 On ch=12 n=70 v=0
114672 Par ch=12 c=11 v=64
115200 On ch=12 n=51 v=100
115200 On ch=12 n=63 v=100
115221 On ch=12 n=63 v=0
115221 On ch=12 n=51 v=0
115232 On ch=12 n=51 v=100
115232 On ch=12 n=63 v=100
115253 On ch=12 n=63 v=0
115253 On ch=12 n=51 v=0
115264 On ch=12 n=51 v=100
115264 On ch=12 n=63 v=100
115285 On ch=12 n=63 v=0
115285 On ch=12 n=51 v=0
115296 On ch=12 n=51 v=100
115296 On ch=12 n=63 v=100
115317 On ch=12 n=63 v=0
115317 On ch=12 n=51 v=0
115328 On ch=12 n=51 v=100
115328 On ch=12 n=63 v=100
115349 On ch=12 n=63 v=0
115349 On ch=12 n=51 v=0
115360 On ch=12 n=51 v=100
115360 On ch=12 n=63 v=100
115381 On ch=12 n=63 v=0
115381 On ch=12 n=51 v=0
115392 On ch=12 n=51 v=100
115392 On ch=12 n=63 v=100
115413 On ch=12 n=63 v=0
115413 On ch=12 n=51 v=0
115424 On ch=12 n=51 v=100
115424 On ch=12 n=63 v=100
115445 On ch=12 n=63 v=0
115445 On ch=12 n=51 v=0
115456 On ch=12 n=51 v=100
115456 On ch=12 n=63 v=100
115477 On ch=12 n=63 v=0
115477 On ch=12 n=51 v=0
115488 On ch=12 n=50 v=100
115488 On ch=12 n=62 v=100
115509 On ch=12 n=62 v=0
115509 On ch=12 n=50 v=0
115520 On ch=12 n=50 v=100
115520 On ch=12 n=62 v=100
115541 On ch=12 n=62 v=0
115541 On ch=12 n=50 v=0
115552 On ch=12 n=50 v=100
115552 On ch=12 n=62 v=100
115573 On ch=12 n=62 v=0
115573 On ch=12 n=50 v=0
115584 Par ch=12 c=11 v=64
115584 On ch=12 n=49 v=100
115584 On ch=12 n=61 v=100
115605 On ch=12 n=61 v=0
115605 On ch=12 n=49 v=0
115608 Par ch=12 c=11 v=65
115616 On ch=12 n=49 v=100
115616 On ch=12 n=61 v=100
115632 Par ch=12 c=11 v=66
115637 On ch=12 n=61 v=0
115637 On ch=12 n=49 v=0
115648 On ch=12 n=49 v=100
115648 On ch=12 n=61 v=100
115652 Par ch=12 c=11 v=67
115669 On ch=12 n=61 v=0
115669 On ch=12 n=49 v=0
115676 Par ch=12 c=11 v=68
115680 On ch=12 n=48 v=100
115680 On ch=12 n=60 v=100
115680 On ch=12 n=64 v=100
115700 Par ch=12 c=11 v=69
115701 On ch=12 n=60 v=0
115701 On ch=12 n=48 v=0
115712 On ch=12 n=48 v=100
115712 On ch=12 n=60 v=100
115720 Par ch=12 c=11 v=70
115733 On ch=12 n=60 v=0
115733 On ch=12 n=48 v=0
115744 Par ch=12 c=11 v=71
115744 On ch=12 n=48 v=100
115744 On ch=12 n=60 v=100
115757 On ch=12 n=64 v=0
115765 On ch=12 n=60 v=0
115765 On ch=12 n=48 v=0
115768 Par ch=12 c=11 v=72
115776 On ch=12 n=47 v=100
115776 On ch=12 n=59 v=100
115776 On ch=12 n=66 v=100
115788 Par ch=12 c=11 v=73
115797 On ch=12 n=59 v=0
115797 On ch=12 n=47 v=0
115808 On ch=12 n=47 v=100
115808 On ch=12 n=59 v=100
115812 Par ch=12 c=11 v=74
115829 On ch=12 n=59 v=0
115829 On ch=12 n=47 v=0
115836 Par ch=12 c=11 v=75
115840 On ch=12 n=47 v=100
115840 On ch=12 n=59 v=100
115853 On ch=12 n=66 v=0
115856 Par ch=12 c=11 v=76
115861 On ch=12 n=59 v=0
115861 On ch=12 n=47 v=0
115872 On ch=12 n=46 v=100
115872 On ch=12 n=58 v=100
115872 On ch=12 n=68 v=100
115880 Par ch=12 c=11 v=77
115893 On ch=12 n=58 v=0
115893 On ch=12 n=46 v=0
115904 Par ch=12 c=11 v=78
115904 On ch=12 n=46 v=100
115904 On ch=12 n=58 v=100
115924 Par ch=12 c=11 v=79
115925 On ch=12 n=58 v=0
115925 On ch=12 n=46 v=0
115936 On ch=12 n=46 v=100
115936 On ch=12 n=58 v=100
115948 Par ch=12 c=11 v=80
115949 On ch=12 n=68 v=0
115957 On ch=12 n=58 v=0
115957 On ch=12 n=46 v=0
115968 Par ch=12 c=11 v=64
115968 On ch=12 n=63 v=100
115968 On ch=12 n=51 v=100
115989 On ch=12 n=51 v=0
115989 On ch=12 n=63 v=0
116000 On ch=12 n=63 v=100
116000 On ch=12 n=51 v=100
116021 On ch=12 n=51 v=0
116021 On ch=12 n=63 v=0
116032 On ch=12 n=63 v=100
116032 On ch=12 n=51 v=100
116053 On ch=12 n=51 v=0
116053 On ch=12 n=63 v=0
116064 On ch=12 n=63 v=100
116064 On ch=12 n=51 v=100
116085 On ch=12 n=51 v=0
116085 On ch=12 n=63 v=0
116096 On ch=12 n=63 v=100
116096 On ch=12 n=51 v=100
116117 On ch=12 n=51 v=0
116117 On ch=12 n=63 v=0
116128 On ch=12 n=63 v=100
116128 On ch=12 n=51 v=100
116149 On ch=12 n=51 v=0
116149 On ch=12 n=63 v=0
116160 On ch=12 n=63 v=100
116160 On ch=12 n=51 v=100
116181 On ch=12 n=51 v=0
116181 On ch=12 n=63 v=0
116192 On ch=12 n=63 v=100
116192 On ch=12 n=51 v=100
116213 On ch=12 n=51 v=0
116213 On ch=12 n=63 v=0
116224 On ch=12 n=63 v=100
116224 On ch=12 n=51 v=100
116245 On ch=12 n=51 v=0
116245 On ch=12 n=63 v=0
116256 On ch=12 n=62 v=100
116256 On ch=12 n=50 v=100
116277 On ch=12 n=50 v=0
116277 On ch=12 n=62 v=0
116288 On ch=12 n=62 v=100
116288 On ch=12 n=50 v=100
116309 On ch=12 n=50 v=0
116309 On ch=12 n=62 v=0
116320 On ch=12 n=62 v=100
116320 On ch=12 n=50 v=100
116341 On ch=12 n=50 v=0
116341 On ch=12 n=62 v=0
116352 On ch=12 n=61 v=100
116352 On ch=12 n=49 v=100
116373 On ch=12 n=49 v=0
116373 On ch=12 n=61 v=0
116384 On ch=12 n=61 v=100
116384 On ch=12 n=49 v=100
116405 On ch=12 n=49 v=0
116405 On ch=12 n=61 v=0
116416 On ch=12 n=61 v=100
116416 On ch=12 n=49 v=100
116437 On ch=12 n=49 v=0
116437 On ch=12 n=61 v=0
116448 On ch=12 n=60 v=100
116448 On ch=12 n=48 v=100
116469 On ch=12 n=48 v=0
116469 On ch=12 n=60 v=0
116480 On ch=12 n=60 v=100
116480 On ch=12 n=48 v=100
116501 On ch=12 n=48 v=0
116501 On ch=12 n=60 v=0
116512 On ch=12 n=60 v=100
116512 On ch=12 n=48 v=100
116533 On ch=12 n=48 v=0
116533 On ch=12 n=60 v=0
116544 On ch=12 n=59 v=100
116544 On ch=12 n=47 v=100
116565 On ch=12 n=47 v=0
116565 On ch=12 n=59 v=0
116576 On ch=12 n=59 v=100
116576 On ch=12 n=47 v=100
116597 On ch=12 n=47 v=0
116597 On ch=12 n=59 v=0
116608 On ch=12 n=59 v=100
116608 On ch=12 n=47 v=100
116629 On ch=12 n=47 v=0
116629 On ch=12 n=59 v=0
116640 On ch=12 n=59 v=100
116640 On ch=12 n=47 v=100
116661 On ch=12 n=47 v=0
116661 On ch=12 n=59 v=0
116672 On ch=12 n=59 v=100
116672 On ch=12 n=47 v=100
116693 On ch=12 n=47 v=0
116693 On ch=12 n=59 v=0
116704 On ch=12 n=59 v=100
116704 On ch=12 n=47 v=100
116725 On ch=12 n=47 v=0
116725 On ch=12 n=59 v=0
116736 On ch=12 n=51 v=100
116736 On ch=12 n=63 v=100
116813 On ch=12 n=63 v=0
116813 On ch=12 n=51 v=0
116832 On ch=12 n=46 v=100
116832 On ch=12 n=58 v=100
116909 On ch=12 n=58 v=0
116909 On ch=12 n=46 v=0
116928 On ch=12 n=51 v=100
116928 On ch=12 n=39 v=100
117005 On ch=12 n=39 v=0
117005 On ch=12 n=51 v=0
117024 On ch=12 n=46 v=100
117024 On ch=12 n=58 v=100
117101 On ch=12 n=58 v=0
117101 On ch=12 n=46 v=0
117120 On ch=12 n=63 v=100
117120 On ch=12 n=51 v=100
117197 On ch=12 n=51 v=0
117197 On ch=12 n=63 v=0
117216 On ch=12 n=58 v=100
117216 On ch=12 n=46 v=100
117293 On ch=12 n=46 v=0
117293 On ch=12 n=58 v=0
117312 On ch=12 n=39 v=100
117312 On ch=12 n=51 v=100
117389 On ch=12 n=51 v=0
117389 On ch=12 n=39 v=0
117408 On ch=12 n=58 v=100
117408 On ch=12 n=46 v=100
117485 On ch=12 n=46 v=0
117485 On ch=12 n=58 v=0
117504 Par ch=12 c=11 v=64
117504 On ch=12 n=51 v=100
117504 On ch=12 n=63 v=100
117552 Par ch=12 c=11 v=65
117581 On ch=12 n=63 v=0
117581 On ch=12 n=51 v=0
117596 Par ch=12 c=11 v=66
117600 On ch=12 n=46 v=100
117600 On ch=12 n=58 v=100
117640 Par ch=12 c=11 v=67
117677 On ch=12 n=58 v=0
117677 On ch=12 n=46 v=0
117688 Par ch=12 c=11 v=68
117696 On ch=12 n=51 v=100
117696 On ch=12 n=39 v=100
117732 Par ch=12 c=11 v=69
117773 On ch=12 n=39 v=0
117773 On ch=12 n=51 v=0
117776 Par ch=12 c=11 v=70
117792 On ch=12 n=46 v=100
117792 On ch=12 n=58 v=100
117824 Par ch=12 c=11 v=71
117868 Par ch=12 c=11 v=72
117869 On ch=12 n=58 v=0
117869 On ch=12 n=46 v=0
117888 On ch=12 n=51 v=100
117888 On ch=12 n=63 v=100
117912 Par ch=12 c=11 v=73
117956 Par ch=12 c=11 v=74
117965 On ch=12 n=63 v=0
117965 On ch=12 n=51 v=0
117984 On ch=12 n=46 v=100
117984 On ch=12 n=58 v=100
118004 Par ch=12 c=11 v=75
118048 Par ch=12 c=11 v=76
118061 On ch=12 n=58 v=0
118061 On ch=12 n=46 v=0
118080 On ch=12 n=51 v=100
118080 On ch=12 n=39 v=100
118092 Par ch=12 c=11 v=77
118140 Par ch=12 c=11 v=78
118157 On ch=12 n=39 v=0
118157 On ch=12 n=51 v=0
118176 On ch=12 n=46 v=100
118176 On ch=12 n=58 v=100
118184 Par ch=12 c=11 v=79
118228 Par ch=12 c=11 v=80
118253 On ch=12 n=58 v=0
118253 On ch=12 n=46 v=0
118272 Par ch=12 c=11 v=64
118272 On ch=12 n=66 v=100
118272 On ch=12 n=63 v=100
118296 Par ch=12 c=11 v=63
118320 Par ch=12 c=11 v=62
118340 Par ch=12 c=11 v=61
118364 Par ch=12 c=11 v=60
118388 Par ch=12 c=11 v=59
118408 Par ch=12 c=11 v=58
118432 Par ch=12 c=11 v=57
118456 Par ch=12 c=11 v=56
118476 Par ch=12 c=11 v=55
118500 Par ch=12 c=11 v=54
118524 Par ch=12 c=11 v=53
118544 Par ch=12 c=11 v=52
118568 Par ch=12 c=11 v=51
118592 Par ch=12 c=11 v=50
118612 Par ch=12 c=11 v=49
118636 Par ch=12 c=11 v=48
119040 Par ch=12 c=11 v=48
119064 Par ch=12 c=11 v=49
119088 Par ch=12 c=11 v=50
119108 Par ch=12 c=11 v=51
119132 Par ch=12 c=11 v=52
119156 Par ch=12 c=11 v=53
119176 Par ch=12 c=11 v=54
119200 Par ch=12 c=11 v=55
119224 Par ch=12 c=11 v=56
119244 Par ch=12 c=11 v=57
119268 Par ch=12 c=11 v=58
119292 Par ch=12 c=11 v=59
119312 Par ch=12 c=11 v=60
119336 Par ch=12 c=11 v=61
119360 Par ch=12 c=11 v=62
119380 Par ch=12 c=11 v=63
119404 Par ch=12 c=11 v=64
119424 Par ch=12 c=11 v=64
119436 Par ch=12 c=11 v=63
119448 Par ch=12 c=11 v=62
119460 Par ch=12 c=11 v=61
119472 Par ch=12 c=11 v=60
119484 Par ch=12 c=11 v=59
119496 Par ch=12 c=11 v=58
119508 Par ch=12 c=11 v=57
119520 Par ch=12 c=11 v=56
119532 Par ch=12 c=11 v=55
119544 Par ch=12 c=11 v=54
119556 Par ch=12 c=11 v=53
119568 Par ch=12 c=11 v=52
119580 Par ch=12 c=11 v=51
119592 Par ch=12 c=11 v=50
119604 Par ch=12 c=11 v=49
119616 Par ch=12 c=11 v=48
119693 On ch=12 n=63 v=0
119693 On ch=12 n=66 v=0
119808 Par ch=12 c=11 v=64
120096 On ch=12 n=56 v=100
120096 On ch=12 n=63 v=100
120096 On ch=12 n=68 v=100
120346 On ch=12 n=68 v=0
120346 On ch=12 n=63 v=0
120346 On ch=12 n=56 v=0
120480 On ch=12 n=65 v=100
120480 On ch=12 n=68 v=100
120480 On ch=12 n=71 v=100
120730 On ch=12 n=71 v=0
120730 On ch=12 n=68 v=0
120730 On ch=12 n=65 v=0
120864 On ch=12 n=66 v=100
120864 On ch=12 n=69 v=100
120864 On ch=12 n=72 v=100
121190 On ch=12 n=72 v=0
121190 On ch=12 n=69 v=0
121190 On ch=12 n=66 v=0
121728 On ch=12 n=71 v=127
121728 On ch=12 n=59 v=127
122035 On ch=12 n=59 v=0
122035 On ch=12 n=71 v=0
123264 On ch=12 n=57 v=111
123264 On ch=12 n=69 v=111
123302 On ch=12 n=69 v=0
123302 On ch=12 n=57 v=0
123360 On ch=12 n=58 v=111
123360 On ch=12 n=70 v=111
123514 On ch=12 n=70 v=0
123514 On ch=12 n=58 v=0
124032 On ch=12 n=70 v=111
124032 On ch=12 n=58 v=111
124070 On ch=12 n=58 v=0
124070 On ch=12 n=70 v=0
124128 On ch=12 n=73 v=111
124128 On ch=12 n=61 v=111
124282 On ch=12 n=61 v=0
124282 On ch=12 n=73 v=0
125568 Par ch=12 c=11 v=64
125568 On ch=12 n=62 v=79
125568 On ch=12 n=59 v=79
125568 On ch=12 n=55 v=79
125584 Par ch=12 c=11 v=65
125596 Par ch=12 c=11 v=66
125606 On ch=12 n=55 v=0
125606 On ch=12 n=59 v=0
125606 On ch=12 n=62 v=0
125608 Par ch=12 c=11 v=67
125620 Par ch=12 c=11 v=68
125632 Par ch=12 c=11 v=69
125640 On ch=12 n=59 v=79
125640 On ch=12 n=62 v=79
125640 On ch=12 n=55 v=79
125644 Par ch=12 c=11 v=70
125656 Par ch=12 c=11 v=71
125659 On ch=12 n=55 v=0
125659 On ch=12 n=62 v=0
125659 On ch=12 n=59 v=0
125664 On ch=12 n=62 v=79
125664 On ch=12 n=59 v=79
125664 On ch=12 n=55 v=79
125668 Par ch=12 c=11 v=72
125680 Par ch=12 c=11 v=73
125690 On ch=12 n=55 v=0
125690 On ch=12 n=59 v=0
125690 On ch=12 n=62 v=0
125692 Par ch=12 c=11 v=74
125696 On ch=12 n=62 v=79
125696 On ch=12 n=59 v=79
125696 On ch=12 n=55 v=79
125704 Par ch=12 c=11 v=75
125716 Par ch=12 c=11 v=76
125722 On ch=12 n=55 v=0
125722 On ch=12 n=59 v=0
125722 On ch=12 n=62 v=0
125728 Par ch=12 c=11 v=77
125728 On ch=12 n=62 v=79
125728 On ch=12 n=59 v=79
125728 On ch=12 n=55 v=79
125740 Par ch=12 c=11 v=78
125752 Par ch=12 c=11 v=79
125754 On ch=12 n=55 v=0
125754 On ch=12 n=59 v=0
125754 On ch=12 n=62 v=0
125760 On ch=12 n=62 v=79
125760 On ch=12 n=59 v=79
125760 On ch=12 n=55 v=79
125764 Par ch=12 c=11 v=80
125776 Par ch=12 c=11 v=81
125788 Par ch=12 c=11 v=82
125798 On ch=12 n=55 v=0
125798 On ch=12 n=59 v=0
125798 On ch=12 n=62 v=0
125800 Par ch=12 c=11 v=83
125812 Par ch=12 c=11 v=84
125824 Par ch=12 c=11 v=85
125832 On ch=12 n=59 v=79
125832 On ch=12 n=62 v=79
125832 On ch=12 n=55 v=79
125840 Par ch=12 c=11 v=86
125851 On ch=12 n=55 v=0
125851 On ch=12 n=62 v=0
125851 On ch=12 n=59 v=0
125852 Par ch=12 c=11 v=87
125856 On ch=12 n=62 v=79
125856 On ch=12 n=59 v=79
125856 On ch=12 n=55 v=79
125864 Par ch=12 c=11 v=88
125876 Par ch=12 c=11 v=89
125882 On ch=12 n=55 v=0
125882 On ch=12 n=59 v=0
125882 On ch=12 n=62 v=0
125888 Par ch=12 c=11 v=90
125888 On ch=12 n=62 v=79
125888 On ch=12 n=59 v=79
125888 On ch=12 n=55 v=79
125900 Par ch=12 c=11 v=91
125912 Par ch=12 c=11 v=92
125914 On ch=12 n=55 v=0
125914 On ch=12 n=59 v=0
125914 On ch=12 n=62 v=0
125920 On ch=12 n=62 v=79
125920 On ch=12 n=59 v=79
125920 On ch=12 n=55 v=79
125924 Par ch=12 c=11 v=93
125936 Par ch=12 c=11 v=94
125946 On ch=12 n=55 v=0
125946 On ch=12 n=59 v=0
125946 On ch=12 n=62 v=0
125948 Par ch=12 c=11 v=95
125952 On ch=12 n=59 v=79
125952 On ch=12 n=62 v=79
125952 On ch=12 n=55 v=79
125960 Par ch=12 c=11 v=96
125972 Par ch=12 c=11 v=97
125984 Par ch=12 c=11 v=98
125990 On ch=12 n=55 v=0
125990 On ch=12 n=62 v=0
125990 On ch=12 n=59 v=0
125996 Par ch=12 c=11 v=99
126000 On ch=12 n=59 v=79
126000 On ch=12 n=62 v=79
126000 On ch=12 n=55 v=79
126008 Par ch=12 c=11 v=100
126020 Par ch=12 c=11 v=101
126032 Par ch=12 c=11 v=102
126038 On ch=12 n=55 v=0
126038 On ch=12 n=62 v=0
126038 On ch=12 n=59 v=0
126044 Par ch=12 c=11 v=103
126048 On ch=12 n=59 v=79
126048 On ch=12 n=62 v=79
126048 On ch=12 n=55 v=79
126056 Par ch=12 c=11 v=104
126068 Par ch=12 c=11 v=105
126080 Par ch=12 c=11 v=106
126086 On ch=12 n=55 v=0
126086 On ch=12 n=62 v=0
126086 On ch=12 n=59 v=0
126096 Par ch=12 c=11 v=107
126096 On ch=12 n=59 v=79
126096 On ch=12 n=62 v=79
126096 On ch=12 n=55 v=79
126108 Par ch=12 c=11 v=108
126120 Par ch=12 c=11 v=109
126132 Par ch=12 c=11 v=110
126134 On ch=12 n=55 v=0
126134 On ch=12 n=62 v=0
126134 On ch=12 n=59 v=0
126144 Par ch=12 c=11 v=111
126144 On ch=12 n=62 v=79
126144 On ch=12 n=55 v=79
126144 On ch=12 n=59 v=79
126156 Par ch=12 c=11 v=112
126168 Par ch=12 c=11 v=113
126170 On ch=12 n=59 v=0
126170 On ch=12 n=55 v=0
126170 On ch=12 n=62 v=0
126176 On ch=12 n=62 v=79
126176 On ch=12 n=55 v=79
126176 On ch=12 n=59 v=79
126180 Par ch=12 c=11 v=114
126192 Par ch=12 c=11 v=115
126202 On ch=12 n=59 v=0
126202 On ch=12 n=55 v=0
126202 On ch=12 n=62 v=0
126204 Par ch=12 c=11 v=116
126208 On ch=12 n=62 v=79
126208 On ch=12 n=55 v=79
126208 On ch=12 n=59 v=79
126216 Par ch=12 c=11 v=117
126228 Par ch=12 c=11 v=118
126234 On ch=12 n=59 v=0
126234 On ch=12 n=55 v=0
126234 On ch=12 n=62 v=0
126240 Par ch=12 c=11 v=119
126240 On ch=12 n=62 v=79
126240 On ch=12 n=55 v=79
126240 On ch=12 n=59 v=79
126252 Par ch=12 c=11 v=120
126264 Par ch=12 c=11 v=121
126266 On ch=12 n=59 v=0
126266 On ch=12 n=55 v=0
126266 On ch=12 n=62 v=0
126272 On ch=12 n=62 v=79
126272 On ch=12 n=55 v=79
126272 On ch=12 n=59 v=79
126276 Par ch=12 c=11 v=122
126288 Par ch=12 c=11 v=123
126298 On ch=12 n=59 v=0
126298 On ch=12 n=55 v=0
126298 On ch=12 n=62 v=0
126300 Par ch=12 c=11 v=124
126304 On ch=12 n=62 v=79
126304 On ch=12 n=55 v=79
126304 On ch=12 n=59 v=79
126312 Par ch=12 c=11 v=125
126324 Par ch=12 c=11 v=126
126330 On ch=12 n=59 v=0
126330 On ch=12 n=55 v=0
126330 On ch=12 n=62 v=0
126336 Par ch=12 c=11 v=64
126336 On ch=12 n=60 v=127
126336 On ch=12 n=55 v=127
126367 On ch=12 n=55 v=0
126367 On ch=12 n=60 v=0
126384 On ch=12 n=48 v=127
126415 On ch=12 n=48 v=0
128256 On ch=12 n=60 v=47
128256 On ch=12 n=48 v=47
128486 On ch=12 n=48 v=0
128486 On ch=12 n=60 v=0
128544 On ch=12 n=43 v=47
128544 On ch=12 n=55 v=47
128621 On ch=12 n=55 v=0
128621 On ch=12 n=43 v=0
128640 On ch=12 n=48 v=47
128640 On ch=12 n=60 v=47
128794 On ch=12 n=60 v=0
128794 On ch=12 n=48 v=0
128832 On ch=12 n=50 v=47
128832 On ch=12 n=62 v=47
128909 On ch=12 n=62 v=0
128909 On ch=12 n=50 v=0
128928 On ch=12 n=53 v=47
128928 On ch=12 n=65 v=47
128966 On ch=12 n=65 v=0
128966 On ch=12 n=53 v=0
129000 On ch=12 n=56 v=47
129000 On ch=12 n=68 v=47
129019 On ch=12 n=68 v=0
129019 On ch=12 n=56 v=0
129024 On ch=12 n=60 v=47
129024 On ch=12 n=72 v=47
129101 On ch=12 n=72 v=0
129101 On ch=12 n=60 v=0
129664 On ch=12 n=60 v=47
129664 On ch=12 n=72 v=47
129685 On ch=12 n=72 v=0
129685 On ch=12 n=60 v=0
129696 On ch=12 n=62 v=47
129696 On ch=12 n=74 v=47
129717 On ch=12 n=74 v=0
129717 On ch=12 n=62 v=0
129728 On ch=12 n=60 v=47
129728 On ch=12 n=72 v=47
129749 On ch=12 n=72 v=0
129749 On ch=12 n=60 v=0
129760 On ch=12 n=59 v=47
129760 On ch=12 n=71 v=47
129781 On ch=12 n=71 v=0
129781 On ch=12 n=59 v=0
129792 On ch=12 n=60 v=47
129792 On ch=12 n=48 v=47
130867 On ch=12 n=48 v=0
130867 On ch=12 n=60 v=0
130944 On ch=12 n=55 v=47
130944 On ch=12 n=67 v=47
131098 On ch=12 n=67 v=0
131098 On ch=12 n=55 v=0
131136 On ch=12 n=68 v=47
131136 On ch=12 n=72 v=47
131290 On ch=12 n=72 v=0
131290 On ch=12 n=68 v=0
131328 On ch=12 n=55 v=47
131328 On ch=12 n=67 v=47
131482 On ch=12 n=67 v=0
131482 On ch=12 n=55 v=0
131520 On ch=12 n=68 v=47
131520 On ch=12 n=72 v=47
131674 On ch=12 n=72 v=0
131674 On ch=12 n=68 v=0
131712 On ch=12 n=43 v=47
131712 On ch=12 n=55 v=47
131712 On ch=12 n=67 v=47
132403 On ch=12 n=67 v=0
132403 On ch=12 n=55 v=0
132403 On ch=12 n=43 v=0
133152 On ch=12 n=68 v=47
133229 On ch=12 n=68 v=0
133248 Par ch=12 c=11 v=64
133248 On ch=12 n=67 v=47
133260 Par ch=12 c=11 v=65
133272 Par ch=12 c=11 v=66
133284 Par ch=12 c=11 v=67
133296 Par ch=12 c=11 v=68
133308 Par ch=12 c=11 v=69
133320 Par ch=12 c=11 v=70
133325 On ch=12 n=67 v=0
133332 Par ch=12 c=11 v=71
133344 Par ch=12 c=11 v=72
133344 On ch=12 n=62 v=47
133356 Par ch=12 c=11 v=73
133368 Par ch=12 c=11 v=74
133380 Par ch=12 c=11 v=75
133392 Par ch=12 c=11 v=76
133402 On ch=12 n=62 v=0
133404 Par ch=12 c=11 v=77
133416 Par ch=12 c=11 v=78
133416 On ch=12 n=63 v=47
133428 Par ch=12 c=11 v=79
133435 On ch=12 n=63 v=0
133440 Par ch=12 c=11 v=80
133440 On ch=12 n=65 v=47
133452 Par ch=12 c=11 v=81
133464 Par ch=12 c=11 v=82
133476 Par ch=12 c=11 v=83
133488 Par ch=12 c=11 v=84
133500 Par ch=12 c=11 v=85
133512 Par ch=12 c=11 v=86
133517 On ch=12 n=65 v=0
133524 Par ch=12 c=11 v=87
133536 Par ch=12 c=11 v=88
133536 On ch=12 n=68 v=47
133548 Par ch=12 c=11 v=89
133560 Par ch=12 c=11 v=90
133572 Par ch=12 c=11 v=91
133584 Par ch=12 c=11 v=92
133596 Par ch=12 c=11 v=93
133608 Par ch=12 c=11 v=94
133613 On ch=12 n=68 v=0
133620 Par ch=12 c=11 v=95
133632 Par ch=12 c=11 v=96
133632 On ch=12 n=67 v=47
133644 Par ch=12 c=11 v=97
133656 Par ch=12 c=11 v=98
133668 Par ch=12 c=11 v=99
133680 Par ch=12 c=11 v=100
133692 Par ch=12 c=11 v=101
133704 Par ch=12 c=11 v=102
133716 Par ch=12 c=11 v=103
133728 Par ch=12 c=11 v=104
133740 Par ch=12 c=11 v=105
133752 Par ch=12 c=11 v=106
133764 Par ch=12 c=11 v=107
133776 Par ch=12 c=11 v=108
133786 On ch=12 n=67 v=0
133788 Par ch=12 c=11 v=109
133800 Par ch=12 c=11 v=110
133812 Par ch=12 c=11 v=111
133824 Par ch=12 c=11 v=112
133824 On ch=12 n=59 v=47
133848 Par ch=12 c=11 v=64
134016 On ch=12 n=59 v=0
134016 Par ch=12 c=11 v=112
134016 On ch=12 n=67 v=47
134040 Par ch=12 c=11 v=64
134048 Par ch=12 c=11 v=65
134056 Par ch=12 c=11 v=66
134064 Par ch=12 c=11 v=67
134072 Par ch=12 c=11 v=68
134080 Par ch=12 c=11 v=69
134088 Par ch=12 c=11 v=70
134092 Par ch=12 c=11 v=71
134100 Par ch=12 c=11 v=72
134108 Par ch=12 c=11 v=73
134116 Par ch=12 c=11 v=74
134124 Par ch=12 c=11 v=75
134132 Par ch=12 c=11 v=76
134136 Par ch=12 c=11 v=77
134144 Par ch=12 c=11 v=78
134152 Par ch=12 c=11 v=79
134160 Par ch=12 c=11 v=80
134168 Par ch=12 c=11 v=81
134176 Par ch=12 c=11 v=82
134180 Par ch=12 c=11 v=83
134188 Par ch=12 c=11 v=84
134196 Par ch=12 c=11 v=85
134204 Par ch=12 c=11 v=86
134212 Par ch=12 c=11 v=87
134220 Par ch=12 c=11 v=88
134224 Par ch=12 c=11 v=89
134232 Par ch=12 c=11 v=90
134240 Par ch=12 c=11 v=91
134246 On ch=12 n=67 v=0
134248 Par ch=12 c=11 v=92
134256 Par ch=12 c=11 v=93
134264 Par ch=12 c=11 v=94
134268 Par ch=12 c=11 v=95
134276 Par ch=12 c=11 v=96
134284 Par ch=12 c=11 v=97
134292 Par ch=12 c=11 v=98
134300 Par ch=12 c=11 v=99
134304 On ch=12 n=66 v=47
134308 Par ch=12 c=11 v=100
134312 Par ch=12 c=11 v=101
134320 Par ch=12 c=11 v=102
134328 Par ch=12 c=11 v=103
134336 Par ch=12 c=11 v=104
134344 Par ch=12 c=11 v=105
134352 Par ch=12 c=11 v=106
134356 Par ch=12 c=11 v=107
134364 Par ch=12 c=11 v=108
134372 Par ch=12 c=11 v=109
134380 Par ch=12 c=11 v=110
134381 On ch=12 n=66 v=0
134388 Par ch=12 c=11 v=111
134396 Par ch=12 c=11 v=112
134400 On ch=12 n=67 v=95
134424 Par ch=12 c=11 v=64
134438 On ch=12 n=67 v=0
134784 Par ch=12 c=11 v=85
134784 On ch=12 n=67 v=47
134784 On ch=12 n=61 v=47
134784 On ch=12 n=58 v=47
134800 Par ch=12 c=11 v=86
134812 Par ch=12 c=11 v=87
134822 On ch=12 n=67 v=0
134828 Par ch=12 c=11 v=88
134840 Par ch=12 c=11 v=89
134856 Par ch=12 c=11 v=90
134868 Par ch=12 c=11 v=91
134880 Par ch=12 c=11 v=92
134896 Par ch=12 c=11 v=93
134908 Par ch=12 c=11 v=94
134924 Par ch=12 c=11 v=95
134936 Par ch=12 c=11 v=96
134952 Par ch=12 c=11 v=97
134964 Par ch=12 c=11 v=98
134976 Par ch=12 c=11 v=99
134992 Par ch=12 c=11 v=100
135004 Par ch=12 c=11 v=101
135020 Par ch=12 c=11 v=102
135032 Par ch=12 c=11 v=103
135048 Par ch=12 c=11 v=104
135060 Par ch=12 c=11 v=105
135072 Par ch=12 c=11 v=106
135088 Par ch=12 c=11 v=107
135100 Par ch=12 c=11 v=108
135116 Par ch=12 c=11 v=109
135128 Par ch=12 c=11 v=110
135144 Par ch=12 c=11 v=111
135156 Par ch=12 c=11 v=112
135322 On ch=12 n=58 v=0
135322 On ch=12 n=61 v=0
135424 Par ch=12 c=11 v=64
135424 On ch=12 n=60 v=95
135432 Par ch=12 c=11 v=65
135440 Par ch=12 c=11 v=66
135445 On ch=12 n=60 v=0
135448 Par ch=12 c=11 v=67
135456 Par ch=12 c=11 v=68
135456 On ch=12 n=67 v=95
135464 Par ch=12 c=11 v=69
135472 Par ch=12 c=11 v=70
135477 On ch=12 n=67 v=0
135480 Par ch=12 c=11 v=71
135488 Par ch=12 c=11 v=72
135488 On ch=12 n=70 v=95
135492 Par ch=12 c=11 v=73
135500 Par ch=12 c=11 v=74
135508 Par ch=12 c=11 v=75
135509 On ch=12 n=70 v=0
135516 Par ch=12 c=11 v=76
135520 On ch=12 n=73 v=95
135524 Par ch=12 c=11 v=77
135532 Par ch=12 c=11 v=78
135540 Par ch=12 c=11 v=79
135541 On ch=12 n=73 v=0
135548 Par ch=12 c=11 v=80
135552 Par ch=12 c=11 v=64
135552 On ch=12 n=72 v=111
135583 On ch=12 n=72 v=0
135624 On ch=12 n=70 v=111
135640 On ch=12 n=70 v=0
135648 On ch=12 n=68 v=111
135679 On ch=12 n=68 v=0
135720 On ch=12 n=67 v=111
135736 On ch=12 n=67 v=0
135744 On ch=12 n=65 v=111
135775 On ch=12 n=65 v=0
135816 On ch=12 n=63 v=111
135832 On ch=12 n=63 v=0
135840 On ch=12 n=61 v=111
135871 On ch=12 n=61 v=0
135912 On ch=12 n=60 v=111
135928 On ch=12 n=60 v=0
135936 On ch=12 n=68 v=111
135967 On ch=12 n=68 v=0
136008 On ch=12 n=67 v=111
136024 On ch=12 n=67 v=0
136032 On ch=12 n=65 v=111
136063 On ch=12 n=65 v=0
136104 On ch=12 n=63 v=111
136120 On ch=12 n=63 v=0
136128 On ch=12 n=61 v=111
136159 On ch=12 n=61 v=0
136200 On ch=12 n=60 v=111
136216 On ch=12 n=60 v=0
136224 On ch=12 n=58 v=111
136255 On ch=12 n=58 v=0
136296 On ch=12 n=56 v=111
136312 On ch=12 n=56 v=0
136320 On ch=12 n=55 v=111
136344 Par ch=12 c=11 v=16
136704 Par ch=12 c=11 v=64
136716 Par ch=12 c=11 v=65
136728 Par ch=12 c=11 v=66
136740 Par ch=12 c=11 v=67
136752 Par ch=12 c=11 v=68
136764 Par ch=12 c=11 v=69
136776 Par ch=12 c=11 v=70
136788 Par ch=12 c=11 v=71
136800 Par ch=12 c=11 v=72
136812 Par ch=12 c=11 v=73
136824 Par ch=12 c=11 v=74
136832 Par ch=12 c=11 v=75
136844 Par ch=12 c=11 v=76
136856 Par ch=12 c=11 v=77
136858 On ch=12 n=55 v=0
136868 Par ch=12 c=11 v=78
136880 Par ch=12 c=11 v=79
136892 Par ch=12 c=11 v=80
136896 On ch=12 n=53 v=95
136904 Par ch=12 c=11 v=81
136916 Par ch=12 c=11 v=82
136928 Par ch=12 c=11 v=83
136940 Par ch=12 c=11 v=84
136952 Par ch=12 c=11 v=85
136960 Par ch=12 c=11 v=86
136972 Par ch=12 c=11 v=87
136984 Par ch=12 c=11 v=88
136996 Par ch=12 c=11 v=89
137008 Par ch=12 c=11 v=90
137020 Par ch=12 c=11 v=91
137032 Par ch=12 c=11 v=92
137044 Par ch=12 c=11 v=93
137050 On ch=12 n=53 v=0
137056 Par ch=12 c=11 v=94
137068 Par ch=12 c=11 v=95
137080 Par ch=12 c=11 v=96
137088 Par ch=12 c=11 v=64
137088 On ch=12 n=51 v=127
137126 On ch=12 n=51 v=0
138240 On ch=12 n=63 v=31
138240 On ch=12 n=51 v=31
138778 On ch=12 n=51 v=0
138778 On ch=12 n=63 v=0
139392 Par ch=12 c=11 v=64
139392 On ch=12 n=52 v=31
139392 On ch=12 n=64 v=31
139416 Par ch=12 c=11 v=63
139440 Par ch=12 c=11 v=62
139460 Par ch=12 c=11 v=61
139484 Par ch=12 c=11 v=60
139508 Par ch=12 c=11 v=59
139528 Par ch=12 c=11 v=58
139552 Par ch=12 c=11 v=57
139576 Par ch=12 c=11 v=56
139596 Par ch=12 c=11 v=55
139620 Par ch=12 c=11 v=54
139622 On ch=12 n=64 v=0
139622 On ch=12 n=52 v=0
139644 Par ch=12 c=11 v=53
139664 Par ch=12 c=11 v=52
139680 On ch=12 n=51 v=31
139680 On ch=12 n=63 v=31
139688 Par ch=12 c=11 v=51
139712 Par ch=12 c=11 v=50
139732 Par ch=12 c=11 v=49
139756 Par ch=12 c=11 v=48
139757 On ch=12 n=63 v=0
139757 On ch=12 n=51 v=0
139776 On ch=12 n=40 v=15
139776 On ch=12 n=52 v=15
140237 On ch=12 n=52 v=0
140237 On ch=12 n=40 v=0
140544 Par ch=12 c=11 v=64
140544 On ch=12 n=57 v=15
140544 On ch=12 n=61 v=15
140832 On ch=12 n=61 v=0
140832 On ch=12 n=57 v=0
140832 On ch=12 n=59 v=15
140832 On ch=12 n=52 v=15
140909 On ch=12 n=52 v=0
140909 On ch=12 n=59 v=0
140928 On ch=12 n=57 v=15
140928 On ch=12 n=61 v=15
141216 On ch=12 n=61 v=0
141216 On ch=12 n=57 v=0
141216 On ch=12 n=59 v=15
141216 On ch=12 n=52 v=15
141293 On ch=12 n=52 v=0
141293 On ch=12 n=59 v=0
142080 On ch=12 n=71 v=15
142848 On ch=12 n=47 v=31
142848 On ch=12 n=40 v=31
142925 On ch=12 n=71 v=0
144845 On ch=12 n=40 v=0
144845 On ch=12 n=47 v=0
147456 On ch=12 n=40 v=15
147456 On ch=12 n=47 v=15
147456 On ch=12 n=59 v=15
148416 Par ch=12 c=11 v=64
148436 Par ch=12 c=11 v=63
148452 Par ch=12 c=11 v=62
148468 Par ch=12 c=11 v=61
148484 Par ch=12 c=11 v=60
148504 Par ch=12 c=11 v=59
148520 Par ch=12 c=11 v=58
148536 Par ch=12 c=11 v=57
148552 Par ch=12 c=11 v=56
148572 Par ch=12 c=11 v=55
148588 Par ch=12 c=11 v=54
148604 Par ch=12 c=11 v=53
148620 Par ch=12 c=11 v=52
148640 Par ch=12 c=11 v=51
148656 Par ch=12 c=11 v=50
148672 Par ch=12 c=11 v=49
148688 Par ch=12 c=11 v=48
148704 Par ch=12 c=11 v=47
148724 Par ch=12 c=11 v=46
148740 Par ch=12 c=11 v=45
148756 Par ch=12 c=11 v=44
148772 Par ch=12 c=11 v=43
148792 Par ch=12 c=11 v=42
148808 Par ch=12 c=11 v=41
148824 Par ch=12 c=11 v=40
148840 Par ch=12 c=11 v=39
148860 Par ch=12 c=11 v=38
148876 Par ch=12 c=11 v=37
148892 Par ch=12 c=11 v=36
148908 Par ch=12 c=11 v=35
148928 Par ch=12 c=11 v=34
148944 Par ch=12 c=11 v=33
148960 Par ch=12 c=11 v=32
149299 On ch=12 n=59 v=0
149299 On ch=12 n=47 v=0
149299 On ch=12 n=40 v=0
149376 Par ch=12 c=11 v=64
151296 On ch=12 n=48 v=15
151296 On ch=12 n=60 v=15
151450 On ch=12 n=60 v=0
151450 On ch=12 n=48 v=0
151488 On ch=12 n=61 v=15
151488 On ch=12 n=49 v=15
151603 On ch=12 n=49 v=0
151603 On ch=12 n=61 v=0
151632 On ch=12 n=50 v=15
151632 On ch=12 n=62 v=15
151670 On ch=12 n=62 v=0
151670 On ch=12 n=50 v=0
151680 On ch=12 n=50 v=15
151680 On ch=12 n=62 v=15
151718 On ch=12 n=62 v=0
151718 On ch=12 n=50 v=0
151776 On ch=12 n=51 v=15
151776 On ch=12 n=63 v=15
151930 On ch=12 n=63 v=0
151930 On ch=12 n=51 v=0
152064 On ch=12 n=48 v=15
152064 On ch=12 n=60 v=15
152218 On ch=12 n=60 v=0
152218 On ch=12 n=48 v=0
152256 On ch=12 n=49 v=15
152256 On ch=12 n=61 v=15
152333 On ch=12 n=61 v=0
152333 On ch=12 n=49 v=0
152352 On ch=12 n=62 v=15
152352 On ch=12 n=50 v=15
152410 On ch=12 n=50 v=0
152410 On ch=12 n=62 v=0
152424 On ch=12 n=51 v=15
152424 On ch=12 n=63 v=15
152443 On ch=12 n=63 v=0
152443 On ch=12 n=51 v=0
152448 On ch=12 n=51 v=15
152448 On ch=12 n=63 v=15
152486 On ch=12 n=63 v=0
152486 On ch=12 n=51 v=0
152544 On ch=12 n=55 v=15
152544 On ch=12 n=67 v=15
152698 On ch=12 n=67 v=0
152698 On ch=12 n=55 v=0
152832 On ch=12 n=48 v=15
152832 On ch=12 n=60 v=15
152986 On ch=12 n=60 v=0
152986 On ch=12 n=48 v=0
153024 On ch=12 n=50 v=15
153024 On ch=12 n=62 v=15
153101 On ch=12 n=62 v=0
153101 On ch=12 n=50 v=0
153120 On ch=12 n=51 v=15
153120 On ch=12 n=63 v=15
153158 On ch=12 n=63 v=0
153158 On ch=12 n=51 v=0
153192 On ch=12 n=55 v=15
153192 On ch=12 n=67 v=15
153211 On ch=12 n=67 v=0
153211 On ch=12 n=55 v=0
153216 On ch=12 n=60 v=15
153216 On ch=12 n=72 v=15
153254 On ch=12 n=72 v=0
153254 On ch=12 n=60 v=0
153984 On ch=12 n=67 v=47
153984 On ch=12 n=72 v=47
153984 On ch=12 n=63 v=47
154022 On ch=12 n=63 v=0
154022 On ch=12 n=72 v=0
154022 On ch=12 n=67 v=0
154080 On ch=12 n=67 v=47
154080 On ch=12 n=71 v=47
154080 On ch=12 n=63 v=47
154234 On ch=12 n=63 v=0
154234 On ch=12 n=71 v=0
154234 On ch=12 n=67 v=0
154272 On ch=12 n=65 v=47
154272 On ch=12 n=70 v=47
154272 On ch=12 n=61 v=47
154293 On ch=12 n=61 v=0
154293 On ch=12 n=70 v=0
154293 On ch=12 n=65 v=0
154304 On ch=12 n=63 v=47
154304 On ch=12 n=68 v=47
154304 On ch=12 n=60 v=47
154325 On ch=12 n=60 v=0
154325 On ch=12 n=68 v=0
154325 On ch=12 n=63 v=0
154336 On ch=12 n=62 v=47
154336 On ch=12 n=67 v=47
154336 On ch=12 n=59 v=47
154357 On ch=12 n=59 v=0
154357 On ch=12 n=67 v=0
154357 On ch=12 n=62 v=0
154368 On ch=12 n=67 v=47
154368 On ch=12 n=71 v=47
154368 On ch=12 n=63 v=47
154406 On ch=12 n=63 v=0
154406 On ch=12 n=71 v=0
154406 On ch=12 n=67 v=0
154464 On ch=12 n=65 v=47
154464 On ch=12 n=70 v=47
154464 On ch=12 n=61 v=47
154618 On ch=12 n=61 v=0
154618 On ch=12 n=70 v=0
154618 On ch=12 n=65 v=0
154656 On ch=12 n=63 v=47
154656 On ch=12 n=68 v=47
154656 On ch=12 n=60 v=47
154677 On ch=12 n=60 v=0
154677 On ch=12 n=68 v=0
154677 On ch=12 n=63 v=0
154688 On ch=12 n=61 v=47
154688 On ch=12 n=67 v=47
154688 On ch=12 n=58 v=47
154709 On ch=12 n=58 v=0
154709 On ch=12 n=67 v=0
154709 On ch=12 n=61 v=0
154720 On ch=12 n=60 v=47
154720 On ch=12 n=65 v=47
154720 On ch=12 n=56 v=47
154741 On ch=12 n=56 v=0
154741 On ch=12 n=65 v=0
154741 On ch=12 n=60 v=0
154752 On ch=12 n=65 v=47
154752 On ch=12 n=70 v=47
154752 On ch=12 n=61 v=47
154783 On ch=12 n=61 v=0
154783 On ch=12 n=70 v=0
154783 On ch=12 n=65 v=0
154848 On ch=12 n=63 v=47
154848 On ch=12 n=68 v=47
154848 On ch=12 n=60 v=47
154973 On ch=12 n=60 v=0
154973 On ch=12 n=68 v=0
154973 On ch=12 n=63 v=0
155040 On ch=12 n=61 v=47
155040 On ch=12 n=67 v=47
155040 On ch=12 n=58 v=47
155061 On ch=12 n=58 v=0
155061 On ch=12 n=67 v=0
155061 On ch=12 n=61 v=0
155072 On ch=12 n=60 v=47
155072 On ch=12 n=65 v=47
155072 On ch=12 n=56 v=47
155093 On ch=12 n=56 v=0
155093 On ch=12 n=65 v=0
155093 On ch=12 n=60 v=0
155104 On ch=12 n=58 v=47
155104 On ch=12 n=63 v=47
155104 On ch=12 n=55 v=47
155125 On ch=12 n=55 v=0
155125 On ch=12 n=63 v=0
155125 On ch=12 n=58 v=0
155136 On ch=12 n=56 v=47
155136 On ch=12 n=62 v=47
155136 On ch=12 n=53 v=47
155174 On ch=12 n=53 v=0
155174 On ch=12 n=62 v=0
155174 On ch=12 n=56 v=0
156672 Par ch=12 c=11 v=64
156672 On ch=12 n=56 v=47
156676 Par ch=12 c=11 v=65
156680 Par ch=12 c=11 v=66
156684 Par ch=12 c=11 v=68
156688 Par ch=12 c=11 v=69
156692 Par ch=12 c=11 v=71
156696 Par ch=12 c=11 v=72
156700 Par ch=12 c=11 v=73
156704 Par ch=12 c=11 v=75
156708 Par ch=12 c=11 v=76
156712 Par ch=12 c=11 v=78
156716 Par ch=12 c=11 v=79
156720 Par ch=12 c=11 v=79
156724 Par ch=12 c=11 v=78
156728 Par ch=12 c=11 v=77
156732 Par ch=12 c=11 v=76
156736 Par ch=12 c=11 v=74
156740 Par ch=12 c=11 v=73
156744 Par ch=12 c=11 v=72
156748 Par ch=12 c=11 v=71
156752 Par ch=12 c=11 v=69
156756 Par ch=12 c=11 v=68
156760 Par ch=12 c=11 v=67
156764 Par ch=12 c=11 v=66
156768 Par ch=12 c=11 v=64
156826 On ch=12 n=56 v=0
156864 Par ch=12 c=11 v=64
156864 On ch=12 n=53 v=47
156868 Par ch=12 c=11 v=65
156872 Par ch=12 c=11 v=66
156876 Par ch=12 c=11 v=68
156880 Par ch=12 c=11 v=69
156884 Par ch=12 c=11 v=71
156888 Par ch=12 c=11 v=72
156892 Par ch=12 c=11 v=73
156896 Par ch=12 c=11 v=75
156900 Par ch=12 c=11 v=76
156904 Par ch=12 c=11 v=78
156908 Par ch=12 c=11 v=79
156912 Par ch=12 c=11 v=79
156916 Par ch=12 c=11 v=78
156920 Par ch=12 c=11 v=77
156924 Par ch=12 c=11 v=76
156928 Par ch=12 c=11 v=74
156932 Par ch=12 c=11 v=73
156936 Par ch=12 c=11 v=72
156940 Par ch=12 c=11 v=71
156944 Par ch=12 c=11 v=69
156948 Par ch=12 c=11 v=68
156952 Par ch=12 c=11 v=67
156956 Par ch=12 c=11 v=66
156960 Par ch=12 c=11 v=64
156979 On ch=12 n=53 v=0
157008 On ch=12 n=55 v=47
157039 On ch=12 n=55 v=0
157056 On ch=12 n=58 v=47
157087 On ch=12 n=58 v=0
157152 On ch=12 n=56 v=47
157306 On ch=12 n=56 v=0
158208 Par ch=12 c=11 v=64
158208 On ch=12 n=55 v=47
158212 Par ch=12 c=11 v=65
158216 Par ch=12 c=11 v=66
158220 Par ch=12 c=11 v=68
158224 Par ch=12 c=11 v=69
158228 Par ch=12 c=11 v=71
158232 Par ch=12 c=11 v=72
158236 Par ch=12 c=11 v=73
158240 Par ch=12 c=11 v=75
158244 Par ch=12 c=11 v=76
158248 Par ch=12 c=11 v=78
158252 Par ch=12 c=11 v=79
158256 Par ch=12 c=11 v=79
158260 Par ch=12 c=11 v=78
158264 Par ch=12 c=11 v=77
158268 Par ch=12 c=11 v=76
158272 Par ch=12 c=11 v=74
158276 Par ch=12 c=11 v=73
158280 Par ch=12 c=11 v=72
158284 Par ch=12 c=11 v=71
158288 Par ch=12 c=11 v=69
158292 Par ch=12 c=11 v=68
158296 Par ch=12 c=11 v=67
158300 Par ch=12 c=11 v=66
158304 Par ch=12 c=11 v=64
158362 On ch=12 n=55 v=0
158400 Par ch=12 c=11 v=64
158400 On ch=12 n=52 v=47
158404 Par ch=12 c=11 v=65
158408 Par ch=12 c=11 v=66
158412 Par ch=12 c=11 v=68
158416 Par ch=12 c=11 v=69
158420 Par ch=12 c=11 v=71
158424 Par ch=12 c=11 v=72
158428 Par ch=12 c=11 v=73
158432 Par ch=12 c=11 v=75
158436 Par ch=12 c=11 v=76
158440 Par ch=12 c=11 v=78
158444 Par ch=12 c=11 v=79
158448 Par ch=12 c=11 v=79
158452 Par ch=12 c=11 v=78
158456 Par ch=12 c=11 v=77
158460 Par ch=12 c=11 v=76
158464 Par ch=12 c=11 v=74
158468 Par ch=12 c=11 v=73
158472 Par ch=12 c=11 v=72
158476 Par ch=12 c=11 v=71
158480 Par ch=12 c=11 v=69
158484 Par ch=12 c=11 v=68
158488 Par ch=12 c=11 v=67
158492 Par ch=12 c=11 v=66
158496 Par ch=12 c=11 v=64
158515 On ch=12 n=52 v=0
158544 On ch=12 n=53 v=47
158582 On ch=12 n=53 v=0
158592 On ch=12 n=56 v=47
158623 On ch=12 n=56 v=0
158688 On ch=12 n=55 v=47
158842 On ch=12 n=55 v=0
158976 Par ch=12 c=11 v=64
158976 On ch=12 n=57 v=47
158980 Par ch=12 c=11 v=65
158984 Par ch=12 c=11 v=66
158988 Par ch=12 c=11 v=68
158992 Par ch=12 c=11 v=69
158996 Par ch=12 c=11 v=71
159000 Par ch=12 c=11 v=72
159004 Par ch=12 c=11 v=73
159008 Par ch=12 c=11 v=75
159012 Par ch=12 c=11 v=76
159016 Par ch=12 c=11 v=78
159020 Par ch=12 c=11 v=79
159024 Par ch=12 c=11 v=79
159028 Par ch=12 c=11 v=78
159032 Par ch=12 c=11 v=77
159036 Par ch=12 c=11 v=76
159040 Par ch=12 c=11 v=74
159044 Par ch=12 c=11 v=73
159048 Par ch=12 c=11 v=72
159052 Par ch=12 c=11 v=71
159056 Par ch=12 c=11 v=69
159060 Par ch=12 c=11 v=68
159064 Par ch=12 c=11 v=67
159068 Par ch=12 c=11 v=66
159072 Par ch=12 c=11 v=64
159130 On ch=12 n=57 v=0
159168 Par ch=12 c=11 v=64
159168 On ch=12 n=54 v=47
159172 Par ch=12 c=11 v=65
159176 Par ch=12 c=11 v=66
159180 Par ch=12 c=11 v=68
159184 Par ch=12 c=11 v=69
159188 Par ch=12 c=11 v=71
159192 Par ch=12 c=11 v=72
159196 Par ch=12 c=11 v=73
159200 Par ch=12 c=11 v=75
159204 Par ch=12 c=11 v=76
159208 Par ch=12 c=11 v=78
159212 Par ch=12 c=11 v=79
159216 Par ch=12 c=11 v=79
159220 Par ch=12 c=11 v=78
159224 Par ch=12 c=11 v=77
159228 Par ch=12 c=11 v=76
159232 Par ch=12 c=11 v=74
159236 Par ch=12 c=11 v=73
159240 Par ch=12 c=11 v=72
159244 Par ch=12 c=11 v=71
159248 Par ch=12 c=11 v=69
159252 Par ch=12 c=11 v=68
159256 Par ch=12 c=11 v=67
159260 Par ch=12 c=11 v=66
159264 Par ch=12 c=11 v=64
159283 On ch=12 n=54 v=0
159312 Par ch=12 c=11 v=64
159312 On ch=12 n=55 v=47
159324 Par ch=12 c=11 v=65
159332 Par ch=12 c=11 v=66
159340 Par ch=12 c=11 v=67
159348 Par ch=12 c=11 v=68
159350 On ch=12 n=55 v=0
159360 Par ch=12 c=11 v=69
159360 On ch=12 n=59 v=47
159360 On ch=12 n=71 v=47
159368 Par ch=12 c=11 v=70
159376 Par ch=12 c=11 v=71
159384 Par ch=12 c=11 v=72
159396 Par ch=12 c=11 v=73
159398 On ch=12 n=71 v=0
159398 On ch=12 n=59 v=0
159404 Par ch=12 c=11 v=74
159412 Par ch=12 c=11 v=75
159420 Par ch=12 c=11 v=76
159432 Par ch=12 c=11 v=77
159440 Par ch=12 c=11 v=78
159448 Par ch=12 c=11 v=79
159456 Par ch=12 c=11 v=80
159552 On ch=12 n=57 v=47
159552 On ch=12 n=69 v=47
159706 On ch=12 n=69 v=0
159706 On ch=12 n=57 v=0
160128 Par ch=12 c=11 v=64
160128 On ch=12 n=68 v=95
160128 On ch=12 n=65 v=95
160128 On ch=12 n=59 v=95
160152 Par ch=12 c=11 v=65
160176 Par ch=12 c=11 v=66
160196 Par ch=12 c=11 v=67
160220 Par ch=12 c=11 v=68
160244 Par ch=12 c=11 v=69
160264 Par ch=12 c=11 v=70
160288 Par ch=12 c=11 v=71
160312 Par ch=12 c=11 v=72
160332 Par ch=12 c=11 v=73
160356 Par ch=12 c=11 v=74
160380 Par ch=12 c=11 v=75
160400 Par ch=12 c=11 v=76
160424 Par ch=12 c=11 v=77
160448 Par ch=12 c=11 v=78
160468 Par ch=12 c=11 v=79
160492 Par ch=12 c=11 v=80
160512 On ch=12 n=59 v=0
160512 On ch=12 n=65 v=0
160512 On ch=12 n=68 v=0
160512 Par ch=12 c=11 v=64
160512 On ch=12 n=67 v=111
160512 On ch=12 n=63 v=111
160512 On ch=12 n=60 v=111
160550 On ch=12 n=60 v=0
160550 On ch=12 n=63 v=0
160550 On ch=12 n=67 v=0
162432 On ch=12 n=51 v=15
162470 On ch=12 n=51 v=0
162528 On ch=12 n=48 v=15
162682 On ch=12 n=48 v=0
162816 On ch=12 n=51 v=15
162854 On ch=12 n=51 v=0
162912 On ch=12 n=48 v=15
163066 On ch=12 n=48 v=0
163200 On ch=12 n=48 v=15
163354 On ch=12 n=48 v=0
163584 On ch=12 n=48 v=15
163738 On ch=12 n=48 v=0
165216 On ch=12 n=52 v=15
165216 On ch=12 n=55 v=15
165370 On ch=12 n=55 v=0
165370 On ch=12 n=52 v=0
165600 On ch=12 n=55 v=15
165600 On ch=12 n=52 v=15
165754 On ch=12 n=52 v=0
165754 On ch=12 n=55 v=0
166560 On ch=12 n=59 v=31
166560 On ch=12 n=62 v=31
166560 On ch=12 n=65 v=31
166656 On ch=12 n=65 v=0
166656 On ch=12 n=62 v=0
166656 On ch=12 n=59 v=0
166944 On ch=12 n=56 v=31
166944 On ch=12 n=61 v=31
167040 On ch=12 n=61 v=0
167040 On ch=12 n=56 v=0
167328 On ch=12 n=53 v=31
167328 On ch=12 n=56 v=31
167424 On ch=12 n=56 v=0
167424 On ch=12 n=53 v=0
167712 On ch=12 n=53 v=31
167712 On ch=12 n=47 v=31
167712 On ch=12 n=50 v=31
167808 On ch=12 n=50 v=0
167808 On ch=12 n=47 v=0
167808 On ch=12 n=53 v=0
168000 On ch=12 n=55 v=31
168000 On ch=12 n=52 v=31
168000 On ch=12 n=48 v=31
168154 On ch=12 n=48 v=0
168154 On ch=12 n=52 v=0
168154 On ch=12 n=55 v=0
168384 On ch=12 n=55 v=31
168384 On ch=12 n=52 v=31
168384 On ch=12 n=48 v=31
168538 On ch=12 n=48 v=0
168538 On ch=12 n=52 v=0
168538 On ch=12 n=55 v=0
169344 On ch=12 n=60 v=127
169344 On ch=12 n=72 v=127
169421 On ch=12 n=72 v=0
169421 On ch=12 n=60 v=0
169440 On ch=12 n=57 v=127
169440 On ch=12 n=69 v=127
169517 On ch=12 n=69 v=0
169517 On ch=12 n=57 v=0
169536 On ch=12 n=54 v=127
169536 On ch=12 n=66 v=127
169613 On ch=12 n=66 v=0
169613 On ch=12 n=54 v=0
169632 On ch=12 n=51 v=127
169632 On ch=12 n=63 v=127
169709 On ch=12 n=63 v=0
169709 On ch=12 n=51 v=0
169728 On ch=12 n=48 v=127
169728 On ch=12 n=60 v=127
169805 On ch=12 n=60 v=0
169805 On ch=12 n=48 v=0
169824 On ch=12 n=45 v=127
169824 On ch=12 n=57 v=127
169901 On ch=12 n=57 v=0
169901 On ch=12 n=45 v=0
169920 On ch=12 n=54 v=127
169920 On ch=12 n=42 v=127
169997 On ch=12 n=42 v=0
169997 On ch=12 n=54 v=0
170016 On ch=12 n=39 v=127
170016 On ch=12 n=51 v=127
170093 On ch=12 n=51 v=0
170093 On ch=12 n=39 v=0
170112 On ch=12 n=48 v=127
170112 On ch=12 n=36 v=127
170150 On ch=12 n=36 v=0
170150 On ch=12 n=48 v=0
170150 Meta TrkEnd
TrkEnd
MTrk
0 Meta 0x21 00
0 Meta TrkName "TRUMPET"
192 Par ch=13 c=1 v=8
196 Par ch=13 c=7 v=127
200 Par ch=13 c=10 v=55
204 Par ch=13 c=11 v=64
208 Par ch=13 c=91 v=96
212 Par ch=13 c=93 v=48
216 Par ch=13 c=0 v=0
216 Par ch=13 c=32 v=0
216 PrCh ch=13 p=56
9600 On ch=13 n=79 v=47
9754 On ch=13 n=79 v=0
9792 On ch=13 n=74 v=47
9907 On ch=13 n=74 v=0
9936 On ch=13 n=74 v=47
9974 On ch=13 n=74 v=0
9984 On ch=13 n=79 v=47
10138 On ch=13 n=79 v=0
10176 On ch=13 n=74 v=47
10291 On ch=13 n=74 v=0
10320 On ch=13 n=74 v=47
10358 On ch=13 n=74 v=0
10368 On ch=13 n=79 v=47
11059 On ch=13 n=79 v=0
14208 On ch=13 n=72 v=111
14239 On ch=13 n=72 v=0
14280 On ch=13 n=70 v=111
14296 On ch=13 n=70 v=0
14304 On ch=13 n=68 v=111
14335 On ch=13 n=68 v=0
14376 On ch=13 n=67 v=111
14392 On ch=13 n=67 v=0
14400 On ch=13 n=65 v=111
14431 On ch=13 n=65 v=0
14592 On ch=13 n=68 v=111
14624 On ch=13 n=68 v=0
14664 On ch=13 n=67 v=111
14680 On ch=13 n=67 v=0
14688 On ch=13 n=65 v=111
14720 On ch=13 n=65 v=0
14760 On ch=13 n=63 v=111
14776 On ch=13 n=63 v=0
14784 On ch=13 n=61 v=111
14816 On ch=13 n=61 v=0
14976 On ch=13 n=67 v=111
15667 On ch=13 n=67 v=0
15744 On ch=13 n=72 v=127
15898 On ch=13 n=72 v=0
15936 On ch=13 n=67 v=127
16030 On ch=13 n=67 v=0
16080 On ch=13 n=67 v=127
16111 On ch=13 n=67 v=0
16128 On ch=13 n=72 v=127
16282 On ch=13 n=72 v=0
16320 On ch=13 n=67 v=127
16414 On ch=13 n=67 v=0
16464 On ch=13 n=67 v=127
16495 On ch=13 n=67 v=0
16512 On ch=13 n=72 v=95
16560 Par ch=13 c=11 v=48
16572 Par ch=13 c=11 v=47
16584 Par ch=13 c=11 v=46
16592 Par ch=13 c=11 v=45
16604 Par ch=13 c=11 v=44
16612 Par ch=13 c=11 v=43
16624 Par ch=13 c=11 v=42
16632 Par ch=13 c=11 v=41
16644 Par ch=13 c=11 v=40
16652 Par ch=13 c=11 v=39
16664 Par ch=13 c=11 v=38
16672 Par ch=13 c=11 v=37
16684 Par ch=13 c=11 v=36
16696 Par ch=13 c=11 v=35
16704 Par ch=13 c=11 v=34
16716 Par ch=13 c=11 v=33
16724 Par ch=13 c=11 v=32
16736 Par ch=13 c=11 v=31
16744 Par ch=13 c=11 v=30
16756 Par ch=13 c=11 v=29
16764 Par ch=13 c=11 v=28
16776 Par ch=13 c=11 v=27
16784 Par ch=13 c=11 v=26
16796 Par ch=13 c=11 v=25
16808 Par ch=13 c=11 v=24
16816 Par ch=13 c=11 v=23
16819 On ch=13 n=72 v=0
16828 Par ch=13 c=11 v=22
16836 Par ch=13 c=11 v=21
16848 Par ch=13 c=11 v=20
16856 Par ch=13 c=11 v=19
16868 Par ch=13 c=11 v=18
16876 Par ch=13 c=11 v=17
16888 Par ch=13 c=11 v=16
17280 Par ch=13 c=11 v=64
17664 Par ch=13 c=11 v=64
17664 On ch=13 n=75 v=31
17664 On ch=13 n=63 v=31
17688 Par ch=13 c=11 v=63
17712 Par ch=13 c=11 v=62
17732 Par ch=13 c=11 v=61
17756 Par ch=13 c=11 v=60
17780 Par ch=13 c=11 v=59
17800 Par ch=13 c=11 v=58
17824 Par ch=13 c=11 v=57
17848 Par ch=13 c=11 v=56
17868 Par ch=13 c=11 v=55
17892 Par ch=13 c=11 v=54
17916 Par ch=13 c=11 v=53
17936 Par ch=13 c=11 v=52
17960 Par ch=13 c=11 v=51
17984 Par ch=13 c=11 v=50
18004 Par ch=13 c=11 v=49
18028 Par ch=13 c=11 v=48
18202 On ch=13 n=63 v=0
18202 On ch=13 n=75 v=0
18432 Par ch=13 c=11 v=64
28416 On ch=13 n=75 v=47
28570 On ch=13 n=75 v=0
28608 On ch=13 n=77 v=47
28723 On ch=13 n=77 v=0
28752 On ch=13 n=77 v=47
28783 On ch=13 n=77 v=0
28800 On ch=13 n=80 v=47
29030 On ch=13 n=80 v=0
29088 On ch=13 n=82 v=47
29126 On ch=13 n=82 v=0
29184 On ch=13 n=84 v=47
29222 On ch=13 n=84 v=0
30048 On ch=13 n=72 v=63
30069 On ch=13 n=72 v=0
30080 On ch=13 n=72 v=79
30101 On ch=13 n=72 v=0
30112 On ch=13 n=72 v=95
30133 On ch=13 n=72 v=0
30144 On ch=13 n=72 v=111
30192 Par ch=13 c=11 v=32
30298 On ch=13 n=72 v=0
30336 Par ch=13 c=11 v=64
30432 On ch=13 n=72 v=63
30453 On ch=13 n=72 v=0
30464 On ch=13 n=72 v=79
30485 On ch=13 n=72 v=0
30496 On ch=13 n=72 v=95
30517 On ch=13 n=72 v=0
30528 On ch=13 n=72 v=111
30576 Par ch=13 c=11 v=32
30682 On ch=13 n=72 v=0
30720 Par ch=13 c=11 v=64
30720 On ch=13 n=67 v=111
30874 On ch=13 n=67 v=0
30912 On ch=13 n=68 v=111
31027 On ch=13 n=68 v=0
31056 On ch=13 n=69 v=111
31087 On ch=13 n=69 v=0
31104 On ch=13 n=69 v=111
31142 On ch=13 n=69 v=0
31200 On ch=13 n=70 v=127
31354 On ch=13 n=70 v=0
31488 On ch=13 n=67 v=111
31642 On ch=13 n=67 v=0
31680 On ch=13 n=69 v=111
31795 On ch=13 n=69 v=0
31824 On ch=13 n=70 v=111
31862 On ch=13 n=70 v=0
31872 On ch=13 n=70 v=111
31910 On ch=13 n=70 v=0
31968 On ch=13 n=74 v=111
32122 On ch=13 n=74 v=0
32256 On ch=13 n=67 v=111
32410 On ch=13 n=67 v=0
32448 On ch=13 n=69 v=111
32525 On ch=13 n=69 v=0
32544 On ch=13 n=70 v=111
32582 On ch=13 n=70 v=0
32616 On ch=13 n=74 v=111
32635 On ch=13 n=74 v=0
32640 On ch=13 n=79 v=95
32794 On ch=13 n=79 v=0
32832 On ch=13 n=77 v=95
32947 On ch=13 n=77 v=0
32976 On ch=13 n=74 v=95
33007 On ch=13 n=74 v=0
33024 On ch=13 n=79 v=95
33178 On ch=13 n=79 v=0
33216 On ch=13 n=77 v=95
33331 On ch=13 n=77 v=0
33360 On ch=13 n=74 v=95
33391 On ch=13 n=74 v=0
33408 Par ch=13 c=11 v=64
33408 On ch=13 n=79 v=111
33408 On ch=13 n=75 v=111
33416 Par ch=13 c=11 v=63
33420 Par ch=13 c=11 v=62
33428 Par ch=13 c=11 v=61
33432 Par ch=13 c=11 v=60
33440 Par ch=13 c=11 v=59
33444 Par ch=13 c=11 v=58
33448 Par ch=13 c=11 v=57
33456 Par ch=13 c=11 v=56
33460 Par ch=13 c=11 v=55
33468 Par ch=13 c=11 v=54
33472 Par ch=13 c=11 v=53
33476 Par ch=13 c=11 v=52
33484 Par ch=13 c=11 v=51
33488 Par ch=13 c=11 v=50
33496 Par ch=13 c=11 v=49
33500 Par ch=13 c=11 v=48
33504 On ch=13 n=75 v=0
33504 On ch=13 n=79 v=0
33504 Par ch=13 c=11 v=48
33504 On ch=13 n=77 v=111
33504 On ch=13 n=74 v=111
33516 Par ch=13 c=11 v=49
33528 Par ch=13 c=11 v=50
33540 Par ch=13 c=11 v=51
33552 Par ch=13 c=11 v=52
33564 Par ch=13 c=11 v=53
33576 Par ch=13 c=11 v=54
33588 Par ch=13 c=11 v=55
33600 Par ch=13 c=11 v=56
33612 Par ch=13 c=11 v=57
33624 Par ch=13 c=11 v=58
33636 Par ch=13 c=11 v=59
33648 Par ch=13 c=11 v=60
33660 Par ch=13 c=11 v=61
33672 Par ch=13 c=11 v=62
33684 Par ch=13 c=11 v=63
33696 On ch=13 n=74 v=0
33696 On ch=13 n=77 v=0
33696 Par ch=13 c=11 v=64
33696 On ch=13 n=80 v=111
33696 On ch=13 n=77 v=111
33744 On ch=13 n=77 v=0
33744 On ch=13 n=80 v=0
33744 On ch=13 n=79 v=111
33744 On ch=13 n=75 v=111
33782 On ch=13 n=75 v=0
33782 On ch=13 n=79 v=0
33792 On ch=13 n=74 v=111
33792 On ch=13 n=77 v=111
33888 On ch=13 n=77 v=0
33888 On ch=13 n=74 v=0
33888 On ch=13 n=75 v=111
33888 On ch=13 n=72 v=111
33936 On ch=13 n=72 v=0
33936 On ch=13 n=75 v=0
33936 On ch=13 n=74 v=111
33936 On ch=13 n=70 v=111
33984 On ch=13 n=70 v=0
33984 On ch=13 n=74 v=0
33984 Par ch=13 c=11 v=64
33984 On ch=13 n=71 v=111
33984 On ch=13 n=67 v=111
33996 Par ch=13 c=11 v=65
34008 Par ch=13 c=11 v=66
34020 Par ch=13 c=11 v=67
34032 On ch=13 n=67 v=0
34032 On ch=13 n=71 v=0
34032 Par ch=13 c=11 v=68
34032 On ch=13 n=72 v=111
34032 On ch=13 n=68 v=111
34044 Par ch=13 c=11 v=69
34052 Par ch=13 c=11 v=70
34064 Par ch=13 c=11 v=71
34076 Par ch=13 c=11 v=72
34080 On ch=13 n=68 v=0
34080 On ch=13 n=72 v=0
34080 On ch=13 n=77 v=111
34080 On ch=13 n=74 v=111
34088 Par ch=13 c=11 v=73
34100 Par ch=13 c=11 v=74
34112 Par ch=13 c=11 v=75
34120 Par ch=13 c=11 v=76
34128 On ch=13 n=74 v=0
34128 On ch=13 n=77 v=0
34128 On ch=13 n=75 v=111
34128 On ch=13 n=72 v=111
34132 Par ch=13 c=11 v=77
34144 Par ch=13 c=11 v=78
34156 Par ch=13 c=11 v=79
34166 On ch=13 n=72 v=0
34166 On ch=13 n=75 v=0
34168 Par ch=13 c=11 v=80
34176 On ch=13 n=70 v=111
34176 On ch=13 n=74 v=111
34224 Par ch=13 c=11 v=32
34330 On ch=13 n=74 v=0
34330 On ch=13 n=70 v=0
34368 Par ch=13 c=11 v=64
34368 On ch=13 n=79 v=47
34372 Par ch=13 c=11 v=65
34376 Par ch=13 c=11 v=66
34380 Par ch=13 c=11 v=67
34384 Par ch=13 c=11 v=68
34388 Par ch=13 c=11 v=69
34392 Par ch=13 c=11 v=70
34396 Par ch=13 c=11 v=71
34400 Par ch=13 c=11 v=72
34404 Par ch=13 c=11 v=73
34408 Par ch=13 c=11 v=74
34412 Par ch=13 c=11 v=75
34416 Par ch=13 c=11 v=76
34420 Par ch=13 c=11 v=77
34424 Par ch=13 c=11 v=78
34428 Par ch=13 c=11 v=79
34432 Par ch=13 c=11 v=80
34436 Par ch=13 c=11 v=81
34440 Par ch=13 c=11 v=82
34444 Par ch=13 c=11 v=83
34448 Par ch=13 c=11 v=84
34452 Par ch=13 c=11 v=85
34456 Par ch=13 c=11 v=86
34460 Par ch=13 c=11 v=87
34464 Par ch=13 c=11 v=88
34468 Par ch=13 c=11 v=89
34472 Par ch=13 c=11 v=90
34476 Par ch=13 c=11 v=91
34480 Par ch=13 c=11 v=92
34484 Par ch=13 c=11 v=93
34488 Par ch=13 c=11 v=94
34492 Par ch=13 c=11 v=95
34496 Par ch=13 c=11 v=96
34500 Par ch=13 c=11 v=97
34504 Par ch=13 c=11 v=98
34508 Par ch=13 c=11 v=99
34512 Par ch=13 c=11 v=100
34516 Par ch=13 c=11 v=101
34520 Par ch=13 c=11 v=102
34524 Par ch=13 c=11 v=103
34528 Par ch=13 c=11 v=104
34532 Par ch=13 c=11 v=105
34536 Par ch=13 c=11 v=106
34540 Par ch=13 c=11 v=107
34544 Par ch=13 c=11 v=108
34548 Par ch=13 c=11 v=109
34552 Par ch=13 c=11 v=110
34556 Par ch=13 c=11 v=111
34560 Par ch=13 c=11 v=64
34591 On ch=13 n=79 v=0
34632 On ch=13 n=77 v=95
34648 On ch=13 n=77 v=0
34656 Par ch=13 c=11 v=64
34656 On ch=13 n=75 v=95
34664 Par ch=13 c=11 v=65
34668 Par ch=13 c=11 v=66
34676 Par ch=13 c=11 v=67
34680 Par ch=13 c=11 v=68
34687 On ch=13 n=75 v=0
34688 Par ch=13 c=11 v=69
34692 Par ch=13 c=11 v=70
34700 Par ch=13 c=11 v=71
34704 Par ch=13 c=11 v=72
34712 Par ch=13 c=11 v=73
34716 Par ch=13 c=11 v=74
34724 Par ch=13 c=11 v=75
34728 Par ch=13 c=11 v=76
34728 On ch=13 n=74 v=95
34736 Par ch=13 c=11 v=77
34740 Par ch=13 c=11 v=78
34744 On ch=13 n=74 v=0
34748 Par ch=13 c=11 v=79
34752 Par ch=13 c=11 v=80
34752 On ch=13 n=72 v=95
34756 Par ch=13 c=11 v=81
34764 Par ch=13 c=11 v=82
34768 Par ch=13 c=11 v=83
34776 Par ch=13 c=11 v=84
34780 Par ch=13 c=11 v=85
34783 On ch=13 n=72 v=0
34788 Par ch=13 c=11 v=86
34792 Par ch=13 c=11 v=87
34800 Par ch=13 c=11 v=88
34804 Par ch=13 c=11 v=89
34812 Par ch=13 c=11 v=90
34816 Par ch=13 c=11 v=91
34824 Par ch=13 c=11 v=92
34824 On ch=13 n=70 v=95
34828 Par ch=13 c=11 v=93
34836 Par ch=13 c=11 v=94
34840 On ch=13 n=70 v=0
34840 Par ch=13 c=11 v=95
34848 Par ch=13 c=11 v=96
34848 On ch=13 n=69 v=95
34852 Par ch=13 c=11 v=97
34856 Par ch=13 c=11 v=98
34864 Par ch=13 c=11 v=99
34868 Par ch=13 c=11 v=100
34876 Par ch=13 c=11 v=101
34879 On ch=13 n=69 v=0
34880 Par ch=13 c=11 v=102
34888 Par ch=13 c=11 v=103
34892 Par ch=13 c=11 v=104
34900 Par ch=13 c=11 v=105
34904 Par ch=13 c=11 v=106
34912 Par ch=13 c=11 v=107
34916 Par ch=13 c=11 v=108
34920 On ch=13 n=67 v=95
34924 Par ch=13 c=11 v=109
34928 Par ch=13 c=11 v=110
34936 On ch=13 n=67 v=0
34936 Par ch=13 c=11 v=111
34940 Par ch=13 c=11 v=112
34944 On ch=13 n=75 v=95
34992 Par ch=13 c=11 v=64
35000 Par ch=13 c=11 v=65
35008 Par ch=13 c=11 v=66
35016 Par ch=13 c=11 v=67
35020 Par ch=13 c=11 v=68
35028 Par ch=13 c=11 v=69
35036 Par ch=13 c=11 v=70
35040 Par ch=13 c=11 v=71
35048 Par ch=13 c=11 v=72
35056 Par ch=13 c=11 v=73
35064 Par ch=13 c=11 v=74
35068 Par ch=13 c=11 v=75
35076 Par ch=13 c=11 v=76
35084 Par ch=13 c=11 v=77
35088 Par ch=13 c=11 v=78
35096 Par ch=13 c=11 v=79
35104 Par ch=13 c=11 v=80
35112 Par ch=13 c=11 v=81
35116 Par ch=13 c=11 v=82
35124 Par ch=13 c=11 v=83
35132 Par ch=13 c=11 v=84
35136 Par ch=13 c=11 v=85
35144 Par ch=13 c=11 v=86
35152 Par ch=13 c=11 v=87
35160 Par ch=13 c=11 v=88
35164 Par ch=13 c=11 v=89
35172 Par ch=13 c=11 v=90
35180 Par ch=13 c=11 v=91
35184 Par ch=13 c=11 v=92
35192 Par ch=13 c=11 v=93
35200 Par ch=13 c=11 v=94
35208 Par ch=13 c=11 v=95
35212 Par ch=13 c=11 v=96
35220 Par ch=13 c=11 v=97
35228 Par ch=13 c=11 v=98
35232 Par ch=13 c=11 v=99
35240 Par ch=13 c=11 v=100
35248 Par ch=13 c=11 v=101
35256 Par ch=13 c=11 v=102
35260 Par ch=13 c=11 v=103
35268 Par ch=13 c=11 v=104
35276 Par ch=13 c=11 v=105
35280 Par ch=13 c=11 v=106
35288 Par ch=13 c=11 v=107
35296 Par ch=13 c=11 v=108
35304 Par ch=13 c=11 v=109
35308 Par ch=13 c=11 v=110
35316 Par ch=13 c=11 v=111
35324 Par ch=13 c=11 v=112
35328 Par ch=13 c=11 v=64
35359 On ch=13 n=75 v=0
35400 On ch=13 n=74 v=95
35416 On ch=13 n=74 v=0
35424 On ch=13 n=72 v=95
35455 On ch=13 n=72 v=0
35496 On ch=13 n=70 v=95
35512 On ch=13 n=70 v=0
35520 Par ch=13 c=11 v=64
35520 On ch=13 n=69 v=95
35532 Par ch=13 c=11 v=65
35544 Par ch=13 c=11 v=66
35551 On ch=13 n=69 v=0
35556 Par ch=13 c=11 v=67
35568 Par ch=13 c=11 v=68
35580 Par ch=13 c=11 v=69
35588 Par ch=13 c=11 v=70
35592 On ch=13 n=67 v=95
35600 Par ch=13 c=11 v=71
35608 On ch=13 n=67 v=0
35612 Par ch=13 c=11 v=72
35616 On ch=13 n=65 v=95
35624 Par ch=13 c=11 v=73
35636 Par ch=13 c=11 v=74
35647 On ch=13 n=65 v=0
35648 Par ch=13 c=11 v=75
35656 Par ch=13 c=11 v=76
35668 Par ch=13 c=11 v=77
35680 Par ch=13 c=11 v=78
35688 On ch=13 n=63 v=95
35692 Par ch=13 c=11 v=79
35704 On ch=13 n=63 v=0
35704 Par ch=13 c=11 v=80
35712 Par ch=13 c=11 v=64
35712 On ch=13 n=72 v=95
35760 Par ch=13 c=11 v=32
35942 On ch=13 n=72 v=0
36096 Par ch=13 c=11 v=64
39936 On ch=13 n=74 v=47
40090 On ch=13 n=74 v=0
40320 On ch=13 n=74 v=47
40474 On ch=13 n=74 v=0
40704 On ch=13 n=72 v=47
40858 On ch=13 n=72 v=0
41088 Par ch=13 c=11 v=64
41088 On ch=13 n=71 v=47
41092 Par ch=13 c=11 v=65
41096 Par ch=13 c=11 v=66
41100 Par ch=13 c=11 v=68
41104 Par ch=13 c=11 v=69
41108 Par ch=13 c=11 v=71
41112 Par ch=13 c=11 v=72
41116 Par ch=13 c=11 v=73
41120 Par ch=13 c=11 v=75
41124 Par ch=13 c=11 v=76
41128 Par ch=13 c=11 v=78
41132 Par ch=13 c=11 v=79
41136 Par ch=13 c=11 v=79
41140 Par ch=13 c=11 v=78
41144 Par ch=13 c=11 v=77
41148 Par ch=13 c=11 v=76
41152 Par ch=13 c=11 v=74
41156 Par ch=13 c=11 v=73
41160 Par ch=13 c=11 v=72
41164 Par ch=13 c=11 v=71
41168 Par ch=13 c=11 v=69
41172 Par ch=13 c=11 v=68
41176 Par ch=13 c=11 v=67
41180 Par ch=13 c=11 v=66
41184 On ch=13 n=71 v=0
41184 Par ch=13 c=11 v=64
41184 On ch=13 n=70 v=47
41414 On ch=13 n=70 v=0
41472 Par ch=13 c=11 v=64
41472 On ch=13 n=71 v=47
41476 Par ch=13 c=11 v=65
41480 Par ch=13 c=11 v=66
41484 Par ch=13 c=11 v=68
41488 Par ch=13 c=11 v=69
41492 Par ch=13 c=11 v=71
41496 Par ch=13 c=11 v=72
41500 Par ch=13 c=11 v=73
41504 Par ch=13 c=11 v=75
41508 Par ch=13 c=11 v=76
41512 Par ch=13 c=11 v=78
41516 Par ch=13 c=11 v=79
41520 Par ch=13 c=11 v=79
41524 Par ch=13 c=11 v=78
41528 Par ch=13 c=11 v=77
41532 Par ch=13 c=11 v=76
41536 Par ch=13 c=11 v=74
41540 Par ch=13 c=11 v=73
41544 Par ch=13 c=11 v=72
41548 Par ch=13 c=11 v=71
41552 Par ch=13 c=11 v=69
41556 Par ch=13 c=11 v=68
41560 Par ch=13 c=11 v=67
41564 Par ch=13 c=11 v=66
41568 On ch=13 n=71 v=0
41568 Par ch=13 c=11 v=64
41568 On ch=13 n=70 v=47
41798 On ch=13 n=70 v=0
48768 On ch=13 n=64 v=31
48768 On ch=13 n=76 v=31
48922 On ch=13 n=76 v=0
48922 On ch=13 n=64 v=0
48960 On ch=13 n=59 v=31
48960 On ch=13 n=71 v=31
49075 On ch=13 n=71 v=0
49075 On ch=13 n=59 v=0
49104 On ch=13 n=71 v=31
49104 On ch=13 n=59 v=31
49135 On ch=13 n=59 v=0
49135 On ch=13 n=71 v=0
49152 On ch=13 n=76 v=31
49152 On ch=13 n=64 v=31
49306 On ch=13 n=64 v=0
49306 On ch=13 n=76 v=0
49344 On ch=13 n=71 v=31
49344 On ch=13 n=59 v=31
49459 On ch=13 n=59 v=0
49459 On ch=13 n=71 v=0
49488 On ch=13 n=59 v=31
49488 On ch=13 n=71 v=31
49519 On ch=13 n=71 v=0
49519 On ch=13 n=59 v=0
64800 On ch=13 n=71 v=111
64831 On ch=13 n=71 v=0
64896 On ch=13 n=83 v=111
64896 On ch=13 n=71 v=111
65434 On ch=13 n=71 v=0
65434 On ch=13 n=83 v=0
65472 On ch=13 n=76 v=111
65472 On ch=13 n=64 v=111
65626 On ch=13 n=64 v=0
65626 On ch=13 n=76 v=0
66528 On ch=13 n=69 v=111
66720 On ch=13 n=69 v=0
66720 On ch=13 n=70 v=111
66741 On ch=13 n=70 v=0
66752 On ch=13 n=69 v=111
66773 On ch=13 n=69 v=0
66784 On ch=13 n=67 v=111
66805 On ch=13 n=67 v=0
66816 Par ch=13 c=11 v=64
66816 On ch=13 n=69 v=111
66824 Par ch=13 c=11 v=65
66828 Par ch=13 c=11 v=66
66836 Par ch=13 c=11 v=67
66840 Par ch=13 c=11 v=68
66847 On ch=13 n=69 v=0
66848 Par ch=13 c=11 v=69
66852 Par ch=13 c=11 v=70
66860 Par ch=13 c=11 v=71
66864 Par ch=13 c=11 v=72
66872 Par ch=13 c=11 v=73
66876 Par ch=13 c=11 v=74
66884 Par ch=13 c=11 v=75
66888 Par ch=13 c=11 v=76
66888 On ch=13 n=72 v=111
66896 Par ch=13 c=11 v=77
66900 Par ch=13 c=11 v=78
66904 On ch=13 n=72 v=0
66908 Par ch=13 c=11 v=79
66912 Par ch=13 c=11 v=80
66912 On ch=13 n=77 v=111
67037 On ch=13 n=77 v=0
67200 Par ch=13 c=11 v=64
68736 On ch=13 n=61 v=111
68890 On ch=13 n=61 v=0
68928 On ch=13 n=62 v=111
69043 On ch=13 n=62 v=0
69072 On ch=13 n=63 v=111
69103 On ch=13 n=63 v=0
69120 On ch=13 n=63 v=111
69151 On ch=13 n=63 v=0
69216 On ch=13 n=64 v=111
69370 On ch=13 n=64 v=0
69504 On ch=13 n=61 v=111
69658 On ch=13 n=61 v=0
69696 On ch=13 n=63 v=111
69811 On ch=13 n=63 v=0
69840 On ch=13 n=64 v=111
69871 On ch=13 n=64 v=0
69888 On ch=13 n=64 v=111
69919 On ch=13 n=64 v=0
69984 On ch=13 n=66 v=111
70138 On ch=13 n=66 v=0
70272 On ch=13 n=61 v=111
70426 On ch=13 n=61 v=0
70464 On ch=13 n=63 v=111
70541 On ch=13 n=63 v=0
70560 On ch=13 n=64 v=111
70591 On ch=13 n=64 v=0
70632 On ch=13 n=68 v=111
70648 On ch=13 n=68 v=0
70656 On ch=13 n=73 v=111
70694 On ch=13 n=73 v=0
72576 On ch=13 n=78 v=47
72730 On ch=13 n=78 v=0
72768 On ch=13 n=66 v=47
73267 On ch=13 n=66 v=0
73344 On ch=13 n=78 v=47
73498 On ch=13 n=78 v=0
73536 On ch=13 n=66 v=47
74035 On ch=13 n=66 v=0
74112 On ch=13 n=78 v=47
74266 On ch=13 n=78 v=0
74304 On ch=13 n=66 v=47
74419 On ch=13 n=66 v=0
74496 Par ch=13 c=0 v=0
74496 Par ch=13 c=32 v=0
74496 PrCh ch=13 p=59
74496 Par ch=13 c=11 v=64
74496 On ch=13 n=72 v=47
74512 Par ch=13 c=11 v=65
74524 Par ch=13 c=11 v=66
74536 Par ch=13 c=11 v=67
74548 Par ch=13 c=11 v=68
74560 Par ch=13 c=11 v=69
74572 Par ch=13 c=11 v=70
74584 Par ch=13 c=11 v=71
74596 Par ch=13 c=11 v=72
74608 Par ch=13 c=11 v=73
74620 Par ch=13 c=11 v=74
74632 Par ch=13 c=11 v=75
74644 Par ch=13 c=11 v=76
74656 Par ch=13 c=11 v=77
74668 Par ch=13 c=11 v=78
74680 Par ch=13 c=11 v=79
74688 On ch=13 n=72 v=0
74688 On ch=13 n=73 v=47
74692 Par ch=13 c=11 v=80
74704 Par ch=13 c=11 v=81
74716 Par ch=13 c=11 v=82
74728 Par ch=13 c=11 v=83
74740 Par ch=13 c=11 v=84
74752 Par ch=13 c=11 v=85
74768 Par ch=13 c=11 v=86
74780 Par ch=13 c=11 v=87
74792 Par ch=13 c=11 v=88
74804 Par ch=13 c=11 v=89
74816 Par ch=13 c=11 v=90
74828 Par ch=13 c=11 v=91
74840 Par ch=13 c=11 v=92
74842 On ch=13 n=73 v=0
74852 Par ch=13 c=11 v=93
74864 Par ch=13 c=11 v=94
74876 Par ch=13 c=11 v=95
74880 On ch=13 n=72 v=47
74888 Par ch=13 c=11 v=96
74900 Par ch=13 c=11 v=97
74912 Par ch=13 c=11 v=98
74924 Par ch=13 c=11 v=99
74936 Par ch=13 c=11 v=100
74948 Par ch=13 c=11 v=101
74960 Par ch=13 c=11 v=102
74972 Par ch=13 c=11 v=103
74984 Par ch=13 c=11 v=104
74996 Par ch=13 c=11 v=105
75008 Par ch=13 c=11 v=106
75024 Par ch=13 c=11 v=107
75036 Par ch=13 c=11 v=108
75048 Par ch=13 c=11 v=109
75060 Par ch=13 c=11 v=110
75072 On ch=13 n=72 v=0
75072 Par ch=13 c=11 v=111
75072 On ch=13 n=73 v=47
75084 Par ch=13 c=11 v=112
75096 Par ch=13 c=11 v=113
75108 Par ch=13 c=11 v=114
75120 Par ch=13 c=11 v=115
75132 Par ch=13 c=11 v=116
75144 Par ch=13 c=11 v=117
75156 Par ch=13 c=11 v=118
75168 Par ch=13 c=11 v=119
75180 Par ch=13 c=11 v=120
75192 Par ch=13 c=11 v=121
75204 Par ch=13 c=11 v=122
75216 Par ch=13 c=11 v=123
75226 On ch=13 n=73 v=0
75228 Par ch=13 c=11 v=124
75240 Par ch=13 c=11 v=125
75252 Par ch=13 c=11 v=126
75360 Par ch=13 c=0 v=0
75360 Par ch=13 c=32 v=0
75360 PrCh ch=13 p=56
75360 Par ch=13 c=11 v=64
75360 On ch=13 n=79 v=111
75360 On ch=13 n=74 v=111
75391 On ch=13 n=74 v=0
75391 On ch=13 n=79 v=0
75680 On ch=13 n=55 v=111
75701 On ch=13 n=55 v=0
75712 On ch=13 n=62 v=111
75733 On ch=13 n=62 v=0
75744 On ch=13 n=67 v=111
75765 On ch=13 n=67 v=0
75776 On ch=13 n=62 v=111
75797 On ch=13 n=62 v=0
75808 On ch=13 n=67 v=111
75829 On ch=13 n=67 v=0
75840 On ch=13 n=74 v=111
75861 On ch=13 n=74 v=0
75872 On ch=13 n=67 v=111
75893 On ch=13 n=67 v=0
75904 On ch=13 n=74 v=111
75925 On ch=13 n=74 v=0
75936 On ch=13 n=79 v=111
75957 On ch=13 n=79 v=0
75968 On ch=13 n=74 v=111
75989 On ch=13 n=74 v=0
76000 On ch=13 n=79 v=111
76021 On ch=13 n=79 v=0
76032 On ch=13 n=80 v=111
76186 On ch=13 n=80 v=0
76320 On ch=13 n=68 v=95
76358 On ch=13 n=68 v=0
76392 On ch=13 n=80 v=95
76408 On ch=13 n=80 v=0
76416 Par ch=13 c=11 v=64
76416 On ch=13 n=80 v=95
76440 Par ch=13 c=11 v=65
76464 Par ch=13 c=11 v=66
76488 Par ch=13 c=11 v=67
76493 On ch=13 n=80 v=0
76512 Par ch=13 c=11 v=68
76512 On ch=13 n=68 v=95
76536 Par ch=13 c=11 v=69
76550 On ch=13 n=68 v=0
76556 Par ch=13 c=11 v=70
76580 Par ch=13 c=11 v=71
76584 On ch=13 n=80 v=95
76600 On ch=13 n=80 v=0
76604 Par ch=13 c=11 v=72
76608 On ch=13 n=80 v=95
76628 Par ch=13 c=11 v=73
76652 Par ch=13 c=11 v=74
76672 Par ch=13 c=11 v=75
76685 On ch=13 n=80 v=0
76696 Par ch=13 c=11 v=76
76704 On ch=13 n=68 v=95
76720 Par ch=13 c=11 v=77
76742 On ch=13 n=68 v=0
76744 Par ch=13 c=11 v=78
76768 Par ch=13 c=11 v=79
76776 On ch=13 n=80 v=95
76792 On ch=13 n=80 v=0
76792 Par ch=13 c=11 v=80
76800 On ch=13 n=81 v=95
76812 Par ch=13 c=11 v=81
76836 Par ch=13 c=11 v=82
76860 Par ch=13 c=11 v=83
76884 Par ch=13 c=11 v=84
76908 Par ch=13 c=11 v=85
76928 Par ch=13 c=11 v=86
76952 Par ch=13 c=11 v=87
76976 Par ch=13 c=11 v=88
77000 Par ch=13 c=11 v=89
77024 Par ch=13 c=11 v=90
77030 On ch=13 n=81 v=0
77048 Par ch=13 c=11 v=91
77068 Par ch=13 c=11 v=92
77088 On ch=13 n=80 v=95
77092 Par ch=13 c=11 v=93
77116 Par ch=13 c=11 v=94
77140 Par ch=13 c=11 v=95
77164 Par ch=13 c=11 v=96
77165 On ch=13 n=80 v=0
77184 Par ch=13 c=11 v=97
77184 On ch=13 n=78 v=95
77192 Par ch=13 c=11 v=96
77200 Par ch=13 c=11 v=95
77208 Par ch=13 c=11 v=94
77216 Par ch=13 c=11 v=93
77224 Par ch=13 c=11 v=92
77232 Par ch=13 c=11 v=91
77240 Par ch=13 c=11 v=90
77248 Par ch=13 c=11 v=89
77256 Par ch=13 c=11 v=88
77261 On ch=13 n=78 v=0
77264 Par ch=13 c=11 v=87
77272 Par ch=13 c=11 v=86
77280 Par ch=13 c=11 v=85
77280 On ch=13 n=80 v=95
77284 Par ch=13 c=11 v=84
77292 Par ch=13 c=11 v=83
77300 Par ch=13 c=11 v=82
77308 Par ch=13 c=11 v=81
77316 Par ch=13 c=11 v=80
77318 On ch=13 n=80 v=0
77324 Par ch=13 c=11 v=79
77328 On ch=13 n=78 v=95
77332 Par ch=13 c=11 v=78
77340 Par ch=13 c=11 v=77
77348 Par ch=13 c=11 v=76
77356 Par ch=13 c=11 v=75
77364 Par ch=13 c=11 v=74
77366 On ch=13 n=78 v=0
77372 Par ch=13 c=11 v=73
77376 Par ch=13 c=11 v=72
77376 On ch=13 n=76 v=95
77384 Par ch=13 c=11 v=71
77392 Par ch=13 c=11 v=70
77400 Par ch=13 c=11 v=69
77408 Par ch=13 c=11 v=68
77416 Par ch=13 c=11 v=67
77424 Par ch=13 c=11 v=66
77432 Par ch=13 c=11 v=65
77440 Par ch=13 c=11 v=64
77448 Par ch=13 c=11 v=63
77453 On ch=13 n=76 v=0
77456 Par ch=13 c=11 v=62
77464 Par ch=13 c=11 v=61
77472 Par ch=13 c=11 v=60
77472 On ch=13 n=74 v=95
77476 Par ch=13 c=11 v=59
77484 Par ch=13 c=11 v=58
77492 Par ch=13 c=11 v=57
77500 Par ch=13 c=11 v=56
77508 Par ch=13 c=11 v=55
77516 Par ch=13 c=11 v=54
77524 Par ch=13 c=11 v=53
77532 Par ch=13 c=11 v=52
77540 Par ch=13 c=11 v=51
77548 Par ch=13 c=11 v=50
77549 On ch=13 n=74 v=0
77556 Par ch=13 c=11 v=49
77564 Par ch=13 c=11 v=48
77568 On ch=13 n=73 v=95
77645 On ch=13 n=73 v=0
77952 Par ch=13 c=11 v=64
79200 Par ch=13 c=0 v=0
79200 Par ch=13 c=32 v=0
79200 PrCh ch=13 p=59
79200 On ch=13 n=65 v=95
79221 On ch=13 n=65 v=0
79232 On ch=13 n=60 v=95
79253 On ch=13 n=60 v=0
79264 On ch=13 n=65 v=95
79285 On ch=13 n=65 v=0
79296 On ch=13 n=72 v=95
79421 On ch=13 n=72 v=0
79584 On ch=13 n=65 v=31
79605 On ch=13 n=65 v=0
79616 On ch=13 n=60 v=31
79637 On ch=13 n=60 v=0
79648 On ch=13 n=65 v=31
79669 On ch=13 n=65 v=0
79680 Par ch=13 c=11 v=64
79680 On ch=13 n=72 v=31
79692 Par ch=13 c=11 v=63
79704 Par ch=13 c=11 v=62
79716 Par ch=13 c=11 v=61
79728 Par ch=13 c=11 v=60
79740 Par ch=13 c=11 v=59
79748 Par ch=13 c=11 v=58
79760 Par ch=13 c=11 v=57
79772 Par ch=13 c=11 v=56
79784 Par ch=13 c=11 v=55
79796 Par ch=13 c=11 v=54
79805 On ch=13 n=72 v=0
79808 Par ch=13 c=11 v=53
79816 Par ch=13 c=11 v=52
79828 Par ch=13 c=11 v=51
79840 Par ch=13 c=11 v=50
79852 Par ch=13 c=11 v=49
79864 Par ch=13 c=11 v=48
79872 Par ch=13 c=0 v=0
79872 Par ch=13 c=32 v=0
79872 PrCh ch=13 p=56
79968 Par ch=13 c=11 v=64
87456 On ch=13 n=66 v=31
87487 On ch=13 n=66 v=0
87552 On ch=13 n=75 v=31
87706 On ch=13 n=75 v=0
87744 On ch=13 n=73 v=31
87859 On ch=13 n=73 v=0
87888 On ch=13 n=70 v=31
87926 On ch=13 n=70 v=0
87936 On ch=13 n=75 v=31
88032 On ch=13 n=75 v=0
88032 On ch=13 n=76 v=31
88186 On ch=13 n=76 v=0
88224 On ch=13 n=73 v=31
88262 On ch=13 n=73 v=0
88320 Par ch=13 c=11 v=64
88320 On ch=13 n=78 v=31
88368 Par ch=13 c=11 v=63
88412 Par ch=13 c=11 v=62
88456 Par ch=13 c=11 v=61
88504 Par ch=13 c=11 v=60
88548 Par ch=13 c=11 v=59
88592 Par ch=13 c=11 v=58
88640 Par ch=13 c=11 v=57
88684 Par ch=13 c=11 v=56
88728 Par ch=13 c=11 v=55
88772 Par ch=13 c=11 v=54
88820 Par ch=13 c=11 v=53
88864 Par ch=13 c=11 v=52
88908 Par ch=13 c=11 v=51
88956 Par ch=13 c=11 v=50
89000 Par ch=13 c=11 v=49
89044 Par ch=13 c=11 v=48
89165 On ch=13 n=78 v=0
89472 Par ch=13 c=11 v=64
100704 On ch=13 n=70 v=47
100896 On ch=13 n=70 v=0
100896 On ch=13 n=68 v=47
100992 On ch=13 n=68 v=0
100992 On ch=13 n=66 v=47
101184 On ch=13 n=66 v=0
101184 On ch=13 n=68 v=47
101280 On ch=13 n=68 v=0
101280 On ch=13 n=70 v=47
101376 On ch=13 n=70 v=0
101376 On ch=13 n=71 v=47
101568 On ch=13 n=71 v=0
101568 On ch=13 n=70 v=47
101664 On ch=13 n=70 v=0
101664 On ch=13 n=68 v=47
101712 On ch=13 n=68 v=0
101712 On ch=13 n=66 v=47
101760 On ch=13 n=66 v=0
101760 On ch=13 n=65 v=47
102067 On ch=13 n=65 v=0
102216 On ch=13 n=70 v=47
102232 On ch=13 n=70 v=0
102240 On ch=13 n=72 v=47
102271 On ch=13 n=72 v=0
102312 On ch=13 n=73 v=47
102328 On ch=13 n=73 v=0
102336 On ch=13 n=75 v=47
102559 On ch=13 n=75 v=0
102600 On ch=13 n=73 v=47
102616 On ch=13 n=73 v=0
102624 On ch=13 n=75 v=47
102655 On ch=13 n=75 v=0
102696 On ch=13 n=77 v=47
102712 On ch=13 n=77 v=0
102720 On ch=13 n=78 v=47
102950 On ch=13 n=78 v=0
103008 On ch=13 n=77 v=47
103200 On ch=13 n=77 v=0
103200 On ch=13 n=75 v=47
103248 On ch=13 n=75 v=0
103248 On ch=13 n=73 v=47
103296 On ch=13 n=73 v=0
103296 On ch=13 n=72 v=47
103392 On ch=13 n=72 v=0
103392 On ch=13 n=71 v=47
103584 On ch=13 n=71 v=0
103584 On ch=13 n=70 v=47
103632 On ch=13 n=70 v=0
103632 On ch=13 n=68 v=47
103680 On ch=13 n=68 v=0
103680 On ch=13 n=66 v=47
103718 On ch=13 n=66 v=0
106752 On ch=13 n=70 v=127
106906 On ch=13 n=70 v=0
107008 On ch=13 n=70 v=127
107029 On ch=13 n=70 v=0
107040 On ch=13 n=72 v=127
107061 On ch=13 n=72 v=0
107072 On ch=13 n=70 v=127
107093 On ch=13 n=70 v=0
107104 On ch=13 n=69 v=127
107125 On ch=13 n=69 v=0
107136 On ch=13 n=70 v=127
107167 On ch=13 n=70 v=0
107208 On ch=13 n=65 v=127
107224 On ch=13 n=65 v=0
107232 On ch=13 n=58 v=127
107263 On ch=13 n=58 v=0
107520 On ch=13 n=70 v=127
107674 On ch=13 n=70 v=0
107776 On ch=13 n=70 v=127
107797 On ch=13 n=70 v=0
107808 On ch=13 n=71 v=127
107829 On ch=13 n=71 v=0
107840 On ch=13 n=70 v=127
107861 On ch=13 n=70 v=0
107872 On ch=13 n=68 v=127
107893 On ch=13 n=68 v=0
107904 Par ch=13 c=11 v=64
107904 On ch=13 n=70 v=127
107912 Par ch=13 c=11 v=65
107916 Par ch=13 c=11 v=66
107924 Par ch=13 c=11 v=67
107928 Par ch=13 c=11 v=68
107935 On ch=13 n=70 v=0
107936 Par ch=13 c=11 v=69
107940 Par ch=13 c=11 v=70
107948 Par ch=13 c=11 v=71
107952 Par ch=13 c=11 v=72
107960 Par ch=13 c=11 v=73
107964 Par ch=13 c=11 v=74
107972 Par ch=13 c=11 v=75
107976 Par ch=13 c=11 v=76
107976 On ch=13 n=73 v=127
107984 Par ch=13 c=11 v=77
107988 Par ch=13 c=11 v=78
107992 On ch=13 n=73 v=0
107996 Par ch=13 c=11 v=79
108000 Par ch=13 c=11 v=80
108000 On ch=13 n=78 v=127
108152 On ch=13 n=78 v=0
108288 Par ch=13 c=11 v=64
108288 On ch=13 n=70 v=63
108440 On ch=13 n=70 v=0
108480 On ch=13 n=72 v=63
108632 On ch=13 n=72 v=0
108672 On ch=13 n=75 v=63
108824 On ch=13 n=75 v=0
109728 On ch=13 n=70 v=95
109805 On ch=13 n=70 v=0
109824 On ch=13 n=82 v=95
109978 On ch=13 n=82 v=0
110016 On ch=13 n=75 v=95
110285 On ch=13 n=75 v=0
110304 On ch=13 n=75 v=95
110304 On ch=13 n=77 v=95
110381 On ch=13 n=77 v=0
110381 On ch=13 n=75 v=0
110400 On ch=13 n=75 v=95
110400 On ch=13 n=79 v=95
110477 On ch=13 n=79 v=0
110477 On ch=13 n=75 v=0
110496 On ch=13 n=75 v=95
110496 On ch=13 n=80 v=95
110573 On ch=13 n=80 v=0
110573 On ch=13 n=75 v=0
110592 On ch=13 n=78 v=111
110746 On ch=13 n=78 v=0
110784 On ch=13 n=77 v=111
110938 On ch=13 n=77 v=0
110976 On ch=13 n=78 v=111
111130 On ch=13 n=78 v=0
111168 Par ch=13 c=11 v=64
111168 On ch=13 n=75 v=111
111176 Par ch=13 c=11 v=63
111184 Par ch=13 c=11 v=62
111192 Par ch=13 c=11 v=61
111200 Par ch=13 c=11 v=60
111208 Par ch=13 c=11 v=59
111216 Par ch=13 c=11 v=58
111224 Par ch=13 c=11 v=57
111232 Par ch=13 c=11 v=56
111240 Par ch=13 c=11 v=55
111248 Par ch=13 c=11 v=54
111256 Par ch=13 c=11 v=53
111264 Par ch=13 c=11 v=52
111272 Par ch=13 c=11 v=51
111280 Par ch=13 c=11 v=50
111288 Par ch=13 c=11 v=49
111296 Par ch=13 c=11 v=48
111304 Par ch=13 c=11 v=47
111312 Par ch=13 c=11 v=46
111320 Par ch=13 c=11 v=45
111328 Par ch=13 c=11 v=44
111336 Par ch=13 c=11 v=43
111344 Par ch=13 c=11 v=42
111352 Par ch=13 c=11 v=41
111360 Par ch=13 c=11 v=40
111364 Par ch=13 c=11 v=39
111372 Par ch=13 c=11 v=38
111380 Par ch=13 c=11 v=37
111388 Par ch=13 c=11 v=36
111396 Par ch=13 c=11 v=35
111404 Par ch=13 c=11 v=34
111412 Par ch=13 c=11 v=33
111420 Par ch=13 c=11 v=32
111428 Par ch=13 c=11 v=31
111436 Par ch=13 c=11 v=30
111444 Par ch=13 c=11 v=29
111452 Par ch=13 c=11 v=28
111460 Par ch=13 c=11 v=27
111468 Par ch=13 c=11 v=26
111476 Par ch=13 c=11 v=25
111484 Par ch=13 c=11 v=24
111492 Par ch=13 c=11 v=23
111500 Par ch=13 c=11 v=22
111508 Par ch=13 c=11 v=21
111514 On ch=13 n=75 v=0
111516 Par ch=13 c=11 v=20
111524 Par ch=13 c=11 v=19
111532 Par ch=13 c=11 v=18
111540 Par ch=13 c=11 v=17
111548 Par ch=13 c=11 v=16
111744 Par ch=13 c=11 v=64
111872 On ch=13 n=75 v=79
111872 On ch=13 n=63 v=79
111898 On ch=13 n=63 v=0
111898 On ch=13 n=75 v=0
111904 On ch=13 n=75 v=79
111904 On ch=13 n=63 v=79
111930 On ch=13 n=63 v=0
111930 On ch=13 n=75 v=0
111936 On ch=13 n=75 v=79
111936 On ch=13 n=63 v=79
111962 On ch=13 n=63 v=0
111962 On ch=13 n=75 v=0
111968 On ch=13 n=75 v=79
111968 On ch=13 n=63 v=79
111994 On ch=13 n=63 v=0
111994 On ch=13 n=75 v=0
112000 On ch=13 n=75 v=79
112000 On ch=13 n=63 v=79
112026 On ch=13 n=63 v=0
112026 On ch=13 n=75 v=0
112032 On ch=13 n=75 v=79
112032 On ch=13 n=63 v=79
112058 On ch=13 n=63 v=0
112058 On ch=13 n=75 v=0
112064 On ch=13 n=75 v=79
112064 On ch=13 n=63 v=79
112090 On ch=13 n=63 v=0
112090 On ch=13 n=75 v=0
112096 On ch=13 n=75 v=79
112096 On ch=13 n=63 v=79
112122 On ch=13 n=63 v=0
112122 On ch=13 n=75 v=0
112128 On ch=13 n=75 v=79
112128 On ch=13 n=63 v=79
112166 On ch=13 n=63 v=0
112166 On ch=13 n=75 v=0
112200 On ch=13 n=63 v=79
112200 On ch=13 n=75 v=79
112219 On ch=13 n=75 v=0
112219 On ch=13 n=63 v=0
112224 On ch=13 n=63 v=79
112224 On ch=13 n=75 v=79
112262 On ch=13 n=75 v=0
112262 On ch=13 n=63 v=0
112296 On ch=13 n=63 v=79
112296 On ch=13 n=75 v=79
112315 On ch=13 n=75 v=0
112315 On ch=13 n=63 v=0
112320 On ch=13 n=63 v=79
112320 On ch=13 n=75 v=79
112358 On ch=13 n=75 v=0
112358 On ch=13 n=63 v=0
112392 On ch=13 n=63 v=79
112392 On ch=13 n=75 v=79
112411 On ch=13 n=75 v=0
112411 On ch=13 n=63 v=0
112416 On ch=13 n=70 v=79
112416 On ch=13 n=58 v=79
112454 On ch=13 n=58 v=0
112454 On ch=13 n=70 v=0
112488 On ch=13 n=70 v=79
112488 On ch=13 n=58 v=79
112507 On ch=13 n=58 v=0
112507 On ch=13 n=70 v=0
112640 On ch=13 n=63 v=79
112640 On ch=13 n=75 v=79
112666 On ch=13 n=75 v=0
112666 On ch=13 n=63 v=0
112672 On ch=13 n=63 v=79
112672 On ch=13 n=75 v=79
112698 On ch=13 n=75 v=0
112698 On ch=13 n=63 v=0
112704 On ch=13 n=63 v=79
112704 On ch=13 n=75 v=79
112730 On ch=13 n=75 v=0
112730 On ch=13 n=63 v=0
112736 On ch=13 n=63 v=79
112736 On ch=13 n=75 v=79
112762 On ch=13 n=75 v=0
112762 On ch=13 n=63 v=0
112768 On ch=13 n=63 v=79
112768 On ch=13 n=75 v=79
112794 On ch=13 n=75 v=0
112794 On ch=13 n=63 v=0
112800 On ch=13 n=63 v=79
112800 On ch=13 n=75 v=79
112826 On ch=13 n=75 v=0
112826 On ch=13 n=63 v=0
112832 On ch=13 n=63 v=79
112832 On ch=13 n=75 v=79
112858 On ch=13 n=75 v=0
112858 On ch=13 n=63 v=0
112864 On ch=13 n=63 v=79
112864 On ch=13 n=75 v=79
112890 On ch=13 n=75 v=0
112890 On ch=13 n=63 v=0
112896 On ch=13 n=63 v=79
112896 On ch=13 n=75 v=79
112934 On ch=13 n=75 v=0
112934 On ch=13 n=63 v=0
112968 On ch=13 n=75 v=79
112968 On ch=13 n=63 v=79
112987 On ch=13 n=63 v=0
112987 On ch=13 n=75 v=0
112992 On ch=13 n=75 v=79
112992 On ch=13 n=63 v=79
113030 On ch=13 n=63 v=0
113030 On ch=13 n=75 v=0
113064 On ch=13 n=75 v=79
113064 On ch=13 n=63 v=79
113083 On ch=13 n=63 v=0
113083 On ch=13 n=75 v=0
113088 On ch=13 n=75 v=79
113088 On ch=13 n=63 v=79
113126 On ch=13 n=63 v=0
113126 On ch=13 n=75 v=0
113160 On ch=13 n=75 v=79
113160 On ch=13 n=63 v=79
113179 On ch=13 n=63 v=0
113179 On ch=13 n=75 v=0
113184 On ch=13 n=58 v=79
113184 On ch=13 n=70 v=79
113222 On ch=13 n=70 v=0
113222 On ch=13 n=58 v=0
113256 On ch=13 n=58 v=79
113256 On ch=13 n=70 v=79
113275 On ch=13 n=70 v=0
113275 On ch=13 n=58 v=0
113856 On ch=13 n=69 v=111
113933 On ch=13 n=69 v=0
113952 On ch=13 n=72 v=111
113978 On ch=13 n=72 v=0
113984 On ch=13 n=68 v=111
114010 On ch=13 n=68 v=0
114016 On ch=13 n=72 v=111
114042 On ch=13 n=72 v=0
114048 Par ch=13 c=11 v=64
114048 On ch=13 n=75 v=111
114072 Par ch=13 c=11 v=63
114096 Par ch=13 c=11 v=62
114116 Par ch=13 c=11 v=61
114140 Par ch=13 c=11 v=60
114144 On ch=13 n=75 v=0
114144 On ch=13 n=74 v=111
114164 Par ch=13 c=11 v=59
114184 Par ch=13 c=11 v=58
114208 Par ch=13 c=11 v=57
114232 Par ch=13 c=11 v=56
114252 Par ch=13 c=11 v=55
114276 Par ch=13 c=11 v=54
114288 On ch=13 n=74 v=0
114288 On ch=13 n=78 v=111
114300 Par ch=13 c=11 v=53
114320 Par ch=13 c=11 v=52
114336 On ch=13 n=78 v=0
114336 On ch=13 n=77 v=111
114344 Par ch=13 c=11 v=51
114368 Par ch=13 c=11 v=50
114384 On ch=13 n=77 v=0
114384 On ch=13 n=68 v=111
114388 Par ch=13 c=11 v=49
114412 Par ch=13 c=11 v=48
114432 On ch=13 n=68 v=0
114432 On ch=13 n=66 v=111
114470 On ch=13 n=66 v=0
114624 Par ch=13 c=11 v=64
114624 On ch=13 n=70 v=111
114624 On ch=13 n=66 v=111
114701 On ch=13 n=66 v=0
114701 On ch=13 n=70 v=0
114720 On ch=13 n=63 v=111
114720 On ch=13 n=66 v=111
114797 On ch=13 n=66 v=0
114797 On ch=13 n=63 v=0
114816 On ch=13 n=65 v=111
114816 On ch=13 n=61 v=111
114893 On ch=13 n=61 v=0
114893 On ch=13 n=65 v=0
114912 On ch=13 n=64 v=111
114912 On ch=13 n=59 v=111
114989 On ch=13 n=64 v=0
115008 On ch=13 n=63 v=111
115066 On ch=13 n=59 v=0
115085 On ch=13 n=63 v=0
115104 On ch=13 n=56 v=111
115104 On ch=13 n=62 v=111
115181 On ch=13 n=62 v=0
115181 On ch=13 n=56 v=0
115200 Par ch=13 c=11 v=64
115200 On ch=13 n=63 v=111
115216 Par ch=13 c=11 v=63
115226 On ch=13 n=63 v=0
115232 Par ch=13 c=11 v=62
115232 On ch=13 n=63 v=111
115248 Par ch=13 c=11 v=61
115258 On ch=13 n=63 v=0
115264 Par ch=13 c=11 v=60
115264 On ch=13 n=63 v=111
115280 Par ch=13 c=11 v=59
115290 On ch=13 n=63 v=0
115296 Par ch=13 c=11 v=58
115296 On ch=13 n=63 v=111
115312 Par ch=13 c=11 v=57
115322 On ch=13 n=63 v=0
115328 Par ch=13 c=11 v=56
115328 On ch=13 n=63 v=111
115344 Par ch=13 c=11 v=55
115354 On ch=13 n=63 v=0
115360 Par ch=13 c=11 v=54
115360 On ch=13 n=63 v=111
115376 Par ch=13 c=11 v=53
115386 On ch=13 n=63 v=0
115392 Par ch=13 c=11 v=52
115392 On ch=13 n=63 v=111
115408 Par ch=13 c=11 v=51
115418 On ch=13 n=63 v=0
115424 Par ch=13 c=11 v=50
115424 On ch=13 n=63 v=111
115440 Par ch=13 c=11 v=49
115450 On ch=13 n=63 v=0
115456 Par ch=13 c=11 v=48
115456 On ch=13 n=63 v=111
115482 On ch=13 n=63 v=0
115584 Par ch=13 c=11 v=64
115680 Par ch=13 c=11 v=64
115680 On ch=13 n=64 v=79
115692 Par ch=13 c=11 v=65
115700 Par ch=13 c=11 v=66
115708 Par ch=13 c=11 v=67
115716 Par ch=13 c=11 v=68
115724 Par ch=13 c=11 v=69
115736 Par ch=13 c=11 v=70
115744 Par ch=13 c=11 v=71
115752 Par ch=13 c=11 v=72
115757 On ch=13 n=64 v=0
115760 Par ch=13 c=11 v=73
115768 Par ch=13 c=11 v=74
115776 Par ch=13 c=11 v=75
115776 On ch=13 n=63 v=79
115788 Par ch=13 c=11 v=76
115796 Par ch=13 c=11 v=77
115804 Par ch=13 c=11 v=78
115812 Par ch=13 c=11 v=79
115820 Par ch=13 c=11 v=80
115832 Par ch=13 c=11 v=81
115840 Par ch=13 c=11 v=82
115848 Par ch=13 c=11 v=83
115853 On ch=13 n=63 v=0
115856 Par ch=13 c=11 v=84
115864 Par ch=13 c=11 v=85
115872 Par ch=13 c=11 v=86
115872 On ch=13 n=62 v=79
115884 Par ch=13 c=11 v=87
115892 Par ch=13 c=11 v=88
115900 Par ch=13 c=11 v=89
115908 Par ch=13 c=11 v=90
115916 Par ch=13 c=11 v=91
115928 Par ch=13 c=11 v=92
115936 Par ch=13 c=11 v=93
115944 Par ch=13 c=11 v=94
115949 On ch=13 n=62 v=0
115952 Par ch=13 c=11 v=95
115960 Par ch=13 c=11 v=96
115968 Par ch=13 c=11 v=64
115968 On ch=13 n=63 v=111
115984 Par ch=13 c=11 v=63
115994 On ch=13 n=63 v=0
116000 Par ch=13 c=11 v=62
116000 On ch=13 n=63 v=111
116016 Par ch=13 c=11 v=61
116026 On ch=13 n=63 v=0
116032 Par ch=13 c=11 v=60
116032 On ch=13 n=63 v=111
116048 Par ch=13 c=11 v=59
116058 On ch=13 n=63 v=0
116064 Par ch=13 c=11 v=58
116064 On ch=13 n=63 v=111
116080 Par ch=13 c=11 v=57
116090 On ch=13 n=63 v=0
116096 Par ch=13 c=11 v=56
116096 On ch=13 n=63 v=111
116112 Par ch=13 c=11 v=55
116122 On ch=13 n=63 v=0
116128 Par ch=13 c=11 v=54
116128 On ch=13 n=63 v=111
116144 Par ch=13 c=11 v=53
116154 On ch=13 n=63 v=0
116160 Par ch=13 c=11 v=52
116160 On ch=13 n=63 v=111
116176 Par ch=13 c=11 v=51
116186 On ch=13 n=63 v=0
116192 Par ch=13 c=11 v=50
116192 On ch=13 n=63 v=111
116208 Par ch=13 c=11 v=49
116218 On ch=13 n=63 v=0
116224 Par ch=13 c=11 v=48
116224 On ch=13 n=63 v=111
116250 On ch=13 n=63 v=0
116352 Par ch=13 c=11 v=64
116736 On ch=13 n=75 v=111
116890 On ch=13 n=75 v=0
116928 On ch=13 n=70 v=111
117043 On ch=13 n=70 v=0
117072 On ch=13 n=70 v=111
117110 On ch=13 n=70 v=0
117120 On ch=13 n=75 v=111
117274 On ch=13 n=75 v=0
117376 On ch=13 n=75 v=111
117397 On ch=13 n=75 v=0
117408 On ch=13 n=77 v=111
117429 On ch=13 n=77 v=0
117440 On ch=13 n=75 v=111
117461 On ch=13 n=75 v=0
117472 On ch=13 n=74 v=111
117493 On ch=13 n=74 v=0
117504 On ch=13 n=75 v=111
117535 On ch=13 n=75 v=0
117576 On ch=13 n=70 v=111
117592 On ch=13 n=70 v=0
117600 On ch=13 n=63 v=111
117631 On ch=13 n=63 v=0
117888 On ch=13 n=75 v=111
117919 On ch=13 n=75 v=0
117960 On ch=13 n=70 v=111
117976 On ch=13 n=70 v=0
117984 On ch=13 n=63 v=111
118015 On ch=13 n=63 v=0
118272 Par ch=13 c=11 v=64
118272 On ch=13 n=78 v=95
118272 On ch=13 n=75 v=95
118296 Par ch=13 c=11 v=63
118320 Par ch=13 c=11 v=62
118340 Par ch=13 c=11 v=61
118364 Par ch=13 c=11 v=60
118388 Par ch=13 c=11 v=59
118408 Par ch=13 c=11 v=58
118432 Par ch=13 c=11 v=57
118456 Par ch=13 c=11 v=56
118476 Par ch=13 c=11 v=55
118500 Par ch=13 c=11 v=54
118524 Par ch=13 c=11 v=53
118544 Par ch=13 c=11 v=52
118568 Par ch=13 c=11 v=51
118592 Par ch=13 c=11 v=50
118612 Par ch=13 c=11 v=49
118636 Par ch=13 c=11 v=48
119040 Par ch=13 c=11 v=48
119052 Par ch=13 c=11 v=49
119064 Par ch=13 c=11 v=50
119076 Par ch=13 c=11 v=51
119088 Par ch=13 c=11 v=52
119100 Par ch=13 c=11 v=53
119112 Par ch=13 c=11 v=54
119124 Par ch=13 c=11 v=55
119136 Par ch=13 c=11 v=56
119148 Par ch=13 c=11 v=57
119160 Par ch=13 c=11 v=58
119168 Par ch=13 c=11 v=59
119180 Par ch=13 c=11 v=60
119192 Par ch=13 c=11 v=61
119204 Par ch=13 c=11 v=62
119216 Par ch=13 c=11 v=63
119228 Par ch=13 c=11 v=64
119240 Par ch=13 c=11 v=65
119252 Par ch=13 c=11 v=66
119264 Par ch=13 c=11 v=67
119276 Par ch=13 c=11 v=68
119288 Par ch=13 c=11 v=69
119296 Par ch=13 c=11 v=70
119308 Par ch=13 c=11 v=71
119320 Par ch=13 c=11 v=72
119332 Par ch=13 c=11 v=73
119344 Par ch=13 c=11 v=74
119347 On ch=13 n=75 v=0
119347 On ch=13 n=78 v=0
119356 Par ch=13 c=11 v=75
119368 Par ch=13 c=11 v=76
119380 Par ch=13 c=11 v=77
119392 Par ch=13 c=11 v=78
119404 Par ch=13 c=11 v=79
119416 Par ch=13 c=11 v=80
119424 Par ch=13 c=11 v=80
119424 On ch=13 n=66 v=111
119424 On ch=13 n=63 v=111
119448 Par ch=13 c=11 v=79
119468 Par ch=13 c=11 v=78
119488 Par ch=13 c=11 v=77
119512 Par ch=13 c=11 v=76
119532 Par ch=13 c=11 v=75
119552 Par ch=13 c=11 v=74
119576 Par ch=13 c=11 v=73
119596 Par ch=13 c=11 v=72
119616 Par ch=13 c=11 v=71
119640 Par ch=13 c=11 v=70
119660 Par ch=13 c=11 v=69
119680 Par ch=13 c=11 v=68
119704 Par ch=13 c=11 v=67
119724 Par ch=13 c=11 v=66
119744 Par ch=13 c=11 v=65
119768 Par ch=13 c=11 v=64
119962 On ch=13 n=63 v=0
119962 On ch=13 n=66 v=0
120096 Par ch=13 c=11 v=64
120096 On ch=13 n=68 v=111
120096 On ch=13 n=63 v=111
120104 Par ch=13 c=11 v=63
120108 Par ch=13 c=11 v=62
120116 Par ch=13 c=11 v=61
120120 Par ch=13 c=11 v=60
120128 Par ch=13 c=11 v=59
120132 Par ch=13 c=11 v=58
120136 Par ch=13 c=11 v=57
120144 Par ch=13 c=11 v=56
120148 Par ch=13 c=11 v=55
120156 Par ch=13 c=11 v=54
120160 Par ch=13 c=11 v=53
120164 Par ch=13 c=11 v=52
120172 Par ch=13 c=11 v=51
120176 Par ch=13 c=11 v=50
120184 Par ch=13 c=11 v=49
120188 Par ch=13 c=11 v=48
120269 On ch=13 n=63 v=0
120269 On ch=13 n=68 v=0
120480 Par ch=13 c=11 v=64
120480 On ch=13 n=71 v=111
120480 On ch=13 n=68 v=111
120488 Par ch=13 c=11 v=63
120492 Par ch=13 c=11 v=62
120500 Par ch=13 c=11 v=61
120504 Par ch=13 c=11 v=60
120512 Par ch=13 c=11 v=59
120516 Par ch=13 c=11 v=58
120520 Par ch=13 c=11 v=57
120528 Par ch=13 c=11 v=56
120532 Par ch=13 c=11 v=55
120540 Par ch=13 c=11 v=54
120544 Par ch=13 c=11 v=53
120548 Par ch=13 c=11 v=52
120556 Par ch=13 c=11 v=51
120560 Par ch=13 c=11 v=50
120568 Par ch=13 c=11 v=49
120572 Par ch=13 c=11 v=48
120653 On ch=13 n=68 v=0
120653 On ch=13 n=71 v=0
120864 Par ch=13 c=11 v=64
120864 On ch=13 n=72 v=111
120864 On ch=13 n=69 v=111
120872 Par ch=13 c=11 v=63
120876 Par ch=13 c=11 v=62
120884 Par ch=13 c=11 v=61
120888 Par ch=13 c=11 v=60
120896 Par ch=13 c=11 v=59
120900 Par ch=13 c=11 v=58
120904 Par ch=13 c=11 v=57
120912 Par ch=13 c=11 v=56
120916 Par ch=13 c=11 v=55
120924 Par ch=13 c=11 v=54
120928 Par ch=13 c=11 v=53
120932 Par ch=13 c=11 v=52
120940 Par ch=13 c=11 v=51
120944 Par ch=13 c=11 v=50
120952 Par ch=13 c=11 v=49
120956 Par ch=13 c=11 v=48
121037 On ch=13 n=69 v=0
121037 On ch=13 n=72 v=0
121248 Par ch=13 c=11 v=64
121248 On ch=13 n=75 v=111
121279 On ch=13 n=75 v=0
121320 On ch=13 n=74 v=111
121336 On ch=13 n=74 v=0
121344 On ch=13 n=73 v=111
121375 On ch=13 n=73 v=0
121416 On ch=13 n=72 v=111
121432 On ch=13 n=72 v=0
121440 On ch=13 n=71 v=111
121471 On ch=13 n=71 v=0
121512 On ch=13 n=70 v=111
121528 On ch=13 n=70 v=0
121536 On ch=13 n=69 v=111
121567 On ch=13 n=69 v=0
121608 On ch=13 n=68 v=111
121624 On ch=13 n=68 v=0
121632 On ch=13 n=67 v=111
121663 On ch=13 n=67 v=0
121704 On ch=13 n=66 v=111
121720 On ch=13 n=66 v=0
122112 Par ch=13 c=11 v=64
122112 On ch=13 n=57 v=127
122112 On ch=13 n=69 v=127
122120 Par ch=13 c=11 v=63
122128 Par ch=13 c=11 v=62
122136 Par ch=13 c=11 v=61
122144 Par ch=13 c=11 v=60
122152 Par ch=13 c=11 v=59
122160 Par ch=13 c=11 v=58
122168 Par ch=13 c=11 v=57
122176 Par ch=13 c=11 v=56
122184 Par ch=13 c=11 v=55
122192 Par ch=13 c=11 v=54
122200 Par ch=13 c=11 v=53
122208 Par ch=13 c=11 v=52
122216 Par ch=13 c=11 v=51
122224 Par ch=13 c=11 v=50
122232 Par ch=13 c=11 v=49
122240 Par ch=13 c=11 v=48
122248 Par ch=13 c=11 v=47
122256 Par ch=13 c=11 v=46
122264 Par ch=13 c=11 v=45
122272 Par ch=13 c=11 v=44
122280 Par ch=13 c=11 v=43
122288 Par ch=13 c=11 v=42
122296 Par ch=13 c=11 v=41
122304 Par ch=13 c=11 v=40
122308 Par ch=13 c=11 v=39
122316 Par ch=13 c=11 v=38
122324 Par ch=13 c=11 v=37
122332 Par ch=13 c=11 v=36
122340 Par ch=13 c=11 v=35
122348 Par ch=13 c=11 v=34
122356 Par ch=13 c=11 v=33
122364 Par ch=13 c=11 v=32
122372 Par ch=13 c=11 v=31
122380 Par ch=13 c=11 v=30
122388 Par ch=13 c=11 v=29
122396 Par ch=13 c=11 v=28
122404 Par ch=13 c=11 v=27
122412 Par ch=13 c=11 v=26
122420 Par ch=13 c=11 v=25
122428 Par ch=13 c=11 v=24
122436 Par ch=13 c=11 v=23
122444 Par ch=13 c=11 v=22
122452 Par ch=13 c=11 v=21
122460 Par ch=13 c=11 v=20
122468 Par ch=13 c=11 v=19
122476 Par ch=13 c=11 v=18
122484 Par ch=13 c=11 v=17
122492 Par ch=13 c=11 v=16
122496 On ch=13 n=69 v=0
122496 On ch=13 n=57 v=0
122880 Par ch=13 c=11 v=64
122880 On ch=13 n=67 v=111
123034 On ch=13 n=67 v=0
123072 On ch=13 n=68 v=111
123187 On ch=13 n=68 v=0
123216 On ch=13 n=69 v=111
123247 On ch=13 n=69 v=0
123264 On ch=13 n=69 v=111
123295 On ch=13 n=69 v=0
123360 On ch=13 n=70 v=111
123475 On ch=13 n=70 v=0
123648 On ch=13 n=67 v=111
123802 On ch=13 n=67 v=0
123840 On ch=13 n=68 v=111
123917 On ch=13 n=68 v=0
123936 On ch=13 n=69 v=111
123994 On ch=13 n=69 v=0
124008 On ch=13 n=70 v=111
124024 On ch=13 n=70 v=0
124032 On ch=13 n=70 v=111
124063 On ch=13 n=70 v=0
124128 On ch=13 n=73 v=111
124243 On ch=13 n=73 v=0
124416 On ch=13 n=67 v=111
124570 On ch=13 n=67 v=0
124608 On ch=13 n=68 v=111
124685 On ch=13 n=68 v=0
124704 On ch=13 n=69 v=111
124730 On ch=13 n=69 v=0
124736 On ch=13 n=72 v=111
124762 On ch=13 n=72 v=0
124768 On ch=13 n=75 v=111
124794 On ch=13 n=75 v=0
124800 On ch=13 n=79 v=111
124800 On ch=13 n=75 v=111
124877 On ch=13 n=75 v=0
124877 On ch=13 n=79 v=0
124896 On ch=13 n=79 v=111
124896 On ch=13 n=75 v=111
124922 On ch=13 n=75 v=0
124922 On ch=13 n=79 v=0
124928 On ch=13 n=79 v=111
124928 On ch=13 n=75 v=111
124954 On ch=13 n=75 v=0
124954 On ch=13 n=79 v=0
124960 On ch=13 n=79 v=111
124960 On ch=13 n=75 v=111
124986 On ch=13 n=75 v=0
124986 On ch=13 n=79 v=0
124992 On ch=13 n=79 v=111
124992 On ch=13 n=75 v=111
125069 On ch=13 n=75 v=0
125069 On ch=13 n=79 v=0
125088 On ch=13 n=79 v=111
125088 On ch=13 n=75 v=111
125114 On ch=13 n=75 v=0
125114 On ch=13 n=79 v=0
125120 On ch=13 n=79 v=111
125120 On ch=13 n=75 v=111
125146 On ch=13 n=75 v=0
125146 On ch=13 n=79 v=0
125152 On ch=13 n=79 v=111
125152 On ch=13 n=75 v=111
125178 On ch=13 n=75 v=0
125178 On ch=13 n=79 v=0
125184 On ch=13 n=79 v=111
125184 On ch=13 n=75 v=111
125222 On ch=13 n=75 v=0
125222 On ch=13 n=79 v=0
125256 On ch=13 n=75 v=111
125256 On ch=13 n=79 v=111
125275 On ch=13 n=79 v=0
125275 On ch=13 n=75 v=0
125280 On ch=13 n=79 v=111
125280 On ch=13 n=75 v=111
125318 On ch=13 n=75 v=0
125318 On ch=13 n=79 v=0
125352 On ch=13 n=75 v=111
125352 On ch=13 n=79 v=111
125371 On ch=13 n=79 v=0
125371 On ch=13 n=75 v=0
125376 On ch=13 n=79 v=111
125376 On ch=13 n=75 v=111
125414 On ch=13 n=75 v=0
125414 On ch=13 n=79 v=0
125448 On ch=13 n=75 v=111
125448 On ch=13 n=79 v=111
125467 On ch=13 n=79 v=0
125467 On ch=13 n=75 v=0
125472 On ch=13 n=79 v=111
125472 On ch=13 n=75 v=111
125510 On ch=13 n=75 v=0
125510 On ch=13 n=79 v=0
125544 On ch=13 n=75 v=111
125544 On ch=13 n=79 v=111
125563 On ch=13 n=79 v=0
125563 On ch=13 n=75 v=0
125568 On ch=13 n=79 v=111
125568 On ch=13 n=75 v=111
125606 On ch=13 n=75 v=0
125606 On ch=13 n=79 v=0
125640 On ch=13 n=79 v=111
125640 On ch=13 n=75 v=111
125659 On ch=13 n=75 v=0
125659 On ch=13 n=79 v=0
125664 On ch=13 n=79 v=111
125664 On ch=13 n=75 v=111
125690 On ch=13 n=75 v=0
125690 On ch=13 n=79 v=0
125696 On ch=13 n=79 v=111
125696 On ch=13 n=75 v=111
125722 On ch=13 n=75 v=0
125722 On ch=13 n=79 v=0
125728 On ch=13 n=79 v=111
125728 On ch=13 n=75 v=111
125754 On ch=13 n=75 v=0
125754 On ch=13 n=79 v=0
125760 On ch=13 n=79 v=111
125760 On ch=13 n=75 v=111
125798 On ch=13 n=75 v=0
125798 On ch=13 n=79 v=0
125832 On ch=13 n=79 v=111
125832 On ch=13 n=75 v=111
125851 On ch=13 n=75 v=0
125851 On ch=13 n=79 v=0
125856 On ch=13 n=79 v=111
125856 On ch=13 n=75 v=111
125882 On ch=13 n=75 v=0
125882 On ch=13 n=79 v=0
125888 On ch=13 n=79 v=111
125888 On ch=13 n=75 v=111
125914 On ch=13 n=75 v=0
125914 On ch=13 n=79 v=0
125920 On ch=13 n=79 v=111
125920 On ch=13 n=75 v=111
125946 On ch=13 n=75 v=0
125946 On ch=13 n=79 v=0
125952 Par ch=13 c=11 v=64
125952 On ch=13 n=79 v=111
125952 On ch=13 n=75 v=111
125976 Par ch=13 c=11 v=65
125990 On ch=13 n=75 v=0
125990 On ch=13 n=79 v=0
126000 Par ch=13 c=11 v=66
126000 On ch=13 n=79 v=111
126000 On ch=13 n=75 v=111
126020 Par ch=13 c=11 v=67
126038 On ch=13 n=75 v=0
126038 On ch=13 n=79 v=0
126044 Par ch=13 c=11 v=68
126048 On ch=13 n=79 v=111
126048 On ch=13 n=75 v=111
126068 Par ch=13 c=11 v=69
126086 On ch=13 n=75 v=0
126086 On ch=13 n=79 v=0
126088 Par ch=13 c=11 v=70
126096 On ch=13 n=79 v=111
126096 On ch=13 n=75 v=111
126112 Par ch=13 c=11 v=71
126134 On ch=13 n=75 v=0
126134 On ch=13 n=79 v=0
126136 Par ch=13 c=11 v=72
126144 On ch=13 n=79 v=111
126144 On ch=13 n=75 v=111
126156 Par ch=13 c=11 v=73
126170 On ch=13 n=75 v=0
126170 On ch=13 n=79 v=0
126176 On ch=13 n=79 v=111
126176 On ch=13 n=75 v=111
126180 Par ch=13 c=11 v=74
126202 On ch=13 n=75 v=0
126202 On ch=13 n=79 v=0
126204 Par ch=13 c=11 v=75
126208 On ch=13 n=79 v=111
126208 On ch=13 n=75 v=111
126224 Par ch=13 c=11 v=76
126234 On ch=13 n=75 v=0
126234 On ch=13 n=79 v=0
126240 On ch=13 n=79 v=111
126240 On ch=13 n=75 v=111
126248 Par ch=13 c=11 v=77
126266 On ch=13 n=75 v=0
126266 On ch=13 n=79 v=0
126272 Par ch=13 c=11 v=78
126272 On ch=13 n=79 v=111
126272 On ch=13 n=75 v=111
126292 Par ch=13 c=11 v=79
126298 On ch=13 n=75 v=0
126298 On ch=13 n=79 v=0
126304 On ch=13 n=79 v=111
126304 On ch=13 n=75 v=111
126316 Par ch=13 c=11 v=80
126330 On ch=13 n=75 v=0
126330 On ch=13 n=79 v=0
126336 Par ch=13 c=11 v=64
126336 On ch=13 n=84 v=127
126336 On ch=13 n=79 v=127
126367 On ch=13 n=79 v=0
126367 On ch=13 n=84 v=0
126384 On ch=13 n=72 v=127
126415 On ch=13 n=72 v=0
130080 On ch=13 n=72 v=47
130118 On ch=13 n=72 v=0
130176 On ch=13 n=79 v=47
130330 On ch=13 n=79 v=0
130464 On ch=13 n=72 v=47
130495 On ch=13 n=72 v=0
130536 On ch=13 n=72 v=47
130552 On ch=13 n=72 v=0
130560 On ch=13 n=79 v=47
130637 On ch=13 n=79 v=0
130656 On ch=13 n=72 v=47
130687 On ch=13 n=72 v=0
130728 On ch=13 n=72 v=47
130744 On ch=13 n=72 v=0
130752 On ch=13 n=79 v=47
130829 On ch=13 n=79 v=0
130848 On ch=13 n=72 v=47
130879 On ch=13 n=72 v=0
130920 On ch=13 n=72 v=47
130936 On ch=13 n=72 v=0
130944 On ch=13 n=79 v=47
131098 On ch=13 n=79 v=0
131136 On ch=13 n=74 v=47
131290 On ch=13 n=74 v=0
131328 On ch=13 n=79 v=47
131482 On ch=13 n=79 v=0
131520 On ch=13 n=74 v=47
131674 On ch=13 n=74 v=0
131712 On ch=13 n=67 v=63
131712 On ch=13 n=79 v=63
132173 On ch=13 n=79 v=0
132173 On ch=13 n=67 v=0
132480 On ch=13 n=74 v=63
132480 On ch=13 n=62 v=63
132634 On ch=13 n=62 v=0
132634 On ch=13 n=74 v=0
132672 On ch=13 n=77 v=63
132672 On ch=13 n=65 v=63
132787 On ch=13 n=65 v=0
132787 On ch=13 n=77 v=0
132816 On ch=13 n=75 v=63
132816 On ch=13 n=63 v=63
132854 On ch=13 n=63 v=0
132854 On ch=13 n=75 v=0
132864 On ch=13 n=74 v=63
132864 On ch=13 n=62 v=63
133018 On ch=13 n=62 v=0
133018 On ch=13 n=74 v=0
133248 On ch=13 n=62 v=47
133248 On ch=13 n=74 v=47
133402 On ch=13 n=74 v=0
133402 On ch=13 n=62 v=0
133440 On ch=13 n=65 v=47
133440 On ch=13 n=77 v=47
133555 On ch=13 n=77 v=0
133555 On ch=13 n=65 v=0
133584 On ch=13 n=63 v=47
133584 On ch=13 n=75 v=47
133622 On ch=13 n=75 v=0
133622 On ch=13 n=63 v=0
133632 On ch=13 n=62 v=47
133632 On ch=13 n=74 v=47
133786 On ch=13 n=74 v=0
133786 On ch=13 n=62 v=0
134016 Par ch=13 c=11 v=64
134016 On ch=13 n=75 v=47
134016 On ch=13 n=63 v=47
134040 Par ch=13 c=11 v=65
134064 Par ch=13 c=11 v=66
134084 Par ch=13 c=11 v=67
134108 Par ch=13 c=11 v=68
134132 Par ch=13 c=11 v=69
134152 Par ch=13 c=11 v=70
134176 Par ch=13 c=11 v=71
134200 Par ch=13 c=11 v=72
134220 Par ch=13 c=11 v=73
134244 Par ch=13 c=11 v=74
134268 Par ch=13 c=11 v=75
134288 Par ch=13 c=11 v=76
134312 Par ch=13 c=11 v=77
134336 Par ch=13 c=11 v=78
134356 Par ch=13 c=11 v=79
134380 Par ch=13 c=11 v=80
134477 On ch=13 n=63 v=0
134477 On ch=13 n=75 v=0
134592 Par ch=13 c=11 v=64
134784 Par ch=13 c=11 v=64
134784 On ch=13 n=79 v=79
134784 On ch=13 n=67 v=79
134808 Par ch=13 c=11 v=65
134832 Par ch=13 c=11 v=66
134852 Par ch=13 c=11 v=67
134876 Par ch=13 c=11 v=68
134900 Par ch=13 c=11 v=69
134920 Par ch=13 c=11 v=70
134938 On ch=13 n=67 v=0
134938 On ch=13 n=79 v=0
134944 Par ch=13 c=11 v=71
134968 Par ch=13 c=11 v=72
134976 On ch=13 n=76 v=79
134976 On ch=13 n=64 v=79
134988 Par ch=13 c=11 v=73
135012 Par ch=13 c=11 v=74
135036 Par ch=13 c=11 v=75
135056 Par ch=13 c=11 v=76
135080 Par ch=13 c=11 v=77
135091 On ch=13 n=64 v=0
135091 On ch=13 n=76 v=0
135104 Par ch=13 c=11 v=78
135120 On ch=13 n=77 v=79
135120 On ch=13 n=65 v=79
135124 Par ch=13 c=11 v=79
135148 Par ch=13 c=11 v=80
135151 On ch=13 n=65 v=0
135151 On ch=13 n=77 v=0
135168 Par ch=13 c=11 v=64
135168 On ch=13 n=80 v=95
135168 On ch=13 n=68 v=95
135206 On ch=13 n=68 v=0
135206 On ch=13 n=80 v=0
135264 On ch=13 n=79 v=95
135264 On ch=13 n=67 v=95
135341 On ch=13 n=67 v=0
135341 On ch=13 n=79 v=0
135424 Par ch=13 c=11 v=64
135424 On ch=13 n=60 v=95
135432 Par ch=13 c=11 v=65
135440 Par ch=13 c=11 v=66
135445 On ch=13 n=60 v=0
135448 Par ch=13 c=11 v=67
135456 Par ch=13 c=11 v=68
135456 On ch=13 n=67 v=95
135464 Par ch=13 c=11 v=69
135472 Par ch=13 c=11 v=70
135477 On ch=13 n=67 v=0
135480 Par ch=13 c=11 v=71
135488 Par ch=13 c=11 v=72
135488 On ch=13 n=70 v=95
135492 Par ch=13 c=11 v=73
135500 Par ch=13 c=11 v=74
135508 Par ch=13 c=11 v=75
135509 On ch=13 n=70 v=0
135516 Par ch=13 c=11 v=76
135520 On ch=13 n=73 v=95
135524 Par ch=13 c=11 v=77
135532 Par ch=13 c=11 v=78
135540 Par ch=13 c=11 v=79
135541 On ch=13 n=73 v=0
135548 Par ch=13 c=11 v=80
135552 Par ch=13 c=11 v=64
135936 On ch=13 n=80 v=111
135967 On ch=13 n=80 v=0
136008 On ch=13 n=79 v=111
136024 On ch=13 n=79 v=0
136032 On ch=13 n=77 v=111
136063 On ch=13 n=77 v=0
136104 On ch=13 n=75 v=111
136120 On ch=13 n=75 v=0
136128 On ch=13 n=73 v=111
136159 On ch=13 n=73 v=0
136200 On ch=13 n=72 v=111
136216 On ch=13 n=72 v=0
136224 On ch=13 n=70 v=111
136255 On ch=13 n=70 v=0
136296 On ch=13 n=68 v=111
136312 On ch=13 n=68 v=0
136320 On ch=13 n=67 v=111
136474 On ch=13 n=67 v=0
136512 On ch=13 n=68 v=111
136589 On ch=13 n=68 v=0
136608 On ch=13 n=69 v=111
136685 On ch=13 n=69 v=0
136704 On ch=13 n=70 v=111
136858 On ch=13 n=70 v=0
136896 Par ch=13 c=11 v=64
136896 On ch=13 n=71 v=111
136904 On ch=13 n=71 v=0
136904 On ch=13 n=72 v=111
136908 Par ch=13 c=11 v=65
136912 On ch=13 n=72 v=0
136912 On ch=13 n=71 v=111
136920 On ch=13 n=71 v=0
136920 Par ch=13 c=11 v=66
136920 On ch=13 n=72 v=111
136928 On ch=13 n=72 v=0
136928 On ch=13 n=71 v=111
136932 Par ch=13 c=11 v=67
136936 On ch=13 n=71 v=0
136936 On ch=13 n=72 v=111
136944 On ch=13 n=72 v=0
136944 Par ch=13 c=11 v=68
136944 On ch=13 n=71 v=111
136952 On ch=13 n=71 v=0
136952 On ch=13 n=72 v=111
136956 Par ch=13 c=11 v=69
136960 On ch=13 n=72 v=0
136960 On ch=13 n=71 v=111
136964 Par ch=13 c=11 v=70
136968 On ch=13 n=71 v=0
136968 On ch=13 n=72 v=111
136976 On ch=13 n=72 v=0
136976 Par ch=13 c=11 v=71
136976 On ch=13 n=71 v=111
136984 On ch=13 n=71 v=0
136984 On ch=13 n=72 v=111
136988 Par ch=13 c=11 v=72
136992 On ch=13 n=72 v=0
136992 On ch=13 n=71 v=111
137000 On ch=13 n=71 v=0
137000 Par ch=13 c=11 v=73
137000 On ch=13 n=72 v=111
137008 On ch=13 n=72 v=0
137008 On ch=13 n=71 v=111
137012 Par ch=13 c=11 v=74
137016 On ch=13 n=71 v=0
137016 On ch=13 n=72 v=111
137024 On ch=13 n=72 v=0
137024 Par ch=13 c=11 v=75
137024 On ch=13 n=71 v=111
137032 On ch=13 n=71 v=0
137032 Par ch=13 c=11 v=76
137032 On ch=13 n=72 v=111
137040 On ch=13 n=72 v=0
137040 On ch=13 n=71 v=111
137044 Par ch=13 c=11 v=77
137048 On ch=13 n=71 v=0
137048 On ch=13 n=72 v=111
137056 On ch=13 n=72 v=0
137056 Par ch=13 c=11 v=78
137056 On ch=13 n=71 v=111
137064 On ch=13 n=71 v=0
137064 On ch=13 n=69 v=111
137068 Par ch=13 c=11 v=79
137072 On ch=13 n=69 v=0
137072 On ch=13 n=71 v=111
137080 On ch=13 n=71 v=0
137080 Par ch=13 c=11 v=80
137088 Par ch=13 c=11 v=64
137088 On ch=13 n=72 v=127
137126 On ch=13 n=72 v=0
140544 Par ch=13 c=11 v=64
140544 On ch=13 n=73 v=47
140556 Par ch=13 c=11 v=65
140564 Par ch=13 c=11 v=66
140572 Par ch=13 c=11 v=67
140580 Par ch=13 c=11 v=68
140588 Par ch=13 c=11 v=69
140596 Par ch=13 c=11 v=70
140604 Par ch=13 c=11 v=71
140612 Par ch=13 c=11 v=72
140624 Par ch=13 c=11 v=73
140632 Par ch=13 c=11 v=74
140640 Par ch=13 c=11 v=75
140648 Par ch=13 c=11 v=76
140656 Par ch=13 c=11 v=77
140664 Par ch=13 c=11 v=78
140672 Par ch=13 c=11 v=79
140680 Par ch=13 c=11 v=80
140688 Par ch=13 c=11 v=80
140700 Par ch=13 c=11 v=79
140708 Par ch=13 c=11 v=78
140716 Par ch=13 c=11 v=77
140724 Par ch=13 c=11 v=76
140736 Par ch=13 c=11 v=75
140744 Par ch=13 c=11 v=74
140752 Par ch=13 c=11 v=73
140760 Par ch=13 c=11 v=72
140772 Par ch=13 c=11 v=71
140774 On ch=13 n=73 v=0
140780 Par ch=13 c=11 v=70
140788 Par ch=13 c=11 v=69
140796 Par ch=13 c=11 v=68
140808 Par ch=13 c=11 v=67
140816 Par ch=13 c=11 v=66
140824 Par ch=13 c=11 v=65
140832 Par ch=13 c=11 v=64
140832 On ch=13 n=64 v=47
140904 On ch=13 n=64 v=0
140904 On ch=13 n=73 v=47
140923 On ch=13 n=73 v=0
140928 Par ch=13 c=11 v=64
140928 On ch=13 n=73 v=47
140940 Par ch=13 c=11 v=65
140948 Par ch=13 c=11 v=66
140956 Par ch=13 c=11 v=67
140964 Par ch=13 c=11 v=68
140972 Par ch=13 c=11 v=69
140980 Par ch=13 c=11 v=70
140988 Par ch=13 c=11 v=71
140996 Par ch=13 c=11 v=72
141008 Par ch=13 c=11 v=73
141016 Par ch=13 c=11 v=74
141024 Par ch=13 c=11 v=75
141032 Par ch=13 c=11 v=76
141040 Par ch=13 c=11 v=77
141048 Par ch=13 c=11 v=78
141056 Par ch=13 c=11 v=79
141064 Par ch=13 c=11 v=80
141072 Par ch=13 c=11 v=80
141084 Par ch=13 c=11 v=79
141092 Par ch=13 c=11 v=78
141100 Par ch=13 c=11 v=77
141108 Par ch=13 c=11 v=76
141120 Par ch=13 c=11 v=75
141128 Par ch=13 c=11 v=74
141136 Par ch=13 c=11 v=73
141144 Par ch=13 c=11 v=72
141156 Par ch=13 c=11 v=71
141158 On ch=13 n=73 v=0
141164 Par ch=13 c=11 v=70
141172 Par ch=13 c=11 v=69
141180 Par ch=13 c=11 v=68
141192 Par ch=13 c=11 v=67
141200 Par ch=13 c=11 v=66
141208 Par ch=13 c=11 v=65
141216 Par ch=13 c=11 v=64
141216 On ch=13 n=64 v=47
141288 On ch=13 n=64 v=0
141288 On ch=13 n=73 v=47
141307 On ch=13 n=73 v=0
141312 On ch=13 n=73 v=47
141466 On ch=13 n=73 v=0
153216 On ch=13 n=72 v=31
153370 On ch=13 n=72 v=0
153408 On ch=13 n=71 v=31
153523 On ch=13 n=71 v=0
153552 On ch=13 n=67 v=31
153583 On ch=13 n=67 v=0
153600 On ch=13 n=72 v=31
153754 On ch=13 n=72 v=0
153792 On ch=13 n=71 v=31
153907 On ch=13 n=71 v=0
153936 On ch=13 n=67 v=31
153967 On ch=13 n=67 v=0
153984 On ch=13 n=72 v=31
154015 On ch=13 n=72 v=0
155136 On ch=13 n=67 v=47
155290 On ch=13 n=67 v=0
155328 On ch=13 n=70 v=47
155443 On ch=13 n=70 v=0
155472 On ch=13 n=68 v=47
155503 On ch=13 n=68 v=0
155520 On ch=13 n=67 v=47
155674 On ch=13 n=67 v=0
155712 On ch=13 n=70 v=47
155827 On ch=13 n=70 v=0
155856 On ch=13 n=68 v=47
155887 On ch=13 n=68 v=0
155904 On ch=13 n=67 v=63
155981 On ch=13 n=67 v=0
156000 On ch=13 n=72 v=63
156058 On ch=13 n=72 v=0
156072 On ch=13 n=70 v=63
156091 On ch=13 n=70 v=0
156096 On ch=13 n=67 v=63
156211 On ch=13 n=67 v=0
156240 On ch=13 n=65 v=63
156271 On ch=13 n=65 v=0
156288 On ch=13 n=67 v=63
156319 On ch=13 n=67 v=0
156360 On ch=13 n=72 v=63
156376 On ch=13 n=72 v=0
156384 On ch=13 n=79 v=63
156509 On ch=13 n=79 v=0
156576 On ch=13 n=67 v=63
156597 On ch=13 n=67 v=0
156608 On ch=13 n=72 v=63
156629 On ch=13 n=72 v=0
156640 On ch=13 n=79 v=63
156661 On ch=13 n=79 v=0
156672 On ch=13 n=74 v=63
156859 On ch=13 n=74 v=0
156960 On ch=13 n=67 v=63
156981 On ch=13 n=67 v=0
156992 On ch=13 n=72 v=63
157013 On ch=13 n=72 v=0
157024 On ch=13 n=79 v=63
157045 On ch=13 n=79 v=0
157056 On ch=13 n=74 v=63
157440 Par ch=13 c=11 v=64
157460 Par ch=13 c=11 v=63
157476 Par ch=13 c=11 v=62
157496 Par ch=13 c=11 v=61
157512 Par ch=13 c=11 v=60
157532 Par ch=13 c=11 v=59
157548 Par ch=13 c=11 v=58
157568 Par ch=13 c=11 v=57
157584 Par ch=13 c=11 v=56
157604 Par ch=13 c=11 v=55
157620 Par ch=13 c=11 v=54
157640 Par ch=13 c=11 v=53
157656 Par ch=13 c=11 v=52
157670 On ch=13 n=74 v=0
157676 Par ch=13 c=11 v=51
157692 Par ch=13 c=11 v=50
157712 Par ch=13 c=11 v=49
157728 Par ch=13 c=11 v=48
157728 On ch=13 n=72 v=63
157754 On ch=13 n=72 v=0
157760 On ch=13 n=74 v=63
157786 On ch=13 n=74 v=0
157792 On ch=13 n=72 v=63
157818 On ch=13 n=72 v=0
157824 Par ch=13 c=11 v=64
157824 On ch=13 n=71 v=63
157828 Par ch=13 c=11 v=65
157832 Par ch=13 c=11 v=66
157836 Par ch=13 c=11 v=68
157840 Par ch=13 c=11 v=69
157844 Par ch=13 c=11 v=71
157848 Par ch=13 c=11 v=72
157852 Par ch=13 c=11 v=73
157856 Par ch=13 c=11 v=75
157860 Par ch=13 c=11 v=76
157864 Par ch=13 c=11 v=78
157868 Par ch=13 c=11 v=79
157872 Par ch=13 c=11 v=79
157876 Par ch=13 c=11 v=78
157880 Par ch=13 c=11 v=77
157884 Par ch=13 c=11 v=76
157888 Par ch=13 c=11 v=74
157892 Par ch=13 c=11 v=73
157896 Par ch=13 c=11 v=72
157900 Par ch=13 c=11 v=71
157904 Par ch=13 c=11 v=69
157908 Par ch=13 c=11 v=68
157912 Par ch=13 c=11 v=67
157916 Par ch=13 c=11 v=66
157920 Par ch=13 c=11 v=64
158054 On ch=13 n=71 v=0
158112 On ch=13 n=68 v=63
158138 On ch=13 n=68 v=0
158144 On ch=13 n=70 v=63
158170 On ch=13 n=70 v=0
158176 On ch=13 n=68 v=63
158202 On ch=13 n=68 v=0
158208 On ch=13 n=67 v=63
158362 On ch=13 n=67 v=0
159744 Par ch=13 c=11 v=64
159744 On ch=13 n=74 v=79
159760 Par ch=13 c=11 v=65
159772 Par ch=13 c=11 v=66
159784 Par ch=13 c=11 v=67
159796 Par ch=13 c=11 v=68
159808 Par ch=13 c=11 v=69
159820 Par ch=13 c=11 v=70
159832 Par ch=13 c=11 v=71
159844 Par ch=13 c=11 v=72
159856 Par ch=13 c=11 v=73
159868 Par ch=13 c=11 v=74
159880 Par ch=13 c=11 v=75
159892 Par ch=13 c=11 v=76
159904 Par ch=13 c=11 v=77
159916 Par ch=13 c=11 v=78
159928 Par ch=13 c=11 v=79
159940 Par ch=13 c=11 v=80
159952 Par ch=13 c=11 v=81
159964 Par ch=13 c=11 v=82
159974 On ch=13 n=74 v=0
159976 Par ch=13 c=11 v=83
159988 Par ch=13 c=11 v=84
160000 Par ch=13 c=11 v=85
160016 Par ch=13 c=11 v=86
160028 Par ch=13 c=11 v=87
160032 On ch=13 n=72 v=79
160040 Par ch=13 c=11 v=88
160052 Par ch=13 c=11 v=89
160064 Par ch=13 c=11 v=90
160070 On ch=13 n=72 v=0
160076 Par ch=13 c=11 v=91
160080 On ch=13 n=71 v=79
160088 Par ch=13 c=11 v=92
160100 Par ch=13 c=11 v=93
160112 Par ch=13 c=11 v=94
160118 On ch=13 n=71 v=0
160124 Par ch=13 c=11 v=95
160128 On ch=13 n=65 v=79
160128 On ch=13 n=77 v=79
160136 Par ch=13 c=11 v=96
160148 Par ch=13 c=11 v=97
160160 Par ch=13 c=11 v=98
160172 Par ch=13 c=11 v=99
160184 Par ch=13 c=11 v=100
160196 Par ch=13 c=11 v=101
160208 Par ch=13 c=11 v=102
160220 Par ch=13 c=11 v=103
160232 Par ch=13 c=11 v=104
160244 Par ch=13 c=11 v=105
160256 Par ch=13 c=11 v=106
160272 Par ch=13 c=11 v=107
160284 Par ch=13 c=11 v=108
160296 Par ch=13 c=11 v=109
160308 Par ch=13 c=11 v=110
160320 Par ch=13 c=11 v=111
160332 Par ch=13 c=11 v=112
160344 Par ch=13 c=11 v=113
160356 Par ch=13 c=11 v=114
160358 On ch=13 n=77 v=0
160358 On ch=13 n=65 v=0
160368 Par ch=13 c=11 v=115
160380 Par ch=13 c=11 v=116
160392 Par ch=13 c=11 v=117
160404 Par ch=13 c=11 v=118
160416 Par ch=13 c=11 v=119
160416 On ch=13 n=63 v=79
160416 On ch=13 n=75 v=79
160428 Par ch=13 c=11 v=120
160440 Par ch=13 c=11 v=121
160452 Par ch=13 c=11 v=122
160454 On ch=13 n=75 v=0
160454 On ch=13 n=63 v=0
160464 Par ch=13 c=11 v=123
160464 On ch=13 n=62 v=79
160464 On ch=13 n=74 v=79
160476 Par ch=13 c=11 v=124
160488 Par ch=13 c=11 v=125
160500 Par ch=13 c=11 v=126
160502 On ch=13 n=74 v=0
160502 On ch=13 n=62 v=0
160512 Par ch=13 c=11 v=126
160512 On ch=13 n=60 v=63
160512 On ch=13 n=79 v=63
160524 Par ch=13 c=11 v=125
160536 Par ch=13 c=11 v=124
160548 Par ch=13 c=11 v=123
160556 Par ch=13 c=11 v=122
160568 Par ch=13 c=11 v=121
160580 Par ch=13 c=11 v=120
160588 Par ch=13 c=11 v=119
160589 On ch=13 n=60 v=0
160600 Par ch=13 c=11 v=118
160612 Par ch=13 c=11 v=117
160624 Par ch=13 c=11 v=116
160632 Par ch=13 c=11 v=115
160644 Par ch=13 c=11 v=114
160656 Par ch=13 c=11 v=113
160664 Par ch=13 c=11 v=112
160676 Par ch=13 c=11 v=111
160688 Par ch=13 c=11 v=110
160700 Par ch=13 c=11 v=109
160708 Par ch=13 c=11 v=108
160720 Par ch=13 c=11 v=107
160732 Par ch=13 c=11 v=106
160740 Par ch=13 c=11 v=105
160752 Par ch=13 c=11 v=104
160764 Par ch=13 c=11 v=103
160776 Par ch=13 c=11 v=102
160784 Par ch=13 c=11 v=101
160796 Par ch=13 c=11 v=100
160800 On ch=13 n=79 v=0
160800 On ch=13 n=80 v=63
160808 Par ch=13 c=11 v=99
160816 Par ch=13 c=11 v=98
160828 Par ch=13 c=11 v=97
160840 Par ch=13 c=11 v=96
160848 Par ch=13 c=11 v=95
160860 Par ch=13 c=11 v=94
160872 Par ch=13 c=11 v=93
160877 On ch=13 n=80 v=0
160884 Par ch=13 c=11 v=92
160892 Par ch=13 c=11 v=91
160896 On ch=13 n=79 v=63
160904 Par ch=13 c=11 v=90
160916 Par ch=13 c=11 v=89
160924 Par ch=13 c=11 v=88
160936 Par ch=13 c=11 v=87
160948 Par ch=13 c=11 v=86
160960 Par ch=13 c=11 v=85
160968 Par ch=13 c=11 v=84
160980 Par ch=13 c=11 v=83
160992 Par ch=13 c=11 v=82
161000 Par ch=13 c=11 v=81
161012 Par ch=13 c=11 v=80
161024 Par ch=13 c=11 v=79
161036 Par ch=13 c=11 v=78
161044 Par ch=13 c=11 v=77
161056 Par ch=13 c=11 v=76
161068 Par ch=13 c=11 v=75
161076 Par ch=13 c=11 v=74
161088 Par ch=13 c=11 v=73
161100 Par ch=13 c=11 v=72
161112 Par ch=13 c=11 v=71
161120 Par ch=13 c=11 v=70
161132 Par ch=13 c=11 v=69
161144 Par ch=13 c=11 v=68
161152 Par ch=13 c=11 v=67
161164 Par ch=13 c=11 v=66
161176 Par ch=13 c=11 v=65
161184 On ch=13 n=79 v=0
161184 Par ch=13 c=11 v=64
161184 On ch=13 n=80 v=63
161261 On ch=13 n=80 v=0
161280 Par ch=13 c=11 v=64
161280 On ch=13 n=79 v=47
161304 Par ch=13 c=11 v=63
161328 Par ch=13 c=11 v=62
161348 Par ch=13 c=11 v=61
161372 Par ch=13 c=11 v=60
161396 Par ch=13 c=11 v=59
161416 Par ch=13 c=11 v=58
161440 Par ch=13 c=11 v=57
161464 Par ch=13 c=11 v=56
161484 Par ch=13 c=11 v=55
161508 Par ch=13 c=11 v=54
161532 Par ch=13 c=11 v=53
161552 Par ch=13 c=11 v=52
161576 Par ch=13 c=11 v=51
161600 Par ch=13 c=11 v=50
161620 Par ch=13 c=11 v=49
161644 Par ch=13 c=11 v=48
161741 On ch=13 n=79 v=0
162048 Par ch=13 c=11 v=64
165216 Par ch=13 c=11 v=64
165216 Par ch=13 c=0 v=0
165216 Par ch=13 c=32 v=0
165216 PrCh ch=13 p=59
165216 On ch=13 n=61 v=95
165220 Par ch=13 c=11 v=63
165224 Par ch=13 c=11 v=62
165228 Par ch=13 c=11 v=61
165232 Par ch=13 c=11 v=60
165236 Par ch=13 c=11 v=59
165240 Par ch=13 c=11 v=58
165244 Par ch=13 c=11 v=57
165248 Par ch=13 c=11 v=56
165252 Par ch=13 c=11 v=55
165256 Par ch=13 c=11 v=54
165260 Par ch=13 c=11 v=53
165264 Par ch=13 c=11 v=52
165268 Par ch=13 c=11 v=51
165272 Par ch=13 c=11 v=50
165276 Par ch=13 c=11 v=49
165280 Par ch=13 c=11 v=48
165284 Par ch=13 c=11 v=47
165288 Par ch=13 c=11 v=46
165292 Par ch=13 c=11 v=45
165296 Par ch=13 c=11 v=44
165300 Par ch=13 c=11 v=43
165304 Par ch=13 c=11 v=42
165308 Par ch=13 c=11 v=41
165312 Par ch=13 c=11 v=40
165316 Par ch=13 c=11 v=39
165320 Par ch=13 c=11 v=38
165324 Par ch=13 c=11 v=37
165328 Par ch=13 c=11 v=36
165332 Par ch=13 c=11 v=35
165336 Par ch=13 c=11 v=34
165340 Par ch=13 c=11 v=33
165344 Par ch=13 c=11 v=32
165348 Par ch=13 c=11 v=31
165352 Par ch=13 c=11 v=30
165356 Par ch=13 c=11 v=29
165360 Par ch=13 c=11 v=28
165364 Par ch=13 c=11 v=27
165368 Par ch=13 c=11 v=26
165370 On ch=13 n=61 v=0
165372 Par ch=13 c=11 v=25
165376 Par ch=13 c=11 v=24
165380 Par ch=13 c=11 v=23
165384 Par ch=13 c=11 v=22
165388 Par ch=13 c=11 v=21
165392 Par ch=13 c=11 v=20
165396 Par ch=13 c=11 v=19
165400 Par ch=13 c=11 v=18
165404 Par ch=13 c=11 v=17
165600 Par ch=13 c=11 v=64
165600 On ch=13 n=61 v=95
165604 Par ch=13 c=11 v=63
165608 Par ch=13 c=11 v=62
165612 Par ch=13 c=11 v=61
165616 Par ch=13 c=11 v=60
165620 Par ch=13 c=11 v=59
165624 Par ch=13 c=11 v=58
165628 Par ch=13 c=11 v=57
165632 Par ch=13 c=11 v=56
165636 Par ch=13 c=11 v=55
165640 Par ch=13 c=11 v=54
165644 Par ch=13 c=11 v=53
165648 Par ch=13 c=11 v=52
165652 Par ch=13 c=11 v=51
165656 Par ch=13 c=11 v=50
165660 Par ch=13 c=11 v=49
165664 Par ch=13 c=11 v=48
165668 Par ch=13 c=11 v=47
165672 Par ch=13 c=11 v=46
165676 Par ch=13 c=11 v=45
165680 Par ch=13 c=11 v=44
165684 Par ch=13 c=11 v=43
165688 Par ch=13 c=11 v=42
165692 Par ch=13 c=11 v=41
165696 Par ch=13 c=11 v=40
165700 Par ch=13 c=11 v=39
165704 Par ch=13 c=11 v=38
165708 Par ch=13 c=11 v=37
165712 Par ch=13 c=11 v=36
165716 Par ch=13 c=11 v=35
165720 Par ch=13 c=11 v=34
165724 Par ch=13 c=11 v=33
165728 Par ch=13 c=11 v=32
165732 Par ch=13 c=11 v=31
165736 Par ch=13 c=11 v=30
165740 Par ch=13 c=11 v=29
165744 Par ch=13 c=11 v=28
165748 Par ch=13 c=11 v=27
165752 Par ch=13 c=11 v=26
165754 On ch=13 n=61 v=0
165756 Par ch=13 c=11 v=25
165760 Par ch=13 c=11 v=24
165764 Par ch=13 c=11 v=23
165768 Par ch=13 c=11 v=22
165772 Par ch=13 c=11 v=21
165776 Par ch=13 c=11 v=20
165780 Par ch=13 c=11 v=19
165784 Par ch=13 c=11 v=18
165788 Par ch=13 c=11 v=17
166272 Par ch=13 c=0 v=0
166272 Par ch=13 c=32 v=0
166272 PrCh ch=13 p=56
166272 Par ch=13 c=11 v=64
166272 On ch=13 n=72 v=47
166272 On ch=13 n=76 v=47
166272 On ch=13 n=79 v=47
166502 On ch=13 n=79 v=0
166502 On ch=13 n=76 v=0
166502 On ch=13 n=72 v=0
166656 On ch=13 n=79 v=47
166656 On ch=13 n=76 v=47
166656 On ch=13 n=72 v=47
166886 On ch=13 n=72 v=0
166886 On ch=13 n=76 v=0
166886 On ch=13 n=79 v=0
167040 On ch=13 n=79 v=47
167040 On ch=13 n=76 v=47
167040 On ch=13 n=72 v=47
167270 On ch=13 n=72 v=0
167270 On ch=13 n=76 v=0
167270 On ch=13 n=79 v=0
167424 On ch=13 n=79 v=47
167424 On ch=13 n=76 v=47
167424 On ch=13 n=72 v=47
167654 On ch=13 n=72 v=0
167654 On ch=13 n=76 v=0
167654 On ch=13 n=79 v=0
167808 On ch=13 n=79 v=47
167808 On ch=13 n=76 v=47
167808 On ch=13 n=72 v=47
167962 On ch=13 n=72 v=0
167962 On ch=13 n=76 v=0
167962 On ch=13 n=79 v=0
168192 On ch=13 n=79 v=47
168192 On ch=13 n=76 v=47
168192 On ch=13 n=72 v=47
168346 On ch=13 n=72 v=0
168346 On ch=13 n=76 v=0
168346 On ch=13 n=79 v=0
168346 Meta TrkEnd
TrkEnd
MTrk
0 Meta 0x21 00
0 Meta TrkName "TRUMPET"
192 Par ch=14 c=1 v=8
196 Par ch=14 c=7 v=127
200 Par ch=14 c=10 v=73
204 Par ch=14 c=11 v=64
208 Par ch=14 c=91 v=96
212 Par ch=14 c=93 v=48
216 Par ch=14 c=0 v=0
216 Par ch=14 c=32 v=0
216 PrCh ch=14 p=56
13440 Par ch=14 c=11 v=64
13440 On ch=14 n=70 v=47
13440 On ch=14 n=73 v=47
13632 Par ch=14 c=11 v=64
13644 Par ch=14 c=11 v=65
13652 Par ch=14 c=11 v=66
13660 Par ch=14 c=11 v=67
13672 Par ch=14 c=11 v=68
13680 Par ch=14 c=11 v=69
13688 Par ch=14 c=11 v=70
13696 Par ch=14 c=11 v=71
13708 Par ch=14 c=11 v=72
13716 Par ch=14 c=11 v=73
13724 Par ch=14 c=11 v=74
13736 Par ch=14 c=11 v=75
13744 Par ch=14 c=11 v=76
13752 Par ch=14 c=11 v=77
13760 Par ch=14 c=11 v=78
13772 Par ch=14 c=11 v=79
13780 Par ch=14 c=11 v=80
13788 Par ch=14 c=11 v=81
13800 Par ch=14 c=11 v=82
13808 Par ch=14 c=11 v=83
13816 Par ch=14 c=11 v=84
13824 Par ch=14 c=11 v=85
13836 Par ch=14 c=11 v=86
13844 Par ch=14 c=11 v=87
13852 Par ch=14 c=11 v=88
13864 Par ch=14 c=11 v=89
13872 Par ch=14 c=11 v=90
13880 Par ch=14 c=11 v=91
13888 Par ch=14 c=11 v=92
13900 Par ch=14 c=11 v=93
13908 Par ch=14 c=11 v=94
13916 Par ch=14 c=11 v=95
13928 Par ch=14 c=11 v=96
13936 Par ch=14 c=11 v=97
13944 Par ch=14 c=11 v=98
13952 Par ch=14 c=11 v=99
13964 Par ch=14 c=11 v=100
13972 Par ch=14 c=11 v=101
13978 On ch=14 n=73 v=0
13978 On ch=14 n=70 v=0
13980 Par ch=14 c=11 v=102
13992 Par ch=14 c=11 v=103
14000 Par ch=14 c=11 v=104
14008 Par ch=14 c=11 v=105
14016 Par ch=14 c=11 v=106
14028 Par ch=14 c=11 v=107
14036 Par ch=14 c=11 v=108
14044 Par ch=14 c=11 v=109
14056 Par ch=14 c=11 v=110
14064 Par ch=14 c=11 v=111
14072 Par ch=14 c=11 v=112
14080 Par ch=14 c=11 v=113
14080 On ch=14 n=60 v=47
14092 Par ch=14 c=11 v=114
14100 Par ch=14 c=11 v=115
14101 On ch=14 n=60 v=0
14108 Par ch=14 c=11 v=116
14112 On ch=14 n=67 v=47
14120 Par ch=14 c=11 v=117
14128 Par ch=14 c=11 v=118
14133 On ch=14 n=67 v=0
14136 Par ch=14 c=11 v=119
14144 Par ch=14 c=11 v=120
14144 On ch=14 n=70 v=47
14156 Par ch=14 c=11 v=121
14164 Par ch=14 c=11 v=122
14165 On ch=14 n=70 v=0
14172 Par ch=14 c=11 v=123
14176 On ch=14 n=73 v=47
14184 Par ch=14 c=11 v=124
14192 Par ch=14 c=11 v=125
14197 On ch=14 n=73 v=0
14200 Par ch=14 c=11 v=126
14208 Par ch=14 c=11 v=64
14208 On ch=14 n=72 v=111
14239 On ch=14 n=72 v=0
14376 On ch=14 n=67 v=111
14392 On ch=14 n=67 v=0
14400 On ch=14 n=65 v=111
14431 On ch=14 n=65 v=0
14472 On ch=14 n=63 v=111
14488 On ch=14 n=63 v=0
14496 On ch=14 n=61 v=111
14527 On ch=14 n=61 v=0
14568 On ch=14 n=60 v=111
14584 On ch=14 n=60 v=0
14592 On ch=14 n=68 v=111
14624 On ch=14 n=68 v=0
14976 On ch=14 n=67 v=111
15360 Par ch=14 c=11 v=64
15384 Par ch=14 c=11 v=65
15408 Par ch=14 c=11 v=66
15428 Par ch=14 c=11 v=67
15452 Par ch=14 c=11 v=68
15476 Par ch=14 c=11 v=69
15496 Par ch=14 c=11 v=70
15514 On ch=14 n=67 v=0
15520 Par ch=14 c=11 v=71
15544 Par ch=14 c=11 v=72
15552 On ch=14 n=65 v=111
15564 Par ch=14 c=11 v=73
15588 Par ch=14 c=11 v=74
15612 Par ch=14 c=11 v=75
15632 Par ch=14 c=11 v=76
15656 Par ch=14 c=11 v=77
15680 Par ch=14 c=11 v=78
15700 Par ch=14 c=11 v=79
15724 Par ch=14 c=11 v=80
15744 On ch=14 n=65 v=0
15744 Par ch=14 c=11 v=64
15744 On ch=14 n=60 v=127
15898 On ch=14 n=60 v=0
15936 On ch=14 n=55 v=127
16030 On ch=14 n=55 v=0
16080 On ch=14 n=55 v=127
16118 On ch=14 n=55 v=0
16128 On ch=14 n=60 v=127
16282 On ch=14 n=60 v=0
16320 On ch=14 n=55 v=127
16414 On ch=14 n=55 v=0
16464 On ch=14 n=55 v=127
16502 On ch=14 n=55 v=0
16512 On ch=14 n=60 v=95
16560 Par ch=14 c=11 v=48
16572 Par ch=14 c=11 v=47
16584 Par ch=14 c=11 v=46
16592 Par ch=14 c=11 v=45
16604 Par ch=14 c=11 v=44
16612 Par ch=14 c=11 v=43
16624 Par ch=14 c=11 v=42
16632 Par ch=14 c=11 v=41
16644 Par ch=14 c=11 v=40
16652 Par ch=14 c=11 v=39
16664 Par ch=14 c=11 v=38
16672 Par ch=14 c=11 v=37
16684 Par ch=14 c=11 v=36
16696 Par ch=14 c=11 v=35
16704 Par ch=14 c=11 v=34
16716 Par ch=14 c=11 v=33
16724 Par ch=14 c=11 v=32
16736 Par ch=14 c=11 v=31
16744 Par ch=14 c=11 v=30
16756 Par ch=14 c=11 v=29
16764 Par ch=14 c=11 v=28
16776 Par ch=14 c=11 v=27
16784 Par ch=14 c=11 v=26
16796 Par ch=14 c=11 v=25
16808 Par ch=14 c=11 v=24
16816 Par ch=14 c=11 v=23
16819 On ch=14 n=60 v=0
16828 Par ch=14 c=11 v=22
16836 Par ch=14 c=11 v=21
16848 Par ch=14 c=11 v=20
16856 Par ch=14 c=11 v=19
16868 Par ch=14 c=11 v=18
16876 Par ch=14 c=11 v=17
16888 Par ch=14 c=11 v=16
17280 Par ch=14 c=11 v=64
28416 On ch=14 n=68 v=47
28416 On ch=14 n=72 v=47
28570 On ch=14 n=72 v=0
28570 On ch=14 n=68 v=0
28608 On ch=14 n=65 v=47
28608 On ch=14 n=68 v=47
28762 On ch=14 n=68 v=0
28762 On ch=14 n=65 v=0
28800 On ch=14 n=75 v=47
28800 On ch=14 n=68 v=47
28992 On ch=14 n=68 v=0
28992 On ch=14 n=75 v=0
28992 On ch=14 n=72 v=47
28992 On ch=14 n=68 v=47
29030 On ch=14 n=68 v=0
29030 On ch=14 n=72 v=0
29088 On ch=14 n=75 v=47
29088 On ch=14 n=70 v=47
29126 On ch=14 n=70 v=0
29126 On ch=14 n=75 v=0
29184 On ch=14 n=72 v=47
29184 On ch=14 n=75 v=47
29222 On ch=14 n=75 v=0
29222 On ch=14 n=72 v=0
30048 On ch=14 n=60 v=63
30069 On ch=14 n=60 v=0
30080 On ch=14 n=60 v=79
30101 On ch=14 n=60 v=0
30112 On ch=14 n=60 v=95
30133 On ch=14 n=60 v=0
30144 On ch=14 n=60 v=111
30192 Par ch=14 c=11 v=32
30298 On ch=14 n=60 v=0
30336 Par ch=14 c=11 v=64
30432 On ch=14 n=60 v=63
30453 On ch=14 n=60 v=0
30464 On ch=14 n=60 v=79
30485 On ch=14 n=60 v=0
30496 On ch=14 n=60 v=95
30517 On ch=14 n=60 v=0
30528 On ch=14 n=60 v=111
30576 Par ch=14 c=11 v=32
30682 On ch=14 n=60 v=0
30720 Par ch=14 c=11 v=64
31104 On ch=14 n=69 v=111
31142 On ch=14 n=69 v=0
31200 On ch=14 n=70 v=111
31354 On ch=14 n=70 v=0
31872 On ch=14 n=70 v=111
31910 On ch=14 n=70 v=0
31968 On ch=14 n=74 v=111
32122 On ch=14 n=74 v=0
32640 On ch=14 n=75 v=95
32640 On ch=14 n=70 v=95
32794 On ch=14 n=75 v=0
32832 On ch=14 n=74 v=95
32947 On ch=14 n=70 v=0
32986 On ch=14 n=74 v=0
33024 On ch=14 n=75 v=95
33024 On ch=14 n=70 v=95
33178 On ch=14 n=75 v=0
33216 On ch=14 n=74 v=95
33331 On ch=14 n=70 v=0
33370 On ch=14 n=74 v=0
33408 On ch=14 n=71 v=95
33715 On ch=14 n=71 v=0
33792 On ch=14 n=67 v=95
34253 On ch=14 n=67 v=0
34560 On ch=14 n=79 v=95
34560 On ch=14 n=67 v=95
34591 On ch=14 n=67 v=0
34591 On ch=14 n=79 v=0
34632 On ch=14 n=77 v=95
34632 On ch=14 n=65 v=95
34648 On ch=14 n=65 v=0
34648 On ch=14 n=77 v=0
34656 On ch=14 n=63 v=95
34656 On ch=14 n=75 v=95
34687 On ch=14 n=75 v=0
34687 On ch=14 n=63 v=0
34728 On ch=14 n=74 v=95
34728 On ch=14 n=62 v=95
34744 On ch=14 n=62 v=0
34744 On ch=14 n=74 v=0
34944 On ch=14 n=70 v=95
34944 On ch=14 n=67 v=95
35098 On ch=14 n=67 v=0
35098 On ch=14 n=70 v=0
35328 On ch=14 n=75 v=95
35328 On ch=14 n=63 v=95
35359 On ch=14 n=63 v=0
35359 On ch=14 n=75 v=0
35400 On ch=14 n=74 v=95
35400 On ch=14 n=62 v=95
35416 On ch=14 n=62 v=0
35416 On ch=14 n=74 v=0
35424 On ch=14 n=72 v=95
35424 On ch=14 n=60 v=95
35455 On ch=14 n=60 v=0
35455 On ch=14 n=72 v=0
35496 On ch=14 n=58 v=95
35496 On ch=14 n=70 v=95
35512 On ch=14 n=70 v=0
35512 On ch=14 n=58 v=0
39936 On ch=14 n=70 v=47
40090 On ch=14 n=70 v=0
40320 On ch=14 n=70 v=47
40474 On ch=14 n=70 v=0
40704 On ch=14 n=68 v=47
40858 On ch=14 n=68 v=0
41088 On ch=14 n=67 v=47
41376 On ch=14 n=67 v=0
41376 On ch=14 n=66 v=47
41453 On ch=14 n=66 v=0
41472 On ch=14 n=67 v=47
41760 On ch=14 n=67 v=0
41760 On ch=14 n=66 v=47
41837 On ch=14 n=66 v=0
64800 On ch=14 n=71 v=111
64831 On ch=14 n=71 v=0
64896 On ch=14 n=79 v=111
64896 On ch=14 n=67 v=111
64973 On ch=14 n=67 v=0
64973 On ch=14 n=79 v=0
64992 On ch=14 n=78 v=111
64992 On ch=14 n=66 v=111
65069 On ch=14 n=66 v=0
65069 On ch=14 n=78 v=0
65088 On ch=14 n=79 v=111
65088 On ch=14 n=67 v=111
65165 On ch=14 n=67 v=0
65165 On ch=14 n=79 v=0
65184 On ch=14 n=75 v=111
65184 On ch=14 n=63 v=111
65261 On ch=14 n=63 v=0
65261 On ch=14 n=75 v=0
65280 On ch=14 n=76 v=111
65280 On ch=14 n=64 v=111
65318 On ch=14 n=64 v=0
65318 On ch=14 n=76 v=0
65376 On ch=14 n=71 v=111
65530 On ch=14 n=71 v=0
67200 On ch=14 n=69 v=111
67354 On ch=14 n=69 v=0
67392 On ch=14 n=70 v=111
67546 On ch=14 n=70 v=0
67584 Par ch=14 c=11 v=64
67584 On ch=14 n=74 v=111
67596 Par ch=14 c=11 v=63
67608 Par ch=14 c=11 v=62
67620 Par ch=14 c=11 v=61
67632 Par ch=14 c=11 v=60
67644 Par ch=14 c=11 v=59
67656 Par ch=14 c=11 v=58
67668 Par ch=14 c=11 v=57
67680 Par ch=14 c=11 v=56
67692 Par ch=14 c=11 v=55
67704 Par ch=14 c=11 v=54
67716 Par ch=14 c=11 v=53
67728 Par ch=14 c=11 v=52
67740 Par ch=14 c=11 v=51
67752 Par ch=14 c=11 v=50
67764 Par ch=14 c=11 v=49
67776 Par ch=14 c=11 v=48
67814 On ch=14 n=74 v=0
67968 Par ch=14 c=11 v=64
72576 On ch=14 n=66 v=47
72730 On ch=14 n=66 v=0
72768 On ch=14 n=54 v=47
73267 On ch=14 n=54 v=0
73344 On ch=14 n=66 v=47
73498 On ch=14 n=66 v=0
73536 On ch=14 n=54 v=47
73872 On ch=14 n=54 v=47
74016 On ch=14 n=54 v=0
74016 On ch=14 n=54 v=47
74035 On ch=14 n=54 v=0
74035 On ch=14 n=54 v=0
74112 On ch=14 n=66 v=47
74266 On ch=14 n=66 v=0
74496 Par ch=14 c=11 v=64
74496 Par ch=14 c=0 v=0
74496 Par ch=14 c=32 v=0
74496 PrCh ch=14 p=59
74496 On ch=14 n=69 v=47
74512 Par ch=14 c=11 v=65
74524 Par ch=14 c=11 v=66
74536 Par ch=14 c=11 v=67
74548 Par ch=14 c=11 v=68
74560 Par ch=14 c=11 v=69
74572 Par ch=14 c=11 v=70
74584 Par ch=14 c=11 v=71
74596 Par ch=14 c=11 v=72
74608 Par ch=14 c=11 v=73
74620 Par ch=14 c=11 v=74
74632 Par ch=14 c=11 v=75
74644 Par ch=14 c=11 v=76
74656 Par ch=14 c=11 v=77
74668 Par ch=14 c=11 v=78
74680 Par ch=14 c=11 v=79
74692 Par ch=14 c=11 v=80
74704 Par ch=14 c=11 v=81
74716 Par ch=14 c=11 v=82
74728 Par ch=14 c=11 v=83
74740 Par ch=14 c=11 v=84
74752 Par ch=14 c=11 v=85
74768 Par ch=14 c=11 v=86
74780 Par ch=14 c=11 v=87
74792 Par ch=14 c=11 v=88
74803 On ch=14 n=69 v=0
74804 Par ch=14 c=11 v=89
74816 Par ch=14 c=11 v=90
74828 Par ch=14 c=11 v=91
74840 Par ch=14 c=11 v=92
74852 Par ch=14 c=11 v=93
74864 Par ch=14 c=11 v=94
74876 Par ch=14 c=11 v=95
74880 On ch=14 n=69 v=47
74888 Par ch=14 c=11 v=96
74900 Par ch=14 c=11 v=97
74912 Par ch=14 c=11 v=98
74924 Par ch=14 c=11 v=99
74936 Par ch=14 c=11 v=100
74948 Par ch=14 c=11 v=101
74960 Par ch=14 c=11 v=102
74972 Par ch=14 c=11 v=103
74984 Par ch=14 c=11 v=104
74996 Par ch=14 c=11 v=105
75008 Par ch=14 c=11 v=106
75024 Par ch=14 c=11 v=107
75036 Par ch=14 c=11 v=108
75048 Par ch=14 c=11 v=109
75060 Par ch=14 c=11 v=110
75072 Par ch=14 c=11 v=111
75084 Par ch=14 c=11 v=112
75096 Par ch=14 c=11 v=113
75108 Par ch=14 c=11 v=114
75120 Par ch=14 c=11 v=115
75132 Par ch=14 c=11 v=116
75144 Par ch=14 c=11 v=117
75156 Par ch=14 c=11 v=118
75168 Par ch=14 c=11 v=119
75180 Par ch=14 c=11 v=120
75187 On ch=14 n=69 v=0
75192 Par ch=14 c=11 v=121
75204 Par ch=14 c=11 v=122
75216 Par ch=14 c=11 v=123
75228 Par ch=14 c=11 v=124
75240 Par ch=14 c=11 v=125
75252 Par ch=14 c=11 v=126
75360 Par ch=14 c=11 v=64
75360 Par ch=14 c=0 v=0
75360 Par ch=14 c=32 v=0
75360 PrCh ch=14 p=56
75360 On ch=14 n=70 v=111
75360 On ch=14 n=79 v=111
75391 On ch=14 n=79 v=0
75391 On ch=14 n=70 v=0
75680 On ch=14 n=55 v=111
75701 On ch=14 n=55 v=0
75712 On ch=14 n=62 v=111
75733 On ch=14 n=62 v=0
75744 On ch=14 n=67 v=111
75765 On ch=14 n=67 v=0
75776 On ch=14 n=62 v=111
75797 On ch=14 n=62 v=0
75808 On ch=14 n=67 v=111
75829 On ch=14 n=67 v=0
75840 On ch=14 n=74 v=111
75861 On ch=14 n=74 v=0
75872 On ch=14 n=67 v=111
75893 On ch=14 n=67 v=0
75904 On ch=14 n=74 v=111
75925 On ch=14 n=74 v=0
75936 On ch=14 n=79 v=111
75957 On ch=14 n=79 v=0
75968 On ch=14 n=74 v=111
75989 On ch=14 n=74 v=0
76000 On ch=14 n=79 v=111
76021 On ch=14 n=79 v=0
76032 Par ch=14 c=11 v=64
76032 On ch=14 n=80 v=95
76044 Par ch=14 c=11 v=65
76056 Par ch=14 c=11 v=66
76068 Par ch=14 c=11 v=67
76080 Par ch=14 c=11 v=68
76092 Par ch=14 c=11 v=69
76104 Par ch=14 c=11 v=70
76116 Par ch=14 c=11 v=71
76128 Par ch=14 c=11 v=72
76140 Par ch=14 c=11 v=73
76152 Par ch=14 c=11 v=74
76164 Par ch=14 c=11 v=75
76176 Par ch=14 c=11 v=76
76188 Par ch=14 c=11 v=77
76200 Par ch=14 c=11 v=78
76212 Par ch=14 c=11 v=79
76224 Par ch=14 c=11 v=80
76255 On ch=14 n=80 v=0
76800 On ch=14 n=81 v=95
76812 Par ch=14 c=11 v=81
76836 Par ch=14 c=11 v=82
76860 Par ch=14 c=11 v=83
76884 Par ch=14 c=11 v=84
76908 Par ch=14 c=11 v=85
76928 Par ch=14 c=11 v=86
76952 Par ch=14 c=11 v=87
76976 Par ch=14 c=11 v=88
77000 Par ch=14 c=11 v=89
77024 Par ch=14 c=11 v=90
77030 On ch=14 n=81 v=0
77048 Par ch=14 c=11 v=91
77068 Par ch=14 c=11 v=92
77088 On ch=14 n=80 v=95
77092 Par ch=14 c=11 v=93
77116 Par ch=14 c=11 v=94
77140 Par ch=14 c=11 v=95
77164 Par ch=14 c=11 v=96
77165 On ch=14 n=80 v=0
77184 Par ch=14 c=11 v=97
77184 On ch=14 n=78 v=95
77192 Par ch=14 c=11 v=96
77200 Par ch=14 c=11 v=95
77208 Par ch=14 c=11 v=94
77216 Par ch=14 c=11 v=93
77224 Par ch=14 c=11 v=92
77232 Par ch=14 c=11 v=91
77240 Par ch=14 c=11 v=90
77248 Par ch=14 c=11 v=89
77256 Par ch=14 c=11 v=88
77261 On ch=14 n=78 v=0
77264 Par ch=14 c=11 v=87
77272 Par ch=14 c=11 v=86
77280 Par ch=14 c=11 v=85
77280 On ch=14 n=80 v=95
77284 Par ch=14 c=11 v=84
77292 Par ch=14 c=11 v=83
77300 Par ch=14 c=11 v=82
77308 Par ch=14 c=11 v=81
77316 Par ch=14 c=11 v=80
77318 On ch=14 n=80 v=0
77324 Par ch=14 c=11 v=79
77328 On ch=14 n=78 v=95
77332 Par ch=14 c=11 v=78
77340 Par ch=14 c=11 v=77
77348 Par ch=14 c=11 v=76
77356 Par ch=14 c=11 v=75
77364 Par ch=14 c=11 v=74
77366 On ch=14 n=78 v=0
77372 Par ch=14 c=11 v=73
77376 Par ch=14 c=11 v=72
77376 On ch=14 n=76 v=95
77384 Par ch=14 c=11 v=71
77392 Par ch=14 c=11 v=70
77400 Par ch=14 c=11 v=69
77408 Par ch=14 c=11 v=68
77416 Par ch=14 c=11 v=67
77424 Par ch=14 c=11 v=66
77432 Par ch=14 c=11 v=65
77440 Par ch=14 c=11 v=64
77448 Par ch=14 c=11 v=63
77453 On ch=14 n=76 v=0
77456 Par ch=14 c=11 v=62
77464 Par ch=14 c=11 v=61
77472 Par ch=14 c=11 v=60
77472 On ch=14 n=74 v=95
77476 Par ch=14 c=11 v=59
77484 Par ch=14 c=11 v=58
77492 Par ch=14 c=11 v=57
77500 Par ch=14 c=11 v=56
77508 Par ch=14 c=11 v=55
77516 Par ch=14 c=11 v=54
77524 Par ch=14 c=11 v=53
77532 Par ch=14 c=11 v=52
77540 Par ch=14 c=11 v=51
77548 Par ch=14 c=11 v=50
77549 On ch=14 n=74 v=0
77556 Par ch=14 c=11 v=49
77564 Par ch=14 c=11 v=48
77952 Par ch=14 c=11 v=64
86688 On ch=14 n=66 v=31
86719 On ch=14 n=66 v=0
86784 On ch=14 n=71 v=31
86938 On ch=14 n=71 v=0
86976 On ch=14 n=70 v=31
87091 On ch=14 n=70 v=0
87120 On ch=14 n=66 v=31
87158 On ch=14 n=66 v=0
87168 On ch=14 n=71 v=31
87264 On ch=14 n=71 v=0
87264 On ch=14 n=73 v=31
87418 On ch=14 n=73 v=0
87456 On ch=14 n=66 v=31
87487 On ch=14 n=66 v=0
87552 On ch=14 n=75 v=31
87706 On ch=14 n=75 v=0
87744 On ch=14 n=73 v=31
87859 On ch=14 n=73 v=0
87888 On ch=14 n=70 v=31
87926 On ch=14 n=70 v=0
87936 On ch=14 n=71 v=31
88032 On ch=14 n=71 v=0
88032 On ch=14 n=73 v=31
88186 On ch=14 n=73 v=0
88224 On ch=14 n=66 v=31
88262 On ch=14 n=66 v=0
88320 Par ch=14 c=11 v=64
88320 On ch=14 n=66 v=31
88368 Par ch=14 c=11 v=63
88412 Par ch=14 c=11 v=62
88456 Par ch=14 c=11 v=61
88504 Par ch=14 c=11 v=60
88548 Par ch=14 c=11 v=59
88592 Par ch=14 c=11 v=58
88640 Par ch=14 c=11 v=57
88684 Par ch=14 c=11 v=56
88728 Par ch=14 c=11 v=55
88772 Par ch=14 c=11 v=54
88820 Par ch=14 c=11 v=53
88864 Par ch=14 c=11 v=52
88908 Par ch=14 c=11 v=51
88956 Par ch=14 c=11 v=50
89000 Par ch=14 c=11 v=49
89044 Par ch=14 c=11 v=48
89165 On ch=14 n=66 v=0
89472 Par ch=14 c=11 v=64
107136 On ch=14 n=70 v=127
107167 On ch=14 n=70 v=0
107208 On ch=14 n=65 v=127
107224 On ch=14 n=65 v=0
107232 On ch=14 n=58 v=127
107263 On ch=14 n=58 v=0
107904 Par ch=14 c=11 v=64
107904 On ch=14 n=70 v=127
107912 Par ch=14 c=11 v=65
107916 Par ch=14 c=11 v=66
107924 Par ch=14 c=11 v=67
107928 Par ch=14 c=11 v=68
107935 On ch=14 n=70 v=0
107936 Par ch=14 c=11 v=69
107940 Par ch=14 c=11 v=70
107948 Par ch=14 c=11 v=71
107952 Par ch=14 c=11 v=72
107960 Par ch=14 c=11 v=73
107964 Par ch=14 c=11 v=74
107972 Par ch=14 c=11 v=75
107976 Par ch=14 c=11 v=76
107976 On ch=14 n=73 v=127
107984 Par ch=14 c=11 v=77
107988 Par ch=14 c=11 v=78
107992 On ch=14 n=73 v=0
107996 Par ch=14 c=11 v=79
108000 Par ch=14 c=11 v=80
108000 On ch=14 n=78 v=127
108152 On ch=14 n=78 v=0
108288 Par ch=14 c=11 v=64
108288 On ch=14 n=63 v=63
108288 On ch=14 n=67 v=63
108440 On ch=14 n=67 v=0
108440 On ch=14 n=63 v=0
108480 On ch=14 n=63 v=63
108480 On ch=14 n=68 v=63
108632 On ch=14 n=68 v=0
108632 On ch=14 n=63 v=0
108672 On ch=14 n=70 v=63
108672 On ch=14 n=63 v=63
108824 On ch=14 n=63 v=0
108824 On ch=14 n=70 v=0
108960 On ch=14 n=65 v=79
109037 On ch=14 n=65 v=0
109056 On ch=14 n=67 v=79
109060 Par ch=14 c=11 v=74
109068 Par ch=14 c=11 v=75
109080 Par ch=14 c=11 v=76
109088 Par ch=14 c=11 v=77
109100 Par ch=14 c=11 v=78
109108 Par ch=14 c=11 v=79
109120 Par ch=14 c=11 v=80
109128 Par ch=14 c=11 v=81
109133 On ch=14 n=67 v=0
109140 Par ch=14 c=11 v=82
109148 Par ch=14 c=11 v=83
109152 On ch=14 n=70 v=79
109156 Par ch=14 c=11 v=84
109168 Par ch=14 c=11 v=85
109176 Par ch=14 c=11 v=86
109188 Par ch=14 c=11 v=87
109196 Par ch=14 c=11 v=88
109208 Par ch=14 c=11 v=89
109216 Par ch=14 c=11 v=90
109228 Par ch=14 c=11 v=91
109229 On ch=14 n=70 v=0
109236 Par ch=14 c=11 v=92
109248 Par ch=14 c=11 v=93
109248 On ch=14 n=75 v=79
109256 Par ch=14 c=11 v=94
109264 Par ch=14 c=11 v=95
109276 Par ch=14 c=11 v=96
109284 Par ch=14 c=11 v=97
109296 Par ch=14 c=11 v=98
109304 Par ch=14 c=11 v=99
109316 Par ch=14 c=11 v=100
109324 Par ch=14 c=11 v=101
109325 On ch=14 n=75 v=0
109336 Par ch=14 c=11 v=102
109344 Par ch=14 c=11 v=103
109344 On ch=14 n=74 v=79
109352 Par ch=14 c=11 v=104
109364 Par ch=14 c=11 v=105
109372 Par ch=14 c=11 v=106
109375 On ch=14 n=74 v=0
109384 Par ch=14 c=11 v=107
109392 Par ch=14 c=11 v=108
109404 Par ch=14 c=11 v=109
109412 Par ch=14 c=11 v=110
109416 On ch=14 n=72 v=79
109424 Par ch=14 c=11 v=111
109432 On ch=14 n=72 v=0
109432 Par ch=14 c=11 v=112
109440 Par ch=14 c=11 v=112
109440 On ch=14 n=70 v=79
109448 Par ch=14 c=11 v=111
109456 Par ch=14 c=11 v=110
109464 Par ch=14 c=11 v=109
109472 Par ch=14 c=11 v=108
109480 Par ch=14 c=11 v=107
109488 Par ch=14 c=11 v=106
109496 Par ch=14 c=11 v=105
109504 Par ch=14 c=11 v=104
109512 Par ch=14 c=11 v=103
109520 Par ch=14 c=11 v=102
109528 Par ch=14 c=11 v=101
109536 Par ch=14 c=11 v=100
109540 Par ch=14 c=11 v=99
109548 Par ch=14 c=11 v=98
109556 Par ch=14 c=11 v=97
109564 Par ch=14 c=11 v=96
109572 Par ch=14 c=11 v=95
109580 Par ch=14 c=11 v=94
109588 Par ch=14 c=11 v=93
109596 Par ch=14 c=11 v=92
109604 Par ch=14 c=11 v=91
109612 Par ch=14 c=11 v=90
109620 Par ch=14 c=11 v=89
109628 Par ch=14 c=11 v=88
109632 Par ch=14 c=11 v=87
109640 Par ch=14 c=11 v=86
109648 Par ch=14 c=11 v=85
109656 Par ch=14 c=11 v=84
109664 Par ch=14 c=11 v=83
109672 Par ch=14 c=11 v=82
109680 Par ch=14 c=11 v=81
109688 Par ch=14 c=11 v=80
109696 Par ch=14 c=11 v=79
109704 Par ch=14 c=11 v=78
109712 Par ch=14 c=11 v=77
109720 Par ch=14 c=11 v=76
109728 Par ch=14 c=11 v=75
109732 Par ch=14 c=11 v=74
109740 Par ch=14 c=11 v=73
109748 Par ch=14 c=11 v=72
109756 Par ch=14 c=11 v=71
109764 Par ch=14 c=11 v=70
109772 Par ch=14 c=11 v=69
109780 Par ch=14 c=11 v=68
109788 Par ch=14 c=11 v=67
109796 Par ch=14 c=11 v=66
109804 Par ch=14 c=11 v=65
109812 Par ch=14 c=11 v=64
109978 On ch=14 n=70 v=0
110592 On ch=14 n=75 v=111
111168 On ch=14 n=75 v=0
111360 Par ch=14 c=11 v=64
111360 On ch=14 n=68 v=111
111384 Par ch=14 c=11 v=65
111408 Par ch=14 c=11 v=66
111428 Par ch=14 c=11 v=67
111437 On ch=14 n=68 v=0
111452 Par ch=14 c=11 v=68
111456 On ch=14 n=66 v=111
111476 Par ch=14 c=11 v=69
111496 Par ch=14 c=11 v=70
111520 Par ch=14 c=11 v=71
111533 On ch=14 n=66 v=0
111544 Par ch=14 c=11 v=72
111552 On ch=14 n=68 v=111
111564 Par ch=14 c=11 v=73
111588 Par ch=14 c=11 v=74
111612 Par ch=14 c=11 v=75
111629 On ch=14 n=68 v=0
111632 Par ch=14 c=11 v=76
111648 On ch=14 n=64 v=111
111656 Par ch=14 c=11 v=77
111674 On ch=14 n=64 v=0
111680 Par ch=14 c=11 v=78
111680 On ch=14 n=66 v=116
111700 Par ch=14 c=11 v=79
111706 On ch=14 n=66 v=0
111712 On ch=14 n=68 v=121
111724 Par ch=14 c=11 v=80
111738 On ch=14 n=68 v=0
111744 On ch=14 n=69 v=111
111782 On ch=14 n=69 v=0
112128 Par ch=14 c=11 v=64
112128 Par ch=14 c=0 v=0
112128 Par ch=14 c=32 v=0
112128 PrCh ch=14 p=59
112128 On ch=14 n=69 v=47
112128 On ch=14 n=66 v=47
112136 Par ch=14 c=11 v=65
112140 Par ch=14 c=11 v=66
112144 Par ch=14 c=11 v=67
112148 Par ch=14 c=11 v=68
112152 Par ch=14 c=11 v=69
112156 Par ch=14 c=11 v=70
112160 Par ch=14 c=11 v=71
112168 Par ch=14 c=11 v=72
112172 Par ch=14 c=11 v=73
112176 Par ch=14 c=11 v=74
112180 Par ch=14 c=11 v=75
112184 Par ch=14 c=11 v=76
112188 Par ch=14 c=11 v=77
112192 Par ch=14 c=11 v=78
112200 Par ch=14 c=11 v=79
112204 Par ch=14 c=11 v=80
112208 Par ch=14 c=11 v=81
112212 Par ch=14 c=11 v=82
112216 Par ch=14 c=11 v=83
112220 Par ch=14 c=11 v=84
112224 Par ch=14 c=11 v=85
112232 Par ch=14 c=11 v=86
112236 Par ch=14 c=11 v=87
112240 Par ch=14 c=11 v=88
112244 Par ch=14 c=11 v=89
112248 Par ch=14 c=11 v=90
112252 Par ch=14 c=11 v=91
112256 Par ch=14 c=11 v=92
112264 Par ch=14 c=11 v=93
112268 Par ch=14 c=11 v=94
112272 Par ch=14 c=11 v=95
112276 Par ch=14 c=11 v=96
112280 Par ch=14 c=11 v=97
112284 Par ch=14 c=11 v=98
112288 Par ch=14 c=11 v=99
112296 Par ch=14 c=11 v=100
112300 Par ch=14 c=11 v=101
112304 Par ch=14 c=11 v=102
112308 Par ch=14 c=11 v=103
112312 Par ch=14 c=11 v=104
112316 Par ch=14 c=11 v=105
112320 Par ch=14 c=11 v=106
112328 Par ch=14 c=11 v=107
112332 Par ch=14 c=11 v=108
112336 Par ch=14 c=11 v=109
112340 Par ch=14 c=11 v=110
112344 Par ch=14 c=11 v=111
112348 Par ch=14 c=11 v=112
112352 Par ch=14 c=11 v=113
112360 Par ch=14 c=11 v=114
112364 Par ch=14 c=11 v=115
112368 Par ch=14 c=11 v=116
112372 Par ch=14 c=11 v=117
112376 Par ch=14 c=11 v=118
112380 Par ch=14 c=11 v=119
112384 Par ch=14 c=11 v=120
112392 Par ch=14 c=11 v=121
112396 Par ch=14 c=11 v=122
112400 Par ch=14 c=11 v=123
112404 Par ch=14 c=11 v=124
112408 Par ch=14 c=11 v=125
112412 Par ch=14 c=11 v=126
112416 On ch=14 n=69 v=0
112416 On ch=14 n=70 v=47
112454 On ch=14 n=70 v=0
112454 On ch=14 n=66 v=0
112896 Par ch=14 c=11 v=64
112896 On ch=14 n=69 v=47
112896 On ch=14 n=66 v=47
112904 Par ch=14 c=11 v=65
112908 Par ch=14 c=11 v=66
112912 Par ch=14 c=11 v=67
112916 Par ch=14 c=11 v=68
112920 Par ch=14 c=11 v=69
112924 Par ch=14 c=11 v=70
112928 Par ch=14 c=11 v=71
112936 Par ch=14 c=11 v=72
112940 Par ch=14 c=11 v=73
112944 Par ch=14 c=11 v=74
112948 Par ch=14 c=11 v=75
112952 Par ch=14 c=11 v=76
112956 Par ch=14 c=11 v=77
112960 Par ch=14 c=11 v=78
112968 Par ch=14 c=11 v=79
112972 Par ch=14 c=11 v=80
112976 Par ch=14 c=11 v=81
112980 Par ch=14 c=11 v=82
112984 Par ch=14 c=11 v=83
112988 Par ch=14 c=11 v=84
112992 Par ch=14 c=11 v=85
113000 Par ch=14 c=11 v=86
113004 Par ch=14 c=11 v=87
113008 Par ch=14 c=11 v=88
113012 Par ch=14 c=11 v=89
113016 Par ch=14 c=11 v=90
113020 Par ch=14 c=11 v=91
113024 Par ch=14 c=11 v=92
113032 Par ch=14 c=11 v=93
113036 Par ch=14 c=11 v=94
113040 Par ch=14 c=11 v=95
113044 Par ch=14 c=11 v=96
113048 Par ch=14 c=11 v=97
113052 Par ch=14 c=11 v=98
113056 Par ch=14 c=11 v=99
113064 Par ch=14 c=11 v=100
113068 Par ch=14 c=11 v=101
113072 Par ch=14 c=11 v=102
113076 Par ch=14 c=11 v=103
113080 Par ch=14 c=11 v=104
113084 Par ch=14 c=11 v=105
113088 Par ch=14 c=11 v=106
113096 Par ch=14 c=11 v=107
113100 Par ch=14 c=11 v=108
113104 Par ch=14 c=11 v=109
113108 Par ch=14 c=11 v=110
113112 Par ch=14 c=11 v=111
113116 Par ch=14 c=11 v=112
113120 Par ch=14 c=11 v=113
113128 Par ch=14 c=11 v=114
113132 Par ch=14 c=11 v=115
113136 Par ch=14 c=11 v=116
113140 Par ch=14 c=11 v=117
113144 Par ch=14 c=11 v=118
113148 Par ch=14 c=11 v=119
113152 Par ch=14 c=11 v=120
113160 Par ch=14 c=11 v=121
113164 Par ch=14 c=11 v=122
113168 Par ch=14 c=11 v=123
113172 Par ch=14 c=11 v=124
113176 Par ch=14 c=11 v=125
113180 Par ch=14 c=11 v=126
113184 On ch=14 n=69 v=0
113184 On ch=14 n=70 v=47
113222 On ch=14 n=70 v=0
113222 On ch=14 n=66 v=0
113280 Par ch=14 c=0 v=0
113280 Par ch=14 c=32 v=0
113280 PrCh ch=14 p=56
113280 Par ch=14 c=11 v=64
113472 On ch=14 n=63 v=111
113549 On ch=14 n=63 v=0
113568 On ch=14 n=66 v=111
113589 On ch=14 n=66 v=0
113600 On ch=14 n=63 v=111
113621 On ch=14 n=63 v=0
113632 On ch=14 n=66 v=111
113653 On ch=14 n=66 v=0
113664 On ch=14 n=70 v=111
113818 On ch=14 n=70 v=0
114048 On ch=14 n=71 v=111
114048 On ch=14 n=68 v=111
114104 Par ch=14 c=11 v=16
114112 Par ch=14 c=11 v=17
114120 Par ch=14 c=11 v=18
114124 Par ch=14 c=11 v=19
114132 Par ch=14 c=11 v=20
114140 Par ch=14 c=11 v=21
114144 Par ch=14 c=11 v=22
114152 Par ch=14 c=11 v=23
114160 Par ch=14 c=11 v=24
114164 Par ch=14 c=11 v=25
114172 Par ch=14 c=11 v=26
114180 Par ch=14 c=11 v=27
114184 Par ch=14 c=11 v=28
114192 Par ch=14 c=11 v=29
114200 Par ch=14 c=11 v=30
114204 Par ch=14 c=11 v=31
114212 Par ch=14 c=11 v=32
114220 Par ch=14 c=11 v=33
114224 Par ch=14 c=11 v=34
114232 Par ch=14 c=11 v=35
114240 Par ch=14 c=11 v=36
114244 Par ch=14 c=11 v=37
114252 Par ch=14 c=11 v=38
114260 Par ch=14 c=11 v=39
114264 Par ch=14 c=11 v=40
114272 Par ch=14 c=11 v=41
114280 Par ch=14 c=11 v=42
114288 Par ch=14 c=11 v=43
114292 Par ch=14 c=11 v=44
114300 Par ch=14 c=11 v=45
114308 Par ch=14 c=11 v=46
114312 Par ch=14 c=11 v=47
114320 Par ch=14 c=11 v=48
114328 Par ch=14 c=11 v=49
114332 Par ch=14 c=11 v=50
114340 Par ch=14 c=11 v=51
114348 Par ch=14 c=11 v=52
114352 Par ch=14 c=11 v=53
114355 On ch=14 n=68 v=0
114355 On ch=14 n=71 v=0
114360 Par ch=14 c=11 v=54
114368 Par ch=14 c=11 v=55
114372 Par ch=14 c=11 v=56
114380 Par ch=14 c=11 v=57
114388 Par ch=14 c=11 v=58
114392 Par ch=14 c=11 v=59
114400 Par ch=14 c=11 v=60
114408 Par ch=14 c=11 v=61
114412 Par ch=14 c=11 v=62
114420 Par ch=14 c=11 v=63
114428 Par ch=14 c=11 v=64
114432 On ch=14 n=70 v=111
114432 On ch=14 n=66 v=111
114488 Par ch=14 c=11 v=16
114492 Par ch=14 c=11 v=17
114496 Par ch=14 c=11 v=18
114500 Par ch=14 c=11 v=19
114508 Par ch=14 c=11 v=20
114512 Par ch=14 c=11 v=21
114516 Par ch=14 c=11 v=22
114520 Par ch=14 c=11 v=23
114528 Par ch=14 c=11 v=24
114532 Par ch=14 c=11 v=25
114536 Par ch=14 c=11 v=26
114540 Par ch=14 c=11 v=27
114544 Par ch=14 c=11 v=28
114552 Par ch=14 c=11 v=29
114556 Par ch=14 c=11 v=30
114560 Par ch=14 c=11 v=31
114564 Par ch=14 c=11 v=32
114572 Par ch=14 c=11 v=33
114576 Par ch=14 c=11 v=34
114580 Par ch=14 c=11 v=35
114584 Par ch=14 c=11 v=36
114588 Par ch=14 c=11 v=37
114596 Par ch=14 c=11 v=38
114600 Par ch=14 c=11 v=39
114604 Par ch=14 c=11 v=40
114608 Par ch=14 c=11 v=41
114616 Par ch=14 c=11 v=42
114620 Par ch=14 c=11 v=43
114624 Par ch=14 c=11 v=44
114628 Par ch=14 c=11 v=45
114632 Par ch=14 c=11 v=46
114640 Par ch=14 c=11 v=47
114644 Par ch=14 c=11 v=48
114648 Par ch=14 c=11 v=49
114652 Par ch=14 c=11 v=50
114660 Par ch=14 c=11 v=51
114662 On ch=14 n=66 v=0
114662 On ch=14 n=70 v=0
114664 Par ch=14 c=11 v=52
114668 Par ch=14 c=11 v=53
114672 Par ch=14 c=11 v=54
114676 Par ch=14 c=11 v=55
114684 Par ch=14 c=11 v=56
114688 Par ch=14 c=11 v=57
114692 Par ch=14 c=11 v=58
114696 Par ch=14 c=11 v=59
114704 Par ch=14 c=11 v=60
114708 Par ch=14 c=11 v=61
114712 Par ch=14 c=11 v=62
114716 Par ch=14 c=11 v=63
114720 Par ch=14 c=11 v=64
114720 On ch=14 n=66 v=111
114720 On ch=14 n=63 v=111
114797 On ch=14 n=63 v=0
114797 On ch=14 n=66 v=0
114816 On ch=14 n=65 v=111
114893 On ch=14 n=65 v=0
114912 On ch=14 n=64 v=111
114989 On ch=14 n=64 v=0
115008 On ch=14 n=63 v=111
115085 On ch=14 n=63 v=0
115104 On ch=14 n=62 v=111
115181 On ch=14 n=62 v=0
115200 On ch=14 n=68 v=111
115392 On ch=14 n=68 v=0
115392 Par ch=14 c=11 v=64
115392 On ch=14 n=66 v=111
115400 Par ch=14 c=11 v=63
115404 Par ch=14 c=11 v=62
115412 Par ch=14 c=11 v=61
115416 Par ch=14 c=11 v=60
115424 Par ch=14 c=11 v=59
115428 Par ch=14 c=11 v=58
115432 Par ch=14 c=11 v=57
115440 Par ch=14 c=11 v=56
115444 Par ch=14 c=11 v=55
115452 Par ch=14 c=11 v=54
115456 Par ch=14 c=11 v=53
115460 Par ch=14 c=11 v=52
115468 Par ch=14 c=11 v=51
115472 Par ch=14 c=11 v=50
115480 Par ch=14 c=11 v=49
115484 Par ch=14 c=11 v=48
115488 Par ch=14 c=11 v=47
115496 Par ch=14 c=11 v=46
115500 Par ch=14 c=11 v=45
115508 Par ch=14 c=11 v=44
115512 Par ch=14 c=11 v=43
115520 Par ch=14 c=11 v=42
115524 Par ch=14 c=11 v=41
115528 Par ch=14 c=11 v=40
115536 Par ch=14 c=11 v=39
115540 Par ch=14 c=11 v=38
115548 Par ch=14 c=11 v=37
115552 Par ch=14 c=11 v=36
115556 Par ch=14 c=11 v=35
115564 Par ch=14 c=11 v=34
115568 Par ch=14 c=11 v=33
115576 Par ch=14 c=11 v=32
115661 On ch=14 n=66 v=0
115680 Par ch=14 c=11 v=32
115680 On ch=14 n=64 v=111
115692 Par ch=14 c=11 v=33
115700 Par ch=14 c=11 v=34
115708 Par ch=14 c=11 v=35
115716 Par ch=14 c=11 v=36
115724 Par ch=14 c=11 v=37
115736 Par ch=14 c=11 v=38
115744 Par ch=14 c=11 v=39
115752 Par ch=14 c=11 v=40
115757 On ch=14 n=64 v=0
115760 Par ch=14 c=11 v=41
115768 Par ch=14 c=11 v=42
115776 Par ch=14 c=11 v=43
115776 On ch=14 n=63 v=111
115788 Par ch=14 c=11 v=44
115796 Par ch=14 c=11 v=45
115804 Par ch=14 c=11 v=46
115812 Par ch=14 c=11 v=47
115820 Par ch=14 c=11 v=48
115832 Par ch=14 c=11 v=49
115840 Par ch=14 c=11 v=50
115848 Par ch=14 c=11 v=51
115853 On ch=14 n=63 v=0
115856 Par ch=14 c=11 v=52
115864 Par ch=14 c=11 v=53
115872 Par ch=14 c=11 v=54
115872 On ch=14 n=62 v=111
115884 Par ch=14 c=11 v=55
115892 Par ch=14 c=11 v=56
115900 Par ch=14 c=11 v=57
115908 Par ch=14 c=11 v=58
115916 Par ch=14 c=11 v=59
115928 Par ch=14 c=11 v=60
115936 Par ch=14 c=11 v=61
115944 Par ch=14 c=11 v=62
115949 On ch=14 n=62 v=0
115952 Par ch=14 c=11 v=63
115960 Par ch=14 c=11 v=64
115968 On ch=14 n=68 v=111
116160 On ch=14 n=68 v=0
116160 Par ch=14 c=11 v=64
116160 On ch=14 n=66 v=111
116172 Par ch=14 c=11 v=63
116184 Par ch=14 c=11 v=62
116196 Par ch=14 c=11 v=61
116208 Par ch=14 c=11 v=60
116220 Par ch=14 c=11 v=59
116228 Par ch=14 c=11 v=58
116240 Par ch=14 c=11 v=57
116252 Par ch=14 c=11 v=56
116264 Par ch=14 c=11 v=55
116276 Par ch=14 c=11 v=54
116288 Par ch=14 c=11 v=53
116296 Par ch=14 c=11 v=52
116308 Par ch=14 c=11 v=51
116320 Par ch=14 c=11 v=50
116332 Par ch=14 c=11 v=49
116344 Par ch=14 c=11 v=48
116429 On ch=14 n=66 v=0
116448 On ch=14 n=65 v=111
116525 On ch=14 n=65 v=0
116544 On ch=14 n=64 v=111
116621 On ch=14 n=64 v=0
116640 On ch=14 n=63 v=111
116717 On ch=14 n=63 v=0
116736 Par ch=14 c=11 v=64
116736 On ch=14 n=63 v=111
116890 On ch=14 n=63 v=0
116928 On ch=14 n=58 v=111
117043 On ch=14 n=58 v=0
117072 On ch=14 n=58 v=111
117103 On ch=14 n=58 v=0
117120 On ch=14 n=63 v=111
117274 On ch=14 n=63 v=0
117312 On ch=14 n=58 v=111
117466 On ch=14 n=58 v=0
117504 On ch=14 n=75 v=111
117535 On ch=14 n=75 v=0
117576 On ch=14 n=70 v=111
117592 On ch=14 n=70 v=0
117600 On ch=14 n=63 v=111
117631 On ch=14 n=63 v=0
117888 On ch=14 n=75 v=111
117919 On ch=14 n=75 v=0
117960 On ch=14 n=70 v=111
117976 On ch=14 n=70 v=0
117984 On ch=14 n=63 v=111
118015 On ch=14 n=63 v=0
118272 Par ch=14 c=11 v=64
118272 On ch=14 n=70 v=95
118272 On ch=14 n=58 v=95
118296 Par ch=14 c=11 v=63
118320 Par ch=14 c=11 v=62
118340 Par ch=14 c=11 v=61
118364 Par ch=14 c=11 v=60
118388 Par ch=14 c=11 v=59
118408 Par ch=14 c=11 v=58
118432 Par ch=14 c=11 v=57
118456 Par ch=14 c=11 v=56
118476 Par ch=14 c=11 v=55
118500 Par ch=14 c=11 v=54
118524 Par ch=14 c=11 v=53
118544 Par ch=14 c=11 v=52
118560 On ch=14 n=58 v=0
118560 On ch=14 n=70 v=0
118560 On ch=14 n=57 v=95
118560 On ch=14 n=69 v=95
118568 Par ch=14 c=11 v=51
118592 Par ch=14 c=11 v=50
118612 Par ch=14 c=11 v=49
118636 Par ch=14 c=11 v=48
118637 On ch=14 n=69 v=0
118637 On ch=14 n=57 v=0
118656 On ch=14 n=70 v=95
118656 On ch=14 n=58 v=95
118944 On ch=14 n=58 v=0
118944 On ch=14 n=70 v=0
118944 On ch=14 n=69 v=95
118944 On ch=14 n=57 v=95
119021 On ch=14 n=57 v=0
119021 On ch=14 n=69 v=0
119040 Par ch=14 c=11 v=48
119040 On ch=14 n=70 v=95
119040 On ch=14 n=58 v=95
119052 Par ch=14 c=11 v=49
119064 Par ch=14 c=11 v=50
119076 Par ch=14 c=11 v=51
119088 Par ch=14 c=11 v=52
119100 Par ch=14 c=11 v=53
119112 Par ch=14 c=11 v=54
119124 Par ch=14 c=11 v=55
119136 Par ch=14 c=11 v=56
119148 Par ch=14 c=11 v=57
119160 Par ch=14 c=11 v=58
119168 Par ch=14 c=11 v=59
119180 Par ch=14 c=11 v=60
119192 Par ch=14 c=11 v=61
119204 Par ch=14 c=11 v=62
119216 Par ch=14 c=11 v=63
119228 Par ch=14 c=11 v=64
119240 Par ch=14 c=11 v=65
119252 Par ch=14 c=11 v=66
119264 Par ch=14 c=11 v=67
119276 Par ch=14 c=11 v=68
119288 Par ch=14 c=11 v=69
119296 Par ch=14 c=11 v=70
119308 Par ch=14 c=11 v=71
119320 Par ch=14 c=11 v=72
119328 On ch=14 n=58 v=0
119328 On ch=14 n=70 v=0
119328 On ch=14 n=71 v=95
119328 On ch=14 n=59 v=95
119332 Par ch=14 c=11 v=73
119344 Par ch=14 c=11 v=74
119356 Par ch=14 c=11 v=75
119368 Par ch=14 c=11 v=76
119380 Par ch=14 c=11 v=77
119392 Par ch=14 c=11 v=78
119404 Par ch=14 c=11 v=79
119405 On ch=14 n=59 v=0
119405 On ch=14 n=71 v=0
119416 Par ch=14 c=11 v=80
119424 Par ch=14 c=11 v=80
119424 On ch=14 n=70 v=95
119424 On ch=14 n=58 v=95
119448 Par ch=14 c=11 v=79
119468 Par ch=14 c=11 v=78
119488 Par ch=14 c=11 v=77
119512 Par ch=14 c=11 v=76
119532 Par ch=14 c=11 v=75
119552 Par ch=14 c=11 v=74
119576 Par ch=14 c=11 v=73
119596 Par ch=14 c=11 v=72
119616 Par ch=14 c=11 v=71
119640 Par ch=14 c=11 v=70
119660 Par ch=14 c=11 v=69
119680 Par ch=14 c=11 v=68
119704 Par ch=14 c=11 v=67
119724 Par ch=14 c=11 v=66
119744 Par ch=14 c=11 v=65
119768 Par ch=14 c=11 v=64
119962 On ch=14 n=58 v=0
119962 On ch=14 n=70 v=0
120096 Par ch=14 c=11 v=64
120096 On ch=14 n=56 v=111
120104 Par ch=14 c=11 v=63
120108 Par ch=14 c=11 v=62
120116 Par ch=14 c=11 v=61
120120 Par ch=14 c=11 v=60
120128 Par ch=14 c=11 v=59
120132 Par ch=14 c=11 v=58
120136 Par ch=14 c=11 v=57
120144 Par ch=14 c=11 v=56
120148 Par ch=14 c=11 v=55
120156 Par ch=14 c=11 v=54
120160 Par ch=14 c=11 v=53
120164 Par ch=14 c=11 v=52
120172 Par ch=14 c=11 v=51
120176 Par ch=14 c=11 v=50
120184 Par ch=14 c=11 v=49
120188 Par ch=14 c=11 v=48
120269 On ch=14 n=56 v=0
120480 Par ch=14 c=11 v=64
120480 On ch=14 n=65 v=111
120488 Par ch=14 c=11 v=63
120492 Par ch=14 c=11 v=62
120500 Par ch=14 c=11 v=61
120504 Par ch=14 c=11 v=60
120512 Par ch=14 c=11 v=59
120516 Par ch=14 c=11 v=58
120520 Par ch=14 c=11 v=57
120528 Par ch=14 c=11 v=56
120532 Par ch=14 c=11 v=55
120540 Par ch=14 c=11 v=54
120544 Par ch=14 c=11 v=53
120548 Par ch=14 c=11 v=52
120556 Par ch=14 c=11 v=51
120560 Par ch=14 c=11 v=50
120568 Par ch=14 c=11 v=49
120572 Par ch=14 c=11 v=48
120653 On ch=14 n=65 v=0
120864 Par ch=14 c=11 v=64
120864 On ch=14 n=66 v=111
120872 Par ch=14 c=11 v=63
120876 Par ch=14 c=11 v=62
120884 Par ch=14 c=11 v=61
120888 Par ch=14 c=11 v=60
120896 Par ch=14 c=11 v=59
120900 Par ch=14 c=11 v=58
120904 Par ch=14 c=11 v=57
120912 Par ch=14 c=11 v=56
120916 Par ch=14 c=11 v=55
120924 Par ch=14 c=11 v=54
120928 Par ch=14 c=11 v=53
120932 Par ch=14 c=11 v=52
120940 Par ch=14 c=11 v=51
120944 Par ch=14 c=11 v=50
120952 Par ch=14 c=11 v=49
120956 Par ch=14 c=11 v=48
121037 On ch=14 n=66 v=0
121248 Par ch=14 c=11 v=64
121248 On ch=14 n=75 v=111
121279 On ch=14 n=75 v=0
121320 On ch=14 n=74 v=111
121336 On ch=14 n=74 v=0
121344 On ch=14 n=73 v=111
121375 On ch=14 n=73 v=0
121416 On ch=14 n=72 v=111
121432 On ch=14 n=72 v=0
121440 On ch=14 n=71 v=111
121471 On ch=14 n=71 v=0
121512 On ch=14 n=70 v=111
121528 On ch=14 n=70 v=0
121536 On ch=14 n=69 v=111
121567 On ch=14 n=69 v=0
121608 On ch=14 n=68 v=111
121624 On ch=14 n=68 v=0
121632 On ch=14 n=67 v=111
121663 On ch=14 n=67 v=0
121704 On ch=14 n=66 v=111
121720 On ch=14 n=66 v=0
122112 Par ch=14 c=11 v=64
122112 On ch=14 n=69 v=127
122112 On ch=14 n=57 v=127
122120 Par ch=14 c=11 v=63
122128 Par ch=14 c=11 v=62
122136 Par ch=14 c=11 v=61
122144 Par ch=14 c=11 v=60
122152 Par ch=14 c=11 v=59
122160 Par ch=14 c=11 v=58
122168 Par ch=14 c=11 v=57
122176 Par ch=14 c=11 v=56
122184 Par ch=14 c=11 v=55
122192 Par ch=14 c=11 v=54
122200 Par ch=14 c=11 v=53
122208 Par ch=14 c=11 v=52
122216 Par ch=14 c=11 v=51
122224 Par ch=14 c=11 v=50
122232 Par ch=14 c=11 v=49
122240 Par ch=14 c=11 v=48
122248 Par ch=14 c=11 v=47
122256 Par ch=14 c=11 v=46
122264 Par ch=14 c=11 v=45
122272 Par ch=14 c=11 v=44
122280 Par ch=14 c=11 v=43
122288 Par ch=14 c=11 v=42
122296 Par ch=14 c=11 v=41
122304 Par ch=14 c=11 v=40
122308 Par ch=14 c=11 v=39
122316 Par ch=14 c=11 v=38
122324 Par ch=14 c=11 v=37
122332 Par ch=14 c=11 v=36
122340 Par ch=14 c=11 v=35
122348 Par ch=14 c=11 v=34
122356 Par ch=14 c=11 v=33
122364 Par ch=14 c=11 v=32
122372 Par ch=14 c=11 v=31
122380 Par ch=14 c=11 v=30
122388 Par ch=14 c=11 v=29
122396 Par ch=14 c=11 v=28
122404 Par ch=14 c=11 v=27
122412 Par ch=14 c=11 v=26
122420 Par ch=14 c=11 v=25
122428 Par ch=14 c=11 v=24
122436 Par ch=14 c=11 v=23
122444 Par ch=14 c=11 v=22
122452 Par ch=14 c=11 v=21
122460 Par ch=14 c=11 v=20
122468 Par ch=14 c=11 v=19
122476 Par ch=14 c=11 v=18
122484 Par ch=14 c=11 v=17
122492 Par ch=14 c=11 v=16
122496 On ch=14 n=57 v=0
122496 On ch=14 n=69 v=0
122880 Par ch=14 c=11 v=64
123264 On ch=14 n=69 v=111
123295 On ch=14 n=69 v=0
123360 On ch=14 n=70 v=111
123475 On ch=14 n=70 v=0
124032 On ch=14 n=70 v=111
124063 On ch=14 n=70 v=0
124128 On ch=14 n=73 v=111
124243 On ch=14 n=73 v=0
124800 On ch=14 n=72 v=111
124800 On ch=14 n=69 v=111
124877 On ch=14 n=69 v=0
124877 On ch=14 n=72 v=0
124896 On ch=14 n=72 v=111
124896 On ch=14 n=69 v=111
124922 On ch=14 n=69 v=0
124922 On ch=14 n=72 v=0
124928 On ch=14 n=72 v=111
124928 On ch=14 n=69 v=111
124954 On ch=14 n=69 v=0
124954 On ch=14 n=72 v=0
124960 On ch=14 n=72 v=111
124960 On ch=14 n=69 v=111
124986 On ch=14 n=69 v=0
124986 On ch=14 n=72 v=0
124992 On ch=14 n=72 v=111
124992 On ch=14 n=69 v=111
125069 On ch=14 n=69 v=0
125069 On ch=14 n=72 v=0
125088 On ch=14 n=72 v=111
125088 On ch=14 n=69 v=111
125114 On ch=14 n=69 v=0
125114 On ch=14 n=72 v=0
125120 On ch=14 n=72 v=111
125120 On ch=14 n=69 v=111
125146 On ch=14 n=69 v=0
125146 On ch=14 n=72 v=0
125152 On ch=14 n=72 v=111
125152 On ch=14 n=69 v=111
125178 On ch=14 n=69 v=0
125178 On ch=14 n=72 v=0
125184 On ch=14 n=72 v=111
125184 On ch=14 n=69 v=111
125222 On ch=14 n=69 v=0
125222 On ch=14 n=72 v=0
125256 On ch=14 n=72 v=111
125256 On ch=14 n=69 v=111
125275 On ch=14 n=69 v=0
125275 On ch=14 n=72 v=0
125280 On ch=14 n=72 v=111
125280 On ch=14 n=69 v=111
125318 On ch=14 n=69 v=0
125318 On ch=14 n=72 v=0
125352 On ch=14 n=72 v=111
125352 On ch=14 n=69 v=111
125371 On ch=14 n=69 v=0
125371 On ch=14 n=72 v=0
125376 On ch=14 n=72 v=111
125376 On ch=14 n=69 v=111
125414 On ch=14 n=69 v=0
125414 On ch=14 n=72 v=0
125448 On ch=14 n=72 v=111
125448 On ch=14 n=69 v=111
125467 On ch=14 n=69 v=0
125467 On ch=14 n=72 v=0
125472 On ch=14 n=72 v=111
125472 On ch=14 n=69 v=111
125510 On ch=14 n=69 v=0
125510 On ch=14 n=72 v=0
125544 On ch=14 n=72 v=111
125544 On ch=14 n=69 v=111
125563 On ch=14 n=69 v=0
125563 On ch=14 n=72 v=0
125568 On ch=14 n=75 v=111
125568 On ch=14 n=72 v=111
125606 On ch=14 n=72 v=0
125606 On ch=14 n=75 v=0
125640 On ch=14 n=72 v=111
125640 On ch=14 n=75 v=111
125659 On ch=14 n=75 v=0
125659 On ch=14 n=72 v=0
125664 On ch=14 n=72 v=111
125664 On ch=14 n=75 v=111
125690 On ch=14 n=75 v=0
125690 On ch=14 n=72 v=0
125696 On ch=14 n=72 v=111
125696 On ch=14 n=75 v=111
125722 On ch=14 n=75 v=0
125722 On ch=14 n=72 v=0
125728 On ch=14 n=72 v=111
125728 On ch=14 n=75 v=111
125754 On ch=14 n=75 v=0
125754 On ch=14 n=72 v=0
125760 On ch=14 n=75 v=111
125760 On ch=14 n=72 v=111
125798 On ch=14 n=72 v=0
125798 On ch=14 n=75 v=0
125832 On ch=14 n=72 v=111
125832 On ch=14 n=75 v=111
125851 On ch=14 n=75 v=0
125851 On ch=14 n=72 v=0
125856 On ch=14 n=72 v=111
125856 On ch=14 n=75 v=111
125882 On ch=14 n=75 v=0
125882 On ch=14 n=72 v=0
125888 On ch=14 n=72 v=111
125888 On ch=14 n=75 v=111
125914 On ch=14 n=75 v=0
125914 On ch=14 n=72 v=0
125920 On ch=14 n=72 v=111
125920 On ch=14 n=75 v=111
125946 On ch=14 n=75 v=0
125946 On ch=14 n=72 v=0
125952 Par ch=14 c=11 v=64
125952 On ch=14 n=75 v=111
125952 On ch=14 n=71 v=111
125976 Par ch=14 c=11 v=65
125990 On ch=14 n=71 v=0
125990 On ch=14 n=75 v=0
126000 Par ch=14 c=11 v=66
126000 On ch=14 n=75 v=111
126000 On ch=14 n=71 v=111
126020 Par ch=14 c=11 v=67
126038 On ch=14 n=71 v=0
126038 On ch=14 n=75 v=0
126044 Par ch=14 c=11 v=68
126048 On ch=14 n=75 v=111
126048 On ch=14 n=71 v=111
126068 Par ch=14 c=11 v=69
126086 On ch=14 n=71 v=0
126086 On ch=14 n=75 v=0
126088 Par ch=14 c=11 v=70
126096 On ch=14 n=75 v=111
126096 On ch=14 n=71 v=111
126112 Par ch=14 c=11 v=71
126134 On ch=14 n=71 v=0
126134 On ch=14 n=75 v=0
126136 Par ch=14 c=11 v=72
126144 On ch=14 n=75 v=111
126144 On ch=14 n=71 v=111
126156 Par ch=14 c=11 v=73
126170 On ch=14 n=71 v=0
126170 On ch=14 n=75 v=0
126176 On ch=14 n=75 v=111
126176 On ch=14 n=71 v=111
126180 Par ch=14 c=11 v=74
126202 On ch=14 n=71 v=0
126202 On ch=14 n=75 v=0
126204 Par ch=14 c=11 v=75
126208 On ch=14 n=75 v=111
126208 On ch=14 n=71 v=111
126224 Par ch=14 c=11 v=76
126234 On ch=14 n=71 v=0
126234 On ch=14 n=75 v=0
126240 On ch=14 n=75 v=111
126240 On ch=14 n=71 v=111
126248 Par ch=14 c=11 v=77
126266 On ch=14 n=71 v=0
126266 On ch=14 n=75 v=0
126272 Par ch=14 c=11 v=78
126272 On ch=14 n=75 v=111
126272 On ch=14 n=71 v=111
126292 Par ch=14 c=11 v=79
126298 On ch=14 n=71 v=0
126298 On ch=14 n=75 v=0
126304 On ch=14 n=75 v=111
126304 On ch=14 n=71 v=111
126316 Par ch=14 c=11 v=80
126330 On ch=14 n=71 v=0
126330 On ch=14 n=75 v=0
126336 Par ch=14 c=11 v=64
126336 On ch=14 n=79 v=127
126336 On ch=14 n=72 v=127
126367 On ch=14 n=72 v=0
126367 On ch=14 n=79 v=0
126384 On ch=14 n=60 v=127
126384 On ch=14 n=72 v=127
126415 On ch=14 n=72 v=0
126415 On ch=14 n=60 v=0
134784 Par ch=14 c=11 v=85
134784 On ch=14 n=70 v=47
134784 On ch=14 n=73 v=47
134800 Par ch=14 c=11 v=86
134812 Par ch=14 c=11 v=87
134828 Par ch=14 c=11 v=88
134840 Par ch=14 c=11 v=89
134856 Par ch=14 c=11 v=90
134868 Par ch=14 c=11 v=91
134880 Par ch=14 c=11 v=92
134896 Par ch=14 c=11 v=93
134908 Par ch=14 c=11 v=94
134924 Par ch=14 c=11 v=95
134936 Par ch=14 c=11 v=96
134952 Par ch=14 c=11 v=97
134964 Par ch=14 c=11 v=98
134976 Par ch=14 c=11 v=99
134992 Par ch=14 c=11 v=100
135004 Par ch=14 c=11 v=101
135020 Par ch=14 c=11 v=102
135032 Par ch=14 c=11 v=103
135048 Par ch=14 c=11 v=104
135060 Par ch=14 c=11 v=105
135072 Par ch=14 c=11 v=106
135088 Par ch=14 c=11 v=107
135100 Par ch=14 c=11 v=108
135116 Par ch=14 c=11 v=109
135128 Par ch=14 c=11 v=110
135144 Par ch=14 c=11 v=111
135156 Par ch=14 c=11 v=112
135322 On ch=14 n=73 v=0
135322 On ch=14 n=70 v=0
135552 Par ch=14 c=11 v=64
135552 On ch=14 n=84 v=111
135583 On ch=14 n=84 v=0
135624 On ch=14 n=82 v=111
135640 On ch=14 n=82 v=0
135648 On ch=14 n=80 v=111
135679 On ch=14 n=80 v=0
135720 On ch=14 n=79 v=111
135736 On ch=14 n=79 v=0
135744 On ch=14 n=77 v=111
135775 On ch=14 n=77 v=0
135816 On ch=14 n=75 v=111
135832 On ch=14 n=75 v=0
135840 On ch=14 n=73 v=111
135871 On ch=14 n=73 v=0
135912 On ch=14 n=72 v=111
135928 On ch=14 n=72 v=0
135936 On ch=14 n=80 v=111
135967 On ch=14 n=80 v=0
136008 On ch=14 n=79 v=111
136024 On ch=14 n=79 v=0
136032 On ch=14 n=77 v=111
136063 On ch=14 n=77 v=0
136104 On ch=14 n=75 v=111
136120 On ch=14 n=75 v=0
136128 On ch=14 n=73 v=111
136159 On ch=14 n=73 v=0
136320 On ch=14 n=67 v=111
136356 Par ch=14 c=11 v=16
136364 Par ch=14 c=11 v=17
136372 Par ch=14 c=11 v=18
136384 Par ch=14 c=11 v=19
136392 Par ch=14 c=11 v=20
136400 Par ch=14 c=11 v=21
136408 Par ch=14 c=11 v=22
136420 Par ch=14 c=11 v=23
136428 Par ch=14 c=11 v=24
136436 Par ch=14 c=11 v=25
136444 Par ch=14 c=11 v=26
136456 Par ch=14 c=11 v=27
136464 Par ch=14 c=11 v=28
136472 Par ch=14 c=11 v=29
136484 Par ch=14 c=11 v=30
136492 Par ch=14 c=11 v=31
136500 Par ch=14 c=11 v=32
136508 Par ch=14 c=11 v=33
136520 Par ch=14 c=11 v=34
136528 Par ch=14 c=11 v=35
136536 Par ch=14 c=11 v=36
136544 Par ch=14 c=11 v=37
136556 Par ch=14 c=11 v=38
136564 Par ch=14 c=11 v=39
136572 Par ch=14 c=11 v=40
136580 Par ch=14 c=11 v=41
136592 Par ch=14 c=11 v=42
136600 Par ch=14 c=11 v=43
136608 Par ch=14 c=11 v=44
136620 Par ch=14 c=11 v=45
136628 Par ch=14 c=11 v=46
136636 Par ch=14 c=11 v=47
136644 Par ch=14 c=11 v=48
136656 Par ch=14 c=11 v=49
136664 Par ch=14 c=11 v=50
136672 Par ch=14 c=11 v=51
136680 Par ch=14 c=11 v=52
136692 Par ch=14 c=11 v=53
136700 Par ch=14 c=11 v=54
136708 Par ch=14 c=11 v=55
136716 Par ch=14 c=11 v=56
136728 Par ch=14 c=11 v=57
136736 Par ch=14 c=11 v=58
136744 Par ch=14 c=11 v=59
136756 Par ch=14 c=11 v=60
136764 Par ch=14 c=11 v=61
136772 Par ch=14 c=11 v=62
136780 Par ch=14 c=11 v=63
136792 Par ch=14 c=11 v=64
136800 Par ch=14 c=11 v=65
136808 Par ch=14 c=11 v=66
136816 Par ch=14 c=11 v=67
136828 Par ch=14 c=11 v=68
136836 Par ch=14 c=11 v=69
136844 Par ch=14 c=11 v=70
136856 Par ch=14 c=11 v=71
136858 On ch=14 n=67 v=0
136864 Par ch=14 c=11 v=72
136872 Par ch=14 c=11 v=73
136880 Par ch=14 c=11 v=74
136892 Par ch=14 c=11 v=75
136896 On ch=14 n=65 v=111
136900 Par ch=14 c=11 v=76
136908 Par ch=14 c=11 v=77
136916 Par ch=14 c=11 v=78
136928 Par ch=14 c=11 v=79
136936 Par ch=14 c=11 v=80
136944 Par ch=14 c=11 v=81
136952 Par ch=14 c=11 v=82
136964 Par ch=14 c=11 v=83
136972 Par ch=14 c=11 v=84
136980 Par ch=14 c=11 v=85
136992 Par ch=14 c=11 v=86
137000 Par ch=14 c=11 v=87
137008 Par ch=14 c=11 v=88
137016 Par ch=14 c=11 v=89
137028 Par ch=14 c=11 v=90
137036 Par ch=14 c=11 v=91
137044 Par ch=14 c=11 v=92
137050 On ch=14 n=65 v=0
137052 Par ch=14 c=11 v=93
137064 Par ch=14 c=11 v=94
137072 Par ch=14 c=11 v=95
137080 Par ch=14 c=11 v=96
137088 Par ch=14 c=11 v=64
137088 On ch=14 n=63 v=127
137126 On ch=14 n=63 v=0
153216 On ch=14 n=67 v=31
153216 On ch=14 n=63 v=31
154022 On ch=14 n=63 v=0
154022 On ch=14 n=67 v=0
156672 On ch=14 n=72 v=47
156672 On ch=14 n=65 v=47
156902 On ch=14 n=65 v=0
156902 On ch=14 n=72 v=0
157056 On ch=14 n=72 v=47
157056 On ch=14 n=65 v=47
157286 On ch=14 n=65 v=0
157286 On ch=14 n=72 v=0
157440 On ch=14 n=65 v=47
157978 On ch=14 n=65 v=0
158208 Par ch=14 c=0 v=0
158208 Par ch=14 c=32 v=0
158208 PrCh ch=14 p=59
158208 On ch=14 n=58 v=47
158208 On ch=14 n=61 v=47
158592 Par ch=14 c=11 v=64
158604 Par ch=14 c=11 v=65
158616 Par ch=14 c=11 v=66
158628 Par ch=14 c=11 v=67
158640 Par ch=14 c=11 v=68
158652 Par ch=14 c=11 v=69
158664 Par ch=14 c=11 v=70
158676 Par ch=14 c=11 v=71
158688 Par ch=14 c=11 v=72
158700 Par ch=14 c=11 v=73
158712 Par ch=14 c=11 v=74
158720 Par ch=14 c=11 v=75
158732 Par ch=14 c=11 v=76
158744 Par ch=14 c=11 v=77
158756 Par ch=14 c=11 v=78
158768 Par ch=14 c=11 v=79
158780 Par ch=14 c=11 v=80
158792 Par ch=14 c=11 v=81
158804 Par ch=14 c=11 v=82
158816 Par ch=14 c=11 v=83
158828 Par ch=14 c=11 v=84
158840 Par ch=14 c=11 v=85
158848 Par ch=14 c=11 v=86
158860 Par ch=14 c=11 v=87
158872 Par ch=14 c=11 v=88
158884 Par ch=14 c=11 v=89
158896 Par ch=14 c=11 v=90
158908 Par ch=14 c=11 v=91
158920 Par ch=14 c=11 v=92
158932 Par ch=14 c=11 v=93
158944 Par ch=14 c=11 v=94
158956 Par ch=14 c=11 v=95
158968 Par ch=14 c=11 v=96
158976 On ch=14 n=61 v=0
158976 On ch=14 n=58 v=0
158976 On ch=14 n=63 v=47
158976 On ch=14 n=60 v=47
159667 On ch=14 n=60 v=0
159667 On ch=14 n=63 v=0
159744 Par ch=14 c=11 v=64
159744 On ch=14 n=68 v=95
159744 On ch=14 n=65 v=95
160205 On ch=14 n=65 v=0
160205 On ch=14 n=68 v=0
160512 Par ch=14 c=0 v=0
160512 Par ch=14 c=32 v=0
160512 PrCh ch=14 p=56
160512 Par ch=14 c=11 v=126
160512 On ch=14 n=72 v=63
160512 On ch=14 n=75 v=63
160524 Par ch=14 c=11 v=125
160536 Par ch=14 c=11 v=124
160548 Par ch=14 c=11 v=123
160556 Par ch=14 c=11 v=122
160568 Par ch=14 c=11 v=121
160580 Par ch=14 c=11 v=120
160588 Par ch=14 c=11 v=119
160600 Par ch=14 c=11 v=118
160612 Par ch=14 c=11 v=117
160624 Par ch=14 c=11 v=116
160632 Par ch=14 c=11 v=115
160644 Par ch=14 c=11 v=114
160656 Par ch=14 c=11 v=113
160664 Par ch=14 c=11 v=112
160676 Par ch=14 c=11 v=111
160688 Par ch=14 c=11 v=110
160700 Par ch=14 c=11 v=109
160708 Par ch=14 c=11 v=108
160720 Par ch=14 c=11 v=107
160732 Par ch=14 c=11 v=106
160740 Par ch=14 c=11 v=105
160752 Par ch=14 c=11 v=104
160764 Par ch=14 c=11 v=103
160776 Par ch=14 c=11 v=102
160784 Par ch=14 c=11 v=101
160796 Par ch=14 c=11 v=100
160800 On ch=14 n=72 v=0
160800 On ch=14 n=71 v=63
160808 Par ch=14 c=11 v=99
160816 Par ch=14 c=11 v=98
160819 On ch=14 n=75 v=0
160828 Par ch=14 c=11 v=97
160840 Par ch=14 c=11 v=96
160848 Par ch=14 c=11 v=95
160860 Par ch=14 c=11 v=94
160872 Par ch=14 c=11 v=93
160877 On ch=14 n=71 v=0
160884 Par ch=14 c=11 v=92
160892 Par ch=14 c=11 v=91
160896 On ch=14 n=72 v=63
160896 On ch=14 n=75 v=63
160904 Par ch=14 c=11 v=90
160916 Par ch=14 c=11 v=89
160924 Par ch=14 c=11 v=88
160936 Par ch=14 c=11 v=87
160948 Par ch=14 c=11 v=86
160960 Par ch=14 c=11 v=85
160968 Par ch=14 c=11 v=84
160980 Par ch=14 c=11 v=83
160992 Par ch=14 c=11 v=82
161000 Par ch=14 c=11 v=81
161012 Par ch=14 c=11 v=80
161024 Par ch=14 c=11 v=79
161036 Par ch=14 c=11 v=78
161044 Par ch=14 c=11 v=77
161056 Par ch=14 c=11 v=76
161068 Par ch=14 c=11 v=75
161076 Par ch=14 c=11 v=74
161088 Par ch=14 c=11 v=73
161100 Par ch=14 c=11 v=72
161112 Par ch=14 c=11 v=71
161120 Par ch=14 c=11 v=70
161132 Par ch=14 c=11 v=69
161144 Par ch=14 c=11 v=68
161152 Par ch=14 c=11 v=67
161164 Par ch=14 c=11 v=66
161176 Par ch=14 c=11 v=65
161184 On ch=14 n=72 v=0
161184 Par ch=14 c=11 v=64
161184 On ch=14 n=71 v=63
161203 On ch=14 n=75 v=0
161261 On ch=14 n=71 v=0
161280 Par ch=14 c=11 v=64
161280 On ch=14 n=75 v=47
161280 On ch=14 n=72 v=47
161304 Par ch=14 c=11 v=63
161328 Par ch=14 c=11 v=62
161348 Par ch=14 c=11 v=61
161372 Par ch=14 c=11 v=60
161396 Par ch=14 c=11 v=59
161416 Par ch=14 c=11 v=58
161440 Par ch=14 c=11 v=57
161464 Par ch=14 c=11 v=56
161484 Par ch=14 c=11 v=55
161508 Par ch=14 c=11 v=54
161532 Par ch=14 c=11 v=53
161552 Par ch=14 c=11 v=52
161576 Par ch=14 c=11 v=51
161600 Par ch=14 c=11 v=50
161620 Par ch=14 c=11 v=49
161644 Par ch=14 c=11 v=48
161741 On ch=14 n=72 v=0
161741 On ch=14 n=75 v=0
162048 Par ch=14 c=11 v=64
164064 On ch=14 n=61 v=47
164218 On ch=14 n=61 v=0
164448 On ch=14 n=61 v=47
164602 On ch=14 n=61 v=0
164736 Par ch=14 c=11 v=64
164736 On ch=14 n=60 v=31
164744 Par ch=14 c=11 v=65
164748 Par ch=14 c=11 v=66
164756 Par ch=14 c=11 v=67
164760 Par ch=14 c=11 v=68
164768 Par ch=14 c=11 v=69
164772 Par ch=14 c=11 v=70
164776 Par ch=14 c=11 v=71
164784 Par ch=14 c=11 v=72
164788 Par ch=14 c=11 v=73
164796 Par ch=14 c=11 v=74
164800 Par ch=14 c=11 v=75
164804 Par ch=14 c=11 v=76
164812 Par ch=14 c=11 v=77
164813 On ch=14 n=60 v=0
164816 Par ch=14 c=11 v=78
164824 Par ch=14 c=11 v=79
164828 Par ch=14 c=11 v=80
164832 Par ch=14 c=11 v=80
164832 On ch=14 n=63 v=31
164848 Par ch=14 c=11 v=79
164864 Par ch=14 c=11 v=78
164880 Par ch=14 c=11 v=77
164890 On ch=14 n=63 v=0
164896 Par ch=14 c=11 v=76
164904 On ch=14 n=62 v=31
164912 Par ch=14 c=11 v=75
164923 On ch=14 n=62 v=0
164928 Par ch=14 c=11 v=74
164928 On ch=14 n=61 v=31
164944 Par ch=14 c=11 v=73
164960 Par ch=14 c=11 v=72
164976 Par ch=14 c=11 v=71
164992 Par ch=14 c=11 v=70
165005 On ch=14 n=61 v=0
165008 Par ch=14 c=11 v=69
165024 Par ch=14 c=11 v=68
165024 On ch=14 n=60 v=31
165040 Par ch=14 c=11 v=67
165056 Par ch=14 c=11 v=66
165072 Par ch=14 c=11 v=65
165082 On ch=14 n=60 v=0
165088 Par ch=14 c=11 v=64
165096 On ch=14 n=59 v=31
165115 On ch=14 n=59 v=0
165120 On ch=14 n=60 v=31
165197 On ch=14 n=60 v=0
165792 On ch=14 n=61 v=31
165869 On ch=14 n=61 v=0
165888 Par ch=14 c=11 v=64
165888 On ch=14 n=60 v=31
165896 Par ch=14 c=11 v=65
165900 Par ch=14 c=11 v=66
165908 Par ch=14 c=11 v=67
165912 Par ch=14 c=11 v=68
165920 Par ch=14 c=11 v=69
165924 Par ch=14 c=11 v=70
165928 Par ch=14 c=11 v=71
165936 Par ch=14 c=11 v=72
165940 Par ch=14 c=11 v=73
165948 Par ch=14 c=11 v=74
165952 Par ch=14 c=11 v=75
165956 Par ch=14 c=11 v=76
165964 Par ch=14 c=11 v=77
165965 On ch=14 n=60 v=0
165968 Par ch=14 c=11 v=78
165976 Par ch=14 c=11 v=79
165980 Par ch=14 c=11 v=80
165984 Par ch=14 c=11 v=80
165984 On ch=14 n=63 v=31
166000 Par ch=14 c=11 v=79
166016 Par ch=14 c=11 v=78
166032 Par ch=14 c=11 v=77
166042 On ch=14 n=63 v=0
166048 Par ch=14 c=11 v=76
166056 On ch=14 n=62 v=31
166064 Par ch=14 c=11 v=75
166075 On ch=14 n=62 v=0
166080 Par ch=14 c=11 v=74
166080 On ch=14 n=61 v=31
166096 Par ch=14 c=11 v=73
166112 Par ch=14 c=11 v=72
166128 Par ch=14 c=11 v=71
166144 Par ch=14 c=11 v=70
166157 On ch=14 n=61 v=0
166160 Par ch=14 c=11 v=69
166176 Par ch=14 c=11 v=68
166176 On ch=14 n=60 v=31
166192 Par ch=14 c=11 v=67
166208 Par ch=14 c=11 v=66
166224 Par ch=14 c=11 v=65
166234 On ch=14 n=60 v=0
166240 Par ch=14 c=11 v=64
166248 On ch=14 n=59 v=31
166267 On ch=14 n=59 v=0
166272 On ch=14 n=60 v=31
166349 On ch=14 n=60 v=0
168576 Par ch=14 c=11 v=64
168576 On ch=14 n=76 v=47
168580 Par ch=14 c=11 v=66
168584 Par ch=14 c=11 v=69
168588 Par ch=14 c=11 v=71
168592 Par ch=14 c=11 v=74
168596 Par ch=14 c=11 v=77
168600 Par ch=14 c=11 v=79
168604 Par ch=14 c=11 v=82
168608 Par ch=14 c=11 v=85
168612 Par ch=14 c=11 v=87
168616 Par ch=14 c=11 v=90
168620 Par ch=14 c=11 v=92
168624 Par ch=14 c=11 v=95
168628 Par ch=14 c=11 v=98
168632 Par ch=14 c=11 v=100
168636 Par ch=14 c=11 v=103
168640 Par ch=14 c=11 v=106
168644 Par ch=14 c=11 v=108
168648 Par ch=14 c=11 v=111
168652 Par ch=14 c=11 v=113
168656 Par ch=14 c=11 v=116
168660 Par ch=14 c=11 v=119
168664 Par ch=14 c=11 v=121
168668 Par ch=14 c=11 v=124
168672 On ch=14 n=76 v=0
168672 Par ch=14 c=11 v=126
168672 On ch=14 n=75 v=47
168684 Par ch=14 c=11 v=125
168696 Par ch=14 c=11 v=124
168704 Par ch=14 c=11 v=123
168716 Par ch=14 c=11 v=122
168728 Par ch=14 c=11 v=121
168736 Par ch=14 c=11 v=120
168748 Par ch=14 c=11 v=119
168756 Par ch=14 c=11 v=118
168768 Par ch=14 c=11 v=117
168780 Par ch=14 c=11 v=116
168788 Par ch=14 c=11 v=115
168800 Par ch=14 c=11 v=114
168812 Par ch=14 c=11 v=113
168820 Par ch=14 c=11 v=112
168832 Par ch=14 c=11 v=111
168840 Par ch=14 c=11 v=110
168852 Par ch=14 c=11 v=109
168864 Par ch=14 c=11 v=108
168872 Par ch=14 c=11 v=107
168884 Par ch=14 c=11 v=106
168896 Par ch=14 c=11 v=105
168904 Par ch=14 c=11 v=104
168916 Par ch=14 c=11 v=103
168924 Par ch=14 c=11 v=102
168936 Par ch=14 c=11 v=101
168948 Par ch=14 c=11 v=100
168956 Par ch=14 c=11 v=99
168968 Par ch=14 c=11 v=98
168980 Par ch=14 c=11 v=97
168988 Par ch=14 c=11 v=96
169000 Par ch=14 c=11 v=95
169008 Par ch=14 c=11 v=94
169020 Par ch=14 c=11 v=93
169032 Par ch=14 c=11 v=92
169040 Par ch=14 c=11 v=91
169052 Par ch=14 c=11 v=90
169064 Par ch=14 c=11 v=89
169072 Par ch=14 c=11 v=88
169084 Par ch=14 c=11 v=87
169092 Par ch=14 c=11 v=86
169104 Par ch=14 c=11 v=85
169116 Par ch=14 c=11 v=84
169124 Par ch=14 c=11 v=83
169136 Par ch=14 c=11 v=82
169148 Par ch=14 c=11 v=81
169156 Par ch=14 c=11 v=80
169168 Par ch=14 c=11 v=79
169176 Par ch=14 c=11 v=78
169188 Par ch=14 c=11 v=77
169200 Par ch=14 c=11 v=76
169208 Par ch=14 c=11 v=75
169220 Par ch=14 c=11 v=74
169232 Par ch=14 c=11 v=73
169240 Par ch=14 c=11 v=72
169252 Par ch=14 c=11 v=71
169260 Par ch=14 c=11 v=70
169267 On ch=14 n=75 v=0
169272 Par ch=14 c=11 v=69
169284 Par ch=14 c=11 v=68
169292 Par ch=14 c=11 v=67
169304 Par ch=14 c=11 v=66
169316 Par ch=14 c=11 v=65
169324 Par ch=14 c=11 v=64
169324 Meta TrkEnd
TrkEnd
MTrk
0 Meta 0x21 00
0 Meta TrkName "TROMBONE"
192 Par ch=15 c=1 v=8
196 Par ch=15 c=7 v=127
200 Par ch=15 c=10 v=100
204 Par ch=15 c=11 v=64
208 Par ch=15 c=91 v=96
212 Par ch=15 c=93 v=48
216 Par ch=15 c=0 v=0
216 Par ch=15 c=32 v=0
216 PrCh ch=15 p=57
13440 Par ch=15 c=11 v=64
13440 On ch=15 n=52 v=79
13464 Par ch=15 c=11 v=65
13488 Par ch=15 c=11 v=66
13508 Par ch=15 c=11 v=67
13532 Par ch=15 c=11 v=68
13556 Par ch=15 c=11 v=69
13576 Par ch=15 c=11 v=70
13594 On ch=15 n=52 v=0
13600 Par ch=15 c=11 v=71
13624 Par ch=15 c=11 v=72
13632 On ch=15 n=55 v=79
13644 Par ch=15 c=11 v=73
13668 Par ch=15 c=11 v=74
13692 Par ch=15 c=11 v=75
13712 Par ch=15 c=11 v=76
13736 Par ch=15 c=11 v=77
13747 On ch=15 n=55 v=0
13760 Par ch=15 c=11 v=78
13776 On ch=15 n=53 v=79
13780 Par ch=15 c=11 v=79
13804 Par ch=15 c=11 v=80
13814 On ch=15 n=53 v=0
13824 On ch=15 n=52 v=79
13978 On ch=15 n=52 v=0
14208 Par ch=15 c=11 v=64
14208 On ch=15 n=60 v=111
14239 On ch=15 n=60 v=0
14280 On ch=15 n=58 v=111
14296 On ch=15 n=58 v=0
14304 On ch=15 n=56 v=111
14335 On ch=15 n=56 v=0
14376 On ch=15 n=55 v=111
14392 On ch=15 n=55 v=0
14400 On ch=15 n=53 v=111
14431 On ch=15 n=53 v=0
14472 On ch=15 n=51 v=111
14488 On ch=15 n=51 v=0
14496 On ch=15 n=49 v=111
14527 On ch=15 n=49 v=0
14568 On ch=15 n=48 v=111
14584 On ch=15 n=48 v=0
14592 On ch=15 n=56 v=111
14630 On ch=15 n=56 v=0
15744 On ch=15 n=63 v=111
15744 On ch=15 n=60 v=111
15775 On ch=15 n=60 v=0
15775 On ch=15 n=63 v=0
15840 On ch=15 n=63 v=111
15840 On ch=15 n=60 v=111
15871 On ch=15 n=60 v=0
15871 On ch=15 n=63 v=0
16000 On ch=15 n=60 v=111
16000 On ch=15 n=63 v=111
16021 On ch=15 n=63 v=0
16021 On ch=15 n=60 v=0
16032 On ch=15 n=60 v=111
16032 On ch=15 n=63 v=111
16053 On ch=15 n=63 v=0
16053 On ch=15 n=60 v=0
16064 On ch=15 n=60 v=111
16064 On ch=15 n=63 v=111
16085 On ch=15 n=63 v=0
16085 On ch=15 n=60 v=0
16096 On ch=15 n=60 v=111
16096 On ch=15 n=63 v=111
16117 On ch=15 n=63 v=0
16117 On ch=15 n=60 v=0
16128 On ch=15 n=60 v=111
16128 On ch=15 n=63 v=111
16159 On ch=15 n=63 v=0
16159 On ch=15 n=60 v=0
16224 On ch=15 n=60 v=111
16224 On ch=15 n=63 v=111
16255 On ch=15 n=63 v=0
16255 On ch=15 n=60 v=0
16384 On ch=15 n=63 v=111
16384 On ch=15 n=60 v=111
16405 On ch=15 n=60 v=0
16405 On ch=15 n=63 v=0
16416 On ch=15 n=63 v=111
16416 On ch=15 n=60 v=111
16437 On ch=15 n=60 v=0
16437 On ch=15 n=63 v=0
16448 On ch=15 n=63 v=111
16448 On ch=15 n=60 v=111
16469 On ch=15 n=60 v=0
16469 On ch=15 n=63 v=0
16480 On ch=15 n=63 v=111
16480 On ch=15 n=60 v=111
16501 On ch=15 n=60 v=0
16501 On ch=15 n=63 v=0
16512 On ch=15 n=63 v=111
16512 On ch=15 n=60 v=111
16550 On ch=15 n=60 v=0
16550 On ch=15 n=63 v=0
24000 On ch=15 n=55 v=111
24000 On ch=15 n=67 v=111
24048 Par ch=15 c=11 v=32
24060 Par ch=15 c=11 v=31
24068 Par ch=15 c=11 v=30
24076 Par ch=15 c=11 v=29
24084 Par ch=15 c=11 v=28
24092 Par ch=15 c=11 v=27
24100 Par ch=15 c=11 v=26
24108 Par ch=15 c=11 v=25
24116 Par ch=15 c=11 v=24
24128 Par ch=15 c=11 v=23
24136 Par ch=15 c=11 v=22
24144 Par ch=15 c=11 v=21
24152 Par ch=15 c=11 v=20
24160 Par ch=15 c=11 v=19
24168 Par ch=15 c=11 v=18
24176 Par ch=15 c=11 v=17
24184 Par ch=15 c=11 v=16
24346 On ch=15 n=67 v=0
24346 On ch=15 n=55 v=0
24384 Par ch=15 c=11 v=64
28416 On ch=15 n=63 v=47
28416 On ch=15 n=60 v=47
28570 On ch=15 n=60 v=0
28570 On ch=15 n=63 v=0
28608 On ch=15 n=61 v=47
28762 On ch=15 n=61 v=0
28800 On ch=15 n=63 v=47
28992 On ch=15 n=63 v=0
28992 On ch=15 n=65 v=47
28992 On ch=15 n=60 v=47
29030 On ch=15 n=60 v=0
29030 On ch=15 n=65 v=0
29088 On ch=15 n=67 v=47
29088 On ch=15 n=63 v=47
29126 On ch=15 n=63 v=0
29126 On ch=15 n=67 v=0
29184 On ch=15 n=68 v=47
29184 On ch=15 n=63 v=47
29338 On ch=15 n=63 v=0
29338 On ch=15 n=68 v=0
29376 On ch=15 n=65 v=47
29376 On ch=15 n=60 v=47
29414 On ch=15 n=60 v=0
29414 On ch=15 n=65 v=0
29472 On ch=15 n=67 v=47
29472 On ch=15 n=63 v=47
29510 On ch=15 n=63 v=0
29510 On ch=15 n=67 v=0
29568 On ch=15 n=63 v=47
29568 On ch=15 n=68 v=47
29722 On ch=15 n=68 v=0
29722 On ch=15 n=63 v=0
29760 On ch=15 n=60 v=47
29760 On ch=15 n=65 v=47
29798 On ch=15 n=65 v=0
29798 On ch=15 n=60 v=0
29856 On ch=15 n=63 v=63
29856 On ch=15 n=67 v=63
29894 On ch=15 n=67 v=0
29894 On ch=15 n=63 v=0
29952 On ch=15 n=68 v=79
29952 On ch=15 n=63 v=79
29990 On ch=15 n=63 v=0
29990 On ch=15 n=68 v=0
30144 On ch=15 n=48 v=47
30144 On ch=15 n=60 v=47
30298 On ch=15 n=60 v=0
30298 On ch=15 n=48 v=0
30528 On ch=15 n=48 v=95
30528 On ch=15 n=60 v=95
30576 Par ch=15 c=11 v=32
30682 On ch=15 n=60 v=0
30682 On ch=15 n=48 v=0
31104 Par ch=15 c=11 v=64
31104 On ch=15 n=67 v=111
31128 Par ch=15 c=11 v=63
31152 Par ch=15 c=11 v=62
31172 Par ch=15 c=11 v=61
31196 Par ch=15 c=11 v=60
31220 Par ch=15 c=11 v=59
31240 Par ch=15 c=11 v=58
31264 Par ch=15 c=11 v=57
31288 Par ch=15 c=11 v=56
31308 Par ch=15 c=11 v=55
31332 Par ch=15 c=11 v=54
31356 Par ch=15 c=11 v=53
31376 Par ch=15 c=11 v=52
31400 Par ch=15 c=11 v=51
31411 On ch=15 n=67 v=0
31424 Par ch=15 c=11 v=50
31444 Par ch=15 c=11 v=49
31468 Par ch=15 c=11 v=48
31872 Par ch=15 c=11 v=64
31872 On ch=15 n=67 v=111
31896 Par ch=15 c=11 v=63
31920 Par ch=15 c=11 v=62
31940 Par ch=15 c=11 v=61
31964 Par ch=15 c=11 v=60
31988 Par ch=15 c=11 v=59
32008 Par ch=15 c=11 v=58
32032 Par ch=15 c=11 v=57
32056 Par ch=15 c=11 v=56
32076 Par ch=15 c=11 v=55
32100 Par ch=15 c=11 v=54
32124 Par ch=15 c=11 v=53
32144 Par ch=15 c=11 v=52
32168 Par ch=15 c=11 v=51
32179 On ch=15 n=67 v=0
32192 Par ch=15 c=11 v=50
32212 Par ch=15 c=11 v=49
32236 Par ch=15 c=11 v=48
33984 Par ch=15 c=11 v=48
33984 On ch=15 n=63 v=47
33984 On ch=15 n=60 v=47
33988 Par ch=15 c=11 v=49
33992 Par ch=15 c=11 v=51
33996 Par ch=15 c=11 v=52
34000 Par ch=15 c=11 v=54
34004 Par ch=15 c=11 v=56
34008 Par ch=15 c=11 v=57
34012 Par ch=15 c=11 v=59
34016 Par ch=15 c=11 v=61
34020 Par ch=15 c=11 v=62
34024 Par ch=15 c=11 v=64
34028 Par ch=15 c=11 v=66
34032 Par ch=15 c=11 v=67
34036 Par ch=15 c=11 v=69
34040 Par ch=15 c=11 v=71
34044 Par ch=15 c=11 v=72
34048 Par ch=15 c=11 v=74
34052 Par ch=15 c=11 v=75
34056 Par ch=15 c=11 v=77
34060 Par ch=15 c=11 v=79
34064 Par ch=15 c=11 v=80
34068 Par ch=15 c=11 v=82
34072 Par ch=15 c=11 v=84
34076 Par ch=15 c=11 v=85
34080 Par ch=15 c=11 v=87
34084 Par ch=15 c=11 v=89
34088 Par ch=15 c=11 v=90
34092 Par ch=15 c=11 v=92
34096 Par ch=15 c=11 v=94
34100 Par ch=15 c=11 v=95
34104 Par ch=15 c=11 v=97
34108 Par ch=15 c=11 v=99
34112 Par ch=15 c=11 v=100
34116 Par ch=15 c=11 v=102
34120 Par ch=15 c=11 v=103
34124 Par ch=15 c=11 v=105
34128 Par ch=15 c=11 v=107
34132 Par ch=15 c=11 v=108
34136 Par ch=15 c=11 v=110
34138 On ch=15 n=60 v=0
34138 On ch=15 n=63 v=0
34140 Par ch=15 c=11 v=112
34144 Par ch=15 c=11 v=113
34148 Par ch=15 c=11 v=115
34152 Par ch=15 c=11 v=117
34156 Par ch=15 c=11 v=118
34160 Par ch=15 c=11 v=120
34164 Par ch=15 c=11 v=122
34168 Par ch=15 c=11 v=123
34172 Par ch=15 c=11 v=125
34176 On ch=15 n=62 v=47
34176 On ch=15 n=58 v=47
34224 Par ch=15 c=11 v=64
34236 Par ch=15 c=11 v=65
34248 Par ch=15 c=11 v=66
34260 Par ch=15 c=11 v=67
34268 Par ch=15 c=11 v=68
34280 Par ch=15 c=11 v=69
34292 Par ch=15 c=11 v=70
34300 Par ch=15 c=11 v=71
34312 Par ch=15 c=11 v=72
34324 Par ch=15 c=11 v=73
34336 Par ch=15 c=11 v=74
34344 Par ch=15 c=11 v=75
34356 Par ch=15 c=11 v=76
34368 Par ch=15 c=11 v=77
34376 Par ch=15 c=11 v=78
34388 Par ch=15 c=11 v=79
34400 Par ch=15 c=11 v=80
34412 Par ch=15 c=11 v=81
34420 Par ch=15 c=11 v=82
34432 Par ch=15 c=11 v=83
34444 Par ch=15 c=11 v=84
34452 Par ch=15 c=11 v=85
34464 Par ch=15 c=11 v=86
34476 Par ch=15 c=11 v=87
34488 Par ch=15 c=11 v=88
34496 Par ch=15 c=11 v=89
34508 Par ch=15 c=11 v=90
34520 Par ch=15 c=11 v=91
34528 Par ch=15 c=11 v=92
34540 Par ch=15 c=11 v=93
34552 Par ch=15 c=11 v=94
34560 Par ch=15 c=11 v=95
34572 Par ch=15 c=11 v=96
34584 Par ch=15 c=11 v=97
34596 Par ch=15 c=11 v=98
34604 Par ch=15 c=11 v=99
34616 Par ch=15 c=11 v=100
34628 Par ch=15 c=11 v=101
34636 Par ch=15 c=11 v=102
34648 Par ch=15 c=11 v=103
34660 Par ch=15 c=11 v=104
34672 Par ch=15 c=11 v=105
34680 Par ch=15 c=11 v=106
34692 Par ch=15 c=11 v=107
34704 Par ch=15 c=11 v=108
34712 Par ch=15 c=11 v=109
34724 Par ch=15 c=11 v=110
34736 Par ch=15 c=11 v=111
34748 Par ch=15 c=11 v=112
34756 Par ch=15 c=11 v=113
34768 Par ch=15 c=11 v=114
34780 Par ch=15 c=11 v=115
34788 Par ch=15 c=11 v=116
34800 Par ch=15 c=11 v=117
34812 Par ch=15 c=11 v=118
34824 Par ch=15 c=11 v=119
34832 Par ch=15 c=11 v=120
34844 Par ch=15 c=11 v=121
34856 Par ch=15 c=11 v=122
34864 Par ch=15 c=11 v=123
34876 Par ch=15 c=11 v=124
34886 On ch=15 n=58 v=0
34886 On ch=15 n=62 v=0
34888 Par ch=15 c=11 v=125
34896 Par ch=15 c=11 v=126
34944 On ch=15 n=63 v=47
34944 On ch=15 n=58 v=47
34992 Par ch=15 c=11 v=64
35004 Par ch=15 c=11 v=65
35016 Par ch=15 c=11 v=66
35028 Par ch=15 c=11 v=67
35036 Par ch=15 c=11 v=68
35048 Par ch=15 c=11 v=69
35060 Par ch=15 c=11 v=70
35068 Par ch=15 c=11 v=71
35080 Par ch=15 c=11 v=72
35092 Par ch=15 c=11 v=73
35104 Par ch=15 c=11 v=74
35112 Par ch=15 c=11 v=75
35124 Par ch=15 c=11 v=76
35136 Par ch=15 c=11 v=77
35144 Par ch=15 c=11 v=78
35156 Par ch=15 c=11 v=79
35168 Par ch=15 c=11 v=80
35180 Par ch=15 c=11 v=81
35188 Par ch=15 c=11 v=82
35200 Par ch=15 c=11 v=83
35212 Par ch=15 c=11 v=84
35220 Par ch=15 c=11 v=85
35232 Par ch=15 c=11 v=86
35244 Par ch=15 c=11 v=87
35256 Par ch=15 c=11 v=88
35264 Par ch=15 c=11 v=89
35276 Par ch=15 c=11 v=90
35288 Par ch=15 c=11 v=91
35296 Par ch=15 c=11 v=92
35308 Par ch=15 c=11 v=93
35320 Par ch=15 c=11 v=94
35328 Par ch=15 c=11 v=95
35340 Par ch=15 c=11 v=96
35352 Par ch=15 c=11 v=97
35364 Par ch=15 c=11 v=98
35372 Par ch=15 c=11 v=99
35384 Par ch=15 c=11 v=100
35396 Par ch=15 c=11 v=101
35404 Par ch=15 c=11 v=102
35416 Par ch=15 c=11 v=103
35428 Par ch=15 c=11 v=104
35440 Par ch=15 c=11 v=105
35448 Par ch=15 c=11 v=106
35460 Par ch=15 c=11 v=107
35472 Par ch=15 c=11 v=108
35480 Par ch=15 c=11 v=109
35492 Par ch=15 c=11 v=110
35504 Par ch=15 c=11 v=111
35516 Par ch=15 c=11 v=112
35524 Par ch=15 c=11 v=113
35536 Par ch=15 c=11 v=114
35548 Par ch=15 c=11 v=115
35556 Par ch=15 c=11 v=116
35568 Par ch=15 c=11 v=117
35580 Par ch=15 c=11 v=118
35592 Par ch=15 c=11 v=119
35600 Par ch=15 c=11 v=120
35612 Par ch=15 c=11 v=121
35624 Par ch=15 c=11 v=122
35632 Par ch=15 c=11 v=123
35644 Par ch=15 c=11 v=124
35654 On ch=15 n=58 v=0
35654 On ch=15 n=63 v=0
35656 Par ch=15 c=11 v=125
35664 Par ch=15 c=11 v=126
35712 Par ch=15 c=11 v=64
35712 On ch=15 n=63 v=47
35712 On ch=15 n=60 v=47
35760 Par ch=15 c=11 v=32
36019 On ch=15 n=60 v=0
36019 On ch=15 n=63 v=0
36096 Par ch=15 c=11 v=64
36096 On ch=15 n=62 v=47
36096 On ch=15 n=58 v=47
36144 Par ch=15 c=11 v=32
36403 On ch=15 n=58 v=0
36403 On ch=15 n=62 v=0
36480 Par ch=15 c=11 v=64
36480 On ch=15 n=61 v=47
36480 On ch=15 n=58 v=47
36634 On ch=15 n=58 v=0
36634 On ch=15 n=61 v=0
36672 On ch=15 n=60 v=47
36826 On ch=15 n=60 v=0
36864 On ch=15 n=58 v=31
36864 On ch=15 n=53 v=31
37018 On ch=15 n=53 v=0
37018 On ch=15 n=58 v=0
37056 On ch=15 n=54 v=31
37056 On ch=15 n=58 v=31
37210 On ch=15 n=58 v=0
37210 On ch=15 n=54 v=0
37248 On ch=15 n=50 v=31
37248 On ch=15 n=55 v=31
37402 On ch=15 n=55 v=0
37402 On ch=15 n=50 v=0
37632 On ch=15 n=50 v=31
37632 On ch=15 n=55 v=31
37786 On ch=15 n=55 v=0
37786 On ch=15 n=50 v=0
38784 Par ch=15 c=11 v=64
38784 On ch=15 n=63 v=63
38784 On ch=15 n=60 v=63
38808 Par ch=15 c=11 v=63
38832 Par ch=15 c=11 v=62
38852 Par ch=15 c=11 v=61
38876 Par ch=15 c=11 v=60
38900 Par ch=15 c=11 v=59
38920 Par ch=15 c=11 v=58
38944 Par ch=15 c=11 v=57
38968 Par ch=15 c=11 v=56
38988 Par ch=15 c=11 v=55
39012 Par ch=15 c=11 v=54
39036 Par ch=15 c=11 v=53
39056 Par ch=15 c=11 v=52
39080 Par ch=15 c=11 v=51
39104 Par ch=15 c=11 v=50
39124 Par ch=15 c=11 v=49
39148 Par ch=15 c=11 v=48
39168 On ch=15 n=60 v=0
39168 On ch=15 n=63 v=0
39168 On ch=15 n=62 v=63
39168 On ch=15 n=58 v=63
39322 On ch=15 n=58 v=0
39322 On ch=15 n=62 v=0
39552 Par ch=15 c=11 v=64
41856 On ch=15 n=58 v=47
41856 On ch=15 n=62 v=47
42394 On ch=15 n=62 v=0
42394 On ch=15 n=58 v=0
42624 On ch=15 n=63 v=47
42624 On ch=15 n=60 v=47
42672 Par ch=15 c=11 v=32
43008 On ch=15 n=60 v=0
43008 On ch=15 n=63 v=0
43008 Par ch=15 c=11 v=32
43008 On ch=15 n=58 v=47
43008 On ch=15 n=62 v=47
43020 Par ch=15 c=11 v=31
43032 Par ch=15 c=11 v=30
43044 Par ch=15 c=11 v=29
43056 Par ch=15 c=11 v=28
43068 Par ch=15 c=11 v=27
43076 Par ch=15 c=11 v=26
43088 Par ch=15 c=11 v=25
43100 Par ch=15 c=11 v=24
43112 Par ch=15 c=11 v=23
43124 Par ch=15 c=11 v=22
43136 Par ch=15 c=11 v=21
43144 Par ch=15 c=11 v=20
43156 Par ch=15 c=11 v=19
43162 On ch=15 n=62 v=0
43162 On ch=15 n=58 v=0
43168 Par ch=15 c=11 v=18
43180 Par ch=15 c=11 v=17
43192 Par ch=15 c=11 v=16
43392 Par ch=15 c=11 v=64
68736 On ch=15 n=61 v=95
68813 On ch=15 n=61 v=0
68832 On ch=15 n=60 v=95
68909 On ch=15 n=60 v=0
68928 On ch=15 n=59 v=95
69005 On ch=15 n=59 v=0
69024 On ch=15 n=58 v=95
69050 On ch=15 n=58 v=0
69056 On ch=15 n=57 v=95
69082 On ch=15 n=57 v=0
69088 On ch=15 n=56 v=95
69114 On ch=15 n=56 v=0
69120 On ch=15 n=59 v=95
69197 On ch=15 n=59 v=0
69216 On ch=15 n=58 v=95
69293 On ch=15 n=58 v=0
69312 On ch=15 n=57 v=95
69389 On ch=15 n=57 v=0
69408 On ch=15 n=56 v=95
69434 On ch=15 n=56 v=0
69440 On ch=15 n=54 v=95
69466 On ch=15 n=54 v=0
69472 On ch=15 n=52 v=95
69498 On ch=15 n=52 v=0
69504 On ch=15 n=59 v=95
69581 On ch=15 n=59 v=0
69600 On ch=15 n=58 v=95
69677 On ch=15 n=58 v=0
69696 On ch=15 n=57 v=95
69773 On ch=15 n=57 v=0
69792 On ch=15 n=56 v=95
69818 On ch=15 n=56 v=0
69824 On ch=15 n=54 v=95
69850 On ch=15 n=54 v=0
69856 On ch=15 n=52 v=95
69882 On ch=15 n=52 v=0
69888 On ch=15 n=57 v=95
69965 On ch=15 n=57 v=0
69984 On ch=15 n=56 v=95
70061 On ch=15 n=56 v=0
70080 On ch=15 n=54 v=95
70157 On ch=15 n=54 v=0
70176 On ch=15 n=52 v=95
70202 On ch=15 n=52 v=0
70208 On ch=15 n=51 v=95
70234 On ch=15 n=51 v=0
70240 On ch=15 n=49 v=95
70266 On ch=15 n=49 v=0
70272 On ch=15 n=57 v=95
70349 On ch=15 n=57 v=0
70368 On ch=15 n=56 v=95
70445 On ch=15 n=56 v=0
70464 On ch=15 n=54 v=95
70541 On ch=15 n=54 v=0
70560 On ch=15 n=52 v=95
70586 On ch=15 n=52 v=0
70592 On ch=15 n=51 v=95
70618 On ch=15 n=51 v=0
70624 On ch=15 n=50 v=95
70650 On ch=15 n=50 v=0
72960 On ch=15 n=45 v=111
72960 On ch=15 n=57 v=111
72998 On ch=15 n=57 v=0
72998 On ch=15 n=45 v=0
73056 On ch=15 n=47 v=111
73056 On ch=15 n=59 v=111
73210 On ch=15 n=59 v=0
73210 On ch=15 n=47 v=0
73728 On ch=15 n=45 v=111
73728 On ch=15 n=57 v=111
73759 On ch=15 n=57 v=0
73759 On ch=15 n=45 v=0
73824 On ch=15 n=49 v=111
73824 On ch=15 n=61 v=111
73978 On ch=15 n=61 v=0
73978 On ch=15 n=49 v=0
74496 Par ch=15 c=11 v=64
74496 On ch=15 n=65 v=47
74496 On ch=15 n=53 v=47
74512 Par ch=15 c=11 v=65
74524 Par ch=15 c=11 v=66
74536 Par ch=15 c=11 v=67
74548 Par ch=15 c=11 v=68
74560 Par ch=15 c=11 v=69
74572 Par ch=15 c=11 v=70
74584 Par ch=15 c=11 v=71
74596 Par ch=15 c=11 v=72
74608 Par ch=15 c=11 v=73
74620 Par ch=15 c=11 v=74
74632 Par ch=15 c=11 v=75
74644 Par ch=15 c=11 v=76
74650 On ch=15 n=53 v=0
74650 On ch=15 n=65 v=0
74656 Par ch=15 c=11 v=77
74668 Par ch=15 c=11 v=78
74680 Par ch=15 c=11 v=79
74688 On ch=15 n=54 v=47
74688 On ch=15 n=66 v=47
74692 Par ch=15 c=11 v=80
74704 Par ch=15 c=11 v=81
74716 Par ch=15 c=11 v=82
74728 Par ch=15 c=11 v=83
74740 Par ch=15 c=11 v=84
74752 Par ch=15 c=11 v=85
74768 Par ch=15 c=11 v=86
74780 Par ch=15 c=11 v=87
74792 Par ch=15 c=11 v=88
74803 On ch=15 n=66 v=0
74803 On ch=15 n=54 v=0
74804 Par ch=15 c=11 v=89
74816 Par ch=15 c=11 v=90
74828 Par ch=15 c=11 v=91
74832 On ch=15 n=42 v=47
74832 On ch=15 n=54 v=47
74840 Par ch=15 c=11 v=92
74852 Par ch=15 c=11 v=93
74863 On ch=15 n=54 v=0
74863 On ch=15 n=42 v=0
74864 Par ch=15 c=11 v=94
74876 Par ch=15 c=11 v=95
74880 On ch=15 n=53 v=47
74880 On ch=15 n=65 v=47
74888 Par ch=15 c=11 v=96
74900 Par ch=15 c=11 v=97
74912 Par ch=15 c=11 v=98
74924 Par ch=15 c=11 v=99
74936 Par ch=15 c=11 v=100
74948 Par ch=15 c=11 v=101
74960 Par ch=15 c=11 v=102
74972 Par ch=15 c=11 v=103
74984 Par ch=15 c=11 v=104
74996 Par ch=15 c=11 v=105
75008 Par ch=15 c=11 v=106
75024 Par ch=15 c=11 v=107
75034 On ch=15 n=65 v=0
75034 On ch=15 n=53 v=0
75036 Par ch=15 c=11 v=108
75048 Par ch=15 c=11 v=109
75060 Par ch=15 c=11 v=110
75072 Par ch=15 c=11 v=111
75072 On ch=15 n=66 v=47
75072 On ch=15 n=54 v=47
75084 Par ch=15 c=11 v=112
75096 Par ch=15 c=11 v=113
75108 Par ch=15 c=11 v=114
75120 Par ch=15 c=11 v=115
75132 Par ch=15 c=11 v=116
75144 Par ch=15 c=11 v=117
75156 Par ch=15 c=11 v=118
75168 Par ch=15 c=11 v=119
75180 Par ch=15 c=11 v=120
75187 On ch=15 n=54 v=0
75187 On ch=15 n=66 v=0
75192 Par ch=15 c=11 v=121
75204 Par ch=15 c=11 v=122
75216 Par ch=15 c=11 v=123
75216 On ch=15 n=54 v=47
75216 On ch=15 n=42 v=47
75228 Par ch=15 c=11 v=124
75240 Par ch=15 c=11 v=125
75247 On ch=15 n=42 v=0
75247 On ch=15 n=54 v=0
75252 Par ch=15 c=11 v=126
75360 Par ch=15 c=11 v=64
75360 On ch=15 n=67 v=111
75360 On ch=15 n=62 v=111
75391 On ch=15 n=62 v=0
75391 On ch=15 n=67 v=0
76032 On ch=15 n=66 v=111
76032 On ch=15 n=60 v=111
76070 On ch=15 n=60 v=0
76070 On ch=15 n=66 v=0
76800 On ch=15 n=65 v=111
76800 On ch=15 n=69 v=111
77030 On ch=15 n=69 v=0
77088 On ch=15 n=68 v=111
77107 On ch=15 n=65 v=0
77165 On ch=15 n=68 v=0
77184 Par ch=15 c=11 v=64
77184 On ch=15 n=66 v=111
77184 On ch=15 n=62 v=111
77196 Par ch=15 c=11 v=63
77208 Par ch=15 c=11 v=62
77220 Par ch=15 c=11 v=61
77232 Par ch=15 c=11 v=60
77244 Par ch=15 c=11 v=59
77252 Par ch=15 c=11 v=58
77264 Par ch=15 c=11 v=57
77276 Par ch=15 c=11 v=56
77288 Par ch=15 c=11 v=55
77300 Par ch=15 c=11 v=54
77312 Par ch=15 c=11 v=53
77320 Par ch=15 c=11 v=52
77332 Par ch=15 c=11 v=51
77344 Par ch=15 c=11 v=50
77356 Par ch=15 c=11 v=49
77368 Par ch=15 c=11 v=48
77376 Par ch=15 c=11 v=47
77388 Par ch=15 c=11 v=46
77400 Par ch=15 c=11 v=45
77412 Par ch=15 c=11 v=44
77424 Par ch=15 c=11 v=43
77436 Par ch=15 c=11 v=42
77444 Par ch=15 c=11 v=41
77456 Par ch=15 c=11 v=40
77468 Par ch=15 c=11 v=39
77480 Par ch=15 c=11 v=38
77492 Par ch=15 c=11 v=37
77504 Par ch=15 c=11 v=36
77512 Par ch=15 c=11 v=35
77524 Par ch=15 c=11 v=34
77536 Par ch=15 c=11 v=33
77548 Par ch=15 c=11 v=32
77568 On ch=15 n=62 v=0
77568 On ch=15 n=66 v=0
77568 On ch=15 n=64 v=111
77568 On ch=15 n=61 v=111
77645 On ch=15 n=61 v=0
77645 On ch=15 n=64 v=0
77952 Par ch=15 c=11 v=64
93984 On ch=15 n=39 v=111
93984 On ch=15 n=51 v=111
94080 Par ch=15 c=11 v=64
94092 Par ch=15 c=11 v=63
94104 Par ch=15 c=11 v=62
94116 Par ch=15 c=11 v=61
94128 Par ch=15 c=11 v=60
94140 Par ch=15 c=11 v=59
94148 Par ch=15 c=11 v=58
94160 Par ch=15 c=11 v=57
94172 Par ch=15 c=11 v=56
94184 Par ch=15 c=11 v=55
94196 Par ch=15 c=11 v=54
94208 Par ch=15 c=11 v=53
94216 Par ch=15 c=11 v=52
94228 Par ch=15 c=11 v=51
94240 Par ch=15 c=11 v=50
94252 Par ch=15 c=11 v=49
94264 Par ch=15 c=11 v=48
94272 Par ch=15 c=11 v=47
94284 Par ch=15 c=11 v=46
94296 Par ch=15 c=11 v=45
94308 Par ch=15 c=11 v=44
94320 Par ch=15 c=11 v=43
94332 Par ch=15 c=11 v=42
94340 Par ch=15 c=11 v=41
94352 Par ch=15 c=11 v=40
94364 Par ch=15 c=11 v=39
94376 Par ch=15 c=11 v=38
94388 Par ch=15 c=11 v=37
94400 Par ch=15 c=11 v=36
94408 Par ch=15 c=11 v=35
94420 Par ch=15 c=11 v=34
94432 Par ch=15 c=11 v=33
94444 Par ch=15 c=11 v=32
94848 Par ch=15 c=11 v=32
94872 Par ch=15 c=11 v=31
94896 Par ch=15 c=11 v=30
94916 Par ch=15 c=11 v=29
94940 Par ch=15 c=11 v=28
94964 Par ch=15 c=11 v=27
94984 Par ch=15 c=11 v=26
95008 Par ch=15 c=11 v=25
95032 Par ch=15 c=11 v=24
95052 Par ch=15 c=11 v=23
95076 Par ch=15 c=11 v=22
95100 Par ch=15 c=11 v=21
95120 Par ch=15 c=11 v=20
95144 Par ch=15 c=11 v=19
95168 Par ch=15 c=11 v=18
95188 Par ch=15 c=11 v=17
95212 Par ch=15 c=11 v=16
95424 On ch=15 n=51 v=0
95424 On ch=15 n=39 v=0
95616 Par ch=15 c=11 v=64
100704 On ch=15 n=58 v=47
100896 On ch=15 n=58 v=0
100896 On ch=15 n=56 v=47
100992 On ch=15 n=56 v=0
100992 On ch=15 n=54 v=47
101184 On ch=15 n=54 v=0
101184 On ch=15 n=56 v=47
101280 On ch=15 n=56 v=0
101280 On ch=15 n=58 v=47
101376 On ch=15 n=58 v=0
101376 On ch=15 n=59 v=47
101568 On ch=15 n=59 v=0
101568 On ch=15 n=58 v=47
101664 On ch=15 n=58 v=0
101664 On ch=15 n=56 v=47
101712 On ch=15 n=56 v=0
101712 On ch=15 n=54 v=47
101760 On ch=15 n=54 v=0
101760 On ch=15 n=53 v=47
102067 On ch=15 n=53 v=0
102216 On ch=15 n=58 v=47
102232 On ch=15 n=58 v=0
102240 On ch=15 n=60 v=47
102271 On ch=15 n=60 v=0
102312 On ch=15 n=61 v=47
102328 On ch=15 n=61 v=0
102336 On ch=15 n=63 v=47
102559 On ch=15 n=63 v=0
102600 On ch=15 n=61 v=47
102616 On ch=15 n=61 v=0
102624 On ch=15 n=63 v=47
102655 On ch=15 n=63 v=0
102696 On ch=15 n=65 v=47
102712 On ch=15 n=65 v=0
102720 On ch=15 n=66 v=47
102950 On ch=15 n=66 v=0
103008 On ch=15 n=65 v=47
103200 On ch=15 n=65 v=0
103200 On ch=15 n=63 v=47
103248 On ch=15 n=63 v=0
103248 On ch=15 n=61 v=47
103296 On ch=15 n=61 v=0
103296 On ch=15 n=60 v=47
103392 On ch=15 n=60 v=0
103392 On ch=15 n=59 v=47
103584 On ch=15 n=59 v=0
103584 On ch=15 n=58 v=47
103632 On ch=15 n=58 v=0
103632 On ch=15 n=56 v=47
103680 On ch=15 n=56 v=0
103680 On ch=15 n=54 v=47
103718 On ch=15 n=54 v=0
108288 On ch=15 n=58 v=63
108288 On ch=15 n=55 v=63
108442 On ch=15 n=55 v=0
108442 On ch=15 n=58 v=0
108480 On ch=15 n=60 v=63
108480 On ch=15 n=56 v=63
108634 On ch=15 n=56 v=0
108634 On ch=15 n=60 v=0
108672 On ch=15 n=63 v=63
108672 On ch=15 n=58 v=63
108826 On ch=15 n=58 v=0
108826 On ch=15 n=63 v=0
108960 On ch=15 n=65 v=63
108960 On ch=15 n=62 v=63
109037 On ch=15 n=62 v=0
109037 On ch=15 n=65 v=0
109056 On ch=15 n=67 v=63
109056 On ch=15 n=63 v=63
109133 On ch=15 n=63 v=0
109133 On ch=15 n=67 v=0
109248 On ch=15 n=63 v=79
109517 On ch=15 n=63 v=0
109536 Par ch=15 c=11 v=64
109536 On ch=15 n=61 v=79
109556 Par ch=15 c=11 v=65
109572 Par ch=15 c=11 v=66
109588 Par ch=15 c=11 v=67
109604 Par ch=15 c=11 v=68
109613 On ch=15 n=61 v=0
109624 Par ch=15 c=11 v=69
109632 On ch=15 n=62 v=79
109640 Par ch=15 c=11 v=70
109656 Par ch=15 c=11 v=71
109672 Par ch=15 c=11 v=72
109692 Par ch=15 c=11 v=73
109708 Par ch=15 c=11 v=74
109724 Par ch=15 c=11 v=75
109740 Par ch=15 c=11 v=76
109760 Par ch=15 c=11 v=77
109776 Par ch=15 c=11 v=78
109786 On ch=15 n=62 v=0
109792 Par ch=15 c=11 v=79
109808 Par ch=15 c=11 v=80
109824 Par ch=15 c=11 v=80
109824 On ch=15 n=63 v=79
109836 Par ch=15 c=11 v=79
109848 Par ch=15 c=11 v=78
109856 Par ch=15 c=11 v=77
109868 Par ch=15 c=11 v=76
109876 Par ch=15 c=11 v=75
109888 Par ch=15 c=11 v=74
109900 Par ch=15 c=11 v=73
109908 Par ch=15 c=11 v=72
109920 Par ch=15 c=11 v=71
109928 Par ch=15 c=11 v=70
109940 Par ch=15 c=11 v=69
109952 Par ch=15 c=11 v=68
109960 Par ch=15 c=11 v=67
109972 Par ch=15 c=11 v=66
109980 Par ch=15 c=11 v=65
109992 Par ch=15 c=11 v=64
110000 Par ch=15 c=11 v=63
110012 Par ch=15 c=11 v=62
110024 Par ch=15 c=11 v=61
110032 Par ch=15 c=11 v=60
110044 Par ch=15 c=11 v=59
110052 Par ch=15 c=11 v=58
110064 Par ch=15 c=11 v=57
110076 Par ch=15 c=11 v=56
110084 Par ch=15 c=11 v=55
110096 Par ch=15 c=11 v=54
110104 Par ch=15 c=11 v=53
110116 Par ch=15 c=11 v=52
110124 Par ch=15 c=11 v=51
110136 Par ch=15 c=11 v=50
110148 Par ch=15 c=11 v=49
110156 Par ch=15 c=11 v=48
110168 Par ch=15 c=11 v=47
110176 Par ch=15 c=11 v=46
110188 Par ch=15 c=11 v=45
110200 Par ch=15 c=11 v=44
110208 Par ch=15 c=11 v=43
110220 Par ch=15 c=11 v=42
110228 Par ch=15 c=11 v=41
110240 Par ch=15 c=11 v=40
110248 Par ch=15 c=11 v=39
110260 Par ch=15 c=11 v=38
110272 Par ch=15 c=11 v=37
110280 Par ch=15 c=11 v=36
110292 Par ch=15 c=11 v=35
110300 Par ch=15 c=11 v=34
110312 Par ch=15 c=11 v=33
110324 Par ch=15 c=11 v=32
110332 Par ch=15 c=11 v=31
110344 Par ch=15 c=11 v=30
110352 Par ch=15 c=11 v=29
110364 Par ch=15 c=11 v=28
110372 Par ch=15 c=11 v=27
110384 Par ch=15 c=11 v=26
110396 Par ch=15 c=11 v=25
110404 Par ch=15 c=11 v=24
110416 Par ch=15 c=11 v=23
110424 Par ch=15 c=11 v=22
110436 Par ch=15 c=11 v=21
110438 On ch=15 n=63 v=0
110448 Par ch=15 c=11 v=20
110456 Par ch=15 c=11 v=19
110468 Par ch=15 c=11 v=18
110476 Par ch=15 c=11 v=17
110488 Par ch=15 c=11 v=16
110592 Par ch=15 c=11 v=64
111360 On ch=15 n=63 v=95
111360 On ch=15 n=59 v=95
111514 On ch=15 n=59 v=0
111514 On ch=15 n=63 v=0
111552 On ch=15 n=64 v=95
111552 On ch=15 n=59 v=95
111629 On ch=15 n=59 v=0
111629 On ch=15 n=64 v=0
111648 On ch=15 n=61 v=95
111648 On ch=15 n=57 v=95
111725 On ch=15 n=57 v=0
111725 On ch=15 n=61 v=0
112128 Par ch=15 c=11 v=64
112128 On ch=15 n=69 v=47
112128 On ch=15 n=66 v=47
112136 Par ch=15 c=11 v=65
112140 Par ch=15 c=11 v=66
112144 Par ch=15 c=11 v=67
112148 Par ch=15 c=11 v=68
112152 Par ch=15 c=11 v=69
112156 Par ch=15 c=11 v=70
112160 Par ch=15 c=11 v=71
112168 Par ch=15 c=11 v=72
112172 Par ch=15 c=11 v=73
112176 Par ch=15 c=11 v=74
112180 Par ch=15 c=11 v=75
112184 Par ch=15 c=11 v=76
112188 Par ch=15 c=11 v=77
112192 Par ch=15 c=11 v=78
112200 Par ch=15 c=11 v=79
112204 Par ch=15 c=11 v=80
112208 Par ch=15 c=11 v=81
112212 Par ch=15 c=11 v=82
112216 Par ch=15 c=11 v=83
112220 Par ch=15 c=11 v=84
112224 Par ch=15 c=11 v=85
112232 Par ch=15 c=11 v=86
112236 Par ch=15 c=11 v=87
112240 Par ch=15 c=11 v=88
112244 Par ch=15 c=11 v=89
112248 Par ch=15 c=11 v=90
112252 Par ch=15 c=11 v=91
112256 Par ch=15 c=11 v=92
112264 Par ch=15 c=11 v=93
112268 Par ch=15 c=11 v=94
112272 Par ch=15 c=11 v=95
112276 Par ch=15 c=11 v=96
112280 Par ch=15 c=11 v=97
112284 Par ch=15 c=11 v=98
112288 Par ch=15 c=11 v=99
112296 Par ch=15 c=11 v=100
112300 Par ch=15 c=11 v=101
112304 Par ch=15 c=11 v=102
112308 Par ch=15 c=11 v=103
112312 Par ch=15 c=11 v=104
112316 Par ch=15 c=11 v=105
112320 Par ch=15 c=11 v=106
112328 Par ch=15 c=11 v=107
112332 Par ch=15 c=11 v=108
112336 Par ch=15 c=11 v=109
112340 Par ch=15 c=11 v=110
112344 Par ch=15 c=11 v=111
112348 Par ch=15 c=11 v=112
112352 Par ch=15 c=11 v=113
112360 Par ch=15 c=11 v=114
112364 Par ch=15 c=11 v=115
112368 Par ch=15 c=11 v=116
112372 Par ch=15 c=11 v=117
112376 Par ch=15 c=11 v=118
112380 Par ch=15 c=11 v=119
112384 Par ch=15 c=11 v=120
112392 Par ch=15 c=11 v=121
112396 Par ch=15 c=11 v=122
112400 Par ch=15 c=11 v=123
112404 Par ch=15 c=11 v=124
112408 Par ch=15 c=11 v=125
112412 Par ch=15 c=11 v=126
112416 On ch=15 n=66 v=0
112416 On ch=15 n=69 v=0
112416 On ch=15 n=70 v=47
112416 On ch=15 n=62 v=47
112454 On ch=15 n=62 v=0
112454 On ch=15 n=70 v=0
112896 Par ch=15 c=11 v=64
112896 On ch=15 n=66 v=47
112896 On ch=15 n=69 v=47
112904 Par ch=15 c=11 v=65
112908 Par ch=15 c=11 v=66
112912 Par ch=15 c=11 v=67
112916 Par ch=15 c=11 v=68
112920 Par ch=15 c=11 v=69
112924 Par ch=15 c=11 v=70
112928 Par ch=15 c=11 v=71
112936 Par ch=15 c=11 v=72
112940 Par ch=15 c=11 v=73
112944 Par ch=15 c=11 v=74
112948 Par ch=15 c=11 v=75
112952 Par ch=15 c=11 v=76
112956 Par ch=15 c=11 v=77
112960 Par ch=15 c=11 v=78
112968 Par ch=15 c=11 v=79
112972 Par ch=15 c=11 v=80
112976 Par ch=15 c=11 v=81
112980 Par ch=15 c=11 v=82
112984 Par ch=15 c=11 v=83
112988 Par ch=15 c=11 v=84
112992 Par ch=15 c=11 v=85
113000 Par ch=15 c=11 v=86
113004 Par ch=15 c=11 v=87
113008 Par ch=15 c=11 v=88
113012 Par ch=15 c=11 v=89
113016 Par ch=15 c=11 v=90
113020 Par ch=15 c=11 v=91
113024 Par ch=15 c=11 v=92
113032 Par ch=15 c=11 v=93
113036 Par ch=15 c=11 v=94
113040 Par ch=15 c=11 v=95
113044 Par ch=15 c=11 v=96
113048 Par ch=15 c=11 v=97
113052 Par ch=15 c=11 v=98
113056 Par ch=15 c=11 v=99
113064 Par ch=15 c=11 v=100
113068 Par ch=15 c=11 v=101
113072 Par ch=15 c=11 v=102
113076 Par ch=15 c=11 v=103
113080 Par ch=15 c=11 v=104
113084 Par ch=15 c=11 v=105
113088 Par ch=15 c=11 v=106
113096 Par ch=15 c=11 v=107
113100 Par ch=15 c=11 v=108
113104 Par ch=15 c=11 v=109
113108 Par ch=15 c=11 v=110
113112 Par ch=15 c=11 v=111
113116 Par ch=15 c=11 v=112
113120 Par ch=15 c=11 v=113
113128 Par ch=15 c=11 v=114
113132 Par ch=15 c=11 v=115
113136 Par ch=15 c=11 v=116
113140 Par ch=15 c=11 v=117
113144 Par ch=15 c=11 v=118
113148 Par ch=15 c=11 v=119
113152 Par ch=15 c=11 v=120
113160 Par ch=15 c=11 v=121
113164 Par ch=15 c=11 v=122
113168 Par ch=15 c=11 v=123
113172 Par ch=15 c=11 v=124
113176 Par ch=15 c=11 v=125
113180 Par ch=15 c=11 v=126
113184 On ch=15 n=69 v=0
113184 On ch=15 n=66 v=0
113184 On ch=15 n=62 v=47
113184 On ch=15 n=70 v=47
113222 On ch=15 n=70 v=0
113222 On ch=15 n=62 v=0
113664 Par ch=15 c=11 v=64
114048 On ch=15 n=65 v=111
114104 Par ch=15 c=11 v=16
114112 Par ch=15 c=11 v=17
114120 Par ch=15 c=11 v=18
114124 Par ch=15 c=11 v=19
114132 Par ch=15 c=11 v=20
114140 Par ch=15 c=11 v=21
114144 Par ch=15 c=11 v=22
114152 Par ch=15 c=11 v=23
114160 Par ch=15 c=11 v=24
114164 Par ch=15 c=11 v=25
114172 Par ch=15 c=11 v=26
114180 Par ch=15 c=11 v=27
114184 Par ch=15 c=11 v=28
114192 Par ch=15 c=11 v=29
114200 Par ch=15 c=11 v=30
114204 Par ch=15 c=11 v=31
114212 Par ch=15 c=11 v=32
114220 Par ch=15 c=11 v=33
114224 Par ch=15 c=11 v=34
114232 Par ch=15 c=11 v=35
114240 Par ch=15 c=11 v=36
114244 Par ch=15 c=11 v=37
114252 Par ch=15 c=11 v=38
114260 Par ch=15 c=11 v=39
114264 Par ch=15 c=11 v=40
114272 Par ch=15 c=11 v=41
114278 On ch=15 n=65 v=0
114280 Par ch=15 c=11 v=42
114288 Par ch=15 c=11 v=43
114292 Par ch=15 c=11 v=44
114300 Par ch=15 c=11 v=45
114308 Par ch=15 c=11 v=46
114312 Par ch=15 c=11 v=47
114320 Par ch=15 c=11 v=48
114328 Par ch=15 c=11 v=49
114332 Par ch=15 c=11 v=50
114336 On ch=15 n=63 v=111
114340 Par ch=15 c=11 v=51
114348 Par ch=15 c=11 v=52
114352 Par ch=15 c=11 v=53
114360 Par ch=15 c=11 v=54
114368 Par ch=15 c=11 v=55
114372 Par ch=15 c=11 v=56
114380 Par ch=15 c=11 v=57
114388 Par ch=15 c=11 v=58
114392 Par ch=15 c=11 v=59
114400 Par ch=15 c=11 v=60
114408 Par ch=15 c=11 v=61
114412 Par ch=15 c=11 v=62
114413 On ch=15 n=63 v=0
114420 Par ch=15 c=11 v=63
114428 Par ch=15 c=11 v=64
114432 On ch=15 n=62 v=111
114488 Par ch=15 c=11 v=16
114492 Par ch=15 c=11 v=17
114496 Par ch=15 c=11 v=18
114500 Par ch=15 c=11 v=19
114508 Par ch=15 c=11 v=20
114512 Par ch=15 c=11 v=21
114516 Par ch=15 c=11 v=22
114520 Par ch=15 c=11 v=23
114528 On ch=15 n=62 v=0
114528 Par ch=15 c=11 v=24
114528 On ch=15 n=61 v=111
114532 Par ch=15 c=11 v=25
114536 Par ch=15 c=11 v=26
114540 Par ch=15 c=11 v=27
114544 Par ch=15 c=11 v=28
114552 Par ch=15 c=11 v=29
114556 Par ch=15 c=11 v=30
114560 Par ch=15 c=11 v=31
114564 Par ch=15 c=11 v=32
114572 Par ch=15 c=11 v=33
114576 Par ch=15 c=11 v=34
114580 Par ch=15 c=11 v=35
114584 Par ch=15 c=11 v=36
114588 Par ch=15 c=11 v=37
114596 Par ch=15 c=11 v=38
114600 Par ch=15 c=11 v=39
114604 Par ch=15 c=11 v=40
114608 Par ch=15 c=11 v=41
114616 Par ch=15 c=11 v=42
114620 Par ch=15 c=11 v=43
114624 Par ch=15 c=11 v=44
114628 Par ch=15 c=11 v=45
114632 Par ch=15 c=11 v=46
114640 Par ch=15 c=11 v=47
114644 Par ch=15 c=11 v=48
114648 Par ch=15 c=11 v=49
114652 Par ch=15 c=11 v=50
114660 Par ch=15 c=11 v=51
114664 Par ch=15 c=11 v=52
114668 Par ch=15 c=11 v=53
114672 Par ch=15 c=11 v=54
114676 Par ch=15 c=11 v=55
114682 On ch=15 n=61 v=0
114684 Par ch=15 c=11 v=56
114688 Par ch=15 c=11 v=57
114692 Par ch=15 c=11 v=58
114696 Par ch=15 c=11 v=59
114704 Par ch=15 c=11 v=60
114708 Par ch=15 c=11 v=61
114712 Par ch=15 c=11 v=62
114716 Par ch=15 c=11 v=63
114720 Par ch=15 c=11 v=64
114720 On ch=15 n=57 v=111
114720 On ch=15 n=63 v=111
114797 On ch=15 n=63 v=0
114816 On ch=15 n=61 v=111
114893 On ch=15 n=61 v=0
114893 On ch=15 n=57 v=0
114912 On ch=15 n=56 v=111
114912 On ch=15 n=59 v=111
115066 On ch=15 n=59 v=0
115066 On ch=15 n=56 v=0
115104 On ch=15 n=53 v=111
115104 On ch=15 n=56 v=111
115181 On ch=15 n=56 v=0
115181 On ch=15 n=53 v=0
115200 Par ch=15 c=11 v=64
115200 On ch=15 n=51 v=100
115200 On ch=15 n=63 v=100
115224 Par ch=15 c=11 v=63
115248 Par ch=15 c=11 v=62
115268 Par ch=15 c=11 v=61
115292 Par ch=15 c=11 v=60
115316 Par ch=15 c=11 v=59
115336 Par ch=15 c=11 v=58
115360 Par ch=15 c=11 v=57
115384 Par ch=15 c=11 v=56
115404 Par ch=15 c=11 v=55
115428 Par ch=15 c=11 v=54
115430 On ch=15 n=63 v=0
115430 On ch=15 n=51 v=0
115452 Par ch=15 c=11 v=53
115472 Par ch=15 c=11 v=52
115488 On ch=15 n=62 v=100
115488 On ch=15 n=50 v=100
115496 Par ch=15 c=11 v=51
115520 Par ch=15 c=11 v=50
115540 Par ch=15 c=11 v=49
115564 Par ch=15 c=11 v=48
115565 On ch=15 n=50 v=0
115565 On ch=15 n=62 v=0
115584 Par ch=15 c=11 v=48
115584 On ch=15 n=61 v=100
115584 On ch=15 n=49 v=100
115608 Par ch=15 c=11 v=49
115632 Par ch=15 c=11 v=50
115652 Par ch=15 c=11 v=51
115661 On ch=15 n=49 v=0
115661 On ch=15 n=61 v=0
115676 Par ch=15 c=11 v=52
115680 On ch=15 n=60 v=100
115680 On ch=15 n=48 v=100
115700 Par ch=15 c=11 v=53
115720 Par ch=15 c=11 v=54
115744 Par ch=15 c=11 v=55
115757 On ch=15 n=48 v=0
115757 On ch=15 n=60 v=0
115768 Par ch=15 c=11 v=56
115776 On ch=15 n=58 v=100
115776 On ch=15 n=46 v=100
115788 Par ch=15 c=11 v=57
115812 Par ch=15 c=11 v=58
115836 Par ch=15 c=11 v=59
115853 On ch=15 n=46 v=0
115853 On ch=15 n=58 v=0
115856 Par ch=15 c=11 v=60
115872 On ch=15 n=56 v=100
115872 On ch=15 n=44 v=100
115880 Par ch=15 c=11 v=61
115904 Par ch=15 c=11 v=62
115924 Par ch=15 c=11 v=63
115948 Par ch=15 c=11 v=64
115949 On ch=15 n=44 v=0
115949 On ch=15 n=56 v=0
115968 Par ch=15 c=11 v=64
115968 On ch=15 n=63 v=100
115968 On ch=15 n=51 v=100
115992 Par ch=15 c=11 v=63
116016 Par ch=15 c=11 v=62
116036 Par ch=15 c=11 v=61
116060 Par ch=15 c=11 v=60
116084 Par ch=15 c=11 v=59
116104 Par ch=15 c=11 v=58
116128 Par ch=15 c=11 v=57
116152 Par ch=15 c=11 v=56
116172 Par ch=15 c=11 v=55
116196 Par ch=15 c=11 v=54
116198 On ch=15 n=51 v=0
116198 On ch=15 n=63 v=0
116220 Par ch=15 c=11 v=53
116240 Par ch=15 c=11 v=52
116256 On ch=15 n=50 v=100
116256 On ch=15 n=62 v=100
116264 Par ch=15 c=11 v=51
116288 Par ch=15 c=11 v=50
116308 Par ch=15 c=11 v=49
116332 Par ch=15 c=11 v=48
116333 On ch=15 n=62 v=0
116333 On ch=15 n=50 v=0
116352 On ch=15 n=61 v=100
116352 On ch=15 n=49 v=100
116429 On ch=15 n=49 v=0
116429 On ch=15 n=61 v=0
116448 On ch=15 n=48 v=100
116448 On ch=15 n=60 v=100
116525 On ch=15 n=60 v=0
116525 On ch=15 n=48 v=0
116544 Par ch=15 c=11 v=48
116544 On ch=15 n=59 v=100
116544 On ch=15 n=47 v=100
116556 Par ch=15 c=11 v=47
116568 Par ch=15 c=11 v=46
116576 Par ch=15 c=11 v=45
116588 Par ch=15 c=11 v=44
116600 Par ch=15 c=11 v=43
116608 Par ch=15 c=11 v=42
116620 Par ch=15 c=11 v=41
116632 Par ch=15 c=11 v=40
116640 Par ch=15 c=11 v=39
116652 Par ch=15 c=11 v=38
116664 Par ch=15 c=11 v=37
116672 Par ch=15 c=11 v=36
116684 Par ch=15 c=11 v=35
116696 Par ch=15 c=11 v=34
116698 On ch=15 n=47 v=0
116698 On ch=15 n=59 v=0
116704 Par ch=15 c=11 v=33
116716 Par ch=15 c=11 v=32
117120 Par ch=15 c=11 v=64
118272 On ch=15 n=46 v=79
118368 On ch=15 n=46 v=0
118368 On ch=15 n=45 v=79
118464 On ch=15 n=45 v=0
118464 On ch=15 n=46 v=79
118560 On ch=15 n=46 v=0
118560 On ch=15 n=45 v=79
118637 On ch=15 n=45 v=0
118656 Par ch=15 c=11 v=64
118656 On ch=15 n=46 v=79
118680 Par ch=15 c=11 v=65
118704 Par ch=15 c=11 v=66
118724 Par ch=15 c=11 v=67
118748 Par ch=15 c=11 v=68
118752 On ch=15 n=46 v=0
118752 On ch=15 n=45 v=79
118772 Par ch=15 c=11 v=69
118792 Par ch=15 c=11 v=70
118816 Par ch=15 c=11 v=71
118840 Par ch=15 c=11 v=72
118848 On ch=15 n=45 v=0
118848 On ch=15 n=46 v=79
118860 Par ch=15 c=11 v=73
118884 Par ch=15 c=11 v=74
118908 Par ch=15 c=11 v=75
118928 Par ch=15 c=11 v=76
118944 On ch=15 n=46 v=0
118944 On ch=15 n=45 v=79
118952 Par ch=15 c=11 v=77
118976 Par ch=15 c=11 v=78
118996 Par ch=15 c=11 v=79
119020 Par ch=15 c=11 v=80
119021 On ch=15 n=45 v=0
119040 Par ch=15 c=11 v=64
119040 On ch=15 n=46 v=95
119136 On ch=15 n=46 v=0
119136 On ch=15 n=45 v=95
119232 On ch=15 n=45 v=0
119232 On ch=15 n=46 v=95
119328 On ch=15 n=46 v=0
119328 On ch=15 n=47 v=95
119424 On ch=15 n=47 v=0
119424 On ch=15 n=46 v=95
119520 On ch=15 n=46 v=0
119520 On ch=15 n=45 v=95
119616 On ch=15 n=45 v=0
119616 On ch=15 n=46 v=95
119693 On ch=15 n=46 v=0
120480 On ch=15 n=56 v=111
120518 On ch=15 n=56 v=0
120552 On ch=15 n=58 v=111
120571 On ch=15 n=58 v=0
120576 On ch=15 n=59 v=111
120653 On ch=15 n=59 v=0
120672 On ch=15 n=56 v=111
120703 On ch=15 n=56 v=0
120744 On ch=15 n=58 v=111
120760 On ch=15 n=58 v=0
120768 On ch=15 n=59 v=111
120845 On ch=15 n=59 v=0
120864 On ch=15 n=60 v=111
120902 On ch=15 n=60 v=0
120936 On ch=15 n=62 v=111
120955 On ch=15 n=62 v=0
120960 On ch=15 n=63 v=111
121037 On ch=15 n=63 v=0
121056 On ch=15 n=60 v=111
121094 On ch=15 n=60 v=0
121128 On ch=15 n=62 v=111
121147 On ch=15 n=62 v=0
121152 On ch=15 n=63 v=111
121248 On ch=15 n=63 v=0
121248 On ch=15 n=51 v=111
121248 On ch=15 n=63 v=111
121279 On ch=15 n=63 v=0
121279 On ch=15 n=51 v=0
121320 On ch=15 n=50 v=111
121320 On ch=15 n=62 v=111
121336 On ch=15 n=62 v=0
121336 On ch=15 n=50 v=0
121344 On ch=15 n=61 v=111
121344 On ch=15 n=49 v=111
121375 On ch=15 n=49 v=0
121375 On ch=15 n=61 v=0
121416 On ch=15 n=60 v=111
121416 On ch=15 n=48 v=111
121432 On ch=15 n=48 v=0
121432 On ch=15 n=60 v=0
121440 On ch=15 n=47 v=111
121440 On ch=15 n=59 v=111
121471 On ch=15 n=59 v=0
121471 On ch=15 n=47 v=0
121512 On ch=15 n=58 v=111
121512 On ch=15 n=46 v=111
121528 On ch=15 n=46 v=0
121528 On ch=15 n=58 v=0
121536 On ch=15 n=45 v=111
121536 On ch=15 n=57 v=111
121567 On ch=15 n=57 v=0
121567 On ch=15 n=45 v=0
121608 On ch=15 n=56 v=111
121608 On ch=15 n=44 v=111
121624 On ch=15 n=44 v=0
121624 On ch=15 n=56 v=0
121632 On ch=15 n=55 v=111
121632 On ch=15 n=43 v=111
121663 On ch=15 n=43 v=0
121663 On ch=15 n=55 v=0
121704 On ch=15 n=54 v=111
121704 On ch=15 n=42 v=111
121720 On ch=15 n=42 v=0
121720 On ch=15 n=54 v=0
122112 Par ch=15 c=11 v=64
122112 On ch=15 n=69 v=111
122112 On ch=15 n=57 v=111
122120 Par ch=15 c=11 v=63
122124 Par ch=15 c=11 v=62
122132 Par ch=15 c=11 v=61
122136 Par ch=15 c=11 v=60
122144 Par ch=15 c=11 v=59
122148 Par ch=15 c=11 v=58
122156 Par ch=15 c=11 v=57
122160 Par ch=15 c=11 v=56
122168 Par ch=15 c=11 v=55
122172 Par ch=15 c=11 v=54
122180 Par ch=15 c=11 v=53
122184 Par ch=15 c=11 v=52
122192 Par ch=15 c=11 v=51
122196 Par ch=15 c=11 v=50
122204 Par ch=15 c=11 v=49
122208 Par ch=15 c=11 v=48
122212 Par ch=15 c=11 v=47
122220 Par ch=15 c=11 v=46
122224 Par ch=15 c=11 v=45
122232 Par ch=15 c=11 v=44
122236 Par ch=15 c=11 v=43
122244 Par ch=15 c=11 v=42
122248 Par ch=15 c=11 v=41
122256 Par ch=15 c=11 v=40
122260 Par ch=15 c=11 v=39
122268 Par ch=15 c=11 v=38
122272 Par ch=15 c=11 v=37
122280 Par ch=15 c=11 v=36
122284 Par ch=15 c=11 v=35
122292 Par ch=15 c=11 v=34
122296 Par ch=15 c=11 v=33
122304 Par ch=15 c=11 v=32
122308 Par ch=15 c=11 v=31
122312 Par ch=15 c=11 v=30
122320 Par ch=15 c=11 v=29
122324 Par ch=15 c=11 v=28
122332 Par ch=15 c=11 v=27
122336 Par ch=15 c=11 v=26
122344 Par ch=15 c=11 v=25
122348 Par ch=15 c=11 v=24
122356 Par ch=15 c=11 v=23
122360 Par ch=15 c=11 v=22
122368 Par ch=15 c=11 v=21
122372 Par ch=15 c=11 v=20
122380 Par ch=15 c=11 v=19
122384 Par ch=15 c=11 v=18
122392 Par ch=15 c=11 v=17
122396 Par ch=15 c=11 v=16
122438 On ch=15 n=57 v=0
122438 On ch=15 n=69 v=0
122496 Par ch=15 c=11 v=64
122496 On ch=15 n=57 v=111
122496 On ch=15 n=45 v=111
122504 Par ch=15 c=11 v=63
122508 Par ch=15 c=11 v=62
122516 Par ch=15 c=11 v=61
122520 Par ch=15 c=11 v=60
122528 Par ch=15 c=11 v=59
122532 Par ch=15 c=11 v=58
122540 Par ch=15 c=11 v=57
122544 Par ch=15 c=11 v=56
122552 Par ch=15 c=11 v=55
122556 Par ch=15 c=11 v=54
122564 Par ch=15 c=11 v=53
122568 Par ch=15 c=11 v=52
122576 Par ch=15 c=11 v=51
122580 Par ch=15 c=11 v=50
122588 Par ch=15 c=11 v=49
122592 Par ch=15 c=11 v=48
122596 Par ch=15 c=11 v=47
122604 Par ch=15 c=11 v=46
122608 Par ch=15 c=11 v=45
122616 Par ch=15 c=11 v=44
122620 Par ch=15 c=11 v=43
122628 Par ch=15 c=11 v=42
122632 Par ch=15 c=11 v=41
122640 Par ch=15 c=11 v=40
122644 Par ch=15 c=11 v=39
122652 Par ch=15 c=11 v=38
122656 Par ch=15 c=11 v=37
122664 Par ch=15 c=11 v=36
122668 Par ch=15 c=11 v=35
122676 Par ch=15 c=11 v=34
122680 Par ch=15 c=11 v=33
122688 Par ch=15 c=11 v=32
122692 Par ch=15 c=11 v=31
122696 Par ch=15 c=11 v=30
122704 Par ch=15 c=11 v=29
122708 Par ch=15 c=11 v=28
122716 Par ch=15 c=11 v=27
122720 Par ch=15 c=11 v=26
122728 Par ch=15 c=11 v=25
122732 Par ch=15 c=11 v=24
122740 Par ch=15 c=11 v=23
122744 Par ch=15 c=11 v=22
122752 Par ch=15 c=11 v=21
122756 Par ch=15 c=11 v=20
122764 Par ch=15 c=11 v=19
122768 Par ch=15 c=11 v=18
122776 Par ch=15 c=11 v=17
122780 Par ch=15 c=11 v=16
122822 On ch=15 n=45 v=0
122822 On ch=15 n=57 v=0
122880 Par ch=15 c=11 v=64
122880 On ch=15 n=55 v=111
123034 On ch=15 n=55 v=0
123072 On ch=15 n=56 v=111
123187 On ch=15 n=56 v=0
123216 On ch=15 n=57 v=111
123247 On ch=15 n=57 v=0
123264 On ch=15 n=57 v=111
123295 On ch=15 n=57 v=0
123360 On ch=15 n=58 v=111
123475 On ch=15 n=58 v=0
123648 On ch=15 n=55 v=111
123802 On ch=15 n=55 v=0
123840 On ch=15 n=56 v=111
123917 On ch=15 n=56 v=0
123936 On ch=15 n=57 v=111
123994 On ch=15 n=57 v=0
124008 On ch=15 n=58 v=111
124024 On ch=15 n=58 v=0
124032 On ch=15 n=58 v=111
124063 On ch=15 n=58 v=0
124128 On ch=15 n=61 v=111
124243 On ch=15 n=61 v=0
124416 On ch=15 n=55 v=111
124570 On ch=15 n=55 v=0
124608 On ch=15 n=56 v=111
124685 On ch=15 n=56 v=0
124704 On ch=15 n=57 v=111
124730 On ch=15 n=57 v=0
124736 On ch=15 n=60 v=111
124762 On ch=15 n=60 v=0
124768 On ch=15 n=63 v=111
124794 On ch=15 n=63 v=0
124800 On ch=15 n=66 v=111
124800 On ch=15 n=63 v=111
124877 On ch=15 n=63 v=0
124877 On ch=15 n=66 v=0
124896 On ch=15 n=66 v=111
124896 On ch=15 n=63 v=111
124922 On ch=15 n=63 v=0
124922 On ch=15 n=66 v=0
124928 On ch=15 n=66 v=111
124928 On ch=15 n=63 v=111
124954 On ch=15 n=63 v=0
124954 On ch=15 n=66 v=0
124960 On ch=15 n=66 v=111
124960 On ch=15 n=63 v=111
124986 On ch=15 n=63 v=0
124986 On ch=15 n=66 v=0
124992 On ch=15 n=66 v=111
124992 On ch=15 n=63 v=111
125069 On ch=15 n=63 v=0
125069 On ch=15 n=66 v=0
125088 On ch=15 n=66 v=111
125088 On ch=15 n=63 v=111
125114 On ch=15 n=63 v=0
125114 On ch=15 n=66 v=0
125120 On ch=15 n=66 v=111
125120 On ch=15 n=63 v=111
125146 On ch=15 n=63 v=0
125146 On ch=15 n=66 v=0
125152 On ch=15 n=66 v=111
125152 On ch=15 n=63 v=111
125178 On ch=15 n=63 v=0
125178 On ch=15 n=66 v=0
125184 On ch=15 n=66 v=111
125184 On ch=15 n=63 v=111
125222 On ch=15 n=63 v=0
125222 On ch=15 n=66 v=0
125256 On ch=15 n=63 v=111
125256 On ch=15 n=66 v=111
125275 On ch=15 n=66 v=0
125275 On ch=15 n=63 v=0
125280 On ch=15 n=66 v=111
125280 On ch=15 n=63 v=111
125318 On ch=15 n=63 v=0
125318 On ch=15 n=66 v=0
125352 On ch=15 n=63 v=111
125352 On ch=15 n=66 v=111
125371 On ch=15 n=66 v=0
125371 On ch=15 n=63 v=0
125376 On ch=15 n=66 v=111
125376 On ch=15 n=63 v=111
125414 On ch=15 n=63 v=0
125414 On ch=15 n=66 v=0
125448 On ch=15 n=63 v=111
125448 On ch=15 n=66 v=111
125467 On ch=15 n=66 v=0
125467 On ch=15 n=63 v=0
125472 On ch=15 n=66 v=111
125472 On ch=15 n=63 v=111
125510 On ch=15 n=63 v=0
125510 On ch=15 n=66 v=0
125544 On ch=15 n=63 v=111
125544 On ch=15 n=66 v=111
125563 On ch=15 n=66 v=0
125563 On ch=15 n=63 v=0
125568 On ch=15 n=68 v=111
125568 On ch=15 n=65 v=111
125606 On ch=15 n=65 v=0
125606 On ch=15 n=68 v=0
125640 On ch=15 n=68 v=111
125640 On ch=15 n=65 v=111
125659 On ch=15 n=65 v=0
125659 On ch=15 n=68 v=0
125664 On ch=15 n=68 v=111
125664 On ch=15 n=65 v=111
125690 On ch=15 n=65 v=0
125690 On ch=15 n=68 v=0
125696 On ch=15 n=68 v=111
125696 On ch=15 n=65 v=111
125722 On ch=15 n=65 v=0
125722 On ch=15 n=68 v=0
125728 On ch=15 n=68 v=111
125728 On ch=15 n=65 v=111
125754 On ch=15 n=65 v=0
125754 On ch=15 n=68 v=0
125760 On ch=15 n=68 v=111
125760 On ch=15 n=65 v=111
125798 On ch=15 n=65 v=0
125798 On ch=15 n=68 v=0
125832 On ch=15 n=68 v=111
125832 On ch=15 n=65 v=111
125851 On ch=15 n=65 v=0
125851 On ch=15 n=68 v=0
125856 On ch=15 n=68 v=111
125856 On ch=15 n=65 v=111
125882 On ch=15 n=65 v=0
125882 On ch=15 n=68 v=0
125888 On ch=15 n=68 v=111
125888 On ch=15 n=65 v=111
125914 On ch=15 n=65 v=0
125914 On ch=15 n=68 v=0
125920 On ch=15 n=68 v=111
125920 On ch=15 n=65 v=111
125946 On ch=15 n=65 v=0
125946 On ch=15 n=68 v=0
125952 Par ch=15 c=11 v=64
125952 On ch=15 n=68 v=111
125952 On ch=15 n=65 v=111
125976 Par ch=15 c=11 v=65
125990 On ch=15 n=65 v=0
125990 On ch=15 n=68 v=0
126000 Par ch=15 c=11 v=66
126000 On ch=15 n=68 v=111
126000 On ch=15 n=65 v=111
126020 Par ch=15 c=11 v=67
126038 On ch=15 n=65 v=0
126038 On ch=15 n=68 v=0
126044 Par ch=15 c=11 v=68
126048 On ch=15 n=68 v=111
126048 On ch=15 n=65 v=111
126068 Par ch=15 c=11 v=69
126086 On ch=15 n=65 v=0
126086 On ch=15 n=68 v=0
126088 Par ch=15 c=11 v=70
126096 On ch=15 n=68 v=111
126096 On ch=15 n=65 v=111
126112 Par ch=15 c=11 v=71
126134 On ch=15 n=65 v=0
126134 On ch=15 n=68 v=0
126136 Par ch=15 c=11 v=72
126144 On ch=15 n=65 v=111
126144 On ch=15 n=68 v=111
126156 Par ch=15 c=11 v=73
126170 On ch=15 n=68 v=0
126170 On ch=15 n=65 v=0
126176 On ch=15 n=65 v=111
126176 On ch=15 n=68 v=111
126180 Par ch=15 c=11 v=74
126202 On ch=15 n=68 v=0
126202 On ch=15 n=65 v=0
126204 Par ch=15 c=11 v=75
126208 On ch=15 n=65 v=111
126208 On ch=15 n=68 v=111
126224 Par ch=15 c=11 v=76
126234 On ch=15 n=68 v=0
126234 On ch=15 n=65 v=0
126240 On ch=15 n=65 v=111
126240 On ch=15 n=68 v=111
126248 Par ch=15 c=11 v=77
126266 On ch=15 n=68 v=0
126266 On ch=15 n=65 v=0
126272 Par ch=15 c=11 v=78
126272 On ch=15 n=65 v=111
126272 On ch=15 n=68 v=111
126292 Par ch=15 c=11 v=79
126298 On ch=15 n=68 v=0
126298 On ch=15 n=65 v=0
126304 On ch=15 n=65 v=111
126304 On ch=15 n=68 v=111
126316 Par ch=15 c=11 v=80
126330 On ch=15 n=68 v=0
126330 On ch=15 n=65 v=0
126336 Par ch=15 c=11 v=64
126336 On ch=15 n=72 v=127
126336 On ch=15 n=60 v=127
126367 On ch=15 n=60 v=0
126367 On ch=15 n=72 v=0
126384 On ch=15 n=60 v=127
126384 On ch=15 n=48 v=127
126415 On ch=15 n=48 v=0
126415 On ch=15 n=60 v=0
134784 Par ch=15 c=11 v=64
134784 On ch=15 n=52 v=47
134792 Par ch=15 c=11 v=65
134800 Par ch=15 c=11 v=66
134808 Par ch=15 c=11 v=67
134816 Par ch=15 c=11 v=68
134824 Par ch=15 c=11 v=69
134832 Par ch=15 c=11 v=70
134840 Par ch=15 c=11 v=71
134848 Par ch=15 c=11 v=72
134856 Par ch=15 c=11 v=73
134864 Par ch=15 c=11 v=74
134872 Par ch=15 c=11 v=75
134880 Par ch=15 c=11 v=76
134888 Par ch=15 c=11 v=77
134896 Par ch=15 c=11 v=78
134904 Par ch=15 c=11 v=79
134912 Par ch=15 c=11 v=80
134920 Par ch=15 c=11 v=81
134928 Par ch=15 c=11 v=82
134936 Par ch=15 c=11 v=83
134938 On ch=15 n=52 v=0
134944 Par ch=15 c=11 v=84
134952 Par ch=15 c=11 v=85
134960 Par ch=15 c=11 v=86
134968 Par ch=15 c=11 v=87
134976 Par ch=15 c=11 v=88
134976 On ch=15 n=55 v=47
134980 Par ch=15 c=11 v=89
134988 Par ch=15 c=11 v=90
134996 Par ch=15 c=11 v=91
135004 Par ch=15 c=11 v=92
135012 Par ch=15 c=11 v=93
135020 Par ch=15 c=11 v=94
135028 Par ch=15 c=11 v=95
135036 Par ch=15 c=11 v=96
135044 Par ch=15 c=11 v=97
135052 Par ch=15 c=11 v=98
135060 Par ch=15 c=11 v=99
135068 Par ch=15 c=11 v=100
135076 Par ch=15 c=11 v=101
135084 Par ch=15 c=11 v=102
135091 On ch=15 n=55 v=0
135092 Par ch=15 c=11 v=103
135100 Par ch=15 c=11 v=104
135108 Par ch=15 c=11 v=105
135116 Par ch=15 c=11 v=106
135120 On ch=15 n=53 v=47
135124 Par ch=15 c=11 v=107
135132 Par ch=15 c=11 v=108
135140 Par ch=15 c=11 v=109
135148 Par ch=15 c=11 v=110
135156 Par ch=15 c=11 v=111
135158 On ch=15 n=53 v=0
135164 Par ch=15 c=11 v=112
135168 Par ch=15 c=11 v=64
135168 On ch=15 n=52 v=95
135322 On ch=15 n=52 v=0
135552 On ch=15 n=60 v=111
135583 On ch=15 n=60 v=0
135624 On ch=15 n=58 v=111
135640 On ch=15 n=58 v=0
135648 On ch=15 n=56 v=111
135679 On ch=15 n=56 v=0
135720 On ch=15 n=55 v=111
135736 On ch=15 n=55 v=0
135744 On ch=15 n=53 v=111
135775 On ch=15 n=53 v=0
135936 On ch=15 n=68 v=111
135936 On ch=15 n=56 v=111
135967 On ch=15 n=56 v=0
135967 On ch=15 n=68 v=0
136008 On ch=15 n=67 v=111
136008 On ch=15 n=55 v=111
136024 On ch=15 n=55 v=0
136024 On ch=15 n=67 v=0
136032 On ch=15 n=65 v=111
136032 On ch=15 n=53 v=111
136063 On ch=15 n=53 v=0
136063 On ch=15 n=65 v=0
136104 On ch=15 n=63 v=111
136104 On ch=15 n=51 v=111
136120 On ch=15 n=51 v=0
136120 On ch=15 n=63 v=0
136128 On ch=15 n=61 v=111
136128 On ch=15 n=49 v=111
136159 On ch=15 n=49 v=0
136159 On ch=15 n=61 v=0
136320 On ch=15 n=67 v=95
136320 On ch=15 n=55 v=95
136474 On ch=15 n=55 v=0
136474 On ch=15 n=67 v=0
136512 On ch=15 n=66 v=95
136512 On ch=15 n=54 v=95
136589 On ch=15 n=54 v=0
136589 On ch=15 n=66 v=0
136608 On ch=15 n=65 v=95
136608 On ch=15 n=53 v=95
136685 On ch=15 n=53 v=0
136685 On ch=15 n=65 v=0
136704 On ch=15 n=64 v=95
136704 On ch=15 n=52 v=95
136735 On ch=15 n=52 v=0
136735 On ch=15 n=64 v=0
136800 Par ch=15 c=11 v=64
136800 On ch=15 n=51 v=95
136800 On ch=15 n=63 v=95
136812 Par ch=15 c=11 v=65
136820 Par ch=15 c=11 v=66
136828 Par ch=15 c=11 v=67
136836 Par ch=15 c=11 v=68
136844 Par ch=15 c=11 v=69
136856 Par ch=15 c=11 v=70
136864 Par ch=15 c=11 v=71
136872 Par ch=15 c=11 v=72
136880 Par ch=15 c=11 v=73
136888 Par ch=15 c=11 v=74
136896 Par ch=15 c=11 v=75
136908 Par ch=15 c=11 v=76
136916 Par ch=15 c=11 v=77
136924 Par ch=15 c=11 v=78
136932 Par ch=15 c=11 v=79
136940 Par ch=15 c=11 v=80
136952 Par ch=15 c=11 v=81
136954 On ch=15 n=63 v=0
136954 On ch=15 n=51 v=0
136960 Par ch=15 c=11 v=82
136968 Par ch=15 c=11 v=83
136976 Par ch=15 c=11 v=84
136984 Par ch=15 c=11 v=85
136992 Par ch=15 c=11 v=86
136992 On ch=15 n=62 v=95
136992 On ch=15 n=50 v=95
137004 Par ch=15 c=11 v=87
137012 Par ch=15 c=11 v=88
137020 Par ch=15 c=11 v=89
137028 Par ch=15 c=11 v=90
137036 Par ch=15 c=11 v=91
137048 Par ch=15 c=11 v=92
137056 Par ch=15 c=11 v=93
137064 Par ch=15 c=11 v=94
137069 On ch=15 n=50 v=0
137069 On ch=15 n=62 v=0
137072 Par ch=15 c=11 v=95
137080 Par ch=15 c=11 v=96
137088 Par ch=15 c=11 v=64
137088 On ch=15 n=60 v=127
137088 On ch=15 n=48 v=127
137126 On ch=15 n=48 v=0
137126 On ch=15 n=60 v=0
153216 On ch=15 n=60 v=31
153370 On ch=15 n=60 v=0
153408 On ch=15 n=59 v=31
153523 On ch=15 n=59 v=0
153552 On ch=15 n=55 v=31
153583 On ch=15 n=55 v=0
153600 On ch=15 n=60 v=31
153754 On ch=15 n=60 v=0
153792 On ch=15 n=59 v=31
153907 On ch=15 n=59 v=0
153936 On ch=15 n=55 v=31
153967 On ch=15 n=55 v=0
153984 On ch=15 n=60 v=31
154022 On ch=15 n=60 v=0
155136 On ch=15 n=55 v=47
155290 On ch=15 n=55 v=0
155328 On ch=15 n=58 v=47
155443 On ch=15 n=58 v=0
155472 On ch=15 n=56 v=47
155503 On ch=15 n=56 v=0
155520 On ch=15 n=55 v=47
155674 On ch=15 n=55 v=0
155712 On ch=15 n=58 v=47
155827 On ch=15 n=58 v=0
155856 On ch=15 n=56 v=47
155887 On ch=15 n=56 v=0
155904 On ch=15 n=55 v=63
155981 On ch=15 n=55 v=0
156000 On ch=15 n=60 v=63
156058 On ch=15 n=60 v=0
156072 On ch=15 n=58 v=63
156091 On ch=15 n=58 v=0
156096 On ch=15 n=55 v=63
156211 On ch=15 n=55 v=0
156240 On ch=15 n=53 v=63
156271 On ch=15 n=53 v=0
156288 On ch=15 n=55 v=63
156319 On ch=15 n=55 v=0
156360 On ch=15 n=60 v=63
156376 On ch=15 n=60 v=0
156384 On ch=15 n=67 v=63
156509 On ch=15 n=67 v=0
158208 On ch=15 n=61 v=47
158208 On ch=15 n=58 v=47
158822 On ch=15 n=58 v=0
158822 On ch=15 n=61 v=0
158976 On ch=15 n=63 v=79
158976 On ch=15 n=60 v=79
159590 On ch=15 n=60 v=0
159590 On ch=15 n=63 v=0
159744 On ch=15 n=68 v=95
159744 On ch=15 n=65 v=95
160205 On ch=15 n=65 v=0
160205 On ch=15 n=68 v=0
160512 Par ch=15 c=11 v=64
160512 On ch=15 n=63 v=95
160512 On ch=15 n=55 v=95
160516 Par ch=15 c=11 v=63
160520 Par ch=15 c=11 v=62
160524 Par ch=15 c=11 v=61
160528 Par ch=15 c=11 v=60
160532 Par ch=15 c=11 v=59
160536 Par ch=15 c=11 v=58
160540 Par ch=15 c=11 v=57
160544 Par ch=15 c=11 v=56
160548 Par ch=15 c=11 v=55
160552 Par ch=15 c=11 v=54
160556 Par ch=15 c=11 v=53
160560 Par ch=15 c=11 v=52
160564 Par ch=15 c=11 v=51
160568 Par ch=15 c=11 v=50
160572 Par ch=15 c=11 v=49
160576 Par ch=15 c=11 v=48
160580 Par ch=15 c=11 v=47
160584 Par ch=15 c=11 v=46
160588 Par ch=15 c=11 v=45
160592 Par ch=15 c=11 v=44
160596 Par ch=15 c=11 v=43
160600 Par ch=15 c=11 v=42
160604 Par ch=15 c=11 v=41
160608 Par ch=15 c=11 v=40
160612 Par ch=15 c=11 v=39
160616 Par ch=15 c=11 v=38
160620 Par ch=15 c=11 v=37
160624 Par ch=15 c=11 v=36
160628 Par ch=15 c=11 v=35
160632 Par ch=15 c=11 v=34
160636 Par ch=15 c=11 v=33
160640 Par ch=15 c=11 v=32
160644 Par ch=15 c=11 v=31
160648 Par ch=15 c=11 v=30
160652 Par ch=15 c=11 v=29
160656 Par ch=15 c=11 v=28
160660 Par ch=15 c=11 v=27
160664 Par ch=15 c=11 v=26
160668 Par ch=15 c=11 v=25
160672 Par ch=15 c=11 v=24
160676 Par ch=15 c=11 v=23
160680 Par ch=15 c=11 v=22
160684 Par ch=15 c=11 v=21
160688 Par ch=15 c=11 v=20
160692 Par ch=15 c=11 v=19
160696 Par ch=15 c=11 v=18
160700 Par ch=15 c=11 v=17
160742 On ch=15 n=55 v=0
160742 On ch=15 n=63 v=0
160896 Par ch=15 c=11 v=64
164064 On ch=15 n=61 v=47
164064 On ch=15 n=58 v=47
164218 On ch=15 n=58 v=0
164218 On ch=15 n=61 v=0
164448 On ch=15 n=61 v=47
164448 On ch=15 n=58 v=47
164602 On ch=15 n=58 v=0
164602 On ch=15 n=61 v=0
164736 On ch=15 n=56 v=31
164736 On ch=15 n=60 v=31
164813 On ch=15 n=56 v=0
164832 On ch=15 n=60 v=0
164832 On ch=15 n=58 v=31
164832 On ch=15 n=63 v=31
164904 On ch=15 n=63 v=0
164904 On ch=15 n=62 v=31
164928 On ch=15 n=62 v=0
164928 On ch=15 n=61 v=31
164986 On ch=15 n=58 v=0
165024 On ch=15 n=61 v=0
165024 On ch=15 n=56 v=31
165024 On ch=15 n=60 v=31
165096 On ch=15 n=60 v=0
165096 On ch=15 n=59 v=31
165101 On ch=15 n=56 v=0
165120 On ch=15 n=59 v=0
165120 On ch=15 n=55 v=31
165120 On ch=15 n=60 v=31
165197 On ch=15 n=60 v=0
165197 On ch=15 n=55 v=0
165792 On ch=15 n=61 v=31
165792 On ch=15 n=58 v=31
165869 On ch=15 n=58 v=0
165869 On ch=15 n=61 v=0
165888 On ch=15 n=60 v=31
165888 On ch=15 n=56 v=31
165965 On ch=15 n=56 v=0
165984 On ch=15 n=60 v=0
165984 On ch=15 n=63 v=31
165984 On ch=15 n=58 v=31
166038 On ch=15 n=63 v=0
166056 On ch=15 n=62 v=31
166080 On ch=15 n=62 v=0
166080 On ch=15 n=61 v=31
166138 On ch=15 n=58 v=0
166176 On ch=15 n=61 v=0
166176 On ch=15 n=60 v=31
166176 On ch=15 n=56 v=31
166248 On ch=15 n=60 v=0
166248 On ch=15 n=59 v=31
166253 On ch=15 n=56 v=0
166272 On ch=15 n=59 v=0
166272 On ch=15 n=60 v=31
166272 On ch=15 n=55 v=31
166349 On ch=15 n=55 v=0
166349 On ch=15 n=60 v=0
166349 Meta TrkEnd
TrkEnd
MTrk
0 Meta 0x21 00
0 Meta TrkName "TROMBONE"
192 Par ch=16 c=1 v=8
196 Par ch=16 c=7 v=127
200 Par ch=16 c=10 v=127
204 Par ch=16 c=11 v=64
208 Par ch=16 c=91 v=96
212 Par ch=16 c=93 v=48
216 Par ch=16 c=0 v=0
216 Par ch=16 c=32 v=0
216 PrCh ch=16 p=57
14080 Par ch=16 c=11 v=64
14080 On ch=16 n=48 v=47
14084 Par ch=16 c=11 v=65
14088 Par ch=16 c=11 v=67
14092 Par ch=16 c=11 v=68
14096 Par ch=16 c=11 v=70
14100 Par ch=16 c=11 v=71
14101 On ch=16 n=48 v=0
14104 Par ch=16 c=11 v=73
14108 Par ch=16 c=11 v=74
14112 Par ch=16 c=11 v=76
14112 On ch=16 n=55 v=47
14116 Par ch=16 c=11 v=77
14120 Par ch=16 c=11 v=79
14124 Par ch=16 c=11 v=80
14128 Par ch=16 c=11 v=82
14132 Par ch=16 c=11 v=83
14133 On ch=16 n=55 v=0
14136 Par ch=16 c=11 v=85
14140 Par ch=16 c=11 v=86
14144 Par ch=16 c=11 v=88
14144 On ch=16 n=58 v=47
14148 Par ch=16 c=11 v=90
14152 Par ch=16 c=11 v=91
14156 Par ch=16 c=11 v=93
14160 Par ch=16 c=11 v=94
14164 Par ch=16 c=11 v=96
14165 On ch=16 n=58 v=0
14168 Par ch=16 c=11 v=97
14172 Par ch=16 c=11 v=99
14176 Par ch=16 c=11 v=100
14176 On ch=16 n=61 v=47
14180 Par ch=16 c=11 v=102
14184 Par ch=16 c=11 v=103
14188 Par ch=16 c=11 v=105
14192 Par ch=16 c=11 v=106
14196 Par ch=16 c=11 v=108
14197 On ch=16 n=61 v=0
14200 Par ch=16 c=11 v=109
14204 Par ch=16 c=11 v=111
14208 Par ch=16 c=11 v=64
14208 On ch=16 n=60 v=95
14240 On ch=16 n=60 v=0
14592 On ch=16 n=56 v=111
14623 On ch=16 n=56 v=0
14664 On ch=16 n=55 v=111
14680 On ch=16 n=55 v=0
14688 On ch=16 n=53 v=111
14719 On ch=16 n=53 v=0
14760 On ch=16 n=51 v=111
14776 On ch=16 n=51 v=0
14784 On ch=16 n=49 v=111
14815 On ch=16 n=49 v=0
14856 On ch=16 n=48 v=111
14872 On ch=16 n=48 v=0
14880 On ch=16 n=46 v=111
14911 On ch=16 n=46 v=0
14952 On ch=16 n=44 v=111
14968 On ch=16 n=44 v=0
14976 On ch=16 n=43 v=111
15014 On ch=16 n=43 v=0
15360 On ch=16 n=43 v=95
15408 Par ch=16 c=11 v=32
15420 Par ch=16 c=11 v=33
15432 Par ch=16 c=11 v=34
15440 Par ch=16 c=11 v=35
15452 Par ch=16 c=11 v=36
15460 Par ch=16 c=11 v=37
15472 Par ch=16 c=11 v=38
15480 Par ch=16 c=11 v=39
15492 Par ch=16 c=11 v=40
15500 Par ch=16 c=11 v=41
15512 Par ch=16 c=11 v=42
15520 Par ch=16 c=11 v=43
15532 Par ch=16 c=11 v=44
15544 Par ch=16 c=11 v=45
15552 Par ch=16 c=11 v=46
15564 Par ch=16 c=11 v=47
15572 Par ch=16 c=11 v=48
15584 Par ch=16 c=11 v=49
15592 Par ch=16 c=11 v=50
15604 Par ch=16 c=11 v=51
15612 Par ch=16 c=11 v=52
15624 Par ch=16 c=11 v=53
15632 Par ch=16 c=11 v=54
15644 Par ch=16 c=11 v=55
15656 Par ch=16 c=11 v=56
15664 Par ch=16 c=11 v=57
15667 On ch=16 n=43 v=0
15676 Par ch=16 c=11 v=58
15684 Par ch=16 c=11 v=59
15696 Par ch=16 c=11 v=60
15704 Par ch=16 c=11 v=61
15716 Par ch=16 c=11 v=62
15724 Par ch=16 c=11 v=63
15736 Par ch=16 c=11 v=64
15744 On ch=16 n=55 v=111
15744 On ch=16 n=48 v=111
15775 On ch=16 n=48 v=0
15775 On ch=16 n=55 v=0
15840 On ch=16 n=55 v=111
15840 On ch=16 n=48 v=111
15871 On ch=16 n=48 v=0
15871 On ch=16 n=55 v=0
16000 On ch=16 n=55 v=111
16000 On ch=16 n=48 v=111
16021 On ch=16 n=48 v=0
16021 On ch=16 n=55 v=0
16032 On ch=16 n=55 v=111
16032 On ch=16 n=48 v=111
16053 On ch=16 n=48 v=0
16053 On ch=16 n=55 v=0
16064 On ch=16 n=55 v=111
16064 On ch=16 n=48 v=111
16085 On ch=16 n=48 v=0
16085 On ch=16 n=55 v=0
16096 On ch=16 n=55 v=111
16096 On ch=16 n=48 v=111
16117 On ch=16 n=48 v=0
16117 On ch=16 n=55 v=0
16128 On ch=16 n=48 v=111
16128 On ch=16 n=55 v=111
16159 On ch=16 n=55 v=0
16159 On ch=16 n=48 v=0
16224 On ch=16 n=48 v=111
16224 On ch=16 n=55 v=111
16255 On ch=16 n=55 v=0
16255 On ch=16 n=48 v=0
16384 On ch=16 n=48 v=111
16384 On ch=16 n=55 v=111
16405 On ch=16 n=55 v=0
16405 On ch=16 n=48 v=0
16416 On ch=16 n=48 v=111
16416 On ch=16 n=55 v=111
16437 On ch=16 n=55 v=0
16437 On ch=16 n=48 v=0
16448 On ch=16 n=48 v=111
16448 On ch=16 n=55 v=111
16469 On ch=16 n=55 v=0
16469 On ch=16 n=48 v=0
16480 On ch=16 n=48 v=111
16480 On ch=16 n=55 v=111
16501 On ch=16 n=55 v=0
16501 On ch=16 n=48 v=0
16512 On ch=16 n=55 v=111
16512 On ch=16 n=48 v=111
16550 On ch=16 n=48 v=0
16550 On ch=16 n=55 v=0
28416 On ch=16 n=56 v=47
28570 On ch=16 n=56 v=0
28608 On ch=16 n=56 v=47
28608 On ch=16 n=49 v=47
28762 On ch=16 n=49 v=0
28762 On ch=16 n=56 v=0
28800 On ch=16 n=48 v=47
28800 On ch=16 n=56 v=47
28954 On ch=16 n=56 v=0
28992 On ch=16 n=48 v=0
28992 On ch=16 n=53 v=47
28992 On ch=16 n=56 v=47
29030 On ch=16 n=56 v=0
29030 On ch=16 n=53 v=0
29088 On ch=16 n=58 v=47
29088 On ch=16 n=51 v=47
29126 On ch=16 n=51 v=0
29126 On ch=16 n=58 v=0
29184 On ch=16 n=56 v=47
29184 On ch=16 n=60 v=47
29338 On ch=16 n=60 v=0
29338 On ch=16 n=56 v=0
29376 On ch=16 n=53 v=47
29376 On ch=16 n=56 v=47
29414 On ch=16 n=56 v=0
29414 On ch=16 n=53 v=0
29472 On ch=16 n=51 v=47
29472 On ch=16 n=58 v=47
29510 On ch=16 n=58 v=0
29510 On ch=16 n=51 v=0
29568 On ch=16 n=56 v=47
29568 On ch=16 n=60 v=47
29722 On ch=16 n=60 v=0
29722 On ch=16 n=56 v=0
29760 On ch=16 n=53 v=47
29760 On ch=16 n=56 v=47
29798 On ch=16 n=56 v=0
29798 On ch=16 n=53 v=0
29856 On ch=16 n=51 v=63
29856 On ch=16 n=58 v=63
29894 On ch=16 n=58 v=0
29894 On ch=16 n=51 v=0
29952 On ch=16 n=56 v=79
29952 On ch=16 n=60 v=79
29990 On ch=16 n=60 v=0
29990 On ch=16 n=56 v=0
30144 Par ch=16 c=11 v=64
30144 On ch=16 n=44 v=47
30156 Par ch=16 c=11 v=65
30164 Par ch=16 c=11 v=66
30172 Par ch=16 c=11 v=67
30184 Par ch=16 c=11 v=68
30192 Par ch=16 c=11 v=69
30200 Par ch=16 c=11 v=70
30208 Par ch=16 c=11 v=71
30220 Par ch=16 c=11 v=72
30228 Par ch=16 c=11 v=73
30236 Par ch=16 c=11 v=74
30248 Par ch=16 c=11 v=75
30256 Par ch=16 c=11 v=76
30264 Par ch=16 c=11 v=77
30272 Par ch=16 c=11 v=78
30284 Par ch=16 c=11 v=79
30292 Par ch=16 c=11 v=80
30298 On ch=16 n=44 v=0
30300 Par ch=16 c=11 v=81
30312 Par ch=16 c=11 v=82
30320 Par ch=16 c=11 v=83
30328 Par ch=16 c=11 v=84
30336 Par ch=16 c=11 v=85
30336 On ch=16 n=43 v=47
30348 Par ch=16 c=11 v=86
30356 Par ch=16 c=11 v=87
30364 Par ch=16 c=11 v=88
30376 Par ch=16 c=11 v=89
30384 Par ch=16 c=11 v=90
30392 Par ch=16 c=11 v=91
30400 Par ch=16 c=11 v=92
30412 Par ch=16 c=11 v=93
30420 Par ch=16 c=11 v=94
30428 Par ch=16 c=11 v=95
30440 Par ch=16 c=11 v=96
30448 Par ch=16 c=11 v=97
30456 Par ch=16 c=11 v=98
30464 Par ch=16 c=11 v=99
30476 Par ch=16 c=11 v=100
30484 Par ch=16 c=11 v=101
30490 On ch=16 n=43 v=0
30492 Par ch=16 c=11 v=102
30504 Par ch=16 c=11 v=103
30512 Par ch=16 c=11 v=104
30520 Par ch=16 c=11 v=105
30528 Par ch=16 c=11 v=106
30528 On ch=16 n=42 v=47
30540 Par ch=16 c=11 v=107
30548 Par ch=16 c=11 v=108
30556 Par ch=16 c=11 v=109
30568 Par ch=16 c=11 v=110
30576 Par ch=16 c=11 v=111
30584 Par ch=16 c=11 v=112
30592 Par ch=16 c=11 v=113
30604 Par ch=16 c=11 v=114
30612 Par ch=16 c=11 v=115
30620 Par ch=16 c=11 v=116
30632 Par ch=16 c=11 v=117
30640 Par ch=16 c=11 v=118
30648 Par ch=16 c=11 v=119
30656 Par ch=16 c=11 v=120
30668 Par ch=16 c=11 v=121
30676 Par ch=16 c=11 v=122
30682 On ch=16 n=42 v=0
30684 Par ch=16 c=11 v=123
30696 Par ch=16 c=11 v=124
30704 Par ch=16 c=11 v=125
30712 Par ch=16 c=11 v=126
30720 On ch=16 n=43 v=47
30797 On ch=16 n=43 v=0
31104 Par ch=16 c=11 v=64
33408 On ch=16 n=43 v=95
33456 Par ch=16 c=11 v=32
33468 Par ch=16 c=11 v=33
33480 Par ch=16 c=11 v=34
33488 Par ch=16 c=11 v=35
33500 Par ch=16 c=11 v=36
33508 Par ch=16 c=11 v=37
33520 Par ch=16 c=11 v=38
33528 Par ch=16 c=11 v=39
33540 Par ch=16 c=11 v=40
33548 Par ch=16 c=11 v=41
33560 Par ch=16 c=11 v=42
33568 Par ch=16 c=11 v=43
33580 Par ch=16 c=11 v=44
33592 Par ch=16 c=11 v=45
33600 Par ch=16 c=11 v=46
33612 Par ch=16 c=11 v=47
33620 Par ch=16 c=11 v=48
33632 Par ch=16 c=11 v=49
33640 Par ch=16 c=11 v=50
33652 Par ch=16 c=11 v=51
33660 Par ch=16 c=11 v=52
33672 Par ch=16 c=11 v=53
33680 Par ch=16 c=11 v=54
33692 Par ch=16 c=11 v=55
33704 Par ch=16 c=11 v=56
33712 Par ch=16 c=11 v=57
33715 On ch=16 n=43 v=0
33724 Par ch=16 c=11 v=58
33732 Par ch=16 c=11 v=59
33744 Par ch=16 c=11 v=60
33752 Par ch=16 c=11 v=61
33764 Par ch=16 c=11 v=62
33772 Par ch=16 c=11 v=63
33784 Par ch=16 c=11 v=64
33792 On ch=16 n=48 v=95
33840 Par ch=16 c=11 v=32
33852 Par ch=16 c=11 v=33
33864 Par ch=16 c=11 v=34
33872 Par ch=16 c=11 v=35
33884 Par ch=16 c=11 v=36
33892 Par ch=16 c=11 v=37
33904 Par ch=16 c=11 v=38
33912 Par ch=16 c=11 v=39
33924 Par ch=16 c=11 v=40
33932 Par ch=16 c=11 v=41
33944 Par ch=16 c=11 v=42
33952 Par ch=16 c=11 v=43
33964 Par ch=16 c=11 v=44
33976 Par ch=16 c=11 v=45
33984 Par ch=16 c=11 v=46
33996 Par ch=16 c=11 v=47
34004 Par ch=16 c=11 v=48
34016 Par ch=16 c=11 v=49
34024 Par ch=16 c=11 v=50
34036 Par ch=16 c=11 v=51
34044 Par ch=16 c=11 v=52
34056 Par ch=16 c=11 v=53
34064 Par ch=16 c=11 v=54
34076 Par ch=16 c=11 v=55
34088 Par ch=16 c=11 v=56
34096 Par ch=16 c=11 v=57
34099 On ch=16 n=48 v=0
34108 Par ch=16 c=11 v=58
34116 Par ch=16 c=11 v=59
34128 Par ch=16 c=11 v=60
34136 Par ch=16 c=11 v=61
34148 Par ch=16 c=11 v=62
34156 Par ch=16 c=11 v=63
34168 Par ch=16 c=11 v=64
34176 On ch=16 n=55 v=47
34176 On ch=16 n=50 v=47
34224 Par ch=16 c=11 v=64
34236 Par ch=16 c=11 v=65
34248 Par ch=16 c=11 v=66
34260 Par ch=16 c=11 v=67
34268 Par ch=16 c=11 v=68
34280 Par ch=16 c=11 v=69
34292 Par ch=16 c=11 v=70
34300 Par ch=16 c=11 v=71
34312 Par ch=16 c=11 v=72
34324 Par ch=16 c=11 v=73
34336 Par ch=16 c=11 v=74
34344 Par ch=16 c=11 v=75
34356 Par ch=16 c=11 v=76
34368 Par ch=16 c=11 v=77
34376 Par ch=16 c=11 v=78
34388 Par ch=16 c=11 v=79
34400 Par ch=16 c=11 v=80
34412 Par ch=16 c=11 v=81
34420 Par ch=16 c=11 v=82
34432 Par ch=16 c=11 v=83
34444 Par ch=16 c=11 v=84
34452 Par ch=16 c=11 v=85
34464 Par ch=16 c=11 v=86
34476 Par ch=16 c=11 v=87
34488 Par ch=16 c=11 v=88
34496 Par ch=16 c=11 v=89
34508 Par ch=16 c=11 v=90
34520 Par ch=16 c=11 v=91
34528 Par ch=16 c=11 v=92
34540 Par ch=16 c=11 v=93
34552 Par ch=16 c=11 v=94
34560 Par ch=16 c=11 v=95
34572 Par ch=16 c=11 v=96
34584 Par ch=16 c=11 v=97
34596 Par ch=16 c=11 v=98
34604 Par ch=16 c=11 v=99
34616 Par ch=16 c=11 v=100
34628 Par ch=16 c=11 v=101
34636 Par ch=16 c=11 v=102
34637 On ch=16 n=50 v=0
34648 Par ch=16 c=11 v=103
34660 Par ch=16 c=11 v=104
34672 Par ch=16 c=11 v=105
34680 Par ch=16 c=11 v=106
34692 Par ch=16 c=11 v=107
34704 Par ch=16 c=11 v=108
34712 Par ch=16 c=11 v=109
34724 Par ch=16 c=11 v=110
34736 Par ch=16 c=11 v=111
34748 Par ch=16 c=11 v=112
34756 Par ch=16 c=11 v=113
34768 Par ch=16 c=11 v=114
34780 Par ch=16 c=11 v=115
34788 Par ch=16 c=11 v=116
34800 Par ch=16 c=11 v=117
34812 Par ch=16 c=11 v=118
34824 Par ch=16 c=11 v=119
34832 Par ch=16 c=11 v=120
34844 Par ch=16 c=11 v=121
34856 Par ch=16 c=11 v=122
34864 Par ch=16 c=11 v=123
34876 Par ch=16 c=11 v=124
34886 On ch=16 n=55 v=0
34888 Par ch=16 c=11 v=125
34896 Par ch=16 c=11 v=126
34944 On ch=16 n=55 v=47
34944 On ch=16 n=50 v=47
34992 Par ch=16 c=11 v=64
35004 Par ch=16 c=11 v=65
35016 Par ch=16 c=11 v=66
35028 Par ch=16 c=11 v=67
35036 Par ch=16 c=11 v=68
35048 Par ch=16 c=11 v=69
35060 Par ch=16 c=11 v=70
35068 Par ch=16 c=11 v=71
35080 Par ch=16 c=11 v=72
35092 Par ch=16 c=11 v=73
35104 Par ch=16 c=11 v=74
35112 Par ch=16 c=11 v=75
35124 Par ch=16 c=11 v=76
35136 Par ch=16 c=11 v=77
35144 Par ch=16 c=11 v=78
35156 Par ch=16 c=11 v=79
35168 Par ch=16 c=11 v=80
35180 Par ch=16 c=11 v=81
35188 Par ch=16 c=11 v=82
35200 Par ch=16 c=11 v=83
35212 Par ch=16 c=11 v=84
35220 Par ch=16 c=11 v=85
35232 Par ch=16 c=11 v=86
35244 Par ch=16 c=11 v=87
35256 Par ch=16 c=11 v=88
35264 Par ch=16 c=11 v=89
35276 Par ch=16 c=11 v=90
35288 Par ch=16 c=11 v=91
35296 Par ch=16 c=11 v=92
35308 Par ch=16 c=11 v=93
35320 Par ch=16 c=11 v=94
35328 Par ch=16 c=11 v=95
35340 Par ch=16 c=11 v=96
35352 Par ch=16 c=11 v=97
35364 Par ch=16 c=11 v=98
35372 Par ch=16 c=11 v=99
35384 Par ch=16 c=11 v=100
35396 Par ch=16 c=11 v=101
35404 Par ch=16 c=11 v=102
35405 On ch=16 n=50 v=0
35416 Par ch=16 c=11 v=103
35428 Par ch=16 c=11 v=104
35440 Par ch=16 c=11 v=105
35448 Par ch=16 c=11 v=106
35460 Par ch=16 c=11 v=107
35472 Par ch=16 c=11 v=108
35480 Par ch=16 c=11 v=109
35492 Par ch=16 c=11 v=110
35504 Par ch=16 c=11 v=111
35516 Par ch=16 c=11 v=112
35524 Par ch=16 c=11 v=113
35536 Par ch=16 c=11 v=114
35548 Par ch=16 c=11 v=115
35556 Par ch=16 c=11 v=116
35568 Par ch=16 c=11 v=117
35580 Par ch=16 c=11 v=118
35592 Par ch=16 c=11 v=119
35600 Par ch=16 c=11 v=120
35612 Par ch=16 c=11 v=121
35624 Par ch=16 c=11 v=122
35632 Par ch=16 c=11 v=123
35644 Par ch=16 c=11 v=124
35654 On ch=16 n=55 v=0
35656 Par ch=16 c=11 v=125
35664 Par ch=16 c=11 v=126
35712 Par ch=16 c=11 v=64
35712 On ch=16 n=55 v=47
35760 Par ch=16 c=11 v=32
36019 On ch=16 n=55 v=0
36096 Par ch=16 c=11 v=64
36096 On ch=16 n=53 v=47
36144 Par ch=16 c=11 v=32
36403 On ch=16 n=53 v=0
36480 Par ch=16 c=11 v=64
36480 On ch=16 n=55 v=47
36480 On ch=16 n=52 v=47
36634 On ch=16 n=52 v=0
36634 On ch=16 n=55 v=0
36672 On ch=16 n=51 v=47
36672 On ch=16 n=55 v=47
36826 On ch=16 n=55 v=0
36826 On ch=16 n=51 v=0
36864 On ch=16 n=53 v=31
36864 On ch=16 n=50 v=31
37018 On ch=16 n=50 v=0
37018 On ch=16 n=53 v=0
37056 On ch=16 n=50 v=31
37210 On ch=16 n=50 v=0
37248 On ch=16 n=46 v=31
37248 On ch=16 n=43 v=31
37402 On ch=16 n=43 v=0
37402 On ch=16 n=46 v=0
37632 On ch=16 n=46 v=31
37632 On ch=16 n=43 v=31
37786 On ch=16 n=43 v=0
37786 On ch=16 n=46 v=0
38784 Par ch=16 c=11 v=64
38784 On ch=16 n=55 v=63
38808 Par ch=16 c=11 v=63
38832 Par ch=16 c=11 v=62
38852 Par ch=16 c=11 v=61
38876 Par ch=16 c=11 v=60
38900 Par ch=16 c=11 v=59
38920 Par ch=16 c=11 v=58
38944 Par ch=16 c=11 v=57
38968 Par ch=16 c=11 v=56
38988 Par ch=16 c=11 v=55
39012 Par ch=16 c=11 v=54
39036 Par ch=16 c=11 v=53
39056 Par ch=16 c=11 v=52
39080 Par ch=16 c=11 v=51
39104 Par ch=16 c=11 v=50
39124 Par ch=16 c=11 v=49
39148 Par ch=16 c=11 v=48
39322 On ch=16 n=55 v=0
39552 Par ch=16 c=11 v=64
41856 On ch=16 n=55 v=47
42394 On ch=16 n=55 v=0
42624 On ch=16 n=55 v=47
42672 Par ch=16 c=11 v=32
43008 Par ch=16 c=11 v=32
43020 Par ch=16 c=11 v=31
43032 Par ch=16 c=11 v=30
43044 Par ch=16 c=11 v=29
43056 Par ch=16 c=11 v=28
43068 Par ch=16 c=11 v=27
43076 Par ch=16 c=11 v=26
43088 Par ch=16 c=11 v=25
43100 Par ch=16 c=11 v=24
43112 Par ch=16 c=11 v=23
43124 Par ch=16 c=11 v=22
43136 Par ch=16 c=11 v=21
43144 Par ch=16 c=11 v=20
43156 Par ch=16 c=11 v=19
43162 On ch=16 n=55 v=0
43168 Par ch=16 c=11 v=18
43180 Par ch=16 c=11 v=17
43192 Par ch=16 c=11 v=16
43392 Par ch=16 c=11 v=64
68736 On ch=16 n=49 v=47
70272 On ch=16 n=49 v=47
70272 On ch=16 n=49 v=47
70272 On ch=16 n=49 v=47
70579 On ch=16 n=49 v=0
70579 On ch=16 n=49 v=0
70579 On ch=16 n=49 v=0
70579 On ch=16 n=49 v=0
74832 Par ch=16 c=11 v=64
74832 On ch=16 n=54 v=79
74832 On ch=16 n=42 v=79
74848 Par ch=16 c=11 v=65
74860 Par ch=16 c=11 v=66
74863 On ch=16 n=42 v=0
74863 On ch=16 n=54 v=0
74872 Par ch=16 c=11 v=67
74880 On ch=16 n=65 v=79
74880 On ch=16 n=53 v=79
74888 Par ch=16 c=11 v=68
74900 Par ch=16 c=11 v=69
74912 Par ch=16 c=11 v=70
74924 Par ch=16 c=11 v=71
74940 Par ch=16 c=11 v=72
74952 Par ch=16 c=11 v=73
74964 Par ch=16 c=11 v=74
74976 Par ch=16 c=11 v=75
74992 Par ch=16 c=11 v=76
75004 Par ch=16 c=11 v=77
75016 Par ch=16 c=11 v=78
75032 Par ch=16 c=11 v=79
75034 On ch=16 n=53 v=0
75034 On ch=16 n=65 v=0
75044 Par ch=16 c=11 v=80
75056 Par ch=16 c=11 v=81
75068 Par ch=16 c=11 v=82
75072 On ch=16 n=54 v=79
75072 On ch=16 n=66 v=79
75084 Par ch=16 c=11 v=83
75096 Par ch=16 c=11 v=84
75108 Par ch=16 c=11 v=85
75120 Par ch=16 c=11 v=86
75136 Par ch=16 c=11 v=87
75148 Par ch=16 c=11 v=88
75160 Par ch=16 c=11 v=89
75176 Par ch=16 c=11 v=90
75187 On ch=16 n=66 v=0
75187 On ch=16 n=54 v=0
75188 Par ch=16 c=11 v=91
75200 Par ch=16 c=11 v=92
75212 Par ch=16 c=11 v=93
75216 On ch=16 n=42 v=79
75216 On ch=16 n=54 v=79
75228 Par ch=16 c=11 v=94
75240 Par ch=16 c=11 v=95
75247 On ch=16 n=54 v=0
75247 On ch=16 n=42 v=0
75252 Par ch=16 c=11 v=96
75360 Par ch=16 c=11 v=64
75360 On ch=16 n=50 v=111
75360 On ch=16 n=58 v=111
75391 On ch=16 n=58 v=0
75391 On ch=16 n=50 v=0
76032 On ch=16 n=50 v=111
76032 On ch=16 n=56 v=111
76070 On ch=16 n=56 v=0
76070 On ch=16 n=50 v=0
76800 On ch=16 n=49 v=111
76800 On ch=16 n=59 v=111
77107 On ch=16 n=59 v=0
77184 Par ch=16 c=11 v=64
77184 On ch=16 n=57 v=111
77196 Par ch=16 c=11 v=63
77208 Par ch=16 c=11 v=62
77220 Par ch=16 c=11 v=61
77232 Par ch=16 c=11 v=60
77244 Par ch=16 c=11 v=59
77252 Par ch=16 c=11 v=58
77264 Par ch=16 c=11 v=57
77276 Par ch=16 c=11 v=56
77288 Par ch=16 c=11 v=55
77300 Par ch=16 c=11 v=54
77312 Par ch=16 c=11 v=53
77320 Par ch=16 c=11 v=52
77332 Par ch=16 c=11 v=51
77344 Par ch=16 c=11 v=50
77356 Par ch=16 c=11 v=49
77368 Par ch=16 c=11 v=48
77376 Par ch=16 c=11 v=47
77388 Par ch=16 c=11 v=46
77400 Par ch=16 c=11 v=45
77412 Par ch=16 c=11 v=44
77424 Par ch=16 c=11 v=43
77436 Par ch=16 c=11 v=42
77444 Par ch=16 c=11 v=41
77456 Par ch=16 c=11 v=40
77468 Par ch=16 c=11 v=39
77480 Par ch=16 c=11 v=38
77492 Par ch=16 c=11 v=37
77504 Par ch=16 c=11 v=36
77512 Par ch=16 c=11 v=35
77524 Par ch=16 c=11 v=34
77536 Par ch=16 c=11 v=33
77548 Par ch=16 c=11 v=32
77568 On ch=16 n=57 v=0
77568 On ch=16 n=49 v=111
77568 On ch=16 n=49 v=111
77568 On ch=16 n=56 v=111
77568 On ch=16 n=49 v=111
77645 On ch=16 n=49 v=0
77645 On ch=16 n=49 v=0
77645 On ch=16 n=49 v=0
77645 On ch=16 n=49 v=0
77645 On ch=16 n=56 v=0
77952 Par ch=16 c=11 v=64
94656 On ch=16 n=34 v=111
94656 On ch=16 n=46 v=111
94848 Par ch=16 c=11 v=64
94860 Par ch=16 c=11 v=63
94872 Par ch=16 c=11 v=62
94884 Par ch=16 c=11 v=61
94896 Par ch=16 c=11 v=60
94908 Par ch=16 c=11 v=59
94916 Par ch=16 c=11 v=58
94928 Par ch=16 c=11 v=57
94940 Par ch=16 c=11 v=56
94952 Par ch=16 c=11 v=55
94964 Par ch=16 c=11 v=54
94976 Par ch=16 c=11 v=53
94984 Par ch=16 c=11 v=52
94996 Par ch=16 c=11 v=51
95008 Par ch=16 c=11 v=50
95020 Par ch=16 c=11 v=49
95032 Par ch=16 c=11 v=48
95040 Par ch=16 c=11 v=47
95052 Par ch=16 c=11 v=46
95064 Par ch=16 c=11 v=45
95076 Par ch=16 c=11 v=44
95088 Par ch=16 c=11 v=43
95100 Par ch=16 c=11 v=42
95108 Par ch=16 c=11 v=41
95120 Par ch=16 c=11 v=40
95132 Par ch=16 c=11 v=39
95144 Par ch=16 c=11 v=38
95156 Par ch=16 c=11 v=37
95168 Par ch=16 c=11 v=36
95176 Par ch=16 c=11 v=35
95188 Par ch=16 c=11 v=34
95200 Par ch=16 c=11 v=33
95212 Par ch=16 c=11 v=32
95616 Par ch=16 c=11 v=32
95640 Par ch=16 c=11 v=31
95664 Par ch=16 c=11 v=30
95684 Par ch=16 c=11 v=29
95708 Par ch=16 c=11 v=28
95732 Par ch=16 c=11 v=27
95752 Par ch=16 c=11 v=26
95776 Par ch=16 c=11 v=25
95800 Par ch=16 c=11 v=24
95820 Par ch=16 c=11 v=23
95844 Par ch=16 c=11 v=22
95868 Par ch=16 c=11 v=21
95888 Par ch=16 c=11 v=20
95912 Par ch=16 c=11 v=19
95936 Par ch=16 c=11 v=18
95956 Par ch=16 c=11 v=17
95980 Par ch=16 c=11 v=16
96230 On ch=16 n=34 v=0
96288 On ch=16 n=46 v=0
96384 Par ch=16 c=11 v=64
108288 On ch=16 n=51 v=63
108442 On ch=16 n=51 v=0
108480 On ch=16 n=51 v=63
108480 On ch=16 n=44 v=63
108634 On ch=16 n=44 v=0
108634 On ch=16 n=51 v=0
108672 On ch=16 n=51 v=63
108672 On ch=16 n=43 v=63
108826 On ch=16 n=43 v=0
108826 On ch=16 n=51 v=0
108864 On ch=16 n=60 v=63
108864 On ch=16 n=48 v=63
108941 On ch=16 n=48 v=0
108941 On ch=16 n=60 v=0
108960 On ch=16 n=58 v=63
108960 On ch=16 n=46 v=63
109037 On ch=16 n=46 v=0
109037 On ch=16 n=58 v=0
109056 On ch=16 n=58 v=63
109056 On ch=16 n=51 v=63
109133 On ch=16 n=51 v=0
109133 On ch=16 n=58 v=0
109248 On ch=16 n=60 v=79
109402 On ch=16 n=60 v=0
109440 Par ch=16 c=11 v=64
109440 On ch=16 n=58 v=79
109452 Par ch=16 c=11 v=63
109464 Par ch=16 c=11 v=62
109476 Par ch=16 c=11 v=61
109488 Par ch=16 c=11 v=60
109500 Par ch=16 c=11 v=59
109508 Par ch=16 c=11 v=58
109520 Par ch=16 c=11 v=57
109532 Par ch=16 c=11 v=56
109544 Par ch=16 c=11 v=55
109556 Par ch=16 c=11 v=54
109568 Par ch=16 c=11 v=53
109576 Par ch=16 c=11 v=52
109588 Par ch=16 c=11 v=51
109600 Par ch=16 c=11 v=50
109612 Par ch=16 c=11 v=49
109624 Par ch=16 c=11 v=48
109632 Par ch=16 c=11 v=47
109644 Par ch=16 c=11 v=46
109656 Par ch=16 c=11 v=45
109668 Par ch=16 c=11 v=44
109680 Par ch=16 c=11 v=43
109692 Par ch=16 c=11 v=42
109700 Par ch=16 c=11 v=41
109712 Par ch=16 c=11 v=40
109724 Par ch=16 c=11 v=39
109736 Par ch=16 c=11 v=38
109748 Par ch=16 c=11 v=37
109760 Par ch=16 c=11 v=36
109768 Par ch=16 c=11 v=35
109780 Par ch=16 c=11 v=34
109792 Par ch=16 c=11 v=33
109804 Par ch=16 c=11 v=32
109901 On ch=16 n=58 v=0
110208 Par ch=16 c=11 v=64
111360 On ch=16 n=56 v=95
111360 On ch=16 n=44 v=95
111437 On ch=16 n=44 v=0
111437 On ch=16 n=56 v=0
111456 On ch=16 n=59 v=95
111456 On ch=16 n=47 v=95
111533 On ch=16 n=47 v=0
111533 On ch=16 n=59 v=0
111552 On ch=16 n=52 v=95
111552 On ch=16 n=40 v=95
111629 On ch=16 n=40 v=0
111629 On ch=16 n=52 v=0
111648 On ch=16 n=57 v=95
111648 On ch=16 n=45 v=95
111725 On ch=16 n=45 v=0
111725 On ch=16 n=57 v=0
111744 Par ch=16 c=11 v=64
111744 On ch=16 n=39 v=111
111756 Par ch=16 c=11 v=63
111768 Par ch=16 c=11 v=62
111780 Par ch=16 c=11 v=61
111792 Par ch=16 c=11 v=60
111804 Par ch=16 c=11 v=59
111816 Par ch=16 c=11 v=58
111828 Par ch=16 c=11 v=57
111840 Par ch=16 c=11 v=56
111852 Par ch=16 c=11 v=55
111864 Par ch=16 c=11 v=54
111876 Par ch=16 c=11 v=53
111888 Par ch=16 c=11 v=52
111900 Par ch=16 c=11 v=51
111912 Par ch=16 c=11 v=50
111924 Par ch=16 c=11 v=49
111936 Par ch=16 c=11 v=48
111974 On ch=16 n=39 v=0
112128 Par ch=16 c=11 v=64
112128 On ch=16 n=63 v=47
112128 On ch=16 n=60 v=47
112136 Par ch=16 c=11 v=65
112140 Par ch=16 c=11 v=66
112144 Par ch=16 c=11 v=67
112148 Par ch=16 c=11 v=68
112152 Par ch=16 c=11 v=69
112156 Par ch=16 c=11 v=70
112160 Par ch=16 c=11 v=71
112168 Par ch=16 c=11 v=72
112172 Par ch=16 c=11 v=73
112176 Par ch=16 c=11 v=74
112180 Par ch=16 c=11 v=75
112184 Par ch=16 c=11 v=76
112188 Par ch=16 c=11 v=77
112192 Par ch=16 c=11 v=78
112200 Par ch=16 c=11 v=79
112204 Par ch=16 c=11 v=80
112208 Par ch=16 c=11 v=81
112212 Par ch=16 c=11 v=82
112216 Par ch=16 c=11 v=83
112220 Par ch=16 c=11 v=84
112224 Par ch=16 c=11 v=85
112232 Par ch=16 c=11 v=86
112236 Par ch=16 c=11 v=87
112240 Par ch=16 c=11 v=88
112244 Par ch=16 c=11 v=89
112248 Par ch=16 c=11 v=90
112252 Par ch=16 c=11 v=91
112256 Par ch=16 c=11 v=92
112264 Par ch=16 c=11 v=93
112268 Par ch=16 c=11 v=94
112272 Par ch=16 c=11 v=95
112276 Par ch=16 c=11 v=96
112280 Par ch=16 c=11 v=97
112284 Par ch=16 c=11 v=98
112288 Par ch=16 c=11 v=99
112296 Par ch=16 c=11 v=100
112300 Par ch=16 c=11 v=101
112304 Par ch=16 c=11 v=102
112308 Par ch=16 c=11 v=103
112312 Par ch=16 c=11 v=104
112316 Par ch=16 c=11 v=105
112320 Par ch=16 c=11 v=106
112328 Par ch=16 c=11 v=107
112332 Par ch=16 c=11 v=108
112336 Par ch=16 c=11 v=109
112340 Par ch=16 c=11 v=110
112344 Par ch=16 c=11 v=111
112348 Par ch=16 c=11 v=112
112352 Par ch=16 c=11 v=113
112360 Par ch=16 c=11 v=114
112364 Par ch=16 c=11 v=115
112368 Par ch=16 c=11 v=116
112372 Par ch=16 c=11 v=117
112376 Par ch=16 c=11 v=118
112380 Par ch=16 c=11 v=119
112384 Par ch=16 c=11 v=120
112392 Par ch=16 c=11 v=121
112396 Par ch=16 c=11 v=122
112400 Par ch=16 c=11 v=123
112404 Par ch=16 c=11 v=124
112408 Par ch=16 c=11 v=125
112412 Par ch=16 c=11 v=126
112416 On ch=16 n=60 v=0
112416 On ch=16 n=63 v=0
112416 On ch=16 n=58 v=47
112416 On ch=16 n=66 v=47
112454 On ch=16 n=66 v=0
112454 On ch=16 n=58 v=0
112512 Par ch=16 c=11 v=64
112512 On ch=16 n=39 v=111
112524 Par ch=16 c=11 v=63
112536 Par ch=16 c=11 v=62
112548 Par ch=16 c=11 v=61
112560 Par ch=16 c=11 v=60
112572 Par ch=16 c=11 v=59
112584 Par ch=16 c=11 v=58
112596 Par ch=16 c=11 v=57
112608 Par ch=16 c=11 v=56
112620 Par ch=16 c=11 v=55
112632 Par ch=16 c=11 v=54
112644 Par ch=16 c=11 v=53
112656 Par ch=16 c=11 v=52
112668 Par ch=16 c=11 v=51
112680 Par ch=16 c=11 v=50
112692 Par ch=16 c=11 v=49
112704 Par ch=16 c=11 v=48
112742 On ch=16 n=39 v=0
112896 Par ch=16 c=11 v=64
112896 On ch=16 n=63 v=47
112896 On ch=16 n=60 v=47
112904 Par ch=16 c=11 v=65
112908 Par ch=16 c=11 v=66
112912 Par ch=16 c=11 v=67
112916 Par ch=16 c=11 v=68
112920 Par ch=16 c=11 v=69
112924 Par ch=16 c=11 v=70
112928 Par ch=16 c=11 v=71
112936 Par ch=16 c=11 v=72
112940 Par ch=16 c=11 v=73
112944 Par ch=16 c=11 v=74
112948 Par ch=16 c=11 v=75
112952 Par ch=16 c=11 v=76
112956 Par ch=16 c=11 v=77
112960 Par ch=16 c=11 v=78
112968 Par ch=16 c=11 v=79
112972 Par ch=16 c=11 v=80
112976 Par ch=16 c=11 v=81
112980 Par ch=16 c=11 v=82
112984 Par ch=16 c=11 v=83
112988 Par ch=16 c=11 v=84
112992 Par ch=16 c=11 v=85
113000 Par ch=16 c=11 v=86
113004 Par ch=16 c=11 v=87
113008 Par ch=16 c=11 v=88
113012 Par ch=16 c=11 v=89
113016 Par ch=16 c=11 v=90
113020 Par ch=16 c=11 v=91
113024 Par ch=16 c=11 v=92
113032 Par ch=16 c=11 v=93
113036 Par ch=16 c=11 v=94
113040 Par ch=16 c=11 v=95
113044 Par ch=16 c=11 v=96
113048 Par ch=16 c=11 v=97
113052 Par ch=16 c=11 v=98
113056 Par ch=16 c=11 v=99
113064 Par ch=16 c=11 v=100
113068 Par ch=16 c=11 v=101
113072 Par ch=16 c=11 v=102
113076 Par ch=16 c=11 v=103
113080 Par ch=16 c=11 v=104
113084 Par ch=16 c=11 v=105
113088 Par ch=16 c=11 v=106
113096 Par ch=16 c=11 v=107
113100 Par ch=16 c=11 v=108
113104 Par ch=16 c=11 v=109
113108 Par ch=16 c=11 v=110
113112 Par ch=16 c=11 v=111
113116 Par ch=16 c=11 v=112
113120 Par ch=16 c=11 v=113
113128 Par ch=16 c=11 v=114
113132 Par ch=16 c=11 v=115
113136 Par ch=16 c=11 v=116
113140 Par ch=16 c=11 v=117
113144 Par ch=16 c=11 v=118
113148 Par ch=16 c=11 v=119
113152 Par ch=16 c=11 v=120
113160 Par ch=16 c=11 v=121
113164 Par ch=16 c=11 v=122
113168 Par ch=16 c=11 v=123
113172 Par ch=16 c=11 v=124
113176 Par ch=16 c=11 v=125
113180 Par ch=16 c=11 v=126
113184 On ch=16 n=60 v=0
113184 On ch=16 n=63 v=0
113184 On ch=16 n=66 v=47
113184 On ch=16 n=58 v=47
113222 On ch=16 n=58 v=0
113222 On ch=16 n=66 v=0
113664 Par ch=16 c=11 v=64
114048 On ch=16 n=46 v=111
114104 Par ch=16 c=11 v=16
114112 Par ch=16 c=11 v=17
114120 Par ch=16 c=11 v=18
114124 Par ch=16 c=11 v=19
114132 Par ch=16 c=11 v=20
114140 Par ch=16 c=11 v=21
114144 Par ch=16 c=11 v=22
114152 Par ch=16 c=11 v=23
114160 Par ch=16 c=11 v=24
114168 Par ch=16 c=11 v=25
114172 Par ch=16 c=11 v=26
114180 Par ch=16 c=11 v=27
114188 Par ch=16 c=11 v=28
114192 Par ch=16 c=11 v=29
114200 Par ch=16 c=11 v=30
114208 Par ch=16 c=11 v=31
114216 Par ch=16 c=11 v=32
114220 Par ch=16 c=11 v=33
114228 Par ch=16 c=11 v=34
114236 Par ch=16 c=11 v=35
114240 Par ch=16 c=11 v=36
114248 Par ch=16 c=11 v=37
114256 Par ch=16 c=11 v=38
114264 Par ch=16 c=11 v=39
114268 Par ch=16 c=11 v=40
114276 Par ch=16 c=11 v=41
114284 Par ch=16 c=11 v=42
114288 Par ch=16 c=11 v=43
114296 Par ch=16 c=11 v=44
114304 Par ch=16 c=11 v=45
114312 Par ch=16 c=11 v=46
114316 Par ch=16 c=11 v=47
114324 Par ch=16 c=11 v=48
114332 Par ch=16 c=11 v=49
114336 Par ch=16 c=11 v=50
114344 Par ch=16 c=11 v=51
114352 Par ch=16 c=11 v=52
114360 Par ch=16 c=11 v=53
114364 Par ch=16 c=11 v=54
114372 Par ch=16 c=11 v=55
114380 Par ch=16 c=11 v=56
114384 Par ch=16 c=11 v=57
114392 Par ch=16 c=11 v=58
114400 Par ch=16 c=11 v=59
114408 Par ch=16 c=11 v=60
114412 Par ch=16 c=11 v=61
114420 Par ch=16 c=11 v=62
114428 Par ch=16 c=11 v=63
114432 Par ch=16 c=11 v=64
114432 On ch=16 n=62 v=95
114444 Par ch=16 c=11 v=63
114456 Par ch=16 c=11 v=62
114468 Par ch=16 c=11 v=61
114480 Par ch=16 c=11 v=60
114492 Par ch=16 c=11 v=59
114500 Par ch=16 c=11 v=58
114512 Par ch=16 c=11 v=57
114524 Par ch=16 c=11 v=56
114528 On ch=16 n=62 v=0
114528 On ch=16 n=61 v=95
114536 Par ch=16 c=11 v=55
114548 Par ch=16 c=11 v=54
114560 Par ch=16 c=11 v=53
114568 Par ch=16 c=11 v=52
114580 Par ch=16 c=11 v=51
114592 Par ch=16 c=11 v=50
114604 Par ch=16 c=11 v=49
114616 Par ch=16 c=11 v=48
114624 Par ch=16 c=11 v=47
114636 Par ch=16 c=11 v=46
114648 Par ch=16 c=11 v=45
114660 Par ch=16 c=11 v=44
114672 Par ch=16 c=11 v=43
114682 On ch=16 n=61 v=0
114684 Par ch=16 c=11 v=42
114692 Par ch=16 c=11 v=41
114704 Par ch=16 c=11 v=40
114716 Par ch=16 c=11 v=39
114720 On ch=16 n=57 v=95
114728 Par ch=16 c=11 v=38
114740 Par ch=16 c=11 v=37
114752 Par ch=16 c=11 v=36
114760 Par ch=16 c=11 v=35
114772 Par ch=16 c=11 v=34
114784 Par ch=16 c=11 v=33
114796 Par ch=16 c=11 v=32
114816 Par ch=16 c=11 v=32
114828 Par ch=16 c=11 v=33
114840 Par ch=16 c=11 v=34
114852 Par ch=16 c=11 v=35
114864 Par ch=16 c=11 v=36
114876 Par ch=16 c=11 v=37
114888 Par ch=16 c=11 v=38
114900 Par ch=16 c=11 v=39
114912 On ch=16 n=57 v=0
114912 Par ch=16 c=11 v=40
114912 On ch=16 n=56 v=95
114924 Par ch=16 c=11 v=41
114936 Par ch=16 c=11 v=42
114944 Par ch=16 c=11 v=43
114956 Par ch=16 c=11 v=44
114968 Par ch=16 c=11 v=45
114980 Par ch=16 c=11 v=46
114992 Par ch=16 c=11 v=47
115004 Par ch=16 c=11 v=48
115016 Par ch=16 c=11 v=49
115028 Par ch=16 c=11 v=50
115040 Par ch=16 c=11 v=51
115052 Par ch=16 c=11 v=52
115064 Par ch=16 c=11 v=53
115066 On ch=16 n=56 v=0
115072 Par ch=16 c=11 v=54
115084 Par ch=16 c=11 v=55
115096 Par ch=16 c=11 v=56
115104 On ch=16 n=53 v=95
115108 Par ch=16 c=11 v=57
115120 Par ch=16 c=11 v=58
115123 On ch=16 n=46 v=0
115132 Par ch=16 c=11 v=59
115144 Par ch=16 c=11 v=60
115156 Par ch=16 c=11 v=61
115168 Par ch=16 c=11 v=62
115180 Par ch=16 c=11 v=63
115181 On ch=16 n=53 v=0
115192 Par ch=16 c=11 v=64
115200 Par ch=16 c=11 v=64
115200 On ch=16 n=47 v=100
115224 Par ch=16 c=11 v=63
115248 Par ch=16 c=11 v=62
115268 Par ch=16 c=11 v=61
115292 Par ch=16 c=11 v=60
115316 Par ch=16 c=11 v=59
115336 Par ch=16 c=11 v=58
115360 Par ch=16 c=11 v=57
115384 Par ch=16 c=11 v=56
115404 Par ch=16 c=11 v=55
115428 Par ch=16 c=11 v=54
115430 On ch=16 n=47 v=0
115452 Par ch=16 c=11 v=53
115472 Par ch=16 c=11 v=52
115488 On ch=16 n=46 v=100
115496 Par ch=16 c=11 v=51
115520 Par ch=16 c=11 v=50
115540 Par ch=16 c=11 v=49
115564 Par ch=16 c=11 v=48
115565 On ch=16 n=46 v=0
115584 Par ch=16 c=11 v=48
115584 On ch=16 n=45 v=100
115608 Par ch=16 c=11 v=49
115632 Par ch=16 c=11 v=50
115652 Par ch=16 c=11 v=51
115661 On ch=16 n=45 v=0
115676 Par ch=16 c=11 v=52
115680 On ch=16 n=44 v=100
115700 Par ch=16 c=11 v=53
115720 Par ch=16 c=11 v=54
115744 Par ch=16 c=11 v=55
115757 On ch=16 n=44 v=0
115768 Par ch=16 c=11 v=56
115776 On ch=16 n=45 v=100
115788 Par ch=16 c=11 v=57
115812 Par ch=16 c=11 v=58
115836 Par ch=16 c=11 v=59
115853 On ch=16 n=45 v=0
115856 Par ch=16 c=11 v=60
115872 On ch=16 n=46 v=100
115880 Par ch=16 c=11 v=61
115904 Par ch=16 c=11 v=62
115924 Par ch=16 c=11 v=63
115948 Par ch=16 c=11 v=64
115949 On ch=16 n=46 v=0
115968 Par ch=16 c=11 v=64
115968 On ch=16 n=47 v=100
115992 Par ch=16 c=11 v=63
116016 Par ch=16 c=11 v=62
116036 Par ch=16 c=11 v=61
116060 Par ch=16 c=11 v=60
116084 Par ch=16 c=11 v=59
116104 Par ch=16 c=11 v=58
116128 Par ch=16 c=11 v=57
116152 Par ch=16 c=11 v=56
116172 Par ch=16 c=11 v=55
116196 Par ch=16 c=11 v=54
116220 Par ch=16 c=11 v=53
116240 Par ch=16 c=11 v=52
116264 Par ch=16 c=11 v=51
116275 On ch=16 n=47 v=0
116288 Par ch=16 c=11 v=50
116308 Par ch=16 c=11 v=49
116332 Par ch=16 c=11 v=48
116352 On ch=16 n=46 v=100
116429 On ch=16 n=46 v=0
116448 On ch=16 n=45 v=100
116525 On ch=16 n=45 v=0
116544 Par ch=16 c=11 v=48
116544 On ch=16 n=44 v=100
116556 Par ch=16 c=11 v=47
116568 Par ch=16 c=11 v=46
116576 Par ch=16 c=11 v=45
116588 Par ch=16 c=11 v=44
116600 Par ch=16 c=11 v=43
116608 Par ch=16 c=11 v=42
116620 Par ch=16 c=11 v=41
116621 On ch=16 n=44 v=0
116632 Par ch=16 c=11 v=40
116640 Par ch=16 c=11 v=39
116640 On ch=16 n=45 v=100
116652 Par ch=16 c=11 v=38
116664 Par ch=16 c=11 v=37
116672 Par ch=16 c=11 v=36
116684 Par ch=16 c=11 v=35
116696 Par ch=16 c=11 v=34
116704 Par ch=16 c=11 v=33
116716 Par ch=16 c=11 v=32
116717 On ch=16 n=45 v=0
116736 Par ch=16 c=11 v=64
116736 On ch=16 n=39 v=79
116736 On ch=16 n=46 v=79
118195 On ch=16 n=46 v=0
118195 On ch=16 n=39 v=0
120096 On ch=16 n=47 v=111
120134 On ch=16 n=47 v=0
120168 On ch=16 n=49 v=111
120187 On ch=16 n=49 v=0
120192 On ch=16 n=51 v=111
120269 On ch=16 n=51 v=0
120288 On ch=16 n=56 v=111
120326 On ch=16 n=56 v=0
120360 On ch=16 n=52 v=111
120379 On ch=16 n=52 v=0
120384 On ch=16 n=50 v=111
120432 On ch=16 n=50 v=0
120432 On ch=16 n=51 v=111
120470 On ch=16 n=51 v=0
120480 On ch=16 n=44 v=111
120518 On ch=16 n=44 v=0
120552 On ch=16 n=46 v=111
120571 On ch=16 n=46 v=0
120576 On ch=16 n=47 v=111
120653 On ch=16 n=47 v=0
121248 On ch=16 n=51 v=111
121279 On ch=16 n=51 v=0
121320 On ch=16 n=50 v=111
121336 On ch=16 n=50 v=0
121344 On ch=16 n=49 v=111
121375 On ch=16 n=49 v=0
121416 On ch=16 n=48 v=111
121432 On ch=16 n=48 v=0
121440 On ch=16 n=47 v=111
121471 On ch=16 n=47 v=0
121512 On ch=16 n=46 v=111
121528 On ch=16 n=46 v=0
121536 On ch=16 n=45 v=111
121567 On ch=16 n=45 v=0
121608 On ch=16 n=44 v=111
121624 On ch=16 n=44 v=0
121632 On ch=16 n=43 v=111
121663 On ch=16 n=43 v=0
121704 On ch=16 n=42 v=111
121720 On ch=16 n=42 v=0
122496 Par ch=16 c=11 v=64
122496 On ch=16 n=45 v=111
122496 On ch=16 n=57 v=111
122504 Par ch=16 c=11 v=63
122508 Par ch=16 c=11 v=62
122516 Par ch=16 c=11 v=61
122520 Par ch=16 c=11 v=60
122528 Par ch=16 c=11 v=59
122532 Par ch=16 c=11 v=58
122540 Par ch=16 c=11 v=57
122544 Par ch=16 c=11 v=56
122552 Par ch=16 c=11 v=55
122556 Par ch=16 c=11 v=54
122564 Par ch=16 c=11 v=53
122568 Par ch=16 c=11 v=52
122576 Par ch=16 c=11 v=51
122580 Par ch=16 c=11 v=50
122588 Par ch=16 c=11 v=49
122592 Par ch=16 c=11 v=48
122596 Par ch=16 c=11 v=47
122604 Par ch=16 c=11 v=46
122608 Par ch=16 c=11 v=45
122616 Par ch=16 c=11 v=44
122620 Par ch=16 c=11 v=43
122628 Par ch=16 c=11 v=42
122632 Par ch=16 c=11 v=41
122640 Par ch=16 c=11 v=40
122644 Par ch=16 c=11 v=39
122652 Par ch=16 c=11 v=38
122656 Par ch=16 c=11 v=37
122664 Par ch=16 c=11 v=36
122668 Par ch=16 c=11 v=35
122676 Par ch=16 c=11 v=34
122680 Par ch=16 c=11 v=33
122688 Par ch=16 c=11 v=32
122692 Par ch=16 c=11 v=31
122696 Par ch=16 c=11 v=30
122704 Par ch=16 c=11 v=29
122708 Par ch=16 c=11 v=28
122716 Par ch=16 c=11 v=27
122720 Par ch=16 c=11 v=26
122728 Par ch=16 c=11 v=25
122732 Par ch=16 c=11 v=24
122740 Par ch=16 c=11 v=23
122744 Par ch=16 c=11 v=22
122752 Par ch=16 c=11 v=21
122756 Par ch=16 c=11 v=20
122764 Par ch=16 c=11 v=19
122768 Par ch=16 c=11 v=18
122776 Par ch=16 c=11 v=17
122780 Par ch=16 c=11 v=16
122822 On ch=16 n=57 v=0
122822 On ch=16 n=45 v=0
123264 Par ch=16 c=11 v=64
123264 On ch=16 n=43 v=79
123571 On ch=16 n=43 v=0
124032 On ch=16 n=43 v=79
124339 On ch=16 n=43 v=0
124800 On ch=16 n=57 v=111
124800 On ch=16 n=60 v=111
124877 On ch=16 n=60 v=0
124877 On ch=16 n=57 v=0
124896 On ch=16 n=57 v=111
124896 On ch=16 n=60 v=111
124922 On ch=16 n=60 v=0
124922 On ch=16 n=57 v=0
124928 On ch=16 n=57 v=111
124928 On ch=16 n=60 v=111
124954 On ch=16 n=60 v=0
124954 On ch=16 n=57 v=0
124960 On ch=16 n=57 v=111
124960 On ch=16 n=60 v=111
124986 On ch=16 n=60 v=0
124986 On ch=16 n=57 v=0
124992 On ch=16 n=57 v=111
124992 On ch=16 n=60 v=111
125069 On ch=16 n=60 v=0
125069 On ch=16 n=57 v=0
125088 On ch=16 n=57 v=111
125088 On ch=16 n=60 v=111
125114 On ch=16 n=60 v=0
125114 On ch=16 n=57 v=0
125120 On ch=16 n=57 v=111
125120 On ch=16 n=60 v=111
125146 On ch=16 n=60 v=0
125146 On ch=16 n=57 v=0
125152 On ch=16 n=57 v=111
125152 On ch=16 n=60 v=111
125178 On ch=16 n=60 v=0
125178 On ch=16 n=57 v=0
125184 On ch=16 n=57 v=111
125184 On ch=16 n=60 v=111
125222 On ch=16 n=60 v=0
125222 On ch=16 n=57 v=0
125256 On ch=16 n=57 v=111
125256 On ch=16 n=60 v=111
125275 On ch=16 n=60 v=0
125275 On ch=16 n=57 v=0
125280 On ch=16 n=57 v=111
125280 On ch=16 n=60 v=111
125318 On ch=16 n=60 v=0
125318 On ch=16 n=57 v=0
125352 On ch=16 n=57 v=111
125352 On ch=16 n=60 v=111
125371 On ch=16 n=60 v=0
125371 On ch=16 n=57 v=0
125376 On ch=16 n=57 v=111
125376 On ch=16 n=60 v=111
125414 On ch=16 n=60 v=0
125414 On ch=16 n=57 v=0
125448 On ch=16 n=57 v=111
125448 On ch=16 n=60 v=111
125467 On ch=16 n=60 v=0
125467 On ch=16 n=57 v=0
125472 On ch=16 n=57 v=111
125472 On ch=16 n=60 v=111
125510 On ch=16 n=60 v=0
125510 On ch=16 n=57 v=0
125544 On ch=16 n=57 v=111
125544 On ch=16 n=60 v=111
125563 On ch=16 n=60 v=0
125563 On ch=16 n=57 v=0
125568 On ch=16 n=62 v=111
125568 On ch=16 n=59 v=111
125606 On ch=16 n=59 v=0
125606 On ch=16 n=62 v=0
125640 On ch=16 n=62 v=111
125640 On ch=16 n=59 v=111
125659 On ch=16 n=59 v=0
125659 On ch=16 n=62 v=0
125664 On ch=16 n=62 v=111
125664 On ch=16 n=59 v=111
125689 On ch=16 n=59 v=0
125689 On ch=16 n=62 v=0
125696 On ch=16 n=62 v=111
125696 On ch=16 n=59 v=111
125721 On ch=16 n=59 v=0
125721 On ch=16 n=62 v=0
125728 On ch=16 n=62 v=111
125728 On ch=16 n=59 v=111
125753 On ch=16 n=59 v=0
125753 On ch=16 n=62 v=0
125760 On ch=16 n=62 v=111
125760 On ch=16 n=59 v=111
125798 On ch=16 n=59 v=0
125798 On ch=16 n=62 v=0
125832 On ch=16 n=62 v=111
125832 On ch=16 n=59 v=111
125851 On ch=16 n=59 v=0
125851 On ch=16 n=62 v=0
125856 On ch=16 n=62 v=111
125856 On ch=16 n=59 v=111
125881 On ch=16 n=59 v=0
125881 On ch=16 n=62 v=0
125888 On ch=16 n=62 v=111
125888 On ch=16 n=59 v=111
125913 On ch=16 n=59 v=0
125913 On ch=16 n=62 v=0
125920 On ch=16 n=62 v=111
125920 On ch=16 n=59 v=111
125945 On ch=16 n=59 v=0
125945 On ch=16 n=62 v=0
125952 Par ch=16 c=11 v=64
125952 On ch=16 n=62 v=111
125952 On ch=16 n=59 v=111
125976 Par ch=16 c=11 v=65
125990 On ch=16 n=59 v=0
125990 On ch=16 n=62 v=0
126000 Par ch=16 c=11 v=66
126000 On ch=16 n=62 v=111
126000 On ch=16 n=59 v=111
126020 Par ch=16 c=11 v=67
126038 On ch=16 n=59 v=0
126038 On ch=16 n=62 v=0
126044 Par ch=16 c=11 v=68
126048 On ch=16 n=62 v=111
126048 On ch=16 n=59 v=111
126068 Par ch=16 c=11 v=69
126086 On ch=16 n=59 v=0
126086 On ch=16 n=62 v=0
126088 Par ch=16 c=11 v=70
126096 On ch=16 n=62 v=111
126096 On ch=16 n=59 v=111
126112 Par ch=16 c=11 v=71
126134 On ch=16 n=59 v=0
126134 On ch=16 n=62 v=0
126136 Par ch=16 c=11 v=72
126144 On ch=16 n=62 v=111
126144 On ch=16 n=59 v=111
126156 Par ch=16 c=11 v=73
126170 On ch=16 n=59 v=0
126170 On ch=16 n=62 v=0
126176 On ch=16 n=62 v=111
126176 On ch=16 n=59 v=111
126180 Par ch=16 c=11 v=74
126202 On ch=16 n=59 v=0
126202 On ch=16 n=62 v=0
126204 Par ch=16 c=11 v=75
126208 On ch=16 n=62 v=111
126208 On ch=16 n=59 v=111
126224 Par ch=16 c=11 v=76
126234 On ch=16 n=59 v=0
126234 On ch=16 n=62 v=0
126240 On ch=16 n=62 v=111
126240 On ch=16 n=59 v=111
126248 Par ch=16 c=11 v=77
126266 On ch=16 n=59 v=0
126266 On ch=16 n=62 v=0
126272 Par ch=16 c=11 v=78
126272 On ch=16 n=62 v=111
126272 On ch=16 n=59 v=111
126292 Par ch=16 c=11 v=79
126298 On ch=16 n=59 v=0
126298 On ch=16 n=62 v=0
126304 On ch=16 n=62 v=111
126304 On ch=16 n=59 v=111
126316 Par ch=16 c=11 v=80
126330 On ch=16 n=59 v=0
126330 On ch=16 n=62 v=0
126336 Par ch=16 c=11 v=64
126336 On ch=16 n=48 v=127
126336 On ch=16 n=60 v=127
126367 On ch=16 n=60 v=0
126367 On ch=16 n=48 v=0
135424 Par ch=16 c=11 v=64
135424 On ch=16 n=48 v=95
135432 Par ch=16 c=11 v=65
135440 Par ch=16 c=11 v=66
135445 On ch=16 n=48 v=0
135448 Par ch=16 c=11 v=67
135456 Par ch=16 c=11 v=68
135456 On ch=16 n=55 v=95
135456 On ch=16 n=43 v=95
135464 Par ch=16 c=11 v=69
135472 Par ch=16 c=11 v=70
135477 On ch=16 n=43 v=0
135477 On ch=16 n=55 v=0
135480 Par ch=16 c=11 v=71
135488 Par ch=16 c=11 v=72
135488 On ch=16 n=58 v=95
135488 On ch=16 n=46 v=95
135492 Par ch=16 c=11 v=73
135500 Par ch=16 c=11 v=74
135508 Par ch=16 c=11 v=75
135509 On ch=16 n=46 v=0
135509 On ch=16 n=58 v=0
135516 Par ch=16 c=11 v=76
135520 On ch=16 n=61 v=95
135520 On ch=16 n=49 v=95
135524 Par ch=16 c=11 v=77
135532 Par ch=16 c=11 v=78
135540 Par ch=16 c=11 v=79
135541 On ch=16 n=49 v=0
135541 On ch=16 n=61 v=0
135548 Par ch=16 c=11 v=80
135552 Par ch=16 c=11 v=64
135552 On ch=16 n=60 v=111
135552 On ch=16 n=48 v=111
135571 On ch=16 n=48 v=0
135571 On ch=16 n=60 v=0
135744 On ch=16 n=53 v=111
135775 On ch=16 n=53 v=0
135816 On ch=16 n=51 v=111
135832 On ch=16 n=51 v=0
135840 On ch=16 n=49 v=111
135871 On ch=16 n=49 v=0
135912 On ch=16 n=48 v=111
135928 On ch=16 n=48 v=0
135936 On ch=16 n=56 v=111
135967 On ch=16 n=56 v=0
136128 On ch=16 n=61 v=111
136128 On ch=16 n=49 v=111
136159 On ch=16 n=49 v=0
136159 On ch=16 n=61 v=0
136200 On ch=16 n=60 v=111
136200 On ch=16 n=48 v=111
136216 On ch=16 n=48 v=0
136216 On ch=16 n=60 v=0
136224 On ch=16 n=46 v=111
136224 On ch=16 n=58 v=111
136255 On ch=16 n=58 v=0
136255 On ch=16 n=46 v=0
136296 On ch=16 n=56 v=111
136296 On ch=16 n=44 v=111
136312 On ch=16 n=44 v=0
136312 On ch=16 n=56 v=0
136320 On ch=16 n=55 v=95
136320 On ch=16 n=43 v=95
136351 On ch=16 n=43 v=0
136736 Par ch=16 c=11 v=16
136740 Par ch=16 c=11 v=17
136744 Par ch=16 c=11 v=18
136748 Par ch=16 c=11 v=19
136752 Par ch=16 c=11 v=20
136756 Par ch=16 c=11 v=21
136760 Par ch=16 c=11 v=22
136764 Par ch=16 c=11 v=23
136768 Par ch=16 c=11 v=24
136772 Par ch=16 c=11 v=25
136780 Par ch=16 c=11 v=26
136784 Par ch=16 c=11 v=27
136788 Par ch=16 c=11 v=28
136792 Par ch=16 c=11 v=29
136796 Par ch=16 c=11 v=30
136800 Par ch=16 c=11 v=31
136804 Par ch=16 c=11 v=32
136808 Par ch=16 c=11 v=33
136812 Par ch=16 c=11 v=34
136816 Par ch=16 c=11 v=35
136824 Par ch=16 c=11 v=36
136828 Par ch=16 c=11 v=37
136832 Par ch=16 c=11 v=38
136836 Par ch=16 c=11 v=39
136840 Par ch=16 c=11 v=40
136844 Par ch=16 c=11 v=41
136848 Par ch=16 c=11 v=42
136852 Par ch=16 c=11 v=43
136856 Par ch=16 c=11 v=44
136860 Par ch=16 c=11 v=45
136868 Par ch=16 c=11 v=46
136872 Par ch=16 c=11 v=47
136876 Par ch=16 c=11 v=48
136880 Par ch=16 c=11 v=49
136884 Par ch=16 c=11 v=50
136888 Par ch=16 c=11 v=51
136892 Par ch=16 c=11 v=52
136896 Par ch=16 c=11 v=53
136900 Par ch=16 c=11 v=54
136904 Par ch=16 c=11 v=55
136908 Par ch=16 c=11 v=56
136916 Par ch=16 c=11 v=57
136920 Par ch=16 c=11 v=58
136924 Par ch=16 c=11 v=59
136928 Par ch=16 c=11 v=60
136932 Par ch=16 c=11 v=61
136936 Par ch=16 c=11 v=62
136940 Par ch=16 c=11 v=63
136944 Par ch=16 c=11 v=64
136948 Par ch=16 c=11 v=65
136952 Par ch=16 c=11 v=66
136960 Par ch=16 c=11 v=67
136964 Par ch=16 c=11 v=68
136968 Par ch=16 c=11 v=69
136972 Par ch=16 c=11 v=70
136976 Par ch=16 c=11 v=71
136980 Par ch=16 c=11 v=72
136984 Par ch=16 c=11 v=73
136988 Par ch=16 c=11 v=74
136992 Par ch=16 c=11 v=75
136996 Par ch=16 c=11 v=76
137004 Par ch=16 c=11 v=77
137008 Par ch=16 c=11 v=78
137012 Par ch=16 c=11 v=79
137016 Par ch=16 c=11 v=80
137020 Par ch=16 c=11 v=81
137024 Par ch=16 c=11 v=82
137028 Par ch=16 c=11 v=83
137032 Par ch=16 c=11 v=84
137036 Par ch=16 c=11 v=85
137040 Par ch=16 c=11 v=86
137048 Par ch=16 c=11 v=87
137052 Par ch=16 c=11 v=88
137056 Par ch=16 c=11 v=89
137060 Par ch=16 c=11 v=90
137064 Par ch=16 c=11 v=91
137068 Par ch=16 c=11 v=92
137072 Par ch=16 c=11 v=93
137076 Par ch=16 c=11 v=94
137080 Par ch=16 c=11 v=95
137084 Par ch=16 c=11 v=96
137088 On ch=16 n=55 v=0
137088 Par ch=16 c=11 v=64
137088 On ch=16 n=60 v=127
137088 On ch=16 n=48 v=127
137126 On ch=16 n=48 v=0
137126 On ch=16 n=60 v=0
151296 On ch=16 n=60 v=47
151296 On ch=16 n=48 v=47
153293 On ch=16 n=48 v=0
153293 On ch=16 n=60 v=0
155136 On ch=16 n=62 v=47
155136 On ch=16 n=53 v=47
155904 On ch=16 n=53 v=0
155904 On ch=16 n=62 v=0
155904 On ch=16 n=63 v=47
155904 On ch=16 n=55 v=47
155981 On ch=16 n=55 v=0
155981 On ch=16 n=63 v=0
157440 On ch=16 n=55 v=47
158285 On ch=16 n=55 v=0
159744 Par ch=16 c=11 v=64
159744 On ch=16 n=62 v=47
159752 Par ch=16 c=11 v=65
159756 Par ch=16 c=11 v=66
159764 Par ch=16 c=11 v=67
159768 Par ch=16 c=11 v=68
159776 Par ch=16 c=11 v=69
159780 Par ch=16 c=11 v=70
159788 Par ch=16 c=11 v=71
159792 Par ch=16 c=11 v=72
159800 Par ch=16 c=11 v=73
159804 Par ch=16 c=11 v=74
159812 Par ch=16 c=11 v=75
159816 Par ch=16 c=11 v=76
159824 Par ch=16 c=11 v=77
159828 Par ch=16 c=11 v=78
159836 Par ch=16 c=11 v=79
159840 Par ch=16 c=11 v=80
159848 Par ch=16 c=11 v=81
159852 Par ch=16 c=11 v=82
159860 Par ch=16 c=11 v=83
159864 Par ch=16 c=11 v=84
159872 Par ch=16 c=11 v=85
159876 Par ch=16 c=11 v=86
159884 Par ch=16 c=11 v=87
159888 Par ch=16 c=11 v=88
159896 Par ch=16 c=11 v=89
159900 Par ch=16 c=11 v=90
159908 Par ch=16 c=11 v=91
159912 Par ch=16 c=11 v=92
159920 Par ch=16 c=11 v=93
159924 Par ch=16 c=11 v=94
159932 Par ch=16 c=11 v=95
159936 Par ch=16 c=11 v=96
159944 Par ch=16 c=11 v=97
159948 Par ch=16 c=11 v=98
159956 Par ch=16 c=11 v=99
159960 Par ch=16 c=11 v=100
159968 Par ch=16 c=11 v=101
159972 Par ch=16 c=11 v=102
159974 On ch=16 n=62 v=0
159980 Par ch=16 c=11 v=103
159984 Par ch=16 c=11 v=104
159992 Par ch=16 c=11 v=105
159996 Par ch=16 c=11 v=106
160004 Par ch=16 c=11 v=107
160008 Par ch=16 c=11 v=108
160016 Par ch=16 c=11 v=109
160020 Par ch=16 c=11 v=110
160028 Par ch=16 c=11 v=111
160032 Par ch=16 c=11 v=112
160032 On ch=16 n=60 v=47
160070 On ch=16 n=60 v=0
160080 On ch=16 n=59 v=47
160118 On ch=16 n=59 v=0
160128 Par ch=16 c=11 v=64
160128 On ch=16 n=65 v=95
160205 On ch=16 n=65 v=0
160512 Par ch=16 c=11 v=64
160512 On ch=16 n=60 v=95
160512 On ch=16 n=48 v=95
160516 Par ch=16 c=11 v=63
160520 Par ch=16 c=11 v=62
160524 Par ch=16 c=11 v=61
160528 Par ch=16 c=11 v=60
160532 Par ch=16 c=11 v=59
160536 Par ch=16 c=11 v=58
160540 Par ch=16 c=11 v=57
160544 Par ch=16 c=11 v=56
160548 Par ch=16 c=11 v=55
160552 Par ch=16 c=11 v=54
160556 Par ch=16 c=11 v=53
160560 Par ch=16 c=11 v=52
160564 Par ch=16 c=11 v=51
160568 Par ch=16 c=11 v=50
160572 Par ch=16 c=11 v=49
160576 Par ch=16 c=11 v=48
160580 Par ch=16 c=11 v=47
160584 Par ch=16 c=11 v=46
160588 Par ch=16 c=11 v=45
160592 Par ch=16 c=11 v=44
160596 Par ch=16 c=11 v=43
160600 Par ch=16 c=11 v=42
160604 Par ch=16 c=11 v=41
160608 Par ch=16 c=11 v=40
160612 Par ch=16 c=11 v=39
160616 Par ch=16 c=11 v=38
160620 Par ch=16 c=11 v=37
160624 Par ch=16 c=11 v=36
160628 Par ch=16 c=11 v=35
160632 Par ch=16 c=11 v=34
160636 Par ch=16 c=11 v=33
160640 Par ch=16 c=11 v=32
160644 Par ch=16 c=11 v=31
160648 Par ch=16 c=11 v=30
160652 Par ch=16 c=11 v=29
160656 Par ch=16 c=11 v=28
160660 Par ch=16 c=11 v=27
160664 Par ch=16 c=11 v=26
160668 Par ch=16 c=11 v=25
160672 Par ch=16 c=11 v=24
160676 Par ch=16 c=11 v=23
160680 Par ch=16 c=11 v=22
160684 Par ch=16 c=11 v=21
160688 Par ch=16 c=11 v=20
160692 Par ch=16 c=11 v=19
160696 Par ch=16 c=11 v=18
160700 Par ch=16 c=11 v=17
160742 On ch=16 n=48 v=0
160742 On ch=16 n=60 v=0
160896 Par ch=16 c=11 v=64
164064 On ch=16 n=55 v=47
164064 On ch=16 n=52 v=47
164218 On ch=16 n=52 v=0
164218 On ch=16 n=55 v=0
164448 On ch=16 n=52 v=47
164448 On ch=16 n=55 v=47
164602 On ch=16 n=55 v=0
164602 On ch=16 n=52 v=0
164736 On ch=16 n=56 v=31
164736 On ch=16 n=60 v=31
164813 On ch=16 n=60 v=0
164813 On ch=16 n=56 v=0
164832 On ch=16 n=55 v=31
164832 On ch=16 n=58 v=31
164909 On ch=16 n=55 v=0
164928 On ch=16 n=54 v=31
164986 On ch=16 n=58 v=0
165005 On ch=16 n=54 v=0
165024 On ch=16 n=50 v=31
165024 On ch=16 n=53 v=31
165101 On ch=16 n=53 v=0
165101 On ch=16 n=50 v=0
165120 On ch=16 n=55 v=31
165120 On ch=16 n=51 v=31
165197 On ch=16 n=51 v=0
165197 On ch=16 n=55 v=0
165792 On ch=16 n=58 v=31
165869 On ch=16 n=58 v=0
165888 On ch=16 n=56 v=31
165965 On ch=16 n=56 v=0
165984 On ch=16 n=55 v=31
166061 On ch=16 n=55 v=0
166080 On ch=16 n=54 v=31
166157 On ch=16 n=54 v=0
166176 On ch=16 n=53 v=31
166176 On ch=16 n=50 v=31
166253 On ch=16 n=50 v=0
166253 On ch=16 n=53 v=0
166272 On ch=16 n=55 v=31
166272 On ch=16 n=51 v=31
166349 On ch=16 n=51 v=0
166349 On ch=16 n=55 v=0
166349 Meta TrkEnd
TrkEnd
MTrk
0 Meta 0x21 01
0 Meta TrkName "TUBA"
192 Par ch=1 c=1 v=8
196 Par ch=1 c=7 v=127
200 Par ch=1 c=10 v=109
204 Par ch=1 c=11 v=64
208 Par ch=1 c=91 v=96
212 Par ch=1 c=93 v=48
216 Par ch=1 c=0 v=0
216 Par ch=1 c=32 v=0
216 PrCh ch=1 p=58
14208 On ch=1 n=48 v=95
14239 On ch=1 n=48 v=0
14280 On ch=1 n=46 v=95
14296 On ch=1 n=46 v=0
14304 On ch=1 n=44 v=95
14335 On ch=1 n=44 v=0
14376 On ch=1 n=43 v=95
14392 On ch=1 n=43 v=0
14400 On ch=1 n=41 v=95
14431 On ch=1 n=41 v=0
14472 On ch=1 n=39 v=95
14488 On ch=1 n=39 v=0
14496 On ch=1 n=37 v=95
14527 On ch=1 n=37 v=0
14568 On ch=1 n=36 v=95
14584 On ch=1 n=36 v=0
14592 On ch=1 n=44 v=95
14623 On ch=1 n=44 v=0
14664 On ch=1 n=43 v=95
14680 On ch=1 n=43 v=0
14688 On ch=1 n=41 v=95
14719 On ch=1 n=41 v=0
14760 On ch=1 n=39 v=95
14776 On ch=1 n=39 v=0
14784 On ch=1 n=37 v=95
14815 On ch=1 n=37 v=0
14856 On ch=1 n=36 v=95
14872 On ch=1 n=36 v=0
14880 On ch=1 n=34 v=95
14911 On ch=1 n=34 v=0
14952 On ch=1 n=32 v=95
14968 On ch=1 n=32 v=0
14976 On ch=1 n=31 v=95
15014 On ch=1 n=31 v=0
15360 On ch=1 n=31 v=95
15408 Par ch=1 c=11 v=32
15420 Par ch=1 c=11 v=33
15432 Par ch=1 c=11 v=34
15440 Par ch=1 c=11 v=35
15452 Par ch=1 c=11 v=36
15460 Par ch=1 c=11 v=37
15472 Par ch=1 c=11 v=38
15480 Par ch=1 c=11 v=39
15492 Par ch=1 c=11 v=40
15500 Par ch=1 c=11 v=41
15512 Par ch=1 c=11 v=42
15520 Par ch=1 c=11 v=43
15532 Par ch=1 c=11 v=44
15544 Par ch=1 c=11 v=45
15552 Par ch=1 c=11 v=46
15564 Par ch=1 c=11 v=47
15572 Par ch=1 c=11 v=48
15584 Par ch=1 c=11 v=49
15592 Par ch=1 c=11 v=50
15604 Par ch=1 c=11 v=51
15612 Par ch=1 c=11 v=52
15624 Par ch=1 c=11 v=53
15632 Par ch=1 c=11 v=54
15644 Par ch=1 c=11 v=55
15656 Par ch=1 c=11 v=56
15664 Par ch=1 c=11 v=57
15667 On ch=1 n=31 v=0
15676 Par ch=1 c=11 v=58
15684 Par ch=1 c=11 v=59
15696 Par ch=1 c=11 v=60
15704 Par ch=1 c=11 v=61
15716 Par ch=1 c=11 v=62
15724 Par ch=1 c=11 v=63
15736 Par ch=1 c=11 v=64
15744 On ch=1 n=36 v=111
15775 On ch=1 n=36 v=0
15840 On ch=1 n=36 v=111
15871 On ch=1 n=36 v=0
16000 On ch=1 n=36 v=111
16021 On ch=1 n=36 v=0
16032 On ch=1 n=36 v=111
16053 On ch=1 n=36 v=0
16064 On ch=1 n=36 v=111
16085 On ch=1 n=36 v=0
16096 On ch=1 n=36 v=111
16117 On ch=1 n=36 v=0
16128 On ch=1 n=36 v=111
16159 On ch=1 n=36 v=0
16224 On ch=1 n=36 v=111
16255 On ch=1 n=36 v=0
16384 On ch=1 n=36 v=111
16405 On ch=1 n=36 v=0
16416 On ch=1 n=36 v=111
16437 On ch=1 n=36 v=0
16448 On ch=1 n=36 v=111
16469 On ch=1 n=36 v=0
16480 On ch=1 n=36 v=111
16501 On ch=1 n=36 v=0
16512 On ch=1 n=36 v=111
16550 On ch=1 n=36 v=0
28416 On ch=1 n=44 v=47
28570 On ch=1 n=44 v=0
28608 On ch=1 n=37 v=47
28762 On ch=1 n=37 v=0
28800 On ch=1 n=36 v=47
28992 On ch=1 n=36 v=0
28992 On ch=1 n=41 v=47
29030 On ch=1 n=41 v=0
29088 On ch=1 n=39 v=47
29126 On ch=1 n=39 v=0
29184 On ch=1 n=44 v=47
29338 On ch=1 n=44 v=0
29376 On ch=1 n=41 v=47
29414 On ch=1 n=41 v=0
29472 On ch=1 n=39 v=47
29510 On ch=1 n=39 v=0
29568 On ch=1 n=44 v=47
29722 On ch=1 n=44 v=0
29760 On ch=1 n=41 v=47
29798 On ch=1 n=41 v=0
29856 On ch=1 n=39 v=63
29894 On ch=1 n=39 v=0
29952 On ch=1 n=44 v=79
29990 On ch=1 n=44 v=0
30144 Par ch=1 c=11 v=64
30144 On ch=1 n=32 v=47
30156 Par ch=1 c=11 v=65
30164 Par ch=1 c=11 v=66
30172 Par ch=1 c=11 v=67
30184 Par ch=1 c=11 v=68
30192 Par ch=1 c=11 v=69
30200 Par ch=1 c=11 v=70
30208 Par ch=1 c=11 v=71
30220 Par ch=1 c=11 v=72
30228 Par ch=1 c=11 v=73
30236 Par ch=1 c=11 v=74
30248 Par ch=1 c=11 v=75
30256 Par ch=1 c=11 v=76
30264 Par ch=1 c=11 v=77
30272 Par ch=1 c=11 v=78
30284 Par ch=1 c=11 v=79
30292 Par ch=1 c=11 v=80
30298 On ch=1 n=32 v=0
30300 Par ch=1 c=11 v=81
30312 Par ch=1 c=11 v=82
30320 Par ch=1 c=11 v=83
30328 Par ch=1 c=11 v=84
30336 Par ch=1 c=11 v=85
30336 On ch=1 n=31 v=47
30348 Par ch=1 c=11 v=86
30356 Par ch=1 c=11 v=87
30364 Par ch=1 c=11 v=88
30376 Par ch=1 c=11 v=89
30384 Par ch=1 c=11 v=90
30392 Par ch=1 c=11 v=91
30400 Par ch=1 c=11 v=92
30412 Par ch=1 c=11 v=93
30420 Par ch=1 c=11 v=94
30428 Par ch=1 c=11 v=95
30440 Par ch=1 c=11 v=96
30448 Par ch=1 c=11 v=97
30456 Par ch=1 c=11 v=98
30464 Par ch=1 c=11 v=99
30476 Par ch=1 c=11 v=100
30484 Par ch=1 c=11 v=101
30490 On ch=1 n=31 v=0
30492 Par ch=1 c=11 v=102
30504 Par ch=1 c=11 v=103
30512 Par ch=1 c=11 v=104
30520 Par ch=1 c=11 v=105
30528 Par ch=1 c=11 v=106
30528 On ch=1 n=30 v=47
30540 Par ch=1 c=11 v=107
30548 Par ch=1 c=11 v=108
30556 Par ch=1 c=11 v=109
30568 Par ch=1 c=11 v=110
30576 Par ch=1 c=11 v=111
30584 Par ch=1 c=11 v=112
30592 Par ch=1 c=11 v=113
30604 Par ch=1 c=11 v=114
30612 Par ch=1 c=11 v=115
30620 Par ch=1 c=11 v=116
30632 Par ch=1 c=11 v=117
30640 Par ch=1 c=11 v=118
30648 Par ch=1 c=11 v=119
30656 Par ch=1 c=11 v=120
30668 Par ch=1 c=11 v=121
30676 Par ch=1 c=11 v=122
30682 On ch=1 n=30 v=0
30684 Par ch=1 c=11 v=123
30696 Par ch=1 c=11 v=124
30704 Par ch=1 c=11 v=125
30712 Par ch=1 c=11 v=126
30720 On ch=1 n=31 v=47
30797 On ch=1 n=31 v=0
31104 Par ch=1 c=11 v=64
33408 On ch=1 n=31 v=111
33456 Par ch=1 c=11 v=32
33715 On ch=1 n=31 v=0
33792 Par ch=1 c=11 v=64
33792 On ch=1 n=36 v=95
33840 Par ch=1 c=11 v=32
33852 Par ch=1 c=11 v=33
33864 Par ch=1 c=11 v=34
33872 Par ch=1 c=11 v=35
33884 Par ch=1 c=11 v=36
33892 Par ch=1 c=11 v=37
33904 Par ch=1 c=11 v=38
33912 Par ch=1 c=11 v=39
33924 Par ch=1 c=11 v=40
33932 Par ch=1 c=11 v=41
33944 Par ch=1 c=11 v=42
33952 Par ch=1 c=11 v=43
33964 Par ch=1 c=11 v=44
33976 Par ch=1 c=11 v=45
33984 Par ch=1 c=11 v=46
33996 Par ch=1 c=11 v=47
34004 Par ch=1 c=11 v=48
34016 Par ch=1 c=11 v=49
34024 Par ch=1 c=11 v=50
34036 Par ch=1 c=11 v=51
34044 Par ch=1 c=11 v=52
34056 Par ch=1 c=11 v=53
34064 Par ch=1 c=11 v=54
34076 Par ch=1 c=11 v=55
34088 Par ch=1 c=11 v=56
34096 Par ch=1 c=11 v=57
34099 On ch=1 n=36 v=0
34108 Par ch=1 c=11 v=58
34116 Par ch=1 c=11 v=59
34128 Par ch=1 c=11 v=60
34136 Par ch=1 c=11 v=61
34148 Par ch=1 c=11 v=62
34156 Par ch=1 c=11 v=63
34168 Par ch=1 c=11 v=64
34176 On ch=1 n=38 v=95
34224 Par ch=1 c=11 v=32
34330 On ch=1 n=38 v=0
34560 Par ch=1 c=11 v=64
34560 On ch=1 n=38 v=111
34598 On ch=1 n=38 v=0
34632 On ch=1 n=40 v=111
34651 On ch=1 n=40 v=0
34656 On ch=1 n=42 v=111
34694 On ch=1 n=42 v=0
34728 On ch=1 n=43 v=111
34747 On ch=1 n=43 v=0
34752 On ch=1 n=45 v=111
34790 On ch=1 n=45 v=0
34824 On ch=1 n=46 v=111
34843 On ch=1 n=46 v=0
34848 On ch=1 n=48 v=111
34886 On ch=1 n=48 v=0
34920 On ch=1 n=50 v=111
34939 On ch=1 n=50 v=0
34944 On ch=1 n=38 v=111
35021 On ch=1 n=38 v=0
35328 On ch=1 n=38 v=111
35366 On ch=1 n=38 v=0
35400 On ch=1 n=40 v=111
35419 On ch=1 n=40 v=0
35424 On ch=1 n=42 v=111
35462 On ch=1 n=42 v=0
35496 On ch=1 n=43 v=111
35515 On ch=1 n=43 v=0
35520 On ch=1 n=45 v=111
35558 On ch=1 n=45 v=0
35592 On ch=1 n=46 v=111
35611 On ch=1 n=46 v=0
35616 On ch=1 n=48 v=111
35654 On ch=1 n=48 v=0
35688 On ch=1 n=50 v=111
35707 On ch=1 n=50 v=0
35712 On ch=1 n=38 v=111
35789 On ch=1 n=38 v=0
68736 On ch=1 n=37 v=47
70272 On ch=1 n=37 v=47
70272 On ch=1 n=37 v=47
70272 On ch=1 n=37 v=47
70579 On ch=1 n=37 v=0
70579 On ch=1 n=37 v=0
70579 On ch=1 n=37 v=0
70579 On ch=1 n=37 v=0
72576 On ch=1 n=38 v=47
72960 On ch=1 n=38 v=0
72960 Par ch=1 c=11 v=80
72960 On ch=1 n=38 v=95
73296 Par ch=1 c=11 v=32
73651 On ch=1 n=38 v=0
73728 Par ch=1 c=11 v=64
73728 On ch=1 n=38 v=95
74064 Par ch=1 c=11 v=32
74419 On ch=1 n=38 v=0
74496 On ch=1 n=38 v=95
74888 Par ch=1 c=11 v=16
74896 Par ch=1 c=11 v=17
74904 Par ch=1 c=11 v=18
74912 Par ch=1 c=11 v=19
74920 Par ch=1 c=11 v=20
74928 Par ch=1 c=11 v=21
74936 Par ch=1 c=11 v=22
74944 Par ch=1 c=11 v=23
74952 Par ch=1 c=11 v=24
74960 Par ch=1 c=11 v=25
74968 Par ch=1 c=11 v=26
74976 Par ch=1 c=11 v=27
74980 Par ch=1 c=11 v=28
74988 Par ch=1 c=11 v=29
74996 Par ch=1 c=11 v=30
75004 Par ch=1 c=11 v=31
75012 Par ch=1 c=11 v=32
75020 Par ch=1 c=11 v=33
75028 Par ch=1 c=11 v=34
75036 Par ch=1 c=11 v=35
75044 Par ch=1 c=11 v=36
75052 Par ch=1 c=11 v=37
75060 Par ch=1 c=11 v=38
75068 Par ch=1 c=11 v=39
75072 Par ch=1 c=11 v=40
75080 Par ch=1 c=11 v=41
75088 Par ch=1 c=11 v=42
75096 Par ch=1 c=11 v=43
75104 Par ch=1 c=11 v=44
75112 Par ch=1 c=11 v=45
75120 Par ch=1 c=11 v=46
75128 Par ch=1 c=11 v=47
75136 Par ch=1 c=11 v=48
75144 Par ch=1 c=11 v=49
75152 Par ch=1 c=11 v=50
75160 Par ch=1 c=11 v=51
75168 Par ch=1 c=11 v=52
75172 Par ch=1 c=11 v=53
75180 Par ch=1 c=11 v=54
75187 On ch=1 n=38 v=0
75188 Par ch=1 c=11 v=55
75196 Par ch=1 c=11 v=56
75204 Par ch=1 c=11 v=57
75212 Par ch=1 c=11 v=58
75220 Par ch=1 c=11 v=59
75228 Par ch=1 c=11 v=60
75236 Par ch=1 c=11 v=61
75244 Par ch=1 c=11 v=62
75252 Par ch=1 c=11 v=63
75260 Par ch=1 c=11 v=64
75360 Par ch=1 c=11 v=64
75360 On ch=1 n=38 v=111
75391 On ch=1 n=38 v=0
76032 On ch=1 n=38 v=111
76070 On ch=1 n=38 v=0
76800 On ch=1 n=37 v=111
77184 Par ch=1 c=11 v=64
77196 Par ch=1 c=11 v=63
77208 Par ch=1 c=11 v=62
77220 Par ch=1 c=11 v=61
77232 Par ch=1 c=11 v=60
77244 Par ch=1 c=11 v=59
77252 Par ch=1 c=11 v=58
77264 Par ch=1 c=11 v=57
77276 Par ch=1 c=11 v=56
77288 Par ch=1 c=11 v=55
77300 Par ch=1 c=11 v=54
77312 Par ch=1 c=11 v=53
77320 Par ch=1 c=11 v=52
77332 Par ch=1 c=11 v=51
77344 Par ch=1 c=11 v=50
77356 Par ch=1 c=11 v=49
77368 Par ch=1 c=11 v=48
77376 Par ch=1 c=11 v=47
77388 Par ch=1 c=11 v=46
77400 Par ch=1 c=11 v=45
77412 Par ch=1 c=11 v=44
77424 Par ch=1 c=11 v=43
77436 Par ch=1 c=11 v=42
77444 Par ch=1 c=11 v=41
77456 Par ch=1 c=11 v=40
77468 Par ch=1 c=11 v=39
77480 Par ch=1 c=11 v=38
77492 Par ch=1 c=11 v=37
77504 Par ch=1 c=11 v=36
77512 Par ch=1 c=11 v=35
77524 Par ch=1 c=11 v=34
77536 Par ch=1 c=11 v=33
77548 Par ch=1 c=11 v=32
77568 On ch=1 n=37 v=111
77568 On ch=1 n=37 v=111
77568 On ch=1 n=37 v=111
77645 On ch=1 n=37 v=0
77645 On ch=1 n=37 v=0
77645 On ch=1 n=37 v=0
77645 On ch=1 n=37 v=0
77952 Par ch=1 c=11 v=64
94656 On ch=1 n=34 v=111
94848 Par ch=1 c=11 v=64
94860 Par ch=1 c=11 v=63
94872 Par ch=1 c=11 v=62
94884 Par ch=1 c=11 v=61
94896 Par ch=1 c=11 v=60
94908 Par ch=1 c=11 v=59
94916 Par ch=1 c=11 v=58
94928 Par ch=1 c=11 v=57
94940 Par ch=1 c=11 v=56
94952 Par ch=1 c=11 v=55
94964 Par ch=1 c=11 v=54
94976 Par ch=1 c=11 v=53
94984 Par ch=1 c=11 v=52
94996 Par ch=1 c=11 v=51
95008 Par ch=1 c=11 v=50
95020 Par ch=1 c=11 v=49
95032 Par ch=1 c=11 v=48
95040 Par ch=1 c=11 v=47
95052 Par ch=1 c=11 v=46
95064 Par ch=1 c=11 v=45
95076 Par ch=1 c=11 v=44
95088 Par ch=1 c=11 v=43
95100 Par ch=1 c=11 v=42
95108 Par ch=1 c=11 v=41
95120 Par ch=1 c=11 v=40
95132 Par ch=1 c=11 v=39
95144 Par ch=1 c=11 v=38
95156 Par ch=1 c=11 v=37
95168 Par ch=1 c=11 v=36
95176 Par ch=1 c=11 v=35
95188 Par ch=1 c=11 v=34
95200 Par ch=1 c=11 v=33
95212 Par ch=1 c=11 v=32
95616 Par ch=1 c=11 v=32
95640 Par ch=1 c=11 v=31
95664 Par ch=1 c=11 v=30
95684 Par ch=1 c=11 v=29
95708 Par ch=1 c=11 v=28
95732 Par ch=1 c=11 v=27
95752 Par ch=1 c=11 v=26
95776 Par ch=1 c=11 v=25
95800 Par ch=1 c=11 v=24
95820 Par ch=1 c=11 v=23
95844 Par ch=1 c=11 v=22
95868 Par ch=1 c=11 v=21
95888 Par ch=1 c=11 v=20
95912 Par ch=1 c=11 v=19
95936 Par ch=1 c=11 v=18
95956 Par ch=1 c=11 v=17
95980 Par ch=1 c=11 v=16
96230 On ch=1 n=34 v=0
96384 Par ch=1 c=11 v=64
108864 On ch=1 n=48 v=79
108941 On ch=1 n=48 v=0
108960 On ch=1 n=46 v=79
109037 On ch=1 n=46 v=0
109056 On ch=1 n=51 v=79
109133 On ch=1 n=51 v=0
109152 On ch=1 n=50 v=79
109229 On ch=1 n=50 v=0
109248 On ch=1 n=48 v=79
109325 On ch=1 n=48 v=0
109344 On ch=1 n=42 v=79
109421 On ch=1 n=42 v=0
109440 On ch=1 n=43 v=79
109517 On ch=1 n=43 v=0
109536 On ch=1 n=40 v=79
109613 On ch=1 n=40 v=0
109632 On ch=1 n=41 v=79
109709 On ch=1 n=41 v=0
109728 On ch=1 n=42 v=79
109805 On ch=1 n=42 v=0
109824 On ch=1 n=43 v=79
109862 On ch=1 n=43 v=0
110592 On ch=1 n=34 v=95
110630 On ch=1 n=34 v=0
110664 On ch=1 n=36 v=95
110683 On ch=1 n=36 v=0
110688 On ch=1 n=38 v=95
110726 On ch=1 n=38 v=0
110760 On ch=1 n=39 v=95
110779 On ch=1 n=39 v=0
110784 On ch=1 n=41 v=95
110822 On ch=1 n=41 v=0
110856 On ch=1 n=42 v=95
110875 On ch=1 n=42 v=0
110880 On ch=1 n=44 v=95
110918 On ch=1 n=44 v=0
110952 On ch=1 n=46 v=95
110971 On ch=1 n=46 v=0
110976 On ch=1 n=35 v=95
111014 On ch=1 n=35 v=0
111048 On ch=1 n=37 v=95
111067 On ch=1 n=37 v=0
111072 On ch=1 n=39 v=95
111110 On ch=1 n=39 v=0
111144 On ch=1 n=41 v=95
111163 On ch=1 n=41 v=0
111168 On ch=1 n=43 v=95
111206 On ch=1 n=43 v=0
111240 On ch=1 n=44 v=95
111259 On ch=1 n=44 v=0
111264 On ch=1 n=46 v=95
111302 On ch=1 n=46 v=0
111336 On ch=1 n=47 v=95
111355 On ch=1 n=47 v=0
111360 On ch=1 n=45 v=95
111398 On ch=1 n=45 v=0
111744 Par ch=1 c=11 v=64
111744 On ch=1 n=34 v=111
111756 Par ch=1 c=11 v=63
111768 Par ch=1 c=11 v=62
111780 Par ch=1 c=11 v=61
111792 Par ch=1 c=11 v=60
111804 Par ch=1 c=11 v=59
111816 Par ch=1 c=11 v=58
111828 Par ch=1 c=11 v=57
111840 Par ch=1 c=11 v=56
111852 Par ch=1 c=11 v=55
111864 Par ch=1 c=11 v=54
111876 Par ch=1 c=11 v=53
111888 Par ch=1 c=11 v=52
111900 Par ch=1 c=11 v=51
111912 Par ch=1 c=11 v=50
111924 Par ch=1 c=11 v=49
111936 Par ch=1 c=11 v=48
111974 On ch=1 n=34 v=0
112416 On ch=1 n=58 v=111
112447 On ch=1 n=58 v=0
112512 Par ch=1 c=11 v=64
112512 On ch=1 n=34 v=111
112524 Par ch=1 c=11 v=63
112536 Par ch=1 c=11 v=62
112548 Par ch=1 c=11 v=61
112560 Par ch=1 c=11 v=60
112572 Par ch=1 c=11 v=59
112584 Par ch=1 c=11 v=58
112596 Par ch=1 c=11 v=57
112608 Par ch=1 c=11 v=56
112620 Par ch=1 c=11 v=55
112632 Par ch=1 c=11 v=54
112644 Par ch=1 c=11 v=53
112656 Par ch=1 c=11 v=52
112668 Par ch=1 c=11 v=51
112680 Par ch=1 c=11 v=50
112692 Par ch=1 c=11 v=49
112704 Par ch=1 c=11 v=48
112742 On ch=1 n=34 v=0
113184 On ch=1 n=58 v=111
113215 On ch=1 n=58 v=0
114048 On ch=1 n=34 v=111
114080 Par ch=1 c=11 v=16
114088 Par ch=1 c=11 v=17
114096 Par ch=1 c=11 v=18
114104 Par ch=1 c=11 v=19
114108 Par ch=1 c=11 v=20
114116 Par ch=1 c=11 v=21
114124 Par ch=1 c=11 v=22
114132 Par ch=1 c=11 v=23
114140 Par ch=1 c=11 v=24
114144 Par ch=1 c=11 v=25
114152 Par ch=1 c=11 v=26
114160 Par ch=1 c=11 v=27
114168 Par ch=1 c=11 v=28
114176 Par ch=1 c=11 v=29
114180 Par ch=1 c=11 v=30
114188 Par ch=1 c=11 v=31
114196 Par ch=1 c=11 v=32
114204 Par ch=1 c=11 v=33
114212 Par ch=1 c=11 v=34
114216 Par ch=1 c=11 v=35
114224 Par ch=1 c=11 v=36
114232 Par ch=1 c=11 v=37
114240 Par ch=1 c=11 v=38
114248 Par ch=1 c=11 v=39
114252 Par ch=1 c=11 v=40
114260 Par ch=1 c=11 v=41
114268 Par ch=1 c=11 v=42
114276 Par ch=1 c=11 v=43
114284 Par ch=1 c=11 v=44
114288 Par ch=1 c=11 v=45
114296 Par ch=1 c=11 v=46
114304 Par ch=1 c=11 v=47
114312 Par ch=1 c=11 v=48
114320 Par ch=1 c=11 v=49
114324 Par ch=1 c=11 v=50
114332 Par ch=1 c=11 v=51
114340 Par ch=1 c=11 v=52
114348 Par ch=1 c=11 v=53
114356 Par ch=1 c=11 v=54
114360 Par ch=1 c=11 v=55
114368 Par ch=1 c=11 v=56
114376 Par ch=1 c=11 v=57
114384 Par ch=1 c=11 v=58
114392 Par ch=1 c=11 v=59
114396 Par ch=1 c=11 v=60
114404 Par ch=1 c=11 v=61
114412 Par ch=1 c=11 v=62
114420 Par ch=1 c=11 v=63
114428 Par ch=1 c=11 v=64
114432 Par ch=1 c=11 v=64
114444 Par ch=1 c=11 v=63
114456 Par ch=1 c=11 v=62
114468 Par ch=1 c=11 v=61
114480 Par ch=1 c=11 v=60
114492 Par ch=1 c=11 v=59
114500 Par ch=1 c=11 v=58
114512 Par ch=1 c=11 v=57
114524 Par ch=1 c=11 v=56
114536 Par ch=1 c=11 v=55
114548 Par ch=1 c=11 v=54
114560 Par ch=1 c=11 v=53
114568 Par ch=1 c=11 v=52
114580 Par ch=1 c=11 v=51
114592 Par ch=1 c=11 v=50
114604 Par ch=1 c=11 v=49
114616 Par ch=1 c=11 v=48
114624 Par ch=1 c=11 v=47
114636 Par ch=1 c=11 v=46
114648 Par ch=1 c=11 v=45
114660 Par ch=1 c=11 v=44
114672 Par ch=1 c=11 v=43
114684 Par ch=1 c=11 v=42
114692 Par ch=1 c=11 v=41
114704 Par ch=1 c=11 v=40
114716 Par ch=1 c=11 v=39
114728 Par ch=1 c=11 v=38
114740 Par ch=1 c=11 v=37
114752 Par ch=1 c=11 v=36
114760 Par ch=1 c=11 v=35
114772 Par ch=1 c=11 v=34
114784 Par ch=1 c=11 v=33
114796 Par ch=1 c=11 v=32
114816 Par ch=1 c=11 v=32
114828 Par ch=1 c=11 v=33
114840 Par ch=1 c=11 v=34
114852 Par ch=1 c=11 v=35
114864 Par ch=1 c=11 v=36
114876 Par ch=1 c=11 v=37
114888 Par ch=1 c=11 v=38
114900 Par ch=1 c=11 v=39
114912 Par ch=1 c=11 v=40
114924 Par ch=1 c=11 v=41
114936 Par ch=1 c=11 v=42
114944 Par ch=1 c=11 v=43
114956 Par ch=1 c=11 v=44
114968 Par ch=1 c=11 v=45
114980 Par ch=1 c=11 v=46
114992 Par ch=1 c=11 v=47
115004 Par ch=1 c=11 v=48
115016 Par ch=1 c=11 v=49
115028 Par ch=1 c=11 v=50
115040 Par ch=1 c=11 v=51
115052 Par ch=1 c=11 v=52
115064 Par ch=1 c=11 v=53
115072 Par ch=1 c=11 v=54
115084 Par ch=1 c=11 v=55
115096 Par ch=1 c=11 v=56
115108 Par ch=1 c=11 v=57
115120 Par ch=1 c=11 v=58
115123 On ch=1 n=34 v=0
115132 Par ch=1 c=11 v=59
115144 Par ch=1 c=11 v=60
115156 Par ch=1 c=11 v=61
115168 Par ch=1 c=11 v=62
115180 Par ch=1 c=11 v=63
115192 Par ch=1 c=11 v=64
115200 Par ch=1 c=11 v=64
115200 On ch=1 n=35 v=100
115224 Par ch=1 c=11 v=63
115248 Par ch=1 c=11 v=62
115268 Par ch=1 c=11 v=61
115292 Par ch=1 c=11 v=60
115316 Par ch=1 c=11 v=59
115336 Par ch=1 c=11 v=58
115360 Par ch=1 c=11 v=57
115384 Par ch=1 c=11 v=56
115404 Par ch=1 c=11 v=55
115428 Par ch=1 c=11 v=54
115430 On ch=1 n=35 v=0
115452 Par ch=1 c=11 v=53
115472 Par ch=1 c=11 v=52
115488 On ch=1 n=34 v=100
115496 Par ch=1 c=11 v=51
115520 Par ch=1 c=11 v=50
115540 Par ch=1 c=11 v=49
115564 Par ch=1 c=11 v=48
115565 On ch=1 n=34 v=0
115584 Par ch=1 c=11 v=48
115584 On ch=1 n=33 v=100
115608 Par ch=1 c=11 v=49
115632 Par ch=1 c=11 v=50
115652 Par ch=1 c=11 v=51
115661 On ch=1 n=33 v=0
115676 Par ch=1 c=11 v=52
115680 On ch=1 n=32 v=100
115700 Par ch=1 c=11 v=53
115720 Par ch=1 c=11 v=54
115744 Par ch=1 c=11 v=55
115757 On ch=1 n=32 v=0
115768 Par ch=1 c=11 v=56
115776 On ch=1 n=33 v=100
115788 Par ch=1 c=11 v=57
115812 Par ch=1 c=11 v=58
115836 Par ch=1 c=11 v=59
115853 On ch=1 n=33 v=0
115856 Par ch=1 c=11 v=60
115872 On ch=1 n=34 v=100
115880 Par ch=1 c=11 v=61
115904 Par ch=1 c=11 v=62
115924 Par ch=1 c=11 v=63
115948 Par ch=1 c=11 v=64
115949 On ch=1 n=34 v=0
115968 Par ch=1 c=11 v=64
115968 On ch=1 n=35 v=100
115992 Par ch=1 c=11 v=63
116016 Par ch=1 c=11 v=62
116036 Par ch=1 c=11 v=61
116060 Par ch=1 c=11 v=60
116084 Par ch=1 c=11 v=59
116104 Par ch=1 c=11 v=58
116128 Par ch=1 c=11 v=57
116152 Par ch=1 c=11 v=56
116172 Par ch=1 c=11 v=55
116196 Par ch=1 c=11 v=54
116220 Par ch=1 c=11 v=53
116240 Par ch=1 c=11 v=52
116264 Par ch=1 c=11 v=51
116275 On ch=1 n=35 v=0
116288 Par ch=1 c=11 v=50
116308 Par ch=1 c=11 v=49
116332 Par ch=1 c=11 v=48
116352 On ch=1 n=34 v=100
116429 On ch=1 n=34 v=0
116448 On ch=1 n=33 v=100
116525 On ch=1 n=33 v=0
116544 Par ch=1 c=11 v=48
116544 On ch=1 n=32 v=100
116556 Par ch=1 c=11 v=47
116568 Par ch=1 c=11 v=46
116576 Par ch=1 c=11 v=45
116588 Par ch=1 c=11 v=44
116600 Par ch=1 c=11 v=43
116608 Par ch=1 c=11 v=42
116620 Par ch=1 c=11 v=41
116621 On ch=1 n=32 v=0
116632 Par ch=1 c=11 v=40
116640 Par ch=1 c=11 v=39
116640 On ch=1 n=33 v=100
116652 Par ch=1 c=11 v=38
116664 Par ch=1 c=11 v=37
116672 Par ch=1 c=11 v=36
116684 Par ch=1 c=11 v=35
116696 Par ch=1 c=11 v=34
116704 Par ch=1 c=11 v=33
116716 Par ch=1 c=11 v=32
116717 On ch=1 n=33 v=0
116736 Par ch=1 c=11 v=64
116736 On ch=1 n=34 v=79
118195 On ch=1 n=34 v=0
118272 On ch=1 n=34 v=79
118368 On ch=1 n=34 v=0
118368 On ch=1 n=33 v=79
118464 On ch=1 n=33 v=0
118464 On ch=1 n=34 v=79
118560 On ch=1 n=34 v=0
118560 On ch=1 n=33 v=79
118637 On ch=1 n=33 v=0
118656 Par ch=1 c=11 v=64
118656 On ch=1 n=34 v=79
118680 Par ch=1 c=11 v=65
118704 Par ch=1 c=11 v=66
118724 Par ch=1 c=11 v=67
118748 Par ch=1 c=11 v=68
118752 On ch=1 n=34 v=0
118752 On ch=1 n=33 v=79
118772 Par ch=1 c=11 v=69
118792 Par ch=1 c=11 v=70
118816 Par ch=1 c=11 v=71
118840 Par ch=1 c=11 v=72
118848 On ch=1 n=33 v=0
118848 On ch=1 n=34 v=79
118860 Par ch=1 c=11 v=73
118884 Par ch=1 c=11 v=74
118908 Par ch=1 c=11 v=75
118928 Par ch=1 c=11 v=76
118944 On ch=1 n=34 v=0
118944 On ch=1 n=33 v=79
118952 Par ch=1 c=11 v=77
118976 Par ch=1 c=11 v=78
118996 Par ch=1 c=11 v=79
119020 Par ch=1 c=11 v=80
119021 On ch=1 n=33 v=0
119040 Par ch=1 c=11 v=64
119040 On ch=1 n=34 v=95
119136 On ch=1 n=34 v=0
119136 On ch=1 n=33 v=95
119232 On ch=1 n=33 v=0
119232 On ch=1 n=34 v=95
119328 On ch=1 n=34 v=0
119328 On ch=1 n=35 v=95
119424 On ch=1 n=35 v=0
119424 On ch=1 n=34 v=95
119520 On ch=1 n=34 v=0
119520 On ch=1 n=33 v=95
119616 On ch=1 n=33 v=0
119616 On ch=1 n=34 v=95
119693 On ch=1 n=34 v=0
120096 On ch=1 n=35 v=111
120134 On ch=1 n=35 v=0
120168 On ch=1 n=37 v=111
120187 On ch=1 n=37 v=0
120192 On ch=1 n=39 v=111
120269 On ch=1 n=39 v=0
120288 On ch=1 n=44 v=111
120326 On ch=1 n=44 v=0
120360 On ch=1 n=40 v=111
120379 On ch=1 n=40 v=0
120384 On ch=1 n=38 v=111
120432 On ch=1 n=38 v=0
120432 On ch=1 n=39 v=111
120470 On ch=1 n=39 v=0
120480 On ch=1 n=32 v=111
120518 On ch=1 n=32 v=0
120552 On ch=1 n=34 v=111
120571 On ch=1 n=34 v=0
120576 On ch=1 n=35 v=111
120653 On ch=1 n=35 v=0
121728 On ch=1 n=47 v=100
121759 On ch=1 n=47 v=0
121800 On ch=1 n=46 v=100
121816 On ch=1 n=46 v=0
121824 On ch=1 n=45 v=100
121855 On ch=1 n=45 v=0
121896 On ch=1 n=44 v=100
121912 On ch=1 n=44 v=0
121920 On ch=1 n=43 v=100
121951 On ch=1 n=43 v=0
121992 On ch=1 n=42 v=100
122008 On ch=1 n=42 v=0
122016 On ch=1 n=41 v=100
122047 On ch=1 n=41 v=0
122088 On ch=1 n=40 v=100
122104 On ch=1 n=40 v=0
122496 Par ch=1 c=11 v=64
122496 On ch=1 n=33 v=127
122504 Par ch=1 c=11 v=63
122512 Par ch=1 c=11 v=62
122520 Par ch=1 c=11 v=61
122528 Par ch=1 c=11 v=60
122536 Par ch=1 c=11 v=59
122544 Par ch=1 c=11 v=58
122552 Par ch=1 c=11 v=57
122560 Par ch=1 c=11 v=56
122568 Par ch=1 c=11 v=55
122576 Par ch=1 c=11 v=54
122584 Par ch=1 c=11 v=53
122592 Par ch=1 c=11 v=52
122600 Par ch=1 c=11 v=51
122608 Par ch=1 c=11 v=50
122616 Par ch=1 c=11 v=49
122624 Par ch=1 c=11 v=48
122632 Par ch=1 c=11 v=47
122640 Par ch=1 c=11 v=46
122648 Par ch=1 c=11 v=45
122656 Par ch=1 c=11 v=44
122664 Par ch=1 c=11 v=43
122672 Par ch=1 c=11 v=42
122680 Par ch=1 c=11 v=41
122688 Par ch=1 c=11 v=40
122692 Par ch=1 c=11 v=39
122700 Par ch=1 c=11 v=38
122708 Par ch=1 c=11 v=37
122716 Par ch=1 c=11 v=36
122724 Par ch=1 c=11 v=35
122732 Par ch=1 c=11 v=34
122740 Par ch=1 c=11 v=33
122748 Par ch=1 c=11 v=32
122756 Par ch=1 c=11 v=31
122764 Par ch=1 c=11 v=30
122772 Par ch=1 c=11 v=29
122780 Par ch=1 c=11 v=28
122788 Par ch=1 c=11 v=27
122796 Par ch=1 c=11 v=26
122803 On ch=1 n=33 v=0
122804 Par ch=1 c=11 v=25
122812 Par ch=1 c=11 v=24
122820 Par ch=1 c=11 v=23
122828 Par ch=1 c=11 v=22
122836 Par ch=1 c=11 v=21
122844 Par ch=1 c=11 v=20
122852 Par ch=1 c=11 v=19
122860 Par ch=1 c=11 v=18
122868 Par ch=1 c=11 v=17
122876 Par ch=1 c=11 v=16
123264 Par ch=1 c=11 v=64
123264 On ch=1 n=31 v=79
123571 On ch=1 n=31 v=0
124032 On ch=1 n=31 v=79
124339 On ch=1 n=31 v=0
124800 On ch=1 n=55 v=111
124877 On ch=1 n=55 v=0
124896 On ch=1 n=55 v=111
124922 On ch=1 n=55 v=0
124928 On ch=1 n=55 v=111
124954 On ch=1 n=55 v=0
124960 On ch=1 n=55 v=111
124986 On ch=1 n=55 v=0
124992 On ch=1 n=55 v=111
125069 On ch=1 n=55 v=0
125088 On ch=1 n=55 v=111
125114 On ch=1 n=55 v=0
125120 On ch=1 n=55 v=111
125146 On ch=1 n=55 v=0
125152 On ch=1 n=55 v=111
125178 On ch=1 n=55 v=0
125184 On ch=1 n=55 v=111
125222 On ch=1 n=55 v=0
125256 On ch=1 n=55 v=111
125275 On ch=1 n=55 v=0
125280 On ch=1 n=55 v=111
125318 On ch=1 n=55 v=0
125352 On ch=1 n=55 v=111
125371 On ch=1 n=55 v=0
125376 On ch=1 n=55 v=111
125414 On ch=1 n=55 v=0
125448 On ch=1 n=55 v=111
125467 On ch=1 n=55 v=0
125472 On ch=1 n=55 v=111
125510 On ch=1 n=55 v=0
125544 On ch=1 n=55 v=111
125563 On ch=1 n=55 v=0
125568 On ch=1 n=55 v=111
125606 On ch=1 n=55 v=0
125640 On ch=1 n=55 v=111
125659 On ch=1 n=55 v=0
125664 On ch=1 n=55 v=111
125690 On ch=1 n=55 v=0
125696 On ch=1 n=55 v=111
125722 On ch=1 n=55 v=0
125728 On ch=1 n=55 v=111
125754 On ch=1 n=55 v=0
125760 On ch=1 n=55 v=111
125798 On ch=1 n=55 v=0
125832 On ch=1 n=55 v=111
125851 On ch=1 n=55 v=0
125856 On ch=1 n=55 v=111
125882 On ch=1 n=55 v=0
125888 On ch=1 n=55 v=111
125914 On ch=1 n=55 v=0
125920 On ch=1 n=55 v=111
125946 On ch=1 n=55 v=0
125952 Par ch=1 c=11 v=64
125952 On ch=1 n=55 v=111
125976 Par ch=1 c=11 v=65
125978 On ch=1 n=55 v=0
125984 On ch=1 n=54 v=111
126000 Par ch=1 c=11 v=66
126010 On ch=1 n=54 v=0
126016 On ch=1 n=53 v=111
126020 Par ch=1 c=11 v=67
126042 On ch=1 n=53 v=0
126044 Par ch=1 c=11 v=68
126048 On ch=1 n=51 v=111
126068 Par ch=1 c=11 v=69
126074 On ch=1 n=51 v=0
126080 On ch=1 n=50 v=111
126088 Par ch=1 c=11 v=70
126106 On ch=1 n=50 v=0
126112 Par ch=1 c=11 v=71
126112 On ch=1 n=48 v=111
126136 Par ch=1 c=11 v=72
126138 On ch=1 n=48 v=0
126144 On ch=1 n=47 v=111
126156 Par ch=1 c=11 v=73
126170 On ch=1 n=47 v=0
126176 On ch=1 n=44 v=111
126180 Par ch=1 c=11 v=74
126202 On ch=1 n=44 v=0
126204 Par ch=1 c=11 v=75
126208 On ch=1 n=43 v=111
126224 Par ch=1 c=11 v=76
126234 On ch=1 n=43 v=0
126240 On ch=1 n=41 v=111
126248 Par ch=1 c=11 v=77
126266 On ch=1 n=41 v=0
126272 Par ch=1 c=11 v=78
126272 On ch=1 n=39 v=111
126292 Par ch=1 c=11 v=79
126298 On ch=1 n=39 v=0
126304 On ch=1 n=38 v=111
126316 Par ch=1 c=11 v=80
126330 On ch=1 n=38 v=0
126336 Par ch=1 c=11 v=64
126336 On ch=1 n=36 v=127
126367 On ch=1 n=36 v=0
135552 On ch=1 n=48 v=111
135583 On ch=1 n=48 v=0
135624 On ch=1 n=46 v=111
135640 On ch=1 n=46 v=0
135648 On ch=1 n=44 v=111
135679 On ch=1 n=44 v=0
135720 On ch=1 n=43 v=111
135736 On ch=1 n=43 v=0
135744 On ch=1 n=41 v=111
135775 On ch=1 n=41 v=0
135816 On ch=1 n=39 v=111
135832 On ch=1 n=39 v=0
135840 On ch=1 n=37 v=111
135871 On ch=1 n=37 v=0
135912 On ch=1 n=36 v=111
135928 On ch=1 n=36 v=0
135936 On ch=1 n=44 v=111
135967 On ch=1 n=44 v=0
136008 On ch=1 n=43 v=111
136024 On ch=1 n=43 v=0
136032 On ch=1 n=41 v=111
136063 On ch=1 n=41 v=0
136104 On ch=1 n=39 v=111
136120 On ch=1 n=39 v=0
136128 On ch=1 n=37 v=111
136159 On ch=1 n=37 v=0
136200 On ch=1 n=36 v=111
136216 On ch=1 n=36 v=0
136224 On ch=1 n=34 v=111
136255 On ch=1 n=34 v=0
136296 On ch=1 n=32 v=111
136312 On ch=1 n=32 v=0
136320 On ch=1 n=31 v=111
136358 On ch=1 n=31 v=0
136704 On ch=1 n=43 v=95
136736 Par ch=1 c=11 v=16
136740 Par ch=1 c=11 v=17
136744 Par ch=1 c=11 v=18
136748 Par ch=1 c=11 v=19
136752 Par ch=1 c=11 v=20
136756 Par ch=1 c=11 v=21
136760 Par ch=1 c=11 v=22
136764 Par ch=1 c=11 v=23
136768 Par ch=1 c=11 v=24
136772 Par ch=1 c=11 v=25
136780 Par ch=1 c=11 v=26
136784 Par ch=1 c=11 v=27
136788 Par ch=1 c=11 v=28
136792 Par ch=1 c=11 v=29
136796 Par ch=1 c=11 v=30
136800 Par ch=1 c=11 v=31
136804 Par ch=1 c=11 v=32
136808 Par ch=1 c=11 v=33
136812 Par ch=1 c=11 v=34
136816 Par ch=1 c=11 v=35
136824 Par ch=1 c=11 v=36
136828 Par ch=1 c=11 v=37
136832 Par ch=1 c=11 v=38
136836 Par ch=1 c=11 v=39
136840 Par ch=1 c=11 v=40
136844 Par ch=1 c=11 v=41
136848 Par ch=1 c=11 v=42
136852 Par ch=1 c=11 v=43
136856 Par ch=1 c=11 v=44
136860 Par ch=1 c=11 v=45
136868 Par ch=1 c=11 v=46
136872 Par ch=1 c=11 v=47
136876 Par ch=1 c=11 v=48
136880 Par ch=1 c=11 v=49
136884 Par ch=1 c=11 v=50
136888 Par ch=1 c=11 v=51
136892 Par ch=1 c=11 v=52
136896 Par ch=1 c=11 v=53
136900 Par ch=1 c=11 v=54
136904 Par ch=1 c=11 v=55
136908 Par ch=1 c=11 v=56
136916 Par ch=1 c=11 v=57
136920 Par ch=1 c=11 v=58
136924 Par ch=1 c=11 v=59
136928 Par ch=1 c=11 v=60
136932 Par ch=1 c=11 v=61
136936 Par ch=1 c=11 v=62
136940 Par ch=1 c=11 v=63
136944 Par ch=1 c=11 v=64
136948 Par ch=1 c=11 v=65
136952 Par ch=1 c=11 v=66
136960 Par ch=1 c=11 v=67
136964 Par ch=1 c=11 v=68
136968 Par ch=1 c=11 v=69
136972 Par ch=1 c=11 v=70
136976 Par ch=1 c=11 v=71
136980 Par ch=1 c=11 v=72
136984 Par ch=1 c=11 v=73
136988 Par ch=1 c=11 v=74
136992 Par ch=1 c=11 v=75
136996 Par ch=1 c=11 v=76
137004 Par ch=1 c=11 v=77
137008 Par ch=1 c=11 v=78
137012 Par ch=1 c=11 v=79
137016 Par ch=1 c=11 v=80
137020 Par ch=1 c=11 v=81
137024 Par ch=1 c=11 v=82
137028 Par ch=1 c=11 v=83
137032 Par ch=1 c=11 v=84
137036 Par ch=1 c=11 v=85
137040 Par ch=1 c=11 v=86
137048 Par ch=1 c=11 v=87
137052 Par ch=1 c=11 v=88
137056 Par ch=1 c=11 v=89
137060 Par ch=1 c=11 v=90
137064 Par ch=1 c=11 v=91
137068 Par ch=1 c=11 v=92
137072 Par ch=1 c=11 v=93
137076 Par ch=1 c=11 v=94
137080 Par ch=1 c=11 v=95
137084 Par ch=1 c=11 v=96
137088 On ch=1 n=43 v=0
137088 Par ch=1 c=11 v=64
137088 On ch=1 n=36 v=127
137126 On ch=1 n=36 v=0
164736 On ch=1 n=36 v=31
165197 On ch=1 n=36 v=0
165888 On ch=1 n=36 v=31
166349 On ch=1 n=36 v=0
166349 Meta TrkEnd
TrkEnd
MTrk
0 Meta 0x21 01
0 Meta TrkName "1ST HARP"
192 Par ch=2 c=1 v=8
196 Par ch=2 c=7 v=127
200 Par ch=2 c=10 v=28
204 Par ch=2 c=11 v=64
208 Par ch=2 c=91 v=127
212 Par ch=2 c=93 v=64
216 Par ch=2 c=0 v=0
216 Par ch=2 c=32 v=0
216 PrCh ch=2 p=46
37248 On ch=2 n=79 v=79
37248 On ch=2 n=67 v=79
37402 On ch=2 n=67 v=0
37402 On ch=2 n=79 v=0
37632 On ch=2 n=67 v=79
37632 On ch=2 n=79 v=79
37786 On ch=2 n=79 v=0
37786 On ch=2 n=67 v=0
38016 On ch=2 n=67 v=79
38016 On ch=2 n=79 v=79
38170 On ch=2 n=79 v=0
38170 On ch=2 n=67 v=0
38784 On ch=2 n=67 v=95
38784 On ch=2 n=79 v=95
38938 On ch=2 n=79 v=0
38938 On ch=2 n=67 v=0
41856 On ch=2 n=31 v=63
41856 On ch=2 n=43 v=63
41933 On ch=2 n=43 v=0
41933 On ch=2 n=31 v=0
41952 On ch=2 n=29 v=63
41952 On ch=2 n=41 v=63
42029 On ch=2 n=41 v=0
42029 On ch=2 n=29 v=0
42048 On ch=2 n=27 v=63
42048 On ch=2 n=39 v=63
42125 On ch=2 n=39 v=0
42125 On ch=2 n=27 v=0
42144 On ch=2 n=26 v=63
42144 On ch=2 n=38 v=63
42221 On ch=2 n=38 v=0
42221 On ch=2 n=26 v=0
42240 On ch=2 n=43 v=63
42240 On ch=2 n=31 v=63
42317 On ch=2 n=31 v=0
42317 On ch=2 n=43 v=0
42336 On ch=2 n=41 v=63
42336 On ch=2 n=29 v=63
42413 On ch=2 n=29 v=0
42413 On ch=2 n=41 v=0
42432 On ch=2 n=39 v=63
42432 On ch=2 n=27 v=63
42509 On ch=2 n=27 v=0
42509 On ch=2 n=39 v=0
42528 On ch=2 n=38 v=63
42528 On ch=2 n=26 v=63
42605 On ch=2 n=26 v=0
42605 On ch=2 n=38 v=0
42624 Par ch=2 c=11 v=64
42624 On ch=2 n=43 v=63
42624 On ch=2 n=31 v=63
42648 Par ch=2 c=11 v=63
42672 Par ch=2 c=11 v=62
42692 Par ch=2 c=11 v=61
42701 On ch=2 n=31 v=0
42701 On ch=2 n=43 v=0
42716 Par ch=2 c=11 v=60
42720 On ch=2 n=41 v=63
42720 On ch=2 n=29 v=63
42740 Par ch=2 c=11 v=59
42760 Par ch=2 c=11 v=58
42784 Par ch=2 c=11 v=57
42797 On ch=2 n=29 v=0
42797 On ch=2 n=41 v=0
42808 Par ch=2 c=11 v=56
42816 On ch=2 n=39 v=63
42816 On ch=2 n=27 v=63
42828 Par ch=2 c=11 v=55
42852 Par ch=2 c=11 v=54
42876 Par ch=2 c=11 v=53
42893 On ch=2 n=27 v=0
42893 On ch=2 n=39 v=0
42896 Par ch=2 c=11 v=52
42912 On ch=2 n=38 v=63
42912 On ch=2 n=26 v=63
42920 Par ch=2 c=11 v=51
42944 Par ch=2 c=11 v=50
42964 Par ch=2 c=11 v=49
42988 Par ch=2 c=11 v=48
42989 On ch=2 n=26 v=0
42989 On ch=2 n=38 v=0
43008 Par ch=2 c=11 v=47
43008 On ch=2 n=43 v=63
43008 On ch=2 n=31 v=63
43032 Par ch=2 c=11 v=46
43056 Par ch=2 c=11 v=45
43076 Par ch=2 c=11 v=44
43085 On ch=2 n=31 v=0
43085 On ch=2 n=43 v=0
43100 Par ch=2 c=11 v=43
43104 On ch=2 n=41 v=63
43104 On ch=2 n=29 v=63
43124 Par ch=2 c=11 v=42
43144 Par ch=2 c=11 v=41
43168 Par ch=2 c=11 v=40
43181 On ch=2 n=29 v=0
43181 On ch=2 n=41 v=0
43192 Par ch=2 c=11 v=39
43200 On ch=2 n=39 v=63
43200 On ch=2 n=27 v=63
43212 Par ch=2 c=11 v=38
43236 Par ch=2 c=11 v=37
43260 Par ch=2 c=11 v=36
43277 On ch=2 n=27 v=0
43277 On ch=2 n=39 v=0
43280 Par ch=2 c=11 v=35
43296 On ch=2 n=38 v=63
43296 On ch=2 n=26 v=63
43304 Par ch=2 c=11 v=34
43328 Par ch=2 c=11 v=33
43348 Par ch=2 c=11 v=32
43373 On ch=2 n=26 v=0
43373 On ch=2 n=38 v=0
43392 On ch=2 n=43 v=63
43392 On ch=2 n=31 v=63
43469 On ch=2 n=31 v=0
43469 On ch=2 n=43 v=0
43488 On ch=2 n=41 v=63
43488 On ch=2 n=29 v=63
43565 On ch=2 n=29 v=0
43565 On ch=2 n=41 v=0
43584 On ch=2 n=39 v=63
43584 On ch=2 n=27 v=63
43661 On ch=2 n=27 v=0
43661 On ch=2 n=39 v=0
43680 On ch=2 n=38 v=63
43680 On ch=2 n=26 v=63
43757 On ch=2 n=26 v=0
43757 On ch=2 n=38 v=0
43776 On ch=2 n=43 v=63
43776 On ch=2 n=31 v=63
43853 On ch=2 n=31 v=0
43853 On ch=2 n=43 v=0
43872 On ch=2 n=41 v=63
43872 On ch=2 n=29 v=63
43949 On ch=2 n=29 v=0
43949 On ch=2 n=41 v=0
43968 On ch=2 n=39 v=63
43968 On ch=2 n=27 v=63
44045 On ch=2 n=27 v=0
44045 On ch=2 n=39 v=0
44064 On ch=2 n=38 v=63
44064 On ch=2 n=26 v=63
44141 On ch=2 n=26 v=0
44141 On ch=2 n=38 v=0
44160 Par ch=2 c=11 v=32
44160 On ch=2 n=43 v=63
44160 On ch=2 n=31 v=63
44208 Par ch=2 c=11 v=31
44237 On ch=2 n=31 v=0
44237 On ch=2 n=43 v=0
44252 Par ch=2 c=11 v=30
44256 On ch=2 n=26 v=63
44256 On ch=2 n=38 v=63
44296 Par ch=2 c=11 v=29
44333 On ch=2 n=38 v=0
44333 On ch=2 n=26 v=0
44344 Par ch=2 c=11 v=28
44352 On ch=2 n=31 v=63
44352 On ch=2 n=43 v=63
44388 Par ch=2 c=11 v=27
44429 On ch=2 n=43 v=0
44429 On ch=2 n=31 v=0
44432 Par ch=2 c=11 v=26
44448 On ch=2 n=38 v=63
44448 On ch=2 n=26 v=63
44480 Par ch=2 c=11 v=25
44524 Par ch=2 c=11 v=24
44525 On ch=2 n=26 v=0
44525 On ch=2 n=38 v=0
44544 On ch=2 n=43 v=63
44544 On ch=2 n=31 v=63
44568 Par ch=2 c=11 v=23
44612 Par ch=2 c=11 v=22
44621 On ch=2 n=31 v=0
44621 On ch=2 n=43 v=0
44640 On ch=2 n=26 v=63
44640 On ch=2 n=38 v=63
44660 Par ch=2 c=11 v=21
44704 Par ch=2 c=11 v=20
44717 On ch=2 n=38 v=0
44717 On ch=2 n=26 v=0
44736 On ch=2 n=31 v=63
44736 On ch=2 n=43 v=63
44748 Par ch=2 c=11 v=19
44796 Par ch=2 c=11 v=18
44813 On ch=2 n=43 v=0
44813 On ch=2 n=31 v=0
44832 On ch=2 n=38 v=63
44832 On ch=2 n=26 v=63
44840 Par ch=2 c=11 v=17
44884 Par ch=2 c=11 v=16
44909 On ch=2 n=26 v=0
44909 On ch=2 n=38 v=0
44928 On ch=2 n=43 v=63
44928 On ch=2 n=31 v=63
45005 On ch=2 n=31 v=0
45005 On ch=2 n=43 v=0
45312 Par ch=2 c=11 v=64
47232 On ch=2 n=41 v=31
47235 On ch=2 n=48 v=31
47238 On ch=2 n=53 v=31
47241 On ch=2 n=57 v=31
47244 On ch=2 n=60 v=31
47247 On ch=2 n=65 v=31
47250 On ch=2 n=72 v=31
47253 On ch=2 n=77 v=31
47256 On ch=2 n=81 v=31
47259 On ch=2 n=84 v=31
47309 On ch=2 n=41 v=0
47312 On ch=2 n=48 v=0
47315 On ch=2 n=53 v=0
47318 On ch=2 n=57 v=0
47321 On ch=2 n=60 v=0
47324 On ch=2 n=65 v=0
47327 On ch=2 n=72 v=0
47330 On ch=2 n=77 v=0
47333 On ch=2 n=81 v=0
47336 On ch=2 n=84 v=0
48768 On ch=2 n=40 v=31
48771 On ch=2 n=47 v=31
48774 On ch=2 n=52 v=31
48777 On ch=2 n=59 v=31
48780 On ch=2 n=64 v=31
48783 On ch=2 n=71 v=31
48786 On ch=2 n=76 v=31
48789 On ch=2 n=83 v=31
48792 On ch=2 n=88 v=31
48845 On ch=2 n=40 v=0
48848 On ch=2 n=47 v=0
48851 On ch=2 n=52 v=0
48854 On ch=2 n=59 v=0
48857 On ch=2 n=64 v=0
48860 On ch=2 n=71 v=0
48863 On ch=2 n=76 v=0
48866 On ch=2 n=83 v=0
48869 On ch=2 n=88 v=0
51840 On ch=2 n=47 v=47
51917 On ch=2 n=47 v=0
51936 On ch=2 n=49 v=47
52013 On ch=2 n=49 v=0
52032 On ch=2 n=51 v=47
52109 On ch=2 n=51 v=0
52128 On ch=2 n=52 v=47
52205 On ch=2 n=52 v=0
52224 On ch=2 n=54 v=47
52301 On ch=2 n=54 v=0
52320 On ch=2 n=56 v=47
52397 On ch=2 n=56 v=0
52416 On ch=2 n=57 v=47
52493 On ch=2 n=57 v=0
52512 On ch=2 n=59 v=47
52589 On ch=2 n=59 v=0
52608 On ch=2 n=59 v=47
52685 On ch=2 n=59 v=0
52704 On ch=2 n=61 v=47
52781 On ch=2 n=61 v=0
52800 On ch=2 n=63 v=47
52877 On ch=2 n=63 v=0
52896 On ch=2 n=64 v=47
52973 On ch=2 n=64 v=0
52992 On ch=2 n=66 v=47
53069 On ch=2 n=66 v=0
53088 On ch=2 n=68 v=47
53165 On ch=2 n=68 v=0
53184 On ch=2 n=69 v=47
53261 On ch=2 n=69 v=0
53280 On ch=2 n=71 v=47
53357 On ch=2 n=71 v=0
53376 On ch=2 n=40 v=31
53379 On ch=2 n=47 v=31
53382 On ch=2 n=56 v=31
53385 On ch=2 n=64 v=31
53388 On ch=2 n=71 v=31
53391 On ch=2 n=76 v=31
53453 On ch=2 n=40 v=0
53456 On ch=2 n=47 v=0
53459 On ch=2 n=56 v=0
53462 On ch=2 n=64 v=0
53465 On ch=2 n=71 v=0
53468 On ch=2 n=76 v=0
79872 On ch=2 n=65 v=47
79910 On ch=2 n=65 v=0
79920 On ch=2 n=64 v=47
79958 On ch=2 n=64 v=0
79968 On ch=2 n=62 v=47
80006 On ch=2 n=62 v=0
80016 On ch=2 n=60 v=47
80054 On ch=2 n=60 v=0
80064 On ch=2 n=58 v=47
80102 On ch=2 n=58 v=0
80112 On ch=2 n=57 v=47
80150 On ch=2 n=57 v=0
80160 On ch=2 n=55 v=47
80198 On ch=2 n=55 v=0
80208 On ch=2 n=60 v=47
80246 On ch=2 n=60 v=0
80256 On ch=2 n=65 v=47
80294 On ch=2 n=65 v=0
80304 On ch=2 n=64 v=47
80342 On ch=2 n=64 v=0
80352 On ch=2 n=62 v=47
80390 On ch=2 n=62 v=0
80400 On ch=2 n=60 v=47
80438 On ch=2 n=60 v=0
80448 On ch=2 n=58 v=47
80486 On ch=2 n=58 v=0
80496 On ch=2 n=57 v=47
80534 On ch=2 n=57 v=0
80544 On ch=2 n=55 v=47
80582 On ch=2 n=55 v=0
80592 On ch=2 n=60 v=47
80630 On ch=2 n=60 v=0
80640 On ch=2 n=65 v=47
80678 On ch=2 n=65 v=0
80688 On ch=2 n=64 v=47
80726 On ch=2 n=64 v=0
80736 On ch=2 n=62 v=47
80774 On ch=2 n=62 v=0
80784 On ch=2 n=60 v=47
80822 On ch=2 n=60 v=0
80832 On ch=2 n=65 v=47
80870 On ch=2 n=65 v=0
80880 On ch=2 n=64 v=47
80918 On ch=2 n=64 v=0
80928 On ch=2 n=62 v=47
80966 On ch=2 n=62 v=0
80976 On ch=2 n=60 v=47
81014 On ch=2 n=60 v=0
81024 On ch=2 n=65 v=47
81101 On ch=2 n=65 v=0
81120 On ch=2 n=61 v=47
81197 On ch=2 n=61 v=0
81216 On ch=2 n=62 v=47
81293 On ch=2 n=62 v=0
81312 On ch=2 n=64 v=47
81350 On ch=2 n=64 v=0
81360 On ch=2 n=65 v=47
81398 On ch=2 n=65 v=0
81408 On ch=2 n=67 v=47
81485 On ch=2 n=67 v=0
81504 On ch=2 n=74 v=47
81581 On ch=2 n=74 v=0
81600 On ch=2 n=77 v=47
81677 On ch=2 n=77 v=0
81696 On ch=2 n=72 v=47
81773 On ch=2 n=72 v=0
81792 On ch=2 n=71 v=47
81869 On ch=2 n=71 v=0
81888 On ch=2 n=74 v=47
81965 On ch=2 n=74 v=0
81984 On ch=2 n=77 v=47
82061 On ch=2 n=77 v=0
82080 On ch=2 n=69 v=47
82157 On ch=2 n=69 v=0
82176 On ch=2 n=67 v=47
82253 On ch=2 n=67 v=0
82272 On ch=2 n=71 v=47
82349 On ch=2 n=71 v=0
82368 On ch=2 n=77 v=47
82445 On ch=2 n=77 v=0
82464 On ch=2 n=71 v=47
82541 On ch=2 n=71 v=0
82560 On ch=2 n=77 v=47
82637 On ch=2 n=77 v=0
82656 On ch=2 n=72 v=47
82733 On ch=2 n=72 v=0
82752 On ch=2 n=73 v=47
82829 On ch=2 n=73 v=0
82848 On ch=2 n=74 v=47
82925 On ch=2 n=74 v=0
82944 On ch=2 n=76 v=47
83021 On ch=2 n=76 v=0
85632 On ch=2 n=47 v=31
85635 On ch=2 n=54 v=31
85638 On ch=2 n=59 v=31
85641 On ch=2 n=63 v=31
85644 On ch=2 n=71 v=31
85647 On ch=2 n=75 v=31
85650 On ch=2 n=78 v=31
85670 On ch=2 n=47 v=0
85673 On ch=2 n=54 v=0
85676 On ch=2 n=59 v=0
85679 On ch=2 n=63 v=0
85682 On ch=2 n=71 v=0
85685 On ch=2 n=75 v=0
85688 On ch=2 n=78 v=0
86688 On ch=2 n=66 v=79
86765 On ch=2 n=66 v=0
86784 On ch=2 n=71 v=79
86861 On ch=2 n=71 v=0
86976 On ch=2 n=70 v=79
87053 On ch=2 n=70 v=0
87120 On ch=2 n=66 v=79
87158 On ch=2 n=66 v=0
87168 On ch=2 n=71 v=79
87245 On ch=2 n=71 v=0
87264 On ch=2 n=73 v=79
87341 On ch=2 n=73 v=0
87456 On ch=2 n=66 v=79
87533 On ch=2 n=66 v=0
87552 On ch=2 n=75 v=79
87552 On ch=2 n=71 v=79
87629 On ch=2 n=71 v=0
87629 On ch=2 n=75 v=0
87744 On ch=2 n=73 v=79
87744 On ch=2 n=70 v=79
87821 On ch=2 n=70 v=0
87821 On ch=2 n=73 v=0
87888 On ch=2 n=70 v=79
87888 On ch=2 n=66 v=79
87926 On ch=2 n=66 v=0
87926 On ch=2 n=70 v=0
87936 On ch=2 n=75 v=79
87936 On ch=2 n=71 v=79
88013 On ch=2 n=71 v=0
88013 On ch=2 n=75 v=0
88032 On ch=2 n=76 v=79
88032 On ch=2 n=73 v=79
88109 On ch=2 n=73 v=0
88109 On ch=2 n=76 v=0
88224 On ch=2 n=66 v=79
88301 On ch=2 n=66 v=0
88320 On ch=2 n=47 v=31
88323 On ch=2 n=54 v=31
88326 On ch=2 n=63 v=31
88329 On ch=2 n=66 v=31
88332 On ch=2 n=75 v=31
88335 On ch=2 n=78 v=31
88397 On ch=2 n=47 v=0
88400 On ch=2 n=54 v=0
88403 On ch=2 n=63 v=0
88406 On ch=2 n=66 v=0
88409 On ch=2 n=75 v=0
88412 On ch=2 n=78 v=0
89856 On ch=2 n=78 v=47
89856 On ch=2 n=66 v=47
89933 On ch=2 n=66 v=0
89933 On ch=2 n=78 v=0
90240 On ch=2 n=78 v=47
90240 On ch=2 n=66 v=47
90317 On ch=2 n=66 v=0
90317 On ch=2 n=78 v=0
90624 On ch=2 n=54 v=47
90624 On ch=2 n=66 v=47
90701 On ch=2 n=66 v=0
90701 On ch=2 n=54 v=0
91392 On ch=2 n=47 v=47
91392 On ch=2 n=54 v=47
91469 On ch=2 n=54 v=0
91469 On ch=2 n=47 v=0
91776 On ch=2 n=47 v=47
91776 On ch=2 n=54 v=47
91853 On ch=2 n=54 v=0
91853 On ch=2 n=47 v=0
139008 On ch=2 n=47 v=47
139011 On ch=2 n=56 v=47
139014 On ch=2 n=59 v=47
139017 On ch=2 n=64 v=47
139020 On ch=2 n=71 v=47
139023 On ch=2 n=76 v=47
139026 On ch=2 n=80 v=47
139029 On ch=2 n=83 v=47
139085 On ch=2 n=47 v=0
139088 On ch=2 n=56 v=0
139091 On ch=2 n=59 v=0
139094 On ch=2 n=64 v=0
139097 On ch=2 n=71 v=0
139100 On ch=2 n=76 v=0
139103 On ch=2 n=80 v=0
139106 On ch=2 n=83 v=0
139776 On ch=2 n=45 v=31
139779 On ch=2 n=52 v=31
139782 On ch=2 n=61 v=31
139785 On ch=2 n=64 v=31
139788 On ch=2 n=69 v=31
139791 On ch=2 n=73 v=31
139853 On ch=2 n=45 v=0
139856 On ch=2 n=52 v=0
139859 On ch=2 n=61 v=0
139862 On ch=2 n=64 v=0
139865 On ch=2 n=69 v=0
139868 On ch=2 n=73 v=0
140064 On ch=2 n=40 v=31
140067 On ch=2 n=47 v=31
140070 On ch=2 n=52 v=31
140073 On ch=2 n=56 v=31
140076 On ch=2 n=59 v=31
140079 On ch=2 n=64 v=31
140082 On ch=2 n=68 v=31
140085 On ch=2 n=71 v=31
140141 On ch=2 n=40 v=0
140144 On ch=2 n=47 v=0
140147 On ch=2 n=52 v=0
140150 On ch=2 n=56 v=0
140153 On ch=2 n=59 v=0
140156 On ch=2 n=64 v=0
140159 On ch=2 n=68 v=0
140160 On ch=2 n=45 v=31
140162 On ch=2 n=71 v=0
140163 On ch=2 n=52 v=31
140166 On ch=2 n=57 v=31
140169 On ch=2 n=61 v=31
140172 On ch=2 n=64 v=31
140175 On ch=2 n=69 v=31
140178 On ch=2 n=73 v=31
140237 On ch=2 n=45 v=0
140240 On ch=2 n=52 v=0
140243 On ch=2 n=57 v=0
140246 On ch=2 n=61 v=0
140249 On ch=2 n=64 v=0
140252 On ch=2 n=69 v=0
140255 On ch=2 n=73 v=0
140448 On ch=2 n=40 v=31
140451 On ch=2 n=47 v=31
140454 On ch=2 n=52 v=31
140457 On ch=2 n=56 v=31
140460 On ch=2 n=59 v=31
140463 On ch=2 n=64 v=31
140466 On ch=2 n=68 v=31
140469 On ch=2 n=71 v=31
140525 On ch=2 n=40 v=0
140528 On ch=2 n=47 v=0
140531 On ch=2 n=52 v=0
140534 On ch=2 n=56 v=0
140537 On ch=2 n=59 v=0
140540 On ch=2 n=64 v=0
140543 On ch=2 n=68 v=0
140544 On ch=2 n=45 v=31
140546 On ch=2 n=71 v=0
140547 On ch=2 n=52 v=31
140550 On ch=2 n=57 v=31
140553 On ch=2 n=61 v=31
140556 On ch=2 n=64 v=31
140559 On ch=2 n=69 v=31
140562 On ch=2 n=73 v=31
140621 On ch=2 n=45 v=0
140624 On ch=2 n=52 v=0
140627 On ch=2 n=57 v=0
140630 On ch=2 n=61 v=0
140633 On ch=2 n=64 v=0
140636 On ch=2 n=69 v=0
140639 On ch=2 n=73 v=0
141360 On ch=2 n=63 v=63
141398 On ch=2 n=63 v=0
141408 On ch=2 n=64 v=63
141446 On ch=2 n=64 v=0
141456 On ch=2 n=68 v=63
141494 On ch=2 n=68 v=0
141504 On ch=2 n=69 v=63
141542 On ch=2 n=69 v=0
141552 On ch=2 n=71 v=63
141590 On ch=2 n=71 v=0
141600 On ch=2 n=73 v=63
141638 On ch=2 n=73 v=0
141648 On ch=2 n=76 v=63
141686 On ch=2 n=76 v=0
141696 Par ch=2 c=11 v=64
141696 On ch=2 n=81 v=63
141708 Par ch=2 c=11 v=63
141720 Par ch=2 c=11 v=62
141732 Par ch=2 c=11 v=61
141734 On ch=2 n=81 v=0
141744 Par ch=2 c=11 v=60
141744 On ch=2 n=73 v=63
141756 Par ch=2 c=11 v=59
141764 Par ch=2 c=11 v=58
141776 Par ch=2 c=11 v=57
141782 On ch=2 n=73 v=0
141788 Par ch=2 c=11 v=56
141792 On ch=2 n=76 v=63
141800 Par ch=2 c=11 v=55
141812 Par ch=2 c=11 v=54
141824 Par ch=2 c=11 v=53
141830 On ch=2 n=76 v=0
141832 Par ch=2 c=11 v=52
141840 On ch=2 n=81 v=63
141844 Par ch=2 c=11 v=51
141856 Par ch=2 c=11 v=50
141868 Par ch=2 c=11 v=49
141878 On ch=2 n=81 v=0
141880 Par ch=2 c=11 v=48
141888 Par ch=2 c=11 v=47
141888 On ch=2 n=85 v=63
141900 Par ch=2 c=11 v=46
141912 Par ch=2 c=11 v=45
141924 Par ch=2 c=11 v=44
141926 On ch=2 n=85 v=0
141936 Par ch=2 c=11 v=43
141936 On ch=2 n=76 v=63
141948 Par ch=2 c=11 v=42
141956 Par ch=2 c=11 v=41
141968 Par ch=2 c=11 v=40
141974 On ch=2 n=76 v=0
141980 Par ch=2 c=11 v=39
141984 On ch=2 n=81 v=63
141992 Par ch=2 c=11 v=38
142004 Par ch=2 c=11 v=37
142016 Par ch=2 c=11 v=36
142022 On ch=2 n=81 v=0
142024 Par ch=2 c=11 v=35
142032 On ch=2 n=85 v=63
142036 Par ch=2 c=11 v=34
142048 Par ch=2 c=11 v=33
142060 Par ch=2 c=11 v=32
142070 On ch=2 n=85 v=0
142080 On ch=2 n=88 v=63
142156 On ch=2 n=88 v=0
142464 Par ch=2 c=11 v=64
144000 On ch=2 n=35 v=63
144000 On ch=2 n=47 v=63
144077 On ch=2 n=47 v=0
144077 On ch=2 n=35 v=0
144384 On ch=2 n=47 v=63
144384 On ch=2 n=35 v=63
144461 On ch=2 n=35 v=0
144461 On ch=2 n=47 v=0
150528 On ch=2 n=36 v=47
150528 On ch=2 n=48 v=47
150605 On ch=2 n=48 v=0
150605 On ch=2 n=36 v=0
150624 On ch=2 n=47 v=47
150624 On ch=2 n=35 v=47
150701 On ch=2 n=35 v=0
150701 On ch=2 n=47 v=0
150720 On ch=2 n=46 v=47
150720 On ch=2 n=34 v=47
150797 On ch=2 n=34 v=0
150797 On ch=2 n=46 v=0
150816 On ch=2 n=33 v=47
150816 On ch=2 n=45 v=47
150837 On ch=2 n=45 v=0
150837 On ch=2 n=33 v=0
150848 On ch=2 n=44 v=47
150848 On ch=2 n=32 v=47
150869 On ch=2 n=32 v=0
150869 On ch=2 n=44 v=0
150880 On ch=2 n=43 v=47
150880 On ch=2 n=31 v=47
150901 On ch=2 n=31 v=0
150901 On ch=2 n=43 v=0
150912 On ch=2 n=48 v=47
150912 On ch=2 n=36 v=47
150989 On ch=2 n=36 v=0
150989 On ch=2 n=48 v=0
151008 On ch=2 n=35 v=47
151008 On ch=2 n=47 v=47
151085 On ch=2 n=47 v=0
151085 On ch=2 n=35 v=0
151104 On ch=2 n=34 v=47
151104 On ch=2 n=46 v=47
151181 On ch=2 n=46 v=0
151181 On ch=2 n=34 v=0
151200 On ch=2 n=45 v=47
151200 On ch=2 n=33 v=47
151221 On ch=2 n=33 v=0
151221 On ch=2 n=45 v=0
151232 On ch=2 n=32 v=47
151232 On ch=2 n=44 v=47
151253 On ch=2 n=44 v=0
151253 On ch=2 n=32 v=0
151264 On ch=2 n=31 v=47
151264 On ch=2 n=43 v=47
151285 On ch=2 n=43 v=0
151285 On ch=2 n=31 v=0
151296 On ch=2 n=48 v=47
151296 On ch=2 n=36 v=47
151373 On ch=2 n=36 v=0
151373 On ch=2 n=48 v=0
151392 On ch=2 n=35 v=47
151392 On ch=2 n=47 v=47
151469 On ch=2 n=47 v=0
151469 On ch=2 n=35 v=0
151488 On ch=2 n=34 v=47
151488 On ch=2 n=46 v=47
151565 On ch=2 n=46 v=0
151565 On ch=2 n=34 v=0
151584 On ch=2 n=45 v=47
151584 On ch=2 n=33 v=47
151605 On ch=2 n=33 v=0
151605 On ch=2 n=45 v=0
151616 On ch=2 n=32 v=47
151616 On ch=2 n=44 v=47
151637 On ch=2 n=44 v=0
151637 On ch=2 n=32 v=0
151648 On ch=2 n=31 v=47
151648 On ch=2 n=43 v=47
151669 On ch=2 n=43 v=0
151669 On ch=2 n=31 v=0
151680 On ch=2 n=48 v=47
151680 On ch=2 n=36 v=47
151757 On ch=2 n=36 v=0
151757 On ch=2 n=48 v=0
151776 On ch=2 n=35 v=47
151776 On ch=2 n=47 v=47
151853 On ch=2 n=47 v=0
151853 On ch=2 n=35 v=0
151872 On ch=2 n=34 v=47
151872 On ch=2 n=46 v=47
151949 On ch=2 n=46 v=0
151949 On ch=2 n=34 v=0
151968 On ch=2 n=45 v=47
151968 On ch=2 n=33 v=47
151989 On ch=2 n=33 v=0
151989 On ch=2 n=45 v=0
152000 On ch=2 n=32 v=47
152000 On ch=2 n=44 v=47
152021 On ch=2 n=44 v=0
152021 On ch=2 n=32 v=0
152032 On ch=2 n=31 v=47
152032 On ch=2 n=43 v=47
152053 On ch=2 n=43 v=0
152053 On ch=2 n=31 v=0
152064 On ch=2 n=48 v=47
152064 On ch=2 n=36 v=47
152141 On ch=2 n=36 v=0
152141 On ch=2 n=48 v=0
152160 On ch=2 n=35 v=47
152160 On ch=2 n=47 v=47
152237 On ch=2 n=47 v=0
152237 On ch=2 n=35 v=0
152256 On ch=2 n=34 v=47
152256 On ch=2 n=46 v=47
152333 On ch=2 n=46 v=0
152333 On ch=2 n=34 v=0
152352 On ch=2 n=45 v=47
152352 On ch=2 n=33 v=47
152373 On ch=2 n=33 v=0
152373 On ch=2 n=45 v=0
152384 On ch=2 n=32 v=47
152384 On ch=2 n=44 v=47
152405 On ch=2 n=44 v=0
152405 On ch=2 n=32 v=0
152416 On ch=2 n=31 v=47
152416 On ch=2 n=43 v=47
152437 On ch=2 n=43 v=0
152437 On ch=2 n=31 v=0
152448 On ch=2 n=48 v=47
152448 On ch=2 n=36 v=47
152525 On ch=2 n=36 v=0
152525 On ch=2 n=48 v=0
152544 On ch=2 n=35 v=47
152544 On ch=2 n=47 v=47
152621 On ch=2 n=47 v=0
152621 On ch=2 n=35 v=0
152640 On ch=2 n=34 v=47
152640 On ch=2 n=46 v=47
152717 On ch=2 n=46 v=0
152717 On ch=2 n=34 v=0
152736 On ch=2 n=45 v=47
152736 On ch=2 n=33 v=47
152757 On ch=2 n=33 v=0
152757 On ch=2 n=45 v=0
152768 On ch=2 n=32 v=47
152768 On ch=2 n=44 v=47
152789 On ch=2 n=44 v=0
152789 On ch=2 n=32 v=0
152800 On ch=2 n=31 v=47
152800 On ch=2 n=43 v=47
152821 On ch=2 n=43 v=0
152821 On ch=2 n=31 v=0
152832 On ch=2 n=48 v=47
152832 On ch=2 n=36 v=47
152909 On ch=2 n=36 v=0
152909 On ch=2 n=48 v=0
152928 On ch=2 n=35 v=47
152928 On ch=2 n=47 v=47
153005 On ch=2 n=47 v=0
153005 On ch=2 n=35 v=0
153024 On ch=2 n=34 v=47
153024 On ch=2 n=46 v=47
153101 On ch=2 n=46 v=0
153101 On ch=2 n=34 v=0
153120 On ch=2 n=45 v=47
153120 On ch=2 n=33 v=47
153141 On ch=2 n=33 v=0
153141 On ch=2 n=45 v=0
153152 On ch=2 n=32 v=47
153152 On ch=2 n=44 v=47
153173 On ch=2 n=44 v=0
153173 On ch=2 n=32 v=0
153184 On ch=2 n=31 v=47
153184 On ch=2 n=43 v=47
153205 On ch=2 n=43 v=0
153205 On ch=2 n=31 v=0
153216 On ch=2 n=48 v=47
153216 On ch=2 n=36 v=47
153293 On ch=2 n=36 v=0
153293 On ch=2 n=48 v=0
153312 On ch=2 n=35 v=47
153312 On ch=2 n=47 v=47
153389 On ch=2 n=47 v=0
153389 On ch=2 n=35 v=0
153408 On ch=2 n=34 v=47
153408 On ch=2 n=46 v=47
153485 On ch=2 n=46 v=0
153485 On ch=2 n=34 v=0
153504 On ch=2 n=45 v=47
153504 On ch=2 n=33 v=47
153525 On ch=2 n=33 v=0
153525 On ch=2 n=45 v=0
153536 On ch=2 n=32 v=47
153536 On ch=2 n=44 v=47
153557 On ch=2 n=44 v=0
153557 On ch=2 n=32 v=0
153568 On ch=2 n=31 v=47
153568 On ch=2 n=43 v=47
153589 On ch=2 n=43 v=0
153589 On ch=2 n=31 v=0
153600 On ch=2 n=48 v=47
153600 On ch=2 n=36 v=47
153677 On ch=2 n=36 v=0
153677 On ch=2 n=48 v=0
153696 On ch=2 n=35 v=47
153696 On ch=2 n=47 v=47
153773 On ch=2 n=47 v=0
153773 On ch=2 n=35 v=0
153792 On ch=2 n=34 v=47
153792 On ch=2 n=46 v=47
153869 On ch=2 n=46 v=0
153869 On ch=2 n=34 v=0
153888 On ch=2 n=45 v=47
153888 On ch=2 n=33 v=47
153909 On ch=2 n=33 v=0
153909 On ch=2 n=45 v=0
153920 On ch=2 n=32 v=47
153920 On ch=2 n=44 v=47
153941 On ch=2 n=44 v=0
153941 On ch=2 n=32 v=0
153952 On ch=2 n=31 v=47
153952 On ch=2 n=43 v=47
153973 On ch=2 n=43 v=0
153973 On ch=2 n=31 v=0
153984 On ch=2 n=48 v=47
153984 On ch=2 n=36 v=47
154022 On ch=2 n=36 v=0
154022 On ch=2 n=48 v=0
156672 On ch=2 n=48 v=47
156675 On ch=2 n=53 v=47
156678 On ch=2 n=56 v=47
156681 On ch=2 n=60 v=47
156684 On ch=2 n=65 v=47
156687 On ch=2 n=68 v=47
156690 On ch=2 n=72 v=47
156749 On ch=2 n=48 v=0
156752 On ch=2 n=53 v=0
156755 On ch=2 n=56 v=0
156758 On ch=2 n=60 v=0
156761 On ch=2 n=65 v=0
156764 On ch=2 n=68 v=0
156767 On ch=2 n=72 v=0
157056 On ch=2 n=48 v=47
157059 On ch=2 n=53 v=47
157062 On ch=2 n=56 v=47
157065 On ch=2 n=60 v=47
157068 On ch=2 n=65 v=47
157071 On ch=2 n=68 v=47
157074 On ch=2 n=72 v=47
157133 On ch=2 n=48 v=0
157136 On ch=2 n=53 v=0
157139 On ch=2 n=56 v=0
157142 On ch=2 n=60 v=0
157145 On ch=2 n=65 v=0
157148 On ch=2 n=68 v=0
157151 On ch=2 n=72 v=0
160512 On ch=2 n=75 v=111
160512 On ch=2 n=72 v=111
160512 On ch=2 n=67 v=111
160512 On ch=2 n=63 v=111
160512 On ch=2 n=60 v=111
160512 On ch=2 n=48 v=111
160515 On ch=2 n=55 v=111
160589 On ch=2 n=48 v=0
160589 On ch=2 n=63 v=0
160589 On ch=2 n=72 v=0
160589 On ch=2 n=67 v=0
160589 On ch=2 n=75 v=0
160589 On ch=2 n=60 v=0
160592 On ch=2 n=55 v=0
161280 On ch=2 n=72 v=63
161280 On ch=2 n=60 v=63
161280 On ch=2 n=48 v=63
161357 On ch=2 n=48 v=0
161357 On ch=2 n=60 v=0
161357 On ch=2 n=72 v=0
161664 On ch=2 n=79 v=47
161664 On ch=2 n=67 v=47
161741 On ch=2 n=67 v=0
161741 On ch=2 n=79 v=0
161856 On ch=2 n=75 v=47
161856 On ch=2 n=63 v=47
161933 On ch=2 n=63 v=0
161933 On ch=2 n=75 v=0
162048 On ch=2 n=72 v=47
162048 On ch=2 n=60 v=47
162125 On ch=2 n=60 v=0
162125 On ch=2 n=72 v=0
162240 On ch=2 n=67 v=47
162240 On ch=2 n=55 v=47
162317 On ch=2 n=55 v=0
162317 On ch=2 n=67 v=0
162432 On ch=2 n=63 v=31
162432 On ch=2 n=51 v=31
162509 On ch=2 n=51 v=0
162509 On ch=2 n=63 v=0
162528 On ch=2 n=60 v=31
162528 On ch=2 n=48 v=31
162605 On ch=2 n=48 v=0
162605 On ch=2 n=60 v=0
162816 On ch=2 n=63 v=31
162816 On ch=2 n=51 v=31
162893 On ch=2 n=51 v=0
162893 On ch=2 n=63 v=0
162912 On ch=2 n=60 v=31
162912 On ch=2 n=48 v=31
162989 On ch=2 n=48 v=0
162989 On ch=2 n=60 v=0
163200 On ch=2 n=48 v=31
163200 On ch=2 n=60 v=31
163277 On ch=2 n=60 v=0
163277 On ch=2 n=48 v=0
163584 On ch=2 n=48 v=31
163584 On ch=2 n=60 v=31
163661 On ch=2 n=60 v=0
163661 On ch=2 n=48 v=0
165120 On ch=2 n=48 v=47
165120 On ch=2 n=36 v=47
165197 On ch=2 n=36 v=0
165197 On ch=2 n=48 v=0
165504 On ch=2 n=48 v=47
165504 On ch=2 n=36 v=47
165581 On ch=2 n=36 v=0
165581 On ch=2 n=48 v=0
166272 On ch=2 n=79 v=47
166349 On ch=2 n=79 v=0
166656 On ch=2 n=79 v=47
166733 On ch=2 n=79 v=0
167040 On ch=2 n=79 v=47
167117 On ch=2 n=79 v=0
167424 On ch=2 n=79 v=47
167501 On ch=2 n=79 v=0
167808 On ch=2 n=79 v=47
167885 On ch=2 n=79 v=0
168192 On ch=2 n=79 v=47
168269 On ch=2 n=79 v=0
168269 Meta TrkEnd
TrkEnd
MTrk
0 Meta 0x21 01
0 Meta TrkName "2ND HARP"
192 Par ch=3 c=1 v=8
196 Par ch=3 c=7 v=127
200 Par ch=3 c=10 v=28
204 Par ch=3 c=11 v=64
208 Par ch=3 c=91 v=127
212 Par ch=3 c=93 v=64
216 Par ch=3 c=0 v=0
216 Par ch=3 c=32 v=0
216 PrCh ch=3 p=46
41856 On ch=3 n=31 v=63
41856 On ch=3 n=43 v=63
41933 On ch=3 n=43 v=0
41933 On ch=3 n=31 v=0
41952 On ch=3 n=41 v=63
41952 On ch=3 n=29 v=63
42029 On ch=3 n=29 v=0
42029 On ch=3 n=41 v=0
42048 On ch=3 n=39 v=63
42048 On ch=3 n=27 v=63
42125 On ch=3 n=27 v=0
42125 On ch=3 n=39 v=0
42144 On ch=3 n=38 v=63
42144 On ch=3 n=26 v=63
42221 On ch=3 n=26 v=0
42221 On ch=3 n=38 v=0
42240 On ch=3 n=31 v=63
42240 On ch=3 n=43 v=63
42317 On ch=3 n=43 v=0
42317 On ch=3 n=31 v=0
42336 On ch=3 n=29 v=63
42336 On ch=3 n=41 v=63
42413 On ch=3 n=41 v=0
42413 On ch=3 n=29 v=0
42432 On ch=3 n=27 v=63
42432 On ch=3 n=39 v=63
42509 On ch=3 n=39 v=0
42509 On ch=3 n=27 v=0
42528 On ch=3 n=26 v=63
42528 On ch=3 n=38 v=63
42605 On ch=3 n=38 v=0
42605 On ch=3 n=26 v=0
42624 Par ch=3 c=11 v=64
42624 On ch=3 n=31 v=63
42624 On ch=3 n=43 v=63
42648 Par ch=3 c=11 v=63
42672 Par ch=3 c=11 v=62
42692 Par ch=3 c=11 v=61
42701 On ch=3 n=43 v=0
42701 On ch=3 n=31 v=0
42716 Par ch=3 c=11 v=60
42720 On ch=3 n=29 v=63
42720 On ch=3 n=41 v=63
42740 Par ch=3 c=11 v=59
42760 Par ch=3 c=11 v=58
42784 Par ch=3 c=11 v=57
42797 On ch=3 n=41 v=0
42797 On ch=3 n=29 v=0
42808 Par ch=3 c=11 v=56
42816 On ch=3 n=27 v=63
42816 On ch=3 n=39 v=63
42828 Par ch=3 c=11 v=55
42852 Par ch=3 c=11 v=54
42876 Par ch=3 c=11 v=53
42893 On ch=3 n=39 v=0
42893 On ch=3 n=27 v=0
42896 Par ch=3 c=11 v=52
42912 On ch=3 n=26 v=63
42912 On ch=3 n=38 v=63
42920 Par ch=3 c=11 v=51
42944 Par ch=3 c=11 v=50
42964 Par ch=3 c=11 v=49
42988 Par ch=3 c=11 v=48
42989 On ch=3 n=38 v=0
42989 On ch=3 n=26 v=0
43008 Par ch=3 c=11 v=47
43008 On ch=3 n=31 v=63
43008 On ch=3 n=43 v=63
43032 Par ch=3 c=11 v=46
43056 Par ch=3 c=11 v=45
43076 Par ch=3 c=11 v=44
43085 On ch=3 n=43 v=0
43085 On ch=3 n=31 v=0
43100 Par ch=3 c=11 v=43
43104 On ch=3 n=29 v=63
43104 On ch=3 n=41 v=63
43124 Par ch=3 c=11 v=42
43144 Par ch=3 c=11 v=41
43168 Par ch=3 c=11 v=40
43181 On ch=3 n=41 v=0
43181 On ch=3 n=29 v=0
43192 Par ch=3 c=11 v=39
43200 On ch=3 n=27 v=63
43200 On ch=3 n=39 v=63
43212 Par ch=3 c=11 v=38
43236 Par ch=3 c=11 v=37
43260 Par ch=3 c=11 v=36
43277 On ch=3 n=39 v=0
43277 On ch=3 n=27 v=0
43280 Par ch=3 c=11 v=35
43296 On ch=3 n=26 v=63
43296 On ch=3 n=38 v=63
43304 Par ch=3 c=11 v=34
43328 Par ch=3 c=11 v=33
43348 Par ch=3 c=11 v=32
43373 On ch=3 n=38 v=0
43373 On ch=3 n=26 v=0
43392 On ch=3 n=31 v=63
43392 On ch=3 n=43 v=63
43469 On ch=3 n=43 v=0
43469 On ch=3 n=31 v=0
43488 On ch=3 n=29 v=63
43488 On ch=3 n=41 v=63
43565 On ch=3 n=41 v=0
43565 On ch=3 n=29 v=0
43584 On ch=3 n=27 v=63
43584 On ch=3 n=39 v=63
43661 On ch=3 n=39 v=0
43661 On ch=3 n=27 v=0
43680 On ch=3 n=26 v=63
43680 On ch=3 n=38 v=63
43757 On ch=3 n=38 v=0
43757 On ch=3 n=26 v=0
43776 On ch=3 n=31 v=63
43776 On ch=3 n=43 v=63
43853 On ch=3 n=43 v=0
43853 On ch=3 n=31 v=0
43872 On ch=3 n=29 v=63
43872 On ch=3 n=41 v=63
43949 On ch=3 n=41 v=0
43949 On ch=3 n=29 v=0
43968 On ch=3 n=27 v=63
43968 On ch=3 n=39 v=63
44045 On ch=3 n=39 v=0
44045 On ch=3 n=27 v=0
44064 On ch=3 n=26 v=63
44064 On ch=3 n=38 v=63
44141 On ch=3 n=38 v=0
44141 On ch=3 n=26 v=0
44160 Par ch=3 c=11 v=32
44160 On ch=3 n=31 v=63
44160 On ch=3 n=43 v=63
44208 Par ch=3 c=11 v=31
44237 On ch=3 n=43 v=0
44237 On ch=3 n=31 v=0
44252 Par ch=3 c=11 v=30
44256 On ch=3 n=38 v=63
44256 On ch=3 n=26 v=63
44296 Par ch=3 c=11 v=29
44333 On ch=3 n=26 v=0
44333 On ch=3 n=38 v=0
44344 Par ch=3 c=11 v=28
44352 On ch=3 n=43 v=63
44352 On ch=3 n=31 v=63
44388 Par ch=3 c=11 v=27
44429 On ch=3 n=31 v=0
44429 On ch=3 n=43 v=0
44432 Par ch=3 c=11 v=26
44448 On ch=3 n=26 v=63
44448 On ch=3 n=38 v=63
44480 Par ch=3 c=11 v=25
44524 Par ch=3 c=11 v=24
44525 On ch=3 n=38 v=0
44525 On ch=3 n=26 v=0
44544 On ch=3 n=31 v=63
44544 On ch=3 n=43 v=63
44568 Par ch=3 c=11 v=23
44612 Par ch=3 c=11 v=22
44621 On ch=3 n=43 v=0
44621 On ch=3 n=31 v=0
44640 On ch=3 n=38 v=63
44640 On ch=3 n=26 v=63
44660 Par ch=3 c=11 v=21
44704 Par ch=3 c=11 v=20
44717 On ch=3 n=26 v=0
44717 On ch=3 n=38 v=0
44736 On ch=3 n=43 v=63
44736 On ch=3 n=31 v=63
44748 Par ch=3 c=11 v=19
44796 Par ch=3 c=11 v=18
44813 On ch=3 n=31 v=0
44813 On ch=3 n=43 v=0
44832 On ch=3 n=26 v=63
44832 On ch=3 n=38 v=63
44840 Par ch=3 c=11 v=17
44884 Par ch=3 c=11 v=16
44909 On ch=3 n=38 v=0
44909 On ch=3 n=26 v=0
44928 On ch=3 n=31 v=63
44928 On ch=3 n=43 v=63
45005 On ch=3 n=43 v=0
45005 On ch=3 n=31 v=0
45312 Par ch=3 c=11 v=64
47232 On ch=3 n=41 v=31
47235 On ch=3 n=48 v=31
47238 On ch=3 n=53 v=31
47241 On ch=3 n=57 v=31
47244 On ch=3 n=60 v=31
47247 On ch=3 n=65 v=31
47250 On ch=3 n=72 v=31
47253 On ch=3 n=77 v=31
47256 On ch=3 n=81 v=31
47259 On ch=3 n=84 v=31
47309 On ch=3 n=41 v=0
47312 On ch=3 n=48 v=0
47315 On ch=3 n=53 v=0
47318 On ch=3 n=57 v=0
47321 On ch=3 n=60 v=0
47324 On ch=3 n=65 v=0
47327 On ch=3 n=72 v=0
47330 On ch=3 n=77 v=0
47333 On ch=3 n=81 v=0
47336 On ch=3 n=84 v=0
48768 On ch=3 n=40 v=31
48771 On ch=3 n=47 v=31
48774 On ch=3 n=52 v=31
48777 On ch=3 n=59 v=31
48780 On ch=3 n=64 v=31
48783 On ch=3 n=71 v=31
48786 On ch=3 n=76 v=31
48789 On ch=3 n=83 v=31
48792 On ch=3 n=88 v=31
48845 On ch=3 n=40 v=0
48848 On ch=3 n=47 v=0
48851 On ch=3 n=52 v=0
48854 On ch=3 n=59 v=0
48857 On ch=3 n=64 v=0
48860 On ch=3 n=71 v=0
48863 On ch=3 n=76 v=0
48866 On ch=3 n=83 v=0
48869 On ch=3 n=88 v=0
79872 On ch=3 n=72 v=31
79875 On ch=3 n=77 v=31
79878 On ch=3 n=81 v=31
79881 On ch=3 n=84 v=31
79910 On ch=3 n=72 v=0
79913 On ch=3 n=77 v=0
79916 On ch=3 n=81 v=0
79919 On ch=3 n=84 v=0
80256 On ch=3 n=72 v=31
80259 On ch=3 n=77 v=31
80262 On ch=3 n=81 v=31
80265 On ch=3 n=84 v=31
80294 On ch=3 n=72 v=0
80297 On ch=3 n=77 v=0
80300 On ch=3 n=81 v=0
80303 On ch=3 n=84 v=0
80640 On ch=3 n=72 v=31
80643 On ch=3 n=77 v=31
80646 On ch=3 n=81 v=31
80649 On ch=3 n=84 v=31
80678 On ch=3 n=72 v=0
80681 On ch=3 n=77 v=0
80684 On ch=3 n=81 v=0
80687 On ch=3 n=84 v=0
85632 On ch=3 n=47 v=31
85709 On ch=3 n=47 v=0
85728 On ch=3 n=51 v=31
85805 On ch=3 n=51 v=0
85824 On ch=3 n=54 v=31
85901 On ch=3 n=54 v=0
85920 On ch=3 n=55 v=31
85997 On ch=3 n=55 v=0
86016 On ch=3 n=56 v=31
86093 On ch=3 n=56 v=0
86112 On ch=3 n=59 v=31
86189 On ch=3 n=59 v=0
86208 On ch=3 n=64 v=31
86285 On ch=3 n=64 v=0
86304 On ch=3 n=65 v=31
86381 On ch=3 n=65 v=0
86400 On ch=3 n=66 v=31
86477 On ch=3 n=66 v=0
86688 On ch=3 n=66 v=79
86765 On ch=3 n=66 v=0
86784 On ch=3 n=71 v=79
86784 On ch=3 n=66 v=79
86784 On ch=3 n=59 v=79
86784 On ch=3 n=54 v=79
86784 On ch=3 n=47 v=79
86861 On ch=3 n=47 v=0
86861 On ch=3 n=59 v=0
86861 On ch=3 n=71 v=0
86861 On ch=3 n=66 v=0
86861 On ch=3 n=54 v=0
86976 On ch=3 n=61 v=79
87053 On ch=3 n=61 v=0
87072 On ch=3 n=63 v=79
87110 On ch=3 n=63 v=0
87120 On ch=3 n=64 v=79
87158 On ch=3 n=64 v=0
87168 On ch=3 n=63 v=79
87245 On ch=3 n=63 v=0
87264 On ch=3 n=61 v=79
87302 On ch=3 n=61 v=0
87312 On ch=3 n=59 v=79
87350 On ch=3 n=59 v=0
87360 On ch=3 n=58 v=79
87437 On ch=3 n=58 v=0
87456 On ch=3 n=56 v=79
87494 On ch=3 n=56 v=0
87504 On ch=3 n=54 v=79
87542 On ch=3 n=54 v=0
87552 On ch=3 n=63 v=79
87552 On ch=3 n=59 v=79
87629 On ch=3 n=59 v=0
87629 On ch=3 n=63 v=0
87744 On ch=3 n=64 v=79
87744 On ch=3 n=61 v=79
87821 On ch=3 n=61 v=0
87821 On ch=3 n=64 v=0
87840 On ch=3 n=66 v=79
87840 On ch=3 n=63 v=79
87878 On ch=3 n=63 v=0
87878 On ch=3 n=66 v=0
87888 On ch=3 n=68 v=79
87888 On ch=3 n=64 v=79
87926 On ch=3 n=64 v=0
87926 On ch=3 n=68 v=0
87936 On ch=3 n=63 v=79
87936 On ch=3 n=66 v=79
88013 On ch=3 n=66 v=0
88013 On ch=3 n=63 v=0
88032 On ch=3 n=61 v=79
88032 On ch=3 n=64 v=79
88070 On ch=3 n=64 v=0
88070 On ch=3 n=61 v=0
88080 On ch=3 n=59 v=79
88080 On ch=3 n=63 v=79
88118 On ch=3 n=63 v=0
88118 On ch=3 n=59 v=0
88128 On ch=3 n=58 v=79
88128 On ch=3 n=61 v=79
88205 On ch=3 n=61 v=0
88205 On ch=3 n=58 v=0
88224 On ch=3 n=59 v=79
88224 On ch=3 n=56 v=79
88262 On ch=3 n=56 v=0
88262 On ch=3 n=59 v=0
88272 On ch=3 n=58 v=79
88272 On ch=3 n=54 v=79
88310 On ch=3 n=54 v=0
88310 On ch=3 n=58 v=0
88320 On ch=3 n=47 v=31
88323 On ch=3 n=54 v=31
88326 On ch=3 n=63 v=31
88329 On ch=3 n=66 v=31
88397 On ch=3 n=47 v=0
88400 On ch=3 n=54 v=0
88403 On ch=3 n=63 v=0
88406 On ch=3 n=66 v=0
89088 On ch=3 n=78 v=31
89088 On ch=3 n=66 v=31
89165 On ch=3 n=66 v=0
89165 On ch=3 n=78 v=0
140592 On ch=3 n=52 v=63
140630 On ch=3 n=52 v=0
140640 On ch=3 n=57 v=63
140678 On ch=3 n=57 v=0
140688 On ch=3 n=59 v=63
140726 On ch=3 n=59 v=0
140736 On ch=3 n=61 v=63
140774 On ch=3 n=61 v=0
140784 On ch=3 n=64 v=63
140822 On ch=3 n=64 v=0
140832 On ch=3 n=69 v=63
140870 On ch=3 n=69 v=0
140880 On ch=3 n=71 v=63
140918 On ch=3 n=71 v=0
140928 On ch=3 n=73 v=63
140966 On ch=3 n=73 v=0
140976 On ch=3 n=64 v=63
141014 On ch=3 n=64 v=0
141024 On ch=3 n=69 v=63
141062 On ch=3 n=69 v=0
141072 On ch=3 n=71 v=63
141110 On ch=3 n=71 v=0
141120 Par ch=3 c=11 v=64
141120 On ch=3 n=73 v=63
141132 Par ch=3 c=11 v=63
141144 Par ch=3 c=11 v=62
141156 Par ch=3 c=11 v=61
141158 On ch=3 n=73 v=0
141168 Par ch=3 c=11 v=60
141168 On ch=3 n=76 v=63
141180 Par ch=3 c=11 v=59
141188 Par ch=3 c=11 v=58
141200 Par ch=3 c=11 v=57
141206 On ch=3 n=76 v=0
141212 Par ch=3 c=11 v=56
141216 On ch=3 n=81 v=63
141224 Par ch=3 c=11 v=55
141236 Par ch=3 c=11 v=54
141248 Par ch=3 c=11 v=53
141254 On ch=3 n=81 v=0
141256 Par ch=3 c=11 v=52
141264 On ch=3 n=83 v=63
141268 Par ch=3 c=11 v=51
141280 Par ch=3 c=11 v=50
141292 Par ch=3 c=11 v=49
141302 On ch=3 n=83 v=0
141304 Par ch=3 c=11 v=48
141312 On ch=3 n=45 v=63
141315 On ch=3 n=52 v=63
141318 On ch=3 n=57 v=63
141321 On ch=3 n=73 v=63
141324 On ch=3 n=76 v=63
141327 On ch=3 n=81 v=63
141330 On ch=3 n=85 v=63
141389 On ch=3 n=45 v=0
141392 On ch=3 n=52 v=0
141395 On ch=3 n=57 v=0
141398 On ch=3 n=73 v=0
141401 On ch=3 n=76 v=0
141404 On ch=3 n=81 v=0
141407 On ch=3 n=85 v=0
141696 Par ch=3 c=11 v=64
142080 On ch=3 n=40 v=31
142083 On ch=3 n=47 v=31
142086 On ch=3 n=52 v=31
142089 On ch=3 n=76 v=31
142092 On ch=3 n=83 v=31
142095 On ch=3 n=88 v=31
142157 On ch=3 n=40 v=0
142160 On ch=3 n=47 v=0
142163 On ch=3 n=52 v=0
142166 On ch=3 n=76 v=0
142169 On ch=3 n=83 v=0
142172 On ch=3 n=88 v=0
144000 On ch=3 n=35 v=63
144000 On ch=3 n=47 v=63
144077 On ch=3 n=47 v=0
144077 On ch=3 n=35 v=0
144384 On ch=3 n=47 v=63
144384 On ch=3 n=35 v=63
144461 On ch=3 n=35 v=0
144461 On ch=3 n=47 v=0
150528 On ch=3 n=48 v=47
150528 On ch=3 n=36 v=47
150605 On ch=3 n=36 v=0
150605 On ch=3 n=48 v=0
150624 On ch=3 n=35 v=47
150624 On ch=3 n=47 v=47
150701 On ch=3 n=47 v=0
150701 On ch=3 n=35 v=0
150720 On ch=3 n=34 v=47
150720 On ch=3 n=46 v=47
150797 On ch=3 n=46 v=0
150797 On ch=3 n=34 v=0
150816 On ch=3 n=45 v=47
150816 On ch=3 n=33 v=47
150837 On ch=3 n=33 v=0
150837 On ch=3 n=45 v=0
150848 On ch=3 n=32 v=47
150848 On ch=3 n=44 v=47
150869 On ch=3 n=44 v=0
150869 On ch=3 n=32 v=0
150880 On ch=3 n=31 v=47
150880 On ch=3 n=43 v=47
150901 On ch=3 n=43 v=0
150901 On ch=3 n=31 v=0
150912 On ch=3 n=36 v=47
150912 On ch=3 n=48 v=47
150989 On ch=3 n=48 v=0
150989 On ch=3 n=36 v=0
151008 On ch=3 n=47 v=47
151008 On ch=3 n=35 v=47
151085 On ch=3 n=35 v=0
151085 On ch=3 n=47 v=0
151104 On ch=3 n=46 v=47
151104 On ch=3 n=34 v=47
151181 On ch=3 n=34 v=0
151181 On ch=3 n=46 v=0
151200 On ch=3 n=33 v=47
151200 On ch=3 n=45 v=47
151221 On ch=3 n=45 v=0
151221 On ch=3 n=33 v=0
151232 On ch=3 n=44 v=47
151232 On ch=3 n=32 v=47
151253 On ch=3 n=32 v=0
151253 On ch=3 n=44 v=0
151264 On ch=3 n=43 v=47
151264 On ch=3 n=31 v=47
151285 On ch=3 n=31 v=0
151285 On ch=3 n=43 v=0
151296 On ch=3 n=36 v=47
151296 On ch=3 n=48 v=47
151373 On ch=3 n=48 v=0
151373 On ch=3 n=36 v=0
151392 On ch=3 n=47 v=47
151392 On ch=3 n=35 v=47
151469 On ch=3 n=35 v=0
151469 On ch=3 n=47 v=0
151488 On ch=3 n=46 v=47
151488 On ch=3 n=34 v=47
151565 On ch=3 n=34 v=0
151565 On ch=3 n=46 v=0
151584 On ch=3 n=33 v=47
151584 On ch=3 n=45 v=47
151605 On ch=3 n=45 v=0
151605 On ch=3 n=33 v=0
151616 On ch=3 n=44 v=47
151616 On ch=3 n=32 v=47
151637 On ch=3 n=32 v=0
151637 On ch=3 n=44 v=0
151648 On ch=3 n=43 v=47
151648 On ch=3 n=31 v=47
151669 On ch=3 n=31 v=0
151669 On ch=3 n=43 v=0
151680 On ch=3 n=36 v=47
151680 On ch=3 n=48 v=47
151757 On ch=3 n=48 v=0
151757 On ch=3 n=36 v=0
151776 On ch=3 n=47 v=47
151776 On ch=3 n=35 v=47
151853 On ch=3 n=35 v=0
151853 On ch=3 n=47 v=0
151872 On ch=3 n=46 v=47
151872 On ch=3 n=34 v=47
151949 On ch=3 n=34 v=0
151949 On ch=3 n=46 v=0
151968 On ch=3 n=33 v=47
151968 On ch=3 n=45 v=47
151989 On ch=3 n=45 v=0
151989 On ch=3 n=33 v=0
152000 On ch=3 n=44 v=47
152000 On ch=3 n=32 v=47
152021 On ch=3 n=32 v=0
152021 On ch=3 n=44 v=0
152032 On ch=3 n=43 v=47
152032 On ch=3 n=31 v=47
152053 On ch=3 n=31 v=0
152053 On ch=3 n=43 v=0
152064 On ch=3 n=36 v=47
152064 On ch=3 n=48 v=47
152141 On ch=3 n=48 v=0
152141 On ch=3 n=36 v=0
152160 On ch=3 n=47 v=47
152160 On ch=3 n=35 v=47
152237 On ch=3 n=35 v=0
152237 On ch=3 n=47 v=0
152256 On ch=3 n=46 v=47
152256 On ch=3 n=34 v=47
152333 On ch=3 n=34 v=0
152333 On ch=3 n=46 v=0
152352 On ch=3 n=33 v=47
152352 On ch=3 n=45 v=47
152373 On ch=3 n=45 v=0
152373 On ch=3 n=33 v=0
152384 On ch=3 n=44 v=47
152384 On ch=3 n=32 v=47
152405 On ch=3 n=32 v=0
152405 On ch=3 n=44 v=0
152416 On ch=3 n=43 v=47
152416 On ch=3 n=31 v=47
152437 On ch=3 n=31 v=0
152437 On ch=3 n=43 v=0
152448 On ch=3 n=36 v=47
152448 On ch=3 n=48 v=47
152525 On ch=3 n=48 v=0
152525 On ch=3 n=36 v=0
152544 On ch=3 n=47 v=47
152544 On ch=3 n=35 v=47
152621 On ch=3 n=35 v=0
152621 On ch=3 n=47 v=0
152640 On ch=3 n=46 v=47
152640 On ch=3 n=34 v=47
152717 On ch=3 n=34 v=0
152717 On ch=3 n=46 v=0
152736 On ch=3 n=33 v=47
152736 On ch=3 n=45 v=47
152757 On ch=3 n=45 v=0
152757 On ch=3 n=33 v=0
152768 On ch=3 n=44 v=47
152768 On ch=3 n=32 v=47
152789 On ch=3 n=32 v=0
152789 On ch=3 n=44 v=0
152800 On ch=3 n=43 v=47
152800 On ch=3 n=31 v=47
152821 On ch=3 n=31 v=0
152821 On ch=3 n=43 v=0
152832 On ch=3 n=36 v=47
152832 On ch=3 n=48 v=47
152909 On ch=3 n=48 v=0
152909 On ch=3 n=36 v=0
152928 On ch=3 n=47 v=47
152928 On ch=3 n=35 v=47
153005 On ch=3 n=35 v=0
153005 On ch=3 n=47 v=0
153024 On ch=3 n=46 v=47
153024 On ch=3 n=34 v=47
153101 On ch=3 n=34 v=0
153101 On ch=3 n=46 v=0
153120 On ch=3 n=33 v=47
153120 On ch=3 n=45 v=47
153141 On ch=3 n=45 v=0
153141 On ch=3 n=33 v=0
153152 On ch=3 n=44 v=47
153152 On ch=3 n=32 v=47
153173 On ch=3 n=32 v=0
153173 On ch=3 n=44 v=0
153184 On ch=3 n=43 v=47
153184 On ch=3 n=31 v=47
153205 On ch=3 n=31 v=0
153205 On ch=3 n=43 v=0
153216 On ch=3 n=36 v=47
153216 On ch=3 n=48 v=47
153293 On ch=3 n=48 v=0
153293 On ch=3 n=36 v=0
153312 On ch=3 n=47 v=47
153312 On ch=3 n=35 v=47
153389 On ch=3 n=35 v=0
153389 On ch=3 n=47 v=0
153408 On ch=3 n=46 v=47
153408 On ch=3 n=34 v=47
153485 On ch=3 n=34 v=0
153485 On ch=3 n=46 v=0
153504 On ch=3 n=33 v=47
153504 On ch=3 n=45 v=47
153525 On ch=3 n=45 v=0
153525 On ch=3 n=33 v=0
153536 On ch=3 n=44 v=47
153536 On ch=3 n=32 v=47
153557 On ch=3 n=32 v=0
153557 On ch=3 n=44 v=0
153568 On ch=3 n=43 v=47
153568 On ch=3 n=31 v=47
153589 On ch=3 n=31 v=0
153589 On ch=3 n=43 v=0
153600 On ch=3 n=36 v=47
153600 On ch=3 n=48 v=47
153677 On ch=3 n=48 v=0
153677 On ch=3 n=36 v=0
153696 On ch=3 n=47 v=47
153696 On ch=3 n=35 v=47
153773 On ch=3 n=35 v=0
153773 On ch=3 n=47 v=0
153792 On ch=3 n=46 v=47
153792 On ch=3 n=34 v=47
153869 On ch=3 n=34 v=0
153869 On ch=3 n=46 v=0
153888 On ch=3 n=33 v=47
153888 On ch=3 n=45 v=47
153909 On ch=3 n=45 v=0
153909 On ch=3 n=33 v=0
153920 On ch=3 n=44 v=47
153920 On ch=3 n=32 v=47
153941 On ch=3 n=32 v=0
153941 On ch=3 n=44 v=0
153952 On ch=3 n=43 v=47
153952 On ch=3 n=31 v=47
153973 On ch=3 n=31 v=0
153973 On ch=3 n=43 v=0
153984 On ch=3 n=36 v=47
153984 On ch=3 n=48 v=47
154022 On ch=3 n=48 v=0
154022 On ch=3 n=36 v=0
156672 On ch=3 n=48 v=47
156675 On ch=3 n=53 v=47
156678 On ch=3 n=56 v=47
156681 On ch=3 n=60 v=47
156684 On ch=3 n=65 v=47
156687 On ch=3 n=68 v=47
156690 On ch=3 n=72 v=47
156749 On ch=3 n=48 v=0
156752 On ch=3 n=53 v=0
156755 On ch=3 n=56 v=0
156758 On ch=3 n=60 v=0
156761 On ch=3 n=65 v=0
156764 On ch=3 n=68 v=0
156767 On ch=3 n=72 v=0
157056 On ch=3 n=48 v=47
157059 On ch=3 n=53 v=47
157062 On ch=3 n=56 v=47
157065 On ch=3 n=60 v=47
157068 On ch=3 n=65 v=47
157071 On ch=3 n=68 v=47
157074 On ch=3 n=72 v=47
157133 On ch=3 n=48 v=0
157136 On ch=3 n=53 v=0
157139 On ch=3 n=56 v=0
157142 On ch=3 n=60 v=0
157145 On ch=3 n=65 v=0
157148 On ch=3 n=68 v=0
157151 On ch=3 n=72 v=0
160512 On ch=3 n=75 v=111
160512 On ch=3 n=72 v=111
160512 On ch=3 n=67 v=111
160512 On ch=3 n=63 v=111
160512 On ch=3 n=60 v=111
160512 On ch=3 n=55 v=111
160512 On ch=3 n=48 v=111
160589 On ch=3 n=48 v=0
160589 On ch=3 n=60 v=0
160589 On ch=3 n=72 v=0
160589 On ch=3 n=67 v=0
160589 On ch=3 n=75 v=0
160589 On ch=3 n=55 v=0
160589 On ch=3 n=63 v=0
161280 On ch=3 n=48 v=63
161280 On ch=3 n=60 v=63
161280 On ch=3 n=72 v=63
161357 On ch=3 n=72 v=0
161357 On ch=3 n=60 v=0
161357 On ch=3 n=48 v=0
161664 On ch=3 n=67 v=47
161664 On ch=3 n=79 v=47
161741 On ch=3 n=79 v=0
161741 On ch=3 n=67 v=0
161856 On ch=3 n=63 v=47
161856 On ch=3 n=75 v=47
161933 On ch=3 n=75 v=0
161933 On ch=3 n=63 v=0
162048 On ch=3 n=60 v=47
162048 On ch=3 n=72 v=47
162125 On ch=3 n=72 v=0
162125 On ch=3 n=60 v=0
162240 On ch=3 n=55 v=47
162240 On ch=3 n=67 v=47
162317 On ch=3 n=67 v=0
162317 On ch=3 n=55 v=0
162432 On ch=3 n=51 v=31
162432 On ch=3 n=63 v=31
162509 On ch=3 n=63 v=0
162509 On ch=3 n=51 v=0
162528 On ch=3 n=48 v=31
162528 On ch=3 n=60 v=31
162605 On ch=3 n=60 v=0
162605 On ch=3 n=48 v=0
162816 On ch=3 n=51 v=31
162816 On ch=3 n=63 v=31
162893 On ch=3 n=63 v=0
162893 On ch=3 n=51 v=0
162912 On ch=3 n=48 v=31
162912 On ch=3 n=60 v=31
162989 On ch=3 n=60 v=0
162989 On ch=3 n=48 v=0
163200 On ch=3 n=60 v=31
163200 On ch=3 n=48 v=31
163277 On ch=3 n=48 v=0
163277 On ch=3 n=60 v=0
163584 On ch=3 n=60 v=31
163584 On ch=3 n=48 v=31
163661 On ch=3 n=48 v=0
163661 On ch=3 n=60 v=0
165120 On ch=3 n=48 v=47
165120 On ch=3 n=36 v=47
165197 On ch=3 n=36 v=0
165197 On ch=3 n=48 v=0
165504 On ch=3 n=48 v=47
165504 On ch=3 n=36 v=47
165581 On ch=3 n=36 v=0
165581 On ch=3 n=48 v=0
166272 On ch=3 n=48 v=47
166272 On ch=3 n=36 v=47
166349 On ch=3 n=36 v=0
166349 On ch=3 n=48 v=0
166656 On ch=3 n=48 v=47
166656 On ch=3 n=36 v=47
166733 On ch=3 n=36 v=0
166733 On ch=3 n=48 v=0
167040 On ch=3 n=48 v=47
167040 On ch=3 n=36 v=47
167117 On ch=3 n=36 v=0
167117 On ch=3 n=48 v=0
167424 On ch=3 n=48 v=47
167424 On ch=3 n=36 v=47
167501 On ch=3 n=36 v=0
167501 On ch=3 n=48 v=0
167808 On ch=3 n=48 v=47
167808 On ch=3 n=36 v=47
167885 On ch=3 n=36 v=0
167885 On ch=3 n=48 v=0
168192 On ch=3 n=48 v=47
168192 On ch=3 n=36 v=47
168269 On ch=3 n=36 v=0
168269 On ch=3 n=48 v=0
168269 Meta TrkEnd
TrkEnd
MTrk
0 Meta 0x21 01
0 Meta TrkName "1ST TIMPANI"
192 Par ch=4 c=1 v=8
196 Par ch=4 c=7 v=127
200 Par ch=4 c=10 v=46
204 Par ch=4 c=11 v=64
208 Par ch=4 c=91 v=127
212 Par ch=4 c=93 v=64
216 Par ch=4 c=0 v=0
216 Par ch=4 c=32 v=0
216 PrCh ch=4 p=47
14976 Par ch=4 c=11 v=64
14976 On ch=4 n=43 v=47
14984 On ch=4 n=43 v=0
14984 On ch=4 n=43 v=47
14992 On ch=4 n=43 v=0
14992 Par ch=4 c=11 v=65
14992 On ch=4 n=43 v=47
15000 On ch=4 n=43 v=0
15000 On ch=4 n=43 v=47
15004 Par ch=4 c=11 v=66
15008 On ch=4 n=43 v=0
15008 On ch=4 n=43 v=47
15016 On ch=4 n=43 v=0
15016 Par ch=4 c=11 v=67
15016 On ch=4 n=43 v=47
15024 On ch=4 n=43 v=0
15024 On ch=4 n=43 v=47
15028 Par ch=4 c=11 v=68
15032 On ch=4 n=43 v=0
15032 On ch=4 n=43 v=47
15040 On ch=4 n=43 v=0
15040 Par ch=4 c=11 v=69
15040 On ch=4 n=43 v=47
15048 On ch=4 n=43 v=0
15048 On ch=4 n=43 v=47
15052 Par ch=4 c=11 v=70
15056 On ch=4 n=43 v=0
15056 On ch=4 n=43 v=47
15064 On ch=4 n=43 v=0
15064 Par ch=4 c=11 v=71
15064 On ch=4 n=43 v=47
15072 On ch=4 n=43 v=0
15072 On ch=4 n=43 v=47
15076 Par ch=4 c=11 v=72
15080 On ch=4 n=43 v=0
15080 On ch=4 n=43 v=47
15088 On ch=4 n=43 v=0
15088 Par ch=4 c=11 v=73
15088 On ch=4 n=43 v=47
15096 On ch=4 n=43 v=0
15096 On ch=4 n=43 v=47
15100 Par ch=4 c=11 v=74
15104 On ch=4 n=43 v=0
15104 On ch=4 n=43 v=47
15112 On ch=4 n=43 v=0
15112 Par ch=4 c=11 v=75
15112 On ch=4 n=43 v=47
15120 On ch=4 n=43 v=0
15120 On ch=4 n=43 v=47
15124 Par ch=4 c=11 v=76
15128 On ch=4 n=43 v=0
15128 On ch=4 n=43 v=47
15136 On ch=4 n=43 v=0
15136 Par ch=4 c=11 v=77
15136 On ch=4 n=43 v=47
15144 On ch=4 n=43 v=0
15144 On ch=4 n=43 v=47
15148 Par ch=4 c=11 v=78
15152 On ch=4 n=43 v=0
15152 On ch=4 n=43 v=47
15160 On ch=4 n=43 v=0
15160 Par ch=4 c=11 v=79
15160 On ch=4 n=43 v=47
15168 On ch=4 n=43 v=0
15168 On ch=4 n=43 v=47
15172 Par ch=4 c=11 v=80
15176 On ch=4 n=43 v=0
15176 On ch=4 n=43 v=47
15184 On ch=4 n=43 v=0
15184 Par ch=4 c=11 v=81
15184 On ch=4 n=43 v=47
15192 On ch=4 n=43 v=0
15192 On ch=4 n=43 v=47
15196 Par ch=4 c=11 v=82
15200 On ch=4 n=43 v=0
15200 On ch=4 n=43 v=47
15208 On ch=4 n=43 v=0
15208 Par ch=4 c=11 v=83
15208 On ch=4 n=43 v=47
15216 On ch=4 n=43 v=0
15216 On ch=4 n=43 v=47
15220 Par ch=4 c=11 v=84
15224 On ch=4 n=43 v=0
15224 On ch=4 n=43 v=47
15232 On ch=4 n=43 v=0
15232 Par ch=4 c=11 v=85
15232 On ch=4 n=43 v=47
15240 On ch=4 n=43 v=0
15240 On ch=4 n=43 v=47
15248 On ch=4 n=43 v=0
15248 Par ch=4 c=11 v=86
15248 On ch=4 n=43 v=47
15256 On ch=4 n=43 v=0
15256 On ch=4 n=43 v=47
15260 Par ch=4 c=11 v=87
15264 On ch=4 n=43 v=0
15264 On ch=4 n=43 v=47
15272 On ch=4 n=43 v=0
15272 Par ch=4 c=11 v=88
15272 On ch=4 n=43 v=47
15280 On ch=4 n=43 v=0
15280 On ch=4 n=43 v=47
15284 Par ch=4 c=11 v=89
15288 On ch=4 n=43 v=0
15288 On ch=4 n=43 v=47
15296 On ch=4 n=43 v=0
15296 Par ch=4 c=11 v=90
15296 On ch=4 n=43 v=47
15304 On ch=4 n=43 v=0
15304 On ch=4 n=43 v=47
15308 Par ch=4 c=11 v=91
15312 On ch=4 n=43 v=0
15312 On ch=4 n=43 v=47
15320 On ch=4 n=43 v=0
15320 Par ch=4 c=11 v=92
15320 On ch=4 n=43 v=47
15328 On ch=4 n=43 v=0
15328 On ch=4 n=43 v=47
15332 Par ch=4 c=11 v=93
15336 On ch=4 n=43 v=0
15336 On ch=4 n=43 v=47
15344 On ch=4 n=43 v=0
15344 Par ch=4 c=11 v=94
15344 On ch=4 n=43 v=47
15352 On ch=4 n=43 v=0
15352 On ch=4 n=43 v=47
15356 Par ch=4 c=11 v=95
15360 On ch=4 n=43 v=0
15360 On ch=4 n=43 v=47
15368 On ch=4 n=43 v=0
15368 Par ch=4 c=11 v=96
15368 On ch=4 n=43 v=47
15376 On ch=4 n=43 v=0
15376 On ch=4 n=43 v=47
15380 Par ch=4 c=11 v=97
15384 On ch=4 n=43 v=0
15384 On ch=4 n=43 v=47
15392 On ch=4 n=43 v=0
15392 Par ch=4 c=11 v=98
15392 On ch=4 n=43 v=47
15400 On ch=4 n=43 v=0
15400 On ch=4 n=43 v=47
15404 Par ch=4 c=11 v=99
15408 On ch=4 n=43 v=0
15408 On ch=4 n=43 v=47
15416 On ch=4 n=43 v=0
15416 Par ch=4 c=11 v=100
15416 On ch=4 n=43 v=47
15424 On ch=4 n=43 v=0
15424 On ch=4 n=43 v=47
15428 Par ch=4 c=11 v=101
15432 On ch=4 n=43 v=0
15432 On ch=4 n=43 v=47
15440 On ch=4 n=43 v=0
15440 Par ch=4 c=11 v=102
15440 On ch=4 n=43 v=47
15448 On ch=4 n=43 v=0
15448 On ch=4 n=43 v=47
15452 Par ch=4 c=11 v=103
15456 On ch=4 n=43 v=0
15456 On ch=4 n=43 v=47
15464 On ch=4 n=43 v=0
15464 Par ch=4 c=11 v=104
15464 On ch=4 n=43 v=47
15472 On ch=4 n=43 v=0
15472 On ch=4 n=43 v=47
15476 Par ch=4 c=11 v=105
15480 On ch=4 n=43 v=0
15480 On ch=4 n=43 v=47
15488 On ch=4 n=43 v=0
15488 Par ch=4 c=11 v=106
15488 On ch=4 n=43 v=47
15496 On ch=4 n=43 v=0
15496 On ch=4 n=43 v=47
15504 On ch=4 n=43 v=0
15504 Par ch=4 c=11 v=107
15504 On ch=4 n=43 v=47
15512 On ch=4 n=43 v=0
15512 On ch=4 n=43 v=47
15516 Par ch=4 c=11 v=108
15520 On ch=4 n=43 v=0
15520 On ch=4 n=43 v=47
15528 On ch=4 n=43 v=0
15528 Par ch=4 c=11 v=109
15528 On ch=4 n=43 v=47
15536 On ch=4 n=43 v=0
15536 On ch=4 n=43 v=47
15540 Par ch=4 c=11 v=110
15544 On ch=4 n=43 v=0
15544 On ch=4 n=43 v=47
15552 On ch=4 n=43 v=0
15552 Par ch=4 c=11 v=111
15552 On ch=4 n=43 v=47
15560 On ch=4 n=43 v=0
15560 On ch=4 n=43 v=47
15564 Par ch=4 c=11 v=112
15568 On ch=4 n=43 v=0
15568 On ch=4 n=43 v=47
15576 On ch=4 n=43 v=0
15576 Par ch=4 c=11 v=113
15576 On ch=4 n=43 v=47
15584 On ch=4 n=43 v=0
15584 On ch=4 n=43 v=47
15588 Par ch=4 c=11 v=114
15592 On ch=4 n=43 v=0
15592 On ch=4 n=43 v=47
15600 On ch=4 n=43 v=0
15600 Par ch=4 c=11 v=115
15600 On ch=4 n=43 v=47
15608 On ch=4 n=43 v=0
15608 On ch=4 n=43 v=47
15612 Par ch=4 c=11 v=116
15616 On ch=4 n=43 v=0
15616 On ch=4 n=43 v=47
15624 On ch=4 n=43 v=0
15624 Par ch=4 c=11 v=117
15624 On ch=4 n=43 v=47
15632 On ch=4 n=43 v=0
15632 On ch=4 n=43 v=47
15636 Par ch=4 c=11 v=118
15640 On ch=4 n=43 v=0
15640 On ch=4 n=43 v=47
15648 On ch=4 n=43 v=0
15648 Par ch=4 c=11 v=119
15648 On ch=4 n=43 v=47
15656 On ch=4 n=43 v=0
15656 On ch=4 n=43 v=47
15660 Par ch=4 c=11 v=120
15664 On ch=4 n=43 v=0
15664 On ch=4 n=43 v=47
15672 On ch=4 n=43 v=0
15672 Par ch=4 c=11 v=121
15672 On ch=4 n=43 v=47
15680 On ch=4 n=43 v=0
15680 On ch=4 n=43 v=47
15684 Par ch=4 c=11 v=122
15688 On ch=4 n=43 v=0
15688 On ch=4 n=43 v=47
15696 On ch=4 n=43 v=0
15696 Par ch=4 c=11 v=123
15696 On ch=4 n=43 v=47
15704 On ch=4 n=43 v=0
15704 On ch=4 n=43 v=47
15708 Par ch=4 c=11 v=124
15712 On ch=4 n=43 v=0
15712 On ch=4 n=43 v=47
15720 On ch=4 n=43 v=0
15720 Par ch=4 c=11 v=125
15720 On ch=4 n=43 v=47
15728 On ch=4 n=43 v=0
15728 On ch=4 n=43 v=47
15732 Par ch=4 c=11 v=126
15736 On ch=4 n=43 v=0
15736 On ch=4 n=43 v=47
15744 On ch=4 n=43 v=0
15744 Par ch=4 c=11 v=64
15744 On ch=4 n=48 v=111
15782 On ch=4 n=48 v=0
18432 On ch=4 n=47 v=15
18440 On ch=4 n=47 v=0
18440 On ch=4 n=47 v=15
18448 On ch=4 n=47 v=0
18448 On ch=4 n=47 v=15
18456 On ch=4 n=47 v=0
18456 On ch=4 n=47 v=15
18464 On ch=4 n=47 v=0
18464 On ch=4 n=47 v=15
18472 On ch=4 n=47 v=0
18472 On ch=4 n=47 v=15
18480 On ch=4 n=47 v=0
18480 On ch=4 n=47 v=15
18488 On ch=4 n=47 v=0
18488 On ch=4 n=47 v=15
18496 On ch=4 n=47 v=0
18496 On ch=4 n=47 v=15
18504 On ch=4 n=47 v=0
18504 On ch=4 n=47 v=15
18512 On ch=4 n=47 v=0
18512 On ch=4 n=47 v=15
18520 On ch=4 n=47 v=0
18520 On ch=4 n=47 v=15
18528 On ch=4 n=47 v=0
18528 On ch=4 n=47 v=15
18536 On ch=4 n=47 v=0
18536 On ch=4 n=47 v=15
18544 On ch=4 n=47 v=0
18544 On ch=4 n=47 v=15
18552 On ch=4 n=47 v=0
18552 On ch=4 n=47 v=15
18560 On ch=4 n=47 v=0
18560 On ch=4 n=47 v=15
18568 On ch=4 n=47 v=0
18568 On ch=4 n=47 v=15
18576 On ch=4 n=47 v=0
18576 On ch=4 n=47 v=15
18584 On ch=4 n=47 v=0
18584 On ch=4 n=47 v=15
18592 On ch=4 n=47 v=0
18592 On ch=4 n=47 v=15
18600 On ch=4 n=47 v=0
18600 On ch=4 n=47 v=15
18608 On ch=4 n=47 v=0
18608 On ch=4 n=47 v=15
18616 On ch=4 n=47 v=0
18616 On ch=4 n=47 v=15
18624 On ch=4 n=47 v=0
18624 On ch=4 n=47 v=15
18632 On ch=4 n=47 v=0
18632 On ch=4 n=47 v=15
18640 On ch=4 n=47 v=0
18640 On ch=4 n=47 v=15
18648 On ch=4 n=47 v=0
18648 On ch=4 n=47 v=15
18656 On ch=4 n=47 v=0
18656 On ch=4 n=47 v=15
18664 On ch=4 n=47 v=0
18664 On ch=4 n=47 v=15
18672 On ch=4 n=47 v=0
18672 On ch=4 n=47 v=15
18680 On ch=4 n=47 v=0
18680 On ch=4 n=47 v=15
18688 On ch=4 n=47 v=0
18688 On ch=4 n=47 v=15
18696 On ch=4 n=47 v=0
18696 On ch=4 n=47 v=15
18704 On ch=4 n=47 v=0
18704 On ch=4 n=47 v=15
18712 On ch=4 n=47 v=0
18712 On ch=4 n=47 v=15
18720 On ch=4 n=47 v=0
18720 On ch=4 n=47 v=15
18728 On ch=4 n=47 v=0
18728 On ch=4 n=47 v=15
18736 On ch=4 n=47 v=0
18736 On ch=4 n=47 v=15
18744 On ch=4 n=47 v=0
18744 On ch=4 n=47 v=15
18752 On ch=4 n=47 v=0
18752 On ch=4 n=47 v=15
18760 On ch=4 n=47 v=0
18760 On ch=4 n=47 v=15
18768 On ch=4 n=47 v=0
18768 On ch=4 n=47 v=15
18776 On ch=4 n=47 v=0
18776 On ch=4 n=47 v=15
18784 On ch=4 n=47 v=0
18784 On ch=4 n=47 v=15
18792 On ch=4 n=47 v=0
18792 On ch=4 n=47 v=15
18800 On ch=4 n=47 v=0
18800 On ch=4 n=47 v=15
18808 On ch=4 n=47 v=0
18808 On ch=4 n=47 v=15
18816 On ch=4 n=47 v=0
18816 On ch=4 n=47 v=15
18824 On ch=4 n=47 v=0
18824 On ch=4 n=47 v=15
18832 On ch=4 n=47 v=0
18832 On ch=4 n=47 v=15
18840 On ch=4 n=47 v=0
18840 On ch=4 n=47 v=15
18848 On ch=4 n=47 v=0
18848 On ch=4 n=47 v=15
18856 On ch=4 n=47 v=0
18856 On ch=4 n=47 v=15
18864 On ch=4 n=47 v=0
18864 On ch=4 n=47 v=15
18872 On ch=4 n=47 v=0
18872 On ch=4 n=47 v=15
18880 On ch=4 n=47 v=0
18880 On ch=4 n=47 v=15
18888 On ch=4 n=47 v=0
18888 On ch=4 n=47 v=15
18896 On ch=4 n=47 v=0
18896 On ch=4 n=47 v=15
18904 On ch=4 n=47 v=0
18904 On ch=4 n=47 v=15
18912 On ch=4 n=47 v=0
18912 On ch=4 n=47 v=15
18920 On ch=4 n=47 v=0
18920 On ch=4 n=47 v=15
18928 On ch=4 n=47 v=0
18928 On ch=4 n=47 v=15
18936 On ch=4 n=47 v=0
18936 On ch=4 n=47 v=15
18944 On ch=4 n=47 v=0
18944 On ch=4 n=47 v=15
18952 On ch=4 n=47 v=0
18952 On ch=4 n=47 v=15
18960 On ch=4 n=47 v=0
18960 On ch=4 n=47 v=15
18968 On ch=4 n=47 v=0
18968 On ch=4 n=47 v=15
18976 On ch=4 n=47 v=0
18976 On ch=4 n=47 v=15
18984 On ch=4 n=47 v=0
18984 On ch=4 n=47 v=15
18992 On ch=4 n=47 v=0
18992 On ch=4 n=47 v=15
19000 On ch=4 n=47 v=0
19000 On ch=4 n=47 v=15
19008 On ch=4 n=47 v=0
19008 On ch=4 n=47 v=15
19016 On ch=4 n=47 v=0
19016 On ch=4 n=47 v=15
19024 On ch=4 n=47 v=0
19024 On ch=4 n=47 v=15
19032 On ch=4 n=47 v=0
19032 On ch=4 n=47 v=15
19040 On ch=4 n=47 v=0
19040 On ch=4 n=47 v=15
19048 On ch=4 n=47 v=0
19048 On ch=4 n=47 v=15
19056 On ch=4 n=47 v=0
19056 On ch=4 n=47 v=15
19064 On ch=4 n=47 v=0
19064 On ch=4 n=47 v=15
19072 On ch=4 n=47 v=0
19072 On ch=4 n=47 v=15
19080 On ch=4 n=47 v=0
19080 On ch=4 n=47 v=15
19088 On ch=4 n=47 v=0
19088 On ch=4 n=47 v=15
19096 On ch=4 n=47 v=0
19096 On ch=4 n=47 v=15
19104 On ch=4 n=47 v=0
19104 On ch=4 n=47 v=15
19112 On ch=4 n=47 v=0
19112 On ch=4 n=47 v=15
19120 On ch=4 n=47 v=0
19120 On ch=4 n=47 v=15
19128 On ch=4 n=47 v=0
19128 On ch=4 n=47 v=15
19136 On ch=4 n=47 v=0
19136 On ch=4 n=47 v=15
19144 On ch=4 n=47 v=0
19144 On ch=4 n=47 v=15
19152 On ch=4 n=47 v=0
19152 On ch=4 n=47 v=15
19160 On ch=4 n=47 v=0
19160 On ch=4 n=47 v=15
19168 On ch=4 n=47 v=0
19168 On ch=4 n=47 v=15
19176 On ch=4 n=47 v=0
19176 On ch=4 n=47 v=15
19184 On ch=4 n=47 v=0
19184 On ch=4 n=47 v=15
19192 On ch=4 n=47 v=0
19192 On ch=4 n=47 v=15
19200 On ch=4 n=47 v=0
22656 On ch=4 n=46 v=47
22664 On ch=4 n=46 v=0
22664 On ch=4 n=46 v=47
22672 On ch=4 n=46 v=0
22672 On ch=4 n=46 v=47
22680 On ch=4 n=46 v=0
22680 On ch=4 n=46 v=47
22688 On ch=4 n=46 v=0
22688 On ch=4 n=46 v=47
22696 On ch=4 n=46 v=0
22696 On ch=4 n=46 v=47
22704 On ch=4 n=46 v=0
22704 On ch=4 n=46 v=47
22712 On ch=4 n=46 v=0
22712 On ch=4 n=46 v=47
22720 On ch=4 n=46 v=0
22720 On ch=4 n=46 v=47
22728 On ch=4 n=46 v=0
22728 On ch=4 n=46 v=47
22736 On ch=4 n=46 v=0
22736 On ch=4 n=46 v=47
22744 On ch=4 n=46 v=0
22744 On ch=4 n=46 v=47
22752 On ch=4 n=46 v=0
22752 On ch=4 n=46 v=47
22760 On ch=4 n=46 v=0
22760 On ch=4 n=46 v=47
22768 On ch=4 n=46 v=0
22768 On ch=4 n=46 v=47
22776 On ch=4 n=46 v=0
22776 On ch=4 n=46 v=47
22784 On ch=4 n=46 v=0
22784 On ch=4 n=46 v=47
22792 On ch=4 n=46 v=0
22792 On ch=4 n=46 v=47
22800 On ch=4 n=46 v=0
22800 On ch=4 n=46 v=47
22808 On ch=4 n=46 v=0
22808 On ch=4 n=46 v=47
22816 On ch=4 n=46 v=0
22816 On ch=4 n=46 v=47
22824 On ch=4 n=46 v=0
22824 On ch=4 n=46 v=47
22832 On ch=4 n=46 v=0
22832 On ch=4 n=46 v=47
22840 On ch=4 n=46 v=0
22840 On ch=4 n=46 v=47
22848 On ch=4 n=46 v=0
22848 On ch=4 n=46 v=47
22856 On ch=4 n=46 v=0
22856 On ch=4 n=46 v=47
22864 On ch=4 n=46 v=0
22864 On ch=4 n=46 v=47
22872 On ch=4 n=46 v=0
22872 On ch=4 n=46 v=47
22880 On ch=4 n=46 v=0
22880 On ch=4 n=46 v=47
22888 On ch=4 n=46 v=0
22888 On ch=4 n=46 v=47
22896 On ch=4 n=46 v=0
22896 On ch=4 n=46 v=47
22904 On ch=4 n=46 v=0
22904 On ch=4 n=46 v=47
22912 On ch=4 n=46 v=0
22912 On ch=4 n=46 v=47
22920 On ch=4 n=46 v=0
22920 On ch=4 n=46 v=47
22928 On ch=4 n=46 v=0
22928 On ch=4 n=46 v=47
22936 On ch=4 n=46 v=0
22936 On ch=4 n=46 v=47
22944 On ch=4 n=46 v=0
22944 On ch=4 n=46 v=47
22952 On ch=4 n=46 v=0
22952 On ch=4 n=46 v=47
22960 On ch=4 n=46 v=0
22960 On ch=4 n=46 v=47
22968 On ch=4 n=46 v=0
22968 On ch=4 n=46 v=47
22976 On ch=4 n=46 v=0
22976 On ch=4 n=46 v=47
22984 On ch=4 n=46 v=0
22984 On ch=4 n=46 v=47
22992 On ch=4 n=46 v=0
22992 On ch=4 n=46 v=47
23000 On ch=4 n=46 v=0
23000 On ch=4 n=46 v=47
23008 On ch=4 n=46 v=0
23008 On ch=4 n=46 v=47
23016 On ch=4 n=46 v=0
23016 On ch=4 n=46 v=47
23024 On ch=4 n=46 v=0
23024 On ch=4 n=46 v=47
23032 On ch=4 n=46 v=0
23032 On ch=4 n=46 v=47
23040 On ch=4 n=46 v=0
23040 On ch=4 n=46 v=47
23048 On ch=4 n=46 v=0
23048 On ch=4 n=46 v=47
23056 On ch=4 n=46 v=0
23056 On ch=4 n=46 v=47
23064 On ch=4 n=46 v=0
23064 On ch=4 n=46 v=47
23072 On ch=4 n=46 v=0
23072 On ch=4 n=46 v=47
23080 On ch=4 n=46 v=0
23080 On ch=4 n=46 v=47
23088 On ch=4 n=46 v=0
23088 On ch=4 n=46 v=47
23096 On ch=4 n=46 v=0
23096 On ch=4 n=46 v=47
23104 On ch=4 n=46 v=0
23104 On ch=4 n=46 v=47
23112 On ch=4 n=46 v=0
23112 On ch=4 n=46 v=47
23120 On ch=4 n=46 v=0
23120 On ch=4 n=46 v=47
23128 On ch=4 n=46 v=0
23128 On ch=4 n=46 v=47
23136 On ch=4 n=46 v=0
23136 On ch=4 n=46 v=47
23144 On ch=4 n=46 v=0
23144 On ch=4 n=46 v=47
23152 On ch=4 n=46 v=0
23152 On ch=4 n=46 v=47
23160 On ch=4 n=46 v=0
23160 On ch=4 n=46 v=47
23168 On ch=4 n=46 v=0
23168 On ch=4 n=46 v=47
23176 On ch=4 n=46 v=0
23176 On ch=4 n=46 v=47
23184 On ch=4 n=46 v=0
23184 On ch=4 n=46 v=47
23192 On ch=4 n=46 v=0
23192 On ch=4 n=46 v=47
23200 On ch=4 n=46 v=0
23200 On ch=4 n=46 v=47
23208 On ch=4 n=46 v=0
23208 On ch=4 n=46 v=47
23216 On ch=4 n=46 v=0
23216 On ch=4 n=46 v=47
23224 On ch=4 n=46 v=0
23224 On ch=4 n=46 v=47
23232 On ch=4 n=46 v=0
23232 On ch=4 n=46 v=47
23240 On ch=4 n=46 v=0
23240 On ch=4 n=46 v=47
23248 On ch=4 n=46 v=0
23248 On ch=4 n=46 v=47
23256 On ch=4 n=46 v=0
23256 On ch=4 n=46 v=47
23264 On ch=4 n=46 v=0
23264 On ch=4 n=46 v=47
23272 On ch=4 n=46 v=0
23272 On ch=4 n=46 v=47
23280 On ch=4 n=46 v=0
23280 On ch=4 n=46 v=47
23288 On ch=4 n=46 v=0
23288 On ch=4 n=46 v=47
23296 On ch=4 n=46 v=0
23296 On ch=4 n=46 v=47
23304 On ch=4 n=46 v=0
23304 On ch=4 n=46 v=47
23312 On ch=4 n=46 v=0
23312 On ch=4 n=46 v=47
23320 On ch=4 n=46 v=0
23320 On ch=4 n=46 v=47
23328 On ch=4 n=46 v=0
23328 On ch=4 n=46 v=47
23336 On ch=4 n=46 v=0
23336 On ch=4 n=46 v=47
23344 On ch=4 n=46 v=0
23344 On ch=4 n=46 v=47
23352 On ch=4 n=46 v=0
23352 On ch=4 n=46 v=47
23360 On ch=4 n=46 v=0
23360 On ch=4 n=46 v=47
23368 On ch=4 n=46 v=0
23368 On ch=4 n=46 v=47
23376 On ch=4 n=46 v=0
23376 On ch=4 n=46 v=47
23384 On ch=4 n=46 v=0
23384 On ch=4 n=46 v=47
23392 On ch=4 n=46 v=0
23392 On ch=4 n=46 v=47
23400 On ch=4 n=46 v=0
23400 On ch=4 n=46 v=47
23408 On ch=4 n=46 v=0
23408 On ch=4 n=46 v=47
23416 On ch=4 n=46 v=0
23416 On ch=4 n=46 v=47
23424 On ch=4 n=46 v=0
23424 Par ch=4 c=11 v=64
23424 On ch=4 n=46 v=47
23432 On ch=4 n=46 v=0
23432 Par ch=4 c=11 v=65
23432 On ch=4 n=46 v=47
23440 On ch=4 n=46 v=0
23440 Par ch=4 c=11 v=66
23440 On ch=4 n=46 v=47
23444 Par ch=4 c=11 v=67
23448 On ch=4 n=46 v=0
23448 On ch=4 n=46 v=47
23452 Par ch=4 c=11 v=68
23456 On ch=4 n=46 v=0
23456 Par ch=4 c=11 v=69
23456 On ch=4 n=46 v=47
23464 On ch=4 n=46 v=0
23464 Par ch=4 c=11 v=70
23464 On ch=4 n=46 v=47
23468 Par ch=4 c=11 v=71
23472 On ch=4 n=46 v=0
23472 On ch=4 n=46 v=47
23476 Par ch=4 c=11 v=72
23480 On ch=4 n=46 v=0
23480 Par ch=4 c=11 v=73
23480 On ch=4 n=46 v=47
23488 On ch=4 n=46 v=0
23488 Par ch=4 c=11 v=74
23488 On ch=4 n=46 v=47
23492 Par ch=4 c=11 v=75
23496 On ch=4 n=46 v=0
23496 On ch=4 n=46 v=47
23500 Par ch=4 c=11 v=76
23504 On ch=4 n=46 v=0
23504 Par ch=4 c=11 v=77
23504 On ch=4 n=46 v=47
23512 On ch=4 n=46 v=0
23512 Par ch=4 c=11 v=78
23512 On ch=4 n=46 v=47
23516 Par ch=4 c=11 v=79
23520 On ch=4 n=46 v=0
23520 On ch=4 n=46 v=47
23524 Par ch=4 c=11 v=80
23528 On ch=4 n=46 v=0
23528 Par ch=4 c=11 v=81
23528 On ch=4 n=46 v=47
23536 On ch=4 n=46 v=0
23536 Par ch=4 c=11 v=82
23536 On ch=4 n=46 v=47
23540 Par ch=4 c=11 v=83
23544 On ch=4 n=46 v=0
23544 On ch=4 n=46 v=47
23548 Par ch=4 c=11 v=84
23552 On ch=4 n=46 v=0
23552 Par ch=4 c=11 v=85
23552 On ch=4 n=46 v=47
23560 On ch=4 n=46 v=0
23560 Par ch=4 c=11 v=86
23560 On ch=4 n=46 v=47
23568 On ch=4 n=46 v=0
23568 Par ch=4 c=11 v=87
23568 On ch=4 n=46 v=47
23572 Par ch=4 c=11 v=88
23576 On ch=4 n=46 v=0
23576 On ch=4 n=46 v=47
23580 Par ch=4 c=11 v=89
23584 On ch=4 n=46 v=0
23584 Par ch=4 c=11 v=90
23584 On ch=4 n=46 v=47
23592 On ch=4 n=46 v=0
23592 Par ch=4 c=11 v=91
23592 On ch=4 n=46 v=47
23596 Par ch=4 c=11 v=92
23600 On ch=4 n=46 v=0
23600 On ch=4 n=46 v=47
23604 Par ch=4 c=11 v=93
23608 On ch=4 n=46 v=0
23608 Par ch=4 c=11 v=94
23608 On ch=4 n=46 v=47
23616 On ch=4 n=46 v=0
23616 Par ch=4 c=11 v=95
23616 On ch=4 n=46 v=47
23620 Par ch=4 c=11 v=96
23624 On ch=4 n=46 v=0
23624 On ch=4 n=46 v=47
23628 Par ch=4 c=11 v=97
23632 On ch=4 n=46 v=0
23632 Par ch=4 c=11 v=98
23632 On ch=4 n=46 v=47
23640 On ch=4 n=46 v=0
23640 Par ch=4 c=11 v=99
23640 On ch=4 n=46 v=47
23644 Par ch=4 c=11 v=100
23648 On ch=4 n=46 v=0
23648 On ch=4 n=46 v=47
23652 Par ch=4 c=11 v=101
23656 On ch=4 n=46 v=0
23656 Par ch=4 c=11 v=102
23656 On ch=4 n=46 v=47
23664 On ch=4 n=46 v=0
23664 Par ch=4 c=11 v=103
23664 On ch=4 n=46 v=47
23668 Par ch=4 c=11 v=104
23672 On ch=4 n=46 v=0
23672 On ch=4 n=46 v=47
23676 Par ch=4 c=11 v=105
23680 On ch=4 n=46 v=0
23680 Par ch=4 c=11 v=106
23680 On ch=4 n=46 v=47
23688 On ch=4 n=46 v=0
23688 Par ch=4 c=11 v=107
23688 On ch=4 n=46 v=47
23696 On ch=4 n=46 v=0
23696 Par ch=4 c=11 v=108
23696 On ch=4 n=46 v=47
23700 Par ch=4 c=11 v=109
23704 On ch=4 n=46 v=0
23704 On ch=4 n=46 v=47
23708 Par ch=4 c=11 v=110
23712 On ch=4 n=46 v=0
23712 Par ch=4 c=11 v=111
23712 On ch=4 n=46 v=47
23720 On ch=4 n=46 v=0
23720 Par ch=4 c=11 v=112
23720 On ch=4 n=46 v=47
23724 Par ch=4 c=11 v=113
23728 On ch=4 n=46 v=0
23728 On ch=4 n=46 v=47
23732 Par ch=4 c=11 v=114
23736 On ch=4 n=46 v=0
23736 Par ch=4 c=11 v=115
23736 On ch=4 n=46 v=47
23744 On ch=4 n=46 v=0
23744 Par ch=4 c=11 v=116
23744 On ch=4 n=46 v=47
23748 Par ch=4 c=11 v=117
23752 On ch=4 n=46 v=0
23752 On ch=4 n=46 v=47
23756 Par ch=4 c=11 v=118
23760 On ch=4 n=46 v=0
23760 Par ch=4 c=11 v=119
23760 On ch=4 n=46 v=47
23768 On ch=4 n=46 v=0
23768 Par ch=4 c=11 v=120
23768 On ch=4 n=46 v=47
23772 Par ch=4 c=11 v=121
23776 On ch=4 n=46 v=0
23776 On ch=4 n=46 v=47
23780 Par ch=4 c=11 v=122
23784 On ch=4 n=46 v=0
23784 Par ch=4 c=11 v=123
23784 On ch=4 n=46 v=47
23792 On ch=4 n=46 v=0
23792 Par ch=4 c=11 v=124
23792 On ch=4 n=46 v=47
23796 Par ch=4 c=11 v=125
23800 On ch=4 n=46 v=0
23800 On ch=4 n=46 v=47
23804 Par ch=4 c=11 v=126
23808 On ch=4 n=46 v=0
23808 Par ch=4 c=11 v=64
23808 On ch=4 n=51 v=111
23846 On ch=4 n=51 v=0
30720 On ch=4 n=43 v=111
30797 On ch=4 n=43 v=0
31104 Par ch=4 c=11 v=64
31104 On ch=4 n=43 v=111
31112 On ch=4 n=43 v=0
31112 On ch=4 n=43 v=111
31116 Par ch=4 c=11 v=63
31120 On ch=4 n=43 v=0
31120 On ch=4 n=43 v=111
31128 On ch=4 n=43 v=0
31128 Par ch=4 c=11 v=62
31128 On ch=4 n=43 v=111
31136 On ch=4 n=43 v=0
31136 On ch=4 n=43 v=111
31140 Par ch=4 c=11 v=61
31144 On ch=4 n=43 v=0
31144 On ch=4 n=43 v=111
31152 On ch=4 n=43 v=0
31152 Par ch=4 c=11 v=60
31152 On ch=4 n=43 v=111
31160 On ch=4 n=43 v=0
31160 On ch=4 n=43 v=111
31164 Par ch=4 c=11 v=59
31168 On ch=4 n=43 v=0
31168 On ch=4 n=43 v=111
31172 Par ch=4 c=11 v=58
31176 On ch=4 n=43 v=0
31176 On ch=4 n=43 v=111
31184 On ch=4 n=43 v=0
31184 Par ch=4 c=11 v=57
31184 On ch=4 n=43 v=111
31192 On ch=4 n=43 v=0
31192 On ch=4 n=43 v=111
31196 Par ch=4 c=11 v=56
31200 On ch=4 n=43 v=0
31200 On ch=4 n=43 v=111
31208 On ch=4 n=43 v=0
31208 Par ch=4 c=11 v=55
31208 On ch=4 n=43 v=111
31216 On ch=4 n=43 v=0
31216 On ch=4 n=43 v=111
31220 Par ch=4 c=11 v=54
31224 On ch=4 n=43 v=0
31224 On ch=4 n=43 v=111
31232 On ch=4 n=43 v=0
31232 Par ch=4 c=11 v=53
31232 On ch=4 n=43 v=111
31240 On ch=4 n=43 v=0
31240 Par ch=4 c=11 v=52
31240 On ch=4 n=43 v=111
31248 On ch=4 n=43 v=0
31248 On ch=4 n=43 v=111
31252 Par ch=4 c=11 v=51
31256 On ch=4 n=43 v=0
31256 On ch=4 n=43 v=111
31264 On ch=4 n=43 v=0
31264 Par ch=4 c=11 v=50
31264 On ch=4 n=43 v=111
31272 On ch=4 n=43 v=0
31272 On ch=4 n=43 v=111
31276 Par ch=4 c=11 v=49
31280 On ch=4 n=43 v=0
31280 On ch=4 n=43 v=111
31288 On ch=4 n=43 v=0
31288 Par ch=4 c=11 v=48
31288 On ch=4 n=43 v=111
31296 On ch=4 n=43 v=0
31296 Par ch=4 c=11 v=47
31296 On ch=4 n=43 v=111
31304 On ch=4 n=43 v=0
31304 On ch=4 n=43 v=111
31308 Par ch=4 c=11 v=46
31312 On ch=4 n=43 v=0
31312 On ch=4 n=43 v=111
31320 On ch=4 n=43 v=0
31320 Par ch=4 c=11 v=45
31320 On ch=4 n=43 v=111
31328 On ch=4 n=43 v=0
31328 On ch=4 n=43 v=111
31332 Par ch=4 c=11 v=44
31336 On ch=4 n=43 v=0
31336 On ch=4 n=43 v=111
31344 On ch=4 n=43 v=0
31344 Par ch=4 c=11 v=43
31344 On ch=4 n=43 v=111
31352 On ch=4 n=43 v=0
31352 On ch=4 n=43 v=111
31356 Par ch=4 c=11 v=42
31360 On ch=4 n=43 v=0
31360 On ch=4 n=43 v=111
31364 Par ch=4 c=11 v=41
31368 On ch=4 n=43 v=0
31368 On ch=4 n=43 v=111
31376 On ch=4 n=43 v=0
31376 Par ch=4 c=11 v=40
31376 On ch=4 n=43 v=111
31384 On ch=4 n=43 v=0
31384 On ch=4 n=43 v=111
31388 Par ch=4 c=11 v=39
31392 On ch=4 n=43 v=0
31392 On ch=4 n=43 v=111
31400 On ch=4 n=43 v=0
31400 Par ch=4 c=11 v=38
31400 On ch=4 n=43 v=111
31408 On ch=4 n=43 v=0
31408 On ch=4 n=43 v=111
31412 Par ch=4 c=11 v=37
31416 On ch=4 n=43 v=0
31416 On ch=4 n=43 v=111
31424 On ch=4 n=43 v=0
31424 Par ch=4 c=11 v=36
31424 On ch=4 n=43 v=111
31432 On ch=4 n=43 v=0
31432 Par ch=4 c=11 v=35
31432 On ch=4 n=43 v=111
31440 On ch=4 n=43 v=0
31440 On ch=4 n=43 v=111
31444 Par ch=4 c=11 v=34
31448 On ch=4 n=43 v=0
31448 On ch=4 n=43 v=111
31456 On ch=4 n=43 v=0
31456 Par ch=4 c=11 v=33
31456 On ch=4 n=43 v=111
31464 On ch=4 n=43 v=0
31464 On ch=4 n=43 v=111
31468 Par ch=4 c=11 v=32
31472 On ch=4 n=43 v=0
31472 On ch=4 n=43 v=111
31480 On ch=4 n=43 v=0
31480 On ch=4 n=43 v=111
31488 On ch=4 n=43 v=0
31872 Par ch=4 c=11 v=64
31872 On ch=4 n=43 v=111
31880 On ch=4 n=43 v=0
31880 On ch=4 n=43 v=111
31884 Par ch=4 c=11 v=63
31888 On ch=4 n=43 v=0
31888 On ch=4 n=43 v=111
31896 On ch=4 n=43 v=0
31896 Par ch=4 c=11 v=62
31896 On ch=4 n=43 v=111
31904 On ch=4 n=43 v=0
31904 On ch=4 n=43 v=111
31908 Par ch=4 c=11 v=61
31912 On ch=4 n=43 v=0
31912 On ch=4 n=43 v=111
31920 On ch=4 n=43 v=0
31920 Par ch=4 c=11 v=60
31920 On ch=4 n=43 v=111
31928 On ch=4 n=43 v=0
31928 On ch=4 n=43 v=111
31932 Par ch=4 c=11 v=59
31936 On ch=4 n=43 v=0
31936 On ch=4 n=43 v=111
31940 Par ch=4 c=11 v=58
31944 On ch=4 n=43 v=0
31944 On ch=4 n=43 v=111
31952 On ch=4 n=43 v=0
31952 Par ch=4 c=11 v=57
31952 On ch=4 n=43 v=111
31960 On ch=4 n=43 v=0
31960 On ch=4 n=43 v=111
31964 Par ch=4 c=11 v=56
31968 On ch=4 n=43 v=0
31968 On ch=4 n=43 v=111
31976 On ch=4 n=43 v=0
31976 Par ch=4 c=11 v=55
31976 On ch=4 n=43 v=111
31984 On ch=4 n=43 v=0
31984 On ch=4 n=43 v=111
31988 Par ch=4 c=11 v=54
31992 On ch=4 n=43 v=0
31992 On ch=4 n=43 v=111
32000 On ch=4 n=43 v=0
32000 Par ch=4 c=11 v=53
32000 On ch=4 n=43 v=111
32008 On ch=4 n=43 v=0
32008 Par ch=4 c=11 v=52
32008 On ch=4 n=43 v=111
32016 On ch=4 n=43 v=0
32016 On ch=4 n=43 v=111
32020 Par ch=4 c=11 v=51
32024 On ch=4 n=43 v=0
32024 On ch=4 n=43 v=111
32032 On ch=4 n=43 v=0
32032 Par ch=4 c=11 v=50
32032 On ch=4 n=43 v=111
32040 On ch=4 n=43 v=0
32040 On ch=4 n=43 v=111
32044 Par ch=4 c=11 v=49
32048 On ch=4 n=43 v=0
32048 On ch=4 n=43 v=111
32056 On ch=4 n=43 v=0
32056 Par ch=4 c=11 v=48
32056 On ch=4 n=43 v=111
32064 On ch=4 n=43 v=0
32064 Par ch=4 c=11 v=47
32064 On ch=4 n=43 v=111
32072 On ch=4 n=43 v=0
32072 On ch=4 n=43 v=111
32076 Par ch=4 c=11 v=46
32080 On ch=4 n=43 v=0
32080 On ch=4 n=43 v=111
32088 On ch=4 n=43 v=0
32088 Par ch=4 c=11 v=45
32088 On ch=4 n=43 v=111
32096 On ch=4 n=43 v=0
32096 On ch=4 n=43 v=111
32100 Par ch=4 c=11 v=44
32104 On ch=4 n=43 v=0
32104 On ch=4 n=43 v=111
32112 On ch=4 n=43 v=0
32112 Par ch=4 c=11 v=43
32112 On ch=4 n=43 v=111
32120 On ch=4 n=43 v=0
32120 On ch=4 n=43 v=111
32124 Par ch=4 c=11 v=42
32128 On ch=4 n=43 v=0
32128 On ch=4 n=43 v=111
32132 Par ch=4 c=11 v=41
32136 On ch=4 n=43 v=0
32136 On ch=4 n=43 v=111
32144 On ch=4 n=43 v=0
32144 Par ch=4 c=11 v=40
32144 On ch=4 n=43 v=111
32152 On ch=4 n=43 v=0
32152 On ch=4 n=43 v=111
32156 Par ch=4 c=11 v=39
32160 On ch=4 n=43 v=0
32160 On ch=4 n=43 v=111
32168 On ch=4 n=43 v=0
32168 Par ch=4 c=11 v=38
32168 On ch=4 n=43 v=111
32176 On ch=4 n=43 v=0
32176 On ch=4 n=43 v=111
32180 Par ch=4 c=11 v=37
32184 On ch=4 n=43 v=0
32184 On ch=4 n=43 v=111
32192 On ch=4 n=43 v=0
32192 Par ch=4 c=11 v=36
32192 On ch=4 n=43 v=111
32200 On ch=4 n=43 v=0
32200 Par ch=4 c=11 v=35
32200 On ch=4 n=43 v=111
32208 On ch=4 n=43 v=0
32208 On ch=4 n=43 v=111
32212 Par ch=4 c=11 v=34
32216 On ch=4 n=43 v=0
32216 On ch=4 n=43 v=111
32224 On ch=4 n=43 v=0
32224 Par ch=4 c=11 v=33
32224 On ch=4 n=43 v=111
32232 On ch=4 n=43 v=0
32232 On ch=4 n=43 v=111
32236 Par ch=4 c=11 v=32
32240 On ch=4 n=43 v=0
32240 On ch=4 n=43 v=111
32248 On ch=4 n=43 v=0
32248 On ch=4 n=43 v=111
32256 On ch=4 n=43 v=0
32640 Par ch=4 c=11 v=64
32640 On ch=4 n=43 v=47
32648 On ch=4 n=43 v=0
32648 On ch=4 n=43 v=47
32656 On ch=4 n=43 v=0
32656 Par ch=4 c=11 v=65
32656 On ch=4 n=43 v=47
32664 On ch=4 n=43 v=0
32664 On ch=4 n=43 v=47
32672 On ch=4 n=43 v=0
32672 Par ch=4 c=11 v=66
32672 On ch=4 n=43 v=47
32680 On ch=4 n=43 v=0
32680 On ch=4 n=43 v=47
32688 On ch=4 n=43 v=0
32688 Par ch=4 c=11 v=67
32688 On ch=4 n=43 v=47
32696 On ch=4 n=43 v=0
32696 On ch=4 n=43 v=47
32704 On ch=4 n=43 v=0
32704 Par ch=4 c=11 v=68
32704 On ch=4 n=43 v=47
32712 On ch=4 n=43 v=0
32712 On ch=4 n=43 v=47
32720 On ch=4 n=43 v=0
32720 Par ch=4 c=11 v=69
32720 On ch=4 n=43 v=47
32728 On ch=4 n=43 v=0
32728 On ch=4 n=43 v=47
32736 On ch=4 n=43 v=0
32736 Par ch=4 c=11 v=70
32736 On ch=4 n=43 v=47
32744 On ch=4 n=43 v=0
32744 On ch=4 n=43 v=47
32752 On ch=4 n=43 v=0
32752 Par ch=4 c=11 v=71
32752 On ch=4 n=43 v=47
32760 On ch=4 n=43 v=0
32760 On ch=4 n=43 v=47
32768 On ch=4 n=43 v=0
32768 Par ch=4 c=11 v=72
32768 On ch=4 n=43 v=47
32776 On ch=4 n=43 v=0
32776 On ch=4 n=43 v=47
32784 On ch=4 n=43 v=0
32784 Par ch=4 c=11 v=73
32784 On ch=4 n=43 v=47
32792 On ch=4 n=43 v=0
32792 On ch=4 n=43 v=47
32800 On ch=4 n=43 v=0
32800 Par ch=4 c=11 v=74
32800 On ch=4 n=43 v=47
32808 On ch=4 n=43 v=0
32808 On ch=4 n=43 v=47
32816 On ch=4 n=43 v=0
32816 Par ch=4 c=11 v=75
32816 On ch=4 n=43 v=47
32824 On ch=4 n=43 v=0
32824 On ch=4 n=43 v=47
32832 On ch=4 n=43 v=0
32832 Par ch=4 c=11 v=76
32832 On ch=4 n=43 v=47
32840 On ch=4 n=43 v=0
32840 On ch=4 n=43 v=47
32844 Par ch=4 c=11 v=77
32848 On ch=4 n=43 v=0
32848 On ch=4 n=43 v=47
32856 On ch=4 n=43 v=0
32856 On ch=4 n=43 v=47
32860 Par ch=4 c=11 v=78
32864 On ch=4 n=43 v=0
32864 On ch=4 n=43 v=47
32872 On ch=4 n=43 v=0
32872 On ch=4 n=43 v=47
32876 Par ch=4 c=11 v=79
32880 On ch=4 n=43 v=0
32880 On ch=4 n=43 v=47
32888 On ch=4 n=43 v=0
32888 On ch=4 n=43 v=47
32892 Par ch=4 c=11 v=80
32896 On ch=4 n=43 v=0
32896 On ch=4 n=43 v=47
32904 On ch=4 n=43 v=0
32904 On ch=4 n=43 v=47
32908 Par ch=4 c=11 v=81
32912 On ch=4 n=43 v=0
32912 On ch=4 n=43 v=47
32920 On ch=4 n=43 v=0
32920 On ch=4 n=43 v=47
32924 Par ch=4 c=11 v=82
32928 On ch=4 n=43 v=0
32928 On ch=4 n=43 v=47
32936 On ch=4 n=43 v=0
32936 On ch=4 n=43 v=47
32940 Par ch=4 c=11 v=83
32944 On ch=4 n=43 v=0
32944 On ch=4 n=43 v=47
32952 On ch=4 n=43 v=0
32952 On ch=4 n=43 v=47
32956 Par ch=4 c=11 v=84
32960 On ch=4 n=43 v=0
32960 On ch=4 n=43 v=47
32968 On ch=4 n=43 v=0
32968 On ch=4 n=43 v=47
32972 Par ch=4 c=11 v=85
32976 On ch=4 n=43 v=0
32976 On ch=4 n=43 v=47
32984 On ch=4 n=43 v=0
32984 On ch=4 n=43 v=47
32988 Par ch=4 c=11 v=86
32992 On ch=4 n=43 v=0
32992 On ch=4 n=43 v=47
33000 On ch=4 n=43 v=0
33000 On ch=4 n=43 v=47
33004 Par ch=4 c=11 v=87
33008 On ch=4 n=43 v=0
33008 On ch=4 n=43 v=47
33016 On ch=4 n=43 v=0
33016 On ch=4 n=43 v=47
33020 Par ch=4 c=11 v=88
33024 On ch=4 n=43 v=0
33024 On ch=4 n=43 v=47
33032 On ch=4 n=43 v=0
33032 Par ch=4 c=11 v=89
33032 On ch=4 n=43 v=47
33040 On ch=4 n=43 v=0
33040 On ch=4 n=43 v=47
33048 On ch=4 n=43 v=0
33048 Par ch=4 c=11 v=90
33048 On ch=4 n=43 v=47
33056 On ch=4 n=43 v=0
33056 On ch=4 n=43 v=47
33064 On ch=4 n=43 v=0
33064 Par ch=4 c=11 v=91
33064 On ch=4 n=43 v=47
33072 On ch=4 n=43 v=0
33072 On ch=4 n=43 v=47
33080 On ch=4 n=43 v=0
33080 Par ch=4 c=11 v=92
33080 On ch=4 n=43 v=47
33088 On ch=4 n=43 v=0
33088 On ch=4 n=43 v=47
33096 On ch=4 n=43 v=0
33096 Par ch=4 c=11 v=93
33096 On ch=4 n=43 v=47
33104 On ch=4 n=43 v=0
33104 On ch=4 n=43 v=47
33112 On ch=4 n=43 v=0
33112 Par ch=4 c=11 v=94
33112 On ch=4 n=43 v=47
33120 On ch=4 n=43 v=0
33120 On ch=4 n=43 v=47
33128 On ch=4 n=43 v=0
33128 Par ch=4 c=11 v=95
33128 On ch=4 n=43 v=47
33136 On ch=4 n=43 v=0
33136 On ch=4 n=43 v=47
33144 On ch=4 n=43 v=0
33144 Par ch=4 c=11 v=96
33144 On ch=4 n=43 v=47
33152 On ch=4 n=43 v=0
33152 On ch=4 n=43 v=47
33160 On ch=4 n=43 v=0
33160 Par ch=4 c=11 v=97
33160 On ch=4 n=43 v=47
33168 On ch=4 n=43 v=0
33168 On ch=4 n=43 v=47
33176 On ch=4 n=43 v=0
33176 Par ch=4 c=11 v=98
33176 On ch=4 n=43 v=47
33184 On ch=4 n=43 v=0
33184 On ch=4 n=43 v=47
33192 On ch=4 n=43 v=0
33192 Par ch=4 c=11 v=99
33192 On ch=4 n=43 v=47
33200 On ch=4 n=43 v=0
33200 On ch=4 n=43 v=47
33208 On ch=4 n=43 v=0
33208 Par ch=4 c=11 v=100
33208 On ch=4 n=43 v=47
33216 On ch=4 n=43 v=0
33216 On ch=4 n=43 v=47
33220 Par ch=4 c=11 v=101
33224 On ch=4 n=43 v=0
33224 On ch=4 n=43 v=47
33232 On ch=4 n=43 v=0
33232 On ch=4 n=43 v=47
33236 Par ch=4 c=11 v=102
33240 On ch=4 n=43 v=0
33240 On ch=4 n=43 v=47
33248 On ch=4 n=43 v=0
33248 On ch=4 n=43 v=47
33252 Par ch=4 c=11 v=103
33256 On ch=4 n=43 v=0
33256 On ch=4 n=43 v=47
33264 On ch=4 n=43 v=0
33264 On ch=4 n=43 v=47
33268 Par ch=4 c=11 v=104
33272 On ch=4 n=43 v=0
33272 On ch=4 n=43 v=47
33280 On ch=4 n=43 v=0
33280 On ch=4 n=43 v=47
33284 Par ch=4 c=11 v=105
33288 On ch=4 n=43 v=0
33288 On ch=4 n=43 v=47
33296 On ch=4 n=43 v=0
33296 On ch=4 n=43 v=47
33300 Par ch=4 c=11 v=106
33304 On ch=4 n=43 v=0
33304 On ch=4 n=43 v=47
33312 On ch=4 n=43 v=0
33312 On ch=4 n=43 v=47
33316 Par ch=4 c=11 v=107
33320 On ch=4 n=43 v=0
33320 On ch=4 n=43 v=47
33328 On ch=4 n=43 v=0
33328 On ch=4 n=43 v=47
33332 Par ch=4 c=11 v=108
33336 On ch=4 n=43 v=0
33336 On ch=4 n=43 v=47
33344 On ch=4 n=43 v=0
33344 On ch=4 n=43 v=47
33348 Par ch=4 c=11 v=109
33352 On ch=4 n=43 v=0
33352 On ch=4 n=43 v=47
33360 On ch=4 n=43 v=0
33360 On ch=4 n=43 v=47
33364 Par ch=4 c=11 v=110
33368 On ch=4 n=43 v=0
33368 On ch=4 n=43 v=47
33376 On ch=4 n=43 v=0
33376 On ch=4 n=43 v=47
33380 Par ch=4 c=11 v=111
33384 On ch=4 n=43 v=0
33384 On ch=4 n=43 v=47
33392 On ch=4 n=43 v=0
33392 On ch=4 n=43 v=47
33396 Par ch=4 c=11 v=112
33400 On ch=4 n=43 v=0
33400 On ch=4 n=43 v=47
33408 On ch=4 n=43 v=0
33408 Par ch=4 c=11 v=64
33408 On ch=4 n=43 v=111
33485 On ch=4 n=43 v=0
34176 Par ch=4 c=11 v=64
34176 On ch=4 n=50 v=47
34184 On ch=4 n=50 v=0
34184 Par ch=4 c=11 v=65
34184 On ch=4 n=50 v=47
34192 On ch=4 n=50 v=0
34192 Par ch=4 c=11 v=66
34192 On ch=4 n=50 v=47
34200 On ch=4 n=50 v=0
34200 Par ch=4 c=11 v=67
34200 On ch=4 n=50 v=47
34208 On ch=4 n=50 v=0
34208 Par ch=4 c=11 v=68
34208 On ch=4 n=50 v=47
34216 On ch=4 n=50 v=0
34216 Par ch=4 c=11 v=69
34216 On ch=4 n=50 v=47
34224 On ch=4 n=50 v=0
34224 Par ch=4 c=11 v=70
34224 On ch=4 n=50 v=47
34232 On ch=4 n=50 v=0
34232 Par ch=4 c=11 v=71
34232 On ch=4 n=50 v=47
34240 On ch=4 n=50 v=0
34240 Par ch=4 c=11 v=72
34240 On ch=4 n=50 v=47
34248 On ch=4 n=50 v=0
34248 Par ch=4 c=11 v=73
34248 On ch=4 n=50 v=47
34256 On ch=4 n=50 v=0
34256 Par ch=4 c=11 v=74
34256 On ch=4 n=50 v=47
34264 On ch=4 n=50 v=0
34264 Par ch=4 c=11 v=75
34264 On ch=4 n=50 v=47
34272 On ch=4 n=50 v=0
34272 Par ch=4 c=11 v=76
34272 On ch=4 n=50 v=47
34280 On ch=4 n=50 v=0
34280 Par ch=4 c=11 v=77
34280 On ch=4 n=50 v=47
34288 On ch=4 n=50 v=0
34288 Par ch=4 c=11 v=78
34288 On ch=4 n=50 v=47
34296 On ch=4 n=50 v=0
34296 Par ch=4 c=11 v=79
34296 On ch=4 n=50 v=47
34304 On ch=4 n=50 v=0
34304 Par ch=4 c=11 v=80
34304 On ch=4 n=50 v=47
34312 On ch=4 n=50 v=0
34312 Par ch=4 c=11 v=81
34312 On ch=4 n=50 v=47
34320 On ch=4 n=50 v=0
34320 Par ch=4 c=11 v=82
34320 On ch=4 n=50 v=47
34328 On ch=4 n=50 v=0
34328 Par ch=4 c=11 v=83
34328 On ch=4 n=50 v=47
34336 On ch=4 n=50 v=0
34336 Par ch=4 c=11 v=84
34336 On ch=4 n=50 v=47
34344 On ch=4 n=50 v=0
34344 Par ch=4 c=11 v=85
34344 On ch=4 n=50 v=47
34352 On ch=4 n=50 v=0
34352 Par ch=4 c=11 v=86
34352 On ch=4 n=50 v=47
34360 On ch=4 n=50 v=0
34360 Par ch=4 c=11 v=87
34360 On ch=4 n=50 v=47
34368 On ch=4 n=50 v=0
34368 Par ch=4 c=11 v=88
34368 On ch=4 n=50 v=47
34372 Par ch=4 c=11 v=89
34376 On ch=4 n=50 v=0
34376 On ch=4 n=50 v=47
34380 Par ch=4 c=11 v=90
34384 On ch=4 n=50 v=0
34384 On ch=4 n=50 v=47
34388 Par ch=4 c=11 v=91
34392 On ch=4 n=50 v=0
34392 On ch=4 n=50 v=47
34396 Par ch=4 c=11 v=92
34400 On ch=4 n=50 v=0
34400 On ch=4 n=50 v=47
34404 Par ch=4 c=11 v=93
34408 On ch=4 n=50 v=0
34408 On ch=4 n=50 v=47
34412 Par ch=4 c=11 v=94
34416 On ch=4 n=50 v=0
34416 On ch=4 n=50 v=47
34420 Par ch=4 c=11 v=95
34424 On ch=4 n=50 v=0
34424 On ch=4 n=50 v=47
34428 Par ch=4 c=11 v=96
34432 On ch=4 n=50 v=0
34432 On ch=4 n=50 v=47
34436 Par ch=4 c=11 v=97
34440 On ch=4 n=50 v=0
34440 On ch=4 n=50 v=47
34444 Par ch=4 c=11 v=98
34448 On ch=4 n=50 v=0
34448 On ch=4 n=50 v=47
34452 Par ch=4 c=11 v=99
34456 On ch=4 n=50 v=0
34456 On ch=4 n=50 v=47
34460 Par ch=4 c=11 v=100
34464 On ch=4 n=50 v=0
34464 On ch=4 n=50 v=47
34468 Par ch=4 c=11 v=101
34472 On ch=4 n=50 v=0
34472 On ch=4 n=50 v=47
34476 Par ch=4 c=11 v=102
34480 On ch=4 n=50 v=0
34480 On ch=4 n=50 v=47
34484 Par ch=4 c=11 v=103
34488 On ch=4 n=50 v=0
34488 On ch=4 n=50 v=47
34492 Par ch=4 c=11 v=104
34496 On ch=4 n=50 v=0
34496 On ch=4 n=50 v=47
34500 Par ch=4 c=11 v=105
34504 On ch=4 n=50 v=0
34504 On ch=4 n=50 v=47
34508 Par ch=4 c=11 v=106
34512 On ch=4 n=50 v=0
34512 On ch=4 n=50 v=47
34516 Par ch=4 c=11 v=107
34520 On ch=4 n=50 v=0
34520 On ch=4 n=50 v=47
34524 Par ch=4 c=11 v=108
34528 On ch=4 n=50 v=0
34528 On ch=4 n=50 v=47
34532 Par ch=4 c=11 v=109
34536 On ch=4 n=50 v=0
34536 On ch=4 n=50 v=47
34540 Par ch=4 c=11 v=110
34544 On ch=4 n=50 v=0
34544 On ch=4 n=50 v=47
34548 Par ch=4 c=11 v=111
34552 On ch=4 n=50 v=0
34552 On ch=4 n=50 v=47
34556 Par ch=4 c=11 v=112
34560 On ch=4 n=50 v=0
34944 Par ch=4 c=11 v=64
34944 On ch=4 n=50 v=47
34952 On ch=4 n=50 v=0
34952 Par ch=4 c=11 v=65
34952 On ch=4 n=50 v=47
34960 On ch=4 n=50 v=0
34960 Par ch=4 c=11 v=66
34960 On ch=4 n=50 v=47
34968 On ch=4 n=50 v=0
34968 Par ch=4 c=11 v=67
34968 On ch=4 n=50 v=47
34976 On ch=4 n=50 v=0
34976 Par ch=4 c=11 v=68
34976 On ch=4 n=50 v=47
34984 On ch=4 n=50 v=0
34984 Par ch=4 c=11 v=69
34984 On ch=4 n=50 v=47
34992 On ch=4 n=50 v=0
34992 Par ch=4 c=11 v=70
34992 On ch=4 n=50 v=47
35000 On ch=4 n=50 v=0
35000 Par ch=4 c=11 v=71
35000 On ch=4 n=50 v=47
35008 On ch=4 n=50 v=0
35008 Par ch=4 c=11 v=72
35008 On ch=4 n=50 v=47
35016 On ch=4 n=50 v=0
35016 Par ch=4 c=11 v=73
35016 On ch=4 n=50 v=47
35024 On ch=4 n=50 v=0
35024 Par ch=4 c=11 v=74
35024 On ch=4 n=50 v=47
35032 On ch=4 n=50 v=0
35032 Par ch=4 c=11 v=75
35032 On ch=4 n=50 v=47
35040 On ch=4 n=50 v=0
35040 Par ch=4 c=11 v=76
35040 On ch=4 n=50 v=47
35048 On ch=4 n=50 v=0
35048 Par ch=4 c=11 v=77
35048 On ch=4 n=50 v=47
35056 On ch=4 n=50 v=0
35056 Par ch=4 c=11 v=78
35056 On ch=4 n=50 v=47
35064 On ch=4 n=50 v=0
35064 Par ch=4 c=11 v=79
35064 On ch=4 n=50 v=47
35072 On ch=4 n=50 v=0
35072 Par ch=4 c=11 v=80
35072 On ch=4 n=50 v=47
35080 On ch=4 n=50 v=0
35080 Par ch=4 c=11 v=81
35080 On ch=4 n=50 v=47
35088 On ch=4 n=50 v=0
35088 Par ch=4 c=11 v=82
35088 On ch=4 n=50 v=47
35096 On ch=4 n=50 v=0
35096 Par ch=4 c=11 v=83
35096 On ch=4 n=50 v=47
35104 On ch=4 n=50 v=0
35104 Par ch=4 c=11 v=84
35104 On ch=4 n=50 v=47
35112 On ch=4 n=50 v=0
35112 Par ch=4 c=11 v=85
35112 On ch=4 n=50 v=47
35120 On ch=4 n=50 v=0
35120 Par ch=4 c=11 v=86
35120 On ch=4 n=50 v=47
35128 On ch=4 n=50 v=0
35128 Par ch=4 c=11 v=87
35128 On ch=4 n=50 v=47
35136 On ch=4 n=50 v=0
35136 Par ch=4 c=11 v=88
35136 On ch=4 n=50 v=47
35140 Par ch=4 c=11 v=89
35144 On ch=4 n=50 v=0
35144 On ch=4 n=50 v=47
35148 Par ch=4 c=11 v=90
35152 On ch=4 n=50 v=0
35152 On ch=4 n=50 v=47
35156 Par ch=4 c=11 v=91
35160 On ch=4 n=50 v=0
35160 On ch=4 n=50 v=47
35164 Par ch=4 c=11 v=92
35168 On ch=4 n=50 v=0
35168 On ch=4 n=50 v=47
35172 Par ch=4 c=11 v=93
35176 On ch=4 n=50 v=0
35176 On ch=4 n=50 v=47
35180 Par ch=4 c=11 v=94
35184 On ch=4 n=50 v=0
35184 On ch=4 n=50 v=47
35188 Par ch=4 c=11 v=95
35192 On ch=4 n=50 v=0
35192 On ch=4 n=50 v=47
35196 Par ch=4 c=11 v=96
35200 On ch=4 n=50 v=0
35200 On ch=4 n=50 v=47
35204 Par ch=4 c=11 v=97
35208 On ch=4 n=50 v=0
35208 On ch=4 n=50 v=47
35212 Par ch=4 c=11 v=98
35216 On ch=4 n=50 v=0
35216 On ch=4 n=50 v=47
35220 Par ch=4 c=11 v=99
35224 On ch=4 n=50 v=0
35224 On ch=4 n=50 v=47
35228 Par ch=4 c=11 v=100
35232 On ch=4 n=50 v=0
35232 On ch=4 n=50 v=47
35236 Par ch=4 c=11 v=101
35240 On ch=4 n=50 v=0
35240 On ch=4 n=50 v=47
35244 Par ch=4 c=11 v=102
35248 On ch=4 n=50 v=0
35248 On ch=4 n=50 v=47
35252 Par ch=4 c=11 v=103
35256 On ch=4 n=50 v=0
35256 On ch=4 n=50 v=47
35260 Par ch=4 c=11 v=104
35264 On ch=4 n=50 v=0
35264 On ch=4 n=50 v=47
35268 Par ch=4 c=11 v=105
35272 On ch=4 n=50 v=0
35272 On ch=4 n=50 v=47
35276 Par ch=4 c=11 v=106
35280 On ch=4 n=50 v=0
35280 On ch=4 n=50 v=47
35284 Par ch=4 c=11 v=107
35288 On ch=4 n=50 v=0
35288 On ch=4 n=50 v=47
35292 Par ch=4 c=11 v=108
35296 On ch=4 n=50 v=0
35296 On ch=4 n=50 v=47
35300 Par ch=4 c=11 v=109
35304 On ch=4 n=50 v=0
35304 On ch=4 n=50 v=47
35308 Par ch=4 c=11 v=110
35312 On ch=4 n=50 v=0
35312 On ch=4 n=50 v=47
35316 Par ch=4 c=11 v=111
35320 On ch=4 n=50 v=0
35320 On ch=4 n=50 v=47
35324 Par ch=4 c=11 v=112
35328 On ch=4 n=50 v=0
35712 Par ch=4 c=11 v=64
35712 On ch=4 n=50 v=95
35789 On ch=4 n=50 v=0
36096 On ch=4 n=50 v=95
36173 On ch=4 n=50 v=0
36480 On ch=4 n=50 v=79
36557 On ch=4 n=50 v=0
36672 On ch=4 n=50 v=63
36749 On ch=4 n=50 v=0
36864 On ch=4 n=50 v=47
36941 On ch=4 n=50 v=0
37056 On ch=4 n=50 v=39
37133 On ch=4 n=50 v=0
37248 On ch=4 n=50 v=31
37325 On ch=4 n=50 v=0
38784 On ch=4 n=43 v=31
38792 On ch=4 n=43 v=0
38792 On ch=4 n=43 v=31
38800 On ch=4 n=43 v=0
38800 On ch=4 n=43 v=31
38808 On ch=4 n=43 v=0
38808 On ch=4 n=43 v=31
38816 On ch=4 n=43 v=0
38816 On ch=4 n=43 v=31
38824 On ch=4 n=43 v=0
38824 On ch=4 n=43 v=31
38832 On ch=4 n=43 v=0
38832 On ch=4 n=43 v=31
38840 On ch=4 n=43 v=0
38840 On ch=4 n=43 v=31
38848 On ch=4 n=43 v=0
38848 On ch=4 n=43 v=31
38856 On ch=4 n=43 v=0
38856 On ch=4 n=43 v=31
38864 On ch=4 n=43 v=0
38864 On ch=4 n=43 v=31
38872 On ch=4 n=43 v=0
38872 On ch=4 n=43 v=31
38880 On ch=4 n=43 v=0
38880 On ch=4 n=43 v=31
38888 On ch=4 n=43 v=0
38888 On ch=4 n=43 v=31
38896 On ch=4 n=43 v=0
38896 On ch=4 n=43 v=31
38904 On ch=4 n=43 v=0
38904 On ch=4 n=43 v=31
38912 On ch=4 n=43 v=0
38912 On ch=4 n=43 v=31
38920 On ch=4 n=43 v=0
38920 On ch=4 n=43 v=31
38928 On ch=4 n=43 v=0
38928 On ch=4 n=43 v=31
38936 On ch=4 n=43 v=0
38936 On ch=4 n=43 v=31
38944 On ch=4 n=43 v=0
38944 On ch=4 n=43 v=31
38952 On ch=4 n=43 v=0
38952 On ch=4 n=43 v=31
38960 On ch=4 n=43 v=0
38960 On ch=4 n=43 v=31
38968 On ch=4 n=43 v=0
38968 On ch=4 n=43 v=31
38976 On ch=4 n=43 v=0
38976 On ch=4 n=43 v=31
38984 On ch=4 n=43 v=0
38984 On ch=4 n=43 v=31
38992 On ch=4 n=43 v=0
38992 On ch=4 n=43 v=31
39000 On ch=4 n=43 v=0
39000 On ch=4 n=43 v=31
39008 On ch=4 n=43 v=0
39008 On ch=4 n=43 v=31
39016 On ch=4 n=43 v=0
39016 On ch=4 n=43 v=31
39024 On ch=4 n=43 v=0
39024 On ch=4 n=43 v=31
39032 On ch=4 n=43 v=0
39032 On ch=4 n=43 v=31
39040 On ch=4 n=43 v=0
39040 On ch=4 n=43 v=31
39048 On ch=4 n=43 v=0
39048 On ch=4 n=43 v=31
39056 On ch=4 n=43 v=0
39056 On ch=4 n=43 v=31
39064 On ch=4 n=43 v=0
39064 On ch=4 n=43 v=31
39072 On ch=4 n=43 v=0
39072 On ch=4 n=43 v=31
39080 On ch=4 n=43 v=0
39080 On ch=4 n=43 v=31
39088 On ch=4 n=43 v=0
39088 On ch=4 n=43 v=31
39096 On ch=4 n=43 v=0
39096 On ch=4 n=43 v=31
39104 On ch=4 n=43 v=0
39104 On ch=4 n=43 v=31
39112 On ch=4 n=43 v=0
39112 On ch=4 n=43 v=31
39120 On ch=4 n=43 v=0
39120 On ch=4 n=43 v=31
39128 On ch=4 n=43 v=0
39128 On ch=4 n=43 v=31
39136 On ch=4 n=43 v=0
39136 On ch=4 n=43 v=31
39144 On ch=4 n=43 v=0
39144 On ch=4 n=43 v=31
39152 On ch=4 n=43 v=0
39152 On ch=4 n=43 v=31
39160 On ch=4 n=43 v=0
39160 On ch=4 n=43 v=31
39168 On ch=4 n=43 v=0
39168 On ch=4 n=43 v=31
39176 On ch=4 n=43 v=0
39176 On ch=4 n=43 v=31
39184 On ch=4 n=43 v=0
39184 On ch=4 n=43 v=31
39192 On ch=4 n=43 v=0
39192 On ch=4 n=43 v=31
39200 On ch=4 n=43 v=0
39200 On ch=4 n=43 v=31
39208 On ch=4 n=43 v=0
39208 On ch=4 n=43 v=31
39216 On ch=4 n=43 v=0
39216 On ch=4 n=43 v=31
39224 On ch=4 n=43 v=0
39224 On ch=4 n=43 v=31
39232 On ch=4 n=43 v=0
39232 On ch=4 n=43 v=31
39240 On ch=4 n=43 v=0
39240 On ch=4 n=43 v=31
39248 On ch=4 n=43 v=0
39248 On ch=4 n=43 v=31
39256 On ch=4 n=43 v=0
39256 On ch=4 n=43 v=31
39264 On ch=4 n=43 v=0
39264 On ch=4 n=43 v=31
39272 On ch=4 n=43 v=0
39272 On ch=4 n=43 v=31
39280 On ch=4 n=43 v=0
39280 On ch=4 n=43 v=31
39288 On ch=4 n=43 v=0
39288 On ch=4 n=43 v=31
39296 On ch=4 n=43 v=0
39296 On ch=4 n=43 v=31
39304 On ch=4 n=43 v=0
39304 On ch=4 n=43 v=31
39312 On ch=4 n=43 v=0
39312 On ch=4 n=43 v=31
39320 On ch=4 n=43 v=0
39320 On ch=4 n=43 v=31
39328 On ch=4 n=43 v=0
39328 On ch=4 n=43 v=31
39336 On ch=4 n=43 v=0
39336 On ch=4 n=43 v=31
39344 On ch=4 n=43 v=0
39344 On ch=4 n=43 v=31
39352 On ch=4 n=43 v=0
39352 On ch=4 n=43 v=31
39360 On ch=4 n=43 v=0
39360 On ch=4 n=43 v=31
39368 On ch=4 n=43 v=0
39368 On ch=4 n=43 v=31
39376 On ch=4 n=43 v=0
39376 On ch=4 n=43 v=31
39384 On ch=4 n=43 v=0
39384 On ch=4 n=43 v=31
39392 On ch=4 n=43 v=0
39392 On ch=4 n=43 v=31
39400 On ch=4 n=43 v=0
39400 On ch=4 n=43 v=31
39408 On ch=4 n=43 v=0
39408 On ch=4 n=43 v=31
39416 On ch=4 n=43 v=0
39416 On ch=4 n=43 v=31
39424 On ch=4 n=43 v=0
39424 On ch=4 n=43 v=31
39432 On ch=4 n=43 v=0
39432 On ch=4 n=43 v=31
39440 On ch=4 n=43 v=0
39440 On ch=4 n=43 v=31
39448 On ch=4 n=43 v=0
39448 On ch=4 n=43 v=31
39456 On ch=4 n=43 v=0
39456 On ch=4 n=43 v=31
39464 On ch=4 n=43 v=0
39464 On ch=4 n=43 v=31
39472 On ch=4 n=43 v=0
39472 On ch=4 n=43 v=31
39480 On ch=4 n=43 v=0
39480 On ch=4 n=43 v=31
39488 On ch=4 n=43 v=0
39488 On ch=4 n=43 v=31
39496 On ch=4 n=43 v=0
39496 On ch=4 n=43 v=31
39504 On ch=4 n=43 v=0
39504 On ch=4 n=43 v=31
39512 On ch=4 n=43 v=0
39512 On ch=4 n=43 v=31
39520 On ch=4 n=43 v=0
39520 On ch=4 n=43 v=31
39528 On ch=4 n=43 v=0
39528 On ch=4 n=43 v=31
39536 On ch=4 n=43 v=0
39536 On ch=4 n=43 v=31
39544 On ch=4 n=43 v=0
39544 On ch=4 n=43 v=31
39552 On ch=4 n=43 v=0
39552 Par ch=4 c=11 v=64
39552 On ch=4 n=43 v=31
39560 On ch=4 n=43 v=0
39560 On ch=4 n=43 v=31
39568 On ch=4 n=43 v=0
39568 On ch=4 n=43 v=31
39576 On ch=4 n=43 v=0
39576 Par ch=4 c=11 v=63
39576 On ch=4 n=43 v=31
39584 On ch=4 n=43 v=0
39584 On ch=4 n=43 v=31
39592 On ch=4 n=43 v=0
39592 On ch=4 n=43 v=31
39600 On ch=4 n=43 v=0
39600 Par ch=4 c=11 v=62
39600 On ch=4 n=43 v=31
39608 On ch=4 n=43 v=0
39608 On ch=4 n=43 v=31
39616 On ch=4 n=43 v=0
39616 On ch=4 n=43 v=31
39620 Par ch=4 c=11 v=61
39624 On ch=4 n=43 v=0
39624 On ch=4 n=43 v=31
39632 On ch=4 n=43 v=0
39632 On ch=4 n=43 v=31
39640 On ch=4 n=43 v=0
39640 On ch=4 n=43 v=31
39644 Par ch=4 c=11 v=60
39648 On ch=4 n=43 v=0
39648 On ch=4 n=43 v=31
39656 On ch=4 n=43 v=0
39656 On ch=4 n=43 v=31
39664 On ch=4 n=43 v=0
39664 On ch=4 n=43 v=31
39668 Par ch=4 c=11 v=59
39672 On ch=4 n=43 v=0
39672 On ch=4 n=43 v=31
39680 On ch=4 n=43 v=0
39680 On ch=4 n=43 v=31
39688 On ch=4 n=43 v=0
39688 Par ch=4 c=11 v=58
39688 On ch=4 n=43 v=31
39696 On ch=4 n=43 v=0
39696 On ch=4 n=43 v=31
39704 On ch=4 n=43 v=0
39704 On ch=4 n=43 v=31
39712 On ch=4 n=43 v=0
39712 Par ch=4 c=11 v=57
39712 On ch=4 n=43 v=31
39720 On ch=4 n=43 v=0
39720 On ch=4 n=43 v=31
39728 On ch=4 n=43 v=0
39728 On ch=4 n=43 v=31
39736 On ch=4 n=43 v=0
39736 Par ch=4 c=11 v=56
39736 On ch=4 n=43 v=31
39744 On ch=4 n=43 v=0
39744 On ch=4 n=43 v=31
39752 On ch=4 n=43 v=0
39752 On ch=4 n=43 v=31
39756 Par ch=4 c=11 v=55
39760 On ch=4 n=43 v=0
39760 On ch=4 n=43 v=31
39768 On ch=4 n=43 v=0
39768 On ch=4 n=43 v=31
39776 On ch=4 n=43 v=0
39776 On ch=4 n=43 v=31
39780 Par ch=4 c=11 v=54
39784 On ch=4 n=43 v=0
39784 On ch=4 n=43 v=31
39792 On ch=4 n=43 v=0
39792 On ch=4 n=43 v=31
39800 On ch=4 n=43 v=0
39800 On ch=4 n=43 v=31
39804 Par ch=4 c=11 v=53
39808 On ch=4 n=43 v=0
39808 On ch=4 n=43 v=31
39816 On ch=4 n=43 v=0
39816 On ch=4 n=43 v=31
39824 On ch=4 n=43 v=0
39824 Par ch=4 c=11 v=52
39824 On ch=4 n=43 v=31
39832 On ch=4 n=43 v=0
39832 On ch=4 n=43 v=31
39840 On ch=4 n=43 v=0
39840 On ch=4 n=43 v=31
39848 On ch=4 n=43 v=0
39848 Par ch=4 c=11 v=51
39848 On ch=4 n=43 v=31
39856 On ch=4 n=43 v=0
39856 On ch=4 n=43 v=31
39864 On ch=4 n=43 v=0
39864 On ch=4 n=43 v=31
39872 On ch=4 n=43 v=0
39872 Par ch=4 c=11 v=50
39872 On ch=4 n=43 v=31
39880 On ch=4 n=43 v=0
39880 On ch=4 n=43 v=31
39888 On ch=4 n=43 v=0
39888 On ch=4 n=43 v=31
39892 Par ch=4 c=11 v=49
39896 On ch=4 n=43 v=0
39896 On ch=4 n=43 v=31
39904 On ch=4 n=43 v=0
39904 On ch=4 n=43 v=31
39912 On ch=4 n=43 v=0
39912 On ch=4 n=43 v=31
39916 Par ch=4 c=11 v=48
39920 On ch=4 n=43 v=0
39920 On ch=4 n=43 v=31
39928 On ch=4 n=43 v=0
39928 On ch=4 n=43 v=31
39936 On ch=4 n=43 v=0
39936 Par ch=4 c=11 v=64
39936 On ch=4 n=43 v=15
39974 On ch=4 n=43 v=0
41856 On ch=4 n=43 v=31
41864 On ch=4 n=43 v=0
41864 On ch=4 n=43 v=31
41872 On ch=4 n=43 v=0
41872 On ch=4 n=43 v=31
41880 On ch=4 n=43 v=0
41880 On ch=4 n=43 v=31
41888 On ch=4 n=43 v=0
41888 On ch=4 n=43 v=31
41896 On ch=4 n=43 v=0
41896 On ch=4 n=43 v=31
41904 On ch=4 n=43 v=0
41904 On ch=4 n=43 v=31
41912 On ch=4 n=43 v=0
41912 On ch=4 n=43 v=31
41920 On ch=4 n=43 v=0
41920 On ch=4 n=43 v=31
41928 On ch=4 n=43 v=0
41928 On ch=4 n=43 v=31
41936 On ch=4 n=43 v=0
41936 On ch=4 n=43 v=31
41944 On ch=4 n=43 v=0
41944 On ch=4 n=43 v=31
41952 On ch=4 n=43 v=0
41952 On ch=4 n=43 v=31
41960 On ch=4 n=43 v=0
41960 On ch=4 n=43 v=31
41968 On ch=4 n=43 v=0
41968 On ch=4 n=43 v=31
41976 On ch=4 n=43 v=0
41976 On ch=4 n=43 v=31
41984 On ch=4 n=43 v=0
41984 On ch=4 n=43 v=31
41992 On ch=4 n=43 v=0
41992 On ch=4 n=43 v=31
42000 On ch=4 n=43 v=0
42000 On ch=4 n=43 v=31
42008 On ch=4 n=43 v=0
42008 On ch=4 n=43 v=31
42016 On ch=4 n=43 v=0
42016 On ch=4 n=43 v=31
42024 On ch=4 n=43 v=0
42024 On ch=4 n=43 v=31
42032 On ch=4 n=43 v=0
42032 On ch=4 n=43 v=31
42040 On ch=4 n=43 v=0
42040 On ch=4 n=43 v=31
42048 On ch=4 n=43 v=0
42048 On ch=4 n=43 v=31
42056 On ch=4 n=43 v=0
42056 On ch=4 n=43 v=31
42064 On ch=4 n=43 v=0
42064 On ch=4 n=43 v=31
42072 On ch=4 n=43 v=0
42072 On ch=4 n=43 v=31
42080 On ch=4 n=43 v=0
42080 On ch=4 n=43 v=31
42088 On ch=4 n=43 v=0
42088 On ch=4 n=43 v=31
42096 On ch=4 n=43 v=0
42096 On ch=4 n=43 v=31
42104 On ch=4 n=43 v=0
42104 On ch=4 n=43 v=31
42112 On ch=4 n=43 v=0
42112 On ch=4 n=43 v=31
42120 On ch=4 n=43 v=0
42120 On ch=4 n=43 v=31
42128 On ch=4 n=43 v=0
42128 On ch=4 n=43 v=31
42136 On ch=4 n=43 v=0
42136 On ch=4 n=43 v=31
42144 On ch=4 n=43 v=0
42144 On ch=4 n=43 v=31
42152 On ch=4 n=43 v=0
42152 On ch=4 n=43 v=31
42160 On ch=4 n=43 v=0
42160 On ch=4 n=43 v=31
42168 On ch=4 n=43 v=0
42168 On ch=4 n=43 v=31
42176 On ch=4 n=43 v=0
42176 On ch=4 n=43 v=31
42184 On ch=4 n=43 v=0
42184 On ch=4 n=43 v=31
42192 On ch=4 n=43 v=0
42192 On ch=4 n=43 v=31
42200 On ch=4 n=43 v=0
42200 On ch=4 n=43 v=31
42208 On ch=4 n=43 v=0
42208 On ch=4 n=43 v=31
42216 On ch=4 n=43 v=0
42216 On ch=4 n=43 v=31
42224 On ch=4 n=43 v=0
42224 On ch=4 n=43 v=31
42232 On ch=4 n=43 v=0
42232 On ch=4 n=43 v=31
42240 On ch=4 n=43 v=0
42624 On ch=4 n=43 v=15
42632 On ch=4 n=43 v=0
42632 On ch=4 n=43 v=15
42640 On ch=4 n=43 v=0
42640 On ch=4 n=43 v=15
42648 On ch=4 n=43 v=0
42648 On ch=4 n=43 v=15
42656 On ch=4 n=43 v=0
42656 On ch=4 n=43 v=15
42664 On ch=4 n=43 v=0
42664 On ch=4 n=43 v=15
42672 On ch=4 n=43 v=0
42672 On ch=4 n=43 v=15
42680 On ch=4 n=43 v=0
42680 On ch=4 n=43 v=15
42688 On ch=4 n=43 v=0
42688 On ch=4 n=43 v=15
42696 On ch=4 n=43 v=0
42696 On ch=4 n=43 v=15
42704 On ch=4 n=43 v=0
42704 On ch=4 n=43 v=15
42712 On ch=4 n=43 v=0
42712 On ch=4 n=43 v=15
42720 On ch=4 n=43 v=0
42720 On ch=4 n=43 v=15
42728 On ch=4 n=43 v=0
42728 On ch=4 n=43 v=15
42736 On ch=4 n=43 v=0
42736 On ch=4 n=43 v=15
42744 On ch=4 n=43 v=0
42744 On ch=4 n=43 v=15
42752 On ch=4 n=43 v=0
42752 On ch=4 n=43 v=15
42760 On ch=4 n=43 v=0
42760 On ch=4 n=43 v=15
42768 On ch=4 n=43 v=0
42768 On ch=4 n=43 v=15
42776 On ch=4 n=43 v=0
42776 On ch=4 n=43 v=15
42784 On ch=4 n=43 v=0
42784 On ch=4 n=43 v=15
42792 On ch=4 n=43 v=0
42792 On ch=4 n=43 v=15
42800 On ch=4 n=43 v=0
42800 On ch=4 n=43 v=15
42808 On ch=4 n=43 v=0
42808 On ch=4 n=43 v=15
42816 On ch=4 n=43 v=0
42816 On ch=4 n=43 v=15
42824 On ch=4 n=43 v=0
42824 On ch=4 n=43 v=15
42832 On ch=4 n=43 v=0
42832 On ch=4 n=43 v=15
42840 On ch=4 n=43 v=0
42840 On ch=4 n=43 v=15
42848 On ch=4 n=43 v=0
42848 On ch=4 n=43 v=15
42856 On ch=4 n=43 v=0
42856 On ch=4 n=43 v=15
42864 On ch=4 n=43 v=0
42864 On ch=4 n=43 v=15
42872 On ch=4 n=43 v=0
42872 On ch=4 n=43 v=15
42880 On ch=4 n=43 v=0
42880 On ch=4 n=43 v=15
42888 On ch=4 n=43 v=0
42888 On ch=4 n=43 v=15
42896 On ch=4 n=43 v=0
42896 On ch=4 n=43 v=15
42904 On ch=4 n=43 v=0
42904 On ch=4 n=43 v=15
42912 On ch=4 n=43 v=0
42912 On ch=4 n=43 v=15
42920 On ch=4 n=43 v=0
42920 On ch=4 n=43 v=15
42928 On ch=4 n=43 v=0
42928 On ch=4 n=43 v=15
42936 On ch=4 n=43 v=0
42936 On ch=4 n=43 v=15
42944 On ch=4 n=43 v=0
42944 On ch=4 n=43 v=15
42952 On ch=4 n=43 v=0
42952 On ch=4 n=43 v=15
42960 On ch=4 n=43 v=0
42960 On ch=4 n=43 v=15
42968 On ch=4 n=43 v=0
42968 On ch=4 n=43 v=15
42976 On ch=4 n=43 v=0
42976 On ch=4 n=43 v=15
42984 On ch=4 n=43 v=0
42984 On ch=4 n=43 v=15
42992 On ch=4 n=43 v=0
42992 On ch=4 n=43 v=15
43000 On ch=4 n=43 v=0
43000 On ch=4 n=43 v=15
43008 On ch=4 n=43 v=0
44928 On ch=4 n=43 v=15
44936 On ch=4 n=43 v=0
44936 On ch=4 n=43 v=15
44944 On ch=4 n=43 v=0
44944 On ch=4 n=43 v=15
44952 On ch=4 n=43 v=0
44952 On ch=4 n=43 v=15
44960 On ch=4 n=43 v=0
44960 On ch=4 n=43 v=15
44968 On ch=4 n=43 v=0
44968 On ch=4 n=43 v=15
44976 On ch=4 n=43 v=0
44976 On ch=4 n=43 v=15
44984 On ch=4 n=43 v=0
44984 On ch=4 n=43 v=15
44992 On ch=4 n=43 v=0
44992 On ch=4 n=43 v=15
45000 On ch=4 n=43 v=0
45000 On ch=4 n=43 v=15
45008 On ch=4 n=43 v=0
45008 On ch=4 n=43 v=15
45016 On ch=4 n=43 v=0
45016 On ch=4 n=43 v=15
45024 On ch=4 n=43 v=0
45024 On ch=4 n=43 v=15
45032 On ch=4 n=43 v=0
45032 On ch=4 n=43 v=15
45040 On ch=4 n=43 v=0
45040 On ch=4 n=43 v=15
45048 On ch=4 n=43 v=0
45048 On ch=4 n=43 v=15
45056 On ch=4 n=43 v=0
45056 On ch=4 n=43 v=15
45064 On ch=4 n=43 v=0
45064 On ch=4 n=43 v=15
45072 On ch=4 n=43 v=0
45072 On ch=4 n=43 v=15
45080 On ch=4 n=43 v=0
45080 On ch=4 n=43 v=15
45088 On ch=4 n=43 v=0
45088 On ch=4 n=43 v=15
45096 On ch=4 n=43 v=0
45096 On ch=4 n=43 v=15
45104 On ch=4 n=43 v=0
45104 On ch=4 n=43 v=15
45112 On ch=4 n=43 v=0
45112 On ch=4 n=43 v=15
45120 On ch=4 n=43 v=0
45120 On ch=4 n=43 v=15
45128 On ch=4 n=43 v=0
45128 On ch=4 n=43 v=15
45136 On ch=4 n=43 v=0
45136 On ch=4 n=43 v=15
45144 On ch=4 n=43 v=0
45144 On ch=4 n=43 v=15
45152 On ch=4 n=43 v=0
45152 On ch=4 n=43 v=15
45160 On ch=4 n=43 v=0
45160 On ch=4 n=43 v=15
45168 On ch=4 n=43 v=0
45168 On ch=4 n=43 v=15
45176 On ch=4 n=43 v=0
45176 On ch=4 n=43 v=15
45184 On ch=4 n=43 v=0
45184 On ch=4 n=43 v=15
45192 On ch=4 n=43 v=0
45192 On ch=4 n=43 v=15
45200 On ch=4 n=43 v=0
45200 On ch=4 n=43 v=15
45208 On ch=4 n=43 v=0
45208 On ch=4 n=43 v=15
45216 On ch=4 n=43 v=0
45216 On ch=4 n=43 v=15
45224 On ch=4 n=43 v=0
45224 On ch=4 n=43 v=15
45232 On ch=4 n=43 v=0
45232 On ch=4 n=43 v=15
45240 On ch=4 n=43 v=0
45240 On ch=4 n=43 v=15
45248 On ch=4 n=43 v=0
45248 On ch=4 n=43 v=15
45256 On ch=4 n=43 v=0
45256 On ch=4 n=43 v=15
45264 On ch=4 n=43 v=0
45264 On ch=4 n=43 v=15
45272 On ch=4 n=43 v=0
45272 On ch=4 n=43 v=15
45280 On ch=4 n=43 v=0
45280 On ch=4 n=43 v=15
45288 On ch=4 n=43 v=0
45288 On ch=4 n=43 v=15
45296 On ch=4 n=43 v=0
45296 On ch=4 n=43 v=15
45304 On ch=4 n=43 v=0
45304 On ch=4 n=43 v=15
45312 On ch=4 n=43 v=0
45312 On ch=4 n=43 v=15
45320 On ch=4 n=43 v=0
45320 On ch=4 n=43 v=15
45328 On ch=4 n=43 v=0
45328 On ch=4 n=43 v=15
45336 On ch=4 n=43 v=0
45336 On ch=4 n=43 v=15
45344 On ch=4 n=43 v=0
45344 On ch=4 n=43 v=15
45352 On ch=4 n=43 v=0
45352 On ch=4 n=43 v=15
45360 On ch=4 n=43 v=0
45360 On ch=4 n=43 v=15
45368 On ch=4 n=43 v=0
45368 On ch=4 n=43 v=15
45376 On ch=4 n=43 v=0
45376 On ch=4 n=43 v=15
45384 On ch=4 n=43 v=0
45384 On ch=4 n=43 v=15
45392 On ch=4 n=43 v=0
45392 On ch=4 n=43 v=15
45400 On ch=4 n=43 v=0
45400 On ch=4 n=43 v=15
45408 On ch=4 n=43 v=0
45408 On ch=4 n=43 v=15
45416 On ch=4 n=43 v=0
45416 On ch=4 n=43 v=15
45424 On ch=4 n=43 v=0
45424 On ch=4 n=43 v=15
45432 On ch=4 n=43 v=0
45432 On ch=4 n=43 v=15
45440 On ch=4 n=43 v=0
45440 On ch=4 n=43 v=15
45448 On ch=4 n=43 v=0
45448 On ch=4 n=43 v=15
45456 On ch=4 n=43 v=0
45456 On ch=4 n=43 v=15
45464 On ch=4 n=43 v=0
45464 On ch=4 n=43 v=15
45472 On ch=4 n=43 v=0
45472 On ch=4 n=43 v=15
45480 On ch=4 n=43 v=0
45480 On ch=4 n=43 v=15
45488 On ch=4 n=43 v=0
45488 On ch=4 n=43 v=15
45496 On ch=4 n=43 v=0
45496 On ch=4 n=43 v=15
45504 On ch=4 n=43 v=0
45504 On ch=4 n=43 v=15
45512 On ch=4 n=43 v=0
45512 On ch=4 n=43 v=15
45520 On ch=4 n=43 v=0
45520 On ch=4 n=43 v=15
45528 On ch=4 n=43 v=0
45528 On ch=4 n=43 v=15
45536 On ch=4 n=43 v=0
45536 On ch=4 n=43 v=15
45544 On ch=4 n=43 v=0
45544 On ch=4 n=43 v=15
45552 On ch=4 n=43 v=0
45552 On ch=4 n=43 v=15
45560 On ch=4 n=43 v=0
45560 On ch=4 n=43 v=15
45568 On ch=4 n=43 v=0
45568 On ch=4 n=43 v=15
45576 On ch=4 n=43 v=0
45576 On ch=4 n=43 v=15
45584 On ch=4 n=43 v=0
45584 On ch=4 n=43 v=15
45592 On ch=4 n=43 v=0
45592 On ch=4 n=43 v=15
45600 On ch=4 n=43 v=0
45600 On ch=4 n=43 v=15
45608 On ch=4 n=43 v=0
45608 On ch=4 n=43 v=15
45616 On ch=4 n=43 v=0
45616 On ch=4 n=43 v=15
45624 On ch=4 n=43 v=0
45624 On ch=4 n=43 v=15
45632 On ch=4 n=43 v=0
45632 On ch=4 n=43 v=15
45640 On ch=4 n=43 v=0
45640 On ch=4 n=43 v=15
45648 On ch=4 n=43 v=0
45648 On ch=4 n=43 v=15
45656 On ch=4 n=43 v=0
45656 On ch=4 n=43 v=15
45664 On ch=4 n=43 v=0
45664 On ch=4 n=43 v=15
45672 On ch=4 n=43 v=0
45672 On ch=4 n=43 v=15
45680 On ch=4 n=43 v=0
45680 On ch=4 n=43 v=15
45688 On ch=4 n=43 v=0
45688 On ch=4 n=43 v=15
45696 On ch=4 n=43 v=0
45696 On ch=4 n=43 v=15
45704 On ch=4 n=43 v=0
45704 On ch=4 n=43 v=15
45712 On ch=4 n=43 v=0
45712 On ch=4 n=43 v=15
45720 On ch=4 n=43 v=0
45720 On ch=4 n=43 v=15
45728 On ch=4 n=43 v=0
45728 On ch=4 n=43 v=15
45736 On ch=4 n=43 v=0
45736 On ch=4 n=43 v=15
45744 On ch=4 n=43 v=0
45744 On ch=4 n=43 v=15
45752 On ch=4 n=43 v=0
45752 On ch=4 n=43 v=15
45760 On ch=4 n=43 v=0
45760 On ch=4 n=43 v=15
45768 On ch=4 n=43 v=0
45768 On ch=4 n=43 v=15
45776 On ch=4 n=43 v=0
45776 On ch=4 n=43 v=15
45784 On ch=4 n=43 v=0
45784 On ch=4 n=43 v=15
45792 On ch=4 n=43 v=0
45792 On ch=4 n=43 v=15
45800 On ch=4 n=43 v=0
45800 On ch=4 n=43 v=15
45808 On ch=4 n=43 v=0
45808 On ch=4 n=43 v=15
45816 On ch=4 n=43 v=0
45816 On ch=4 n=43 v=15
45824 On ch=4 n=43 v=0
45824 On ch=4 n=43 v=15
45832 On ch=4 n=43 v=0
45832 On ch=4 n=43 v=15
45840 On ch=4 n=43 v=0
45840 On ch=4 n=43 v=15
45848 On ch=4 n=43 v=0
45848 On ch=4 n=43 v=15
45856 On ch=4 n=43 v=0
45856 On ch=4 n=43 v=15
45864 On ch=4 n=43 v=0
45864 On ch=4 n=43 v=15
45872 On ch=4 n=43 v=0
45872 On ch=4 n=43 v=15
45880 On ch=4 n=43 v=0
45880 On ch=4 n=43 v=15
45888 On ch=4 n=43 v=0
45888 On ch=4 n=43 v=15
45896 On ch=4 n=43 v=0
45896 On ch=4 n=43 v=15
45904 On ch=4 n=43 v=0
45904 On ch=4 n=43 v=15
45912 On ch=4 n=43 v=0
45912 On ch=4 n=43 v=15
45920 On ch=4 n=43 v=0
45920 On ch=4 n=43 v=15
45928 On ch=4 n=43 v=0
45928 On ch=4 n=43 v=15
45936 On ch=4 n=43 v=0
45936 On ch=4 n=43 v=15
45944 On ch=4 n=43 v=0
45944 On ch=4 n=43 v=15
45952 On ch=4 n=43 v=0
45952 On ch=4 n=43 v=15
45960 On ch=4 n=43 v=0
45960 On ch=4 n=43 v=15
45968 On ch=4 n=43 v=0
45968 On ch=4 n=43 v=15
45976 On ch=4 n=43 v=0
45976 On ch=4 n=43 v=15
45984 On ch=4 n=43 v=0
45984 On ch=4 n=43 v=15
45992 On ch=4 n=43 v=0
45992 On ch=4 n=43 v=15
46000 On ch=4 n=43 v=0
46000 On ch=4 n=43 v=15
46008 On ch=4 n=43 v=0
46008 On ch=4 n=43 v=15
46016 On ch=4 n=43 v=0
46016 On ch=4 n=43 v=15
46024 On ch=4 n=43 v=0
46024 On ch=4 n=43 v=15
46032 On ch=4 n=43 v=0
46032 On ch=4 n=43 v=15
46040 On ch=4 n=43 v=0
46040 On ch=4 n=43 v=15
46048 On ch=4 n=43 v=0
46048 On ch=4 n=43 v=15
46056 On ch=4 n=43 v=0
46056 On ch=4 n=43 v=15
46064 On ch=4 n=43 v=0
46064 On ch=4 n=43 v=15
46072 On ch=4 n=43 v=0
46072 On ch=4 n=43 v=15
46080 On ch=4 n=43 v=0
46080 On ch=4 n=43 v=15
46088 On ch=4 n=43 v=0
46088 On ch=4 n=43 v=15
46096 On ch=4 n=43 v=0
46096 On ch=4 n=43 v=15
46104 On ch=4 n=43 v=0
46104 On ch=4 n=43 v=15
46112 On ch=4 n=43 v=0
46112 On ch=4 n=43 v=15
46120 On ch=4 n=43 v=0
46120 On ch=4 n=43 v=15
46128 On ch=4 n=43 v=0
46128 On ch=4 n=43 v=15
46136 On ch=4 n=43 v=0
46136 On ch=4 n=43 v=15
46144 On ch=4 n=43 v=0
46144 On ch=4 n=43 v=15
46152 On ch=4 n=43 v=0
46152 On ch=4 n=43 v=15
46160 On ch=4 n=43 v=0
46160 On ch=4 n=43 v=15
46168 On ch=4 n=43 v=0
46168 On ch=4 n=43 v=15
46176 On ch=4 n=43 v=0
46176 On ch=4 n=43 v=15
46184 On ch=4 n=43 v=0
46184 On ch=4 n=43 v=15
46192 On ch=4 n=43 v=0
46192 On ch=4 n=43 v=15
46200 On ch=4 n=43 v=0
46200 On ch=4 n=43 v=15
46208 On ch=4 n=43 v=0
46208 On ch=4 n=43 v=15
46216 On ch=4 n=43 v=0
46216 On ch=4 n=43 v=15
46224 On ch=4 n=43 v=0
46224 On ch=4 n=43 v=15
46232 On ch=4 n=43 v=0
46232 On ch=4 n=43 v=15
46240 On ch=4 n=43 v=0
46240 On ch=4 n=43 v=15
46248 On ch=4 n=43 v=0
46248 On ch=4 n=43 v=15
46256 On ch=4 n=43 v=0
46256 On ch=4 n=43 v=15
46264 On ch=4 n=43 v=0
46264 On ch=4 n=43 v=15
46272 On ch=4 n=43 v=0
46272 On ch=4 n=43 v=15
46280 On ch=4 n=43 v=0
46280 On ch=4 n=43 v=15
46288 On ch=4 n=43 v=0
46288 On ch=4 n=43 v=15
46296 On ch=4 n=43 v=0
46296 On ch=4 n=43 v=15
46304 On ch=4 n=43 v=0
46304 On ch=4 n=43 v=15
46312 On ch=4 n=43 v=0
46312 On ch=4 n=43 v=15
46320 On ch=4 n=43 v=0
46320 On ch=4 n=43 v=15
46328 On ch=4 n=43 v=0
46328 On ch=4 n=43 v=15
46336 On ch=4 n=43 v=0
46336 On ch=4 n=43 v=15
46344 On ch=4 n=43 v=0
46344 On ch=4 n=43 v=15
46352 On ch=4 n=43 v=0
46352 On ch=4 n=43 v=15
46360 On ch=4 n=43 v=0
46360 On ch=4 n=43 v=15
46368 On ch=4 n=43 v=0
46368 On ch=4 n=43 v=15
46376 On ch=4 n=43 v=0
46376 On ch=4 n=43 v=15
46384 On ch=4 n=43 v=0
46384 On ch=4 n=43 v=15
46392 On ch=4 n=43 v=0
46392 On ch=4 n=43 v=15
46400 On ch=4 n=43 v=0
46400 On ch=4 n=43 v=15
46408 On ch=4 n=43 v=0
46408 On ch=4 n=43 v=15
46416 On ch=4 n=43 v=0
46416 On ch=4 n=43 v=15
46424 On ch=4 n=43 v=0
46424 On ch=4 n=43 v=15
46432 On ch=4 n=43 v=0
46432 On ch=4 n=43 v=15
46440 On ch=4 n=43 v=0
46440 On ch=4 n=43 v=15
46448 On ch=4 n=43 v=0
46448 On ch=4 n=43 v=15
46456 On ch=4 n=43 v=0
46456 On ch=4 n=43 v=15
46464 On ch=4 n=43 v=0
47232 On ch=4 n=41 v=31
47309 On ch=4 n=41 v=0
50304 On ch=4 n=40 v=31
50381 On ch=4 n=40 v=0
68736 On ch=4 n=49 v=47
68744 On ch=4 n=49 v=0
68744 On ch=4 n=49 v=47
68752 On ch=4 n=49 v=0
68752 On ch=4 n=49 v=47
68760 On ch=4 n=49 v=0
68760 On ch=4 n=49 v=47
68768 On ch=4 n=49 v=0
68768 On ch=4 n=49 v=47
68776 On ch=4 n=49 v=0
68776 On ch=4 n=49 v=47
68784 On ch=4 n=49 v=0
68784 On ch=4 n=49 v=47
68792 On ch=4 n=49 v=0
68792 On ch=4 n=49 v=47
68800 On ch=4 n=49 v=0
68800 On ch=4 n=49 v=47
68808 On ch=4 n=49 v=0
68808 On ch=4 n=49 v=47
68816 On ch=4 n=49 v=0
68816 On ch=4 n=49 v=47
68824 On ch=4 n=49 v=0
68824 On ch=4 n=49 v=47
68832 On ch=4 n=49 v=0
68832 On ch=4 n=49 v=47
68840 On ch=4 n=49 v=0
68840 On ch=4 n=49 v=47
68848 On ch=4 n=49 v=0
68848 On ch=4 n=49 v=47
68856 On ch=4 n=49 v=0
68856 On ch=4 n=49 v=47
68864 On ch=4 n=49 v=0
68864 On ch=4 n=49 v=47
68872 On ch=4 n=49 v=0
68872 On ch=4 n=49 v=47
68880 On ch=4 n=49 v=0
68880 On ch=4 n=49 v=47
68888 On ch=4 n=49 v=0
68888 On ch=4 n=49 v=47
68896 On ch=4 n=49 v=0
68896 On ch=4 n=49 v=47
68904 On ch=4 n=49 v=0
68904 On ch=4 n=49 v=47
68912 On ch=4 n=49 v=0
68912 On ch=4 n=49 v=47
68920 On ch=4 n=49 v=0
68920 On ch=4 n=49 v=47
68928 On ch=4 n=49 v=0
68928 On ch=4 n=49 v=47
68936 On ch=4 n=49 v=0
68936 On ch=4 n=49 v=47
68944 On ch=4 n=49 v=0
68944 On ch=4 n=49 v=47
68952 On ch=4 n=49 v=0
68952 On ch=4 n=49 v=47
68960 On ch=4 n=49 v=0
68960 On ch=4 n=49 v=47
68968 On ch=4 n=49 v=0
68968 On ch=4 n=49 v=47
68976 On ch=4 n=49 v=0
68976 On ch=4 n=49 v=47
68984 On ch=4 n=49 v=0
68984 On ch=4 n=49 v=47
68992 On ch=4 n=49 v=0
68992 On ch=4 n=49 v=47
69000 On ch=4 n=49 v=0
69000 On ch=4 n=49 v=47
69008 On ch=4 n=49 v=0
69008 On ch=4 n=49 v=47
69016 On ch=4 n=49 v=0
69016 On ch=4 n=49 v=47
69024 On ch=4 n=49 v=0
69024 On ch=4 n=49 v=47
69032 On ch=4 n=49 v=0
69032 On ch=4 n=49 v=47
69040 On ch=4 n=49 v=0
69040 On ch=4 n=49 v=47
69048 On ch=4 n=49 v=0
69048 On ch=4 n=49 v=47
69056 On ch=4 n=49 v=0
69056 On ch=4 n=49 v=47
69064 On ch=4 n=49 v=0
69064 On ch=4 n=49 v=47
69072 On ch=4 n=49 v=0
69072 On ch=4 n=49 v=47
69080 On ch=4 n=49 v=0
69080 On ch=4 n=49 v=47
69088 On ch=4 n=49 v=0
69088 On ch=4 n=49 v=47
69096 On ch=4 n=49 v=0
69096 On ch=4 n=49 v=47
69104 On ch=4 n=49 v=0
69104 On ch=4 n=49 v=47
69112 On ch=4 n=49 v=0
69112 On ch=4 n=49 v=47
69120 On ch=4 n=49 v=0
69120 On ch=4 n=49 v=47
69128 On ch=4 n=49 v=0
69128 On ch=4 n=49 v=47
69136 On ch=4 n=49 v=0
69136 On ch=4 n=49 v=47
69144 On ch=4 n=49 v=0
69144 On ch=4 n=49 v=47
69152 On ch=4 n=49 v=0
69152 On ch=4 n=49 v=47
69160 On ch=4 n=49 v=0
69160 On ch=4 n=49 v=47
69168 On ch=4 n=49 v=0
69168 On ch=4 n=49 v=47
69176 On ch=4 n=49 v=0
69176 On ch=4 n=49 v=47
69184 On ch=4 n=49 v=0
69184 On ch=4 n=49 v=47
69192 On ch=4 n=49 v=0
69192 On ch=4 n=49 v=47
69200 On ch=4 n=49 v=0
69200 On ch=4 n=49 v=47
69208 On ch=4 n=49 v=0
69208 On ch=4 n=49 v=47
69216 On ch=4 n=49 v=0
69216 On ch=4 n=49 v=47
69224 On ch=4 n=49 v=0
69224 On ch=4 n=49 v=47
69232 On ch=4 n=49 v=0
69232 On ch=4 n=49 v=47
69240 On ch=4 n=49 v=0
69240 On ch=4 n=49 v=47
69248 On ch=4 n=49 v=0
69248 On ch=4 n=49 v=47
69256 On ch=4 n=49 v=0
69256 On ch=4 n=49 v=47
69264 On ch=4 n=49 v=0
69264 On ch=4 n=49 v=47
69272 On ch=4 n=49 v=0
69272 On ch=4 n=49 v=47
69280 On ch=4 n=49 v=0
69280 On ch=4 n=49 v=47
69288 On ch=4 n=49 v=0
69288 On ch=4 n=49 v=47
69296 On ch=4 n=49 v=0
69296 On ch=4 n=49 v=47
69304 On ch=4 n=49 v=0
69304 On ch=4 n=49 v=47
69312 On ch=4 n=49 v=0
69312 On ch=4 n=49 v=47
69320 On ch=4 n=49 v=0
69320 On ch=4 n=49 v=47
69328 On ch=4 n=49 v=0
69328 On ch=4 n=49 v=47
69336 On ch=4 n=49 v=0
69336 On ch=4 n=49 v=47
69344 On ch=4 n=49 v=0
69344 On ch=4 n=49 v=47
69352 On ch=4 n=49 v=0
69352 On ch=4 n=49 v=47
69360 On ch=4 n=49 v=0
69360 On ch=4 n=49 v=47
69368 On ch=4 n=49 v=0
69368 On ch=4 n=49 v=47
69376 On ch=4 n=49 v=0
69376 On ch=4 n=49 v=47
69384 On ch=4 n=49 v=0
69384 On ch=4 n=49 v=47
69392 On ch=4 n=49 v=0
69392 On ch=4 n=49 v=47
69400 On ch=4 n=49 v=0
69400 On ch=4 n=49 v=47
69408 On ch=4 n=49 v=0
69408 On ch=4 n=49 v=47
69416 On ch=4 n=49 v=0
69416 On ch=4 n=49 v=47
69424 On ch=4 n=49 v=0
69424 On ch=4 n=49 v=47
69432 On ch=4 n=49 v=0
69432 On ch=4 n=49 v=47
69440 On ch=4 n=49 v=0
69440 On ch=4 n=49 v=47
69448 On ch=4 n=49 v=0
69448 On ch=4 n=49 v=47
69456 On ch=4 n=49 v=0
69456 On ch=4 n=49 v=47
69464 On ch=4 n=49 v=0
69464 On ch=4 n=49 v=47
69472 On ch=4 n=49 v=0
69472 On ch=4 n=49 v=47
69480 On ch=4 n=49 v=0
69480 On ch=4 n=49 v=47
69488 On ch=4 n=49 v=0
69488 On ch=4 n=49 v=47
69496 On ch=4 n=49 v=0
69496 On ch=4 n=49 v=47
69504 On ch=4 n=49 v=0
69504 On ch=4 n=49 v=47
69512 On ch=4 n=49 v=0
69512 On ch=4 n=49 v=47
69520 On ch=4 n=49 v=0
69520 On ch=4 n=49 v=47
69528 On ch=4 n=49 v=0
69528 On ch=4 n=49 v=47
69536 On ch=4 n=49 v=0
69536 On ch=4 n=49 v=47
69544 On ch=4 n=49 v=0
69544 On ch=4 n=49 v=47
69552 On ch=4 n=49 v=0
69552 On ch=4 n=49 v=47
69560 On ch=4 n=49 v=0
69560 On ch=4 n=49 v=47
69568 On ch=4 n=49 v=0
69568 On ch=4 n=49 v=47
69576 On ch=4 n=49 v=0
69576 On ch=4 n=49 v=47
69584 On ch=4 n=49 v=0
69584 On ch=4 n=49 v=47
69592 On ch=4 n=49 v=0
69592 On ch=4 n=49 v=47
69600 On ch=4 n=49 v=0
69600 On ch=4 n=49 v=47
69608 On ch=4 n=49 v=0
69608 On ch=4 n=49 v=47
69616 On ch=4 n=49 v=0
69616 On ch=4 n=49 v=47
69624 On ch=4 n=49 v=0
69624 On ch=4 n=49 v=47
69632 On ch=4 n=49 v=0
69632 On ch=4 n=49 v=47
69640 On ch=4 n=49 v=0
69640 On ch=4 n=49 v=47
69648 On ch=4 n=49 v=0
69648 On ch=4 n=49 v=47
69656 On ch=4 n=49 v=0
69656 On ch=4 n=49 v=47
69664 On ch=4 n=49 v=0
69664 On ch=4 n=49 v=47
69672 On ch=4 n=49 v=0
69672 On ch=4 n=49 v=47
69680 On ch=4 n=49 v=0
69680 On ch=4 n=49 v=47
69688 On ch=4 n=49 v=0
69688 On ch=4 n=49 v=47
69696 On ch=4 n=49 v=0
69696 On ch=4 n=49 v=47
69704 On ch=4 n=49 v=0
69704 On ch=4 n=49 v=47
69712 On ch=4 n=49 v=0
69712 On ch=4 n=49 v=47
69720 On ch=4 n=49 v=0
69720 On ch=4 n=49 v=47
69728 On ch=4 n=49 v=0
69728 On ch=4 n=49 v=47
69736 On ch=4 n=49 v=0
69736 On ch=4 n=49 v=47
69744 On ch=4 n=49 v=0
69744 On ch=4 n=49 v=47
69752 On ch=4 n=49 v=0
69752 On ch=4 n=49 v=47
69760 On ch=4 n=49 v=0
69760 On ch=4 n=49 v=47
69768 On ch=4 n=49 v=0
69768 On ch=4 n=49 v=47
69776 On ch=4 n=49 v=0
69776 On ch=4 n=49 v=47
69784 On ch=4 n=49 v=0
69784 On ch=4 n=49 v=47
69792 On ch=4 n=49 v=0
69792 On ch=4 n=49 v=47
69800 On ch=4 n=49 v=0
69800 On ch=4 n=49 v=47
69808 On ch=4 n=49 v=0
69808 On ch=4 n=49 v=47
69816 On ch=4 n=49 v=0
69816 On ch=4 n=49 v=47
69824 On ch=4 n=49 v=0
69824 On ch=4 n=49 v=47
69832 On ch=4 n=49 v=0
69832 On ch=4 n=49 v=47
69840 On ch=4 n=49 v=0
69840 On ch=4 n=49 v=47
69848 On ch=4 n=49 v=0
69848 On ch=4 n=49 v=47
69856 On ch=4 n=49 v=0
69856 On ch=4 n=49 v=47
69864 On ch=4 n=49 v=0
69864 On ch=4 n=49 v=47
69872 On ch=4 n=49 v=0
69872 On ch=4 n=49 v=47
69880 On ch=4 n=49 v=0
69880 On ch=4 n=49 v=47
69888 On ch=4 n=49 v=0
69888 On ch=4 n=49 v=47
69896 On ch=4 n=49 v=0
69896 On ch=4 n=49 v=47
69904 On ch=4 n=49 v=0
69904 On ch=4 n=49 v=47
69912 On ch=4 n=49 v=0
69912 On ch=4 n=49 v=47
69920 On ch=4 n=49 v=0
69920 On ch=4 n=49 v=47
69928 On ch=4 n=49 v=0
69928 On ch=4 n=49 v=47
69936 On ch=4 n=49 v=0
69936 On ch=4 n=49 v=47
69944 On ch=4 n=49 v=0
69944 On ch=4 n=49 v=47
69952 On ch=4 n=49 v=0
69952 On ch=4 n=49 v=47
69960 On ch=4 n=49 v=0
69960 On ch=4 n=49 v=47
69968 On ch=4 n=49 v=0
69968 On ch=4 n=49 v=47
69976 On ch=4 n=49 v=0
69976 On ch=4 n=49 v=47
69984 On ch=4 n=49 v=0
69984 On ch=4 n=49 v=47
69992 On ch=4 n=49 v=0
69992 On ch=4 n=49 v=47
70000 On ch=4 n=49 v=0
70000 On ch=4 n=49 v=47
70008 On ch=4 n=49 v=0
70008 On ch=4 n=49 v=47
70016 On ch=4 n=49 v=0
70016 On ch=4 n=49 v=47
70024 On ch=4 n=49 v=0
70024 On ch=4 n=49 v=47
70032 On ch=4 n=49 v=0
70032 On ch=4 n=49 v=47
70040 On ch=4 n=49 v=0
70040 On ch=4 n=49 v=47
70048 On ch=4 n=49 v=0
70048 On ch=4 n=49 v=47
70056 On ch=4 n=49 v=0
70056 On ch=4 n=49 v=47
70064 On ch=4 n=49 v=0
70064 On ch=4 n=49 v=47
70072 On ch=4 n=49 v=0
70072 On ch=4 n=49 v=47
70080 On ch=4 n=49 v=0
70080 On ch=4 n=49 v=47
70088 On ch=4 n=49 v=0
70088 On ch=4 n=49 v=47
70096 On ch=4 n=49 v=0
70096 On ch=4 n=49 v=47
70104 On ch=4 n=49 v=0
70104 On ch=4 n=49 v=47
70112 On ch=4 n=49 v=0
70112 On ch=4 n=49 v=47
70120 On ch=4 n=49 v=0
70120 On ch=4 n=49 v=47
70128 On ch=4 n=49 v=0
70128 On ch=4 n=49 v=47
70136 On ch=4 n=49 v=0
70136 On ch=4 n=49 v=47
70144 On ch=4 n=49 v=0
70144 On ch=4 n=49 v=47
70152 On ch=4 n=49 v=0
70152 On ch=4 n=49 v=47
70160 On ch=4 n=49 v=0
70160 On ch=4 n=49 v=47
70168 On ch=4 n=49 v=0
70168 On ch=4 n=49 v=47
70176 On ch=4 n=49 v=0
70176 On ch=4 n=49 v=47
70184 On ch=4 n=49 v=0
70184 On ch=4 n=49 v=47
70192 On ch=4 n=49 v=0
70192 On ch=4 n=49 v=47
70200 On ch=4 n=49 v=0
70200 On ch=4 n=49 v=47
70208 On ch=4 n=49 v=0
70208 On ch=4 n=49 v=47
70216 On ch=4 n=49 v=0
70216 On ch=4 n=49 v=47
70224 On ch=4 n=49 v=0
70224 On ch=4 n=49 v=47
70232 On ch=4 n=49 v=0
70232 On ch=4 n=49 v=47
70240 On ch=4 n=49 v=0
70240 On ch=4 n=49 v=47
70248 On ch=4 n=49 v=0
70248 On ch=4 n=49 v=47
70256 On ch=4 n=49 v=0
70256 On ch=4 n=49 v=47
70264 On ch=4 n=49 v=0
70264 On ch=4 n=49 v=47
70272 On ch=4 n=49 v=0
70272 On ch=4 n=49 v=47
70280 On ch=4 n=49 v=0
70280 On ch=4 n=49 v=47
70288 On ch=4 n=49 v=0
70288 On ch=4 n=49 v=47
70296 On ch=4 n=49 v=0
70296 On ch=4 n=49 v=47
70304 On ch=4 n=49 v=0
70304 On ch=4 n=49 v=47
70312 On ch=4 n=49 v=0
70312 On ch=4 n=49 v=47
70320 On ch=4 n=49 v=0
70320 On ch=4 n=49 v=47
70328 On ch=4 n=49 v=0
70328 On ch=4 n=49 v=47
70336 On ch=4 n=49 v=0
70336 On ch=4 n=49 v=47
70344 On ch=4 n=49 v=0
70344 On ch=4 n=49 v=47
70352 On ch=4 n=49 v=0
70352 On ch=4 n=49 v=47
70360 On ch=4 n=49 v=0
70360 On ch=4 n=49 v=47
70368 On ch=4 n=49 v=0
70368 On ch=4 n=49 v=47
70376 On ch=4 n=49 v=0
70376 On ch=4 n=49 v=47
70384 On ch=4 n=49 v=0
70384 On ch=4 n=49 v=47
70392 On ch=4 n=49 v=0
70392 On ch=4 n=49 v=47
70400 On ch=4 n=49 v=0
70400 On ch=4 n=49 v=47
70408 On ch=4 n=49 v=0
70408 On ch=4 n=49 v=47
70416 On ch=4 n=49 v=0
70416 On ch=4 n=49 v=47
70424 On ch=4 n=49 v=0
70424 On ch=4 n=49 v=47
70432 On ch=4 n=49 v=0
70432 On ch=4 n=49 v=47
70440 On ch=4 n=49 v=0
70440 On ch=4 n=49 v=47
70448 On ch=4 n=49 v=0
70448 On ch=4 n=49 v=47
70456 On ch=4 n=49 v=0
70456 On ch=4 n=49 v=47
70464 On ch=4 n=49 v=0
70464 On ch=4 n=49 v=47
70472 On ch=4 n=49 v=0
70472 On ch=4 n=49 v=47
70480 On ch=4 n=49 v=0
70480 On ch=4 n=49 v=47
70488 On ch=4 n=49 v=0
70488 On ch=4 n=49 v=47
70496 On ch=4 n=49 v=0
70496 On ch=4 n=49 v=47
70504 On ch=4 n=49 v=0
70504 On ch=4 n=49 v=47
70512 On ch=4 n=49 v=0
70512 On ch=4 n=49 v=47
70520 On ch=4 n=49 v=0
70520 On ch=4 n=49 v=47
70528 On ch=4 n=49 v=0
70528 On ch=4 n=49 v=47
70536 On ch=4 n=49 v=0
70536 On ch=4 n=49 v=47
70544 On ch=4 n=49 v=0
70544 On ch=4 n=49 v=47
70552 On ch=4 n=49 v=0
70552 On ch=4 n=49 v=47
70560 On ch=4 n=49 v=0
70560 On ch=4 n=49 v=47
70568 On ch=4 n=49 v=0
70568 On ch=4 n=49 v=47
70576 On ch=4 n=49 v=0
70576 On ch=4 n=49 v=47
70584 On ch=4 n=49 v=0
70584 On ch=4 n=49 v=47
70592 On ch=4 n=49 v=0
70592 On ch=4 n=49 v=47
70600 On ch=4 n=49 v=0
70600 On ch=4 n=49 v=47
70608 On ch=4 n=49 v=0
70608 On ch=4 n=49 v=47
70616 On ch=4 n=49 v=0
70616 On ch=4 n=49 v=47
70624 On ch=4 n=49 v=0
70624 On ch=4 n=49 v=47
70632 On ch=4 n=49 v=0
70632 On ch=4 n=49 v=47
70640 On ch=4 n=49 v=0
70640 On ch=4 n=49 v=47
70648 On ch=4 n=49 v=0
70648 On ch=4 n=49 v=47
70656 On ch=4 n=49 v=0
72576 On ch=4 n=50 v=31
72584 On ch=4 n=50 v=0
72584 On ch=4 n=50 v=31
72592 On ch=4 n=50 v=0
72592 On ch=4 n=50 v=31
72600 On ch=4 n=50 v=0
72600 On ch=4 n=50 v=31
72608 On ch=4 n=50 v=0
72608 On ch=4 n=50 v=31
72616 On ch=4 n=50 v=0
72616 On ch=4 n=50 v=31
72624 On ch=4 n=50 v=0
72624 On ch=4 n=50 v=31
72632 On ch=4 n=50 v=0
72632 On ch=4 n=50 v=31
72640 On ch=4 n=50 v=0
72640 On ch=4 n=50 v=31
72648 On ch=4 n=50 v=0
72648 On ch=4 n=50 v=31
72656 On ch=4 n=50 v=0
72656 On ch=4 n=50 v=31
72664 On ch=4 n=50 v=0
72664 On ch=4 n=50 v=31
72672 On ch=4 n=50 v=0
72672 On ch=4 n=50 v=31
72680 On ch=4 n=50 v=0
72680 On ch=4 n=50 v=31
72688 On ch=4 n=50 v=0
72688 On ch=4 n=50 v=31
72696 On ch=4 n=50 v=0
72696 On ch=4 n=50 v=31
72704 On ch=4 n=50 v=0
72704 On ch=4 n=50 v=31
72712 On ch=4 n=50 v=0
72712 On ch=4 n=50 v=31
72720 On ch=4 n=50 v=0
72720 On ch=4 n=50 v=31
72728 On ch=4 n=50 v=0
72728 On ch=4 n=50 v=31
72736 On ch=4 n=50 v=0
72736 On ch=4 n=50 v=31
72744 On ch=4 n=50 v=0
72744 On ch=4 n=50 v=31
72752 On ch=4 n=50 v=0
72752 On ch=4 n=50 v=31
72760 On ch=4 n=50 v=0
72760 On ch=4 n=50 v=31
72768 On ch=4 n=50 v=0
72768 On ch=4 n=50 v=31
72776 On ch=4 n=50 v=0
72776 On ch=4 n=50 v=31
72784 On ch=4 n=50 v=0
72784 On ch=4 n=50 v=31
72792 On ch=4 n=50 v=0
72792 On ch=4 n=50 v=31
72800 On ch=4 n=50 v=0
72800 On ch=4 n=50 v=31
72808 On ch=4 n=50 v=0
72808 On ch=4 n=50 v=31
72816 On ch=4 n=50 v=0
72816 On ch=4 n=50 v=31
72824 On ch=4 n=50 v=0
72824 On ch=4 n=50 v=31
72832 On ch=4 n=50 v=0
72832 On ch=4 n=50 v=31
72840 On ch=4 n=50 v=0
72840 On ch=4 n=50 v=31
72848 On ch=4 n=50 v=0
72848 On ch=4 n=50 v=31
72856 On ch=4 n=50 v=0
72856 On ch=4 n=50 v=31
72864 On ch=4 n=50 v=0
72864 On ch=4 n=50 v=31
72872 On ch=4 n=50 v=0
72872 On ch=4 n=50 v=31
72880 On ch=4 n=50 v=0
72880 On ch=4 n=50 v=31
72888 On ch=4 n=50 v=0
72888 On ch=4 n=50 v=31
72896 On ch=4 n=50 v=0
72896 On ch=4 n=50 v=31
72904 On ch=4 n=50 v=0
72904 On ch=4 n=50 v=31
72912 On ch=4 n=50 v=0
72912 On ch=4 n=50 v=31
72920 On ch=4 n=50 v=0
72920 On ch=4 n=50 v=31
72928 On ch=4 n=50 v=0
72928 On ch=4 n=50 v=31
72936 On ch=4 n=50 v=0
72936 On ch=4 n=50 v=31
72944 On ch=4 n=50 v=0
72944 On ch=4 n=50 v=31
72952 On ch=4 n=50 v=0
72952 On ch=4 n=50 v=31
72960 On ch=4 n=50 v=0
72960 On ch=4 n=50 v=31
72968 On ch=4 n=50 v=0
72968 On ch=4 n=50 v=31
72976 On ch=4 n=50 v=0
72976 On ch=4 n=50 v=31
72984 On ch=4 n=50 v=0
72984 On ch=4 n=50 v=31
72992 On ch=4 n=50 v=0
72992 On ch=4 n=50 v=31
73000 On ch=4 n=50 v=0
73000 On ch=4 n=50 v=31
73008 On ch=4 n=50 v=0
73008 On ch=4 n=50 v=31
73016 On ch=4 n=50 v=0
73016 On ch=4 n=50 v=31
73024 On ch=4 n=50 v=0
73024 On ch=4 n=50 v=31
73032 On ch=4 n=50 v=0
73032 On ch=4 n=50 v=31
73040 On ch=4 n=50 v=0
73040 On ch=4 n=50 v=31
73048 On ch=4 n=50 v=0
73048 On ch=4 n=50 v=31
73056 On ch=4 n=50 v=0
73056 On ch=4 n=50 v=31
73064 On ch=4 n=50 v=0
73064 On ch=4 n=50 v=31
73072 On ch=4 n=50 v=0
73072 On ch=4 n=50 v=31
73080 On ch=4 n=50 v=0
73080 On ch=4 n=50 v=31
73088 On ch=4 n=50 v=0
73088 On ch=4 n=50 v=31
73096 On ch=4 n=50 v=0
73096 On ch=4 n=50 v=31
73104 On ch=4 n=50 v=0
73104 On ch=4 n=50 v=31
73112 On ch=4 n=50 v=0
73112 On ch=4 n=50 v=31
73120 On ch=4 n=50 v=0
73120 On ch=4 n=50 v=31
73128 On ch=4 n=50 v=0
73128 On ch=4 n=50 v=31
73136 On ch=4 n=50 v=0
73136 On ch=4 n=50 v=31
73144 On ch=4 n=50 v=0
73144 On ch=4 n=50 v=31
73152 On ch=4 n=50 v=0
73152 On ch=4 n=50 v=31
73160 On ch=4 n=50 v=0
73160 On ch=4 n=50 v=31
73168 On ch=4 n=50 v=0
73168 On ch=4 n=50 v=31
73176 On ch=4 n=50 v=0
73176 On ch=4 n=50 v=31
73184 On ch=4 n=50 v=0
73184 On ch=4 n=50 v=31
73192 On ch=4 n=50 v=0
73192 On ch=4 n=50 v=31
73200 On ch=4 n=50 v=0
73200 On ch=4 n=50 v=31
73208 On ch=4 n=50 v=0
73208 On ch=4 n=50 v=31
73216 On ch=4 n=50 v=0
73216 On ch=4 n=50 v=31
73224 On ch=4 n=50 v=0
73224 On ch=4 n=50 v=31
73232 On ch=4 n=50 v=0
73232 On ch=4 n=50 v=31
73240 On ch=4 n=50 v=0
73240 On ch=4 n=50 v=31
73248 On ch=4 n=50 v=0
73248 On ch=4 n=50 v=31
73256 On ch=4 n=50 v=0
73256 On ch=4 n=50 v=31
73264 On ch=4 n=50 v=0
73264 On ch=4 n=50 v=31
73272 On ch=4 n=50 v=0
73272 On ch=4 n=50 v=31
73280 On ch=4 n=50 v=0
73280 On ch=4 n=50 v=31
73288 On ch=4 n=50 v=0
73288 On ch=4 n=50 v=31
73296 On ch=4 n=50 v=0
73296 On ch=4 n=50 v=31
73304 On ch=4 n=50 v=0
73304 On ch=4 n=50 v=31
73312 On ch=4 n=50 v=0
73312 On ch=4 n=50 v=31
73320 On ch=4 n=50 v=0
73320 On ch=4 n=50 v=31
73328 On ch=4 n=50 v=0
73328 On ch=4 n=50 v=31
73336 On ch=4 n=50 v=0
73336 On ch=4 n=50 v=31
73344 On ch=4 n=50 v=0
73344 On ch=4 n=50 v=31
73352 On ch=4 n=50 v=0
73352 On ch=4 n=50 v=31
73360 On ch=4 n=50 v=0
73360 On ch=4 n=50 v=31
73368 On ch=4 n=50 v=0
73368 On ch=4 n=50 v=31
73376 On ch=4 n=50 v=0
73376 On ch=4 n=50 v=31
73384 On ch=4 n=50 v=0
73384 On ch=4 n=50 v=31
73392 On ch=4 n=50 v=0
73392 On ch=4 n=50 v=31
73400 On ch=4 n=50 v=0
73400 On ch=4 n=50 v=31
73408 On ch=4 n=50 v=0
73408 On ch=4 n=50 v=31
73416 On ch=4 n=50 v=0
73416 On ch=4 n=50 v=31
73424 On ch=4 n=50 v=0
73424 On ch=4 n=50 v=31
73432 On ch=4 n=50 v=0
73432 On ch=4 n=50 v=31
73440 On ch=4 n=50 v=0
73440 On ch=4 n=50 v=31
73448 On ch=4 n=50 v=0
73448 On ch=4 n=50 v=31
73456 On ch=4 n=50 v=0
73456 On ch=4 n=50 v=31
73464 On ch=4 n=50 v=0
73464 On ch=4 n=50 v=31
73472 On ch=4 n=50 v=0
73472 On ch=4 n=50 v=31
73480 On ch=4 n=50 v=0
73480 On ch=4 n=50 v=31
73488 On ch=4 n=50 v=0
73488 On ch=4 n=50 v=31
73496 On ch=4 n=50 v=0
73496 On ch=4 n=50 v=31
73504 On ch=4 n=50 v=0
73504 On ch=4 n=50 v=31
73512 On ch=4 n=50 v=0
73512 On ch=4 n=50 v=31
73520 On ch=4 n=50 v=0
73520 On ch=4 n=50 v=31
73528 On ch=4 n=50 v=0
73528 On ch=4 n=50 v=31
73536 On ch=4 n=50 v=0
73536 On ch=4 n=50 v=31
73544 On ch=4 n=50 v=0
73544 On ch=4 n=50 v=31
73552 On ch=4 n=50 v=0
73552 On ch=4 n=50 v=31
73560 On ch=4 n=50 v=0
73560 On ch=4 n=50 v=31
73568 On ch=4 n=50 v=0
73568 On ch=4 n=50 v=31
73576 On ch=4 n=50 v=0
73576 On ch=4 n=50 v=31
73584 On ch=4 n=50 v=0
73584 On ch=4 n=50 v=31
73592 On ch=4 n=50 v=0
73592 On ch=4 n=50 v=31
73600 On ch=4 n=50 v=0
73600 On ch=4 n=50 v=31
73608 On ch=4 n=50 v=0
73608 On ch=4 n=50 v=31
73616 On ch=4 n=50 v=0
73616 On ch=4 n=50 v=31
73624 On ch=4 n=50 v=0
73624 On ch=4 n=50 v=31
73632 On ch=4 n=50 v=0
73632 On ch=4 n=50 v=31
73640 On ch=4 n=50 v=0
73640 On ch=4 n=50 v=31
73648 On ch=4 n=50 v=0
73648 On ch=4 n=50 v=31
73656 On ch=4 n=50 v=0
73656 On ch=4 n=50 v=31
73664 On ch=4 n=50 v=0
73664 On ch=4 n=50 v=31
73672 On ch=4 n=50 v=0
73672 On ch=4 n=50 v=31
73680 On ch=4 n=50 v=0
73680 On ch=4 n=50 v=31
73688 On ch=4 n=50 v=0
73688 On ch=4 n=50 v=31
73696 On ch=4 n=50 v=0
73696 On ch=4 n=50 v=31
73704 On ch=4 n=50 v=0
73704 On ch=4 n=50 v=31
73712 On ch=4 n=50 v=0
73712 On ch=4 n=50 v=31
73720 On ch=4 n=50 v=0
73720 On ch=4 n=50 v=31
73728 On ch=4 n=50 v=0
73728 On ch=4 n=50 v=31
73736 On ch=4 n=50 v=0
73736 On ch=4 n=50 v=31
73744 On ch=4 n=50 v=0
73744 On ch=4 n=50 v=31
73752 On ch=4 n=50 v=0
73752 On ch=4 n=50 v=31
73760 On ch=4 n=50 v=0
73760 On ch=4 n=50 v=31
73768 On ch=4 n=50 v=0
73768 On ch=4 n=50 v=31
73776 On ch=4 n=50 v=0
73776 On ch=4 n=50 v=31
73784 On ch=4 n=50 v=0
73784 On ch=4 n=50 v=31
73792 On ch=4 n=50 v=0
73792 On ch=4 n=50 v=31
73800 On ch=4 n=50 v=0
73800 On ch=4 n=50 v=31
73808 On ch=4 n=50 v=0
73808 On ch=4 n=50 v=31
73816 On ch=4 n=50 v=0
73816 On ch=4 n=50 v=31
73824 On ch=4 n=50 v=0
73824 On ch=4 n=50 v=31
73832 On ch=4 n=50 v=0
73832 On ch=4 n=50 v=31
73840 On ch=4 n=50 v=0
73840 On ch=4 n=50 v=31
73848 On ch=4 n=50 v=0
73848 On ch=4 n=50 v=31
73856 On ch=4 n=50 v=0
73856 On ch=4 n=50 v=31
73864 On ch=4 n=50 v=0
73864 On ch=4 n=50 v=31
73872 On ch=4 n=50 v=0
73872 On ch=4 n=50 v=31
73880 On ch=4 n=50 v=0
73880 On ch=4 n=50 v=31
73888 On ch=4 n=50 v=0
73888 On ch=4 n=50 v=31
73896 On ch=4 n=50 v=0
73896 On ch=4 n=50 v=31
73904 On ch=4 n=50 v=0
73904 On ch=4 n=50 v=31
73912 On ch=4 n=50 v=0
73912 On ch=4 n=50 v=31
73920 On ch=4 n=50 v=0
73920 On ch=4 n=50 v=31
73928 On ch=4 n=50 v=0
73928 On ch=4 n=50 v=31
73936 On ch=4 n=50 v=0
73936 On ch=4 n=50 v=31
73944 On ch=4 n=50 v=0
73944 On ch=4 n=50 v=31
73952 On ch=4 n=50 v=0
73952 On ch=4 n=50 v=31
73960 On ch=4 n=50 v=0
73960 On ch=4 n=50 v=31
73968 On ch=4 n=50 v=0
73968 On ch=4 n=50 v=31
73976 On ch=4 n=50 v=0
73976 On ch=4 n=50 v=31
73984 On ch=4 n=50 v=0
73984 On ch=4 n=50 v=31
73992 On ch=4 n=50 v=0
73992 On ch=4 n=50 v=31
74000 On ch=4 n=50 v=0
74000 On ch=4 n=50 v=31
74008 On ch=4 n=50 v=0
74008 On ch=4 n=50 v=31
74016 On ch=4 n=50 v=0
74016 On ch=4 n=50 v=31
74024 On ch=4 n=50 v=0
74024 On ch=4 n=50 v=31
74032 On ch=4 n=50 v=0
74032 On ch=4 n=50 v=31
74040 On ch=4 n=50 v=0
74040 On ch=4 n=50 v=31
74048 On ch=4 n=50 v=0
74048 On ch=4 n=50 v=31
74056 On ch=4 n=50 v=0
74056 On ch=4 n=50 v=31
74064 On ch=4 n=50 v=0
74064 On ch=4 n=50 v=31
74072 On ch=4 n=50 v=0
74072 On ch=4 n=50 v=31
74080 On ch=4 n=50 v=0
74080 On ch=4 n=50 v=31
74088 On ch=4 n=50 v=0
74088 On ch=4 n=50 v=31
74096 On ch=4 n=50 v=0
74096 On ch=4 n=50 v=31
74104 On ch=4 n=50 v=0
74104 On ch=4 n=50 v=31
74112 On ch=4 n=50 v=0
74112 On ch=4 n=50 v=31
74120 On ch=4 n=50 v=0
74120 On ch=4 n=50 v=31
74128 On ch=4 n=50 v=0
74128 On ch=4 n=50 v=31
74136 On ch=4 n=50 v=0
74136 On ch=4 n=50 v=31
74144 On ch=4 n=50 v=0
74144 On ch=4 n=50 v=31
74152 On ch=4 n=50 v=0
74152 On ch=4 n=50 v=31
74160 On ch=4 n=50 v=0
74160 On ch=4 n=50 v=31
74168 On ch=4 n=50 v=0
74168 On ch=4 n=50 v=31
74176 On ch=4 n=50 v=0
74176 On ch=4 n=50 v=31
74184 On ch=4 n=50 v=0
74184 On ch=4 n=50 v=31
74192 On ch=4 n=50 v=0
74192 On ch=4 n=50 v=31
74200 On ch=4 n=50 v=0
74200 On ch=4 n=50 v=31
74208 On ch=4 n=50 v=0
74208 On ch=4 n=50 v=31
74216 On ch=4 n=50 v=0
74216 On ch=4 n=50 v=31
74224 On ch=4 n=50 v=0
74224 On ch=4 n=50 v=31
74232 On ch=4 n=50 v=0
74232 On ch=4 n=50 v=31
74240 On ch=4 n=50 v=0
74240 On ch=4 n=50 v=31
74248 On ch=4 n=50 v=0
74248 On ch=4 n=50 v=31
74256 On ch=4 n=50 v=0
74256 On ch=4 n=50 v=31
74264 On ch=4 n=50 v=0
74264 On ch=4 n=50 v=31
74272 On ch=4 n=50 v=0
74272 On ch=4 n=50 v=31
74280 On ch=4 n=50 v=0
74280 On ch=4 n=50 v=31
74288 On ch=4 n=50 v=0
74288 On ch=4 n=50 v=31
74296 On ch=4 n=50 v=0
74296 On ch=4 n=50 v=31
74304 On ch=4 n=50 v=0
74304 On ch=4 n=50 v=31
74312 On ch=4 n=50 v=0
74312 On ch=4 n=50 v=31
74320 On ch=4 n=50 v=0
74320 On ch=4 n=50 v=31
74328 On ch=4 n=50 v=0
74328 On ch=4 n=50 v=31
74336 On ch=4 n=50 v=0
74336 On ch=4 n=50 v=31
74344 On ch=4 n=50 v=0
74344 On ch=4 n=50 v=31
74352 On ch=4 n=50 v=0
74352 On ch=4 n=50 v=31
74360 On ch=4 n=50 v=0
74360 On ch=4 n=50 v=31
74368 On ch=4 n=50 v=0
74368 On ch=4 n=50 v=31
74376 On ch=4 n=50 v=0
74376 On ch=4 n=50 v=31
74384 On ch=4 n=50 v=0
74384 On ch=4 n=50 v=31
74392 On ch=4 n=50 v=0
74392 On ch=4 n=50 v=31
74400 On ch=4 n=50 v=0
74400 On ch=4 n=50 v=31
74408 On ch=4 n=50 v=0
74408 On ch=4 n=50 v=31
74416 On ch=4 n=50 v=0
74416 On ch=4 n=50 v=31
74424 On ch=4 n=50 v=0
74424 On ch=4 n=50 v=31
74432 On ch=4 n=50 v=0
74432 On ch=4 n=50 v=31
74440 On ch=4 n=50 v=0
74440 On ch=4 n=50 v=31
74448 On ch=4 n=50 v=0
74448 On ch=4 n=50 v=31
74456 On ch=4 n=50 v=0
74456 On ch=4 n=50 v=31
74464 On ch=4 n=50 v=0
74464 On ch=4 n=50 v=31
74472 On ch=4 n=50 v=0
74472 On ch=4 n=50 v=31
74480 On ch=4 n=50 v=0
74480 On ch=4 n=50 v=31
74488 On ch=4 n=50 v=0
74488 On ch=4 n=50 v=31
74496 On ch=4 n=50 v=0
74496 Par ch=4 c=11 v=64
74496 On ch=4 n=50 v=31
74504 On ch=4 n=50 v=0
74504 On ch=4 n=50 v=31
74512 On ch=4 n=50 v=0
74512 Par ch=4 c=11 v=65
74512 On ch=4 n=50 v=31
74520 On ch=4 n=50 v=0
74520 On ch=4 n=50 v=31
74524 Par ch=4 c=11 v=66
74528 On ch=4 n=50 v=0
74528 On ch=4 n=50 v=31
74536 On ch=4 n=50 v=0
74536 Par ch=4 c=11 v=67
74536 On ch=4 n=50 v=31
74544 On ch=4 n=50 v=0
74544 On ch=4 n=50 v=31
74548 Par ch=4 c=11 v=68
74552 On ch=4 n=50 v=0
74552 On ch=4 n=50 v=31
74560 On ch=4 n=50 v=0
74560 Par ch=4 c=11 v=69
74560 On ch=4 n=50 v=31
74568 On ch=4 n=50 v=0
74568 On ch=4 n=50 v=31
74572 Par ch=4 c=11 v=70
74576 On ch=4 n=50 v=0
74576 On ch=4 n=50 v=31
74584 On ch=4 n=50 v=0
74584 Par ch=4 c=11 v=71
74584 On ch=4 n=50 v=31
74592 On ch=4 n=50 v=0
74592 On ch=4 n=50 v=31
74596 Par ch=4 c=11 v=72
74600 On ch=4 n=50 v=0
74600 On ch=4 n=50 v=31
74608 On ch=4 n=50 v=0
74608 Par ch=4 c=11 v=73
74608 On ch=4 n=50 v=31
74616 On ch=4 n=50 v=0
74616 On ch=4 n=50 v=31
74620 Par ch=4 c=11 v=74
74624 On ch=4 n=50 v=0
74624 On ch=4 n=50 v=31
74632 On ch=4 n=50 v=0
74632 Par ch=4 c=11 v=75
74632 On ch=4 n=50 v=31
74640 On ch=4 n=50 v=0
74640 On ch=4 n=50 v=31
74644 Par ch=4 c=11 v=76
74648 On ch=4 n=50 v=0
74648 On ch=4 n=50 v=31
74656 On ch=4 n=50 v=0
74656 Par ch=4 c=11 v=77
74656 On ch=4 n=50 v=31
74664 On ch=4 n=50 v=0
74664 On ch=4 n=50 v=31
74668 Par ch=4 c=11 v=78
74672 On ch=4 n=50 v=0
74672 On ch=4 n=50 v=31
74680 On ch=4 n=50 v=0
74680 Par ch=4 c=11 v=79
74680 On ch=4 n=50 v=31
74688 On ch=4 n=50 v=0
74688 On ch=4 n=50 v=31
74692 Par ch=4 c=11 v=80
74696 On ch=4 n=50 v=0
74696 On ch=4 n=50 v=31
74704 On ch=4 n=50 v=0
74704 Par ch=4 c=11 v=81
74704 On ch=4 n=50 v=31
74712 On ch=4 n=50 v=0
74712 On ch=4 n=50 v=31
74716 Par ch=4 c=11 v=82
74720 On ch=4 n=50 v=0
74720 On ch=4 n=50 v=31
74728 On ch=4 n=50 v=0
74728 Par ch=4 c=11 v=83
74728 On ch=4 n=50 v=31
74736 On ch=4 n=50 v=0
74736 On ch=4 n=50 v=31
74740 Par ch=4 c=11 v=84
74744 On ch=4 n=50 v=0
74744 On ch=4 n=50 v=31
74752 On ch=4 n=50 v=0
74752 Par ch=4 c=11 v=85
74752 On ch=4 n=50 v=31
74760 On ch=4 n=50 v=0
74760 On ch=4 n=50 v=31
74768 On ch=4 n=50 v=0
74768 Par ch=4 c=11 v=86
74768 On ch=4 n=50 v=31
74776 On ch=4 n=50 v=0
74776 On ch=4 n=50 v=31
74780 Par ch=4 c=11 v=87
74784 On ch=4 n=50 v=0
74784 On ch=4 n=50 v=31
74792 On ch=4 n=50 v=0
74792 Par ch=4 c=11 v=88
74792 On ch=4 n=50 v=31
74800 On ch=4 n=50 v=0
74800 On ch=4 n=50 v=31
74804 Par ch=4 c=11 v=89
74808 On ch=4 n=50 v=0
74808 On ch=4 n=50 v=31
74816 On ch=4 n=50 v=0
74816 Par ch=4 c=11 v=90
74816 On ch=4 n=50 v=31
74824 On ch=4 n=50 v=0
74824 On ch=4 n=50 v=31
74828 Par ch=4 c=11 v=91
74832 On ch=4 n=50 v=0
74832 On ch=4 n=50 v=31
74840 On ch=4 n=50 v=0
74840 Par ch=4 c=11 v=92
74840 On ch=4 n=50 v=31
74848 On ch=4 n=50 v=0
74848 On ch=4 n=50 v=31
74852 Par ch=4 c=11 v=93
74856 On ch=4 n=50 v=0
74856 On ch=4 n=50 v=31
74864 On ch=4 n=50 v=0
74864 Par ch=4 c=11 v=94
74864 On ch=4 n=50 v=31
74872 On ch=4 n=50 v=0
74872 On ch=4 n=50 v=31
74876 Par ch=4 c=11 v=95
74880 On ch=4 n=50 v=0
74880 On ch=4 n=50 v=31
74888 On ch=4 n=50 v=0
74888 Par ch=4 c=11 v=96
74888 On ch=4 n=50 v=31
74896 On ch=4 n=50 v=0
74896 On ch=4 n=50 v=31
74900 Par ch=4 c=11 v=97
74904 On ch=4 n=50 v=0
74904 On ch=4 n=50 v=31
74912 On ch=4 n=50 v=0
74912 Par ch=4 c=11 v=98
74912 On ch=4 n=50 v=31
74920 On ch=4 n=50 v=0
74920 On ch=4 n=50 v=31
74924 Par ch=4 c=11 v=99
74928 On ch=4 n=50 v=0
74928 On ch=4 n=50 v=31
74936 On ch=4 n=50 v=0
74936 Par ch=4 c=11 v=100
74936 On ch=4 n=50 v=31
74944 On ch=4 n=50 v=0
74944 On ch=4 n=50 v=31
74948 Par ch=4 c=11 v=101
74952 On ch=4 n=50 v=0
74952 On ch=4 n=50 v=31
74960 On ch=4 n=50 v=0
74960 Par ch=4 c=11 v=102
74960 On ch=4 n=50 v=31
74968 On ch=4 n=50 v=0
74968 On ch=4 n=50 v=31
74972 Par ch=4 c=11 v=103
74976 On ch=4 n=50 v=0
74976 On ch=4 n=50 v=31
74984 On ch=4 n=50 v=0
74984 Par ch=4 c=11 v=104
74984 On ch=4 n=50 v=31
74992 On ch=4 n=50 v=0
74992 On ch=4 n=50 v=31
74996 Par ch=4 c=11 v=105
75000 On ch=4 n=50 v=0
75000 On ch=4 n=50 v=31
75008 On ch=4 n=50 v=0
75008 Par ch=4 c=11 v=106
75008 On ch=4 n=50 v=31
75016 On ch=4 n=50 v=0
75016 On ch=4 n=50 v=31
75024 On ch=4 n=50 v=0
75024 Par ch=4 c=11 v=107
75024 On ch=4 n=50 v=31
75032 On ch=4 n=50 v=0
75032 On ch=4 n=50 v=31
75036 Par ch=4 c=11 v=108
75040 On ch=4 n=50 v=0
75040 On ch=4 n=50 v=31
75048 On ch=4 n=50 v=0
75048 Par ch=4 c=11 v=109
75048 On ch=4 n=50 v=31
75056 On ch=4 n=50 v=0
75056 On ch=4 n=50 v=31
75060 Par ch=4 c=11 v=110
75064 On ch=4 n=50 v=0
75064 On ch=4 n=50 v=31
75072 On ch=4 n=50 v=0
75072 Par ch=4 c=11 v=111
75072 On ch=4 n=50 v=31
75080 On ch=4 n=50 v=0
75080 On ch=4 n=50 v=31
75084 Par ch=4 c=11 v=112
75088 On ch=4 n=50 v=0
75088 On ch=4 n=50 v=31
75096 On ch=4 n=50 v=0
75096 Par ch=4 c=11 v=113
75096 On ch=4 n=50 v=31
75104 On ch=4 n=50 v=0
75104 On ch=4 n=50 v=31
75108 Par ch=4 c=11 v=114
75112 On ch=4 n=50 v=0
75112 On ch=4 n=50 v=31
75120 On ch=4 n=50 v=0
75120 Par ch=4 c=11 v=115
75120 On ch=4 n=50 v=31
75128 On ch=4 n=50 v=0
75128 On ch=4 n=50 v=31
75132 Par ch=4 c=11 v=116
75136 On ch=4 n=50 v=0
75136 On ch=4 n=50 v=31
75144 On ch=4 n=50 v=0
75144 Par ch=4 c=11 v=117
75144 On ch=4 n=50 v=31
75152 On ch=4 n=50 v=0
75152 On ch=4 n=50 v=31
75156 Par ch=4 c=11 v=118
75160 On ch=4 n=50 v=0
75160 On ch=4 n=50 v=31
75168 On ch=4 n=50 v=0
75168 Par ch=4 c=11 v=119
75168 On ch=4 n=50 v=31
75176 On ch=4 n=50 v=0
75176 On ch=4 n=50 v=31
75180 Par ch=4 c=11 v=120
75184 On ch=4 n=50 v=0
75184 On ch=4 n=50 v=31
75192 On ch=4 n=50 v=0
75192 Par ch=4 c=11 v=121
75192 On ch=4 n=50 v=31
75200 On ch=4 n=50 v=0
75200 On ch=4 n=50 v=31
75204 Par ch=4 c=11 v=122
75208 On ch=4 n=50 v=0
75208 On ch=4 n=50 v=31
75216 On ch=4 n=50 v=0
75216 Par ch=4 c=11 v=123
75216 On ch=4 n=50 v=31
75224 On ch=4 n=50 v=0
75224 On ch=4 n=50 v=31
75228 Par ch=4 c=11 v=124
75232 On ch=4 n=50 v=0
75232 On ch=4 n=50 v=31
75240 On ch=4 n=50 v=0
75240 Par ch=4 c=11 v=125
75240 On ch=4 n=50 v=31
75248 On ch=4 n=50 v=0
75248 On ch=4 n=50 v=31
75252 Par ch=4 c=11 v=126
75256 On ch=4 n=50 v=0
75256 On ch=4 n=50 v=31
75264 On ch=4 n=50 v=0
75360 Par ch=4 c=11 v=64
75360 On ch=4 n=50 v=111
75437 On ch=4 n=50 v=0
75488 On ch=4 n=50 v=111
75514 On ch=4 n=50 v=0
75520 On ch=4 n=50 v=111
75546 On ch=4 n=50 v=0
75552 On ch=4 n=50 v=111
75578 On ch=4 n=50 v=0
75584 On ch=4 n=50 v=111
75610 On ch=4 n=50 v=0
75616 On ch=4 n=50 v=111
75642 On ch=4 n=50 v=0
75648 On ch=4 n=50 v=111
75686 On ch=4 n=50 v=0
75720 On ch=4 n=50 v=111
75739 On ch=4 n=50 v=0
75744 On ch=4 n=50 v=111
75782 On ch=4 n=50 v=0
75816 On ch=4 n=50 v=111
75835 On ch=4 n=50 v=0
75840 On ch=4 n=50 v=111
75878 On ch=4 n=50 v=0
75912 On ch=4 n=50 v=111
75931 On ch=4 n=50 v=0
75936 On ch=4 n=50 v=111
75974 On ch=4 n=50 v=0
76008 On ch=4 n=50 v=111
76027 On ch=4 n=50 v=0
76032 On ch=4 n=50 v=111
76109 On ch=4 n=50 v=0
76288 On ch=4 n=50 v=111
76314 On ch=4 n=50 v=0
76320 On ch=4 n=50 v=111
76346 On ch=4 n=50 v=0
76352 On ch=4 n=50 v=111
76378 On ch=4 n=50 v=0
76384 On ch=4 n=50 v=111
76410 On ch=4 n=50 v=0
76416 On ch=4 n=50 v=111
76454 On ch=4 n=50 v=0
76488 On ch=4 n=50 v=111
76507 On ch=4 n=50 v=0
76512 On ch=4 n=50 v=111
76550 On ch=4 n=50 v=0
76584 On ch=4 n=50 v=111
76603 On ch=4 n=50 v=0
76608 On ch=4 n=50 v=111
76634 On ch=4 n=50 v=0
76640 On ch=4 n=50 v=111
76666 On ch=4 n=50 v=0
76672 On ch=4 n=50 v=111
76698 On ch=4 n=50 v=0
76704 On ch=4 n=50 v=111
76730 On ch=4 n=50 v=0
76736 On ch=4 n=50 v=111
76762 On ch=4 n=50 v=0
76768 On ch=4 n=50 v=111
76794 On ch=4 n=50 v=0
85632 On ch=4 n=47 v=47
85709 On ch=4 n=47 v=0
93984 Par ch=4 c=11 v=64
93984 On ch=4 n=38 v=111
93988 Par ch=4 c=11 v=62
93992 On ch=4 n=38 v=0
93992 Par ch=4 c=11 v=60
93992 On ch=4 n=39 v=111
93996 Par ch=4 c=11 v=58
94000 On ch=4 n=39 v=0
94000 Par ch=4 c=11 v=56
94000 On ch=4 n=39 v=111
94004 Par ch=4 c=11 v=54
94008 On ch=4 n=39 v=0
94008 Par ch=4 c=11 v=52
94008 On ch=4 n=39 v=111
94012 Par ch=4 c=11 v=50
94016 On ch=4 n=39 v=0
94016 Par ch=4 c=11 v=48
94016 On ch=4 n=39 v=111
94020 Par ch=4 c=11 v=46
94024 On ch=4 n=39 v=0
94024 Par ch=4 c=11 v=44
94024 On ch=4 n=39 v=111
94028 Par ch=4 c=11 v=42
94032 On ch=4 n=39 v=0
94032 Par ch=4 c=11 v=40
94032 On ch=4 n=39 v=111
94036 Par ch=4 c=11 v=38
94040 On ch=4 n=39 v=0
94040 Par ch=4 c=11 v=36
94040 On ch=4 n=39 v=111
94044 Par ch=4 c=11 v=34
94048 On ch=4 n=39 v=0
94048 Par ch=4 c=11 v=32
94048 On ch=4 n=39 v=111
94052 Par ch=4 c=11 v=30
94056 On ch=4 n=39 v=0
94056 Par ch=4 c=11 v=28
94056 On ch=4 n=39 v=111
94060 Par ch=4 c=11 v=26
94064 On ch=4 n=39 v=0
94064 Par ch=4 c=11 v=24
94064 On ch=4 n=39 v=111
94068 Par ch=4 c=11 v=22
94072 On ch=4 n=39 v=0
94072 Par ch=4 c=11 v=20
94072 On ch=4 n=39 v=111
94076 Par ch=4 c=11 v=18
94080 On ch=4 n=39 v=0
94080 Par ch=4 c=11 v=16
94080 On ch=4 n=39 v=111
94088 On ch=4 n=39 v=0
94088 On ch=4 n=39 v=111
94096 On ch=4 n=39 v=0
94096 On ch=4 n=39 v=111
94104 On ch=4 n=39 v=0
94104 On ch=4 n=39 v=111
94112 On ch=4 n=39 v=0
94112 On ch=4 n=39 v=111
94120 On ch=4 n=39 v=0
94120 On ch=4 n=39 v=111
94128 On ch=4 n=39 v=0
94128 On ch=4 n=39 v=111
94136 On ch=4 n=39 v=0
94136 On ch=4 n=39 v=111
94144 On ch=4 n=39 v=0
94144 On ch=4 n=39 v=111
94152 On ch=4 n=39 v=0
94152 On ch=4 n=39 v=111
94160 On ch=4 n=39 v=0
94160 On ch=4 n=39 v=111
94168 On ch=4 n=39 v=0
94168 On ch=4 n=39 v=111
94176 On ch=4 n=39 v=0
94176 On ch=4 n=39 v=111
94184 On ch=4 n=39 v=0
94184 On ch=4 n=39 v=111
94192 On ch=4 n=39 v=0
94192 On ch=4 n=39 v=111
94200 On ch=4 n=39 v=0
94200 On ch=4 n=39 v=111
94208 On ch=4 n=39 v=0
94208 On ch=4 n=39 v=111
94216 On ch=4 n=39 v=0
94216 On ch=4 n=39 v=111
94224 On ch=4 n=39 v=0
94224 On ch=4 n=39 v=111
94232 On ch=4 n=39 v=0
94232 On ch=4 n=39 v=111
94240 On ch=4 n=39 v=0
94240 On ch=4 n=39 v=111
94248 On ch=4 n=39 v=0
94248 On ch=4 n=39 v=111
94256 On ch=4 n=39 v=0
94256 On ch=4 n=39 v=111
94264 On ch=4 n=39 v=0
94264 On ch=4 n=39 v=111
94272 On ch=4 n=39 v=0
94272 On ch=4 n=39 v=111
94280 On ch=4 n=39 v=0
94280 On ch=4 n=39 v=111
94288 On ch=4 n=39 v=0
94288 On ch=4 n=39 v=111
94296 On ch=4 n=39 v=0
94296 On ch=4 n=39 v=111
94304 On ch=4 n=39 v=0
94304 On ch=4 n=39 v=111
94312 On ch=4 n=39 v=0
94312 On ch=4 n=39 v=111
94320 On ch=4 n=39 v=0
94320 On ch=4 n=39 v=111
94328 On ch=4 n=39 v=0
94328 On ch=4 n=39 v=111
94336 On ch=4 n=39 v=0
94336 On ch=4 n=39 v=111
94344 On ch=4 n=39 v=0
94344 On ch=4 n=39 v=111
94352 On ch=4 n=39 v=0
94352 On ch=4 n=39 v=111
94360 On ch=4 n=39 v=0
94360 On ch=4 n=39 v=111
94368 On ch=4 n=39 v=0
94368 On ch=4 n=39 v=111
94376 On ch=4 n=39 v=0
94376 On ch=4 n=39 v=111
94384 On ch=4 n=39 v=0
94384 On ch=4 n=39 v=111
94392 On ch=4 n=39 v=0
94392 On ch=4 n=39 v=111
94400 On ch=4 n=39 v=0
94400 On ch=4 n=39 v=111
94408 On ch=4 n=39 v=0
94408 On ch=4 n=39 v=111
94416 On ch=4 n=39 v=0
94416 On ch=4 n=39 v=111
94424 On ch=4 n=39 v=0
94424 On ch=4 n=39 v=111
94432 On ch=4 n=39 v=0
94432 On ch=4 n=39 v=111
94440 On ch=4 n=39 v=0
94440 On ch=4 n=39 v=111
94448 On ch=4 n=39 v=0
94448 On ch=4 n=39 v=111
94456 On ch=4 n=39 v=0
94456 On ch=4 n=39 v=111
94464 On ch=4 n=39 v=0
94464 On ch=4 n=39 v=111
94472 On ch=4 n=39 v=0
94472 On ch=4 n=39 v=111
94480 On ch=4 n=39 v=0
94480 On ch=4 n=39 v=111
94488 On ch=4 n=39 v=0
94488 On ch=4 n=39 v=111
94496 On ch=4 n=39 v=0
94496 On ch=4 n=39 v=111
94504 On ch=4 n=39 v=0
94504 On ch=4 n=39 v=111
94512 On ch=4 n=39 v=0
94512 On ch=4 n=39 v=111
94520 On ch=4 n=39 v=0
94520 On ch=4 n=39 v=111
94528 On ch=4 n=39 v=0
94528 On ch=4 n=39 v=111
94536 On ch=4 n=39 v=0
94536 On ch=4 n=39 v=111
94544 On ch=4 n=39 v=0
94544 On ch=4 n=39 v=111
94552 On ch=4 n=39 v=0
94552 On ch=4 n=39 v=111
94560 On ch=4 n=39 v=0
94560 On ch=4 n=39 v=111
94568 On ch=4 n=39 v=0
94568 On ch=4 n=39 v=111
94576 On ch=4 n=39 v=0
94576 On ch=4 n=39 v=111
94584 On ch=4 n=39 v=0
94584 On ch=4 n=39 v=111
94592 On ch=4 n=39 v=0
94592 On ch=4 n=39 v=111
94600 On ch=4 n=39 v=0
94600 On ch=4 n=39 v=111
94608 On ch=4 n=39 v=0
94608 On ch=4 n=39 v=111
94616 On ch=4 n=39 v=0
94616 On ch=4 n=39 v=111
94624 On ch=4 n=39 v=0
94624 On ch=4 n=39 v=111
94632 On ch=4 n=39 v=0
94632 On ch=4 n=39 v=111
94640 On ch=4 n=39 v=0
94640 On ch=4 n=39 v=111
94648 On ch=4 n=39 v=0
94648 On ch=4 n=39 v=111
94656 On ch=4 n=39 v=0
94656 On ch=4 n=39 v=111
94664 On ch=4 n=39 v=0
94664 On ch=4 n=39 v=111
94672 On ch=4 n=39 v=0
94672 On ch=4 n=39 v=111
94680 On ch=4 n=39 v=0
94680 On ch=4 n=39 v=111
94688 On ch=4 n=39 v=0
94688 On ch=4 n=39 v=111
94696 On ch=4 n=39 v=0
94696 On ch=4 n=39 v=111
94704 On ch=4 n=39 v=0
94704 On ch=4 n=39 v=111
94712 On ch=4 n=39 v=0
94712 On ch=4 n=39 v=111
94720 On ch=4 n=39 v=0
94720 On ch=4 n=39 v=111
94728 On ch=4 n=39 v=0
94728 On ch=4 n=39 v=111
94736 On ch=4 n=39 v=0
94736 On ch=4 n=39 v=111
94744 On ch=4 n=39 v=0
94744 On ch=4 n=39 v=111
94752 On ch=4 n=39 v=0
94752 On ch=4 n=39 v=111
94760 On ch=4 n=39 v=0
94760 On ch=4 n=39 v=111
94768 On ch=4 n=39 v=0
94768 On ch=4 n=39 v=111
94776 On ch=4 n=39 v=0
94776 On ch=4 n=39 v=111
94784 On ch=4 n=39 v=0
94784 On ch=4 n=39 v=111
94792 On ch=4 n=39 v=0
94792 On ch=4 n=39 v=111
94800 On ch=4 n=39 v=0
94800 On ch=4 n=39 v=111
94808 On ch=4 n=39 v=0
94808 On ch=4 n=39 v=111
94816 On ch=4 n=39 v=0
94816 On ch=4 n=39 v=111
94824 On ch=4 n=39 v=0
94824 On ch=4 n=39 v=111
94832 On ch=4 n=39 v=0
94832 On ch=4 n=39 v=111
94840 On ch=4 n=39 v=0
94840 On ch=4 n=39 v=111
94848 On ch=4 n=39 v=0
94848 On ch=4 n=39 v=111
94856 On ch=4 n=39 v=0
94856 On ch=4 n=39 v=111
94864 On ch=4 n=39 v=0
94864 On ch=4 n=39 v=111
94872 On ch=4 n=39 v=0
94872 On ch=4 n=39 v=111
94880 On ch=4 n=39 v=0
94880 On ch=4 n=39 v=111
94888 On ch=4 n=39 v=0
94888 On ch=4 n=39 v=111
94896 On ch=4 n=39 v=0
94896 On ch=4 n=39 v=111
94904 On ch=4 n=39 v=0
94904 On ch=4 n=39 v=111
94912 On ch=4 n=39 v=0
94912 On ch=4 n=39 v=111
94920 On ch=4 n=39 v=0
94920 On ch=4 n=39 v=111
94928 On ch=4 n=39 v=0
94928 On ch=4 n=39 v=111
94936 On ch=4 n=39 v=0
94936 On ch=4 n=39 v=111
94944 On ch=4 n=39 v=0
94944 On ch=4 n=39 v=111
94952 On ch=4 n=39 v=0
94952 On ch=4 n=39 v=111
94960 On ch=4 n=39 v=0
94960 On ch=4 n=39 v=111
94968 On ch=4 n=39 v=0
94968 On ch=4 n=39 v=111
94976 On ch=4 n=39 v=0
94976 On ch=4 n=39 v=111
94984 On ch=4 n=39 v=0
94984 On ch=4 n=39 v=111
94992 On ch=4 n=39 v=0
94992 On ch=4 n=39 v=111
95000 On ch=4 n=39 v=0
95000 On ch=4 n=39 v=111
95008 On ch=4 n=39 v=0
95008 On ch=4 n=39 v=111
95016 On ch=4 n=39 v=0
95016 On ch=4 n=39 v=111
95024 On ch=4 n=39 v=0
95024 On ch=4 n=39 v=111
95032 On ch=4 n=39 v=0
95032 On ch=4 n=39 v=111
95040 On ch=4 n=39 v=0
95040 On ch=4 n=39 v=111
95048 On ch=4 n=39 v=0
95048 On ch=4 n=39 v=111
95056 On ch=4 n=39 v=0
95056 On ch=4 n=39 v=111
95064 On ch=4 n=39 v=0
95064 On ch=4 n=39 v=111
95072 On ch=4 n=39 v=0
95072 On ch=4 n=39 v=111
95080 On ch=4 n=39 v=0
95080 On ch=4 n=39 v=111
95088 On ch=4 n=39 v=0
95088 On ch=4 n=39 v=111
95096 On ch=4 n=39 v=0
95096 On ch=4 n=39 v=111
95104 On ch=4 n=39 v=0
95104 On ch=4 n=39 v=111
95112 On ch=4 n=39 v=0
95112 On ch=4 n=39 v=111
95120 On ch=4 n=39 v=0
95120 On ch=4 n=39 v=111
95128 On ch=4 n=39 v=0
95128 On ch=4 n=39 v=111
95136 On ch=4 n=39 v=0
95136 On ch=4 n=39 v=111
95144 On ch=4 n=39 v=0
95144 On ch=4 n=39 v=111
95152 On ch=4 n=39 v=0
95152 On ch=4 n=39 v=111
95160 On ch=4 n=39 v=0
95160 On ch=4 n=39 v=111
95168 On ch=4 n=39 v=0
95168 On ch=4 n=39 v=111
95176 On ch=4 n=39 v=0
95176 On ch=4 n=39 v=111
95184 On ch=4 n=39 v=0
95184 On ch=4 n=39 v=111
95192 On ch=4 n=39 v=0
95192 On ch=4 n=39 v=111
95200 On ch=4 n=39 v=0
95200 On ch=4 n=39 v=111
95208 On ch=4 n=39 v=0
95208 On ch=4 n=39 v=111
95216 On ch=4 n=39 v=0
95216 On ch=4 n=39 v=111
95224 On ch=4 n=39 v=0
95224 On ch=4 n=39 v=111
95232 On ch=4 n=39 v=0
95232 On ch=4 n=39 v=111
95240 On ch=4 n=39 v=0
95240 On ch=4 n=39 v=111
95248 On ch=4 n=39 v=0
95248 On ch=4 n=39 v=111
95256 On ch=4 n=39 v=0
95256 On ch=4 n=39 v=111
95264 On ch=4 n=39 v=0
95264 On ch=4 n=39 v=111
95272 On ch=4 n=39 v=0
95272 On ch=4 n=39 v=111
95280 On ch=4 n=39 v=0
95280 On ch=4 n=39 v=111
95288 On ch=4 n=39 v=0
95288 On ch=4 n=39 v=111
95296 On ch=4 n=39 v=0
95296 On ch=4 n=39 v=111
95304 On ch=4 n=39 v=0
95304 On ch=4 n=39 v=111
95312 On ch=4 n=39 v=0
95312 On ch=4 n=39 v=111
95320 On ch=4 n=39 v=0
95320 On ch=4 n=39 v=111
95328 On ch=4 n=39 v=0
95328 On ch=4 n=39 v=111
95336 On ch=4 n=39 v=0
95336 On ch=4 n=39 v=111
95344 On ch=4 n=39 v=0
95344 On ch=4 n=39 v=111
95352 On ch=4 n=39 v=0
95352 On ch=4 n=39 v=111
95360 On ch=4 n=39 v=0
95360 On ch=4 n=39 v=111
95368 On ch=4 n=39 v=0
95368 On ch=4 n=39 v=111
95376 On ch=4 n=39 v=0
95376 On ch=4 n=39 v=111
95384 On ch=4 n=39 v=0
95384 On ch=4 n=39 v=111
95392 On ch=4 n=39 v=0
95392 On ch=4 n=39 v=111
95400 On ch=4 n=39 v=0
95400 On ch=4 n=39 v=111
95408 On ch=4 n=39 v=0
95408 On ch=4 n=39 v=111
95416 On ch=4 n=39 v=0
95416 On ch=4 n=39 v=111
95424 On ch=4 n=39 v=0
95424 On ch=4 n=39 v=111
95432 On ch=4 n=39 v=0
95432 On ch=4 n=39 v=111
95440 On ch=4 n=39 v=0
95440 On ch=4 n=39 v=111
95448 On ch=4 n=39 v=0
95448 On ch=4 n=39 v=111
95456 On ch=4 n=39 v=0
95456 On ch=4 n=39 v=111
95464 On ch=4 n=39 v=0
95464 On ch=4 n=39 v=111
95472 On ch=4 n=39 v=0
95472 On ch=4 n=39 v=111
95480 On ch=4 n=39 v=0
95480 On ch=4 n=39 v=111
95488 On ch=4 n=39 v=0
95488 On ch=4 n=39 v=111
95496 On ch=4 n=39 v=0
95496 On ch=4 n=39 v=111
95504 On ch=4 n=39 v=0
95504 On ch=4 n=39 v=111
95512 On ch=4 n=39 v=0
95512 On ch=4 n=39 v=111
95520 On ch=4 n=39 v=0
95520 On ch=4 n=39 v=111
95528 On ch=4 n=39 v=0
95528 On ch=4 n=39 v=111
95536 On ch=4 n=39 v=0
95536 On ch=4 n=39 v=111
95544 On ch=4 n=39 v=0
95544 On ch=4 n=39 v=111
95552 On ch=4 n=39 v=0
95552 On ch=4 n=39 v=111
95560 On ch=4 n=39 v=0
95560 On ch=4 n=39 v=111
95568 On ch=4 n=39 v=0
95568 On ch=4 n=39 v=111
95576 On ch=4 n=39 v=0
95576 On ch=4 n=39 v=111
95584 On ch=4 n=39 v=0
95584 On ch=4 n=39 v=111
95592 On ch=4 n=39 v=0
95592 On ch=4 n=39 v=111
95600 On ch=4 n=39 v=0
95600 On ch=4 n=39 v=111
95608 On ch=4 n=39 v=0
95608 On ch=4 n=39 v=111
95616 On ch=4 n=39 v=0
95808 Par ch=4 c=11 v=64
95808 On ch=4 n=51 v=111
95846 On ch=4 n=51 v=0
95880 On ch=4 n=46 v=111
95899 On ch=4 n=46 v=0
95904 On ch=4 n=39 v=111
95942 On ch=4 n=39 v=0
96576 On ch=4 n=51 v=63
96614 On ch=4 n=51 v=0
96648 On ch=4 n=46 v=63
96667 On ch=4 n=46 v=0
96672 On ch=4 n=39 v=63
96710 On ch=4 n=39 v=0
108672 Par ch=4 c=11 v=64
108672 On ch=4 n=51 v=31
108680 On ch=4 n=51 v=0
108680 On ch=4 n=51 v=31
108688 On ch=4 n=51 v=0
108688 On ch=4 n=51 v=31
108692 Par ch=4 c=11 v=65
108696 On ch=4 n=51 v=0
108696 On ch=4 n=51 v=31
108704 On ch=4 n=51 v=0
108704 On ch=4 n=51 v=31
108708 Par ch=4 c=11 v=66
108712 On ch=4 n=51 v=0
108712 On ch=4 n=51 v=31
108720 On ch=4 n=51 v=0
108720 On ch=4 n=51 v=31
108728 On ch=4 n=51 v=0
108728 Par ch=4 c=11 v=67
108728 On ch=4 n=51 v=31
108736 On ch=4 n=51 v=0
108736 On ch=4 n=51 v=31
108744 On ch=4 n=51 v=0
108744 Par ch=4 c=11 v=68
108744 On ch=4 n=51 v=31
108752 On ch=4 n=51 v=0
108752 On ch=4 n=51 v=31
108760 On ch=4 n=51 v=0
108760 On ch=4 n=51 v=31
108764 Par ch=4 c=11 v=69
108768 On ch=4 n=51 v=0
108768 On ch=4 n=51 v=31
108776 On ch=4 n=51 v=0
108776 On ch=4 n=51 v=31
108780 Par ch=4 c=11 v=70
108784 On ch=4 n=51 v=0
108784 On ch=4 n=51 v=31
108792 On ch=4 n=51 v=0
108792 On ch=4 n=51 v=31
108800 On ch=4 n=51 v=0
108800 Par ch=4 c=11 v=71
108800 On ch=4 n=51 v=31
108808 On ch=4 n=51 v=0
108808 On ch=4 n=51 v=31
108816 On ch=4 n=51 v=0
108816 Par ch=4 c=11 v=72
108816 On ch=4 n=51 v=31
108824 On ch=4 n=51 v=0
108824 On ch=4 n=51 v=31
108832 On ch=4 n=51 v=0
108832 On ch=4 n=51 v=31
108836 Par ch=4 c=11 v=73
108840 On ch=4 n=51 v=0
108840 On ch=4 n=51 v=31
108848 On ch=4 n=51 v=0
108848 On ch=4 n=51 v=31
108852 Par ch=4 c=11 v=74
108856 On ch=4 n=51 v=0
108856 On ch=4 n=51 v=31
108864 On ch=4 n=51 v=0
108864 On ch=4 n=51 v=31
108872 On ch=4 n=51 v=0
108872 Par ch=4 c=11 v=75
108872 On ch=4 n=51 v=31
108880 On ch=4 n=51 v=0
108880 On ch=4 n=51 v=31
108888 On ch=4 n=51 v=0
108888 Par ch=4 c=11 v=76
108888 On ch=4 n=51 v=31
108896 On ch=4 n=51 v=0
108896 On ch=4 n=51 v=31
108904 On ch=4 n=51 v=0
108904 On ch=4 n=51 v=31
108908 Par ch=4 c=11 v=77
108912 On ch=4 n=51 v=0
108912 On ch=4 n=51 v=31
108920 On ch=4 n=51 v=0
108920 On ch=4 n=51 v=31
108924 Par ch=4 c=11 v=78
108928 On ch=4 n=51 v=0
108928 On ch=4 n=51 v=31
108936 On ch=4 n=51 v=0
108936 On ch=4 n=51 v=31
108944 On ch=4 n=51 v=0
108944 Par ch=4 c=11 v=79
108944 On ch=4 n=51 v=31
108952 On ch=4 n=51 v=0
108952 On ch=4 n=51 v=31
108960 On ch=4 n=51 v=0
108960 Par ch=4 c=11 v=80
109056 Par ch=4 c=11 v=64
110592 On ch=4 n=46 v=111
110688 On ch=4 n=46 v=0
111744 On ch=4 n=51 v=111
111821 On ch=4 n=51 v=0
111968 On ch=4 n=46 v=111
111994 On ch=4 n=46 v=0
112000 On ch=4 n=51 v=111
112026 On ch=4 n=51 v=0
112032 On ch=4 n=46 v=111
112058 On ch=4 n=46 v=0
112064 On ch=4 n=51 v=111
112090 On ch=4 n=51 v=0
112096 On ch=4 n=46 v=111
112122 On ch=4 n=46 v=0
112128 On ch=4 n=51 v=111
112154 On ch=4 n=51 v=0
112160 On ch=4 n=46 v=111
112186 On ch=4 n=46 v=0
112192 On ch=4 n=51 v=111
112218 On ch=4 n=51 v=0
112224 On ch=4 n=46 v=111
112250 On ch=4 n=46 v=0
112256 On ch=4 n=51 v=111
112282 On ch=4 n=51 v=0
112288 On ch=4 n=46 v=111
112314 On ch=4 n=46 v=0
112320 On ch=4 n=51 v=111
112358 On ch=4 n=51 v=0
112392 On ch=4 n=51 v=111
112411 On ch=4 n=51 v=0
112416 On ch=4 n=46 v=111
112454 On ch=4 n=46 v=0
112488 On ch=4 n=46 v=111
112507 On ch=4 n=46 v=0
112512 On ch=4 n=51 v=111
112589 On ch=4 n=51 v=0
112736 On ch=4 n=46 v=111
112762 On ch=4 n=46 v=0
112768 On ch=4 n=51 v=111
112794 On ch=4 n=51 v=0
112800 On ch=4 n=46 v=111
112826 On ch=4 n=46 v=0
112832 On ch=4 n=51 v=111
112858 On ch=4 n=51 v=0
112864 On ch=4 n=46 v=111
112890 On ch=4 n=46 v=0
112896 On ch=4 n=51 v=111
112922 On ch=4 n=51 v=0
112928 On ch=4 n=46 v=111
112954 On ch=4 n=46 v=0
112960 On ch=4 n=51 v=111
112986 On ch=4 n=51 v=0
112992 On ch=4 n=46 v=111
113018 On ch=4 n=46 v=0
113024 On ch=4 n=51 v=111
113050 On ch=4 n=51 v=0
113056 On ch=4 n=46 v=111
113082 On ch=4 n=46 v=0
113088 On ch=4 n=51 v=111
113126 On ch=4 n=51 v=0
113160 On ch=4 n=51 v=111
113179 On ch=4 n=51 v=0
113184 On ch=4 n=46 v=111
113222 On ch=4 n=46 v=0
113256 On ch=4 n=46 v=111
113275 On ch=4 n=46 v=0
113280 On ch=4 n=51 v=111
113318 On ch=4 n=51 v=0
114048 Par ch=4 c=11 v=64
114048 On ch=4 n=46 v=47
114056 On ch=4 n=46 v=0
114056 Par ch=4 c=11 v=65
114056 On ch=4 n=46 v=47
114064 On ch=4 n=46 v=0
114064 Par ch=4 c=11 v=66
114064 On ch=4 n=46 v=47
114072 On ch=4 n=46 v=0
114072 Par ch=4 c=11 v=67
114072 On ch=4 n=46 v=47
114080 On ch=4 n=46 v=0
114080 Par ch=4 c=11 v=68
114080 On ch=4 n=46 v=47
114088 On ch=4 n=46 v=0
114088 Par ch=4 c=11 v=69
114088 On ch=4 n=46 v=47
114096 On ch=4 n=46 v=0
114096 Par ch=4 c=11 v=70
114096 On ch=4 n=46 v=47
114104 On ch=4 n=46 v=0
114104 Par ch=4 c=11 v=71
114104 On ch=4 n=46 v=47
114112 On ch=4 n=46 v=0
114112 Par ch=4 c=11 v=72
114112 On ch=4 n=46 v=47
114120 On ch=4 n=46 v=0
114120 Par ch=4 c=11 v=73
114120 On ch=4 n=46 v=47
114128 On ch=4 n=46 v=0
114128 Par ch=4 c=11 v=74
114128 On ch=4 n=46 v=47
114136 On ch=4 n=46 v=0
114136 Par ch=4 c=11 v=75
114136 On ch=4 n=46 v=47
114144 On ch=4 n=46 v=0
114144 Par ch=4 c=11 v=76
114144 On ch=4 n=46 v=47
114152 On ch=4 n=46 v=0
114152 Par ch=4 c=11 v=77
114152 On ch=4 n=46 v=47
114160 On ch=4 n=46 v=0
114160 Par ch=4 c=11 v=78
114160 On ch=4 n=46 v=47
114168 On ch=4 n=46 v=0
114168 Par ch=4 c=11 v=79
114168 On ch=4 n=46 v=47
114176 On ch=4 n=46 v=0
114176 Par ch=4 c=11 v=80
114176 On ch=4 n=46 v=47
114184 On ch=4 n=46 v=0
114184 Par ch=4 c=11 v=81
114184 On ch=4 n=46 v=47
114192 On ch=4 n=46 v=0
114192 Par ch=4 c=11 v=82
114192 On ch=4 n=46 v=47
114200 On ch=4 n=46 v=0
114200 Par ch=4 c=11 v=83
114200 On ch=4 n=46 v=47
114208 On ch=4 n=46 v=0
114208 Par ch=4 c=11 v=84
114208 On ch=4 n=46 v=47
114216 On ch=4 n=46 v=0
114216 Par ch=4 c=11 v=85
114216 On ch=4 n=46 v=47
114224 On ch=4 n=46 v=0
114224 Par ch=4 c=11 v=86
114224 On ch=4 n=46 v=47
114232 On ch=4 n=46 v=0
114232 Par ch=4 c=11 v=87
114232 On ch=4 n=46 v=47
114240 On ch=4 n=46 v=0
114240 Par ch=4 c=11 v=88
114240 On ch=4 n=46 v=47
114244 Par ch=4 c=11 v=89
114248 On ch=4 n=46 v=0
114248 On ch=4 n=46 v=47
114252 Par ch=4 c=11 v=90
114256 On ch=4 n=46 v=0
114256 On ch=4 n=46 v=47
114260 Par ch=4 c=11 v=91
114264 On ch=4 n=46 v=0
114264 On ch=4 n=46 v=47
114268 Par ch=4 c=11 v=92
114272 On ch=4 n=46 v=0
114272 On ch=4 n=46 v=47
114276 Par ch=4 c=11 v=93
114280 On ch=4 n=46 v=0
114280 On ch=4 n=46 v=47
114284 Par ch=4 c=11 v=94
114288 On ch=4 n=46 v=0
114288 On ch=4 n=46 v=47
114292 Par ch=4 c=11 v=95
114296 On ch=4 n=46 v=0
114296 On ch=4 n=46 v=47
114300 Par ch=4 c=11 v=96
114304 On ch=4 n=46 v=0
114304 On ch=4 n=46 v=47
114308 Par ch=4 c=11 v=97
114312 On ch=4 n=46 v=0
114312 On ch=4 n=46 v=47
114316 Par ch=4 c=11 v=98
114320 On ch=4 n=46 v=0
114320 On ch=4 n=46 v=47
114324 Par ch=4 c=11 v=99
114328 On ch=4 n=46 v=0
114328 On ch=4 n=46 v=47
114332 Par ch=4 c=11 v=100
114336 On ch=4 n=46 v=0
114336 On ch=4 n=46 v=47
114340 Par ch=4 c=11 v=101
114344 On ch=4 n=46 v=0
114344 On ch=4 n=46 v=47
114348 Par ch=4 c=11 v=102
114352 On ch=4 n=46 v=0
114352 On ch=4 n=46 v=47
114356 Par ch=4 c=11 v=103
114360 On ch=4 n=46 v=0
114360 On ch=4 n=46 v=47
114364 Par ch=4 c=11 v=104
114368 On ch=4 n=46 v=0
114368 On ch=4 n=46 v=47
114372 Par ch=4 c=11 v=105
114376 On ch=4 n=46 v=0
114376 On ch=4 n=46 v=47
114380 Par ch=4 c=11 v=106
114384 On ch=4 n=46 v=0
114384 On ch=4 n=46 v=47
114388 Par ch=4 c=11 v=107
114392 On ch=4 n=46 v=0
114392 On ch=4 n=46 v=47
114396 Par ch=4 c=11 v=108
114400 On ch=4 n=46 v=0
114400 On ch=4 n=46 v=47
114404 Par ch=4 c=11 v=109
114408 On ch=4 n=46 v=0
114408 On ch=4 n=46 v=47
114412 Par ch=4 c=11 v=110
114416 On ch=4 n=46 v=0
114416 On ch=4 n=46 v=47
114420 Par ch=4 c=11 v=111
114424 On ch=4 n=46 v=0
114424 On ch=4 n=46 v=47
114428 Par ch=4 c=11 v=112
114432 On ch=4 n=46 v=0
114432 Par ch=4 c=11 v=64
114432 On ch=4 n=46 v=111
114509 On ch=4 n=46 v=0
114624 Par ch=4 c=11 v=64
114624 On ch=4 n=46 v=31
114632 On ch=4 n=46 v=0
114632 Par ch=4 c=11 v=65
114632 On ch=4 n=46 v=31
114640 On ch=4 n=46 v=0
114640 Par ch=4 c=11 v=66
114640 On ch=4 n=46 v=31
114648 On ch=4 n=46 v=0
114648 Par ch=4 c=11 v=67
114648 On ch=4 n=46 v=31
114656 On ch=4 n=46 v=0
114656 Par ch=4 c=11 v=68
114656 On ch=4 n=46 v=31
114664 On ch=4 n=46 v=0
114664 Par ch=4 c=11 v=69
114664 On ch=4 n=46 v=31
114672 On ch=4 n=46 v=0
114672 Par ch=4 c=11 v=70
114672 On ch=4 n=46 v=31
114680 On ch=4 n=46 v=0
114680 Par ch=4 c=11 v=71
114680 On ch=4 n=46 v=31
114688 On ch=4 n=46 v=0
114688 Par ch=4 c=11 v=72
114688 On ch=4 n=46 v=31
114696 On ch=4 n=46 v=0
114696 Par ch=4 c=11 v=73
114696 On ch=4 n=46 v=31
114704 On ch=4 n=46 v=0
114704 Par ch=4 c=11 v=74
114704 On ch=4 n=46 v=31
114712 On ch=4 n=46 v=0
114712 Par ch=4 c=11 v=75
114712 On ch=4 n=46 v=31
114720 On ch=4 n=46 v=0
114720 Par ch=4 c=11 v=76
114720 On ch=4 n=46 v=31
114728 On ch=4 n=46 v=0
114728 Par ch=4 c=11 v=77
114728 On ch=4 n=46 v=31
114736 On ch=4 n=46 v=0
114736 Par ch=4 c=11 v=78
114736 On ch=4 n=46 v=31
114744 On ch=4 n=46 v=0
114744 Par ch=4 c=11 v=79
114744 On ch=4 n=46 v=31
114752 On ch=4 n=46 v=0
114752 Par ch=4 c=11 v=80
114752 On ch=4 n=46 v=31
114760 On ch=4 n=46 v=0
114760 Par ch=4 c=11 v=81
114760 On ch=4 n=46 v=31
114768 On ch=4 n=46 v=0
114768 Par ch=4 c=11 v=82
114768 On ch=4 n=46 v=31
114776 On ch=4 n=46 v=0
114776 Par ch=4 c=11 v=83
114776 On ch=4 n=46 v=31
114784 On ch=4 n=46 v=0
114784 Par ch=4 c=11 v=84
114784 On ch=4 n=46 v=31
114792 On ch=4 n=46 v=0
114792 Par ch=4 c=11 v=85
114792 On ch=4 n=46 v=31
114800 On ch=4 n=46 v=0
114800 Par ch=4 c=11 v=86
114800 On ch=4 n=46 v=31
114808 On ch=4 n=46 v=0
114808 Par ch=4 c=11 v=87
114808 On ch=4 n=46 v=31
114816 On ch=4 n=46 v=0
114816 Par ch=4 c=11 v=88
114816 On ch=4 n=46 v=31
114824 On ch=4 n=46 v=0
114824 Par ch=4 c=11 v=89
114824 On ch=4 n=46 v=31
114832 On ch=4 n=46 v=0
114832 Par ch=4 c=11 v=90
114832 On ch=4 n=46 v=31
114840 On ch=4 n=46 v=0
114840 Par ch=4 c=11 v=91
114840 On ch=4 n=46 v=31
114848 On ch=4 n=46 v=0
114848 Par ch=4 c=11 v=92
114848 On ch=4 n=46 v=31
114856 On ch=4 n=46 v=0
114856 Par ch=4 c=11 v=93
114856 On ch=4 n=46 v=31
114864 On ch=4 n=46 v=0
114864 Par ch=4 c=11 v=94
114864 On ch=4 n=46 v=31
114872 On ch=4 n=46 v=0
114872 Par ch=4 c=11 v=95
114872 On ch=4 n=46 v=31
114880 On ch=4 n=46 v=0
114880 Par ch=4 c=11 v=96
114880 On ch=4 n=46 v=31
114888 On ch=4 n=46 v=0
114888 Par ch=4 c=11 v=97
114888 On ch=4 n=46 v=31
114896 On ch=4 n=46 v=0
114896 Par ch=4 c=11 v=98
114896 On ch=4 n=46 v=31
114904 On ch=4 n=46 v=0
114904 Par ch=4 c=11 v=99
114904 On ch=4 n=46 v=31
114912 On ch=4 n=46 v=0
114912 Par ch=4 c=11 v=100
114912 On ch=4 n=46 v=31
114920 On ch=4 n=46 v=0
114920 Par ch=4 c=11 v=101
114920 On ch=4 n=46 v=31
114928 On ch=4 n=46 v=0
114928 Par ch=4 c=11 v=102
114928 On ch=4 n=46 v=31
114936 On ch=4 n=46 v=0
114936 Par ch=4 c=11 v=103
114936 On ch=4 n=46 v=31
114944 On ch=4 n=46 v=0
114944 Par ch=4 c=11 v=104
114944 On ch=4 n=46 v=31
114952 On ch=4 n=46 v=0
114952 Par ch=4 c=11 v=105
114952 On ch=4 n=46 v=31
114960 On ch=4 n=46 v=0
114960 Par ch=4 c=11 v=106
114960 On ch=4 n=46 v=31
114968 On ch=4 n=46 v=0
114968 Par ch=4 c=11 v=107
114968 On ch=4 n=46 v=31
114976 On ch=4 n=46 v=0
114976 Par ch=4 c=11 v=108
114976 On ch=4 n=46 v=31
114984 On ch=4 n=46 v=0
114984 Par ch=4 c=11 v=109
114984 On ch=4 n=46 v=31
114992 On ch=4 n=46 v=0
114992 Par ch=4 c=11 v=110
114992 On ch=4 n=46 v=31
115000 On ch=4 n=46 v=0
115000 Par ch=4 c=11 v=111
115000 On ch=4 n=46 v=31
115008 On ch=4 n=46 v=0
115008 Par ch=4 c=11 v=112
115200 Par ch=4 c=11 v=64
115200 On ch=4 n=51 v=127
115208 Par ch=4 c=11 v=63
115212 Par ch=4 c=11 v=62
115216 Par ch=4 c=11 v=61
115224 Par ch=4 c=11 v=60
115226 On ch=4 n=51 v=0
115228 Par ch=4 c=11 v=59
115232 Par ch=4 c=11 v=58
115232 On ch=4 n=51 v=127
115240 Par ch=4 c=11 v=57
115244 Par ch=4 c=11 v=56
115248 Par ch=4 c=11 v=55
115256 Par ch=4 c=11 v=54
115258 On ch=4 n=51 v=0
115260 Par ch=4 c=11 v=53
115264 Par ch=4 c=11 v=52
115264 On ch=4 n=51 v=127
115268 Par ch=4 c=11 v=51
115276 Par ch=4 c=11 v=50
115280 Par ch=4 c=11 v=49
115284 Par ch=4 c=11 v=48
115290 On ch=4 n=51 v=0
115292 Par ch=4 c=11 v=47
115296 Par ch=4 c=11 v=46
115296 On ch=4 n=51 v=127
115300 Par ch=4 c=11 v=45
115308 Par ch=4 c=11 v=44
115312 Par ch=4 c=11 v=43
115316 Par ch=4 c=11 v=42
115322 On ch=4 n=51 v=0
115324 Par ch=4 c=11 v=41
115328 Par ch=4 c=11 v=40
115328 On ch=4 n=51 v=127
115332 Par ch=4 c=11 v=39
115336 Par ch=4 c=11 v=38
115344 Par ch=4 c=11 v=37
115348 Par ch=4 c=11 v=36
115352 Par ch=4 c=11 v=35
115354 On ch=4 n=51 v=0
115360 Par ch=4 c=11 v=34
115360 On ch=4 n=51 v=127
115364 Par ch=4 c=11 v=33
115368 Par ch=4 c=11 v=32
115376 Par ch=4 c=11 v=31
115380 Par ch=4 c=11 v=30
115384 Par ch=4 c=11 v=29
115386 On ch=4 n=51 v=0
115392 Par ch=4 c=11 v=28
115392 On ch=4 n=51 v=127
115396 Par ch=4 c=11 v=27
115400 Par ch=4 c=11 v=26
115404 Par ch=4 c=11 v=25
115412 Par ch=4 c=11 v=24
115416 Par ch=4 c=11 v=23
115418 On ch=4 n=51 v=0
115420 Par ch=4 c=11 v=22
115424 On ch=4 n=51 v=127
115428 Par ch=4 c=11 v=21
115432 Par ch=4 c=11 v=20
115436 Par ch=4 c=11 v=19
115444 Par ch=4 c=11 v=18
115448 Par ch=4 c=11 v=17
115450 On ch=4 n=51 v=0
115452 Par ch=4 c=11 v=16
115456 On ch=4 n=51 v=127
115482 On ch=4 n=51 v=0
115584 Par ch=4 c=11 v=64
115968 Par ch=4 c=11 v=64
115968 On ch=4 n=51 v=127
115976 Par ch=4 c=11 v=63
115980 Par ch=4 c=11 v=62
115984 Par ch=4 c=11 v=61
115992 Par ch=4 c=11 v=60
115994 On ch=4 n=51 v=0
115996 Par ch=4 c=11 v=59
116000 Par ch=4 c=11 v=58
116000 On ch=4 n=51 v=127
116008 Par ch=4 c=11 v=57
116012 Par ch=4 c=11 v=56
116016 Par ch=4 c=11 v=55
116024 Par ch=4 c=11 v=54
116026 On ch=4 n=51 v=0
116028 Par ch=4 c=11 v=53
116032 Par ch=4 c=11 v=52
116032 On ch=4 n=51 v=127
116036 Par ch=4 c=11 v=51
116044 Par ch=4 c=11 v=50
116048 Par ch=4 c=11 v=49
116052 Par ch=4 c=11 v=48
116058 On ch=4 n=51 v=0
116060 Par ch=4 c=11 v=47
116064 Par ch=4 c=11 v=46
116064 On ch=4 n=51 v=127
116068 Par ch=4 c=11 v=45
116076 Par ch=4 c=11 v=44
116080 Par ch=4 c=11 v=43
116084 Par ch=4 c=11 v=42
116090 On ch=4 n=51 v=0
116092 Par ch=4 c=11 v=41
116096 Par ch=4 c=11 v=40
116096 On ch=4 n=51 v=127
116100 Par ch=4 c=11 v=39
116104 Par ch=4 c=11 v=38
116112 Par ch=4 c=11 v=37
116116 Par ch=4 c=11 v=36
116120 Par ch=4 c=11 v=35
116122 On ch=4 n=51 v=0
116128 Par ch=4 c=11 v=34
116128 On ch=4 n=51 v=127
116132 Par ch=4 c=11 v=33
116136 Par ch=4 c=11 v=32
116144 Par ch=4 c=11 v=31
116148 Par ch=4 c=11 v=30
116152 Par ch=4 c=11 v=29
116154 On ch=4 n=51 v=0
116160 Par ch=4 c=11 v=28
116160 On ch=4 n=51 v=127
116164 Par ch=4 c=11 v=27
116168 Par ch=4 c=11 v=26
116172 Par ch=4 c=11 v=25
116180 Par ch=4 c=11 v=24
116184 Par ch=4 c=11 v=23
116186 On ch=4 n=51 v=0
116188 Par ch=4 c=11 v=22
116192 On ch=4 n=51 v=127
116196 Par ch=4 c=11 v=21
116200 Par ch=4 c=11 v=20
116204 Par ch=4 c=11 v=19
116212 Par ch=4 c=11 v=18
116216 Par ch=4 c=11 v=17
116218 On ch=4 n=51 v=0
116220 Par ch=4 c=11 v=16
116224 On ch=4 n=51 v=127
116250 On ch=4 n=51 v=0
116352 Par ch=4 c=11 v=64
116736 On ch=4 n=51 v=79
116762 On ch=4 n=51 v=0
116768 On ch=4 n=46 v=79
116794 On ch=4 n=46 v=0
116800 On ch=4 n=51 v=79
116826 On ch=4 n=51 v=0
116832 On ch=4 n=46 v=79
116858 On ch=4 n=46 v=0
116864 On ch=4 n=51 v=79
116890 On ch=4 n=51 v=0
116896 On ch=4 n=46 v=79
116922 On ch=4 n=46 v=0
116928 On ch=4 n=51 v=79
116954 On ch=4 n=51 v=0
116960 On ch=4 n=46 v=79
116986 On ch=4 n=46 v=0
116992 On ch=4 n=51 v=79
117018 On ch=4 n=51 v=0
117024 On ch=4 n=46 v=79
117050 On ch=4 n=46 v=0
117056 On ch=4 n=51 v=79
117082 On ch=4 n=51 v=0
117088 On ch=4 n=46 v=79
117114 On ch=4 n=46 v=0
117120 On ch=4 n=51 v=79
117146 On ch=4 n=51 v=0
117152 On ch=4 n=46 v=79
117178 On ch=4 n=46 v=0
117184 On ch=4 n=51 v=79
117210 On ch=4 n=51 v=0
117216 On ch=4 n=46 v=79
117242 On ch=4 n=46 v=0
117248 On ch=4 n=51 v=79
117274 On ch=4 n=51 v=0
117280 On ch=4 n=46 v=79
117306 On ch=4 n=46 v=0
117312 On ch=4 n=51 v=79
117338 On ch=4 n=51 v=0
117344 On ch=4 n=46 v=79
117370 On ch=4 n=46 v=0
117376 On ch=4 n=51 v=79
117402 On ch=4 n=51 v=0
117408 On ch=4 n=46 v=79
117434 On ch=4 n=46 v=0
117440 On ch=4 n=51 v=79
117466 On ch=4 n=51 v=0
117472 On ch=4 n=46 v=79
117498 On ch=4 n=46 v=0
117504 Par ch=4 c=11 v=64
117504 On ch=4 n=51 v=79
117528 Par ch=4 c=11 v=65
117530 On ch=4 n=51 v=0
117536 On ch=4 n=46 v=79
117552 Par ch=4 c=11 v=66
117562 On ch=4 n=46 v=0
117568 On ch=4 n=51 v=79
117576 Par ch=4 c=11 v=67
117594 On ch=4 n=51 v=0
117600 Par ch=4 c=11 v=68
117600 On ch=4 n=46 v=79
117624 Par ch=4 c=11 v=69
117626 On ch=4 n=46 v=0
117632 On ch=4 n=51 v=79
117644 Par ch=4 c=11 v=70
117658 On ch=4 n=51 v=0
117664 On ch=4 n=46 v=79
117668 Par ch=4 c=11 v=71
117690 On ch=4 n=46 v=0
117692 Par ch=4 c=11 v=72
117696 On ch=4 n=51 v=79
117716 Par ch=4 c=11 v=73
117722 On ch=4 n=51 v=0
117728 On ch=4 n=46 v=79
117740 Par ch=4 c=11 v=74
117754 On ch=4 n=46 v=0
117760 Par ch=4 c=11 v=75
117760 On ch=4 n=51 v=79
117784 Par ch=4 c=11 v=76
117786 On ch=4 n=51 v=0
117792 On ch=4 n=46 v=79
117808 Par ch=4 c=11 v=77
117818 On ch=4 n=46 v=0
117824 On ch=4 n=51 v=79
117832 Par ch=4 c=11 v=78
117850 On ch=4 n=51 v=0
117856 Par ch=4 c=11 v=79
117856 On ch=4 n=46 v=79
117880 Par ch=4 c=11 v=80
117882 On ch=4 n=46 v=0
117888 On ch=4 n=51 v=79
117900 Par ch=4 c=11 v=81
117914 On ch=4 n=51 v=0
117920 On ch=4 n=46 v=79
117924 Par ch=4 c=11 v=82
117946 On ch=4 n=46 v=0
117948 Par ch=4 c=11 v=83
117952 On ch=4 n=51 v=79
117972 Par ch=4 c=11 v=84
117978 On ch=4 n=51 v=0
117984 On ch=4 n=46 v=79
117996 Par ch=4 c=11 v=85
118010 On ch=4 n=46 v=0
118016 Par ch=4 c=11 v=86
118016 On ch=4 n=51 v=79
118040 Par ch=4 c=11 v=87
118042 On ch=4 n=51 v=0
118048 On ch=4 n=46 v=79
118064 Par ch=4 c=11 v=88
118074 On ch=4 n=46 v=0
118080 On ch=4 n=51 v=79
118088 Par ch=4 c=11 v=89
118106 On ch=4 n=51 v=0
118112 Par ch=4 c=11 v=90
118112 On ch=4 n=46 v=79
118136 Par ch=4 c=11 v=91
118138 On ch=4 n=46 v=0
118144 On ch=4 n=51 v=79
118156 Par ch=4 c=11 v=92
118170 On ch=4 n=51 v=0
118176 On ch=4 n=46 v=79
118180 Par ch=4 c=11 v=93
118202 On ch=4 n=46 v=0
118204 Par ch=4 c=11 v=94
118208 On ch=4 n=51 v=79
118228 Par ch=4 c=11 v=95
118234 On ch=4 n=51 v=0
118240 On ch=4 n=46 v=79
118252 Par ch=4 c=11 v=96
118266 On ch=4 n=46 v=0
118272 Par ch=4 c=11 v=64
118272 On ch=4 n=51 v=111
118310 On ch=4 n=51 v=0
123264 On ch=4 n=55 v=111
123302 On ch=4 n=55 v=0
123360 On ch=4 n=55 v=111
123398 On ch=4 n=55 v=0
124032 On ch=4 n=55 v=111
124070 On ch=4 n=55 v=0
124128 On ch=4 n=55 v=111
124166 On ch=4 n=55 v=0
124800 On ch=4 n=55 v=111
124877 On ch=4 n=55 v=0
124896 On ch=4 n=55 v=111
124922 On ch=4 n=55 v=0
124928 On ch=4 n=55 v=111
124954 On ch=4 n=55 v=0
124960 On ch=4 n=55 v=111
124986 On ch=4 n=55 v=0
124992 On ch=4 n=55 v=111
125069 On ch=4 n=55 v=0
125088 On ch=4 n=55 v=111
125114 On ch=4 n=55 v=0
125120 On ch=4 n=55 v=111
125146 On ch=4 n=55 v=0
125152 On ch=4 n=55 v=111
125178 On ch=4 n=55 v=0
125184 On ch=4 n=55 v=111
125222 On ch=4 n=55 v=0
125256 On ch=4 n=55 v=111
125275 On ch=4 n=55 v=0
125280 On ch=4 n=55 v=111
125318 On ch=4 n=55 v=0
125352 On ch=4 n=55 v=111
125371 On ch=4 n=55 v=0
125376 On ch=4 n=55 v=111
125414 On ch=4 n=55 v=0
125448 On ch=4 n=55 v=111
125467 On ch=4 n=55 v=0
125472 On ch=4 n=55 v=111
125510 On ch=4 n=55 v=0
125544 On ch=4 n=55 v=111
125563 On ch=4 n=55 v=0
125568 On ch=4 n=55 v=111
125606 On ch=4 n=55 v=0
125640 On ch=4 n=55 v=111
125659 On ch=4 n=55 v=0
125664 On ch=4 n=55 v=111
125689 On ch=4 n=55 v=0
125696 On ch=4 n=55 v=111
125721 On ch=4 n=55 v=0
125728 On ch=4 n=55 v=111
125753 On ch=4 n=55 v=0
125760 On ch=4 n=55 v=111
125798 On ch=4 n=55 v=0
125832 On ch=4 n=55 v=111
125851 On ch=4 n=55 v=0
125856 On ch=4 n=55 v=111
125881 On ch=4 n=55 v=0
125888 On ch=4 n=55 v=111
125913 On ch=4 n=55 v=0
125920 On ch=4 n=55 v=111
125945 On ch=4 n=55 v=0
125952 Par ch=4 c=11 v=64
125952 On ch=4 n=55 v=111
125976 Par ch=4 c=11 v=65
125990 On ch=4 n=55 v=0
126000 Par ch=4 c=11 v=66
126000 On ch=4 n=55 v=111
126020 Par ch=4 c=11 v=67
126038 On ch=4 n=55 v=0
126044 Par ch=4 c=11 v=68
126048 On ch=4 n=55 v=111
126068 Par ch=4 c=11 v=69
126086 On ch=4 n=55 v=0
126088 Par ch=4 c=11 v=70
126096 On ch=4 n=55 v=111
126112 Par ch=4 c=11 v=71
126134 On ch=4 n=55 v=0
126136 Par ch=4 c=11 v=72
126144 On ch=4 n=55 v=111
126156 Par ch=4 c=11 v=73
126169 On ch=4 n=55 v=0
126176 On ch=4 n=55 v=111
126180 Par ch=4 c=11 v=74
126201 On ch=4 n=55 v=0
126204 Par ch=4 c=11 v=75
126208 On ch=4 n=55 v=111
126224 Par ch=4 c=11 v=76
126233 On ch=4 n=55 v=0
126240 On ch=4 n=55 v=111
126248 Par ch=4 c=11 v=77
126265 On ch=4 n=55 v=0
126272 Par ch=4 c=11 v=78
126272 On ch=4 n=55 v=111
126292 Par ch=4 c=11 v=79
126297 On ch=4 n=55 v=0
126304 On ch=4 n=55 v=111
126316 Par ch=4 c=11 v=80
126329 On ch=4 n=55 v=0
126336 Par ch=4 c=11 v=64
126336 On ch=4 n=48 v=127
126374 On ch=4 n=48 v=0
126384 On ch=4 n=48 v=127
126422 On ch=4 n=48 v=0
136320 Par ch=4 c=11 v=64
136320 On ch=4 n=43 v=47
136328 On ch=4 n=43 v=0
136328 On ch=4 n=43 v=47
136336 On ch=4 n=43 v=0
136336 Par ch=4 c=11 v=65
136336 On ch=4 n=43 v=47
136344 On ch=4 n=43 v=0
136344 On ch=4 n=43 v=47
136348 Par ch=4 c=11 v=66
136352 On ch=4 n=43 v=0
136352 On ch=4 n=43 v=47
136360 On ch=4 n=43 v=0
136360 Par ch=4 c=11 v=67
136360 On ch=4 n=43 v=47
136368 On ch=4 n=43 v=0
136368 On ch=4 n=43 v=47
136372 Par ch=4 c=11 v=68
136376 On ch=4 n=43 v=0
136376 On ch=4 n=43 v=47
136384 On ch=4 n=43 v=0
136384 Par ch=4 c=11 v=69
136384 On ch=4 n=43 v=47
136392 On ch=4 n=43 v=0
136392 On ch=4 n=43 v=47
136396 Par ch=4 c=11 v=70
136400 On ch=4 n=43 v=0
136400 On ch=4 n=43 v=47
136408 On ch=4 n=43 v=0
136408 Par ch=4 c=11 v=71
136408 On ch=4 n=43 v=47
136416 On ch=4 n=43 v=0
136416 On ch=4 n=43 v=47
136420 Par ch=4 c=11 v=72
136424 On ch=4 n=43 v=0
136424 On ch=4 n=43 v=47
136432 On ch=4 n=43 v=0
136432 Par ch=4 c=11 v=73
136432 On ch=4 n=43 v=47
136440 On ch=4 n=43 v=0
136440 On ch=4 n=43 v=47
136444 Par ch=4 c=11 v=74
136448 On ch=4 n=43 v=0
136448 On ch=4 n=43 v=47
136456 On ch=4 n=43 v=0
136456 Par ch=4 c=11 v=75
136456 On ch=4 n=43 v=47
136464 On ch=4 n=43 v=0
136464 On ch=4 n=43 v=47
136468 Par ch=4 c=11 v=76
136472 On ch=4 n=43 v=0
136472 On ch=4 n=43 v=47
136480 On ch=4 n=43 v=0
136480 Par ch=4 c=11 v=77
136480 On ch=4 n=43 v=47
136488 On ch=4 n=43 v=0
136488 On ch=4 n=43 v=47
136492 Par ch=4 c=11 v=78
136496 On ch=4 n=43 v=0
136496 On ch=4 n=43 v=47
136504 On ch=4 n=43 v=0
136504 Par ch=4 c=11 v=79
136504 On ch=4 n=43 v=47
136512 On ch=4 n=43 v=0
136512 On ch=4 n=43 v=47
136516 Par ch=4 c=11 v=80
136520 On ch=4 n=43 v=0
136520 On ch=4 n=43 v=47
136528 On ch=4 n=43 v=0
136528 Par ch=4 c=11 v=81
136528 On ch=4 n=43 v=47
136536 On ch=4 n=43 v=0
136536 On ch=4 n=43 v=47
136540 Par ch=4 c=11 v=82
136544 On ch=4 n=43 v=0
136544 On ch=4 n=43 v=47
136552 On ch=4 n=43 v=0
136552 Par ch=4 c=11 v=83
136552 On ch=4 n=43 v=47
136560 On ch=4 n=43 v=0
136560 On ch=4 n=43 v=47
136564 Par ch=4 c=11 v=84
136568 On ch=4 n=43 v=0
136568 On ch=4 n=43 v=47
136576 On ch=4 n=43 v=0
136576 Par ch=4 c=11 v=85
136576 On ch=4 n=43 v=47
136584 On ch=4 n=43 v=0
136584 On ch=4 n=43 v=47
136592 On ch=4 n=43 v=0
136592 Par ch=4 c=11 v=86
136592 On ch=4 n=43 v=47
136600 On ch=4 n=43 v=0
136600 On ch=4 n=43 v=47
136604 Par ch=4 c=11 v=87
136608 On ch=4 n=43 v=0
136608 On ch=4 n=43 v=47
136616 On ch=4 n=43 v=0
136616 Par ch=4 c=11 v=88
136616 On ch=4 n=43 v=47
136624 On ch=4 n=43 v=0
136624 On ch=4 n=43 v=47
136628 Par ch=4 c=11 v=89
136632 On ch=4 n=43 v=0
136632 On ch=4 n=43 v=47
136640 On ch=4 n=43 v=0
136640 Par ch=4 c=11 v=90
136640 On ch=4 n=43 v=47
136648 On ch=4 n=43 v=0
136648 On ch=4 n=43 v=47
136652 Par ch=4 c=11 v=91
136656 On ch=4 n=43 v=0
136656 On ch=4 n=43 v=47
136664 On ch=4 n=43 v=0
136664 Par ch=4 c=11 v=92
136664 On ch=4 n=43 v=47
136672 On ch=4 n=43 v=0
136672 On ch=4 n=43 v=47
136676 Par ch=4 c=11 v=93
136680 On ch=4 n=43 v=0
136680 On ch=4 n=43 v=47
136688 On ch=4 n=43 v=0
136688 Par ch=4 c=11 v=94
136688 On ch=4 n=43 v=47
136696 On ch=4 n=43 v=0
136696 On ch=4 n=43 v=47
136700 Par ch=4 c=11 v=95
136704 On ch=4 n=43 v=0
136704 On ch=4 n=43 v=47
136712 On ch=4 n=43 v=0
136712 Par ch=4 c=11 v=96
136712 On ch=4 n=43 v=47
136720 On ch=4 n=43 v=0
136720 On ch=4 n=43 v=47
136724 Par ch=4 c=11 v=97
136728 On ch=4 n=43 v=0
136728 On ch=4 n=43 v=47
136736 On ch=4 n=43 v=0
136736 Par ch=4 c=11 v=98
136736 On ch=4 n=43 v=47
136744 On ch=4 n=43 v=0
136744 On ch=4 n=43 v=47
136748 Par ch=4 c=11 v=99
136752 On ch=4 n=43 v=0
136752 On ch=4 n=43 v=47
136760 On ch=4 n=43 v=0
136760 Par ch=4 c=11 v=100
136760 On ch=4 n=43 v=47
136768 On ch=4 n=43 v=0
136768 On ch=4 n=43 v=47
136772 Par ch=4 c=11 v=101
136776 On ch=4 n=43 v=0
136776 On ch=4 n=43 v=47
136784 On ch=4 n=43 v=0
136784 Par ch=4 c=11 v=102
136784 On ch=4 n=43 v=47
136792 On ch=4 n=43 v=0
136792 On ch=4 n=43 v=47
136796 Par ch=4 c=11 v=103
136800 On ch=4 n=43 v=0
136800 On ch=4 n=43 v=47
136808 On ch=4 n=43 v=0
136808 Par ch=4 c=11 v=104
136808 On ch=4 n=43 v=47
136816 On ch=4 n=43 v=0
136816 On ch=4 n=43 v=47
136820 Par ch=4 c=11 v=105
136824 On ch=4 n=43 v=0
136824 On ch=4 n=43 v=47
136832 On ch=4 n=43 v=0
136832 Par ch=4 c=11 v=106
136832 On ch=4 n=43 v=47
136840 On ch=4 n=43 v=0
136840 On ch=4 n=43 v=47
136848 On ch=4 n=43 v=0
136848 Par ch=4 c=11 v=107
136848 On ch=4 n=43 v=47
136856 On ch=4 n=43 v=0
136856 On ch=4 n=43 v=47
136860 Par ch=4 c=11 v=108
136864 On ch=4 n=43 v=0
136864 On ch=4 n=43 v=47
136872 On ch=4 n=43 v=0
136872 Par ch=4 c=11 v=109
136872 On ch=4 n=43 v=47
136880 On ch=4 n=43 v=0
136880 On ch=4 n=43 v=47
136884 Par ch=4 c=11 v=110
136888 On ch=4 n=43 v=0
136888 On ch=4 n=43 v=47
136896 On ch=4 n=43 v=0
136896 Par ch=4 c=11 v=111
136896 On ch=4 n=43 v=47
136904 On ch=4 n=43 v=0
136904 On ch=4 n=43 v=47
136908 Par ch=4 c=11 v=112
136912 On ch=4 n=43 v=0
136912 On ch=4 n=43 v=47
136920 On ch=4 n=43 v=0
136920 Par ch=4 c=11 v=113
136920 On ch=4 n=43 v=47
136928 On ch=4 n=43 v=0
136928 On ch=4 n=43 v=47
136932 Par ch=4 c=11 v=114
136936 On ch=4 n=43 v=0
136936 On ch=4 n=43 v=47
136944 On ch=4 n=43 v=0
136944 Par ch=4 c=11 v=115
136944 On ch=4 n=43 v=47
136952 On ch=4 n=43 v=0
136952 On ch=4 n=43 v=47
136956 Par ch=4 c=11 v=116
136960 On ch=4 n=43 v=0
136960 On ch=4 n=43 v=47
136968 On ch=4 n=43 v=0
136968 Par ch=4 c=11 v=117
136968 On ch=4 n=43 v=47
136976 On ch=4 n=43 v=0
136976 On ch=4 n=43 v=47
136980 Par ch=4 c=11 v=118
136984 On ch=4 n=43 v=0
136984 On ch=4 n=43 v=47
136992 On ch=4 n=43 v=0
136992 Par ch=4 c=11 v=119
136992 On ch=4 n=43 v=47
137000 On ch=4 n=43 v=0
137000 On ch=4 n=43 v=47
137004 Par ch=4 c=11 v=120
137008 On ch=4 n=43 v=0
137008 On ch=4 n=43 v=47
137016 On ch=4 n=43 v=0
137016 Par ch=4 c=11 v=121
137016 On ch=4 n=43 v=47
137024 On ch=4 n=43 v=0
137024 On ch=4 n=43 v=47
137028 Par ch=4 c=11 v=122
137032 On ch=4 n=43 v=0
137032 On ch=4 n=43 v=47
137040 On ch=4 n=43 v=0
137040 Par ch=4 c=11 v=123
137040 On ch=4 n=43 v=47
137048 On ch=4 n=43 v=0
137048 On ch=4 n=43 v=47
137052 Par ch=4 c=11 v=124
137056 On ch=4 n=43 v=0
137056 On ch=4 n=43 v=47
137064 On ch=4 n=43 v=0
137064 Par ch=4 c=11 v=125
137064 On ch=4 n=43 v=47
137072 On ch=4 n=43 v=0
137072 On ch=4 n=43 v=47
137076 Par ch=4 c=11 v=126
137080 On ch=4 n=43 v=0
137080 On ch=4 n=43 v=47
137088 On ch=4 n=43 v=0
137088 Par ch=4 c=11 v=64
137088 On ch=4 n=48 v=111
137126 On ch=4 n=48 v=0
137472 On ch=4 n=48 v=95
137510 On ch=4 n=48 v=0
139008 On ch=4 n=47 v=15
139016 On ch=4 n=47 v=0
139016 On ch=4 n=47 v=15
139024 On ch=4 n=47 v=0
139024 On ch=4 n=47 v=15
139032 On ch=4 n=47 v=0
139032 On ch=4 n=47 v=15
139040 On ch=4 n=47 v=0
139040 On ch=4 n=47 v=15
139048 On ch=4 n=47 v=0
139048 On ch=4 n=47 v=15
139056 On ch=4 n=47 v=0
139056 On ch=4 n=47 v=15
139064 On ch=4 n=47 v=0
139064 On ch=4 n=47 v=15
139072 On ch=4 n=47 v=0
139072 On ch=4 n=47 v=15
139080 On ch=4 n=47 v=0
139080 On ch=4 n=47 v=15
139088 On ch=4 n=47 v=0
139088 On ch=4 n=47 v=15
139096 On ch=4 n=47 v=0
139096 On ch=4 n=47 v=15
139104 On ch=4 n=47 v=0
139104 On ch=4 n=47 v=15
139112 On ch=4 n=47 v=0
139112 On ch=4 n=47 v=15
139120 On ch=4 n=47 v=0
139120 On ch=4 n=47 v=15
139128 On ch=4 n=47 v=0
139128 On ch=4 n=47 v=15
139136 On ch=4 n=47 v=0
139136 On ch=4 n=47 v=15
139144 On ch=4 n=47 v=0
139144 On ch=4 n=47 v=15
139152 On ch=4 n=47 v=0
139152 On ch=4 n=47 v=15
139160 On ch=4 n=47 v=0
139160 On ch=4 n=47 v=15
139168 On ch=4 n=47 v=0
139168 On ch=4 n=47 v=15
139176 On ch=4 n=47 v=0
139176 On ch=4 n=47 v=15
139184 On ch=4 n=47 v=0
139184 On ch=4 n=47 v=15
139192 On ch=4 n=47 v=0
139192 On ch=4 n=47 v=15
139200 On ch=4 n=47 v=0
139200 On ch=4 n=47 v=15
139208 On ch=4 n=47 v=0
139208 On ch=4 n=47 v=15
139216 On ch=4 n=47 v=0
139216 On ch=4 n=47 v=15
139224 On ch=4 n=47 v=0
139224 On ch=4 n=47 v=15
139232 On ch=4 n=47 v=0
139232 On ch=4 n=47 v=15
139240 On ch=4 n=47 v=0
139240 On ch=4 n=47 v=15
139248 On ch=4 n=47 v=0
139248 On ch=4 n=47 v=15
139256 On ch=4 n=47 v=0
139256 On ch=4 n=47 v=15
139264 On ch=4 n=47 v=0
139264 On ch=4 n=47 v=15
139272 On ch=4 n=47 v=0
139272 On ch=4 n=47 v=15
139280 On ch=4 n=47 v=0
139280 On ch=4 n=47 v=15
139288 On ch=4 n=47 v=0
139288 On ch=4 n=47 v=15
139296 On ch=4 n=47 v=0
139296 On ch=4 n=47 v=15
139304 On ch=4 n=47 v=0
139304 On ch=4 n=47 v=15
139312 On ch=4 n=47 v=0
139312 On ch=4 n=47 v=15
139320 On ch=4 n=47 v=0
139320 On ch=4 n=47 v=15
139328 On ch=4 n=47 v=0
139328 On ch=4 n=47 v=15
139336 On ch=4 n=47 v=0
139336 On ch=4 n=47 v=15
139344 On ch=4 n=47 v=0
139344 On ch=4 n=47 v=15
139352 On ch=4 n=47 v=0
139352 On ch=4 n=47 v=15
139360 On ch=4 n=47 v=0
139360 On ch=4 n=47 v=15
139368 On ch=4 n=47 v=0
139368 On ch=4 n=47 v=15
139376 On ch=4 n=47 v=0
139376 On ch=4 n=47 v=15
139384 On ch=4 n=47 v=0
139384 On ch=4 n=47 v=15
139392 On ch=4 n=47 v=0
139392 On ch=4 n=47 v=15
139400 On ch=4 n=47 v=0
139400 On ch=4 n=47 v=15
139408 On ch=4 n=47 v=0
139408 On ch=4 n=47 v=15
139416 On ch=4 n=47 v=0
139416 On ch=4 n=47 v=15
139424 On ch=4 n=47 v=0
139424 On ch=4 n=47 v=15
139432 On ch=4 n=47 v=0
139432 On ch=4 n=47 v=15
139440 On ch=4 n=47 v=0
139440 On ch=4 n=47 v=15
139448 On ch=4 n=47 v=0
139448 On ch=4 n=47 v=15
139456 On ch=4 n=47 v=0
139456 On ch=4 n=47 v=15
139464 On ch=4 n=47 v=0
139464 On ch=4 n=47 v=15
139472 On ch=4 n=47 v=0
139472 On ch=4 n=47 v=15
139480 On ch=4 n=47 v=0
139480 On ch=4 n=47 v=15
139488 On ch=4 n=47 v=0
139488 On ch=4 n=47 v=15
139496 On ch=4 n=47 v=0
139496 On ch=4 n=47 v=15
139504 On ch=4 n=47 v=0
139504 On ch=4 n=47 v=15
139512 On ch=4 n=47 v=0
139512 On ch=4 n=47 v=15
139520 On ch=4 n=47 v=0
139520 On ch=4 n=47 v=15
139528 On ch=4 n=47 v=0
139528 On ch=4 n=47 v=15
139536 On ch=4 n=47 v=0
139536 On ch=4 n=47 v=15
139544 On ch=4 n=47 v=0
139544 On ch=4 n=47 v=15
139552 On ch=4 n=47 v=0
139552 On ch=4 n=47 v=15
139560 On ch=4 n=47 v=0
139560 On ch=4 n=47 v=15
139568 On ch=4 n=47 v=0
139568 On ch=4 n=47 v=15
139576 On ch=4 n=47 v=0
139576 On ch=4 n=47 v=15
139584 On ch=4 n=47 v=0
139584 On ch=4 n=47 v=15
139592 On ch=4 n=47 v=0
139592 On ch=4 n=47 v=15
139600 On ch=4 n=47 v=0
139600 On ch=4 n=47 v=15
139608 On ch=4 n=47 v=0
139608 On ch=4 n=47 v=15
139616 On ch=4 n=47 v=0
139616 On ch=4 n=47 v=15
139624 On ch=4 n=47 v=0
139624 On ch=4 n=47 v=15
139632 On ch=4 n=47 v=0
139632 On ch=4 n=47 v=15
139640 On ch=4 n=47 v=0
139640 On ch=4 n=47 v=15
139648 On ch=4 n=47 v=0
139648 On ch=4 n=47 v=15
139656 On ch=4 n=47 v=0
139656 On ch=4 n=47 v=15
139664 On ch=4 n=47 v=0
139664 On ch=4 n=47 v=15
139672 On ch=4 n=47 v=0
139672 On ch=4 n=47 v=15
139680 On ch=4 n=47 v=0
139680 On ch=4 n=47 v=15
139688 On ch=4 n=47 v=0
139688 On ch=4 n=47 v=15
139696 On ch=4 n=47 v=0
139696 On ch=4 n=47 v=15
139704 On ch=4 n=47 v=0
139704 On ch=4 n=47 v=15
139712 On ch=4 n=47 v=0
139712 On ch=4 n=47 v=15
139720 On ch=4 n=47 v=0
139720 On ch=4 n=47 v=15
139728 On ch=4 n=47 v=0
139728 On ch=4 n=47 v=15
139736 On ch=4 n=47 v=0
139736 On ch=4 n=47 v=15
139744 On ch=4 n=47 v=0
139744 On ch=4 n=47 v=15
139752 On ch=4 n=47 v=0
139752 On ch=4 n=47 v=15
139760 On ch=4 n=47 v=0
139760 On ch=4 n=47 v=15
139768 On ch=4 n=47 v=0
139768 On ch=4 n=47 v=15
139776 On ch=4 n=47 v=0
141312 On ch=4 n=52 v=15
141320 On ch=4 n=52 v=0
141320 On ch=4 n=52 v=15
141328 On ch=4 n=52 v=0
141328 On ch=4 n=52 v=15
141336 On ch=4 n=52 v=0
141336 On ch=4 n=52 v=15
141344 On ch=4 n=52 v=0
141344 On ch=4 n=52 v=15
141352 On ch=4 n=52 v=0
141352 On ch=4 n=52 v=15
141360 On ch=4 n=52 v=0
141360 On ch=4 n=52 v=15
141368 On ch=4 n=52 v=0
141368 On ch=4 n=52 v=15
141376 On ch=4 n=52 v=0
141376 On ch=4 n=52 v=15
141384 On ch=4 n=52 v=0
141384 On ch=4 n=52 v=15
141392 On ch=4 n=52 v=0
141392 On ch=4 n=52 v=15
141400 On ch=4 n=52 v=0
141400 On ch=4 n=52 v=15
141408 On ch=4 n=52 v=0
141408 On ch=4 n=52 v=15
141416 On ch=4 n=52 v=0
141416 On ch=4 n=52 v=15
141424 On ch=4 n=52 v=0
141424 On ch=4 n=52 v=15
141432 On ch=4 n=52 v=0
141432 On ch=4 n=52 v=15
141440 On ch=4 n=52 v=0
141440 On ch=4 n=52 v=15
141448 On ch=4 n=52 v=0
141448 On ch=4 n=52 v=15
141456 On ch=4 n=52 v=0
141456 On ch=4 n=52 v=15
141464 On ch=4 n=52 v=0
141464 On ch=4 n=52 v=15
141472 On ch=4 n=52 v=0
141472 On ch=4 n=52 v=15
141480 On ch=4 n=52 v=0
141480 On ch=4 n=52 v=15
141488 On ch=4 n=52 v=0
141488 On ch=4 n=52 v=15
141496 On ch=4 n=52 v=0
141496 On ch=4 n=52 v=15
141504 On ch=4 n=52 v=0
141504 On ch=4 n=52 v=15
141512 On ch=4 n=52 v=0
141512 On ch=4 n=52 v=15
141520 On ch=4 n=52 v=0
141520 On ch=4 n=52 v=15
141528 On ch=4 n=52 v=0
141528 On ch=4 n=52 v=15
141536 On ch=4 n=52 v=0
141536 On ch=4 n=52 v=15
141544 On ch=4 n=52 v=0
141544 On ch=4 n=52 v=15
141552 On ch=4 n=52 v=0
141552 On ch=4 n=52 v=15
141560 On ch=4 n=52 v=0
141560 On ch=4 n=52 v=15
141568 On ch=4 n=52 v=0
141568 On ch=4 n=52 v=15
141576 On ch=4 n=52 v=0
141576 On ch=4 n=52 v=15
141584 On ch=4 n=52 v=0
141584 On ch=4 n=52 v=15
141592 On ch=4 n=52 v=0
141592 On ch=4 n=52 v=15
141600 On ch=4 n=52 v=0
141600 On ch=4 n=52 v=15
141608 On ch=4 n=52 v=0
141608 On ch=4 n=52 v=15
141616 On ch=4 n=52 v=0
141616 On ch=4 n=52 v=15
141624 On ch=4 n=52 v=0
141624 On ch=4 n=52 v=15
141632 On ch=4 n=52 v=0
141632 On ch=4 n=52 v=15
141640 On ch=4 n=52 v=0
141640 On ch=4 n=52 v=15
141648 On ch=4 n=52 v=0
141648 On ch=4 n=52 v=15
141656 On ch=4 n=52 v=0
141656 On ch=4 n=52 v=15
141664 On ch=4 n=52 v=0
141664 On ch=4 n=52 v=15
141672 On ch=4 n=52 v=0
141672 On ch=4 n=52 v=15
141680 On ch=4 n=52 v=0
141680 On ch=4 n=52 v=15
141688 On ch=4 n=52 v=0
141688 On ch=4 n=52 v=15
141696 On ch=4 n=52 v=0
141696 On ch=4 n=52 v=15
141704 On ch=4 n=52 v=0
141704 On ch=4 n=52 v=15
141712 On ch=4 n=52 v=0
141712 On ch=4 n=52 v=15
141720 On ch=4 n=52 v=0
141720 On ch=4 n=52 v=15
141728 On ch=4 n=52 v=0
141728 On ch=4 n=52 v=15
141736 On ch=4 n=52 v=0
141736 On ch=4 n=52 v=15
141744 On ch=4 n=52 v=0
141744 On ch=4 n=52 v=15
141752 On ch=4 n=52 v=0
141752 On ch=4 n=52 v=15
141760 On ch=4 n=52 v=0
141760 On ch=4 n=52 v=15
141768 On ch=4 n=52 v=0
141768 On ch=4 n=52 v=15
141776 On ch=4 n=52 v=0
141776 On ch=4 n=52 v=15
141784 On ch=4 n=52 v=0
141784 On ch=4 n=52 v=15
141792 On ch=4 n=52 v=0
141792 On ch=4 n=52 v=15
141800 On ch=4 n=52 v=0
141800 On ch=4 n=52 v=15
141808 On ch=4 n=52 v=0
141808 On ch=4 n=52 v=15
141816 On ch=4 n=52 v=0
141816 On ch=4 n=52 v=15
141824 On ch=4 n=52 v=0
141824 On ch=4 n=52 v=15
141832 On ch=4 n=52 v=0
141832 On ch=4 n=52 v=15
141840 On ch=4 n=52 v=0
141840 On ch=4 n=52 v=15
141848 On ch=4 n=52 v=0
141848 On ch=4 n=52 v=15
141856 On ch=4 n=52 v=0
141856 On ch=4 n=52 v=15
141864 On ch=4 n=52 v=0
141864 On ch=4 n=52 v=15
141872 On ch=4 n=52 v=0
141872 On ch=4 n=52 v=15
141880 On ch=4 n=52 v=0
141880 On ch=4 n=52 v=15
141888 On ch=4 n=52 v=0
141888 On ch=4 n=52 v=15
141896 On ch=4 n=52 v=0
141896 On ch=4 n=52 v=15
141904 On ch=4 n=52 v=0
141904 On ch=4 n=52 v=15
141912 On ch=4 n=52 v=0
141912 On ch=4 n=52 v=15
141920 On ch=4 n=52 v=0
141920 On ch=4 n=52 v=15
141928 On ch=4 n=52 v=0
141928 On ch=4 n=52 v=15
141936 On ch=4 n=52 v=0
141936 On ch=4 n=52 v=15
141944 On ch=4 n=52 v=0
141944 On ch=4 n=52 v=15
141952 On ch=4 n=52 v=0
141952 On ch=4 n=52 v=15
141960 On ch=4 n=52 v=0
141960 On ch=4 n=52 v=15
141968 On ch=4 n=52 v=0
141968 On ch=4 n=52 v=15
141976 On ch=4 n=52 v=0
141976 On ch=4 n=52 v=15
141984 On ch=4 n=52 v=0
141984 On ch=4 n=52 v=15
141992 On ch=4 n=52 v=0
141992 On ch=4 n=52 v=15
142000 On ch=4 n=52 v=0
142000 On ch=4 n=52 v=15
142008 On ch=4 n=52 v=0
142008 On ch=4 n=52 v=15
142016 On ch=4 n=52 v=0
142016 On ch=4 n=52 v=15
142024 On ch=4 n=52 v=0
142024 On ch=4 n=52 v=15
142032 On ch=4 n=52 v=0
142032 On ch=4 n=52 v=15
142040 On ch=4 n=52 v=0
142040 On ch=4 n=52 v=15
142048 On ch=4 n=52 v=0
142048 On ch=4 n=52 v=15
142056 On ch=4 n=52 v=0
142056 On ch=4 n=52 v=15
142064 On ch=4 n=52 v=0
142064 On ch=4 n=52 v=15
142072 On ch=4 n=52 v=0
142072 On ch=4 n=52 v=15
142080 On ch=4 n=52 v=0
142848 On ch=4 n=47 v=31
142925 On ch=4 n=47 v=0
153984 On ch=4 n=48 v=31
154022 On ch=4 n=48 v=0
154056 On ch=4 n=43 v=31
154075 On ch=4 n=43 v=0
154080 On ch=4 n=48 v=31
154118 On ch=4 n=48 v=0
154152 On ch=4 n=43 v=31
154171 On ch=4 n=43 v=0
154176 On ch=4 n=48 v=31
154214 On ch=4 n=48 v=0
154368 On ch=4 n=48 v=31
154406 On ch=4 n=48 v=0
154440 On ch=4 n=43 v=31
154459 On ch=4 n=43 v=0
154464 On ch=4 n=48 v=31
154502 On ch=4 n=48 v=0
154536 On ch=4 n=43 v=31
154555 On ch=4 n=43 v=0
154560 On ch=4 n=48 v=31
154598 On ch=4 n=48 v=0
154920 On ch=4 n=43 v=47
154939 On ch=4 n=43 v=0
154944 On ch=4 n=48 v=47
154982 On ch=4 n=48 v=0
155016 On ch=4 n=43 v=47
155035 On ch=4 n=43 v=0
155040 On ch=4 n=48 v=47
155078 On ch=4 n=48 v=0
155112 On ch=4 n=43 v=47
155131 On ch=4 n=43 v=0
155136 On ch=4 n=48 v=47
155174 On ch=4 n=48 v=0
155520 On ch=4 n=48 v=47
155558 On ch=4 n=48 v=0
156672 On ch=4 n=48 v=47
156748 On ch=4 n=48 v=0
156768 On ch=4 n=43 v=47
156806 On ch=4 n=43 v=0
156840 On ch=4 n=43 v=47
156859 On ch=4 n=43 v=0
156864 On ch=4 n=48 v=47
156940 On ch=4 n=48 v=0
156960 On ch=4 n=43 v=47
156998 On ch=4 n=43 v=0
157032 On ch=4 n=43 v=47
157051 On ch=4 n=43 v=0
157056 On ch=4 n=48 v=47
157132 On ch=4 n=48 v=0
157152 On ch=4 n=43 v=47
157190 On ch=4 n=43 v=0
157224 On ch=4 n=43 v=47
157243 On ch=4 n=43 v=0
157248 On ch=4 n=48 v=47
157324 On ch=4 n=48 v=0
157344 On ch=4 n=43 v=47
157382 On ch=4 n=43 v=0
157416 On ch=4 n=43 v=47
157435 On ch=4 n=43 v=0
157440 On ch=4 n=48 v=47
157478 On ch=4 n=48 v=0
157824 On ch=4 n=48 v=47
157862 On ch=4 n=48 v=0
158208 On ch=4 n=48 v=47
158246 On ch=4 n=48 v=0
158352 On ch=4 n=43 v=47
158390 On ch=4 n=43 v=0
158400 On ch=4 n=48 v=47
158426 On ch=4 n=48 v=0
158432 On ch=4 n=43 v=47
158458 On ch=4 n=43 v=0
158464 On ch=4 n=48 v=47
158490 On ch=4 n=48 v=0
158496 On ch=4 n=43 v=47
158522 On ch=4 n=43 v=0
158528 On ch=4 n=48 v=47
158554 On ch=4 n=48 v=0
158560 On ch=4 n=43 v=47
158586 On ch=4 n=43 v=0
158592 On ch=4 n=48 v=47
158630 On ch=4 n=48 v=0
158736 On ch=4 n=43 v=47
158774 On ch=4 n=43 v=0
158784 On ch=4 n=48 v=47
158810 On ch=4 n=48 v=0
158816 On ch=4 n=43 v=47
158842 On ch=4 n=43 v=0
158848 On ch=4 n=48 v=47
158874 On ch=4 n=48 v=0
158880 On ch=4 n=43 v=47
158906 On ch=4 n=43 v=0
158912 On ch=4 n=48 v=47
158938 On ch=4 n=48 v=0
158944 On ch=4 n=43 v=47
158970 On ch=4 n=43 v=0
158976 On ch=4 n=48 v=47
159014 On ch=4 n=48 v=0
159120 On ch=4 n=43 v=47
159158 On ch=4 n=43 v=0
159168 On ch=4 n=48 v=47
159194 On ch=4 n=48 v=0
159200 On ch=4 n=43 v=47
159226 On ch=4 n=43 v=0
159232 On ch=4 n=48 v=47
159258 On ch=4 n=48 v=0
159264 On ch=4 n=43 v=47
159290 On ch=4 n=43 v=0
159296 On ch=4 n=48 v=47
159322 On ch=4 n=48 v=0
159328 On ch=4 n=43 v=47
159354 On ch=4 n=43 v=0
159360 On ch=4 n=48 v=47
159398 On ch=4 n=48 v=0
159504 On ch=4 n=43 v=47
159542 On ch=4 n=43 v=0
159552 On ch=4 n=48 v=47
159578 On ch=4 n=48 v=0
159584 On ch=4 n=43 v=47
159610 On ch=4 n=43 v=0
159616 On ch=4 n=48 v=47
159642 On ch=4 n=48 v=0
159648 On ch=4 n=43 v=47
159674 On ch=4 n=43 v=0
159680 On ch=4 n=48 v=47
159706 On ch=4 n=48 v=0
159712 On ch=4 n=43 v=47
159738 On ch=4 n=43 v=0
159744 On ch=4 n=48 v=47
159782 On ch=4 n=48 v=0
160512 On ch=4 n=48 v=95
160550 On ch=4 n=48 v=0
160896 On ch=4 n=48 v=95
160934 On ch=4 n=48 v=0
161280 On ch=4 n=48 v=15
161288 On ch=4 n=48 v=0
161288 On ch=4 n=48 v=15
161296 On ch=4 n=48 v=0
161296 On ch=4 n=48 v=15
161304 On ch=4 n=48 v=0
161304 On ch=4 n=48 v=15
161312 On ch=4 n=48 v=0
161312 On ch=4 n=48 v=15
161320 On ch=4 n=48 v=0
161320 On ch=4 n=48 v=15
161328 On ch=4 n=48 v=0
161328 On ch=4 n=48 v=15
161336 On ch=4 n=48 v=0
161336 On ch=4 n=48 v=15
161344 On ch=4 n=48 v=0
161344 On ch=4 n=48 v=15
161352 On ch=4 n=48 v=0
161352 On ch=4 n=48 v=15
161360 On ch=4 n=48 v=0
161360 On ch=4 n=48 v=15
161368 On ch=4 n=48 v=0
161368 On ch=4 n=48 v=15
161376 On ch=4 n=48 v=0
161376 On ch=4 n=48 v=15
161384 On ch=4 n=48 v=0
161384 On ch=4 n=48 v=15
161392 On ch=4 n=48 v=0
161392 On ch=4 n=48 v=15
161400 On ch=4 n=48 v=0
161400 On ch=4 n=48 v=15
161408 On ch=4 n=48 v=0
161408 On ch=4 n=48 v=15
161416 On ch=4 n=48 v=0
161416 On ch=4 n=48 v=15
161424 On ch=4 n=48 v=0
161424 On ch=4 n=48 v=15
161432 On ch=4 n=48 v=0
161432 On ch=4 n=48 v=15
161440 On ch=4 n=48 v=0
161440 On ch=4 n=48 v=15
161448 On ch=4 n=48 v=0
161448 On ch=4 n=48 v=15
161456 On ch=4 n=48 v=0
161456 On ch=4 n=48 v=15
161464 On ch=4 n=48 v=0
161464 On ch=4 n=48 v=15
161472 On ch=4 n=48 v=0
161472 On ch=4 n=48 v=15
161480 On ch=4 n=48 v=0
161480 On ch=4 n=48 v=15
161488 On ch=4 n=48 v=0
161488 On ch=4 n=48 v=15
161496 On ch=4 n=48 v=0
161496 On ch=4 n=48 v=15
161504 On ch=4 n=48 v=0
161504 On ch=4 n=48 v=15
161512 On ch=4 n=48 v=0
161512 On ch=4 n=48 v=15
161520 On ch=4 n=48 v=0
161520 On ch=4 n=48 v=15
161528 On ch=4 n=48 v=0
161528 On ch=4 n=48 v=15
161536 On ch=4 n=48 v=0
161536 On ch=4 n=48 v=15
161544 On ch=4 n=48 v=0
161544 On ch=4 n=48 v=15
161552 On ch=4 n=48 v=0
161552 On ch=4 n=48 v=15
161560 On ch=4 n=48 v=0
161560 On ch=4 n=48 v=15
161568 On ch=4 n=48 v=0
161568 On ch=4 n=48 v=15
161576 On ch=4 n=48 v=0
161576 On ch=4 n=48 v=15
161584 On ch=4 n=48 v=0
161584 On ch=4 n=48 v=15
161592 On ch=4 n=48 v=0
161592 On ch=4 n=48 v=15
161600 On ch=4 n=48 v=0
161600 On ch=4 n=48 v=15
161608 On ch=4 n=48 v=0
161608 On ch=4 n=48 v=15
161616 On ch=4 n=48 v=0
161616 On ch=4 n=48 v=15
161624 On ch=4 n=48 v=0
161624 On ch=4 n=48 v=15
161632 On ch=4 n=48 v=0
161632 On ch=4 n=48 v=15
161640 On ch=4 n=48 v=0
161640 On ch=4 n=48 v=15
161648 On ch=4 n=48 v=0
161648 On ch=4 n=48 v=15
161656 On ch=4 n=48 v=0
161656 On ch=4 n=48 v=15
161664 On ch=4 n=48 v=0
161664 On ch=4 n=48 v=15
161672 On ch=4 n=48 v=0
161672 On ch=4 n=48 v=15
161680 On ch=4 n=48 v=0
161680 On ch=4 n=48 v=15
161688 On ch=4 n=48 v=0
161688 On ch=4 n=48 v=15
161696 On ch=4 n=48 v=0
161696 On ch=4 n=48 v=15
161704 On ch=4 n=48 v=0
161704 On ch=4 n=48 v=15
161712 On ch=4 n=48 v=0
161712 On ch=4 n=48 v=15
161720 On ch=4 n=48 v=0
161720 On ch=4 n=48 v=15
161728 On ch=4 n=48 v=0
161728 On ch=4 n=48 v=15
161736 On ch=4 n=48 v=0
161736 On ch=4 n=48 v=15
161744 On ch=4 n=48 v=0
161744 On ch=4 n=48 v=15
161752 On ch=4 n=48 v=0
161752 On ch=4 n=48 v=15
161760 On ch=4 n=48 v=0
161760 On ch=4 n=48 v=15
161768 On ch=4 n=48 v=0
161768 On ch=4 n=48 v=15
161776 On ch=4 n=48 v=0
161776 On ch=4 n=48 v=15
161784 On ch=4 n=48 v=0
161784 On ch=4 n=48 v=15
161792 On ch=4 n=48 v=0
161792 On ch=4 n=48 v=15
161800 On ch=4 n=48 v=0
161800 On ch=4 n=48 v=15
161808 On ch=4 n=48 v=0
161808 On ch=4 n=48 v=15
161816 On ch=4 n=48 v=0
161816 On ch=4 n=48 v=15
161824 On ch=4 n=48 v=0
161824 On ch=4 n=48 v=15
161832 On ch=4 n=48 v=0
161832 On ch=4 n=48 v=15
161840 On ch=4 n=48 v=0
161840 On ch=4 n=48 v=15
161848 On ch=4 n=48 v=0
161848 On ch=4 n=48 v=15
161856 On ch=4 n=48 v=0
161856 On ch=4 n=48 v=15
161864 On ch=4 n=48 v=0
161864 On ch=4 n=48 v=15
161872 On ch=4 n=48 v=0
161872 On ch=4 n=48 v=15
161880 On ch=4 n=48 v=0
161880 On ch=4 n=48 v=15
161888 On ch=4 n=48 v=0
161888 On ch=4 n=48 v=15
161896 On ch=4 n=48 v=0
161896 On ch=4 n=48 v=15
161904 On ch=4 n=48 v=0
161904 On ch=4 n=48 v=15
161912 On ch=4 n=48 v=0
161912 On ch=4 n=48 v=15
161920 On ch=4 n=48 v=0
161920 On ch=4 n=48 v=15
161928 On ch=4 n=48 v=0
161928 On ch=4 n=48 v=15
161936 On ch=4 n=48 v=0
161936 On ch=4 n=48 v=15
161944 On ch=4 n=48 v=0
161944 On ch=4 n=48 v=15
161952 On ch=4 n=48 v=0
161952 On ch=4 n=48 v=15
161960 On ch=4 n=48 v=0
161960 On ch=4 n=48 v=15
161968 On ch=4 n=48 v=0
161968 On ch=4 n=48 v=15
161976 On ch=4 n=48 v=0
161976 On ch=4 n=48 v=15
161984 On ch=4 n=48 v=0
161984 On ch=4 n=48 v=15
161992 On ch=4 n=48 v=0
161992 On ch=4 n=48 v=15
162000 On ch=4 n=48 v=0
162000 On ch=4 n=48 v=15
162008 On ch=4 n=48 v=0
162008 On ch=4 n=48 v=15
162016 On ch=4 n=48 v=0
162016 On ch=4 n=48 v=15
162024 On ch=4 n=48 v=0
162024 On ch=4 n=48 v=15
162032 On ch=4 n=48 v=0
162032 On ch=4 n=48 v=15
162040 On ch=4 n=48 v=0
162040 On ch=4 n=48 v=15
162048 On ch=4 n=48 v=0
162048 On ch=4 n=48 v=15
162056 On ch=4 n=48 v=0
162056 On ch=4 n=48 v=15
162064 On ch=4 n=48 v=0
162064 On ch=4 n=48 v=15
162072 On ch=4 n=48 v=0
162072 On ch=4 n=48 v=15
162080 On ch=4 n=48 v=0
162080 On ch=4 n=48 v=15
162088 On ch=4 n=48 v=0
162088 On ch=4 n=48 v=15
162096 On ch=4 n=48 v=0
162096 On ch=4 n=48 v=15
162104 On ch=4 n=48 v=0
162104 On ch=4 n=48 v=15
162112 On ch=4 n=48 v=0
162112 On ch=4 n=48 v=15
162120 On ch=4 n=48 v=0
162120 On ch=4 n=48 v=15
162128 On ch=4 n=48 v=0
162128 On ch=4 n=48 v=15
162136 On ch=4 n=48 v=0
162136 On ch=4 n=48 v=15
162144 On ch=4 n=48 v=0
162144 On ch=4 n=48 v=15
162152 On ch=4 n=48 v=0
162152 On ch=4 n=48 v=15
162160 On ch=4 n=48 v=0
162160 On ch=4 n=48 v=15
162168 On ch=4 n=48 v=0
162168 On ch=4 n=48 v=15
162176 On ch=4 n=48 v=0
162176 On ch=4 n=48 v=15
162184 On ch=4 n=48 v=0
162184 On ch=4 n=48 v=15
162192 On ch=4 n=48 v=0
162192 On ch=4 n=48 v=15
162200 On ch=4 n=48 v=0
162200 On ch=4 n=48 v=15
162208 On ch=4 n=48 v=0
162208 On ch=4 n=48 v=15
162216 On ch=4 n=48 v=0
162216 On ch=4 n=48 v=15
162224 On ch=4 n=48 v=0
162224 On ch=4 n=48 v=15
162232 On ch=4 n=48 v=0
162232 On ch=4 n=48 v=15
162240 On ch=4 n=48 v=0
162240 On ch=4 n=48 v=15
162248 On ch=4 n=48 v=0
162248 On ch=4 n=48 v=15
162256 On ch=4 n=48 v=0
162256 On ch=4 n=48 v=15
162264 On ch=4 n=48 v=0
162264 On ch=4 n=48 v=15
162272 On ch=4 n=48 v=0
162272 On ch=4 n=48 v=15
162280 On ch=4 n=48 v=0
162280 On ch=4 n=48 v=15
162288 On ch=4 n=48 v=0
162288 On ch=4 n=48 v=15
162296 On ch=4 n=48 v=0
162296 On ch=4 n=48 v=15
162304 On ch=4 n=48 v=0
162304 On ch=4 n=48 v=15
162312 On ch=4 n=48 v=0
162312 On ch=4 n=48 v=15
162320 On ch=4 n=48 v=0
162320 On ch=4 n=48 v=15
162328 On ch=4 n=48 v=0
162328 On ch=4 n=48 v=15
162336 On ch=4 n=48 v=0
162336 On ch=4 n=48 v=15
162344 On ch=4 n=48 v=0
162344 On ch=4 n=48 v=15
162352 On ch=4 n=48 v=0
162352 On ch=4 n=48 v=15
162360 On ch=4 n=48 v=0
162360 On ch=4 n=48 v=15
162368 On ch=4 n=48 v=0
162368 On ch=4 n=48 v=15
162376 On ch=4 n=48 v=0
162376 On ch=4 n=48 v=15
162384 On ch=4 n=48 v=0
162384 On ch=4 n=48 v=15
162392 On ch=4 n=48 v=0
162392 On ch=4 n=48 v=15
162400 On ch=4 n=48 v=0
162400 On ch=4 n=48 v=15
162408 On ch=4 n=48 v=0
162408 On ch=4 n=48 v=15
162416 On ch=4 n=48 v=0
162416 On ch=4 n=48 v=15
162424 On ch=4 n=48 v=0
162424 On ch=4 n=48 v=15
162432 On ch=4 n=48 v=0
162432 On ch=4 n=48 v=15
162440 On ch=4 n=48 v=0
162440 On ch=4 n=48 v=15
162448 On ch=4 n=48 v=0
162448 On ch=4 n=48 v=15
162456 On ch=4 n=48 v=0
162456 On ch=4 n=48 v=15
162464 On ch=4 n=48 v=0
162464 On ch=4 n=48 v=15
162472 On ch=4 n=48 v=0
162472 On ch=4 n=48 v=15
162480 On ch=4 n=48 v=0
162480 On ch=4 n=48 v=15
162488 On ch=4 n=48 v=0
162488 On ch=4 n=48 v=15
162496 On ch=4 n=48 v=0
162496 On ch=4 n=48 v=15
162504 On ch=4 n=48 v=0
162504 On ch=4 n=48 v=15
162512 On ch=4 n=48 v=0
162512 On ch=4 n=48 v=15
162520 On ch=4 n=48 v=0
162520 On ch=4 n=48 v=15
162528 On ch=4 n=48 v=0
162528 On ch=4 n=48 v=15
162536 On ch=4 n=48 v=0
162536 On ch=4 n=48 v=15
162544 On ch=4 n=48 v=0
162544 On ch=4 n=48 v=15
162552 On ch=4 n=48 v=0
162552 On ch=4 n=48 v=15
162560 On ch=4 n=48 v=0
162560 On ch=4 n=48 v=15
162568 On ch=4 n=48 v=0
162568 On ch=4 n=48 v=15
162576 On ch=4 n=48 v=0
162576 On ch=4 n=48 v=15
162584 On ch=4 n=48 v=0
162584 On ch=4 n=48 v=15
162592 On ch=4 n=48 v=0
162592 On ch=4 n=48 v=15
162600 On ch=4 n=48 v=0
162600 On ch=4 n=48 v=15
162608 On ch=4 n=48 v=0
162608 On ch=4 n=48 v=15
162616 On ch=4 n=48 v=0
162616 On ch=4 n=48 v=15
162624 On ch=4 n=48 v=0
162624 On ch=4 n=48 v=15
162632 On ch=4 n=48 v=0
162632 On ch=4 n=48 v=15
162640 On ch=4 n=48 v=0
162640 On ch=4 n=48 v=15
162648 On ch=4 n=48 v=0
162648 On ch=4 n=48 v=15
162656 On ch=4 n=48 v=0
162656 On ch=4 n=48 v=15
162664 On ch=4 n=48 v=0
162664 On ch=4 n=48 v=15
162672 On ch=4 n=48 v=0
162672 On ch=4 n=48 v=15
162680 On ch=4 n=48 v=0
162680 On ch=4 n=48 v=15
162688 On ch=4 n=48 v=0
162688 On ch=4 n=48 v=15
162696 On ch=4 n=48 v=0
162696 On ch=4 n=48 v=15
162704 On ch=4 n=48 v=0
162704 On ch=4 n=48 v=15
162712 On ch=4 n=48 v=0
162712 On ch=4 n=48 v=15
162720 On ch=4 n=48 v=0
162816 On ch=4 n=48 v=15
162824 On ch=4 n=48 v=0
162824 On ch=4 n=48 v=15
162832 On ch=4 n=48 v=0
162832 On ch=4 n=48 v=15
162840 On ch=4 n=48 v=0
162840 On ch=4 n=48 v=15
162848 On ch=4 n=48 v=0
162848 On ch=4 n=48 v=15
162856 On ch=4 n=48 v=0
162856 On ch=4 n=48 v=15
162864 On ch=4 n=48 v=0
162864 On ch=4 n=48 v=15
162872 On ch=4 n=48 v=0
162872 On ch=4 n=48 v=15
162880 On ch=4 n=48 v=0
162880 On ch=4 n=48 v=15
162888 On ch=4 n=48 v=0
162888 On ch=4 n=48 v=15
162896 On ch=4 n=48 v=0
162896 On ch=4 n=48 v=15
162904 On ch=4 n=48 v=0
162904 On ch=4 n=48 v=15
162912 On ch=4 n=48 v=0
162912 On ch=4 n=48 v=15
162920 On ch=4 n=48 v=0
162920 On ch=4 n=48 v=15
162928 On ch=4 n=48 v=0
162928 On ch=4 n=48 v=15
162936 On ch=4 n=48 v=0
162936 On ch=4 n=48 v=15
162944 On ch=4 n=48 v=0
162944 On ch=4 n=48 v=15
162952 On ch=4 n=48 v=0
162952 On ch=4 n=48 v=15
162960 On ch=4 n=48 v=0
162960 On ch=4 n=48 v=15
162968 On ch=4 n=48 v=0
162968 On ch=4 n=48 v=15
162976 On ch=4 n=48 v=0
162976 On ch=4 n=48 v=15
162984 On ch=4 n=48 v=0
162984 On ch=4 n=48 v=15
162992 On ch=4 n=48 v=0
162992 On ch=4 n=48 v=15
163000 On ch=4 n=48 v=0
163000 On ch=4 n=48 v=15
163008 On ch=4 n=48 v=0
163008 On ch=4 n=48 v=15
163016 On ch=4 n=48 v=0
163016 On ch=4 n=48 v=15
163024 On ch=4 n=48 v=0
163024 On ch=4 n=48 v=15
163032 On ch=4 n=48 v=0
163032 On ch=4 n=48 v=15
163040 On ch=4 n=48 v=0
163040 On ch=4 n=48 v=15
163048 On ch=4 n=48 v=0
163048 On ch=4 n=48 v=15
163056 On ch=4 n=48 v=0
163056 On ch=4 n=48 v=15
163064 On ch=4 n=48 v=0
163064 On ch=4 n=48 v=15
163072 On ch=4 n=48 v=0
163072 On ch=4 n=48 v=15
163080 On ch=4 n=48 v=0
163080 On ch=4 n=48 v=15
163088 On ch=4 n=48 v=0
163088 On ch=4 n=48 v=15
163096 On ch=4 n=48 v=0
163096 On ch=4 n=48 v=15
163104 On ch=4 n=48 v=0
163200 On ch=4 n=48 v=15
163208 On ch=4 n=48 v=0
163208 On ch=4 n=48 v=15
163216 On ch=4 n=48 v=0
163216 On ch=4 n=48 v=15
163224 On ch=4 n=48 v=0
163224 On ch=4 n=48 v=15
163232 On ch=4 n=48 v=0
163232 On ch=4 n=48 v=15
163240 On ch=4 n=48 v=0
163240 On ch=4 n=48 v=15
163248 On ch=4 n=48 v=0
163248 On ch=4 n=48 v=15
163256 On ch=4 n=48 v=0
163256 On ch=4 n=48 v=15
163264 On ch=4 n=48 v=0
163264 On ch=4 n=48 v=15
163272 On ch=4 n=48 v=0
163272 On ch=4 n=48 v=15
163280 On ch=4 n=48 v=0
163280 On ch=4 n=48 v=15
163288 On ch=4 n=48 v=0
163288 On ch=4 n=48 v=15
163296 On ch=4 n=48 v=0
163296 On ch=4 n=48 v=15
163304 On ch=4 n=48 v=0
163304 On ch=4 n=48 v=15
163312 On ch=4 n=48 v=0
163312 On ch=4 n=48 v=15
163320 On ch=4 n=48 v=0
163320 On ch=4 n=48 v=15
163328 On ch=4 n=48 v=0
163328 On ch=4 n=48 v=15
163336 On ch=4 n=48 v=0
163336 On ch=4 n=48 v=15
163344 On ch=4 n=48 v=0
163344 On ch=4 n=48 v=15
163352 On ch=4 n=48 v=0
163352 On ch=4 n=48 v=15
163360 On ch=4 n=48 v=0
163360 On ch=4 n=48 v=15
163368 On ch=4 n=48 v=0
163368 On ch=4 n=48 v=15
163376 On ch=4 n=48 v=0
163376 On ch=4 n=48 v=15
163384 On ch=4 n=48 v=0
163384 On ch=4 n=48 v=15
163392 On ch=4 n=48 v=0
163392 On ch=4 n=48 v=15
163400 On ch=4 n=48 v=0
163400 On ch=4 n=48 v=15
163408 On ch=4 n=48 v=0
163408 On ch=4 n=48 v=15
163416 On ch=4 n=48 v=0
163416 On ch=4 n=48 v=15
163424 On ch=4 n=48 v=0
163424 On ch=4 n=48 v=15
163432 On ch=4 n=48 v=0
163432 On ch=4 n=48 v=15
163440 On ch=4 n=48 v=0
163440 On ch=4 n=48 v=15
163448 On ch=4 n=48 v=0
163448 On ch=4 n=48 v=15
163456 On ch=4 n=48 v=0
163456 On ch=4 n=48 v=15
163464 On ch=4 n=48 v=0
163464 On ch=4 n=48 v=15
163472 On ch=4 n=48 v=0
163472 On ch=4 n=48 v=15
163480 On ch=4 n=48 v=0
163480 On ch=4 n=48 v=15
163488 On ch=4 n=48 v=0
163584 On ch=4 n=48 v=15
163592 On ch=4 n=48 v=0
163592 On ch=4 n=48 v=15
163600 On ch=4 n=48 v=0
163600 On ch=4 n=48 v=15
163608 On ch=4 n=48 v=0
163608 On ch=4 n=48 v=15
163616 On ch=4 n=48 v=0
163616 On ch=4 n=48 v=15
163624 On ch=4 n=48 v=0
163624 On ch=4 n=48 v=15
163632 On ch=4 n=48 v=0
163632 On ch=4 n=48 v=15
163640 On ch=4 n=48 v=0
163640 On ch=4 n=48 v=15
163648 On ch=4 n=48 v=0
163648 On ch=4 n=48 v=15
163656 On ch=4 n=48 v=0
163656 On ch=4 n=48 v=15
163664 On ch=4 n=48 v=0
163664 On ch=4 n=48 v=15
163672 On ch=4 n=48 v=0
163672 On ch=4 n=48 v=15
163680 On ch=4 n=48 v=0
163680 On ch=4 n=48 v=15
163688 On ch=4 n=48 v=0
163688 On ch=4 n=48 v=15
163696 On ch=4 n=48 v=0
163696 On ch=4 n=48 v=15
163704 On ch=4 n=48 v=0
163704 On ch=4 n=48 v=15
163712 On ch=4 n=48 v=0
163712 On ch=4 n=48 v=15
163720 On ch=4 n=48 v=0
163720 On ch=4 n=48 v=15
163728 On ch=4 n=48 v=0
163728 On ch=4 n=48 v=15
163736 On ch=4 n=48 v=0
163736 On ch=4 n=48 v=15
163744 On ch=4 n=48 v=0
163744 On ch=4 n=48 v=15
163752 On ch=4 n=48 v=0
163752 On ch=4 n=48 v=15
163760 On ch=4 n=48 v=0
163760 On ch=4 n=48 v=15
163768 On ch=4 n=48 v=0
163768 On ch=4 n=48 v=15
163776 On ch=4 n=48 v=0
163776 On ch=4 n=48 v=15
163784 On ch=4 n=48 v=0
163784 On ch=4 n=48 v=15
163792 On ch=4 n=48 v=0
163792 On ch=4 n=48 v=15
163800 On ch=4 n=48 v=0
163800 On ch=4 n=48 v=15
163808 On ch=4 n=48 v=0
163808 On ch=4 n=48 v=15
163816 On ch=4 n=48 v=0
163816 On ch=4 n=48 v=15
163824 On ch=4 n=48 v=0
163824 On ch=4 n=48 v=15
163832 On ch=4 n=48 v=0
163832 On ch=4 n=48 v=15
163840 On ch=4 n=48 v=0
163840 On ch=4 n=48 v=15
163848 On ch=4 n=48 v=0
163848 On ch=4 n=48 v=15
163856 On ch=4 n=48 v=0
163856 On ch=4 n=48 v=15
163864 On ch=4 n=48 v=0
163864 On ch=4 n=48 v=15
163872 On ch=4 n=48 v=0
163968 On ch=4 n=48 v=31
163994 On ch=4 n=48 v=0
164000 On ch=4 n=43 v=31
164026 On ch=4 n=43 v=0
164032 On ch=4 n=48 v=31
164058 On ch=4 n=48 v=0
164064 On ch=4 n=48 v=31
164090 On ch=4 n=48 v=0
164096 On ch=4 n=43 v=31
164122 On ch=4 n=43 v=0
164128 On ch=4 n=48 v=31
164154 On ch=4 n=48 v=0
164160 On ch=4 n=48 v=31
164198 On ch=4 n=48 v=0
164352 On ch=4 n=48 v=31
164378 On ch=4 n=48 v=0
164384 On ch=4 n=43 v=31
164410 On ch=4 n=43 v=0
164416 On ch=4 n=48 v=31
164442 On ch=4 n=48 v=0
164448 On ch=4 n=48 v=31
164474 On ch=4 n=48 v=0
164480 On ch=4 n=43 v=31
164506 On ch=4 n=43 v=0
164512 On ch=4 n=48 v=31
164538 On ch=4 n=48 v=0
164544 On ch=4 n=48 v=31
164582 On ch=4 n=48 v=0
165120 On ch=4 n=48 v=31
165146 On ch=4 n=48 v=0
165152 On ch=4 n=43 v=31
165178 On ch=4 n=43 v=0
165184 On ch=4 n=48 v=31
165210 On ch=4 n=48 v=0
165216 On ch=4 n=48 v=31
165242 On ch=4 n=48 v=0
165248 On ch=4 n=43 v=31
165274 On ch=4 n=43 v=0
165280 On ch=4 n=48 v=31
165306 On ch=4 n=48 v=0
165312 On ch=4 n=48 v=31
165350 On ch=4 n=48 v=0
165504 On ch=4 n=48 v=31
165530 On ch=4 n=48 v=0
165536 On ch=4 n=43 v=31
165562 On ch=4 n=43 v=0
165568 On ch=4 n=48 v=31
165594 On ch=4 n=48 v=0
165600 On ch=4 n=48 v=31
165626 On ch=4 n=48 v=0
165632 On ch=4 n=43 v=31
165658 On ch=4 n=43 v=0
165664 On ch=4 n=48 v=31
165690 On ch=4 n=48 v=0
165696 On ch=4 n=48 v=31
165734 On ch=4 n=48 v=0
166272 On ch=4 n=48 v=31
166298 On ch=4 n=48 v=0
166304 On ch=4 n=43 v=31
166330 On ch=4 n=43 v=0
166336 On ch=4 n=48 v=31
166362 On ch=4 n=48 v=0
166368 On ch=4 n=48 v=31
166394 On ch=4 n=48 v=0
166400 On ch=4 n=43 v=31
166426 On ch=4 n=43 v=0
166432 On ch=4 n=48 v=31
166458 On ch=4 n=48 v=0
166464 On ch=4 n=48 v=31
166502 On ch=4 n=48 v=0
166656 On ch=4 n=48 v=31
166682 On ch=4 n=48 v=0
166688 On ch=4 n=43 v=31
166714 On ch=4 n=43 v=0
166720 On ch=4 n=48 v=31
166746 On ch=4 n=48 v=0
166752 On ch=4 n=48 v=31
166778 On ch=4 n=48 v=0
166784 On ch=4 n=43 v=31
166810 On ch=4 n=43 v=0
166816 On ch=4 n=48 v=31
166842 On ch=4 n=48 v=0
166848 On ch=4 n=48 v=31
166886 On ch=4 n=48 v=0
167040 On ch=4 n=48 v=31
167066 On ch=4 n=48 v=0
167072 On ch=4 n=43 v=31
167098 On ch=4 n=43 v=0
167104 On ch=4 n=48 v=31
167130 On ch=4 n=48 v=0
167136 On ch=4 n=48 v=31
167162 On ch=4 n=48 v=0
167168 On ch=4 n=43 v=31
167194 On ch=4 n=43 v=0
167200 On ch=4 n=48 v=31
167226 On ch=4 n=48 v=0
167232 On ch=4 n=48 v=31
167270 On ch=4 n=48 v=0
167424 On ch=4 n=48 v=31
167450 On ch=4 n=48 v=0
167456 On ch=4 n=43 v=31
167482 On ch=4 n=43 v=0
167488 On ch=4 n=48 v=31
167514 On ch=4 n=48 v=0
167520 On ch=4 n=48 v=31
167546 On ch=4 n=48 v=0
167552 On ch=4 n=43 v=31
167578 On ch=4 n=43 v=0
167584 On ch=4 n=48 v=31
167610 On ch=4 n=48 v=0
167616 On ch=4 n=48 v=31
167654 On ch=4 n=48 v=0
167808 On ch=4 n=48 v=31
167834 On ch=4 n=48 v=0
167840 On ch=4 n=43 v=31
167866 On ch=4 n=43 v=0
167872 On ch=4 n=48 v=31
167898 On ch=4 n=48 v=0
167904 On ch=4 n=48 v=31
167930 On ch=4 n=48 v=0
167936 On ch=4 n=43 v=31
167962 On ch=4 n=43 v=0
167968 On ch=4 n=48 v=31
167994 On ch=4 n=48 v=0
168000 On ch=4 n=48 v=31
168038 On ch=4 n=48 v=0
168192 On ch=4 n=48 v=31
168218 On ch=4 n=48 v=0
168224 On ch=4 n=43 v=31
168250 On ch=4 n=43 v=0
168256 On ch=4 n=48 v=31
168282 On ch=4 n=48 v=0
168288 On ch=4 n=48 v=31
168314 On ch=4 n=48 v=0
168320 On ch=4 n=43 v=31
168346 On ch=4 n=43 v=0
168352 On ch=4 n=48 v=31
168378 On ch=4 n=48 v=0
168384 On ch=4 n=48 v=31
168422 On ch=4 n=48 v=0
168576 On ch=4 n=48 v=15
168584 On ch=4 n=48 v=0
168584 On ch=4 n=48 v=15
168592 On ch=4 n=48 v=0
168592 On ch=4 n=48 v=15
168600 On ch=4 n=48 v=0
168600 On ch=4 n=48 v=15
168608 On ch=4 n=48 v=0
168608 On ch=4 n=48 v=15
168616 On ch=4 n=48 v=0
168616 On ch=4 n=48 v=15
168624 On ch=4 n=48 v=0
168624 On ch=4 n=48 v=15
168632 On ch=4 n=48 v=0
168632 On ch=4 n=48 v=15
168640 On ch=4 n=48 v=0
168640 On ch=4 n=48 v=15
168648 On ch=4 n=48 v=0
168648 On ch=4 n=48 v=15
168656 On ch=4 n=48 v=0
168656 On ch=4 n=48 v=15
168664 On ch=4 n=48 v=0
168664 On ch=4 n=48 v=15
168672 On ch=4 n=48 v=0
168672 On ch=4 n=48 v=15
168680 On ch=4 n=48 v=0
168680 On ch=4 n=48 v=15
168688 On ch=4 n=48 v=0
168688 On ch=4 n=48 v=15
168696 On ch=4 n=48 v=0
168696 On ch=4 n=48 v=15
168704 On ch=4 n=48 v=0
168704 On ch=4 n=48 v=15
168712 On ch=4 n=48 v=0
168712 On ch=4 n=48 v=15
168720 On ch=4 n=48 v=0
168720 On ch=4 n=48 v=15
168728 On ch=4 n=48 v=0
168728 On ch=4 n=48 v=15
168736 On ch=4 n=48 v=0
168736 On ch=4 n=48 v=15
168744 On ch=4 n=48 v=0
168744 On ch=4 n=48 v=15
168752 On ch=4 n=48 v=0
168752 On ch=4 n=48 v=15
168760 On ch=4 n=48 v=0
168760 On ch=4 n=48 v=15
168768 On ch=4 n=48 v=0
168768 On ch=4 n=48 v=15
168776 On ch=4 n=48 v=0
168776 On ch=4 n=48 v=15
168784 On ch=4 n=48 v=0
168784 On ch=4 n=48 v=15
168792 On ch=4 n=48 v=0
168792 On ch=4 n=48 v=15
168800 On ch=4 n=48 v=0
168800 On ch=4 n=48 v=15
168808 On ch=4 n=48 v=0
168808 On ch=4 n=48 v=15
168816 On ch=4 n=48 v=0
168816 On ch=4 n=48 v=15
168824 On ch=4 n=48 v=0
168824 On ch=4 n=48 v=15
168832 On ch=4 n=48 v=0
168832 On ch=4 n=48 v=15
168840 On ch=4 n=48 v=0
168840 On ch=4 n=48 v=15
168848 On ch=4 n=48 v=0
168848 On ch=4 n=48 v=15
168856 On ch=4 n=48 v=0
168856 On ch=4 n=48 v=15
168864 On ch=4 n=48 v=0
168864 On ch=4 n=48 v=15
168872 On ch=4 n=48 v=0
168872 On ch=4 n=48 v=15
168880 On ch=4 n=48 v=0
168880 On ch=4 n=48 v=15
168888 On ch=4 n=48 v=0
168888 On ch=4 n=48 v=15
168896 On ch=4 n=48 v=0
168896 On ch=4 n=48 v=15
168904 On ch=4 n=48 v=0
168904 On ch=4 n=48 v=15
168912 On ch=4 n=48 v=0
168912 On ch=4 n=48 v=15
168920 On ch=4 n=48 v=0
168920 On ch=4 n=48 v=15
168928 On ch=4 n=48 v=0
168928 On ch=4 n=48 v=15
168936 On ch=4 n=48 v=0
168936 On ch=4 n=48 v=15
168944 On ch=4 n=48 v=0
168944 On ch=4 n=48 v=15
168952 On ch=4 n=48 v=0
168952 On ch=4 n=48 v=15
168960 On ch=4 n=48 v=0
168960 On ch=4 n=48 v=15
168968 On ch=4 n=48 v=0
168968 On ch=4 n=48 v=15
168976 On ch=4 n=48 v=0
168976 On ch=4 n=48 v=15
168984 On ch=4 n=48 v=0
168984 On ch=4 n=48 v=15
168992 On ch=4 n=48 v=0
168992 On ch=4 n=48 v=15
169000 On ch=4 n=48 v=0
169000 On ch=4 n=48 v=15
169008 On ch=4 n=48 v=0
169008 On ch=4 n=48 v=15
169016 On ch=4 n=48 v=0
169016 On ch=4 n=48 v=15
169024 On ch=4 n=48 v=0
169024 On ch=4 n=48 v=15
169032 On ch=4 n=48 v=0
169032 On ch=4 n=48 v=15
169040 On ch=4 n=48 v=0
169040 On ch=4 n=48 v=15
169048 On ch=4 n=48 v=0
169048 On ch=4 n=48 v=15
169056 On ch=4 n=48 v=0
169056 On ch=4 n=48 v=15
169064 On ch=4 n=48 v=0
169064 On ch=4 n=48 v=15
169072 On ch=4 n=48 v=0
169072 On ch=4 n=48 v=15
169080 On ch=4 n=48 v=0
169080 On ch=4 n=48 v=15
169088 On ch=4 n=48 v=0
169088 On ch=4 n=48 v=15
169096 On ch=4 n=48 v=0
169096 On ch=4 n=48 v=15
169104 On ch=4 n=48 v=0
169104 On ch=4 n=48 v=15
169112 On ch=4 n=48 v=0
169112 On ch=4 n=48 v=15
169120 On ch=4 n=48 v=0
169120 On ch=4 n=48 v=15
169128 On ch=4 n=48 v=0
169128 On ch=4 n=48 v=15
169136 On ch=4 n=48 v=0
169136 On ch=4 n=48 v=15
169144 On ch=4 n=48 v=0
169144 On ch=4 n=48 v=15
169152 On ch=4 n=48 v=0
169152 On ch=4 n=48 v=15
169160 On ch=4 n=48 v=0
169160 On ch=4 n=48 v=15
169168 On ch=4 n=48 v=0
169168 On ch=4 n=48 v=15
169176 On ch=4 n=48 v=0
169176 On ch=4 n=48 v=15
169184 On ch=4 n=48 v=0
169184 On ch=4 n=48 v=15
169192 On ch=4 n=48 v=0
169192 On ch=4 n=48 v=15
169200 On ch=4 n=48 v=0
169200 On ch=4 n=48 v=15
169208 On ch=4 n=48 v=0
169208 On ch=4 n=48 v=15
169216 On ch=4 n=48 v=0
169216 On ch=4 n=48 v=15
169224 On ch=4 n=48 v=0
169224 On ch=4 n=48 v=15
169232 On ch=4 n=48 v=0
169232 On ch=4 n=48 v=15
169240 On ch=4 n=48 v=0
169240 On ch=4 n=48 v=15
169248 On ch=4 n=48 v=0
169248 On ch=4 n=48 v=15
169256 On ch=4 n=48 v=0
169256 On ch=4 n=48 v=15
169264 On ch=4 n=48 v=0
169264 On ch=4 n=48 v=15
169272 On ch=4 n=48 v=0
169272 On ch=4 n=48 v=15
169280 On ch=4 n=48 v=0
169280 On ch=4 n=48 v=15
169288 On ch=4 n=48 v=0
169288 On ch=4 n=48 v=15
169296 On ch=4 n=48 v=0
169296 On ch=4 n=48 v=15
169304 On ch=4 n=48 v=0
169304 On ch=4 n=48 v=15
169312 On ch=4 n=48 v=0
169312 On ch=4 n=48 v=15
169320 On ch=4 n=48 v=0
169320 On ch=4 n=48 v=15
169328 On ch=4 n=48 v=0
169328 On ch=4 n=48 v=15
169336 On ch=4 n=48 v=0
169336 On ch=4 n=48 v=15
169344 On ch=4 n=48 v=0
170112 On ch=4 n=48 v=95
170150 On ch=4 n=48 v=0
170150 Meta TrkEnd
TrkEnd
MTrk
0 Meta 0x21 01
0 Meta TrkName "1ST VIOLIN"
192 Par ch=5 c=1 v=8
196 Par ch=5 c=7 v=127
200 Par ch=5 c=10 v=10
204 Par ch=5 c=11 v=64
208 Par ch=5 c=91 v=127
212 Par ch=5 c=93 v=64
216 Par ch=5 c=0 v=0
216 Par ch=5 c=32 v=0
216 PrCh ch=5 p=48
384 Par ch=5 c=11 v=64
384 Par ch=5 c=0 v=0
384 Par ch=5 c=32 v=0
384 PrCh ch=5 p=44
384 On ch=5 n=67 v=100
384 On ch=5 n=55 v=100
392 Par ch=5 c=11 v=63
400 Par ch=5 c=11 v=62
408 Par ch=5 c=11 v=61
416 Par ch=5 c=11 v=60
424 Par ch=5 c=11 v=59
432 Par ch=5 c=11 v=58
440 Par ch=5 c=11 v=57
448 Par ch=5 c=11 v=56
456 Par ch=5 c=11 v=55
464 Par ch=5 c=11 v=54
472 Par ch=5 c=11 v=53
480 Par ch=5 c=11 v=52
488 Par ch=5 c=11 v=51
496 Par ch=5 c=11 v=50
504 Par ch=5 c=11 v=49
512 Par ch=5 c=11 v=48
520 Par ch=5 c=11 v=47
528 Par ch=5 c=11 v=46
536 Par ch=5 c=11 v=45
544 Par ch=5 c=11 v=44
552 Par ch=5 c=11 v=43
560 Par ch=5 c=11 v=42
568 Par ch=5 c=11 v=41
576 Par ch=5 c=11 v=40
580 Par ch=5 c=11 v=39
588 Par ch=5 c=11 v=38
596 Par ch=5 c=11 v=37
604 Par ch=5 c=11 v=36
612 Par ch=5 c=11 v=35
620 Par ch=5 c=11 v=34
628 Par ch=5 c=11 v=33
636 Par ch=5 c=11 v=32
644 Par ch=5 c=11 v=31
652 Par ch=5 c=11 v=30
660 Par ch=5 c=11 v=29
668 Par ch=5 c=11 v=28
676 Par ch=5 c=11 v=27
684 Par ch=5 c=11 v=26
692 Par ch=5 c=11 v=25
700 Par ch=5 c=11 v=24
708 Par ch=5 c=11 v=23
716 Par ch=5 c=11 v=22
724 Par ch=5 c=11 v=21
732 Par ch=5 c=11 v=20
740 Par ch=5 c=11 v=19
748 Par ch=5 c=11 v=18
756 Par ch=5 c=11 v=17
764 Par ch=5 c=11 v=16
3763 On ch=5 n=55 v=0
3763 On ch=5 n=67 v=0
3840 Par ch=5 c=11 v=64
3840 On ch=5 n=67 v=47
3840 On ch=5 n=55 v=47
3878 On ch=5 n=55 v=0
3878 On ch=5 n=67 v=0
9216 Par ch=5 c=0 v=0
9216 Par ch=5 c=32 v=0
9216 PrCh ch=5 p=48
9504 On ch=5 n=72 v=47
9535 On ch=5 n=72 v=0
9600 On ch=5 n=79 v=47
9754 On ch=5 n=79 v=0
9792 On ch=5 n=86 v=47
9907 On ch=5 n=86 v=0
9936 On ch=5 n=84 v=47
9967 On ch=5 n=84 v=0
9984 On ch=5 n=79 v=47
10138 On ch=5 n=79 v=0
10176 On ch=5 n=86 v=47
10291 On ch=5 n=86 v=0
10320 On ch=5 n=84 v=47
10351 On ch=5 n=84 v=0
10368 On ch=5 n=79 v=47
10445 On ch=5 n=79 v=0
10848 Par ch=5 c=11 v=64
10848 On ch=5 n=79 v=47
10860 Par ch=5 c=11 v=65
10868 Par ch=5 c=11 v=66
10876 Par ch=5 c=11 v=67
10884 Par ch=5 c=11 v=68
10892 Par ch=5 c=11 v=69
10904 Par ch=5 c=11 v=70
10912 Par ch=5 c=11 v=71
10920 Par ch=5 c=11 v=72
10928 Par ch=5 c=11 v=73
10936 Par ch=5 c=11 v=74
10944 Par ch=5 c=11 v=75
10956 Par ch=5 c=11 v=76
10964 Par ch=5 c=11 v=77
10972 Par ch=5 c=11 v=78
10980 Par ch=5 c=11 v=79
10988 Par ch=5 c=11 v=80
11000 Par ch=5 c=11 v=81
11002 On ch=5 n=79 v=0
11008 Par ch=5 c=11 v=82
11016 Par ch=5 c=11 v=83
11024 Par ch=5 c=11 v=84
11032 Par ch=5 c=11 v=85
11040 Par ch=5 c=11 v=86
11040 On ch=5 n=77 v=47
11052 Par ch=5 c=11 v=87
11060 Par ch=5 c=11 v=88
11068 Par ch=5 c=11 v=89
11076 Par ch=5 c=11 v=90
11078 On ch=5 n=77 v=0
11084 Par ch=5 c=11 v=91
11088 On ch=5 n=75 v=47
11096 Par ch=5 c=11 v=92
11104 Par ch=5 c=11 v=93
11112 Par ch=5 c=11 v=94
11120 Par ch=5 c=11 v=95
11126 On ch=5 n=75 v=0
11128 Par ch=5 c=11 v=96
11136 Par ch=5 c=11 v=95
11136 On ch=5 n=74 v=47
11148 Par ch=5 c=11 v=94
11160 Par ch=5 c=11 v=93
11172 Par ch=5 c=11 v=92
11184 Par ch=5 c=11 v=91
11196 Par ch=5 c=11 v=90
11208 Par ch=5 c=11 v=89
11220 Par ch=5 c=11 v=88
11232 Par ch=5 c=11 v=87
11244 Par ch=5 c=11 v=86
11256 Par ch=5 c=11 v=85
11264 Par ch=5 c=11 v=84
11276 Par ch=5 c=11 v=83
11288 Par ch=5 c=11 v=82
11290 On ch=5 n=74 v=0
11300 Par ch=5 c=11 v=81
11312 Par ch=5 c=11 v=80
11324 Par ch=5 c=11 v=79
11328 On ch=5 n=77 v=47
11336 Par ch=5 c=11 v=78
11348 Par ch=5 c=11 v=77
11360 Par ch=5 c=11 v=76
11372 Par ch=5 c=11 v=75
11384 Par ch=5 c=11 v=74
11392 Par ch=5 c=11 v=73
11404 Par ch=5 c=11 v=72
11416 Par ch=5 c=11 v=71
11428 Par ch=5 c=11 v=70
11440 Par ch=5 c=11 v=69
11443 On ch=5 n=77 v=0
11452 Par ch=5 c=11 v=68
11464 Par ch=5 c=11 v=67
11472 On ch=5 n=75 v=47
11476 Par ch=5 c=11 v=66
11488 Par ch=5 c=11 v=65
11500 Par ch=5 c=11 v=64
11510 On ch=5 n=75 v=0
11520 Par ch=5 c=11 v=64
11520 On ch=5 n=74 v=47
11532 Par ch=5 c=11 v=65
11540 Par ch=5 c=11 v=66
11548 Par ch=5 c=11 v=67
11556 Par ch=5 c=11 v=68
11564 Par ch=5 c=11 v=69
11576 Par ch=5 c=11 v=70
11584 Par ch=5 c=11 v=71
11592 Par ch=5 c=11 v=72
11600 Par ch=5 c=11 v=73
11608 Par ch=5 c=11 v=74
11616 Par ch=5 c=11 v=75
11628 Par ch=5 c=11 v=76
11636 Par ch=5 c=11 v=77
11644 Par ch=5 c=11 v=78
11652 Par ch=5 c=11 v=79
11660 Par ch=5 c=11 v=80
11672 Par ch=5 c=11 v=81
11680 Par ch=5 c=11 v=82
11688 Par ch=5 c=11 v=83
11696 Par ch=5 c=11 v=84
11704 Par ch=5 c=11 v=85
11712 Par ch=5 c=11 v=86
11724 Par ch=5 c=11 v=87
11732 Par ch=5 c=11 v=88
11740 Par ch=5 c=11 v=89
11748 Par ch=5 c=11 v=90
11750 On ch=5 n=74 v=0
11756 Par ch=5 c=11 v=91
11768 Par ch=5 c=11 v=92
11776 Par ch=5 c=11 v=93
11784 Par ch=5 c=11 v=94
11792 Par ch=5 c=11 v=95
11800 Par ch=5 c=11 v=96
11808 Par ch=5 c=11 v=64
11808 On ch=5 n=80 v=95
11885 On ch=5 n=80 v=0
11904 On ch=5 n=79 v=95
11981 On ch=5 n=79 v=0
12000 On ch=5 n=74 v=95
12058 On ch=5 n=74 v=0
12072 On ch=5 n=75 v=95
12091 On ch=5 n=75 v=0
12096 On ch=5 n=77 v=95
12173 On ch=5 n=77 v=0
12192 On ch=5 n=80 v=95
12269 On ch=5 n=80 v=0
12288 On ch=5 n=79 v=95
12326 On ch=5 n=79 v=0
12384 On ch=5 n=87 v=95
12538 On ch=5 n=87 v=0
12576 On ch=5 n=86 v=95
12653 On ch=5 n=86 v=0
12672 On ch=5 n=84 v=95
12749 On ch=5 n=84 v=0
12768 On ch=5 n=75 v=95
12825 On ch=5 n=75 v=0
12840 On ch=5 n=77 v=95
12859 On ch=5 n=77 v=0
12864 On ch=5 n=79 v=95
12940 On ch=5 n=79 v=0
12960 On ch=5 n=82 v=95
13017 On ch=5 n=82 v=0
13032 On ch=5 n=80 v=95
13051 On ch=5 n=80 v=0
13056 On ch=5 n=79 v=95
13094 On ch=5 n=79 v=0
13152 On ch=5 n=72 v=95
13306 On ch=5 n=72 v=0
13344 On ch=5 n=74 v=95
13370 On ch=5 n=74 v=0
13376 On ch=5 n=75 v=95
13402 On ch=5 n=75 v=0
13408 On ch=5 n=77 v=95
13434 On ch=5 n=77 v=0
13440 On ch=5 n=79 v=95
13594 On ch=5 n=79 v=0
13632 Par ch=5 c=11 v=64
13632 On ch=5 n=76 v=95
13668 Par ch=5 c=11 v=65
13700 Par ch=5 c=11 v=66
13736 Par ch=5 c=11 v=67
13747 On ch=5 n=76 v=0
13768 Par ch=5 c=11 v=68
13776 On ch=5 n=77 v=95
13804 Par ch=5 c=11 v=69
13814 On ch=5 n=77 v=0
13824 On ch=5 n=80 v=95
13836 Par ch=5 c=11 v=70
13862 On ch=5 n=80 v=0
13872 Par ch=5 c=11 v=71
13904 Par ch=5 c=11 v=72
13920 On ch=5 n=79 v=95
13940 Par ch=5 c=11 v=73
13972 Par ch=5 c=11 v=74
13997 On ch=5 n=79 v=0
14008 Par ch=5 c=11 v=75
14040 Par ch=5 c=11 v=76
14076 Par ch=5 c=11 v=77
14080 On ch=5 n=72 v=95
14101 On ch=5 n=72 v=0
14108 Par ch=5 c=11 v=78
14112 On ch=5 n=79 v=95
14133 On ch=5 n=79 v=0
14144 Par ch=5 c=11 v=79
14144 On ch=5 n=82 v=95
14165 On ch=5 n=82 v=0
14176 Par ch=5 c=11 v=80
14176 On ch=5 n=85 v=95
14197 On ch=5 n=85 v=0
14208 Par ch=5 c=11 v=64
14208 On ch=5 n=84 v=111
14239 On ch=5 n=84 v=0
14280 On ch=5 n=82 v=111
14296 On ch=5 n=82 v=0
14304 On ch=5 n=80 v=111
14335 On ch=5 n=80 v=0
14376 On ch=5 n=79 v=111
14392 On ch=5 n=79 v=0
14400 On ch=5 n=77 v=111
14431 On ch=5 n=77 v=0
14472 On ch=5 n=75 v=111
14488 On ch=5 n=75 v=0
14496 On ch=5 n=73 v=111
14527 On ch=5 n=73 v=0
14568 On ch=5 n=72 v=111
14584 On ch=5 n=72 v=0
14592 On ch=5 n=80 v=111
14623 On ch=5 n=80 v=0
14664 On ch=5 n=79 v=111
14680 On ch=5 n=79 v=0
14688 On ch=5 n=77 v=111
14719 On ch=5 n=77 v=0
14760 On ch=5 n=75 v=111
14776 On ch=5 n=75 v=0
14784 On ch=5 n=73 v=111
14815 On ch=5 n=73 v=0
14856 On ch=5 n=72 v=111
14872 On ch=5 n=72 v=0
14880 On ch=5 n=70 v=111
14911 On ch=5 n=70 v=0
14952 On ch=5 n=68 v=111
14968 On ch=5 n=68 v=0
14976 On ch=5 n=67 v=111
15130 On ch=5 n=67 v=0
15168 On ch=5 n=66 v=127
15245 On ch=5 n=66 v=0
15264 On ch=5 n=65 v=127
15341 On ch=5 n=65 v=0
15360 On ch=5 n=64 v=127
15398 On ch=5 n=64 v=0
15456 On ch=5 n=63 v=127
15610 On ch=5 n=63 v=0
15648 On ch=5 n=62 v=127
15725 On ch=5 n=62 v=0
15744 On ch=5 n=60 v=127
15782 On ch=5 n=60 v=0
16512 Par ch=5 c=11 v=64
16512 Par ch=5 c=0 v=0
16512 Par ch=5 c=32 v=0
16512 PrCh ch=5 p=44
16512 On ch=5 n=55 v=111
16512 On ch=5 n=63 v=111
16524 Par ch=5 c=11 v=63
16536 Par ch=5 c=11 v=62
16548 Par ch=5 c=11 v=61
16560 Par ch=5 c=11 v=60
16572 Par ch=5 c=11 v=59
16580 Par ch=5 c=11 v=58
16592 Par ch=5 c=11 v=57
16604 Par ch=5 c=11 v=56
16616 Par ch=5 c=11 v=55
16628 Par ch=5 c=11 v=54
16640 Par ch=5 c=11 v=53
16648 Par ch=5 c=11 v=52
16660 Par ch=5 c=11 v=51
16672 Par ch=5 c=11 v=50
16684 Par ch=5 c=11 v=49
16696 Par ch=5 c=11 v=48
16704 Par ch=5 c=11 v=47
16716 Par ch=5 c=11 v=46
16728 Par ch=5 c=11 v=45
16740 Par ch=5 c=11 v=44
16752 Par ch=5 c=11 v=43
16764 Par ch=5 c=11 v=42
16772 Par ch=5 c=11 v=41
16784 Par ch=5 c=11 v=40
16796 Par ch=5 c=11 v=39
16808 Par ch=5 c=11 v=38
16820 Par ch=5 c=11 v=37
16832 Par ch=5 c=11 v=36
16840 Par ch=5 c=11 v=35
16852 Par ch=5 c=11 v=34
16864 Par ch=5 c=11 v=33
16876 Par ch=5 c=11 v=32
17587 On ch=5 n=63 v=0
17587 On ch=5 n=55 v=0
17664 Par ch=5 c=11 v=64
18432 Par ch=5 c=0 v=0
18432 Par ch=5 c=32 v=0
18432 PrCh ch=5 p=48
18432 On ch=5 n=71 v=31
18586 On ch=5 n=71 v=0
18624 On ch=5 n=76 v=31
18701 On ch=5 n=76 v=0
18720 On ch=5 n=78 v=31
18797 On ch=5 n=78 v=0
18816 On ch=5 n=80 v=31
18893 On ch=5 n=80 v=0
18912 On ch=5 n=81 v=31
18989 On ch=5 n=81 v=0
19008 On ch=5 n=83 v=31
19085 On ch=5 n=83 v=0
19104 On ch=5 n=85 v=31
19152 On ch=5 n=85 v=0
19152 On ch=5 n=87 v=31
19190 On ch=5 n=87 v=0
19200 Par ch=5 c=11 v=64
19200 On ch=5 n=90 v=31
19204 Par ch=5 c=11 v=65
19208 Par ch=5 c=11 v=66
19212 Par ch=5 c=11 v=68
19216 Par ch=5 c=11 v=69
19220 Par ch=5 c=11 v=71
19224 Par ch=5 c=11 v=72
19228 Par ch=5 c=11 v=73
19232 Par ch=5 c=11 v=75
19236 Par ch=5 c=11 v=76
19240 Par ch=5 c=11 v=78
19244 Par ch=5 c=11 v=79
19248 Par ch=5 c=11 v=79
19252 Par ch=5 c=11 v=78
19256 Par ch=5 c=11 v=77
19260 Par ch=5 c=11 v=76
19264 Par ch=5 c=11 v=74
19268 Par ch=5 c=11 v=73
19272 Par ch=5 c=11 v=72
19276 Par ch=5 c=11 v=71
19277 On ch=5 n=90 v=0
19280 Par ch=5 c=11 v=69
19284 Par ch=5 c=11 v=68
19288 Par ch=5 c=11 v=67
19292 Par ch=5 c=11 v=66
19296 Par ch=5 c=11 v=64
19296 On ch=5 n=88 v=31
19450 On ch=5 n=88 v=0
19488 Par ch=5 c=11 v=64
19488 On ch=5 n=87 v=31
19496 Par ch=5 c=11 v=65
19500 Par ch=5 c=11 v=66
19508 Par ch=5 c=11 v=67
19512 Par ch=5 c=11 v=68
19520 Par ch=5 c=11 v=69
19524 Par ch=5 c=11 v=70
19528 Par ch=5 c=11 v=71
19536 On ch=5 n=87 v=0
19536 Par ch=5 c=11 v=72
19536 On ch=5 n=88 v=31
19540 Par ch=5 c=11 v=73
19548 Par ch=5 c=11 v=74
19552 Par ch=5 c=11 v=75
19556 Par ch=5 c=11 v=76
19564 Par ch=5 c=11 v=77
19568 Par ch=5 c=11 v=78
19574 On ch=5 n=88 v=0
19576 Par ch=5 c=11 v=79
19580 Par ch=5 c=11 v=80
19584 Par ch=5 c=11 v=80
19584 On ch=5 n=90 v=31
19608 Par ch=5 c=11 v=79
19628 Par ch=5 c=11 v=78
19632 On ch=5 n=90 v=0
19632 On ch=5 n=88 v=31
19648 Par ch=5 c=11 v=77
19670 On ch=5 n=88 v=0
19672 Par ch=5 c=11 v=76
19680 On ch=5 n=87 v=31
19692 Par ch=5 c=11 v=75
19712 Par ch=5 c=11 v=74
19728 On ch=5 n=87 v=0
19728 On ch=5 n=88 v=31
19736 Par ch=5 c=11 v=73
19756 Par ch=5 c=11 v=72
19766 On ch=5 n=88 v=0
19776 Par ch=5 c=11 v=71
19776 On ch=5 n=87 v=31
19800 Par ch=5 c=11 v=70
19820 Par ch=5 c=11 v=69
19824 On ch=5 n=87 v=0
19824 On ch=5 n=85 v=31
19840 Par ch=5 c=11 v=68
19862 On ch=5 n=85 v=0
19864 Par ch=5 c=11 v=67
19872 On ch=5 n=84 v=31
19884 Par ch=5 c=11 v=66
19904 Par ch=5 c=11 v=65
19920 On ch=5 n=84 v=0
19920 On ch=5 n=85 v=31
19928 Par ch=5 c=11 v=64
19958 On ch=5 n=85 v=0
19968 On ch=5 n=83 v=31
20064 On ch=5 n=83 v=0
20064 On ch=5 n=82 v=31
20218 On ch=5 n=82 v=0
20256 Par ch=5 c=11 v=64
20256 On ch=5 n=80 v=31
20264 Par ch=5 c=11 v=65
20268 Par ch=5 c=11 v=66
20276 Par ch=5 c=11 v=67
20280 Par ch=5 c=11 v=68
20288 Par ch=5 c=11 v=69
20292 Par ch=5 c=11 v=70
20296 Par ch=5 c=11 v=71
20304 On ch=5 n=80 v=0
20304 Par ch=5 c=11 v=72
20304 On ch=5 n=82 v=31
20308 Par ch=5 c=11 v=73
20316 Par ch=5 c=11 v=74
20320 Par ch=5 c=11 v=75
20324 Par ch=5 c=11 v=76
20332 Par ch=5 c=11 v=77
20336 Par ch=5 c=11 v=78
20342 On ch=5 n=82 v=0
20344 Par ch=5 c=11 v=79
20348 Par ch=5 c=11 v=80
20352 Par ch=5 c=11 v=80
20352 On ch=5 n=80 v=31
20360 Par ch=5 c=11 v=79
20364 Par ch=5 c=11 v=78
20372 Par ch=5 c=11 v=77
20376 Par ch=5 c=11 v=76
20384 Par ch=5 c=11 v=75
20388 Par ch=5 c=11 v=74
20396 Par ch=5 c=11 v=73
20400 Par ch=5 c=11 v=72
20408 Par ch=5 c=11 v=71
20412 Par ch=5 c=11 v=70
20420 Par ch=5 c=11 v=69
20424 Par ch=5 c=11 v=68
20432 Par ch=5 c=11 v=67
20436 Par ch=5 c=11 v=66
20444 Par ch=5 c=11 v=65
20448 On ch=5 n=80 v=0
20448 Par ch=5 c=11 v=64
20448 On ch=5 n=78 v=31
20602 On ch=5 n=78 v=0
20640 Par ch=5 c=11 v=64
20640 On ch=5 n=88 v=31
20648 Par ch=5 c=11 v=65
20652 Par ch=5 c=11 v=66
20660 Par ch=5 c=11 v=67
20664 Par ch=5 c=11 v=68
20672 Par ch=5 c=11 v=69
20676 Par ch=5 c=11 v=70
20680 Par ch=5 c=11 v=71
20688 On ch=5 n=88 v=0
20688 Par ch=5 c=11 v=72
20688 On ch=5 n=87 v=31
20692 Par ch=5 c=11 v=73
20700 Par ch=5 c=11 v=74
20704 Par ch=5 c=11 v=75
20708 Par ch=5 c=11 v=76
20716 Par ch=5 c=11 v=77
20720 Par ch=5 c=11 v=78
20726 On ch=5 n=87 v=0
20728 Par ch=5 c=11 v=79
20732 Par ch=5 c=11 v=80
20736 Par ch=5 c=11 v=80
20736 On ch=5 n=87 v=31
20752 Par ch=5 c=11 v=79
20768 Par ch=5 c=11 v=78
20784 Par ch=5 c=11 v=77
20800 Par ch=5 c=11 v=76
20816 Par ch=5 c=11 v=75
20832 On ch=5 n=87 v=0
20832 Par ch=5 c=11 v=74
20832 On ch=5 n=85 v=31
20848 Par ch=5 c=11 v=73
20864 Par ch=5 c=11 v=72
20880 Par ch=5 c=11 v=71
20896 Par ch=5 c=11 v=70
20912 Par ch=5 c=11 v=69
20928 Par ch=5 c=11 v=68
20944 Par ch=5 c=11 v=67
20960 Par ch=5 c=11 v=66
20976 Par ch=5 c=11 v=65
20986 On ch=5 n=85 v=0
20992 Par ch=5 c=11 v=64
21024 On ch=5 n=84 v=31
21072 On ch=5 n=84 v=0
21072 On ch=5 n=85 v=31
21110 On ch=5 n=85 v=0
21120 Par ch=5 c=11 v=64
21120 On ch=5 n=84 v=31
21144 Par ch=5 c=11 v=65
21168 On ch=5 n=84 v=0
21168 Par ch=5 c=11 v=66
21168 On ch=5 n=85 v=31
21188 Par ch=5 c=11 v=67
21212 Par ch=5 c=11 v=68
21236 Par ch=5 c=11 v=69
21245 On ch=5 n=85 v=0
21256 Par ch=5 c=11 v=70
21264 On ch=5 n=87 v=31
21280 Par ch=5 c=11 v=71
21304 Par ch=5 c=11 v=72
21324 Par ch=5 c=11 v=73
21341 On ch=5 n=87 v=0
21348 Par ch=5 c=11 v=74
21360 On ch=5 n=88 v=31
21372 Par ch=5 c=11 v=75
21392 Par ch=5 c=11 v=76
21408 On ch=5 n=88 v=0
21408 On ch=5 n=92 v=31
21416 Par ch=5 c=11 v=77
21440 Par ch=5 c=11 v=78
21456 On ch=5 n=92 v=0
21456 On ch=5 n=90 v=31
21460 Par ch=5 c=11 v=79
21484 Par ch=5 c=11 v=80
21494 On ch=5 n=90 v=0
21504 Par ch=5 c=11 v=80
21504 On ch=5 n=87 v=31
21516 Par ch=5 c=11 v=81
21524 Par ch=5 c=11 v=82
21532 Par ch=5 c=11 v=83
21540 Par ch=5 c=11 v=84
21548 Par ch=5 c=11 v=85
21556 Par ch=5 c=11 v=86
21564 Par ch=5 c=11 v=87
21572 Par ch=5 c=11 v=88
21584 Par ch=5 c=11 v=89
21592 Par ch=5 c=11 v=90
21600 Par ch=5 c=11 v=91
21608 Par ch=5 c=11 v=92
21616 Par ch=5 c=11 v=93
21624 Par ch=5 c=11 v=94
21632 Par ch=5 c=11 v=95
21640 Par ch=5 c=11 v=96
21648 Par ch=5 c=11 v=95
21656 Par ch=5 c=11 v=94
21660 Par ch=5 c=11 v=93
21664 Par ch=5 c=11 v=92
21668 Par ch=5 c=11 v=91
21672 Par ch=5 c=11 v=90
21676 Par ch=5 c=11 v=89
21684 Par ch=5 c=11 v=88
21688 Par ch=5 c=11 v=87
21692 Par ch=5 c=11 v=86
21696 On ch=5 n=87 v=0
21696 Par ch=5 c=11 v=85
21696 On ch=5 n=78 v=31
21700 Par ch=5 c=11 v=84
21704 Par ch=5 c=11 v=83
21712 Par ch=5 c=11 v=82
21716 Par ch=5 c=11 v=81
21720 Par ch=5 c=11 v=80
21724 Par ch=5 c=11 v=79
21728 Par ch=5 c=11 v=78
21732 Par ch=5 c=11 v=77
21740 Par ch=5 c=11 v=76
21744 Par ch=5 c=11 v=75
21748 Par ch=5 c=11 v=74
21752 Par ch=5 c=11 v=73
21756 Par ch=5 c=11 v=72
21760 Par ch=5 c=11 v=71
21768 Par ch=5 c=11 v=70
21772 Par ch=5 c=11 v=69
21773 On ch=5 n=78 v=0
21776 Par ch=5 c=11 v=68
21780 Par ch=5 c=11 v=67
21784 Par ch=5 c=11 v=66
21788 Par ch=5 c=11 v=65
21792 Par ch=5 c=11 v=64
21792 On ch=5 n=90 v=31
21864 On ch=5 n=90 v=0
21864 On ch=5 n=89 v=31
21880 On ch=5 n=89 v=0
21888 Par ch=5 c=11 v=64
21888 On ch=5 n=89 v=31
21892 Par ch=5 c=11 v=65
21896 Par ch=5 c=11 v=66
21900 Par ch=5 c=11 v=68
21904 Par ch=5 c=11 v=69
21908 Par ch=5 c=11 v=71
21912 Par ch=5 c=11 v=72
21916 Par ch=5 c=11 v=73
21920 Par ch=5 c=11 v=75
21924 Par ch=5 c=11 v=76
21928 Par ch=5 c=11 v=78
21932 Par ch=5 c=11 v=79
21936 Par ch=5 c=11 v=80
21940 Par ch=5 c=11 v=79
21944 Par ch=5 c=11 v=78
21948 Par ch=5 c=11 v=76
21952 Par ch=5 c=11 v=75
21956 Par ch=5 c=11 v=74
21960 Par ch=5 c=11 v=72
21964 Par ch=5 c=11 v=71
21968 Par ch=5 c=11 v=70
21972 Par ch=5 c=11 v=68
21976 Par ch=5 c=11 v=67
21980 Par ch=5 c=11 v=66
21984 On ch=5 n=89 v=0
21984 Par ch=5 c=11 v=64
21984 On ch=5 n=87 v=31
22138 On ch=5 n=87 v=0
22176 Par ch=5 c=11 v=64
22176 On ch=5 n=90 v=31
22184 Par ch=5 c=11 v=63
22188 Par ch=5 c=11 v=62
22196 Par ch=5 c=11 v=61
22200 Par ch=5 c=11 v=60
22208 Par ch=5 c=11 v=59
22212 Par ch=5 c=11 v=58
22216 Par ch=5 c=11 v=57
22224 Par ch=5 c=11 v=56
22228 Par ch=5 c=11 v=55
22236 Par ch=5 c=11 v=54
22240 Par ch=5 c=11 v=53
22244 Par ch=5 c=11 v=52
22248 On ch=5 n=90 v=0
22248 On ch=5 n=89 v=31
22252 Par ch=5 c=11 v=51
22256 Par ch=5 c=11 v=50
22264 On ch=5 n=89 v=0
22264 Par ch=5 c=11 v=49
22268 Par ch=5 c=11 v=48
22272 On ch=5 n=89 v=31
22320 On ch=5 n=89 v=0
22320 On ch=5 n=87 v=31
22358 On ch=5 n=87 v=0
22368 On ch=5 n=90 v=31
22416 On ch=5 n=90 v=0
22416 On ch=5 n=89 v=31
22454 On ch=5 n=89 v=0
22464 Par ch=5 c=11 v=48
22464 On ch=5 n=89 v=31
22468 Par ch=5 c=11 v=49
22472 Par ch=5 c=11 v=50
22476 Par ch=5 c=11 v=52
22480 Par ch=5 c=11 v=53
22484 Par ch=5 c=11 v=54
22488 Par ch=5 c=11 v=56
22492 Par ch=5 c=11 v=57
22496 Par ch=5 c=11 v=58
22500 Par ch=5 c=11 v=60
22504 Par ch=5 c=11 v=61
22508 Par ch=5 c=11 v=62
22512 On ch=5 n=89 v=0
22512 Par ch=5 c=11 v=64
22512 On ch=5 n=87 v=31
22516 Par ch=5 c=11 v=65
22520 Par ch=5 c=11 v=66
22524 Par ch=5 c=11 v=68
22528 Par ch=5 c=11 v=69
22532 Par ch=5 c=11 v=71
22536 Par ch=5 c=11 v=72
22540 Par ch=5 c=11 v=73
22544 Par ch=5 c=11 v=75
22548 Par ch=5 c=11 v=76
22550 On ch=5 n=87 v=0
22552 Par ch=5 c=11 v=77
22556 Par ch=5 c=11 v=79
22560 Par ch=5 c=11 v=80
22560 On ch=5 n=86 v=31
22564 Par ch=5 c=11 v=81
22568 Par ch=5 c=11 v=83
22572 Par ch=5 c=11 v=84
22576 Par ch=5 c=11 v=85
22580 Par ch=5 c=11 v=87
22584 Par ch=5 c=11 v=88
22588 Par ch=5 c=11 v=89
22592 Par ch=5 c=11 v=91
22596 Par ch=5 c=11 v=92
22600 Par ch=5 c=11 v=94
22604 Par ch=5 c=11 v=95
22608 On ch=5 n=86 v=0
22608 Par ch=5 c=11 v=96
22608 On ch=5 n=87 v=31
22612 Par ch=5 c=11 v=98
22616 Par ch=5 c=11 v=99
22620 Par ch=5 c=11 v=100
22624 Par ch=5 c=11 v=102
22628 Par ch=5 c=11 v=103
22632 Par ch=5 c=11 v=104
22636 Par ch=5 c=11 v=106
22640 Par ch=5 c=11 v=107
22644 Par ch=5 c=11 v=108
22646 On ch=5 n=87 v=0
22648 Par ch=5 c=11 v=110
22652 Par ch=5 c=11 v=111
22656 Par ch=5 c=11 v=64
22656 On ch=5 n=99 v=111
22664 Par ch=5 c=11 v=63
22668 Par ch=5 c=11 v=62
22676 Par ch=5 c=11 v=61
22680 Par ch=5 c=11 v=60
22688 Par ch=5 c=11 v=59
22692 Par ch=5 c=11 v=58
22700 Par ch=5 c=11 v=57
22704 Par ch=5 c=11 v=56
22712 Par ch=5 c=11 v=55
22716 Par ch=5 c=11 v=54
22724 Par ch=5 c=11 v=53
22728 Par ch=5 c=11 v=52
22736 Par ch=5 c=11 v=51
22740 Par ch=5 c=11 v=50
22748 Par ch=5 c=11 v=49
22752 On ch=5 n=99 v=0
22752 Par ch=5 c=11 v=48
22752 On ch=5 n=94 v=111
22906 On ch=5 n=94 v=0
22944 Par ch=5 c=11 v=48
22944 On ch=5 n=95 v=111
22952 Par ch=5 c=11 v=49
22956 Par ch=5 c=11 v=50
22964 Par ch=5 c=11 v=51
22968 Par ch=5 c=11 v=52
22976 Par ch=5 c=11 v=53
22980 Par ch=5 c=11 v=54
22984 Par ch=5 c=11 v=55
22992 Par ch=5 c=11 v=56
22996 Par ch=5 c=11 v=57
23004 Par ch=5 c=11 v=58
23008 Par ch=5 c=11 v=59
23012 Par ch=5 c=11 v=60
23020 Par ch=5 c=11 v=61
23024 Par ch=5 c=11 v=62
23032 Par ch=5 c=11 v=63
23036 Par ch=5 c=11 v=64
23040 Par ch=5 c=11 v=64
23048 Par ch=5 c=11 v=63
23052 Par ch=5 c=11 v=62
23060 Par ch=5 c=11 v=61
23064 Par ch=5 c=11 v=60
23072 Par ch=5 c=11 v=59
23076 Par ch=5 c=11 v=58
23080 Par ch=5 c=11 v=57
23088 Par ch=5 c=11 v=56
23092 Par ch=5 c=11 v=55
23100 Par ch=5 c=11 v=54
23104 Par ch=5 c=11 v=53
23108 Par ch=5 c=11 v=52
23116 Par ch=5 c=11 v=51
23117 On ch=5 n=95 v=0
23120 Par ch=5 c=11 v=50
23128 Par ch=5 c=11 v=49
23132 Par ch=5 c=11 v=48
23136 On ch=5 n=94 v=111
23290 On ch=5 n=94 v=0
23328 Par ch=5 c=11 v=48
23328 On ch=5 n=92 v=111
23344 Par ch=5 c=11 v=49
23360 Par ch=5 c=11 v=50
23366 On ch=5 n=92 v=0
23372 Par ch=5 c=11 v=51
23376 On ch=5 n=91 v=111
23388 Par ch=5 c=11 v=52
23404 Par ch=5 c=11 v=53
23414 On ch=5 n=91 v=0
23416 Par ch=5 c=11 v=54
23424 On ch=5 n=94 v=111
23432 Par ch=5 c=11 v=55
23448 Par ch=5 c=11 v=56
23460 Par ch=5 c=11 v=57
23472 On ch=5 n=94 v=0
23472 On ch=5 n=92 v=111
23476 Par ch=5 c=11 v=58
23488 Par ch=5 c=11 v=59
23504 Par ch=5 c=11 v=60
23520 Par ch=5 c=11 v=61
23532 Par ch=5 c=11 v=62
23548 Par ch=5 c=11 v=63
23549 On ch=5 n=92 v=0
23564 Par ch=5 c=11 v=64
23568 On ch=5 n=90 v=111
23576 Par ch=5 c=11 v=65
23592 Par ch=5 c=11 v=66
23608 Par ch=5 c=11 v=67
23620 Par ch=5 c=11 v=68
23636 Par ch=5 c=11 v=69
23645 On ch=5 n=90 v=0
23648 Par ch=5 c=11 v=70
23664 Par ch=5 c=11 v=71
23664 On ch=5 n=89 v=111
23680 Par ch=5 c=11 v=72
23692 Par ch=5 c=11 v=73
23708 Par ch=5 c=11 v=74
23712 On ch=5 n=89 v=0
23712 On ch=5 n=92 v=111
23724 Par ch=5 c=11 v=75
23736 Par ch=5 c=11 v=76
23752 Par ch=5 c=11 v=77
23760 On ch=5 n=92 v=0
23760 On ch=5 n=86 v=111
23768 Par ch=5 c=11 v=78
23780 Par ch=5 c=11 v=79
23796 Par ch=5 c=11 v=80
23798 On ch=5 n=86 v=0
23808 Par ch=5 c=11 v=64
23808 On ch=5 n=87 v=127
23923 On ch=5 n=87 v=0
24000 Par ch=5 c=11 v=64
24000 Par ch=5 c=0 v=0
24000 Par ch=5 c=32 v=0
24000 PrCh ch=5 p=44
24000 On ch=5 n=55 v=111
24000 On ch=5 n=67 v=111
24004 Par ch=5 c=11 v=63
24008 Par ch=5 c=11 v=62
24012 Par ch=5 c=11 v=61
24016 Par ch=5 c=11 v=60
24020 Par ch=5 c=11 v=59
24024 Par ch=5 c=11 v=58
24028 Par ch=5 c=11 v=57
24032 Par ch=5 c=11 v=56
24036 Par ch=5 c=11 v=55
24040 Par ch=5 c=11 v=54
24044 Par ch=5 c=11 v=53
24048 Par ch=5 c=11 v=52
24052 Par ch=5 c=11 v=51
24056 Par ch=5 c=11 v=50
24060 Par ch=5 c=11 v=49
24064 Par ch=5 c=11 v=48
24068 Par ch=5 c=11 v=47
24072 Par ch=5 c=11 v=46
24076 Par ch=5 c=11 v=45
24080 Par ch=5 c=11 v=44
24084 Par ch=5 c=11 v=43
24088 Par ch=5 c=11 v=42
24092 Par ch=5 c=11 v=41
24096 Par ch=5 c=11 v=40
24100 Par ch=5 c=11 v=39
24104 Par ch=5 c=11 v=38
24108 Par ch=5 c=11 v=37
24112 Par ch=5 c=11 v=36
24116 Par ch=5 c=11 v=35
24120 Par ch=5 c=11 v=34
24124 Par ch=5 c=11 v=33
24128 Par ch=5 c=11 v=32
24132 Par ch=5 c=11 v=31
24136 Par ch=5 c=11 v=30
24140 Par ch=5 c=11 v=29
24144 Par ch=5 c=11 v=28
24148 Par ch=5 c=11 v=27
24152 On ch=5 n=67 v=0
24152 On ch=5 n=55 v=0
24152 Par ch=5 c=11 v=26
24156 Par ch=5 c=11 v=25
24160 Par ch=5 c=11 v=24
24164 Par ch=5 c=11 v=23
24168 Par ch=5 c=11 v=22
24172 Par ch=5 c=11 v=21
24176 Par ch=5 c=11 v=20
24180 Par ch=5 c=11 v=19
24184 Par ch=5 c=11 v=18
24188 Par ch=5 c=11 v=17
24384 Par ch=5 c=0 v=0
24384 Par ch=5 c=32 v=0
24384 PrCh ch=5 p=48
24384 Par ch=5 c=11 v=64
26880 On ch=5 n=72 v=111
26911 On ch=5 n=72 v=0
26952 On ch=5 n=67 v=95
26968 On ch=5 n=67 v=0
26976 On ch=5 n=60 v=95
27007 On ch=5 n=60 v=0
27264 On ch=5 n=75 v=127
27295 On ch=5 n=75 v=0
27336 On ch=5 n=72 v=111
27352 On ch=5 n=72 v=0
27360 On ch=5 n=60 v=95
27391 On ch=5 n=60 v=0
27520 Par ch=5 c=11 v=64
27520 On ch=5 n=63 v=79
27528 Par ch=5 c=11 v=65
27536 Par ch=5 c=11 v=66
27541 On ch=5 n=63 v=0
27544 Par ch=5 c=11 v=67
27552 Par ch=5 c=11 v=68
27552 On ch=5 n=67 v=79
27560 Par ch=5 c=11 v=69
27568 Par ch=5 c=11 v=70
27573 On ch=5 n=67 v=0
27576 Par ch=5 c=11 v=71
27584 Par ch=5 c=11 v=72
27584 On ch=5 n=72 v=79
27588 Par ch=5 c=11 v=73
27596 Par ch=5 c=11 v=74
27604 Par ch=5 c=11 v=75
27605 On ch=5 n=72 v=0
27612 Par ch=5 c=11 v=76
27616 On ch=5 n=75 v=79
27620 Par ch=5 c=11 v=77
27628 Par ch=5 c=11 v=78
27636 Par ch=5 c=11 v=79
27637 On ch=5 n=75 v=0
27644 Par ch=5 c=11 v=80
27648 Par ch=5 c=11 v=64
27648 On ch=5 n=79 v=95
27744 On ch=5 n=79 v=0
27744 On ch=5 n=78 v=95
27782 On ch=5 n=78 v=0
27816 On ch=5 n=79 v=95
27835 On ch=5 n=79 v=0
27840 On ch=5 n=79 v=95
27916 On ch=5 n=79 v=0
27936 Par ch=5 c=11 v=64
27936 On ch=5 n=72 v=95
27962 On ch=5 n=72 v=0
27968 Par ch=5 c=11 v=65
27968 On ch=5 n=74 v=95
27994 On ch=5 n=74 v=0
27996 Par ch=5 c=11 v=66
28000 On ch=5 n=75 v=95
28024 Par ch=5 c=11 v=67
28026 On ch=5 n=75 v=0
28032 On ch=5 n=79 v=95
28052 Par ch=5 c=11 v=68
28080 Par ch=5 c=11 v=69
28108 Par ch=5 c=11 v=70
28128 On ch=5 n=79 v=0
28128 On ch=5 n=78 v=95
28136 Par ch=5 c=11 v=71
28154 On ch=5 n=78 v=0
28160 On ch=5 n=79 v=95
28164 Par ch=5 c=11 v=72
28186 On ch=5 n=79 v=0
28192 Par ch=5 c=11 v=73
28192 On ch=5 n=80 v=95
28218 On ch=5 n=80 v=0
28220 Par ch=5 c=11 v=74
28224 On ch=5 n=79 v=95
28248 Par ch=5 c=11 v=75
28276 Par ch=5 c=11 v=76
28301 On ch=5 n=79 v=0
28304 Par ch=5 c=11 v=77
28320 On ch=5 n=83 v=95
28332 Par ch=5 c=11 v=78
28346 On ch=5 n=83 v=0
28352 On ch=5 n=84 v=95
28360 Par ch=5 c=11 v=79
28378 On ch=5 n=84 v=0
28384 On ch=5 n=86 v=95
28388 Par ch=5 c=11 v=80
28410 On ch=5 n=86 v=0
28416 Par ch=5 c=11 v=64
28416 On ch=5 n=87 v=111
28454 On ch=5 n=87 v=0
29664 Par ch=5 c=11 v=64
29664 On ch=5 n=63 v=31
29664 On ch=5 n=75 v=31
29672 Par ch=5 c=11 v=65
29676 Par ch=5 c=11 v=66
29680 Par ch=5 c=11 v=67
29684 Par ch=5 c=11 v=68
29685 On ch=5 n=75 v=0
29685 On ch=5 n=63 v=0
29688 Par ch=5 c=11 v=69
29692 Par ch=5 c=11 v=70
29696 Par ch=5 c=11 v=71
29696 On ch=5 n=60 v=31
29696 On ch=5 n=72 v=31
29704 Par ch=5 c=11 v=72
29708 Par ch=5 c=11 v=73
29712 Par ch=5 c=11 v=74
29716 Par ch=5 c=11 v=75
29717 On ch=5 n=72 v=0
29717 On ch=5 n=60 v=0
29720 Par ch=5 c=11 v=76
29724 Par ch=5 c=11 v=77
29728 Par ch=5 c=11 v=78
29728 On ch=5 n=63 v=31
29728 On ch=5 n=75 v=31
29736 Par ch=5 c=11 v=79
29740 Par ch=5 c=11 v=80
29744 Par ch=5 c=11 v=81
29748 Par ch=5 c=11 v=82
29749 On ch=5 n=75 v=0
29749 On ch=5 n=63 v=0
29752 Par ch=5 c=11 v=83
29756 Par ch=5 c=11 v=84
29760 Par ch=5 c=11 v=85
29760 On ch=5 n=68 v=31
29760 On ch=5 n=80 v=31
29768 Par ch=5 c=11 v=86
29772 Par ch=5 c=11 v=87
29776 Par ch=5 c=11 v=88
29780 Par ch=5 c=11 v=89
29784 Par ch=5 c=11 v=90
29788 Par ch=5 c=11 v=91
29792 Par ch=5 c=11 v=92
29800 Par ch=5 c=11 v=93
29804 Par ch=5 c=11 v=94
29808 Par ch=5 c=11 v=95
29812 Par ch=5 c=11 v=96
29816 Par ch=5 c=11 v=97
29820 Par ch=5 c=11 v=98
29824 Par ch=5 c=11 v=99
29832 Par ch=5 c=11 v=100
29836 Par ch=5 c=11 v=101
29837 On ch=5 n=80 v=0
29837 On ch=5 n=68 v=0
29840 Par ch=5 c=11 v=102
29844 Par ch=5 c=11 v=103
29848 Par ch=5 c=11 v=104
29852 Par ch=5 c=11 v=105
29856 Par ch=5 c=11 v=106
29856 On ch=5 n=70 v=31
29856 On ch=5 n=82 v=31
29864 Par ch=5 c=11 v=107
29868 Par ch=5 c=11 v=108
29872 Par ch=5 c=11 v=109
29876 Par ch=5 c=11 v=110
29877 On ch=5 n=82 v=0
29877 On ch=5 n=70 v=0
29880 Par ch=5 c=11 v=111
29884 Par ch=5 c=11 v=112
29888 Par ch=5 c=11 v=113
29888 On ch=5 n=68 v=31
29888 On ch=5 n=80 v=31
29896 Par ch=5 c=11 v=114
29900 Par ch=5 c=11 v=115
29904 Par ch=5 c=11 v=116
29908 Par ch=5 c=11 v=117
29909 On ch=5 n=80 v=0
29909 On ch=5 n=68 v=0
29912 Par ch=5 c=11 v=118
29916 Par ch=5 c=11 v=119
29920 Par ch=5 c=11 v=120
29920 On ch=5 n=70 v=31
29920 On ch=5 n=82 v=31
29928 Par ch=5 c=11 v=121
29932 Par ch=5 c=11 v=122
29936 Par ch=5 c=11 v=123
29940 Par ch=5 c=11 v=124
29941 On ch=5 n=82 v=0
29941 On ch=5 n=70 v=0
29944 Par ch=5 c=11 v=125
29948 Par ch=5 c=11 v=126
29952 On ch=5 n=84 v=31
29952 On ch=5 n=72 v=31
29990 On ch=5 n=72 v=0
29990 On ch=5 n=84 v=0
30336 Par ch=5 c=11 v=64
30720 Par ch=5 c=0 v=0
30720 Par ch=5 c=32 v=0
30720 PrCh ch=5 p=44
30720 On ch=5 n=91 v=111
30776 Par ch=5 c=11 v=16
30784 Par ch=5 c=11 v=17
30792 Par ch=5 c=11 v=18
30796 Par ch=5 c=11 v=19
30804 Par ch=5 c=11 v=20
30812 Par ch=5 c=11 v=21
30816 Par ch=5 c=11 v=22
30824 Par ch=5 c=11 v=23
30832 Par ch=5 c=11 v=24
30836 Par ch=5 c=11 v=25
30844 Par ch=5 c=11 v=26
30852 Par ch=5 c=11 v=27
30856 Par ch=5 c=11 v=28
30864 Par ch=5 c=11 v=29
30872 Par ch=5 c=11 v=30
30876 Par ch=5 c=11 v=31
30884 Par ch=5 c=11 v=32
30892 Par ch=5 c=11 v=33
30896 Par ch=5 c=11 v=34
30904 Par ch=5 c=11 v=35
30912 Par ch=5 c=11 v=36
30916 Par ch=5 c=11 v=37
30924 Par ch=5 c=11 v=38
30932 Par ch=5 c=11 v=39
30936 Par ch=5 c=11 v=40
30944 Par ch=5 c=11 v=41
30952 Par ch=5 c=11 v=42
30960 Par ch=5 c=11 v=43
30964 Par ch=5 c=11 v=44
30972 Par ch=5 c=11 v=45
30980 Par ch=5 c=11 v=46
30984 Par ch=5 c=11 v=47
30992 Par ch=5 c=11 v=48
31000 Par ch=5 c=11 v=49
31004 Par ch=5 c=11 v=50
31012 Par ch=5 c=11 v=51
31020 Par ch=5 c=11 v=52
31024 Par ch=5 c=11 v=53
31027 On ch=5 n=91 v=0
31032 Par ch=5 c=11 v=54
31040 Par ch=5 c=11 v=55
31044 Par ch=5 c=11 v=56
31052 Par ch=5 c=11 v=57
31060 Par ch=5 c=11 v=58
31064 Par ch=5 c=11 v=59
31072 Par ch=5 c=11 v=60
31080 Par ch=5 c=11 v=61
31084 Par ch=5 c=11 v=62
31092 Par ch=5 c=11 v=63
31100 Par ch=5 c=11 v=64
31104 Par ch=5 c=0 v=0
31104 Par ch=5 c=32 v=0
31104 PrCh ch=5 p=48
31104 On ch=5 n=91 v=111
31142 On ch=5 n=91 v=0
31176 On ch=5 n=89 v=111
31195 On ch=5 n=89 v=0
31200 On ch=5 n=87 v=111
31238 On ch=5 n=87 v=0
31272 On ch=5 n=86 v=111
31291 On ch=5 n=86 v=0
31296 On ch=5 n=84 v=111
31334 On ch=5 n=84 v=0
31368 On ch=5 n=82 v=111
31387 On ch=5 n=82 v=0
31392 On ch=5 n=81 v=111
31430 On ch=5 n=81 v=0
31464 On ch=5 n=79 v=111
31483 On ch=5 n=79 v=0
31872 On ch=5 n=91 v=111
31910 On ch=5 n=91 v=0
31944 On ch=5 n=89 v=111
31963 On ch=5 n=89 v=0
31968 On ch=5 n=87 v=111
32006 On ch=5 n=87 v=0
32040 On ch=5 n=86 v=111
32059 On ch=5 n=86 v=0
32064 On ch=5 n=84 v=111
32102 On ch=5 n=84 v=0
32136 On ch=5 n=82 v=111
32155 On ch=5 n=82 v=0
32160 On ch=5 n=81 v=111
32198 On ch=5 n=81 v=0
32232 On ch=5 n=79 v=111
32251 On ch=5 n=79 v=0
32640 On ch=5 n=79 v=111
32678 On ch=5 n=79 v=0
32712 On ch=5 n=74 v=111
32731 On ch=5 n=74 v=0
32736 On ch=5 n=67 v=111
32774 On ch=5 n=67 v=0
32832 On ch=5 n=82 v=111
32870 On ch=5 n=82 v=0
32904 On ch=5 n=77 v=111
32923 On ch=5 n=77 v=0
32928 On ch=5 n=70 v=111
32966 On ch=5 n=70 v=0
33024 On ch=5 n=79 v=111
33062 On ch=5 n=79 v=0
33096 On ch=5 n=74 v=111
33115 On ch=5 n=74 v=0
33120 On ch=5 n=67 v=111
33158 On ch=5 n=67 v=0
33216 On ch=5 n=82 v=111
33254 On ch=5 n=82 v=0
33288 On ch=5 n=77 v=111
33307 On ch=5 n=77 v=0
33312 On ch=5 n=70 v=111
33350 On ch=5 n=70 v=0
33408 Par ch=5 c=0 v=0
33408 Par ch=5 c=32 v=0
33408 PrCh ch=5 p=44
33408 Par ch=5 c=11 v=16
33408 On ch=5 n=79 v=111
33408 On ch=5 n=91 v=111
33800 Par ch=5 c=11 v=16
33808 Par ch=5 c=11 v=17
33816 Par ch=5 c=11 v=18
33824 Par ch=5 c=11 v=19
33832 Par ch=5 c=11 v=20
33840 Par ch=5 c=11 v=21
33848 Par ch=5 c=11 v=22
33856 Par ch=5 c=11 v=23
33864 Par ch=5 c=11 v=24
33872 Par ch=5 c=11 v=25
33880 Par ch=5 c=11 v=26
33888 Par ch=5 c=11 v=27
33892 Par ch=5 c=11 v=28
33900 Par ch=5 c=11 v=29
33908 Par ch=5 c=11 v=30
33916 Par ch=5 c=11 v=31
33924 Par ch=5 c=11 v=32
33932 Par ch=5 c=11 v=33
33940 Par ch=5 c=11 v=34
33948 Par ch=5 c=11 v=35
33956 Par ch=5 c=11 v=36
33964 Par ch=5 c=11 v=37
33972 Par ch=5 c=11 v=38
33980 Par ch=5 c=11 v=39
33984 Par ch=5 c=11 v=40
33992 Par ch=5 c=11 v=41
34000 Par ch=5 c=11 v=42
34008 Par ch=5 c=11 v=43
34016 Par ch=5 c=11 v=44
34024 Par ch=5 c=11 v=45
34032 Par ch=5 c=11 v=46
34040 Par ch=5 c=11 v=47
34048 Par ch=5 c=11 v=48
34056 Par ch=5 c=11 v=49
34064 Par ch=5 c=11 v=50
34072 Par ch=5 c=11 v=51
34080 Par ch=5 c=11 v=52
34084 Par ch=5 c=11 v=53
34092 Par ch=5 c=11 v=54
34099 On ch=5 n=91 v=0
34099 On ch=5 n=79 v=0
34100 Par ch=5 c=11 v=55
34108 Par ch=5 c=11 v=56
34116 Par ch=5 c=11 v=57
34124 Par ch=5 c=11 v=58
34132 Par ch=5 c=11 v=59
34140 Par ch=5 c=11 v=60
34148 Par ch=5 c=11 v=61
34156 Par ch=5 c=11 v=62
34164 Par ch=5 c=11 v=63
34172 Par ch=5 c=11 v=64
34176 Par ch=5 c=0 v=0
34176 Par ch=5 c=32 v=0
34176 PrCh ch=5 p=48
34176 On ch=5 n=91 v=111
34253 On ch=5 n=91 v=0
34272 On ch=5 n=86 v=111
34349 On ch=5 n=86 v=0
34368 On ch=5 n=84 v=111
34445 On ch=5 n=84 v=0
34464 On ch=5 n=82 v=111
34541 On ch=5 n=82 v=0
34560 On ch=5 n=74 v=111
34560 On ch=5 n=86 v=111
34608 Par ch=5 c=11 v=32
34620 Par ch=5 c=11 v=33
34632 Par ch=5 c=11 v=34
34640 Par ch=5 c=11 v=35
34652 Par ch=5 c=11 v=36
34660 Par ch=5 c=11 v=37
34672 Par ch=5 c=11 v=38
34680 Par ch=5 c=11 v=39
34692 Par ch=5 c=11 v=40
34700 Par ch=5 c=11 v=41
34712 Par ch=5 c=11 v=42
34720 Par ch=5 c=11 v=43
34732 Par ch=5 c=11 v=44
34744 Par ch=5 c=11 v=45
34752 Par ch=5 c=11 v=46
34764 Par ch=5 c=11 v=47
34772 Par ch=5 c=11 v=48
34784 Par ch=5 c=11 v=49
34792 Par ch=5 c=11 v=50
34804 Par ch=5 c=11 v=51
34812 Par ch=5 c=11 v=52
34824 Par ch=5 c=11 v=53
34832 Par ch=5 c=11 v=54
34844 Par ch=5 c=11 v=55
34856 Par ch=5 c=11 v=56
34864 Par ch=5 c=11 v=57
34876 Par ch=5 c=11 v=58
34884 Par ch=5 c=11 v=59
34896 Par ch=5 c=11 v=60
34904 Par ch=5 c=11 v=61
34916 Par ch=5 c=11 v=62
34924 Par ch=5 c=11 v=63
34936 Par ch=5 c=11 v=64
35021 On ch=5 n=86 v=0
35021 On ch=5 n=74 v=0
35040 On ch=5 n=82 v=111
35117 On ch=5 n=82 v=0
35136 On ch=5 n=81 v=111
35213 On ch=5 n=81 v=0
35232 On ch=5 n=79 v=111
35309 On ch=5 n=79 v=0
35328 On ch=5 n=82 v=111
35328 On ch=5 n=70 v=111
35376 Par ch=5 c=11 v=32
35388 Par ch=5 c=11 v=33
35400 Par ch=5 c=11 v=34
35408 Par ch=5 c=11 v=35
35420 Par ch=5 c=11 v=36
35428 Par ch=5 c=11 v=37
35440 Par ch=5 c=11 v=38
35448 Par ch=5 c=11 v=39
35460 Par ch=5 c=11 v=40
35468 Par ch=5 c=11 v=41
35480 Par ch=5 c=11 v=42
35488 Par ch=5 c=11 v=43
35500 Par ch=5 c=11 v=44
35512 Par ch=5 c=11 v=45
35520 Par ch=5 c=11 v=46
35532 Par ch=5 c=11 v=47
35540 Par ch=5 c=11 v=48
35552 Par ch=5 c=11 v=49
35560 Par ch=5 c=11 v=50
35572 Par ch=5 c=11 v=51
35580 Par ch=5 c=11 v=52
35592 Par ch=5 c=11 v=53
35600 Par ch=5 c=11 v=54
35612 Par ch=5 c=11 v=55
35624 Par ch=5 c=11 v=56
35632 Par ch=5 c=11 v=57
35644 Par ch=5 c=11 v=58
35652 Par ch=5 c=11 v=59
35664 Par ch=5 c=11 v=60
35672 Par ch=5 c=11 v=61
35684 Par ch=5 c=11 v=62
35692 Par ch=5 c=11 v=63
35704 Par ch=5 c=11 v=64
35789 On ch=5 n=70 v=0
35789 On ch=5 n=82 v=0
35808 On ch=5 n=67 v=111
35808 On ch=5 n=79 v=111
35885 On ch=5 n=79 v=0
35885 On ch=5 n=67 v=0
35904 On ch=5 n=65 v=111
35904 On ch=5 n=77 v=111
35981 On ch=5 n=77 v=0
35981 On ch=5 n=65 v=0
36000 On ch=5 n=75 v=111
36000 On ch=5 n=63 v=111
36077 On ch=5 n=63 v=0
36077 On ch=5 n=75 v=0
36096 Par ch=5 c=11 v=64
36096 On ch=5 n=70 v=111
36096 On ch=5 n=82 v=111
36120 Par ch=5 c=11 v=63
36144 Par ch=5 c=11 v=62
36164 Par ch=5 c=11 v=61
36173 On ch=5 n=82 v=0
36173 On ch=5 n=70 v=0
36188 Par ch=5 c=11 v=60
36192 On ch=5 n=65 v=111
36192 On ch=5 n=77 v=111
36212 Par ch=5 c=11 v=59
36232 Par ch=5 c=11 v=58
36256 Par ch=5 c=11 v=57
36269 On ch=5 n=77 v=0
36269 On ch=5 n=65 v=0
36280 Par ch=5 c=11 v=56
36288 On ch=5 n=63 v=111
36288 On ch=5 n=75 v=111
36300 Par ch=5 c=11 v=55
36324 Par ch=5 c=11 v=54
36348 Par ch=5 c=11 v=53
36365 On ch=5 n=75 v=0
36365 On ch=5 n=63 v=0
36368 Par ch=5 c=11 v=52
36384 On ch=5 n=62 v=111
36384 On ch=5 n=74 v=111
36392 Par ch=5 c=11 v=51
36416 Par ch=5 c=11 v=50
36436 Par ch=5 c=11 v=49
36460 Par ch=5 c=11 v=48
36461 On ch=5 n=74 v=0
36461 On ch=5 n=62 v=0
36480 Par ch=5 c=11 v=64
36480 On ch=5 n=67 v=95
36480 On ch=5 n=79 v=95
36576 On ch=5 n=79 v=0
36576 On ch=5 n=67 v=0
36576 On ch=5 n=61 v=79
36576 On ch=5 n=73 v=79
36653 On ch=5 n=73 v=0
36653 On ch=5 n=61 v=0
36672 Par ch=5 c=11 v=64
36672 On ch=5 n=67 v=95
36672 On ch=5 n=79 v=95
36692 Par ch=5 c=11 v=63
36708 Par ch=5 c=11 v=62
36724 Par ch=5 c=11 v=61
36740 Par ch=5 c=11 v=60
36760 Par ch=5 c=11 v=59
36768 On ch=5 n=79 v=0
36768 On ch=5 n=67 v=0
36768 On ch=5 n=60 v=79
36768 On ch=5 n=72 v=79
36776 Par ch=5 c=11 v=58
36792 Par ch=5 c=11 v=57
36808 Par ch=5 c=11 v=56
36828 Par ch=5 c=11 v=55
36844 Par ch=5 c=11 v=54
36845 On ch=5 n=72 v=0
36845 On ch=5 n=60 v=0
36860 Par ch=5 c=11 v=53
36864 On ch=5 n=67 v=95
36864 On ch=5 n=79 v=95
36876 Par ch=5 c=11 v=52
36896 Par ch=5 c=11 v=51
36912 Par ch=5 c=11 v=50
36928 Par ch=5 c=11 v=49
36944 Par ch=5 c=11 v=48
36960 On ch=5 n=79 v=0
36960 On ch=5 n=67 v=0
36960 Par ch=5 c=11 v=47
36960 On ch=5 n=58 v=79
36960 On ch=5 n=70 v=79
36980 Par ch=5 c=11 v=46
36996 Par ch=5 c=11 v=45
37012 Par ch=5 c=11 v=44
37028 Par ch=5 c=11 v=43
37037 On ch=5 n=70 v=0
37037 On ch=5 n=58 v=0
37048 Par ch=5 c=11 v=42
37056 On ch=5 n=66 v=95
37056 On ch=5 n=78 v=95
37064 Par ch=5 c=11 v=41
37080 Par ch=5 c=11 v=40
37096 Par ch=5 c=11 v=39
37116 Par ch=5 c=11 v=38
37132 Par ch=5 c=11 v=37
37148 Par ch=5 c=11 v=36
37152 On ch=5 n=78 v=0
37152 On ch=5 n=66 v=0
37152 On ch=5 n=70 v=79
37152 On ch=5 n=58 v=79
37164 Par ch=5 c=11 v=35
37184 Par ch=5 c=11 v=34
37200 Par ch=5 c=11 v=33
37216 Par ch=5 c=11 v=32
37229 On ch=5 n=58 v=0
37229 On ch=5 n=70 v=0
37248 Par ch=5 c=11 v=64
37248 On ch=5 n=67 v=47
37248 On ch=5 n=79 v=47
37402 On ch=5 n=79 v=0
37402 On ch=5 n=67 v=0
37632 On ch=5 n=79 v=47
37632 On ch=5 n=67 v=47
37786 On ch=5 n=67 v=0
37786 On ch=5 n=79 v=0
38016 On ch=5 n=79 v=47
38016 On ch=5 n=67 v=47
38170 On ch=5 n=67 v=0
38170 On ch=5 n=79 v=0
38784 On ch=5 n=67 v=47
38784 On ch=5 n=79 v=47
38938 On ch=5 n=79 v=0
38938 On ch=5 n=67 v=0
44928 On ch=5 n=67 v=15
44928 On ch=5 n=55 v=15
45082 On ch=5 n=55 v=0
45082 On ch=5 n=67 v=0
45120 On ch=5 n=72 v=15
45120 On ch=5 n=60 v=15
45197 On ch=5 n=60 v=0
45197 On ch=5 n=72 v=0
45216 On ch=5 n=74 v=15
45216 On ch=5 n=62 v=15
45293 On ch=5 n=62 v=0
45293 On ch=5 n=74 v=0
45312 On ch=5 n=76 v=15
45312 On ch=5 n=64 v=15
45389 On ch=5 n=64 v=0
45389 On ch=5 n=76 v=0
45408 On ch=5 n=77 v=15
45408 On ch=5 n=65 v=15
45485 On ch=5 n=65 v=0
45485 On ch=5 n=77 v=0
45504 On ch=5 n=79 v=15
45504 On ch=5 n=67 v=15
45581 On ch=5 n=67 v=0
45581 On ch=5 n=79 v=0
45600 On ch=5 n=81 v=15
45600 On ch=5 n=69 v=15
45648 On ch=5 n=69 v=0
45648 On ch=5 n=81 v=0
45648 On ch=5 n=83 v=15
45648 On ch=5 n=71 v=15
45686 On ch=5 n=71 v=0
45686 On ch=5 n=83 v=0
45696 On ch=5 n=84 v=15
45696 On ch=5 n=72 v=15
45888 On ch=5 n=72 v=0
45888 On ch=5 n=84 v=0
45888 On ch=5 n=81 v=15
45888 On ch=5 n=69 v=15
45965 On ch=5 n=69 v=0
45965 On ch=5 n=81 v=0
45984 On ch=5 n=83 v=15
45984 On ch=5 n=71 v=15
46061 On ch=5 n=71 v=0
46061 On ch=5 n=83 v=0
46080 On ch=5 n=84 v=15
46080 On ch=5 n=72 v=15
46272 On ch=5 n=72 v=0
46272 On ch=5 n=84 v=0
46272 On ch=5 n=81 v=15
46272 On ch=5 n=69 v=15
46349 On ch=5 n=69 v=0
46349 On ch=5 n=81 v=0
46368 On ch=5 n=83 v=15
46368 On ch=5 n=71 v=15
46445 On ch=5 n=71 v=0
46445 On ch=5 n=83 v=0
46464 On ch=5 n=72 v=15
46464 On ch=5 n=84 v=15
46560 On ch=5 n=84 v=0
46560 On ch=5 n=72 v=0
46560 On ch=5 n=81 v=15
46560 On ch=5 n=69 v=15
46714 On ch=5 n=69 v=0
46714 On ch=5 n=81 v=0
46752 On ch=5 n=83 v=15
46752 On ch=5 n=71 v=15
46829 On ch=5 n=71 v=0
46829 On ch=5 n=83 v=0
46848 Par ch=5 c=11 v=64
46848 On ch=5 n=84 v=15
46848 On ch=5 n=72 v=15
46872 Par ch=5 c=11 v=63
46896 Par ch=5 c=11 v=62
46916 Par ch=5 c=11 v=61
46940 Par ch=5 c=11 v=60
46944 On ch=5 n=72 v=0
46944 On ch=5 n=84 v=0
46944 On ch=5 n=81 v=15
46944 On ch=5 n=69 v=15
46964 Par ch=5 c=11 v=59
46984 Par ch=5 c=11 v=58
47008 Par ch=5 c=11 v=57
47032 Par ch=5 c=11 v=56
47052 Par ch=5 c=11 v=55
47076 Par ch=5 c=11 v=54
47098 On ch=5 n=69 v=0
47098 On ch=5 n=81 v=0
47100 Par ch=5 c=11 v=53
47120 Par ch=5 c=11 v=52
47136 On ch=5 n=83 v=15
47136 On ch=5 n=71 v=15
47144 Par ch=5 c=11 v=51
47168 Par ch=5 c=11 v=50
47188 Par ch=5 c=11 v=49
47212 Par ch=5 c=11 v=48
47213 On ch=5 n=71 v=0
47213 On ch=5 n=83 v=0
47232 Par ch=5 c=11 v=64
47232 Par ch=5 c=0 v=0
47232 Par ch=5 c=32 v=0
47232 PrCh ch=5 p=44
47232 On ch=5 n=84 v=15
47232 On ch=5 n=81 v=15
47232 On ch=5 n=77 v=15
47232 On ch=5 n=72 v=15
48000 On ch=5 n=77 v=0
48384 Par ch=5 c=11 v=64
48408 Par ch=5 c=11 v=63
48432 Par ch=5 c=11 v=62
48452 Par ch=5 c=11 v=61
48476 Par ch=5 c=11 v=60
48500 Par ch=5 c=11 v=59
48520 Par ch=5 c=11 v=58
48544 Par ch=5 c=11 v=57
48568 Par ch=5 c=11 v=56
48588 Par ch=5 c=11 v=55
48612 Par ch=5 c=11 v=54
48636 Par ch=5 c=11 v=53
48656 Par ch=5 c=11 v=52
48680 Par ch=5 c=11 v=51
48691 On ch=5 n=84 v=0
48691 On ch=5 n=81 v=0
48691 On ch=5 n=72 v=0
48704 Par ch=5 c=11 v=50
48724 Par ch=5 c=11 v=49
48748 Par ch=5 c=11 v=48
48768 Par ch=5 c=11 v=64
48768 On ch=5 n=88 v=15
48768 On ch=5 n=83 v=15
48768 On ch=5 n=80 v=15
48768 On ch=5 n=76 v=15
49459 On ch=5 n=76 v=0
49459 On ch=5 n=88 v=0
49459 On ch=5 n=83 v=0
49459 On ch=5 n=80 v=0
49536 Par ch=5 c=0 v=0
49536 Par ch=5 c=32 v=0
49536 PrCh ch=5 p=48
49536 On ch=5 n=88 v=15
49536 On ch=5 n=76 v=15
51072 Par ch=5 c=11 v=64
51080 Par ch=5 c=11 v=65
51084 Par ch=5 c=11 v=66
51092 Par ch=5 c=11 v=67
51096 Par ch=5 c=11 v=68
51104 Par ch=5 c=11 v=69
51108 Par ch=5 c=11 v=70
51112 Par ch=5 c=11 v=71
51120 Par ch=5 c=11 v=72
51124 Par ch=5 c=11 v=73
51132 Par ch=5 c=11 v=74
51136 Par ch=5 c=11 v=75
51140 Par ch=5 c=11 v=76
51148 Par ch=5 c=11 v=77
51152 Par ch=5 c=11 v=78
51160 Par ch=5 c=11 v=79
51164 Par ch=5 c=11 v=80
51168 Par ch=5 c=11 v=80
51176 Par ch=5 c=11 v=79
51180 Par ch=5 c=11 v=78
51188 Par ch=5 c=11 v=77
51192 Par ch=5 c=11 v=76
51200 Par ch=5 c=11 v=75
51204 Par ch=5 c=11 v=74
51212 Par ch=5 c=11 v=73
51216 Par ch=5 c=11 v=72
51224 Par ch=5 c=11 v=71
51228 Par ch=5 c=11 v=70
51236 Par ch=5 c=11 v=69
51240 Par ch=5 c=11 v=68
51248 Par ch=5 c=11 v=67
51252 Par ch=5 c=11 v=66
51260 Par ch=5 c=11 v=65
51264 On ch=5 n=76 v=0
51264 On ch=5 n=88 v=0
51264 Par ch=5 c=11 v=64
51264 On ch=5 n=75 v=15
51264 On ch=5 n=87 v=15
51408 On ch=5 n=87 v=0
51408 On ch=5 n=75 v=0
51408 On ch=5 n=83 v=15
51408 On ch=5 n=71 v=15
51446 On ch=5 n=71 v=0
51446 On ch=5 n=83 v=0
51456 Par ch=5 c=11 v=64
51456 On ch=5 n=76 v=15
51456 On ch=5 n=88 v=15
51464 Par ch=5 c=11 v=65
51468 Par ch=5 c=11 v=66
51476 Par ch=5 c=11 v=67
51480 Par ch=5 c=11 v=68
51488 Par ch=5 c=11 v=69
51492 Par ch=5 c=11 v=70
51496 Par ch=5 c=11 v=71
51504 Par ch=5 c=11 v=72
51508 Par ch=5 c=11 v=73
51516 Par ch=5 c=11 v=74
51520 Par ch=5 c=11 v=75
51524 Par ch=5 c=11 v=76
51532 Par ch=5 c=11 v=77
51536 Par ch=5 c=11 v=78
51544 Par ch=5 c=11 v=79
51548 Par ch=5 c=11 v=80
51552 Par ch=5 c=11 v=80
51560 Par ch=5 c=11 v=79
51564 Par ch=5 c=11 v=78
51572 Par ch=5 c=11 v=77
51576 Par ch=5 c=11 v=76
51584 Par ch=5 c=11 v=75
51588 Par ch=5 c=11 v=74
51596 Par ch=5 c=11 v=73
51600 Par ch=5 c=11 v=72
51608 Par ch=5 c=11 v=71
51612 Par ch=5 c=11 v=70
51620 Par ch=5 c=11 v=69
51624 Par ch=5 c=11 v=68
51632 Par ch=5 c=11 v=67
51636 Par ch=5 c=11 v=66
51644 Par ch=5 c=11 v=65
51648 On ch=5 n=88 v=0
51648 On ch=5 n=76 v=0
51648 Par ch=5 c=11 v=64
51648 On ch=5 n=87 v=15
51648 On ch=5 n=75 v=15
51792 On ch=5 n=75 v=0
51792 On ch=5 n=87 v=0
51792 On ch=5 n=71 v=15
51792 On ch=5 n=83 v=15
51830 On ch=5 n=83 v=0
51830 On ch=5 n=71 v=0
51840 On ch=5 n=88 v=15
51840 On ch=5 n=76 v=15
53760 Par ch=5 c=11 v=64
53784 Par ch=5 c=11 v=65
53808 Par ch=5 c=11 v=66
53828 Par ch=5 c=11 v=67
53852 Par ch=5 c=11 v=68
53876 Par ch=5 c=11 v=69
53896 Par ch=5 c=11 v=70
53920 Par ch=5 c=11 v=71
53944 Par ch=5 c=11 v=72
53964 Par ch=5 c=11 v=73
53988 Par ch=5 c=11 v=74
54012 Par ch=5 c=11 v=75
54032 Par ch=5 c=11 v=76
54056 Par ch=5 c=11 v=77
54080 Par ch=5 c=11 v=78
54100 Par ch=5 c=11 v=79
54124 Par ch=5 c=11 v=80
54221 On ch=5 n=76 v=0
54221 On ch=5 n=88 v=0
54240 On ch=5 n=86 v=15
54240 On ch=5 n=74 v=15
54288 On ch=5 n=74 v=0
54288 On ch=5 n=86 v=0
54288 On ch=5 n=85 v=15
54288 On ch=5 n=73 v=15
54326 On ch=5 n=73 v=0
54326 On ch=5 n=85 v=0
54336 On ch=5 n=85 v=15
54336 On ch=5 n=73 v=15
54384 On ch=5 n=73 v=0
54384 On ch=5 n=85 v=0
54384 On ch=5 n=83 v=15
54384 On ch=5 n=71 v=15
54422 On ch=5 n=71 v=0
54422 On ch=5 n=83 v=0
54432 On ch=5 n=81 v=15
54432 On ch=5 n=69 v=15
54480 On ch=5 n=69 v=0
54480 On ch=5 n=81 v=0
54480 On ch=5 n=80 v=15
54480 On ch=5 n=68 v=15
54518 On ch=5 n=68 v=0
54518 On ch=5 n=80 v=0
54528 Par ch=5 c=11 v=80
54528 On ch=5 n=88 v=15
54528 On ch=5 n=76 v=15
54552 Par ch=5 c=11 v=79
54572 Par ch=5 c=11 v=78
54592 Par ch=5 c=11 v=77
54616 Par ch=5 c=11 v=76
54624 On ch=5 n=76 v=0
54624 On ch=5 n=88 v=0
54624 On ch=5 n=85 v=15
54624 On ch=5 n=73 v=15
54636 Par ch=5 c=11 v=75
54656 Par ch=5 c=11 v=74
54680 Par ch=5 c=11 v=73
54700 Par ch=5 c=11 v=72
54720 Par ch=5 c=11 v=71
54744 Par ch=5 c=11 v=70
54764 Par ch=5 c=11 v=69
54768 On ch=5 n=73 v=0
54768 On ch=5 n=85 v=0
54768 On ch=5 n=83 v=15
54768 On ch=5 n=71 v=15
54784 Par ch=5 c=11 v=68
54808 Par ch=5 c=11 v=67
54816 On ch=5 n=71 v=0
54816 On ch=5 n=83 v=0
54816 On ch=5 n=85 v=15
54816 On ch=5 n=73 v=15
54828 Par ch=5 c=11 v=66
54848 Par ch=5 c=11 v=65
54864 On ch=5 n=73 v=0
54864 On ch=5 n=85 v=0
54864 On ch=5 n=81 v=15
54864 On ch=5 n=69 v=15
54872 Par ch=5 c=11 v=64
54902 On ch=5 n=69 v=0
54902 On ch=5 n=81 v=0
54912 On ch=5 n=88 v=31
54912 On ch=5 n=76 v=31
55104 On ch=5 n=76 v=0
55104 On ch=5 n=88 v=0
55104 On ch=5 n=83 v=31
55104 On ch=5 n=71 v=31
55258 On ch=5 n=71 v=0
55258 On ch=5 n=83 v=0
55296 On ch=5 n=76 v=31
55296 On ch=5 n=88 v=31
55488 On ch=5 n=88 v=0
55488 On ch=5 n=76 v=0
55488 On ch=5 n=71 v=31
55488 On ch=5 n=83 v=31
55872 Par ch=5 c=11 v=64
55908 Par ch=5 c=11 v=63
55940 Par ch=5 c=11 v=62
55976 Par ch=5 c=11 v=61
56008 Par ch=5 c=11 v=60
56044 Par ch=5 c=11 v=59
56076 Par ch=5 c=11 v=58
56112 Par ch=5 c=11 v=57
56144 Par ch=5 c=11 v=56
56180 Par ch=5 c=11 v=55
56212 Par ch=5 c=11 v=54
56248 Par ch=5 c=11 v=53
56256 On ch=5 n=83 v=0
56256 On ch=5 n=71 v=0
56256 On ch=5 n=76 v=31
56256 On ch=5 n=64 v=31
56280 Par ch=5 c=11 v=52
56316 Par ch=5 c=11 v=51
56348 Par ch=5 c=11 v=50
56384 Par ch=5 c=11 v=49
56416 Par ch=5 c=11 v=48
58061 On ch=5 n=64 v=0
58061 On ch=5 n=76 v=0
58368 Par ch=5 c=11 v=64
61824 On ch=5 n=88 v=15
61855 On ch=5 n=88 v=0
61896 On ch=5 n=86 v=15
61912 On ch=5 n=86 v=0
61920 On ch=5 n=84 v=15
61951 On ch=5 n=84 v=0
61992 On ch=5 n=83 v=15
62008 On ch=5 n=83 v=0
62016 On ch=5 n=81 v=15
62047 On ch=5 n=81 v=0
62088 On ch=5 n=79 v=15
62104 On ch=5 n=79 v=0
62112 On ch=5 n=78 v=15
62143 On ch=5 n=78 v=0
62184 On ch=5 n=76 v=15
62200 On ch=5 n=76 v=0
62592 On ch=5 n=88 v=31
62623 On ch=5 n=88 v=0
62664 On ch=5 n=86 v=31
62680 On ch=5 n=86 v=0
62688 On ch=5 n=84 v=31
62719 On ch=5 n=84 v=0
62760 On ch=5 n=83 v=31
62776 On ch=5 n=83 v=0
62784 On ch=5 n=81 v=31
62815 On ch=5 n=81 v=0
62856 On ch=5 n=79 v=31
62872 On ch=5 n=79 v=0
62880 On ch=5 n=78 v=31
62911 On ch=5 n=78 v=0
62952 On ch=5 n=76 v=31
62968 On ch=5 n=76 v=0
64128 On ch=5 n=91 v=79
64282 On ch=5 n=91 v=0
64320 Par ch=5 c=11 v=64
64320 On ch=5 n=87 v=79
64356 Par ch=5 c=11 v=65
64388 Par ch=5 c=11 v=66
64424 Par ch=5 c=11 v=67
64435 On ch=5 n=87 v=0
64456 Par ch=5 c=11 v=68
64464 On ch=5 n=88 v=79
64492 Par ch=5 c=11 v=69
64495 On ch=5 n=88 v=0
64512 On ch=5 n=84 v=79
64524 Par ch=5 c=11 v=70
64550 On ch=5 n=84 v=0
64560 Par ch=5 c=11 v=71
64592 Par ch=5 c=11 v=72
64608 On ch=5 n=83 v=79
64628 Par ch=5 c=11 v=73
64660 Par ch=5 c=11 v=74
64685 On ch=5 n=83 v=0
64696 Par ch=5 c=11 v=75
64728 Par ch=5 c=11 v=76
64764 Par ch=5 c=11 v=77
64796 Par ch=5 c=11 v=78
64800 On ch=5 n=83 v=79
64832 Par ch=5 c=11 v=79
64864 Par ch=5 c=11 v=80
64877 On ch=5 n=83 v=0
64896 Par ch=5 c=11 v=64
64896 On ch=5 n=91 v=95
64973 On ch=5 n=91 v=0
64992 On ch=5 n=95 v=95
65030 On ch=5 n=95 v=0
65064 On ch=5 n=93 v=95
65083 On ch=5 n=93 v=0
65088 On ch=5 n=91 v=95
65203 On ch=5 n=91 v=0
65232 Par ch=5 c=11 v=64
65232 On ch=5 n=90 v=95
65236 Par ch=5 c=11 v=65
65240 Par ch=5 c=11 v=66
65244 Par ch=5 c=11 v=68
65248 Par ch=5 c=11 v=69
65252 Par ch=5 c=11 v=71
65256 Par ch=5 c=11 v=72
65260 Par ch=5 c=11 v=73
65264 Par ch=5 c=11 v=75
65268 Par ch=5 c=11 v=76
65272 Par ch=5 c=11 v=78
65276 Par ch=5 c=11 v=79
65328 On ch=5 n=90 v=0
65328 On ch=5 n=88 v=95
65366 On ch=5 n=88 v=0
65376 On ch=5 n=91 v=95
65407 On ch=5 n=91 v=0
65448 On ch=5 n=90 v=95
65464 On ch=5 n=90 v=0
65472 Par ch=5 c=11 v=79
65472 On ch=5 n=88 v=95
65484 Par ch=5 c=11 v=78
65496 Par ch=5 c=11 v=77
65508 Par ch=5 c=11 v=76
65520 Par ch=5 c=11 v=75
65532 Par ch=5 c=11 v=74
65540 Par ch=5 c=11 v=73
65552 Par ch=5 c=11 v=72
65564 Par ch=5 c=11 v=71
65576 Par ch=5 c=11 v=70
65587 On ch=5 n=88 v=0
65588 Par ch=5 c=11 v=69
65600 Par ch=5 c=11 v=68
65608 Par ch=5 c=11 v=67
65616 On ch=5 n=86 v=95
65620 Par ch=5 c=11 v=66
65632 Par ch=5 c=11 v=65
65644 Par ch=5 c=11 v=64
65654 On ch=5 n=86 v=0
65664 On ch=5 n=84 v=95
65702 On ch=5 n=84 v=0
66288 Par ch=5 c=11 v=64
66288 On ch=5 n=69 v=47
66292 Par ch=5 c=11 v=65
66296 Par ch=5 c=11 v=67
66300 Par ch=5 c=11 v=69
66301 On ch=5 n=69 v=0
66304 Par ch=5 c=11 v=71
66304 On ch=5 n=71 v=47
66308 Par ch=5 c=11 v=72
66312 Par ch=5 c=11 v=74
66316 Par ch=5 c=11 v=76
66317 On ch=5 n=71 v=0
66320 Par ch=5 c=11 v=78
66320 On ch=5 n=72 v=47
66324 Par ch=5 c=11 v=79
66328 Par ch=5 c=11 v=81
66332 Par ch=5 c=11 v=83
66333 On ch=5 n=72 v=0
66336 Par ch=5 c=11 v=85
66336 On ch=5 n=74 v=47
66340 Par ch=5 c=11 v=86
66344 Par ch=5 c=11 v=88
66348 Par ch=5 c=11 v=90
66349 On ch=5 n=74 v=0
66352 Par ch=5 c=11 v=92
66352 On ch=5 n=76 v=47
66356 Par ch=5 c=11 v=93
66360 Par ch=5 c=11 v=95
66364 Par ch=5 c=11 v=97
66365 On ch=5 n=76 v=0
66368 Par ch=5 c=11 v=99
66368 On ch=5 n=78 v=47
66372 Par ch=5 c=11 v=100
66376 Par ch=5 c=11 v=102
66380 Par ch=5 c=11 v=104
66381 On ch=5 n=78 v=0
66384 Par ch=5 c=11 v=106
66384 On ch=5 n=79 v=47
66388 Par ch=5 c=11 v=107
66392 Par ch=5 c=11 v=109
66396 Par ch=5 c=11 v=111
66397 On ch=5 n=79 v=0
66400 Par ch=5 c=11 v=113
66400 On ch=5 n=81 v=47
66404 Par ch=5 c=11 v=114
66408 Par ch=5 c=11 v=116
66412 Par ch=5 c=11 v=118
66413 On ch=5 n=81 v=0
66416 Par ch=5 c=11 v=120
66416 On ch=5 n=83 v=47
66420 Par ch=5 c=11 v=121
66424 Par ch=5 c=11 v=123
66428 Par ch=5 c=11 v=125
66429 On ch=5 n=83 v=0
66432 Par ch=5 c=11 v=64
66432 On ch=5 n=84 v=95
66463 On ch=5 n=84 v=0
67056 Par ch=5 c=11 v=64
67056 On ch=5 n=65 v=47
67060 Par ch=5 c=11 v=65
67064 Par ch=5 c=11 v=67
67066 On ch=5 n=65 v=0
67068 Par ch=5 c=11 v=69
67072 Par ch=5 c=11 v=71
67072 On ch=5 n=67 v=47
67076 Par ch=5 c=11 v=72
67080 Par ch=5 c=11 v=74
67082 On ch=5 n=67 v=0
67084 Par ch=5 c=11 v=76
67088 Par ch=5 c=11 v=78
67088 On ch=5 n=69 v=47
67092 Par ch=5 c=11 v=79
67096 Par ch=5 c=11 v=81
67098 On ch=5 n=69 v=0
67100 Par ch=5 c=11 v=83
67104 Par ch=5 c=11 v=85
67104 On ch=5 n=70 v=47
67108 Par ch=5 c=11 v=86
67112 Par ch=5 c=11 v=88
67114 On ch=5 n=70 v=0
67116 Par ch=5 c=11 v=90
67120 Par ch=5 c=11 v=92
67120 On ch=5 n=72 v=47
67124 Par ch=5 c=11 v=93
67128 Par ch=5 c=11 v=95
67130 On ch=5 n=72 v=0
67132 Par ch=5 c=11 v=97
67136 Par ch=5 c=11 v=99
67136 On ch=5 n=74 v=47
67140 Par ch=5 c=11 v=100
67144 Par ch=5 c=11 v=102
67146 On ch=5 n=74 v=0
67148 Par ch=5 c=11 v=104
67152 Par ch=5 c=11 v=106
67152 On ch=5 n=76 v=47
67156 Par ch=5 c=11 v=107
67160 Par ch=5 c=11 v=109
67162 On ch=5 n=76 v=0
67164 Par ch=5 c=11 v=111
67168 Par ch=5 c=11 v=113
67168 On ch=5 n=77 v=47
67172 Par ch=5 c=11 v=114
67176 Par ch=5 c=11 v=116
67178 On ch=5 n=77 v=0
67180 Par ch=5 c=11 v=118
67184 Par ch=5 c=11 v=120
67184 On ch=5 n=79 v=47
67188 Par ch=5 c=11 v=121
67192 Par ch=5 c=11 v=123
67194 On ch=5 n=79 v=0
67196 Par ch=5 c=11 v=125
67200 Par ch=5 c=11 v=64
67200 On ch=5 n=81 v=95
67238 On ch=5 n=81 v=0
67416 Par ch=5 c=11 v=64
67416 On ch=5 n=74 v=47
67420 Par ch=5 c=11 v=65
67424 Par ch=5 c=11 v=67
67428 Par ch=5 c=11 v=68
67432 Par ch=5 c=11 v=70
67435 On ch=5 n=74 v=0
67436 Par ch=5 c=11 v=71
67440 Par ch=5 c=11 v=73
67440 On ch=5 n=76 v=47
67444 Par ch=5 c=11 v=74
67448 Par ch=5 c=11 v=76
67452 Par ch=5 c=11 v=77
67456 Par ch=5 c=11 v=79
67459 On ch=5 n=76 v=0
67460 Par ch=5 c=11 v=80
67464 Par ch=5 c=11 v=82
67464 On ch=5 n=78 v=47
67468 Par ch=5 c=11 v=83
67472 Par ch=5 c=11 v=85
67476 Par ch=5 c=11 v=86
67480 Par ch=5 c=11 v=88
67483 On ch=5 n=78 v=0
67484 Par ch=5 c=11 v=89
67488 Par ch=5 c=11 v=91
67488 On ch=5 n=79 v=47
67492 Par ch=5 c=11 v=92
67496 Par ch=5 c=11 v=94
67500 Par ch=5 c=11 v=95
67504 Par ch=5 c=11 v=97
67507 On ch=5 n=79 v=0
67508 Par ch=5 c=11 v=98
67512 Par ch=5 c=11 v=100
67512 On ch=5 n=81 v=47
67516 Par ch=5 c=11 v=101
67520 Par ch=5 c=11 v=103
67524 Par ch=5 c=11 v=104
67528 Par ch=5 c=11 v=106
67531 On ch=5 n=81 v=0
67532 Par ch=5 c=11 v=107
67536 Par ch=5 c=11 v=109
67536 On ch=5 n=82 v=47
67540 Par ch=5 c=11 v=110
67544 Par ch=5 c=11 v=112
67548 Par ch=5 c=11 v=113
67552 Par ch=5 c=11 v=115
67555 On ch=5 n=82 v=0
67556 Par ch=5 c=11 v=116
67560 Par ch=5 c=11 v=118
67560 On ch=5 n=84 v=47
67564 Par ch=5 c=11 v=119
67568 Par ch=5 c=11 v=121
67572 Par ch=5 c=11 v=122
67576 Par ch=5 c=11 v=124
67579 On ch=5 n=84 v=0
67580 Par ch=5 c=11 v=125
67584 On ch=5 n=86 v=47
67588 Par ch=5 c=11 v=126
67592 Par ch=5 c=11 v=125
67596 Par ch=5 c=11 v=123
67600 Par ch=5 c=11 v=122
67603 On ch=5 n=86 v=0
67604 Par ch=5 c=11 v=121
67608 Par ch=5 c=11 v=119
67608 On ch=5 n=81 v=47
67612 Par ch=5 c=11 v=118
67616 Par ch=5 c=11 v=117
67620 Par ch=5 c=11 v=115
67624 Par ch=5 c=11 v=114
67627 On ch=5 n=81 v=0
67628 Par ch=5 c=11 v=113
67632 Par ch=5 c=11 v=111
67632 On ch=5 n=78 v=47
67636 Par ch=5 c=11 v=110
67640 Par ch=5 c=11 v=109
67644 Par ch=5 c=11 v=107
67648 Par ch=5 c=11 v=106
67651 On ch=5 n=78 v=0
67652 Par ch=5 c=11 v=104
67656 Par ch=5 c=11 v=103
67656 On ch=5 n=74 v=47
67660 Par ch=5 c=11 v=102
67664 Par ch=5 c=11 v=100
67668 Par ch=5 c=11 v=99
67672 Par ch=5 c=11 v=98
67675 On ch=5 n=74 v=0
67676 Par ch=5 c=11 v=96
67680 Par ch=5 c=11 v=95
67680 On ch=5 n=69 v=47
67684 Par ch=5 c=11 v=94
67688 Par ch=5 c=11 v=92
67692 Par ch=5 c=11 v=91
67696 Par ch=5 c=11 v=90
67699 On ch=5 n=69 v=0
67700 Par ch=5 c=11 v=88
67704 Par ch=5 c=11 v=87
67704 On ch=5 n=66 v=47
67708 Par ch=5 c=11 v=86
67712 Par ch=5 c=11 v=84
67716 Par ch=5 c=11 v=83
67720 Par ch=5 c=11 v=81
67723 On ch=5 n=66 v=0
67724 Par ch=5 c=11 v=80
67728 Par ch=5 c=11 v=79
67728 On ch=5 n=62 v=47
67732 Par ch=5 c=11 v=77
67736 Par ch=5 c=11 v=76
67740 Par ch=5 c=11 v=75
67744 Par ch=5 c=11 v=73
67747 On ch=5 n=62 v=0
67748 Par ch=5 c=11 v=72
67752 Par ch=5 c=11 v=71
67752 On ch=5 n=57 v=47
67756 Par ch=5 c=11 v=69
67760 Par ch=5 c=11 v=68
67764 Par ch=5 c=11 v=67
67768 Par ch=5 c=11 v=65
67771 On ch=5 n=57 v=0
67776 Par ch=5 c=11 v=64
67776 On ch=5 n=62 v=47
67780 Par ch=5 c=11 v=65
67784 Par ch=5 c=11 v=66
67788 Par ch=5 c=11 v=67
67792 Par ch=5 c=11 v=69
67795 On ch=5 n=62 v=0
67796 Par ch=5 c=11 v=70
67800 Par ch=5 c=11 v=71
67800 On ch=5 n=66 v=47
67804 Par ch=5 c=11 v=73
67808 Par ch=5 c=11 v=74
67812 Par ch=5 c=11 v=75
67816 Par ch=5 c=11 v=77
67819 On ch=5 n=66 v=0
67820 Par ch=5 c=11 v=78
67824 Par ch=5 c=11 v=79
67824 On ch=5 n=69 v=47
67828 Par ch=5 c=11 v=81
67832 Par ch=5 c=11 v=82
67836 Par ch=5 c=11 v=83
67840 Par ch=5 c=11 v=85
67843 On ch=5 n=69 v=0
67844 Par ch=5 c=11 v=86
67848 Par ch=5 c=11 v=87
67848 On ch=5 n=74 v=47
67852 Par ch=5 c=11 v=88
67856 Par ch=5 c=11 v=90
67860 Par ch=5 c=11 v=91
67864 Par ch=5 c=11 v=92
67867 On ch=5 n=74 v=0
67868 Par ch=5 c=11 v=94
67872 Par ch=5 c=11 v=95
67872 On ch=5 n=76 v=47
67876 Par ch=5 c=11 v=96
67880 Par ch=5 c=11 v=98
67884 Par ch=5 c=11 v=99
67888 Par ch=5 c=11 v=100
67891 On ch=5 n=76 v=0
67892 Par ch=5 c=11 v=102
67896 Par ch=5 c=11 v=103
67896 On ch=5 n=81 v=47
67900 Par ch=5 c=11 v=104
67904 Par ch=5 c=11 v=106
67908 Par ch=5 c=11 v=107
67912 Par ch=5 c=11 v=108
67915 On ch=5 n=81 v=0
67916 Par ch=5 c=11 v=109
67920 Par ch=5 c=11 v=111
67920 On ch=5 n=85 v=47
67924 Par ch=5 c=11 v=112
67928 Par ch=5 c=11 v=113
67932 Par ch=5 c=11 v=115
67936 Par ch=5 c=11 v=116
67939 On ch=5 n=85 v=0
67940 Par ch=5 c=11 v=117
67944 Par ch=5 c=11 v=119
67944 On ch=5 n=88 v=47
67948 Par ch=5 c=11 v=120
67952 Par ch=5 c=11 v=121
67956 Par ch=5 c=11 v=123
67960 Par ch=5 c=11 v=124
67963 On ch=5 n=88 v=0
67964 Par ch=5 c=11 v=125
67968 Par ch=5 c=0 v=0
67968 Par ch=5 c=32 v=0
67968 PrCh ch=5 p=44
67968 On ch=5 n=90 v=47
67972 Par ch=5 c=11 v=125
67976 Par ch=5 c=11 v=122
67980 Par ch=5 c=11 v=119
67984 Par ch=5 c=11 v=117
67988 Par ch=5 c=11 v=114
67992 Par ch=5 c=11 v=111
67994 On ch=5 n=90 v=0
67996 Par ch=5 c=11 v=109
68000 Par ch=5 c=11 v=106
68000 On ch=5 n=88 v=47
68004 Par ch=5 c=11 v=103
68008 Par ch=5 c=11 v=100
68012 Par ch=5 c=11 v=98
68016 Par ch=5 c=11 v=95
68020 Par ch=5 c=11 v=92
68024 Par ch=5 c=11 v=90
68026 On ch=5 n=88 v=0
68028 Par ch=5 c=11 v=87
68032 Par ch=5 c=11 v=84
68032 On ch=5 n=86 v=47
68036 Par ch=5 c=11 v=81
68040 Par ch=5 c=11 v=79
68044 Par ch=5 c=11 v=76
68048 Par ch=5 c=11 v=73
68052 Par ch=5 c=11 v=71
68056 Par ch=5 c=11 v=68
68058 On ch=5 n=86 v=0
68060 Par ch=5 c=11 v=65
68064 Par ch=5 c=11 v=64
68064 On ch=5 n=81 v=47
68076 Par ch=5 c=11 v=65
68084 Par ch=5 c=11 v=66
68090 On ch=5 n=81 v=0
68092 Par ch=5 c=11 v=67
68096 On ch=5 n=69 v=47
68100 Par ch=5 c=11 v=68
68108 Par ch=5 c=11 v=69
68120 Par ch=5 c=11 v=70
68122 On ch=5 n=69 v=0
68128 Par ch=5 c=11 v=71
68128 On ch=5 n=74 v=47
68136 Par ch=5 c=11 v=72
68144 Par ch=5 c=11 v=73
68152 Par ch=5 c=11 v=74
68154 On ch=5 n=74 v=0
68160 Par ch=5 c=11 v=75
68160 On ch=5 n=78 v=47
68172 Par ch=5 c=11 v=76
68180 Par ch=5 c=11 v=77
68186 On ch=5 n=78 v=0
68188 Par ch=5 c=11 v=78
68192 On ch=5 n=81 v=47
68196 Par ch=5 c=11 v=79
68204 Par ch=5 c=11 v=80
68216 Par ch=5 c=11 v=81
68218 On ch=5 n=81 v=0
68224 Par ch=5 c=11 v=82
68224 On ch=5 n=86 v=47
68232 Par ch=5 c=11 v=83
68240 Par ch=5 c=11 v=84
68248 Par ch=5 c=11 v=85
68250 On ch=5 n=86 v=0
68256 Par ch=5 c=11 v=86
68256 On ch=5 n=88 v=47
68268 Par ch=5 c=11 v=87
68276 Par ch=5 c=11 v=88
68282 On ch=5 n=88 v=0
68284 Par ch=5 c=11 v=89
68288 On ch=5 n=90 v=47
68292 Par ch=5 c=11 v=90
68300 Par ch=5 c=11 v=91
68312 Par ch=5 c=11 v=92
68314 On ch=5 n=90 v=0
68320 Par ch=5 c=11 v=93
68320 On ch=5 n=91 v=47
68328 Par ch=5 c=11 v=94
68336 Par ch=5 c=11 v=95
68344 Par ch=5 c=11 v=96
68346 On ch=5 n=91 v=0
68352 Par ch=5 c=0 v=0
68352 Par ch=5 c=32 v=0
68352 PrCh ch=5 p=48
68352 On ch=5 n=93 v=47
68371 On ch=5 n=93 v=0
68376 On ch=5 n=90 v=47
68395 On ch=5 n=90 v=0
68400 On ch=5 n=86 v=47
68419 On ch=5 n=86 v=0
68424 On ch=5 n=81 v=47
68443 On ch=5 n=81 v=0
68448 On ch=5 n=78 v=47
68467 On ch=5 n=78 v=0
68472 On ch=5 n=74 v=47
68491 On ch=5 n=74 v=0
68496 On ch=5 n=69 v=47
68515 On ch=5 n=69 v=0
68520 On ch=5 n=66 v=47
68539 On ch=5 n=66 v=0
68544 On ch=5 n=62 v=47
68552 Par ch=5 c=11 v=96
68556 Par ch=5 c=11 v=97
68557 On ch=5 n=62 v=0
68560 On ch=5 n=64 v=47
68564 Par ch=5 c=11 v=98
68568 Par ch=5 c=11 v=99
68573 On ch=5 n=64 v=0
68576 Par ch=5 c=11 v=100
68576 On ch=5 n=66 v=47
68580 Par ch=5 c=11 v=101
68588 Par ch=5 c=11 v=102
68589 On ch=5 n=66 v=0
68592 Par ch=5 c=11 v=103
68592 On ch=5 n=67 v=47
68600 Par ch=5 c=11 v=104
68604 Par ch=5 c=11 v=105
68605 On ch=5 n=67 v=0
68608 On ch=5 n=69 v=47
68612 Par ch=5 c=11 v=106
68616 Par ch=5 c=11 v=107
68621 On ch=5 n=69 v=0
68624 Par ch=5 c=11 v=108
68624 On ch=5 n=71 v=47
68628 Par ch=5 c=11 v=109
68636 Par ch=5 c=11 v=110
68637 On ch=5 n=71 v=0
68640 Par ch=5 c=11 v=111
68640 On ch=5 n=73 v=47
68648 Par ch=5 c=11 v=112
68652 Par ch=5 c=11 v=113
68656 On ch=5 n=73 v=0
68656 On ch=5 n=74 v=47
68660 Par ch=5 c=11 v=114
68664 Par ch=5 c=11 v=115
68672 On ch=5 n=74 v=0
68672 Par ch=5 c=11 v=116
68672 On ch=5 n=76 v=47
68676 Par ch=5 c=11 v=117
68684 Par ch=5 c=11 v=118
68688 On ch=5 n=76 v=0
68688 Par ch=5 c=11 v=119
68688 On ch=5 n=78 v=47
68696 Par ch=5 c=11 v=120
68700 On ch=5 n=78 v=0
68700 Par ch=5 c=11 v=121
68700 On ch=5 n=80 v=47
68708 Par ch=5 c=11 v=122
68712 On ch=5 n=80 v=0
68712 Par ch=5 c=11 v=123
68712 On ch=5 n=81 v=47
68720 Par ch=5 c=11 v=124
68724 On ch=5 n=81 v=0
68724 Par ch=5 c=11 v=125
68724 On ch=5 n=83 v=47
68732 Par ch=5 c=11 v=126
68734 On ch=5 n=83 v=0
68736 Par ch=5 c=0 v=0
68736 Par ch=5 c=32 v=0
68736 PrCh ch=5 p=44
68736 Par ch=5 c=11 v=64
68736 On ch=5 n=85 v=100
68736 On ch=5 n=73 v=100
68784 Par ch=5 c=11 v=32
70080 Par ch=5 c=11 v=32
70116 Par ch=5 c=11 v=31
70148 Par ch=5 c=11 v=30
70184 Par ch=5 c=11 v=29
70216 Par ch=5 c=11 v=28
70252 Par ch=5 c=11 v=27
70272 On ch=5 n=73 v=100
70272 On ch=5 n=85 v=100
70272 On ch=5 n=73 v=100
70272 On ch=5 n=85 v=100
70272 On ch=5 n=85 v=100
70272 On ch=5 n=73 v=100
70284 Par ch=5 c=11 v=26
70320 Par ch=5 c=11 v=25
70352 Par ch=5 c=11 v=24
70388 Par ch=5 c=11 v=23
70420 Par ch=5 c=11 v=22
70456 Par ch=5 c=11 v=21
70488 Par ch=5 c=11 v=20
70524 Par ch=5 c=11 v=19
70556 Par ch=5 c=11 v=18
70579 On ch=5 n=73 v=0
70579 On ch=5 n=85 v=0
70579 On ch=5 n=73 v=0
70579 On ch=5 n=73 v=0
70579 On ch=5 n=73 v=0
70579 On ch=5 n=85 v=0
70579 On ch=5 n=85 v=0
70579 On ch=5 n=85 v=0
70592 Par ch=5 c=11 v=17
70624 Par ch=5 c=11 v=16
70656 Par ch=5 c=11 v=64
71424 Par ch=5 c=0 v=0
71424 Par ch=5 c=32 v=0
71424 PrCh ch=5 p=48
71424 On ch=5 n=73 v=95
71450 On ch=5 n=73 v=0
71456 On ch=5 n=69 v=47
71482 On ch=5 n=69 v=0
71488 On ch=5 n=76 v=47
71514 On ch=5 n=76 v=0
71520 On ch=5 n=71 v=47
71546 On ch=5 n=71 v=0
71552 On ch=5 n=68 v=47
71578 On ch=5 n=68 v=0
71584 On ch=5 n=76 v=47
71610 On ch=5 n=76 v=0
71616 On ch=5 n=69 v=47
71642 On ch=5 n=69 v=0
71648 On ch=5 n=66 v=47
71674 On ch=5 n=66 v=0
71680 On ch=5 n=74 v=47
71706 On ch=5 n=74 v=0
71712 On ch=5 n=68 v=47
71738 On ch=5 n=68 v=0
71744 On ch=5 n=61 v=47
71770 On ch=5 n=61 v=0
71776 On ch=5 n=73 v=47
71802 On ch=5 n=73 v=0
71808 On ch=5 n=74 v=95
71834 On ch=5 n=74 v=0
71840 On ch=5 n=71 v=47
71866 On ch=5 n=71 v=0
71872 On ch=5 n=80 v=47
71898 On ch=5 n=80 v=0
71904 On ch=5 n=73 v=47
71930 On ch=5 n=73 v=0
71936 On ch=5 n=69 v=47
71962 On ch=5 n=69 v=0
71968 On ch=5 n=78 v=47
71994 On ch=5 n=78 v=0
72000 On ch=5 n=71 v=47
72026 On ch=5 n=71 v=0
72032 On ch=5 n=68 v=47
72058 On ch=5 n=68 v=0
72064 On ch=5 n=76 v=47
72090 On ch=5 n=76 v=0
72096 On ch=5 n=69 v=47
72122 On ch=5 n=69 v=0
72128 On ch=5 n=66 v=47
72154 On ch=5 n=66 v=0
72160 On ch=5 n=74 v=47
72186 On ch=5 n=74 v=0
72192 On ch=5 n=76 v=95
72218 On ch=5 n=76 v=0
72224 On ch=5 n=73 v=47
72250 On ch=5 n=73 v=0
72256 On ch=5 n=81 v=47
72282 On ch=5 n=81 v=0
72288 On ch=5 n=74 v=47
72314 On ch=5 n=74 v=0
72320 On ch=5 n=71 v=47
72346 On ch=5 n=71 v=0
72352 On ch=5 n=80 v=47
72378 On ch=5 n=80 v=0
72384 On ch=5 n=78 v=95
72410 On ch=5 n=78 v=0
72416 On ch=5 n=74 v=47
72442 On ch=5 n=74 v=0
72448 On ch=5 n=83 v=47
72474 On ch=5 n=83 v=0
72480 On ch=5 n=76 v=47
72506 On ch=5 n=76 v=0
72512 On ch=5 n=73 v=47
72538 On ch=5 n=73 v=0
72544 On ch=5 n=81 v=47
72570 On ch=5 n=81 v=0
72960 Par ch=5 c=11 v=64
72960 On ch=5 n=83 v=111
72968 Par ch=5 c=11 v=63
72976 Par ch=5 c=11 v=62
72984 Par ch=5 c=11 v=61
72992 Par ch=5 c=11 v=60
72998 On ch=5 n=83 v=0
73000 Par ch=5 c=11 v=59
73008 Par ch=5 c=11 v=58
73016 Par ch=5 c=11 v=57
73024 Par ch=5 c=11 v=56
73032 Par ch=5 c=11 v=55
73032 On ch=5 n=81 v=111
73040 Par ch=5 c=11 v=54
73048 Par ch=5 c=11 v=53
73051 On ch=5 n=81 v=0
73056 Par ch=5 c=11 v=52
73056 On ch=5 n=79 v=111
73064 Par ch=5 c=11 v=51
73072 Par ch=5 c=11 v=50
73080 Par ch=5 c=11 v=49
73088 Par ch=5 c=11 v=48
73094 On ch=5 n=79 v=0
73096 Par ch=5 c=11 v=47
73104 Par ch=5 c=11 v=46
73112 Par ch=5 c=11 v=45
73120 Par ch=5 c=11 v=44
73128 Par ch=5 c=11 v=43
73128 On ch=5 n=78 v=111
73136 Par ch=5 c=11 v=42
73144 Par ch=5 c=11 v=41
73147 On ch=5 n=78 v=0
73152 Par ch=5 c=11 v=40
73152 On ch=5 n=76 v=111
73156 Par ch=5 c=11 v=39
73164 Par ch=5 c=11 v=38
73172 Par ch=5 c=11 v=37
73180 Par ch=5 c=11 v=36
73188 Par ch=5 c=11 v=35
73190 On ch=5 n=76 v=0
73196 Par ch=5 c=11 v=34
73204 Par ch=5 c=11 v=33
73212 Par ch=5 c=11 v=32
73220 Par ch=5 c=11 v=31
73224 On ch=5 n=74 v=111
73228 Par ch=5 c=11 v=30
73236 Par ch=5 c=11 v=29
73243 On ch=5 n=74 v=0
73244 Par ch=5 c=11 v=28
73248 On ch=5 n=73 v=111
73252 Par ch=5 c=11 v=27
73260 Par ch=5 c=11 v=26
73268 Par ch=5 c=11 v=25
73276 Par ch=5 c=11 v=24
73284 Par ch=5 c=11 v=23
73286 On ch=5 n=73 v=0
73292 Par ch=5 c=11 v=22
73300 Par ch=5 c=11 v=21
73308 Par ch=5 c=11 v=20
73316 Par ch=5 c=11 v=19
73320 On ch=5 n=71 v=111
73324 Par ch=5 c=11 v=18
73332 Par ch=5 c=11 v=17
73339 On ch=5 n=71 v=0
73340 Par ch=5 c=11 v=16
73728 Par ch=5 c=11 v=64
73728 On ch=5 n=85 v=111
73736 Par ch=5 c=11 v=63
73744 Par ch=5 c=11 v=62
73752 Par ch=5 c=11 v=61
73760 Par ch=5 c=11 v=60
73766 On ch=5 n=85 v=0
73768 Par ch=5 c=11 v=59
73776 Par ch=5 c=11 v=58
73784 Par ch=5 c=11 v=57
73792 Par ch=5 c=11 v=56
73800 Par ch=5 c=11 v=55
73800 On ch=5 n=83 v=111
73808 Par ch=5 c=11 v=54
73816 Par ch=5 c=11 v=53
73819 On ch=5 n=83 v=0
73824 Par ch=5 c=11 v=52
73824 On ch=5 n=81 v=111
73832 Par ch=5 c=11 v=51
73840 Par ch=5 c=11 v=50
73848 Par ch=5 c=11 v=49
73856 Par ch=5 c=11 v=48
73862 On ch=5 n=81 v=0
73864 Par ch=5 c=11 v=47
73872 Par ch=5 c=11 v=46
73880 Par ch=5 c=11 v=45
73888 Par ch=5 c=11 v=44
73896 Par ch=5 c=11 v=43
73896 On ch=5 n=80 v=111
73904 Par ch=5 c=11 v=42
73912 Par ch=5 c=11 v=41
73915 On ch=5 n=80 v=0
73920 Par ch=5 c=11 v=40
73920 On ch=5 n=78 v=111
73924 Par ch=5 c=11 v=39
73932 Par ch=5 c=11 v=38
73940 Par ch=5 c=11 v=37
73948 Par ch=5 c=11 v=36
73956 Par ch=5 c=11 v=35
73958 On ch=5 n=78 v=0
73964 Par ch=5 c=11 v=34
73972 Par ch=5 c=11 v=33
73980 Par ch=5 c=11 v=32
73988 Par ch=5 c=11 v=31
73992 On ch=5 n=76 v=111
73996 Par ch=5 c=11 v=30
74004 Par ch=5 c=11 v=29
74011 On ch=5 n=76 v=0
74012 Par ch=5 c=11 v=28
74016 On ch=5 n=74 v=111
74020 Par ch=5 c=11 v=27
74028 Par ch=5 c=11 v=26
74036 Par ch=5 c=11 v=25
74044 Par ch=5 c=11 v=24
74052 Par ch=5 c=11 v=23
74054 On ch=5 n=74 v=0
74060 Par ch=5 c=11 v=22
74068 Par ch=5 c=11 v=21
74076 Par ch=5 c=11 v=20
74084 Par ch=5 c=11 v=19
74088 On ch=5 n=73 v=111
74092 Par ch=5 c=11 v=18
74100 Par ch=5 c=11 v=17
74107 On ch=5 n=73 v=0
74108 Par ch=5 c=11 v=16
74496 Par ch=5 c=11 v=64
74496 On ch=5 n=89 v=111
74508 Par ch=5 c=11 v=63
74520 Par ch=5 c=11 v=62
74532 Par ch=5 c=11 v=61
74534 On ch=5 n=89 v=0
74544 Par ch=5 c=11 v=60
74556 Par ch=5 c=11 v=59
74568 Par ch=5 c=11 v=58
74568 On ch=5 n=85 v=111
74580 Par ch=5 c=11 v=57
74587 On ch=5 n=85 v=0
74592 Par ch=5 c=11 v=56
74592 On ch=5 n=81 v=111
74604 Par ch=5 c=11 v=55
74616 Par ch=5 c=11 v=54
74628 Par ch=5 c=11 v=53
74630 On ch=5 n=81 v=0
74640 Par ch=5 c=11 v=52
74652 Par ch=5 c=11 v=51
74664 Par ch=5 c=11 v=50
74664 On ch=5 n=77 v=111
74676 Par ch=5 c=11 v=49
74683 On ch=5 n=77 v=0
74688 Par ch=5 c=11 v=48
74688 On ch=5 n=73 v=111
74726 On ch=5 n=73 v=0
74880 Par ch=5 c=11 v=64
74880 On ch=5 n=89 v=111
74892 Par ch=5 c=11 v=63
74904 Par ch=5 c=11 v=62
74916 Par ch=5 c=11 v=61
74918 On ch=5 n=89 v=0
74928 Par ch=5 c=11 v=60
74940 Par ch=5 c=11 v=59
74952 Par ch=5 c=11 v=58
74952 On ch=5 n=85 v=111
74964 Par ch=5 c=11 v=57
74971 On ch=5 n=85 v=0
74976 Par ch=5 c=11 v=56
74976 On ch=5 n=81 v=111
74988 Par ch=5 c=11 v=55
75000 Par ch=5 c=11 v=54
75012 Par ch=5 c=11 v=53
75014 On ch=5 n=81 v=0
75024 Par ch=5 c=11 v=52
75036 Par ch=5 c=11 v=51
75048 Par ch=5 c=11 v=50
75048 On ch=5 n=77 v=111
75060 Par ch=5 c=11 v=49
75067 On ch=5 n=77 v=0
75072 Par ch=5 c=11 v=48
75072 On ch=5 n=73 v=111
75110 On ch=5 n=73 v=0
75264 Par ch=5 c=11 v=64
75360 Par ch=5 c=0 v=0
75360 Par ch=5 c=32 v=0
75360 PrCh ch=5 p=44
75360 On ch=5 n=91 v=127
75482 On ch=5 n=91 v=0
75488 On ch=5 n=90 v=111
75514 On ch=5 n=90 v=0
75520 On ch=5 n=89 v=111
75546 On ch=5 n=89 v=0
75552 On ch=5 n=88 v=111
75578 On ch=5 n=88 v=0
75584 On ch=5 n=87 v=111
75610 On ch=5 n=87 v=0
75616 On ch=5 n=86 v=111
75642 On ch=5 n=86 v=0
75648 On ch=5 n=85 v=111
75674 On ch=5 n=85 v=0
75680 On ch=5 n=84 v=111
75706 On ch=5 n=84 v=0
75712 On ch=5 n=83 v=111
75738 On ch=5 n=83 v=0
75744 On ch=5 n=82 v=111
75770 On ch=5 n=82 v=0
75776 On ch=5 n=81 v=111
75802 On ch=5 n=81 v=0
75808 On ch=5 n=80 v=111
75834 On ch=5 n=80 v=0
75840 On ch=5 n=79 v=111
75866 On ch=5 n=79 v=0
75872 On ch=5 n=67 v=111
75898 On ch=5 n=67 v=0
75904 On ch=5 n=74 v=111
75930 On ch=5 n=74 v=0
75936 On ch=5 n=79 v=111
75962 On ch=5 n=79 v=0
75968 On ch=5 n=86 v=111
75994 On ch=5 n=86 v=0
76000 On ch=5 n=91 v=111
76026 On ch=5 n=91 v=0
76032 Par ch=5 c=0 v=0
76032 Par ch=5 c=32 v=0
76032 PrCh ch=5 p=48
76032 On ch=5 n=92 v=79
76063 On ch=5 n=92 v=0
76104 On ch=5 n=86 v=79
76128 On ch=5 n=86 v=0
76128 On ch=5 n=78 v=79
76166 On ch=5 n=78 v=0
76224 On ch=5 n=92 v=79
76255 On ch=5 n=92 v=0
76296 On ch=5 n=86 v=79
76320 On ch=5 n=86 v=0
76320 On ch=5 n=78 v=79
76358 On ch=5 n=78 v=0
76416 On ch=5 n=92 v=79
76447 On ch=5 n=92 v=0
76488 On ch=5 n=86 v=79
76512 On ch=5 n=86 v=0
76512 On ch=5 n=78 v=79
76550 On ch=5 n=78 v=0
76608 On ch=5 n=92 v=79
76639 On ch=5 n=92 v=0
76680 On ch=5 n=86 v=79
76704 On ch=5 n=86 v=0
76704 On ch=5 n=78 v=79
76742 On ch=5 n=78 v=0
76800 Par ch=5 c=0 v=0
76800 Par ch=5 c=32 v=0
76800 PrCh ch=5 p=44
76896 On ch=5 n=85 v=95
76934 On ch=5 n=85 v=0
76944 On ch=5 n=84 v=95
76982 On ch=5 n=84 v=0
76992 On ch=5 n=83 v=95
77030 On ch=5 n=83 v=0
77040 On ch=5 n=82 v=95
77078 On ch=5 n=82 v=0
77088 On ch=5 n=81 v=95
77126 On ch=5 n=81 v=0
77136 On ch=5 n=80 v=95
77174 On ch=5 n=80 v=0
77184 Par ch=5 c=11 v=64
77184 On ch=5 n=78 v=95
77196 Par ch=5 c=11 v=63
77208 Par ch=5 c=11 v=62
77220 Par ch=5 c=11 v=61
77222 On ch=5 n=78 v=0
77232 Par ch=5 c=11 v=60
77232 On ch=5 n=81 v=95
77244 Par ch=5 c=11 v=59
77252 Par ch=5 c=11 v=58
77264 Par ch=5 c=11 v=57
77270 On ch=5 n=81 v=0
77276 Par ch=5 c=11 v=56
77280 On ch=5 n=86 v=95
77288 Par ch=5 c=11 v=55
77300 Par ch=5 c=11 v=54
77312 Par ch=5 c=11 v=53
77318 On ch=5 n=86 v=0
77320 Par ch=5 c=11 v=52
77328 On ch=5 n=85 v=95
77332 Par ch=5 c=11 v=51
77344 Par ch=5 c=11 v=50
77356 Par ch=5 c=11 v=49
77366 On ch=5 n=85 v=0
77368 Par ch=5 c=11 v=48
77376 Par ch=5 c=11 v=47
77376 On ch=5 n=83 v=95
77388 Par ch=5 c=11 v=46
77400 Par ch=5 c=11 v=45
77412 Par ch=5 c=11 v=44
77414 On ch=5 n=83 v=0
77424 Par ch=5 c=11 v=43
77424 On ch=5 n=81 v=95
77436 Par ch=5 c=11 v=42
77444 Par ch=5 c=11 v=41
77456 Par ch=5 c=11 v=40
77462 On ch=5 n=81 v=0
77468 Par ch=5 c=11 v=39
77472 On ch=5 n=80 v=95
77480 Par ch=5 c=11 v=38
77492 Par ch=5 c=11 v=37
77504 Par ch=5 c=11 v=36
77510 On ch=5 n=80 v=0
77512 Par ch=5 c=11 v=35
77520 On ch=5 n=78 v=95
77524 Par ch=5 c=11 v=34
77536 Par ch=5 c=11 v=33
77548 Par ch=5 c=11 v=32
77558 On ch=5 n=78 v=0
77568 On ch=5 n=76 v=111
77606 On ch=5 n=76 v=0
77616 On ch=5 n=80 v=111
77654 On ch=5 n=80 v=0
77664 On ch=5 n=85 v=111
77702 On ch=5 n=85 v=0
77712 On ch=5 n=83 v=111
77750 On ch=5 n=83 v=0
77760 On ch=5 n=81 v=111
77798 On ch=5 n=81 v=0
77808 On ch=5 n=80 v=111
77846 On ch=5 n=80 v=0
77856 On ch=5 n=78 v=111
77894 On ch=5 n=78 v=0
77904 On ch=5 n=76 v=111
77942 On ch=5 n=76 v=0
77952 On ch=5 n=74 v=111
77990 On ch=5 n=74 v=0
78000 On ch=5 n=78 v=111
78038 On ch=5 n=78 v=0
78048 On ch=5 n=83 v=111
78086 On ch=5 n=83 v=0
78096 On ch=5 n=81 v=111
78134 On ch=5 n=81 v=0
78144 On ch=5 n=80 v=111
78182 On ch=5 n=80 v=0
78192 On ch=5 n=78 v=111
78230 On ch=5 n=78 v=0
78240 On ch=5 n=76 v=111
78278 On ch=5 n=76 v=0
78288 On ch=5 n=74 v=111
78326 On ch=5 n=74 v=0
78336 On ch=5 n=73 v=111
78374 On ch=5 n=73 v=0
78384 On ch=5 n=74 v=111
78422 On ch=5 n=74 v=0
78432 On ch=5 n=73 v=111
78470 On ch=5 n=73 v=0
78480 On ch=5 n=83 v=111
78518 On ch=5 n=83 v=0
78528 Par ch=5 c=11 v=32
78528 On ch=5 n=81 v=111
78564 Par ch=5 c=11 v=31
78566 On ch=5 n=81 v=0
78576 On ch=5 n=77 v=111
78596 Par ch=5 c=11 v=30
78614 On ch=5 n=77 v=0
78624 On ch=5 n=78 v=111
78632 Par ch=5 c=11 v=29
78662 On ch=5 n=78 v=0
78664 Par ch=5 c=11 v=28
78672 On ch=5 n=74 v=111
78700 Par ch=5 c=11 v=27
78710 On ch=5 n=74 v=0
78720 On ch=5 n=75 v=111
78732 Par ch=5 c=11 v=26
78758 On ch=5 n=75 v=0
78768 Par ch=5 c=11 v=25
78768 On ch=5 n=70 v=111
78800 Par ch=5 c=11 v=24
78806 On ch=5 n=70 v=0
78816 On ch=5 n=71 v=111
78836 Par ch=5 c=11 v=23
78854 On ch=5 n=71 v=0
78864 On ch=5 n=67 v=111
78868 Par ch=5 c=11 v=22
78902 On ch=5 n=67 v=0
78904 Par ch=5 c=11 v=21
78912 On ch=5 n=68 v=111
78936 Par ch=5 c=11 v=20
78950 On ch=5 n=68 v=0
78960 On ch=5 n=63 v=111
78972 Par ch=5 c=11 v=19
78998 On ch=5 n=63 v=0
79004 Par ch=5 c=11 v=18
79008 On ch=5 n=64 v=111
79040 Par ch=5 c=11 v=17
79046 On ch=5 n=64 v=0
79056 On ch=5 n=59 v=111
79072 Par ch=5 c=11 v=16
79094 On ch=5 n=59 v=0
79104 On ch=5 n=60 v=111
79142 On ch=5 n=60 v=0
79152 On ch=5 n=62 v=111
79190 On ch=5 n=62 v=0
79200 On ch=5 n=60 v=111
79238 On ch=5 n=60 v=0
79248 On ch=5 n=65 v=111
79286 On ch=5 n=65 v=0
79296 On ch=5 n=64 v=111
79334 On ch=5 n=64 v=0
79344 On ch=5 n=65 v=111
79382 On ch=5 n=65 v=0
79392 On ch=5 n=64 v=111
79430 On ch=5 n=64 v=0
79440 On ch=5 n=74 v=111
79478 On ch=5 n=74 v=0
79488 On ch=5 n=72 v=111
79526 On ch=5 n=72 v=0
79536 On ch=5 n=74 v=111
79574 On ch=5 n=74 v=0
79584 On ch=5 n=72 v=111
79622 On ch=5 n=72 v=0
79632 On ch=5 n=77 v=111
79670 On ch=5 n=77 v=0
79680 On ch=5 n=76 v=111
79718 On ch=5 n=76 v=0
79728 On ch=5 n=77 v=111
79766 On ch=5 n=77 v=0
79776 On ch=5 n=76 v=111
79814 On ch=5 n=76 v=0
79824 On ch=5 n=86 v=111
79862 On ch=5 n=86 v=0
79872 Par ch=5 c=11 v=8
79872 On ch=5 n=84 v=111
79872 On ch=5 n=81 v=111
79872 On ch=5 n=77 v=111
80102 On ch=5 n=77 v=0
80102 On ch=5 n=81 v=0
80102 On ch=5 n=84 v=0
80160 On ch=5 n=79 v=111
80160 On ch=5 n=72 v=111
80160 On ch=5 n=84 v=111
80237 On ch=5 n=84 v=0
80237 On ch=5 n=72 v=0
80237 On ch=5 n=79 v=0
80256 On ch=5 n=77 v=111
80256 On ch=5 n=84 v=111
80256 On ch=5 n=81 v=111
80486 On ch=5 n=81 v=0
80486 On ch=5 n=84 v=0
80486 On ch=5 n=77 v=0
80544 On ch=5 n=79 v=111
80544 On ch=5 n=84 v=111
80544 On ch=5 n=72 v=111
80621 On ch=5 n=72 v=0
80621 On ch=5 n=84 v=0
80621 On ch=5 n=79 v=0
80640 On ch=5 n=81 v=111
80640 On ch=5 n=84 v=111
80640 On ch=5 n=77 v=111
80870 On ch=5 n=77 v=0
80870 On ch=5 n=84 v=0
80870 On ch=5 n=81 v=0
80928 On ch=5 n=72 v=111
80928 On ch=5 n=84 v=111
80928 On ch=5 n=81 v=111
81005 On ch=5 n=81 v=0
81005 On ch=5 n=84 v=0
81005 On ch=5 n=72 v=0
81024 On ch=5 n=81 v=111
81024 On ch=5 n=84 v=111
81252 On ch=5 n=84 v=0
81252 On ch=5 n=81 v=0
81312 On ch=5 n=81 v=111
81312 On ch=5 n=77 v=111
81388 On ch=5 n=77 v=0
81388 On ch=5 n=81 v=0
81408 Par ch=5 c=0 v=0
81408 Par ch=5 c=32 v=0
81408 PrCh ch=5 p=48
81408 On ch=5 n=77 v=111
81408 On ch=5 n=79 v=111
81446 On ch=5 n=79 v=0
81446 On ch=5 n=77 v=0
81792 Par ch=5 c=11 v=64
82944 Par ch=5 c=0 v=0
82944 Par ch=5 c=32 v=0
82944 PrCh ch=5 p=40
83232 Par ch=5 c=11 v=64
83232 On ch=5 n=91 v=47
83236 Par ch=5 c=11 v=65
83240 Par ch=5 c=11 v=66
83244 Par ch=5 c=11 v=68
83248 Par ch=5 c=11 v=69
83252 Par ch=5 c=11 v=71
83256 Par ch=5 c=11 v=72
83260 Par ch=5 c=11 v=73
83264 Par ch=5 c=11 v=75
83268 Par ch=5 c=11 v=76
83272 Par ch=5 c=11 v=78
83276 Par ch=5 c=11 v=79
83280 Par ch=5 c=11 v=80
83284 Par ch=5 c=11 v=79
83288 Par ch=5 c=11 v=77
83292 Par ch=5 c=11 v=76
83296 Par ch=5 c=11 v=74
83300 Par ch=5 c=11 v=73
83304 On ch=5 n=91 v=0
83304 Par ch=5 c=11 v=71
83304 On ch=5 n=90 v=47
83308 Par ch=5 c=11 v=70
83312 Par ch=5 c=11 v=68
83316 Par ch=5 c=11 v=67
83320 Par ch=5 c=11 v=65
83323 On ch=5 n=90 v=0
83324 Par ch=5 c=11 v=64
83328 On ch=5 n=90 v=47
83424 On ch=5 n=90 v=0
83424 On ch=5 n=88 v=47
83578 On ch=5 n=88 v=0
83616 Par ch=5 c=11 v=64
83616 On ch=5 n=91 v=47
83620 Par ch=5 c=11 v=65
83624 Par ch=5 c=11 v=66
83628 Par ch=5 c=11 v=68
83632 Par ch=5 c=11 v=69
83636 Par ch=5 c=11 v=71
83640 Par ch=5 c=11 v=72
83644 Par ch=5 c=11 v=73
83648 Par ch=5 c=11 v=75
83652 Par ch=5 c=11 v=76
83656 Par ch=5 c=11 v=78
83660 Par ch=5 c=11 v=79
83664 Par ch=5 c=11 v=80
83668 Par ch=5 c=11 v=79
83672 Par ch=5 c=11 v=77
83676 Par ch=5 c=11 v=76
83680 Par ch=5 c=11 v=74
83684 Par ch=5 c=11 v=73
83688 On ch=5 n=91 v=0
83688 Par ch=5 c=11 v=71
83688 On ch=5 n=90 v=47
83692 Par ch=5 c=11 v=70
83696 Par ch=5 c=11 v=68
83700 Par ch=5 c=11 v=67
83704 Par ch=5 c=11 v=65
83707 On ch=5 n=90 v=0
83708 Par ch=5 c=11 v=64
83712 On ch=5 n=90 v=47
83760 On ch=5 n=90 v=0
83760 On ch=5 n=88 v=47
83798 On ch=5 n=88 v=0
83808 Par ch=5 c=11 v=64
83808 On ch=5 n=91 v=47
83812 Par ch=5 c=11 v=65
83816 Par ch=5 c=11 v=66
83820 Par ch=5 c=11 v=68
83824 Par ch=5 c=11 v=69
83828 Par ch=5 c=11 v=71
83832 Par ch=5 c=11 v=72
83836 Par ch=5 c=11 v=73
83840 Par ch=5 c=11 v=75
83844 Par ch=5 c=11 v=76
83846 On ch=5 n=91 v=0
83848 Par ch=5 c=11 v=78
83852 Par ch=5 c=11 v=79
83856 Par ch=5 c=11 v=80
83860 Par ch=5 c=11 v=79
83864 Par ch=5 c=11 v=77
83868 Par ch=5 c=11 v=76
83872 Par ch=5 c=11 v=74
83876 Par ch=5 c=11 v=73
83880 Par ch=5 c=11 v=71
83880 On ch=5 n=90 v=47
83884 Par ch=5 c=11 v=70
83888 Par ch=5 c=11 v=68
83892 Par ch=5 c=11 v=67
83896 Par ch=5 c=11 v=65
83899 On ch=5 n=90 v=0
83900 Par ch=5 c=11 v=64
83904 On ch=5 n=90 v=47
83952 On ch=5 n=90 v=0
83952 On ch=5 n=88 v=47
83990 On ch=5 n=88 v=0
84000 Par ch=5 c=11 v=64
84000 On ch=5 n=91 v=47
84004 Par ch=5 c=11 v=65
84008 Par ch=5 c=11 v=66
84012 Par ch=5 c=11 v=68
84016 Par ch=5 c=11 v=69
84020 Par ch=5 c=11 v=71
84024 Par ch=5 c=11 v=72
84028 Par ch=5 c=11 v=73
84032 Par ch=5 c=11 v=75
84036 Par ch=5 c=11 v=76
84038 On ch=5 n=91 v=0
84040 Par ch=5 c=11 v=78
84044 Par ch=5 c=11 v=79
84048 Par ch=5 c=11 v=80
84052 Par ch=5 c=11 v=79
84056 Par ch=5 c=11 v=77
84060 Par ch=5 c=11 v=76
84064 Par ch=5 c=11 v=74
84068 Par ch=5 c=11 v=73
84072 Par ch=5 c=11 v=71
84072 On ch=5 n=89 v=47
84076 Par ch=5 c=11 v=70
84080 Par ch=5 c=11 v=68
84084 Par ch=5 c=11 v=67
84088 On ch=5 n=89 v=0
84088 Par ch=5 c=11 v=65
84092 Par ch=5 c=11 v=64
84768 Par ch=5 c=11 v=64
84768 On ch=5 n=90 v=47
84772 Par ch=5 c=11 v=65
84776 Par ch=5 c=11 v=66
84780 Par ch=5 c=11 v=68
84784 Par ch=5 c=11 v=69
84788 Par ch=5 c=11 v=71
84792 Par ch=5 c=11 v=72
84796 Par ch=5 c=11 v=73
84800 Par ch=5 c=11 v=75
84804 Par ch=5 c=11 v=76
84806 On ch=5 n=90 v=0
84808 Par ch=5 c=11 v=78
84812 Par ch=5 c=11 v=79
84816 Par ch=5 c=11 v=80
84820 Par ch=5 c=11 v=79
84824 Par ch=5 c=11 v=77
84828 Par ch=5 c=11 v=76
84832 Par ch=5 c=11 v=74
84836 Par ch=5 c=11 v=73
84840 Par ch=5 c=11 v=71
84840 On ch=5 n=89 v=47
84844 Par ch=5 c=11 v=70
84848 Par ch=5 c=11 v=68
84852 Par ch=5 c=11 v=67
84856 On ch=5 n=89 v=0
84856 Par ch=5 c=11 v=65
84860 Par ch=5 c=11 v=64
84864 On ch=5 n=86 v=47
84912 On ch=5 n=86 v=0
84912 On ch=5 n=87 v=47
84950 On ch=5 n=87 v=0
84960 On ch=5 n=78 v=47
84991 On ch=5 n=78 v=0
85032 On ch=5 n=80 v=47
85048 On ch=5 n=80 v=0
85056 Par ch=5 c=11 v=64
85056 On ch=5 n=82 v=47
85064 Par ch=5 c=11 v=65
85068 Par ch=5 c=11 v=66
85076 Par ch=5 c=11 v=67
85080 Par ch=5 c=11 v=68
85088 Par ch=5 c=11 v=69
85092 Par ch=5 c=11 v=70
85100 Par ch=5 c=11 v=71
85104 Par ch=5 c=11 v=72
85112 Par ch=5 c=11 v=73
85116 Par ch=5 c=11 v=74
85124 Par ch=5 c=11 v=75
85128 Par ch=5 c=11 v=76
85136 Par ch=5 c=11 v=77
85140 Par ch=5 c=11 v=78
85148 Par ch=5 c=11 v=79
85152 On ch=5 n=82 v=0
85152 Par ch=5 c=11 v=80
85152 On ch=5 n=85 v=47
85183 On ch=5 n=85 v=0
85224 Par ch=5 c=11 v=80
85224 On ch=5 n=83 v=47
85232 Par ch=5 c=11 v=79
85240 On ch=5 n=83 v=0
85240 Par ch=5 c=11 v=78
85248 Par ch=5 c=11 v=77
85248 On ch=5 n=82 v=47
85256 Par ch=5 c=11 v=76
85264 Par ch=5 c=11 v=75
85272 Par ch=5 c=11 v=74
85280 Par ch=5 c=11 v=73
85284 Par ch=5 c=11 v=72
85292 Par ch=5 c=11 v=71
85300 Par ch=5 c=11 v=70
85308 Par ch=5 c=11 v=69
85316 Par ch=5 c=11 v=68
85324 Par ch=5 c=11 v=67
85332 Par ch=5 c=11 v=66
85340 Par ch=5 c=11 v=65
85344 On ch=5 n=82 v=0
85344 Par ch=5 c=11 v=64
85344 On ch=5 n=75 v=47
85498 On ch=5 n=75 v=0
86784 Par ch=5 c=0 v=0
86784 Par ch=5 c=32 v=0
86784 PrCh ch=5 p=48
86784 On ch=5 n=90 v=15
86796 On ch=5 n=90 v=0
86796 On ch=5 n=92 v=15
86808 On ch=5 n=90 v=15
86820 On ch=5 n=90 v=0
86820 On ch=5 n=92 v=15
86832 On ch=5 n=90 v=15
86844 On ch=5 n=90 v=0
86844 On ch=5 n=92 v=0
86844 On ch=5 n=92 v=15
86856 On ch=5 n=90 v=15
86868 On ch=5 n=90 v=0
86868 On ch=5 n=92 v=0
86868 On ch=5 n=92 v=15
86880 On ch=5 n=90 v=15
86892 On ch=5 n=90 v=0
86892 On ch=5 n=92 v=0
86892 On ch=5 n=92 v=15
86904 On ch=5 n=90 v=15
86916 On ch=5 n=90 v=0
86916 On ch=5 n=92 v=0
86916 On ch=5 n=92 v=15
86928 On ch=5 n=90 v=15
86940 On ch=5 n=90 v=0
86940 On ch=5 n=92 v=0
86940 On ch=5 n=92 v=15
86952 On ch=5 n=90 v=15
86964 On ch=5 n=90 v=0
86964 On ch=5 n=92 v=0
86964 On ch=5 n=92 v=15
86976 On ch=5 n=90 v=15
86988 On ch=5 n=90 v=0
86988 On ch=5 n=92 v=0
86988 On ch=5 n=92 v=15
87000 On ch=5 n=90 v=15
87012 On ch=5 n=90 v=0
87012 On ch=5 n=92 v=0
87012 On ch=5 n=92 v=15
87024 On ch=5 n=90 v=15
87036 On ch=5 n=90 v=0
87036 On ch=5 n=92 v=0
87036 On ch=5 n=92 v=15
87048 On ch=5 n=90 v=15
87060 On ch=5 n=90 v=0
87060 On ch=5 n=92 v=0
87060 On ch=5 n=92 v=15
87072 On ch=5 n=90 v=15
87084 On ch=5 n=90 v=0
87084 On ch=5 n=92 v=0
87084 On ch=5 n=92 v=15
87096 On ch=5 n=90 v=15
87108 On ch=5 n=90 v=0
87108 On ch=5 n=92 v=0
87108 On ch=5 n=92 v=15
87120 On ch=5 n=90 v=15
87132 On ch=5 n=90 v=0
87132 On ch=5 n=92 v=0
87132 On ch=5 n=92 v=15
87144 On ch=5 n=90 v=15
87156 On ch=5 n=90 v=0
87156 On ch=5 n=92 v=0
87156 On ch=5 n=92 v=15
87168 On ch=5 n=90 v=15
87180 On ch=5 n=90 v=0
87180 On ch=5 n=92 v=0
87180 On ch=5 n=92 v=15
87192 On ch=5 n=90 v=15
87204 On ch=5 n=90 v=0
87204 On ch=5 n=92 v=0
87204 On ch=5 n=92 v=15
87216 On ch=5 n=90 v=15
87228 On ch=5 n=90 v=0
87228 On ch=5 n=92 v=0
87228 On ch=5 n=92 v=15
87240 On ch=5 n=90 v=15
87252 On ch=5 n=90 v=0
87252 On ch=5 n=92 v=0
87252 On ch=5 n=92 v=15
87264 On ch=5 n=90 v=15
87276 On ch=5 n=90 v=0
87276 On ch=5 n=92 v=0
87276 On ch=5 n=92 v=15
87288 On ch=5 n=90 v=15
87300 On ch=5 n=90 v=0
87300 On ch=5 n=92 v=0
87300 On ch=5 n=92 v=15
87312 On ch=5 n=90 v=15
87324 On ch=5 n=90 v=0
87324 On ch=5 n=92 v=0
87324 On ch=5 n=92 v=15
87336 On ch=5 n=90 v=15
87348 On ch=5 n=90 v=0
87348 On ch=5 n=92 v=0
87348 On ch=5 n=92 v=15
87360 On ch=5 n=90 v=15
87372 On ch=5 n=90 v=0
87372 On ch=5 n=92 v=0
87372 On ch=5 n=92 v=15
87384 On ch=5 n=90 v=15
87396 On ch=5 n=90 v=0
87396 On ch=5 n=92 v=0
87396 On ch=5 n=92 v=15
87408 On ch=5 n=90 v=15
87420 On ch=5 n=90 v=0
87420 On ch=5 n=92 v=0
87420 On ch=5 n=92 v=15
87432 On ch=5 n=90 v=15
87444 On ch=5 n=90 v=0
87444 On ch=5 n=92 v=0
87444 On ch=5 n=92 v=15
87456 On ch=5 n=90 v=15
87468 On ch=5 n=90 v=0
87468 On ch=5 n=92 v=0
87468 On ch=5 n=92 v=15
87480 On ch=5 n=90 v=15
87492 On ch=5 n=90 v=0
87492 On ch=5 n=92 v=0
87492 On ch=5 n=92 v=15
87504 On ch=5 n=90 v=15
87516 On ch=5 n=90 v=0
87516 On ch=5 n=92 v=0
87516 On ch=5 n=92 v=15
87528 On ch=5 n=90 v=15
87540 On ch=5 n=90 v=0
87540 On ch=5 n=92 v=0
87540 On ch=5 n=92 v=15
87552 On ch=5 n=90 v=15
87564 On ch=5 n=90 v=0
87564 On ch=5 n=92 v=0
87564 On ch=5 n=92 v=15
87576 On ch=5 n=90 v=15
87588 On ch=5 n=90 v=0
87588 On ch=5 n=92 v=0
87588 On ch=5 n=92 v=15
87600 On ch=5 n=90 v=15
87612 On ch=5 n=90 v=0
87612 On ch=5 n=92 v=0
87612 On ch=5 n=92 v=15
87624 On ch=5 n=90 v=15
87636 On ch=5 n=90 v=0
87636 On ch=5 n=92 v=0
87636 On ch=5 n=92 v=15
87648 On ch=5 n=90 v=15
87660 On ch=5 n=90 v=0
87660 On ch=5 n=92 v=0
87660 On ch=5 n=92 v=15
87672 On ch=5 n=90 v=15
87684 On ch=5 n=90 v=0
87684 On ch=5 n=92 v=0
87684 On ch=5 n=92 v=15
87696 On ch=5 n=90 v=15
87708 On ch=5 n=90 v=0
87708 On ch=5 n=92 v=0
87708 On ch=5 n=92 v=15
87720 On ch=5 n=90 v=15
87732 On ch=5 n=90 v=0
87732 On ch=5 n=92 v=0
87732 On ch=5 n=92 v=15
87744 On ch=5 n=90 v=15
87756 On ch=5 n=90 v=0
87756 On ch=5 n=92 v=0
87756 On ch=5 n=92 v=15
87768 On ch=5 n=90 v=15
87780 On ch=5 n=90 v=0
87780 On ch=5 n=92 v=0
87780 On ch=5 n=92 v=15
87792 On ch=5 n=90 v=15
87804 On ch=5 n=90 v=0
87804 On ch=5 n=92 v=0
87804 On ch=5 n=92 v=15
87816 On ch=5 n=90 v=15
87828 On ch=5 n=90 v=0
87828 On ch=5 n=92 v=0
87828 On ch=5 n=92 v=15
87840 On ch=5 n=90 v=15
87852 On ch=5 n=90 v=0
87852 On ch=5 n=92 v=0
87852 On ch=5 n=92 v=15
87864 On ch=5 n=90 v=15
87876 On ch=5 n=90 v=0
87876 On ch=5 n=92 v=0
87876 On ch=5 n=92 v=15
87888 On ch=5 n=90 v=15
87900 On ch=5 n=90 v=0
87900 On ch=5 n=92 v=0
87900 On ch=5 n=92 v=15
87912 On ch=5 n=90 v=15
87924 On ch=5 n=90 v=0
87924 On ch=5 n=92 v=0
87924 On ch=5 n=92 v=15
87936 On ch=5 n=90 v=15
87948 On ch=5 n=90 v=0
87948 On ch=5 n=92 v=0
87948 On ch=5 n=92 v=15
87960 On ch=5 n=90 v=15
87972 On ch=5 n=90 v=0
87972 On ch=5 n=92 v=0
87972 On ch=5 n=92 v=15
87984 On ch=5 n=90 v=15
87996 On ch=5 n=90 v=0
87996 On ch=5 n=92 v=0
87996 On ch=5 n=92 v=15
88008 On ch=5 n=90 v=15
88020 On ch=5 n=90 v=0
88020 On ch=5 n=92 v=0
88020 On ch=5 n=92 v=15
88032 On ch=5 n=90 v=15
88044 On ch=5 n=90 v=0
88044 On ch=5 n=92 v=0
88044 On ch=5 n=92 v=15
88056 On ch=5 n=90 v=15
88068 On ch=5 n=90 v=0
88068 On ch=5 n=92 v=0
88068 On ch=5 n=92 v=15
88080 On ch=5 n=90 v=15
88092 On ch=5 n=90 v=0
88092 On ch=5 n=92 v=0
88092 On ch=5 n=92 v=15
88104 On ch=5 n=90 v=15
88116 On ch=5 n=90 v=0
88116 On ch=5 n=92 v=0
88116 On ch=5 n=92 v=15
88128 On ch=5 n=90 v=15
88140 On ch=5 n=90 v=0
88140 On ch=5 n=92 v=0
88140 On ch=5 n=92 v=15
88152 On ch=5 n=90 v=15
88164 On ch=5 n=90 v=0
88164 On ch=5 n=92 v=0
88164 On ch=5 n=92 v=15
88176 On ch=5 n=90 v=15
88188 On ch=5 n=90 v=0
88188 On ch=5 n=92 v=0
88188 On ch=5 n=92 v=15
88200 On ch=5 n=90 v=15
88212 On ch=5 n=90 v=0
88212 On ch=5 n=92 v=0
88212 On ch=5 n=92 v=15
88224 On ch=5 n=90 v=15
88236 On ch=5 n=90 v=0
88236 On ch=5 n=92 v=0
88236 On ch=5 n=92 v=15
88248 On ch=5 n=90 v=15
88260 On ch=5 n=90 v=0
88260 On ch=5 n=92 v=0
88260 On ch=5 n=92 v=15
88272 On ch=5 n=90 v=15
88284 On ch=5 n=90 v=0
88284 On ch=5 n=92 v=0
88284 On ch=5 n=92 v=15
88296 On ch=5 n=90 v=15
88308 On ch=5 n=90 v=0
88308 On ch=5 n=92 v=0
88308 On ch=5 n=92 v=15
88332 On ch=5 n=92 v=0
88356 On ch=5 n=92 v=0
89472 Par ch=5 c=0 v=0
89472 Par ch=5 c=32 v=0
89472 PrCh ch=5 p=45
89472 On ch=5 n=66 v=31
89472 On ch=5 n=63 v=31
89510 On ch=5 n=63 v=0
89510 On ch=5 n=66 v=0
89520 On ch=5 n=68 v=31
89520 On ch=5 n=64 v=31
89558 On ch=5 n=64 v=0
89558 On ch=5 n=68 v=0
89568 On ch=5 n=66 v=31
89568 On ch=5 n=63 v=31
89606 On ch=5 n=63 v=0
89606 On ch=5 n=66 v=0
89616 On ch=5 n=64 v=31
89616 On ch=5 n=61 v=31
89654 On ch=5 n=61 v=0
89654 On ch=5 n=64 v=0
89664 On ch=5 n=63 v=31
89664 On ch=5 n=59 v=31
89702 On ch=5 n=59 v=0
89702 On ch=5 n=63 v=0
89712 On ch=5 n=61 v=31
89712 On ch=5 n=64 v=31
89750 On ch=5 n=64 v=0
89750 On ch=5 n=61 v=0
89760 On ch=5 n=63 v=31
89760 On ch=5 n=59 v=31
89798 On ch=5 n=59 v=0
89798 On ch=5 n=63 v=0
89808 On ch=5 n=61 v=31
89846 On ch=5 n=61 v=0
89856 On ch=5 n=59 v=31
89933 On ch=5 n=59 v=0
90240 Par ch=5 c=0 v=0
90240 Par ch=5 c=32 v=0
90240 PrCh ch=5 p=48
93696 On ch=5 n=63 v=127
93715 On ch=5 n=63 v=0
93720 On ch=5 n=62 v=127
93739 On ch=5 n=62 v=0
93744 On ch=5 n=63 v=127
93763 On ch=5 n=63 v=0
93768 On ch=5 n=65 v=127
93787 On ch=5 n=65 v=0
93792 On ch=5 n=66 v=127
93830 On ch=5 n=66 v=0
94464 On ch=5 n=66 v=127
94483 On ch=5 n=66 v=0
94488 On ch=5 n=65 v=127
94507 On ch=5 n=65 v=0
94512 On ch=5 n=66 v=127
94531 On ch=5 n=66 v=0
94536 On ch=5 n=68 v=127
94555 On ch=5 n=68 v=0
94560 On ch=5 n=69 v=127
94598 On ch=5 n=69 v=0
95064 On ch=5 n=63 v=127
95083 On ch=5 n=63 v=0
95088 On ch=5 n=65 v=127
95107 On ch=5 n=65 v=0
95112 On ch=5 n=66 v=127
95131 On ch=5 n=66 v=0
95136 On ch=5 n=68 v=127
95155 On ch=5 n=68 v=0
95160 On ch=5 n=70 v=127
95179 On ch=5 n=70 v=0
95184 On ch=5 n=72 v=127
95203 On ch=5 n=72 v=0
95208 On ch=5 n=74 v=127
95227 On ch=5 n=74 v=0
95232 On ch=5 n=75 v=127
95263 On ch=5 n=75 v=0
95304 On ch=5 n=70 v=127
95320 On ch=5 n=70 v=0
95328 On ch=5 n=63 v=127
95359 On ch=5 n=63 v=0
100680 On ch=5 n=70 v=15
100696 On ch=5 n=70 v=0
100704 On ch=5 n=75 v=15
100735 On ch=5 n=75 v=0
100776 On ch=5 n=71 v=15
100792 On ch=5 n=71 v=0
100800 On ch=5 n=70 v=15
100831 On ch=5 n=70 v=0
100872 On ch=5 n=68 v=15
100888 On ch=5 n=68 v=0
100896 On ch=5 n=66 v=15
100927 On ch=5 n=66 v=0
100968 On ch=5 n=65 v=15
100984 On ch=5 n=65 v=0
100992 On ch=5 n=66 v=15
101023 On ch=5 n=66 v=0
101064 On ch=5 n=68 v=15
101080 On ch=5 n=68 v=0
101088 On ch=5 n=70 v=15
101119 On ch=5 n=70 v=0
101160 On ch=5 n=71 v=15
101176 On ch=5 n=71 v=0
101184 On ch=5 n=70 v=15
101215 On ch=5 n=70 v=0
101256 On ch=5 n=75 v=15
101272 On ch=5 n=75 v=0
101280 On ch=5 n=76 v=15
101311 On ch=5 n=76 v=0
101352 On ch=5 n=78 v=15
101368 On ch=5 n=78 v=0
101376 On ch=5 n=80 v=15
101407 On ch=5 n=80 v=0
101448 On ch=5 n=83 v=15
101464 On ch=5 n=83 v=0
101472 On ch=5 n=76 v=15
101503 On ch=5 n=76 v=0
101544 On ch=5 n=75 v=15
101560 On ch=5 n=75 v=0
101568 On ch=5 n=73 v=15
101599 On ch=5 n=73 v=0
101640 On ch=5 n=76 v=15
101656 On ch=5 n=76 v=0
101664 On ch=5 n=71 v=15
101695 On ch=5 n=71 v=0
101736 On ch=5 n=70 v=15
101752 On ch=5 n=70 v=0
101760 On ch=5 n=69 v=15
101791 On ch=5 n=69 v=0
101832 On ch=5 n=67 v=15
101848 On ch=5 n=67 v=0
101856 On ch=5 n=69 v=15
101887 On ch=5 n=69 v=0
101928 On ch=5 n=70 v=15
101944 On ch=5 n=70 v=0
101952 On ch=5 n=72 v=15
101983 On ch=5 n=72 v=0
102024 On ch=5 n=74 v=15
102040 On ch=5 n=74 v=0
102048 On ch=5 n=75 v=15
102079 On ch=5 n=75 v=0
102120 On ch=5 n=77 v=15
102136 On ch=5 n=77 v=0
102144 On ch=5 n=70 v=15
102175 On ch=5 n=70 v=0
102216 On ch=5 n=73 v=15
102216 On ch=5 n=61 v=15
102232 On ch=5 n=61 v=0
102232 On ch=5 n=73 v=0
102240 On ch=5 n=77 v=15
102240 On ch=5 n=65 v=15
102271 On ch=5 n=65 v=0
102271 On ch=5 n=77 v=0
102312 On ch=5 n=82 v=15
102312 On ch=5 n=70 v=15
102328 On ch=5 n=70 v=0
102328 On ch=5 n=82 v=0
102336 On ch=5 n=84 v=15
102336 On ch=5 n=72 v=15
102367 On ch=5 n=72 v=0
102367 On ch=5 n=84 v=0
102408 On ch=5 n=85 v=15
102408 On ch=5 n=73 v=15
102424 On ch=5 n=73 v=0
102424 On ch=5 n=85 v=0
102432 On ch=5 n=87 v=15
102432 On ch=5 n=75 v=15
102463 On ch=5 n=75 v=0
102463 On ch=5 n=87 v=0
102504 On ch=5 n=89 v=15
102504 On ch=5 n=77 v=15
102520 On ch=5 n=77 v=0
102520 On ch=5 n=89 v=0
102528 On ch=5 n=85 v=15
102528 On ch=5 n=73 v=15
102559 On ch=5 n=73 v=0
102559 On ch=5 n=85 v=0
102600 On ch=5 n=77 v=15
102600 On ch=5 n=65 v=15
102616 On ch=5 n=65 v=0
102616 On ch=5 n=77 v=0
102624 On ch=5 n=80 v=15
102624 On ch=5 n=68 v=15
102655 On ch=5 n=68 v=0
102655 On ch=5 n=80 v=0
102696 On ch=5 n=85 v=15
102696 On ch=5 n=73 v=15
102712 On ch=5 n=73 v=0
102712 On ch=5 n=85 v=0
102720 On ch=5 n=87 v=15
102720 On ch=5 n=75 v=15
102751 On ch=5 n=75 v=0
102751 On ch=5 n=87 v=0
102792 On ch=5 n=89 v=15
102792 On ch=5 n=77 v=15
102808 On ch=5 n=77 v=0
102808 On ch=5 n=89 v=0
102816 On ch=5 n=90 v=15
102816 On ch=5 n=78 v=15
102847 On ch=5 n=78 v=0
102847 On ch=5 n=90 v=0
102888 On ch=5 n=92 v=15
102888 On ch=5 n=80 v=15
102904 On ch=5 n=80 v=0
102904 On ch=5 n=92 v=0
102912 On ch=5 n=89 v=15
102912 On ch=5 n=77 v=15
102943 On ch=5 n=77 v=0
102943 On ch=5 n=89 v=0
102984 On ch=5 n=87 v=15
102984 On ch=5 n=75 v=15
103000 On ch=5 n=75 v=0
103000 On ch=5 n=87 v=0
103008 On ch=5 n=85 v=15
103008 On ch=5 n=73 v=15
103039 On ch=5 n=73 v=0
103039 On ch=5 n=85 v=0
103080 On ch=5 n=84 v=15
103080 On ch=5 n=72 v=15
103096 On ch=5 n=72 v=0
103096 On ch=5 n=84 v=0
103104 On ch=5 n=82 v=15
103104 On ch=5 n=70 v=15
103135 On ch=5 n=70 v=0
103135 On ch=5 n=82 v=0
103176 On ch=5 n=85 v=15
103176 On ch=5 n=73 v=15
103192 On ch=5 n=73 v=0
103192 On ch=5 n=85 v=0
103200 On ch=5 n=84 v=15
103200 On ch=5 n=72 v=15
103231 On ch=5 n=72 v=0
103231 On ch=5 n=84 v=0
103272 On ch=5 n=70 v=15
103272 On ch=5 n=82 v=15
103288 On ch=5 n=82 v=0
103288 On ch=5 n=70 v=0
103296 On ch=5 n=81 v=15
103296 On ch=5 n=69 v=15
103327 On ch=5 n=69 v=0
103327 On ch=5 n=81 v=0
103368 On ch=5 n=83 v=15
103368 On ch=5 n=71 v=15
103384 On ch=5 n=71 v=0
103384 On ch=5 n=83 v=0
103392 On ch=5 n=82 v=15
103392 On ch=5 n=70 v=15
103423 On ch=5 n=70 v=0
103423 On ch=5 n=82 v=0
103464 On ch=5 n=80 v=15
103464 On ch=5 n=68 v=15
103480 On ch=5 n=68 v=0
103480 On ch=5 n=80 v=0
103488 On ch=5 n=78 v=15
103488 On ch=5 n=66 v=15
103519 On ch=5 n=66 v=0
103519 On ch=5 n=78 v=0
103560 On ch=5 n=75 v=15
103576 On ch=5 n=75 v=0
103584 On ch=5 n=78 v=15
103615 On ch=5 n=78 v=0
103656 On ch=5 n=74 v=15
103672 On ch=5 n=74 v=0
103680 On ch=5 n=87 v=31
103680 On ch=5 n=75 v=31
103834 On ch=5 n=75 v=0
103834 On ch=5 n=87 v=0
103936 On ch=5 n=87 v=31
103936 On ch=5 n=75 v=31
103957 On ch=5 n=75 v=0
103957 On ch=5 n=87 v=0
103968 On ch=5 n=89 v=31
103968 On ch=5 n=77 v=31
103989 On ch=5 n=77 v=0
103989 On ch=5 n=89 v=0
104000 On ch=5 n=87 v=31
104000 On ch=5 n=75 v=31
104021 On ch=5 n=75 v=0
104021 On ch=5 n=87 v=0
104032 On ch=5 n=86 v=31
104032 On ch=5 n=74 v=31
104053 On ch=5 n=74 v=0
104053 On ch=5 n=86 v=0
104064 On ch=5 n=87 v=31
104064 On ch=5 n=75 v=31
104102 On ch=5 n=75 v=0
104102 On ch=5 n=87 v=0
104136 On ch=5 n=82 v=31
104136 On ch=5 n=70 v=31
104155 On ch=5 n=70 v=0
104155 On ch=5 n=82 v=0
104160 On ch=5 n=75 v=31
104160 On ch=5 n=63 v=31
104198 On ch=5 n=63 v=0
104198 On ch=5 n=75 v=0
104320 On ch=5 n=75 v=31
104320 On ch=5 n=87 v=31
104341 On ch=5 n=87 v=0
104341 On ch=5 n=75 v=0
104352 On ch=5 n=77 v=31
104352 On ch=5 n=89 v=31
104373 On ch=5 n=89 v=0
104373 On ch=5 n=77 v=0
104384 On ch=5 n=75 v=31
104384 On ch=5 n=87 v=31
104405 On ch=5 n=87 v=0
104405 On ch=5 n=75 v=0
104416 On ch=5 n=74 v=31
104416 On ch=5 n=86 v=31
104437 On ch=5 n=86 v=0
104437 On ch=5 n=74 v=0
104448 On ch=5 n=87 v=31
104448 On ch=5 n=75 v=31
104486 On ch=5 n=75 v=0
104486 On ch=5 n=87 v=0
104520 On ch=5 n=83 v=31
104520 On ch=5 n=71 v=31
104539 On ch=5 n=71 v=0
104539 On ch=5 n=83 v=0
104544 On ch=5 n=80 v=31
104544 On ch=5 n=68 v=31
104582 On ch=5 n=68 v=0
104582 On ch=5 n=80 v=0
104616 On ch=5 n=83 v=31
104616 On ch=5 n=71 v=31
104635 On ch=5 n=71 v=0
104635 On ch=5 n=83 v=0
104640 On ch=5 n=78 v=31
104640 On ch=5 n=66 v=31
104678 On ch=5 n=66 v=0
104678 On ch=5 n=78 v=0
104712 On ch=5 n=83 v=31
104712 On ch=5 n=71 v=31
104731 On ch=5 n=71 v=0
104731 On ch=5 n=83 v=0
104736 On ch=5 n=82 v=31
104736 On ch=5 n=70 v=31
104757 On ch=5 n=70 v=0
104757 On ch=5 n=82 v=0
104768 On ch=5 n=83 v=31
104768 On ch=5 n=71 v=31
104789 On ch=5 n=71 v=0
104789 On ch=5 n=83 v=0
104800 On ch=5 n=85 v=31
104800 On ch=5 n=73 v=31
104821 On ch=5 n=73 v=0
104821 On ch=5 n=85 v=0
104832 On ch=5 n=80 v=31
104832 On ch=5 n=68 v=31
104870 On ch=5 n=68 v=0
104870 On ch=5 n=80 v=0
104904 On ch=5 n=83 v=31
104904 On ch=5 n=71 v=31
104923 On ch=5 n=71 v=0
104923 On ch=5 n=83 v=0
104928 On ch=5 n=76 v=31
104928 On ch=5 n=64 v=31
104966 On ch=5 n=64 v=0
104966 On ch=5 n=76 v=0
105000 On ch=5 n=80 v=31
105000 On ch=5 n=68 v=31
105019 On ch=5 n=68 v=0
105019 On ch=5 n=80 v=0
105024 On ch=5 n=75 v=31
105024 On ch=5 n=63 v=31
105062 On ch=5 n=63 v=0
105062 On ch=5 n=75 v=0
105096 On ch=5 n=80 v=31
105115 On ch=5 n=80 v=0
105120 On ch=5 n=83 v=31
105141 On ch=5 n=83 v=0
105152 On ch=5 n=82 v=31
105173 On ch=5 n=82 v=0
105184 On ch=5 n=81 v=31
105205 On ch=5 n=81 v=0
105216 Par ch=5 c=11 v=64
105216 On ch=5 n=82 v=31
105236 Par ch=5 c=11 v=65
105247 On ch=5 n=82 v=0
105252 Par ch=5 c=11 v=66
105272 Par ch=5 c=11 v=67
105288 Par ch=5 c=11 v=68
105288 On ch=5 n=77 v=31
105304 On ch=5 n=77 v=0
105308 Par ch=5 c=11 v=69
105312 On ch=5 n=70 v=31
105324 Par ch=5 c=11 v=70
105343 On ch=5 n=70 v=0
105344 Par ch=5 c=11 v=71
105360 Par ch=5 c=11 v=72
105380 Par ch=5 c=11 v=73
105396 Par ch=5 c=11 v=74
105416 Par ch=5 c=11 v=75
105432 Par ch=5 c=11 v=76
105452 Par ch=5 c=11 v=77
105468 Par ch=5 c=11 v=78
105472 On ch=5 n=82 v=31
105488 Par ch=5 c=11 v=79
105493 On ch=5 n=82 v=0
105504 Par ch=5 c=11 v=80
105504 On ch=5 n=80 v=31
105524 Par ch=5 c=11 v=81
105525 On ch=5 n=80 v=0
105536 On ch=5 n=82 v=31
105540 Par ch=5 c=11 v=82
105557 On ch=5 n=82 v=0
105560 Par ch=5 c=11 v=83
105568 On ch=5 n=83 v=31
105576 Par ch=5 c=11 v=84
105589 On ch=5 n=83 v=0
105596 Par ch=5 c=11 v=85
105600 On ch=5 n=82 v=31
105612 Par ch=5 c=11 v=86
105631 On ch=5 n=82 v=0
105632 Par ch=5 c=11 v=87
105648 Par ch=5 c=11 v=88
105668 Par ch=5 c=11 v=89
105672 On ch=5 n=77 v=31
105684 Par ch=5 c=11 v=90
105688 On ch=5 n=77 v=0
105696 On ch=5 n=70 v=31
105704 Par ch=5 c=11 v=91
105720 Par ch=5 c=11 v=92
105727 On ch=5 n=70 v=0
105740 Par ch=5 c=11 v=93
105756 Par ch=5 c=11 v=94
105776 Par ch=5 c=11 v=95
105792 Par ch=5 c=11 v=96
105812 Par ch=5 c=11 v=97
105828 Par ch=5 c=11 v=98
105848 Par ch=5 c=11 v=99
105856 On ch=5 n=84 v=31
105864 Par ch=5 c=11 v=100
105877 On ch=5 n=84 v=0
105884 Par ch=5 c=11 v=101
105888 On ch=5 n=85 v=31
105900 Par ch=5 c=11 v=102
105909 On ch=5 n=85 v=0
105920 Par ch=5 c=11 v=103
105920 On ch=5 n=84 v=31
105936 Par ch=5 c=11 v=104
105941 On ch=5 n=84 v=0
105952 On ch=5 n=82 v=31
105956 Par ch=5 c=11 v=105
105972 Par ch=5 c=11 v=106
105973 On ch=5 n=82 v=0
105984 On ch=5 n=89 v=31
105992 Par ch=5 c=11 v=107
106008 Par ch=5 c=11 v=108
106015 On ch=5 n=89 v=0
106028 Par ch=5 c=11 v=109
106044 Par ch=5 c=11 v=110
106056 On ch=5 n=84 v=31
106064 Par ch=5 c=11 v=111
106072 On ch=5 n=84 v=0
106080 Par ch=5 c=11 v=112
106080 On ch=5 n=77 v=31
106111 On ch=5 n=77 v=0
106368 Par ch=5 c=11 v=64
106752 Par ch=5 c=0 v=0
106752 Par ch=5 c=32 v=0
106752 PrCh ch=5 p=44
106752 On ch=5 n=94 v=111
106790 On ch=5 n=94 v=0
106800 On ch=5 n=92 v=111
106838 On ch=5 n=92 v=0
106848 On ch=5 n=90 v=111
106886 On ch=5 n=90 v=0
106896 On ch=5 n=89 v=111
106934 On ch=5 n=89 v=0
106944 On ch=5 n=87 v=111
106982 On ch=5 n=87 v=0
106992 On ch=5 n=85 v=111
107030 On ch=5 n=85 v=0
107040 On ch=5 n=84 v=111
107078 On ch=5 n=84 v=0
107088 On ch=5 n=89 v=111
107126 On ch=5 n=89 v=0
107136 On ch=5 n=87 v=103
107174 On ch=5 n=87 v=0
107184 On ch=5 n=85 v=95
107222 On ch=5 n=85 v=0
107232 On ch=5 n=84 v=87
107270 On ch=5 n=84 v=0
107280 On ch=5 n=82 v=79
107318 On ch=5 n=82 v=0
107328 On ch=5 n=81 v=71
107366 On ch=5 n=81 v=0
107376 On ch=5 n=82 v=63
107414 On ch=5 n=82 v=0
107424 On ch=5 n=77 v=55
107462 On ch=5 n=77 v=0
107472 On ch=5 n=73 v=47
107510 On ch=5 n=73 v=0
107520 On ch=5 n=70 v=95
107558 On ch=5 n=70 v=0
107568 On ch=5 n=71 v=95
107606 On ch=5 n=71 v=0
107616 On ch=5 n=73 v=95
107654 On ch=5 n=73 v=0
107664 On ch=5 n=75 v=95
107702 On ch=5 n=75 v=0
107712 On ch=5 n=77 v=95
107750 On ch=5 n=77 v=0
107760 On ch=5 n=78 v=95
107798 On ch=5 n=78 v=0
107808 On ch=5 n=80 v=95
107846 On ch=5 n=80 v=0
107856 On ch=5 n=77 v=95
107894 On ch=5 n=77 v=0
107904 On ch=5 n=78 v=95
107942 On ch=5 n=78 v=0
107952 On ch=5 n=80 v=95
107990 On ch=5 n=80 v=0
108000 On ch=5 n=82 v=95
108038 On ch=5 n=82 v=0
108048 On ch=5 n=83 v=95
108086 On ch=5 n=83 v=0
108096 On ch=5 n=85 v=87
108134 On ch=5 n=85 v=0
108144 On ch=5 n=87 v=79
108182 On ch=5 n=87 v=0
108192 On ch=5 n=89 v=71
108230 On ch=5 n=89 v=0
108240 On ch=5 n=90 v=63
108278 On ch=5 n=90 v=0
108288 Par ch=5 c=0 v=0
108288 Par ch=5 c=32 v=0
108288 PrCh ch=5 p=48
108288 On ch=5 n=75 v=47
108319 On ch=5 n=75 v=0
108360 On ch=5 n=74 v=47
108376 On ch=5 n=74 v=0
108384 On ch=5 n=72 v=47
108415 On ch=5 n=72 v=0
108456 On ch=5 n=70 v=47
108472 On ch=5 n=70 v=0
108480 On ch=5 n=68 v=47
108511 On ch=5 n=68 v=0
108552 On ch=5 n=67 v=47
108568 On ch=5 n=67 v=0
108576 On ch=5 n=65 v=47
108607 On ch=5 n=65 v=0
108648 On ch=5 n=63 v=47
108664 On ch=5 n=63 v=0
108672 On ch=5 n=79 v=47
108710 On ch=5 n=79 v=0
108744 On ch=5 n=77 v=47
108763 On ch=5 n=77 v=0
108768 On ch=5 n=75 v=47
108806 On ch=5 n=75 v=0
108840 On ch=5 n=74 v=47
108859 On ch=5 n=74 v=0
108864 Par ch=5 c=11 v=64
108864 On ch=5 n=72 v=47
108872 Par ch=5 c=11 v=65
108880 Par ch=5 c=11 v=66
108888 Par ch=5 c=11 v=67
108896 Par ch=5 c=11 v=68
108902 On ch=5 n=72 v=0
108904 Par ch=5 c=11 v=69
108912 Par ch=5 c=11 v=70
108920 Par ch=5 c=11 v=71
108928 Par ch=5 c=11 v=72
108936 Par ch=5 c=11 v=73
108936 On ch=5 n=72 v=47
108944 Par ch=5 c=11 v=74
108952 Par ch=5 c=11 v=75
108955 On ch=5 n=72 v=0
108960 Par ch=5 c=11 v=76
108960 On ch=5 n=70 v=47
108968 Par ch=5 c=11 v=77
108976 Par ch=5 c=11 v=78
108984 Par ch=5 c=11 v=79
108992 Par ch=5 c=11 v=80
108998 On ch=5 n=70 v=0
109000 Par ch=5 c=11 v=81
109008 Par ch=5 c=11 v=82
109016 Par ch=5 c=11 v=83
109024 Par ch=5 c=11 v=84
109032 Par ch=5 c=11 v=85
109032 On ch=5 n=70 v=47
109040 Par ch=5 c=11 v=86
109048 Par ch=5 c=11 v=87
109051 On ch=5 n=70 v=0
109056 Par ch=5 c=11 v=88
109056 On ch=5 n=75 v=47
109064 Par ch=5 c=11 v=89
109072 Par ch=5 c=11 v=90
109080 Par ch=5 c=11 v=91
109088 Par ch=5 c=11 v=92
109094 On ch=5 n=75 v=0
109096 Par ch=5 c=11 v=93
109104 Par ch=5 c=11 v=94
109112 Par ch=5 c=11 v=95
109120 Par ch=5 c=11 v=96
109128 Par ch=5 c=11 v=97
109128 On ch=5 n=75 v=47
109136 Par ch=5 c=11 v=98
109144 Par ch=5 c=11 v=99
109147 On ch=5 n=75 v=0
109152 Par ch=5 c=11 v=100
109152 On ch=5 n=77 v=47
109160 Par ch=5 c=11 v=101
109168 Par ch=5 c=11 v=102
109176 Par ch=5 c=11 v=103
109184 Par ch=5 c=11 v=104
109190 On ch=5 n=77 v=0
109192 Par ch=5 c=11 v=105
109200 Par ch=5 c=11 v=106
109208 Par ch=5 c=11 v=107
109216 Par ch=5 c=11 v=108
109224 Par ch=5 c=11 v=109
109224 On ch=5 n=77 v=47
109232 Par ch=5 c=11 v=110
109240 Par ch=5 c=11 v=111
109243 On ch=5 n=77 v=0
109248 Par ch=5 c=11 v=112
109248 On ch=5 n=79 v=47
109286 On ch=5 n=79 v=0
109320 On ch=5 n=79 v=47
109339 On ch=5 n=79 v=0
109344 On ch=5 n=81 v=47
109382 On ch=5 n=81 v=0
109416 On ch=5 n=81 v=47
109435 On ch=5 n=81 v=0
109440 On ch=5 n=82 v=47
109478 On ch=5 n=82 v=0
109536 Par ch=5 c=11 v=64
109656 Par ch=5 c=11 v=64
109656 On ch=5 n=82 v=95
109668 Par ch=5 c=11 v=65
109675 On ch=5 n=82 v=0
109676 Par ch=5 c=11 v=66
109680 On ch=5 n=84 v=95
109688 Par ch=5 c=11 v=67
109696 Par ch=5 c=11 v=68
109699 On ch=5 n=84 v=0
109704 On ch=5 n=86 v=95
109708 Par ch=5 c=11 v=69
109716 Par ch=5 c=11 v=70
109723 On ch=5 n=86 v=0
109728 Par ch=5 c=11 v=71
109728 On ch=5 n=87 v=95
109736 Par ch=5 c=11 v=72
109747 On ch=5 n=87 v=0
109748 Par ch=5 c=11 v=73
109752 On ch=5 n=89 v=95
109756 Par ch=5 c=11 v=74
109768 Par ch=5 c=11 v=75
109771 On ch=5 n=89 v=0
109776 Par ch=5 c=11 v=76
109776 On ch=5 n=91 v=95
109788 Par ch=5 c=11 v=77
109795 On ch=5 n=91 v=0
109796 Par ch=5 c=11 v=78
109800 On ch=5 n=92 v=95
109808 Par ch=5 c=11 v=79
109816 Par ch=5 c=11 v=80
109819 On ch=5 n=92 v=0
109824 Par ch=5 c=11 v=80
109824 On ch=5 n=94 v=95
109848 Par ch=5 c=11 v=79
109862 On ch=5 n=94 v=0
109868 Par ch=5 c=11 v=78
109888 Par ch=5 c=11 v=77
109896 On ch=5 n=92 v=95
109912 Par ch=5 c=11 v=76
109915 On ch=5 n=92 v=0
109920 On ch=5 n=91 v=95
109932 Par ch=5 c=11 v=75
109952 Par ch=5 c=11 v=74
109958 On ch=5 n=91 v=0
109976 Par ch=5 c=11 v=73
109992 On ch=5 n=89 v=95
109996 Par ch=5 c=11 v=72
110011 On ch=5 n=89 v=0
110016 Par ch=5 c=11 v=71
110016 On ch=5 n=87 v=95
110040 Par ch=5 c=11 v=70
110054 On ch=5 n=87 v=0
110060 Par ch=5 c=11 v=69
110080 Par ch=5 c=11 v=68
110088 On ch=5 n=86 v=95
110104 Par ch=5 c=11 v=67
110107 On ch=5 n=86 v=0
110112 On ch=5 n=84 v=95
110124 Par ch=5 c=11 v=66
110144 Par ch=5 c=11 v=65
110150 On ch=5 n=84 v=0
110168 Par ch=5 c=11 v=64
110184 On ch=5 n=82 v=95
110203 On ch=5 n=82 v=0
110208 Par ch=5 c=11 v=64
110208 On ch=5 n=84 v=95
110232 Par ch=5 c=11 v=65
110246 On ch=5 n=84 v=0
110256 Par ch=5 c=11 v=66
110276 Par ch=5 c=11 v=67
110280 On ch=5 n=83 v=95
110299 On ch=5 n=83 v=0
110300 Par ch=5 c=11 v=68
110304 On ch=5 n=84 v=95
110324 Par ch=5 c=11 v=69
110342 On ch=5 n=84 v=0
110344 Par ch=5 c=11 v=70
110368 Par ch=5 c=11 v=71
110376 On ch=5 n=86 v=95
110392 Par ch=5 c=11 v=72
110395 On ch=5 n=86 v=0
110400 On ch=5 n=87 v=95
110412 Par ch=5 c=11 v=73
110436 Par ch=5 c=11 v=74
110438 On ch=5 n=87 v=0
110460 Par ch=5 c=11 v=75
110472 On ch=5 n=86 v=95
110480 Par ch=5 c=11 v=76
110491 On ch=5 n=86 v=0
110496 On ch=5 n=87 v=95
110504 Par ch=5 c=11 v=77
110528 Par ch=5 c=11 v=78
110534 On ch=5 n=87 v=0
110548 Par ch=5 c=11 v=79
110568 On ch=5 n=89 v=95
110572 Par ch=5 c=11 v=80
110587 On ch=5 n=89 v=0
110592 Par ch=5 c=11 v=64
110592 Par ch=5 c=0 v=0
110592 Par ch=5 c=32 v=0
110592 PrCh ch=5 p=44
110592 On ch=5 n=82 v=47
110600 Par ch=5 c=11 v=65
110608 Par ch=5 c=11 v=66
110612 Par ch=5 c=11 v=67
110620 Par ch=5 c=11 v=68
110624 Par ch=5 c=11 v=69
110632 Par ch=5 c=11 v=70
110636 Par ch=5 c=11 v=71
110644 Par ch=5 c=11 v=72
110648 Par ch=5 c=11 v=73
110656 Par ch=5 c=11 v=74
110660 Par ch=5 c=11 v=75
110668 Par ch=5 c=11 v=76
110672 Par ch=5 c=11 v=77
110680 Par ch=5 c=11 v=78
110684 Par ch=5 c=11 v=79
110692 Par ch=5 c=11 v=80
110696 Par ch=5 c=11 v=81
110704 Par ch=5 c=11 v=82
110708 Par ch=5 c=11 v=83
110716 Par ch=5 c=11 v=84
110720 Par ch=5 c=11 v=85
110728 Par ch=5 c=11 v=86
110736 Par ch=5 c=11 v=87
110740 Par ch=5 c=11 v=88
110748 Par ch=5 c=11 v=89
110752 Par ch=5 c=11 v=90
110760 Par ch=5 c=11 v=91
110764 Par ch=5 c=11 v=92
110772 Par ch=5 c=11 v=93
110776 Par ch=5 c=11 v=94
110784 Par ch=5 c=11 v=95
110788 Par ch=5 c=11 v=96
110796 Par ch=5 c=11 v=97
110800 Par ch=5 c=11 v=98
110808 Par ch=5 c=11 v=99
110812 Par ch=5 c=11 v=100
110820 Par ch=5 c=11 v=101
110824 Par ch=5 c=11 v=102
110832 Par ch=5 c=11 v=103
110836 Par ch=5 c=11 v=104
110844 Par ch=5 c=11 v=105
110848 Par ch=5 c=11 v=106
110856 Par ch=5 c=11 v=107
110864 Par ch=5 c=11 v=108
110868 Par ch=5 c=11 v=109
110876 Par ch=5 c=11 v=110
110880 Par ch=5 c=11 v=111
110888 Par ch=5 c=11 v=112
110892 Par ch=5 c=11 v=113
110900 Par ch=5 c=11 v=114
110904 Par ch=5 c=11 v=115
110912 Par ch=5 c=11 v=116
110916 Par ch=5 c=11 v=117
110924 Par ch=5 c=11 v=118
110928 Par ch=5 c=11 v=119
110936 Par ch=5 c=11 v=120
110940 Par ch=5 c=11 v=121
110948 Par ch=5 c=11 v=122
110952 Par ch=5 c=11 v=123
110960 Par ch=5 c=11 v=124
110964 Par ch=5 c=11 v=125
110972 Par ch=5 c=11 v=126
111053 On ch=5 n=82 v=0
111072 Par ch=5 c=0 v=0
111072 Par ch=5 c=32 v=0
111072 PrCh ch=5 p=48
111072 Par ch=5 c=11 v=64
111072 On ch=5 n=80 v=111
111110 On ch=5 n=80 v=0
111120 On ch=5 n=78 v=111
111158 On ch=5 n=78 v=0
111168 On ch=5 n=77 v=111
111245 On ch=5 n=77 v=0
111264 On ch=5 n=75 v=111
111341 On ch=5 n=75 v=0
111360 On ch=5 n=83 v=111
111388 Par ch=5 c=11 v=16
111392 Par ch=5 c=11 v=17
111396 Par ch=5 c=11 v=18
111400 Par ch=5 c=11 v=19
111404 Par ch=5 c=11 v=20
111408 Par ch=5 c=11 v=22
111412 Par ch=5 c=11 v=23
111416 Par ch=5 c=11 v=24
111420 Par ch=5 c=11 v=25
111424 Par ch=5 c=11 v=26
111428 Par ch=5 c=11 v=27
111432 Par ch=5 c=11 v=29
111436 Par ch=5 c=11 v=30
111440 Par ch=5 c=11 v=31
111444 Par ch=5 c=11 v=32
111448 Par ch=5 c=11 v=33
111452 Par ch=5 c=11 v=34
111456 Par ch=5 c=11 v=36
111460 Par ch=5 c=11 v=37
111464 Par ch=5 c=11 v=38
111468 Par ch=5 c=11 v=39
111472 Par ch=5 c=11 v=40
111476 Par ch=5 c=11 v=41
111480 Par ch=5 c=11 v=43
111484 Par ch=5 c=11 v=44
111488 Par ch=5 c=11 v=45
111492 Par ch=5 c=11 v=46
111496 Par ch=5 c=11 v=47
111500 Par ch=5 c=11 v=48
111504 Par ch=5 c=11 v=50
111508 Par ch=5 c=11 v=51
111512 Par ch=5 c=11 v=52
111516 Par ch=5 c=11 v=53
111520 Par ch=5 c=11 v=54
111524 Par ch=5 c=11 v=55
111528 Par ch=5 c=11 v=57
111532 Par ch=5 c=11 v=58
111536 Par ch=5 c=11 v=59
111540 Par ch=5 c=11 v=60
111544 Par ch=5 c=11 v=61
111548 Par ch=5 c=11 v=62
111552 Par ch=5 c=11 v=64
111552 Par ch=5 c=11 v=64
111590 On ch=5 n=83 v=0
111600 On ch=5 n=87 v=111
111638 On ch=5 n=87 v=0
111648 On ch=5 n=85 v=111
111686 On ch=5 n=85 v=0
111696 On ch=5 n=83 v=111
111734 On ch=5 n=83 v=0
111744 Par ch=5 c=11 v=64
111744 Par ch=5 c=0 v=0
111744 Par ch=5 c=32 v=0
111744 PrCh ch=5 p=44
111744 On ch=5 n=81 v=111
111744 On ch=5 n=78 v=111
111752 Par ch=5 c=11 v=63
111760 Par ch=5 c=11 v=62
111768 Par ch=5 c=11 v=61
111776 Par ch=5 c=11 v=60
111784 Par ch=5 c=11 v=59
111792 Par ch=5 c=11 v=58
111800 Par ch=5 c=11 v=57
111808 Par ch=5 c=11 v=56
111816 Par ch=5 c=11 v=55
111824 Par ch=5 c=11 v=54
111832 Par ch=5 c=11 v=53
111840 Par ch=5 c=11 v=52
111848 Par ch=5 c=11 v=51
111856 Par ch=5 c=11 v=50
111864 Par ch=5 c=11 v=49
111872 Par ch=5 c=11 v=48
111880 Par ch=5 c=11 v=47
111888 Par ch=5 c=11 v=46
111896 Par ch=5 c=11 v=45
111904 Par ch=5 c=11 v=44
111912 Par ch=5 c=11 v=43
111920 Par ch=5 c=11 v=42
111928 Par ch=5 c=11 v=41
111936 Par ch=5 c=11 v=40
111940 Par ch=5 c=11 v=39
111948 Par ch=5 c=11 v=38
111956 Par ch=5 c=11 v=37
111964 Par ch=5 c=11 v=36
111972 Par ch=5 c=11 v=35
111980 Par ch=5 c=11 v=34
111988 Par ch=5 c=11 v=33
111996 Par ch=5 c=11 v=32
112004 Par ch=5 c=11 v=31
112012 Par ch=5 c=11 v=30
112020 Par ch=5 c=11 v=29
112028 Par ch=5 c=11 v=28
112036 Par ch=5 c=11 v=27
112044 Par ch=5 c=11 v=26
112051 On ch=5 n=78 v=0
112051 On ch=5 n=81 v=0
112052 Par ch=5 c=11 v=25
112060 Par ch=5 c=11 v=24
112068 Par ch=5 c=11 v=23
112076 Par ch=5 c=11 v=22
112084 Par ch=5 c=11 v=21
112092 Par ch=5 c=11 v=20
112100 Par ch=5 c=11 v=19
112108 Par ch=5 c=11 v=18
112116 Par ch=5 c=11 v=17
112124 Par ch=5 c=11 v=16
112224 Par ch=5 c=11 v=64
112224 On ch=5 n=90 v=111
112244 Par ch=5 c=11 v=63
112250 On ch=5 n=90 v=0
112256 On ch=5 n=89 v=111
112260 Par ch=5 c=11 v=62
112276 Par ch=5 c=11 v=61
112282 On ch=5 n=89 v=0
112288 On ch=5 n=87 v=111
112292 Par ch=5 c=11 v=60
112312 Par ch=5 c=11 v=59
112314 On ch=5 n=87 v=0
112320 On ch=5 n=87 v=111
112328 Par ch=5 c=11 v=58
112344 Par ch=5 c=11 v=57
112346 On ch=5 n=87 v=0
112352 On ch=5 n=85 v=111
112360 Par ch=5 c=11 v=56
112378 On ch=5 n=85 v=0
112380 Par ch=5 c=11 v=55
112384 On ch=5 n=83 v=111
112396 Par ch=5 c=11 v=54
112410 On ch=5 n=83 v=0
112412 Par ch=5 c=11 v=53
112416 On ch=5 n=82 v=111
112428 Par ch=5 c=11 v=52
112442 On ch=5 n=82 v=0
112448 Par ch=5 c=11 v=51
112448 On ch=5 n=78 v=111
112464 Par ch=5 c=11 v=50
112474 On ch=5 n=78 v=0
112480 Par ch=5 c=11 v=49
112480 On ch=5 n=82 v=111
112496 Par ch=5 c=11 v=48
112501 On ch=5 n=82 v=0
112512 Par ch=5 c=11 v=64
112512 On ch=5 n=81 v=111
112520 Par ch=5 c=11 v=63
112528 Par ch=5 c=11 v=62
112536 Par ch=5 c=11 v=61
112544 Par ch=5 c=11 v=60
112552 Par ch=5 c=11 v=59
112560 Par ch=5 c=11 v=58
112568 Par ch=5 c=11 v=57
112576 Par ch=5 c=11 v=56
112584 Par ch=5 c=11 v=55
112592 Par ch=5 c=11 v=54
112600 Par ch=5 c=11 v=53
112608 Par ch=5 c=11 v=52
112616 Par ch=5 c=11 v=51
112624 Par ch=5 c=11 v=50
112632 Par ch=5 c=11 v=49
112640 Par ch=5 c=11 v=48
112648 Par ch=5 c=11 v=47
112656 Par ch=5 c=11 v=46
112664 Par ch=5 c=11 v=45
112672 Par ch=5 c=11 v=44
112680 Par ch=5 c=11 v=43
112688 Par ch=5 c=11 v=42
112696 Par ch=5 c=11 v=41
112704 Par ch=5 c=11 v=40
112708 Par ch=5 c=11 v=39
112716 Par ch=5 c=11 v=38
112724 Par ch=5 c=11 v=37
112732 Par ch=5 c=11 v=36
112740 Par ch=5 c=11 v=35
112748 Par ch=5 c=11 v=34
112756 Par ch=5 c=11 v=33
112764 Par ch=5 c=11 v=32
112772 Par ch=5 c=11 v=31
112780 Par ch=5 c=11 v=30
112788 Par ch=5 c=11 v=29
112796 Par ch=5 c=11 v=28
112804 Par ch=5 c=11 v=27
112812 Par ch=5 c=11 v=26
112819 On ch=5 n=81 v=0
112820 Par ch=5 c=11 v=25
112828 Par ch=5 c=11 v=24
112836 Par ch=5 c=11 v=23
112844 Par ch=5 c=11 v=22
112852 Par ch=5 c=11 v=21
112860 Par ch=5 c=11 v=20
112868 Par ch=5 c=11 v=19
112876 Par ch=5 c=11 v=18
112884 Par ch=5 c=11 v=17
112892 Par ch=5 c=11 v=16
112992 Par ch=5 c=11 v=64
112992 On ch=5 n=90 v=111
113012 Par ch=5 c=11 v=63
113018 On ch=5 n=90 v=0
113024 On ch=5 n=89 v=111
113028 Par ch=5 c=11 v=62
113044 Par ch=5 c=11 v=61
113050 On ch=5 n=89 v=0
113056 On ch=5 n=87 v=111
113060 Par ch=5 c=11 v=60
113080 Par ch=5 c=11 v=59
113082 On ch=5 n=87 v=0
113088 On ch=5 n=87 v=111
113096 Par ch=5 c=11 v=58
113112 Par ch=5 c=11 v=57
113114 On ch=5 n=87 v=0
113120 On ch=5 n=85 v=111
113128 Par ch=5 c=11 v=56
113146 On ch=5 n=85 v=0
113148 Par ch=5 c=11 v=55
113152 On ch=5 n=83 v=111
113164 Par ch=5 c=11 v=54
113178 On ch=5 n=83 v=0
113180 Par ch=5 c=11 v=53
113184 On ch=5 n=82 v=111
113196 Par ch=5 c=11 v=52
113210 On ch=5 n=82 v=0
113216 Par ch=5 c=11 v=51
113216 On ch=5 n=78 v=111
113232 Par ch=5 c=11 v=50
113242 On ch=5 n=78 v=0
113248 Par ch=5 c=11 v=49
113248 On ch=5 n=82 v=111
113264 Par ch=5 c=11 v=48
113269 On ch=5 n=82 v=0
113280 Par ch=5 c=11 v=64
113280 On ch=5 n=83 v=111
113328 On ch=5 n=80 v=111
113357 On ch=5 n=83 v=0
113366 On ch=5 n=80 v=0
113376 On ch=5 n=74 v=111
113376 On ch=5 n=82 v=127
113414 On ch=5 n=74 v=0
113453 On ch=5 n=82 v=0
113472 On ch=5 n=81 v=111
113520 On ch=5 n=78 v=111
113549 On ch=5 n=81 v=0
113558 On ch=5 n=78 v=0
113568 On ch=5 n=74 v=111
113568 On ch=5 n=82 v=127
113606 On ch=5 n=74 v=0
113645 On ch=5 n=82 v=0
113664 Par ch=5 c=11 v=64
113664 On ch=5 n=85 v=111
113688 Par ch=5 c=11 v=65
113712 Par ch=5 c=11 v=66
113712 On ch=5 n=82 v=111
113732 Par ch=5 c=11 v=67
113741 On ch=5 n=85 v=0
113750 On ch=5 n=82 v=0
113756 Par ch=5 c=11 v=68
113760 On ch=5 n=76 v=111
113760 On ch=5 n=84 v=127
113780 Par ch=5 c=11 v=69
113798 On ch=5 n=76 v=0
113800 Par ch=5 c=11 v=70
113824 Par ch=5 c=11 v=71
113837 On ch=5 n=84 v=0
113848 Par ch=5 c=11 v=72
113856 On ch=5 n=83 v=111
113868 Par ch=5 c=11 v=73
113892 Par ch=5 c=11 v=74
113904 On ch=5 n=77 v=111
113916 Par ch=5 c=11 v=75
113933 On ch=5 n=83 v=0
113936 Par ch=5 c=11 v=76
113942 On ch=5 n=77 v=0
113952 On ch=5 n=80 v=111
113952 On ch=5 n=84 v=127
113960 Par ch=5 c=11 v=77
113984 Par ch=5 c=11 v=78
113990 On ch=5 n=80 v=0
114004 Par ch=5 c=11 v=79
114028 Par ch=5 c=11 v=80
114029 On ch=5 n=84 v=0
114048 Par ch=5 c=11 v=64
114048 On ch=5 n=87 v=111
114125 On ch=5 n=87 v=0
114144 On ch=5 n=86 v=111
114259 On ch=5 n=86 v=0
114288 On ch=5 n=90 v=111
114326 On ch=5 n=90 v=0
114336 On ch=5 n=89 v=111
114374 On ch=5 n=89 v=0
114384 On ch=5 n=80 v=111
114422 On ch=5 n=80 v=0
114432 Par ch=5 c=11 v=64
114432 On ch=5 n=80 v=111
114444 Par ch=5 c=11 v=63
114456 Par ch=5 c=11 v=62
114468 Par ch=5 c=11 v=61
114470 On ch=5 n=80 v=0
114480 Par ch=5 c=11 v=60
114480 On ch=5 n=79 v=111
114492 Par ch=5 c=11 v=59
114500 Par ch=5 c=11 v=58
114512 Par ch=5 c=11 v=57
114518 On ch=5 n=79 v=0
114524 Par ch=5 c=11 v=56
114528 On ch=5 n=89 v=111
114536 Par ch=5 c=11 v=55
114548 Par ch=5 c=11 v=54
114560 Par ch=5 c=11 v=53
114566 On ch=5 n=89 v=0
114568 Par ch=5 c=11 v=52
114576 On ch=5 n=87 v=111
114580 Par ch=5 c=11 v=51
114592 Par ch=5 c=11 v=50
114604 Par ch=5 c=11 v=49
114614 On ch=5 n=87 v=0
114616 Par ch=5 c=11 v=48
114624 Par ch=5 c=11 v=47
114624 On ch=5 n=78 v=111
114636 Par ch=5 c=11 v=46
114648 Par ch=5 c=11 v=45
114660 Par ch=5 c=11 v=44
114662 On ch=5 n=78 v=0
114672 Par ch=5 c=11 v=43
114672 On ch=5 n=86 v=111
114684 Par ch=5 c=11 v=42
114692 Par ch=5 c=11 v=41
114704 Par ch=5 c=11 v=40
114710 On ch=5 n=86 v=0
114716 Par ch=5 c=11 v=39
114720 On ch=5 n=85 v=111
114728 Par ch=5 c=11 v=38
114740 Par ch=5 c=11 v=37
114752 Par ch=5 c=11 v=36
114758 On ch=5 n=85 v=0
114760 Par ch=5 c=11 v=35
114768 On ch=5 n=77 v=111
114772 Par ch=5 c=11 v=34
114784 Par ch=5 c=11 v=33
114796 Par ch=5 c=11 v=32
114806 On ch=5 n=77 v=0
114816 Par ch=5 c=11 v=32
114816 On ch=5 n=77 v=111
114828 Par ch=5 c=11 v=33
114840 Par ch=5 c=11 v=34
114852 Par ch=5 c=11 v=35
114854 On ch=5 n=77 v=0
114864 Par ch=5 c=11 v=36
114864 On ch=5 n=76 v=111
114876 Par ch=5 c=11 v=37
114888 Par ch=5 c=11 v=38
114900 Par ch=5 c=11 v=39
114902 On ch=5 n=76 v=0
114912 Par ch=5 c=11 v=40
114912 On ch=5 n=84 v=111
114924 Par ch=5 c=11 v=41
114936 Par ch=5 c=11 v=42
114944 Par ch=5 c=11 v=43
114950 On ch=5 n=84 v=0
114956 Par ch=5 c=11 v=44
114960 On ch=5 n=83 v=111
114968 Par ch=5 c=11 v=45
114980 Par ch=5 c=11 v=46
114992 Par ch=5 c=11 v=47
114998 On ch=5 n=83 v=0
115004 Par ch=5 c=11 v=48
115008 On ch=5 n=75 v=111
115016 Par ch=5 c=11 v=49
115028 Par ch=5 c=11 v=50
115040 Par ch=5 c=11 v=51
115046 On ch=5 n=75 v=0
115052 Par ch=5 c=11 v=52
115056 On ch=5 n=74 v=111
115064 Par ch=5 c=11 v=53
115072 Par ch=5 c=11 v=54
115084 Par ch=5 c=11 v=55
115094 On ch=5 n=74 v=0
115096 Par ch=5 c=11 v=56
115104 On ch=5 n=82 v=111
115108 Par ch=5 c=11 v=57
115120 Par ch=5 c=11 v=58
115132 Par ch=5 c=11 v=59
115142 On ch=5 n=82 v=0
115144 Par ch=5 c=11 v=60
115152 On ch=5 n=81 v=111
115156 Par ch=5 c=11 v=61
115168 Par ch=5 c=11 v=62
115180 Par ch=5 c=11 v=63
115190 On ch=5 n=81 v=0
115192 Par ch=5 c=11 v=64
115200 Par ch=5 c=11 v=64
115200 On ch=5 n=80 v=111
115212 Par ch=5 c=11 v=63
115224 Par ch=5 c=11 v=62
115236 Par ch=5 c=11 v=61
115248 Par ch=5 c=11 v=60
115260 Par ch=5 c=11 v=59
115268 Par ch=5 c=11 v=58
115280 Par ch=5 c=11 v=57
115292 Par ch=5 c=11 v=56
115304 Par ch=5 c=11 v=55
115316 Par ch=5 c=11 v=54
115328 Par ch=5 c=11 v=53
115336 Par ch=5 c=11 v=52
115348 Par ch=5 c=11 v=51
115352 On ch=5 n=80 v=0
115360 Par ch=5 c=11 v=50
115372 Par ch=5 c=11 v=49
115384 Par ch=5 c=11 v=48
115392 Par ch=5 c=11 v=47
115392 On ch=5 n=78 v=111
115404 Par ch=5 c=11 v=46
115416 Par ch=5 c=11 v=45
115428 Par ch=5 c=11 v=44
115440 Par ch=5 c=11 v=43
115452 Par ch=5 c=11 v=42
115460 Par ch=5 c=11 v=41
115472 Par ch=5 c=11 v=40
115484 Par ch=5 c=11 v=39
115496 Par ch=5 c=11 v=38
115508 Par ch=5 c=11 v=37
115520 Par ch=5 c=11 v=36
115528 Par ch=5 c=11 v=35
115540 Par ch=5 c=11 v=34
115544 On ch=5 n=78 v=0
115552 Par ch=5 c=11 v=33
115564 Par ch=5 c=11 v=32
115584 Par ch=5 c=11 v=32
115584 On ch=5 n=78 v=111
115596 Par ch=5 c=11 v=33
115608 Par ch=5 c=11 v=34
115620 Par ch=5 c=11 v=35
115632 Par ch=5 c=11 v=36
115644 Par ch=5 c=11 v=37
115656 Par ch=5 c=11 v=38
115660 On ch=5 n=78 v=0
115668 Par ch=5 c=11 v=39
115680 Par ch=5 c=11 v=40
115680 On ch=5 n=76 v=111
115692 Par ch=5 c=11 v=41
115704 Par ch=5 c=11 v=42
115712 Par ch=5 c=11 v=43
115724 Par ch=5 c=11 v=44
115736 Par ch=5 c=11 v=45
115748 Par ch=5 c=11 v=46
115756 On ch=5 n=76 v=0
115760 Par ch=5 c=11 v=47
115772 Par ch=5 c=11 v=48
115776 On ch=5 n=75 v=111
115784 Par ch=5 c=11 v=49
115796 Par ch=5 c=11 v=50
115808 Par ch=5 c=11 v=51
115820 Par ch=5 c=11 v=52
115832 Par ch=5 c=11 v=53
115840 Par ch=5 c=11 v=54
115852 On ch=5 n=75 v=0
115852 Par ch=5 c=11 v=55
115864 Par ch=5 c=11 v=56
115872 On ch=5 n=74 v=111
115876 Par ch=5 c=11 v=57
115888 Par ch=5 c=11 v=58
115900 Par ch=5 c=11 v=59
115912 Par ch=5 c=11 v=60
115924 Par ch=5 c=11 v=61
115936 Par ch=5 c=11 v=62
115948 On ch=5 n=74 v=0
115948 Par ch=5 c=11 v=63
115960 Par ch=5 c=11 v=64
115968 Par ch=5 c=11 v=64
115968 On ch=5 n=80 v=111
115992 Par ch=5 c=11 v=63
116016 Par ch=5 c=11 v=62
116036 Par ch=5 c=11 v=61
116060 Par ch=5 c=11 v=60
116084 Par ch=5 c=11 v=59
116104 Par ch=5 c=11 v=58
116120 On ch=5 n=80 v=0
116128 Par ch=5 c=11 v=57
116152 Par ch=5 c=11 v=56
116160 On ch=5 n=78 v=111
116172 Par ch=5 c=11 v=55
116196 Par ch=5 c=11 v=54
116220 Par ch=5 c=11 v=53
116240 Par ch=5 c=11 v=52
116264 Par ch=5 c=11 v=51
116288 Par ch=5 c=11 v=50
116308 Par ch=5 c=11 v=49
116312 On ch=5 n=78 v=0
116332 Par ch=5 c=11 v=48
116352 Par ch=5 c=11 v=47
116352 On ch=5 n=78 v=111
116376 Par ch=5 c=11 v=46
116400 Par ch=5 c=11 v=45
116420 Par ch=5 c=11 v=44
116428 On ch=5 n=78 v=0
116444 Par ch=5 c=11 v=43
116448 Par ch=5 c=0 v=0
116448 Par ch=5 c=32 v=0
116448 PrCh ch=5 p=48
116448 On ch=5 n=77 v=111
116468 Par ch=5 c=11 v=42
116488 Par ch=5 c=11 v=41
116512 Par ch=5 c=11 v=40
116524 On ch=5 n=77 v=0
116536 Par ch=5 c=11 v=39
116544 On ch=5 n=76 v=111
116556 Par ch=5 c=11 v=38
116580 Par ch=5 c=11 v=37
116604 Par ch=5 c=11 v=36
116620 On ch=5 n=76 v=0
116624 Par ch=5 c=11 v=35
116640 On ch=5 n=75 v=111
116648 Par ch=5 c=11 v=34
116672 Par ch=5 c=11 v=33
116692 Par ch=5 c=11 v=32
116716 On ch=5 n=75 v=0
116736 Par ch=5 c=0 v=0
116736 Par ch=5 c=32 v=0
116736 PrCh ch=5 p=45
116736 Par ch=5 c=11 v=64
116736 On ch=5 n=70 v=95
116762 On ch=5 n=70 v=0
116768 On ch=5 n=70 v=95
116794 On ch=5 n=70 v=0
116800 On ch=5 n=70 v=95
116826 On ch=5 n=70 v=0
116832 On ch=5 n=58 v=95
116858 On ch=5 n=58 v=0
116864 On ch=5 n=58 v=95
116890 On ch=5 n=58 v=0
116896 On ch=5 n=58 v=95
116922 On ch=5 n=58 v=0
116928 On ch=5 n=63 v=95
116954 On ch=5 n=63 v=0
116960 On ch=5 n=63 v=95
116986 On ch=5 n=63 v=0
116992 On ch=5 n=63 v=95
117018 On ch=5 n=63 v=0
117024 On ch=5 n=70 v=95
117050 On ch=5 n=70 v=0
117056 On ch=5 n=70 v=95
117082 On ch=5 n=70 v=0
117088 On ch=5 n=70 v=95
117114 On ch=5 n=70 v=0
117120 On ch=5 n=75 v=95
117146 On ch=5 n=75 v=0
117152 On ch=5 n=75 v=95
117178 On ch=5 n=75 v=0
117184 On ch=5 n=75 v=95
117210 On ch=5 n=75 v=0
117216 On ch=5 n=58 v=95
117242 On ch=5 n=58 v=0
117248 On ch=5 n=58 v=95
117274 On ch=5 n=58 v=0
117280 On ch=5 n=58 v=95
117306 On ch=5 n=58 v=0
117312 On ch=5 n=63 v=95
117338 On ch=5 n=63 v=0
117344 On ch=5 n=63 v=95
117370 On ch=5 n=63 v=0
117376 On ch=5 n=63 v=95
117402 On ch=5 n=63 v=0
117408 On ch=5 n=70 v=95
117434 On ch=5 n=70 v=0
117440 On ch=5 n=70 v=95
117466 On ch=5 n=70 v=0
117472 On ch=5 n=70 v=95
117498 On ch=5 n=70 v=0
117504 On ch=5 n=75 v=95
117530 On ch=5 n=75 v=0
117536 On ch=5 n=75 v=95
117562 On ch=5 n=75 v=0
117568 On ch=5 n=75 v=95
117594 On ch=5 n=75 v=0
117600 Par ch=5 c=0 v=0
117600 Par ch=5 c=32 v=0
117600 PrCh ch=5 p=48
117760 On ch=5 n=78 v=100
117781 On ch=5 n=78 v=0
117792 On ch=5 n=80 v=100
117813 On ch=5 n=80 v=0
117824 On ch=5 n=78 v=100
117845 On ch=5 n=78 v=0
117856 On ch=5 n=77 v=100
117877 On ch=5 n=77 v=0
117888 On ch=5 n=78 v=100
117926 On ch=5 n=78 v=0
117960 On ch=5 n=75 v=100
117979 On ch=5 n=75 v=0
117984 On ch=5 n=66 v=100
118022 On ch=5 n=66 v=0
118176 On ch=5 n=77 v=100
118197 On ch=5 n=77 v=0
118208 On ch=5 n=78 v=100
118229 On ch=5 n=78 v=0
118240 On ch=5 n=80 v=100
118261 On ch=5 n=80 v=0
118272 On ch=5 n=82 v=100
118368 On ch=5 n=82 v=0
118368 On ch=5 n=78 v=100
118399 On ch=5 n=78 v=0
118440 On ch=5 n=80 v=100
118456 On ch=5 n=80 v=0
118464 On ch=5 n=82 v=100
118560 On ch=5 n=82 v=0
118560 On ch=5 n=85 v=100
118591 On ch=5 n=85 v=0
118632 On ch=5 n=83 v=100
118648 On ch=5 n=83 v=0
118656 On ch=5 n=82 v=100
118733 On ch=5 n=82 v=0
118752 On ch=5 n=75 v=100
118829 On ch=5 n=75 v=0
118944 On ch=5 n=85 v=100
118975 On ch=5 n=85 v=0
119016 On ch=5 n=83 v=100
119032 On ch=5 n=83 v=0
119040 On ch=5 n=82 v=100
119117 On ch=5 n=82 v=0
119136 On ch=5 n=87 v=100
119213 On ch=5 n=87 v=0
119328 On ch=5 n=90 v=100
119366 On ch=5 n=90 v=0
119400 On ch=5 n=89 v=100
119419 On ch=5 n=89 v=0
119424 On ch=5 n=86 v=100
119472 On ch=5 n=86 v=0
119472 On ch=5 n=87 v=100
119510 On ch=5 n=87 v=0
119520 On ch=5 n=78 v=100
119558 On ch=5 n=78 v=0
119592 On ch=5 n=80 v=100
119611 On ch=5 n=80 v=0
119616 On ch=5 n=82 v=100
119693 On ch=5 n=82 v=0
119712 On ch=5 n=85 v=100
119750 On ch=5 n=85 v=0
119784 On ch=5 n=83 v=100
119803 On ch=5 n=83 v=0
119808 On ch=5 n=82 v=100
119885 On ch=5 n=82 v=0
119904 On ch=5 n=75 v=100
119981 On ch=5 n=75 v=0
120048 On ch=5 n=75 v=100
120096 On ch=5 n=75 v=0
120096 On ch=5 n=92 v=100
120134 On ch=5 n=92 v=0
120168 On ch=5 n=88 v=100
120187 On ch=5 n=88 v=0
120192 On ch=5 n=86 v=100
120240 On ch=5 n=86 v=0
120240 On ch=5 n=87 v=100
120278 On ch=5 n=87 v=0
120288 On ch=5 n=80 v=100
120326 On ch=5 n=80 v=0
120360 On ch=5 n=82 v=100
120379 On ch=5 n=82 v=0
120384 On ch=5 n=83 v=100
120461 On ch=5 n=83 v=0
120480 On ch=5 n=89 v=100
120518 On ch=5 n=89 v=0
120552 On ch=5 n=87 v=100
120571 On ch=5 n=87 v=0
120576 On ch=5 n=85 v=100
120614 On ch=5 n=85 v=0
120648 On ch=5 n=80 v=100
120672 On ch=5 n=80 v=0
120672 On ch=5 n=89 v=100
120710 On ch=5 n=89 v=0
120744 On ch=5 n=87 v=100
120763 On ch=5 n=87 v=0
120768 On ch=5 n=85 v=100
120806 On ch=5 n=85 v=0
120840 On ch=5 n=83 v=100
120864 On ch=5 n=83 v=0
120864 On ch=5 n=93 v=100
120902 On ch=5 n=93 v=0
120936 On ch=5 n=91 v=100
120955 On ch=5 n=91 v=0
120960 On ch=5 n=90 v=100
120998 On ch=5 n=90 v=0
121032 On ch=5 n=84 v=100
121056 On ch=5 n=84 v=0
121056 On ch=5 n=93 v=100
121094 On ch=5 n=93 v=0
121128 On ch=5 n=91 v=100
121147 On ch=5 n=91 v=0
121152 On ch=5 n=90 v=100
121190 On ch=5 n=90 v=0
121224 On ch=5 n=84 v=100
121248 On ch=5 n=84 v=0
121248 On ch=5 n=99 v=100
121286 On ch=5 n=99 v=0
121320 On ch=5 n=98 v=100
121336 On ch=5 n=98 v=0
121344 On ch=5 n=97 v=100
121375 On ch=5 n=97 v=0
121416 On ch=5 n=96 v=100
121432 On ch=5 n=96 v=0
121440 On ch=5 n=95 v=100
121471 On ch=5 n=95 v=0
121512 On ch=5 n=94 v=100
121528 On ch=5 n=94 v=0
121536 On ch=5 n=93 v=100
121567 On ch=5 n=93 v=0
121608 On ch=5 n=92 v=100
121624 On ch=5 n=92 v=0
121632 On ch=5 n=91 v=100
121663 On ch=5 n=91 v=0
121704 On ch=5 n=90 v=100
121720 On ch=5 n=90 v=0
121728 On ch=5 n=95 v=100
121759 On ch=5 n=95 v=0
121800 On ch=5 n=94 v=100
121816 On ch=5 n=94 v=0
121824 On ch=5 n=93 v=100
121855 On ch=5 n=93 v=0
121896 On ch=5 n=92 v=100
121912 On ch=5 n=92 v=0
121920 On ch=5 n=91 v=100
121951 On ch=5 n=91 v=0
121992 On ch=5 n=90 v=100
122008 On ch=5 n=90 v=0
122016 On ch=5 n=89 v=100
122047 On ch=5 n=89 v=0
122088 On ch=5 n=88 v=100
122104 On ch=5 n=88 v=0
122112 On ch=5 n=93 v=100
122138 On ch=5 n=93 v=0
122144 On ch=5 n=92 v=100
122170 On ch=5 n=92 v=0
122176 On ch=5 n=91 v=100
122202 On ch=5 n=91 v=0
122208 On ch=5 n=90 v=100
122234 On ch=5 n=90 v=0
122240 On ch=5 n=89 v=100
122266 On ch=5 n=89 v=0
122272 On ch=5 n=88 v=100
122298 On ch=5 n=88 v=0
122304 On ch=5 n=87 v=100
122330 On ch=5 n=87 v=0
122336 On ch=5 n=86 v=100
122362 On ch=5 n=86 v=0
122368 On ch=5 n=85 v=100
122394 On ch=5 n=85 v=0
122400 On ch=5 n=84 v=100
122426 On ch=5 n=84 v=0
122432 On ch=5 n=83 v=100
122458 On ch=5 n=83 v=0
122464 On ch=5 n=82 v=100
122490 On ch=5 n=82 v=0
122496 Par ch=5 c=0 v=0
122496 Par ch=5 c=32 v=0
122496 PrCh ch=5 p=44
122496 On ch=5 n=81 v=100
122522 On ch=5 n=81 v=0
122528 On ch=5 n=80 v=100
122554 On ch=5 n=80 v=0
122560 On ch=5 n=79 v=100
122586 On ch=5 n=79 v=0
122592 On ch=5 n=78 v=100
122618 On ch=5 n=78 v=0
122624 On ch=5 n=77 v=100
122650 On ch=5 n=77 v=0
122656 On ch=5 n=76 v=100
122682 On ch=5 n=76 v=0
122688 On ch=5 n=75 v=100
122714 On ch=5 n=75 v=0
122720 On ch=5 n=74 v=100
122746 On ch=5 n=74 v=0
122752 On ch=5 n=73 v=100
122778 On ch=5 n=73 v=0
122784 On ch=5 n=72 v=100
122810 On ch=5 n=72 v=0
122816 On ch=5 n=70 v=100
122842 On ch=5 n=70 v=0
122848 On ch=5 n=69 v=100
122874 On ch=5 n=69 v=0
122880 Par ch=5 c=0 v=0
122880 Par ch=5 c=32 v=0
122880 PrCh ch=5 p=48
122880 On ch=5 n=67 v=100
122918 On ch=5 n=67 v=0
123264 On ch=5 n=79 v=100
123264 On ch=5 n=67 v=100
123283 On ch=5 n=67 v=0
123283 On ch=5 n=79 v=0
123360 On ch=5 n=79 v=100
123360 On ch=5 n=91 v=100
123379 On ch=5 n=91 v=0
123379 On ch=5 n=79 v=0
124032 On ch=5 n=67 v=100
124038 On ch=5 n=79 v=100
124044 On ch=5 n=67 v=0
124054 On ch=5 n=79 v=0
124128 On ch=5 n=79 v=100
124134 On ch=5 n=91 v=100
124140 On ch=5 n=79 v=0
124150 On ch=5 n=91 v=0
124800 Par ch=5 c=0 v=0
124800 Par ch=5 c=32 v=0
124800 PrCh ch=5 p=45
124800 On ch=5 n=79 v=127
124800 On ch=5 n=72 v=127
124800 On ch=5 n=63 v=127
124819 On ch=5 n=63 v=0
124819 On ch=5 n=72 v=0
124819 On ch=5 n=79 v=0
125952 Par ch=5 c=11 v=64
125952 Par ch=5 c=0 v=0
125952 Par ch=5 c=32 v=0
125952 PrCh ch=5 p=44
125952 On ch=5 n=79 v=63
125960 Par ch=5 c=11 v=65
125968 Par ch=5 c=11 v=66
125972 Par ch=5 c=11 v=67
125980 Par ch=5 c=11 v=68
125984 Par ch=5 c=11 v=69
125992 Par ch=5 c=11 v=70
125996 Par ch=5 c=11 v=71
126004 Par ch=5 c=11 v=72
126008 Par ch=5 c=11 v=73
126016 Par ch=5 c=11 v=74
126020 Par ch=5 c=11 v=75
126028 Par ch=5 c=11 v=76
126032 Par ch=5 c=11 v=77
126040 Par ch=5 c=11 v=78
126044 Par ch=5 c=11 v=79
126052 Par ch=5 c=11 v=80
126056 Par ch=5 c=11 v=81
126064 Par ch=5 c=11 v=82
126068 Par ch=5 c=11 v=83
126076 Par ch=5 c=11 v=84
126080 Par ch=5 c=11 v=85
126088 Par ch=5 c=11 v=86
126096 Par ch=5 c=11 v=87
126100 Par ch=5 c=11 v=88
126108 Par ch=5 c=11 v=89
126112 Par ch=5 c=11 v=90
126120 Par ch=5 c=11 v=91
126124 Par ch=5 c=11 v=92
126132 Par ch=5 c=11 v=93
126136 Par ch=5 c=11 v=94
126144 Par ch=5 c=11 v=95
126148 Par ch=5 c=11 v=96
126156 Par ch=5 c=11 v=97
126160 Par ch=5 c=11 v=98
126168 Par ch=5 c=11 v=99
126172 Par ch=5 c=11 v=100
126180 Par ch=5 c=11 v=101
126184 Par ch=5 c=11 v=102
126192 Par ch=5 c=11 v=103
126196 Par ch=5 c=11 v=104
126204 Par ch=5 c=11 v=105
126208 Par ch=5 c=11 v=106
126216 Par ch=5 c=11 v=107
126224 Par ch=5 c=11 v=108
126228 Par ch=5 c=11 v=109
126236 Par ch=5 c=11 v=110
126240 Par ch=5 c=11 v=111
126248 Par ch=5 c=11 v=112
126252 Par ch=5 c=11 v=113
126259 On ch=5 n=79 v=0
126260 Par ch=5 c=11 v=114
126264 Par ch=5 c=11 v=115
126272 Par ch=5 c=11 v=116
126276 Par ch=5 c=11 v=117
126284 Par ch=5 c=11 v=118
126288 Par ch=5 c=11 v=119
126296 Par ch=5 c=11 v=120
126300 Par ch=5 c=11 v=121
126308 Par ch=5 c=11 v=122
126312 Par ch=5 c=11 v=123
126320 Par ch=5 c=11 v=124
126324 Par ch=5 c=11 v=125
126332 Par ch=5 c=11 v=126
126336 Par ch=5 c=0 v=0
126336 Par ch=5 c=32 v=0
126336 PrCh ch=5 p=48
126336 Par ch=5 c=11 v=64
126336 On ch=5 n=72 v=127
126339 On ch=5 n=79 v=127
126342 On ch=5 n=84 v=127
126360 On ch=5 n=72 v=0
126363 On ch=5 n=79 v=0
126373 On ch=5 n=84 v=0
126384 On ch=5 n=72 v=127
126422 On ch=5 n=72 v=0
127104 On ch=5 n=63 v=127
127123 On ch=5 n=63 v=0
127128 On ch=5 n=62 v=127
127147 On ch=5 n=62 v=0
127152 On ch=5 n=63 v=127
127171 On ch=5 n=63 v=0
127176 On ch=5 n=65 v=127
127195 On ch=5 n=65 v=0
127200 On ch=5 n=67 v=127
127238 On ch=5 n=67 v=0
127320 On ch=5 n=60 v=127
127339 On ch=5 n=60 v=0
127344 On ch=5 n=62 v=127
127363 On ch=5 n=62 v=0
127368 On ch=5 n=63 v=127
127387 On ch=5 n=63 v=0
127392 On ch=5 n=65 v=127
127411 On ch=5 n=65 v=0
127416 On ch=5 n=67 v=127
127435 On ch=5 n=67 v=0
127440 On ch=5 n=69 v=127
127459 On ch=5 n=69 v=0
127464 On ch=5 n=71 v=127
127483 On ch=5 n=71 v=0
127488 On ch=5 n=72 v=127
127519 On ch=5 n=72 v=0
127560 On ch=5 n=67 v=127
127576 On ch=5 n=67 v=0
127584 On ch=5 n=60 v=127
127622 On ch=5 n=60 v=0
127824 On ch=5 n=55 v=95
127855 On ch=5 n=55 v=0
127872 Par ch=5 c=11 v=64
127872 On ch=5 n=60 v=95
127876 Par ch=5 c=11 v=63
127880 Par ch=5 c=11 v=62
127884 Par ch=5 c=11 v=61
127888 Par ch=5 c=11 v=60
127892 Par ch=5 c=11 v=59
127896 Par ch=5 c=11 v=58
127900 Par ch=5 c=11 v=57
127904 Par ch=5 c=11 v=56
127908 Par ch=5 c=11 v=55
127910 On ch=5 n=60 v=0
127912 Par ch=5 c=11 v=54
127916 Par ch=5 c=11 v=53
127920 Par ch=5 c=11 v=52
127924 Par ch=5 c=11 v=51
127928 Par ch=5 c=11 v=50
127932 Par ch=5 c=11 v=49
127936 Par ch=5 c=11 v=48
127940 Par ch=5 c=11 v=47
127944 Par ch=5 c=11 v=46
127944 On ch=5 n=55 v=95
127948 Par ch=5 c=11 v=45
127952 Par ch=5 c=11 v=44
127956 Par ch=5 c=11 v=43
127960 Par ch=5 c=11 v=42
127963 On ch=5 n=55 v=0
127964 Par ch=5 c=11 v=41
127968 Par ch=5 c=11 v=40
127968 On ch=5 n=60 v=95
127972 Par ch=5 c=11 v=39
127976 Par ch=5 c=11 v=38
127980 Par ch=5 c=11 v=37
127984 Par ch=5 c=11 v=36
127988 Par ch=5 c=11 v=35
127992 Par ch=5 c=11 v=34
127996 Par ch=5 c=11 v=33
128000 Par ch=5 c=11 v=32
128004 Par ch=5 c=11 v=31
128006 On ch=5 n=60 v=0
128008 Par ch=5 c=11 v=30
128012 Par ch=5 c=11 v=29
128016 Par ch=5 c=11 v=28
128020 Par ch=5 c=11 v=27
128024 Par ch=5 c=11 v=26
128028 Par ch=5 c=11 v=25
128032 Par ch=5 c=11 v=24
128036 Par ch=5 c=11 v=23
128040 Par ch=5 c=11 v=22
128040 On ch=5 n=55 v=95
128044 Par ch=5 c=11 v=21
128048 Par ch=5 c=11 v=20
128052 Par ch=5 c=11 v=19
128056 Par ch=5 c=11 v=18
128059 On ch=5 n=55 v=0
128060 Par ch=5 c=11 v=17
128064 On ch=5 n=60 v=95
128141 On ch=5 n=60 v=0
128256 Par ch=5 c=0 v=0
128256 Par ch=5 c=32 v=0
128256 PrCh ch=5 p=44
128256 Par ch=5 c=11 v=64
128256 On ch=5 n=55 v=47
128256 On ch=5 n=67 v=47
130867 On ch=5 n=67 v=0
130867 On ch=5 n=55 v=0
130944 Par ch=5 c=0 v=0
130944 Par ch=5 c=32 v=0
130944 PrCh ch=5 p=48
130944 On ch=5 n=67 v=31
130982 On ch=5 n=67 v=0
131016 On ch=5 n=62 v=31
131035 On ch=5 n=62 v=0
131040 On ch=5 n=55 v=31
131078 On ch=5 n=55 v=0
131168 On ch=5 n=65 v=31
131189 On ch=5 n=65 v=0
131200 On ch=5 n=67 v=31
131221 On ch=5 n=67 v=0
131232 On ch=5 n=68 v=31
131253 On ch=5 n=68 v=0
131264 On ch=5 n=65 v=31
131285 On ch=5 n=65 v=0
131296 On ch=5 n=74 v=31
131317 On ch=5 n=74 v=0
131328 On ch=5 n=67 v=31
131366 On ch=5 n=67 v=0
131400 On ch=5 n=62 v=31
131419 On ch=5 n=62 v=0
131424 On ch=5 n=55 v=31
131462 On ch=5 n=55 v=0
131552 On ch=5 n=65 v=31
131573 On ch=5 n=65 v=0
131584 On ch=5 n=67 v=31
131605 On ch=5 n=67 v=0
131616 On ch=5 n=68 v=31
131637 On ch=5 n=68 v=0
131648 On ch=5 n=65 v=31
131669 On ch=5 n=65 v=0
131680 On ch=5 n=74 v=31
131701 On ch=5 n=74 v=0
131712 On ch=5 n=67 v=31
131738 On ch=5 n=67 v=0
131744 On ch=5 n=63 v=31
131770 On ch=5 n=63 v=0
131776 On ch=5 n=72 v=31
131802 On ch=5 n=72 v=0
131808 On ch=5 n=65 v=31
131834 On ch=5 n=65 v=0
131840 On ch=5 n=62 v=31
131866 On ch=5 n=62 v=0
131872 On ch=5 n=70 v=31
131898 On ch=5 n=70 v=0
131904 On ch=5 n=63 v=31
131930 On ch=5 n=63 v=0
131936 On ch=5 n=60 v=31
131962 On ch=5 n=60 v=0
131968 On ch=5 n=68 v=31
131994 On ch=5 n=68 v=0
132000 On ch=5 n=62 v=31
132026 On ch=5 n=62 v=0
132032 On ch=5 n=55 v=31
132058 On ch=5 n=55 v=0
132064 On ch=5 n=67 v=31
132090 On ch=5 n=67 v=0
132096 On ch=5 n=68 v=31
132122 On ch=5 n=68 v=0
132128 On ch=5 n=65 v=31
132154 On ch=5 n=65 v=0
132160 On ch=5 n=74 v=31
132186 On ch=5 n=74 v=0
132192 On ch=5 n=67 v=31
132218 On ch=5 n=67 v=0
132224 On ch=5 n=63 v=31
132250 On ch=5 n=63 v=0
132256 On ch=5 n=72 v=31
132282 On ch=5 n=72 v=0
132288 On ch=5 n=65 v=31
132314 On ch=5 n=65 v=0
132320 On ch=5 n=62 v=31
132346 On ch=5 n=62 v=0
132352 On ch=5 n=70 v=31
132378 On ch=5 n=70 v=0
132384 On ch=5 n=63 v=31
132410 On ch=5 n=63 v=0
132416 On ch=5 n=60 v=31
132442 On ch=5 n=60 v=0
132448 On ch=5 n=68 v=31
132474 On ch=5 n=68 v=0
132480 On ch=5 n=67 v=31
132518 On ch=5 n=67 v=0
132552 On ch=5 n=62 v=31
132571 On ch=5 n=62 v=0
132576 On ch=5 n=55 v=31
132614 On ch=5 n=55 v=0
132720 On ch=5 n=62 v=31
132739 On ch=5 n=62 v=0
132744 On ch=5 n=63 v=31
132763 On ch=5 n=63 v=0
132768 On ch=5 n=65 v=31
132787 On ch=5 n=65 v=0
132792 On ch=5 n=63 v=31
132811 On ch=5 n=63 v=0
132816 On ch=5 n=65 v=31
132835 On ch=5 n=65 v=0
132840 On ch=5 n=62 v=31
132859 On ch=5 n=62 v=0
132864 On ch=5 n=67 v=31
132902 On ch=5 n=67 v=0
132936 On ch=5 n=62 v=31
132955 On ch=5 n=62 v=0
132960 On ch=5 n=55 v=31
132998 On ch=5 n=55 v=0
133200 On ch=5 n=55 v=31
133231 On ch=5 n=55 v=0
133248 Par ch=5 c=11 v=64
133248 On ch=5 n=60 v=31
133279 On ch=5 n=60 v=0
133288 Par ch=5 c=11 v=65
133320 On ch=5 n=55 v=31
133324 Par ch=5 c=11 v=66
133336 On ch=5 n=55 v=0
133344 On ch=5 n=60 v=31
133364 Par ch=5 c=11 v=67
133375 On ch=5 n=60 v=0
133400 Par ch=5 c=11 v=68
133416 On ch=5 n=55 v=31
133432 On ch=5 n=55 v=0
133440 Par ch=5 c=11 v=69
133440 On ch=5 n=60 v=31
133476 Par ch=5 c=11 v=70
133516 Par ch=5 c=11 v=71
133517 On ch=5 n=60 v=0
133552 Par ch=5 c=11 v=72
133584 On ch=5 n=55 v=31
133592 Par ch=5 c=11 v=73
133615 On ch=5 n=55 v=0
133628 Par ch=5 c=11 v=74
133632 On ch=5 n=60 v=31
133664 Par ch=5 c=11 v=75
133704 Par ch=5 c=11 v=76
133709 On ch=5 n=60 v=0
133740 Par ch=5 c=11 v=77
133776 On ch=5 n=55 v=31
133780 Par ch=5 c=11 v=78
133807 On ch=5 n=55 v=0
133816 Par ch=5 c=11 v=79
133824 On ch=5 n=60 v=31
133856 Par ch=5 c=11 v=80
133892 Par ch=5 c=11 v=81
133901 On ch=5 n=60 v=0
133932 Par ch=5 c=11 v=82
133968 Par ch=5 c=11 v=83
133968 On ch=5 n=55 v=31
133999 On ch=5 n=55 v=0
134008 Par ch=5 c=11 v=84
134016 On ch=5 n=60 v=31
134044 Par ch=5 c=11 v=85
134080 Par ch=5 c=11 v=86
134093 On ch=5 n=60 v=0
134120 Par ch=5 c=11 v=87
134156 Par ch=5 c=11 v=88
134160 On ch=5 n=55 v=31
134191 On ch=5 n=55 v=0
134196 Par ch=5 c=11 v=89
134208 On ch=5 n=60 v=31
134232 Par ch=5 c=11 v=90
134234 On ch=5 n=60 v=0
134240 On ch=5 n=55 v=31
134266 On ch=5 n=55 v=0
134272 Par ch=5 c=11 v=91
134272 On ch=5 n=60 v=31
134298 On ch=5 n=60 v=0
134304 On ch=5 n=55 v=31
134308 Par ch=5 c=11 v=92
134330 On ch=5 n=55 v=0
134336 On ch=5 n=60 v=31
134348 Par ch=5 c=11 v=93
134362 On ch=5 n=60 v=0
134368 On ch=5 n=55 v=31
134384 Par ch=5 c=11 v=94
134394 On ch=5 n=55 v=0
134400 On ch=5 n=60 v=31
134424 Par ch=5 c=11 v=95
134438 On ch=5 n=60 v=0
134460 Par ch=5 c=11 v=96
134472 On ch=5 n=67 v=31
134491 On ch=5 n=67 v=0
134496 On ch=5 n=72 v=31
134534 On ch=5 n=72 v=0
134640 Par ch=5 c=11 v=64
134640 On ch=5 n=70 v=63
134652 Par ch=5 c=11 v=65
134659 On ch=5 n=70 v=0
134660 Par ch=5 c=11 v=66
134664 On ch=5 n=68 v=63
134668 Par ch=5 c=11 v=67
134676 Par ch=5 c=11 v=68
134683 On ch=5 n=68 v=0
134684 Par ch=5 c=11 v=69
134688 On ch=5 n=67 v=63
134692 Par ch=5 c=11 v=70
134700 Par ch=5 c=11 v=71
134707 On ch=5 n=67 v=0
134708 Par ch=5 c=11 v=72
134712 On ch=5 n=65 v=63
134720 Par ch=5 c=11 v=73
134728 Par ch=5 c=11 v=74
134731 On ch=5 n=65 v=0
134736 Par ch=5 c=11 v=75
134736 On ch=5 n=63 v=63
134744 Par ch=5 c=11 v=76
134752 Par ch=5 c=11 v=77
134755 On ch=5 n=63 v=0
134760 Par ch=5 c=11 v=78
134760 On ch=5 n=62 v=63
134768 Par ch=5 c=11 v=79
134776 Par ch=5 c=11 v=80
134779 On ch=5 n=62 v=0
134784 Par ch=5 c=11 v=64
134784 On ch=5 n=60 v=79
134822 On ch=5 n=60 v=0
134856 On ch=5 n=55 v=79
134875 On ch=5 n=55 v=0
134880 On ch=5 n=60 v=79
134918 On ch=5 n=60 v=0
135008 Par ch=5 c=11 v=64
135008 On ch=5 n=55 v=79
135020 Par ch=5 c=11 v=65
135028 Par ch=5 c=11 v=66
135034 On ch=5 n=55 v=0
135040 Par ch=5 c=11 v=67
135040 On ch=5 n=60 v=79
135048 Par ch=5 c=11 v=68
135056 Par ch=5 c=11 v=69
135066 On ch=5 n=60 v=0
135068 Par ch=5 c=11 v=70
135072 On ch=5 n=55 v=79
135076 Par ch=5 c=11 v=71
135084 Par ch=5 c=11 v=72
135096 Par ch=5 c=11 v=73
135098 On ch=5 n=55 v=0
135104 Par ch=5 c=11 v=74
135104 On ch=5 n=60 v=79
135112 Par ch=5 c=11 v=75
135124 Par ch=5 c=11 v=76
135130 On ch=5 n=60 v=0
135132 Par ch=5 c=11 v=77
135136 On ch=5 n=55 v=79
135140 Par ch=5 c=11 v=78
135152 Par ch=5 c=11 v=79
135160 Par ch=5 c=11 v=80
135162 On ch=5 n=55 v=0
135168 Par ch=5 c=11 v=64
135168 On ch=5 n=60 v=95
135206 On ch=5 n=60 v=0
135240 On ch=5 n=67 v=95
135259 On ch=5 n=67 v=0
135264 On ch=5 n=72 v=95
135302 On ch=5 n=72 v=0
135392 Par ch=5 c=11 v=64
135392 On ch=5 n=67 v=95
135404 Par ch=5 c=11 v=65
135412 Par ch=5 c=11 v=66
135413 On ch=5 n=67 v=0
135424 Par ch=5 c=11 v=67
135424 On ch=5 n=72 v=95
135432 Par ch=5 c=11 v=68
135440 Par ch=5 c=11 v=69
135445 On ch=5 n=72 v=0
135452 Par ch=5 c=11 v=70
135456 On ch=5 n=79 v=95
135460 Par ch=5 c=11 v=71
135468 Par ch=5 c=11 v=72
135477 On ch=5 n=79 v=0
135480 Par ch=5 c=11 v=73
135488 Par ch=5 c=11 v=74
135488 On ch=5 n=82 v=95
135496 Par ch=5 c=11 v=75
135508 Par ch=5 c=11 v=76
135509 On ch=5 n=82 v=0
135516 Par ch=5 c=11 v=77
135520 On ch=5 n=85 v=95
135524 Par ch=5 c=11 v=78
135536 Par ch=5 c=11 v=79
135541 On ch=5 n=85 v=0
135544 Par ch=5 c=11 v=80
135552 Par ch=5 c=11 v=64
135552 On ch=5 n=84 v=111
135583 On ch=5 n=84 v=0
135624 On ch=5 n=82 v=111
135640 On ch=5 n=82 v=0
135648 On ch=5 n=80 v=111
135679 On ch=5 n=80 v=0
135720 On ch=5 n=79 v=111
135736 On ch=5 n=79 v=0
135744 On ch=5 n=77 v=111
135775 On ch=5 n=77 v=0
135816 On ch=5 n=75 v=111
135832 On ch=5 n=75 v=0
135840 On ch=5 n=73 v=111
135871 On ch=5 n=73 v=0
135912 On ch=5 n=72 v=111
135928 On ch=5 n=72 v=0
135936 On ch=5 n=80 v=111
135967 On ch=5 n=80 v=0
136008 On ch=5 n=79 v=111
136024 On ch=5 n=79 v=0
136032 On ch=5 n=77 v=111
136063 On ch=5 n=77 v=0
136104 On ch=5 n=75 v=111
136120 On ch=5 n=75 v=0
136128 On ch=5 n=73 v=111
136159 On ch=5 n=73 v=0
136200 On ch=5 n=72 v=111
136216 On ch=5 n=72 v=0
136224 On ch=5 n=70 v=111
136255 On ch=5 n=70 v=0
136296 On ch=5 n=68 v=111
136312 On ch=5 n=68 v=0
136320 On ch=5 n=67 v=111
136358 On ch=5 n=67 v=0
137088 Par ch=5 c=11 v=64
137088 Par ch=5 c=0 v=0
137088 Par ch=5 c=32 v=0
137088 PrCh ch=5 p=44
137088 On ch=5 n=51 v=127
137088 On ch=5 n=63 v=127
137096 Par ch=5 c=11 v=63
137104 Par ch=5 c=11 v=62
137112 Par ch=5 c=11 v=61
137120 Par ch=5 c=11 v=60
137128 Par ch=5 c=11 v=59
137136 Par ch=5 c=11 v=58
137144 Par ch=5 c=11 v=57
137152 Par ch=5 c=11 v=56
137160 Par ch=5 c=11 v=55
137168 Par ch=5 c=11 v=54
137176 Par ch=5 c=11 v=53
137184 Par ch=5 c=11 v=52
137192 Par ch=5 c=11 v=51
137200 Par ch=5 c=11 v=50
137208 Par ch=5 c=11 v=49
137216 Par ch=5 c=11 v=48
137224 Par ch=5 c=11 v=47
137232 Par ch=5 c=11 v=46
137240 Par ch=5 c=11 v=45
137248 Par ch=5 c=11 v=44
137256 Par ch=5 c=11 v=43
137264 Par ch=5 c=11 v=42
137272 Par ch=5 c=11 v=41
137280 Par ch=5 c=11 v=40
137284 Par ch=5 c=11 v=39
137292 Par ch=5 c=11 v=38
137300 Par ch=5 c=11 v=37
137308 Par ch=5 c=11 v=36
137316 Par ch=5 c=11 v=35
137324 Par ch=5 c=11 v=34
137332 Par ch=5 c=11 v=33
137340 Par ch=5 c=11 v=32
137348 Par ch=5 c=11 v=31
137356 Par ch=5 c=11 v=30
137364 Par ch=5 c=11 v=29
137372 Par ch=5 c=11 v=28
137380 Par ch=5 c=11 v=27
137388 Par ch=5 c=11 v=26
137395 On ch=5 n=51 v=0
137396 Par ch=5 c=11 v=25
137404 Par ch=5 c=11 v=24
137412 Par ch=5 c=11 v=23
137420 Par ch=5 c=11 v=22
137428 Par ch=5 c=11 v=21
137436 Par ch=5 c=11 v=20
137444 Par ch=5 c=11 v=19
137452 Par ch=5 c=11 v=18
137460 Par ch=5 c=11 v=17
137468 Par ch=5 c=11 v=16
138163 On ch=5 n=63 v=0
138624 Par ch=5 c=0 v=0
138624 Par ch=5 c=32 v=0
138624 PrCh ch=5 p=48
138624 Par ch=5 c=11 v=64
139008 On ch=5 n=71 v=47
139008 On ch=5 n=59 v=47
139162 On ch=5 n=59 v=0
139162 On ch=5 n=71 v=0
139200 On ch=5 n=76 v=47
139200 On ch=5 n=64 v=47
139277 On ch=5 n=64 v=0
139277 On ch=5 n=76 v=0
139296 On ch=5 n=78 v=47
139296 On ch=5 n=66 v=47
139373 On ch=5 n=66 v=0
139373 On ch=5 n=78 v=0
139392 Par ch=5 c=11 v=64
139392 On ch=5 n=80 v=47
139392 On ch=5 n=68 v=47
139404 Par ch=5 c=11 v=63
139416 Par ch=5 c=11 v=62
139428 Par ch=5 c=11 v=61
139440 Par ch=5 c=11 v=60
139452 Par ch=5 c=11 v=59
139460 Par ch=5 c=11 v=58
139469 On ch=5 n=68 v=0
139469 On ch=5 n=80 v=0
139472 Par ch=5 c=11 v=57
139484 Par ch=5 c=11 v=56
139488 On ch=5 n=81 v=47
139488 On ch=5 n=69 v=47
139496 Par ch=5 c=11 v=55
139508 Par ch=5 c=11 v=54
139520 Par ch=5 c=11 v=53
139528 Par ch=5 c=11 v=52
139540 Par ch=5 c=11 v=51
139552 Par ch=5 c=11 v=50
139564 Par ch=5 c=11 v=49
139565 On ch=5 n=69 v=0
139565 On ch=5 n=81 v=0
139576 Par ch=5 c=11 v=48
139584 Par ch=5 c=11 v=47
139584 On ch=5 n=83 v=47
139584 On ch=5 n=71 v=47
139596 Par ch=5 c=11 v=46
139608 Par ch=5 c=11 v=45
139620 Par ch=5 c=11 v=44
139632 Par ch=5 c=11 v=43
139644 Par ch=5 c=11 v=42
139652 Par ch=5 c=11 v=41
139661 On ch=5 n=71 v=0
139661 On ch=5 n=83 v=0
139664 Par ch=5 c=11 v=40
139676 Par ch=5 c=11 v=39
139680 On ch=5 n=85 v=47
139680 On ch=5 n=73 v=47
139688 Par ch=5 c=11 v=38
139700 Par ch=5 c=11 v=37
139712 Par ch=5 c=11 v=36
139720 Par ch=5 c=11 v=35
139728 On ch=5 n=73 v=0
139728 On ch=5 n=85 v=0
139728 On ch=5 n=87 v=47
139728 On ch=5 n=75 v=47
139732 Par ch=5 c=11 v=34
139744 Par ch=5 c=11 v=33
139756 Par ch=5 c=11 v=32
139766 On ch=5 n=75 v=0
139766 On ch=5 n=87 v=0
139776 Par ch=5 c=11 v=32
139776 On ch=5 n=90 v=47
139776 On ch=5 n=78 v=47
139780 Par ch=5 c=11 v=33
139784 Par ch=5 c=11 v=35
139788 Par ch=5 c=11 v=36
139792 Par ch=5 c=11 v=38
139796 Par ch=5 c=11 v=39
139800 Par ch=5 c=11 v=41
139804 Par ch=5 c=11 v=42
139808 Par ch=5 c=11 v=44
139812 Par ch=5 c=11 v=45
139816 Par ch=5 c=11 v=47
139820 Par ch=5 c=11 v=48
139824 Par ch=5 c=11 v=48
139828 Par ch=5 c=11 v=47
139832 Par ch=5 c=11 v=46
139836 Par ch=5 c=11 v=44
139840 Par ch=5 c=11 v=43
139844 Par ch=5 c=11 v=42
139848 Par ch=5 c=11 v=40
139852 Par ch=5 c=11 v=39
139856 Par ch=5 c=11 v=38
139860 Par ch=5 c=11 v=36
139864 Par ch=5 c=11 v=35
139868 Par ch=5 c=11 v=34
139872 On ch=5 n=78 v=0
139872 On ch=5 n=90 v=0
139872 Par ch=5 c=11 v=32
139872 On ch=5 n=88 v=47
139872 On ch=5 n=76 v=47
140026 On ch=5 n=76 v=0
140026 On ch=5 n=88 v=0
140064 On ch=5 n=87 v=47
140064 On ch=5 n=75 v=47
140141 On ch=5 n=75 v=0
140141 On ch=5 n=87 v=0
140160 Par ch=5 c=11 v=32
140160 On ch=5 n=78 v=47
140160 On ch=5 n=90 v=47
140164 Par ch=5 c=11 v=33
140168 Par ch=5 c=11 v=35
140172 Par ch=5 c=11 v=36
140176 Par ch=5 c=11 v=38
140180 Par ch=5 c=11 v=39
140184 Par ch=5 c=11 v=41
140188 Par ch=5 c=11 v=42
140192 Par ch=5 c=11 v=44
140196 Par ch=5 c=11 v=45
140200 Par ch=5 c=11 v=47
140204 Par ch=5 c=11 v=48
140208 Par ch=5 c=11 v=48
140212 Par ch=5 c=11 v=47
140216 Par ch=5 c=11 v=46
140220 Par ch=5 c=11 v=44
140224 Par ch=5 c=11 v=43
140228 Par ch=5 c=11 v=42
140232 Par ch=5 c=11 v=40
140236 Par ch=5 c=11 v=39
140240 Par ch=5 c=11 v=38
140244 Par ch=5 c=11 v=36
140248 Par ch=5 c=11 v=35
140252 Par ch=5 c=11 v=34
140256 On ch=5 n=90 v=0
140256 On ch=5 n=78 v=0
140256 Par ch=5 c=11 v=32
140256 On ch=5 n=76 v=47
140256 On ch=5 n=88 v=47
140410 On ch=5 n=88 v=0
140410 On ch=5 n=76 v=0
140448 On ch=5 n=75 v=47
140448 On ch=5 n=87 v=47
140525 On ch=5 n=87 v=0
140525 On ch=5 n=75 v=0
140544 On ch=5 n=90 v=47
140544 On ch=5 n=78 v=47
140640 On ch=5 n=78 v=0
140640 On ch=5 n=90 v=0
140640 On ch=5 n=88 v=47
140640 On ch=5 n=76 v=47
140794 On ch=5 n=76 v=0
140794 On ch=5 n=88 v=0
140832 On ch=5 n=85 v=47
140832 On ch=5 n=73 v=47
140909 On ch=5 n=73 v=0
140909 On ch=5 n=85 v=0
140928 On ch=5 n=78 v=47
140928 On ch=5 n=90 v=47
141024 On ch=5 n=90 v=0
141024 On ch=5 n=78 v=0
141024 On ch=5 n=76 v=47
141024 On ch=5 n=88 v=47
141178 On ch=5 n=88 v=0
141178 On ch=5 n=76 v=0
141216 On ch=5 n=73 v=47
141216 On ch=5 n=85 v=47
141293 On ch=5 n=85 v=0
141293 On ch=5 n=73 v=0
141312 Par ch=5 c=11 v=32
141312 On ch=5 n=88 v=63
141312 On ch=5 n=76 v=63
141320 Par ch=5 c=11 v=33
141328 Par ch=5 c=11 v=34
141336 Par ch=5 c=11 v=35
141344 Par ch=5 c=11 v=36
141352 Par ch=5 c=11 v=37
141360 Par ch=5 c=11 v=38
141368 Par ch=5 c=11 v=39
141376 Par ch=5 c=11 v=40
141384 Par ch=5 c=11 v=41
141392 Par ch=5 c=11 v=42
141400 Par ch=5 c=11 v=43
141408 Par ch=5 c=11 v=44
141416 Par ch=5 c=11 v=45
141424 Par ch=5 c=11 v=46
141432 Par ch=5 c=11 v=47
141440 Par ch=5 c=11 v=48
141456 Par ch=5 c=11 v=48
141468 Par ch=5 c=11 v=47
141476 Par ch=5 c=11 v=46
141484 Par ch=5 c=11 v=45
141492 Par ch=5 c=11 v=44
141504 Par ch=5 c=11 v=43
141512 Par ch=5 c=11 v=42
141520 Par ch=5 c=11 v=41
141528 Par ch=5 c=11 v=40
141540 Par ch=5 c=11 v=39
141542 On ch=5 n=76 v=0
141542 On ch=5 n=88 v=0
141548 Par ch=5 c=11 v=38
141556 Par ch=5 c=11 v=37
141564 Par ch=5 c=11 v=36
141576 Par ch=5 c=11 v=35
141584 Par ch=5 c=11 v=34
141592 Par ch=5 c=11 v=33
141600 Par ch=5 c=11 v=32
141600 On ch=5 n=86 v=63
141600 On ch=5 n=74 v=63
141677 On ch=5 n=74 v=0
141677 On ch=5 n=86 v=0
141696 Par ch=5 c=11 v=32
141696 On ch=5 n=85 v=63
141696 On ch=5 n=73 v=63
141704 Par ch=5 c=11 v=33
141708 Par ch=5 c=11 v=34
141712 Par ch=5 c=11 v=35
141720 Par ch=5 c=11 v=36
141724 Par ch=5 c=11 v=37
141728 Par ch=5 c=11 v=38
141736 Par ch=5 c=11 v=39
141740 Par ch=5 c=11 v=40
141744 Par ch=5 c=11 v=41
141752 Par ch=5 c=11 v=42
141756 Par ch=5 c=11 v=43
141760 Par ch=5 c=11 v=44
141768 Par ch=5 c=11 v=45
141772 Par ch=5 c=11 v=46
141776 Par ch=5 c=11 v=47
141784 Par ch=5 c=11 v=48
141792 Par ch=5 c=11 v=48
141800 Par ch=5 c=11 v=47
141804 Par ch=5 c=11 v=46
141812 Par ch=5 c=11 v=45
141816 Par ch=5 c=11 v=44
141824 Par ch=5 c=11 v=43
141828 Par ch=5 c=11 v=42
141836 Par ch=5 c=11 v=41
141840 Par ch=5 c=11 v=40
141848 Par ch=5 c=11 v=39
141850 On ch=5 n=73 v=0
141850 On ch=5 n=85 v=0
141852 Par ch=5 c=11 v=38
141860 Par ch=5 c=11 v=37
141864 Par ch=5 c=11 v=36
141872 Par ch=5 c=11 v=35
141876 Par ch=5 c=11 v=34
141884 Par ch=5 c=11 v=33
141888 Par ch=5 c=11 v=32
141888 On ch=5 n=83 v=63
141888 On ch=5 n=71 v=63
141965 On ch=5 n=71 v=0
141965 On ch=5 n=83 v=0
141984 On ch=5 n=81 v=63
141984 On ch=5 n=69 v=63
142061 On ch=5 n=69 v=0
142061 On ch=5 n=81 v=0
142080 On ch=5 n=80 v=63
142080 On ch=5 n=76 v=63
142157 On ch=5 n=76 v=0
142157 On ch=5 n=80 v=0
142464 Par ch=5 c=11 v=64
142848 Par ch=5 c=11 v=64
142848 On ch=5 n=88 v=47
142860 Par ch=5 c=11 v=65
142868 Par ch=5 c=11 v=66
142876 Par ch=5 c=11 v=67
142884 Par ch=5 c=11 v=68
142892 Par ch=5 c=11 v=69
142900 Par ch=5 c=11 v=70
142908 Par ch=5 c=11 v=71
142916 Par ch=5 c=11 v=72
142928 Par ch=5 c=11 v=73
142936 Par ch=5 c=11 v=74
142944 Par ch=5 c=11 v=75
142952 Par ch=5 c=11 v=76
142960 Par ch=5 c=11 v=77
142968 Par ch=5 c=11 v=78
142976 Par ch=5 c=11 v=79
142984 Par ch=5 c=11 v=80
142992 Par ch=5 c=11 v=80
143004 Par ch=5 c=11 v=79
143012 Par ch=5 c=11 v=78
143020 Par ch=5 c=11 v=77
143028 Par ch=5 c=11 v=76
143040 Par ch=5 c=11 v=75
143048 Par ch=5 c=11 v=74
143056 Par ch=5 c=11 v=73
143064 Par ch=5 c=11 v=72
143076 Par ch=5 c=11 v=71
143078 On ch=5 n=88 v=0
143084 Par ch=5 c=11 v=70
143092 Par ch=5 c=11 v=69
143100 Par ch=5 c=11 v=68
143112 Par ch=5 c=11 v=67
143120 Par ch=5 c=11 v=66
143128 Par ch=5 c=11 v=65
143136 Par ch=5 c=11 v=64
143136 On ch=5 n=87 v=47
143184 On ch=5 n=87 v=0
143184 On ch=5 n=85 v=47
143222 On ch=5 n=85 v=0
143232 Par ch=5 c=11 v=64
143232 On ch=5 n=87 v=47
143244 Par ch=5 c=11 v=65
143252 Par ch=5 c=11 v=66
143260 Par ch=5 c=11 v=67
143268 Par ch=5 c=11 v=68
143276 Par ch=5 c=11 v=69
143284 Par ch=5 c=11 v=70
143292 Par ch=5 c=11 v=71
143300 Par ch=5 c=11 v=72
143312 Par ch=5 c=11 v=73
143320 Par ch=5 c=11 v=74
143328 Par ch=5 c=11 v=75
143336 Par ch=5 c=11 v=76
143344 Par ch=5 c=11 v=77
143352 Par ch=5 c=11 v=78
143360 Par ch=5 c=11 v=79
143368 Par ch=5 c=11 v=80
143376 Par ch=5 c=11 v=80
143388 Par ch=5 c=11 v=79
143396 Par ch=5 c=11 v=78
143404 Par ch=5 c=11 v=77
143412 Par ch=5 c=11 v=76
143424 Par ch=5 c=11 v=75
143432 Par ch=5 c=11 v=74
143440 Par ch=5 c=11 v=73
143448 Par ch=5 c=11 v=72
143460 Par ch=5 c=11 v=71
143462 On ch=5 n=87 v=0
143468 Par ch=5 c=11 v=70
143476 Par ch=5 c=11 v=69
143484 Par ch=5 c=11 v=68
143496 Par ch=5 c=11 v=67
143504 Par ch=5 c=11 v=66
143512 Par ch=5 c=11 v=65
143520 Par ch=5 c=11 v=64
143520 On ch=5 n=85 v=47
143568 On ch=5 n=85 v=0
143568 On ch=5 n=83 v=47
143606 On ch=5 n=83 v=0
143616 On ch=5 n=85 v=47
143770 On ch=5 n=85 v=0
143808 On ch=5 n=83 v=47
143923 On ch=5 n=83 v=0
143952 On ch=5 n=80 v=47
143990 On ch=5 n=80 v=0
144000 Par ch=5 c=11 v=64
144000 On ch=5 n=83 v=47
144004 Par ch=5 c=11 v=65
144008 Par ch=5 c=11 v=66
144012 Par ch=5 c=11 v=68
144016 Par ch=5 c=11 v=69
144020 Par ch=5 c=11 v=71
144024 Par ch=5 c=11 v=72
144028 Par ch=5 c=11 v=73
144032 Par ch=5 c=11 v=75
144036 Par ch=5 c=11 v=76
144040 Par ch=5 c=11 v=78
144044 Par ch=5 c=11 v=79
144048 Par ch=5 c=11 v=79
144052 Par ch=5 c=11 v=78
144056 Par ch=5 c=11 v=77
144060 Par ch=5 c=11 v=76
144064 Par ch=5 c=11 v=74
144068 Par ch=5 c=11 v=73
144072 Par ch=5 c=11 v=72
144076 Par ch=5 c=11 v=71
144080 Par ch=5 c=11 v=69
144084 Par ch=5 c=11 v=68
144088 Par ch=5 c=11 v=67
144092 Par ch=5 c=11 v=66
144096 On ch=5 n=83 v=0
144096 Par ch=5 c=11 v=64
144096 On ch=5 n=78 v=47
144288 On ch=5 n=78 v=0
144288 On ch=5 n=80 v=47
144365 On ch=5 n=80 v=0
144384 Par ch=5 c=11 v=64
144384 On ch=5 n=83 v=47
144388 Par ch=5 c=11 v=65
144392 Par ch=5 c=11 v=66
144396 Par ch=5 c=11 v=68
144400 Par ch=5 c=11 v=69
144404 Par ch=5 c=11 v=71
144408 Par ch=5 c=11 v=72
144412 Par ch=5 c=11 v=73
144416 Par ch=5 c=11 v=75
144420 Par ch=5 c=11 v=76
144424 Par ch=5 c=11 v=78
144428 Par ch=5 c=11 v=79
144432 Par ch=5 c=11 v=80
144436 Par ch=5 c=11 v=79
144440 Par ch=5 c=11 v=78
144444 Par ch=5 c=11 v=76
144448 Par ch=5 c=11 v=75
144452 Par ch=5 c=11 v=74
144456 Par ch=5 c=11 v=72
144460 Par ch=5 c=11 v=71
144464 Par ch=5 c=11 v=70
144468 Par ch=5 c=11 v=68
144472 Par ch=5 c=11 v=67
144476 Par ch=5 c=11 v=66
144480 On ch=5 n=83 v=0
144480 Par ch=5 c=11 v=64
144480 On ch=5 n=78 v=47
144672 On ch=5 n=78 v=0
144672 On ch=5 n=80 v=47
144749 On ch=5 n=80 v=0
144768 Par ch=5 c=11 v=64
144768 On ch=5 n=76 v=47
144776 Par ch=5 c=11 v=65
144780 Par ch=5 c=11 v=66
144788 Par ch=5 c=11 v=67
144792 Par ch=5 c=11 v=68
144800 Par ch=5 c=11 v=69
144804 Par ch=5 c=11 v=70
144808 Par ch=5 c=11 v=71
144816 Par ch=5 c=11 v=72
144820 Par ch=5 c=11 v=73
144828 Par ch=5 c=11 v=74
144832 Par ch=5 c=11 v=75
144836 Par ch=5 c=11 v=76
144844 Par ch=5 c=11 v=77
144848 Par ch=5 c=11 v=78
144856 Par ch=5 c=11 v=79
144860 Par ch=5 c=11 v=80
144864 On ch=5 n=76 v=0
144864 Par ch=5 c=11 v=80
144864 On ch=5 n=81 v=47
144876 Par ch=5 c=11 v=79
144888 Par ch=5 c=11 v=78
144900 Par ch=5 c=11 v=77
144912 Par ch=5 c=11 v=76
144924 Par ch=5 c=11 v=75
144936 Par ch=5 c=11 v=74
144948 Par ch=5 c=11 v=73
144960 Par ch=5 c=11 v=72
144972 Par ch=5 c=11 v=71
144984 Par ch=5 c=11 v=70
144996 Par ch=5 c=11 v=69
145008 Par ch=5 c=11 v=68
145020 Par ch=5 c=11 v=67
145032 Par ch=5 c=11 v=66
145044 Par ch=5 c=11 v=65
145056 On ch=5 n=81 v=0
145056 Par ch=5 c=11 v=64
145056 On ch=5 n=80 v=47
145133 On ch=5 n=80 v=0
145152 Par ch=5 c=11 v=64
145152 On ch=5 n=76 v=47
145160 Par ch=5 c=11 v=65
145164 Par ch=5 c=11 v=66
145172 Par ch=5 c=11 v=67
145176 Par ch=5 c=11 v=68
145184 Par ch=5 c=11 v=69
145188 Par ch=5 c=11 v=70
145192 Par ch=5 c=11 v=71
145200 Par ch=5 c=11 v=72
145204 Par ch=5 c=11 v=73
145212 Par ch=5 c=11 v=74
145216 Par ch=5 c=11 v=75
145220 Par ch=5 c=11 v=76
145228 Par ch=5 c=11 v=77
145232 Par ch=5 c=11 v=78
145240 Par ch=5 c=11 v=79
145244 Par ch=5 c=11 v=80
145248 On ch=5 n=76 v=0
145248 Par ch=5 c=11 v=80
145248 On ch=5 n=80 v=47
145260 Par ch=5 c=11 v=79
145272 Par ch=5 c=11 v=78
145284 Par ch=5 c=11 v=77
145296 Par ch=5 c=11 v=76
145308 Par ch=5 c=11 v=75
145320 Par ch=5 c=11 v=74
145332 Par ch=5 c=11 v=73
145344 Par ch=5 c=11 v=72
145356 Par ch=5 c=11 v=71
145368 Par ch=5 c=11 v=70
145380 Par ch=5 c=11 v=69
145392 Par ch=5 c=11 v=68
145404 Par ch=5 c=11 v=67
145416 Par ch=5 c=11 v=66
145428 Par ch=5 c=11 v=65
145440 On ch=5 n=80 v=0
145440 Par ch=5 c=11 v=64
145440 On ch=5 n=78 v=47
145517 On ch=5 n=78 v=0
145536 On ch=5 n=73 v=47
145632 On ch=5 n=73 v=0
145632 On ch=5 n=78 v=47
145728 On ch=5 n=78 v=0
145728 On ch=5 n=76 v=47
145776 On ch=5 n=76 v=0
145776 On ch=5 n=71 v=47
145824 On ch=5 n=71 v=0
145824 On ch=5 n=75 v=47
145872 On ch=5 n=75 v=0
145872 On ch=5 n=73 v=47
145910 On ch=5 n=73 v=0
145920 Par ch=5 c=11 v=64
145920 On ch=5 n=72 v=47
145932 Par ch=5 c=11 v=65
145940 Par ch=5 c=11 v=66
145948 Par ch=5 c=11 v=67
145956 Par ch=5 c=11 v=68
145964 Par ch=5 c=11 v=69
145972 Par ch=5 c=11 v=70
145980 Par ch=5 c=11 v=71
145988 Par ch=5 c=11 v=72
146000 Par ch=5 c=11 v=73
146008 Par ch=5 c=11 v=74
146016 Par ch=5 c=11 v=75
146024 Par ch=5 c=11 v=76
146032 Par ch=5 c=11 v=77
146040 Par ch=5 c=11 v=78
146048 Par ch=5 c=11 v=79
146056 Par ch=5 c=11 v=80
146064 Par ch=5 c=11 v=80
146076 Par ch=5 c=11 v=79
146084 Par ch=5 c=11 v=78
146092 Par ch=5 c=11 v=77
146100 Par ch=5 c=11 v=76
146112 Par ch=5 c=11 v=75
146120 Par ch=5 c=11 v=74
146128 Par ch=5 c=11 v=73
146136 Par ch=5 c=11 v=72
146148 Par ch=5 c=11 v=71
146150 On ch=5 n=72 v=0
146156 Par ch=5 c=11 v=70
146164 Par ch=5 c=11 v=69
146172 Par ch=5 c=11 v=68
146184 Par ch=5 c=11 v=67
146192 Par ch=5 c=11 v=66
146200 Par ch=5 c=11 v=65
146208 Par ch=5 c=11 v=64
146208 On ch=5 n=66 v=47
146246 On ch=5 n=66 v=0
146256 On ch=5 n=68 v=47
146294 On ch=5 n=68 v=0
146304 On ch=5 n=71 v=47
146400 On ch=5 n=71 v=0
146400 On ch=5 n=70 v=47
146496 On ch=5 n=70 v=0
146496 On ch=5 n=69 v=47
146592 On ch=5 n=69 v=0
146592 On ch=5 n=68 v=47
146669 On ch=5 n=68 v=0
146688 Par ch=5 c=11 v=64
146688 On ch=5 n=67 v=47
146700 Par ch=5 c=11 v=65
146708 Par ch=5 c=11 v=66
146716 Par ch=5 c=11 v=67
146724 Par ch=5 c=11 v=68
146732 Par ch=5 c=11 v=69
146740 Par ch=5 c=11 v=70
146748 Par ch=5 c=11 v=71
146756 Par ch=5 c=11 v=72
146768 Par ch=5 c=11 v=73
146776 Par ch=5 c=11 v=74
146784 Par ch=5 c=11 v=75
146792 Par ch=5 c=11 v=76
146800 Par ch=5 c=11 v=77
146808 Par ch=5 c=11 v=78
146816 Par ch=5 c=11 v=79
146824 Par ch=5 c=11 v=80
146832 Par ch=5 c=11 v=80
146844 Par ch=5 c=11 v=79
146852 Par ch=5 c=11 v=78
146860 Par ch=5 c=11 v=77
146868 Par ch=5 c=11 v=76
146880 Par ch=5 c=11 v=75
146888 Par ch=5 c=11 v=74
146896 Par ch=5 c=11 v=73
146904 Par ch=5 c=11 v=72
146916 Par ch=5 c=11 v=71
146924 Par ch=5 c=11 v=70
146932 Par ch=5 c=11 v=69
146940 Par ch=5 c=11 v=68
146952 Par ch=5 c=11 v=67
146960 Par ch=5 c=11 v=66
146968 Par ch=5 c=11 v=65
146976 On ch=5 n=67 v=0
146976 Par ch=5 c=11 v=64
146976 On ch=5 n=66 v=47
147024 On ch=5 n=66 v=0
147024 On ch=5 n=67 v=47
147062 On ch=5 n=67 v=0
147072 Par ch=5 c=11 v=64
147072 On ch=5 n=68 v=47
147084 Par ch=5 c=11 v=65
147092 Par ch=5 c=11 v=66
147100 Par ch=5 c=11 v=67
147108 Par ch=5 c=11 v=68
147116 Par ch=5 c=11 v=69
147124 Par ch=5 c=11 v=70
147132 Par ch=5 c=11 v=71
147140 Par ch=5 c=11 v=72
147152 Par ch=5 c=11 v=73
147160 Par ch=5 c=11 v=74
147168 Par ch=5 c=11 v=75
147176 Par ch=5 c=11 v=76
147184 Par ch=5 c=11 v=77
147192 Par ch=5 c=11 v=78
147200 Par ch=5 c=11 v=79
147208 Par ch=5 c=11 v=80
147216 Par ch=5 c=11 v=80
147228 Par ch=5 c=11 v=79
147236 Par ch=5 c=11 v=78
147244 Par ch=5 c=11 v=77
147252 Par ch=5 c=11 v=76
147264 Par ch=5 c=11 v=75
147272 Par ch=5 c=11 v=74
147280 Par ch=5 c=11 v=73
147288 Par ch=5 c=11 v=72
147300 Par ch=5 c=11 v=71
147308 Par ch=5 c=11 v=70
147316 Par ch=5 c=11 v=69
147324 Par ch=5 c=11 v=68
147336 Par ch=5 c=11 v=67
147344 Par ch=5 c=11 v=66
147352 Par ch=5 c=11 v=65
147360 On ch=5 n=68 v=0
147360 Par ch=5 c=11 v=64
147360 On ch=5 n=66 v=47
147408 On ch=5 n=66 v=0
147408 On ch=5 n=67 v=47
147446 On ch=5 n=67 v=0
147456 Par ch=5 c=11 v=64
147456 On ch=5 n=68 v=47
147468 Par ch=5 c=11 v=63
147480 Par ch=5 c=11 v=62
147492 Par ch=5 c=11 v=61
147504 Par ch=5 c=11 v=60
147516 Par ch=5 c=11 v=59
147528 Par ch=5 c=11 v=58
147540 Par ch=5 c=11 v=57
147552 Par ch=5 c=11 v=56
147564 Par ch=5 c=11 v=55
147576 Par ch=5 c=11 v=54
147588 Par ch=5 c=11 v=53
147600 Par ch=5 c=11 v=52
147610 On ch=5 n=68 v=0
147612 Par ch=5 c=11 v=51
147624 Par ch=5 c=11 v=50
147636 Par ch=5 c=11 v=49
147648 Par ch=5 c=11 v=48
147840 Par ch=5 c=11 v=64
149184 Par ch=5 c=0 v=0
149184 Par ch=5 c=32 v=0
149184 PrCh ch=5 p=44
149184 On ch=5 n=64 v=15
149184 On ch=5 n=76 v=15
149376 Par ch=5 c=11 v=64
149388 Par ch=5 c=11 v=65
149400 Par ch=5 c=11 v=66
149412 Par ch=5 c=11 v=67
149424 Par ch=5 c=11 v=68
149436 Par ch=5 c=11 v=69
149448 Par ch=5 c=11 v=70
149460 Par ch=5 c=11 v=71
149472 Par ch=5 c=11 v=72
149484 Par ch=5 c=11 v=73
149496 Par ch=5 c=11 v=74
149504 Par ch=5 c=11 v=75
149516 Par ch=5 c=11 v=76
149528 Par ch=5 c=11 v=77
149540 Par ch=5 c=11 v=78
149552 Par ch=5 c=11 v=79
149564 Par ch=5 c=11 v=80
149576 Par ch=5 c=11 v=81
149588 Par ch=5 c=11 v=82
149600 Par ch=5 c=11 v=83
149612 Par ch=5 c=11 v=84
149624 Par ch=5 c=11 v=85
149632 Par ch=5 c=11 v=86
149644 Par ch=5 c=11 v=87
149656 Par ch=5 c=11 v=88
149668 Par ch=5 c=11 v=89
149680 Par ch=5 c=11 v=90
149692 Par ch=5 c=11 v=91
149704 Par ch=5 c=11 v=92
149716 Par ch=5 c=11 v=93
149728 Par ch=5 c=11 v=94
149740 Par ch=5 c=11 v=95
149752 Par ch=5 c=11 v=96
149760 On ch=5 n=76 v=0
149760 On ch=5 n=64 v=0
149760 On ch=5 n=63 v=15
149760 On ch=5 n=75 v=15
149772 Par ch=5 c=11 v=96
149784 Par ch=5 c=11 v=95
149796 Par ch=5 c=11 v=94
149804 Par ch=5 c=11 v=93
149816 Par ch=5 c=11 v=92
149828 Par ch=5 c=11 v=91
149840 Par ch=5 c=11 v=90
149848 Par ch=5 c=11 v=89
149860 Par ch=5 c=11 v=88
149872 Par ch=5 c=11 v=87
149884 Par ch=5 c=11 v=86
149892 Par ch=5 c=11 v=85
149904 Par ch=5 c=11 v=84
149916 Par ch=5 c=11 v=83
149928 Par ch=5 c=11 v=82
149936 Par ch=5 c=11 v=81
149948 Par ch=5 c=11 v=80
149960 Par ch=5 c=11 v=79
149972 Par ch=5 c=11 v=78
149980 Par ch=5 c=11 v=77
149992 Par ch=5 c=11 v=76
150004 Par ch=5 c=11 v=75
150016 Par ch=5 c=11 v=74
150024 Par ch=5 c=11 v=73
150036 Par ch=5 c=11 v=72
150048 Par ch=5 c=11 v=71
150060 Par ch=5 c=11 v=70
150068 Par ch=5 c=11 v=69
150080 Par ch=5 c=11 v=68
150092 Par ch=5 c=11 v=67
150104 Par ch=5 c=11 v=66
150112 Par ch=5 c=11 v=65
150124 Par ch=5 c=11 v=64
150451 On ch=5 n=75 v=0
150451 On ch=5 n=63 v=0
153856 Par ch=5 c=0 v=0
153856 Par ch=5 c=32 v=0
153856 PrCh ch=5 p=48
153856 On ch=5 n=84 v=8
153877 On ch=5 n=84 v=0
153888 On ch=5 n=86 v=8
153909 On ch=5 n=86 v=0
153920 On ch=5 n=84 v=8
153941 On ch=5 n=84 v=0
153952 On ch=5 n=83 v=8
153973 On ch=5 n=83 v=0
153984 On ch=5 n=84 v=8
154015 On ch=5 n=84 v=0
154056 On ch=5 n=79 v=8
154072 On ch=5 n=79 v=0
154080 On ch=5 n=72 v=8
154111 On ch=5 n=72 v=0
154320 On ch=5 n=79 v=8
154351 On ch=5 n=79 v=0
154368 On ch=5 n=84 v=8
154389 On ch=5 n=84 v=0
154400 On ch=5 n=83 v=8
154421 On ch=5 n=83 v=0
154432 On ch=5 n=84 v=8
154453 On ch=5 n=84 v=0
154464 On ch=5 n=86 v=8
154485 On ch=5 n=86 v=0
154496 On ch=5 n=84 v=8
154517 On ch=5 n=84 v=0
154528 On ch=5 n=83 v=8
154549 On ch=5 n=83 v=0
154560 On ch=5 n=84 v=8
154591 On ch=5 n=84 v=0
154632 On ch=5 n=79 v=8
154648 On ch=5 n=79 v=0
154656 On ch=5 n=80 v=8
154687 On ch=5 n=80 v=0
154728 On ch=5 n=77 v=8
154744 On ch=5 n=77 v=0
154752 On ch=5 n=79 v=8
154783 On ch=5 n=79 v=0
154824 On ch=5 n=72 v=8
154840 On ch=5 n=72 v=0
154848 On ch=5 n=79 v=8
154879 On ch=5 n=79 v=0
154920 On ch=5 n=72 v=8
154936 On ch=5 n=72 v=0
154944 On ch=5 n=79 v=8
154975 On ch=5 n=79 v=0
155016 On ch=5 n=72 v=8
155032 On ch=5 n=72 v=0
155040 On ch=5 n=80 v=8
155064 On ch=5 n=80 v=0
155064 On ch=5 n=79 v=8
155088 On ch=5 n=79 v=0
155088 On ch=5 n=77 v=8
155112 On ch=5 n=77 v=0
155112 On ch=5 n=75 v=8
155131 On ch=5 n=75 v=0
155136 On ch=5 n=77 v=15
155290 On ch=5 n=77 v=0
155328 On ch=5 n=86 v=15
155472 On ch=5 n=86 v=0
155472 On ch=5 n=84 v=15
155503 On ch=5 n=84 v=0
155520 On ch=5 n=77 v=31
155674 On ch=5 n=77 v=0
155712 On ch=5 n=86 v=31
155856 On ch=5 n=86 v=0
155856 On ch=5 n=84 v=31
155887 On ch=5 n=84 v=0
155904 On ch=5 n=79 v=31
155925 On ch=5 n=79 v=0
155936 On ch=5 n=75 v=31
155957 On ch=5 n=75 v=0
155968 On ch=5 n=84 v=31
155989 On ch=5 n=84 v=0
156000 On ch=5 n=77 v=31
156021 On ch=5 n=77 v=0
156032 On ch=5 n=74 v=31
156053 On ch=5 n=74 v=0
156064 On ch=5 n=82 v=31
156085 On ch=5 n=82 v=0
156096 On ch=5 n=75 v=31
156117 On ch=5 n=75 v=0
156128 On ch=5 n=72 v=31
156149 On ch=5 n=72 v=0
156160 On ch=5 n=80 v=31
156181 On ch=5 n=80 v=0
156192 On ch=5 n=74 v=31
156213 On ch=5 n=74 v=0
156224 On ch=5 n=67 v=31
156245 On ch=5 n=67 v=0
156256 On ch=5 n=79 v=31
156277 On ch=5 n=79 v=0
156288 On ch=5 n=80 v=31
156314 On ch=5 n=80 v=0
156320 On ch=5 n=77 v=31
156346 On ch=5 n=77 v=0
156352 On ch=5 n=84 v=31
156378 On ch=5 n=84 v=0
156384 On ch=5 n=79 v=31
156410 On ch=5 n=79 v=0
156416 On ch=5 n=75 v=31
156442 On ch=5 n=75 v=0
156448 On ch=5 n=82 v=31
156474 On ch=5 n=82 v=0
156480 On ch=5 n=77 v=31
156506 On ch=5 n=77 v=0
156512 On ch=5 n=74 v=31
156538 On ch=5 n=74 v=0
156544 On ch=5 n=80 v=31
156570 On ch=5 n=80 v=0
156576 On ch=5 n=75 v=31
156602 On ch=5 n=75 v=0
156608 On ch=5 n=72 v=31
156634 On ch=5 n=72 v=0
156640 On ch=5 n=80 v=31
156666 On ch=5 n=80 v=0
156672 On ch=5 n=79 v=31
156710 On ch=5 n=79 v=0
156744 On ch=5 n=74 v=31
156763 On ch=5 n=74 v=0
156768 On ch=5 n=67 v=31
156806 On ch=5 n=67 v=0
156912 On ch=5 n=74 v=31
156931 On ch=5 n=74 v=0
156936 On ch=5 n=75 v=31
156955 On ch=5 n=75 v=0
156960 On ch=5 n=77 v=31
156979 On ch=5 n=77 v=0
156984 On ch=5 n=75 v=31
157003 On ch=5 n=75 v=0
157008 On ch=5 n=77 v=31
157027 On ch=5 n=77 v=0
157032 On ch=5 n=74 v=31
157051 On ch=5 n=74 v=0
157056 On ch=5 n=79 v=31
157094 On ch=5 n=79 v=0
157128 On ch=5 n=74 v=31
157147 On ch=5 n=74 v=0
157152 On ch=5 n=67 v=31
157190 On ch=5 n=67 v=0
157312 On ch=5 n=67 v=31
157333 On ch=5 n=67 v=0
157344 On ch=5 n=74 v=31
157365 On ch=5 n=74 v=0
157376 On ch=5 n=77 v=31
157397 On ch=5 n=77 v=0
157408 On ch=5 n=80 v=31
157429 On ch=5 n=80 v=0
157440 On ch=5 n=79 v=31
157478 On ch=5 n=79 v=0
157512 On ch=5 n=74 v=31
157531 On ch=5 n=74 v=0
157536 On ch=5 n=67 v=31
157574 On ch=5 n=67 v=0
157608 On ch=5 n=74 v=31
157627 On ch=5 n=74 v=0
157632 On ch=5 n=79 v=31
157670 On ch=5 n=79 v=0
157704 On ch=5 n=67 v=31
157723 On ch=5 n=67 v=0
157728 On ch=5 n=74 v=31
157749 On ch=5 n=74 v=0
157760 On ch=5 n=77 v=31
157781 On ch=5 n=77 v=0
157792 On ch=5 n=80 v=31
157813 On ch=5 n=80 v=0
157824 On ch=5 n=79 v=31
157845 On ch=5 n=79 v=0
157888 On ch=5 n=67 v=31
157909 On ch=5 n=67 v=0
157920 On ch=5 n=74 v=31
157941 On ch=5 n=74 v=0
157952 On ch=5 n=77 v=31
157973 On ch=5 n=77 v=0
157984 On ch=5 n=80 v=31
158005 On ch=5 n=80 v=0
158016 On ch=5 n=79 v=31
158037 On ch=5 n=79 v=0
158048 On ch=5 n=67 v=31
158069 On ch=5 n=67 v=0
158080 On ch=5 n=74 v=31
158101 On ch=5 n=74 v=0
158112 On ch=5 n=77 v=31
158133 On ch=5 n=77 v=0
158144 On ch=5 n=80 v=31
158165 On ch=5 n=80 v=0
158176 On ch=5 n=87 v=31
158197 On ch=5 n=87 v=0
158208 Par ch=5 c=11 v=64
158208 On ch=5 n=85 v=31
158246 On ch=5 n=85 v=0
158280 On ch=5 n=82 v=31
158299 On ch=5 n=82 v=0
158300 Par ch=5 c=11 v=65
158304 On ch=5 n=72 v=31
158342 On ch=5 n=72 v=0
158392 Par ch=5 c=11 v=66
158464 On ch=5 n=72 v=31
158480 Par ch=5 c=11 v=67
158490 On ch=5 n=72 v=0
158496 On ch=5 n=79 v=31
158522 On ch=5 n=79 v=0
158528 On ch=5 n=82 v=31
158554 On ch=5 n=82 v=0
158560 On ch=5 n=87 v=31
158572 Par ch=5 c=11 v=68
158586 On ch=5 n=87 v=0
158592 On ch=5 n=85 v=31
158630 On ch=5 n=85 v=0
158660 Par ch=5 c=11 v=69
158664 On ch=5 n=82 v=31
158683 On ch=5 n=82 v=0
158688 On ch=5 n=72 v=31
158726 On ch=5 n=72 v=0
158752 Par ch=5 c=11 v=70
158816 On ch=5 n=72 v=31
158842 On ch=5 n=72 v=0
158844 Par ch=5 c=11 v=71
158848 On ch=5 n=79 v=31
158874 On ch=5 n=79 v=0
158880 On ch=5 n=82 v=31
158906 On ch=5 n=82 v=0
158912 On ch=5 n=85 v=31
158932 Par ch=5 c=11 v=72
158938 On ch=5 n=85 v=0
158944 On ch=5 n=91 v=31
158970 On ch=5 n=91 v=0
158976 On ch=5 n=90 v=31
159014 On ch=5 n=90 v=0
159024 Par ch=5 c=11 v=73
159048 On ch=5 n=84 v=31
159067 On ch=5 n=84 v=0
159072 On ch=5 n=72 v=31
159110 On ch=5 n=72 v=0
159112 Par ch=5 c=11 v=74
159204 Par ch=5 c=11 v=75
159232 On ch=5 n=81 v=31
159258 On ch=5 n=81 v=0
159264 On ch=5 n=84 v=31
159290 On ch=5 n=84 v=0
159296 Par ch=5 c=11 v=76
159296 On ch=5 n=87 v=31
159322 On ch=5 n=87 v=0
159328 On ch=5 n=91 v=31
159354 On ch=5 n=91 v=0
159360 On ch=5 n=90 v=31
159384 Par ch=5 c=11 v=77
159398 On ch=5 n=90 v=0
159432 On ch=5 n=84 v=31
159451 On ch=5 n=84 v=0
159456 On ch=5 n=72 v=31
159476 Par ch=5 c=11 v=78
159494 On ch=5 n=72 v=0
159564 Par ch=5 c=11 v=79
159616 On ch=5 n=81 v=31
159642 On ch=5 n=81 v=0
159648 On ch=5 n=84 v=31
159656 Par ch=5 c=11 v=80
159674 On ch=5 n=84 v=0
159680 On ch=5 n=87 v=31
159706 On ch=5 n=87 v=0
159712 On ch=5 n=91 v=31
159738 On ch=5 n=91 v=0
159744 Par ch=5 c=11 v=80
159744 On ch=5 n=92 v=31
159768 Par ch=5 c=11 v=81
159770 On ch=5 n=92 v=0
159792 Par ch=5 c=11 v=82
159808 On ch=5 n=72 v=31
159812 Par ch=5 c=11 v=83
159834 On ch=5 n=72 v=0
159836 Par ch=5 c=11 v=84
159840 On ch=5 n=77 v=31
159860 Par ch=5 c=11 v=85
159866 On ch=5 n=77 v=0
159872 On ch=5 n=83 v=31
159880 Par ch=5 c=11 v=86
159898 On ch=5 n=83 v=0
159904 Par ch=5 c=11 v=87
159904 On ch=5 n=86 v=31
159928 Par ch=5 c=11 v=88
159930 On ch=5 n=86 v=0
159936 On ch=5 n=92 v=31
159948 Par ch=5 c=11 v=89
159962 On ch=5 n=92 v=0
159972 Par ch=5 c=11 v=90
159996 Par ch=5 c=11 v=91
160000 On ch=5 n=72 v=31
160016 Par ch=5 c=11 v=92
160026 On ch=5 n=72 v=0
160032 On ch=5 n=77 v=31
160040 Par ch=5 c=11 v=93
160058 On ch=5 n=77 v=0
160064 Par ch=5 c=11 v=94
160064 On ch=5 n=83 v=31
160084 Par ch=5 c=11 v=95
160090 On ch=5 n=83 v=0
160096 On ch=5 n=86 v=31
160108 Par ch=5 c=11 v=96
160122 On ch=5 n=86 v=0
160128 On ch=5 n=92 v=31
160140 Par ch=5 c=11 v=96
160152 Par ch=5 c=11 v=97
160154 On ch=5 n=92 v=0
160164 Par ch=5 c=11 v=98
160176 Par ch=5 c=11 v=99
160188 Par ch=5 c=11 v=100
160192 On ch=5 n=72 v=31
160200 Par ch=5 c=11 v=101
160212 Par ch=5 c=11 v=102
160218 On ch=5 n=72 v=0
160224 Par ch=5 c=11 v=103
160224 On ch=5 n=77 v=31
160236 Par ch=5 c=11 v=104
160248 Par ch=5 c=11 v=105
160250 On ch=5 n=77 v=0
160256 On ch=5 n=83 v=31
160260 Par ch=5 c=11 v=106
160272 Par ch=5 c=11 v=107
160282 On ch=5 n=83 v=0
160284 Par ch=5 c=11 v=108
160288 On ch=5 n=86 v=31
160296 Par ch=5 c=11 v=109
160308 Par ch=5 c=11 v=110
160314 On ch=5 n=86 v=0
160320 Par ch=5 c=11 v=111
160320 On ch=5 n=92 v=31
160332 Par ch=5 c=11 v=112
160344 Par ch=5 c=11 v=113
160346 On ch=5 n=92 v=0
160356 Par ch=5 c=11 v=114
160368 Par ch=5 c=11 v=115
160380 Par ch=5 c=11 v=116
160384 On ch=5 n=72 v=31
160392 Par ch=5 c=11 v=117
160404 Par ch=5 c=11 v=118
160410 On ch=5 n=72 v=0
160416 Par ch=5 c=11 v=119
160416 On ch=5 n=77 v=31
160428 Par ch=5 c=11 v=120
160440 Par ch=5 c=11 v=121
160442 On ch=5 n=77 v=0
160448 On ch=5 n=83 v=31
160452 Par ch=5 c=11 v=122
160464 Par ch=5 c=11 v=123
160474 On ch=5 n=83 v=0
160476 Par ch=5 c=11 v=124
160480 On ch=5 n=86 v=31
160488 Par ch=5 c=11 v=125
160500 Par ch=5 c=11 v=126
160506 On ch=5 n=86 v=0
160512 Par ch=5 c=11 v=64
160512 On ch=5 n=91 v=111
160543 On ch=5 n=91 v=0
160584 On ch=5 n=84 v=111
160608 On ch=5 n=84 v=0
160608 On ch=5 n=72 v=111
160639 On ch=5 n=72 v=0
160704 On ch=5 n=87 v=95
160735 On ch=5 n=87 v=0
160776 On ch=5 n=84 v=95
160800 On ch=5 n=84 v=0
160800 On ch=5 n=72 v=95
160831 On ch=5 n=72 v=0
160896 On ch=5 n=84 v=79
160927 On ch=5 n=84 v=0
160968 On ch=5 n=79 v=79
160992 On ch=5 n=79 v=0
160992 On ch=5 n=72 v=79
161023 On ch=5 n=72 v=0
161088 Par ch=5 c=11 v=64
161088 On ch=5 n=79 v=79
161096 Par ch=5 c=11 v=63
161100 Par ch=5 c=11 v=62
161108 Par ch=5 c=11 v=61
161112 Par ch=5 c=11 v=60
161119 On ch=5 n=79 v=0
161120 Par ch=5 c=11 v=59
161124 Par ch=5 c=11 v=58
161132 Par ch=5 c=11 v=57
161136 Par ch=5 c=11 v=56
161144 Par ch=5 c=11 v=55
161148 Par ch=5 c=11 v=54
161156 Par ch=5 c=11 v=53
161160 Par ch=5 c=11 v=52
161160 On ch=5 n=72 v=79
161168 Par ch=5 c=11 v=51
161172 Par ch=5 c=11 v=50
161180 Par ch=5 c=11 v=49
161184 On ch=5 n=72 v=0
161184 Par ch=5 c=11 v=48
161184 On ch=5 n=60 v=79
161215 On ch=5 n=60 v=0
161280 Par ch=5 c=11 v=64
161280 On ch=5 n=79 v=31
161357 On ch=5 n=79 v=0
161376 On ch=5 n=84 v=31
161407 On ch=5 n=84 v=0
161448 On ch=5 n=80 v=31
161464 On ch=5 n=80 v=0
161472 On ch=5 n=79 v=31
161549 On ch=5 n=79 v=0
161568 On ch=5 n=75 v=31
161589 On ch=5 n=75 v=0
161600 On ch=5 n=74 v=31
161621 On ch=5 n=74 v=0
161632 On ch=5 n=72 v=31
161653 On ch=5 n=72 v=0
161664 Par ch=5 c=11 v=64
161664 On ch=5 n=79 v=31
161688 Par ch=5 c=11 v=63
161712 Par ch=5 c=11 v=62
161736 Par ch=5 c=11 v=61
161741 On ch=5 n=79 v=0
161756 Par ch=5 c=11 v=60
161760 On ch=5 n=72 v=31
161780 Par ch=5 c=11 v=59
161781 On ch=5 n=72 v=0
161792 On ch=5 n=70 v=31
161804 Par ch=5 c=11 v=58
161813 On ch=5 n=70 v=0
161824 On ch=5 n=68 v=31
161828 Par ch=5 c=11 v=57
161845 On ch=5 n=68 v=0
161848 Par ch=5 c=11 v=56
161856 On ch=5 n=75 v=31
161872 Par ch=5 c=11 v=55
161896 Par ch=5 c=11 v=54
161920 Par ch=5 c=11 v=53
161933 On ch=5 n=75 v=0
161940 Par ch=5 c=11 v=52
161952 On ch=5 n=68 v=31
161964 Par ch=5 c=11 v=51
161973 On ch=5 n=68 v=0
161984 On ch=5 n=67 v=31
161988 Par ch=5 c=11 v=50
162005 On ch=5 n=67 v=0
162012 Par ch=5 c=11 v=49
162016 On ch=5 n=65 v=31
162032 Par ch=5 c=11 v=48
162037 On ch=5 n=65 v=0
162048 On ch=5 n=72 v=31
162056 Par ch=5 c=11 v=47
162080 Par ch=5 c=11 v=46
162104 Par ch=5 c=11 v=45
162124 Par ch=5 c=11 v=44
162125 On ch=5 n=72 v=0
162144 On ch=5 n=63 v=31
162148 Par ch=5 c=11 v=43
162165 On ch=5 n=63 v=0
162172 Par ch=5 c=11 v=42
162176 On ch=5 n=62 v=31
162196 Par ch=5 c=11 v=41
162197 On ch=5 n=62 v=0
162208 On ch=5 n=60 v=31
162216 Par ch=5 c=11 v=40
162229 On ch=5 n=60 v=0
162240 Par ch=5 c=11 v=39
162240 On ch=5 n=67 v=31
162264 Par ch=5 c=11 v=38
162288 Par ch=5 c=11 v=37
162308 Par ch=5 c=11 v=36
162317 On ch=5 n=67 v=0
162332 Par ch=5 c=11 v=35
162336 On ch=5 n=60 v=31
162356 Par ch=5 c=11 v=34
162357 On ch=5 n=60 v=0
162368 On ch=5 n=58 v=31
162380 Par ch=5 c=11 v=33
162389 On ch=5 n=58 v=0
162400 Par ch=5 c=11 v=32
162400 On ch=5 n=56 v=31
162421 On ch=5 n=56 v=0
162816 Par ch=5 c=11 v=64
165600 On ch=5 n=67 v=31
165792 On ch=5 n=67 v=0
165792 On ch=5 n=70 v=31
165840 On ch=5 n=70 v=0
165840 On ch=5 n=73 v=31
165888 On ch=5 n=73 v=0
165888 Par ch=5 c=11 v=64
165888 On ch=5 n=72 v=31
165908 Par ch=5 c=11 v=63
165924 Par ch=5 c=11 v=62
165944 Par ch=5 c=11 v=61
165960 Par ch=5 c=11 v=60
165980 Par ch=5 c=11 v=59
165996 Par ch=5 c=11 v=58
166016 Par ch=5 c=11 v=57
166032 Par ch=5 c=11 v=56
166052 Par ch=5 c=11 v=55
166068 Par ch=5 c=11 v=54
166088 Par ch=5 c=11 v=53
166104 Par ch=5 c=11 v=52
166118 On ch=5 n=72 v=0
166124 Par ch=5 c=11 v=51
166140 Par ch=5 c=11 v=50
166160 Par ch=5 c=11 v=49
166176 Par ch=5 c=11 v=48
166176 On ch=5 n=74 v=31
166202 On ch=5 n=74 v=0
166208 On ch=5 n=77 v=31
166234 On ch=5 n=77 v=0
166240 On ch=5 n=80 v=31
166266 On ch=5 n=80 v=0
166272 On ch=5 n=79 v=31
168653 On ch=5 n=79 v=0
168960 Par ch=5 c=11 v=64
169344 On ch=5 n=84 v=111
169357 On ch=5 n=84 v=0
169376 On ch=5 n=83 v=111
169389 On ch=5 n=83 v=0
169408 On ch=5 n=82 v=111
169421 On ch=5 n=82 v=0
169440 On ch=5 n=81 v=111
169453 On ch=5 n=81 v=0
169472 On ch=5 n=80 v=111
169485 On ch=5 n=80 v=0
169504 On ch=5 n=79 v=111
169517 On ch=5 n=79 v=0
169536 On ch=5 n=78 v=111
169549 On ch=5 n=78 v=0
169568 On ch=5 n=77 v=111
169581 On ch=5 n=77 v=0
169600 On ch=5 n=76 v=111
169613 On ch=5 n=76 v=0
169632 On ch=5 n=75 v=111
169645 On ch=5 n=75 v=0
169664 On ch=5 n=74 v=111
169677 On ch=5 n=74 v=0
169696 On ch=5 n=73 v=111
169709 On ch=5 n=73 v=0
169728 On ch=5 n=72 v=111
169741 On ch=5 n=72 v=0
169760 On ch=5 n=71 v=111
169773 On ch=5 n=71 v=0
169792 On ch=5 n=70 v=111
169805 On ch=5 n=70 v=0
169824 On ch=5 n=69 v=111
169837 On ch=5 n=69 v=0
169856 On ch=5 n=68 v=111
169869 On ch=5 n=68 v=0
169888 On ch=5 n=67 v=111
169901 On ch=5 n=67 v=0
169920 On ch=5 n=66 v=111
169933 On ch=5 n=66 v=0
169952 On ch=5 n=65 v=111
169965 On ch=5 n=65 v=0
169984 On ch=5 n=64 v=111
169997 On ch=5 n=64 v=0
170016 On ch=5 n=63 v=111
170029 On ch=5 n=63 v=0
170048 On ch=5 n=62 v=111
170061 On ch=5 n=62 v=0
170080 On ch=5 n=61 v=111
170093 On ch=5 n=61 v=0
170112 On ch=5 n=60 v=111
170150 On ch=5 n=60 v=0
170496 Par ch=5 c=0 v=0
170496 Par ch=5 c=32 v=0
170496 PrCh ch=5 p=45
170496 On ch=5 n=60 v=79
170534 On ch=5 n=60 v=0
170880 On ch=5 n=60 v=31
170918 On ch=5 n=60 v=0
170918 Meta TrkEnd
TrkEnd
MTrk
0 Meta 0x21 01
0 Meta TrkName "2ND VIOLIN"
192 Par ch=6 c=1 v=8
196 Par ch=6 c=7 v=127
200 Par ch=6 c=10 v=46
204 Par ch=6 c=11 v=64
208 Par ch=6 c=91 v=127
212 Par ch=6 c=93 v=64
216 Par ch=6 c=0 v=0
216 Par ch=6 c=32 v=0
216 PrCh ch=6 p=48
384 Par ch=6 c=0 v=0
384 Par ch=6 c=32 v=0
384 PrCh ch=6 p=44
384 Par ch=6 c=11 v=64
384 On ch=6 n=67 v=100
384 On ch=6 n=55 v=100
392 Par ch=6 c=11 v=63
400 Par ch=6 c=11 v=62
408 Par ch=6 c=11 v=61
416 Par ch=6 c=11 v=60
424 Par ch=6 c=11 v=59
432 Par ch=6 c=11 v=58
440 Par ch=6 c=11 v=57
448 Par ch=6 c=11 v=56
456 Par ch=6 c=11 v=55
464 Par ch=6 c=11 v=54
472 Par ch=6 c=11 v=53
480 Par ch=6 c=11 v=52
488 Par ch=6 c=11 v=51
496 Par ch=6 c=11 v=50
504 Par ch=6 c=11 v=49
512 Par ch=6 c=11 v=48
520 Par ch=6 c=11 v=47
528 Par ch=6 c=11 v=46
536 Par ch=6 c=11 v=45
544 Par ch=6 c=11 v=44
552 Par ch=6 c=11 v=43
560 Par ch=6 c=11 v=42
568 Par ch=6 c=11 v=41
576 Par ch=6 c=11 v=40
580 Par ch=6 c=11 v=39
588 Par ch=6 c=11 v=38
596 Par ch=6 c=11 v=37
604 Par ch=6 c=11 v=36
612 Par ch=6 c=11 v=35
620 Par ch=6 c=11 v=34
628 Par ch=6 c=11 v=33
636 Par ch=6 c=11 v=32
644 Par ch=6 c=11 v=31
652 Par ch=6 c=11 v=30
660 Par ch=6 c=11 v=29
668 Par ch=6 c=11 v=28
676 Par ch=6 c=11 v=27
684 Par ch=6 c=11 v=26
692 Par ch=6 c=11 v=25
700 Par ch=6 c=11 v=24
708 Par ch=6 c=11 v=23
716 Par ch=6 c=11 v=22
724 Par ch=6 c=11 v=21
732 Par ch=6 c=11 v=20
740 Par ch=6 c=11 v=19
748 Par ch=6 c=11 v=18
756 Par ch=6 c=11 v=17
764 Par ch=6 c=11 v=16
768 On ch=6 n=55 v=0
768 On ch=6 n=67 v=0
1152 Par ch=6 c=11 v=64
3840 On ch=6 n=55 v=95
3840 On ch=6 n=67 v=95
3888 Par ch=6 c=11 v=32
3900 Par ch=6 c=11 v=33
3912 Par ch=6 c=11 v=34
3920 Par ch=6 c=11 v=35
3932 Par ch=6 c=11 v=36
3940 Par ch=6 c=11 v=37
3952 Par ch=6 c=11 v=38
3960 Par ch=6 c=11 v=39
3972 Par ch=6 c=11 v=40
3980 Par ch=6 c=11 v=41
3992 Par ch=6 c=11 v=42
4000 Par ch=6 c=11 v=43
4012 Par ch=6 c=11 v=44
4024 Par ch=6 c=11 v=45
4032 Par ch=6 c=11 v=46
4044 Par ch=6 c=11 v=47
4052 Par ch=6 c=11 v=48
4064 Par ch=6 c=11 v=49
4072 Par ch=6 c=11 v=50
4084 Par ch=6 c=11 v=51
4092 Par ch=6 c=11 v=52
4104 Par ch=6 c=11 v=53
4112 Par ch=6 c=11 v=54
4124 Par ch=6 c=11 v=55
4136 Par ch=6 c=11 v=56
4144 Par ch=6 c=11 v=57
4156 Par ch=6 c=11 v=58
4164 Par ch=6 c=11 v=59
4176 Par ch=6 c=11 v=60
4184 Par ch=6 c=11 v=61
4196 Par ch=6 c=11 v=62
4204 Par ch=6 c=11 v=63
4216 Par ch=6 c=11 v=64
4272 Par ch=6 c=11 v=16
6216 Par ch=6 c=11 v=16
6284 Par ch=6 c=11 v=15
6356 Par ch=6 c=11 v=14
6424 Par ch=6 c=11 v=13
6496 Par ch=6 c=11 v=12
6564 Par ch=6 c=11 v=11
6636 Par ch=6 c=11 v=10
6704 Par ch=6 c=11 v=9
6776 Par ch=6 c=11 v=8
9523 On ch=6 n=67 v=0
9523 On ch=6 n=55 v=0
9600 Par ch=6 c=0 v=0
9600 Par ch=6 c=32 v=0
9600 PrCh ch=6 p=48
9600 Par ch=6 c=11 v=64
9600 On ch=6 n=67 v=47
9754 On ch=6 n=67 v=0
9792 On ch=6 n=74 v=47
9907 On ch=6 n=74 v=0
9936 On ch=6 n=72 v=47
9974 On ch=6 n=72 v=0
9984 On ch=6 n=67 v=47
10138 On ch=6 n=67 v=0
10176 On ch=6 n=74 v=47
10291 On ch=6 n=74 v=0
10320 On ch=6 n=72 v=47
10351 On ch=6 n=72 v=0
10368 On ch=6 n=67 v=47
10445 On ch=6 n=67 v=0
10848 Par ch=6 c=11 v=64
10848 On ch=6 n=67 v=47
10860 Par ch=6 c=11 v=65
10868 Par ch=6 c=11 v=66
10876 Par ch=6 c=11 v=67
10884 Par ch=6 c=11 v=68
10892 Par ch=6 c=11 v=69
10904 Par ch=6 c=11 v=70
10912 Par ch=6 c=11 v=71
10920 Par ch=6 c=11 v=72
10928 Par ch=6 c=11 v=73
10936 Par ch=6 c=11 v=74
10944 Par ch=6 c=11 v=75
10956 Par ch=6 c=11 v=76
10964 Par ch=6 c=11 v=77
10972 Par ch=6 c=11 v=78
10980 Par ch=6 c=11 v=79
10988 Par ch=6 c=11 v=80
11000 Par ch=6 c=11 v=81
11002 On ch=6 n=67 v=0
11008 Par ch=6 c=11 v=82
11016 Par ch=6 c=11 v=83
11024 Par ch=6 c=11 v=84
11032 Par ch=6 c=11 v=85
11040 Par ch=6 c=11 v=86
11040 On ch=6 n=65 v=47
11052 Par ch=6 c=11 v=87
11060 Par ch=6 c=11 v=88
11068 Par ch=6 c=11 v=89
11076 Par ch=6 c=11 v=90
11078 On ch=6 n=65 v=0
11084 Par ch=6 c=11 v=91
11088 On ch=6 n=63 v=47
11096 Par ch=6 c=11 v=92
11104 Par ch=6 c=11 v=93
11112 Par ch=6 c=11 v=94
11120 Par ch=6 c=11 v=95
11126 On ch=6 n=63 v=0
11128 Par ch=6 c=11 v=96
11136 Par ch=6 c=11 v=95
11136 On ch=6 n=62 v=47
11148 Par ch=6 c=11 v=94
11160 Par ch=6 c=11 v=93
11172 Par ch=6 c=11 v=92
11184 Par ch=6 c=11 v=91
11196 Par ch=6 c=11 v=90
11208 Par ch=6 c=11 v=89
11220 Par ch=6 c=11 v=88
11232 Par ch=6 c=11 v=87
11244 Par ch=6 c=11 v=86
11256 Par ch=6 c=11 v=85
11264 Par ch=6 c=11 v=84
11276 Par ch=6 c=11 v=83
11288 Par ch=6 c=11 v=82
11290 On ch=6 n=62 v=0
11300 Par ch=6 c=11 v=81
11312 Par ch=6 c=11 v=80
11324 Par ch=6 c=11 v=79
11328 On ch=6 n=65 v=47
11336 Par ch=6 c=11 v=78
11348 Par ch=6 c=11 v=77
11360 Par ch=6 c=11 v=76
11372 Par ch=6 c=11 v=75
11384 Par ch=6 c=11 v=74
11392 Par ch=6 c=11 v=73
11404 Par ch=6 c=11 v=72
11416 Par ch=6 c=11 v=71
11428 Par ch=6 c=11 v=70
11440 Par ch=6 c=11 v=69
11443 On ch=6 n=65 v=0
11452 Par ch=6 c=11 v=68
11464 Par ch=6 c=11 v=67
11472 On ch=6 n=63 v=47
11476 Par ch=6 c=11 v=66
11488 Par ch=6 c=11 v=65
11500 Par ch=6 c=11 v=64
11510 On ch=6 n=63 v=0
11520 Par ch=6 c=11 v=64
11520 On ch=6 n=62 v=47
11532 Par ch=6 c=11 v=65
11540 Par ch=6 c=11 v=66
11548 Par ch=6 c=11 v=67
11556 Par ch=6 c=11 v=68
11564 Par ch=6 c=11 v=69
11576 Par ch=6 c=11 v=70
11584 Par ch=6 c=11 v=71
11592 Par ch=6 c=11 v=72
11600 Par ch=6 c=11 v=73
11608 Par ch=6 c=11 v=74
11616 Par ch=6 c=11 v=75
11628 Par ch=6 c=11 v=76
11636 Par ch=6 c=11 v=77
11644 Par ch=6 c=11 v=78
11652 Par ch=6 c=11 v=79
11660 Par ch=6 c=11 v=80
11672 Par ch=6 c=11 v=81
11680 Par ch=6 c=11 v=82
11688 Par ch=6 c=11 v=83
11696 Par ch=6 c=11 v=84
11704 Par ch=6 c=11 v=85
11712 Par ch=6 c=11 v=86
11724 Par ch=6 c=11 v=87
11732 Par ch=6 c=11 v=88
11740 Par ch=6 c=11 v=89
11748 Par ch=6 c=11 v=90
11750 On ch=6 n=62 v=0
11756 Par ch=6 c=11 v=91
11768 Par ch=6 c=11 v=92
11776 Par ch=6 c=11 v=93
11784 Par ch=6 c=11 v=94
11792 Par ch=6 c=11 v=95
11800 Par ch=6 c=11 v=96
11808 Par ch=6 c=11 v=64
11808 On ch=6 n=80 v=95
11808 On ch=6 n=68 v=95
11885 On ch=6 n=68 v=0
11885 On ch=6 n=80 v=0
11904 On ch=6 n=79 v=95
11904 On ch=6 n=67 v=95
11981 On ch=6 n=67 v=0
11981 On ch=6 n=79 v=0
12000 On ch=6 n=74 v=95
12000 On ch=6 n=62 v=95
12058 On ch=6 n=62 v=0
12058 On ch=6 n=74 v=0
12072 On ch=6 n=75 v=95
12072 On ch=6 n=63 v=95
12091 On ch=6 n=63 v=0
12091 On ch=6 n=75 v=0
12096 On ch=6 n=77 v=95
12096 On ch=6 n=65 v=95
12173 On ch=6 n=65 v=0
12173 On ch=6 n=77 v=0
12192 On ch=6 n=80 v=95
12192 On ch=6 n=68 v=95
12269 On ch=6 n=68 v=0
12269 On ch=6 n=80 v=0
12288 On ch=6 n=79 v=95
12288 On ch=6 n=67 v=95
12326 On ch=6 n=67 v=0
12326 On ch=6 n=79 v=0
12384 On ch=6 n=87 v=95
12384 On ch=6 n=75 v=95
12538 On ch=6 n=75 v=0
12538 On ch=6 n=87 v=0
12576 On ch=6 n=86 v=95
12576 On ch=6 n=74 v=95
12653 On ch=6 n=74 v=0
12653 On ch=6 n=86 v=0
12672 On ch=6 n=84 v=95
12672 On ch=6 n=72 v=95
12749 On ch=6 n=72 v=0
12749 On ch=6 n=84 v=0
12768 On ch=6 n=75 v=95
12768 On ch=6 n=63 v=95
12825 On ch=6 n=63 v=0
12825 On ch=6 n=75 v=0
12840 On ch=6 n=77 v=95
12840 On ch=6 n=65 v=95
12859 On ch=6 n=65 v=0
12859 On ch=6 n=77 v=0
12864 On ch=6 n=79 v=95
12864 On ch=6 n=67 v=95
12940 On ch=6 n=67 v=0
12940 On ch=6 n=79 v=0
12960 On ch=6 n=82 v=95
12960 On ch=6 n=70 v=95
13017 On ch=6 n=70 v=0
13017 On ch=6 n=82 v=0
13032 On ch=6 n=80 v=95
13032 On ch=6 n=68 v=95
13051 On ch=6 n=68 v=0
13051 On ch=6 n=80 v=0
13056 On ch=6 n=79 v=95
13056 On ch=6 n=67 v=95
13094 On ch=6 n=67 v=0
13094 On ch=6 n=79 v=0
13152 On ch=6 n=72 v=95
13152 On ch=6 n=60 v=95
13306 On ch=6 n=60 v=0
13306 On ch=6 n=72 v=0
13344 On ch=6 n=74 v=95
13344 On ch=6 n=62 v=95
13370 On ch=6 n=62 v=0
13370 On ch=6 n=74 v=0
13376 On ch=6 n=63 v=95
13376 On ch=6 n=75 v=95
13402 On ch=6 n=75 v=0
13402 On ch=6 n=63 v=0
13408 On ch=6 n=77 v=95
13408 On ch=6 n=65 v=95
13434 On ch=6 n=65 v=0
13434 On ch=6 n=77 v=0
13440 On ch=6 n=79 v=95
13440 On ch=6 n=67 v=95
13594 On ch=6 n=67 v=0
13594 On ch=6 n=79 v=0
13632 Par ch=6 c=11 v=64
13632 On ch=6 n=76 v=95
13668 Par ch=6 c=11 v=65
13700 Par ch=6 c=11 v=66
13736 Par ch=6 c=11 v=67
13747 On ch=6 n=76 v=0
13768 Par ch=6 c=11 v=68
13776 On ch=6 n=77 v=95
13804 Par ch=6 c=11 v=69
13814 On ch=6 n=77 v=0
13824 On ch=6 n=80 v=95
13836 Par ch=6 c=11 v=70
13862 On ch=6 n=80 v=0
13872 Par ch=6 c=11 v=71
13904 Par ch=6 c=11 v=72
13920 On ch=6 n=79 v=95
13940 Par ch=6 c=11 v=73
13972 Par ch=6 c=11 v=74
13997 On ch=6 n=79 v=0
14008 Par ch=6 c=11 v=75
14040 Par ch=6 c=11 v=76
14076 Par ch=6 c=11 v=77
14080 On ch=6 n=72 v=95
14101 On ch=6 n=72 v=0
14108 Par ch=6 c=11 v=78
14112 On ch=6 n=79 v=95
14133 On ch=6 n=79 v=0
14144 Par ch=6 c=11 v=79
14144 On ch=6 n=82 v=95
14165 On ch=6 n=82 v=0
14176 Par ch=6 c=11 v=80
14176 On ch=6 n=85 v=95
14197 On ch=6 n=85 v=0
14208 Par ch=6 c=11 v=64
14208 On ch=6 n=84 v=111
14239 On ch=6 n=84 v=0
14280 On ch=6 n=82 v=111
14296 On ch=6 n=82 v=0
14304 On ch=6 n=80 v=111
14335 On ch=6 n=80 v=0
14376 On ch=6 n=79 v=111
14392 On ch=6 n=79 v=0
14400 On ch=6 n=77 v=111
14431 On ch=6 n=77 v=0
14472 On ch=6 n=75 v=111
14488 On ch=6 n=75 v=0
14496 On ch=6 n=73 v=111
14527 On ch=6 n=73 v=0
14568 On ch=6 n=72 v=111
14584 On ch=6 n=72 v=0
14592 On ch=6 n=80 v=111
14623 On ch=6 n=80 v=0
14664 On ch=6 n=79 v=111
14680 On ch=6 n=79 v=0
14688 On ch=6 n=77 v=111
14719 On ch=6 n=77 v=0
14760 On ch=6 n=75 v=111
14776 On ch=6 n=75 v=0
14784 On ch=6 n=73 v=111
14815 On ch=6 n=73 v=0
14856 On ch=6 n=72 v=111
14872 On ch=6 n=72 v=0
14880 On ch=6 n=70 v=111
14911 On ch=6 n=70 v=0
14952 On ch=6 n=68 v=111
14968 On ch=6 n=68 v=0
14976 On ch=6 n=67 v=111
15014 On ch=6 n=67 v=0
15168 On ch=6 n=66 v=127
15245 On ch=6 n=66 v=0
15264 On ch=6 n=65 v=127
15341 On ch=6 n=65 v=0
15360 On ch=6 n=64 v=127
15398 On ch=6 n=64 v=0
15456 On ch=6 n=63 v=127
15610 On ch=6 n=63 v=0
15648 On ch=6 n=62 v=127
15725 On ch=6 n=62 v=0
15744 On ch=6 n=60 v=127
15782 On ch=6 n=60 v=0
16512 Par ch=6 c=11 v=64
16512 On ch=6 n=79 v=100
16520 Par ch=6 c=11 v=63
16524 Par ch=6 c=11 v=62
16532 Par ch=6 c=11 v=61
16536 Par ch=6 c=11 v=60
16544 Par ch=6 c=11 v=59
16548 Par ch=6 c=11 v=58
16556 Par ch=6 c=11 v=57
16560 Par ch=6 c=11 v=56
16568 Par ch=6 c=11 v=55
16572 Par ch=6 c=11 v=54
16580 Par ch=6 c=11 v=53
16584 Par ch=6 c=11 v=52
16592 Par ch=6 c=11 v=51
16596 Par ch=6 c=11 v=50
16604 Par ch=6 c=11 v=49
16608 Par ch=6 c=11 v=48
16616 Par ch=6 c=11 v=47
16620 Par ch=6 c=11 v=46
16628 Par ch=6 c=11 v=45
16632 Par ch=6 c=11 v=44
16640 Par ch=6 c=11 v=43
16644 Par ch=6 c=11 v=42
16652 Par ch=6 c=11 v=41
16656 Par ch=6 c=11 v=40
16664 Par ch=6 c=11 v=39
16668 Par ch=6 c=11 v=38
16676 Par ch=6 c=11 v=37
16680 Par ch=6 c=11 v=36
16688 Par ch=6 c=11 v=35
16692 Par ch=6 c=11 v=34
16700 Par ch=6 c=11 v=33
16704 Par ch=6 c=11 v=32
16742 On ch=6 n=79 v=0
16896 Par ch=6 c=11 v=64
17664 Par ch=6 c=0 v=0
17664 Par ch=6 c=32 v=0
17664 PrCh ch=6 p=44
17664 On ch=6 n=63 v=95
17712 Par ch=6 c=11 v=32
17720 Par ch=6 c=11 v=33
17728 Par ch=6 c=11 v=34
17736 Par ch=6 c=11 v=35
17740 Par ch=6 c=11 v=36
17748 Par ch=6 c=11 v=37
17756 Par ch=6 c=11 v=38
17760 Par ch=6 c=11 v=39
17768 Par ch=6 c=11 v=40
17776 Par ch=6 c=11 v=41
17784 Par ch=6 c=11 v=42
17788 Par ch=6 c=11 v=43
17796 Par ch=6 c=11 v=44
17804 Par ch=6 c=11 v=45
17808 Par ch=6 c=11 v=46
17816 Par ch=6 c=11 v=47
17824 Par ch=6 c=11 v=48
17832 Par ch=6 c=11 v=49
17836 Par ch=6 c=11 v=50
17844 Par ch=6 c=11 v=51
17852 Par ch=6 c=11 v=52
17856 Par ch=6 c=11 v=53
17864 Par ch=6 c=11 v=54
17872 Par ch=6 c=11 v=55
17880 Par ch=6 c=11 v=56
17884 Par ch=6 c=11 v=57
17892 Par ch=6 c=11 v=58
17900 Par ch=6 c=11 v=59
17904 Par ch=6 c=11 v=60
17912 Par ch=6 c=11 v=61
17920 Par ch=6 c=11 v=62
17928 Par ch=6 c=11 v=63
17932 Par ch=6 c=11 v=64
17940 Par ch=6 c=11 v=65
17948 Par ch=6 c=11 v=66
17952 Par ch=6 c=11 v=67
17960 Par ch=6 c=11 v=68
17968 Par ch=6 c=11 v=69
17976 Par ch=6 c=11 v=70
17980 Par ch=6 c=11 v=71
17988 Par ch=6 c=11 v=72
17996 Par ch=6 c=11 v=73
18000 Par ch=6 c=11 v=74
18008 Par ch=6 c=11 v=75
18016 Par ch=6 c=11 v=76
18024 Par ch=6 c=11 v=77
18028 Par ch=6 c=11 v=78
18036 Par ch=6 c=11 v=79
18044 Par ch=6 c=11 v=80
18048 Par ch=6 c=11 v=80
18056 Par ch=6 c=11 v=79
18064 Par ch=6 c=11 v=78
18072 Par ch=6 c=11 v=77
18080 Par ch=6 c=11 v=76
18088 Par ch=6 c=11 v=75
18096 Par ch=6 c=11 v=74
18104 Par ch=6 c=11 v=73
18112 Par ch=6 c=11 v=72
18120 Par ch=6 c=11 v=71
18128 Par ch=6 c=11 v=70
18136 Par ch=6 c=11 v=69
18144 Par ch=6 c=11 v=68
18148 Par ch=6 c=11 v=67
18156 Par ch=6 c=11 v=66
18164 Par ch=6 c=11 v=65
18172 Par ch=6 c=11 v=64
18180 Par ch=6 c=11 v=63
18188 Par ch=6 c=11 v=62
18196 Par ch=6 c=11 v=61
18204 Par ch=6 c=11 v=60
18212 Par ch=6 c=11 v=59
18220 Par ch=6 c=11 v=58
18228 Par ch=6 c=11 v=57
18236 Par ch=6 c=11 v=56
18240 Par ch=6 c=11 v=55
18248 Par ch=6 c=11 v=54
18256 Par ch=6 c=11 v=53
18264 Par ch=6 c=11 v=52
18272 Par ch=6 c=11 v=51
18280 Par ch=6 c=11 v=50
18288 Par ch=6 c=11 v=49
18296 Par ch=6 c=11 v=48
18304 Par ch=6 c=11 v=47
18312 Par ch=6 c=11 v=46
18320 Par ch=6 c=11 v=45
18328 Par ch=6 c=11 v=44
18336 Par ch=6 c=11 v=43
18340 Par ch=6 c=11 v=42
18348 Par ch=6 c=11 v=41
18355 On ch=6 n=63 v=0
18356 Par ch=6 c=11 v=40
18364 Par ch=6 c=11 v=39
18372 Par ch=6 c=11 v=38
18380 Par ch=6 c=11 v=37
18388 Par ch=6 c=11 v=36
18396 Par ch=6 c=11 v=35
18404 Par ch=6 c=11 v=34
18412 Par ch=6 c=11 v=33
18420 Par ch=6 c=11 v=32
18432 Par ch=6 c=11 v=64
18432 Par ch=6 c=0 v=0
18432 Par ch=6 c=32 v=0
18432 PrCh ch=6 p=48
18432 On ch=6 n=59 v=31
18586 On ch=6 n=59 v=0
18624 On ch=6 n=64 v=31
18701 On ch=6 n=64 v=0
18720 On ch=6 n=66 v=31
18797 On ch=6 n=66 v=0
18816 On ch=6 n=68 v=31
18893 On ch=6 n=68 v=0
18912 On ch=6 n=69 v=31
18989 On ch=6 n=69 v=0
19008 On ch=6 n=71 v=31
19085 On ch=6 n=71 v=0
19104 On ch=6 n=73 v=31
19152 On ch=6 n=73 v=0
19152 On ch=6 n=75 v=31
19190 On ch=6 n=75 v=0
19200 Par ch=6 c=11 v=64
19200 On ch=6 n=78 v=31
19204 Par ch=6 c=11 v=65
19208 Par ch=6 c=11 v=66
19212 Par ch=6 c=11 v=68
19216 Par ch=6 c=11 v=69
19220 Par ch=6 c=11 v=71
19224 Par ch=6 c=11 v=72
19228 Par ch=6 c=11 v=73
19232 Par ch=6 c=11 v=75
19236 Par ch=6 c=11 v=76
19240 Par ch=6 c=11 v=78
19244 Par ch=6 c=11 v=79
19248 Par ch=6 c=11 v=79
19252 Par ch=6 c=11 v=78
19256 Par ch=6 c=11 v=77
19260 Par ch=6 c=11 v=76
19264 Par ch=6 c=11 v=74
19268 Par ch=6 c=11 v=73
19272 Par ch=6 c=11 v=72
19276 Par ch=6 c=11 v=71
19277 On ch=6 n=78 v=0
19280 Par ch=6 c=11 v=69
19284 Par ch=6 c=11 v=68
19288 Par ch=6 c=11 v=67
19292 Par ch=6 c=11 v=66
19296 Par ch=6 c=11 v=64
19296 On ch=6 n=76 v=31
19450 On ch=6 n=76 v=0
19488 Par ch=6 c=11 v=64
19488 On ch=6 n=75 v=31
19496 Par ch=6 c=11 v=65
19500 Par ch=6 c=11 v=66
19508 Par ch=6 c=11 v=67
19512 Par ch=6 c=11 v=68
19520 Par ch=6 c=11 v=69
19524 Par ch=6 c=11 v=70
19528 Par ch=6 c=11 v=71
19536 On ch=6 n=75 v=0
19536 Par ch=6 c=11 v=72
19536 On ch=6 n=76 v=31
19540 Par ch=6 c=11 v=73
19548 Par ch=6 c=11 v=74
19552 Par ch=6 c=11 v=75
19556 Par ch=6 c=11 v=76
19564 Par ch=6 c=11 v=77
19568 Par ch=6 c=11 v=78
19574 On ch=6 n=76 v=0
19576 Par ch=6 c=11 v=79
19580 Par ch=6 c=11 v=80
19584 Par ch=6 c=11 v=80
19584 On ch=6 n=78 v=31
19608 Par ch=6 c=11 v=79
19628 Par ch=6 c=11 v=78
19632 On ch=6 n=78 v=0
19632 On ch=6 n=76 v=31
19648 Par ch=6 c=11 v=77
19670 On ch=6 n=76 v=0
19672 Par ch=6 c=11 v=76
19680 On ch=6 n=75 v=31
19692 Par ch=6 c=11 v=75
19712 Par ch=6 c=11 v=74
19728 On ch=6 n=75 v=0
19728 On ch=6 n=76 v=31
19736 Par ch=6 c=11 v=73
19756 Par ch=6 c=11 v=72
19766 On ch=6 n=76 v=0
19776 Par ch=6 c=11 v=71
19776 On ch=6 n=75 v=31
19800 Par ch=6 c=11 v=70
19820 Par ch=6 c=11 v=69
19824 On ch=6 n=75 v=0
19824 On ch=6 n=73 v=31
19840 Par ch=6 c=11 v=68
19862 On ch=6 n=73 v=0
19864 Par ch=6 c=11 v=67
19872 On ch=6 n=72 v=31
19884 Par ch=6 c=11 v=66
19904 Par ch=6 c=11 v=65
19920 On ch=6 n=72 v=0
19920 On ch=6 n=73 v=31
19928 Par ch=6 c=11 v=64
19958 On ch=6 n=73 v=0
19968 On ch=6 n=71 v=31
20064 On ch=6 n=71 v=0
20064 On ch=6 n=70 v=31
20218 On ch=6 n=70 v=0
20256 Par ch=6 c=11 v=64
20256 On ch=6 n=68 v=31
20264 Par ch=6 c=11 v=65
20268 Par ch=6 c=11 v=66
20276 Par ch=6 c=11 v=67
20280 Par ch=6 c=11 v=68
20288 Par ch=6 c=11 v=69
20292 Par ch=6 c=11 v=70
20296 Par ch=6 c=11 v=71
20304 On ch=6 n=68 v=0
20304 Par ch=6 c=11 v=72
20304 On ch=6 n=70 v=31
20308 Par ch=6 c=11 v=73
20316 Par ch=6 c=11 v=74
20320 Par ch=6 c=11 v=75
20324 Par ch=6 c=11 v=76
20332 Par ch=6 c=11 v=77
20336 Par ch=6 c=11 v=78
20342 On ch=6 n=70 v=0
20344 Par ch=6 c=11 v=79
20348 Par ch=6 c=11 v=80
20352 Par ch=6 c=11 v=80
20352 On ch=6 n=68 v=31
20360 Par ch=6 c=11 v=79
20364 Par ch=6 c=11 v=78
20372 Par ch=6 c=11 v=77
20376 Par ch=6 c=11 v=76
20384 Par ch=6 c=11 v=75
20388 Par ch=6 c=11 v=74
20396 Par ch=6 c=11 v=73
20400 Par ch=6 c=11 v=72
20408 Par ch=6 c=11 v=71
20412 Par ch=6 c=11 v=70
20420 Par ch=6 c=11 v=69
20424 Par ch=6 c=11 v=68
20432 Par ch=6 c=11 v=67
20436 Par ch=6 c=11 v=66
20444 Par ch=6 c=11 v=65
20448 On ch=6 n=68 v=0
20448 Par ch=6 c=11 v=64
20448 On ch=6 n=66 v=31
20602 On ch=6 n=66 v=0
20640 Par ch=6 c=11 v=64
20640 On ch=6 n=76 v=31
20648 Par ch=6 c=11 v=65
20652 Par ch=6 c=11 v=66
20660 Par ch=6 c=11 v=67
20664 Par ch=6 c=11 v=68
20672 Par ch=6 c=11 v=69
20676 Par ch=6 c=11 v=70
20680 Par ch=6 c=11 v=71
20688 On ch=6 n=76 v=0
20688 Par ch=6 c=11 v=72
20688 On ch=6 n=75 v=31
20692 Par ch=6 c=11 v=73
20700 Par ch=6 c=11 v=74
20704 Par ch=6 c=11 v=75
20708 Par ch=6 c=11 v=76
20716 Par ch=6 c=11 v=77
20720 Par ch=6 c=11 v=78
20726 On ch=6 n=75 v=0
20728 Par ch=6 c=11 v=79
20732 Par ch=6 c=11 v=80
20736 Par ch=6 c=11 v=80
20736 On ch=6 n=75 v=31
20752 Par ch=6 c=11 v=79
20768 Par ch=6 c=11 v=78
20784 Par ch=6 c=11 v=77
20800 Par ch=6 c=11 v=76
20816 Par ch=6 c=11 v=75
20832 On ch=6 n=75 v=0
20832 Par ch=6 c=11 v=74
20832 On ch=6 n=73 v=31
20848 Par ch=6 c=11 v=73
20864 Par ch=6 c=11 v=72
20880 Par ch=6 c=11 v=71
20896 Par ch=6 c=11 v=70
20912 Par ch=6 c=11 v=69
20928 Par ch=6 c=11 v=68
20944 Par ch=6 c=11 v=67
20960 Par ch=6 c=11 v=66
20976 Par ch=6 c=11 v=65
20986 On ch=6 n=73 v=0
20992 Par ch=6 c=11 v=64
21024 On ch=6 n=72 v=31
21072 On ch=6 n=72 v=0
21072 On ch=6 n=73 v=31
21110 On ch=6 n=73 v=0
21120 Par ch=6 c=11 v=64
21120 On ch=6 n=72 v=31
21144 Par ch=6 c=11 v=65
21168 On ch=6 n=72 v=0
21168 Par ch=6 c=11 v=66
21168 On ch=6 n=73 v=31
21188 Par ch=6 c=11 v=67
21212 Par ch=6 c=11 v=68
21236 Par ch=6 c=11 v=69
21245 On ch=6 n=73 v=0
21256 Par ch=6 c=11 v=70
21264 On ch=6 n=75 v=31
21280 Par ch=6 c=11 v=71
21304 Par ch=6 c=11 v=72
21324 Par ch=6 c=11 v=73
21341 On ch=6 n=75 v=0
21348 Par ch=6 c=11 v=74
21360 On ch=6 n=76 v=31
21372 Par ch=6 c=11 v=75
21392 Par ch=6 c=11 v=76
21408 On ch=6 n=76 v=0
21408 On ch=6 n=80 v=31
21416 Par ch=6 c=11 v=77
21440 Par ch=6 c=11 v=78
21456 On ch=6 n=80 v=0
21456 On ch=6 n=78 v=31
21460 Par ch=6 c=11 v=79
21484 Par ch=6 c=11 v=80
21494 On ch=6 n=78 v=0
21504 Par ch=6 c=11 v=80
21504 On ch=6 n=75 v=31
21516 Par ch=6 c=11 v=81
21524 Par ch=6 c=11 v=82
21532 Par ch=6 c=11 v=83
21540 Par ch=6 c=11 v=84
21548 Par ch=6 c=11 v=85
21556 Par ch=6 c=11 v=86
21564 Par ch=6 c=11 v=87
21572 Par ch=6 c=11 v=88
21584 Par ch=6 c=11 v=89
21592 Par ch=6 c=11 v=90
21600 Par ch=6 c=11 v=91
21608 Par ch=6 c=11 v=92
21616 Par ch=6 c=11 v=93
21624 Par ch=6 c=11 v=94
21632 Par ch=6 c=11 v=95
21640 Par ch=6 c=11 v=96
21648 Par ch=6 c=11 v=95
21656 Par ch=6 c=11 v=94
21660 Par ch=6 c=11 v=93
21664 Par ch=6 c=11 v=92
21668 Par ch=6 c=11 v=91
21672 Par ch=6 c=11 v=90
21676 Par ch=6 c=11 v=89
21684 Par ch=6 c=11 v=88
21688 Par ch=6 c=11 v=87
21692 Par ch=6 c=11 v=86
21696 On ch=6 n=75 v=0
21696 Par ch=6 c=11 v=85
21696 On ch=6 n=66 v=31
21700 Par ch=6 c=11 v=84
21704 Par ch=6 c=11 v=83
21712 Par ch=6 c=11 v=82
21716 Par ch=6 c=11 v=81
21720 Par ch=6 c=11 v=80
21724 Par ch=6 c=11 v=79
21728 Par ch=6 c=11 v=78
21732 Par ch=6 c=11 v=77
21740 Par ch=6 c=11 v=76
21744 Par ch=6 c=11 v=75
21748 Par ch=6 c=11 v=74
21752 Par ch=6 c=11 v=73
21756 Par ch=6 c=11 v=72
21760 Par ch=6 c=11 v=71
21768 Par ch=6 c=11 v=70
21772 Par ch=6 c=11 v=69
21773 On ch=6 n=66 v=0
21776 Par ch=6 c=11 v=68
21780 Par ch=6 c=11 v=67
21784 Par ch=6 c=11 v=66
21788 Par ch=6 c=11 v=65
21792 Par ch=6 c=11 v=64
21792 On ch=6 n=78 v=31
21864 On ch=6 n=78 v=0
21864 On ch=6 n=77 v=31
21880 On ch=6 n=77 v=0
21888 Par ch=6 c=11 v=64
21888 On ch=6 n=77 v=31
21892 Par ch=6 c=11 v=65
21896 Par ch=6 c=11 v=66
21900 Par ch=6 c=11 v=68
21904 Par ch=6 c=11 v=69
21908 Par ch=6 c=11 v=71
21912 Par ch=6 c=11 v=72
21916 Par ch=6 c=11 v=73
21920 Par ch=6 c=11 v=75
21924 Par ch=6 c=11 v=76
21928 Par ch=6 c=11 v=78
21932 Par ch=6 c=11 v=79
21936 Par ch=6 c=11 v=80
21940 Par ch=6 c=11 v=79
21944 Par ch=6 c=11 v=78
21948 Par ch=6 c=11 v=76
21952 Par ch=6 c=11 v=75
21956 Par ch=6 c=11 v=74
21960 Par ch=6 c=11 v=72
21964 Par ch=6 c=11 v=71
21968 Par ch=6 c=11 v=70
21972 Par ch=6 c=11 v=68
21976 Par ch=6 c=11 v=67
21980 Par ch=6 c=11 v=66
21984 On ch=6 n=77 v=0
21984 Par ch=6 c=11 v=64
21984 On ch=6 n=75 v=31
22138 On ch=6 n=75 v=0
22176 Par ch=6 c=11 v=64
22176 On ch=6 n=78 v=31
22184 Par ch=6 c=11 v=63
22188 Par ch=6 c=11 v=62
22196 Par ch=6 c=11 v=61
22200 Par ch=6 c=11 v=60
22208 Par ch=6 c=11 v=59
22212 Par ch=6 c=11 v=58
22216 Par ch=6 c=11 v=57
22224 Par ch=6 c=11 v=56
22228 Par ch=6 c=11 v=55
22236 Par ch=6 c=11 v=54
22240 Par ch=6 c=11 v=53
22244 Par ch=6 c=11 v=52
22248 On ch=6 n=78 v=0
22248 On ch=6 n=77 v=31
22252 Par ch=6 c=11 v=51
22256 Par ch=6 c=11 v=50
22264 On ch=6 n=77 v=0
22264 Par ch=6 c=11 v=49
22268 Par ch=6 c=11 v=48
22272 On ch=6 n=77 v=31
22320 On ch=6 n=77 v=0
22320 On ch=6 n=75 v=31
22358 On ch=6 n=75 v=0
22368 On ch=6 n=78 v=31
22416 On ch=6 n=78 v=0
22416 On ch=6 n=77 v=31
22454 On ch=6 n=77 v=0
22464 Par ch=6 c=11 v=48
22464 On ch=6 n=77 v=31
22468 Par ch=6 c=11 v=49
22472 Par ch=6 c=11 v=50
22476 Par ch=6 c=11 v=52
22480 Par ch=6 c=11 v=53
22484 Par ch=6 c=11 v=54
22488 Par ch=6 c=11 v=56
22492 Par ch=6 c=11 v=57
22496 Par ch=6 c=11 v=58
22500 Par ch=6 c=11 v=60
22504 Par ch=6 c=11 v=61
22508 Par ch=6 c=11 v=62
22512 On ch=6 n=77 v=0
22512 Par ch=6 c=11 v=64
22512 On ch=6 n=75 v=31
22516 Par ch=6 c=11 v=65
22520 Par ch=6 c=11 v=66
22524 Par ch=6 c=11 v=68
22528 Par ch=6 c=11 v=69
22532 Par ch=6 c=11 v=71
22536 Par ch=6 c=11 v=72
22540 Par ch=6 c=11 v=73
22544 Par ch=6 c=11 v=75
22548 Par ch=6 c=11 v=76
22550 On ch=6 n=75 v=0
22552 Par ch=6 c=11 v=77
22556 Par ch=6 c=11 v=79
22560 Par ch=6 c=11 v=80
22560 On ch=6 n=74 v=31
22564 Par ch=6 c=11 v=81
22568 Par ch=6 c=11 v=83
22572 Par ch=6 c=11 v=84
22576 Par ch=6 c=11 v=85
22580 Par ch=6 c=11 v=87
22584 Par ch=6 c=11 v=88
22588 Par ch=6 c=11 v=89
22592 Par ch=6 c=11 v=91
22596 Par ch=6 c=11 v=92
22600 Par ch=6 c=11 v=94
22604 Par ch=6 c=11 v=95
22608 On ch=6 n=74 v=0
22608 Par ch=6 c=11 v=96
22608 On ch=6 n=75 v=31
22612 Par ch=6 c=11 v=98
22616 Par ch=6 c=11 v=99
22620 Par ch=6 c=11 v=100
22624 Par ch=6 c=11 v=102
22628 Par ch=6 c=11 v=103
22632 Par ch=6 c=11 v=104
22636 Par ch=6 c=11 v=106
22640 Par ch=6 c=11 v=107
22644 Par ch=6 c=11 v=108
22646 On ch=6 n=75 v=0
22648 Par ch=6 c=11 v=110
22652 Par ch=6 c=11 v=111
22656 Par ch=6 c=11 v=64
22656 On ch=6 n=87 v=111
22664 Par ch=6 c=11 v=63
22668 Par ch=6 c=11 v=62
22676 Par ch=6 c=11 v=61
22680 Par ch=6 c=11 v=60
22688 Par ch=6 c=11 v=59
22692 Par ch=6 c=11 v=58
22700 Par ch=6 c=11 v=57
22704 Par ch=6 c=11 v=56
22712 Par ch=6 c=11 v=55
22716 Par ch=6 c=11 v=54
22724 Par ch=6 c=11 v=53
22728 Par ch=6 c=11 v=52
22736 Par ch=6 c=11 v=51
22740 Par ch=6 c=11 v=50
22748 Par ch=6 c=11 v=49
22752 On ch=6 n=87 v=0
22752 Par ch=6 c=11 v=48
22752 On ch=6 n=82 v=111
22906 On ch=6 n=82 v=0
22944 Par ch=6 c=11 v=48
22944 On ch=6 n=83 v=111
22952 Par ch=6 c=11 v=49
22956 Par ch=6 c=11 v=50
22964 Par ch=6 c=11 v=51
22968 Par ch=6 c=11 v=52
22976 Par ch=6 c=11 v=53
22980 Par ch=6 c=11 v=54
22984 Par ch=6 c=11 v=55
22992 Par ch=6 c=11 v=56
22996 Par ch=6 c=11 v=57
23004 Par ch=6 c=11 v=58
23008 Par ch=6 c=11 v=59
23012 Par ch=6 c=11 v=60
23020 Par ch=6 c=11 v=61
23024 Par ch=6 c=11 v=62
23032 Par ch=6 c=11 v=63
23036 Par ch=6 c=11 v=64
23040 Par ch=6 c=11 v=64
23048 Par ch=6 c=11 v=63
23052 Par ch=6 c=11 v=62
23060 Par ch=6 c=11 v=61
23064 Par ch=6 c=11 v=60
23072 Par ch=6 c=11 v=59
23076 Par ch=6 c=11 v=58
23084 Par ch=6 c=11 v=57
23088 Par ch=6 c=11 v=56
23096 Par ch=6 c=11 v=55
23100 Par ch=6 c=11 v=54
23108 Par ch=6 c=11 v=53
23112 Par ch=6 c=11 v=52
23117 On ch=6 n=83 v=0
23120 Par ch=6 c=11 v=51
23124 Par ch=6 c=11 v=50
23132 Par ch=6 c=11 v=49
23136 Par ch=6 c=11 v=48
23136 On ch=6 n=82 v=111
23290 On ch=6 n=82 v=0
23328 Par ch=6 c=11 v=48
23328 On ch=6 n=80 v=111
23344 Par ch=6 c=11 v=49
23360 Par ch=6 c=11 v=50
23366 On ch=6 n=80 v=0
23372 Par ch=6 c=11 v=51
23376 On ch=6 n=79 v=111
23388 Par ch=6 c=11 v=52
23404 Par ch=6 c=11 v=53
23414 On ch=6 n=79 v=0
23416 Par ch=6 c=11 v=54
23424 On ch=6 n=82 v=111
23432 Par ch=6 c=11 v=55
23448 Par ch=6 c=11 v=56
23460 Par ch=6 c=11 v=57
23472 On ch=6 n=82 v=0
23472 On ch=6 n=80 v=111
23476 Par ch=6 c=11 v=58
23488 Par ch=6 c=11 v=59
23504 Par ch=6 c=11 v=60
23520 Par ch=6 c=11 v=61
23532 Par ch=6 c=11 v=62
23548 Par ch=6 c=11 v=63
23549 On ch=6 n=80 v=0
23564 Par ch=6 c=11 v=64
23568 On ch=6 n=78 v=111
23576 Par ch=6 c=11 v=65
23592 Par ch=6 c=11 v=66
23608 Par ch=6 c=11 v=67
23620 Par ch=6 c=11 v=68
23636 Par ch=6 c=11 v=69
23645 On ch=6 n=78 v=0
23648 Par ch=6 c=11 v=70
23664 Par ch=6 c=11 v=71
23664 On ch=6 n=77 v=111
23680 Par ch=6 c=11 v=72
23692 Par ch=6 c=11 v=73
23708 Par ch=6 c=11 v=74
23712 On ch=6 n=77 v=0
23712 On ch=6 n=80 v=111
23724 Par ch=6 c=11 v=75
23736 Par ch=6 c=11 v=76
23752 Par ch=6 c=11 v=77
23760 On ch=6 n=80 v=0
23760 On ch=6 n=74 v=111
23768 Par ch=6 c=11 v=78
23780 Par ch=6 c=11 v=79
23796 Par ch=6 c=11 v=80
23798 On ch=6 n=74 v=0
23808 Par ch=6 c=11 v=64
23808 On ch=6 n=75 v=127
23923 On ch=6 n=75 v=0
24000 Par ch=6 c=0 v=0
24000 Par ch=6 c=32 v=0
24000 PrCh ch=6 p=44
24000 Par ch=6 c=11 v=64
24000 On ch=6 n=55 v=111
24000 On ch=6 n=67 v=111
24004 Par ch=6 c=11 v=63
24008 Par ch=6 c=11 v=62
24012 Par ch=6 c=11 v=61
24016 Par ch=6 c=11 v=60
24020 Par ch=6 c=11 v=59
24024 Par ch=6 c=11 v=58
24028 Par ch=6 c=11 v=57
24032 Par ch=6 c=11 v=56
24036 Par ch=6 c=11 v=55
24040 Par ch=6 c=11 v=54
24044 Par ch=6 c=11 v=53
24048 Par ch=6 c=11 v=52
24052 Par ch=6 c=11 v=51
24056 Par ch=6 c=11 v=50
24060 Par ch=6 c=11 v=49
24064 Par ch=6 c=11 v=48
24068 Par ch=6 c=11 v=47
24072 Par ch=6 c=11 v=46
24076 Par ch=6 c=11 v=45
24080 Par ch=6 c=11 v=44
24084 Par ch=6 c=11 v=43
24088 Par ch=6 c=11 v=42
24092 Par ch=6 c=11 v=41
24096 Par ch=6 c=11 v=40
24100 Par ch=6 c=11 v=39
24104 Par ch=6 c=11 v=38
24108 Par ch=6 c=11 v=37
24112 Par ch=6 c=11 v=36
24116 Par ch=6 c=11 v=35
24120 Par ch=6 c=11 v=34
24124 Par ch=6 c=11 v=33
24128 Par ch=6 c=11 v=32
24132 Par ch=6 c=11 v=31
24136 Par ch=6 c=11 v=30
24140 Par ch=6 c=11 v=29
24144 Par ch=6 c=11 v=28
24148 Par ch=6 c=11 v=27
24152 Par ch=6 c=11 v=26
24156 Par ch=6 c=11 v=25
24160 Par ch=6 c=11 v=24
24164 Par ch=6 c=11 v=23
24168 Par ch=6 c=11 v=22
24172 Par ch=6 c=11 v=21
24176 Par ch=6 c=11 v=20
24180 Par ch=6 c=11 v=19
24184 Par ch=6 c=11 v=18
24188 Par ch=6 c=11 v=17
26803 On ch=6 n=67 v=0
26803 On ch=6 n=55 v=0
26880 Par ch=6 c=0 v=0
26880 Par ch=6 c=32 v=0
26880 PrCh ch=6 p=48
26880 Par ch=6 c=11 v=64
26880 On ch=6 n=72 v=111
26911 On ch=6 n=72 v=0
26952 On ch=6 n=67 v=95
26968 On ch=6 n=67 v=0
26976 On ch=6 n=60 v=95
27007 On ch=6 n=60 v=0
27264 On ch=6 n=72 v=127
27264 On ch=6 n=75 v=127
27295 On ch=6 n=75 v=0
27295 On ch=6 n=72 v=0
27336 On ch=6 n=67 v=111
27336 On ch=6 n=72 v=111
27352 On ch=6 n=72 v=0
27352 On ch=6 n=67 v=0
27360 On ch=6 n=60 v=95
27391 On ch=6 n=60 v=0
27648 On ch=6 n=67 v=95
27648 On ch=6 n=79 v=95
27744 On ch=6 n=79 v=0
27744 On ch=6 n=67 v=0
27744 On ch=6 n=66 v=95
27744 On ch=6 n=78 v=95
27782 On ch=6 n=78 v=0
27782 On ch=6 n=66 v=0
27816 On ch=6 n=67 v=95
27816 On ch=6 n=79 v=95
27835 On ch=6 n=79 v=0
27835 On ch=6 n=67 v=0
27840 On ch=6 n=67 v=95
27840 On ch=6 n=79 v=95
27916 On ch=6 n=79 v=0
27916 On ch=6 n=67 v=0
27936 Par ch=6 c=11 v=64
27936 On ch=6 n=60 v=95
27936 On ch=6 n=72 v=95
27962 On ch=6 n=72 v=0
27962 On ch=6 n=60 v=0
27968 Par ch=6 c=11 v=65
27968 On ch=6 n=62 v=95
27968 On ch=6 n=74 v=95
27994 On ch=6 n=74 v=0
27994 On ch=6 n=62 v=0
27996 Par ch=6 c=11 v=66
28000 On ch=6 n=63 v=95
28000 On ch=6 n=75 v=95
28024 Par ch=6 c=11 v=67
28026 On ch=6 n=75 v=0
28026 On ch=6 n=63 v=0
28032 On ch=6 n=67 v=95
28032 On ch=6 n=79 v=95
28052 Par ch=6 c=11 v=68
28080 Par ch=6 c=11 v=69
28108 Par ch=6 c=11 v=70
28128 On ch=6 n=79 v=0
28128 On ch=6 n=67 v=0
28128 On ch=6 n=66 v=95
28128 On ch=6 n=78 v=95
28136 Par ch=6 c=11 v=71
28154 On ch=6 n=78 v=0
28154 On ch=6 n=66 v=0
28160 On ch=6 n=67 v=95
28160 On ch=6 n=79 v=95
28164 Par ch=6 c=11 v=72
28186 On ch=6 n=79 v=0
28186 On ch=6 n=67 v=0
28192 Par ch=6 c=11 v=73
28192 On ch=6 n=68 v=95
28192 On ch=6 n=80 v=95
28218 On ch=6 n=80 v=0
28218 On ch=6 n=68 v=0
28220 Par ch=6 c=11 v=74
28224 On ch=6 n=67 v=95
28224 On ch=6 n=79 v=95
28248 Par ch=6 c=11 v=75
28276 Par ch=6 c=11 v=76
28301 On ch=6 n=79 v=0
28301 On ch=6 n=67 v=0
28304 Par ch=6 c=11 v=77
28320 On ch=6 n=71 v=95
28320 On ch=6 n=83 v=95
28332 Par ch=6 c=11 v=78
28346 On ch=6 n=83 v=0
28346 On ch=6 n=71 v=0
28352 On ch=6 n=72 v=95
28352 On ch=6 n=84 v=95
28360 Par ch=6 c=11 v=79
28378 On ch=6 n=84 v=0
28378 On ch=6 n=72 v=0
28384 On ch=6 n=74 v=95
28384 On ch=6 n=86 v=95
28388 Par ch=6 c=11 v=80
28410 On ch=6 n=86 v=0
28410 On ch=6 n=74 v=0
28416 Par ch=6 c=0 v=0
28416 Par ch=6 c=32 v=0
28416 PrCh ch=6 p=44
28416 On ch=6 n=87 v=95
28416 On ch=6 n=75 v=95
28464 Par ch=6 c=11 v=32
28800 Par ch=6 c=11 v=32
28832 Par ch=6 c=11 v=31
28860 Par ch=6 c=11 v=30
28892 Par ch=6 c=11 v=29
28920 Par ch=6 c=11 v=28
28948 Par ch=6 c=11 v=27
28980 Par ch=6 c=11 v=26
29008 Par ch=6 c=11 v=25
29040 Par ch=6 c=11 v=24
29068 Par ch=6 c=11 v=23
29096 Par ch=6 c=11 v=22
29128 Par ch=6 c=11 v=21
29156 Par ch=6 c=11 v=20
29184 Par ch=6 c=11 v=19
29216 Par ch=6 c=11 v=18
29244 Par ch=6 c=11 v=17
29276 Par ch=6 c=11 v=16
29304 Par ch=6 c=11 v=15
29332 Par ch=6 c=11 v=14
29364 Par ch=6 c=11 v=13
29392 Par ch=6 c=11 v=12
29424 Par ch=6 c=11 v=11
29452 Par ch=6 c=11 v=10
29480 Par ch=6 c=11 v=9
29491 On ch=6 n=75 v=0
29491 On ch=6 n=87 v=0
29512 Par ch=6 c=11 v=8
29568 Par ch=6 c=11 v=64
29952 On ch=6 n=84 v=95
30000 Par ch=6 c=11 v=32
30344 Par ch=6 c=11 v=16
30352 Par ch=6 c=11 v=17
30360 Par ch=6 c=11 v=18
30368 Par ch=6 c=11 v=19
30376 Par ch=6 c=11 v=20
30384 Par ch=6 c=11 v=21
30392 Par ch=6 c=11 v=22
30400 Par ch=6 c=11 v=23
30408 Par ch=6 c=11 v=24
30416 Par ch=6 c=11 v=25
30424 Par ch=6 c=11 v=26
30432 Par ch=6 c=11 v=27
30436 Par ch=6 c=11 v=28
30444 Par ch=6 c=11 v=29
30452 Par ch=6 c=11 v=30
30460 Par ch=6 c=11 v=31
30468 Par ch=6 c=11 v=32
30476 Par ch=6 c=11 v=33
30484 Par ch=6 c=11 v=34
30492 Par ch=6 c=11 v=35
30500 Par ch=6 c=11 v=36
30508 Par ch=6 c=11 v=37
30516 Par ch=6 c=11 v=38
30524 Par ch=6 c=11 v=39
30528 Par ch=6 c=11 v=40
30536 Par ch=6 c=11 v=41
30544 Par ch=6 c=11 v=42
30552 Par ch=6 c=11 v=43
30560 Par ch=6 c=11 v=44
30568 Par ch=6 c=11 v=45
30576 Par ch=6 c=11 v=46
30584 Par ch=6 c=11 v=47
30592 Par ch=6 c=11 v=48
30600 Par ch=6 c=11 v=49
30608 Par ch=6 c=11 v=50
30616 Par ch=6 c=11 v=51
30624 Par ch=6 c=11 v=52
30628 Par ch=6 c=11 v=53
30636 Par ch=6 c=11 v=54
30643 On ch=6 n=84 v=0
30644 Par ch=6 c=11 v=55
30652 Par ch=6 c=11 v=56
30660 Par ch=6 c=11 v=57
30668 Par ch=6 c=11 v=58
30676 Par ch=6 c=11 v=59
30684 Par ch=6 c=11 v=60
30692 Par ch=6 c=11 v=61
30700 Par ch=6 c=11 v=62
30708 Par ch=6 c=11 v=63
30716 Par ch=6 c=11 v=64
30720 Par ch=6 c=0 v=0
30720 Par ch=6 c=32 v=0
30720 PrCh ch=6 p=44
30720 On ch=6 n=79 v=111
30776 Par ch=6 c=11 v=16
30784 Par ch=6 c=11 v=17
30792 Par ch=6 c=11 v=18
30796 Par ch=6 c=11 v=19
30804 Par ch=6 c=11 v=20
30812 Par ch=6 c=11 v=21
30816 Par ch=6 c=11 v=22
30824 Par ch=6 c=11 v=23
30832 Par ch=6 c=11 v=24
30836 Par ch=6 c=11 v=25
30844 Par ch=6 c=11 v=26
30852 Par ch=6 c=11 v=27
30856 Par ch=6 c=11 v=28
30864 Par ch=6 c=11 v=29
30872 Par ch=6 c=11 v=30
30876 Par ch=6 c=11 v=31
30884 Par ch=6 c=11 v=32
30892 Par ch=6 c=11 v=33
30896 Par ch=6 c=11 v=34
30904 Par ch=6 c=11 v=35
30912 Par ch=6 c=11 v=36
30916 Par ch=6 c=11 v=37
30924 Par ch=6 c=11 v=38
30932 Par ch=6 c=11 v=39
30936 Par ch=6 c=11 v=40
30944 Par ch=6 c=11 v=41
30952 Par ch=6 c=11 v=42
30960 Par ch=6 c=11 v=43
30964 Par ch=6 c=11 v=44
30972 Par ch=6 c=11 v=45
30980 Par ch=6 c=11 v=46
30984 Par ch=6 c=11 v=47
30992 Par ch=6 c=11 v=48
31000 Par ch=6 c=11 v=49
31004 Par ch=6 c=11 v=50
31012 Par ch=6 c=11 v=51
31020 Par ch=6 c=11 v=52
31024 Par ch=6 c=11 v=53
31027 On ch=6 n=79 v=0
31032 Par ch=6 c=11 v=54
31040 Par ch=6 c=11 v=55
31044 Par ch=6 c=11 v=56
31052 Par ch=6 c=11 v=57
31060 Par ch=6 c=11 v=58
31064 Par ch=6 c=11 v=59
31072 Par ch=6 c=11 v=60
31080 Par ch=6 c=11 v=61
31084 Par ch=6 c=11 v=62
31092 Par ch=6 c=11 v=63
31100 Par ch=6 c=11 v=64
31104 Par ch=6 c=0 v=0
31104 Par ch=6 c=32 v=0
31104 PrCh ch=6 p=48
31104 On ch=6 n=79 v=111
31142 On ch=6 n=79 v=0
31176 On ch=6 n=77 v=111
31195 On ch=6 n=77 v=0
31200 On ch=6 n=75 v=111
31238 On ch=6 n=75 v=0
31272 On ch=6 n=74 v=111
31291 On ch=6 n=74 v=0
31296 On ch=6 n=72 v=111
31334 On ch=6 n=72 v=0
31368 On ch=6 n=70 v=111
31387 On ch=6 n=70 v=0
31392 On ch=6 n=69 v=111
31430 On ch=6 n=69 v=0
31464 On ch=6 n=67 v=111
31483 On ch=6 n=67 v=0
31872 On ch=6 n=79 v=111
31910 On ch=6 n=79 v=0
31944 On ch=6 n=77 v=111
31963 On ch=6 n=77 v=0
31968 On ch=6 n=75 v=111
32006 On ch=6 n=75 v=0
32040 On ch=6 n=74 v=111
32059 On ch=6 n=74 v=0
32064 On ch=6 n=72 v=111
32102 On ch=6 n=72 v=0
32136 On ch=6 n=70 v=111
32155 On ch=6 n=70 v=0
32160 On ch=6 n=69 v=111
32198 On ch=6 n=69 v=0
32232 On ch=6 n=67 v=111
32251 On ch=6 n=67 v=0
32640 On ch=6 n=79 v=111
32678 On ch=6 n=79 v=0
32712 On ch=6 n=74 v=111
32731 On ch=6 n=74 v=0
32736 On ch=6 n=67 v=111
32774 On ch=6 n=67 v=0
32832 On ch=6 n=82 v=111
32870 On ch=6 n=82 v=0
32904 On ch=6 n=77 v=111
32923 On ch=6 n=77 v=0
32928 On ch=6 n=70 v=111
32966 On ch=6 n=70 v=0
33024 On ch=6 n=79 v=111
33062 On ch=6 n=79 v=0
33096 On ch=6 n=74 v=111
33115 On ch=6 n=74 v=0
33120 On ch=6 n=67 v=111
33158 On ch=6 n=67 v=0
33216 On ch=6 n=82 v=111
33254 On ch=6 n=82 v=0
33288 On ch=6 n=77 v=111
33307 On ch=6 n=77 v=0
33312 On ch=6 n=70 v=111
33350 On ch=6 n=70 v=0
33408 Par ch=6 c=11 v=64
33408 On ch=6 n=75 v=111
33408 On ch=6 n=79 v=111
33416 Par ch=6 c=11 v=63
33420 Par ch=6 c=11 v=62
33428 Par ch=6 c=11 v=61
33432 Par ch=6 c=11 v=60
33440 Par ch=6 c=11 v=59
33444 Par ch=6 c=11 v=58
33448 Par ch=6 c=11 v=57
33456 Par ch=6 c=11 v=56
33460 Par ch=6 c=11 v=55
33468 Par ch=6 c=11 v=54
33472 Par ch=6 c=11 v=53
33476 Par ch=6 c=11 v=52
33484 Par ch=6 c=11 v=51
33488 Par ch=6 c=11 v=50
33496 Par ch=6 c=11 v=49
33500 Par ch=6 c=11 v=48
33504 On ch=6 n=79 v=0
33504 On ch=6 n=75 v=0
33504 Par ch=6 c=11 v=48
33504 On ch=6 n=74 v=111
33504 On ch=6 n=77 v=111
33516 Par ch=6 c=11 v=49
33528 Par ch=6 c=11 v=50
33540 Par ch=6 c=11 v=51
33552 Par ch=6 c=11 v=52
33564 Par ch=6 c=11 v=53
33576 Par ch=6 c=11 v=54
33588 Par ch=6 c=11 v=55
33600 Par ch=6 c=11 v=56
33612 Par ch=6 c=11 v=57
33624 Par ch=6 c=11 v=58
33636 Par ch=6 c=11 v=59
33648 Par ch=6 c=11 v=60
33660 Par ch=6 c=11 v=61
33672 Par ch=6 c=11 v=62
33684 Par ch=6 c=11 v=63
33696 On ch=6 n=77 v=0
33696 On ch=6 n=74 v=0
33696 Par ch=6 c=11 v=64
33696 On ch=6 n=77 v=111
33696 On ch=6 n=80 v=111
33744 On ch=6 n=80 v=0
33744 On ch=6 n=77 v=0
33744 On ch=6 n=75 v=111
33744 On ch=6 n=79 v=111
33782 On ch=6 n=79 v=0
33782 On ch=6 n=75 v=0
33792 Par ch=6 c=11 v=64
33792 On ch=6 n=74 v=111
33792 On ch=6 n=77 v=111
33800 Par ch=6 c=11 v=63
33804 Par ch=6 c=11 v=62
33812 Par ch=6 c=11 v=61
33816 Par ch=6 c=11 v=60
33824 Par ch=6 c=11 v=59
33828 Par ch=6 c=11 v=58
33836 Par ch=6 c=11 v=57
33840 Par ch=6 c=11 v=56
33848 Par ch=6 c=11 v=55
33852 Par ch=6 c=11 v=54
33860 Par ch=6 c=11 v=53
33864 Par ch=6 c=11 v=52
33872 Par ch=6 c=11 v=51
33876 Par ch=6 c=11 v=50
33884 Par ch=6 c=11 v=49
33888 On ch=6 n=77 v=0
33888 On ch=6 n=74 v=0
33888 Par ch=6 c=11 v=48
33888 On ch=6 n=72 v=111
33888 On ch=6 n=75 v=111
33926 On ch=6 n=75 v=0
33926 On ch=6 n=72 v=0
34176 Par ch=6 c=11 v=64
34176 On ch=6 n=79 v=111
34253 On ch=6 n=79 v=0
34272 On ch=6 n=74 v=111
34349 On ch=6 n=74 v=0
34368 On ch=6 n=72 v=111
34445 On ch=6 n=72 v=0
34464 On ch=6 n=70 v=111
34541 On ch=6 n=70 v=0
34560 On ch=6 n=86 v=111
34560 On ch=6 n=74 v=111
34608 Par ch=6 c=11 v=32
34620 Par ch=6 c=11 v=33
34632 Par ch=6 c=11 v=34
34640 Par ch=6 c=11 v=35
34652 Par ch=6 c=11 v=36
34660 Par ch=6 c=11 v=37
34672 Par ch=6 c=11 v=38
34680 Par ch=6 c=11 v=39
34692 Par ch=6 c=11 v=40
34700 Par ch=6 c=11 v=41
34712 Par ch=6 c=11 v=42
34720 Par ch=6 c=11 v=43
34732 Par ch=6 c=11 v=44
34744 Par ch=6 c=11 v=45
34752 Par ch=6 c=11 v=46
34764 Par ch=6 c=11 v=47
34772 Par ch=6 c=11 v=48
34784 Par ch=6 c=11 v=49
34792 Par ch=6 c=11 v=50
34804 Par ch=6 c=11 v=51
34812 Par ch=6 c=11 v=52
34824 Par ch=6 c=11 v=53
34832 Par ch=6 c=11 v=54
34844 Par ch=6 c=11 v=55
34856 Par ch=6 c=11 v=56
34864 Par ch=6 c=11 v=57
34876 Par ch=6 c=11 v=58
34884 Par ch=6 c=11 v=59
34896 Par ch=6 c=11 v=60
34904 Par ch=6 c=11 v=61
34916 Par ch=6 c=11 v=62
34924 Par ch=6 c=11 v=63
34936 Par ch=6 c=11 v=64
35021 On ch=6 n=74 v=0
35021 On ch=6 n=86 v=0
35040 On ch=6 n=70 v=111
35117 On ch=6 n=70 v=0
35136 On ch=6 n=69 v=111
35213 On ch=6 n=69 v=0
35232 On ch=6 n=67 v=111
35309 On ch=6 n=67 v=0
35328 On ch=6 n=70 v=111
35328 On ch=6 n=82 v=111
35376 Par ch=6 c=11 v=32
35597 On ch=6 n=82 v=0
35597 On ch=6 n=70 v=0
35712 Par ch=6 c=0 v=0
35712 Par ch=6 c=32 v=0
35712 PrCh ch=6 p=44
35712 Par ch=6 c=11 v=64
35712 On ch=6 n=60 v=95
35712 On ch=6 n=63 v=95
35760 Par ch=6 c=11 v=32
36019 On ch=6 n=63 v=0
36019 On ch=6 n=60 v=0
36096 Par ch=6 c=11 v=64
36096 On ch=6 n=58 v=95
36096 On ch=6 n=62 v=95
36144 Par ch=6 c=11 v=32
36403 On ch=6 n=62 v=0
36403 On ch=6 n=58 v=0
36480 On ch=6 n=58 v=95
36480 On ch=6 n=61 v=95
36492 Par ch=6 c=11 v=64
36653 On ch=6 n=61 v=0
36653 On ch=6 n=58 v=0
36672 Par ch=6 c=11 v=64
36672 On ch=6 n=60 v=95
36680 Par ch=6 c=11 v=63
36688 Par ch=6 c=11 v=62
36696 Par ch=6 c=11 v=61
36700 Par ch=6 c=11 v=60
36708 Par ch=6 c=11 v=59
36716 Par ch=6 c=11 v=58
36720 Par ch=6 c=11 v=57
36728 Par ch=6 c=11 v=56
36736 Par ch=6 c=11 v=55
36744 Par ch=6 c=11 v=54
36748 Par ch=6 c=11 v=53
36756 Par ch=6 c=11 v=52
36764 Par ch=6 c=11 v=51
36768 Par ch=6 c=11 v=50
36776 Par ch=6 c=11 v=49
36784 Par ch=6 c=11 v=48
36792 Par ch=6 c=11 v=47
36796 Par ch=6 c=11 v=46
36804 Par ch=6 c=11 v=45
36812 Par ch=6 c=11 v=44
36816 Par ch=6 c=11 v=43
36824 Par ch=6 c=11 v=42
36832 Par ch=6 c=11 v=41
36840 Par ch=6 c=11 v=40
36844 Par ch=6 c=11 v=39
36845 On ch=6 n=60 v=0
36852 Par ch=6 c=11 v=38
36860 Par ch=6 c=11 v=37
36864 Par ch=6 c=11 v=36
36864 On ch=6 n=58 v=95
36872 Par ch=6 c=11 v=35
36880 Par ch=6 c=11 v=34
36888 Par ch=6 c=11 v=33
36892 Par ch=6 c=11 v=32
36900 Par ch=6 c=11 v=31
36908 Par ch=6 c=11 v=30
36912 Par ch=6 c=11 v=29
36920 Par ch=6 c=11 v=28
36928 Par ch=6 c=11 v=27
36936 Par ch=6 c=11 v=26
36940 Par ch=6 c=11 v=25
36948 Par ch=6 c=11 v=24
36956 Par ch=6 c=11 v=23
36960 Par ch=6 c=11 v=22
36968 Par ch=6 c=11 v=21
36976 Par ch=6 c=11 v=20
36984 Par ch=6 c=11 v=19
36988 Par ch=6 c=11 v=18
36996 Par ch=6 c=11 v=17
37004 Par ch=6 c=11 v=16
37008 Par ch=6 c=11 v=15
37016 Par ch=6 c=11 v=14
37024 Par ch=6 c=11 v=13
37032 Par ch=6 c=11 v=12
37036 Par ch=6 c=11 v=11
37044 Par ch=6 c=11 v=10
37052 Par ch=6 c=11 v=9
37056 Par ch=6 c=11 v=8
37094 On ch=6 n=58 v=0
37248 Par ch=6 c=0 v=0
37248 Par ch=6 c=32 v=0
37248 PrCh ch=6 p=48
37248 Par ch=6 c=11 v=64
44928 On ch=6 n=67 v=15
44928 On ch=6 n=55 v=15
45235 On ch=6 n=55 v=0
45235 On ch=6 n=67 v=0
45312 On ch=6 n=67 v=15
45312 On ch=6 n=72 v=15
45389 On ch=6 n=72 v=0
45389 On ch=6 n=67 v=0
45408 On ch=6 n=74 v=15
45408 On ch=6 n=72 v=15
45485 On ch=6 n=72 v=0
45485 On ch=6 n=74 v=0
45504 On ch=6 n=72 v=15
45504 On ch=6 n=76 v=15
45581 On ch=6 n=76 v=0
45581 On ch=6 n=72 v=0
45600 On ch=6 n=79 v=15
45600 On ch=6 n=74 v=15
45677 On ch=6 n=74 v=0
45677 On ch=6 n=79 v=0
45696 On ch=6 n=79 v=15
45696 On ch=6 n=76 v=15
46387 On ch=6 n=76 v=0
46387 On ch=6 n=79 v=0
46464 On ch=6 n=79 v=15
46464 On ch=6 n=76 v=15
46771 On ch=6 n=76 v=0
46771 On ch=6 n=79 v=0
46848 Par ch=6 c=11 v=64
46848 On ch=6 n=81 v=15
46848 On ch=6 n=76 v=15
46868 Par ch=6 c=11 v=63
46884 Par ch=6 c=11 v=62
46904 Par ch=6 c=11 v=61
46920 Par ch=6 c=11 v=60
46940 Par ch=6 c=11 v=59
46956 Par ch=6 c=11 v=58
46976 Par ch=6 c=11 v=57
46992 Par ch=6 c=11 v=56
47012 Par ch=6 c=11 v=55
47028 Par ch=6 c=11 v=54
47048 Par ch=6 c=11 v=53
47064 Par ch=6 c=11 v=52
47078 On ch=6 n=76 v=0
47078 On ch=6 n=81 v=0
47084 Par ch=6 c=11 v=51
47100 Par ch=6 c=11 v=50
47120 Par ch=6 c=11 v=49
47136 Par ch=6 c=11 v=48
47232 Par ch=6 c=11 v=64
49536 On ch=6 n=76 v=15
49536 On ch=6 n=64 v=15
49728 On ch=6 n=64 v=0
49728 On ch=6 n=76 v=0
49728 On ch=6 n=71 v=15
49728 On ch=6 n=59 v=15
49882 On ch=6 n=59 v=0
49882 On ch=6 n=71 v=0
49920 On ch=6 n=76 v=15
49920 On ch=6 n=64 v=15
50112 On ch=6 n=64 v=0
50112 On ch=6 n=76 v=0
50112 On ch=6 n=71 v=15
50112 On ch=6 n=59 v=15
54336 On ch=6 n=59 v=0
54336 On ch=6 n=71 v=0
54336 On ch=6 n=76 v=15
54336 On ch=6 n=64 v=15
54528 Par ch=6 c=11 v=64
54552 Par ch=6 c=11 v=63
54576 Par ch=6 c=11 v=62
54596 Par ch=6 c=11 v=61
54620 Par ch=6 c=11 v=60
54644 Par ch=6 c=11 v=59
54664 Par ch=6 c=11 v=58
54688 Par ch=6 c=11 v=57
54712 Par ch=6 c=11 v=56
54732 Par ch=6 c=11 v=55
54756 Par ch=6 c=11 v=54
54780 Par ch=6 c=11 v=53
54800 Par ch=6 c=11 v=52
54824 Par ch=6 c=11 v=51
54848 Par ch=6 c=11 v=50
54868 Par ch=6 c=11 v=49
54892 Par ch=6 c=11 v=48
54989 On ch=6 n=64 v=0
54989 On ch=6 n=76 v=0
55104 Par ch=6 c=11 v=64
56496 On ch=6 n=64 v=15
56544 On ch=6 n=64 v=0
56544 On ch=6 n=63 v=15
56592 On ch=6 n=63 v=0
56592 On ch=6 n=64 v=15
56640 On ch=6 n=64 v=0
56640 On ch=6 n=59 v=15
56688 On ch=6 n=59 v=0
56688 On ch=6 n=64 v=15
56736 On ch=6 n=64 v=0
56736 On ch=6 n=66 v=15
56784 On ch=6 n=66 v=0
56784 On ch=6 n=64 v=15
56832 On ch=6 n=64 v=0
56832 On ch=6 n=67 v=15
56880 On ch=6 n=67 v=0
56880 On ch=6 n=64 v=15
56928 On ch=6 n=64 v=0
56928 On ch=6 n=63 v=15
56976 On ch=6 n=63 v=0
56976 On ch=6 n=64 v=15
57024 On ch=6 n=64 v=0
57024 On ch=6 n=67 v=15
57072 On ch=6 n=67 v=0
57072 On ch=6 n=64 v=15
57120 On ch=6 n=64 v=0
57120 On ch=6 n=69 v=15
57168 On ch=6 n=69 v=0
57168 On ch=6 n=64 v=15
57216 On ch=6 n=64 v=0
57216 On ch=6 n=67 v=15
57264 On ch=6 n=67 v=0
57264 On ch=6 n=64 v=15
57312 On ch=6 n=64 v=0
57312 On ch=6 n=63 v=15
57360 On ch=6 n=63 v=0
57360 On ch=6 n=64 v=15
57408 On ch=6 n=64 v=0
57408 On ch=6 n=76 v=15
57456 On ch=6 n=76 v=0
57456 On ch=6 n=64 v=15
57504 On ch=6 n=64 v=0
57504 On ch=6 n=75 v=15
57552 On ch=6 n=75 v=0
57552 On ch=6 n=64 v=15
57600 On ch=6 n=64 v=0
57600 On ch=6 n=71 v=15
57648 On ch=6 n=71 v=0
57648 On ch=6 n=64 v=15
57696 On ch=6 n=64 v=0
57696 On ch=6 n=72 v=15
57744 On ch=6 n=72 v=0
57744 On ch=6 n=64 v=15
57792 On ch=6 n=64 v=0
57792 On ch=6 n=71 v=15
57840 On ch=6 n=71 v=0
57840 On ch=6 n=64 v=15
57888 On ch=6 n=64 v=0
57888 On ch=6 n=69 v=15
57936 On ch=6 n=69 v=0
57936 On ch=6 n=64 v=15
57974 On ch=6 n=64 v=0
61824 On ch=6 n=76 v=15
61855 On ch=6 n=76 v=0
61896 On ch=6 n=74 v=15
61912 On ch=6 n=74 v=0
61920 On ch=6 n=72 v=15
61951 On ch=6 n=72 v=0
61992 On ch=6 n=71 v=15
62008 On ch=6 n=71 v=0
62016 On ch=6 n=69 v=15
62047 On ch=6 n=69 v=0
62088 On ch=6 n=67 v=15
62104 On ch=6 n=67 v=0
62112 On ch=6 n=66 v=15
62143 On ch=6 n=66 v=0
62184 On ch=6 n=64 v=15
62200 On ch=6 n=64 v=0
62592 On ch=6 n=76 v=31
62623 On ch=6 n=76 v=0
62664 On ch=6 n=74 v=31
62680 On ch=6 n=74 v=0
62688 On ch=6 n=72 v=31
62719 On ch=6 n=72 v=0
62760 On ch=6 n=71 v=31
62776 On ch=6 n=71 v=0
62784 On ch=6 n=69 v=31
62815 On ch=6 n=69 v=0
62856 On ch=6 n=67 v=31
62872 On ch=6 n=67 v=0
62880 On ch=6 n=66 v=31
62911 On ch=6 n=66 v=0
62952 On ch=6 n=64 v=31
62968 On ch=6 n=64 v=0
63360 On ch=6 n=89 v=31
63360 On ch=6 n=77 v=31
63391 On ch=6 n=77 v=0
63391 On ch=6 n=89 v=0
63432 On ch=6 n=88 v=31
63432 On ch=6 n=76 v=31
63448 On ch=6 n=76 v=0
63448 On ch=6 n=88 v=0
63456 On ch=6 n=86 v=31
63456 On ch=6 n=74 v=31
63487 On ch=6 n=74 v=0
63487 On ch=6 n=86 v=0
63528 On ch=6 n=84 v=31
63528 On ch=6 n=72 v=31
63544 On ch=6 n=72 v=0
63544 On ch=6 n=84 v=0
63552 On ch=6 n=83 v=31
63552 On ch=6 n=71 v=31
63583 On ch=6 n=71 v=0
63583 On ch=6 n=83 v=0
63624 On ch=6 n=81 v=31
63624 On ch=6 n=69 v=31
63640 On ch=6 n=69 v=0
63640 On ch=6 n=81 v=0
63648 On ch=6 n=80 v=31
63648 On ch=6 n=68 v=31
63679 On ch=6 n=68 v=0
63679 On ch=6 n=80 v=0
63720 On ch=6 n=81 v=31
63720 On ch=6 n=69 v=31
63736 On ch=6 n=69 v=0
63736 On ch=6 n=81 v=0
63744 On ch=6 n=91 v=31
63744 On ch=6 n=79 v=31
63782 On ch=6 n=79 v=0
63782 On ch=6 n=91 v=0
63816 On ch=6 n=90 v=31
63816 On ch=6 n=78 v=31
63835 On ch=6 n=78 v=0
63835 On ch=6 n=90 v=0
63840 On ch=6 n=88 v=31
63840 On ch=6 n=76 v=31
63878 On ch=6 n=76 v=0
63878 On ch=6 n=88 v=0
63912 On ch=6 n=86 v=31
63912 On ch=6 n=74 v=31
63931 On ch=6 n=74 v=0
63931 On ch=6 n=86 v=0
63936 On ch=6 n=84 v=31
63936 On ch=6 n=72 v=31
63974 On ch=6 n=72 v=0
63974 On ch=6 n=84 v=0
64008 On ch=6 n=83 v=31
64008 On ch=6 n=71 v=31
64027 On ch=6 n=71 v=0
64027 On ch=6 n=83 v=0
64032 On ch=6 n=70 v=31
64032 On ch=6 n=82 v=31
64070 On ch=6 n=82 v=0
64070 On ch=6 n=70 v=0
64104 On ch=6 n=83 v=31
64104 On ch=6 n=71 v=31
64123 On ch=6 n=71 v=0
64123 On ch=6 n=83 v=0
64128 On ch=6 n=79 v=79
64282 On ch=6 n=79 v=0
64320 Par ch=6 c=11 v=64
64320 On ch=6 n=75 v=79
64356 Par ch=6 c=11 v=65
64388 Par ch=6 c=11 v=66
64424 Par ch=6 c=11 v=67
64435 On ch=6 n=75 v=0
64456 Par ch=6 c=11 v=68
64464 On ch=6 n=76 v=79
64492 Par ch=6 c=11 v=69
64495 On ch=6 n=76 v=0
64512 On ch=6 n=72 v=79
64524 Par ch=6 c=11 v=70
64550 On ch=6 n=72 v=0
64560 Par ch=6 c=11 v=71
64592 Par ch=6 c=11 v=72
64608 On ch=6 n=71 v=79
64628 Par ch=6 c=11 v=73
64660 Par ch=6 c=11 v=74
64685 On ch=6 n=71 v=0
64696 Par ch=6 c=11 v=75
64728 Par ch=6 c=11 v=76
64764 Par ch=6 c=11 v=77
64796 Par ch=6 c=11 v=78
64800 On ch=6 n=71 v=79
64832 Par ch=6 c=11 v=79
64864 Par ch=6 c=11 v=80
64877 On ch=6 n=71 v=0
64896 Par ch=6 c=11 v=64
64896 On ch=6 n=79 v=95
64973 On ch=6 n=79 v=0
64992 On ch=6 n=83 v=95
65030 On ch=6 n=83 v=0
65064 On ch=6 n=81 v=95
65083 On ch=6 n=81 v=0
65088 On ch=6 n=79 v=95
65203 On ch=6 n=79 v=0
65232 Par ch=6 c=11 v=64
65232 On ch=6 n=78 v=95
65236 Par ch=6 c=11 v=65
65240 Par ch=6 c=11 v=66
65244 Par ch=6 c=11 v=68
65248 Par ch=6 c=11 v=69
65252 Par ch=6 c=11 v=71
65256 Par ch=6 c=11 v=72
65260 Par ch=6 c=11 v=73
65264 Par ch=6 c=11 v=75
65268 Par ch=6 c=11 v=76
65272 Par ch=6 c=11 v=78
65276 Par ch=6 c=11 v=79
65328 On ch=6 n=78 v=0
65328 On ch=6 n=76 v=95
65366 On ch=6 n=76 v=0
65376 On ch=6 n=79 v=95
65407 On ch=6 n=79 v=0
65448 On ch=6 n=78 v=95
65464 On ch=6 n=78 v=0
65472 On ch=6 n=76 v=95
65549 On ch=6 n=76 v=0
65664 Par ch=6 c=11 v=64
65664 Par ch=6 c=0 v=0
65664 Par ch=6 c=32 v=0
65664 PrCh ch=6 p=44
65664 On ch=6 n=57 v=47
65672 Par ch=6 c=11 v=65
65680 Par ch=6 c=11 v=66
65684 Par ch=6 c=11 v=67
65692 Par ch=6 c=11 v=68
65696 Par ch=6 c=11 v=69
65702 On ch=6 n=57 v=0
65704 Par ch=6 c=11 v=70
65708 Par ch=6 c=11 v=71
65712 On ch=6 n=59 v=47
65716 Par ch=6 c=11 v=72
65720 Par ch=6 c=11 v=73
65728 Par ch=6 c=11 v=74
65732 Par ch=6 c=11 v=75
65740 Par ch=6 c=11 v=76
65744 Par ch=6 c=11 v=77
65750 On ch=6 n=59 v=0
65752 Par ch=6 c=11 v=78
65756 Par ch=6 c=11 v=79
65760 On ch=6 n=60 v=47
65764 Par ch=6 c=11 v=80
65768 Par ch=6 c=11 v=81
65776 Par ch=6 c=11 v=82
65780 Par ch=6 c=11 v=83
65788 Par ch=6 c=11 v=84
65792 Par ch=6 c=11 v=85
65798 On ch=6 n=60 v=0
65800 Par ch=6 c=11 v=86
65808 Par ch=6 c=11 v=87
65808 On ch=6 n=62 v=47
65812 Par ch=6 c=11 v=88
65820 Par ch=6 c=11 v=89
65824 Par ch=6 c=11 v=90
65832 Par ch=6 c=11 v=91
65836 Par ch=6 c=11 v=92
65844 Par ch=6 c=11 v=93
65846 On ch=6 n=62 v=0
65848 Par ch=6 c=11 v=94
65856 Par ch=6 c=11 v=95
65856 On ch=6 n=64 v=47
65860 Par ch=6 c=11 v=96
65868 Par ch=6 c=11 v=97
65872 Par ch=6 c=11 v=98
65880 Par ch=6 c=11 v=99
65884 Par ch=6 c=11 v=100
65892 Par ch=6 c=11 v=101
65894 On ch=6 n=64 v=0
65896 Par ch=6 c=11 v=102
65904 Par ch=6 c=11 v=103
65904 On ch=6 n=66 v=47
65908 Par ch=6 c=11 v=104
65916 Par ch=6 c=11 v=105
65920 Par ch=6 c=11 v=106
65928 Par ch=6 c=11 v=107
65936 Par ch=6 c=11 v=108
65940 Par ch=6 c=11 v=109
65942 On ch=6 n=66 v=0
65948 Par ch=6 c=11 v=110
65952 Par ch=6 c=11 v=111
65952 On ch=6 n=68 v=47
65960 Par ch=6 c=11 v=112
65964 Par ch=6 c=11 v=113
65972 Par ch=6 c=11 v=114
65976 Par ch=6 c=11 v=115
65984 Par ch=6 c=11 v=116
65988 Par ch=6 c=11 v=117
65990 On ch=6 n=68 v=0
65996 Par ch=6 c=11 v=118
66000 Par ch=6 c=11 v=119
66000 On ch=6 n=64 v=47
66008 Par ch=6 c=11 v=120
66012 Par ch=6 c=11 v=121
66020 Par ch=6 c=11 v=122
66024 Par ch=6 c=11 v=123
66032 Par ch=6 c=11 v=124
66036 Par ch=6 c=11 v=125
66038 On ch=6 n=64 v=0
66044 Par ch=6 c=11 v=126
66048 Par ch=6 c=11 v=126
66048 On ch=6 n=69 v=47
66056 Par ch=6 c=11 v=125
66060 Par ch=6 c=11 v=124
66068 Par ch=6 c=11 v=123
66072 Par ch=6 c=11 v=122
66080 Par ch=6 c=11 v=121
66084 Par ch=6 c=11 v=120
66086 On ch=6 n=69 v=0
66092 Par ch=6 c=11 v=119
66096 Par ch=6 c=11 v=118
66096 On ch=6 n=67 v=47
66104 Par ch=6 c=11 v=117
66108 Par ch=6 c=11 v=116
66116 Par ch=6 c=11 v=115
66120 Par ch=6 c=11 v=114
66128 Par ch=6 c=11 v=113
66132 Par ch=6 c=11 v=112
66134 On ch=6 n=67 v=0
66140 Par ch=6 c=11 v=111
66144 Par ch=6 c=11 v=110
66144 On ch=6 n=65 v=47
66152 Par ch=6 c=11 v=109
66156 Par ch=6 c=11 v=108
66164 Par ch=6 c=11 v=107
66168 Par ch=6 c=11 v=106
66176 Par ch=6 c=11 v=105
66180 Par ch=6 c=11 v=104
66182 On ch=6 n=65 v=0
66188 Par ch=6 c=11 v=103
66192 Par ch=6 c=11 v=102
66192 On ch=6 n=64 v=47
66200 Par ch=6 c=11 v=101
66204 Par ch=6 c=11 v=100
66212 Par ch=6 c=11 v=99
66216 Par ch=6 c=11 v=98
66224 Par ch=6 c=11 v=97
66228 Par ch=6 c=11 v=96
66230 On ch=6 n=64 v=0
66236 Par ch=6 c=11 v=95
66240 Par ch=6 c=11 v=94
66240 On ch=6 n=62 v=47
66248 Par ch=6 c=11 v=93
66252 Par ch=6 c=11 v=92
66260 Par ch=6 c=11 v=91
66264 Par ch=6 c=11 v=90
66272 Par ch=6 c=11 v=89
66276 Par ch=6 c=11 v=88
66278 On ch=6 n=62 v=0
66284 Par ch=6 c=11 v=87
66288 Par ch=6 c=11 v=86
66288 On ch=6 n=60 v=47
66296 Par ch=6 c=11 v=85
66300 Par ch=6 c=11 v=84
66308 Par ch=6 c=11 v=83
66312 Par ch=6 c=11 v=82
66320 Par ch=6 c=11 v=81
66324 Par ch=6 c=11 v=80
66326 On ch=6 n=60 v=0
66332 Par ch=6 c=11 v=79
66336 Par ch=6 c=11 v=78
66336 On ch=6 n=59 v=47
66344 Par ch=6 c=11 v=77
66348 Par ch=6 c=11 v=76
66356 Par ch=6 c=11 v=75
66360 Par ch=6 c=11 v=74
66368 Par ch=6 c=11 v=73
66372 Par ch=6 c=11 v=72
66374 On ch=6 n=59 v=0
66380 Par ch=6 c=11 v=71
66384 Par ch=6 c=11 v=70
66384 On ch=6 n=57 v=47
66392 Par ch=6 c=11 v=69
66396 Par ch=6 c=11 v=68
66404 Par ch=6 c=11 v=67
66408 Par ch=6 c=11 v=66
66416 Par ch=6 c=11 v=65
66420 Par ch=6 c=11 v=64
66422 On ch=6 n=57 v=0
66528 Par ch=6 c=11 v=64
66528 On ch=6 n=57 v=47
66536 Par ch=6 c=11 v=65
66540 Par ch=6 c=11 v=66
66544 Par ch=6 c=11 v=67
66548 Par ch=6 c=11 v=68
66552 Par ch=6 c=11 v=69
66556 Par ch=6 c=11 v=70
66560 Par ch=6 c=11 v=71
66566 On ch=6 n=57 v=0
66568 Par ch=6 c=11 v=72
66572 Par ch=6 c=11 v=73
66576 Par ch=6 c=11 v=74
66576 On ch=6 n=58 v=47
66580 Par ch=6 c=11 v=75
66584 Par ch=6 c=11 v=76
66588 Par ch=6 c=11 v=77
66592 Par ch=6 c=11 v=78
66600 Par ch=6 c=11 v=79
66604 Par ch=6 c=11 v=80
66608 Par ch=6 c=11 v=81
66612 Par ch=6 c=11 v=82
66614 On ch=6 n=58 v=0
66616 Par ch=6 c=11 v=83
66620 Par ch=6 c=11 v=84
66624 Par ch=6 c=11 v=85
66624 On ch=6 n=60 v=47
66632 Par ch=6 c=11 v=86
66636 Par ch=6 c=11 v=87
66640 Par ch=6 c=11 v=88
66644 Par ch=6 c=11 v=89
66648 Par ch=6 c=11 v=90
66652 Par ch=6 c=11 v=91
66656 Par ch=6 c=11 v=92
66662 On ch=6 n=60 v=0
66664 Par ch=6 c=11 v=93
66668 Par ch=6 c=11 v=94
66672 Par ch=6 c=11 v=95
66672 On ch=6 n=62 v=47
66676 Par ch=6 c=11 v=96
66680 Par ch=6 c=11 v=97
66684 Par ch=6 c=11 v=98
66688 Par ch=6 c=11 v=99
66696 Par ch=6 c=11 v=100
66700 Par ch=6 c=11 v=101
66704 Par ch=6 c=11 v=102
66708 Par ch=6 c=11 v=103
66710 On ch=6 n=62 v=0
66712 Par ch=6 c=11 v=104
66716 Par ch=6 c=11 v=105
66720 Par ch=6 c=11 v=106
66720 On ch=6 n=64 v=47
66728 Par ch=6 c=11 v=107
66732 Par ch=6 c=11 v=108
66736 Par ch=6 c=11 v=109
66740 Par ch=6 c=11 v=110
66744 Par ch=6 c=11 v=111
66748 Par ch=6 c=11 v=112
66752 Par ch=6 c=11 v=113
66758 On ch=6 n=64 v=0
66760 Par ch=6 c=11 v=114
66764 Par ch=6 c=11 v=115
66768 Par ch=6 c=11 v=116
66768 On ch=6 n=60 v=47
66772 Par ch=6 c=11 v=117
66776 Par ch=6 c=11 v=118
66780 Par ch=6 c=11 v=119
66784 Par ch=6 c=11 v=120
66792 Par ch=6 c=11 v=121
66796 Par ch=6 c=11 v=122
66800 Par ch=6 c=11 v=123
66804 Par ch=6 c=11 v=124
66806 On ch=6 n=60 v=0
66808 Par ch=6 c=11 v=125
66812 Par ch=6 c=11 v=126
66816 Par ch=6 c=11 v=126
66816 On ch=6 n=65 v=47
66820 Par ch=6 c=11 v=125
66824 Par ch=6 c=11 v=123
66828 Par ch=6 c=11 v=121
66832 Par ch=6 c=11 v=120
66836 Par ch=6 c=11 v=118
66840 Par ch=6 c=11 v=116
66844 Par ch=6 c=11 v=114
66848 Par ch=6 c=11 v=113
66852 Par ch=6 c=11 v=111
66854 On ch=6 n=65 v=0
66856 Par ch=6 c=11 v=109
66860 Par ch=6 c=11 v=108
66864 Par ch=6 c=11 v=106
66864 On ch=6 n=64 v=47
66868 Par ch=6 c=11 v=104
66872 Par ch=6 c=11 v=102
66876 Par ch=6 c=11 v=101
66880 Par ch=6 c=11 v=99
66884 Par ch=6 c=11 v=97
66888 Par ch=6 c=11 v=95
66892 Par ch=6 c=11 v=94
66896 Par ch=6 c=11 v=92
66900 Par ch=6 c=11 v=90
66902 On ch=6 n=64 v=0
66904 Par ch=6 c=11 v=89
66908 Par ch=6 c=11 v=87
66912 Par ch=6 c=11 v=85
66912 On ch=6 n=62 v=47
66916 Par ch=6 c=11 v=83
66920 Par ch=6 c=11 v=82
66924 Par ch=6 c=11 v=80
66928 Par ch=6 c=11 v=78
66932 Par ch=6 c=11 v=77
66936 Par ch=6 c=11 v=75
66940 Par ch=6 c=11 v=73
66944 Par ch=6 c=11 v=71
66948 Par ch=6 c=11 v=70
66950 On ch=6 n=62 v=0
66952 Par ch=6 c=11 v=68
66956 Par ch=6 c=11 v=66
66960 Par ch=6 c=11 v=64
66960 On ch=6 n=60 v=47
66998 On ch=6 n=60 v=0
67248 Par ch=6 c=11 v=64
67248 Par ch=6 c=0 v=0
67248 Par ch=6 c=32 v=0
67248 PrCh ch=6 p=48
67248 On ch=6 n=62 v=47
67252 Par ch=6 c=11 v=65
67256 Par ch=6 c=11 v=67
67260 Par ch=6 c=11 v=69
67264 Par ch=6 c=11 v=71
67267 On ch=6 n=62 v=0
67268 Par ch=6 c=11 v=72
67272 Par ch=6 c=11 v=74
67272 On ch=6 n=66 v=47
67276 Par ch=6 c=11 v=76
67280 Par ch=6 c=11 v=78
67284 Par ch=6 c=11 v=79
67288 Par ch=6 c=11 v=81
67291 On ch=6 n=66 v=0
67292 Par ch=6 c=11 v=83
67296 Par ch=6 c=11 v=85
67296 On ch=6 n=69 v=47
67300 Par ch=6 c=11 v=86
67304 Par ch=6 c=11 v=88
67308 Par ch=6 c=11 v=90
67312 Par ch=6 c=11 v=92
67315 On ch=6 n=69 v=0
67316 Par ch=6 c=11 v=93
67320 Par ch=6 c=11 v=95
67320 On ch=6 n=74 v=47
67324 Par ch=6 c=11 v=97
67328 Par ch=6 c=11 v=99
67332 Par ch=6 c=11 v=100
67336 Par ch=6 c=11 v=102
67339 On ch=6 n=74 v=0
67340 Par ch=6 c=11 v=104
67344 Par ch=6 c=11 v=106
67344 On ch=6 n=78 v=47
67348 Par ch=6 c=11 v=107
67352 Par ch=6 c=11 v=109
67356 Par ch=6 c=11 v=111
67360 Par ch=6 c=11 v=113
67363 On ch=6 n=78 v=0
67364 Par ch=6 c=11 v=114
67368 Par ch=6 c=11 v=116
67368 On ch=6 n=81 v=47
67372 Par ch=6 c=11 v=118
67376 Par ch=6 c=11 v=120
67380 Par ch=6 c=11 v=121
67384 Par ch=6 c=11 v=123
67387 On ch=6 n=81 v=0
67388 Par ch=6 c=11 v=125
67392 On ch=6 n=82 v=47
67411 On ch=6 n=82 v=0
67416 Par ch=6 c=11 v=64
67416 On ch=6 n=74 v=47
67420 Par ch=6 c=11 v=65
67424 Par ch=6 c=11 v=67
67428 Par ch=6 c=11 v=68
67432 Par ch=6 c=11 v=70
67435 On ch=6 n=74 v=0
67436 Par ch=6 c=11 v=71
67440 Par ch=6 c=11 v=73
67440 On ch=6 n=76 v=47
67444 Par ch=6 c=11 v=74
67448 Par ch=6 c=11 v=76
67452 Par ch=6 c=11 v=77
67456 Par ch=6 c=11 v=79
67459 On ch=6 n=76 v=0
67460 Par ch=6 c=11 v=80
67464 Par ch=6 c=11 v=82
67464 On ch=6 n=78 v=47
67468 Par ch=6 c=11 v=83
67472 Par ch=6 c=11 v=85
67476 Par ch=6 c=11 v=86
67480 Par ch=6 c=11 v=88
67483 On ch=6 n=78 v=0
67484 Par ch=6 c=11 v=89
67488 Par ch=6 c=11 v=91
67488 On ch=6 n=79 v=47
67492 Par ch=6 c=11 v=92
67496 Par ch=6 c=11 v=94
67500 Par ch=6 c=11 v=95
67504 Par ch=6 c=11 v=97
67507 On ch=6 n=79 v=0
67508 Par ch=6 c=11 v=98
67512 Par ch=6 c=11 v=100
67512 On ch=6 n=81 v=47
67516 Par ch=6 c=11 v=101
67520 Par ch=6 c=11 v=103
67524 Par ch=6 c=11 v=104
67528 Par ch=6 c=11 v=106
67531 On ch=6 n=81 v=0
67532 Par ch=6 c=11 v=107
67536 Par ch=6 c=11 v=109
67536 On ch=6 n=82 v=47
67540 Par ch=6 c=11 v=110
67544 Par ch=6 c=11 v=112
67548 Par ch=6 c=11 v=113
67552 Par ch=6 c=11 v=115
67555 On ch=6 n=82 v=0
67556 Par ch=6 c=11 v=116
67560 Par ch=6 c=11 v=118
67560 On ch=6 n=84 v=47
67564 Par ch=6 c=11 v=119
67568 Par ch=6 c=11 v=121
67572 Par ch=6 c=11 v=122
67576 Par ch=6 c=11 v=124
67579 On ch=6 n=84 v=0
67580 Par ch=6 c=11 v=125
67584 On ch=6 n=86 v=47
67622 On ch=6 n=86 v=0
67872 Par ch=6 c=11 v=64
67872 On ch=6 n=76 v=95
67903 On ch=6 n=76 v=0
67944 On ch=6 n=78 v=95
67960 On ch=6 n=78 v=0
67968 On ch=6 n=78 v=95
68045 On ch=6 n=78 v=0
68064 Par ch=6 c=11 v=64
68064 On ch=6 n=69 v=95
68084 Par ch=6 c=11 v=65
68095 On ch=6 n=69 v=0
68100 Par ch=6 c=11 v=66
68116 Par ch=6 c=11 v=67
68132 Par ch=6 c=11 v=68
68136 On ch=6 n=74 v=95
68152 On ch=6 n=74 v=0
68152 Par ch=6 c=11 v=69
68160 On ch=6 n=74 v=95
68168 Par ch=6 c=11 v=70
68184 Par ch=6 c=11 v=71
68200 Par ch=6 c=11 v=72
68220 Par ch=6 c=11 v=73
68236 Par ch=6 c=11 v=74
68237 On ch=6 n=74 v=0
68252 Par ch=6 c=11 v=75
68256 On ch=6 n=76 v=95
68268 Par ch=6 c=11 v=76
68277 On ch=6 n=76 v=0
68288 Par ch=6 c=11 v=77
68288 On ch=6 n=78 v=95
68304 Par ch=6 c=11 v=78
68309 On ch=6 n=78 v=0
68320 Par ch=6 c=11 v=79
68320 On ch=6 n=79 v=95
68336 Par ch=6 c=11 v=80
68341 On ch=6 n=79 v=0
68352 Par ch=6 c=11 v=64
68352 On ch=6 n=81 v=111
68429 On ch=6 n=81 v=0
68448 On ch=6 n=78 v=111
68469 On ch=6 n=78 v=0
68480 On ch=6 n=79 v=111
68501 On ch=6 n=79 v=0
68512 On ch=6 n=81 v=111
68533 On ch=6 n=81 v=0
68544 On ch=6 n=83 v=111
68621 On ch=6 n=83 v=0
68640 On ch=6 n=80 v=111
68661 On ch=6 n=80 v=0
68672 On ch=6 n=81 v=111
68693 On ch=6 n=81 v=0
68704 On ch=6 n=83 v=111
68725 On ch=6 n=83 v=0
68736 On ch=6 n=85 v=111
68774 On ch=6 n=85 v=0
69120 On ch=6 n=63 v=127
69151 On ch=6 n=63 v=0
69216 On ch=6 n=64 v=127
69370 On ch=6 n=64 v=0
69888 On ch=6 n=64 v=127
69919 On ch=6 n=64 v=0
69984 On ch=6 n=66 v=127
70138 On ch=6 n=66 v=0
70656 Par ch=6 c=11 v=64
70656 On ch=6 n=73 v=95
70680 Par ch=6 c=11 v=63
70694 On ch=6 n=73 v=0
70704 Par ch=6 c=11 v=62
70724 Par ch=6 c=11 v=61
70728 On ch=6 n=72 v=95
70747 On ch=6 n=72 v=0
70748 Par ch=6 c=11 v=60
70752 On ch=6 n=71 v=95
70772 Par ch=6 c=11 v=59
70790 On ch=6 n=71 v=0
70792 Par ch=6 c=11 v=58
70816 Par ch=6 c=11 v=57
70824 On ch=6 n=70 v=95
70840 Par ch=6 c=11 v=56
70843 On ch=6 n=70 v=0
70848 On ch=6 n=69 v=95
70860 Par ch=6 c=11 v=55
70884 Par ch=6 c=11 v=54
70886 On ch=6 n=69 v=0
70908 Par ch=6 c=11 v=53
70920 On ch=6 n=68 v=95
70928 Par ch=6 c=11 v=52
70939 On ch=6 n=68 v=0
70944 On ch=6 n=66 v=95
70952 Par ch=6 c=11 v=51
70976 Par ch=6 c=11 v=50
70982 On ch=6 n=66 v=0
70996 Par ch=6 c=11 v=49
71016 On ch=6 n=64 v=95
71020 Par ch=6 c=11 v=48
71035 On ch=6 n=64 v=0
71040 Par ch=6 c=11 v=64
71040 On ch=6 n=73 v=95
71064 Par ch=6 c=11 v=63
71078 On ch=6 n=73 v=0
71088 Par ch=6 c=11 v=62
71108 Par ch=6 c=11 v=61
71112 On ch=6 n=72 v=95
71131 On ch=6 n=72 v=0
71132 Par ch=6 c=11 v=60
71136 On ch=6 n=71 v=95
71156 Par ch=6 c=11 v=59
71174 On ch=6 n=71 v=0
71176 Par ch=6 c=11 v=58
71200 Par ch=6 c=11 v=57
71208 On ch=6 n=70 v=95
71224 Par ch=6 c=11 v=56
71227 On ch=6 n=70 v=0
71232 On ch=6 n=69 v=95
71244 Par ch=6 c=11 v=55
71268 Par ch=6 c=11 v=54
71270 On ch=6 n=69 v=0
71292 Par ch=6 c=11 v=53
71304 On ch=6 n=68 v=95
71312 Par ch=6 c=11 v=52
71323 On ch=6 n=68 v=0
71328 On ch=6 n=66 v=95
71336 Par ch=6 c=11 v=51
71360 Par ch=6 c=11 v=50
71366 On ch=6 n=66 v=0
71380 Par ch=6 c=11 v=49
71400 On ch=6 n=64 v=95
71404 Par ch=6 c=11 v=48
71419 On ch=6 n=64 v=0
71424 On ch=6 n=61 v=95
71450 On ch=6 n=61 v=0
71456 On ch=6 n=57 v=47
71482 On ch=6 n=57 v=0
71488 On ch=6 n=64 v=47
71514 On ch=6 n=64 v=0
71520 On ch=6 n=59 v=47
71546 On ch=6 n=59 v=0
71552 On ch=6 n=56 v=47
71578 On ch=6 n=56 v=0
71584 On ch=6 n=64 v=47
71610 On ch=6 n=64 v=0
71808 On ch=6 n=62 v=95
71834 On ch=6 n=62 v=0
71840 On ch=6 n=59 v=47
71866 On ch=6 n=59 v=0
71872 On ch=6 n=68 v=47
71898 On ch=6 n=68 v=0
71904 On ch=6 n=61 v=47
71930 On ch=6 n=61 v=0
71936 On ch=6 n=57 v=47
71962 On ch=6 n=57 v=0
71968 On ch=6 n=66 v=47
71994 On ch=6 n=66 v=0
72192 On ch=6 n=64 v=95
72218 On ch=6 n=64 v=0
72224 On ch=6 n=61 v=47
72250 On ch=6 n=61 v=0
72256 On ch=6 n=69 v=47
72282 On ch=6 n=69 v=0
72288 On ch=6 n=62 v=47
72314 On ch=6 n=62 v=0
72320 On ch=6 n=59 v=47
72346 On ch=6 n=59 v=0
72352 On ch=6 n=68 v=47
72378 On ch=6 n=68 v=0
72384 On ch=6 n=66 v=95
72410 On ch=6 n=66 v=0
72416 On ch=6 n=62 v=47
72442 On ch=6 n=62 v=0
72448 On ch=6 n=71 v=47
72474 On ch=6 n=71 v=0
72480 On ch=6 n=64 v=47
72506 On ch=6 n=64 v=0
72512 On ch=6 n=61 v=47
72538 On ch=6 n=61 v=0
72544 On ch=6 n=69 v=47
72570 On ch=6 n=69 v=0
72960 Par ch=6 c=11 v=64
72960 On ch=6 n=83 v=111
72968 Par ch=6 c=11 v=63
72976 Par ch=6 c=11 v=62
72984 Par ch=6 c=11 v=61
72992 Par ch=6 c=11 v=60
72998 On ch=6 n=83 v=0
73000 Par ch=6 c=11 v=59
73008 Par ch=6 c=11 v=58
73016 Par ch=6 c=11 v=57
73024 Par ch=6 c=11 v=56
73032 Par ch=6 c=11 v=55
73032 On ch=6 n=81 v=111
73040 Par ch=6 c=11 v=54
73048 Par ch=6 c=11 v=53
73051 On ch=6 n=81 v=0
73056 Par ch=6 c=11 v=52
73056 On ch=6 n=79 v=111
73064 Par ch=6 c=11 v=51
73072 Par ch=6 c=11 v=50
73080 Par ch=6 c=11 v=49
73088 Par ch=6 c=11 v=48
73094 On ch=6 n=79 v=0
73096 Par ch=6 c=11 v=47
73104 Par ch=6 c=11 v=46
73112 Par ch=6 c=11 v=45
73120 Par ch=6 c=11 v=44
73128 Par ch=6 c=11 v=43
73128 On ch=6 n=78 v=111
73136 Par ch=6 c=11 v=42
73144 Par ch=6 c=11 v=41
73147 On ch=6 n=78 v=0
73152 Par ch=6 c=11 v=40
73152 On ch=6 n=76 v=111
73156 Par ch=6 c=11 v=39
73164 Par ch=6 c=11 v=38
73172 Par ch=6 c=11 v=37
73180 Par ch=6 c=11 v=36
73188 Par ch=6 c=11 v=35
73190 On ch=6 n=76 v=0
73196 Par ch=6 c=11 v=34
73204 Par ch=6 c=11 v=33
73212 Par ch=6 c=11 v=32
73220 Par ch=6 c=11 v=31
73224 On ch=6 n=74 v=111
73228 Par ch=6 c=11 v=30
73236 Par ch=6 c=11 v=29
73243 On ch=6 n=74 v=0
73244 Par ch=6 c=11 v=28
73248 On ch=6 n=73 v=111
73252 Par ch=6 c=11 v=27
73260 Par ch=6 c=11 v=26
73268 Par ch=6 c=11 v=25
73276 Par ch=6 c=11 v=24
73284 Par ch=6 c=11 v=23
73286 On ch=6 n=73 v=0
73292 Par ch=6 c=11 v=22
73300 Par ch=6 c=11 v=21
73308 Par ch=6 c=11 v=20
73316 Par ch=6 c=11 v=19
73320 On ch=6 n=71 v=111
73324 Par ch=6 c=11 v=18
73332 Par ch=6 c=11 v=17
73339 On ch=6 n=71 v=0
73340 Par ch=6 c=11 v=16
73728 Par ch=6 c=11 v=64
73728 On ch=6 n=85 v=111
73736 Par ch=6 c=11 v=63
73744 Par ch=6 c=11 v=62
73752 Par ch=6 c=11 v=61
73760 Par ch=6 c=11 v=60
73766 On ch=6 n=85 v=0
73768 Par ch=6 c=11 v=59
73776 Par ch=6 c=11 v=58
73784 Par ch=6 c=11 v=57
73792 Par ch=6 c=11 v=56
73800 Par ch=6 c=11 v=55
73800 On ch=6 n=83 v=111
73808 Par ch=6 c=11 v=54
73816 Par ch=6 c=11 v=53
73819 On ch=6 n=83 v=0
73824 Par ch=6 c=11 v=52
73824 On ch=6 n=81 v=111
73832 Par ch=6 c=11 v=51
73840 Par ch=6 c=11 v=50
73848 Par ch=6 c=11 v=49
73856 Par ch=6 c=11 v=48
73862 On ch=6 n=81 v=0
73864 Par ch=6 c=11 v=47
73872 Par ch=6 c=11 v=46
73880 Par ch=6 c=11 v=45
73888 Par ch=6 c=11 v=44
73896 Par ch=6 c=11 v=43
73896 On ch=6 n=80 v=111
73904 Par ch=6 c=11 v=42
73912 Par ch=6 c=11 v=41
73915 On ch=6 n=80 v=0
73920 Par ch=6 c=11 v=40
73920 On ch=6 n=78 v=111
73924 Par ch=6 c=11 v=39
73932 Par ch=6 c=11 v=38
73940 Par ch=6 c=11 v=37
73948 Par ch=6 c=11 v=36
73956 Par ch=6 c=11 v=35
73958 On ch=6 n=78 v=0
73964 Par ch=6 c=11 v=34
73972 Par ch=6 c=11 v=33
73980 Par ch=6 c=11 v=32
73988 Par ch=6 c=11 v=31
73992 On ch=6 n=76 v=111
73996 Par ch=6 c=11 v=30
74004 Par ch=6 c=11 v=29
74011 On ch=6 n=76 v=0
74012 Par ch=6 c=11 v=28
74016 On ch=6 n=74 v=111
74020 Par ch=6 c=11 v=27
74028 Par ch=6 c=11 v=26
74036 Par ch=6 c=11 v=25
74044 Par ch=6 c=11 v=24
74052 Par ch=6 c=11 v=23
74054 On ch=6 n=74 v=0
74060 Par ch=6 c=11 v=22
74068 Par ch=6 c=11 v=21
74076 Par ch=6 c=11 v=20
74084 Par ch=6 c=11 v=19
74088 On ch=6 n=73 v=111
74092 Par ch=6 c=11 v=18
74100 Par ch=6 c=11 v=17
74107 On ch=6 n=73 v=0
74108 Par ch=6 c=11 v=16
74496 Par ch=6 c=11 v=64
74688 Par ch=6 c=11 v=64
74688 On ch=6 n=73 v=111
74700 Par ch=6 c=11 v=63
74712 Par ch=6 c=11 v=62
74724 Par ch=6 c=11 v=61
74726 On ch=6 n=73 v=0
74736 Par ch=6 c=11 v=60
74748 Par ch=6 c=11 v=59
74756 Par ch=6 c=11 v=58
74760 On ch=6 n=69 v=111
74768 Par ch=6 c=11 v=57
74779 On ch=6 n=69 v=0
74780 Par ch=6 c=11 v=56
74784 On ch=6 n=66 v=111
74792 Par ch=6 c=11 v=55
74804 Par ch=6 c=11 v=54
74816 Par ch=6 c=11 v=53
74822 On ch=6 n=66 v=0
74824 Par ch=6 c=11 v=52
74836 Par ch=6 c=11 v=51
74848 Par ch=6 c=11 v=50
74856 On ch=6 n=61 v=111
74860 Par ch=6 c=11 v=49
74872 Par ch=6 c=11 v=48
74875 On ch=6 n=61 v=0
74880 Par ch=6 c=11 v=64
74880 On ch=6 n=77 v=111
74918 On ch=6 n=77 v=0
75072 Par ch=6 c=11 v=64
75072 On ch=6 n=73 v=111
75084 Par ch=6 c=11 v=63
75096 Par ch=6 c=11 v=62
75108 Par ch=6 c=11 v=61
75110 On ch=6 n=73 v=0
75120 Par ch=6 c=11 v=60
75132 Par ch=6 c=11 v=59
75140 Par ch=6 c=11 v=58
75144 On ch=6 n=69 v=111
75152 Par ch=6 c=11 v=57
75163 On ch=6 n=69 v=0
75164 Par ch=6 c=11 v=56
75168 On ch=6 n=66 v=111
75176 Par ch=6 c=11 v=55
75188 Par ch=6 c=11 v=54
75200 Par ch=6 c=11 v=53
75206 On ch=6 n=66 v=0
75208 Par ch=6 c=11 v=52
75220 Par ch=6 c=11 v=51
75232 Par ch=6 c=11 v=50
75240 On ch=6 n=61 v=111
75244 Par ch=6 c=11 v=49
75256 Par ch=6 c=11 v=48
75259 On ch=6 n=61 v=0
75264 Par ch=6 c=11 v=64
75360 Par ch=6 c=0 v=0
75360 Par ch=6 c=32 v=0
75360 PrCh ch=6 p=44
75360 On ch=6 n=79 v=127
75482 On ch=6 n=79 v=0
75488 On ch=6 n=78 v=111
75514 On ch=6 n=78 v=0
75520 On ch=6 n=77 v=111
75546 On ch=6 n=77 v=0
75552 On ch=6 n=76 v=111
75578 On ch=6 n=76 v=0
75584 On ch=6 n=75 v=111
75610 On ch=6 n=75 v=0
75616 On ch=6 n=74 v=111
75642 On ch=6 n=74 v=0
75648 On ch=6 n=73 v=111
75674 On ch=6 n=73 v=0
75680 On ch=6 n=72 v=111
75706 On ch=6 n=72 v=0
75712 On ch=6 n=71 v=111
75738 On ch=6 n=71 v=0
75744 On ch=6 n=70 v=111
75770 On ch=6 n=70 v=0
75776 On ch=6 n=69 v=111
75802 On ch=6 n=69 v=0
75808 On ch=6 n=68 v=111
75834 On ch=6 n=68 v=0
75840 On ch=6 n=67 v=111
75866 On ch=6 n=67 v=0
75872 On ch=6 n=55 v=111
75898 On ch=6 n=55 v=0
75904 On ch=6 n=62 v=111
75930 On ch=6 n=62 v=0
75936 On ch=6 n=67 v=111
75962 On ch=6 n=67 v=0
75968 On ch=6 n=74 v=111
75994 On ch=6 n=74 v=0
76000 On ch=6 n=79 v=111
76026 On ch=6 n=79 v=0
76032 Par ch=6 c=0 v=0
76032 Par ch=6 c=32 v=0
76032 PrCh ch=6 p=48
76032 On ch=6 n=92 v=79
76063 On ch=6 n=92 v=0
76104 On ch=6 n=86 v=79
76128 On ch=6 n=86 v=0
76128 On ch=6 n=78 v=79
76166 On ch=6 n=78 v=0
76224 On ch=6 n=92 v=79
76255 On ch=6 n=92 v=0
76296 On ch=6 n=86 v=79
76320 On ch=6 n=86 v=0
76320 On ch=6 n=78 v=79
76358 On ch=6 n=78 v=0
76416 On ch=6 n=92 v=79
76447 On ch=6 n=92 v=0
76488 On ch=6 n=86 v=79
76512 On ch=6 n=86 v=0
76512 On ch=6 n=78 v=79
76550 On ch=6 n=78 v=0
76608 On ch=6 n=92 v=79
76639 On ch=6 n=92 v=0
76680 On ch=6 n=86 v=79
76704 On ch=6 n=86 v=0
76704 On ch=6 n=78 v=79
76742 On ch=6 n=78 v=0
76800 Par ch=6 c=0 v=0
76800 Par ch=6 c=32 v=0
76800 PrCh ch=6 p=44
76896 On ch=6 n=85 v=95
76934 On ch=6 n=85 v=0
76944 On ch=6 n=84 v=95
76982 On ch=6 n=84 v=0
76992 On ch=6 n=83 v=95
77030 On ch=6 n=83 v=0
77040 On ch=6 n=82 v=95
77078 On ch=6 n=82 v=0
77088 On ch=6 n=81 v=95
77126 On ch=6 n=81 v=0
77136 On ch=6 n=80 v=95
77174 On ch=6 n=80 v=0
77184 Par ch=6 c=11 v=64
77184 On ch=6 n=78 v=95
77196 Par ch=6 c=11 v=63
77208 Par ch=6 c=11 v=62
77220 Par ch=6 c=11 v=61
77222 On ch=6 n=78 v=0
77232 Par ch=6 c=11 v=60
77232 On ch=6 n=81 v=95
77244 Par ch=6 c=11 v=59
77252 Par ch=6 c=11 v=58
77264 Par ch=6 c=11 v=57
77270 On ch=6 n=81 v=0
77276 Par ch=6 c=11 v=56
77280 On ch=6 n=86 v=95
77288 Par ch=6 c=11 v=55
77300 Par ch=6 c=11 v=54
77312 Par ch=6 c=11 v=53
77318 On ch=6 n=86 v=0
77320 Par ch=6 c=11 v=52
77328 On ch=6 n=85 v=95
77332 Par ch=6 c=11 v=51
77344 Par ch=6 c=11 v=50
77356 Par ch=6 c=11 v=49
77366 On ch=6 n=85 v=0
77368 Par ch=6 c=11 v=48
77376 Par ch=6 c=11 v=47
77376 On ch=6 n=83 v=95
77388 Par ch=6 c=11 v=46
77400 Par ch=6 c=11 v=45
77412 Par ch=6 c=11 v=44
77414 On ch=6 n=83 v=0
77424 Par ch=6 c=11 v=43
77424 On ch=6 n=81 v=95
77436 Par ch=6 c=11 v=42
77444 Par ch=6 c=11 v=41
77456 Par ch=6 c=11 v=40
77462 On ch=6 n=81 v=0
77468 Par ch=6 c=11 v=39
77472 On ch=6 n=80 v=95
77480 Par ch=6 c=11 v=38
77492 Par ch=6 c=11 v=37
77504 Par ch=6 c=11 v=36
77510 On ch=6 n=80 v=0
77512 Par ch=6 c=11 v=35
77520 On ch=6 n=78 v=95
77524 Par ch=6 c=11 v=34
77536 Par ch=6 c=11 v=33
77548 Par ch=6 c=11 v=32
77558 On ch=6 n=78 v=0
77952 Par ch=6 c=0 v=0
77952 Par ch=6 c=32 v=0
77952 PrCh ch=6 p=48
77952 Par ch=6 c=11 v=64
79104 On ch=6 n=60 v=15
79116 On ch=6 n=60 v=0
79116 On ch=6 n=62 v=15
79128 On ch=6 n=62 v=0
79128 On ch=6 n=60 v=15
79140 On ch=6 n=60 v=0
79140 On ch=6 n=62 v=15
79152 On ch=6 n=62 v=0
79152 On ch=6 n=60 v=15
79164 On ch=6 n=60 v=0
79164 On ch=6 n=62 v=15
79176 On ch=6 n=62 v=0
79176 On ch=6 n=60 v=15
79188 On ch=6 n=60 v=0
79188 On ch=6 n=62 v=15
79200 On ch=6 n=62 v=0
79200 On ch=6 n=60 v=15
79212 On ch=6 n=60 v=0
79212 On ch=6 n=62 v=15
79224 On ch=6 n=62 v=0
79224 On ch=6 n=60 v=15
79236 On ch=6 n=60 v=0
79236 On ch=6 n=62 v=15
79248 On ch=6 n=62 v=0
79248 On ch=6 n=60 v=15
79260 On ch=6 n=60 v=0
79260 On ch=6 n=62 v=15
79272 On ch=6 n=62 v=0
79272 On ch=6 n=60 v=15
79284 On ch=6 n=60 v=0
79284 On ch=6 n=62 v=15
79296 On ch=6 n=62 v=0
79296 On ch=6 n=60 v=15
79308 On ch=6 n=60 v=0
79308 On ch=6 n=62 v=15
79320 On ch=6 n=62 v=0
79320 On ch=6 n=60 v=15
79332 On ch=6 n=60 v=0
79332 On ch=6 n=62 v=15
79344 On ch=6 n=62 v=0
79344 On ch=6 n=60 v=15
79356 On ch=6 n=60 v=0
79356 On ch=6 n=62 v=15
79368 On ch=6 n=62 v=0
79368 On ch=6 n=60 v=15
79380 On ch=6 n=60 v=0
79380 On ch=6 n=62 v=15
79392 On ch=6 n=62 v=0
79392 On ch=6 n=60 v=15
79404 On ch=6 n=60 v=0
79404 On ch=6 n=62 v=15
79416 On ch=6 n=62 v=0
79416 On ch=6 n=60 v=15
79428 On ch=6 n=60 v=0
79428 On ch=6 n=62 v=15
79440 On ch=6 n=62 v=0
79440 On ch=6 n=60 v=15
79452 On ch=6 n=60 v=0
79452 On ch=6 n=62 v=15
79464 On ch=6 n=62 v=0
79464 On ch=6 n=60 v=15
79476 On ch=6 n=60 v=0
79476 On ch=6 n=62 v=15
79488 On ch=6 n=62 v=0
79488 On ch=6 n=60 v=15
79500 On ch=6 n=60 v=0
79500 On ch=6 n=62 v=15
79512 On ch=6 n=62 v=0
79512 On ch=6 n=60 v=15
79524 On ch=6 n=60 v=0
79524 On ch=6 n=62 v=15
79536 On ch=6 n=62 v=0
79536 On ch=6 n=60 v=15
79548 On ch=6 n=60 v=0
79548 On ch=6 n=62 v=15
79560 On ch=6 n=62 v=0
79560 On ch=6 n=60 v=15
79572 On ch=6 n=60 v=0
79572 On ch=6 n=62 v=15
79584 On ch=6 n=62 v=0
79584 On ch=6 n=60 v=15
79596 On ch=6 n=60 v=0
79596 On ch=6 n=62 v=15
79608 On ch=6 n=62 v=0
79608 On ch=6 n=60 v=15
79620 On ch=6 n=60 v=0
79620 On ch=6 n=62 v=15
79632 On ch=6 n=62 v=0
79632 On ch=6 n=60 v=15
79644 On ch=6 n=60 v=0
79644 On ch=6 n=62 v=15
79656 On ch=6 n=62 v=0
79656 On ch=6 n=60 v=15
79668 On ch=6 n=60 v=0
79668 On ch=6 n=62 v=15
79680 On ch=6 n=62 v=0
79680 On ch=6 n=60 v=15
79692 On ch=6 n=60 v=0
79692 On ch=6 n=62 v=15
79704 On ch=6 n=62 v=0
79704 On ch=6 n=60 v=15
79716 On ch=6 n=60 v=0
79716 On ch=6 n=62 v=15
79728 On ch=6 n=62 v=0
79728 On ch=6 n=60 v=15
79740 On ch=6 n=60 v=0
79740 On ch=6 n=62 v=15
79752 On ch=6 n=62 v=0
79752 On ch=6 n=60 v=15
79764 On ch=6 n=60 v=0
79764 On ch=6 n=62 v=15
79776 On ch=6 n=62 v=0
79776 On ch=6 n=60 v=15
79788 On ch=6 n=60 v=0
79788 On ch=6 n=62 v=15
79800 On ch=6 n=62 v=0
79800 On ch=6 n=60 v=15
79812 On ch=6 n=60 v=0
79812 On ch=6 n=62 v=15
79824 On ch=6 n=62 v=0
79824 On ch=6 n=60 v=15
79836 On ch=6 n=60 v=0
79836 On ch=6 n=62 v=15
79848 On ch=6 n=62 v=0
79848 On ch=6 n=60 v=15
79860 On ch=6 n=60 v=0
79860 On ch=6 n=62 v=15
79872 On ch=6 n=62 v=0
81408 Par ch=6 c=0 v=0
81408 Par ch=6 c=32 v=0
81408 PrCh ch=6 p=44
81408 On ch=6 n=79 v=31
81408 On ch=6 n=77 v=31
82867 On ch=6 n=77 v=0
82867 On ch=6 n=79 v=0
82944 On ch=6 n=79 v=31
82944 On ch=6 n=76 v=31
84019 On ch=6 n=76 v=0
84019 On ch=6 n=79 v=0
84096 On ch=6 n=77 v=31
84096 On ch=6 n=74 v=31
84480 Par ch=6 c=11 v=64
84500 Par ch=6 c=11 v=63
84516 Par ch=6 c=11 v=62
84536 Par ch=6 c=11 v=61
84552 Par ch=6 c=11 v=60
84572 Par ch=6 c=11 v=59
84588 Par ch=6 c=11 v=58
84608 Par ch=6 c=11 v=57
84624 Par ch=6 c=11 v=56
84644 Par ch=6 c=11 v=55
84660 Par ch=6 c=11 v=54
84680 Par ch=6 c=11 v=53
84696 Par ch=6 c=11 v=52
84710 On ch=6 n=74 v=0
84710 On ch=6 n=77 v=0
84716 Par ch=6 c=11 v=51
84732 Par ch=6 c=11 v=50
84752 Par ch=6 c=11 v=49
84768 Par ch=6 c=11 v=48
84864 Par ch=6 c=0 v=0
84864 Par ch=6 c=32 v=0
84864 PrCh ch=6 p=48
84864 Par ch=6 c=11 v=64
84864 On ch=6 n=66 v=31
85018 On ch=6 n=66 v=0
85056 On ch=6 n=58 v=31
85056 On ch=6 n=70 v=31
85133 On ch=6 n=70 v=0
85133 On ch=6 n=58 v=0
85152 On ch=6 n=61 v=31
85152 On ch=6 n=73 v=31
85229 On ch=6 n=73 v=0
85229 On ch=6 n=61 v=0
85248 On ch=6 n=63 v=31
85248 On ch=6 n=75 v=31
85325 On ch=6 n=75 v=0
85325 On ch=6 n=63 v=0
85344 On ch=6 n=65 v=31
85344 On ch=6 n=77 v=31
85421 On ch=6 n=77 v=0
85421 On ch=6 n=65 v=0
85440 On ch=6 n=66 v=31
85440 On ch=6 n=78 v=31
85517 On ch=6 n=78 v=0
85517 On ch=6 n=66 v=0
85536 On ch=6 n=68 v=31
85536 On ch=6 n=80 v=31
85584 On ch=6 n=80 v=0
85584 On ch=6 n=68 v=0
85584 On ch=6 n=70 v=31
85584 On ch=6 n=82 v=31
85622 On ch=6 n=82 v=0
85622 On ch=6 n=70 v=0
85632 On ch=6 n=73 v=31
85632 On ch=6 n=85 v=31
85728 On ch=6 n=85 v=0
85728 On ch=6 n=73 v=0
85728 On ch=6 n=71 v=31
85728 On ch=6 n=83 v=31
85882 On ch=6 n=83 v=0
85882 On ch=6 n=71 v=0
85920 On ch=6 n=70 v=31
85920 On ch=6 n=82 v=31
85968 On ch=6 n=82 v=0
85968 On ch=6 n=70 v=0
85968 On ch=6 n=71 v=31
85968 On ch=6 n=83 v=31
86006 On ch=6 n=83 v=0
86006 On ch=6 n=71 v=0
86016 On ch=6 n=73 v=31
86016 On ch=6 n=85 v=31
86064 On ch=6 n=85 v=0
86064 On ch=6 n=73 v=0
86064 On ch=6 n=71 v=31
86064 On ch=6 n=83 v=31
86102 On ch=6 n=83 v=0
86102 On ch=6 n=71 v=0
86112 On ch=6 n=70 v=31
86112 On ch=6 n=82 v=31
86160 On ch=6 n=82 v=0
86160 On ch=6 n=70 v=0
86160 On ch=6 n=71 v=31
86160 On ch=6 n=83 v=31
86198 On ch=6 n=83 v=0
86198 On ch=6 n=71 v=0
86208 On ch=6 n=70 v=31
86208 On ch=6 n=82 v=31
86256 On ch=6 n=82 v=0
86256 On ch=6 n=70 v=0
86256 On ch=6 n=68 v=31
86256 On ch=6 n=80 v=31
86294 On ch=6 n=80 v=0
86294 On ch=6 n=68 v=0
86304 On ch=6 n=67 v=31
86304 On ch=6 n=79 v=31
86352 On ch=6 n=79 v=0
86352 On ch=6 n=67 v=0
86352 On ch=6 n=68 v=31
86352 On ch=6 n=80 v=31
86390 On ch=6 n=80 v=0
86390 On ch=6 n=68 v=0
86400 On ch=6 n=68 v=31
86400 On ch=6 n=80 v=31
86496 On ch=6 n=80 v=0
86496 On ch=6 n=68 v=0
86496 On ch=6 n=66 v=31
86496 On ch=6 n=78 v=31
86650 On ch=6 n=78 v=0
86650 On ch=6 n=66 v=0
86688 On ch=6 n=66 v=31
86688 On ch=6 n=78 v=31
86784 On ch=6 n=78 v=0
86784 On ch=6 n=66 v=0
86784 Par ch=6 c=0 v=0
86784 Par ch=6 c=32 v=0
86784 PrCh ch=6 p=48
86784 On ch=6 n=78 v=15
86796 On ch=6 n=78 v=0
86796 On ch=6 n=80 v=15
86808 On ch=6 n=80 v=0
86808 On ch=6 n=78 v=15
86820 On ch=6 n=78 v=0
86820 On ch=6 n=80 v=15
86832 On ch=6 n=80 v=0
86832 On ch=6 n=78 v=15
86844 On ch=6 n=78 v=0
86844 On ch=6 n=80 v=15
86856 On ch=6 n=80 v=0
86856 On ch=6 n=78 v=15
86868 On ch=6 n=78 v=0
86868 On ch=6 n=80 v=15
86880 On ch=6 n=80 v=0
86880 On ch=6 n=78 v=15
86892 On ch=6 n=78 v=0
86892 On ch=6 n=80 v=15
86904 On ch=6 n=80 v=0
86904 On ch=6 n=78 v=15
86916 On ch=6 n=78 v=0
86916 On ch=6 n=80 v=15
86928 On ch=6 n=80 v=0
86928 On ch=6 n=78 v=15
86940 On ch=6 n=78 v=0
86940 On ch=6 n=80 v=15
86952 On ch=6 n=80 v=0
86952 On ch=6 n=78 v=15
86964 On ch=6 n=78 v=0
86964 On ch=6 n=80 v=15
86976 On ch=6 n=80 v=0
86976 On ch=6 n=78 v=15
86988 On ch=6 n=78 v=0
86988 On ch=6 n=80 v=15
87000 On ch=6 n=80 v=0
87000 On ch=6 n=78 v=15
87012 On ch=6 n=78 v=0
87012 On ch=6 n=80 v=15
87024 On ch=6 n=80 v=0
87024 On ch=6 n=78 v=15
87036 On ch=6 n=78 v=0
87036 On ch=6 n=80 v=15
87048 On ch=6 n=80 v=0
87048 On ch=6 n=78 v=15
87060 On ch=6 n=78 v=0
87060 On ch=6 n=80 v=15
87072 On ch=6 n=80 v=0
87072 On ch=6 n=78 v=15
87084 On ch=6 n=78 v=0
87084 On ch=6 n=80 v=15
87096 On ch=6 n=80 v=0
87096 On ch=6 n=78 v=15
87108 On ch=6 n=78 v=0
87108 On ch=6 n=80 v=15
87120 On ch=6 n=80 v=0
87120 On ch=6 n=78 v=15
87132 On ch=6 n=78 v=0
87132 On ch=6 n=80 v=15
87144 On ch=6 n=80 v=0
87144 On ch=6 n=78 v=15
87156 On ch=6 n=78 v=0
87156 On ch=6 n=80 v=15
87168 On ch=6 n=80 v=0
87168 On ch=6 n=78 v=15
87180 On ch=6 n=78 v=0
87180 On ch=6 n=80 v=15
87192 On ch=6 n=80 v=0
87192 On ch=6 n=78 v=15
87204 On ch=6 n=78 v=0
87204 On ch=6 n=80 v=15
87216 On ch=6 n=80 v=0
87216 On ch=6 n=78 v=15
87228 On ch=6 n=78 v=0
87228 On ch=6 n=80 v=15
87240 On ch=6 n=80 v=0
87240 On ch=6 n=78 v=15
87252 On ch=6 n=78 v=0
87252 On ch=6 n=80 v=15
87264 On ch=6 n=80 v=0
87264 On ch=6 n=78 v=15
87276 On ch=6 n=78 v=0
87276 On ch=6 n=80 v=15
87288 On ch=6 n=80 v=0
87288 On ch=6 n=78 v=15
87300 On ch=6 n=78 v=0
87300 On ch=6 n=80 v=15
87312 On ch=6 n=80 v=0
87312 On ch=6 n=78 v=15
87324 On ch=6 n=78 v=0
87324 On ch=6 n=80 v=15
87336 On ch=6 n=80 v=0
87336 On ch=6 n=78 v=15
87348 On ch=6 n=78 v=0
87348 On ch=6 n=80 v=15
87360 On ch=6 n=80 v=0
87360 On ch=6 n=78 v=15
87372 On ch=6 n=78 v=0
87372 On ch=6 n=80 v=15
87384 On ch=6 n=80 v=0
87384 On ch=6 n=78 v=15
87396 On ch=6 n=78 v=0
87396 On ch=6 n=80 v=15
87408 On ch=6 n=80 v=0
87408 On ch=6 n=78 v=15
87420 On ch=6 n=78 v=0
87420 On ch=6 n=80 v=15
87432 On ch=6 n=80 v=0
87432 On ch=6 n=78 v=15
87444 On ch=6 n=78 v=0
87444 On ch=6 n=80 v=15
87456 On ch=6 n=80 v=0
87456 On ch=6 n=78 v=15
87468 On ch=6 n=78 v=0
87468 On ch=6 n=80 v=15
87480 On ch=6 n=80 v=0
87480 On ch=6 n=78 v=15
87492 On ch=6 n=78 v=0
87492 On ch=6 n=80 v=15
87504 On ch=6 n=80 v=0
87504 On ch=6 n=78 v=15
87516 On ch=6 n=78 v=0
87516 On ch=6 n=80 v=15
87528 On ch=6 n=80 v=0
87528 On ch=6 n=78 v=15
87540 On ch=6 n=78 v=0
87540 On ch=6 n=80 v=15
87552 On ch=6 n=80 v=0
87552 On ch=6 n=78 v=15
87564 On ch=6 n=78 v=0
87564 On ch=6 n=80 v=15
87576 On ch=6 n=80 v=0
87576 On ch=6 n=78 v=15
87588 On ch=6 n=78 v=0
87588 On ch=6 n=80 v=15
87600 On ch=6 n=80 v=0
87600 On ch=6 n=78 v=15
87612 On ch=6 n=78 v=0
87612 On ch=6 n=80 v=15
87624 On ch=6 n=80 v=0
87624 On ch=6 n=78 v=15
87636 On ch=6 n=78 v=0
87636 On ch=6 n=80 v=15
87648 On ch=6 n=80 v=0
87648 On ch=6 n=78 v=15
87660 On ch=6 n=78 v=0
87660 On ch=6 n=80 v=15
87672 On ch=6 n=80 v=0
87672 On ch=6 n=78 v=15
87684 On ch=6 n=78 v=0
87684 On ch=6 n=80 v=15
87696 On ch=6 n=80 v=0
87696 On ch=6 n=78 v=15
87708 On ch=6 n=78 v=0
87708 On ch=6 n=80 v=15
87720 On ch=6 n=80 v=0
87720 On ch=6 n=78 v=15
87732 On ch=6 n=78 v=0
87732 On ch=6 n=80 v=15
87744 On ch=6 n=80 v=0
87744 On ch=6 n=78 v=15
87756 On ch=6 n=78 v=0
87756 On ch=6 n=80 v=15
87768 On ch=6 n=80 v=0
87768 On ch=6 n=78 v=15
87780 On ch=6 n=78 v=0
87780 On ch=6 n=80 v=15
87792 On ch=6 n=80 v=0
87792 On ch=6 n=78 v=15
87804 On ch=6 n=78 v=0
87804 On ch=6 n=80 v=15
87816 On ch=6 n=80 v=0
87816 On ch=6 n=78 v=15
87828 On ch=6 n=78 v=0
87828 On ch=6 n=80 v=15
87840 On ch=6 n=80 v=0
87840 On ch=6 n=78 v=15
87852 On ch=6 n=78 v=0
87852 On ch=6 n=80 v=15
87864 On ch=6 n=80 v=0
87864 On ch=6 n=78 v=15
87876 On ch=6 n=78 v=0
87876 On ch=6 n=80 v=15
87888 On ch=6 n=80 v=0
87888 On ch=6 n=78 v=15
87900 On ch=6 n=78 v=0
87900 On ch=6 n=80 v=15
87912 On ch=6 n=80 v=0
87912 On ch=6 n=78 v=15
87924 On ch=6 n=78 v=0
87924 On ch=6 n=80 v=15
87936 On ch=6 n=80 v=0
87936 On ch=6 n=78 v=15
87948 On ch=6 n=78 v=0
87948 On ch=6 n=80 v=15
87960 On ch=6 n=80 v=0
87960 On ch=6 n=78 v=15
87972 On ch=6 n=78 v=0
87972 On ch=6 n=80 v=15
87984 On ch=6 n=80 v=0
87984 On ch=6 n=78 v=15
87996 On ch=6 n=78 v=0
87996 On ch=6 n=80 v=15
88008 On ch=6 n=80 v=0
88008 On ch=6 n=78 v=15
88020 On ch=6 n=78 v=0
88020 On ch=6 n=80 v=15
88032 On ch=6 n=80 v=0
88032 On ch=6 n=78 v=15
88044 On ch=6 n=78 v=0
88044 On ch=6 n=80 v=15
88056 On ch=6 n=80 v=0
88056 On ch=6 n=78 v=15
88068 On ch=6 n=78 v=0
88068 On ch=6 n=80 v=15
88080 On ch=6 n=80 v=0
88080 On ch=6 n=78 v=15
88092 On ch=6 n=78 v=0
88092 On ch=6 n=80 v=15
88104 On ch=6 n=80 v=0
88104 On ch=6 n=78 v=15
88116 On ch=6 n=78 v=0
88116 On ch=6 n=80 v=15
88128 On ch=6 n=80 v=0
88128 On ch=6 n=78 v=15
88140 On ch=6 n=78 v=0
88140 On ch=6 n=80 v=15
88152 On ch=6 n=80 v=0
88152 On ch=6 n=78 v=15
88164 On ch=6 n=78 v=0
88164 On ch=6 n=80 v=15
88176 On ch=6 n=80 v=0
88176 On ch=6 n=78 v=15
88188 On ch=6 n=78 v=0
88188 On ch=6 n=80 v=15
88200 On ch=6 n=80 v=0
88200 On ch=6 n=78 v=15
88212 On ch=6 n=78 v=0
88212 On ch=6 n=80 v=15
88224 On ch=6 n=80 v=0
88224 On ch=6 n=78 v=15
88236 On ch=6 n=78 v=0
88236 On ch=6 n=80 v=15
88248 On ch=6 n=80 v=0
88248 On ch=6 n=78 v=15
88260 On ch=6 n=78 v=0
88260 On ch=6 n=80 v=15
88272 On ch=6 n=80 v=0
88272 On ch=6 n=78 v=15
88284 On ch=6 n=78 v=0
88284 On ch=6 n=80 v=15
88296 On ch=6 n=80 v=0
88296 On ch=6 n=78 v=15
88308 On ch=6 n=78 v=0
88308 On ch=6 n=80 v=15
88320 On ch=6 n=80 v=0
88320 On ch=6 n=78 v=15
88332 On ch=6 n=78 v=0
88332 On ch=6 n=80 v=15
88344 On ch=6 n=80 v=0
88344 On ch=6 n=78 v=15
88356 On ch=6 n=78 v=0
88356 On ch=6 n=80 v=15
88368 On ch=6 n=80 v=0
88368 On ch=6 n=78 v=15
88380 On ch=6 n=78 v=0
88380 On ch=6 n=80 v=15
88392 On ch=6 n=80 v=0
88392 On ch=6 n=78 v=15
88404 On ch=6 n=78 v=0
88404 On ch=6 n=80 v=15
88416 On ch=6 n=80 v=0
88416 On ch=6 n=78 v=15
88428 On ch=6 n=78 v=0
88428 On ch=6 n=80 v=15
88440 On ch=6 n=80 v=0
88440 On ch=6 n=78 v=15
88452 On ch=6 n=78 v=0
88452 On ch=6 n=80 v=15
88464 On ch=6 n=80 v=0
88464 On ch=6 n=78 v=15
88476 On ch=6 n=78 v=0
88476 On ch=6 n=80 v=15
88488 On ch=6 n=80 v=0
88488 On ch=6 n=78 v=15
88500 On ch=6 n=78 v=0
88500 On ch=6 n=80 v=15
88512 On ch=6 n=80 v=0
88512 On ch=6 n=78 v=15
88524 On ch=6 n=78 v=0
88524 On ch=6 n=80 v=15
88536 On ch=6 n=80 v=0
88536 On ch=6 n=78 v=15
88548 On ch=6 n=78 v=0
88548 On ch=6 n=80 v=15
88560 On ch=6 n=80 v=0
88560 On ch=6 n=78 v=15
88572 On ch=6 n=78 v=0
88572 On ch=6 n=80 v=15
88584 On ch=6 n=80 v=0
88584 On ch=6 n=78 v=15
88596 On ch=6 n=78 v=0
88596 On ch=6 n=80 v=15
88608 On ch=6 n=80 v=0
88608 On ch=6 n=78 v=15
88620 On ch=6 n=78 v=0
88620 On ch=6 n=80 v=15
88632 On ch=6 n=80 v=0
88632 On ch=6 n=78 v=15
88644 On ch=6 n=78 v=0
88644 On ch=6 n=80 v=15
88656 On ch=6 n=80 v=0
88656 On ch=6 n=78 v=15
88668 On ch=6 n=78 v=0
88668 On ch=6 n=80 v=15
88680 On ch=6 n=80 v=0
88680 On ch=6 n=78 v=15
88692 On ch=6 n=78 v=0
88692 On ch=6 n=80 v=15
88704 On ch=6 n=80 v=0
88704 Par ch=6 c=11 v=64
88704 On ch=6 n=78 v=15
88716 On ch=6 n=78 v=0
88716 On ch=6 n=80 v=15
88728 On ch=6 n=80 v=0
88728 On ch=6 n=78 v=15
88740 On ch=6 n=78 v=0
88740 On ch=6 n=80 v=15
88752 On ch=6 n=80 v=0
88752 Par ch=6 c=11 v=63
88752 On ch=6 n=78 v=15
88764 On ch=6 n=78 v=0
88764 On ch=6 n=80 v=15
88776 On ch=6 n=80 v=0
88776 On ch=6 n=78 v=15
88788 On ch=6 n=78 v=0
88788 On ch=6 n=80 v=15
88796 Par ch=6 c=11 v=62
88800 On ch=6 n=80 v=0
88800 On ch=6 n=78 v=15
88812 On ch=6 n=78 v=0
88812 On ch=6 n=80 v=15
88824 On ch=6 n=80 v=0
88824 On ch=6 n=78 v=15
88836 On ch=6 n=78 v=0
88836 On ch=6 n=80 v=15
88840 Par ch=6 c=11 v=61
88848 On ch=6 n=80 v=0
88848 On ch=6 n=78 v=15
88860 On ch=6 n=78 v=0
88860 On ch=6 n=80 v=15
88872 On ch=6 n=80 v=0
88872 On ch=6 n=78 v=15
88884 On ch=6 n=78 v=0
88884 On ch=6 n=80 v=15
88888 Par ch=6 c=11 v=60
88896 On ch=6 n=80 v=0
88896 On ch=6 n=78 v=15
88908 On ch=6 n=78 v=0
88908 On ch=6 n=80 v=15
88920 On ch=6 n=80 v=0
88920 On ch=6 n=78 v=15
88932 On ch=6 n=78 v=0
88932 Par ch=6 c=11 v=59
88932 On ch=6 n=80 v=15
88944 On ch=6 n=80 v=0
88944 On ch=6 n=78 v=15
88956 On ch=6 n=78 v=0
88956 On ch=6 n=80 v=15
88968 On ch=6 n=80 v=0
88968 On ch=6 n=78 v=15
88976 Par ch=6 c=11 v=58
88980 On ch=6 n=78 v=0
88980 On ch=6 n=80 v=15
88992 On ch=6 n=80 v=0
88992 On ch=6 n=78 v=15
89004 On ch=6 n=78 v=0
89004 On ch=6 n=80 v=15
89016 On ch=6 n=80 v=0
89016 On ch=6 n=78 v=15
89024 Par ch=6 c=11 v=57
89028 On ch=6 n=78 v=0
89028 On ch=6 n=80 v=15
89040 On ch=6 n=80 v=0
89040 On ch=6 n=78 v=15
89052 On ch=6 n=78 v=0
89052 On ch=6 n=80 v=15
89064 On ch=6 n=80 v=0
89064 On ch=6 n=78 v=15
89068 Par ch=6 c=11 v=56
89076 On ch=6 n=78 v=0
89076 On ch=6 n=80 v=15
89088 On ch=6 n=80 v=0
89088 On ch=6 n=78 v=15
89100 On ch=6 n=78 v=0
89100 On ch=6 n=80 v=15
89112 On ch=6 n=80 v=0
89112 Par ch=6 c=11 v=55
89112 On ch=6 n=78 v=15
89124 On ch=6 n=78 v=0
89124 On ch=6 n=80 v=15
89136 On ch=6 n=80 v=0
89136 On ch=6 n=78 v=15
89148 On ch=6 n=78 v=0
89148 On ch=6 n=80 v=15
89156 Par ch=6 c=11 v=54
89160 On ch=6 n=80 v=0
89160 On ch=6 n=78 v=15
89172 On ch=6 n=78 v=0
89172 On ch=6 n=80 v=15
89184 On ch=6 n=80 v=0
89184 On ch=6 n=78 v=15
89196 On ch=6 n=78 v=0
89196 On ch=6 n=80 v=15
89204 Par ch=6 c=11 v=53
89208 On ch=6 n=80 v=0
89208 On ch=6 n=78 v=15
89220 On ch=6 n=78 v=0
89220 On ch=6 n=80 v=15
89232 On ch=6 n=80 v=0
89232 On ch=6 n=78 v=15
89244 On ch=6 n=78 v=0
89244 On ch=6 n=80 v=15
89248 Par ch=6 c=11 v=52
89256 On ch=6 n=80 v=0
89256 On ch=6 n=78 v=15
89268 On ch=6 n=78 v=0
89268 On ch=6 n=80 v=15
89280 On ch=6 n=80 v=0
89280 On ch=6 n=78 v=15
89292 On ch=6 n=78 v=0
89292 Par ch=6 c=11 v=51
89292 On ch=6 n=80 v=15
89304 On ch=6 n=80 v=0
89304 On ch=6 n=78 v=15
89316 On ch=6 n=78 v=0
89316 On ch=6 n=80 v=15
89328 On ch=6 n=80 v=0
89328 On ch=6 n=78 v=15
89340 On ch=6 n=78 v=0
89340 Par ch=6 c=11 v=50
89340 On ch=6 n=80 v=15
89352 On ch=6 n=80 v=0
89352 On ch=6 n=78 v=15
89364 On ch=6 n=78 v=0
89364 On ch=6 n=80 v=15
89376 On ch=6 n=80 v=0
89376 On ch=6 n=78 v=15
89384 Par ch=6 c=11 v=49
89388 On ch=6 n=78 v=0
89388 On ch=6 n=80 v=15
89400 On ch=6 n=80 v=0
89400 On ch=6 n=78 v=15
89412 On ch=6 n=78 v=0
89412 On ch=6 n=80 v=15
89424 On ch=6 n=80 v=0
89424 On ch=6 n=78 v=15
89428 Par ch=6 c=11 v=48
89436 On ch=6 n=78 v=0
89436 On ch=6 n=80 v=15
89448 On ch=6 n=80 v=0
89448 On ch=6 n=78 v=15
89460 On ch=6 n=78 v=0
89460 On ch=6 n=80 v=15
89472 On ch=6 n=80 v=0
89472 On ch=6 n=78 v=15
89484 On ch=6 n=78 v=0
89484 On ch=6 n=80 v=15
89496 On ch=6 n=80 v=0
89496 On ch=6 n=78 v=15
89508 On ch=6 n=78 v=0
89508 On ch=6 n=80 v=15
89520 On ch=6 n=80 v=0
89520 On ch=6 n=78 v=15
89532 On ch=6 n=78 v=0
89532 On ch=6 n=80 v=15
89544 On ch=6 n=80 v=0
89544 On ch=6 n=78 v=15
89556 On ch=6 n=78 v=0
89556 On ch=6 n=80 v=15
89568 On ch=6 n=80 v=0
89568 On ch=6 n=78 v=15
89580 On ch=6 n=78 v=0
89580 On ch=6 n=80 v=15
89592 On ch=6 n=80 v=0
89592 On ch=6 n=78 v=15
89604 On ch=6 n=78 v=0
89604 On ch=6 n=80 v=15
89616 On ch=6 n=80 v=0
89616 On ch=6 n=78 v=15
89628 On ch=6 n=78 v=0
89628 On ch=6 n=80 v=15
89640 On ch=6 n=80 v=0
89640 On ch=6 n=78 v=15
89652 On ch=6 n=78 v=0
89652 On ch=6 n=80 v=15
89664 On ch=6 n=80 v=0
89664 On ch=6 n=78 v=15
89676 On ch=6 n=78 v=0
89676 On ch=6 n=80 v=15
89688 On ch=6 n=80 v=0
89688 On ch=6 n=78 v=15
89700 On ch=6 n=78 v=0
89700 On ch=6 n=80 v=15
89712 On ch=6 n=80 v=0
89712 On ch=6 n=78 v=15
89724 On ch=6 n=78 v=0
89724 On ch=6 n=80 v=15
89736 On ch=6 n=80 v=0
89736 On ch=6 n=78 v=15
89748 On ch=6 n=78 v=0
89748 On ch=6 n=80 v=15
89760 On ch=6 n=80 v=0
89760 On ch=6 n=78 v=15
89772 On ch=6 n=78 v=0
89772 On ch=6 n=80 v=15
89784 On ch=6 n=80 v=0
89784 On ch=6 n=78 v=15
89796 On ch=6 n=78 v=0
89796 On ch=6 n=80 v=15
89808 On ch=6 n=80 v=0
89808 On ch=6 n=78 v=15
89820 On ch=6 n=78 v=0
89820 On ch=6 n=80 v=15
89832 On ch=6 n=80 v=0
89832 On ch=6 n=78 v=15
89844 On ch=6 n=78 v=0
89844 On ch=6 n=80 v=15
89856 On ch=6 n=80 v=0
90240 Par ch=6 c=11 v=64
93696 On ch=6 n=63 v=127
93715 On ch=6 n=63 v=0
93720 On ch=6 n=62 v=127
93739 On ch=6 n=62 v=0
93744 On ch=6 n=63 v=127
93763 On ch=6 n=63 v=0
93768 On ch=6 n=65 v=127
93787 On ch=6 n=65 v=0
93792 On ch=6 n=66 v=127
93830 On ch=6 n=66 v=0
94464 On ch=6 n=66 v=127
94483 On ch=6 n=66 v=0
94488 On ch=6 n=65 v=127
94507 On ch=6 n=65 v=0
94512 On ch=6 n=66 v=127
94531 On ch=6 n=66 v=0
94536 On ch=6 n=68 v=127
94555 On ch=6 n=68 v=0
94560 On ch=6 n=69 v=127
94598 On ch=6 n=69 v=0
95064 On ch=6 n=63 v=127
95083 On ch=6 n=63 v=0
95088 On ch=6 n=65 v=127
95107 On ch=6 n=65 v=0
95112 On ch=6 n=66 v=127
95131 On ch=6 n=66 v=0
95136 On ch=6 n=68 v=127
95155 On ch=6 n=68 v=0
95160 On ch=6 n=70 v=127
95179 On ch=6 n=70 v=0
95184 On ch=6 n=72 v=127
95203 On ch=6 n=72 v=0
95208 On ch=6 n=74 v=127
95227 On ch=6 n=74 v=0
95232 On ch=6 n=75 v=127
95263 On ch=6 n=75 v=0
95304 On ch=6 n=70 v=127
95320 On ch=6 n=70 v=0
95328 On ch=6 n=63 v=127
95359 On ch=6 n=63 v=0
95616 Par ch=6 c=0 v=0
95616 Par ch=6 c=32 v=0
95616 PrCh ch=6 p=44
95616 On ch=6 n=63 v=47
95693 On ch=6 n=63 v=0
95712 On ch=6 n=62 v=47
95789 On ch=6 n=62 v=0
95808 On ch=6 n=61 v=47
95885 On ch=6 n=61 v=0
95904 On ch=6 n=60 v=47
95981 On ch=6 n=60 v=0
96000 Par ch=6 c=11 v=64
96000 On ch=6 n=59 v=47
96048 Par ch=6 c=11 v=63
96092 Par ch=6 c=11 v=62
96115 On ch=6 n=59 v=0
96128 On ch=6 n=58 v=47
96136 Par ch=6 c=11 v=61
96184 Par ch=6 c=11 v=60
96228 Par ch=6 c=11 v=59
96243 On ch=6 n=58 v=0
96256 On ch=6 n=57 v=47
96272 Par ch=6 c=11 v=58
96320 Par ch=6 c=11 v=57
96364 Par ch=6 c=11 v=56
96371 On ch=6 n=57 v=0
96384 On ch=6 n=56 v=47
96408 Par ch=6 c=11 v=55
96452 Par ch=6 c=11 v=54
96500 Par ch=6 c=11 v=53
96538 On ch=6 n=56 v=0
96544 Par ch=6 c=11 v=52
96576 On ch=6 n=55 v=47
96588 Par ch=6 c=11 v=51
96636 Par ch=6 c=11 v=50
96680 Par ch=6 c=11 v=49
96724 Par ch=6 c=11 v=48
96730 On ch=6 n=55 v=0
97152 Par ch=6 c=11 v=64
97152 Par ch=6 c=0 v=0
97152 Par ch=6 c=32 v=0
97152 PrCh ch=6 p=48
99072 On ch=6 n=58 v=15
99103 On ch=6 n=58 v=0
99156 On ch=6 n=60 v=15
99168 On ch=6 n=60 v=0
99168 On ch=6 n=62 v=15
99199 On ch=6 n=62 v=0
99252 On ch=6 n=63 v=15
99264 On ch=6 n=63 v=0
99264 On ch=6 n=65 v=15
99295 On ch=6 n=65 v=0
99348 On ch=6 n=68 v=15
99360 On ch=6 n=68 v=0
99360 On ch=6 n=66 v=15
99391 On ch=6 n=66 v=0
99444 On ch=6 n=63 v=15
99456 On ch=6 n=63 v=0
99456 On ch=6 n=62 v=15
99487 On ch=6 n=62 v=0
99540 On ch=6 n=63 v=15
99552 On ch=6 n=63 v=0
99552 On ch=6 n=65 v=15
99583 On ch=6 n=65 v=0
99636 On ch=6 n=67 v=15
99648 On ch=6 n=67 v=0
99648 On ch=6 n=68 v=15
99679 On ch=6 n=68 v=0
99732 On ch=6 n=77 v=15
99744 On ch=6 n=77 v=0
99744 On ch=6 n=75 v=15
99775 On ch=6 n=75 v=0
99828 On ch=6 n=68 v=15
99840 On ch=6 n=68 v=0
99840 On ch=6 n=67 v=15
99871 On ch=6 n=67 v=0
99924 On ch=6 n=74 v=15
99936 On ch=6 n=74 v=0
99936 On ch=6 n=73 v=15
99967 On ch=6 n=73 v=0
100020 On ch=6 n=66 v=15
100032 On ch=6 n=66 v=0
100032 On ch=6 n=65 v=15
100063 On ch=6 n=65 v=0
100116 On ch=6 n=73 v=15
100128 On ch=6 n=73 v=0
100128 On ch=6 n=72 v=15
100159 On ch=6 n=72 v=0
100212 On ch=6 n=65 v=15
100224 On ch=6 n=65 v=0
100224 On ch=6 n=64 v=15
100255 On ch=6 n=64 v=0
100308 On ch=6 n=71 v=15
100320 On ch=6 n=71 v=0
100320 On ch=6 n=70 v=15
100351 On ch=6 n=70 v=0
100404 On ch=6 n=63 v=15
100416 On ch=6 n=63 v=0
100416 On ch=6 n=66 v=15
100447 On ch=6 n=66 v=0
100500 On ch=6 n=63 v=15
100512 On ch=6 n=63 v=0
100512 On ch=6 n=66 v=15
100543 On ch=6 n=66 v=0
100596 On ch=6 n=62 v=15
100608 On ch=6 n=62 v=0
100608 On ch=6 n=63 v=15
100624 On ch=6 n=63 v=0
103752 On ch=6 n=70 v=31
103768 On ch=6 n=70 v=0
103776 On ch=6 n=75 v=31
103807 On ch=6 n=75 v=0
103848 On ch=6 n=71 v=31
103864 On ch=6 n=71 v=0
103872 On ch=6 n=70 v=31
103903 On ch=6 n=70 v=0
103944 On ch=6 n=68 v=31
103960 On ch=6 n=68 v=0
103968 On ch=6 n=66 v=31
103999 On ch=6 n=66 v=0
104040 On ch=6 n=65 v=31
104056 On ch=6 n=65 v=0
104064 On ch=6 n=63 v=31
104095 On ch=6 n=63 v=0
104136 On ch=6 n=65 v=31
104152 On ch=6 n=65 v=0
104160 On ch=6 n=66 v=31
104191 On ch=6 n=66 v=0
104232 On ch=6 n=68 v=31
104248 On ch=6 n=68 v=0
104256 On ch=6 n=70 v=31
104287 On ch=6 n=70 v=0
104328 On ch=6 n=71 v=31
104344 On ch=6 n=71 v=0
104352 On ch=6 n=73 v=31
104383 On ch=6 n=73 v=0
104424 On ch=6 n=70 v=31
104440 On ch=6 n=70 v=0
104448 On ch=6 n=71 v=31
104486 On ch=6 n=71 v=0
105096 On ch=6 n=68 v=31
105112 On ch=6 n=68 v=0
105120 On ch=6 n=71 v=31
105141 On ch=6 n=71 v=0
105152 On ch=6 n=70 v=31
105173 On ch=6 n=70 v=0
105184 On ch=6 n=69 v=31
105205 On ch=6 n=69 v=0
105216 Par ch=6 c=11 v=64
105216 On ch=6 n=70 v=31
105236 Par ch=6 c=11 v=65
105247 On ch=6 n=70 v=0
105256 Par ch=6 c=11 v=66
105272 Par ch=6 c=11 v=67
105288 On ch=6 n=65 v=31
105292 Par ch=6 c=11 v=68
105304 On ch=6 n=65 v=0
105308 Par ch=6 c=11 v=69
105312 On ch=6 n=58 v=31
105328 Par ch=6 c=11 v=70
105343 On ch=6 n=58 v=0
105344 Par ch=6 c=11 v=71
105364 Par ch=6 c=11 v=72
105384 Par ch=6 c=11 v=73
105400 Par ch=6 c=11 v=74
105420 Par ch=6 c=11 v=75
105436 Par ch=6 c=11 v=76
105456 Par ch=6 c=11 v=77
105472 Par ch=6 c=11 v=78
105472 On ch=6 n=70 v=31
105492 Par ch=6 c=11 v=79
105493 On ch=6 n=70 v=0
105504 On ch=6 n=68 v=31
105512 Par ch=6 c=11 v=80
105525 On ch=6 n=68 v=0
105528 Par ch=6 c=11 v=81
105536 On ch=6 n=70 v=31
105548 Par ch=6 c=11 v=82
105557 On ch=6 n=70 v=0
105564 Par ch=6 c=11 v=83
105568 On ch=6 n=71 v=31
105584 Par ch=6 c=11 v=84
105589 On ch=6 n=71 v=0
105600 Par ch=6 c=11 v=85
105600 On ch=6 n=70 v=31
105620 Par ch=6 c=11 v=86
105631 On ch=6 n=70 v=0
105640 Par ch=6 c=11 v=87
105656 Par ch=6 c=11 v=88
105672 On ch=6 n=65 v=31
105676 Par ch=6 c=11 v=89
105688 On ch=6 n=65 v=0
105692 Par ch=6 c=11 v=90
105696 On ch=6 n=58 v=31
105712 Par ch=6 c=11 v=91
105727 On ch=6 n=58 v=0
105728 Par ch=6 c=11 v=92
105748 Par ch=6 c=11 v=93
105768 Par ch=6 c=11 v=94
105784 Par ch=6 c=11 v=95
105804 Par ch=6 c=11 v=96
105820 Par ch=6 c=11 v=97
105840 Par ch=6 c=11 v=98
105856 Par ch=6 c=11 v=99
105856 On ch=6 n=72 v=31
105876 Par ch=6 c=11 v=100
105877 On ch=6 n=72 v=0
105888 On ch=6 n=73 v=31
105896 Par ch=6 c=11 v=101
105909 On ch=6 n=73 v=0
105912 Par ch=6 c=11 v=102
105920 On ch=6 n=72 v=31
105932 Par ch=6 c=11 v=103
105941 On ch=6 n=72 v=0
105948 Par ch=6 c=11 v=104
105952 On ch=6 n=70 v=31
105968 Par ch=6 c=11 v=105
105973 On ch=6 n=70 v=0
105984 Par ch=6 c=11 v=106
105984 On ch=6 n=77 v=31
106004 Par ch=6 c=11 v=107
106015 On ch=6 n=77 v=0
106024 Par ch=6 c=11 v=108
106040 Par ch=6 c=11 v=109
106056 On ch=6 n=72 v=31
106060 Par ch=6 c=11 v=110
106072 On ch=6 n=72 v=0
106076 Par ch=6 c=11 v=111
106080 On ch=6 n=65 v=31
106096 Par ch=6 c=11 v=112
106111 On ch=6 n=65 v=0
106112 Par ch=6 c=11 v=113
106132 Par ch=6 c=11 v=114
106152 Par ch=6 c=11 v=115
106168 Par ch=6 c=11 v=116
106188 Par ch=6 c=11 v=117
106204 Par ch=6 c=11 v=118
106208 On ch=6 n=80 v=47
106224 Par ch=6 c=11 v=119
106229 On ch=6 n=80 v=0
106240 Par ch=6 c=11 v=120
106240 On ch=6 n=82 v=47
106260 Par ch=6 c=11 v=121
106261 On ch=6 n=82 v=0
106272 On ch=6 n=84 v=47
106280 Par ch=6 c=11 v=122
106293 On ch=6 n=84 v=0
106296 Par ch=6 c=11 v=123
106304 On ch=6 n=85 v=47
106316 Par ch=6 c=11 v=124
106325 On ch=6 n=85 v=0
106332 Par ch=6 c=11 v=125
106336 On ch=6 n=87 v=47
106352 Par ch=6 c=11 v=126
106357 On ch=6 n=87 v=0
106368 Par ch=6 c=11 v=64
106368 On ch=6 n=89 v=111
106399 On ch=6 n=89 v=0
106440 On ch=6 n=87 v=111
106456 On ch=6 n=87 v=0
106464 On ch=6 n=85 v=111
106495 On ch=6 n=85 v=0
106536 On ch=6 n=84 v=111
106552 On ch=6 n=84 v=0
106560 On ch=6 n=82 v=111
106591 On ch=6 n=82 v=0
106632 On ch=6 n=80 v=111
106648 On ch=6 n=80 v=0
106656 On ch=6 n=78 v=111
106687 On ch=6 n=78 v=0
106728 On ch=6 n=77 v=111
106744 On ch=6 n=77 v=0
106752 Par ch=6 c=0 v=0
106752 Par ch=6 c=32 v=0
106752 PrCh ch=6 p=44
106752 On ch=6 n=82 v=111
106790 On ch=6 n=82 v=0
106800 On ch=6 n=80 v=111
106838 On ch=6 n=80 v=0
106848 On ch=6 n=78 v=111
106886 On ch=6 n=78 v=0
106896 On ch=6 n=77 v=111
106934 On ch=6 n=77 v=0
106944 On ch=6 n=75 v=111
106982 On ch=6 n=75 v=0
106992 On ch=6 n=73 v=111
107030 On ch=6 n=73 v=0
107040 On ch=6 n=72 v=111
107078 On ch=6 n=72 v=0
107088 On ch=6 n=77 v=111
107126 On ch=6 n=77 v=0
107136 On ch=6 n=75 v=103
107174 On ch=6 n=75 v=0
107184 On ch=6 n=73 v=95
107222 On ch=6 n=73 v=0
107232 On ch=6 n=72 v=87
107270 On ch=6 n=72 v=0
107280 On ch=6 n=70 v=79
107318 On ch=6 n=70 v=0
107328 On ch=6 n=69 v=71
107366 On ch=6 n=69 v=0
107376 On ch=6 n=70 v=63
107414 On ch=6 n=70 v=0
107424 On ch=6 n=65 v=55
107462 On ch=6 n=65 v=0
107472 On ch=6 n=61 v=47
107510 On ch=6 n=61 v=0
107520 On ch=6 n=58 v=95
107558 On ch=6 n=58 v=0
107568 On ch=6 n=59 v=95
107606 On ch=6 n=59 v=0
107616 On ch=6 n=61 v=95
107654 On ch=6 n=61 v=0
107664 On ch=6 n=63 v=95
107702 On ch=6 n=63 v=0
107712 On ch=6 n=65 v=95
107750 On ch=6 n=65 v=0
107760 On ch=6 n=66 v=95
107798 On ch=6 n=66 v=0
107808 On ch=6 n=68 v=95
107846 On ch=6 n=68 v=0
107856 On ch=6 n=65 v=95
107894 On ch=6 n=65 v=0
107904 On ch=6 n=66 v=95
107942 On ch=6 n=66 v=0
107952 On ch=6 n=68 v=95
107990 On ch=6 n=68 v=0
108000 On ch=6 n=70 v=95
108038 On ch=6 n=70 v=0
108048 On ch=6 n=71 v=95
108086 On ch=6 n=71 v=0
108096 On ch=6 n=73 v=87
108134 On ch=6 n=73 v=0
108144 On ch=6 n=75 v=79
108182 On ch=6 n=75 v=0
108192 On ch=6 n=77 v=71
108230 On ch=6 n=77 v=0
108240 On ch=6 n=78 v=63
108278 On ch=6 n=78 v=0
108288 Par ch=6 c=0 v=0
108288 Par ch=6 c=32 v=0
108288 PrCh ch=6 p=48
108288 On ch=6 n=75 v=47
108319 On ch=6 n=75 v=0
108360 On ch=6 n=74 v=47
108376 On ch=6 n=74 v=0
108384 On ch=6 n=72 v=47
108415 On ch=6 n=72 v=0
108456 On ch=6 n=70 v=47
108472 On ch=6 n=70 v=0
108480 On ch=6 n=68 v=47
108511 On ch=6 n=68 v=0
108552 On ch=6 n=67 v=47
108568 On ch=6 n=67 v=0
108576 On ch=6 n=65 v=47
108607 On ch=6 n=65 v=0
108648 On ch=6 n=63 v=47
108664 On ch=6 n=63 v=0
108672 On ch=6 n=67 v=47
108710 On ch=6 n=67 v=0
108744 On ch=6 n=65 v=47
108763 On ch=6 n=65 v=0
108768 On ch=6 n=63 v=47
108806 On ch=6 n=63 v=0
108840 On ch=6 n=62 v=47
108859 On ch=6 n=62 v=0
108864 Par ch=6 c=11 v=64
108864 On ch=6 n=60 v=47
108872 Par ch=6 c=11 v=65
108876 Par ch=6 c=11 v=66
108884 Par ch=6 c=11 v=67
108888 Par ch=6 c=11 v=68
108896 Par ch=6 c=11 v=69
108900 Par ch=6 c=11 v=70
108902 On ch=6 n=60 v=0
108908 Par ch=6 c=11 v=71
108912 Par ch=6 c=11 v=72
108920 Par ch=6 c=11 v=73
108924 Par ch=6 c=11 v=74
108928 Par ch=6 c=11 v=75
108936 Par ch=6 c=11 v=76
108936 On ch=6 n=60 v=47
108940 Par ch=6 c=11 v=77
108948 Par ch=6 c=11 v=78
108952 Par ch=6 c=11 v=79
108955 On ch=6 n=60 v=0
108960 Par ch=6 c=11 v=80
108960 On ch=6 n=58 v=47
108964 Par ch=6 c=11 v=81
108972 Par ch=6 c=11 v=82
108976 Par ch=6 c=11 v=83
108984 Par ch=6 c=11 v=84
108988 Par ch=6 c=11 v=85
108992 Par ch=6 c=11 v=86
108998 On ch=6 n=58 v=0
109000 Par ch=6 c=11 v=87
109004 Par ch=6 c=11 v=88
109012 Par ch=6 c=11 v=89
109016 Par ch=6 c=11 v=90
109024 Par ch=6 c=11 v=91
109028 Par ch=6 c=11 v=92
109032 On ch=6 n=58 v=47
109036 Par ch=6 c=11 v=93
109040 Par ch=6 c=11 v=94
109048 Par ch=6 c=11 v=95
109051 On ch=6 n=58 v=0
109052 Par ch=6 c=11 v=96
109056 On ch=6 n=63 v=47
109094 On ch=6 n=63 v=0
109152 Par ch=6 c=11 v=64
109464 On ch=6 n=70 v=111
109483 On ch=6 n=70 v=0
109488 On ch=6 n=72 v=111
109507 On ch=6 n=72 v=0
109512 On ch=6 n=74 v=111
109531 On ch=6 n=74 v=0
109536 On ch=6 n=75 v=111
109555 On ch=6 n=75 v=0
109560 On ch=6 n=77 v=111
109579 On ch=6 n=77 v=0
109584 On ch=6 n=79 v=111
109603 On ch=6 n=79 v=0
109608 On ch=6 n=80 v=111
109627 On ch=6 n=80 v=0
109632 On ch=6 n=82 v=111
109651 On ch=6 n=82 v=0
109656 Par ch=6 c=11 v=64
109656 On ch=6 n=70 v=95
109668 Par ch=6 c=11 v=65
109675 On ch=6 n=70 v=0
109676 Par ch=6 c=11 v=66
109680 On ch=6 n=72 v=95
109688 Par ch=6 c=11 v=67
109696 Par ch=6 c=11 v=68
109699 On ch=6 n=72 v=0
109704 On ch=6 n=74 v=95
109708 Par ch=6 c=11 v=69
109716 Par ch=6 c=11 v=70
109723 On ch=6 n=74 v=0
109728 Par ch=6 c=11 v=71
109728 On ch=6 n=75 v=95
109736 Par ch=6 c=11 v=72
109747 On ch=6 n=75 v=0
109748 Par ch=6 c=11 v=73
109752 On ch=6 n=77 v=95
109756 Par ch=6 c=11 v=74
109768 Par ch=6 c=11 v=75
109771 On ch=6 n=77 v=0
109776 Par ch=6 c=11 v=76
109776 On ch=6 n=79 v=95
109788 Par ch=6 c=11 v=77
109795 On ch=6 n=79 v=0
109796 Par ch=6 c=11 v=78
109800 On ch=6 n=80 v=95
109808 Par ch=6 c=11 v=79
109816 Par ch=6 c=11 v=80
109819 On ch=6 n=80 v=0
109824 Par ch=6 c=11 v=80
109824 On ch=6 n=82 v=95
109848 Par ch=6 c=11 v=79
109862 On ch=6 n=82 v=0
109868 Par ch=6 c=11 v=78
109888 Par ch=6 c=11 v=77
109896 On ch=6 n=80 v=95
109912 Par ch=6 c=11 v=76
109915 On ch=6 n=80 v=0
109920 On ch=6 n=79 v=95
109932 Par ch=6 c=11 v=75
109952 Par ch=6 c=11 v=74
109958 On ch=6 n=79 v=0
109976 Par ch=6 c=11 v=73
109992 On ch=6 n=77 v=95
109996 Par ch=6 c=11 v=72
110011 On ch=6 n=77 v=0
110016 Par ch=6 c=11 v=71
110016 On ch=6 n=75 v=95
110040 Par ch=6 c=11 v=70
110054 On ch=6 n=75 v=0
110060 Par ch=6 c=11 v=69
110080 Par ch=6 c=11 v=68
110088 On ch=6 n=74 v=95
110104 Par ch=6 c=11 v=67
110107 On ch=6 n=74 v=0
110112 On ch=6 n=72 v=95
110124 Par ch=6 c=11 v=66
110144 Par ch=6 c=11 v=65
110150 On ch=6 n=72 v=0
110168 Par ch=6 c=11 v=64
110184 On ch=6 n=70 v=95
110203 On ch=6 n=70 v=0
110208 Par ch=6 c=11 v=64
110208 On ch=6 n=72 v=95
110232 Par ch=6 c=11 v=65
110246 On ch=6 n=72 v=0
110256 Par ch=6 c=11 v=66
110276 Par ch=6 c=11 v=67
110280 On ch=6 n=71 v=95
110299 On ch=6 n=71 v=0
110300 Par ch=6 c=11 v=68
110304 On ch=6 n=72 v=95
110324 Par ch=6 c=11 v=69
110342 On ch=6 n=72 v=0
110344 Par ch=6 c=11 v=70
110368 Par ch=6 c=11 v=71
110376 On ch=6 n=74 v=95
110392 Par ch=6 c=11 v=72
110395 On ch=6 n=74 v=0
110400 On ch=6 n=75 v=95
110412 Par ch=6 c=11 v=73
110436 Par ch=6 c=11 v=74
110438 On ch=6 n=75 v=0
110460 Par ch=6 c=11 v=75
110472 On ch=6 n=74 v=95
110480 Par ch=6 c=11 v=76
110491 On ch=6 n=74 v=0
110496 On ch=6 n=75 v=95
110504 Par ch=6 c=11 v=77
110528 Par ch=6 c=11 v=78
110534 On ch=6 n=75 v=0
110548 Par ch=6 c=11 v=79
110568 On ch=6 n=77 v=95
110572 Par ch=6 c=11 v=80
110587 On ch=6 n=77 v=0
110592 Par ch=6 c=0 v=0
110592 Par ch=6 c=32 v=0
110592 PrCh ch=6 p=44
110592 Par ch=6 c=11 v=64
110592 On ch=6 n=82 v=47
110592 On ch=6 n=70 v=47
110600 Par ch=6 c=11 v=65
110608 Par ch=6 c=11 v=66
110612 Par ch=6 c=11 v=67
110620 Par ch=6 c=11 v=68
110624 Par ch=6 c=11 v=69
110632 Par ch=6 c=11 v=70
110636 Par ch=6 c=11 v=71
110644 Par ch=6 c=11 v=72
110648 Par ch=6 c=11 v=73
110656 Par ch=6 c=11 v=74
110660 Par ch=6 c=11 v=75
110668 Par ch=6 c=11 v=76
110672 Par ch=6 c=11 v=77
110680 Par ch=6 c=11 v=78
110684 Par ch=6 c=11 v=79
110692 Par ch=6 c=11 v=80
110696 Par ch=6 c=11 v=81
110704 Par ch=6 c=11 v=82
110708 Par ch=6 c=11 v=83
110716 Par ch=6 c=11 v=84
110720 Par ch=6 c=11 v=85
110728 Par ch=6 c=11 v=86
110736 Par ch=6 c=11 v=87
110740 Par ch=6 c=11 v=88
110748 Par ch=6 c=11 v=89
110752 Par ch=6 c=11 v=90
110760 Par ch=6 c=11 v=91
110764 Par ch=6 c=11 v=92
110772 Par ch=6 c=11 v=93
110776 Par ch=6 c=11 v=94
110784 Par ch=6 c=11 v=95
110788 Par ch=6 c=11 v=96
110796 Par ch=6 c=11 v=97
110800 Par ch=6 c=11 v=98
110808 Par ch=6 c=11 v=99
110812 Par ch=6 c=11 v=100
110820 Par ch=6 c=11 v=101
110824 Par ch=6 c=11 v=102
110832 Par ch=6 c=11 v=103
110836 Par ch=6 c=11 v=104
110844 Par ch=6 c=11 v=105
110848 Par ch=6 c=11 v=106
110856 Par ch=6 c=11 v=107
110864 Par ch=6 c=11 v=108
110868 Par ch=6 c=11 v=109
110876 Par ch=6 c=11 v=110
110880 Par ch=6 c=11 v=111
110888 Par ch=6 c=11 v=112
110892 Par ch=6 c=11 v=113
110900 Par ch=6 c=11 v=114
110904 Par ch=6 c=11 v=115
110912 Par ch=6 c=11 v=116
110916 Par ch=6 c=11 v=117
110924 Par ch=6 c=11 v=118
110928 Par ch=6 c=11 v=119
110936 Par ch=6 c=11 v=120
110940 Par ch=6 c=11 v=121
110948 Par ch=6 c=11 v=122
110952 Par ch=6 c=11 v=123
110960 Par ch=6 c=11 v=124
110964 Par ch=6 c=11 v=125
110972 Par ch=6 c=11 v=126
111053 On ch=6 n=70 v=0
111053 On ch=6 n=82 v=0
111072 Par ch=6 c=11 v=64
111072 Par ch=6 c=0 v=0
111072 Par ch=6 c=32 v=0
111072 PrCh ch=6 p=48
111072 On ch=6 n=80 v=111
111072 On ch=6 n=68 v=111
111110 On ch=6 n=68 v=0
111110 On ch=6 n=80 v=0
111120 On ch=6 n=78 v=111
111120 On ch=6 n=66 v=111
111158 On ch=6 n=66 v=0
111158 On ch=6 n=78 v=0
111168 On ch=6 n=77 v=111
111168 On ch=6 n=65 v=111
111244 On ch=6 n=77 v=0
111245 On ch=6 n=65 v=0
111264 On ch=6 n=75 v=111
111264 On ch=6 n=63 v=111
111340 On ch=6 n=75 v=0
111341 On ch=6 n=63 v=0
111360 On ch=6 n=83 v=111
111360 On ch=6 n=71 v=111
111388 Par ch=6 c=11 v=16
111392 Par ch=6 c=11 v=17
111396 Par ch=6 c=11 v=18
111400 Par ch=6 c=11 v=19
111404 Par ch=6 c=11 v=20
111408 Par ch=6 c=11 v=22
111412 Par ch=6 c=11 v=23
111416 Par ch=6 c=11 v=24
111420 Par ch=6 c=11 v=25
111424 Par ch=6 c=11 v=26
111428 Par ch=6 c=11 v=27
111432 Par ch=6 c=11 v=29
111436 Par ch=6 c=11 v=30
111440 Par ch=6 c=11 v=31
111444 Par ch=6 c=11 v=32
111448 Par ch=6 c=11 v=33
111452 Par ch=6 c=11 v=34
111456 Par ch=6 c=11 v=36
111460 Par ch=6 c=11 v=37
111464 Par ch=6 c=11 v=38
111468 Par ch=6 c=11 v=39
111472 Par ch=6 c=11 v=40
111476 Par ch=6 c=11 v=41
111480 Par ch=6 c=11 v=43
111484 Par ch=6 c=11 v=44
111488 Par ch=6 c=11 v=45
111492 Par ch=6 c=11 v=46
111496 Par ch=6 c=11 v=47
111500 Par ch=6 c=11 v=48
111504 Par ch=6 c=11 v=50
111508 Par ch=6 c=11 v=51
111512 Par ch=6 c=11 v=52
111516 Par ch=6 c=11 v=53
111520 Par ch=6 c=11 v=54
111524 Par ch=6 c=11 v=55
111528 Par ch=6 c=11 v=57
111532 Par ch=6 c=11 v=58
111536 Par ch=6 c=11 v=59
111540 Par ch=6 c=11 v=60
111544 Par ch=6 c=11 v=61
111548 Par ch=6 c=11 v=62
111552 Par ch=6 c=11 v=64
111552 Par ch=6 c=11 v=64
111590 On ch=6 n=71 v=0
111590 On ch=6 n=83 v=0
111600 On ch=6 n=87 v=111
111600 On ch=6 n=75 v=111
111638 On ch=6 n=75 v=0
111638 On ch=6 n=87 v=0
111648 On ch=6 n=85 v=111
111648 On ch=6 n=73 v=111
111686 On ch=6 n=73 v=0
111686 On ch=6 n=85 v=0
111696 On ch=6 n=83 v=111
111696 On ch=6 n=71 v=111
111734 On ch=6 n=71 v=0
111734 On ch=6 n=83 v=0
111744 Par ch=6 c=0 v=0
111744 Par ch=6 c=32 v=0
111744 PrCh ch=6 p=44
111744 Par ch=6 c=11 v=64
111744 On ch=6 n=75 v=111
111744 On ch=6 n=72 v=111
111752 Par ch=6 c=11 v=63
111760 Par ch=6 c=11 v=62
111768 Par ch=6 c=11 v=61
111776 Par ch=6 c=11 v=60
111784 Par ch=6 c=11 v=59
111792 Par ch=6 c=11 v=58
111800 Par ch=6 c=11 v=57
111808 Par ch=6 c=11 v=56
111816 Par ch=6 c=11 v=55
111824 Par ch=6 c=11 v=54
111832 Par ch=6 c=11 v=53
111840 Par ch=6 c=11 v=52
111848 Par ch=6 c=11 v=51
111856 Par ch=6 c=11 v=50
111864 Par ch=6 c=11 v=49
111872 Par ch=6 c=11 v=48
111880 Par ch=6 c=11 v=47
111888 Par ch=6 c=11 v=46
111896 Par ch=6 c=11 v=45
111904 Par ch=6 c=11 v=44
111912 Par ch=6 c=11 v=43
111920 Par ch=6 c=11 v=42
111928 Par ch=6 c=11 v=41
111936 Par ch=6 c=11 v=40
111940 Par ch=6 c=11 v=39
111948 Par ch=6 c=11 v=38
111956 Par ch=6 c=11 v=37
111964 Par ch=6 c=11 v=36
111972 Par ch=6 c=11 v=35
111980 Par ch=6 c=11 v=34
111988 Par ch=6 c=11 v=33
111996 Par ch=6 c=11 v=32
112004 Par ch=6 c=11 v=31
112012 Par ch=6 c=11 v=30
112020 Par ch=6 c=11 v=29
112028 Par ch=6 c=11 v=28
112036 Par ch=6 c=11 v=27
112044 Par ch=6 c=11 v=26
112051 On ch=6 n=72 v=0
112051 On ch=6 n=75 v=0
112052 Par ch=6 c=11 v=25
112060 Par ch=6 c=11 v=24
112068 Par ch=6 c=11 v=23
112076 Par ch=6 c=11 v=22
112084 Par ch=6 c=11 v=21
112092 Par ch=6 c=11 v=20
112100 Par ch=6 c=11 v=19
112108 Par ch=6 c=11 v=18
112116 Par ch=6 c=11 v=17
112124 Par ch=6 c=11 v=16
112224 Par ch=6 c=11 v=64
112224 On ch=6 n=90 v=111
112244 Par ch=6 c=11 v=63
112250 On ch=6 n=90 v=0
112256 On ch=6 n=89 v=111
112260 Par ch=6 c=11 v=62
112276 Par ch=6 c=11 v=61
112282 On ch=6 n=89 v=0
112288 On ch=6 n=87 v=111
112292 Par ch=6 c=11 v=60
112312 Par ch=6 c=11 v=59
112314 On ch=6 n=87 v=0
112320 On ch=6 n=87 v=111
112328 Par ch=6 c=11 v=58
112344 Par ch=6 c=11 v=57
112346 On ch=6 n=87 v=0
112352 On ch=6 n=85 v=111
112360 Par ch=6 c=11 v=56
112378 On ch=6 n=85 v=0
112380 Par ch=6 c=11 v=55
112384 On ch=6 n=83 v=111
112396 Par ch=6 c=11 v=54
112410 On ch=6 n=83 v=0
112412 Par ch=6 c=11 v=53
112416 On ch=6 n=82 v=111
112428 Par ch=6 c=11 v=52
112442 On ch=6 n=82 v=0
112448 Par ch=6 c=11 v=51
112448 On ch=6 n=78 v=111
112464 Par ch=6 c=11 v=50
112474 On ch=6 n=78 v=0
112480 Par ch=6 c=11 v=49
112480 On ch=6 n=82 v=111
112496 Par ch=6 c=11 v=48
112501 On ch=6 n=82 v=0
112512 Par ch=6 c=11 v=64
112512 On ch=6 n=72 v=111
112512 On ch=6 n=75 v=111
112520 Par ch=6 c=11 v=63
112528 Par ch=6 c=11 v=62
112536 Par ch=6 c=11 v=61
112544 Par ch=6 c=11 v=60
112552 Par ch=6 c=11 v=59
112560 Par ch=6 c=11 v=58
112568 Par ch=6 c=11 v=57
112576 Par ch=6 c=11 v=56
112584 Par ch=6 c=11 v=55
112592 Par ch=6 c=11 v=54
112600 Par ch=6 c=11 v=53
112608 Par ch=6 c=11 v=52
112616 Par ch=6 c=11 v=51
112624 Par ch=6 c=11 v=50
112632 Par ch=6 c=11 v=49
112640 Par ch=6 c=11 v=48
112648 Par ch=6 c=11 v=47
112656 Par ch=6 c=11 v=46
112664 Par ch=6 c=11 v=45
112672 Par ch=6 c=11 v=44
112680 Par ch=6 c=11 v=43
112688 Par ch=6 c=11 v=42
112696 Par ch=6 c=11 v=41
112704 Par ch=6 c=11 v=40
112708 Par ch=6 c=11 v=39
112716 Par ch=6 c=11 v=38
112724 Par ch=6 c=11 v=37
112732 Par ch=6 c=11 v=36
112740 Par ch=6 c=11 v=35
112748 Par ch=6 c=11 v=34
112756 Par ch=6 c=11 v=33
112764 Par ch=6 c=11 v=32
112772 Par ch=6 c=11 v=31
112780 Par ch=6 c=11 v=30
112788 Par ch=6 c=11 v=29
112796 Par ch=6 c=11 v=28
112804 Par ch=6 c=11 v=27
112812 Par ch=6 c=11 v=26
112819 On ch=6 n=75 v=0
112819 On ch=6 n=72 v=0
112820 Par ch=6 c=11 v=25
112828 Par ch=6 c=11 v=24
112836 Par ch=6 c=11 v=23
112844 Par ch=6 c=11 v=22
112852 Par ch=6 c=11 v=21
112860 Par ch=6 c=11 v=20
112868 Par ch=6 c=11 v=19
112876 Par ch=6 c=11 v=18
112884 Par ch=6 c=11 v=17
112892 Par ch=6 c=11 v=16
112992 Par ch=6 c=11 v=64
112992 On ch=6 n=90 v=111
113012 Par ch=6 c=11 v=63
113018 On ch=6 n=90 v=0
113024 On ch=6 n=89 v=111
113028 Par ch=6 c=11 v=62
113044 Par ch=6 c=11 v=61
113050 On ch=6 n=89 v=0
113056 On ch=6 n=87 v=111
113060 Par ch=6 c=11 v=60
113080 Par ch=6 c=11 v=59
113082 On ch=6 n=87 v=0
113088 On ch=6 n=87 v=111
113096 Par ch=6 c=11 v=58
113112 Par ch=6 c=11 v=57
113114 On ch=6 n=87 v=0
113120 On ch=6 n=85 v=111
113128 Par ch=6 c=11 v=56
113146 On ch=6 n=85 v=0
113148 Par ch=6 c=11 v=55
113152 On ch=6 n=83 v=111
113164 Par ch=6 c=11 v=54
113178 On ch=6 n=83 v=0
113180 Par ch=6 c=11 v=53
113184 On ch=6 n=82 v=111
113196 Par ch=6 c=11 v=52
113210 On ch=6 n=82 v=0
113216 Par ch=6 c=11 v=51
113216 On ch=6 n=78 v=111
113232 Par ch=6 c=11 v=50
113242 On ch=6 n=78 v=0
113248 Par ch=6 c=11 v=49
113248 On ch=6 n=82 v=111
113264 Par ch=6 c=11 v=48
113269 On ch=6 n=82 v=0
113280 Par ch=6 c=11 v=64
113280 On ch=6 n=76 v=111
113280 On ch=6 n=80 v=111
113306 On ch=6 n=76 v=0
113344 On ch=6 n=83 v=111
113357 On ch=6 n=80 v=0
113370 On ch=6 n=83 v=0
113376 On ch=6 n=82 v=111
113376 On ch=6 n=78 v=111
113402 On ch=6 n=82 v=0
113440 On ch=6 n=74 v=111
113466 On ch=6 n=74 v=0
113472 On ch=6 n=75 v=111
113498 On ch=6 n=75 v=0
113536 On ch=6 n=81 v=111
113562 On ch=6 n=81 v=0
113568 On ch=6 n=82 v=111
113594 On ch=6 n=82 v=0
113606 On ch=6 n=78 v=0
113632 On ch=6 n=73 v=111
113658 On ch=6 n=73 v=0
113664 Par ch=6 c=11 v=64
113664 On ch=6 n=77 v=111
113664 On ch=6 n=82 v=111
113688 Par ch=6 c=11 v=65
113690 On ch=6 n=77 v=0
113712 Par ch=6 c=11 v=66
113728 On ch=6 n=85 v=111
113732 Par ch=6 c=11 v=67
113741 On ch=6 n=82 v=0
113754 On ch=6 n=85 v=0
113756 Par ch=6 c=11 v=68
113760 On ch=6 n=84 v=111
113760 On ch=6 n=80 v=111
113780 Par ch=6 c=11 v=69
113786 On ch=6 n=84 v=0
113800 Par ch=6 c=11 v=70
113824 Par ch=6 c=11 v=71
113824 On ch=6 n=76 v=111
113837 On ch=6 n=80 v=0
113848 Par ch=6 c=11 v=72
113850 On ch=6 n=76 v=0
113856 On ch=6 n=77 v=111
113856 On ch=6 n=81 v=111
113868 Par ch=6 c=11 v=73
113882 On ch=6 n=77 v=0
113892 Par ch=6 c=11 v=74
113916 Par ch=6 c=11 v=75
113920 On ch=6 n=83 v=111
113933 On ch=6 n=81 v=0
113936 Par ch=6 c=11 v=76
113946 On ch=6 n=83 v=0
113952 On ch=6 n=84 v=111
113952 On ch=6 n=80 v=111
113960 Par ch=6 c=11 v=77
113978 On ch=6 n=84 v=0
113984 Par ch=6 c=11 v=78
114004 Par ch=6 c=11 v=79
114016 On ch=6 n=75 v=111
114028 Par ch=6 c=11 v=80
114029 On ch=6 n=80 v=0
114042 On ch=6 n=75 v=0
114048 Par ch=6 c=11 v=64
114048 On ch=6 n=87 v=111
114048 On ch=6 n=83 v=111
114125 On ch=6 n=87 v=0
114144 On ch=6 n=86 v=111
114259 On ch=6 n=86 v=0
114288 On ch=6 n=90 v=111
114326 On ch=6 n=90 v=0
114336 On ch=6 n=89 v=111
114355 On ch=6 n=83 v=0
114374 On ch=6 n=89 v=0
114384 On ch=6 n=80 v=111
114422 On ch=6 n=80 v=0
114432 Par ch=6 c=11 v=64
114432 On ch=6 n=80 v=111
114444 Par ch=6 c=11 v=63
114456 Par ch=6 c=11 v=62
114468 Par ch=6 c=11 v=61
114470 On ch=6 n=80 v=0
114480 Par ch=6 c=11 v=60
114480 On ch=6 n=79 v=111
114492 Par ch=6 c=11 v=59
114500 Par ch=6 c=11 v=58
114512 Par ch=6 c=11 v=57
114518 On ch=6 n=79 v=0
114524 Par ch=6 c=11 v=56
114528 On ch=6 n=89 v=111
114536 Par ch=6 c=11 v=55
114548 Par ch=6 c=11 v=54
114560 Par ch=6 c=11 v=53
114566 On ch=6 n=89 v=0
114568 Par ch=6 c=11 v=52
114576 On ch=6 n=87 v=111
114580 Par ch=6 c=11 v=51
114592 Par ch=6 c=11 v=50
114604 Par ch=6 c=11 v=49
114614 On ch=6 n=87 v=0
114616 Par ch=6 c=11 v=48
114624 Par ch=6 c=11 v=47
114624 On ch=6 n=78 v=111
114636 Par ch=6 c=11 v=46
114648 Par ch=6 c=11 v=45
114660 Par ch=6 c=11 v=44
114662 On ch=6 n=78 v=0
114672 Par ch=6 c=11 v=43
114672 On ch=6 n=86 v=111
114684 Par ch=6 c=11 v=42
114692 Par ch=6 c=11 v=41
114704 Par ch=6 c=11 v=40
114710 On ch=6 n=86 v=0
114716 Par ch=6 c=11 v=39
114720 On ch=6 n=85 v=111
114728 Par ch=6 c=11 v=38
114740 Par ch=6 c=11 v=37
114752 Par ch=6 c=11 v=36
114758 On ch=6 n=85 v=0
114760 Par ch=6 c=11 v=35
114768 On ch=6 n=77 v=111
114772 Par ch=6 c=11 v=34
114784 Par ch=6 c=11 v=33
114796 Par ch=6 c=11 v=32
114806 On ch=6 n=77 v=0
114816 Par ch=6 c=11 v=32
114816 On ch=6 n=77 v=111
114828 Par ch=6 c=11 v=33
114840 Par ch=6 c=11 v=34
114852 Par ch=6 c=11 v=35
114854 On ch=6 n=77 v=0
114864 Par ch=6 c=11 v=36
114864 On ch=6 n=76 v=111
114876 Par ch=6 c=11 v=37
114888 Par ch=6 c=11 v=38
114900 Par ch=6 c=11 v=39
114902 On ch=6 n=76 v=0
114912 Par ch=6 c=11 v=40
114912 On ch=6 n=84 v=111
114924 Par ch=6 c=11 v=41
114936 Par ch=6 c=11 v=42
114944 Par ch=6 c=11 v=43
114950 On ch=6 n=84 v=0
114956 Par ch=6 c=11 v=44
114960 On ch=6 n=83 v=111
114968 Par ch=6 c=11 v=45
114980 Par ch=6 c=11 v=46
114992 Par ch=6 c=11 v=47
114998 On ch=6 n=83 v=0
115004 Par ch=6 c=11 v=48
115008 On ch=6 n=75 v=111
115016 Par ch=6 c=11 v=49
115028 Par ch=6 c=11 v=50
115040 Par ch=6 c=11 v=51
115046 On ch=6 n=75 v=0
115052 Par ch=6 c=11 v=52
115056 On ch=6 n=74 v=111
115064 Par ch=6 c=11 v=53
115072 Par ch=6 c=11 v=54
115084 Par ch=6 c=11 v=55
115094 On ch=6 n=74 v=0
115096 Par ch=6 c=11 v=56
115104 On ch=6 n=82 v=111
115108 Par ch=6 c=11 v=57
115120 Par ch=6 c=11 v=58
115132 Par ch=6 c=11 v=59
115142 On ch=6 n=82 v=0
115144 Par ch=6 c=11 v=60
115152 On ch=6 n=81 v=111
115156 Par ch=6 c=11 v=61
115168 Par ch=6 c=11 v=62
115180 Par ch=6 c=11 v=63
115190 On ch=6 n=81 v=0
115192 Par ch=6 c=11 v=64
115200 Par ch=6 c=11 v=64
115200 On ch=6 n=80 v=111
115212 Par ch=6 c=11 v=63
115224 Par ch=6 c=11 v=62
115236 Par ch=6 c=11 v=61
115248 Par ch=6 c=11 v=60
115260 Par ch=6 c=11 v=59
115268 Par ch=6 c=11 v=58
115280 Par ch=6 c=11 v=57
115292 Par ch=6 c=11 v=56
115304 Par ch=6 c=11 v=55
115316 Par ch=6 c=11 v=54
115328 Par ch=6 c=11 v=53
115336 Par ch=6 c=11 v=52
115348 Par ch=6 c=11 v=51
115352 On ch=6 n=80 v=0
115360 Par ch=6 c=11 v=50
115372 Par ch=6 c=11 v=49
115384 Par ch=6 c=11 v=48
115392 Par ch=6 c=11 v=47
115392 On ch=6 n=78 v=111
115404 Par ch=6 c=11 v=46
115416 Par ch=6 c=11 v=45
115428 Par ch=6 c=11 v=44
115440 Par ch=6 c=11 v=43
115452 Par ch=6 c=11 v=42
115460 Par ch=6 c=11 v=41
115472 Par ch=6 c=11 v=40
115484 Par ch=6 c=11 v=39
115496 Par ch=6 c=11 v=38
115508 Par ch=6 c=11 v=37
115520 Par ch=6 c=11 v=36
115528 Par ch=6 c=11 v=35
115540 Par ch=6 c=11 v=34
115552 Par ch=6 c=11 v=33
115564 Par ch=6 c=11 v=32
115584 Par ch=6 c=11 v=32
115596 Par ch=6 c=11 v=33
115608 Par ch=6 c=11 v=34
115620 Par ch=6 c=11 v=35
115632 Par ch=6 c=11 v=36
115644 Par ch=6 c=11 v=37
115656 Par ch=6 c=11 v=38
115660 On ch=6 n=78 v=0
115668 Par ch=6 c=11 v=39
115680 Par ch=6 c=0 v=0
115680 Par ch=6 c=32 v=0
115680 PrCh ch=6 p=48
115680 Par ch=6 c=11 v=40
115680 On ch=6 n=76 v=111
115692 Par ch=6 c=11 v=41
115704 Par ch=6 c=11 v=42
115712 Par ch=6 c=11 v=43
115724 Par ch=6 c=11 v=44
115736 Par ch=6 c=11 v=45
115748 Par ch=6 c=11 v=46
115756 On ch=6 n=76 v=0
115760 Par ch=6 c=11 v=47
115772 Par ch=6 c=11 v=48
115776 On ch=6 n=75 v=111
115784 Par ch=6 c=11 v=49
115796 Par ch=6 c=11 v=50
115808 Par ch=6 c=11 v=51
115820 Par ch=6 c=11 v=52
115832 Par ch=6 c=11 v=53
115840 Par ch=6 c=11 v=54
115852 On ch=6 n=75 v=0
115852 Par ch=6 c=11 v=55
115864 Par ch=6 c=11 v=56
115872 On ch=6 n=74 v=111
115876 Par ch=6 c=11 v=57
115888 Par ch=6 c=11 v=58
115900 Par ch=6 c=11 v=59
115912 Par ch=6 c=11 v=60
115924 Par ch=6 c=11 v=61
115936 Par ch=6 c=11 v=62
115948 On ch=6 n=74 v=0
115948 Par ch=6 c=11 v=63
115960 Par ch=6 c=11 v=64
115968 Par ch=6 c=0 v=0
115968 Par ch=6 c=32 v=0
115968 PrCh ch=6 p=44
115968 Par ch=6 c=11 v=64
115968 On ch=6 n=80 v=111
115992 Par ch=6 c=11 v=63
116016 Par ch=6 c=11 v=62
116036 Par ch=6 c=11 v=61
116060 Par ch=6 c=11 v=60
116084 Par ch=6 c=11 v=59
116104 Par ch=6 c=11 v=58
116120 On ch=6 n=80 v=0
116128 Par ch=6 c=11 v=57
116152 Par ch=6 c=11 v=56
116160 On ch=6 n=78 v=111
116172 Par ch=6 c=11 v=55
116196 Par ch=6 c=11 v=54
116220 Par ch=6 c=11 v=53
116240 Par ch=6 c=11 v=52
116264 Par ch=6 c=11 v=51
116288 Par ch=6 c=11 v=50
116308 Par ch=6 c=11 v=49
116312 On ch=6 n=78 v=0
116332 Par ch=6 c=11 v=48
116736 Par ch=6 c=11 v=64
116736 Par ch=6 c=0 v=0
116736 Par ch=6 c=32 v=0
116736 PrCh ch=6 p=45
116736 On ch=6 n=70 v=95
116762 On ch=6 n=70 v=0
116768 On ch=6 n=70 v=95
116794 On ch=6 n=70 v=0
116800 On ch=6 n=70 v=95
116826 On ch=6 n=70 v=0
116832 On ch=6 n=58 v=95
116858 On ch=6 n=58 v=0
116864 On ch=6 n=58 v=95
116890 On ch=6 n=58 v=0
116896 On ch=6 n=58 v=95
116922 On ch=6 n=58 v=0
116928 On ch=6 n=63 v=95
116954 On ch=6 n=63 v=0
116960 On ch=6 n=63 v=95
116986 On ch=6 n=63 v=0
116992 On ch=6 n=63 v=95
117018 On ch=6 n=63 v=0
117024 On ch=6 n=70 v=95
117050 On ch=6 n=70 v=0
117056 On ch=6 n=70 v=95
117082 On ch=6 n=70 v=0
117088 On ch=6 n=70 v=95
117114 On ch=6 n=70 v=0
117120 On ch=6 n=75 v=95
117146 On ch=6 n=75 v=0
117152 On ch=6 n=75 v=95
117178 On ch=6 n=75 v=0
117184 On ch=6 n=75 v=95
117210 On ch=6 n=75 v=0
117216 On ch=6 n=58 v=95
117242 On ch=6 n=58 v=0
117248 On ch=6 n=58 v=95
117274 On ch=6 n=58 v=0
117280 On ch=6 n=58 v=95
117306 On ch=6 n=58 v=0
117312 On ch=6 n=63 v=95
117338 On ch=6 n=63 v=0
117344 On ch=6 n=63 v=95
117370 On ch=6 n=63 v=0
117376 On ch=6 n=63 v=95
117402 On ch=6 n=63 v=0
117408 On ch=6 n=70 v=95
117434 On ch=6 n=70 v=0
117440 On ch=6 n=70 v=95
117466 On ch=6 n=70 v=0
117472 On ch=6 n=70 v=95
117498 On ch=6 n=70 v=0
117504 Par ch=6 c=11 v=64
117504 On ch=6 n=75 v=95
117530 On ch=6 n=75 v=0
117536 On ch=6 n=75 v=95
117552 Par ch=6 c=11 v=65
117562 On ch=6 n=75 v=0
117568 On ch=6 n=75 v=95
117594 On ch=6 n=75 v=0
117596 Par ch=6 c=11 v=66
117600 On ch=6 n=58 v=95
117626 On ch=6 n=58 v=0
117632 On ch=6 n=58 v=95
117640 Par ch=6 c=11 v=67
117658 On ch=6 n=58 v=0
117664 On ch=6 n=58 v=95
117688 Par ch=6 c=11 v=68
117690 On ch=6 n=58 v=0
117696 On ch=6 n=63 v=95
117722 On ch=6 n=63 v=0
117728 On ch=6 n=63 v=95
117732 Par ch=6 c=11 v=69
117754 On ch=6 n=63 v=0
117760 On ch=6 n=63 v=95
117776 Par ch=6 c=11 v=70
117786 On ch=6 n=63 v=0
117792 On ch=6 n=70 v=95
117818 On ch=6 n=70 v=0
117824 Par ch=6 c=11 v=71
117824 On ch=6 n=70 v=95
117850 On ch=6 n=70 v=0
117856 On ch=6 n=70 v=95
117868 Par ch=6 c=11 v=72
117882 On ch=6 n=70 v=0
117888 On ch=6 n=75 v=95
117912 Par ch=6 c=11 v=73
117914 On ch=6 n=75 v=0
117920 On ch=6 n=75 v=95
117946 On ch=6 n=75 v=0
117952 On ch=6 n=75 v=95
117956 Par ch=6 c=11 v=74
117978 On ch=6 n=75 v=0
117984 On ch=6 n=58 v=95
118004 Par ch=6 c=11 v=75
118010 On ch=6 n=58 v=0
118016 On ch=6 n=58 v=95
118042 On ch=6 n=58 v=0
118048 Par ch=6 c=11 v=76
118048 On ch=6 n=58 v=95
118074 On ch=6 n=58 v=0
118080 On ch=6 n=63 v=95
118092 Par ch=6 c=11 v=77
118106 On ch=6 n=63 v=0
118112 On ch=6 n=63 v=95
118138 On ch=6 n=63 v=0
118140 Par ch=6 c=11 v=78
118144 On ch=6 n=63 v=95
118170 On ch=6 n=63 v=0
118176 Par ch=6 c=0 v=0
118176 Par ch=6 c=32 v=0
118176 PrCh ch=6 p=48
118176 On ch=6 n=65 v=100
118184 Par ch=6 c=11 v=79
118197 On ch=6 n=65 v=0
118208 On ch=6 n=66 v=100
118228 Par ch=6 c=11 v=80
118229 On ch=6 n=66 v=0
118240 On ch=6 n=68 v=100
118261 On ch=6 n=68 v=0
118272 Par ch=6 c=11 v=64
118272 On ch=6 n=70 v=100
118368 On ch=6 n=70 v=0
118368 On ch=6 n=66 v=100
118399 On ch=6 n=66 v=0
118440 On ch=6 n=68 v=100
118456 On ch=6 n=68 v=0
118464 On ch=6 n=70 v=100
118560 On ch=6 n=70 v=0
118560 On ch=6 n=73 v=100
118591 On ch=6 n=73 v=0
118632 On ch=6 n=71 v=100
118648 On ch=6 n=71 v=0
118656 On ch=6 n=70 v=100
118733 On ch=6 n=70 v=0
118752 On ch=6 n=63 v=100
118829 On ch=6 n=63 v=0
118944 On ch=6 n=73 v=100
118975 On ch=6 n=73 v=0
119016 On ch=6 n=71 v=100
119032 On ch=6 n=71 v=0
119040 On ch=6 n=70 v=100
119117 On ch=6 n=70 v=0
119136 On ch=6 n=75 v=100
119213 On ch=6 n=75 v=0
119328 On ch=6 n=78 v=100
119366 On ch=6 n=78 v=0
119400 On ch=6 n=77 v=100
119419 On ch=6 n=77 v=0
119424 On ch=6 n=74 v=100
119472 On ch=6 n=74 v=0
119472 On ch=6 n=75 v=100
119510 On ch=6 n=75 v=0
119520 On ch=6 n=66 v=100
119558 On ch=6 n=66 v=0
119592 On ch=6 n=68 v=100
119611 On ch=6 n=68 v=0
119616 On ch=6 n=70 v=100
119693 On ch=6 n=70 v=0
119712 On ch=6 n=73 v=100
119750 On ch=6 n=73 v=0
119784 On ch=6 n=71 v=100
119803 On ch=6 n=71 v=0
119808 On ch=6 n=70 v=100
119885 On ch=6 n=70 v=0
119904 On ch=6 n=63 v=100
119981 On ch=6 n=63 v=0
120048 On ch=6 n=63 v=100
120096 On ch=6 n=63 v=0
120096 On ch=6 n=80 v=100
120134 On ch=6 n=80 v=0
120168 On ch=6 n=76 v=100
120187 On ch=6 n=76 v=0
120192 On ch=6 n=74 v=100
120240 On ch=6 n=74 v=0
120240 On ch=6 n=75 v=100
120278 On ch=6 n=75 v=0
120288 On ch=6 n=68 v=100
120326 On ch=6 n=68 v=0
120360 On ch=6 n=70 v=100
120379 On ch=6 n=70 v=0
120384 On ch=6 n=71 v=100
120461 On ch=6 n=71 v=0
120480 On ch=6 n=77 v=100
120518 On ch=6 n=77 v=0
120552 On ch=6 n=75 v=100
120571 On ch=6 n=75 v=0
120576 On ch=6 n=73 v=100
120614 On ch=6 n=73 v=0
120648 On ch=6 n=68 v=100
120672 On ch=6 n=68 v=0
120672 On ch=6 n=77 v=100
120710 On ch=6 n=77 v=0
120744 On ch=6 n=75 v=100
120763 On ch=6 n=75 v=0
120768 On ch=6 n=73 v=100
120806 On ch=6 n=73 v=0
120840 On ch=6 n=71 v=100
120864 On ch=6 n=71 v=0
120864 On ch=6 n=81 v=100
120902 On ch=6 n=81 v=0
120936 On ch=6 n=79 v=100
120955 On ch=6 n=79 v=0
120960 On ch=6 n=78 v=100
120998 On ch=6 n=78 v=0
121032 On ch=6 n=72 v=100
121056 On ch=6 n=72 v=0
121056 On ch=6 n=81 v=100
121094 On ch=6 n=81 v=0
121128 On ch=6 n=79 v=100
121147 On ch=6 n=79 v=0
121152 On ch=6 n=78 v=100
121190 On ch=6 n=78 v=0
121224 On ch=6 n=72 v=100
121248 On ch=6 n=72 v=0
121248 On ch=6 n=87 v=100
121286 On ch=6 n=87 v=0
121320 On ch=6 n=86 v=100
121336 On ch=6 n=86 v=0
121344 On ch=6 n=85 v=100
121375 On ch=6 n=85 v=0
121416 On ch=6 n=84 v=100
121432 On ch=6 n=84 v=0
121440 On ch=6 n=83 v=100
121471 On ch=6 n=83 v=0
121512 On ch=6 n=82 v=100
121528 On ch=6 n=82 v=0
121536 On ch=6 n=81 v=100
121567 On ch=6 n=81 v=0
121608 On ch=6 n=80 v=100
121624 On ch=6 n=80 v=0
121632 On ch=6 n=79 v=100
121663 On ch=6 n=79 v=0
121704 On ch=6 n=78 v=100
121720 On ch=6 n=78 v=0
121728 On ch=6 n=83 v=100
121759 On ch=6 n=83 v=0
121800 On ch=6 n=82 v=100
121816 On ch=6 n=82 v=0
121824 On ch=6 n=81 v=100
121855 On ch=6 n=81 v=0
121896 On ch=6 n=80 v=100
121912 On ch=6 n=80 v=0
121920 On ch=6 n=79 v=100
121951 On ch=6 n=79 v=0
121992 On ch=6 n=78 v=100
122008 On ch=6 n=78 v=0
122016 On ch=6 n=77 v=100
122047 On ch=6 n=77 v=0
122088 On ch=6 n=76 v=100
122104 On ch=6 n=76 v=0
122112 On ch=6 n=93 v=100
122138 On ch=6 n=93 v=0
122144 On ch=6 n=92 v=100
122170 On ch=6 n=92 v=0
122176 On ch=6 n=91 v=100
122202 On ch=6 n=91 v=0
122208 On ch=6 n=90 v=100
122234 On ch=6 n=90 v=0
122240 On ch=6 n=89 v=100
122266 On ch=6 n=89 v=0
122272 On ch=6 n=88 v=100
122298 On ch=6 n=88 v=0
122304 On ch=6 n=87 v=100
122330 On ch=6 n=87 v=0
122336 On ch=6 n=86 v=100
122362 On ch=6 n=86 v=0
122368 On ch=6 n=85 v=100
122394 On ch=6 n=85 v=0
122400 On ch=6 n=84 v=100
122426 On ch=6 n=84 v=0
122432 On ch=6 n=83 v=100
122458 On ch=6 n=83 v=0
122464 On ch=6 n=82 v=100
122490 On ch=6 n=82 v=0
122496 Par ch=6 c=0 v=0
122496 Par ch=6 c=32 v=0
122496 PrCh ch=6 p=44
122496 On ch=6 n=81 v=100
122522 On ch=6 n=81 v=0
122528 On ch=6 n=80 v=100
122554 On ch=6 n=80 v=0
122560 On ch=6 n=79 v=100
122586 On ch=6 n=79 v=0
122592 On ch=6 n=78 v=100
122618 On ch=6 n=78 v=0
122624 On ch=6 n=77 v=100
122650 On ch=6 n=77 v=0
122656 On ch=6 n=76 v=100
122682 On ch=6 n=76 v=0
122688 On ch=6 n=75 v=100
122714 On ch=6 n=75 v=0
122720 On ch=6 n=74 v=100
122746 On ch=6 n=74 v=0
122752 On ch=6 n=73 v=100
122778 On ch=6 n=73 v=0
122784 On ch=6 n=72 v=100
122810 On ch=6 n=72 v=0
122816 On ch=6 n=70 v=100
122842 On ch=6 n=70 v=0
122848 On ch=6 n=69 v=100
122874 On ch=6 n=69 v=0
122880 Par ch=6 c=0 v=0
122880 Par ch=6 c=32 v=0
122880 PrCh ch=6 p=48
122880 On ch=6 n=67 v=100
122918 On ch=6 n=67 v=0
123264 On ch=6 n=75 v=100
123264 On ch=6 n=63 v=100
123283 On ch=6 n=63 v=0
123284 On ch=6 n=75 v=0
123360 On ch=6 n=87 v=100
123360 On ch=6 n=75 v=100
123379 On ch=6 n=75 v=0
123379 On ch=6 n=87 v=0
124032 On ch=6 n=64 v=100
124038 On ch=6 n=76 v=100
124044 On ch=6 n=64 v=0
124054 On ch=6 n=76 v=0
124128 On ch=6 n=76 v=100
124134 On ch=6 n=88 v=100
124140 On ch=6 n=76 v=0
124150 On ch=6 n=88 v=0
124800 Par ch=6 c=0 v=0
124800 Par ch=6 c=32 v=0
124800 PrCh ch=6 p=45
124800 On ch=6 n=66 v=127
124800 On ch=6 n=72 v=127
124819 On ch=6 n=72 v=0
124819 On ch=6 n=66 v=0
125952 Par ch=6 c=0 v=0
125952 Par ch=6 c=32 v=0
125952 PrCh ch=6 p=48
125952 On ch=6 n=67 v=111
125978 On ch=6 n=67 v=0
125984 On ch=6 n=66 v=111
126010 On ch=6 n=66 v=0
126016 On ch=6 n=65 v=111
126042 On ch=6 n=65 v=0
126048 On ch=6 n=63 v=111
126074 On ch=6 n=63 v=0
126080 On ch=6 n=62 v=111
126106 On ch=6 n=62 v=0
126112 On ch=6 n=60 v=111
126138 On ch=6 n=60 v=0
126144 On ch=6 n=59 v=111
126170 On ch=6 n=59 v=0
126176 On ch=6 n=56 v=111
126202 On ch=6 n=56 v=0
126208 On ch=6 n=55 v=111
126234 On ch=6 n=55 v=0
126336 Par ch=6 c=0 v=0
126336 Par ch=6 c=32 v=0
126336 PrCh ch=6 p=48
126336 On ch=6 n=72 v=127
126339 On ch=6 n=79 v=127
126342 On ch=6 n=84 v=127
126360 On ch=6 n=72 v=0
126363 On ch=6 n=79 v=0
126373 On ch=6 n=84 v=0
126384 On ch=6 n=72 v=127
126422 On ch=6 n=72 v=0
127104 On ch=6 n=63 v=127
127123 On ch=6 n=63 v=0
127128 On ch=6 n=62 v=127
127147 On ch=6 n=62 v=0
127152 On ch=6 n=63 v=127
127171 On ch=6 n=63 v=0
127176 On ch=6 n=65 v=127
127195 On ch=6 n=65 v=0
127200 On ch=6 n=67 v=127
127238 On ch=6 n=67 v=0
127320 On ch=6 n=60 v=127
127339 On ch=6 n=60 v=0
127344 On ch=6 n=62 v=127
127363 On ch=6 n=62 v=0
127368 On ch=6 n=63 v=127
127387 On ch=6 n=63 v=0
127392 On ch=6 n=65 v=127
127411 On ch=6 n=65 v=0
127416 On ch=6 n=67 v=127
127435 On ch=6 n=67 v=0
127440 On ch=6 n=69 v=127
127459 On ch=6 n=69 v=0
127464 On ch=6 n=71 v=127
127483 On ch=6 n=71 v=0
127488 On ch=6 n=72 v=127
127519 On ch=6 n=72 v=0
127560 On ch=6 n=67 v=127
127576 On ch=6 n=67 v=0
127584 On ch=6 n=60 v=127
127622 On ch=6 n=60 v=0
127824 On ch=6 n=55 v=95
127855 On ch=6 n=55 v=0
127872 Par ch=6 c=11 v=64
127872 On ch=6 n=60 v=95
127876 Par ch=6 c=11 v=63
127880 Par ch=6 c=11 v=62
127884 Par ch=6 c=11 v=61
127888 Par ch=6 c=11 v=60
127892 Par ch=6 c=11 v=59
127896 Par ch=6 c=11 v=58
127900 Par ch=6 c=11 v=57
127904 Par ch=6 c=11 v=56
127908 Par ch=6 c=11 v=55
127910 On ch=6 n=60 v=0
127912 Par ch=6 c=11 v=54
127916 Par ch=6 c=11 v=53
127920 Par ch=6 c=11 v=52
127924 Par ch=6 c=11 v=51
127928 Par ch=6 c=11 v=50
127932 Par ch=6 c=11 v=49
127936 Par ch=6 c=11 v=48
127940 Par ch=6 c=11 v=47
127944 Par ch=6 c=11 v=46
127944 On ch=6 n=55 v=95
127948 Par ch=6 c=11 v=45
127952 Par ch=6 c=11 v=44
127956 Par ch=6 c=11 v=43
127960 Par ch=6 c=11 v=42
127963 On ch=6 n=55 v=0
127964 Par ch=6 c=11 v=41
127968 Par ch=6 c=11 v=40
127968 On ch=6 n=60 v=95
127972 Par ch=6 c=11 v=39
127976 Par ch=6 c=11 v=38
127980 Par ch=6 c=11 v=37
127984 Par ch=6 c=11 v=36
127988 Par ch=6 c=11 v=35
127992 Par ch=6 c=11 v=34
127996 Par ch=6 c=11 v=33
128000 Par ch=6 c=11 v=32
128004 Par ch=6 c=11 v=31
128006 On ch=6 n=60 v=0
128008 Par ch=6 c=11 v=30
128012 Par ch=6 c=11 v=29
128016 Par ch=6 c=11 v=28
128020 Par ch=6 c=11 v=27
128024 Par ch=6 c=11 v=26
128028 Par ch=6 c=11 v=25
128032 Par ch=6 c=11 v=24
128036 Par ch=6 c=11 v=23
128040 Par ch=6 c=11 v=22
128040 On ch=6 n=55 v=95
128044 Par ch=6 c=11 v=21
128048 Par ch=6 c=11 v=20
128052 Par ch=6 c=11 v=19
128056 Par ch=6 c=11 v=18
128059 On ch=6 n=55 v=0
128060 Par ch=6 c=11 v=17
128064 On ch=6 n=60 v=95
128141 On ch=6 n=60 v=0
128208 Par ch=6 c=11 v=64
128208 On ch=6 n=55 v=47
128239 On ch=6 n=55 v=0
128256 On ch=6 n=60 v=47
128294 On ch=6 n=60 v=0
128856 On ch=6 n=60 v=47
128875 On ch=6 n=60 v=0
128880 On ch=6 n=62 v=47
128899 On ch=6 n=62 v=0
128904 On ch=6 n=63 v=47
128923 On ch=6 n=63 v=0
128928 On ch=6 n=65 v=47
128947 On ch=6 n=65 v=0
128952 On ch=6 n=67 v=47
128971 On ch=6 n=67 v=0
128976 On ch=6 n=69 v=47
128995 On ch=6 n=69 v=0
129000 On ch=6 n=71 v=47
129019 On ch=6 n=71 v=0
129024 On ch=6 n=72 v=47
129055 On ch=6 n=72 v=0
129096 On ch=6 n=67 v=47
129112 On ch=6 n=67 v=0
129120 On ch=6 n=60 v=47
129151 On ch=6 n=60 v=0
129360 On ch=6 n=67 v=47
129391 On ch=6 n=67 v=0
129408 On ch=6 n=72 v=47
129439 On ch=6 n=72 v=0
129480 On ch=6 n=67 v=47
129496 On ch=6 n=67 v=0
129504 On ch=6 n=72 v=47
129535 On ch=6 n=72 v=0
129576 On ch=6 n=67 v=47
129592 On ch=6 n=67 v=0
129600 On ch=6 n=72 v=47
129677 On ch=6 n=72 v=0
129744 On ch=6 n=67 v=47
129775 On ch=6 n=67 v=0
129792 On ch=6 n=72 v=47
129813 On ch=6 n=72 v=0
129824 On ch=6 n=71 v=47
129845 On ch=6 n=71 v=0
129856 On ch=6 n=72 v=47
129877 On ch=6 n=72 v=0
129888 On ch=6 n=74 v=47
129909 On ch=6 n=74 v=0
129920 On ch=6 n=72 v=47
129941 On ch=6 n=72 v=0
129952 On ch=6 n=71 v=47
129973 On ch=6 n=71 v=0
129984 On ch=6 n=72 v=43
130022 On ch=6 n=72 v=0
130056 On ch=6 n=67 v=40
130074 On ch=6 n=67 v=0
130080 On ch=6 n=68 v=37
130118 On ch=6 n=68 v=0
130152 On ch=6 n=66 v=34
130171 On ch=6 n=66 v=0
130176 On ch=6 n=67 v=31
130214 On ch=6 n=67 v=0
130248 On ch=6 n=63 v=31
130267 On ch=6 n=63 v=0
130272 On ch=6 n=67 v=31
130310 On ch=6 n=67 v=0
130344 On ch=6 n=63 v=31
130363 On ch=6 n=63 v=0
130368 On ch=6 n=67 v=31
130406 On ch=6 n=67 v=0
130440 On ch=6 n=63 v=31
130459 On ch=6 n=63 v=0
130464 On ch=6 n=65 v=31
130483 On ch=6 n=65 v=0
130488 On ch=6 n=63 v=31
130507 On ch=6 n=63 v=0
130512 On ch=6 n=62 v=31
130531 On ch=6 n=62 v=0
130536 On ch=6 n=63 v=31
130555 On ch=6 n=63 v=0
130560 On ch=6 n=67 v=31
130598 On ch=6 n=67 v=0
130632 On ch=6 n=63 v=31
130651 On ch=6 n=63 v=0
130656 On ch=6 n=67 v=31
130694 On ch=6 n=67 v=0
130728 On ch=6 n=63 v=31
130747 On ch=6 n=63 v=0
130752 On ch=6 n=67 v=31
130790 On ch=6 n=67 v=0
130824 On ch=6 n=63 v=31
130843 On ch=6 n=63 v=0
130848 On ch=6 n=68 v=31
130867 On ch=6 n=68 v=0
130872 On ch=6 n=67 v=31
130891 On ch=6 n=67 v=0
130896 On ch=6 n=65 v=31
130915 On ch=6 n=65 v=0
130920 On ch=6 n=63 v=31
130939 On ch=6 n=63 v=0
130944 On ch=6 n=67 v=31
130982 On ch=6 n=67 v=0
131016 On ch=6 n=62 v=31
131035 On ch=6 n=62 v=0
131040 On ch=6 n=55 v=31
131078 On ch=6 n=55 v=0
131168 On ch=6 n=65 v=31
131189 On ch=6 n=65 v=0
131200 On ch=6 n=67 v=31
131221 On ch=6 n=67 v=0
131232 On ch=6 n=68 v=31
131253 On ch=6 n=68 v=0
131264 On ch=6 n=65 v=31
131285 On ch=6 n=65 v=0
131296 On ch=6 n=74 v=31
131317 On ch=6 n=74 v=0
131328 On ch=6 n=67 v=31
131366 On ch=6 n=67 v=0
131400 On ch=6 n=62 v=31
131419 On ch=6 n=62 v=0
131424 On ch=6 n=55 v=31
131462 On ch=6 n=55 v=0
131552 On ch=6 n=65 v=31
131573 On ch=6 n=65 v=0
131584 On ch=6 n=67 v=31
131605 On ch=6 n=67 v=0
131616 On ch=6 n=68 v=31
131637 On ch=6 n=68 v=0
131648 On ch=6 n=65 v=31
131669 On ch=6 n=65 v=0
131680 On ch=6 n=74 v=31
131701 On ch=6 n=74 v=0
131712 On ch=6 n=67 v=31
131738 On ch=6 n=67 v=0
131744 On ch=6 n=63 v=31
131770 On ch=6 n=63 v=0
131776 On ch=6 n=72 v=31
131802 On ch=6 n=72 v=0
131808 On ch=6 n=65 v=31
131834 On ch=6 n=65 v=0
131840 On ch=6 n=62 v=31
131866 On ch=6 n=62 v=0
131872 On ch=6 n=70 v=31
131898 On ch=6 n=70 v=0
131904 On ch=6 n=63 v=31
131930 On ch=6 n=63 v=0
131936 On ch=6 n=60 v=31
131962 On ch=6 n=60 v=0
131968 On ch=6 n=68 v=31
131994 On ch=6 n=68 v=0
132000 On ch=6 n=62 v=31
132026 On ch=6 n=62 v=0
132032 On ch=6 n=55 v=31
132058 On ch=6 n=55 v=0
132064 On ch=6 n=67 v=31
132090 On ch=6 n=67 v=0
132096 On ch=6 n=68 v=31
132122 On ch=6 n=68 v=0
132128 On ch=6 n=65 v=31
132154 On ch=6 n=65 v=0
132160 On ch=6 n=74 v=31
132186 On ch=6 n=74 v=0
132192 On ch=6 n=67 v=31
132218 On ch=6 n=67 v=0
132224 On ch=6 n=63 v=31
132250 On ch=6 n=63 v=0
132256 On ch=6 n=72 v=31
132282 On ch=6 n=72 v=0
132288 On ch=6 n=65 v=31
132314 On ch=6 n=65 v=0
132320 On ch=6 n=62 v=31
132346 On ch=6 n=62 v=0
132352 On ch=6 n=70 v=31
132378 On ch=6 n=70 v=0
132384 On ch=6 n=63 v=31
132410 On ch=6 n=63 v=0
132416 On ch=6 n=60 v=31
132442 On ch=6 n=60 v=0
132448 On ch=6 n=68 v=31
132474 On ch=6 n=68 v=0
132480 On ch=6 n=67 v=31
132518 On ch=6 n=67 v=0
132552 On ch=6 n=62 v=31
132571 On ch=6 n=62 v=0
132576 On ch=6 n=55 v=31
132614 On ch=6 n=55 v=0
132720 On ch=6 n=62 v=31
132739 On ch=6 n=62 v=0
132744 On ch=6 n=63 v=31
132763 On ch=6 n=63 v=0
132768 On ch=6 n=65 v=31
132787 On ch=6 n=65 v=0
132792 On ch=6 n=63 v=31
132811 On ch=6 n=63 v=0
132816 On ch=6 n=65 v=31
132835 On ch=6 n=65 v=0
132840 On ch=6 n=62 v=31
132859 On ch=6 n=62 v=0
132864 On ch=6 n=67 v=31
132902 On ch=6 n=67 v=0
132936 On ch=6 n=62 v=31
132955 On ch=6 n=62 v=0
132960 On ch=6 n=55 v=31
132998 On ch=6 n=55 v=0
133200 On ch=6 n=55 v=31
133231 On ch=6 n=55 v=0
133248 Par ch=6 c=11 v=64
133248 On ch=6 n=60 v=31
133279 On ch=6 n=60 v=0
133288 Par ch=6 c=11 v=65
133320 On ch=6 n=55 v=31
133324 Par ch=6 c=11 v=66
133336 On ch=6 n=55 v=0
133344 On ch=6 n=60 v=31
133364 Par ch=6 c=11 v=67
133375 On ch=6 n=60 v=0
133400 Par ch=6 c=11 v=68
133416 On ch=6 n=55 v=31
133432 On ch=6 n=55 v=0
133440 Par ch=6 c=11 v=69
133440 On ch=6 n=60 v=31
133476 Par ch=6 c=11 v=70
133516 Par ch=6 c=11 v=71
133517 On ch=6 n=60 v=0
133552 Par ch=6 c=11 v=72
133584 On ch=6 n=55 v=31
133592 Par ch=6 c=11 v=73
133615 On ch=6 n=55 v=0
133628 Par ch=6 c=11 v=74
133632 On ch=6 n=60 v=31
133664 Par ch=6 c=11 v=75
133704 Par ch=6 c=11 v=76
133709 On ch=6 n=60 v=0
133740 Par ch=6 c=11 v=77
133776 On ch=6 n=55 v=31
133780 Par ch=6 c=11 v=78
133807 On ch=6 n=55 v=0
133816 Par ch=6 c=11 v=79
133824 On ch=6 n=60 v=31
133856 Par ch=6 c=11 v=80
133892 Par ch=6 c=11 v=81
133901 On ch=6 n=60 v=0
133932 Par ch=6 c=11 v=82
133968 Par ch=6 c=11 v=83
133968 On ch=6 n=55 v=31
133999 On ch=6 n=55 v=0
134008 Par ch=6 c=11 v=84
134016 On ch=6 n=60 v=31
134044 Par ch=6 c=11 v=85
134080 Par ch=6 c=11 v=86
134093 On ch=6 n=60 v=0
134120 Par ch=6 c=11 v=87
134156 Par ch=6 c=11 v=88
134160 On ch=6 n=55 v=31
134191 On ch=6 n=55 v=0
134196 Par ch=6 c=11 v=89
134208 On ch=6 n=60 v=31
134232 Par ch=6 c=11 v=90
134234 On ch=6 n=60 v=0
134240 On ch=6 n=55 v=31
134266 On ch=6 n=55 v=0
134272 Par ch=6 c=11 v=91
134272 On ch=6 n=60 v=31
134298 On ch=6 n=60 v=0
134304 On ch=6 n=55 v=31
134308 Par ch=6 c=11 v=92
134330 On ch=6 n=55 v=0
134336 On ch=6 n=60 v=31
134348 Par ch=6 c=11 v=93
134362 On ch=6 n=60 v=0
134368 On ch=6 n=55 v=31
134384 Par ch=6 c=11 v=94
134394 On ch=6 n=55 v=0
134400 On ch=6 n=60 v=31
134424 Par ch=6 c=11 v=95
134438 On ch=6 n=60 v=0
134460 Par ch=6 c=11 v=96
134472 On ch=6 n=67 v=31
134491 On ch=6 n=67 v=0
134496 On ch=6 n=72 v=31
134534 On ch=6 n=72 v=0
134640 Par ch=6 c=11 v=64
134640 On ch=6 n=70 v=63
134652 Par ch=6 c=11 v=65
134659 On ch=6 n=70 v=0
134660 Par ch=6 c=11 v=66
134664 On ch=6 n=68 v=63
134668 Par ch=6 c=11 v=67
134676 Par ch=6 c=11 v=68
134683 On ch=6 n=68 v=0
134684 Par ch=6 c=11 v=69
134688 On ch=6 n=67 v=63
134692 Par ch=6 c=11 v=70
134700 Par ch=6 c=11 v=71
134707 On ch=6 n=67 v=0
134708 Par ch=6 c=11 v=72
134712 On ch=6 n=65 v=63
134720 Par ch=6 c=11 v=73
134728 Par ch=6 c=11 v=74
134731 On ch=6 n=65 v=0
134736 Par ch=6 c=11 v=75
134736 On ch=6 n=63 v=63
134744 Par ch=6 c=11 v=76
134752 Par ch=6 c=11 v=77
134755 On ch=6 n=63 v=0
134760 Par ch=6 c=11 v=78
134760 On ch=6 n=62 v=63
134768 Par ch=6 c=11 v=79
134776 Par ch=6 c=11 v=80
134779 On ch=6 n=62 v=0
134784 Par ch=6 c=11 v=64
134784 On ch=6 n=60 v=79
134822 On ch=6 n=60 v=0
134856 On ch=6 n=55 v=79
134875 On ch=6 n=55 v=0
134880 On ch=6 n=60 v=79
134918 On ch=6 n=60 v=0
135008 Par ch=6 c=11 v=64
135008 On ch=6 n=55 v=79
135020 Par ch=6 c=11 v=65
135028 Par ch=6 c=11 v=66
135034 On ch=6 n=55 v=0
135040 Par ch=6 c=11 v=67
135040 On ch=6 n=60 v=79
135048 Par ch=6 c=11 v=68
135056 Par ch=6 c=11 v=69
135066 On ch=6 n=60 v=0
135068 Par ch=6 c=11 v=70
135072 On ch=6 n=55 v=79
135076 Par ch=6 c=11 v=71
135084 Par ch=6 c=11 v=72
135096 Par ch=6 c=11 v=73
135098 On ch=6 n=55 v=0
135104 Par ch=6 c=11 v=74
135104 On ch=6 n=60 v=79
135112 Par ch=6 c=11 v=75
135124 Par ch=6 c=11 v=76
135130 On ch=6 n=60 v=0
135132 Par ch=6 c=11 v=77
135136 On ch=6 n=55 v=79
135140 Par ch=6 c=11 v=78
135152 Par ch=6 c=11 v=79
135160 Par ch=6 c=11 v=80
135162 On ch=6 n=55 v=0
135168 Par ch=6 c=11 v=64
135168 On ch=6 n=60 v=95
135206 On ch=6 n=60 v=0
135240 On ch=6 n=67 v=95
135259 On ch=6 n=67 v=0
135264 On ch=6 n=72 v=95
135302 On ch=6 n=72 v=0
135392 Par ch=6 c=11 v=64
135392 On ch=6 n=67 v=95
135404 Par ch=6 c=11 v=65
135412 Par ch=6 c=11 v=66
135413 On ch=6 n=67 v=0
135424 Par ch=6 c=11 v=67
135424 On ch=6 n=72 v=95
135432 Par ch=6 c=11 v=68
135440 Par ch=6 c=11 v=69
135445 On ch=6 n=72 v=0
135452 Par ch=6 c=11 v=70
135456 On ch=6 n=79 v=95
135460 Par ch=6 c=11 v=71
135468 Par ch=6 c=11 v=72
135477 On ch=6 n=79 v=0
135480 Par ch=6 c=11 v=73
135488 Par ch=6 c=11 v=74
135488 On ch=6 n=82 v=95
135496 Par ch=6 c=11 v=75
135508 Par ch=6 c=11 v=76
135509 On ch=6 n=82 v=0
135516 Par ch=6 c=11 v=77
135520 On ch=6 n=85 v=95
135524 Par ch=6 c=11 v=78
135536 Par ch=6 c=11 v=79
135541 On ch=6 n=85 v=0
135544 Par ch=6 c=11 v=80
135552 Par ch=6 c=11 v=64
135552 On ch=6 n=84 v=111
135583 On ch=6 n=84 v=0
135624 On ch=6 n=82 v=111
135640 On ch=6 n=82 v=0
135648 On ch=6 n=80 v=111
135679 On ch=6 n=80 v=0
135720 On ch=6 n=79 v=111
135736 On ch=6 n=79 v=0
135744 On ch=6 n=77 v=111
135775 On ch=6 n=77 v=0
135816 On ch=6 n=75 v=111
135832 On ch=6 n=75 v=0
135840 On ch=6 n=73 v=111
135871 On ch=6 n=73 v=0
135912 On ch=6 n=72 v=111
135928 On ch=6 n=72 v=0
135936 On ch=6 n=80 v=111
135967 On ch=6 n=80 v=0
136008 On ch=6 n=79 v=111
136024 On ch=6 n=79 v=0
136032 On ch=6 n=77 v=111
136063 On ch=6 n=77 v=0
136104 On ch=6 n=75 v=111
136120 On ch=6 n=75 v=0
136128 On ch=6 n=73 v=111
136159 On ch=6 n=73 v=0
136200 On ch=6 n=72 v=111
136216 On ch=6 n=72 v=0
136224 On ch=6 n=70 v=111
136255 On ch=6 n=70 v=0
136296 On ch=6 n=68 v=111
136312 On ch=6 n=68 v=0
136320 On ch=6 n=67 v=111
136358 On ch=6 n=67 v=0
137088 Par ch=6 c=0 v=0
137088 Par ch=6 c=32 v=0
137088 PrCh ch=6 p=44
137088 Par ch=6 c=11 v=64
137088 On ch=6 n=60 v=127
137088 On ch=6 n=63 v=127
137096 Par ch=6 c=11 v=63
137104 Par ch=6 c=11 v=62
137112 Par ch=6 c=11 v=61
137120 Par ch=6 c=11 v=60
137128 Par ch=6 c=11 v=59
137136 Par ch=6 c=11 v=58
137144 Par ch=6 c=11 v=57
137152 Par ch=6 c=11 v=56
137160 Par ch=6 c=11 v=55
137168 Par ch=6 c=11 v=54
137176 Par ch=6 c=11 v=53
137184 Par ch=6 c=11 v=52
137192 Par ch=6 c=11 v=51
137200 Par ch=6 c=11 v=50
137208 Par ch=6 c=11 v=49
137216 Par ch=6 c=11 v=48
137224 Par ch=6 c=11 v=47
137232 Par ch=6 c=11 v=46
137240 Par ch=6 c=11 v=45
137248 Par ch=6 c=11 v=44
137256 Par ch=6 c=11 v=43
137264 Par ch=6 c=11 v=42
137272 Par ch=6 c=11 v=41
137280 Par ch=6 c=11 v=40
137284 Par ch=6 c=11 v=39
137292 Par ch=6 c=11 v=38
137300 Par ch=6 c=11 v=37
137308 Par ch=6 c=11 v=36
137316 Par ch=6 c=11 v=35
137324 Par ch=6 c=11 v=34
137332 Par ch=6 c=11 v=33
137340 Par ch=6 c=11 v=32
137348 Par ch=6 c=11 v=31
137356 Par ch=6 c=11 v=30
137364 Par ch=6 c=11 v=29
137372 Par ch=6 c=11 v=28
137380 Par ch=6 c=11 v=27
137388 Par ch=6 c=11 v=26
137395 On ch=6 n=63 v=0
137396 Par ch=6 c=11 v=25
137404 Par ch=6 c=11 v=24
137412 Par ch=6 c=11 v=23
137420 Par ch=6 c=11 v=22
137428 Par ch=6 c=11 v=21
137436 Par ch=6 c=11 v=20
137444 Par ch=6 c=11 v=19
137452 Par ch=6 c=11 v=18
137460 Par ch=6 c=11 v=17
137468 Par ch=6 c=11 v=16
138163 On ch=6 n=60 v=0
138240 On ch=6 n=63 v=127
138660 Par ch=6 c=11 v=16
138696 Par ch=6 c=11 v=15
138732 Par ch=6 c=11 v=14
138764 Par ch=6 c=11 v=13
138800 Par ch=6 c=11 v=12
138836 Par ch=6 c=11 v=11
138872 Par ch=6 c=11 v=10
138904 Par ch=6 c=11 v=9
138931 On ch=6 n=63 v=0
138940 Par ch=6 c=11 v=8
139200 Par ch=6 c=11 v=64
139200 Par ch=6 c=0 v=0
139200 Par ch=6 c=32 v=0
139200 PrCh ch=6 p=48
139200 On ch=6 n=71 v=31
139200 On ch=6 n=59 v=31
139354 On ch=6 n=59 v=0
139354 On ch=6 n=71 v=0
139392 Par ch=6 c=11 v=64
139392 On ch=6 n=76 v=31
139392 On ch=6 n=64 v=31
139416 Par ch=6 c=11 v=63
139440 Par ch=6 c=11 v=62
139460 Par ch=6 c=11 v=61
139469 On ch=6 n=64 v=0
139469 On ch=6 n=76 v=0
139484 Par ch=6 c=11 v=60
139488 On ch=6 n=78 v=31
139488 On ch=6 n=66 v=31
139508 Par ch=6 c=11 v=59
139528 Par ch=6 c=11 v=58
139552 Par ch=6 c=11 v=57
139565 On ch=6 n=66 v=0
139565 On ch=6 n=78 v=0
139576 Par ch=6 c=11 v=56
139584 On ch=6 n=80 v=31
139584 On ch=6 n=68 v=31
139596 Par ch=6 c=11 v=55
139620 Par ch=6 c=11 v=54
139644 Par ch=6 c=11 v=53
139661 On ch=6 n=68 v=0
139661 On ch=6 n=80 v=0
139664 Par ch=6 c=11 v=52
139680 On ch=6 n=66 v=31
139680 On ch=6 n=78 v=31
139688 Par ch=6 c=11 v=51
139712 Par ch=6 c=11 v=50
139732 Par ch=6 c=11 v=49
139756 Par ch=6 c=11 v=48
139757 On ch=6 n=78 v=0
139757 On ch=6 n=66 v=0
139776 On ch=6 n=76 v=31
139776 On ch=6 n=64 v=31
140160 Par ch=6 c=11 v=48
140184 Par ch=6 c=11 v=47
140204 Par ch=6 c=11 v=46
140224 Par ch=6 c=11 v=45
140248 Par ch=6 c=11 v=44
140268 Par ch=6 c=11 v=43
140288 Par ch=6 c=11 v=42
140312 Par ch=6 c=11 v=41
140332 Par ch=6 c=11 v=40
140352 Par ch=6 c=11 v=39
140376 Par ch=6 c=11 v=38
140396 Par ch=6 c=11 v=37
140416 Par ch=6 c=11 v=36
140440 Par ch=6 c=11 v=35
140460 Par ch=6 c=11 v=34
140480 Par ch=6 c=11 v=33
140504 Par ch=6 c=11 v=32
140621 On ch=6 n=64 v=0
140621 On ch=6 n=76 v=0
140928 Par ch=6 c=11 v=64
141312 Par ch=6 c=11 v=64
141312 On ch=6 n=85 v=31
141312 On ch=6 n=76 v=31
141324 Par ch=6 c=11 v=65
141332 Par ch=6 c=11 v=66
141340 Par ch=6 c=11 v=67
141348 Par ch=6 c=11 v=68
141356 Par ch=6 c=11 v=69
141364 Par ch=6 c=11 v=70
141372 Par ch=6 c=11 v=71
141380 Par ch=6 c=11 v=72
141392 Par ch=6 c=11 v=73
141400 Par ch=6 c=11 v=74
141408 Par ch=6 c=11 v=75
141416 Par ch=6 c=11 v=76
141424 Par ch=6 c=11 v=77
141432 Par ch=6 c=11 v=78
141440 Par ch=6 c=11 v=79
141448 Par ch=6 c=11 v=80
141456 Par ch=6 c=11 v=80
141468 Par ch=6 c=11 v=79
141476 Par ch=6 c=11 v=78
141484 Par ch=6 c=11 v=77
141492 Par ch=6 c=11 v=76
141504 Par ch=6 c=11 v=75
141512 Par ch=6 c=11 v=74
141520 Par ch=6 c=11 v=73
141528 Par ch=6 c=11 v=72
141540 Par ch=6 c=11 v=71
141542 On ch=6 n=76 v=0
141542 On ch=6 n=85 v=0
141548 Par ch=6 c=11 v=70
141556 Par ch=6 c=11 v=69
141564 Par ch=6 c=11 v=68
141576 Par ch=6 c=11 v=67
141584 Par ch=6 c=11 v=66
141592 Par ch=6 c=11 v=65
141600 Par ch=6 c=11 v=64
141600 On ch=6 n=83 v=31
141600 On ch=6 n=74 v=31
141677 On ch=6 n=74 v=0
141677 On ch=6 n=83 v=0
141696 Par ch=6 c=11 v=64
141696 On ch=6 n=76 v=31
141696 On ch=6 n=81 v=31
141704 Par ch=6 c=11 v=65
141708 Par ch=6 c=11 v=66
141716 Par ch=6 c=11 v=67
141720 Par ch=6 c=11 v=68
141728 Par ch=6 c=11 v=69
141732 Par ch=6 c=11 v=70
141736 Par ch=6 c=11 v=71
141744 Par ch=6 c=11 v=72
141748 Par ch=6 c=11 v=73
141756 Par ch=6 c=11 v=74
141760 Par ch=6 c=11 v=75
141764 Par ch=6 c=11 v=76
141772 Par ch=6 c=11 v=77
141776 Par ch=6 c=11 v=78
141784 Par ch=6 c=11 v=79
141788 Par ch=6 c=11 v=80
141792 Par ch=6 c=11 v=80
141800 Par ch=6 c=11 v=79
141804 Par ch=6 c=11 v=78
141812 Par ch=6 c=11 v=77
141816 Par ch=6 c=11 v=76
141824 Par ch=6 c=11 v=75
141828 Par ch=6 c=11 v=74
141836 Par ch=6 c=11 v=73
141840 Par ch=6 c=11 v=72
141848 Par ch=6 c=11 v=71
141850 On ch=6 n=81 v=0
141850 On ch=6 n=76 v=0
141852 Par ch=6 c=11 v=70
141860 Par ch=6 c=11 v=69
141864 Par ch=6 c=11 v=68
141872 Par ch=6 c=11 v=67
141876 Par ch=6 c=11 v=66
141884 Par ch=6 c=11 v=65
141888 Par ch=6 c=11 v=64
141888 On ch=6 n=76 v=31
141888 On ch=6 n=74 v=31
141965 On ch=6 n=74 v=0
141965 On ch=6 n=76 v=0
141984 On ch=6 n=76 v=31
141984 On ch=6 n=73 v=31
142061 On ch=6 n=73 v=0
142061 On ch=6 n=76 v=0
142080 On ch=6 n=83 v=31
142080 On ch=6 n=71 v=31
142771 On ch=6 n=71 v=0
142771 On ch=6 n=83 v=0
142848 Par ch=6 c=11 v=64
142848 On ch=6 n=76 v=47
142860 Par ch=6 c=11 v=65
142868 Par ch=6 c=11 v=66
142876 Par ch=6 c=11 v=67
142884 Par ch=6 c=11 v=68
142892 Par ch=6 c=11 v=69
142900 Par ch=6 c=11 v=70
142908 Par ch=6 c=11 v=71
142916 Par ch=6 c=11 v=72
142928 Par ch=6 c=11 v=73
142936 Par ch=6 c=11 v=74
142944 Par ch=6 c=11 v=75
142952 Par ch=6 c=11 v=76
142960 Par ch=6 c=11 v=77
142968 Par ch=6 c=11 v=78
142976 Par ch=6 c=11 v=79
142984 Par ch=6 c=11 v=80
142992 Par ch=6 c=11 v=80
143004 Par ch=6 c=11 v=79
143012 Par ch=6 c=11 v=78
143020 Par ch=6 c=11 v=77
143028 Par ch=6 c=11 v=76
143040 Par ch=6 c=11 v=75
143048 Par ch=6 c=11 v=74
143056 Par ch=6 c=11 v=73
143064 Par ch=6 c=11 v=72
143076 Par ch=6 c=11 v=71
143078 On ch=6 n=76 v=0
143084 Par ch=6 c=11 v=70
143092 Par ch=6 c=11 v=69
143100 Par ch=6 c=11 v=68
143112 Par ch=6 c=11 v=67
143120 Par ch=6 c=11 v=66
143128 Par ch=6 c=11 v=65
143136 Par ch=6 c=11 v=64
143136 On ch=6 n=75 v=47
143184 On ch=6 n=75 v=0
143184 On ch=6 n=73 v=47
143222 On ch=6 n=73 v=0
143232 Par ch=6 c=11 v=64
143232 On ch=6 n=75 v=47
143244 Par ch=6 c=11 v=65
143252 Par ch=6 c=11 v=66
143260 Par ch=6 c=11 v=67
143268 Par ch=6 c=11 v=68
143276 Par ch=6 c=11 v=69
143284 Par ch=6 c=11 v=70
143292 Par ch=6 c=11 v=71
143300 Par ch=6 c=11 v=72
143312 Par ch=6 c=11 v=73
143320 Par ch=6 c=11 v=74
143328 Par ch=6 c=11 v=75
143336 Par ch=6 c=11 v=76
143344 Par ch=6 c=11 v=77
143352 Par ch=6 c=11 v=78
143360 Par ch=6 c=11 v=79
143368 Par ch=6 c=11 v=80
143376 Par ch=6 c=11 v=80
143388 Par ch=6 c=11 v=79
143396 Par ch=6 c=11 v=78
143404 Par ch=6 c=11 v=77
143412 Par ch=6 c=11 v=76
143424 Par ch=6 c=11 v=75
143432 Par ch=6 c=11 v=74
143440 Par ch=6 c=11 v=73
143448 Par ch=6 c=11 v=72
143460 Par ch=6 c=11 v=71
143462 On ch=6 n=75 v=0
143468 Par ch=6 c=11 v=70
143476 Par ch=6 c=11 v=69
143484 Par ch=6 c=11 v=68
143496 Par ch=6 c=11 v=67
143504 Par ch=6 c=11 v=66
143512 Par ch=6 c=11 v=65
143520 Par ch=6 c=11 v=64
143520 On ch=6 n=73 v=47
143568 On ch=6 n=73 v=0
143568 On ch=6 n=71 v=47
143606 On ch=6 n=71 v=0
143616 On ch=6 n=73 v=47
143770 On ch=6 n=73 v=0
143808 On ch=6 n=71 v=47
143923 On ch=6 n=71 v=0
143952 On ch=6 n=68 v=47
143990 On ch=6 n=68 v=0
144000 Par ch=6 c=11 v=64
144000 On ch=6 n=71 v=47
144004 Par ch=6 c=11 v=65
144008 Par ch=6 c=11 v=66
144012 Par ch=6 c=11 v=68
144016 Par ch=6 c=11 v=69
144020 Par ch=6 c=11 v=71
144024 Par ch=6 c=11 v=72
144028 Par ch=6 c=11 v=73
144032 Par ch=6 c=11 v=75
144036 Par ch=6 c=11 v=76
144040 Par ch=6 c=11 v=78
144044 Par ch=6 c=11 v=79
144048 Par ch=6 c=11 v=80
144052 Par ch=6 c=11 v=79
144056 Par ch=6 c=11 v=78
144060 Par ch=6 c=11 v=76
144064 Par ch=6 c=11 v=75
144068 Par ch=6 c=11 v=74
144072 Par ch=6 c=11 v=72
144076 Par ch=6 c=11 v=71
144080 Par ch=6 c=11 v=70
144084 Par ch=6 c=11 v=68
144088 Par ch=6 c=11 v=67
144092 Par ch=6 c=11 v=66
144096 On ch=6 n=71 v=0
144096 Par ch=6 c=11 v=64
144096 On ch=6 n=66 v=47
144288 On ch=6 n=66 v=0
144288 On ch=6 n=68 v=47
144365 On ch=6 n=68 v=0
144384 Par ch=6 c=11 v=64
144384 On ch=6 n=71 v=47
144388 Par ch=6 c=11 v=65
144392 Par ch=6 c=11 v=66
144396 Par ch=6 c=11 v=68
144400 Par ch=6 c=11 v=69
144404 Par ch=6 c=11 v=71
144408 Par ch=6 c=11 v=72
144412 Par ch=6 c=11 v=73
144416 Par ch=6 c=11 v=75
144420 Par ch=6 c=11 v=76
144424 Par ch=6 c=11 v=78
144428 Par ch=6 c=11 v=79
144432 Par ch=6 c=11 v=80
144436 Par ch=6 c=11 v=79
144440 Par ch=6 c=11 v=78
144444 Par ch=6 c=11 v=76
144448 Par ch=6 c=11 v=75
144452 Par ch=6 c=11 v=74
144456 Par ch=6 c=11 v=72
144460 Par ch=6 c=11 v=71
144464 Par ch=6 c=11 v=70
144468 Par ch=6 c=11 v=68
144472 Par ch=6 c=11 v=67
144476 Par ch=6 c=11 v=66
144480 On ch=6 n=71 v=0
144480 Par ch=6 c=11 v=64
144480 On ch=6 n=66 v=47
144672 On ch=6 n=66 v=0
144672 On ch=6 n=68 v=47
144749 On ch=6 n=68 v=0
144768 Par ch=6 c=11 v=64
144768 On ch=6 n=64 v=47
144776 Par ch=6 c=11 v=65
144780 Par ch=6 c=11 v=66
144788 Par ch=6 c=11 v=67
144792 Par ch=6 c=11 v=68
144800 Par ch=6 c=11 v=69
144804 Par ch=6 c=11 v=70
144808 Par ch=6 c=11 v=71
144816 Par ch=6 c=11 v=72
144820 Par ch=6 c=11 v=73
144828 Par ch=6 c=11 v=74
144832 Par ch=6 c=11 v=75
144836 Par ch=6 c=11 v=76
144844 Par ch=6 c=11 v=77
144848 Par ch=6 c=11 v=78
144856 Par ch=6 c=11 v=79
144860 Par ch=6 c=11 v=80
144864 On ch=6 n=64 v=0
144864 Par ch=6 c=11 v=80
144864 On ch=6 n=69 v=47
144876 Par ch=6 c=11 v=79
144888 Par ch=6 c=11 v=78
144900 Par ch=6 c=11 v=77
144912 Par ch=6 c=11 v=76
144924 Par ch=6 c=11 v=75
144936 Par ch=6 c=11 v=74
144948 Par ch=6 c=11 v=73
144960 Par ch=6 c=11 v=72
144972 Par ch=6 c=11 v=71
144984 Par ch=6 c=11 v=70
144996 Par ch=6 c=11 v=69
145008 Par ch=6 c=11 v=68
145020 Par ch=6 c=11 v=67
145032 Par ch=6 c=11 v=66
145044 Par ch=6 c=11 v=65
145056 On ch=6 n=69 v=0
145056 Par ch=6 c=11 v=64
145056 On ch=6 n=68 v=47
145133 On ch=6 n=68 v=0
145152 Par ch=6 c=11 v=64
145152 On ch=6 n=64 v=47
145160 Par ch=6 c=11 v=65
145164 Par ch=6 c=11 v=66
145172 Par ch=6 c=11 v=67
145176 Par ch=6 c=11 v=68
145184 Par ch=6 c=11 v=69
145188 Par ch=6 c=11 v=70
145192 Par ch=6 c=11 v=71
145200 Par ch=6 c=11 v=72
145204 Par ch=6 c=11 v=73
145212 Par ch=6 c=11 v=74
145216 Par ch=6 c=11 v=75
145220 Par ch=6 c=11 v=76
145228 Par ch=6 c=11 v=77
145232 Par ch=6 c=11 v=78
145240 Par ch=6 c=11 v=79
145244 Par ch=6 c=11 v=80
145248 On ch=6 n=64 v=0
145248 Par ch=6 c=11 v=80
145248 On ch=6 n=68 v=47
145260 Par ch=6 c=11 v=79
145272 Par ch=6 c=11 v=78
145284 Par ch=6 c=11 v=77
145296 Par ch=6 c=11 v=76
145308 Par ch=6 c=11 v=75
145320 Par ch=6 c=11 v=74
145332 Par ch=6 c=11 v=73
145344 Par ch=6 c=11 v=72
145356 Par ch=6 c=11 v=71
145368 Par ch=6 c=11 v=70
145380 Par ch=6 c=11 v=69
145392 Par ch=6 c=11 v=68
145404 Par ch=6 c=11 v=67
145416 Par ch=6 c=11 v=66
145428 Par ch=6 c=11 v=65
145440 On ch=6 n=68 v=0
145440 Par ch=6 c=11 v=64
145440 On ch=6 n=66 v=47
145690 On ch=6 n=66 v=0
145728 On ch=6 n=64 v=47
146611 On ch=6 n=64 v=0
146688 Par ch=6 c=11 v=64
146688 On ch=6 n=64 v=47
146696 Par ch=6 c=11 v=65
146700 Par ch=6 c=11 v=66
146708 Par ch=6 c=11 v=67
146712 Par ch=6 c=11 v=68
146720 Par ch=6 c=11 v=69
146724 Par ch=6 c=11 v=70
146728 Par ch=6 c=11 v=71
146736 Par ch=6 c=11 v=72
146740 Par ch=6 c=11 v=73
146748 Par ch=6 c=11 v=74
146752 Par ch=6 c=11 v=75
146756 Par ch=6 c=11 v=76
146764 Par ch=6 c=11 v=77
146768 Par ch=6 c=11 v=78
146776 Par ch=6 c=11 v=79
146780 Par ch=6 c=11 v=80
146784 On ch=6 n=64 v=0
146784 Par ch=6 c=11 v=80
146784 On ch=6 n=63 v=47
146796 Par ch=6 c=11 v=79
146808 Par ch=6 c=11 v=78
146820 Par ch=6 c=11 v=77
146832 Par ch=6 c=11 v=76
146844 Par ch=6 c=11 v=75
146856 Par ch=6 c=11 v=74
146868 Par ch=6 c=11 v=73
146880 Par ch=6 c=11 v=72
146892 Par ch=6 c=11 v=71
146904 Par ch=6 c=11 v=70
146916 Par ch=6 c=11 v=69
146928 Par ch=6 c=11 v=68
146940 Par ch=6 c=11 v=67
146952 Par ch=6 c=11 v=66
146964 Par ch=6 c=11 v=65
146976 On ch=6 n=63 v=0
146976 Par ch=6 c=11 v=64
146976 On ch=6 n=62 v=47
146984 Par ch=6 c=11 v=65
146988 Par ch=6 c=11 v=66
146996 Par ch=6 c=11 v=67
147000 Par ch=6 c=11 v=68
147008 Par ch=6 c=11 v=69
147012 Par ch=6 c=11 v=70
147016 Par ch=6 c=11 v=71
147024 Par ch=6 c=11 v=72
147028 Par ch=6 c=11 v=73
147036 Par ch=6 c=11 v=74
147040 Par ch=6 c=11 v=75
147044 Par ch=6 c=11 v=76
147052 Par ch=6 c=11 v=77
147053 On ch=6 n=62 v=0
147056 Par ch=6 c=11 v=78
147064 Par ch=6 c=11 v=79
147068 Par ch=6 c=11 v=80
147072 Par ch=6 c=11 v=80
147072 On ch=6 n=63 v=47
147080 Par ch=6 c=11 v=79
147084 Par ch=6 c=11 v=78
147092 Par ch=6 c=11 v=77
147096 Par ch=6 c=11 v=76
147104 Par ch=6 c=11 v=75
147108 Par ch=6 c=11 v=74
147116 Par ch=6 c=11 v=73
147120 Par ch=6 c=11 v=72
147128 Par ch=6 c=11 v=71
147132 Par ch=6 c=11 v=70
147140 Par ch=6 c=11 v=69
147144 Par ch=6 c=11 v=68
147152 Par ch=6 c=11 v=67
147156 Par ch=6 c=11 v=66
147164 Par ch=6 c=11 v=65
147168 On ch=6 n=63 v=0
147168 Par ch=6 c=11 v=64
147168 On ch=6 n=61 v=47
147264 On ch=6 n=61 v=0
147264 On ch=6 n=60 v=47
147360 On ch=6 n=60 v=0
147360 On ch=6 n=59 v=47
147494 On ch=6 n=59 v=0
153216 On ch=6 n=72 v=8
153247 On ch=6 n=72 v=0
153288 On ch=6 n=67 v=8
153304 On ch=6 n=67 v=0
153312 On ch=6 n=60 v=8
153343 On ch=6 n=60 v=0
153600 On ch=6 n=72 v=8
153631 On ch=6 n=72 v=0
153672 On ch=6 n=67 v=8
153688 On ch=6 n=67 v=0
153696 On ch=6 n=60 v=8
153727 On ch=6 n=60 v=0
153856 On ch=6 n=72 v=8
153877 On ch=6 n=72 v=0
153888 On ch=6 n=74 v=8
153909 On ch=6 n=74 v=0
153920 On ch=6 n=72 v=8
153941 On ch=6 n=72 v=0
153952 On ch=6 n=71 v=8
153973 On ch=6 n=71 v=0
153984 On ch=6 n=72 v=8
154015 On ch=6 n=72 v=0
154056 On ch=6 n=67 v=8
154072 On ch=6 n=67 v=0
154080 On ch=6 n=60 v=8
154111 On ch=6 n=60 v=0
154320 On ch=6 n=67 v=8
154351 On ch=6 n=67 v=0
154368 On ch=6 n=72 v=8
154389 On ch=6 n=72 v=0
154400 On ch=6 n=71 v=8
154421 On ch=6 n=71 v=0
154432 On ch=6 n=72 v=8
154453 On ch=6 n=72 v=0
154464 On ch=6 n=74 v=8
154485 On ch=6 n=74 v=0
154496 On ch=6 n=72 v=8
154517 On ch=6 n=72 v=0
154528 On ch=6 n=71 v=8
154549 On ch=6 n=71 v=0
154560 On ch=6 n=72 v=8
154591 On ch=6 n=72 v=0
154632 On ch=6 n=67 v=8
154648 On ch=6 n=67 v=0
154656 On ch=6 n=68 v=8
154687 On ch=6 n=68 v=0
154728 On ch=6 n=65 v=8
154744 On ch=6 n=65 v=0
154752 On ch=6 n=67 v=8
154783 On ch=6 n=67 v=0
154824 On ch=6 n=60 v=8
154840 On ch=6 n=60 v=0
154848 On ch=6 n=67 v=8
154879 On ch=6 n=67 v=0
154920 On ch=6 n=60 v=8
154936 On ch=6 n=60 v=0
154944 On ch=6 n=67 v=8
154975 On ch=6 n=67 v=0
155016 On ch=6 n=60 v=8
155032 On ch=6 n=60 v=0
155040 On ch=6 n=68 v=8
155064 On ch=6 n=68 v=0
155064 On ch=6 n=67 v=8
155088 On ch=6 n=67 v=0
155088 On ch=6 n=65 v=8
155112 On ch=6 n=65 v=0
155112 On ch=6 n=63 v=8
155131 On ch=6 n=63 v=0
155136 On ch=6 n=65 v=15
155290 On ch=6 n=65 v=0
155328 On ch=6 n=74 v=15
155472 On ch=6 n=74 v=0
155472 On ch=6 n=72 v=15
155503 On ch=6 n=72 v=0
155520 On ch=6 n=65 v=31
155674 On ch=6 n=65 v=0
155712 On ch=6 n=74 v=31
155856 On ch=6 n=74 v=0
155856 On ch=6 n=72 v=31
155887 On ch=6 n=72 v=0
155904 On ch=6 n=67 v=31
155925 On ch=6 n=67 v=0
155936 On ch=6 n=63 v=31
155957 On ch=6 n=63 v=0
155968 On ch=6 n=72 v=31
155989 On ch=6 n=72 v=0
156000 On ch=6 n=65 v=31
156021 On ch=6 n=65 v=0
156032 On ch=6 n=62 v=31
156053 On ch=6 n=62 v=0
156064 On ch=6 n=70 v=31
156085 On ch=6 n=70 v=0
156096 On ch=6 n=63 v=31
156117 On ch=6 n=63 v=0
156128 On ch=6 n=60 v=31
156149 On ch=6 n=60 v=0
156160 On ch=6 n=68 v=31
156181 On ch=6 n=68 v=0
156192 On ch=6 n=62 v=31
156213 On ch=6 n=62 v=0
156224 On ch=6 n=55 v=31
156245 On ch=6 n=55 v=0
156256 On ch=6 n=67 v=31
156277 On ch=6 n=67 v=0
156288 On ch=6 n=68 v=31
156314 On ch=6 n=68 v=0
156320 On ch=6 n=65 v=31
156346 On ch=6 n=65 v=0
156352 On ch=6 n=72 v=31
156378 On ch=6 n=72 v=0
156384 On ch=6 n=67 v=31
156410 On ch=6 n=67 v=0
156416 On ch=6 n=63 v=31
156442 On ch=6 n=63 v=0
156448 On ch=6 n=70 v=31
156474 On ch=6 n=70 v=0
156480 On ch=6 n=65 v=31
156506 On ch=6 n=65 v=0
156512 On ch=6 n=62 v=31
156538 On ch=6 n=62 v=0
156544 On ch=6 n=68 v=31
156570 On ch=6 n=68 v=0
156576 On ch=6 n=63 v=31
156602 On ch=6 n=63 v=0
156608 On ch=6 n=60 v=31
156634 On ch=6 n=60 v=0
156640 On ch=6 n=68 v=31
156666 On ch=6 n=68 v=0
156672 On ch=6 n=67 v=31
156710 On ch=6 n=67 v=0
156744 On ch=6 n=62 v=31
156763 On ch=6 n=62 v=0
156768 On ch=6 n=55 v=31
156806 On ch=6 n=55 v=0
156912 On ch=6 n=62 v=31
156931 On ch=6 n=62 v=0
156936 On ch=6 n=63 v=31
156955 On ch=6 n=63 v=0
156960 On ch=6 n=65 v=31
156979 On ch=6 n=65 v=0
156984 On ch=6 n=63 v=31
157003 On ch=6 n=63 v=0
157008 On ch=6 n=65 v=31
157027 On ch=6 n=65 v=0
157032 On ch=6 n=62 v=31
157051 On ch=6 n=62 v=0
157056 On ch=6 n=67 v=31
157094 On ch=6 n=67 v=0
157128 On ch=6 n=62 v=31
157147 On ch=6 n=62 v=0
157152 On ch=6 n=55 v=31
157190 On ch=6 n=55 v=0
157312 On ch=6 n=55 v=31
157333 On ch=6 n=55 v=0
157344 On ch=6 n=62 v=31
157365 On ch=6 n=62 v=0
157376 On ch=6 n=65 v=31
157397 On ch=6 n=65 v=0
157408 On ch=6 n=68 v=31
157429 On ch=6 n=68 v=0
157440 On ch=6 n=67 v=31
157478 On ch=6 n=67 v=0
157512 On ch=6 n=62 v=31
157531 On ch=6 n=62 v=0
157536 On ch=6 n=55 v=31
157574 On ch=6 n=55 v=0
157608 On ch=6 n=62 v=31
157627 On ch=6 n=62 v=0
157632 On ch=6 n=67 v=31
157670 On ch=6 n=67 v=0
157704 On ch=6 n=55 v=31
157723 On ch=6 n=55 v=0
157728 On ch=6 n=62 v=31
157749 On ch=6 n=62 v=0
157760 On ch=6 n=65 v=31
157781 On ch=6 n=65 v=0
157792 On ch=6 n=68 v=31
157813 On ch=6 n=68 v=0
157824 On ch=6 n=67 v=31
157845 On ch=6 n=67 v=0
157888 On ch=6 n=55 v=31
157909 On ch=6 n=55 v=0
157920 On ch=6 n=62 v=31
157941 On ch=6 n=62 v=0
157952 On ch=6 n=65 v=31
157973 On ch=6 n=65 v=0
157984 On ch=6 n=68 v=31
158005 On ch=6 n=68 v=0
158016 On ch=6 n=67 v=31
158037 On ch=6 n=67 v=0
158048 On ch=6 n=55 v=31
158069 On ch=6 n=55 v=0
158080 On ch=6 n=62 v=31
158101 On ch=6 n=62 v=0
158112 On ch=6 n=65 v=31
158133 On ch=6 n=65 v=0
158144 On ch=6 n=68 v=31
158165 On ch=6 n=68 v=0
158176 On ch=6 n=75 v=31
158197 On ch=6 n=75 v=0
158208 Par ch=6 c=11 v=64
158208 On ch=6 n=73 v=31
158246 On ch=6 n=73 v=0
158280 On ch=6 n=70 v=31
158299 On ch=6 n=70 v=0
158300 Par ch=6 c=11 v=65
158304 On ch=6 n=60 v=31
158342 On ch=6 n=60 v=0
158392 Par ch=6 c=11 v=66
158464 On ch=6 n=60 v=31
158480 Par ch=6 c=11 v=67
158490 On ch=6 n=60 v=0
158496 On ch=6 n=67 v=31
158522 On ch=6 n=67 v=0
158528 On ch=6 n=70 v=31
158554 On ch=6 n=70 v=0
158560 On ch=6 n=75 v=31
158572 Par ch=6 c=11 v=68
158586 On ch=6 n=75 v=0
158592 On ch=6 n=73 v=31
158630 On ch=6 n=73 v=0
158660 Par ch=6 c=11 v=69
158664 On ch=6 n=70 v=31
158683 On ch=6 n=70 v=0
158688 On ch=6 n=60 v=31
158726 On ch=6 n=60 v=0
158752 Par ch=6 c=11 v=70
158816 On ch=6 n=60 v=31
158842 On ch=6 n=60 v=0
158844 Par ch=6 c=11 v=71
158848 On ch=6 n=67 v=31
158874 On ch=6 n=67 v=0
158880 On ch=6 n=70 v=31
158906 On ch=6 n=70 v=0
158912 On ch=6 n=73 v=31
158932 Par ch=6 c=11 v=72
158938 On ch=6 n=73 v=0
158944 On ch=6 n=79 v=31
158970 On ch=6 n=79 v=0
158976 On ch=6 n=78 v=31
159014 On ch=6 n=78 v=0
159024 Par ch=6 c=11 v=73
159048 On ch=6 n=72 v=31
159067 On ch=6 n=72 v=0
159072 On ch=6 n=60 v=31
159110 On ch=6 n=60 v=0
159112 Par ch=6 c=11 v=74
159204 Par ch=6 c=11 v=75
159232 On ch=6 n=69 v=31
159258 On ch=6 n=69 v=0
159264 On ch=6 n=72 v=31
159290 On ch=6 n=72 v=0
159296 Par ch=6 c=11 v=76
159296 On ch=6 n=75 v=31
159322 On ch=6 n=75 v=0
159328 On ch=6 n=79 v=31
159354 On ch=6 n=79 v=0
159360 On ch=6 n=78 v=31
159384 Par ch=6 c=11 v=77
159398 On ch=6 n=78 v=0
159432 On ch=6 n=72 v=31
159451 On ch=6 n=72 v=0
159456 On ch=6 n=60 v=31
159476 Par ch=6 c=11 v=78
159494 On ch=6 n=60 v=0
159564 Par ch=6 c=11 v=79
159616 On ch=6 n=69 v=31
159642 On ch=6 n=69 v=0
159648 On ch=6 n=72 v=31
159656 Par ch=6 c=11 v=80
159674 On ch=6 n=72 v=0
159680 On ch=6 n=75 v=31
159706 On ch=6 n=75 v=0
159712 On ch=6 n=79 v=31
159738 On ch=6 n=79 v=0
159744 Par ch=6 c=11 v=80
159744 On ch=6 n=80 v=31
159768 Par ch=6 c=11 v=81
159770 On ch=6 n=80 v=0
159792 Par ch=6 c=11 v=82
159808 On ch=6 n=60 v=31
159812 Par ch=6 c=11 v=83
159834 On ch=6 n=60 v=0
159836 Par ch=6 c=11 v=84
159840 On ch=6 n=65 v=31
159860 Par ch=6 c=11 v=85
159866 On ch=6 n=65 v=0
159872 On ch=6 n=71 v=31
159880 Par ch=6 c=11 v=86
159898 On ch=6 n=71 v=0
159904 Par ch=6 c=11 v=87
159904 On ch=6 n=74 v=31
159928 Par ch=6 c=11 v=88
159930 On ch=6 n=74 v=0
159936 On ch=6 n=80 v=31
159948 Par ch=6 c=11 v=89
159962 On ch=6 n=80 v=0
159972 Par ch=6 c=11 v=90
159996 Par ch=6 c=11 v=91
160000 On ch=6 n=60 v=31
160016 Par ch=6 c=11 v=92
160026 On ch=6 n=60 v=0
160032 On ch=6 n=65 v=31
160040 Par ch=6 c=11 v=93
160058 On ch=6 n=65 v=0
160064 Par ch=6 c=11 v=94
160064 On ch=6 n=71 v=31
160084 Par ch=6 c=11 v=95
160090 On ch=6 n=71 v=0
160096 On ch=6 n=74 v=31
160108 Par ch=6 c=11 v=96
160122 On ch=6 n=74 v=0
160128 On ch=6 n=80 v=31
160140 Par ch=6 c=11 v=96
160152 Par ch=6 c=11 v=97
160154 On ch=6 n=80 v=0
160164 Par ch=6 c=11 v=98
160176 Par ch=6 c=11 v=99
160188 Par ch=6 c=11 v=100
160192 On ch=6 n=60 v=31
160200 Par ch=6 c=11 v=101
160212 Par ch=6 c=11 v=102
160218 On ch=6 n=60 v=0
160224 Par ch=6 c=11 v=103
160224 On ch=6 n=65 v=31
160236 Par ch=6 c=11 v=104
160248 Par ch=6 c=11 v=105
160250 On ch=6 n=65 v=0
160256 On ch=6 n=71 v=31
160260 Par ch=6 c=11 v=106
160272 Par ch=6 c=11 v=107
160282 On ch=6 n=71 v=0
160284 Par ch=6 c=11 v=108
160288 On ch=6 n=74 v=31
160296 Par ch=6 c=11 v=109
160308 Par ch=6 c=11 v=110
160314 On ch=6 n=74 v=0
160320 Par ch=6 c=11 v=111
160320 On ch=6 n=80 v=31
160332 Par ch=6 c=11 v=112
160344 Par ch=6 c=11 v=113
160346 On ch=6 n=80 v=0
160356 Par ch=6 c=11 v=114
160368 Par ch=6 c=11 v=115
160380 Par ch=6 c=11 v=116
160384 On ch=6 n=60 v=31
160392 Par ch=6 c=11 v=117
160404 Par ch=6 c=11 v=118
160410 On ch=6 n=60 v=0
160416 Par ch=6 c=11 v=119
160416 On ch=6 n=65 v=31
160428 Par ch=6 c=11 v=120
160440 Par ch=6 c=11 v=121
160442 On ch=6 n=65 v=0
160448 On ch=6 n=71 v=31
160452 Par ch=6 c=11 v=122
160464 Par ch=6 c=11 v=123
160474 On ch=6 n=71 v=0
160476 Par ch=6 c=11 v=124
160480 On ch=6 n=74 v=31
160488 Par ch=6 c=11 v=125
160500 Par ch=6 c=11 v=126
160506 On ch=6 n=74 v=0
160512 Par ch=6 c=11 v=64
160512 On ch=6 n=79 v=111
160543 On ch=6 n=79 v=0
160584 On ch=6 n=72 v=111
160608 On ch=6 n=72 v=0
160608 On ch=6 n=60 v=111
160639 On ch=6 n=60 v=0
160704 On ch=6 n=75 v=95
160735 On ch=6 n=75 v=0
160776 On ch=6 n=72 v=95
160800 On ch=6 n=72 v=0
160800 On ch=6 n=60 v=95
160831 On ch=6 n=60 v=0
160896 On ch=6 n=72 v=79
160927 On ch=6 n=72 v=0
160968 On ch=6 n=67 v=79
160992 On ch=6 n=67 v=0
160992 On ch=6 n=60 v=79
161023 On ch=6 n=60 v=0
161280 On ch=6 n=67 v=31
161357 On ch=6 n=67 v=0
161376 On ch=6 n=72 v=31
161407 On ch=6 n=72 v=0
161448 On ch=6 n=68 v=31
161464 On ch=6 n=68 v=0
161472 On ch=6 n=67 v=31
161549 On ch=6 n=67 v=0
161568 On ch=6 n=63 v=31
161589 On ch=6 n=63 v=0
161600 On ch=6 n=62 v=31
161621 On ch=6 n=62 v=0
161632 On ch=6 n=60 v=31
161653 On ch=6 n=60 v=0
161664 On ch=6 n=67 v=31
161741 On ch=6 n=67 v=0
161760 On ch=6 n=60 v=31
161781 On ch=6 n=60 v=0
161792 On ch=6 n=58 v=31
161813 On ch=6 n=58 v=0
161824 On ch=6 n=56 v=31
161845 On ch=6 n=56 v=0
161856 On ch=6 n=63 v=15
161933 On ch=6 n=63 v=0
165600 On ch=6 n=67 v=31
165792 On ch=6 n=67 v=0
165792 On ch=6 n=70 v=31
165840 On ch=6 n=70 v=0
165840 On ch=6 n=73 v=31
165888 On ch=6 n=73 v=0
165888 Par ch=6 c=11 v=64
165888 On ch=6 n=72 v=31
165908 Par ch=6 c=11 v=63
165924 Par ch=6 c=11 v=62
165944 Par ch=6 c=11 v=61
165960 Par ch=6 c=11 v=60
165980 Par ch=6 c=11 v=59
165996 Par ch=6 c=11 v=58
166016 Par ch=6 c=11 v=57
166032 Par ch=6 c=11 v=56
166052 Par ch=6 c=11 v=55
166068 Par ch=6 c=11 v=54
166088 Par ch=6 c=11 v=53
166104 Par ch=6 c=11 v=52
166118 On ch=6 n=72 v=0
166124 Par ch=6 c=11 v=51
166140 Par ch=6 c=11 v=50
166160 Par ch=6 c=11 v=49
166176 Par ch=6 c=11 v=48
166176 On ch=6 n=74 v=31
166202 On ch=6 n=74 v=0
166208 On ch=6 n=77 v=31
166234 On ch=6 n=77 v=0
166240 On ch=6 n=80 v=31
166266 On ch=6 n=80 v=0
166272 On ch=6 n=79 v=31
166349 On ch=6 n=79 v=0
166656 Par ch=6 c=11 v=64
169344 On ch=6 n=84 v=111
169357 On ch=6 n=84 v=0
169376 On ch=6 n=83 v=111
169389 On ch=6 n=83 v=0
169408 On ch=6 n=82 v=111
169421 On ch=6 n=82 v=0
169440 On ch=6 n=81 v=111
169453 On ch=6 n=81 v=0
169472 On ch=6 n=80 v=111
169485 On ch=6 n=80 v=0
169504 On ch=6 n=79 v=111
169517 On ch=6 n=79 v=0
169536 On ch=6 n=78 v=111
169549 On ch=6 n=78 v=0
169568 On ch=6 n=77 v=111
169581 On ch=6 n=77 v=0
169600 On ch=6 n=76 v=111
169613 On ch=6 n=76 v=0
169632 On ch=6 n=75 v=111
169645 On ch=6 n=75 v=0
169664 On ch=6 n=74 v=111
169677 On ch=6 n=74 v=0
169696 On ch=6 n=73 v=111
169709 On ch=6 n=73 v=0
169728 On ch=6 n=72 v=111
169741 On ch=6 n=72 v=0
169760 On ch=6 n=71 v=111
169773 On ch=6 n=71 v=0
169792 On ch=6 n=70 v=111
169805 On ch=6 n=70 v=0
169824 On ch=6 n=69 v=111
169837 On ch=6 n=69 v=0
169856 On ch=6 n=68 v=111
169869 On ch=6 n=68 v=0
169888 On ch=6 n=67 v=111
169901 On ch=6 n=67 v=0
169920 On ch=6 n=66 v=111
169933 On ch=6 n=66 v=0
169952 On ch=6 n=65 v=111
169965 On ch=6 n=65 v=0
169984 On ch=6 n=64 v=111
169997 On ch=6 n=64 v=0
170016 On ch=6 n=63 v=111
170029 On ch=6 n=63 v=0
170048 On ch=6 n=62 v=111
170061 On ch=6 n=62 v=0
170080 On ch=6 n=61 v=111
170093 On ch=6 n=61 v=0
170112 On ch=6 n=60 v=111
170150 On ch=6 n=60 v=0
170496 Par ch=6 c=0 v=0
170496 Par ch=6 c=32 v=0
170496 PrCh ch=6 p=45
170496 On ch=6 n=60 v=79
170534 On ch=6 n=60 v=0
170880 On ch=6 n=60 v=31
170918 On ch=6 n=60 v=0
170918 Meta TrkEnd
TrkEnd
MTrk
0 Meta 0x21 01
0 Meta TrkName "VIOLA"
192 Par ch=7 c=1 v=8
196 Par ch=7 c=7 v=127
200 Par ch=7 c=10 v=82
204 Par ch=7 c=11 v=64
208 Par ch=7 c=91 v=127
212 Par ch=7 c=93 v=64
216 Par ch=7 c=0 v=0
216 Par ch=7 c=32 v=0
216 PrCh ch=7 p=48
384 Par ch=7 c=0 v=0
384 Par ch=7 c=32 v=0
384 PrCh ch=7 p=44
384 Par ch=7 c=7 v=64
384 On ch=7 n=67 v=100
384 On ch=7 n=55 v=100
392 Par ch=7 c=11 v=63
400 Par ch=7 c=11 v=62
408 Par ch=7 c=11 v=61
416 Par ch=7 c=11 v=60
424 Par ch=7 c=11 v=59
432 Par ch=7 c=11 v=58
440 Par ch=7 c=11 v=57
448 Par ch=7 c=11 v=56
456 Par ch=7 c=11 v=55
464 Par ch=7 c=11 v=54
472 Par ch=7 c=11 v=53
480 Par ch=7 c=11 v=52
488 Par ch=7 c=11 v=51
496 Par ch=7 c=11 v=50
504 Par ch=7 c=11 v=49
512 Par ch=7 c=11 v=48
520 Par ch=7 c=11 v=47
528 Par ch=7 c=11 v=46
536 Par ch=7 c=11 v=45
544 Par ch=7 c=11 v=44
552 Par ch=7 c=11 v=43
560 Par ch=7 c=11 v=42
568 Par ch=7 c=11 v=41
576 Par ch=7 c=11 v=40
580 Par ch=7 c=11 v=39
588 Par ch=7 c=11 v=38
596 Par ch=7 c=11 v=37
604 Par ch=7 c=11 v=36
612 Par ch=7 c=11 v=35
620 Par ch=7 c=11 v=34
628 Par ch=7 c=11 v=33
636 Par ch=7 c=11 v=32
644 Par ch=7 c=11 v=31
652 Par ch=7 c=11 v=30
660 Par ch=7 c=11 v=29
668 Par ch=7 c=11 v=28
676 Par ch=7 c=11 v=27
684 Par ch=7 c=11 v=26
692 Par ch=7 c=11 v=25
700 Par ch=7 c=11 v=24
708 Par ch=7 c=11 v=23
716 Par ch=7 c=11 v=22
724 Par ch=7 c=11 v=21
732 Par ch=7 c=11 v=20
740 Par ch=7 c=11 v=19
748 Par ch=7 c=11 v=18
756 Par ch=7 c=11 v=17
764 Par ch=7 c=11 v=16
3840 Par ch=7 c=11 v=64
3888 Par ch=7 c=11 v=32
3900 Par ch=7 c=11 v=33
3912 Par ch=7 c=11 v=34
3920 Par ch=7 c=11 v=35
3932 Par ch=7 c=11 v=36
3940 Par ch=7 c=11 v=37
3952 Par ch=7 c=11 v=38
3960 Par ch=7 c=11 v=39
3972 Par ch=7 c=11 v=40
3980 Par ch=7 c=11 v=41
3992 Par ch=7 c=11 v=42
4000 Par ch=7 c=11 v=43
4012 Par ch=7 c=11 v=44
4024 Par ch=7 c=11 v=45
4032 Par ch=7 c=11 v=46
4044 Par ch=7 c=11 v=47
4052 Par ch=7 c=11 v=48
4064 Par ch=7 c=11 v=49
4072 Par ch=7 c=11 v=50
4084 Par ch=7 c=11 v=51
4092 Par ch=7 c=11 v=52
4104 Par ch=7 c=11 v=53
4112 Par ch=7 c=11 v=54
4124 Par ch=7 c=11 v=55
4136 Par ch=7 c=11 v=56
4144 Par ch=7 c=11 v=57
4156 Par ch=7 c=11 v=58
4164 Par ch=7 c=11 v=59
4176 Par ch=7 c=11 v=60
4184 Par ch=7 c=11 v=61
4196 Par ch=7 c=11 v=62
4204 Par ch=7 c=11 v=63
4216 Par ch=7 c=11 v=64
4272 Par ch=7 c=11 v=16
6216 Par ch=7 c=11 v=16
6284 Par ch=7 c=11 v=15
6356 Par ch=7 c=11 v=14
6424 Par ch=7 c=11 v=13
6496 Par ch=7 c=11 v=12
6564 Par ch=7 c=11 v=11
6636 Par ch=7 c=11 v=10
6704 Par ch=7 c=11 v=9
6776 Par ch=7 c=11 v=8
9523 On ch=7 n=67 v=0
9600 On ch=7 n=55 v=0
9600 Par ch=7 c=11 v=64
9600 Par ch=7 c=0 v=0
9600 Par ch=7 c=32 v=0
9600 PrCh ch=7 p=48
9600 On ch=7 n=55 v=95
9600 On ch=7 n=67 v=95
9631 On ch=7 n=67 v=0
9631 On ch=7 n=55 v=0
9672 On ch=7 n=62 v=47
9688 On ch=7 n=62 v=0
9696 On ch=7 n=55 v=47
9727 On ch=7 n=55 v=0
9984 On ch=7 n=67 v=95
9984 On ch=7 n=55 v=95
10015 On ch=7 n=55 v=0
10015 On ch=7 n=67 v=0
10056 On ch=7 n=62 v=47
10072 On ch=7 n=62 v=0
10080 On ch=7 n=55 v=47
10111 On ch=7 n=55 v=0
11136 On ch=7 n=67 v=47
11174 On ch=7 n=67 v=0
11208 On ch=7 n=62 v=47
11227 On ch=7 n=62 v=0
11232 On ch=7 n=55 v=47
11270 On ch=7 n=55 v=0
11520 On ch=7 n=67 v=47
11558 On ch=7 n=67 v=0
11592 On ch=7 n=62 v=47
11611 On ch=7 n=62 v=0
11616 On ch=7 n=55 v=47
11654 On ch=7 n=55 v=0
11808 On ch=7 n=68 v=95
11885 On ch=7 n=68 v=0
11904 On ch=7 n=67 v=95
11981 On ch=7 n=67 v=0
12000 On ch=7 n=62 v=95
12058 On ch=7 n=62 v=0
12072 On ch=7 n=63 v=95
12091 On ch=7 n=63 v=0
12096 On ch=7 n=65 v=95
12173 On ch=7 n=65 v=0
12192 On ch=7 n=68 v=95
12269 On ch=7 n=68 v=0
12288 On ch=7 n=67 v=95
12326 On ch=7 n=67 v=0
12384 On ch=7 n=75 v=95
12538 On ch=7 n=75 v=0
12576 On ch=7 n=74 v=95
12653 On ch=7 n=74 v=0
12672 On ch=7 n=72 v=95
12749 On ch=7 n=72 v=0
12768 On ch=7 n=63 v=95
12825 On ch=7 n=63 v=0
12840 On ch=7 n=65 v=95
12859 On ch=7 n=65 v=0
12864 On ch=7 n=67 v=95
12940 On ch=7 n=67 v=0
12960 On ch=7 n=70 v=95
13017 On ch=7 n=70 v=0
13032 On ch=7 n=68 v=95
13051 On ch=7 n=68 v=0
13056 On ch=7 n=67 v=95
13094 On ch=7 n=67 v=0
13152 On ch=7 n=60 v=95
13306 On ch=7 n=60 v=0
13344 On ch=7 n=62 v=95
13370 On ch=7 n=62 v=0
13376 On ch=7 n=63 v=95
13402 On ch=7 n=63 v=0
13408 On ch=7 n=65 v=95
13434 On ch=7 n=65 v=0
13440 On ch=7 n=67 v=95
13594 On ch=7 n=67 v=0
13632 Par ch=7 c=11 v=64
13632 On ch=7 n=64 v=95
13668 Par ch=7 c=11 v=65
13700 Par ch=7 c=11 v=66
13736 Par ch=7 c=11 v=67
13747 On ch=7 n=64 v=0
13768 Par ch=7 c=11 v=68
13776 On ch=7 n=65 v=95
13804 Par ch=7 c=11 v=69
13814 On ch=7 n=65 v=0
13824 On ch=7 n=68 v=95
13836 Par ch=7 c=11 v=70
13862 On ch=7 n=68 v=0
13872 Par ch=7 c=11 v=71
13904 Par ch=7 c=11 v=72
13920 On ch=7 n=67 v=95
13940 Par ch=7 c=11 v=73
13972 Par ch=7 c=11 v=74
13997 On ch=7 n=67 v=0
14008 Par ch=7 c=11 v=75
14040 Par ch=7 c=11 v=76
14076 Par ch=7 c=11 v=77
14080 On ch=7 n=60 v=95
14101 On ch=7 n=60 v=0
14108 Par ch=7 c=11 v=78
14112 On ch=7 n=67 v=95
14133 On ch=7 n=67 v=0
14144 Par ch=7 c=11 v=79
14144 On ch=7 n=70 v=95
14165 On ch=7 n=70 v=0
14176 Par ch=7 c=11 v=80
14176 On ch=7 n=73 v=95
14197 On ch=7 n=73 v=0
14208 Par ch=7 c=11 v=64
14208 On ch=7 n=72 v=111
14239 On ch=7 n=72 v=0
14280 On ch=7 n=70 v=111
14296 On ch=7 n=70 v=0
14304 On ch=7 n=68 v=111
14335 On ch=7 n=68 v=0
14376 On ch=7 n=67 v=111
14392 On ch=7 n=67 v=0
14400 On ch=7 n=65 v=111
14431 On ch=7 n=65 v=0
14472 On ch=7 n=63 v=111
14488 On ch=7 n=63 v=0
14496 On ch=7 n=61 v=111
14527 On ch=7 n=61 v=0
14568 On ch=7 n=60 v=111
14584 On ch=7 n=60 v=0
14592 On ch=7 n=68 v=111
14623 On ch=7 n=68 v=0
14664 On ch=7 n=67 v=111
14680 On ch=7 n=67 v=0
14688 On ch=7 n=65 v=111
14719 On ch=7 n=65 v=0
14760 On ch=7 n=63 v=111
14776 On ch=7 n=63 v=0
14784 On ch=7 n=61 v=111
14815 On ch=7 n=61 v=0
14856 On ch=7 n=60 v=111
14872 On ch=7 n=60 v=0
14880 On ch=7 n=58 v=111
14911 On ch=7 n=58 v=0
14952 On ch=7 n=56 v=111
14968 On ch=7 n=56 v=0
14976 On ch=7 n=55 v=111
15014 On ch=7 n=55 v=0
15072 On ch=7 n=67 v=127
15149 On ch=7 n=67 v=0
15168 On ch=7 n=68 v=127
15245 On ch=7 n=68 v=0
15264 On ch=7 n=69 v=127
15341 On ch=7 n=69 v=0
15360 On ch=7 n=70 v=127
15514 On ch=7 n=70 v=0
15552 On ch=7 n=71 v=111
15560 On ch=7 n=71 v=0
15560 On ch=7 n=72 v=111
15568 On ch=7 n=72 v=0
15568 On ch=7 n=71 v=111
15576 On ch=7 n=71 v=0
15576 On ch=7 n=72 v=111
15584 On ch=7 n=72 v=0
15584 On ch=7 n=71 v=111
15592 On ch=7 n=71 v=0
15592 On ch=7 n=72 v=111
15600 On ch=7 n=72 v=0
15600 On ch=7 n=71 v=111
15608 On ch=7 n=71 v=0
15608 On ch=7 n=72 v=111
15616 On ch=7 n=72 v=0
15616 On ch=7 n=71 v=111
15624 On ch=7 n=71 v=0
15624 On ch=7 n=72 v=111
15632 On ch=7 n=72 v=0
15632 On ch=7 n=71 v=111
15640 On ch=7 n=71 v=0
15640 On ch=7 n=72 v=111
15648 On ch=7 n=72 v=0
15648 On ch=7 n=71 v=111
15656 On ch=7 n=71 v=0
15656 On ch=7 n=72 v=111
15664 On ch=7 n=72 v=0
15664 On ch=7 n=71 v=111
15672 On ch=7 n=71 v=0
15672 On ch=7 n=72 v=111
15680 On ch=7 n=72 v=0
15680 On ch=7 n=71 v=111
15688 On ch=7 n=71 v=0
15688 On ch=7 n=72 v=111
15696 On ch=7 n=72 v=0
15696 On ch=7 n=71 v=111
15704 On ch=7 n=71 v=0
15704 On ch=7 n=72 v=111
15712 On ch=7 n=72 v=0
15712 On ch=7 n=71 v=111
15720 On ch=7 n=71 v=0
15720 On ch=7 n=69 v=111
15728 On ch=7 n=69 v=0
15728 On ch=7 n=71 v=111
15744 On ch=7 n=71 v=0
15744 On ch=7 n=72 v=127
15782 On ch=7 n=72 v=0
16512 Par ch=7 c=0 v=0
16512 Par ch=7 c=32 v=0
16512 PrCh ch=7 p=44
16512 Par ch=7 c=11 v=64
16512 On ch=7 n=55 v=111
16512 On ch=7 n=60 v=111
16524 Par ch=7 c=11 v=63
16536 Par ch=7 c=11 v=62
16548 Par ch=7 c=11 v=61
16560 Par ch=7 c=11 v=60
16572 Par ch=7 c=11 v=59
16580 Par ch=7 c=11 v=58
16592 Par ch=7 c=11 v=57
16604 Par ch=7 c=11 v=56
16616 Par ch=7 c=11 v=55
16628 Par ch=7 c=11 v=54
16640 Par ch=7 c=11 v=53
16648 Par ch=7 c=11 v=52
16660 Par ch=7 c=11 v=51
16672 Par ch=7 c=11 v=50
16684 Par ch=7 c=11 v=49
16696 Par ch=7 c=11 v=48
16704 Par ch=7 c=11 v=47
16716 Par ch=7 c=11 v=46
16728 Par ch=7 c=11 v=45
16740 Par ch=7 c=11 v=44
16752 Par ch=7 c=11 v=43
16764 Par ch=7 c=11 v=42
16772 Par ch=7 c=11 v=41
16784 Par ch=7 c=11 v=40
16796 Par ch=7 c=11 v=39
16808 Par ch=7 c=11 v=38
16820 Par ch=7 c=11 v=37
16832 Par ch=7 c=11 v=36
16840 Par ch=7 c=11 v=35
16852 Par ch=7 c=11 v=34
16864 Par ch=7 c=11 v=33
16876 Par ch=7 c=11 v=32
17587 On ch=7 n=60 v=0
17587 On ch=7 n=55 v=0
17664 Par ch=7 c=0 v=0
17664 Par ch=7 c=32 v=0
17664 PrCh ch=7 p=44
17664 On ch=7 n=51 v=95
17712 Par ch=7 c=11 v=32
17720 Par ch=7 c=11 v=33
17728 Par ch=7 c=11 v=34
17736 Par ch=7 c=11 v=35
17740 Par ch=7 c=11 v=36
17748 Par ch=7 c=11 v=37
17756 Par ch=7 c=11 v=38
17760 Par ch=7 c=11 v=39
17768 Par ch=7 c=11 v=40
17776 Par ch=7 c=11 v=41
17784 Par ch=7 c=11 v=42
17788 Par ch=7 c=11 v=43
17796 Par ch=7 c=11 v=44
17804 Par ch=7 c=11 v=45
17808 Par ch=7 c=11 v=46
17816 Par ch=7 c=11 v=47
17824 Par ch=7 c=11 v=48
17832 Par ch=7 c=11 v=49
17836 Par ch=7 c=11 v=50
17844 Par ch=7 c=11 v=51
17852 Par ch=7 c=11 v=52
17856 Par ch=7 c=11 v=53
17864 Par ch=7 c=11 v=54
17872 Par ch=7 c=11 v=55
17880 Par ch=7 c=11 v=56
17884 Par ch=7 c=11 v=57
17892 Par ch=7 c=11 v=58
17900 Par ch=7 c=11 v=59
17904 Par ch=7 c=11 v=60
17912 Par ch=7 c=11 v=61
17920 Par ch=7 c=11 v=62
17928 Par ch=7 c=11 v=63
17932 Par ch=7 c=11 v=64
17940 Par ch=7 c=11 v=65
17948 Par ch=7 c=11 v=66
17952 Par ch=7 c=11 v=67
17960 Par ch=7 c=11 v=68
17968 Par ch=7 c=11 v=69
17976 Par ch=7 c=11 v=70
17980 Par ch=7 c=11 v=71
17988 Par ch=7 c=11 v=72
17996 Par ch=7 c=11 v=73
18000 Par ch=7 c=11 v=74
18008 Par ch=7 c=11 v=75
18016 Par ch=7 c=11 v=76
18024 Par ch=7 c=11 v=77
18028 Par ch=7 c=11 v=78
18036 Par ch=7 c=11 v=79
18044 Par ch=7 c=11 v=80
18048 Par ch=7 c=11 v=80
18056 Par ch=7 c=11 v=79
18064 Par ch=7 c=11 v=78
18072 Par ch=7 c=11 v=77
18080 Par ch=7 c=11 v=76
18088 Par ch=7 c=11 v=75
18096 Par ch=7 c=11 v=74
18104 Par ch=7 c=11 v=73
18112 Par ch=7 c=11 v=72
18120 Par ch=7 c=11 v=71
18128 Par ch=7 c=11 v=70
18136 Par ch=7 c=11 v=69
18144 Par ch=7 c=11 v=68
18148 Par ch=7 c=11 v=67
18156 Par ch=7 c=11 v=66
18164 Par ch=7 c=11 v=65
18172 Par ch=7 c=11 v=64
18180 Par ch=7 c=11 v=63
18188 Par ch=7 c=11 v=62
18196 Par ch=7 c=11 v=61
18204 Par ch=7 c=11 v=60
18212 Par ch=7 c=11 v=59
18220 Par ch=7 c=11 v=58
18228 Par ch=7 c=11 v=57
18236 Par ch=7 c=11 v=56
18240 Par ch=7 c=11 v=55
18248 Par ch=7 c=11 v=54
18256 Par ch=7 c=11 v=53
18264 Par ch=7 c=11 v=52
18272 Par ch=7 c=11 v=51
18280 Par ch=7 c=11 v=50
18288 Par ch=7 c=11 v=49
18296 Par ch=7 c=11 v=48
18304 Par ch=7 c=11 v=47
18312 Par ch=7 c=11 v=46
18320 Par ch=7 c=11 v=45
18328 Par ch=7 c=11 v=44
18336 Par ch=7 c=11 v=43
18340 Par ch=7 c=11 v=42
18348 Par ch=7 c=11 v=41
18355 On ch=7 n=51 v=0
18356 Par ch=7 c=11 v=40
18364 Par ch=7 c=11 v=39
18372 Par ch=7 c=11 v=38
18380 Par ch=7 c=11 v=37
18388 Par ch=7 c=11 v=36
18396 Par ch=7 c=11 v=35
18404 Par ch=7 c=11 v=34
18412 Par ch=7 c=11 v=33
18420 Par ch=7 c=11 v=32
18432 Par ch=7 c=11 v=64
18432 Par ch=7 c=0 v=0
18432 Par ch=7 c=32 v=0
18432 PrCh ch=7 p=48
18432 On ch=7 n=71 v=15
18739 On ch=7 n=71 v=0
18816 On ch=7 n=76 v=15
18893 On ch=7 n=76 v=0
18912 On ch=7 n=78 v=15
18989 On ch=7 n=78 v=0
19008 On ch=7 n=80 v=15
19085 On ch=7 n=80 v=0
19104 On ch=7 n=78 v=15
19181 On ch=7 n=78 v=0
19200 On ch=7 n=83 v=15
19738 On ch=7 n=83 v=0
19968 Par ch=7 c=0 v=0
19968 Par ch=7 c=32 v=0
19968 PrCh ch=7 p=44
19968 On ch=7 n=66 v=31
19968 On ch=7 n=64 v=31
21427 On ch=7 n=64 v=0
21427 On ch=7 n=66 v=0
21504 On ch=7 n=63 v=31
21504 On ch=7 n=66 v=31
22464 Par ch=7 c=11 v=64
22468 Par ch=7 c=11 v=65
22472 Par ch=7 c=11 v=66
22476 Par ch=7 c=11 v=67
22480 Par ch=7 c=11 v=69
22484 Par ch=7 c=11 v=70
22488 Par ch=7 c=11 v=71
22492 Par ch=7 c=11 v=73
22496 Par ch=7 c=11 v=74
22500 Par ch=7 c=11 v=75
22504 Par ch=7 c=11 v=77
22508 Par ch=7 c=11 v=78
22512 Par ch=7 c=11 v=79
22516 Par ch=7 c=11 v=81
22520 Par ch=7 c=11 v=82
22524 Par ch=7 c=11 v=83
22528 Par ch=7 c=11 v=85
22532 Par ch=7 c=11 v=86
22536 Par ch=7 c=11 v=87
22540 Par ch=7 c=11 v=88
22544 Par ch=7 c=11 v=90
22548 Par ch=7 c=11 v=91
22552 Par ch=7 c=11 v=92
22556 Par ch=7 c=11 v=94
22560 Par ch=7 c=11 v=95
22564 Par ch=7 c=11 v=96
22568 Par ch=7 c=11 v=98
22572 Par ch=7 c=11 v=99
22576 Par ch=7 c=11 v=100
22579 On ch=7 n=66 v=0
22579 On ch=7 n=63 v=0
22580 Par ch=7 c=11 v=102
22584 Par ch=7 c=11 v=103
22588 Par ch=7 c=11 v=104
22592 Par ch=7 c=11 v=106
22596 Par ch=7 c=11 v=107
22600 Par ch=7 c=11 v=108
22604 Par ch=7 c=11 v=109
22608 Par ch=7 c=11 v=111
22612 Par ch=7 c=11 v=112
22616 Par ch=7 c=11 v=113
22620 Par ch=7 c=11 v=115
22624 Par ch=7 c=11 v=116
22628 Par ch=7 c=11 v=117
22632 Par ch=7 c=11 v=119
22636 Par ch=7 c=11 v=120
22640 Par ch=7 c=11 v=121
22644 Par ch=7 c=11 v=123
22648 Par ch=7 c=11 v=124
22652 Par ch=7 c=11 v=125
22656 Par ch=7 c=11 v=64
22656 On ch=7 n=63 v=111
22656 On ch=7 n=66 v=111
22676 Par ch=7 c=11 v=63
22692 Par ch=7 c=11 v=62
22708 Par ch=7 c=11 v=61
22724 Par ch=7 c=11 v=60
22744 Par ch=7 c=11 v=59
22760 Par ch=7 c=11 v=58
22776 Par ch=7 c=11 v=57
22792 Par ch=7 c=11 v=56
22812 Par ch=7 c=11 v=55
22828 Par ch=7 c=11 v=54
22844 Par ch=7 c=11 v=53
22860 Par ch=7 c=11 v=52
22880 Par ch=7 c=11 v=51
22896 Par ch=7 c=11 v=50
22912 Par ch=7 c=11 v=49
22928 Par ch=7 c=11 v=48
22944 Par ch=7 c=11 v=48
22952 Par ch=7 c=11 v=49
22956 Par ch=7 c=11 v=50
22964 Par ch=7 c=11 v=51
22968 Par ch=7 c=11 v=52
22976 Par ch=7 c=11 v=53
22980 Par ch=7 c=11 v=54
22984 Par ch=7 c=11 v=55
22992 Par ch=7 c=11 v=56
22996 Par ch=7 c=11 v=57
23004 Par ch=7 c=11 v=58
23008 Par ch=7 c=11 v=59
23012 Par ch=7 c=11 v=60
23020 Par ch=7 c=11 v=61
23024 Par ch=7 c=11 v=62
23032 Par ch=7 c=11 v=63
23036 Par ch=7 c=11 v=64
23040 Par ch=7 c=11 v=64
23052 Par ch=7 c=11 v=63
23064 Par ch=7 c=11 v=62
23076 Par ch=7 c=11 v=61
23088 Par ch=7 c=11 v=60
23100 Par ch=7 c=11 v=59
23108 Par ch=7 c=11 v=58
23120 Par ch=7 c=11 v=57
23132 Par ch=7 c=11 v=56
23144 Par ch=7 c=11 v=55
23156 Par ch=7 c=11 v=54
23168 Par ch=7 c=11 v=53
23176 Par ch=7 c=11 v=52
23188 Par ch=7 c=11 v=51
23194 On ch=7 n=66 v=0
23194 On ch=7 n=63 v=0
23200 Par ch=7 c=11 v=50
23212 Par ch=7 c=11 v=49
23224 Par ch=7 c=11 v=48
23232 Par ch=7 c=11 v=48
23232 On ch=7 n=64 v=111
23232 On ch=7 n=61 v=111
23252 Par ch=7 c=11 v=49
23268 Par ch=7 c=11 v=50
23288 Par ch=7 c=11 v=51
23304 Par ch=7 c=11 v=52
23320 Par ch=7 c=11 v=53
23340 Par ch=7 c=11 v=54
23356 Par ch=7 c=11 v=55
23372 Par ch=7 c=11 v=56
23386 On ch=7 n=61 v=0
23386 On ch=7 n=64 v=0
23392 Par ch=7 c=11 v=57
23408 Par ch=7 c=11 v=58
23424 Par ch=7 c=11 v=59
23424 On ch=7 n=63 v=111
23424 On ch=7 n=59 v=111
23444 Par ch=7 c=11 v=60
23460 Par ch=7 c=11 v=61
23480 Par ch=7 c=11 v=62
23496 Par ch=7 c=11 v=63
23512 Par ch=7 c=11 v=64
23532 Par ch=7 c=11 v=65
23548 Par ch=7 c=11 v=66
23564 Par ch=7 c=11 v=67
23578 On ch=7 n=59 v=0
23578 On ch=7 n=63 v=0
23584 Par ch=7 c=11 v=68
23600 Par ch=7 c=11 v=69
23616 Par ch=7 c=11 v=70
23616 On ch=7 n=56 v=111
23616 On ch=7 n=58 v=111
23616 On ch=7 n=62 v=111
23636 Par ch=7 c=11 v=71
23652 Par ch=7 c=11 v=72
23672 Par ch=7 c=11 v=73
23688 Par ch=7 c=11 v=74
23704 Par ch=7 c=11 v=75
23724 Par ch=7 c=11 v=76
23740 Par ch=7 c=11 v=77
23756 Par ch=7 c=11 v=78
23770 On ch=7 n=62 v=0
23770 On ch=7 n=58 v=0
23770 On ch=7 n=56 v=0
23776 Par ch=7 c=11 v=79
23792 Par ch=7 c=11 v=80
23808 Par ch=7 c=11 v=64
23808 Par ch=7 c=0 v=0
23808 Par ch=7 c=32 v=0
23808 PrCh ch=7 p=48
23808 On ch=7 n=63 v=127
23808 On ch=7 n=58 v=127
23808 On ch=7 n=54 v=127
23846 On ch=7 n=54 v=0
23846 On ch=7 n=58 v=0
23846 On ch=7 n=63 v=0
24000 Par ch=7 c=7 v=64
24000 Par ch=7 c=0 v=0
24000 Par ch=7 c=32 v=0
24000 PrCh ch=7 p=44
24000 On ch=7 n=55 v=111
24000 On ch=7 n=67 v=111
24004 Par ch=7 c=11 v=63
24008 Par ch=7 c=11 v=62
24012 Par ch=7 c=11 v=61
24016 Par ch=7 c=11 v=60
24020 Par ch=7 c=11 v=59
24024 Par ch=7 c=11 v=58
24028 Par ch=7 c=11 v=57
24032 Par ch=7 c=11 v=56
24036 Par ch=7 c=11 v=55
24040 Par ch=7 c=11 v=54
24044 Par ch=7 c=11 v=53
24048 Par ch=7 c=11 v=52
24052 Par ch=7 c=11 v=51
24056 Par ch=7 c=11 v=50
24060 Par ch=7 c=11 v=49
24064 Par ch=7 c=11 v=48
24068 Par ch=7 c=11 v=47
24072 Par ch=7 c=11 v=46
24076 Par ch=7 c=11 v=45
24080 Par ch=7 c=11 v=44
24084 Par ch=7 c=11 v=43
24088 Par ch=7 c=11 v=42
24092 Par ch=7 c=11 v=41
24096 Par ch=7 c=11 v=40
24100 Par ch=7 c=11 v=39
24104 Par ch=7 c=11 v=38
24108 Par ch=7 c=11 v=37
24112 Par ch=7 c=11 v=36
24116 Par ch=7 c=11 v=35
24120 Par ch=7 c=11 v=34
24124 Par ch=7 c=11 v=33
24128 Par ch=7 c=11 v=32
24132 Par ch=7 c=11 v=31
24136 Par ch=7 c=11 v=30
24140 Par ch=7 c=11 v=29
24144 Par ch=7 c=11 v=28
24148 Par ch=7 c=11 v=27
24152 Par ch=7 c=11 v=26
24156 Par ch=7 c=11 v=25
24160 Par ch=7 c=11 v=24
24164 Par ch=7 c=11 v=23
24168 Par ch=7 c=11 v=22
24172 Par ch=7 c=11 v=21
24176 Par ch=7 c=11 v=20
24180 Par ch=7 c=11 v=19
24184 Par ch=7 c=11 v=18
24188 Par ch=7 c=11 v=17
26924 Par ch=7 c=11 v=16
26968 Par ch=7 c=11 v=17
27008 Par ch=7 c=11 v=18
27052 Par ch=7 c=11 v=19
27096 Par ch=7 c=11 v=20
27136 Par ch=7 c=11 v=21
27180 Par ch=7 c=11 v=22
27224 Par ch=7 c=11 v=23
27264 Par ch=7 c=11 v=24
27308 Par ch=7 c=11 v=25
27352 Par ch=7 c=11 v=26
27392 Par ch=7 c=11 v=27
27436 Par ch=7 c=11 v=28
27480 Par ch=7 c=11 v=29
27520 Par ch=7 c=11 v=30
27564 Par ch=7 c=11 v=31
27571 On ch=7 n=67 v=0
27571 On ch=7 n=55 v=0
27608 Par ch=7 c=11 v=32
27648 Par ch=7 c=11 v=64
27648 Par ch=7 c=0 v=0
27648 Par ch=7 c=32 v=0
27648 PrCh ch=7 p=48
27648 On ch=7 n=67 v=95
27744 On ch=7 n=67 v=0
27744 On ch=7 n=66 v=95
27782 On ch=7 n=66 v=0
27816 On ch=7 n=67 v=95
27835 On ch=7 n=67 v=0
27840 On ch=7 n=67 v=95
27916 On ch=7 n=67 v=0
27936 Par ch=7 c=11 v=64
27936 On ch=7 n=60 v=95
27962 On ch=7 n=60 v=0
27968 Par ch=7 c=11 v=65
27968 On ch=7 n=62 v=95
27994 On ch=7 n=62 v=0
27996 Par ch=7 c=11 v=66
28000 On ch=7 n=63 v=95
28024 Par ch=7 c=11 v=67
28026 On ch=7 n=63 v=0
28032 On ch=7 n=67 v=95
28052 Par ch=7 c=11 v=68
28080 Par ch=7 c=11 v=69
28108 Par ch=7 c=11 v=70
28128 On ch=7 n=67 v=0
28128 On ch=7 n=66 v=95
28136 Par ch=7 c=11 v=71
28154 On ch=7 n=66 v=0
28160 On ch=7 n=67 v=95
28164 Par ch=7 c=11 v=72
28186 On ch=7 n=67 v=0
28192 Par ch=7 c=11 v=73
28192 On ch=7 n=68 v=95
28218 On ch=7 n=68 v=0
28220 Par ch=7 c=11 v=74
28224 On ch=7 n=67 v=95
28248 Par ch=7 c=11 v=75
28276 Par ch=7 c=11 v=76
28301 On ch=7 n=67 v=0
28304 Par ch=7 c=11 v=77
28320 On ch=7 n=71 v=95
28332 Par ch=7 c=11 v=78
28346 On ch=7 n=71 v=0
28352 On ch=7 n=72 v=95
28360 Par ch=7 c=11 v=79
28378 On ch=7 n=72 v=0
28384 On ch=7 n=74 v=95
28388 Par ch=7 c=11 v=80
28410 On ch=7 n=74 v=0
28416 Par ch=7 c=11 v=64
28416 On ch=7 n=75 v=111
28454 On ch=7 n=75 v=0
29952 Par ch=7 c=0 v=0
29952 Par ch=7 c=32 v=0
29952 PrCh ch=7 p=44
29952 On ch=7 n=72 v=95
30000 Par ch=7 c=11 v=32
30344 Par ch=7 c=11 v=16
30352 Par ch=7 c=11 v=17
30360 Par ch=7 c=11 v=18
30368 Par ch=7 c=11 v=19
30376 Par ch=7 c=11 v=20
30384 Par ch=7 c=11 v=21
30392 Par ch=7 c=11 v=22
30400 Par ch=7 c=11 v=23
30408 Par ch=7 c=11 v=24
30416 Par ch=7 c=11 v=25
30424 Par ch=7 c=11 v=26
30432 Par ch=7 c=11 v=27
30436 Par ch=7 c=11 v=28
30444 Par ch=7 c=11 v=29
30452 Par ch=7 c=11 v=30
30460 Par ch=7 c=11 v=31
30468 Par ch=7 c=11 v=32
30476 Par ch=7 c=11 v=33
30484 Par ch=7 c=11 v=34
30492 Par ch=7 c=11 v=35
30500 Par ch=7 c=11 v=36
30508 Par ch=7 c=11 v=37
30516 Par ch=7 c=11 v=38
30524 Par ch=7 c=11 v=39
30528 Par ch=7 c=11 v=40
30536 Par ch=7 c=11 v=41
30544 Par ch=7 c=11 v=42
30552 Par ch=7 c=11 v=43
30560 Par ch=7 c=11 v=44
30568 Par ch=7 c=11 v=45
30576 Par ch=7 c=11 v=46
30584 Par ch=7 c=11 v=47
30592 Par ch=7 c=11 v=48
30600 Par ch=7 c=11 v=49
30608 Par ch=7 c=11 v=50
30616 Par ch=7 c=11 v=51
30624 Par ch=7 c=11 v=52
30628 Par ch=7 c=11 v=53
30636 Par ch=7 c=11 v=54
30643 On ch=7 n=72 v=0
30644 Par ch=7 c=11 v=55
30652 Par ch=7 c=11 v=56
30660 Par ch=7 c=11 v=57
30668 Par ch=7 c=11 v=58
30676 Par ch=7 c=11 v=59
30684 Par ch=7 c=11 v=60
30692 Par ch=7 c=11 v=61
30700 Par ch=7 c=11 v=62
30708 Par ch=7 c=11 v=63
30716 Par ch=7 c=11 v=64
30720 Par ch=7 c=0 v=0
30720 Par ch=7 c=32 v=0
30720 PrCh ch=7 p=48
30720 On ch=7 n=67 v=111
30797 On ch=7 n=67 v=0
30816 On ch=7 n=65 v=111
30893 On ch=7 n=65 v=0
30912 On ch=7 n=63 v=111
30989 On ch=7 n=63 v=0
31008 On ch=7 n=62 v=111
31029 On ch=7 n=62 v=0
31040 On ch=7 n=63 v=111
31061 On ch=7 n=63 v=0
31072 On ch=7 n=60 v=111
31093 On ch=7 n=60 v=0
31104 On ch=7 n=65 v=111
31181 On ch=7 n=65 v=0
31200 On ch=7 n=63 v=111
31277 On ch=7 n=63 v=0
31296 On ch=7 n=62 v=111
31373 On ch=7 n=62 v=0
31392 On ch=7 n=60 v=111
31413 On ch=7 n=60 v=0
31424 On ch=7 n=62 v=111
31445 On ch=7 n=62 v=0
31456 On ch=7 n=58 v=111
31477 On ch=7 n=58 v=0
31488 On ch=7 n=65 v=111
31565 On ch=7 n=65 v=0
31584 On ch=7 n=63 v=111
31661 On ch=7 n=63 v=0
31680 On ch=7 n=62 v=111
31757 On ch=7 n=62 v=0
31776 On ch=7 n=60 v=111
31797 On ch=7 n=60 v=0
31808 On ch=7 n=62 v=111
31829 On ch=7 n=62 v=0
31840 On ch=7 n=58 v=111
31861 On ch=7 n=58 v=0
31872 On ch=7 n=63 v=111
31949 On ch=7 n=63 v=0
31968 On ch=7 n=62 v=111
32045 On ch=7 n=62 v=0
32064 On ch=7 n=60 v=111
32141 On ch=7 n=60 v=0
32160 On ch=7 n=58 v=111
32181 On ch=7 n=58 v=0
32192 On ch=7 n=60 v=111
32213 On ch=7 n=60 v=0
32224 On ch=7 n=56 v=111
32245 On ch=7 n=56 v=0
32256 On ch=7 n=63 v=111
32333 On ch=7 n=63 v=0
32352 On ch=7 n=62 v=111
32429 On ch=7 n=62 v=0
32448 On ch=7 n=60 v=111
32525 On ch=7 n=60 v=0
32544 On ch=7 n=58 v=111
32565 On ch=7 n=58 v=0
32576 On ch=7 n=60 v=111
32597 On ch=7 n=60 v=0
32608 On ch=7 n=56 v=111
32629 On ch=7 n=56 v=0
32640 On ch=7 n=63 v=111
32678 On ch=7 n=63 v=0
32712 On ch=7 n=58 v=111
32731 On ch=7 n=58 v=0
32736 On ch=7 n=51 v=111
32774 On ch=7 n=51 v=0
33024 On ch=7 n=63 v=111
33062 On ch=7 n=63 v=0
33096 On ch=7 n=58 v=111
33115 On ch=7 n=58 v=0
33120 On ch=7 n=51 v=111
33158 On ch=7 n=51 v=0
33408 Par ch=7 c=0 v=0
33408 Par ch=7 c=32 v=0
33408 PrCh ch=7 p=44
33408 On ch=7 n=67 v=47
33715 On ch=7 n=67 v=0
33792 Par ch=7 c=11 v=64
33792 On ch=7 n=67 v=47
33800 Par ch=7 c=11 v=65
33808 Par ch=7 c=11 v=66
33812 Par ch=7 c=11 v=67
33820 Par ch=7 c=11 v=68
33824 Par ch=7 c=11 v=69
33832 Par ch=7 c=11 v=70
33836 Par ch=7 c=11 v=71
33844 Par ch=7 c=11 v=72
33848 Par ch=7 c=11 v=73
33856 Par ch=7 c=11 v=74
33860 Par ch=7 c=11 v=75
33868 Par ch=7 c=11 v=76
33869 On ch=7 n=67 v=0
33872 Par ch=7 c=11 v=77
33880 Par ch=7 c=11 v=78
33884 Par ch=7 c=11 v=79
33888 On ch=7 n=68 v=47
33892 Par ch=7 c=11 v=80
33896 Par ch=7 c=11 v=81
33904 Par ch=7 c=11 v=82
33908 Par ch=7 c=11 v=83
33916 Par ch=7 c=11 v=84
33920 Par ch=7 c=11 v=85
33928 Par ch=7 c=11 v=86
33936 Par ch=7 c=11 v=87
33940 Par ch=7 c=11 v=88
33948 Par ch=7 c=11 v=89
33952 Par ch=7 c=11 v=90
33960 Par ch=7 c=11 v=91
33964 Par ch=7 c=11 v=92
33972 Par ch=7 c=11 v=93
33976 Par ch=7 c=11 v=94
33984 Par ch=7 c=11 v=95
33988 Par ch=7 c=11 v=96
33996 Par ch=7 c=11 v=97
34000 Par ch=7 c=11 v=98
34008 Par ch=7 c=11 v=99
34012 Par ch=7 c=11 v=100
34020 Par ch=7 c=11 v=101
34024 Par ch=7 c=11 v=102
34032 Par ch=7 c=11 v=103
34036 Par ch=7 c=11 v=104
34042 On ch=7 n=68 v=0
34044 Par ch=7 c=11 v=105
34048 Par ch=7 c=11 v=106
34056 Par ch=7 c=11 v=107
34064 Par ch=7 c=11 v=108
34068 Par ch=7 c=11 v=109
34076 Par ch=7 c=11 v=110
34080 Par ch=7 c=11 v=111
34080 On ch=7 n=69 v=47
34088 Par ch=7 c=11 v=112
34092 Par ch=7 c=11 v=113
34100 Par ch=7 c=11 v=114
34104 Par ch=7 c=11 v=115
34112 Par ch=7 c=11 v=116
34116 Par ch=7 c=11 v=117
34124 Par ch=7 c=11 v=118
34128 Par ch=7 c=11 v=119
34136 Par ch=7 c=11 v=120
34140 Par ch=7 c=11 v=121
34148 Par ch=7 c=11 v=122
34152 Par ch=7 c=11 v=123
34157 On ch=7 n=69 v=0
34160 Par ch=7 c=11 v=124
34164 Par ch=7 c=11 v=125
34172 Par ch=7 c=11 v=126
34176 Par ch=7 c=0 v=0
34176 Par ch=7 c=32 v=0
34176 PrCh ch=7 p=48
34176 Par ch=7 c=11 v=64
34176 On ch=7 n=70 v=111
34253 On ch=7 n=70 v=0
34272 On ch=7 n=74 v=111
34349 On ch=7 n=74 v=0
34368 On ch=7 n=72 v=111
34445 On ch=7 n=72 v=0
34464 On ch=7 n=70 v=111
34541 On ch=7 n=70 v=0
34944 On ch=7 n=74 v=111
35021 On ch=7 n=74 v=0
35040 On ch=7 n=70 v=111
35117 On ch=7 n=70 v=0
35136 On ch=7 n=69 v=111
35213 On ch=7 n=69 v=0
35232 On ch=7 n=67 v=111
35309 On ch=7 n=67 v=0
35712 Par ch=7 c=11 v=64
35712 Par ch=7 c=0 v=0
35712 Par ch=7 c=32 v=0
35712 PrCh ch=7 p=44
35712 On ch=7 n=55 v=95
35760 Par ch=7 c=11 v=32
36019 On ch=7 n=55 v=0
36096 Par ch=7 c=11 v=64
36096 On ch=7 n=53 v=95
36144 Par ch=7 c=11 v=32
36403 On ch=7 n=53 v=0
36480 On ch=7 n=55 v=95
36480 On ch=7 n=52 v=95
36492 Par ch=7 c=11 v=64
36653 On ch=7 n=52 v=0
36653 On ch=7 n=55 v=0
36672 Par ch=7 c=11 v=64
36672 On ch=7 n=51 v=95
36672 On ch=7 n=55 v=95
36680 Par ch=7 c=11 v=63
36688 Par ch=7 c=11 v=62
36696 Par ch=7 c=11 v=61
36700 Par ch=7 c=11 v=60
36708 Par ch=7 c=11 v=59
36716 Par ch=7 c=11 v=58
36720 Par ch=7 c=11 v=57
36728 Par ch=7 c=11 v=56
36736 Par ch=7 c=11 v=55
36744 Par ch=7 c=11 v=54
36748 Par ch=7 c=11 v=53
36756 Par ch=7 c=11 v=52
36764 Par ch=7 c=11 v=51
36768 Par ch=7 c=11 v=50
36776 Par ch=7 c=11 v=49
36784 Par ch=7 c=11 v=48
36792 Par ch=7 c=11 v=47
36796 Par ch=7 c=11 v=46
36804 Par ch=7 c=11 v=45
36812 Par ch=7 c=11 v=44
36816 Par ch=7 c=11 v=43
36824 Par ch=7 c=11 v=42
36832 Par ch=7 c=11 v=41
36840 Par ch=7 c=11 v=40
36844 Par ch=7 c=11 v=39
36845 On ch=7 n=55 v=0
36845 On ch=7 n=51 v=0
36852 Par ch=7 c=11 v=38
36860 Par ch=7 c=11 v=37
36864 Par ch=7 c=11 v=36
36864 On ch=7 n=50 v=95
36864 On ch=7 n=53 v=95
36872 Par ch=7 c=11 v=35
36880 Par ch=7 c=11 v=34
36888 Par ch=7 c=11 v=33
36892 Par ch=7 c=11 v=32
36900 Par ch=7 c=11 v=31
36908 Par ch=7 c=11 v=30
36912 Par ch=7 c=11 v=29
36920 Par ch=7 c=11 v=28
36928 Par ch=7 c=11 v=27
36936 Par ch=7 c=11 v=26
36940 Par ch=7 c=11 v=25
36948 Par ch=7 c=11 v=24
36956 Par ch=7 c=11 v=23
36960 Par ch=7 c=11 v=22
36968 Par ch=7 c=11 v=21
36976 Par ch=7 c=11 v=20
36984 Par ch=7 c=11 v=19
36988 Par ch=7 c=11 v=18
36996 Par ch=7 c=11 v=17
37004 Par ch=7 c=11 v=16
37008 Par ch=7 c=11 v=15
37016 Par ch=7 c=11 v=14
37024 Par ch=7 c=11 v=13
37032 Par ch=7 c=11 v=12
37036 Par ch=7 c=11 v=11
37044 Par ch=7 c=11 v=10
37052 Par ch=7 c=11 v=9
37056 On ch=7 n=53 v=0
37056 Par ch=7 c=11 v=8
37056 On ch=7 n=54 v=95
37094 On ch=7 n=54 v=0
37094 On ch=7 n=50 v=0
37248 Par ch=7 c=11 v=64
37248 Par ch=7 c=0 v=0
37248 Par ch=7 c=32 v=0
37248 PrCh ch=7 p=48
44928 On ch=7 n=55 v=15
45235 On ch=7 n=55 v=0
45312 On ch=7 n=55 v=15
45312 On ch=7 n=48 v=15
45466 On ch=7 n=48 v=0
45466 On ch=7 n=55 v=0
45504 On ch=7 n=60 v=15
45504 On ch=7 n=55 v=15
45581 On ch=7 n=55 v=0
45581 On ch=7 n=60 v=0
45600 On ch=7 n=62 v=15
45600 On ch=7 n=55 v=15
45677 On ch=7 n=55 v=0
45677 On ch=7 n=62 v=0
45696 On ch=7 n=60 v=15
45696 On ch=7 n=55 v=15
45926 On ch=7 n=55 v=0
45926 On ch=7 n=60 v=0
45984 On ch=7 n=62 v=15
45984 On ch=7 n=55 v=15
46061 On ch=7 n=55 v=0
46061 On ch=7 n=62 v=0
46080 On ch=7 n=55 v=15
46080 On ch=7 n=60 v=15
46310 On ch=7 n=60 v=0
46310 On ch=7 n=55 v=0
46368 On ch=7 n=62 v=15
46368 On ch=7 n=55 v=15
46445 On ch=7 n=55 v=0
46445 On ch=7 n=62 v=0
46464 On ch=7 n=60 v=15
46464 On ch=7 n=55 v=15
46771 On ch=7 n=55 v=0
46771 On ch=7 n=60 v=0
46848 Par ch=7 c=11 v=64
46848 On ch=7 n=52 v=15
46848 On ch=7 n=57 v=15
46872 Par ch=7 c=11 v=63
46896 Par ch=7 c=11 v=62
46916 Par ch=7 c=11 v=61
46940 Par ch=7 c=11 v=60
46964 Par ch=7 c=11 v=59
46984 Par ch=7 c=11 v=58
47008 Par ch=7 c=11 v=57
47032 Par ch=7 c=11 v=56
47052 Par ch=7 c=11 v=55
47076 Par ch=7 c=11 v=54
47100 Par ch=7 c=11 v=53
47120 Par ch=7 c=11 v=52
47144 Par ch=7 c=11 v=51
47155 On ch=7 n=57 v=0
47155 On ch=7 n=52 v=0
47168 Par ch=7 c=11 v=50
47188 Par ch=7 c=11 v=49
47212 Par ch=7 c=11 v=48
47232 Par ch=7 c=11 v=64
47232 On ch=7 n=48 v=15
47232 On ch=7 n=57 v=15
47923 On ch=7 n=57 v=0
47923 On ch=7 n=48 v=0
49536 On ch=7 n=71 v=15
49536 On ch=7 n=59 v=15
49728 On ch=7 n=59 v=0
49728 On ch=7 n=71 v=0
49728 On ch=7 n=66 v=15
49728 On ch=7 n=54 v=15
49882 On ch=7 n=54 v=0
49882 On ch=7 n=66 v=0
49920 On ch=7 n=59 v=15
49920 On ch=7 n=71 v=15
50112 On ch=7 n=71 v=0
50112 On ch=7 n=59 v=0
50112 On ch=7 n=66 v=15
50112 On ch=7 n=54 v=15
50304 On ch=7 n=54 v=0
50304 On ch=7 n=66 v=0
50304 On ch=7 n=68 v=15
50304 On ch=7 n=56 v=15
50381 On ch=7 n=56 v=0
50381 On ch=7 n=68 v=0
51072 On ch=7 n=59 v=31
51120 On ch=7 n=59 v=0
51120 On ch=7 n=73 v=31
51168 On ch=7 n=73 v=0
51168 On ch=7 n=71 v=31
51312 On ch=7 n=71 v=0
51312 On ch=7 n=68 v=31
51360 On ch=7 n=68 v=0
51360 On ch=7 n=66 v=31
51408 On ch=7 n=66 v=0
51408 On ch=7 n=63 v=31
51446 On ch=7 n=63 v=0
51456 On ch=7 n=59 v=31
51504 On ch=7 n=59 v=0
51504 On ch=7 n=73 v=31
51552 On ch=7 n=73 v=0
51552 On ch=7 n=71 v=31
51696 On ch=7 n=71 v=0
51696 On ch=7 n=68 v=31
51744 On ch=7 n=68 v=0
51744 On ch=7 n=66 v=31
51792 On ch=7 n=66 v=0
51792 On ch=7 n=63 v=31
51840 On ch=7 n=63 v=0
51840 On ch=7 n=59 v=31
51917 On ch=7 n=59 v=0
55680 On ch=7 n=59 v=15
55728 On ch=7 n=59 v=0
55728 On ch=7 n=72 v=15
55776 On ch=7 n=72 v=0
55776 On ch=7 n=71 v=15
55920 On ch=7 n=71 v=0
55920 On ch=7 n=64 v=15
55968 On ch=7 n=64 v=0
55968 On ch=7 n=66 v=15
56016 On ch=7 n=66 v=0
56016 On ch=7 n=64 v=15
56064 On ch=7 n=64 v=0
56064 On ch=7 n=67 v=15
56112 On ch=7 n=67 v=0
56112 On ch=7 n=64 v=15
56160 On ch=7 n=64 v=0
56160 On ch=7 n=66 v=15
56208 On ch=7 n=66 v=0
56208 On ch=7 n=64 v=15
56256 On ch=7 n=64 v=0
56256 On ch=7 n=67 v=15
56304 On ch=7 n=67 v=0
56304 On ch=7 n=64 v=15
56352 On ch=7 n=64 v=0
56352 On ch=7 n=69 v=15
56400 On ch=7 n=69 v=0
56400 On ch=7 n=64 v=15
56448 On ch=7 n=64 v=0
56448 On ch=7 n=71 v=15
56496 On ch=7 n=71 v=0
56496 On ch=7 n=64 v=15
56544 On ch=7 n=64 v=0
56544 On ch=7 n=63 v=15
56592 On ch=7 n=63 v=0
56592 On ch=7 n=64 v=15
56640 On ch=7 n=64 v=0
56640 On ch=7 n=59 v=15
56688 On ch=7 n=59 v=0
56688 On ch=7 n=64 v=15
56736 On ch=7 n=64 v=0
56736 On ch=7 n=66 v=15
56784 On ch=7 n=66 v=0
56784 On ch=7 n=64 v=15
56832 On ch=7 n=64 v=0
56832 On ch=7 n=67 v=15
56880 On ch=7 n=67 v=0
56880 On ch=7 n=64 v=15
56928 On ch=7 n=64 v=0
56928 On ch=7 n=63 v=15
56976 On ch=7 n=63 v=0
56976 On ch=7 n=64 v=15
57024 On ch=7 n=64 v=0
57024 On ch=7 n=67 v=15
57072 On ch=7 n=67 v=0
57072 On ch=7 n=64 v=15
57120 On ch=7 n=64 v=0
57120 On ch=7 n=69 v=15
57168 On ch=7 n=69 v=0
57168 On ch=7 n=64 v=15
57216 On ch=7 n=64 v=0
57216 On ch=7 n=67 v=15
57264 On ch=7 n=67 v=0
57264 On ch=7 n=64 v=15
57312 On ch=7 n=64 v=0
57312 On ch=7 n=63 v=15
57360 On ch=7 n=63 v=0
57360 On ch=7 n=64 v=15
57408 On ch=7 n=64 v=0
57408 On ch=7 n=59 v=15
57456 On ch=7 n=59 v=0
57456 On ch=7 n=64 v=15
57504 On ch=7 n=64 v=0
57504 On ch=7 n=59 v=15
57552 On ch=7 n=59 v=0
57552 On ch=7 n=64 v=15
57600 On ch=7 n=64 v=0
57600 On ch=7 n=59 v=15
57648 On ch=7 n=59 v=0
57648 On ch=7 n=64 v=15
57696 On ch=7 n=64 v=0
57696 On ch=7 n=63 v=15
57744 On ch=7 n=63 v=0
57744 On ch=7 n=64 v=15
57792 On ch=7 n=64 v=0
57792 On ch=7 n=67 v=15
57840 On ch=7 n=67 v=0
57840 On ch=7 n=64 v=15
57888 On ch=7 n=64 v=0
57888 On ch=7 n=69 v=15
57936 On ch=7 n=69 v=0
57936 On ch=7 n=64 v=15
57984 On ch=7 n=64 v=0
57984 On ch=7 n=67 v=15
58032 On ch=7 n=67 v=0
58032 On ch=7 n=64 v=15
58080 On ch=7 n=64 v=0
58080 On ch=7 n=63 v=15
58128 On ch=7 n=63 v=0
58128 On ch=7 n=64 v=15
58176 On ch=7 n=64 v=0
58176 On ch=7 n=66 v=15
58224 On ch=7 n=66 v=0
58224 On ch=7 n=64 v=15
58272 On ch=7 n=64 v=0
58272 On ch=7 n=69 v=15
58320 On ch=7 n=69 v=0
58320 On ch=7 n=64 v=15
58368 On ch=7 n=64 v=0
58368 On ch=7 n=71 v=15
58416 On ch=7 n=71 v=0
58416 On ch=7 n=64 v=15
58464 On ch=7 n=64 v=0
58464 On ch=7 n=63 v=15
58512 On ch=7 n=63 v=0
58512 On ch=7 n=64 v=15
58560 On ch=7 n=64 v=0
58560 On ch=7 n=66 v=15
58608 On ch=7 n=66 v=0
58608 On ch=7 n=64 v=15
58656 On ch=7 n=64 v=0
58656 On ch=7 n=67 v=15
58704 On ch=7 n=67 v=0
58704 On ch=7 n=64 v=15
58752 On ch=7 n=64 v=0
58752 On ch=7 n=69 v=15
58800 On ch=7 n=69 v=0
58800 On ch=7 n=64 v=15
58848 On ch=7 n=64 v=0
58848 On ch=7 n=63 v=15
58896 On ch=7 n=63 v=0
58896 On ch=7 n=64 v=15
58944 On ch=7 n=64 v=0
58944 On ch=7 n=67 v=15
58992 On ch=7 n=67 v=0
58992 On ch=7 n=64 v=15
59040 On ch=7 n=64 v=0
59040 On ch=7 n=69 v=15
59088 On ch=7 n=69 v=0
59088 On ch=7 n=64 v=15
59136 On ch=7 n=64 v=0
59136 On ch=7 n=71 v=15
59184 On ch=7 n=71 v=0
59184 On ch=7 n=64 v=15
59232 On ch=7 n=64 v=0
59232 On ch=7 n=66 v=15
59280 On ch=7 n=66 v=0
59280 On ch=7 n=64 v=15
59328 On ch=7 n=64 v=0
59328 On ch=7 n=67 v=15
59376 On ch=7 n=67 v=0
59376 On ch=7 n=64 v=15
59424 On ch=7 n=64 v=0
59424 On ch=7 n=69 v=15
59472 On ch=7 n=69 v=0
59472 On ch=7 n=64 v=15
59520 On ch=7 n=64 v=0
59520 On ch=7 n=67 v=15
59568 On ch=7 n=67 v=0
59568 On ch=7 n=64 v=15
59616 On ch=7 n=64 v=0
59616 On ch=7 n=71 v=15
59664 On ch=7 n=71 v=0
59664 On ch=7 n=64 v=15
59712 On ch=7 n=64 v=0
59712 On ch=7 n=72 v=15
59760 On ch=7 n=72 v=0
59760 On ch=7 n=64 v=15
59808 On ch=7 n=64 v=0
59808 On ch=7 n=69 v=15
59856 On ch=7 n=69 v=0
59856 On ch=7 n=64 v=15
59904 On ch=7 n=64 v=0
59904 On ch=7 n=67 v=15
59952 On ch=7 n=67 v=0
59952 On ch=7 n=64 v=15
60000 On ch=7 n=64 v=0
60000 On ch=7 n=63 v=15
60048 On ch=7 n=63 v=0
60048 On ch=7 n=64 v=15
60096 On ch=7 n=64 v=0
60096 On ch=7 n=60 v=15
60144 On ch=7 n=60 v=0
60144 On ch=7 n=64 v=15
60192 On ch=7 n=64 v=0
60192 On ch=7 n=58 v=15
60240 On ch=7 n=58 v=0
60240 On ch=7 n=64 v=15
60288 On ch=7 n=64 v=0
60288 On ch=7 n=59 v=15
60336 On ch=7 n=59 v=0
60336 On ch=7 n=66 v=15
60384 On ch=7 n=66 v=0
60384 On ch=7 n=64 v=15
60432 On ch=7 n=64 v=0
60432 On ch=7 n=62 v=15
60480 On ch=7 n=62 v=0
60480 On ch=7 n=60 v=15
60528 On ch=7 n=60 v=0
60528 On ch=7 n=59 v=15
60576 On ch=7 n=59 v=0
60576 On ch=7 n=58 v=15
60624 On ch=7 n=58 v=0
60624 On ch=7 n=55 v=15
60672 On ch=7 n=55 v=0
60672 On ch=7 n=54 v=15
60720 On ch=7 n=54 v=0
60720 On ch=7 n=58 v=15
60768 On ch=7 n=58 v=0
60768 On ch=7 n=59 v=15
60816 On ch=7 n=59 v=0
60816 On ch=7 n=60 v=15
60864 On ch=7 n=60 v=0
60864 On ch=7 n=62 v=15
60912 On ch=7 n=62 v=0
60912 On ch=7 n=56 v=15
60960 On ch=7 n=56 v=0
60960 On ch=7 n=57 v=15
61008 On ch=7 n=57 v=0
61008 On ch=7 n=59 v=15
61056 On ch=7 n=59 v=0
61056 On ch=7 n=60 v=15
61104 On ch=7 n=60 v=0
61104 On ch=7 n=62 v=15
61152 On ch=7 n=62 v=0
61152 On ch=7 n=64 v=15
61200 On ch=7 n=64 v=0
61200 Par ch=7 c=11 v=64
61200 On ch=7 n=67 v=15
61216 Par ch=7 c=11 v=63
61232 Par ch=7 c=11 v=62
61244 Par ch=7 c=11 v=61
61248 On ch=7 n=67 v=0
61248 On ch=7 n=66 v=15
61260 Par ch=7 c=11 v=60
61272 Par ch=7 c=11 v=59
61288 Par ch=7 c=11 v=58
61296 On ch=7 n=66 v=0
61296 On ch=7 n=63 v=15
61300 Par ch=7 c=11 v=57
61316 Par ch=7 c=11 v=56
61328 Par ch=7 c=11 v=55
61344 On ch=7 n=63 v=0
61344 Par ch=7 c=11 v=54
61344 On ch=7 n=64 v=15
61356 Par ch=7 c=11 v=53
61372 Par ch=7 c=11 v=52
61384 Par ch=7 c=11 v=51
61392 On ch=7 n=64 v=0
61392 On ch=7 n=66 v=15
61400 Par ch=7 c=11 v=50
61412 Par ch=7 c=11 v=49
61428 Par ch=7 c=11 v=48
61430 On ch=7 n=66 v=0
61824 Par ch=7 c=11 v=64
65664 Par ch=7 c=0 v=0
65664 Par ch=7 c=32 v=0
65664 PrCh ch=7 p=44
65664 Par ch=7 c=11 v=64
65664 On ch=7 n=57 v=47
65672 Par ch=7 c=11 v=65
65680 Par ch=7 c=11 v=66
65684 Par ch=7 c=11 v=67
65692 Par ch=7 c=11 v=68
65696 Par ch=7 c=11 v=69
65702 On ch=7 n=57 v=0
65704 Par ch=7 c=11 v=70
65708 Par ch=7 c=11 v=71
65712 On ch=7 n=59 v=47
65716 Par ch=7 c=11 v=72
65720 Par ch=7 c=11 v=73
65728 Par ch=7 c=11 v=74
65732 Par ch=7 c=11 v=75
65740 Par ch=7 c=11 v=76
65744 Par ch=7 c=11 v=77
65750 On ch=7 n=59 v=0
65752 Par ch=7 c=11 v=78
65756 Par ch=7 c=11 v=79
65760 On ch=7 n=60 v=47
65764 Par ch=7 c=11 v=80
65768 Par ch=7 c=11 v=81
65776 Par ch=7 c=11 v=82
65780 Par ch=7 c=11 v=83
65788 Par ch=7 c=11 v=84
65792 Par ch=7 c=11 v=85
65798 On ch=7 n=60 v=0
65800 Par ch=7 c=11 v=86
65808 Par ch=7 c=11 v=87
65808 On ch=7 n=62 v=47
65812 Par ch=7 c=11 v=88
65820 Par ch=7 c=11 v=89
65824 Par ch=7 c=11 v=90
65832 Par ch=7 c=11 v=91
65836 Par ch=7 c=11 v=92
65844 Par ch=7 c=11 v=93
65846 On ch=7 n=62 v=0
65848 Par ch=7 c=11 v=94
65856 Par ch=7 c=11 v=95
65856 On ch=7 n=64 v=47
65860 Par ch=7 c=11 v=96
65868 Par ch=7 c=11 v=97
65872 Par ch=7 c=11 v=98
65880 Par ch=7 c=11 v=99
65884 Par ch=7 c=11 v=100
65892 Par ch=7 c=11 v=101
65894 On ch=7 n=64 v=0
65896 Par ch=7 c=11 v=102
65904 Par ch=7 c=11 v=103
65904 On ch=7 n=66 v=47
65908 Par ch=7 c=11 v=104
65916 Par ch=7 c=11 v=105
65920 Par ch=7 c=11 v=106
65928 Par ch=7 c=11 v=107
65936 Par ch=7 c=11 v=108
65940 Par ch=7 c=11 v=109
65942 On ch=7 n=66 v=0
65948 Par ch=7 c=11 v=110
65952 Par ch=7 c=11 v=111
65952 On ch=7 n=68 v=47
65960 Par ch=7 c=11 v=112
65964 Par ch=7 c=11 v=113
65972 Par ch=7 c=11 v=114
65976 Par ch=7 c=11 v=115
65984 Par ch=7 c=11 v=116
65988 Par ch=7 c=11 v=117
65990 On ch=7 n=68 v=0
65996 Par ch=7 c=11 v=118
66000 Par ch=7 c=11 v=119
66000 On ch=7 n=64 v=47
66008 Par ch=7 c=11 v=120
66012 Par ch=7 c=11 v=121
66020 Par ch=7 c=11 v=122
66024 Par ch=7 c=11 v=123
66032 Par ch=7 c=11 v=124
66036 Par ch=7 c=11 v=125
66038 On ch=7 n=64 v=0
66044 Par ch=7 c=11 v=126
66048 Par ch=7 c=11 v=126
66048 On ch=7 n=69 v=47
66056 Par ch=7 c=11 v=125
66060 Par ch=7 c=11 v=124
66068 Par ch=7 c=11 v=123
66072 Par ch=7 c=11 v=122
66080 Par ch=7 c=11 v=121
66084 Par ch=7 c=11 v=120
66086 On ch=7 n=69 v=0
66092 Par ch=7 c=11 v=119
66096 Par ch=7 c=11 v=118
66096 On ch=7 n=67 v=47
66104 Par ch=7 c=11 v=117
66108 Par ch=7 c=11 v=116
66116 Par ch=7 c=11 v=115
66120 Par ch=7 c=11 v=114
66128 Par ch=7 c=11 v=113
66132 Par ch=7 c=11 v=112
66134 On ch=7 n=67 v=0
66140 Par ch=7 c=11 v=111
66144 Par ch=7 c=11 v=110
66144 On ch=7 n=65 v=47
66152 Par ch=7 c=11 v=109
66156 Par ch=7 c=11 v=108
66164 Par ch=7 c=11 v=107
66168 Par ch=7 c=11 v=106
66176 Par ch=7 c=11 v=105
66180 Par ch=7 c=11 v=104
66182 On ch=7 n=65 v=0
66188 Par ch=7 c=11 v=103
66192 Par ch=7 c=11 v=102
66192 On ch=7 n=64 v=47
66200 Par ch=7 c=11 v=101
66204 Par ch=7 c=11 v=100
66212 Par ch=7 c=11 v=99
66216 Par ch=7 c=11 v=98
66224 Par ch=7 c=11 v=97
66228 Par ch=7 c=11 v=96
66230 On ch=7 n=64 v=0
66236 Par ch=7 c=11 v=95
66240 Par ch=7 c=11 v=94
66240 On ch=7 n=62 v=47
66248 Par ch=7 c=11 v=93
66252 Par ch=7 c=11 v=92
66260 Par ch=7 c=11 v=91
66264 Par ch=7 c=11 v=90
66272 Par ch=7 c=11 v=89
66276 Par ch=7 c=11 v=88
66278 On ch=7 n=62 v=0
66284 Par ch=7 c=11 v=87
66288 Par ch=7 c=11 v=86
66288 On ch=7 n=60 v=47
66296 Par ch=7 c=11 v=85
66300 Par ch=7 c=11 v=84
66308 Par ch=7 c=11 v=83
66312 Par ch=7 c=11 v=82
66320 Par ch=7 c=11 v=81
66324 Par ch=7 c=11 v=80
66326 On ch=7 n=60 v=0
66332 Par ch=7 c=11 v=79
66336 Par ch=7 c=11 v=78
66336 On ch=7 n=59 v=47
66344 Par ch=7 c=11 v=77
66348 Par ch=7 c=11 v=76
66356 Par ch=7 c=11 v=75
66360 Par ch=7 c=11 v=74
66368 Par ch=7 c=11 v=73
66372 Par ch=7 c=11 v=72
66374 On ch=7 n=59 v=0
66380 Par ch=7 c=11 v=71
66384 Par ch=7 c=11 v=70
66384 On ch=7 n=57 v=47
66392 Par ch=7 c=11 v=69
66396 Par ch=7 c=11 v=68
66404 Par ch=7 c=11 v=67
66408 Par ch=7 c=11 v=66
66416 Par ch=7 c=11 v=65
66420 Par ch=7 c=11 v=64
66422 On ch=7 n=57 v=0
66432 Par ch=7 c=11 v=64
66432 On ch=7 n=53 v=47
66440 Par ch=7 c=11 v=65
66448 Par ch=7 c=11 v=66
66452 Par ch=7 c=11 v=67
66460 Par ch=7 c=11 v=68
66464 Par ch=7 c=11 v=69
66470 On ch=7 n=53 v=0
66472 Par ch=7 c=11 v=70
66476 Par ch=7 c=11 v=71
66480 On ch=7 n=55 v=47
66484 Par ch=7 c=11 v=72
66488 Par ch=7 c=11 v=73
66496 Par ch=7 c=11 v=74
66500 Par ch=7 c=11 v=75
66508 Par ch=7 c=11 v=76
66512 Par ch=7 c=11 v=77
66518 On ch=7 n=55 v=0
66520 Par ch=7 c=11 v=78
66524 Par ch=7 c=11 v=79
66528 On ch=7 n=57 v=47
66532 Par ch=7 c=11 v=80
66536 Par ch=7 c=11 v=81
66544 Par ch=7 c=11 v=82
66548 Par ch=7 c=11 v=83
66556 Par ch=7 c=11 v=84
66560 Par ch=7 c=11 v=85
66566 On ch=7 n=57 v=0
66568 Par ch=7 c=11 v=86
66576 Par ch=7 c=11 v=87
66576 On ch=7 n=58 v=47
66580 Par ch=7 c=11 v=88
66588 Par ch=7 c=11 v=89
66592 Par ch=7 c=11 v=90
66600 Par ch=7 c=11 v=91
66604 Par ch=7 c=11 v=92
66612 Par ch=7 c=11 v=93
66614 On ch=7 n=58 v=0
66616 Par ch=7 c=11 v=94
66624 Par ch=7 c=11 v=95
66624 On ch=7 n=60 v=47
66628 Par ch=7 c=11 v=96
66636 Par ch=7 c=11 v=97
66640 Par ch=7 c=11 v=98
66648 Par ch=7 c=11 v=99
66652 Par ch=7 c=11 v=100
66660 Par ch=7 c=11 v=101
66662 On ch=7 n=60 v=0
66664 Par ch=7 c=11 v=102
66672 Par ch=7 c=11 v=103
66672 On ch=7 n=62 v=47
66676 Par ch=7 c=11 v=104
66684 Par ch=7 c=11 v=105
66688 Par ch=7 c=11 v=106
66696 Par ch=7 c=11 v=107
66704 Par ch=7 c=11 v=108
66708 Par ch=7 c=11 v=109
66710 On ch=7 n=62 v=0
66716 Par ch=7 c=11 v=110
66720 Par ch=7 c=11 v=111
66720 On ch=7 n=64 v=47
66728 Par ch=7 c=11 v=112
66732 Par ch=7 c=11 v=113
66740 Par ch=7 c=11 v=114
66744 Par ch=7 c=11 v=115
66752 Par ch=7 c=11 v=116
66756 Par ch=7 c=11 v=117
66758 On ch=7 n=64 v=0
66764 Par ch=7 c=11 v=118
66768 Par ch=7 c=11 v=119
66768 On ch=7 n=60 v=47
66776 Par ch=7 c=11 v=120
66780 Par ch=7 c=11 v=121
66788 Par ch=7 c=11 v=122
66792 Par ch=7 c=11 v=123
66800 Par ch=7 c=11 v=124
66804 Par ch=7 c=11 v=125
66806 On ch=7 n=60 v=0
66812 Par ch=7 c=11 v=126
66816 Par ch=7 c=11 v=126
66816 On ch=7 n=65 v=47
66824 Par ch=7 c=11 v=125
66828 Par ch=7 c=11 v=124
66832 Par ch=7 c=11 v=123
66836 Par ch=7 c=11 v=122
66840 Par ch=7 c=11 v=121
66844 Par ch=7 c=11 v=120
66852 Par ch=7 c=11 v=119
66854 On ch=7 n=65 v=0
66856 Par ch=7 c=11 v=118
66860 Par ch=7 c=11 v=117
66864 Par ch=7 c=11 v=116
66864 On ch=7 n=64 v=47
66868 Par ch=7 c=11 v=115
66872 Par ch=7 c=11 v=114
66880 Par ch=7 c=11 v=113
66884 Par ch=7 c=11 v=112
66888 Par ch=7 c=11 v=111
66892 Par ch=7 c=11 v=110
66896 Par ch=7 c=11 v=109
66900 Par ch=7 c=11 v=108
66902 On ch=7 n=64 v=0
66908 Par ch=7 c=11 v=107
66912 Par ch=7 c=11 v=106
66912 On ch=7 n=62 v=47
66916 Par ch=7 c=11 v=105
66920 Par ch=7 c=11 v=104
66924 Par ch=7 c=11 v=103
66928 Par ch=7 c=11 v=102
66936 Par ch=7 c=11 v=101
66940 Par ch=7 c=11 v=100
66944 Par ch=7 c=11 v=99
66948 Par ch=7 c=11 v=98
66950 On ch=7 n=62 v=0
66952 Par ch=7 c=11 v=97
66956 Par ch=7 c=11 v=96
66960 Par ch=7 c=11 v=95
66960 On ch=7 n=60 v=47
66968 Par ch=7 c=11 v=94
66972 Par ch=7 c=11 v=93
66976 Par ch=7 c=11 v=92
66980 Par ch=7 c=11 v=91
66984 Par ch=7 c=11 v=90
66988 Par ch=7 c=11 v=89
66996 Par ch=7 c=11 v=88
66998 On ch=7 n=60 v=0
67000 Par ch=7 c=11 v=87
67004 Par ch=7 c=11 v=86
67008 Par ch=7 c=11 v=85
67008 On ch=7 n=58 v=47
67012 Par ch=7 c=11 v=84
67016 Par ch=7 c=11 v=83
67024 Par ch=7 c=11 v=82
67028 Par ch=7 c=11 v=81
67032 Par ch=7 c=11 v=80
67036 Par ch=7 c=11 v=79
67040 Par ch=7 c=11 v=78
67044 Par ch=7 c=11 v=77
67046 On ch=7 n=58 v=0
67052 Par ch=7 c=11 v=76
67056 Par ch=7 c=11 v=75
67056 On ch=7 n=57 v=47
67060 Par ch=7 c=11 v=74
67064 Par ch=7 c=11 v=73
67068 Par ch=7 c=11 v=72
67072 Par ch=7 c=11 v=71
67080 Par ch=7 c=11 v=70
67084 Par ch=7 c=11 v=69
67088 Par ch=7 c=11 v=68
67092 Par ch=7 c=11 v=67
67094 On ch=7 n=57 v=0
67096 Par ch=7 c=11 v=66
67100 Par ch=7 c=11 v=65
67104 Par ch=7 c=11 v=64
67104 On ch=7 n=55 v=47
67142 On ch=7 n=55 v=0
67152 On ch=7 n=53 v=47
67190 On ch=7 n=53 v=0
67872 Par ch=7 c=0 v=0
67872 Par ch=7 c=32 v=0
67872 PrCh ch=7 p=48
67872 On ch=7 n=69 v=111
67872 On ch=7 n=64 v=111
67872 On ch=7 n=61 v=111
67910 On ch=7 n=61 v=0
67910 On ch=7 n=64 v=0
67910 On ch=7 n=69 v=0
67968 On ch=7 n=69 v=111
67968 On ch=7 n=62 v=111
67968 On ch=7 n=66 v=111
68006 On ch=7 n=66 v=0
68006 On ch=7 n=62 v=0
68006 On ch=7 n=69 v=0
68160 On ch=7 n=69 v=111
68160 On ch=7 n=62 v=111
68160 On ch=7 n=57 v=111
68198 On ch=7 n=57 v=0
68198 On ch=7 n=62 v=0
68198 On ch=7 n=69 v=0
68256 On ch=7 n=69 v=111
68256 On ch=7 n=64 v=111
68256 On ch=7 n=57 v=111
68294 On ch=7 n=57 v=0
68294 On ch=7 n=64 v=0
68294 On ch=7 n=69 v=0
68352 On ch=7 n=69 v=111
68352 On ch=7 n=66 v=111
68352 On ch=7 n=62 v=111
68390 On ch=7 n=62 v=0
68390 On ch=7 n=66 v=0
68390 On ch=7 n=69 v=0
68544 On ch=7 n=71 v=111
68544 On ch=7 n=66 v=111
68544 On ch=7 n=62 v=111
68582 On ch=7 n=62 v=0
68582 On ch=7 n=66 v=0
68582 On ch=7 n=71 v=0
68736 On ch=7 n=61 v=95
68813 On ch=7 n=61 v=0
68832 On ch=7 n=60 v=95
68909 On ch=7 n=60 v=0
68928 On ch=7 n=59 v=95
69005 On ch=7 n=59 v=0
69024 On ch=7 n=58 v=95
69050 On ch=7 n=58 v=0
69056 On ch=7 n=57 v=95
69082 On ch=7 n=57 v=0
69088 On ch=7 n=56 v=95
69114 On ch=7 n=56 v=0
69120 On ch=7 n=59 v=95
69197 On ch=7 n=59 v=0
69216 On ch=7 n=58 v=95
69293 On ch=7 n=58 v=0
69312 On ch=7 n=57 v=95
69389 On ch=7 n=57 v=0
69408 On ch=7 n=56 v=95
69434 On ch=7 n=56 v=0
69440 On ch=7 n=54 v=95
69466 On ch=7 n=54 v=0
69472 On ch=7 n=52 v=95
69498 On ch=7 n=52 v=0
69504 On ch=7 n=59 v=95
69581 On ch=7 n=59 v=0
69600 On ch=7 n=58 v=95
69677 On ch=7 n=58 v=0
69696 On ch=7 n=57 v=95
69773 On ch=7 n=57 v=0
69792 On ch=7 n=56 v=95
69818 On ch=7 n=56 v=0
69824 On ch=7 n=54 v=95
69850 On ch=7 n=54 v=0
69856 On ch=7 n=52 v=95
69882 On ch=7 n=52 v=0
69888 On ch=7 n=57 v=95
69965 On ch=7 n=57 v=0
69984 On ch=7 n=56 v=95
70061 On ch=7 n=56 v=0
70080 On ch=7 n=54 v=95
70157 On ch=7 n=54 v=0
70176 On ch=7 n=52 v=95
70202 On ch=7 n=52 v=0
70208 On ch=7 n=51 v=95
70234 On ch=7 n=51 v=0
70240 On ch=7 n=49 v=95
70266 On ch=7 n=49 v=0
70272 On ch=7 n=57 v=95
70349 On ch=7 n=57 v=0
70368 On ch=7 n=56 v=95
70445 On ch=7 n=56 v=0
70464 On ch=7 n=54 v=95
70541 On ch=7 n=54 v=0
70560 On ch=7 n=52 v=95
70586 On ch=7 n=52 v=0
70592 On ch=7 n=51 v=95
70618 On ch=7 n=51 v=0
70624 On ch=7 n=50 v=95
70650 On ch=7 n=50 v=0
70656 Par ch=7 c=11 v=64
70656 On ch=7 n=61 v=95
70680 Par ch=7 c=11 v=63
70694 On ch=7 n=61 v=0
70704 Par ch=7 c=11 v=62
70724 Par ch=7 c=11 v=61
70728 On ch=7 n=60 v=95
70747 On ch=7 n=60 v=0
70748 Par ch=7 c=11 v=60
70752 On ch=7 n=59 v=95
70772 Par ch=7 c=11 v=59
70790 On ch=7 n=59 v=0
70792 Par ch=7 c=11 v=58
70816 Par ch=7 c=11 v=57
70824 On ch=7 n=58 v=95
70840 Par ch=7 c=11 v=56
70843 On ch=7 n=58 v=0
70848 On ch=7 n=57 v=95
70860 Par ch=7 c=11 v=55
70884 Par ch=7 c=11 v=54
70886 On ch=7 n=57 v=0
70908 Par ch=7 c=11 v=53
70920 On ch=7 n=56 v=95
70928 Par ch=7 c=11 v=52
70939 On ch=7 n=56 v=0
70944 On ch=7 n=54 v=95
70952 Par ch=7 c=11 v=51
70976 Par ch=7 c=11 v=50
70982 On ch=7 n=54 v=0
70996 Par ch=7 c=11 v=49
71016 On ch=7 n=52 v=95
71020 Par ch=7 c=11 v=48
71035 On ch=7 n=52 v=0
71040 Par ch=7 c=11 v=64
71040 On ch=7 n=61 v=95
71064 Par ch=7 c=11 v=63
71078 On ch=7 n=61 v=0
71088 Par ch=7 c=11 v=62
71108 Par ch=7 c=11 v=61
71112 On ch=7 n=60 v=95
71131 On ch=7 n=60 v=0
71132 Par ch=7 c=11 v=60
71136 On ch=7 n=59 v=95
71156 Par ch=7 c=11 v=59
71174 On ch=7 n=59 v=0
71176 Par ch=7 c=11 v=58
71200 Par ch=7 c=11 v=57
71208 On ch=7 n=58 v=95
71224 Par ch=7 c=11 v=56
71227 On ch=7 n=58 v=0
71232 On ch=7 n=57 v=95
71244 Par ch=7 c=11 v=55
71268 Par ch=7 c=11 v=54
71270 On ch=7 n=57 v=0
71292 Par ch=7 c=11 v=53
71304 On ch=7 n=56 v=95
71312 Par ch=7 c=11 v=52
71323 On ch=7 n=56 v=0
71328 On ch=7 n=54 v=95
71336 Par ch=7 c=11 v=51
71360 Par ch=7 c=11 v=50
71366 On ch=7 n=54 v=0
71380 Par ch=7 c=11 v=49
71400 On ch=7 n=52 v=95
71404 Par ch=7 c=11 v=48
71419 On ch=7 n=52 v=0
71424 Par ch=7 c=11 v=64
71424 On ch=7 n=61 v=95
71450 On ch=7 n=61 v=0
71456 On ch=7 n=57 v=47
71482 On ch=7 n=57 v=0
71488 On ch=7 n=64 v=47
71514 On ch=7 n=64 v=0
71520 On ch=7 n=59 v=47
71546 On ch=7 n=59 v=0
71552 On ch=7 n=56 v=47
71578 On ch=7 n=56 v=0
71584 On ch=7 n=64 v=47
71610 On ch=7 n=64 v=0
71616 On ch=7 n=57 v=47
71642 On ch=7 n=57 v=0
71648 On ch=7 n=54 v=47
71674 On ch=7 n=54 v=0
71680 On ch=7 n=62 v=47
71706 On ch=7 n=62 v=0
71712 On ch=7 n=56 v=47
71738 On ch=7 n=56 v=0
71744 On ch=7 n=49 v=47
71770 On ch=7 n=49 v=0
71776 On ch=7 n=61 v=47
71802 On ch=7 n=61 v=0
71808 On ch=7 n=62 v=95
71834 On ch=7 n=62 v=0
71840 On ch=7 n=59 v=47
71866 On ch=7 n=59 v=0
71872 On ch=7 n=68 v=47
71898 On ch=7 n=68 v=0
71904 On ch=7 n=61 v=47
71930 On ch=7 n=61 v=0
71936 On ch=7 n=57 v=47
71962 On ch=7 n=57 v=0
71968 On ch=7 n=66 v=47
71994 On ch=7 n=66 v=0
72000 On ch=7 n=59 v=47
72026 On ch=7 n=59 v=0
72032 On ch=7 n=56 v=47
72058 On ch=7 n=56 v=0
72064 On ch=7 n=64 v=47
72090 On ch=7 n=64 v=0
72096 On ch=7 n=57 v=47
72122 On ch=7 n=57 v=0
72128 On ch=7 n=54 v=47
72154 On ch=7 n=54 v=0
72160 On ch=7 n=62 v=47
72186 On ch=7 n=62 v=0
72192 On ch=7 n=64 v=95
72218 On ch=7 n=64 v=0
72224 On ch=7 n=61 v=47
72250 On ch=7 n=61 v=0
72256 On ch=7 n=69 v=47
72282 On ch=7 n=69 v=0
72288 On ch=7 n=62 v=47
72314 On ch=7 n=62 v=0
72320 On ch=7 n=59 v=47
72346 On ch=7 n=59 v=0
72352 On ch=7 n=68 v=47
72378 On ch=7 n=68 v=0
72384 On ch=7 n=66 v=95
72410 On ch=7 n=66 v=0
72416 On ch=7 n=62 v=47
72442 On ch=7 n=62 v=0
72448 On ch=7 n=71 v=47
72474 On ch=7 n=71 v=0
72480 On ch=7 n=64 v=47
72506 On ch=7 n=64 v=0
72512 On ch=7 n=61 v=47
72538 On ch=7 n=61 v=0
72544 On ch=7 n=69 v=47
72570 On ch=7 n=69 v=0
72576 Par ch=7 c=0 v=0
72576 Par ch=7 c=32 v=0
72576 PrCh ch=7 p=44
72576 On ch=7 n=66 v=31
72883 On ch=7 n=66 v=0
72960 Par ch=7 c=0 v=0
72960 Par ch=7 c=32 v=0
72960 PrCh ch=7 p=48
72960 Par ch=7 c=11 v=64
72960 On ch=7 n=71 v=111
72968 Par ch=7 c=11 v=63
72976 Par ch=7 c=11 v=62
72984 Par ch=7 c=11 v=61
72992 Par ch=7 c=11 v=60
72998 On ch=7 n=71 v=0
73000 Par ch=7 c=11 v=59
73008 Par ch=7 c=11 v=58
73016 Par ch=7 c=11 v=57
73024 Par ch=7 c=11 v=56
73032 Par ch=7 c=11 v=55
73032 On ch=7 n=69 v=111
73040 Par ch=7 c=11 v=54
73048 Par ch=7 c=11 v=53
73051 On ch=7 n=69 v=0
73056 Par ch=7 c=11 v=52
73056 On ch=7 n=67 v=111
73064 Par ch=7 c=11 v=51
73072 Par ch=7 c=11 v=50
73080 Par ch=7 c=11 v=49
73088 Par ch=7 c=11 v=48
73094 On ch=7 n=67 v=0
73096 Par ch=7 c=11 v=47
73104 Par ch=7 c=11 v=46
73112 Par ch=7 c=11 v=45
73120 Par ch=7 c=11 v=44
73128 Par ch=7 c=11 v=43
73128 On ch=7 n=66 v=111
73136 Par ch=7 c=11 v=42
73144 Par ch=7 c=11 v=41
73147 On ch=7 n=66 v=0
73152 Par ch=7 c=11 v=40
73152 On ch=7 n=64 v=111
73156 Par ch=7 c=11 v=39
73164 Par ch=7 c=11 v=38
73172 Par ch=7 c=11 v=37
73180 Par ch=7 c=11 v=36
73188 Par ch=7 c=11 v=35
73190 On ch=7 n=64 v=0
73196 Par ch=7 c=11 v=34
73204 Par ch=7 c=11 v=33
73212 Par ch=7 c=11 v=32
73220 Par ch=7 c=11 v=31
73224 On ch=7 n=62 v=111
73228 Par ch=7 c=11 v=30
73236 Par ch=7 c=11 v=29
73243 On ch=7 n=62 v=0
73244 Par ch=7 c=11 v=28
73248 On ch=7 n=61 v=111
73252 Par ch=7 c=11 v=27
73260 Par ch=7 c=11 v=26
73268 Par ch=7 c=11 v=25
73276 Par ch=7 c=11 v=24
73284 Par ch=7 c=11 v=23
73286 On ch=7 n=61 v=0
73292 Par ch=7 c=11 v=22
73300 Par ch=7 c=11 v=21
73308 Par ch=7 c=11 v=20
73316 Par ch=7 c=11 v=19
73320 On ch=7 n=59 v=111
73324 Par ch=7 c=11 v=18
73332 Par ch=7 c=11 v=17
73339 On ch=7 n=59 v=0
73340 Par ch=7 c=11 v=16
73344 Par ch=7 c=0 v=0
73344 Par ch=7 c=32 v=0
73344 PrCh ch=7 p=44
73344 On ch=7 n=66 v=95
73651 On ch=7 n=66 v=0
73728 Par ch=7 c=0 v=0
73728 Par ch=7 c=32 v=0
73728 PrCh ch=7 p=48
73728 Par ch=7 c=11 v=64
73728 On ch=7 n=73 v=111
73736 Par ch=7 c=11 v=63
73744 Par ch=7 c=11 v=62
73752 Par ch=7 c=11 v=61
73760 Par ch=7 c=11 v=60
73766 On ch=7 n=73 v=0
73768 Par ch=7 c=11 v=59
73776 Par ch=7 c=11 v=58
73784 Par ch=7 c=11 v=57
73792 Par ch=7 c=11 v=56
73800 Par ch=7 c=11 v=55
73800 On ch=7 n=71 v=111
73808 Par ch=7 c=11 v=54
73816 Par ch=7 c=11 v=53
73819 On ch=7 n=71 v=0
73824 Par ch=7 c=11 v=52
73824 On ch=7 n=69 v=111
73832 Par ch=7 c=11 v=51
73840 Par ch=7 c=11 v=50
73848 Par ch=7 c=11 v=49
73856 Par ch=7 c=11 v=48
73862 On ch=7 n=69 v=0
73864 Par ch=7 c=11 v=47
73872 Par ch=7 c=11 v=46
73880 Par ch=7 c=11 v=45
73888 Par ch=7 c=11 v=44
73896 Par ch=7 c=11 v=43
73896 On ch=7 n=68 v=111
73904 Par ch=7 c=11 v=42
73912 Par ch=7 c=11 v=41
73915 On ch=7 n=68 v=0
73920 Par ch=7 c=11 v=40
73920 On ch=7 n=66 v=111
73924 Par ch=7 c=11 v=39
73932 Par ch=7 c=11 v=38
73940 Par ch=7 c=11 v=37
73948 Par ch=7 c=11 v=36
73956 Par ch=7 c=11 v=35
73958 On ch=7 n=66 v=0
73964 Par ch=7 c=11 v=34
73972 Par ch=7 c=11 v=33
73980 Par ch=7 c=11 v=32
73988 Par ch=7 c=11 v=31
73992 On ch=7 n=64 v=111
73996 Par ch=7 c=11 v=30
74004 Par ch=7 c=11 v=29
74011 On ch=7 n=64 v=0
74012 Par ch=7 c=11 v=28
74016 On ch=7 n=62 v=111
74020 Par ch=7 c=11 v=27
74028 Par ch=7 c=11 v=26
74036 Par ch=7 c=11 v=25
74044 Par ch=7 c=11 v=24
74052 Par ch=7 c=11 v=23
74054 On ch=7 n=62 v=0
74060 Par ch=7 c=11 v=22
74068 Par ch=7 c=11 v=21
74076 Par ch=7 c=11 v=20
74084 Par ch=7 c=11 v=19
74088 On ch=7 n=61 v=111
74092 Par ch=7 c=11 v=18
74100 Par ch=7 c=11 v=17
74107 On ch=7 n=61 v=0
74108 Par ch=7 c=11 v=16
74112 Par ch=7 c=0 v=0
74112 Par ch=7 c=32 v=0
74112 PrCh ch=7 p=44
74112 On ch=7 n=66 v=95
74419 On ch=7 n=66 v=0
74496 Par ch=7 c=0 v=0
74496 Par ch=7 c=32 v=0
74496 PrCh ch=7 p=48
74496 Par ch=7 c=11 v=64
74496 On ch=7 n=77 v=111
74508 Par ch=7 c=11 v=63
74520 Par ch=7 c=11 v=62
74532 Par ch=7 c=11 v=61
74534 On ch=7 n=77 v=0
74544 Par ch=7 c=11 v=60
74556 Par ch=7 c=11 v=59
74568 Par ch=7 c=11 v=58
74568 On ch=7 n=73 v=111
74580 Par ch=7 c=11 v=57
74587 On ch=7 n=73 v=0
74592 Par ch=7 c=11 v=56
74592 On ch=7 n=69 v=111
74604 Par ch=7 c=11 v=55
74616 Par ch=7 c=11 v=54
74628 Par ch=7 c=11 v=53
74630 On ch=7 n=69 v=0
74640 Par ch=7 c=11 v=52
74652 Par ch=7 c=11 v=51
74664 Par ch=7 c=11 v=50
74664 On ch=7 n=65 v=111
74676 Par ch=7 c=11 v=49
74683 On ch=7 n=65 v=0
74688 Par ch=7 c=11 v=48
74688 On ch=7 n=61 v=111
74726 On ch=7 n=61 v=0
74880 Par ch=7 c=11 v=64
74880 On ch=7 n=77 v=111
74892 Par ch=7 c=11 v=63
74904 Par ch=7 c=11 v=62
74916 Par ch=7 c=11 v=61
74918 On ch=7 n=77 v=0
74928 Par ch=7 c=11 v=60
74940 Par ch=7 c=11 v=59
74952 Par ch=7 c=11 v=58
74952 On ch=7 n=73 v=111
74964 Par ch=7 c=11 v=57
74971 On ch=7 n=73 v=0
74976 Par ch=7 c=11 v=56
74976 On ch=7 n=69 v=111
74988 Par ch=7 c=11 v=55
75000 Par ch=7 c=11 v=54
75012 Par ch=7 c=11 v=53
75014 On ch=7 n=69 v=0
75024 Par ch=7 c=11 v=52
75036 Par ch=7 c=11 v=51
75048 Par ch=7 c=11 v=50
75048 On ch=7 n=65 v=111
75060 Par ch=7 c=11 v=49
75067 On ch=7 n=65 v=0
75072 Par ch=7 c=11 v=48
75072 On ch=7 n=61 v=111
75110 On ch=7 n=61 v=0
75360 Par ch=7 c=11 v=64
75360 On ch=7 n=70 v=100
75360 On ch=7 n=67 v=100
75482 On ch=7 n=67 v=0
75482 On ch=7 n=70 v=0
75488 On ch=7 n=70 v=100
75488 On ch=7 n=67 v=100
75514 On ch=7 n=67 v=0
75514 On ch=7 n=70 v=0
75520 On ch=7 n=70 v=100
75520 On ch=7 n=67 v=100
75546 On ch=7 n=67 v=0
75546 On ch=7 n=70 v=0
75552 On ch=7 n=70 v=100
75552 On ch=7 n=67 v=100
75578 On ch=7 n=67 v=0
75578 On ch=7 n=70 v=0
75584 On ch=7 n=70 v=100
75584 On ch=7 n=67 v=100
75610 On ch=7 n=67 v=0
75610 On ch=7 n=70 v=0
75616 On ch=7 n=70 v=100
75616 On ch=7 n=67 v=100
75642 On ch=7 n=67 v=0
75642 On ch=7 n=70 v=0
75648 On ch=7 n=70 v=100
75648 On ch=7 n=67 v=100
75686 On ch=7 n=67 v=0
75686 On ch=7 n=70 v=0
75720 On ch=7 n=70 v=100
75720 On ch=7 n=67 v=100
75739 On ch=7 n=67 v=0
75739 On ch=7 n=70 v=0
75744 On ch=7 n=70 v=100
75744 On ch=7 n=67 v=100
75782 On ch=7 n=67 v=0
75782 On ch=7 n=70 v=0
75816 On ch=7 n=70 v=100
75816 On ch=7 n=67 v=100
75835 On ch=7 n=67 v=0
75835 On ch=7 n=70 v=0
75840 On ch=7 n=70 v=100
75840 On ch=7 n=67 v=100
75878 On ch=7 n=67 v=0
75878 On ch=7 n=70 v=0
75912 On ch=7 n=70 v=100
75912 On ch=7 n=67 v=100
75931 On ch=7 n=67 v=0
75931 On ch=7 n=70 v=0
75936 On ch=7 n=70 v=100
75936 On ch=7 n=67 v=100
75974 On ch=7 n=67 v=0
75974 On ch=7 n=70 v=0
76008 On ch=7 n=70 v=100
76008 On ch=7 n=67 v=100
76027 On ch=7 n=67 v=0
76027 On ch=7 n=70 v=0
76032 On ch=7 n=62 v=100
76053 On ch=7 n=62 v=0
76064 On ch=7 n=61 v=100
76085 On ch=7 n=61 v=0
76096 On ch=7 n=60 v=100
76117 On ch=7 n=60 v=0
76128 On ch=7 n=56 v=100
76149 On ch=7 n=56 v=0
76160 On ch=7 n=55 v=100
76181 On ch=7 n=55 v=0
76192 On ch=7 n=54 v=100
76213 On ch=7 n=54 v=0
76224 On ch=7 n=62 v=100
76245 On ch=7 n=62 v=0
76256 On ch=7 n=61 v=100
76277 On ch=7 n=61 v=0
76288 On ch=7 n=60 v=100
76309 On ch=7 n=60 v=0
76320 On ch=7 n=56 v=100
76341 On ch=7 n=56 v=0
76352 On ch=7 n=55 v=100
76373 On ch=7 n=55 v=0
76384 On ch=7 n=54 v=100
76405 On ch=7 n=54 v=0
76416 On ch=7 n=62 v=100
76437 On ch=7 n=62 v=0
76448 On ch=7 n=61 v=100
76469 On ch=7 n=61 v=0
76480 On ch=7 n=60 v=100
76501 On ch=7 n=60 v=0
76512 On ch=7 n=56 v=100
76533 On ch=7 n=56 v=0
76544 On ch=7 n=55 v=100
76565 On ch=7 n=55 v=0
76576 On ch=7 n=54 v=100
76597 On ch=7 n=54 v=0
76608 On ch=7 n=62 v=100
76629 On ch=7 n=62 v=0
76640 On ch=7 n=61 v=100
76661 On ch=7 n=61 v=0
76672 On ch=7 n=60 v=100
76693 On ch=7 n=60 v=0
76704 On ch=7 n=56 v=100
76725 On ch=7 n=56 v=0
76736 On ch=7 n=55 v=100
76757 On ch=7 n=55 v=0
76768 On ch=7 n=54 v=100
76789 On ch=7 n=54 v=0
76800 On ch=7 n=49 v=100
76877 On ch=7 n=49 v=0
76992 Par ch=7 c=0 v=0
76992 Par ch=7 c=32 v=0
76992 PrCh ch=7 p=44
76992 On ch=7 n=74 v=111
77030 On ch=7 n=74 v=0
77040 On ch=7 n=73 v=111
77078 On ch=7 n=73 v=0
77088 On ch=7 n=72 v=111
77126 On ch=7 n=72 v=0
77136 On ch=7 n=71 v=111
77174 On ch=7 n=71 v=0
77184 Par ch=7 c=11 v=64
77184 On ch=7 n=69 v=111
77196 Par ch=7 c=11 v=63
77208 Par ch=7 c=11 v=62
77220 Par ch=7 c=11 v=61
77222 On ch=7 n=69 v=0
77232 Par ch=7 c=11 v=60
77232 On ch=7 n=68 v=111
77244 Par ch=7 c=11 v=59
77252 Par ch=7 c=11 v=58
77264 Par ch=7 c=11 v=57
77270 On ch=7 n=68 v=0
77276 Par ch=7 c=11 v=56
77280 On ch=7 n=66 v=111
77288 Par ch=7 c=11 v=55
77300 Par ch=7 c=11 v=54
77312 Par ch=7 c=11 v=53
77318 On ch=7 n=66 v=0
77320 Par ch=7 c=11 v=52
77328 On ch=7 n=69 v=111
77332 Par ch=7 c=11 v=51
77344 Par ch=7 c=11 v=50
77356 Par ch=7 c=11 v=49
77366 On ch=7 n=69 v=0
77368 Par ch=7 c=11 v=48
77376 Par ch=7 c=11 v=47
77376 On ch=7 n=74 v=111
77388 Par ch=7 c=11 v=46
77400 Par ch=7 c=11 v=45
77412 Par ch=7 c=11 v=44
77414 On ch=7 n=74 v=0
77424 Par ch=7 c=11 v=43
77424 On ch=7 n=73 v=111
77436 Par ch=7 c=11 v=42
77444 Par ch=7 c=11 v=41
77456 Par ch=7 c=11 v=40
77462 On ch=7 n=73 v=0
77468 Par ch=7 c=11 v=39
77472 On ch=7 n=71 v=111
77480 Par ch=7 c=11 v=38
77492 Par ch=7 c=11 v=37
77504 Par ch=7 c=11 v=36
77510 On ch=7 n=71 v=0
77512 Par ch=7 c=11 v=35
77520 On ch=7 n=69 v=111
77524 Par ch=7 c=11 v=34
77536 Par ch=7 c=11 v=33
77548 Par ch=7 c=11 v=32
77558 On ch=7 n=69 v=0
77568 On ch=7 n=68 v=100
77606 On ch=7 n=68 v=0
77616 On ch=7 n=66 v=100
77654 On ch=7 n=66 v=0
77664 On ch=7 n=64 v=100
77702 On ch=7 n=64 v=0
77712 On ch=7 n=68 v=100
77750 On ch=7 n=68 v=0
77760 On ch=7 n=73 v=100
77798 On ch=7 n=73 v=0
77808 On ch=7 n=71 v=100
77846 On ch=7 n=71 v=0
77856 On ch=7 n=69 v=100
77894 On ch=7 n=69 v=0
77904 On ch=7 n=68 v=100
77942 On ch=7 n=68 v=0
77952 On ch=7 n=66 v=100
77990 On ch=7 n=66 v=0
78000 On ch=7 n=64 v=100
78038 On ch=7 n=64 v=0
78048 On ch=7 n=62 v=100
78086 On ch=7 n=62 v=0
78096 On ch=7 n=66 v=100
78134 On ch=7 n=66 v=0
78144 On ch=7 n=71 v=100
78182 On ch=7 n=71 v=0
78192 On ch=7 n=69 v=100
78230 On ch=7 n=69 v=0
78240 On ch=7 n=68 v=100
78278 On ch=7 n=68 v=0
78288 On ch=7 n=66 v=100
78326 On ch=7 n=66 v=0
78336 On ch=7 n=64 v=100
78374 On ch=7 n=64 v=0
78384 On ch=7 n=66 v=100
78422 On ch=7 n=66 v=0
78432 On ch=7 n=64 v=100
78470 On ch=7 n=64 v=0
78480 On ch=7 n=62 v=100
78518 On ch=7 n=62 v=0
78528 Par ch=7 c=11 v=32
78528 On ch=7 n=61 v=100
78564 Par ch=7 c=11 v=31
78566 On ch=7 n=61 v=0
78576 On ch=7 n=71 v=100
78596 Par ch=7 c=11 v=30
78614 On ch=7 n=71 v=0
78624 On ch=7 n=69 v=100
78632 Par ch=7 c=11 v=29
78662 On ch=7 n=69 v=0
78664 Par ch=7 c=11 v=28
78672 On ch=7 n=66 v=100
78700 Par ch=7 c=11 v=27
78710 On ch=7 n=66 v=0
78720 On ch=7 n=67 v=100
78732 Par ch=7 c=11 v=26
78758 On ch=7 n=67 v=0
78768 Par ch=7 c=11 v=25
78768 On ch=7 n=64 v=100
78800 Par ch=7 c=11 v=24
78806 On ch=7 n=64 v=0
78816 On ch=7 n=63 v=100
78836 Par ch=7 c=11 v=23
78854 On ch=7 n=63 v=0
78864 On ch=7 n=58 v=100
78868 Par ch=7 c=11 v=22
78902 On ch=7 n=58 v=0
78904 Par ch=7 c=11 v=21
78912 On ch=7 n=59 v=100
78936 Par ch=7 c=11 v=20
78950 On ch=7 n=59 v=0
78960 On ch=7 n=55 v=100
78972 Par ch=7 c=11 v=19
78998 On ch=7 n=55 v=0
79004 Par ch=7 c=11 v=18
79008 On ch=7 n=56 v=100
79040 Par ch=7 c=11 v=17
79046 On ch=7 n=56 v=0
79056 On ch=7 n=56 v=100
79072 Par ch=7 c=11 v=16
79094 On ch=7 n=56 v=0
79104 Par ch=7 c=0 v=0
79104 Par ch=7 c=32 v=0
79104 PrCh ch=7 p=48
79104 On ch=7 n=57 v=100
79142 On ch=7 n=57 v=0
79488 Par ch=7 c=11 v=64
80640 Par ch=7 c=0 v=0
80640 Par ch=7 c=32 v=0
80640 PrCh ch=7 p=45
80640 On ch=7 n=60 v=31
80717 On ch=7 n=60 v=0
81408 Par ch=7 c=0 v=0
81408 Par ch=7 c=32 v=0
81408 PrCh ch=7 p=48
81408 On ch=7 n=60 v=15
82867 On ch=7 n=60 v=0
82944 Par ch=7 c=0 v=0
82944 Par ch=7 c=32 v=0
82944 PrCh ch=7 p=45
82944 On ch=7 n=60 v=15
83021 On ch=7 n=60 v=0
84864 Par ch=7 c=0 v=0
84864 Par ch=7 c=32 v=0
84864 PrCh ch=7 p=44
84864 On ch=7 n=54 v=31
84864 On ch=7 n=58 v=31
84864 On ch=7 n=66 v=31
85094 On ch=7 n=66 v=0
85094 On ch=7 n=58 v=0
85152 On ch=7 n=65 v=31
85152 On ch=7 n=58 v=31
85171 On ch=7 n=54 v=0
85229 On ch=7 n=58 v=0
85229 On ch=7 n=65 v=0
85248 On ch=7 n=63 v=31
85248 On ch=7 n=54 v=31
85248 On ch=7 n=58 v=31
85478 On ch=7 n=54 v=0
85478 On ch=7 n=63 v=0
85536 Par ch=7 c=11 v=64
85536 On ch=7 n=54 v=31
85536 On ch=7 n=61 v=31
85544 Par ch=7 c=11 v=63
85548 Par ch=7 c=11 v=62
85555 On ch=7 n=58 v=0
85556 Par ch=7 c=11 v=61
85560 Par ch=7 c=11 v=60
85568 Par ch=7 c=11 v=59
85572 Par ch=7 c=11 v=58
85576 Par ch=7 c=11 v=57
85584 Par ch=7 c=11 v=56
85588 Par ch=7 c=11 v=55
85596 Par ch=7 c=11 v=54
85600 Par ch=7 c=11 v=53
85604 Par ch=7 c=11 v=52
85612 Par ch=7 c=11 v=51
85613 On ch=7 n=61 v=0
85613 On ch=7 n=54 v=0
85616 Par ch=7 c=11 v=50
85624 Par ch=7 c=11 v=49
85628 Par ch=7 c=11 v=48
85632 Par ch=7 c=0 v=0
85632 Par ch=7 c=32 v=0
85632 PrCh ch=7 p=48
85632 On ch=7 n=59 v=31
85632 On ch=7 n=54 v=31
85709 On ch=7 n=54 v=0
85709 On ch=7 n=59 v=0
86016 Par ch=7 c=11 v=64
86400 Par ch=7 c=0 v=0
86400 Par ch=7 c=32 v=0
86400 PrCh ch=7 p=45
86400 On ch=7 n=71 v=47
86477 On ch=7 n=71 v=0
86496 On ch=7 n=69 v=47
86573 On ch=7 n=69 v=0
86592 On ch=7 n=70 v=47
86669 On ch=7 n=70 v=0
86688 On ch=7 n=66 v=47
86765 On ch=7 n=66 v=0
86784 On ch=7 n=71 v=47
86861 On ch=7 n=71 v=0
88320 Par ch=7 c=0 v=0
88320 Par ch=7 c=32 v=0
88320 PrCh ch=7 p=48
88320 On ch=7 n=66 v=15
88332 On ch=7 n=66 v=0
88332 On ch=7 n=68 v=15
88344 On ch=7 n=68 v=0
88344 On ch=7 n=66 v=15
88356 On ch=7 n=66 v=0
88356 On ch=7 n=68 v=15
88368 On ch=7 n=68 v=0
88368 On ch=7 n=66 v=15
88380 On ch=7 n=66 v=0
88380 On ch=7 n=68 v=15
88392 On ch=7 n=68 v=0
88392 On ch=7 n=66 v=15
88404 On ch=7 n=66 v=0
88404 On ch=7 n=68 v=15
88416 On ch=7 n=68 v=0
88416 On ch=7 n=66 v=15
88428 On ch=7 n=66 v=0
88428 On ch=7 n=68 v=15
88440 On ch=7 n=68 v=0
88440 On ch=7 n=66 v=15
88452 On ch=7 n=66 v=0
88452 On ch=7 n=68 v=15
88464 On ch=7 n=68 v=0
88464 On ch=7 n=66 v=15
88476 On ch=7 n=66 v=0
88476 On ch=7 n=68 v=15
88488 On ch=7 n=68 v=0
88488 On ch=7 n=66 v=15
88500 On ch=7 n=66 v=0
88500 On ch=7 n=68 v=15
88512 On ch=7 n=68 v=0
88512 On ch=7 n=66 v=15
88524 On ch=7 n=66 v=0
88524 On ch=7 n=68 v=15
88536 On ch=7 n=68 v=0
88536 On ch=7 n=66 v=15
88548 On ch=7 n=66 v=0
88548 On ch=7 n=68 v=15
88560 On ch=7 n=68 v=0
88560 On ch=7 n=66 v=15
88572 On ch=7 n=66 v=0
88572 On ch=7 n=68 v=15
88584 On ch=7 n=68 v=0
88584 On ch=7 n=66 v=15
88596 On ch=7 n=66 v=0
88596 On ch=7 n=68 v=15
88608 On ch=7 n=68 v=0
88608 On ch=7 n=66 v=15
88620 On ch=7 n=66 v=0
88620 On ch=7 n=68 v=15
88632 On ch=7 n=68 v=0
88632 On ch=7 n=66 v=15
88644 On ch=7 n=66 v=0
88644 On ch=7 n=68 v=15
88656 On ch=7 n=68 v=0
88656 On ch=7 n=66 v=15
88668 On ch=7 n=66 v=0
88668 On ch=7 n=68 v=15
88680 On ch=7 n=68 v=0
88680 On ch=7 n=66 v=15
88692 On ch=7 n=66 v=0
88692 On ch=7 n=68 v=15
88704 On ch=7 n=68 v=0
88704 On ch=7 n=66 v=15
88716 On ch=7 n=66 v=0
88716 On ch=7 n=68 v=15
88728 On ch=7 n=68 v=0
88728 On ch=7 n=66 v=15
88740 On ch=7 n=66 v=0
88740 On ch=7 n=68 v=15
88752 On ch=7 n=68 v=0
88752 On ch=7 n=66 v=15
88764 On ch=7 n=66 v=0
88764 On ch=7 n=68 v=15
88776 On ch=7 n=68 v=0
88776 On ch=7 n=66 v=15
88788 On ch=7 n=66 v=0
88788 On ch=7 n=68 v=15
88800 On ch=7 n=68 v=0
88800 On ch=7 n=66 v=15
88812 On ch=7 n=66 v=0
88812 On ch=7 n=68 v=15
88824 On ch=7 n=68 v=0
88824 On ch=7 n=66 v=15
88836 On ch=7 n=66 v=0
88836 On ch=7 n=68 v=15
88848 On ch=7 n=68 v=0
88848 On ch=7 n=66 v=15
88860 On ch=7 n=66 v=0
88860 On ch=7 n=68 v=15
88872 On ch=7 n=68 v=0
88872 On ch=7 n=66 v=15
88884 On ch=7 n=66 v=0
88884 On ch=7 n=68 v=15
88896 On ch=7 n=68 v=0
88896 On ch=7 n=66 v=15
88908 On ch=7 n=66 v=0
88908 On ch=7 n=68 v=15
88920 On ch=7 n=68 v=0
88920 On ch=7 n=66 v=15
88932 On ch=7 n=66 v=0
88932 On ch=7 n=68 v=15
88944 On ch=7 n=68 v=0
88944 On ch=7 n=66 v=15
88956 On ch=7 n=66 v=0
88956 On ch=7 n=68 v=15
88968 On ch=7 n=68 v=0
88968 On ch=7 n=66 v=15
88980 On ch=7 n=66 v=0
88980 On ch=7 n=68 v=15
88992 On ch=7 n=68 v=0
88992 On ch=7 n=66 v=15
89004 On ch=7 n=66 v=0
89004 On ch=7 n=68 v=15
89016 On ch=7 n=68 v=0
89016 On ch=7 n=66 v=15
89028 On ch=7 n=66 v=0
89028 On ch=7 n=68 v=15
89040 On ch=7 n=68 v=0
89040 On ch=7 n=66 v=15
89052 On ch=7 n=66 v=0
89052 On ch=7 n=68 v=15
89064 On ch=7 n=68 v=0
89064 On ch=7 n=66 v=15
89076 On ch=7 n=66 v=0
89076 On ch=7 n=68 v=15
89088 On ch=7 n=68 v=0
89088 On ch=7 n=66 v=15
89100 On ch=7 n=66 v=0
89100 On ch=7 n=68 v=15
89112 On ch=7 n=68 v=0
89112 On ch=7 n=66 v=15
89124 On ch=7 n=66 v=0
89124 On ch=7 n=68 v=15
89136 On ch=7 n=68 v=0
89136 On ch=7 n=66 v=15
89148 On ch=7 n=66 v=0
89148 On ch=7 n=68 v=15
89160 On ch=7 n=68 v=0
89160 On ch=7 n=66 v=15
89172 On ch=7 n=66 v=0
89172 On ch=7 n=68 v=15
89184 On ch=7 n=68 v=0
89184 On ch=7 n=66 v=15
89196 On ch=7 n=66 v=0
89196 On ch=7 n=68 v=15
89208 On ch=7 n=68 v=0
89208 On ch=7 n=66 v=15
89220 On ch=7 n=66 v=0
89220 On ch=7 n=68 v=15
89232 On ch=7 n=68 v=0
89232 On ch=7 n=66 v=15
89244 On ch=7 n=66 v=0
89244 On ch=7 n=68 v=15
89256 On ch=7 n=68 v=0
89256 On ch=7 n=66 v=15
89268 On ch=7 n=66 v=0
89268 On ch=7 n=68 v=15
89280 On ch=7 n=68 v=0
89280 On ch=7 n=66 v=15
89292 On ch=7 n=66 v=0
89292 On ch=7 n=68 v=15
89304 On ch=7 n=68 v=0
89304 On ch=7 n=66 v=15
89316 On ch=7 n=66 v=0
89316 On ch=7 n=68 v=15
89328 On ch=7 n=68 v=0
89328 On ch=7 n=66 v=15
89340 On ch=7 n=66 v=0
89340 On ch=7 n=68 v=15
89352 On ch=7 n=68 v=0
89352 On ch=7 n=66 v=15
89364 On ch=7 n=66 v=0
89364 On ch=7 n=68 v=15
89376 On ch=7 n=68 v=0
89376 On ch=7 n=66 v=15
89388 On ch=7 n=66 v=0
89388 On ch=7 n=68 v=15
89400 On ch=7 n=68 v=0
89400 On ch=7 n=66 v=15
89412 On ch=7 n=66 v=0
89412 On ch=7 n=68 v=15
89424 On ch=7 n=68 v=0
89424 On ch=7 n=66 v=15
89436 On ch=7 n=66 v=0
89436 On ch=7 n=68 v=15
89448 On ch=7 n=68 v=0
89448 On ch=7 n=66 v=15
89460 On ch=7 n=66 v=0
89460 On ch=7 n=68 v=15
89472 On ch=7 n=68 v=0
89472 On ch=7 n=66 v=15
89484 On ch=7 n=66 v=0
89484 On ch=7 n=68 v=15
89496 On ch=7 n=68 v=0
89496 On ch=7 n=66 v=15
89508 On ch=7 n=66 v=0
89508 On ch=7 n=68 v=15
89520 On ch=7 n=68 v=0
89520 On ch=7 n=66 v=15
89532 On ch=7 n=66 v=0
89532 On ch=7 n=68 v=15
89544 On ch=7 n=68 v=0
89544 On ch=7 n=66 v=15
89556 On ch=7 n=66 v=0
89556 On ch=7 n=68 v=15
89568 On ch=7 n=68 v=0
89568 On ch=7 n=66 v=15
89580 On ch=7 n=66 v=0
89580 On ch=7 n=68 v=15
89592 On ch=7 n=68 v=0
89592 On ch=7 n=66 v=15
89604 On ch=7 n=66 v=0
89604 On ch=7 n=68 v=15
89616 On ch=7 n=68 v=0
89616 On ch=7 n=66 v=15
89628 On ch=7 n=66 v=0
89628 On ch=7 n=68 v=15
89640 On ch=7 n=68 v=0
89640 On ch=7 n=66 v=15
89652 On ch=7 n=66 v=0
89652 On ch=7 n=68 v=15
89664 On ch=7 n=68 v=0
89664 On ch=7 n=66 v=15
89676 On ch=7 n=66 v=0
89676 On ch=7 n=68 v=15
89688 On ch=7 n=68 v=0
89688 On ch=7 n=66 v=15
89700 On ch=7 n=66 v=0
89700 On ch=7 n=68 v=15
89712 On ch=7 n=68 v=0
89712 On ch=7 n=66 v=15
89724 On ch=7 n=66 v=0
89724 On ch=7 n=68 v=15
89736 On ch=7 n=68 v=0
89736 On ch=7 n=66 v=15
89748 On ch=7 n=66 v=0
89748 On ch=7 n=68 v=15
89760 On ch=7 n=68 v=0
89760 On ch=7 n=66 v=15
89772 On ch=7 n=66 v=0
89772 On ch=7 n=68 v=15
89784 On ch=7 n=68 v=0
89784 On ch=7 n=66 v=15
89796 On ch=7 n=66 v=0
89796 On ch=7 n=68 v=15
89808 On ch=7 n=68 v=0
89808 On ch=7 n=66 v=15
89820 On ch=7 n=66 v=0
89820 On ch=7 n=68 v=15
89832 On ch=7 n=68 v=0
89832 On ch=7 n=66 v=15
89844 On ch=7 n=66 v=0
89844 On ch=7 n=68 v=15
89856 On ch=7 n=68 v=0
89856 On ch=7 n=66 v=15
89868 On ch=7 n=66 v=0
89868 On ch=7 n=68 v=15
89880 On ch=7 n=68 v=0
89880 On ch=7 n=66 v=15
89892 On ch=7 n=66 v=0
89892 On ch=7 n=68 v=15
89904 On ch=7 n=68 v=0
89904 On ch=7 n=66 v=15
89916 On ch=7 n=66 v=0
89916 On ch=7 n=68 v=15
89928 On ch=7 n=68 v=0
89928 On ch=7 n=66 v=15
89940 On ch=7 n=66 v=0
89940 On ch=7 n=68 v=15
89952 On ch=7 n=68 v=0
89952 On ch=7 n=66 v=15
89964 On ch=7 n=66 v=0
89964 On ch=7 n=68 v=15
89976 On ch=7 n=68 v=0
89976 On ch=7 n=66 v=15
89988 On ch=7 n=66 v=0
89988 On ch=7 n=68 v=15
90000 On ch=7 n=68 v=0
90000 On ch=7 n=66 v=15
90012 On ch=7 n=66 v=0
90012 On ch=7 n=68 v=15
90024 On ch=7 n=68 v=0
90024 On ch=7 n=66 v=15
90036 On ch=7 n=66 v=0
90036 On ch=7 n=68 v=15
90048 On ch=7 n=68 v=0
90048 On ch=7 n=66 v=15
90060 On ch=7 n=66 v=0
90060 On ch=7 n=68 v=15
90072 On ch=7 n=68 v=0
90072 On ch=7 n=66 v=15
90084 On ch=7 n=66 v=0
90084 On ch=7 n=68 v=15
90096 On ch=7 n=68 v=0
90096 On ch=7 n=66 v=15
90108 On ch=7 n=66 v=0
90108 On ch=7 n=68 v=15
90120 On ch=7 n=68 v=0
90120 On ch=7 n=66 v=15
90132 On ch=7 n=66 v=0
90132 On ch=7 n=68 v=15
90144 On ch=7 n=68 v=0
90144 On ch=7 n=66 v=15
90156 On ch=7 n=66 v=0
90156 On ch=7 n=68 v=15
90168 On ch=7 n=68 v=0
90168 On ch=7 n=66 v=15
90180 On ch=7 n=66 v=0
90180 On ch=7 n=68 v=15
90192 On ch=7 n=68 v=0
90192 On ch=7 n=66 v=15
90204 On ch=7 n=66 v=0
90204 On ch=7 n=68 v=15
90216 On ch=7 n=68 v=0
90216 On ch=7 n=66 v=15
90228 On ch=7 n=66 v=0
90228 On ch=7 n=68 v=15
90240 On ch=7 n=68 v=0
90240 On ch=7 n=66 v=15
90252 On ch=7 n=66 v=0
90252 On ch=7 n=68 v=15
90264 On ch=7 n=68 v=0
90264 On ch=7 n=66 v=15
90276 On ch=7 n=66 v=0
90276 On ch=7 n=68 v=15
90288 On ch=7 n=68 v=0
90288 On ch=7 n=66 v=15
90300 On ch=7 n=66 v=0
90300 On ch=7 n=68 v=15
90312 On ch=7 n=68 v=0
90312 On ch=7 n=66 v=15
90324 On ch=7 n=66 v=0
90324 On ch=7 n=68 v=15
90336 On ch=7 n=68 v=0
90336 On ch=7 n=66 v=15
90348 On ch=7 n=66 v=0
90348 On ch=7 n=68 v=15
90360 On ch=7 n=68 v=0
90360 On ch=7 n=66 v=15
90372 On ch=7 n=66 v=0
90372 On ch=7 n=68 v=15
90384 On ch=7 n=68 v=0
90384 On ch=7 n=66 v=15
90396 On ch=7 n=66 v=0
90396 On ch=7 n=68 v=15
90408 On ch=7 n=68 v=0
90408 On ch=7 n=66 v=15
90420 On ch=7 n=66 v=0
90420 On ch=7 n=68 v=15
90432 On ch=7 n=68 v=0
90432 On ch=7 n=66 v=15
90444 On ch=7 n=66 v=0
90444 On ch=7 n=68 v=15
90456 On ch=7 n=68 v=0
90456 On ch=7 n=66 v=15
90468 On ch=7 n=66 v=0
90468 On ch=7 n=68 v=15
90480 On ch=7 n=68 v=0
90480 On ch=7 n=66 v=15
90492 On ch=7 n=66 v=0
90492 On ch=7 n=68 v=15
90504 On ch=7 n=68 v=0
90504 On ch=7 n=66 v=15
90516 On ch=7 n=66 v=0
90516 On ch=7 n=68 v=15
90528 On ch=7 n=68 v=0
90528 On ch=7 n=66 v=15
90540 On ch=7 n=66 v=0
90540 On ch=7 n=68 v=15
90552 On ch=7 n=68 v=0
90552 On ch=7 n=66 v=15
90564 On ch=7 n=66 v=0
90564 On ch=7 n=68 v=15
90576 On ch=7 n=68 v=0
90576 On ch=7 n=66 v=15
90588 On ch=7 n=66 v=0
90588 On ch=7 n=68 v=15
90600 On ch=7 n=68 v=0
90600 On ch=7 n=66 v=15
90612 On ch=7 n=66 v=0
90612 On ch=7 n=68 v=15
90624 On ch=7 n=68 v=0
90624 On ch=7 n=66 v=15
90636 On ch=7 n=66 v=0
90636 On ch=7 n=68 v=15
90648 On ch=7 n=68 v=0
90648 On ch=7 n=66 v=15
90660 On ch=7 n=66 v=0
90660 On ch=7 n=68 v=15
90672 On ch=7 n=68 v=0
90672 On ch=7 n=66 v=15
90684 On ch=7 n=66 v=0
90684 On ch=7 n=68 v=15
90696 On ch=7 n=68 v=0
90696 On ch=7 n=66 v=15
90708 On ch=7 n=66 v=0
90708 On ch=7 n=68 v=15
90720 On ch=7 n=68 v=0
90720 On ch=7 n=66 v=15
90732 On ch=7 n=66 v=0
90732 On ch=7 n=68 v=15
90744 On ch=7 n=68 v=0
90744 On ch=7 n=66 v=15
90756 On ch=7 n=66 v=0
90756 On ch=7 n=68 v=15
90768 On ch=7 n=68 v=0
90768 On ch=7 n=66 v=15
90780 On ch=7 n=66 v=0
90780 On ch=7 n=68 v=15
90792 On ch=7 n=68 v=0
90792 On ch=7 n=66 v=15
90804 On ch=7 n=66 v=0
90804 On ch=7 n=68 v=15
90816 On ch=7 n=68 v=0
90816 On ch=7 n=66 v=15
90828 On ch=7 n=66 v=0
90828 On ch=7 n=68 v=15
90840 On ch=7 n=68 v=0
90840 On ch=7 n=66 v=15
90852 On ch=7 n=66 v=0
90852 On ch=7 n=68 v=15
90864 On ch=7 n=68 v=0
90864 On ch=7 n=66 v=15
90876 On ch=7 n=66 v=0
90876 On ch=7 n=68 v=15
90888 On ch=7 n=68 v=0
90888 On ch=7 n=66 v=15
90900 On ch=7 n=66 v=0
90900 On ch=7 n=68 v=15
90912 On ch=7 n=68 v=0
90912 On ch=7 n=66 v=15
90924 On ch=7 n=66 v=0
90924 On ch=7 n=68 v=15
90936 On ch=7 n=68 v=0
90936 On ch=7 n=66 v=15
90948 On ch=7 n=66 v=0
90948 On ch=7 n=68 v=15
90960 On ch=7 n=68 v=0
90960 On ch=7 n=66 v=15
90972 On ch=7 n=66 v=0
90972 On ch=7 n=68 v=15
90984 On ch=7 n=68 v=0
90984 On ch=7 n=66 v=15
90996 On ch=7 n=66 v=0
90996 On ch=7 n=68 v=15
91008 On ch=7 n=68 v=0
91008 On ch=7 n=66 v=15
91020 On ch=7 n=66 v=0
91020 On ch=7 n=68 v=15
91032 On ch=7 n=68 v=0
91032 On ch=7 n=66 v=15
91044 On ch=7 n=66 v=0
91044 On ch=7 n=68 v=15
91056 On ch=7 n=68 v=0
91056 On ch=7 n=66 v=15
91068 On ch=7 n=66 v=0
91068 On ch=7 n=68 v=15
91080 On ch=7 n=68 v=0
91080 On ch=7 n=66 v=15
91092 On ch=7 n=66 v=0
91092 On ch=7 n=68 v=15
91104 On ch=7 n=68 v=0
91104 On ch=7 n=66 v=15
91116 On ch=7 n=66 v=0
91116 On ch=7 n=68 v=15
91128 On ch=7 n=68 v=0
91128 On ch=7 n=66 v=15
91140 On ch=7 n=66 v=0
91140 On ch=7 n=68 v=15
91152 On ch=7 n=68 v=0
91152 On ch=7 n=66 v=15
91164 On ch=7 n=66 v=0
91164 On ch=7 n=68 v=15
91176 On ch=7 n=68 v=0
91176 On ch=7 n=66 v=15
91188 On ch=7 n=66 v=0
91188 On ch=7 n=68 v=15
91200 On ch=7 n=68 v=0
91200 On ch=7 n=66 v=15
91212 On ch=7 n=66 v=0
91212 On ch=7 n=68 v=15
91224 On ch=7 n=68 v=0
91224 On ch=7 n=66 v=15
91236 On ch=7 n=66 v=0
91236 On ch=7 n=68 v=15
91248 On ch=7 n=68 v=0
91248 On ch=7 n=66 v=15
91260 On ch=7 n=66 v=0
91260 On ch=7 n=68 v=15
91272 On ch=7 n=68 v=0
91272 On ch=7 n=66 v=15
91284 On ch=7 n=66 v=0
91284 On ch=7 n=68 v=15
91296 On ch=7 n=68 v=0
91296 On ch=7 n=66 v=15
91308 On ch=7 n=66 v=0
91308 On ch=7 n=68 v=15
91320 On ch=7 n=68 v=0
91320 On ch=7 n=66 v=15
91332 On ch=7 n=66 v=0
91332 On ch=7 n=68 v=15
91344 On ch=7 n=68 v=0
91344 On ch=7 n=66 v=15
91356 On ch=7 n=66 v=0
91356 On ch=7 n=68 v=15
91368 On ch=7 n=68 v=0
91368 On ch=7 n=66 v=15
91380 On ch=7 n=66 v=0
91380 On ch=7 n=68 v=15
91392 On ch=7 n=68 v=0
93696 On ch=7 n=51 v=127
93715 On ch=7 n=51 v=0
93720 On ch=7 n=50 v=127
93739 On ch=7 n=50 v=0
93744 On ch=7 n=51 v=127
93763 On ch=7 n=51 v=0
93768 On ch=7 n=53 v=127
93787 On ch=7 n=53 v=0
93792 On ch=7 n=54 v=127
93830 On ch=7 n=54 v=0
94464 On ch=7 n=54 v=127
94483 On ch=7 n=54 v=0
94488 On ch=7 n=53 v=127
94507 On ch=7 n=53 v=0
94512 On ch=7 n=54 v=127
94531 On ch=7 n=54 v=0
94536 On ch=7 n=56 v=127
94555 On ch=7 n=56 v=0
94560 On ch=7 n=57 v=127
94598 On ch=7 n=57 v=0
95064 On ch=7 n=51 v=127
95083 On ch=7 n=51 v=0
95088 On ch=7 n=53 v=127
95107 On ch=7 n=53 v=0
95112 On ch=7 n=54 v=127
95131 On ch=7 n=54 v=0
95136 On ch=7 n=56 v=127
95155 On ch=7 n=56 v=0
95160 On ch=7 n=58 v=127
95179 On ch=7 n=58 v=0
95184 On ch=7 n=60 v=127
95203 On ch=7 n=60 v=0
95208 On ch=7 n=62 v=127
95227 On ch=7 n=62 v=0
95232 Par ch=7 c=0 v=0
95232 Par ch=7 c=32 v=0
95232 PrCh ch=7 p=44
95232 On ch=7 n=63 v=127
95280 Par ch=7 c=11 v=16
95539 On ch=7 n=63 v=0
95616 Par ch=7 c=11 v=64
95616 On ch=7 n=63 v=47
95693 On ch=7 n=63 v=0
95712 On ch=7 n=62 v=47
95789 On ch=7 n=62 v=0
95808 On ch=7 n=61 v=47
95885 On ch=7 n=61 v=0
95904 On ch=7 n=60 v=47
95981 On ch=7 n=60 v=0
96000 Par ch=7 c=11 v=64
96000 On ch=7 n=59 v=47
96048 Par ch=7 c=11 v=63
96092 Par ch=7 c=11 v=62
96115 On ch=7 n=59 v=0
96128 On ch=7 n=58 v=47
96136 Par ch=7 c=11 v=61
96184 Par ch=7 c=11 v=60
96228 Par ch=7 c=11 v=59
96243 On ch=7 n=58 v=0
96256 On ch=7 n=57 v=47
96272 Par ch=7 c=11 v=58
96320 Par ch=7 c=11 v=57
96364 Par ch=7 c=11 v=56
96371 On ch=7 n=57 v=0
96384 On ch=7 n=56 v=47
96408 Par ch=7 c=11 v=55
96452 Par ch=7 c=11 v=54
96500 Par ch=7 c=11 v=53
96538 On ch=7 n=56 v=0
96544 Par ch=7 c=11 v=52
96576 On ch=7 n=55 v=47
96588 Par ch=7 c=11 v=51
96636 Par ch=7 c=11 v=50
96680 Par ch=7 c=11 v=49
96724 Par ch=7 c=11 v=48
96730 On ch=7 n=55 v=0
96768 On ch=7 n=54 v=47
96998 On ch=7 n=54 v=0
97056 On ch=7 n=53 v=47
97133 On ch=7 n=53 v=0
97152 Par ch=7 c=11 v=48
97152 On ch=7 n=53 v=47
97176 Par ch=7 c=11 v=47
97196 Par ch=7 c=11 v=46
97216 Par ch=7 c=11 v=45
97240 Par ch=7 c=11 v=44
97260 Par ch=7 c=11 v=43
97280 Par ch=7 c=11 v=42
97304 Par ch=7 c=11 v=41
97306 On ch=7 n=53 v=0
97324 Par ch=7 c=11 v=40
97344 Par ch=7 c=11 v=39
97344 On ch=7 n=52 v=47
97368 Par ch=7 c=11 v=38
97388 Par ch=7 c=11 v=37
97408 Par ch=7 c=11 v=36
97432 Par ch=7 c=11 v=35
97452 Par ch=7 c=11 v=34
97472 Par ch=7 c=11 v=33
97496 Par ch=7 c=11 v=32
97498 On ch=7 n=52 v=0
97536 Par ch=7 c=0 v=0
97536 Par ch=7 c=32 v=0
97536 PrCh ch=7 p=48
97536 Par ch=7 c=11 v=64
99072 On ch=7 n=58 v=15
99103 On ch=7 n=58 v=0
99156 On ch=7 n=60 v=15
99168 On ch=7 n=60 v=0
99168 On ch=7 n=62 v=15
99199 On ch=7 n=62 v=0
99252 On ch=7 n=63 v=15
99264 On ch=7 n=63 v=0
99264 On ch=7 n=65 v=15
99295 On ch=7 n=65 v=0
99348 On ch=7 n=68 v=15
99360 On ch=7 n=68 v=0
99360 On ch=7 n=66 v=15
99391 On ch=7 n=66 v=0
99444 On ch=7 n=63 v=15
99456 On ch=7 n=63 v=0
99456 On ch=7 n=62 v=15
99487 On ch=7 n=62 v=0
99540 On ch=7 n=63 v=15
99552 On ch=7 n=63 v=0
99552 On ch=7 n=65 v=15
99583 On ch=7 n=65 v=0
99636 On ch=7 n=67 v=15
99648 On ch=7 n=67 v=0
99648 On ch=7 n=68 v=15
99679 On ch=7 n=68 v=0
99732 On ch=7 n=77 v=15
99744 On ch=7 n=77 v=0
99744 On ch=7 n=75 v=15
99775 On ch=7 n=75 v=0
99828 On ch=7 n=68 v=15
99840 On ch=7 n=68 v=0
99840 On ch=7 n=67 v=15
99871 On ch=7 n=67 v=0
99924 On ch=7 n=74 v=15
99936 On ch=7 n=74 v=0
99936 On ch=7 n=73 v=15
99967 On ch=7 n=73 v=0
100020 On ch=7 n=66 v=15
100032 On ch=7 n=66 v=0
100032 On ch=7 n=65 v=15
100063 On ch=7 n=65 v=0
100116 On ch=7 n=73 v=15
100128 On ch=7 n=73 v=0
100128 On ch=7 n=72 v=15
100159 On ch=7 n=72 v=0
100212 On ch=7 n=65 v=15
100224 On ch=7 n=65 v=0
100224 On ch=7 n=64 v=15
100255 On ch=7 n=64 v=0
100308 On ch=7 n=71 v=15
100320 On ch=7 n=71 v=0
100320 On ch=7 n=70 v=15
100351 On ch=7 n=70 v=0
100404 On ch=7 n=63 v=15
100416 On ch=7 n=63 v=0
100416 On ch=7 n=66 v=15
100447 On ch=7 n=66 v=0
100500 On ch=7 n=63 v=15
100512 On ch=7 n=63 v=0
100512 On ch=7 n=66 v=15
100543 On ch=7 n=66 v=0
100596 On ch=7 n=62 v=15
100608 On ch=7 n=62 v=0
100608 On ch=7 n=63 v=15
100624 On ch=7 n=63 v=0
103488 On ch=7 n=66 v=15
103519 On ch=7 n=66 v=0
103560 On ch=7 n=63 v=15
103576 On ch=7 n=63 v=0
103584 On ch=7 n=66 v=15
103615 On ch=7 n=66 v=0
103656 On ch=7 n=62 v=15
103672 On ch=7 n=62 v=0
103680 On ch=7 n=63 v=31
103711 On ch=7 n=63 v=0
103752 On ch=7 n=58 v=31
103768 On ch=7 n=58 v=0
103776 On ch=7 n=63 v=31
103807 On ch=7 n=63 v=0
103848 On ch=7 n=59 v=31
103864 On ch=7 n=59 v=0
103872 On ch=7 n=58 v=31
103903 On ch=7 n=58 v=0
103944 On ch=7 n=56 v=31
103960 On ch=7 n=56 v=0
103968 On ch=7 n=54 v=31
103999 On ch=7 n=54 v=0
104040 On ch=7 n=53 v=31
104056 On ch=7 n=53 v=0
104064 On ch=7 n=51 v=31
104095 On ch=7 n=51 v=0
104136 On ch=7 n=53 v=31
104152 On ch=7 n=53 v=0
104160 On ch=7 n=54 v=31
104191 On ch=7 n=54 v=0
104232 On ch=7 n=56 v=31
104248 On ch=7 n=56 v=0
104256 On ch=7 n=58 v=31
104287 On ch=7 n=58 v=0
104328 On ch=7 n=59 v=31
104344 On ch=7 n=59 v=0
104352 On ch=7 n=61 v=31
104383 On ch=7 n=61 v=0
104424 On ch=7 n=58 v=31
104440 On ch=7 n=58 v=0
104448 On ch=7 n=59 v=31
104486 On ch=7 n=59 v=0
105216 Par ch=7 c=11 v=64
105216 On ch=7 n=65 v=47
105236 Par ch=7 c=11 v=65
105256 Par ch=7 c=11 v=66
105272 Par ch=7 c=11 v=67
105292 Par ch=7 c=11 v=68
105308 Par ch=7 c=11 v=69
105328 Par ch=7 c=11 v=70
105344 Par ch=7 c=11 v=71
105364 Par ch=7 c=11 v=72
105370 On ch=7 n=65 v=0
105384 Par ch=7 c=11 v=73
105400 Par ch=7 c=11 v=74
105408 On ch=7 n=63 v=47
105420 Par ch=7 c=11 v=75
105436 Par ch=7 c=11 v=76
105456 Par ch=7 c=11 v=77
105472 Par ch=7 c=11 v=78
105492 Par ch=7 c=11 v=79
105512 Par ch=7 c=11 v=80
105528 Par ch=7 c=11 v=81
105548 Par ch=7 c=11 v=82
105564 Par ch=7 c=11 v=83
105584 Par ch=7 c=11 v=84
105600 Par ch=7 c=11 v=85
105620 Par ch=7 c=11 v=86
105640 Par ch=7 c=11 v=87
105656 Par ch=7 c=11 v=88
105676 Par ch=7 c=11 v=89
105677 On ch=7 n=63 v=0
105692 Par ch=7 c=11 v=90
105696 On ch=7 n=61 v=47
105712 Par ch=7 c=11 v=91
105728 Par ch=7 c=11 v=92
105748 Par ch=7 c=11 v=93
105768 Par ch=7 c=11 v=94
105773 On ch=7 n=61 v=0
105784 Par ch=7 c=11 v=95
105792 On ch=7 n=60 v=47
105804 Par ch=7 c=11 v=96
105820 Par ch=7 c=11 v=97
105840 Par ch=7 c=11 v=98
105856 Par ch=7 c=11 v=99
105869 On ch=7 n=60 v=0
105876 Par ch=7 c=11 v=100
105888 On ch=7 n=61 v=47
105896 Par ch=7 c=11 v=101
105912 Par ch=7 c=11 v=102
105926 On ch=7 n=61 v=0
105932 Par ch=7 c=11 v=103
105936 On ch=7 n=63 v=47
105948 Par ch=7 c=11 v=104
105968 Par ch=7 c=11 v=105
105974 On ch=7 n=63 v=0
105984 Par ch=7 c=11 v=106
105984 On ch=7 n=65 v=47
106004 Par ch=7 c=11 v=107
106024 Par ch=7 c=11 v=108
106040 Par ch=7 c=11 v=109
106060 Par ch=7 c=11 v=110
106076 Par ch=7 c=11 v=111
106096 Par ch=7 c=11 v=112
106112 Par ch=7 c=11 v=113
106132 Par ch=7 c=11 v=114
106136 On ch=7 n=65 v=0
106152 Par ch=7 c=11 v=115
106168 Par ch=7 c=11 v=116
106188 Par ch=7 c=11 v=117
106204 Par ch=7 c=11 v=118
106208 On ch=7 n=68 v=47
106224 Par ch=7 c=11 v=119
106229 On ch=7 n=68 v=0
106240 Par ch=7 c=11 v=120
106240 On ch=7 n=70 v=47
106260 Par ch=7 c=11 v=121
106261 On ch=7 n=70 v=0
106272 On ch=7 n=72 v=47
106280 Par ch=7 c=11 v=122
106293 On ch=7 n=72 v=0
106296 Par ch=7 c=11 v=123
106304 On ch=7 n=73 v=47
106316 Par ch=7 c=11 v=124
106325 On ch=7 n=73 v=0
106332 Par ch=7 c=11 v=125
106336 On ch=7 n=75 v=47
106352 Par ch=7 c=11 v=126
106357 On ch=7 n=75 v=0
106368 Par ch=7 c=11 v=64
106368 On ch=7 n=77 v=111
106399 On ch=7 n=77 v=0
106440 On ch=7 n=75 v=111
106456 On ch=7 n=75 v=0
106464 On ch=7 n=73 v=111
106495 On ch=7 n=73 v=0
106536 On ch=7 n=72 v=111
106552 On ch=7 n=72 v=0
106560 On ch=7 n=70 v=111
106591 On ch=7 n=70 v=0
106632 On ch=7 n=68 v=111
106648 On ch=7 n=68 v=0
106656 On ch=7 n=66 v=111
106687 On ch=7 n=66 v=0
106728 On ch=7 n=65 v=111
106744 On ch=7 n=65 v=0
106752 On ch=7 n=65 v=111
106752 On ch=7 n=61 v=111
106752 On ch=7 n=58 v=111
106829 On ch=7 n=58 v=0
106829 On ch=7 n=61 v=0
106829 On ch=7 n=65 v=0
107040 On ch=7 n=53 v=111
107040 On ch=7 n=65 v=111
107040 On ch=7 n=60 v=111
107117 On ch=7 n=60 v=0
107117 On ch=7 n=65 v=0
107117 On ch=7 n=53 v=0
107136 On ch=7 n=70 v=111
107136 On ch=7 n=65 v=111
107136 On ch=7 n=58 v=111
107174 On ch=7 n=58 v=0
107174 On ch=7 n=65 v=0
107174 On ch=7 n=70 v=0
107208 On ch=7 n=65 v=111
107227 On ch=7 n=65 v=0
107232 On ch=7 n=58 v=111
107270 On ch=7 n=58 v=0
107520 On ch=7 n=54 v=95
107520 On ch=7 n=58 v=95
107520 On ch=7 n=61 v=95
107597 On ch=7 n=61 v=0
107597 On ch=7 n=58 v=0
107597 On ch=7 n=54 v=0
107808 On ch=7 n=49 v=95
107808 On ch=7 n=56 v=95
107808 On ch=7 n=61 v=95
107885 On ch=7 n=61 v=0
107885 On ch=7 n=56 v=0
107885 On ch=7 n=49 v=0
107904 On ch=7 n=54 v=95
107904 On ch=7 n=70 v=95
107904 On ch=7 n=61 v=95
107942 On ch=7 n=61 v=0
107942 On ch=7 n=70 v=0
107942 On ch=7 n=54 v=0
107976 On ch=7 n=73 v=95
107992 On ch=7 n=73 v=0
108000 On ch=7 n=78 v=95
108154 On ch=7 n=78 v=0
108288 On ch=7 n=63 v=47
108319 On ch=7 n=63 v=0
108360 On ch=7 n=62 v=47
108376 On ch=7 n=62 v=0
108384 On ch=7 n=60 v=47
108415 On ch=7 n=60 v=0
108456 On ch=7 n=58 v=47
108472 On ch=7 n=58 v=0
108480 On ch=7 n=56 v=47
108511 On ch=7 n=56 v=0
108552 On ch=7 n=55 v=47
108568 On ch=7 n=55 v=0
108576 On ch=7 n=53 v=47
108607 On ch=7 n=53 v=0
108648 On ch=7 n=51 v=47
108664 On ch=7 n=51 v=0
108672 On ch=7 n=67 v=47
108710 On ch=7 n=67 v=0
108744 On ch=7 n=65 v=47
108763 On ch=7 n=65 v=0
108768 On ch=7 n=63 v=47
108806 On ch=7 n=63 v=0
108840 On ch=7 n=62 v=47
108859 On ch=7 n=62 v=0
108864 Par ch=7 c=11 v=64
108864 On ch=7 n=60 v=47
108872 Par ch=7 c=11 v=65
108880 Par ch=7 c=11 v=66
108888 Par ch=7 c=11 v=67
108896 Par ch=7 c=11 v=68
108902 On ch=7 n=60 v=0
108904 Par ch=7 c=11 v=69
108912 Par ch=7 c=11 v=70
108920 Par ch=7 c=11 v=71
108928 Par ch=7 c=11 v=72
108936 Par ch=7 c=11 v=73
108936 On ch=7 n=60 v=47
108944 Par ch=7 c=11 v=74
108952 Par ch=7 c=11 v=75
108955 On ch=7 n=60 v=0
108960 Par ch=7 c=11 v=76
108960 On ch=7 n=58 v=47
108968 Par ch=7 c=11 v=77
108976 Par ch=7 c=11 v=78
108984 Par ch=7 c=11 v=79
108992 Par ch=7 c=11 v=80
108998 On ch=7 n=58 v=0
109000 Par ch=7 c=11 v=81
109008 Par ch=7 c=11 v=82
109016 Par ch=7 c=11 v=83
109024 Par ch=7 c=11 v=84
109032 Par ch=7 c=11 v=85
109032 On ch=7 n=58 v=47
109040 Par ch=7 c=11 v=86
109048 Par ch=7 c=11 v=87
109051 On ch=7 n=58 v=0
109056 Par ch=7 c=11 v=88
109056 On ch=7 n=63 v=47
109064 Par ch=7 c=11 v=89
109072 Par ch=7 c=11 v=90
109080 Par ch=7 c=11 v=91
109088 Par ch=7 c=11 v=92
109094 On ch=7 n=63 v=0
109096 Par ch=7 c=11 v=93
109104 Par ch=7 c=11 v=94
109112 Par ch=7 c=11 v=95
109120 Par ch=7 c=11 v=96
109128 Par ch=7 c=11 v=97
109128 On ch=7 n=63 v=47
109136 Par ch=7 c=11 v=98
109144 Par ch=7 c=11 v=99
109147 On ch=7 n=63 v=0
109152 Par ch=7 c=11 v=100
109152 On ch=7 n=65 v=47
109160 Par ch=7 c=11 v=101
109168 Par ch=7 c=11 v=102
109176 Par ch=7 c=11 v=103
109184 Par ch=7 c=11 v=104
109190 On ch=7 n=65 v=0
109192 Par ch=7 c=11 v=105
109200 Par ch=7 c=11 v=106
109208 Par ch=7 c=11 v=107
109216 Par ch=7 c=11 v=108
109224 Par ch=7 c=11 v=109
109224 On ch=7 n=65 v=47
109232 Par ch=7 c=11 v=110
109240 Par ch=7 c=11 v=111
109243 On ch=7 n=65 v=0
109248 Par ch=7 c=11 v=112
109248 On ch=7 n=67 v=47
109286 On ch=7 n=67 v=0
109320 On ch=7 n=67 v=47
109339 On ch=7 n=67 v=0
109344 On ch=7 n=69 v=47
109382 On ch=7 n=69 v=0
109416 On ch=7 n=69 v=47
109435 On ch=7 n=69 v=0
109440 Par ch=7 c=11 v=112
109440 On ch=7 n=70 v=95
109456 Par ch=7 c=11 v=113
109459 On ch=7 n=70 v=0
109464 On ch=7 n=70 v=95
109468 Par ch=7 c=11 v=114
109480 Par ch=7 c=11 v=115
109483 On ch=7 n=70 v=0
109488 On ch=7 n=72 v=95
109492 Par ch=7 c=11 v=116
109504 Par ch=7 c=11 v=117
109507 On ch=7 n=72 v=0
109512 On ch=7 n=74 v=95
109520 Par ch=7 c=11 v=118
109531 On ch=7 n=74 v=0
109532 Par ch=7 c=11 v=119
109536 On ch=7 n=75 v=95
109544 Par ch=7 c=11 v=120
109555 On ch=7 n=75 v=0
109556 Par ch=7 c=11 v=121
109560 On ch=7 n=77 v=95
109568 Par ch=7 c=11 v=122
109579 On ch=7 n=77 v=0
109584 Par ch=7 c=11 v=123
109584 On ch=7 n=79 v=95
109596 Par ch=7 c=11 v=124
109603 On ch=7 n=79 v=0
109608 Par ch=7 c=11 v=125
109608 On ch=7 n=80 v=95
109620 Par ch=7 c=11 v=126
109627 On ch=7 n=80 v=0
109632 On ch=7 n=82 v=95
109651 On ch=7 n=82 v=0
109824 Par ch=7 c=11 v=64
110592 Par ch=7 c=0 v=0
110592 Par ch=7 c=32 v=0
110592 PrCh ch=7 p=44
110592 Par ch=7 c=11 v=64
110592 On ch=7 n=70 v=47
110600 Par ch=7 c=11 v=65
110608 Par ch=7 c=11 v=66
110612 Par ch=7 c=11 v=67
110620 Par ch=7 c=11 v=68
110624 Par ch=7 c=11 v=69
110632 Par ch=7 c=11 v=70
110636 Par ch=7 c=11 v=71
110644 Par ch=7 c=11 v=72
110648 Par ch=7 c=11 v=73
110656 Par ch=7 c=11 v=74
110660 Par ch=7 c=11 v=75
110668 Par ch=7 c=11 v=76
110672 Par ch=7 c=11 v=77
110680 Par ch=7 c=11 v=78
110684 Par ch=7 c=11 v=79
110692 Par ch=7 c=11 v=80
110696 Par ch=7 c=11 v=81
110704 Par ch=7 c=11 v=82
110708 Par ch=7 c=11 v=83
110716 Par ch=7 c=11 v=84
110720 Par ch=7 c=11 v=85
110728 Par ch=7 c=11 v=86
110736 Par ch=7 c=11 v=87
110740 Par ch=7 c=11 v=88
110748 Par ch=7 c=11 v=89
110752 Par ch=7 c=11 v=90
110760 Par ch=7 c=11 v=91
110764 Par ch=7 c=11 v=92
110772 Par ch=7 c=11 v=93
110776 Par ch=7 c=11 v=94
110784 Par ch=7 c=11 v=95
110788 Par ch=7 c=11 v=96
110796 Par ch=7 c=11 v=97
110800 Par ch=7 c=11 v=98
110808 Par ch=7 c=11 v=99
110812 Par ch=7 c=11 v=100
110820 Par ch=7 c=11 v=101
110824 Par ch=7 c=11 v=102
110832 Par ch=7 c=11 v=103
110836 Par ch=7 c=11 v=104
110844 Par ch=7 c=11 v=105
110848 Par ch=7 c=11 v=106
110856 Par ch=7 c=11 v=107
110864 Par ch=7 c=11 v=108
110868 Par ch=7 c=11 v=109
110876 Par ch=7 c=11 v=110
110880 Par ch=7 c=11 v=111
110888 Par ch=7 c=11 v=112
110892 Par ch=7 c=11 v=113
110900 Par ch=7 c=11 v=114
110904 Par ch=7 c=11 v=115
110912 Par ch=7 c=11 v=116
110916 Par ch=7 c=11 v=117
110924 Par ch=7 c=11 v=118
110928 Par ch=7 c=11 v=119
110936 Par ch=7 c=11 v=120
110940 Par ch=7 c=11 v=121
110948 Par ch=7 c=11 v=122
110952 Par ch=7 c=11 v=123
110960 Par ch=7 c=11 v=124
110964 Par ch=7 c=11 v=125
110972 Par ch=7 c=11 v=126
111053 On ch=7 n=70 v=0
111072 Par ch=7 c=11 v=64
111072 Par ch=7 c=0 v=0
111072 Par ch=7 c=32 v=0
111072 PrCh ch=7 p=48
111072 On ch=7 n=68 v=111
111110 On ch=7 n=68 v=0
111120 On ch=7 n=66 v=111
111158 On ch=7 n=66 v=0
111168 On ch=7 n=65 v=111
111245 On ch=7 n=65 v=0
111264 On ch=7 n=63 v=111
111341 On ch=7 n=63 v=0
111360 On ch=7 n=71 v=111
111388 Par ch=7 c=11 v=16
111392 Par ch=7 c=11 v=17
111396 Par ch=7 c=11 v=18
111400 Par ch=7 c=11 v=19
111404 Par ch=7 c=11 v=20
111408 Par ch=7 c=11 v=22
111412 Par ch=7 c=11 v=23
111416 Par ch=7 c=11 v=24
111420 Par ch=7 c=11 v=25
111424 Par ch=7 c=11 v=26
111428 Par ch=7 c=11 v=27
111432 Par ch=7 c=11 v=29
111436 Par ch=7 c=11 v=30
111440 Par ch=7 c=11 v=31
111444 Par ch=7 c=11 v=32
111448 Par ch=7 c=11 v=33
111452 Par ch=7 c=11 v=34
111456 Par ch=7 c=11 v=36
111460 Par ch=7 c=11 v=37
111464 Par ch=7 c=11 v=38
111468 Par ch=7 c=11 v=39
111472 Par ch=7 c=11 v=40
111476 Par ch=7 c=11 v=41
111480 Par ch=7 c=11 v=43
111484 Par ch=7 c=11 v=44
111488 Par ch=7 c=11 v=45
111492 Par ch=7 c=11 v=46
111496 Par ch=7 c=11 v=47
111500 Par ch=7 c=11 v=48
111504 Par ch=7 c=11 v=50
111508 Par ch=7 c=11 v=51
111512 Par ch=7 c=11 v=52
111516 Par ch=7 c=11 v=53
111520 Par ch=7 c=11 v=54
111524 Par ch=7 c=11 v=55
111528 Par ch=7 c=11 v=57
111532 Par ch=7 c=11 v=58
111536 Par ch=7 c=11 v=59
111540 Par ch=7 c=11 v=60
111544 Par ch=7 c=11 v=61
111548 Par ch=7 c=11 v=62
111552 Par ch=7 c=11 v=64
111552 Par ch=7 c=11 v=64
111590 On ch=7 n=71 v=0
111600 On ch=7 n=75 v=111
111638 On ch=7 n=75 v=0
111648 On ch=7 n=73 v=111
111686 On ch=7 n=73 v=0
111696 On ch=7 n=71 v=111
111734 On ch=7 n=71 v=0
111744 Par ch=7 c=11 v=64
111744 Par ch=7 c=0 v=0
111744 Par ch=7 c=32 v=0
111744 PrCh ch=7 p=44
111744 On ch=7 n=81 v=111
111752 Par ch=7 c=11 v=63
111760 Par ch=7 c=11 v=62
111768 Par ch=7 c=11 v=61
111776 Par ch=7 c=11 v=60
111784 Par ch=7 c=11 v=59
111792 Par ch=7 c=11 v=58
111800 Par ch=7 c=11 v=57
111808 Par ch=7 c=11 v=56
111816 Par ch=7 c=11 v=55
111824 Par ch=7 c=11 v=54
111832 Par ch=7 c=11 v=53
111840 Par ch=7 c=11 v=52
111848 Par ch=7 c=11 v=51
111856 Par ch=7 c=11 v=50
111864 Par ch=7 c=11 v=49
111872 Par ch=7 c=11 v=48
111880 Par ch=7 c=11 v=47
111888 Par ch=7 c=11 v=46
111896 Par ch=7 c=11 v=45
111904 Par ch=7 c=11 v=44
111912 Par ch=7 c=11 v=43
111920 Par ch=7 c=11 v=42
111928 Par ch=7 c=11 v=41
111936 Par ch=7 c=11 v=40
111940 Par ch=7 c=11 v=39
111948 Par ch=7 c=11 v=38
111956 Par ch=7 c=11 v=37
111964 Par ch=7 c=11 v=36
111972 Par ch=7 c=11 v=35
111980 Par ch=7 c=11 v=34
111988 Par ch=7 c=11 v=33
111996 Par ch=7 c=11 v=32
112004 Par ch=7 c=11 v=31
112012 Par ch=7 c=11 v=30
112020 Par ch=7 c=11 v=29
112028 Par ch=7 c=11 v=28
112036 Par ch=7 c=11 v=27
112044 Par ch=7 c=11 v=26
112051 On ch=7 n=81 v=0
112052 Par ch=7 c=11 v=25
112060 Par ch=7 c=11 v=24
112068 Par ch=7 c=11 v=23
112076 Par ch=7 c=11 v=22
112084 Par ch=7 c=11 v=21
112092 Par ch=7 c=11 v=20
112100 Par ch=7 c=11 v=19
112108 Par ch=7 c=11 v=18
112116 Par ch=7 c=11 v=17
112124 Par ch=7 c=11 v=16
112224 Par ch=7 c=11 v=64
112224 On ch=7 n=78 v=111
112244 Par ch=7 c=11 v=63
112250 On ch=7 n=78 v=0
112256 On ch=7 n=77 v=111
112260 Par ch=7 c=11 v=62
112276 Par ch=7 c=11 v=61
112282 On ch=7 n=77 v=0
112288 On ch=7 n=75 v=111
112292 Par ch=7 c=11 v=60
112312 Par ch=7 c=11 v=59
112314 On ch=7 n=75 v=0
112320 On ch=7 n=75 v=111
112328 Par ch=7 c=11 v=58
112344 Par ch=7 c=11 v=57
112346 On ch=7 n=75 v=0
112352 On ch=7 n=73 v=111
112360 Par ch=7 c=11 v=56
112378 On ch=7 n=73 v=0
112380 Par ch=7 c=11 v=55
112384 On ch=7 n=71 v=111
112396 Par ch=7 c=11 v=54
112410 On ch=7 n=71 v=0
112412 Par ch=7 c=11 v=53
112416 On ch=7 n=70 v=111
112428 Par ch=7 c=11 v=52
112442 On ch=7 n=70 v=0
112448 Par ch=7 c=11 v=51
112448 On ch=7 n=66 v=111
112464 Par ch=7 c=11 v=50
112474 On ch=7 n=66 v=0
112480 Par ch=7 c=11 v=49
112480 On ch=7 n=70 v=111
112496 Par ch=7 c=11 v=48
112501 On ch=7 n=70 v=0
112512 Par ch=7 c=11 v=64
112512 On ch=7 n=81 v=111
112520 Par ch=7 c=11 v=63
112528 Par ch=7 c=11 v=62
112536 Par ch=7 c=11 v=61
112544 Par ch=7 c=11 v=60
112552 Par ch=7 c=11 v=59
112560 Par ch=7 c=11 v=58
112568 Par ch=7 c=11 v=57
112576 Par ch=7 c=11 v=56
112584 Par ch=7 c=11 v=55
112592 Par ch=7 c=11 v=54
112600 Par ch=7 c=11 v=53
112608 Par ch=7 c=11 v=52
112616 Par ch=7 c=11 v=51
112624 Par ch=7 c=11 v=50
112632 Par ch=7 c=11 v=49
112640 Par ch=7 c=11 v=48
112648 Par ch=7 c=11 v=47
112656 Par ch=7 c=11 v=46
112664 Par ch=7 c=11 v=45
112672 Par ch=7 c=11 v=44
112680 Par ch=7 c=11 v=43
112688 Par ch=7 c=11 v=42
112696 Par ch=7 c=11 v=41
112704 Par ch=7 c=11 v=40
112708 Par ch=7 c=11 v=39
112716 Par ch=7 c=11 v=38
112724 Par ch=7 c=11 v=37
112732 Par ch=7 c=11 v=36
112740 Par ch=7 c=11 v=35
112748 Par ch=7 c=11 v=34
112756 Par ch=7 c=11 v=33
112764 Par ch=7 c=11 v=32
112772 Par ch=7 c=11 v=31
112780 Par ch=7 c=11 v=30
112788 Par ch=7 c=11 v=29
112796 Par ch=7 c=11 v=28
112804 Par ch=7 c=11 v=27
112812 Par ch=7 c=11 v=26
112819 On ch=7 n=81 v=0
112820 Par ch=7 c=11 v=25
112828 Par ch=7 c=11 v=24
112836 Par ch=7 c=11 v=23
112844 Par ch=7 c=11 v=22
112852 Par ch=7 c=11 v=21
112860 Par ch=7 c=11 v=20
112868 Par ch=7 c=11 v=19
112876 Par ch=7 c=11 v=18
112884 Par ch=7 c=11 v=17
112892 Par ch=7 c=11 v=16
112992 Par ch=7 c=11 v=64
112992 On ch=7 n=78 v=111
113012 Par ch=7 c=11 v=63
113018 On ch=7 n=78 v=0
113024 On ch=7 n=77 v=111
113028 Par ch=7 c=11 v=62
113044 Par ch=7 c=11 v=61
113050 On ch=7 n=77 v=0
113056 On ch=7 n=75 v=111
113060 Par ch=7 c=11 v=60
113080 Par ch=7 c=11 v=59
113082 On ch=7 n=75 v=0
113088 On ch=7 n=75 v=111
113096 Par ch=7 c=11 v=58
113112 Par ch=7 c=11 v=57
113114 On ch=7 n=75 v=0
113120 On ch=7 n=73 v=111
113128 Par ch=7 c=11 v=56
113146 On ch=7 n=73 v=0
113148 Par ch=7 c=11 v=55
113152 On ch=7 n=71 v=111
113164 Par ch=7 c=11 v=54
113178 On ch=7 n=71 v=0
113180 Par ch=7 c=11 v=53
113184 On ch=7 n=70 v=111
113196 Par ch=7 c=11 v=52
113210 On ch=7 n=70 v=0
113216 Par ch=7 c=11 v=51
113216 On ch=7 n=66 v=111
113232 Par ch=7 c=11 v=50
113242 On ch=7 n=66 v=0
113248 Par ch=7 c=11 v=49
113248 On ch=7 n=70 v=111
113264 Par ch=7 c=11 v=48
113269 On ch=7 n=70 v=0
113280 Par ch=7 c=11 v=64
113280 On ch=7 n=68 v=111
113280 On ch=7 n=76 v=111
113318 On ch=7 n=68 v=0
113357 On ch=7 n=76 v=0
113376 On ch=7 n=74 v=111
113424 On ch=7 n=66 v=111
113453 On ch=7 n=74 v=0
113462 On ch=7 n=66 v=0
113472 On ch=7 n=71 v=111
113472 On ch=7 n=75 v=111
113510 On ch=7 n=71 v=0
113549 On ch=7 n=75 v=0
113568 On ch=7 n=78 v=111
113568 On ch=7 n=74 v=111
113606 On ch=7 n=78 v=0
113616 On ch=7 n=66 v=111
113645 On ch=7 n=74 v=0
113654 On ch=7 n=66 v=0
113664 Par ch=7 c=11 v=64
113664 On ch=7 n=70 v=111
113664 On ch=7 n=77 v=111
113688 Par ch=7 c=11 v=65
113702 On ch=7 n=70 v=0
113712 Par ch=7 c=11 v=66
113732 Par ch=7 c=11 v=67
113741 On ch=7 n=77 v=0
113756 Par ch=7 c=11 v=68
113760 On ch=7 n=76 v=111
113780 Par ch=7 c=11 v=69
113800 Par ch=7 c=11 v=70
113808 On ch=7 n=68 v=111
113824 Par ch=7 c=11 v=71
113837 On ch=7 n=76 v=0
113846 On ch=7 n=68 v=0
113848 Par ch=7 c=11 v=72
113856 On ch=7 n=69 v=111
113856 On ch=7 n=77 v=111
113868 Par ch=7 c=11 v=73
113892 Par ch=7 c=11 v=74
113894 On ch=7 n=69 v=0
113916 Par ch=7 c=11 v=75
113933 On ch=7 n=77 v=0
113936 Par ch=7 c=11 v=76
113952 On ch=7 n=76 v=111
113960 Par ch=7 c=11 v=77
113984 Par ch=7 c=11 v=78
114000 On ch=7 n=68 v=111
114004 Par ch=7 c=11 v=79
114028 Par ch=7 c=11 v=80
114029 On ch=7 n=76 v=0
114038 On ch=7 n=68 v=0
114048 Par ch=7 c=11 v=64
114048 On ch=7 n=75 v=111
114048 On ch=7 n=80 v=111
114144 On ch=7 n=75 v=0
114144 On ch=7 n=74 v=111
114288 On ch=7 n=74 v=0
114288 On ch=7 n=78 v=111
114326 On ch=7 n=78 v=0
114336 On ch=7 n=77 v=111
114355 On ch=7 n=80 v=0
114374 On ch=7 n=77 v=0
114384 On ch=7 n=68 v=111
114422 On ch=7 n=68 v=0
114432 Par ch=7 c=11 v=64
114432 On ch=7 n=68 v=111
114444 Par ch=7 c=11 v=63
114456 Par ch=7 c=11 v=62
114468 Par ch=7 c=11 v=61
114470 On ch=7 n=68 v=0
114480 Par ch=7 c=11 v=60
114480 On ch=7 n=67 v=111
114492 Par ch=7 c=11 v=59
114500 Par ch=7 c=11 v=58
114512 Par ch=7 c=11 v=57
114518 On ch=7 n=67 v=0
114524 Par ch=7 c=11 v=56
114528 On ch=7 n=77 v=111
114536 Par ch=7 c=11 v=55
114548 Par ch=7 c=11 v=54
114560 Par ch=7 c=11 v=53
114566 On ch=7 n=77 v=0
114568 Par ch=7 c=11 v=52
114576 On ch=7 n=75 v=111
114580 Par ch=7 c=11 v=51
114592 Par ch=7 c=11 v=50
114604 Par ch=7 c=11 v=49
114614 On ch=7 n=75 v=0
114616 Par ch=7 c=11 v=48
114624 Par ch=7 c=11 v=47
114624 On ch=7 n=66 v=111
114636 Par ch=7 c=11 v=46
114648 Par ch=7 c=11 v=45
114660 Par ch=7 c=11 v=44
114662 On ch=7 n=66 v=0
114672 Par ch=7 c=11 v=43
114672 On ch=7 n=74 v=111
114684 Par ch=7 c=11 v=42
114692 Par ch=7 c=11 v=41
114704 Par ch=7 c=11 v=40
114710 On ch=7 n=74 v=0
114716 Par ch=7 c=11 v=39
114720 On ch=7 n=73 v=111
114728 Par ch=7 c=11 v=38
114740 Par ch=7 c=11 v=37
114752 Par ch=7 c=11 v=36
114758 On ch=7 n=73 v=0
114760 Par ch=7 c=11 v=35
114768 On ch=7 n=65 v=111
114772 Par ch=7 c=11 v=34
114784 Par ch=7 c=11 v=33
114796 Par ch=7 c=11 v=32
114806 On ch=7 n=65 v=0
114816 Par ch=7 c=11 v=32
114816 On ch=7 n=65 v=111
114828 Par ch=7 c=11 v=33
114840 Par ch=7 c=11 v=34
114852 Par ch=7 c=11 v=35
114854 On ch=7 n=65 v=0
114864 Par ch=7 c=11 v=36
114864 On ch=7 n=64 v=111
114876 Par ch=7 c=11 v=37
114888 Par ch=7 c=11 v=38
114900 Par ch=7 c=11 v=39
114902 On ch=7 n=64 v=0
114912 Par ch=7 c=11 v=40
114912 On ch=7 n=72 v=111
114924 Par ch=7 c=11 v=41
114936 Par ch=7 c=11 v=42
114944 Par ch=7 c=11 v=43
114950 On ch=7 n=72 v=0
114956 Par ch=7 c=11 v=44
114960 On ch=7 n=71 v=111
114968 Par ch=7 c=11 v=45
114980 Par ch=7 c=11 v=46
114992 Par ch=7 c=11 v=47
114998 On ch=7 n=71 v=0
115004 Par ch=7 c=11 v=48
115008 On ch=7 n=63 v=111
115016 Par ch=7 c=11 v=49
115028 Par ch=7 c=11 v=50
115040 Par ch=7 c=11 v=51
115046 On ch=7 n=63 v=0
115052 Par ch=7 c=11 v=52
115056 On ch=7 n=62 v=111
115064 Par ch=7 c=11 v=53
115072 Par ch=7 c=11 v=54
115084 Par ch=7 c=11 v=55
115094 On ch=7 n=62 v=0
115096 Par ch=7 c=11 v=56
115104 On ch=7 n=70 v=111
115108 Par ch=7 c=11 v=57
115120 Par ch=7 c=11 v=58
115132 Par ch=7 c=11 v=59
115142 On ch=7 n=70 v=0
115144 Par ch=7 c=11 v=60
115152 On ch=7 n=69 v=111
115156 Par ch=7 c=11 v=61
115168 Par ch=7 c=11 v=62
115180 Par ch=7 c=11 v=63
115190 On ch=7 n=69 v=0
115192 Par ch=7 c=11 v=64
115200 Par ch=7 c=11 v=64
115200 On ch=7 n=68 v=111
115212 Par ch=7 c=11 v=63
115224 Par ch=7 c=11 v=62
115236 Par ch=7 c=11 v=61
115248 Par ch=7 c=11 v=60
115260 Par ch=7 c=11 v=59
115268 Par ch=7 c=11 v=58
115280 Par ch=7 c=11 v=57
115292 Par ch=7 c=11 v=56
115304 Par ch=7 c=11 v=55
115316 Par ch=7 c=11 v=54
115328 Par ch=7 c=11 v=53
115336 Par ch=7 c=11 v=52
115348 Par ch=7 c=11 v=51
115352 On ch=7 n=68 v=0
115360 Par ch=7 c=11 v=50
115372 Par ch=7 c=11 v=49
115384 Par ch=7 c=11 v=48
115392 Par ch=7 c=11 v=47
115392 On ch=7 n=66 v=111
115404 Par ch=7 c=11 v=46
115416 Par ch=7 c=11 v=45
115428 Par ch=7 c=11 v=44
115440 Par ch=7 c=11 v=43
115452 Par ch=7 c=11 v=42
115460 Par ch=7 c=11 v=41
115472 Par ch=7 c=11 v=40
115484 Par ch=7 c=11 v=39
115496 Par ch=7 c=11 v=38
115508 Par ch=7 c=11 v=37
115520 Par ch=7 c=11 v=36
115528 Par ch=7 c=11 v=35
115540 Par ch=7 c=11 v=34
115552 Par ch=7 c=11 v=33
115564 Par ch=7 c=11 v=32
115584 Par ch=7 c=11 v=32
115596 Par ch=7 c=11 v=33
115608 Par ch=7 c=11 v=34
115620 Par ch=7 c=11 v=35
115632 Par ch=7 c=11 v=36
115644 Par ch=7 c=11 v=37
115656 Par ch=7 c=11 v=38
115660 On ch=7 n=66 v=0
115668 Par ch=7 c=11 v=39
115680 Par ch=7 c=0 v=0
115680 Par ch=7 c=32 v=0
115680 PrCh ch=7 p=48
115680 Par ch=7 c=11 v=40
115680 On ch=7 n=76 v=111
115692 Par ch=7 c=11 v=41
115704 Par ch=7 c=11 v=42
115712 Par ch=7 c=11 v=43
115724 Par ch=7 c=11 v=44
115736 Par ch=7 c=11 v=45
115748 Par ch=7 c=11 v=46
115756 On ch=7 n=76 v=0
115760 Par ch=7 c=11 v=47
115772 Par ch=7 c=11 v=48
115776 On ch=7 n=75 v=111
115784 Par ch=7 c=11 v=49
115796 Par ch=7 c=11 v=50
115808 Par ch=7 c=11 v=51
115820 Par ch=7 c=11 v=52
115832 Par ch=7 c=11 v=53
115840 Par ch=7 c=11 v=54
115852 On ch=7 n=75 v=0
115852 Par ch=7 c=11 v=55
115864 Par ch=7 c=11 v=56
115872 On ch=7 n=74 v=111
115876 Par ch=7 c=11 v=57
115888 Par ch=7 c=11 v=58
115900 Par ch=7 c=11 v=59
115912 Par ch=7 c=11 v=60
115924 Par ch=7 c=11 v=61
115936 Par ch=7 c=11 v=62
115948 On ch=7 n=74 v=0
115948 Par ch=7 c=11 v=63
115960 Par ch=7 c=11 v=64
115968 Par ch=7 c=0 v=0
115968 Par ch=7 c=32 v=0
115968 PrCh ch=7 p=44
115968 Par ch=7 c=11 v=64
115968 On ch=7 n=68 v=111
115992 Par ch=7 c=11 v=63
116016 Par ch=7 c=11 v=62
116036 Par ch=7 c=11 v=61
116060 Par ch=7 c=11 v=60
116084 Par ch=7 c=11 v=59
116104 Par ch=7 c=11 v=58
116120 On ch=7 n=68 v=0
116128 Par ch=7 c=11 v=57
116152 Par ch=7 c=11 v=56
116160 On ch=7 n=66 v=111
116172 Par ch=7 c=11 v=55
116196 Par ch=7 c=11 v=54
116220 Par ch=7 c=11 v=53
116240 Par ch=7 c=11 v=52
116264 Par ch=7 c=11 v=51
116288 Par ch=7 c=11 v=50
116308 Par ch=7 c=11 v=49
116332 Par ch=7 c=11 v=48
116352 Par ch=7 c=11 v=47
116376 Par ch=7 c=11 v=46
116400 Par ch=7 c=11 v=45
116420 Par ch=7 c=11 v=44
116428 On ch=7 n=66 v=0
116444 Par ch=7 c=11 v=43
116448 Par ch=7 c=0 v=0
116448 Par ch=7 c=32 v=0
116448 PrCh ch=7 p=48
116448 On ch=7 n=65 v=111
116468 Par ch=7 c=11 v=42
116488 Par ch=7 c=11 v=41
116512 Par ch=7 c=11 v=40
116524 On ch=7 n=65 v=0
116536 Par ch=7 c=11 v=39
116544 On ch=7 n=64 v=111
116556 Par ch=7 c=11 v=38
116580 Par ch=7 c=11 v=37
116604 Par ch=7 c=11 v=36
116620 On ch=7 n=64 v=0
116624 Par ch=7 c=11 v=35
116640 On ch=7 n=63 v=111
116648 Par ch=7 c=11 v=34
116672 Par ch=7 c=11 v=33
116692 Par ch=7 c=11 v=32
116716 On ch=7 n=63 v=0
116736 Par ch=7 c=0 v=0
116736 Par ch=7 c=32 v=0
116736 PrCh ch=7 p=45
116736 Par ch=7 c=11 v=64
116736 On ch=7 n=63 v=95
116736 On ch=7 n=58 v=95
116762 On ch=7 n=58 v=0
116762 On ch=7 n=63 v=0
116768 On ch=7 n=63 v=95
116768 On ch=7 n=58 v=95
116794 On ch=7 n=58 v=0
116794 On ch=7 n=63 v=0
116800 On ch=7 n=63 v=95
116800 On ch=7 n=58 v=95
116826 On ch=7 n=58 v=0
116826 On ch=7 n=63 v=0
116832 On ch=7 n=51 v=95
116832 On ch=7 n=58 v=95
116858 On ch=7 n=58 v=0
116858 On ch=7 n=51 v=0
116864 On ch=7 n=51 v=95
116864 On ch=7 n=58 v=95
116890 On ch=7 n=58 v=0
116890 On ch=7 n=51 v=0
116896 On ch=7 n=51 v=95
116896 On ch=7 n=58 v=95
116922 On ch=7 n=58 v=0
116922 On ch=7 n=51 v=0
116928 On ch=7 n=51 v=95
116928 On ch=7 n=58 v=95
116954 On ch=7 n=58 v=0
116954 On ch=7 n=51 v=0
116960 On ch=7 n=51 v=95
116960 On ch=7 n=58 v=95
116986 On ch=7 n=58 v=0
116986 On ch=7 n=51 v=0
116992 On ch=7 n=51 v=95
116992 On ch=7 n=58 v=95
117018 On ch=7 n=58 v=0
117018 On ch=7 n=51 v=0
117024 On ch=7 n=63 v=95
117024 On ch=7 n=58 v=95
117050 On ch=7 n=58 v=0
117050 On ch=7 n=63 v=0
117056 On ch=7 n=63 v=95
117056 On ch=7 n=58 v=95
117082 On ch=7 n=58 v=0
117082 On ch=7 n=63 v=0
117088 On ch=7 n=63 v=95
117088 On ch=7 n=58 v=95
117114 On ch=7 n=58 v=0
117114 On ch=7 n=63 v=0
117120 On ch=7 n=70 v=95
117120 On ch=7 n=63 v=95
117146 On ch=7 n=63 v=0
117146 On ch=7 n=70 v=0
117152 On ch=7 n=70 v=95
117152 On ch=7 n=63 v=95
117178 On ch=7 n=63 v=0
117178 On ch=7 n=70 v=0
117184 On ch=7 n=70 v=95
117184 On ch=7 n=63 v=95
117210 On ch=7 n=63 v=0
117210 On ch=7 n=70 v=0
117216 On ch=7 n=51 v=95
117216 On ch=7 n=58 v=95
117242 On ch=7 n=58 v=0
117242 On ch=7 n=51 v=0
117248 On ch=7 n=51 v=95
117248 On ch=7 n=58 v=95
117274 On ch=7 n=58 v=0
117274 On ch=7 n=51 v=0
117280 On ch=7 n=51 v=95
117280 On ch=7 n=58 v=95
117306 On ch=7 n=58 v=0
117306 On ch=7 n=51 v=0
117312 On ch=7 n=51 v=95
117312 On ch=7 n=58 v=95
117338 On ch=7 n=58 v=0
117338 On ch=7 n=51 v=0
117344 On ch=7 n=51 v=95
117344 On ch=7 n=58 v=95
117370 On ch=7 n=58 v=0
117370 On ch=7 n=51 v=0
117376 On ch=7 n=51 v=95
117376 On ch=7 n=58 v=95
117402 On ch=7 n=58 v=0
117402 On ch=7 n=51 v=0
117408 On ch=7 n=63 v=95
117408 On ch=7 n=58 v=95
117434 On ch=7 n=58 v=0
117434 On ch=7 n=63 v=0
117440 On ch=7 n=63 v=95
117440 On ch=7 n=58 v=95
117466 On ch=7 n=58 v=0
117466 On ch=7 n=63 v=0
117472 On ch=7 n=63 v=95
117472 On ch=7 n=58 v=95
117498 On ch=7 n=58 v=0
117498 On ch=7 n=63 v=0
117504 Par ch=7 c=11 v=64
117504 On ch=7 n=63 v=95
117504 On ch=7 n=70 v=95
117530 On ch=7 n=70 v=0
117530 On ch=7 n=63 v=0
117536 On ch=7 n=63 v=95
117536 On ch=7 n=70 v=95
117552 Par ch=7 c=11 v=65
117562 On ch=7 n=70 v=0
117562 On ch=7 n=63 v=0
117568 On ch=7 n=63 v=95
117568 On ch=7 n=70 v=95
117594 On ch=7 n=70 v=0
117594 On ch=7 n=63 v=0
117596 Par ch=7 c=11 v=66
117600 On ch=7 n=58 v=95
117600 On ch=7 n=51 v=95
117626 On ch=7 n=51 v=0
117626 On ch=7 n=58 v=0
117632 On ch=7 n=58 v=95
117632 On ch=7 n=51 v=95
117640 Par ch=7 c=11 v=67
117658 On ch=7 n=51 v=0
117658 On ch=7 n=58 v=0
117664 On ch=7 n=58 v=95
117664 On ch=7 n=51 v=95
117688 Par ch=7 c=11 v=68
117690 On ch=7 n=51 v=0
117690 On ch=7 n=58 v=0
117696 On ch=7 n=58 v=95
117696 On ch=7 n=51 v=95
117722 On ch=7 n=51 v=0
117722 On ch=7 n=58 v=0
117728 On ch=7 n=58 v=95
117728 On ch=7 n=51 v=95
117732 Par ch=7 c=11 v=69
117754 On ch=7 n=51 v=0
117754 On ch=7 n=58 v=0
117760 On ch=7 n=58 v=95
117760 On ch=7 n=51 v=95
117776 Par ch=7 c=11 v=70
117786 On ch=7 n=51 v=0
117786 On ch=7 n=58 v=0
117792 On ch=7 n=58 v=95
117792 On ch=7 n=63 v=95
117818 On ch=7 n=63 v=0
117818 On ch=7 n=58 v=0
117824 Par ch=7 c=11 v=71
117824 On ch=7 n=58 v=95
117824 On ch=7 n=63 v=95
117850 On ch=7 n=63 v=0
117850 On ch=7 n=58 v=0
117856 On ch=7 n=58 v=95
117856 On ch=7 n=63 v=95
117868 Par ch=7 c=11 v=72
117882 On ch=7 n=63 v=0
117882 On ch=7 n=58 v=0
117888 On ch=7 n=63 v=95
117888 On ch=7 n=70 v=95
117912 Par ch=7 c=11 v=73
117914 On ch=7 n=70 v=0
117914 On ch=7 n=63 v=0
117920 On ch=7 n=63 v=95
117920 On ch=7 n=70 v=95
117946 On ch=7 n=70 v=0
117946 On ch=7 n=63 v=0
117952 On ch=7 n=63 v=95
117952 On ch=7 n=70 v=95
117956 Par ch=7 c=11 v=74
117978 On ch=7 n=70 v=0
117978 On ch=7 n=63 v=0
117984 On ch=7 n=58 v=95
117984 On ch=7 n=51 v=95
118004 Par ch=7 c=11 v=75
118010 On ch=7 n=51 v=0
118010 On ch=7 n=58 v=0
118016 On ch=7 n=58 v=95
118016 On ch=7 n=51 v=95
118042 On ch=7 n=51 v=0
118042 On ch=7 n=58 v=0
118048 Par ch=7 c=11 v=76
118048 On ch=7 n=58 v=95
118048 On ch=7 n=51 v=95
118074 On ch=7 n=51 v=0
118074 On ch=7 n=58 v=0
118080 On ch=7 n=58 v=95
118080 On ch=7 n=51 v=95
118092 Par ch=7 c=11 v=77
118106 On ch=7 n=51 v=0
118106 On ch=7 n=58 v=0
118112 On ch=7 n=58 v=95
118112 On ch=7 n=51 v=95
118138 On ch=7 n=51 v=0
118138 On ch=7 n=58 v=0
118140 Par ch=7 c=11 v=78
118144 On ch=7 n=58 v=95
118144 On ch=7 n=51 v=95
118170 On ch=7 n=51 v=0
118170 On ch=7 n=58 v=0
118176 On ch=7 n=58 v=95
118176 On ch=7 n=63 v=95
118184 Par ch=7 c=11 v=79
118202 On ch=7 n=63 v=0
118202 On ch=7 n=58 v=0
118208 On ch=7 n=58 v=95
118208 On ch=7 n=63 v=95
118228 Par ch=7 c=11 v=80
118234 On ch=7 n=63 v=0
118234 On ch=7 n=58 v=0
118240 On ch=7 n=58 v=95
118240 On ch=7 n=63 v=95
118266 On ch=7 n=63 v=0
118266 On ch=7 n=58 v=0
118272 Par ch=7 c=0 v=0
118272 Par ch=7 c=32 v=0
118272 PrCh ch=7 p=48
118272 Par ch=7 c=11 v=64
118272 On ch=7 n=70 v=100
118368 On ch=7 n=70 v=0
118368 On ch=7 n=66 v=100
118399 On ch=7 n=66 v=0
118440 On ch=7 n=68 v=100
118456 On ch=7 n=68 v=0
118464 On ch=7 n=70 v=100
118560 On ch=7 n=70 v=0
118560 On ch=7 n=73 v=100
118591 On ch=7 n=73 v=0
118632 On ch=7 n=71 v=100
118648 On ch=7 n=71 v=0
118656 On ch=7 n=70 v=100
118733 On ch=7 n=70 v=0
118752 On ch=7 n=63 v=100
118829 On ch=7 n=63 v=0
118944 On ch=7 n=73 v=100
118975 On ch=7 n=73 v=0
119016 On ch=7 n=71 v=100
119032 On ch=7 n=71 v=0
119040 On ch=7 n=70 v=100
119117 On ch=7 n=70 v=0
119136 On ch=7 n=75 v=100
119213 On ch=7 n=75 v=0
119424 Par ch=7 c=0 v=0
119424 Par ch=7 c=32 v=0
119424 PrCh ch=7 p=44
119424 On ch=7 n=66 v=100
119424 On ch=7 n=63 v=100
120038 On ch=7 n=63 v=0
120038 On ch=7 n=66 v=0
120096 On ch=7 n=68 v=100
120096 On ch=7 n=63 v=100
120422 On ch=7 n=63 v=0
120422 On ch=7 n=68 v=0
120480 On ch=7 n=71 v=100
120480 On ch=7 n=68 v=100
120480 On ch=7 n=65 v=100
120806 On ch=7 n=65 v=0
120806 On ch=7 n=68 v=0
120806 On ch=7 n=71 v=0
120864 On ch=7 n=72 v=100
120864 On ch=7 n=69 v=100
120864 On ch=7 n=66 v=100
121190 On ch=7 n=66 v=0
121190 On ch=7 n=69 v=0
121190 On ch=7 n=72 v=0
121248 Par ch=7 c=0 v=0
121248 Par ch=7 c=32 v=0
121248 PrCh ch=7 p=48
121248 On ch=7 n=75 v=100
121286 On ch=7 n=75 v=0
121320 On ch=7 n=74 v=100
121336 On ch=7 n=74 v=0
121344 On ch=7 n=73 v=100
121375 On ch=7 n=73 v=0
121416 On ch=7 n=72 v=100
121432 On ch=7 n=72 v=0
121440 On ch=7 n=71 v=100
121471 On ch=7 n=71 v=0
121512 On ch=7 n=70 v=100
121528 On ch=7 n=70 v=0
121536 On ch=7 n=69 v=100
121567 On ch=7 n=69 v=0
121608 On ch=7 n=68 v=100
121624 On ch=7 n=68 v=0
121632 On ch=7 n=67 v=100
121663 On ch=7 n=67 v=0
121704 On ch=7 n=66 v=100
121720 On ch=7 n=66 v=0
121728 On ch=7 n=71 v=100
121759 On ch=7 n=71 v=0
121800 On ch=7 n=70 v=100
121816 On ch=7 n=70 v=0
121824 On ch=7 n=69 v=100
121855 On ch=7 n=69 v=0
121896 On ch=7 n=68 v=100
121912 On ch=7 n=68 v=0
121920 On ch=7 n=67 v=100
121951 On ch=7 n=67 v=0
121992 On ch=7 n=66 v=100
122008 On ch=7 n=66 v=0
122016 On ch=7 n=65 v=100
122047 On ch=7 n=65 v=0
122088 On ch=7 n=64 v=100
122104 On ch=7 n=64 v=0
122112 On ch=7 n=81 v=100
122138 On ch=7 n=81 v=0
122144 On ch=7 n=80 v=100
122170 On ch=7 n=80 v=0
122176 On ch=7 n=79 v=100
122202 On ch=7 n=79 v=0
122208 On ch=7 n=78 v=100
122234 On ch=7 n=78 v=0
122240 On ch=7 n=77 v=100
122266 On ch=7 n=77 v=0
122272 On ch=7 n=76 v=100
122298 On ch=7 n=76 v=0
122304 On ch=7 n=75 v=100
122330 On ch=7 n=75 v=0
122336 On ch=7 n=74 v=100
122362 On ch=7 n=74 v=0
122368 On ch=7 n=73 v=100
122394 On ch=7 n=73 v=0
122400 On ch=7 n=72 v=100
122426 On ch=7 n=72 v=0
122432 On ch=7 n=71 v=100
122458 On ch=7 n=71 v=0
122464 On ch=7 n=70 v=100
122490 On ch=7 n=70 v=0
122496 Par ch=7 c=0 v=0
122496 Par ch=7 c=32 v=0
122496 PrCh ch=7 p=44
122496 On ch=7 n=69 v=100
122522 On ch=7 n=69 v=0
122528 On ch=7 n=68 v=100
122554 On ch=7 n=68 v=0
122560 On ch=7 n=67 v=100
122586 On ch=7 n=67 v=0
122592 On ch=7 n=66 v=100
122618 On ch=7 n=66 v=0
122624 On ch=7 n=65 v=100
122650 On ch=7 n=65 v=0
122656 On ch=7 n=64 v=100
122682 On ch=7 n=64 v=0
122688 On ch=7 n=63 v=100
122714 On ch=7 n=63 v=0
122720 On ch=7 n=62 v=100
122746 On ch=7 n=62 v=0
122752 On ch=7 n=61 v=100
122778 On ch=7 n=61 v=0
122784 On ch=7 n=60 v=100
122810 On ch=7 n=60 v=0
122816 On ch=7 n=58 v=100
122842 On ch=7 n=58 v=0
122848 On ch=7 n=57 v=100
122874 On ch=7 n=57 v=0
122880 Par ch=7 c=0 v=0
122880 Par ch=7 c=32 v=0
122880 PrCh ch=7 p=48
122880 On ch=7 n=55 v=100
122918 On ch=7 n=55 v=0
123264 On ch=7 n=72 v=127
123264 On ch=7 n=60 v=127
123283 On ch=7 n=60 v=0
123283 On ch=7 n=72 v=0
123360 On ch=7 n=72 v=127
123366 On ch=7 n=79 v=127
123370 On ch=7 n=72 v=0
123397 On ch=7 n=79 v=0
124032 On ch=7 n=61 v=127
124038 On ch=7 n=73 v=127
124042 On ch=7 n=61 v=0
124069 On ch=7 n=73 v=0
124128 On ch=7 n=73 v=127
124134 On ch=7 n=79 v=127
124138 On ch=7 n=73 v=0
124165 On ch=7 n=79 v=0
124800 Par ch=7 c=0 v=0
124800 Par ch=7 c=32 v=0
124800 PrCh ch=7 p=45
124800 On ch=7 n=72 v=127
124800 On ch=7 n=63 v=127
124819 On ch=7 n=63 v=0
124819 On ch=7 n=72 v=0
125568 Par ch=7 c=0 v=0
125568 Par ch=7 c=32 v=0
125568 PrCh ch=7 p=48
125568 On ch=7 n=55 v=111
125606 On ch=7 n=55 v=0
125640 On ch=7 n=55 v=111
125659 On ch=7 n=55 v=0
125664 On ch=7 n=55 v=111
125690 On ch=7 n=55 v=0
125696 On ch=7 n=55 v=111
125722 On ch=7 n=55 v=0
125728 On ch=7 n=55 v=111
125754 On ch=7 n=55 v=0
125760 On ch=7 n=55 v=111
125798 On ch=7 n=55 v=0
125832 On ch=7 n=55 v=111
125851 On ch=7 n=55 v=0
125856 On ch=7 n=55 v=111
125882 On ch=7 n=55 v=0
125888 On ch=7 n=55 v=111
125914 On ch=7 n=55 v=0
125920 On ch=7 n=55 v=111
125946 On ch=7 n=55 v=0
125952 On ch=7 n=67 v=111
125978 On ch=7 n=67 v=0
125984 On ch=7 n=66 v=111
126010 On ch=7 n=66 v=0
126016 On ch=7 n=65 v=111
126042 On ch=7 n=65 v=0
126048 On ch=7 n=63 v=111
126074 On ch=7 n=63 v=0
126080 On ch=7 n=62 v=111
126106 On ch=7 n=62 v=0
126112 On ch=7 n=60 v=111
126138 On ch=7 n=60 v=0
126144 On ch=7 n=59 v=111
126170 On ch=7 n=59 v=0
126176 On ch=7 n=56 v=111
126202 On ch=7 n=56 v=0
126208 On ch=7 n=55 v=111
126234 On ch=7 n=55 v=0
126240 On ch=7 n=53 v=111
126266 On ch=7 n=53 v=0
126272 On ch=7 n=51 v=111
126298 On ch=7 n=51 v=0
126304 On ch=7 n=50 v=111
126330 On ch=7 n=50 v=0
126336 Par ch=7 c=0 v=0
126336 Par ch=7 c=32 v=0
126336 PrCh ch=7 p=44
126336 On ch=7 n=67 v=111
126336 On ch=7 n=55 v=111
126360 Par ch=7 c=11 v=32
126384 Par ch=7 c=11 v=31
126404 Par ch=7 c=11 v=30
126424 Par ch=7 c=11 v=29
126448 Par ch=7 c=11 v=28
126468 Par ch=7 c=11 v=27
126488 Par ch=7 c=11 v=26
126512 Par ch=7 c=11 v=25
126532 Par ch=7 c=11 v=24
126552 Par ch=7 c=11 v=23
126572 Par ch=7 c=11 v=22
126596 Par ch=7 c=11 v=21
126616 Par ch=7 c=11 v=20
126636 Par ch=7 c=11 v=19
126660 Par ch=7 c=11 v=18
126680 Par ch=7 c=11 v=17
126700 Par ch=7 c=11 v=16
128179 On ch=7 n=55 v=0
128179 On ch=7 n=67 v=0
128256 Par ch=7 c=11 v=64
128256 Par ch=7 c=0 v=0
128256 Par ch=7 c=32 v=0
128256 PrCh ch=7 p=48
128256 On ch=7 n=60 v=47
128294 On ch=7 n=60 v=0
128328 On ch=7 n=55 v=47
128347 On ch=7 n=55 v=0
128352 On ch=7 n=48 v=47
128390 On ch=7 n=48 v=0
128496 On ch=7 n=54 v=47
128515 On ch=7 n=54 v=0
128520 On ch=7 n=55 v=47
128539 On ch=7 n=55 v=0
128544 On ch=7 n=57 v=47
128563 On ch=7 n=57 v=0
128568 On ch=7 n=55 v=47
128587 On ch=7 n=55 v=0
128592 On ch=7 n=57 v=47
128611 On ch=7 n=57 v=0
128616 On ch=7 n=59 v=47
128635 On ch=7 n=59 v=0
128640 On ch=7 n=60 v=47
128678 On ch=7 n=60 v=0
128712 On ch=7 n=55 v=47
128731 On ch=7 n=55 v=0
128736 On ch=7 n=48 v=47
128774 On ch=7 n=48 v=0
128856 On ch=7 n=60 v=47
128875 On ch=7 n=60 v=0
128880 On ch=7 n=62 v=47
128899 On ch=7 n=62 v=0
128904 On ch=7 n=63 v=47
128923 On ch=7 n=63 v=0
128928 On ch=7 n=65 v=47
128947 On ch=7 n=65 v=0
128952 On ch=7 n=67 v=47
128971 On ch=7 n=67 v=0
128976 On ch=7 n=69 v=47
128995 On ch=7 n=69 v=0
129000 On ch=7 n=71 v=47
129019 On ch=7 n=71 v=0
129024 On ch=7 n=72 v=47
129055 On ch=7 n=72 v=0
129096 On ch=7 n=67 v=47
129112 On ch=7 n=67 v=0
129120 On ch=7 n=60 v=47
129151 On ch=7 n=60 v=0
129360 On ch=7 n=67 v=47
129391 On ch=7 n=67 v=0
129408 On ch=7 n=72 v=47
129439 On ch=7 n=72 v=0
129480 On ch=7 n=67 v=47
129496 On ch=7 n=67 v=0
129504 On ch=7 n=72 v=47
129535 On ch=7 n=72 v=0
129576 On ch=7 n=67 v=47
129592 On ch=7 n=67 v=0
129600 On ch=7 n=72 v=47
129677 On ch=7 n=72 v=0
129744 On ch=7 n=67 v=47
129775 On ch=7 n=67 v=0
129792 On ch=7 n=72 v=47
129813 On ch=7 n=72 v=0
129824 On ch=7 n=71 v=47
129845 On ch=7 n=71 v=0
129856 On ch=7 n=72 v=47
129877 On ch=7 n=72 v=0
129888 On ch=7 n=74 v=47
129909 On ch=7 n=74 v=0
129920 On ch=7 n=72 v=47
129941 On ch=7 n=72 v=0
129952 On ch=7 n=71 v=47
129973 On ch=7 n=71 v=0
129984 On ch=7 n=72 v=43
130022 On ch=7 n=72 v=0
130056 On ch=7 n=67 v=40
130074 On ch=7 n=67 v=0
130080 On ch=7 n=68 v=37
130118 On ch=7 n=68 v=0
130152 On ch=7 n=66 v=34
130171 On ch=7 n=66 v=0
130176 On ch=7 n=67 v=31
130214 On ch=7 n=67 v=0
130248 On ch=7 n=63 v=31
130267 On ch=7 n=63 v=0
130272 On ch=7 n=67 v=31
130310 On ch=7 n=67 v=0
130344 On ch=7 n=63 v=31
130363 On ch=7 n=63 v=0
130368 On ch=7 n=67 v=31
130406 On ch=7 n=67 v=0
130440 On ch=7 n=63 v=31
130459 On ch=7 n=63 v=0
130464 On ch=7 n=65 v=31
130483 On ch=7 n=65 v=0
130488 On ch=7 n=63 v=31
130507 On ch=7 n=63 v=0
130512 On ch=7 n=62 v=31
130531 On ch=7 n=62 v=0
130536 On ch=7 n=63 v=31
130555 On ch=7 n=63 v=0
130560 On ch=7 n=67 v=31
130598 On ch=7 n=67 v=0
130632 On ch=7 n=63 v=31
130651 On ch=7 n=63 v=0
130656 On ch=7 n=67 v=31
130694 On ch=7 n=67 v=0
130728 On ch=7 n=63 v=31
130747 On ch=7 n=63 v=0
130752 On ch=7 n=67 v=31
130790 On ch=7 n=67 v=0
130824 On ch=7 n=63 v=31
130843 On ch=7 n=63 v=0
130848 On ch=7 n=68 v=31
130867 On ch=7 n=68 v=0
130872 On ch=7 n=67 v=31
130891 On ch=7 n=67 v=0
130896 On ch=7 n=65 v=31
130915 On ch=7 n=65 v=0
130920 On ch=7 n=63 v=31
130939 On ch=7 n=63 v=0
130944 On ch=7 n=67 v=31
130982 On ch=7 n=67 v=0
131016 On ch=7 n=62 v=31
131035 On ch=7 n=62 v=0
131040 On ch=7 n=55 v=31
131078 On ch=7 n=55 v=0
131168 On ch=7 n=65 v=31
131189 On ch=7 n=65 v=0
131200 On ch=7 n=67 v=31
131221 On ch=7 n=67 v=0
131232 On ch=7 n=68 v=31
131253 On ch=7 n=68 v=0
131264 On ch=7 n=65 v=31
131285 On ch=7 n=65 v=0
131296 On ch=7 n=74 v=31
131317 On ch=7 n=74 v=0
131328 On ch=7 n=67 v=31
131366 On ch=7 n=67 v=0
131400 On ch=7 n=62 v=31
131419 On ch=7 n=62 v=0
131424 On ch=7 n=55 v=31
131462 On ch=7 n=55 v=0
131552 On ch=7 n=65 v=31
131573 On ch=7 n=65 v=0
131584 On ch=7 n=67 v=31
131605 On ch=7 n=67 v=0
131616 On ch=7 n=68 v=31
131637 On ch=7 n=68 v=0
131648 On ch=7 n=65 v=31
131669 On ch=7 n=65 v=0
131680 On ch=7 n=74 v=31
131701 On ch=7 n=74 v=0
131712 On ch=7 n=67 v=31
131738 On ch=7 n=67 v=0
131744 On ch=7 n=63 v=31
131770 On ch=7 n=63 v=0
131776 On ch=7 n=72 v=31
131802 On ch=7 n=72 v=0
131808 On ch=7 n=65 v=31
131834 On ch=7 n=65 v=0
131840 On ch=7 n=62 v=31
131866 On ch=7 n=62 v=0
131872 On ch=7 n=70 v=31
131898 On ch=7 n=70 v=0
131904 On ch=7 n=63 v=31
131930 On ch=7 n=63 v=0
131936 On ch=7 n=60 v=31
131962 On ch=7 n=60 v=0
131968 On ch=7 n=68 v=31
131994 On ch=7 n=68 v=0
132000 On ch=7 n=62 v=31
132026 On ch=7 n=62 v=0
132032 On ch=7 n=55 v=31
132058 On ch=7 n=55 v=0
132064 On ch=7 n=67 v=31
132090 On ch=7 n=67 v=0
132096 On ch=7 n=56 v=31
132122 On ch=7 n=56 v=0
132128 On ch=7 n=53 v=31
132154 On ch=7 n=53 v=0
132160 On ch=7 n=62 v=31
132186 On ch=7 n=62 v=0
132192 On ch=7 n=55 v=31
132218 On ch=7 n=55 v=0
132224 On ch=7 n=51 v=31
132250 On ch=7 n=51 v=0
132256 On ch=7 n=60 v=31
132282 On ch=7 n=60 v=0
132288 On ch=7 n=53 v=31
132314 On ch=7 n=53 v=0
132320 On ch=7 n=50 v=31
132346 On ch=7 n=50 v=0
132352 On ch=7 n=58 v=31
132378 On ch=7 n=58 v=0
132384 On ch=7 n=51 v=31
132410 On ch=7 n=51 v=0
132416 On ch=7 n=48 v=31
132442 On ch=7 n=48 v=0
132448 On ch=7 n=56 v=31
132474 On ch=7 n=56 v=0
132480 On ch=7 n=55 v=31
132518 On ch=7 n=55 v=0
132552 On ch=7 n=50 v=31
132571 On ch=7 n=50 v=0
132576 On ch=7 n=55 v=31
132614 On ch=7 n=55 v=0
132720 On ch=7 n=50 v=31
132739 On ch=7 n=50 v=0
132744 On ch=7 n=51 v=31
132763 On ch=7 n=51 v=0
132768 On ch=7 n=53 v=31
132787 On ch=7 n=53 v=0
132792 On ch=7 n=51 v=31
132811 On ch=7 n=51 v=0
132816 On ch=7 n=53 v=31
132835 On ch=7 n=53 v=0
132840 On ch=7 n=50 v=31
132859 On ch=7 n=50 v=0
132864 On ch=7 n=55 v=31
132902 On ch=7 n=55 v=0
132936 On ch=7 n=50 v=31
132955 On ch=7 n=50 v=0
132960 On ch=7 n=55 v=31
132998 On ch=7 n=55 v=0
133104 On ch=7 n=54 v=31
133123 On ch=7 n=54 v=0
133128 On ch=7 n=55 v=31
133147 On ch=7 n=55 v=0
133152 On ch=7 n=56 v=31
133171 On ch=7 n=56 v=0
133176 On ch=7 n=55 v=31
133195 On ch=7 n=55 v=0
133200 On ch=7 n=53 v=31
133219 On ch=7 n=53 v=0
133224 On ch=7 n=50 v=31
133243 On ch=7 n=50 v=0
133248 Par ch=7 c=11 v=64
133248 On ch=7 n=48 v=31
133279 On ch=7 n=48 v=0
133288 Par ch=7 c=11 v=65
133320 On ch=7 n=55 v=31
133324 Par ch=7 c=11 v=66
133336 On ch=7 n=55 v=0
133344 On ch=7 n=48 v=31
133364 Par ch=7 c=11 v=67
133375 On ch=7 n=48 v=0
133400 Par ch=7 c=11 v=68
133416 On ch=7 n=55 v=31
133432 On ch=7 n=55 v=0
133440 Par ch=7 c=11 v=69
133440 On ch=7 n=48 v=31
133476 Par ch=7 c=11 v=70
133516 Par ch=7 c=11 v=71
133517 On ch=7 n=48 v=0
133552 Par ch=7 c=11 v=72
133584 On ch=7 n=55 v=31
133592 Par ch=7 c=11 v=73
133615 On ch=7 n=55 v=0
133628 Par ch=7 c=11 v=74
133632 On ch=7 n=48 v=31
133664 Par ch=7 c=11 v=75
133704 Par ch=7 c=11 v=76
133709 On ch=7 n=48 v=0
133740 Par ch=7 c=11 v=77
133776 On ch=7 n=55 v=31
133780 Par ch=7 c=11 v=78
133807 On ch=7 n=55 v=0
133816 Par ch=7 c=11 v=79
133824 On ch=7 n=48 v=31
133856 Par ch=7 c=11 v=80
133892 Par ch=7 c=11 v=81
133901 On ch=7 n=48 v=0
133932 Par ch=7 c=11 v=82
133968 Par ch=7 c=11 v=83
133968 On ch=7 n=55 v=31
133999 On ch=7 n=55 v=0
134008 Par ch=7 c=11 v=84
134016 On ch=7 n=48 v=31
134044 Par ch=7 c=11 v=85
134080 Par ch=7 c=11 v=86
134093 On ch=7 n=48 v=0
134120 Par ch=7 c=11 v=87
134156 Par ch=7 c=11 v=88
134160 On ch=7 n=55 v=31
134191 On ch=7 n=55 v=0
134196 Par ch=7 c=11 v=89
134208 On ch=7 n=48 v=31
134232 Par ch=7 c=11 v=90
134234 On ch=7 n=48 v=0
134240 On ch=7 n=55 v=31
134266 On ch=7 n=55 v=0
134272 Par ch=7 c=11 v=91
134272 On ch=7 n=48 v=31
134298 On ch=7 n=48 v=0
134304 On ch=7 n=55 v=31
134308 Par ch=7 c=11 v=92
134330 On ch=7 n=55 v=0
134336 On ch=7 n=48 v=31
134348 Par ch=7 c=11 v=93
134362 On ch=7 n=48 v=0
134368 On ch=7 n=55 v=31
134384 Par ch=7 c=11 v=94
134394 On ch=7 n=55 v=0
134400 On ch=7 n=48 v=31
134424 Par ch=7 c=11 v=95
134438 On ch=7 n=48 v=0
134460 Par ch=7 c=11 v=96
134472 On ch=7 n=55 v=31
134491 On ch=7 n=55 v=0
134496 On ch=7 n=60 v=31
134534 On ch=7 n=60 v=0
134640 Par ch=7 c=11 v=64
134640 On ch=7 n=58 v=63
134652 Par ch=7 c=11 v=65
134659 On ch=7 n=58 v=0
134660 Par ch=7 c=11 v=66
134664 On ch=7 n=56 v=63
134668 Par ch=7 c=11 v=67
134676 Par ch=7 c=11 v=68
134683 On ch=7 n=56 v=0
134684 Par ch=7 c=11 v=69
134688 On ch=7 n=55 v=63
134692 Par ch=7 c=11 v=70
134700 Par ch=7 c=11 v=71
134707 On ch=7 n=55 v=0
134708 Par ch=7 c=11 v=72
134712 On ch=7 n=53 v=63
134720 Par ch=7 c=11 v=73
134728 Par ch=7 c=11 v=74
134731 On ch=7 n=53 v=0
134736 Par ch=7 c=11 v=75
134736 On ch=7 n=51 v=63
134744 Par ch=7 c=11 v=76
134752 Par ch=7 c=11 v=77
134755 On ch=7 n=51 v=0
134760 Par ch=7 c=11 v=78
134760 On ch=7 n=50 v=63
134768 Par ch=7 c=11 v=79
134776 Par ch=7 c=11 v=80
134779 On ch=7 n=50 v=0
134784 Par ch=7 c=11 v=64
134784 On ch=7 n=48 v=79
134822 On ch=7 n=48 v=0
134856 On ch=7 n=55 v=79
134875 On ch=7 n=55 v=0
134880 On ch=7 n=48 v=79
134918 On ch=7 n=48 v=0
135008 Par ch=7 c=11 v=64
135008 On ch=7 n=55 v=79
135020 Par ch=7 c=11 v=65
135028 Par ch=7 c=11 v=66
135034 On ch=7 n=55 v=0
135040 Par ch=7 c=11 v=67
135040 On ch=7 n=60 v=79
135048 Par ch=7 c=11 v=68
135056 Par ch=7 c=11 v=69
135066 On ch=7 n=60 v=0
135068 Par ch=7 c=11 v=70
135072 On ch=7 n=55 v=79
135076 Par ch=7 c=11 v=71
135084 Par ch=7 c=11 v=72
135096 Par ch=7 c=11 v=73
135098 On ch=7 n=55 v=0
135104 Par ch=7 c=11 v=74
135104 On ch=7 n=60 v=79
135112 Par ch=7 c=11 v=75
135124 Par ch=7 c=11 v=76
135130 On ch=7 n=60 v=0
135132 Par ch=7 c=11 v=77
135136 On ch=7 n=55 v=79
135140 Par ch=7 c=11 v=78
135152 Par ch=7 c=11 v=79
135160 Par ch=7 c=11 v=80
135162 On ch=7 n=55 v=0
135168 Par ch=7 c=11 v=64
135168 On ch=7 n=60 v=95
135206 On ch=7 n=60 v=0
135240 On ch=7 n=55 v=95
135259 On ch=7 n=55 v=0
135264 On ch=7 n=48 v=95
135302 On ch=7 n=48 v=0
135392 Par ch=7 c=11 v=64
135392 On ch=7 n=55 v=95
135404 Par ch=7 c=11 v=65
135412 Par ch=7 c=11 v=66
135413 On ch=7 n=55 v=0
135424 Par ch=7 c=11 v=67
135424 On ch=7 n=60 v=95
135432 Par ch=7 c=11 v=68
135440 Par ch=7 c=11 v=69
135445 On ch=7 n=60 v=0
135452 Par ch=7 c=11 v=70
135456 On ch=7 n=67 v=95
135460 Par ch=7 c=11 v=71
135468 Par ch=7 c=11 v=72
135477 On ch=7 n=67 v=0
135480 Par ch=7 c=11 v=73
135488 Par ch=7 c=11 v=74
135488 On ch=7 n=70 v=95
135496 Par ch=7 c=11 v=75
135508 Par ch=7 c=11 v=76
135509 On ch=7 n=70 v=0
135516 Par ch=7 c=11 v=77
135520 On ch=7 n=73 v=95
135524 Par ch=7 c=11 v=78
135536 Par ch=7 c=11 v=79
135541 On ch=7 n=73 v=0
135544 Par ch=7 c=11 v=80
135552 Par ch=7 c=11 v=64
135552 On ch=7 n=72 v=111
135583 On ch=7 n=72 v=0
135624 On ch=7 n=70 v=111
135640 On ch=7 n=70 v=0
135648 On ch=7 n=68 v=111
135679 On ch=7 n=68 v=0
135720 On ch=7 n=67 v=111
135736 On ch=7 n=67 v=0
135744 On ch=7 n=65 v=111
135775 On ch=7 n=65 v=0
135816 On ch=7 n=63 v=111
135832 On ch=7 n=63 v=0
135840 On ch=7 n=61 v=111
135871 On ch=7 n=61 v=0
135912 On ch=7 n=60 v=111
135928 On ch=7 n=60 v=0
135936 On ch=7 n=68 v=111
135967 On ch=7 n=68 v=0
136008 On ch=7 n=67 v=111
136024 On ch=7 n=67 v=0
136032 On ch=7 n=65 v=111
136063 On ch=7 n=65 v=0
136104 On ch=7 n=63 v=111
136120 On ch=7 n=63 v=0
136128 On ch=7 n=61 v=111
136159 On ch=7 n=61 v=0
136200 On ch=7 n=60 v=111
136216 On ch=7 n=60 v=0
136224 On ch=7 n=58 v=111
136255 On ch=7 n=58 v=0
136296 On ch=7 n=56 v=111
136312 On ch=7 n=56 v=0
136320 On ch=7 n=55 v=111
136358 On ch=7 n=55 v=0
137088 Par ch=7 c=11 v=64
137088 Par ch=7 c=0 v=0
137088 Par ch=7 c=32 v=0
137088 PrCh ch=7 p=44
137088 On ch=7 n=55 v=127
137088 On ch=7 n=63 v=127
137096 Par ch=7 c=11 v=63
137104 Par ch=7 c=11 v=62
137112 Par ch=7 c=11 v=61
137120 Par ch=7 c=11 v=60
137128 Par ch=7 c=11 v=59
137136 Par ch=7 c=11 v=58
137144 Par ch=7 c=11 v=57
137152 Par ch=7 c=11 v=56
137160 Par ch=7 c=11 v=55
137168 Par ch=7 c=11 v=54
137176 Par ch=7 c=11 v=53
137184 Par ch=7 c=11 v=52
137192 Par ch=7 c=11 v=51
137200 Par ch=7 c=11 v=50
137208 Par ch=7 c=11 v=49
137216 Par ch=7 c=11 v=48
137224 Par ch=7 c=11 v=47
137232 Par ch=7 c=11 v=46
137240 Par ch=7 c=11 v=45
137248 Par ch=7 c=11 v=44
137256 Par ch=7 c=11 v=43
137264 Par ch=7 c=11 v=42
137272 Par ch=7 c=11 v=41
137280 Par ch=7 c=11 v=40
137284 Par ch=7 c=11 v=39
137292 Par ch=7 c=11 v=38
137300 Par ch=7 c=11 v=37
137308 Par ch=7 c=11 v=36
137316 Par ch=7 c=11 v=35
137324 Par ch=7 c=11 v=34
137332 Par ch=7 c=11 v=33
137340 Par ch=7 c=11 v=32
137348 Par ch=7 c=11 v=31
137356 Par ch=7 c=11 v=30
137364 Par ch=7 c=11 v=29
137372 Par ch=7 c=11 v=28
137380 Par ch=7 c=11 v=27
137388 Par ch=7 c=11 v=26
137395 On ch=7 n=63 v=0
137396 Par ch=7 c=11 v=25
137404 Par ch=7 c=11 v=24
137412 Par ch=7 c=11 v=23
137420 Par ch=7 c=11 v=22
137428 Par ch=7 c=11 v=21
137436 Par ch=7 c=11 v=20
137444 Par ch=7 c=11 v=19
137452 Par ch=7 c=11 v=18
137460 Par ch=7 c=11 v=17
137468 Par ch=7 c=11 v=16
138163 On ch=7 n=55 v=0
138240 On ch=7 n=51 v=127
138660 Par ch=7 c=11 v=16
138696 Par ch=7 c=11 v=15
138732 Par ch=7 c=11 v=14
138764 Par ch=7 c=11 v=13
138800 Par ch=7 c=11 v=12
138836 Par ch=7 c=11 v=11
138872 Par ch=7 c=11 v=10
138904 Par ch=7 c=11 v=9
138931 On ch=7 n=51 v=0
138940 Par ch=7 c=11 v=8
139200 Par ch=7 c=0 v=0
139200 Par ch=7 c=32 v=0
139200 PrCh ch=7 p=48
139200 Par ch=7 c=11 v=64
139200 On ch=7 n=76 v=31
139200 On ch=7 n=64 v=31
139354 On ch=7 n=64 v=0
139354 On ch=7 n=76 v=0
139392 On ch=7 n=71 v=31
139392 On ch=7 n=59 v=31
139699 On ch=7 n=59 v=0
139699 On ch=7 n=71 v=0
139776 On ch=7 n=61 v=31
139776 On ch=7 n=57 v=31
140006 On ch=7 n=57 v=0
140006 On ch=7 n=61 v=0
140064 On ch=7 n=59 v=31
140064 On ch=7 n=56 v=31
140141 On ch=7 n=56 v=0
140141 On ch=7 n=59 v=0
140160 Par ch=7 c=11 v=48
140160 On ch=7 n=61 v=31
140160 On ch=7 n=57 v=31
140184 Par ch=7 c=11 v=47
140204 Par ch=7 c=11 v=46
140224 Par ch=7 c=11 v=45
140248 Par ch=7 c=11 v=44
140268 Par ch=7 c=11 v=43
140288 Par ch=7 c=11 v=42
140312 Par ch=7 c=11 v=41
140332 Par ch=7 c=11 v=40
140352 Par ch=7 c=11 v=39
140376 Par ch=7 c=11 v=38
140390 On ch=7 n=57 v=0
140390 On ch=7 n=61 v=0
140396 Par ch=7 c=11 v=37
140416 Par ch=7 c=11 v=36
140440 Par ch=7 c=11 v=35
140448 On ch=7 n=59 v=31
140448 On ch=7 n=56 v=31
140460 Par ch=7 c=11 v=34
140480 Par ch=7 c=11 v=33
140504 Par ch=7 c=11 v=32
140525 On ch=7 n=56 v=0
140525 On ch=7 n=59 v=0
140544 On ch=7 n=61 v=31
140544 On ch=7 n=57 v=31
140621 On ch=7 n=57 v=0
140621 On ch=7 n=61 v=0
140928 Par ch=7 c=11 v=64
141312 On ch=7 n=64 v=15
141312 On ch=7 n=52 v=15
141696 Par ch=7 c=11 v=64
141720 Par ch=7 c=11 v=63
141744 Par ch=7 c=11 v=62
141764 Par ch=7 c=11 v=61
141788 Par ch=7 c=11 v=60
141812 Par ch=7 c=11 v=59
141832 Par ch=7 c=11 v=58
141856 Par ch=7 c=11 v=57
141880 Par ch=7 c=11 v=56
141900 Par ch=7 c=11 v=55
141924 Par ch=7 c=11 v=54
141948 Par ch=7 c=11 v=53
141968 Par ch=7 c=11 v=52
141992 Par ch=7 c=11 v=51
142003 On ch=7 n=52 v=0
142003 On ch=7 n=64 v=0
142016 Par ch=7 c=11 v=50
142036 Par ch=7 c=11 v=49
142060 Par ch=7 c=11 v=48
142464 Par ch=7 c=11 v=64
144768 On ch=7 n=69 v=47
144960 On ch=7 n=69 v=0
144960 On ch=7 n=71 v=47
145344 On ch=7 n=71 v=0
145344 On ch=7 n=73 v=47
145690 On ch=7 n=73 v=0
145728 On ch=7 n=71 v=47
145824 On ch=7 n=71 v=0
145824 On ch=7 n=75 v=47
145872 On ch=7 n=75 v=0
145872 On ch=7 n=73 v=47
145910 On ch=7 n=73 v=0
145920 On ch=7 n=72 v=47
146208 On ch=7 n=72 v=0
146208 On ch=7 n=66 v=47
146256 On ch=7 n=66 v=0
146256 On ch=7 n=68 v=47
146294 On ch=7 n=68 v=0
146304 On ch=7 n=71 v=47
146400 On ch=7 n=71 v=0
146400 On ch=7 n=70 v=47
146496 On ch=7 n=70 v=0
146496 On ch=7 n=69 v=47
146592 On ch=7 n=69 v=0
146592 On ch=7 n=68 v=47
146688 On ch=7 n=68 v=0
146688 On ch=7 n=67 v=47
146918 On ch=7 n=67 v=0
146976 On ch=7 n=66 v=47
147024 On ch=7 n=66 v=0
147024 On ch=7 n=67 v=47
147072 On ch=7 n=67 v=0
147072 On ch=7 n=68 v=47
147264 On ch=7 n=68 v=0
147456 On ch=7 n=59 v=31
147504 On ch=7 n=59 v=0
147504 On ch=7 n=66 v=31
147552 On ch=7 n=66 v=0
147552 On ch=7 n=64 v=31
147696 On ch=7 n=64 v=0
147696 On ch=7 n=61 v=31
147744 On ch=7 n=61 v=0
147744 On ch=7 n=59 v=31
147792 On ch=7 n=59 v=0
147792 On ch=7 n=57 v=31
147830 On ch=7 n=57 v=0
147840 On ch=7 n=59 v=31
147888 On ch=7 n=59 v=0
147888 On ch=7 n=66 v=31
147936 On ch=7 n=66 v=0
147936 On ch=7 n=64 v=31
148080 On ch=7 n=64 v=0
148080 On ch=7 n=61 v=31
148128 On ch=7 n=61 v=0
148128 On ch=7 n=59 v=31
148176 On ch=7 n=59 v=0
148176 On ch=7 n=57 v=31
148224 On ch=7 n=57 v=0
148224 On ch=7 n=59 v=31
148262 On ch=7 n=59 v=0
153216 On ch=7 n=60 v=8
153247 On ch=7 n=60 v=0
153288 On ch=7 n=55 v=8
153304 On ch=7 n=55 v=0
153312 On ch=7 n=48 v=8
153343 On ch=7 n=48 v=0
153600 On ch=7 n=60 v=8
153631 On ch=7 n=60 v=0
153672 On ch=7 n=55 v=8
153688 On ch=7 n=55 v=0
153696 On ch=7 n=48 v=8
153727 On ch=7 n=48 v=0
153936 On ch=7 n=55 v=8
153967 On ch=7 n=55 v=0
153984 On ch=7 n=60 v=8
154005 On ch=7 n=60 v=0
154016 On ch=7 n=59 v=8
154037 On ch=7 n=59 v=0
154048 On ch=7 n=60 v=8
154069 On ch=7 n=60 v=0
154080 On ch=7 n=62 v=8
154101 On ch=7 n=62 v=0
154112 On ch=7 n=60 v=8
154133 On ch=7 n=60 v=0
154144 On ch=7 n=59 v=8
154165 On ch=7 n=59 v=0
154176 On ch=7 n=60 v=8
154207 On ch=7 n=60 v=0
154248 On ch=7 n=55 v=8
154264 On ch=7 n=55 v=0
154272 On ch=7 n=48 v=8
154303 On ch=7 n=48 v=0
154560 On ch=7 n=60 v=8
154591 On ch=7 n=60 v=0
154632 On ch=7 n=55 v=8
154648 On ch=7 n=55 v=0
154656 On ch=7 n=48 v=8
154687 On ch=7 n=48 v=0
154944 On ch=7 n=60 v=8
154975 On ch=7 n=60 v=0
155016 On ch=7 n=55 v=8
155032 On ch=7 n=55 v=0
155040 On ch=7 n=48 v=8
155071 On ch=7 n=48 v=0
155112 On ch=7 n=55 v=8
155128 On ch=7 n=55 v=0
155136 On ch=7 n=60 v=15
155157 On ch=7 n=60 v=0
155168 On ch=7 n=59 v=15
155189 On ch=7 n=59 v=0
155200 On ch=7 n=60 v=15
155221 On ch=7 n=60 v=0
155232 On ch=7 n=62 v=15
155253 On ch=7 n=62 v=0
155264 On ch=7 n=60 v=15
155285 On ch=7 n=60 v=0
155296 On ch=7 n=59 v=15
155317 On ch=7 n=59 v=0
155328 On ch=7 n=60 v=15
155366 On ch=7 n=60 v=0
155400 On ch=7 n=55 v=15
155419 On ch=7 n=55 v=0
155424 On ch=7 n=48 v=15
155462 On ch=7 n=48 v=0
155496 On ch=7 n=55 v=15
155515 On ch=7 n=55 v=0
155520 On ch=7 n=60 v=31
155541 On ch=7 n=60 v=0
155552 On ch=7 n=59 v=31
155573 On ch=7 n=59 v=0
155584 On ch=7 n=60 v=31
155605 On ch=7 n=60 v=0
155616 On ch=7 n=62 v=31
155637 On ch=7 n=62 v=0
155648 On ch=7 n=60 v=31
155669 On ch=7 n=60 v=0
155680 On ch=7 n=59 v=31
155701 On ch=7 n=59 v=0
155712 On ch=7 n=60 v=31
155750 On ch=7 n=60 v=0
155784 On ch=7 n=55 v=31
155803 On ch=7 n=55 v=0
155808 On ch=7 n=48 v=31
155846 On ch=7 n=48 v=0
155880 On ch=7 n=55 v=31
155899 On ch=7 n=55 v=0
155904 On ch=7 n=60 v=31
155925 On ch=7 n=60 v=0
155936 On ch=7 n=72 v=31
155957 On ch=7 n=72 v=0
155968 On ch=7 n=67 v=31
155989 On ch=7 n=67 v=0
156000 On ch=7 n=62 v=31
156021 On ch=7 n=62 v=0
156032 On ch=7 n=70 v=31
156053 On ch=7 n=70 v=0
156064 On ch=7 n=65 v=31
156085 On ch=7 n=65 v=0
156096 On ch=7 n=60 v=31
156117 On ch=7 n=60 v=0
156128 On ch=7 n=68 v=31
156149 On ch=7 n=68 v=0
156160 On ch=7 n=63 v=31
156181 On ch=7 n=63 v=0
156192 On ch=7 n=55 v=31
156213 On ch=7 n=55 v=0
156224 On ch=7 n=67 v=31
156245 On ch=7 n=67 v=0
156256 On ch=7 n=62 v=31
156277 On ch=7 n=62 v=0
156288 On ch=7 n=65 v=31
156314 On ch=7 n=65 v=0
156320 On ch=7 n=72 v=31
156346 On ch=7 n=72 v=0
156352 On ch=7 n=68 v=31
156378 On ch=7 n=68 v=0
156384 On ch=7 n=63 v=31
156410 On ch=7 n=63 v=0
156416 On ch=7 n=70 v=31
156442 On ch=7 n=70 v=0
156448 On ch=7 n=67 v=31
156474 On ch=7 n=67 v=0
156480 On ch=7 n=62 v=31
156506 On ch=7 n=62 v=0
156512 On ch=7 n=68 v=31
156538 On ch=7 n=68 v=0
156544 On ch=7 n=65 v=31
156570 On ch=7 n=65 v=0
156576 On ch=7 n=60 v=31
156602 On ch=7 n=60 v=0
156608 On ch=7 n=68 v=31
156634 On ch=7 n=68 v=0
156640 On ch=7 n=63 v=31
156666 On ch=7 n=63 v=0
156672 On ch=7 n=62 v=31
156710 On ch=7 n=62 v=0
156744 On ch=7 n=67 v=31
156763 On ch=7 n=67 v=0
156768 On ch=7 n=68 v=31
156794 On ch=7 n=68 v=0
156800 On ch=7 n=67 v=31
156826 On ch=7 n=67 v=0
156832 On ch=7 n=65 v=31
156858 On ch=7 n=65 v=0
156864 On ch=7 n=67 v=31
156902 On ch=7 n=67 v=0
156936 On ch=7 n=62 v=31
156955 On ch=7 n=62 v=0
156960 On ch=7 n=55 v=31
156998 On ch=7 n=55 v=0
157120 On ch=7 n=67 v=31
157146 On ch=7 n=67 v=0
157152 On ch=7 n=68 v=31
157178 On ch=7 n=68 v=0
157184 On ch=7 n=67 v=31
157210 On ch=7 n=67 v=0
157216 On ch=7 n=65 v=31
157242 On ch=7 n=65 v=0
157248 On ch=7 n=67 v=31
157286 On ch=7 n=67 v=0
157320 On ch=7 n=62 v=31
157339 On ch=7 n=62 v=0
157344 On ch=7 n=55 v=31
157382 On ch=7 n=55 v=0
157416 On ch=7 n=62 v=31
157435 On ch=7 n=62 v=0
157440 On ch=7 n=55 v=31
157440 On ch=7 n=67 v=31
157461 On ch=7 n=67 v=0
157461 On ch=7 n=55 v=0
157472 On ch=7 n=54 v=31
157472 On ch=7 n=66 v=31
157493 On ch=7 n=66 v=0
157493 On ch=7 n=54 v=0
157504 On ch=7 n=55 v=31
157504 On ch=7 n=67 v=31
157525 On ch=7 n=67 v=0
157525 On ch=7 n=55 v=0
157536 On ch=7 n=56 v=31
157536 On ch=7 n=68 v=31
157557 On ch=7 n=68 v=0
157557 On ch=7 n=56 v=0
157568 On ch=7 n=55 v=31
157568 On ch=7 n=67 v=31
157589 On ch=7 n=67 v=0
157589 On ch=7 n=55 v=0
157600 On ch=7 n=53 v=31
157600 On ch=7 n=65 v=31
157621 On ch=7 n=65 v=0
157621 On ch=7 n=53 v=0
157632 On ch=7 n=55 v=31
157632 On ch=7 n=67 v=31
157653 On ch=7 n=67 v=0
157664 On ch=7 n=65 v=31
157670 On ch=7 n=55 v=0
157685 On ch=7 n=65 v=0
157696 On ch=7 n=63 v=31
157717 On ch=7 n=63 v=0
157728 On ch=7 n=65 v=31
157749 On ch=7 n=65 v=0
157760 On ch=7 n=63 v=31
157781 On ch=7 n=63 v=0
157792 On ch=7 n=62 v=31
157813 On ch=7 n=62 v=0
157824 On ch=7 n=63 v=31
157845 On ch=7 n=63 v=0
157856 On ch=7 n=62 v=31
157877 On ch=7 n=62 v=0
157888 On ch=7 n=60 v=31
157909 On ch=7 n=60 v=0
157920 On ch=7 n=62 v=31
157941 On ch=7 n=62 v=0
157952 On ch=7 n=60 v=31
157973 On ch=7 n=60 v=0
157984 On ch=7 n=59 v=31
158005 On ch=7 n=59 v=0
158016 On ch=7 n=60 v=31
158037 On ch=7 n=60 v=0
158048 On ch=7 n=58 v=31
158069 On ch=7 n=58 v=0
158080 On ch=7 n=56 v=31
158101 On ch=7 n=56 v=0
158112 On ch=7 n=58 v=31
158133 On ch=7 n=58 v=0
158144 On ch=7 n=56 v=31
158165 On ch=7 n=56 v=0
158176 On ch=7 n=55 v=31
158197 On ch=7 n=55 v=0
158208 Par ch=7 c=11 v=64
158208 On ch=7 n=52 v=31
158208 On ch=7 n=64 v=31
158229 On ch=7 n=64 v=0
158229 On ch=7 n=52 v=0
158240 On ch=7 n=55 v=31
158240 On ch=7 n=67 v=31
158261 On ch=7 n=67 v=0
158261 On ch=7 n=55 v=0
158272 On ch=7 n=53 v=31
158272 On ch=7 n=65 v=31
158293 On ch=7 n=65 v=0
158293 On ch=7 n=53 v=0
158300 Par ch=7 c=11 v=65
158304 On ch=7 n=64 v=31
158304 On ch=7 n=52 v=31
158342 On ch=7 n=52 v=0
158342 On ch=7 n=64 v=0
158392 Par ch=7 c=11 v=66
158400 On ch=7 n=61 v=31
158400 On ch=7 n=73 v=31
158426 On ch=7 n=73 v=0
158426 On ch=7 n=61 v=0
158432 On ch=7 n=60 v=31
158432 On ch=7 n=72 v=31
158458 On ch=7 n=72 v=0
158458 On ch=7 n=60 v=0
158464 On ch=7 n=58 v=31
158464 On ch=7 n=70 v=31
158480 Par ch=7 c=11 v=67
158490 On ch=7 n=70 v=0
158490 On ch=7 n=58 v=0
158496 On ch=7 n=56 v=31
158496 On ch=7 n=68 v=31
158522 On ch=7 n=68 v=0
158522 On ch=7 n=56 v=0
158528 On ch=7 n=55 v=31
158528 On ch=7 n=67 v=31
158554 On ch=7 n=67 v=0
158554 On ch=7 n=55 v=0
158560 On ch=7 n=53 v=31
158560 On ch=7 n=65 v=31
158572 Par ch=7 c=11 v=68
158586 On ch=7 n=65 v=0
158586 On ch=7 n=53 v=0
158592 On ch=7 n=52 v=31
158592 On ch=7 n=64 v=31
158618 On ch=7 n=64 v=0
158618 On ch=7 n=52 v=0
158624 On ch=7 n=55 v=31
158624 On ch=7 n=67 v=31
158650 On ch=7 n=67 v=0
158650 On ch=7 n=55 v=0
158656 On ch=7 n=53 v=31
158656 On ch=7 n=65 v=31
158660 Par ch=7 c=11 v=69
158682 On ch=7 n=65 v=0
158682 On ch=7 n=53 v=0
158688 On ch=7 n=64 v=31
158688 On ch=7 n=52 v=31
158726 On ch=7 n=52 v=0
158726 On ch=7 n=64 v=0
158752 Par ch=7 c=11 v=70
158784 On ch=7 n=63 v=31
158784 On ch=7 n=75 v=31
158810 On ch=7 n=75 v=0
158810 On ch=7 n=63 v=0
158816 On ch=7 n=61 v=31
158816 On ch=7 n=73 v=31
158842 On ch=7 n=73 v=0
158842 On ch=7 n=61 v=0
158844 Par ch=7 c=11 v=71
158848 On ch=7 n=60 v=31
158848 On ch=7 n=72 v=31
158874 On ch=7 n=72 v=0
158874 On ch=7 n=60 v=0
158880 On ch=7 n=58 v=31
158880 On ch=7 n=70 v=31
158906 On ch=7 n=70 v=0
158906 On ch=7 n=58 v=0
158912 On ch=7 n=56 v=31
158912 On ch=7 n=68 v=31
158932 Par ch=7 c=11 v=72
158938 On ch=7 n=68 v=0
158938 On ch=7 n=56 v=0
158944 On ch=7 n=55 v=31
158944 On ch=7 n=67 v=31
158970 On ch=7 n=67 v=0
158970 On ch=7 n=55 v=0
158976 On ch=7 n=54 v=31
158976 On ch=7 n=66 v=31
159002 On ch=7 n=66 v=0
159002 On ch=7 n=54 v=0
159008 On ch=7 n=69 v=31
159008 On ch=7 n=57 v=31
159024 Par ch=7 c=11 v=73
159034 On ch=7 n=57 v=0
159034 On ch=7 n=69 v=0
159040 On ch=7 n=67 v=31
159040 On ch=7 n=55 v=31
159066 On ch=7 n=55 v=0
159066 On ch=7 n=67 v=0
159072 On ch=7 n=66 v=31
159072 On ch=7 n=54 v=31
159110 On ch=7 n=54 v=0
159110 On ch=7 n=66 v=0
159112 Par ch=7 c=11 v=74
159168 On ch=7 n=63 v=31
159168 On ch=7 n=75 v=31
159194 On ch=7 n=75 v=0
159194 On ch=7 n=63 v=0
159200 On ch=7 n=62 v=31
159200 On ch=7 n=74 v=31
159204 Par ch=7 c=11 v=75
159226 On ch=7 n=74 v=0
159226 On ch=7 n=62 v=0
159232 On ch=7 n=60 v=31
159232 On ch=7 n=72 v=31
159258 On ch=7 n=72 v=0
159258 On ch=7 n=60 v=0
159264 On ch=7 n=58 v=31
159264 On ch=7 n=70 v=31
159290 On ch=7 n=70 v=0
159290 On ch=7 n=58 v=0
159296 Par ch=7 c=11 v=76
159296 On ch=7 n=57 v=31
159296 On ch=7 n=69 v=31
159322 On ch=7 n=69 v=0
159322 On ch=7 n=57 v=0
159328 On ch=7 n=55 v=31
159328 On ch=7 n=67 v=31
159354 On ch=7 n=67 v=0
159354 On ch=7 n=55 v=0
159360 On ch=7 n=66 v=31
159360 On ch=7 n=54 v=31
159384 Par ch=7 c=11 v=77
159386 On ch=7 n=54 v=0
159386 On ch=7 n=66 v=0
159392 On ch=7 n=57 v=31
159392 On ch=7 n=69 v=31
159418 On ch=7 n=69 v=0
159418 On ch=7 n=57 v=0
159424 On ch=7 n=55 v=31
159424 On ch=7 n=67 v=31
159450 On ch=7 n=67 v=0
159450 On ch=7 n=55 v=0
159456 On ch=7 n=54 v=31
159456 On ch=7 n=66 v=31
159476 Par ch=7 c=11 v=78
159494 On ch=7 n=66 v=0
159494 On ch=7 n=54 v=0
159552 On ch=7 n=75 v=31
159552 On ch=7 n=63 v=31
159564 Par ch=7 c=11 v=79
159578 On ch=7 n=63 v=0
159578 On ch=7 n=75 v=0
159584 On ch=7 n=74 v=31
159584 On ch=7 n=62 v=31
159610 On ch=7 n=62 v=0
159610 On ch=7 n=74 v=0
159616 On ch=7 n=72 v=31
159616 On ch=7 n=60 v=31
159642 On ch=7 n=60 v=0
159642 On ch=7 n=72 v=0
159648 On ch=7 n=70 v=31
159648 On ch=7 n=58 v=31
159656 Par ch=7 c=11 v=80
159674 On ch=7 n=58 v=0
159674 On ch=7 n=70 v=0
159680 On ch=7 n=69 v=31
159680 On ch=7 n=57 v=31
159706 On ch=7 n=57 v=0
159706 On ch=7 n=69 v=0
159712 On ch=7 n=67 v=31
159712 On ch=7 n=55 v=31
159738 On ch=7 n=55 v=0
159738 On ch=7 n=67 v=0
159744 Par ch=7 c=11 v=80
159744 On ch=7 n=65 v=31
159744 On ch=7 n=53 v=31
159768 Par ch=7 c=11 v=81
159770 On ch=7 n=53 v=0
159770 On ch=7 n=65 v=0
159776 On ch=7 n=68 v=31
159776 On ch=7 n=56 v=31
159792 Par ch=7 c=11 v=82
159802 On ch=7 n=56 v=0
159802 On ch=7 n=68 v=0
159808 On ch=7 n=67 v=31
159808 On ch=7 n=55 v=31
159812 Par ch=7 c=11 v=83
159834 On ch=7 n=55 v=0
159834 On ch=7 n=67 v=0
159836 Par ch=7 c=11 v=84
159840 On ch=7 n=53 v=31
159840 On ch=7 n=65 v=31
159860 Par ch=7 c=11 v=85
159878 On ch=7 n=65 v=0
159878 On ch=7 n=53 v=0
159880 Par ch=7 c=11 v=86
159904 Par ch=7 c=11 v=87
159928 Par ch=7 c=11 v=88
159936 On ch=7 n=59 v=31
159936 On ch=7 n=71 v=31
159948 Par ch=7 c=11 v=89
159962 On ch=7 n=71 v=0
159962 On ch=7 n=59 v=0
159968 On ch=7 n=62 v=31
159968 On ch=7 n=74 v=31
159972 Par ch=7 c=11 v=90
159994 On ch=7 n=74 v=0
159994 On ch=7 n=62 v=0
159996 Par ch=7 c=11 v=91
160000 On ch=7 n=60 v=31
160000 On ch=7 n=72 v=31
160016 Par ch=7 c=11 v=92
160026 On ch=7 n=72 v=0
160026 On ch=7 n=60 v=0
160032 On ch=7 n=59 v=31
160032 On ch=7 n=71 v=31
160040 Par ch=7 c=11 v=93
160064 Par ch=7 c=11 v=94
160070 On ch=7 n=71 v=0
160070 On ch=7 n=59 v=0
160084 Par ch=7 c=11 v=95
160108 Par ch=7 c=11 v=96
160128 On ch=7 n=65 v=31
160128 On ch=7 n=53 v=31
160140 Par ch=7 c=11 v=96
160152 Par ch=7 c=11 v=97
160154 On ch=7 n=53 v=0
160154 On ch=7 n=65 v=0
160160 On ch=7 n=68 v=31
160160 On ch=7 n=56 v=31
160164 Par ch=7 c=11 v=98
160176 Par ch=7 c=11 v=99
160186 On ch=7 n=56 v=0
160186 On ch=7 n=68 v=0
160188 Par ch=7 c=11 v=100
160192 On ch=7 n=67 v=31
160192 On ch=7 n=55 v=31
160200 Par ch=7 c=11 v=101
160212 Par ch=7 c=11 v=102
160218 On ch=7 n=55 v=0
160218 On ch=7 n=67 v=0
160224 Par ch=7 c=11 v=103
160224 On ch=7 n=53 v=31
160224 On ch=7 n=65 v=31
160236 Par ch=7 c=11 v=104
160248 Par ch=7 c=11 v=105
160260 Par ch=7 c=11 v=106
160262 On ch=7 n=65 v=0
160262 On ch=7 n=53 v=0
160272 Par ch=7 c=11 v=107
160284 Par ch=7 c=11 v=108
160296 Par ch=7 c=11 v=109
160308 Par ch=7 c=11 v=110
160320 Par ch=7 c=11 v=111
160320 On ch=7 n=59 v=31
160320 On ch=7 n=71 v=31
160332 Par ch=7 c=11 v=112
160344 Par ch=7 c=11 v=113
160346 On ch=7 n=71 v=0
160346 On ch=7 n=59 v=0
160352 On ch=7 n=62 v=31
160352 On ch=7 n=74 v=31
160356 Par ch=7 c=11 v=114
160368 Par ch=7 c=11 v=115
160378 On ch=7 n=74 v=0
160378 On ch=7 n=62 v=0
160380 Par ch=7 c=11 v=116
160384 On ch=7 n=60 v=31
160384 On ch=7 n=72 v=31
160392 Par ch=7 c=11 v=117
160404 Par ch=7 c=11 v=118
160410 On ch=7 n=72 v=0
160410 On ch=7 n=60 v=0
160416 Par ch=7 c=11 v=119
160416 On ch=7 n=59 v=31
160416 On ch=7 n=71 v=31
160428 Par ch=7 c=11 v=120
160440 Par ch=7 c=11 v=121
160452 Par ch=7 c=11 v=122
160454 On ch=7 n=71 v=0
160454 On ch=7 n=59 v=0
160464 Par ch=7 c=11 v=123
160476 Par ch=7 c=11 v=124
160488 Par ch=7 c=11 v=125
160500 Par ch=7 c=11 v=126
160512 Par ch=7 c=11 v=126
160512 On ch=7 n=72 v=31
160536 Par ch=7 c=11 v=125
160543 On ch=7 n=72 v=0
160560 Par ch=7 c=11 v=124
160584 Par ch=7 c=11 v=123
160584 On ch=7 n=67 v=31
160608 On ch=7 n=67 v=0
160608 Par ch=7 c=11 v=122
160608 On ch=7 n=60 v=31
160632 Par ch=7 c=11 v=121
160639 On ch=7 n=60 v=0
160656 Par ch=7 c=11 v=120
160680 Par ch=7 c=11 v=119
160704 Par ch=7 c=11 v=118
160704 On ch=7 n=72 v=31
160728 Par ch=7 c=11 v=117
160735 On ch=7 n=72 v=0
160752 Par ch=7 c=11 v=116
160776 Par ch=7 c=11 v=115
160776 On ch=7 n=67 v=31
160800 On ch=7 n=67 v=0
160800 Par ch=7 c=11 v=114
160800 On ch=7 n=60 v=31
160824 Par ch=7 c=11 v=113
160831 On ch=7 n=60 v=0
160848 Par ch=7 c=11 v=112
160896 Par ch=7 c=11 v=112
160896 On ch=7 n=72 v=31
160904 Par ch=7 c=11 v=111
160912 Par ch=7 c=11 v=110
160920 Par ch=7 c=11 v=109
160927 On ch=7 n=72 v=0
160928 Par ch=7 c=11 v=108
160936 Par ch=7 c=11 v=107
160944 Par ch=7 c=11 v=106
160952 Par ch=7 c=11 v=105
160960 Par ch=7 c=11 v=104
160968 Par ch=7 c=11 v=103
160968 On ch=7 n=67 v=31
160976 Par ch=7 c=11 v=102
160984 Par ch=7 c=11 v=101
160992 On ch=7 n=67 v=0
160992 Par ch=7 c=11 v=100
160992 On ch=7 n=60 v=31
160996 Par ch=7 c=11 v=99
161004 Par ch=7 c=11 v=98
161012 Par ch=7 c=11 v=97
161020 Par ch=7 c=11 v=96
161023 On ch=7 n=60 v=0
161028 Par ch=7 c=11 v=95
161036 Par ch=7 c=11 v=94
161044 Par ch=7 c=11 v=93
161052 Par ch=7 c=11 v=92
161060 Par ch=7 c=11 v=91
161068 Par ch=7 c=11 v=90
161076 Par ch=7 c=11 v=89
161084 Par ch=7 c=11 v=88
161088 Par ch=7 c=11 v=87
161088 On ch=7 n=72 v=31
161096 Par ch=7 c=11 v=86
161104 Par ch=7 c=11 v=85
161112 Par ch=7 c=11 v=84
161119 On ch=7 n=72 v=0
161120 Par ch=7 c=11 v=83
161128 Par ch=7 c=11 v=82
161136 Par ch=7 c=11 v=81
161144 Par ch=7 c=11 v=80
161152 Par ch=7 c=11 v=79
161160 Par ch=7 c=11 v=78
161160 On ch=7 n=67 v=31
161168 Par ch=7 c=11 v=77
161176 Par ch=7 c=11 v=76
161184 On ch=7 n=67 v=0
161184 Par ch=7 c=11 v=75
161184 On ch=7 n=60 v=31
161188 Par ch=7 c=11 v=74
161196 Par ch=7 c=11 v=73
161204 Par ch=7 c=11 v=72
161212 Par ch=7 c=11 v=71
161215 On ch=7 n=60 v=0
161220 Par ch=7 c=11 v=70
161228 Par ch=7 c=11 v=69
161236 Par ch=7 c=11 v=68
161244 Par ch=7 c=11 v=67
161252 Par ch=7 c=11 v=66
161260 Par ch=7 c=11 v=65
161268 Par ch=7 c=11 v=64
161280 On ch=7 n=72 v=31
161311 On ch=7 n=72 v=0
161352 On ch=7 n=67 v=31
161376 On ch=7 n=67 v=0
161376 On ch=7 n=60 v=31
161407 On ch=7 n=60 v=0
161856 On ch=7 n=63 v=15
161933 On ch=7 n=63 v=0
161952 On ch=7 n=56 v=15
161973 On ch=7 n=56 v=0
161984 On ch=7 n=55 v=15
162005 On ch=7 n=55 v=0
162016 On ch=7 n=53 v=15
162037 On ch=7 n=53 v=0
162048 On ch=7 n=60 v=15
162125 On ch=7 n=60 v=0
162144 On ch=7 n=51 v=15
162165 On ch=7 n=51 v=0
162176 On ch=7 n=50 v=15
162197 On ch=7 n=50 v=0
162208 On ch=7 n=48 v=15
162229 On ch=7 n=48 v=0
162240 Par ch=7 c=11 v=64
162240 On ch=7 n=55 v=15
162248 Par ch=7 c=11 v=63
162252 Par ch=7 c=11 v=62
162260 Par ch=7 c=11 v=61
162264 Par ch=7 c=11 v=60
162272 Par ch=7 c=11 v=59
162276 Par ch=7 c=11 v=58
162284 Par ch=7 c=11 v=57
162288 Par ch=7 c=11 v=56
162296 Par ch=7 c=11 v=55
162300 Par ch=7 c=11 v=54
162308 Par ch=7 c=11 v=53
162312 Par ch=7 c=11 v=52
162317 On ch=7 n=55 v=0
162320 Par ch=7 c=11 v=51
162324 Par ch=7 c=11 v=50
162332 Par ch=7 c=11 v=49
162336 Par ch=7 c=11 v=48
162432 Par ch=7 c=11 v=64
162720 On ch=7 n=44 v=111
162741 On ch=7 n=44 v=0
162752 On ch=7 n=43 v=31
162773 On ch=7 n=43 v=0
162784 On ch=7 n=41 v=31
162805 On ch=7 n=41 v=0
163104 On ch=7 n=44 v=111
163125 On ch=7 n=44 v=0
163136 On ch=7 n=43 v=31
163157 On ch=7 n=43 v=0
163168 On ch=7 n=41 v=31
163189 On ch=7 n=41 v=0
163488 On ch=7 n=44 v=111
163509 On ch=7 n=44 v=0
163520 On ch=7 n=43 v=31
163541 On ch=7 n=43 v=0
163552 On ch=7 n=41 v=31
163573 On ch=7 n=41 v=0
163872 On ch=7 n=44 v=111
163893 On ch=7 n=44 v=0
163904 On ch=7 n=43 v=31
163925 On ch=7 n=43 v=0
163936 On ch=7 n=41 v=31
163957 On ch=7 n=41 v=0
169344 On ch=7 n=72 v=111
169357 On ch=7 n=72 v=0
169376 On ch=7 n=71 v=111
169389 On ch=7 n=71 v=0
169408 On ch=7 n=70 v=111
169421 On ch=7 n=70 v=0
169440 On ch=7 n=69 v=111
169453 On ch=7 n=69 v=0
169472 On ch=7 n=68 v=111
169485 On ch=7 n=68 v=0
169504 On ch=7 n=67 v=111
169517 On ch=7 n=67 v=0
169536 On ch=7 n=66 v=111
169549 On ch=7 n=66 v=0
169568 On ch=7 n=65 v=111
169581 On ch=7 n=65 v=0
169600 On ch=7 n=64 v=111
169613 On ch=7 n=64 v=0
169632 On ch=7 n=63 v=111
169645 On ch=7 n=63 v=0
169664 On ch=7 n=62 v=111
169677 On ch=7 n=62 v=0
169696 On ch=7 n=61 v=111
169709 On ch=7 n=61 v=0
169728 On ch=7 n=60 v=111
169741 On ch=7 n=60 v=0
169760 On ch=7 n=59 v=111
169773 On ch=7 n=59 v=0
169792 On ch=7 n=58 v=111
169805 On ch=7 n=58 v=0
169824 On ch=7 n=57 v=111
169837 On ch=7 n=57 v=0
169856 On ch=7 n=56 v=111
169869 On ch=7 n=56 v=0
169888 On ch=7 n=55 v=111
169901 On ch=7 n=55 v=0
169920 On ch=7 n=54 v=111
169933 On ch=7 n=54 v=0
169952 On ch=7 n=53 v=111
169965 On ch=7 n=53 v=0
169984 On ch=7 n=52 v=111
169997 On ch=7 n=52 v=0
170016 On ch=7 n=51 v=111
170029 On ch=7 n=51 v=0
170048 On ch=7 n=50 v=111
170061 On ch=7 n=50 v=0
170080 On ch=7 n=49 v=111
170093 On ch=7 n=49 v=0
170112 On ch=7 n=48 v=111
170150 On ch=7 n=48 v=0
170496 Par ch=7 c=0 v=0
170496 Par ch=7 c=32 v=0
170496 PrCh ch=7 p=45
170496 On ch=7 n=48 v=79
170534 On ch=7 n=48 v=0
170880 On ch=7 n=48 v=31
170918 On ch=7 n=48 v=0
170918 Meta TrkEnd
TrkEnd
MTrk
0 Meta 0x21 01
0 Meta TrkName "CHELLO"
192 Par ch=8 c=1 v=8
196 Par ch=8 c=7 v=127
200 Par ch=8 c=10 v=118
204 Par ch=8 c=11 v=64
208 Par ch=8 c=91 v=127
212 Par ch=8 c=93 v=64
216 Par ch=8 c=0 v=0
216 Par ch=8 c=32 v=0
216 PrCh ch=8 p=48
768 On ch=8 n=48 v=127
787 On ch=8 n=48 v=0
792 On ch=8 n=47 v=127
811 On ch=8 n=47 v=0
816 On ch=8 n=48 v=127
835 On ch=8 n=48 v=0
840 On ch=8 n=50 v=127
859 On ch=8 n=50 v=0
864 On ch=8 n=51 v=127
902 On ch=8 n=51 v=0
1536 On ch=8 n=51 v=111
1555 On ch=8 n=51 v=0
1560 On ch=8 n=50 v=111
1579 On ch=8 n=50 v=0
1584 On ch=8 n=51 v=111
1603 On ch=8 n=51 v=0
1608 On ch=8 n=53 v=111
1627 On ch=8 n=53 v=0
1632 On ch=8 n=55 v=111
1670 On ch=8 n=55 v=0
1752 On ch=8 n=48 v=111
1771 On ch=8 n=48 v=0
1776 On ch=8 n=50 v=111
1795 On ch=8 n=50 v=0
1800 On ch=8 n=51 v=111
1819 On ch=8 n=51 v=0
1824 On ch=8 n=53 v=111
1843 On ch=8 n=53 v=0
1848 On ch=8 n=55 v=111
1867 On ch=8 n=55 v=0
1872 On ch=8 n=57 v=111
1891 On ch=8 n=57 v=0
1896 On ch=8 n=59 v=111
1915 On ch=8 n=59 v=0
1920 On ch=8 n=60 v=127
1951 On ch=8 n=60 v=0
1992 On ch=8 n=55 v=111
2008 On ch=8 n=55 v=0
2016 On ch=8 n=48 v=111
2054 On ch=8 n=48 v=0
2256 On ch=8 n=55 v=95
2294 On ch=8 n=55 v=0
2304 On ch=8 n=60 v=95
2342 On ch=8 n=60 v=0
2376 On ch=8 n=55 v=95
2395 On ch=8 n=55 v=0
2400 On ch=8 n=60 v=95
2438 On ch=8 n=60 v=0
2472 On ch=8 n=55 v=95
2491 On ch=8 n=55 v=0
2496 On ch=8 n=60 v=95
2572 On ch=8 n=60 v=0
2640 On ch=8 n=55 v=95
2671 On ch=8 n=55 v=0
2688 On ch=8 n=60 v=95
2709 On ch=8 n=60 v=0
2720 On ch=8 n=59 v=95
2741 On ch=8 n=59 v=0
2752 On ch=8 n=60 v=95
2773 On ch=8 n=60 v=0
2784 On ch=8 n=62 v=95
2805 On ch=8 n=62 v=0
2816 On ch=8 n=60 v=95
2837 On ch=8 n=60 v=0
2848 On ch=8 n=59 v=95
2869 On ch=8 n=59 v=0
2880 Par ch=8 c=11 v=64
2880 On ch=8 n=60 v=95
2892 Par ch=8 c=11 v=63
2904 Par ch=8 c=11 v=62
2911 On ch=8 n=60 v=0
2916 Par ch=8 c=11 v=61
2928 Par ch=8 c=11 v=60
2940 Par ch=8 c=11 v=59
2948 Par ch=8 c=11 v=58
2952 On ch=8 n=55 v=95
2960 Par ch=8 c=11 v=57
2968 On ch=8 n=55 v=0
2972 Par ch=8 c=11 v=56
2976 On ch=8 n=56 v=95
2984 Par ch=8 c=11 v=55
2996 Par ch=8 c=11 v=54
3007 On ch=8 n=56 v=0
3008 Par ch=8 c=11 v=53
3016 Par ch=8 c=11 v=52
3028 Par ch=8 c=11 v=51
3040 Par ch=8 c=11 v=50
3048 On ch=8 n=54 v=95
3052 Par ch=8 c=11 v=49
3064 On ch=8 n=54 v=0
3064 Par ch=8 c=11 v=48
3072 On ch=8 n=55 v=95
3103 On ch=8 n=55 v=0
3144 On ch=8 n=51 v=95
3160 On ch=8 n=51 v=0
3168 On ch=8 n=55 v=95
3199 On ch=8 n=55 v=0
3240 On ch=8 n=51 v=95
3256 On ch=8 n=51 v=0
3264 On ch=8 n=55 v=95
3295 On ch=8 n=55 v=0
3336 On ch=8 n=51 v=95
3352 On ch=8 n=51 v=0
3360 On ch=8 n=53 v=95
3376 On ch=8 n=53 v=0
3384 On ch=8 n=51 v=95
3400 On ch=8 n=51 v=0
3408 On ch=8 n=50 v=95
3424 On ch=8 n=50 v=0
3432 On ch=8 n=51 v=95
3448 On ch=8 n=51 v=0
3456 On ch=8 n=55 v=95
3487 On ch=8 n=55 v=0
3528 On ch=8 n=51 v=95
3544 On ch=8 n=51 v=0
3552 On ch=8 n=55 v=95
3583 On ch=8 n=55 v=0
3624 On ch=8 n=51 v=95
3640 On ch=8 n=51 v=0
3648 Par ch=8 c=11 v=64
3648 On ch=8 n=55 v=79
3656 Par ch=8 c=11 v=65
3660 Par ch=8 c=11 v=66
3668 Par ch=8 c=11 v=67
3672 Par ch=8 c=11 v=68
3679 On ch=8 n=55 v=0
3680 Par ch=8 c=11 v=69
3684 Par ch=8 c=11 v=70
3692 Par ch=8 c=11 v=71
3696 Par ch=8 c=11 v=72
3704 Par ch=8 c=11 v=73
3708 Par ch=8 c=11 v=74
3712 Par ch=8 c=11 v=75
3720 Par ch=8 c=11 v=76
3720 On ch=8 n=51 v=79
3724 Par ch=8 c=11 v=77
3732 Par ch=8 c=11 v=78
3736 On ch=8 n=51 v=0
3736 Par ch=8 c=11 v=79
3744 Par ch=8 c=11 v=80
3744 On ch=8 n=56 v=79
3748 Par ch=8 c=11 v=81
3756 Par ch=8 c=11 v=82
3760 On ch=8 n=56 v=0
3760 Par ch=8 c=11 v=83
3768 Par ch=8 c=11 v=84
3768 On ch=8 n=55 v=79
3772 Par ch=8 c=11 v=85
3776 Par ch=8 c=11 v=86
3784 On ch=8 n=55 v=0
3784 Par ch=8 c=11 v=87
3788 Par ch=8 c=11 v=88
3792 On ch=8 n=53 v=79
3796 Par ch=8 c=11 v=89
3800 Par ch=8 c=11 v=90
3808 On ch=8 n=53 v=0
3808 Par ch=8 c=11 v=91
3812 Par ch=8 c=11 v=92
3816 On ch=8 n=51 v=79
3820 Par ch=8 c=11 v=93
3824 Par ch=8 c=11 v=94
3832 On ch=8 n=51 v=0
3832 Par ch=8 c=11 v=95
3836 Par ch=8 c=11 v=96
3840 Par ch=8 c=11 v=95
3840 On ch=8 n=55 v=79
3844 Par ch=8 c=11 v=94
3848 Par ch=8 c=11 v=93
3852 Par ch=8 c=11 v=92
3856 Par ch=8 c=11 v=90
3860 Par ch=8 c=11 v=89
3864 Par ch=8 c=11 v=88
3868 Par ch=8 c=11 v=86
3871 On ch=8 n=55 v=0
3872 Par ch=8 c=11 v=85
3876 Par ch=8 c=11 v=84
3880 Par ch=8 c=11 v=83
3884 Par ch=8 c=11 v=81
3888 Par ch=8 c=11 v=80
3892 Par ch=8 c=11 v=79
3896 Par ch=8 c=11 v=77
3900 Par ch=8 c=11 v=76
3904 Par ch=8 c=11 v=75
3908 Par ch=8 c=11 v=74
3912 Par ch=8 c=11 v=72
3912 On ch=8 n=50 v=79
3916 Par ch=8 c=11 v=71
3920 Par ch=8 c=11 v=70
3924 Par ch=8 c=11 v=68
3928 On ch=8 n=50 v=0
3928 Par ch=8 c=11 v=67
3932 Par ch=8 c=11 v=66
3936 Par ch=8 c=11 v=64
3936 On ch=8 n=43 v=79
3967 On ch=8 n=43 v=0
4064 Par ch=8 c=11 v=64
4064 On ch=8 n=53 v=79
4072 Par ch=8 c=11 v=65
4076 Par ch=8 c=11 v=66
4080 Par ch=8 c=11 v=67
4084 Par ch=8 c=11 v=68
4085 On ch=8 n=53 v=0
4092 Par ch=8 c=11 v=69
4096 Par ch=8 c=11 v=70
4096 On ch=8 n=55 v=79
4100 Par ch=8 c=11 v=71
4104 Par ch=8 c=11 v=72
4108 Par ch=8 c=11 v=73
4116 Par ch=8 c=11 v=74
4117 On ch=8 n=55 v=0
4120 Par ch=8 c=11 v=75
4124 Par ch=8 c=11 v=76
4128 Par ch=8 c=11 v=77
4128 On ch=8 n=56 v=79
4132 Par ch=8 c=11 v=78
4140 Par ch=8 c=11 v=79
4144 Par ch=8 c=11 v=80
4148 Par ch=8 c=11 v=81
4149 On ch=8 n=56 v=0
4152 Par ch=8 c=11 v=82
4160 Par ch=8 c=11 v=83
4160 On ch=8 n=53 v=79
4164 Par ch=8 c=11 v=84
4168 Par ch=8 c=11 v=85
4172 Par ch=8 c=11 v=86
4176 Par ch=8 c=11 v=87
4181 On ch=8 n=53 v=0
4184 Par ch=8 c=11 v=88
4188 Par ch=8 c=11 v=89
4192 Par ch=8 c=11 v=90
4192 On ch=8 n=62 v=79
4196 Par ch=8 c=11 v=91
4200 Par ch=8 c=11 v=92
4208 Par ch=8 c=11 v=93
4212 Par ch=8 c=11 v=94
4213 On ch=8 n=62 v=0
4216 Par ch=8 c=11 v=95
4220 Par ch=8 c=11 v=96
4224 Par ch=8 c=11 v=95
4224 On ch=8 n=55 v=79
4228 Par ch=8 c=11 v=94
4232 Par ch=8 c=11 v=93
4236 Par ch=8 c=11 v=92
4240 Par ch=8 c=11 v=90
4244 Par ch=8 c=11 v=89
4248 Par ch=8 c=11 v=88
4252 Par ch=8 c=11 v=86
4255 On ch=8 n=55 v=0
4256 Par ch=8 c=11 v=85
4260 Par ch=8 c=11 v=84
4264 Par ch=8 c=11 v=83
4268 Par ch=8 c=11 v=81
4272 Par ch=8 c=11 v=80
4276 Par ch=8 c=11 v=79
4280 Par ch=8 c=11 v=77
4284 Par ch=8 c=11 v=76
4288 Par ch=8 c=11 v=75
4292 Par ch=8 c=11 v=74
4296 Par ch=8 c=11 v=72
4296 On ch=8 n=50 v=79
4300 Par ch=8 c=11 v=71
4304 Par ch=8 c=11 v=70
4308 Par ch=8 c=11 v=68
4312 On ch=8 n=50 v=0
4312 Par ch=8 c=11 v=67
4316 Par ch=8 c=11 v=66
4320 Par ch=8 c=11 v=64
4320 On ch=8 n=43 v=79
4351 On ch=8 n=43 v=0
4448 On ch=8 n=53 v=79
4469 On ch=8 n=53 v=0
4480 On ch=8 n=55 v=87
4501 On ch=8 n=55 v=0
4512 On ch=8 n=56 v=95
4533 On ch=8 n=56 v=0
4544 On ch=8 n=53 v=95
4565 On ch=8 n=53 v=0
4576 On ch=8 n=62 v=95
4597 On ch=8 n=62 v=0
4608 On ch=8 n=55 v=47
4634 On ch=8 n=55 v=0
4640 On ch=8 n=51 v=47
4666 On ch=8 n=51 v=0
4672 On ch=8 n=60 v=47
4698 On ch=8 n=60 v=0
4704 On ch=8 n=53 v=47
4730 On ch=8 n=53 v=0
4736 On ch=8 n=50 v=47
4762 On ch=8 n=50 v=0
4768 On ch=8 n=58 v=47
4794 On ch=8 n=58 v=0
4800 On ch=8 n=51 v=47
4826 On ch=8 n=51 v=0
4832 On ch=8 n=48 v=47
4858 On ch=8 n=48 v=0
4864 On ch=8 n=56 v=47
4890 On ch=8 n=56 v=0
4896 On ch=8 n=50 v=47
4922 On ch=8 n=50 v=0
4928 On ch=8 n=43 v=47
4954 On ch=8 n=43 v=0
4960 On ch=8 n=55 v=47
4986 On ch=8 n=55 v=0
4992 Par ch=8 c=11 v=64
4992 On ch=8 n=56 v=95
5004 Par ch=8 c=11 v=63
5012 Par ch=8 c=11 v=62
5018 On ch=8 n=56 v=0
5020 Par ch=8 c=11 v=61
5024 On ch=8 n=53 v=95
5028 Par ch=8 c=11 v=60
5036 Par ch=8 c=11 v=59
5044 Par ch=8 c=11 v=58
5050 On ch=8 n=53 v=0
5052 Par ch=8 c=11 v=57
5056 On ch=8 n=62 v=95
5060 Par ch=8 c=11 v=56
5072 Par ch=8 c=11 v=55
5080 Par ch=8 c=11 v=54
5082 On ch=8 n=62 v=0
5088 Par ch=8 c=11 v=53
5088 On ch=8 n=55 v=95
5096 Par ch=8 c=11 v=52
5104 Par ch=8 c=11 v=51
5112 Par ch=8 c=11 v=50
5114 On ch=8 n=55 v=0
5120 Par ch=8 c=11 v=49
5120 On ch=8 n=51 v=95
5128 Par ch=8 c=11 v=48
5136 Par ch=8 c=11 v=47
5146 On ch=8 n=51 v=0
5148 Par ch=8 c=11 v=46
5152 On ch=8 n=60 v=95
5156 Par ch=8 c=11 v=45
5164 Par ch=8 c=11 v=44
5172 Par ch=8 c=11 v=43
5178 On ch=8 n=60 v=0
5180 Par ch=8 c=11 v=42
5184 On ch=8 n=53 v=95
5188 Par ch=8 c=11 v=41
5196 Par ch=8 c=11 v=40
5204 Par ch=8 c=11 v=39
5210 On ch=8 n=53 v=0
5216 Par ch=8 c=11 v=38
5216 On ch=8 n=50 v=95
5224 Par ch=8 c=11 v=37
5232 Par ch=8 c=11 v=36
5240 Par ch=8 c=11 v=35
5242 On ch=8 n=50 v=0
5248 Par ch=8 c=11 v=34
5248 On ch=8 n=58 v=95
5256 Par ch=8 c=11 v=33
5264 Par ch=8 c=11 v=32
5272 Par ch=8 c=11 v=31
5274 On ch=8 n=58 v=0
5280 Par ch=8 c=11 v=30
5280 On ch=8 n=51 v=95
5306 On ch=8 n=51 v=0
5312 On ch=8 n=48 v=95
5338 On ch=8 n=48 v=0
5344 On ch=8 n=56 v=95
5370 On ch=8 n=56 v=0
5376 Par ch=8 c=11 v=64
5376 On ch=8 n=55 v=95
5407 On ch=8 n=55 v=0
5448 On ch=8 n=50 v=71
5464 On ch=8 n=50 v=0
5472 On ch=8 n=43 v=47
5503 On ch=8 n=43 v=0
5616 Par ch=8 c=11 v=64
5616 On ch=8 n=50 v=47
5620 Par ch=8 c=11 v=65
5624 Par ch=8 c=11 v=66
5628 Par ch=8 c=11 v=68
5632 Par ch=8 c=11 v=69
5635 On ch=8 n=50 v=0
5636 Par ch=8 c=11 v=70
5640 Par ch=8 c=11 v=72
5640 On ch=8 n=51 v=47
5644 Par ch=8 c=11 v=73
5648 Par ch=8 c=11 v=74
5652 Par ch=8 c=11 v=76
5656 Par ch=8 c=11 v=77
5659 On ch=8 n=51 v=0
5660 Par ch=8 c=11 v=78
5664 Par ch=8 c=11 v=80
5664 On ch=8 n=53 v=47
5668 Par ch=8 c=11 v=81
5672 Par ch=8 c=11 v=83
5676 Par ch=8 c=11 v=84
5680 Par ch=8 c=11 v=85
5683 On ch=8 n=53 v=0
5684 Par ch=8 c=11 v=87
5688 Par ch=8 c=11 v=88
5688 On ch=8 n=51 v=47
5692 Par ch=8 c=11 v=89
5696 Par ch=8 c=11 v=91
5700 Par ch=8 c=11 v=92
5704 Par ch=8 c=11 v=93
5707 On ch=8 n=51 v=0
5708 Par ch=8 c=11 v=95
5712 Par ch=8 c=11 v=96
5712 On ch=8 n=53 v=47
5716 Par ch=8 c=11 v=98
5720 Par ch=8 c=11 v=99
5724 Par ch=8 c=11 v=100
5728 Par ch=8 c=11 v=102
5731 On ch=8 n=53 v=0
5732 Par ch=8 c=11 v=103
5736 Par ch=8 c=11 v=104
5736 On ch=8 n=50 v=47
5740 Par ch=8 c=11 v=106
5744 Par ch=8 c=11 v=107
5748 Par ch=8 c=11 v=108
5752 Par ch=8 c=11 v=110
5755 On ch=8 n=50 v=0
5756 Par ch=8 c=11 v=111
5760 Par ch=8 c=11 v=64
5760 On ch=8 n=55 v=95
5791 On ch=8 n=55 v=0
5832 On ch=8 n=50 v=71
5848 On ch=8 n=50 v=0
5856 On ch=8 n=43 v=47
5887 On ch=8 n=43 v=0
6000 Par ch=8 c=11 v=64
6000 On ch=8 n=42 v=95
6012 Par ch=8 c=11 v=63
6019 On ch=8 n=42 v=0
6020 Par ch=8 c=11 v=62
6024 On ch=8 n=43 v=95
6028 Par ch=8 c=11 v=61
6036 Par ch=8 c=11 v=60
6043 On ch=8 n=43 v=0
6044 Par ch=8 c=11 v=59
6048 On ch=8 n=44 v=95
6052 Par ch=8 c=11 v=58
6060 Par ch=8 c=11 v=57
6067 On ch=8 n=44 v=0
6068 Par ch=8 c=11 v=56
6072 On ch=8 n=43 v=95
6080 Par ch=8 c=11 v=55
6088 Par ch=8 c=11 v=54
6091 On ch=8 n=43 v=0
6096 Par ch=8 c=11 v=53
6096 On ch=8 n=41 v=95
6104 Par ch=8 c=11 v=52
6112 Par ch=8 c=11 v=51
6115 On ch=8 n=41 v=0
6120 Par ch=8 c=11 v=50
6120 On ch=8 n=38 v=95
6128 Par ch=8 c=11 v=49
6136 Par ch=8 c=11 v=48
6139 On ch=8 n=38 v=0
6144 Par ch=8 c=11 v=64
6144 On ch=8 n=48 v=79
6152 Par ch=8 c=11 v=63
6156 Par ch=8 c=11 v=62
6164 Par ch=8 c=11 v=61
6168 Par ch=8 c=11 v=60
6175 On ch=8 n=48 v=0
6176 Par ch=8 c=11 v=59
6180 Par ch=8 c=11 v=58
6188 Par ch=8 c=11 v=57
6192 Par ch=8 c=11 v=56
6200 Par ch=8 c=11 v=55
6204 Par ch=8 c=11 v=54
6212 Par ch=8 c=11 v=53
6216 Par ch=8 c=11 v=52
6216 On ch=8 n=43 v=79
6224 Par ch=8 c=11 v=51
6228 Par ch=8 c=11 v=50
6232 On ch=8 n=43 v=0
6236 Par ch=8 c=11 v=49
6240 Par ch=8 c=11 v=48
6240 On ch=8 n=48 v=79
6248 Par ch=8 c=11 v=47
6252 Par ch=8 c=11 v=46
6260 Par ch=8 c=11 v=45
6264 Par ch=8 c=11 v=44
6271 On ch=8 n=48 v=0
6272 Par ch=8 c=11 v=43
6276 Par ch=8 c=11 v=42
6284 Par ch=8 c=11 v=41
6288 Par ch=8 c=11 v=40
6296 Par ch=8 c=11 v=39
6300 Par ch=8 c=11 v=38
6308 Par ch=8 c=11 v=37
6312 Par ch=8 c=11 v=36
6312 On ch=8 n=43 v=79
6320 Par ch=8 c=11 v=35
6324 Par ch=8 c=11 v=34
6328 On ch=8 n=43 v=0
6332 Par ch=8 c=11 v=33
6336 Par ch=8 c=11 v=32
6336 On ch=8 n=48 v=79
6367 On ch=8 n=48 v=0
6480 Par ch=8 c=11 v=64
6480 On ch=8 n=43 v=47
6496 Par ch=8 c=11 v=63
6508 Par ch=8 c=11 v=62
6511 On ch=8 n=43 v=0
6520 Par ch=8 c=11 v=61
6528 On ch=8 n=48 v=47
6532 Par ch=8 c=11 v=60
6544 Par ch=8 c=11 v=59
6559 On ch=8 n=48 v=0
6560 Par ch=8 c=11 v=58
6572 Par ch=8 c=11 v=57
6584 Par ch=8 c=11 v=56
6596 Par ch=8 c=11 v=55
6608 Par ch=8 c=11 v=54
6620 Par ch=8 c=11 v=53
6636 Par ch=8 c=11 v=52
6648 Par ch=8 c=11 v=51
6660 Par ch=8 c=11 v=50
6672 Par ch=8 c=11 v=49
6672 On ch=8 n=43 v=47
6684 Par ch=8 c=11 v=48
6696 Par ch=8 c=11 v=47
6703 On ch=8 n=43 v=0
6712 Par ch=8 c=11 v=46
6720 On ch=8 n=48 v=47
6724 Par ch=8 c=11 v=45
6736 Par ch=8 c=11 v=44
6748 Par ch=8 c=11 v=43
6751 On ch=8 n=48 v=0
6760 Par ch=8 c=11 v=42
6776 Par ch=8 c=11 v=41
6788 Par ch=8 c=11 v=40
6800 Par ch=8 c=11 v=39
6812 Par ch=8 c=11 v=38
6824 Par ch=8 c=11 v=37
6836 Par ch=8 c=11 v=36
6852 Par ch=8 c=11 v=35
6864 Par ch=8 c=11 v=34
6864 On ch=8 n=43 v=47
6876 Par ch=8 c=11 v=33
6888 Par ch=8 c=11 v=32
6895 On ch=8 n=43 v=0
6912 Par ch=8 c=11 v=64
6912 On ch=8 n=48 v=15
6943 On ch=8 n=48 v=0
6984 On ch=8 n=43 v=15
7000 On ch=8 n=43 v=0
7008 On ch=8 n=36 v=15
7039 On ch=8 n=36 v=0
7152 On ch=8 n=42 v=15
7168 On ch=8 n=42 v=0
7176 On ch=8 n=43 v=15
7192 On ch=8 n=43 v=0
7200 On ch=8 n=45 v=15
7216 On ch=8 n=45 v=0
7224 On ch=8 n=43 v=15
7240 On ch=8 n=43 v=0
7248 On ch=8 n=45 v=15
7264 On ch=8 n=45 v=0
7272 On ch=8 n=47 v=15
7288 On ch=8 n=47 v=0
7296 On ch=8 n=48 v=15
7327 On ch=8 n=48 v=0
7368 On ch=8 n=43 v=15
7384 On ch=8 n=43 v=0
7392 On ch=8 n=36 v=15
7423 On ch=8 n=36 v=0
7512 On ch=8 n=48 v=31
7528 On ch=8 n=48 v=0
7536 On ch=8 n=50 v=31
7552 On ch=8 n=50 v=0
7560 On ch=8 n=51 v=31
7576 On ch=8 n=51 v=0
7584 On ch=8 n=53 v=31
7600 On ch=8 n=53 v=0
7608 On ch=8 n=55 v=31
7624 On ch=8 n=55 v=0
7632 On ch=8 n=57 v=31
7648 On ch=8 n=57 v=0
7656 On ch=8 n=59 v=31
7672 On ch=8 n=59 v=0
7680 On ch=8 n=60 v=31
7711 On ch=8 n=60 v=0
7752 On ch=8 n=55 v=31
7768 On ch=8 n=55 v=0
7776 On ch=8 n=48 v=31
7807 On ch=8 n=48 v=0
8016 On ch=8 n=55 v=31
8047 On ch=8 n=55 v=0
8064 On ch=8 n=60 v=31
8095 On ch=8 n=60 v=0
8136 On ch=8 n=55 v=31
8152 On ch=8 n=55 v=0
8160 On ch=8 n=60 v=31
8191 On ch=8 n=60 v=0
8232 On ch=8 n=55 v=31
8248 On ch=8 n=55 v=0
8256 On ch=8 n=60 v=31
8333 On ch=8 n=60 v=0
8400 On ch=8 n=55 v=31
8431 On ch=8 n=55 v=0
8448 On ch=8 n=60 v=31
8469 On ch=8 n=60 v=0
8480 On ch=8 n=59 v=31
8501 On ch=8 n=59 v=0
8512 On ch=8 n=60 v=31
8533 On ch=8 n=60 v=0
8544 On ch=8 n=62 v=31
8565 On ch=8 n=62 v=0
8576 On ch=8 n=60 v=31
8597 On ch=8 n=60 v=0
8608 On ch=8 n=59 v=31
8629 On ch=8 n=59 v=0
8640 On ch=8 n=60 v=31
8678 On ch=8 n=60 v=0
8712 On ch=8 n=55 v=31
8731 On ch=8 n=55 v=0
8736 On ch=8 n=56 v=31
8774 On ch=8 n=56 v=0
8808 On ch=8 n=54 v=31
8827 On ch=8 n=54 v=0
8832 On ch=8 n=55 v=31
8870 On ch=8 n=55 v=0
8904 On ch=8 n=51 v=31
8923 On ch=8 n=51 v=0
8928 On ch=8 n=55 v=31
8966 On ch=8 n=55 v=0
9000 On ch=8 n=51 v=31
9019 On ch=8 n=51 v=0
9024 On ch=8 n=55 v=31
9062 On ch=8 n=55 v=0
9096 On ch=8 n=51 v=31
9120 On ch=8 n=51 v=0
9120 On ch=8 n=53 v=31
9144 On ch=8 n=53 v=0
9144 On ch=8 n=51 v=31
9168 On ch=8 n=51 v=0
9168 On ch=8 n=50 v=31
9192 On ch=8 n=50 v=0
9192 On ch=8 n=51 v=31
9216 On ch=8 n=51 v=0
9216 On ch=8 n=55 v=31
9247 On ch=8 n=55 v=0
9288 On ch=8 n=51 v=31
9307 On ch=8 n=51 v=0
9312 On ch=8 n=55 v=31
9350 On ch=8 n=55 v=0
9384 On ch=8 n=51 v=31
9403 On ch=8 n=51 v=0
9408 On ch=8 n=55 v=31
9446 On ch=8 n=55 v=0
9480 On ch=8 n=51 v=31
9504 On ch=8 n=51 v=0
9504 On ch=8 n=56 v=31
9528 On ch=8 n=56 v=0
9528 On ch=8 n=55 v=31
9552 On ch=8 n=55 v=0
9552 On ch=8 n=53 v=31
9576 On ch=8 n=53 v=0
9576 On ch=8 n=51 v=31
9600 On ch=8 n=51 v=0
9600 On ch=8 n=55 v=95
9631 On ch=8 n=55 v=0
9672 On ch=8 n=50 v=47
9688 On ch=8 n=50 v=0
9696 On ch=8 n=43 v=47
9727 On ch=8 n=43 v=0
9824 Par ch=8 c=11 v=64
9824 On ch=8 n=53 v=47
9828 Par ch=8 c=11 v=65
9832 Par ch=8 c=11 v=66
9836 Par ch=8 c=11 v=67
9840 Par ch=8 c=11 v=68
9844 Par ch=8 c=11 v=70
9845 On ch=8 n=53 v=0
9848 Par ch=8 c=11 v=71
9852 Par ch=8 c=11 v=72
9856 Par ch=8 c=11 v=73
9856 On ch=8 n=55 v=47
9860 Par ch=8 c=11 v=75
9864 Par ch=8 c=11 v=76
9868 Par ch=8 c=11 v=77
9872 Par ch=8 c=11 v=78
9876 Par ch=8 c=11 v=79
9877 On ch=8 n=55 v=0
9880 Par ch=8 c=11 v=81
9884 Par ch=8 c=11 v=82
9888 Par ch=8 c=11 v=83
9888 On ch=8 n=56 v=47
9892 Par ch=8 c=11 v=84
9896 Par ch=8 c=11 v=86
9900 Par ch=8 c=11 v=87
9904 Par ch=8 c=11 v=88
9908 Par ch=8 c=11 v=89
9909 On ch=8 n=56 v=0
9912 Par ch=8 c=11 v=90
9916 Par ch=8 c=11 v=92
9920 Par ch=8 c=11 v=93
9920 On ch=8 n=53 v=47
9924 Par ch=8 c=11 v=94
9928 Par ch=8 c=11 v=95
9932 Par ch=8 c=11 v=97
9936 Par ch=8 c=11 v=98
9940 Par ch=8 c=11 v=99
9941 On ch=8 n=53 v=0
9944 Par ch=8 c=11 v=100
9948 Par ch=8 c=11 v=101
9952 Par ch=8 c=11 v=103
9952 On ch=8 n=62 v=47
9956 Par ch=8 c=11 v=104
9960 Par ch=8 c=11 v=105
9964 Par ch=8 c=11 v=106
9968 Par ch=8 c=11 v=108
9972 Par ch=8 c=11 v=109
9973 On ch=8 n=62 v=0
9976 Par ch=8 c=11 v=110
9980 Par ch=8 c=11 v=111
9984 Par ch=8 c=11 v=64
9984 On ch=8 n=55 v=95
10015 On ch=8 n=55 v=0
10056 On ch=8 n=50 v=47
10072 On ch=8 n=50 v=0
10080 On ch=8 n=43 v=47
10111 On ch=8 n=43 v=0
10208 Par ch=8 c=11 v=64
10208 On ch=8 n=53 v=47
10212 Par ch=8 c=11 v=65
10216 Par ch=8 c=11 v=66
10220 Par ch=8 c=11 v=67
10224 Par ch=8 c=11 v=68
10228 Par ch=8 c=11 v=70
10229 On ch=8 n=53 v=0
10232 Par ch=8 c=11 v=71
10236 Par ch=8 c=11 v=72
10240 Par ch=8 c=11 v=73
10240 On ch=8 n=55 v=47
10244 Par ch=8 c=11 v=75
10248 Par ch=8 c=11 v=76
10252 Par ch=8 c=11 v=77
10256 Par ch=8 c=11 v=78
10260 Par ch=8 c=11 v=79
10261 On ch=8 n=55 v=0
10264 Par ch=8 c=11 v=81
10268 Par ch=8 c=11 v=82
10272 Par ch=8 c=11 v=83
10272 On ch=8 n=56 v=47
10276 Par ch=8 c=11 v=84
10280 Par ch=8 c=11 v=86
10284 Par ch=8 c=11 v=87
10288 Par ch=8 c=11 v=88
10292 Par ch=8 c=11 v=89
10293 On ch=8 n=56 v=0
10296 Par ch=8 c=11 v=90
10300 Par ch=8 c=11 v=92
10304 Par ch=8 c=11 v=93
10304 On ch=8 n=53 v=47
10308 Par ch=8 c=11 v=94
10312 Par ch=8 c=11 v=95
10316 Par ch=8 c=11 v=97
10320 Par ch=8 c=11 v=98
10324 Par ch=8 c=11 v=99
10325 On ch=8 n=53 v=0
10328 Par ch=8 c=11 v=100
10332 Par ch=8 c=11 v=101
10336 Par ch=8 c=11 v=103
10336 On ch=8 n=62 v=47
10340 Par ch=8 c=11 v=104
10344 Par ch=8 c=11 v=105
10348 Par ch=8 c=11 v=106
10352 Par ch=8 c=11 v=108
10356 Par ch=8 c=11 v=109
10357 On ch=8 n=62 v=0
10360 Par ch=8 c=11 v=110
10364 Par ch=8 c=11 v=111
10368 Par ch=8 c=11 v=112
10368 On ch=8 n=55 v=47
10376 Par ch=8 c=11 v=111
10384 Par ch=8 c=11 v=110
10392 Par ch=8 c=11 v=109
10394 On ch=8 n=55 v=0
10400 Par ch=8 c=11 v=108
10400 On ch=8 n=51 v=47
10408 Par ch=8 c=11 v=107
10416 Par ch=8 c=11 v=106
10424 Par ch=8 c=11 v=105
10426 On ch=8 n=51 v=0
10432 Par ch=8 c=11 v=104
10432 On ch=8 n=60 v=47
10440 Par ch=8 c=11 v=103
10448 Par ch=8 c=11 v=102
10456 Par ch=8 c=11 v=101
10458 On ch=8 n=60 v=0
10464 Par ch=8 c=11 v=100
10464 On ch=8 n=53 v=47
10468 Par ch=8 c=11 v=99
10476 Par ch=8 c=11 v=98
10484 Par ch=8 c=11 v=97
10490 On ch=8 n=53 v=0
10492 Par ch=8 c=11 v=96
10496 On ch=8 n=50 v=47
10500 Par ch=8 c=11 v=95
10508 Par ch=8 c=11 v=94
10516 Par ch=8 c=11 v=93
10522 On ch=8 n=50 v=0
10524 Par ch=8 c=11 v=92
10528 On ch=8 n=58 v=47
10532 Par ch=8 c=11 v=91
10540 Par ch=8 c=11 v=90
10548 Par ch=8 c=11 v=89
10554 On ch=8 n=58 v=0
10556 Par ch=8 c=11 v=88
10560 Par ch=8 c=11 v=87
10560 On ch=8 n=51 v=47
10568 Par ch=8 c=11 v=86
10576 Par ch=8 c=11 v=85
10584 Par ch=8 c=11 v=84
10586 On ch=8 n=51 v=0
10592 Par ch=8 c=11 v=83
10592 On ch=8 n=48 v=47
10600 Par ch=8 c=11 v=82
10608 Par ch=8 c=11 v=81
10616 Par ch=8 c=11 v=80
10618 On ch=8 n=48 v=0
10624 Par ch=8 c=11 v=79
10624 On ch=8 n=56 v=47
10632 Par ch=8 c=11 v=78
10640 Par ch=8 c=11 v=77
10648 Par ch=8 c=11 v=76
10650 On ch=8 n=56 v=0
10656 Par ch=8 c=11 v=75
10656 On ch=8 n=50 v=47
10660 Par ch=8 c=11 v=74
10668 Par ch=8 c=11 v=73
10676 Par ch=8 c=11 v=72
10682 On ch=8 n=50 v=0
10684 Par ch=8 c=11 v=71
10688 On ch=8 n=43 v=47
10692 Par ch=8 c=11 v=70
10700 Par ch=8 c=11 v=69
10708 Par ch=8 c=11 v=68
10714 On ch=8 n=43 v=0
10716 Par ch=8 c=11 v=67
10720 On ch=8 n=55 v=47
10724 Par ch=8 c=11 v=66
10732 Par ch=8 c=11 v=65
10740 Par ch=8 c=11 v=64
10746 On ch=8 n=55 v=0
10752 Par ch=8 c=11 v=112
10752 On ch=8 n=56 v=47
10760 Par ch=8 c=11 v=111
10768 Par ch=8 c=11 v=110
10776 Par ch=8 c=11 v=109
10778 On ch=8 n=56 v=0
10784 Par ch=8 c=11 v=108
10784 On ch=8 n=53 v=47
10792 Par ch=8 c=11 v=107
10800 Par ch=8 c=11 v=106
10808 Par ch=8 c=11 v=105
10810 On ch=8 n=53 v=0
10816 Par ch=8 c=11 v=104
10816 On ch=8 n=62 v=47
10824 Par ch=8 c=11 v=103
10832 Par ch=8 c=11 v=102
10840 Par ch=8 c=11 v=101
10842 On ch=8 n=62 v=0
10848 Par ch=8 c=11 v=100
10848 On ch=8 n=55 v=47
10852 Par ch=8 c=11 v=99
10860 Par ch=8 c=11 v=98
10868 Par ch=8 c=11 v=97
10874 On ch=8 n=55 v=0
10876 Par ch=8 c=11 v=96
10880 On ch=8 n=51 v=47
10884 Par ch=8 c=11 v=95
10892 Par ch=8 c=11 v=94
10900 Par ch=8 c=11 v=93
10906 On ch=8 n=51 v=0
10908 Par ch=8 c=11 v=92
10912 On ch=8 n=60 v=47
10916 Par ch=8 c=11 v=91
10924 Par ch=8 c=11 v=90
10932 Par ch=8 c=11 v=89
10938 On ch=8 n=60 v=0
10940 Par ch=8 c=11 v=88
10944 Par ch=8 c=11 v=87
10944 On ch=8 n=53 v=47
10952 Par ch=8 c=11 v=86
10960 Par ch=8 c=11 v=85
10968 Par ch=8 c=11 v=84
10970 On ch=8 n=53 v=0
10976 Par ch=8 c=11 v=83
10976 On ch=8 n=50 v=47
10984 Par ch=8 c=11 v=82
10992 Par ch=8 c=11 v=81
11000 Par ch=8 c=11 v=80
11002 On ch=8 n=50 v=0
11008 Par ch=8 c=11 v=79
11008 On ch=8 n=58 v=47
11016 Par ch=8 c=11 v=78
11024 Par ch=8 c=11 v=77
11032 Par ch=8 c=11 v=76
11034 On ch=8 n=58 v=0
11040 Par ch=8 c=11 v=75
11040 On ch=8 n=51 v=47
11044 Par ch=8 c=11 v=74
11052 Par ch=8 c=11 v=73
11060 Par ch=8 c=11 v=72
11066 On ch=8 n=51 v=0
11068 Par ch=8 c=11 v=71
11072 On ch=8 n=48 v=47
11076 Par ch=8 c=11 v=70
11084 Par ch=8 c=11 v=69
11092 Par ch=8 c=11 v=68
11098 On ch=8 n=48 v=0
11100 Par ch=8 c=11 v=67
11104 On ch=8 n=56 v=47
11108 Par ch=8 c=11 v=66
11116 Par ch=8 c=11 v=65
11124 Par ch=8 c=11 v=64
11130 On ch=8 n=56 v=0
11136 On ch=8 n=55 v=47
11174 On ch=8 n=55 v=0
11208 On ch=8 n=50 v=47
11227 On ch=8 n=50 v=0
11232 On ch=8 n=43 v=47
11270 On ch=8 n=43 v=0
11376 Par ch=8 c=11 v=64
11376 On ch=8 n=50 v=47
11388 Par ch=8 c=11 v=65
11395 On ch=8 n=50 v=0
11396 Par ch=8 c=11 v=66
11400 On ch=8 n=51 v=47
11404 Par ch=8 c=11 v=67
11412 Par ch=8 c=11 v=68
11419 On ch=8 n=51 v=0
11420 Par ch=8 c=11 v=69
11424 On ch=8 n=53 v=47
11428 Par ch=8 c=11 v=70
11436 Par ch=8 c=11 v=71
11443 On ch=8 n=53 v=0
11444 Par ch=8 c=11 v=72
11448 On ch=8 n=51 v=47
11456 Par ch=8 c=11 v=73
11464 Par ch=8 c=11 v=74
11467 On ch=8 n=51 v=0
11472 Par ch=8 c=11 v=75
11472 On ch=8 n=53 v=47
11480 Par ch=8 c=11 v=76
11488 Par ch=8 c=11 v=77
11491 On ch=8 n=53 v=0
11496 Par ch=8 c=11 v=78
11496 On ch=8 n=50 v=47
11504 Par ch=8 c=11 v=79
11512 Par ch=8 c=11 v=80
11515 On ch=8 n=50 v=0
11520 Par ch=8 c=11 v=80
11520 On ch=8 n=55 v=47
11528 Par ch=8 c=11 v=79
11532 Par ch=8 c=11 v=78
11540 Par ch=8 c=11 v=77
11544 Par ch=8 c=11 v=76
11552 Par ch=8 c=11 v=75
11556 Par ch=8 c=11 v=74
11558 On ch=8 n=55 v=0
11564 Par ch=8 c=11 v=73
11568 Par ch=8 c=11 v=72
11576 Par ch=8 c=11 v=71
11580 Par ch=8 c=11 v=70
11588 Par ch=8 c=11 v=69
11592 Par ch=8 c=11 v=68
11592 On ch=8 n=50 v=47
11600 Par ch=8 c=11 v=67
11604 Par ch=8 c=11 v=66
11611 On ch=8 n=50 v=0
11612 Par ch=8 c=11 v=65
11616 Par ch=8 c=11 v=64
11616 On ch=8 n=43 v=47
11654 On ch=8 n=43 v=0
11760 Par ch=8 c=11 v=64
11760 On ch=8 n=42 v=47
11772 Par ch=8 c=11 v=65
11779 On ch=8 n=42 v=0
11780 Par ch=8 c=11 v=66
11784 On ch=8 n=43 v=47
11788 Par ch=8 c=11 v=67
11796 Par ch=8 c=11 v=68
11803 On ch=8 n=43 v=0
11804 Par ch=8 c=11 v=69
11808 On ch=8 n=44 v=47
11812 Par ch=8 c=11 v=70
11820 Par ch=8 c=11 v=71
11827 On ch=8 n=44 v=0
11828 Par ch=8 c=11 v=72
11832 On ch=8 n=43 v=47
11840 Par ch=8 c=11 v=73
11848 Par ch=8 c=11 v=74
11851 On ch=8 n=43 v=0
11856 Par ch=8 c=11 v=75
11856 On ch=8 n=41 v=47
11864 Par ch=8 c=11 v=76
11872 Par ch=8 c=11 v=77
11875 On ch=8 n=41 v=0
11880 Par ch=8 c=11 v=78
11880 On ch=8 n=38 v=47
11888 Par ch=8 c=11 v=79
11896 Par ch=8 c=11 v=80
11899 On ch=8 n=38 v=0
11904 Par ch=8 c=11 v=64
11904 On ch=8 n=48 v=95
11942 On ch=8 n=48 v=0
11976 On ch=8 n=43 v=47
11995 On ch=8 n=43 v=0
12000 On ch=8 n=48 v=47
12038 On ch=8 n=48 v=0
12072 On ch=8 n=43 v=47
12091 On ch=8 n=43 v=0
12096 On ch=8 n=48 v=47
12134 On ch=8 n=48 v=0
12240 On ch=8 n=43 v=47
12271 On ch=8 n=43 v=0
12288 On ch=8 n=48 v=47
12365 On ch=8 n=48 v=0
12432 On ch=8 n=43 v=47
12470 On ch=8 n=43 v=0
12480 On ch=8 n=48 v=47
12557 On ch=8 n=48 v=0
12624 On ch=8 n=43 v=47
12640 Par ch=8 c=11 v=64
12656 Par ch=8 c=11 v=65
12662 On ch=8 n=43 v=0
12668 Par ch=8 c=11 v=66
12672 On ch=8 n=48 v=47
12680 Par ch=8 c=11 v=67
12692 Par ch=8 c=11 v=68
12704 Par ch=8 c=11 v=69
12716 Par ch=8 c=11 v=70
12732 Par ch=8 c=11 v=71
12744 Par ch=8 c=11 v=72
12748 On ch=8 n=48 v=0
12756 Par ch=8 c=11 v=73
12768 Par ch=8 c=11 v=74
12780 Par ch=8 c=11 v=75
12792 Par ch=8 c=11 v=76
12804 Par ch=8 c=11 v=77
12816 On ch=8 n=43 v=47
12820 Par ch=8 c=11 v=78
12832 Par ch=8 c=11 v=79
12844 Par ch=8 c=11 v=80
12854 On ch=8 n=43 v=0
12856 Par ch=8 c=11 v=81
12864 On ch=8 n=48 v=47
12868 Par ch=8 c=11 v=82
12880 Par ch=8 c=11 v=83
12890 On ch=8 n=48 v=0
12896 Par ch=8 c=11 v=84
12896 On ch=8 n=43 v=47
12908 Par ch=8 c=11 v=85
12920 Par ch=8 c=11 v=86
12922 On ch=8 n=43 v=0
12928 On ch=8 n=48 v=47
12932 Par ch=8 c=11 v=87
12944 Par ch=8 c=11 v=88
12954 On ch=8 n=48 v=0
12956 Par ch=8 c=11 v=89
12960 On ch=8 n=43 v=47
12968 Par ch=8 c=11 v=90
12984 Par ch=8 c=11 v=91
12986 On ch=8 n=43 v=0
12992 On ch=8 n=48 v=47
12996 Par ch=8 c=11 v=92
13008 Par ch=8 c=11 v=93
13018 On ch=8 n=48 v=0
13020 Par ch=8 c=11 v=94
13024 On ch=8 n=43 v=47
13032 Par ch=8 c=11 v=95
13044 Par ch=8 c=11 v=96
13050 On ch=8 n=43 v=0
13056 On ch=8 n=48 v=47
13092 Par ch=8 c=11 v=96
13094 On ch=8 n=48 v=0
13128 Par ch=8 c=11 v=97
13128 On ch=8 n=55 v=47
13147 On ch=8 n=55 v=0
13152 On ch=8 n=60 v=47
13164 Par ch=8 c=11 v=98
13200 Par ch=8 c=11 v=99
13229 On ch=8 n=60 v=0
13236 Par ch=8 c=11 v=100
13272 Par ch=8 c=11 v=101
13296 On ch=8 n=58 v=47
13308 Par ch=8 c=11 v=102
13315 On ch=8 n=58 v=0
13320 On ch=8 n=56 v=47
13339 On ch=8 n=56 v=0
13344 Par ch=8 c=11 v=103
13344 On ch=8 n=55 v=47
13363 On ch=8 n=55 v=0
13368 On ch=8 n=53 v=47
13380 Par ch=8 c=11 v=104
13387 On ch=8 n=53 v=0
13392 On ch=8 n=51 v=47
13411 On ch=8 n=51 v=0
13416 Par ch=8 c=11 v=105
13416 On ch=8 n=50 v=47
13435 On ch=8 n=50 v=0
13440 On ch=8 n=48 v=47
13452 Par ch=8 c=11 v=106
13488 Par ch=8 c=11 v=107
13516 On ch=8 n=48 v=0
13524 Par ch=8 c=11 v=108
13560 Par ch=8 c=11 v=109
13584 On ch=8 n=43 v=47
13596 Par ch=8 c=11 v=110
13622 On ch=8 n=43 v=0
13632 Par ch=8 c=11 v=111
13632 On ch=8 n=48 v=47
13658 On ch=8 n=48 v=0
13664 On ch=8 n=43 v=47
13668 Par ch=8 c=11 v=112
13690 On ch=8 n=43 v=0
13696 On ch=8 n=48 v=47
13704 Par ch=8 c=11 v=113
13722 On ch=8 n=48 v=0
13728 On ch=8 n=43 v=47
13740 Par ch=8 c=11 v=114
13754 On ch=8 n=43 v=0
13760 On ch=8 n=48 v=47
13776 Par ch=8 c=11 v=115
13786 On ch=8 n=48 v=0
13792 On ch=8 n=43 v=47
13812 Par ch=8 c=11 v=116
13818 On ch=8 n=43 v=0
13824 On ch=8 n=48 v=47
13848 Par ch=8 c=11 v=117
13862 On ch=8 n=48 v=0
13884 Par ch=8 c=11 v=118
13896 On ch=8 n=55 v=47
13915 On ch=8 n=55 v=0
13920 Par ch=8 c=11 v=119
13920 On ch=8 n=60 v=47
13956 Par ch=8 c=11 v=120
13992 Par ch=8 c=11 v=121
13997 On ch=8 n=60 v=0
14028 Par ch=8 c=11 v=122
14048 On ch=8 n=55 v=47
14064 Par ch=8 c=11 v=123
14069 On ch=8 n=55 v=0
14080 On ch=8 n=60 v=47
14100 Par ch=8 c=11 v=124
14101 On ch=8 n=60 v=0
14112 On ch=8 n=55 v=47
14133 On ch=8 n=55 v=0
14136 Par ch=8 c=11 v=125
14144 On ch=8 n=58 v=47
14165 On ch=8 n=58 v=0
14172 Par ch=8 c=11 v=126
14176 On ch=8 n=61 v=47
14197 On ch=8 n=61 v=0
14208 Par ch=8 c=11 v=64
14208 On ch=8 n=60 v=111
14239 On ch=8 n=60 v=0
14280 On ch=8 n=58 v=111
14296 On ch=8 n=58 v=0
14304 On ch=8 n=56 v=111
14335 On ch=8 n=56 v=0
14376 On ch=8 n=55 v=111
14392 On ch=8 n=55 v=0
14400 On ch=8 n=53 v=111
14431 On ch=8 n=53 v=0
14472 On ch=8 n=51 v=111
14488 On ch=8 n=51 v=0
14496 On ch=8 n=49 v=111
14527 On ch=8 n=49 v=0
14568 On ch=8 n=48 v=111
14584 On ch=8 n=48 v=0
14592 On ch=8 n=56 v=111
14623 On ch=8 n=56 v=0
14664 On ch=8 n=55 v=111
14680 On ch=8 n=55 v=0
14688 On ch=8 n=53 v=111
14719 On ch=8 n=53 v=0
14760 On ch=8 n=51 v=111
14776 On ch=8 n=51 v=0
14784 On ch=8 n=49 v=111
14815 On ch=8 n=49 v=0
14856 On ch=8 n=48 v=111
14872 On ch=8 n=48 v=0
14880 On ch=8 n=46 v=111
14911 On ch=8 n=46 v=0
14952 On ch=8 n=44 v=111
14968 On ch=8 n=44 v=0
14976 On ch=8 n=67 v=127
15130 On ch=8 n=67 v=0
15168 On ch=8 n=68 v=127
15245 On ch=8 n=68 v=0
15264 On ch=8 n=69 v=127
15341 On ch=8 n=69 v=0
15360 On ch=8 n=70 v=127
15514 On ch=8 n=70 v=0
15552 On ch=8 n=71 v=111
15560 On ch=8 n=71 v=0
15560 On ch=8 n=72 v=111
15568 On ch=8 n=72 v=0
15568 On ch=8 n=71 v=111
15576 On ch=8 n=71 v=0
15576 On ch=8 n=72 v=111
15584 On ch=8 n=72 v=0
15584 On ch=8 n=71 v=111
15592 On ch=8 n=71 v=0
15592 On ch=8 n=72 v=111
15600 On ch=8 n=72 v=0
15600 On ch=8 n=71 v=111
15608 On ch=8 n=71 v=0
15608 On ch=8 n=72 v=111
15616 On ch=8 n=72 v=0
15616 On ch=8 n=71 v=111
15624 On ch=8 n=71 v=0
15624 On ch=8 n=72 v=111
15632 On ch=8 n=72 v=0
15632 On ch=8 n=71 v=111
15640 On ch=8 n=71 v=0
15640 On ch=8 n=72 v=111
15648 On ch=8 n=72 v=0
15648 On ch=8 n=71 v=111
15656 On ch=8 n=71 v=0
15656 On ch=8 n=72 v=111
15664 On ch=8 n=72 v=0
15664 On ch=8 n=71 v=111
15672 On ch=8 n=71 v=0
15672 On ch=8 n=72 v=111
15680 On ch=8 n=72 v=0
15680 On ch=8 n=71 v=111
15688 On ch=8 n=71 v=0
15688 On ch=8 n=72 v=111
15696 On ch=8 n=72 v=0
15696 On ch=8 n=71 v=111
15704 On ch=8 n=71 v=0
15704 On ch=8 n=72 v=111
15712 On ch=8 n=72 v=0
15712 On ch=8 n=71 v=111
15720 On ch=8 n=71 v=0
15720 On ch=8 n=69 v=111
15728 On ch=8 n=69 v=0
15728 On ch=8 n=71 v=111
15744 On ch=8 n=71 v=0
15744 On ch=8 n=72 v=127
15782 On ch=8 n=72 v=0
16512 On ch=8 n=48 v=100
16538 On ch=8 n=48 v=0
16544 On ch=8 n=47 v=95
16570 On ch=8 n=47 v=0
16576 On ch=8 n=48 v=79
16602 On ch=8 n=48 v=0
16608 On ch=8 n=50 v=63
16634 On ch=8 n=50 v=0
16640 On ch=8 n=48 v=63
16666 On ch=8 n=48 v=0
16672 On ch=8 n=47 v=63
16698 On ch=8 n=47 v=0
16704 On ch=8 n=48 v=63
16742 On ch=8 n=48 v=0
16896 On ch=8 n=48 v=100
16922 On ch=8 n=48 v=0
16928 On ch=8 n=47 v=95
16954 On ch=8 n=47 v=0
16960 On ch=8 n=48 v=79
16986 On ch=8 n=48 v=0
16992 On ch=8 n=50 v=63
17018 On ch=8 n=50 v=0
17024 On ch=8 n=48 v=63
17050 On ch=8 n=48 v=0
17056 On ch=8 n=47 v=63
17082 On ch=8 n=47 v=0
17088 On ch=8 n=48 v=63
17164 On ch=8 n=48 v=0
17280 On ch=8 n=48 v=100
17306 On ch=8 n=48 v=0
17312 On ch=8 n=47 v=95
17338 On ch=8 n=47 v=0
17344 On ch=8 n=48 v=79
17370 On ch=8 n=48 v=0
17376 On ch=8 n=50 v=63
17402 On ch=8 n=50 v=0
17408 On ch=8 n=48 v=63
17434 On ch=8 n=48 v=0
17440 On ch=8 n=47 v=47
17466 On ch=8 n=47 v=0
17472 On ch=8 n=48 v=47
17548 On ch=8 n=48 v=0
17664 On ch=8 n=47 v=100
17690 On ch=8 n=47 v=0
17696 On ch=8 n=46 v=95
17722 On ch=8 n=46 v=0
17728 On ch=8 n=47 v=79
17754 On ch=8 n=47 v=0
17760 On ch=8 n=49 v=63
17786 On ch=8 n=49 v=0
17792 On ch=8 n=47 v=63
17818 On ch=8 n=47 v=0
17824 On ch=8 n=46 v=47
17850 On ch=8 n=46 v=0
17856 On ch=8 n=47 v=47
17932 On ch=8 n=47 v=0
18048 On ch=8 n=47 v=100
18074 On ch=8 n=47 v=0
18080 On ch=8 n=46 v=95
18106 On ch=8 n=46 v=0
18112 On ch=8 n=47 v=79
18138 On ch=8 n=47 v=0
18144 On ch=8 n=49 v=63
18170 On ch=8 n=49 v=0
18176 On ch=8 n=47 v=63
18202 On ch=8 n=47 v=0
18208 On ch=8 n=46 v=47
18234 On ch=8 n=46 v=0
18240 On ch=8 n=47 v=47
18316 On ch=8 n=47 v=0
18432 On ch=8 n=47 v=31
18458 On ch=8 n=47 v=0
18464 On ch=8 n=46 v=31
18490 On ch=8 n=46 v=0
18496 On ch=8 n=47 v=31
18522 On ch=8 n=47 v=0
18528 On ch=8 n=49 v=31
18554 On ch=8 n=49 v=0
18560 On ch=8 n=47 v=31
18586 On ch=8 n=47 v=0
18592 On ch=8 n=46 v=31
18618 On ch=8 n=46 v=0
18624 On ch=8 n=47 v=31
18701 On ch=8 n=47 v=0
18816 On ch=8 n=47 v=31
18842 On ch=8 n=47 v=0
18848 On ch=8 n=46 v=31
18874 On ch=8 n=46 v=0
18880 On ch=8 n=47 v=31
18906 On ch=8 n=47 v=0
18912 On ch=8 n=49 v=31
18938 On ch=8 n=49 v=0
18944 On ch=8 n=47 v=31
18970 On ch=8 n=47 v=0
18976 On ch=8 n=46 v=31
19002 On ch=8 n=46 v=0
19008 On ch=8 n=47 v=31
19085 On ch=8 n=47 v=0
19200 On ch=8 n=47 v=31
19226 On ch=8 n=47 v=0
19232 On ch=8 n=46 v=31
19258 On ch=8 n=46 v=0
19264 On ch=8 n=47 v=31
19290 On ch=8 n=47 v=0
19296 On ch=8 n=49 v=31
19322 On ch=8 n=49 v=0
19328 On ch=8 n=47 v=31
19354 On ch=8 n=47 v=0
19360 On ch=8 n=46 v=31
19386 On ch=8 n=46 v=0
19392 On ch=8 n=47 v=31
19469 On ch=8 n=47 v=0
19584 Par ch=8 c=11 v=64
19584 On ch=8 n=47 v=31
19592 Par ch=8 c=11 v=65
19596 Par ch=8 c=11 v=66
19604 Par ch=8 c=11 v=67
19608 Par ch=8 c=11 v=68
19616 Par ch=8 c=11 v=69
19620 Par ch=8 c=11 v=70
19624 Par ch=8 c=11 v=71
19632 Par ch=8 c=11 v=72
19636 Par ch=8 c=11 v=73
19644 Par ch=8 c=11 v=74
19648 Par ch=8 c=11 v=75
19652 Par ch=8 c=11 v=76
19660 Par ch=8 c=11 v=77
19664 Par ch=8 c=11 v=78
19672 Par ch=8 c=11 v=79
19676 Par ch=8 c=11 v=80
19680 Par ch=8 c=11 v=80
19688 Par ch=8 c=11 v=79
19692 Par ch=8 c=11 v=78
19700 Par ch=8 c=11 v=77
19704 Par ch=8 c=11 v=76
19712 Par ch=8 c=11 v=75
19716 Par ch=8 c=11 v=74
19724 Par ch=8 c=11 v=73
19728 Par ch=8 c=11 v=72
19736 Par ch=8 c=11 v=71
19738 On ch=8 n=47 v=0
19740 Par ch=8 c=11 v=70
19748 Par ch=8 c=11 v=69
19752 Par ch=8 c=11 v=68
19760 Par ch=8 c=11 v=67
19764 Par ch=8 c=11 v=66
19772 Par ch=8 c=11 v=65
19776 Par ch=8 c=11 v=64
19776 On ch=8 n=48 v=31
19853 On ch=8 n=48 v=0
19872 On ch=8 n=49 v=31
19949 On ch=8 n=49 v=0
19968 On ch=8 n=42 v=15
19989 On ch=8 n=42 v=0
20000 On ch=8 n=41 v=15
20021 On ch=8 n=41 v=0
20032 On ch=8 n=42 v=15
20053 On ch=8 n=42 v=0
20064 On ch=8 n=44 v=15
20085 On ch=8 n=44 v=0
20096 On ch=8 n=42 v=15
20117 On ch=8 n=42 v=0
20128 On ch=8 n=41 v=15
20149 On ch=8 n=41 v=0
20160 On ch=8 n=42 v=15
20237 On ch=8 n=42 v=0
20352 On ch=8 n=42 v=15
20373 On ch=8 n=42 v=0
20384 On ch=8 n=41 v=15
20405 On ch=8 n=41 v=0
20416 On ch=8 n=42 v=15
20437 On ch=8 n=42 v=0
20448 On ch=8 n=44 v=15
20469 On ch=8 n=44 v=0
20480 On ch=8 n=42 v=15
20501 On ch=8 n=42 v=0
20512 On ch=8 n=41 v=15
20533 On ch=8 n=41 v=0
20544 On ch=8 n=42 v=15
20621 On ch=8 n=42 v=0
20736 On ch=8 n=42 v=15
20757 On ch=8 n=42 v=0
20768 On ch=8 n=41 v=15
20789 On ch=8 n=41 v=0
20800 On ch=8 n=42 v=15
20821 On ch=8 n=42 v=0
20832 On ch=8 n=44 v=15
20853 On ch=8 n=44 v=0
20864 On ch=8 n=42 v=15
20885 On ch=8 n=42 v=0
20896 On ch=8 n=41 v=15
20917 On ch=8 n=41 v=0
20928 On ch=8 n=42 v=15
21005 On ch=8 n=42 v=0
21120 On ch=8 n=42 v=15
21141 On ch=8 n=42 v=0
21152 On ch=8 n=41 v=15
21173 On ch=8 n=41 v=0
21184 On ch=8 n=42 v=15
21205 On ch=8 n=42 v=0
21216 On ch=8 n=44 v=15
21237 On ch=8 n=44 v=0
21248 On ch=8 n=42 v=15
21269 On ch=8 n=42 v=0
21280 On ch=8 n=41 v=15
21301 On ch=8 n=41 v=0
21312 On ch=8 n=42 v=15
21389 On ch=8 n=42 v=0
21504 On ch=8 n=47 v=31
21811 On ch=8 n=47 v=0
21888 Par ch=8 c=11 v=64
21888 On ch=8 n=48 v=31
21896 Par ch=8 c=11 v=65
21900 Par ch=8 c=11 v=66
21908 Par ch=8 c=11 v=67
21912 Par ch=8 c=11 v=68
21920 Par ch=8 c=11 v=69
21924 Par ch=8 c=11 v=70
21928 Par ch=8 c=11 v=71
21936 Par ch=8 c=11 v=72
21940 Par ch=8 c=11 v=73
21948 Par ch=8 c=11 v=74
21952 Par ch=8 c=11 v=75
21956 Par ch=8 c=11 v=76
21964 Par ch=8 c=11 v=77
21968 Par ch=8 c=11 v=78
21976 Par ch=8 c=11 v=79
21980 Par ch=8 c=11 v=80
21984 Par ch=8 c=11 v=80
21992 Par ch=8 c=11 v=79
21996 Par ch=8 c=11 v=78
22000 Par ch=8 c=11 v=77
22008 Par ch=8 c=11 v=76
22012 Par ch=8 c=11 v=75
22016 Par ch=8 c=11 v=74
22024 Par ch=8 c=11 v=73
22028 Par ch=8 c=11 v=72
22032 Par ch=8 c=11 v=71
22040 Par ch=8 c=11 v=70
22042 On ch=8 n=48 v=0
22044 Par ch=8 c=11 v=69
22048 Par ch=8 c=11 v=68
22056 Par ch=8 c=11 v=67
22060 Par ch=8 c=11 v=66
22064 Par ch=8 c=11 v=65
22072 Par ch=8 c=11 v=64
22080 Par ch=8 c=11 v=64
22080 On ch=8 n=47 v=31
22088 Par ch=8 c=11 v=65
22092 Par ch=8 c=11 v=66
22100 Par ch=8 c=11 v=67
22104 Par ch=8 c=11 v=68
22112 Par ch=8 c=11 v=69
22116 Par ch=8 c=11 v=70
22120 Par ch=8 c=11 v=71
22128 Par ch=8 c=11 v=72
22132 Par ch=8 c=11 v=73
22140 Par ch=8 c=11 v=74
22144 Par ch=8 c=11 v=75
22148 Par ch=8 c=11 v=76
22156 Par ch=8 c=11 v=77
22160 Par ch=8 c=11 v=78
22168 Par ch=8 c=11 v=79
22172 Par ch=8 c=11 v=80
22176 Par ch=8 c=11 v=80
22184 Par ch=8 c=11 v=79
22188 Par ch=8 c=11 v=78
22192 Par ch=8 c=11 v=77
22200 Par ch=8 c=11 v=76
22204 Par ch=8 c=11 v=75
22208 Par ch=8 c=11 v=74
22216 Par ch=8 c=11 v=73
22220 Par ch=8 c=11 v=72
22224 Par ch=8 c=11 v=71
22232 Par ch=8 c=11 v=70
22234 On ch=8 n=47 v=0
22236 Par ch=8 c=11 v=69
22240 Par ch=8 c=11 v=68
22248 Par ch=8 c=11 v=67
22252 Par ch=8 c=11 v=66
22256 Par ch=8 c=11 v=65
22264 Par ch=8 c=11 v=64
22272 Par ch=8 c=11 v=64
22272 On ch=8 n=46 v=31
22280 Par ch=8 c=11 v=65
22284 Par ch=8 c=11 v=66
22292 Par ch=8 c=11 v=67
22296 Par ch=8 c=11 v=68
22304 Par ch=8 c=11 v=69
22308 Par ch=8 c=11 v=70
22312 Par ch=8 c=11 v=71
22320 Par ch=8 c=11 v=72
22324 Par ch=8 c=11 v=73
22332 Par ch=8 c=11 v=74
22336 Par ch=8 c=11 v=75
22340 Par ch=8 c=11 v=76
22348 Par ch=8 c=11 v=77
22352 Par ch=8 c=11 v=78
22360 Par ch=8 c=11 v=79
22364 Par ch=8 c=11 v=80
22368 Par ch=8 c=11 v=80
22376 Par ch=8 c=11 v=79
22380 Par ch=8 c=11 v=78
22384 Par ch=8 c=11 v=77
22392 Par ch=8 c=11 v=76
22396 Par ch=8 c=11 v=75
22400 Par ch=8 c=11 v=74
22408 Par ch=8 c=11 v=73
22412 Par ch=8 c=11 v=72
22416 Par ch=8 c=11 v=71
22424 Par ch=8 c=11 v=70
22426 On ch=8 n=46 v=0
22428 Par ch=8 c=11 v=69
22432 Par ch=8 c=11 v=68
22440 Par ch=8 c=11 v=67
22444 Par ch=8 c=11 v=66
22448 Par ch=8 c=11 v=65
22456 Par ch=8 c=11 v=64
22460 Par ch=8 c=11 v=63
22464 Par ch=8 c=11 v=64
22464 On ch=8 n=47 v=31
22468 Par ch=8 c=11 v=65
22472 Par ch=8 c=11 v=66
22476 Par ch=8 c=11 v=67
22480 Par ch=8 c=11 v=69
22484 Par ch=8 c=11 v=70
22488 Par ch=8 c=11 v=71
22492 Par ch=8 c=11 v=73
22496 Par ch=8 c=11 v=74
22500 Par ch=8 c=11 v=75
22504 Par ch=8 c=11 v=77
22508 Par ch=8 c=11 v=78
22512 Par ch=8 c=11 v=79
22516 Par ch=8 c=11 v=81
22520 Par ch=8 c=11 v=82
22524 Par ch=8 c=11 v=83
22528 Par ch=8 c=11 v=85
22532 Par ch=8 c=11 v=86
22536 Par ch=8 c=11 v=87
22540 Par ch=8 c=11 v=88
22544 Par ch=8 c=11 v=90
22548 Par ch=8 c=11 v=91
22552 Par ch=8 c=11 v=92
22556 Par ch=8 c=11 v=94
22560 Par ch=8 c=11 v=95
22564 Par ch=8 c=11 v=96
22568 Par ch=8 c=11 v=98
22572 Par ch=8 c=11 v=99
22576 Par ch=8 c=11 v=100
22580 Par ch=8 c=11 v=102
22584 Par ch=8 c=11 v=103
22588 Par ch=8 c=11 v=104
22592 Par ch=8 c=11 v=106
22596 Par ch=8 c=11 v=107
22600 Par ch=8 c=11 v=108
22604 Par ch=8 c=11 v=109
22608 Par ch=8 c=11 v=111
22612 Par ch=8 c=11 v=112
22616 Par ch=8 c=11 v=113
22618 On ch=8 n=47 v=0
22620 Par ch=8 c=11 v=115
22624 Par ch=8 c=11 v=116
22628 Par ch=8 c=11 v=117
22632 Par ch=8 c=11 v=119
22636 Par ch=8 c=11 v=120
22640 Par ch=8 c=11 v=121
22644 Par ch=8 c=11 v=123
22648 Par ch=8 c=11 v=124
22652 Par ch=8 c=11 v=125
22656 Par ch=8 c=11 v=64
22656 On ch=8 n=46 v=111
23347 On ch=8 n=46 v=0
23424 Par ch=8 c=11 v=64
23424 On ch=8 n=46 v=111
23448 Par ch=8 c=11 v=65
23472 Par ch=8 c=11 v=66
23492 Par ch=8 c=11 v=67
23516 Par ch=8 c=11 v=68
23540 Par ch=8 c=11 v=69
23560 Par ch=8 c=11 v=70
23584 Par ch=8 c=11 v=71
23608 Par ch=8 c=11 v=72
23628 Par ch=8 c=11 v=73
23652 Par ch=8 c=11 v=74
23676 Par ch=8 c=11 v=75
23696 Par ch=8 c=11 v=76
23720 Par ch=8 c=11 v=77
23731 On ch=8 n=46 v=0
23744 Par ch=8 c=11 v=78
23764 Par ch=8 c=11 v=79
23788 Par ch=8 c=11 v=80
23808 Par ch=8 c=11 v=64
23808 On ch=8 n=51 v=127
23846 On ch=8 n=51 v=0
24576 On ch=8 n=51 v=127
24592 On ch=8 n=51 v=0
24600 On ch=8 n=50 v=127
24616 On ch=8 n=50 v=0
24624 On ch=8 n=51 v=127
24640 On ch=8 n=51 v=0
24648 On ch=8 n=53 v=127
24664 On ch=8 n=53 v=0
24672 On ch=8 n=55 v=127
24710 On ch=8 n=55 v=0
24792 On ch=8 n=48 v=127
24808 On ch=8 n=48 v=0
24816 On ch=8 n=50 v=127
24832 On ch=8 n=50 v=0
24840 On ch=8 n=51 v=127
24856 On ch=8 n=51 v=0
24864 On ch=8 n=53 v=127
24880 On ch=8 n=53 v=0
24888 On ch=8 n=55 v=127
24904 On ch=8 n=55 v=0
24912 On ch=8 n=57 v=127
24928 On ch=8 n=57 v=0
24936 On ch=8 n=59 v=127
24952 On ch=8 n=59 v=0
24960 On ch=8 n=60 v=127
24998 On ch=8 n=60 v=0
25032 On ch=8 n=55 v=119
25051 On ch=8 n=55 v=0
25056 On ch=8 n=48 v=111
25094 On ch=8 n=48 v=0
25184 On ch=8 n=47 v=111
25210 On ch=8 n=47 v=0
25216 On ch=8 n=48 v=111
25242 On ch=8 n=48 v=0
25248 On ch=8 n=50 v=111
25274 On ch=8 n=50 v=0
25280 On ch=8 n=48 v=111
25306 On ch=8 n=48 v=0
25312 On ch=8 n=47 v=111
25338 On ch=8 n=47 v=0
25344 Par ch=8 c=11 v=64
25344 On ch=8 n=48 v=111
25352 Par ch=8 c=11 v=63
25360 Par ch=8 c=11 v=62
25368 Par ch=8 c=11 v=61
25370 On ch=8 n=48 v=0
25376 Par ch=8 c=11 v=60
25376 On ch=8 n=47 v=111
25384 Par ch=8 c=11 v=59
25392 Par ch=8 c=11 v=58
25400 Par ch=8 c=11 v=57
25402 On ch=8 n=47 v=0
25408 Par ch=8 c=11 v=56
25408 On ch=8 n=48 v=111
25416 Par ch=8 c=11 v=55
25424 Par ch=8 c=11 v=54
25432 Par ch=8 c=11 v=53
25434 On ch=8 n=48 v=0
25440 Par ch=8 c=11 v=52
25440 On ch=8 n=50 v=111
25448 Par ch=8 c=11 v=51
25456 Par ch=8 c=11 v=50
25464 Par ch=8 c=11 v=49
25466 On ch=8 n=50 v=0
25472 Par ch=8 c=11 v=48
25472 On ch=8 n=48 v=111
25480 Par ch=8 c=11 v=47
25488 Par ch=8 c=11 v=46
25496 Par ch=8 c=11 v=45
25498 On ch=8 n=48 v=0
25504 Par ch=8 c=11 v=44
25504 On ch=8 n=47 v=111
25512 Par ch=8 c=11 v=43
25520 Par ch=8 c=11 v=42
25528 Par ch=8 c=11 v=41
25530 On ch=8 n=47 v=0
25536 Par ch=8 c=11 v=40
25536 On ch=8 n=48 v=111
25540 Par ch=8 c=11 v=39
25548 Par ch=8 c=11 v=38
25556 Par ch=8 c=11 v=37
25562 On ch=8 n=48 v=0
25564 Par ch=8 c=11 v=36
25568 On ch=8 n=47 v=111
25572 Par ch=8 c=11 v=35
25580 Par ch=8 c=11 v=34
25588 Par ch=8 c=11 v=33
25594 On ch=8 n=47 v=0
25596 Par ch=8 c=11 v=32
25600 On ch=8 n=48 v=111
25604 Par ch=8 c=11 v=31
25612 Par ch=8 c=11 v=30
25620 Par ch=8 c=11 v=29
25626 On ch=8 n=48 v=0
25628 Par ch=8 c=11 v=28
25632 On ch=8 n=50 v=111
25636 Par ch=8 c=11 v=27
25644 Par ch=8 c=11 v=26
25652 Par ch=8 c=11 v=25
25658 On ch=8 n=50 v=0
25660 Par ch=8 c=11 v=24
25664 On ch=8 n=48 v=111
25668 Par ch=8 c=11 v=23
25676 Par ch=8 c=11 v=22
25684 Par ch=8 c=11 v=21
25690 On ch=8 n=48 v=0
25692 Par ch=8 c=11 v=20
25696 On ch=8 n=47 v=111
25700 Par ch=8 c=11 v=19
25708 Par ch=8 c=11 v=18
25716 Par ch=8 c=11 v=17
25722 On ch=8 n=47 v=0
25724 Par ch=8 c=11 v=16
25728 On ch=8 n=48 v=111
25754 On ch=8 n=48 v=0
25760 On ch=8 n=47 v=111
25786 On ch=8 n=47 v=0
25792 On ch=8 n=48 v=111
25818 On ch=8 n=48 v=0
25824 On ch=8 n=50 v=111
25850 On ch=8 n=50 v=0
25856 On ch=8 n=48 v=111
25882 On ch=8 n=48 v=0
25888 On ch=8 n=47 v=111
25914 On ch=8 n=47 v=0
25920 On ch=8 n=48 v=111
25946 On ch=8 n=48 v=0
25952 On ch=8 n=47 v=111
25978 On ch=8 n=47 v=0
25984 On ch=8 n=48 v=111
26010 On ch=8 n=48 v=0
26016 On ch=8 n=50 v=111
26042 On ch=8 n=50 v=0
26048 On ch=8 n=48 v=111
26074 On ch=8 n=48 v=0
26080 On ch=8 n=47 v=111
26106 On ch=8 n=47 v=0
26112 On ch=8 n=48 v=111
26138 On ch=8 n=48 v=0
26144 On ch=8 n=47 v=111
26170 On ch=8 n=47 v=0
26176 On ch=8 n=48 v=111
26202 On ch=8 n=48 v=0
26208 On ch=8 n=50 v=111
26234 On ch=8 n=50 v=0
26240 On ch=8 n=48 v=111
26266 On ch=8 n=48 v=0
26272 On ch=8 n=47 v=111
26298 On ch=8 n=47 v=0
26304 On ch=8 n=48 v=111
26330 On ch=8 n=48 v=0
26336 On ch=8 n=47 v=111
26362 On ch=8 n=47 v=0
26368 On ch=8 n=48 v=111
26394 On ch=8 n=48 v=0
26400 On ch=8 n=50 v=111
26426 On ch=8 n=50 v=0
26432 On ch=8 n=48 v=111
26458 On ch=8 n=48 v=0
26464 On ch=8 n=47 v=111
26490 On ch=8 n=47 v=0
26496 Par ch=8 c=11 v=64
26496 On ch=8 n=48 v=95
26522 On ch=8 n=48 v=0
26528 On ch=8 n=47 v=47
26554 On ch=8 n=47 v=0
26560 On ch=8 n=48 v=47
26586 On ch=8 n=48 v=0
26688 On ch=8 n=48 v=95
26714 On ch=8 n=48 v=0
26720 On ch=8 n=47 v=47
26746 On ch=8 n=47 v=0
26752 On ch=8 n=48 v=47
26778 On ch=8 n=48 v=0
26880 On ch=8 n=48 v=95
26906 On ch=8 n=48 v=0
26912 On ch=8 n=47 v=47
26938 On ch=8 n=47 v=0
26944 On ch=8 n=48 v=47
26970 On ch=8 n=48 v=0
27264 On ch=8 n=46 v=95
27290 On ch=8 n=46 v=0
27296 On ch=8 n=45 v=47
27322 On ch=8 n=45 v=0
27328 On ch=8 n=46 v=47
27354 On ch=8 n=46 v=0
27648 On ch=8 n=45 v=47
27725 On ch=8 n=45 v=0
27744 On ch=8 n=46 v=47
27821 On ch=8 n=46 v=0
27840 On ch=8 n=45 v=47
27917 On ch=8 n=45 v=0
27936 On ch=8 n=46 v=47
28013 On ch=8 n=46 v=0
28032 On ch=8 n=45 v=47
28109 On ch=8 n=45 v=0
28128 On ch=8 n=46 v=47
28205 On ch=8 n=46 v=0
28224 On ch=8 n=45 v=47
28301 On ch=8 n=45 v=0
28320 On ch=8 n=46 v=47
28351 On ch=8 n=46 v=0
28368 On ch=8 n=45 v=47
28399 On ch=8 n=45 v=0
28416 On ch=8 n=44 v=47
28454 On ch=8 n=44 v=0
30144 Par ch=8 c=11 v=64
30144 On ch=8 n=44 v=47
30156 Par ch=8 c=11 v=65
30164 Par ch=8 c=11 v=66
30172 Par ch=8 c=11 v=67
30184 Par ch=8 c=11 v=68
30192 Par ch=8 c=11 v=69
30200 Par ch=8 c=11 v=70
30208 Par ch=8 c=11 v=71
30220 Par ch=8 c=11 v=72
30228 Par ch=8 c=11 v=73
30236 Par ch=8 c=11 v=74
30248 Par ch=8 c=11 v=75
30256 Par ch=8 c=11 v=76
30264 Par ch=8 c=11 v=77
30272 Par ch=8 c=11 v=78
30284 Par ch=8 c=11 v=79
30292 Par ch=8 c=11 v=80
30298 On ch=8 n=44 v=0
30300 Par ch=8 c=11 v=81
30312 Par ch=8 c=11 v=82
30320 Par ch=8 c=11 v=83
30328 Par ch=8 c=11 v=84
30336 Par ch=8 c=11 v=85
30336 On ch=8 n=43 v=47
30348 Par ch=8 c=11 v=86
30356 Par ch=8 c=11 v=87
30364 Par ch=8 c=11 v=88
30376 Par ch=8 c=11 v=89
30384 Par ch=8 c=11 v=90
30392 Par ch=8 c=11 v=91
30400 Par ch=8 c=11 v=92
30412 Par ch=8 c=11 v=93
30420 Par ch=8 c=11 v=94
30428 Par ch=8 c=11 v=95
30440 Par ch=8 c=11 v=96
30448 Par ch=8 c=11 v=97
30456 Par ch=8 c=11 v=98
30464 Par ch=8 c=11 v=99
30476 Par ch=8 c=11 v=100
30484 Par ch=8 c=11 v=101
30490 On ch=8 n=43 v=0
30492 Par ch=8 c=11 v=102
30504 Par ch=8 c=11 v=103
30512 Par ch=8 c=11 v=104
30520 Par ch=8 c=11 v=105
30528 Par ch=8 c=11 v=106
30528 On ch=8 n=42 v=47
30540 Par ch=8 c=11 v=107
30548 Par ch=8 c=11 v=108
30556 Par ch=8 c=11 v=109
30568 Par ch=8 c=11 v=110
30576 Par ch=8 c=11 v=111
30584 Par ch=8 c=11 v=112
30592 Par ch=8 c=11 v=113
30604 Par ch=8 c=11 v=114
30612 Par ch=8 c=11 v=115
30620 Par ch=8 c=11 v=116
30632 Par ch=8 c=11 v=117
30640 Par ch=8 c=11 v=118
30648 Par ch=8 c=11 v=119
30656 Par ch=8 c=11 v=120
30668 Par ch=8 c=11 v=121
30676 Par ch=8 c=11 v=122
30682 On ch=8 n=42 v=0
30684 Par ch=8 c=11 v=123
30696 Par ch=8 c=11 v=124
30704 Par ch=8 c=11 v=125
30712 Par ch=8 c=11 v=126
30720 Par ch=8 c=11 v=64
30720 On ch=8 n=67 v=111
30797 On ch=8 n=67 v=0
30816 On ch=8 n=65 v=111
30893 On ch=8 n=65 v=0
30912 On ch=8 n=63 v=111
30989 On ch=8 n=63 v=0
31008 On ch=8 n=62 v=111
31029 On ch=8 n=62 v=0
31040 On ch=8 n=63 v=111
31061 On ch=8 n=63 v=0
31072 On ch=8 n=60 v=111
31093 On ch=8 n=60 v=0
31104 On ch=8 n=65 v=111
31181 On ch=8 n=65 v=0
31200 On ch=8 n=63 v=111
31277 On ch=8 n=63 v=0
31296 On ch=8 n=62 v=111
31373 On ch=8 n=62 v=0
31392 On ch=8 n=60 v=111
31413 On ch=8 n=60 v=0
31424 On ch=8 n=62 v=111
31445 On ch=8 n=62 v=0
31456 On ch=8 n=58 v=111
31477 On ch=8 n=58 v=0
31488 On ch=8 n=65 v=111
31565 On ch=8 n=65 v=0
31584 On ch=8 n=63 v=111
31661 On ch=8 n=63 v=0
31680 On ch=8 n=62 v=111
31757 On ch=8 n=62 v=0
31776 On ch=8 n=60 v=111
31797 On ch=8 n=60 v=0
31808 On ch=8 n=62 v=111
31829 On ch=8 n=62 v=0
31840 On ch=8 n=58 v=111
31861 On ch=8 n=58 v=0
31872 On ch=8 n=63 v=111
31949 On ch=8 n=63 v=0
31968 On ch=8 n=62 v=111
32045 On ch=8 n=62 v=0
32064 On ch=8 n=60 v=111
32141 On ch=8 n=60 v=0
32160 On ch=8 n=58 v=111
32181 On ch=8 n=58 v=0
32192 On ch=8 n=60 v=111
32213 On ch=8 n=60 v=0
32224 On ch=8 n=56 v=111
32245 On ch=8 n=56 v=0
32256 On ch=8 n=63 v=111
32333 On ch=8 n=63 v=0
32352 On ch=8 n=62 v=111
32429 On ch=8 n=62 v=0
32448 On ch=8 n=60 v=111
32525 On ch=8 n=60 v=0
32544 On ch=8 n=58 v=111
32565 On ch=8 n=58 v=0
32576 On ch=8 n=60 v=111
32597 On ch=8 n=60 v=0
32608 On ch=8 n=56 v=111
32629 On ch=8 n=56 v=0
32640 On ch=8 n=63 v=111
32678 On ch=8 n=63 v=0
32712 On ch=8 n=58 v=111
32731 On ch=8 n=58 v=0
32736 On ch=8 n=51 v=111
32774 On ch=8 n=51 v=0
33024 On ch=8 n=63 v=111
33062 On ch=8 n=63 v=0
33096 On ch=8 n=58 v=111
33115 On ch=8 n=58 v=0
33120 On ch=8 n=51 v=111
33158 On ch=8 n=51 v=0
33408 Par ch=8 c=0 v=0
33408 Par ch=8 c=32 v=0
33408 PrCh ch=8 p=44
33408 On ch=8 n=55 v=47
33715 On ch=8 n=55 v=0
33792 Par ch=8 c=11 v=64
33792 On ch=8 n=55 v=47
33800 Par ch=8 c=11 v=65
33808 Par ch=8 c=11 v=66
33812 Par ch=8 c=11 v=67
33820 Par ch=8 c=11 v=68
33824 Par ch=8 c=11 v=69
33832 Par ch=8 c=11 v=70
33836 Par ch=8 c=11 v=71
33844 Par ch=8 c=11 v=72
33848 Par ch=8 c=11 v=73
33856 Par ch=8 c=11 v=74
33860 Par ch=8 c=11 v=75
33868 Par ch=8 c=11 v=76
33869 On ch=8 n=55 v=0
33872 Par ch=8 c=11 v=77
33880 Par ch=8 c=11 v=78
33884 Par ch=8 c=11 v=79
33888 On ch=8 n=56 v=47
33892 Par ch=8 c=11 v=80
33896 Par ch=8 c=11 v=81
33904 Par ch=8 c=11 v=82
33908 Par ch=8 c=11 v=83
33916 Par ch=8 c=11 v=84
33920 Par ch=8 c=11 v=85
33928 Par ch=8 c=11 v=86
33936 Par ch=8 c=11 v=87
33940 Par ch=8 c=11 v=88
33948 Par ch=8 c=11 v=89
33952 Par ch=8 c=11 v=90
33960 Par ch=8 c=11 v=91
33964 Par ch=8 c=11 v=92
33972 Par ch=8 c=11 v=93
33976 Par ch=8 c=11 v=94
33984 Par ch=8 c=11 v=95
33988 Par ch=8 c=11 v=96
33996 Par ch=8 c=11 v=97
34000 Par ch=8 c=11 v=98
34008 Par ch=8 c=11 v=99
34012 Par ch=8 c=11 v=100
34020 Par ch=8 c=11 v=101
34024 Par ch=8 c=11 v=102
34032 Par ch=8 c=11 v=103
34036 Par ch=8 c=11 v=104
34042 On ch=8 n=56 v=0
34044 Par ch=8 c=11 v=105
34048 Par ch=8 c=11 v=106
34056 Par ch=8 c=11 v=107
34064 Par ch=8 c=11 v=108
34068 Par ch=8 c=11 v=109
34076 Par ch=8 c=11 v=110
34080 Par ch=8 c=11 v=111
34080 On ch=8 n=57 v=47
34088 Par ch=8 c=11 v=112
34092 Par ch=8 c=11 v=113
34100 Par ch=8 c=11 v=114
34104 Par ch=8 c=11 v=115
34112 Par ch=8 c=11 v=116
34116 Par ch=8 c=11 v=117
34124 Par ch=8 c=11 v=118
34128 Par ch=8 c=11 v=119
34136 Par ch=8 c=11 v=120
34140 Par ch=8 c=11 v=121
34148 Par ch=8 c=11 v=122
34152 Par ch=8 c=11 v=123
34157 On ch=8 n=57 v=0
34160 Par ch=8 c=11 v=124
34164 Par ch=8 c=11 v=125
34172 Par ch=8 c=11 v=126
34176 Par ch=8 c=11 v=64
34176 Par ch=8 c=0 v=0
34176 Par ch=8 c=32 v=0
34176 PrCh ch=8 p=48
34176 On ch=8 n=50 v=111
34224 Par ch=8 c=11 v=32
34236 Par ch=8 c=11 v=33
34248 Par ch=8 c=11 v=34
34256 Par ch=8 c=11 v=35
34268 Par ch=8 c=11 v=36
34276 Par ch=8 c=11 v=37
34288 Par ch=8 c=11 v=38
34296 Par ch=8 c=11 v=39
34308 Par ch=8 c=11 v=40
34316 Par ch=8 c=11 v=41
34328 Par ch=8 c=11 v=42
34336 Par ch=8 c=11 v=43
34348 Par ch=8 c=11 v=44
34360 Par ch=8 c=11 v=45
34368 Par ch=8 c=11 v=46
34380 Par ch=8 c=11 v=47
34388 Par ch=8 c=11 v=48
34400 Par ch=8 c=11 v=49
34408 Par ch=8 c=11 v=50
34420 Par ch=8 c=11 v=51
34428 Par ch=8 c=11 v=52
34440 Par ch=8 c=11 v=53
34448 Par ch=8 c=11 v=54
34460 Par ch=8 c=11 v=55
34472 Par ch=8 c=11 v=56
34480 Par ch=8 c=11 v=57
34483 On ch=8 n=50 v=0
34492 Par ch=8 c=11 v=58
34500 Par ch=8 c=11 v=59
34512 Par ch=8 c=11 v=60
34520 Par ch=8 c=11 v=61
34532 Par ch=8 c=11 v=62
34540 Par ch=8 c=11 v=63
34552 Par ch=8 c=11 v=64
34560 On ch=8 n=50 v=111
34598 On ch=8 n=50 v=0
34632 On ch=8 n=52 v=111
34651 On ch=8 n=52 v=0
34656 On ch=8 n=54 v=111
34694 On ch=8 n=54 v=0
34728 On ch=8 n=55 v=111
34747 On ch=8 n=55 v=0
34752 On ch=8 n=57 v=111
34790 On ch=8 n=57 v=0
34824 On ch=8 n=58 v=111
34843 On ch=8 n=58 v=0
34848 On ch=8 n=60 v=111
34886 On ch=8 n=60 v=0
34920 On ch=8 n=62 v=111
34939 On ch=8 n=62 v=0
34944 On ch=8 n=50 v=111
34992 Par ch=8 c=11 v=32
35004 Par ch=8 c=11 v=33
35016 Par ch=8 c=11 v=34
35024 Par ch=8 c=11 v=35
35036 Par ch=8 c=11 v=36
35044 Par ch=8 c=11 v=37
35056 Par ch=8 c=11 v=38
35064 Par ch=8 c=11 v=39
35076 Par ch=8 c=11 v=40
35084 Par ch=8 c=11 v=41
35096 Par ch=8 c=11 v=42
35104 Par ch=8 c=11 v=43
35116 Par ch=8 c=11 v=44
35128 Par ch=8 c=11 v=45
35136 Par ch=8 c=11 v=46
35148 Par ch=8 c=11 v=47
35156 Par ch=8 c=11 v=48
35168 Par ch=8 c=11 v=49
35176 Par ch=8 c=11 v=50
35188 Par ch=8 c=11 v=51
35196 Par ch=8 c=11 v=52
35208 Par ch=8 c=11 v=53
35216 Par ch=8 c=11 v=54
35228 Par ch=8 c=11 v=55
35240 Par ch=8 c=11 v=56
35248 Par ch=8 c=11 v=57
35251 On ch=8 n=50 v=0
35260 Par ch=8 c=11 v=58
35268 Par ch=8 c=11 v=59
35280 Par ch=8 c=11 v=60
35288 Par ch=8 c=11 v=61
35300 Par ch=8 c=11 v=62
35308 Par ch=8 c=11 v=63
35320 Par ch=8 c=11 v=64
35328 On ch=8 n=50 v=111
35366 On ch=8 n=50 v=0
35400 On ch=8 n=52 v=111
35419 On ch=8 n=52 v=0
35424 On ch=8 n=54 v=111
35462 On ch=8 n=54 v=0
35496 On ch=8 n=55 v=111
35515 On ch=8 n=55 v=0
35520 On ch=8 n=57 v=111
35558 On ch=8 n=57 v=0
35592 On ch=8 n=58 v=111
35611 On ch=8 n=58 v=0
35616 On ch=8 n=60 v=111
35654 On ch=8 n=60 v=0
35688 On ch=8 n=62 v=111
35707 On ch=8 n=62 v=0
35712 Par ch=8 c=11 v=64
35712 On ch=8 n=50 v=95
35724 Par ch=8 c=11 v=63
35736 Par ch=8 c=11 v=62
35748 Par ch=8 c=11 v=61
35750 On ch=8 n=50 v=0
35760 Par ch=8 c=11 v=60
35772 Par ch=8 c=11 v=59
35780 Par ch=8 c=11 v=58
35784 On ch=8 n=51 v=95
35792 Par ch=8 c=11 v=57
35803 On ch=8 n=51 v=0
35804 Par ch=8 c=11 v=56
35808 On ch=8 n=53 v=95
35816 Par ch=8 c=11 v=55
35828 Par ch=8 c=11 v=54
35840 Par ch=8 c=11 v=53
35846 On ch=8 n=53 v=0
35848 Par ch=8 c=11 v=52
35860 Par ch=8 c=11 v=51
35872 Par ch=8 c=11 v=50
35880 On ch=8 n=55 v=95
35884 Par ch=8 c=11 v=49
35896 Par ch=8 c=11 v=48
35899 On ch=8 n=55 v=0
35904 Par ch=8 c=11 v=48
35904 On ch=8 n=50 v=95
35916 Par ch=8 c=11 v=49
35928 Par ch=8 c=11 v=50
35940 Par ch=8 c=11 v=51
35952 Par ch=8 c=11 v=52
35964 Par ch=8 c=11 v=53
35972 Par ch=8 c=11 v=54
35984 Par ch=8 c=11 v=55
35996 Par ch=8 c=11 v=56
36008 Par ch=8 c=11 v=57
36020 Par ch=8 c=11 v=58
36032 Par ch=8 c=11 v=59
36040 Par ch=8 c=11 v=60
36052 Par ch=8 c=11 v=61
36064 Par ch=8 c=11 v=62
36076 Par ch=8 c=11 v=63
36088 Par ch=8 c=11 v=64
36096 Par ch=8 c=11 v=64
36104 Par ch=8 c=11 v=63
36108 Par ch=8 c=11 v=62
36116 Par ch=8 c=11 v=61
36120 Par ch=8 c=11 v=60
36128 Par ch=8 c=11 v=59
36132 Par ch=8 c=11 v=58
36134 On ch=8 n=50 v=0
36136 Par ch=8 c=11 v=57
36144 Par ch=8 c=11 v=56
36148 Par ch=8 c=11 v=55
36156 Par ch=8 c=11 v=54
36160 Par ch=8 c=11 v=53
36164 Par ch=8 c=11 v=52
36168 On ch=8 n=51 v=95
36172 Par ch=8 c=11 v=51
36176 Par ch=8 c=11 v=50
36184 Par ch=8 c=11 v=49
36187 On ch=8 n=51 v=0
36188 Par ch=8 c=11 v=48
36192 Par ch=8 c=11 v=47
36192 On ch=8 n=53 v=95
36200 Par ch=8 c=11 v=46
36204 Par ch=8 c=11 v=45
36212 Par ch=8 c=11 v=44
36216 Par ch=8 c=11 v=43
36224 Par ch=8 c=11 v=42
36228 Par ch=8 c=11 v=41
36230 On ch=8 n=53 v=0
36232 Par ch=8 c=11 v=40
36240 Par ch=8 c=11 v=39
36244 Par ch=8 c=11 v=38
36252 Par ch=8 c=11 v=37
36256 Par ch=8 c=11 v=36
36260 Par ch=8 c=11 v=35
36264 On ch=8 n=55 v=95
36268 Par ch=8 c=11 v=34
36272 Par ch=8 c=11 v=33
36280 Par ch=8 c=11 v=32
36283 On ch=8 n=55 v=0
36288 Par ch=8 c=11 v=32
36288 On ch=8 n=50 v=95
36300 Par ch=8 c=11 v=33
36312 Par ch=8 c=11 v=34
36320 Par ch=8 c=11 v=35
36332 Par ch=8 c=11 v=36
36344 Par ch=8 c=11 v=37
36352 Par ch=8 c=11 v=38
36364 Par ch=8 c=11 v=39
36376 Par ch=8 c=11 v=40
36384 Par ch=8 c=11 v=41
36396 Par ch=8 c=11 v=42
36408 Par ch=8 c=11 v=43
36416 Par ch=8 c=11 v=44
36428 Par ch=8 c=11 v=45
36440 Par ch=8 c=11 v=46
36448 Par ch=8 c=11 v=47
36460 Par ch=8 c=11 v=48
36518 On ch=8 n=50 v=0
36552 On ch=8 n=49 v=95
36576 On ch=8 n=49 v=0
36576 On ch=8 n=50 v=95
36672 Par ch=8 c=11 v=48
36680 Par ch=8 c=11 v=47
36688 Par ch=8 c=11 v=46
36696 Par ch=8 c=11 v=45
36704 Par ch=8 c=11 v=44
36710 On ch=8 n=50 v=0
36712 Par ch=8 c=11 v=43
36716 Par ch=8 c=11 v=42
36724 Par ch=8 c=11 v=41
36732 Par ch=8 c=11 v=40
36740 Par ch=8 c=11 v=39
36744 On ch=8 n=49 v=95
36748 Par ch=8 c=11 v=38
36752 Par ch=8 c=11 v=37
36760 Par ch=8 c=11 v=36
36763 On ch=8 n=49 v=0
36768 Par ch=8 c=11 v=35
36768 On ch=8 n=50 v=95
36776 Par ch=8 c=11 v=34
36784 Par ch=8 c=11 v=33
36792 Par ch=8 c=11 v=32
36796 Par ch=8 c=11 v=31
36804 Par ch=8 c=11 v=30
36812 Par ch=8 c=11 v=29
36820 Par ch=8 c=11 v=28
36828 Par ch=8 c=11 v=27
36832 Par ch=8 c=11 v=26
36840 Par ch=8 c=11 v=25
36848 Par ch=8 c=11 v=24
36856 Par ch=8 c=11 v=23
36864 Par ch=8 c=11 v=22
36872 Par ch=8 c=11 v=21
36876 Par ch=8 c=11 v=20
36884 Par ch=8 c=11 v=19
36892 Par ch=8 c=11 v=18
36900 Par ch=8 c=11 v=17
36902 On ch=8 n=50 v=0
36908 Par ch=8 c=11 v=16
36936 On ch=8 n=49 v=95
36955 On ch=8 n=49 v=0
36960 On ch=8 n=50 v=95
37094 On ch=8 n=50 v=0
37128 Par ch=8 c=11 v=64
37128 On ch=8 n=49 v=31
37147 On ch=8 n=49 v=0
37152 On ch=8 n=50 v=31
37248 On ch=8 n=50 v=0
37248 On ch=8 n=43 v=31
37325 On ch=8 n=43 v=0
37344 On ch=8 n=42 v=31
37421 On ch=8 n=42 v=0
37440 On ch=8 n=41 v=31
37516 On ch=8 n=41 v=0
37536 On ch=8 n=40 v=31
37557 On ch=8 n=40 v=0
37568 On ch=8 n=39 v=31
37589 On ch=8 n=39 v=0
37600 On ch=8 n=38 v=31
37621 On ch=8 n=38 v=0
37632 On ch=8 n=43 v=31
37709 On ch=8 n=43 v=0
37728 On ch=8 n=42 v=31
37805 On ch=8 n=42 v=0
37824 On ch=8 n=41 v=31
37900 On ch=8 n=41 v=0
37920 On ch=8 n=40 v=31
37941 On ch=8 n=40 v=0
37952 On ch=8 n=39 v=31
37973 On ch=8 n=39 v=0
37984 On ch=8 n=38 v=31
38005 On ch=8 n=38 v=0
38016 On ch=8 n=43 v=31
38093 On ch=8 n=43 v=0
38112 On ch=8 n=42 v=31
38189 On ch=8 n=42 v=0
38208 On ch=8 n=41 v=31
38284 On ch=8 n=41 v=0
38304 On ch=8 n=40 v=31
38325 On ch=8 n=40 v=0
38336 On ch=8 n=39 v=31
38357 On ch=8 n=39 v=0
38368 On ch=8 n=38 v=31
38389 On ch=8 n=38 v=0
38400 On ch=8 n=43 v=31
38477 On ch=8 n=43 v=0
38496 On ch=8 n=42 v=31
38573 On ch=8 n=42 v=0
38592 On ch=8 n=41 v=31
38668 On ch=8 n=41 v=0
38688 On ch=8 n=40 v=31
38709 On ch=8 n=40 v=0
38720 On ch=8 n=39 v=31
38741 On ch=8 n=39 v=0
38752 On ch=8 n=38 v=31
38773 On ch=8 n=38 v=0
38784 On ch=8 n=43 v=31
38861 On ch=8 n=43 v=0
38880 On ch=8 n=42 v=31
38957 On ch=8 n=42 v=0
38976 On ch=8 n=41 v=31
39052 On ch=8 n=41 v=0
39072 On ch=8 n=40 v=31
39093 On ch=8 n=40 v=0
39104 On ch=8 n=39 v=31
39125 On ch=8 n=39 v=0
39136 On ch=8 n=38 v=31
39157 On ch=8 n=38 v=0
39168 On ch=8 n=43 v=31
39245 On ch=8 n=43 v=0
39264 On ch=8 n=42 v=31
39341 On ch=8 n=42 v=0
39360 On ch=8 n=41 v=31
39436 On ch=8 n=41 v=0
39456 On ch=8 n=40 v=31
39477 On ch=8 n=40 v=0
39488 On ch=8 n=39 v=31
39509 On ch=8 n=39 v=0
39520 On ch=8 n=38 v=31
39541 On ch=8 n=38 v=0
39552 On ch=8 n=43 v=31
39629 On ch=8 n=43 v=0
39648 On ch=8 n=42 v=31
39725 On ch=8 n=42 v=0
39744 On ch=8 n=41 v=31
39820 On ch=8 n=41 v=0
39840 On ch=8 n=40 v=31
39861 On ch=8 n=40 v=0
39872 On ch=8 n=39 v=31
39893 On ch=8 n=39 v=0
39904 On ch=8 n=38 v=31
39925 On ch=8 n=38 v=0
39936 On ch=8 n=43 v=31
40013 On ch=8 n=43 v=0
41856 On ch=8 n=43 v=31
41933 On ch=8 n=43 v=0
41952 On ch=8 n=41 v=31
42029 On ch=8 n=41 v=0
42048 On ch=8 n=39 v=31
42125 On ch=8 n=39 v=0
42144 On ch=8 n=38 v=31
42221 On ch=8 n=38 v=0
42240 On ch=8 n=43 v=31
42317 On ch=8 n=43 v=0
42336 On ch=8 n=41 v=31
42413 On ch=8 n=41 v=0
42432 On ch=8 n=39 v=31
42509 On ch=8 n=39 v=0
42528 On ch=8 n=38 v=31
42605 On ch=8 n=38 v=0
42624 On ch=8 n=43 v=31
42701 On ch=8 n=43 v=0
42720 On ch=8 n=41 v=31
42797 On ch=8 n=41 v=0
42816 On ch=8 n=39 v=31
42893 On ch=8 n=39 v=0
42912 On ch=8 n=38 v=31
42989 On ch=8 n=38 v=0
43008 On ch=8 n=43 v=31
43085 On ch=8 n=43 v=0
43104 On ch=8 n=41 v=31
43181 On ch=8 n=41 v=0
43200 On ch=8 n=39 v=31
43277 On ch=8 n=39 v=0
43296 On ch=8 n=38 v=31
43373 On ch=8 n=38 v=0
43392 On ch=8 n=43 v=31
43469 On ch=8 n=43 v=0
43488 On ch=8 n=41 v=31
43565 On ch=8 n=41 v=0
43584 On ch=8 n=39 v=31
43661 On ch=8 n=39 v=0
43680 On ch=8 n=38 v=31
43757 On ch=8 n=38 v=0
43776 Par ch=8 c=11 v=64
43776 On ch=8 n=43 v=31
43800 Par ch=8 c=11 v=63
43824 Par ch=8 c=11 v=62
43844 Par ch=8 c=11 v=61
43853 On ch=8 n=43 v=0
43868 Par ch=8 c=11 v=60
43872 On ch=8 n=41 v=31
43892 Par ch=8 c=11 v=59
43912 Par ch=8 c=11 v=58
43936 Par ch=8 c=11 v=57
43949 On ch=8 n=41 v=0
43960 Par ch=8 c=11 v=56
43968 On ch=8 n=39 v=31
43980 Par ch=8 c=11 v=55
44004 Par ch=8 c=11 v=54
44028 Par ch=8 c=11 v=53
44045 On ch=8 n=39 v=0
44048 Par ch=8 c=11 v=52
44064 On ch=8 n=38 v=31
44072 Par ch=8 c=11 v=51
44096 Par ch=8 c=11 v=50
44116 Par ch=8 c=11 v=49
44140 Par ch=8 c=11 v=48
44141 On ch=8 n=38 v=0
44544 Par ch=8 c=11 v=64
44928 On ch=8 n=43 v=15
46387 On ch=8 n=43 v=0
46464 On ch=8 n=48 v=15
46464 On ch=8 n=43 v=15
46771 On ch=8 n=43 v=0
46771 On ch=8 n=48 v=0
46848 Par ch=8 c=11 v=64
46848 On ch=8 n=40 v=15
46848 On ch=8 n=45 v=15
46872 Par ch=8 c=11 v=63
46896 Par ch=8 c=11 v=62
46916 Par ch=8 c=11 v=61
46940 Par ch=8 c=11 v=60
46964 Par ch=8 c=11 v=59
46984 Par ch=8 c=11 v=58
47008 Par ch=8 c=11 v=57
47032 Par ch=8 c=11 v=56
47052 Par ch=8 c=11 v=55
47076 Par ch=8 c=11 v=54
47100 Par ch=8 c=11 v=53
47120 Par ch=8 c=11 v=52
47144 Par ch=8 c=11 v=51
47155 On ch=8 n=45 v=0
47155 On ch=8 n=40 v=0
47168 Par ch=8 c=11 v=50
47188 Par ch=8 c=11 v=49
47212 Par ch=8 c=11 v=48
47232 Par ch=8 c=11 v=64
47232 On ch=8 n=48 v=15
47232 On ch=8 n=41 v=15
48077 On ch=8 n=48 v=0
48384 Par ch=8 c=11 v=64
48408 Par ch=8 c=11 v=63
48432 Par ch=8 c=11 v=62
48452 Par ch=8 c=11 v=61
48476 Par ch=8 c=11 v=60
48500 Par ch=8 c=11 v=59
48520 Par ch=8 c=11 v=58
48544 Par ch=8 c=11 v=57
48568 Par ch=8 c=11 v=56
48588 Par ch=8 c=11 v=55
48612 Par ch=8 c=11 v=54
48636 Par ch=8 c=11 v=53
48656 Par ch=8 c=11 v=52
48680 Par ch=8 c=11 v=51
48691 On ch=8 n=41 v=0
48704 Par ch=8 c=11 v=50
48724 Par ch=8 c=11 v=49
48748 Par ch=8 c=11 v=48
48768 Par ch=8 c=11 v=64
48768 On ch=8 n=40 v=15
49459 On ch=8 n=40 v=0
49536 On ch=8 n=47 v=15
49536 On ch=8 n=40 v=15
50995 On ch=8 n=40 v=0
50995 On ch=8 n=47 v=0
51072 On ch=8 n=59 v=31
51120 On ch=8 n=59 v=0
51120 On ch=8 n=73 v=31
51168 On ch=8 n=73 v=0
51168 On ch=8 n=71 v=31
51312 On ch=8 n=71 v=0
51312 On ch=8 n=68 v=31
51360 On ch=8 n=68 v=0
51360 On ch=8 n=66 v=31
51408 On ch=8 n=66 v=0
51408 On ch=8 n=63 v=31
51446 On ch=8 n=63 v=0
51456 On ch=8 n=59 v=31
51504 On ch=8 n=59 v=0
51504 On ch=8 n=73 v=31
51552 On ch=8 n=73 v=0
51552 On ch=8 n=71 v=31
51696 On ch=8 n=71 v=0
51696 On ch=8 n=68 v=31
51744 On ch=8 n=68 v=0
51744 On ch=8 n=66 v=31
51792 On ch=8 n=66 v=0
51792 On ch=8 n=63 v=31
51840 On ch=8 n=63 v=0
51840 On ch=8 n=59 v=31
51917 On ch=8 n=59 v=0
53376 On ch=8 n=47 v=15
53376 On ch=8 n=40 v=15
54067 On ch=8 n=40 v=0
54067 On ch=8 n=47 v=0
54912 On ch=8 n=59 v=31
54960 On ch=8 n=59 v=0
54960 On ch=8 n=73 v=31
55008 On ch=8 n=73 v=0
55008 On ch=8 n=71 v=31
55152 On ch=8 n=71 v=0
55152 On ch=8 n=68 v=31
55200 On ch=8 n=68 v=0
55200 On ch=8 n=66 v=31
55248 On ch=8 n=66 v=0
55248 On ch=8 n=63 v=31
55286 On ch=8 n=63 v=0
55296 Par ch=8 c=11 v=64
55296 On ch=8 n=59 v=31
55320 Par ch=8 c=11 v=63
55344 On ch=8 n=59 v=0
55344 Par ch=8 c=11 v=62
55344 On ch=8 n=73 v=31
55364 Par ch=8 c=11 v=61
55388 Par ch=8 c=11 v=60
55392 On ch=8 n=73 v=0
55392 On ch=8 n=71 v=31
55412 Par ch=8 c=11 v=59
55432 Par ch=8 c=11 v=58
55456 Par ch=8 c=11 v=57
55480 Par ch=8 c=11 v=56
55500 Par ch=8 c=11 v=55
55524 Par ch=8 c=11 v=54
55536 On ch=8 n=71 v=0
55536 On ch=8 n=68 v=31
55548 Par ch=8 c=11 v=53
55568 Par ch=8 c=11 v=52
55584 On ch=8 n=68 v=0
55584 On ch=8 n=66 v=31
55592 Par ch=8 c=11 v=51
55616 Par ch=8 c=11 v=50
55632 On ch=8 n=66 v=0
55632 On ch=8 n=63 v=31
55636 Par ch=8 c=11 v=49
55660 Par ch=8 c=11 v=48
55680 On ch=8 n=63 v=0
55680 On ch=8 n=59 v=31
55757 On ch=8 n=59 v=0
56064 Par ch=8 c=11 v=64
56520 On ch=8 n=40 v=31
56544 On ch=8 n=40 v=0
56544 On ch=8 n=42 v=31
56575 On ch=8 n=42 v=0
56616 On ch=8 n=40 v=31
56640 On ch=8 n=40 v=0
56640 On ch=8 n=43 v=31
56671 On ch=8 n=43 v=0
56712 On ch=8 n=40 v=31
56736 On ch=8 n=40 v=0
56736 On ch=8 n=45 v=31
56767 On ch=8 n=45 v=0
56808 On ch=8 n=40 v=31
56832 On ch=8 n=40 v=0
56832 On ch=8 n=43 v=31
56863 On ch=8 n=43 v=0
56904 On ch=8 n=40 v=31
56928 On ch=8 n=40 v=0
56928 On ch=8 n=45 v=31
56959 On ch=8 n=45 v=0
57000 On ch=8 n=40 v=31
57024 On ch=8 n=40 v=0
57024 On ch=8 n=47 v=31
57055 On ch=8 n=47 v=0
57096 On ch=8 n=40 v=31
57120 On ch=8 n=40 v=0
57120 On ch=8 n=48 v=31
57151 On ch=8 n=48 v=0
57192 On ch=8 n=40 v=31
57216 On ch=8 n=40 v=0
57216 On ch=8 n=47 v=31
57247 On ch=8 n=47 v=0
57288 On ch=8 n=40 v=31
57312 On ch=8 n=40 v=0
57312 On ch=8 n=43 v=31
57343 On ch=8 n=43 v=0
57384 On ch=8 n=40 v=31
57408 On ch=8 n=40 v=0
57408 On ch=8 n=43 v=31
57439 On ch=8 n=43 v=0
57480 On ch=8 n=40 v=31
57504 On ch=8 n=40 v=0
57504 On ch=8 n=42 v=31
57528 On ch=8 n=42 v=0
57528 On ch=8 n=40 v=31
57552 On ch=8 n=40 v=0
57552 On ch=8 n=39 v=31
57576 On ch=8 n=39 v=0
57576 On ch=8 n=40 v=31
57600 On ch=8 n=40 v=0
57600 On ch=8 n=43 v=31
57631 On ch=8 n=43 v=0
57672 On ch=8 n=40 v=31
57696 On ch=8 n=40 v=0
57696 On ch=8 n=45 v=31
57727 On ch=8 n=45 v=0
57768 On ch=8 n=40 v=31
57792 On ch=8 n=40 v=0
57792 On ch=8 n=47 v=31
57823 On ch=8 n=47 v=0
57864 On ch=8 n=40 v=31
57888 On ch=8 n=40 v=0
57888 On ch=8 n=48 v=31
57919 On ch=8 n=48 v=0
57960 On ch=8 n=40 v=31
57984 On ch=8 n=40 v=0
57984 On ch=8 n=47 v=31
58015 On ch=8 n=47 v=0
58056 On ch=8 n=55 v=31
58072 On ch=8 n=55 v=0
58080 On ch=8 n=54 v=31
58111 On ch=8 n=54 v=0
58152 On ch=8 n=52 v=31
58168 On ch=8 n=52 v=0
58176 On ch=8 n=51 v=31
58207 On ch=8 n=51 v=0
58248 On ch=8 n=47 v=31
58264 On ch=8 n=47 v=0
58272 On ch=8 n=49 v=31
58303 On ch=8 n=49 v=0
58344 On ch=8 n=51 v=31
58360 On ch=8 n=51 v=0
58368 On ch=8 n=52 v=31
58399 On ch=8 n=52 v=0
58440 On ch=8 n=50 v=31
58456 On ch=8 n=50 v=0
58464 On ch=8 n=48 v=31
58495 On ch=8 n=48 v=0
58536 On ch=8 n=47 v=31
58552 On ch=8 n=47 v=0
58560 On ch=8 n=48 v=31
58591 On ch=8 n=48 v=0
58632 On ch=8 n=47 v=31
58648 On ch=8 n=47 v=0
58656 On ch=8 n=45 v=31
58687 On ch=8 n=45 v=0
58728 On ch=8 n=43 v=31
58744 On ch=8 n=43 v=0
58752 On ch=8 n=41 v=31
58783 On ch=8 n=41 v=0
58824 On ch=8 n=43 v=31
58840 On ch=8 n=43 v=0
58848 On ch=8 n=45 v=31
58879 On ch=8 n=45 v=0
58920 On ch=8 n=47 v=31
58936 On ch=8 n=47 v=0
58944 On ch=8 n=48 v=31
58975 On ch=8 n=48 v=0
59016 On ch=8 n=50 v=31
59032 On ch=8 n=50 v=0
59040 On ch=8 n=52 v=31
59071 On ch=8 n=52 v=0
59112 On ch=8 n=48 v=31
59128 On ch=8 n=48 v=0
59136 On ch=8 n=51 v=31
59174 On ch=8 n=51 v=0
59208 On ch=8 n=52 v=31
59227 On ch=8 n=52 v=0
59232 On ch=8 n=51 v=31
59270 On ch=8 n=51 v=0
59304 On ch=8 n=48 v=31
59323 On ch=8 n=48 v=0
59328 On ch=8 n=47 v=31
59366 On ch=8 n=47 v=0
59400 On ch=8 n=45 v=31
59419 On ch=8 n=45 v=0
59424 On ch=8 n=43 v=31
59462 On ch=8 n=43 v=0
59496 On ch=8 n=42 v=31
59515 On ch=8 n=42 v=0
59520 On ch=8 n=40 v=31
59558 On ch=8 n=40 v=0
59592 On ch=8 n=43 v=31
59611 On ch=8 n=43 v=0
59616 On ch=8 n=42 v=31
59654 On ch=8 n=42 v=0
59688 On ch=8 n=40 v=31
59707 On ch=8 n=40 v=0
59712 On ch=8 n=39 v=31
59750 On ch=8 n=39 v=0
59784 On ch=8 n=47 v=31
59803 On ch=8 n=47 v=0
59808 On ch=8 n=49 v=31
59846 On ch=8 n=49 v=0
59880 On ch=8 n=51 v=31
59899 On ch=8 n=51 v=0
59904 On ch=8 n=52 v=31
59942 On ch=8 n=52 v=0
59976 On ch=8 n=47 v=31
59995 On ch=8 n=47 v=0
60000 On ch=8 n=45 v=31
60038 On ch=8 n=45 v=0
60072 On ch=8 n=43 v=31
60091 On ch=8 n=43 v=0
60096 On ch=8 n=42 v=31
60134 On ch=8 n=42 v=0
60168 On ch=8 n=38 v=31
60187 On ch=8 n=38 v=0
60192 On ch=8 n=40 v=31
60230 On ch=8 n=40 v=0
60264 On ch=8 n=42 v=31
60283 On ch=8 n=42 v=0
60288 On ch=8 n=43 v=31
60326 On ch=8 n=43 v=0
60360 On ch=8 n=45 v=31
60379 On ch=8 n=45 v=0
60384 On ch=8 n=47 v=31
60422 On ch=8 n=47 v=0
60456 On ch=8 n=49 v=31
60475 On ch=8 n=49 v=0
60480 On ch=8 n=51 v=31
60518 On ch=8 n=51 v=0
60552 On ch=8 n=52 v=31
60571 On ch=8 n=52 v=0
60576 On ch=8 n=54 v=31
60614 On ch=8 n=54 v=0
60648 On ch=8 n=56 v=31
60667 On ch=8 n=56 v=0
60672 On ch=8 n=58 v=31
60710 On ch=8 n=58 v=0
60744 On ch=8 n=60 v=31
60763 On ch=8 n=60 v=0
60768 On ch=8 n=59 v=31
60806 On ch=8 n=59 v=0
60840 On ch=8 n=57 v=31
60859 On ch=8 n=57 v=0
60864 On ch=8 n=56 v=31
60902 On ch=8 n=56 v=0
60936 On ch=8 n=52 v=31
60955 On ch=8 n=52 v=0
60960 On ch=8 n=54 v=31
60998 On ch=8 n=54 v=0
61032 On ch=8 n=56 v=31
61051 On ch=8 n=56 v=0
61056 On ch=8 n=57 v=31
61087 On ch=8 n=57 v=0
61128 On ch=8 n=55 v=31
61144 On ch=8 n=55 v=0
61152 On ch=8 n=54 v=31
61183 On ch=8 n=54 v=0
61224 On ch=8 n=52 v=31
61240 On ch=8 n=52 v=0
61248 On ch=8 n=51 v=31
61279 On ch=8 n=51 v=0
61320 On ch=8 n=48 v=31
61336 On ch=8 n=48 v=0
61344 On ch=8 n=47 v=31
61375 On ch=8 n=47 v=0
61416 On ch=8 n=45 v=31
61432 On ch=8 n=45 v=0
61440 On ch=8 n=43 v=31
61471 On ch=8 n=43 v=0
61512 On ch=8 n=40 v=31
61536 On ch=8 n=40 v=0
61536 On ch=8 n=42 v=31
61567 On ch=8 n=42 v=0
61608 On ch=8 n=40 v=31
61632 On ch=8 n=40 v=0
61632 On ch=8 n=43 v=31
61663 On ch=8 n=43 v=0
61704 On ch=8 n=40 v=31
61728 On ch=8 n=40 v=0
61728 On ch=8 n=45 v=31
61759 On ch=8 n=45 v=0
61800 On ch=8 n=40 v=31
61824 On ch=8 n=40 v=0
61824 On ch=8 n=47 v=31
61855 On ch=8 n=47 v=0
61896 On ch=8 n=43 v=31
61920 On ch=8 n=43 v=0
61920 On ch=8 n=47 v=31
61951 On ch=8 n=47 v=0
61992 On ch=8 n=43 v=31
62016 On ch=8 n=43 v=0
62016 On ch=8 n=47 v=31
62047 On ch=8 n=47 v=0
62088 On ch=8 n=43 v=31
62112 On ch=8 n=43 v=0
62112 On ch=8 n=45 v=31
62136 On ch=8 n=45 v=0
62136 On ch=8 n=43 v=31
62160 On ch=8 n=43 v=0
62160 On ch=8 n=42 v=31
62184 On ch=8 n=42 v=0
62184 On ch=8 n=43 v=31
62208 On ch=8 n=43 v=0
62208 On ch=8 n=45 v=31
62239 On ch=8 n=45 v=0
62280 On ch=8 n=45 v=31
62304 On ch=8 n=45 v=0
62304 On ch=8 n=47 v=31
62335 On ch=8 n=47 v=0
62376 On ch=8 n=45 v=31
62400 On ch=8 n=45 v=0
62400 On ch=8 n=48 v=31
62431 On ch=8 n=48 v=0
62472 On ch=8 n=45 v=31
62496 On ch=8 n=45 v=0
62496 On ch=8 n=50 v=31
62527 On ch=8 n=50 v=0
62568 On ch=8 n=45 v=31
62592 On ch=8 n=45 v=0
62592 On ch=8 n=48 v=31
62623 On ch=8 n=48 v=0
62664 On ch=8 n=45 v=31
62688 On ch=8 n=45 v=0
62688 On ch=8 n=48 v=31
62719 On ch=8 n=48 v=0
62760 On ch=8 n=45 v=31
62784 On ch=8 n=45 v=0
62784 On ch=8 n=48 v=31
62815 On ch=8 n=48 v=0
62856 On ch=8 n=45 v=31
62880 On ch=8 n=45 v=0
62880 On ch=8 n=47 v=31
62904 On ch=8 n=47 v=0
62904 On ch=8 n=45 v=31
62928 On ch=8 n=45 v=0
62928 On ch=8 n=44 v=31
62952 On ch=8 n=44 v=0
62952 On ch=8 n=45 v=31
62976 On ch=8 n=45 v=0
62976 On ch=8 n=47 v=31
62997 On ch=8 n=47 v=0
63008 On ch=8 n=48 v=31
63029 On ch=8 n=48 v=0
63040 On ch=8 n=50 v=31
63061 On ch=8 n=50 v=0
63072 On ch=8 n=47 v=31
63093 On ch=8 n=47 v=0
63104 On ch=8 n=48 v=31
63125 On ch=8 n=48 v=0
63136 On ch=8 n=50 v=31
63157 On ch=8 n=50 v=0
63168 On ch=8 n=47 v=31
63189 On ch=8 n=47 v=0
63200 On ch=8 n=48 v=31
63221 On ch=8 n=48 v=0
63232 On ch=8 n=50 v=31
63253 On ch=8 n=50 v=0
63264 On ch=8 n=47 v=31
63285 On ch=8 n=47 v=0
63296 On ch=8 n=48 v=31
63317 On ch=8 n=48 v=0
63328 On ch=8 n=50 v=31
63349 On ch=8 n=50 v=0
63360 On ch=8 n=47 v=31
63381 On ch=8 n=47 v=0
63392 On ch=8 n=48 v=31
63413 On ch=8 n=48 v=0
63424 On ch=8 n=50 v=31
63445 On ch=8 n=50 v=0
63456 On ch=8 n=47 v=31
63477 On ch=8 n=47 v=0
63488 On ch=8 n=48 v=31
63509 On ch=8 n=48 v=0
63520 On ch=8 n=50 v=31
63541 On ch=8 n=50 v=0
63552 On ch=8 n=47 v=31
63573 On ch=8 n=47 v=0
63584 On ch=8 n=48 v=31
63605 On ch=8 n=48 v=0
63616 On ch=8 n=50 v=31
63637 On ch=8 n=50 v=0
63648 On ch=8 n=53 v=31
63672 On ch=8 n=53 v=0
63672 On ch=8 n=52 v=31
63696 On ch=8 n=52 v=0
63696 On ch=8 n=50 v=31
63720 On ch=8 n=50 v=0
63720 On ch=8 n=48 v=31
63739 On ch=8 n=48 v=0
63744 Par ch=8 c=11 v=64
63744 On ch=8 n=49 v=31
63764 Par ch=8 c=11 v=65
63770 On ch=8 n=49 v=0
63776 On ch=8 n=50 v=31
63784 Par ch=8 c=11 v=66
63800 Par ch=8 c=11 v=67
63802 On ch=8 n=50 v=0
63808 On ch=8 n=52 v=31
63820 Par ch=8 c=11 v=68
63834 On ch=8 n=52 v=0
63836 Par ch=8 c=11 v=69
63840 On ch=8 n=49 v=31
63856 Par ch=8 c=11 v=70
63866 On ch=8 n=49 v=0
63872 Par ch=8 c=11 v=71
63872 On ch=8 n=50 v=31
63892 Par ch=8 c=11 v=72
63898 On ch=8 n=50 v=0
63904 On ch=8 n=52 v=31
63912 Par ch=8 c=11 v=73
63928 Par ch=8 c=11 v=74
63930 On ch=8 n=52 v=0
63936 On ch=8 n=49 v=31
63948 Par ch=8 c=11 v=75
63962 On ch=8 n=49 v=0
63964 Par ch=8 c=11 v=76
63968 On ch=8 n=50 v=31
63984 Par ch=8 c=11 v=77
63994 On ch=8 n=50 v=0
64000 Par ch=8 c=11 v=78
64000 On ch=8 n=52 v=31
64020 Par ch=8 c=11 v=79
64026 On ch=8 n=52 v=0
64032 On ch=8 n=55 v=31
64040 Par ch=8 c=11 v=80
64056 On ch=8 n=55 v=0
64056 Par ch=8 c=11 v=81
64056 On ch=8 n=54 v=31
64076 Par ch=8 c=11 v=82
64080 On ch=8 n=54 v=0
64080 On ch=8 n=52 v=31
64092 Par ch=8 c=11 v=83
64104 On ch=8 n=52 v=0
64104 On ch=8 n=51 v=31
64112 Par ch=8 c=11 v=84
64123 On ch=8 n=51 v=0
64128 Par ch=8 c=11 v=85
64128 On ch=8 n=52 v=31
64148 Par ch=8 c=11 v=86
64154 On ch=8 n=52 v=0
64160 On ch=8 n=54 v=31
64168 Par ch=8 c=11 v=87
64184 Par ch=8 c=11 v=88
64186 On ch=8 n=54 v=0
64192 On ch=8 n=55 v=31
64204 Par ch=8 c=11 v=89
64218 On ch=8 n=55 v=0
64220 Par ch=8 c=11 v=90
64224 On ch=8 n=55 v=31
64240 Par ch=8 c=11 v=91
64250 On ch=8 n=55 v=0
64256 Par ch=8 c=11 v=92
64256 On ch=8 n=57 v=31
64276 Par ch=8 c=11 v=93
64282 On ch=8 n=57 v=0
64288 On ch=8 n=59 v=31
64296 Par ch=8 c=11 v=94
64312 Par ch=8 c=11 v=95
64314 On ch=8 n=59 v=0
64320 On ch=8 n=54 v=31
64332 Par ch=8 c=11 v=96
64346 On ch=8 n=54 v=0
64348 Par ch=8 c=11 v=97
64352 On ch=8 n=55 v=31
64368 Par ch=8 c=11 v=98
64378 On ch=8 n=55 v=0
64384 Par ch=8 c=11 v=99
64384 On ch=8 n=57 v=31
64404 Par ch=8 c=11 v=100
64410 On ch=8 n=57 v=0
64416 On ch=8 n=55 v=31
64424 Par ch=8 c=11 v=101
64440 Par ch=8 c=11 v=102
64442 On ch=8 n=55 v=0
64448 On ch=8 n=57 v=31
64460 Par ch=8 c=11 v=103
64474 On ch=8 n=57 v=0
64476 Par ch=8 c=11 v=104
64480 On ch=8 n=59 v=31
64496 Par ch=8 c=11 v=105
64506 On ch=8 n=59 v=0
64512 Par ch=8 c=11 v=106
64512 On ch=8 n=57 v=31
64532 Par ch=8 c=11 v=107
64538 On ch=8 n=57 v=0
64544 On ch=8 n=56 v=31
64552 Par ch=8 c=11 v=108
64568 Par ch=8 c=11 v=109
64570 On ch=8 n=56 v=0
64576 On ch=8 n=57 v=31
64588 Par ch=8 c=11 v=110
64602 On ch=8 n=57 v=0
64604 Par ch=8 c=11 v=111
64608 On ch=8 n=69 v=31
64624 Par ch=8 c=11 v=112
64634 On ch=8 n=69 v=0
64640 Par ch=8 c=11 v=113
64640 On ch=8 n=67 v=31
64660 Par ch=8 c=11 v=114
64666 On ch=8 n=67 v=0
64672 On ch=8 n=66 v=31
64680 Par ch=8 c=11 v=115
64696 Par ch=8 c=11 v=116
64698 On ch=8 n=66 v=0
64704 On ch=8 n=64 v=31
64716 Par ch=8 c=11 v=117
64730 On ch=8 n=64 v=0
64732 Par ch=8 c=11 v=118
64736 On ch=8 n=63 v=31
64752 Par ch=8 c=11 v=119
64762 On ch=8 n=63 v=0
64768 Par ch=8 c=11 v=120
64768 On ch=8 n=61 v=31
64788 Par ch=8 c=11 v=121
64794 On ch=8 n=61 v=0
64800 On ch=8 n=59 v=31
64808 Par ch=8 c=11 v=122
64824 Par ch=8 c=11 v=123
64826 On ch=8 n=59 v=0
64832 On ch=8 n=57 v=31
64844 Par ch=8 c=11 v=124
64858 On ch=8 n=57 v=0
64860 Par ch=8 c=11 v=125
64864 On ch=8 n=54 v=31
64880 Par ch=8 c=11 v=126
64890 On ch=8 n=54 v=0
64896 Par ch=8 c=11 v=64
64896 On ch=8 n=52 v=95
64922 On ch=8 n=52 v=0
64928 On ch=8 n=54 v=95
64954 On ch=8 n=54 v=0
64960 On ch=8 n=52 v=95
64986 On ch=8 n=52 v=0
64992 On ch=8 n=51 v=95
65018 On ch=8 n=51 v=0
65024 On ch=8 n=49 v=95
65050 On ch=8 n=49 v=0
65056 On ch=8 n=51 v=95
65082 On ch=8 n=51 v=0
65088 On ch=8 n=52 v=95
65114 On ch=8 n=52 v=0
65120 On ch=8 n=51 v=95
65146 On ch=8 n=51 v=0
65152 On ch=8 n=52 v=95
65178 On ch=8 n=52 v=0
65184 On ch=8 n=54 v=95
65210 On ch=8 n=54 v=0
65216 On ch=8 n=52 v=95
65242 On ch=8 n=52 v=0
65248 On ch=8 n=54 v=95
65274 On ch=8 n=54 v=0
65280 On ch=8 n=55 v=95
65306 On ch=8 n=55 v=0
65312 On ch=8 n=54 v=95
65338 On ch=8 n=54 v=0
65344 On ch=8 n=55 v=95
65370 On ch=8 n=55 v=0
65376 On ch=8 n=60 v=95
65402 On ch=8 n=60 v=0
65408 On ch=8 n=59 v=95
65434 On ch=8 n=59 v=0
65440 On ch=8 n=57 v=95
65466 On ch=8 n=57 v=0
65472 On ch=8 n=55 v=95
65498 On ch=8 n=55 v=0
65504 On ch=8 n=54 v=95
65530 On ch=8 n=54 v=0
65536 On ch=8 n=52 v=95
65562 On ch=8 n=52 v=0
65568 On ch=8 n=50 v=95
65594 On ch=8 n=50 v=0
65600 On ch=8 n=48 v=95
65626 On ch=8 n=48 v=0
65632 On ch=8 n=47 v=95
65658 On ch=8 n=47 v=0
65664 Par ch=8 c=11 v=64
65664 On ch=8 n=45 v=47
65672 Par ch=8 c=11 v=65
65680 Par ch=8 c=11 v=66
65684 Par ch=8 c=11 v=67
65692 Par ch=8 c=11 v=68
65696 Par ch=8 c=11 v=69
65702 On ch=8 n=45 v=0
65704 Par ch=8 c=11 v=70
65708 Par ch=8 c=11 v=71
65712 On ch=8 n=47 v=47
65716 Par ch=8 c=11 v=72
65720 Par ch=8 c=11 v=73
65728 Par ch=8 c=11 v=74
65732 Par ch=8 c=11 v=75
65740 Par ch=8 c=11 v=76
65744 Par ch=8 c=11 v=77
65750 On ch=8 n=47 v=0
65752 Par ch=8 c=11 v=78
65756 Par ch=8 c=11 v=79
65760 On ch=8 n=48 v=47
65764 Par ch=8 c=11 v=80
65768 Par ch=8 c=11 v=81
65776 Par ch=8 c=11 v=82
65780 Par ch=8 c=11 v=83
65788 Par ch=8 c=11 v=84
65792 Par ch=8 c=11 v=85
65798 On ch=8 n=48 v=0
65800 Par ch=8 c=11 v=86
65808 Par ch=8 c=11 v=87
65808 On ch=8 n=50 v=47
65812 Par ch=8 c=11 v=88
65820 Par ch=8 c=11 v=89
65824 Par ch=8 c=11 v=90
65832 Par ch=8 c=11 v=91
65836 Par ch=8 c=11 v=92
65844 Par ch=8 c=11 v=93
65846 On ch=8 n=50 v=0
65848 Par ch=8 c=11 v=94
65856 Par ch=8 c=11 v=95
65856 On ch=8 n=52 v=47
65860 Par ch=8 c=11 v=96
65868 Par ch=8 c=11 v=97
65872 Par ch=8 c=11 v=98
65880 Par ch=8 c=11 v=99
65884 Par ch=8 c=11 v=100
65892 Par ch=8 c=11 v=101
65894 On ch=8 n=52 v=0
65896 Par ch=8 c=11 v=102
65904 Par ch=8 c=11 v=103
65904 On ch=8 n=54 v=47
65908 Par ch=8 c=11 v=104
65916 Par ch=8 c=11 v=105
65920 Par ch=8 c=11 v=106
65928 Par ch=8 c=11 v=107
65936 Par ch=8 c=11 v=108
65940 Par ch=8 c=11 v=109
65942 On ch=8 n=54 v=0
65948 Par ch=8 c=11 v=110
65952 Par ch=8 c=11 v=111
65952 On ch=8 n=56 v=47
65960 Par ch=8 c=11 v=112
65964 Par ch=8 c=11 v=113
65972 Par ch=8 c=11 v=114
65976 Par ch=8 c=11 v=115
65984 Par ch=8 c=11 v=116
65988 Par ch=8 c=11 v=117
65990 On ch=8 n=56 v=0
65996 Par ch=8 c=11 v=118
66000 Par ch=8 c=11 v=119
66000 On ch=8 n=52 v=47
66008 Par ch=8 c=11 v=120
66012 Par ch=8 c=11 v=121
66020 Par ch=8 c=11 v=122
66024 Par ch=8 c=11 v=123
66032 Par ch=8 c=11 v=124
66036 Par ch=8 c=11 v=125
66038 On ch=8 n=52 v=0
66044 Par ch=8 c=11 v=126
66048 Par ch=8 c=11 v=126
66048 On ch=8 n=57 v=47
66056 Par ch=8 c=11 v=125
66060 Par ch=8 c=11 v=124
66068 Par ch=8 c=11 v=123
66072 Par ch=8 c=11 v=122
66080 Par ch=8 c=11 v=121
66084 Par ch=8 c=11 v=120
66086 On ch=8 n=57 v=0
66092 Par ch=8 c=11 v=119
66096 Par ch=8 c=11 v=118
66096 On ch=8 n=55 v=47
66104 Par ch=8 c=11 v=117
66108 Par ch=8 c=11 v=116
66116 Par ch=8 c=11 v=115
66120 Par ch=8 c=11 v=114
66128 Par ch=8 c=11 v=113
66132 Par ch=8 c=11 v=112
66134 On ch=8 n=55 v=0
66140 Par ch=8 c=11 v=111
66144 Par ch=8 c=11 v=110
66144 On ch=8 n=53 v=47
66152 Par ch=8 c=11 v=109
66156 Par ch=8 c=11 v=108
66164 Par ch=8 c=11 v=107
66168 Par ch=8 c=11 v=106
66176 Par ch=8 c=11 v=105
66180 Par ch=8 c=11 v=104
66182 On ch=8 n=53 v=0
66188 Par ch=8 c=11 v=103
66192 Par ch=8 c=11 v=102
66192 On ch=8 n=52 v=47
66200 Par ch=8 c=11 v=101
66204 Par ch=8 c=11 v=100
66212 Par ch=8 c=11 v=99
66216 Par ch=8 c=11 v=98
66224 Par ch=8 c=11 v=97
66228 Par ch=8 c=11 v=96
66230 On ch=8 n=52 v=0
66236 Par ch=8 c=11 v=95
66240 Par ch=8 c=11 v=94
66240 On ch=8 n=50 v=47
66248 Par ch=8 c=11 v=93
66252 Par ch=8 c=11 v=92
66260 Par ch=8 c=11 v=91
66264 Par ch=8 c=11 v=90
66272 Par ch=8 c=11 v=89
66276 Par ch=8 c=11 v=88
66278 On ch=8 n=50 v=0
66284 Par ch=8 c=11 v=87
66288 Par ch=8 c=11 v=86
66288 On ch=8 n=48 v=47
66296 Par ch=8 c=11 v=85
66300 Par ch=8 c=11 v=84
66308 Par ch=8 c=11 v=83
66312 Par ch=8 c=11 v=82
66320 Par ch=8 c=11 v=81
66324 Par ch=8 c=11 v=80
66326 On ch=8 n=48 v=0
66332 Par ch=8 c=11 v=79
66336 Par ch=8 c=11 v=78
66336 On ch=8 n=47 v=47
66344 Par ch=8 c=11 v=77
66348 Par ch=8 c=11 v=76
66356 Par ch=8 c=11 v=75
66360 Par ch=8 c=11 v=74
66368 Par ch=8 c=11 v=73
66372 Par ch=8 c=11 v=72
66374 On ch=8 n=47 v=0
66380 Par ch=8 c=11 v=71
66384 Par ch=8 c=11 v=70
66384 On ch=8 n=45 v=47
66392 Par ch=8 c=11 v=69
66396 Par ch=8 c=11 v=68
66404 Par ch=8 c=11 v=67
66408 Par ch=8 c=11 v=66
66416 Par ch=8 c=11 v=65
66420 Par ch=8 c=11 v=64
66422 On ch=8 n=45 v=0
66432 Par ch=8 c=11 v=64
66432 On ch=8 n=41 v=47
66440 Par ch=8 c=11 v=65
66448 Par ch=8 c=11 v=66
66452 Par ch=8 c=11 v=67
66460 Par ch=8 c=11 v=68
66464 Par ch=8 c=11 v=69
66470 On ch=8 n=41 v=0
66472 Par ch=8 c=11 v=70
66476 Par ch=8 c=11 v=71
66480 On ch=8 n=43 v=47
66484 Par ch=8 c=11 v=72
66488 Par ch=8 c=11 v=73
66496 Par ch=8 c=11 v=74
66500 Par ch=8 c=11 v=75
66508 Par ch=8 c=11 v=76
66512 Par ch=8 c=11 v=77
66518 On ch=8 n=43 v=0
66520 Par ch=8 c=11 v=78
66524 Par ch=8 c=11 v=79
66528 On ch=8 n=45 v=47
66532 Par ch=8 c=11 v=80
66536 Par ch=8 c=11 v=81
66544 Par ch=8 c=11 v=82
66548 Par ch=8 c=11 v=83
66556 Par ch=8 c=11 v=84
66560 Par ch=8 c=11 v=85
66566 On ch=8 n=45 v=0
66568 Par ch=8 c=11 v=86
66576 Par ch=8 c=11 v=87
66576 On ch=8 n=46 v=47
66580 Par ch=8 c=11 v=88
66588 Par ch=8 c=11 v=89
66592 Par ch=8 c=11 v=90
66600 Par ch=8 c=11 v=91
66604 Par ch=8 c=11 v=92
66612 Par ch=8 c=11 v=93
66614 On ch=8 n=46 v=0
66616 Par ch=8 c=11 v=94
66624 Par ch=8 c=11 v=95
66624 On ch=8 n=48 v=47
66628 Par ch=8 c=11 v=96
66636 Par ch=8 c=11 v=97
66640 Par ch=8 c=11 v=98
66648 Par ch=8 c=11 v=99
66652 Par ch=8 c=11 v=100
66660 Par ch=8 c=11 v=101
66662 On ch=8 n=48 v=0
66664 Par ch=8 c=11 v=102
66672 Par ch=8 c=11 v=103
66672 On ch=8 n=50 v=47
66676 Par ch=8 c=11 v=104
66684 Par ch=8 c=11 v=105
66688 Par ch=8 c=11 v=106
66696 Par ch=8 c=11 v=107
66704 Par ch=8 c=11 v=108
66708 Par ch=8 c=11 v=109
66710 On ch=8 n=50 v=0
66716 Par ch=8 c=11 v=110
66720 Par ch=8 c=11 v=111
66720 On ch=8 n=52 v=47
66728 Par ch=8 c=11 v=112
66732 Par ch=8 c=11 v=113
66740 Par ch=8 c=11 v=114
66744 Par ch=8 c=11 v=115
66752 Par ch=8 c=11 v=116
66756 Par ch=8 c=11 v=117
66758 On ch=8 n=52 v=0
66764 Par ch=8 c=11 v=118
66768 Par ch=8 c=11 v=119
66768 On ch=8 n=48 v=47
66776 Par ch=8 c=11 v=120
66780 Par ch=8 c=11 v=121
66788 Par ch=8 c=11 v=122
66792 Par ch=8 c=11 v=123
66800 Par ch=8 c=11 v=124
66804 Par ch=8 c=11 v=125
66806 On ch=8 n=48 v=0
66812 Par ch=8 c=11 v=126
66816 Par ch=8 c=11 v=126
66816 On ch=8 n=53 v=47
66824 Par ch=8 c=11 v=125
66828 Par ch=8 c=11 v=124
66832 Par ch=8 c=11 v=123
66836 Par ch=8 c=11 v=122
66840 Par ch=8 c=11 v=121
66844 Par ch=8 c=11 v=120
66852 Par ch=8 c=11 v=119
66854 On ch=8 n=53 v=0
66856 Par ch=8 c=11 v=118
66860 Par ch=8 c=11 v=117
66864 Par ch=8 c=11 v=116
66864 On ch=8 n=52 v=47
66868 Par ch=8 c=11 v=115
66872 Par ch=8 c=11 v=114
66880 Par ch=8 c=11 v=113
66884 Par ch=8 c=11 v=112
66888 Par ch=8 c=11 v=111
66892 Par ch=8 c=11 v=110
66896 Par ch=8 c=11 v=109
66900 Par ch=8 c=11 v=108
66902 On ch=8 n=52 v=0
66908 Par ch=8 c=11 v=107
66912 Par ch=8 c=11 v=106
66912 On ch=8 n=50 v=47
66916 Par ch=8 c=11 v=105
66920 Par ch=8 c=11 v=104
66924 Par ch=8 c=11 v=103
66928 Par ch=8 c=11 v=102
66936 Par ch=8 c=11 v=101
66940 Par ch=8 c=11 v=100
66944 Par ch=8 c=11 v=99
66948 Par ch=8 c=11 v=98
66950 On ch=8 n=50 v=0
66952 Par ch=8 c=11 v=97
66956 Par ch=8 c=11 v=96
66960 Par ch=8 c=11 v=95
66960 On ch=8 n=48 v=47
66968 Par ch=8 c=11 v=94
66972 Par ch=8 c=11 v=93
66976 Par ch=8 c=11 v=92
66980 Par ch=8 c=11 v=91
66984 Par ch=8 c=11 v=90
66988 Par ch=8 c=11 v=89
66996 Par ch=8 c=11 v=88
66998 On ch=8 n=48 v=0
67000 Par ch=8 c=11 v=87
67004 Par ch=8 c=11 v=86
67008 Par ch=8 c=11 v=85
67008 On ch=8 n=46 v=47
67012 Par ch=8 c=11 v=84
67016 Par ch=8 c=11 v=83
67024 Par ch=8 c=11 v=82
67028 Par ch=8 c=11 v=81
67032 Par ch=8 c=11 v=80
67036 Par ch=8 c=11 v=79
67040 Par ch=8 c=11 v=78
67044 Par ch=8 c=11 v=77
67046 On ch=8 n=46 v=0
67052 Par ch=8 c=11 v=76
67056 Par ch=8 c=11 v=75
67056 On ch=8 n=45 v=47
67060 Par ch=8 c=11 v=74
67064 Par ch=8 c=11 v=73
67068 Par ch=8 c=11 v=72
67072 Par ch=8 c=11 v=71
67080 Par ch=8 c=11 v=70
67084 Par ch=8 c=11 v=69
67088 Par ch=8 c=11 v=68
67092 Par ch=8 c=11 v=67
67094 On ch=8 n=45 v=0
67096 Par ch=8 c=11 v=66
67100 Par ch=8 c=11 v=65
67104 Par ch=8 c=11 v=64
67104 On ch=8 n=43 v=47
67142 On ch=8 n=43 v=0
67152 On ch=8 n=41 v=47
67190 On ch=8 n=41 v=0
67200 On ch=8 n=62 v=111
67226 On ch=8 n=62 v=0
67232 On ch=8 n=61 v=111
67258 On ch=8 n=61 v=0
67264 On ch=8 n=59 v=111
67290 On ch=8 n=59 v=0
67296 On ch=8 n=57 v=111
67322 On ch=8 n=57 v=0
67328 On ch=8 n=55 v=111
67354 On ch=8 n=55 v=0
67360 On ch=8 n=54 v=111
67386 On ch=8 n=54 v=0
67392 On ch=8 n=52 v=111
67418 On ch=8 n=52 v=0
67424 On ch=8 n=50 v=111
67450 On ch=8 n=50 v=0
67456 On ch=8 n=48 v=111
67482 On ch=8 n=48 v=0
67488 On ch=8 n=46 v=111
67514 On ch=8 n=46 v=0
67520 On ch=8 n=45 v=111
67546 On ch=8 n=45 v=0
67552 On ch=8 n=43 v=111
67578 On ch=8 n=43 v=0
67584 On ch=8 n=42 v=111
67622 On ch=8 n=42 v=0
67776 On ch=8 n=46 v=111
67814 On ch=8 n=46 v=0
67872 On ch=8 n=45 v=111
67910 On ch=8 n=45 v=0
67968 On ch=8 n=50 v=111
68006 On ch=8 n=50 v=0
68064 On ch=8 n=42 v=111
68102 On ch=8 n=42 v=0
68160 On ch=8 n=46 v=111
68198 On ch=8 n=46 v=0
68256 On ch=8 n=45 v=111
68294 On ch=8 n=45 v=0
68352 On ch=8 n=50 v=111
68390 On ch=8 n=50 v=0
68544 On ch=8 n=62 v=111
68582 On ch=8 n=62 v=0
68736 On ch=8 n=61 v=95
68813 On ch=8 n=61 v=0
68832 On ch=8 n=60 v=95
68909 On ch=8 n=60 v=0
68928 On ch=8 n=59 v=95
69005 On ch=8 n=59 v=0
69024 On ch=8 n=58 v=95
69050 On ch=8 n=58 v=0
69056 On ch=8 n=57 v=95
69082 On ch=8 n=57 v=0
69088 On ch=8 n=56 v=95
69114 On ch=8 n=56 v=0
69120 On ch=8 n=59 v=95
69197 On ch=8 n=59 v=0
69216 On ch=8 n=58 v=95
69293 On ch=8 n=58 v=0
69312 On ch=8 n=57 v=95
69389 On ch=8 n=57 v=0
69408 On ch=8 n=56 v=95
69434 On ch=8 n=56 v=0
69440 On ch=8 n=54 v=95
69466 On ch=8 n=54 v=0
69472 On ch=8 n=52 v=95
69498 On ch=8 n=52 v=0
69504 On ch=8 n=59 v=95
69581 On ch=8 n=59 v=0
69600 On ch=8 n=58 v=95
69677 On ch=8 n=58 v=0
69696 On ch=8 n=57 v=95
69773 On ch=8 n=57 v=0
69792 On ch=8 n=56 v=95
69818 On ch=8 n=56 v=0
69824 On ch=8 n=54 v=95
69850 On ch=8 n=54 v=0
69856 On ch=8 n=52 v=95
69882 On ch=8 n=52 v=0
69888 On ch=8 n=57 v=95
69965 On ch=8 n=57 v=0
69984 On ch=8 n=56 v=95
70061 On ch=8 n=56 v=0
70080 On ch=8 n=54 v=95
70157 On ch=8 n=54 v=0
70176 On ch=8 n=52 v=95
70202 On ch=8 n=52 v=0
70208 On ch=8 n=51 v=95
70234 On ch=8 n=51 v=0
70240 On ch=8 n=49 v=95
70266 On ch=8 n=49 v=0
70272 On ch=8 n=57 v=95
70349 On ch=8 n=57 v=0
70368 On ch=8 n=56 v=95
70445 On ch=8 n=56 v=0
70464 On ch=8 n=54 v=95
70541 On ch=8 n=54 v=0
70560 On ch=8 n=52 v=95
70586 On ch=8 n=52 v=0
70592 On ch=8 n=51 v=95
70618 On ch=8 n=51 v=0
70624 On ch=8 n=50 v=95
70650 On ch=8 n=50 v=0
70656 Par ch=8 c=11 v=64
70656 On ch=8 n=49 v=95
70680 Par ch=8 c=11 v=63
70694 On ch=8 n=49 v=0
70704 Par ch=8 c=11 v=62
70724 Par ch=8 c=11 v=61
70728 On ch=8 n=48 v=95
70747 On ch=8 n=48 v=0
70748 Par ch=8 c=11 v=60
70752 On ch=8 n=47 v=95
70772 Par ch=8 c=11 v=59
70790 On ch=8 n=47 v=0
70792 Par ch=8 c=11 v=58
70816 Par ch=8 c=11 v=57
70824 On ch=8 n=46 v=95
70840 Par ch=8 c=11 v=56
70843 On ch=8 n=46 v=0
70848 On ch=8 n=45 v=95
70860 Par ch=8 c=11 v=55
70884 Par ch=8 c=11 v=54
70886 On ch=8 n=45 v=0
70908 Par ch=8 c=11 v=53
70920 On ch=8 n=44 v=95
70928 Par ch=8 c=11 v=52
70939 On ch=8 n=44 v=0
70944 On ch=8 n=42 v=95
70952 Par ch=8 c=11 v=51
70976 Par ch=8 c=11 v=50
70982 On ch=8 n=42 v=0
70996 Par ch=8 c=11 v=49
71016 On ch=8 n=40 v=95
71020 Par ch=8 c=11 v=48
71035 On ch=8 n=40 v=0
71040 Par ch=8 c=11 v=64
71040 On ch=8 n=49 v=95
71064 Par ch=8 c=11 v=63
71078 On ch=8 n=49 v=0
71088 Par ch=8 c=11 v=62
71108 Par ch=8 c=11 v=61
71112 On ch=8 n=48 v=95
71131 On ch=8 n=48 v=0
71132 Par ch=8 c=11 v=60
71136 On ch=8 n=47 v=95
71156 Par ch=8 c=11 v=59
71174 On ch=8 n=47 v=0
71176 Par ch=8 c=11 v=58
71200 Par ch=8 c=11 v=57
71208 On ch=8 n=46 v=95
71224 Par ch=8 c=11 v=56
71227 On ch=8 n=46 v=0
71232 On ch=8 n=45 v=95
71244 Par ch=8 c=11 v=55
71268 Par ch=8 c=11 v=54
71270 On ch=8 n=45 v=0
71292 Par ch=8 c=11 v=53
71304 On ch=8 n=44 v=95
71312 Par ch=8 c=11 v=52
71323 On ch=8 n=44 v=0
71328 On ch=8 n=42 v=95
71336 Par ch=8 c=11 v=51
71360 Par ch=8 c=11 v=50
71366 On ch=8 n=42 v=0
71380 Par ch=8 c=11 v=49
71400 On ch=8 n=40 v=95
71404 Par ch=8 c=11 v=48
71419 On ch=8 n=40 v=0
71424 Par ch=8 c=11 v=64
71424 On ch=8 n=49 v=95
71450 On ch=8 n=49 v=0
71456 On ch=8 n=45 v=47
71482 On ch=8 n=45 v=0
71488 On ch=8 n=52 v=47
71514 On ch=8 n=52 v=0
71520 On ch=8 n=47 v=47
71546 On ch=8 n=47 v=0
71552 On ch=8 n=44 v=47
71578 On ch=8 n=44 v=0
71584 On ch=8 n=52 v=47
71610 On ch=8 n=52 v=0
71616 On ch=8 n=45 v=47
71642 On ch=8 n=45 v=0
71648 On ch=8 n=42 v=47
71674 On ch=8 n=42 v=0
71680 On ch=8 n=50 v=47
71706 On ch=8 n=50 v=0
71712 On ch=8 n=44 v=47
71738 On ch=8 n=44 v=0
71744 On ch=8 n=37 v=47
71770 On ch=8 n=37 v=0
71776 On ch=8 n=49 v=47
71802 On ch=8 n=49 v=0
71808 On ch=8 n=50 v=95
71834 On ch=8 n=50 v=0
71840 On ch=8 n=47 v=47
71866 On ch=8 n=47 v=0
71872 On ch=8 n=56 v=47
71898 On ch=8 n=56 v=0
71904 On ch=8 n=49 v=47
71930 On ch=8 n=49 v=0
71936 On ch=8 n=45 v=47
71962 On ch=8 n=45 v=0
71968 On ch=8 n=54 v=47
71994 On ch=8 n=54 v=0
72000 On ch=8 n=47 v=47
72026 On ch=8 n=47 v=0
72032 On ch=8 n=44 v=47
72058 On ch=8 n=44 v=0
72064 On ch=8 n=52 v=47
72090 On ch=8 n=52 v=0
72096 On ch=8 n=45 v=47
72122 On ch=8 n=45 v=0
72128 On ch=8 n=42 v=47
72154 On ch=8 n=42 v=0
72160 On ch=8 n=50 v=47
72186 On ch=8 n=50 v=0
72192 On ch=8 n=52 v=95
72218 On ch=8 n=52 v=0
72224 On ch=8 n=49 v=47
72250 On ch=8 n=49 v=0
72256 On ch=8 n=57 v=47
72282 On ch=8 n=57 v=0
72288 On ch=8 n=50 v=47
72314 On ch=8 n=50 v=0
72320 On ch=8 n=47 v=47
72346 On ch=8 n=47 v=0
72352 On ch=8 n=56 v=47
72378 On ch=8 n=56 v=0
72384 On ch=8 n=54 v=95
72410 On ch=8 n=54 v=0
72416 On ch=8 n=50 v=47
72442 On ch=8 n=50 v=0
72448 On ch=8 n=59 v=47
72474 On ch=8 n=59 v=0
72480 On ch=8 n=52 v=47
72506 On ch=8 n=52 v=0
72512 On ch=8 n=49 v=47
72538 On ch=8 n=49 v=0
72544 On ch=8 n=57 v=47
72570 On ch=8 n=57 v=0
72576 Par ch=8 c=0 v=0
72576 Par ch=8 c=32 v=0
72576 PrCh ch=8 p=44
72576 On ch=8 n=54 v=31
72883 On ch=8 n=54 v=0
72960 Par ch=8 c=11 v=64
72960 Par ch=8 c=0 v=0
72960 Par ch=8 c=32 v=0
72960 PrCh ch=8 p=48
72960 On ch=8 n=71 v=111
72968 Par ch=8 c=11 v=63
72976 Par ch=8 c=11 v=62
72984 Par ch=8 c=11 v=61
72992 Par ch=8 c=11 v=60
72998 On ch=8 n=71 v=0
73000 Par ch=8 c=11 v=59
73008 Par ch=8 c=11 v=58
73016 Par ch=8 c=11 v=57
73024 Par ch=8 c=11 v=56
73032 Par ch=8 c=11 v=55
73032 On ch=8 n=69 v=111
73040 Par ch=8 c=11 v=54
73048 Par ch=8 c=11 v=53
73051 On ch=8 n=69 v=0
73056 Par ch=8 c=11 v=52
73056 On ch=8 n=67 v=111
73064 Par ch=8 c=11 v=51
73072 Par ch=8 c=11 v=50
73080 Par ch=8 c=11 v=49
73088 Par ch=8 c=11 v=48
73094 On ch=8 n=67 v=0
73096 Par ch=8 c=11 v=47
73104 Par ch=8 c=11 v=46
73112 Par ch=8 c=11 v=45
73120 Par ch=8 c=11 v=44
73128 Par ch=8 c=11 v=43
73128 On ch=8 n=66 v=111
73136 Par ch=8 c=11 v=42
73144 Par ch=8 c=11 v=41
73147 On ch=8 n=66 v=0
73152 Par ch=8 c=11 v=40
73152 On ch=8 n=64 v=111
73156 Par ch=8 c=11 v=39
73164 Par ch=8 c=11 v=38
73172 Par ch=8 c=11 v=37
73180 Par ch=8 c=11 v=36
73188 Par ch=8 c=11 v=35
73190 On ch=8 n=64 v=0
73196 Par ch=8 c=11 v=34
73204 Par ch=8 c=11 v=33
73212 Par ch=8 c=11 v=32
73220 Par ch=8 c=11 v=31
73224 On ch=8 n=62 v=111
73228 Par ch=8 c=11 v=30
73236 Par ch=8 c=11 v=29
73243 On ch=8 n=62 v=0
73244 Par ch=8 c=11 v=28
73248 On ch=8 n=61 v=111
73252 Par ch=8 c=11 v=27
73260 Par ch=8 c=11 v=26
73268 Par ch=8 c=11 v=25
73276 Par ch=8 c=11 v=24
73284 Par ch=8 c=11 v=23
73286 On ch=8 n=61 v=0
73292 Par ch=8 c=11 v=22
73300 Par ch=8 c=11 v=21
73308 Par ch=8 c=11 v=20
73316 Par ch=8 c=11 v=19
73320 On ch=8 n=59 v=111
73324 Par ch=8 c=11 v=18
73332 Par ch=8 c=11 v=17
73339 On ch=8 n=59 v=0
73340 Par ch=8 c=11 v=16
73344 Par ch=8 c=0 v=0
73344 Par ch=8 c=32 v=0
73344 PrCh ch=8 p=44
73344 On ch=8 n=54 v=95
73651 On ch=8 n=54 v=0
73728 Par ch=8 c=11 v=64
73728 Par ch=8 c=0 v=0
73728 Par ch=8 c=32 v=0
73728 PrCh ch=8 p=48
73728 On ch=8 n=73 v=111
73736 Par ch=8 c=11 v=63
73744 Par ch=8 c=11 v=62
73752 Par ch=8 c=11 v=61
73760 Par ch=8 c=11 v=60
73766 On ch=8 n=73 v=0
73768 Par ch=8 c=11 v=59
73776 Par ch=8 c=11 v=58
73784 Par ch=8 c=11 v=57
73792 Par ch=8 c=11 v=56
73800 Par ch=8 c=11 v=55
73800 On ch=8 n=71 v=111
73808 Par ch=8 c=11 v=54
73816 Par ch=8 c=11 v=53
73819 On ch=8 n=71 v=0
73824 Par ch=8 c=11 v=52
73824 On ch=8 n=69 v=111
73832 Par ch=8 c=11 v=51
73840 Par ch=8 c=11 v=50
73848 Par ch=8 c=11 v=49
73856 Par ch=8 c=11 v=48
73862 On ch=8 n=69 v=0
73864 Par ch=8 c=11 v=47
73872 Par ch=8 c=11 v=46
73880 Par ch=8 c=11 v=45
73888 Par ch=8 c=11 v=44
73896 Par ch=8 c=11 v=43
73896 On ch=8 n=68 v=111
73904 Par ch=8 c=11 v=42
73912 Par ch=8 c=11 v=41
73915 On ch=8 n=68 v=0
73920 Par ch=8 c=11 v=40
73920 On ch=8 n=66 v=111
73924 Par ch=8 c=11 v=39
73932 Par ch=8 c=11 v=38
73940 Par ch=8 c=11 v=37
73948 Par ch=8 c=11 v=36
73956 Par ch=8 c=11 v=35
73958 On ch=8 n=66 v=0
73964 Par ch=8 c=11 v=34
73972 Par ch=8 c=11 v=33
73980 Par ch=8 c=11 v=32
73988 Par ch=8 c=11 v=31
73992 On ch=8 n=64 v=111
73996 Par ch=8 c=11 v=30
74004 Par ch=8 c=11 v=29
74011 On ch=8 n=64 v=0
74012 Par ch=8 c=11 v=28
74016 On ch=8 n=62 v=111
74020 Par ch=8 c=11 v=27
74028 Par ch=8 c=11 v=26
74036 Par ch=8 c=11 v=25
74044 Par ch=8 c=11 v=24
74052 Par ch=8 c=11 v=23
74054 On ch=8 n=62 v=0
74060 Par ch=8 c=11 v=22
74068 Par ch=8 c=11 v=21
74076 Par ch=8 c=11 v=20
74084 Par ch=8 c=11 v=19
74088 On ch=8 n=61 v=111
74092 Par ch=8 c=11 v=18
74100 Par ch=8 c=11 v=17
74107 On ch=8 n=61 v=0
74108 Par ch=8 c=11 v=16
74112 Par ch=8 c=0 v=0
74112 Par ch=8 c=32 v=0
74112 PrCh ch=8 p=44
74112 On ch=8 n=54 v=95
74419 On ch=8 n=54 v=0
74496 Par ch=8 c=11 v=64
74688 Par ch=8 c=0 v=0
74688 Par ch=8 c=32 v=0
74688 PrCh ch=8 p=48
74688 Par ch=8 c=11 v=64
74688 On ch=8 n=61 v=111
74700 Par ch=8 c=11 v=63
74712 Par ch=8 c=11 v=62
74724 Par ch=8 c=11 v=61
74726 On ch=8 n=61 v=0
74736 Par ch=8 c=11 v=60
74748 Par ch=8 c=11 v=59
74756 Par ch=8 c=11 v=58
74760 On ch=8 n=57 v=111
74768 Par ch=8 c=11 v=57
74779 On ch=8 n=57 v=0
74780 Par ch=8 c=11 v=56
74784 On ch=8 n=54 v=111
74792 Par ch=8 c=11 v=55
74804 Par ch=8 c=11 v=54
74816 Par ch=8 c=11 v=53
74822 On ch=8 n=54 v=0
74824 Par ch=8 c=11 v=52
74836 Par ch=8 c=11 v=51
74848 Par ch=8 c=11 v=50
74856 On ch=8 n=49 v=111
74860 Par ch=8 c=11 v=49
74872 Par ch=8 c=11 v=48
74875 On ch=8 n=49 v=0
74880 Par ch=8 c=11 v=64
74880 On ch=8 n=65 v=111
74918 On ch=8 n=65 v=0
75072 Par ch=8 c=11 v=64
75072 On ch=8 n=61 v=111
75084 Par ch=8 c=11 v=63
75096 Par ch=8 c=11 v=62
75108 Par ch=8 c=11 v=61
75110 On ch=8 n=61 v=0
75120 Par ch=8 c=11 v=60
75132 Par ch=8 c=11 v=59
75140 Par ch=8 c=11 v=58
75144 On ch=8 n=57 v=111
75152 Par ch=8 c=11 v=57
75163 On ch=8 n=57 v=0
75164 Par ch=8 c=11 v=56
75168 On ch=8 n=54 v=111
75176 Par ch=8 c=11 v=55
75188 Par ch=8 c=11 v=54
75200 Par ch=8 c=11 v=53
75206 On ch=8 n=54 v=0
75208 Par ch=8 c=11 v=52
75220 Par ch=8 c=11 v=51
75232 Par ch=8 c=11 v=50
75240 On ch=8 n=49 v=111
75244 Par ch=8 c=11 v=49
75256 Par ch=8 c=11 v=48
75259 On ch=8 n=49 v=0
75360 Par ch=8 c=11 v=64
75360 On ch=8 n=62 v=100
75360 On ch=8 n=50 v=100
75482 On ch=8 n=50 v=0
75482 On ch=8 n=62 v=0
75488 On ch=8 n=62 v=100
75488 On ch=8 n=50 v=100
75514 On ch=8 n=50 v=0
75514 On ch=8 n=62 v=0
75520 On ch=8 n=62 v=100
75520 On ch=8 n=50 v=100
75546 On ch=8 n=50 v=0
75546 On ch=8 n=62 v=0
75552 On ch=8 n=62 v=100
75552 On ch=8 n=50 v=100
75578 On ch=8 n=50 v=0
75578 On ch=8 n=62 v=0
75584 On ch=8 n=62 v=100
75584 On ch=8 n=50 v=100
75610 On ch=8 n=50 v=0
75610 On ch=8 n=62 v=0
75616 On ch=8 n=62 v=100
75616 On ch=8 n=50 v=100
75642 On ch=8 n=50 v=0
75642 On ch=8 n=62 v=0
75648 On ch=8 n=62 v=100
75648 On ch=8 n=50 v=100
75686 On ch=8 n=50 v=0
75686 On ch=8 n=62 v=0
75720 On ch=8 n=62 v=100
75720 On ch=8 n=50 v=100
75739 On ch=8 n=50 v=0
75739 On ch=8 n=62 v=0
75744 On ch=8 n=62 v=100
75744 On ch=8 n=50 v=100
75782 On ch=8 n=50 v=0
75782 On ch=8 n=62 v=0
75816 On ch=8 n=62 v=100
75816 On ch=8 n=50 v=100
75835 On ch=8 n=50 v=0
75835 On ch=8 n=62 v=0
75840 On ch=8 n=62 v=100
75840 On ch=8 n=50 v=100
75878 On ch=8 n=50 v=0
75878 On ch=8 n=62 v=0
75912 On ch=8 n=62 v=100
75912 On ch=8 n=50 v=100
75931 On ch=8 n=50 v=0
75931 On ch=8 n=62 v=0
75936 On ch=8 n=62 v=100
75936 On ch=8 n=50 v=100
75974 On ch=8 n=50 v=0
75974 On ch=8 n=62 v=0
76008 On ch=8 n=62 v=100
76008 On ch=8 n=50 v=100
76027 On ch=8 n=50 v=0
76027 On ch=8 n=62 v=0
76032 On ch=8 n=62 v=100
76053 On ch=8 n=62 v=0
76064 On ch=8 n=61 v=100
76085 On ch=8 n=61 v=0
76096 On ch=8 n=60 v=100
76117 On ch=8 n=60 v=0
76128 On ch=8 n=56 v=100
76149 On ch=8 n=56 v=0
76160 On ch=8 n=55 v=100
76181 On ch=8 n=55 v=0
76192 On ch=8 n=54 v=100
76213 On ch=8 n=54 v=0
76224 On ch=8 n=62 v=100
76245 On ch=8 n=62 v=0
76256 On ch=8 n=61 v=100
76277 On ch=8 n=61 v=0
76288 On ch=8 n=60 v=100
76309 On ch=8 n=60 v=0
76320 On ch=8 n=56 v=100
76341 On ch=8 n=56 v=0
76352 On ch=8 n=55 v=100
76373 On ch=8 n=55 v=0
76384 On ch=8 n=54 v=100
76405 On ch=8 n=54 v=0
76416 On ch=8 n=62 v=100
76437 On ch=8 n=62 v=0
76448 On ch=8 n=61 v=100
76469 On ch=8 n=61 v=0
76480 On ch=8 n=60 v=100
76501 On ch=8 n=60 v=0
76512 On ch=8 n=56 v=100
76533 On ch=8 n=56 v=0
76544 On ch=8 n=55 v=100
76565 On ch=8 n=55 v=0
76576 On ch=8 n=54 v=100
76597 On ch=8 n=54 v=0
76608 On ch=8 n=50 v=100
76629 On ch=8 n=50 v=0
76640 On ch=8 n=49 v=100
76661 On ch=8 n=49 v=0
76672 On ch=8 n=48 v=100
76693 On ch=8 n=48 v=0
76704 On ch=8 n=44 v=100
76725 On ch=8 n=44 v=0
76736 On ch=8 n=43 v=100
76757 On ch=8 n=43 v=0
76768 On ch=8 n=42 v=100
76789 On ch=8 n=42 v=0
76800 On ch=8 n=49 v=100
76877 On ch=8 n=49 v=0
76992 Par ch=8 c=0 v=0
76992 Par ch=8 c=32 v=0
76992 PrCh ch=8 p=44
76992 On ch=8 n=74 v=111
77030 On ch=8 n=74 v=0
77040 On ch=8 n=73 v=111
77078 On ch=8 n=73 v=0
77088 On ch=8 n=72 v=111
77126 On ch=8 n=72 v=0
77136 On ch=8 n=71 v=111
77174 On ch=8 n=71 v=0
77184 Par ch=8 c=11 v=64
77184 On ch=8 n=69 v=111
77200 Par ch=8 c=11 v=63
77216 Par ch=8 c=11 v=62
77222 On ch=8 n=69 v=0
77232 Par ch=8 c=11 v=61
77232 On ch=8 n=68 v=111
77248 Par ch=8 c=11 v=60
77264 Par ch=8 c=11 v=59
77270 On ch=8 n=68 v=0
77280 Par ch=8 c=11 v=58
77280 On ch=8 n=66 v=111
77296 Par ch=8 c=11 v=57
77312 Par ch=8 c=11 v=56
77318 On ch=8 n=66 v=0
77328 Par ch=8 c=11 v=55
77328 On ch=8 n=69 v=111
77344 Par ch=8 c=11 v=54
77360 Par ch=8 c=11 v=53
77366 On ch=8 n=69 v=0
77376 Par ch=8 c=11 v=52
77376 On ch=8 n=74 v=111
77388 Par ch=8 c=11 v=51
77404 Par ch=8 c=11 v=50
77414 On ch=8 n=74 v=0
77420 Par ch=8 c=11 v=49
77424 On ch=8 n=73 v=111
77436 Par ch=8 c=11 v=48
77452 Par ch=8 c=11 v=47
77462 On ch=8 n=73 v=0
77468 Par ch=8 c=11 v=46
77472 On ch=8 n=71 v=111
77484 Par ch=8 c=11 v=45
77500 Par ch=8 c=11 v=44
77510 On ch=8 n=71 v=0
77516 Par ch=8 c=11 v=43
77520 On ch=8 n=69 v=111
77532 Par ch=8 c=11 v=42
77548 Par ch=8 c=11 v=41
77558 On ch=8 n=69 v=0
77564 Par ch=8 c=11 v=40
77568 On ch=8 n=68 v=111
77576 Par ch=8 c=11 v=39
77592 Par ch=8 c=11 v=38
77606 On ch=8 n=68 v=0
77608 Par ch=8 c=11 v=37
77616 On ch=8 n=66 v=111
77624 Par ch=8 c=11 v=36
77640 Par ch=8 c=11 v=35
77654 On ch=8 n=66 v=0
77656 Par ch=8 c=11 v=34
77664 On ch=8 n=64 v=111
77672 Par ch=8 c=11 v=33
77688 Par ch=8 c=11 v=32
77702 On ch=8 n=64 v=0
77704 Par ch=8 c=11 v=31
77712 On ch=8 n=68 v=111
77720 Par ch=8 c=11 v=30
77736 Par ch=8 c=11 v=29
77750 On ch=8 n=68 v=0
77752 Par ch=8 c=11 v=28
77760 On ch=8 n=73 v=111
77764 Par ch=8 c=11 v=27
77780 Par ch=8 c=11 v=26
77796 Par ch=8 c=11 v=25
77798 On ch=8 n=73 v=0
77808 On ch=8 n=71 v=111
77812 Par ch=8 c=11 v=24
77828 Par ch=8 c=11 v=23
77844 Par ch=8 c=11 v=22
77846 On ch=8 n=71 v=0
77856 On ch=8 n=69 v=111
77860 Par ch=8 c=11 v=21
77876 Par ch=8 c=11 v=20
77892 Par ch=8 c=11 v=19
77894 On ch=8 n=69 v=0
77904 On ch=8 n=68 v=111
77908 Par ch=8 c=11 v=18
77924 Par ch=8 c=11 v=17
77940 Par ch=8 c=11 v=16
77942 On ch=8 n=68 v=0
78336 Par ch=8 c=11 v=64
78336 Par ch=8 c=0 v=0
78336 Par ch=8 c=32 v=0
78336 PrCh ch=8 p=48
79104 On ch=8 n=60 v=15
79116 On ch=8 n=60 v=0
79116 On ch=8 n=62 v=15
79128 On ch=8 n=62 v=0
79128 On ch=8 n=60 v=15
79140 On ch=8 n=60 v=0
79140 On ch=8 n=62 v=15
79152 On ch=8 n=62 v=0
79152 On ch=8 n=60 v=15
79164 On ch=8 n=60 v=0
79164 On ch=8 n=62 v=15
79176 On ch=8 n=62 v=0
79176 On ch=8 n=60 v=15
79188 On ch=8 n=60 v=0
79188 On ch=8 n=62 v=15
79200 On ch=8 n=62 v=0
79200 On ch=8 n=60 v=15
79212 On ch=8 n=60 v=0
79212 On ch=8 n=62 v=15
79224 On ch=8 n=62 v=0
79224 On ch=8 n=60 v=15
79236 On ch=8 n=60 v=0
79236 On ch=8 n=62 v=15
79248 On ch=8 n=62 v=0
79248 On ch=8 n=60 v=15
79260 On ch=8 n=60 v=0
79260 On ch=8 n=62 v=15
79272 On ch=8 n=62 v=0
79272 On ch=8 n=60 v=15
79284 On ch=8 n=60 v=0
79284 On ch=8 n=62 v=15
79296 On ch=8 n=62 v=0
79296 On ch=8 n=60 v=15
79308 On ch=8 n=60 v=0
79308 On ch=8 n=62 v=15
79320 On ch=8 n=62 v=0
79320 On ch=8 n=60 v=15
79332 On ch=8 n=60 v=0
79332 On ch=8 n=62 v=15
79344 On ch=8 n=62 v=0
79344 On ch=8 n=60 v=15
79356 On ch=8 n=60 v=0
79356 On ch=8 n=62 v=15
79368 On ch=8 n=62 v=0
79368 On ch=8 n=60 v=15
79380 On ch=8 n=60 v=0
79380 On ch=8 n=62 v=15
79392 On ch=8 n=62 v=0
79392 On ch=8 n=60 v=15
79404 On ch=8 n=60 v=0
79404 On ch=8 n=62 v=15
79416 On ch=8 n=62 v=0
79416 On ch=8 n=60 v=15
79428 On ch=8 n=60 v=0
79428 On ch=8 n=62 v=15
79440 On ch=8 n=62 v=0
79440 On ch=8 n=60 v=15
79452 On ch=8 n=60 v=0
79452 On ch=8 n=62 v=15
79464 On ch=8 n=62 v=0
79464 On ch=8 n=60 v=15
79476 On ch=8 n=60 v=0
79476 On ch=8 n=62 v=15
79488 On ch=8 n=62 v=0
79488 On ch=8 n=60 v=15
79500 On ch=8 n=60 v=0
79500 On ch=8 n=62 v=15
79512 On ch=8 n=62 v=0
79512 On ch=8 n=60 v=15
79524 On ch=8 n=60 v=0
79524 On ch=8 n=62 v=15
79536 On ch=8 n=62 v=0
79536 On ch=8 n=60 v=15
79548 On ch=8 n=60 v=0
79548 On ch=8 n=62 v=15
79560 On ch=8 n=62 v=0
79560 On ch=8 n=60 v=15
79572 On ch=8 n=60 v=0
79572 On ch=8 n=62 v=15
79584 On ch=8 n=62 v=0
79584 On ch=8 n=60 v=15
79596 On ch=8 n=60 v=0
79596 On ch=8 n=62 v=15
79608 On ch=8 n=62 v=0
79608 On ch=8 n=60 v=15
79620 On ch=8 n=60 v=0
79620 On ch=8 n=62 v=15
79632 On ch=8 n=62 v=0
79632 On ch=8 n=60 v=15
79644 On ch=8 n=60 v=0
79644 On ch=8 n=62 v=15
79656 On ch=8 n=62 v=0
79656 On ch=8 n=60 v=15
79668 On ch=8 n=60 v=0
79668 On ch=8 n=62 v=15
79680 On ch=8 n=62 v=0
79680 On ch=8 n=60 v=15
79692 On ch=8 n=60 v=0
79692 On ch=8 n=62 v=15
79704 On ch=8 n=62 v=0
79704 On ch=8 n=60 v=15
79716 On ch=8 n=60 v=0
79716 On ch=8 n=62 v=15
79728 On ch=8 n=62 v=0
79728 On ch=8 n=60 v=15
79740 On ch=8 n=60 v=0
79740 On ch=8 n=62 v=15
79752 On ch=8 n=62 v=0
79752 On ch=8 n=60 v=15
79764 On ch=8 n=60 v=0
79764 On ch=8 n=62 v=15
79776 On ch=8 n=62 v=0
79776 On ch=8 n=60 v=15
79788 On ch=8 n=60 v=0
79788 On ch=8 n=62 v=15
79800 On ch=8 n=62 v=0
79800 On ch=8 n=60 v=15
79812 On ch=8 n=60 v=0
79812 On ch=8 n=62 v=15
79824 On ch=8 n=62 v=0
79824 On ch=8 n=60 v=15
79836 On ch=8 n=60 v=0
79836 On ch=8 n=62 v=15
79848 On ch=8 n=62 v=0
79848 On ch=8 n=60 v=15
79860 On ch=8 n=60 v=0
79860 On ch=8 n=62 v=15
79872 On ch=8 n=62 v=0
79872 On ch=8 n=60 v=15
79884 On ch=8 n=60 v=0
79884 On ch=8 n=62 v=15
79896 On ch=8 n=62 v=0
79896 On ch=8 n=60 v=15
79908 On ch=8 n=60 v=0
79908 On ch=8 n=62 v=15
79920 On ch=8 n=62 v=0
79920 On ch=8 n=60 v=15
79932 On ch=8 n=60 v=0
79932 On ch=8 n=62 v=15
79944 On ch=8 n=62 v=0
79944 On ch=8 n=60 v=15
79956 On ch=8 n=60 v=0
79956 On ch=8 n=62 v=15
79968 On ch=8 n=62 v=0
79968 On ch=8 n=60 v=15
79980 On ch=8 n=60 v=0
79980 On ch=8 n=62 v=15
79992 On ch=8 n=62 v=0
79992 On ch=8 n=60 v=15
80004 On ch=8 n=60 v=0
80004 On ch=8 n=62 v=15
80016 On ch=8 n=62 v=0
80016 On ch=8 n=60 v=15
80028 On ch=8 n=60 v=0
80028 On ch=8 n=62 v=15
80040 On ch=8 n=62 v=0
80040 On ch=8 n=60 v=15
80052 On ch=8 n=60 v=0
80052 On ch=8 n=62 v=15
80064 On ch=8 n=62 v=0
80064 On ch=8 n=60 v=15
80076 On ch=8 n=60 v=0
80076 On ch=8 n=62 v=15
80088 On ch=8 n=62 v=0
80088 On ch=8 n=60 v=15
80100 On ch=8 n=60 v=0
80100 On ch=8 n=62 v=15
80112 On ch=8 n=62 v=0
80112 On ch=8 n=60 v=15
80124 On ch=8 n=60 v=0
80124 On ch=8 n=62 v=15
80136 On ch=8 n=62 v=0
80136 On ch=8 n=60 v=15
80148 On ch=8 n=60 v=0
80148 On ch=8 n=62 v=15
80160 On ch=8 n=62 v=0
80160 On ch=8 n=60 v=15
80172 On ch=8 n=60 v=0
80172 On ch=8 n=62 v=15
80184 On ch=8 n=62 v=0
80184 On ch=8 n=60 v=15
80196 On ch=8 n=60 v=0
80196 On ch=8 n=62 v=15
80208 On ch=8 n=62 v=0
80208 On ch=8 n=60 v=15
80220 On ch=8 n=60 v=0
80220 On ch=8 n=62 v=15
80232 On ch=8 n=62 v=0
80232 On ch=8 n=60 v=15
80244 On ch=8 n=60 v=0
80244 On ch=8 n=62 v=15
80256 On ch=8 n=62 v=0
80256 On ch=8 n=60 v=15
80268 On ch=8 n=60 v=0
80268 On ch=8 n=62 v=15
80280 On ch=8 n=62 v=0
80280 On ch=8 n=60 v=15
80292 On ch=8 n=60 v=0
80292 On ch=8 n=62 v=15
80304 On ch=8 n=62 v=0
80304 On ch=8 n=60 v=15
80316 On ch=8 n=60 v=0
80316 On ch=8 n=62 v=15
80328 On ch=8 n=62 v=0
80328 On ch=8 n=60 v=15
80340 On ch=8 n=60 v=0
80340 On ch=8 n=62 v=15
80352 On ch=8 n=62 v=0
80352 On ch=8 n=60 v=15
80364 On ch=8 n=60 v=0
80364 On ch=8 n=62 v=15
80376 On ch=8 n=62 v=0
80376 On ch=8 n=60 v=15
80388 On ch=8 n=60 v=0
80388 On ch=8 n=62 v=15
80400 On ch=8 n=62 v=0
80400 On ch=8 n=60 v=15
80412 On ch=8 n=60 v=0
80412 On ch=8 n=62 v=15
80424 On ch=8 n=62 v=0
80424 On ch=8 n=60 v=15
80436 On ch=8 n=60 v=0
80436 On ch=8 n=62 v=15
80448 On ch=8 n=62 v=0
80448 On ch=8 n=60 v=15
80460 On ch=8 n=60 v=0
80460 On ch=8 n=62 v=15
80472 On ch=8 n=62 v=0
80472 On ch=8 n=60 v=15
80484 On ch=8 n=60 v=0
80484 On ch=8 n=62 v=15
80496 On ch=8 n=62 v=0
80496 On ch=8 n=60 v=15
80508 On ch=8 n=60 v=0
80508 On ch=8 n=62 v=15
80520 On ch=8 n=62 v=0
80520 On ch=8 n=60 v=15
80532 On ch=8 n=60 v=0
80532 On ch=8 n=62 v=15
80544 On ch=8 n=62 v=0
80544 On ch=8 n=60 v=15
80556 On ch=8 n=60 v=0
80556 On ch=8 n=62 v=15
80568 On ch=8 n=62 v=0
80568 On ch=8 n=60 v=15
80580 On ch=8 n=60 v=0
80580 On ch=8 n=62 v=15
80592 On ch=8 n=62 v=0
80592 On ch=8 n=60 v=15
80604 On ch=8 n=60 v=0
80604 On ch=8 n=62 v=15
80616 On ch=8 n=62 v=0
80616 On ch=8 n=60 v=15
80628 On ch=8 n=60 v=0
80628 On ch=8 n=62 v=15
80640 On ch=8 n=62 v=0
80640 On ch=8 n=60 v=15
80652 On ch=8 n=60 v=0
80652 On ch=8 n=62 v=15
80664 On ch=8 n=62 v=0
80664 On ch=8 n=60 v=15
80676 On ch=8 n=60 v=0
80676 On ch=8 n=62 v=15
80688 On ch=8 n=62 v=0
80688 On ch=8 n=60 v=15
80700 On ch=8 n=60 v=0
80700 On ch=8 n=62 v=15
80712 On ch=8 n=62 v=0
80712 On ch=8 n=60 v=15
80724 On ch=8 n=60 v=0
80724 On ch=8 n=62 v=15
80736 On ch=8 n=62 v=0
80736 On ch=8 n=60 v=15
80748 On ch=8 n=60 v=0
80748 On ch=8 n=62 v=15
80760 On ch=8 n=62 v=0
80760 On ch=8 n=60 v=15
80772 On ch=8 n=60 v=0
80772 On ch=8 n=62 v=15
80784 On ch=8 n=62 v=0
80784 On ch=8 n=60 v=15
80796 On ch=8 n=60 v=0
80796 On ch=8 n=62 v=15
80808 On ch=8 n=62 v=0
80808 On ch=8 n=60 v=15
80820 On ch=8 n=60 v=0
80820 On ch=8 n=62 v=15
80832 On ch=8 n=62 v=0
80832 On ch=8 n=60 v=15
80844 On ch=8 n=60 v=0
80844 On ch=8 n=62 v=15
80856 On ch=8 n=62 v=0
80856 On ch=8 n=60 v=15
80868 On ch=8 n=60 v=0
80868 On ch=8 n=62 v=15
80880 On ch=8 n=62 v=0
80880 On ch=8 n=60 v=15
80892 On ch=8 n=60 v=0
80892 On ch=8 n=62 v=15
80904 On ch=8 n=62 v=0
80904 On ch=8 n=60 v=15
80916 On ch=8 n=60 v=0
80916 On ch=8 n=62 v=15
80928 On ch=8 n=62 v=0
80928 On ch=8 n=60 v=15
80940 On ch=8 n=60 v=0
80940 On ch=8 n=62 v=15
80952 On ch=8 n=62 v=0
80952 On ch=8 n=60 v=15
80964 On ch=8 n=60 v=0
80964 On ch=8 n=62 v=15
80976 On ch=8 n=62 v=0
80976 On ch=8 n=60 v=15
80988 On ch=8 n=60 v=0
80988 On ch=8 n=62 v=15
81000 On ch=8 n=62 v=0
81000 On ch=8 n=60 v=15
81012 On ch=8 n=60 v=0
81012 On ch=8 n=62 v=15
81024 On ch=8 n=62 v=0
81024 On ch=8 n=60 v=15
81036 On ch=8 n=60 v=0
81036 On ch=8 n=62 v=15
81048 On ch=8 n=62 v=0
81048 On ch=8 n=60 v=15
81060 On ch=8 n=60 v=0
81060 On ch=8 n=62 v=15
81072 On ch=8 n=62 v=0
81072 On ch=8 n=60 v=15
81084 On ch=8 n=60 v=0
81084 On ch=8 n=62 v=15
81096 On ch=8 n=62 v=0
81096 On ch=8 n=60 v=15
81108 On ch=8 n=60 v=0
81108 On ch=8 n=62 v=15
81120 On ch=8 n=62 v=0
81120 On ch=8 n=60 v=15
81132 On ch=8 n=60 v=0
81132 On ch=8 n=62 v=15
81144 On ch=8 n=62 v=0
81144 On ch=8 n=60 v=15
81156 On ch=8 n=60 v=0
81156 On ch=8 n=62 v=15
81168 On ch=8 n=62 v=0
81168 On ch=8 n=60 v=15
81180 On ch=8 n=60 v=0
81180 On ch=8 n=62 v=15
81192 On ch=8 n=62 v=0
81192 On ch=8 n=60 v=15
81204 On ch=8 n=60 v=0
81204 On ch=8 n=62 v=15
81216 On ch=8 n=62 v=0
81216 On ch=8 n=60 v=15
81228 On ch=8 n=60 v=0
81228 On ch=8 n=62 v=15
81240 On ch=8 n=62 v=0
81240 On ch=8 n=60 v=15
81252 On ch=8 n=60 v=0
81252 On ch=8 n=62 v=15
81264 On ch=8 n=62 v=0
81264 On ch=8 n=60 v=15
81276 On ch=8 n=60 v=0
81276 On ch=8 n=62 v=15
81288 On ch=8 n=62 v=0
81288 On ch=8 n=60 v=15
81300 On ch=8 n=60 v=0
81300 On ch=8 n=62 v=15
81312 On ch=8 n=62 v=0
81312 On ch=8 n=60 v=15
81324 On ch=8 n=60 v=0
81324 On ch=8 n=62 v=15
81336 On ch=8 n=62 v=0
81336 On ch=8 n=60 v=15
81348 On ch=8 n=60 v=0
81348 On ch=8 n=62 v=15
81360 On ch=8 n=62 v=0
81360 On ch=8 n=60 v=15
81372 On ch=8 n=60 v=0
81372 On ch=8 n=62 v=15
81384 On ch=8 n=62 v=0
81384 On ch=8 n=60 v=15
81396 On ch=8 n=60 v=0
81396 On ch=8 n=62 v=15
81408 On ch=8 n=62 v=0
81408 On ch=8 n=60 v=15
81420 On ch=8 n=60 v=0
81420 On ch=8 n=62 v=15
81432 On ch=8 n=62 v=0
81432 On ch=8 n=60 v=15
81444 On ch=8 n=60 v=0
81444 On ch=8 n=62 v=15
81456 On ch=8 n=62 v=0
81456 On ch=8 n=60 v=15
81468 On ch=8 n=60 v=0
81468 On ch=8 n=62 v=15
81480 On ch=8 n=62 v=0
81480 On ch=8 n=60 v=15
81492 On ch=8 n=60 v=0
81492 On ch=8 n=62 v=15
81504 On ch=8 n=62 v=0
81504 On ch=8 n=60 v=15
81516 On ch=8 n=60 v=0
81516 On ch=8 n=62 v=15
81528 On ch=8 n=62 v=0
81528 On ch=8 n=60 v=15
81540 On ch=8 n=60 v=0
81540 On ch=8 n=62 v=15
81552 On ch=8 n=62 v=0
81552 On ch=8 n=60 v=15
81564 On ch=8 n=60 v=0
81564 On ch=8 n=62 v=15
81576 On ch=8 n=62 v=0
81576 On ch=8 n=60 v=15
81588 On ch=8 n=60 v=0
81588 On ch=8 n=62 v=15
81600 On ch=8 n=62 v=0
81600 On ch=8 n=60 v=15
81612 On ch=8 n=60 v=0
81612 On ch=8 n=62 v=15
81624 On ch=8 n=62 v=0
81624 On ch=8 n=60 v=15
81636 On ch=8 n=60 v=0
81636 On ch=8 n=62 v=15
81648 On ch=8 n=62 v=0
81648 On ch=8 n=60 v=15
81660 On ch=8 n=60 v=0
81660 On ch=8 n=62 v=15
81672 On ch=8 n=62 v=0
81672 On ch=8 n=60 v=15
81684 On ch=8 n=60 v=0
81684 On ch=8 n=62 v=15
81696 On ch=8 n=62 v=0
81696 On ch=8 n=60 v=15
81708 On ch=8 n=60 v=0
81708 On ch=8 n=62 v=15
81720 On ch=8 n=62 v=0
81720 On ch=8 n=60 v=15
81732 On ch=8 n=60 v=0
81732 On ch=8 n=62 v=15
81744 On ch=8 n=62 v=0
81744 On ch=8 n=60 v=15
81756 On ch=8 n=60 v=0
81756 On ch=8 n=62 v=15
81768 On ch=8 n=62 v=0
81768 On ch=8 n=60 v=15
81780 On ch=8 n=60 v=0
81780 On ch=8 n=62 v=15
81792 On ch=8 n=62 v=0
81792 On ch=8 n=60 v=15
81804 On ch=8 n=60 v=0
81804 On ch=8 n=62 v=15
81816 On ch=8 n=62 v=0
81816 On ch=8 n=60 v=15
81828 On ch=8 n=60 v=0
81828 On ch=8 n=62 v=15
81840 On ch=8 n=62 v=0
81840 On ch=8 n=60 v=15
81852 On ch=8 n=60 v=0
81852 On ch=8 n=62 v=15
81864 On ch=8 n=62 v=0
81864 On ch=8 n=60 v=15
81876 On ch=8 n=60 v=0
81876 On ch=8 n=62 v=15
81888 On ch=8 n=62 v=0
81888 On ch=8 n=60 v=15
81900 On ch=8 n=60 v=0
81900 On ch=8 n=62 v=15
81912 On ch=8 n=62 v=0
81912 On ch=8 n=60 v=15
81924 On ch=8 n=60 v=0
81924 On ch=8 n=62 v=15
81936 On ch=8 n=62 v=0
81936 On ch=8 n=60 v=15
81948 On ch=8 n=60 v=0
81948 On ch=8 n=62 v=15
81960 On ch=8 n=62 v=0
81960 On ch=8 n=60 v=15
81972 On ch=8 n=60 v=0
81972 On ch=8 n=62 v=15
81984 On ch=8 n=62 v=0
81984 On ch=8 n=60 v=15
81996 On ch=8 n=60 v=0
81996 On ch=8 n=62 v=15
82008 On ch=8 n=62 v=0
82008 On ch=8 n=60 v=15
82020 On ch=8 n=60 v=0
82020 On ch=8 n=62 v=15
82032 On ch=8 n=62 v=0
82032 On ch=8 n=60 v=15
82044 On ch=8 n=60 v=0
82044 On ch=8 n=62 v=15
82056 On ch=8 n=62 v=0
82056 On ch=8 n=60 v=15
82068 On ch=8 n=60 v=0
82068 On ch=8 n=62 v=15
82080 On ch=8 n=62 v=0
82080 On ch=8 n=60 v=15
82092 On ch=8 n=60 v=0
82092 On ch=8 n=62 v=15
82104 On ch=8 n=62 v=0
82104 On ch=8 n=60 v=15
82116 On ch=8 n=60 v=0
82116 On ch=8 n=62 v=15
82128 On ch=8 n=62 v=0
82128 On ch=8 n=60 v=15
82140 On ch=8 n=60 v=0
82140 On ch=8 n=62 v=15
82152 On ch=8 n=62 v=0
82152 On ch=8 n=60 v=15
82164 On ch=8 n=60 v=0
82164 On ch=8 n=62 v=15
82176 On ch=8 n=62 v=0
82176 On ch=8 n=60 v=15
82188 On ch=8 n=60 v=0
82188 On ch=8 n=62 v=15
82200 On ch=8 n=62 v=0
82200 On ch=8 n=60 v=15
82212 On ch=8 n=60 v=0
82212 On ch=8 n=62 v=15
82224 On ch=8 n=62 v=0
82224 On ch=8 n=60 v=15
82236 On ch=8 n=60 v=0
82236 On ch=8 n=62 v=15
82248 On ch=8 n=62 v=0
82248 On ch=8 n=60 v=15
82260 On ch=8 n=60 v=0
82260 On ch=8 n=62 v=15
82272 On ch=8 n=62 v=0
82272 On ch=8 n=60 v=15
82284 On ch=8 n=60 v=0
82284 On ch=8 n=62 v=15
82296 On ch=8 n=62 v=0
82296 On ch=8 n=60 v=15
82308 On ch=8 n=60 v=0
82308 On ch=8 n=62 v=15
82320 On ch=8 n=62 v=0
82320 On ch=8 n=60 v=15
82332 On ch=8 n=60 v=0
82332 On ch=8 n=62 v=15
82344 On ch=8 n=62 v=0
82344 On ch=8 n=60 v=15
82356 On ch=8 n=60 v=0
82356 On ch=8 n=62 v=15
82368 On ch=8 n=62 v=0
82368 On ch=8 n=60 v=15
82380 On ch=8 n=60 v=0
82380 On ch=8 n=62 v=15
82392 On ch=8 n=62 v=0
82392 On ch=8 n=60 v=15
82404 On ch=8 n=60 v=0
82404 On ch=8 n=62 v=15
82416 On ch=8 n=62 v=0
82416 On ch=8 n=60 v=15
82428 On ch=8 n=60 v=0
82428 On ch=8 n=62 v=15
82440 On ch=8 n=62 v=0
82440 On ch=8 n=60 v=15
82452 On ch=8 n=60 v=0
82452 On ch=8 n=62 v=15
82464 On ch=8 n=62 v=0
82464 On ch=8 n=60 v=15
82476 On ch=8 n=60 v=0
82476 On ch=8 n=62 v=15
82488 On ch=8 n=62 v=0
82488 On ch=8 n=60 v=15
82500 On ch=8 n=60 v=0
82500 On ch=8 n=62 v=15
82512 On ch=8 n=62 v=0
82512 On ch=8 n=60 v=15
82524 On ch=8 n=60 v=0
82524 On ch=8 n=62 v=15
82536 On ch=8 n=62 v=0
82536 On ch=8 n=60 v=15
82548 On ch=8 n=60 v=0
82548 On ch=8 n=62 v=15
82560 On ch=8 n=62 v=0
82560 On ch=8 n=60 v=15
82572 On ch=8 n=60 v=0
82572 On ch=8 n=62 v=15
82584 On ch=8 n=62 v=0
82584 On ch=8 n=60 v=15
82596 On ch=8 n=60 v=0
82596 On ch=8 n=62 v=15
82608 On ch=8 n=62 v=0
82608 On ch=8 n=60 v=15
82620 On ch=8 n=60 v=0
82620 On ch=8 n=62 v=15
82632 On ch=8 n=62 v=0
82632 On ch=8 n=60 v=15
82644 On ch=8 n=60 v=0
82644 On ch=8 n=62 v=15
82656 On ch=8 n=62 v=0
82656 On ch=8 n=60 v=15
82668 On ch=8 n=60 v=0
82668 On ch=8 n=62 v=15
82680 On ch=8 n=62 v=0
82680 On ch=8 n=60 v=15
82692 On ch=8 n=60 v=0
82692 On ch=8 n=62 v=15
82704 On ch=8 n=62 v=0
82704 On ch=8 n=60 v=15
82716 On ch=8 n=60 v=0
82716 On ch=8 n=62 v=15
82728 On ch=8 n=62 v=0
82728 On ch=8 n=60 v=15
82740 On ch=8 n=60 v=0
82740 On ch=8 n=62 v=15
82752 On ch=8 n=62 v=0
82752 On ch=8 n=60 v=15
82764 On ch=8 n=60 v=0
82764 On ch=8 n=62 v=15
82776 On ch=8 n=62 v=0
82776 On ch=8 n=60 v=15
82788 On ch=8 n=60 v=0
82788 On ch=8 n=62 v=15
82800 On ch=8 n=62 v=0
82800 On ch=8 n=60 v=15
82812 On ch=8 n=60 v=0
82812 On ch=8 n=62 v=15
82824 On ch=8 n=62 v=0
82824 On ch=8 n=60 v=15
82836 On ch=8 n=60 v=0
82836 On ch=8 n=62 v=15
82848 On ch=8 n=62 v=0
82848 On ch=8 n=60 v=15
82860 On ch=8 n=60 v=0
82860 On ch=8 n=62 v=15
82872 On ch=8 n=62 v=0
82872 On ch=8 n=60 v=15
82884 On ch=8 n=60 v=0
82884 On ch=8 n=62 v=15
82896 On ch=8 n=62 v=0
82896 On ch=8 n=60 v=15
82908 On ch=8 n=60 v=0
82908 On ch=8 n=62 v=15
82920 On ch=8 n=62 v=0
82920 On ch=8 n=60 v=15
82932 On ch=8 n=60 v=0
82932 On ch=8 n=62 v=15
82944 On ch=8 n=62 v=0
82944 On ch=8 n=60 v=15
82982 On ch=8 n=60 v=0
85152 On ch=8 n=51 v=31
85183 On ch=8 n=51 v=0
85224 On ch=8 n=53 v=31
85240 On ch=8 n=53 v=0
85248 On ch=8 n=53 v=31
85296 On ch=8 n=53 v=0
85296 On ch=8 n=54 v=31
85327 On ch=8 n=54 v=0
85344 On ch=8 n=46 v=31
85375 On ch=8 n=46 v=0
85416 On ch=8 n=47 v=31
85432 On ch=8 n=47 v=0
85440 On ch=8 n=49 v=31
85502 On ch=8 n=49 v=0
85536 On ch=8 n=51 v=31
85598 On ch=8 n=51 v=0
85632 On ch=8 n=47 v=31
86093 On ch=8 n=47 v=0
86400 On ch=8 n=66 v=15
86412 On ch=8 n=66 v=0
86412 On ch=8 n=68 v=15
86424 On ch=8 n=66 v=15
86436 On ch=8 n=66 v=0
86436 On ch=8 n=68 v=15
86448 On ch=8 n=66 v=15
86460 On ch=8 n=66 v=0
86460 On ch=8 n=68 v=0
86460 On ch=8 n=68 v=15
86472 On ch=8 n=66 v=15
86484 On ch=8 n=66 v=0
86484 On ch=8 n=68 v=0
86484 On ch=8 n=68 v=15
86496 On ch=8 n=66 v=15
86508 On ch=8 n=66 v=0
86508 On ch=8 n=68 v=0
86508 On ch=8 n=68 v=15
86520 On ch=8 n=66 v=15
86532 On ch=8 n=66 v=0
86532 On ch=8 n=68 v=0
86532 On ch=8 n=68 v=15
86544 On ch=8 n=66 v=15
86556 On ch=8 n=66 v=0
86556 On ch=8 n=68 v=0
86556 On ch=8 n=68 v=15
86568 On ch=8 n=66 v=15
86580 On ch=8 n=66 v=0
86580 On ch=8 n=68 v=0
86580 On ch=8 n=68 v=15
86592 On ch=8 n=66 v=15
86604 On ch=8 n=66 v=0
86604 On ch=8 n=68 v=0
86604 On ch=8 n=68 v=15
86616 On ch=8 n=66 v=15
86628 On ch=8 n=66 v=0
86628 On ch=8 n=68 v=0
86628 On ch=8 n=68 v=15
86640 On ch=8 n=66 v=15
86652 On ch=8 n=66 v=0
86652 On ch=8 n=68 v=0
86652 On ch=8 n=68 v=15
86664 On ch=8 n=66 v=15
86676 On ch=8 n=66 v=0
86676 On ch=8 n=68 v=0
86676 On ch=8 n=68 v=15
86688 On ch=8 n=66 v=15
86700 On ch=8 n=66 v=0
86700 On ch=8 n=68 v=0
86700 On ch=8 n=68 v=15
86712 On ch=8 n=66 v=15
86724 On ch=8 n=66 v=0
86724 On ch=8 n=68 v=0
86724 On ch=8 n=68 v=15
86736 On ch=8 n=66 v=15
86748 On ch=8 n=66 v=0
86748 On ch=8 n=68 v=0
86748 On ch=8 n=68 v=15
86760 On ch=8 n=66 v=15
86772 On ch=8 n=66 v=0
86772 On ch=8 n=68 v=0
86772 On ch=8 n=68 v=15
86784 On ch=8 n=66 v=15
86796 On ch=8 n=66 v=0
86796 On ch=8 n=68 v=0
86796 On ch=8 n=68 v=15
86808 On ch=8 n=66 v=15
86820 On ch=8 n=66 v=0
86820 On ch=8 n=68 v=0
86820 On ch=8 n=68 v=15
86832 On ch=8 n=66 v=15
86844 On ch=8 n=66 v=0
86844 On ch=8 n=68 v=0
86844 On ch=8 n=68 v=15
86856 On ch=8 n=66 v=15
86868 On ch=8 n=66 v=0
86868 On ch=8 n=68 v=0
86868 On ch=8 n=68 v=15
86880 On ch=8 n=66 v=15
86892 On ch=8 n=66 v=0
86892 On ch=8 n=68 v=0
86892 On ch=8 n=68 v=15
86904 On ch=8 n=66 v=15
86916 On ch=8 n=66 v=0
86916 On ch=8 n=68 v=0
86916 On ch=8 n=68 v=15
86928 On ch=8 n=66 v=15
86940 On ch=8 n=66 v=0
86940 On ch=8 n=68 v=0
86940 On ch=8 n=68 v=15
86952 On ch=8 n=66 v=15
86964 On ch=8 n=66 v=0
86964 On ch=8 n=68 v=0
86964 On ch=8 n=68 v=15
86976 On ch=8 n=66 v=15
86988 On ch=8 n=66 v=0
86988 On ch=8 n=68 v=0
86988 On ch=8 n=68 v=15
87000 On ch=8 n=66 v=15
87012 On ch=8 n=66 v=0
87012 On ch=8 n=68 v=0
87012 On ch=8 n=68 v=15
87024 On ch=8 n=66 v=15
87036 On ch=8 n=66 v=0
87036 On ch=8 n=68 v=0
87036 On ch=8 n=68 v=15
87048 On ch=8 n=66 v=15
87060 On ch=8 n=66 v=0
87060 On ch=8 n=68 v=0
87060 On ch=8 n=68 v=15
87072 On ch=8 n=66 v=15
87084 On ch=8 n=66 v=0
87084 On ch=8 n=68 v=0
87084 On ch=8 n=68 v=15
87096 On ch=8 n=66 v=15
87108 On ch=8 n=66 v=0
87108 On ch=8 n=68 v=0
87108 On ch=8 n=68 v=15
87120 On ch=8 n=66 v=15
87132 On ch=8 n=66 v=0
87132 On ch=8 n=68 v=0
87132 On ch=8 n=68 v=15
87144 On ch=8 n=66 v=15
87156 On ch=8 n=66 v=0
87156 On ch=8 n=68 v=0
87156 On ch=8 n=68 v=15
87168 On ch=8 n=66 v=15
87180 On ch=8 n=66 v=0
87180 On ch=8 n=68 v=0
87180 On ch=8 n=68 v=15
87192 On ch=8 n=66 v=15
87204 On ch=8 n=66 v=0
87204 On ch=8 n=68 v=0
87204 On ch=8 n=68 v=15
87216 On ch=8 n=66 v=15
87228 On ch=8 n=66 v=0
87228 On ch=8 n=68 v=0
87228 On ch=8 n=68 v=15
87240 On ch=8 n=66 v=15
87252 On ch=8 n=66 v=0
87252 On ch=8 n=68 v=0
87252 On ch=8 n=68 v=15
87264 On ch=8 n=66 v=15
87276 On ch=8 n=66 v=0
87276 On ch=8 n=68 v=0
87276 On ch=8 n=68 v=15
87288 On ch=8 n=66 v=15
87300 On ch=8 n=66 v=0
87300 On ch=8 n=68 v=0
87300 On ch=8 n=68 v=15
87312 On ch=8 n=66 v=15
87324 On ch=8 n=66 v=0
87324 On ch=8 n=68 v=0
87324 On ch=8 n=68 v=15
87336 On ch=8 n=66 v=15
87348 On ch=8 n=66 v=0
87348 On ch=8 n=68 v=0
87348 On ch=8 n=68 v=15
87360 On ch=8 n=66 v=15
87372 On ch=8 n=66 v=0
87372 On ch=8 n=68 v=0
87372 On ch=8 n=68 v=15
87384 On ch=8 n=66 v=15
87396 On ch=8 n=66 v=0
87396 On ch=8 n=68 v=0
87396 On ch=8 n=68 v=15
87408 On ch=8 n=66 v=15
87420 On ch=8 n=66 v=0
87420 On ch=8 n=68 v=0
87420 On ch=8 n=68 v=15
87432 On ch=8 n=66 v=15
87444 On ch=8 n=66 v=0
87444 On ch=8 n=68 v=0
87444 On ch=8 n=68 v=15
87456 On ch=8 n=66 v=15
87468 On ch=8 n=66 v=0
87468 On ch=8 n=68 v=0
87468 On ch=8 n=68 v=15
87480 On ch=8 n=66 v=15
87492 On ch=8 n=66 v=0
87492 On ch=8 n=68 v=0
87492 On ch=8 n=68 v=15
87504 On ch=8 n=66 v=15
87516 On ch=8 n=66 v=0
87516 On ch=8 n=68 v=0
87516 On ch=8 n=68 v=15
87528 On ch=8 n=66 v=15
87540 On ch=8 n=66 v=0
87540 On ch=8 n=68 v=0
87540 On ch=8 n=68 v=15
87552 On ch=8 n=66 v=15
87564 On ch=8 n=66 v=0
87564 On ch=8 n=68 v=0
87564 On ch=8 n=68 v=15
87576 On ch=8 n=66 v=15
87588 On ch=8 n=66 v=0
87588 On ch=8 n=68 v=0
87588 On ch=8 n=68 v=15
87600 On ch=8 n=66 v=15
87612 On ch=8 n=66 v=0
87612 On ch=8 n=68 v=0
87612 On ch=8 n=68 v=15
87624 On ch=8 n=66 v=15
87636 On ch=8 n=66 v=0
87636 On ch=8 n=68 v=0
87636 On ch=8 n=68 v=15
87648 On ch=8 n=66 v=15
87660 On ch=8 n=66 v=0
87660 On ch=8 n=68 v=0
87660 On ch=8 n=68 v=15
87672 On ch=8 n=66 v=15
87684 On ch=8 n=66 v=0
87684 On ch=8 n=68 v=0
87684 On ch=8 n=68 v=15
87696 On ch=8 n=66 v=15
87708 On ch=8 n=66 v=0
87708 On ch=8 n=68 v=0
87708 On ch=8 n=68 v=15
87720 On ch=8 n=66 v=15
87732 On ch=8 n=66 v=0
87732 On ch=8 n=68 v=0
87732 On ch=8 n=68 v=15
87744 On ch=8 n=66 v=15
87756 On ch=8 n=66 v=0
87756 On ch=8 n=68 v=0
87756 On ch=8 n=68 v=15
87768 On ch=8 n=66 v=15
87780 On ch=8 n=66 v=0
87780 On ch=8 n=68 v=0
87780 On ch=8 n=68 v=15
87792 On ch=8 n=66 v=15
87804 On ch=8 n=66 v=0
87804 On ch=8 n=68 v=0
87804 On ch=8 n=68 v=15
87816 On ch=8 n=66 v=15
87828 On ch=8 n=66 v=0
87828 On ch=8 n=68 v=0
87828 On ch=8 n=68 v=15
87840 On ch=8 n=66 v=15
87852 On ch=8 n=66 v=0
87852 On ch=8 n=68 v=0
87852 On ch=8 n=68 v=15
87864 On ch=8 n=66 v=15
87876 On ch=8 n=66 v=0
87876 On ch=8 n=68 v=0
87876 On ch=8 n=68 v=15
87888 On ch=8 n=66 v=15
87900 On ch=8 n=66 v=0
87900 On ch=8 n=68 v=0
87900 On ch=8 n=68 v=15
87912 On ch=8 n=66 v=15
87924 On ch=8 n=66 v=0
87924 On ch=8 n=68 v=0
87924 On ch=8 n=68 v=15
87936 Par ch=8 c=11 v=64
87936 On ch=8 n=66 v=15
87948 On ch=8 n=66 v=0
87948 On ch=8 n=68 v=0
87948 On ch=8 n=68 v=15
87960 Par ch=8 c=11 v=63
87960 On ch=8 n=66 v=15
87972 On ch=8 n=66 v=0
87972 On ch=8 n=68 v=0
87972 On ch=8 n=68 v=15
87984 Par ch=8 c=11 v=62
87984 On ch=8 n=66 v=15
87996 On ch=8 n=66 v=0
87996 On ch=8 n=68 v=0
87996 On ch=8 n=68 v=15
88004 Par ch=8 c=11 v=61
88008 On ch=8 n=66 v=15
88020 On ch=8 n=66 v=0
88020 On ch=8 n=68 v=0
88020 On ch=8 n=68 v=15
88028 Par ch=8 c=11 v=60
88032 On ch=8 n=66 v=15
88044 On ch=8 n=66 v=0
88044 On ch=8 n=68 v=0
88044 On ch=8 n=68 v=15
88052 Par ch=8 c=11 v=59
88056 On ch=8 n=66 v=15
88068 On ch=8 n=66 v=0
88068 On ch=8 n=68 v=0
88068 On ch=8 n=68 v=15
88072 Par ch=8 c=11 v=58
88080 On ch=8 n=66 v=15
88092 On ch=8 n=66 v=0
88092 On ch=8 n=68 v=0
88092 On ch=8 n=68 v=15
88096 Par ch=8 c=11 v=57
88104 On ch=8 n=66 v=15
88116 On ch=8 n=66 v=0
88116 On ch=8 n=68 v=0
88116 On ch=8 n=68 v=15
88120 Par ch=8 c=11 v=56
88128 On ch=8 n=66 v=15
88140 On ch=8 n=66 v=0
88140 On ch=8 n=68 v=0
88140 Par ch=8 c=11 v=55
88140 On ch=8 n=68 v=15
88152 On ch=8 n=66 v=15
88164 On ch=8 n=66 v=0
88164 On ch=8 n=68 v=0
88164 Par ch=8 c=11 v=54
88164 On ch=8 n=68 v=15
88176 On ch=8 n=66 v=15
88188 On ch=8 n=66 v=0
88188 On ch=8 n=68 v=0
88188 Par ch=8 c=11 v=53
88188 On ch=8 n=68 v=15
88200 On ch=8 n=66 v=15
88208 Par ch=8 c=11 v=52
88212 On ch=8 n=66 v=0
88212 On ch=8 n=68 v=0
88212 On ch=8 n=68 v=15
88224 On ch=8 n=66 v=15
88232 Par ch=8 c=11 v=51
88236 On ch=8 n=66 v=0
88236 On ch=8 n=68 v=0
88236 On ch=8 n=68 v=15
88248 On ch=8 n=66 v=15
88256 Par ch=8 c=11 v=50
88260 On ch=8 n=66 v=0
88260 On ch=8 n=68 v=0
88260 On ch=8 n=68 v=15
88272 On ch=8 n=66 v=15
88276 Par ch=8 c=11 v=49
88284 On ch=8 n=66 v=0
88284 On ch=8 n=68 v=0
88284 On ch=8 n=68 v=15
88296 On ch=8 n=66 v=15
88300 Par ch=8 c=11 v=48
88308 On ch=8 n=66 v=0
88308 On ch=8 n=68 v=0
88308 On ch=8 n=68 v=15
88332 On ch=8 n=68 v=0
88356 On ch=8 n=68 v=0
88608 Par ch=8 c=11 v=64
88608 On ch=8 n=42 v=31
88646 On ch=8 n=42 v=0
88704 On ch=8 n=51 v=31
88800 On ch=8 n=51 v=0
88800 On ch=8 n=49 v=31
88831 On ch=8 n=49 v=0
88872 On ch=8 n=47 v=31
88888 On ch=8 n=47 v=0
88896 On ch=8 n=47 v=31
88992 On ch=8 n=47 v=0
88992 On ch=8 n=42 v=31
89023 On ch=8 n=42 v=0
89064 On ch=8 n=39 v=31
89080 On ch=8 n=39 v=0
89088 On ch=8 n=39 v=31
89119 On ch=8 n=39 v=0
89856 Par ch=8 c=0 v=0
89856 Par ch=8 c=32 v=0
89856 PrCh ch=8 p=45
89856 On ch=8 n=54 v=47
89856 On ch=8 n=47 v=47
89933 On ch=8 n=47 v=0
89933 On ch=8 n=54 v=0
90240 On ch=8 n=54 v=31
90240 On ch=8 n=47 v=31
90317 On ch=8 n=47 v=0
90317 On ch=8 n=54 v=0
90624 On ch=8 n=54 v=15
90624 On ch=8 n=47 v=15
90701 On ch=8 n=47 v=0
90701 On ch=8 n=54 v=0
91392 Par ch=8 c=0 v=0
91392 Par ch=8 c=32 v=0
91392 PrCh ch=8 p=48
91392 On ch=8 n=54 v=15
91404 On ch=8 n=54 v=0
91404 On ch=8 n=56 v=15
91416 On ch=8 n=56 v=0
91416 On ch=8 n=54 v=15
91428 On ch=8 n=54 v=0
91428 On ch=8 n=56 v=15
91440 On ch=8 n=56 v=0
91440 On ch=8 n=54 v=15
91452 On ch=8 n=54 v=0
91452 On ch=8 n=56 v=15
91464 On ch=8 n=56 v=0
91464 On ch=8 n=54 v=15
91476 On ch=8 n=54 v=0
91476 On ch=8 n=56 v=15
91488 On ch=8 n=56 v=0
91488 On ch=8 n=54 v=15
91500 On ch=8 n=54 v=0
91500 On ch=8 n=56 v=15
91512 On ch=8 n=56 v=0
91512 On ch=8 n=54 v=15
91524 On ch=8 n=54 v=0
91524 On ch=8 n=56 v=15
91536 On ch=8 n=56 v=0
91536 On ch=8 n=54 v=15
91548 On ch=8 n=54 v=0
91548 On ch=8 n=56 v=15
91560 On ch=8 n=56 v=0
91560 On ch=8 n=54 v=15
91572 On ch=8 n=54 v=0
91572 On ch=8 n=56 v=15
91584 On ch=8 n=56 v=0
91584 On ch=8 n=54 v=15
91596 On ch=8 n=54 v=0
91596 On ch=8 n=56 v=15
91608 On ch=8 n=56 v=0
91608 On ch=8 n=54 v=15
91620 On ch=8 n=54 v=0
91620 On ch=8 n=56 v=15
91632 On ch=8 n=56 v=0
91632 On ch=8 n=54 v=15
91644 On ch=8 n=54 v=0
91644 On ch=8 n=56 v=15
91656 On ch=8 n=56 v=0
91656 On ch=8 n=54 v=15
91668 On ch=8 n=54 v=0
91668 On ch=8 n=56 v=15
91680 On ch=8 n=56 v=0
91680 On ch=8 n=54 v=15
91692 On ch=8 n=54 v=0
91692 On ch=8 n=56 v=15
91704 On ch=8 n=56 v=0
91704 On ch=8 n=54 v=15
91716 On ch=8 n=54 v=0
91716 On ch=8 n=56 v=15
91728 On ch=8 n=56 v=0
91728 On ch=8 n=54 v=15
91740 On ch=8 n=54 v=0
91740 On ch=8 n=56 v=15
91752 On ch=8 n=56 v=0
91752 On ch=8 n=54 v=15
91764 On ch=8 n=54 v=0
91764 On ch=8 n=56 v=15
91776 On ch=8 n=56 v=0
91776 On ch=8 n=54 v=15
91788 On ch=8 n=54 v=0
91788 On ch=8 n=56 v=15
91800 On ch=8 n=56 v=0
91800 On ch=8 n=54 v=15
91812 On ch=8 n=54 v=0
91812 On ch=8 n=56 v=15
91824 On ch=8 n=56 v=0
91824 On ch=8 n=54 v=15
91836 On ch=8 n=54 v=0
91836 On ch=8 n=56 v=15
91848 On ch=8 n=56 v=0
91848 On ch=8 n=54 v=15
91860 On ch=8 n=54 v=0
91860 On ch=8 n=56 v=15
91872 On ch=8 n=56 v=0
91872 On ch=8 n=54 v=15
91884 On ch=8 n=54 v=0
91884 On ch=8 n=56 v=15
91896 On ch=8 n=56 v=0
91896 On ch=8 n=54 v=15
91908 On ch=8 n=54 v=0
91908 On ch=8 n=56 v=15
91920 On ch=8 n=56 v=0
91920 On ch=8 n=54 v=15
91932 On ch=8 n=54 v=0
91932 On ch=8 n=56 v=15
91944 On ch=8 n=56 v=0
91944 On ch=8 n=54 v=15
91956 On ch=8 n=54 v=0
91956 On ch=8 n=56 v=15
91968 On ch=8 n=56 v=0
91968 On ch=8 n=54 v=15
91980 On ch=8 n=54 v=0
91980 On ch=8 n=56 v=15
91992 On ch=8 n=56 v=0
91992 On ch=8 n=54 v=15
92004 On ch=8 n=54 v=0
92004 On ch=8 n=56 v=15
92016 On ch=8 n=56 v=0
92016 On ch=8 n=54 v=15
92028 On ch=8 n=54 v=0
92028 On ch=8 n=56 v=15
92040 On ch=8 n=56 v=0
92040 On ch=8 n=54 v=15
92052 On ch=8 n=54 v=0
92052 On ch=8 n=56 v=15
92064 On ch=8 n=56 v=0
92064 On ch=8 n=54 v=15
92076 On ch=8 n=54 v=0
92076 On ch=8 n=56 v=15
92088 On ch=8 n=56 v=0
92088 On ch=8 n=54 v=15
92100 On ch=8 n=54 v=0
92100 On ch=8 n=56 v=15
92112 On ch=8 n=56 v=0
92112 On ch=8 n=54 v=15
92124 On ch=8 n=54 v=0
92124 On ch=8 n=56 v=15
92136 On ch=8 n=56 v=0
92136 On ch=8 n=54 v=15
92148 On ch=8 n=54 v=0
92148 On ch=8 n=56 v=15
92160 On ch=8 n=56 v=0
92160 On ch=8 n=47 v=15
92172 On ch=8 n=47 v=0
92172 On ch=8 n=49 v=15
92184 On ch=8 n=49 v=0
92184 On ch=8 n=47 v=15
92196 On ch=8 n=47 v=0
92196 On ch=8 n=49 v=15
92208 On ch=8 n=49 v=0
92208 On ch=8 n=47 v=15
92220 On ch=8 n=47 v=0
92220 On ch=8 n=49 v=15
92232 On ch=8 n=49 v=0
92232 On ch=8 n=47 v=15
92244 On ch=8 n=47 v=0
92244 On ch=8 n=49 v=15
92256 On ch=8 n=49 v=0
92256 On ch=8 n=47 v=15
92268 On ch=8 n=47 v=0
92268 On ch=8 n=49 v=15
92280 On ch=8 n=49 v=0
92280 On ch=8 n=47 v=15
92292 On ch=8 n=47 v=0
92292 On ch=8 n=49 v=15
92304 On ch=8 n=49 v=0
92304 On ch=8 n=47 v=15
92316 On ch=8 n=47 v=0
92316 On ch=8 n=49 v=15
92328 On ch=8 n=49 v=0
92328 On ch=8 n=47 v=15
92340 On ch=8 n=47 v=0
92340 On ch=8 n=49 v=15
92352 On ch=8 n=49 v=0
92352 On ch=8 n=47 v=15
92364 On ch=8 n=47 v=0
92364 On ch=8 n=49 v=15
92376 On ch=8 n=49 v=0
92376 On ch=8 n=47 v=15
92388 On ch=8 n=47 v=0
92388 On ch=8 n=49 v=15
92400 On ch=8 n=49 v=0
92400 On ch=8 n=47 v=15
92412 On ch=8 n=47 v=0
92412 On ch=8 n=49 v=15
92424 On ch=8 n=49 v=0
92424 On ch=8 n=47 v=15
92436 On ch=8 n=47 v=0
92436 On ch=8 n=49 v=15
92448 On ch=8 n=49 v=0
92448 On ch=8 n=47 v=15
92460 On ch=8 n=47 v=0
92460 On ch=8 n=49 v=15
92472 On ch=8 n=49 v=0
92472 On ch=8 n=47 v=15
92484 On ch=8 n=47 v=0
92484 On ch=8 n=49 v=15
92496 On ch=8 n=49 v=0
92496 On ch=8 n=47 v=15
92508 On ch=8 n=47 v=0
92508 On ch=8 n=49 v=15
92520 On ch=8 n=49 v=0
92520 On ch=8 n=47 v=15
92532 On ch=8 n=47 v=0
92532 On ch=8 n=49 v=15
92544 On ch=8 n=49 v=0
92544 On ch=8 n=47 v=15
92556 On ch=8 n=47 v=0
92556 On ch=8 n=49 v=15
92568 On ch=8 n=49 v=0
92568 On ch=8 n=47 v=15
92580 On ch=8 n=47 v=0
92580 On ch=8 n=49 v=15
92592 On ch=8 n=49 v=0
92592 On ch=8 n=47 v=15
92604 On ch=8 n=47 v=0
92604 On ch=8 n=49 v=15
92616 On ch=8 n=49 v=0
92616 On ch=8 n=47 v=15
92628 On ch=8 n=47 v=0
92628 On ch=8 n=49 v=15
92640 On ch=8 n=49 v=0
92640 On ch=8 n=47 v=15
92652 On ch=8 n=47 v=0
92652 On ch=8 n=49 v=15
92664 On ch=8 n=49 v=0
92664 On ch=8 n=47 v=15
92676 On ch=8 n=47 v=0
92676 On ch=8 n=49 v=15
92688 On ch=8 n=49 v=0
92688 On ch=8 n=47 v=15
92700 On ch=8 n=47 v=0
92700 On ch=8 n=49 v=15
92712 On ch=8 n=49 v=0
92712 On ch=8 n=47 v=15
92724 On ch=8 n=47 v=0
92724 On ch=8 n=49 v=15
92736 On ch=8 n=49 v=0
92736 On ch=8 n=47 v=15
92748 On ch=8 n=47 v=0
92748 On ch=8 n=49 v=15
92760 On ch=8 n=49 v=0
92760 On ch=8 n=47 v=15
92772 On ch=8 n=47 v=0
92772 On ch=8 n=49 v=15
92784 On ch=8 n=49 v=0
92784 On ch=8 n=47 v=15
92796 On ch=8 n=47 v=0
92796 On ch=8 n=49 v=15
92808 On ch=8 n=49 v=0
92808 On ch=8 n=47 v=15
92820 On ch=8 n=47 v=0
92820 On ch=8 n=49 v=15
92832 On ch=8 n=49 v=0
92832 On ch=8 n=47 v=15
92844 On ch=8 n=47 v=0
92844 On ch=8 n=49 v=15
92856 On ch=8 n=49 v=0
92856 On ch=8 n=47 v=15
92868 On ch=8 n=47 v=0
92868 On ch=8 n=49 v=15
92880 On ch=8 n=49 v=0
92880 On ch=8 n=47 v=15
92892 On ch=8 n=47 v=0
92892 On ch=8 n=49 v=15
92904 On ch=8 n=49 v=0
92904 On ch=8 n=47 v=15
92916 On ch=8 n=47 v=0
93696 On ch=8 n=51 v=127
93715 On ch=8 n=51 v=0
93720 On ch=8 n=50 v=127
93739 On ch=8 n=50 v=0
93744 On ch=8 n=51 v=127
93763 On ch=8 n=51 v=0
93768 On ch=8 n=53 v=127
93787 On ch=8 n=53 v=0
93792 On ch=8 n=54 v=127
93830 On ch=8 n=54 v=0
94464 On ch=8 n=54 v=127
94483 On ch=8 n=54 v=0
94488 On ch=8 n=53 v=127
94507 On ch=8 n=53 v=0
94512 On ch=8 n=54 v=127
94531 On ch=8 n=54 v=0
94536 On ch=8 n=56 v=127
94555 On ch=8 n=56 v=0
94560 On ch=8 n=57 v=127
94598 On ch=8 n=57 v=0
95064 On ch=8 n=51 v=127
95083 On ch=8 n=51 v=0
95088 On ch=8 n=53 v=127
95107 On ch=8 n=53 v=0
95112 On ch=8 n=54 v=127
95131 On ch=8 n=54 v=0
95136 On ch=8 n=56 v=127
95155 On ch=8 n=56 v=0
95160 On ch=8 n=58 v=127
95179 On ch=8 n=58 v=0
95184 On ch=8 n=60 v=127
95203 On ch=8 n=60 v=0
95208 On ch=8 n=62 v=127
95227 On ch=8 n=62 v=0
95232 On ch=8 n=63 v=127
95263 On ch=8 n=63 v=0
95304 On ch=8 n=58 v=127
95320 On ch=8 n=58 v=0
95328 Par ch=8 c=0 v=0
95328 Par ch=8 c=32 v=0
95328 PrCh ch=8 p=44
95328 Par ch=8 c=11 v=64
95328 On ch=8 n=51 v=127
95348 Par ch=8 c=11 v=63
95364 Par ch=8 c=11 v=62
95380 Par ch=8 c=11 v=61
95396 Par ch=8 c=11 v=60
95416 Par ch=8 c=11 v=59
95432 Par ch=8 c=11 v=58
95448 Par ch=8 c=11 v=57
95464 Par ch=8 c=11 v=56
95484 Par ch=8 c=11 v=55
95500 Par ch=8 c=11 v=54
95516 Par ch=8 c=11 v=53
95532 Par ch=8 c=11 v=52
95552 Par ch=8 c=11 v=51
95558 On ch=8 n=51 v=0
95568 Par ch=8 c=11 v=50
95584 Par ch=8 c=11 v=49
95600 Par ch=8 c=11 v=48
95616 Par ch=8 c=11 v=64
95616 On ch=8 n=51 v=47
95693 On ch=8 n=51 v=0
95712 On ch=8 n=50 v=47
95789 On ch=8 n=50 v=0
95808 On ch=8 n=49 v=47
95885 On ch=8 n=49 v=0
95904 On ch=8 n=48 v=47
95981 On ch=8 n=48 v=0
96000 Par ch=8 c=11 v=64
96000 On ch=8 n=47 v=47
96048 Par ch=8 c=11 v=63
96092 Par ch=8 c=11 v=62
96115 On ch=8 n=47 v=0
96128 On ch=8 n=46 v=47
96136 Par ch=8 c=11 v=61
96184 Par ch=8 c=11 v=60
96228 Par ch=8 c=11 v=59
96243 On ch=8 n=46 v=0
96256 On ch=8 n=45 v=47
96272 Par ch=8 c=11 v=58
96320 Par ch=8 c=11 v=57
96364 Par ch=8 c=11 v=56
96371 On ch=8 n=45 v=0
96384 On ch=8 n=44 v=47
96408 Par ch=8 c=11 v=55
96452 Par ch=8 c=11 v=54
96500 Par ch=8 c=11 v=53
96538 On ch=8 n=44 v=0
96544 Par ch=8 c=11 v=52
96576 On ch=8 n=43 v=47
96588 Par ch=8 c=11 v=51
96636 Par ch=8 c=11 v=50
96680 Par ch=8 c=11 v=49
96724 Par ch=8 c=11 v=48
96730 On ch=8 n=43 v=0
96768 On ch=8 n=42 v=47
96998 On ch=8 n=42 v=0
97056 On ch=8 n=41 v=47
97133 On ch=8 n=41 v=0
97152 Par ch=8 c=11 v=48
97152 On ch=8 n=41 v=47
97176 Par ch=8 c=11 v=47
97196 Par ch=8 c=11 v=46
97216 Par ch=8 c=11 v=45
97240 Par ch=8 c=11 v=44
97260 Par ch=8 c=11 v=43
97280 Par ch=8 c=11 v=42
97304 Par ch=8 c=11 v=41
97306 On ch=8 n=41 v=0
97324 Par ch=8 c=11 v=40
97344 Par ch=8 c=11 v=39
97344 On ch=8 n=40 v=47
97368 Par ch=8 c=11 v=38
97388 Par ch=8 c=11 v=37
97408 Par ch=8 c=11 v=36
97432 Par ch=8 c=11 v=35
97452 Par ch=8 c=11 v=34
97472 Par ch=8 c=11 v=33
97496 Par ch=8 c=11 v=32
97498 On ch=8 n=40 v=0
97536 Par ch=8 c=11 v=64
97536 Par ch=8 c=0 v=0
97536 Par ch=8 c=32 v=0
97536 PrCh ch=8 p=48
97536 On ch=8 n=39 v=31
97567 On ch=8 n=39 v=0
97620 On ch=8 n=41 v=31
97632 On ch=8 n=41 v=0
97632 On ch=8 n=42 v=31
97663 On ch=8 n=42 v=0
97716 On ch=8 n=44 v=31
97728 On ch=8 n=44 v=0
97728 On ch=8 n=46 v=31
97759 On ch=8 n=46 v=0
97812 On ch=8 n=48 v=31
97824 On ch=8 n=48 v=0
97824 On ch=8 n=50 v=31
97855 On ch=8 n=50 v=0
97908 On ch=8 n=46 v=31
97920 On ch=8 n=46 v=0
97920 On ch=8 n=51 v=31
97951 On ch=8 n=51 v=0
98004 On ch=8 n=54 v=31
98016 On ch=8 n=54 v=0
98016 On ch=8 n=53 v=31
98047 On ch=8 n=53 v=0
98100 On ch=8 n=51 v=31
98112 On ch=8 n=51 v=0
98112 On ch=8 n=49 v=31
98143 On ch=8 n=49 v=0
98196 On ch=8 n=47 v=31
98208 On ch=8 n=47 v=0
98208 On ch=8 n=46 v=31
98239 On ch=8 n=46 v=0
98292 On ch=8 n=45 v=31
98304 On ch=8 n=45 v=0
98304 On ch=8 n=46 v=31
98335 On ch=8 n=46 v=0
98388 On ch=8 n=42 v=31
98400 On ch=8 n=42 v=0
98400 On ch=8 n=46 v=31
98431 On ch=8 n=46 v=0
98484 On ch=8 n=42 v=31
98496 On ch=8 n=42 v=0
98496 On ch=8 n=46 v=31
98527 On ch=8 n=46 v=0
98580 On ch=8 n=42 v=31
98592 On ch=8 n=42 v=0
98592 On ch=8 n=44 v=31
98616 On ch=8 n=44 v=0
98616 On ch=8 n=42 v=31
98640 On ch=8 n=42 v=0
98640 On ch=8 n=41 v=31
98664 On ch=8 n=41 v=0
98664 On ch=8 n=42 v=31
98688 On ch=8 n=42 v=0
98688 On ch=8 n=46 v=31
98719 On ch=8 n=46 v=0
98772 On ch=8 n=42 v=31
98784 On ch=8 n=42 v=0
98784 On ch=8 n=46 v=31
98815 On ch=8 n=46 v=0
98868 On ch=8 n=42 v=31
98880 On ch=8 n=42 v=0
98880 On ch=8 n=46 v=31
98911 On ch=8 n=46 v=0
98964 On ch=8 n=42 v=31
98976 On ch=8 n=42 v=0
98976 On ch=8 n=47 v=31
99000 On ch=8 n=47 v=0
99000 On ch=8 n=46 v=31
99024 On ch=8 n=46 v=0
99024 On ch=8 n=44 v=31
99048 On ch=8 n=44 v=0
99048 On ch=8 n=42 v=31
99072 On ch=8 n=42 v=0
99072 On ch=8 n=46 v=31
99103 On ch=8 n=46 v=0
99156 On ch=8 n=45 v=31
99168 On ch=8 n=45 v=0
99168 On ch=8 n=44 v=31
99199 On ch=8 n=44 v=0
99252 On ch=8 n=42 v=31
99264 On ch=8 n=42 v=0
99264 On ch=8 n=41 v=31
99295 On ch=8 n=41 v=0
99348 On ch=8 n=38 v=31
99360 On ch=8 n=38 v=0
99360 On ch=8 n=39 v=31
99391 On ch=8 n=39 v=0
99444 On ch=8 n=42 v=31
99456 On ch=8 n=42 v=0
99456 On ch=8 n=47 v=31
99487 On ch=8 n=47 v=0
99540 On ch=8 n=46 v=31
99552 On ch=8 n=46 v=0
99552 On ch=8 n=44 v=31
99583 On ch=8 n=44 v=0
99636 On ch=8 n=42 v=31
99648 On ch=8 n=42 v=0
99648 On ch=8 n=41 v=31
99679 On ch=8 n=41 v=0
99732 On ch=8 n=44 v=31
99744 On ch=8 n=44 v=0
99744 On ch=8 n=47 v=31
99775 On ch=8 n=47 v=0
99828 On ch=8 n=51 v=31
99840 On ch=8 n=51 v=0
99840 On ch=8 n=50 v=31
99871 On ch=8 n=50 v=0
99924 On ch=8 n=47 v=31
99936 On ch=8 n=47 v=0
99936 On ch=8 n=46 v=31
99967 On ch=8 n=46 v=0
100020 On ch=8 n=49 v=31
100032 On ch=8 n=49 v=0
100032 On ch=8 n=48 v=31
100063 On ch=8 n=48 v=0
100116 On ch=8 n=45 v=31
100128 On ch=8 n=45 v=0
100128 On ch=8 n=44 v=31
100159 On ch=8 n=44 v=0
100212 On ch=8 n=47 v=31
100224 On ch=8 n=47 v=0
100224 On ch=8 n=56 v=31
100255 On ch=8 n=56 v=0
100308 On ch=8 n=55 v=31
100320 On ch=8 n=55 v=0
100320 On ch=8 n=54 v=31
100351 On ch=8 n=54 v=0
100404 On ch=8 n=51 v=31
100416 On ch=8 n=51 v=0
100416 On ch=8 n=47 v=31
100447 On ch=8 n=47 v=0
100500 On ch=8 n=45 v=31
100512 On ch=8 n=45 v=0
100512 On ch=8 n=46 v=31
100543 On ch=8 n=46 v=0
100596 On ch=8 n=46 v=31
100608 On ch=8 n=46 v=0
100608 On ch=8 n=39 v=31
100639 On ch=8 n=39 v=0
100680 On ch=8 n=41 v=31
100704 On ch=8 n=41 v=0
100704 On ch=8 n=42 v=31
100735 On ch=8 n=42 v=0
100776 On ch=8 n=44 v=31
100800 On ch=8 n=44 v=0
100800 On ch=8 n=46 v=31
100831 On ch=8 n=46 v=0
100872 On ch=8 n=48 v=31
100896 On ch=8 n=48 v=0
100896 On ch=8 n=50 v=31
100927 On ch=8 n=50 v=0
100968 On ch=8 n=46 v=31
100992 On ch=8 n=46 v=0
100992 On ch=8 n=51 v=31
101023 On ch=8 n=51 v=0
101064 On ch=8 n=49 v=31
101088 On ch=8 n=49 v=0
101088 On ch=8 n=47 v=31
101119 On ch=8 n=47 v=0
101160 On ch=8 n=46 v=31
101184 On ch=8 n=46 v=0
101184 On ch=8 n=44 v=31
101215 On ch=8 n=44 v=0
101256 On ch=8 n=42 v=31
101280 On ch=8 n=42 v=0
101280 On ch=8 n=40 v=31
101311 On ch=8 n=40 v=0
101352 On ch=8 n=39 v=31
101376 On ch=8 n=39 v=0
101376 On ch=8 n=40 v=31
101407 On ch=8 n=40 v=0
101448 On ch=8 n=42 v=31
101472 On ch=8 n=42 v=0
101472 On ch=8 n=44 v=31
101503 On ch=8 n=44 v=0
101544 On ch=8 n=46 v=31
101568 On ch=8 n=46 v=0
101568 On ch=8 n=47 v=31
101599 On ch=8 n=47 v=0
101640 On ch=8 n=49 v=31
101664 On ch=8 n=49 v=0
101664 On ch=8 n=51 v=31
101695 On ch=8 n=51 v=0
101736 On ch=8 n=47 v=31
101760 On ch=8 n=47 v=0
101760 On ch=8 n=53 v=31
101791 On ch=8 n=53 v=0
101832 On ch=8 n=51 v=31
101856 On ch=8 n=51 v=0
101856 On ch=8 n=49 v=31
101887 On ch=8 n=49 v=0
101928 On ch=8 n=48 v=31
101952 On ch=8 n=48 v=0
101952 On ch=8 n=46 v=31
101983 On ch=8 n=46 v=0
102024 On ch=8 n=44 v=31
102048 On ch=8 n=44 v=0
102048 On ch=8 n=42 v=31
102079 On ch=8 n=42 v=0
102120 On ch=8 n=41 v=31
102140 On ch=8 n=41 v=0
102144 On ch=8 n=51 v=31
102175 On ch=8 n=51 v=0
102216 On ch=8 n=49 v=31
102240 On ch=8 n=49 v=0
102240 On ch=8 n=48 v=31
102271 On ch=8 n=48 v=0
102312 On ch=8 n=46 v=31
102336 On ch=8 n=46 v=0
102336 On ch=8 n=45 v=31
102367 On ch=8 n=45 v=0
102408 On ch=8 n=41 v=31
102432 On ch=8 n=41 v=0
102432 On ch=8 n=43 v=31
102463 On ch=8 n=43 v=0
102504 On ch=8 n=44 v=31
102528 On ch=8 n=44 v=0
102528 On ch=8 n=46 v=31
102559 On ch=8 n=46 v=0
102600 On ch=8 n=53 v=31
102624 On ch=8 n=53 v=0
102624 On ch=8 n=51 v=31
102655 On ch=8 n=51 v=0
102696 On ch=8 n=49 v=31
102720 On ch=8 n=49 v=0
102720 On ch=8 n=48 v=31
102751 On ch=8 n=48 v=0
102792 On ch=8 n=45 v=31
102816 On ch=8 n=45 v=0
102816 On ch=8 n=46 v=31
102847 On ch=8 n=46 v=0
102888 On ch=8 n=48 v=31
102912 On ch=8 n=48 v=0
102912 On ch=8 n=49 v=31
102943 On ch=8 n=49 v=0
102984 On ch=8 n=53 v=31
103008 On ch=8 n=53 v=0
103008 On ch=8 n=58 v=31
103039 On ch=8 n=58 v=0
103080 On ch=8 n=56 v=31
103104 On ch=8 n=56 v=0
103104 On ch=8 n=54 v=31
103135 On ch=8 n=54 v=0
103176 On ch=8 n=53 v=31
103200 On ch=8 n=53 v=0
103200 On ch=8 n=52 v=31
103231 On ch=8 n=52 v=0
103272 On ch=8 n=48 v=31
103296 On ch=8 n=48 v=0
103296 On ch=8 n=53 v=31
103327 On ch=8 n=53 v=0
103368 On ch=8 n=51 v=31
103392 On ch=8 n=51 v=0
103392 On ch=8 n=50 v=31
103423 On ch=8 n=50 v=0
103464 On ch=8 n=46 v=31
103488 On ch=8 n=46 v=0
103488 On ch=8 n=47 v=31
103519 On ch=8 n=47 v=0
103560 On ch=8 n=42 v=31
103584 On ch=8 n=42 v=0
103584 On ch=8 n=44 v=31
103615 On ch=8 n=44 v=0
103656 On ch=8 n=46 v=31
103680 On ch=8 n=46 v=0
103680 On ch=8 n=39 v=31
103711 On ch=8 n=39 v=0
103752 On ch=8 n=41 v=31
103776 On ch=8 n=41 v=0
103776 On ch=8 n=42 v=31
103807 On ch=8 n=42 v=0
103848 On ch=8 n=44 v=31
103872 On ch=8 n=44 v=0
103872 On ch=8 n=46 v=31
103903 On ch=8 n=46 v=0
103944 On ch=8 n=48 v=31
103968 On ch=8 n=48 v=0
103968 On ch=8 n=49 v=31
103999 On ch=8 n=49 v=0
104040 On ch=8 n=46 v=31
104064 On ch=8 n=46 v=0
104064 On ch=8 n=47 v=31
104095 On ch=8 n=47 v=0
104136 On ch=8 n=49 v=31
104160 On ch=8 n=49 v=0
104160 On ch=8 n=51 v=31
104191 On ch=8 n=51 v=0
104232 On ch=8 n=53 v=31
104256 On ch=8 n=53 v=0
104256 On ch=8 n=55 v=31
104287 On ch=8 n=55 v=0
104328 On ch=8 n=56 v=31
104352 On ch=8 n=56 v=0
104352 On ch=8 n=58 v=31
104383 On ch=8 n=58 v=0
104448 On ch=8 n=44 v=31
104479 On ch=8 n=44 v=0
104520 On ch=8 n=46 v=31
104544 On ch=8 n=46 v=0
104544 On ch=8 n=47 v=31
104575 On ch=8 n=47 v=0
104616 On ch=8 n=49 v=31
104640 On ch=8 n=49 v=0
104640 On ch=8 n=51 v=31
104671 On ch=8 n=51 v=0
104712 On ch=8 n=52 v=31
104736 On ch=8 n=52 v=0
104736 On ch=8 n=54 v=31
104767 On ch=8 n=54 v=0
104808 On ch=8 n=56 v=31
104832 On ch=8 n=56 v=0
104832 On ch=8 n=52 v=31
104863 On ch=8 n=52 v=0
104904 On ch=8 n=54 v=31
104928 On ch=8 n=54 v=0
104928 On ch=8 n=56 v=31
104959 On ch=8 n=56 v=0
105000 On ch=8 n=58 v=31
105024 On ch=8 n=58 v=0
105024 On ch=8 n=59 v=31
105055 On ch=8 n=59 v=0
105096 On ch=8 n=61 v=31
105120 On ch=8 n=61 v=0
105120 On ch=8 n=63 v=31
105151 On ch=8 n=63 v=0
105216 Par ch=8 c=11 v=64
105216 On ch=8 n=38 v=47
105236 Par ch=8 c=11 v=65
105247 On ch=8 n=38 v=0
105256 Par ch=8 c=11 v=66
105272 Par ch=8 c=11 v=67
105288 On ch=8 n=39 v=47
105292 Par ch=8 c=11 v=68
105308 Par ch=8 c=11 v=69
105312 On ch=8 n=39 v=0
105312 On ch=8 n=41 v=47
105328 Par ch=8 c=11 v=70
105343 On ch=8 n=41 v=0
105344 Par ch=8 c=11 v=71
105364 Par ch=8 c=11 v=72
105384 Par ch=8 c=11 v=73
105384 On ch=8 n=42 v=47
105400 Par ch=8 c=11 v=74
105408 On ch=8 n=42 v=0
105408 On ch=8 n=44 v=47
105420 Par ch=8 c=11 v=75
105436 Par ch=8 c=11 v=76
105439 On ch=8 n=44 v=0
105456 Par ch=8 c=11 v=77
105472 Par ch=8 c=11 v=78
105480 On ch=8 n=46 v=47
105492 Par ch=8 c=11 v=79
105504 On ch=8 n=46 v=0
105504 On ch=8 n=47 v=47
105512 Par ch=8 c=11 v=80
105528 Par ch=8 c=11 v=81
105535 On ch=8 n=47 v=0
105548 Par ch=8 c=11 v=82
105564 Par ch=8 c=11 v=83
105576 On ch=8 n=44 v=47
105584 Par ch=8 c=11 v=84
105600 On ch=8 n=44 v=0
105600 Par ch=8 c=11 v=85
105600 On ch=8 n=46 v=47
105620 Par ch=8 c=11 v=86
105631 On ch=8 n=46 v=0
105640 Par ch=8 c=11 v=87
105656 Par ch=8 c=11 v=88
105672 On ch=8 n=48 v=47
105676 Par ch=8 c=11 v=89
105692 Par ch=8 c=11 v=90
105696 On ch=8 n=48 v=0
105696 On ch=8 n=49 v=47
105712 Par ch=8 c=11 v=91
105727 On ch=8 n=49 v=0
105728 Par ch=8 c=11 v=92
105748 Par ch=8 c=11 v=93
105768 Par ch=8 c=11 v=94
105768 On ch=8 n=51 v=47
105784 Par ch=8 c=11 v=95
105792 On ch=8 n=51 v=0
105792 On ch=8 n=53 v=47
105804 Par ch=8 c=11 v=96
105820 Par ch=8 c=11 v=97
105823 On ch=8 n=53 v=0
105840 Par ch=8 c=11 v=98
105856 Par ch=8 c=11 v=99
105864 On ch=8 n=54 v=47
105876 Par ch=8 c=11 v=100
105888 On ch=8 n=54 v=0
105888 On ch=8 n=56 v=47
105896 Par ch=8 c=11 v=101
105912 Par ch=8 c=11 v=102
105919 On ch=8 n=56 v=0
105932 Par ch=8 c=11 v=103
105948 Par ch=8 c=11 v=104
105960 On ch=8 n=58 v=47
105968 Par ch=8 c=11 v=105
105976 On ch=8 n=58 v=0
105984 Par ch=8 c=11 v=106
105984 On ch=8 n=49 v=47
106004 Par ch=8 c=11 v=107
106015 On ch=8 n=49 v=0
106024 Par ch=8 c=11 v=108
106040 Par ch=8 c=11 v=109
106056 On ch=8 n=51 v=47
106060 Par ch=8 c=11 v=110
106076 Par ch=8 c=11 v=111
106080 On ch=8 n=51 v=0
106080 On ch=8 n=53 v=47
106096 Par ch=8 c=11 v=112
106111 On ch=8 n=53 v=0
106112 Par ch=8 c=11 v=113
106132 Par ch=8 c=11 v=114
106152 Par ch=8 c=11 v=115
106152 On ch=8 n=54 v=47
106168 Par ch=8 c=11 v=116
106176 On ch=8 n=54 v=0
106176 On ch=8 n=56 v=47
106188 Par ch=8 c=11 v=117
106204 Par ch=8 c=11 v=118
106207 On ch=8 n=56 v=0
106224 Par ch=8 c=11 v=119
106240 Par ch=8 c=11 v=120
106248 On ch=8 n=58 v=47
106260 Par ch=8 c=11 v=121
106272 On ch=8 n=58 v=0
106272 On ch=8 n=56 v=47
106280 Par ch=8 c=11 v=122
106296 Par ch=8 c=11 v=123
106303 On ch=8 n=56 v=0
106316 Par ch=8 c=11 v=124
106332 Par ch=8 c=11 v=125
106344 On ch=8 n=54 v=47
106352 Par ch=8 c=11 v=126
106368 On ch=8 n=54 v=0
106368 Par ch=8 c=11 v=64
106368 On ch=8 n=53 v=111
106399 On ch=8 n=53 v=0
106440 On ch=8 n=51 v=111
106464 On ch=8 n=51 v=0
106464 On ch=8 n=49 v=111
106495 On ch=8 n=49 v=0
106536 On ch=8 n=48 v=111
106560 On ch=8 n=48 v=0
106560 On ch=8 n=46 v=111
106591 On ch=8 n=46 v=0
106632 On ch=8 n=44 v=111
106656 On ch=8 n=44 v=0
106656 On ch=8 n=42 v=111
106687 On ch=8 n=42 v=0
106728 On ch=8 n=41 v=111
106752 On ch=8 n=41 v=0
106752 On ch=8 n=46 v=111
106783 On ch=8 n=46 v=0
106824 On ch=8 n=48 v=111
106843 On ch=8 n=48 v=0
106848 On ch=8 n=49 v=111
106886 On ch=8 n=49 v=0
106920 On ch=8 n=51 v=111
106939 On ch=8 n=51 v=0
106944 On ch=8 n=53 v=111
106982 On ch=8 n=53 v=0
107016 On ch=8 n=55 v=111
107035 On ch=8 n=55 v=0
107040 On ch=8 n=57 v=111
107078 On ch=8 n=57 v=0
107112 On ch=8 n=53 v=111
107131 On ch=8 n=53 v=0
107136 On ch=8 n=46 v=111
107174 On ch=8 n=46 v=0
107208 On ch=8 n=48 v=103
107227 On ch=8 n=48 v=0
107232 On ch=8 n=49 v=95
107270 On ch=8 n=49 v=0
107304 On ch=8 n=51 v=87
107323 On ch=8 n=51 v=0
107328 On ch=8 n=53 v=79
107366 On ch=8 n=53 v=0
107400 On ch=8 n=55 v=71
107419 On ch=8 n=55 v=0
107424 On ch=8 n=57 v=63
107462 On ch=8 n=57 v=0
107496 On ch=8 n=58 v=55
107515 On ch=8 n=58 v=0
107520 On ch=8 n=54 v=111
107551 On ch=8 n=54 v=0
107592 On ch=8 n=53 v=111
107611 On ch=8 n=53 v=0
107616 On ch=8 n=51 v=111
107654 On ch=8 n=51 v=0
107688 On ch=8 n=49 v=111
107707 On ch=8 n=49 v=0
107712 On ch=8 n=47 v=111
107750 On ch=8 n=47 v=0
107784 On ch=8 n=46 v=111
107803 On ch=8 n=46 v=0
107808 On ch=8 n=44 v=111
107846 On ch=8 n=44 v=0
107880 On ch=8 n=49 v=111
107899 On ch=8 n=49 v=0
107904 On ch=8 n=58 v=111
107942 On ch=8 n=58 v=0
107976 On ch=8 n=56 v=103
107995 On ch=8 n=56 v=0
108000 On ch=8 n=54 v=95
108038 On ch=8 n=54 v=0
108072 On ch=8 n=53 v=87
108091 On ch=8 n=53 v=0
108096 On ch=8 n=51 v=79
108134 On ch=8 n=51 v=0
108168 On ch=8 n=49 v=71
108187 On ch=8 n=49 v=0
108192 On ch=8 n=47 v=63
108230 On ch=8 n=47 v=0
108264 On ch=8 n=46 v=55
108283 On ch=8 n=46 v=0
108288 On ch=8 n=51 v=47
108319 On ch=8 n=51 v=0
108360 On ch=8 n=50 v=47
108376 On ch=8 n=50 v=0
108384 On ch=8 n=48 v=47
108415 On ch=8 n=48 v=0
108456 On ch=8 n=46 v=47
108472 On ch=8 n=46 v=0
108480 On ch=8 n=44 v=47
108511 On ch=8 n=44 v=0
108552 On ch=8 n=43 v=47
108568 On ch=8 n=43 v=0
108576 On ch=8 n=41 v=47
108607 On ch=8 n=41 v=0
108648 On ch=8 n=39 v=47
108664 On ch=8 n=39 v=0
108672 On ch=8 n=55 v=47
108710 On ch=8 n=55 v=0
108744 On ch=8 n=53 v=47
108763 On ch=8 n=53 v=0
108768 On ch=8 n=51 v=47
108806 On ch=8 n=51 v=0
108840 On ch=8 n=50 v=47
108859 On ch=8 n=50 v=0
108864 Par ch=8 c=11 v=64
108864 On ch=8 n=48 v=47
108872 Par ch=8 c=11 v=65
108880 Par ch=8 c=11 v=66
108888 Par ch=8 c=11 v=67
108896 Par ch=8 c=11 v=68
108902 On ch=8 n=48 v=0
108904 Par ch=8 c=11 v=69
108912 Par ch=8 c=11 v=70
108920 Par ch=8 c=11 v=71
108928 Par ch=8 c=11 v=72
108936 Par ch=8 c=11 v=73
108936 On ch=8 n=48 v=47
108944 Par ch=8 c=11 v=74
108952 Par ch=8 c=11 v=75
108955 On ch=8 n=48 v=0
108960 Par ch=8 c=11 v=76
108960 On ch=8 n=46 v=47
108968 Par ch=8 c=11 v=77
108976 Par ch=8 c=11 v=78
108984 Par ch=8 c=11 v=79
108992 Par ch=8 c=11 v=80
108998 On ch=8 n=46 v=0
109000 Par ch=8 c=11 v=81
109008 Par ch=8 c=11 v=82
109016 Par ch=8 c=11 v=83
109024 Par ch=8 c=11 v=84
109032 Par ch=8 c=11 v=85
109032 On ch=8 n=46 v=47
109040 Par ch=8 c=11 v=86
109048 Par ch=8 c=11 v=87
109051 On ch=8 n=46 v=0
109056 Par ch=8 c=11 v=88
109056 On ch=8 n=51 v=47
109064 Par ch=8 c=11 v=89
109072 Par ch=8 c=11 v=90
109080 Par ch=8 c=11 v=91
109088 Par ch=8 c=11 v=92
109094 On ch=8 n=51 v=0
109096 Par ch=8 c=11 v=93
109104 Par ch=8 c=11 v=94
109112 Par ch=8 c=11 v=95
109120 Par ch=8 c=11 v=96
109128 Par ch=8 c=11 v=97
109128 On ch=8 n=51 v=47
109136 Par ch=8 c=11 v=98
109144 Par ch=8 c=11 v=99
109147 On ch=8 n=51 v=0
109152 Par ch=8 c=11 v=100
109152 On ch=8 n=50 v=47
109160 Par ch=8 c=11 v=101
109168 Par ch=8 c=11 v=102
109176 Par ch=8 c=11 v=103
109184 Par ch=8 c=11 v=104
109190 On ch=8 n=50 v=0
109192 Par ch=8 c=11 v=105
109200 Par ch=8 c=11 v=106
109208 Par ch=8 c=11 v=107
109216 Par ch=8 c=11 v=108
109224 Par ch=8 c=11 v=109
109224 On ch=8 n=50 v=47
109232 Par ch=8 c=11 v=110
109240 Par ch=8 c=11 v=111
109243 On ch=8 n=50 v=0
109248 Par ch=8 c=11 v=112
109248 On ch=8 n=48 v=47
109286 On ch=8 n=48 v=0
109320 On ch=8 n=48 v=47
109339 On ch=8 n=48 v=0
109344 On ch=8 n=42 v=47
109382 On ch=8 n=42 v=0
109416 On ch=8 n=42 v=47
109435 On ch=8 n=42 v=0
109440 Par ch=8 c=11 v=112
109440 On ch=8 n=43 v=47
109468 Par ch=8 c=11 v=113
109478 On ch=8 n=43 v=0
109492 Par ch=8 c=11 v=114
109512 On ch=8 n=43 v=47
109520 Par ch=8 c=11 v=115
109531 On ch=8 n=43 v=0
109536 On ch=8 n=40 v=47
109544 Par ch=8 c=11 v=116
109568 Par ch=8 c=11 v=117
109574 On ch=8 n=40 v=0
109596 Par ch=8 c=11 v=118
109608 On ch=8 n=40 v=47
109620 Par ch=8 c=11 v=119
109627 On ch=8 n=40 v=0
109632 On ch=8 n=41 v=47
109648 Par ch=8 c=11 v=120
109670 On ch=8 n=41 v=0
109672 Par ch=8 c=11 v=121
109696 Par ch=8 c=11 v=122
109704 On ch=8 n=41 v=47
109723 On ch=8 n=41 v=0
109724 Par ch=8 c=11 v=123
109728 On ch=8 n=42 v=47
109748 Par ch=8 c=11 v=124
109766 On ch=8 n=42 v=0
109776 Par ch=8 c=11 v=125
109800 Par ch=8 c=11 v=126
109800 On ch=8 n=42 v=47
109819 On ch=8 n=42 v=0
109824 Par ch=8 c=11 v=64
109824 On ch=8 n=43 v=111
109862 On ch=8 n=43 v=0
109896 On ch=8 n=46 v=111
109915 On ch=8 n=46 v=0
109920 On ch=8 n=51 v=111
109958 On ch=8 n=51 v=0
109992 On ch=8 n=50 v=111
110011 On ch=8 n=50 v=0
110016 On ch=8 n=48 v=111
110054 On ch=8 n=48 v=0
110088 On ch=8 n=46 v=111
110107 On ch=8 n=46 v=0
110112 On ch=8 n=44 v=111
110150 On ch=8 n=44 v=0
110184 On ch=8 n=43 v=111
110203 On ch=8 n=43 v=0
110208 On ch=8 n=44 v=111
110246 On ch=8 n=44 v=0
110280 On ch=8 n=51 v=111
110299 On ch=8 n=51 v=0
110304 On ch=8 n=56 v=111
110342 On ch=8 n=56 v=0
110376 On ch=8 n=55 v=111
110395 On ch=8 n=55 v=0
110400 On ch=8 n=53 v=111
110438 On ch=8 n=53 v=0
110472 On ch=8 n=51 v=111
110491 On ch=8 n=51 v=0
110496 On ch=8 n=49 v=111
110534 On ch=8 n=49 v=0
110568 On ch=8 n=47 v=111
110587 On ch=8 n=47 v=0
110592 On ch=8 n=46 v=111
110630 On ch=8 n=46 v=0
110664 On ch=8 n=48 v=111
110683 On ch=8 n=48 v=0
110688 On ch=8 n=50 v=111
110726 On ch=8 n=50 v=0
110760 On ch=8 n=51 v=111
110779 On ch=8 n=51 v=0
110784 On ch=8 n=53 v=111
110822 On ch=8 n=53 v=0
110856 On ch=8 n=54 v=111
110875 On ch=8 n=54 v=0
110880 On ch=8 n=56 v=111
110918 On ch=8 n=56 v=0
110952 On ch=8 n=58 v=111
110971 On ch=8 n=58 v=0
110976 On ch=8 n=47 v=111
111014 On ch=8 n=47 v=0
111048 On ch=8 n=49 v=111
111067 On ch=8 n=49 v=0
111072 On ch=8 n=51 v=111
111110 On ch=8 n=51 v=0
111144 On ch=8 n=53 v=111
111163 On ch=8 n=53 v=0
111168 On ch=8 n=55 v=111
111206 On ch=8 n=55 v=0
111240 On ch=8 n=56 v=111
111259 On ch=8 n=56 v=0
111264 On ch=8 n=58 v=111
111302 On ch=8 n=58 v=0
111336 On ch=8 n=59 v=111
111355 On ch=8 n=59 v=0
111360 On ch=8 n=56 v=127
111385 On ch=8 n=56 v=0
111392 On ch=8 n=55 v=127
111417 On ch=8 n=55 v=0
111424 On ch=8 n=56 v=127
111449 On ch=8 n=56 v=0
111456 On ch=8 n=59 v=127
111481 On ch=8 n=59 v=0
111488 On ch=8 n=58 v=127
111513 On ch=8 n=58 v=0
111520 On ch=8 n=59 v=127
111545 On ch=8 n=59 v=0
111552 On ch=8 n=52 v=127
111577 On ch=8 n=52 v=0
111584 On ch=8 n=51 v=127
111609 On ch=8 n=51 v=0
111616 On ch=8 n=52 v=127
111641 On ch=8 n=52 v=0
111648 On ch=8 n=57 v=127
111673 On ch=8 n=57 v=0
111680 On ch=8 n=56 v=127
111705 On ch=8 n=56 v=0
111712 On ch=8 n=57 v=127
111737 On ch=8 n=57 v=0
111744 Par ch=8 c=0 v=0
111744 Par ch=8 c=32 v=0
111744 PrCh ch=8 p=44
111744 Par ch=8 c=11 v=64
111744 On ch=8 n=51 v=127
111744 On ch=8 n=46 v=127
111752 Par ch=8 c=11 v=63
111760 Par ch=8 c=11 v=62
111768 Par ch=8 c=11 v=61
111776 Par ch=8 c=11 v=60
111784 Par ch=8 c=11 v=59
111792 Par ch=8 c=11 v=58
111800 Par ch=8 c=11 v=57
111808 Par ch=8 c=11 v=56
111816 Par ch=8 c=11 v=55
111824 Par ch=8 c=11 v=54
111832 Par ch=8 c=11 v=53
111840 Par ch=8 c=11 v=52
111848 Par ch=8 c=11 v=51
111856 Par ch=8 c=11 v=50
111864 Par ch=8 c=11 v=49
111872 Par ch=8 c=11 v=48
111880 Par ch=8 c=11 v=47
111888 Par ch=8 c=11 v=46
111896 Par ch=8 c=11 v=45
111904 Par ch=8 c=11 v=44
111912 Par ch=8 c=11 v=43
111920 Par ch=8 c=11 v=42
111928 Par ch=8 c=11 v=41
111936 Par ch=8 c=11 v=40
111940 Par ch=8 c=11 v=39
111948 Par ch=8 c=11 v=38
111956 Par ch=8 c=11 v=37
111964 Par ch=8 c=11 v=36
111972 Par ch=8 c=11 v=35
111980 Par ch=8 c=11 v=34
111988 Par ch=8 c=11 v=33
111996 Par ch=8 c=11 v=32
112004 Par ch=8 c=11 v=31
112012 Par ch=8 c=11 v=30
112020 Par ch=8 c=11 v=29
112028 Par ch=8 c=11 v=28
112036 Par ch=8 c=11 v=27
112044 Par ch=8 c=11 v=26
112051 On ch=8 n=46 v=0
112051 On ch=8 n=51 v=0
112052 Par ch=8 c=11 v=25
112060 Par ch=8 c=11 v=24
112068 Par ch=8 c=11 v=23
112076 Par ch=8 c=11 v=22
112084 Par ch=8 c=11 v=21
112092 Par ch=8 c=11 v=20
112100 Par ch=8 c=11 v=19
112108 Par ch=8 c=11 v=18
112116 Par ch=8 c=11 v=17
112124 Par ch=8 c=11 v=16
112128 Par ch=8 c=11 v=17
112128 On ch=8 n=51 v=127
112128 On ch=8 n=46 v=127
112140 Par ch=8 c=11 v=18
112152 Par ch=8 c=11 v=19
112164 Par ch=8 c=11 v=20
112172 Par ch=8 c=11 v=21
112184 Par ch=8 c=11 v=22
112196 Par ch=8 c=11 v=23
112204 Par ch=8 c=11 v=24
112216 Par ch=8 c=11 v=25
112228 Par ch=8 c=11 v=26
112240 Par ch=8 c=11 v=27
112248 Par ch=8 c=11 v=28
112260 Par ch=8 c=11 v=29
112272 Par ch=8 c=11 v=30
112280 Par ch=8 c=11 v=31
112292 Par ch=8 c=11 v=32
112304 Par ch=8 c=11 v=33
112316 Par ch=8 c=11 v=34
112324 Par ch=8 c=11 v=35
112336 Par ch=8 c=11 v=36
112348 Par ch=8 c=11 v=37
112356 Par ch=8 c=11 v=38
112358 On ch=8 n=46 v=0
112358 On ch=8 n=51 v=0
112368 Par ch=8 c=11 v=39
112380 Par ch=8 c=11 v=40
112392 Par ch=8 c=11 v=41
112400 Par ch=8 c=11 v=42
112412 Par ch=8 c=11 v=43
112416 Par ch=8 c=0 v=0
112416 Par ch=8 c=32 v=0
112416 PrCh ch=8 p=48
112416 On ch=8 n=66 v=127
112424 Par ch=8 c=11 v=44
112432 Par ch=8 c=11 v=45
112444 Par ch=8 c=11 v=46
112447 On ch=8 n=66 v=0
112456 Par ch=8 c=11 v=47
112464 Par ch=8 c=11 v=48
112512 Par ch=8 c=0 v=0
112512 Par ch=8 c=32 v=0
112512 PrCh ch=8 p=44
112512 Par ch=8 c=11 v=64
112512 On ch=8 n=51 v=127
112512 On ch=8 n=46 v=127
112520 Par ch=8 c=11 v=63
112528 Par ch=8 c=11 v=62
112536 Par ch=8 c=11 v=61
112544 Par ch=8 c=11 v=60
112552 Par ch=8 c=11 v=59
112560 Par ch=8 c=11 v=58
112568 Par ch=8 c=11 v=57
112576 Par ch=8 c=11 v=56
112584 Par ch=8 c=11 v=55
112592 Par ch=8 c=11 v=54
112600 Par ch=8 c=11 v=53
112608 Par ch=8 c=11 v=52
112616 Par ch=8 c=11 v=51
112624 Par ch=8 c=11 v=50
112632 Par ch=8 c=11 v=49
112640 Par ch=8 c=11 v=48
112648 Par ch=8 c=11 v=47
112656 Par ch=8 c=11 v=46
112664 Par ch=8 c=11 v=45
112672 Par ch=8 c=11 v=44
112680 Par ch=8 c=11 v=43
112688 Par ch=8 c=11 v=42
112696 Par ch=8 c=11 v=41
112704 Par ch=8 c=11 v=40
112708 Par ch=8 c=11 v=39
112716 Par ch=8 c=11 v=38
112724 Par ch=8 c=11 v=37
112732 Par ch=8 c=11 v=36
112740 Par ch=8 c=11 v=35
112748 Par ch=8 c=11 v=34
112756 Par ch=8 c=11 v=33
112764 Par ch=8 c=11 v=32
112772 Par ch=8 c=11 v=31
112780 Par ch=8 c=11 v=30
112788 Par ch=8 c=11 v=29
112796 Par ch=8 c=11 v=28
112804 Par ch=8 c=11 v=27
112812 Par ch=8 c=11 v=26
112819 On ch=8 n=46 v=0
112819 On ch=8 n=51 v=0
112820 Par ch=8 c=11 v=25
112828 Par ch=8 c=11 v=24
112836 Par ch=8 c=11 v=23
112844 Par ch=8 c=11 v=22
112852 Par ch=8 c=11 v=21
112860 Par ch=8 c=11 v=20
112868 Par ch=8 c=11 v=19
112876 Par ch=8 c=11 v=18
112884 Par ch=8 c=11 v=17
112892 Par ch=8 c=11 v=16
112896 Par ch=8 c=11 v=17
112896 On ch=8 n=51 v=127
112896 On ch=8 n=46 v=127
112904 Par ch=8 c=11 v=18
112912 Par ch=8 c=11 v=19
112920 Par ch=8 c=11 v=20
112928 Par ch=8 c=11 v=21
112936 Par ch=8 c=11 v=22
112944 Par ch=8 c=11 v=23
112952 Par ch=8 c=11 v=24
112960 Par ch=8 c=11 v=25
112968 Par ch=8 c=11 v=26
112976 Par ch=8 c=11 v=27
112984 Par ch=8 c=11 v=28
112992 Par ch=8 c=11 v=29
113000 Par ch=8 c=11 v=30
113008 Par ch=8 c=11 v=31
113016 Par ch=8 c=11 v=32
113024 Par ch=8 c=11 v=33
113032 Par ch=8 c=11 v=34
113040 Par ch=8 c=11 v=35
113048 Par ch=8 c=11 v=36
113056 Par ch=8 c=11 v=37
113064 Par ch=8 c=11 v=38
113072 Par ch=8 c=11 v=39
113080 Par ch=8 c=11 v=40
113088 Par ch=8 c=11 v=41
113096 Par ch=8 c=11 v=42
113104 Par ch=8 c=11 v=43
113112 Par ch=8 c=11 v=44
113120 Par ch=8 c=11 v=45
113126 On ch=8 n=46 v=0
113126 On ch=8 n=51 v=0
113128 Par ch=8 c=11 v=46
113136 Par ch=8 c=11 v=47
113144 Par ch=8 c=11 v=48
113152 Par ch=8 c=11 v=49
113160 Par ch=8 c=11 v=50
113168 Par ch=8 c=11 v=51
113176 Par ch=8 c=11 v=52
113184 Par ch=8 c=0 v=0
113184 Par ch=8 c=32 v=0
113184 PrCh ch=8 p=48
113184 Par ch=8 c=11 v=53
113184 On ch=8 n=66 v=127
113192 Par ch=8 c=11 v=54
113200 Par ch=8 c=11 v=55
113208 Par ch=8 c=11 v=56
113215 On ch=8 n=66 v=0
113216 Par ch=8 c=11 v=57
113224 Par ch=8 c=11 v=58
113232 Par ch=8 c=11 v=59
113240 Par ch=8 c=11 v=60
113248 Par ch=8 c=11 v=61
113256 Par ch=8 c=11 v=62
113264 Par ch=8 c=11 v=63
113272 Par ch=8 c=11 v=64
113280 On ch=8 n=58 v=127
113306 On ch=8 n=58 v=0
113312 On ch=8 n=57 v=127
113338 On ch=8 n=57 v=0
113344 On ch=8 n=56 v=127
113370 On ch=8 n=56 v=0
113376 On ch=8 n=54 v=127
113402 On ch=8 n=54 v=0
113408 On ch=8 n=53 v=127
113434 On ch=8 n=53 v=0
113440 On ch=8 n=52 v=127
113466 On ch=8 n=52 v=0
113472 On ch=8 n=51 v=127
113498 On ch=8 n=51 v=0
113504 On ch=8 n=49 v=127
113530 On ch=8 n=49 v=0
113536 On ch=8 n=47 v=127
113562 On ch=8 n=47 v=0
113568 On ch=8 n=46 v=127
113594 On ch=8 n=46 v=0
113600 On ch=8 n=45 v=127
113626 On ch=8 n=45 v=0
113632 On ch=8 n=46 v=127
113658 On ch=8 n=46 v=0
113664 Par ch=8 c=11 v=64
113664 On ch=8 n=58 v=127
113688 Par ch=8 c=11 v=65
113690 On ch=8 n=58 v=0
113696 On ch=8 n=57 v=127
113712 Par ch=8 c=11 v=66
113722 On ch=8 n=57 v=0
113728 On ch=8 n=58 v=127
113732 Par ch=8 c=11 v=67
113754 On ch=8 n=58 v=0
113756 Par ch=8 c=11 v=68
113760 On ch=8 n=46 v=127
113780 Par ch=8 c=11 v=69
113786 On ch=8 n=46 v=0
113792 On ch=8 n=45 v=127
113800 Par ch=8 c=11 v=70
113818 On ch=8 n=45 v=0
113824 Par ch=8 c=11 v=71
113824 On ch=8 n=46 v=127
113848 Par ch=8 c=11 v=72
113850 On ch=8 n=46 v=0
113856 On ch=8 n=58 v=127
113868 Par ch=8 c=11 v=73
113882 On ch=8 n=58 v=0
113888 On ch=8 n=57 v=127
113892 Par ch=8 c=11 v=74
113914 On ch=8 n=57 v=0
113916 Par ch=8 c=11 v=75
113920 On ch=8 n=58 v=127
113936 Par ch=8 c=11 v=76
113946 On ch=8 n=58 v=0
113952 On ch=8 n=46 v=127
113960 Par ch=8 c=11 v=77
113978 On ch=8 n=46 v=0
113984 Par ch=8 c=11 v=78
113984 On ch=8 n=45 v=127
114004 Par ch=8 c=11 v=79
114010 On ch=8 n=45 v=0
114016 On ch=8 n=46 v=127
114028 Par ch=8 c=11 v=80
114042 On ch=8 n=46 v=0
114048 On ch=8 n=58 v=127
114086 On ch=8 n=58 v=0
114432 Par ch=8 c=11 v=64
115200 Par ch=8 c=11 v=64
115200 On ch=8 n=47 v=111
115212 Par ch=8 c=11 v=63
115224 Par ch=8 c=11 v=62
115236 Par ch=8 c=11 v=61
115248 Par ch=8 c=11 v=60
115260 Par ch=8 c=11 v=59
115268 Par ch=8 c=11 v=58
115280 Par ch=8 c=11 v=57
115292 Par ch=8 c=11 v=56
115304 Par ch=8 c=11 v=55
115316 Par ch=8 c=11 v=54
115328 Par ch=8 c=11 v=53
115336 Par ch=8 c=11 v=52
115348 Par ch=8 c=11 v=51
115360 Par ch=8 c=11 v=50
115372 Par ch=8 c=11 v=49
115384 Par ch=8 c=11 v=48
115392 Par ch=8 c=11 v=47
115404 Par ch=8 c=11 v=46
115416 Par ch=8 c=11 v=45
115428 On ch=8 n=47 v=0
115428 Par ch=8 c=11 v=44
115440 Par ch=8 c=11 v=43
115452 Par ch=8 c=11 v=42
115460 Par ch=8 c=11 v=41
115472 Par ch=8 c=11 v=40
115484 Par ch=8 c=11 v=39
115488 On ch=8 n=46 v=111
115496 Par ch=8 c=11 v=38
115508 Par ch=8 c=11 v=37
115520 Par ch=8 c=11 v=36
115528 Par ch=8 c=11 v=35
115540 Par ch=8 c=11 v=34
115552 Par ch=8 c=11 v=33
115564 On ch=8 n=46 v=0
115564 Par ch=8 c=11 v=32
115584 Par ch=8 c=11 v=32
115584 On ch=8 n=45 v=111
115596 Par ch=8 c=11 v=33
115608 Par ch=8 c=11 v=34
115620 Par ch=8 c=11 v=35
115632 Par ch=8 c=11 v=36
115644 Par ch=8 c=11 v=37
115656 Par ch=8 c=11 v=38
115660 On ch=8 n=45 v=0
115668 Par ch=8 c=11 v=39
115680 Par ch=8 c=11 v=40
115680 On ch=8 n=64 v=111
115692 Par ch=8 c=11 v=41
115704 Par ch=8 c=11 v=42
115712 Par ch=8 c=11 v=43
115724 Par ch=8 c=11 v=44
115736 Par ch=8 c=11 v=45
115748 Par ch=8 c=11 v=46
115756 On ch=8 n=64 v=0
115760 Par ch=8 c=11 v=47
115772 Par ch=8 c=11 v=48
115776 On ch=8 n=66 v=111
115784 Par ch=8 c=11 v=49
115796 Par ch=8 c=11 v=50
115808 Par ch=8 c=11 v=51
115820 Par ch=8 c=11 v=52
115832 Par ch=8 c=11 v=53
115840 Par ch=8 c=11 v=54
115852 On ch=8 n=66 v=0
115852 Par ch=8 c=11 v=55
115864 Par ch=8 c=11 v=56
115872 On ch=8 n=68 v=111
115876 Par ch=8 c=11 v=57
115888 Par ch=8 c=11 v=58
115900 Par ch=8 c=11 v=59
115912 Par ch=8 c=11 v=60
115924 Par ch=8 c=11 v=61
115936 Par ch=8 c=11 v=62
115948 On ch=8 n=68 v=0
115948 Par ch=8 c=11 v=63
115960 Par ch=8 c=11 v=64
115968 On ch=8 n=47 v=111
115992 Par ch=8 c=11 v=32
116016 Par ch=8 c=11 v=31
116036 Par ch=8 c=11 v=30
116056 Par ch=8 c=11 v=29
116080 Par ch=8 c=11 v=28
116100 Par ch=8 c=11 v=27
116120 Par ch=8 c=11 v=26
116144 Par ch=8 c=11 v=25
116164 Par ch=8 c=11 v=24
116184 Par ch=8 c=11 v=23
116204 Par ch=8 c=11 v=22
116228 Par ch=8 c=11 v=21
116248 Par ch=8 c=11 v=20
116268 Par ch=8 c=11 v=19
116292 Par ch=8 c=11 v=18
116312 Par ch=8 c=11 v=17
116332 Par ch=8 c=11 v=16
116429 On ch=8 n=47 v=0
116448 Par ch=8 c=11 v=64
116448 On ch=8 n=45 v=95
116468 Par ch=8 c=11 v=63
116484 Par ch=8 c=11 v=62
116500 Par ch=8 c=11 v=61
116516 Par ch=8 c=11 v=60
116524 On ch=8 n=45 v=0
116536 Par ch=8 c=11 v=59
116544 On ch=8 n=44 v=95
116552 Par ch=8 c=11 v=58
116568 Par ch=8 c=11 v=57
116584 Par ch=8 c=11 v=56
116604 Par ch=8 c=11 v=55
116620 On ch=8 n=44 v=0
116620 Par ch=8 c=11 v=54
116636 Par ch=8 c=11 v=53
116640 On ch=8 n=45 v=95
116652 Par ch=8 c=11 v=52
116672 Par ch=8 c=11 v=51
116688 Par ch=8 c=11 v=50
116704 Par ch=8 c=11 v=49
116716 On ch=8 n=45 v=0
116720 Par ch=8 c=11 v=48
116736 Par ch=8 c=0 v=0
116736 Par ch=8 c=32 v=0
116736 PrCh ch=8 p=45
116736 Par ch=8 c=11 v=64
116736 On ch=8 n=51 v=95
116736 On ch=8 n=46 v=95
116762 On ch=8 n=46 v=0
116762 On ch=8 n=51 v=0
116768 On ch=8 n=51 v=95
116768 On ch=8 n=46 v=95
116794 On ch=8 n=46 v=0
116794 On ch=8 n=51 v=0
116800 On ch=8 n=51 v=95
116800 On ch=8 n=46 v=95
116826 On ch=8 n=46 v=0
116826 On ch=8 n=51 v=0
116832 On ch=8 n=46 v=95
116832 On ch=8 n=51 v=95
116858 On ch=8 n=51 v=0
116858 On ch=8 n=46 v=0
116864 On ch=8 n=46 v=95
116864 On ch=8 n=51 v=95
116890 On ch=8 n=51 v=0
116890 On ch=8 n=46 v=0
116896 On ch=8 n=46 v=95
116896 On ch=8 n=51 v=95
116922 On ch=8 n=51 v=0
116922 On ch=8 n=46 v=0
116928 On ch=8 n=46 v=95
116928 On ch=8 n=51 v=95
116954 On ch=8 n=51 v=0
116954 On ch=8 n=46 v=0
116960 On ch=8 n=46 v=95
116960 On ch=8 n=51 v=95
116986 On ch=8 n=51 v=0
116986 On ch=8 n=46 v=0
116992 On ch=8 n=46 v=95
116992 On ch=8 n=51 v=95
117018 On ch=8 n=51 v=0
117018 On ch=8 n=46 v=0
117024 On ch=8 n=46 v=95
117024 On ch=8 n=51 v=95
117050 On ch=8 n=51 v=0
117050 On ch=8 n=46 v=0
117056 On ch=8 n=46 v=95
117056 On ch=8 n=51 v=95
117082 On ch=8 n=51 v=0
117082 On ch=8 n=46 v=0
117088 On ch=8 n=46 v=95
117088 On ch=8 n=51 v=95
117114 On ch=8 n=51 v=0
117114 On ch=8 n=46 v=0
117120 On ch=8 n=46 v=95
117120 On ch=8 n=51 v=95
117146 On ch=8 n=51 v=0
117146 On ch=8 n=46 v=0
117152 On ch=8 n=46 v=95
117152 On ch=8 n=51 v=95
117178 On ch=8 n=51 v=0
117178 On ch=8 n=46 v=0
117184 On ch=8 n=46 v=95
117184 On ch=8 n=51 v=95
117210 On ch=8 n=51 v=0
117210 On ch=8 n=46 v=0
117216 On ch=8 n=46 v=95
117216 On ch=8 n=51 v=95
117242 On ch=8 n=51 v=0
117242 On ch=8 n=46 v=0
117248 On ch=8 n=46 v=95
117248 On ch=8 n=51 v=95
117274 On ch=8 n=51 v=0
117274 On ch=8 n=46 v=0
117280 On ch=8 n=46 v=95
117280 On ch=8 n=51 v=95
117306 On ch=8 n=51 v=0
117306 On ch=8 n=46 v=0
117312 On ch=8 n=46 v=95
117312 On ch=8 n=51 v=95
117338 On ch=8 n=51 v=0
117338 On ch=8 n=46 v=0
117344 On ch=8 n=46 v=95
117344 On ch=8 n=51 v=95
117370 On ch=8 n=51 v=0
117370 On ch=8 n=46 v=0
117376 On ch=8 n=46 v=95
117376 On ch=8 n=51 v=95
117402 On ch=8 n=51 v=0
117402 On ch=8 n=46 v=0
117408 On ch=8 n=46 v=95
117408 On ch=8 n=51 v=95
117434 On ch=8 n=51 v=0
117434 On ch=8 n=46 v=0
117440 On ch=8 n=46 v=95
117440 On ch=8 n=51 v=95
117466 On ch=8 n=51 v=0
117466 On ch=8 n=46 v=0
117472 On ch=8 n=46 v=95
117472 On ch=8 n=51 v=95
117498 On ch=8 n=51 v=0
117498 On ch=8 n=46 v=0
117504 Par ch=8 c=11 v=64
117504 On ch=8 n=46 v=95
117504 On ch=8 n=51 v=95
117530 On ch=8 n=51 v=0
117530 On ch=8 n=46 v=0
117536 On ch=8 n=46 v=95
117536 On ch=8 n=51 v=95
117552 Par ch=8 c=11 v=65
117562 On ch=8 n=51 v=0
117562 On ch=8 n=46 v=0
117568 On ch=8 n=46 v=95
117568 On ch=8 n=51 v=95
117594 On ch=8 n=51 v=0
117594 On ch=8 n=46 v=0
117596 Par ch=8 c=11 v=66
117600 On ch=8 n=46 v=95
117600 On ch=8 n=51 v=95
117626 On ch=8 n=51 v=0
117626 On ch=8 n=46 v=0
117632 On ch=8 n=46 v=95
117632 On ch=8 n=51 v=95
117640 Par ch=8 c=11 v=67
117658 On ch=8 n=51 v=0
117658 On ch=8 n=46 v=0
117664 On ch=8 n=46 v=95
117664 On ch=8 n=51 v=95
117688 Par ch=8 c=11 v=68
117690 On ch=8 n=51 v=0
117690 On ch=8 n=46 v=0
117696 On ch=8 n=46 v=95
117696 On ch=8 n=51 v=95
117722 On ch=8 n=51 v=0
117722 On ch=8 n=46 v=0
117728 On ch=8 n=46 v=95
117728 On ch=8 n=51 v=95
117732 Par ch=8 c=11 v=69
117754 On ch=8 n=51 v=0
117754 On ch=8 n=46 v=0
117760 On ch=8 n=46 v=95
117760 On ch=8 n=51 v=95
117776 Par ch=8 c=11 v=70
117786 On ch=8 n=51 v=0
117786 On ch=8 n=46 v=0
117792 On ch=8 n=46 v=95
117792 On ch=8 n=51 v=95
117818 On ch=8 n=51 v=0
117818 On ch=8 n=46 v=0
117824 Par ch=8 c=11 v=71
117824 On ch=8 n=46 v=95
117824 On ch=8 n=51 v=95
117850 On ch=8 n=51 v=0
117850 On ch=8 n=46 v=0
117856 On ch=8 n=46 v=95
117856 On ch=8 n=51 v=95
117868 Par ch=8 c=11 v=72
117882 On ch=8 n=51 v=0
117882 On ch=8 n=46 v=0
117888 On ch=8 n=46 v=95
117888 On ch=8 n=51 v=95
117912 Par ch=8 c=11 v=73
117914 On ch=8 n=51 v=0
117914 On ch=8 n=46 v=0
117920 On ch=8 n=46 v=95
117920 On ch=8 n=51 v=95
117946 On ch=8 n=51 v=0
117946 On ch=8 n=46 v=0
117952 On ch=8 n=46 v=95
117952 On ch=8 n=51 v=95
117956 Par ch=8 c=11 v=74
117978 On ch=8 n=51 v=0
117978 On ch=8 n=46 v=0
117984 On ch=8 n=46 v=95
117984 On ch=8 n=51 v=95
118004 Par ch=8 c=11 v=75
118010 On ch=8 n=51 v=0
118010 On ch=8 n=46 v=0
118016 On ch=8 n=46 v=95
118016 On ch=8 n=51 v=95
118042 On ch=8 n=51 v=0
118042 On ch=8 n=46 v=0
118048 Par ch=8 c=11 v=76
118048 On ch=8 n=46 v=95
118048 On ch=8 n=51 v=95
118074 On ch=8 n=51 v=0
118074 On ch=8 n=46 v=0
118080 On ch=8 n=46 v=95
118080 On ch=8 n=51 v=95
118092 Par ch=8 c=11 v=77
118106 On ch=8 n=51 v=0
118106 On ch=8 n=46 v=0
118112 On ch=8 n=46 v=95
118112 On ch=8 n=51 v=95
118138 On ch=8 n=51 v=0
118138 On ch=8 n=46 v=0
118140 Par ch=8 c=11 v=78
118144 On ch=8 n=46 v=95
118144 On ch=8 n=51 v=95
118170 On ch=8 n=51 v=0
118170 On ch=8 n=46 v=0
118176 On ch=8 n=46 v=95
118176 On ch=8 n=51 v=95
118184 Par ch=8 c=11 v=79
118202 On ch=8 n=51 v=0
118202 On ch=8 n=46 v=0
118208 On ch=8 n=46 v=95
118208 On ch=8 n=51 v=95
118228 Par ch=8 c=11 v=80
118234 On ch=8 n=51 v=0
118234 On ch=8 n=46 v=0
118240 On ch=8 n=46 v=95
118240 On ch=8 n=51 v=95
118266 On ch=8 n=51 v=0
118266 On ch=8 n=46 v=0
118272 Par ch=8 c=0 v=0
118272 Par ch=8 c=32 v=0
118272 PrCh ch=8 p=48
118272 Par ch=8 c=11 v=64
118272 On ch=8 n=46 v=95
118368 On ch=8 n=46 v=0
118368 On ch=8 n=45 v=95
118445 On ch=8 n=45 v=0
118464 On ch=8 n=46 v=95
118560 On ch=8 n=46 v=0
118560 On ch=8 n=45 v=95
118637 On ch=8 n=45 v=0
118656 On ch=8 n=46 v=95
118752 On ch=8 n=46 v=0
118752 On ch=8 n=45 v=95
118829 On ch=8 n=45 v=0
118848 On ch=8 n=46 v=95
118944 On ch=8 n=46 v=0
118944 On ch=8 n=45 v=95
119021 On ch=8 n=45 v=0
119040 On ch=8 n=46 v=95
119136 On ch=8 n=46 v=0
119136 On ch=8 n=45 v=95
119213 On ch=8 n=45 v=0
119232 On ch=8 n=46 v=95
119328 On ch=8 n=46 v=0
119328 On ch=8 n=47 v=95
119405 On ch=8 n=47 v=0
119424 On ch=8 n=46 v=95
119501 On ch=8 n=46 v=0
119712 On ch=8 n=51 v=127
119743 On ch=8 n=51 v=0
119784 On ch=8 n=53 v=127
119800 On ch=8 n=53 v=0
119808 On ch=8 n=53 v=127
119856 On ch=8 n=53 v=0
119856 On ch=8 n=54 v=127
119894 On ch=8 n=54 v=0
119904 On ch=8 n=46 v=127
119935 On ch=8 n=46 v=0
119976 On ch=8 n=47 v=127
120000 On ch=8 n=47 v=0
120000 On ch=8 n=49 v=127
120062 On ch=8 n=49 v=0
120096 On ch=8 n=47 v=127
120134 On ch=8 n=47 v=0
120168 On ch=8 n=49 v=127
120187 On ch=8 n=49 v=0
120192 On ch=8 n=51 v=127
120269 On ch=8 n=51 v=0
120288 On ch=8 n=56 v=127
120326 On ch=8 n=56 v=0
120360 On ch=8 n=52 v=127
120379 On ch=8 n=52 v=0
120384 On ch=8 n=50 v=127
120432 On ch=8 n=50 v=0
120432 On ch=8 n=51 v=127
120470 On ch=8 n=51 v=0
120480 On ch=8 n=44 v=127
120518 On ch=8 n=44 v=0
120552 On ch=8 n=46 v=127
120571 On ch=8 n=46 v=0
120576 On ch=8 n=47 v=127
120653 On ch=8 n=47 v=0
121248 On ch=8 n=63 v=100
121286 On ch=8 n=63 v=0
121320 On ch=8 n=62 v=100
121336 On ch=8 n=62 v=0
121344 On ch=8 n=61 v=100
121375 On ch=8 n=61 v=0
121416 On ch=8 n=60 v=100
121432 On ch=8 n=60 v=0
121440 On ch=8 n=59 v=100
121471 On ch=8 n=59 v=0
121512 On ch=8 n=58 v=100
121528 On ch=8 n=58 v=0
121536 On ch=8 n=57 v=100
121567 On ch=8 n=57 v=0
121608 On ch=8 n=56 v=100
121624 On ch=8 n=56 v=0
121632 On ch=8 n=55 v=100
121663 On ch=8 n=55 v=0
121704 On ch=8 n=54 v=100
121720 On ch=8 n=54 v=0
121728 On ch=8 n=59 v=100
121759 On ch=8 n=59 v=0
121800 On ch=8 n=58 v=100
121816 On ch=8 n=58 v=0
121824 On ch=8 n=57 v=100
121855 On ch=8 n=57 v=0
121896 On ch=8 n=56 v=100
121912 On ch=8 n=56 v=0
121920 On ch=8 n=55 v=100
121951 On ch=8 n=55 v=0
121992 On ch=8 n=54 v=100
122008 On ch=8 n=54 v=0
122016 On ch=8 n=53 v=100
122047 On ch=8 n=53 v=0
122088 On ch=8 n=52 v=100
122104 On ch=8 n=52 v=0
122112 On ch=8 n=69 v=100
122138 On ch=8 n=69 v=0
122144 On ch=8 n=68 v=100
122170 On ch=8 n=68 v=0
122176 On ch=8 n=67 v=100
122202 On ch=8 n=67 v=0
122208 On ch=8 n=66 v=100
122234 On ch=8 n=66 v=0
122240 On ch=8 n=65 v=100
122266 On ch=8 n=65 v=0
122272 On ch=8 n=64 v=100
122298 On ch=8 n=64 v=0
122304 On ch=8 n=63 v=100
122330 On ch=8 n=63 v=0
122336 On ch=8 n=62 v=100
122362 On ch=8 n=62 v=0
122368 On ch=8 n=61 v=100
122394 On ch=8 n=61 v=0
122400 On ch=8 n=60 v=100
122426 On ch=8 n=60 v=0
122432 On ch=8 n=59 v=100
122458 On ch=8 n=59 v=0
122464 On ch=8 n=58 v=100
122490 On ch=8 n=58 v=0
122496 Par ch=8 c=0 v=0
122496 Par ch=8 c=32 v=0
122496 PrCh ch=8 p=44
122496 On ch=8 n=57 v=100
122522 On ch=8 n=57 v=0
122528 On ch=8 n=56 v=100
122554 On ch=8 n=56 v=0
122560 On ch=8 n=55 v=100
122586 On ch=8 n=55 v=0
122592 On ch=8 n=54 v=100
122618 On ch=8 n=54 v=0
122624 On ch=8 n=53 v=100
122650 On ch=8 n=53 v=0
122656 On ch=8 n=52 v=100
122682 On ch=8 n=52 v=0
122688 On ch=8 n=51 v=100
122714 On ch=8 n=51 v=0
122720 On ch=8 n=50 v=100
122746 On ch=8 n=50 v=0
122752 On ch=8 n=49 v=100
122778 On ch=8 n=49 v=0
122784 On ch=8 n=48 v=100
122810 On ch=8 n=48 v=0
122816 On ch=8 n=46 v=100
122842 On ch=8 n=46 v=0
122848 On ch=8 n=45 v=100
122874 On ch=8 n=45 v=0
122880 Par ch=8 c=0 v=0
122880 Par ch=8 c=32 v=0
122880 PrCh ch=8 p=48
122880 On ch=8 n=43 v=100
122918 On ch=8 n=43 v=0
123264 On ch=8 n=69 v=111
123280 On ch=8 n=69 v=0
123360 On ch=8 n=70 v=111
123376 On ch=8 n=70 v=0
124032 On ch=8 n=70 v=111
124048 On ch=8 n=70 v=0
124128 On ch=8 n=73 v=111
124144 On ch=8 n=73 v=0
124800 Par ch=8 c=0 v=0
124800 Par ch=8 c=32 v=0
124800 PrCh ch=8 p=45
124800 On ch=8 n=60 v=127
124800 On ch=8 n=52 v=127
124800 On ch=8 n=43 v=127
124819 On ch=8 n=43 v=0
124819 On ch=8 n=52 v=0
124819 On ch=8 n=60 v=0
125568 Par ch=8 c=0 v=0
125568 Par ch=8 c=32 v=0
125568 PrCh ch=8 p=48
125568 On ch=8 n=55 v=111
125606 On ch=8 n=55 v=0
125640 On ch=8 n=55 v=111
125659 On ch=8 n=55 v=0
125664 On ch=8 n=55 v=111
125690 On ch=8 n=55 v=0
125696 On ch=8 n=55 v=111
125722 On ch=8 n=55 v=0
125728 On ch=8 n=55 v=111
125754 On ch=8 n=55 v=0
125760 On ch=8 n=55 v=111
125798 On ch=8 n=55 v=0
125832 On ch=8 n=55 v=111
125851 On ch=8 n=55 v=0
125856 On ch=8 n=55 v=111
125882 On ch=8 n=55 v=0
125888 On ch=8 n=55 v=111
125914 On ch=8 n=55 v=0
125920 On ch=8 n=55 v=111
125946 On ch=8 n=55 v=0
125952 On ch=8 n=67 v=111
125978 On ch=8 n=67 v=0
125984 On ch=8 n=66 v=111
126010 On ch=8 n=66 v=0
126016 On ch=8 n=65 v=111
126042 On ch=8 n=65 v=0
126048 On ch=8 n=63 v=111
126074 On ch=8 n=63 v=0
126080 On ch=8 n=62 v=111
126106 On ch=8 n=62 v=0
126112 On ch=8 n=60 v=111
126138 On ch=8 n=60 v=0
126144 On ch=8 n=59 v=111
126170 On ch=8 n=59 v=0
126176 On ch=8 n=56 v=111
126202 On ch=8 n=56 v=0
126208 On ch=8 n=55 v=111
126234 On ch=8 n=55 v=0
126240 On ch=8 n=53 v=111
126266 On ch=8 n=53 v=0
126272 On ch=8 n=51 v=111
126298 On ch=8 n=51 v=0
126304 On ch=8 n=50 v=111
126330 On ch=8 n=50 v=0
126336 On ch=8 n=60 v=127
126367 On ch=8 n=60 v=0
126384 On ch=8 n=48 v=127
126415 On ch=8 n=48 v=0
127104 On ch=8 n=51 v=127
127123 On ch=8 n=51 v=0
127128 On ch=8 n=50 v=127
127147 On ch=8 n=50 v=0
127152 On ch=8 n=51 v=127
127171 On ch=8 n=51 v=0
127176 On ch=8 n=53 v=127
127195 On ch=8 n=53 v=0
127200 On ch=8 n=55 v=127
127238 On ch=8 n=55 v=0
127320 On ch=8 n=48 v=127
127339 On ch=8 n=48 v=0
127344 On ch=8 n=50 v=127
127363 On ch=8 n=50 v=0
127368 On ch=8 n=51 v=127
127387 On ch=8 n=51 v=0
127392 On ch=8 n=53 v=127
127411 On ch=8 n=53 v=0
127416 On ch=8 n=55 v=127
127435 On ch=8 n=55 v=0
127440 On ch=8 n=57 v=127
127459 On ch=8 n=57 v=0
127464 On ch=8 n=59 v=127
127483 On ch=8 n=59 v=0
127488 On ch=8 n=60 v=127
127519 On ch=8 n=60 v=0
127560 On ch=8 n=55 v=127
127576 On ch=8 n=55 v=0
127584 On ch=8 n=48 v=127
127622 On ch=8 n=48 v=0
127824 On ch=8 n=43 v=95
127855 On ch=8 n=43 v=0
127872 Par ch=8 c=11 v=64
127872 On ch=8 n=48 v=95
127876 Par ch=8 c=11 v=63
127880 Par ch=8 c=11 v=62
127884 Par ch=8 c=11 v=61
127888 Par ch=8 c=11 v=60
127892 Par ch=8 c=11 v=59
127896 Par ch=8 c=11 v=58
127900 Par ch=8 c=11 v=57
127904 Par ch=8 c=11 v=56
127908 Par ch=8 c=11 v=55
127910 On ch=8 n=48 v=0
127912 Par ch=8 c=11 v=54
127916 Par ch=8 c=11 v=53
127920 Par ch=8 c=11 v=52
127924 Par ch=8 c=11 v=51
127928 Par ch=8 c=11 v=50
127932 Par ch=8 c=11 v=49
127936 Par ch=8 c=11 v=48
127940 Par ch=8 c=11 v=47
127944 Par ch=8 c=11 v=46
127944 On ch=8 n=43 v=95
127948 Par ch=8 c=11 v=45
127952 Par ch=8 c=11 v=44
127956 Par ch=8 c=11 v=43
127960 Par ch=8 c=11 v=42
127963 On ch=8 n=43 v=0
127964 Par ch=8 c=11 v=41
127968 Par ch=8 c=11 v=40
127968 On ch=8 n=48 v=95
127972 Par ch=8 c=11 v=39
127976 Par ch=8 c=11 v=38
127980 Par ch=8 c=11 v=37
127984 Par ch=8 c=11 v=36
127988 Par ch=8 c=11 v=35
127992 Par ch=8 c=11 v=34
127996 Par ch=8 c=11 v=33
128000 Par ch=8 c=11 v=32
128004 Par ch=8 c=11 v=31
128006 On ch=8 n=48 v=0
128008 Par ch=8 c=11 v=30
128012 Par ch=8 c=11 v=29
128016 Par ch=8 c=11 v=28
128020 Par ch=8 c=11 v=27
128024 Par ch=8 c=11 v=26
128028 Par ch=8 c=11 v=25
128032 Par ch=8 c=11 v=24
128036 Par ch=8 c=11 v=23
128040 Par ch=8 c=11 v=22
128040 On ch=8 n=43 v=95
128044 Par ch=8 c=11 v=21
128048 Par ch=8 c=11 v=20
128052 Par ch=8 c=11 v=19
128056 Par ch=8 c=11 v=18
128059 On ch=8 n=43 v=0
128060 Par ch=8 c=11 v=17
128064 On ch=8 n=48 v=95
128141 On ch=8 n=48 v=0
128208 Par ch=8 c=11 v=64
128208 On ch=8 n=43 v=47
128239 On ch=8 n=43 v=0
128256 On ch=8 n=48 v=47
128294 On ch=8 n=48 v=0
128328 On ch=8 n=43 v=47
128347 On ch=8 n=43 v=0
128352 On ch=8 n=36 v=47
128390 On ch=8 n=36 v=0
128496 On ch=8 n=42 v=47
128515 On ch=8 n=42 v=0
128520 On ch=8 n=43 v=47
128539 On ch=8 n=43 v=0
128544 On ch=8 n=45 v=47
128563 On ch=8 n=45 v=0
128568 On ch=8 n=43 v=47
128587 On ch=8 n=43 v=0
128592 On ch=8 n=45 v=47
128611 On ch=8 n=45 v=0
128616 On ch=8 n=47 v=47
128635 On ch=8 n=47 v=0
128640 On ch=8 n=48 v=47
128678 On ch=8 n=48 v=0
128712 On ch=8 n=43 v=47
128731 On ch=8 n=43 v=0
128736 On ch=8 n=36 v=47
128774 On ch=8 n=36 v=0
128856 On ch=8 n=48 v=47
128875 On ch=8 n=48 v=0
128880 On ch=8 n=50 v=47
128899 On ch=8 n=50 v=0
128904 On ch=8 n=51 v=47
128923 On ch=8 n=51 v=0
128928 On ch=8 n=53 v=47
128947 On ch=8 n=53 v=0
128952 On ch=8 n=55 v=47
128971 On ch=8 n=55 v=0
128976 On ch=8 n=57 v=47
128995 On ch=8 n=57 v=0
129000 On ch=8 n=59 v=47
129019 On ch=8 n=59 v=0
129024 On ch=8 n=60 v=47
129055 On ch=8 n=60 v=0
129096 On ch=8 n=55 v=47
129112 On ch=8 n=55 v=0
129120 On ch=8 n=48 v=47
129151 On ch=8 n=48 v=0
129360 On ch=8 n=55 v=47
129391 On ch=8 n=55 v=0
129408 On ch=8 n=60 v=47
129439 On ch=8 n=60 v=0
129480 On ch=8 n=55 v=47
129496 On ch=8 n=55 v=0
129504 On ch=8 n=60 v=47
129535 On ch=8 n=60 v=0
129576 On ch=8 n=55 v=47
129592 On ch=8 n=55 v=0
129600 On ch=8 n=60 v=47
129677 On ch=8 n=60 v=0
129744 On ch=8 n=55 v=47
129775 On ch=8 n=55 v=0
129792 On ch=8 n=60 v=47
129813 On ch=8 n=60 v=0
129824 On ch=8 n=59 v=47
129845 On ch=8 n=59 v=0
129856 On ch=8 n=60 v=47
129877 On ch=8 n=60 v=0
129888 On ch=8 n=62 v=47
129909 On ch=8 n=62 v=0
129920 On ch=8 n=60 v=47
129941 On ch=8 n=60 v=0
129952 On ch=8 n=59 v=47
129973 On ch=8 n=59 v=0
129984 On ch=8 n=60 v=43
130022 On ch=8 n=60 v=0
130056 On ch=8 n=55 v=40
130074 On ch=8 n=55 v=0
130080 On ch=8 n=56 v=37
130118 On ch=8 n=56 v=0
130152 On ch=8 n=54 v=34
130171 On ch=8 n=54 v=0
130176 On ch=8 n=55 v=31
130214 On ch=8 n=55 v=0
130248 On ch=8 n=51 v=31
130267 On ch=8 n=51 v=0
130272 On ch=8 n=55 v=31
130310 On ch=8 n=55 v=0
130344 On ch=8 n=51 v=31
130363 On ch=8 n=51 v=0
130368 On ch=8 n=55 v=31
130406 On ch=8 n=55 v=0
130440 On ch=8 n=51 v=31
130459 On ch=8 n=51 v=0
130464 On ch=8 n=53 v=31
130483 On ch=8 n=53 v=0
130488 On ch=8 n=51 v=31
130507 On ch=8 n=51 v=0
130512 On ch=8 n=50 v=31
130531 On ch=8 n=50 v=0
130536 On ch=8 n=51 v=31
130555 On ch=8 n=51 v=0
130560 On ch=8 n=55 v=31
130598 On ch=8 n=55 v=0
130632 On ch=8 n=51 v=31
130651 On ch=8 n=51 v=0
130656 On ch=8 n=55 v=31
130694 On ch=8 n=55 v=0
130728 On ch=8 n=51 v=31
130747 On ch=8 n=51 v=0
130752 On ch=8 n=55 v=31
130790 On ch=8 n=55 v=0
130824 On ch=8 n=51 v=31
130843 On ch=8 n=51 v=0
130848 On ch=8 n=56 v=31
130867 On ch=8 n=56 v=0
130872 On ch=8 n=55 v=31
130891 On ch=8 n=55 v=0
130896 On ch=8 n=53 v=31
130915 On ch=8 n=53 v=0
130920 On ch=8 n=51 v=31
130939 On ch=8 n=51 v=0
130944 On ch=8 n=55 v=31
130982 On ch=8 n=55 v=0
131016 On ch=8 n=50 v=31
131035 On ch=8 n=50 v=0
131040 On ch=8 n=43 v=31
131078 On ch=8 n=43 v=0
131168 On ch=8 n=53 v=31
131189 On ch=8 n=53 v=0
131200 On ch=8 n=55 v=31
131221 On ch=8 n=55 v=0
131232 On ch=8 n=56 v=31
131253 On ch=8 n=56 v=0
131264 On ch=8 n=53 v=31
131285 On ch=8 n=53 v=0
131296 On ch=8 n=62 v=31
131317 On ch=8 n=62 v=0
131328 On ch=8 n=55 v=31
131366 On ch=8 n=55 v=0
131400 On ch=8 n=50 v=31
131419 On ch=8 n=50 v=0
131424 On ch=8 n=43 v=31
131462 On ch=8 n=43 v=0
131552 On ch=8 n=53 v=31
131573 On ch=8 n=53 v=0
131584 On ch=8 n=55 v=31
131605 On ch=8 n=55 v=0
131616 On ch=8 n=56 v=31
131637 On ch=8 n=56 v=0
131648 On ch=8 n=53 v=31
131669 On ch=8 n=53 v=0
131680 On ch=8 n=62 v=31
131701 On ch=8 n=62 v=0
131712 On ch=8 n=55 v=31
131738 On ch=8 n=55 v=0
131744 On ch=8 n=51 v=31
131770 On ch=8 n=51 v=0
131776 On ch=8 n=60 v=31
131802 On ch=8 n=60 v=0
131808 On ch=8 n=53 v=31
131834 On ch=8 n=53 v=0
131840 On ch=8 n=50 v=31
131866 On ch=8 n=50 v=0
131872 On ch=8 n=58 v=31
131898 On ch=8 n=58 v=0
131904 On ch=8 n=51 v=31
131930 On ch=8 n=51 v=0
131936 On ch=8 n=48 v=31
131962 On ch=8 n=48 v=0
131968 On ch=8 n=56 v=31
131994 On ch=8 n=56 v=0
132000 On ch=8 n=50 v=31
132026 On ch=8 n=50 v=0
132032 On ch=8 n=43 v=31
132058 On ch=8 n=43 v=0
132064 On ch=8 n=55 v=31
132090 On ch=8 n=55 v=0
132096 On ch=8 n=56 v=31
132122 On ch=8 n=56 v=0
132128 On ch=8 n=53 v=31
132154 On ch=8 n=53 v=0
132160 On ch=8 n=62 v=31
132186 On ch=8 n=62 v=0
132192 On ch=8 n=55 v=31
132218 On ch=8 n=55 v=0
132224 On ch=8 n=51 v=31
132250 On ch=8 n=51 v=0
132256 On ch=8 n=60 v=31
132282 On ch=8 n=60 v=0
132288 On ch=8 n=53 v=31
132314 On ch=8 n=53 v=0
132320 On ch=8 n=50 v=31
132346 On ch=8 n=50 v=0
132352 On ch=8 n=58 v=31
132378 On ch=8 n=58 v=0
132384 On ch=8 n=51 v=31
132410 On ch=8 n=51 v=0
132416 On ch=8 n=48 v=31
132442 On ch=8 n=48 v=0
132448 On ch=8 n=56 v=31
132474 On ch=8 n=56 v=0
132480 On ch=8 n=55 v=31
132518 On ch=8 n=55 v=0
132552 On ch=8 n=50 v=31
132571 On ch=8 n=50 v=0
132576 On ch=8 n=43 v=31
132614 On ch=8 n=43 v=0
132720 On ch=8 n=50 v=31
132739 On ch=8 n=50 v=0
132744 On ch=8 n=51 v=31
132763 On ch=8 n=51 v=0
132768 On ch=8 n=53 v=31
132787 On ch=8 n=53 v=0
132792 On ch=8 n=51 v=31
132811 On ch=8 n=51 v=0
132816 On ch=8 n=53 v=31
132835 On ch=8 n=53 v=0
132840 On ch=8 n=50 v=31
132859 On ch=8 n=50 v=0
132864 On ch=8 n=55 v=31
132902 On ch=8 n=55 v=0
132936 On ch=8 n=50 v=31
132955 On ch=8 n=50 v=0
132960 On ch=8 n=43 v=31
132998 On ch=8 n=43 v=0
133104 On ch=8 n=42 v=31
133123 On ch=8 n=42 v=0
133128 On ch=8 n=43 v=31
133147 On ch=8 n=43 v=0
133152 On ch=8 n=44 v=31
133171 On ch=8 n=44 v=0
133176 On ch=8 n=43 v=31
133195 On ch=8 n=43 v=0
133200 On ch=8 n=41 v=31
133219 On ch=8 n=41 v=0
133224 On ch=8 n=38 v=31
133243 On ch=8 n=38 v=0
133248 Par ch=8 c=11 v=64
133248 On ch=8 n=48 v=31
133279 On ch=8 n=48 v=0
133288 Par ch=8 c=11 v=65
133320 On ch=8 n=43 v=31
133324 Par ch=8 c=11 v=66
133336 On ch=8 n=43 v=0
133344 On ch=8 n=48 v=31
133364 Par ch=8 c=11 v=67
133375 On ch=8 n=48 v=0
133400 Par ch=8 c=11 v=68
133416 On ch=8 n=43 v=31
133432 On ch=8 n=43 v=0
133440 Par ch=8 c=11 v=69
133440 On ch=8 n=48 v=31
133476 Par ch=8 c=11 v=70
133516 Par ch=8 c=11 v=71
133517 On ch=8 n=48 v=0
133552 Par ch=8 c=11 v=72
133584 On ch=8 n=43 v=31
133592 Par ch=8 c=11 v=73
133615 On ch=8 n=43 v=0
133628 Par ch=8 c=11 v=74
133632 On ch=8 n=48 v=31
133664 Par ch=8 c=11 v=75
133704 Par ch=8 c=11 v=76
133709 On ch=8 n=48 v=0
133740 Par ch=8 c=11 v=77
133776 On ch=8 n=43 v=31
133780 Par ch=8 c=11 v=78
133807 On ch=8 n=43 v=0
133816 Par ch=8 c=11 v=79
133824 On ch=8 n=48 v=31
133856 Par ch=8 c=11 v=80
133892 Par ch=8 c=11 v=81
133901 On ch=8 n=48 v=0
133932 Par ch=8 c=11 v=82
133968 Par ch=8 c=11 v=83
133968 On ch=8 n=43 v=31
133999 On ch=8 n=43 v=0
134008 Par ch=8 c=11 v=84
134016 On ch=8 n=48 v=31
134044 Par ch=8 c=11 v=85
134080 Par ch=8 c=11 v=86
134093 On ch=8 n=48 v=0
134120 Par ch=8 c=11 v=87
134156 Par ch=8 c=11 v=88
134160 On ch=8 n=43 v=31
134191 On ch=8 n=43 v=0
134196 Par ch=8 c=11 v=89
134208 On ch=8 n=48 v=31
134232 Par ch=8 c=11 v=90
134234 On ch=8 n=48 v=0
134240 On ch=8 n=43 v=31
134266 On ch=8 n=43 v=0
134272 Par ch=8 c=11 v=91
134272 On ch=8 n=48 v=31
134298 On ch=8 n=48 v=0
134304 On ch=8 n=43 v=31
134308 Par ch=8 c=11 v=92
134330 On ch=8 n=43 v=0
134336 On ch=8 n=48 v=31
134348 Par ch=8 c=11 v=93
134362 On ch=8 n=48 v=0
134368 On ch=8 n=43 v=31
134384 Par ch=8 c=11 v=94
134394 On ch=8 n=43 v=0
134400 On ch=8 n=48 v=31
134424 Par ch=8 c=11 v=95
134438 On ch=8 n=48 v=0
134460 Par ch=8 c=11 v=96
134472 On ch=8 n=55 v=31
134491 On ch=8 n=55 v=0
134496 On ch=8 n=60 v=31
134534 On ch=8 n=60 v=0
134640 Par ch=8 c=11 v=64
134640 On ch=8 n=58 v=63
134652 Par ch=8 c=11 v=65
134659 On ch=8 n=58 v=0
134660 Par ch=8 c=11 v=66
134664 On ch=8 n=56 v=63
134668 Par ch=8 c=11 v=67
134676 Par ch=8 c=11 v=68
134683 On ch=8 n=56 v=0
134684 Par ch=8 c=11 v=69
134688 On ch=8 n=55 v=63
134692 Par ch=8 c=11 v=70
134700 Par ch=8 c=11 v=71
134707 On ch=8 n=55 v=0
134708 Par ch=8 c=11 v=72
134712 On ch=8 n=53 v=63
134720 Par ch=8 c=11 v=73
134728 Par ch=8 c=11 v=74
134731 On ch=8 n=53 v=0
134736 Par ch=8 c=11 v=75
134736 On ch=8 n=51 v=63
134744 Par ch=8 c=11 v=76
134752 Par ch=8 c=11 v=77
134755 On ch=8 n=51 v=0
134760 Par ch=8 c=11 v=78
134760 On ch=8 n=50 v=63
134768 Par ch=8 c=11 v=79
134776 Par ch=8 c=11 v=80
134779 On ch=8 n=50 v=0
134784 Par ch=8 c=11 v=64
134784 On ch=8 n=48 v=79
134822 On ch=8 n=48 v=0
134856 On ch=8 n=43 v=79
134875 On ch=8 n=43 v=0
134880 On ch=8 n=36 v=79
134918 On ch=8 n=36 v=0
135008 Par ch=8 c=11 v=64
135008 On ch=8 n=43 v=79
135020 Par ch=8 c=11 v=65
135028 Par ch=8 c=11 v=66
135034 On ch=8 n=43 v=0
135040 Par ch=8 c=11 v=67
135040 On ch=8 n=48 v=79
135048 Par ch=8 c=11 v=68
135056 Par ch=8 c=11 v=69
135066 On ch=8 n=48 v=0
135068 Par ch=8 c=11 v=70
135072 On ch=8 n=43 v=79
135076 Par ch=8 c=11 v=71
135084 Par ch=8 c=11 v=72
135096 Par ch=8 c=11 v=73
135098 On ch=8 n=43 v=0
135104 Par ch=8 c=11 v=74
135104 On ch=8 n=48 v=79
135112 Par ch=8 c=11 v=75
135124 Par ch=8 c=11 v=76
135130 On ch=8 n=48 v=0
135132 Par ch=8 c=11 v=77
135136 On ch=8 n=43 v=79
135140 Par ch=8 c=11 v=78
135152 Par ch=8 c=11 v=79
135160 Par ch=8 c=11 v=80
135162 On ch=8 n=43 v=0
135168 Par ch=8 c=11 v=64
135168 On ch=8 n=48 v=95
135206 On ch=8 n=48 v=0
135240 On ch=8 n=43 v=95
135259 On ch=8 n=43 v=0
135264 On ch=8 n=36 v=95
135302 On ch=8 n=36 v=0
135392 Par ch=8 c=11 v=64
135392 On ch=8 n=43 v=95
135404 Par ch=8 c=11 v=65
135412 Par ch=8 c=11 v=66
135413 On ch=8 n=43 v=0
135424 Par ch=8 c=11 v=67
135424 On ch=8 n=48 v=95
135432 Par ch=8 c=11 v=68
135440 Par ch=8 c=11 v=69
135445 On ch=8 n=48 v=0
135452 Par ch=8 c=11 v=70
135456 On ch=8 n=55 v=95
135460 Par ch=8 c=11 v=71
135468 Par ch=8 c=11 v=72
135477 On ch=8 n=55 v=0
135480 Par ch=8 c=11 v=73
135488 Par ch=8 c=11 v=74
135488 On ch=8 n=58 v=95
135496 Par ch=8 c=11 v=75
135508 Par ch=8 c=11 v=76
135509 On ch=8 n=58 v=0
135516 Par ch=8 c=11 v=77
135520 On ch=8 n=61 v=95
135524 Par ch=8 c=11 v=78
135536 Par ch=8 c=11 v=79
135541 On ch=8 n=61 v=0
135544 Par ch=8 c=11 v=80
135552 Par ch=8 c=11 v=64
135552 On ch=8 n=60 v=111
135583 On ch=8 n=60 v=0
135624 On ch=8 n=58 v=111
135640 On ch=8 n=58 v=0
135648 On ch=8 n=56 v=111
135679 On ch=8 n=56 v=0
135720 On ch=8 n=55 v=111
135736 On ch=8 n=55 v=0
135744 On ch=8 n=53 v=111
135775 On ch=8 n=53 v=0
135816 On ch=8 n=51 v=111
135832 On ch=8 n=51 v=0
135840 On ch=8 n=49 v=111
135871 On ch=8 n=49 v=0
135912 On ch=8 n=48 v=111
135928 On ch=8 n=48 v=0
135936 On ch=8 n=56 v=111
135967 On ch=8 n=56 v=0
136008 On ch=8 n=55 v=111
136024 On ch=8 n=55 v=0
136032 On ch=8 n=53 v=111
136063 On ch=8 n=53 v=0
136104 On ch=8 n=51 v=111
136120 On ch=8 n=51 v=0
136128 On ch=8 n=49 v=111
136159 On ch=8 n=49 v=0
136200 On ch=8 n=48 v=111
136216 On ch=8 n=48 v=0
136224 On ch=8 n=46 v=111
136255 On ch=8 n=46 v=0
136296 On ch=8 n=44 v=111
136312 On ch=8 n=44 v=0
136320 On ch=8 n=43 v=111
136358 On ch=8 n=43 v=0
137088 Par ch=8 c=11 v=64
137088 On ch=8 n=48 v=127
137092 Par ch=8 c=11 v=63
137096 Par ch=8 c=11 v=62
137100 Par ch=8 c=11 v=61
137104 Par ch=8 c=11 v=60
137108 Par ch=8 c=11 v=59
137109 On ch=8 n=48 v=0
137112 Par ch=8 c=11 v=58
137116 Par ch=8 c=11 v=57
137120 Par ch=8 c=11 v=56
137120 On ch=8 n=47 v=127
137124 Par ch=8 c=11 v=55
137128 Par ch=8 c=11 v=54
137132 Par ch=8 c=11 v=53
137136 Par ch=8 c=11 v=52
137140 Par ch=8 c=11 v=51
137141 On ch=8 n=47 v=0
137144 Par ch=8 c=11 v=50
137148 Par ch=8 c=11 v=49
137152 Par ch=8 c=11 v=48
137152 On ch=8 n=48 v=127
137156 Par ch=8 c=11 v=47
137160 Par ch=8 c=11 v=46
137164 Par ch=8 c=11 v=45
137168 Par ch=8 c=11 v=44
137172 Par ch=8 c=11 v=43
137173 On ch=8 n=48 v=0
137176 Par ch=8 c=11 v=42
137180 Par ch=8 c=11 v=41
137184 Par ch=8 c=11 v=40
137184 On ch=8 n=50 v=127
137188 Par ch=8 c=11 v=39
137192 Par ch=8 c=11 v=38
137196 Par ch=8 c=11 v=37
137200 Par ch=8 c=11 v=36
137204 Par ch=8 c=11 v=35
137205 On ch=8 n=50 v=0
137208 Par ch=8 c=11 v=34
137212 Par ch=8 c=11 v=33
137216 Par ch=8 c=11 v=32
137216 On ch=8 n=48 v=127
137220 Par ch=8 c=11 v=31
137224 Par ch=8 c=11 v=30
137228 Par ch=8 c=11 v=29
137232 Par ch=8 c=11 v=28
137236 Par ch=8 c=11 v=27
137237 On ch=8 n=48 v=0
137240 Par ch=8 c=11 v=26
137244 Par ch=8 c=11 v=25
137248 Par ch=8 c=11 v=24
137248 On ch=8 n=47 v=127
137252 Par ch=8 c=11 v=23
137256 Par ch=8 c=11 v=22
137260 Par ch=8 c=11 v=21
137264 Par ch=8 c=11 v=20
137268 Par ch=8 c=11 v=19
137269 On ch=8 n=47 v=0
137272 Par ch=8 c=11 v=18
137276 Par ch=8 c=11 v=17
137280 On ch=8 n=48 v=127
137357 On ch=8 n=48 v=0
137472 Par ch=8 c=11 v=64
137472 On ch=8 n=48 v=95
137480 Par ch=8 c=11 v=63
137484 Par ch=8 c=11 v=62
137492 Par ch=8 c=11 v=61
137493 On ch=8 n=48 v=0
137496 Par ch=8 c=11 v=60
137504 Par ch=8 c=11 v=59
137504 On ch=8 n=47 v=95
137508 Par ch=8 c=11 v=58
137516 Par ch=8 c=11 v=57
137520 Par ch=8 c=11 v=56
137525 On ch=8 n=47 v=0
137528 Par ch=8 c=11 v=55
137532 Par ch=8 c=11 v=54
137536 On ch=8 n=48 v=95
137540 Par ch=8 c=11 v=53
137544 Par ch=8 c=11 v=52
137552 Par ch=8 c=11 v=51
137556 Par ch=8 c=11 v=50
137557 On ch=8 n=48 v=0
137564 Par ch=8 c=11 v=49
137568 Par ch=8 c=11 v=48
137568 On ch=8 n=50 v=95
137576 Par ch=8 c=11 v=47
137580 Par ch=8 c=11 v=46
137588 Par ch=8 c=11 v=45
137589 On ch=8 n=50 v=0
137592 Par ch=8 c=11 v=44
137600 Par ch=8 c=11 v=43
137600 On ch=8 n=48 v=95
137604 Par ch=8 c=11 v=42
137612 Par ch=8 c=11 v=41
137616 Par ch=8 c=11 v=40
137621 On ch=8 n=48 v=0
137624 Par ch=8 c=11 v=39
137628 Par ch=8 c=11 v=38
137632 On ch=8 n=47 v=95
137636 Par ch=8 c=11 v=37
137640 Par ch=8 c=11 v=36
137648 Par ch=8 c=11 v=35
137652 Par ch=8 c=11 v=34
137653 On ch=8 n=47 v=0
137660 Par ch=8 c=11 v=33
137664 Par ch=8 c=11 v=32
137664 On ch=8 n=48 v=95
137741 On ch=8 n=48 v=0
137856 Par ch=8 c=11 v=64
137856 On ch=8 n=48 v=79
137868 Par ch=8 c=11 v=63
137877 On ch=8 n=48 v=0
137880 Par ch=8 c=11 v=62
137888 On ch=8 n=47 v=79
137892 Par ch=8 c=11 v=61
137904 Par ch=8 c=11 v=60
137909 On ch=8 n=47 v=0
137916 Par ch=8 c=11 v=59
137920 On ch=8 n=48 v=79
137928 Par ch=8 c=11 v=58
137940 Par ch=8 c=11 v=57
137941 On ch=8 n=48 v=0
137952 Par ch=8 c=11 v=56
137952 On ch=8 n=50 v=79
137964 Par ch=8 c=11 v=55
137973 On ch=8 n=50 v=0
137976 Par ch=8 c=11 v=54
137984 On ch=8 n=48 v=79
137988 Par ch=8 c=11 v=53
138000 Par ch=8 c=11 v=52
138005 On ch=8 n=48 v=0
138012 Par ch=8 c=11 v=51
138016 On ch=8 n=47 v=79
138024 Par ch=8 c=11 v=50
138036 Par ch=8 c=11 v=49
138037 On ch=8 n=47 v=0
138048 Par ch=8 c=11 v=48
138048 On ch=8 n=48 v=79
138125 On ch=8 n=48 v=0
138240 Par ch=8 c=11 v=64
138240 On ch=8 n=47 v=47
138266 On ch=8 n=47 v=0
138272 Par ch=8 c=11 v=64
138272 On ch=8 n=46 v=127
138280 Par ch=8 c=11 v=63
138284 Par ch=8 c=11 v=62
138288 Par ch=8 c=11 v=61
138292 Par ch=8 c=11 v=60
138298 On ch=8 n=46 v=0
138300 Par ch=8 c=11 v=59
138304 Par ch=8 c=11 v=58
138304 On ch=8 n=47 v=127
138308 Par ch=8 c=11 v=57
138312 Par ch=8 c=11 v=56
138320 Par ch=8 c=11 v=55
138324 Par ch=8 c=11 v=54
138328 Par ch=8 c=11 v=53
138330 On ch=8 n=47 v=0
138332 Par ch=8 c=11 v=52
138336 On ch=8 n=49 v=127
138340 Par ch=8 c=11 v=51
138344 Par ch=8 c=11 v=50
138348 Par ch=8 c=11 v=49
138352 Par ch=8 c=11 v=48
138360 Par ch=8 c=11 v=47
138362 On ch=8 n=49 v=0
138364 Par ch=8 c=11 v=46
138368 Par ch=8 c=11 v=45
138368 On ch=8 n=47 v=127
138372 Par ch=8 c=11 v=44
138380 Par ch=8 c=11 v=43
138384 Par ch=8 c=11 v=42
138388 Par ch=8 c=11 v=41
138392 Par ch=8 c=11 v=40
138394 On ch=8 n=47 v=0
138400 Par ch=8 c=11 v=39
138400 On ch=8 n=46 v=127
138404 Par ch=8 c=11 v=38
138408 Par ch=8 c=11 v=37
138412 Par ch=8 c=11 v=36
138420 Par ch=8 c=11 v=35
138424 Par ch=8 c=11 v=34
138426 On ch=8 n=46 v=0
138428 Par ch=8 c=11 v=33
138432 Par ch=8 c=11 v=32
138432 On ch=8 n=47 v=127
138509 On ch=8 n=47 v=0
138624 Par ch=8 c=11 v=64
138624 On ch=8 n=47 v=127
138628 Par ch=8 c=11 v=63
138632 Par ch=8 c=11 v=62
138636 Par ch=8 c=11 v=61
138640 Par ch=8 c=11 v=60
138644 Par ch=8 c=11 v=59
138648 Par ch=8 c=11 v=58
138650 On ch=8 n=47 v=0
138652 Par ch=8 c=11 v=57
138656 Par ch=8 c=11 v=56
138656 On ch=8 n=46 v=127
138660 Par ch=8 c=11 v=55
138664 Par ch=8 c=11 v=54
138668 Par ch=8 c=11 v=53
138672 Par ch=8 c=11 v=52
138676 Par ch=8 c=11 v=51
138680 Par ch=8 c=11 v=50
138682 On ch=8 n=46 v=0
138684 Par ch=8 c=11 v=49
138688 Par ch=8 c=11 v=48
138688 On ch=8 n=47 v=127
138692 Par ch=8 c=11 v=47
138696 Par ch=8 c=11 v=46
138700 Par ch=8 c=11 v=45
138704 Par ch=8 c=11 v=44
138708 Par ch=8 c=11 v=43
138712 Par ch=8 c=11 v=42
138714 On ch=8 n=47 v=0
138716 Par ch=8 c=11 v=41
138720 Par ch=8 c=11 v=40
138720 On ch=8 n=49 v=127
138724 Par ch=8 c=11 v=39
138728 Par ch=8 c=11 v=38
138732 Par ch=8 c=11 v=37
138736 Par ch=8 c=11 v=36
138740 Par ch=8 c=11 v=35
138744 Par ch=8 c=11 v=34
138746 On ch=8 n=49 v=0
138748 Par ch=8 c=11 v=33
138752 Par ch=8 c=11 v=32
138752 On ch=8 n=47 v=127
138756 Par ch=8 c=11 v=31
138760 Par ch=8 c=11 v=30
138764 Par ch=8 c=11 v=29
138768 Par ch=8 c=11 v=28
138772 Par ch=8 c=11 v=27
138776 Par ch=8 c=11 v=26
138778 On ch=8 n=47 v=0
138780 Par ch=8 c=11 v=25
138784 Par ch=8 c=11 v=24
138784 On ch=8 n=46 v=127
138788 Par ch=8 c=11 v=23
138792 Par ch=8 c=11 v=22
138796 Par ch=8 c=11 v=21
138800 Par ch=8 c=11 v=20
138804 Par ch=8 c=11 v=19
138808 Par ch=8 c=11 v=18
138810 On ch=8 n=46 v=0
138812 Par ch=8 c=11 v=17
138816 On ch=8 n=47 v=127
138893 On ch=8 n=47 v=0
139008 Par ch=8 c=11 v=64
139008 On ch=8 n=47 v=31
139034 On ch=8 n=47 v=0
139040 On ch=8 n=46 v=31
139066 On ch=8 n=46 v=0
139072 On ch=8 n=47 v=31
139098 On ch=8 n=47 v=0
139104 On ch=8 n=49 v=31
139130 On ch=8 n=49 v=0
139136 On ch=8 n=47 v=31
139162 On ch=8 n=47 v=0
139168 On ch=8 n=46 v=31
139194 On ch=8 n=46 v=0
139200 On ch=8 n=47 v=31
139277 On ch=8 n=47 v=0
139392 Par ch=8 c=11 v=64
139392 On ch=8 n=47 v=31
139404 Par ch=8 c=11 v=63
139416 Par ch=8 c=11 v=62
139418 On ch=8 n=47 v=0
139424 On ch=8 n=46 v=31
139428 Par ch=8 c=11 v=61
139440 Par ch=8 c=11 v=60
139450 On ch=8 n=46 v=0
139452 Par ch=8 c=11 v=59
139456 On ch=8 n=47 v=31
139464 Par ch=8 c=11 v=58
139476 Par ch=8 c=11 v=57
139482 On ch=8 n=47 v=0
139488 Par ch=8 c=11 v=56
139488 On ch=8 n=49 v=31
139500 Par ch=8 c=11 v=55
139512 Par ch=8 c=11 v=54
139514 On ch=8 n=49 v=0
139520 On ch=8 n=47 v=31
139524 Par ch=8 c=11 v=53
139536 Par ch=8 c=11 v=52
139546 On ch=8 n=47 v=0
139548 Par ch=8 c=11 v=51
139552 On ch=8 n=46 v=31
139560 Par ch=8 c=11 v=50
139572 Par ch=8 c=11 v=49
139578 On ch=8 n=46 v=0
139584 Par ch=8 c=11 v=48
139584 On ch=8 n=47 v=31
139661 On ch=8 n=47 v=0
139776 On ch=8 n=52 v=31
139776 On ch=8 n=45 v=31
140006 On ch=8 n=45 v=0
140006 On ch=8 n=52 v=0
140064 On ch=8 n=52 v=31
140064 On ch=8 n=40 v=31
140141 On ch=8 n=40 v=0
140141 On ch=8 n=52 v=0
140160 Par ch=8 c=11 v=48
140160 On ch=8 n=52 v=31
140160 On ch=8 n=45 v=31
140184 Par ch=8 c=11 v=47
140204 Par ch=8 c=11 v=46
140224 Par ch=8 c=11 v=45
140248 Par ch=8 c=11 v=44
140268 Par ch=8 c=11 v=43
140288 Par ch=8 c=11 v=42
140312 Par ch=8 c=11 v=41
140332 Par ch=8 c=11 v=40
140352 Par ch=8 c=11 v=39
140376 Par ch=8 c=11 v=38
140390 On ch=8 n=45 v=0
140390 On ch=8 n=52 v=0
140396 Par ch=8 c=11 v=37
140416 Par ch=8 c=11 v=36
140440 Par ch=8 c=11 v=35
140448 On ch=8 n=52 v=31
140448 On ch=8 n=40 v=31
140460 Par ch=8 c=11 v=34
140480 Par ch=8 c=11 v=33
140504 Par ch=8 c=11 v=32
140525 On ch=8 n=40 v=0
140525 On ch=8 n=52 v=0
140544 On ch=8 n=52 v=31
140544 On ch=8 n=45 v=31
140621 On ch=8 n=45 v=0
140621 On ch=8 n=52 v=0
140928 Par ch=8 c=11 v=64
141312 On ch=8 n=52 v=15
141312 On ch=8 n=45 v=15
141696 Par ch=8 c=11 v=64
141720 Par ch=8 c=11 v=63
141744 Par ch=8 c=11 v=62
141764 Par ch=8 c=11 v=61
141788 Par ch=8 c=11 v=60
141812 Par ch=8 c=11 v=59
141832 Par ch=8 c=11 v=58
141856 Par ch=8 c=11 v=57
141880 Par ch=8 c=11 v=56
141900 Par ch=8 c=11 v=55
141924 Par ch=8 c=11 v=54
141948 Par ch=8 c=11 v=53
141968 Par ch=8 c=11 v=52
141992 Par ch=8 c=11 v=51
142003 On ch=8 n=45 v=0
142003 On ch=8 n=52 v=0
142016 Par ch=8 c=11 v=50
142036 Par ch=8 c=11 v=49
142060 Par ch=8 c=11 v=48
142464 Par ch=8 c=11 v=64
142848 On ch=8 n=47 v=31
142848 On ch=8 n=40 v=31
143923 On ch=8 n=40 v=0
143923 On ch=8 n=47 v=0
144672 On ch=8 n=62 v=31
144768 On ch=8 n=62 v=0
144768 On ch=8 n=61 v=31
144864 On ch=8 n=61 v=0
144864 On ch=8 n=60 v=31
144912 Par ch=8 c=11 v=64
144916 Par ch=8 c=11 v=65
144920 Par ch=8 c=11 v=66
144924 Par ch=8 c=11 v=68
144928 Par ch=8 c=11 v=69
144932 Par ch=8 c=11 v=71
144936 Par ch=8 c=11 v=72
144940 Par ch=8 c=11 v=73
144944 Par ch=8 c=11 v=75
144948 Par ch=8 c=11 v=76
144952 Par ch=8 c=11 v=78
144956 Par ch=8 c=11 v=79
144960 On ch=8 n=60 v=0
144960 Par ch=8 c=11 v=80
144960 On ch=8 n=59 v=31
144964 Par ch=8 c=11 v=79
144968 Par ch=8 c=11 v=78
144972 Par ch=8 c=11 v=76
144976 Par ch=8 c=11 v=75
144980 Par ch=8 c=11 v=74
144984 Par ch=8 c=11 v=72
144988 Par ch=8 c=11 v=71
144992 Par ch=8 c=11 v=70
144996 Par ch=8 c=11 v=68
145000 Par ch=8 c=11 v=67
145004 Par ch=8 c=11 v=66
145008 Par ch=8 c=11 v=64
145056 On ch=8 n=59 v=0
145056 On ch=8 n=64 v=31
145104 On ch=8 n=64 v=0
145104 On ch=8 n=63 v=31
145142 On ch=8 n=63 v=0
145152 On ch=8 n=61 v=31
145248 On ch=8 n=61 v=0
145248 On ch=8 n=59 v=31
145344 On ch=8 n=59 v=0
145344 On ch=8 n=58 v=31
145440 On ch=8 n=58 v=0
145440 On ch=8 n=63 v=31
145488 On ch=8 n=63 v=0
145488 On ch=8 n=61 v=31
145526 On ch=8 n=61 v=0
145536 On ch=8 n=59 v=31
145632 On ch=8 n=59 v=0
145632 On ch=8 n=58 v=31
145728 On ch=8 n=58 v=0
145728 On ch=8 n=56 v=31
145824 On ch=8 n=56 v=0
145824 On ch=8 n=55 v=31
145901 On ch=8 n=55 v=0
145920 On ch=8 n=54 v=31
146016 On ch=8 n=54 v=0
146016 On ch=8 n=57 v=31
146112 On ch=8 n=57 v=0
146112 On ch=8 n=64 v=31
146208 On ch=8 n=64 v=0
146208 On ch=8 n=63 v=31
146256 On ch=8 n=63 v=0
146256 On ch=8 n=62 v=31
146294 On ch=8 n=62 v=0
146304 On ch=8 n=61 v=31
146496 On ch=8 n=61 v=0
146496 On ch=8 n=60 v=31
146592 On ch=8 n=60 v=0
146592 On ch=8 n=59 v=31
146669 On ch=8 n=59 v=0
146688 On ch=8 n=58 v=31
147072 On ch=8 n=58 v=0
147072 On ch=8 n=57 v=31
147456 On ch=8 n=57 v=0
147456 On ch=8 n=56 v=31
147533 On ch=8 n=56 v=0
148224 On ch=8 n=47 v=31
148272 On ch=8 n=47 v=0
148272 On ch=8 n=54 v=31
148320 On ch=8 n=54 v=0
148320 On ch=8 n=52 v=31
148464 On ch=8 n=52 v=0
148464 On ch=8 n=51 v=31
148512 On ch=8 n=51 v=0
148512 On ch=8 n=49 v=31
148560 On ch=8 n=49 v=0
148560 On ch=8 n=48 v=31
148598 On ch=8 n=48 v=0
148608 On ch=8 n=47 v=15
148656 On ch=8 n=47 v=0
148656 On ch=8 n=54 v=15
148704 On ch=8 n=54 v=0
148704 On ch=8 n=52 v=15
148848 On ch=8 n=52 v=0
148848 Par ch=8 c=11 v=64
148848 On ch=8 n=51 v=15
148864 Par ch=8 c=11 v=63
148880 Par ch=8 c=11 v=62
148896 On ch=8 n=51 v=0
148896 Par ch=8 c=11 v=61
148896 On ch=8 n=49 v=15
148908 Par ch=8 c=11 v=60
148924 Par ch=8 c=11 v=59
148940 Par ch=8 c=11 v=58
148944 On ch=8 n=49 v=0
148944 On ch=8 n=48 v=15
148956 Par ch=8 c=11 v=57
148968 Par ch=8 c=11 v=56
148982 On ch=8 n=48 v=0
148984 Par ch=8 c=11 v=55
148992 On ch=8 n=47 v=15
149000 Par ch=8 c=11 v=54
149016 Par ch=8 c=11 v=53
149028 Par ch=8 c=11 v=52
149040 On ch=8 n=47 v=0
149040 On ch=8 n=54 v=15
149044 Par ch=8 c=11 v=51
149060 Par ch=8 c=11 v=50
149076 Par ch=8 c=11 v=49
149088 On ch=8 n=54 v=0
149088 Par ch=8 c=11 v=48
149088 On ch=8 n=52 v=15
149242 On ch=8 n=52 v=0
149376 Par ch=8 c=11 v=64
150528 On ch=8 n=48 v=15
150605 On ch=8 n=48 v=0
150624 On ch=8 n=47 v=15
150701 On ch=8 n=47 v=0
150720 On ch=8 n=46 v=15
150797 On ch=8 n=46 v=0
150816 On ch=8 n=45 v=15
150837 On ch=8 n=45 v=0
150848 On ch=8 n=44 v=15
150869 On ch=8 n=44 v=0
150880 On ch=8 n=43 v=15
150901 On ch=8 n=43 v=0
150912 On ch=8 n=48 v=15
150989 On ch=8 n=48 v=0
151008 On ch=8 n=47 v=15
151085 On ch=8 n=47 v=0
151104 On ch=8 n=46 v=15
151181 On ch=8 n=46 v=0
151200 On ch=8 n=45 v=15
151221 On ch=8 n=45 v=0
151232 On ch=8 n=44 v=15
151253 On ch=8 n=44 v=0
151264 On ch=8 n=43 v=15
151285 On ch=8 n=43 v=0
151296 On ch=8 n=48 v=15
151373 On ch=8 n=48 v=0
151392 On ch=8 n=47 v=15
151469 On ch=8 n=47 v=0
151488 On ch=8 n=46 v=15
151565 On ch=8 n=46 v=0
151584 On ch=8 n=45 v=15
151605 On ch=8 n=45 v=0
151616 On ch=8 n=44 v=15
151637 On ch=8 n=44 v=0
151648 On ch=8 n=43 v=15
151669 On ch=8 n=43 v=0
151680 On ch=8 n=48 v=15
151757 On ch=8 n=48 v=0
151776 On ch=8 n=47 v=15
151853 On ch=8 n=47 v=0
151872 On ch=8 n=46 v=15
151949 On ch=8 n=46 v=0
151968 On ch=8 n=45 v=15
151989 On ch=8 n=45 v=0
152000 On ch=8 n=44 v=15
152021 On ch=8 n=44 v=0
152032 On ch=8 n=43 v=15
152053 On ch=8 n=43 v=0
152064 On ch=8 n=48 v=15
152141 On ch=8 n=48 v=0
152160 On ch=8 n=47 v=15
152237 On ch=8 n=47 v=0
152256 On ch=8 n=46 v=15
152333 On ch=8 n=46 v=0
152352 On ch=8 n=45 v=15
152373 On ch=8 n=45 v=0
152384 On ch=8 n=44 v=15
152405 On ch=8 n=44 v=0
152416 On ch=8 n=43 v=15
152437 On ch=8 n=43 v=0
152448 On ch=8 n=48 v=15
152525 On ch=8 n=48 v=0
152544 On ch=8 n=47 v=15
152621 On ch=8 n=47 v=0
152640 On ch=8 n=46 v=15
152717 On ch=8 n=46 v=0
152736 On ch=8 n=45 v=15
152757 On ch=8 n=45 v=0
152768 On ch=8 n=44 v=15
152789 On ch=8 n=44 v=0
152800 On ch=8 n=43 v=15
152821 On ch=8 n=43 v=0
152832 On ch=8 n=48 v=15
152909 On ch=8 n=48 v=0
152928 On ch=8 n=47 v=15
153005 On ch=8 n=47 v=0
153024 On ch=8 n=46 v=15
153101 On ch=8 n=46 v=0
153120 On ch=8 n=45 v=15
153141 On ch=8 n=45 v=0
153152 On ch=8 n=44 v=15
153173 On ch=8 n=44 v=0
153184 On ch=8 n=43 v=15
153205 On ch=8 n=43 v=0
153216 On ch=8 n=48 v=15
153293 On ch=8 n=48 v=0
153312 On ch=8 n=47 v=15
153389 On ch=8 n=47 v=0
153408 On ch=8 n=46 v=15
153485 On ch=8 n=46 v=0
153504 On ch=8 n=45 v=15
153525 On ch=8 n=45 v=0
153536 On ch=8 n=44 v=15
153557 On ch=8 n=44 v=0
153568 On ch=8 n=43 v=15
153589 On ch=8 n=43 v=0
153600 On ch=8 n=48 v=15
153677 On ch=8 n=48 v=0
153696 On ch=8 n=47 v=15
153773 On ch=8 n=47 v=0
153792 On ch=8 n=46 v=15
153869 On ch=8 n=46 v=0
153888 On ch=8 n=45 v=15
153909 On ch=8 n=45 v=0
153920 On ch=8 n=44 v=15
153941 On ch=8 n=44 v=0
153952 On ch=8 n=43 v=15
153973 On ch=8 n=43 v=0
153984 On ch=8 n=48 v=15
154022 On ch=8 n=48 v=0
154728 On ch=8 n=43 v=15
154747 On ch=8 n=43 v=0
154752 On ch=8 n=48 v=15
154773 On ch=8 n=48 v=0
154784 On ch=8 n=47 v=15
154805 On ch=8 n=47 v=0
154816 On ch=8 n=48 v=15
154837 On ch=8 n=48 v=0
154848 On ch=8 n=50 v=15
154869 On ch=8 n=50 v=0
154880 On ch=8 n=48 v=15
154901 On ch=8 n=48 v=0
154912 On ch=8 n=47 v=15
154933 On ch=8 n=47 v=0
154944 On ch=8 n=48 v=15
154982 On ch=8 n=48 v=0
155136 On ch=8 n=48 v=15
155167 On ch=8 n=48 v=0
155208 On ch=8 n=43 v=15
155224 On ch=8 n=43 v=0
155232 On ch=8 n=36 v=15
155263 On ch=8 n=36 v=0
155424 On ch=8 n=42 v=15
155440 On ch=8 n=42 v=0
155448 On ch=8 n=43 v=15
155464 On ch=8 n=43 v=0
155472 On ch=8 n=45 v=15
155488 On ch=8 n=45 v=0
155496 On ch=8 n=47 v=15
155512 On ch=8 n=47 v=0
155520 On ch=8 n=48 v=31
155558 On ch=8 n=48 v=0
155592 On ch=8 n=43 v=31
155611 On ch=8 n=43 v=0
155616 On ch=8 n=36 v=31
155654 On ch=8 n=36 v=0
155736 On ch=8 n=48 v=31
155752 On ch=8 n=48 v=0
155760 On ch=8 n=50 v=31
155776 On ch=8 n=50 v=0
155784 On ch=8 n=51 v=31
155800 On ch=8 n=51 v=0
155808 On ch=8 n=53 v=31
155824 On ch=8 n=53 v=0
155832 On ch=8 n=55 v=31
155848 On ch=8 n=55 v=0
155856 On ch=8 n=57 v=31
155872 On ch=8 n=57 v=0
155880 On ch=8 n=59 v=31
155896 On ch=8 n=59 v=0
155904 On ch=8 n=60 v=31
155925 On ch=8 n=60 v=0
155936 On ch=8 n=55 v=31
155957 On ch=8 n=55 v=0
155968 On ch=8 n=51 v=31
155989 On ch=8 n=51 v=0
156000 On ch=8 n=58 v=31
156021 On ch=8 n=58 v=0
156032 On ch=8 n=53 v=31
156053 On ch=8 n=53 v=0
156064 On ch=8 n=50 v=31
156085 On ch=8 n=50 v=0
156096 On ch=8 n=56 v=31
156117 On ch=8 n=56 v=0
156128 On ch=8 n=51 v=31
156149 On ch=8 n=51 v=0
156160 On ch=8 n=48 v=31
156181 On ch=8 n=48 v=0
156192 On ch=8 n=55 v=31
156213 On ch=8 n=55 v=0
156224 On ch=8 n=50 v=31
156245 On ch=8 n=50 v=0
156256 On ch=8 n=43 v=31
156277 On ch=8 n=43 v=0
156288 On ch=8 n=62 v=31
156314 On ch=8 n=62 v=0
156320 On ch=8 n=56 v=31
156346 On ch=8 n=56 v=0
156352 On ch=8 n=53 v=31
156378 On ch=8 n=53 v=0
156384 On ch=8 n=60 v=31
156410 On ch=8 n=60 v=0
156416 On ch=8 n=55 v=31
156442 On ch=8 n=55 v=0
156448 On ch=8 n=51 v=31
156474 On ch=8 n=51 v=0
156480 On ch=8 n=58 v=31
156506 On ch=8 n=58 v=0
156512 On ch=8 n=53 v=31
156538 On ch=8 n=53 v=0
156544 On ch=8 n=50 v=31
156570 On ch=8 n=50 v=0
156576 On ch=8 n=56 v=31
156602 On ch=8 n=56 v=0
156608 On ch=8 n=51 v=31
156634 On ch=8 n=51 v=0
156640 On ch=8 n=48 v=31
156666 On ch=8 n=48 v=0
156672 On ch=8 n=55 v=31
156693 On ch=8 n=55 v=0
156704 On ch=8 n=56 v=31
156725 On ch=8 n=56 v=0
156736 On ch=8 n=55 v=31
156757 On ch=8 n=55 v=0
156768 On ch=8 n=53 v=31
156789 On ch=8 n=53 v=0
156800 On ch=8 n=51 v=31
156821 On ch=8 n=51 v=0
156832 On ch=8 n=50 v=31
156853 On ch=8 n=50 v=0
156864 On ch=8 n=55 v=31
156902 On ch=8 n=55 v=0
157056 On ch=8 n=58 v=31
157082 On ch=8 n=58 v=0
157088 On ch=8 n=56 v=31
157114 On ch=8 n=56 v=0
157120 On ch=8 n=55 v=31
157146 On ch=8 n=55 v=0
157152 On ch=8 n=53 v=31
157178 On ch=8 n=53 v=0
157184 On ch=8 n=51 v=31
157210 On ch=8 n=51 v=0
157216 On ch=8 n=50 v=31
157242 On ch=8 n=50 v=0
157248 On ch=8 n=55 v=31
157286 On ch=8 n=55 v=0
157440 On ch=8 n=48 v=31
157471 On ch=8 n=48 v=0
157512 On ch=8 n=43 v=31
157528 On ch=8 n=43 v=0
157536 On ch=8 n=48 v=31
157567 On ch=8 n=48 v=0
157608 On ch=8 n=43 v=31
157624 On ch=8 n=43 v=0
157632 On ch=8 n=48 v=31
157663 On ch=8 n=48 v=0
157704 On ch=8 n=43 v=31
157728 On ch=8 n=43 v=0
157728 On ch=8 n=48 v=31
157752 On ch=8 n=48 v=0
157752 On ch=8 n=47 v=31
157776 On ch=8 n=47 v=0
157776 On ch=8 n=45 v=31
157800 On ch=8 n=45 v=0
157800 On ch=8 n=47 v=31
157824 On ch=8 n=47 v=0
157824 On ch=8 n=48 v=31
157855 On ch=8 n=48 v=0
157896 On ch=8 n=43 v=31
157912 On ch=8 n=43 v=0
157920 On ch=8 n=48 v=31
157951 On ch=8 n=48 v=0
157992 On ch=8 n=43 v=31
158008 On ch=8 n=43 v=0
158016 On ch=8 n=48 v=31
158047 On ch=8 n=48 v=0
158088 On ch=8 n=43 v=31
158112 On ch=8 n=43 v=0
158112 On ch=8 n=48 v=31
158136 On ch=8 n=48 v=0
158136 On ch=8 n=47 v=31
158160 On ch=8 n=47 v=0
158160 On ch=8 n=45 v=31
158184 On ch=8 n=45 v=0
158184 On ch=8 n=47 v=31
158208 On ch=8 n=47 v=0
158208 Par ch=8 c=11 v=64
158208 On ch=8 n=48 v=31
158229 On ch=8 n=48 v=0
158240 On ch=8 n=49 v=31
158261 On ch=8 n=49 v=0
158272 On ch=8 n=48 v=31
158293 On ch=8 n=48 v=0
158300 Par ch=8 c=11 v=65
158304 On ch=8 n=46 v=31
158325 On ch=8 n=46 v=0
158336 On ch=8 n=44 v=31
158357 On ch=8 n=44 v=0
158368 On ch=8 n=43 v=31
158389 On ch=8 n=43 v=0
158392 Par ch=8 c=11 v=66
158400 On ch=8 n=48 v=31
158438 On ch=8 n=48 v=0
158480 Par ch=8 c=11 v=67
158572 Par ch=8 c=11 v=68
158592 On ch=8 n=48 v=31
158618 On ch=8 n=48 v=0
158624 On ch=8 n=49 v=31
158650 On ch=8 n=49 v=0
158656 On ch=8 n=48 v=31
158660 Par ch=8 c=11 v=69
158682 On ch=8 n=48 v=0
158688 On ch=8 n=46 v=31
158714 On ch=8 n=46 v=0
158720 On ch=8 n=44 v=31
158746 On ch=8 n=44 v=0
158752 Par ch=8 c=11 v=70
158752 On ch=8 n=43 v=31
158778 On ch=8 n=43 v=0
158784 On ch=8 n=48 v=31
158822 On ch=8 n=48 v=0
158844 Par ch=8 c=11 v=71
158932 Par ch=8 c=11 v=72
158976 On ch=8 n=48 v=31
159002 On ch=8 n=48 v=0
159008 On ch=8 n=47 v=31
159024 Par ch=8 c=11 v=73
159034 On ch=8 n=47 v=0
159040 On ch=8 n=46 v=31
159066 On ch=8 n=46 v=0
159072 On ch=8 n=45 v=31
159098 On ch=8 n=45 v=0
159104 On ch=8 n=44 v=31
159112 Par ch=8 c=11 v=74
159130 On ch=8 n=44 v=0
159136 On ch=8 n=43 v=31
159162 On ch=8 n=43 v=0
159168 On ch=8 n=48 v=31
159204 Par ch=8 c=11 v=75
159206 On ch=8 n=48 v=0
159296 Par ch=8 c=11 v=76
159360 On ch=8 n=48 v=31
159384 Par ch=8 c=11 v=77
159386 On ch=8 n=48 v=0
159392 On ch=8 n=47 v=31
159418 On ch=8 n=47 v=0
159424 On ch=8 n=46 v=31
159450 On ch=8 n=46 v=0
159456 On ch=8 n=45 v=31
159476 Par ch=8 c=11 v=78
159482 On ch=8 n=45 v=0
159488 On ch=8 n=44 v=31
159514 On ch=8 n=44 v=0
159520 On ch=8 n=43 v=31
159546 On ch=8 n=43 v=0
159552 On ch=8 n=48 v=31
159564 Par ch=8 c=11 v=79
159590 On ch=8 n=48 v=0
159656 Par ch=8 c=11 v=80
159744 Par ch=8 c=11 v=80
159744 On ch=8 n=48 v=31
159768 Par ch=8 c=11 v=81
159770 On ch=8 n=48 v=0
159776 On ch=8 n=47 v=31
159792 Par ch=8 c=11 v=82
159802 On ch=8 n=47 v=0
159808 On ch=8 n=46 v=31
159812 Par ch=8 c=11 v=83
159834 On ch=8 n=46 v=0
159836 Par ch=8 c=11 v=84
159840 On ch=8 n=45 v=31
159860 Par ch=8 c=11 v=85
159866 On ch=8 n=45 v=0
159872 On ch=8 n=44 v=31
159880 Par ch=8 c=11 v=86
159898 On ch=8 n=44 v=0
159904 Par ch=8 c=11 v=87
159904 On ch=8 n=43 v=31
159928 Par ch=8 c=11 v=88
159930 On ch=8 n=43 v=0
159936 On ch=8 n=53 v=31
159948 Par ch=8 c=11 v=89
159962 On ch=8 n=53 v=0
159968 On ch=8 n=52 v=31
159972 Par ch=8 c=11 v=90
159994 On ch=8 n=52 v=0
159996 Par ch=8 c=11 v=91
160000 On ch=8 n=51 v=31
160016 Par ch=8 c=11 v=92
160026 On ch=8 n=51 v=0
160032 On ch=8 n=50 v=31
160040 Par ch=8 c=11 v=93
160058 On ch=8 n=50 v=0
160064 Par ch=8 c=11 v=94
160064 On ch=8 n=49 v=31
160084 Par ch=8 c=11 v=95
160090 On ch=8 n=49 v=0
160096 On ch=8 n=48 v=31
160108 Par ch=8 c=11 v=96
160122 On ch=8 n=48 v=0
160128 On ch=8 n=56 v=31
160140 Par ch=8 c=11 v=96
160152 Par ch=8 c=11 v=97
160154 On ch=8 n=56 v=0
160160 On ch=8 n=55 v=31
160164 Par ch=8 c=11 v=98
160176 Par ch=8 c=11 v=99
160186 On ch=8 n=55 v=0
160188 Par ch=8 c=11 v=100
160192 On ch=8 n=54 v=31
160200 Par ch=8 c=11 v=101
160212 Par ch=8 c=11 v=102
160218 On ch=8 n=54 v=0
160224 Par ch=8 c=11 v=103
160224 On ch=8 n=53 v=31
160236 Par ch=8 c=11 v=104
160248 Par ch=8 c=11 v=105
160250 On ch=8 n=53 v=0
160256 On ch=8 n=52 v=31
160260 Par ch=8 c=11 v=106
160272 Par ch=8 c=11 v=107
160282 On ch=8 n=52 v=0
160284 Par ch=8 c=11 v=108
160288 On ch=8 n=51 v=31
160296 Par ch=8 c=11 v=109
160308 Par ch=8 c=11 v=110
160314 On ch=8 n=51 v=0
160320 Par ch=8 c=11 v=111
160320 On ch=8 n=59 v=31
160332 Par ch=8 c=11 v=112
160344 Par ch=8 c=11 v=113
160346 On ch=8 n=59 v=0
160352 On ch=8 n=58 v=31
160356 Par ch=8 c=11 v=114
160368 Par ch=8 c=11 v=115
160378 On ch=8 n=58 v=0
160380 Par ch=8 c=11 v=116
160384 On ch=8 n=57 v=31
160392 Par ch=8 c=11 v=117
160404 Par ch=8 c=11 v=118
160410 On ch=8 n=57 v=0
160416 Par ch=8 c=11 v=119
160416 On ch=8 n=56 v=31
160428 Par ch=8 c=11 v=120
160440 Par ch=8 c=11 v=121
160442 On ch=8 n=56 v=0
160448 On ch=8 n=55 v=31
160452 Par ch=8 c=11 v=122
160464 Par ch=8 c=11 v=123
160474 On ch=8 n=55 v=0
160476 Par ch=8 c=11 v=124
160480 On ch=8 n=53 v=31
160488 Par ch=8 c=11 v=125
160500 Par ch=8 c=11 v=126
160506 On ch=8 n=53 v=0
160512 Par ch=8 c=11 v=126
160512 On ch=8 n=60 v=31
160516 Par ch=8 c=11 v=125
160520 Par ch=8 c=11 v=124
160524 Par ch=8 c=11 v=123
160528 Par ch=8 c=11 v=121
160532 Par ch=8 c=11 v=120
160536 Par ch=8 c=11 v=119
160538 On ch=8 n=60 v=0
160540 Par ch=8 c=11 v=117
160544 Par ch=8 c=11 v=116
160544 On ch=8 n=59 v=31
160548 Par ch=8 c=11 v=115
160552 Par ch=8 c=11 v=114
160556 Par ch=8 c=11 v=112
160560 Par ch=8 c=11 v=111
160564 Par ch=8 c=11 v=110
160568 Par ch=8 c=11 v=108
160570 On ch=8 n=59 v=0
160572 Par ch=8 c=11 v=107
160576 Par ch=8 c=11 v=106
160576 On ch=8 n=58 v=31
160580 Par ch=8 c=11 v=105
160584 Par ch=8 c=11 v=103
160588 Par ch=8 c=11 v=102
160592 Par ch=8 c=11 v=101
160596 Par ch=8 c=11 v=99
160600 Par ch=8 c=11 v=98
160602 On ch=8 n=58 v=0
160604 Par ch=8 c=11 v=97
160608 Par ch=8 c=11 v=95
160608 On ch=8 n=57 v=31
160612 Par ch=8 c=11 v=94
160616 Par ch=8 c=11 v=93
160620 Par ch=8 c=11 v=92
160624 Par ch=8 c=11 v=90
160628 Par ch=8 c=11 v=89
160632 Par ch=8 c=11 v=88
160634 On ch=8 n=57 v=0
160636 Par ch=8 c=11 v=86
160640 Par ch=8 c=11 v=85
160640 On ch=8 n=56 v=31
160644 Par ch=8 c=11 v=84
160648 Par ch=8 c=11 v=83
160652 Par ch=8 c=11 v=81
160656 Par ch=8 c=11 v=80
160660 Par ch=8 c=11 v=79
160664 Par ch=8 c=11 v=77
160666 On ch=8 n=56 v=0
160668 Par ch=8 c=11 v=76
160672 Par ch=8 c=11 v=75
160672 On ch=8 n=55 v=31
160676 Par ch=8 c=11 v=74
160680 Par ch=8 c=11 v=72
160684 Par ch=8 c=11 v=71
160688 Par ch=8 c=11 v=70
160692 Par ch=8 c=11 v=68
160696 Par ch=8 c=11 v=67
160698 On ch=8 n=55 v=0
160700 Par ch=8 c=11 v=66
160704 Par ch=8 c=11 v=64
160704 On ch=8 n=60 v=31
160742 On ch=8 n=60 v=0
160896 Par ch=8 c=11 v=64
160896 On ch=8 n=60 v=111
160900 Par ch=8 c=11 v=63
160904 Par ch=8 c=11 v=62
160908 Par ch=8 c=11 v=61
160912 Par ch=8 c=11 v=60
160916 Par ch=8 c=11 v=59
160920 Par ch=8 c=11 v=58
160922 On ch=8 n=60 v=0
160924 Par ch=8 c=11 v=57
160928 Par ch=8 c=11 v=56
160928 On ch=8 n=59 v=111
160932 Par ch=8 c=11 v=55
160936 Par ch=8 c=11 v=54
160940 Par ch=8 c=11 v=53
160944 Par ch=8 c=11 v=52
160948 Par ch=8 c=11 v=51
160952 Par ch=8 c=11 v=50
160954 On ch=8 n=59 v=0
160956 Par ch=8 c=11 v=49
160960 Par ch=8 c=11 v=48
160960 On ch=8 n=58 v=111
160964 Par ch=8 c=11 v=47
160968 Par ch=8 c=11 v=46
160972 Par ch=8 c=11 v=45
160976 Par ch=8 c=11 v=44
160980 Par ch=8 c=11 v=43
160984 Par ch=8 c=11 v=42
160986 On ch=8 n=58 v=0
160988 Par ch=8 c=11 v=41
160992 Par ch=8 c=11 v=40
160992 On ch=8 n=57 v=111
160996 Par ch=8 c=11 v=39
161000 Par ch=8 c=11 v=38
161004 Par ch=8 c=11 v=37
161008 Par ch=8 c=11 v=36
161012 Par ch=8 c=11 v=35
161016 Par ch=8 c=11 v=34
161018 On ch=8 n=57 v=0
161020 Par ch=8 c=11 v=33
161024 Par ch=8 c=11 v=32
161024 On ch=8 n=56 v=111
161028 Par ch=8 c=11 v=31
161032 Par ch=8 c=11 v=30
161036 Par ch=8 c=11 v=29
161040 Par ch=8 c=11 v=28
161044 Par ch=8 c=11 v=27
161048 Par ch=8 c=11 v=26
161050 On ch=8 n=56 v=0
161052 Par ch=8 c=11 v=25
161056 Par ch=8 c=11 v=24
161056 On ch=8 n=55 v=111
161060 Par ch=8 c=11 v=23
161064 Par ch=8 c=11 v=22
161068 Par ch=8 c=11 v=21
161072 Par ch=8 c=11 v=20
161076 Par ch=8 c=11 v=19
161080 Par ch=8 c=11 v=18
161082 On ch=8 n=55 v=0
161084 Par ch=8 c=11 v=17
161088 On ch=8 n=60 v=111
161126 On ch=8 n=60 v=0
161280 Par ch=8 c=0 v=0
161280 Par ch=8 c=32 v=0
161280 PrCh ch=8 p=45
161280 Par ch=8 c=11 v=64
161280 On ch=8 n=36 v=111
161280 On ch=8 n=48 v=111
161318 On ch=8 n=48 v=0
161318 On ch=8 n=36 v=0
162336 Par ch=8 c=0 v=0
162336 Par ch=8 c=32 v=0
162336 PrCh ch=8 p=48
162336 On ch=8 n=48 v=31
162357 On ch=8 n=48 v=0
162368 On ch=8 n=46 v=31
162389 On ch=8 n=46 v=0
162400 On ch=8 n=44 v=31
162421 On ch=8 n=44 v=0
162720 On ch=8 n=44 v=31
162741 On ch=8 n=44 v=0
162752 On ch=8 n=43 v=31
162773 On ch=8 n=43 v=0
162784 On ch=8 n=41 v=31
162805 On ch=8 n=41 v=0
163104 On ch=8 n=44 v=31
163125 On ch=8 n=44 v=0
163136 On ch=8 n=43 v=31
163157 On ch=8 n=43 v=0
163168 On ch=8 n=41 v=31
163189 On ch=8 n=41 v=0
163488 On ch=8 n=44 v=31
163509 On ch=8 n=44 v=0
163520 On ch=8 n=43 v=31
163541 On ch=8 n=43 v=0
163552 On ch=8 n=41 v=31
163573 On ch=8 n=41 v=0
163872 On ch=8 n=44 v=31
163893 On ch=8 n=44 v=0
163904 On ch=8 n=43 v=31
163925 On ch=8 n=43 v=0
163936 On ch=8 n=41 v=31
163957 On ch=8 n=41 v=0
169344 On ch=8 n=60 v=111
169357 On ch=8 n=60 v=0
169376 On ch=8 n=59 v=111
169389 On ch=8 n=59 v=0
169408 On ch=8 n=58 v=111
169421 On ch=8 n=58 v=0
169440 On ch=8 n=57 v=111
169453 On ch=8 n=57 v=0
169472 On ch=8 n=56 v=111
169485 On ch=8 n=56 v=0
169504 On ch=8 n=55 v=111
169517 On ch=8 n=55 v=0
169536 On ch=8 n=54 v=111
169549 On ch=8 n=54 v=0
169568 On ch=8 n=53 v=111
169581 On ch=8 n=53 v=0
169600 On ch=8 n=52 v=111
169613 On ch=8 n=52 v=0
169632 On ch=8 n=51 v=111
169645 On ch=8 n=51 v=0
169664 On ch=8 n=50 v=111
169677 On ch=8 n=50 v=0
169696 On ch=8 n=49 v=111
169709 On ch=8 n=49 v=0
169728 On ch=8 n=48 v=111
169741 On ch=8 n=48 v=0
169760 On ch=8 n=47 v=111
169773 On ch=8 n=47 v=0
169792 On ch=8 n=46 v=111
169805 On ch=8 n=46 v=0
169824 On ch=8 n=45 v=111
169837 On ch=8 n=45 v=0
169856 On ch=8 n=44 v=111
169869 On ch=8 n=44 v=0
169888 On ch=8 n=43 v=111
169901 On ch=8 n=43 v=0
169920 On ch=8 n=42 v=111
169933 On ch=8 n=42 v=0
169952 On ch=8 n=41 v=111
169965 On ch=8 n=41 v=0
169984 On ch=8 n=40 v=111
169997 On ch=8 n=40 v=0
170016 On ch=8 n=39 v=111
170029 On ch=8 n=39 v=0
170048 On ch=8 n=38 v=111
170061 On ch=8 n=38 v=0
170080 On ch=8 n=37 v=111
170093 On ch=8 n=37 v=0
170112 On ch=8 n=36 v=111
170150 On ch=8 n=36 v=0
170496 Par ch=8 c=0 v=0
170496 Par ch=8 c=32 v=0
170496 PrCh ch=8 p=45
170496 On ch=8 n=36 v=79
170534 On ch=8 n=36 v=0
170880 On ch=8 n=36 v=31
170918 On ch=8 n=36 v=0
170918 Meta TrkEnd
TrkEnd
MTrk
0 Meta 0x21 01
0 Meta TrkName "CONTRABASS"
192 Par ch=9 c=1 v=8
196 Par ch=9 c=7 v=127
200 Par ch=9 c=10 v=100
204 Par ch=9 c=11 v=64
208 Par ch=9 c=91 v=127
212 Par ch=9 c=93 v=64
216 Par ch=9 c=0 v=0
216 Par ch=9 c=32 v=0
216 PrCh ch=9 p=48
768 On ch=9 n=36 v=127
787 On ch=9 n=36 v=0
792 On ch=9 n=35 v=127
811 On ch=9 n=35 v=0
816 On ch=9 n=36 v=127
835 On ch=9 n=36 v=0
840 On ch=9 n=38 v=127
859 On ch=9 n=38 v=0
864 On ch=9 n=39 v=127
902 On ch=9 n=39 v=0
1536 On ch=9 n=39 v=111
1555 On ch=9 n=39 v=0
1560 On ch=9 n=38 v=111
1579 On ch=9 n=38 v=0
1584 On ch=9 n=39 v=111
1603 On ch=9 n=39 v=0
1608 On ch=9 n=41 v=111
1627 On ch=9 n=41 v=0
1632 On ch=9 n=43 v=111
1670 On ch=9 n=43 v=0
1752 On ch=9 n=36 v=111
1771 On ch=9 n=36 v=0
1776 On ch=9 n=38 v=111
1795 On ch=9 n=38 v=0
1800 On ch=9 n=39 v=111
1819 On ch=9 n=39 v=0
1824 On ch=9 n=41 v=111
1843 On ch=9 n=41 v=0
1848 On ch=9 n=43 v=111
1867 On ch=9 n=43 v=0
1872 On ch=9 n=45 v=111
1891 On ch=9 n=45 v=0
1896 On ch=9 n=47 v=111
1915 On ch=9 n=47 v=0
1920 On ch=9 n=48 v=127
1951 On ch=9 n=48 v=0
1992 On ch=9 n=43 v=111
2008 On ch=9 n=43 v=0
2016 On ch=9 n=36 v=111
2054 On ch=9 n=36 v=0
2256 On ch=9 n=43 v=95
2294 On ch=9 n=43 v=0
2304 On ch=9 n=48 v=95
2342 On ch=9 n=48 v=0
2376 On ch=9 n=43 v=95
2395 On ch=9 n=43 v=0
2400 On ch=9 n=48 v=95
2438 On ch=9 n=48 v=0
2472 On ch=9 n=43 v=95
2491 On ch=9 n=43 v=0
2496 On ch=9 n=48 v=95
2572 On ch=9 n=48 v=0
2640 On ch=9 n=43 v=95
2671 On ch=9 n=43 v=0
2688 On ch=9 n=48 v=95
2709 On ch=9 n=48 v=0
2720 On ch=9 n=47 v=95
2741 On ch=9 n=47 v=0
2752 On ch=9 n=48 v=95
2773 On ch=9 n=48 v=0
2784 On ch=9 n=50 v=95
2805 On ch=9 n=50 v=0
2816 On ch=9 n=48 v=95
2837 On ch=9 n=48 v=0
2848 On ch=9 n=47 v=95
2869 On ch=9 n=47 v=0
2880 Par ch=9 c=11 v=64
2880 On ch=9 n=48 v=95
2892 Par ch=9 c=11 v=63
2904 Par ch=9 c=11 v=62
2911 On ch=9 n=48 v=0
2916 Par ch=9 c=11 v=61
2928 Par ch=9 c=11 v=60
2940 Par ch=9 c=11 v=59
2948 Par ch=9 c=11 v=58
2952 On ch=9 n=43 v=95
2960 Par ch=9 c=11 v=57
2968 On ch=9 n=43 v=0
2972 Par ch=9 c=11 v=56
2976 On ch=9 n=44 v=95
2984 Par ch=9 c=11 v=55
2996 Par ch=9 c=11 v=54
3007 On ch=9 n=44 v=0
3008 Par ch=9 c=11 v=53
3016 Par ch=9 c=11 v=52
3028 Par ch=9 c=11 v=51
3040 Par ch=9 c=11 v=50
3048 On ch=9 n=42 v=95
3052 Par ch=9 c=11 v=49
3064 On ch=9 n=42 v=0
3064 Par ch=9 c=11 v=48
3072 On ch=9 n=43 v=95
3103 On ch=9 n=43 v=0
3144 On ch=9 n=39 v=95
3160 On ch=9 n=39 v=0
3168 On ch=9 n=43 v=95
3199 On ch=9 n=43 v=0
3240 On ch=9 n=39 v=95
3256 On ch=9 n=39 v=0
3264 On ch=9 n=43 v=95
3295 On ch=9 n=43 v=0
3336 On ch=9 n=39 v=95
3352 On ch=9 n=39 v=0
3360 On ch=9 n=41 v=95
3376 On ch=9 n=41 v=0
3384 On ch=9 n=39 v=95
3400 On ch=9 n=39 v=0
3408 On ch=9 n=38 v=95
3424 On ch=9 n=38 v=0
3432 On ch=9 n=39 v=95
3448 On ch=9 n=39 v=0
3456 On ch=9 n=43 v=95
3487 On ch=9 n=43 v=0
3528 On ch=9 n=39 v=95
3544 On ch=9 n=39 v=0
3552 On ch=9 n=43 v=95
3583 On ch=9 n=43 v=0
3624 On ch=9 n=39 v=95
3640 On ch=9 n=39 v=0
3648 Par ch=9 c=11 v=64
3648 On ch=9 n=43 v=79
3656 Par ch=9 c=11 v=65
3660 Par ch=9 c=11 v=66
3668 Par ch=9 c=11 v=67
3672 Par ch=9 c=11 v=68
3679 On ch=9 n=43 v=0
3680 Par ch=9 c=11 v=69
3684 Par ch=9 c=11 v=70
3692 Par ch=9 c=11 v=71
3696 Par ch=9 c=11 v=72
3704 Par ch=9 c=11 v=73
3708 Par ch=9 c=11 v=74
3712 Par ch=9 c=11 v=75
3720 Par ch=9 c=11 v=76
3720 On ch=9 n=39 v=79
3724 Par ch=9 c=11 v=77
3732 Par ch=9 c=11 v=78
3736 On ch=9 n=39 v=0
3736 Par ch=9 c=11 v=79
3744 Par ch=9 c=11 v=80
3744 On ch=9 n=44 v=79
3748 Par ch=9 c=11 v=81
3756 Par ch=9 c=11 v=82
3760 On ch=9 n=44 v=0
3760 Par ch=9 c=11 v=83
3768 Par ch=9 c=11 v=84
3768 On ch=9 n=43 v=79
3772 Par ch=9 c=11 v=85
3776 Par ch=9 c=11 v=86
3784 On ch=9 n=43 v=0
3784 Par ch=9 c=11 v=87
3788 Par ch=9 c=11 v=88
3792 On ch=9 n=41 v=79
3796 Par ch=9 c=11 v=89
3800 Par ch=9 c=11 v=90
3808 On ch=9 n=41 v=0
3808 Par ch=9 c=11 v=91
3812 Par ch=9 c=11 v=92
3816 On ch=9 n=39 v=79
3820 Par ch=9 c=11 v=93
3824 Par ch=9 c=11 v=94
3832 On ch=9 n=39 v=0
3832 Par ch=9 c=11 v=95
3836 Par ch=9 c=11 v=96
3840 Par ch=9 c=11 v=95
3840 On ch=9 n=43 v=79
3844 Par ch=9 c=11 v=94
3848 Par ch=9 c=11 v=93
3852 Par ch=9 c=11 v=92
3856 Par ch=9 c=11 v=90
3860 Par ch=9 c=11 v=89
3864 Par ch=9 c=11 v=88
3868 Par ch=9 c=11 v=86
3871 On ch=9 n=43 v=0
3872 Par ch=9 c=11 v=85
3876 Par ch=9 c=11 v=84
3880 Par ch=9 c=11 v=83
3884 Par ch=9 c=11 v=81
3888 Par ch=9 c=11 v=80
3892 Par ch=9 c=11 v=79
3896 Par ch=9 c=11 v=77
3900 Par ch=9 c=11 v=76
3904 Par ch=9 c=11 v=75
3908 Par ch=9 c=11 v=74
3912 Par ch=9 c=11 v=72
3912 On ch=9 n=38 v=79
3916 Par ch=9 c=11 v=71
3920 Par ch=9 c=11 v=70
3924 Par ch=9 c=11 v=68
3928 On ch=9 n=38 v=0
3928 Par ch=9 c=11 v=67
3932 Par ch=9 c=11 v=66
3936 Par ch=9 c=11 v=64
3936 On ch=9 n=31 v=79
3967 On ch=9 n=31 v=0
4064 Par ch=9 c=11 v=64
4064 On ch=9 n=41 v=79
4072 Par ch=9 c=11 v=65
4076 Par ch=9 c=11 v=66
4080 Par ch=9 c=11 v=67
4084 Par ch=9 c=11 v=68
4085 On ch=9 n=41 v=0
4092 Par ch=9 c=11 v=69
4096 Par ch=9 c=11 v=70
4096 On ch=9 n=43 v=79
4100 Par ch=9 c=11 v=71
4104 Par ch=9 c=11 v=72
4108 Par ch=9 c=11 v=73
4116 Par ch=9 c=11 v=74
4117 On ch=9 n=43 v=0
4120 Par ch=9 c=11 v=75
4124 Par ch=9 c=11 v=76
4128 Par ch=9 c=11 v=77
4128 On ch=9 n=44 v=79
4132 Par ch=9 c=11 v=78
4140 Par ch=9 c=11 v=79
4144 Par ch=9 c=11 v=80
4148 Par ch=9 c=11 v=81
4149 On ch=9 n=44 v=0
4152 Par ch=9 c=11 v=82
4160 Par ch=9 c=11 v=83
4160 On ch=9 n=41 v=79
4164 Par ch=9 c=11 v=84
4168 Par ch=9 c=11 v=85
4172 Par ch=9 c=11 v=86
4176 Par ch=9 c=11 v=87
4181 On ch=9 n=41 v=0
4184 Par ch=9 c=11 v=88
4188 Par ch=9 c=11 v=89
4192 Par ch=9 c=11 v=90
4192 On ch=9 n=50 v=79
4196 Par ch=9 c=11 v=91
4200 Par ch=9 c=11 v=92
4208 Par ch=9 c=11 v=93
4212 Par ch=9 c=11 v=94
4213 On ch=9 n=50 v=0
4216 Par ch=9 c=11 v=95
4220 Par ch=9 c=11 v=96
4224 Par ch=9 c=11 v=95
4224 On ch=9 n=43 v=79
4228 Par ch=9 c=11 v=94
4232 Par ch=9 c=11 v=93
4236 Par ch=9 c=11 v=92
4240 Par ch=9 c=11 v=90
4244 Par ch=9 c=11 v=89
4248 Par ch=9 c=11 v=88
4252 Par ch=9 c=11 v=86
4255 On ch=9 n=43 v=0
4256 Par ch=9 c=11 v=85
4260 Par ch=9 c=11 v=84
4264 Par ch=9 c=11 v=83
4268 Par ch=9 c=11 v=81
4272 Par ch=9 c=11 v=80
4276 Par ch=9 c=11 v=79
4280 Par ch=9 c=11 v=77
4284 Par ch=9 c=11 v=76
4288 Par ch=9 c=11 v=75
4292 Par ch=9 c=11 v=74
4296 Par ch=9 c=11 v=72
4296 On ch=9 n=38 v=79
4300 Par ch=9 c=11 v=71
4304 Par ch=9 c=11 v=70
4308 Par ch=9 c=11 v=68
4312 On ch=9 n=38 v=0
4312 Par ch=9 c=11 v=67
4316 Par ch=9 c=11 v=66
4320 Par ch=9 c=11 v=64
4320 On ch=9 n=31 v=79
4351 On ch=9 n=31 v=0
4448 On ch=9 n=41 v=79
4469 On ch=9 n=41 v=0
4480 On ch=9 n=43 v=87
4501 On ch=9 n=43 v=0
4512 On ch=9 n=44 v=95
4533 On ch=9 n=44 v=0
4544 On ch=9 n=41 v=95
4565 On ch=9 n=41 v=0
4576 On ch=9 n=50 v=95
4597 On ch=9 n=50 v=0
4608 On ch=9 n=43 v=47
4634 On ch=9 n=43 v=0
4640 On ch=9 n=39 v=47
4666 On ch=9 n=39 v=0
4672 On ch=9 n=48 v=47
4698 On ch=9 n=48 v=0
4704 On ch=9 n=41 v=47
4730 On ch=9 n=41 v=0
4736 On ch=9 n=38 v=47
4762 On ch=9 n=38 v=0
4768 On ch=9 n=46 v=47
4794 On ch=9 n=46 v=0
4800 On ch=9 n=39 v=47
4826 On ch=9 n=39 v=0
4832 On ch=9 n=36 v=47
4858 On ch=9 n=36 v=0
4864 On ch=9 n=44 v=47
4890 On ch=9 n=44 v=0
4896 On ch=9 n=38 v=47
4922 On ch=9 n=38 v=0
4928 On ch=9 n=31 v=47
4954 On ch=9 n=31 v=0
4960 On ch=9 n=43 v=47
4986 On ch=9 n=43 v=0
4992 Par ch=9 c=11 v=64
4992 On ch=9 n=44 v=95
5004 Par ch=9 c=11 v=63
5012 Par ch=9 c=11 v=62
5018 On ch=9 n=44 v=0
5020 Par ch=9 c=11 v=61
5024 On ch=9 n=41 v=95
5028 Par ch=9 c=11 v=60
5040 Par ch=9 c=11 v=59
5048 Par ch=9 c=11 v=58
5050 On ch=9 n=41 v=0
5056 Par ch=9 c=11 v=57
5056 On ch=9 n=50 v=95
5064 Par ch=9 c=11 v=56
5076 Par ch=9 c=11 v=55
5082 On ch=9 n=50 v=0
5084 Par ch=9 c=11 v=54
5088 On ch=9 n=43 v=95
5092 Par ch=9 c=11 v=53
5100 Par ch=9 c=11 v=52
5112 Par ch=9 c=11 v=51
5114 On ch=9 n=43 v=0
5120 Par ch=9 c=11 v=50
5120 On ch=9 n=39 v=95
5128 Par ch=9 c=11 v=49
5136 Par ch=9 c=11 v=48
5146 On ch=9 n=39 v=0
5148 Par ch=9 c=11 v=47
5152 On ch=9 n=48 v=95
5156 Par ch=9 c=11 v=46
5164 Par ch=9 c=11 v=45
5172 Par ch=9 c=11 v=44
5178 On ch=9 n=48 v=0
5184 Par ch=9 c=11 v=43
5184 On ch=9 n=41 v=95
5192 Par ch=9 c=11 v=42
5200 Par ch=9 c=11 v=41
5208 Par ch=9 c=11 v=40
5210 On ch=9 n=41 v=0
5216 On ch=9 n=38 v=95
5220 Par ch=9 c=11 v=39
5228 Par ch=9 c=11 v=38
5236 Par ch=9 c=11 v=37
5242 On ch=9 n=38 v=0
5244 Par ch=9 c=11 v=36
5248 On ch=9 n=46 v=95
5256 Par ch=9 c=11 v=35
5264 Par ch=9 c=11 v=34
5272 Par ch=9 c=11 v=33
5274 On ch=9 n=46 v=0
5280 Par ch=9 c=11 v=32
5280 On ch=9 n=39 v=95
5306 On ch=9 n=39 v=0
5312 On ch=9 n=36 v=95
5338 On ch=9 n=36 v=0
5344 On ch=9 n=44 v=95
5370 On ch=9 n=44 v=0
5376 Par ch=9 c=11 v=64
5376 On ch=9 n=43 v=95
5407 On ch=9 n=43 v=0
5448 On ch=9 n=38 v=71
5464 On ch=9 n=38 v=0
5472 On ch=9 n=31 v=47
5503 On ch=9 n=31 v=0
5616 Par ch=9 c=11 v=64
5616 On ch=9 n=38 v=47
5620 Par ch=9 c=11 v=65
5624 Par ch=9 c=11 v=66
5628 Par ch=9 c=11 v=68
5632 Par ch=9 c=11 v=69
5635 On ch=9 n=38 v=0
5636 Par ch=9 c=11 v=70
5640 Par ch=9 c=11 v=72
5640 On ch=9 n=39 v=47
5644 Par ch=9 c=11 v=73
5648 Par ch=9 c=11 v=74
5652 Par ch=9 c=11 v=76
5656 Par ch=9 c=11 v=77
5659 On ch=9 n=39 v=0
5660 Par ch=9 c=11 v=78
5664 Par ch=9 c=11 v=80
5664 On ch=9 n=41 v=47
5668 Par ch=9 c=11 v=81
5672 Par ch=9 c=11 v=83
5676 Par ch=9 c=11 v=84
5680 Par ch=9 c=11 v=85
5683 On ch=9 n=41 v=0
5684 Par ch=9 c=11 v=87
5688 Par ch=9 c=11 v=88
5688 On ch=9 n=39 v=47
5692 Par ch=9 c=11 v=89
5696 Par ch=9 c=11 v=91
5700 Par ch=9 c=11 v=92
5704 Par ch=9 c=11 v=93
5707 On ch=9 n=39 v=0
5708 Par ch=9 c=11 v=95
5712 Par ch=9 c=11 v=96
5712 On ch=9 n=41 v=47
5716 Par ch=9 c=11 v=98
5720 Par ch=9 c=11 v=99
5724 Par ch=9 c=11 v=100
5728 Par ch=9 c=11 v=102
5731 On ch=9 n=41 v=0
5732 Par ch=9 c=11 v=103
5736 Par ch=9 c=11 v=104
5736 On ch=9 n=38 v=47
5740 Par ch=9 c=11 v=106
5744 Par ch=9 c=11 v=107
5748 Par ch=9 c=11 v=108
5752 Par ch=9 c=11 v=110
5755 On ch=9 n=38 v=0
5756 Par ch=9 c=11 v=111
5760 Par ch=9 c=11 v=64
5760 On ch=9 n=43 v=95
5791 On ch=9 n=43 v=0
5832 On ch=9 n=38 v=71
5848 On ch=9 n=38 v=0
5856 On ch=9 n=31 v=47
5887 On ch=9 n=31 v=0
6000 Par ch=9 c=11 v=64
6000 On ch=9 n=42 v=95
6000 On ch=9 n=30 v=95
6012 Par ch=9 c=11 v=63
6019 On ch=9 n=30 v=0
6019 On ch=9 n=42 v=0
6020 Par ch=9 c=11 v=62
6024 On ch=9 n=43 v=95
6024 On ch=9 n=31 v=95
6028 Par ch=9 c=11 v=61
6036 Par ch=9 c=11 v=60
6043 On ch=9 n=31 v=0
6043 On ch=9 n=43 v=0
6044 Par ch=9 c=11 v=59
6048 On ch=9 n=44 v=95
6048 On ch=9 n=32 v=95
6052 Par ch=9 c=11 v=58
6060 Par ch=9 c=11 v=57
6067 On ch=9 n=32 v=0
6067 On ch=9 n=44 v=0
6068 Par ch=9 c=11 v=56
6072 On ch=9 n=43 v=95
6072 On ch=9 n=31 v=95
6080 Par ch=9 c=11 v=55
6088 Par ch=9 c=11 v=54
6091 On ch=9 n=31 v=0
6091 On ch=9 n=43 v=0
6096 Par ch=9 c=11 v=53
6096 On ch=9 n=41 v=95
6096 On ch=9 n=29 v=95
6104 Par ch=9 c=11 v=52
6112 Par ch=9 c=11 v=51
6115 On ch=9 n=29 v=0
6115 On ch=9 n=41 v=0
6120 Par ch=9 c=11 v=50
6120 On ch=9 n=38 v=95
6120 On ch=9 n=26 v=95
6128 Par ch=9 c=11 v=49
6136 Par ch=9 c=11 v=48
6139 On ch=9 n=26 v=0
6139 On ch=9 n=38 v=0
6144 Par ch=9 c=11 v=64
6144 On ch=9 n=36 v=79
6152 Par ch=9 c=11 v=63
6156 Par ch=9 c=11 v=62
6164 Par ch=9 c=11 v=61
6168 Par ch=9 c=11 v=60
6175 On ch=9 n=36 v=0
6176 Par ch=9 c=11 v=59
6180 Par ch=9 c=11 v=58
6188 Par ch=9 c=11 v=57
6192 Par ch=9 c=11 v=56
6200 Par ch=9 c=11 v=55
6204 Par ch=9 c=11 v=54
6212 Par ch=9 c=11 v=53
6216 Par ch=9 c=11 v=52
6216 On ch=9 n=31 v=79
6224 Par ch=9 c=11 v=51
6228 Par ch=9 c=11 v=50
6232 On ch=9 n=31 v=0
6236 Par ch=9 c=11 v=49
6240 Par ch=9 c=11 v=48
6240 On ch=9 n=36 v=79
6248 Par ch=9 c=11 v=47
6252 Par ch=9 c=11 v=46
6260 Par ch=9 c=11 v=45
6264 Par ch=9 c=11 v=44
6271 On ch=9 n=36 v=0
6272 Par ch=9 c=11 v=43
6276 Par ch=9 c=11 v=42
6284 Par ch=9 c=11 v=41
6288 Par ch=9 c=11 v=40
6296 Par ch=9 c=11 v=39
6300 Par ch=9 c=11 v=38
6308 Par ch=9 c=11 v=37
6312 Par ch=9 c=11 v=36
6312 On ch=9 n=31 v=79
6320 Par ch=9 c=11 v=35
6324 Par ch=9 c=11 v=34
6328 On ch=9 n=31 v=0
6332 Par ch=9 c=11 v=33
6336 Par ch=9 c=11 v=32
6336 On ch=9 n=36 v=79
6367 On ch=9 n=36 v=0
6480 Par ch=9 c=11 v=64
6480 On ch=9 n=31 v=47
6496 Par ch=9 c=11 v=63
6508 Par ch=9 c=11 v=62
6511 On ch=9 n=31 v=0
6520 Par ch=9 c=11 v=61
6528 On ch=9 n=36 v=47
6532 Par ch=9 c=11 v=60
6544 Par ch=9 c=11 v=59
6559 On ch=9 n=36 v=0
6560 Par ch=9 c=11 v=58
6572 Par ch=9 c=11 v=57
6584 Par ch=9 c=11 v=56
6596 Par ch=9 c=11 v=55
6608 Par ch=9 c=11 v=54
6620 Par ch=9 c=11 v=53
6636 Par ch=9 c=11 v=52
6648 Par ch=9 c=11 v=51
6660 Par ch=9 c=11 v=50
6672 Par ch=9 c=11 v=49
6672 On ch=9 n=31 v=47
6684 Par ch=9 c=11 v=48
6696 Par ch=9 c=11 v=47
6703 On ch=9 n=31 v=0
6712 Par ch=9 c=11 v=46
6720 On ch=9 n=36 v=47
6724 Par ch=9 c=11 v=45
6736 Par ch=9 c=11 v=44
6748 Par ch=9 c=11 v=43
6751 On ch=9 n=36 v=0
6760 Par ch=9 c=11 v=42
6776 Par ch=9 c=11 v=41
6788 Par ch=9 c=11 v=40
6800 Par ch=9 c=11 v=39
6812 Par ch=9 c=11 v=38
6824 Par ch=9 c=11 v=37
6836 Par ch=9 c=11 v=36
6852 Par ch=9 c=11 v=35
6864 Par ch=9 c=11 v=34
6864 On ch=9 n=31 v=47
6876 Par ch=9 c=11 v=33
6888 Par ch=9 c=11 v=32
6895 On ch=9 n=31 v=0
6912 Par ch=9 c=11 v=64
6912 On ch=9 n=36 v=15
6943 On ch=9 n=36 v=0
6984 On ch=9 n=31 v=15
7000 On ch=9 n=31 v=0
7008 On ch=9 n=24 v=15
7039 On ch=9 n=24 v=0
7152 On ch=9 n=30 v=15
7168 On ch=9 n=30 v=0
7176 On ch=9 n=31 v=15
7192 On ch=9 n=31 v=0
7200 On ch=9 n=33 v=15
7216 On ch=9 n=33 v=0
7224 On ch=9 n=31 v=15
7240 On ch=9 n=31 v=0
7248 On ch=9 n=33 v=15
7264 On ch=9 n=33 v=0
7272 On ch=9 n=35 v=15
7288 On ch=9 n=35 v=0
7296 On ch=9 n=36 v=15
7327 On ch=9 n=36 v=0
7368 On ch=9 n=31 v=15
7384 On ch=9 n=31 v=0
7392 On ch=9 n=24 v=15
7423 On ch=9 n=24 v=0
7512 On ch=9 n=36 v=31
7528 On ch=9 n=36 v=0
7536 On ch=9 n=38 v=31
7552 On ch=9 n=38 v=0
7560 On ch=9 n=39 v=31
7576 On ch=9 n=39 v=0
7584 On ch=9 n=41 v=31
7600 On ch=9 n=41 v=0
7608 On ch=9 n=43 v=31
7624 On ch=9 n=43 v=0
7632 On ch=9 n=45 v=31
7648 On ch=9 n=45 v=0
7656 On ch=9 n=47 v=31
7672 On ch=9 n=47 v=0
7680 On ch=9 n=48 v=31
7711 On ch=9 n=48 v=0
7752 On ch=9 n=43 v=31
7768 On ch=9 n=43 v=0
7776 On ch=9 n=36 v=31
7807 On ch=9 n=36 v=0
8016 On ch=9 n=43 v=31
8047 On ch=9 n=43 v=0
8064 On ch=9 n=48 v=31
8095 On ch=9 n=48 v=0
8136 On ch=9 n=43 v=31
8152 On ch=9 n=43 v=0
8160 On ch=9 n=48 v=31
8191 On ch=9 n=48 v=0
8232 On ch=9 n=43 v=31
8248 On ch=9 n=43 v=0
8256 On ch=9 n=48 v=31
8333 On ch=9 n=48 v=0
8400 On ch=9 n=43 v=31
8431 On ch=9 n=43 v=0
8448 On ch=9 n=48 v=31
8469 On ch=9 n=48 v=0
8480 On ch=9 n=47 v=31
8501 On ch=9 n=47 v=0
8512 On ch=9 n=48 v=31
8533 On ch=9 n=48 v=0
8544 On ch=9 n=50 v=31
8565 On ch=9 n=50 v=0
8576 On ch=9 n=48 v=31
8597 On ch=9 n=48 v=0
8608 On ch=9 n=47 v=31
8629 On ch=9 n=47 v=0
8640 On ch=9 n=48 v=31
8678 On ch=9 n=48 v=0
8712 On ch=9 n=43 v=31
8731 On ch=9 n=43 v=0
8736 On ch=9 n=44 v=31
8774 On ch=9 n=44 v=0
8808 On ch=9 n=42 v=31
8827 On ch=9 n=42 v=0
8832 On ch=9 n=43 v=31
8870 On ch=9 n=43 v=0
8904 On ch=9 n=39 v=31
8923 On ch=9 n=39 v=0
8928 On ch=9 n=43 v=31
8966 On ch=9 n=43 v=0
9000 On ch=9 n=39 v=31
9019 On ch=9 n=39 v=0
9024 On ch=9 n=43 v=31
9062 On ch=9 n=43 v=0
9096 On ch=9 n=39 v=31
9120 On ch=9 n=39 v=0
9120 On ch=9 n=41 v=31
9144 On ch=9 n=41 v=0
9144 On ch=9 n=39 v=31
9168 On ch=9 n=39 v=0
9168 On ch=9 n=38 v=31
9192 On ch=9 n=38 v=0
9192 On ch=9 n=39 v=31
9216 On ch=9 n=39 v=0
9216 On ch=9 n=43 v=31
9247 On ch=9 n=43 v=0
9288 On ch=9 n=39 v=31
9307 On ch=9 n=39 v=0
9312 On ch=9 n=43 v=31
9350 On ch=9 n=43 v=0
9384 On ch=9 n=39 v=31
9403 On ch=9 n=39 v=0
9408 On ch=9 n=43 v=31
9446 On ch=9 n=43 v=0
9480 On ch=9 n=39 v=31
9504 On ch=9 n=39 v=0
9504 On ch=9 n=44 v=31
9528 On ch=9 n=44 v=0
9528 On ch=9 n=43 v=31
9552 On ch=9 n=43 v=0
9552 On ch=9 n=41 v=31
9576 On ch=9 n=41 v=0
9576 On ch=9 n=39 v=31
9600 On ch=9 n=39 v=0
9600 On ch=9 n=43 v=95
9631 On ch=9 n=43 v=0
9672 On ch=9 n=38 v=47
9688 On ch=9 n=38 v=0
9696 On ch=9 n=31 v=47
9727 On ch=9 n=31 v=0
9824 Par ch=9 c=11 v=64
9824 On ch=9 n=41 v=47
9828 Par ch=9 c=11 v=65
9832 Par ch=9 c=11 v=66
9836 Par ch=9 c=11 v=67
9840 Par ch=9 c=11 v=68
9844 Par ch=9 c=11 v=70
9845 On ch=9 n=41 v=0
9848 Par ch=9 c=11 v=71
9852 Par ch=9 c=11 v=72
9856 Par ch=9 c=11 v=73
9856 On ch=9 n=43 v=47
9860 Par ch=9 c=11 v=75
9864 Par ch=9 c=11 v=76
9868 Par ch=9 c=11 v=77
9872 Par ch=9 c=11 v=78
9876 Par ch=9 c=11 v=79
9877 On ch=9 n=43 v=0
9880 Par ch=9 c=11 v=81
9884 Par ch=9 c=11 v=82
9888 Par ch=9 c=11 v=83
9888 On ch=9 n=44 v=47
9892 Par ch=9 c=11 v=84
9896 Par ch=9 c=11 v=86
9900 Par ch=9 c=11 v=87
9904 Par ch=9 c=11 v=88
9908 Par ch=9 c=11 v=89
9909 On ch=9 n=44 v=0
9912 Par ch=9 c=11 v=90
9916 Par ch=9 c=11 v=92
9920 Par ch=9 c=11 v=93
9920 On ch=9 n=41 v=47
9924 Par ch=9 c=11 v=94
9928 Par ch=9 c=11 v=95
9932 Par ch=9 c=11 v=97
9936 Par ch=9 c=11 v=98
9940 Par ch=9 c=11 v=99
9941 On ch=9 n=41 v=0
9944 Par ch=9 c=11 v=100
9948 Par ch=9 c=11 v=101
9952 Par ch=9 c=11 v=103
9952 On ch=9 n=50 v=47
9956 Par ch=9 c=11 v=104
9960 Par ch=9 c=11 v=105
9964 Par ch=9 c=11 v=106
9968 Par ch=9 c=11 v=108
9972 Par ch=9 c=11 v=109
9973 On ch=9 n=50 v=0
9976 Par ch=9 c=11 v=110
9980 Par ch=9 c=11 v=111
9984 Par ch=9 c=11 v=64
9984 On ch=9 n=43 v=95
10015 On ch=9 n=43 v=0
10056 On ch=9 n=38 v=47
10072 On ch=9 n=38 v=0
10080 On ch=9 n=31 v=47
10111 On ch=9 n=31 v=0
10208 Par ch=9 c=11 v=64
10208 On ch=9 n=41 v=47
10212 Par ch=9 c=11 v=65
10216 Par ch=9 c=11 v=66
10220 Par ch=9 c=11 v=67
10224 Par ch=9 c=11 v=68
10228 Par ch=9 c=11 v=70
10229 On ch=9 n=41 v=0
10232 Par ch=9 c=11 v=71
10236 Par ch=9 c=11 v=72
10240 Par ch=9 c=11 v=73
10240 On ch=9 n=43 v=47
10244 Par ch=9 c=11 v=75
10248 Par ch=9 c=11 v=76
10252 Par ch=9 c=11 v=77
10256 Par ch=9 c=11 v=78
10260 Par ch=9 c=11 v=79
10261 On ch=9 n=43 v=0
10264 Par ch=9 c=11 v=81
10268 Par ch=9 c=11 v=82
10272 Par ch=9 c=11 v=83
10272 On ch=9 n=44 v=47
10276 Par ch=9 c=11 v=84
10280 Par ch=9 c=11 v=86
10284 Par ch=9 c=11 v=87
10288 Par ch=9 c=11 v=88
10292 Par ch=9 c=11 v=89
10293 On ch=9 n=44 v=0
10296 Par ch=9 c=11 v=90
10300 Par ch=9 c=11 v=92
10304 Par ch=9 c=11 v=93
10304 On ch=9 n=41 v=47
10308 Par ch=9 c=11 v=94
10312 Par ch=9 c=11 v=95
10316 Par ch=9 c=11 v=97
10320 Par ch=9 c=11 v=98
10324 Par ch=9 c=11 v=99
10325 On ch=9 n=41 v=0
10328 Par ch=9 c=11 v=100
10332 Par ch=9 c=11 v=101
10336 Par ch=9 c=11 v=103
10336 On ch=9 n=50 v=47
10340 Par ch=9 c=11 v=104
10344 Par ch=9 c=11 v=105
10348 Par ch=9 c=11 v=106
10352 Par ch=9 c=11 v=108
10356 Par ch=9 c=11 v=109
10357 On ch=9 n=50 v=0
10360 Par ch=9 c=11 v=110
10364 Par ch=9 c=11 v=111
10368 Par ch=9 c=11 v=112
10368 On ch=9 n=43 v=47
10376 Par ch=9 c=11 v=111
10384 Par ch=9 c=11 v=110
10392 Par ch=9 c=11 v=109
10394 On ch=9 n=43 v=0
10400 Par ch=9 c=11 v=108
10400 On ch=9 n=39 v=47
10408 Par ch=9 c=11 v=107
10416 Par ch=9 c=11 v=106
10424 Par ch=9 c=11 v=105
10426 On ch=9 n=39 v=0
10432 Par ch=9 c=11 v=104
10432 On ch=9 n=48 v=47
10440 Par ch=9 c=11 v=103
10448 Par ch=9 c=11 v=102
10456 Par ch=9 c=11 v=101
10458 On ch=9 n=48 v=0
10464 Par ch=9 c=11 v=100
10464 On ch=9 n=41 v=47
10468 Par ch=9 c=11 v=99
10476 Par ch=9 c=11 v=98
10484 Par ch=9 c=11 v=97
10490 On ch=9 n=41 v=0
10492 Par ch=9 c=11 v=96
10496 On ch=9 n=38 v=47
10500 Par ch=9 c=11 v=95
10508 Par ch=9 c=11 v=94
10516 Par ch=9 c=11 v=93
10522 On ch=9 n=38 v=0
10524 Par ch=9 c=11 v=92
10528 On ch=9 n=46 v=47
10532 Par ch=9 c=11 v=91
10540 Par ch=9 c=11 v=90
10548 Par ch=9 c=11 v=89
10554 On ch=9 n=46 v=0
10556 Par ch=9 c=11 v=88
10560 Par ch=9 c=11 v=87
10560 On ch=9 n=39 v=47
10568 Par ch=9 c=11 v=86
10576 Par ch=9 c=11 v=85
10584 Par ch=9 c=11 v=84
10586 On ch=9 n=39 v=0
10592 Par ch=9 c=11 v=83
10592 On ch=9 n=36 v=47
10600 Par ch=9 c=11 v=82
10608 Par ch=9 c=11 v=81
10616 Par ch=9 c=11 v=80
10618 On ch=9 n=36 v=0
10624 Par ch=9 c=11 v=79
10624 On ch=9 n=44 v=47
10632 Par ch=9 c=11 v=78
10640 Par ch=9 c=11 v=77
10648 Par ch=9 c=11 v=76
10650 On ch=9 n=44 v=0
10656 Par ch=9 c=11 v=75
10656 On ch=9 n=38 v=47
10660 Par ch=9 c=11 v=74
10668 Par ch=9 c=11 v=73
10676 Par ch=9 c=11 v=72
10682 On ch=9 n=38 v=0
10684 Par ch=9 c=11 v=71
10688 On ch=9 n=31 v=47
10692 Par ch=9 c=11 v=70
10700 Par ch=9 c=11 v=69
10708 Par ch=9 c=11 v=68
10714 On ch=9 n=31 v=0
10716 Par ch=9 c=11 v=67
10720 On ch=9 n=43 v=47
10724 Par ch=9 c=11 v=66
10732 Par ch=9 c=11 v=65
10740 Par ch=9 c=11 v=64
10746 On ch=9 n=43 v=0
10752 Par ch=9 c=11 v=112
10752 On ch=9 n=44 v=47
10760 Par ch=9 c=11 v=111
10768 Par ch=9 c=11 v=110
10776 Par ch=9 c=11 v=109
10778 On ch=9 n=44 v=0
10784 Par ch=9 c=11 v=108
10784 On ch=9 n=41 v=47
10792 Par ch=9 c=11 v=107
10800 Par ch=9 c=11 v=106
10808 Par ch=9 c=11 v=105
10810 On ch=9 n=41 v=0
10816 Par ch=9 c=11 v=104
10816 On ch=9 n=50 v=47
10824 Par ch=9 c=11 v=103
10832 Par ch=9 c=11 v=102
10840 Par ch=9 c=11 v=101
10842 On ch=9 n=50 v=0
10848 Par ch=9 c=11 v=100
10848 On ch=9 n=43 v=47
10852 Par ch=9 c=11 v=99
10860 Par ch=9 c=11 v=98
10868 Par ch=9 c=11 v=97
10874 On ch=9 n=43 v=0
10876 Par ch=9 c=11 v=96
10880 On ch=9 n=39 v=47
10884 Par ch=9 c=11 v=95
10892 Par ch=9 c=11 v=94
10900 Par ch=9 c=11 v=93
10906 On ch=9 n=39 v=0
10908 Par ch=9 c=11 v=92
10912 On ch=9 n=48 v=47
10916 Par ch=9 c=11 v=91
10924 Par ch=9 c=11 v=90
10932 Par ch=9 c=11 v=89
10938 On ch=9 n=48 v=0
10940 Par ch=9 c=11 v=88
10944 Par ch=9 c=11 v=87
10944 On ch=9 n=41 v=47
10952 Par ch=9 c=11 v=86
10960 Par ch=9 c=11 v=85
10968 Par ch=9 c=11 v=84
10970 On ch=9 n=41 v=0
10976 Par ch=9 c=11 v=83
10976 On ch=9 n=38 v=47
10984 Par ch=9 c=11 v=82
10992 Par ch=9 c=11 v=81
11000 Par ch=9 c=11 v=80
11002 On ch=9 n=38 v=0
11008 Par ch=9 c=11 v=79
11008 On ch=9 n=46 v=47
11016 Par ch=9 c=11 v=78
11024 Par ch=9 c=11 v=77
11032 Par ch=9 c=11 v=76
11034 On ch=9 n=46 v=0
11040 Par ch=9 c=11 v=75
11040 On ch=9 n=39 v=47
11044 Par ch=9 c=11 v=74
11052 Par ch=9 c=11 v=73
11060 Par ch=9 c=11 v=72
11066 On ch=9 n=39 v=0
11068 Par ch=9 c=11 v=71
11072 On ch=9 n=36 v=47
11076 Par ch=9 c=11 v=70
11084 Par ch=9 c=11 v=69
11092 Par ch=9 c=11 v=68
11098 On ch=9 n=36 v=0
11100 Par ch=9 c=11 v=67
11104 On ch=9 n=44 v=47
11108 Par ch=9 c=11 v=66
11116 Par ch=9 c=11 v=65
11124 Par ch=9 c=11 v=64
11130 On ch=9 n=44 v=0
11136 On ch=9 n=43 v=47
11174 On ch=9 n=43 v=0
11208 On ch=9 n=38 v=47
11227 On ch=9 n=38 v=0
11232 On ch=9 n=31 v=47
11270 On ch=9 n=31 v=0
11376 Par ch=9 c=11 v=64
11376 On ch=9 n=38 v=47
11388 Par ch=9 c=11 v=65
11395 On ch=9 n=38 v=0
11396 Par ch=9 c=11 v=66
11400 On ch=9 n=39 v=47
11404 Par ch=9 c=11 v=67
11412 Par ch=9 c=11 v=68
11419 On ch=9 n=39 v=0
11420 Par ch=9 c=11 v=69
11424 On ch=9 n=41 v=47
11428 Par ch=9 c=11 v=70
11436 Par ch=9 c=11 v=71
11443 On ch=9 n=41 v=0
11444 Par ch=9 c=11 v=72
11448 On ch=9 n=39 v=47
11456 Par ch=9 c=11 v=73
11464 Par ch=9 c=11 v=74
11467 On ch=9 n=39 v=0
11472 Par ch=9 c=11 v=75
11472 On ch=9 n=41 v=47
11480 Par ch=9 c=11 v=76
11488 Par ch=9 c=11 v=77
11491 On ch=9 n=41 v=0
11496 Par ch=9 c=11 v=78
11496 On ch=9 n=38 v=47
11504 Par ch=9 c=11 v=79
11512 Par ch=9 c=11 v=80
11515 On ch=9 n=38 v=0
11520 Par ch=9 c=11 v=80
11520 On ch=9 n=43 v=47
11528 Par ch=9 c=11 v=79
11532 Par ch=9 c=11 v=78
11540 Par ch=9 c=11 v=77
11544 Par ch=9 c=11 v=76
11552 Par ch=9 c=11 v=75
11556 Par ch=9 c=11 v=74
11558 On ch=9 n=43 v=0
11564 Par ch=9 c=11 v=73
11568 Par ch=9 c=11 v=72
11576 Par ch=9 c=11 v=71
11580 Par ch=9 c=11 v=70
11588 Par ch=9 c=11 v=69
11592 Par ch=9 c=11 v=68
11592 On ch=9 n=38 v=47
11600 Par ch=9 c=11 v=67
11604 Par ch=9 c=11 v=66
11611 On ch=9 n=38 v=0
11612 Par ch=9 c=11 v=65
11616 Par ch=9 c=11 v=64
11616 On ch=9 n=31 v=47
11654 On ch=9 n=31 v=0
11760 Par ch=9 c=11 v=64
11760 On ch=9 n=30 v=47
11772 Par ch=9 c=11 v=65
11779 On ch=9 n=30 v=0
11780 Par ch=9 c=11 v=66
11784 On ch=9 n=31 v=47
11788 Par ch=9 c=11 v=67
11796 Par ch=9 c=11 v=68
11803 On ch=9 n=31 v=0
11804 Par ch=9 c=11 v=69
11808 On ch=9 n=32 v=47
11812 Par ch=9 c=11 v=70
11820 Par ch=9 c=11 v=71
11827 On ch=9 n=32 v=0
11828 Par ch=9 c=11 v=72
11832 On ch=9 n=31 v=47
11840 Par ch=9 c=11 v=73
11848 Par ch=9 c=11 v=74
11851 On ch=9 n=31 v=0
11856 Par ch=9 c=11 v=75
11856 On ch=9 n=29 v=47
11864 Par ch=9 c=11 v=76
11872 Par ch=9 c=11 v=77
11875 On ch=9 n=29 v=0
11880 Par ch=9 c=11 v=78
11880 On ch=9 n=26 v=47
11888 Par ch=9 c=11 v=79
11896 Par ch=9 c=11 v=80
11899 On ch=9 n=26 v=0
11904 Par ch=9 c=11 v=64
11904 On ch=9 n=36 v=95
11942 On ch=9 n=36 v=0
11976 On ch=9 n=31 v=47
11995 On ch=9 n=31 v=0
12000 On ch=9 n=36 v=47
12038 On ch=9 n=36 v=0
12072 On ch=9 n=31 v=47
12091 On ch=9 n=31 v=0
12096 On ch=9 n=36 v=47
12134 On ch=9 n=36 v=0
12240 On ch=9 n=31 v=47
12271 On ch=9 n=31 v=0
12288 On ch=9 n=36 v=47
12365 On ch=9 n=36 v=0
12432 On ch=9 n=31 v=47
12470 On ch=9 n=31 v=0
12480 On ch=9 n=36 v=47
12557 On ch=9 n=36 v=0
12624 On ch=9 n=31 v=47
12640 Par ch=9 c=11 v=64
12656 Par ch=9 c=11 v=65
12662 On ch=9 n=31 v=0
12668 Par ch=9 c=11 v=66
12672 On ch=9 n=36 v=47
12680 Par ch=9 c=11 v=67
12692 Par ch=9 c=11 v=68
12704 Par ch=9 c=11 v=69
12716 Par ch=9 c=11 v=70
12732 Par ch=9 c=11 v=71
12744 Par ch=9 c=11 v=72
12748 On ch=9 n=36 v=0
12756 Par ch=9 c=11 v=73
12768 Par ch=9 c=11 v=74
12780 Par ch=9 c=11 v=75
12792 Par ch=9 c=11 v=76
12804 Par ch=9 c=11 v=77
12816 On ch=9 n=31 v=47
12820 Par ch=9 c=11 v=78
12832 Par ch=9 c=11 v=79
12844 Par ch=9 c=11 v=80
12854 On ch=9 n=31 v=0
12856 Par ch=9 c=11 v=81
12864 On ch=9 n=36 v=47
12868 Par ch=9 c=11 v=82
12880 Par ch=9 c=11 v=83
12890 On ch=9 n=36 v=0
12896 Par ch=9 c=11 v=84
12896 On ch=9 n=31 v=47
12908 Par ch=9 c=11 v=85
12920 Par ch=9 c=11 v=86
12922 On ch=9 n=31 v=0
12928 On ch=9 n=36 v=47
12932 Par ch=9 c=11 v=87
12944 Par ch=9 c=11 v=88
12954 On ch=9 n=36 v=0
12956 Par ch=9 c=11 v=89
12960 On ch=9 n=31 v=47
12968 Par ch=9 c=11 v=90
12984 Par ch=9 c=11 v=91
12986 On ch=9 n=31 v=0
12992 On ch=9 n=36 v=47
12996 Par ch=9 c=11 v=92
13008 Par ch=9 c=11 v=93
13018 On ch=9 n=36 v=0
13020 Par ch=9 c=11 v=94
13024 On ch=9 n=31 v=47
13032 Par ch=9 c=11 v=95
13044 Par ch=9 c=11 v=96
13050 On ch=9 n=31 v=0
13056 On ch=9 n=36 v=47
13092 Par ch=9 c=11 v=96
13094 On ch=9 n=36 v=0
13128 Par ch=9 c=11 v=97
13128 On ch=9 n=43 v=47
13147 On ch=9 n=43 v=0
13152 On ch=9 n=48 v=47
13164 Par ch=9 c=11 v=98
13200 Par ch=9 c=11 v=99
13229 On ch=9 n=48 v=0
13236 Par ch=9 c=11 v=100
13272 Par ch=9 c=11 v=101
13296 On ch=9 n=46 v=47
13308 Par ch=9 c=11 v=102
13315 On ch=9 n=46 v=0
13320 On ch=9 n=44 v=47
13339 On ch=9 n=44 v=0
13344 Par ch=9 c=11 v=103
13344 On ch=9 n=43 v=47
13363 On ch=9 n=43 v=0
13368 On ch=9 n=41 v=47
13380 Par ch=9 c=11 v=104
13387 On ch=9 n=41 v=0
13392 On ch=9 n=39 v=47
13411 On ch=9 n=39 v=0
13416 Par ch=9 c=11 v=105
13416 On ch=9 n=38 v=47
13435 On ch=9 n=38 v=0
13440 On ch=9 n=36 v=47
13452 Par ch=9 c=11 v=106
13478 On ch=9 n=36 v=0
13488 Par ch=9 c=11 v=107
13512 On ch=9 n=31 v=47
13524 Par ch=9 c=11 v=108
13531 On ch=9 n=31 v=0
13536 On ch=9 n=36 v=47
13560 Par ch=9 c=11 v=109
13596 Par ch=9 c=11 v=110
13613 On ch=9 n=36 v=0
13632 Par ch=9 c=11 v=111
13664 On ch=9 n=31 v=47
13668 Par ch=9 c=11 v=112
13690 On ch=9 n=31 v=0
13696 On ch=9 n=36 v=47
13704 Par ch=9 c=11 v=113
13722 On ch=9 n=36 v=0
13728 On ch=9 n=31 v=47
13740 Par ch=9 c=11 v=114
13754 On ch=9 n=31 v=0
13760 On ch=9 n=36 v=47
13776 Par ch=9 c=11 v=115
13786 On ch=9 n=36 v=0
13792 On ch=9 n=31 v=47
13812 Par ch=9 c=11 v=116
13818 On ch=9 n=31 v=0
13824 On ch=9 n=36 v=47
13848 Par ch=9 c=11 v=117
13862 On ch=9 n=36 v=0
13884 Par ch=9 c=11 v=118
13896 On ch=9 n=43 v=47
13915 On ch=9 n=43 v=0
13920 Par ch=9 c=11 v=119
13920 On ch=9 n=48 v=47
13956 Par ch=9 c=11 v=120
13992 Par ch=9 c=11 v=121
13997 On ch=9 n=48 v=0
14028 Par ch=9 c=11 v=122
14048 On ch=9 n=43 v=47
14064 Par ch=9 c=11 v=123
14069 On ch=9 n=43 v=0
14080 On ch=9 n=48 v=47
14100 Par ch=9 c=11 v=124
14101 On ch=9 n=48 v=0
14112 On ch=9 n=43 v=47
14133 On ch=9 n=43 v=0
14136 Par ch=9 c=11 v=125
14144 On ch=9 n=46 v=47
14165 On ch=9 n=46 v=0
14172 Par ch=9 c=11 v=126
14176 On ch=9 n=49 v=47
14197 On ch=9 n=49 v=0
14208 Par ch=9 c=11 v=64
14208 On ch=9 n=48 v=111
14239 On ch=9 n=48 v=0
14280 On ch=9 n=46 v=111
14296 On ch=9 n=46 v=0
14304 On ch=9 n=44 v=111
14335 On ch=9 n=44 v=0
14376 On ch=9 n=43 v=111
14392 On ch=9 n=43 v=0
14400 On ch=9 n=41 v=111
14431 On ch=9 n=41 v=0
14472 On ch=9 n=39 v=111
14488 On ch=9 n=39 v=0
14496 On ch=9 n=37 v=111
14527 On ch=9 n=37 v=0
14568 On ch=9 n=36 v=111
14584 On ch=9 n=36 v=0
14592 On ch=9 n=44 v=111
14623 On ch=9 n=44 v=0
14664 On ch=9 n=43 v=111
14680 On ch=9 n=43 v=0
14688 On ch=9 n=41 v=111
14719 On ch=9 n=41 v=0
14760 On ch=9 n=39 v=111
14776 On ch=9 n=39 v=0
14784 On ch=9 n=37 v=111
14815 On ch=9 n=37 v=0
14856 On ch=9 n=36 v=111
14872 On ch=9 n=36 v=0
14880 On ch=9 n=34 v=111
14911 On ch=9 n=34 v=0
14952 On ch=9 n=32 v=111
14968 On ch=9 n=32 v=0
14976 On ch=9 n=31 v=127
15014 On ch=9 n=31 v=0
15360 Par ch=9 c=0 v=0
15360 Par ch=9 c=32 v=0
15360 PrCh ch=9 p=44
15360 Par ch=9 c=11 v=64
15360 On ch=9 n=31 v=63
15368 Par ch=9 c=11 v=65
15376 Par ch=9 c=11 v=66
15380 Par ch=9 c=11 v=67
15388 Par ch=9 c=11 v=68
15392 Par ch=9 c=11 v=69
15400 Par ch=9 c=11 v=70
15404 Par ch=9 c=11 v=71
15412 Par ch=9 c=11 v=72
15416 Par ch=9 c=11 v=73
15424 Par ch=9 c=11 v=74
15428 Par ch=9 c=11 v=75
15436 Par ch=9 c=11 v=76
15440 Par ch=9 c=11 v=77
15448 Par ch=9 c=11 v=78
15452 Par ch=9 c=11 v=79
15460 Par ch=9 c=11 v=80
15464 Par ch=9 c=11 v=81
15472 Par ch=9 c=11 v=82
15476 Par ch=9 c=11 v=83
15484 Par ch=9 c=11 v=84
15488 Par ch=9 c=11 v=85
15496 Par ch=9 c=11 v=86
15504 Par ch=9 c=11 v=87
15508 Par ch=9 c=11 v=88
15516 Par ch=9 c=11 v=89
15520 Par ch=9 c=11 v=90
15528 Par ch=9 c=11 v=91
15532 Par ch=9 c=11 v=92
15540 Par ch=9 c=11 v=93
15544 Par ch=9 c=11 v=94
15552 Par ch=9 c=11 v=95
15556 Par ch=9 c=11 v=96
15564 Par ch=9 c=11 v=97
15568 Par ch=9 c=11 v=98
15576 Par ch=9 c=11 v=99
15580 Par ch=9 c=11 v=100
15588 Par ch=9 c=11 v=101
15592 Par ch=9 c=11 v=102
15600 Par ch=9 c=11 v=103
15604 Par ch=9 c=11 v=104
15612 Par ch=9 c=11 v=105
15616 Par ch=9 c=11 v=106
15624 Par ch=9 c=11 v=107
15632 Par ch=9 c=11 v=108
15636 Par ch=9 c=11 v=109
15644 Par ch=9 c=11 v=110
15648 Par ch=9 c=11 v=111
15656 Par ch=9 c=11 v=112
15660 Par ch=9 c=11 v=113
15668 Par ch=9 c=11 v=114
15672 Par ch=9 c=11 v=115
15680 Par ch=9 c=11 v=116
15684 Par ch=9 c=11 v=117
15692 Par ch=9 c=11 v=118
15696 Par ch=9 c=11 v=119
15704 Par ch=9 c=11 v=120
15708 Par ch=9 c=11 v=121
15716 Par ch=9 c=11 v=122
15720 Par ch=9 c=11 v=123
15728 Par ch=9 c=11 v=124
15732 Par ch=9 c=11 v=125
15740 Par ch=9 c=11 v=126
15744 On ch=9 n=31 v=0
15744 Par ch=9 c=0 v=0
15744 Par ch=9 c=32 v=0
15744 PrCh ch=9 p=48
15744 Par ch=9 c=11 v=64
15744 On ch=9 n=36 v=111
15782 On ch=9 n=36 v=0
16512 On ch=9 n=36 v=100
16538 On ch=9 n=36 v=0
16544 On ch=9 n=35 v=95
16570 On ch=9 n=35 v=0
16576 On ch=9 n=36 v=79
16602 On ch=9 n=36 v=0
16608 On ch=9 n=38 v=63
16634 On ch=9 n=38 v=0
16640 On ch=9 n=36 v=63
16666 On ch=9 n=36 v=0
16672 On ch=9 n=35 v=63
16698 On ch=9 n=35 v=0
16704 On ch=9 n=36 v=63
16742 On ch=9 n=36 v=0
16896 On ch=9 n=36 v=100
16922 On ch=9 n=36 v=0
16928 On ch=9 n=35 v=95
16954 On ch=9 n=35 v=0
16960 On ch=9 n=36 v=79
16986 On ch=9 n=36 v=0
16992 On ch=9 n=38 v=63
17018 On ch=9 n=38 v=0
17024 On ch=9 n=36 v=63
17050 On ch=9 n=36 v=0
17056 On ch=9 n=35 v=63
17082 On ch=9 n=35 v=0
17088 On ch=9 n=36 v=63
17164 On ch=9 n=36 v=0
17280 On ch=9 n=36 v=100
17306 On ch=9 n=36 v=0
17312 On ch=9 n=35 v=95
17338 On ch=9 n=35 v=0
17344 On ch=9 n=36 v=79
17370 On ch=9 n=36 v=0
17376 On ch=9 n=38 v=63
17402 On ch=9 n=38 v=0
17408 On ch=9 n=36 v=63
17434 On ch=9 n=36 v=0
17440 On ch=9 n=35 v=47
17466 On ch=9 n=35 v=0
17472 On ch=9 n=36 v=47
17548 On ch=9 n=36 v=0
17664 On ch=9 n=35 v=100
17690 On ch=9 n=35 v=0
17696 On ch=9 n=34 v=95
17722 On ch=9 n=34 v=0
17728 On ch=9 n=35 v=79
17754 On ch=9 n=35 v=0
17760 On ch=9 n=37 v=63
17786 On ch=9 n=37 v=0
17792 On ch=9 n=35 v=63
17818 On ch=9 n=35 v=0
17824 On ch=9 n=34 v=47
17850 On ch=9 n=34 v=0
17856 On ch=9 n=35 v=47
17932 On ch=9 n=35 v=0
18048 On ch=9 n=35 v=100
18074 On ch=9 n=35 v=0
18080 On ch=9 n=34 v=95
18106 On ch=9 n=34 v=0
18112 On ch=9 n=35 v=79
18138 On ch=9 n=35 v=0
18144 On ch=9 n=37 v=63
18170 On ch=9 n=37 v=0
18176 On ch=9 n=35 v=63
18202 On ch=9 n=35 v=0
18208 On ch=9 n=34 v=47
18234 On ch=9 n=34 v=0
18240 On ch=9 n=35 v=47
18316 On ch=9 n=35 v=0
18432 On ch=9 n=35 v=31
18458 On ch=9 n=35 v=0
18464 On ch=9 n=34 v=31
18490 On ch=9 n=34 v=0
18496 On ch=9 n=35 v=31
18522 On ch=9 n=35 v=0
18528 On ch=9 n=37 v=31
18554 On ch=9 n=37 v=0
18560 On ch=9 n=35 v=31
18586 On ch=9 n=35 v=0
18592 On ch=9 n=34 v=31
18618 On ch=9 n=34 v=0
18624 On ch=9 n=35 v=31
18701 On ch=9 n=35 v=0
18816 On ch=9 n=35 v=31
18842 On ch=9 n=35 v=0
18848 On ch=9 n=34 v=31
18874 On ch=9 n=34 v=0
18880 On ch=9 n=35 v=31
18906 On ch=9 n=35 v=0
18912 On ch=9 n=37 v=31
18938 On ch=9 n=37 v=0
18944 On ch=9 n=35 v=31
18970 On ch=9 n=35 v=0
18976 On ch=9 n=34 v=31
19002 On ch=9 n=34 v=0
19008 On ch=9 n=35 v=31
19085 On ch=9 n=35 v=0
19200 On ch=9 n=35 v=31
19226 On ch=9 n=35 v=0
19232 On ch=9 n=34 v=31
19258 On ch=9 n=34 v=0
19264 On ch=9 n=35 v=31
19290 On ch=9 n=35 v=0
19296 On ch=9 n=37 v=31
19322 On ch=9 n=37 v=0
19328 On ch=9 n=35 v=31
19354 On ch=9 n=35 v=0
19360 On ch=9 n=34 v=31
19386 On ch=9 n=34 v=0
19392 On ch=9 n=35 v=31
19469 On ch=9 n=35 v=0
19584 Par ch=9 c=11 v=64
19584 On ch=9 n=35 v=31
19592 Par ch=9 c=11 v=65
19596 Par ch=9 c=11 v=66
19604 Par ch=9 c=11 v=67
19608 Par ch=9 c=11 v=68
19616 Par ch=9 c=11 v=69
19620 Par ch=9 c=11 v=70
19624 Par ch=9 c=11 v=71
19632 Par ch=9 c=11 v=72
19636 Par ch=9 c=11 v=73
19644 Par ch=9 c=11 v=74
19648 Par ch=9 c=11 v=75
19652 Par ch=9 c=11 v=76
19660 Par ch=9 c=11 v=77
19664 Par ch=9 c=11 v=78
19672 Par ch=9 c=11 v=79
19676 Par ch=9 c=11 v=80
19680 Par ch=9 c=11 v=80
19688 Par ch=9 c=11 v=79
19692 Par ch=9 c=11 v=78
19700 Par ch=9 c=11 v=77
19704 Par ch=9 c=11 v=76
19712 Par ch=9 c=11 v=75
19716 Par ch=9 c=11 v=74
19724 Par ch=9 c=11 v=73
19728 Par ch=9 c=11 v=72
19736 Par ch=9 c=11 v=71
19738 On ch=9 n=35 v=0
19740 Par ch=9 c=11 v=70
19748 Par ch=9 c=11 v=69
19752 Par ch=9 c=11 v=68
19760 Par ch=9 c=11 v=67
19764 Par ch=9 c=11 v=66
19772 Par ch=9 c=11 v=65
19776 Par ch=9 c=11 v=64
19776 On ch=9 n=36 v=31
19853 On ch=9 n=36 v=0
19872 On ch=9 n=37 v=31
19949 On ch=9 n=37 v=0
19968 On ch=9 n=30 v=15
19989 On ch=9 n=30 v=0
20000 On ch=9 n=29 v=15
20021 On ch=9 n=29 v=0
20032 On ch=9 n=30 v=15
20053 On ch=9 n=30 v=0
20064 On ch=9 n=32 v=15
20085 On ch=9 n=32 v=0
20096 On ch=9 n=30 v=15
20117 On ch=9 n=30 v=0
20128 On ch=9 n=29 v=15
20149 On ch=9 n=29 v=0
20160 On ch=9 n=30 v=15
20237 On ch=9 n=30 v=0
20352 On ch=9 n=30 v=15
20373 On ch=9 n=30 v=0
20384 On ch=9 n=29 v=15
20405 On ch=9 n=29 v=0
20416 On ch=9 n=30 v=15
20437 On ch=9 n=30 v=0
20448 On ch=9 n=32 v=15
20469 On ch=9 n=32 v=0
20480 On ch=9 n=30 v=15
20501 On ch=9 n=30 v=0
20512 On ch=9 n=29 v=15
20533 On ch=9 n=29 v=0
20544 On ch=9 n=30 v=15
20621 On ch=9 n=30 v=0
20736 On ch=9 n=30 v=15
20757 On ch=9 n=30 v=0
20768 On ch=9 n=29 v=15
20789 On ch=9 n=29 v=0
20800 On ch=9 n=30 v=15
20821 On ch=9 n=30 v=0
20832 On ch=9 n=32 v=15
20853 On ch=9 n=32 v=0
20864 On ch=9 n=30 v=15
20885 On ch=9 n=30 v=0
20896 On ch=9 n=29 v=15
20917 On ch=9 n=29 v=0
20928 On ch=9 n=30 v=15
21005 On ch=9 n=30 v=0
21120 On ch=9 n=30 v=15
21141 On ch=9 n=30 v=0
21152 On ch=9 n=29 v=15
21173 On ch=9 n=29 v=0
21184 On ch=9 n=30 v=15
21205 On ch=9 n=30 v=0
21216 On ch=9 n=32 v=15
21237 On ch=9 n=32 v=0
21248 On ch=9 n=30 v=15
21269 On ch=9 n=30 v=0
21280 On ch=9 n=29 v=15
21301 On ch=9 n=29 v=0
21312 On ch=9 n=30 v=15
21389 On ch=9 n=30 v=0
21504 On ch=9 n=35 v=31
21811 On ch=9 n=35 v=0
21888 Par ch=9 c=11 v=64
21888 On ch=9 n=36 v=31
21896 Par ch=9 c=11 v=65
21900 Par ch=9 c=11 v=66
21908 Par ch=9 c=11 v=67
21912 Par ch=9 c=11 v=68
21920 Par ch=9 c=11 v=69
21924 Par ch=9 c=11 v=70
21928 Par ch=9 c=11 v=71
21936 Par ch=9 c=11 v=72
21940 Par ch=9 c=11 v=73
21948 Par ch=9 c=11 v=74
21952 Par ch=9 c=11 v=75
21956 Par ch=9 c=11 v=76
21964 Par ch=9 c=11 v=77
21968 Par ch=9 c=11 v=78
21976 Par ch=9 c=11 v=79
21980 Par ch=9 c=11 v=80
21984 Par ch=9 c=11 v=80
21992 Par ch=9 c=11 v=79
21996 Par ch=9 c=11 v=78
22000 Par ch=9 c=11 v=77
22008 Par ch=9 c=11 v=76
22012 Par ch=9 c=11 v=75
22016 Par ch=9 c=11 v=74
22024 Par ch=9 c=11 v=73
22028 Par ch=9 c=11 v=72
22032 Par ch=9 c=11 v=71
22040 Par ch=9 c=11 v=70
22042 On ch=9 n=36 v=0
22044 Par ch=9 c=11 v=69
22048 Par ch=9 c=11 v=68
22056 Par ch=9 c=11 v=67
22060 Par ch=9 c=11 v=66
22064 Par ch=9 c=11 v=65
22072 Par ch=9 c=11 v=64
22080 Par ch=9 c=11 v=64
22080 On ch=9 n=35 v=31
22088 Par ch=9 c=11 v=65
22092 Par ch=9 c=11 v=66
22100 Par ch=9 c=11 v=67
22104 Par ch=9 c=11 v=68
22112 Par ch=9 c=11 v=69
22116 Par ch=9 c=11 v=70
22120 Par ch=9 c=11 v=71
22128 Par ch=9 c=11 v=72
22132 Par ch=9 c=11 v=73
22140 Par ch=9 c=11 v=74
22144 Par ch=9 c=11 v=75
22148 Par ch=9 c=11 v=76
22156 Par ch=9 c=11 v=77
22160 Par ch=9 c=11 v=78
22168 Par ch=9 c=11 v=79
22172 Par ch=9 c=11 v=80
22176 Par ch=9 c=11 v=80
22184 Par ch=9 c=11 v=79
22188 Par ch=9 c=11 v=78
22192 Par ch=9 c=11 v=77
22200 Par ch=9 c=11 v=76
22204 Par ch=9 c=11 v=75
22208 Par ch=9 c=11 v=74
22216 Par ch=9 c=11 v=73
22220 Par ch=9 c=11 v=72
22224 Par ch=9 c=11 v=71
22232 Par ch=9 c=11 v=70
22234 On ch=9 n=35 v=0
22236 Par ch=9 c=11 v=69
22240 Par ch=9 c=11 v=68
22248 Par ch=9 c=11 v=67
22252 Par ch=9 c=11 v=66
22256 Par ch=9 c=11 v=65
22264 Par ch=9 c=11 v=64
22272 Par ch=9 c=11 v=64
22272 On ch=9 n=34 v=31
22280 Par ch=9 c=11 v=65
22284 Par ch=9 c=11 v=66
22292 Par ch=9 c=11 v=67
22296 Par ch=9 c=11 v=68
22304 Par ch=9 c=11 v=69
22308 Par ch=9 c=11 v=70
22312 Par ch=9 c=11 v=71
22320 Par ch=9 c=11 v=72
22324 Par ch=9 c=11 v=73
22332 Par ch=9 c=11 v=74
22336 Par ch=9 c=11 v=75
22340 Par ch=9 c=11 v=76
22348 Par ch=9 c=11 v=77
22352 Par ch=9 c=11 v=78
22360 Par ch=9 c=11 v=79
22364 Par ch=9 c=11 v=80
22368 Par ch=9 c=11 v=80
22376 Par ch=9 c=11 v=79
22380 Par ch=9 c=11 v=78
22384 Par ch=9 c=11 v=77
22392 Par ch=9 c=11 v=76
22396 Par ch=9 c=11 v=75
22400 Par ch=9 c=11 v=74
22408 Par ch=9 c=11 v=73
22412 Par ch=9 c=11 v=72
22416 Par ch=9 c=11 v=71
22424 Par ch=9 c=11 v=70
22426 On ch=9 n=34 v=0
22428 Par ch=9 c=11 v=69
22432 Par ch=9 c=11 v=68
22440 Par ch=9 c=11 v=67
22444 Par ch=9 c=11 v=66
22448 Par ch=9 c=11 v=65
22456 Par ch=9 c=11 v=64
22460 Par ch=9 c=11 v=63
22464 Par ch=9 c=11 v=64
22464 On ch=9 n=35 v=31
22468 Par ch=9 c=11 v=65
22472 Par ch=9 c=11 v=66
22476 Par ch=9 c=11 v=67
22480 Par ch=9 c=11 v=69
22484 Par ch=9 c=11 v=70
22488 Par ch=9 c=11 v=71
22492 Par ch=9 c=11 v=73
22496 Par ch=9 c=11 v=74
22500 Par ch=9 c=11 v=75
22504 Par ch=9 c=11 v=77
22508 Par ch=9 c=11 v=78
22512 Par ch=9 c=11 v=79
22516 Par ch=9 c=11 v=81
22520 Par ch=9 c=11 v=82
22524 Par ch=9 c=11 v=83
22528 Par ch=9 c=11 v=85
22532 Par ch=9 c=11 v=86
22536 Par ch=9 c=11 v=87
22540 Par ch=9 c=11 v=88
22544 Par ch=9 c=11 v=90
22548 Par ch=9 c=11 v=91
22552 Par ch=9 c=11 v=92
22556 Par ch=9 c=11 v=94
22560 Par ch=9 c=11 v=95
22564 Par ch=9 c=11 v=96
22568 Par ch=9 c=11 v=98
22572 Par ch=9 c=11 v=99
22576 Par ch=9 c=11 v=100
22580 Par ch=9 c=11 v=102
22584 Par ch=9 c=11 v=103
22588 Par ch=9 c=11 v=104
22592 Par ch=9 c=11 v=106
22596 Par ch=9 c=11 v=107
22600 Par ch=9 c=11 v=108
22604 Par ch=9 c=11 v=109
22608 Par ch=9 c=11 v=111
22612 Par ch=9 c=11 v=112
22616 Par ch=9 c=11 v=113
22618 On ch=9 n=35 v=0
22620 Par ch=9 c=11 v=115
22624 Par ch=9 c=11 v=116
22628 Par ch=9 c=11 v=117
22632 Par ch=9 c=11 v=119
22636 Par ch=9 c=11 v=120
22640 Par ch=9 c=11 v=121
22644 Par ch=9 c=11 v=123
22648 Par ch=9 c=11 v=124
22652 Par ch=9 c=11 v=125
22656 Par ch=9 c=11 v=64
22656 On ch=9 n=34 v=111
23347 On ch=9 n=34 v=0
23424 Par ch=9 c=11 v=64
23424 On ch=9 n=34 v=111
23448 Par ch=9 c=11 v=65
23472 Par ch=9 c=11 v=66
23492 Par ch=9 c=11 v=67
23516 Par ch=9 c=11 v=68
23540 Par ch=9 c=11 v=69
23560 Par ch=9 c=11 v=70
23584 Par ch=9 c=11 v=71
23608 Par ch=9 c=11 v=72
23628 Par ch=9 c=11 v=73
23652 Par ch=9 c=11 v=74
23676 Par ch=9 c=11 v=75
23696 Par ch=9 c=11 v=76
23720 Par ch=9 c=11 v=77
23731 On ch=9 n=34 v=0
23744 Par ch=9 c=11 v=78
23764 Par ch=9 c=11 v=79
23788 Par ch=9 c=11 v=80
23808 Par ch=9 c=11 v=64
23808 On ch=9 n=39 v=127
23846 On ch=9 n=39 v=0
24576 On ch=9 n=39 v=127
24592 On ch=9 n=39 v=0
24600 On ch=9 n=38 v=127
24616 On ch=9 n=38 v=0
24624 On ch=9 n=39 v=127
24640 On ch=9 n=39 v=0
24648 On ch=9 n=41 v=127
24664 On ch=9 n=41 v=0
24672 On ch=9 n=43 v=127
24710 On ch=9 n=43 v=0
24792 On ch=9 n=36 v=127
24808 On ch=9 n=36 v=0
24816 On ch=9 n=38 v=127
24832 On ch=9 n=38 v=0
24840 On ch=9 n=39 v=127
24856 On ch=9 n=39 v=0
24864 On ch=9 n=41 v=127
24880 On ch=9 n=41 v=0
24888 On ch=9 n=43 v=127
24904 On ch=9 n=43 v=0
24912 On ch=9 n=45 v=127
24928 On ch=9 n=45 v=0
24936 On ch=9 n=47 v=127
24952 On ch=9 n=47 v=0
24960 On ch=9 n=48 v=127
24998 On ch=9 n=48 v=0
25032 On ch=9 n=43 v=119
25051 On ch=9 n=43 v=0
25056 On ch=9 n=36 v=111
25094 On ch=9 n=36 v=0
25184 On ch=9 n=35 v=111
25210 On ch=9 n=35 v=0
25216 On ch=9 n=36 v=111
25242 On ch=9 n=36 v=0
25248 On ch=9 n=38 v=111
25274 On ch=9 n=38 v=0
25280 On ch=9 n=36 v=111
25306 On ch=9 n=36 v=0
25312 On ch=9 n=35 v=111
25338 On ch=9 n=35 v=0
25344 Par ch=9 c=11 v=64
25344 On ch=9 n=36 v=111
25352 Par ch=9 c=11 v=63
25360 Par ch=9 c=11 v=62
25368 Par ch=9 c=11 v=61
25370 On ch=9 n=36 v=0
25376 Par ch=9 c=11 v=60
25376 On ch=9 n=35 v=111
25384 Par ch=9 c=11 v=59
25392 Par ch=9 c=11 v=58
25400 Par ch=9 c=11 v=57
25402 On ch=9 n=35 v=0
25408 Par ch=9 c=11 v=56
25408 On ch=9 n=36 v=111
25416 Par ch=9 c=11 v=55
25424 Par ch=9 c=11 v=54
25432 Par ch=9 c=11 v=53
25434 On ch=9 n=36 v=0
25440 Par ch=9 c=11 v=52
25440 On ch=9 n=38 v=111
25448 Par ch=9 c=11 v=51
25456 Par ch=9 c=11 v=50
25464 Par ch=9 c=11 v=49
25466 On ch=9 n=38 v=0
25472 Par ch=9 c=11 v=48
25472 On ch=9 n=36 v=111
25480 Par ch=9 c=11 v=47
25488 Par ch=9 c=11 v=46
25496 Par ch=9 c=11 v=45
25498 On ch=9 n=36 v=0
25504 Par ch=9 c=11 v=44
25504 On ch=9 n=35 v=111
25512 Par ch=9 c=11 v=43
25520 Par ch=9 c=11 v=42
25528 Par ch=9 c=11 v=41
25530 On ch=9 n=35 v=0
25536 Par ch=9 c=11 v=40
25536 On ch=9 n=36 v=111
25540 Par ch=9 c=11 v=39
25548 Par ch=9 c=11 v=38
25556 Par ch=9 c=11 v=37
25562 On ch=9 n=36 v=0
25564 Par ch=9 c=11 v=36
25568 On ch=9 n=35 v=111
25572 Par ch=9 c=11 v=35
25580 Par ch=9 c=11 v=34
25588 Par ch=9 c=11 v=33
25594 On ch=9 n=35 v=0
25596 Par ch=9 c=11 v=32
25600 On ch=9 n=36 v=111
25604 Par ch=9 c=11 v=31
25612 Par ch=9 c=11 v=30
25620 Par ch=9 c=11 v=29
25626 On ch=9 n=36 v=0
25628 Par ch=9 c=11 v=28
25632 On ch=9 n=38 v=111
25636 Par ch=9 c=11 v=27
25644 Par ch=9 c=11 v=26
25652 Par ch=9 c=11 v=25
25658 On ch=9 n=38 v=0
25660 Par ch=9 c=11 v=24
25664 On ch=9 n=36 v=111
25668 Par ch=9 c=11 v=23
25676 Par ch=9 c=11 v=22
25684 Par ch=9 c=11 v=21
25690 On ch=9 n=36 v=0
25692 Par ch=9 c=11 v=20
25696 On ch=9 n=35 v=111
25700 Par ch=9 c=11 v=19
25708 Par ch=9 c=11 v=18
25716 Par ch=9 c=11 v=17
25722 On ch=9 n=35 v=0
25724 Par ch=9 c=11 v=16
25728 On ch=9 n=36 v=111
25754 On ch=9 n=36 v=0
25760 On ch=9 n=35 v=111
25786 On ch=9 n=35 v=0
25792 On ch=9 n=36 v=111
25818 On ch=9 n=36 v=0
25824 On ch=9 n=38 v=111
25850 On ch=9 n=38 v=0
25856 On ch=9 n=36 v=111
25882 On ch=9 n=36 v=0
25888 On ch=9 n=35 v=111
25914 On ch=9 n=35 v=0
25920 On ch=9 n=36 v=111
25946 On ch=9 n=36 v=0
25952 On ch=9 n=35 v=111
25978 On ch=9 n=35 v=0
25984 On ch=9 n=36 v=111
26010 On ch=9 n=36 v=0
26016 On ch=9 n=38 v=111
26042 On ch=9 n=38 v=0
26048 On ch=9 n=36 v=111
26074 On ch=9 n=36 v=0
26080 On ch=9 n=35 v=111
26106 On ch=9 n=35 v=0
26112 On ch=9 n=36 v=111
26138 On ch=9 n=36 v=0
26144 On ch=9 n=35 v=111
26170 On ch=9 n=35 v=0
26176 On ch=9 n=36 v=111
26202 On ch=9 n=36 v=0
26208 On ch=9 n=38 v=111
26234 On ch=9 n=38 v=0
26240 On ch=9 n=36 v=111
26266 On ch=9 n=36 v=0
26272 On ch=9 n=35 v=111
26298 On ch=9 n=35 v=0
26304 On ch=9 n=36 v=111
26330 On ch=9 n=36 v=0
26336 On ch=9 n=35 v=111
26362 On ch=9 n=35 v=0
26368 On ch=9 n=36 v=111
26394 On ch=9 n=36 v=0
26400 On ch=9 n=38 v=111
26426 On ch=9 n=38 v=0
26432 On ch=9 n=36 v=111
26458 On ch=9 n=36 v=0
26464 On ch=9 n=35 v=111
26490 On ch=9 n=35 v=0
26496 Par ch=9 c=11 v=64
26496 On ch=9 n=36 v=95
26522 On ch=9 n=36 v=0
26528 On ch=9 n=35 v=47
26554 On ch=9 n=35 v=0
26560 On ch=9 n=36 v=47
26586 On ch=9 n=36 v=0
26688 On ch=9 n=36 v=95
26714 On ch=9 n=36 v=0
26720 On ch=9 n=35 v=47
26746 On ch=9 n=35 v=0
26752 On ch=9 n=36 v=47
26778 On ch=9 n=36 v=0
26880 On ch=9 n=36 v=95
26906 On ch=9 n=36 v=0
26912 On ch=9 n=35 v=47
26938 On ch=9 n=35 v=0
26944 On ch=9 n=36 v=47
26970 On ch=9 n=36 v=0
27264 On ch=9 n=34 v=95
27290 On ch=9 n=34 v=0
27296 On ch=9 n=33 v=47
27322 On ch=9 n=33 v=0
27328 On ch=9 n=34 v=47
27354 On ch=9 n=34 v=0
27648 On ch=9 n=33 v=47
27725 On ch=9 n=33 v=0
27744 On ch=9 n=34 v=47
27821 On ch=9 n=34 v=0
27840 On ch=9 n=33 v=47
27917 On ch=9 n=33 v=0
27936 On ch=9 n=34 v=47
28013 On ch=9 n=34 v=0
28032 On ch=9 n=33 v=47
28109 On ch=9 n=33 v=0
28128 On ch=9 n=34 v=47
28205 On ch=9 n=34 v=0
28224 On ch=9 n=33 v=47
28301 On ch=9 n=33 v=0
28320 On ch=9 n=34 v=47
28351 On ch=9 n=34 v=0
28368 On ch=9 n=33 v=47
28399 On ch=9 n=33 v=0
28416 On ch=9 n=32 v=47
28454 On ch=9 n=32 v=0
30144 Par ch=9 c=11 v=64
30144 On ch=9 n=32 v=47
30156 Par ch=9 c=11 v=65
30164 Par ch=9 c=11 v=66
30172 Par ch=9 c=11 v=67
30184 Par ch=9 c=11 v=68
30192 Par ch=9 c=11 v=69
30200 Par ch=9 c=11 v=70
30208 Par ch=9 c=11 v=71
30220 Par ch=9 c=11 v=72
30228 Par ch=9 c=11 v=73
30236 Par ch=9 c=11 v=74
30248 Par ch=9 c=11 v=75
30256 Par ch=9 c=11 v=76
30264 Par ch=9 c=11 v=77
30272 Par ch=9 c=11 v=78
30284 Par ch=9 c=11 v=79
30292 Par ch=9 c=11 v=80
30298 On ch=9 n=32 v=0
30300 Par ch=9 c=11 v=81
30312 Par ch=9 c=11 v=82
30320 Par ch=9 c=11 v=83
30328 Par ch=9 c=11 v=84
30336 Par ch=9 c=11 v=85
30336 On ch=9 n=31 v=47
30348 Par ch=9 c=11 v=86
30356 Par ch=9 c=11 v=87
30364 Par ch=9 c=11 v=88
30376 Par ch=9 c=11 v=89
30384 Par ch=9 c=11 v=90
30392 Par ch=9 c=11 v=91
30400 Par ch=9 c=11 v=92
30412 Par ch=9 c=11 v=93
30420 Par ch=9 c=11 v=94
30428 Par ch=9 c=11 v=95
30440 Par ch=9 c=11 v=96
30448 Par ch=9 c=11 v=97
30456 Par ch=9 c=11 v=98
30464 Par ch=9 c=11 v=99
30476 Par ch=9 c=11 v=100
30484 Par ch=9 c=11 v=101
30490 On ch=9 n=31 v=0
30492 Par ch=9 c=11 v=102
30504 Par ch=9 c=11 v=103
30512 Par ch=9 c=11 v=104
30520 Par ch=9 c=11 v=105
30528 Par ch=9 c=11 v=106
30528 On ch=9 n=30 v=47
30540 Par ch=9 c=11 v=107
30548 Par ch=9 c=11 v=108
30556 Par ch=9 c=11 v=109
30568 Par ch=9 c=11 v=110
30576 Par ch=9 c=11 v=111
30584 Par ch=9 c=11 v=112
30592 Par ch=9 c=11 v=113
30604 Par ch=9 c=11 v=114
30612 Par ch=9 c=11 v=115
30620 Par ch=9 c=11 v=116
30632 Par ch=9 c=11 v=117
30640 Par ch=9 c=11 v=118
30648 Par ch=9 c=11 v=119
30656 Par ch=9 c=11 v=120
30668 Par ch=9 c=11 v=121
30676 Par ch=9 c=11 v=122
30682 On ch=9 n=30 v=0
30684 Par ch=9 c=11 v=123
30696 Par ch=9 c=11 v=124
30704 Par ch=9 c=11 v=125
30712 Par ch=9 c=11 v=126
30720 Par ch=9 c=11 v=64
30720 On ch=9 n=31 v=95
32256 Par ch=9 c=11 v=64
32268 Par ch=9 c=11 v=65
32280 Par ch=9 c=11 v=66
32292 Par ch=9 c=11 v=67
32304 Par ch=9 c=11 v=68
32316 Par ch=9 c=11 v=69
32328 Par ch=9 c=11 v=70
32340 Par ch=9 c=11 v=71
32352 Par ch=9 c=11 v=72
32364 Par ch=9 c=11 v=73
32376 Par ch=9 c=11 v=74
32384 Par ch=9 c=11 v=75
32396 Par ch=9 c=11 v=76
32408 Par ch=9 c=11 v=77
32420 Par ch=9 c=11 v=78
32432 Par ch=9 c=11 v=79
32444 Par ch=9 c=11 v=80
32456 Par ch=9 c=11 v=81
32468 Par ch=9 c=11 v=82
32480 Par ch=9 c=11 v=83
32492 Par ch=9 c=11 v=84
32504 Par ch=9 c=11 v=85
32512 Par ch=9 c=11 v=86
32524 Par ch=9 c=11 v=87
32536 Par ch=9 c=11 v=88
32548 Par ch=9 c=11 v=89
32560 Par ch=9 c=11 v=90
32572 Par ch=9 c=11 v=91
32584 Par ch=9 c=11 v=92
32596 Par ch=9 c=11 v=93
32608 Par ch=9 c=11 v=94
32620 Par ch=9 c=11 v=95
32632 Par ch=9 c=11 v=96
32678 On ch=9 n=31 v=0
33024 Par ch=9 c=11 v=64
33024 On ch=9 n=31 v=95
33062 On ch=9 n=31 v=0
33408 Par ch=9 c=0 v=0
33408 Par ch=9 c=32 v=0
33408 PrCh ch=9 p=44
33408 On ch=9 n=31 v=95
33446 On ch=9 n=31 v=0
33792 Par ch=9 c=11 v=64
33792 On ch=9 n=36 v=47
33800 Par ch=9 c=11 v=65
33808 Par ch=9 c=11 v=66
33812 Par ch=9 c=11 v=67
33820 Par ch=9 c=11 v=68
33824 Par ch=9 c=11 v=69
33832 Par ch=9 c=11 v=70
33836 Par ch=9 c=11 v=71
33844 Par ch=9 c=11 v=72
33848 Par ch=9 c=11 v=73
33856 Par ch=9 c=11 v=74
33860 Par ch=9 c=11 v=75
33868 Par ch=9 c=11 v=76
33872 Par ch=9 c=11 v=77
33880 Par ch=9 c=11 v=78
33884 Par ch=9 c=11 v=79
33892 Par ch=9 c=11 v=80
33896 Par ch=9 c=11 v=81
33904 Par ch=9 c=11 v=82
33908 Par ch=9 c=11 v=83
33916 Par ch=9 c=11 v=84
33920 Par ch=9 c=11 v=85
33928 Par ch=9 c=11 v=86
33936 Par ch=9 c=11 v=87
33940 Par ch=9 c=11 v=88
33948 Par ch=9 c=11 v=89
33952 Par ch=9 c=11 v=90
33960 Par ch=9 c=11 v=91
33964 Par ch=9 c=11 v=92
33972 Par ch=9 c=11 v=93
33976 Par ch=9 c=11 v=94
33984 Par ch=9 c=11 v=95
33988 Par ch=9 c=11 v=96
33996 Par ch=9 c=11 v=97
34000 Par ch=9 c=11 v=98
34008 Par ch=9 c=11 v=99
34012 Par ch=9 c=11 v=100
34020 Par ch=9 c=11 v=101
34024 Par ch=9 c=11 v=102
34032 Par ch=9 c=11 v=103
34036 Par ch=9 c=11 v=104
34044 Par ch=9 c=11 v=105
34048 Par ch=9 c=11 v=106
34056 Par ch=9 c=11 v=107
34064 Par ch=9 c=11 v=108
34068 Par ch=9 c=11 v=109
34076 Par ch=9 c=11 v=110
34080 Par ch=9 c=11 v=111
34088 Par ch=9 c=11 v=112
34092 Par ch=9 c=11 v=113
34099 On ch=9 n=36 v=0
34100 Par ch=9 c=11 v=114
34104 Par ch=9 c=11 v=115
34112 Par ch=9 c=11 v=116
34116 Par ch=9 c=11 v=117
34124 Par ch=9 c=11 v=118
34128 Par ch=9 c=11 v=119
34136 Par ch=9 c=11 v=120
34140 Par ch=9 c=11 v=121
34148 Par ch=9 c=11 v=122
34152 Par ch=9 c=11 v=123
34160 Par ch=9 c=11 v=124
34164 Par ch=9 c=11 v=125
34172 Par ch=9 c=11 v=126
34176 Par ch=9 c=0 v=0
34176 Par ch=9 c=32 v=0
34176 PrCh ch=9 p=48
34176 Par ch=9 c=11 v=64
34176 On ch=9 n=38 v=111
34224 Par ch=9 c=11 v=32
34236 Par ch=9 c=11 v=33
34248 Par ch=9 c=11 v=34
34256 Par ch=9 c=11 v=35
34268 Par ch=9 c=11 v=36
34276 Par ch=9 c=11 v=37
34288 Par ch=9 c=11 v=38
34296 Par ch=9 c=11 v=39
34308 Par ch=9 c=11 v=40
34316 Par ch=9 c=11 v=41
34328 Par ch=9 c=11 v=42
34336 Par ch=9 c=11 v=43
34348 Par ch=9 c=11 v=44
34360 Par ch=9 c=11 v=45
34368 Par ch=9 c=11 v=46
34380 Par ch=9 c=11 v=47
34388 Par ch=9 c=11 v=48
34400 Par ch=9 c=11 v=49
34408 Par ch=9 c=11 v=50
34420 Par ch=9 c=11 v=51
34428 Par ch=9 c=11 v=52
34440 Par ch=9 c=11 v=53
34448 Par ch=9 c=11 v=54
34460 Par ch=9 c=11 v=55
34472 Par ch=9 c=11 v=56
34480 Par ch=9 c=11 v=57
34483 On ch=9 n=38 v=0
34492 Par ch=9 c=11 v=58
34500 Par ch=9 c=11 v=59
34512 Par ch=9 c=11 v=60
34520 Par ch=9 c=11 v=61
34532 Par ch=9 c=11 v=62
34540 Par ch=9 c=11 v=63
34552 Par ch=9 c=11 v=64
34560 On ch=9 n=38 v=111
34598 On ch=9 n=38 v=0
34632 On ch=9 n=40 v=111
34651 On ch=9 n=40 v=0
34656 On ch=9 n=42 v=111
34694 On ch=9 n=42 v=0
34728 On ch=9 n=43 v=111
34747 On ch=9 n=43 v=0
34752 On ch=9 n=45 v=111
34790 On ch=9 n=45 v=0
34824 On ch=9 n=46 v=111
34843 On ch=9 n=46 v=0
34848 On ch=9 n=48 v=111
34886 On ch=9 n=48 v=0
34920 On ch=9 n=50 v=111
34939 On ch=9 n=50 v=0
34944 On ch=9 n=38 v=111
34992 Par ch=9 c=11 v=32
35004 Par ch=9 c=11 v=33
35016 Par ch=9 c=11 v=34
35024 Par ch=9 c=11 v=35
35036 Par ch=9 c=11 v=36
35044 Par ch=9 c=11 v=37
35056 Par ch=9 c=11 v=38
35064 Par ch=9 c=11 v=39
35076 Par ch=9 c=11 v=40
35084 Par ch=9 c=11 v=41
35096 Par ch=9 c=11 v=42
35104 Par ch=9 c=11 v=43
35116 Par ch=9 c=11 v=44
35128 Par ch=9 c=11 v=45
35136 Par ch=9 c=11 v=46
35148 Par ch=9 c=11 v=47
35156 Par ch=9 c=11 v=48
35168 Par ch=9 c=11 v=49
35176 Par ch=9 c=11 v=50
35188 Par ch=9 c=11 v=51
35196 Par ch=9 c=11 v=52
35208 Par ch=9 c=11 v=53
35216 Par ch=9 c=11 v=54
35228 Par ch=9 c=11 v=55
35240 Par ch=9 c=11 v=56
35248 Par ch=9 c=11 v=57
35251 On ch=9 n=38 v=0
35260 Par ch=9 c=11 v=58
35268 Par ch=9 c=11 v=59
35280 Par ch=9 c=11 v=60
35288 Par ch=9 c=11 v=61
35300 Par ch=9 c=11 v=62
35308 Par ch=9 c=11 v=63
35320 Par ch=9 c=11 v=64
35328 On ch=9 n=38 v=111
35366 On ch=9 n=38 v=0
35400 On ch=9 n=40 v=111
35419 On ch=9 n=40 v=0
35424 On ch=9 n=42 v=111
35462 On ch=9 n=42 v=0
35496 On ch=9 n=43 v=111
35515 On ch=9 n=43 v=0
35520 On ch=9 n=45 v=111
35558 On ch=9 n=45 v=0
35592 On ch=9 n=46 v=111
35611 On ch=9 n=46 v=0
35616 On ch=9 n=48 v=111
35654 On ch=9 n=48 v=0
35688 On ch=9 n=50 v=111
35707 On ch=9 n=50 v=0
35712 Par ch=9 c=11 v=64
35712 On ch=9 n=38 v=95
35724 Par ch=9 c=11 v=63
35736 Par ch=9 c=11 v=62
35748 Par ch=9 c=11 v=61
35750 On ch=9 n=38 v=0
35760 Par ch=9 c=11 v=60
35772 Par ch=9 c=11 v=59
35780 Par ch=9 c=11 v=58
35784 On ch=9 n=39 v=95
35792 Par ch=9 c=11 v=57
35803 On ch=9 n=39 v=0
35804 Par ch=9 c=11 v=56
35808 On ch=9 n=41 v=95
35816 Par ch=9 c=11 v=55
35828 Par ch=9 c=11 v=54
35840 Par ch=9 c=11 v=53
35846 On ch=9 n=41 v=0
35848 Par ch=9 c=11 v=52
35860 Par ch=9 c=11 v=51
35872 Par ch=9 c=11 v=50
35880 On ch=9 n=43 v=95
35884 Par ch=9 c=11 v=49
35896 Par ch=9 c=11 v=48
35899 On ch=9 n=43 v=0
35904 Par ch=9 c=11 v=48
35904 On ch=9 n=38 v=95
35916 Par ch=9 c=11 v=49
35928 Par ch=9 c=11 v=50
35940 Par ch=9 c=11 v=51
35952 Par ch=9 c=11 v=52
35964 Par ch=9 c=11 v=53
35972 Par ch=9 c=11 v=54
35984 Par ch=9 c=11 v=55
35996 Par ch=9 c=11 v=56
36008 Par ch=9 c=11 v=57
36020 Par ch=9 c=11 v=58
36032 Par ch=9 c=11 v=59
36040 Par ch=9 c=11 v=60
36052 Par ch=9 c=11 v=61
36064 Par ch=9 c=11 v=62
36076 Par ch=9 c=11 v=63
36088 Par ch=9 c=11 v=64
36096 Par ch=9 c=11 v=64
36104 Par ch=9 c=11 v=63
36108 Par ch=9 c=11 v=62
36116 Par ch=9 c=11 v=61
36120 Par ch=9 c=11 v=60
36128 Par ch=9 c=11 v=59
36132 Par ch=9 c=11 v=58
36134 On ch=9 n=38 v=0
36136 Par ch=9 c=11 v=57
36144 Par ch=9 c=11 v=56
36148 Par ch=9 c=11 v=55
36156 Par ch=9 c=11 v=54
36160 Par ch=9 c=11 v=53
36164 Par ch=9 c=11 v=52
36168 On ch=9 n=39 v=95
36172 Par ch=9 c=11 v=51
36176 Par ch=9 c=11 v=50
36184 Par ch=9 c=11 v=49
36187 On ch=9 n=39 v=0
36188 Par ch=9 c=11 v=48
36192 Par ch=9 c=11 v=47
36192 On ch=9 n=41 v=95
36200 Par ch=9 c=11 v=46
36204 Par ch=9 c=11 v=45
36212 Par ch=9 c=11 v=44
36216 Par ch=9 c=11 v=43
36224 Par ch=9 c=11 v=42
36228 Par ch=9 c=11 v=41
36230 On ch=9 n=41 v=0
36232 Par ch=9 c=11 v=40
36240 Par ch=9 c=11 v=39
36244 Par ch=9 c=11 v=38
36252 Par ch=9 c=11 v=37
36256 Par ch=9 c=11 v=36
36260 Par ch=9 c=11 v=35
36264 On ch=9 n=43 v=95
36268 Par ch=9 c=11 v=34
36272 Par ch=9 c=11 v=33
36280 Par ch=9 c=11 v=32
36283 On ch=9 n=43 v=0
36288 Par ch=9 c=11 v=32
36288 On ch=9 n=38 v=95
36300 Par ch=9 c=11 v=33
36312 Par ch=9 c=11 v=34
36320 Par ch=9 c=11 v=35
36332 Par ch=9 c=11 v=36
36344 Par ch=9 c=11 v=37
36352 Par ch=9 c=11 v=38
36364 Par ch=9 c=11 v=39
36376 Par ch=9 c=11 v=40
36384 Par ch=9 c=11 v=41
36396 Par ch=9 c=11 v=42
36408 Par ch=9 c=11 v=43
36416 Par ch=9 c=11 v=44
36428 Par ch=9 c=11 v=45
36440 Par ch=9 c=11 v=46
36448 Par ch=9 c=11 v=47
36460 Par ch=9 c=11 v=48
36518 On ch=9 n=38 v=0
36552 On ch=9 n=37 v=95
36576 On ch=9 n=37 v=0
36576 On ch=9 n=38 v=95
36672 Par ch=9 c=11 v=48
36680 Par ch=9 c=11 v=47
36688 Par ch=9 c=11 v=46
36696 Par ch=9 c=11 v=45
36704 Par ch=9 c=11 v=44
36710 On ch=9 n=38 v=0
36712 Par ch=9 c=11 v=43
36716 Par ch=9 c=11 v=42
36724 Par ch=9 c=11 v=41
36732 Par ch=9 c=11 v=40
36740 Par ch=9 c=11 v=39
36744 On ch=9 n=37 v=95
36748 Par ch=9 c=11 v=38
36752 Par ch=9 c=11 v=37
36760 Par ch=9 c=11 v=36
36763 On ch=9 n=37 v=0
36768 Par ch=9 c=11 v=35
36768 On ch=9 n=38 v=95
36776 Par ch=9 c=11 v=34
36784 Par ch=9 c=11 v=33
36792 Par ch=9 c=11 v=32
36796 Par ch=9 c=11 v=31
36804 Par ch=9 c=11 v=30
36812 Par ch=9 c=11 v=29
36820 Par ch=9 c=11 v=28
36828 Par ch=9 c=11 v=27
36832 Par ch=9 c=11 v=26
36840 Par ch=9 c=11 v=25
36848 Par ch=9 c=11 v=24
36856 Par ch=9 c=11 v=23
36864 Par ch=9 c=11 v=22
36872 Par ch=9 c=11 v=21
36876 Par ch=9 c=11 v=20
36884 Par ch=9 c=11 v=19
36892 Par ch=9 c=11 v=18
36900 Par ch=9 c=11 v=17
36902 On ch=9 n=38 v=0
36908 Par ch=9 c=11 v=16
36936 On ch=9 n=37 v=95
36955 On ch=9 n=37 v=0
36960 On ch=9 n=38 v=95
37094 On ch=9 n=38 v=0
37128 Par ch=9 c=11 v=64
37128 On ch=9 n=37 v=31
37147 On ch=9 n=37 v=0
37152 On ch=9 n=38 v=31
37248 On ch=9 n=38 v=0
37248 On ch=9 n=31 v=31
37325 On ch=9 n=31 v=0
37344 On ch=9 n=30 v=31
37421 On ch=9 n=30 v=0
37440 On ch=9 n=29 v=31
37516 On ch=9 n=29 v=0
37536 On ch=9 n=28 v=31
37557 On ch=9 n=28 v=0
37568 On ch=9 n=27 v=31
37589 On ch=9 n=27 v=0
37600 On ch=9 n=26 v=31
37621 On ch=9 n=26 v=0
37632 On ch=9 n=31 v=31
37709 On ch=9 n=31 v=0
37728 On ch=9 n=30 v=31
37805 On ch=9 n=30 v=0
37824 On ch=9 n=29 v=31
37900 On ch=9 n=29 v=0
37920 On ch=9 n=28 v=31
37941 On ch=9 n=28 v=0
37952 On ch=9 n=27 v=31
37973 On ch=9 n=27 v=0
37984 On ch=9 n=26 v=31
38005 On ch=9 n=26 v=0
38016 On ch=9 n=31 v=31
38093 On ch=9 n=31 v=0
38112 On ch=9 n=30 v=31
38189 On ch=9 n=30 v=0
38208 On ch=9 n=29 v=31
38284 On ch=9 n=29 v=0
38304 On ch=9 n=28 v=31
38325 On ch=9 n=28 v=0
38336 On ch=9 n=27 v=31
38357 On ch=9 n=27 v=0
38368 On ch=9 n=26 v=31
38389 On ch=9 n=26 v=0
38400 On ch=9 n=31 v=31
38477 On ch=9 n=31 v=0
38496 On ch=9 n=30 v=31
38573 On ch=9 n=30 v=0
38592 On ch=9 n=29 v=31
38668 On ch=9 n=29 v=0
38688 On ch=9 n=28 v=31
38709 On ch=9 n=28 v=0
38720 On ch=9 n=27 v=31
38741 On ch=9 n=27 v=0
38752 On ch=9 n=26 v=31
38773 On ch=9 n=26 v=0
38784 On ch=9 n=31 v=31
38861 On ch=9 n=31 v=0
38880 On ch=9 n=30 v=31
38957 On ch=9 n=30 v=0
38976 On ch=9 n=29 v=31
39052 On ch=9 n=29 v=0
39072 On ch=9 n=28 v=31
39093 On ch=9 n=28 v=0
39104 On ch=9 n=27 v=31
39125 On ch=9 n=27 v=0
39136 On ch=9 n=26 v=31
39157 On ch=9 n=26 v=0
39168 On ch=9 n=31 v=31
39245 On ch=9 n=31 v=0
39264 On ch=9 n=30 v=31
39341 On ch=9 n=30 v=0
39360 On ch=9 n=29 v=31
39436 On ch=9 n=29 v=0
39456 On ch=9 n=28 v=31
39477 On ch=9 n=28 v=0
39488 On ch=9 n=27 v=31
39509 On ch=9 n=27 v=0
39520 On ch=9 n=26 v=31
39541 On ch=9 n=26 v=0
39552 On ch=9 n=31 v=31
39629 On ch=9 n=31 v=0
39648 On ch=9 n=30 v=31
39725 On ch=9 n=30 v=0
39744 On ch=9 n=29 v=31
39820 On ch=9 n=29 v=0
39840 On ch=9 n=28 v=31
39861 On ch=9 n=28 v=0
39872 On ch=9 n=27 v=31
39893 On ch=9 n=27 v=0
39904 On ch=9 n=26 v=31
39925 On ch=9 n=26 v=0
39936 On ch=9 n=31 v=31
39936 On ch=9 n=43 v=15
40013 On ch=9 n=43 v=0
40013 On ch=9 n=31 v=0
40032 On ch=9 n=29 v=31
40032 On ch=9 n=41 v=15
40109 On ch=9 n=41 v=0
40109 On ch=9 n=29 v=0
40128 On ch=9 n=27 v=31
40128 On ch=9 n=39 v=15
40205 On ch=9 n=39 v=0
40205 On ch=9 n=27 v=0
40224 On ch=9 n=26 v=31
40224 On ch=9 n=38 v=15
40245 On ch=9 n=38 v=0
40255 On ch=9 n=26 v=0
40256 On ch=9 n=36 v=15
40277 On ch=9 n=36 v=0
40288 On ch=9 n=34 v=15
40309 On ch=9 n=34 v=0
40320 On ch=9 n=43 v=15
40320 On ch=9 n=31 v=31
40397 On ch=9 n=31 v=0
40397 On ch=9 n=43 v=0
40416 On ch=9 n=41 v=15
40416 On ch=9 n=29 v=31
40493 On ch=9 n=29 v=0
40493 On ch=9 n=41 v=0
40512 On ch=9 n=39 v=15
40512 On ch=9 n=27 v=31
40589 On ch=9 n=27 v=0
40589 On ch=9 n=39 v=0
40608 On ch=9 n=38 v=15
40608 On ch=9 n=26 v=31
40629 On ch=9 n=38 v=0
40639 On ch=9 n=26 v=0
40640 On ch=9 n=36 v=15
40661 On ch=9 n=36 v=0
40672 On ch=9 n=34 v=15
40693 On ch=9 n=34 v=0
40704 On ch=9 n=43 v=15
40704 On ch=9 n=31 v=31
40781 On ch=9 n=31 v=0
40781 On ch=9 n=43 v=0
40800 On ch=9 n=41 v=15
40800 On ch=9 n=29 v=31
40877 On ch=9 n=29 v=0
40877 On ch=9 n=41 v=0
40896 On ch=9 n=39 v=15
40896 On ch=9 n=27 v=31
40973 On ch=9 n=27 v=0
40973 On ch=9 n=39 v=0
40992 On ch=9 n=38 v=15
40992 On ch=9 n=26 v=31
41013 On ch=9 n=38 v=0
41023 On ch=9 n=26 v=0
41024 On ch=9 n=36 v=15
41045 On ch=9 n=36 v=0
41056 On ch=9 n=34 v=15
41077 On ch=9 n=34 v=0
41088 On ch=9 n=43 v=15
41088 On ch=9 n=31 v=31
41165 On ch=9 n=31 v=0
41165 On ch=9 n=43 v=0
41184 On ch=9 n=41 v=15
41184 On ch=9 n=29 v=31
41261 On ch=9 n=29 v=0
41261 On ch=9 n=41 v=0
41280 On ch=9 n=39 v=15
41280 On ch=9 n=27 v=31
41357 On ch=9 n=27 v=0
41357 On ch=9 n=39 v=0
41376 On ch=9 n=38 v=15
41376 On ch=9 n=26 v=31
41397 On ch=9 n=38 v=0
41407 On ch=9 n=26 v=0
41408 On ch=9 n=36 v=15
41429 On ch=9 n=36 v=0
41440 On ch=9 n=34 v=15
41461 On ch=9 n=34 v=0
41472 On ch=9 n=43 v=15
41472 On ch=9 n=31 v=31
41549 On ch=9 n=31 v=0
41549 On ch=9 n=43 v=0
41568 On ch=9 n=41 v=15
41568 On ch=9 n=29 v=31
41645 On ch=9 n=29 v=0
41645 On ch=9 n=41 v=0
41664 On ch=9 n=39 v=15
41664 On ch=9 n=27 v=31
41741 On ch=9 n=27 v=0
41741 On ch=9 n=39 v=0
41760 On ch=9 n=38 v=15
41760 On ch=9 n=26 v=31
41781 On ch=9 n=38 v=0
41791 On ch=9 n=26 v=0
41792 On ch=9 n=36 v=15
41813 On ch=9 n=36 v=0
41824 On ch=9 n=34 v=15
41845 On ch=9 n=34 v=0
41856 On ch=9 n=31 v=31
41856 On ch=9 n=43 v=15
41933 On ch=9 n=43 v=0
41933 On ch=9 n=31 v=0
41952 On ch=9 n=29 v=31
42029 On ch=9 n=29 v=0
42048 On ch=9 n=27 v=31
42125 On ch=9 n=27 v=0
42144 On ch=9 n=26 v=31
42221 On ch=9 n=26 v=0
42240 On ch=9 n=31 v=31
42317 On ch=9 n=31 v=0
42336 On ch=9 n=29 v=31
42413 On ch=9 n=29 v=0
42432 On ch=9 n=27 v=31
42509 On ch=9 n=27 v=0
42528 On ch=9 n=26 v=31
42605 On ch=9 n=26 v=0
42624 On ch=9 n=31 v=31
42701 On ch=9 n=31 v=0
42720 On ch=9 n=29 v=31
42797 On ch=9 n=29 v=0
42816 On ch=9 n=27 v=31
42893 On ch=9 n=27 v=0
42912 On ch=9 n=26 v=31
42989 On ch=9 n=26 v=0
43008 On ch=9 n=31 v=31
43085 On ch=9 n=31 v=0
43104 On ch=9 n=29 v=31
43181 On ch=9 n=29 v=0
43200 On ch=9 n=27 v=31
43277 On ch=9 n=27 v=0
43296 On ch=9 n=26 v=31
43373 On ch=9 n=26 v=0
43392 On ch=9 n=31 v=31
43469 On ch=9 n=31 v=0
43488 On ch=9 n=29 v=31
43565 On ch=9 n=29 v=0
43584 On ch=9 n=27 v=31
43661 On ch=9 n=27 v=0
43680 On ch=9 n=26 v=31
43757 On ch=9 n=26 v=0
43776 Par ch=9 c=11 v=64
43776 On ch=9 n=31 v=31
43800 Par ch=9 c=11 v=63
43824 Par ch=9 c=11 v=62
43844 Par ch=9 c=11 v=61
43853 On ch=9 n=31 v=0
43868 Par ch=9 c=11 v=60
43872 On ch=9 n=29 v=31
43892 Par ch=9 c=11 v=59
43912 Par ch=9 c=11 v=58
43936 Par ch=9 c=11 v=57
43949 On ch=9 n=29 v=0
43960 Par ch=9 c=11 v=56
43968 On ch=9 n=27 v=31
43980 Par ch=9 c=11 v=55
44004 Par ch=9 c=11 v=54
44028 Par ch=9 c=11 v=53
44045 On ch=9 n=27 v=0
44048 Par ch=9 c=11 v=52
44064 On ch=9 n=26 v=31
44072 Par ch=9 c=11 v=51
44096 Par ch=9 c=11 v=50
44116 Par ch=9 c=11 v=49
44140 Par ch=9 c=11 v=48
44141 On ch=9 n=26 v=0
44544 Par ch=9 c=11 v=64
44928 On ch=9 n=31 v=15
46387 On ch=9 n=31 v=0
46464 On ch=9 n=36 v=15
46771 On ch=9 n=36 v=0
46848 Par ch=9 c=11 v=64
46848 On ch=9 n=33 v=15
46872 Par ch=9 c=11 v=63
46896 Par ch=9 c=11 v=62
46916 Par ch=9 c=11 v=61
46940 Par ch=9 c=11 v=60
46964 Par ch=9 c=11 v=59
46984 Par ch=9 c=11 v=58
47008 Par ch=9 c=11 v=57
47032 Par ch=9 c=11 v=56
47052 Par ch=9 c=11 v=55
47076 Par ch=9 c=11 v=54
47100 Par ch=9 c=11 v=53
47120 Par ch=9 c=11 v=52
47144 Par ch=9 c=11 v=51
47155 On ch=9 n=33 v=0
47168 Par ch=9 c=11 v=50
47188 Par ch=9 c=11 v=49
47212 Par ch=9 c=11 v=48
47232 Par ch=9 c=11 v=64
47232 On ch=9 n=29 v=15
47232 On ch=9 n=36 v=15
48077 On ch=9 n=36 v=0
48384 Par ch=9 c=11 v=64
48408 Par ch=9 c=11 v=63
48432 Par ch=9 c=11 v=62
48452 Par ch=9 c=11 v=61
48476 Par ch=9 c=11 v=60
48500 Par ch=9 c=11 v=59
48520 Par ch=9 c=11 v=58
48544 Par ch=9 c=11 v=57
48568 Par ch=9 c=11 v=56
48588 Par ch=9 c=11 v=55
48612 Par ch=9 c=11 v=54
48636 Par ch=9 c=11 v=53
48656 Par ch=9 c=11 v=52
48680 Par ch=9 c=11 v=51
48691 On ch=9 n=29 v=0
48704 Par ch=9 c=11 v=50
48724 Par ch=9 c=11 v=49
48748 Par ch=9 c=11 v=48
48768 Par ch=9 c=11 v=64
48768 On ch=9 n=28 v=15
49613 On ch=9 n=28 v=0
51072 On ch=9 n=47 v=15
51072 On ch=9 n=40 v=15
54336 On ch=9 n=47 v=0
54528 Par ch=9 c=11 v=64
54552 Par ch=9 c=11 v=63
54576 Par ch=9 c=11 v=62
54596 Par ch=9 c=11 v=61
54620 Par ch=9 c=11 v=60
54644 Par ch=9 c=11 v=59
54664 Par ch=9 c=11 v=58
54688 Par ch=9 c=11 v=57
54712 Par ch=9 c=11 v=56
54732 Par ch=9 c=11 v=55
54756 Par ch=9 c=11 v=54
54780 Par ch=9 c=11 v=53
54800 Par ch=9 c=11 v=52
54824 Par ch=9 c=11 v=51
54835 On ch=9 n=40 v=0
54848 Par ch=9 c=11 v=50
54868 Par ch=9 c=11 v=49
54892 Par ch=9 c=11 v=48
55104 Par ch=9 c=11 v=64
56520 On ch=9 n=40 v=31
56544 On ch=9 n=40 v=0
56544 On ch=9 n=42 v=31
56575 On ch=9 n=42 v=0
56616 On ch=9 n=40 v=31
56640 On ch=9 n=40 v=0
56640 On ch=9 n=43 v=31
56671 On ch=9 n=43 v=0
56712 On ch=9 n=40 v=31
56736 On ch=9 n=40 v=0
56736 On ch=9 n=45 v=31
56767 On ch=9 n=45 v=0
56808 On ch=9 n=40 v=31
56832 On ch=9 n=40 v=0
56832 On ch=9 n=43 v=31
56863 On ch=9 n=43 v=0
56904 On ch=9 n=40 v=31
56928 On ch=9 n=40 v=0
56928 On ch=9 n=45 v=31
56959 On ch=9 n=45 v=0
57000 On ch=9 n=40 v=31
57024 On ch=9 n=40 v=0
57024 On ch=9 n=47 v=31
57055 On ch=9 n=47 v=0
57096 On ch=9 n=40 v=31
57120 On ch=9 n=40 v=0
57120 On ch=9 n=48 v=31
57151 On ch=9 n=48 v=0
57192 On ch=9 n=40 v=31
57216 On ch=9 n=40 v=0
57216 On ch=9 n=47 v=31
57247 On ch=9 n=47 v=0
57288 On ch=9 n=40 v=31
57312 On ch=9 n=40 v=0
57312 On ch=9 n=43 v=31
57343 On ch=9 n=43 v=0
57384 On ch=9 n=40 v=31
57408 On ch=9 n=40 v=0
57408 On ch=9 n=43 v=31
57439 On ch=9 n=43 v=0
57480 On ch=9 n=40 v=31
57504 On ch=9 n=40 v=0
57504 On ch=9 n=42 v=31
57528 On ch=9 n=42 v=0
57528 On ch=9 n=40 v=31
57552 On ch=9 n=40 v=0
57552 On ch=9 n=39 v=31
57576 On ch=9 n=39 v=0
57576 On ch=9 n=40 v=31
57600 On ch=9 n=40 v=0
57600 On ch=9 n=43 v=31
57631 On ch=9 n=43 v=0
57672 On ch=9 n=40 v=31
57696 On ch=9 n=40 v=0
57696 On ch=9 n=45 v=31
57727 On ch=9 n=45 v=0
57768 On ch=9 n=40 v=31
57792 On ch=9 n=40 v=0
57792 On ch=9 n=47 v=31
57823 On ch=9 n=47 v=0
57864 On ch=9 n=40 v=31
57888 On ch=9 n=40 v=0
57888 On ch=9 n=48 v=31
57919 On ch=9 n=48 v=0
57960 On ch=9 n=40 v=31
57984 On ch=9 n=40 v=0
57984 On ch=9 n=47 v=31
58015 On ch=9 n=47 v=0
58056 On ch=9 n=43 v=31
58072 On ch=9 n=43 v=0
58080 On ch=9 n=42 v=31
58111 On ch=9 n=42 v=0
58152 On ch=9 n=40 v=31
58168 On ch=9 n=40 v=0
58176 On ch=9 n=39 v=31
58207 On ch=9 n=39 v=0
58248 On ch=9 n=35 v=31
58264 On ch=9 n=35 v=0
58272 On ch=9 n=37 v=31
58303 On ch=9 n=37 v=0
58344 On ch=9 n=39 v=31
58360 On ch=9 n=39 v=0
58368 On ch=9 n=40 v=31
58399 On ch=9 n=40 v=0
58440 On ch=9 n=38 v=31
58456 On ch=9 n=38 v=0
58464 On ch=9 n=36 v=31
58495 On ch=9 n=36 v=0
58536 On ch=9 n=35 v=31
58552 On ch=9 n=35 v=0
58560 On ch=9 n=36 v=31
58591 On ch=9 n=36 v=0
58632 On ch=9 n=35 v=31
58648 On ch=9 n=35 v=0
58656 On ch=9 n=33 v=31
58687 On ch=9 n=33 v=0
58728 On ch=9 n=31 v=31
58744 On ch=9 n=31 v=0
58752 On ch=9 n=29 v=31
58783 On ch=9 n=29 v=0
58824 On ch=9 n=31 v=31
58840 On ch=9 n=31 v=0
58848 On ch=9 n=33 v=31
58879 On ch=9 n=33 v=0
58920 On ch=9 n=35 v=31
58936 On ch=9 n=35 v=0
58944 On ch=9 n=36 v=31
58975 On ch=9 n=36 v=0
59016 On ch=9 n=38 v=31
59032 On ch=9 n=38 v=0
59040 On ch=9 n=40 v=31
59071 On ch=9 n=40 v=0
59112 On ch=9 n=36 v=31
59128 On ch=9 n=36 v=0
59136 On ch=9 n=39 v=31
59174 On ch=9 n=39 v=0
59208 On ch=9 n=40 v=31
59227 On ch=9 n=40 v=0
59232 On ch=9 n=39 v=31
59270 On ch=9 n=39 v=0
59304 On ch=9 n=36 v=31
59323 On ch=9 n=36 v=0
59328 On ch=9 n=35 v=31
59366 On ch=9 n=35 v=0
59400 On ch=9 n=33 v=31
59419 On ch=9 n=33 v=0
59424 On ch=9 n=31 v=31
59462 On ch=9 n=31 v=0
59496 On ch=9 n=30 v=31
59515 On ch=9 n=30 v=0
59520 On ch=9 n=40 v=31
59520 On ch=9 n=28 v=31
59558 On ch=9 n=28 v=0
59558 On ch=9 n=40 v=0
59592 On ch=9 n=43 v=31
59611 On ch=9 n=43 v=0
59616 On ch=9 n=42 v=31
59654 On ch=9 n=42 v=0
59688 On ch=9 n=40 v=31
59707 On ch=9 n=40 v=0
59712 On ch=9 n=39 v=31
59750 On ch=9 n=39 v=0
59784 On ch=9 n=35 v=31
59803 On ch=9 n=35 v=0
59808 On ch=9 n=37 v=31
59846 On ch=9 n=37 v=0
59880 On ch=9 n=39 v=31
59899 On ch=9 n=39 v=0
59904 On ch=9 n=40 v=31
59942 On ch=9 n=40 v=0
59976 On ch=9 n=35 v=31
59995 On ch=9 n=35 v=0
60000 On ch=9 n=33 v=31
60038 On ch=9 n=33 v=0
60072 On ch=9 n=31 v=31
60091 On ch=9 n=31 v=0
60096 On ch=9 n=30 v=31
60134 On ch=9 n=30 v=0
60168 On ch=9 n=26 v=31
60187 On ch=9 n=26 v=0
60192 On ch=9 n=28 v=31
60230 On ch=9 n=28 v=0
60264 On ch=9 n=30 v=31
60283 On ch=9 n=30 v=0
60288 On ch=9 n=31 v=31
60326 On ch=9 n=31 v=0
60360 On ch=9 n=33 v=31
60379 On ch=9 n=33 v=0
60384 On ch=9 n=35 v=31
60422 On ch=9 n=35 v=0
60456 On ch=9 n=37 v=31
60475 On ch=9 n=37 v=0
60480 On ch=9 n=39 v=31
60518 On ch=9 n=39 v=0
60552 On ch=9 n=40 v=31
60571 On ch=9 n=40 v=0
60576 On ch=9 n=42 v=31
60614 On ch=9 n=42 v=0
60648 On ch=9 n=44 v=31
60667 On ch=9 n=44 v=0
60672 On ch=9 n=46 v=31
60710 On ch=9 n=46 v=0
60744 On ch=9 n=48 v=31
60763 On ch=9 n=48 v=0
60768 On ch=9 n=47 v=31
60806 On ch=9 n=47 v=0
60840 On ch=9 n=45 v=31
60859 On ch=9 n=45 v=0
60864 On ch=9 n=44 v=31
60902 On ch=9 n=44 v=0
60936 On ch=9 n=40 v=31
60955 On ch=9 n=40 v=0
60960 On ch=9 n=42 v=31
60998 On ch=9 n=42 v=0
61032 On ch=9 n=44 v=31
61051 On ch=9 n=44 v=0
61056 On ch=9 n=45 v=31
61087 On ch=9 n=45 v=0
61128 On ch=9 n=43 v=31
61144 On ch=9 n=43 v=0
61152 On ch=9 n=42 v=31
61183 On ch=9 n=42 v=0
61224 On ch=9 n=40 v=31
61240 On ch=9 n=40 v=0
61248 On ch=9 n=39 v=31
61279 On ch=9 n=39 v=0
61320 On ch=9 n=36 v=31
61336 On ch=9 n=36 v=0
61344 On ch=9 n=35 v=31
61375 On ch=9 n=35 v=0
61416 On ch=9 n=33 v=31
61432 On ch=9 n=33 v=0
61440 On ch=9 n=31 v=31
61471 On ch=9 n=31 v=0
61512 On ch=9 n=28 v=31
61536 On ch=9 n=28 v=0
61536 On ch=9 n=30 v=31
61567 On ch=9 n=30 v=0
61608 On ch=9 n=28 v=31
61632 On ch=9 n=28 v=0
61632 On ch=9 n=31 v=31
61663 On ch=9 n=31 v=0
61704 On ch=9 n=28 v=31
61728 On ch=9 n=28 v=0
61728 On ch=9 n=33 v=31
61759 On ch=9 n=33 v=0
61800 On ch=9 n=28 v=31
61824 On ch=9 n=28 v=0
61824 On ch=9 n=35 v=31
61855 On ch=9 n=35 v=0
61896 On ch=9 n=31 v=31
61920 On ch=9 n=31 v=0
61920 On ch=9 n=35 v=31
61951 On ch=9 n=35 v=0
61992 On ch=9 n=31 v=31
62016 On ch=9 n=31 v=0
62016 On ch=9 n=35 v=31
62047 On ch=9 n=35 v=0
62088 On ch=9 n=31 v=31
62112 On ch=9 n=31 v=0
62112 On ch=9 n=33 v=31
62136 On ch=9 n=33 v=0
62136 On ch=9 n=31 v=31
62160 On ch=9 n=31 v=0
62160 On ch=9 n=30 v=31
62184 On ch=9 n=30 v=0
62184 On ch=9 n=31 v=31
62208 On ch=9 n=31 v=0
62208 On ch=9 n=33 v=31
62239 On ch=9 n=33 v=0
62280 On ch=9 n=33 v=31
62304 On ch=9 n=33 v=0
62304 On ch=9 n=35 v=31
62335 On ch=9 n=35 v=0
62376 On ch=9 n=33 v=31
62400 On ch=9 n=33 v=0
62400 On ch=9 n=36 v=31
62431 On ch=9 n=36 v=0
62472 On ch=9 n=33 v=31
62496 On ch=9 n=33 v=0
62496 On ch=9 n=38 v=31
62527 On ch=9 n=38 v=0
62568 On ch=9 n=33 v=31
62592 On ch=9 n=33 v=0
62592 On ch=9 n=36 v=31
62623 On ch=9 n=36 v=0
62664 On ch=9 n=33 v=31
62688 On ch=9 n=33 v=0
62688 On ch=9 n=36 v=31
62719 On ch=9 n=36 v=0
62760 On ch=9 n=33 v=31
62784 On ch=9 n=33 v=0
62784 On ch=9 n=36 v=31
62815 On ch=9 n=36 v=0
62856 On ch=9 n=33 v=31
62880 On ch=9 n=33 v=0
62880 On ch=9 n=35 v=31
62904 On ch=9 n=35 v=0
62904 On ch=9 n=33 v=31
62928 On ch=9 n=33 v=0
62928 On ch=9 n=32 v=31
62952 On ch=9 n=32 v=0
62952 On ch=9 n=33 v=31
62976 On ch=9 n=33 v=0
62976 On ch=9 n=47 v=31
62997 On ch=9 n=47 v=0
63008 On ch=9 n=48 v=31
63029 On ch=9 n=48 v=0
63040 On ch=9 n=38 v=31
63061 On ch=9 n=38 v=0
63072 On ch=9 n=35 v=31
63093 On ch=9 n=35 v=0
63104 On ch=9 n=36 v=31
63125 On ch=9 n=36 v=0
63136 On ch=9 n=38 v=31
63157 On ch=9 n=38 v=0
63168 On ch=9 n=35 v=31
63189 On ch=9 n=35 v=0
63200 On ch=9 n=36 v=31
63221 On ch=9 n=36 v=0
63232 On ch=9 n=38 v=31
63253 On ch=9 n=38 v=0
63264 On ch=9 n=35 v=31
63285 On ch=9 n=35 v=0
63296 On ch=9 n=36 v=31
63317 On ch=9 n=36 v=0
63328 On ch=9 n=38 v=31
63349 On ch=9 n=38 v=0
63360 On ch=9 n=35 v=31
63381 On ch=9 n=35 v=0
63392 On ch=9 n=36 v=31
63413 On ch=9 n=36 v=0
63424 On ch=9 n=38 v=31
63445 On ch=9 n=38 v=0
63456 On ch=9 n=35 v=31
63477 On ch=9 n=35 v=0
63488 On ch=9 n=36 v=31
63509 On ch=9 n=36 v=0
63520 On ch=9 n=38 v=31
63541 On ch=9 n=38 v=0
63552 On ch=9 n=35 v=31
63573 On ch=9 n=35 v=0
63584 On ch=9 n=36 v=31
63605 On ch=9 n=36 v=0
63616 On ch=9 n=38 v=31
63637 On ch=9 n=38 v=0
63648 On ch=9 n=41 v=31
63672 On ch=9 n=41 v=0
63672 On ch=9 n=40 v=31
63696 On ch=9 n=40 v=0
63696 On ch=9 n=38 v=31
63720 On ch=9 n=38 v=0
63720 On ch=9 n=36 v=31
63739 On ch=9 n=36 v=0
63744 Par ch=9 c=11 v=64
63744 On ch=9 n=37 v=31
63764 Par ch=9 c=11 v=65
63770 On ch=9 n=37 v=0
63776 On ch=9 n=38 v=31
63784 Par ch=9 c=11 v=66
63800 Par ch=9 c=11 v=67
63802 On ch=9 n=38 v=0
63808 On ch=9 n=40 v=31
63820 Par ch=9 c=11 v=68
63834 On ch=9 n=40 v=0
63836 Par ch=9 c=11 v=69
63840 On ch=9 n=37 v=31
63856 Par ch=9 c=11 v=70
63866 On ch=9 n=37 v=0
63872 Par ch=9 c=11 v=71
63872 On ch=9 n=38 v=31
63892 Par ch=9 c=11 v=72
63898 On ch=9 n=38 v=0
63904 On ch=9 n=40 v=31
63912 Par ch=9 c=11 v=73
63928 Par ch=9 c=11 v=74
63930 On ch=9 n=40 v=0
63936 On ch=9 n=37 v=31
63948 Par ch=9 c=11 v=75
63962 On ch=9 n=37 v=0
63964 Par ch=9 c=11 v=76
63968 On ch=9 n=38 v=31
63984 Par ch=9 c=11 v=77
63994 On ch=9 n=38 v=0
64000 Par ch=9 c=11 v=78
64000 On ch=9 n=40 v=31
64020 Par ch=9 c=11 v=79
64026 On ch=9 n=40 v=0
64032 On ch=9 n=43 v=31
64040 Par ch=9 c=11 v=80
64056 On ch=9 n=43 v=0
64056 Par ch=9 c=11 v=81
64056 On ch=9 n=42 v=31
64076 Par ch=9 c=11 v=82
64080 On ch=9 n=42 v=0
64080 On ch=9 n=40 v=31
64092 Par ch=9 c=11 v=83
64104 On ch=9 n=40 v=0
64104 On ch=9 n=39 v=31
64112 Par ch=9 c=11 v=84
64123 On ch=9 n=39 v=0
64128 Par ch=9 c=11 v=85
64128 On ch=9 n=40 v=31
64148 Par ch=9 c=11 v=86
64154 On ch=9 n=40 v=0
64160 On ch=9 n=42 v=31
64168 Par ch=9 c=11 v=87
64184 Par ch=9 c=11 v=88
64186 On ch=9 n=42 v=0
64192 On ch=9 n=43 v=31
64204 Par ch=9 c=11 v=89
64218 On ch=9 n=43 v=0
64220 Par ch=9 c=11 v=90
64224 On ch=9 n=43 v=31
64240 Par ch=9 c=11 v=91
64250 On ch=9 n=43 v=0
64256 Par ch=9 c=11 v=92
64256 On ch=9 n=45 v=31
64276 Par ch=9 c=11 v=93
64282 On ch=9 n=45 v=0
64288 On ch=9 n=47 v=31
64296 Par ch=9 c=11 v=94
64312 Par ch=9 c=11 v=95
64314 On ch=9 n=47 v=0
64320 On ch=9 n=42 v=31
64332 Par ch=9 c=11 v=96
64346 On ch=9 n=42 v=0
64348 Par ch=9 c=11 v=97
64352 On ch=9 n=43 v=31
64368 Par ch=9 c=11 v=98
64378 On ch=9 n=43 v=0
64384 Par ch=9 c=11 v=99
64384 On ch=9 n=45 v=31
64404 Par ch=9 c=11 v=100
64410 On ch=9 n=45 v=0
64416 On ch=9 n=43 v=31
64424 Par ch=9 c=11 v=101
64440 Par ch=9 c=11 v=102
64442 On ch=9 n=43 v=0
64448 On ch=9 n=45 v=31
64460 Par ch=9 c=11 v=103
64474 On ch=9 n=45 v=0
64476 Par ch=9 c=11 v=104
64480 On ch=9 n=47 v=31
64496 Par ch=9 c=11 v=105
64506 On ch=9 n=47 v=0
64512 Par ch=9 c=11 v=106
64512 On ch=9 n=45 v=31
64532 Par ch=9 c=11 v=107
64538 On ch=9 n=45 v=0
64544 On ch=9 n=44 v=31
64552 Par ch=9 c=11 v=108
64568 Par ch=9 c=11 v=109
64570 On ch=9 n=44 v=0
64576 On ch=9 n=45 v=31
64588 Par ch=9 c=11 v=110
64602 On ch=9 n=45 v=0
64604 Par ch=9 c=11 v=111
64608 On ch=9 n=57 v=31
64624 Par ch=9 c=11 v=112
64634 On ch=9 n=57 v=0
64640 Par ch=9 c=11 v=113
64640 On ch=9 n=55 v=31
64660 Par ch=9 c=11 v=114
64666 On ch=9 n=55 v=0
64672 On ch=9 n=54 v=31
64680 Par ch=9 c=11 v=115
64696 Par ch=9 c=11 v=116
64698 On ch=9 n=54 v=0
64704 On ch=9 n=52 v=31
64716 Par ch=9 c=11 v=117
64730 On ch=9 n=52 v=0
64732 Par ch=9 c=11 v=118
64736 On ch=9 n=51 v=31
64752 Par ch=9 c=11 v=119
64762 On ch=9 n=51 v=0
64768 Par ch=9 c=11 v=120
64768 On ch=9 n=49 v=31
64788 Par ch=9 c=11 v=121
64794 On ch=9 n=49 v=0
64800 On ch=9 n=47 v=31
64808 Par ch=9 c=11 v=122
64824 Par ch=9 c=11 v=123
64826 On ch=9 n=47 v=0
64832 On ch=9 n=45 v=31
64844 Par ch=9 c=11 v=124
64858 On ch=9 n=45 v=0
64860 Par ch=9 c=11 v=125
64864 On ch=9 n=42 v=31
64880 Par ch=9 c=11 v=126
64890 On ch=9 n=42 v=0
64896 Par ch=9 c=11 v=64
64896 On ch=9 n=40 v=95
64922 On ch=9 n=40 v=0
64928 On ch=9 n=42 v=95
64954 On ch=9 n=42 v=0
64960 On ch=9 n=40 v=95
64986 On ch=9 n=40 v=0
64992 On ch=9 n=39 v=95
65018 On ch=9 n=39 v=0
65024 On ch=9 n=37 v=95
65050 On ch=9 n=37 v=0
65056 On ch=9 n=39 v=95
65082 On ch=9 n=39 v=0
65088 On ch=9 n=40 v=95
65114 On ch=9 n=40 v=0
65120 On ch=9 n=39 v=95
65146 On ch=9 n=39 v=0
65152 On ch=9 n=40 v=95
65178 On ch=9 n=40 v=0
65184 On ch=9 n=42 v=95
65210 On ch=9 n=42 v=0
65216 On ch=9 n=40 v=95
65242 On ch=9 n=40 v=0
65248 On ch=9 n=42 v=95
65274 On ch=9 n=42 v=0
65280 On ch=9 n=43 v=95
65306 On ch=9 n=43 v=0
65312 On ch=9 n=42 v=95
65338 On ch=9 n=42 v=0
65344 On ch=9 n=43 v=95
65370 On ch=9 n=43 v=0
65376 On ch=9 n=48 v=95
65402 On ch=9 n=48 v=0
65408 On ch=9 n=47 v=95
65434 On ch=9 n=47 v=0
65440 On ch=9 n=45 v=95
65466 On ch=9 n=45 v=0
65472 On ch=9 n=43 v=95
65498 On ch=9 n=43 v=0
65504 On ch=9 n=42 v=95
65530 On ch=9 n=42 v=0
65536 On ch=9 n=40 v=95
65562 On ch=9 n=40 v=0
65568 On ch=9 n=38 v=95
65594 On ch=9 n=38 v=0
65600 On ch=9 n=36 v=95
65626 On ch=9 n=36 v=0
65632 On ch=9 n=35 v=95
65658 On ch=9 n=35 v=0
65664 Par ch=9 c=11 v=64
65664 On ch=9 n=33 v=47
65672 Par ch=9 c=11 v=65
65680 Par ch=9 c=11 v=66
65684 Par ch=9 c=11 v=67
65692 Par ch=9 c=11 v=68
65696 Par ch=9 c=11 v=69
65702 On ch=9 n=33 v=0
65704 Par ch=9 c=11 v=70
65708 Par ch=9 c=11 v=71
65712 On ch=9 n=35 v=47
65716 Par ch=9 c=11 v=72
65720 Par ch=9 c=11 v=73
65728 Par ch=9 c=11 v=74
65732 Par ch=9 c=11 v=75
65740 Par ch=9 c=11 v=76
65744 Par ch=9 c=11 v=77
65750 On ch=9 n=35 v=0
65752 Par ch=9 c=11 v=78
65756 Par ch=9 c=11 v=79
65760 On ch=9 n=36 v=47
65764 Par ch=9 c=11 v=80
65768 Par ch=9 c=11 v=81
65776 Par ch=9 c=11 v=82
65780 Par ch=9 c=11 v=83
65788 Par ch=9 c=11 v=84
65792 Par ch=9 c=11 v=85
65798 On ch=9 n=36 v=0
65800 Par ch=9 c=11 v=86
65808 Par ch=9 c=11 v=87
65808 On ch=9 n=38 v=47
65812 Par ch=9 c=11 v=88
65820 Par ch=9 c=11 v=89
65824 Par ch=9 c=11 v=90
65832 Par ch=9 c=11 v=91
65836 Par ch=9 c=11 v=92
65844 Par ch=9 c=11 v=93
65846 On ch=9 n=38 v=0
65848 Par ch=9 c=11 v=94
65856 Par ch=9 c=11 v=95
65856 On ch=9 n=40 v=47
65860 Par ch=9 c=11 v=96
65868 Par ch=9 c=11 v=97
65872 Par ch=9 c=11 v=98
65880 Par ch=9 c=11 v=99
65884 Par ch=9 c=11 v=100
65892 Par ch=9 c=11 v=101
65894 On ch=9 n=40 v=0
65896 Par ch=9 c=11 v=102
65904 Par ch=9 c=11 v=103
65904 On ch=9 n=42 v=47
65908 Par ch=9 c=11 v=104
65916 Par ch=9 c=11 v=105
65920 Par ch=9 c=11 v=106
65928 Par ch=9 c=11 v=107
65936 Par ch=9 c=11 v=108
65940 Par ch=9 c=11 v=109
65942 On ch=9 n=42 v=0
65948 Par ch=9 c=11 v=110
65952 Par ch=9 c=11 v=111
65952 On ch=9 n=44 v=47
65960 Par ch=9 c=11 v=112
65964 Par ch=9 c=11 v=113
65972 Par ch=9 c=11 v=114
65976 Par ch=9 c=11 v=115
65984 Par ch=9 c=11 v=116
65988 Par ch=9 c=11 v=117
65990 On ch=9 n=44 v=0
65996 Par ch=9 c=11 v=118
66000 Par ch=9 c=11 v=119
66000 On ch=9 n=40 v=47
66008 Par ch=9 c=11 v=120
66012 Par ch=9 c=11 v=121
66020 Par ch=9 c=11 v=122
66024 Par ch=9 c=11 v=123
66032 Par ch=9 c=11 v=124
66036 Par ch=9 c=11 v=125
66038 On ch=9 n=40 v=0
66044 Par ch=9 c=11 v=126
66048 Par ch=9 c=11 v=126
66048 On ch=9 n=45 v=47
66056 Par ch=9 c=11 v=125
66060 Par ch=9 c=11 v=124
66068 Par ch=9 c=11 v=123
66072 Par ch=9 c=11 v=122
66080 Par ch=9 c=11 v=121
66084 Par ch=9 c=11 v=120
66086 On ch=9 n=45 v=0
66092 Par ch=9 c=11 v=119
66096 Par ch=9 c=11 v=118
66096 On ch=9 n=43 v=47
66104 Par ch=9 c=11 v=117
66108 Par ch=9 c=11 v=116
66116 Par ch=9 c=11 v=115
66120 Par ch=9 c=11 v=114
66128 Par ch=9 c=11 v=113
66132 Par ch=9 c=11 v=112
66134 On ch=9 n=43 v=0
66140 Par ch=9 c=11 v=111
66144 Par ch=9 c=11 v=110
66144 On ch=9 n=41 v=47
66152 Par ch=9 c=11 v=109
66156 Par ch=9 c=11 v=108
66164 Par ch=9 c=11 v=107
66168 Par ch=9 c=11 v=106
66176 Par ch=9 c=11 v=105
66180 Par ch=9 c=11 v=104
66182 On ch=9 n=41 v=0
66188 Par ch=9 c=11 v=103
66192 Par ch=9 c=11 v=102
66192 On ch=9 n=40 v=47
66200 Par ch=9 c=11 v=101
66204 Par ch=9 c=11 v=100
66212 Par ch=9 c=11 v=99
66216 Par ch=9 c=11 v=98
66224 Par ch=9 c=11 v=97
66228 Par ch=9 c=11 v=96
66230 On ch=9 n=40 v=0
66236 Par ch=9 c=11 v=95
66240 Par ch=9 c=11 v=94
66240 On ch=9 n=38 v=47
66248 Par ch=9 c=11 v=93
66252 Par ch=9 c=11 v=92
66260 Par ch=9 c=11 v=91
66264 Par ch=9 c=11 v=90
66272 Par ch=9 c=11 v=89
66276 Par ch=9 c=11 v=88
66278 On ch=9 n=38 v=0
66284 Par ch=9 c=11 v=87
66288 Par ch=9 c=11 v=86
66288 On ch=9 n=36 v=47
66296 Par ch=9 c=11 v=85
66300 Par ch=9 c=11 v=84
66308 Par ch=9 c=11 v=83
66312 Par ch=9 c=11 v=82
66320 Par ch=9 c=11 v=81
66324 Par ch=9 c=11 v=80
66326 On ch=9 n=36 v=0
66332 Par ch=9 c=11 v=79
66336 Par ch=9 c=11 v=78
66336 On ch=9 n=35 v=47
66344 Par ch=9 c=11 v=77
66348 Par ch=9 c=11 v=76
66356 Par ch=9 c=11 v=75
66360 Par ch=9 c=11 v=74
66368 Par ch=9 c=11 v=73
66372 Par ch=9 c=11 v=72
66374 On ch=9 n=35 v=0
66380 Par ch=9 c=11 v=71
66384 Par ch=9 c=11 v=70
66384 On ch=9 n=33 v=47
66392 Par ch=9 c=11 v=69
66396 Par ch=9 c=11 v=68
66404 Par ch=9 c=11 v=67
66408 Par ch=9 c=11 v=66
66416 Par ch=9 c=11 v=65
66420 Par ch=9 c=11 v=64
66422 On ch=9 n=33 v=0
66432 Par ch=9 c=11 v=64
66432 On ch=9 n=29 v=47
66440 Par ch=9 c=11 v=65
66448 Par ch=9 c=11 v=66
66452 Par ch=9 c=11 v=67
66460 Par ch=9 c=11 v=68
66464 Par ch=9 c=11 v=69
66470 On ch=9 n=29 v=0
66472 Par ch=9 c=11 v=70
66476 Par ch=9 c=11 v=71
66480 On ch=9 n=31 v=47
66484 Par ch=9 c=11 v=72
66488 Par ch=9 c=11 v=73
66496 Par ch=9 c=11 v=74
66500 Par ch=9 c=11 v=75
66508 Par ch=9 c=11 v=76
66512 Par ch=9 c=11 v=77
66518 On ch=9 n=31 v=0
66520 Par ch=9 c=11 v=78
66524 Par ch=9 c=11 v=79
66528 On ch=9 n=33 v=47
66532 Par ch=9 c=11 v=80
66536 Par ch=9 c=11 v=81
66544 Par ch=9 c=11 v=82
66548 Par ch=9 c=11 v=83
66556 Par ch=9 c=11 v=84
66560 Par ch=9 c=11 v=85
66566 On ch=9 n=33 v=0
66568 Par ch=9 c=11 v=86
66576 Par ch=9 c=11 v=87
66576 On ch=9 n=34 v=47
66580 Par ch=9 c=11 v=88
66588 Par ch=9 c=11 v=89
66592 Par ch=9 c=11 v=90
66600 Par ch=9 c=11 v=91
66604 Par ch=9 c=11 v=92
66612 Par ch=9 c=11 v=93
66614 On ch=9 n=34 v=0
66616 Par ch=9 c=11 v=94
66624 Par ch=9 c=11 v=95
66624 On ch=9 n=36 v=47
66628 Par ch=9 c=11 v=96
66636 Par ch=9 c=11 v=97
66640 Par ch=9 c=11 v=98
66648 Par ch=9 c=11 v=99
66652 Par ch=9 c=11 v=100
66660 Par ch=9 c=11 v=101
66662 On ch=9 n=36 v=0
66664 Par ch=9 c=11 v=102
66672 Par ch=9 c=11 v=103
66672 On ch=9 n=38 v=47
66676 Par ch=9 c=11 v=104
66684 Par ch=9 c=11 v=105
66688 Par ch=9 c=11 v=106
66696 Par ch=9 c=11 v=107
66704 Par ch=9 c=11 v=108
66708 Par ch=9 c=11 v=109
66710 On ch=9 n=38 v=0
66716 Par ch=9 c=11 v=110
66720 Par ch=9 c=11 v=111
66720 On ch=9 n=40 v=47
66728 Par ch=9 c=11 v=112
66732 Par ch=9 c=11 v=113
66740 Par ch=9 c=11 v=114
66744 Par ch=9 c=11 v=115
66752 Par ch=9 c=11 v=116
66756 Par ch=9 c=11 v=117
66758 On ch=9 n=40 v=0
66764 Par ch=9 c=11 v=118
66768 Par ch=9 c=11 v=119
66768 On ch=9 n=36 v=47
66776 Par ch=9 c=11 v=120
66780 Par ch=9 c=11 v=121
66788 Par ch=9 c=11 v=122
66792 Par ch=9 c=11 v=123
66800 Par ch=9 c=11 v=124
66804 Par ch=9 c=11 v=125
66806 On ch=9 n=36 v=0
66812 Par ch=9 c=11 v=126
66816 Par ch=9 c=11 v=126
66816 On ch=9 n=41 v=47
66824 Par ch=9 c=11 v=125
66828 Par ch=9 c=11 v=124
66832 Par ch=9 c=11 v=123
66836 Par ch=9 c=11 v=122
66840 Par ch=9 c=11 v=121
66844 Par ch=9 c=11 v=120
66852 Par ch=9 c=11 v=119
66854 On ch=9 n=41 v=0
66856 Par ch=9 c=11 v=118
66860 Par ch=9 c=11 v=117
66864 Par ch=9 c=11 v=116
66864 On ch=9 n=40 v=47
66868 Par ch=9 c=11 v=115
66872 Par ch=9 c=11 v=114
66880 Par ch=9 c=11 v=113
66884 Par ch=9 c=11 v=112
66888 Par ch=9 c=11 v=111
66892 Par ch=9 c=11 v=110
66896 Par ch=9 c=11 v=109
66900 Par ch=9 c=11 v=108
66902 On ch=9 n=40 v=0
66908 Par ch=9 c=11 v=107
66912 Par ch=9 c=11 v=106
66912 On ch=9 n=38 v=47
66916 Par ch=9 c=11 v=105
66920 Par ch=9 c=11 v=104
66924 Par ch=9 c=11 v=103
66928 Par ch=9 c=11 v=102
66936 Par ch=9 c=11 v=101
66940 Par ch=9 c=11 v=100
66944 Par ch=9 c=11 v=99
66948 Par ch=9 c=11 v=98
66950 On ch=9 n=38 v=0
66952 Par ch=9 c=11 v=97
66956 Par ch=9 c=11 v=96
66960 Par ch=9 c=11 v=95
66960 On ch=9 n=36 v=47
66968 Par ch=9 c=11 v=94
66972 Par ch=9 c=11 v=93
66976 Par ch=9 c=11 v=92
66980 Par ch=9 c=11 v=91
66984 Par ch=9 c=11 v=90
66988 Par ch=9 c=11 v=89
66996 Par ch=9 c=11 v=88
66998 On ch=9 n=36 v=0
67000 Par ch=9 c=11 v=87
67004 Par ch=9 c=11 v=86
67008 Par ch=9 c=11 v=85
67008 On ch=9 n=34 v=47
67012 Par ch=9 c=11 v=84
67016 Par ch=9 c=11 v=83
67024 Par ch=9 c=11 v=82
67028 Par ch=9 c=11 v=81
67032 Par ch=9 c=11 v=80
67036 Par ch=9 c=11 v=79
67040 Par ch=9 c=11 v=78
67044 Par ch=9 c=11 v=77
67046 On ch=9 n=34 v=0
67052 Par ch=9 c=11 v=76
67056 Par ch=9 c=11 v=75
67056 On ch=9 n=33 v=47
67060 Par ch=9 c=11 v=74
67064 Par ch=9 c=11 v=73
67068 Par ch=9 c=11 v=72
67072 Par ch=9 c=11 v=71
67080 Par ch=9 c=11 v=70
67084 Par ch=9 c=11 v=69
67088 Par ch=9 c=11 v=68
67092 Par ch=9 c=11 v=67
67094 On ch=9 n=33 v=0
67096 Par ch=9 c=11 v=66
67100 Par ch=9 c=11 v=65
67104 Par ch=9 c=11 v=64
67104 On ch=9 n=31 v=47
67142 On ch=9 n=31 v=0
67152 On ch=9 n=29 v=47
67190 On ch=9 n=29 v=0
67200 On ch=9 n=50 v=111
67226 On ch=9 n=50 v=0
67232 On ch=9 n=49 v=111
67258 On ch=9 n=49 v=0
67264 On ch=9 n=47 v=111
67290 On ch=9 n=47 v=0
67296 On ch=9 n=45 v=111
67322 On ch=9 n=45 v=0
67328 On ch=9 n=43 v=111
67354 On ch=9 n=43 v=0
67360 On ch=9 n=42 v=111
67386 On ch=9 n=42 v=0
67392 On ch=9 n=40 v=111
67418 On ch=9 n=40 v=0
67424 On ch=9 n=38 v=111
67450 On ch=9 n=38 v=0
67456 On ch=9 n=36 v=111
67482 On ch=9 n=36 v=0
67488 On ch=9 n=34 v=111
67514 On ch=9 n=34 v=0
67520 On ch=9 n=33 v=111
67546 On ch=9 n=33 v=0
67552 On ch=9 n=31 v=111
67578 On ch=9 n=31 v=0
67584 On ch=9 n=30 v=111
67622 On ch=9 n=30 v=0
67776 On ch=9 n=34 v=111
67814 On ch=9 n=34 v=0
67872 On ch=9 n=33 v=111
67910 On ch=9 n=33 v=0
67968 On ch=9 n=38 v=111
68006 On ch=9 n=38 v=0
68064 On ch=9 n=30 v=111
68102 On ch=9 n=30 v=0
68160 On ch=9 n=34 v=111
68198 On ch=9 n=34 v=0
68256 On ch=9 n=33 v=111
68294 On ch=9 n=33 v=0
68352 On ch=9 n=38 v=111
68390 On ch=9 n=38 v=0
68544 On ch=9 n=50 v=111
68582 On ch=9 n=50 v=0
68736 On ch=9 n=49 v=111
68774 On ch=9 n=49 v=0
69120 On ch=9 n=49 v=111
69158 On ch=9 n=49 v=0
69888 On ch=9 n=49 v=111
69926 On ch=9 n=49 v=0
70656 Par ch=9 c=11 v=64
70656 On ch=9 n=37 v=95
70680 Par ch=9 c=11 v=63
70694 On ch=9 n=37 v=0
70704 Par ch=9 c=11 v=62
70724 Par ch=9 c=11 v=61
70728 On ch=9 n=36 v=95
70747 On ch=9 n=36 v=0
70748 Par ch=9 c=11 v=60
70752 On ch=9 n=35 v=95
70772 Par ch=9 c=11 v=59
70790 On ch=9 n=35 v=0
70792 Par ch=9 c=11 v=58
70816 Par ch=9 c=11 v=57
70824 On ch=9 n=34 v=95
70840 Par ch=9 c=11 v=56
70843 On ch=9 n=34 v=0
70848 On ch=9 n=33 v=95
70860 Par ch=9 c=11 v=55
70884 Par ch=9 c=11 v=54
70886 On ch=9 n=33 v=0
70908 Par ch=9 c=11 v=53
70920 On ch=9 n=32 v=95
70928 Par ch=9 c=11 v=52
70939 On ch=9 n=32 v=0
70944 On ch=9 n=30 v=95
70952 Par ch=9 c=11 v=51
70976 Par ch=9 c=11 v=50
70982 On ch=9 n=30 v=0
70996 Par ch=9 c=11 v=49
71016 On ch=9 n=28 v=95
71020 Par ch=9 c=11 v=48
71035 On ch=9 n=28 v=0
71040 Par ch=9 c=11 v=64
71040 On ch=9 n=37 v=95
71064 Par ch=9 c=11 v=63
71078 On ch=9 n=37 v=0
71088 Par ch=9 c=11 v=62
71108 Par ch=9 c=11 v=61
71112 On ch=9 n=36 v=95
71131 On ch=9 n=36 v=0
71132 Par ch=9 c=11 v=60
71136 On ch=9 n=35 v=95
71156 Par ch=9 c=11 v=59
71174 On ch=9 n=35 v=0
71176 Par ch=9 c=11 v=58
71200 Par ch=9 c=11 v=57
71208 On ch=9 n=34 v=95
71224 Par ch=9 c=11 v=56
71227 On ch=9 n=34 v=0
71232 On ch=9 n=33 v=95
71244 Par ch=9 c=11 v=55
71268 Par ch=9 c=11 v=54
71270 On ch=9 n=33 v=0
71292 Par ch=9 c=11 v=53
71304 On ch=9 n=32 v=95
71312 Par ch=9 c=11 v=52
71323 On ch=9 n=32 v=0
71328 On ch=9 n=30 v=95
71336 Par ch=9 c=11 v=51
71360 Par ch=9 c=11 v=50
71366 On ch=9 n=30 v=0
71380 Par ch=9 c=11 v=49
71400 On ch=9 n=28 v=95
71404 Par ch=9 c=11 v=48
71419 On ch=9 n=28 v=0
71424 Par ch=9 c=11 v=64
71424 On ch=9 n=37 v=95
71450 On ch=9 n=37 v=0
71456 On ch=9 n=33 v=47
71482 On ch=9 n=33 v=0
71488 On ch=9 n=40 v=47
71514 On ch=9 n=40 v=0
71520 On ch=9 n=35 v=47
71546 On ch=9 n=35 v=0
71552 On ch=9 n=32 v=47
71578 On ch=9 n=32 v=0
71584 On ch=9 n=40 v=47
71610 On ch=9 n=40 v=0
71616 On ch=9 n=33 v=47
71642 On ch=9 n=33 v=0
71648 On ch=9 n=30 v=47
71674 On ch=9 n=30 v=0
71680 On ch=9 n=38 v=47
71706 On ch=9 n=38 v=0
71712 On ch=9 n=32 v=47
71738 On ch=9 n=32 v=0
71744 On ch=9 n=25 v=47
71770 On ch=9 n=25 v=0
71776 On ch=9 n=37 v=47
71802 On ch=9 n=37 v=0
71808 On ch=9 n=38 v=95
71834 On ch=9 n=38 v=0
71840 On ch=9 n=35 v=47
71866 On ch=9 n=35 v=0
71872 On ch=9 n=44 v=47
71898 On ch=9 n=44 v=0
71904 On ch=9 n=37 v=47
71930 On ch=9 n=37 v=0
71936 On ch=9 n=33 v=47
71962 On ch=9 n=33 v=0
71968 On ch=9 n=42 v=47
71994 On ch=9 n=42 v=0
72000 On ch=9 n=35 v=47
72026 On ch=9 n=35 v=0
72032 On ch=9 n=32 v=47
72058 On ch=9 n=32 v=0
72064 On ch=9 n=40 v=47
72090 On ch=9 n=40 v=0
72096 On ch=9 n=33 v=47
72122 On ch=9 n=33 v=0
72128 On ch=9 n=30 v=47
72154 On ch=9 n=30 v=0
72160 On ch=9 n=38 v=47
72186 On ch=9 n=38 v=0
72192 On ch=9 n=40 v=95
72218 On ch=9 n=40 v=0
72224 On ch=9 n=37 v=47
72250 On ch=9 n=37 v=0
72256 On ch=9 n=45 v=47
72282 On ch=9 n=45 v=0
72288 On ch=9 n=38 v=47
72314 On ch=9 n=38 v=0
72320 On ch=9 n=35 v=47
72346 On ch=9 n=35 v=0
72352 On ch=9 n=44 v=47
72378 On ch=9 n=44 v=0
72384 On ch=9 n=42 v=95
72410 On ch=9 n=42 v=0
72416 On ch=9 n=38 v=47
72442 On ch=9 n=38 v=0
72448 On ch=9 n=47 v=47
72474 On ch=9 n=47 v=0
72480 On ch=9 n=40 v=47
72506 On ch=9 n=40 v=0
72512 On ch=9 n=37 v=47
72538 On ch=9 n=37 v=0
72544 On ch=9 n=45 v=47
72570 On ch=9 n=45 v=0
72576 On ch=9 n=26 v=31
74496 Par ch=9 c=11 v=64
74512 Par ch=9 c=11 v=65
74524 Par ch=9 c=11 v=66
74536 Par ch=9 c=11 v=67
74548 Par ch=9 c=11 v=68
74560 Par ch=9 c=11 v=69
74572 Par ch=9 c=11 v=70
74584 Par ch=9 c=11 v=71
74596 Par ch=9 c=11 v=72
74608 Par ch=9 c=11 v=73
74620 Par ch=9 c=11 v=74
74632 Par ch=9 c=11 v=75
74644 Par ch=9 c=11 v=76
74656 Par ch=9 c=11 v=77
74668 Par ch=9 c=11 v=78
74680 Par ch=9 c=11 v=79
74692 Par ch=9 c=11 v=80
74704 Par ch=9 c=11 v=81
74716 Par ch=9 c=11 v=82
74728 Par ch=9 c=11 v=83
74740 Par ch=9 c=11 v=84
74752 Par ch=9 c=11 v=85
74768 Par ch=9 c=11 v=86
74780 Par ch=9 c=11 v=87
74792 Par ch=9 c=11 v=88
74804 Par ch=9 c=11 v=89
74816 Par ch=9 c=11 v=90
74828 Par ch=9 c=11 v=91
74840 Par ch=9 c=11 v=92
74852 Par ch=9 c=11 v=93
74864 Par ch=9 c=11 v=94
74876 Par ch=9 c=11 v=95
74880 On ch=9 n=26 v=31
74880 On ch=9 n=26 v=31
74880 On ch=9 n=26 v=31
74888 Par ch=9 c=11 v=96
74900 Par ch=9 c=11 v=97
74912 Par ch=9 c=11 v=98
74924 Par ch=9 c=11 v=99
74936 Par ch=9 c=11 v=100
74948 Par ch=9 c=11 v=101
74960 Par ch=9 c=11 v=102
74972 Par ch=9 c=11 v=103
74984 Par ch=9 c=11 v=104
74996 Par ch=9 c=11 v=105
75008 Par ch=9 c=11 v=106
75024 Par ch=9 c=11 v=107
75036 Par ch=9 c=11 v=108
75048 Par ch=9 c=11 v=109
75060 Par ch=9 c=11 v=110
75072 Par ch=9 c=11 v=111
75084 Par ch=9 c=11 v=112
75096 Par ch=9 c=11 v=113
75108 Par ch=9 c=11 v=114
75120 Par ch=9 c=11 v=115
75132 Par ch=9 c=11 v=116
75144 Par ch=9 c=11 v=117
75156 Par ch=9 c=11 v=118
75168 Par ch=9 c=11 v=119
75180 Par ch=9 c=11 v=120
75187 On ch=9 n=26 v=0
75187 On ch=9 n=26 v=0
75187 On ch=9 n=26 v=0
75187 On ch=9 n=26 v=0
75192 Par ch=9 c=11 v=121
75204 Par ch=9 c=11 v=122
75216 Par ch=9 c=11 v=123
75228 Par ch=9 c=11 v=124
75240 Par ch=9 c=11 v=125
75252 Par ch=9 c=11 v=126
75360 Par ch=9 c=11 v=64
75360 On ch=9 n=38 v=100
75482 On ch=9 n=38 v=0
75488 On ch=9 n=38 v=100
75514 On ch=9 n=38 v=0
75520 On ch=9 n=38 v=100
75546 On ch=9 n=38 v=0
75552 On ch=9 n=38 v=100
75578 On ch=9 n=38 v=0
75584 On ch=9 n=38 v=100
75610 On ch=9 n=38 v=0
75616 On ch=9 n=38 v=100
75642 On ch=9 n=38 v=0
75648 On ch=9 n=38 v=100
75686 On ch=9 n=38 v=0
75720 On ch=9 n=38 v=100
75739 On ch=9 n=38 v=0
75744 On ch=9 n=38 v=100
75782 On ch=9 n=38 v=0
75816 On ch=9 n=38 v=100
75835 On ch=9 n=38 v=0
75840 On ch=9 n=38 v=100
75878 On ch=9 n=38 v=0
75912 On ch=9 n=38 v=100
75931 On ch=9 n=38 v=0
75936 On ch=9 n=38 v=100
75974 On ch=9 n=38 v=0
76008 On ch=9 n=38 v=100
76027 On ch=9 n=38 v=0
76032 On ch=9 n=50 v=100
76053 On ch=9 n=50 v=0
76064 On ch=9 n=49 v=100
76085 On ch=9 n=49 v=0
76096 On ch=9 n=48 v=100
76117 On ch=9 n=48 v=0
76128 On ch=9 n=44 v=100
76149 On ch=9 n=44 v=0
76160 On ch=9 n=43 v=100
76181 On ch=9 n=43 v=0
76192 On ch=9 n=42 v=100
76213 On ch=9 n=42 v=0
76224 On ch=9 n=50 v=100
76245 On ch=9 n=50 v=0
76256 On ch=9 n=49 v=100
76277 On ch=9 n=49 v=0
76288 On ch=9 n=48 v=100
76309 On ch=9 n=48 v=0
76320 On ch=9 n=44 v=100
76341 On ch=9 n=44 v=0
76352 On ch=9 n=43 v=100
76373 On ch=9 n=43 v=0
76384 On ch=9 n=42 v=100
76405 On ch=9 n=42 v=0
76416 On ch=9 n=50 v=100
76437 On ch=9 n=50 v=0
76448 On ch=9 n=49 v=100
76469 On ch=9 n=49 v=0
76480 On ch=9 n=48 v=100
76501 On ch=9 n=48 v=0
76512 On ch=9 n=44 v=100
76533 On ch=9 n=44 v=0
76544 On ch=9 n=43 v=100
76565 On ch=9 n=43 v=0
76576 On ch=9 n=42 v=100
76597 On ch=9 n=42 v=0
76608 On ch=9 n=38 v=100
76629 On ch=9 n=38 v=0
76640 On ch=9 n=37 v=100
76661 On ch=9 n=37 v=0
76672 On ch=9 n=36 v=100
76693 On ch=9 n=36 v=0
76704 On ch=9 n=32 v=100
76725 On ch=9 n=32 v=0
76736 On ch=9 n=31 v=100
76757 On ch=9 n=31 v=0
76768 On ch=9 n=30 v=100
76789 On ch=9 n=30 v=0
76800 Par ch=9 c=0 v=0
76800 Par ch=9 c=32 v=0
76800 PrCh ch=9 p=44
76800 On ch=9 n=37 v=127
77491 On ch=9 n=37 v=0
77568 Par ch=9 c=0 v=0
77568 Par ch=9 c=32 v=0
77568 PrCh ch=9 p=48
77568 On ch=9 n=37 v=127
77875 On ch=9 n=37 v=0
77952 Par ch=9 c=11 v=64
77952 On ch=9 n=37 v=127
77976 Par ch=9 c=11 v=63
78000 Par ch=9 c=11 v=62
78024 Par ch=9 c=11 v=61
78048 Par ch=9 c=11 v=60
78072 Par ch=9 c=11 v=59
78096 Par ch=9 c=11 v=58
78120 Par ch=9 c=11 v=57
78144 Par ch=9 c=11 v=56
78164 Par ch=9 c=11 v=55
78188 Par ch=9 c=11 v=54
78212 Par ch=9 c=11 v=53
78236 Par ch=9 c=11 v=52
78259 On ch=9 n=37 v=0
78260 Par ch=9 c=11 v=51
78284 Par ch=9 c=11 v=50
78308 Par ch=9 c=11 v=49
78332 Par ch=9 c=11 v=48
78336 On ch=9 n=37 v=127
78352 Par ch=9 c=11 v=47
78376 Par ch=9 c=11 v=46
78400 Par ch=9 c=11 v=45
78424 Par ch=9 c=11 v=44
78448 Par ch=9 c=11 v=43
78472 Par ch=9 c=11 v=42
78496 Par ch=9 c=11 v=41
78520 Par ch=9 c=11 v=40
78540 Par ch=9 c=11 v=39
78564 Par ch=9 c=11 v=38
78588 Par ch=9 c=11 v=37
78612 Par ch=9 c=11 v=36
78636 Par ch=9 c=11 v=35
78660 Par ch=9 c=11 v=34
78684 Par ch=9 c=11 v=33
78708 Par ch=9 c=11 v=32
78728 Par ch=9 c=11 v=31
78752 Par ch=9 c=11 v=30
78776 Par ch=9 c=11 v=29
78800 Par ch=9 c=11 v=28
78824 Par ch=9 c=11 v=27
78848 Par ch=9 c=11 v=26
78872 Par ch=9 c=11 v=25
78896 Par ch=9 c=11 v=24
78916 Par ch=9 c=11 v=23
78940 Par ch=9 c=11 v=22
78964 Par ch=9 c=11 v=21
78988 Par ch=9 c=11 v=20
79012 Par ch=9 c=11 v=19
79027 On ch=9 n=37 v=0
79036 Par ch=9 c=11 v=18
79060 Par ch=9 c=11 v=17
79084 Par ch=9 c=11 v=16
79104 Par ch=9 c=0 v=0
79104 Par ch=9 c=32 v=0
79104 PrCh ch=9 p=45
79104 Par ch=9 c=11 v=64
79104 On ch=9 n=37 v=47
79181 On ch=9 n=37 v=0
79488 Par ch=9 c=0 v=0
79488 Par ch=9 c=32 v=0
79488 PrCh ch=9 p=48
85152 On ch=9 n=51 v=31
85183 On ch=9 n=51 v=0
85224 On ch=9 n=53 v=31
85240 On ch=9 n=53 v=0
85248 On ch=9 n=53 v=31
85296 On ch=9 n=53 v=0
85296 On ch=9 n=54 v=31
85327 On ch=9 n=54 v=0
85344 On ch=9 n=46 v=31
85375 On ch=9 n=46 v=0
85416 On ch=9 n=47 v=31
85432 On ch=9 n=47 v=0
85440 On ch=9 n=49 v=31
85502 On ch=9 n=49 v=0
85536 On ch=9 n=51 v=31
85598 On ch=9 n=51 v=0
85632 On ch=9 n=47 v=31
86323 On ch=9 n=47 v=0
86400 Par ch=9 c=0 v=0
86400 Par ch=9 c=32 v=0
86400 PrCh ch=9 p=45
86400 On ch=9 n=51 v=47
86477 On ch=9 n=51 v=0
86496 On ch=9 n=48 v=47
86573 On ch=9 n=48 v=0
86592 On ch=9 n=49 v=47
86669 On ch=9 n=49 v=0
86688 On ch=9 n=42 v=47
86765 On ch=9 n=42 v=0
86784 On ch=9 n=54 v=47
86784 On ch=9 n=47 v=47
86861 On ch=9 n=47 v=0
86861 On ch=9 n=54 v=0
87552 On ch=9 n=47 v=47
87552 On ch=9 n=54 v=47
87590 On ch=9 n=54 v=0
87590 On ch=9 n=47 v=0
88608 Par ch=9 c=0 v=0
88608 Par ch=9 c=32 v=0
88608 PrCh ch=9 p=48
88608 On ch=9 n=30 v=31
88646 On ch=9 n=30 v=0
88704 On ch=9 n=39 v=31
88800 On ch=9 n=39 v=0
88800 On ch=9 n=37 v=31
88831 On ch=9 n=37 v=0
88872 On ch=9 n=35 v=31
88888 On ch=9 n=35 v=0
88896 On ch=9 n=35 v=31
88992 On ch=9 n=35 v=0
88992 On ch=9 n=30 v=31
89023 On ch=9 n=30 v=0
89064 On ch=9 n=27 v=31
89080 On ch=9 n=27 v=0
89088 On ch=9 n=27 v=31
89119 On ch=9 n=27 v=0
89856 Par ch=9 c=0 v=0
89856 Par ch=9 c=32 v=0
89856 PrCh ch=9 p=45
89856 On ch=9 n=35 v=47
89856 On ch=9 n=42 v=47
89933 On ch=9 n=42 v=0
89933 On ch=9 n=35 v=0
90240 On ch=9 n=35 v=31
90240 On ch=9 n=42 v=31
90317 On ch=9 n=42 v=0
90317 On ch=9 n=35 v=0
90624 On ch=9 n=35 v=15
90624 On ch=9 n=42 v=15
90701 On ch=9 n=42 v=0
90701 On ch=9 n=35 v=0
91008 Par ch=9 c=0 v=0
91008 Par ch=9 c=32 v=0
91008 PrCh ch=9 p=48
93696 On ch=9 n=51 v=127
93715 On ch=9 n=51 v=0
93720 On ch=9 n=50 v=127
93739 On ch=9 n=50 v=0
93744 On ch=9 n=51 v=127
93763 On ch=9 n=51 v=0
93768 On ch=9 n=53 v=127
93787 On ch=9 n=53 v=0
93792 On ch=9 n=54 v=127
93830 On ch=9 n=54 v=0
94656 Par ch=9 c=11 v=64
94656 Par ch=9 c=0 v=0
94656 Par ch=9 c=32 v=0
94656 PrCh ch=9 p=44
94656 On ch=9 n=34 v=111
94660 Par ch=9 c=11 v=63
94664 Par ch=9 c=11 v=62
94668 Par ch=9 c=11 v=61
94672 Par ch=9 c=11 v=60
94676 Par ch=9 c=11 v=59
94680 Par ch=9 c=11 v=58
94684 Par ch=9 c=11 v=57
94688 Par ch=9 c=11 v=56
94692 Par ch=9 c=11 v=55
94696 Par ch=9 c=11 v=54
94700 Par ch=9 c=11 v=53
94704 Par ch=9 c=11 v=52
94708 Par ch=9 c=11 v=51
94712 Par ch=9 c=11 v=50
94716 Par ch=9 c=11 v=49
94720 Par ch=9 c=11 v=48
94724 Par ch=9 c=11 v=47
94728 Par ch=9 c=11 v=46
94732 Par ch=9 c=11 v=45
94736 Par ch=9 c=11 v=44
94740 Par ch=9 c=11 v=43
94744 Par ch=9 c=11 v=42
94748 Par ch=9 c=11 v=41
94752 Par ch=9 c=11 v=40
94756 Par ch=9 c=11 v=39
94760 Par ch=9 c=11 v=38
94764 Par ch=9 c=11 v=37
94768 Par ch=9 c=11 v=36
94772 Par ch=9 c=11 v=35
94776 Par ch=9 c=11 v=34
94780 Par ch=9 c=11 v=33
94784 Par ch=9 c=11 v=32
94788 Par ch=9 c=11 v=31
94792 Par ch=9 c=11 v=30
94796 Par ch=9 c=11 v=29
94800 Par ch=9 c=11 v=28
94804 Par ch=9 c=11 v=27
94808 Par ch=9 c=11 v=26
94812 Par ch=9 c=11 v=25
94816 Par ch=9 c=11 v=24
94820 Par ch=9 c=11 v=23
94824 Par ch=9 c=11 v=22
94828 Par ch=9 c=11 v=21
94832 Par ch=9 c=11 v=20
94836 Par ch=9 c=11 v=19
94840 Par ch=9 c=11 v=18
94844 Par ch=9 c=11 v=17
95155 On ch=9 n=34 v=0
95328 Par ch=9 c=11 v=64
95328 On ch=9 n=51 v=127
95348 Par ch=9 c=11 v=63
95364 Par ch=9 c=11 v=62
95380 Par ch=9 c=11 v=61
95396 Par ch=9 c=11 v=60
95416 Par ch=9 c=11 v=59
95432 Par ch=9 c=11 v=58
95448 Par ch=9 c=11 v=57
95464 Par ch=9 c=11 v=56
95484 Par ch=9 c=11 v=55
95500 Par ch=9 c=11 v=54
95516 Par ch=9 c=11 v=53
95532 Par ch=9 c=11 v=52
95552 Par ch=9 c=11 v=51
95558 On ch=9 n=51 v=0
95568 Par ch=9 c=11 v=50
95584 Par ch=9 c=11 v=49
95600 Par ch=9 c=11 v=48
95616 Par ch=9 c=11 v=64
95616 On ch=9 n=51 v=47
95693 On ch=9 n=51 v=0
95712 On ch=9 n=50 v=47
95789 On ch=9 n=50 v=0
95808 On ch=9 n=49 v=47
95885 On ch=9 n=49 v=0
95904 On ch=9 n=48 v=47
95981 On ch=9 n=48 v=0
96000 Par ch=9 c=11 v=64
96000 On ch=9 n=47 v=47
96048 Par ch=9 c=11 v=63
96092 Par ch=9 c=11 v=62
96115 On ch=9 n=47 v=0
96128 On ch=9 n=46 v=47
96136 Par ch=9 c=11 v=61
96184 Par ch=9 c=11 v=60
96228 Par ch=9 c=11 v=59
96243 On ch=9 n=46 v=0
96256 On ch=9 n=45 v=47
96272 Par ch=9 c=11 v=58
96320 Par ch=9 c=11 v=57
96364 Par ch=9 c=11 v=56
96371 On ch=9 n=45 v=0
96384 On ch=9 n=44 v=47
96408 Par ch=9 c=11 v=55
96452 Par ch=9 c=11 v=54
96500 Par ch=9 c=11 v=53
96538 On ch=9 n=44 v=0
96544 Par ch=9 c=11 v=52
96576 On ch=9 n=43 v=47
96588 Par ch=9 c=11 v=51
96636 Par ch=9 c=11 v=50
96680 Par ch=9 c=11 v=49
96724 Par ch=9 c=11 v=48
96730 On ch=9 n=43 v=0
97152 Par ch=9 c=0 v=0
97152 Par ch=9 c=32 v=0
97152 PrCh ch=9 p=48
97152 Par ch=9 c=11 v=64
97536 On ch=9 n=27 v=31
97567 On ch=9 n=27 v=0
97620 On ch=9 n=29 v=31
97632 On ch=9 n=29 v=0
97632 On ch=9 n=30 v=31
97663 On ch=9 n=30 v=0
97716 On ch=9 n=32 v=31
97728 On ch=9 n=32 v=0
97728 On ch=9 n=34 v=31
97759 On ch=9 n=34 v=0
97812 On ch=9 n=36 v=31
97824 On ch=9 n=36 v=0
97824 On ch=9 n=38 v=31
97855 On ch=9 n=38 v=0
97908 On ch=9 n=34 v=31
97920 On ch=9 n=34 v=0
97920 On ch=9 n=39 v=31
97951 On ch=9 n=39 v=0
98004 On ch=9 n=42 v=31
98016 On ch=9 n=42 v=0
98016 On ch=9 n=41 v=31
98047 On ch=9 n=41 v=0
98100 On ch=9 n=39 v=31
98112 On ch=9 n=39 v=0
98112 On ch=9 n=37 v=31
98143 On ch=9 n=37 v=0
98196 On ch=9 n=35 v=31
98208 On ch=9 n=35 v=0
98208 On ch=9 n=34 v=31
98239 On ch=9 n=34 v=0
98292 On ch=9 n=33 v=31
98304 On ch=9 n=33 v=0
98304 On ch=9 n=34 v=31
98335 On ch=9 n=34 v=0
98388 On ch=9 n=30 v=31
98400 On ch=9 n=30 v=0
98400 On ch=9 n=34 v=31
98431 On ch=9 n=34 v=0
98484 On ch=9 n=30 v=31
98496 On ch=9 n=30 v=0
98496 On ch=9 n=34 v=31
98527 On ch=9 n=34 v=0
98580 On ch=9 n=30 v=31
98592 On ch=9 n=30 v=0
98592 On ch=9 n=32 v=31
98616 On ch=9 n=32 v=0
98616 On ch=9 n=30 v=31
98640 On ch=9 n=30 v=0
98640 On ch=9 n=29 v=31
98664 On ch=9 n=29 v=0
98664 On ch=9 n=30 v=31
98688 On ch=9 n=30 v=0
98688 On ch=9 n=34 v=31
98719 On ch=9 n=34 v=0
98772 On ch=9 n=30 v=31
98784 On ch=9 n=30 v=0
98784 On ch=9 n=34 v=31
98815 On ch=9 n=34 v=0
98868 On ch=9 n=30 v=31
98880 On ch=9 n=30 v=0
98880 On ch=9 n=34 v=31
98911 On ch=9 n=34 v=0
98964 On ch=9 n=30 v=31
98976 On ch=9 n=30 v=0
98976 On ch=9 n=35 v=31
99000 On ch=9 n=35 v=0
99000 On ch=9 n=34 v=31
99024 On ch=9 n=34 v=0
99024 On ch=9 n=32 v=31
99048 On ch=9 n=32 v=0
99048 On ch=9 n=30 v=31
99072 On ch=9 n=30 v=0
99072 On ch=9 n=34 v=31
99103 On ch=9 n=34 v=0
99156 On ch=9 n=33 v=31
99168 On ch=9 n=33 v=0
99168 On ch=9 n=32 v=31
99199 On ch=9 n=32 v=0
99252 On ch=9 n=30 v=31
99264 On ch=9 n=30 v=0
99264 On ch=9 n=29 v=31
99295 On ch=9 n=29 v=0
99348 On ch=9 n=26 v=31
99360 On ch=9 n=26 v=0
99360 On ch=9 n=27 v=31
99391 On ch=9 n=27 v=0
99444 On ch=9 n=30 v=31
99456 On ch=9 n=30 v=0
99456 On ch=9 n=35 v=31
99487 On ch=9 n=35 v=0
99540 On ch=9 n=34 v=31
99552 On ch=9 n=34 v=0
99552 On ch=9 n=32 v=31
99583 On ch=9 n=32 v=0
99636 On ch=9 n=30 v=31
99648 On ch=9 n=30 v=0
99648 On ch=9 n=29 v=31
99679 On ch=9 n=29 v=0
99732 On ch=9 n=32 v=31
99744 On ch=9 n=32 v=0
99744 On ch=9 n=35 v=31
99775 On ch=9 n=35 v=0
99828 On ch=9 n=39 v=31
99840 On ch=9 n=39 v=0
99840 On ch=9 n=38 v=31
99871 On ch=9 n=38 v=0
99924 On ch=9 n=35 v=31
99936 On ch=9 n=35 v=0
99936 On ch=9 n=34 v=31
99967 On ch=9 n=34 v=0
100020 On ch=9 n=37 v=31
100032 On ch=9 n=37 v=0
100032 On ch=9 n=36 v=31
100063 On ch=9 n=36 v=0
100116 On ch=9 n=33 v=31
100128 On ch=9 n=33 v=0
100128 On ch=9 n=32 v=31
100159 On ch=9 n=32 v=0
100212 On ch=9 n=35 v=31
100224 On ch=9 n=35 v=0
100224 On ch=9 n=44 v=31
100255 On ch=9 n=44 v=0
100308 On ch=9 n=43 v=31
100320 On ch=9 n=43 v=0
100320 On ch=9 n=42 v=31
100351 On ch=9 n=42 v=0
100404 On ch=9 n=39 v=31
100416 On ch=9 n=39 v=0
100416 On ch=9 n=47 v=31
100447 On ch=9 n=47 v=0
100500 On ch=9 n=45 v=31
100512 On ch=9 n=45 v=0
100512 On ch=9 n=46 v=31
100543 On ch=9 n=46 v=0
100596 On ch=9 n=34 v=31
100608 On ch=9 n=34 v=0
100608 On ch=9 n=27 v=31
100639 On ch=9 n=27 v=0
100680 On ch=9 n=29 v=31
100704 On ch=9 n=29 v=0
100704 On ch=9 n=30 v=31
100735 On ch=9 n=30 v=0
100776 On ch=9 n=32 v=31
100800 On ch=9 n=32 v=0
100800 On ch=9 n=34 v=31
100831 On ch=9 n=34 v=0
100872 On ch=9 n=36 v=31
100896 On ch=9 n=36 v=0
100896 On ch=9 n=38 v=31
100927 On ch=9 n=38 v=0
100968 On ch=9 n=34 v=31
100992 On ch=9 n=34 v=0
100992 On ch=9 n=39 v=31
101023 On ch=9 n=39 v=0
101064 On ch=9 n=37 v=31
101088 On ch=9 n=37 v=0
101088 On ch=9 n=35 v=31
101119 On ch=9 n=35 v=0
101160 On ch=9 n=34 v=31
101184 On ch=9 n=34 v=0
101184 On ch=9 n=32 v=31
101215 On ch=9 n=32 v=0
101256 On ch=9 n=30 v=31
101280 On ch=9 n=30 v=0
101280 On ch=9 n=28 v=31
101311 On ch=9 n=28 v=0
101352 On ch=9 n=27 v=31
101376 On ch=9 n=27 v=0
101376 On ch=9 n=28 v=31
101407 On ch=9 n=28 v=0
101448 On ch=9 n=30 v=31
101472 On ch=9 n=30 v=0
101472 On ch=9 n=32 v=31
101503 On ch=9 n=32 v=0
101544 On ch=9 n=34 v=31
101568 On ch=9 n=34 v=0
101568 On ch=9 n=35 v=31
101599 On ch=9 n=35 v=0
101640 On ch=9 n=37 v=31
101664 On ch=9 n=37 v=0
101664 On ch=9 n=39 v=31
101695 On ch=9 n=39 v=0
101736 On ch=9 n=35 v=31
101760 On ch=9 n=35 v=0
101760 On ch=9 n=41 v=31
101791 On ch=9 n=41 v=0
101832 On ch=9 n=39 v=31
101856 On ch=9 n=39 v=0
101856 On ch=9 n=37 v=31
101887 On ch=9 n=37 v=0
101928 On ch=9 n=36 v=31
101952 On ch=9 n=36 v=0
101952 On ch=9 n=34 v=31
101983 On ch=9 n=34 v=0
102024 On ch=9 n=32 v=31
102048 On ch=9 n=32 v=0
102048 On ch=9 n=30 v=31
102079 On ch=9 n=30 v=0
102120 On ch=9 n=29 v=31
102140 On ch=9 n=29 v=0
102144 On ch=9 n=39 v=31
102175 On ch=9 n=39 v=0
102216 On ch=9 n=37 v=31
102240 On ch=9 n=37 v=0
102240 On ch=9 n=36 v=31
102271 On ch=9 n=36 v=0
102312 On ch=9 n=34 v=31
102336 On ch=9 n=34 v=0
102336 On ch=9 n=33 v=31
102367 On ch=9 n=33 v=0
102408 On ch=9 n=29 v=31
102432 On ch=9 n=29 v=0
102432 On ch=9 n=31 v=31
102463 On ch=9 n=31 v=0
102504 On ch=9 n=32 v=31
102528 On ch=9 n=32 v=0
102528 On ch=9 n=34 v=31
102559 On ch=9 n=34 v=0
102600 On ch=9 n=41 v=31
102624 On ch=9 n=41 v=0
102624 On ch=9 n=39 v=31
102655 On ch=9 n=39 v=0
102696 On ch=9 n=37 v=31
102720 On ch=9 n=37 v=0
102720 On ch=9 n=36 v=31
102751 On ch=9 n=36 v=0
102792 On ch=9 n=33 v=31
102816 On ch=9 n=33 v=0
102816 On ch=9 n=34 v=31
102847 On ch=9 n=34 v=0
102888 On ch=9 n=36 v=31
102912 On ch=9 n=36 v=0
102912 On ch=9 n=37 v=31
102943 On ch=9 n=37 v=0
102984 On ch=9 n=41 v=31
103008 On ch=9 n=41 v=0
103008 On ch=9 n=46 v=31
103039 On ch=9 n=46 v=0
103080 On ch=9 n=44 v=31
103104 On ch=9 n=44 v=0
103104 On ch=9 n=42 v=31
103135 On ch=9 n=42 v=0
103176 On ch=9 n=41 v=31
103200 On ch=9 n=41 v=0
103200 On ch=9 n=40 v=31
103231 On ch=9 n=40 v=0
103272 On ch=9 n=36 v=31
103296 On ch=9 n=36 v=0
103296 On ch=9 n=41 v=31
103327 On ch=9 n=41 v=0
103368 On ch=9 n=39 v=31
103392 On ch=9 n=39 v=0
103392 On ch=9 n=38 v=31
103423 On ch=9 n=38 v=0
103464 On ch=9 n=34 v=31
103488 On ch=9 n=34 v=0
103488 On ch=9 n=35 v=31
103519 On ch=9 n=35 v=0
103560 On ch=9 n=30 v=31
103584 On ch=9 n=30 v=0
103584 On ch=9 n=32 v=31
103615 On ch=9 n=32 v=0
103656 On ch=9 n=34 v=31
103680 On ch=9 n=34 v=0
103680 On ch=9 n=27 v=31
103711 On ch=9 n=27 v=0
103752 On ch=9 n=29 v=31
103776 On ch=9 n=29 v=0
103776 On ch=9 n=30 v=31
103807 On ch=9 n=30 v=0
103848 On ch=9 n=32 v=31
103872 On ch=9 n=32 v=0
103872 On ch=9 n=34 v=31
103903 On ch=9 n=34 v=0
103944 On ch=9 n=36 v=31
103968 On ch=9 n=36 v=0
103968 On ch=9 n=37 v=31
103999 On ch=9 n=37 v=0
104040 On ch=9 n=34 v=31
104064 On ch=9 n=34 v=0
104064 On ch=9 n=35 v=31
104095 On ch=9 n=35 v=0
104136 On ch=9 n=37 v=31
104160 On ch=9 n=37 v=0
104160 On ch=9 n=39 v=31
104191 On ch=9 n=39 v=0
104232 On ch=9 n=41 v=31
104256 On ch=9 n=41 v=0
104256 On ch=9 n=43 v=31
104287 On ch=9 n=43 v=0
104328 On ch=9 n=44 v=31
104352 On ch=9 n=44 v=0
104352 On ch=9 n=46 v=31
104383 On ch=9 n=46 v=0
104448 On ch=9 n=32 v=31
104479 On ch=9 n=32 v=0
104520 On ch=9 n=34 v=31
104544 On ch=9 n=34 v=0
104544 On ch=9 n=35 v=31
104575 On ch=9 n=35 v=0
104616 On ch=9 n=37 v=31
104640 On ch=9 n=37 v=0
104640 On ch=9 n=39 v=31
104671 On ch=9 n=39 v=0
104712 On ch=9 n=40 v=31
104736 On ch=9 n=40 v=0
104736 On ch=9 n=42 v=31
104767 On ch=9 n=42 v=0
104808 On ch=9 n=44 v=31
104832 On ch=9 n=44 v=0
104832 On ch=9 n=40 v=31
104863 On ch=9 n=40 v=0
104904 On ch=9 n=42 v=31
104928 On ch=9 n=42 v=0
104928 On ch=9 n=44 v=31
104959 On ch=9 n=44 v=0
105000 On ch=9 n=46 v=31
105024 On ch=9 n=46 v=0
105024 On ch=9 n=47 v=31
105055 On ch=9 n=47 v=0
105096 On ch=9 n=49 v=31
105120 On ch=9 n=49 v=0
105120 On ch=9 n=51 v=31
105151 On ch=9 n=51 v=0
105216 Par ch=9 c=11 v=64
105216 On ch=9 n=26 v=47
105236 Par ch=9 c=11 v=65
105247 On ch=9 n=26 v=0
105256 Par ch=9 c=11 v=66
105272 Par ch=9 c=11 v=67
105288 On ch=9 n=27 v=47
105292 Par ch=9 c=11 v=68
105308 Par ch=9 c=11 v=69
105312 On ch=9 n=27 v=0
105312 On ch=9 n=29 v=47
105328 Par ch=9 c=11 v=70
105343 On ch=9 n=29 v=0
105344 Par ch=9 c=11 v=71
105364 Par ch=9 c=11 v=72
105384 Par ch=9 c=11 v=73
105384 On ch=9 n=30 v=47
105400 Par ch=9 c=11 v=74
105408 On ch=9 n=30 v=0
105408 On ch=9 n=32 v=47
105420 Par ch=9 c=11 v=75
105436 Par ch=9 c=11 v=76
105439 On ch=9 n=32 v=0
105456 Par ch=9 c=11 v=77
105472 Par ch=9 c=11 v=78
105480 On ch=9 n=34 v=47
105492 Par ch=9 c=11 v=79
105504 On ch=9 n=34 v=0
105504 On ch=9 n=35 v=47
105512 Par ch=9 c=11 v=80
105528 Par ch=9 c=11 v=81
105535 On ch=9 n=35 v=0
105548 Par ch=9 c=11 v=82
105564 Par ch=9 c=11 v=83
105576 On ch=9 n=32 v=47
105584 Par ch=9 c=11 v=84
105600 On ch=9 n=32 v=0
105600 Par ch=9 c=11 v=85
105600 On ch=9 n=34 v=47
105620 Par ch=9 c=11 v=86
105631 On ch=9 n=34 v=0
105640 Par ch=9 c=11 v=87
105656 Par ch=9 c=11 v=88
105672 On ch=9 n=36 v=47
105676 Par ch=9 c=11 v=89
105692 Par ch=9 c=11 v=90
105696 On ch=9 n=36 v=0
105696 On ch=9 n=37 v=47
105712 Par ch=9 c=11 v=91
105727 On ch=9 n=37 v=0
105728 Par ch=9 c=11 v=92
105748 Par ch=9 c=11 v=93
105768 Par ch=9 c=11 v=94
105768 On ch=9 n=39 v=47
105784 Par ch=9 c=11 v=95
105792 On ch=9 n=39 v=0
105792 On ch=9 n=41 v=47
105804 Par ch=9 c=11 v=96
105820 Par ch=9 c=11 v=97
105823 On ch=9 n=41 v=0
105840 Par ch=9 c=11 v=98
105856 Par ch=9 c=11 v=99
105864 On ch=9 n=42 v=47
105876 Par ch=9 c=11 v=100
105888 On ch=9 n=42 v=0
105888 On ch=9 n=44 v=47
105896 Par ch=9 c=11 v=101
105912 Par ch=9 c=11 v=102
105919 On ch=9 n=44 v=0
105932 Par ch=9 c=11 v=103
105948 Par ch=9 c=11 v=104
105960 On ch=9 n=46 v=47
105968 Par ch=9 c=11 v=105
105976 On ch=9 n=46 v=0
105984 Par ch=9 c=11 v=106
105984 On ch=9 n=37 v=47
106004 Par ch=9 c=11 v=107
106015 On ch=9 n=37 v=0
106024 Par ch=9 c=11 v=108
106040 Par ch=9 c=11 v=109
106056 On ch=9 n=39 v=47
106060 Par ch=9 c=11 v=110
106076 Par ch=9 c=11 v=111
106080 On ch=9 n=39 v=0
106080 On ch=9 n=41 v=47
106096 Par ch=9 c=11 v=112
106111 On ch=9 n=41 v=0
106112 Par ch=9 c=11 v=113
106132 Par ch=9 c=11 v=114
106152 Par ch=9 c=11 v=115
106152 On ch=9 n=42 v=47
106168 Par ch=9 c=11 v=116
106176 On ch=9 n=42 v=0
106176 On ch=9 n=44 v=47
106188 Par ch=9 c=11 v=117
106204 Par ch=9 c=11 v=118
106207 On ch=9 n=44 v=0
106224 Par ch=9 c=11 v=119
106240 Par ch=9 c=11 v=120
106248 On ch=9 n=46 v=47
106260 Par ch=9 c=11 v=121
106272 On ch=9 n=46 v=0
106272 On ch=9 n=44 v=47
106280 Par ch=9 c=11 v=122
106296 Par ch=9 c=11 v=123
106303 On ch=9 n=44 v=0
106316 Par ch=9 c=11 v=124
106332 Par ch=9 c=11 v=125
106344 On ch=9 n=42 v=47
106352 Par ch=9 c=11 v=126
106368 On ch=9 n=42 v=0
106368 Par ch=9 c=11 v=64
106368 On ch=9 n=41 v=111
106399 On ch=9 n=41 v=0
106440 On ch=9 n=39 v=111
106464 On ch=9 n=39 v=0
106464 On ch=9 n=37 v=111
106495 On ch=9 n=37 v=0
106536 On ch=9 n=36 v=111
106560 On ch=9 n=36 v=0
106560 On ch=9 n=34 v=111
106591 On ch=9 n=34 v=0
106632 On ch=9 n=32 v=111
106656 On ch=9 n=32 v=0
106656 On ch=9 n=30 v=111
106687 On ch=9 n=30 v=0
106728 On ch=9 n=29 v=111
106752 On ch=9 n=29 v=0
106752 On ch=9 n=34 v=111
106783 On ch=9 n=34 v=0
106824 On ch=9 n=36 v=111
106843 On ch=9 n=36 v=0
106848 On ch=9 n=37 v=111
106886 On ch=9 n=37 v=0
106920 On ch=9 n=39 v=111
106939 On ch=9 n=39 v=0
106944 On ch=9 n=41 v=111
106982 On ch=9 n=41 v=0
107016 On ch=9 n=43 v=111
107035 On ch=9 n=43 v=0
107040 On ch=9 n=45 v=111
107078 On ch=9 n=45 v=0
107112 On ch=9 n=41 v=111
107131 On ch=9 n=41 v=0
107136 On ch=9 n=34 v=111
107174 On ch=9 n=34 v=0
107208 On ch=9 n=36 v=103
107227 On ch=9 n=36 v=0
107232 On ch=9 n=37 v=95
107270 On ch=9 n=37 v=0
107304 On ch=9 n=39 v=87
107323 On ch=9 n=39 v=0
107328 On ch=9 n=41 v=79
107366 On ch=9 n=41 v=0
107400 On ch=9 n=43 v=71
107419 On ch=9 n=43 v=0
107424 On ch=9 n=45 v=63
107462 On ch=9 n=45 v=0
107496 On ch=9 n=46 v=55
107515 On ch=9 n=46 v=0
107520 On ch=9 n=42 v=111
107551 On ch=9 n=42 v=0
107592 On ch=9 n=41 v=111
107611 On ch=9 n=41 v=0
107616 On ch=9 n=39 v=111
107654 On ch=9 n=39 v=0
107688 On ch=9 n=37 v=111
107707 On ch=9 n=37 v=0
107712 On ch=9 n=35 v=111
107750 On ch=9 n=35 v=0
107784 On ch=9 n=34 v=111
107803 On ch=9 n=34 v=0
107808 On ch=9 n=32 v=111
107846 On ch=9 n=32 v=0
107880 On ch=9 n=37 v=111
107899 On ch=9 n=37 v=0
107904 On ch=9 n=46 v=111
107942 On ch=9 n=46 v=0
107976 On ch=9 n=44 v=103
107995 On ch=9 n=44 v=0
108000 On ch=9 n=42 v=95
108038 On ch=9 n=42 v=0
108072 On ch=9 n=41 v=87
108091 On ch=9 n=41 v=0
108096 On ch=9 n=39 v=79
108134 On ch=9 n=39 v=0
108168 On ch=9 n=37 v=71
108187 On ch=9 n=37 v=0
108192 On ch=9 n=35 v=63
108230 On ch=9 n=35 v=0
108264 On ch=9 n=34 v=55
108283 On ch=9 n=34 v=0
108288 On ch=9 n=39 v=47
108319 On ch=9 n=39 v=0
108360 On ch=9 n=38 v=47
108376 On ch=9 n=38 v=0
108384 On ch=9 n=36 v=47
108415 On ch=9 n=36 v=0
108456 On ch=9 n=34 v=47
108472 On ch=9 n=34 v=0
108480 On ch=9 n=32 v=47
108511 On ch=9 n=32 v=0
108552 On ch=9 n=31 v=47
108568 On ch=9 n=31 v=0
108576 On ch=9 n=29 v=47
108607 On ch=9 n=29 v=0
108648 On ch=9 n=27 v=47
108664 On ch=9 n=27 v=0
108672 On ch=9 n=43 v=47
108710 On ch=9 n=43 v=0
108744 On ch=9 n=41 v=47
108763 On ch=9 n=41 v=0
108768 On ch=9 n=39 v=47
108806 On ch=9 n=39 v=0
108840 On ch=9 n=38 v=47
108859 On ch=9 n=38 v=0
108864 Par ch=9 c=11 v=64
108864 On ch=9 n=36 v=47
108872 Par ch=9 c=11 v=65
108880 Par ch=9 c=11 v=66
108888 Par ch=9 c=11 v=67
108896 Par ch=9 c=11 v=68
108902 On ch=9 n=36 v=0
108904 Par ch=9 c=11 v=69
108912 Par ch=9 c=11 v=70
108920 Par ch=9 c=11 v=71
108928 Par ch=9 c=11 v=72
108936 Par ch=9 c=11 v=73
108936 On ch=9 n=36 v=47
108944 Par ch=9 c=11 v=74
108952 Par ch=9 c=11 v=75
108955 On ch=9 n=36 v=0
108960 Par ch=9 c=11 v=76
108960 On ch=9 n=34 v=47
108968 Par ch=9 c=11 v=77
108976 Par ch=9 c=11 v=78
108984 Par ch=9 c=11 v=79
108992 Par ch=9 c=11 v=80
108998 On ch=9 n=34 v=0
109000 Par ch=9 c=11 v=81
109008 Par ch=9 c=11 v=82
109016 Par ch=9 c=11 v=83
109024 Par ch=9 c=11 v=84
109032 Par ch=9 c=11 v=85
109032 On ch=9 n=34 v=47
109040 Par ch=9 c=11 v=86
109048 Par ch=9 c=11 v=87
109051 On ch=9 n=34 v=0
109056 Par ch=9 c=11 v=88
109056 On ch=9 n=39 v=47
109064 Par ch=9 c=11 v=89
109072 Par ch=9 c=11 v=90
109080 Par ch=9 c=11 v=91
109088 Par ch=9 c=11 v=92
109094 On ch=9 n=39 v=0
109096 Par ch=9 c=11 v=93
109104 Par ch=9 c=11 v=94
109112 Par ch=9 c=11 v=95
109120 Par ch=9 c=11 v=96
109128 Par ch=9 c=11 v=97
109128 On ch=9 n=39 v=47
109136 Par ch=9 c=11 v=98
109144 Par ch=9 c=11 v=99
109147 On ch=9 n=39 v=0
109152 Par ch=9 c=11 v=100
109152 On ch=9 n=38 v=47
109160 Par ch=9 c=11 v=101
109168 Par ch=9 c=11 v=102
109176 Par ch=9 c=11 v=103
109184 Par ch=9 c=11 v=104
109190 On ch=9 n=38 v=0
109192 Par ch=9 c=11 v=105
109200 Par ch=9 c=11 v=106
109208 Par ch=9 c=11 v=107
109216 Par ch=9 c=11 v=108
109224 Par ch=9 c=11 v=109
109224 On ch=9 n=38 v=47
109232 Par ch=9 c=11 v=110
109240 Par ch=9 c=11 v=111
109243 On ch=9 n=38 v=0
109248 Par ch=9 c=11 v=112
109248 On ch=9 n=36 v=47
109286 On ch=9 n=36 v=0
109320 On ch=9 n=36 v=47
109339 On ch=9 n=36 v=0
109344 On ch=9 n=30 v=47
109382 On ch=9 n=30 v=0
109416 On ch=9 n=30 v=47
109435 On ch=9 n=30 v=0
109440 Par ch=9 c=11 v=112
109440 On ch=9 n=31 v=47
109468 Par ch=9 c=11 v=113
109478 On ch=9 n=31 v=0
109492 Par ch=9 c=11 v=114
109512 On ch=9 n=31 v=47
109520 Par ch=9 c=11 v=115
109531 On ch=9 n=31 v=0
109536 On ch=9 n=28 v=47
109544 Par ch=9 c=11 v=116
109568 Par ch=9 c=11 v=117
109574 On ch=9 n=28 v=0
109596 Par ch=9 c=11 v=118
109608 On ch=9 n=28 v=47
109620 Par ch=9 c=11 v=119
109627 On ch=9 n=28 v=0
109632 On ch=9 n=29 v=47
109648 Par ch=9 c=11 v=120
109670 On ch=9 n=29 v=0
109672 Par ch=9 c=11 v=121
109696 Par ch=9 c=11 v=122
109704 On ch=9 n=29 v=47
109723 On ch=9 n=29 v=0
109724 Par ch=9 c=11 v=123
109728 On ch=9 n=30 v=47
109748 Par ch=9 c=11 v=124
109766 On ch=9 n=30 v=0
109776 Par ch=9 c=11 v=125
109800 Par ch=9 c=11 v=126
109800 On ch=9 n=30 v=47
109819 On ch=9 n=30 v=0
109824 Par ch=9 c=11 v=64
109824 On ch=9 n=31 v=111
109862 On ch=9 n=31 v=0
109896 On ch=9 n=34 v=111
109915 On ch=9 n=34 v=0
109920 On ch=9 n=39 v=111
109958 On ch=9 n=39 v=0
109992 On ch=9 n=38 v=111
110011 On ch=9 n=38 v=0
110016 On ch=9 n=36 v=111
110054 On ch=9 n=36 v=0
110088 On ch=9 n=34 v=111
110107 On ch=9 n=34 v=0
110112 On ch=9 n=32 v=111
110150 On ch=9 n=32 v=0
110184 On ch=9 n=31 v=111
110203 On ch=9 n=31 v=0
110208 On ch=9 n=32 v=111
110246 On ch=9 n=32 v=0
110280 On ch=9 n=39 v=111
110299 On ch=9 n=39 v=0
110304 On ch=9 n=44 v=111
110342 On ch=9 n=44 v=0
110376 On ch=9 n=43 v=111
110395 On ch=9 n=43 v=0
110400 On ch=9 n=41 v=111
110438 On ch=9 n=41 v=0
110472 On ch=9 n=39 v=111
110491 On ch=9 n=39 v=0
110496 On ch=9 n=37 v=111
110534 On ch=9 n=37 v=0
110568 On ch=9 n=35 v=111
110587 On ch=9 n=35 v=0
110592 On ch=9 n=34 v=111
110630 On ch=9 n=34 v=0
110664 On ch=9 n=36 v=111
110683 On ch=9 n=36 v=0
110688 On ch=9 n=38 v=111
110726 On ch=9 n=38 v=0
110760 On ch=9 n=39 v=111
110779 On ch=9 n=39 v=0
110784 On ch=9 n=41 v=111
110822 On ch=9 n=41 v=0
110856 On ch=9 n=42 v=111
110875 On ch=9 n=42 v=0
110880 On ch=9 n=44 v=111
110918 On ch=9 n=44 v=0
110952 On ch=9 n=46 v=111
110971 On ch=9 n=46 v=0
110976 On ch=9 n=35 v=111
111014 On ch=9 n=35 v=0
111048 On ch=9 n=37 v=111
111067 On ch=9 n=37 v=0
111072 On ch=9 n=39 v=111
111110 On ch=9 n=39 v=0
111144 On ch=9 n=41 v=111
111163 On ch=9 n=41 v=0
111168 On ch=9 n=43 v=111
111206 On ch=9 n=43 v=0
111240 On ch=9 n=44 v=111
111259 On ch=9 n=44 v=0
111264 On ch=9 n=46 v=111
111302 On ch=9 n=46 v=0
111336 On ch=9 n=47 v=111
111355 On ch=9 n=47 v=0
111360 On ch=9 n=44 v=127
111385 On ch=9 n=44 v=0
111392 On ch=9 n=43 v=127
111417 On ch=9 n=43 v=0
111424 On ch=9 n=44 v=127
111449 On ch=9 n=44 v=0
111456 On ch=9 n=47 v=127
111481 On ch=9 n=47 v=0
111488 On ch=9 n=46 v=127
111513 On ch=9 n=46 v=0
111520 On ch=9 n=47 v=127
111545 On ch=9 n=47 v=0
111552 On ch=9 n=40 v=127
111577 On ch=9 n=40 v=0
111584 On ch=9 n=39 v=127
111609 On ch=9 n=39 v=0
111616 On ch=9 n=40 v=127
111641 On ch=9 n=40 v=0
111648 On ch=9 n=45 v=127
111673 On ch=9 n=45 v=0
111680 On ch=9 n=44 v=127
111705 On ch=9 n=44 v=0
111712 On ch=9 n=45 v=127
111737 On ch=9 n=45 v=0
111744 Par ch=9 c=11 v=64
111744 Par ch=9 c=0 v=0
111744 Par ch=9 c=32 v=0
111744 PrCh ch=9 p=44
111744 On ch=9 n=34 v=127
111744 On ch=9 n=39 v=127
111752 Par ch=9 c=11 v=63
111760 Par ch=9 c=11 v=62
111768 Par ch=9 c=11 v=61
111776 Par ch=9 c=11 v=60
111784 Par ch=9 c=11 v=59
111792 Par ch=9 c=11 v=58
111800 Par ch=9 c=11 v=57
111808 Par ch=9 c=11 v=56
111816 Par ch=9 c=11 v=55
111824 Par ch=9 c=11 v=54
111832 Par ch=9 c=11 v=53
111840 Par ch=9 c=11 v=52
111848 Par ch=9 c=11 v=51
111856 Par ch=9 c=11 v=50
111864 Par ch=9 c=11 v=49
111872 Par ch=9 c=11 v=48
111880 Par ch=9 c=11 v=47
111888 Par ch=9 c=11 v=46
111896 Par ch=9 c=11 v=45
111904 Par ch=9 c=11 v=44
111912 Par ch=9 c=11 v=43
111920 Par ch=9 c=11 v=42
111928 Par ch=9 c=11 v=41
111936 Par ch=9 c=11 v=40
111940 Par ch=9 c=11 v=39
111948 Par ch=9 c=11 v=38
111956 Par ch=9 c=11 v=37
111964 Par ch=9 c=11 v=36
111972 Par ch=9 c=11 v=35
111980 Par ch=9 c=11 v=34
111988 Par ch=9 c=11 v=33
111996 Par ch=9 c=11 v=32
112004 Par ch=9 c=11 v=31
112012 Par ch=9 c=11 v=30
112020 Par ch=9 c=11 v=29
112028 Par ch=9 c=11 v=28
112036 Par ch=9 c=11 v=27
112044 Par ch=9 c=11 v=26
112051 On ch=9 n=39 v=0
112051 On ch=9 n=34 v=0
112052 Par ch=9 c=11 v=25
112060 Par ch=9 c=11 v=24
112068 Par ch=9 c=11 v=23
112076 Par ch=9 c=11 v=22
112084 Par ch=9 c=11 v=21
112092 Par ch=9 c=11 v=20
112100 Par ch=9 c=11 v=19
112108 Par ch=9 c=11 v=18
112116 Par ch=9 c=11 v=17
112124 Par ch=9 c=11 v=16
112128 Par ch=9 c=11 v=17
112128 On ch=9 n=34 v=127
112128 On ch=9 n=39 v=127
112140 Par ch=9 c=11 v=18
112152 Par ch=9 c=11 v=19
112164 Par ch=9 c=11 v=20
112172 Par ch=9 c=11 v=21
112184 Par ch=9 c=11 v=22
112196 Par ch=9 c=11 v=23
112204 Par ch=9 c=11 v=24
112216 Par ch=9 c=11 v=25
112228 Par ch=9 c=11 v=26
112240 Par ch=9 c=11 v=27
112248 Par ch=9 c=11 v=28
112260 Par ch=9 c=11 v=29
112272 Par ch=9 c=11 v=30
112280 Par ch=9 c=11 v=31
112292 Par ch=9 c=11 v=32
112304 Par ch=9 c=11 v=33
112316 Par ch=9 c=11 v=34
112324 Par ch=9 c=11 v=35
112336 Par ch=9 c=11 v=36
112348 Par ch=9 c=11 v=37
112356 Par ch=9 c=11 v=38
112358 On ch=9 n=39 v=0
112358 On ch=9 n=34 v=0
112368 Par ch=9 c=11 v=39
112380 Par ch=9 c=11 v=40
112392 Par ch=9 c=11 v=41
112400 Par ch=9 c=11 v=42
112412 Par ch=9 c=11 v=43
112416 Par ch=9 c=0 v=0
112416 Par ch=9 c=32 v=0
112416 PrCh ch=9 p=48
112416 On ch=9 n=54 v=127
112424 Par ch=9 c=11 v=44
112432 Par ch=9 c=11 v=45
112444 Par ch=9 c=11 v=46
112447 On ch=9 n=54 v=0
112456 Par ch=9 c=11 v=47
112464 Par ch=9 c=11 v=48
112512 Par ch=9 c=11 v=64
112512 Par ch=9 c=0 v=0
112512 Par ch=9 c=32 v=0
112512 PrCh ch=9 p=44
112512 On ch=9 n=34 v=127
112512 On ch=9 n=39 v=127
112520 Par ch=9 c=11 v=63
112528 Par ch=9 c=11 v=62
112536 Par ch=9 c=11 v=61
112544 Par ch=9 c=11 v=60
112552 Par ch=9 c=11 v=59
112560 Par ch=9 c=11 v=58
112568 Par ch=9 c=11 v=57
112576 Par ch=9 c=11 v=56
112584 Par ch=9 c=11 v=55
112592 Par ch=9 c=11 v=54
112600 Par ch=9 c=11 v=53
112608 Par ch=9 c=11 v=52
112616 Par ch=9 c=11 v=51
112624 Par ch=9 c=11 v=50
112632 Par ch=9 c=11 v=49
112640 Par ch=9 c=11 v=48
112648 Par ch=9 c=11 v=47
112656 Par ch=9 c=11 v=46
112664 Par ch=9 c=11 v=45
112672 Par ch=9 c=11 v=44
112680 Par ch=9 c=11 v=43
112688 Par ch=9 c=11 v=42
112696 Par ch=9 c=11 v=41
112704 Par ch=9 c=11 v=40
112708 Par ch=9 c=11 v=39
112716 Par ch=9 c=11 v=38
112724 Par ch=9 c=11 v=37
112732 Par ch=9 c=11 v=36
112740 Par ch=9 c=11 v=35
112748 Par ch=9 c=11 v=34
112756 Par ch=9 c=11 v=33
112764 Par ch=9 c=11 v=32
112772 Par ch=9 c=11 v=31
112780 Par ch=9 c=11 v=30
112788 Par ch=9 c=11 v=29
112796 Par ch=9 c=11 v=28
112804 Par ch=9 c=11 v=27
112812 Par ch=9 c=11 v=26
112819 On ch=9 n=39 v=0
112819 On ch=9 n=34 v=0
112820 Par ch=9 c=11 v=25
112828 Par ch=9 c=11 v=24
112836 Par ch=9 c=11 v=23
112844 Par ch=9 c=11 v=22
112852 Par ch=9 c=11 v=21
112860 Par ch=9 c=11 v=20
112868 Par ch=9 c=11 v=19
112876 Par ch=9 c=11 v=18
112884 Par ch=9 c=11 v=17
112892 Par ch=9 c=11 v=16
112896 Par ch=9 c=11 v=17
112896 On ch=9 n=34 v=127
112896 On ch=9 n=39 v=127
112904 Par ch=9 c=11 v=18
112912 Par ch=9 c=11 v=19
112920 Par ch=9 c=11 v=20
112928 Par ch=9 c=11 v=21
112936 Par ch=9 c=11 v=22
112944 Par ch=9 c=11 v=23
112952 Par ch=9 c=11 v=24
112960 Par ch=9 c=11 v=25
112968 Par ch=9 c=11 v=26
112976 Par ch=9 c=11 v=27
112984 Par ch=9 c=11 v=28
112992 Par ch=9 c=11 v=29
113000 Par ch=9 c=11 v=30
113008 Par ch=9 c=11 v=31
113016 Par ch=9 c=11 v=32
113024 Par ch=9 c=11 v=33
113032 Par ch=9 c=11 v=34
113040 Par ch=9 c=11 v=35
113048 Par ch=9 c=11 v=36
113056 Par ch=9 c=11 v=37
113064 Par ch=9 c=11 v=38
113072 Par ch=9 c=11 v=39
113080 Par ch=9 c=11 v=40
113088 Par ch=9 c=11 v=41
113096 Par ch=9 c=11 v=42
113104 Par ch=9 c=11 v=43
113112 Par ch=9 c=11 v=44
113120 Par ch=9 c=11 v=45
113126 On ch=9 n=39 v=0
113126 On ch=9 n=34 v=0
113128 Par ch=9 c=11 v=46
113136 Par ch=9 c=11 v=47
113144 Par ch=9 c=11 v=48
113152 Par ch=9 c=11 v=49
113160 Par ch=9 c=11 v=50
113168 Par ch=9 c=11 v=51
113176 Par ch=9 c=11 v=52
113184 Par ch=9 c=11 v=53
113184 Par ch=9 c=0 v=0
113184 Par ch=9 c=32 v=0
113184 PrCh ch=9 p=48
113184 On ch=9 n=54 v=127
113192 Par ch=9 c=11 v=54
113200 Par ch=9 c=11 v=55
113208 Par ch=9 c=11 v=56
113215 On ch=9 n=54 v=0
113216 Par ch=9 c=11 v=57
113224 Par ch=9 c=11 v=58
113232 Par ch=9 c=11 v=59
113240 Par ch=9 c=11 v=60
113248 Par ch=9 c=11 v=61
113256 Par ch=9 c=11 v=62
113264 Par ch=9 c=11 v=63
113272 Par ch=9 c=11 v=64
113280 On ch=9 n=46 v=127
113306 On ch=9 n=46 v=0
113312 On ch=9 n=45 v=127
113338 On ch=9 n=45 v=0
113344 On ch=9 n=44 v=127
113370 On ch=9 n=44 v=0
113376 On ch=9 n=42 v=127
113402 On ch=9 n=42 v=0
113408 On ch=9 n=41 v=127
113434 On ch=9 n=41 v=0
113440 On ch=9 n=40 v=127
113466 On ch=9 n=40 v=0
113472 On ch=9 n=39 v=127
113498 On ch=9 n=39 v=0
113504 On ch=9 n=37 v=127
113530 On ch=9 n=37 v=0
113536 On ch=9 n=35 v=127
113562 On ch=9 n=35 v=0
113568 On ch=9 n=34 v=127
113594 On ch=9 n=34 v=0
113600 On ch=9 n=33 v=127
113626 On ch=9 n=33 v=0
113632 On ch=9 n=34 v=127
113658 On ch=9 n=34 v=0
113664 Par ch=9 c=11 v=64
113664 On ch=9 n=46 v=127
113688 Par ch=9 c=11 v=65
113690 On ch=9 n=46 v=0
113696 On ch=9 n=45 v=127
113712 Par ch=9 c=11 v=66
113722 On ch=9 n=45 v=0
113728 On ch=9 n=46 v=127
113732 Par ch=9 c=11 v=67
113754 On ch=9 n=46 v=0
113756 Par ch=9 c=11 v=68
113760 On ch=9 n=34 v=127
113780 Par ch=9 c=11 v=69
113786 On ch=9 n=34 v=0
113792 On ch=9 n=33 v=127
113800 Par ch=9 c=11 v=70
113818 On ch=9 n=33 v=0
113824 Par ch=9 c=11 v=71
113824 On ch=9 n=34 v=127
113848 Par ch=9 c=11 v=72
113850 On ch=9 n=34 v=0
113856 On ch=9 n=46 v=127
113868 Par ch=9 c=11 v=73
113882 On ch=9 n=46 v=0
113888 On ch=9 n=45 v=127
113892 Par ch=9 c=11 v=74
113914 On ch=9 n=45 v=0
113916 Par ch=9 c=11 v=75
113920 On ch=9 n=46 v=127
113936 Par ch=9 c=11 v=76
113946 On ch=9 n=46 v=0
113952 On ch=9 n=34 v=127
113960 Par ch=9 c=11 v=77
113978 On ch=9 n=34 v=0
113984 Par ch=9 c=11 v=78
113984 On ch=9 n=33 v=127
114004 Par ch=9 c=11 v=79
114010 On ch=9 n=33 v=0
114016 On ch=9 n=34 v=127
114028 Par ch=9 c=11 v=80
114042 On ch=9 n=34 v=0
114048 On ch=9 n=46 v=127
114086 On ch=9 n=46 v=0
114432 Par ch=9 c=11 v=64
115200 Par ch=9 c=11 v=64
115200 On ch=9 n=35 v=111
115212 Par ch=9 c=11 v=63
115224 Par ch=9 c=11 v=62
115236 Par ch=9 c=11 v=61
115248 Par ch=9 c=11 v=60
115260 Par ch=9 c=11 v=59
115268 Par ch=9 c=11 v=58
115280 Par ch=9 c=11 v=57
115292 Par ch=9 c=11 v=56
115304 Par ch=9 c=11 v=55
115316 Par ch=9 c=11 v=54
115328 Par ch=9 c=11 v=53
115336 Par ch=9 c=11 v=52
115348 Par ch=9 c=11 v=51
115360 Par ch=9 c=11 v=50
115372 Par ch=9 c=11 v=49
115384 Par ch=9 c=11 v=48
115392 Par ch=9 c=11 v=47
115404 Par ch=9 c=11 v=46
115416 Par ch=9 c=11 v=45
115428 On ch=9 n=35 v=0
115428 Par ch=9 c=11 v=44
115440 Par ch=9 c=11 v=43
115452 Par ch=9 c=11 v=42
115460 Par ch=9 c=11 v=41
115472 Par ch=9 c=11 v=40
115484 Par ch=9 c=11 v=39
115488 On ch=9 n=34 v=111
115496 Par ch=9 c=11 v=38
115508 Par ch=9 c=11 v=37
115520 Par ch=9 c=11 v=36
115528 Par ch=9 c=11 v=35
115540 Par ch=9 c=11 v=34
115552 Par ch=9 c=11 v=33
115564 On ch=9 n=34 v=0
115564 Par ch=9 c=11 v=32
115584 Par ch=9 c=11 v=32
115584 On ch=9 n=33 v=111
115596 Par ch=9 c=11 v=33
115608 Par ch=9 c=11 v=34
115620 Par ch=9 c=11 v=35
115632 Par ch=9 c=11 v=36
115644 Par ch=9 c=11 v=37
115656 Par ch=9 c=11 v=38
115660 On ch=9 n=33 v=0
115668 Par ch=9 c=11 v=39
115680 Par ch=9 c=11 v=40
115680 On ch=9 n=32 v=111
115692 Par ch=9 c=11 v=41
115704 Par ch=9 c=11 v=42
115712 Par ch=9 c=11 v=43
115724 Par ch=9 c=11 v=44
115736 Par ch=9 c=11 v=45
115748 Par ch=9 c=11 v=46
115756 On ch=9 n=32 v=0
115760 Par ch=9 c=11 v=47
115772 Par ch=9 c=11 v=48
115776 On ch=9 n=33 v=111
115784 Par ch=9 c=11 v=49
115796 Par ch=9 c=11 v=50
115808 Par ch=9 c=11 v=51
115820 Par ch=9 c=11 v=52
115832 Par ch=9 c=11 v=53
115840 Par ch=9 c=11 v=54
115852 On ch=9 n=33 v=0
115852 Par ch=9 c=11 v=55
115864 Par ch=9 c=11 v=56
115872 On ch=9 n=34 v=111
115876 Par ch=9 c=11 v=57
115888 Par ch=9 c=11 v=58
115900 Par ch=9 c=11 v=59
115912 Par ch=9 c=11 v=60
115924 Par ch=9 c=11 v=61
115936 Par ch=9 c=11 v=62
115948 On ch=9 n=34 v=0
115948 Par ch=9 c=11 v=63
115960 Par ch=9 c=11 v=64
115968 On ch=9 n=35 v=111
115992 Par ch=9 c=11 v=32
116016 Par ch=9 c=11 v=31
116036 Par ch=9 c=11 v=30
116056 Par ch=9 c=11 v=29
116080 Par ch=9 c=11 v=28
116100 Par ch=9 c=11 v=27
116120 Par ch=9 c=11 v=26
116144 Par ch=9 c=11 v=25
116164 Par ch=9 c=11 v=24
116184 Par ch=9 c=11 v=23
116204 Par ch=9 c=11 v=22
116228 Par ch=9 c=11 v=21
116248 Par ch=9 c=11 v=20
116268 Par ch=9 c=11 v=19
116292 Par ch=9 c=11 v=18
116312 Par ch=9 c=11 v=17
116332 Par ch=9 c=11 v=16
116429 On ch=9 n=35 v=0
116448 Par ch=9 c=11 v=64
116448 On ch=9 n=33 v=95
116468 Par ch=9 c=11 v=63
116484 Par ch=9 c=11 v=62
116500 Par ch=9 c=11 v=61
116516 Par ch=9 c=11 v=60
116524 On ch=9 n=33 v=0
116536 Par ch=9 c=11 v=59
116544 On ch=9 n=32 v=95
116552 Par ch=9 c=11 v=58
116568 Par ch=9 c=11 v=57
116584 Par ch=9 c=11 v=56
116604 Par ch=9 c=11 v=55
116620 On ch=9 n=32 v=0
116620 Par ch=9 c=11 v=54
116636 Par ch=9 c=11 v=53
116640 On ch=9 n=33 v=95
116652 Par ch=9 c=11 v=52
116672 Par ch=9 c=11 v=51
116688 Par ch=9 c=11 v=50
116704 Par ch=9 c=11 v=49
116716 On ch=9 n=33 v=0
116720 Par ch=9 c=11 v=48
116736 Par ch=9 c=11 v=64
116736 Par ch=9 c=0 v=0
116736 Par ch=9 c=32 v=0
116736 PrCh ch=9 p=45
116736 On ch=9 n=34 v=95
116736 On ch=9 n=39 v=95
116762 On ch=9 n=39 v=0
116762 On ch=9 n=34 v=0
116768 On ch=9 n=34 v=95
116768 On ch=9 n=39 v=95
116794 On ch=9 n=39 v=0
116794 On ch=9 n=34 v=0
116800 On ch=9 n=34 v=95
116800 On ch=9 n=39 v=95
116826 On ch=9 n=39 v=0
116826 On ch=9 n=34 v=0
116832 On ch=9 n=39 v=95
116832 On ch=9 n=34 v=95
116858 On ch=9 n=34 v=0
116858 On ch=9 n=39 v=0
116864 On ch=9 n=39 v=95
116864 On ch=9 n=34 v=95
116890 On ch=9 n=34 v=0
116890 On ch=9 n=39 v=0
116896 On ch=9 n=39 v=95
116896 On ch=9 n=34 v=95
116922 On ch=9 n=34 v=0
116922 On ch=9 n=39 v=0
116928 On ch=9 n=39 v=95
116928 On ch=9 n=34 v=95
116954 On ch=9 n=34 v=0
116954 On ch=9 n=39 v=0
116960 On ch=9 n=39 v=95
116960 On ch=9 n=34 v=95
116986 On ch=9 n=34 v=0
116986 On ch=9 n=39 v=0
116992 On ch=9 n=39 v=95
116992 On ch=9 n=34 v=95
117018 On ch=9 n=34 v=0
117018 On ch=9 n=39 v=0
117024 On ch=9 n=39 v=95
117024 On ch=9 n=34 v=95
117050 On ch=9 n=34 v=0
117050 On ch=9 n=39 v=0
117056 On ch=9 n=39 v=95
117056 On ch=9 n=34 v=95
117082 On ch=9 n=34 v=0
117082 On ch=9 n=39 v=0
117088 On ch=9 n=39 v=95
117088 On ch=9 n=34 v=95
117114 On ch=9 n=34 v=0
117114 On ch=9 n=39 v=0
117120 On ch=9 n=39 v=95
117120 On ch=9 n=34 v=95
117146 On ch=9 n=34 v=0
117146 On ch=9 n=39 v=0
117152 On ch=9 n=39 v=95
117152 On ch=9 n=34 v=95
117178 On ch=9 n=34 v=0
117178 On ch=9 n=39 v=0
117184 On ch=9 n=39 v=95
117184 On ch=9 n=34 v=95
117210 On ch=9 n=34 v=0
117210 On ch=9 n=39 v=0
117216 On ch=9 n=39 v=95
117216 On ch=9 n=34 v=95
117242 On ch=9 n=34 v=0
117242 On ch=9 n=39 v=0
117248 On ch=9 n=39 v=95
117248 On ch=9 n=34 v=95
117274 On ch=9 n=34 v=0
117274 On ch=9 n=39 v=0
117280 On ch=9 n=39 v=95
117280 On ch=9 n=34 v=95
117306 On ch=9 n=34 v=0
117306 On ch=9 n=39 v=0
117312 On ch=9 n=39 v=95
117312 On ch=9 n=34 v=95
117338 On ch=9 n=34 v=0
117338 On ch=9 n=39 v=0
117344 On ch=9 n=39 v=95
117344 On ch=9 n=34 v=95
117370 On ch=9 n=34 v=0
117370 On ch=9 n=39 v=0
117376 On ch=9 n=39 v=95
117376 On ch=9 n=34 v=95
117402 On ch=9 n=34 v=0
117402 On ch=9 n=39 v=0
117408 On ch=9 n=39 v=95
117408 On ch=9 n=34 v=95
117434 On ch=9 n=34 v=0
117434 On ch=9 n=39 v=0
117440 On ch=9 n=39 v=95
117440 On ch=9 n=34 v=95
117466 On ch=9 n=34 v=0
117466 On ch=9 n=39 v=0
117472 On ch=9 n=39 v=95
117472 On ch=9 n=34 v=95
117498 On ch=9 n=34 v=0
117498 On ch=9 n=39 v=0
117504 Par ch=9 c=11 v=64
117504 On ch=9 n=39 v=95
117504 On ch=9 n=34 v=95
117530 On ch=9 n=34 v=0
117530 On ch=9 n=39 v=0
117536 On ch=9 n=39 v=95
117536 On ch=9 n=34 v=95
117552 Par ch=9 c=11 v=65
117562 On ch=9 n=34 v=0
117562 On ch=9 n=39 v=0
117568 On ch=9 n=39 v=95
117568 On ch=9 n=34 v=95
117594 On ch=9 n=34 v=0
117594 On ch=9 n=39 v=0
117596 Par ch=9 c=11 v=66
117600 On ch=9 n=39 v=95
117600 On ch=9 n=34 v=95
117626 On ch=9 n=34 v=0
117626 On ch=9 n=39 v=0
117632 On ch=9 n=39 v=95
117632 On ch=9 n=34 v=95
117640 Par ch=9 c=11 v=67
117658 On ch=9 n=34 v=0
117658 On ch=9 n=39 v=0
117664 On ch=9 n=39 v=95
117664 On ch=9 n=34 v=95
117688 Par ch=9 c=11 v=68
117690 On ch=9 n=34 v=0
117690 On ch=9 n=39 v=0
117696 On ch=9 n=39 v=95
117696 On ch=9 n=34 v=95
117722 On ch=9 n=34 v=0
117722 On ch=9 n=39 v=0
117728 On ch=9 n=39 v=95
117728 On ch=9 n=34 v=95
117732 Par ch=9 c=11 v=69
117754 On ch=9 n=34 v=0
117754 On ch=9 n=39 v=0
117760 On ch=9 n=39 v=95
117760 On ch=9 n=34 v=95
117776 Par ch=9 c=11 v=70
117786 On ch=9 n=34 v=0
117786 On ch=9 n=39 v=0
117792 On ch=9 n=39 v=95
117792 On ch=9 n=34 v=95
117818 On ch=9 n=34 v=0
117818 On ch=9 n=39 v=0
117824 Par ch=9 c=11 v=71
117824 On ch=9 n=39 v=95
117824 On ch=9 n=34 v=95
117850 On ch=9 n=34 v=0
117850 On ch=9 n=39 v=0
117856 On ch=9 n=39 v=95
117856 On ch=9 n=34 v=95
117868 Par ch=9 c=11 v=72
117882 On ch=9 n=34 v=0
117882 On ch=9 n=39 v=0
117888 On ch=9 n=39 v=95
117888 On ch=9 n=34 v=95
117912 Par ch=9 c=11 v=73
117914 On ch=9 n=34 v=0
117914 On ch=9 n=39 v=0
117920 On ch=9 n=39 v=95
117920 On ch=9 n=34 v=95
117946 On ch=9 n=34 v=0
117946 On ch=9 n=39 v=0
117952 On ch=9 n=39 v=95
117952 On ch=9 n=34 v=95
117956 Par ch=9 c=11 v=74
117978 On ch=9 n=34 v=0
117978 On ch=9 n=39 v=0
117984 On ch=9 n=39 v=95
117984 On ch=9 n=34 v=95
118004 Par ch=9 c=11 v=75
118010 On ch=9 n=34 v=0
118010 On ch=9 n=39 v=0
118016 On ch=9 n=39 v=95
118016 On ch=9 n=34 v=95
118042 On ch=9 n=34 v=0
118042 On ch=9 n=39 v=0
118048 Par ch=9 c=11 v=76
118048 On ch=9 n=39 v=95
118048 On ch=9 n=34 v=95
118074 On ch=9 n=34 v=0
118074 On ch=9 n=39 v=0
118080 On ch=9 n=39 v=95
118080 On ch=9 n=34 v=95
118092 Par ch=9 c=11 v=77
118106 On ch=9 n=34 v=0
118106 On ch=9 n=39 v=0
118112 On ch=9 n=39 v=95
118112 On ch=9 n=34 v=95
118138 On ch=9 n=34 v=0
118138 On ch=9 n=39 v=0
118140 Par ch=9 c=11 v=78
118144 On ch=9 n=39 v=95
118144 On ch=9 n=34 v=95
118170 On ch=9 n=34 v=0
118170 On ch=9 n=39 v=0
118176 On ch=9 n=39 v=95
118176 On ch=9 n=34 v=95
118184 Par ch=9 c=11 v=79
118202 On ch=9 n=34 v=0
118202 On ch=9 n=39 v=0
118208 On ch=9 n=39 v=95
118208 On ch=9 n=34 v=95
118228 Par ch=9 c=11 v=80
118234 On ch=9 n=34 v=0
118234 On ch=9 n=39 v=0
118240 On ch=9 n=39 v=95
118240 On ch=9 n=34 v=95
118266 On ch=9 n=34 v=0
118266 On ch=9 n=39 v=0
118272 Par ch=9 c=11 v=64
118272 Par ch=9 c=0 v=0
118272 Par ch=9 c=32 v=0
118272 PrCh ch=9 p=48
118272 On ch=9 n=34 v=95
118368 On ch=9 n=34 v=0
118368 On ch=9 n=33 v=95
118445 On ch=9 n=33 v=0
118464 On ch=9 n=34 v=95
118560 On ch=9 n=34 v=0
118560 On ch=9 n=33 v=95
118637 On ch=9 n=33 v=0
118656 On ch=9 n=34 v=95
118752 On ch=9 n=34 v=0
118752 On ch=9 n=33 v=95
118829 On ch=9 n=33 v=0
118848 On ch=9 n=34 v=95
118944 On ch=9 n=34 v=0
118944 On ch=9 n=33 v=95
119021 On ch=9 n=33 v=0
119040 On ch=9 n=34 v=95
119136 On ch=9 n=34 v=0
119136 On ch=9 n=33 v=95
119213 On ch=9 n=33 v=0
119232 On ch=9 n=34 v=95
119328 On ch=9 n=34 v=0
119328 On ch=9 n=35 v=95
119405 On ch=9 n=35 v=0
119424 On ch=9 n=34 v=95
119501 On ch=9 n=34 v=0
119712 On ch=9 n=39 v=127
119743 On ch=9 n=39 v=0
119784 On ch=9 n=41 v=127
119800 On ch=9 n=41 v=0
119808 On ch=9 n=41 v=127
119856 On ch=9 n=41 v=0
119856 On ch=9 n=42 v=127
119894 On ch=9 n=42 v=0
119904 On ch=9 n=34 v=127
119935 On ch=9 n=34 v=0
119976 On ch=9 n=35 v=127
120000 On ch=9 n=35 v=0
120000 On ch=9 n=37 v=127
120062 On ch=9 n=37 v=0
120096 On ch=9 n=35 v=127
120134 On ch=9 n=35 v=0
120168 On ch=9 n=37 v=127
120187 On ch=9 n=37 v=0
120192 On ch=9 n=39 v=127
120269 On ch=9 n=39 v=0
120288 On ch=9 n=44 v=127
120326 On ch=9 n=44 v=0
120360 On ch=9 n=40 v=127
120379 On ch=9 n=40 v=0
120384 On ch=9 n=38 v=127
120432 On ch=9 n=38 v=0
120432 On ch=9 n=39 v=127
120470 On ch=9 n=39 v=0
120480 On ch=9 n=32 v=127
120518 On ch=9 n=32 v=0
120552 On ch=9 n=34 v=127
120571 On ch=9 n=34 v=0
120576 On ch=9 n=35 v=127
120653 On ch=9 n=35 v=0
121248 On ch=9 n=51 v=100
121286 On ch=9 n=51 v=0
121320 On ch=9 n=50 v=100
121336 On ch=9 n=50 v=0
121344 On ch=9 n=49 v=100
121375 On ch=9 n=49 v=0
121416 On ch=9 n=48 v=100
121432 On ch=9 n=48 v=0
121440 On ch=9 n=47 v=100
121471 On ch=9 n=47 v=0
121512 On ch=9 n=46 v=100
121528 On ch=9 n=46 v=0
121536 On ch=9 n=45 v=100
121567 On ch=9 n=45 v=0
121608 On ch=9 n=44 v=100
121624 On ch=9 n=44 v=0
121632 On ch=9 n=43 v=100
121663 On ch=9 n=43 v=0
121704 On ch=9 n=42 v=100
121720 On ch=9 n=42 v=0
121728 On ch=9 n=47 v=100
121759 On ch=9 n=47 v=0
121800 On ch=9 n=46 v=100
121816 On ch=9 n=46 v=0
121824 On ch=9 n=45 v=100
121855 On ch=9 n=45 v=0
121896 On ch=9 n=44 v=100
121912 On ch=9 n=44 v=0
121920 On ch=9 n=43 v=100
121951 On ch=9 n=43 v=0
121992 On ch=9 n=42 v=100
122008 On ch=9 n=42 v=0
122016 On ch=9 n=41 v=100
122047 On ch=9 n=41 v=0
122088 On ch=9 n=40 v=100
122104 On ch=9 n=40 v=0
122112 On ch=9 n=57 v=100
122138 On ch=9 n=57 v=0
122144 On ch=9 n=56 v=100
122170 On ch=9 n=56 v=0
122176 On ch=9 n=55 v=100
122202 On ch=9 n=55 v=0
122208 On ch=9 n=54 v=100
122234 On ch=9 n=54 v=0
122240 On ch=9 n=53 v=100
122266 On ch=9 n=53 v=0
122272 On ch=9 n=52 v=100
122298 On ch=9 n=52 v=0
122304 On ch=9 n=51 v=100
122330 On ch=9 n=51 v=0
122336 On ch=9 n=50 v=100
122362 On ch=9 n=50 v=0
122368 On ch=9 n=49 v=100
122394 On ch=9 n=49 v=0
122400 On ch=9 n=48 v=100
122426 On ch=9 n=48 v=0
122432 On ch=9 n=47 v=100
122458 On ch=9 n=47 v=0
122464 On ch=9 n=46 v=100
122490 On ch=9 n=46 v=0
122496 Par ch=9 c=0 v=0
122496 Par ch=9 c=32 v=0
122496 PrCh ch=9 p=44
122496 On ch=9 n=45 v=100
122522 On ch=9 n=45 v=0
122528 On ch=9 n=44 v=100
122554 On ch=9 n=44 v=0
122560 On ch=9 n=43 v=100
122586 On ch=9 n=43 v=0
122592 On ch=9 n=42 v=100
122618 On ch=9 n=42 v=0
122624 On ch=9 n=41 v=100
122650 On ch=9 n=41 v=0
122656 On ch=9 n=40 v=100
122682 On ch=9 n=40 v=0
122688 On ch=9 n=39 v=100
122714 On ch=9 n=39 v=0
122720 On ch=9 n=38 v=100
122746 On ch=9 n=38 v=0
122752 On ch=9 n=37 v=100
122778 On ch=9 n=37 v=0
122784 On ch=9 n=36 v=100
122810 On ch=9 n=36 v=0
122816 On ch=9 n=34 v=100
122842 On ch=9 n=34 v=0
122848 On ch=9 n=33 v=100
122874 On ch=9 n=33 v=0
122880 Par ch=9 c=0 v=0
122880 Par ch=9 c=32 v=0
122880 PrCh ch=9 p=48
122880 On ch=9 n=31 v=47
124646 On ch=9 n=31 v=0
124800 Par ch=9 c=0 v=0
124800 Par ch=9 c=32 v=0
124800 PrCh ch=9 p=45
124800 On ch=9 n=55 v=127
124819 On ch=9 n=55 v=0
125568 Par ch=9 c=0 v=0
125568 Par ch=9 c=32 v=0
125568 PrCh ch=9 p=48
125568 On ch=9 n=55 v=111
125606 On ch=9 n=55 v=0
125640 On ch=9 n=55 v=111
125659 On ch=9 n=55 v=0
125664 On ch=9 n=55 v=111
125690 On ch=9 n=55 v=0
125696 On ch=9 n=55 v=111
125722 On ch=9 n=55 v=0
125728 On ch=9 n=55 v=111
125754 On ch=9 n=55 v=0
125760 On ch=9 n=55 v=111
125798 On ch=9 n=55 v=0
125832 On ch=9 n=55 v=111
125851 On ch=9 n=55 v=0
125856 On ch=9 n=55 v=111
125882 On ch=9 n=55 v=0
125888 On ch=9 n=55 v=111
125914 On ch=9 n=55 v=0
125920 On ch=9 n=55 v=111
125946 On ch=9 n=55 v=0
125952 On ch=9 n=55 v=111
125978 On ch=9 n=55 v=0
125984 On ch=9 n=54 v=111
126010 On ch=9 n=54 v=0
126016 On ch=9 n=53 v=111
126042 On ch=9 n=53 v=0
126048 On ch=9 n=51 v=111
126074 On ch=9 n=51 v=0
126080 On ch=9 n=50 v=111
126106 On ch=9 n=50 v=0
126112 On ch=9 n=48 v=111
126138 On ch=9 n=48 v=0
126144 On ch=9 n=47 v=111
126170 On ch=9 n=47 v=0
126176 On ch=9 n=44 v=111
126202 On ch=9 n=44 v=0
126208 On ch=9 n=43 v=111
126234 On ch=9 n=43 v=0
126240 On ch=9 n=41 v=111
126266 On ch=9 n=41 v=0
126272 On ch=9 n=39 v=111
126298 On ch=9 n=39 v=0
126304 On ch=9 n=38 v=111
126330 On ch=9 n=38 v=0
126336 On ch=9 n=48 v=127
126367 On ch=9 n=48 v=0
126384 On ch=9 n=36 v=127
126415 On ch=9 n=36 v=0
127104 On ch=9 n=39 v=127
127123 On ch=9 n=39 v=0
127128 On ch=9 n=38 v=127
127147 On ch=9 n=38 v=0
127152 On ch=9 n=39 v=127
127171 On ch=9 n=39 v=0
127176 On ch=9 n=41 v=127
127195 On ch=9 n=41 v=0
127200 On ch=9 n=43 v=127
127238 On ch=9 n=43 v=0
127320 On ch=9 n=36 v=127
127339 On ch=9 n=36 v=0
127344 On ch=9 n=38 v=127
127363 On ch=9 n=38 v=0
127368 On ch=9 n=39 v=127
127387 On ch=9 n=39 v=0
127392 On ch=9 n=41 v=127
127411 On ch=9 n=41 v=0
127416 On ch=9 n=43 v=127
127435 On ch=9 n=43 v=0
127440 On ch=9 n=45 v=127
127459 On ch=9 n=45 v=0
127464 On ch=9 n=47 v=127
127483 On ch=9 n=47 v=0
127488 On ch=9 n=48 v=127
127519 On ch=9 n=48 v=0
127560 On ch=9 n=43 v=127
127576 On ch=9 n=43 v=0
127584 On ch=9 n=36 v=127
127622 On ch=9 n=36 v=0
127824 On ch=9 n=31 v=95
127855 On ch=9 n=31 v=0
127872 Par ch=9 c=11 v=64
127872 On ch=9 n=36 v=95
127876 Par ch=9 c=11 v=63
127880 Par ch=9 c=11 v=62
127884 Par ch=9 c=11 v=61
127888 Par ch=9 c=11 v=60
127892 Par ch=9 c=11 v=59
127896 Par ch=9 c=11 v=58
127900 Par ch=9 c=11 v=57
127904 Par ch=9 c=11 v=56
127908 Par ch=9 c=11 v=55
127910 On ch=9 n=36 v=0
127912 Par ch=9 c=11 v=54
127916 Par ch=9 c=11 v=53
127920 Par ch=9 c=11 v=52
127924 Par ch=9 c=11 v=51
127928 Par ch=9 c=11 v=50
127932 Par ch=9 c=11 v=49
127936 Par ch=9 c=11 v=48
127940 Par ch=9 c=11 v=47
127944 Par ch=9 c=11 v=46
127944 On ch=9 n=31 v=95
127948 Par ch=9 c=11 v=45
127952 Par ch=9 c=11 v=44
127956 Par ch=9 c=11 v=43
127960 Par ch=9 c=11 v=42
127963 On ch=9 n=31 v=0
127964 Par ch=9 c=11 v=41
127968 Par ch=9 c=11 v=40
127968 On ch=9 n=36 v=95
127972 Par ch=9 c=11 v=39
127976 Par ch=9 c=11 v=38
127980 Par ch=9 c=11 v=37
127984 Par ch=9 c=11 v=36
127988 Par ch=9 c=11 v=35
127992 Par ch=9 c=11 v=34
127996 Par ch=9 c=11 v=33
128000 Par ch=9 c=11 v=32
128004 Par ch=9 c=11 v=31
128006 On ch=9 n=36 v=0
128008 Par ch=9 c=11 v=30
128012 Par ch=9 c=11 v=29
128016 Par ch=9 c=11 v=28
128020 Par ch=9 c=11 v=27
128024 Par ch=9 c=11 v=26
128028 Par ch=9 c=11 v=25
128032 Par ch=9 c=11 v=24
128036 Par ch=9 c=11 v=23
128040 Par ch=9 c=11 v=22
128040 On ch=9 n=31 v=95
128044 Par ch=9 c=11 v=21
128048 Par ch=9 c=11 v=20
128052 Par ch=9 c=11 v=19
128056 Par ch=9 c=11 v=18
128059 On ch=9 n=31 v=0
128060 Par ch=9 c=11 v=17
128064 On ch=9 n=36 v=95
128141 On ch=9 n=36 v=0
128208 Par ch=9 c=11 v=64
128208 On ch=9 n=31 v=47
128239 On ch=9 n=31 v=0
128256 On ch=9 n=36 v=47
128294 On ch=9 n=36 v=0
128328 On ch=9 n=31 v=47
128347 On ch=9 n=31 v=0
128352 On ch=9 n=24 v=47
128390 On ch=9 n=24 v=0
128496 On ch=9 n=30 v=47
128515 On ch=9 n=30 v=0
128520 On ch=9 n=31 v=47
128539 On ch=9 n=31 v=0
128544 On ch=9 n=33 v=47
128563 On ch=9 n=33 v=0
128568 On ch=9 n=31 v=47
128587 On ch=9 n=31 v=0
128592 On ch=9 n=33 v=47
128611 On ch=9 n=33 v=0
128616 On ch=9 n=35 v=47
128635 On ch=9 n=35 v=0
128640 On ch=9 n=36 v=47
128678 On ch=9 n=36 v=0
128712 On ch=9 n=31 v=47
128731 On ch=9 n=31 v=0
128736 On ch=9 n=24 v=47
128774 On ch=9 n=24 v=0
128856 On ch=9 n=36 v=47
128875 On ch=9 n=36 v=0
128880 On ch=9 n=38 v=47
128899 On ch=9 n=38 v=0
128904 On ch=9 n=39 v=47
128923 On ch=9 n=39 v=0
128928 On ch=9 n=41 v=47
128947 On ch=9 n=41 v=0
128952 On ch=9 n=43 v=47
128971 On ch=9 n=43 v=0
128976 On ch=9 n=45 v=47
128995 On ch=9 n=45 v=0
129000 On ch=9 n=47 v=47
129019 On ch=9 n=47 v=0
129024 On ch=9 n=48 v=47
129055 On ch=9 n=48 v=0
129096 On ch=9 n=43 v=47
129112 On ch=9 n=43 v=0
129120 On ch=9 n=36 v=47
129151 On ch=9 n=36 v=0
129360 On ch=9 n=43 v=47
129391 On ch=9 n=43 v=0
129408 On ch=9 n=48 v=47
129439 On ch=9 n=48 v=0
129480 On ch=9 n=43 v=47
129496 On ch=9 n=43 v=0
129504 On ch=9 n=48 v=47
129535 On ch=9 n=48 v=0
129576 On ch=9 n=43 v=47
129592 On ch=9 n=43 v=0
129600 On ch=9 n=48 v=47
129677 On ch=9 n=48 v=0
129744 On ch=9 n=43 v=47
129775 On ch=9 n=43 v=0
129792 On ch=9 n=48 v=47
129813 On ch=9 n=48 v=0
129824 On ch=9 n=47 v=47
129845 On ch=9 n=47 v=0
129856 On ch=9 n=48 v=47
129877 On ch=9 n=48 v=0
129888 On ch=9 n=50 v=47
129909 On ch=9 n=50 v=0
129920 On ch=9 n=48 v=47
129941 On ch=9 n=48 v=0
129952 On ch=9 n=47 v=47
129973 On ch=9 n=47 v=0
129984 On ch=9 n=48 v=43
130022 On ch=9 n=48 v=0
130056 On ch=9 n=43 v=40
130074 On ch=9 n=43 v=0
130080 On ch=9 n=44 v=37
130118 On ch=9 n=44 v=0
130152 On ch=9 n=42 v=34
130171 On ch=9 n=42 v=0
130176 On ch=9 n=43 v=31
130214 On ch=9 n=43 v=0
130248 On ch=9 n=39 v=31
130267 On ch=9 n=39 v=0
130272 On ch=9 n=43 v=31
130310 On ch=9 n=43 v=0
130344 On ch=9 n=39 v=31
130363 On ch=9 n=39 v=0
130368 On ch=9 n=43 v=31
130406 On ch=9 n=43 v=0
130440 On ch=9 n=39 v=31
130459 On ch=9 n=39 v=0
130464 On ch=9 n=41 v=31
130483 On ch=9 n=41 v=0
130488 On ch=9 n=39 v=31
130507 On ch=9 n=39 v=0
130512 On ch=9 n=38 v=31
130531 On ch=9 n=38 v=0
130536 On ch=9 n=39 v=31
130555 On ch=9 n=39 v=0
130560 On ch=9 n=43 v=31
130598 On ch=9 n=43 v=0
130632 On ch=9 n=39 v=31
130651 On ch=9 n=39 v=0
130656 On ch=9 n=43 v=31
130694 On ch=9 n=43 v=0
130728 On ch=9 n=39 v=31
130747 On ch=9 n=39 v=0
130752 On ch=9 n=43 v=31
130790 On ch=9 n=43 v=0
130824 On ch=9 n=39 v=31
130843 On ch=9 n=39 v=0
130848 On ch=9 n=44 v=31
130867 On ch=9 n=44 v=0
130872 On ch=9 n=43 v=31
130891 On ch=9 n=43 v=0
130896 On ch=9 n=41 v=31
130915 On ch=9 n=41 v=0
130920 On ch=9 n=39 v=31
130939 On ch=9 n=39 v=0
130944 On ch=9 n=43 v=31
130982 On ch=9 n=43 v=0
131016 On ch=9 n=38 v=31
131035 On ch=9 n=38 v=0
131040 On ch=9 n=31 v=31
131078 On ch=9 n=31 v=0
131168 On ch=9 n=41 v=31
131189 On ch=9 n=41 v=0
131200 On ch=9 n=43 v=31
131221 On ch=9 n=43 v=0
131232 On ch=9 n=44 v=31
131253 On ch=9 n=44 v=0
131264 On ch=9 n=41 v=31
131285 On ch=9 n=41 v=0
131296 On ch=9 n=50 v=31
131317 On ch=9 n=50 v=0
131328 On ch=9 n=43 v=31
131366 On ch=9 n=43 v=0
131400 On ch=9 n=38 v=31
131419 On ch=9 n=38 v=0
131424 On ch=9 n=31 v=31
131462 On ch=9 n=31 v=0
131552 On ch=9 n=41 v=31
131573 On ch=9 n=41 v=0
131584 On ch=9 n=43 v=31
131605 On ch=9 n=43 v=0
131616 On ch=9 n=44 v=31
131637 On ch=9 n=44 v=0
131648 On ch=9 n=41 v=31
131669 On ch=9 n=41 v=0
131680 On ch=9 n=50 v=31
131701 On ch=9 n=50 v=0
131712 On ch=9 n=43 v=31
131738 On ch=9 n=43 v=0
131744 On ch=9 n=39 v=31
131770 On ch=9 n=39 v=0
131776 On ch=9 n=48 v=31
131802 On ch=9 n=48 v=0
131808 On ch=9 n=41 v=31
131834 On ch=9 n=41 v=0
131840 On ch=9 n=38 v=31
131866 On ch=9 n=38 v=0
131872 On ch=9 n=46 v=31
131898 On ch=9 n=46 v=0
131904 On ch=9 n=39 v=31
131930 On ch=9 n=39 v=0
131936 On ch=9 n=36 v=31
131962 On ch=9 n=36 v=0
131968 On ch=9 n=44 v=31
131994 On ch=9 n=44 v=0
132000 On ch=9 n=38 v=31
132026 On ch=9 n=38 v=0
132032 On ch=9 n=31 v=31
132058 On ch=9 n=31 v=0
132064 On ch=9 n=43 v=31
132090 On ch=9 n=43 v=0
132096 On ch=9 n=44 v=31
132122 On ch=9 n=44 v=0
132128 On ch=9 n=41 v=31
132154 On ch=9 n=41 v=0
132160 On ch=9 n=50 v=31
132186 On ch=9 n=50 v=0
132192 On ch=9 n=43 v=31
132218 On ch=9 n=43 v=0
132224 On ch=9 n=39 v=31
132250 On ch=9 n=39 v=0
132256 On ch=9 n=48 v=31
132282 On ch=9 n=48 v=0
132288 On ch=9 n=41 v=31
132314 On ch=9 n=41 v=0
132320 On ch=9 n=38 v=31
132346 On ch=9 n=38 v=0
132352 On ch=9 n=46 v=31
132378 On ch=9 n=46 v=0
132384 On ch=9 n=39 v=31
132410 On ch=9 n=39 v=0
132416 On ch=9 n=36 v=31
132442 On ch=9 n=36 v=0
132448 On ch=9 n=44 v=31
132474 On ch=9 n=44 v=0
132480 On ch=9 n=43 v=31
132518 On ch=9 n=43 v=0
132552 On ch=9 n=38 v=31
132571 On ch=9 n=38 v=0
132576 On ch=9 n=31 v=31
132614 On ch=9 n=31 v=0
132720 On ch=9 n=38 v=31
132739 On ch=9 n=38 v=0
132744 On ch=9 n=39 v=31
132763 On ch=9 n=39 v=0
132768 On ch=9 n=41 v=31
132787 On ch=9 n=41 v=0
132792 On ch=9 n=39 v=31
132811 On ch=9 n=39 v=0
132816 On ch=9 n=41 v=31
132835 On ch=9 n=41 v=0
132840 On ch=9 n=38 v=31
132859 On ch=9 n=38 v=0
132864 On ch=9 n=43 v=31
132902 On ch=9 n=43 v=0
132936 On ch=9 n=38 v=31
132955 On ch=9 n=38 v=0
132960 On ch=9 n=31 v=31
132998 On ch=9 n=31 v=0
133104 On ch=9 n=30 v=31
133123 On ch=9 n=30 v=0
133128 On ch=9 n=31 v=31
133147 On ch=9 n=31 v=0
133152 On ch=9 n=32 v=31
133171 On ch=9 n=32 v=0
133176 On ch=9 n=31 v=31
133195 On ch=9 n=31 v=0
133200 On ch=9 n=29 v=31
133219 On ch=9 n=29 v=0
133224 On ch=9 n=26 v=31
133243 On ch=9 n=26 v=0
133248 Par ch=9 c=11 v=64
133248 On ch=9 n=36 v=31
133279 On ch=9 n=36 v=0
133288 Par ch=9 c=11 v=65
133320 On ch=9 n=31 v=31
133324 Par ch=9 c=11 v=66
133336 On ch=9 n=31 v=0
133344 On ch=9 n=36 v=31
133364 Par ch=9 c=11 v=67
133375 On ch=9 n=36 v=0
133400 Par ch=9 c=11 v=68
133416 On ch=9 n=31 v=31
133432 On ch=9 n=31 v=0
133440 Par ch=9 c=11 v=69
133440 On ch=9 n=36 v=31
133476 Par ch=9 c=11 v=70
133516 Par ch=9 c=11 v=71
133517 On ch=9 n=36 v=0
133552 Par ch=9 c=11 v=72
133584 On ch=9 n=31 v=31
133592 Par ch=9 c=11 v=73
133615 On ch=9 n=31 v=0
133628 Par ch=9 c=11 v=74
133632 On ch=9 n=36 v=31
133664 Par ch=9 c=11 v=75
133704 Par ch=9 c=11 v=76
133709 On ch=9 n=36 v=0
133740 Par ch=9 c=11 v=77
133776 On ch=9 n=31 v=31
133780 Par ch=9 c=11 v=78
133807 On ch=9 n=31 v=0
133816 Par ch=9 c=11 v=79
133824 On ch=9 n=36 v=31
133856 Par ch=9 c=11 v=80
133892 Par ch=9 c=11 v=81
133901 On ch=9 n=36 v=0
133932 Par ch=9 c=11 v=82
133968 Par ch=9 c=11 v=83
133968 On ch=9 n=31 v=31
133999 On ch=9 n=31 v=0
134008 Par ch=9 c=11 v=84
134016 On ch=9 n=36 v=31
134044 Par ch=9 c=11 v=85
134080 Par ch=9 c=11 v=86
134093 On ch=9 n=36 v=0
134120 Par ch=9 c=11 v=87
134156 Par ch=9 c=11 v=88
134160 On ch=9 n=31 v=31
134191 On ch=9 n=31 v=0
134196 Par ch=9 c=11 v=89
134208 On ch=9 n=36 v=31
134232 Par ch=9 c=11 v=90
134234 On ch=9 n=36 v=0
134240 On ch=9 n=31 v=31
134266 On ch=9 n=31 v=0
134272 Par ch=9 c=11 v=91
134272 On ch=9 n=36 v=31
134298 On ch=9 n=36 v=0
134304 On ch=9 n=31 v=31
134308 Par ch=9 c=11 v=92
134330 On ch=9 n=31 v=0
134336 On ch=9 n=36 v=31
134348 Par ch=9 c=11 v=93
134362 On ch=9 n=36 v=0
134368 On ch=9 n=31 v=31
134384 Par ch=9 c=11 v=94
134394 On ch=9 n=31 v=0
134400 On ch=9 n=36 v=31
134424 Par ch=9 c=11 v=95
134438 On ch=9 n=36 v=0
134460 Par ch=9 c=11 v=96
134472 On ch=9 n=43 v=31
134491 On ch=9 n=43 v=0
134496 On ch=9 n=48 v=31
134534 On ch=9 n=48 v=0
134640 Par ch=9 c=11 v=64
134640 On ch=9 n=46 v=63
134652 Par ch=9 c=11 v=65
134659 On ch=9 n=46 v=0
134660 Par ch=9 c=11 v=66
134664 On ch=9 n=44 v=63
134668 Par ch=9 c=11 v=67
134676 Par ch=9 c=11 v=68
134683 On ch=9 n=44 v=0
134684 Par ch=9 c=11 v=69
134688 On ch=9 n=43 v=63
134692 Par ch=9 c=11 v=70
134700 Par ch=9 c=11 v=71
134707 On ch=9 n=43 v=0
134708 Par ch=9 c=11 v=72
134712 On ch=9 n=41 v=63
134720 Par ch=9 c=11 v=73
134728 Par ch=9 c=11 v=74
134731 On ch=9 n=41 v=0
134736 Par ch=9 c=11 v=75
134736 On ch=9 n=39 v=63
134744 Par ch=9 c=11 v=76
134752 Par ch=9 c=11 v=77
134755 On ch=9 n=39 v=0
134760 Par ch=9 c=11 v=78
134760 On ch=9 n=38 v=63
134768 Par ch=9 c=11 v=79
134776 Par ch=9 c=11 v=80
134779 On ch=9 n=38 v=0
134784 Par ch=9 c=11 v=64
134784 On ch=9 n=36 v=79
134822 On ch=9 n=36 v=0
134856 On ch=9 n=31 v=79
134875 On ch=9 n=31 v=0
134880 On ch=9 n=24 v=79
134918 On ch=9 n=24 v=0
135008 Par ch=9 c=11 v=64
135008 On ch=9 n=31 v=79
135020 Par ch=9 c=11 v=65
135028 Par ch=9 c=11 v=66
135034 On ch=9 n=31 v=0
135040 Par ch=9 c=11 v=67
135040 On ch=9 n=36 v=79
135048 Par ch=9 c=11 v=68
135056 Par ch=9 c=11 v=69
135066 On ch=9 n=36 v=0
135068 Par ch=9 c=11 v=70
135072 On ch=9 n=31 v=79
135076 Par ch=9 c=11 v=71
135084 Par ch=9 c=11 v=72
135096 Par ch=9 c=11 v=73
135098 On ch=9 n=31 v=0
135104 Par ch=9 c=11 v=74
135104 On ch=9 n=36 v=79
135112 Par ch=9 c=11 v=75
135124 Par ch=9 c=11 v=76
135130 On ch=9 n=36 v=0
135132 Par ch=9 c=11 v=77
135136 On ch=9 n=31 v=79
135140 Par ch=9 c=11 v=78
135152 Par ch=9 c=11 v=79
135160 Par ch=9 c=11 v=80
135162 On ch=9 n=31 v=0
135168 Par ch=9 c=11 v=64
135168 On ch=9 n=36 v=95
135206 On ch=9 n=36 v=0
135240 On ch=9 n=31 v=95
135259 On ch=9 n=31 v=0
135264 On ch=9 n=24 v=95
135302 On ch=9 n=24 v=0
135392 Par ch=9 c=11 v=64
135392 On ch=9 n=31 v=95
135404 Par ch=9 c=11 v=65
135412 Par ch=9 c=11 v=66
135413 On ch=9 n=31 v=0
135424 Par ch=9 c=11 v=67
135424 On ch=9 n=36 v=95
135432 Par ch=9 c=11 v=68
135440 Par ch=9 c=11 v=69
135445 On ch=9 n=36 v=0
135452 Par ch=9 c=11 v=70
135456 On ch=9 n=43 v=95
135460 Par ch=9 c=11 v=71
135468 Par ch=9 c=11 v=72
135477 On ch=9 n=43 v=0
135480 Par ch=9 c=11 v=73
135488 Par ch=9 c=11 v=74
135488 On ch=9 n=46 v=95
135496 Par ch=9 c=11 v=75
135508 Par ch=9 c=11 v=76
135509 On ch=9 n=46 v=0
135516 Par ch=9 c=11 v=77
135520 On ch=9 n=49 v=95
135524 Par ch=9 c=11 v=78
135536 Par ch=9 c=11 v=79
135541 On ch=9 n=49 v=0
135544 Par ch=9 c=11 v=80
135552 Par ch=9 c=11 v=64
135552 On ch=9 n=48 v=111
135583 On ch=9 n=48 v=0
135624 On ch=9 n=46 v=111
135640 On ch=9 n=46 v=0
135648 On ch=9 n=44 v=111
135679 On ch=9 n=44 v=0
135720 On ch=9 n=43 v=111
135736 On ch=9 n=43 v=0
135744 On ch=9 n=41 v=111
135775 On ch=9 n=41 v=0
135816 On ch=9 n=39 v=111
135832 On ch=9 n=39 v=0
135840 On ch=9 n=37 v=111
135871 On ch=9 n=37 v=0
135912 On ch=9 n=36 v=111
135928 On ch=9 n=36 v=0
135936 On ch=9 n=44 v=111
135967 On ch=9 n=44 v=0
136008 On ch=9 n=43 v=111
136024 On ch=9 n=43 v=0
136032 On ch=9 n=41 v=111
136063 On ch=9 n=41 v=0
136104 On ch=9 n=39 v=111
136120 On ch=9 n=39 v=0
136128 On ch=9 n=37 v=111
136159 On ch=9 n=37 v=0
136200 On ch=9 n=36 v=111
136216 On ch=9 n=36 v=0
136224 On ch=9 n=34 v=111
136255 On ch=9 n=34 v=0
136296 On ch=9 n=32 v=111
136312 On ch=9 n=32 v=0
136320 On ch=9 n=31 v=111
136358 On ch=9 n=31 v=0
137088 Par ch=9 c=11 v=64
137088 On ch=9 n=36 v=127
137092 Par ch=9 c=11 v=63
137096 Par ch=9 c=11 v=62
137100 Par ch=9 c=11 v=61
137104 Par ch=9 c=11 v=60
137108 Par ch=9 c=11 v=59
137109 On ch=9 n=36 v=0
137112 Par ch=9 c=11 v=58
137116 Par ch=9 c=11 v=57
137120 Par ch=9 c=11 v=56
137120 On ch=9 n=35 v=127
137124 Par ch=9 c=11 v=55
137128 Par ch=9 c=11 v=54
137132 Par ch=9 c=11 v=53
137136 Par ch=9 c=11 v=52
137140 Par ch=9 c=11 v=51
137141 On ch=9 n=35 v=0
137144 Par ch=9 c=11 v=50
137148 Par ch=9 c=11 v=49
137152 Par ch=9 c=11 v=48
137152 On ch=9 n=36 v=127
137156 Par ch=9 c=11 v=47
137160 Par ch=9 c=11 v=46
137164 Par ch=9 c=11 v=45
137168 Par ch=9 c=11 v=44
137172 Par ch=9 c=11 v=43
137173 On ch=9 n=36 v=0
137176 Par ch=9 c=11 v=42
137180 Par ch=9 c=11 v=41
137184 Par ch=9 c=11 v=40
137184 On ch=9 n=38 v=127
137188 Par ch=9 c=11 v=39
137192 Par ch=9 c=11 v=38
137196 Par ch=9 c=11 v=37
137200 Par ch=9 c=11 v=36
137204 Par ch=9 c=11 v=35
137205 On ch=9 n=38 v=0
137208 Par ch=9 c=11 v=34
137212 Par ch=9 c=11 v=33
137216 Par ch=9 c=11 v=32
137216 On ch=9 n=36 v=127
137220 Par ch=9 c=11 v=31
137224 Par ch=9 c=11 v=30
137228 Par ch=9 c=11 v=29
137232 Par ch=9 c=11 v=28
137236 Par ch=9 c=11 v=27
137237 On ch=9 n=36 v=0
137240 Par ch=9 c=11 v=26
137244 Par ch=9 c=11 v=25
137248 Par ch=9 c=11 v=24
137248 On ch=9 n=35 v=127
137252 Par ch=9 c=11 v=23
137256 Par ch=9 c=11 v=22
137260 Par ch=9 c=11 v=21
137264 Par ch=9 c=11 v=20
137268 Par ch=9 c=11 v=19
137269 On ch=9 n=35 v=0
137272 Par ch=9 c=11 v=18
137276 Par ch=9 c=11 v=17
137280 On ch=9 n=36 v=127
137357 On ch=9 n=36 v=0
137472 Par ch=9 c=11 v=64
137472 On ch=9 n=36 v=95
137480 Par ch=9 c=11 v=63
137484 Par ch=9 c=11 v=62
137492 Par ch=9 c=11 v=61
137493 On ch=9 n=36 v=0
137496 Par ch=9 c=11 v=60
137504 Par ch=9 c=11 v=59
137504 On ch=9 n=35 v=95
137508 Par ch=9 c=11 v=58
137516 Par ch=9 c=11 v=57
137520 Par ch=9 c=11 v=56
137525 On ch=9 n=35 v=0
137528 Par ch=9 c=11 v=55
137532 Par ch=9 c=11 v=54
137536 On ch=9 n=36 v=95
137540 Par ch=9 c=11 v=53
137544 Par ch=9 c=11 v=52
137552 Par ch=9 c=11 v=51
137556 Par ch=9 c=11 v=50
137557 On ch=9 n=36 v=0
137564 Par ch=9 c=11 v=49
137568 Par ch=9 c=11 v=48
137568 On ch=9 n=38 v=95
137576 Par ch=9 c=11 v=47
137580 Par ch=9 c=11 v=46
137588 Par ch=9 c=11 v=45
137589 On ch=9 n=38 v=0
137592 Par ch=9 c=11 v=44
137600 Par ch=9 c=11 v=43
137600 On ch=9 n=36 v=95
137604 Par ch=9 c=11 v=42
137612 Par ch=9 c=11 v=41
137616 Par ch=9 c=11 v=40
137621 On ch=9 n=36 v=0
137624 Par ch=9 c=11 v=39
137628 Par ch=9 c=11 v=38
137632 On ch=9 n=35 v=95
137636 Par ch=9 c=11 v=37
137640 Par ch=9 c=11 v=36
137648 Par ch=9 c=11 v=35
137652 Par ch=9 c=11 v=34
137653 On ch=9 n=35 v=0
137660 Par ch=9 c=11 v=33
137664 Par ch=9 c=11 v=32
137664 On ch=9 n=36 v=95
137741 On ch=9 n=36 v=0
137856 Par ch=9 c=11 v=64
137856 On ch=9 n=36 v=79
137868 Par ch=9 c=11 v=63
137877 On ch=9 n=36 v=0
137880 Par ch=9 c=11 v=62
137888 On ch=9 n=35 v=79
137892 Par ch=9 c=11 v=61
137904 Par ch=9 c=11 v=60
137909 On ch=9 n=35 v=0
137916 Par ch=9 c=11 v=59
137920 On ch=9 n=36 v=79
137928 Par ch=9 c=11 v=58
137940 Par ch=9 c=11 v=57
137941 On ch=9 n=36 v=0
137952 Par ch=9 c=11 v=56
137952 On ch=9 n=38 v=79
137964 Par ch=9 c=11 v=55
137973 On ch=9 n=38 v=0
137976 Par ch=9 c=11 v=54
137984 On ch=9 n=36 v=79
137988 Par ch=9 c=11 v=53
138000 Par ch=9 c=11 v=52
138005 On ch=9 n=36 v=0
138012 Par ch=9 c=11 v=51
138016 On ch=9 n=35 v=79
138024 Par ch=9 c=11 v=50
138036 Par ch=9 c=11 v=49
138037 On ch=9 n=35 v=0
138048 Par ch=9 c=11 v=48
138048 On ch=9 n=36 v=79
138125 On ch=9 n=36 v=0
138240 Par ch=9 c=11 v=64
138240 On ch=9 n=35 v=47
138266 On ch=9 n=35 v=0
138272 Par ch=9 c=11 v=64
138272 On ch=9 n=34 v=127
138280 Par ch=9 c=11 v=63
138284 Par ch=9 c=11 v=62
138288 Par ch=9 c=11 v=61
138292 Par ch=9 c=11 v=60
138298 On ch=9 n=34 v=0
138300 Par ch=9 c=11 v=59
138304 Par ch=9 c=11 v=58
138304 On ch=9 n=35 v=127
138308 Par ch=9 c=11 v=57
138312 Par ch=9 c=11 v=56
138320 Par ch=9 c=11 v=55
138324 Par ch=9 c=11 v=54
138328 Par ch=9 c=11 v=53
138330 On ch=9 n=35 v=0
138332 Par ch=9 c=11 v=52
138336 On ch=9 n=37 v=127
138340 Par ch=9 c=11 v=51
138344 Par ch=9 c=11 v=50
138348 Par ch=9 c=11 v=49
138352 Par ch=9 c=11 v=48
138360 Par ch=9 c=11 v=47
138362 On ch=9 n=37 v=0
138364 Par ch=9 c=11 v=46
138368 Par ch=9 c=11 v=45
138368 On ch=9 n=35 v=127
138372 Par ch=9 c=11 v=44
138380 Par ch=9 c=11 v=43
138384 Par ch=9 c=11 v=42
138388 Par ch=9 c=11 v=41
138392 Par ch=9 c=11 v=40
138394 On ch=9 n=35 v=0
138400 Par ch=9 c=11 v=39
138400 On ch=9 n=34 v=127
138404 Par ch=9 c=11 v=38
138408 Par ch=9 c=11 v=37
138412 Par ch=9 c=11 v=36
138420 Par ch=9 c=11 v=35
138424 Par ch=9 c=11 v=34
138426 On ch=9 n=34 v=0
138428 Par ch=9 c=11 v=33
138432 Par ch=9 c=11 v=32
138432 On ch=9 n=35 v=127
138509 On ch=9 n=35 v=0
138624 Par ch=9 c=11 v=64
138624 On ch=9 n=35 v=127
138628 Par ch=9 c=11 v=63
138632 Par ch=9 c=11 v=62
138636 Par ch=9 c=11 v=61
138640 Par ch=9 c=11 v=60
138644 Par ch=9 c=11 v=59
138648 Par ch=9 c=11 v=58
138650 On ch=9 n=35 v=0
138652 Par ch=9 c=11 v=57
138656 Par ch=9 c=11 v=56
138656 On ch=9 n=34 v=127
138660 Par ch=9 c=11 v=55
138664 Par ch=9 c=11 v=54
138668 Par ch=9 c=11 v=53
138672 Par ch=9 c=11 v=52
138676 Par ch=9 c=11 v=51
138680 Par ch=9 c=11 v=50
138682 On ch=9 n=34 v=0
138684 Par ch=9 c=11 v=49
138688 Par ch=9 c=11 v=48
138688 On ch=9 n=35 v=127
138692 Par ch=9 c=11 v=47
138696 Par ch=9 c=11 v=46
138700 Par ch=9 c=11 v=45
138704 Par ch=9 c=11 v=44
138708 Par ch=9 c=11 v=43
138712 Par ch=9 c=11 v=42
138714 On ch=9 n=35 v=0
138716 Par ch=9 c=11 v=41
138720 Par ch=9 c=11 v=40
138720 On ch=9 n=37 v=127
138724 Par ch=9 c=11 v=39
138728 Par ch=9 c=11 v=38
138732 Par ch=9 c=11 v=37
138736 Par ch=9 c=11 v=36
138740 Par ch=9 c=11 v=35
138744 Par ch=9 c=11 v=34
138746 On ch=9 n=37 v=0
138748 Par ch=9 c=11 v=33
138752 Par ch=9 c=11 v=32
138752 On ch=9 n=35 v=127
138756 Par ch=9 c=11 v=31
138760 Par ch=9 c=11 v=30
138764 Par ch=9 c=11 v=29
138768 Par ch=9 c=11 v=28
138772 Par ch=9 c=11 v=27
138776 Par ch=9 c=11 v=26
138778 On ch=9 n=35 v=0
138780 Par ch=9 c=11 v=25
138784 Par ch=9 c=11 v=24
138784 On ch=9 n=34 v=127
138788 Par ch=9 c=11 v=23
138792 Par ch=9 c=11 v=22
138796 Par ch=9 c=11 v=21
138800 Par ch=9 c=11 v=20
138804 Par ch=9 c=11 v=19
138808 Par ch=9 c=11 v=18
138810 On ch=9 n=34 v=0
138812 Par ch=9 c=11 v=17
138816 On ch=9 n=35 v=127
138893 On ch=9 n=35 v=0
139008 Par ch=9 c=11 v=64
139008 On ch=9 n=35 v=31
139034 On ch=9 n=35 v=0
139040 On ch=9 n=34 v=31
139066 On ch=9 n=34 v=0
139072 On ch=9 n=35 v=31
139098 On ch=9 n=35 v=0
139104 On ch=9 n=37 v=31
139130 On ch=9 n=37 v=0
139136 On ch=9 n=35 v=31
139162 On ch=9 n=35 v=0
139168 On ch=9 n=34 v=31
139194 On ch=9 n=34 v=0
139200 On ch=9 n=35 v=31
139277 On ch=9 n=35 v=0
139392 Par ch=9 c=11 v=64
139392 On ch=9 n=35 v=31
139404 Par ch=9 c=11 v=63
139416 Par ch=9 c=11 v=62
139418 On ch=9 n=35 v=0
139424 On ch=9 n=34 v=31
139428 Par ch=9 c=11 v=61
139440 Par ch=9 c=11 v=60
139450 On ch=9 n=34 v=0
139452 Par ch=9 c=11 v=59
139456 On ch=9 n=35 v=31
139464 Par ch=9 c=11 v=58
139476 Par ch=9 c=11 v=57
139482 On ch=9 n=35 v=0
139488 Par ch=9 c=11 v=56
139488 On ch=9 n=37 v=31
139500 Par ch=9 c=11 v=55
139512 Par ch=9 c=11 v=54
139514 On ch=9 n=37 v=0
139520 On ch=9 n=35 v=31
139524 Par ch=9 c=11 v=53
139536 Par ch=9 c=11 v=52
139546 On ch=9 n=35 v=0
139548 Par ch=9 c=11 v=51
139552 On ch=9 n=34 v=31
139560 Par ch=9 c=11 v=50
139572 Par ch=9 c=11 v=49
139578 On ch=9 n=34 v=0
139584 Par ch=9 c=11 v=48
139584 On ch=9 n=35 v=31
139661 On ch=9 n=35 v=0
139776 On ch=9 n=33 v=31
140006 On ch=9 n=33 v=0
140064 On ch=9 n=28 v=31
140141 On ch=9 n=28 v=0
140160 Par ch=9 c=11 v=48
140160 On ch=9 n=33 v=31
140184 Par ch=9 c=11 v=47
140204 Par ch=9 c=11 v=46
140224 Par ch=9 c=11 v=45
140248 Par ch=9 c=11 v=44
140268 Par ch=9 c=11 v=43
140288 Par ch=9 c=11 v=42
140312 Par ch=9 c=11 v=41
140332 Par ch=9 c=11 v=40
140352 Par ch=9 c=11 v=39
140376 Par ch=9 c=11 v=38
140390 On ch=9 n=33 v=0
140396 Par ch=9 c=11 v=37
140416 Par ch=9 c=11 v=36
140440 Par ch=9 c=11 v=35
140448 On ch=9 n=28 v=31
140460 Par ch=9 c=11 v=34
140480 Par ch=9 c=11 v=33
140504 Par ch=9 c=11 v=32
140525 On ch=9 n=28 v=0
140544 On ch=9 n=33 v=31
140621 On ch=9 n=33 v=0
140928 Par ch=9 c=11 v=64
141312 On ch=9 n=33 v=15
141312 On ch=9 n=40 v=15
141696 Par ch=9 c=11 v=64
141720 Par ch=9 c=11 v=63
141744 Par ch=9 c=11 v=62
141764 Par ch=9 c=11 v=61
141788 Par ch=9 c=11 v=60
141812 Par ch=9 c=11 v=59
141832 Par ch=9 c=11 v=58
141856 Par ch=9 c=11 v=57
141880 Par ch=9 c=11 v=56
141900 Par ch=9 c=11 v=55
141924 Par ch=9 c=11 v=54
141948 Par ch=9 c=11 v=53
141968 Par ch=9 c=11 v=52
141992 Par ch=9 c=11 v=51
142003 On ch=9 n=40 v=0
142003 On ch=9 n=33 v=0
142016 Par ch=9 c=11 v=50
142036 Par ch=9 c=11 v=49
142060 Par ch=9 c=11 v=48
142464 Par ch=9 c=11 v=64
144768 On ch=9 n=40 v=31
144768 On ch=9 n=28 v=31
147533 On ch=9 n=28 v=0
147533 On ch=9 n=40 v=0
150528 On ch=9 n=36 v=15
150605 On ch=9 n=36 v=0
150624 On ch=9 n=35 v=15
150701 On ch=9 n=35 v=0
150720 On ch=9 n=34 v=15
150797 On ch=9 n=34 v=0
150816 On ch=9 n=33 v=15
150837 On ch=9 n=33 v=0
150848 On ch=9 n=32 v=15
150869 On ch=9 n=32 v=0
150880 On ch=9 n=31 v=15
150901 On ch=9 n=31 v=0
150912 On ch=9 n=36 v=15
150989 On ch=9 n=36 v=0
151008 On ch=9 n=35 v=15
151085 On ch=9 n=35 v=0
151104 On ch=9 n=34 v=15
151181 On ch=9 n=34 v=0
151200 On ch=9 n=33 v=15
151221 On ch=9 n=33 v=0
151232 On ch=9 n=32 v=15
151253 On ch=9 n=32 v=0
151264 On ch=9 n=31 v=15
151285 On ch=9 n=31 v=0
151296 On ch=9 n=36 v=15
151373 On ch=9 n=36 v=0
151392 On ch=9 n=35 v=15
151469 On ch=9 n=35 v=0
151488 On ch=9 n=34 v=15
151565 On ch=9 n=34 v=0
151584 On ch=9 n=33 v=15
151605 On ch=9 n=33 v=0
151616 On ch=9 n=32 v=15
151637 On ch=9 n=32 v=0
151648 On ch=9 n=31 v=15
151669 On ch=9 n=31 v=0
151680 On ch=9 n=36 v=15
151757 On ch=9 n=36 v=0
151776 On ch=9 n=35 v=15
151853 On ch=9 n=35 v=0
151872 On ch=9 n=34 v=15
151949 On ch=9 n=34 v=0
151968 On ch=9 n=33 v=15
151989 On ch=9 n=33 v=0
152000 On ch=9 n=32 v=15
152021 On ch=9 n=32 v=0
152032 On ch=9 n=31 v=15
152053 On ch=9 n=31 v=0
152064 On ch=9 n=36 v=15
152141 On ch=9 n=36 v=0
152160 On ch=9 n=35 v=15
152237 On ch=9 n=35 v=0
152256 On ch=9 n=34 v=15
152333 On ch=9 n=34 v=0
152352 On ch=9 n=33 v=15
152373 On ch=9 n=33 v=0
152384 On ch=9 n=32 v=15
152405 On ch=9 n=32 v=0
152416 On ch=9 n=31 v=15
152437 On ch=9 n=31 v=0
152448 On ch=9 n=36 v=15
152525 On ch=9 n=36 v=0
152544 On ch=9 n=35 v=15
152621 On ch=9 n=35 v=0
152640 On ch=9 n=34 v=15
152717 On ch=9 n=34 v=0
152736 On ch=9 n=33 v=15
152757 On ch=9 n=33 v=0
152768 On ch=9 n=32 v=15
152789 On ch=9 n=32 v=0
152800 On ch=9 n=31 v=15
152821 On ch=9 n=31 v=0
152832 On ch=9 n=36 v=15
152909 On ch=9 n=36 v=0
152928 On ch=9 n=35 v=15
153005 On ch=9 n=35 v=0
153024 On ch=9 n=34 v=15
153101 On ch=9 n=34 v=0
153120 On ch=9 n=33 v=15
153141 On ch=9 n=33 v=0
153152 On ch=9 n=32 v=15
153173 On ch=9 n=32 v=0
153184 On ch=9 n=31 v=15
153205 On ch=9 n=31 v=0
153216 On ch=9 n=36 v=15
153293 On ch=9 n=36 v=0
153312 On ch=9 n=35 v=15
153389 On ch=9 n=35 v=0
153408 On ch=9 n=34 v=15
153485 On ch=9 n=34 v=0
153504 On ch=9 n=33 v=15
153525 On ch=9 n=33 v=0
153536 On ch=9 n=32 v=15
153557 On ch=9 n=32 v=0
153568 On ch=9 n=31 v=15
153589 On ch=9 n=31 v=0
153600 On ch=9 n=36 v=15
153677 On ch=9 n=36 v=0
153696 On ch=9 n=35 v=15
153773 On ch=9 n=35 v=0
153792 On ch=9 n=34 v=15
153869 On ch=9 n=34 v=0
153888 On ch=9 n=33 v=15
153909 On ch=9 n=33 v=0
153920 On ch=9 n=32 v=15
153941 On ch=9 n=32 v=0
153952 On ch=9 n=31 v=15
153973 On ch=9 n=31 v=0
153984 On ch=9 n=36 v=15
154022 On ch=9 n=36 v=0
154728 On ch=9 n=31 v=15
154747 On ch=9 n=31 v=0
154752 On ch=9 n=36 v=15
154773 On ch=9 n=36 v=0
154784 On ch=9 n=35 v=15
154805 On ch=9 n=35 v=0
154816 On ch=9 n=36 v=15
154837 On ch=9 n=36 v=0
154848 On ch=9 n=38 v=15
154869 On ch=9 n=38 v=0
154880 On ch=9 n=36 v=15
154901 On ch=9 n=36 v=0
154912 On ch=9 n=35 v=15
154933 On ch=9 n=35 v=0
154944 On ch=9 n=36 v=15
154982 On ch=9 n=36 v=0
155136 On ch=9 n=36 v=15
155167 On ch=9 n=36 v=0
155208 On ch=9 n=31 v=15
155224 On ch=9 n=31 v=0
155232 On ch=9 n=24 v=15
155263 On ch=9 n=24 v=0
155424 On ch=9 n=30 v=15
155440 On ch=9 n=30 v=0
155448 On ch=9 n=31 v=15
155464 On ch=9 n=31 v=0
155472 On ch=9 n=33 v=15
155488 On ch=9 n=33 v=0
155496 On ch=9 n=35 v=15
155512 On ch=9 n=35 v=0
155520 On ch=9 n=36 v=31
155558 On ch=9 n=36 v=0
155592 On ch=9 n=31 v=31
155611 On ch=9 n=31 v=0
155616 On ch=9 n=24 v=31
155654 On ch=9 n=24 v=0
155736 On ch=9 n=36 v=31
155752 On ch=9 n=36 v=0
155760 On ch=9 n=38 v=31
155776 On ch=9 n=38 v=0
155784 On ch=9 n=39 v=31
155800 On ch=9 n=39 v=0
155808 On ch=9 n=41 v=31
155824 On ch=9 n=41 v=0
155832 On ch=9 n=43 v=31
155848 On ch=9 n=43 v=0
155856 On ch=9 n=45 v=31
155872 On ch=9 n=45 v=0
155880 On ch=9 n=47 v=31
155896 On ch=9 n=47 v=0
155904 On ch=9 n=48 v=31
155925 On ch=9 n=48 v=0
155936 On ch=9 n=43 v=31
155957 On ch=9 n=43 v=0
155968 On ch=9 n=39 v=31
155989 On ch=9 n=39 v=0
156000 On ch=9 n=46 v=31
156021 On ch=9 n=46 v=0
156032 On ch=9 n=41 v=31
156053 On ch=9 n=41 v=0
156064 On ch=9 n=38 v=31
156085 On ch=9 n=38 v=0
156096 On ch=9 n=44 v=31
156117 On ch=9 n=44 v=0
156128 On ch=9 n=39 v=31
156149 On ch=9 n=39 v=0
156160 On ch=9 n=36 v=31
156181 On ch=9 n=36 v=0
156192 On ch=9 n=43 v=31
156213 On ch=9 n=43 v=0
156224 On ch=9 n=38 v=31
156245 On ch=9 n=38 v=0
156256 On ch=9 n=31 v=31
156277 On ch=9 n=31 v=0
156288 On ch=9 n=50 v=31
156314 On ch=9 n=50 v=0
156320 On ch=9 n=44 v=31
156346 On ch=9 n=44 v=0
156352 On ch=9 n=41 v=31
156378 On ch=9 n=41 v=0
156384 On ch=9 n=48 v=31
156410 On ch=9 n=48 v=0
156416 On ch=9 n=43 v=31
156442 On ch=9 n=43 v=0
156448 On ch=9 n=39 v=31
156474 On ch=9 n=39 v=0
156480 On ch=9 n=46 v=31
156506 On ch=9 n=46 v=0
156512 On ch=9 n=41 v=31
156538 On ch=9 n=41 v=0
156544 On ch=9 n=38 v=31
156570 On ch=9 n=38 v=0
156576 On ch=9 n=44 v=31
156602 On ch=9 n=44 v=0
156608 On ch=9 n=39 v=31
156634 On ch=9 n=39 v=0
156640 On ch=9 n=36 v=31
156666 On ch=9 n=36 v=0
156672 On ch=9 n=43 v=31
156693 On ch=9 n=43 v=0
156704 On ch=9 n=44 v=31
156725 On ch=9 n=44 v=0
156736 On ch=9 n=43 v=31
156757 On ch=9 n=43 v=0
156768 On ch=9 n=41 v=31
156789 On ch=9 n=41 v=0
156800 On ch=9 n=39 v=31
156821 On ch=9 n=39 v=0
156832 On ch=9 n=38 v=31
156853 On ch=9 n=38 v=0
156864 On ch=9 n=43 v=31
156902 On ch=9 n=43 v=0
157056 On ch=9 n=46 v=31
157082 On ch=9 n=46 v=0
157088 On ch=9 n=44 v=31
157114 On ch=9 n=44 v=0
157120 On ch=9 n=43 v=31
157146 On ch=9 n=43 v=0
157152 On ch=9 n=41 v=31
157178 On ch=9 n=41 v=0
157184 On ch=9 n=39 v=31
157210 On ch=9 n=39 v=0
157216 On ch=9 n=38 v=31
157242 On ch=9 n=38 v=0
157248 On ch=9 n=43 v=31
157286 On ch=9 n=43 v=0
157440 On ch=9 n=36 v=31
157471 On ch=9 n=36 v=0
157512 On ch=9 n=31 v=31
157528 On ch=9 n=31 v=0
157536 On ch=9 n=36 v=31
157567 On ch=9 n=36 v=0
157608 On ch=9 n=31 v=31
157624 On ch=9 n=31 v=0
157632 On ch=9 n=36 v=31
157663 On ch=9 n=36 v=0
157704 On ch=9 n=31 v=31
157728 On ch=9 n=31 v=0
157728 On ch=9 n=36 v=31
157752 On ch=9 n=36 v=0
157752 On ch=9 n=35 v=31
157776 On ch=9 n=35 v=0
157776 On ch=9 n=33 v=31
157800 On ch=9 n=33 v=0
157800 On ch=9 n=35 v=31
157824 On ch=9 n=35 v=0
157824 On ch=9 n=36 v=31
157855 On ch=9 n=36 v=0
157896 On ch=9 n=31 v=31
157912 On ch=9 n=31 v=0
157920 On ch=9 n=36 v=31
157951 On ch=9 n=36 v=0
157992 On ch=9 n=31 v=31
158008 On ch=9 n=31 v=0
158016 On ch=9 n=36 v=31
158047 On ch=9 n=36 v=0
158088 On ch=9 n=31 v=31
158112 On ch=9 n=31 v=0
158112 On ch=9 n=36 v=31
158136 On ch=9 n=36 v=0
158136 On ch=9 n=35 v=31
158160 On ch=9 n=35 v=0
158160 On ch=9 n=33 v=31
158184 On ch=9 n=33 v=0
158184 On ch=9 n=35 v=31
158208 On ch=9 n=35 v=0
158208 Par ch=9 c=11 v=64
158208 On ch=9 n=36 v=31
158229 On ch=9 n=36 v=0
158240 On ch=9 n=37 v=31
158261 On ch=9 n=37 v=0
158272 On ch=9 n=36 v=31
158293 On ch=9 n=36 v=0
158300 Par ch=9 c=11 v=65
158304 On ch=9 n=34 v=31
158325 On ch=9 n=34 v=0
158336 On ch=9 n=32 v=31
158357 On ch=9 n=32 v=0
158368 On ch=9 n=31 v=31
158389 On ch=9 n=31 v=0
158392 Par ch=9 c=11 v=66
158400 On ch=9 n=36 v=31
158438 On ch=9 n=36 v=0
158480 Par ch=9 c=11 v=67
158572 Par ch=9 c=11 v=68
158592 On ch=9 n=36 v=31
158618 On ch=9 n=36 v=0
158624 On ch=9 n=37 v=31
158650 On ch=9 n=37 v=0
158656 On ch=9 n=36 v=31
158660 Par ch=9 c=11 v=69
158682 On ch=9 n=36 v=0
158688 On ch=9 n=34 v=31
158714 On ch=9 n=34 v=0
158720 On ch=9 n=32 v=31
158746 On ch=9 n=32 v=0
158752 Par ch=9 c=11 v=70
158752 On ch=9 n=31 v=31
158778 On ch=9 n=31 v=0
158784 On ch=9 n=36 v=31
158822 On ch=9 n=36 v=0
158844 Par ch=9 c=11 v=71
158932 Par ch=9 c=11 v=72
158976 On ch=9 n=36 v=31
159002 On ch=9 n=36 v=0
159008 On ch=9 n=35 v=31
159024 Par ch=9 c=11 v=73
159034 On ch=9 n=35 v=0
159040 On ch=9 n=34 v=31
159066 On ch=9 n=34 v=0
159072 On ch=9 n=33 v=31
159098 On ch=9 n=33 v=0
159104 On ch=9 n=32 v=31
159112 Par ch=9 c=11 v=74
159130 On ch=9 n=32 v=0
159136 On ch=9 n=31 v=31
159162 On ch=9 n=31 v=0
159168 On ch=9 n=36 v=31
159204 Par ch=9 c=11 v=75
159206 On ch=9 n=36 v=0
159296 Par ch=9 c=11 v=76
159360 On ch=9 n=36 v=31
159384 Par ch=9 c=11 v=77
159386 On ch=9 n=36 v=0
159392 On ch=9 n=35 v=31
159418 On ch=9 n=35 v=0
159424 On ch=9 n=34 v=31
159450 On ch=9 n=34 v=0
159456 On ch=9 n=33 v=31
159476 Par ch=9 c=11 v=78
159482 On ch=9 n=33 v=0
159488 On ch=9 n=32 v=31
159514 On ch=9 n=32 v=0
159520 On ch=9 n=31 v=31
159546 On ch=9 n=31 v=0
159552 On ch=9 n=36 v=31
159564 Par ch=9 c=11 v=79
159590 On ch=9 n=36 v=0
159656 Par ch=9 c=11 v=80
159744 Par ch=9 c=11 v=80
159744 On ch=9 n=36 v=31
159768 Par ch=9 c=11 v=81
159770 On ch=9 n=36 v=0
159776 On ch=9 n=35 v=31
159792 Par ch=9 c=11 v=82
159802 On ch=9 n=35 v=0
159808 On ch=9 n=34 v=31
159812 Par ch=9 c=11 v=83
159834 On ch=9 n=34 v=0
159836 Par ch=9 c=11 v=84
159840 On ch=9 n=33 v=31
159860 Par ch=9 c=11 v=85
159866 On ch=9 n=33 v=0
159872 On ch=9 n=32 v=31
159880 Par ch=9 c=11 v=86
159898 On ch=9 n=32 v=0
159904 Par ch=9 c=11 v=87
159904 On ch=9 n=31 v=31
159928 Par ch=9 c=11 v=88
159930 On ch=9 n=31 v=0
159936 On ch=9 n=41 v=31
159948 Par ch=9 c=11 v=89
159962 On ch=9 n=41 v=0
159968 On ch=9 n=40 v=31
159972 Par ch=9 c=11 v=90
159994 On ch=9 n=40 v=0
159996 Par ch=9 c=11 v=91
160000 On ch=9 n=39 v=31
160016 Par ch=9 c=11 v=92
160026 On ch=9 n=39 v=0
160032 On ch=9 n=38 v=31
160040 Par ch=9 c=11 v=93
160058 On ch=9 n=38 v=0
160064 Par ch=9 c=11 v=94
160064 On ch=9 n=37 v=31
160084 Par ch=9 c=11 v=95
160090 On ch=9 n=37 v=0
160096 On ch=9 n=36 v=31
160108 Par ch=9 c=11 v=96
160122 On ch=9 n=36 v=0
160128 On ch=9 n=44 v=31
160140 Par ch=9 c=11 v=96
160152 Par ch=9 c=11 v=97
160154 On ch=9 n=44 v=0
160160 On ch=9 n=43 v=31
160164 Par ch=9 c=11 v=98
160176 Par ch=9 c=11 v=99
160186 On ch=9 n=43 v=0
160188 Par ch=9 c=11 v=100
160192 On ch=9 n=42 v=31
160200 Par ch=9 c=11 v=101
160212 Par ch=9 c=11 v=102
160218 On ch=9 n=42 v=0
160224 Par ch=9 c=11 v=103
160224 On ch=9 n=41 v=31
160236 Par ch=9 c=11 v=104
160248 Par ch=9 c=11 v=105
160250 On ch=9 n=41 v=0
160256 On ch=9 n=40 v=31
160260 Par ch=9 c=11 v=106
160272 Par ch=9 c=11 v=107
160282 On ch=9 n=40 v=0
160284 Par ch=9 c=11 v=108
160288 On ch=9 n=39 v=31
160296 Par ch=9 c=11 v=109
160308 Par ch=9 c=11 v=110
160314 On ch=9 n=39 v=0
160320 Par ch=9 c=11 v=111
160320 On ch=9 n=47 v=31
160332 Par ch=9 c=11 v=112
160344 Par ch=9 c=11 v=113
160346 On ch=9 n=47 v=0
160352 On ch=9 n=46 v=31
160356 Par ch=9 c=11 v=114
160368 Par ch=9 c=11 v=115
160378 On ch=9 n=46 v=0
160380 Par ch=9 c=11 v=116
160384 On ch=9 n=45 v=31
160392 Par ch=9 c=11 v=117
160404 Par ch=9 c=11 v=118
160410 On ch=9 n=45 v=0
160416 Par ch=9 c=11 v=119
160416 On ch=9 n=44 v=31
160428 Par ch=9 c=11 v=120
160440 Par ch=9 c=11 v=121
160442 On ch=9 n=44 v=0
160448 On ch=9 n=43 v=31
160452 Par ch=9 c=11 v=122
160464 Par ch=9 c=11 v=123
160474 On ch=9 n=43 v=0
160476 Par ch=9 c=11 v=124
160480 On ch=9 n=41 v=31
160488 Par ch=9 c=11 v=125
160500 Par ch=9 c=11 v=126
160506 On ch=9 n=41 v=0
160512 Par ch=9 c=11 v=126
160512 On ch=9 n=48 v=31
160516 Par ch=9 c=11 v=125
160520 Par ch=9 c=11 v=124
160524 Par ch=9 c=11 v=123
160528 Par ch=9 c=11 v=121
160532 Par ch=9 c=11 v=120
160536 Par ch=9 c=11 v=119
160538 On ch=9 n=48 v=0
160540 Par ch=9 c=11 v=117
160544 Par ch=9 c=11 v=116
160544 On ch=9 n=47 v=31
160548 Par ch=9 c=11 v=115
160552 Par ch=9 c=11 v=114
160556 Par ch=9 c=11 v=112
160560 Par ch=9 c=11 v=111
160564 Par ch=9 c=11 v=110
160568 Par ch=9 c=11 v=108
160570 On ch=9 n=47 v=0
160572 Par ch=9 c=11 v=107
160576 Par ch=9 c=11 v=106
160576 On ch=9 n=46 v=31
160580 Par ch=9 c=11 v=105
160584 Par ch=9 c=11 v=103
160588 Par ch=9 c=11 v=102
160592 Par ch=9 c=11 v=101
160596 Par ch=9 c=11 v=99
160600 Par ch=9 c=11 v=98
160602 On ch=9 n=46 v=0
160604 Par ch=9 c=11 v=97
160608 Par ch=9 c=11 v=95
160608 On ch=9 n=45 v=31
160612 Par ch=9 c=11 v=94
160616 Par ch=9 c=11 v=93
160620 Par ch=9 c=11 v=92
160624 Par ch=9 c=11 v=90
160628 Par ch=9 c=11 v=89
160632 Par ch=9 c=11 v=88
160634 On ch=9 n=45 v=0
160636 Par ch=9 c=11 v=86
160640 Par ch=9 c=11 v=85
160640 On ch=9 n=44 v=31
160644 Par ch=9 c=11 v=84
160648 Par ch=9 c=11 v=83
160652 Par ch=9 c=11 v=81
160656 Par ch=9 c=11 v=80
160660 Par ch=9 c=11 v=79
160664 Par ch=9 c=11 v=77
160666 On ch=9 n=44 v=0
160668 Par ch=9 c=11 v=76
160672 Par ch=9 c=11 v=75
160672 On ch=9 n=43 v=31
160676 Par ch=9 c=11 v=74
160680 Par ch=9 c=11 v=72
160684 Par ch=9 c=11 v=71
160688 Par ch=9 c=11 v=70
160692 Par ch=9 c=11 v=68
160696 Par ch=9 c=11 v=67
160698 On ch=9 n=43 v=0
160700 Par ch=9 c=11 v=66
160704 Par ch=9 c=11 v=64
160704 On ch=9 n=48 v=31
160742 On ch=9 n=48 v=0
160896 Par ch=9 c=11 v=64
160896 On ch=9 n=48 v=111
160900 Par ch=9 c=11 v=63
160904 Par ch=9 c=11 v=62
160908 Par ch=9 c=11 v=61
160912 Par ch=9 c=11 v=60
160916 Par ch=9 c=11 v=59
160920 Par ch=9 c=11 v=58
160922 On ch=9 n=48 v=0
160924 Par ch=9 c=11 v=57
160928 Par ch=9 c=11 v=56
160928 On ch=9 n=47 v=111
160932 Par ch=9 c=11 v=55
160936 Par ch=9 c=11 v=54
160940 Par ch=9 c=11 v=53
160944 Par ch=9 c=11 v=52
160948 Par ch=9 c=11 v=51
160952 Par ch=9 c=11 v=50
160954 On ch=9 n=47 v=0
160956 Par ch=9 c=11 v=49
160960 Par ch=9 c=11 v=48
160960 On ch=9 n=46 v=111
160964 Par ch=9 c=11 v=47
160968 Par ch=9 c=11 v=46
160972 Par ch=9 c=11 v=45
160976 Par ch=9 c=11 v=44
160980 Par ch=9 c=11 v=43
160984 Par ch=9 c=11 v=42
160986 On ch=9 n=46 v=0
160988 Par ch=9 c=11 v=41
160992 Par ch=9 c=11 v=40
160992 On ch=9 n=45 v=111
160996 Par ch=9 c=11 v=39
161000 Par ch=9 c=11 v=38
161004 Par ch=9 c=11 v=37
161008 Par ch=9 c=11 v=36
161012 Par ch=9 c=11 v=35
161016 Par ch=9 c=11 v=34
161018 On ch=9 n=45 v=0
161020 Par ch=9 c=11 v=33
161024 Par ch=9 c=11 v=32
161024 On ch=9 n=44 v=111
161028 Par ch=9 c=11 v=31
161032 Par ch=9 c=11 v=30
161036 Par ch=9 c=11 v=29
161040 Par ch=9 c=11 v=28
161044 Par ch=9 c=11 v=27
161048 Par ch=9 c=11 v=26
161050 On ch=9 n=44 v=0
161052 Par ch=9 c=11 v=25
161056 Par ch=9 c=11 v=24
161056 On ch=9 n=43 v=111
161060 Par ch=9 c=11 v=23
161064 Par ch=9 c=11 v=22
161068 Par ch=9 c=11 v=21
161072 Par ch=9 c=11 v=20
161076 Par ch=9 c=11 v=19
161080 Par ch=9 c=11 v=18
161082 On ch=9 n=43 v=0
161084 Par ch=9 c=11 v=17
161088 On ch=9 n=48 v=111
161126 On ch=9 n=48 v=0
161280 Par ch=9 c=11 v=64
161280 On ch=9 n=36 v=31
164045 On ch=9 n=36 v=0
164736 On ch=9 n=36 v=31
165197 On ch=9 n=36 v=0
165888 On ch=9 n=36 v=31
166349 On ch=9 n=36 v=0
169344 On ch=9 n=48 v=111
169357 On ch=9 n=48 v=0
169376 On ch=9 n=47 v=111
169389 On ch=9 n=47 v=0
169408 On ch=9 n=46 v=111
169421 On ch=9 n=46 v=0
169440 On ch=9 n=45 v=111
169453 On ch=9 n=45 v=0
169472 On ch=9 n=44 v=111
169485 On ch=9 n=44 v=0
169504 On ch=9 n=43 v=111
169517 On ch=9 n=43 v=0
169536 On ch=9 n=42 v=111
169549 On ch=9 n=42 v=0
169568 On ch=9 n=41 v=111
169581 On ch=9 n=41 v=0
169600 On ch=9 n=40 v=111
169613 On ch=9 n=40 v=0
169632 On ch=9 n=39 v=111
169645 On ch=9 n=39 v=0
169664 On ch=9 n=38 v=111
169677 On ch=9 n=38 v=0
169696 On ch=9 n=37 v=111
169709 On ch=9 n=37 v=0
169728 On ch=9 n=36 v=111
169741 On ch=9 n=36 v=0
169760 On ch=9 n=35 v=111
169773 On ch=9 n=35 v=0
169792 On ch=9 n=34 v=111
169805 On ch=9 n=34 v=0
169824 On ch=9 n=33 v=111
169837 On ch=9 n=33 v=0
169856 On ch=9 n=32 v=111
169869 On ch=9 n=32 v=0
169888 On ch=9 n=31 v=111
169901 On ch=9 n=31 v=0
169920 On ch=9 n=30 v=111
169933 On ch=9 n=30 v=0
169952 On ch=9 n=29 v=111
169965 On ch=9 n=29 v=0
169984 On ch=9 n=28 v=111
169997 On ch=9 n=28 v=0
170016 On ch=9 n=27 v=111
170029 On ch=9 n=27 v=0
170048 On ch=9 n=26 v=111
170061 On ch=9 n=26 v=0
170080 On ch=9 n=25 v=111
170093 On ch=9 n=25 v=0
170112 On ch=9 n=24 v=111
170150 On ch=9 n=24 v=0
170496 Par ch=9 c=0 v=0
170496 Par ch=9 c=32 v=0
170496 PrCh ch=9 p=45
170496 On ch=9 n=24 v=79
170534 On ch=9 n=24 v=0
170880 On ch=9 n=24 v=31
170918 On ch=9 n=24 v=0
170918 Meta TrkEnd
TrkEnd
MTrk
0 Meta 0x21 01
0 Meta TrkName "DRUM"
192 Par ch=10 c=1 v=8
196 Par ch=10 c=7 v=127
200 Par ch=10 c=10 v=64
204 Par ch=10 c=11 v=64
208 Par ch=10 c=91 v=127
212 Par ch=10 c=93 v=64
216 PrCh ch=10 p=49
15744 On ch=10 n=32 v=111
15752 On ch=10 n=32 v=0
15752 On ch=10 n=32 v=111
15760 On ch=10 n=32 v=0
15760 On ch=10 n=32 v=111
15768 On ch=10 n=32 v=0
15768 On ch=10 n=32 v=47
15776 On ch=10 n=32 v=0
15776 On ch=10 n=32 v=47
15784 On ch=10 n=32 v=0
15784 On ch=10 n=32 v=47
15792 On ch=10 n=32 v=0
15792 On ch=10 n=32 v=47
15800 On ch=10 n=32 v=0
15800 On ch=10 n=32 v=47
15808 On ch=10 n=32 v=0
15808 On ch=10 n=32 v=47
15816 On ch=10 n=32 v=0
15816 On ch=10 n=32 v=47
15824 On ch=10 n=32 v=0
15824 On ch=10 n=32 v=47
15832 On ch=10 n=32 v=0
15832 On ch=10 n=32 v=47
15840 On ch=10 n=32 v=0
15840 On ch=10 n=32 v=47
15848 On ch=10 n=32 v=0
15848 On ch=10 n=32 v=47
15856 On ch=10 n=32 v=0
15856 On ch=10 n=32 v=47
15864 On ch=10 n=32 v=0
15864 On ch=10 n=32 v=47
15872 On ch=10 n=32 v=0
15872 On ch=10 n=32 v=47
15880 On ch=10 n=32 v=0
15880 On ch=10 n=32 v=47
15888 On ch=10 n=32 v=0
15888 On ch=10 n=32 v=47
15896 On ch=10 n=32 v=0
15896 On ch=10 n=32 v=47
15904 On ch=10 n=32 v=0
15904 On ch=10 n=32 v=47
15912 On ch=10 n=32 v=0
15912 On ch=10 n=32 v=47
15920 On ch=10 n=32 v=0
15920 On ch=10 n=32 v=47
15928 On ch=10 n=32 v=0
15928 On ch=10 n=32 v=47
15936 On ch=10 n=32 v=0
15936 On ch=10 n=32 v=47
15944 On ch=10 n=32 v=0
15944 On ch=10 n=32 v=47
15952 On ch=10 n=32 v=0
15952 On ch=10 n=32 v=47
15960 On ch=10 n=32 v=0
15960 On ch=10 n=32 v=47
15968 On ch=10 n=32 v=0
15968 On ch=10 n=32 v=47
15976 On ch=10 n=32 v=0
15976 On ch=10 n=32 v=47
15984 On ch=10 n=32 v=0
15984 On ch=10 n=32 v=47
15992 On ch=10 n=32 v=0
15992 On ch=10 n=32 v=47
16000 On ch=10 n=32 v=0
16000 On ch=10 n=32 v=47
16008 On ch=10 n=32 v=0
16008 On ch=10 n=32 v=47
16016 On ch=10 n=32 v=0
16016 On ch=10 n=32 v=47
16024 On ch=10 n=32 v=0
16024 On ch=10 n=32 v=47
16032 On ch=10 n=32 v=0
16032 On ch=10 n=32 v=47
16040 On ch=10 n=32 v=0
16040 On ch=10 n=32 v=47
16048 On ch=10 n=32 v=0
16048 On ch=10 n=32 v=47
16056 On ch=10 n=32 v=0
16056 On ch=10 n=32 v=47
16064 On ch=10 n=32 v=0
16064 On ch=10 n=32 v=47
16072 On ch=10 n=32 v=0
16072 On ch=10 n=32 v=47
16080 On ch=10 n=32 v=0
16080 On ch=10 n=32 v=47
16088 On ch=10 n=32 v=0
16088 On ch=10 n=32 v=47
16096 On ch=10 n=32 v=0
16096 On ch=10 n=32 v=47
16104 On ch=10 n=32 v=0
16104 On ch=10 n=32 v=47
16112 On ch=10 n=32 v=0
16112 On ch=10 n=32 v=47
16120 On ch=10 n=32 v=0
16120 On ch=10 n=32 v=47
16128 On ch=10 n=32 v=0
16128 On ch=10 n=32 v=47
16136 On ch=10 n=32 v=0
16136 On ch=10 n=32 v=47
16144 On ch=10 n=32 v=0
16144 On ch=10 n=32 v=47
16152 On ch=10 n=32 v=0
16152 On ch=10 n=32 v=47
16160 On ch=10 n=32 v=0
16160 On ch=10 n=32 v=47
16168 On ch=10 n=32 v=0
16168 On ch=10 n=32 v=47
16176 On ch=10 n=32 v=0
16176 On ch=10 n=32 v=47
16184 On ch=10 n=32 v=0
16184 On ch=10 n=32 v=47
16192 On ch=10 n=32 v=0
16192 On ch=10 n=32 v=47
16200 On ch=10 n=32 v=0
16200 On ch=10 n=32 v=47
16208 On ch=10 n=32 v=0
16208 On ch=10 n=32 v=47
16216 On ch=10 n=32 v=0
16216 On ch=10 n=32 v=47
16224 On ch=10 n=32 v=0
16224 On ch=10 n=32 v=47
16232 On ch=10 n=32 v=0
16232 On ch=10 n=32 v=47
16240 On ch=10 n=32 v=0
16240 On ch=10 n=32 v=47
16248 On ch=10 n=32 v=0
16248 On ch=10 n=32 v=47
16256 On ch=10 n=32 v=0
16256 On ch=10 n=32 v=47
16264 On ch=10 n=32 v=0
16264 On ch=10 n=32 v=47
16272 On ch=10 n=32 v=0
16272 On ch=10 n=32 v=47
16280 On ch=10 n=32 v=0
16280 On ch=10 n=32 v=47
16288 On ch=10 n=32 v=0
16288 On ch=10 n=32 v=47
16296 On ch=10 n=32 v=0
16296 On ch=10 n=32 v=47
16304 On ch=10 n=32 v=0
16304 On ch=10 n=32 v=47
16312 On ch=10 n=32 v=0
16312 On ch=10 n=32 v=47
16320 On ch=10 n=32 v=0
16320 On ch=10 n=32 v=47
16328 On ch=10 n=32 v=0
16328 On ch=10 n=32 v=47
16336 On ch=10 n=32 v=0
16336 On ch=10 n=32 v=47
16344 On ch=10 n=32 v=0
16344 On ch=10 n=32 v=47
16352 On ch=10 n=32 v=0
16352 On ch=10 n=32 v=47
16360 On ch=10 n=32 v=0
16360 On ch=10 n=32 v=47
16368 On ch=10 n=32 v=0
16368 On ch=10 n=32 v=47
16376 On ch=10 n=32 v=0
16376 On ch=10 n=32 v=47
16384 On ch=10 n=32 v=0
16384 On ch=10 n=32 v=47
16392 On ch=10 n=32 v=0
16392 On ch=10 n=32 v=47
16400 On ch=10 n=32 v=0
16400 On ch=10 n=32 v=47
16408 On ch=10 n=32 v=0
16408 On ch=10 n=32 v=47
16416 On ch=10 n=32 v=0
16416 On ch=10 n=32 v=47
16424 On ch=10 n=32 v=0
16424 On ch=10 n=32 v=47
16432 On ch=10 n=32 v=0
16432 On ch=10 n=32 v=47
16440 On ch=10 n=32 v=0
16440 On ch=10 n=32 v=47
16448 On ch=10 n=32 v=0
16448 On ch=10 n=32 v=47
16456 On ch=10 n=32 v=0
16456 On ch=10 n=32 v=47
16464 On ch=10 n=32 v=0
16464 On ch=10 n=32 v=47
16472 On ch=10 n=32 v=0
16472 On ch=10 n=32 v=47
16480 On ch=10 n=32 v=0
16480 On ch=10 n=32 v=47
16488 On ch=10 n=32 v=0
16488 On ch=10 n=32 v=47
16496 On ch=10 n=32 v=0
16496 On ch=10 n=32 v=47
16504 On ch=10 n=32 v=0
16504 On ch=10 n=32 v=47
16512 On ch=10 n=32 v=0
16512 On ch=10 n=32 v=47
16538 On ch=10 n=32 v=0
37248 On ch=10 n=45 v=47
37402 On ch=10 n=45 v=0
37632 On ch=10 n=45 v=47
37786 On ch=10 n=45 v=0
38016 On ch=10 n=45 v=47
38170 On ch=10 n=45 v=0
38400 On ch=10 n=45 v=47
38554 On ch=10 n=45 v=0
38784 On ch=10 n=45 v=47
38938 On ch=10 n=45 v=0
39168 On ch=10 n=45 v=47
39322 On ch=10 n=45 v=0
39936 On ch=10 n=45 v=47
40090 On ch=10 n=45 v=0
41856 On ch=10 n=45 v=31
42010 On ch=10 n=45 v=0
42624 On ch=10 n=45 v=31
42778 On ch=10 n=45 v=0
43392 On ch=10 n=45 v=31
43546 On ch=10 n=45 v=0
72576 On ch=10 n=32 v=15
72584 On ch=10 n=32 v=0
72584 On ch=10 n=32 v=15
72592 On ch=10 n=32 v=0
72592 On ch=10 n=32 v=15
72600 On ch=10 n=32 v=0
72600 On ch=10 n=32 v=15
72608 On ch=10 n=32 v=0
72608 On ch=10 n=32 v=15
72616 On ch=10 n=32 v=0
72616 On ch=10 n=32 v=15
72624 On ch=10 n=32 v=0
72624 On ch=10 n=32 v=15
72632 On ch=10 n=32 v=0
72632 On ch=10 n=32 v=15
72640 On ch=10 n=32 v=0
72640 On ch=10 n=32 v=15
72648 On ch=10 n=32 v=0
72648 On ch=10 n=32 v=15
72656 On ch=10 n=32 v=0
72656 On ch=10 n=32 v=15
72664 On ch=10 n=32 v=0
72664 On ch=10 n=32 v=15
72672 On ch=10 n=32 v=0
72672 On ch=10 n=32 v=15
72680 On ch=10 n=32 v=0
72680 On ch=10 n=32 v=15
72688 On ch=10 n=32 v=0
72688 On ch=10 n=32 v=15
72696 On ch=10 n=32 v=0
72696 On ch=10 n=32 v=15
72704 On ch=10 n=32 v=0
72704 On ch=10 n=32 v=15
72712 On ch=10 n=32 v=0
72712 On ch=10 n=32 v=15
72720 On ch=10 n=32 v=0
72720 On ch=10 n=32 v=15
72728 On ch=10 n=32 v=0
72728 On ch=10 n=32 v=15
72736 On ch=10 n=32 v=0
72736 On ch=10 n=32 v=15
72744 On ch=10 n=32 v=0
72744 On ch=10 n=32 v=15
72752 On ch=10 n=32 v=0
72752 On ch=10 n=32 v=15
72760 On ch=10 n=32 v=0
72760 On ch=10 n=32 v=15
72768 On ch=10 n=32 v=0
72768 On ch=10 n=32 v=15
72776 On ch=10 n=32 v=0
72776 On ch=10 n=32 v=15
72784 On ch=10 n=32 v=0
72784 On ch=10 n=32 v=15
72792 On ch=10 n=32 v=0
72792 On ch=10 n=32 v=15
72800 On ch=10 n=32 v=0
72800 On ch=10 n=32 v=15
72808 On ch=10 n=32 v=0
72808 On ch=10 n=32 v=15
72816 On ch=10 n=32 v=0
72816 On ch=10 n=32 v=15
72824 On ch=10 n=32 v=0
72824 On ch=10 n=32 v=15
72832 On ch=10 n=32 v=0
72832 On ch=10 n=32 v=15
72840 On ch=10 n=32 v=0
72840 On ch=10 n=32 v=15
72848 On ch=10 n=32 v=0
72848 On ch=10 n=32 v=15
72856 On ch=10 n=32 v=0
72856 On ch=10 n=32 v=15
72864 On ch=10 n=32 v=0
72864 On ch=10 n=32 v=15
72872 On ch=10 n=32 v=0
72872 On ch=10 n=32 v=15
72880 On ch=10 n=32 v=0
72880 On ch=10 n=32 v=15
72888 On ch=10 n=32 v=0
72888 On ch=10 n=32 v=15
72896 On ch=10 n=32 v=0
72896 On ch=10 n=32 v=15
72904 On ch=10 n=32 v=0
72904 On ch=10 n=32 v=15
72912 On ch=10 n=32 v=0
72912 On ch=10 n=32 v=15
72920 On ch=10 n=32 v=0
72920 On ch=10 n=32 v=15
72928 On ch=10 n=32 v=0
72928 On ch=10 n=32 v=15
72936 On ch=10 n=32 v=0
72936 On ch=10 n=32 v=15
72944 On ch=10 n=32 v=0
72944 On ch=10 n=32 v=15
72952 On ch=10 n=32 v=0
72952 On ch=10 n=32 v=15
72960 On ch=10 n=32 v=0
72960 On ch=10 n=32 v=15
72968 On ch=10 n=32 v=0
72968 On ch=10 n=32 v=15
72976 On ch=10 n=32 v=0
72976 On ch=10 n=32 v=15
72984 On ch=10 n=32 v=0
72984 On ch=10 n=32 v=15
72992 On ch=10 n=32 v=0
72992 On ch=10 n=32 v=15
73000 On ch=10 n=32 v=0
73000 On ch=10 n=32 v=15
73008 On ch=10 n=32 v=0
73008 On ch=10 n=32 v=15
73016 On ch=10 n=32 v=0
73016 On ch=10 n=32 v=15
73024 On ch=10 n=32 v=0
73024 On ch=10 n=32 v=15
73032 On ch=10 n=32 v=0
73032 On ch=10 n=32 v=15
73040 On ch=10 n=32 v=0
73040 On ch=10 n=32 v=15
73048 On ch=10 n=32 v=0
73048 On ch=10 n=32 v=15
73056 On ch=10 n=32 v=0
73056 On ch=10 n=32 v=15
73064 On ch=10 n=32 v=0
73064 On ch=10 n=32 v=15
73072 On ch=10 n=32 v=0
73072 On ch=10 n=32 v=15
73080 On ch=10 n=32 v=0
73080 On ch=10 n=32 v=15
73088 On ch=10 n=32 v=0
73088 On ch=10 n=32 v=15
73096 On ch=10 n=32 v=0
73096 On ch=10 n=32 v=15
73104 On ch=10 n=32 v=0
73104 On ch=10 n=32 v=15
73112 On ch=10 n=32 v=0
73112 On ch=10 n=32 v=15
73120 On ch=10 n=32 v=0
73120 On ch=10 n=32 v=15
73128 On ch=10 n=32 v=0
73128 On ch=10 n=32 v=15
73136 On ch=10 n=32 v=0
73136 On ch=10 n=32 v=15
73144 On ch=10 n=32 v=0
73144 On ch=10 n=32 v=15
73152 On ch=10 n=32 v=0
73152 On ch=10 n=32 v=15
73160 On ch=10 n=32 v=0
73160 On ch=10 n=32 v=15
73168 On ch=10 n=32 v=0
73168 On ch=10 n=32 v=15
73176 On ch=10 n=32 v=0
73176 On ch=10 n=32 v=15
73184 On ch=10 n=32 v=0
73184 On ch=10 n=32 v=15
73192 On ch=10 n=32 v=0
73192 On ch=10 n=32 v=15
73200 On ch=10 n=32 v=0
73200 On ch=10 n=32 v=15
73208 On ch=10 n=32 v=0
73208 On ch=10 n=32 v=15
73216 On ch=10 n=32 v=0
73216 On ch=10 n=32 v=15
73224 On ch=10 n=32 v=0
73224 On ch=10 n=32 v=15
73232 On ch=10 n=32 v=0
73232 On ch=10 n=32 v=15
73240 On ch=10 n=32 v=0
73240 On ch=10 n=32 v=15
73248 On ch=10 n=32 v=0
73248 On ch=10 n=32 v=15
73256 On ch=10 n=32 v=0
73256 On ch=10 n=32 v=15
73264 On ch=10 n=32 v=0
73264 On ch=10 n=32 v=15
73272 On ch=10 n=32 v=0
73272 On ch=10 n=32 v=15
73280 On ch=10 n=32 v=0
73280 On ch=10 n=32 v=15
73288 On ch=10 n=32 v=0
73288 On ch=10 n=32 v=15
73296 On ch=10 n=32 v=0
73296 On ch=10 n=32 v=15
73304 On ch=10 n=32 v=0
73304 On ch=10 n=32 v=15
73312 On ch=10 n=32 v=0
73312 On ch=10 n=32 v=15
73320 On ch=10 n=32 v=0
73320 On ch=10 n=32 v=15
73328 On ch=10 n=32 v=0
73328 On ch=10 n=32 v=15
73336 On ch=10 n=32 v=0
73336 On ch=10 n=32 v=15
73344 On ch=10 n=32 v=0
73344 On ch=10 n=32 v=15
73352 On ch=10 n=32 v=0
73352 On ch=10 n=32 v=15
73360 On ch=10 n=32 v=0
73360 On ch=10 n=32 v=15
73368 On ch=10 n=32 v=0
73368 On ch=10 n=32 v=15
73376 On ch=10 n=32 v=0
73376 On ch=10 n=32 v=15
73384 On ch=10 n=32 v=0
73384 On ch=10 n=32 v=15
73392 On ch=10 n=32 v=0
73392 On ch=10 n=32 v=15
73400 On ch=10 n=32 v=0
73400 On ch=10 n=32 v=15
73408 On ch=10 n=32 v=0
73408 On ch=10 n=32 v=15
73416 On ch=10 n=32 v=0
73416 On ch=10 n=32 v=15
73424 On ch=10 n=32 v=0
73424 On ch=10 n=32 v=15
73432 On ch=10 n=32 v=0
73432 On ch=10 n=32 v=15
73440 On ch=10 n=32 v=0
73440 On ch=10 n=32 v=15
73448 On ch=10 n=32 v=0
73448 On ch=10 n=32 v=15
73456 On ch=10 n=32 v=0
73456 On ch=10 n=32 v=15
73464 On ch=10 n=32 v=0
73464 On ch=10 n=32 v=15
73472 On ch=10 n=32 v=0
73472 On ch=10 n=32 v=15
73480 On ch=10 n=32 v=0
73480 On ch=10 n=32 v=15
73488 On ch=10 n=32 v=0
73488 On ch=10 n=32 v=15
73496 On ch=10 n=32 v=0
73496 On ch=10 n=32 v=15
73504 On ch=10 n=32 v=0
73504 On ch=10 n=32 v=15
73512 On ch=10 n=32 v=0
73512 On ch=10 n=32 v=15
73520 On ch=10 n=32 v=0
73520 On ch=10 n=32 v=15
73528 On ch=10 n=32 v=0
73528 On ch=10 n=32 v=15
73536 On ch=10 n=32 v=0
73536 On ch=10 n=32 v=15
73544 On ch=10 n=32 v=0
73544 On ch=10 n=32 v=15
73552 On ch=10 n=32 v=0
73552 On ch=10 n=32 v=15
73560 On ch=10 n=32 v=0
73560 On ch=10 n=32 v=15
73568 On ch=10 n=32 v=0
73568 On ch=10 n=32 v=15
73576 On ch=10 n=32 v=0
73576 On ch=10 n=32 v=15
73584 On ch=10 n=32 v=0
73584 On ch=10 n=32 v=15
73592 On ch=10 n=32 v=0
73592 On ch=10 n=32 v=15
73600 On ch=10 n=32 v=0
73600 On ch=10 n=32 v=15
73608 On ch=10 n=32 v=0
73608 On ch=10 n=32 v=15
73616 On ch=10 n=32 v=0
73616 On ch=10 n=32 v=15
73624 On ch=10 n=32 v=0
73624 On ch=10 n=32 v=15
73632 On ch=10 n=32 v=0
73632 On ch=10 n=32 v=15
73640 On ch=10 n=32 v=0
73640 On ch=10 n=32 v=15
73648 On ch=10 n=32 v=0
73648 On ch=10 n=32 v=15
73656 On ch=10 n=32 v=0
73656 On ch=10 n=32 v=15
73664 On ch=10 n=32 v=0
73664 On ch=10 n=32 v=15
73672 On ch=10 n=32 v=0
73672 On ch=10 n=32 v=15
73680 On ch=10 n=32 v=0
73680 On ch=10 n=32 v=15
73688 On ch=10 n=32 v=0
73688 On ch=10 n=32 v=15
73696 On ch=10 n=32 v=0
73696 On ch=10 n=32 v=15
73704 On ch=10 n=32 v=0
73704 On ch=10 n=32 v=15
73712 On ch=10 n=32 v=0
73712 On ch=10 n=32 v=15
73720 On ch=10 n=32 v=0
73720 On ch=10 n=32 v=15
73728 On ch=10 n=32 v=0
73728 On ch=10 n=32 v=15
73736 On ch=10 n=32 v=0
73736 On ch=10 n=32 v=15
73744 On ch=10 n=32 v=0
73744 On ch=10 n=32 v=15
73752 On ch=10 n=32 v=0
73752 On ch=10 n=32 v=15
73760 On ch=10 n=32 v=0
73760 On ch=10 n=32 v=15
73768 On ch=10 n=32 v=0
73768 On ch=10 n=32 v=15
73776 On ch=10 n=32 v=0
73776 On ch=10 n=32 v=15
73784 On ch=10 n=32 v=0
73784 On ch=10 n=32 v=15
73792 On ch=10 n=32 v=0
73792 On ch=10 n=32 v=15
73800 On ch=10 n=32 v=0
73800 On ch=10 n=32 v=15
73808 On ch=10 n=32 v=0
73808 On ch=10 n=32 v=15
73816 On ch=10 n=32 v=0
73816 On ch=10 n=32 v=15
73824 On ch=10 n=32 v=0
73824 On ch=10 n=32 v=15
73832 On ch=10 n=32 v=0
73832 On ch=10 n=32 v=15
73840 On ch=10 n=32 v=0
73840 On ch=10 n=32 v=15
73848 On ch=10 n=32 v=0
73848 On ch=10 n=32 v=15
73856 On ch=10 n=32 v=0
73856 On ch=10 n=32 v=15
73864 On ch=10 n=32 v=0
73864 On ch=10 n=32 v=15
73872 On ch=10 n=32 v=0
73872 On ch=10 n=32 v=15
73880 On ch=10 n=32 v=0
73880 On ch=10 n=32 v=15
73888 On ch=10 n=32 v=0
73888 On ch=10 n=32 v=15
73896 On ch=10 n=32 v=0
73896 On ch=10 n=32 v=15
73904 On ch=10 n=32 v=0
73904 On ch=10 n=32 v=15
73912 On ch=10 n=32 v=0
73912 On ch=10 n=32 v=15
73920 On ch=10 n=32 v=0
73920 On ch=10 n=32 v=15
73928 On ch=10 n=32 v=0
73928 On ch=10 n=32 v=15
73936 On ch=10 n=32 v=0
73936 On ch=10 n=32 v=15
73944 On ch=10 n=32 v=0
73944 On ch=10 n=32 v=15
73952 On ch=10 n=32 v=0
73952 On ch=10 n=32 v=15
73960 On ch=10 n=32 v=0
73960 On ch=10 n=32 v=15
73968 On ch=10 n=32 v=0
73968 On ch=10 n=32 v=15
73976 On ch=10 n=32 v=0
73976 On ch=10 n=32 v=15
73984 On ch=10 n=32 v=0
73984 On ch=10 n=32 v=15
73992 On ch=10 n=32 v=0
73992 On ch=10 n=32 v=15
74000 On ch=10 n=32 v=0
74000 On ch=10 n=32 v=15
74008 On ch=10 n=32 v=0
74008 On ch=10 n=32 v=15
74016 On ch=10 n=32 v=0
74016 On ch=10 n=32 v=15
74024 On ch=10 n=32 v=0
74024 On ch=10 n=32 v=15
74032 On ch=10 n=32 v=0
74032 On ch=10 n=32 v=15
74040 On ch=10 n=32 v=0
74040 On ch=10 n=32 v=15
74048 On ch=10 n=32 v=0
74048 On ch=10 n=32 v=15
74056 On ch=10 n=32 v=0
74056 On ch=10 n=32 v=15
74064 On ch=10 n=32 v=0
74064 On ch=10 n=32 v=15
74072 On ch=10 n=32 v=0
74072 On ch=10 n=32 v=15
74080 On ch=10 n=32 v=0
74080 On ch=10 n=32 v=15
74088 On ch=10 n=32 v=0
74088 On ch=10 n=32 v=15
74096 On ch=10 n=32 v=0
74096 On ch=10 n=32 v=15
74104 On ch=10 n=32 v=0
74104 On ch=10 n=32 v=15
74112 On ch=10 n=32 v=0
74112 On ch=10 n=32 v=15
74120 On ch=10 n=32 v=0
74120 On ch=10 n=32 v=15
74128 On ch=10 n=32 v=0
74128 On ch=10 n=32 v=15
74136 On ch=10 n=32 v=0
74136 On ch=10 n=32 v=15
74144 On ch=10 n=32 v=0
74144 On ch=10 n=32 v=15
74152 On ch=10 n=32 v=0
74152 On ch=10 n=32 v=15
74160 On ch=10 n=32 v=0
74160 On ch=10 n=32 v=15
74168 On ch=10 n=32 v=0
74168 On ch=10 n=32 v=15
74176 On ch=10 n=32 v=0
74176 On ch=10 n=32 v=15
74184 On ch=10 n=32 v=0
74184 On ch=10 n=32 v=15
74192 On ch=10 n=32 v=0
74192 On ch=10 n=32 v=15
74200 On ch=10 n=32 v=0
74200 On ch=10 n=32 v=15
74208 On ch=10 n=32 v=0
74208 On ch=10 n=32 v=15
74216 On ch=10 n=32 v=0
74216 On ch=10 n=32 v=15
74224 On ch=10 n=32 v=0
74224 On ch=10 n=32 v=15
74232 On ch=10 n=32 v=0
74232 On ch=10 n=32 v=15
74240 On ch=10 n=32 v=0
74240 On ch=10 n=32 v=15
74248 On ch=10 n=32 v=0
74248 On ch=10 n=32 v=15
74256 On ch=10 n=32 v=0
74256 On ch=10 n=32 v=15
74264 On ch=10 n=32 v=0
74264 On ch=10 n=32 v=15
74272 On ch=10 n=32 v=0
74272 On ch=10 n=32 v=15
74280 On ch=10 n=32 v=0
74280 On ch=10 n=32 v=15
74288 On ch=10 n=32 v=0
74288 On ch=10 n=32 v=15
74296 On ch=10 n=32 v=0
74296 On ch=10 n=32 v=15
74304 On ch=10 n=32 v=0
74304 On ch=10 n=32 v=15
74312 On ch=10 n=32 v=0
74312 On ch=10 n=32 v=15
74320 On ch=10 n=32 v=0
74320 On ch=10 n=32 v=15
74328 On ch=10 n=32 v=0
74328 On ch=10 n=32 v=15
74336 On ch=10 n=32 v=0
74336 On ch=10 n=32 v=15
74344 On ch=10 n=32 v=0
74344 On ch=10 n=32 v=15
74352 On ch=10 n=32 v=0
74352 On ch=10 n=32 v=15
74360 On ch=10 n=32 v=0
74360 On ch=10 n=32 v=15
74368 On ch=10 n=32 v=0
74368 On ch=10 n=32 v=15
74376 On ch=10 n=32 v=0
74376 On ch=10 n=32 v=15
74384 On ch=10 n=32 v=0
74384 On ch=10 n=32 v=15
74392 On ch=10 n=32 v=0
74392 On ch=10 n=32 v=15
74400 On ch=10 n=32 v=0
74400 On ch=10 n=32 v=15
74408 On ch=10 n=32 v=0
74408 On ch=10 n=32 v=15
74416 On ch=10 n=32 v=0
74416 On ch=10 n=32 v=15
74424 On ch=10 n=32 v=0
74424 On ch=10 n=32 v=15
74432 On ch=10 n=32 v=0
74432 On ch=10 n=32 v=15
74440 On ch=10 n=32 v=0
74440 On ch=10 n=32 v=15
74448 On ch=10 n=32 v=0
74448 On ch=10 n=32 v=15
74456 On ch=10 n=32 v=0
74456 On ch=10 n=32 v=15
74464 On ch=10 n=32 v=0
74464 On ch=10 n=32 v=15
74472 On ch=10 n=32 v=0
74472 On ch=10 n=32 v=15
74480 On ch=10 n=32 v=0
74480 On ch=10 n=32 v=15
74488 On ch=10 n=32 v=0
74488 On ch=10 n=32 v=15
74496 On ch=10 n=32 v=0
74496 Par ch=10 c=11 v=64
74496 On ch=10 n=32 v=15
74504 On ch=10 n=32 v=0
74504 On ch=10 n=32 v=15
74512 On ch=10 n=32 v=0
74512 Par ch=10 c=11 v=65
74512 On ch=10 n=32 v=15
74520 On ch=10 n=32 v=0
74520 On ch=10 n=32 v=15
74524 Par ch=10 c=11 v=66
74528 On ch=10 n=32 v=0
74528 On ch=10 n=32 v=15
74536 On ch=10 n=32 v=0
74536 Par ch=10 c=11 v=67
74536 On ch=10 n=32 v=15
74544 On ch=10 n=32 v=0
74544 On ch=10 n=32 v=15
74548 Par ch=10 c=11 v=68
74552 On ch=10 n=32 v=0
74552 On ch=10 n=32 v=15
74560 On ch=10 n=32 v=0
74560 Par ch=10 c=11 v=69
74560 On ch=10 n=32 v=15
74568 On ch=10 n=32 v=0
74568 On ch=10 n=32 v=15
74572 Par ch=10 c=11 v=70
74576 On ch=10 n=32 v=0
74576 On ch=10 n=32 v=15
74584 On ch=10 n=32 v=0
74584 Par ch=10 c=11 v=71
74584 On ch=10 n=32 v=15
74592 On ch=10 n=32 v=0
74592 On ch=10 n=32 v=15
74596 Par ch=10 c=11 v=72
74600 On ch=10 n=32 v=0
74600 On ch=10 n=32 v=15
74608 On ch=10 n=32 v=0
74608 Par ch=10 c=11 v=73
74608 On ch=10 n=32 v=15
74616 On ch=10 n=32 v=0
74616 On ch=10 n=32 v=15
74620 Par ch=10 c=11 v=74
74624 On ch=10 n=32 v=0
74624 On ch=10 n=32 v=15
74632 On ch=10 n=32 v=0
74632 Par ch=10 c=11 v=75
74632 On ch=10 n=32 v=15
74640 On ch=10 n=32 v=0
74640 On ch=10 n=32 v=15
74644 Par ch=10 c=11 v=76
74648 On ch=10 n=32 v=0
74648 On ch=10 n=32 v=15
74656 On ch=10 n=32 v=0
74656 Par ch=10 c=11 v=77
74656 On ch=10 n=32 v=15
74664 On ch=10 n=32 v=0
74664 On ch=10 n=32 v=15
74668 Par ch=10 c=11 v=78
74672 On ch=10 n=32 v=0
74672 On ch=10 n=32 v=15
74680 On ch=10 n=32 v=0
74680 Par ch=10 c=11 v=79
74680 On ch=10 n=32 v=15
74688 On ch=10 n=32 v=0
74688 On ch=10 n=32 v=15
74692 Par ch=10 c=11 v=80
74696 On ch=10 n=32 v=0
74696 On ch=10 n=32 v=15
74704 On ch=10 n=32 v=0
74704 Par ch=10 c=11 v=81
74704 On ch=10 n=32 v=15
74712 On ch=10 n=32 v=0
74712 On ch=10 n=32 v=15
74716 Par ch=10 c=11 v=82
74720 On ch=10 n=32 v=0
74720 On ch=10 n=32 v=15
74728 On ch=10 n=32 v=0
74728 Par ch=10 c=11 v=83
74728 On ch=10 n=32 v=15
74736 On ch=10 n=32 v=0
74736 On ch=10 n=32 v=15
74740 Par ch=10 c=11 v=84
74744 On ch=10 n=32 v=0
74744 On ch=10 n=32 v=15
74752 On ch=10 n=32 v=0
74752 Par ch=10 c=11 v=85
74752 On ch=10 n=32 v=15
74760 On ch=10 n=32 v=0
74760 On ch=10 n=32 v=15
74768 On ch=10 n=32 v=0
74768 Par ch=10 c=11 v=86
74768 On ch=10 n=32 v=15
74776 On ch=10 n=32 v=0
74776 On ch=10 n=32 v=15
74780 Par ch=10 c=11 v=87
74784 On ch=10 n=32 v=0
74784 On ch=10 n=32 v=15
74792 On ch=10 n=32 v=0
74792 Par ch=10 c=11 v=88
74792 On ch=10 n=32 v=15
74800 On ch=10 n=32 v=0
74800 On ch=10 n=32 v=15
74804 Par ch=10 c=11 v=89
74808 On ch=10 n=32 v=0
74808 On ch=10 n=32 v=15
74816 On ch=10 n=32 v=0
74816 Par ch=10 c=11 v=90
74816 On ch=10 n=32 v=15
74824 On ch=10 n=32 v=0
74824 On ch=10 n=32 v=15
74828 Par ch=10 c=11 v=91
74832 On ch=10 n=32 v=0
74832 On ch=10 n=32 v=15
74840 On ch=10 n=32 v=0
74840 Par ch=10 c=11 v=92
74840 On ch=10 n=32 v=15
74848 On ch=10 n=32 v=0
74848 On ch=10 n=32 v=15
74852 Par ch=10 c=11 v=93
74856 On ch=10 n=32 v=0
74856 On ch=10 n=32 v=15
74864 On ch=10 n=32 v=0
74864 Par ch=10 c=11 v=94
74864 On ch=10 n=32 v=15
74872 On ch=10 n=32 v=0
74872 On ch=10 n=32 v=15
74876 Par ch=10 c=11 v=95
74880 On ch=10 n=32 v=0
74880 On ch=10 n=32 v=15
74888 On ch=10 n=32 v=0
74888 Par ch=10 c=11 v=96
74888 On ch=10 n=32 v=15
74896 On ch=10 n=32 v=0
74896 On ch=10 n=32 v=15
74900 Par ch=10 c=11 v=97
74904 On ch=10 n=32 v=0
74904 On ch=10 n=32 v=15
74912 On ch=10 n=32 v=0
74912 Par ch=10 c=11 v=98
74912 On ch=10 n=32 v=15
74920 On ch=10 n=32 v=0
74920 On ch=10 n=32 v=15
74924 Par ch=10 c=11 v=99
74928 On ch=10 n=32 v=0
74928 On ch=10 n=32 v=15
74936 On ch=10 n=32 v=0
74936 Par ch=10 c=11 v=100
74936 On ch=10 n=32 v=15
74944 On ch=10 n=32 v=0
74944 On ch=10 n=32 v=15
74948 Par ch=10 c=11 v=101
74952 On ch=10 n=32 v=0
74952 On ch=10 n=32 v=15
74960 On ch=10 n=32 v=0
74960 Par ch=10 c=11 v=102
74960 On ch=10 n=32 v=15
74968 On ch=10 n=32 v=0
74968 On ch=10 n=32 v=15
74972 Par ch=10 c=11 v=103
74976 On ch=10 n=32 v=0
74976 On ch=10 n=32 v=15
74984 On ch=10 n=32 v=0
74984 Par ch=10 c=11 v=104
74984 On ch=10 n=32 v=15
74992 On ch=10 n=32 v=0
74992 On ch=10 n=32 v=15
74996 Par ch=10 c=11 v=105
75000 On ch=10 n=32 v=0
75000 On ch=10 n=32 v=15
75008 On ch=10 n=32 v=0
75008 Par ch=10 c=11 v=106
75008 On ch=10 n=32 v=15
75016 On ch=10 n=32 v=0
75016 On ch=10 n=32 v=15
75024 On ch=10 n=32 v=0
75024 Par ch=10 c=11 v=107
75024 On ch=10 n=32 v=15
75032 On ch=10 n=32 v=0
75032 On ch=10 n=32 v=15
75036 Par ch=10 c=11 v=108
75040 On ch=10 n=32 v=0
75040 On ch=10 n=32 v=15
75048 On ch=10 n=32 v=0
75048 Par ch=10 c=11 v=109
75048 On ch=10 n=32 v=15
75056 On ch=10 n=32 v=0
75056 On ch=10 n=32 v=15
75060 Par ch=10 c=11 v=110
75064 On ch=10 n=32 v=0
75064 On ch=10 n=32 v=15
75072 On ch=10 n=32 v=0
75072 Par ch=10 c=11 v=111
75072 On ch=10 n=32 v=15
75080 On ch=10 n=32 v=0
75080 On ch=10 n=32 v=15
75084 Par ch=10 c=11 v=112
75088 On ch=10 n=32 v=0
75088 On ch=10 n=32 v=15
75096 On ch=10 n=32 v=0
75096 Par ch=10 c=11 v=113
75096 On ch=10 n=32 v=15
75104 On ch=10 n=32 v=0
75104 On ch=10 n=32 v=15
75108 Par ch=10 c=11 v=114
75112 On ch=10 n=32 v=0
75112 On ch=10 n=32 v=15
75120 On ch=10 n=32 v=0
75120 Par ch=10 c=11 v=115
75120 On ch=10 n=32 v=15
75128 On ch=10 n=32 v=0
75128 On ch=10 n=32 v=15
75132 Par ch=10 c=11 v=116
75136 On ch=10 n=32 v=0
75136 On ch=10 n=32 v=15
75144 On ch=10 n=32 v=0
75144 Par ch=10 c=11 v=117
75144 On ch=10 n=32 v=15
75152 On ch=10 n=32 v=0
75152 On ch=10 n=32 v=15
75156 Par ch=10 c=11 v=118
75160 On ch=10 n=32 v=0
75160 On ch=10 n=32 v=15
75168 On ch=10 n=32 v=0
75168 Par ch=10 c=11 v=119
75168 On ch=10 n=32 v=15
75176 On ch=10 n=32 v=0
75176 On ch=10 n=32 v=15
75180 Par ch=10 c=11 v=120
75184 On ch=10 n=32 v=0
75184 On ch=10 n=32 v=15
75192 On ch=10 n=32 v=0
75192 Par ch=10 c=11 v=121
75192 On ch=10 n=32 v=15
75200 On ch=10 n=32 v=0
75200 On ch=10 n=32 v=15
75204 Par ch=10 c=11 v=122
75208 On ch=10 n=32 v=0
75208 On ch=10 n=32 v=15
75216 On ch=10 n=32 v=0
75216 Par ch=10 c=11 v=123
75216 On ch=10 n=32 v=15
75224 On ch=10 n=32 v=0
75224 On ch=10 n=32 v=15
75228 Par ch=10 c=11 v=124
75232 On ch=10 n=32 v=0
75232 On ch=10 n=32 v=15
75240 On ch=10 n=32 v=0
75240 Par ch=10 c=11 v=125
75240 On ch=10 n=32 v=15
75248 On ch=10 n=32 v=0
75248 On ch=10 n=32 v=15
75252 Par ch=10 c=11 v=126
75256 On ch=10 n=32 v=0
75256 On ch=10 n=32 v=15
75264 On ch=10 n=32 v=0
75264 Par ch=10 c=11 v=64
75360 On ch=10 n=32 v=111
75398 On ch=10 n=32 v=0
76800 On ch=10 n=32 v=79
76808 On ch=10 n=32 v=0
76808 On ch=10 n=32 v=79
76816 On ch=10 n=32 v=0
76816 On ch=10 n=32 v=79
76824 On ch=10 n=32 v=0
76824 On ch=10 n=32 v=79
76832 On ch=10 n=32 v=0
76832 On ch=10 n=32 v=79
76840 On ch=10 n=32 v=0
76840 On ch=10 n=32 v=79
76848 On ch=10 n=32 v=0
76848 On ch=10 n=32 v=79
76856 On ch=10 n=32 v=0
76856 On ch=10 n=32 v=79
76864 On ch=10 n=32 v=0
76864 On ch=10 n=32 v=79
76872 On ch=10 n=32 v=0
76872 On ch=10 n=32 v=79
76880 On ch=10 n=32 v=0
76880 On ch=10 n=32 v=79
76888 On ch=10 n=32 v=0
76888 On ch=10 n=32 v=79
76896 On ch=10 n=32 v=0
76896 On ch=10 n=32 v=79
76904 On ch=10 n=32 v=0
76904 On ch=10 n=32 v=79
76912 On ch=10 n=32 v=0
76912 On ch=10 n=32 v=79
76920 On ch=10 n=32 v=0
76920 On ch=10 n=32 v=79
76928 On ch=10 n=32 v=0
76928 On ch=10 n=32 v=79
76936 On ch=10 n=32 v=0
76936 On ch=10 n=32 v=79
76944 On ch=10 n=32 v=0
76944 On ch=10 n=32 v=79
76952 On ch=10 n=32 v=0
76952 On ch=10 n=32 v=79
76960 On ch=10 n=32 v=0
76960 On ch=10 n=32 v=79
76968 On ch=10 n=32 v=0
76968 On ch=10 n=32 v=79
76976 On ch=10 n=32 v=0
76976 On ch=10 n=32 v=79
76984 On ch=10 n=32 v=0
76984 On ch=10 n=32 v=79
76992 On ch=10 n=32 v=0
76992 On ch=10 n=32 v=79
77000 On ch=10 n=32 v=0
77000 On ch=10 n=32 v=79
77008 On ch=10 n=32 v=0
77008 On ch=10 n=32 v=79
77016 On ch=10 n=32 v=0
77016 On ch=10 n=32 v=79
77024 On ch=10 n=32 v=0
77024 On ch=10 n=32 v=79
77032 On ch=10 n=32 v=0
77032 On ch=10 n=32 v=79
77040 On ch=10 n=32 v=0
77040 On ch=10 n=32 v=79
77048 On ch=10 n=32 v=0
77048 On ch=10 n=32 v=79
77056 On ch=10 n=32 v=0
77056 On ch=10 n=32 v=79
77064 On ch=10 n=32 v=0
77064 On ch=10 n=32 v=79
77072 On ch=10 n=32 v=0
77072 On ch=10 n=32 v=79
77080 On ch=10 n=32 v=0
77080 On ch=10 n=32 v=79
77088 On ch=10 n=32 v=0
77088 On ch=10 n=32 v=79
77096 On ch=10 n=32 v=0
77096 On ch=10 n=32 v=79
77104 On ch=10 n=32 v=0
77104 On ch=10 n=32 v=79
77112 On ch=10 n=32 v=0
77112 On ch=10 n=32 v=79
77120 On ch=10 n=32 v=0
77120 On ch=10 n=32 v=79
77128 On ch=10 n=32 v=0
77128 On ch=10 n=32 v=79
77136 On ch=10 n=32 v=0
77136 On ch=10 n=32 v=79
77144 On ch=10 n=32 v=0
77144 On ch=10 n=32 v=79
77152 On ch=10 n=32 v=0
77152 On ch=10 n=32 v=79
77160 On ch=10 n=32 v=0
77160 On ch=10 n=32 v=79
77168 On ch=10 n=32 v=0
77168 On ch=10 n=32 v=79
77176 On ch=10 n=32 v=0
77176 On ch=10 n=32 v=79
77184 On ch=10 n=32 v=0
77184 Par ch=10 c=11 v=64
77184 On ch=10 n=32 v=79
77192 On ch=10 n=32 v=0
77192 On ch=10 n=32 v=79
77196 Par ch=10 c=11 v=63
77200 On ch=10 n=32 v=0
77200 On ch=10 n=32 v=79
77208 On ch=10 n=32 v=0
77208 Par ch=10 c=11 v=62
77208 On ch=10 n=32 v=79
77216 On ch=10 n=32 v=0
77216 On ch=10 n=32 v=79
77220 Par ch=10 c=11 v=61
77224 On ch=10 n=32 v=0
77224 On ch=10 n=32 v=79
77232 On ch=10 n=32 v=0
77232 Par ch=10 c=11 v=60
77232 On ch=10 n=32 v=79
77240 On ch=10 n=32 v=0
77240 On ch=10 n=32 v=79
77244 Par ch=10 c=11 v=59
77248 On ch=10 n=32 v=0
77248 On ch=10 n=32 v=79
77252 Par ch=10 c=11 v=58
77256 On ch=10 n=32 v=0
77256 On ch=10 n=32 v=79
77264 On ch=10 n=32 v=0
77264 Par ch=10 c=11 v=57
77264 On ch=10 n=32 v=79
77272 On ch=10 n=32 v=0
77272 On ch=10 n=32 v=79
77276 Par ch=10 c=11 v=56
77280 On ch=10 n=32 v=0
77280 On ch=10 n=32 v=79
77288 On ch=10 n=32 v=0
77288 Par ch=10 c=11 v=55
77288 On ch=10 n=32 v=79
77296 On ch=10 n=32 v=0
77296 On ch=10 n=32 v=79
77300 Par ch=10 c=11 v=54
77304 On ch=10 n=32 v=0
77304 On ch=10 n=32 v=79
77312 On ch=10 n=32 v=0
77312 Par ch=10 c=11 v=53
77312 On ch=10 n=32 v=79
77320 On ch=10 n=32 v=0
77320 Par ch=10 c=11 v=52
77320 On ch=10 n=32 v=79
77328 On ch=10 n=32 v=0
77328 On ch=10 n=32 v=79
77332 Par ch=10 c=11 v=51
77336 On ch=10 n=32 v=0
77336 On ch=10 n=32 v=79
77344 On ch=10 n=32 v=0
77344 Par ch=10 c=11 v=50
77344 On ch=10 n=32 v=79
77352 On ch=10 n=32 v=0
77352 On ch=10 n=32 v=79
77356 Par ch=10 c=11 v=49
77360 On ch=10 n=32 v=0
77360 On ch=10 n=32 v=79
77368 On ch=10 n=32 v=0
77368 Par ch=10 c=11 v=48
77368 On ch=10 n=32 v=79
77376 On ch=10 n=32 v=0
77376 Par ch=10 c=11 v=47
77376 On ch=10 n=32 v=79
77384 On ch=10 n=32 v=0
77384 On ch=10 n=32 v=79
77388 Par ch=10 c=11 v=46
77392 On ch=10 n=32 v=0
77392 On ch=10 n=32 v=79
77400 On ch=10 n=32 v=0
77400 Par ch=10 c=11 v=45
77400 On ch=10 n=32 v=79
77408 On ch=10 n=32 v=0
77408 On ch=10 n=32 v=79
77412 Par ch=10 c=11 v=44
77416 On ch=10 n=32 v=0
77416 On ch=10 n=32 v=79
77424 On ch=10 n=32 v=0
77424 Par ch=10 c=11 v=43
77424 On ch=10 n=32 v=79
77432 On ch=10 n=32 v=0
77432 On ch=10 n=32 v=79
77436 Par ch=10 c=11 v=42
77440 On ch=10 n=32 v=0
77440 On ch=10 n=32 v=79
77444 Par ch=10 c=11 v=41
77448 On ch=10 n=32 v=0
77448 On ch=10 n=32 v=79
77456 On ch=10 n=32 v=0
77456 Par ch=10 c=11 v=40
77456 On ch=10 n=32 v=79
77464 On ch=10 n=32 v=0
77464 On ch=10 n=32 v=79
77468 Par ch=10 c=11 v=39
77472 On ch=10 n=32 v=0
77472 On ch=10 n=32 v=79
77480 On ch=10 n=32 v=0
77480 Par ch=10 c=11 v=38
77480 On ch=10 n=32 v=79
77488 On ch=10 n=32 v=0
77488 On ch=10 n=32 v=79
77492 Par ch=10 c=11 v=37
77496 On ch=10 n=32 v=0
77496 On ch=10 n=32 v=79
77504 On ch=10 n=32 v=0
77504 Par ch=10 c=11 v=36
77504 On ch=10 n=32 v=79
77512 On ch=10 n=32 v=0
77512 Par ch=10 c=11 v=35
77512 On ch=10 n=32 v=79
77520 On ch=10 n=32 v=0
77520 On ch=10 n=32 v=79
77524 Par ch=10 c=11 v=34
77528 On ch=10 n=32 v=0
77528 On ch=10 n=32 v=79
77536 On ch=10 n=32 v=0
77536 Par ch=10 c=11 v=33
77536 On ch=10 n=32 v=79
77544 On ch=10 n=32 v=0
77544 On ch=10 n=32 v=79
77548 Par ch=10 c=11 v=32
77552 On ch=10 n=32 v=0
77552 On ch=10 n=32 v=79
77560 On ch=10 n=32 v=0
77560 On ch=10 n=32 v=79
77568 On ch=10 n=32 v=0
77568 On ch=10 n=32 v=79
77576 On ch=10 n=32 v=0
77576 On ch=10 n=32 v=79
77584 On ch=10 n=32 v=0
77584 On ch=10 n=32 v=79
77592 On ch=10 n=32 v=0
77592 On ch=10 n=32 v=79
77600 On ch=10 n=32 v=0
77600 On ch=10 n=32 v=79
77608 On ch=10 n=32 v=0
77608 On ch=10 n=32 v=79
77616 On ch=10 n=32 v=0
77616 On ch=10 n=32 v=79
77624 On ch=10 n=32 v=0
77624 On ch=10 n=32 v=79
77632 On ch=10 n=32 v=0
77632 On ch=10 n=32 v=79
77640 On ch=10 n=32 v=0
77640 On ch=10 n=32 v=79
77648 On ch=10 n=32 v=0
77648 On ch=10 n=32 v=79
77656 On ch=10 n=32 v=0
77656 On ch=10 n=32 v=79
77664 On ch=10 n=32 v=0
77664 On ch=10 n=32 v=79
77672 On ch=10 n=32 v=0
77672 On ch=10 n=32 v=79
77680 On ch=10 n=32 v=0
77680 On ch=10 n=32 v=79
77688 On ch=10 n=32 v=0
77688 On ch=10 n=32 v=79
77696 On ch=10 n=32 v=0
77696 On ch=10 n=32 v=79
77704 On ch=10 n=32 v=0
77704 On ch=10 n=32 v=79
77712 On ch=10 n=32 v=0
77712 On ch=10 n=32 v=79
77720 On ch=10 n=32 v=0
77720 On ch=10 n=32 v=79
77728 On ch=10 n=32 v=0
77728 On ch=10 n=32 v=79
77736 On ch=10 n=32 v=0
77736 On ch=10 n=32 v=79
77744 On ch=10 n=32 v=0
77744 On ch=10 n=32 v=79
77752 On ch=10 n=32 v=0
77752 On ch=10 n=32 v=79
77760 On ch=10 n=32 v=0
77760 On ch=10 n=32 v=79
77768 On ch=10 n=32 v=0
77768 On ch=10 n=32 v=79
77776 On ch=10 n=32 v=0
77776 On ch=10 n=32 v=79
77784 On ch=10 n=32 v=0
77784 On ch=10 n=32 v=79
77792 On ch=10 n=32 v=0
77792 On ch=10 n=32 v=79
77800 On ch=10 n=32 v=0
77800 On ch=10 n=32 v=79
77808 On ch=10 n=32 v=0
77808 On ch=10 n=32 v=79
77816 On ch=10 n=32 v=0
77816 On ch=10 n=32 v=79
77824 On ch=10 n=32 v=0
77824 On ch=10 n=32 v=79
77832 On ch=10 n=32 v=0
77832 On ch=10 n=32 v=79
77840 On ch=10 n=32 v=0
77840 On ch=10 n=32 v=79
77848 On ch=10 n=32 v=0
77848 On ch=10 n=32 v=79
77856 On ch=10 n=32 v=0
77856 On ch=10 n=32 v=79
77864 On ch=10 n=32 v=0
77864 On ch=10 n=32 v=79
77872 On ch=10 n=32 v=0
77872 On ch=10 n=32 v=79
77880 On ch=10 n=32 v=0
77880 On ch=10 n=32 v=79
77888 On ch=10 n=32 v=0
77888 On ch=10 n=32 v=79
77896 On ch=10 n=32 v=0
77896 On ch=10 n=32 v=79
77904 On ch=10 n=32 v=0
77904 On ch=10 n=32 v=79
77912 On ch=10 n=32 v=0
77912 On ch=10 n=32 v=79
77920 On ch=10 n=32 v=0
77920 On ch=10 n=32 v=79
77928 On ch=10 n=32 v=0
77928 On ch=10 n=32 v=79
77936 On ch=10 n=32 v=0
77936 On ch=10 n=32 v=79
77944 On ch=10 n=32 v=0
77944 On ch=10 n=32 v=79
77952 On ch=10 n=32 v=0
77952 Par ch=10 c=11 v=32
77952 On ch=10 n=32 v=79
77960 On ch=10 n=32 v=0
77960 On ch=10 n=32 v=79
77968 On ch=10 n=32 v=0
77968 On ch=10 n=32 v=79
77976 On ch=10 n=32 v=0
77976 Par ch=10 c=11 v=31
77976 On ch=10 n=32 v=79
77984 On ch=10 n=32 v=0
77984 On ch=10 n=32 v=79
77992 On ch=10 n=32 v=0
77992 On ch=10 n=32 v=79
78000 On ch=10 n=32 v=0
78000 Par ch=10 c=11 v=30
78000 On ch=10 n=32 v=79
78008 On ch=10 n=32 v=0
78008 On ch=10 n=32 v=79
78016 On ch=10 n=32 v=0
78016 On ch=10 n=32 v=79
78020 Par ch=10 c=11 v=29
78024 On ch=10 n=32 v=0
78024 On ch=10 n=32 v=79
78032 On ch=10 n=32 v=0
78032 On ch=10 n=32 v=79
78040 On ch=10 n=32 v=0
78040 On ch=10 n=32 v=79
78044 Par ch=10 c=11 v=28
78048 On ch=10 n=32 v=0
78048 On ch=10 n=32 v=79
78056 On ch=10 n=32 v=0
78056 On ch=10 n=32 v=79
78064 On ch=10 n=32 v=0
78064 On ch=10 n=32 v=79
78068 Par ch=10 c=11 v=27
78072 On ch=10 n=32 v=0
78072 On ch=10 n=32 v=79
78080 On ch=10 n=32 v=0
78080 On ch=10 n=32 v=79
78088 On ch=10 n=32 v=0
78088 Par ch=10 c=11 v=26
78088 On ch=10 n=32 v=79
78096 On ch=10 n=32 v=0
78096 On ch=10 n=32 v=79
78104 On ch=10 n=32 v=0
78104 On ch=10 n=32 v=79
78112 On ch=10 n=32 v=0
78112 Par ch=10 c=11 v=25
78112 On ch=10 n=32 v=79
78120 On ch=10 n=32 v=0
78120 On ch=10 n=32 v=79
78128 On ch=10 n=32 v=0
78128 On ch=10 n=32 v=79
78136 On ch=10 n=32 v=0
78136 Par ch=10 c=11 v=24
78136 On ch=10 n=32 v=79
78144 On ch=10 n=32 v=0
78144 On ch=10 n=32 v=79
78152 On ch=10 n=32 v=0
78152 On ch=10 n=32 v=79
78156 Par ch=10 c=11 v=23
78160 On ch=10 n=32 v=0
78160 On ch=10 n=32 v=79
78168 On ch=10 n=32 v=0
78168 On ch=10 n=32 v=79
78176 On ch=10 n=32 v=0
78176 On ch=10 n=32 v=79
78180 Par ch=10 c=11 v=22
78184 On ch=10 n=32 v=0
78184 On ch=10 n=32 v=79
78192 On ch=10 n=32 v=0
78192 On ch=10 n=32 v=79
78200 On ch=10 n=32 v=0
78200 On ch=10 n=32 v=79
78204 Par ch=10 c=11 v=21
78208 On ch=10 n=32 v=0
78208 On ch=10 n=32 v=79
78216 On ch=10 n=32 v=0
78216 On ch=10 n=32 v=79
78224 On ch=10 n=32 v=0
78224 Par ch=10 c=11 v=20
78224 On ch=10 n=32 v=79
78232 On ch=10 n=32 v=0
78232 On ch=10 n=32 v=79
78240 On ch=10 n=32 v=0
78240 On ch=10 n=32 v=79
78248 On ch=10 n=32 v=0
78248 Par ch=10 c=11 v=19
78248 On ch=10 n=32 v=79
78256 On ch=10 n=32 v=0
78256 On ch=10 n=32 v=79
78264 On ch=10 n=32 v=0
78264 On ch=10 n=32 v=79
78272 On ch=10 n=32 v=0
78272 Par ch=10 c=11 v=18
78272 On ch=10 n=32 v=79
78280 On ch=10 n=32 v=0
78280 On ch=10 n=32 v=79
78288 On ch=10 n=32 v=0
78288 On ch=10 n=32 v=79
78292 Par ch=10 c=11 v=17
78296 On ch=10 n=32 v=0
78296 On ch=10 n=32 v=79
78304 On ch=10 n=32 v=0
78304 On ch=10 n=32 v=79
78312 On ch=10 n=32 v=0
78312 On ch=10 n=32 v=79
78320 On ch=10 n=32 v=0
78320 On ch=10 n=32 v=79
78328 On ch=10 n=32 v=0
78328 On ch=10 n=32 v=79
78336 On ch=10 n=32 v=0
78336 On ch=10 n=32 v=79
78413 On ch=10 n=32 v=0
78720 Par ch=10 c=11 v=64
92160 On ch=10 n=32 v=31
92237 On ch=10 n=32 v=0
92544 On ch=10 n=32 v=31
92621 On ch=10 n=32 v=0
92928 On ch=10 n=32 v=31
93005 On ch=10 n=32 v=0
93120 On ch=10 n=32 v=31
93197 On ch=10 n=32 v=0
93312 On ch=10 n=32 v=31
93389 On ch=10 n=32 v=0
93504 On ch=10 n=32 v=31
93581 On ch=10 n=32 v=0
93984 On ch=10 n=46 v=127
94387 On ch=10 n=46 v=0
94656 On ch=10 n=32 v=63
94656 On ch=10 n=45 v=127
94664 On ch=10 n=32 v=0
94664 On ch=10 n=32 v=61
94672 On ch=10 n=32 v=0
94672 On ch=10 n=32 v=59
94680 On ch=10 n=32 v=0
94680 On ch=10 n=32 v=57
94688 On ch=10 n=32 v=0
94688 On ch=10 n=32 v=55
94696 On ch=10 n=32 v=0
94696 On ch=10 n=32 v=53
94704 On ch=10 n=32 v=0
94704 On ch=10 n=32 v=51
94712 On ch=10 n=32 v=0
94712 On ch=10 n=32 v=49
94720 On ch=10 n=32 v=0
94720 On ch=10 n=32 v=47
94728 On ch=10 n=32 v=0
94728 On ch=10 n=32 v=45
94736 On ch=10 n=32 v=0
94736 On ch=10 n=32 v=43
94744 On ch=10 n=32 v=0
94744 On ch=10 n=32 v=41
94752 On ch=10 n=32 v=0
94752 On ch=10 n=32 v=39
94760 On ch=10 n=32 v=0
94760 On ch=10 n=32 v=37
94768 On ch=10 n=32 v=0
94768 On ch=10 n=32 v=35
94776 On ch=10 n=32 v=0
94776 On ch=10 n=32 v=33
94784 On ch=10 n=32 v=0
94784 On ch=10 n=32 v=31
94792 On ch=10 n=32 v=0
94792 On ch=10 n=32 v=29
94800 On ch=10 n=32 v=0
94800 On ch=10 n=32 v=27
94808 On ch=10 n=32 v=0
94808 On ch=10 n=32 v=25
94816 On ch=10 n=32 v=0
94816 On ch=10 n=32 v=23
94824 On ch=10 n=32 v=0
94824 On ch=10 n=32 v=21
94832 On ch=10 n=32 v=0
94832 On ch=10 n=32 v=19
94840 On ch=10 n=32 v=0
94840 On ch=10 n=32 v=17
94848 On ch=10 n=32 v=0
94848 On ch=10 n=32 v=15
94856 On ch=10 n=32 v=0
94856 On ch=10 n=32 v=15
94864 On ch=10 n=32 v=0
94864 On ch=10 n=32 v=15
94872 On ch=10 n=32 v=0
94872 On ch=10 n=32 v=15
94880 On ch=10 n=32 v=0
94880 On ch=10 n=32 v=15
94888 On ch=10 n=32 v=0
94888 On ch=10 n=32 v=15
94896 On ch=10 n=32 v=0
94896 On ch=10 n=32 v=15
94904 On ch=10 n=32 v=0
94904 On ch=10 n=32 v=15
94912 On ch=10 n=32 v=0
94912 On ch=10 n=32 v=15
94920 On ch=10 n=32 v=0
94920 On ch=10 n=32 v=15
94928 On ch=10 n=32 v=0
94928 On ch=10 n=32 v=15
94936 On ch=10 n=32 v=0
94936 On ch=10 n=32 v=15
94944 On ch=10 n=32 v=0
94944 On ch=10 n=32 v=15
94952 On ch=10 n=32 v=0
94952 On ch=10 n=32 v=15
94960 On ch=10 n=32 v=0
94960 On ch=10 n=32 v=15
94968 On ch=10 n=32 v=0
94968 On ch=10 n=32 v=15
94976 On ch=10 n=32 v=0
94976 On ch=10 n=32 v=15
94984 On ch=10 n=32 v=0
94984 On ch=10 n=32 v=15
94992 On ch=10 n=32 v=0
94992 On ch=10 n=32 v=15
95000 On ch=10 n=32 v=0
95000 On ch=10 n=32 v=15
95008 On ch=10 n=32 v=0
95008 On ch=10 n=32 v=15
95016 On ch=10 n=32 v=0
95016 On ch=10 n=32 v=15
95024 On ch=10 n=32 v=0
95024 On ch=10 n=32 v=15
95032 On ch=10 n=32 v=0
95032 On ch=10 n=32 v=15
95040 On ch=10 n=32 v=0
95040 On ch=10 n=32 v=15
95048 On ch=10 n=32 v=0
95048 On ch=10 n=32 v=15
95056 On ch=10 n=32 v=0
95056 On ch=10 n=32 v=15
95064 On ch=10 n=32 v=0
95064 On ch=10 n=32 v=15
95072 On ch=10 n=32 v=0
95072 On ch=10 n=32 v=15
95080 On ch=10 n=32 v=0
95080 On ch=10 n=32 v=15
95088 On ch=10 n=32 v=0
95088 On ch=10 n=32 v=15
95096 On ch=10 n=32 v=0
95096 On ch=10 n=32 v=15
95104 On ch=10 n=32 v=0
95104 On ch=10 n=32 v=15
95112 On ch=10 n=32 v=0
95112 On ch=10 n=32 v=15
95120 On ch=10 n=32 v=0
95120 On ch=10 n=32 v=15
95128 On ch=10 n=32 v=0
95128 On ch=10 n=32 v=15
95136 On ch=10 n=32 v=0
95136 On ch=10 n=32 v=15
95144 On ch=10 n=32 v=0
95144 On ch=10 n=32 v=15
95152 On ch=10 n=32 v=0
95152 On ch=10 n=32 v=15
95155 On ch=10 n=45 v=0
95160 On ch=10 n=32 v=0
95160 On ch=10 n=32 v=15
95168 On ch=10 n=32 v=0
95168 On ch=10 n=32 v=15
95176 On ch=10 n=32 v=0
95176 On ch=10 n=32 v=15
95184 On ch=10 n=32 v=0
95184 On ch=10 n=32 v=15
95192 On ch=10 n=32 v=0
95192 On ch=10 n=32 v=15
95200 On ch=10 n=32 v=0
95200 On ch=10 n=32 v=15
95208 On ch=10 n=32 v=0
95208 On ch=10 n=32 v=15
95216 On ch=10 n=32 v=0
95216 On ch=10 n=32 v=15
95224 On ch=10 n=32 v=0
95224 On ch=10 n=32 v=15
95232 On ch=10 n=32 v=0
95232 On ch=10 n=45 v=10
95232 On ch=10 n=32 v=15
95240 On ch=10 n=32 v=0
95240 On ch=10 n=45 v=0
95240 On ch=10 n=45 v=10
95240 On ch=10 n=32 v=15
95248 On ch=10 n=32 v=0
95248 On ch=10 n=45 v=0
95248 On ch=10 n=45 v=10
95248 On ch=10 n=32 v=15
95256 On ch=10 n=32 v=0
95256 On ch=10 n=45 v=0
95256 On ch=10 n=45 v=10
95256 On ch=10 n=32 v=15
95264 On ch=10 n=32 v=0
95264 On ch=10 n=45 v=0
95264 On ch=10 n=45 v=10
95264 On ch=10 n=32 v=15
95272 On ch=10 n=32 v=0
95272 On ch=10 n=45 v=0
95272 On ch=10 n=45 v=10
95272 On ch=10 n=32 v=15
95280 On ch=10 n=32 v=0
95280 On ch=10 n=45 v=0
95280 On ch=10 n=45 v=10
95280 On ch=10 n=32 v=15
95288 On ch=10 n=32 v=0
95288 On ch=10 n=45 v=0
95288 On ch=10 n=45 v=10
95288 On ch=10 n=32 v=15
95296 On ch=10 n=32 v=0
95296 On ch=10 n=45 v=0
95296 On ch=10 n=45 v=10
95296 On ch=10 n=32 v=15
95304 On ch=10 n=32 v=0
95304 On ch=10 n=45 v=0
95304 On ch=10 n=45 v=10
95304 On ch=10 n=32 v=15
95312 On ch=10 n=32 v=0
95312 On ch=10 n=45 v=0
95312 On ch=10 n=45 v=10
95312 On ch=10 n=32 v=15
95320 On ch=10 n=32 v=0
95320 On ch=10 n=45 v=0
95320 On ch=10 n=45 v=10
95320 On ch=10 n=32 v=15
95328 On ch=10 n=32 v=0
95328 On ch=10 n=45 v=0
95328 On ch=10 n=32 v=15
95328 On ch=10 n=45 v=10
95336 On ch=10 n=45 v=0
95336 On ch=10 n=32 v=0
95336 On ch=10 n=32 v=15
95336 On ch=10 n=45 v=10
95344 On ch=10 n=45 v=0
95344 On ch=10 n=32 v=0
95344 On ch=10 n=32 v=15
95344 On ch=10 n=45 v=10
95352 On ch=10 n=45 v=0
95352 On ch=10 n=32 v=0
95352 On ch=10 n=32 v=15
95352 On ch=10 n=45 v=10
95360 On ch=10 n=45 v=0
95360 On ch=10 n=32 v=0
95360 On ch=10 n=32 v=15
95360 On ch=10 n=45 v=10
95368 On ch=10 n=45 v=0
95368 On ch=10 n=32 v=0
95368 On ch=10 n=32 v=15
95368 On ch=10 n=45 v=10
95376 On ch=10 n=45 v=0
95376 On ch=10 n=32 v=0
95376 On ch=10 n=32 v=15
95376 On ch=10 n=45 v=10
95384 On ch=10 n=45 v=0
95384 On ch=10 n=32 v=0
95384 On ch=10 n=32 v=15
95384 On ch=10 n=45 v=10
95392 On ch=10 n=45 v=0
95392 On ch=10 n=32 v=0
95392 On ch=10 n=32 v=15
95392 On ch=10 n=45 v=10
95400 On ch=10 n=45 v=0
95400 On ch=10 n=32 v=0
95400 On ch=10 n=32 v=15
95400 On ch=10 n=45 v=10
95408 On ch=10 n=45 v=0
95408 On ch=10 n=32 v=0
95408 On ch=10 n=32 v=15
95408 On ch=10 n=45 v=10
95416 On ch=10 n=45 v=0
95416 On ch=10 n=32 v=0
95416 On ch=10 n=32 v=15
95416 On ch=10 n=45 v=10
95424 On ch=10 n=45 v=0
95424 On ch=10 n=32 v=0
95424 On ch=10 n=32 v=15
95424 On ch=10 n=45 v=10
95432 On ch=10 n=45 v=0
95432 On ch=10 n=32 v=0
95432 On ch=10 n=32 v=15
95432 On ch=10 n=45 v=10
95440 On ch=10 n=45 v=0
95440 On ch=10 n=32 v=0
95440 On ch=10 n=32 v=15
95440 On ch=10 n=45 v=10
95448 On ch=10 n=45 v=0
95448 On ch=10 n=32 v=0
95448 On ch=10 n=32 v=15
95448 On ch=10 n=45 v=10
95456 On ch=10 n=45 v=0
95456 On ch=10 n=32 v=0
95456 On ch=10 n=32 v=15
95456 On ch=10 n=45 v=10
95464 On ch=10 n=45 v=0
95464 On ch=10 n=32 v=0
95464 On ch=10 n=32 v=15
95464 On ch=10 n=45 v=10
95472 On ch=10 n=45 v=0
95472 On ch=10 n=32 v=0
95472 On ch=10 n=32 v=15
95472 On ch=10 n=45 v=10
95480 On ch=10 n=45 v=0
95480 On ch=10 n=32 v=0
95480 On ch=10 n=32 v=15
95480 On ch=10 n=45 v=10
95488 On ch=10 n=45 v=0
95488 On ch=10 n=32 v=0
95488 On ch=10 n=32 v=15
95488 On ch=10 n=45 v=10
95496 On ch=10 n=45 v=0
95496 On ch=10 n=32 v=0
95496 On ch=10 n=32 v=15
95496 On ch=10 n=45 v=10
95504 On ch=10 n=45 v=0
95504 On ch=10 n=32 v=0
95504 On ch=10 n=32 v=15
95504 On ch=10 n=45 v=10
95512 On ch=10 n=45 v=0
95512 On ch=10 n=32 v=0
95512 On ch=10 n=32 v=15
95512 On ch=10 n=45 v=10
95520 On ch=10 n=45 v=0
95520 On ch=10 n=32 v=0
95520 On ch=10 n=32 v=15
95520 On ch=10 n=45 v=10
95528 On ch=10 n=45 v=0
95528 On ch=10 n=32 v=0
95528 On ch=10 n=32 v=15
95528 On ch=10 n=45 v=10
95536 On ch=10 n=45 v=0
95536 On ch=10 n=32 v=0
95536 On ch=10 n=32 v=15
95536 On ch=10 n=45 v=10
95544 On ch=10 n=45 v=0
95544 On ch=10 n=32 v=0
95544 On ch=10 n=32 v=15
95544 On ch=10 n=45 v=10
95552 On ch=10 n=45 v=0
95552 On ch=10 n=32 v=0
95552 On ch=10 n=32 v=15
95552 On ch=10 n=45 v=10
95560 On ch=10 n=45 v=0
95560 On ch=10 n=32 v=0
95560 On ch=10 n=32 v=15
95560 On ch=10 n=45 v=10
95568 On ch=10 n=45 v=0
95568 On ch=10 n=32 v=0
95568 On ch=10 n=32 v=15
95568 On ch=10 n=45 v=10
95576 On ch=10 n=45 v=0
95576 On ch=10 n=32 v=0
95576 On ch=10 n=32 v=15
95576 On ch=10 n=45 v=10
95584 On ch=10 n=45 v=0
95584 On ch=10 n=32 v=0
95584 On ch=10 n=32 v=15
95584 On ch=10 n=45 v=10
95592 On ch=10 n=45 v=0
95592 On ch=10 n=32 v=0
95592 On ch=10 n=32 v=15
95592 On ch=10 n=45 v=10
95600 On ch=10 n=45 v=0
95600 On ch=10 n=32 v=0
95600 On ch=10 n=32 v=15
95600 On ch=10 n=45 v=10
95608 On ch=10 n=45 v=0
95608 On ch=10 n=32 v=0
95608 On ch=10 n=32 v=15
95608 On ch=10 n=45 v=10
95616 On ch=10 n=45 v=0
95616 On ch=10 n=32 v=0
95616 On ch=10 n=32 v=15
95616 On ch=10 n=45 v=10
95624 On ch=10 n=45 v=0
95624 On ch=10 n=32 v=0
95624 On ch=10 n=32 v=15
95624 On ch=10 n=45 v=10
95632 On ch=10 n=45 v=0
95632 On ch=10 n=32 v=0
95632 On ch=10 n=32 v=15
95632 On ch=10 n=45 v=10
95640 On ch=10 n=45 v=0
95640 On ch=10 n=32 v=0
95640 On ch=10 n=32 v=15
95640 On ch=10 n=45 v=10
95648 On ch=10 n=45 v=0
95648 On ch=10 n=32 v=0
95648 On ch=10 n=32 v=15
95648 On ch=10 n=45 v=10
95656 On ch=10 n=45 v=0
95656 On ch=10 n=32 v=0
95656 On ch=10 n=32 v=15
95656 On ch=10 n=45 v=10
95664 On ch=10 n=45 v=0
95664 On ch=10 n=32 v=0
95664 On ch=10 n=32 v=15
95664 On ch=10 n=45 v=10
95672 On ch=10 n=45 v=0
95672 On ch=10 n=32 v=0
95672 On ch=10 n=32 v=15
95672 On ch=10 n=45 v=10
95680 On ch=10 n=45 v=0
95680 On ch=10 n=32 v=0
95680 On ch=10 n=32 v=15
95680 On ch=10 n=45 v=10
95688 On ch=10 n=45 v=0
95688 On ch=10 n=32 v=0
95688 On ch=10 n=32 v=15
95688 On ch=10 n=45 v=10
95696 On ch=10 n=45 v=0
95696 On ch=10 n=32 v=0
95696 On ch=10 n=32 v=15
95696 On ch=10 n=45 v=10
95704 On ch=10 n=45 v=0
95704 On ch=10 n=32 v=0
95704 On ch=10 n=32 v=15
95704 On ch=10 n=45 v=10
95712 On ch=10 n=45 v=0
95712 On ch=10 n=32 v=0
95712 On ch=10 n=45 v=10
95712 On ch=10 n=32 v=15
95720 On ch=10 n=32 v=0
95720 On ch=10 n=45 v=0
95720 On ch=10 n=45 v=10
95720 On ch=10 n=32 v=15
95728 On ch=10 n=32 v=0
95728 On ch=10 n=45 v=0
95728 On ch=10 n=45 v=10
95728 On ch=10 n=32 v=15
95736 On ch=10 n=32 v=0
95736 On ch=10 n=45 v=0
95736 On ch=10 n=45 v=10
95736 On ch=10 n=32 v=15
95744 On ch=10 n=32 v=0
95744 On ch=10 n=45 v=0
95744 On ch=10 n=45 v=10
95744 On ch=10 n=32 v=15
95752 On ch=10 n=32 v=0
95752 On ch=10 n=45 v=0
95752 On ch=10 n=45 v=10
95752 On ch=10 n=32 v=15
95760 On ch=10 n=32 v=0
95760 On ch=10 n=45 v=0
95760 On ch=10 n=45 v=10
95760 On ch=10 n=32 v=15
95768 On ch=10 n=32 v=0
95768 On ch=10 n=45 v=0
95768 On ch=10 n=45 v=10
95768 On ch=10 n=32 v=15
95776 On ch=10 n=32 v=0
95776 On ch=10 n=45 v=0
95776 On ch=10 n=45 v=10
95776 On ch=10 n=32 v=15
95784 On ch=10 n=32 v=0
95784 On ch=10 n=45 v=0
95784 On ch=10 n=45 v=10
95784 On ch=10 n=32 v=15
95792 On ch=10 n=32 v=0
95792 On ch=10 n=45 v=0
95792 On ch=10 n=45 v=10
95792 On ch=10 n=32 v=15
95800 On ch=10 n=32 v=0
95800 On ch=10 n=45 v=0
95800 On ch=10 n=45 v=10
95800 On ch=10 n=32 v=15
95808 On ch=10 n=32 v=0
95808 On ch=10 n=45 v=0
95808 On ch=10 n=45 v=10
95808 On ch=10 n=32 v=15
95816 On ch=10 n=32 v=0
95816 On ch=10 n=45 v=0
95816 On ch=10 n=45 v=10
95816 On ch=10 n=32 v=15
95824 On ch=10 n=32 v=0
95824 On ch=10 n=45 v=0
95824 On ch=10 n=45 v=10
95824 On ch=10 n=32 v=15
95832 On ch=10 n=32 v=0
95832 On ch=10 n=45 v=0
95832 On ch=10 n=45 v=10
95832 On ch=10 n=32 v=15
95840 On ch=10 n=32 v=0
95840 On ch=10 n=45 v=0
95840 On ch=10 n=45 v=10
95840 On ch=10 n=32 v=15
95848 On ch=10 n=32 v=0
95848 On ch=10 n=45 v=0
95848 On ch=10 n=45 v=10
95848 On ch=10 n=32 v=15
95856 On ch=10 n=32 v=0
95856 On ch=10 n=45 v=0
95856 On ch=10 n=45 v=10
95856 On ch=10 n=32 v=15
95864 On ch=10 n=32 v=0
95864 On ch=10 n=45 v=0
95864 On ch=10 n=45 v=10
95864 On ch=10 n=32 v=15
95872 On ch=10 n=32 v=0
95872 On ch=10 n=45 v=0
95872 On ch=10 n=45 v=10
95872 On ch=10 n=32 v=15
95880 On ch=10 n=32 v=0
95880 On ch=10 n=45 v=0
95880 On ch=10 n=45 v=10
95880 On ch=10 n=32 v=15
95888 On ch=10 n=32 v=0
95888 On ch=10 n=45 v=0
95888 On ch=10 n=45 v=10
95888 On ch=10 n=32 v=15
95896 On ch=10 n=32 v=0
95896 On ch=10 n=45 v=0
95896 On ch=10 n=45 v=10
95896 On ch=10 n=32 v=15
95904 On ch=10 n=32 v=0
95904 On ch=10 n=45 v=0
95904 On ch=10 n=45 v=10
95904 On ch=10 n=32 v=15
95912 On ch=10 n=32 v=0
95912 On ch=10 n=45 v=0
95912 On ch=10 n=45 v=10
95912 On ch=10 n=32 v=15
95920 On ch=10 n=32 v=0
95920 On ch=10 n=45 v=0
95920 On ch=10 n=45 v=10
95920 On ch=10 n=32 v=15
95928 On ch=10 n=32 v=0
95928 On ch=10 n=45 v=0
95928 On ch=10 n=45 v=10
95928 On ch=10 n=32 v=15
95936 On ch=10 n=32 v=0
95936 On ch=10 n=45 v=0
95936 On ch=10 n=45 v=10
95936 On ch=10 n=32 v=15
95944 On ch=10 n=32 v=0
95944 On ch=10 n=45 v=0
95944 On ch=10 n=45 v=10
95944 On ch=10 n=32 v=15
95952 On ch=10 n=32 v=0
95952 On ch=10 n=45 v=0
95952 On ch=10 n=45 v=10
95952 On ch=10 n=32 v=15
95960 On ch=10 n=32 v=0
95960 On ch=10 n=45 v=0
95960 On ch=10 n=45 v=10
95960 On ch=10 n=32 v=15
95968 On ch=10 n=32 v=0
95968 On ch=10 n=45 v=0
95968 On ch=10 n=45 v=10
95968 On ch=10 n=32 v=15
95976 On ch=10 n=32 v=0
95976 On ch=10 n=45 v=0
95976 On ch=10 n=45 v=10
95976 On ch=10 n=32 v=15
95984 On ch=10 n=32 v=0
95984 On ch=10 n=45 v=0
95984 On ch=10 n=45 v=10
95984 On ch=10 n=32 v=15
95992 On ch=10 n=32 v=0
95992 On ch=10 n=45 v=0
95992 On ch=10 n=45 v=10
95992 On ch=10 n=32 v=15
96000 On ch=10 n=32 v=0
96000 On ch=10 n=45 v=0
96000 On ch=10 n=32 v=15
96000 On ch=10 n=45 v=10
96008 On ch=10 n=45 v=0
96008 On ch=10 n=32 v=0
96008 On ch=10 n=32 v=15
96008 On ch=10 n=45 v=10
96016 On ch=10 n=45 v=0
96016 On ch=10 n=32 v=0
96016 On ch=10 n=32 v=15
96016 On ch=10 n=45 v=10
96024 On ch=10 n=45 v=0
96024 On ch=10 n=32 v=0
96024 On ch=10 n=32 v=15
96024 On ch=10 n=45 v=10
96032 On ch=10 n=45 v=0
96032 On ch=10 n=32 v=0
96032 On ch=10 n=32 v=15
96032 On ch=10 n=45 v=10
96040 On ch=10 n=45 v=0
96040 On ch=10 n=32 v=0
96040 On ch=10 n=32 v=15
96040 On ch=10 n=45 v=10
96048 On ch=10 n=45 v=0
96048 On ch=10 n=32 v=0
96048 On ch=10 n=32 v=15
96048 On ch=10 n=45 v=10
96056 On ch=10 n=45 v=0
96056 On ch=10 n=32 v=0
96056 On ch=10 n=32 v=15
96056 On ch=10 n=45 v=10
96064 On ch=10 n=45 v=0
96064 On ch=10 n=32 v=0
96064 On ch=10 n=32 v=15
96064 On ch=10 n=45 v=10
96072 On ch=10 n=45 v=0
96072 On ch=10 n=32 v=0
96072 On ch=10 n=32 v=15
96072 On ch=10 n=45 v=10
96080 On ch=10 n=45 v=0
96080 On ch=10 n=32 v=0
96080 On ch=10 n=32 v=15
96080 On ch=10 n=45 v=10
96088 On ch=10 n=45 v=0
96088 On ch=10 n=32 v=0
96088 On ch=10 n=32 v=15
96088 On ch=10 n=45 v=10
96096 On ch=10 n=45 v=0
96096 On ch=10 n=32 v=0
96096 On ch=10 n=45 v=10
96096 On ch=10 n=32 v=15
96104 On ch=10 n=32 v=0
96104 On ch=10 n=45 v=0
96104 On ch=10 n=45 v=10
96104 On ch=10 n=32 v=15
96112 On ch=10 n=32 v=0
96112 On ch=10 n=45 v=0
96112 On ch=10 n=45 v=10
96112 On ch=10 n=32 v=15
96120 On ch=10 n=32 v=0
96120 On ch=10 n=45 v=0
96120 On ch=10 n=45 v=10
96120 On ch=10 n=32 v=15
96128 On ch=10 n=32 v=0
96128 On ch=10 n=45 v=0
96128 On ch=10 n=45 v=10
96128 On ch=10 n=32 v=15
96136 On ch=10 n=32 v=0
96136 On ch=10 n=45 v=0
96136 On ch=10 n=45 v=10
96136 On ch=10 n=32 v=15
96144 On ch=10 n=32 v=0
96144 On ch=10 n=45 v=0
96144 On ch=10 n=45 v=10
96144 On ch=10 n=32 v=15
96152 On ch=10 n=32 v=0
96152 On ch=10 n=45 v=0
96152 On ch=10 n=45 v=10
96152 On ch=10 n=32 v=15
96160 On ch=10 n=32 v=0
96160 On ch=10 n=45 v=0
96160 On ch=10 n=45 v=10
96160 On ch=10 n=32 v=15
96168 On ch=10 n=32 v=0
96168 On ch=10 n=45 v=0
96168 On ch=10 n=45 v=10
96168 On ch=10 n=32 v=15
96176 On ch=10 n=32 v=0
96176 On ch=10 n=45 v=0
96176 On ch=10 n=45 v=10
96176 On ch=10 n=32 v=15
96184 On ch=10 n=32 v=0
96184 On ch=10 n=45 v=0
96184 On ch=10 n=45 v=10
96184 On ch=10 n=32 v=15
96192 On ch=10 n=32 v=0
96192 On ch=10 n=45 v=0
96192 On ch=10 n=45 v=10
96192 On ch=10 n=32 v=15
96200 On ch=10 n=32 v=0
96200 On ch=10 n=45 v=0
96200 On ch=10 n=45 v=10
96200 On ch=10 n=32 v=15
96208 On ch=10 n=32 v=0
96208 On ch=10 n=45 v=0
96208 On ch=10 n=45 v=10
96208 On ch=10 n=32 v=15
96216 On ch=10 n=32 v=0
96216 On ch=10 n=45 v=0
96216 On ch=10 n=45 v=10
96216 On ch=10 n=32 v=15
96224 On ch=10 n=32 v=0
96224 On ch=10 n=45 v=0
96224 On ch=10 n=45 v=10
96224 On ch=10 n=32 v=15
96232 On ch=10 n=32 v=0
96232 On ch=10 n=45 v=0
96232 On ch=10 n=45 v=10
96232 On ch=10 n=32 v=15
96240 On ch=10 n=32 v=0
96240 On ch=10 n=45 v=0
96240 On ch=10 n=45 v=10
96240 On ch=10 n=32 v=15
96248 On ch=10 n=32 v=0
96248 On ch=10 n=45 v=0
96248 On ch=10 n=45 v=10
96248 On ch=10 n=32 v=15
96256 On ch=10 n=32 v=0
96256 On ch=10 n=45 v=0
96256 On ch=10 n=45 v=10
96256 On ch=10 n=32 v=15
96264 On ch=10 n=32 v=0
96264 On ch=10 n=45 v=0
96264 On ch=10 n=45 v=10
96264 On ch=10 n=32 v=15
96272 On ch=10 n=32 v=0
96272 On ch=10 n=45 v=0
96272 On ch=10 n=45 v=10
96272 On ch=10 n=32 v=15
96280 On ch=10 n=32 v=0
96280 On ch=10 n=45 v=0
96280 On ch=10 n=45 v=10
96280 On ch=10 n=32 v=15
96288 On ch=10 n=32 v=0
96288 On ch=10 n=45 v=0
96288 On ch=10 n=45 v=10
96288 On ch=10 n=32 v=15
96296 On ch=10 n=32 v=0
96296 On ch=10 n=45 v=0
96296 On ch=10 n=45 v=10
96296 On ch=10 n=32 v=15
96304 On ch=10 n=32 v=0
96304 On ch=10 n=45 v=0
96304 On ch=10 n=45 v=10
96304 On ch=10 n=32 v=15
96312 On ch=10 n=32 v=0
96312 On ch=10 n=45 v=0
96312 On ch=10 n=45 v=10
96312 On ch=10 n=32 v=15
96320 On ch=10 n=32 v=0
96320 On ch=10 n=45 v=0
96320 On ch=10 n=45 v=10
96320 On ch=10 n=32 v=15
96328 On ch=10 n=32 v=0
96328 On ch=10 n=45 v=0
96328 On ch=10 n=45 v=10
96328 On ch=10 n=32 v=15
96336 On ch=10 n=32 v=0
96336 On ch=10 n=45 v=0
96336 On ch=10 n=45 v=10
96336 On ch=10 n=32 v=15
96344 On ch=10 n=32 v=0
96344 On ch=10 n=45 v=0
96344 On ch=10 n=45 v=10
96344 On ch=10 n=32 v=15
96352 On ch=10 n=32 v=0
96352 On ch=10 n=45 v=0
96352 On ch=10 n=45 v=10
96352 On ch=10 n=32 v=15
96360 On ch=10 n=32 v=0
96360 On ch=10 n=45 v=0
96360 On ch=10 n=45 v=10
96360 On ch=10 n=32 v=15
96368 On ch=10 n=32 v=0
96368 On ch=10 n=45 v=0
96368 On ch=10 n=45 v=10
96368 On ch=10 n=32 v=15
96376 On ch=10 n=32 v=0
96376 On ch=10 n=45 v=0
96376 On ch=10 n=45 v=10
96376 On ch=10 n=32 v=15
96384 On ch=10 n=32 v=0
96384 On ch=10 n=45 v=0
96384 On ch=10 n=32 v=15
96384 On ch=10 n=45 v=10
96392 On ch=10 n=45 v=0
96392 On ch=10 n=32 v=0
96392 On ch=10 n=32 v=15
96392 On ch=10 n=45 v=10
96400 On ch=10 n=45 v=0
96400 On ch=10 n=32 v=0
96400 On ch=10 n=32 v=15
96400 On ch=10 n=45 v=10
96408 On ch=10 n=45 v=0
96408 On ch=10 n=32 v=0
96408 On ch=10 n=32 v=15
96408 On ch=10 n=45 v=10
96416 On ch=10 n=45 v=0
96416 On ch=10 n=32 v=0
96416 On ch=10 n=32 v=15
96416 On ch=10 n=45 v=10
96424 On ch=10 n=45 v=0
96424 On ch=10 n=32 v=0
96424 On ch=10 n=32 v=15
96424 On ch=10 n=45 v=10
96432 On ch=10 n=45 v=0
96432 On ch=10 n=32 v=0
96432 On ch=10 n=32 v=15
96432 On ch=10 n=45 v=10
96440 On ch=10 n=45 v=0
96440 On ch=10 n=32 v=0
96440 On ch=10 n=32 v=15
96440 On ch=10 n=45 v=10
96448 On ch=10 n=45 v=0
96448 On ch=10 n=32 v=0
96448 On ch=10 n=32 v=15
96448 On ch=10 n=45 v=10
96456 On ch=10 n=45 v=0
96456 On ch=10 n=32 v=0
96456 On ch=10 n=32 v=15
96456 On ch=10 n=45 v=10
96464 On ch=10 n=45 v=0
96464 On ch=10 n=32 v=0
96464 On ch=10 n=32 v=15
96464 On ch=10 n=45 v=10
96472 On ch=10 n=45 v=0
96472 On ch=10 n=32 v=0
96472 On ch=10 n=32 v=15
96472 On ch=10 n=45 v=10
96480 On ch=10 n=45 v=0
96480 On ch=10 n=32 v=0
96480 On ch=10 n=45 v=10
96480 On ch=10 n=32 v=15
96488 On ch=10 n=32 v=0
96488 On ch=10 n=45 v=0
96488 On ch=10 n=45 v=10
96488 On ch=10 n=32 v=15
96496 On ch=10 n=32 v=0
96496 On ch=10 n=45 v=0
96496 On ch=10 n=45 v=10
96496 On ch=10 n=32 v=15
96504 On ch=10 n=32 v=0
96504 On ch=10 n=45 v=0
96504 On ch=10 n=45 v=10
96504 On ch=10 n=32 v=15
96512 On ch=10 n=32 v=0
96512 On ch=10 n=45 v=0
96512 On ch=10 n=45 v=10
96512 On ch=10 n=32 v=15
96520 On ch=10 n=32 v=0
96520 On ch=10 n=45 v=0
96520 On ch=10 n=45 v=10
96520 On ch=10 n=32 v=15
96528 On ch=10 n=32 v=0
96528 On ch=10 n=45 v=0
96528 On ch=10 n=45 v=10
96528 On ch=10 n=32 v=15
96536 On ch=10 n=32 v=0
96536 On ch=10 n=45 v=0
96536 On ch=10 n=45 v=10
96536 On ch=10 n=32 v=15
96544 On ch=10 n=32 v=0
96544 On ch=10 n=45 v=0
96544 On ch=10 n=45 v=10
96544 On ch=10 n=32 v=15
96552 On ch=10 n=32 v=0
96552 On ch=10 n=45 v=0
96552 On ch=10 n=45 v=10
96552 On ch=10 n=32 v=15
96560 On ch=10 n=32 v=0
96560 On ch=10 n=45 v=0
96560 On ch=10 n=45 v=10
96560 On ch=10 n=32 v=15
96568 On ch=10 n=32 v=0
96568 On ch=10 n=45 v=0
96568 On ch=10 n=45 v=10
96568 On ch=10 n=32 v=15
96576 On ch=10 n=32 v=0
96576 On ch=10 n=45 v=0
96576 On ch=10 n=45 v=10
96576 On ch=10 n=32 v=15
96584 On ch=10 n=32 v=0
96584 On ch=10 n=45 v=0
96584 On ch=10 n=45 v=10
96584 On ch=10 n=32 v=15
96592 On ch=10 n=32 v=0
96592 On ch=10 n=45 v=0
96592 On ch=10 n=45 v=10
96592 On ch=10 n=32 v=15
96600 On ch=10 n=32 v=0
96600 On ch=10 n=45 v=0
96600 On ch=10 n=45 v=10
96600 On ch=10 n=32 v=15
96608 On ch=10 n=32 v=0
96608 On ch=10 n=45 v=0
96608 On ch=10 n=45 v=10
96608 On ch=10 n=32 v=15
96616 On ch=10 n=32 v=0
96616 On ch=10 n=45 v=0
96616 On ch=10 n=45 v=10
96616 On ch=10 n=32 v=15
96624 On ch=10 n=32 v=0
96624 On ch=10 n=45 v=0
96624 On ch=10 n=45 v=10
96624 On ch=10 n=32 v=15
96632 On ch=10 n=32 v=0
96632 On ch=10 n=45 v=0
96632 On ch=10 n=45 v=10
96632 On ch=10 n=32 v=15
96640 On ch=10 n=32 v=0
96640 On ch=10 n=45 v=0
96640 On ch=10 n=45 v=10
96640 On ch=10 n=32 v=15
96648 On ch=10 n=32 v=0
96648 On ch=10 n=45 v=0
96648 On ch=10 n=45 v=10
96648 On ch=10 n=32 v=15
96656 On ch=10 n=32 v=0
96656 On ch=10 n=45 v=0
96656 On ch=10 n=45 v=10
96656 On ch=10 n=32 v=15
96664 On ch=10 n=32 v=0
96664 On ch=10 n=45 v=0
96664 On ch=10 n=45 v=10
96664 On ch=10 n=32 v=15
96672 On ch=10 n=32 v=0
96672 On ch=10 n=45 v=0
96672 On ch=10 n=45 v=10
96672 On ch=10 n=32 v=15
96680 On ch=10 n=32 v=0
96680 On ch=10 n=45 v=0
96680 On ch=10 n=45 v=10
96680 On ch=10 n=32 v=15
96688 On ch=10 n=32 v=0
96688 On ch=10 n=45 v=0
96688 On ch=10 n=45 v=10
96688 On ch=10 n=32 v=15
96696 On ch=10 n=32 v=0
96696 On ch=10 n=45 v=0
96696 On ch=10 n=45 v=10
96696 On ch=10 n=32 v=15
96704 On ch=10 n=32 v=0
96704 On ch=10 n=45 v=0
96704 On ch=10 n=45 v=10
96704 On ch=10 n=32 v=15
96712 On ch=10 n=32 v=0
96712 On ch=10 n=45 v=0
96712 On ch=10 n=45 v=10
96712 On ch=10 n=32 v=15
96720 On ch=10 n=32 v=0
96720 On ch=10 n=45 v=0
96720 On ch=10 n=45 v=10
96720 On ch=10 n=32 v=15
96728 On ch=10 n=32 v=0
96728 On ch=10 n=45 v=0
96728 On ch=10 n=45 v=10
96728 On ch=10 n=32 v=15
96736 On ch=10 n=32 v=0
96736 On ch=10 n=45 v=0
96736 On ch=10 n=45 v=10
96736 On ch=10 n=32 v=15
96744 On ch=10 n=32 v=0
96744 On ch=10 n=45 v=0
96744 On ch=10 n=45 v=10
96744 On ch=10 n=32 v=15
96752 On ch=10 n=32 v=0
96752 On ch=10 n=45 v=0
96752 On ch=10 n=45 v=10
96752 On ch=10 n=32 v=15
96760 On ch=10 n=32 v=0
96760 On ch=10 n=45 v=0
96760 On ch=10 n=45 v=10
96760 On ch=10 n=32 v=15
96768 On ch=10 n=32 v=0
96768 On ch=10 n=45 v=0
96768 On ch=10 n=32 v=15
96768 On ch=10 n=45 v=10
96776 On ch=10 n=45 v=0
96776 On ch=10 n=32 v=0
96776 On ch=10 n=32 v=15
96776 On ch=10 n=45 v=10
96784 On ch=10 n=45 v=0
96784 On ch=10 n=32 v=0
96784 On ch=10 n=32 v=15
96784 On ch=10 n=45 v=10
96792 On ch=10 n=45 v=0
96792 On ch=10 n=32 v=0
96792 On ch=10 n=32 v=15
96792 On ch=10 n=45 v=10
96800 On ch=10 n=45 v=0
96800 On ch=10 n=32 v=0
96800 On ch=10 n=32 v=15
96800 On ch=10 n=45 v=10
96808 On ch=10 n=45 v=0
96808 On ch=10 n=32 v=0
96808 On ch=10 n=32 v=15
96808 On ch=10 n=45 v=10
96816 On ch=10 n=45 v=0
96816 On ch=10 n=32 v=0
96816 On ch=10 n=32 v=15
96816 On ch=10 n=45 v=10
96824 On ch=10 n=45 v=0
96824 On ch=10 n=32 v=0
96824 On ch=10 n=32 v=15
96824 On ch=10 n=45 v=10
96832 On ch=10 n=45 v=0
96832 On ch=10 n=32 v=0
96832 On ch=10 n=32 v=15
96832 On ch=10 n=45 v=10
96840 On ch=10 n=45 v=0
96840 On ch=10 n=32 v=0
96840 On ch=10 n=32 v=15
96840 On ch=10 n=45 v=10
96848 On ch=10 n=45 v=0
96848 On ch=10 n=32 v=0
96848 On ch=10 n=32 v=15
96848 On ch=10 n=45 v=10
96856 On ch=10 n=45 v=0
96856 On ch=10 n=32 v=0
96856 On ch=10 n=32 v=15
96856 On ch=10 n=45 v=10
96864 On ch=10 n=45 v=0
96864 On ch=10 n=32 v=0
96864 On ch=10 n=45 v=10
96864 On ch=10 n=32 v=15
96872 On ch=10 n=32 v=0
96872 On ch=10 n=45 v=0
96872 On ch=10 n=45 v=10
96872 On ch=10 n=32 v=15
96880 On ch=10 n=32 v=0
96880 On ch=10 n=45 v=0
96880 On ch=10 n=45 v=10
96880 On ch=10 n=32 v=15
96888 On ch=10 n=32 v=0
96888 On ch=10 n=45 v=0
96888 On ch=10 n=45 v=10
96888 On ch=10 n=32 v=15
96896 On ch=10 n=32 v=0
96896 On ch=10 n=45 v=0
96896 On ch=10 n=45 v=10
96896 On ch=10 n=32 v=15
96904 On ch=10 n=32 v=0
96904 On ch=10 n=45 v=0
96904 On ch=10 n=45 v=10
96904 On ch=10 n=32 v=15
96912 On ch=10 n=32 v=0
96912 On ch=10 n=45 v=0
96912 On ch=10 n=45 v=10
96912 On ch=10 n=32 v=15
96920 On ch=10 n=32 v=0
96920 On ch=10 n=45 v=0
96920 On ch=10 n=45 v=10
96920 On ch=10 n=32 v=15
96928 On ch=10 n=32 v=0
96928 On ch=10 n=45 v=0
96928 On ch=10 n=45 v=10
96928 On ch=10 n=32 v=15
96936 On ch=10 n=32 v=0
96936 On ch=10 n=45 v=0
96936 On ch=10 n=45 v=10
96936 On ch=10 n=32 v=15
96944 On ch=10 n=32 v=0
96944 On ch=10 n=45 v=0
96944 On ch=10 n=45 v=10
96944 On ch=10 n=32 v=15
96952 On ch=10 n=32 v=0
96952 On ch=10 n=45 v=0
96952 On ch=10 n=45 v=10
96952 On ch=10 n=32 v=15
96960 On ch=10 n=32 v=0
96960 On ch=10 n=45 v=0
96960 On ch=10 n=45 v=10
96960 On ch=10 n=32 v=15
96968 On ch=10 n=32 v=0
96968 On ch=10 n=45 v=0
96968 On ch=10 n=45 v=10
96968 On ch=10 n=32 v=15
96976 On ch=10 n=32 v=0
96976 On ch=10 n=45 v=0
96976 On ch=10 n=45 v=10
96976 On ch=10 n=32 v=15
96984 On ch=10 n=32 v=0
96984 On ch=10 n=45 v=0
96984 On ch=10 n=45 v=10
96984 On ch=10 n=32 v=15
96992 On ch=10 n=32 v=0
96992 On ch=10 n=45 v=0
96992 On ch=10 n=45 v=10
96992 On ch=10 n=32 v=15
97000 On ch=10 n=32 v=0
97000 On ch=10 n=45 v=0
97000 On ch=10 n=45 v=10
97000 On ch=10 n=32 v=15
97008 On ch=10 n=32 v=0
97008 On ch=10 n=45 v=0
97008 On ch=10 n=45 v=10
97008 On ch=10 n=32 v=15
97016 On ch=10 n=32 v=0
97016 On ch=10 n=45 v=0
97016 On ch=10 n=45 v=10
97016 On ch=10 n=32 v=15
97024 On ch=10 n=32 v=0
97024 On ch=10 n=45 v=0
97024 On ch=10 n=45 v=10
97024 On ch=10 n=32 v=15
97032 On ch=10 n=32 v=0
97032 On ch=10 n=45 v=0
97032 On ch=10 n=45 v=10
97032 On ch=10 n=32 v=15
97040 On ch=10 n=32 v=0
97040 On ch=10 n=45 v=0
97040 On ch=10 n=45 v=10
97040 On ch=10 n=32 v=15
97048 On ch=10 n=32 v=0
97048 On ch=10 n=45 v=0
97048 On ch=10 n=45 v=10
97048 On ch=10 n=32 v=15
97056 On ch=10 n=32 v=0
97056 On ch=10 n=45 v=0
97056 On ch=10 n=45 v=10
97056 On ch=10 n=32 v=15
97064 On ch=10 n=32 v=0
97064 On ch=10 n=45 v=0
97064 On ch=10 n=45 v=10
97064 On ch=10 n=32 v=15
97072 On ch=10 n=32 v=0
97072 On ch=10 n=45 v=0
97072 On ch=10 n=45 v=10
97072 On ch=10 n=32 v=15
97080 On ch=10 n=32 v=0
97080 On ch=10 n=45 v=0
97080 On ch=10 n=45 v=10
97080 On ch=10 n=32 v=15
97088 On ch=10 n=32 v=0
97088 On ch=10 n=45 v=0
97088 On ch=10 n=45 v=10
97088 On ch=10 n=32 v=15
97096 On ch=10 n=32 v=0
97096 On ch=10 n=45 v=0
97096 On ch=10 n=45 v=10
97096 On ch=10 n=32 v=15
97104 On ch=10 n=32 v=0
97104 On ch=10 n=45 v=0
97104 On ch=10 n=45 v=10
97104 On ch=10 n=32 v=15
97112 On ch=10 n=32 v=0
97112 On ch=10 n=45 v=0
97112 On ch=10 n=45 v=10
97112 On ch=10 n=32 v=15
97120 On ch=10 n=32 v=0
97120 On ch=10 n=45 v=0
97120 On ch=10 n=45 v=10
97120 On ch=10 n=32 v=15
97128 On ch=10 n=32 v=0
97128 On ch=10 n=45 v=0
97128 On ch=10 n=45 v=10
97128 On ch=10 n=32 v=15
97136 On ch=10 n=32 v=0
97136 On ch=10 n=45 v=0
97136 On ch=10 n=45 v=10
97136 On ch=10 n=32 v=15
97144 On ch=10 n=32 v=0
97144 On ch=10 n=45 v=0
97144 On ch=10 n=45 v=10
97144 On ch=10 n=32 v=15
97152 On ch=10 n=32 v=0
97152 On ch=10 n=45 v=0
97152 Par ch=10 c=11 v=64
97152 On ch=10 n=32 v=15
97160 On ch=10 n=32 v=0
97160 On ch=10 n=32 v=15
97164 Par ch=10 c=11 v=63
97168 On ch=10 n=32 v=0
97168 On ch=10 n=32 v=15
97176 On ch=10 n=32 v=0
97176 Par ch=10 c=11 v=62
97176 On ch=10 n=32 v=15
97184 On ch=10 n=32 v=0
97184 On ch=10 n=32 v=15
97188 Par ch=10 c=11 v=61
97192 On ch=10 n=32 v=0
97192 On ch=10 n=32 v=15
97200 On ch=10 n=32 v=0
97200 Par ch=10 c=11 v=60
97200 On ch=10 n=32 v=15
97208 On ch=10 n=32 v=0
97208 On ch=10 n=32 v=15
97212 Par ch=10 c=11 v=59
97216 On ch=10 n=32 v=0
97216 On ch=10 n=32 v=15
97220 Par ch=10 c=11 v=58
97224 On ch=10 n=32 v=0
97224 On ch=10 n=32 v=15
97232 On ch=10 n=32 v=0
97232 Par ch=10 c=11 v=57
97232 On ch=10 n=32 v=15
97240 On ch=10 n=32 v=0
97240 On ch=10 n=32 v=15
97244 Par ch=10 c=11 v=56
97248 On ch=10 n=32 v=0
97248 On ch=10 n=32 v=15
97256 On ch=10 n=32 v=0
97256 Par ch=10 c=11 v=55
97256 On ch=10 n=32 v=15
97264 On ch=10 n=32 v=0
97264 On ch=10 n=32 v=15
97268 Par ch=10 c=11 v=54
97272 On ch=10 n=32 v=0
97272 On ch=10 n=32 v=15
97280 On ch=10 n=32 v=0
97280 Par ch=10 c=11 v=53
97280 On ch=10 n=32 v=15
97288 On ch=10 n=32 v=0
97288 Par ch=10 c=11 v=52
97288 On ch=10 n=32 v=15
97296 On ch=10 n=32 v=0
97296 On ch=10 n=32 v=15
97300 Par ch=10 c=11 v=51
97304 On ch=10 n=32 v=0
97304 On ch=10 n=32 v=15
97312 On ch=10 n=32 v=0
97312 Par ch=10 c=11 v=50
97312 On ch=10 n=32 v=15
97320 On ch=10 n=32 v=0
97320 On ch=10 n=32 v=15
97324 Par ch=10 c=11 v=49
97328 On ch=10 n=32 v=0
97328 On ch=10 n=32 v=15
97336 On ch=10 n=32 v=0
97336 Par ch=10 c=11 v=48
97336 On ch=10 n=32 v=15
97344 On ch=10 n=32 v=0
97344 Par ch=10 c=11 v=47
97344 On ch=10 n=32 v=15
97352 On ch=10 n=32 v=0
97352 On ch=10 n=32 v=15
97356 Par ch=10 c=11 v=46
97360 On ch=10 n=32 v=0
97360 On ch=10 n=32 v=15
97368 On ch=10 n=32 v=0
97368 Par ch=10 c=11 v=45
97368 On ch=10 n=32 v=15
97376 On ch=10 n=32 v=0
97376 On ch=10 n=32 v=15
97380 Par ch=10 c=11 v=44
97384 On ch=10 n=32 v=0
97384 On ch=10 n=32 v=15
97392 On ch=10 n=32 v=0
97392 Par ch=10 c=11 v=43
97392 On ch=10 n=32 v=15
97400 On ch=10 n=32 v=0
97400 On ch=10 n=32 v=15
97404 Par ch=10 c=11 v=42
97408 On ch=10 n=32 v=0
97408 On ch=10 n=32 v=15
97412 Par ch=10 c=11 v=41
97416 On ch=10 n=32 v=0
97416 On ch=10 n=32 v=15
97424 On ch=10 n=32 v=0
97424 Par ch=10 c=11 v=40
97424 On ch=10 n=32 v=15
97432 On ch=10 n=32 v=0
97432 On ch=10 n=32 v=15
97436 Par ch=10 c=11 v=39
97440 On ch=10 n=32 v=0
97440 On ch=10 n=32 v=15
97448 On ch=10 n=32 v=0
97448 Par ch=10 c=11 v=38
97448 On ch=10 n=32 v=15
97456 On ch=10 n=32 v=0
97456 On ch=10 n=32 v=15
97460 Par ch=10 c=11 v=37
97464 On ch=10 n=32 v=0
97464 On ch=10 n=32 v=15
97472 On ch=10 n=32 v=0
97472 Par ch=10 c=11 v=36
97472 On ch=10 n=32 v=15
97480 On ch=10 n=32 v=0
97480 Par ch=10 c=11 v=35
97480 On ch=10 n=32 v=15
97488 On ch=10 n=32 v=0
97488 On ch=10 n=32 v=15
97492 Par ch=10 c=11 v=34
97496 On ch=10 n=32 v=0
97496 On ch=10 n=32 v=15
97504 On ch=10 n=32 v=0
97504 Par ch=10 c=11 v=33
97504 On ch=10 n=32 v=15
97512 On ch=10 n=32 v=0
97512 On ch=10 n=32 v=15
97516 Par ch=10 c=11 v=32
97520 On ch=10 n=32 v=0
97520 On ch=10 n=32 v=15
97528 On ch=10 n=32 v=0
97528 On ch=10 n=32 v=15
97536 On ch=10 n=32 v=0
97920 Par ch=10 c=11 v=64
116736 On ch=10 n=32 v=31
116744 On ch=10 n=32 v=0
116744 On ch=10 n=32 v=31
116752 On ch=10 n=32 v=0
116752 On ch=10 n=32 v=31
116760 On ch=10 n=32 v=0
116760 On ch=10 n=32 v=31
116768 On ch=10 n=32 v=0
116768 On ch=10 n=32 v=31
116776 On ch=10 n=32 v=0
116776 On ch=10 n=32 v=31
116784 On ch=10 n=32 v=0
116784 On ch=10 n=32 v=31
116792 On ch=10 n=32 v=0
116792 On ch=10 n=32 v=31
116800 On ch=10 n=32 v=0
116800 On ch=10 n=32 v=31
116808 On ch=10 n=32 v=0
116808 On ch=10 n=32 v=31
116816 On ch=10 n=32 v=0
116816 On ch=10 n=32 v=31
116824 On ch=10 n=32 v=0
116824 On ch=10 n=32 v=31
116832 On ch=10 n=32 v=0
116832 On ch=10 n=32 v=31
116840 On ch=10 n=32 v=0
116840 On ch=10 n=32 v=31
116848 On ch=10 n=32 v=0
116848 On ch=10 n=32 v=31
116856 On ch=10 n=32 v=0
116856 On ch=10 n=32 v=31
116864 On ch=10 n=32 v=0
116864 On ch=10 n=32 v=31
116872 On ch=10 n=32 v=0
116872 On ch=10 n=32 v=31
116880 On ch=10 n=32 v=0
116880 On ch=10 n=32 v=31
116888 On ch=10 n=32 v=0
116888 On ch=10 n=32 v=31
116896 On ch=10 n=32 v=0
116896 On ch=10 n=32 v=31
116904 On ch=10 n=32 v=0
116904 On ch=10 n=32 v=31
116912 On ch=10 n=32 v=0
116912 On ch=10 n=32 v=31
116920 On ch=10 n=32 v=0
116920 On ch=10 n=32 v=31
116928 On ch=10 n=32 v=0
116928 On ch=10 n=32 v=31
116936 On ch=10 n=32 v=0
116936 On ch=10 n=32 v=31
116944 On ch=10 n=32 v=0
116944 On ch=10 n=32 v=31
116952 On ch=10 n=32 v=0
116952 On ch=10 n=32 v=31
116960 On ch=10 n=32 v=0
116960 On ch=10 n=32 v=31
116968 On ch=10 n=32 v=0
116968 On ch=10 n=32 v=31
116976 On ch=10 n=32 v=0
116976 On ch=10 n=32 v=31
116984 On ch=10 n=32 v=0
116984 On ch=10 n=32 v=31
116992 On ch=10 n=32 v=0
116992 On ch=10 n=32 v=31
117000 On ch=10 n=32 v=0
117000 On ch=10 n=32 v=31
117008 On ch=10 n=32 v=0
117008 On ch=10 n=32 v=31
117016 On ch=10 n=32 v=0
117016 On ch=10 n=32 v=31
117024 On ch=10 n=32 v=0
117024 On ch=10 n=32 v=31
117032 On ch=10 n=32 v=0
117032 On ch=10 n=32 v=31
117040 On ch=10 n=32 v=0
117040 On ch=10 n=32 v=31
117048 On ch=10 n=32 v=0
117048 On ch=10 n=32 v=31
117056 On ch=10 n=32 v=0
117056 On ch=10 n=32 v=31
117064 On ch=10 n=32 v=0
117064 On ch=10 n=32 v=31
117072 On ch=10 n=32 v=0
117072 On ch=10 n=32 v=31
117080 On ch=10 n=32 v=0
117080 On ch=10 n=32 v=31
117088 On ch=10 n=32 v=0
117088 On ch=10 n=32 v=31
117096 On ch=10 n=32 v=0
117096 On ch=10 n=32 v=31
117104 On ch=10 n=32 v=0
117104 On ch=10 n=32 v=31
117112 On ch=10 n=32 v=0
117112 On ch=10 n=32 v=31
117120 On ch=10 n=32 v=0
117120 On ch=10 n=32 v=31
117128 On ch=10 n=32 v=0
117128 On ch=10 n=32 v=31
117136 On ch=10 n=32 v=0
117136 On ch=10 n=32 v=31
117144 On ch=10 n=32 v=0
117144 On ch=10 n=32 v=31
117152 On ch=10 n=32 v=0
117152 On ch=10 n=32 v=31
117160 On ch=10 n=32 v=0
117160 On ch=10 n=32 v=31
117168 On ch=10 n=32 v=0
117168 On ch=10 n=32 v=31
117176 On ch=10 n=32 v=0
117176 On ch=10 n=32 v=31
117184 On ch=10 n=32 v=0
117184 On ch=10 n=32 v=31
117192 On ch=10 n=32 v=0
117192 On ch=10 n=32 v=31
117200 On ch=10 n=32 v=0
117200 On ch=10 n=32 v=31
117208 On ch=10 n=32 v=0
117208 On ch=10 n=32 v=31
117216 On ch=10 n=32 v=0
117216 On ch=10 n=32 v=31
117224 On ch=10 n=32 v=0
117224 On ch=10 n=32 v=31
117232 On ch=10 n=32 v=0
117232 On ch=10 n=32 v=31
117240 On ch=10 n=32 v=0
117240 On ch=10 n=32 v=31
117248 On ch=10 n=32 v=0
117248 On ch=10 n=32 v=31
117256 On ch=10 n=32 v=0
117256 On ch=10 n=32 v=31
117264 On ch=10 n=32 v=0
117264 On ch=10 n=32 v=31
117272 On ch=10 n=32 v=0
117272 On ch=10 n=32 v=31
117280 On ch=10 n=32 v=0
117280 On ch=10 n=32 v=31
117288 On ch=10 n=32 v=0
117288 On ch=10 n=32 v=31
117296 On ch=10 n=32 v=0
117296 On ch=10 n=32 v=31
117304 On ch=10 n=32 v=0
117304 On ch=10 n=32 v=31
117312 On ch=10 n=32 v=0
117312 On ch=10 n=32 v=31
117320 On ch=10 n=32 v=0
117320 On ch=10 n=32 v=31
117328 On ch=10 n=32 v=0
117328 On ch=10 n=32 v=31
117336 On ch=10 n=32 v=0
117336 On ch=10 n=32 v=31
117344 On ch=10 n=32 v=0
117344 On ch=10 n=32 v=31
117352 On ch=10 n=32 v=0
117352 On ch=10 n=32 v=31
117360 On ch=10 n=32 v=0
117360 On ch=10 n=32 v=31
117368 On ch=10 n=32 v=0
117368 On ch=10 n=32 v=31
117376 On ch=10 n=32 v=0
117376 On ch=10 n=32 v=31
117384 On ch=10 n=32 v=0
117384 On ch=10 n=32 v=31
117392 On ch=10 n=32 v=0
117392 On ch=10 n=32 v=31
117400 On ch=10 n=32 v=0
117400 On ch=10 n=32 v=31
117408 On ch=10 n=32 v=0
117408 On ch=10 n=32 v=31
117416 On ch=10 n=32 v=0
117416 On ch=10 n=32 v=31
117424 On ch=10 n=32 v=0
117424 On ch=10 n=32 v=31
117432 On ch=10 n=32 v=0
117432 On ch=10 n=32 v=31
117440 On ch=10 n=32 v=0
117440 On ch=10 n=32 v=31
117448 On ch=10 n=32 v=0
117448 On ch=10 n=32 v=31
117456 On ch=10 n=32 v=0
117456 On ch=10 n=32 v=31
117464 On ch=10 n=32 v=0
117464 On ch=10 n=32 v=31
117472 On ch=10 n=32 v=0
117472 On ch=10 n=32 v=31
117480 On ch=10 n=32 v=0
117480 On ch=10 n=32 v=31
117488 On ch=10 n=32 v=0
117488 On ch=10 n=32 v=31
117496 On ch=10 n=32 v=0
117496 On ch=10 n=32 v=31
117504 On ch=10 n=32 v=0
117504 On ch=10 n=32 v=31
117512 On ch=10 n=32 v=0
117512 On ch=10 n=32 v=31
117520 On ch=10 n=32 v=0
117520 On ch=10 n=32 v=31
117528 On ch=10 n=32 v=0
117528 On ch=10 n=32 v=31
117536 On ch=10 n=32 v=0
117536 On ch=10 n=32 v=31
117544 On ch=10 n=32 v=0
117544 On ch=10 n=32 v=31
117552 On ch=10 n=32 v=0
117552 On ch=10 n=32 v=31
117560 On ch=10 n=32 v=0
117560 On ch=10 n=32 v=31
117568 On ch=10 n=32 v=0
117568 On ch=10 n=32 v=31
117576 On ch=10 n=32 v=0
117576 On ch=10 n=32 v=31
117584 On ch=10 n=32 v=0
117584 On ch=10 n=32 v=31
117592 On ch=10 n=32 v=0
117592 On ch=10 n=32 v=31
117600 On ch=10 n=32 v=0
117600 On ch=10 n=32 v=31
117608 On ch=10 n=32 v=0
117608 On ch=10 n=32 v=31
117616 On ch=10 n=32 v=0
117616 On ch=10 n=32 v=31
117624 On ch=10 n=32 v=0
117624 On ch=10 n=32 v=31
117632 On ch=10 n=32 v=0
117632 On ch=10 n=32 v=31
117640 On ch=10 n=32 v=0
117640 On ch=10 n=32 v=31
117648 On ch=10 n=32 v=0
117648 On ch=10 n=32 v=31
117656 On ch=10 n=32 v=0
117656 On ch=10 n=32 v=31
117664 On ch=10 n=32 v=0
117664 On ch=10 n=32 v=31
117672 On ch=10 n=32 v=0
117672 On ch=10 n=32 v=31
117680 On ch=10 n=32 v=0
117680 On ch=10 n=32 v=31
117688 On ch=10 n=32 v=0
117688 On ch=10 n=32 v=31
117696 On ch=10 n=32 v=0
117696 On ch=10 n=32 v=31
117704 On ch=10 n=32 v=0
117704 On ch=10 n=32 v=31
117712 On ch=10 n=32 v=0
117712 On ch=10 n=32 v=31
117720 On ch=10 n=32 v=0
117720 On ch=10 n=32 v=31
117728 On ch=10 n=32 v=0
117728 On ch=10 n=32 v=31
117736 On ch=10 n=32 v=0
117736 On ch=10 n=32 v=31
117744 On ch=10 n=32 v=0
117744 On ch=10 n=32 v=31
117752 On ch=10 n=32 v=0
117752 On ch=10 n=32 v=31
117760 On ch=10 n=32 v=0
117760 On ch=10 n=32 v=31
117768 On ch=10 n=32 v=0
117768 On ch=10 n=32 v=31
117776 On ch=10 n=32 v=0
117776 On ch=10 n=32 v=31
117784 On ch=10 n=32 v=0
117784 On ch=10 n=32 v=31
117792 On ch=10 n=32 v=0
117792 On ch=10 n=32 v=31
117800 On ch=10 n=32 v=0
117800 On ch=10 n=32 v=31
117808 On ch=10 n=32 v=0
117808 On ch=10 n=32 v=31
117816 On ch=10 n=32 v=0
117816 On ch=10 n=32 v=31
117824 On ch=10 n=32 v=0
117824 On ch=10 n=32 v=31
117832 On ch=10 n=32 v=0
117832 On ch=10 n=32 v=31
117840 On ch=10 n=32 v=0
117840 On ch=10 n=32 v=31
117848 On ch=10 n=32 v=0
117848 On ch=10 n=32 v=31
117856 On ch=10 n=32 v=0
117856 On ch=10 n=32 v=31
117864 On ch=10 n=32 v=0
117864 On ch=10 n=32 v=31
117872 On ch=10 n=32 v=0
117872 On ch=10 n=32 v=31
117880 On ch=10 n=32 v=0
117880 On ch=10 n=32 v=31
117888 On ch=10 n=32 v=0
117888 On ch=10 n=32 v=31
117896 On ch=10 n=32 v=0
117896 On ch=10 n=32 v=31
117904 On ch=10 n=32 v=0
117904 On ch=10 n=32 v=31
117912 On ch=10 n=32 v=0
117912 On ch=10 n=32 v=31
117920 On ch=10 n=32 v=0
117920 On ch=10 n=32 v=31
117928 On ch=10 n=32 v=0
117928 On ch=10 n=32 v=31
117936 On ch=10 n=32 v=0
117936 On ch=10 n=32 v=31
117944 On ch=10 n=32 v=0
117944 On ch=10 n=32 v=31
117952 On ch=10 n=32 v=0
117952 On ch=10 n=32 v=31
117960 On ch=10 n=32 v=0
117960 On ch=10 n=32 v=31
117968 On ch=10 n=32 v=0
117968 On ch=10 n=32 v=31
117976 On ch=10 n=32 v=0
117976 On ch=10 n=32 v=31
117984 On ch=10 n=32 v=0
117984 On ch=10 n=32 v=31
117992 On ch=10 n=32 v=0
117992 On ch=10 n=32 v=31
118000 On ch=10 n=32 v=0
118000 On ch=10 n=32 v=31
118008 On ch=10 n=32 v=0
118008 On ch=10 n=32 v=31
118016 On ch=10 n=32 v=0
118016 On ch=10 n=32 v=31
118024 On ch=10 n=32 v=0
118024 On ch=10 n=32 v=31
118032 On ch=10 n=32 v=0
118032 On ch=10 n=32 v=31
118040 On ch=10 n=32 v=0
118040 On ch=10 n=32 v=31
118048 On ch=10 n=32 v=0
118048 On ch=10 n=32 v=31
118056 On ch=10 n=32 v=0
118056 On ch=10 n=32 v=31
118064 On ch=10 n=32 v=0
118064 On ch=10 n=32 v=31
118072 On ch=10 n=32 v=0
118072 On ch=10 n=32 v=31
118080 On ch=10 n=32 v=0
118080 On ch=10 n=32 v=31
118088 On ch=10 n=32 v=0
118088 On ch=10 n=32 v=31
118096 On ch=10 n=32 v=0
118096 On ch=10 n=32 v=31
118104 On ch=10 n=32 v=0
118104 On ch=10 n=32 v=31
118112 On ch=10 n=32 v=0
118112 On ch=10 n=32 v=31
118120 On ch=10 n=32 v=0
118120 On ch=10 n=32 v=31
118128 On ch=10 n=32 v=0
118128 On ch=10 n=32 v=31
118136 On ch=10 n=32 v=0
118136 On ch=10 n=32 v=31
118144 On ch=10 n=32 v=0
118144 On ch=10 n=32 v=31
118152 On ch=10 n=32 v=0
118152 On ch=10 n=32 v=31
118160 On ch=10 n=32 v=0
118160 On ch=10 n=32 v=31
118168 On ch=10 n=32 v=0
118168 On ch=10 n=32 v=31
118176 On ch=10 n=32 v=0
118176 On ch=10 n=32 v=31
118184 On ch=10 n=32 v=0
118184 On ch=10 n=32 v=31
118192 On ch=10 n=32 v=0
118192 On ch=10 n=32 v=31
118200 On ch=10 n=32 v=0
118200 On ch=10 n=32 v=31
118208 On ch=10 n=32 v=0
118208 On ch=10 n=32 v=31
118216 On ch=10 n=32 v=0
118216 On ch=10 n=32 v=31
118224 On ch=10 n=32 v=0
118224 On ch=10 n=32 v=31
118232 On ch=10 n=32 v=0
118232 On ch=10 n=32 v=31
118240 On ch=10 n=32 v=0
118240 On ch=10 n=32 v=31
118248 On ch=10 n=32 v=0
118248 On ch=10 n=32 v=31
118256 On ch=10 n=32 v=0
118256 On ch=10 n=32 v=31
118264 On ch=10 n=32 v=0
118264 On ch=10 n=32 v=31
118272 On ch=10 n=32 v=0
118272 On ch=10 n=32 v=79
118320 On ch=10 n=32 v=0
126336 On ch=10 n=32 v=127
126374 On ch=10 n=32 v=0
126384 Par ch=10 c=11 v=64
126384 On ch=10 n=32 v=47
126392 On ch=10 n=32 v=0
126392 Par ch=10 c=11 v=63
126392 On ch=10 n=32 v=47
126400 On ch=10 n=32 v=0
126400 Par ch=10 c=11 v=62
126400 On ch=10 n=32 v=47
126408 On ch=10 n=32 v=0
126408 Par ch=10 c=11 v=61
126408 On ch=10 n=32 v=47
126412 Par ch=10 c=11 v=60
126416 On ch=10 n=32 v=0
126416 On ch=10 n=32 v=47
126420 Par ch=10 c=11 v=59
126424 On ch=10 n=32 v=0
126424 On ch=10 n=32 v=47
126428 Par ch=10 c=11 v=58
126432 On ch=10 n=32 v=0
126432 Par ch=10 c=11 v=57
126432 On ch=10 n=32 v=47
126440 On ch=10 n=32 v=0
126440 Par ch=10 c=11 v=56
126440 On ch=10 n=32 v=47
126448 On ch=10 n=32 v=0
126448 Par ch=10 c=11 v=55
126448 On ch=10 n=32 v=47
126456 On ch=10 n=32 v=0
126456 Par ch=10 c=11 v=54
126456 On ch=10 n=32 v=47
126460 Par ch=10 c=11 v=53
126464 On ch=10 n=32 v=0
126464 On ch=10 n=32 v=47
126468 Par ch=10 c=11 v=52
126472 On ch=10 n=32 v=0
126472 On ch=10 n=32 v=47
126476 Par ch=10 c=11 v=51
126480 On ch=10 n=32 v=0
126480 Par ch=10 c=11 v=50
126480 On ch=10 n=32 v=47
126488 On ch=10 n=32 v=0
126488 Par ch=10 c=11 v=49
126488 On ch=10 n=32 v=47
126496 On ch=10 n=32 v=0
126496 Par ch=10 c=11 v=48
126496 On ch=10 n=32 v=47
126504 On ch=10 n=32 v=0
126504 Par ch=10 c=11 v=47
126504 On ch=10 n=32 v=47
126508 Par ch=10 c=11 v=46
126512 On ch=10 n=32 v=0
126512 On ch=10 n=32 v=47
126516 Par ch=10 c=11 v=45
126520 On ch=10 n=32 v=0
126520 On ch=10 n=32 v=47
126524 Par ch=10 c=11 v=44
126528 On ch=10 n=32 v=0
126528 Par ch=10 c=11 v=43
126528 On ch=10 n=32 v=47
126536 On ch=10 n=32 v=0
126536 Par ch=10 c=11 v=42
126536 On ch=10 n=32 v=47
126544 On ch=10 n=32 v=0
126544 Par ch=10 c=11 v=41
126544 On ch=10 n=32 v=47
126552 On ch=10 n=32 v=0
126552 Par ch=10 c=11 v=40
126552 On ch=10 n=32 v=47
126556 Par ch=10 c=11 v=39
126560 On ch=10 n=32 v=0
126560 On ch=10 n=32 v=47
126564 Par ch=10 c=11 v=38
126568 On ch=10 n=32 v=0
126568 On ch=10 n=32 v=47
126572 Par ch=10 c=11 v=37
126576 On ch=10 n=32 v=0
126576 Par ch=10 c=11 v=36
126576 On ch=10 n=32 v=47
126584 On ch=10 n=32 v=0
126584 Par ch=10 c=11 v=35
126584 On ch=10 n=32 v=47
126592 On ch=10 n=32 v=0
126592 Par ch=10 c=11 v=34
126592 On ch=10 n=32 v=47
126600 On ch=10 n=32 v=0
126600 Par ch=10 c=11 v=33
126600 On ch=10 n=32 v=47
126604 Par ch=10 c=11 v=32
126608 On ch=10 n=32 v=0
126608 On ch=10 n=32 v=47
126612 Par ch=10 c=11 v=31
126616 On ch=10 n=32 v=0
126616 On ch=10 n=32 v=47
126620 Par ch=10 c=11 v=30
126624 On ch=10 n=32 v=0
126624 Par ch=10 c=11 v=29
126624 On ch=10 n=32 v=47
126632 On ch=10 n=32 v=0
126632 Par ch=10 c=11 v=28
126632 On ch=10 n=32 v=47
126640 On ch=10 n=32 v=0
126640 Par ch=10 c=11 v=27
126640 On ch=10 n=32 v=47
126648 On ch=10 n=32 v=0
126648 Par ch=10 c=11 v=26
126648 On ch=10 n=32 v=47
126652 Par ch=10 c=11 v=25
126656 On ch=10 n=32 v=0
126656 On ch=10 n=32 v=47
126660 Par ch=10 c=11 v=24
126664 On ch=10 n=32 v=0
126664 On ch=10 n=32 v=47
126668 Par ch=10 c=11 v=23
126672 On ch=10 n=32 v=0
126672 Par ch=10 c=11 v=22
126672 On ch=10 n=32 v=47
126680 On ch=10 n=32 v=0
126680 Par ch=10 c=11 v=21
126680 On ch=10 n=32 v=47
126688 On ch=10 n=32 v=0
126688 Par ch=10 c=11 v=20
126688 On ch=10 n=32 v=47
126696 On ch=10 n=32 v=0
126696 Par ch=10 c=11 v=19
126696 On ch=10 n=32 v=47
126700 Par ch=10 c=11 v=18
126704 On ch=10 n=32 v=0
126704 On ch=10 n=32 v=47
126708 Par ch=10 c=11 v=17
126712 On ch=10 n=32 v=0
126712 On ch=10 n=32 v=47
126716 Par ch=10 c=11 v=16
126720 On ch=10 n=32 v=0
126720 On ch=10 n=32 v=47
126728 On ch=10 n=32 v=0
126728 On ch=10 n=32 v=47
126736 On ch=10 n=32 v=0
126736 On ch=10 n=32 v=47
126744 On ch=10 n=32 v=0
126744 On ch=10 n=32 v=47
126752 On ch=10 n=32 v=0
126752 On ch=10 n=32 v=47
126756 Par ch=10 c=11 v=16
126760 On ch=10 n=32 v=0
126760 On ch=10 n=32 v=47
126768 On ch=10 n=32 v=0
126768 On ch=10 n=32 v=47
126776 On ch=10 n=32 v=0
126776 On ch=10 n=32 v=47
126784 On ch=10 n=32 v=0
126784 On ch=10 n=32 v=47
126792 On ch=10 n=32 v=0
126792 Par ch=10 c=11 v=15
126792 On ch=10 n=32 v=47
126800 On ch=10 n=32 v=0
126800 On ch=10 n=32 v=47
126808 On ch=10 n=32 v=0
126808 On ch=10 n=32 v=47
126816 On ch=10 n=32 v=0
126816 On ch=10 n=32 v=47
126824 On ch=10 n=32 v=0
126824 On ch=10 n=32 v=47
126828 Par ch=10 c=11 v=14
126832 On ch=10 n=32 v=0
126832 On ch=10 n=32 v=47
126840 On ch=10 n=32 v=0
126840 On ch=10 n=32 v=47
126848 On ch=10 n=32 v=0
126848 On ch=10 n=32 v=47
126856 On ch=10 n=32 v=0
126856 On ch=10 n=32 v=47
126860 Par ch=10 c=11 v=13
126864 On ch=10 n=32 v=0
126864 On ch=10 n=32 v=47
126872 On ch=10 n=32 v=0
126872 On ch=10 n=32 v=47
126880 On ch=10 n=32 v=0
126880 On ch=10 n=32 v=47
126888 On ch=10 n=32 v=0
126888 On ch=10 n=32 v=47
126896 On ch=10 n=32 v=0
126896 Par ch=10 c=11 v=12
126896 On ch=10 n=32 v=47
126904 On ch=10 n=32 v=0
126904 On ch=10 n=32 v=47
126912 On ch=10 n=32 v=0
126912 On ch=10 n=32 v=47
126920 On ch=10 n=32 v=0
126920 On ch=10 n=32 v=47
126928 On ch=10 n=32 v=0
126928 On ch=10 n=32 v=47
126932 Par ch=10 c=11 v=11
126936 On ch=10 n=32 v=0
126936 On ch=10 n=32 v=47
126944 On ch=10 n=32 v=0
126944 On ch=10 n=32 v=47
126952 On ch=10 n=32 v=0
126952 On ch=10 n=32 v=47
126960 On ch=10 n=32 v=0
126960 On ch=10 n=32 v=47
126968 On ch=10 n=32 v=0
126968 Par ch=10 c=11 v=10
126968 On ch=10 n=32 v=47
126976 On ch=10 n=32 v=0
126976 On ch=10 n=32 v=47
126984 On ch=10 n=32 v=0
126984 On ch=10 n=32 v=47
126992 On ch=10 n=32 v=0
126992 On ch=10 n=32 v=47
127000 On ch=10 n=32 v=0
127000 Par ch=10 c=11 v=9
127000 On ch=10 n=32 v=47
127008 On ch=10 n=32 v=0
127008 On ch=10 n=32 v=47
127016 On ch=10 n=32 v=0
127016 On ch=10 n=32 v=47
127024 On ch=10 n=32 v=0
127024 On ch=10 n=32 v=47
127032 On ch=10 n=32 v=0
127032 On ch=10 n=32 v=47
127036 Par ch=10 c=11 v=8
127040 On ch=10 n=32 v=0
127040 On ch=10 n=32 v=47
127048 On ch=10 n=32 v=0
127048 On ch=10 n=32 v=47
127056 On ch=10 n=32 v=0
127056 On ch=10 n=32 v=47
127064 On ch=10 n=32 v=0
127064 On ch=10 n=32 v=47
127072 On ch=10 n=32 v=0
127072 On ch=10 n=32 v=47
127080 On ch=10 n=32 v=0
127080 On ch=10 n=32 v=47
127088 On ch=10 n=32 v=0
127088 On ch=10 n=32 v=47
127096 On ch=10 n=32 v=0
127096 On ch=10 n=32 v=47
127104 On ch=10 n=32 v=0
127488 Par ch=10 c=11 v=64
151296 On ch=10 n=45 v=15
151450 On ch=10 n=45 v=0
151680 On ch=10 n=45 v=15
151834 On ch=10 n=45 v=0
152064 On ch=10 n=45 v=15
152218 On ch=10 n=45 v=0
152448 On ch=10 n=45 v=15
152602 On ch=10 n=45 v=0
152832 On ch=10 n=45 v=15
152986 On ch=10 n=45 v=0
153216 On ch=10 n=45 v=15
153370 On ch=10 n=45 v=0
153600 On ch=10 n=45 v=15
153754 On ch=10 n=45 v=0
153984 On ch=10 n=45 v=15
154138 On ch=10 n=45 v=0
154368 On ch=10 n=45 v=15
154522 On ch=10 n=45 v=0
154752 On ch=10 n=45 v=15
154906 On ch=10 n=45 v=0
155136 On ch=10 n=45 v=15
155290 On ch=10 n=45 v=0
158208 On ch=10 n=45 v=47
158515 On ch=10 n=45 v=0
159744 Par ch=10 c=11 v=64
159744 On ch=10 n=32 v=31
159752 On ch=10 n=32 v=0
159752 On ch=10 n=32 v=31
159760 On ch=10 n=32 v=0
159760 Par ch=10 c=11 v=65
159760 On ch=10 n=32 v=31
159768 On ch=10 n=32 v=0
159768 On ch=10 n=32 v=31
159772 Par ch=10 c=11 v=66
159776 On ch=10 n=32 v=0
159776 On ch=10 n=32 v=31
159784 On ch=10 n=32 v=0
159784 Par ch=10 c=11 v=67
159784 On ch=10 n=32 v=31
159792 On ch=10 n=32 v=0
159792 On ch=10 n=32 v=31
159796 Par ch=10 c=11 v=68
159800 On ch=10 n=32 v=0
159800 On ch=10 n=32 v=31
159808 On ch=10 n=32 v=0
159808 Par ch=10 c=11 v=69
159808 On ch=10 n=32 v=31
159816 On ch=10 n=32 v=0
159816 On ch=10 n=32 v=31
159820 Par ch=10 c=11 v=70
159824 On ch=10 n=32 v=0
159824 On ch=10 n=32 v=31
159832 On ch=10 n=32 v=0
159832 Par ch=10 c=11 v=71
159832 On ch=10 n=32 v=31
159840 On ch=10 n=32 v=0
159840 On ch=10 n=32 v=31
159844 Par ch=10 c=11 v=72
159848 On ch=10 n=32 v=0
159848 On ch=10 n=32 v=31
159856 On ch=10 n=32 v=0
159856 Par ch=10 c=11 v=73
159856 On ch=10 n=32 v=31
159864 On ch=10 n=32 v=0
159864 On ch=10 n=32 v=31
159868 Par ch=10 c=11 v=74
159872 On ch=10 n=32 v=0
159872 On ch=10 n=32 v=31
159880 On ch=10 n=32 v=0
159880 Par ch=10 c=11 v=75
159880 On ch=10 n=32 v=31
159888 On ch=10 n=32 v=0
159888 On ch=10 n=32 v=31
159892 Par ch=10 c=11 v=76
159896 On ch=10 n=32 v=0
159896 On ch=10 n=32 v=31
159904 On ch=10 n=32 v=0
159904 Par ch=10 c=11 v=77
159904 On ch=10 n=32 v=31
159912 On ch=10 n=32 v=0
159912 On ch=10 n=32 v=31
159916 Par ch=10 c=11 v=78
159920 On ch=10 n=32 v=0
159920 On ch=10 n=32 v=31
159928 On ch=10 n=32 v=0
159928 Par ch=10 c=11 v=79
159928 On ch=10 n=32 v=31
159936 On ch=10 n=32 v=0
159936 On ch=10 n=32 v=31
159940 Par ch=10 c=11 v=80
159944 On ch=10 n=32 v=0
159944 On ch=10 n=32 v=31
159952 On ch=10 n=32 v=0
159952 Par ch=10 c=11 v=81
159952 On ch=10 n=32 v=31
159960 On ch=10 n=32 v=0
159960 On ch=10 n=32 v=31
159964 Par ch=10 c=11 v=82
159968 On ch=10 n=32 v=0
159968 On ch=10 n=32 v=31
159976 On ch=10 n=32 v=0
159976 Par ch=10 c=11 v=83
159976 On ch=10 n=32 v=31
159984 On ch=10 n=32 v=0
159984 On ch=10 n=32 v=31
159988 Par ch=10 c=11 v=84
159992 On ch=10 n=32 v=0
159992 On ch=10 n=32 v=31
160000 On ch=10 n=32 v=0
160000 Par ch=10 c=11 v=85
160000 On ch=10 n=32 v=31
160008 On ch=10 n=32 v=0
160008 On ch=10 n=32 v=31
160016 On ch=10 n=32 v=0
160016 Par ch=10 c=11 v=86
160016 On ch=10 n=32 v=31
160024 On ch=10 n=32 v=0
160024 On ch=10 n=32 v=31
160028 Par ch=10 c=11 v=87
160032 On ch=10 n=32 v=0
160032 On ch=10 n=32 v=31
160040 On ch=10 n=32 v=0
160040 Par ch=10 c=11 v=88
160040 On ch=10 n=32 v=31
160048 On ch=10 n=32 v=0
160048 On ch=10 n=32 v=31
160052 Par ch=10 c=11 v=89
160056 On ch=10 n=32 v=0
160056 On ch=10 n=32 v=31
160064 On ch=10 n=32 v=0
160064 Par ch=10 c=11 v=90
160064 On ch=10 n=32 v=31
160072 On ch=10 n=32 v=0
160072 On ch=10 n=32 v=31
160076 Par ch=10 c=11 v=91
160080 On ch=10 n=32 v=0
160080 On ch=10 n=32 v=31
160088 On ch=10 n=32 v=0
160088 Par ch=10 c=11 v=92
160088 On ch=10 n=32 v=31
160096 On ch=10 n=32 v=0
160096 On ch=10 n=32 v=31
160100 Par ch=10 c=11 v=93
160104 On ch=10 n=32 v=0
160104 On ch=10 n=32 v=31
160112 On ch=10 n=32 v=0
160112 Par ch=10 c=11 v=94
160112 On ch=10 n=32 v=31
160120 On ch=10 n=32 v=0
160120 On ch=10 n=32 v=31
160124 Par ch=10 c=11 v=95
160128 On ch=10 n=32 v=0
160128 On ch=10 n=32 v=31
160136 On ch=10 n=32 v=0
160136 Par ch=10 c=11 v=96
160136 On ch=10 n=32 v=31
160144 On ch=10 n=32 v=0
160144 On ch=10 n=32 v=31
160148 Par ch=10 c=11 v=97
160152 On ch=10 n=32 v=0
160152 On ch=10 n=32 v=31
160160 On ch=10 n=32 v=0
160160 Par ch=10 c=11 v=98
160160 On ch=10 n=32 v=31
160168 On ch=10 n=32 v=0
160168 On ch=10 n=32 v=31
160172 Par ch=10 c=11 v=99
160176 On ch=10 n=32 v=0
160176 On ch=10 n=32 v=31
160184 On ch=10 n=32 v=0
160184 Par ch=10 c=11 v=100
160184 On ch=10 n=32 v=31
160192 On ch=10 n=32 v=0
160192 On ch=10 n=32 v=31
160196 Par ch=10 c=11 v=101
160200 On ch=10 n=32 v=0
160200 On ch=10 n=32 v=31
160208 On ch=10 n=32 v=0
160208 Par ch=10 c=11 v=102
160208 On ch=10 n=32 v=31
160216 On ch=10 n=32 v=0
160216 On ch=10 n=32 v=31
160220 Par ch=10 c=11 v=103
160224 On ch=10 n=32 v=0
160224 On ch=10 n=32 v=31
160232 On ch=10 n=32 v=0
160232 Par ch=10 c=11 v=104
160232 On ch=10 n=32 v=31
160240 On ch=10 n=32 v=0
160240 On ch=10 n=32 v=31
160244 Par ch=10 c=11 v=105
160248 On ch=10 n=32 v=0
160248 On ch=10 n=32 v=31
160256 On ch=10 n=32 v=0
160256 Par ch=10 c=11 v=106
160256 On ch=10 n=32 v=31
160264 On ch=10 n=32 v=0
160264 On ch=10 n=32 v=31
160272 On ch=10 n=32 v=0
160272 Par ch=10 c=11 v=107
160272 On ch=10 n=32 v=31
160280 On ch=10 n=32 v=0
160280 On ch=10 n=32 v=31
160284 Par ch=10 c=11 v=108
160288 On ch=10 n=32 v=0
160288 On ch=10 n=32 v=31
160296 On ch=10 n=32 v=0
160296 Par ch=10 c=11 v=109
160296 On ch=10 n=32 v=31
160304 On ch=10 n=32 v=0
160304 On ch=10 n=32 v=31
160308 Par ch=10 c=11 v=110
160312 On ch=10 n=32 v=0
160312 On ch=10 n=32 v=31
160320 On ch=10 n=32 v=0
160320 Par ch=10 c=11 v=111
160320 On ch=10 n=32 v=31
160328 On ch=10 n=32 v=0
160328 On ch=10 n=32 v=31
160332 Par ch=10 c=11 v=112
160336 On ch=10 n=32 v=0
160336 On ch=10 n=32 v=31
160344 On ch=10 n=32 v=0
160344 Par ch=10 c=11 v=113
160344 On ch=10 n=32 v=31
160352 On ch=10 n=32 v=0
160352 On ch=10 n=32 v=31
160356 Par ch=10 c=11 v=114
160360 On ch=10 n=32 v=0
160360 On ch=10 n=32 v=31
160368 On ch=10 n=32 v=0
160368 Par ch=10 c=11 v=115
160368 On ch=10 n=32 v=31
160376 On ch=10 n=32 v=0
160376 On ch=10 n=32 v=31
160380 Par ch=10 c=11 v=116
160384 On ch=10 n=32 v=0
160384 On ch=10 n=32 v=31
160392 On ch=10 n=32 v=0
160392 Par ch=10 c=11 v=117
160392 On ch=10 n=32 v=31
160400 On ch=10 n=32 v=0
160400 On ch=10 n=32 v=31
160404 Par ch=10 c=11 v=118
160408 On ch=10 n=32 v=0
160408 On ch=10 n=32 v=31
160416 On ch=10 n=32 v=0
160416 Par ch=10 c=11 v=119
160416 On ch=10 n=32 v=31
160424 On ch=10 n=32 v=0
160424 On ch=10 n=32 v=31
160428 Par ch=10 c=11 v=120
160432 On ch=10 n=32 v=0
160432 On ch=10 n=32 v=31
160440 On ch=10 n=32 v=0
160440 Par ch=10 c=11 v=121
160440 On ch=10 n=32 v=31
160448 On ch=10 n=32 v=0
160448 On ch=10 n=32 v=31
160452 Par ch=10 c=11 v=122
160456 On ch=10 n=32 v=0
160456 On ch=10 n=32 v=31
160464 On ch=10 n=32 v=0
160464 Par ch=10 c=11 v=123
160464 On ch=10 n=32 v=31
160472 On ch=10 n=32 v=0
160472 On ch=10 n=32 v=31
160476 Par ch=10 c=11 v=124
160480 On ch=10 n=32 v=0
160480 On ch=10 n=32 v=31
160488 On ch=10 n=32 v=0
160488 Par ch=10 c=11 v=125
160488 On ch=10 n=32 v=31
160496 On ch=10 n=32 v=0
160496 On ch=10 n=32 v=31
160500 Par ch=10 c=11 v=126
160504 On ch=10 n=32 v=0
160504 On ch=10 n=32 v=31
160512 On ch=10 n=32 v=0
160512 Par ch=10 c=11 v=64
160512 On ch=10 n=32 v=95
160512 On ch=10 n=45 v=127
160560 On ch=10 n=32 v=0
161203 On ch=10 n=45 v=0
163968 On ch=10 n=45 v=31
164122 On ch=10 n=45 v=0
164352 On ch=10 n=45 v=31
164506 On ch=10 n=45 v=0
164736 On ch=10 n=32 v=15
164744 On ch=10 n=32 v=0
164744 On ch=10 n=32 v=15
164752 On ch=10 n=32 v=0
164752 On ch=10 n=32 v=15
164760 On ch=10 n=32 v=0
164760 On ch=10 n=32 v=15
164768 On ch=10 n=32 v=0
164768 On ch=10 n=32 v=15
164776 On ch=10 n=32 v=0
164776 On ch=10 n=32 v=15
164784 On ch=10 n=32 v=0
164784 On ch=10 n=32 v=15
164792 On ch=10 n=32 v=0
164792 On ch=10 n=32 v=15
164800 On ch=10 n=32 v=0
164800 On ch=10 n=32 v=15
164808 On ch=10 n=32 v=0
164808 On ch=10 n=32 v=15
164816 On ch=10 n=32 v=0
164816 On ch=10 n=32 v=15
164824 On ch=10 n=32 v=0
164824 On ch=10 n=32 v=15
164832 On ch=10 n=32 v=0
164832 On ch=10 n=32 v=15
164840 On ch=10 n=32 v=0
164840 On ch=10 n=32 v=15
164848 On ch=10 n=32 v=0
164848 On ch=10 n=32 v=15
164856 On ch=10 n=32 v=0
164856 On ch=10 n=32 v=15
164864 On ch=10 n=32 v=0
164864 On ch=10 n=32 v=15
164872 On ch=10 n=32 v=0
164872 On ch=10 n=32 v=15
164880 On ch=10 n=32 v=0
164880 On ch=10 n=32 v=15
164888 On ch=10 n=32 v=0
164888 On ch=10 n=32 v=15
164896 On ch=10 n=32 v=0
164896 On ch=10 n=32 v=15
164904 On ch=10 n=32 v=0
164904 On ch=10 n=32 v=15
164912 On ch=10 n=32 v=0
164912 On ch=10 n=32 v=15
164920 On ch=10 n=32 v=0
164920 On ch=10 n=32 v=15
164928 On ch=10 n=32 v=0
164928 On ch=10 n=32 v=15
164936 On ch=10 n=32 v=0
164936 On ch=10 n=32 v=15
164944 On ch=10 n=32 v=0
164944 On ch=10 n=32 v=15
164952 On ch=10 n=32 v=0
164952 On ch=10 n=32 v=15
164960 On ch=10 n=32 v=0
164960 On ch=10 n=32 v=15
164968 On ch=10 n=32 v=0
164968 On ch=10 n=32 v=15
164976 On ch=10 n=32 v=0
164976 On ch=10 n=32 v=15
164984 On ch=10 n=32 v=0
164984 On ch=10 n=32 v=15
164992 On ch=10 n=32 v=0
164992 On ch=10 n=32 v=15
165000 On ch=10 n=32 v=0
165000 On ch=10 n=32 v=15
165008 On ch=10 n=32 v=0
165008 On ch=10 n=32 v=15
165016 On ch=10 n=32 v=0
165016 On ch=10 n=32 v=15
165024 On ch=10 n=32 v=0
165024 On ch=10 n=32 v=15
165032 On ch=10 n=32 v=0
165032 On ch=10 n=32 v=15
165040 On ch=10 n=32 v=0
165040 On ch=10 n=32 v=15
165048 On ch=10 n=32 v=0
165048 On ch=10 n=32 v=15
165056 On ch=10 n=32 v=0
165056 On ch=10 n=32 v=15
165064 On ch=10 n=32 v=0
165064 On ch=10 n=32 v=15
165072 On ch=10 n=32 v=0
165072 On ch=10 n=32 v=15
165080 On ch=10 n=32 v=0
165080 On ch=10 n=32 v=15
165088 On ch=10 n=32 v=0
165088 On ch=10 n=32 v=15
165096 On ch=10 n=32 v=0
165096 On ch=10 n=32 v=15
165104 On ch=10 n=32 v=0
165104 On ch=10 n=32 v=15
165112 On ch=10 n=32 v=0
165112 On ch=10 n=32 v=15
165120 On ch=10 n=32 v=0
165120 On ch=10 n=45 v=31
165274 On ch=10 n=45 v=0
165504 On ch=10 n=45 v=31
165658 On ch=10 n=45 v=0
165888 On ch=10 n=32 v=15
165896 On ch=10 n=32 v=0
165896 On ch=10 n=32 v=15
165904 On ch=10 n=32 v=0
165904 On ch=10 n=32 v=15
165912 On ch=10 n=32 v=0
165912 On ch=10 n=32 v=15
165920 On ch=10 n=32 v=0
165920 On ch=10 n=32 v=15
165928 On ch=10 n=32 v=0
165928 On ch=10 n=32 v=15
165936 On ch=10 n=32 v=0
165936 On ch=10 n=32 v=15
165944 On ch=10 n=32 v=0
165944 On ch=10 n=32 v=15
165952 On ch=10 n=32 v=0
165952 On ch=10 n=32 v=15
165960 On ch=10 n=32 v=0
165960 On ch=10 n=32 v=15
165968 On ch=10 n=32 v=0
165968 On ch=10 n=32 v=15
165976 On ch=10 n=32 v=0
165976 On ch=10 n=32 v=15
165984 On ch=10 n=32 v=0
165984 On ch=10 n=32 v=15
165992 On ch=10 n=32 v=0
165992 On ch=10 n=32 v=15
166000 On ch=10 n=32 v=0
166000 On ch=10 n=32 v=15
166008 On ch=10 n=32 v=0
166008 On ch=10 n=32 v=15
166016 On ch=10 n=32 v=0
166016 On ch=10 n=32 v=15
166024 On ch=10 n=32 v=0
166024 On ch=10 n=32 v=15
166032 On ch=10 n=32 v=0
166032 On ch=10 n=32 v=15
166040 On ch=10 n=32 v=0
166040 On ch=10 n=32 v=15
166048 On ch=10 n=32 v=0
166048 On ch=10 n=32 v=15
166056 On ch=10 n=32 v=0
166056 On ch=10 n=32 v=15
166064 On ch=10 n=32 v=0
166064 On ch=10 n=32 v=15
166072 On ch=10 n=32 v=0
166072 On ch=10 n=32 v=15
166080 On ch=10 n=32 v=0
166080 On ch=10 n=32 v=15
166088 On ch=10 n=32 v=0
166088 On ch=10 n=32 v=15
166096 On ch=10 n=32 v=0
166096 On ch=10 n=32 v=15
166104 On ch=10 n=32 v=0
166104 On ch=10 n=32 v=15
166112 On ch=10 n=32 v=0
166112 On ch=10 n=32 v=15
166120 On ch=10 n=32 v=0
166120 On ch=10 n=32 v=15
166128 On ch=10 n=32 v=0
166128 On ch=10 n=32 v=15
166136 On ch=10 n=32 v=0
166136 On ch=10 n=32 v=15
166144 On ch=10 n=32 v=0
166144 On ch=10 n=32 v=15
166152 On ch=10 n=32 v=0
166152 On ch=10 n=32 v=15
166160 On ch=10 n=32 v=0
166160 On ch=10 n=32 v=15
166168 On ch=10 n=32 v=0
166168 On ch=10 n=32 v=15
166176 On ch=10 n=32 v=0
166176 On ch=10 n=32 v=15
166184 On ch=10 n=32 v=0
166184 On ch=10 n=32 v=15
166192 On ch=10 n=32 v=0
166192 On ch=10 n=32 v=15
166200 On ch=10 n=32 v=0
166200 On ch=10 n=32 v=15
166208 On ch=10 n=32 v=0
166208 On ch=10 n=32 v=15
166216 On ch=10 n=32 v=0
166216 On ch=10 n=32 v=15
166224 On ch=10 n=32 v=0
166224 On ch=10 n=32 v=15
166232 On ch=10 n=32 v=0
166232 On ch=10 n=32 v=15
166240 On ch=10 n=32 v=0
166240 On ch=10 n=32 v=15
166248 On ch=10 n=32 v=0
166248 On ch=10 n=32 v=15
166256 On ch=10 n=32 v=0
166256 On ch=10 n=32 v=15
166264 On ch=10 n=32 v=0
166264 On ch=10 n=32 v=15
166272 On ch=10 n=32 v=0
168000 On ch=10 n=45 v=31
168154 On ch=10 n=45 v=0
168384 On ch=10 n=45 v=31
168538 On ch=10 n=45 v=0
170496 On ch=10 n=32 v=31
170534 On ch=10 n=32 v=0
170880 On ch=10 n=32 v=15
170918 On ch=10 n=32 v=0
170918 Meta TrkEnd
TrkEnd
MTrk
0 Meta 0x21 01
0 Meta TrkName "2ND TIMPANI"
192 Par ch=11 c=1 v=8
196 Par ch=11 c=7 v=127
200 Par ch=11 c=10 v=82
204 Par ch=11 c=11 v=64
208 Par ch=11 c=91 v=127
212 Par ch=11 c=93 v=64
216 Par ch=11 c=0 v=0
216 Par ch=11 c=32 v=0
216 PrCh ch=11 p=47
14976 On ch=11 n=43 v=111
15053 On ch=11 n=43 v=0
15744 On ch=11 n=48 v=111
15806 On ch=11 n=48 v=0
15840 On ch=11 n=48 v=111
15902 On ch=11 n=48 v=0
16000 On ch=11 n=48 v=111
16021 On ch=11 n=48 v=0
16032 On ch=11 n=48 v=111
16053 On ch=11 n=48 v=0
16064 On ch=11 n=48 v=111
16085 On ch=11 n=48 v=0
16096 On ch=11 n=48 v=111
16117 On ch=11 n=48 v=0
16128 On ch=11 n=48 v=111
16190 On ch=11 n=48 v=0
16224 On ch=11 n=48 v=111
16286 On ch=11 n=48 v=0
16384 On ch=11 n=48 v=111
16405 On ch=11 n=48 v=0
16416 On ch=11 n=48 v=111
16437 On ch=11 n=48 v=0
16448 On ch=11 n=48 v=111
16469 On ch=11 n=48 v=0
16480 On ch=11 n=48 v=111
16501 On ch=11 n=48 v=0
16512 On ch=11 n=48 v=111
16550 On ch=11 n=48 v=0
22656 On ch=11 n=46 v=95
22694 On ch=11 n=46 v=0
30720 On ch=11 n=43 v=95
30728 On ch=11 n=43 v=0
30728 On ch=11 n=43 v=95
30736 On ch=11 n=43 v=0
30736 On ch=11 n=43 v=95
30744 On ch=11 n=43 v=0
30744 On ch=11 n=43 v=95
30752 On ch=11 n=43 v=0
30752 On ch=11 n=43 v=95
30760 On ch=11 n=43 v=0
30760 On ch=11 n=43 v=95
30768 On ch=11 n=43 v=0
30768 Par ch=11 c=11 v=32
30768 On ch=11 n=43 v=95
30776 On ch=11 n=43 v=0
30776 On ch=11 n=43 v=95
30784 On ch=11 n=43 v=0
30784 On ch=11 n=43 v=95
30792 On ch=11 n=43 v=0
30792 On ch=11 n=43 v=95
30800 On ch=11 n=43 v=0
30800 On ch=11 n=43 v=95
30808 On ch=11 n=43 v=0
30808 On ch=11 n=43 v=95
30816 On ch=11 n=43 v=0
30816 On ch=11 n=43 v=95
30824 On ch=11 n=43 v=0
30824 On ch=11 n=43 v=95
30832 On ch=11 n=43 v=0
30832 On ch=11 n=43 v=95
30840 On ch=11 n=43 v=0
30840 On ch=11 n=43 v=95
30848 On ch=11 n=43 v=0
30848 On ch=11 n=43 v=95
30856 On ch=11 n=43 v=0
30856 On ch=11 n=43 v=95
30864 On ch=11 n=43 v=0
30864 On ch=11 n=43 v=95
30872 On ch=11 n=43 v=0
30872 On ch=11 n=43 v=95
30880 On ch=11 n=43 v=0
30880 On ch=11 n=43 v=95
30888 On ch=11 n=43 v=0
30888 On ch=11 n=43 v=95
30896 On ch=11 n=43 v=0
30896 On ch=11 n=43 v=95
30904 On ch=11 n=43 v=0
30904 On ch=11 n=43 v=95
30912 On ch=11 n=43 v=0
30912 On ch=11 n=43 v=95
30920 On ch=11 n=43 v=0
30920 On ch=11 n=43 v=95
30928 On ch=11 n=43 v=0
30928 On ch=11 n=43 v=95
30936 On ch=11 n=43 v=0
30936 On ch=11 n=43 v=95
30944 On ch=11 n=43 v=0
30944 On ch=11 n=43 v=95
30952 On ch=11 n=43 v=0
30952 On ch=11 n=43 v=95
30960 On ch=11 n=43 v=0
30960 On ch=11 n=43 v=95
30968 On ch=11 n=43 v=0
30968 On ch=11 n=43 v=95
30976 On ch=11 n=43 v=0
30976 On ch=11 n=43 v=95
30984 On ch=11 n=43 v=0
30984 On ch=11 n=43 v=95
30992 On ch=11 n=43 v=0
30992 On ch=11 n=43 v=95
31000 On ch=11 n=43 v=0
31000 On ch=11 n=43 v=95
31008 On ch=11 n=43 v=0
31008 On ch=11 n=43 v=95
31016 On ch=11 n=43 v=0
31016 On ch=11 n=43 v=95
31024 On ch=11 n=43 v=0
31024 On ch=11 n=43 v=95
31032 On ch=11 n=43 v=0
31032 On ch=11 n=43 v=95
31040 On ch=11 n=43 v=0
31040 On ch=11 n=43 v=95
31048 On ch=11 n=43 v=0
31048 On ch=11 n=43 v=95
31056 On ch=11 n=43 v=0
31056 On ch=11 n=43 v=95
31064 On ch=11 n=43 v=0
31064 On ch=11 n=43 v=95
31072 On ch=11 n=43 v=0
31072 On ch=11 n=43 v=95
31080 On ch=11 n=43 v=0
31080 On ch=11 n=43 v=95
31088 On ch=11 n=43 v=0
31088 On ch=11 n=43 v=95
31096 On ch=11 n=43 v=0
31096 On ch=11 n=43 v=95
31104 On ch=11 n=43 v=0
31104 On ch=11 n=43 v=95
31112 On ch=11 n=43 v=0
31112 On ch=11 n=43 v=95
31120 On ch=11 n=43 v=0
31120 On ch=11 n=43 v=95
31128 On ch=11 n=43 v=0
31128 On ch=11 n=43 v=95
31136 On ch=11 n=43 v=0
31136 On ch=11 n=43 v=95
31144 On ch=11 n=43 v=0
31144 On ch=11 n=43 v=95
31152 On ch=11 n=43 v=0
31152 On ch=11 n=43 v=95
31160 On ch=11 n=43 v=0
31160 On ch=11 n=43 v=95
31168 On ch=11 n=43 v=0
31168 On ch=11 n=43 v=95
31176 On ch=11 n=43 v=0
31176 On ch=11 n=43 v=95
31184 On ch=11 n=43 v=0
31184 On ch=11 n=43 v=95
31192 On ch=11 n=43 v=0
31192 On ch=11 n=43 v=95
31200 On ch=11 n=43 v=0
31200 On ch=11 n=43 v=95
31208 On ch=11 n=43 v=0
31208 On ch=11 n=43 v=95
31216 On ch=11 n=43 v=0
31216 On ch=11 n=43 v=95
31224 On ch=11 n=43 v=0
31224 On ch=11 n=43 v=95
31232 On ch=11 n=43 v=0
31232 On ch=11 n=43 v=95
31240 On ch=11 n=43 v=0
31240 On ch=11 n=43 v=95
31248 On ch=11 n=43 v=0
31248 On ch=11 n=43 v=95
31256 On ch=11 n=43 v=0
31256 On ch=11 n=43 v=95
31264 On ch=11 n=43 v=0
31264 On ch=11 n=43 v=95
31272 On ch=11 n=43 v=0
31272 On ch=11 n=43 v=95
31280 On ch=11 n=43 v=0
31280 On ch=11 n=43 v=95
31288 On ch=11 n=43 v=0
31288 On ch=11 n=43 v=95
31296 On ch=11 n=43 v=0
31296 On ch=11 n=43 v=95
31304 On ch=11 n=43 v=0
31304 On ch=11 n=43 v=95
31312 On ch=11 n=43 v=0
31312 On ch=11 n=43 v=95
31320 On ch=11 n=43 v=0
31320 On ch=11 n=43 v=95
31328 On ch=11 n=43 v=0
31328 On ch=11 n=43 v=95
31336 On ch=11 n=43 v=0
31336 On ch=11 n=43 v=95
31344 On ch=11 n=43 v=0
31344 On ch=11 n=43 v=95
31352 On ch=11 n=43 v=0
31352 On ch=11 n=43 v=95
31360 On ch=11 n=43 v=0
31360 On ch=11 n=43 v=95
31368 On ch=11 n=43 v=0
31368 On ch=11 n=43 v=95
31376 On ch=11 n=43 v=0
31376 On ch=11 n=43 v=95
31384 On ch=11 n=43 v=0
31384 On ch=11 n=43 v=95
31392 On ch=11 n=43 v=0
31392 On ch=11 n=43 v=95
31400 On ch=11 n=43 v=0
31400 On ch=11 n=43 v=95
31408 On ch=11 n=43 v=0
31408 On ch=11 n=43 v=95
31416 On ch=11 n=43 v=0
31416 On ch=11 n=43 v=95
31424 On ch=11 n=43 v=0
31424 On ch=11 n=43 v=95
31432 On ch=11 n=43 v=0
31432 On ch=11 n=43 v=95
31440 On ch=11 n=43 v=0
31440 On ch=11 n=43 v=95
31448 On ch=11 n=43 v=0
31448 On ch=11 n=43 v=95
31456 On ch=11 n=43 v=0
31456 On ch=11 n=43 v=95
31464 On ch=11 n=43 v=0
31464 On ch=11 n=43 v=95
31472 On ch=11 n=43 v=0
31472 On ch=11 n=43 v=95
31480 On ch=11 n=43 v=0
31480 On ch=11 n=43 v=95
31488 On ch=11 n=43 v=0
31488 On ch=11 n=43 v=95
31496 On ch=11 n=43 v=0
31496 On ch=11 n=43 v=95
31504 On ch=11 n=43 v=0
31504 On ch=11 n=43 v=95
31512 On ch=11 n=43 v=0
31512 On ch=11 n=43 v=95
31520 On ch=11 n=43 v=0
31520 On ch=11 n=43 v=95
31528 On ch=11 n=43 v=0
31528 On ch=11 n=43 v=95
31536 On ch=11 n=43 v=0
31536 On ch=11 n=43 v=95
31544 On ch=11 n=43 v=0
31544 On ch=11 n=43 v=95
31552 On ch=11 n=43 v=0
31552 On ch=11 n=43 v=95
31560 On ch=11 n=43 v=0
31560 On ch=11 n=43 v=95
31568 On ch=11 n=43 v=0
31568 On ch=11 n=43 v=95
31576 On ch=11 n=43 v=0
31576 On ch=11 n=43 v=95
31584 On ch=11 n=43 v=0
31584 On ch=11 n=43 v=95
31592 On ch=11 n=43 v=0
31592 On ch=11 n=43 v=95
31600 On ch=11 n=43 v=0
31600 On ch=11 n=43 v=95
31608 On ch=11 n=43 v=0
31608 On ch=11 n=43 v=95
31616 On ch=11 n=43 v=0
31616 On ch=11 n=43 v=95
31624 On ch=11 n=43 v=0
31624 On ch=11 n=43 v=95
31632 On ch=11 n=43 v=0
31632 On ch=11 n=43 v=95
31640 On ch=11 n=43 v=0
31640 On ch=11 n=43 v=95
31648 On ch=11 n=43 v=0
31648 On ch=11 n=43 v=95
31656 On ch=11 n=43 v=0
31656 On ch=11 n=43 v=95
31664 On ch=11 n=43 v=0
31664 On ch=11 n=43 v=95
31672 On ch=11 n=43 v=0
31672 On ch=11 n=43 v=95
31680 On ch=11 n=43 v=0
31680 On ch=11 n=43 v=95
31688 On ch=11 n=43 v=0
31688 On ch=11 n=43 v=95
31696 On ch=11 n=43 v=0
31696 On ch=11 n=43 v=95
31704 On ch=11 n=43 v=0
31704 On ch=11 n=43 v=95
31712 On ch=11 n=43 v=0
31712 On ch=11 n=43 v=95
31720 On ch=11 n=43 v=0
31720 On ch=11 n=43 v=95
31728 On ch=11 n=43 v=0
31728 On ch=11 n=43 v=95
31736 On ch=11 n=43 v=0
31736 On ch=11 n=43 v=95
31744 On ch=11 n=43 v=0
31744 On ch=11 n=43 v=95
31752 On ch=11 n=43 v=0
31752 On ch=11 n=43 v=95
31760 On ch=11 n=43 v=0
31760 On ch=11 n=43 v=95
31768 On ch=11 n=43 v=0
31768 On ch=11 n=43 v=95
31776 On ch=11 n=43 v=0
31776 On ch=11 n=43 v=95
31784 On ch=11 n=43 v=0
31784 On ch=11 n=43 v=95
31792 On ch=11 n=43 v=0
31792 On ch=11 n=43 v=95
31800 On ch=11 n=43 v=0
31800 On ch=11 n=43 v=95
31808 On ch=11 n=43 v=0
31808 On ch=11 n=43 v=95
31816 On ch=11 n=43 v=0
31816 On ch=11 n=43 v=95
31824 On ch=11 n=43 v=0
31824 On ch=11 n=43 v=95
31832 On ch=11 n=43 v=0
31832 On ch=11 n=43 v=95
31840 On ch=11 n=43 v=0
31840 On ch=11 n=43 v=95
31848 On ch=11 n=43 v=0
31848 On ch=11 n=43 v=95
31856 On ch=11 n=43 v=0
31856 On ch=11 n=43 v=95
31864 On ch=11 n=43 v=0
31864 On ch=11 n=43 v=95
31872 On ch=11 n=43 v=0
31872 On ch=11 n=43 v=95
31880 On ch=11 n=43 v=0
31880 On ch=11 n=43 v=95
31888 On ch=11 n=43 v=0
31888 On ch=11 n=43 v=95
31896 On ch=11 n=43 v=0
31896 On ch=11 n=43 v=95
31904 On ch=11 n=43 v=0
31904 On ch=11 n=43 v=95
31912 On ch=11 n=43 v=0
31912 On ch=11 n=43 v=95
31920 On ch=11 n=43 v=0
31920 On ch=11 n=43 v=95
31928 On ch=11 n=43 v=0
31928 On ch=11 n=43 v=95
31936 On ch=11 n=43 v=0
31936 On ch=11 n=43 v=95
31944 On ch=11 n=43 v=0
31944 On ch=11 n=43 v=95
31952 On ch=11 n=43 v=0
31952 On ch=11 n=43 v=95
31960 On ch=11 n=43 v=0
31960 On ch=11 n=43 v=95
31968 On ch=11 n=43 v=0
31968 On ch=11 n=43 v=95
31976 On ch=11 n=43 v=0
31976 On ch=11 n=43 v=95
31984 On ch=11 n=43 v=0
31984 On ch=11 n=43 v=95
31992 On ch=11 n=43 v=0
31992 On ch=11 n=43 v=95
32000 On ch=11 n=43 v=0
32000 On ch=11 n=43 v=95
32008 On ch=11 n=43 v=0
32008 On ch=11 n=43 v=95
32016 On ch=11 n=43 v=0
32016 On ch=11 n=43 v=95
32024 On ch=11 n=43 v=0
32024 On ch=11 n=43 v=95
32032 On ch=11 n=43 v=0
32032 On ch=11 n=43 v=95
32040 On ch=11 n=43 v=0
32040 On ch=11 n=43 v=95
32048 On ch=11 n=43 v=0
32048 On ch=11 n=43 v=95
32056 On ch=11 n=43 v=0
32056 On ch=11 n=43 v=95
32064 On ch=11 n=43 v=0
32064 On ch=11 n=43 v=95
32072 On ch=11 n=43 v=0
32072 On ch=11 n=43 v=95
32080 On ch=11 n=43 v=0
32080 On ch=11 n=43 v=95
32088 On ch=11 n=43 v=0
32088 On ch=11 n=43 v=95
32096 On ch=11 n=43 v=0
32096 On ch=11 n=43 v=95
32104 On ch=11 n=43 v=0
32104 On ch=11 n=43 v=95
32112 On ch=11 n=43 v=0
32112 On ch=11 n=43 v=95
32120 On ch=11 n=43 v=0
32120 On ch=11 n=43 v=95
32128 On ch=11 n=43 v=0
32128 On ch=11 n=43 v=95
32136 On ch=11 n=43 v=0
32136 On ch=11 n=43 v=95
32144 On ch=11 n=43 v=0
32144 On ch=11 n=43 v=95
32152 On ch=11 n=43 v=0
32152 On ch=11 n=43 v=95
32160 On ch=11 n=43 v=0
32160 On ch=11 n=43 v=95
32168 On ch=11 n=43 v=0
32168 On ch=11 n=43 v=95
32176 On ch=11 n=43 v=0
32176 On ch=11 n=43 v=95
32184 On ch=11 n=43 v=0
32184 On ch=11 n=43 v=95
32192 On ch=11 n=43 v=0
32192 On ch=11 n=43 v=95
32200 On ch=11 n=43 v=0
32200 On ch=11 n=43 v=95
32208 On ch=11 n=43 v=0
32208 On ch=11 n=43 v=95
32216 On ch=11 n=43 v=0
32216 On ch=11 n=43 v=95
32224 On ch=11 n=43 v=0
32224 On ch=11 n=43 v=95
32232 On ch=11 n=43 v=0
32232 On ch=11 n=43 v=95
32240 On ch=11 n=43 v=0
32240 On ch=11 n=43 v=95
32248 On ch=11 n=43 v=0
32248 On ch=11 n=43 v=95
32256 On ch=11 n=43 v=0
32256 On ch=11 n=43 v=95
32264 On ch=11 n=43 v=0
32264 On ch=11 n=43 v=95
32272 On ch=11 n=43 v=0
32272 On ch=11 n=43 v=95
32280 On ch=11 n=43 v=0
32280 On ch=11 n=43 v=95
32288 On ch=11 n=43 v=0
32288 On ch=11 n=43 v=95
32296 On ch=11 n=43 v=0
32296 On ch=11 n=43 v=95
32304 On ch=11 n=43 v=0
32304 On ch=11 n=43 v=95
32312 On ch=11 n=43 v=0
32312 On ch=11 n=43 v=95
32320 On ch=11 n=43 v=0
32320 On ch=11 n=43 v=95
32328 On ch=11 n=43 v=0
32328 On ch=11 n=43 v=95
32336 On ch=11 n=43 v=0
32336 On ch=11 n=43 v=95
32344 On ch=11 n=43 v=0
32344 On ch=11 n=43 v=95
32352 On ch=11 n=43 v=0
32352 On ch=11 n=43 v=95
32360 On ch=11 n=43 v=0
32360 On ch=11 n=43 v=95
32368 On ch=11 n=43 v=0
32368 On ch=11 n=43 v=95
32376 On ch=11 n=43 v=0
32376 On ch=11 n=43 v=95
32384 On ch=11 n=43 v=0
32384 On ch=11 n=43 v=95
32392 On ch=11 n=43 v=0
32392 On ch=11 n=43 v=95
32400 On ch=11 n=43 v=0
32400 On ch=11 n=43 v=95
32408 On ch=11 n=43 v=0
32408 On ch=11 n=43 v=95
32416 On ch=11 n=43 v=0
32416 On ch=11 n=43 v=95
32424 On ch=11 n=43 v=0
32424 On ch=11 n=43 v=95
32432 On ch=11 n=43 v=0
32432 On ch=11 n=43 v=95
32440 On ch=11 n=43 v=0
32440 On ch=11 n=43 v=95
32448 On ch=11 n=43 v=0
32448 On ch=11 n=43 v=95
32456 On ch=11 n=43 v=0
32456 On ch=11 n=43 v=95
32464 On ch=11 n=43 v=0
32464 On ch=11 n=43 v=95
32472 On ch=11 n=43 v=0
32472 On ch=11 n=43 v=95
32480 On ch=11 n=43 v=0
32480 On ch=11 n=43 v=95
32488 On ch=11 n=43 v=0
32488 On ch=11 n=43 v=95
32496 On ch=11 n=43 v=0
32496 On ch=11 n=43 v=95
32504 On ch=11 n=43 v=0
32504 On ch=11 n=43 v=95
32512 On ch=11 n=43 v=0
32512 On ch=11 n=43 v=95
32520 On ch=11 n=43 v=0
32520 On ch=11 n=43 v=95
32528 On ch=11 n=43 v=0
32528 On ch=11 n=43 v=95
32536 On ch=11 n=43 v=0
32536 On ch=11 n=43 v=95
32544 On ch=11 n=43 v=0
32544 On ch=11 n=43 v=95
32552 On ch=11 n=43 v=0
32552 On ch=11 n=43 v=95
32560 On ch=11 n=43 v=0
32560 On ch=11 n=43 v=95
32568 On ch=11 n=43 v=0
32568 On ch=11 n=43 v=95
32576 On ch=11 n=43 v=0
32576 On ch=11 n=43 v=95
32584 On ch=11 n=43 v=0
32584 On ch=11 n=43 v=95
32592 On ch=11 n=43 v=0
32592 On ch=11 n=43 v=95
32600 On ch=11 n=43 v=0
32600 On ch=11 n=43 v=95
32608 On ch=11 n=43 v=0
32608 On ch=11 n=43 v=95
32616 On ch=11 n=43 v=0
32616 On ch=11 n=43 v=95
32624 On ch=11 n=43 v=0
32624 On ch=11 n=43 v=95
32632 On ch=11 n=43 v=0
32632 On ch=11 n=43 v=95
32640 On ch=11 n=43 v=0
32640 On ch=11 n=43 v=95
32717 On ch=11 n=43 v=0
33408 Par ch=11 c=11 v=64
33408 On ch=11 n=43 v=95
33412 Par ch=11 c=11 v=63
33416 On ch=11 n=43 v=0
33416 Par ch=11 c=11 v=62
33416 On ch=11 n=43 v=95
33420 Par ch=11 c=11 v=60
33424 On ch=11 n=43 v=0
33424 Par ch=11 c=11 v=59
33424 On ch=11 n=43 v=95
33428 Par ch=11 c=11 v=57
33432 On ch=11 n=43 v=0
33432 Par ch=11 c=11 v=56
33432 On ch=11 n=43 v=95
33436 Par ch=11 c=11 v=55
33440 On ch=11 n=43 v=0
33440 Par ch=11 c=11 v=53
33440 On ch=11 n=43 v=95
33444 Par ch=11 c=11 v=52
33448 On ch=11 n=43 v=0
33448 Par ch=11 c=11 v=50
33448 On ch=11 n=43 v=95
33452 Par ch=11 c=11 v=49
33456 On ch=11 n=43 v=0
33456 Par ch=11 c=11 v=47
33456 On ch=11 n=43 v=95
33460 Par ch=11 c=11 v=46
33464 On ch=11 n=43 v=0
33464 Par ch=11 c=11 v=45
33464 On ch=11 n=43 v=95
33468 Par ch=11 c=11 v=43
33472 On ch=11 n=43 v=0
33472 Par ch=11 c=11 v=42
33472 On ch=11 n=43 v=95
33476 Par ch=11 c=11 v=40
33480 On ch=11 n=43 v=0
33480 Par ch=11 c=11 v=39
33480 On ch=11 n=43 v=95
33484 Par ch=11 c=11 v=38
33488 On ch=11 n=43 v=0
33488 Par ch=11 c=11 v=36
33488 On ch=11 n=43 v=95
33492 Par ch=11 c=11 v=35
33496 On ch=11 n=43 v=0
33496 Par ch=11 c=11 v=33
33496 On ch=11 n=43 v=95
33500 Par ch=11 c=11 v=32
33504 On ch=11 n=43 v=0
33504 Par ch=11 c=11 v=32
33504 On ch=11 n=43 v=95
33512 On ch=11 n=43 v=0
33512 Par ch=11 c=11 v=33
33512 On ch=11 n=43 v=95
33516 Par ch=11 c=11 v=34
33520 On ch=11 n=43 v=0
33520 On ch=11 n=43 v=95
33524 Par ch=11 c=11 v=35
33528 On ch=11 n=43 v=0
33528 Par ch=11 c=11 v=36
33528 On ch=11 n=43 v=95
33536 On ch=11 n=43 v=0
33536 Par ch=11 c=11 v=37
33536 On ch=11 n=43 v=95
33540 Par ch=11 c=11 v=38
33544 On ch=11 n=43 v=0
33544 On ch=11 n=43 v=95
33548 Par ch=11 c=11 v=39
33552 On ch=11 n=43 v=0
33552 Par ch=11 c=11 v=40
33552 On ch=11 n=43 v=95
33560 On ch=11 n=43 v=0
33560 Par ch=11 c=11 v=41
33560 On ch=11 n=43 v=95
33564 Par ch=11 c=11 v=42
33568 On ch=11 n=43 v=0
33568 On ch=11 n=43 v=95
33572 Par ch=11 c=11 v=43
33576 On ch=11 n=43 v=0
33576 Par ch=11 c=11 v=44
33576 On ch=11 n=43 v=95
33584 On ch=11 n=43 v=0
33584 Par ch=11 c=11 v=45
33584 On ch=11 n=43 v=95
33588 Par ch=11 c=11 v=46
33592 On ch=11 n=43 v=0
33592 On ch=11 n=43 v=95
33596 Par ch=11 c=11 v=47
33600 On ch=11 n=43 v=0
33600 Par ch=11 c=11 v=48
33600 On ch=11 n=43 v=95
33604 Par ch=11 c=11 v=49
33608 On ch=11 n=43 v=0
33608 On ch=11 n=43 v=95
33612 Par ch=11 c=11 v=50
33616 On ch=11 n=43 v=0
33616 Par ch=11 c=11 v=51
33616 On ch=11 n=43 v=95
33624 On ch=11 n=43 v=0
33624 Par ch=11 c=11 v=52
33624 On ch=11 n=43 v=95
33628 Par ch=11 c=11 v=53
33632 On ch=11 n=43 v=0
33632 On ch=11 n=43 v=95
33636 Par ch=11 c=11 v=54
33640 On ch=11 n=43 v=0
33640 Par ch=11 c=11 v=55
33640 On ch=11 n=43 v=95
33648 On ch=11 n=43 v=0
33648 Par ch=11 c=11 v=56
33648 On ch=11 n=43 v=95
33652 Par ch=11 c=11 v=57
33656 On ch=11 n=43 v=0
33656 On ch=11 n=43 v=95
33660 Par ch=11 c=11 v=58
33664 On ch=11 n=43 v=0
33664 Par ch=11 c=11 v=59
33664 On ch=11 n=43 v=95
33672 On ch=11 n=43 v=0
33672 Par ch=11 c=11 v=60
33672 On ch=11 n=43 v=95
33676 Par ch=11 c=11 v=61
33680 On ch=11 n=43 v=0
33680 On ch=11 n=43 v=95
33684 Par ch=11 c=11 v=62
33688 On ch=11 n=43 v=0
33688 Par ch=11 c=11 v=63
33688 On ch=11 n=43 v=95
33696 On ch=11 n=43 v=0
33696 Par ch=11 c=11 v=64
33696 On ch=11 n=43 v=95
33700 Par ch=11 c=11 v=65
33704 On ch=11 n=43 v=0
33704 Par ch=11 c=11 v=66
33704 On ch=11 n=43 v=95
33712 On ch=11 n=43 v=0
33712 Par ch=11 c=11 v=67
33712 On ch=11 n=43 v=95
33716 Par ch=11 c=11 v=68
33720 On ch=11 n=43 v=0
33720 On ch=11 n=43 v=95
33724 Par ch=11 c=11 v=69
33728 On ch=11 n=43 v=0
33728 Par ch=11 c=11 v=70
33728 On ch=11 n=43 v=95
33736 On ch=11 n=43 v=0
33736 Par ch=11 c=11 v=71
33736 On ch=11 n=43 v=95
33740 Par ch=11 c=11 v=72
33744 On ch=11 n=43 v=0
33744 On ch=11 n=43 v=95
33748 Par ch=11 c=11 v=73
33752 On ch=11 n=43 v=0
33752 Par ch=11 c=11 v=74
33752 On ch=11 n=43 v=95
33760 On ch=11 n=43 v=0
33760 Par ch=11 c=11 v=75
33760 On ch=11 n=43 v=95
33764 Par ch=11 c=11 v=76
33768 On ch=11 n=43 v=0
33768 On ch=11 n=43 v=95
33772 Par ch=11 c=11 v=77
33776 On ch=11 n=43 v=0
33776 Par ch=11 c=11 v=78
33776 On ch=11 n=43 v=95
33784 On ch=11 n=43 v=0
33784 Par ch=11 c=11 v=79
33784 On ch=11 n=43 v=95
33788 Par ch=11 c=11 v=80
33792 On ch=11 n=43 v=0
33792 On ch=11 n=48 v=95
33869 On ch=11 n=48 v=0
34176 Par ch=11 c=11 v=64
34176 On ch=11 n=50 v=95
34253 On ch=11 n=50 v=0
34944 On ch=11 n=50 v=95
35021 On ch=11 n=50 v=0
68736 On ch=11 n=49 v=111
68813 On ch=11 n=49 v=0
69120 Par ch=11 c=11 v=64
69120 On ch=11 n=49 v=111
69128 On ch=11 n=49 v=0
69128 On ch=11 n=49 v=111
69132 Par ch=11 c=11 v=63
69136 On ch=11 n=49 v=0
69136 On ch=11 n=49 v=111
69144 On ch=11 n=49 v=0
69144 Par ch=11 c=11 v=62
69144 On ch=11 n=49 v=111
69152 On ch=11 n=49 v=0
69152 On ch=11 n=49 v=111
69156 Par ch=11 c=11 v=61
69160 On ch=11 n=49 v=0
69160 On ch=11 n=49 v=111
69168 On ch=11 n=49 v=0
69168 Par ch=11 c=11 v=60
69168 On ch=11 n=49 v=111
69176 On ch=11 n=49 v=0
69176 On ch=11 n=49 v=111
69180 Par ch=11 c=11 v=59
69184 On ch=11 n=49 v=0
69184 On ch=11 n=49 v=111
69188 Par ch=11 c=11 v=58
69192 On ch=11 n=49 v=0
69192 On ch=11 n=49 v=111
69200 On ch=11 n=49 v=0
69200 Par ch=11 c=11 v=57
69200 On ch=11 n=49 v=111
69208 On ch=11 n=49 v=0
69208 On ch=11 n=49 v=111
69212 Par ch=11 c=11 v=56
69216 On ch=11 n=49 v=0
69216 On ch=11 n=49 v=111
69224 On ch=11 n=49 v=0
69224 Par ch=11 c=11 v=55
69224 On ch=11 n=49 v=111
69232 On ch=11 n=49 v=0
69232 On ch=11 n=49 v=111
69236 Par ch=11 c=11 v=54
69240 On ch=11 n=49 v=0
69240 On ch=11 n=49 v=111
69248 On ch=11 n=49 v=0
69248 Par ch=11 c=11 v=53
69248 On ch=11 n=49 v=111
69256 On ch=11 n=49 v=0
69256 Par ch=11 c=11 v=52
69256 On ch=11 n=49 v=111
69264 On ch=11 n=49 v=0
69264 On ch=11 n=49 v=111
69268 Par ch=11 c=11 v=51
69272 On ch=11 n=49 v=0
69272 On ch=11 n=49 v=111
69280 On ch=11 n=49 v=0
69280 Par ch=11 c=11 v=50
69280 On ch=11 n=49 v=111
69288 On ch=11 n=49 v=0
69288 On ch=11 n=49 v=111
69292 Par ch=11 c=11 v=49
69296 On ch=11 n=49 v=0
69296 On ch=11 n=49 v=111
69304 On ch=11 n=49 v=0
69304 Par ch=11 c=11 v=48
69304 On ch=11 n=49 v=111
69312 On ch=11 n=49 v=0
69312 Par ch=11 c=11 v=47
69312 On ch=11 n=49 v=111
69320 On ch=11 n=49 v=0
69320 On ch=11 n=49 v=111
69324 Par ch=11 c=11 v=46
69328 On ch=11 n=49 v=0
69328 On ch=11 n=49 v=111
69336 On ch=11 n=49 v=0
69336 Par ch=11 c=11 v=45
69336 On ch=11 n=49 v=111
69344 On ch=11 n=49 v=0
69344 On ch=11 n=49 v=111
69348 Par ch=11 c=11 v=44
69352 On ch=11 n=49 v=0
69352 On ch=11 n=49 v=111
69360 On ch=11 n=49 v=0
69360 Par ch=11 c=11 v=43
69360 On ch=11 n=49 v=111
69368 On ch=11 n=49 v=0
69368 On ch=11 n=49 v=111
69372 Par ch=11 c=11 v=42
69376 On ch=11 n=49 v=0
69376 On ch=11 n=49 v=111
69380 Par ch=11 c=11 v=41
69384 On ch=11 n=49 v=0
69384 On ch=11 n=49 v=111
69392 On ch=11 n=49 v=0
69392 Par ch=11 c=11 v=40
69392 On ch=11 n=49 v=111
69400 On ch=11 n=49 v=0
69400 On ch=11 n=49 v=111
69404 Par ch=11 c=11 v=39
69408 On ch=11 n=49 v=0
69408 On ch=11 n=49 v=111
69416 On ch=11 n=49 v=0
69416 Par ch=11 c=11 v=38
69416 On ch=11 n=49 v=111
69424 On ch=11 n=49 v=0
69424 On ch=11 n=49 v=111
69428 Par ch=11 c=11 v=37
69432 On ch=11 n=49 v=0
69432 On ch=11 n=49 v=111
69440 On ch=11 n=49 v=0
69440 Par ch=11 c=11 v=36
69440 On ch=11 n=49 v=111
69448 On ch=11 n=49 v=0
69448 Par ch=11 c=11 v=35
69448 On ch=11 n=49 v=111
69456 On ch=11 n=49 v=0
69456 On ch=11 n=49 v=111
69460 Par ch=11 c=11 v=34
69464 On ch=11 n=49 v=0
69464 On ch=11 n=49 v=111
69472 On ch=11 n=49 v=0
69472 Par ch=11 c=11 v=33
69472 On ch=11 n=49 v=111
69480 On ch=11 n=49 v=0
69480 On ch=11 n=49 v=111
69484 Par ch=11 c=11 v=32
69488 On ch=11 n=49 v=0
69488 On ch=11 n=49 v=111
69496 On ch=11 n=49 v=0
69496 On ch=11 n=49 v=111
69504 On ch=11 n=49 v=0
69888 Par ch=11 c=11 v=64
69888 On ch=11 n=49 v=111
69896 On ch=11 n=49 v=0
69896 On ch=11 n=49 v=111
69900 Par ch=11 c=11 v=63
69904 On ch=11 n=49 v=0
69904 On ch=11 n=49 v=111
69912 On ch=11 n=49 v=0
69912 Par ch=11 c=11 v=62
69912 On ch=11 n=49 v=111
69920 On ch=11 n=49 v=0
69920 On ch=11 n=49 v=111
69924 Par ch=11 c=11 v=61
69928 On ch=11 n=49 v=0
69928 On ch=11 n=49 v=111
69936 On ch=11 n=49 v=0
69936 Par ch=11 c=11 v=60
69936 On ch=11 n=49 v=111
69944 On ch=11 n=49 v=0
69944 On ch=11 n=49 v=111
69948 Par ch=11 c=11 v=59
69952 On ch=11 n=49 v=0
69952 On ch=11 n=49 v=111
69956 Par ch=11 c=11 v=58
69960 On ch=11 n=49 v=0
69960 On ch=11 n=49 v=111
69968 On ch=11 n=49 v=0
69968 Par ch=11 c=11 v=57
69968 On ch=11 n=49 v=111
69976 On ch=11 n=49 v=0
69976 On ch=11 n=49 v=111
69980 Par ch=11 c=11 v=56
69984 On ch=11 n=49 v=0
69984 On ch=11 n=49 v=111
69992 On ch=11 n=49 v=0
69992 Par ch=11 c=11 v=55
69992 On ch=11 n=49 v=111
70000 On ch=11 n=49 v=0
70000 On ch=11 n=49 v=111
70004 Par ch=11 c=11 v=54
70008 On ch=11 n=49 v=0
70008 On ch=11 n=49 v=111
70016 On ch=11 n=49 v=0
70016 Par ch=11 c=11 v=53
70016 On ch=11 n=49 v=111
70024 On ch=11 n=49 v=0
70024 Par ch=11 c=11 v=52
70024 On ch=11 n=49 v=111
70032 On ch=11 n=49 v=0
70032 On ch=11 n=49 v=111
70036 Par ch=11 c=11 v=51
70040 On ch=11 n=49 v=0
70040 On ch=11 n=49 v=111
70048 On ch=11 n=49 v=0
70048 Par ch=11 c=11 v=50
70048 On ch=11 n=49 v=111
70056 On ch=11 n=49 v=0
70056 On ch=11 n=49 v=111
70060 Par ch=11 c=11 v=49
70064 On ch=11 n=49 v=0
70064 On ch=11 n=49 v=111
70072 On ch=11 n=49 v=0
70072 Par ch=11 c=11 v=48
70072 On ch=11 n=49 v=111
70080 On ch=11 n=49 v=0
70080 Par ch=11 c=11 v=47
70080 On ch=11 n=49 v=111
70088 On ch=11 n=49 v=0
70088 On ch=11 n=49 v=111
70092 Par ch=11 c=11 v=46
70096 On ch=11 n=49 v=0
70096 On ch=11 n=49 v=111
70104 On ch=11 n=49 v=0
70104 Par ch=11 c=11 v=45
70104 On ch=11 n=49 v=111
70112 On ch=11 n=49 v=0
70112 On ch=11 n=49 v=111
70116 Par ch=11 c=11 v=44
70120 On ch=11 n=49 v=0
70120 On ch=11 n=49 v=111
70128 On ch=11 n=49 v=0
70128 Par ch=11 c=11 v=43
70128 On ch=11 n=49 v=111
70136 On ch=11 n=49 v=0
70136 On ch=11 n=49 v=111
70140 Par ch=11 c=11 v=42
70144 On ch=11 n=49 v=0
70144 On ch=11 n=49 v=111
70148 Par ch=11 c=11 v=41
70152 On ch=11 n=49 v=0
70152 On ch=11 n=49 v=111
70160 On ch=11 n=49 v=0
70160 Par ch=11 c=11 v=40
70160 On ch=11 n=49 v=111
70168 On ch=11 n=49 v=0
70168 On ch=11 n=49 v=111
70172 Par ch=11 c=11 v=39
70176 On ch=11 n=49 v=0
70176 On ch=11 n=49 v=111
70184 On ch=11 n=49 v=0
70184 Par ch=11 c=11 v=38
70184 On ch=11 n=49 v=111
70192 On ch=11 n=49 v=0
70192 On ch=11 n=49 v=111
70196 Par ch=11 c=11 v=37
70200 On ch=11 n=49 v=0
70200 On ch=11 n=49 v=111
70208 On ch=11 n=49 v=0
70208 Par ch=11 c=11 v=36
70208 On ch=11 n=49 v=111
70216 On ch=11 n=49 v=0
70216 Par ch=11 c=11 v=35
70216 On ch=11 n=49 v=111
70224 On ch=11 n=49 v=0
70224 On ch=11 n=49 v=111
70228 Par ch=11 c=11 v=34
70232 On ch=11 n=49 v=0
70232 On ch=11 n=49 v=111
70240 On ch=11 n=49 v=0
70240 Par ch=11 c=11 v=33
70240 On ch=11 n=49 v=111
70248 On ch=11 n=49 v=0
70248 On ch=11 n=49 v=111
70252 Par ch=11 c=11 v=32
70256 On ch=11 n=49 v=0
70256 On ch=11 n=49 v=111
70264 On ch=11 n=49 v=0
70264 On ch=11 n=49 v=111
70272 On ch=11 n=49 v=0
70656 Par ch=11 c=11 v=64
72960 Par ch=11 c=11 v=64
72960 On ch=11 n=42 v=111
72968 On ch=11 n=42 v=0
72968 Par ch=11 c=11 v=63
72968 On ch=11 n=42 v=111
72976 On ch=11 n=42 v=0
72976 Par ch=11 c=11 v=62
72976 On ch=11 n=42 v=111
72984 On ch=11 n=42 v=0
72984 Par ch=11 c=11 v=61
72984 On ch=11 n=42 v=111
72992 On ch=11 n=42 v=0
72992 Par ch=11 c=11 v=60
72992 On ch=11 n=42 v=111
73000 On ch=11 n=42 v=0
73000 Par ch=11 c=11 v=59
73000 On ch=11 n=42 v=111
73008 On ch=11 n=42 v=0
73008 Par ch=11 c=11 v=58
73008 On ch=11 n=42 v=111
73016 On ch=11 n=42 v=0
73016 Par ch=11 c=11 v=57
73016 On ch=11 n=42 v=111
73024 On ch=11 n=42 v=0
73024 Par ch=11 c=11 v=56
73024 On ch=11 n=42 v=111
73032 On ch=11 n=42 v=0
73032 Par ch=11 c=11 v=55
73032 On ch=11 n=42 v=111
73040 On ch=11 n=42 v=0
73040 Par ch=11 c=11 v=54
73040 On ch=11 n=42 v=111
73048 On ch=11 n=42 v=0
73048 Par ch=11 c=11 v=53
73048 On ch=11 n=42 v=111
73056 On ch=11 n=42 v=0
73056 Par ch=11 c=11 v=52
73056 On ch=11 n=42 v=111
73064 On ch=11 n=42 v=0
73064 Par ch=11 c=11 v=51
73064 On ch=11 n=42 v=111
73072 On ch=11 n=42 v=0
73072 Par ch=11 c=11 v=50
73072 On ch=11 n=42 v=111
73080 On ch=11 n=42 v=0
73080 Par ch=11 c=11 v=49
73080 On ch=11 n=42 v=111
73088 On ch=11 n=42 v=0
73088 Par ch=11 c=11 v=48
73088 On ch=11 n=42 v=111
73096 On ch=11 n=42 v=0
73096 Par ch=11 c=11 v=47
73096 On ch=11 n=42 v=111
73104 On ch=11 n=42 v=0
73104 Par ch=11 c=11 v=46
73104 On ch=11 n=42 v=111
73112 On ch=11 n=42 v=0
73112 Par ch=11 c=11 v=45
73112 On ch=11 n=42 v=111
73120 On ch=11 n=42 v=0
73120 Par ch=11 c=11 v=44
73120 On ch=11 n=42 v=111
73128 On ch=11 n=42 v=0
73128 Par ch=11 c=11 v=43
73128 On ch=11 n=42 v=111
73136 On ch=11 n=42 v=0
73136 Par ch=11 c=11 v=42
73136 On ch=11 n=42 v=111
73144 On ch=11 n=42 v=0
73144 Par ch=11 c=11 v=41
73144 On ch=11 n=42 v=111
73152 On ch=11 n=42 v=0
73152 Par ch=11 c=11 v=40
73152 On ch=11 n=42 v=111
73156 Par ch=11 c=11 v=39
73160 On ch=11 n=42 v=0
73160 On ch=11 n=42 v=111
73164 Par ch=11 c=11 v=38
73168 On ch=11 n=42 v=0
73168 On ch=11 n=42 v=111
73172 Par ch=11 c=11 v=37
73176 On ch=11 n=42 v=0
73176 On ch=11 n=42 v=111
73180 Par ch=11 c=11 v=36
73184 On ch=11 n=42 v=0
73184 On ch=11 n=42 v=111
73188 Par ch=11 c=11 v=35
73192 On ch=11 n=42 v=0
73192 On ch=11 n=42 v=111
73196 Par ch=11 c=11 v=34
73200 On ch=11 n=42 v=0
73200 On ch=11 n=42 v=111
73204 Par ch=11 c=11 v=33
73208 On ch=11 n=42 v=0
73208 On ch=11 n=42 v=111
73212 Par ch=11 c=11 v=32
73216 On ch=11 n=42 v=0
73216 On ch=11 n=42 v=111
73220 Par ch=11 c=11 v=31
73224 On ch=11 n=42 v=0
73224 On ch=11 n=42 v=111
73228 Par ch=11 c=11 v=30
73232 On ch=11 n=42 v=0
73232 On ch=11 n=42 v=111
73236 Par ch=11 c=11 v=29
73240 On ch=11 n=42 v=0
73240 On ch=11 n=42 v=111
73244 Par ch=11 c=11 v=28
73248 On ch=11 n=42 v=0
73248 On ch=11 n=42 v=111
73252 Par ch=11 c=11 v=27
73256 On ch=11 n=42 v=0
73256 On ch=11 n=42 v=111
73260 Par ch=11 c=11 v=26
73264 On ch=11 n=42 v=0
73264 On ch=11 n=42 v=111
73268 Par ch=11 c=11 v=25
73272 On ch=11 n=42 v=0
73272 On ch=11 n=42 v=111
73276 Par ch=11 c=11 v=24
73280 On ch=11 n=42 v=0
73280 On ch=11 n=42 v=111
73284 Par ch=11 c=11 v=23
73288 On ch=11 n=42 v=0
73288 On ch=11 n=42 v=111
73292 Par ch=11 c=11 v=22
73296 On ch=11 n=42 v=0
73296 On ch=11 n=42 v=111
73300 Par ch=11 c=11 v=21
73304 On ch=11 n=42 v=0
73304 On ch=11 n=42 v=111
73308 Par ch=11 c=11 v=20
73312 On ch=11 n=42 v=0
73312 On ch=11 n=42 v=111
73316 Par ch=11 c=11 v=19
73320 On ch=11 n=42 v=0
73320 On ch=11 n=42 v=111
73324 Par ch=11 c=11 v=18
73328 On ch=11 n=42 v=0
73328 On ch=11 n=42 v=111
73332 Par ch=11 c=11 v=17
73336 On ch=11 n=42 v=0
73336 On ch=11 n=42 v=111
73340 Par ch=11 c=11 v=16
73344 On ch=11 n=42 v=0
73728 Par ch=11 c=11 v=64
73728 On ch=11 n=42 v=111
73736 On ch=11 n=42 v=0
73736 Par ch=11 c=11 v=63
73736 On ch=11 n=42 v=111
73744 On ch=11 n=42 v=0
73744 Par ch=11 c=11 v=62
73744 On ch=11 n=42 v=111
73752 On ch=11 n=42 v=0
73752 Par ch=11 c=11 v=61
73752 On ch=11 n=42 v=111
73760 On ch=11 n=42 v=0
73760 Par ch=11 c=11 v=60
73760 On ch=11 n=42 v=111
73768 On ch=11 n=42 v=0
73768 Par ch=11 c=11 v=59
73768 On ch=11 n=42 v=111
73776 On ch=11 n=42 v=0
73776 Par ch=11 c=11 v=58
73776 On ch=11 n=42 v=111
73784 On ch=11 n=42 v=0
73784 Par ch=11 c=11 v=57
73784 On ch=11 n=42 v=111
73792 On ch=11 n=42 v=0
73792 Par ch=11 c=11 v=56
73792 On ch=11 n=42 v=111
73800 On ch=11 n=42 v=0
73800 Par ch=11 c=11 v=55
73800 On ch=11 n=42 v=111
73808 On ch=11 n=42 v=0
73808 Par ch=11 c=11 v=54
73808 On ch=11 n=42 v=111
73816 On ch=11 n=42 v=0
73816 Par ch=11 c=11 v=53
73816 On ch=11 n=42 v=111
73824 On ch=11 n=42 v=0
73824 Par ch=11 c=11 v=52
73824 On ch=11 n=42 v=111
73832 On ch=11 n=42 v=0
73832 Par ch=11 c=11 v=51
73832 On ch=11 n=42 v=111
73840 On ch=11 n=42 v=0
73840 Par ch=11 c=11 v=50
73840 On ch=11 n=42 v=111
73848 On ch=11 n=42 v=0
73848 Par ch=11 c=11 v=49
73848 On ch=11 n=42 v=111
73856 On ch=11 n=42 v=0
73856 Par ch=11 c=11 v=48
73856 On ch=11 n=42 v=111
73864 On ch=11 n=42 v=0
73864 Par ch=11 c=11 v=47
73864 On ch=11 n=42 v=111
73872 On ch=11 n=42 v=0
73872 Par ch=11 c=11 v=46
73872 On ch=11 n=42 v=111
73880 On ch=11 n=42 v=0
73880 Par ch=11 c=11 v=45
73880 On ch=11 n=42 v=111
73888 On ch=11 n=42 v=0
73888 Par ch=11 c=11 v=44
73888 On ch=11 n=42 v=111
73896 On ch=11 n=42 v=0
73896 Par ch=11 c=11 v=43
73896 On ch=11 n=42 v=111
73904 On ch=11 n=42 v=0
73904 Par ch=11 c=11 v=42
73904 On ch=11 n=42 v=111
73912 On ch=11 n=42 v=0
73912 Par ch=11 c=11 v=41
73912 On ch=11 n=42 v=111
73920 On ch=11 n=42 v=0
73920 Par ch=11 c=11 v=40
73920 On ch=11 n=42 v=111
73924 Par ch=11 c=11 v=39
73928 On ch=11 n=42 v=0
73928 On ch=11 n=42 v=111
73932 Par ch=11 c=11 v=38
73936 On ch=11 n=42 v=0
73936 On ch=11 n=42 v=111
73940 Par ch=11 c=11 v=37
73944 On ch=11 n=42 v=0
73944 On ch=11 n=42 v=111
73948 Par ch=11 c=11 v=36
73952 On ch=11 n=42 v=0
73952 On ch=11 n=42 v=111
73956 Par ch=11 c=11 v=35
73960 On ch=11 n=42 v=0
73960 On ch=11 n=42 v=111
73964 Par ch=11 c=11 v=34
73968 On ch=11 n=42 v=0
73968 On ch=11 n=42 v=111
73972 Par ch=11 c=11 v=33
73976 On ch=11 n=42 v=0
73976 On ch=11 n=42 v=111
73980 Par ch=11 c=11 v=32
73984 On ch=11 n=42 v=0
73984 On ch=11 n=42 v=111
73988 Par ch=11 c=11 v=31
73992 On ch=11 n=42 v=0
73992 On ch=11 n=42 v=111
73996 Par ch=11 c=11 v=30
74000 On ch=11 n=42 v=0
74000 On ch=11 n=42 v=111
74004 Par ch=11 c=11 v=29
74008 On ch=11 n=42 v=0
74008 On ch=11 n=42 v=111
74012 Par ch=11 c=11 v=28
74016 On ch=11 n=42 v=0
74016 On ch=11 n=42 v=111
74020 Par ch=11 c=11 v=27
74024 On ch=11 n=42 v=0
74024 On ch=11 n=42 v=111
74028 Par ch=11 c=11 v=26
74032 On ch=11 n=42 v=0
74032 On ch=11 n=42 v=111
74036 Par ch=11 c=11 v=25
74040 On ch=11 n=42 v=0
74040 On ch=11 n=42 v=111
74044 Par ch=11 c=11 v=24
74048 On ch=11 n=42 v=0
74048 On ch=11 n=42 v=111
74052 Par ch=11 c=11 v=23
74056 On ch=11 n=42 v=0
74056 On ch=11 n=42 v=111
74060 Par ch=11 c=11 v=22
74064 On ch=11 n=42 v=0
74064 On ch=11 n=42 v=111
74068 Par ch=11 c=11 v=21
74072 On ch=11 n=42 v=0
74072 On ch=11 n=42 v=111
74076 Par ch=11 c=11 v=20
74080 On ch=11 n=42 v=0
74080 On ch=11 n=42 v=111
74084 Par ch=11 c=11 v=19
74088 On ch=11 n=42 v=0
74088 On ch=11 n=42 v=111
74092 Par ch=11 c=11 v=18
74096 On ch=11 n=42 v=0
74096 On ch=11 n=42 v=111
74100 Par ch=11 c=11 v=17
74104 On ch=11 n=42 v=0
74104 On ch=11 n=42 v=111
74108 Par ch=11 c=11 v=16
74112 On ch=11 n=42 v=0
74496 Par ch=11 c=11 v=64
75360 Par ch=11 c=11 v=64
75360 On ch=11 n=50 v=111
75368 On ch=11 n=50 v=0
75368 Par ch=11 c=11 v=63
75368 On ch=11 n=50 v=111
75372 Par ch=11 c=11 v=62
75376 On ch=11 n=50 v=0
75376 Par ch=11 c=11 v=61
75376 On ch=11 n=50 v=111
75380 Par ch=11 c=11 v=60
75384 On ch=11 n=50 v=0
75384 Par ch=11 c=11 v=59
75384 On ch=11 n=50 v=111
75388 Par ch=11 c=11 v=58
75392 On ch=11 n=50 v=0
75392 Par ch=11 c=11 v=57
75392 On ch=11 n=50 v=111
75396 Par ch=11 c=11 v=56
75400 On ch=11 n=50 v=0
75400 On ch=11 n=50 v=111
75404 Par ch=11 c=11 v=55
75408 On ch=11 n=50 v=0
75408 Par ch=11 c=11 v=54
75408 On ch=11 n=50 v=111
75412 Par ch=11 c=11 v=53
75416 On ch=11 n=50 v=0
75416 Par ch=11 c=11 v=52
75416 On ch=11 n=50 v=111
75420 Par ch=11 c=11 v=51
75424 On ch=11 n=50 v=0
75424 Par ch=11 c=11 v=50
75424 On ch=11 n=50 v=111
75428 Par ch=11 c=11 v=49
75432 On ch=11 n=50 v=0
75432 Par ch=11 c=11 v=48
75432 On ch=11 n=50 v=111
75440 On ch=11 n=50 v=0
75440 Par ch=11 c=11 v=47
75440 On ch=11 n=50 v=111
75444 Par ch=11 c=11 v=46
75448 On ch=11 n=50 v=0
75448 Par ch=11 c=11 v=45
75448 On ch=11 n=50 v=111
75452 Par ch=11 c=11 v=44
75456 On ch=11 n=50 v=0
75456 Par ch=11 c=11 v=43
75456 On ch=11 n=50 v=111
75460 Par ch=11 c=11 v=42
75464 On ch=11 n=50 v=0
75464 Par ch=11 c=11 v=41
75464 On ch=11 n=50 v=111
75468 Par ch=11 c=11 v=40
75472 On ch=11 n=50 v=0
75472 On ch=11 n=50 v=111
75476 Par ch=11 c=11 v=39
75480 On ch=11 n=50 v=0
75480 Par ch=11 c=11 v=38
75480 On ch=11 n=50 v=111
75484 Par ch=11 c=11 v=37
75488 On ch=11 n=50 v=0
75488 Par ch=11 c=11 v=36
75488 On ch=11 n=50 v=111
75492 Par ch=11 c=11 v=35
75496 On ch=11 n=50 v=0
75496 Par ch=11 c=11 v=34
75496 On ch=11 n=50 v=111
75500 Par ch=11 c=11 v=33
75504 On ch=11 n=50 v=0
75504 Par ch=11 c=11 v=32
75648 Par ch=11 c=11 v=64
76032 Par ch=11 c=11 v=64
76032 On ch=11 n=50 v=111
76040 On ch=11 n=50 v=0
76040 Par ch=11 c=11 v=63
76040 On ch=11 n=50 v=111
76048 On ch=11 n=50 v=0
76048 Par ch=11 c=11 v=62
76048 On ch=11 n=50 v=111
76056 On ch=11 n=50 v=0
76056 Par ch=11 c=11 v=61
76056 On ch=11 n=50 v=111
76064 On ch=11 n=50 v=0
76064 Par ch=11 c=11 v=60
76064 On ch=11 n=50 v=111
76072 On ch=11 n=50 v=0
76072 Par ch=11 c=11 v=59
76072 On ch=11 n=50 v=111
76080 On ch=11 n=50 v=0
76080 Par ch=11 c=11 v=58
76080 On ch=11 n=50 v=111
76088 On ch=11 n=50 v=0
76088 Par ch=11 c=11 v=57
76088 On ch=11 n=50 v=111
76092 Par ch=11 c=11 v=56
76096 On ch=11 n=50 v=0
76096 On ch=11 n=50 v=111
76100 Par ch=11 c=11 v=55
76104 On ch=11 n=50 v=0
76104 On ch=11 n=50 v=111
76108 Par ch=11 c=11 v=54
76112 On ch=11 n=50 v=0
76112 On ch=11 n=50 v=111
76116 Par ch=11 c=11 v=53
76120 On ch=11 n=50 v=0
76120 On ch=11 n=50 v=111
76124 Par ch=11 c=11 v=52
76128 On ch=11 n=50 v=0
76128 On ch=11 n=50 v=111
76132 Par ch=11 c=11 v=51
76136 On ch=11 n=50 v=0
76136 On ch=11 n=50 v=111
76140 Par ch=11 c=11 v=50
76144 On ch=11 n=50 v=0
76144 On ch=11 n=50 v=111
76148 Par ch=11 c=11 v=49
76152 On ch=11 n=50 v=0
76152 Par ch=11 c=11 v=48
76152 On ch=11 n=50 v=111
76160 On ch=11 n=50 v=0
76160 Par ch=11 c=11 v=47
76160 On ch=11 n=50 v=111
76168 On ch=11 n=50 v=0
76168 Par ch=11 c=11 v=46
76168 On ch=11 n=50 v=111
76176 On ch=11 n=50 v=0
76176 Par ch=11 c=11 v=45
76176 On ch=11 n=50 v=111
76184 On ch=11 n=50 v=0
76184 Par ch=11 c=11 v=44
76184 On ch=11 n=50 v=111
76192 On ch=11 n=50 v=0
76192 Par ch=11 c=11 v=43
76192 On ch=11 n=50 v=111
76200 On ch=11 n=50 v=0
76200 Par ch=11 c=11 v=42
76200 On ch=11 n=50 v=111
76208 On ch=11 n=50 v=0
76208 Par ch=11 c=11 v=41
76208 On ch=11 n=50 v=111
76212 Par ch=11 c=11 v=40
76216 On ch=11 n=50 v=0
76216 On ch=11 n=50 v=111
76220 Par ch=11 c=11 v=39
76224 On ch=11 n=50 v=0
76224 On ch=11 n=50 v=111
76228 Par ch=11 c=11 v=38
76232 On ch=11 n=50 v=0
76232 On ch=11 n=50 v=111
76236 Par ch=11 c=11 v=37
76240 On ch=11 n=50 v=0
76240 On ch=11 n=50 v=111
76244 Par ch=11 c=11 v=36
76248 On ch=11 n=50 v=0
76248 On ch=11 n=50 v=111
76252 Par ch=11 c=11 v=35
76256 On ch=11 n=50 v=0
76256 On ch=11 n=50 v=111
76260 Par ch=11 c=11 v=34
76264 On ch=11 n=50 v=0
76264 On ch=11 n=50 v=111
76268 Par ch=11 c=11 v=33
76272 On ch=11 n=50 v=0
76272 Par ch=11 c=11 v=32
76416 Par ch=11 c=11 v=64
76800 On ch=11 n=49 v=111
76808 On ch=11 n=49 v=0
76808 On ch=11 n=49 v=111
76816 On ch=11 n=49 v=0
76816 On ch=11 n=49 v=111
76824 On ch=11 n=49 v=0
76824 On ch=11 n=49 v=111
76832 On ch=11 n=49 v=0
76832 On ch=11 n=49 v=111
76840 On ch=11 n=49 v=0
76840 On ch=11 n=49 v=111
76848 On ch=11 n=49 v=0
76848 On ch=11 n=49 v=111
76856 On ch=11 n=49 v=0
76856 On ch=11 n=49 v=111
76864 On ch=11 n=49 v=0
76864 On ch=11 n=49 v=111
76872 On ch=11 n=49 v=0
76872 On ch=11 n=49 v=111
76880 On ch=11 n=49 v=0
76880 On ch=11 n=49 v=111
76888 On ch=11 n=49 v=0
76888 On ch=11 n=49 v=111
76896 On ch=11 n=49 v=0
76896 On ch=11 n=49 v=111
76904 On ch=11 n=49 v=0
76904 On ch=11 n=49 v=111
76912 On ch=11 n=49 v=0
76912 On ch=11 n=49 v=111
76920 On ch=11 n=49 v=0
76920 On ch=11 n=49 v=111
76928 On ch=11 n=49 v=0
76928 On ch=11 n=49 v=111
76936 On ch=11 n=49 v=0
76936 On ch=11 n=49 v=111
76944 On ch=11 n=49 v=0
76944 On ch=11 n=49 v=111
76952 On ch=11 n=49 v=0
76952 On ch=11 n=49 v=111
76960 On ch=11 n=49 v=0
76960 On ch=11 n=49 v=111
76968 On ch=11 n=49 v=0
76968 On ch=11 n=49 v=111
76976 On ch=11 n=49 v=0
76976 On ch=11 n=49 v=111
76984 On ch=11 n=49 v=0
76984 On ch=11 n=49 v=111
76992 On ch=11 n=49 v=0
76992 On ch=11 n=49 v=111
77000 On ch=11 n=49 v=0
77000 On ch=11 n=49 v=111
77008 On ch=11 n=49 v=0
77008 On ch=11 n=49 v=111
77016 On ch=11 n=49 v=0
77016 On ch=11 n=49 v=111
77024 On ch=11 n=49 v=0
77024 On ch=11 n=49 v=111
77032 On ch=11 n=49 v=0
77032 On ch=11 n=49 v=111
77040 On ch=11 n=49 v=0
77040 On ch=11 n=49 v=111
77048 On ch=11 n=49 v=0
77048 On ch=11 n=49 v=111
77056 On ch=11 n=49 v=0
77056 On ch=11 n=49 v=111
77064 On ch=11 n=49 v=0
77064 On ch=11 n=49 v=111
77072 On ch=11 n=49 v=0
77072 On ch=11 n=49 v=111
77080 On ch=11 n=49 v=0
77080 On ch=11 n=49 v=111
77088 On ch=11 n=49 v=0
77088 On ch=11 n=49 v=111
77096 On ch=11 n=49 v=0
77096 On ch=11 n=49 v=111
77104 On ch=11 n=49 v=0
77104 On ch=11 n=49 v=111
77112 On ch=11 n=49 v=0
77112 On ch=11 n=49 v=111
77120 On ch=11 n=49 v=0
77120 On ch=11 n=49 v=111
77128 On ch=11 n=49 v=0
77128 On ch=11 n=49 v=111
77136 On ch=11 n=49 v=0
77136 On ch=11 n=49 v=111
77144 On ch=11 n=49 v=0
77144 On ch=11 n=49 v=111
77152 On ch=11 n=49 v=0
77152 On ch=11 n=49 v=111
77160 On ch=11 n=49 v=0
77160 On ch=11 n=49 v=111
77168 On ch=11 n=49 v=0
77168 On ch=11 n=49 v=111
77176 On ch=11 n=49 v=0
77176 On ch=11 n=49 v=111
77184 On ch=11 n=49 v=0
77184 Par ch=11 c=11 v=64
77184 On ch=11 n=49 v=111
77192 On ch=11 n=49 v=0
77192 On ch=11 n=49 v=111
77196 Par ch=11 c=11 v=63
77200 On ch=11 n=49 v=0
77200 On ch=11 n=49 v=111
77208 On ch=11 n=49 v=0
77208 Par ch=11 c=11 v=62
77208 On ch=11 n=49 v=111
77216 On ch=11 n=49 v=0
77216 On ch=11 n=49 v=111
77220 Par ch=11 c=11 v=61
77224 On ch=11 n=49 v=0
77224 On ch=11 n=49 v=111
77232 On ch=11 n=49 v=0
77232 Par ch=11 c=11 v=60
77232 On ch=11 n=49 v=111
77240 On ch=11 n=49 v=0
77240 On ch=11 n=49 v=111
77244 Par ch=11 c=11 v=59
77248 On ch=11 n=49 v=0
77248 On ch=11 n=49 v=111
77252 Par ch=11 c=11 v=58
77256 On ch=11 n=49 v=0
77256 On ch=11 n=49 v=111
77264 On ch=11 n=49 v=0
77264 Par ch=11 c=11 v=57
77264 On ch=11 n=49 v=111
77272 On ch=11 n=49 v=0
77272 On ch=11 n=49 v=111
77276 Par ch=11 c=11 v=56
77280 On ch=11 n=49 v=0
77280 On ch=11 n=49 v=111
77288 On ch=11 n=49 v=0
77288 Par ch=11 c=11 v=55
77288 On ch=11 n=49 v=111
77296 On ch=11 n=49 v=0
77296 On ch=11 n=49 v=111
77300 Par ch=11 c=11 v=54
77304 On ch=11 n=49 v=0
77304 On ch=11 n=49 v=111
77312 On ch=11 n=49 v=0
77312 Par ch=11 c=11 v=53
77312 On ch=11 n=49 v=111
77320 On ch=11 n=49 v=0
77320 Par ch=11 c=11 v=52
77320 On ch=11 n=49 v=111
77328 On ch=11 n=49 v=0
77328 On ch=11 n=49 v=111
77332 Par ch=11 c=11 v=51
77336 On ch=11 n=49 v=0
77336 On ch=11 n=49 v=111
77344 On ch=11 n=49 v=0
77344 Par ch=11 c=11 v=50
77344 On ch=11 n=49 v=111
77352 On ch=11 n=49 v=0
77352 On ch=11 n=49 v=111
77356 Par ch=11 c=11 v=49
77360 On ch=11 n=49 v=0
77360 On ch=11 n=49 v=111
77368 On ch=11 n=49 v=0
77368 Par ch=11 c=11 v=48
77368 On ch=11 n=49 v=111
77376 On ch=11 n=49 v=0
77376 Par ch=11 c=11 v=47
77376 On ch=11 n=49 v=111
77384 On ch=11 n=49 v=0
77384 On ch=11 n=49 v=111
77388 Par ch=11 c=11 v=46
77392 On ch=11 n=49 v=0
77392 On ch=11 n=49 v=111
77400 On ch=11 n=49 v=0
77400 Par ch=11 c=11 v=45
77400 On ch=11 n=49 v=111
77408 On ch=11 n=49 v=0
77408 On ch=11 n=49 v=111
77412 Par ch=11 c=11 v=44
77416 On ch=11 n=49 v=0
77416 On ch=11 n=49 v=111
77424 On ch=11 n=49 v=0
77424 Par ch=11 c=11 v=43
77424 On ch=11 n=49 v=111
77432 On ch=11 n=49 v=0
77432 On ch=11 n=49 v=111
77436 Par ch=11 c=11 v=42
77440 On ch=11 n=49 v=0
77440 On ch=11 n=49 v=111
77444 Par ch=11 c=11 v=41
77448 On ch=11 n=49 v=0
77448 On ch=11 n=49 v=111
77456 On ch=11 n=49 v=0
77456 Par ch=11 c=11 v=40
77456 On ch=11 n=49 v=111
77464 On ch=11 n=49 v=0
77464 On ch=11 n=49 v=111
77468 Par ch=11 c=11 v=39
77472 On ch=11 n=49 v=0
77472 On ch=11 n=49 v=111
77480 On ch=11 n=49 v=0
77480 Par ch=11 c=11 v=38
77480 On ch=11 n=49 v=111
77488 On ch=11 n=49 v=0
77488 On ch=11 n=49 v=111
77492 Par ch=11 c=11 v=37
77496 On ch=11 n=49 v=0
77496 On ch=11 n=49 v=111
77504 On ch=11 n=49 v=0
77504 Par ch=11 c=11 v=36
77504 On ch=11 n=49 v=111
77512 On ch=11 n=49 v=0
77512 Par ch=11 c=11 v=35
77512 On ch=11 n=49 v=111
77520 On ch=11 n=49 v=0
77520 On ch=11 n=49 v=111
77524 Par ch=11 c=11 v=34
77528 On ch=11 n=49 v=0
77528 On ch=11 n=49 v=111
77536 On ch=11 n=49 v=0
77536 Par ch=11 c=11 v=33
77536 On ch=11 n=49 v=111
77544 On ch=11 n=49 v=0
77544 On ch=11 n=49 v=111
77548 Par ch=11 c=11 v=32
77552 On ch=11 n=49 v=0
77552 On ch=11 n=49 v=111
77560 On ch=11 n=49 v=0
77560 On ch=11 n=49 v=111
77568 On ch=11 n=49 v=0
77568 On ch=11 n=49 v=111
77576 On ch=11 n=49 v=0
77576 On ch=11 n=49 v=111
77584 On ch=11 n=49 v=0
77584 On ch=11 n=49 v=111
77592 On ch=11 n=49 v=0
77592 On ch=11 n=49 v=111
77600 On ch=11 n=49 v=0
77600 On ch=11 n=49 v=111
77608 On ch=11 n=49 v=0
77608 On ch=11 n=49 v=111
77616 On ch=11 n=49 v=0
77616 On ch=11 n=49 v=111
77624 On ch=11 n=49 v=0
77624 On ch=11 n=49 v=111
77632 On ch=11 n=49 v=0
77632 On ch=11 n=49 v=111
77640 On ch=11 n=49 v=0
77640 On ch=11 n=49 v=111
77648 On ch=11 n=49 v=0
77648 On ch=11 n=49 v=111
77656 On ch=11 n=49 v=0
77656 On ch=11 n=49 v=111
77664 On ch=11 n=49 v=0
77664 On ch=11 n=49 v=111
77672 On ch=11 n=49 v=0
77672 On ch=11 n=49 v=111
77680 On ch=11 n=49 v=0
77680 On ch=11 n=49 v=111
77688 On ch=11 n=49 v=0
77688 On ch=11 n=49 v=111
77696 On ch=11 n=49 v=0
77696 On ch=11 n=49 v=111
77704 On ch=11 n=49 v=0
77704 On ch=11 n=49 v=111
77712 On ch=11 n=49 v=0
77712 On ch=11 n=49 v=111
77720 On ch=11 n=49 v=0
77720 On ch=11 n=49 v=111
77728 On ch=11 n=49 v=0
77728 On ch=11 n=49 v=111
77736 On ch=11 n=49 v=0
77736 On ch=11 n=49 v=111
77744 On ch=11 n=49 v=0
77744 On ch=11 n=49 v=111
77752 On ch=11 n=49 v=0
77752 On ch=11 n=49 v=111
77760 On ch=11 n=49 v=0
77760 On ch=11 n=49 v=111
77768 On ch=11 n=49 v=0
77768 On ch=11 n=49 v=111
77776 On ch=11 n=49 v=0
77776 On ch=11 n=49 v=111
77784 On ch=11 n=49 v=0
77784 On ch=11 n=49 v=111
77792 On ch=11 n=49 v=0
77792 On ch=11 n=49 v=111
77800 On ch=11 n=49 v=0
77800 On ch=11 n=49 v=111
77808 On ch=11 n=49 v=0
77808 On ch=11 n=49 v=111
77816 On ch=11 n=49 v=0
77816 On ch=11 n=49 v=111
77824 On ch=11 n=49 v=0
77824 On ch=11 n=49 v=111
77832 On ch=11 n=49 v=0
77832 On ch=11 n=49 v=111
77840 On ch=11 n=49 v=0
77840 On ch=11 n=49 v=111
77848 On ch=11 n=49 v=0
77848 On ch=11 n=49 v=111
77856 On ch=11 n=49 v=0
77856 On ch=11 n=49 v=111
77864 On ch=11 n=49 v=0
77864 On ch=11 n=49 v=111
77872 On ch=11 n=49 v=0
77872 On ch=11 n=49 v=111
77880 On ch=11 n=49 v=0
77880 On ch=11 n=49 v=111
77888 On ch=11 n=49 v=0
77888 On ch=11 n=49 v=111
77896 On ch=11 n=49 v=0
77896 On ch=11 n=49 v=111
77904 On ch=11 n=49 v=0
77904 On ch=11 n=49 v=111
77912 On ch=11 n=49 v=0
77912 On ch=11 n=49 v=111
77920 On ch=11 n=49 v=0
77920 On ch=11 n=49 v=111
77928 On ch=11 n=49 v=0
77928 On ch=11 n=49 v=111
77936 On ch=11 n=49 v=0
77936 On ch=11 n=49 v=111
77944 On ch=11 n=49 v=0
77944 On ch=11 n=49 v=111
77952 On ch=11 n=49 v=0
77952 On ch=11 n=49 v=111
77960 On ch=11 n=49 v=0
77960 On ch=11 n=49 v=111
77968 On ch=11 n=49 v=0
77968 On ch=11 n=49 v=111
77976 On ch=11 n=49 v=0
77976 On ch=11 n=49 v=111
77984 On ch=11 n=49 v=0
77984 On ch=11 n=49 v=111
77992 On ch=11 n=49 v=0
77992 On ch=11 n=49 v=111
78000 On ch=11 n=49 v=0
78000 On ch=11 n=49 v=111
78008 On ch=11 n=49 v=0
78008 On ch=11 n=49 v=111
78016 On ch=11 n=49 v=0
78016 On ch=11 n=49 v=111
78024 On ch=11 n=49 v=0
78024 On ch=11 n=49 v=111
78032 On ch=11 n=49 v=0
78032 On ch=11 n=49 v=111
78040 On ch=11 n=49 v=0
78040 On ch=11 n=49 v=111
78048 On ch=11 n=49 v=0
78048 On ch=11 n=49 v=111
78056 On ch=11 n=49 v=0
78056 On ch=11 n=49 v=111
78064 On ch=11 n=49 v=0
78064 On ch=11 n=49 v=111
78072 On ch=11 n=49 v=0
78072 On ch=11 n=49 v=111
78080 On ch=11 n=49 v=0
78080 On ch=11 n=49 v=111
78088 On ch=11 n=49 v=0
78088 On ch=11 n=49 v=111
78096 On ch=11 n=49 v=0
78096 On ch=11 n=49 v=111
78104 On ch=11 n=49 v=0
78104 On ch=11 n=49 v=111
78112 On ch=11 n=49 v=0
78112 On ch=11 n=49 v=111
78120 On ch=11 n=49 v=0
78120 On ch=11 n=49 v=111
78128 On ch=11 n=49 v=0
78128 On ch=11 n=49 v=111
78136 On ch=11 n=49 v=0
78136 On ch=11 n=49 v=111
78144 On ch=11 n=49 v=0
78144 On ch=11 n=49 v=111
78152 On ch=11 n=49 v=0
78152 On ch=11 n=49 v=111
78160 On ch=11 n=49 v=0
78160 On ch=11 n=49 v=111
78168 On ch=11 n=49 v=0
78168 On ch=11 n=49 v=111
78176 On ch=11 n=49 v=0
78176 On ch=11 n=49 v=111
78184 On ch=11 n=49 v=0
78184 On ch=11 n=49 v=111
78192 On ch=11 n=49 v=0
78192 On ch=11 n=49 v=111
78200 On ch=11 n=49 v=0
78200 On ch=11 n=49 v=111
78208 On ch=11 n=49 v=0
78208 On ch=11 n=49 v=111
78216 On ch=11 n=49 v=0
78216 On ch=11 n=49 v=111
78224 On ch=11 n=49 v=0
78224 On ch=11 n=49 v=111
78232 On ch=11 n=49 v=0
78232 On ch=11 n=49 v=111
78240 On ch=11 n=49 v=0
78240 On ch=11 n=49 v=111
78248 On ch=11 n=49 v=0
78248 On ch=11 n=49 v=111
78256 On ch=11 n=49 v=0
78256 On ch=11 n=49 v=111
78264 On ch=11 n=49 v=0
78264 On ch=11 n=49 v=111
78272 On ch=11 n=49 v=0
78272 On ch=11 n=49 v=111
78280 On ch=11 n=49 v=0
78280 On ch=11 n=49 v=111
78288 On ch=11 n=49 v=0
78288 On ch=11 n=49 v=111
78296 On ch=11 n=49 v=0
78296 On ch=11 n=49 v=111
78304 On ch=11 n=49 v=0
78304 On ch=11 n=49 v=111
78312 On ch=11 n=49 v=0
78312 On ch=11 n=49 v=111
78320 On ch=11 n=49 v=0
78320 On ch=11 n=49 v=111
78328 On ch=11 n=49 v=0
78328 On ch=11 n=49 v=111
78336 On ch=11 n=49 v=0
78336 On ch=11 n=49 v=111
78344 On ch=11 n=49 v=0
78344 On ch=11 n=49 v=111
78352 On ch=11 n=49 v=0
78352 On ch=11 n=49 v=111
78360 On ch=11 n=49 v=0
78360 On ch=11 n=49 v=111
78368 On ch=11 n=49 v=0
78368 On ch=11 n=49 v=111
78376 On ch=11 n=49 v=0
78376 On ch=11 n=49 v=111
78384 On ch=11 n=49 v=0
78384 On ch=11 n=49 v=111
78392 On ch=11 n=49 v=0
78392 On ch=11 n=49 v=111
78400 On ch=11 n=49 v=0
78400 On ch=11 n=49 v=111
78408 On ch=11 n=49 v=0
78408 On ch=11 n=49 v=111
78416 On ch=11 n=49 v=0
78416 On ch=11 n=49 v=111
78424 On ch=11 n=49 v=0
78424 On ch=11 n=49 v=111
78432 On ch=11 n=49 v=0
78432 On ch=11 n=49 v=111
78440 On ch=11 n=49 v=0
78440 On ch=11 n=49 v=111
78448 On ch=11 n=49 v=0
78448 On ch=11 n=49 v=111
78456 On ch=11 n=49 v=0
78456 On ch=11 n=49 v=111
78464 On ch=11 n=49 v=0
78464 On ch=11 n=49 v=111
78472 On ch=11 n=49 v=0
78472 On ch=11 n=49 v=111
78480 On ch=11 n=49 v=0
78480 On ch=11 n=49 v=111
78488 On ch=11 n=49 v=0
78488 On ch=11 n=49 v=111
78496 On ch=11 n=49 v=0
78496 On ch=11 n=49 v=111
78504 On ch=11 n=49 v=0
78504 On ch=11 n=49 v=111
78512 On ch=11 n=49 v=0
78512 On ch=11 n=49 v=111
78520 On ch=11 n=49 v=0
78520 On ch=11 n=49 v=111
78528 On ch=11 n=49 v=0
78528 Par ch=11 c=11 v=32
78528 On ch=11 n=49 v=111
78536 On ch=11 n=49 v=0
78536 On ch=11 n=49 v=111
78544 On ch=11 n=49 v=0
78544 On ch=11 n=49 v=111
78552 On ch=11 n=49 v=0
78552 On ch=11 n=49 v=111
78560 On ch=11 n=49 v=0
78560 On ch=11 n=49 v=111
78564 Par ch=11 c=11 v=31
78568 On ch=11 n=49 v=0
78568 On ch=11 n=49 v=111
78576 On ch=11 n=49 v=0
78576 On ch=11 n=49 v=111
78584 On ch=11 n=49 v=0
78584 On ch=11 n=49 v=111
78592 On ch=11 n=49 v=0
78592 On ch=11 n=49 v=111
78596 Par ch=11 c=11 v=30
78600 On ch=11 n=49 v=0
78600 On ch=11 n=49 v=111
78608 On ch=11 n=49 v=0
78608 On ch=11 n=49 v=111
78616 On ch=11 n=49 v=0
78616 On ch=11 n=49 v=111
78624 On ch=11 n=49 v=0
78624 On ch=11 n=49 v=111
78632 On ch=11 n=49 v=0
78632 Par ch=11 c=11 v=29
78632 On ch=11 n=49 v=111
78640 On ch=11 n=49 v=0
78640 On ch=11 n=49 v=111
78648 On ch=11 n=49 v=0
78648 On ch=11 n=49 v=111
78656 On ch=11 n=49 v=0
78656 On ch=11 n=49 v=111
78664 On ch=11 n=49 v=0
78664 Par ch=11 c=11 v=28
78664 On ch=11 n=49 v=111
78672 On ch=11 n=49 v=0
78672 On ch=11 n=49 v=111
78680 On ch=11 n=49 v=0
78680 On ch=11 n=49 v=111
78688 On ch=11 n=49 v=0
78688 On ch=11 n=49 v=111
78696 On ch=11 n=49 v=0
78696 On ch=11 n=49 v=111
78700 Par ch=11 c=11 v=27
78704 On ch=11 n=49 v=0
78704 On ch=11 n=49 v=111
78712 On ch=11 n=49 v=0
78712 On ch=11 n=49 v=111
78720 On ch=11 n=49 v=0
78720 On ch=11 n=49 v=111
78728 On ch=11 n=49 v=0
78728 On ch=11 n=49 v=111
78732 Par ch=11 c=11 v=26
78736 On ch=11 n=49 v=0
78736 On ch=11 n=49 v=111
78744 On ch=11 n=49 v=0
78744 On ch=11 n=49 v=111
78752 On ch=11 n=49 v=0
78752 On ch=11 n=49 v=111
78760 On ch=11 n=49 v=0
78760 On ch=11 n=49 v=111
78768 On ch=11 n=49 v=0
78768 Par ch=11 c=11 v=25
78768 On ch=11 n=49 v=111
78776 On ch=11 n=49 v=0
78776 On ch=11 n=49 v=111
78784 On ch=11 n=49 v=0
78784 On ch=11 n=49 v=111
78792 On ch=11 n=49 v=0
78792 On ch=11 n=49 v=111
78800 On ch=11 n=49 v=0
78800 Par ch=11 c=11 v=24
78800 On ch=11 n=49 v=111
78808 On ch=11 n=49 v=0
78808 On ch=11 n=49 v=111
78816 On ch=11 n=49 v=0
78816 On ch=11 n=49 v=111
78824 On ch=11 n=49 v=0
78824 On ch=11 n=49 v=111
78832 On ch=11 n=49 v=0
78832 On ch=11 n=49 v=111
78836 Par ch=11 c=11 v=23
78840 On ch=11 n=49 v=0
78840 On ch=11 n=49 v=111
78848 On ch=11 n=49 v=0
78848 On ch=11 n=49 v=111
78856 On ch=11 n=49 v=0
78856 On ch=11 n=49 v=111
78864 On ch=11 n=49 v=0
78864 On ch=11 n=49 v=111
78868 Par ch=11 c=11 v=22
78872 On ch=11 n=49 v=0
78872 On ch=11 n=49 v=111
78880 On ch=11 n=49 v=0
78880 On ch=11 n=49 v=111
78888 On ch=11 n=49 v=0
78888 On ch=11 n=49 v=111
78896 On ch=11 n=49 v=0
78896 On ch=11 n=49 v=111
78904 On ch=11 n=49 v=0
78904 Par ch=11 c=11 v=21
78904 On ch=11 n=49 v=111
78912 On ch=11 n=49 v=0
78912 On ch=11 n=49 v=111
78920 On ch=11 n=49 v=0
78920 On ch=11 n=49 v=111
78928 On ch=11 n=49 v=0
78928 On ch=11 n=49 v=111
78936 On ch=11 n=49 v=0
78936 Par ch=11 c=11 v=20
78936 On ch=11 n=49 v=111
78944 On ch=11 n=49 v=0
78944 On ch=11 n=49 v=111
78952 On ch=11 n=49 v=0
78952 On ch=11 n=49 v=111
78960 On ch=11 n=49 v=0
78960 On ch=11 n=49 v=111
78968 On ch=11 n=49 v=0
78968 On ch=11 n=49 v=111
78972 Par ch=11 c=11 v=19
78976 On ch=11 n=49 v=0
78976 On ch=11 n=49 v=111
78984 On ch=11 n=49 v=0
78984 On ch=11 n=49 v=111
78992 On ch=11 n=49 v=0
78992 On ch=11 n=49 v=111
79000 On ch=11 n=49 v=0
79000 On ch=11 n=49 v=111
79004 Par ch=11 c=11 v=18
79008 On ch=11 n=49 v=0
79008 On ch=11 n=49 v=111
79016 On ch=11 n=49 v=0
79016 On ch=11 n=49 v=111
79024 On ch=11 n=49 v=0
79024 On ch=11 n=49 v=111
79032 On ch=11 n=49 v=0
79032 On ch=11 n=49 v=111
79040 On ch=11 n=49 v=0
79040 Par ch=11 c=11 v=17
79040 On ch=11 n=49 v=111
79048 On ch=11 n=49 v=0
79048 On ch=11 n=49 v=111
79056 On ch=11 n=49 v=0
79056 On ch=11 n=49 v=111
79064 On ch=11 n=49 v=0
79064 On ch=11 n=49 v=111
79072 On ch=11 n=49 v=0
79072 Par ch=11 c=11 v=16
79072 On ch=11 n=49 v=111
79080 On ch=11 n=49 v=0
79080 On ch=11 n=49 v=111
79088 On ch=11 n=49 v=0
79088 On ch=11 n=49 v=111
79096 On ch=11 n=49 v=0
79096 On ch=11 n=49 v=111
79104 On ch=11 n=49 v=0
79488 Par ch=11 c=11 v=64
91392 On ch=11 n=47 v=15
91400 On ch=11 n=47 v=0
91400 On ch=11 n=47 v=15
91408 On ch=11 n=47 v=0
91408 On ch=11 n=47 v=15
91416 On ch=11 n=47 v=0
91416 On ch=11 n=47 v=15
91424 On ch=11 n=47 v=0
91424 On ch=11 n=47 v=15
91432 On ch=11 n=47 v=0
91432 On ch=11 n=47 v=15
91440 On ch=11 n=47 v=0
91440 On ch=11 n=47 v=15
91448 On ch=11 n=47 v=0
91448 On ch=11 n=47 v=15
91456 On ch=11 n=47 v=0
91456 On ch=11 n=47 v=15
91464 On ch=11 n=47 v=0
91464 On ch=11 n=47 v=15
91472 On ch=11 n=47 v=0
91472 On ch=11 n=47 v=15
91480 On ch=11 n=47 v=0
91480 On ch=11 n=47 v=15
91488 On ch=11 n=47 v=0
91488 On ch=11 n=47 v=15
91496 On ch=11 n=47 v=0
91496 On ch=11 n=47 v=15
91504 On ch=11 n=47 v=0
91504 On ch=11 n=47 v=15
91512 On ch=11 n=47 v=0
91512 On ch=11 n=47 v=15
91520 On ch=11 n=47 v=0
91520 On ch=11 n=47 v=15
91528 On ch=11 n=47 v=0
91528 On ch=11 n=47 v=15
91536 On ch=11 n=47 v=0
91536 On ch=11 n=47 v=15
91544 On ch=11 n=47 v=0
91544 On ch=11 n=47 v=15
91552 On ch=11 n=47 v=0
91552 On ch=11 n=47 v=15
91560 On ch=11 n=47 v=0
91560 On ch=11 n=47 v=15
91568 On ch=11 n=47 v=0
91568 On ch=11 n=47 v=15
91576 On ch=11 n=47 v=0
91576 On ch=11 n=47 v=15
91584 On ch=11 n=47 v=0
91584 On ch=11 n=47 v=15
91592 On ch=11 n=47 v=0
91592 On ch=11 n=47 v=15
91600 On ch=11 n=47 v=0
91600 On ch=11 n=47 v=15
91608 On ch=11 n=47 v=0
91608 On ch=11 n=47 v=15
91616 On ch=11 n=47 v=0
91616 On ch=11 n=47 v=15
91624 On ch=11 n=47 v=0
91624 On ch=11 n=47 v=15
91632 On ch=11 n=47 v=0
91632 On ch=11 n=47 v=15
91640 On ch=11 n=47 v=0
91640 On ch=11 n=47 v=15
91648 On ch=11 n=47 v=0
91648 On ch=11 n=47 v=15
91656 On ch=11 n=47 v=0
91656 On ch=11 n=47 v=15
91664 On ch=11 n=47 v=0
91664 On ch=11 n=47 v=15
91672 On ch=11 n=47 v=0
91672 On ch=11 n=47 v=15
91680 On ch=11 n=47 v=0
91680 On ch=11 n=47 v=15
91688 On ch=11 n=47 v=0
91688 On ch=11 n=47 v=15
91696 On ch=11 n=47 v=0
91696 On ch=11 n=47 v=15
91704 On ch=11 n=47 v=0
91704 On ch=11 n=47 v=15
91712 On ch=11 n=47 v=0
91712 On ch=11 n=47 v=15
91720 On ch=11 n=47 v=0
91720 On ch=11 n=47 v=15
91728 On ch=11 n=47 v=0
91728 On ch=11 n=47 v=15
91736 On ch=11 n=47 v=0
91736 On ch=11 n=47 v=15
91744 On ch=11 n=47 v=0
91744 On ch=11 n=47 v=15
91752 On ch=11 n=47 v=0
91752 On ch=11 n=47 v=15
91760 On ch=11 n=47 v=0
91760 On ch=11 n=47 v=15
91768 On ch=11 n=47 v=0
91768 On ch=11 n=47 v=15
91776 On ch=11 n=47 v=0
91776 On ch=11 n=47 v=15
91784 On ch=11 n=47 v=0
91784 On ch=11 n=47 v=15
91792 On ch=11 n=47 v=0
91792 On ch=11 n=47 v=15
91800 On ch=11 n=47 v=0
91800 On ch=11 n=47 v=15
91808 On ch=11 n=47 v=0
91808 On ch=11 n=47 v=15
91816 On ch=11 n=47 v=0
91816 On ch=11 n=47 v=15
91824 On ch=11 n=47 v=0
91824 On ch=11 n=47 v=15
91832 On ch=11 n=47 v=0
91832 On ch=11 n=47 v=15
91840 On ch=11 n=47 v=0
91840 On ch=11 n=47 v=15
91848 On ch=11 n=47 v=0
91848 On ch=11 n=47 v=15
91856 On ch=11 n=47 v=0
91856 On ch=11 n=47 v=15
91864 On ch=11 n=47 v=0
91864 On ch=11 n=47 v=15
91872 On ch=11 n=47 v=0
91872 On ch=11 n=47 v=15
91880 On ch=11 n=47 v=0
91880 On ch=11 n=47 v=15
91888 On ch=11 n=47 v=0
91888 On ch=11 n=47 v=15
91896 On ch=11 n=47 v=0
91896 On ch=11 n=47 v=15
91904 On ch=11 n=47 v=0
91904 On ch=11 n=47 v=15
91912 On ch=11 n=47 v=0
91912 On ch=11 n=47 v=15
91920 On ch=11 n=47 v=0
91920 On ch=11 n=47 v=15
91928 On ch=11 n=47 v=0
91928 On ch=11 n=47 v=15
91936 On ch=11 n=47 v=0
91936 On ch=11 n=47 v=15
91944 On ch=11 n=47 v=0
91944 On ch=11 n=47 v=15
91952 On ch=11 n=47 v=0
91952 On ch=11 n=47 v=15
91960 On ch=11 n=47 v=0
91960 On ch=11 n=47 v=15
91968 On ch=11 n=47 v=0
91968 On ch=11 n=47 v=15
91976 On ch=11 n=47 v=0
91976 On ch=11 n=47 v=15
91984 On ch=11 n=47 v=0
91984 On ch=11 n=47 v=15
91992 On ch=11 n=47 v=0
91992 On ch=11 n=47 v=15
92000 On ch=11 n=47 v=0
92000 On ch=11 n=47 v=15
92008 On ch=11 n=47 v=0
92008 On ch=11 n=47 v=15
92016 On ch=11 n=47 v=0
92016 On ch=11 n=47 v=15
92024 On ch=11 n=47 v=0
92024 On ch=11 n=47 v=15
92032 On ch=11 n=47 v=0
92032 On ch=11 n=47 v=15
92040 On ch=11 n=47 v=0
92040 On ch=11 n=47 v=15
92048 On ch=11 n=47 v=0
92048 On ch=11 n=47 v=15
92056 On ch=11 n=47 v=0
92056 On ch=11 n=47 v=15
92064 On ch=11 n=47 v=0
92064 On ch=11 n=47 v=15
92072 On ch=11 n=47 v=0
92072 On ch=11 n=47 v=15
92080 On ch=11 n=47 v=0
92080 On ch=11 n=47 v=15
92088 On ch=11 n=47 v=0
92088 On ch=11 n=47 v=15
92096 On ch=11 n=47 v=0
92096 On ch=11 n=47 v=15
92104 On ch=11 n=47 v=0
92104 On ch=11 n=47 v=15
92112 On ch=11 n=47 v=0
92112 On ch=11 n=47 v=15
92120 On ch=11 n=47 v=0
92120 On ch=11 n=47 v=15
92128 On ch=11 n=47 v=0
92128 On ch=11 n=47 v=15
92136 On ch=11 n=47 v=0
92136 On ch=11 n=47 v=15
92144 On ch=11 n=47 v=0
92144 On ch=11 n=47 v=15
92152 On ch=11 n=47 v=0
92152 On ch=11 n=47 v=15
92160 On ch=11 n=47 v=0
92160 On ch=11 n=47 v=15
92168 On ch=11 n=47 v=0
92168 On ch=11 n=47 v=15
92176 On ch=11 n=47 v=0
92176 On ch=11 n=47 v=15
92184 On ch=11 n=47 v=0
92184 On ch=11 n=47 v=15
92192 On ch=11 n=47 v=0
92192 On ch=11 n=47 v=15
92200 On ch=11 n=47 v=0
92200 On ch=11 n=47 v=15
92208 On ch=11 n=47 v=0
92208 On ch=11 n=47 v=15
92216 On ch=11 n=47 v=0
92216 On ch=11 n=47 v=15
92224 On ch=11 n=47 v=0
92224 On ch=11 n=47 v=15
92232 On ch=11 n=47 v=0
92232 On ch=11 n=47 v=15
92240 On ch=11 n=47 v=0
92240 On ch=11 n=47 v=15
92248 On ch=11 n=47 v=0
92248 On ch=11 n=47 v=15
92256 On ch=11 n=47 v=0
92256 On ch=11 n=47 v=15
92264 On ch=11 n=47 v=0
92264 On ch=11 n=47 v=15
92272 On ch=11 n=47 v=0
92272 On ch=11 n=47 v=15
92280 On ch=11 n=47 v=0
92280 On ch=11 n=47 v=15
92288 On ch=11 n=47 v=0
92288 On ch=11 n=47 v=15
92296 On ch=11 n=47 v=0
92296 On ch=11 n=47 v=15
92304 On ch=11 n=47 v=0
92304 On ch=11 n=47 v=15
92312 On ch=11 n=47 v=0
92312 On ch=11 n=47 v=15
92320 On ch=11 n=47 v=0
92320 On ch=11 n=47 v=15
92328 On ch=11 n=47 v=0
92328 On ch=11 n=47 v=15
92336 On ch=11 n=47 v=0
92336 On ch=11 n=47 v=15
92344 On ch=11 n=47 v=0
92344 On ch=11 n=47 v=15
92352 On ch=11 n=47 v=0
92352 On ch=11 n=47 v=15
92360 On ch=11 n=47 v=0
92360 On ch=11 n=47 v=15
92368 On ch=11 n=47 v=0
92368 On ch=11 n=47 v=15
92376 On ch=11 n=47 v=0
92376 On ch=11 n=47 v=15
92384 On ch=11 n=47 v=0
92384 On ch=11 n=47 v=15
92392 On ch=11 n=47 v=0
92392 On ch=11 n=47 v=15
92400 On ch=11 n=47 v=0
92400 On ch=11 n=47 v=15
92408 On ch=11 n=47 v=0
92408 On ch=11 n=47 v=15
92416 On ch=11 n=47 v=0
92416 On ch=11 n=47 v=15
92424 On ch=11 n=47 v=0
92424 On ch=11 n=47 v=15
92432 On ch=11 n=47 v=0
92432 On ch=11 n=47 v=15
92440 On ch=11 n=47 v=0
92440 On ch=11 n=47 v=15
92448 On ch=11 n=47 v=0
92448 On ch=11 n=47 v=15
92456 On ch=11 n=47 v=0
92456 On ch=11 n=47 v=15
92464 On ch=11 n=47 v=0
92464 On ch=11 n=47 v=15
92472 On ch=11 n=47 v=0
92472 On ch=11 n=47 v=15
92480 On ch=11 n=47 v=0
92480 On ch=11 n=47 v=15
92488 On ch=11 n=47 v=0
92488 On ch=11 n=47 v=15
92496 On ch=11 n=47 v=0
92496 On ch=11 n=47 v=15
92504 On ch=11 n=47 v=0
92504 On ch=11 n=47 v=15
92512 On ch=11 n=47 v=0
92512 On ch=11 n=47 v=15
92520 On ch=11 n=47 v=0
92520 On ch=11 n=47 v=15
92528 On ch=11 n=47 v=0
92528 On ch=11 n=47 v=15
92536 On ch=11 n=47 v=0
92536 On ch=11 n=47 v=15
92544 On ch=11 n=47 v=0
92544 On ch=11 n=47 v=15
92552 On ch=11 n=47 v=0
92552 On ch=11 n=47 v=15
92560 On ch=11 n=47 v=0
92560 On ch=11 n=47 v=15
92568 On ch=11 n=47 v=0
92568 On ch=11 n=47 v=15
92576 On ch=11 n=47 v=0
92576 On ch=11 n=47 v=15
92584 On ch=11 n=47 v=0
92584 On ch=11 n=47 v=15
92592 On ch=11 n=47 v=0
92592 On ch=11 n=47 v=15
92600 On ch=11 n=47 v=0
92600 On ch=11 n=47 v=15
92608 On ch=11 n=47 v=0
92608 On ch=11 n=47 v=15
92616 On ch=11 n=47 v=0
92616 On ch=11 n=47 v=15
92624 On ch=11 n=47 v=0
92624 On ch=11 n=47 v=15
92632 On ch=11 n=47 v=0
92632 On ch=11 n=47 v=15
92640 On ch=11 n=47 v=0
92640 On ch=11 n=47 v=15
92648 On ch=11 n=47 v=0
92648 On ch=11 n=47 v=15
92656 On ch=11 n=47 v=0
92656 On ch=11 n=47 v=15
92664 On ch=11 n=47 v=0
92664 On ch=11 n=47 v=15
92672 On ch=11 n=47 v=0
92672 On ch=11 n=47 v=15
92680 On ch=11 n=47 v=0
92680 On ch=11 n=47 v=15
92688 On ch=11 n=47 v=0
92688 On ch=11 n=47 v=15
92696 On ch=11 n=47 v=0
92696 On ch=11 n=47 v=15
92704 On ch=11 n=47 v=0
92704 On ch=11 n=47 v=15
92712 On ch=11 n=47 v=0
92712 On ch=11 n=47 v=15
92720 On ch=11 n=47 v=0
92720 On ch=11 n=47 v=15
92728 On ch=11 n=47 v=0
92728 On ch=11 n=47 v=15
92736 On ch=11 n=47 v=0
92736 On ch=11 n=47 v=15
92744 On ch=11 n=47 v=0
92744 On ch=11 n=47 v=15
92752 On ch=11 n=47 v=0
92752 On ch=11 n=47 v=15
92760 On ch=11 n=47 v=0
92760 On ch=11 n=47 v=15
92768 On ch=11 n=47 v=0
92768 On ch=11 n=47 v=15
92776 On ch=11 n=47 v=0
92776 On ch=11 n=47 v=15
92784 On ch=11 n=47 v=0
92784 On ch=11 n=47 v=15
92792 On ch=11 n=47 v=0
92792 On ch=11 n=47 v=15
92800 On ch=11 n=47 v=0
92800 On ch=11 n=47 v=15
92808 On ch=11 n=47 v=0
92808 On ch=11 n=47 v=15
92816 On ch=11 n=47 v=0
92816 On ch=11 n=47 v=15
92824 On ch=11 n=47 v=0
92824 On ch=11 n=47 v=15
92832 On ch=11 n=47 v=0
92832 On ch=11 n=47 v=15
92840 On ch=11 n=47 v=0
92840 On ch=11 n=47 v=15
92848 On ch=11 n=47 v=0
92848 On ch=11 n=47 v=15
92856 On ch=11 n=47 v=0
92856 On ch=11 n=47 v=15
92864 On ch=11 n=47 v=0
92864 On ch=11 n=47 v=15
92872 On ch=11 n=47 v=0
92872 On ch=11 n=47 v=15
92880 On ch=11 n=47 v=0
92880 On ch=11 n=47 v=15
92888 On ch=11 n=47 v=0
92888 On ch=11 n=47 v=15
92896 On ch=11 n=47 v=0
92896 On ch=11 n=47 v=15
92904 On ch=11 n=47 v=0
92904 On ch=11 n=47 v=15
92912 On ch=11 n=47 v=0
92912 On ch=11 n=47 v=15
92920 On ch=11 n=47 v=0
92920 On ch=11 n=47 v=15
92928 On ch=11 n=47 v=0
92928 On ch=11 n=47 v=15
92936 On ch=11 n=47 v=0
92936 On ch=11 n=47 v=15
92944 On ch=11 n=47 v=0
92944 On ch=11 n=47 v=15
92952 On ch=11 n=47 v=0
92952 On ch=11 n=47 v=15
92960 On ch=11 n=47 v=0
92960 On ch=11 n=47 v=15
92968 On ch=11 n=47 v=0
92968 On ch=11 n=47 v=15
92976 On ch=11 n=47 v=0
92976 On ch=11 n=47 v=15
92984 On ch=11 n=47 v=0
92984 On ch=11 n=47 v=15
92992 On ch=11 n=47 v=0
92992 On ch=11 n=47 v=15
93000 On ch=11 n=47 v=0
93000 On ch=11 n=47 v=15
93008 On ch=11 n=47 v=0
93008 On ch=11 n=47 v=15
93016 On ch=11 n=47 v=0
93016 On ch=11 n=47 v=15
93024 On ch=11 n=47 v=0
93024 On ch=11 n=47 v=15
93032 On ch=11 n=47 v=0
93032 On ch=11 n=47 v=15
93040 On ch=11 n=47 v=0
93040 On ch=11 n=47 v=15
93048 On ch=11 n=47 v=0
93048 On ch=11 n=47 v=15
93056 On ch=11 n=47 v=0
93056 On ch=11 n=47 v=15
93064 On ch=11 n=47 v=0
93064 On ch=11 n=47 v=15
93072 On ch=11 n=47 v=0
93072 On ch=11 n=47 v=15
93080 On ch=11 n=47 v=0
93080 On ch=11 n=47 v=15
93088 On ch=11 n=47 v=0
93088 On ch=11 n=47 v=15
93096 On ch=11 n=47 v=0
93096 On ch=11 n=47 v=15
93104 On ch=11 n=47 v=0
93104 On ch=11 n=47 v=15
93112 On ch=11 n=47 v=0
93112 On ch=11 n=47 v=15
93120 On ch=11 n=47 v=0
93120 On ch=11 n=47 v=15
93128 On ch=11 n=47 v=0
93128 On ch=11 n=47 v=15
93136 On ch=11 n=47 v=0
93136 On ch=11 n=47 v=15
93144 On ch=11 n=47 v=0
93144 On ch=11 n=47 v=15
93152 On ch=11 n=47 v=0
93152 On ch=11 n=47 v=15
93160 On ch=11 n=47 v=0
93160 On ch=11 n=47 v=15
93168 On ch=11 n=47 v=0
93168 On ch=11 n=47 v=15
93176 On ch=11 n=47 v=0
93176 On ch=11 n=47 v=15
93184 On ch=11 n=47 v=0
93184 On ch=11 n=47 v=15
93192 On ch=11 n=47 v=0
93192 On ch=11 n=47 v=15
93200 On ch=11 n=47 v=0
93200 On ch=11 n=47 v=15
93208 On ch=11 n=47 v=0
93208 On ch=11 n=47 v=15
93216 On ch=11 n=47 v=0
93216 On ch=11 n=47 v=15
93224 On ch=11 n=47 v=0
93224 On ch=11 n=47 v=15
93232 On ch=11 n=47 v=0
93232 On ch=11 n=47 v=15
93240 On ch=11 n=47 v=0
93240 On ch=11 n=47 v=15
93248 On ch=11 n=47 v=0
93248 On ch=11 n=47 v=15
93256 On ch=11 n=47 v=0
93256 On ch=11 n=47 v=15
93264 On ch=11 n=47 v=0
93264 On ch=11 n=47 v=15
93272 On ch=11 n=47 v=0
93272 On ch=11 n=47 v=15
93280 On ch=11 n=47 v=0
93280 On ch=11 n=47 v=15
93288 On ch=11 n=47 v=0
93288 On ch=11 n=47 v=15
93296 On ch=11 n=47 v=0
93296 On ch=11 n=47 v=15
93304 On ch=11 n=47 v=0
93304 On ch=11 n=47 v=15
93312 On ch=11 n=47 v=0
93312 On ch=11 n=47 v=15
93320 On ch=11 n=47 v=0
93320 On ch=11 n=47 v=15
93328 On ch=11 n=47 v=0
93328 On ch=11 n=47 v=15
93336 On ch=11 n=47 v=0
93336 On ch=11 n=47 v=15
93344 On ch=11 n=47 v=0
93344 On ch=11 n=47 v=15
93352 On ch=11 n=47 v=0
93352 On ch=11 n=47 v=15
93360 On ch=11 n=47 v=0
93360 On ch=11 n=47 v=15
93368 On ch=11 n=47 v=0
93368 On ch=11 n=47 v=15
93376 On ch=11 n=47 v=0
93376 On ch=11 n=47 v=15
93384 On ch=11 n=47 v=0
93384 On ch=11 n=47 v=15
93392 On ch=11 n=47 v=0
93392 On ch=11 n=47 v=15
93400 On ch=11 n=47 v=0
93400 On ch=11 n=47 v=15
93408 On ch=11 n=47 v=0
93408 On ch=11 n=47 v=15
93416 On ch=11 n=47 v=0
93416 On ch=11 n=47 v=15
93424 On ch=11 n=47 v=0
93424 On ch=11 n=47 v=15
93432 On ch=11 n=47 v=0
93432 On ch=11 n=47 v=15
93440 On ch=11 n=47 v=0
93440 On ch=11 n=47 v=15
93448 On ch=11 n=47 v=0
93448 On ch=11 n=47 v=15
93456 On ch=11 n=47 v=0
93456 On ch=11 n=47 v=15
93464 On ch=11 n=47 v=0
93464 On ch=11 n=47 v=15
93472 On ch=11 n=47 v=0
93472 On ch=11 n=47 v=15
93480 On ch=11 n=47 v=0
93480 On ch=11 n=47 v=15
93488 On ch=11 n=47 v=0
93488 On ch=11 n=47 v=15
93496 On ch=11 n=47 v=0
93496 On ch=11 n=47 v=15
93504 On ch=11 n=47 v=0
93504 On ch=11 n=47 v=15
93512 On ch=11 n=47 v=0
93512 On ch=11 n=47 v=15
93520 On ch=11 n=47 v=0
93520 On ch=11 n=47 v=15
93528 On ch=11 n=47 v=0
93528 On ch=11 n=47 v=15
93536 On ch=11 n=47 v=0
93536 On ch=11 n=47 v=15
93544 On ch=11 n=47 v=0
93544 On ch=11 n=47 v=15
93552 On ch=11 n=47 v=0
93552 On ch=11 n=47 v=15
93560 On ch=11 n=47 v=0
93560 On ch=11 n=47 v=15
93568 On ch=11 n=47 v=0
93568 On ch=11 n=47 v=15
93576 On ch=11 n=47 v=0
93576 On ch=11 n=47 v=15
93584 On ch=11 n=47 v=0
93584 On ch=11 n=47 v=15
93592 On ch=11 n=47 v=0
93592 On ch=11 n=47 v=15
93600 On ch=11 n=47 v=0
93600 On ch=11 n=47 v=15
93608 On ch=11 n=47 v=0
93608 On ch=11 n=47 v=15
93616 On ch=11 n=47 v=0
93616 On ch=11 n=47 v=15
93624 On ch=11 n=47 v=0
93624 On ch=11 n=47 v=15
93632 On ch=11 n=47 v=0
93632 On ch=11 n=47 v=15
93640 On ch=11 n=47 v=0
93640 On ch=11 n=47 v=15
93648 On ch=11 n=47 v=0
93648 On ch=11 n=47 v=15
93656 On ch=11 n=47 v=0
93656 On ch=11 n=47 v=15
93664 On ch=11 n=47 v=0
93664 On ch=11 n=47 v=15
93672 On ch=11 n=47 v=0
93672 On ch=11 n=47 v=15
93680 On ch=11 n=47 v=0
93680 On ch=11 n=47 v=15
93688 On ch=11 n=47 v=0
93688 On ch=11 n=47 v=15
93696 On ch=11 n=47 v=0
93696 On ch=11 n=47 v=15
93704 On ch=11 n=47 v=0
93704 On ch=11 n=47 v=15
93712 On ch=11 n=47 v=0
93712 On ch=11 n=47 v=15
93720 On ch=11 n=47 v=0
93720 On ch=11 n=47 v=15
93728 On ch=11 n=47 v=0
93728 On ch=11 n=47 v=15
93736 On ch=11 n=47 v=0
93736 On ch=11 n=47 v=15
93744 On ch=11 n=47 v=0
93744 On ch=11 n=47 v=15
93752 On ch=11 n=47 v=0
93752 On ch=11 n=47 v=15
93760 On ch=11 n=47 v=0
93760 On ch=11 n=47 v=15
93768 On ch=11 n=47 v=0
93768 On ch=11 n=47 v=15
93776 On ch=11 n=47 v=0
93776 On ch=11 n=47 v=15
93784 On ch=11 n=47 v=0
93784 On ch=11 n=47 v=15
93792 On ch=11 n=47 v=0
93792 On ch=11 n=47 v=15
93800 On ch=11 n=47 v=0
93800 On ch=11 n=47 v=15
93808 On ch=11 n=47 v=0
93808 On ch=11 n=47 v=15
93816 On ch=11 n=47 v=0
93816 On ch=11 n=47 v=15
93824 On ch=11 n=47 v=0
93824 On ch=11 n=47 v=15
93832 On ch=11 n=47 v=0
93832 On ch=11 n=47 v=15
93840 On ch=11 n=47 v=0
93840 On ch=11 n=47 v=15
93848 On ch=11 n=47 v=0
93848 On ch=11 n=47 v=15
93856 On ch=11 n=47 v=0
93856 On ch=11 n=47 v=15
93864 On ch=11 n=47 v=0
93864 On ch=11 n=47 v=15
93872 On ch=11 n=47 v=0
93872 On ch=11 n=47 v=15
93880 On ch=11 n=47 v=0
93880 On ch=11 n=47 v=15
93888 On ch=11 n=47 v=0
93888 On ch=11 n=47 v=15
93896 On ch=11 n=47 v=0
93896 On ch=11 n=47 v=15
93904 On ch=11 n=47 v=0
93904 On ch=11 n=47 v=15
93912 On ch=11 n=47 v=0
93912 On ch=11 n=47 v=15
93920 On ch=11 n=47 v=0
93920 On ch=11 n=47 v=15
93928 On ch=11 n=47 v=0
93928 On ch=11 n=47 v=15
93936 On ch=11 n=47 v=0
93936 On ch=11 n=47 v=15
93944 On ch=11 n=47 v=0
93944 On ch=11 n=47 v=15
93952 On ch=11 n=47 v=0
93952 On ch=11 n=47 v=15
93960 On ch=11 n=47 v=0
93960 On ch=11 n=47 v=15
93968 On ch=11 n=47 v=0
93968 On ch=11 n=47 v=15
93976 On ch=11 n=47 v=0
93976 On ch=11 n=47 v=15
93984 On ch=11 n=47 v=0
93984 On ch=11 n=47 v=15
93992 On ch=11 n=47 v=0
93992 On ch=11 n=47 v=15
94000 On ch=11 n=47 v=0
94000 On ch=11 n=47 v=15
94008 On ch=11 n=47 v=0
94008 On ch=11 n=47 v=15
94016 On ch=11 n=47 v=0
94016 On ch=11 n=47 v=15
94024 On ch=11 n=47 v=0
94024 On ch=11 n=47 v=15
94032 On ch=11 n=47 v=0
94032 On ch=11 n=47 v=15
94040 On ch=11 n=47 v=0
94040 On ch=11 n=47 v=15
94048 On ch=11 n=47 v=0
94048 On ch=11 n=47 v=15
94056 On ch=11 n=47 v=0
94056 On ch=11 n=47 v=15
94064 On ch=11 n=47 v=0
94064 On ch=11 n=47 v=15
94072 On ch=11 n=47 v=0
94072 On ch=11 n=47 v=15
94080 On ch=11 n=47 v=0
94080 On ch=11 n=47 v=15
94088 On ch=11 n=47 v=0
94088 On ch=11 n=47 v=15
94096 On ch=11 n=47 v=0
94096 On ch=11 n=47 v=15
94104 On ch=11 n=47 v=0
94104 On ch=11 n=47 v=15
94112 On ch=11 n=47 v=0
94112 On ch=11 n=47 v=15
94120 On ch=11 n=47 v=0
94120 On ch=11 n=47 v=15
94128 On ch=11 n=47 v=0
94128 On ch=11 n=47 v=15
94136 On ch=11 n=47 v=0
94136 On ch=11 n=47 v=15
94144 On ch=11 n=47 v=0
94144 On ch=11 n=47 v=15
94152 On ch=11 n=47 v=0
94152 On ch=11 n=47 v=15
94160 On ch=11 n=47 v=0
94160 On ch=11 n=47 v=15
94168 On ch=11 n=47 v=0
94168 On ch=11 n=47 v=15
94176 On ch=11 n=47 v=0
94176 On ch=11 n=47 v=15
94184 On ch=11 n=47 v=0
94184 On ch=11 n=47 v=15
94192 On ch=11 n=47 v=0
94192 On ch=11 n=47 v=15
94200 On ch=11 n=47 v=0
94200 On ch=11 n=47 v=15
94208 On ch=11 n=47 v=0
94208 On ch=11 n=47 v=15
94216 On ch=11 n=47 v=0
94216 On ch=11 n=47 v=15
94224 On ch=11 n=47 v=0
94224 On ch=11 n=47 v=15
94232 On ch=11 n=47 v=0
94232 On ch=11 n=47 v=15
94240 On ch=11 n=47 v=0
94240 On ch=11 n=47 v=15
94248 On ch=11 n=47 v=0
94248 On ch=11 n=47 v=15
94256 On ch=11 n=47 v=0
94256 On ch=11 n=47 v=15
94264 On ch=11 n=47 v=0
94264 On ch=11 n=47 v=15
94272 On ch=11 n=47 v=0
94272 On ch=11 n=47 v=15
94280 On ch=11 n=47 v=0
94280 On ch=11 n=47 v=15
94288 On ch=11 n=47 v=0
94288 On ch=11 n=47 v=15
94296 On ch=11 n=47 v=0
94296 On ch=11 n=47 v=15
94304 On ch=11 n=47 v=0
94304 On ch=11 n=47 v=15
94312 On ch=11 n=47 v=0
94312 On ch=11 n=47 v=15
94320 On ch=11 n=47 v=0
94320 On ch=11 n=47 v=15
94328 On ch=11 n=47 v=0
94328 On ch=11 n=47 v=15
94336 On ch=11 n=47 v=0
94336 On ch=11 n=47 v=15
94344 On ch=11 n=47 v=0
94344 On ch=11 n=47 v=15
94352 On ch=11 n=47 v=0
94352 On ch=11 n=47 v=15
94360 On ch=11 n=47 v=0
94360 On ch=11 n=47 v=15
94368 On ch=11 n=47 v=0
94368 On ch=11 n=47 v=15
94376 On ch=11 n=47 v=0
94376 On ch=11 n=47 v=15
94384 On ch=11 n=47 v=0
94384 On ch=11 n=47 v=15
94392 On ch=11 n=47 v=0
94392 On ch=11 n=47 v=15
94400 On ch=11 n=47 v=0
94400 On ch=11 n=47 v=15
94408 On ch=11 n=47 v=0
94408 On ch=11 n=47 v=15
94416 On ch=11 n=47 v=0
94416 On ch=11 n=47 v=15
94424 On ch=11 n=47 v=0
94424 On ch=11 n=47 v=15
94432 On ch=11 n=47 v=0
94432 On ch=11 n=47 v=15
94440 On ch=11 n=47 v=0
94440 On ch=11 n=47 v=15
94448 On ch=11 n=47 v=0
94448 On ch=11 n=47 v=15
94456 On ch=11 n=47 v=0
94456 On ch=11 n=47 v=15
94464 On ch=11 n=47 v=0
94656 On ch=11 n=46 v=95
94664 On ch=11 n=46 v=0
94664 On ch=11 n=46 v=95
94672 On ch=11 n=46 v=0
94672 On ch=11 n=46 v=95
94680 On ch=11 n=46 v=0
94680 On ch=11 n=46 v=95
94688 On ch=11 n=46 v=0
94688 On ch=11 n=46 v=95
94696 On ch=11 n=46 v=0
94696 On ch=11 n=46 v=95
94704 On ch=11 n=46 v=0
94704 Par ch=11 c=11 v=32
94704 On ch=11 n=46 v=95
94712 On ch=11 n=46 v=0
94712 On ch=11 n=46 v=95
94720 On ch=11 n=46 v=0
94720 On ch=11 n=46 v=95
94728 On ch=11 n=46 v=0
94728 On ch=11 n=46 v=95
94736 On ch=11 n=46 v=0
94736 Par ch=11 c=11 v=31
94736 On ch=11 n=46 v=95
94744 On ch=11 n=46 v=0
94744 On ch=11 n=46 v=95
94752 On ch=11 n=46 v=0
94752 On ch=11 n=46 v=95
94760 On ch=11 n=46 v=0
94760 On ch=11 n=46 v=95
94768 On ch=11 n=46 v=0
94768 Par ch=11 c=11 v=30
94768 On ch=11 n=46 v=95
94776 On ch=11 n=46 v=0
94776 On ch=11 n=46 v=95
94784 On ch=11 n=46 v=0
94784 On ch=11 n=46 v=95
94792 On ch=11 n=46 v=0
94792 On ch=11 n=46 v=95
94800 On ch=11 n=46 v=0
94800 Par ch=11 c=11 v=29
94800 On ch=11 n=46 v=95
94808 On ch=11 n=46 v=0
94808 On ch=11 n=46 v=95
94816 On ch=11 n=46 v=0
94816 On ch=11 n=46 v=95
94824 On ch=11 n=46 v=0
94824 On ch=11 n=46 v=95
94832 On ch=11 n=46 v=0
94832 Par ch=11 c=11 v=28
94832 On ch=11 n=46 v=95
94840 On ch=11 n=46 v=0
94840 On ch=11 n=46 v=95
94848 On ch=11 n=46 v=0
94848 On ch=11 n=46 v=95
94856 On ch=11 n=46 v=0
94856 On ch=11 n=46 v=95
94860 Par ch=11 c=11 v=27
94864 On ch=11 n=46 v=0
94864 On ch=11 n=46 v=95
94872 On ch=11 n=46 v=0
94872 On ch=11 n=46 v=95
94880 On ch=11 n=46 v=0
94880 On ch=11 n=46 v=95
94888 On ch=11 n=46 v=0
94888 On ch=11 n=46 v=95
94892 Par ch=11 c=11 v=26
94896 On ch=11 n=46 v=0
94896 On ch=11 n=46 v=95
94904 On ch=11 n=46 v=0
94904 On ch=11 n=46 v=95
94912 On ch=11 n=46 v=0
94912 On ch=11 n=46 v=95
94920 On ch=11 n=46 v=0
94920 On ch=11 n=46 v=95
94924 Par ch=11 c=11 v=25
94928 On ch=11 n=46 v=0
94928 On ch=11 n=46 v=95
94936 On ch=11 n=46 v=0
94936 On ch=11 n=46 v=95
94944 On ch=11 n=46 v=0
94944 On ch=11 n=46 v=95
94952 On ch=11 n=46 v=0
94952 On ch=11 n=46 v=95
94956 Par ch=11 c=11 v=24
94960 On ch=11 n=46 v=0
94960 On ch=11 n=46 v=95
94968 On ch=11 n=46 v=0
94968 On ch=11 n=46 v=95
94976 On ch=11 n=46 v=0
94976 On ch=11 n=46 v=95
94984 On ch=11 n=46 v=0
94984 Par ch=11 c=11 v=23
94984 On ch=11 n=46 v=95
94992 On ch=11 n=46 v=0
94992 On ch=11 n=46 v=95
95000 On ch=11 n=46 v=0
95000 On ch=11 n=46 v=95
95008 On ch=11 n=46 v=0
95008 On ch=11 n=46 v=95
95016 On ch=11 n=46 v=0
95016 Par ch=11 c=11 v=22
95016 On ch=11 n=46 v=95
95024 On ch=11 n=46 v=0
95024 On ch=11 n=46 v=95
95032 On ch=11 n=46 v=0
95032 On ch=11 n=46 v=95
95040 On ch=11 n=46 v=0
95040 On ch=11 n=46 v=95
95048 On ch=11 n=46 v=0
95048 Par ch=11 c=11 v=21
95048 On ch=11 n=46 v=95
95056 On ch=11 n=46 v=0
95056 On ch=11 n=46 v=95
95064 On ch=11 n=46 v=0
95064 On ch=11 n=46 v=95
95072 On ch=11 n=46 v=0
95072 On ch=11 n=46 v=95
95080 On ch=11 n=46 v=0
95080 Par ch=11 c=11 v=20
95080 On ch=11 n=46 v=95
95088 On ch=11 n=46 v=0
95088 On ch=11 n=46 v=95
95096 On ch=11 n=46 v=0
95096 On ch=11 n=46 v=95
95104 On ch=11 n=46 v=0
95104 On ch=11 n=46 v=95
95108 Par ch=11 c=11 v=19
95112 On ch=11 n=46 v=0
95112 On ch=11 n=46 v=95
95120 On ch=11 n=46 v=0
95120 On ch=11 n=46 v=95
95128 On ch=11 n=46 v=0
95128 On ch=11 n=46 v=95
95136 On ch=11 n=46 v=0
95136 On ch=11 n=46 v=95
95140 Par ch=11 c=11 v=18
95144 On ch=11 n=46 v=0
95144 On ch=11 n=46 v=95
95152 On ch=11 n=46 v=0
95152 On ch=11 n=46 v=95
95160 On ch=11 n=46 v=0
95160 On ch=11 n=46 v=95
95168 On ch=11 n=46 v=0
95168 On ch=11 n=46 v=95
95172 Par ch=11 c=11 v=17
95176 On ch=11 n=46 v=0
95176 On ch=11 n=46 v=95
95184 On ch=11 n=46 v=0
95184 On ch=11 n=46 v=95
95192 On ch=11 n=46 v=0
95192 On ch=11 n=46 v=95
95200 On ch=11 n=46 v=0
95200 On ch=11 n=46 v=95
95204 Par ch=11 c=11 v=16
95208 On ch=11 n=46 v=0
95208 On ch=11 n=46 v=95
95216 On ch=11 n=46 v=0
95216 On ch=11 n=46 v=95
95224 On ch=11 n=46 v=0
95224 On ch=11 n=46 v=95
95232 On ch=11 n=46 v=0
95232 On ch=11 n=46 v=95
95240 On ch=11 n=46 v=0
95240 On ch=11 n=46 v=95
95248 On ch=11 n=46 v=0
95248 On ch=11 n=46 v=95
95256 On ch=11 n=46 v=0
95256 On ch=11 n=46 v=95
95264 On ch=11 n=46 v=0
95264 On ch=11 n=46 v=95
95272 On ch=11 n=46 v=0
95272 On ch=11 n=46 v=95
95280 On ch=11 n=46 v=0
95280 On ch=11 n=46 v=95
95288 On ch=11 n=46 v=0
95288 On ch=11 n=46 v=95
95296 On ch=11 n=46 v=0
95296 On ch=11 n=46 v=95
95304 On ch=11 n=46 v=0
95304 On ch=11 n=46 v=95
95312 On ch=11 n=46 v=0
95312 On ch=11 n=46 v=95
95320 On ch=11 n=46 v=0
95320 On ch=11 n=46 v=95
95328 On ch=11 n=46 v=0
95328 On ch=11 n=46 v=95
95336 On ch=11 n=46 v=0
95336 On ch=11 n=46 v=95
95344 On ch=11 n=46 v=0
95344 On ch=11 n=46 v=95
95352 On ch=11 n=46 v=0
95352 On ch=11 n=46 v=95
95360 On ch=11 n=46 v=0
95360 On ch=11 n=46 v=95
95368 On ch=11 n=46 v=0
95368 On ch=11 n=46 v=95
95376 On ch=11 n=46 v=0
95376 On ch=11 n=46 v=95
95384 On ch=11 n=46 v=0
95384 On ch=11 n=46 v=95
95392 On ch=11 n=46 v=0
95392 On ch=11 n=46 v=95
95400 On ch=11 n=46 v=0
95400 On ch=11 n=46 v=95
95408 On ch=11 n=46 v=0
95408 On ch=11 n=46 v=95
95416 On ch=11 n=46 v=0
95416 On ch=11 n=46 v=95
95424 On ch=11 n=46 v=0
95424 On ch=11 n=46 v=95
95432 On ch=11 n=46 v=0
95432 On ch=11 n=46 v=95
95440 On ch=11 n=46 v=0
95440 On ch=11 n=46 v=95
95448 On ch=11 n=46 v=0
95448 On ch=11 n=46 v=95
95456 On ch=11 n=46 v=0
95456 On ch=11 n=46 v=95
95464 On ch=11 n=46 v=0
95464 On ch=11 n=46 v=95
95472 On ch=11 n=46 v=0
95472 On ch=11 n=46 v=95
95480 On ch=11 n=46 v=0
95480 On ch=11 n=46 v=95
95488 On ch=11 n=46 v=0
95488 On ch=11 n=46 v=95
95496 On ch=11 n=46 v=0
95496 On ch=11 n=46 v=95
95504 On ch=11 n=46 v=0
95504 On ch=11 n=46 v=95
95512 On ch=11 n=46 v=0
95512 On ch=11 n=46 v=95
95520 On ch=11 n=46 v=0
95520 On ch=11 n=46 v=95
95528 On ch=11 n=46 v=0
95528 On ch=11 n=46 v=95
95536 On ch=11 n=46 v=0
95536 On ch=11 n=46 v=95
95544 On ch=11 n=46 v=0
95544 On ch=11 n=46 v=95
95552 On ch=11 n=46 v=0
95552 On ch=11 n=46 v=95
95560 On ch=11 n=46 v=0
95560 On ch=11 n=46 v=95
95568 On ch=11 n=46 v=0
95568 On ch=11 n=46 v=95
95576 On ch=11 n=46 v=0
95576 On ch=11 n=46 v=95
95584 On ch=11 n=46 v=0
95584 On ch=11 n=46 v=95
95592 On ch=11 n=46 v=0
95592 On ch=11 n=46 v=95
95600 On ch=11 n=46 v=0
95600 On ch=11 n=46 v=95
95608 On ch=11 n=46 v=0
95608 On ch=11 n=46 v=95
95616 On ch=11 n=46 v=0
95616 On ch=11 n=46 v=95
95624 On ch=11 n=46 v=0
95624 On ch=11 n=46 v=95
95632 On ch=11 n=46 v=0
95632 On ch=11 n=46 v=95
95640 On ch=11 n=46 v=0
95640 On ch=11 n=46 v=95
95648 On ch=11 n=46 v=0
95648 On ch=11 n=46 v=95
95656 On ch=11 n=46 v=0
95656 On ch=11 n=46 v=95
95664 On ch=11 n=46 v=0
95664 On ch=11 n=46 v=95
95672 On ch=11 n=46 v=0
95672 On ch=11 n=46 v=95
95680 On ch=11 n=46 v=0
95680 On ch=11 n=46 v=95
95688 On ch=11 n=46 v=0
95688 On ch=11 n=46 v=95
95696 On ch=11 n=46 v=0
95696 On ch=11 n=46 v=95
95704 On ch=11 n=46 v=0
95704 On ch=11 n=46 v=95
95712 On ch=11 n=46 v=0
95712 On ch=11 n=46 v=95
95720 On ch=11 n=46 v=0
95720 On ch=11 n=46 v=95
95728 On ch=11 n=46 v=0
95728 On ch=11 n=46 v=95
95736 On ch=11 n=46 v=0
95736 On ch=11 n=46 v=95
95744 On ch=11 n=46 v=0
95744 On ch=11 n=46 v=95
95752 On ch=11 n=46 v=0
95752 On ch=11 n=46 v=95
95760 On ch=11 n=46 v=0
95760 On ch=11 n=46 v=95
95768 On ch=11 n=46 v=0
95768 On ch=11 n=46 v=95
95776 On ch=11 n=46 v=0
95776 On ch=11 n=46 v=95
95784 On ch=11 n=46 v=0
95784 On ch=11 n=46 v=95
95792 On ch=11 n=46 v=0
95792 On ch=11 n=46 v=95
95800 On ch=11 n=46 v=0
95800 On ch=11 n=46 v=95
95808 On ch=11 n=46 v=0
95808 On ch=11 n=46 v=95
95816 On ch=11 n=46 v=0
95816 On ch=11 n=46 v=95
95824 On ch=11 n=46 v=0
95824 On ch=11 n=46 v=95
95832 On ch=11 n=46 v=0
95832 On ch=11 n=46 v=95
95840 On ch=11 n=46 v=0
95840 On ch=11 n=46 v=95
95848 On ch=11 n=46 v=0
95848 On ch=11 n=46 v=95
95856 On ch=11 n=46 v=0
95856 On ch=11 n=46 v=95
95864 On ch=11 n=46 v=0
95864 On ch=11 n=46 v=95
95872 On ch=11 n=46 v=0
95872 On ch=11 n=46 v=95
95880 On ch=11 n=46 v=0
95880 On ch=11 n=46 v=95
95888 On ch=11 n=46 v=0
95888 On ch=11 n=46 v=95
95896 On ch=11 n=46 v=0
95896 On ch=11 n=46 v=95
95904 On ch=11 n=46 v=0
95904 On ch=11 n=46 v=95
95912 On ch=11 n=46 v=0
95912 On ch=11 n=46 v=95
95920 On ch=11 n=46 v=0
95920 On ch=11 n=46 v=95
95928 On ch=11 n=46 v=0
95928 On ch=11 n=46 v=95
95936 On ch=11 n=46 v=0
95936 On ch=11 n=46 v=95
95944 On ch=11 n=46 v=0
95944 On ch=11 n=46 v=95
95952 On ch=11 n=46 v=0
95952 On ch=11 n=46 v=95
95960 On ch=11 n=46 v=0
95960 On ch=11 n=46 v=95
95968 On ch=11 n=46 v=0
95968 On ch=11 n=46 v=95
95976 On ch=11 n=46 v=0
95976 On ch=11 n=46 v=95
95984 On ch=11 n=46 v=0
95984 On ch=11 n=46 v=95
95992 On ch=11 n=46 v=0
95992 On ch=11 n=46 v=95
96000 On ch=11 n=46 v=0
96000 On ch=11 n=46 v=95
96008 On ch=11 n=46 v=0
96008 On ch=11 n=46 v=95
96016 On ch=11 n=46 v=0
96016 On ch=11 n=46 v=95
96024 On ch=11 n=46 v=0
96024 On ch=11 n=46 v=95
96032 On ch=11 n=46 v=0
96032 On ch=11 n=46 v=95
96036 Par ch=11 c=11 v=16
96040 On ch=11 n=46 v=0
96040 On ch=11 n=46 v=95
96048 On ch=11 n=46 v=0
96048 On ch=11 n=46 v=95
96056 On ch=11 n=46 v=0
96056 On ch=11 n=46 v=95
96064 On ch=11 n=46 v=0
96064 On ch=11 n=46 v=95
96072 On ch=11 n=46 v=0
96072 Par ch=11 c=11 v=15
96072 On ch=11 n=46 v=95
96080 On ch=11 n=46 v=0
96080 On ch=11 n=46 v=95
96088 On ch=11 n=46 v=0
96088 On ch=11 n=46 v=95
96096 On ch=11 n=46 v=0
96096 On ch=11 n=46 v=95
96104 On ch=11 n=46 v=0
96104 On ch=11 n=46 v=95
96108 Par ch=11 c=11 v=14
96112 On ch=11 n=46 v=0
96112 On ch=11 n=46 v=95
96120 On ch=11 n=46 v=0
96120 On ch=11 n=46 v=95
96128 On ch=11 n=46 v=0
96128 On ch=11 n=46 v=95
96136 On ch=11 n=46 v=0
96136 On ch=11 n=46 v=95
96140 Par ch=11 c=11 v=13
96144 On ch=11 n=46 v=0
96144 On ch=11 n=46 v=95
96152 On ch=11 n=46 v=0
96152 On ch=11 n=46 v=95
96160 On ch=11 n=46 v=0
96160 On ch=11 n=46 v=95
96168 On ch=11 n=46 v=0
96168 On ch=11 n=46 v=95
96176 On ch=11 n=46 v=0
96176 Par ch=11 c=11 v=12
96176 On ch=11 n=46 v=95
96184 On ch=11 n=46 v=0
96184 On ch=11 n=46 v=95
96192 On ch=11 n=46 v=0
96192 On ch=11 n=46 v=95
96200 On ch=11 n=46 v=0
96200 On ch=11 n=46 v=95
96208 On ch=11 n=46 v=0
96208 On ch=11 n=46 v=95
96212 Par ch=11 c=11 v=11
96216 On ch=11 n=46 v=0
96216 On ch=11 n=46 v=95
96224 On ch=11 n=46 v=0
96224 On ch=11 n=46 v=95
96232 On ch=11 n=46 v=0
96232 On ch=11 n=46 v=95
96240 On ch=11 n=46 v=0
96240 On ch=11 n=46 v=95
96248 On ch=11 n=46 v=0
96248 Par ch=11 c=11 v=10
96248 On ch=11 n=46 v=95
96256 On ch=11 n=46 v=0
96256 On ch=11 n=46 v=95
96264 On ch=11 n=46 v=0
96264 On ch=11 n=46 v=95
96272 On ch=11 n=46 v=0
96272 On ch=11 n=46 v=95
96280 On ch=11 n=46 v=0
96280 Par ch=11 c=11 v=9
96280 On ch=11 n=46 v=95
96288 On ch=11 n=46 v=0
96288 On ch=11 n=46 v=95
96296 On ch=11 n=46 v=0
96296 On ch=11 n=46 v=95
96304 On ch=11 n=46 v=0
96304 On ch=11 n=46 v=95
96312 On ch=11 n=46 v=0
96312 On ch=11 n=46 v=95
96316 Par ch=11 c=11 v=8
96320 On ch=11 n=46 v=0
96320 On ch=11 n=46 v=95
96328 On ch=11 n=46 v=0
96328 On ch=11 n=46 v=95
96336 On ch=11 n=46 v=0
96336 On ch=11 n=46 v=95
96344 On ch=11 n=46 v=0
96344 On ch=11 n=46 v=95
96352 On ch=11 n=46 v=0
96352 On ch=11 n=46 v=95
96360 On ch=11 n=46 v=0
96360 On ch=11 n=46 v=95
96368 On ch=11 n=46 v=0
96368 On ch=11 n=46 v=95
96376 On ch=11 n=46 v=0
96376 On ch=11 n=46 v=95
96384 On ch=11 n=46 v=0
96384 On ch=11 n=46 v=95
96392 On ch=11 n=46 v=0
96392 On ch=11 n=46 v=95
96400 On ch=11 n=46 v=0
96400 On ch=11 n=46 v=95
96408 On ch=11 n=46 v=0
96408 On ch=11 n=46 v=95
96416 On ch=11 n=46 v=0
96416 On ch=11 n=46 v=95
96424 On ch=11 n=46 v=0
96424 On ch=11 n=46 v=95
96432 On ch=11 n=46 v=0
96432 On ch=11 n=46 v=95
96440 On ch=11 n=46 v=0
96440 On ch=11 n=46 v=95
96448 On ch=11 n=46 v=0
96448 On ch=11 n=46 v=95
96456 On ch=11 n=46 v=0
96456 On ch=11 n=46 v=95
96464 On ch=11 n=46 v=0
96464 On ch=11 n=46 v=95
96472 On ch=11 n=46 v=0
96472 On ch=11 n=46 v=95
96480 On ch=11 n=46 v=0
96480 On ch=11 n=46 v=95
96488 On ch=11 n=46 v=0
96488 On ch=11 n=46 v=95
96496 On ch=11 n=46 v=0
96496 On ch=11 n=46 v=95
96504 On ch=11 n=46 v=0
96504 On ch=11 n=46 v=95
96512 On ch=11 n=46 v=0
96512 On ch=11 n=46 v=95
96520 On ch=11 n=46 v=0
96520 On ch=11 n=46 v=95
96528 On ch=11 n=46 v=0
96528 On ch=11 n=46 v=95
96536 On ch=11 n=46 v=0
96536 On ch=11 n=46 v=95
96544 On ch=11 n=46 v=0
96544 On ch=11 n=46 v=95
96552 On ch=11 n=46 v=0
96552 On ch=11 n=46 v=95
96560 On ch=11 n=46 v=0
96560 On ch=11 n=46 v=95
96568 On ch=11 n=46 v=0
96568 On ch=11 n=46 v=95
96576 On ch=11 n=46 v=0
96576 On ch=11 n=46 v=95
96584 On ch=11 n=46 v=0
96584 On ch=11 n=46 v=95
96592 On ch=11 n=46 v=0
96592 On ch=11 n=46 v=95
96600 On ch=11 n=46 v=0
96600 On ch=11 n=46 v=95
96608 On ch=11 n=46 v=0
96608 On ch=11 n=46 v=95
96616 On ch=11 n=46 v=0
96616 On ch=11 n=46 v=95
96624 On ch=11 n=46 v=0
96624 On ch=11 n=46 v=95
96632 On ch=11 n=46 v=0
96632 On ch=11 n=46 v=95
96640 On ch=11 n=46 v=0
96640 On ch=11 n=46 v=95
96648 On ch=11 n=46 v=0
96648 On ch=11 n=46 v=95
96656 On ch=11 n=46 v=0
96656 On ch=11 n=46 v=95
96664 On ch=11 n=46 v=0
96664 On ch=11 n=46 v=95
96672 On ch=11 n=46 v=0
96672 On ch=11 n=46 v=95
96680 On ch=11 n=46 v=0
96680 On ch=11 n=46 v=95
96688 On ch=11 n=46 v=0
96688 On ch=11 n=46 v=95
96696 On ch=11 n=46 v=0
96696 On ch=11 n=46 v=95
96704 On ch=11 n=46 v=0
96704 On ch=11 n=46 v=95
96712 On ch=11 n=46 v=0
96712 On ch=11 n=46 v=95
96720 On ch=11 n=46 v=0
96720 On ch=11 n=46 v=95
96728 On ch=11 n=46 v=0
96728 On ch=11 n=46 v=95
96736 On ch=11 n=46 v=0
96736 On ch=11 n=46 v=95
96744 On ch=11 n=46 v=0
96744 On ch=11 n=46 v=95
96752 On ch=11 n=46 v=0
96752 On ch=11 n=46 v=95
96760 On ch=11 n=46 v=0
96760 On ch=11 n=46 v=95
96768 On ch=11 n=46 v=0
96768 On ch=11 n=46 v=95
96776 On ch=11 n=46 v=0
96776 On ch=11 n=46 v=95
96784 On ch=11 n=46 v=0
96784 On ch=11 n=46 v=95
96792 On ch=11 n=46 v=0
96792 On ch=11 n=46 v=95
96800 On ch=11 n=46 v=0
96800 On ch=11 n=46 v=95
96808 On ch=11 n=46 v=0
96808 On ch=11 n=46 v=95
96816 On ch=11 n=46 v=0
96816 On ch=11 n=46 v=95
96824 On ch=11 n=46 v=0
96824 On ch=11 n=46 v=95
96832 On ch=11 n=46 v=0
96832 On ch=11 n=46 v=95
96840 On ch=11 n=46 v=0
96840 On ch=11 n=46 v=95
96848 On ch=11 n=46 v=0
96848 On ch=11 n=46 v=95
96856 On ch=11 n=46 v=0
96856 On ch=11 n=46 v=95
96864 On ch=11 n=46 v=0
96864 On ch=11 n=46 v=95
96872 On ch=11 n=46 v=0
96872 On ch=11 n=46 v=95
96880 On ch=11 n=46 v=0
96880 On ch=11 n=46 v=95
96888 On ch=11 n=46 v=0
96888 On ch=11 n=46 v=95
96896 On ch=11 n=46 v=0
96896 On ch=11 n=46 v=95
96904 On ch=11 n=46 v=0
96904 On ch=11 n=46 v=95
96912 On ch=11 n=46 v=0
96912 On ch=11 n=46 v=95
96920 On ch=11 n=46 v=0
96920 On ch=11 n=46 v=95
96928 On ch=11 n=46 v=0
96928 On ch=11 n=46 v=95
96936 On ch=11 n=46 v=0
96936 On ch=11 n=46 v=95
96944 On ch=11 n=46 v=0
96944 On ch=11 n=46 v=95
96952 On ch=11 n=46 v=0
96952 On ch=11 n=46 v=95
96960 On ch=11 n=46 v=0
96960 On ch=11 n=46 v=95
96968 On ch=11 n=46 v=0
96968 On ch=11 n=46 v=95
96976 On ch=11 n=46 v=0
96976 On ch=11 n=46 v=95
96984 On ch=11 n=46 v=0
96984 On ch=11 n=46 v=95
96992 On ch=11 n=46 v=0
96992 On ch=11 n=46 v=95
97000 On ch=11 n=46 v=0
97000 On ch=11 n=46 v=95
97008 On ch=11 n=46 v=0
97008 On ch=11 n=46 v=95
97016 On ch=11 n=46 v=0
97016 On ch=11 n=46 v=95
97024 On ch=11 n=46 v=0
97024 On ch=11 n=46 v=95
97032 On ch=11 n=46 v=0
97032 On ch=11 n=46 v=95
97040 On ch=11 n=46 v=0
97040 On ch=11 n=46 v=95
97048 On ch=11 n=46 v=0
97048 On ch=11 n=46 v=95
97056 On ch=11 n=46 v=0
97056 On ch=11 n=46 v=95
97064 On ch=11 n=46 v=0
97064 On ch=11 n=46 v=95
97072 On ch=11 n=46 v=0
97072 On ch=11 n=46 v=95
97080 On ch=11 n=46 v=0
97080 On ch=11 n=46 v=95
97088 On ch=11 n=46 v=0
97088 On ch=11 n=46 v=95
97096 On ch=11 n=46 v=0
97096 On ch=11 n=46 v=95
97104 On ch=11 n=46 v=0
97104 On ch=11 n=46 v=95
97112 On ch=11 n=46 v=0
97112 On ch=11 n=46 v=95
97120 On ch=11 n=46 v=0
97120 On ch=11 n=46 v=95
97128 On ch=11 n=46 v=0
97128 On ch=11 n=46 v=95
97136 On ch=11 n=46 v=0
97136 On ch=11 n=46 v=95
97144 On ch=11 n=46 v=0
97144 On ch=11 n=46 v=95
97152 On ch=11 n=46 v=0
97536 Par ch=11 c=11 v=64
111744 Par ch=11 c=11 v=64
111744 On ch=11 n=46 v=111
111752 On ch=11 n=46 v=0
111752 On ch=11 n=46 v=111
111756 Par ch=11 c=11 v=63
111760 On ch=11 n=46 v=0
111760 On ch=11 n=46 v=111
111768 On ch=11 n=46 v=0
111768 Par ch=11 c=11 v=62
111768 On ch=11 n=46 v=111
111776 On ch=11 n=46 v=0
111776 On ch=11 n=46 v=111
111780 Par ch=11 c=11 v=61
111784 On ch=11 n=46 v=0
111784 On ch=11 n=46 v=111
111792 On ch=11 n=46 v=0
111792 Par ch=11 c=11 v=60
111792 On ch=11 n=46 v=111
111800 On ch=11 n=46 v=0
111800 On ch=11 n=46 v=111
111804 Par ch=11 c=11 v=59
111808 On ch=11 n=46 v=0
111808 On ch=11 n=46 v=111
111816 On ch=11 n=46 v=0
111816 Par ch=11 c=11 v=58
111816 On ch=11 n=46 v=111
111824 On ch=11 n=46 v=0
111824 On ch=11 n=46 v=111
111828 Par ch=11 c=11 v=57
111832 On ch=11 n=46 v=0
111832 On ch=11 n=46 v=111
111840 On ch=11 n=46 v=0
111840 Par ch=11 c=11 v=56
111840 On ch=11 n=46 v=111
111848 On ch=11 n=46 v=0
111848 On ch=11 n=46 v=111
111852 Par ch=11 c=11 v=55
111856 On ch=11 n=46 v=0
111856 On ch=11 n=46 v=111
111864 On ch=11 n=46 v=0
111864 Par ch=11 c=11 v=54
111864 On ch=11 n=46 v=111
111872 On ch=11 n=46 v=0
111872 On ch=11 n=46 v=111
111876 Par ch=11 c=11 v=53
111880 On ch=11 n=46 v=0
111880 On ch=11 n=46 v=111
111888 On ch=11 n=46 v=0
111888 Par ch=11 c=11 v=52
111888 On ch=11 n=46 v=111
111896 On ch=11 n=46 v=0
111896 On ch=11 n=46 v=111
111900 Par ch=11 c=11 v=51
111904 On ch=11 n=46 v=0
111904 On ch=11 n=46 v=111
111912 On ch=11 n=46 v=0
111912 Par ch=11 c=11 v=50
111912 On ch=11 n=46 v=111
111920 On ch=11 n=46 v=0
111920 On ch=11 n=46 v=111
111924 Par ch=11 c=11 v=49
111928 On ch=11 n=46 v=0
111928 On ch=11 n=46 v=111
111936 On ch=11 n=46 v=0
111936 Par ch=11 c=11 v=48
111936 On ch=11 n=46 v=111
111944 On ch=11 n=46 v=0
111944 Par ch=11 c=11 v=47
111944 On ch=11 n=46 v=111
111952 On ch=11 n=46 v=0
111952 On ch=11 n=46 v=111
111956 Par ch=11 c=11 v=46
111960 On ch=11 n=46 v=0
111960 On ch=11 n=46 v=111
111968 On ch=11 n=46 v=0
111968 Par ch=11 c=11 v=45
111968 On ch=11 n=46 v=111
111976 On ch=11 n=46 v=0
111976 On ch=11 n=46 v=111
111980 Par ch=11 c=11 v=44
111984 On ch=11 n=46 v=0
111984 On ch=11 n=46 v=111
111992 On ch=11 n=46 v=0
111992 Par ch=11 c=11 v=43
111992 On ch=11 n=46 v=111
112000 On ch=11 n=46 v=0
112000 On ch=11 n=46 v=111
112004 Par ch=11 c=11 v=42
112008 On ch=11 n=46 v=0
112008 On ch=11 n=46 v=111
112016 On ch=11 n=46 v=0
112016 Par ch=11 c=11 v=41
112016 On ch=11 n=46 v=111
112024 On ch=11 n=46 v=0
112024 On ch=11 n=46 v=111
112028 Par ch=11 c=11 v=40
112032 On ch=11 n=46 v=0
112032 On ch=11 n=46 v=111
112040 On ch=11 n=46 v=0
112040 Par ch=11 c=11 v=39
112040 On ch=11 n=46 v=111
112048 On ch=11 n=46 v=0
112048 On ch=11 n=46 v=111
112052 Par ch=11 c=11 v=38
112056 On ch=11 n=46 v=0
112056 On ch=11 n=46 v=111
112064 On ch=11 n=46 v=0
112064 Par ch=11 c=11 v=37
112064 On ch=11 n=46 v=111
112072 On ch=11 n=46 v=0
112072 On ch=11 n=46 v=111
112076 Par ch=11 c=11 v=36
112080 On ch=11 n=46 v=0
112080 On ch=11 n=46 v=111
112088 On ch=11 n=46 v=0
112088 Par ch=11 c=11 v=35
112088 On ch=11 n=46 v=111
112096 On ch=11 n=46 v=0
112096 On ch=11 n=46 v=111
112100 Par ch=11 c=11 v=34
112104 On ch=11 n=46 v=0
112104 On ch=11 n=46 v=111
112112 On ch=11 n=46 v=0
112112 Par ch=11 c=11 v=33
112112 On ch=11 n=46 v=111
112120 On ch=11 n=46 v=0
112120 On ch=11 n=46 v=111
112124 Par ch=11 c=11 v=32
112128 On ch=11 n=46 v=0
112128 On ch=11 n=46 v=111
112132 Par ch=11 c=11 v=31
112136 On ch=11 n=46 v=0
112136 On ch=11 n=46 v=111
112144 On ch=11 n=46 v=0
112144 Par ch=11 c=11 v=30
112144 On ch=11 n=46 v=111
112152 On ch=11 n=46 v=0
112152 On ch=11 n=46 v=111
112156 Par ch=11 c=11 v=29
112160 On ch=11 n=46 v=0
112160 On ch=11 n=46 v=111
112168 On ch=11 n=46 v=0
112168 Par ch=11 c=11 v=28
112168 On ch=11 n=46 v=111
112176 On ch=11 n=46 v=0
112176 On ch=11 n=46 v=111
112180 Par ch=11 c=11 v=27
112184 On ch=11 n=46 v=0
112184 On ch=11 n=46 v=111
112192 On ch=11 n=46 v=0
112192 Par ch=11 c=11 v=26
112192 On ch=11 n=46 v=111
112200 On ch=11 n=46 v=0
112200 On ch=11 n=46 v=111
112204 Par ch=11 c=11 v=25
112208 On ch=11 n=46 v=0
112208 On ch=11 n=46 v=111
112216 On ch=11 n=46 v=0
112216 Par ch=11 c=11 v=24
112216 On ch=11 n=46 v=111
112224 On ch=11 n=46 v=0
112224 On ch=11 n=46 v=111
112228 Par ch=11 c=11 v=23
112232 On ch=11 n=46 v=0
112232 On ch=11 n=46 v=111
112240 On ch=11 n=46 v=0
112240 Par ch=11 c=11 v=22
112240 On ch=11 n=46 v=111
112248 On ch=11 n=46 v=0
112248 On ch=11 n=46 v=111
112252 Par ch=11 c=11 v=21
112256 On ch=11 n=46 v=0
112256 On ch=11 n=46 v=111
112264 On ch=11 n=46 v=0
112264 Par ch=11 c=11 v=20
112264 On ch=11 n=46 v=111
112272 On ch=11 n=46 v=0
112272 On ch=11 n=46 v=111
112276 Par ch=11 c=11 v=19
112280 On ch=11 n=46 v=0
112280 On ch=11 n=46 v=111
112288 On ch=11 n=46 v=0
112288 Par ch=11 c=11 v=18
112288 On ch=11 n=46 v=111
112296 On ch=11 n=46 v=0
112296 On ch=11 n=46 v=111
112300 Par ch=11 c=11 v=17
112304 On ch=11 n=46 v=0
112304 On ch=11 n=46 v=111
112312 On ch=11 n=46 v=0
112312 Par ch=11 c=11 v=16
112312 On ch=11 n=46 v=111
112320 On ch=11 n=46 v=0
112512 Par ch=11 c=11 v=64
112512 On ch=11 n=46 v=111
112520 On ch=11 n=46 v=0
112520 On ch=11 n=46 v=111
112524 Par ch=11 c=11 v=63
112528 On ch=11 n=46 v=0
112528 On ch=11 n=46 v=111
112536 On ch=11 n=46 v=0
112536 Par ch=11 c=11 v=62
112536 On ch=11 n=46 v=111
112544 On ch=11 n=46 v=0
112544 On ch=11 n=46 v=111
112548 Par ch=11 c=11 v=61
112552 On ch=11 n=46 v=0
112552 On ch=11 n=46 v=111
112560 On ch=11 n=46 v=0
112560 Par ch=11 c=11 v=60
112560 On ch=11 n=46 v=111
112568 On ch=11 n=46 v=0
112568 On ch=11 n=46 v=111
112572 Par ch=11 c=11 v=59
112576 On ch=11 n=46 v=0
112576 On ch=11 n=46 v=111
112584 On ch=11 n=46 v=0
112584 Par ch=11 c=11 v=58
112584 On ch=11 n=46 v=111
112592 On ch=11 n=46 v=0
112592 On ch=11 n=46 v=111
112596 Par ch=11 c=11 v=57
112600 On ch=11 n=46 v=0
112600 On ch=11 n=46 v=111
112608 On ch=11 n=46 v=0
112608 Par ch=11 c=11 v=56
112608 On ch=11 n=46 v=111
112616 On ch=11 n=46 v=0
112616 On ch=11 n=46 v=111
112620 Par ch=11 c=11 v=55
112624 On ch=11 n=46 v=0
112624 On ch=11 n=46 v=111
112632 On ch=11 n=46 v=0
112632 Par ch=11 c=11 v=54
112632 On ch=11 n=46 v=111
112640 On ch=11 n=46 v=0
112640 On ch=11 n=46 v=111
112644 Par ch=11 c=11 v=53
112648 On ch=11 n=46 v=0
112648 On ch=11 n=46 v=111
112656 On ch=11 n=46 v=0
112656 Par ch=11 c=11 v=52
112656 On ch=11 n=46 v=111
112664 On ch=11 n=46 v=0
112664 On ch=11 n=46 v=111
112668 Par ch=11 c=11 v=51
112672 On ch=11 n=46 v=0
112672 On ch=11 n=46 v=111
112680 On ch=11 n=46 v=0
112680 Par ch=11 c=11 v=50
112680 On ch=11 n=46 v=111
112688 On ch=11 n=46 v=0
112688 On ch=11 n=46 v=111
112692 Par ch=11 c=11 v=49
112696 On ch=11 n=46 v=0
112696 On ch=11 n=46 v=111
112704 On ch=11 n=46 v=0
112704 Par ch=11 c=11 v=48
112704 On ch=11 n=46 v=111
112712 On ch=11 n=46 v=0
112712 Par ch=11 c=11 v=47
112712 On ch=11 n=46 v=111
112720 On ch=11 n=46 v=0
112720 On ch=11 n=46 v=111
112724 Par ch=11 c=11 v=46
112728 On ch=11 n=46 v=0
112728 On ch=11 n=46 v=111
112736 On ch=11 n=46 v=0
112736 Par ch=11 c=11 v=45
112736 On ch=11 n=46 v=111
112744 On ch=11 n=46 v=0
112744 On ch=11 n=46 v=111
112748 Par ch=11 c=11 v=44
112752 On ch=11 n=46 v=0
112752 On ch=11 n=46 v=111
112760 On ch=11 n=46 v=0
112760 Par ch=11 c=11 v=43
112760 On ch=11 n=46 v=111
112768 On ch=11 n=46 v=0
112768 On ch=11 n=46 v=111
112772 Par ch=11 c=11 v=42
112776 On ch=11 n=46 v=0
112776 On ch=11 n=46 v=111
112784 On ch=11 n=46 v=0
112784 Par ch=11 c=11 v=41
112784 On ch=11 n=46 v=111
112792 On ch=11 n=46 v=0
112792 On ch=11 n=46 v=111
112796 Par ch=11 c=11 v=40
112800 On ch=11 n=46 v=0
112800 On ch=11 n=46 v=111
112808 On ch=11 n=46 v=0
112808 Par ch=11 c=11 v=39
112808 On ch=11 n=46 v=111
112816 On ch=11 n=46 v=0
112816 On ch=11 n=46 v=111
112820 Par ch=11 c=11 v=38
112824 On ch=11 n=46 v=0
112824 On ch=11 n=46 v=111
112832 On ch=11 n=46 v=0
112832 Par ch=11 c=11 v=37
112832 On ch=11 n=46 v=111
112840 On ch=11 n=46 v=0
112840 On ch=11 n=46 v=111
112844 Par ch=11 c=11 v=36
112848 On ch=11 n=46 v=0
112848 On ch=11 n=46 v=111
112856 On ch=11 n=46 v=0
112856 Par ch=11 c=11 v=35
112856 On ch=11 n=46 v=111
112864 On ch=11 n=46 v=0
112864 On ch=11 n=46 v=111
112868 Par ch=11 c=11 v=34
112872 On ch=11 n=46 v=0
112872 On ch=11 n=46 v=111
112880 On ch=11 n=46 v=0
112880 Par ch=11 c=11 v=33
112880 On ch=11 n=46 v=111
112888 On ch=11 n=46 v=0
112888 On ch=11 n=46 v=111
112892 Par ch=11 c=11 v=32
112896 On ch=11 n=46 v=0
112896 On ch=11 n=46 v=111
112900 Par ch=11 c=11 v=31
112904 On ch=11 n=46 v=0
112904 On ch=11 n=46 v=111
112912 On ch=11 n=46 v=0
112912 Par ch=11 c=11 v=30
112912 On ch=11 n=46 v=111
112920 On ch=11 n=46 v=0
112920 On ch=11 n=46 v=111
112924 Par ch=11 c=11 v=29
112928 On ch=11 n=46 v=0
112928 On ch=11 n=46 v=111
112936 On ch=11 n=46 v=0
112936 Par ch=11 c=11 v=28
112936 On ch=11 n=46 v=111
112944 On ch=11 n=46 v=0
112944 On ch=11 n=46 v=111
112948 Par ch=11 c=11 v=27
112952 On ch=11 n=46 v=0
112952 On ch=11 n=46 v=111
112960 On ch=11 n=46 v=0
112960 Par ch=11 c=11 v=26
112960 On ch=11 n=46 v=111
112968 On ch=11 n=46 v=0
112968 On ch=11 n=46 v=111
112972 Par ch=11 c=11 v=25
112976 On ch=11 n=46 v=0
112976 On ch=11 n=46 v=111
112984 On ch=11 n=46 v=0
112984 Par ch=11 c=11 v=24
112984 On ch=11 n=46 v=111
112992 On ch=11 n=46 v=0
112992 On ch=11 n=46 v=111
112996 Par ch=11 c=11 v=23
113000 On ch=11 n=46 v=0
113000 On ch=11 n=46 v=111
113008 On ch=11 n=46 v=0
113008 Par ch=11 c=11 v=22
113008 On ch=11 n=46 v=111
113016 On ch=11 n=46 v=0
113016 On ch=11 n=46 v=111
113020 Par ch=11 c=11 v=21
113024 On ch=11 n=46 v=0
113024 On ch=11 n=46 v=111
113032 On ch=11 n=46 v=0
113032 Par ch=11 c=11 v=20
113032 On ch=11 n=46 v=111
113040 On ch=11 n=46 v=0
113040 On ch=11 n=46 v=111
113044 Par ch=11 c=11 v=19
113048 On ch=11 n=46 v=0
113048 On ch=11 n=46 v=111
113056 On ch=11 n=46 v=0
113056 Par ch=11 c=11 v=18
113056 On ch=11 n=46 v=111
113064 On ch=11 n=46 v=0
113064 On ch=11 n=46 v=111
113068 Par ch=11 c=11 v=17
113072 On ch=11 n=46 v=0
113072 On ch=11 n=46 v=111
113080 On ch=11 n=46 v=0
113080 Par ch=11 c=11 v=16
113080 On ch=11 n=46 v=111
113088 On ch=11 n=46 v=0
113280 Par ch=11 c=11 v=64
113280 On ch=11 n=46 v=111
113318 On ch=11 n=46 v=0
114048 On ch=11 n=46 v=111
114125 On ch=11 n=46 v=0
114432 Par ch=11 c=11 v=64
114432 On ch=11 n=46 v=111
114440 On ch=11 n=46 v=0
114440 Par ch=11 c=11 v=63
114440 On ch=11 n=46 v=111
114444 Par ch=11 c=11 v=62
114448 On ch=11 n=46 v=0
114448 On ch=11 n=46 v=111
114452 Par ch=11 c=11 v=61
114456 On ch=11 n=46 v=0
114456 Par ch=11 c=11 v=60
114456 On ch=11 n=46 v=111
114464 On ch=11 n=46 v=0
114464 Par ch=11 c=11 v=59
114464 On ch=11 n=46 v=111
114468 Par ch=11 c=11 v=58
114472 On ch=11 n=46 v=0
114472 On ch=11 n=46 v=111
114476 Par ch=11 c=11 v=57
114480 On ch=11 n=46 v=0
114480 Par ch=11 c=11 v=56
114480 On ch=11 n=46 v=111
114488 On ch=11 n=46 v=0
114488 Par ch=11 c=11 v=55
114488 On ch=11 n=46 v=111
114492 Par ch=11 c=11 v=54
114496 On ch=11 n=46 v=0
114496 On ch=11 n=46 v=111
114500 Par ch=11 c=11 v=53
114504 On ch=11 n=46 v=0
114504 Par ch=11 c=11 v=52
114504 On ch=11 n=46 v=111
114512 On ch=11 n=46 v=0
114512 Par ch=11 c=11 v=51
114512 On ch=11 n=46 v=111
114516 Par ch=11 c=11 v=50
114520 On ch=11 n=46 v=0
114520 On ch=11 n=46 v=111
114524 Par ch=11 c=11 v=49
114528 On ch=11 n=46 v=0
114528 Par ch=11 c=11 v=48
114528 On ch=11 n=46 v=111
114532 Par ch=11 c=11 v=47
114536 On ch=11 n=46 v=0
114536 On ch=11 n=46 v=111
114540 Par ch=11 c=11 v=46
114544 On ch=11 n=46 v=0
114544 Par ch=11 c=11 v=45
114544 On ch=11 n=46 v=111
114552 On ch=11 n=46 v=0
114552 Par ch=11 c=11 v=44
114552 On ch=11 n=46 v=111
114556 Par ch=11 c=11 v=43
114560 On ch=11 n=46 v=0
114560 On ch=11 n=46 v=111
114564 Par ch=11 c=11 v=42
114568 On ch=11 n=46 v=0
114568 Par ch=11 c=11 v=41
114568 On ch=11 n=46 v=111
114576 On ch=11 n=46 v=0
114576 Par ch=11 c=11 v=40
114576 On ch=11 n=46 v=111
114580 Par ch=11 c=11 v=39
114584 On ch=11 n=46 v=0
114584 On ch=11 n=46 v=111
114588 Par ch=11 c=11 v=38
114592 On ch=11 n=46 v=0
114592 Par ch=11 c=11 v=37
114592 On ch=11 n=46 v=111
114600 On ch=11 n=46 v=0
114600 Par ch=11 c=11 v=36
114600 On ch=11 n=46 v=111
114604 Par ch=11 c=11 v=35
114608 On ch=11 n=46 v=0
114608 On ch=11 n=46 v=111
114612 Par ch=11 c=11 v=34
114616 On ch=11 n=46 v=0
114616 Par ch=11 c=11 v=33
114616 On ch=11 n=46 v=111
114624 On ch=11 n=46 v=0
114624 Par ch=11 c=11 v=32
114624 On ch=11 n=46 v=111
114628 Par ch=11 c=11 v=31
114632 On ch=11 n=46 v=0
114632 Par ch=11 c=11 v=30
114632 On ch=11 n=46 v=111
114640 On ch=11 n=46 v=0
114640 Par ch=11 c=11 v=29
114640 On ch=11 n=46 v=111
114644 Par ch=11 c=11 v=28
114648 On ch=11 n=46 v=0
114648 On ch=11 n=46 v=111
114652 Par ch=11 c=11 v=27
114656 On ch=11 n=46 v=0
114656 Par ch=11 c=11 v=26
114656 On ch=11 n=46 v=111
114664 On ch=11 n=46 v=0
114664 Par ch=11 c=11 v=25
114664 On ch=11 n=46 v=111
114668 Par ch=11 c=11 v=24
114672 On ch=11 n=46 v=0
114672 On ch=11 n=46 v=111
114676 Par ch=11 c=11 v=23
114680 On ch=11 n=46 v=0
114680 Par ch=11 c=11 v=22
114680 On ch=11 n=46 v=111
114688 On ch=11 n=46 v=0
114688 Par ch=11 c=11 v=21
114688 On ch=11 n=46 v=111
114692 Par ch=11 c=11 v=20
114696 On ch=11 n=46 v=0
114696 On ch=11 n=46 v=111
114700 Par ch=11 c=11 v=19
114704 On ch=11 n=46 v=0
114704 Par ch=11 c=11 v=18
114704 On ch=11 n=46 v=111
114712 On ch=11 n=46 v=0
114712 Par ch=11 c=11 v=17
114712 On ch=11 n=46 v=111
114716 Par ch=11 c=11 v=16
114720 On ch=11 n=46 v=0
114816 On ch=11 n=46 v=111
114824 On ch=11 n=46 v=0
114824 Par ch=11 c=11 v=16
114824 On ch=11 n=46 v=111
114832 On ch=11 n=46 v=0
114832 Par ch=11 c=11 v=17
114832 On ch=11 n=46 v=111
114840 On ch=11 n=46 v=0
114840 Par ch=11 c=11 v=18
114840 On ch=11 n=46 v=111
114848 On ch=11 n=46 v=0
114848 Par ch=11 c=11 v=19
114848 On ch=11 n=46 v=111
114856 On ch=11 n=46 v=0
114856 Par ch=11 c=11 v=20
114856 On ch=11 n=46 v=111
114864 On ch=11 n=46 v=0
114864 Par ch=11 c=11 v=21
114864 On ch=11 n=46 v=111
114872 On ch=11 n=46 v=0
114872 Par ch=11 c=11 v=22
114872 On ch=11 n=46 v=111
114880 On ch=11 n=46 v=0
114880 Par ch=11 c=11 v=23
114880 On ch=11 n=46 v=111
114888 On ch=11 n=46 v=0
114888 Par ch=11 c=11 v=24
114888 On ch=11 n=46 v=111
114896 On ch=11 n=46 v=0
114896 Par ch=11 c=11 v=25
114896 On ch=11 n=46 v=111
114904 On ch=11 n=46 v=0
114904 Par ch=11 c=11 v=26
114904 On ch=11 n=46 v=111
114912 On ch=11 n=46 v=0
114912 Par ch=11 c=11 v=27
114912 On ch=11 n=46 v=111
114916 Par ch=11 c=11 v=28
114920 On ch=11 n=46 v=0
114920 On ch=11 n=46 v=111
114924 Par ch=11 c=11 v=29
114928 On ch=11 n=46 v=0
114928 On ch=11 n=46 v=111
114932 Par ch=11 c=11 v=30
114936 On ch=11 n=46 v=0
114936 On ch=11 n=46 v=111
114940 Par ch=11 c=11 v=31
114944 On ch=11 n=46 v=0
114944 On ch=11 n=46 v=111
114948 Par ch=11 c=11 v=32
114952 On ch=11 n=46 v=0
114952 On ch=11 n=46 v=111
114956 Par ch=11 c=11 v=33
114960 On ch=11 n=46 v=0
114960 On ch=11 n=46 v=111
114964 Par ch=11 c=11 v=34
114968 On ch=11 n=46 v=0
114968 On ch=11 n=46 v=111
114972 Par ch=11 c=11 v=35
114976 On ch=11 n=46 v=0
114976 On ch=11 n=46 v=111
114980 Par ch=11 c=11 v=36
114984 On ch=11 n=46 v=0
114984 On ch=11 n=46 v=111
114988 Par ch=11 c=11 v=37
114992 On ch=11 n=46 v=0
114992 On ch=11 n=46 v=111
114996 Par ch=11 c=11 v=38
115000 On ch=11 n=46 v=0
115000 On ch=11 n=46 v=111
115004 Par ch=11 c=11 v=39
115008 On ch=11 n=46 v=0
115008 Par ch=11 c=11 v=40
115008 On ch=11 n=46 v=111
115016 On ch=11 n=46 v=0
115016 Par ch=11 c=11 v=41
115016 On ch=11 n=46 v=111
115024 On ch=11 n=46 v=0
115024 Par ch=11 c=11 v=42
115024 On ch=11 n=46 v=111
115032 On ch=11 n=46 v=0
115032 Par ch=11 c=11 v=43
115032 On ch=11 n=46 v=111
115040 On ch=11 n=46 v=0
115040 Par ch=11 c=11 v=44
115040 On ch=11 n=46 v=111
115048 On ch=11 n=46 v=0
115048 Par ch=11 c=11 v=45
115048 On ch=11 n=46 v=111
115056 On ch=11 n=46 v=0
115056 Par ch=11 c=11 v=46
115056 On ch=11 n=46 v=111
115064 On ch=11 n=46 v=0
115064 Par ch=11 c=11 v=47
115064 On ch=11 n=46 v=111
115072 On ch=11 n=46 v=0
115072 Par ch=11 c=11 v=48
115072 On ch=11 n=46 v=111
115080 On ch=11 n=46 v=0
115080 Par ch=11 c=11 v=49
115080 On ch=11 n=46 v=111
115088 On ch=11 n=46 v=0
115088 Par ch=11 c=11 v=50
115088 On ch=11 n=46 v=111
115096 On ch=11 n=46 v=0
115096 Par ch=11 c=11 v=51
115096 On ch=11 n=46 v=111
115104 On ch=11 n=46 v=0
115104 Par ch=11 c=11 v=52
115104 On ch=11 n=46 v=111
115108 Par ch=11 c=11 v=53
115112 On ch=11 n=46 v=0
115112 On ch=11 n=46 v=111
115116 Par ch=11 c=11 v=54
115120 On ch=11 n=46 v=0
115120 On ch=11 n=46 v=111
115124 Par ch=11 c=11 v=55
115128 On ch=11 n=46 v=0
115128 On ch=11 n=46 v=111
115132 Par ch=11 c=11 v=56
115136 On ch=11 n=46 v=0
115136 On ch=11 n=46 v=111
115140 Par ch=11 c=11 v=57
115144 On ch=11 n=46 v=0
115144 On ch=11 n=46 v=111
115148 Par ch=11 c=11 v=58
115152 On ch=11 n=46 v=0
115152 On ch=11 n=46 v=111
115156 Par ch=11 c=11 v=59
115160 On ch=11 n=46 v=0
115160 On ch=11 n=46 v=111
115164 Par ch=11 c=11 v=60
115168 On ch=11 n=46 v=0
115168 On ch=11 n=46 v=111
115172 Par ch=11 c=11 v=61
115176 On ch=11 n=46 v=0
115176 On ch=11 n=46 v=111
115180 Par ch=11 c=11 v=62
115184 On ch=11 n=46 v=0
115184 On ch=11 n=46 v=111
115188 Par ch=11 c=11 v=63
115192 On ch=11 n=46 v=0
115192 On ch=11 n=46 v=111
115196 Par ch=11 c=11 v=64
115200 On ch=11 n=46 v=0
115200 Par ch=11 c=11 v=64
115200 On ch=11 n=51 v=127
115204 Par ch=11 c=11 v=63
115208 Par ch=11 c=11 v=62
115212 Par ch=11 c=11 v=61
115216 Par ch=11 c=11 v=60
115220 Par ch=11 c=11 v=59
115224 Par ch=11 c=11 v=58
115226 On ch=11 n=51 v=0
115228 Par ch=11 c=11 v=57
115232 Par ch=11 c=11 v=56
115232 On ch=11 n=51 v=127
115236 Par ch=11 c=11 v=55
115240 Par ch=11 c=11 v=54
115244 Par ch=11 c=11 v=53
115248 Par ch=11 c=11 v=52
115252 Par ch=11 c=11 v=51
115256 Par ch=11 c=11 v=50
115258 On ch=11 n=51 v=0
115260 Par ch=11 c=11 v=49
115264 Par ch=11 c=11 v=48
115264 On ch=11 n=51 v=127
115290 On ch=11 n=51 v=0
115968 Par ch=11 c=11 v=64
115968 On ch=11 n=51 v=127
115972 Par ch=11 c=11 v=63
115976 Par ch=11 c=11 v=62
115980 Par ch=11 c=11 v=61
115984 Par ch=11 c=11 v=60
115988 Par ch=11 c=11 v=59
115992 Par ch=11 c=11 v=58
115994 On ch=11 n=51 v=0
115996 Par ch=11 c=11 v=57
116000 Par ch=11 c=11 v=56
116000 On ch=11 n=51 v=127
116004 Par ch=11 c=11 v=55
116008 Par ch=11 c=11 v=54
116012 Par ch=11 c=11 v=53
116016 Par ch=11 c=11 v=52
116020 Par ch=11 c=11 v=51
116024 Par ch=11 c=11 v=50
116026 On ch=11 n=51 v=0
116028 Par ch=11 c=11 v=49
116032 Par ch=11 c=11 v=48
116032 On ch=11 n=51 v=127
116058 On ch=11 n=51 v=0
116352 Par ch=11 c=11 v=64
116736 On ch=11 n=51 v=79
116762 On ch=11 n=51 v=0
116768 On ch=11 n=46 v=79
116794 On ch=11 n=46 v=0
116800 On ch=11 n=51 v=79
116826 On ch=11 n=51 v=0
116832 On ch=11 n=46 v=79
116858 On ch=11 n=46 v=0
116864 On ch=11 n=51 v=79
116890 On ch=11 n=51 v=0
116896 On ch=11 n=46 v=79
116922 On ch=11 n=46 v=0
116928 On ch=11 n=51 v=79
116954 On ch=11 n=51 v=0
116960 On ch=11 n=46 v=79
116986 On ch=11 n=46 v=0
116992 On ch=11 n=51 v=79
117018 On ch=11 n=51 v=0
117024 On ch=11 n=46 v=79
117050 On ch=11 n=46 v=0
117056 On ch=11 n=51 v=79
117082 On ch=11 n=51 v=0
117088 On ch=11 n=46 v=79
117114 On ch=11 n=46 v=0
117120 On ch=11 n=51 v=79
117146 On ch=11 n=51 v=0
117152 On ch=11 n=46 v=79
117178 On ch=11 n=46 v=0
117184 On ch=11 n=51 v=79
117210 On ch=11 n=51 v=0
117216 On ch=11 n=46 v=79
117242 On ch=11 n=46 v=0
117248 On ch=11 n=51 v=79
117274 On ch=11 n=51 v=0
117280 On ch=11 n=46 v=79
117306 On ch=11 n=46 v=0
117312 On ch=11 n=51 v=79
117338 On ch=11 n=51 v=0
117344 On ch=11 n=46 v=79
117370 On ch=11 n=46 v=0
117376 On ch=11 n=51 v=79
117402 On ch=11 n=51 v=0
117408 On ch=11 n=46 v=79
117434 On ch=11 n=46 v=0
117440 On ch=11 n=51 v=79
117466 On ch=11 n=51 v=0
117472 On ch=11 n=46 v=79
117498 On ch=11 n=46 v=0
117504 Par ch=11 c=11 v=64
117504 On ch=11 n=51 v=79
117528 Par ch=11 c=11 v=65
117530 On ch=11 n=51 v=0
117536 On ch=11 n=46 v=79
117552 Par ch=11 c=11 v=66
117562 On ch=11 n=46 v=0
117568 On ch=11 n=51 v=79
117576 Par ch=11 c=11 v=67
117594 On ch=11 n=51 v=0
117600 Par ch=11 c=11 v=68
117600 On ch=11 n=46 v=79
117624 Par ch=11 c=11 v=69
117626 On ch=11 n=46 v=0
117632 On ch=11 n=51 v=79
117644 Par ch=11 c=11 v=70
117658 On ch=11 n=51 v=0
117664 On ch=11 n=46 v=79
117668 Par ch=11 c=11 v=71
117690 On ch=11 n=46 v=0
117692 Par ch=11 c=11 v=72
117696 On ch=11 n=51 v=79
117716 Par ch=11 c=11 v=73
117722 On ch=11 n=51 v=0
117728 On ch=11 n=46 v=79
117740 Par ch=11 c=11 v=74
117754 On ch=11 n=46 v=0
117760 Par ch=11 c=11 v=75
117760 On ch=11 n=51 v=79
117784 Par ch=11 c=11 v=76
117786 On ch=11 n=51 v=0
117792 On ch=11 n=46 v=79
117808 Par ch=11 c=11 v=77
117818 On ch=11 n=46 v=0
117824 On ch=11 n=51 v=79
117832 Par ch=11 c=11 v=78
117850 On ch=11 n=51 v=0
117856 Par ch=11 c=11 v=79
117856 On ch=11 n=46 v=79
117880 Par ch=11 c=11 v=80
117882 On ch=11 n=46 v=0
117888 On ch=11 n=51 v=79
117900 Par ch=11 c=11 v=81
117914 On ch=11 n=51 v=0
117920 On ch=11 n=46 v=79
117924 Par ch=11 c=11 v=82
117946 On ch=11 n=46 v=0
117948 Par ch=11 c=11 v=83
117952 On ch=11 n=51 v=79
117972 Par ch=11 c=11 v=84
117978 On ch=11 n=51 v=0
117984 On ch=11 n=46 v=79
117996 Par ch=11 c=11 v=85
118010 On ch=11 n=46 v=0
118016 Par ch=11 c=11 v=86
118016 On ch=11 n=51 v=79
118040 Par ch=11 c=11 v=87
118042 On ch=11 n=51 v=0
118048 On ch=11 n=46 v=79
118064 Par ch=11 c=11 v=88
118074 On ch=11 n=46 v=0
118080 On ch=11 n=51 v=79
118088 Par ch=11 c=11 v=89
118106 On ch=11 n=51 v=0
118112 Par ch=11 c=11 v=90
118112 On ch=11 n=46 v=79
118136 Par ch=11 c=11 v=91
118138 On ch=11 n=46 v=0
118144 On ch=11 n=51 v=79
118156 Par ch=11 c=11 v=92
118170 On ch=11 n=51 v=0
118176 On ch=11 n=46 v=79
118180 Par ch=11 c=11 v=93
118202 On ch=11 n=46 v=0
118204 Par ch=11 c=11 v=94
118208 On ch=11 n=51 v=79
118228 Par ch=11 c=11 v=95
118234 On ch=11 n=51 v=0
118240 On ch=11 n=46 v=79
118252 Par ch=11 c=11 v=96
118266 On ch=11 n=46 v=0
118272 Par ch=11 c=11 v=64
118272 On ch=11 n=51 v=111
118310 On ch=11 n=51 v=0
122880 On ch=11 n=43 v=63
122888 On ch=11 n=43 v=0
122888 On ch=11 n=43 v=63
122896 On ch=11 n=43 v=0
122896 On ch=11 n=43 v=63
122904 On ch=11 n=43 v=0
122904 On ch=11 n=43 v=63
122912 On ch=11 n=43 v=0
122912 On ch=11 n=43 v=63
122920 On ch=11 n=43 v=0
122920 On ch=11 n=43 v=63
122928 On ch=11 n=43 v=0
122928 On ch=11 n=43 v=63
122936 On ch=11 n=43 v=0
122936 On ch=11 n=43 v=63
122944 On ch=11 n=43 v=0
122944 On ch=11 n=43 v=63
122952 On ch=11 n=43 v=0
122952 On ch=11 n=43 v=63
122960 On ch=11 n=43 v=0
122960 On ch=11 n=43 v=63
122968 On ch=11 n=43 v=0
122968 On ch=11 n=43 v=63
122976 On ch=11 n=43 v=0
122976 On ch=11 n=43 v=63
122984 On ch=11 n=43 v=0
122984 On ch=11 n=43 v=63
122992 On ch=11 n=43 v=0
122992 On ch=11 n=43 v=63
123000 On ch=11 n=43 v=0
123000 On ch=11 n=43 v=63
123008 On ch=11 n=43 v=0
123008 On ch=11 n=43 v=63
123016 On ch=11 n=43 v=0
123016 On ch=11 n=43 v=63
123024 On ch=11 n=43 v=0
123024 On ch=11 n=43 v=63
123032 On ch=11 n=43 v=0
123032 On ch=11 n=43 v=63
123040 On ch=11 n=43 v=0
123040 On ch=11 n=43 v=63
123048 On ch=11 n=43 v=0
123048 On ch=11 n=43 v=63
123056 On ch=11 n=43 v=0
123056 On ch=11 n=43 v=63
123064 On ch=11 n=43 v=0
123064 On ch=11 n=43 v=63
123072 On ch=11 n=43 v=0
123072 On ch=11 n=43 v=63
123080 On ch=11 n=43 v=0
123080 On ch=11 n=43 v=63
123088 On ch=11 n=43 v=0
123088 On ch=11 n=43 v=63
123096 On ch=11 n=43 v=0
123096 On ch=11 n=43 v=63
123104 On ch=11 n=43 v=0
123104 On ch=11 n=43 v=63
123112 On ch=11 n=43 v=0
123112 On ch=11 n=43 v=63
123120 On ch=11 n=43 v=0
123120 On ch=11 n=43 v=63
123128 On ch=11 n=43 v=0
123128 On ch=11 n=43 v=63
123136 On ch=11 n=43 v=0
123136 On ch=11 n=43 v=63
123144 On ch=11 n=43 v=0
123144 On ch=11 n=43 v=63
123152 On ch=11 n=43 v=0
123152 On ch=11 n=43 v=63
123160 On ch=11 n=43 v=0
123160 On ch=11 n=43 v=63
123168 On ch=11 n=43 v=0
123168 On ch=11 n=43 v=63
123176 On ch=11 n=43 v=0
123176 On ch=11 n=43 v=63
123184 On ch=11 n=43 v=0
123184 On ch=11 n=43 v=63
123192 On ch=11 n=43 v=0
123192 On ch=11 n=43 v=63
123200 On ch=11 n=43 v=0
123200 On ch=11 n=43 v=63
123208 On ch=11 n=43 v=0
123208 On ch=11 n=43 v=63
123216 On ch=11 n=43 v=0
123216 On ch=11 n=43 v=63
123224 On ch=11 n=43 v=0
123224 On ch=11 n=43 v=63
123232 On ch=11 n=43 v=0
123232 On ch=11 n=43 v=63
123240 On ch=11 n=43 v=0
123240 On ch=11 n=43 v=63
123248 On ch=11 n=43 v=0
123248 On ch=11 n=43 v=63
123256 On ch=11 n=43 v=0
123256 On ch=11 n=43 v=63
123264 On ch=11 n=43 v=0
123264 On ch=11 n=43 v=63
123272 On ch=11 n=43 v=0
123272 On ch=11 n=43 v=63
123280 On ch=11 n=43 v=0
123280 On ch=11 n=43 v=63
123288 On ch=11 n=43 v=0
123288 On ch=11 n=43 v=63
123296 On ch=11 n=43 v=0
123296 On ch=11 n=43 v=63
123304 On ch=11 n=43 v=0
123304 On ch=11 n=43 v=63
123312 On ch=11 n=43 v=0
123312 On ch=11 n=43 v=63
123320 On ch=11 n=43 v=0
123320 On ch=11 n=43 v=63
123328 On ch=11 n=43 v=0
123328 On ch=11 n=43 v=63
123336 On ch=11 n=43 v=0
123336 On ch=11 n=43 v=63
123344 On ch=11 n=43 v=0
123344 On ch=11 n=43 v=63
123352 On ch=11 n=43 v=0
123352 On ch=11 n=43 v=63
123360 On ch=11 n=43 v=0
123360 On ch=11 n=43 v=63
123368 On ch=11 n=43 v=0
123368 On ch=11 n=43 v=63
123376 On ch=11 n=43 v=0
123376 On ch=11 n=43 v=63
123384 On ch=11 n=43 v=0
123384 On ch=11 n=43 v=63
123392 On ch=11 n=43 v=0
123392 On ch=11 n=43 v=63
123400 On ch=11 n=43 v=0
123400 On ch=11 n=43 v=63
123408 On ch=11 n=43 v=0
123408 On ch=11 n=43 v=63
123416 On ch=11 n=43 v=0
123416 On ch=11 n=43 v=63
123424 On ch=11 n=43 v=0
123424 On ch=11 n=43 v=63
123432 On ch=11 n=43 v=0
123432 On ch=11 n=43 v=63
123440 On ch=11 n=43 v=0
123440 On ch=11 n=43 v=63
123448 On ch=11 n=43 v=0
123448 On ch=11 n=43 v=63
123456 On ch=11 n=43 v=0
123456 On ch=11 n=43 v=63
123464 On ch=11 n=43 v=0
123464 On ch=11 n=43 v=63
123472 On ch=11 n=43 v=0
123472 On ch=11 n=43 v=63
123480 On ch=11 n=43 v=0
123480 On ch=11 n=43 v=63
123488 On ch=11 n=43 v=0
123488 On ch=11 n=43 v=63
123496 On ch=11 n=43 v=0
123496 On ch=11 n=43 v=63
123504 On ch=11 n=43 v=0
123504 On ch=11 n=43 v=63
123512 On ch=11 n=43 v=0
123512 On ch=11 n=43 v=63
123520 On ch=11 n=43 v=0
123520 On ch=11 n=43 v=63
123528 On ch=11 n=43 v=0
123528 On ch=11 n=43 v=63
123536 On ch=11 n=43 v=0
123536 On ch=11 n=43 v=63
123544 On ch=11 n=43 v=0
123544 On ch=11 n=43 v=63
123552 On ch=11 n=43 v=0
123552 On ch=11 n=43 v=63
123560 On ch=11 n=43 v=0
123560 On ch=11 n=43 v=63
123568 On ch=11 n=43 v=0
123568 On ch=11 n=43 v=63
123576 On ch=11 n=43 v=0
123576 On ch=11 n=43 v=63
123584 On ch=11 n=43 v=0
123584 On ch=11 n=43 v=63
123592 On ch=11 n=43 v=0
123592 On ch=11 n=43 v=63
123600 On ch=11 n=43 v=0
123600 On ch=11 n=43 v=63
123608 On ch=11 n=43 v=0
123608 On ch=11 n=43 v=63
123616 On ch=11 n=43 v=0
123616 On ch=11 n=43 v=63
123624 On ch=11 n=43 v=0
123624 On ch=11 n=43 v=63
123632 On ch=11 n=43 v=0
123632 On ch=11 n=43 v=63
123640 On ch=11 n=43 v=0
123640 On ch=11 n=43 v=63
123648 On ch=11 n=43 v=0
123648 On ch=11 n=43 v=63
123656 On ch=11 n=43 v=0
123656 On ch=11 n=43 v=63
123664 On ch=11 n=43 v=0
123664 On ch=11 n=43 v=63
123672 On ch=11 n=43 v=0
123672 On ch=11 n=43 v=63
123680 On ch=11 n=43 v=0
123680 On ch=11 n=43 v=63
123688 On ch=11 n=43 v=0
123688 On ch=11 n=43 v=63
123696 On ch=11 n=43 v=0
123696 On ch=11 n=43 v=63
123704 On ch=11 n=43 v=0
123704 On ch=11 n=43 v=63
123712 On ch=11 n=43 v=0
123712 On ch=11 n=43 v=63
123720 On ch=11 n=43 v=0
123720 On ch=11 n=43 v=63
123728 On ch=11 n=43 v=0
123728 On ch=11 n=43 v=63
123736 On ch=11 n=43 v=0
123736 On ch=11 n=43 v=63
123744 On ch=11 n=43 v=0
123744 On ch=11 n=43 v=63
123752 On ch=11 n=43 v=0
123752 On ch=11 n=43 v=63
123760 On ch=11 n=43 v=0
123760 On ch=11 n=43 v=63
123768 On ch=11 n=43 v=0
123768 On ch=11 n=43 v=63
123776 On ch=11 n=43 v=0
123776 On ch=11 n=43 v=63
123784 On ch=11 n=43 v=0
123784 On ch=11 n=43 v=63
123792 On ch=11 n=43 v=0
123792 On ch=11 n=43 v=63
123800 On ch=11 n=43 v=0
123800 On ch=11 n=43 v=63
123808 On ch=11 n=43 v=0
123808 On ch=11 n=43 v=63
123816 On ch=11 n=43 v=0
123816 On ch=11 n=43 v=63
123824 On ch=11 n=43 v=0
123824 On ch=11 n=43 v=63
123832 On ch=11 n=43 v=0
123832 On ch=11 n=43 v=63
123840 On ch=11 n=43 v=0
123840 On ch=11 n=43 v=63
123848 On ch=11 n=43 v=0
123848 On ch=11 n=43 v=63
123856 On ch=11 n=43 v=0
123856 On ch=11 n=43 v=63
123864 On ch=11 n=43 v=0
123864 On ch=11 n=43 v=63
123872 On ch=11 n=43 v=0
123872 On ch=11 n=43 v=63
123880 On ch=11 n=43 v=0
123880 On ch=11 n=43 v=63
123888 On ch=11 n=43 v=0
123888 On ch=11 n=43 v=63
123896 On ch=11 n=43 v=0
123896 On ch=11 n=43 v=63
123904 On ch=11 n=43 v=0
123904 On ch=11 n=43 v=63
123912 On ch=11 n=43 v=0
123912 On ch=11 n=43 v=63
123920 On ch=11 n=43 v=0
123920 On ch=11 n=43 v=63
123928 On ch=11 n=43 v=0
123928 On ch=11 n=43 v=63
123936 On ch=11 n=43 v=0
123936 On ch=11 n=43 v=63
123944 On ch=11 n=43 v=0
123944 On ch=11 n=43 v=63
123952 On ch=11 n=43 v=0
123952 On ch=11 n=43 v=63
123960 On ch=11 n=43 v=0
123960 On ch=11 n=43 v=63
123968 On ch=11 n=43 v=0
123968 On ch=11 n=43 v=63
123976 On ch=11 n=43 v=0
123976 On ch=11 n=43 v=63
123984 On ch=11 n=43 v=0
123984 On ch=11 n=43 v=63
123992 On ch=11 n=43 v=0
123992 On ch=11 n=43 v=63
124000 On ch=11 n=43 v=0
124000 On ch=11 n=43 v=63
124008 On ch=11 n=43 v=0
124008 On ch=11 n=43 v=63
124016 On ch=11 n=43 v=0
124016 On ch=11 n=43 v=63
124024 On ch=11 n=43 v=0
124024 On ch=11 n=43 v=63
124032 On ch=11 n=43 v=0
124032 On ch=11 n=43 v=63
124040 On ch=11 n=43 v=0
124040 On ch=11 n=43 v=63
124048 On ch=11 n=43 v=0
124048 On ch=11 n=43 v=63
124056 On ch=11 n=43 v=0
124056 On ch=11 n=43 v=63
124064 On ch=11 n=43 v=0
124064 On ch=11 n=43 v=63
124072 On ch=11 n=43 v=0
124072 On ch=11 n=43 v=63
124080 On ch=11 n=43 v=0
124080 On ch=11 n=43 v=63
124088 On ch=11 n=43 v=0
124088 On ch=11 n=43 v=63
124096 On ch=11 n=43 v=0
124096 On ch=11 n=43 v=63
124104 On ch=11 n=43 v=0
124104 On ch=11 n=43 v=63
124112 On ch=11 n=43 v=0
124112 On ch=11 n=43 v=63
124120 On ch=11 n=43 v=0
124120 On ch=11 n=43 v=63
124128 On ch=11 n=43 v=0
124128 On ch=11 n=43 v=63
124136 On ch=11 n=43 v=0
124136 On ch=11 n=43 v=63
124144 On ch=11 n=43 v=0
124144 On ch=11 n=43 v=63
124152 On ch=11 n=43 v=0
124152 On ch=11 n=43 v=63
124160 On ch=11 n=43 v=0
124160 On ch=11 n=43 v=63
124168 On ch=11 n=43 v=0
124168 On ch=11 n=43 v=63
124176 On ch=11 n=43 v=0
124176 On ch=11 n=43 v=63
124184 On ch=11 n=43 v=0
124184 On ch=11 n=43 v=63
124192 On ch=11 n=43 v=0
124192 On ch=11 n=43 v=63
124200 On ch=11 n=43 v=0
124200 On ch=11 n=43 v=63
124208 On ch=11 n=43 v=0
124208 On ch=11 n=43 v=63
124216 On ch=11 n=43 v=0
124216 On ch=11 n=43 v=63
124224 On ch=11 n=43 v=0
124224 On ch=11 n=43 v=63
124232 On ch=11 n=43 v=0
124232 On ch=11 n=43 v=63
124240 On ch=11 n=43 v=0
124240 On ch=11 n=43 v=63
124248 On ch=11 n=43 v=0
124248 On ch=11 n=43 v=63
124256 On ch=11 n=43 v=0
124256 On ch=11 n=43 v=63
124264 On ch=11 n=43 v=0
124264 On ch=11 n=43 v=63
124272 On ch=11 n=43 v=0
124272 On ch=11 n=43 v=63
124280 On ch=11 n=43 v=0
124280 On ch=11 n=43 v=63
124288 On ch=11 n=43 v=0
124288 On ch=11 n=43 v=63
124296 On ch=11 n=43 v=0
124296 On ch=11 n=43 v=63
124304 On ch=11 n=43 v=0
124304 On ch=11 n=43 v=63
124312 On ch=11 n=43 v=0
124312 On ch=11 n=43 v=63
124320 On ch=11 n=43 v=0
124320 On ch=11 n=43 v=63
124328 On ch=11 n=43 v=0
124328 On ch=11 n=43 v=63
124336 On ch=11 n=43 v=0
124336 On ch=11 n=43 v=63
124344 On ch=11 n=43 v=0
124344 On ch=11 n=43 v=63
124352 On ch=11 n=43 v=0
124352 On ch=11 n=43 v=63
124360 On ch=11 n=43 v=0
124360 On ch=11 n=43 v=63
124368 On ch=11 n=43 v=0
124368 On ch=11 n=43 v=63
124376 On ch=11 n=43 v=0
124376 On ch=11 n=43 v=63
124384 On ch=11 n=43 v=0
124384 On ch=11 n=43 v=63
124392 On ch=11 n=43 v=0
124392 On ch=11 n=43 v=63
124400 On ch=11 n=43 v=0
124400 On ch=11 n=43 v=63
124408 On ch=11 n=43 v=0
124408 On ch=11 n=43 v=63
124416 On ch=11 n=43 v=0
124416 On ch=11 n=43 v=63
124424 On ch=11 n=43 v=0
124424 On ch=11 n=43 v=63
124432 On ch=11 n=43 v=0
124432 On ch=11 n=43 v=63
124440 On ch=11 n=43 v=0
124440 On ch=11 n=43 v=63
124448 On ch=11 n=43 v=0
124448 On ch=11 n=43 v=63
124456 On ch=11 n=43 v=0
124456 On ch=11 n=43 v=63
124464 On ch=11 n=43 v=0
124464 On ch=11 n=43 v=63
124472 On ch=11 n=43 v=0
124472 On ch=11 n=43 v=63
124480 On ch=11 n=43 v=0
124480 On ch=11 n=43 v=63
124488 On ch=11 n=43 v=0
124488 On ch=11 n=43 v=63
124496 On ch=11 n=43 v=0
124496 On ch=11 n=43 v=63
124504 On ch=11 n=43 v=0
124504 On ch=11 n=43 v=63
124512 On ch=11 n=43 v=0
124512 On ch=11 n=43 v=63
124520 On ch=11 n=43 v=0
124520 On ch=11 n=43 v=63
124528 On ch=11 n=43 v=0
124528 On ch=11 n=43 v=63
124536 On ch=11 n=43 v=0
124536 On ch=11 n=43 v=63
124544 On ch=11 n=43 v=0
124544 On ch=11 n=43 v=63
124552 On ch=11 n=43 v=0
124552 On ch=11 n=43 v=63
124560 On ch=11 n=43 v=0
124560 On ch=11 n=43 v=63
124568 On ch=11 n=43 v=0
124568 On ch=11 n=43 v=63
124576 On ch=11 n=43 v=0
124576 On ch=11 n=43 v=63
124584 On ch=11 n=43 v=0
124584 On ch=11 n=43 v=63
124592 On ch=11 n=43 v=0
124592 On ch=11 n=43 v=63
124600 On ch=11 n=43 v=0
124600 On ch=11 n=43 v=63
124608 On ch=11 n=43 v=0
126176 Par ch=11 c=11 v=64
126176 On ch=11 n=43 v=111
126188 Par ch=11 c=11 v=65
126196 Par ch=11 c=11 v=66
126202 On ch=11 n=43 v=0
126208 Par ch=11 c=11 v=67
126208 On ch=11 n=43 v=111
126216 Par ch=11 c=11 v=68
126224 Par ch=11 c=11 v=69
126234 On ch=11 n=43 v=0
126236 Par ch=11 c=11 v=70
126240 On ch=11 n=43 v=111
126244 Par ch=11 c=11 v=71
126252 Par ch=11 c=11 v=72
126264 Par ch=11 c=11 v=73
126266 On ch=11 n=43 v=0
126272 Par ch=11 c=11 v=74
126272 On ch=11 n=43 v=111
126280 Par ch=11 c=11 v=75
126292 Par ch=11 c=11 v=76
126298 On ch=11 n=43 v=0
126300 Par ch=11 c=11 v=77
126304 On ch=11 n=43 v=111
126308 Par ch=11 c=11 v=78
126320 Par ch=11 c=11 v=79
126328 Par ch=11 c=11 v=80
126330 On ch=11 n=43 v=0
126336 Par ch=11 c=11 v=64
126336 On ch=11 n=48 v=127
126374 On ch=11 n=48 v=0
126384 On ch=11 n=48 v=127
126422 On ch=11 n=48 v=0
136320 On ch=11 n=43 v=111
136397 On ch=11 n=43 v=0
137088 On ch=11 n=48 v=111
137126 On ch=11 n=48 v=0
142080 On ch=11 n=40 v=47
142157 On ch=11 n=40 v=0
142848 On ch=11 n=40 v=31
142925 On ch=11 n=40 v=0
155136 On ch=11 n=48 v=47
155174 On ch=11 n=48 v=0
155208 On ch=11 n=43 v=47
155227 On ch=11 n=43 v=0
155232 On ch=11 n=48 v=47
155270 On ch=11 n=48 v=0
155520 On ch=11 n=48 v=47
155558 On ch=11 n=48 v=0
155592 On ch=11 n=43 v=47
155611 On ch=11 n=43 v=0
155616 On ch=11 n=48 v=47
155654 On ch=11 n=48 v=0
156672 On ch=11 n=48 v=47
156710 On ch=11 n=48 v=0
157056 On ch=11 n=48 v=47
157094 On ch=11 n=48 v=0
157440 On ch=11 n=48 v=47
157478 On ch=11 n=48 v=0
157512 On ch=11 n=43 v=47
157531 On ch=11 n=43 v=0
157536 On ch=11 n=48 v=47
157574 On ch=11 n=48 v=0
157608 On ch=11 n=43 v=47
157627 On ch=11 n=43 v=0
157632 On ch=11 n=48 v=47
157670 On ch=11 n=48 v=0
157824 On ch=11 n=48 v=47
157862 On ch=11 n=48 v=0
157896 On ch=11 n=43 v=47
157915 On ch=11 n=43 v=0
157920 On ch=11 n=48 v=47
157958 On ch=11 n=48 v=0
157992 On ch=11 n=43 v=47
158011 On ch=11 n=43 v=0
158016 On ch=11 n=48 v=47
158054 On ch=11 n=48 v=0
158184 On ch=11 n=43 v=47
158203 On ch=11 n=43 v=0
158208 On ch=11 n=48 v=47
158246 On ch=11 n=48 v=0
158592 On ch=11 n=48 v=47
158630 On ch=11 n=48 v=0
158976 Par ch=11 c=11 v=64
158976 On ch=11 n=48 v=31
158984 On ch=11 n=48 v=0
158984 On ch=11 n=48 v=31
158988 Par ch=11 c=11 v=65
158992 On ch=11 n=48 v=0
158992 On ch=11 n=48 v=31
159000 On ch=11 n=48 v=0
159000 Par ch=11 c=11 v=66
159000 On ch=11 n=48 v=31
159008 On ch=11 n=48 v=0
159008 On ch=11 n=48 v=31
159012 Par ch=11 c=11 v=67
159016 On ch=11 n=48 v=0
159016 On ch=11 n=48 v=31
159024 On ch=11 n=48 v=0
159024 Par ch=11 c=11 v=68
159024 On ch=11 n=48 v=31
159032 On ch=11 n=48 v=0
159032 On ch=11 n=48 v=31
159036 Par ch=11 c=11 v=69
159040 On ch=11 n=48 v=0
159040 On ch=11 n=48 v=31
159044 Par ch=11 c=11 v=70
159048 On ch=11 n=48 v=0
159048 On ch=11 n=48 v=31
159056 On ch=11 n=48 v=0
159056 Par ch=11 c=11 v=71
159056 On ch=11 n=48 v=31
159064 On ch=11 n=48 v=0
159064 On ch=11 n=48 v=31
159068 Par ch=11 c=11 v=72
159072 On ch=11 n=48 v=0
159072 On ch=11 n=48 v=31
159080 On ch=11 n=48 v=0
159080 Par ch=11 c=11 v=73
159080 On ch=11 n=48 v=31
159088 On ch=11 n=48 v=0
159088 On ch=11 n=48 v=31
159092 Par ch=11 c=11 v=74
159096 On ch=11 n=48 v=0
159096 On ch=11 n=48 v=31
159104 On ch=11 n=48 v=0
159104 Par ch=11 c=11 v=75
159104 On ch=11 n=48 v=31
159112 On ch=11 n=48 v=0
159112 Par ch=11 c=11 v=76
159112 On ch=11 n=48 v=31
159120 On ch=11 n=48 v=0
159120 On ch=11 n=48 v=31
159124 Par ch=11 c=11 v=77
159128 On ch=11 n=48 v=0
159128 On ch=11 n=48 v=31
159136 On ch=11 n=48 v=0
159136 Par ch=11 c=11 v=78
159136 On ch=11 n=48 v=31
159144 On ch=11 n=48 v=0
159144 On ch=11 n=48 v=31
159148 Par ch=11 c=11 v=79
159152 On ch=11 n=48 v=0
159152 On ch=11 n=48 v=31
159160 On ch=11 n=48 v=0
159160 Par ch=11 c=11 v=80
159160 On ch=11 n=48 v=31
159168 On ch=11 n=48 v=0
159168 Par ch=11 c=11 v=64
159168 On ch=11 n=48 v=47
159206 On ch=11 n=48 v=0
159360 Par ch=11 c=11 v=64
159360 On ch=11 n=48 v=31
159368 On ch=11 n=48 v=0
159368 On ch=11 n=48 v=31
159372 Par ch=11 c=11 v=65
159376 On ch=11 n=48 v=0
159376 On ch=11 n=48 v=31
159384 On ch=11 n=48 v=0
159384 Par ch=11 c=11 v=66
159384 On ch=11 n=48 v=31
159392 On ch=11 n=48 v=0
159392 On ch=11 n=48 v=31
159396 Par ch=11 c=11 v=67
159400 On ch=11 n=48 v=0
159400 On ch=11 n=48 v=31
159408 On ch=11 n=48 v=0
159408 Par ch=11 c=11 v=68
159408 On ch=11 n=48 v=31
159416 On ch=11 n=48 v=0
159416 On ch=11 n=48 v=31
159420 Par ch=11 c=11 v=69
159424 On ch=11 n=48 v=0
159424 On ch=11 n=48 v=31
159428 Par ch=11 c=11 v=70
159432 On ch=11 n=48 v=0
159432 On ch=11 n=48 v=31
159440 On ch=11 n=48 v=0
159440 Par ch=11 c=11 v=71
159440 On ch=11 n=48 v=31
159448 On ch=11 n=48 v=0
159448 On ch=11 n=48 v=31
159452 Par ch=11 c=11 v=72
159456 On ch=11 n=48 v=0
159456 On ch=11 n=48 v=31
159464 On ch=11 n=48 v=0
159464 Par ch=11 c=11 v=73
159464 On ch=11 n=48 v=31
159472 On ch=11 n=48 v=0
159472 On ch=11 n=48 v=31
159476 Par ch=11 c=11 v=74
159480 On ch=11 n=48 v=0
159480 On ch=11 n=48 v=31
159488 On ch=11 n=48 v=0
159488 Par ch=11 c=11 v=75
159488 On ch=11 n=48 v=31
159496 On ch=11 n=48 v=0
159496 Par ch=11 c=11 v=76
159496 On ch=11 n=48 v=31
159504 On ch=11 n=48 v=0
159504 On ch=11 n=48 v=31
159508 Par ch=11 c=11 v=77
159512 On ch=11 n=48 v=0
159512 On ch=11 n=48 v=31
159520 On ch=11 n=48 v=0
159520 Par ch=11 c=11 v=78
159520 On ch=11 n=48 v=31
159528 On ch=11 n=48 v=0
159528 On ch=11 n=48 v=31
159532 Par ch=11 c=11 v=79
159536 On ch=11 n=48 v=0
159536 On ch=11 n=48 v=31
159544 On ch=11 n=48 v=0
159544 Par ch=11 c=11 v=80
159544 On ch=11 n=48 v=31
159552 On ch=11 n=48 v=0
159552 Par ch=11 c=11 v=64
159552 On ch=11 n=48 v=47
159590 On ch=11 n=48 v=0
159744 On ch=11 n=48 v=47
159820 On ch=11 n=48 v=0
159904 Par ch=11 c=11 v=64
159904 On ch=11 n=43 v=95
159916 Par ch=11 c=11 v=65
159924 Par ch=11 c=11 v=66
159930 On ch=11 n=43 v=0
159936 Par ch=11 c=11 v=67
159936 On ch=11 n=48 v=47
159944 Par ch=11 c=11 v=68
159956 Par ch=11 c=11 v=69
159964 Par ch=11 c=11 v=70
159972 Par ch=11 c=11 v=71
159984 Par ch=11 c=11 v=72
159992 Par ch=11 c=11 v=73
160004 Par ch=11 c=11 v=74
160012 On ch=11 n=48 v=0
160012 Par ch=11 c=11 v=75
160020 Par ch=11 c=11 v=76
160032 Par ch=11 c=11 v=77
160040 Par ch=11 c=11 v=78
160052 Par ch=11 c=11 v=79
160060 Par ch=11 c=11 v=80
160072 Par ch=11 c=11 v=81
160080 Par ch=11 c=11 v=82
160088 Par ch=11 c=11 v=83
160096 On ch=11 n=43 v=95
160100 Par ch=11 c=11 v=84
160108 Par ch=11 c=11 v=85
160120 Par ch=11 c=11 v=86
160122 On ch=11 n=43 v=0
160128 Par ch=11 c=11 v=87
160128 On ch=11 n=48 v=47
160136 Par ch=11 c=11 v=88
160148 Par ch=11 c=11 v=89
160156 Par ch=11 c=11 v=90
160168 Par ch=11 c=11 v=91
160176 Par ch=11 c=11 v=92
160184 Par ch=11 c=11 v=93
160196 Par ch=11 c=11 v=94
160204 On ch=11 n=48 v=0
160204 Par ch=11 c=11 v=95
160216 Par ch=11 c=11 v=96
160224 Par ch=11 c=11 v=97
160236 Par ch=11 c=11 v=98
160244 Par ch=11 c=11 v=99
160252 Par ch=11 c=11 v=100
160264 Par ch=11 c=11 v=101
160272 Par ch=11 c=11 v=102
160284 Par ch=11 c=11 v=103
160288 On ch=11 n=43 v=95
160292 Par ch=11 c=11 v=104
160300 Par ch=11 c=11 v=105
160312 Par ch=11 c=11 v=106
160314 On ch=11 n=43 v=0
160320 Par ch=11 c=11 v=107
160320 On ch=11 n=48 v=47
160332 Par ch=11 c=11 v=108
160340 Par ch=11 c=11 v=109
160348 Par ch=11 c=11 v=110
160360 Par ch=11 c=11 v=111
160368 Par ch=11 c=11 v=112
160380 Par ch=11 c=11 v=113
160388 Par ch=11 c=11 v=114
160396 On ch=11 n=48 v=0
160400 Par ch=11 c=11 v=115
160408 Par ch=11 c=11 v=116
160416 Par ch=11 c=11 v=117
160428 Par ch=11 c=11 v=118
160436 Par ch=11 c=11 v=119
160448 Par ch=11 c=11 v=120
160456 Par ch=11 c=11 v=121
160464 Par ch=11 c=11 v=122
160476 Par ch=11 c=11 v=123
160480 On ch=11 n=43 v=95
160484 Par ch=11 c=11 v=124
160496 Par ch=11 c=11 v=125
160504 Par ch=11 c=11 v=126
160506 On ch=11 n=43 v=0
160512 Par ch=11 c=11 v=64
160512 On ch=11 n=48 v=111
160550 On ch=11 n=48 v=0
162432 On ch=11 n=51 v=31
162470 On ch=11 n=51 v=0
162528 On ch=11 n=48 v=31
162566 On ch=11 n=48 v=0
162816 On ch=11 n=51 v=31
162854 On ch=11 n=51 v=0
162912 On ch=11 n=48 v=31
162950 On ch=11 n=48 v=0
163200 On ch=11 n=48 v=31
163277 On ch=11 n=48 v=0
163584 On ch=11 n=48 v=31
163661 On ch=11 n=48 v=0
164160 On ch=11 n=48 v=31
164198 On ch=11 n=48 v=0
164544 On ch=11 n=48 v=31
164582 On ch=11 n=48 v=0
165312 On ch=11 n=48 v=31
165350 On ch=11 n=48 v=0
165696 On ch=11 n=48 v=31
165734 On ch=11 n=48 v=0
166464 On ch=11 n=48 v=31
166502 On ch=11 n=48 v=0
166848 On ch=11 n=48 v=31
166886 On ch=11 n=48 v=0
167232 On ch=11 n=48 v=31
167270 On ch=11 n=48 v=0
167616 On ch=11 n=48 v=31
167654 On ch=11 n=48 v=0
168000 On ch=11 n=48 v=31
168038 On ch=11 n=48 v=0
168384 On ch=11 n=48 v=31
168422 On ch=11 n=48 v=0
168576 On ch=11 n=48 v=15
168584 On ch=11 n=48 v=0
168584 On ch=11 n=48 v=15
168592 On ch=11 n=48 v=0
168592 On ch=11 n=48 v=15
168600 On ch=11 n=48 v=0
168600 On ch=11 n=48 v=15
168608 On ch=11 n=48 v=0
168608 On ch=11 n=48 v=15
168616 On ch=11 n=48 v=0
168616 On ch=11 n=48 v=15
168624 On ch=11 n=48 v=0
168624 On ch=11 n=48 v=15
168632 On ch=11 n=48 v=0
168632 On ch=11 n=48 v=15
168640 On ch=11 n=48 v=0
168640 On ch=11 n=48 v=15
168648 On ch=11 n=48 v=0
168648 On ch=11 n=48 v=15
168656 On ch=11 n=48 v=0
168656 On ch=11 n=48 v=15
168664 On ch=11 n=48 v=0
168664 On ch=11 n=48 v=15
168672 On ch=11 n=48 v=0
168672 On ch=11 n=48 v=15
168680 On ch=11 n=48 v=0
168680 On ch=11 n=48 v=15
168688 On ch=11 n=48 v=0
168688 On ch=11 n=48 v=15
168696 On ch=11 n=48 v=0
168696 On ch=11 n=48 v=15
168704 On ch=11 n=48 v=0
168704 On ch=11 n=48 v=15
168712 On ch=11 n=48 v=0
168712 On ch=11 n=48 v=15
168720 On ch=11 n=48 v=0
168720 On ch=11 n=48 v=15
168728 On ch=11 n=48 v=0
168728 On ch=11 n=48 v=15
168736 On ch=11 n=48 v=0
168736 On ch=11 n=48 v=15
168744 On ch=11 n=48 v=0
168744 On ch=11 n=48 v=15
168752 On ch=11 n=48 v=0
168752 On ch=11 n=48 v=15
168760 On ch=11 n=48 v=0
168760 On ch=11 n=48 v=15
168768 On ch=11 n=48 v=0
168768 On ch=11 n=48 v=15
168776 On ch=11 n=48 v=0
168776 On ch=11 n=48 v=15
168784 On ch=11 n=48 v=0
168784 On ch=11 n=48 v=15
168792 On ch=11 n=48 v=0
168792 On ch=11 n=48 v=15
168800 On ch=11 n=48 v=0
168800 On ch=11 n=48 v=15
168808 On ch=11 n=48 v=0
168808 On ch=11 n=48 v=15
168816 On ch=11 n=48 v=0
168816 On ch=11 n=48 v=15
168824 On ch=11 n=48 v=0
168824 On ch=11 n=48 v=15
168832 On ch=11 n=48 v=0
168832 On ch=11 n=48 v=15
168840 On ch=11 n=48 v=0
168840 On ch=11 n=48 v=15
168848 On ch=11 n=48 v=0
168848 On ch=11 n=48 v=15
168856 On ch=11 n=48 v=0
168856 On ch=11 n=48 v=15
168864 On ch=11 n=48 v=0
168864 On ch=11 n=48 v=15
168872 On ch=11 n=48 v=0
168872 On ch=11 n=48 v=15
168880 On ch=11 n=48 v=0
168880 On ch=11 n=48 v=15
168888 On ch=11 n=48 v=0
168888 On ch=11 n=48 v=15
168896 On ch=11 n=48 v=0
168896 On ch=11 n=48 v=15
168904 On ch=11 n=48 v=0
168904 On ch=11 n=48 v=15
168912 On ch=11 n=48 v=0
168912 On ch=11 n=48 v=15
168920 On ch=11 n=48 v=0
168920 On ch=11 n=48 v=15
168928 On ch=11 n=48 v=0
168928 On ch=11 n=48 v=15
168936 On ch=11 n=48 v=0
168936 On ch=11 n=48 v=15
168944 On ch=11 n=48 v=0
168944 On ch=11 n=48 v=15
168952 On ch=11 n=48 v=0
168952 On ch=11 n=48 v=15
168960 On ch=11 n=48 v=0
168960 On ch=11 n=48 v=15
168968 On ch=11 n=48 v=0
168968 On ch=11 n=48 v=15
168976 On ch=11 n=48 v=0
168976 On ch=11 n=48 v=15
168984 On ch=11 n=48 v=0
168984 On ch=11 n=48 v=15
168992 On ch=11 n=48 v=0
168992 On ch=11 n=48 v=15
169000 On ch=11 n=48 v=0
169000 On ch=11 n=48 v=15
169008 On ch=11 n=48 v=0
169008 On ch=11 n=48 v=15
169016 On ch=11 n=48 v=0
169016 On ch=11 n=48 v=15
169024 On ch=11 n=48 v=0
169024 On ch=11 n=48 v=15
169032 On ch=11 n=48 v=0
169032 On ch=11 n=48 v=15
169040 On ch=11 n=48 v=0
169040 On ch=11 n=48 v=15
169048 On ch=11 n=48 v=0
169048 On ch=11 n=48 v=15
169056 On ch=11 n=48 v=0
169056 On ch=11 n=48 v=15
169064 On ch=11 n=48 v=0
169064 On ch=11 n=48 v=15
169072 On ch=11 n=48 v=0
169072 On ch=11 n=48 v=15
169080 On ch=11 n=48 v=0
169080 On ch=11 n=48 v=15
169088 On ch=11 n=48 v=0
169088 On ch=11 n=48 v=15
169096 On ch=11 n=48 v=0
169096 On ch=11 n=48 v=15
169104 On ch=11 n=48 v=0
169104 On ch=11 n=48 v=15
169112 On ch=11 n=48 v=0
169112 On ch=11 n=48 v=15
169120 On ch=11 n=48 v=0
169120 On ch=11 n=48 v=15
169128 On ch=11 n=48 v=0
169128 On ch=11 n=48 v=15
169136 On ch=11 n=48 v=0
169136 On ch=11 n=48 v=15
169144 On ch=11 n=48 v=0
169144 On ch=11 n=48 v=15
169152 On ch=11 n=48 v=0
169152 On ch=11 n=48 v=15
169160 On ch=11 n=48 v=0
169160 On ch=11 n=48 v=15
169168 On ch=11 n=48 v=0
169168 On ch=11 n=48 v=15
169176 On ch=11 n=48 v=0
169176 On ch=11 n=48 v=15
169184 On ch=11 n=48 v=0
169184 On ch=11 n=48 v=15
169192 On ch=11 n=48 v=0
169192 On ch=11 n=48 v=15
169200 On ch=11 n=48 v=0
169200 On ch=11 n=48 v=15
169208 On ch=11 n=48 v=0
169208 On ch=11 n=48 v=15
169216 On ch=11 n=48 v=0
169216 On ch=11 n=48 v=15
169224 On ch=11 n=48 v=0
169224 On ch=11 n=48 v=15
169232 On ch=11 n=48 v=0
169232 On ch=11 n=48 v=15
169240 On ch=11 n=48 v=0
169240 On ch=11 n=48 v=15
169248 On ch=11 n=48 v=0
169248 On ch=11 n=48 v=15
169256 On ch=11 n=48 v=0
169256 On ch=11 n=48 v=15
169264 On ch=11 n=48 v=0
169264 On ch=11 n=48 v=15
169272 On ch=11 n=48 v=0
169272 On ch=11 n=48 v=15
169280 On ch=11 n=48 v=0
169280 On ch=11 n=48 v=15
169288 On ch=11 n=48 v=0
169288 On ch=11 n=48 v=15
169296 On ch=11 n=48 v=0
169296 On ch=11 n=48 v=15
169304 On ch=11 n=48 v=0
169304 On ch=11 n=48 v=15
169312 On ch=11 n=48 v=0
169312 On ch=11 n=48 v=15
169320 On ch=11 n=48 v=0
169320 On ch=11 n=48 v=15
169328 On ch=11 n=48 v=0
169328 On ch=11 n=48 v=15
169336 On ch=11 n=48 v=0
169336 On ch=11 n=48 v=15
169344 On ch=11 n=48 v=0
169344 Meta TrkEnd
TrkEnd
