0 Tempo 600000
0 TimeSig 4/4 120 8
0 PrCh ch=1 p=0
0 PrCh ch=1 p=0
0 PrCh ch=1 p=0
0 Meta TrkName "Part 1"
0 KeySig 254 major
0 PrCh ch=1 p=0
0 PrCh ch=1 p=0
0 PrCh ch=1 p=0
0 PrCh ch=1 p=0
0 Meta TrkName "Part 2"
0 KeySig 254 major
0 PrCh ch=1 p=0
0 PrCh ch=1 p=0
0 PrCh ch=1 p=0
0 PrCh ch=1 p=0
0 Meta TrkName "Part 3"
0 KeySig 0 major
0 On ch=1 n=87 v=85
0 Meta Lyric "bellt "
0 PrCh ch=1 p=0
0 PrCh ch=1 p=0
0 PrCh ch=1 p=0
0 PrCh ch=1 p=0
0 Meta TrkName "Part 4"
0 KeySig 0 major
0 On ch=1 n=81 v=85
0 Meta Lyric "lt "
0 PrCh ch=1 p=0
0 PrCh ch=1 p=0
0 Meta TrkName "Part 5"
0 KeySig 0 major
0 On ch=1 n=79 v=85
0 Meta Lyric "16r "
0 PrCh ch=1 p=0
0 PrCh ch=1 p=0
0 PrCh ch=1 p=0
0 Meta TrkName "Part 6"
0 KeySig 0 major
0 On ch=1 n=59 v=89
0 PrCh ch=1 p=0
0 PrCh ch=1 p=0
0 PrCh ch=1 p=0
0 PrCh ch=1 p=0
0 Meta TrkName "Part 7"
0 KeySig 0 major
0 On ch=1 n=74 v=80
0 PrCh ch=1 p=0
0 PrCh ch=1 p=0
0 PrCh ch=1 p=0
0 PrCh ch=1 p=0
0 Meta TrkName "Part 8"
0 KeySig 0 major
0 On ch=1 n=75 v=80
0 PrCh ch=1 p=0
0 PrCh ch=1 p=0
0 PrCh ch=1 p=0
0 PrCh ch=1 p=0
0 Meta TrkName "Part 9"
0 KeySig 0 major
0 On ch=1 n=59 v=80
0 Meta Lyric "bnndced, "
0 PrCh ch=1 p=0
0 PrCh ch=1 p=0
0 PrCh ch=1 p=0
0 PrCh ch=1 p=0
0 Meta TrkName "Part 10"
0 KeySig 0 major
0 Meta Lyric "Cmh "
0 PrCh ch=1 p=0
0 PrCh ch=1 p=0
0 PrCh ch=1 p=0
0 PrCh ch=1 p=0
0 Meta TrkName "Part 11"
0 KeySig 0 major
0 PrCh ch=1 p=0
0 PrCh ch=1 p=0
0 PrCh ch=1 p=0
0 PrCh ch=1 p=0
0 Meta TrkName "Part 12"
0 KeySig 0 major
0 PrCh ch=1 p=0
0 PrCh ch=1 p=0
0 PrCh ch=1 p=0
0 PrCh ch=1 p=0
0 Meta TrkName "Part 13"
0 KeySig 0 major
0 On ch=1 n=87 v=89
0 On ch=1 n=81 v=89
0 PrCh ch=1 p=0
0 PrCh ch=1 p=0
0 PrCh ch=1 p=0
0 PrCh ch=1 p=0
0 Meta TrkName "Part 14"
0 KeySig 0 major
0 On ch=1 n=70 v=89
0 On ch=1 n=67 v=89
0 PrCh ch=1 p=0
0 PrCh ch=1 p=0
0 PrCh ch=1 p=0
0 PrCh ch=1 p=0
0 Meta TrkName "Part 15"
0 KeySig 0 major
0 On ch=1 n=59 v=89
0 On ch=1 n=65 v=89
0 On ch=1 n=62 v=89
0 PrCh ch=1 p=0
0 PrCh ch=1 p=0
0 PrCh ch=1 p=0
0 PrCh ch=1 p=0
0 Meta TrkName "Part 16"
0 KeySig 0 major
60 On ch=1 n=57 v=80
90 Off ch=1 n=87 v=85
90 Off ch=1 n=81 v=85
90 Off ch=1 n=79 v=85
120 Off ch=1 n=74 v=80
120 On ch=1 n=73 v=80
180 On ch=1 n=84 v=85
180 On ch=1 n=80 v=85
180 On ch=1 n=78 v=85
180 Off ch=1 n=59 v=89
180 On ch=1 n=58 v=89
180 Off ch=1 n=73 v=80
180 On ch=1 n=72 v=80
180 Off ch=1 n=75 v=80
180 On ch=1 n=74 v=80
180 Off ch=1 n=59 v=80
180 On ch=1 n=58 v=80
180 On ch=1 n=50 v=80
180 Meta Lyric "No "
180 Off ch=1 n=57 v=80
180 Off ch=1 n=81 v=89
180 Off ch=1 n=87 v=89
180 On ch=1 n=86 v=89
180 On ch=1 n=81 v=89
180 Off ch=1 n=67 v=89
180 Off ch=1 n=70 v=89
180 On ch=1 n=67 v=89
180 On ch=1 n=70 v=89
180 On ch=1 n=66 v=89
180 Off ch=1 n=62 v=89
180 On ch=1 n=58 v=89
180 On ch=1 n=62 v=89
207 Par ch=1 c=64 v=0
207 Par ch=1 c=64 v=0
207 Par ch=1 c=64 v=0
207 Par ch=1 c=64 v=0
207 Par ch=1 c=64 v=127
207 Par ch=1 c=64 v=127
207 Par ch=1 c=64 v=127
207 Par ch=1 c=64 v=127
210 Off ch=1 n=84 v=85
210 Off ch=1 n=58 v=89
240 On ch=1 n=85 v=85
240 Off ch=1 n=78 v=85
240 On ch=1 n=57 v=89
240 On ch=1 n=71 v=80
240 Off ch=1 n=74 v=80
240 On ch=1 n=73 v=80
240 Off ch=1 n=58 v=80
240 On ch=1 n=57 v=80
240 Meta Lyric "Tb "
240 On ch=1 n=57 v=80
240 On ch=1 n=45 v=80
240 Meta Lyric "np "
240 Off ch=1 n=81 v=89
240 Off ch=1 n=86 v=89
240 On ch=1 n=86 v=89
240 On ch=1 n=79 v=89
240 On ch=1 n=27 v=89
240 Off ch=1 n=66 v=89
240 Off ch=1 n=70 v=89
240 Off ch=1 n=67 v=89
240 On ch=1 n=69 v=89
240 On ch=1 n=65 v=89
258 Off ch=1 n=72 v=80
270 Off ch=1 n=85 v=85
270 Off ch=1 n=57 v=89
300 On ch=1 n=84 v=85
300 Off ch=1 n=80 v=85
300 On ch=1 n=79 v=85
300 On ch=1 n=77 v=85
300 On ch=1 n=56 v=89
300 Off ch=1 n=71 v=80
300 On ch=1 n=70 v=80
300 Off ch=1 n=73 v=80
300 On ch=1 n=72 v=80
300 Off ch=1 n=57 v=80
300 Off ch=1 n=50 v=80
300 On ch=1 n=56 v=80
300 Off ch=1 n=45 v=80
300 Off ch=1 n=57 v=80
300 On ch=1 n=57 v=80
300 Off ch=1 n=79 v=89
300 Off ch=1 n=86 v=89
300 On ch=1 n=84 v=89
300 On ch=1 n=78 v=89
300 Off ch=1 n=65 v=89
300 Off ch=1 n=69 v=89
300 On ch=1 n=67 v=89
300 On ch=1 n=64 v=89
300 Off ch=1 n=62 v=89
300 On ch=1 n=57 v=89
300 On ch=1 n=62 v=89
330 Off ch=1 n=84 v=85
330 Off ch=1 n=77 v=85
330 Off ch=1 n=70 v=80
360 On ch=1 n=83 v=85
360 Off ch=1 n=79 v=85
360 On ch=1 n=78 v=85
360 On ch=1 n=76 v=85
360 Off ch=1 n=56 v=89
360 On ch=1 n=55 v=89
360 On ch=1 n=69 v=80
360 Off ch=1 n=72 v=80
360 On ch=1 n=71 v=80
360 Off ch=1 n=56 v=80
360 On ch=1 n=55 v=80
360 Off ch=1 n=57 v=80
360 On ch=1 n=57 v=80
360 On ch=1 n=45 v=80
360 Off ch=1 n=78 v=89
360 Off ch=1 n=84 v=89
360 Off ch=1 n=27 v=89
360 On ch=1 n=83 v=89
360 On ch=1 n=77 v=89
360 Meta Lyric "A "
360 Off ch=1 n=64 v=89
360 Off ch=1 n=67 v=89
360 On ch=1 n=67 v=89
360 On ch=1 n=63 v=89
360 On ch=1 n=56 v=89
360 On ch=1 n=60 v=89
390 Off ch=1 n=83 v=85
390 Off ch=1 n=76 v=85
405 Off ch=1 n=55 v=89
420 On ch=1 n=82 v=85
420 Off ch=1 n=78 v=85
420 On ch=1 n=77 v=85
420 On ch=1 n=75 v=85
420 Off ch=1 n=69 v=80
420 Off ch=1 n=71 v=80
420 On ch=1 n=70 v=80
420 Off ch=1 n=55 v=80
420 On ch=1 n=55 v=80
420 Off ch=1 n=45 v=80
420 Off ch=1 n=57 v=80
420 On ch=1 n=57 v=80
420 Off ch=1 n=77 v=89
420 Off ch=1 n=83 v=89
420 On ch=1 n=76 v=89
420 On ch=1 n=62 v=89
420 On ch=1 n=65 v=89
420 On ch=1 n=55 v=89
420 On ch=1 n=59 v=89
435 Off ch=1 n=63 v=89
435 Off ch=1 n=67 v=89
438 Off ch=1 n=65 v=89
438 Off ch=1 n=59 v=89
445 Off ch=1 n=62 v=89
445 Off ch=1 n=57 v=89
450 Off ch=1 n=77 v=85
450 Off ch=1 n=75 v=85
450 On ch=1 n=54 v=89
450 Off ch=1 n=70 v=80
450 Off ch=1 n=55 v=80
465 Off ch=1 n=54 v=89
471 Off ch=1 n=58 v=89
480 Off ch=1 n=82 v=85
480 Off ch=1 n=57 v=80
480 Off ch=1 n=76 v=89
480 TimeSig 9/8 120 8
480 On ch=1 n=81 v=85
480 On ch=1 n=75 v=85
480 On ch=1 n=73 v=85
480 On ch=1 n=53 v=89
480 On ch=1 n=68 v=80
480 On ch=1 n=69 v=80
480 On ch=1 n=53 v=80
480 On ch=1 n=57 v=80
480 On ch=1 n=45 v=80
480 On ch=1 n=91 v=85
480 On ch=1 n=86 v=85
480 Meta Lyric "Piano "
480 Meta Lyric "AlC.rO(UiStfnatl- "
480 On ch=1 n=96 v=89
480 On ch=1 n=64 v=89
480 On ch=1 n=61 v=89
480 On ch=1 n=57 v=89
480 On ch=1 n=53 v=89
481 Off ch=1 n=76 v=85
495 Off ch=1 n=65 v=89
495 Off ch=1 n=62 v=89
495 Off ch=1 n=59 v=89
495 Off ch=1 n=55 v=89
505 Off ch=1 n=60 v=89
505 Off ch=1 n=56 v=89
510 Off ch=1 n=75 v=85
510 Off ch=1 n=73 v=85
510 Off ch=1 n=68 v=80
510 Off ch=1 n=53 v=80
519 Off ch=1 n=53 v=89
540 Off ch=1 n=81 v=85
540 On ch=1 n=79 v=85
540 On ch=1 n=73 v=85
540 On ch=1 n=71 v=85
540 On ch=1 n=51 v=89
540 On ch=1 n=65 v=80
540 Off ch=1 n=69 v=80
540 On ch=1 n=67 v=80
540 On ch=1 n=52 v=80
540 Off ch=1 n=45 v=80
540 Off ch=1 n=57 v=80
540 On ch=1 n=57 v=105
540 On ch=1 n=93 v=85
540 On ch=1 n=59 v=89
540 On ch=1 n=62 v=89
555 Off ch=1 n=86 v=85
555 Off ch=1 n=61 v=89
559 Par ch=1 c=64 v=0
559 Par ch=1 c=64 v=0
559 Par ch=1 c=64 v=0
559 Par ch=1 c=64 v=0
570 Off ch=1 n=96 v=89
570 On ch=1 n=96 v=89
570 On ch=1 n=108 v=89
570 On ch=1 n=81 v=89
570 On ch=1 n=76 v=89
570 Meta Lyric "'&) "
585 On ch=1 n=52 v=89
585 On ch=1 n=56 v=89
600 Off ch=1 n=79 v=85
600 On ch=1 n=79 v=85
600 Off ch=1 n=71 v=85
600 On ch=1 n=71 v=85
600 Off ch=1 n=52 v=80
600 Off ch=1 n=57 v=105
600 Off ch=1 n=76 v=89
600 Off ch=1 n=62 v=89
600 Off ch=1 n=59 v=89
600 Off ch=1 n=64 v=89
600 On ch=1 n=59 v=89
600 On ch=1 n=62 v=89
610 Off ch=1 n=81 v=89
610 On ch=1 n=96 v=89
615 Off ch=1 n=73 v=85
615 Off ch=1 n=65 v=80
615 On ch=1 n=64 v=80
622 Off ch=1 n=51 v=89
625 Off ch=1 n=53 v=89
630 Off ch=1 n=79 v=85
630 On ch=1 n=77 v=85
630 On ch=1 n=71 v=85
630 Off ch=1 n=71 v=85
630 On ch=1 n=69 v=85
630 Off ch=1 n=67 v=80
630 On ch=1 n=65 v=80
630 On ch=1 n=57 v=93
630 On ch=1 n=45 v=93
630 On ch=1 n=21 v=93
630 Off ch=1 n=91 v=85
630 Off ch=1 n=96 v=89
630 On ch=1 n=79 v=89
630 On ch=1 n=73 v=89
630 Off ch=1 n=62 v=89
630 Off ch=1 n=59 v=89
630 On ch=1 n=57 v=50
630 On ch=1 n=61 v=50
645 On ch=1 n=50 v=89
645 On ch=1 n=50 v=89
645 Off ch=1 n=57 v=89
645 On ch=1 n=57 v=89
645 On ch=1 n=53 v=89
652 Off ch=1 n=64 v=80
660 Off ch=1 n=77 v=85
660 On ch=1 n=86 v=85
675 Off ch=1 n=71 v=85
675 On ch=1 n=62 v=80
690 On ch=1 n=75 v=85
690 On ch=1 n=67 v=85
690 Off ch=1 n=65 v=80
690 On ch=1 n=64 v=80
690 Off ch=1 n=45 v=93
690 Off ch=1 n=57 v=93
690 On ch=1 n=57 v=84
690 On ch=1 n=21 v=84
690 Off ch=1 n=93 v=85
690 Off ch=1 n=73 v=89
690 Off ch=1 n=108 v=89
690 Off ch=1 n=96 v=89
690 On ch=1 n=73 v=89
690 Off ch=1 n=57 v=50
690 On ch=1 n=56 v=89
690 On ch=1 n=51 v=89
705 Off ch=1 n=69 v=85
720 Off ch=1 n=75 v=85
720 On ch=1 n=69 v=85
720 Off ch=1 n=86 v=85
720 On ch=1 n=95 v=85
720 On ch=1 n=86 v=85
720 Off ch=1 n=73 v=89
720 Off ch=1 n=79 v=89
720 On ch=1 n=77 v=89
720 On ch=1 n=71 v=89
720 Off ch=1 n=61 v=50
720 On ch=1 n=59 v=89
720 On ch=1 n=55 v=89
730 Off ch=1 n=56 v=89
730 Off ch=1 n=52 v=89
733 Off ch=1 n=53 v=89
735 Off ch=1 n=50 v=89
735 On ch=1 n=47 v=89
735 Off ch=1 n=62 v=80
735 On ch=1 n=60 v=80
750 On ch=1 n=73 v=85
750 Off ch=1 n=67 v=85
750 On ch=1 n=65 v=80
750 Off ch=1 n=64 v=80
750 On ch=1 n=61 v=80
750 Off ch=1 n=57 v=84
750 Off ch=1 n=21 v=93
750 On ch=1 n=57 v=76
750 On ch=1 n=45 v=76
753 Off ch=1 n=57 v=89
757 Off ch=1 n=71 v=89
765 Off ch=1 n=47 v=89
778 Off ch=1 n=51 v=89
780 Off ch=1 n=69 v=85
780 On ch=1 n=63 v=80
780 On ch=1 n=45 v=80
780 On ch=1 n=21 v=85
780 Off ch=1 n=55 v=89
780 Off ch=1 n=59 v=89
780 On ch=1 n=54 v=89
780 On ch=1 n=48 v=89
795 On ch=1 n=45 v=80
795 Off ch=1 n=60 v=80
795 Off ch=1 n=95 v=85
810 Off ch=1 n=73 v=85
810 On ch=1 n=71 v=85
810 Off ch=1 n=63 v=80
810 Off ch=1 n=61 v=80
810 On ch=1 n=59 v=105
810 Off ch=1 n=45 v=76
810 Off ch=1 n=57 v=76
810 Off ch=1 n=21 v=84
810 On ch=1 n=57 v=67
810 Off ch=1 n=77 v=89
810 On ch=1 n=75 v=89
810 On ch=1 n=69 v=89
825 Off ch=1 n=50 v=89
840 On ch=1 n=61 v=80
840 On ch=1 n=64 v=80
840 Off ch=1 n=45 v=80
840 On ch=1 n=43 v=105
840 On ch=1 n=91 v=85
840 On ch=1 n=50 v=89
840 On ch=1 n=46 v=89
855 Off ch=1 n=45 v=80
855 On ch=1 n=43 v=80
855 Off ch=1 n=21 v=85
867 Off ch=1 n=65 v=80
868 Off ch=1 n=48 v=89
870 Off ch=1 n=71 v=85
870 On ch=1 n=69 v=85
870 Off ch=1 n=59 v=105
870 On ch=1 n=57 v=50
870 Off ch=1 n=57 v=67
870 On ch=1 n=57 v=59
870 On ch=1 n=21 v=59
870 On ch=1 n=45 v=59
870 Off ch=1 n=86 v=85
885 Off ch=1 n=75 v=89
900 Off ch=1 n=61 v=80
900 Off ch=1 n=64 v=80
900 On ch=1 n=61 v=80
900 Off ch=1 n=43 v=105
900 Off ch=1 n=91 v=85
900 Off ch=1 n=69 v=89
900 On ch=1 n=73 v=80
900 On ch=1 n=67 v=80
900 Off ch=1 n=46 v=89
900 On ch=1 n=48 v=89
900 On ch=1 n=43 v=89
900 On ch=1 n=46 v=89
908 Off ch=1 n=56 v=89
915 Off ch=1 n=43 v=80
915 On ch=1 n=41 v=80
925 Off ch=1 n=54 v=89
930 Off ch=1 n=69 v=85
930 On ch=1 n=67 v=85
930 Off ch=1 n=57 v=50
930 Off ch=1 n=45 v=59
930 Off ch=1 n=21 v=59
930 Off ch=1 n=57 v=59
930 On ch=1 n=57 v=50
930 On ch=1 n=17 v=50
960 Off ch=1 n=61 v=80
960 On ch=1 n=57 v=80
960 Off ch=1 n=67 v=80
960 Off ch=1 n=73 v=80
960 On ch=1 n=71 v=80
960 On ch=1 n=65 v=80
960 Off ch=1 n=46 v=89
960 Off ch=1 n=48 v=89
960 On ch=1 n=48 v=89
960 On ch=1 n=41 v=89
960 On ch=1 n=46 v=89
963 Par ch=1 c=64 v=0
963 Par ch=1 c=64 v=0
963 Par ch=1 c=64 v=0
963 Par ch=1 c=64 v=0
975 Off ch=1 n=41 v=80
975 On ch=1 n=39 v=80
985 Off ch=1 n=50 v=89
990 Off ch=1 n=67 v=85
990 Off ch=1 n=17 v=50
990 Off ch=1 n=57 v=50
990 On ch=1 n=57 v=55
990 On ch=1 n=45 v=55
990 Off ch=1 n=65 v=80
1005 Off ch=1 n=57 v=80
1005 Off ch=1 n=45 v=55
1020 Off ch=1 n=39 v=80
1020 Off ch=1 n=57 v=55
1020 Off ch=1 n=71 v=80
1020 Off ch=1 n=46 v=89
1020 Off ch=1 n=41 v=89
1020 Off ch=1 n=48 v=89
1020 Off ch=1 n=43 v=89
1020 TimeSig 5/4 120 8
1020 On ch=1 n=65 v=85
1020 On ch=1 n=61 v=80
1020 On ch=1 n=37 v=80
1020 On ch=1 n=64 v=63
1020 On ch=1 n=63 v=63
1020 On ch=1 n=63 v=63
1020 On ch=1 n=48 v=55
1020 On ch=1 n=47 v=55
1020 On ch=1 n=47 v=55
1020 Par ch=1 c=64 v=0
1020 Par ch=1 c=64 v=0
1020 Par ch=1 c=64 v=0
1020 Par ch=1 c=64 v=0
1020 Par ch=1 c=64 v=0
1020 Par ch=1 c=64 v=0
1020 Par ch=1 c=64 v=0
1020 Par ch=1 c=64 v=0
1020 Par ch=1 c=64 v=0
1020 Par ch=1 c=64 v=0
1020 Par ch=1 c=64 v=0
1020 Par ch=1 c=64 v=0
1020 Par ch=1 c=64 v=0
1020 Par ch=1 c=64 v=0
1020 Par ch=1 c=64 v=0
1020 Par ch=1 c=64 v=0
1020 Par ch=1 c=64 v=0
1020 Par ch=1 c=64 v=0
1020 Par ch=1 c=64 v=0
1020 Par ch=1 c=64 v=0
1020 Par ch=1 c=64 v=0
1020 Par ch=1 c=64 v=0
1020 Par ch=1 c=64 v=0
1020 Par ch=1 c=64 v=0
1020 Par ch=1 c=64 v=127
1020 Par ch=1 c=64 v=127
1020 Par ch=1 c=64 v=127
1020 Par ch=1 c=64 v=127
1020 Par ch=1 c=64 v=127
1020 Par ch=1 c=64 v=127
1020 Par ch=1 c=64 v=127
1020 Par ch=1 c=64 v=127
1020 Par ch=1 c=64 v=127
1020 Par ch=1 c=64 v=127
1020 Par ch=1 c=64 v=127
1020 Par ch=1 c=64 v=127
1020 Par ch=1 c=64 v=127
1020 Par ch=1 c=64 v=127
1020 Par ch=1 c=64 v=127
1020 Par ch=1 c=64 v=127
1020 On ch=1 n=57 v=55
1020 On ch=1 n=57 v=55
1020 On ch=1 n=45 v=55
1020 On ch=1 n=88 v=85
1020 Par ch=1 c=64 v=0
1020 Par ch=1 c=64 v=0
1020 Par ch=1 c=64 v=0
1020 Par ch=1 c=64 v=0
1020 Par ch=1 c=64 v=0
1020 Par ch=1 c=64 v=0
1020 Par ch=1 c=64 v=0
1020 Par ch=1 c=64 v=0
1020 Par ch=1 c=64 v=0
1020 Par ch=1 c=64 v=0
1020 Par ch=1 c=64 v=0
1020 Par ch=1 c=64 v=0
1020 Par ch=1 c=64 v=127
1020 Par ch=1 c=64 v=127
1020 Par ch=1 c=64 v=127
1020 Par ch=1 c=64 v=127
1020 Par ch=1 c=64 v=127
1020 Par ch=1 c=64 v=127
1020 Par ch=1 c=64 v=127
1020 Par ch=1 c=64 v=127
1020 On ch=1 n=65 v=72
1020 On ch=1 n=51 v=72
1020 On ch=1 n=48 v=72
1021 Off ch=1 n=63 v=80
1021 Off ch=1 n=50 v=89
1050 Off ch=1 n=65 v=85
1050 Off ch=1 n=63 v=63
1050 Off ch=1 n=47 v=55
1050 Off ch=1 n=45 v=55
1080 Off ch=1 n=61 v=80
1080 Off ch=1 n=47 v=55
1080 Off ch=1 n=48 v=55
1080 Off ch=1 n=57 v=55
1080 Off ch=1 n=57 v=55
1080 On ch=1 n=57 v=55
1080 Off ch=1 n=88 v=85
1080 On ch=1 n=89 v=85
1080 Off ch=1 n=65 v=72
1080 On ch=1 n=65 v=72
1080 On ch=1 n=65 v=72
1080 Off ch=1 n=51 v=72
1080 On ch=1 n=53 v=72
1080 Off ch=1 n=48 v=72
1080 On ch=1 n=57 v=72
1140 Off ch=1 n=37 v=80
1140 Off ch=1 n=63 v=63
1140 Off ch=1 n=64 v=63
1140 Off ch=1 n=57 v=55
1140 On ch=1 n=45 v=55
1140 Off ch=1 n=89 v=85
1140 On ch=1 n=89 v=85
1140 On ch=1 n=95 v=85
1140 On ch=1 n=100 v=85
1140 On ch=1 n=95 v=85
1140 On ch=1 n=88 v=85
1140 Off ch=1 n=65 v=72
1140 Off ch=1 n=65 v=72
1140 On ch=1 n=65 v=72
1140 Off ch=1 n=53 v=72
1140 On ch=1 n=53 v=72
1140 Off ch=1 n=57 v=72
1140 On ch=1 n=57 v=72
1170 Off ch=1 n=45 v=55
1200 On ch=1 n=57 v=55
1200 On ch=1 n=45 v=55
1200 Off ch=1 n=89 v=85
1200 Off ch=1 n=88 v=85
1200 Off ch=1 n=65 v=72
1200 On ch=1 n=65 v=72
1200 Off ch=1 n=53 v=72
1200 On ch=1 n=53 v=72
1200 On ch=1 n=53 v=72
1200 Off ch=1 n=57 v=72
1200 On ch=1 n=57 v=72
1200 On ch=1 n=57 v=72
1230 Off ch=1 n=45 v=55
1230 Off ch=1 n=53 v=72
1230 Off ch=1 n=57 v=72
1260 Off ch=1 n=57 v=55
1260 On ch=1 n=57 v=55
1260 Off ch=1 n=95 v=85
1260 Off ch=1 n=100 v=85
1260 Off ch=1 n=95 v=85
1260 On ch=1 n=91 v=85
1260 Off ch=1 n=65 v=72
1260 On ch=1 n=65 v=72
1260 On ch=1 n=65 v=72
1260 Off ch=1 n=53 v=72
1260 On ch=1 n=53 v=72
1260 Off ch=1 n=57 v=72
1260 On ch=1 n=57 v=72
1320 Off ch=1 n=65 v=72
1320 Off ch=1 n=65 v=72
1320 On ch=1 n=65 v=72
1320 Off ch=1 n=53 v=72
1320 On ch=1 n=53 v=72
1320 Off ch=1 n=57 v=72
1320 On ch=1 n=57 v=72
1350 Off ch=1 n=57 v=55
1350 On ch=1 n=19 v=55
1350 Off ch=1 n=57 v=72
1380 Off ch=1 n=91 v=85
1380 Off ch=1 n=65 v=72
1380 On ch=1 n=65 v=72
1380 Off ch=1 n=53 v=72
1380 On ch=1 n=53 v=72
1380 On ch=1 n=53 v=72
1380 On ch=1 n=57 v=72
1380 On ch=1 n=57 v=72
1410 Off ch=1 n=19 v=55
1410 On ch=1 n=21 v=55
1410 On ch=1 n=57 v=55
1410 Off ch=1 n=57 v=72
1440 Off ch=1 n=65 v=72
1440 On ch=1 n=65 v=72
1440 On ch=1 n=65 v=72
1440 Off ch=1 n=53 v=72
1440 Off ch=1 n=53 v=72
1440 On ch=1 n=53 v=72
1440 Off ch=1 n=57 v=72
1440 On ch=1 n=57 v=72
1470 Off ch=1 n=57 v=55
1470 Off ch=1 n=21 v=55
1470 On ch=1 n=57 v=55
1470 Off ch=1 n=57 v=72
1500 On ch=1 n=47 v=85
1500 Off ch=1 n=65 v=72
1500 Off ch=1 n=65 v=72
1500 On ch=1 n=65 v=72
1500 Off ch=1 n=53 v=72
1500 On ch=1 n=53 v=72
1500 On ch=1 n=57 v=72
1500 On ch=1 n=47 v=85
1530 Off ch=1 n=57 v=55
1530 On ch=1 n=45 v=55
1560 Off ch=1 n=45 v=55
1560 Off ch=1 n=65 v=72
1560 On ch=1 n=65 v=72
1560 Off ch=1 n=53 v=72
1560 On ch=1 n=53 v=72
1560 On ch=1 n=53 v=72
1560 Off ch=1 n=57 v=72
1560 On ch=1 n=57 v=72
1590 On ch=1 n=57 v=55
1590 On ch=1 n=45 v=55
1620 Off ch=1 n=45 v=55
1620 Off ch=1 n=57 v=55
1620 Off ch=1 n=47 v=85
1620 Off ch=1 n=65 v=72
1620 Off ch=1 n=53 v=72
1620 Off ch=1 n=53 v=72
1620 Off ch=1 n=57 v=72
1620 Off ch=1 n=47 v=85
1621 Off ch=1 n=53 v=72
1621 Off ch=1 n=59 v=72
1621 Off ch=1 n=57 v=72
1621 Off ch=1 n=57 v=72
2220 TimeSig 9/8 120 8
2280 On ch=1 n=62 v=80
2310 On ch=1 n=64 v=80
2317 Off ch=1 n=62 v=80
2400 On ch=1 n=48 v=72
2430 On ch=1 n=62 v=80
2430 Meta Lyric ""
2460 Off ch=1 n=62 v=80
2460 Off ch=1 n=64 v=80
2460 On ch=1 n=64 v=80
2460 Off ch=1 n=48 v=72
2460 On ch=1 n=48 v=72
2490 On ch=1 n=65 v=72
2520 Off ch=1 n=48 v=72
2520 On ch=1 n=41 v=72
2540 Par ch=1 c=64 v=0
2540 Par ch=1 c=64 v=0
2540 Par ch=1 c=64 v=0
2540 Par ch=1 c=64 v=0
2558 Par ch=1 c=64 v=0
2558 Par ch=1 c=64 v=0
2558 Par ch=1 c=64 v=0
2558 Par ch=1 c=64 v=0
2558 Off ch=1 n=60 v=72
2558 Off ch=1 n=26 v=72
3187 On ch=1 n=48 v=80
3247 Off ch=1 n=48 v=80
3247 On ch=1 n=49 v=80
3277 Off ch=1 n=49 v=80
3277 On ch=1 n=50 v=80
3307 Off ch=1 n=50 v=80
3307 On ch=1 n=49 v=80
3337 Off ch=1 n=49 v=80
3337 On ch=1 n=48 v=80
3397 Off ch=1 n=48 v=80
3397 On ch=1 n=48 v=80
3457 Off ch=1 n=48 v=80
3457 On ch=1 n=41 v=80
3487 Off ch=1 n=41 v=80
3517 Off ch=1 n=64 v=80
3517 On ch=1 n=64 v=80
3517 Off ch=1 n=41 v=72
3517 On ch=1 n=53 v=72
3547 On ch=1 n=53 v=80
3547 Off ch=1 n=65 v=72
3582 Par ch=1 c=64 v=0
3582 Par ch=1 c=64 v=0
3582 Par ch=1 c=64 v=0
3582 Par ch=1 c=64 v=0
3582 Off ch=1 n=45 v=55
3582 Off ch=1 n=21 v=55
4631 Off ch=1 n=53 v=80
4631 On ch=1 n=65 v=72
4661 Off ch=1 n=64 v=80
4661 On ch=1 n=65 v=80
4661 Off ch=1 n=53 v=72
4691 Off ch=1 n=65 v=72
4691 On ch=1 n=64 v=72
4706 Off ch=1 n=64 v=72
4721 Off ch=1 n=65 v=80
4721 TimeSig 4/4 120 8
4722 Off ch=1 n=65 v=80
4722 Off ch=1 n=67 v=80
5861 On ch=1 n=41 v=80
5921 Off ch=1 n=41 v=80
6161 On ch=1 n=47 v=80
6191 Off ch=1 n=47 v=80
6221 On ch=1 n=48 v=80
6281 Off ch=1 n=48 v=80
6281 On ch=1 n=50 v=80
6461 Off ch=1 n=50 v=80
6461 On ch=1 n=50 v=80
6521 Off ch=1 n=50 v=80
6581 On ch=1 n=48 v=80
6641 Off ch=1 n=48 v=80
7121 On ch=1 n=57 v=80
7181 Off ch=1 n=57 v=80
7181 On ch=1 n=57 v=80
7241 Off ch=1 n=57 v=80
7241 On ch=1 n=57 v=80
7271 Off ch=1 n=57 v=80
7301 On ch=1 n=57 v=80
7361 Off ch=1 n=57 v=80
7361 On ch=1 n=57 v=80
7361 On ch=1 n=45 v=80
7391 Off ch=1 n=45 v=80
7421 Off ch=1 n=57 v=80
7421 On ch=1 n=43 v=80
7481 Off ch=1 n=43 v=80
7481 On ch=1 n=57 v=80
7481 On ch=1 n=45 v=80
7481 On ch=1 n=17 v=80
7481 On ch=1 n=23 v=80
7481 On ch=1 n=16 v=80
7541 Off ch=1 n=45 v=80
7601 Off ch=1 n=16 v=80
7601 Off ch=1 n=23 v=80
7601 Off ch=1 n=17 v=80
7601 Off ch=1 n=57 v=80
8561 TimeSig 9/8 120 8
8561 On ch=1 n=89 v=55
8561 Meta Lyric "Piano "
8561 On ch=1 n=69 v=80
8561 On ch=1 n=65 v=80
8561 On ch=1 n=69 v=80
8561 On ch=1 n=62 v=80
8591 Off ch=1 n=62 v=80
8591 On ch=1 n=62 v=80
8591 On ch=1 n=62 v=80
8606 On ch=1 n=48 v=80
8606 On ch=1 n=57 v=80
8621 Off ch=1 n=69 v=80
8621 On ch=1 n=61 v=80
8621 On ch=1 n=61 v=80
8621 Off ch=1 n=69 v=80
8621 Off ch=1 n=65 v=80
8621 On ch=1 n=61 v=80
8621 On ch=1 n=61 v=80
8621 Off ch=1 n=62 v=80
8621 Off ch=1 n=62 v=80
8621 On ch=1 n=60 v=80
8621 On ch=1 n=60 v=80
8651 Off ch=1 n=60 v=80
8651 Off ch=1 n=60 v=80
8651 On ch=1 n=61 v=80
8651 On ch=1 n=61 v=80
8658 Off ch=1 n=61 v=80
8658 Off ch=1 n=61 v=80
8666 Off ch=1 n=57 v=80
8666 Off ch=1 n=48 v=80
8666 On ch=1 n=49 v=80
8666 On ch=1 n=49 v=80
8681 Off ch=1 n=89 v=55
8681 On ch=1 n=89 v=55
8681 Off ch=1 n=61 v=80
8681 Off ch=1 n=61 v=80
8681 On ch=1 n=62 v=80
8681 On ch=1 n=62 v=80
8696 Off ch=1 n=49 v=80
8696 Off ch=1 n=49 v=80
8696 On ch=1 n=50 v=80
8696 On ch=1 n=50 v=80
8741 Off ch=1 n=61 v=80
8741 On ch=1 n=62 v=80
8741 On ch=1 n=62 v=80
8741 Meta Lyric "A "
8741 Off ch=1 n=61 v=80
8741 On ch=1 n=62 v=80
8741 On ch=1 n=62 v=80
8741 Off ch=1 n=62 v=80
8741 Off ch=1 n=62 v=80
8741 On ch=1 n=55 v=80
8741 On ch=1 n=63 v=80
8756 Off ch=1 n=50 v=80
8756 Off ch=1 n=50 v=80
8756 On ch=1 n=49 v=80
8756 On ch=1 n=50 v=80
8771 Off ch=1 n=63 v=80
8801 Off ch=1 n=89 v=55
8801 On ch=1 n=89 v=55
8801 Off ch=1 n=62 v=80
8801 Off ch=1 n=62 v=80
8801 On ch=1 n=63 v=80
8801 On ch=1 n=63 v=80
8801 Off ch=1 n=62 v=80
8801 Off ch=1 n=62 v=80
8801 On ch=1 n=58 v=80
8801 On ch=1 n=63 v=80
8801 Off ch=1 n=55 v=80
8801 On ch=1 n=55 v=80
8801 On ch=1 n=64 v=80
8816 Off ch=1 n=49 v=80
8816 On ch=1 n=48 v=80
8816 On ch=1 n=52 v=80
8834 Off ch=1 n=50 v=80
8861 Off ch=1 n=63 v=80
8861 Off ch=1 n=63 v=80
8861 On ch=1 n=64 v=80
8861 On ch=1 n=64 v=80
8861 Off ch=1 n=63 v=80
8861 Off ch=1 n=58 v=80
8861 On ch=1 n=58 v=80
8861 On ch=1 n=64 v=80
8861 Off ch=1 n=64 v=80
8861 Off ch=1 n=55 v=80
8861 On ch=1 n=55 v=80
8861 On ch=1 n=65 v=80
8876 Off ch=1 n=52 v=80
8876 Off ch=1 n=48 v=80
8876 On ch=1 n=41 v=80
8876 On ch=1 n=53 v=80
8876 Meta Lyric "V "
8921 Off ch=1 n=89 v=55
8921 On ch=1 n=89 v=55
8921 Off ch=1 n=64 v=80
8921 Off ch=1 n=64 v=80
8921 On ch=1 n=65 v=80
8921 On ch=1 n=65 v=80
8921 Off ch=1 n=64 v=80
8921 Off ch=1 n=58 v=80
8921 On ch=1 n=58 v=80
8921 On ch=1 n=65 v=80
8921 Off ch=1 n=65 v=80
8921 Off ch=1 n=55 v=80
8921 On ch=1 n=61 v=80
8921 On ch=1 n=65 v=80
8921 Meta Lyric "tn "
8936 Off ch=1 n=41 v=80
8936 Off ch=1 n=53 v=80
8981 Off ch=1 n=65 v=80
8981 Off ch=1 n=65 v=80
8981 Off ch=1 n=65 v=80
8981 Off ch=1 n=58 v=80
8996 On ch=1 n=53 v=80
8996 On ch=1 n=53 v=80
9041 Off ch=1 n=89 v=55
9041 On ch=1 n=89 v=55
9041 On ch=1 n=64 v=80
9041 Meta Lyric "A"
9041 On ch=1 n=57 v=80
9041 On ch=1 n=65 v=80
9041 Off ch=1 n=65 v=80
9041 Off ch=1 n=61 v=80
9101 Off ch=1 n=89 v=55
9101 Off ch=1 n=64 v=80
9101 Off ch=1 n=65 v=80
9101 Off ch=1 n=57 v=80
9101 Off ch=1 n=53 v=80
9101 Off ch=1 n=53 v=80
9101 TimeSig 4/4 120 8
9101 On ch=1 n=74 v=80
9101 On ch=1 n=74 v=80
9101 Meta Lyric "o,ld "
9101 On ch=1 n=62 v=80
9101 On ch=1 n=71 v=80
9101 On ch=1 n=47 v=72
9101 On ch=1 n=45 v=72
9101 Meta Lyric "urc "
9101 On ch=1 n=47 v=80
9101 On ch=1 n=29 v=80
9138 Off ch=1 n=45 v=72
9161 On ch=1 n=45 v=72
9161 On ch=1 n=47 v=72
9161 On ch=1 n=47 v=72
9161 On ch=1 n=45 v=72
9176 Off ch=1 n=47 v=72
9218 Off ch=1 n=47 v=72
9221 On ch=1 n=62 v=80
9221 On ch=1 n=47 v=72
9221 On ch=1 n=45 v=72
9221 Off ch=1 n=29 v=80
9221 On ch=1 n=59 v=80
9221 On ch=1 n=47 v=80
9257 Off ch=1 n=47 v=80
9277 Off ch=1 n=45 v=72
9281 On ch=1 n=53 v=80
9281 Off ch=1 n=45 v=72
9281 Off ch=1 n=47 v=72
9281 On ch=1 n=47 v=72
9281 On ch=1 n=45 v=72
9281 Off ch=1 n=59 v=80
9311 Off ch=1 n=47 v=80
9314 Off ch=1 n=45 v=72
9341 Off ch=1 n=74 v=80
9341 Off ch=1 n=74 v=80
9341 On ch=1 n=73 v=80
9341 On ch=1 n=73 v=80
9341 Meta Lyric "t "
9341 Off ch=1 n=71 v=80
9341 Off ch=1 n=62 v=80
9341 On ch=1 n=61 v=80
9341 On ch=1 n=71 v=80
9341 Off ch=1 n=53 v=80
9341 Off ch=1 n=47 v=72
9341 Off ch=1 n=47 v=72
9341 On ch=1 n=45 v=72
9341 On ch=1 n=47 v=72
9371 Off ch=1 n=47 v=72
9371 Off ch=1 n=45 v=72
9371 On ch=1 n=53 v=80
9371 On ch=1 n=41 v=80
9401 Off ch=1 n=45 v=72
9431 Off ch=1 n=53 v=80
9461 Off ch=1 n=73 v=80
9461 Off ch=1 n=73 v=80
9461 On ch=1 n=74 v=80
9461 On ch=1 n=74 v=80
9461 Off ch=1 n=71 v=80
9461 Off ch=1 n=61 v=80
9461 On ch=1 n=62 v=80
9461 On ch=1 n=71 v=80
9461 Off ch=1 n=62 v=80
9461 On ch=1 n=53 v=80
9461 Off ch=1 n=41 v=80
9491 On ch=1 n=59 v=80
9491 On ch=1 n=47 v=80
9521 Off ch=1 n=53 v=80
9551 Off ch=1 n=47 v=80
9551 Off ch=1 n=59 v=80
9581 Off ch=1 n=74 v=80
9581 Off ch=1 n=74 v=80
9581 Off ch=1 n=71 v=80
9581 Off ch=1 n=62 v=80
9581 On ch=1 n=69 v=80
9581 On ch=1 n=62 v=80
9581 On ch=1 n=65 v=80
9581 On ch=1 n=69 v=80
9581 On ch=1 n=57 v=80
9581 Meta Lyric "l "
9581 On ch=1 n=47 v=72
9581 On ch=1 n=45 v=72
9581 On ch=1 n=59 v=80
9581 On ch=1 n=47 v=80
9611 Off ch=1 n=69 v=80
9611 Off ch=1 n=65 v=80
9611 Off ch=1 n=57 v=80
9641 Off ch=1 n=62 v=80
9641 Off ch=1 n=69 v=80
9641 On ch=1 n=72 v=80
9641 On ch=1 n=62 v=80
9641 On ch=1 n=65 v=80
9641 On ch=1 n=72 v=80
9641 On ch=1 n=60 v=80
9641 On ch=1 n=53 v=80
9641 On ch=1 n=45 v=72
9641 On ch=1 n=47 v=72
9641 Off ch=1 n=47 v=80
9641 Off ch=1 n=59 v=80
9656 Off ch=1 n=45 v=72
9656 Off ch=1 n=47 v=72
9678 Off ch=1 n=47 v=72
9701 Off ch=1 n=62 v=80
9701 Off ch=1 n=72 v=80
9701 On ch=1 n=71 v=80
9701 On ch=1 n=62 v=80
9701 Off ch=1 n=72 v=80
9701 Off ch=1 n=65 v=80
9701 On ch=1 n=65 v=80
9701 On ch=1 n=71 v=80
9701 Off ch=1 n=60 v=80
9701 Off ch=1 n=45 v=72
9701 On ch=1 n=47 v=72
9701 On ch=1 n=45 v=72
9701 On ch=1 n=53 v=80
9701 On ch=1 n=41 v=80
9761 Off ch=1 n=62 v=80
9761 Off ch=1 n=71 v=80
9761 On ch=1 n=67 v=80
9761 On ch=1 n=67 v=80
9761 Off ch=1 n=71 v=80
9761 Off ch=1 n=65 v=80
9761 On ch=1 n=62 v=80
9761 On ch=1 n=65 v=80
9761 Off ch=1 n=53 v=80
9761 On ch=1 n=59 v=80
9761 On ch=1 n=45 v=72
9761 On ch=1 n=47 v=72
9761 Off ch=1 n=41 v=80
9761 Off ch=1 n=53 v=80
9776 Off ch=1 n=45 v=72
9776 Off ch=1 n=47 v=72
9798 Off ch=1 n=47 v=72
9821 Off ch=1 n=67 v=80
9821 Off ch=1 n=67 v=80
9821 On ch=1 n=69 v=80
9821 On ch=1 n=62 v=80
9821 Off ch=1 n=65 v=80
9821 Off ch=1 n=62 v=80
9821 On ch=1 n=57 v=80
9821 On ch=1 n=65 v=80
9821 Off ch=1 n=59 v=80
9821 On ch=1 n=55 v=80
9821 On ch=1 n=53 v=80
9821 Off ch=1 n=45 v=72
9821 On ch=1 n=47 v=72
9821 On ch=1 n=45 v=72
9821 On ch=1 n=59 v=80
9821 On ch=1 n=47 v=80
9836 Off ch=1 n=65 v=80
9836 Off ch=1 n=57 v=80
9851 Off ch=1 n=69 v=80
9851 On ch=1 n=64 v=80
9858 Off ch=1 n=45 v=72
9866 Off ch=1 n=62 v=80
9866 On ch=1 n=67 v=80
9866 On ch=1 n=67 v=80
9881 Off ch=1 n=64 v=80
9881 On ch=1 n=62 v=80
9881 Off ch=1 n=55 v=80
9881 On ch=1 n=45 v=72
9881 On ch=1 n=47 v=72
9881 Off ch=1 n=47 v=80
9881 Off ch=1 n=59 v=80
9896 Off ch=1 n=67 v=80
9896 Off ch=1 n=67 v=80
9896 On ch=1 n=65 v=80
9896 On ch=1 n=65 v=80
9896 Off ch=1 n=47 v=72
9927 Off ch=1 n=47 v=72
9941 Off ch=1 n=62 v=80
9941 On ch=1 n=62 v=80
9941 Off ch=1 n=45 v=72
9941 On ch=1 n=47 v=72
9941 On ch=1 n=45 v=72
9941 On ch=1 n=53 v=80
9941 On ch=1 n=41 v=80
9956 Off ch=1 n=65 v=80
9956 Off ch=1 n=65 v=80
9956 On ch=1 n=65 v=80
9956 On ch=1 n=65 v=80
9978 Off ch=1 n=45 v=72
9980 Off ch=1 n=41 v=80
10001 Off ch=1 n=62 v=80
10001 On ch=1 n=62 v=80
10001 Off ch=1 n=53 v=80
10001 On ch=1 n=57 v=80
10001 On ch=1 n=45 v=72
10001 Off ch=1 n=53 v=80
10016 Off ch=1 n=65 v=80
10016 Off ch=1 n=65 v=80
10016 On ch=1 n=65 v=80
10016 On ch=1 n=65 v=80
10016 Meta Lyric "A"
10016 Off ch=1 n=57 v=80
10016 Off ch=1 n=47 v=72
10031 Off ch=1 n=62 v=80
10031 On ch=1 n=55 v=80
10061 Off ch=1 n=65 v=80
10061 Off ch=1 n=65 v=80
10061 Off ch=1 n=55 v=80
10061 Off ch=1 n=45 v=72
10061 On ch=1 n=74 v=80
10061 On ch=1 n=74 v=80
10061 On ch=1 n=62 v=80
10061 On ch=1 n=71 v=80
10061 On ch=1 n=62 v=80
10061 On ch=1 n=47 v=72
10061 On ch=1 n=45 v=72
10062 Off ch=1 n=53 v=80
10062 Off ch=1 n=47 v=72
10121 Off ch=1 n=45 v=72
10121 On ch=1 n=45 v=72
10121 On ch=1 n=47 v=72
10121 On ch=1 n=59 v=80
10121 On ch=1 n=47 v=80
10143 Off ch=1 n=47 v=72
10143 Off ch=1 n=45 v=72
10181 Off ch=1 n=74 v=80
10181 Off ch=1 n=74 v=80
10181 On ch=1 n=74 v=80
10181 On ch=1 n=74 v=80
10181 Meta Lyric "A "
10181 Off ch=1 n=71 v=80
10181 Off ch=1 n=62 v=80
10181 On ch=1 n=62 v=80
10181 On ch=1 n=71 v=80
10181 Off ch=1 n=62 v=80
10181 On ch=1 n=62 v=80
10181 On ch=1 n=53 v=80
10181 Off ch=1 n=47 v=72
10181 On ch=1 n=47 v=72
10181 On ch=1 n=45 v=72
10181 Off ch=1 n=47 v=80
10181 Off ch=1 n=59 v=80
10241 Off ch=1 n=74 v=80
10241 Off ch=1 n=53 v=80
10241 Off ch=1 n=45 v=72
10241 On ch=1 n=45 v=72
10241 On ch=1 n=47 v=72
10241 On ch=1 n=53 v=80
10241 On ch=1 n=41 v=80
10259 Off ch=1 n=47 v=72
10271 Off ch=1 n=53 v=80
10278 Off ch=1 n=47 v=72
10301 Off ch=1 n=74 v=80
10301 On ch=1 n=73 v=80
10301 On ch=1 n=73 v=80
10301 Off ch=1 n=71 v=80
10301 Off ch=1 n=62 v=80
10301 On ch=1 n=61 v=80
10301 On ch=1 n=71 v=80
10301 Off ch=1 n=62 v=80
10301 On ch=1 n=60 v=80
10301 On ch=1 n=53 v=80
10301 Off ch=1 n=45 v=72
10301 On ch=1 n=47 v=72
10301 On ch=1 n=45 v=72
10301 Off ch=1 n=41 v=80
10347 Off ch=1 n=47 v=72
10361 On ch=1 n=45 v=72
10361 On ch=1 n=47 v=72
10361 On ch=1 n=59 v=80
10361 On ch=1 n=47 v=80
10376 Off ch=1 n=53 v=80
10391 Off ch=1 n=47 v=80
10394 Off ch=1 n=45 v=72
10407 Off ch=1 n=47 v=72
10421 Off ch=1 n=73 v=80
10421 Off ch=1 n=73 v=80
10421 On ch=1 n=74 v=80
10421 On ch=1 n=74 v=80
10421 Off ch=1 n=71 v=80
10421 On ch=1 n=62 v=80
10421 On ch=1 n=71 v=80
10421 On ch=1 n=62 v=80
10421 On ch=1 n=53 v=80
10421 Off ch=1 n=45 v=72
10421 On ch=1 n=47 v=72
10421 On ch=1 n=45 v=90
10421 Off ch=1 n=59 v=80
10451 Off ch=1 n=61 v=80
10451 Off ch=1 n=60 v=80
10481 On ch=1 n=45 v=72
10481 On ch=1 n=53 v=80
10481 On ch=1 n=41 v=80
10496 Off ch=1 n=53 v=80
10518 Off ch=1 n=45 v=90
10518 Off ch=1 n=47 v=72
10541 Off ch=1 n=74 v=80
10541 Off ch=1 n=74 v=80
10541 Off ch=1 n=71 v=80
10541 Off ch=1 n=62 v=80
10541 Off ch=1 n=62 v=80
10541 Off ch=1 n=45 v=72
10541 Off ch=1 n=41 v=80
10541 Off ch=1 n=53 v=80
10541 On ch=1 n=71 v=80
10541 On ch=1 n=65 v=80
10541 On ch=1 n=74 v=80
10541 On ch=1 n=67 v=80
10541 On ch=1 n=59 v=80
10541 On ch=1 n=47 v=72
10541 On ch=1 n=45 v=72
10541 On ch=1 n=59 v=80
10541 On ch=1 n=47 v=80
10542 Off ch=1 n=47 v=72
10571 Off ch=1 n=59 v=80
10571 Off ch=1 n=47 v=80
10601 Off ch=1 n=45 v=72
10601 On ch=1 n=45 v=72
10601 On ch=1 n=47 v=72
10601 On ch=1 n=60 v=80
10601 On ch=1 n=48 v=80
10616 Off ch=1 n=47 v=72
10631 Off ch=1 n=47 v=72
10631 Off ch=1 n=45 v=72
10661 On ch=1 n=79 v=80
10661 On ch=1 n=47 v=72
10661 On ch=1 n=45 v=72
10661 Off ch=1 n=48 v=80
10661 Off ch=1 n=60 v=80
10661 On ch=1 n=60 v=80
10661 On ch=1 n=64 v=80
10661 On ch=1 n=50 v=80
10721 Off ch=1 n=67 v=80
10721 On ch=1 n=65 v=80
10721 Off ch=1 n=45 v=72
10721 Off ch=1 n=47 v=72
10721 On ch=1 n=45 v=72
10721 On ch=1 n=47 v=72
10721 Meta Lyric "v- "
10758 Off ch=1 n=47 v=72
10781 Off ch=1 n=74 v=80
10781 Off ch=1 n=65 v=80
10781 On ch=1 n=65 v=80
10781 On ch=1 n=71 v=80
10781 Off ch=1 n=59 v=80
10781 Off ch=1 n=45 v=72
10781 On ch=1 n=47 v=72
10781 On ch=1 n=45 v=72
10781 Off ch=1 n=64 v=80
10781 Off ch=1 n=60 v=80
10841 Off ch=1 n=79 v=80
10841 On ch=1 n=77 v=80
10841 Off ch=1 n=47 v=72
10841 On ch=1 n=45 v=72
10841 On ch=1 n=47 v=72
10841 Meta Lyric "- "
10841 Off ch=1 n=50 v=80
10841 On ch=1 n=62 v=80
10841 On ch=1 n=50 v=80
10871 Off ch=1 n=47 v=72
10871 Off ch=1 n=45 v=72
10901 Off ch=1 n=71 v=80
10901 Off ch=1 n=65 v=80
10901 On ch=1 n=65 v=80
10901 On ch=1 n=71 v=80
10901 On ch=1 n=59 v=80
10901 On ch=1 n=62 v=80
10901 Off ch=1 n=45 v=72
10901 On ch=1 n=45 v=72
10901 On ch=1 n=47 v=72
10901 On ch=1 n=48 v=72
10901 Meta Lyric "- "
10901 Off ch=1 n=50 v=80
10916 Off ch=1 n=77 v=80
10946 Off ch=1 n=65 v=80
10961 Off ch=1 n=48 v=72
10961 Off ch=1 n=47 v=72
10961 On ch=1 n=47 v=72
10961 On ch=1 n=48 v=72
10961 Off ch=1 n=62 v=80
10961 On ch=1 n=60 v=80
10961 On ch=1 n=48 v=80
10976 Off ch=1 n=59 v=80
11021 Off ch=1 n=71 v=80
11021 Off ch=1 n=71 v=80
11021 Off ch=1 n=65 v=80
11021 Off ch=1 n=62 v=80
11021 Off ch=1 n=48 v=72
11021 Off ch=1 n=47 v=72
11021 Off ch=1 n=45 v=72
11021 Off ch=1 n=48 v=80
11021 On ch=1 n=48 v=80
11021 Meta Lyric "o "
11021 Meta Lyric "co "
11021 Meta Lyric "ano "
11021 On ch=1 n=48 v=72
11021 On ch=1 n=47 v=72
11021 Meta Lyric "-V "
11021 On ch=1 n=48 v=80
11081 On ch=1 n=71 v=55
11081 On ch=1 n=76 v=55
11081 On ch=1 n=79 v=55
11081 On ch=1 n=84 v=55
11111 Off ch=1 n=84 v=55
11111 Off ch=1 n=79 v=55
11111 Off ch=1 n=76 v=55
11111 Off ch=1 n=71 v=55
11111 On ch=1 n=84 v=55
11141 On ch=1 n=79 v=72
11141 On ch=1 n=76 v=72
11141 On ch=1 n=41 v=85
11141 On ch=1 n=41 v=85
11141 Off ch=1 n=57 v=80
11141 On ch=1 n=53 v=80
11141 On ch=1 n=36 v=72
11141 On ch=1 n=47 v=72
11141 Off ch=1 n=48 v=80
11141 Off ch=1 n=60 v=80
11141 On ch=1 n=53 v=55
11141 On ch=1 n=40 v=55
11156 Off ch=1 n=76 v=72
11171 Off ch=1 n=79 v=72
11171 Off ch=1 n=84 v=55
11171 On ch=1 n=74 v=55
11171 On ch=1 n=76 v=55
11171 On ch=1 n=83 v=55
11171 On ch=1 n=87 v=55
11171 Off ch=1 n=40 v=55
11201 Off ch=1 n=48 v=80
11201 Off ch=1 n=87 v=55
11201 Off ch=1 n=83 v=55
11201 Off ch=1 n=76 v=55
11201 Off ch=1 n=74 v=55
11201 Off ch=1 n=41 v=85
11201 Off ch=1 n=53 v=80
11201 Off ch=1 n=47 v=72
11201 Off ch=1 n=36 v=72
11201 Off ch=1 n=47 v=72
11201 Off ch=1 n=48 v=72
11201 Off ch=1 n=53 v=55
11231 On ch=1 n=78 v=72
11246 Off ch=1 n=78 v=72
11261 On ch=1 n=83 v=72
11261 On ch=1 n=81 v=72
11261 On ch=1 n=41 v=80
11261 Off ch=1 n=41 v=85
11261 On ch=1 n=41 v=85
11261 Off ch=1 n=76 v=80
11261 On ch=1 n=74 v=89
11261 Meta Lyric "A "
11261 Off ch=1 n=76 v=80
11261 Off ch=1 n=65 v=80
11261 On ch=1 n=64 v=80
11261 On ch=1 n=74 v=80
11261 Off ch=1 n=64 v=80
11261 On ch=1 n=62 v=80
11261 On ch=1 n=48 v=72
11261 On ch=1 n=47 v=72
11261 On ch=1 n=60 v=55
11261 On ch=1 n=47 v=55
11276 Off ch=1 n=83 v=72
11276 Off ch=1 n=81 v=72
11291 Off ch=1 n=74 v=89
11309 Off ch=1 n=48 v=72
11321 On ch=1 n=85 v=72
11321 Off ch=1 n=41 v=85
11321 On ch=1 n=76 v=105
11321 On ch=1 n=69 v=50
11321 Off ch=1 n=74 v=80
11321 Off ch=1 n=64 v=80
11321 On ch=1 n=69 v=80
11321 On ch=1 n=65 v=80
11321 On ch=1 n=47 v=72
11321 On ch=1 n=48 v=72
11321 Off ch=1 n=47 v=55
11321 Off ch=1 n=60 v=55
11336 On ch=1 n=84 v=72
11336 Meta Lyric "oco "
11336 Off ch=1 n=47 v=72
11351 Off ch=1 n=85 v=72
11351 Off ch=1 n=62 v=80
11351 On ch=1 n=64 v=80
11351 On ch=1 n=53 v=80
11358 Off ch=1 n=48 v=72
11366 Off ch=1 n=84 v=72
11366 Meta Lyric "rt "
11381 Off ch=1 n=41 v=80
11381 Meta Lyric "Ga "
11381 Off ch=1 n=47 v=72
11381 On ch=1 n=48 v=72
11381 On ch=1 n=47 v=72
11381 On ch=1 n=53 v=55
11381 On ch=1 n=41 v=55
11411 On ch=1 n=88 v=72
11411 Meta Lyric "& "
11411 Off ch=1 n=53 v=80
11411 Off ch=1 n=41 v=55
11441 Off ch=1 n=88 v=72
11441 Meta Lyric "corit "
11441 On ch=1 n=48 v=80
11441 On ch=1 n=53 v=55
11441 Meta Lyric "n "
11441 On ch=1 n=69 v=105
11441 Off ch=1 n=65 v=80
11441 Off ch=1 n=53 v=55
11441 On ch=1 n=60 v=55
11441 On ch=1 n=48 v=55
11471 On ch=1 n=24 v=55
11471 On ch=1 n=74 v=55
11471 On ch=1 n=76 v=55
11471 On ch=1 n=83 v=55
11471 On ch=1 n=53 v=80
11486 On ch=1 n=80 v=63
11501 Off ch=1 n=80 v=63
11501 Off ch=1 n=48 v=80
11501 Meta Lyric "leo "
11501 Off ch=1 n=83 v=55
11501 Off ch=1 n=76 v=55
11501 Off ch=1 n=74 v=55
11501 Off ch=1 n=24 v=55
11501 Off ch=1 n=53 v=55
11501 Meta Lyric "O "
11501 Off ch=1 n=76 v=105
11501 Off ch=1 n=69 v=105
11501 Off ch=1 n=69 v=50
11501 Meta Lyric "ovrlit. "
11501 Off ch=1 n=69 v=80
11501 Off ch=1 n=53 v=80
11501 Off ch=1 n=47 v=72
11501 Off ch=1 n=48 v=72
11501 Off ch=1 n=48 v=55
11501 Off ch=1 n=60 v=55
11501 On ch=1 n=74 v=63
11502 Off ch=1 n=61 v=63
11502 Off ch=1 n=64 v=63
11502 Off ch=1 n=63 v=63
11502 Off ch=1 n=41 v=89
11502 Off ch=1 n=59 v=89
11502 Off ch=1 n=47 v=89
11502 Off ch=1 n=53 v=89
11561 Meta Lyric "m "
11561 Off ch=1 n=79 v=72
11620 Meta Lyric "ui "
11620 Off ch=1 n=73 v=89
11620 Off ch=1 n=71 v=89
11679 Off ch=1 n=77 v=72
11679 On ch=1 n=80 v=72
11679 Off ch=1 n=74 v=63
11679 On ch=1 n=77 v=63
11679 On ch=1 n=61 v=55
11679 On ch=1 n=47 v=55
11679 On ch=1 n=59 v=89
11679 On ch=1 n=47 v=89
11694 Off ch=1 n=61 v=55
11694 On ch=1 n=64 v=55
11709 Off ch=1 n=77 v=63
11709 On ch=1 n=81 v=63
11739 Off ch=1 n=80 v=72
11739 On ch=1 n=84 v=72
11739 On ch=1 n=77 v=63
11739 Off ch=1 n=47 v=55
11739 On ch=1 n=71 v=89
11739 On ch=1 n=74 v=89
11739 Off ch=1 n=47 v=89
11739 Off ch=1 n=59 v=89
11748 Off ch=1 n=81 v=63
11754 Off ch=1 n=64 v=55
11754 On ch=1 n=63 v=55
11769 Off ch=1 n=77 v=63
11769 On ch=1 n=81 v=63
11799 Off ch=1 n=84 v=72
11799 On ch=1 n=80 v=72
11799 Off ch=1 n=81 v=63
11799 On ch=1 n=69 v=55
11799 Off ch=1 n=63 v=55
11799 On ch=1 n=41 v=55
11799 Off ch=1 n=74 v=89
11799 Off ch=1 n=71 v=89
11799 On ch=1 n=71 v=89
11799 On ch=1 n=74 v=89
11799 On ch=1 n=53 v=89
11799 On ch=1 n=41 v=89
11814 Off ch=1 n=80 v=72
11829 On ch=1 n=84 v=72
11829 On ch=1 n=83 v=63
11829 On ch=1 n=76 v=89
11844 On ch=1 n=64 v=55
11845 Off ch=1 n=74 v=89
11859 Meta Lyric "-. "
11859 Off ch=1 n=83 v=63
11859 Off ch=1 n=69 v=55
11859 Off ch=1 n=41 v=89
11859 Off ch=1 n=53 v=89
11874 Off ch=1 n=64 v=55
11889 Off ch=1 n=84 v=72
11889 On ch=1 n=86 v=72
11889 On ch=1 n=84 v=63
11904 On ch=1 n=63 v=55
11919 Off ch=1 n=41 v=55
11919 On ch=1 n=47 v=55
11919 Off ch=1 n=71 v=89
11919 On ch=1 n=71 v=89
11919 On ch=1 n=74 v=89
11919 On ch=1 n=59 v=89
11919 On ch=1 n=47 v=89
11941 Off ch=1 n=76 v=89
11949 Off ch=1 n=86 v=72
11949 On ch=1 n=88 v=72
11949 Off ch=1 n=59 v=89
11964 On ch=1 n=62 v=55
11979 Meta Lyric "ee"t "
11979 On ch=1 n=47 v=80
11980 Off ch=1 n=41 v=80
12039 Off ch=1 n=47 v=80
12039 On ch=1 n=53 v=80
12069 Off ch=1 n=53 v=80
12099 On ch=1 n=41 v=80
12159 Off ch=1 n=41 v=80
12159 On ch=1 n=53 v=80
12219 Off ch=1 n=53 v=80
12219 On ch=1 n=47 v=80
12279 Off ch=1 n=47 v=80
12279 On ch=1 n=50 v=80
12309 Off ch=1 n=50 v=80
12339 Meta Lyric "V "
12339 On ch=1 n=45 v=80
12339 Off ch=1 n=63 v=55
12339 Off ch=1 n=47 v=89
12339 On ch=1 n=57 v=89
12339 On ch=1 n=45 v=89
12354 Off ch=1 n=62 v=55
12369 Meta Lyric "vo "
12369 Off ch=1 n=84 v=63
12399 Off ch=1 n=45 v=80
12399 Off ch=1 n=47 v=55
12399 On ch=1 n=43 v=55
12399 Off ch=1 n=74 v=89
12399 Off ch=1 n=71 v=89
12399 On ch=1 n=66 v=89
12399 Off ch=1 n=45 v=89
12399 Off ch=1 n=57 v=89
12429 Meta Lyric "riL "
12429 Off ch=1 n=78 v=80
12548 On ch=1 n=68 v=80
12548 On ch=1 n=74 v=80
12668 On ch=1 n=76 v=80
12675 Off ch=1 n=74 v=80
12758 On ch=1 n=74 v=80
12780 Off ch=1 n=76 v=80
12878 Off ch=1 n=88 v=72
12878 Off ch=1 n=74 v=80
12878 Off ch=1 n=68 v=80
12878 On ch=1 n=62 v=80
12908 Meta Lyric "alen "
12908 On ch=1 n=57 v=55
12968 Off ch=1 n=57 v=55
13028 On ch=1 n=57 v=55
13088 Off ch=1 n=57 v=55
13088 On ch=1 n=57 v=55
13148 Off ch=1 n=57 v=55
13268 Meta Lyric "V "
13268 On ch=1 n=74 v=80
13268 Meta Lyric "Piano "
13269 Off ch=1 n=61 v=80
13269 Off ch=1 n=61 v=80
13328 On ch=1 n=72 v=80
13328 On ch=1 n=75 v=80
13328 On ch=1 n=81 v=80
13388 Off ch=1 n=74 v=80
13448 Off ch=1 n=81 v=80
13448 Off ch=1 n=75 v=80
13448 Off ch=1 n=72 v=80
13448 On ch=1 n=64 v=80
13448 On ch=1 n=69 v=80
13448 On ch=1 n=71 v=80
13448 On ch=1 n=72 v=80
13448 On ch=1 n=75 v=80
13448 Meta Lyric "v "
13508 On ch=1 n=62 v=80
13541 Off ch=1 n=64 v=80
13568 Off ch=1 n=72 v=80
13568 Off ch=1 n=71 v=80
13568 Off ch=1 n=69 v=80
13568 On ch=1 n=61 v=80
13568 On ch=1 n=69 v=80
13568 On ch=1 n=71 v=80
13568 On ch=1 n=72 v=80
13568 On ch=1 n=76 v=80
13583 Off ch=1 n=62 v=80
13598 Off ch=1 n=75 v=80
13628 Off ch=1 n=76 v=80
13628 Off ch=1 n=72 v=80
13628 Off ch=1 n=71 v=80
13628 Off ch=1 n=69 v=80
13628 Off ch=1 n=61 v=80
13628 On ch=1 n=62 v=80
13628 On ch=1 n=69 v=80
13628 On ch=1 n=71 v=80
13628 On ch=1 n=73 v=80
13628 On ch=1 n=75 v=80
13688 On ch=1 n=61 v=80
13703 Off ch=1 n=62 v=80
13748 Off ch=1 n=61 v=80
13748 Off ch=1 n=75 v=80
13748 Off ch=1 n=73 v=80
13748 Off ch=1 n=71 v=80
13748 Off ch=1 n=69 v=80
13748 Off ch=1 n=66 v=89
13748 Off ch=1 n=62 v=80
13748 On ch=1 n=86 v=72
13748 On ch=1 n=83 v=63
13748 On ch=1 n=50 v=80
13748 On ch=1 n=69 v=55
13748 On ch=1 n=62 v=80
13748 On ch=1 n=71 v=80
13763 Meta Lyric "eoi "
13763 Off ch=1 n=80 v=80
14257 On ch=1 n=71 v=89
14257 On ch=1 n=71 v=89
14272 Off ch=1 n=86 v=72
14272 On ch=1 n=84 v=72
14272 Off ch=1 n=83 v=63
14272 Off ch=1 n=71 v=89
14287 Off ch=1 n=84 v=72
14287 On ch=1 n=86 v=72
14302 Meta Lyric "v "
14302 On ch=1 n=61 v=80
14362 Off ch=1 n=50 v=80
14362 On ch=1 n=43 v=80
14362 Off ch=1 n=69 v=55
14362 On ch=1 n=67 v=55
14362 On ch=1 n=67 v=80
14362 On ch=1 n=69 v=80
14362 On ch=1 n=71 v=80
14362 Off ch=1 n=43 v=55
14362 On ch=1 n=43 v=55
14362 Meta Lyric "v "
14362 On ch=1 n=43 v=89
14362 On ch=1 n=55 v=89
14377 Off ch=1 n=61 v=80
14377 On ch=1 n=60 v=80
14377 Off ch=1 n=71 v=89
14377 On ch=1 n=71 v=89
14377 On ch=1 n=71 v=89
14392 On ch=1 n=87 v=72
14392 Off ch=1 n=43 v=80
14403 Off ch=1 n=86 v=72
14412 Meta Lyric "co "
14422 On ch=1 n=89 v=72
14422 On ch=1 n=50 v=80
14422 Off ch=1 n=67 v=55
14422 On ch=1 n=66 v=55
14422 On ch=1 n=57 v=55
14422 Off ch=1 n=55 v=89
14422 Off ch=1 n=43 v=89
14429 Off ch=1 n=87 v=72
14437 Off ch=1 n=71 v=89
14437 On ch=1 n=71 v=89
14452 Off ch=1 n=50 v=80
14452 Off ch=1 n=60 v=80
14467 Off ch=1 n=71 v=80
14467 Off ch=1 n=69 v=80
14467 Off ch=1 n=67 v=80
14467 On ch=1 n=67 v=80
14467 On ch=1 n=71 v=80
14467 On ch=1 n=60 v=80
14472 Meta Lyric "rf "
14472 Off ch=1 n=55 v=105
14472 Off ch=1 n=53 v=80
14472 Off ch=1 n=62 v=89
14531 On ch=1 n=62 v=89
14591 Off ch=1 n=62 v=89
14591 On ch=1 n=53 v=89
14651 Off ch=1 n=53 v=89
14651 On ch=1 n=53 v=89
14651 On ch=1 n=62 v=89
14681 On ch=1 n=61 v=89
14688 Off ch=1 n=62 v=89
14726 Off ch=1 n=53 v=89
14771 On ch=1 n=53 v=89
14771 On ch=1 n=62 v=89
14793 Off ch=1 n=61 v=89
14846 Off ch=1 n=53 v=89
14891 Off ch=1 n=62 v=89
14891 On ch=1 n=50 v=89
14891 On ch=1 n=60 v=89
14951 Off ch=1 n=60 v=89
14951 Off ch=1 n=50 v=89
14966 On ch=1 n=59 v=89
15026 Off ch=1 n=59 v=89
15026 On ch=1 n=59 v=89
15086 On ch=1 n=50 v=89
15131 Off ch=1 n=89 v=72
15131 On ch=1 n=82 v=72
15131 On ch=1 n=38 v=80
15131 Off ch=1 n=66 v=55
15131 On ch=1 n=65 v=55
15131 On ch=1 n=67 v=55
15131 Off ch=1 n=57 v=55
15131 Off ch=1 n=43 v=55
15131 On ch=1 n=38 v=55
15146 Off ch=1 n=50 v=89
15161 Off ch=1 n=82 v=72
15161 On ch=1 n=86 v=72
15161 On ch=1 n=38 v=89
15161 On ch=1 n=50 v=89
15176 On ch=1 n=58 v=80
15187 Off ch=1 n=67 v=55
15191 Off ch=1 n=86 v=72
15191 On ch=1 n=84 v=72
15191 Off ch=1 n=38 v=80
15191 On ch=1 n=50 v=80
15191 On ch=1 n=57 v=55
15191 Off ch=1 n=60 v=80
15191 Off ch=1 n=38 v=55
15206 On ch=1 n=50 v=89
15221 On ch=1 n=65 v=55
15221 Off ch=1 n=50 v=89
15221 Off ch=1 n=38 v=89
15228 Off ch=1 n=50 v=80
15236 Off ch=1 n=84 v=72
15236 On ch=1 n=82 v=72
15251 On ch=1 n=43 v=80
15251 Off ch=1 n=65 v=55
15251 Off ch=1 n=57 v=55
15251 On ch=1 n=57 v=55
15251 On ch=1 n=43 v=55
15258 Off ch=1 n=82 v=72
15266 Off ch=1 n=50 v=89
15281 On ch=1 n=81 v=72
15281 On ch=1 n=64 v=55
15281 On ch=1 n=43 v=89
15281 On ch=1 n=55 v=89
15288 Off ch=1 n=71 v=80
15288 Off ch=1 n=62 v=80
15288 On ch=1 n=64 v=80
15288 On ch=1 n=72 v=80
15296 Off ch=1 n=65 v=55
15296 On ch=1 n=64 v=80
15307 Off ch=1 n=81 v=72
15311 Off ch=1 n=43 v=80
15311 On ch=1 n=42 v=80
15311 Off ch=1 n=57 v=55
15311 Off ch=1 n=58 v=80
15311 Off ch=1 n=43 v=55
15311 On ch=1 n=42 v=55
15326 Off ch=1 n=71 v=89
15326 Off ch=1 n=71 v=89
15326 On ch=1 n=72 v=89
15326 On ch=1 n=72 v=89
15326 Off ch=1 n=59 v=89
15326 On ch=1 n=60 v=89
15333 On ch=1 n=82 v=72
15341 Off ch=1 n=64 v=55
15341 Off ch=1 n=43 v=89
15348 Off ch=1 n=72 v=80
15348 Off ch=1 n=64 v=80
15348 On ch=1 n=60 v=80
15348 On ch=1 n=71 v=80
15356 Off ch=1 n=71 v=80
15356 Off ch=1 n=67 v=80
15356 Off ch=1 n=64 v=80
15356 On ch=1 n=69 v=80
15356 On ch=1 n=71 v=80
15356 On ch=1 n=72 v=80
15356 On ch=1 n=63 v=80
15371 On ch=1 n=74 v=80
15371 Off ch=1 n=42 v=80
15371 On ch=1 n=50 v=80
15371 Off ch=1 n=55 v=89
15371 On ch=1 n=42 v=89
15371 On ch=1 n=54 v=89
15386 Off ch=1 n=72 v=89
15386 Off ch=1 n=72 v=89
15386 On ch=1 n=71 v=89
15386 On ch=1 n=71 v=89
15386 Off ch=1 n=60 v=89
15386 On ch=1 n=59 v=89
15386 On ch=1 n=50 v=89
15393 Off ch=1 n=82 v=72
15408 Off ch=1 n=71 v=80
15408 Off ch=1 n=60 v=80
15416 Off ch=1 n=71 v=80
15416 On ch=1 n=71 v=80
15416 On ch=1 n=62 v=80
15424 Off ch=1 n=71 v=80
15431 Off ch=1 n=74 v=80
15431 Off ch=1 n=50 v=80
15431 Off ch=1 n=62 v=80
15431 Off ch=1 n=63 v=80
15431 Off ch=1 n=72 v=80
15431 Off ch=1 n=69 v=80
15431 Off ch=1 n=42 v=55
15431 Off ch=1 n=71 v=89
15431 Off ch=1 n=50 v=89
15431 Off ch=1 n=59 v=89
15431 Off ch=1 n=54 v=89
15431 Off ch=1 n=42 v=89
15431 On ch=1 n=79 v=80
15431 On ch=1 n=43 v=80
15431 On ch=1 n=63 v=55
15431 On ch=1 n=55 v=55
15431 On ch=1 n=71 v=80
15431 On ch=1 n=66 v=80
15431 On ch=1 n=62 v=80
15431 On ch=1 n=43 v=55
15431 On ch=1 n=71 v=89
15431 On ch=1 n=62 v=80
15431 On ch=1 n=71 v=80
15431 On ch=1 n=59 v=89
15431 On ch=1 n=55 v=89
15431 On ch=1 n=43 v=89
15461 Off ch=1 n=79 v=80
15461 Off ch=1 n=43 v=80
15461 Off ch=1 n=43 v=55
15468 Off ch=1 n=63 v=55
15491 On ch=1 n=74 v=80
15491 On ch=1 n=50 v=80
15491 On ch=1 n=50 v=80
15491 On ch=1 n=62 v=55
15491 Off ch=1 n=55 v=55
15491 On ch=1 n=67 v=105
15491 On ch=1 n=60 v=105
15491 On ch=1 n=50 v=89
15491 Off ch=1 n=43 v=89
15491 Off ch=1 n=55 v=89
15506 Off ch=1 n=62 v=80
15506 Off ch=1 n=66 v=80
15521 On ch=1 n=60 v=55
15528 Off ch=1 n=62 v=55
15551 Off ch=1 n=74 v=80
15551 On ch=1 n=75 v=80
15551 On ch=1 n=62 v=80
15551 On ch=1 n=38 v=80
15551 Off ch=1 n=60 v=55
15551 On ch=1 n=55 v=55
15551 On ch=1 n=69 v=50
15551 On ch=1 n=52 v=50
15551 On ch=1 n=38 v=55
15551 Off ch=1 n=71 v=89
15551 Off ch=1 n=50 v=89
15551 Off ch=1 n=59 v=89
15551 On ch=1 n=50 v=89
15551 On ch=1 n=38 v=89
15566 Off ch=1 n=50 v=80
15581 Off ch=1 n=71 v=80
15584 Off ch=1 n=60 v=105
15584 Off ch=1 n=67 v=105
15596 Off ch=1 n=75 v=80
15596 On ch=1 n=74 v=80
15611 Off ch=1 n=62 v=80
15611 On ch=1 n=67 v=80
15611 Off ch=1 n=50 v=80
15611 Off ch=1 n=38 v=80
15611 On ch=1 n=42 v=80
15611 Off ch=1 n=38 v=55
15611 Off ch=1 n=71 v=89
15611 On ch=1 n=72 v=89
15611 On ch=1 n=72 v=89
15611 Off ch=1 n=71 v=80
15611 Off ch=1 n=62 v=80
15611 On ch=1 n=64 v=80
15611 On ch=1 n=72 v=80
15611 On ch=1 n=60 v=89
15611 On ch=1 n=50 v=89
15611 Off ch=1 n=38 v=89
15611 Off ch=1 n=50 v=89
15626 Off ch=1 n=55 v=55
15641 Off ch=1 n=74 v=80
15641 On ch=1 n=72 v=80
15641 Off ch=1 n=42 v=80
15648 Off ch=1 n=67 v=80
15656 Off ch=1 n=72 v=80
15671 Meta Lyric "ot "
15671 On ch=1 n=71 v=80
15671 On ch=1 n=60 v=80
15671 On ch=1 n=64 v=80
15671 On ch=1 n=43 v=80
15671 On ch=1 n=55 v=55
15671 On ch=1 n=72 v=80
15671 On ch=1 n=43 v=55
15671 Off ch=1 n=72 v=89
15671 Off ch=1 n=72 v=80
15671 Off ch=1 n=64 v=80
15671 On ch=1 n=60 v=80
15671 On ch=1 n=71 v=80
15671 Off ch=1 n=50 v=89
15671 Off ch=1 n=60 v=89
15671 On ch=1 n=59 v=89
15671 On ch=1 n=55 v=89
15671 On ch=1 n=43 v=89
15686 Off ch=1 n=71 v=80
15701 Off ch=1 n=64 v=80
15701 Off ch=1 n=60 v=80
15701 Off ch=1 n=52 v=50
15701 Off ch=1 n=69 v=50
15731 On ch=1 n=64 v=80
15731 On ch=1 n=50 v=80
15731 Off ch=1 n=72 v=80
15731 On ch=1 n=77 v=105
15731 On ch=1 n=71 v=105
15731 Off ch=1 n=43 v=55
15731 Off ch=1 n=72 v=89
15731 On ch=1 n=71 v=89
15731 On ch=1 n=71 v=89
15731 On ch=1 n=50 v=89
15731 Off ch=1 n=43 v=89
15731 Off ch=1 n=55 v=89
15746 Off ch=1 n=43 v=80
15746 Off ch=1 n=55 v=55
15761 Off ch=1 n=64 v=80
15761 On ch=1 n=62 v=80
15761 Off ch=1 n=50 v=80
15791 On ch=1 n=60 v=80
15791 On ch=1 n=41 v=80
15791 On ch=1 n=55 v=55
15791 Off ch=1 n=71 v=105
15791 On ch=1 n=41 v=55
15791 Off ch=1 n=71 v=89
15791 Off ch=1 n=71 v=80
15791 Off ch=1 n=60 v=80
15791 On ch=1 n=68 v=80
15791 On ch=1 n=68 v=80
15791 Off ch=1 n=50 v=89
15791 Off ch=1 n=59 v=89
15791 On ch=1 n=56 v=89
15791 On ch=1 n=53 v=89
15791 On ch=1 n=41 v=89
15798 Off ch=1 n=62 v=80
15806 Off ch=1 n=41 v=80
15806 On ch=1 n=50 v=80
15821 Off ch=1 n=60 v=80
15821 On ch=1 n=58 v=80
15836 Off ch=1 n=50 v=80
15851 Off ch=1 n=58 v=80
15851 Off ch=1 n=55 v=55
15851 Off ch=1 n=77 v=105
15851 Off ch=1 n=71 v=89
15851 On ch=1 n=68 v=89
15851 On ch=1 n=68 v=89
15851 Off ch=1 n=68 v=80
15851 On ch=1 n=60 v=80
15851 On ch=1 n=50 v=89
15851 Off ch=1 n=41 v=89
15851 Off ch=1 n=53 v=89
15911 Off ch=1 n=41 v=55
15911 Off ch=1 n=68 v=89
15911 Off ch=1 n=68 v=89
15911 Off ch=1 n=60 v=80
15911 Off ch=1 n=68 v=80
15911 Off ch=1 n=50 v=89
15911 Off ch=1 n=56 v=89
15911 On ch=1 n=57 v=80
15911 On ch=1 n=40 v=72
15911 On ch=1 n=67 v=55
15911 On ch=1 n=55 v=55
15911 On ch=1 n=40 v=55
15911 On ch=1 n=67 v=89
15911 On ch=1 n=67 v=89
15911 On ch=1 n=64 v=80
15911 On ch=1 n=64 v=80
15911 On ch=1 n=59 v=89
15911 On ch=1 n=59 v=89
15911 On ch=1 n=52 v=89
15911 On ch=1 n=40 v=89
15971 Off ch=1 n=57 v=80
15971 Off ch=1 n=40 v=72
15971 On ch=1 n=52 v=72
15971 Off ch=1 n=55 v=55
15971 On ch=1 n=61 v=80
15971 Off ch=1 n=40 v=89
15971 Off ch=1 n=52 v=89
16001 Off ch=1 n=52 v=72
16031 On ch=1 n=67 v=80
16031 On ch=1 n=47 v=72
16031 Off ch=1 n=67 v=55
16031 On ch=1 n=64 v=72
16031 On ch=1 n=55 v=55
16031 Off ch=1 n=61 v=80
16031 On ch=1 n=61 v=80
16031 On ch=1 n=60 v=80
16031 On ch=1 n=47 v=55
16031 Off ch=1 n=67 v=89
16031 On ch=1 n=47 v=89
16031 On ch=1 n=47 v=89
16061 Off ch=1 n=40 v=55
16079 Off ch=1 n=60 v=80
16091 On ch=1 n=52 v=72
16091 On ch=1 n=66 v=72
16091 Off ch=1 n=55 v=55
16091 On ch=1 n=55 v=55
16091 On ch=1 n=64 v=80
16091 On ch=1 n=60 v=80
16091 Off ch=1 n=47 v=89
16091 Off ch=1 n=47 v=89
16106 Off ch=1 n=47 v=72
16106 Off ch=1 n=64 v=72
16106 Off ch=1 n=61 v=80
16151 Off ch=1 n=67 v=80
16151 Off ch=1 n=52 v=72
16151 On ch=1 n=40 v=72
16151 On ch=1 n=65 v=72
16151 Off ch=1 n=60 v=80
16151 On ch=1 n=57 v=80
16151 Off ch=1 n=47 v=55
16151 On ch=1 n=40 v=55
16151 Off ch=1 n=67 v=89
16151 On ch=1 n=67 v=89
16151 On ch=1 n=67 v=89
16151 Off ch=1 n=64 v=80
16151 Off ch=1 n=64 v=80
16151 On ch=1 n=64 v=80
16151 On ch=1 n=64 v=80
16151 Off ch=1 n=59 v=89
16151 Off ch=1 n=59 v=89
16151 On ch=1 n=57 v=89
16151 On ch=1 n=53 v=89
16151 Meta Lyric "A_ "
16151 On ch=1 n=52 v=89
16151 On ch=1 n=52 v=89
16166 Off ch=1 n=66 v=72
16166 Off ch=1 n=55 v=55
16181 Off ch=1 n=40 v=72
16181 Off ch=1 n=57 v=80
16181 Off ch=1 n=64 v=80
16181 On ch=1 n=65 v=80
16181 Off ch=1 n=67 v=89
16211 On ch=1 n=52 v=72
16211 Off ch=1 n=65 v=72
16211 On ch=1 n=65 v=72
16211 On ch=1 n=55 v=55
16211 Off ch=1 n=65 v=80
16211 On ch=1 n=67 v=80
16211 On ch=1 n=60 v=80
16211 Off ch=1 n=57 v=89
16211 Off ch=1 n=52 v=89
16211 Off ch=1 n=52 v=89
16241 Off ch=1 n=52 v=72
16241 Off ch=1 n=64 v=80
16271 On ch=1 n=47 v=72
16271 Off ch=1 n=65 v=72
16271 On ch=1 n=65 v=72
16271 Off ch=1 n=55 v=55
16271 Off ch=1 n=40 v=55
16271 On ch=1 n=47 v=55
16271 Off ch=1 n=67 v=89
16271 On ch=1 n=66 v=89
16271 On ch=1 n=66 v=89
16271 On ch=1 n=47 v=89
16271 On ch=1 n=47 v=89
16286 Off ch=1 n=67 v=80
16301 Off ch=1 n=47 v=72
16301 On ch=1 n=60 v=80
16301 On ch=1 n=59 v=80
16301 Off ch=1 n=47 v=89
16323 Off ch=1 n=60 v=80
16331 On ch=1 n=52 v=72
16331 Off ch=1 n=65 v=72
16331 Off ch=1 n=64 v=80
16331 On ch=1 n=60 v=80
16331 On ch=1 n=60 v=80
16331 Off ch=1 n=47 v=89
16361 On ch=1 n=58 v=80
16376 Off ch=1 n=59 v=80
16391 Off ch=1 n=52 v=72
16391 Off ch=1 n=60 v=80
16391 Off ch=1 n=58 v=80
16391 Off ch=1 n=47 v=55
16391 Off ch=1 n=66 v=89
16391 Off ch=1 n=66 v=89
16391 Off ch=1 n=60 v=80
16391 Off ch=1 n=60 v=80
16391 Off ch=1 n=53 v=89
16391 On ch=1 n=40 v=72
16391 On ch=1 n=65 v=55
16391 On ch=1 n=55 v=80
16391 Par ch=1 c=64 v=0
16391 Par ch=1 c=64 v=0
16391 Par ch=1 c=64 v=0
16391 Par ch=1 c=64 v=0
16391 Par ch=1 c=64 v=127
16391 Par ch=1 c=64 v=127
16391 Par ch=1 c=64 v=127
16391 Par ch=1 c=64 v=127
16391 On ch=1 n=60 v=55
16391 On ch=1 n=59 v=55
16391 Meta Lyric "Piano "
16391 Par ch=1 c=64 v=0
16391 Par ch=1 c=64 v=0
16391 Par ch=1 c=64 v=0
16391 Par ch=1 c=64 v=0
16391 Par ch=1 c=64 v=127
16391 Par ch=1 c=64 v=127
16391 Par ch=1 c=64 v=127
16391 Par ch=1 c=64 v=127
16391 On ch=1 n=52 v=89
16391 Meta Lyric "lSD "
16391 On ch=1 n=67 v=72
16391 Meta Lyric "lnls "
16391 On ch=1 n=64 v=89
16391 Meta Lyric "unrs "
16451 Off ch=1 n=40 v=72
16451 Off ch=1 n=55 v=80
16511 On ch=1 n=47 v=72
16511 Off ch=1 n=65 v=55
16511 On ch=1 n=69 v=55
16511 On ch=1 n=55 v=80
16511 Off ch=1 n=59 v=55
16511 Off ch=1 n=60 v=55
16511 On ch=1 n=62 v=55
16511 Off ch=1 n=52 v=89
16511 On ch=1 n=59 v=89
16511 Meta Lyric "ailh "
16511 On ch=1 n=50 v=89
16511 On ch=1 n=40 v=89
16571 Off ch=1 n=62 v=55
16571 Off ch=1 n=40 v=89
16571 Off ch=1 n=50 v=89
16571 On ch=1 n=52 v=89
16586 Off ch=1 n=47 v=72
16631 On ch=1 n=40 v=72
16631 Off ch=1 n=69 v=55
16631 On ch=1 n=69 v=55
16631 Off ch=1 n=55 v=80
16631 On ch=1 n=55 v=80
16631 On ch=1 n=61 v=55
16631 Off ch=1 n=59 v=89
16631 On ch=1 n=47 v=89
16631 Off ch=1 n=52 v=89
16631 On ch=1 n=50 v=89
16631 On ch=1 n=47 v=89
16691 Off ch=1 n=47 v=89
16691 Off ch=1 n=67 v=72
16691 On ch=1 n=66 v=72
16691 Off ch=1 n=64 v=89
16691 On ch=1 n=60 v=89
16691 Off ch=1 n=47 v=89
16691 Off ch=1 n=50 v=89
16691 On ch=1 n=53 v=89
16706 Off ch=1 n=40 v=72
16721 Off ch=1 n=55 v=80
16751 On ch=1 n=47 v=50
16751 On ch=1 n=67 v=55
16751 On ch=1 n=60 v=55
16751 On ch=1 n=52 v=89
16751 Off ch=1 n=66 v=72
16751 On ch=1 n=66 v=72
16751 Off ch=1 n=60 v=89
16751 On ch=1 n=60 v=89
16751 Meta Lyric "- "
16751 Off ch=1 n=53 v=89
16751 On ch=1 n=50 v=89
16751 On ch=1 n=40 v=89
16781 Off ch=1 n=47 v=50
16781 Off ch=1 n=69 v=55
16781 On ch=1 n=55 v=80
16781 Off ch=1 n=61 v=55
16811 Off ch=1 n=40 v=89
16811 Off ch=1 n=50 v=89
16811 On ch=1 n=52 v=89
16871 Off ch=1 n=67 v=55
16871 Off ch=1 n=55 v=80
16871 Off ch=1 n=60 v=55
16871 Off ch=1 n=52 v=89
16871 Off ch=1 n=66 v=72
16871 Off ch=1 n=60 v=89
16871 Off ch=1 n=52 v=89
16871 On ch=1 n=52 v=72
16871 On ch=1 n=68 v=55
16871 On ch=1 n=55 v=80
16871 On ch=1 n=74 v=72
16871 On ch=1 n=69 v=89
16871 On ch=1 n=50 v=89
16871 On ch=1 n=40 v=89
16931 Off ch=1 n=55 v=80
16931 On ch=1 n=69 v=80
16931 Meta Lyric "r "
16931 Off ch=1 n=40 v=89
16931 Off ch=1 n=50 v=89
16931 On ch=1 n=52 v=89
16951 On ch=1 n=67 v=55
16961 Off ch=1 n=52 v=72
16961 On ch=1 n=55 v=72
16971 Off ch=1 n=68 v=55
16991 Meta Lyric "v "
16991 On ch=1 n=47 v=72
16991 On ch=1 n=71 v=72
16991 On ch=1 n=66 v=89
16991 Off ch=1 n=52 v=89
16991 On ch=1 n=50 v=89
16991 On ch=1 n=47 v=89
16998 Off ch=1 n=55 v=72
17021 Off ch=1 n=74 v=72
17021 Off ch=1 n=69 v=89
17031 Off ch=1 n=67 v=55
17031 On ch=1 n=66 v=55
17051 Off ch=1 n=69 v=80
17051 On ch=1 n=55 v=80
17051 Off ch=1 n=47 v=89
17051 Off ch=1 n=50 v=89
17051 On ch=1 n=52 v=89
17111 Meta Lyric "A "
17111 On ch=1 n=48 v=72
17111 On ch=1 n=47 v=80
17111 On ch=1 n=45 v=80
17112 Off ch=1 n=46 v=80
17112 Off ch=1 n=45 v=80
17112 Off ch=1 n=36 v=72
17112 Off ch=1 n=48 v=72
17112 Off ch=1 n=47 v=72
17112 Off ch=1 n=48 v=72
17112 Off ch=1 n=47 v=72
17112 Off ch=1 n=46 v=80
17112 Off ch=1 n=46 v=80
17112 Off ch=1 n=46 v=80
17112 Off ch=1 n=48 v=72
17157 Off ch=1 n=45 v=80
17157 Off ch=1 n=47 v=80
17171 On ch=1 n=43 v=80
17171 On ch=1 n=47 v=80
17231 Off ch=1 n=47 v=80
17231 Off ch=1 n=43 v=80
17231 On ch=1 n=47 v=80
17231 On ch=1 n=45 v=80
17231 Meta Lyric "v "
17268 Off ch=1 n=47 v=80
17291 On ch=1 n=45 v=80
17306 Off ch=1 n=45 v=80
17351 Off ch=1 n=45 v=80
17351 On ch=1 n=47 v=80
17381 Off ch=1 n=47 v=80
17411 On ch=1 n=47 v=80
17411 On ch=1 n=45 v=80
17471 On ch=1 n=47 v=80
17501 Off ch=1 n=47 v=80
17504 Off ch=1 n=45 v=80
17531 Off ch=1 n=47 v=80
17531 On ch=1 n=50 v=80
17531 On ch=1 n=49 v=80
17591 Off ch=1 n=49 v=80
17591 Off ch=1 n=50 v=80
17591 On ch=1 n=50 v=80
17591 On ch=1 n=49 v=80
17592 Off ch=1 n=51 v=80
17651 Off ch=1 n=50 v=80
17651 On ch=1 n=49 v=80
17651 On ch=1 n=50 v=80
17681 Off ch=1 n=50 v=80
17681 Off ch=1 n=49 v=80
17711 Off ch=1 n=49 v=80
17711 On ch=1 n=50 v=80
17711 On ch=1 n=49 v=80
17831 Off ch=1 n=49 v=80
17831 Off ch=1 n=50 v=80
17831 On ch=1 n=50 v=80
17831 On ch=1 n=49 v=80
17877 Off ch=1 n=49 v=80
17877 Off ch=1 n=50 v=80
17891 On ch=1 n=49 v=80
17891 On ch=1 n=50 v=80
17937 Off ch=1 n=50 v=80
17951 Off ch=1 n=49 v=80
17951 On ch=1 n=50 v=80
17951 On ch=1 n=49 v=80
17966 Par ch=1 c=64 v=0
17966 Par ch=1 c=64 v=0
17966 Par ch=1 c=64 v=0
17966 Par ch=1 c=64 v=0
18011 Off ch=1 n=49 v=80
18011 On ch=1 n=49 v=80
18011 On ch=1 n=50 v=80
18057 Off ch=1 n=50 v=80
18057 Off ch=1 n=49 v=80
18071 Off ch=1 n=50 v=80
18071 On ch=1 n=50 v=80
18071 On ch=1 n=49 v=80
18117 Off ch=1 n=50 v=80
18131 On ch=1 n=49 v=80
18131 On ch=1 n=50 v=80
18164 Off ch=1 n=49 v=80
18177 Off ch=1 n=50 v=80
18191 Off ch=1 n=49 v=80
18191 On ch=1 n=50 v=80
18191 On ch=1 n=49 v=80
18251 On ch=1 n=49 v=80
18251 On ch=1 n=50 v=80
18266 Off ch=1 n=49 v=80
18266 Off ch=1 n=50 v=80
18311 Off ch=1 n=50 v=80
18311 Off ch=1 n=49 v=80
18311 On ch=1 n=50 v=80
18311 On ch=1 n=49 v=80
18371 On ch=1 n=49 v=80
18371 On ch=1 n=50 v=80
18404 Off ch=1 n=49 v=80
18404 Off ch=1 n=50 v=80
18417 Off ch=1 n=50 v=80
18431 Off ch=1 n=49 v=80
18431 On ch=1 n=50 v=80
18431 On ch=1 n=49 v=80
18491 On ch=1 n=49 v=80
18506 Off ch=1 n=49 v=80
18506 Off ch=1 n=50 v=80
18551 Off ch=1 n=49 v=80
18551 On ch=1 n=50 v=80
18551 On ch=1 n=40 v=80
18552 Off ch=1 n=50 v=80
18611 Off ch=1 n=40 v=80
18611 Off ch=1 n=50 v=80
18611 On ch=1 n=52 v=80
18671 Off ch=1 n=52 v=80
18671 On ch=1 n=50 v=80
18671 On ch=1 n=47 v=80
18731 Off ch=1 n=47 v=80
18731 Off ch=1 n=50 v=80
18731 On ch=1 n=50 v=80
18791 Off ch=1 n=50 v=80
18791 On ch=1 n=50 v=80
18791 On ch=1 n=40 v=80
18851 Off ch=1 n=40 v=80
18851 Off ch=1 n=50 v=80
18851 On ch=1 n=52 v=80
18881 Off ch=1 n=52 v=80
18911 On ch=1 n=50 v=80
18911 On ch=1 n=47 v=80
18941 Off ch=1 n=50 v=80
18971 Off ch=1 n=47 v=80
18971 On ch=1 n=52 v=80
19031 Off ch=1 n=52 v=80
19031 On ch=1 n=59 v=80
19331 Off ch=1 n=59 v=80
19331 On ch=1 n=57 v=80
19391 Off ch=1 n=57 v=80
19391 On ch=1 n=57 v=80
19511 Off ch=1 n=57 v=80
19511 On ch=1 n=65 v=80
19631 Off ch=1 n=65 v=80
19631 On ch=1 n=62 v=80
19751 On ch=1 n=40 v=72
19751 Meta Lyric "A "
19751 Off ch=1 n=66 v=55
19751 On ch=1 n=69 v=55
19751 Off ch=1 n=55 v=80
19751 On ch=1 n=69 v=72
19751 On ch=1 n=64 v=89
19751 Off ch=1 n=62 v=80
19751 On ch=1 n=60 v=80
19751 Off ch=1 n=52 v=89
19751 On ch=1 n=50 v=89
19751 On ch=1 n=40 v=89
19781 Off ch=1 n=47 v=72
19781 Off ch=1 n=71 v=72
19781 Off ch=1 n=66 v=89
19801 Off ch=1 n=69 v=55
19811 On ch=1 n=55 v=80
19811 Off ch=1 n=40 v=89
19811 Off ch=1 n=50 v=89
19811 On ch=1 n=52 v=89
19871 Off ch=1 n=40 v=72
19871 On ch=1 n=47 v=72
19871 Off ch=1 n=52 v=89
19871 On ch=1 n=50 v=89
19871 On ch=1 n=47 v=89
19911 On ch=1 n=69 v=55
19931 Off ch=1 n=47 v=72
19931 On ch=1 n=52 v=72
19931 Off ch=1 n=55 v=80
19931 Off ch=1 n=47 v=89
19931 Off ch=1 n=50 v=89
19931 On ch=1 n=52 v=89
19968 Off ch=1 n=52 v=72
19991 Off ch=1 n=69 v=55
19991 Off ch=1 n=69 v=72
19991 Off ch=1 n=64 v=89
19991 Off ch=1 n=60 v=80
19991 Off ch=1 n=52 v=89
19991 On ch=1 n=55 v=72
19991 On ch=1 n=66 v=55
19991 On ch=1 n=55 v=80
19991 On ch=1 n=67 v=72
19991 On ch=1 n=62 v=89
19991 On ch=1 n=50 v=89
19991 On ch=1 n=40 v=89
20021 Off ch=1 n=50 v=89
20051 Off ch=1 n=40 v=89
20051 On ch=1 n=52 v=89
20066 Off ch=1 n=55 v=72
20111 On ch=1 n=52 v=72
20111 Off ch=1 n=66 v=55
20111 On ch=1 n=69 v=55
20111 Off ch=1 n=55 v=80
20111 On ch=1 n=55 v=80
20111 On ch=1 n=64 v=80
20111 Off ch=1 n=67 v=72
20111 On ch=1 n=68 v=72
20111 On ch=1 n=63 v=89
20111 Off ch=1 n=59 v=80
20111 On ch=1 n=60 v=80
20111 Off ch=1 n=52 v=89
20111 On ch=1 n=50 v=89
20111 On ch=1 n=47 v=89
20141 Off ch=1 n=62 v=89
20171 On ch=1 n=55 v=72
20171 Off ch=1 n=68 v=72
20171 Off ch=1 n=47 v=89
20171 Off ch=1 n=50 v=89
20171 On ch=1 n=52 v=89
20186 Off ch=1 n=52 v=72
20201 Off ch=1 n=55 v=72
20201 On ch=1 n=59 v=72
20201 On ch=1 n=50 v=72
20231 Off ch=1 n=69 v=55
20231 On ch=1 n=68 v=55
20231 Off ch=1 n=64 v=80
20231 On ch=1 n=67 v=72
20231 Off ch=1 n=63 v=89
20231 On ch=1 n=63 v=89
20231 Off ch=1 n=60 v=80
20231 On ch=1 n=59 v=80
20231 Off ch=1 n=52 v=89
20231 On ch=1 n=50 v=89
20231 On ch=1 n=40 v=89
20261 Off ch=1 n=59 v=72
20291 Off ch=1 n=50 v=89
20291 On ch=1 n=52 v=89
20321 Off ch=1 n=50 v=72
20321 On ch=1 n=50 v=72
20321 Off ch=1 n=55 v=80
20321 On ch=1 n=55 v=80
20351 On ch=1 n=66 v=55
20351 Off ch=1 n=59 v=80
20351 On ch=1 n=60 v=80
20351 Off ch=1 n=52 v=89
20351 On ch=1 n=50 v=89
20381 Off ch=1 n=68 v=55
20381 Off ch=1 n=67 v=72
20381 On ch=1 n=60 v=72
20381 On ch=1 n=68 v=72
20381 Off ch=1 n=63 v=89
20381 On ch=1 n=67 v=89
20381 Off ch=1 n=60 v=80
20381 On ch=1 n=57 v=80
20381 Off ch=1 n=40 v=89
20381 On ch=1 n=38 v=89
20411 Off ch=1 n=50 v=72
20411 Off ch=1 n=66 v=55
20411 On ch=1 n=66 v=55
20411 Off ch=1 n=50 v=89
20411 On ch=1 n=47 v=89
20441 Off ch=1 n=55 v=80
20441 On ch=1 n=55 v=80
20441 Off ch=1 n=68 v=72
20441 Off ch=1 n=60 v=72
20441 On ch=1 n=57 v=72
20441 On ch=1 n=60 v=72
20441 On ch=1 n=67 v=72
20441 Off ch=1 n=67 v=89
20441 On ch=1 n=65 v=89
20441 Off ch=1 n=57 v=80
20441 On ch=1 n=59 v=80
20471 Off ch=1 n=66 v=55
20471 Off ch=1 n=55 v=80
20471 Off ch=1 n=67 v=72
20471 Off ch=1 n=60 v=72
20471 Off ch=1 n=57 v=72
20471 Off ch=1 n=65 v=89
20471 Off ch=1 n=59 v=80
20471 Off ch=1 n=47 v=89
20471 Off ch=1 n=38 v=89
20471 On ch=1 n=72 v=80
20471 On ch=1 n=48 v=72
20471 On ch=1 n=67 v=55
20471 Meta Lyric "l "
20471 On ch=1 n=47 v=89
20472 Off ch=1 n=67 v=72
20472 Off ch=1 n=55 v=72
20501 Off ch=1 n=47 v=89
20531 On ch=1 n=58 v=80
20531 Off ch=1 n=48 v=72
20531 Off ch=1 n=67 v=55
20531 On ch=1 n=48 v=89
20531 On ch=1 n=48 v=89
20561 Off ch=1 n=48 v=89
20591 Off ch=1 n=72 v=80
20591 Off ch=1 n=58 v=80
20591 On ch=1 n=47 v=72
20591 On ch=1 n=60 v=80
20651 On ch=1 n=65 v=80
20651 Off ch=1 n=47 v=72
20651 Off ch=1 n=48 v=89
20651 On ch=1 n=48 v=89
20651 On ch=1 n=48 v=89
20669 Off ch=1 n=60 v=80
20711 Off ch=1 n=65 v=80
20711 On ch=1 n=36 v=72
20711 Meta Lyric "A "
20711 Off ch=1 n=64 v=72
20711 Off ch=1 n=55 v=72
20711 On ch=1 n=56 v=80
20711 On ch=1 n=65 v=80
20711 Off ch=1 n=60 v=89
20711 On ch=1 n=60 v=80
20711 Off ch=1 n=64 v=80
20711 Off ch=1 n=55 v=80
20711 On ch=1 n=56 v=80
20711 On ch=1 n=65 v=80
20741 Off ch=1 n=36 v=72
20771 Off ch=1 n=65 v=80
20771 Off ch=1 n=56 v=80
20771 On ch=1 n=53 v=80
20771 On ch=1 n=64 v=80
20771 Off ch=1 n=60 v=80
20771 Off ch=1 n=65 v=80
20771 Off ch=1 n=56 v=80
20771 On ch=1 n=55 v=80
20771 On ch=1 n=64 v=80
20771 Off ch=1 n=48 v=89
20771 Off ch=1 n=48 v=89
20831 On ch=1 n=47 v=72
20861 Off ch=1 n=47 v=72
20891 On ch=1 n=60 v=80
20891 Off ch=1 n=64 v=80
20891 Off ch=1 n=53 v=80
20891 Off ch=1 n=64 v=80
20891 Off ch=1 n=55 v=80
20891 On ch=1 n=47 v=89
20951 Off ch=1 n=47 v=89
20951 On ch=1 n=65 v=80
20951 On ch=1 n=58 v=80
20951 On ch=1 n=36 v=72
20951 On ch=1 n=63 v=80
20951 Meta Lyric "A "
20951 On ch=1 n=47 v=89
20951 On ch=1 n=47 v=89
20966 Off ch=1 n=36 v=72
20981 On ch=1 n=47 v=72
21011 On ch=1 n=63 v=80
21011 Off ch=1 n=60 v=80
21011 On ch=1 n=60 v=80
21011 Off ch=1 n=58 v=80
21011 On ch=1 n=57 v=80
21011 Off ch=1 n=47 v=72
21011 Off ch=1 n=63 v=80
21011 On ch=1 n=63 v=80
21011 Off ch=1 n=47 v=89
21011 Off ch=1 n=47 v=89
21011 On ch=1 n=50 v=89
21026 Off ch=1 n=65 v=80
21041 Off ch=1 n=63 v=80
21071 Off ch=1 n=63 v=80
21071 Off ch=1 n=60 v=80
21071 Off ch=1 n=57 v=80
21071 On ch=1 n=65 v=80
21071 On ch=1 n=60 v=80
21071 On ch=1 n=56 v=80
21071 Off ch=1 n=50 v=89
21071 On ch=1 n=48 v=89
21101 On ch=1 n=47 v=55
21131 On ch=1 n=66 v=80
21131 Off ch=1 n=48 v=89
21131 On ch=1 n=47 v=89
21131 On ch=1 n=47 v=89
21149 Off ch=1 n=56 v=80
21161 On ch=1 n=48 v=55
21179 Off ch=1 n=47 v=55
21191 On ch=1 n=65 v=80
21191 Off ch=1 n=65 v=80
21191 On ch=1 n=64 v=80
21191 On ch=1 n=55 v=80
21191 Off ch=1 n=47 v=89
21191 Off ch=1 n=47 v=89
21191 On ch=1 n=48 v=89
21191 On ch=1 n=48 v=89
21221 On ch=1 n=49 v=55
21228 Off ch=1 n=66 v=80
21236 Off ch=1 n=48 v=55
21251 Off ch=1 n=49 v=55
21251 On ch=1 n=64 v=80
21251 Off ch=1 n=64 v=80
21251 Off ch=1 n=60 v=80
21251 Off ch=1 n=55 v=80
21251 Off ch=1 n=48 v=89
21251 Off ch=1 n=48 v=89
21251 On ch=1 n=47 v=89
21251 On ch=1 n=47 v=89
21266 Off ch=1 n=65 v=80
21281 Off ch=1 n=64 v=80
21311 On ch=1 n=65 v=80
21311 On ch=1 n=56 v=80
21311 On ch=1 n=52 v=80
21311 Off ch=1 n=47 v=89
21371 On ch=1 n=63 v=55
21371 On ch=1 n=63 v=80
21371 On ch=1 n=64 v=80
21371 Off ch=1 n=56 v=80
21371 On ch=1 n=60 v=80
21371 Off ch=1 n=52 v=80
21371 On ch=1 n=55 v=80
21371 Off ch=1 n=47 v=89
21389 Off ch=1 n=65 v=80
21401 Off ch=1 n=63 v=55
21431 Off ch=1 n=64 v=80
21431 Off ch=1 n=60 v=80
21431 Off ch=1 n=55 v=80
21431 On ch=1 n=50 v=89
21449 Off ch=1 n=63 v=80
21551 On ch=1 n=57 v=89
21551 On ch=1 n=57 v=89
21581 Off ch=1 n=50 v=89
21671 On ch=1 n=45 v=89
21671 On ch=1 n=45 v=89
21701 Off ch=1 n=57 v=89
21701 Off ch=1 n=57 v=89
21791 On ch=1 n=50 v=89
21791 On ch=1 n=50 v=89
21858 Off ch=1 n=45 v=89
21858 Off ch=1 n=45 v=89
21911 On ch=1 n=43 v=89
21911 On ch=1 n=43 v=89
21912 Off ch=1 n=55 v=89
21941 Off ch=1 n=50 v=89
21941 Off ch=1 n=50 v=89
22097 Par ch=1 c=64 v=0
22097 Par ch=1 c=64 v=0
22097 Par ch=1 c=64 v=0
22097 Par ch=1 c=64 v=0
22097 Par ch=1 c=64 v=0
22097 Par ch=1 c=64 v=0
22097 Par ch=1 c=64 v=0
22097 Par ch=1 c=64 v=0
22097 Par ch=1 c=64 v=127
22097 Par ch=1 c=64 v=127
22097 Par ch=1 c=64 v=127
22097 Par ch=1 c=64 v=127
22097 On ch=1 n=61 v=55
22098 Off ch=1 n=62 v=55
22217 On ch=1 n=60 v=55
22217 On ch=1 n=66 v=55
22217 On ch=1 n=71 v=55
22247 Off ch=1 n=61 v=55
22367 Off ch=1 n=71 v=55
22367 Off ch=1 n=66 v=55
22397 On ch=1 n=59 v=55
22397 On ch=1 n=60 v=55
22397 On ch=1 n=64 v=55
22397 On ch=1 n=69 v=55
22442 Off ch=1 n=60 v=55
22517 On ch=1 n=62 v=55
22547 Off ch=1 n=59 v=55
22577 Off ch=1 n=69 v=55
22577 Off ch=1 n=64 v=55
22577 Off ch=1 n=60 v=55
22577 Off ch=1 n=62 v=55
24683 Par ch=1 c=64 v=0
24683 Par ch=1 c=64 v=0
24683 Par ch=1 c=64 v=0
24683 Par ch=1 c=64 v=0
24683 Par ch=1 c=64 v=0
24683 Par ch=1 c=64 v=0
24683 Par ch=1 c=64 v=0
24683 Par ch=1 c=64 v=0
24683 Par ch=1 c=64 v=127
24683 Par ch=1 c=64 v=127
24683 Par ch=1 c=64 v=127
24683 Par ch=1 c=64 v=127
24803 Off ch=1 n=47 v=89
24803 On ch=1 n=52 v=89
24863 Off ch=1 n=52 v=89
24923 On ch=1 n=58 v=89
25043 Off ch=1 n=58 v=89
25043 On ch=1 n=47 v=89
25103 Off ch=1 n=47 v=89
27323 On ch=1 n=48 v=89
27323 On ch=1 n=48 v=89
27416 Off ch=1 n=48 v=89
27423 Par ch=1 c=64 v=0
27423 Par ch=1 c=64 v=0
27423 Par ch=1 c=64 v=0
27423 Par ch=1 c=64 v=0
27423 On ch=1 n=59 v=55
27468 Par ch=1 c=64 v=0
27468 Par ch=1 c=64 v=0
27468 Par ch=1 c=64 v=0
27468 Par ch=1 c=64 v=0
27468 Par ch=1 c=64 v=127
27468 Par ch=1 c=64 v=127
27468 Par ch=1 c=64 v=127
27468 Par ch=1 c=64 v=127
27543 Off ch=1 n=59 v=55
27543 On ch=1 n=59 v=55
27663 Off ch=1 n=59 v=55
27663 On ch=1 n=64 v=55
27663 On ch=1 n=62 v=55
27697 Par ch=1 c=64 v=0
27697 Par ch=1 c=64 v=0
27697 Par ch=1 c=64 v=0
27697 Par ch=1 c=64 v=0
27783 Off ch=1 n=62 v=55
27783 On ch=1 n=61 v=55
27903 Off ch=1 n=61 v=55
27903 Off ch=1 n=64 v=55
27903 On ch=1 n=60 v=55
28023 Off ch=1 n=60 v=55
28443 On ch=1 n=55 v=55
28443 On ch=1 n=60 v=55
28443 On ch=1 n=64 v=55
28458 Off ch=1 n=65 v=55
28458 Off ch=1 n=62 v=55
28458 Off ch=1 n=59 v=55
28503 Off ch=1 n=64 v=55
28503 Off ch=1 n=60 v=55
28503 Off ch=1 n=55 v=55
28563 On ch=1 n=64 v=55
28623 Off ch=1 n=64 v=55
28623 On ch=1 n=63 v=55
28683 On ch=1 n=62 v=55
28698 Off ch=1 n=63 v=55
28713 Off ch=1 n=62 v=55
28803 On ch=1 n=61 v=55
28833 Off ch=1 n=61 v=55
29683 Par ch=1 c=64 v=0
29683 Par ch=1 c=64 v=0
29683 Par ch=1 c=64 v=0
29683 Par ch=1 c=64 v=0
29683 On ch=1 n=47 v=89
29728 Par ch=1 c=64 v=0
29728 Par ch=1 c=64 v=0
29728 Par ch=1 c=64 v=0
29728 Par ch=1 c=64 v=0
29728 Par ch=1 c=64 v=127
29728 Par ch=1 c=64 v=127
29728 Par ch=1 c=64 v=127
29728 Par ch=1 c=64 v=127
29803 Off ch=1 n=47 v=89
29923 On ch=1 n=52 v=89
29957 Par ch=1 c=64 v=0
29957 Par ch=1 c=64 v=0
29957 Par ch=1 c=64 v=0
29957 Par ch=1 c=64 v=0
30043 Off ch=1 n=52 v=89
30043 On ch=1 n=52 v=89
30163 Off ch=1 n=52 v=89
30193 Off ch=1 n=51 v=89
30193 Off ch=1 n=48 v=89
30223 Off ch=1 n=60 v=89
30763 On ch=1 n=47 v=89
30823 On ch=1 n=48 v=89
30838 Off ch=1 n=47 v=89
30883 On ch=1 n=47 v=89
30898 Off ch=1 n=48 v=89
30913 Off ch=1 n=47 v=89
31963 Off ch=1 n=48 v=89
31963 On ch=1 n=48 v=89
31963 On ch=1 n=48 v=89
31978 Off ch=1 n=43 v=89
31978 Off ch=1 n=43 v=89
32023 On ch=1 n=47 v=89
32023 On ch=1 n=47 v=89
32056 Off ch=1 n=48 v=89
32056 Off ch=1 n=48 v=89
32083 On ch=1 n=48 v=89
32083 On ch=1 n=48 v=89
32098 Off ch=1 n=47 v=89
32098 Off ch=1 n=47 v=89
32143 On ch=1 n=47 v=89
32158 Off ch=1 n=48 v=89
32203 Off ch=1 n=47 v=89
32203 Off ch=1 n=48 v=89
32563 On ch=1 n=62 v=80
32563 On ch=1 n=48 v=55
32563 On ch=1 n=62 v=80
32563 Meta Lyric "Tomb. "
32563 On ch=1 n=60 v=80
32563 Meta Lyric "Pino "
32563 On ch=1 n=48 v=55
32563 On ch=1 n=64 v=89
32563 On ch=1 n=56 v=80
32563 On ch=1 n=52 v=80
32563 Meta Lyric "n "
32563 On ch=1 n=48 v=80
32593 Off ch=1 n=48 v=55
32593 On ch=1 n=47 v=55
32593 Meta Lyric "A "
32593 Off ch=1 n=52 v=80
32593 Off ch=1 n=48 v=80
32603 On ch=1 n=67 v=89
32613 Off ch=1 n=64 v=89
32623 Off ch=1 n=62 v=80
32623 On ch=1 n=61 v=80
32623 Off ch=1 n=48 v=55
32623 On ch=1 n=61 v=80
32623 Off ch=1 n=60 v=80
32623 On ch=1 n=59 v=80
32623 Off ch=1 n=56 v=80
32623 On ch=1 n=60 v=80
32623 On ch=1 n=55 v=80
32623 On ch=1 n=47 v=80
32638 Off ch=1 n=62 v=80
32643 On ch=1 n=64 v=89
32653 Off ch=1 n=61 v=80
32653 Off ch=1 n=47 v=55
32653 Meta Lyric "A "
32653 Off ch=1 n=67 v=89
32653 Off ch=1 n=55 v=80
32683 On ch=1 n=61 v=55
32683 Off ch=1 n=61 v=80
32683 Off ch=1 n=59 v=80
32683 Off ch=1 n=64 v=89
32683 On ch=1 n=67 v=89
32683 Off ch=1 n=60 v=80
32683 On ch=1 n=56 v=80
32683 On ch=1 n=52 v=80
32683 Off ch=1 n=47 v=80
32713 On ch=1 n=47 v=55
32713 On ch=1 n=48 v=55
32713 Meta Lyric "A "
32743 On ch=1 n=60 v=55
32743 Off ch=1 n=47 v=55
32743 Off ch=1 n=56 v=80
32743 On ch=1 n=60 v=80
32743 Off ch=1 n=52 v=80
32743 On ch=1 n=55 v=80
32743 On ch=1 n=48 v=80
32758 Off ch=1 n=61 v=55
32773 Off ch=1 n=48 v=55
32773 On ch=1 n=55 v=55
32803 Off ch=1 n=60 v=55
32803 On ch=1 n=59 v=55
32803 On ch=1 n=69 v=80
32803 Off ch=1 n=67 v=89
32803 On ch=1 n=65 v=89
32803 Off ch=1 n=60 v=80
32803 On ch=1 n=56 v=80
32803 Off ch=1 n=55 v=80
32803 On ch=1 n=52 v=80
32803 Off ch=1 n=48 v=80
32833 On ch=1 n=48 v=55
32833 Off ch=1 n=55 v=55
32833 On ch=1 n=56 v=55
32833 On ch=1 n=47 v=55
32833 Off ch=1 n=65 v=89
32863 On ch=1 n=64 v=80
32863 Off ch=1 n=59 v=55
32863 Off ch=1 n=69 v=80
32863 On ch=1 n=64 v=80
32863 On ch=1 n=60 v=55
32863 On ch=1 n=62 v=80
32863 On ch=1 n=64 v=89
32863 Off ch=1 n=56 v=80
32863 On ch=1 n=60 v=80
32863 Off ch=1 n=52 v=80
32863 On ch=1 n=47 v=80
32893 Off ch=1 n=64 v=80
32893 Off ch=1 n=47 v=55
32893 Off ch=1 n=56 v=55
32893 On ch=1 n=57 v=55
32893 On ch=1 n=48 v=55
32893 Off ch=1 n=47 v=80
32923 Off ch=1 n=64 v=80
32923 On ch=1 n=60 v=80
32923 On ch=1 n=71 v=80
32923 Off ch=1 n=48 v=55
32923 Off ch=1 n=62 v=80
32923 On ch=1 n=61 v=80
32923 Off ch=1 n=57 v=55
32923 On ch=1 n=58 v=55
32923 On ch=1 n=67 v=89
32923 Off ch=1 n=60 v=80
32923 On ch=1 n=62 v=80
32923 On ch=1 n=56 v=80
32923 On ch=1 n=48 v=80
32941 Off ch=1 n=64 v=89
32953 Off ch=1 n=58 v=55
32953 Off ch=1 n=48 v=55
32953 On ch=1 n=44 v=55
32953 On ch=1 n=48 v=55
32953 On ch=1 n=58 v=55
32953 Off ch=1 n=62 v=80
32953 Off ch=1 n=56 v=80
32953 Off ch=1 n=48 v=80
32983 Off ch=1 n=60 v=80
32983 On ch=1 n=64 v=80
32983 Off ch=1 n=71 v=80
32983 Off ch=1 n=60 v=55
32983 On ch=1 n=69 v=55
32983 Off ch=1 n=61 v=80
32983 On ch=1 n=60 v=80
32983 On ch=1 n=59 v=80
32983 On ch=1 n=55 v=80
32983 On ch=1 n=44 v=80
32998 Off ch=1 n=58 v=55
32998 Off ch=1 n=48 v=55
32998 Off ch=1 n=44 v=55
33013 Off ch=1 n=64 v=80
33013 On ch=1 n=47 v=55
33022 Off ch=1 n=69 v=55
33043 Off ch=1 n=47 v=55
33043 Off ch=1 n=60 v=80
33043 Off ch=1 n=67 v=89
33043 Off ch=1 n=59 v=80
33043 Off ch=1 n=55 v=80
33043 Off ch=1 n=44 v=80
33043 On ch=1 n=67 v=55
33043 On ch=1 n=69 v=80
33043 On ch=1 n=55 v=55
33043 On ch=1 n=67 v=89
33043 On ch=1 n=59 v=80
33043 On ch=1 n=55 v=80
33043 On ch=1 n=55 v=80
33044 Off ch=1 n=67 v=50
33044 Off ch=1 n=64 v=55
33044 Off ch=1 n=64 v=55
33044 Off ch=1 n=50 v=55
33044 Off ch=1 n=65 v=55
33044 Off ch=1 n=55 v=50
33044 Off ch=1 n=49 v=50
33044 Off ch=1 n=45 v=50
33044 Off ch=1 n=47 v=55
33044 Off ch=1 n=43 v=55
33044 Off ch=1 n=38 v=55
33044 Off ch=1 n=64 v=89
33044 Off ch=1 n=65 v=89
33044 Off ch=1 n=62 v=89
33044 Off ch=1 n=65 v=89
33044 Off ch=1 n=67 v=89
33044 Off ch=1 n=56 v=80
33044 Off ch=1 n=48 v=80
33044 Off ch=1 n=54 v=80
33073 Off ch=1 n=67 v=55
33073 Off ch=1 n=55 v=55
33073 Off ch=1 n=67 v=89
33088 Off ch=1 n=55 v=80
33103 Off ch=1 n=69 v=80
33103 On ch=1 n=69 v=72
33103 Off ch=1 n=59 v=80
33103 Off ch=1 n=55 v=80
33133 Off ch=1 n=69 v=72
33133 On ch=1 n=69 v=72
33163 On ch=1 n=73 v=72
33163 Off ch=1 n=69 v=72
33163 On ch=1 n=69 v=72
33163 On ch=1 n=55 v=55
33223 Off ch=1 n=69 v=72
33223 On ch=1 n=69 v=72
33223 Off ch=1 n=55 v=55
33223 On ch=1 n=52 v=80
33283 Off ch=1 n=73 v=72
33283 Off ch=1 n=69 v=72
33283 On ch=1 n=69 v=72
33283 On ch=1 n=55 v=55
33343 Off ch=1 n=69 v=72
33343 On ch=1 n=69 v=72
33343 Off ch=1 n=55 v=55
33343 On ch=1 n=55 v=55
33343 Off ch=1 n=52 v=80
33373 Off ch=1 n=69 v=72
33373 On ch=1 n=69 v=72
33403 Off ch=1 n=69 v=72
33403 On ch=1 n=69 v=72
33403 Off ch=1 n=55 v=55
33463 Off ch=1 n=69 v=72
33463 On ch=1 n=69 v=72
33523 Off ch=1 n=69 v=72
33523 TimeSig 3/4 120 8
33523 On ch=1 n=72 v=72
33523 On ch=1 n=55 v=55
33553 Off ch=1 n=55 v=55
33643 On ch=1 n=55 v=55
33643 Meta Lyric "withCyn."
33703 Off ch=1 n=72 v=72
33703 On ch=1 n=73 v=72
33703 On ch=1 n=69 v=72
33703 On ch=1 n=45 v=55
33718 Off ch=1 n=55 v=55
33763 Off ch=1 n=69 v=72
33763 On ch=1 n=69 v=72
33763 On ch=1 n=55 v=55
33796 Off ch=1 n=45 v=55
33823 Off ch=1 n=73 v=72
33823 On ch=1 n=72 v=72
33823 Off ch=1 n=69 v=72
33823 On ch=1 n=69 v=72
33823 Off ch=1 n=55 v=55
33823 On ch=1 n=45 v=55
33853 Off ch=1 n=72 v=72
33853 Off ch=1 n=69 v=72
33853 On ch=1 n=69 v=72
33883 Off ch=1 n=69 v=72
33883 Off ch=1 n=45 v=55
33883 TimeSig 4/4 120 8
33883 On ch=1 n=107 v=55
33883 On ch=1 n=47 v=72
33883 On ch=1 n=69 v=72
33883 On ch=1 n=72 v=72
33883 Meta Lyric "t "
33883 On ch=1 n=47 v=89
33883 On ch=1 n=55 v=80
33883 On ch=1 n=45 v=80
33883 On ch=1 n=74 v=80
33883 On ch=1 n=71 v=80
33883 Meta Lyric "Piano "
33883 On ch=1 n=59 v=55
33883 On ch=1 n=62 v=55
33883 On ch=1 n=74 v=89
33883 On ch=1 n=74 v=89
33883 Meta Lyric ",lonttir.) "
33883 On ch=1 n=62 v=89
33883 On ch=1 n=71 v=89
33883 On ch=1 n=62 v=80
33883 Meta Lyric "flr "
33883 On ch=1 n=45 v=80
33883 On ch=1 n=59 v=80
33883 On ch=1 n=47 v=80
33913 Off ch=1 n=72 v=72
33913 On ch=1 n=74 v=72
33943 Off ch=1 n=47 v=72
33943 Off ch=1 n=74 v=72
33943 On ch=1 n=76 v=72
33943 Off ch=1 n=62 v=55
33943 Off ch=1 n=59 v=55
33943 Off ch=1 n=62 v=80
33943 On ch=1 n=47 v=80
33943 Meta Lyric "pizg. "
33943 Off ch=1 n=47 v=80
33943 Off ch=1 n=59 v=80
33943 On ch=1 n=53 v=80
33943 On ch=1 n=41 v=80
33958 Off ch=1 n=45 v=80
33973 Off ch=1 n=76 v=72
33973 On ch=1 n=72 v=72
34003 On ch=1 n=82 v=72
34003 On ch=1 n=71 v=55
34003 On ch=1 n=43 v=72
34003 Off ch=1 n=55 v=80
34003 On ch=1 n=55 v=80
34003 Off ch=1 n=74 v=80
34003 On ch=1 n=74 v=80
34003 On ch=1 n=77 v=80
34003 On ch=1 n=59 v=55
34003 On ch=1 n=62 v=55
34003 Off ch=1 n=74 v=89
34003 On ch=1 n=62 v=80
34003 On ch=1 n=53 v=80
34003 On ch=1 n=47 v=80
34003 Off ch=1 n=41 v=80
34003 Off ch=1 n=53 v=80
34018 Off ch=1 n=72 v=72
34018 On ch=1 n=69 v=72
34018 Off ch=1 n=47 v=80
34033 Off ch=1 n=107 v=55
34033 On ch=1 n=74 v=55
34040 Off ch=1 n=71 v=55
34063 Off ch=1 n=43 v=72
34063 On ch=1 n=50 v=72
34063 Off ch=1 n=55 v=80
34063 On ch=1 n=55 v=80
34063 Off ch=1 n=62 v=55
34063 Off ch=1 n=59 v=55
34063 On ch=1 n=59 v=55
34063 On ch=1 n=62 v=55
34063 Off ch=1 n=53 v=80
34063 Off ch=1 n=62 v=80
34063 On ch=1 n=64 v=80
34063 Off ch=1 n=47 v=80
34063 On ch=1 n=47 v=80
34063 On ch=1 n=41 v=80
34063 On ch=1 n=59 v=80
34063 On ch=1 n=47 v=80
34070 Off ch=1 n=45 v=80
34078 On ch=1 n=76 v=55
34078 Off ch=1 n=69 v=72
34078 On ch=1 n=72 v=72
34078 Meta Lyric "x "
34089 Off ch=1 n=74 v=55
34093 Off ch=1 n=50 v=72
34093 On ch=1 n=47 v=72
34100 Off ch=1 n=47 v=80
34108 On ch=1 n=71 v=55
34108 On ch=1 n=74 v=72
34115 Off ch=1 n=76 v=55
34115 Off ch=1 n=72 v=72
34123 Off ch=1 n=82 v=72
34123 On ch=1 n=81 v=72
34123 Off ch=1 n=71 v=80
34123 On ch=1 n=73 v=80
34123 On ch=1 n=76 v=80
34123 On ch=1 n=69 v=80
34123 Off ch=1 n=62 v=55
34123 Off ch=1 n=59 v=55
34123 Off ch=1 n=74 v=89
34123 On ch=1 n=73 v=89
34123 On ch=1 n=73 v=89
34123 Off ch=1 n=71 v=89
34123 Off ch=1 n=62 v=89
34123 On ch=1 n=61 v=89
34123 On ch=1 n=71 v=89
34123 Off ch=1 n=64 v=80
34123 On ch=1 n=64 v=80
34123 On ch=1 n=47 v=80
34123 Off ch=1 n=47 v=80
34123 Off ch=1 n=59 v=80
34135 Off ch=1 n=71 v=55
34138 Off ch=1 n=74 v=72
34138 On ch=1 n=76 v=72
34138 Off ch=1 n=41 v=80
34153 On ch=1 n=69 v=55
34153 Off ch=1 n=47 v=72
34168 Off ch=1 n=76 v=72
34168 On ch=1 n=72 v=72
34175 Off ch=1 n=55 v=80
34183 Off ch=1 n=69 v=72
34183 On ch=1 n=53 v=80
34183 On ch=1 n=59 v=55
34183 On ch=1 n=62 v=55
34183 Off ch=1 n=73 v=89
34183 Off ch=1 n=64 v=80
34183 On ch=1 n=64 v=80
34183 Off ch=1 n=47 v=80
34183 On ch=1 n=45 v=80
34183 On ch=1 n=47 v=80
34183 On ch=1 n=53 v=80
34183 On ch=1 n=41 v=80
34190 Off ch=1 n=77 v=80
34190 Off ch=1 n=74 v=80
34198 Off ch=1 n=72 v=72
34198 On ch=1 n=69 v=72
34213 On ch=1 n=71 v=55
34213 On ch=1 n=41 v=72
34213 Off ch=1 n=47 v=89
34213 On ch=1 n=50 v=89
34228 Off ch=1 n=69 v=55
34243 On ch=1 n=79 v=72
34243 Off ch=1 n=71 v=55
34243 On ch=1 n=74 v=55
34243 On ch=1 n=67 v=72
34243 Off ch=1 n=50 v=89
34243 On ch=1 n=53 v=89
34243 Off ch=1 n=53 v=80
34243 On ch=1 n=45 v=80
34243 On ch=1 n=55 v=80
34243 Off ch=1 n=76 v=80
34243 On ch=1 n=76 v=80
34243 On ch=1 n=67 v=80
34243 Off ch=1 n=62 v=55
34243 Off ch=1 n=59 v=55
34243 Off ch=1 n=73 v=89
34243 On ch=1 n=74 v=89
34243 On ch=1 n=74 v=89
34243 Off ch=1 n=71 v=89
34243 Off ch=1 n=61 v=89
34243 On ch=1 n=62 v=89
34243 On ch=1 n=71 v=89
34243 Meta Lyric ""
34243 Off ch=1 n=47 v=80
34243 Off ch=1 n=45 v=80
34243 On ch=1 n=47 v=80
34243 Off ch=1 n=41 v=80
34243 Off ch=1 n=53 v=80
34253 Off ch=1 n=41 v=72
34253 On ch=1 n=53 v=72
34258 Off ch=1 n=69 v=72
34258 On ch=1 n=72 v=80
34273 Off ch=1 n=81 v=72
34273 Off ch=1 n=74 v=55
34273 On ch=1 n=76 v=55
34273 Off ch=1 n=72 v=80
34273 Off ch=1 n=69 v=80
34273 Off ch=1 n=73 v=80
34288 On ch=1 n=74 v=80
34303 Off ch=1 n=76 v=55
34303 On ch=1 n=71 v=55
34303 Off ch=1 n=53 v=72
34303 Off ch=1 n=53 v=89
34303 Off ch=1 n=45 v=80
34303 Off ch=1 n=64 v=80
34303 On ch=1 n=64 v=80
34303 On ch=1 n=53 v=80
34303 Off ch=1 n=47 v=80
34303 On ch=1 n=47 v=80
34303 On ch=1 n=41 v=80
34318 Off ch=1 n=74 v=80
34318 On ch=1 n=76 v=80
34323 Off ch=1 n=55 v=80
34323 On ch=1 n=55 v=80
34333 Off ch=1 n=71 v=55
34333 On ch=1 n=69 v=55
34348 Off ch=1 n=76 v=80
34363 Off ch=1 n=79 v=72
34363 Off ch=1 n=69 v=55
34363 Off ch=1 n=67 v=72
34363 Off ch=1 n=55 v=80
34363 Off ch=1 n=67 v=80
34363 Off ch=1 n=76 v=80
34363 Off ch=1 n=74 v=89
34363 Off ch=1 n=74 v=89
34363 Off ch=1 n=71 v=89
34363 Off ch=1 n=62 v=89
34363 Off ch=1 n=53 v=80
34363 Off ch=1 n=64 v=80
34363 Off ch=1 n=41 v=80
34363 Off ch=1 n=47 v=80
34363 On ch=1 n=77 v=72
34363 On ch=1 n=86 v=80
34363 On ch=1 n=50 v=72
34363 On ch=1 n=72 v=80
34363 On ch=1 n=50 v=89
34363 On ch=1 n=55 v=80
34363 On ch=1 n=69 v=80
34363 On ch=1 n=57 v=55
34363 On ch=1 n=62 v=55
34363 Meta Lyric "loll "
34363 On ch=1 n=62 v=89
34363 On ch=1 n=69 v=89
34363 On ch=1 n=65 v=89
34363 On ch=1 n=69 v=89
34363 On ch=1 n=74 v=80
34363 On ch=1 n=45 v=80
34363 On ch=1 n=59 v=80
34363 On ch=1 n=47 v=80
34364 Off ch=1 n=65 v=80
34393 Meta Lyric "vf "
34393 On ch=1 n=76 v=55
34393 Meta Lyric ".y "
34423 Off ch=1 n=76 v=55
34423 On ch=1 n=72 v=55
34423 Off ch=1 n=72 v=80
34423 On ch=1 n=69 v=80
34423 Off ch=1 n=50 v=89
34423 On ch=1 n=53 v=89
34423 Meta Lyric "-"
34423 Off ch=1 n=69 v=80
34433 On ch=1 n=47 v=72
34443 Off ch=1 n=50 v=72
34453 Off ch=1 n=86 v=80
34453 On ch=1 n=86 v=55
34453 Off ch=1 n=72 v=55
34453 On ch=1 n=69 v=55
34453 On ch=1 n=60 v=63
34453 On ch=1 n=72 v=80
34453 Off ch=1 n=62 v=55
34453 Off ch=1 n=57 v=55
34453 On ch=1 n=59 v=55
34453 On ch=1 n=62 v=55
34453 Off ch=1 n=69 v=89
34453 Off ch=1 n=62 v=89
34453 On ch=1 n=62 v=89
34453 On ch=1 n=72 v=89
34453 Off ch=1 n=69 v=89
34453 Off ch=1 n=65 v=89
34453 On ch=1 n=72 v=89
34453 Off ch=1 n=74 v=80
34453 On ch=1 n=74 v=80
34453 On ch=1 n=53 v=80
34453 Off ch=1 n=45 v=80
34453 On ch=1 n=47 v=80
34453 Off ch=1 n=47 v=80
34453 Off ch=1 n=59 v=80
34453 On ch=1 n=53 v=80
34453 On ch=1 n=41 v=80
34473 Off ch=1 n=47 v=72
34483 Off ch=1 n=69 v=80
34483 On ch=1 n=69 v=80
34483 Off ch=1 n=72 v=80
34513 Off ch=1 n=86 v=55
34513 On ch=1 n=86 v=55
34513 Off ch=1 n=69 v=55
34513 On ch=1 n=69 v=55
34513 On ch=1 n=41 v=72
34513 Off ch=1 n=60 v=63
34513 Off ch=1 n=55 v=80
34513 On ch=1 n=45 v=80
34513 On ch=1 n=55 v=80
34513 On ch=1 n=71 v=80
34513 Off ch=1 n=62 v=55
34513 Off ch=1 n=59 v=55
34513 Off ch=1 n=72 v=89
34513 Off ch=1 n=62 v=89
34513 On ch=1 n=62 v=89
34513 On ch=1 n=71 v=89
34513 Off ch=1 n=72 v=89
34513 On ch=1 n=71 v=89
34513 Off ch=1 n=53 v=80
34513 Off ch=1 n=74 v=80
34513 On ch=1 n=74 v=80
34513 On ch=1 n=47 v=80
34513 Off ch=1 n=41 v=80
34513 Off ch=1 n=53 v=80
34528 Off ch=1 n=47 v=80
34543 Off ch=1 n=69 v=55
34543 On ch=1 n=67 v=55
34543 Off ch=1 n=69 v=80
34543 On ch=1 n=67 v=80
34550 Off ch=1 n=71 v=89
34553 Off ch=1 n=41 v=72
34573 Off ch=1 n=86 v=55
34573 On ch=1 n=86 v=55
34573 On ch=1 n=60 v=63
34573 Off ch=1 n=55 v=80
34573 On ch=1 n=55 v=80
34573 Off ch=1 n=71 v=80
34573 On ch=1 n=67 v=80
34573 Off ch=1 n=71 v=89
34573 Off ch=1 n=62 v=89
34573 On ch=1 n=67 v=89
34573 On ch=1 n=67 v=89
34573 On ch=1 n=62 v=89
34573 On ch=1 n=65 v=89
34573 Meta Lyric "J "
34573 Off ch=1 n=74 v=80
34573 On ch=1 n=74 v=80
34573 Off ch=1 n=47 v=80
34573 On ch=1 n=47 v=80
34573 On ch=1 n=41 v=80
34603 Off ch=1 n=67 v=55
34603 On ch=1 n=67 v=55
34603 Off ch=1 n=67 v=80
34603 On ch=1 n=67 v=80
34610 Off ch=1 n=55 v=80
34633 Off ch=1 n=77 v=72
34633 On ch=1 n=74 v=72
34633 On ch=1 n=47 v=72
34633 Off ch=1 n=60 v=63
34633 Off ch=1 n=45 v=80
34633 On ch=1 n=55 v=80
34633 Off ch=1 n=67 v=80
34633 On ch=1 n=65 v=80
34633 On ch=1 n=69 v=80
34633 On ch=1 n=62 v=80
34633 On ch=1 n=57 v=55
34633 On ch=1 n=62 v=55
34633 Off ch=1 n=67 v=89
34633 Off ch=1 n=67 v=89
34633 On ch=1 n=69 v=89
34633 On ch=1 n=69 v=89
34633 Off ch=1 n=65 v=89
34633 Off ch=1 n=62 v=89
34633 On ch=1 n=65 v=89
34633 Off ch=1 n=41 v=80
34633 Off ch=1 n=47 v=80
34633 On ch=1 n=47 v=80
34633 On ch=1 n=59 v=80
34633 On ch=1 n=47 v=80
34648 Off ch=1 n=69 v=89
34663 Off ch=1 n=67 v=55
34663 On ch=1 n=67 v=55
34663 Off ch=1 n=53 v=89
34663 On ch=1 n=50 v=89
34663 Off ch=1 n=69 v=89
34663 On ch=1 n=67 v=89
34663 On ch=1 n=67 v=89
34663 Off ch=1 n=65 v=89
34663 On ch=1 n=64 v=89
34663 Off ch=1 n=47 v=80
34673 Off ch=1 n=47 v=72
34693 Off ch=1 n=86 v=55
34693 On ch=1 n=85 v=55
34693 On ch=1 n=72 v=80
34693 Off ch=1 n=55 v=80
34693 On ch=1 n=45 v=80
34693 On ch=1 n=55 v=80
34693 Off ch=1 n=69 v=80
34693 Off ch=1 n=65 v=80
34693 On ch=1 n=64 v=80
34693 On ch=1 n=67 v=80
34693 Off ch=1 n=62 v=55
34693 Off ch=1 n=57 v=55
34693 On ch=1 n=65 v=89
34693 On ch=1 n=65 v=89
34693 On ch=1 n=59 v=89
34693 On ch=1 n=62 v=89
34693 Meta Lyric "J "
34693 Off ch=1 n=74 v=80
34693 On ch=1 n=73 v=80
34693 On ch=1 n=53 v=80
34693 Off ch=1 n=47 v=80
34693 Off ch=1 n=59 v=80
34700 Off ch=1 n=67 v=80
34700 Off ch=1 n=67 v=89
34700 Off ch=1 n=67 v=89
34700 Off ch=1 n=64 v=89
34713 On ch=1 n=41 v=72
34723 Off ch=1 n=72 v=80
34723 Off ch=1 n=67 v=80
34723 Off ch=1 n=64 v=80
34723 On ch=1 n=60 v=80
34723 On ch=1 n=65 v=80
34733 Off ch=1 n=73 v=80
34753 Off ch=1 n=85 v=55
34753 On ch=1 n=86 v=55
34753 On ch=1 n=60 v=63
34753 Off ch=1 n=55 v=80
34753 On ch=1 n=55 v=80
34753 Off ch=1 n=65 v=89
34753 Off ch=1 n=65 v=89
34753 On ch=1 n=65 v=89
34753 On ch=1 n=65 v=89
34753 Off ch=1 n=53 v=80
34753 On ch=1 n=74 v=80
34753 On ch=1 n=53 v=80
34753 On ch=1 n=41 v=80
34773 Off ch=1 n=41 v=72
34783 Off ch=1 n=67 v=55
34783 Off ch=1 n=65 v=80
34783 Off ch=1 n=60 v=80
34783 Off ch=1 n=62 v=89
34783 Off ch=1 n=59 v=89
34783 On ch=1 n=45 v=80
34783 On ch=1 n=47 v=80
34783 Off ch=1 n=41 v=80
34813 Off ch=1 n=60 v=63
34813 Off ch=1 n=55 v=80
34813 Off ch=1 n=45 v=80
34813 On ch=1 n=55 v=80
34813 Off ch=1 n=65 v=89
34813 Off ch=1 n=65 v=89
34813 On ch=1 n=65 v=89
34813 On ch=1 n=65 v=89
34813 On ch=1 n=62 v=89
34813 Off ch=1 n=74 v=80
34813 Off ch=1 n=53 v=80
34843 On ch=1 n=47 v=80
34858 Off ch=1 n=47 v=80
34858 Off ch=1 n=45 v=80
34873 Off ch=1 n=74 v=72
34873 Off ch=1 n=86 v=55
34873 Off ch=1 n=50 v=89
34873 Off ch=1 n=55 v=80
34873 Off ch=1 n=62 v=80
34873 Off ch=1 n=65 v=89
34873 Off ch=1 n=65 v=89
34873 Off ch=1 n=62 v=89
34873 Off ch=1 n=47 v=80
34873 On ch=1 n=79 v=72
34873 On ch=1 n=76 v=55
34873 On ch=1 n=62 v=55
34873 On ch=1 n=50 v=72
34873 On ch=1 n=60 v=63
34873 On ch=1 n=62 v=80
34873 On ch=1 n=47 v=89
34873 Meta Lyric "J "
34873 On ch=1 n=59 v=55
34873 On ch=1 n=62 v=55
34873 On ch=1 n=74 v=89
34873 On ch=1 n=74 v=89
34873 On ch=1 n=62 v=89
34873 On ch=1 n=71 v=89
34873 On ch=1 n=65 v=80
34873 On ch=1 n=53 v=80
34873 On ch=1 n=47 v=80
34875 Par ch=1 c=64 v=0
34875 Par ch=1 c=64 v=0
34875 Par ch=1 c=64 v=0
34875 Par ch=1 c=64 v=0
34875 Par ch=1 c=64 v=127
34875 Par ch=1 c=64 v=127
34875 Par ch=1 c=64 v=127
34875 Par ch=1 c=64 v=127
34893 Off ch=1 n=50 v=72
34893 On ch=1 n=47 v=72
34903 Off ch=1 n=62 v=55
34903 On ch=1 n=62 v=55
34903 On ch=1 n=63 v=80
34903 On ch=1 n=67 v=80
34910 Off ch=1 n=62 v=80
34910 Off ch=1 n=71 v=80
34933 Meta Lyric "- "
34933 Off ch=1 n=47 v=72
34933 Off ch=1 n=60 v=63
34933 Off ch=1 n=63 v=80
34933 On ch=1 n=62 v=80
34933 Off ch=1 n=67 v=80
34933 On ch=1 n=65 v=80
34933 Off ch=1 n=62 v=55
34933 Off ch=1 n=59 v=55
34933 On ch=1 n=59 v=55
34933 On ch=1 n=62 v=55
34933 Off ch=1 n=74 v=89
34933 Off ch=1 n=53 v=80
34933 Off ch=1 n=47 v=80
34933 On ch=1 n=45 v=80
34933 On ch=1 n=47 v=80
34933 On ch=1 n=47 v=80
34933 On ch=1 n=57 v=80
34953 Off ch=1 n=65 v=80
34953 On ch=1 n=66 v=80
34963 On ch=1 n=63 v=55
34963 Off ch=1 n=62 v=80
34963 On ch=1 n=63 v=80
34963 Off ch=1 n=65 v=80
34963 On ch=1 n=71 v=80
34963 Off ch=1 n=57 v=80
34963 Off ch=1 n=47 v=80
34973 On ch=1 n=41 v=72
34978 Off ch=1 n=62 v=55
34978 Off ch=1 n=71 v=80
34993 Off ch=1 n=79 v=72
34993 On ch=1 n=77 v=72
34993 Off ch=1 n=76 v=55
34993 On ch=1 n=77 v=55
34993 On ch=1 n=64 v=55
34993 On ch=1 n=60 v=63
34993 Off ch=1 n=63 v=80
34993 On ch=1 n=62 v=80
34993 On ch=1 n=71 v=105
34993 Meta Lyric "- "
34993 Off ch=1 n=62 v=55
34993 Off ch=1 n=59 v=55
34993 On ch=1 n=59 v=55
34993 On ch=1 n=62 v=55
34993 Off ch=1 n=74 v=89
34993 On ch=1 n=74 v=89
34993 On ch=1 n=74 v=89
34993 Off ch=1 n=71 v=89
34993 Off ch=1 n=62 v=89
34993 On ch=1 n=71 v=89
34993 Off ch=1 n=66 v=80
34993 On ch=1 n=67 v=80
34993 On ch=1 n=53 v=80
34993 Off ch=1 n=47 v=80
34993 Off ch=1 n=45 v=80
34993 On ch=1 n=47 v=80
35000 Off ch=1 n=63 v=55
35013 Off ch=1 n=41 v=72
35023 Off ch=1 n=64 v=55
35023 On ch=1 n=62 v=55
35023 Off ch=1 n=62 v=80
35023 On ch=1 n=63 v=80
35023 Off ch=1 n=71 v=105
35023 On ch=1 n=67 v=101
35036 Par ch=1 c=64 v=0
35036 Par ch=1 c=64 v=0
35036 Par ch=1 c=64 v=0
35036 Par ch=1 c=64 v=0
35053 Off ch=1 n=62 v=55
35053 On ch=1 n=63 v=55
35053 Off ch=1 n=60 v=63
35053 On ch=1 n=69 v=80
35053 Off ch=1 n=67 v=101
35053 On ch=1 n=65 v=96
35053 Off ch=1 n=62 v=55
35053 Off ch=1 n=59 v=55
35053 On ch=1 n=57 v=55
35053 On ch=1 n=62 v=55
35053 Off ch=1 n=74 v=89
35053 Off ch=1 n=53 v=80
35053 Off ch=1 n=47 v=80
35053 On ch=1 n=47 v=80
35053 On ch=1 n=41 v=80
35053 On ch=1 n=41 v=80
35053 On ch=1 n=53 v=80
35060 Off ch=1 n=63 v=80
35083 Off ch=1 n=63 v=55
35083 On ch=1 n=64 v=55
35083 Off ch=1 n=65 v=96
35083 On ch=1 n=62 v=92
35113 On ch=1 n=74 v=72
35113 Off ch=1 n=77 v=55
35113 Off ch=1 n=64 v=55
35113 On ch=1 n=62 v=55
35113 On ch=1 n=41 v=89
35113 On ch=1 n=60 v=63
35113 Off ch=1 n=69 v=80
35113 On ch=1 n=67 v=80
35113 Off ch=1 n=62 v=92
35113 On ch=1 n=67 v=87
35113 Off ch=1 n=62 v=55
35113 Off ch=1 n=57 v=55
35113 Off ch=1 n=74 v=89
35113 On ch=1 n=73 v=89
35113 On ch=1 n=73 v=89
35113 Off ch=1 n=71 v=89
35113 On ch=1 n=61 v=89
35113 On ch=1 n=71 v=89
35113 Off ch=1 n=67 v=80
35113 On ch=1 n=66 v=80
35113 Off ch=1 n=41 v=80
35113 Off ch=1 n=47 v=80
35113 On ch=1 n=47 v=80
35113 Off ch=1 n=53 v=80
35113 Off ch=1 n=41 v=80
35143 Off ch=1 n=77 v=72
35143 Off ch=1 n=62 v=55
35143 On ch=1 n=63 v=55
35153 Off ch=1 n=41 v=89
35173 Off ch=1 n=63 v=55
35173 On ch=1 n=69 v=55
35173 Off ch=1 n=60 v=63
35173 On ch=1 n=60 v=63
35173 On ch=1 n=64 v=80
35173 Off ch=1 n=47 v=89
35173 On ch=1 n=47 v=89
35173 Meta Lyric "J "
35173 Off ch=1 n=67 v=87
35173 On ch=1 n=65 v=78
35173 Off ch=1 n=73 v=89
35173 Off ch=1 n=66 v=80
35173 On ch=1 n=65 v=80
35173 On ch=1 n=53 v=80
35173 Off ch=1 n=47 v=80
35173 On ch=1 n=43 v=80
35188 Off ch=1 n=67 v=80
35203 Meta Lyric "6r "
35203 On ch=1 n=55 v=80
35203 On ch=1 n=45 v=80
35204 Off ch=1 n=55 v=80
35323 Off ch=1 n=45 v=80
35323 Off ch=1 n=55 v=80
35323 On ch=1 n=55 v=80
35413 Off ch=1 n=55 v=80
35413 On ch=1 n=55 v=80
35503 Off ch=1 n=55 v=80
35533 Off ch=1 n=60 v=63
35533 Off ch=1 n=47 v=89
35533 On ch=1 n=50 v=89
35533 On ch=1 n=55 v=80
35533 On ch=1 n=47 v=80
35533 On ch=1 n=59 v=80
35563 Off ch=1 n=74 v=72
35563 On ch=1 n=70 v=72
35563 Off ch=1 n=69 v=55
35563 On ch=1 n=67 v=55
35563 Off ch=1 n=65 v=78
35563 On ch=1 n=64 v=69
35563 On ch=1 n=63 v=69
35563 Off ch=1 n=73 v=89
35563 On ch=1 n=74 v=89
35563 On ch=1 n=74 v=89
35563 Off ch=1 n=71 v=89
35563 Off ch=1 n=61 v=89
35563 On ch=1 n=62 v=89
35563 On ch=1 n=71 v=89
35563 Meta Lyric ".I"
35563 Off ch=1 n=53 v=80
35563 Off ch=1 n=43 v=80
35563 On ch=1 n=47 v=80
35593 On ch=1 n=60 v=80
35593 Off ch=1 n=59 v=80
35593 Off ch=1 n=47 v=80
35615 Off ch=1 n=64 v=80
35623 On ch=1 n=64 v=55
35623 Off ch=1 n=50 v=89
35623 Off ch=1 n=63 v=69
35623 Off ch=1 n=64 v=69
35623 On ch=1 n=65 v=60
35623 On ch=1 n=59 v=60
35623 Off ch=1 n=74 v=89
35623 On ch=1 n=64 v=80
35623 On ch=1 n=47 v=80
35638 Off ch=1 n=67 v=55
35638 Off ch=1 n=47 v=80
35653 Off ch=1 n=60 v=80
35653 Off ch=1 n=55 v=80
35653 On ch=1 n=45 v=80
35653 On ch=1 n=55 v=80
35653 On ch=1 n=53 v=80
35653 On ch=1 n=41 v=80
35683 Off ch=1 n=70 v=72
35683 Off ch=1 n=64 v=55
35683 Off ch=1 n=55 v=80
35683 Off ch=1 n=45 v=80
35683 Off ch=1 n=59 v=60
35683 Off ch=1 n=65 v=60
35683 Off ch=1 n=74 v=89
35683 Off ch=1 n=71 v=89
35683 Off ch=1 n=62 v=89
35683 Off ch=1 n=64 v=80
35683 Off ch=1 n=65 v=80
35683 Off ch=1 n=47 v=80
35683 Meta Lyric "rco "
35683 Off ch=1 n=41 v=80
35683 Off ch=1 n=53 v=80
35683 On ch=1 n=65 v=72
35683 On ch=1 n=87 v=80
35683 On ch=1 n=62 v=55
35683 On ch=1 n=47 v=89
35683 On ch=1 n=65 v=63
35683 Meta Lyric "lr "
35683 On ch=1 n=62 v=80
35683 On ch=1 n=47 v=89
35683 On ch=1 n=55 v=80
35683 On ch=1 n=45 v=80
35683 Meta Lyric ",no "
35683 On ch=1 n=79 v=50
35683 On ch=1 n=47 v=55
35683 On ch=1 n=40 v=55
35683 On ch=1 n=79 v=89
35683 On ch=1 n=71 v=89
35683 Meta Lyric "lr "
35683 On ch=1 n=65 v=111
35683 On ch=1 n=60 v=80
35683 On ch=1 n=59 v=80
35683 On ch=1 n=47 v=80
35683 On ch=1 n=47 v=80
35683 On ch=1 n=52 v=80
35683 On ch=1 n=40 v=80
35684 Off ch=1 n=62 v=80
35713 Off ch=1 n=87 v=80
35713 On ch=1 n=86 v=80
35713 Off ch=1 n=62 v=55
35713 On ch=1 n=64 v=55
35713 Off ch=1 n=62 v=80
35713 On ch=1 n=64 v=80
35713 Off ch=1 n=47 v=89
35713 On ch=1 n=40 v=89
35713 Off ch=1 n=47 v=80
35723 Off ch=1 n=47 v=89
35723 On ch=1 n=48 v=89
35723 Off ch=1 n=60 v=80
35743 Off ch=1 n=65 v=72
35743 On ch=1 n=79 v=72
35743 Off ch=1 n=64 v=55
35743 On ch=1 n=65 v=55
35743 Off ch=1 n=65 v=63
35743 On ch=1 n=67 v=63
35743 Off ch=1 n=64 v=80
35743 On ch=1 n=65 v=80
35743 Off ch=1 n=45 v=80
35743 Off ch=1 n=47 v=55
35743 On ch=1 n=48 v=55
35743 Off ch=1 n=59 v=80
35743 On ch=1 n=47 v=80
35743 Off ch=1 n=47 v=80
35743 On ch=1 n=48 v=80
35743 On ch=1 n=48 v=80
35743 On ch=1 n=53 v=80
35743 On ch=1 n=41 v=80
35758 Off ch=1 n=40 v=80
35758 Off ch=1 n=52 v=80
35763 Off ch=1 n=48 v=89
35763 On ch=1 n=50 v=89
35773 Off ch=1 n=86 v=80
35773 On ch=1 n=84 v=80
35773 Off ch=1 n=65 v=55
35773 On ch=1 n=67 v=55
35773 Off ch=1 n=67 v=63
35773 Off ch=1 n=65 v=80
35773 On ch=1 n=67 v=80
35773 Off ch=1 n=40 v=89
35773 On ch=1 n=41 v=89
35773 Off ch=1 n=40 v=55
35773 On ch=1 n=41 v=55
35788 Off ch=1 n=55 v=80
35788 On ch=1 n=55 v=80
35788 On ch=1 n=45 v=80
35788 Meta Lyric "Cy "
35803 Off ch=1 n=79 v=72
35803 On ch=1 n=79 v=72
35803 On ch=1 n=69 v=63
35803 Off ch=1 n=67 v=80
35803 On ch=1 n=67 v=80
35803 On ch=1 n=43 v=89
35803 Off ch=1 n=79 v=50
35803 On ch=1 n=72 v=80
35803 On ch=1 n=50 v=55
35803 On ch=1 n=43 v=55
35803 Off ch=1 n=47 v=80
35803 On ch=1 n=59 v=80
35803 Off ch=1 n=48 v=80
35803 Off ch=1 n=48 v=80
35803 On ch=1 n=50 v=80
35803 On ch=1 n=50 v=80
35803 Off ch=1 n=41 v=80
35803 Off ch=1 n=53 v=80
35803 On ch=1 n=53 v=80
35803 On ch=1 n=41 v=80
35810 Off ch=1 n=41 v=89
35810 Off ch=1 n=41 v=55
35818 Off ch=1 n=84 v=80
35818 On ch=1 n=83 v=80
35818 Off ch=1 n=48 v=55
35833 On ch=1 n=45 v=89
35833 On ch=1 n=71 v=80
35833 On ch=1 n=45 v=55
35833 On ch=1 n=57 v=80
35833 On ch=1 n=43 v=80
35840 Off ch=1 n=43 v=89
35840 Off ch=1 n=72 v=80
35840 Off ch=1 n=43 v=55
35843 Off ch=1 n=59 v=80
35843 On ch=1 n=59 v=80
35843 On ch=1 n=50 v=80
35848 Off ch=1 n=45 v=80
35848 Off ch=1 n=55 v=80
35848 On ch=1 n=45 v=80
35848 Meta Lyric "n.) "
35848 Off ch=1 n=45 v=55
35849 Off ch=1 n=41 v=80
35849 Off ch=1 n=53 v=80
35863 Off ch=1 n=79 v=72
35863 On ch=1 n=77 v=72
35863 Off ch=1 n=45 v=89
35863 On ch=1 n=47 v=89
35863 On ch=1 n=47 v=55
35863 Off ch=1 n=79 v=89
35863 On ch=1 n=77 v=89
35863 Off ch=1 n=43 v=80
35863 Off ch=1 n=57 v=80
35863 On ch=1 n=59 v=80
35863 On ch=1 n=47 v=80
35878 Off ch=1 n=83 v=80
35878 On ch=1 n=84 v=80
35883 Off ch=1 n=50 v=89
35883 On ch=1 n=50 v=89
35893 On ch=1 n=72 v=80
35893 On ch=1 n=77 v=80
35903 Off ch=1 n=59 v=80
35903 On ch=1 n=64 v=80
35908 Off ch=1 n=45 v=80
35908 On ch=1 n=55 v=80
35908 Off ch=1 n=71 v=80
35908 Off ch=1 n=47 v=80
35919 Off ch=1 n=47 v=89
35923 Off ch=1 n=77 v=72
35923 On ch=1 n=74 v=72
35923 Off ch=1 n=67 v=55
35923 On ch=1 n=67 v=55
35923 Off ch=1 n=50 v=89
35923 Off ch=1 n=69 v=63
35923 On ch=1 n=67 v=63
35923 Off ch=1 n=77 v=89
35923 Off ch=1 n=71 v=89
35923 On ch=1 n=65 v=89
35923 On ch=1 n=74 v=89
35923 Off ch=1 n=65 v=111
35923 On ch=1 n=62 v=89
35923 On ch=1 n=69 v=89
35923 Off ch=1 n=50 v=80
35938 Off ch=1 n=84 v=80
35938 On ch=1 n=86 v=80
35940 Off ch=1 n=64 v=80
35953 On ch=1 n=70 v=55
35953 On ch=1 n=70 v=80
35953 On ch=1 n=48 v=89
35953 Off ch=1 n=77 v=80
35953 Off ch=1 n=72 v=80
35953 On ch=1 n=74 v=80
35953 On ch=1 n=69 v=80
35953 On ch=1 n=62 v=80
35953 Off ch=1 n=47 v=55
35953 On ch=1 n=47 v=55
35953 Off ch=1 n=74 v=89
35953 Off ch=1 n=65 v=89
35953 On ch=1 n=60 v=80
35953 On ch=1 n=49 v=80
35960 Off ch=1 n=67 v=55
35960 Off ch=1 n=67 v=80
35963 On ch=1 n=48 v=89
35963 Off ch=1 n=50 v=80
35963 On ch=1 n=62 v=80
35968 Off ch=1 n=55 v=80
35968 On ch=1 n=55 v=80
35971 Off ch=1 n=48 v=89
35980 Off ch=1 n=59 v=80
35983 On ch=1 n=50 v=89
35983 Off ch=1 n=50 v=55
35983 On ch=1 n=50 v=55
35983 On ch=1 n=50 v=55
35983 On ch=1 n=77 v=89
35983 On ch=1 n=69 v=89
35983 On ch=1 n=67 v=89
35983 Off ch=1 n=69 v=89
35983 Off ch=1 n=62 v=89
35983 On ch=1 n=65 v=89
35983 On ch=1 n=74 v=89
35983 Off ch=1 n=50 v=80
35983 On ch=1 n=50 v=80
35983 On ch=1 n=50 v=80
35983 Off ch=1 n=49 v=80
35983 Off ch=1 n=60 v=80
35983 On ch=1 n=62 v=80
35983 On ch=1 n=50 v=80
35990 Off ch=1 n=47 v=55
35998 Off ch=1 n=86 v=80
35998 On ch=1 n=77 v=80
35998 Off ch=1 n=74 v=80
36003 Off ch=1 n=48 v=89
36013 On ch=1 n=69 v=55
36013 On ch=1 n=67 v=80
36013 Off ch=1 n=62 v=80
36013 On ch=1 n=64 v=80
36013 On ch=1 n=66 v=80
36013 On ch=1 n=77 v=80
36013 On ch=1 n=65 v=80
36013 On ch=1 n=69 v=80
36013 Meta Lyric "v "
36023 On ch=1 n=61 v=80
36023 On ch=1 n=53 v=80
36028 Off ch=1 n=70 v=55
36028 Off ch=1 n=70 v=80
36028 Off ch=1 n=55 v=80
36028 On ch=1 n=43 v=80
36038 Off ch=1 n=62 v=80
36043 Off ch=1 n=74 v=72
36043 On ch=1 n=77 v=72
36043 Off ch=1 n=67 v=63
36043 On ch=1 n=67 v=63
36043 Off ch=1 n=67 v=89
36043 On ch=1 n=69 v=89
36043 Off ch=1 n=74 v=89
36043 Off ch=1 n=65 v=89
36043 Off ch=1 n=50 v=80
36050 Off ch=1 n=69 v=80
36050 Off ch=1 n=65 v=80
36058 Off ch=1 n=77 v=80
36058 On ch=1 n=77 v=80
36073 Off ch=1 n=69 v=55
36073 Off ch=1 n=67 v=63
36073 Off ch=1 n=67 v=80
36073 Off ch=1 n=69 v=80
36073 On ch=1 n=66 v=80
36073 On ch=1 n=65 v=80
36083 On ch=1 n=60 v=80
36098 Off ch=1 n=61 v=80
36103 Off ch=1 n=50 v=89
36103 On ch=1 n=48 v=89
36103 Off ch=1 n=50 v=55
36103 Off ch=1 n=50 v=55
36103 On ch=1 n=48 v=55
36103 On ch=1 n=48 v=55
36103 Off ch=1 n=69 v=89
36103 Off ch=1 n=77 v=89
36103 On ch=1 n=69 v=89
36103 On ch=1 n=76 v=89
36103 On ch=1 n=64 v=89
36103 On ch=1 n=65 v=89
36103 Off ch=1 n=50 v=80
36103 On ch=1 n=48 v=80
36103 On ch=1 n=48 v=80
36103 Off ch=1 n=50 v=80
36103 Off ch=1 n=62 v=80
36103 On ch=1 n=60 v=80
36103 On ch=1 n=49 v=80
36118 Off ch=1 n=77 v=80
36118 On ch=1 n=77 v=80
36118 Off ch=1 n=69 v=89
36120 Off ch=1 n=60 v=80
36133 On ch=1 n=74 v=80
36133 On ch=1 n=64 v=80
36133 On ch=1 n=65 v=80
36133 On ch=1 n=69 v=80
36143 On ch=1 n=59 v=80
36148 Off ch=1 n=43 v=80
36148 On ch=1 n=45 v=80
36163 Off ch=1 n=77 v=72
36163 Off ch=1 n=77 v=80
36163 Off ch=1 n=48 v=89
36163 Off ch=1 n=45 v=80
36163 Off ch=1 n=69 v=80
36163 Off ch=1 n=65 v=80
36163 Off ch=1 n=64 v=80
36163 Off ch=1 n=74 v=80
36163 Off ch=1 n=65 v=80
36163 Off ch=1 n=66 v=80
36163 Off ch=1 n=77 v=80
36163 Off ch=1 n=66 v=80
36163 Off ch=1 n=64 v=80
36163 Off ch=1 n=48 v=55
36163 Off ch=1 n=48 v=55
36163 Off ch=1 n=76 v=89
36163 Off ch=1 n=69 v=89
36163 Off ch=1 n=65 v=89
36163 Off ch=1 n=64 v=89
36163 Off ch=1 n=53 v=80
36163 Off ch=1 n=59 v=80
36163 Off ch=1 n=48 v=80
36163 Off ch=1 n=48 v=80
36163 Off ch=1 n=49 v=80
36163 On ch=1 n=67 v=80
36163 On ch=1 n=67 v=80
36163 On ch=1 n=79 v=55
36163 On ch=1 n=48 v=63
36163 On ch=1 n=48 v=80
36163 On ch=1 n=55 v=80
36163 Meta Lyric "Piano "
36163 On ch=1 n=72 v=89
36163 On ch=1 n=72 v=89
36163 Meta Lyric "vl.n "
36163 On ch=1 n=60 v=80
36163 On ch=1 n=48 v=80
36163 On ch=1 n=48 v=80
36163 On ch=1 n=48 v=80
36193 Off ch=1 n=79 v=55
36193 On ch=1 n=68 v=89
36203 On ch=1 n=68 v=89
36223 Off ch=1 n=67 v=80
36223 On ch=1 n=83 v=55
36223 On ch=1 n=73 v=80
36223 Off ch=1 n=55 v=80
36223 On ch=1 n=45 v=46
36223 On ch=1 n=69 v=55
36223 On ch=1 n=72 v=55
36223 Off ch=1 n=72 v=89
36223 Off ch=1 n=72 v=89
36223 On ch=1 n=76 v=89
36223 On ch=1 n=76 v=89
36223 Meta Lyric "dit"
36223 Off ch=1 n=48 v=80
36223 Off ch=1 n=60 v=80
36230 Off ch=1 n=68 v=89
36238 Off ch=1 n=48 v=63
36238 Off ch=1 n=60 v=80
36243 On ch=1 n=67 v=89
36253 Off ch=1 n=68 v=89
36253 On ch=1 n=67 v=89
36253 On ch=1 n=41 v=80
36253 On ch=1 n=53 v=80
36283 Off ch=1 n=67 v=80
36283 On ch=1 n=67 v=80
36283 On ch=1 n=71 v=80
36283 Off ch=1 n=83 v=55
36283 On ch=1 n=84 v=55
36283 Off ch=1 n=67 v=89
36283 On ch=1 n=41 v=63
36283 Off ch=1 n=73 v=80
36283 Off ch=1 n=48 v=80
36283 Off ch=1 n=45 v=46
36283 On ch=1 n=55 v=105
36283 Off ch=1 n=72 v=55
36283 Off ch=1 n=69 v=55
36283 On ch=1 n=71 v=55
36283 On ch=1 n=76 v=55
36283 On ch=1 n=67 v=55
36283 On ch=1 n=41 v=89
36283 On ch=1 n=66 v=80
36283 On ch=1 n=64 v=80
36283 Off ch=1 n=48 v=80
36283 Off ch=1 n=48 v=80
36283 On ch=1 n=54 v=80
36313 Off ch=1 n=84 v=55
36313 Off ch=1 n=67 v=89
36313 On ch=1 n=72 v=55
36313 Off ch=1 n=54 v=80
36313 On ch=1 n=53 v=80
36313 Off ch=1 n=53 v=80
36313 Off ch=1 n=41 v=80
36320 Off ch=1 n=71 v=55
36323 On ch=1 n=68 v=89
36328 On ch=1 n=54 v=80
36328 On ch=1 n=41 v=80
36331 Off ch=1 n=66 v=80
36331 Off ch=1 n=53 v=80
36343 Off ch=1 n=71 v=80
36343 On ch=1 n=72 v=80
36343 On ch=1 n=86 v=55
36343 On ch=1 n=72 v=80
36343 On ch=1 n=41 v=80
36343 Off ch=1 n=55 v=105
36343 On ch=1 n=45 v=78
36343 On ch=1 n=65 v=55
36343 Off ch=1 n=41 v=89
36343 On ch=1 n=65 v=80
36350 Off ch=1 n=72 v=55
36358 Off ch=1 n=41 v=63
36358 Off ch=1 n=67 v=55
36358 On ch=1 n=53 v=80
36358 On ch=1 n=67 v=80
36363 On ch=1 n=67 v=89
36365 Off ch=1 n=54 v=80
36373 Off ch=1 n=68 v=89
36373 On ch=1 n=68 v=89
36373 On ch=1 n=48 v=80
36373 On ch=1 n=60 v=80
36388 On ch=1 n=52 v=80
36403 Off ch=1 n=72 v=80
36403 Off ch=1 n=67 v=80
36403 On ch=1 n=74 v=80
36403 Off ch=1 n=86 v=55
36403 On ch=1 n=88 v=55
36403 Off ch=1 n=67 v=89
36403 On ch=1 n=48 v=63
36403 Off ch=1 n=41 v=80
36403 Off ch=1 n=45 v=78
36403 On ch=1 n=55 v=50
36403 Off ch=1 n=65 v=55
36403 Off ch=1 n=76 v=55
36403 On ch=1 n=48 v=89
36403 Off ch=1 n=76 v=89
36403 Off ch=1 n=76 v=89
36403 On ch=1 n=72 v=89
36403 On ch=1 n=64 v=89
36403 Off ch=1 n=41 v=80
36433 On ch=1 n=67 v=89
36433 Off ch=1 n=48 v=89
36433 Off ch=1 n=60 v=80
36433 Off ch=1 n=48 v=80
36433 On ch=1 n=41 v=80
36433 On ch=1 n=53 v=80
36448 Off ch=1 n=68 v=89
36463 Off ch=1 n=74 v=80
36463 On ch=1 n=76 v=80
36463 Off ch=1 n=72 v=80
36463 On ch=1 n=73 v=80
36463 On ch=1 n=64 v=80
36463 Off ch=1 n=55 v=50
36463 On ch=1 n=41 v=46
36463 On ch=1 n=55 v=46
36463 On ch=1 n=71 v=55
36463 On ch=1 n=76 v=55
36463 On ch=1 n=67 v=55
36463 Off ch=1 n=72 v=89
36463 On ch=1 n=66 v=80
36463 On ch=1 n=60 v=80
36478 On ch=1 n=51 v=80
36478 On ch=1 n=71 v=80
36481 Off ch=1 n=76 v=55
36481 Off ch=1 n=71 v=55
36493 On ch=1 n=72 v=50
36493 Off ch=1 n=65 v=80
36493 Off ch=1 n=53 v=80
36493 Off ch=1 n=41 v=80
36496 Off ch=1 n=48 v=63
36508 Off ch=1 n=64 v=80
36508 Off ch=1 n=67 v=80
36508 Off ch=1 n=53 v=80
36523 Off ch=1 n=88 v=55
36523 On ch=1 n=41 v=63
36523 On ch=1 n=48 v=80
36523 Off ch=1 n=55 v=46
36523 On ch=1 n=65 v=55
36523 On ch=1 n=41 v=89
36523 Off ch=1 n=64 v=89
36523 On ch=1 n=76 v=89
36523 On ch=1 n=76 v=89
36523 On ch=1 n=65 v=80
36523 On ch=1 n=64 v=80
36530 Off ch=1 n=72 v=50
36538 Off ch=1 n=67 v=55
36538 Off ch=1 n=60 v=80
36541 Off ch=1 n=66 v=80
36553 Off ch=1 n=48 v=80
36560 Off ch=1 n=41 v=63
36583 Off ch=1 n=76 v=80
36583 On ch=1 n=72 v=80
36583 Off ch=1 n=41 v=46
36583 Off ch=1 n=65 v=55
36583 Off ch=1 n=41 v=89
36598 Off ch=1 n=71 v=80
36598 Off ch=1 n=51 v=80
36598 Off ch=1 n=52 v=80
36598 On ch=1 n=54 v=80
36598 On ch=1 n=48 v=80
36613 Off ch=1 n=64 v=80
36613 Off ch=1 n=73 v=80
36613 Off ch=1 n=67 v=89
36620 Off ch=1 n=48 v=80
36643 Off ch=1 n=72 v=80
36643 Off ch=1 n=76 v=89
36643 Off ch=1 n=76 v=89
36643 Off ch=1 n=64 v=80
36643 Off ch=1 n=65 v=80
36643 Off ch=1 n=54 v=80
36643 On ch=1 n=43 v=72
36643 On ch=1 n=47 v=72
36643 On ch=1 n=43 v=72
36643 On ch=1 n=61 v=72
36643 On ch=1 n=44 v=89
36643 On ch=1 n=71 v=89
36643 On ch=1 n=71 v=89
36643 Meta Lyric "nf"
36643 Meta Lyric "a "
36643 On ch=1 n=51 v=80
36643 Meta Lyric "pi "
36643 On ch=1 n=51 v=80
36643 On ch=1 n=51 v=80
36644 Off ch=1 n=41 v=80
36680 Off ch=1 n=43 v=72
36703 On ch=1 n=62 v=55
36703 Off ch=1 n=44 v=89
36703 On ch=1 n=52 v=89
36703 On ch=1 n=56 v=89
36703 Off ch=1 n=71 v=89
36703 On ch=1 n=55 v=55
36703 On ch=1 n=55 v=55
36703 Meta Lyric "rc "
36703 Off ch=1 n=51 v=80
36703 Off ch=1 n=51 v=80
36733 Off ch=1 n=71 v=89
36733 On ch=1 n=72 v=89
36733 On ch=1 n=72 v=89
36740 Off ch=1 n=55 v=55
36758 Off ch=1 n=72 v=89
36763 On ch=1 n=43 v=72
36763 Off ch=1 n=62 v=55
36763 On ch=1 n=71 v=80
36763 Off ch=1 n=61 v=72
36763 On ch=1 n=61 v=72
36763 Off ch=1 n=56 v=89
36763 Off ch=1 n=52 v=89
36763 On ch=1 n=43 v=89
36763 Off ch=1 n=72 v=89
36763 On ch=1 n=71 v=89
36763 On ch=1 n=71 v=89
36763 Off ch=1 n=55 v=55
36763 On ch=1 n=46 v=80
36763 Off ch=1 n=51 v=80
36763 On ch=1 n=45 v=80
36793 Off ch=1 n=47 v=72
36793 Off ch=1 n=43 v=72
36803 Off ch=1 n=71 v=89
36823 On ch=1 n=62 v=55
36823 Off ch=1 n=43 v=89
36823 On ch=1 n=52 v=89
36823 On ch=1 n=56 v=89
36823 Off ch=1 n=71 v=89
36823 On ch=1 n=67 v=89
36823 On ch=1 n=67 v=89
36823 On ch=1 n=55 v=55
36823 On ch=1 n=55 v=55
36823 Off ch=1 n=46 v=80
36823 Off ch=1 n=45 v=80
36838 Off ch=1 n=43 v=72
36853 Off ch=1 n=56 v=89
36853 Off ch=1 n=52 v=89
36863 Off ch=1 n=67 v=89
36883 Off ch=1 n=62 v=55
36883 Off ch=1 n=71 v=80
36883 On ch=1 n=66 v=80
36883 Off ch=1 n=61 v=72
36883 Off ch=1 n=67 v=89
36883 On ch=1 n=71 v=89
36883 On ch=1 n=71 v=89
36883 Off ch=1 n=55 v=55
36883 Off ch=1 n=55 v=55
36883 On ch=1 n=56 v=80
36883 On ch=1 n=52 v=80
36883 On ch=1 n=56 v=80
36883 On ch=1 n=41 v=80
36883 On ch=1 n=47 v=80
36883 On ch=1 n=43 v=80
36913 On ch=1 n=41 v=80
36913 On ch=1 n=46 v=80
36913 On ch=1 n=43 v=80
36913 Off ch=1 n=43 v=80
36923 Off ch=1 n=52 v=80
36943 Off ch=1 n=71 v=89
36943 Off ch=1 n=56 v=80
36943 On ch=1 n=104 v=80
36943 Off ch=1 n=43 v=80
36943 Off ch=1 n=56 v=80
36943 On ch=1 n=55 v=80
36943 On ch=1 n=45 v=80
36973 Off ch=1 n=66 v=80
36973 On ch=1 n=68 v=80
36973 Off ch=1 n=45 v=80
36983 Off ch=1 n=104 v=80
37003 Off ch=1 n=68 v=80
37003 Off ch=1 n=71 v=89
37003 On ch=1 n=73 v=89
37003 On ch=1 n=64 v=89
37003 Off ch=1 n=55 v=80
37003 Off ch=1 n=47 v=80
37003 Off ch=1 n=41 v=80
37033 On ch=1 n=56 v=80
37033 On ch=1 n=52 v=80
37033 Off ch=1 n=46 v=80
37033 Off ch=1 n=41 v=80
37033 On ch=1 n=44 v=80
37063 Off ch=1 n=73 v=89
37093 Off ch=1 n=52 v=80
37093 Off ch=1 n=56 v=80
37093 Off ch=1 n=44 v=80
37123 Off ch=1 n=64 v=89
37123 On ch=1 n=41 v=72
37123 On ch=1 n=47 v=72
37123 On ch=1 n=70 v=80
37123 On ch=1 n=64 v=72
37123 On ch=1 n=44 v=89
37123 Par ch=1 c=64 v=0
37123 Par ch=1 c=64 v=0
37123 Par ch=1 c=64 v=0
37123 Par ch=1 c=64 v=0
37123 Par ch=1 c=64 v=127
37123 Par ch=1 c=64 v=127
37123 Par ch=1 c=64 v=127
37123 Par ch=1 c=64 v=127
37123 On ch=1 n=76 v=89
37123 On ch=1 n=76 v=89
37123 On ch=1 n=44 v=80
37123 On ch=1 n=41 v=80
37123 On ch=1 n=45 v=80
37138 On ch=1 n=65 v=72
37141 Off ch=1 n=64 v=72
37153 On ch=1 n=66 v=72
37153 Off ch=1 n=44 v=89
37156 Off ch=1 n=65 v=72
37168 On ch=1 n=67 v=72
37171 Off ch=1 n=66 v=72
37183 On ch=1 n=62 v=55
37183 Off ch=1 n=70 v=80
37183 On ch=1 n=72 v=80
37183 On ch=1 n=68 v=72
37183 On ch=1 n=52 v=89
37183 On ch=1 n=56 v=89
37183 On ch=1 n=53 v=80
37183 On ch=1 n=57 v=80
37183 On ch=1 n=52 v=80
37183 On ch=1 n=55 v=80
37186 Off ch=1 n=67 v=72
37213 Off ch=1 n=76 v=89
37213 Off ch=1 n=57 v=80
37213 Off ch=1 n=53 v=80
37213 On ch=1 n=56 v=80
37243 On ch=1 n=43 v=72
37243 Off ch=1 n=62 v=55
37243 Off ch=1 n=56 v=89
37243 Off ch=1 n=52 v=89
37243 On ch=1 n=43 v=89
37243 Off ch=1 n=56 v=80
37243 Off ch=1 n=55 v=80
37243 Off ch=1 n=52 v=80
37243 On ch=1 n=52 v=80
37243 On ch=1 n=56 v=80
37243 Off ch=1 n=44 v=80
37243 Off ch=1 n=45 v=80
37243 Off ch=1 n=41 v=80
37243 On ch=1 n=56 v=80
37243 On ch=1 n=43 v=80
37273 Off ch=1 n=47 v=72
37273 Off ch=1 n=41 v=72
37280 Off ch=1 n=43 v=72
37303 On ch=1 n=62 v=55
37303 Off ch=1 n=72 v=80
37303 On ch=1 n=70 v=80
37303 Off ch=1 n=43 v=89
37303 On ch=1 n=52 v=89
37303 On ch=1 n=56 v=89
37303 Meta Lyric "di "
37303 Off ch=1 n=76 v=89
37303 On ch=1 n=73 v=89
37303 On ch=1 n=73 v=89
37303 Meta Lyric "V "
37303 Off ch=1 n=56 v=80
37303 Off ch=1 n=52 v=80
37303 On ch=1 n=43 v=80
37303 Off ch=1 n=43 v=80
37303 Off ch=1 n=56 v=80
37333 Off ch=1 n=73 v=89
37340 Off ch=1 n=62 v=55
37363 On ch=1 n=41 v=72
37363 On ch=1 n=45 v=72
37363 On ch=1 n=62 v=55
37363 Off ch=1 n=68 v=72
37363 On ch=1 n=64 v=72
37363 Off ch=1 n=56 v=89
37363 Off ch=1 n=52 v=89
37363 On ch=1 n=43 v=89
37363 On ch=1 n=47 v=111
37363 Off ch=1 n=73 v=89
37363 On ch=1 n=76 v=89
37363 On ch=1 n=72 v=89
37363 On ch=1 n=52 v=80
37363 On ch=1 n=48 v=80
37363 On ch=1 n=56 v=80
37363 On ch=1 n=55 v=80
37363 On ch=1 n=43 v=80
37393 Off ch=1 n=43 v=80
37400 Off ch=1 n=62 v=55
37423 Off ch=1 n=45 v=72
37423 Off ch=1 n=41 v=72
37423 Off ch=1 n=70 v=80
37423 On ch=1 n=66 v=80
37423 Off ch=1 n=43 v=89
37423 On ch=1 n=71 v=89
37423 Off ch=1 n=56 v=80
37423 Off ch=1 n=48 v=80
37423 Off ch=1 n=52 v=80
37423 Off ch=1 n=43 v=80
37423 On ch=1 n=44 v=80
37423 Off ch=1 n=55 v=80
37423 On ch=1 n=56 v=80
37423 On ch=1 n=41 v=80
37423 On ch=1 n=45 v=80
37423 On ch=1 n=43 v=80
37438 Off ch=1 n=72 v=89
37453 Off ch=1 n=43 v=80
37468 On ch=1 n=52 v=89
37468 On ch=1 n=56 v=89
37483 On ch=1 n=43 v=72
37483 On ch=1 n=48 v=72
37483 On ch=1 n=62 v=55
37483 Off ch=1 n=47 v=111
37483 On ch=1 n=43 v=89
37483 Off ch=1 n=71 v=89
37483 On ch=1 n=67 v=89
37483 On ch=1 n=52 v=80
37483 On ch=1 n=55 v=80
37483 Off ch=1 n=44 v=80
37483 Off ch=1 n=56 v=80
37483 On ch=1 n=56 v=80
37483 On ch=1 n=43 v=80
37513 Off ch=1 n=62 v=55
37513 Off ch=1 n=66 v=80
37513 On ch=1 n=68 v=80
37513 Off ch=1 n=55 v=80
37519 Off ch=1 n=76 v=89
37528 Off ch=1 n=56 v=89
37528 Off ch=1 n=52 v=89
37528 On ch=1 n=52 v=89
37528 On ch=1 n=56 v=89
37528 Off ch=1 n=43 v=80
37543 Off ch=1 n=68 v=80
37543 Off ch=1 n=64 v=72
37543 On ch=1 n=60 v=72
37543 On ch=1 n=72 v=72
37543 Off ch=1 n=43 v=89
37543 Off ch=1 n=67 v=89
37543 On ch=1 n=73 v=89
37543 Off ch=1 n=52 v=80
37543 On ch=1 n=44 v=80
37543 Off ch=1 n=56 v=80
37543 Off ch=1 n=45 v=80
37543 Off ch=1 n=41 v=80
37573 Off ch=1 n=44 v=80
37578 Par ch=1 c=64 v=0
37578 Par ch=1 c=64 v=0
37578 Par ch=1 c=64 v=0
37578 Par ch=1 c=64 v=0
37578 Par ch=1 c=64 v=127
37578 Par ch=1 c=64 v=127
37578 Par ch=1 c=64 v=127
37578 Par ch=1 c=64 v=127
37588 Off ch=1 n=56 v=89
37588 Off ch=1 n=52 v=89
37603 Off ch=1 n=48 v=72
37603 Off ch=1 n=43 v=72
37603 Off ch=1 n=72 v=72
37603 Off ch=1 n=60 v=72
37603 Off ch=1 n=73 v=89
37603 On ch=1 n=43 v=72
37603 On ch=1 n=52 v=72
37603 On ch=1 n=52 v=55
37603 On ch=1 n=47 v=80
37603 On ch=1 n=64 v=72
37603 On ch=1 n=47 v=89
37603 On ch=1 n=43 v=89
37603 On ch=1 n=71 v=89
37603 On ch=1 n=71 v=89
37603 On ch=1 n=43 v=80
37603 On ch=1 n=55 v=80
37603 On ch=1 n=41 v=80
37604 Off ch=1 n=47 v=72
37604 Off ch=1 n=43 v=72
37604 Off ch=1 n=43 v=72
37604 Off ch=1 n=68 v=72
37604 Off ch=1 n=60 v=72
37604 Off ch=1 n=69 v=72
37604 Off ch=1 n=62 v=72
37633 Off ch=1 n=41 v=80
37663 Off ch=1 n=52 v=72
37663 Off ch=1 n=43 v=72
37663 On ch=1 n=52 v=72
37663 Off ch=1 n=43 v=89
37663 On ch=1 n=45 v=89
37663 On ch=1 n=55 v=80
37663 On ch=1 n=51 v=80
37663 Off ch=1 n=43 v=80
37663 On ch=1 n=43 v=80
37663 Off ch=1 n=55 v=80
37663 On ch=1 n=55 v=80
37663 On ch=1 n=41 v=80
37693 Off ch=1 n=71 v=89
37693 Off ch=1 n=71 v=89
37693 On ch=1 n=72 v=89
37693 On ch=1 n=72 v=89
37693 Off ch=1 n=55 v=80
37693 Off ch=1 n=41 v=80
37723 Off ch=1 n=52 v=55
37723 On ch=1 n=60 v=55
37723 On ch=1 n=71 v=80
37723 Off ch=1 n=47 v=80
37723 On ch=1 n=43 v=80
37723 Meta Lyric "o "
37723 Off ch=1 n=64 v=72
37723 On ch=1 n=64 v=72
37723 On ch=1 n=67 v=72
37723 Off ch=1 n=51 v=80
37723 Off ch=1 n=43 v=80
37723 Off ch=1 n=55 v=80
37723 On ch=1 n=56 v=80
37723 On ch=1 n=36 v=80
37723 On ch=1 n=43 v=80
37730 Off ch=1 n=72 v=89
37753 Off ch=1 n=72 v=89
37753 On ch=1 n=71 v=89
37753 On ch=1 n=71 v=89
37783 Off ch=1 n=52 v=72
37783 Off ch=1 n=60 v=55
37783 On ch=1 n=60 v=55
37783 Off ch=1 n=45 v=89
37783 Off ch=1 n=47 v=89
37783 On ch=1 n=51 v=80
37783 On ch=1 n=55 v=80
37783 On ch=1 n=50 v=80
37783 On ch=1 n=43 v=80
37783 On ch=1 n=47 v=80
37783 On ch=1 n=43 v=80
37783 Off ch=1 n=43 v=80
37783 Off ch=1 n=36 v=80
37783 Off ch=1 n=56 v=80
37801 Off ch=1 n=43 v=80
37813 Off ch=1 n=71 v=89
37813 Off ch=1 n=71 v=89
37813 On ch=1 n=69 v=89
37813 Off ch=1 n=51 v=80
37813 Off ch=1 n=43 v=80
37843 Off ch=1 n=71 v=80
37843 On ch=1 n=71 v=80
37843 On ch=1 n=43 v=80
37843 Meta Lyric "Tub "
37843 Off ch=1 n=55 v=80
37843 On ch=1 n=50 v=80
37843 On ch=1 n=54 v=80
37843 On ch=1 n=100 v=80
37843 On ch=1 n=103 v=80
37843 Off ch=1 n=50 v=80
37843 On ch=1 n=47 v=80
37843 On ch=1 n=53 v=80
37873 Off ch=1 n=54 v=80
37903 Off ch=1 n=60 v=55
37903 Off ch=1 n=71 v=80
37903 Off ch=1 n=103 v=80
37903 Off ch=1 n=100 v=80
37903 Off ch=1 n=50 v=80
37903 Off ch=1 n=47 v=80
37903 Off ch=1 n=43 v=80
37933 Off ch=1 n=69 v=89
37933 On ch=1 n=67 v=89
37933 On ch=1 n=67 v=89
37963 On ch=1 n=72 v=72
37963 Off ch=1 n=67 v=72
37963 Off ch=1 n=64 v=72
37963 Off ch=1 n=53 v=80
37963 Off ch=1 n=47 v=80
37993 Off ch=1 n=72 v=72
37993 Off ch=1 n=67 v=89
37993 Off ch=1 n=67 v=89
37993 On ch=1 n=66 v=89
37993 On ch=1 n=66 v=89
38023 On ch=1 n=72 v=72
38023 Off ch=1 n=43 v=80
38053 Off ch=1 n=72 v=72
38053 Off ch=1 n=66 v=89
38053 Off ch=1 n=66 v=89
38083 TimeSig 9/8 120 8
38083 On ch=1 n=72 v=80
38083 On ch=1 n=68 v=80
38083 On ch=1 n=68 v=80
38083 On ch=1 n=66 v=55
38083 On ch=1 n=46 v=55
38083 On ch=1 n=127 v=55
38083 On ch=1 n=119 v=55
38083 On ch=1 n=47 v=72
38083 On ch=1 n=50 v=80
38083 On ch=1 n=47 v=80
38083 On ch=1 n=67 v=46
38083 Meta Lyric "Piao "
38083 On ch=1 n=47 v=72
38083 On ch=1 n=67 v=89
38083 On ch=1 n=50 v=80
38083 On ch=1 n=43 v=80
38083 On ch=1 n=57 v=80
38084 Off ch=1 n=76 v=72
38113 Off ch=1 n=67 v=89
38113 Off ch=1 n=57 v=80
38122 Off ch=1 n=72 v=80
38143 On ch=1 n=76 v=80
38143 On ch=1 n=67 v=89
38143 Off ch=1 n=50 v=80
38143 On ch=1 n=50 v=80
38143 Off ch=1 n=43 v=80
38143 On ch=1 n=43 v=80
38143 On ch=1 n=55 v=80
38182 Off ch=1 n=76 v=80
38203 On ch=1 n=74 v=80
38203 Off ch=1 n=68 v=80
38203 Off ch=1 n=68 v=80
38203 Off ch=1 n=119 v=55
38203 Off ch=1 n=127 v=55
38203 Off ch=1 n=47 v=72
38203 Off ch=1 n=47 v=80
38203 Off ch=1 n=50 v=80
38203 Off ch=1 n=67 v=46
38203 Off ch=1 n=47 v=72
38203 Off ch=1 n=67 v=89
38203 On ch=1 n=69 v=89
38203 On ch=1 n=53 v=80
38203 Off ch=1 n=43 v=80
38203 Off ch=1 n=55 v=80
38203 On ch=1 n=53 v=80
38218 Off ch=1 n=50 v=80
38242 Off ch=1 n=74 v=80
38243 Off ch=1 n=46 v=55
38263 On ch=1 n=68 v=80
38263 Off ch=1 n=69 v=89
38263 On ch=1 n=71 v=89
38263 On ch=1 n=71 v=89
38263 On ch=1 n=55 v=80
38263 On ch=1 n=57 v=80
38263 On ch=1 n=50 v=80
38263 On ch=1 n=43 v=80
38263 On ch=1 n=47 v=80
38263 On ch=1 n=43 v=80
38263 Off ch=1 n=53 v=80
38263 On ch=1 n=47 v=80
38263 On ch=1 n=50 v=80
38263 On ch=1 n=55 v=80
38278 Off ch=1 n=53 v=80
38293 Off ch=1 n=71 v=89
38293 Off ch=1 n=43 v=80
38323 Off ch=1 n=68 v=80
38323 On ch=1 n=70 v=80
38323 On ch=1 n=76 v=80
38323 On ch=1 n=68 v=80
38323 Off ch=1 n=66 v=55
38323 Off ch=1 n=71 v=89
38323 On ch=1 n=71 v=89
38323 Off ch=1 n=57 v=80
38323 On ch=1 n=57 v=80
38323 Off ch=1 n=50 v=80
38323 On ch=1 n=47 v=80
38323 On ch=1 n=53 v=80
38338 Off ch=1 n=55 v=80
38383 Off ch=1 n=71 v=89
38383 On ch=1 n=73 v=89
38383 On ch=1 n=59 v=80
38383 Off ch=1 n=47 v=80
38383 Off ch=1 n=43 v=80
38383 Off ch=1 n=50 v=80
38383 Off ch=1 n=47 v=80
38398 Off ch=1 n=57 v=80
38403 On ch=1 n=53 v=55
38443 Off ch=1 n=68 v=80
38443 Off ch=1 n=73 v=89
38443 On ch=1 n=75 v=89
38443 On ch=1 n=61 v=80
38443 Off ch=1 n=53 v=80
38443 Off ch=1 n=47 v=80
38463 Off ch=1 n=53 v=55
38463 On ch=1 n=52 v=55
38480 Off ch=1 n=59 v=80
38483 On ch=1 n=53 v=46
38493 Off ch=1 n=52 v=55
38503 Off ch=1 n=53 v=46
38503 Off ch=1 n=75 v=89
38503 On ch=1 n=53 v=80
38503 On ch=1 n=48 v=80
38503 On ch=1 n=48 v=80
38503 Meta Lyric "6 "
38518 Off ch=1 n=61 v=80
38553 On ch=1 n=53 v=46
38563 Off ch=1 n=70 v=80
38563 On ch=1 n=68 v=80
38563 On ch=1 n=67 v=55
38563 On ch=1 n=48 v=46
38563 On ch=1 n=59 v=46
38563 On ch=1 n=61 v=46
38563 On ch=1 n=76 v=89
38563 On ch=1 n=76 v=89
38563 On ch=1 n=52 v=80
38578 Off ch=1 n=61 v=46
38578 Off ch=1 n=48 v=80
38593 Off ch=1 n=53 v=46
38593 On ch=1 n=59 v=46
38593 On ch=1 n=61 v=46
38593 Off ch=1 n=76 v=89
38623 Off ch=1 n=68 v=80
38623 Off ch=1 n=76 v=80
38623 Off ch=1 n=67 v=55
38623 Off ch=1 n=59 v=46
38623 Off ch=1 n=48 v=46
38623 Off ch=1 n=76 v=89
38623 Off ch=1 n=52 v=80
38623 Off ch=1 n=48 v=80
38623 Off ch=1 n=53 v=80
38623 Off ch=1 n=55 v=80
38624 Off ch=1 n=62 v=55
38624 Off ch=1 n=60 v=55
38624 Off ch=1 n=62 v=55
38624 Off ch=1 n=62 v=55
38624 Off ch=1 n=62 v=55
38624 Off ch=1 n=61 v=55
38624 Off ch=1 n=61 v=46
38624 Off ch=1 n=59 v=46
38624 Off ch=1 n=49 v=80
38624 Off ch=1 n=47 v=80
38624 Off ch=1 n=45 v=80
38624 Off ch=1 n=62 v=80
38624 Off ch=1 n=47 v=80
39103 Meta Lyric "dolce "
39163 On ch=1 n=42 v=55
39223 On ch=1 n=48 v=55
39256 Off ch=1 n=42 v=55
39283 On ch=1 n=52 v=55
39339 Off ch=1 n=48 v=55
39343 Off ch=1 n=52 v=55
39463 Meta Lyric "'ni "
39523 Meta Lyric ") "
39523 Off ch=1 n=58 v=80
39523 Off ch=1 n=58 v=80
40602 On ch=1 n=59 v=55
40632 Off ch=1 n=59 v=55
40632 On ch=1 n=62 v=55
40652 Par ch=1 c=64 v=0
40652 Par ch=1 c=64 v=0
40652 Par ch=1 c=64 v=0
40652 Par ch=1 c=64 v=0
40652 Par ch=1 c=64 v=0
40652 Par ch=1 c=64 v=0
40652 Par ch=1 c=64 v=0
40652 Par ch=1 c=64 v=0
40652 On ch=1 n=57 v=80
40712 Off ch=1 n=57 v=80
40712 On ch=1 n=57 v=80
40772 Off ch=1 n=57 v=80
40772 On ch=1 n=60 v=80
40832 Off ch=1 n=60 v=80
40832 On ch=1 n=63 v=80
40832 On ch=1 n=64 v=80
40892 Off ch=1 n=64 v=80
40892 On ch=1 n=67 v=80
40910 Off ch=1 n=63 v=80
40952 Off ch=1 n=67 v=80
40952 On ch=1 n=67 v=80
40952 On ch=1 n=63 v=80
40952 On ch=1 n=59 v=80
40952 On ch=1 n=63 v=80
40982 Off ch=1 n=67 v=80
41030 Off ch=1 n=63 v=80
41072 Off ch=1 n=63 v=80
41072 Off ch=1 n=59 v=80
41072 On ch=1 n=72 v=89
41072 On ch=1 n=67 v=89
41132 Off ch=1 n=72 v=89
41192 Off ch=1 n=67 v=89
41193 Off ch=1 n=72 v=89
41193 Off ch=1 n=84 v=55
41193 Off ch=1 n=84 v=55
42332 Off ch=1 n=62 v=55
42812 Meta Lyric "Pino "
42812 On ch=1 n=48 v=46
42812 On ch=1 n=84 v=55
42812 On ch=1 n=48 v=80
42842 On ch=1 n=59 v=46
42842 On ch=1 n=61 v=46
42872 Off ch=1 n=48 v=46
42872 On ch=1 n=59 v=80
42872 On ch=1 n=60 v=80
42872 Off ch=1 n=48 v=80
42902 Off ch=1 n=61 v=46
42902 Off ch=1 n=59 v=46
42932 On ch=1 n=59 v=46
42932 On ch=1 n=61 v=46
42932 On ch=1 n=47 v=46
42932 Off ch=1 n=60 v=80
42932 Off ch=1 n=59 v=80
42962 Off ch=1 n=61 v=46
42962 Off ch=1 n=59 v=46
42962 On ch=1 n=59 v=46
42962 On ch=1 n=61 v=46
42992 On ch=1 n=48 v=46
42992 On ch=1 n=61 v=46
42992 On ch=1 n=62 v=46
42992 Off ch=1 n=84 v=55
42992 On ch=1 n=58 v=80
42992 On ch=1 n=60 v=80
43007 Off ch=1 n=47 v=46
43022 Off ch=1 n=61 v=46
43022 Off ch=1 n=59 v=46
43022 Off ch=1 n=48 v=46
43022 Off ch=1 n=60 v=80
43022 Off ch=1 n=58 v=80
43052 Off ch=1 n=62 v=46
43052 Off ch=1 n=61 v=46
43052 On ch=1 n=59 v=46
43052 On ch=1 n=61 v=46
43052 On ch=1 n=47 v=80
43082 On ch=1 n=77 v=38
43112 On ch=1 n=47 v=46
43112 On ch=1 n=58 v=80
43112 On ch=1 n=60 v=80
43112 Off ch=1 n=47 v=80
43127 Off ch=1 n=77 v=38
43130 Off ch=1 n=61 v=46
43130 Off ch=1 n=59 v=46
43142 On ch=1 n=59 v=46
43142 On ch=1 n=61 v=46
43149 Off ch=1 n=47 v=46
43172 On ch=1 n=77 v=38
43172 Off ch=1 n=60 v=80
43172 Off ch=1 n=58 v=80
43172 On ch=1 n=48 v=80
43179 Off ch=1 n=61 v=46
43179 Off ch=1 n=59 v=46
43187 Off ch=1 n=77 v=38
43202 On ch=1 n=77 v=38
43232 Meta Lyric "('ni "
43232 On ch=1 n=58 v=80
43232 On ch=1 n=60 v=80
43232 Off ch=1 n=48 v=80
43262 Off ch=1 n=60 v=80
43262 Off ch=1 n=58 v=80
43292 Off ch=1 n=77 v=38
43292 On ch=1 n=47 v=80
43322 Off ch=1 n=47 v=80
43352 On ch=1 n=59 v=46
43352 On ch=1 n=61 v=46
43352 On ch=1 n=48 v=46
43352 On ch=1 n=77 v=38
43352 On ch=1 n=48 v=80
43389 Off ch=1 n=48 v=46
43389 Off ch=1 n=61 v=46
43389 Off ch=1 n=59 v=46
43412 Meta Lyric ") "
43412 On ch=1 n=79 v=89
43413 Off ch=1 n=88 v=38
43413 Off ch=1 n=88 v=38
43413 Off ch=1 n=79 v=89
45032 On ch=1 n=91 v=38
45032 On ch=1 n=88 v=38
45212 Off ch=1 n=88 v=38
45212 Off ch=1 n=91 v=38
45302 On ch=1 n=86 v=38
45302 On ch=1 n=82 v=38
45358 Off ch=1 n=82 v=38
45374 Off ch=1 n=86 v=38
45392 On ch=1 n=86 v=38
45392 On ch=1 n=82 v=38
45422 Off ch=1 n=82 v=38
45422 Off ch=1 n=86 v=38
45422 On ch=1 n=86 v=38
45422 On ch=1 n=82 v=38
45422 Meta Lyric "v "
45512 Off ch=1 n=82 v=38
45512 Off ch=1 n=86 v=38
45572 On ch=1 n=83 v=38
45572 On ch=1 n=86 v=38
45632 On ch=1 n=52 v=55
45632 On ch=1 n=59 v=80
45632 On ch=1 n=60 v=80
45632 Off ch=1 n=48 v=80
45662 On ch=1 n=59 v=46
45662 On ch=1 n=61 v=46
45692 Off ch=1 n=61 v=46
45692 Off ch=1 n=59 v=46
45692 Off ch=1 n=60 v=80
45692 Off ch=1 n=59 v=80
45692 On ch=1 n=47 v=80
45722 On ch=1 n=47 v=46
45752 On ch=1 n=53 v=55
45752 Off ch=1 n=47 v=46
45752 Off ch=1 n=86 v=38
45752 Off ch=1 n=83 v=38
45752 Off ch=1 n=77 v=38
45752 On ch=1 n=59 v=80
45752 On ch=1 n=60 v=80
45752 Off ch=1 n=47 v=80
45782 Off ch=1 n=52 v=55
45812 Off ch=1 n=53 v=55
45812 Off ch=1 n=60 v=80
45812 Off ch=1 n=59 v=80
45812 Meta Lyric "a "
45812 On ch=1 n=45 v=55
45872 On ch=1 n=52 v=80
45872 Meta Lyric "co "
45902 On ch=1 n=61 v=72
45962 Off ch=1 n=61 v=72
45962 On ch=1 n=67 v=72
45992 On ch=1 n=53 v=80
45999 Off ch=1 n=67 v=72
46022 On ch=1 n=71 v=72
46022 Off ch=1 n=52 v=80
46052 Off ch=1 n=53 v=80
46097 Off ch=1 n=71 v=72
46112 On ch=1 n=53 v=55
46112 On ch=1 n=72 v=72
46112 On ch=1 n=54 v=80
46124 Off ch=1 n=45 v=55
46172 On ch=1 n=63 v=55
46172 Off ch=1 n=72 v=72
46172 On ch=1 n=61 v=72
46172 On ch=1 n=61 v=63
46232 On ch=1 n=69 v=55
46232 Off ch=1 n=53 v=55
46232 On ch=1 n=55 v=55
46232 Off ch=1 n=61 v=72
46232 On ch=1 n=67 v=72
46232 Meta Lyric "- "
46232 On ch=1 n=67 v=63
46232 On ch=1 n=55 v=50
46247 Off ch=1 n=63 v=55
46247 Off ch=1 n=61 v=63
46262 Off ch=1 n=54 v=80
46292 On ch=1 n=73 v=55
46292 Off ch=1 n=55 v=55
46292 On ch=1 n=56 v=55
46292 On ch=1 n=71 v=72
46292 On ch=1 n=71 v=63
46292 Off ch=1 n=55 v=50
46292 On ch=1 n=56 v=68
46307 Off ch=1 n=69 v=55
46307 Off ch=1 n=67 v=72
46307 Off ch=1 n=67 v=63
46352 Off ch=1 n=73 v=55
46352 Off ch=1 n=56 v=55
46352 On ch=1 n=60 v=55
46352 On ch=1 n=72 v=72
46352 On ch=1 n=72 v=63
46367 Off ch=1 n=71 v=72
46367 Off ch=1 n=71 v=63
46371 Par ch=1 c=64 v=0
46371 Par ch=1 c=64 v=0
46371 Par ch=1 c=64 v=0
46371 Par ch=1 c=64 v=0
46371 Par ch=1 c=64 v=127
46371 Par ch=1 c=64 v=127
46371 Par ch=1 c=64 v=127
46371 Par ch=1 c=64 v=127
46371 Par ch=1 c=64 v=0
46371 Par ch=1 c=64 v=0
46371 Par ch=1 c=64 v=0
46371 Par ch=1 c=64 v=0
46371 Par ch=1 c=64 v=127
46371 Par ch=1 c=64 v=127
46371 Par ch=1 c=64 v=127
46371 Par ch=1 c=64 v=127
46412 On ch=1 n=57 v=50
46412 Off ch=1 n=60 v=55
46412 On ch=1 n=67 v=55
46412 Off ch=1 n=72 v=72
46412 On ch=1 n=61 v=72
46412 Off ch=1 n=72 v=63
46412 On ch=1 n=61 v=63
46412 On ch=1 n=57 v=105
46442 Off ch=1 n=57 v=50
46442 Off ch=1 n=57 v=105
46442 Off ch=1 n=56 v=68
46472 On ch=1 n=56 v=105
46472 Off ch=1 n=67 v=55
46472 On ch=1 n=71 v=55
46472 Off ch=1 n=61 v=72
46472 On ch=1 n=67 v=72
46472 On ch=1 n=67 v=63
46472 On ch=1 n=56 v=80
46487 Off ch=1 n=61 v=63
46532 Off ch=1 n=56 v=105
46532 Off ch=1 n=71 v=55
46532 On ch=1 n=72 v=55
46532 On ch=1 n=62 v=55
46532 Off ch=1 n=67 v=72
46532 On ch=1 n=71 v=72
46532 On ch=1 n=71 v=63
46547 Off ch=1 n=67 v=63
46565 Par ch=1 c=64 v=0
46565 Par ch=1 c=64 v=0
46565 Par ch=1 c=64 v=0
46565 Par ch=1 c=64 v=0
46565 Par ch=1 c=64 v=0
46565 Par ch=1 c=64 v=0
46565 Par ch=1 c=64 v=0
46565 Par ch=1 c=64 v=0
46592 Off ch=1 n=72 v=55
46592 On ch=1 n=60 v=55
46592 Off ch=1 n=71 v=72
46607 Off ch=1 n=71 v=63
46652 Off ch=1 n=60 v=55
46652 Off ch=1 n=62 v=55
46652 On ch=1 n=55 v=55
46652 On ch=1 n=67 v=55
46652 On ch=1 n=72 v=55
46652 On ch=1 n=72 v=105
46652 On ch=1 n=72 v=63
46652 On ch=1 n=55 v=80
46652 On ch=1 n=44 v=55
46667 Off ch=1 n=56 v=80
46682 Off ch=1 n=55 v=80
46712 Off ch=1 n=67 v=55
46712 On ch=1 n=71 v=55
46712 Off ch=1 n=72 v=55
46712 Off ch=1 n=72 v=105
46712 On ch=1 n=61 v=69
46712 Off ch=1 n=72 v=63
46712 On ch=1 n=61 v=63
46712 On ch=1 n=61 v=63
46712 On ch=1 n=52 v=80
46712 On ch=1 n=57 v=80
46742 Off ch=1 n=61 v=69
46742 On ch=1 n=67 v=50
46742 Meta Lyric "v "
46772 Off ch=1 n=55 v=55
46772 On ch=1 n=53 v=55
46772 Off ch=1 n=71 v=55
46772 On ch=1 n=60 v=55
46772 Off ch=1 n=61 v=63
46772 Off ch=1 n=61 v=63
46772 On ch=1 n=67 v=63
46772 On ch=1 n=64 v=63
46802 Off ch=1 n=67 v=50
46802 On ch=1 n=74 v=63
46832 Off ch=1 n=53 v=55
46832 On ch=1 n=59 v=55
46832 On ch=1 n=71 v=63
46832 On ch=1 n=67 v=63
46832 Off ch=1 n=57 v=80
46832 Off ch=1 n=52 v=80
46832 On ch=1 n=53 v=80
46847 Off ch=1 n=60 v=55
46847 Off ch=1 n=64 v=63
46847 Off ch=1 n=67 v=63
46862 On ch=1 n=58 v=55
46862 Off ch=1 n=74 v=63
46862 On ch=1 n=76 v=63
46869 Off ch=1 n=59 v=55
46892 On ch=1 n=53 v=55
46892 Off ch=1 n=58 v=55
46892 On ch=1 n=57 v=55
46892 Off ch=1 n=67 v=63
46892 Off ch=1 n=71 v=63
46892 On ch=1 n=70 v=55
46892 On ch=1 n=70 v=55
46892 Off ch=1 n=44 v=55
46907 Off ch=1 n=76 v=63
46907 On ch=1 n=74 v=63
46952 Off ch=1 n=53 v=55
46952 On ch=1 n=53 v=55
46952 Off ch=1 n=53 v=80
46952 On ch=1 n=53 v=105
46967 Off ch=1 n=74 v=63
46967 On ch=1 n=72 v=63
46982 Off ch=1 n=70 v=55
46982 Off ch=1 n=70 v=55
46982 On ch=1 n=72 v=55
46982 On ch=1 n=72 v=55
46997 Off ch=1 n=72 v=63
47012 Off ch=1 n=57 v=55
47012 On ch=1 n=55 v=55
47012 Off ch=1 n=72 v=55
47012 Off ch=1 n=72 v=55
47012 On ch=1 n=70 v=55
47012 On ch=1 n=70 v=55
47012 Off ch=1 n=53 v=105
47012 On ch=1 n=53 v=50
47072 Off ch=1 n=53 v=55
47072 On ch=1 n=52 v=105
47102 Off ch=1 n=70 v=55
47102 Off ch=1 n=70 v=55
47102 On ch=1 n=69 v=55
47132 Off ch=1 n=69 v=55
47132 On ch=1 n=52 v=80
47162 Off ch=1 n=53 v=50
47192 Off ch=1 n=52 v=105
47192 Off ch=1 n=55 v=55
47192 Off ch=1 n=52 v=80
47192 On ch=1 n=72 v=105
47192 On ch=1 n=66 v=55
47192 On ch=1 n=50 v=80
47192 On ch=1 n=43 v=55
47252 Off ch=1 n=72 v=105
47252 On ch=1 n=61 v=69
47282 On ch=1 n=66 v=80
47282 Off ch=1 n=61 v=69
47282 On ch=1 n=67 v=50
47282 Meta Lyric "v "
47312 On ch=1 n=52 v=80
47312 Off ch=1 n=43 v=55
47312 On ch=1 n=43 v=55
47342 On ch=1 n=79 v=80
47342 Off ch=1 n=67 v=50
47342 On ch=1 n=74 v=63
47342 Off ch=1 n=50 v=80
47372 On ch=1 n=81 v=80
47379 Off ch=1 n=79 v=80
47402 Off ch=1 n=81 v=80
47402 Off ch=1 n=66 v=80
47402 On ch=1 n=64 v=80
47402 Off ch=1 n=74 v=63
47402 On ch=1 n=76 v=63
47432 Off ch=1 n=43 v=55
47447 Off ch=1 n=76 v=63
47447 On ch=1 n=74 v=63
47462 Off ch=1 n=64 v=80
47462 On ch=1 n=66 v=80
47492 Off ch=1 n=52 v=80
47492 On ch=1 n=50 v=80
47507 Off ch=1 n=74 v=63
47507 On ch=1 n=72 v=63
47537 Off ch=1 n=72 v=63
47582 Off ch=1 n=66 v=80
47582 On ch=1 n=64 v=80
47612 On ch=1 n=52 v=80
47642 Off ch=1 n=50 v=80
47672 Off ch=1 n=64 v=80
47672 On ch=1 n=64 v=80
47672 Off ch=1 n=66 v=55
47732 Off ch=1 n=64 v=80
47732 Off ch=1 n=52 v=80
47732 On ch=1 n=82 v=55
47732 On ch=1 n=81 v=80
47732 On ch=1 n=65 v=80
47732 On ch=1 n=77 v=55
47732 On ch=1 n=35 v=55
47732 On ch=1 n=38 v=55
47732 On ch=1 n=47 v=55
47732 On ch=1 n=52 v=55
47732 On ch=1 n=57 v=55
47732 Meta Lyric "an"
47732 On ch=1 n=76 v=89
47732 On ch=1 n=76 v=89
47732 On ch=1 n=76 v=55
47732 On ch=1 n=53 v=55
47732 On ch=1 n=72 v=55
47732 On ch=1 n=50 v=80
47732 On ch=1 n=44 v=55
47732 On ch=1 n=44 v=55
47732 On ch=1 n=41 v=55
47762 Off ch=1 n=76 v=55
47792 Off ch=1 n=81 v=80
47792 Off ch=1 n=76 v=89
47792 Off ch=1 n=72 v=55
47792 Off ch=1 n=53 v=55
47792 Par ch=1 c=64 v=0
47792 Par ch=1 c=64 v=0
47792 Par ch=1 c=64 v=0
47792 Par ch=1 c=64 v=0
47792 On ch=1 n=76 v=55
47792 On ch=1 n=79 v=55
47852 Off ch=1 n=82 v=55
47852 Off ch=1 n=65 v=80
47852 On ch=1 n=64 v=80
47852 Off ch=1 n=57 v=55
47852 Off ch=1 n=52 v=55
47852 Off ch=1 n=47 v=55
47852 Off ch=1 n=38 v=55
47852 Off ch=1 n=35 v=55
47852 Off ch=1 n=77 v=55
47852 Off ch=1 n=76 v=89
47852 On ch=1 n=79 v=89
47852 On ch=1 n=79 v=89
47852 Off ch=1 n=50 v=80
47852 On ch=1 n=52 v=80
47852 Off ch=1 n=41 v=55
47882 On ch=1 n=77 v=80
47912 On ch=1 n=81 v=80
47919 Off ch=1 n=77 v=80
47942 On ch=1 n=84 v=55
47972 On ch=1 n=65 v=80
47972 Off ch=1 n=52 v=80
47972 On ch=1 n=50 v=80
47972 Off ch=1 n=44 v=55
47972 Off ch=1 n=44 v=55
47972 On ch=1 n=44 v=55
48002 Off ch=1 n=64 v=80
48032 Off ch=1 n=81 v=80
48032 Off ch=1 n=79 v=89
48035 Off ch=1 n=84 v=55
48052 On ch=1 n=59 v=46
48062 On ch=1 n=84 v=55
48092 On ch=1 n=56 v=46
48092 Off ch=1 n=50 v=80
48092 On ch=1 n=52 v=80
48102 Off ch=1 n=59 v=46
48112 On ch=1 n=53 v=46
48117 Off ch=1 n=56 v=46
48122 On ch=1 n=75 v=80
48152 On ch=1 n=81 v=80
48152 Off ch=1 n=65 v=80
48152 On ch=1 n=67 v=80
48152 On ch=1 n=52 v=46
48152 On ch=1 n=43 v=46
48152 Off ch=1 n=79 v=55
48152 Off ch=1 n=76 v=55
48152 On ch=1 n=72 v=55
48152 On ch=1 n=72 v=55
48159 Off ch=1 n=75 v=80
48162 Off ch=1 n=53 v=46
48182 Off ch=1 n=84 v=55
48182 On ch=1 n=79 v=55
48192 Off ch=1 n=52 v=46
48192 On ch=1 n=52 v=46
48212 Off ch=1 n=79 v=55
48212 On ch=1 n=84 v=55
48212 Off ch=1 n=81 v=80
48212 On ch=1 n=73 v=72
48212 On ch=1 n=64 v=55
48212 On ch=1 n=62 v=55
48212 Off ch=1 n=72 v=55
48212 Off ch=1 n=72 v=55
48212 On ch=1 n=76 v=55
48212 On ch=1 n=76 v=55
48212 Off ch=1 n=52 v=80
48212 Off ch=1 n=44 v=55
48212 On ch=1 n=44 v=72
48212 Meta Lyric "rco "
48232 Off ch=1 n=52 v=46
48272 Off ch=1 n=84 v=55
48272 Off ch=1 n=67 v=80
48272 Off ch=1 n=43 v=46
48272 Off ch=1 n=73 v=72
48272 Off ch=1 n=62 v=55
48272 Off ch=1 n=64 v=55
48272 Off ch=1 n=79 v=89
48272 Off ch=1 n=76 v=55
48272 Off ch=1 n=76 v=55
48272 Off ch=1 n=44 v=72
48272 On ch=1 n=60 v=80
48272 On ch=1 n=66 v=80
48272 On ch=1 n=71 v=80
48272 On ch=1 n=60 v=80
48272 On ch=1 n=66 v=80
48272 On ch=1 n=71 v=80
48272 Meta Lyric "Pi "
48272 On ch=1 n=66 v=89
48272 On ch=1 n=71 v=89
48272 On ch=1 n=55 v=89
48272 On ch=1 n=55 v=89
48273 Off ch=1 n=73 v=72
48273 Off ch=1 n=63 v=105
48273 Off ch=1 n=71 v=80
48273 Off ch=1 n=66 v=80
48273 Off ch=1 n=60 v=80
48332 Meta Lyric "_r "
48332 On ch=1 n=66 v=80
48333 Off ch=1 n=79 v=80
48333 Off ch=1 n=66 v=80
48392 On ch=1 n=71 v=72
48392 Off ch=1 n=71 v=89
48392 Off ch=1 n=66 v=89
48392 Off ch=1 n=55 v=89
48392 Off ch=1 n=55 v=89
48392 On ch=1 n=54 v=105
48392 On ch=1 n=54 v=105
48452 Off ch=1 n=71 v=80
48452 Off ch=1 n=66 v=80
48452 Off ch=1 n=60 v=80
48452 On ch=1 n=75 v=89
48452 On ch=1 n=75 v=89
48452 On ch=1 n=66 v=80
48452 On ch=1 n=71 v=80
48452 Off ch=1 n=54 v=105
48452 Off ch=1 n=54 v=105
48512 On ch=1 n=76 v=72
48512 On ch=1 n=79 v=89
48512 On ch=1 n=55 v=74
48512 On ch=1 n=55 v=74
48527 Off ch=1 n=75 v=89
48542 Off ch=1 n=55 v=74
48548 Off ch=1 n=71 v=72
48572 Off ch=1 n=76 v=72
48572 Off ch=1 n=75 v=89
48572 On ch=1 n=79 v=89
48572 Off ch=1 n=71 v=80
48572 Off ch=1 n=66 v=80
48572 On ch=1 n=72 v=80
48572 On ch=1 n=72 v=80
48572 Off ch=1 n=55 v=74
48602 On ch=1 n=54 v=50
48602 On ch=1 n=54 v=50
48612 Off ch=1 n=79 v=89
48612 On ch=1 n=66 v=80
48612 On ch=1 n=71 v=80
48632 On ch=1 n=79 v=72
48632 On ch=1 n=71 v=72
48632 Off ch=1 n=79 v=89
48632 Off ch=1 n=72 v=80
48632 Off ch=1 n=72 v=80
48632 On ch=1 n=75 v=92
48632 On ch=1 n=75 v=105
48652 Off ch=1 n=71 v=80
48652 Off ch=1 n=66 v=80
48662 On ch=1 n=67 v=72
48662 Off ch=1 n=54 v=50
48662 Off ch=1 n=54 v=50
48692 Off ch=1 n=79 v=72
48692 On ch=1 n=75 v=80
48692 On ch=1 n=75 v=80
48692 Off ch=1 n=75 v=105
48692 On ch=1 n=75 v=92
48712 Off ch=1 n=71 v=72
48752 Off ch=1 n=75 v=92
48752 On ch=1 n=66 v=78
48752 On ch=1 n=71 v=78
48772 Off ch=1 n=75 v=80
48812 Off ch=1 n=75 v=80
48812 On ch=1 n=79 v=80
48812 On ch=1 n=79 v=105
48812 Off ch=1 n=75 v=92
48842 On ch=1 n=64 v=55
48852 Off ch=1 n=79 v=80
48857 Off ch=1 n=64 v=55
48872 Off ch=1 n=67 v=72
48872 Off ch=1 n=71 v=78
48872 Off ch=1 n=66 v=78
48872 On ch=1 n=67 v=55
48872 On ch=1 n=79 v=72
48872 On ch=1 n=66 v=105
48872 On ch=1 n=55 v=72
48872 On ch=1 n=56 v=55
48872 On ch=1 n=59 v=55
48872 On ch=1 n=79 v=105
48872 On ch=1 n=76 v=55
48872 On ch=1 n=54 v=55
48872 On ch=1 n=54 v=55
48932 Meta Lyric "pi "
48932 Off ch=1 n=66 v=105
48932 On ch=1 n=65 v=78
48932 Off ch=1 n=55 v=72
48932 Off ch=1 n=59 v=55
48932 Off ch=1 n=56 v=55
48932 On ch=1 n=58 v=55
48932 Off ch=1 n=54 v=55
48932 Off ch=1 n=54 v=55
48992 Meta Lyric "pi. "
48992 On ch=1 n=43 v=72
48992 On ch=1 n=43 v=72
49052 Off ch=1 n=43 v=72
49052 Off ch=1 n=43 v=72
49112 On ch=1 n=42 v=72
49112 On ch=1 n=42 v=72
49172 Off ch=1 n=42 v=72
49172 Off ch=1 n=42 v=72
49232 On ch=1 n=43 v=105
49232 On ch=1 n=43 v=105
49292 Off ch=1 n=43 v=105
49292 Off ch=1 n=43 v=105
49352 On ch=1 n=42 v=50
49352 On ch=1 n=42 v=50
49412 Off ch=1 n=42 v=50
49412 Off ch=1 n=42 v=50
49532 On ch=1 n=42 v=55
49532 On ch=1 n=42 v=55
49592 Off ch=1 n=42 v=55
49592 Off ch=1 n=42 v=55
49652 On ch=1 n=81 v=80
49652 Off ch=1 n=79 v=72
49652 On ch=1 n=64 v=50
49652 On ch=1 n=57 v=55
49652 On ch=1 n=60 v=55
49652 Off ch=1 n=79 v=105
49652 Off ch=1 n=79 v=105
49652 On ch=1 n=81 v=87
49652 On ch=1 n=81 v=87
49652 Off ch=1 n=75 v=50
49652 Off ch=1 n=76 v=55
49652 On ch=1 n=74 v=105
49652 On ch=1 n=71 v=105
49652 On ch=1 n=41 v=55
49652 On ch=1 n=41 v=55
49652 On ch=1 n=53 v=55
49652 On ch=1 n=53 v=55
49667 Off ch=1 n=65 v=78
49667 Off ch=1 n=58 v=55
49682 Off ch=1 n=67 v=55
49712 Off ch=1 n=60 v=55
49712 Off ch=1 n=57 v=55
49712 Off ch=1 n=41 v=55
49712 Off ch=1 n=41 v=55
49712 Off ch=1 n=53 v=55
49712 Off ch=1 n=53 v=55
49772 On ch=1 n=78 v=105
49772 Off ch=1 n=64 v=50
49772 On ch=1 n=55 v=72
49772 Meta Lyric "ht "
49772 Off ch=1 n=81 v=87
49772 Off ch=1 n=81 v=87
49772 On ch=1 n=78 v=50
49772 On ch=1 n=78 v=69
49772 Off ch=1 n=71 v=105
49772 Off ch=1 n=74 v=105
49772 On ch=1 n=75 v=50
49772 On ch=1 n=75 v=50
49772 On ch=1 n=42 v=55
49772 On ch=1 n=42 v=55
49772 On ch=1 n=54 v=55
49772 On ch=1 n=54 v=55
49802 Off ch=1 n=81 v=80
49802 Off ch=1 n=54 v=55
49832 Meta Lyric "_U "
49832 Off ch=1 n=57 v=72
49832 Off ch=1 n=49 v=72
49832 Off ch=1 n=50 v=72
49891 On ch=1 n=55 v=72
49891 On ch=1 n=51 v=72
49951 Off ch=1 n=51 v=72
49951 Off ch=1 n=55 v=72
49951 On ch=1 n=57 v=72
49951 On ch=1 n=49 v=72
49981 On ch=1 n=50 v=72
49997 Off ch=1 n=49 v=72
50037 Off ch=1 n=50 v=72
50071 Off ch=1 n=57 v=72
50131 On ch=1 n=55 v=72
50131 On ch=1 n=52 v=72
50191 Off ch=1 n=52 v=72
50191 Off ch=1 n=55 v=72
50251 On ch=1 n=49 v=72
50251 On ch=1 n=57 v=72
50281 On ch=1 n=50 v=72
50281 Meta Lyric "_."
50297 Off ch=1 n=49 v=72
50299 Off ch=1 n=50 v=72
50311 Off ch=1 n=57 v=72
50431 On ch=1 n=55 v=72
50431 On ch=1 n=52 v=72
50491 Off ch=1 n=52 v=72
50491 Off ch=1 n=55 v=72
50551 On ch=1 n=57 v=72
50551 On ch=1 n=50 v=72
50611 Off ch=1 n=50 v=72
50611 Off ch=1 n=57 v=72
50671 Off ch=1 n=55 v=72
50671 On ch=1 n=51 v=72
50671 On ch=1 n=55 v=72
50671 Off ch=1 n=42 v=55
50671 Off ch=1 n=42 v=55
50671 Off ch=1 n=54 v=55
50731 Off ch=1 n=78 v=105
50731 On ch=1 n=78 v=83
50731 On ch=1 n=63 v=105
50731 Off ch=1 n=78 v=69
50731 On ch=1 n=78 v=50
50731 Off ch=1 n=75 v=50
50731 On ch=1 n=75 v=55
50731 Off ch=1 n=55 v=72
50731 Off ch=1 n=51 v=72
50731 On ch=1 n=41 v=55
50731 On ch=1 n=41 v=55
50731 On ch=1 n=53 v=55
50731 On ch=1 n=53 v=55
50791 Off ch=1 n=41 v=55
50791 Off ch=1 n=41 v=55
50791 Off ch=1 n=53 v=55
50791 Off ch=1 n=53 v=55
50806 Off ch=1 n=78 v=83
50811 Off ch=1 n=75 v=50
50821 On ch=1 n=54 v=72
50821 On ch=1 n=50 v=72
50851 On ch=1 n=74 v=61
50851 Off ch=1 n=63 v=105
50851 On ch=1 n=64 v=50
50851 Off ch=1 n=78 v=50
50851 Off ch=1 n=78 v=50
50851 On ch=1 n=68 v=80
50851 On ch=1 n=68 v=80
50851 Meta Lyric ") "
50851 Off ch=1 n=75 v=55
50851 On ch=1 n=63 v=55
50851 On ch=1 n=63 v=55
50851 Off ch=1 n=50 v=72
50851 On ch=1 n=48 v=72
50881 Off ch=1 n=63 v=55
50881 Off ch=1 n=48 v=72
50881 Off ch=1 n=54 v=72
50911 Off ch=1 n=74 v=61
50911 Off ch=1 n=64 v=50
50911 Off ch=1 n=68 v=80
50911 Off ch=1 n=68 v=80
50911 Off ch=1 n=63 v=55
50911 On ch=1 n=72 v=80
50911 On ch=1 n=55 v=55
50911 On ch=1 n=67 v=80
50911 Meta Lyric "a "
50911 On ch=1 n=61 v=80
50911 Meta Lyric "a "
50911 On ch=1 n=41 v=55
50911 On ch=1 n=41 v=55
50911 Meta Lyric "li "
50911 On ch=1 n=64 v=55
50911 On ch=1 n=53 v=55
50951 Off ch=1 n=72 v=80
50971 Meta Lyric "A "
50971 On ch=1 n=43 v=55
50972 Off ch=1 n=58 v=80
50972 Off ch=1 n=52 v=105
50972 Off ch=1 n=50 v=105
51031 Off ch=1 n=43 v=55
51031 On ch=1 n=52 v=55
51031 On ch=1 n=55 v=55
51091 Off ch=1 n=55 v=55
51091 Off ch=1 n=52 v=55
51091 On ch=1 n=57 v=55
51091 On ch=1 n=42 v=55
51091 On ch=1 n=49 v=55
51121 Off ch=1 n=42 v=55
51121 Off ch=1 n=49 v=55
51151 On ch=1 n=50 v=55
51211 Off ch=1 n=57 v=55
51211 On ch=1 n=43 v=55
51241 Off ch=1 n=50 v=55
51271 Off ch=1 n=43 v=55
51271 On ch=1 n=52 v=55
51271 On ch=1 n=55 v=55
51331 Off ch=1 n=55 v=55
51331 Off ch=1 n=52 v=55
51331 On ch=1 n=42 v=55
51391 Off ch=1 n=42 v=55
51391 On ch=1 n=49 v=55
51391 On ch=1 n=57 v=55
51406 Off ch=1 n=49 v=55
51406 On ch=1 n=50 v=55
51436 Off ch=1 n=50 v=55
51481 Off ch=1 n=57 v=55
51511 On ch=1 n=42 v=55
51571 Off ch=1 n=42 v=55
51571 On ch=1 n=52 v=55
51571 On ch=1 n=55 v=55
51571 Meta Lyric "dec "
51631 Off ch=1 n=55 v=55
51631 Off ch=1 n=52 v=55
51631 On ch=1 n=41 v=55
51691 Off ch=1 n=41 v=55
51691 On ch=1 n=50 v=55
51691 On ch=1 n=57 v=55
51691 Meta Lyric "sc,e "
51751 Off ch=1 n=57 v=55
51751 Off ch=1 n=50 v=55
51751 On ch=1 n=42 v=55
51811 Off ch=1 n=42 v=55
51811 On ch=1 n=51 v=55
51811 On ch=1 n=55 v=55
51871 Off ch=1 n=55 v=55
51871 Off ch=1 n=51 v=55
51871 On ch=1 n=41 v=55
51931 Off ch=1 n=41 v=55
51931 On ch=1 n=48 v=55
52051 Off ch=1 n=48 v=55
52051 On ch=1 n=41 v=55
52051 Meta Lyric "ral "
52111 Off ch=1 n=55 v=55
52111 On ch=1 n=52 v=55
52111 On ch=1 n=55 v=55
52111 Meta Lyric "ally "
52111 Off ch=1 n=67 v=80
52111 On ch=1 n=55 v=72
52111 On ch=1 n=52 v=72
52111 Meta Lyric "rc "
52111 Off ch=1 n=41 v=55
52111 Off ch=1 n=41 v=55
52111 On ch=1 n=40 v=55
52111 On ch=1 n=40 v=55
52111 Off ch=1 n=53 v=55
52131 On ch=1 n=71 v=80
52131 Off ch=1 n=61 v=80
52131 On ch=1 n=60 v=80
52131 Meta Lyric "an,, "
52171 On ch=1 n=74 v=55
52171 Off ch=1 n=71 v=80
52171 Off ch=1 n=55 v=55
52171 Off ch=1 n=52 v=55
52171 Off ch=1 n=41 v=55
52171 Meta Lyric "Slo "
52171 On ch=1 n=65 v=80
52171 Meta Lyric "l) "
52171 Off ch=1 n=52 v=72
52171 Off ch=1 n=55 v=72
52171 Off ch=1 n=40 v=55
52171 Off ch=1 n=40 v=55
52171 Off ch=1 n=64 v=55
52171 On ch=1 n=52 v=55
52171 On ch=1 n=52 v=55
52201 On ch=1 n=55 v=55
52211 Off ch=1 n=60 v=80
52231 On ch=1 n=50 v=55
52231 On ch=1 n=57 v=55
52231 Off ch=1 n=65 v=80
52231 On ch=1 n=57 v=72
52231 On ch=1 n=50 v=72
52231 On ch=1 n=41 v=55
52231 On ch=1 n=41 v=55
52231 Off ch=1 n=52 v=55
52276 Off ch=1 n=55 v=55
52291 Off ch=1 n=74 v=55
52291 On ch=1 n=73 v=55
52291 Off ch=1 n=57 v=55
52291 Off ch=1 n=50 v=55
52291 On ch=1 n=41 v=55
52291 Meta Lyric "( "
52291 On ch=1 n=62 v=80
52291 Off ch=1 n=50 v=72
52291 Off ch=1 n=57 v=72
52291 Off ch=1 n=41 v=55
52291 Off ch=1 n=41 v=55
52291 Off ch=1 n=52 v=55
52291 On ch=1 n=53 v=55
52291 On ch=1 n=53 v=55
52321 On ch=1 n=55 v=55
52351 On ch=1 n=51 v=55
52351 On ch=1 n=55 v=55
52351 Meta Lyric "_.S8 "
52351 On ch=1 n=67 v=80
52351 On ch=1 n=51 v=72
52351 On ch=1 n=55 v=72
52351 On ch=1 n=41 v=55
52351 On ch=1 n=41 v=55
52351 Off ch=1 n=53 v=55
52371 Off ch=1 n=62 v=80
52371 On ch=1 n=59 v=80
52381 Off ch=1 n=55 v=55
52411 On ch=1 n=70 v=55
52411 On ch=1 n=67 v=80
52411 Off ch=1 n=55 v=55
52411 Off ch=1 n=51 v=55
52411 Off ch=1 n=41 v=55
52411 On ch=1 n=53 v=55
52411 On ch=1 n=41 v=55
52411 On ch=1 n=47 v=55
52411 Meta Lyric "$3 "
52411 Off ch=1 n=55 v=72
52411 Off ch=1 n=51 v=72
52411 On ch=1 n=55 v=72
52411 Off ch=1 n=41 v=55
52411 Off ch=1 n=41 v=55
52411 Off ch=1 n=53 v=55
52411 On ch=1 n=53 v=55
52411 On ch=1 n=53 v=55
52431 Off ch=1 n=59 v=80
52431 On ch=1 n=57 v=80
52441 On ch=1 n=48 v=55
52441 Meta Lyric "I "
52447 Off ch=1 n=73 v=55
52448 Off ch=1 n=47 v=55
52471 Off ch=1 n=70 v=55
52471 Off ch=1 n=41 v=55
52471 Off ch=1 n=53 v=55
52471 Off ch=1 n=48 v=55
52471 Off ch=1 n=67 v=80
52471 On ch=1 n=64 v=80
52471 Off ch=1 n=53 v=55
52531 Off ch=1 n=67 v=80
52531 On ch=1 n=69 v=80
52531 Off ch=1 n=64 v=80
52531 Off ch=1 n=55 v=72
52531 On ch=1 n=50 v=72
52531 On ch=1 n=53 v=72
52531 On ch=1 n=64 v=72
52531 Off ch=1 n=53 v=55
52546 Off ch=1 n=50 v=72
52551 Off ch=1 n=57 v=80
52551 On ch=1 n=58 v=80
52561 On ch=1 n=48 v=72
52576 Off ch=1 n=48 v=72
52591 Off ch=1 n=69 v=80
52591 Off ch=1 n=58 v=80
52591 Off ch=1 n=64 v=72
52591 Off ch=1 n=53 v=72
52591 On ch=1 n=42 v=46
52591 Meta Lyric "( "
52591 On ch=1 n=42 v=55
52591 On ch=1 n=60 v=80
52591 On ch=1 n=43 v=55
52591 On ch=1 n=43 v=55
52591 Meta Lyric "o "
52591 On ch=1 n=54 v=55
52592 Off ch=1 n=62 v=80
52621 Off ch=1 n=60 v=80
52621 On ch=1 n=66 v=80
52651 Meta Lyric "A "
52651 On ch=1 n=72 v=72
52651 On ch=1 n=64 v=72
52651 Meta Lyric "V "
52651 On ch=1 n=62 v=55
52651 On ch=1 n=55 v=55
52651 Meta Lyric "lhCm,) "
52651 On ch=1 n=52 v=55
52651 On ch=1 n=55 v=55
52651 On ch=1 n=67 v=80
52651 Off ch=1 n=66 v=80
52651 On ch=1 n=64 v=80
52651 On ch=1 n=50 v=72
52651 On ch=1 n=55 v=72
52651 On ch=1 n=52 v=72
52651 Meta Lyric "w "
52671 Off ch=1 n=72 v=72
52671 Off ch=1 n=42 v=46
52671 On ch=1 n=41 v=46
52688 Off ch=1 n=55 v=55
52688 Off ch=1 n=52 v=55
52688 Off ch=1 n=67 v=80
52691 On ch=1 n=71 v=72
52711 Off ch=1 n=62 v=55
52711 On ch=1 n=47 v=55
52711 Off ch=1 n=42 v=55
52711 On ch=1 n=41 v=55
52711 On ch=1 n=65 v=80
52711 Off ch=1 n=64 v=80
52711 On ch=1 n=64 v=80
52711 Off ch=1 n=55 v=72
52711 Off ch=1 n=50 v=72
52711 Meta Lyric "$t "
52711 Off ch=1 n=43 v=55
52711 Off ch=1 n=43 v=55
52711 On ch=1 n=38 v=55
52711 On ch=1 n=41 v=55
52711 On ch=1 n=40 v=55
52711 Off ch=1 n=54 v=55
52711 On ch=1 n=53 v=55
52711 On ch=1 n=53 v=55
52726 Off ch=1 n=55 v=55
52729 Off ch=1 n=52 v=72
52731 Off ch=1 n=71 v=72
52731 On ch=1 n=69 v=72
52731 On ch=1 n=66 v=72
52751 Off ch=1 n=41 v=46
52751 On ch=1 n=41 v=46
52755 Off ch=1 n=64 v=72
52771 On ch=1 n=67 v=72
52771 Off ch=1 n=47 v=55
52771 On ch=1 n=64 v=55
52771 On ch=1 n=55 v=55
52771 On ch=1 n=50 v=55
52771 On ch=1 n=57 v=55
52771 On ch=1 n=67 v=80
52771 Off ch=1 n=64 v=80
52771 On ch=1 n=63 v=80
52771 On ch=1 n=57 v=72
52771 On ch=1 n=50 v=72
52771 Meta Lyric "v "
52781 Off ch=1 n=69 v=72
52789 Off ch=1 n=65 v=80
52791 Off ch=1 n=66 v=72
52791 On ch=1 n=65 v=72
52831 Off ch=1 n=67 v=72
52831 On ch=1 n=73 v=72
52831 Off ch=1 n=41 v=46
52831 On ch=1 n=40 v=46
52831 Off ch=1 n=64 v=55
52831 On ch=1 n=45 v=55
52831 Off ch=1 n=41 v=55
52831 On ch=1 n=41 v=55
52831 Off ch=1 n=67 v=80
52831 On ch=1 n=64 v=80
52831 Off ch=1 n=63 v=80
52831 On ch=1 n=62 v=80
52831 Off ch=1 n=57 v=72
52831 Off ch=1 n=40 v=55
52831 Off ch=1 n=41 v=55
52831 Off ch=1 n=38 v=55
52831 On ch=1 n=38 v=55
52831 Off ch=1 n=53 v=55
52831 Off ch=1 n=53 v=55
52831 On ch=1 n=53 v=55
52846 Off ch=1 n=55 v=55
52846 Off ch=1 n=57 v=55
52846 Off ch=1 n=50 v=55
52849 Off ch=1 n=50 v=72
52851 On ch=1 n=64 v=72
52868 Off ch=1 n=73 v=72
52888 Off ch=1 n=65 v=72
52891 On ch=1 n=72 v=72
52891 On ch=1 n=62 v=55
52891 On ch=1 n=55 v=55
52891 On ch=1 n=51 v=55
52891 On ch=1 n=55 v=55
52891 Off ch=1 n=64 v=80
52891 On ch=1 n=67 v=80
52891 Off ch=1 n=62 v=80
52891 On ch=1 n=61 v=80
52891 On ch=1 n=52 v=72
52891 On ch=1 n=55 v=72
52891 On ch=1 n=49 v=72
52891 On ch=1 n=53 v=72
52911 Off ch=1 n=64 v=72
52911 On ch=1 n=62 v=72
52911 Off ch=1 n=40 v=46
52921 Off ch=1 n=72 v=72
52951 On ch=1 n=70 v=72
52951 Off ch=1 n=62 v=55
52951 Off ch=1 n=55 v=55
52951 Off ch=1 n=45 v=55
52951 On ch=1 n=40 v=55
52951 Meta Lyric "r "
52951 On ch=1 n=62 v=80
52951 Off ch=1 n=61 v=80
52951 On ch=1 n=66 v=80
52951 Off ch=1 n=53 v=72
52951 Off ch=1 n=49 v=72
52951 Off ch=1 n=55 v=72
52951 Off ch=1 n=52 v=72
52951 Off ch=1 n=38 v=55
52951 On ch=1 n=40 v=55
52951 On ch=1 n=40 v=55
52951 Meta Lyric "sc."
52951 Off ch=1 n=53 v=55
52951 On ch=1 n=52 v=55
52951 On ch=1 n=52 v=55
52966 Off ch=1 n=55 v=55
52966 Off ch=1 n=51 v=55
52969 Off ch=1 n=67 v=80
52971 Off ch=1 n=62 v=72
52981 Off ch=1 n=41 v=55
52981 Off ch=1 n=66 v=80
52981 On ch=1 n=62 v=80
53011 On ch=1 n=69 v=72
53011 On ch=1 n=59 v=55
53011 On ch=1 n=62 v=55
53011 Off ch=1 n=62 v=80
53011 On ch=1 n=61 v=80
53011 Off ch=1 n=62 v=80
53011 On ch=1 n=64 v=80
53011 On ch=1 n=53 v=72
53011 On ch=1 n=49 v=72
53026 Off ch=1 n=70 v=72
53026 Off ch=1 n=52 v=55
53031 On ch=1 n=64 v=72
53041 Off ch=1 n=49 v=72
53041 On ch=1 n=48 v=72
53071 Off ch=1 n=69 v=72
53071 Off ch=1 n=40 v=55
53071 On ch=1 n=53 v=55
53071 On ch=1 n=47 v=55
53071 Off ch=1 n=61 v=80
53071 On ch=1 n=65 v=80
53071 Off ch=1 n=64 v=80
53071 Off ch=1 n=48 v=72
53071 Off ch=1 n=53 v=72
53071 Off ch=1 n=40 v=55
53071 Off ch=1 n=40 v=55
53071 Off ch=1 n=52 v=55
53101 On ch=1 n=48 v=55
53108 Off ch=1 n=47 v=55
53131 Off ch=1 n=64 v=72
53131 Off ch=1 n=62 v=55
53131 Off ch=1 n=59 v=55
53131 Off ch=1 n=48 v=55
53131 Off ch=1 n=53 v=55
53131 Off ch=1 n=65 v=80
53131 On ch=1 n=63 v=80
53131 On ch=1 n=40 v=72
53131 On ch=1 n=107 v=55
53131 On ch=1 n=45 v=55
53131 On ch=1 n=40 v=55
53131 Meta Lyric "r "
53131 On ch=1 n=61 v=55
53131 On ch=1 n=57 v=80
53131 On ch=1 n=60 v=80
53131 On ch=1 n=40 v=72
53131 Meta Lyric "Cell "
53131 On ch=1 n=59 v=55
53131 On ch=1 n=40 v=55
53131 On ch=1 n=52 v=55
53131 On ch=1 n=52 v=55
53132 Off ch=1 n=62 v=80
53187 Par ch=1 c=64 v=0
53187 Par ch=1 c=64 v=0
53187 Par ch=1 c=64 v=0
53187 Par ch=1 c=64 v=0
53187 Par ch=1 c=64 v=127
53187 Par ch=1 c=64 v=127
53187 Par ch=1 c=64 v=127
53187 Par ch=1 c=64 v=127
53191 Off ch=1 n=63 v=80
53191 On ch=1 n=62 v=80
53191 Off ch=1 n=45 v=55
53191 On ch=1 n=52 v=55
53191 On ch=1 n=55 v=55
53191 Off ch=1 n=61 v=55
53191 On ch=1 n=60 v=55
53191 Meta Lyric "nis.)"
53191 Off ch=1 n=60 v=80
53191 Off ch=1 n=57 v=80
53191 On ch=1 n=58 v=80
53191 Off ch=1 n=40 v=72
53191 On ch=1 n=52 v=72
53194 Par ch=1 c=64 v=0
53194 Par ch=1 c=64 v=0
53194 Par ch=1 c=64 v=0
53194 Par ch=1 c=64 v=0
53211 Off ch=1 n=52 v=55
53221 On ch=1 n=55 v=55
53221 Off ch=1 n=52 v=72
53251 Off ch=1 n=62 v=80
53251 On ch=1 n=61 v=80
53251 Off ch=1 n=40 v=72
53251 On ch=1 n=39 v=72
53251 On ch=1 n=61 v=105
53251 Off ch=1 n=107 v=55
53251 Off ch=1 n=55 v=55
53251 Off ch=1 n=52 v=55
53251 Off ch=1 n=40 v=55
53251 On ch=1 n=55 v=55
53251 On ch=1 n=60 v=55
53251 On ch=1 n=40 v=55
53251 On ch=1 n=50 v=55
53251 On ch=1 n=53 v=55
53251 Off ch=1 n=60 v=55
53251 On ch=1 n=59 v=80
53251 Off ch=1 n=58 v=80
53251 On ch=1 n=57 v=80
53251 Meta Lyric "_r "
53251 On ch=1 n=52 v=72
53251 On ch=1 n=57 v=72
53251 On ch=1 n=50 v=72
53251 Off ch=1 n=40 v=55
53251 On ch=1 n=40 v=55
53251 Meta Lyric "rCo"
53251 Off ch=1 n=52 v=55
53251 On ch=1 n=52 v=55
53251 On ch=1 n=52 v=55
53281 Off ch=1 n=55 v=55
53281 On ch=1 n=55 v=55
53281 Off ch=1 n=60 v=55
53281 Off ch=1 n=55 v=55
53281 On ch=1 n=59 v=55
53299 Par ch=1 c=64 v=0
53299 Par ch=1 c=64 v=0
53299 Par ch=1 c=64 v=0
53299 Par ch=1 c=64 v=0
53301 Off ch=1 n=61 v=105
53311 Off ch=1 n=59 v=55
53311 Off ch=1 n=53 v=55
53311 Off ch=1 n=50 v=55
53311 Off ch=1 n=40 v=55
53311 Off ch=1 n=50 v=72
53311 On ch=1 n=40 v=72
53311 Off ch=1 n=40 v=55
53331 Off ch=1 n=39 v=72
53331 On ch=1 n=39 v=72
53331 On ch=1 n=61 v=99
53331 Off ch=1 n=59 v=80
53331 On ch=1 n=57 v=80
53331 Off ch=1 n=52 v=55
53356 Off ch=1 n=55 v=55
53371 On ch=1 n=59 v=80
53371 On ch=1 n=53 v=55
53371 On ch=1 n=60 v=55
53371 On ch=1 n=40 v=55
53371 On ch=1 n=55 v=55
53371 Off ch=1 n=57 v=80
53371 On ch=1 n=57 v=80
53371 Off ch=1 n=57 v=72
53371 Off ch=1 n=52 v=72
53371 On ch=1 n=50 v=72
53371 Off ch=1 n=40 v=72
53371 On ch=1 n=52 v=72
53371 On ch=1 n=40 v=55
53371 Off ch=1 n=52 v=55
53371 On ch=1 n=52 v=55
53371 On ch=1 n=52 v=55
53401 Off ch=1 n=61 v=80
53401 On ch=1 n=45 v=55
53411 Off ch=1 n=39 v=72
53411 On ch=1 n=39 v=72
53431 Off ch=1 n=55 v=55
53431 Off ch=1 n=40 v=55
53431 Off ch=1 n=60 v=55
53431 Off ch=1 n=53 v=55
53431 Off ch=1 n=52 v=72
53431 On ch=1 n=50 v=72
53461 Off ch=1 n=45 v=55
53491 Off ch=1 n=61 v=99
53491 On ch=1 n=61 v=85
53491 Off ch=1 n=57 v=80
53491 On ch=1 n=57 v=80
53491 Off ch=1 n=50 v=72
53491 On ch=1 n=50 v=72
53491 On ch=1 n=53 v=72
53491 Off ch=1 n=50 v=72
53491 On ch=1 n=40 v=72
53521 On ch=1 n=55 v=55
53551 Off ch=1 n=40 v=72
53551 On ch=1 n=52 v=72
53571 Off ch=1 n=61 v=85
53581 Off ch=1 n=55 v=55
53591 Off ch=1 n=39 v=72
53596 Off ch=1 n=52 v=55
53596 Off ch=1 n=52 v=55
53611 Off ch=1 n=59 v=80
53611 On ch=1 n=61 v=80
53611 Off ch=1 n=50 v=72
53611 Off ch=1 n=52 v=72
53611 Off ch=1 n=59 v=55
53631 Off ch=1 n=57 v=80
53651 Off ch=1 n=53 v=72
53651 On ch=1 n=50 v=72
53651 On ch=1 n=50 v=72
53671 Off ch=1 n=61 v=80
53671 Off ch=1 n=50 v=72
53671 Off ch=1 n=50 v=72
53671 On ch=1 n=59 v=80
53671 On ch=1 n=40 v=72
53671 On ch=1 n=61 v=64
53671 On ch=1 n=45 v=55
53671 Meta Lyric "(n "
53671 On ch=1 n=60 v=55
53671 On ch=1 n=40 v=55
53671 On ch=1 n=50 v=55
53671 On ch=1 n=51 v=55
53671 On ch=1 n=55 v=55
53671 On ch=1 n=59 v=80
53671 On ch=1 n=55 v=80
53671 On ch=1 n=53 v=72
53671 On ch=1 n=50 v=72
53671 On ch=1 n=50 v=72
53671 On ch=1 n=39 v=55
53671 On ch=1 n=51 v=55
53671 On ch=1 n=51 v=55
53701 Off ch=1 n=55 v=55
53701 Off ch=1 n=51 v=55
53701 Off ch=1 n=50 v=55
53701 Off ch=1 n=40 v=55
53716 Off ch=1 n=57 v=80
53716 Off ch=1 n=40 v=55
53731 Off ch=1 n=45 v=55
53731 Off ch=1 n=60 v=55
53731 Off ch=1 n=50 v=72
53731 On ch=1 n=40 v=72
53731 Off ch=1 n=51 v=55
53731 Off ch=1 n=51 v=55
53731 On ch=1 n=51 v=55
53731 On ch=1 n=51 v=55
53791 On ch=1 n=55 v=55
53791 Meta Lyric "Cym.) "
53791 Off ch=1 n=55 v=80
53791 On ch=1 n=57 v=105
53791 Off ch=1 n=40 v=72
53791 On ch=1 n=52 v=72
53851 Off ch=1 n=40 v=72
53851 On ch=1 n=37 v=72
53851 Off ch=1 n=55 v=55
53851 On ch=1 n=55 v=55
53851 Off ch=1 n=52 v=72
53851 On ch=1 n=50 v=72
53851 Off ch=1 n=39 v=55
53851 On ch=1 n=37 v=55
53851 Off ch=1 n=51 v=55
53851 Off ch=1 n=51 v=55
53851 On ch=1 n=49 v=55
53851 On ch=1 n=49 v=55
53871 Off ch=1 n=61 v=64
53871 On ch=1 n=61 v=54
53891 Off ch=1 n=53 v=72
53911 Off ch=1 n=61 v=54
53911 On ch=1 n=61 v=50
53911 Off ch=1 n=55 v=55
53911 On ch=1 n=45 v=55
53911 On ch=1 n=60 v=55
53911 On ch=1 n=40 v=55
53911 On ch=1 n=50 v=55
53911 On ch=1 n=51 v=55
53911 On ch=1 n=55 v=55
53911 Off ch=1 n=50 v=72
53911 On ch=1 n=40 v=72
53941 Off ch=1 n=60 v=55
53941 On ch=1 n=59 v=55
53971 Off ch=1 n=59 v=80
53971 On ch=1 n=61 v=105
53971 Off ch=1 n=45 v=55
53971 Off ch=1 n=59 v=55
53971 Off ch=1 n=55 v=55
53971 Off ch=1 n=51 v=55
53971 Off ch=1 n=50 v=55
53971 Off ch=1 n=40 v=55
53971 On ch=1 n=57 v=105
53971 Off ch=1 n=57 v=105
53971 On ch=1 n=57 v=87
53971 On ch=1 n=53 v=72
53971 On ch=1 n=50 v=72
53971 Off ch=1 n=40 v=72
53971 On ch=1 n=52 v=72
53971 Off ch=1 n=49 v=55
53971 Off ch=1 n=49 v=55
53971 On ch=1 n=51 v=55
53971 On ch=1 n=51 v=55
53991 Off ch=1 n=61 v=50
53991 On ch=1 n=61 v=46
54001 Off ch=1 n=52 v=72
54016 Off ch=1 n=59 v=80
54016 Off ch=1 n=50 v=72
54031 Off ch=1 n=61 v=105
54031 On ch=1 n=61 v=99
54031 On ch=1 n=59 v=103
54031 Off ch=1 n=57 v=87
54031 On ch=1 n=57 v=81
54031 On ch=1 n=50 v=72
54046 Off ch=1 n=57 v=105
54046 Off ch=1 n=50 v=72
54046 Par ch=1 c=64 v=0
54046 Par ch=1 c=64 v=0
54046 Par ch=1 c=64 v=0
54046 Par ch=1 c=64 v=0
54046 Par ch=1 c=64 v=127
54046 Par ch=1 c=64 v=127
54046 Par ch=1 c=64 v=127
54046 Par ch=1 c=64 v=127
54051 On ch=1 n=50 v=72
54061 On ch=1 n=55 v=55
54071 Off ch=1 n=61 v=46
54091 Off ch=1 n=50 v=72
54091 On ch=1 n=40 v=72
54091 Off ch=1 n=37 v=55
54091 On ch=1 n=39 v=55
54091 Off ch=1 n=51 v=55
54091 Off ch=1 n=51 v=55
54091 On ch=1 n=51 v=55
54091 On ch=1 n=51 v=55
54121 Off ch=1 n=55 v=55
54151 Off ch=1 n=61 v=99
54151 On ch=1 n=59 v=87
54151 Off ch=1 n=59 v=103
54151 On ch=1 n=59 v=97
54151 Off ch=1 n=57 v=81
54151 On ch=1 n=57 v=69
54151 Off ch=1 n=53 v=72
54151 Off ch=1 n=40 v=72
54171 Off ch=1 n=50 v=72
54171 On ch=1 n=53 v=72
54171 On ch=1 n=50 v=72
54211 Off ch=1 n=59 v=87
54211 Off ch=1 n=37 v=72
54211 Off ch=1 n=59 v=97
54211 Off ch=1 n=57 v=69
54211 Off ch=1 n=51 v=55
54211 Off ch=1 n=51 v=55
54211 On ch=1 n=61 v=69
54211 On ch=1 n=39 v=72
54211 On ch=1 n=41 v=72
54211 On ch=1 n=61 v=46
54211 On ch=1 n=45 v=46
54211 On ch=1 n=51 v=55
54211 On ch=1 n=55 v=55
54211 On ch=1 n=60 v=55
54211 On ch=1 n=40 v=55
54211 On ch=1 n=50 v=55
54211 On ch=1 n=59 v=88
54211 Meta Lyric "3 "
54211 On ch=1 n=57 v=50
54211 On ch=1 n=50 v=72
54211 On ch=1 n=54 v=72
54211 On ch=1 n=52 v=72
54211 On ch=1 n=41 v=55
54211 Meta Lyric ""
54211 On ch=1 n=53 v=55
54211 On ch=1 n=53 v=55
54212 Off ch=1 n=39 v=72
54221 Off ch=1 n=50 v=72
54221 Off ch=1 n=53 v=72
54241 Off ch=1 n=52 v=72
54271 Off ch=1 n=45 v=46
54271 Off ch=1 n=50 v=55
54271 Off ch=1 n=40 v=55
54271 Off ch=1 n=60 v=55
54271 Off ch=1 n=55 v=55
54271 Off ch=1 n=51 v=55
54271 On ch=1 n=50 v=72
54331 On ch=1 n=55 v=46
54331 Off ch=1 n=50 v=72
54331 On ch=1 n=40 v=72
54361 Off ch=1 n=53 v=55
54371 Off ch=1 n=61 v=46
54391 Off ch=1 n=55 v=46
54391 On ch=1 n=45 v=46
54391 On ch=1 n=51 v=55
54391 On ch=1 n=55 v=55
54391 On ch=1 n=58 v=55
54391 On ch=1 n=40 v=55
54391 On ch=1 n=50 v=55
54391 Off ch=1 n=40 v=72
54391 On ch=1 n=52 v=72
54421 On ch=1 n=57 v=55
54428 Off ch=1 n=58 v=55
54428 Off ch=1 n=55 v=55
54428 Off ch=1 n=51 v=55
54451 Off ch=1 n=45 v=46
54451 On ch=1 n=57 v=82
54451 Off ch=1 n=57 v=50
54451 Meta Lyric "J "
54451 On ch=1 n=50 v=72
54451 On ch=1 n=54 v=72
54451 Off ch=1 n=52 v=72
54451 On ch=1 n=50 v=72
54451 Off ch=1 n=41 v=55
54451 On ch=1 n=39 v=55
54451 On ch=1 n=51 v=55
54451 On ch=1 n=51 v=55
54458 Off ch=1 n=57 v=55
54481 Off ch=1 n=59 v=88
54481 Off ch=1 n=54 v=72
54481 Off ch=1 n=50 v=72
54511 On ch=1 n=59 v=50
54511 Off ch=1 n=50 v=55
54511 Off ch=1 n=40 v=55
54511 Off ch=1 n=57 v=82
54511 On ch=1 n=57 v=79
54511 Off ch=1 n=50 v=72
54511 On ch=1 n=50 v=72
54511 On ch=1 n=40 v=72
54511 Meta Lyric ""
54511 Off ch=1 n=53 v=55
54526 Off ch=1 n=50 v=72
54531 Off ch=1 n=54 v=72
54531 On ch=1 n=50 v=72
54531 On ch=1 n=54 v=72
54556 Off ch=1 n=61 v=69
54571 Off ch=1 n=59 v=50
54571 On ch=1 n=59 v=46
54571 On ch=1 n=40 v=105
54571 Off ch=1 n=40 v=72
54571 On ch=1 n=52 v=72
54571 Off ch=1 n=51 v=55
54571 Off ch=1 n=51 v=55
54571 On ch=1 n=51 v=55
54571 On ch=1 n=51 v=55
54631 Off ch=1 n=57 v=79
54631 On ch=1 n=57 v=74
54631 Off ch=1 n=52 v=72
54631 On ch=1 n=50 v=72
54661 Off ch=1 n=41 v=72
54661 Off ch=1 n=50 v=72
54691 Off ch=1 n=59 v=46
54691 Off ch=1 n=40 v=105
54691 On ch=1 n=40 v=83
54691 Off ch=1 n=50 v=72
54691 Off ch=1 n=39 v=55
54691 On ch=1 n=39 v=55
54691 Off ch=1 n=51 v=55
54691 Off ch=1 n=51 v=55
54691 On ch=1 n=51 v=55
54691 On ch=1 n=51 v=55
54751 Off ch=1 n=40 v=83
54751 Off ch=1 n=57 v=74
54751 Off ch=1 n=51 v=55
54751 Off ch=1 n=51 v=55
54751 On ch=1 n=39 v=72
54751 On ch=1 n=41 v=72
54751 On ch=1 n=45 v=46
54751 On ch=1 n=50 v=55
54751 On ch=1 n=53 v=55
54751 On ch=1 n=50 v=55
54751 On ch=1 n=57 v=62
54751 On ch=1 n=50 v=72
54751 On ch=1 n=54 v=72
54751 On ch=1 n=40 v=72
54751 Meta Lyric "J "
54751 On ch=1 n=52 v=55
54751 On ch=1 n=52 v=55
54752 Off ch=1 n=39 v=72
54806 Off ch=1 n=54 v=72
54806 Off ch=1 n=50 v=72
54811 Off ch=1 n=45 v=46
54811 On ch=1 n=55 v=46
54811 Off ch=1 n=40 v=72
54811 On ch=1 n=52 v=72
54826 Off ch=1 n=50 v=55
54826 Off ch=1 n=53 v=55
54826 Off ch=1 n=50 v=55
54871 On ch=1 n=50 v=72
54871 Off ch=1 n=39 v=55
54871 On ch=1 n=40 v=55
54871 Off ch=1 n=52 v=55
54871 Off ch=1 n=52 v=55
54871 On ch=1 n=49 v=105
54871 On ch=1 n=49 v=105
54886 Off ch=1 n=52 v=72
54889 Off ch=1 n=55 v=46
54901 Off ch=1 n=54 v=72
54931 On ch=1 n=40 v=55
54931 On ch=1 n=50 v=55
54931 On ch=1 n=52 v=55
54931 On ch=1 n=55 v=55
54931 On ch=1 n=57 v=55
54931 Off ch=1 n=50 v=72
54931 On ch=1 n=40 v=72
54968 Off ch=1 n=57 v=55
54968 Off ch=1 n=55 v=55
54968 Off ch=1 n=52 v=55
54991 Off ch=1 n=50 v=55
54991 Off ch=1 n=40 v=55
54991 On ch=1 n=50 v=72
54991 Off ch=1 n=40 v=72
54991 On ch=1 n=52 v=72
54991 Off ch=1 n=40 v=55
54991 On ch=1 n=39 v=55
54991 Off ch=1 n=49 v=105
54991 Off ch=1 n=49 v=105
54991 On ch=1 n=49 v=90
54991 On ch=1 n=49 v=90
55021 Off ch=1 n=52 v=72
55051 On ch=1 n=57 v=53
55051 Off ch=1 n=50 v=72
55051 On ch=1 n=50 v=72
55051 On ch=1 n=54 v=72
55051 On ch=1 n=50 v=72
55058 Off ch=1 n=50 v=72
55081 Off ch=1 n=50 v=72
55096 Off ch=1 n=57 v=62
55111 On ch=1 n=40 v=105
55111 Off ch=1 n=57 v=53
55111 On ch=1 n=57 v=50
55111 On ch=1 n=40 v=72
55111 Off ch=1 n=49 v=90
55111 Off ch=1 n=49 v=90
55171 Off ch=1 n=54 v=72
55171 Off ch=1 n=50 v=72
55171 On ch=1 n=50 v=72
55171 On ch=1 n=50 v=72
55171 Off ch=1 n=40 v=72
55171 On ch=1 n=52 v=72
55201 Off ch=1 n=41 v=72
55231 Off ch=1 n=40 v=105
55231 On ch=1 n=40 v=83
55231 Off ch=1 n=57 v=50
55231 Off ch=1 n=39 v=55
55231 On ch=1 n=39 v=55
55246 Off ch=1 n=52 v=72
55291 Off ch=1 n=40 v=83
55291 Off ch=1 n=50 v=72
55291 Off ch=1 n=50 v=72
55291 On ch=1 n=40 v=46
55291 On ch=1 n=50 v=46
55291 On ch=1 n=51 v=46
55291 On ch=1 n=55 v=46
55291 Meta Lyric "alh"
55291 On ch=1 n=55 v=72
55291 On ch=1 n=53 v=72
55291 On ch=1 n=50 v=72
55291 On ch=1 n=50 v=72
55291 On ch=1 n=52 v=50
55321 Off ch=1 n=55 v=46
55321 Off ch=1 n=51 v=46
55321 Off ch=1 n=50 v=46
55321 Off ch=1 n=40 v=46
55351 On ch=1 n=47 v=46
55351 On ch=1 n=53 v=46
55411 Off ch=1 n=53 v=72
55411 Off ch=1 n=55 v=72
55411 On ch=1 n=53 v=72
55411 Off ch=1 n=50 v=72
55411 On ch=1 n=40 v=72
55411 Off ch=1 n=39 v=55
55411 On ch=1 n=41 v=55
55411 Off ch=1 n=52 v=50
55411 On ch=1 n=53 v=55
55411 On ch=1 n=53 v=55
55471 Off ch=1 n=53 v=46
55471 Off ch=1 n=47 v=46
55471 Off ch=1 n=53 v=55
55531 Off ch=1 n=40 v=72
55531 On ch=1 n=52 v=72
55531 Off ch=1 n=53 v=55
55531 On ch=1 n=52 v=55
55591 Off ch=1 n=50 v=72
55591 Off ch=1 n=53 v=72
55591 On ch=1 n=53 v=72
55591 On ch=1 n=50 v=72
55651 Off ch=1 n=50 v=72
55651 Off ch=1 n=53 v=72
55651 On ch=1 n=53 v=72
55651 On ch=1 n=50 v=72
55651 On ch=1 n=50 v=72
55651 Off ch=1 n=41 v=55
55651 On ch=1 n=39 v=55
55651 Off ch=1 n=52 v=55
55651 On ch=1 n=52 v=55
55681 Off ch=1 n=52 v=72
55771 On ch=1 n=19 v=46
55771 Off ch=1 n=50 v=72
55771 Off ch=1 n=53 v=72
55771 On ch=1 n=53 v=72
55771 On ch=1 n=50 v=72
55771 Off ch=1 n=50 v=72
55771 On ch=1 n=52 v=72
55771 Off ch=1 n=39 v=55
55771 On ch=1 n=39 v=55
55771 Off ch=1 n=52 v=55
55771 On ch=1 n=50 v=55
55831 Off ch=1 n=19 v=46
55831 Off ch=1 n=50 v=72
55831 Off ch=1 n=53 v=72
55831 Off ch=1 n=52 v=72
55831 Off ch=1 n=50 v=55
55831 On ch=1 n=45 v=38
55831 On ch=1 n=51 v=46
55831 On ch=1 n=29 v=46
55831 On ch=1 n=38 v=46
55831 On ch=1 n=40 v=46
55831 On ch=1 n=50 v=101
55831 On ch=1 n=50 v=101
55831 On ch=1 n=40 v=72
55831 Meta Lyric "Cllo "
55831 On ch=1 n=52 v=55
55831 On ch=1 n=52 v=55
55891 Off ch=1 n=45 v=38
55891 Off ch=1 n=51 v=46
55891 Off ch=1 n=40 v=72
55951 Off ch=1 n=40 v=46
55951 Off ch=1 n=38 v=46
55951 Off ch=1 n=29 v=46
55951 On ch=1 n=51 v=46
55951 On ch=1 n=48 v=72
55951 Off ch=1 n=39 v=55
55951 On ch=1 n=37 v=55
55951 Off ch=1 n=52 v=55
55951 Off ch=1 n=52 v=55
55951 On ch=1 n=49 v=105
55951 On ch=1 n=49 v=105
56031 Off ch=1 n=49 v=105
56071 Off ch=1 n=51 v=46
56071 Off ch=1 n=48 v=72
56071 On ch=1 n=40 v=72
56071 Off ch=1 n=49 v=105
56071 On ch=1 n=52 v=102
56071 On ch=1 n=52 v=102
56111 Off ch=1 n=52 v=102
56131 Off ch=1 n=50 v=101
56131 Off ch=1 n=50 v=101
56131 On ch=1 n=50 v=95
56131 On ch=1 n=50 v=95
56131 Off ch=1 n=40 v=72
56191 On ch=1 n=48 v=72
56191 Off ch=1 n=37 v=55
56191 On ch=1 n=40 v=55
56191 Off ch=1 n=52 v=102
56191 On ch=1 n=52 v=99
56191 On ch=1 n=52 v=99
56206 Off ch=1 n=50 v=95
56251 Off ch=1 n=50 v=95
56251 On ch=1 n=50 v=91
56251 On ch=1 n=50 v=91
56251 Off ch=1 n=48 v=72
56271 Off ch=1 n=52 v=99
56311 Off ch=1 n=52 v=99
56311 On ch=1 n=49 v=95
56311 On ch=1 n=49 v=95
56371 Off ch=1 n=50 v=91
56371 Off ch=1 n=50 v=91
56371 Off ch=1 n=40 v=55
56371 Off ch=1 n=49 v=95
56371 Off ch=1 n=49 v=95
56371 On ch=1 n=50 v=87
56371 On ch=1 n=50 v=87
56371 On ch=1 n=40 v=72
56371 On ch=1 n=38 v=55
56371 On ch=1 n=50 v=94
56371 On ch=1 n=50 v=94
56431 Off ch=1 n=38 v=55
56431 On ch=1 n=40 v=55
56431 Off ch=1 n=50 v=94
56431 On ch=1 n=52 v=90
56491 Off ch=1 n=50 v=87
56491 Off ch=1 n=50 v=87
56491 Off ch=1 n=40 v=72
56491 On ch=1 n=49 v=72
56491 Off ch=1 n=50 v=94
56611 Off ch=1 n=40 v=55
56611 On ch=1 n=36 v=55
56611 On ch=1 n=39 v=55
56611 Meta Lyric ""
56611 Off ch=1 n=52 v=90
56611 On ch=1 n=49 v=87
56611 On ch=1 n=49 v=87
56731 Off ch=1 n=49 v=72
56731 On ch=1 n=38 v=72
56731 Off ch=1 n=39 v=55
56731 Off ch=1 n=36 v=55
56731 Off ch=1 n=49 v=87
56731 Off ch=1 n=49 v=87
56911 On ch=1 n=45 v=38
56911 Meta Lyric "Pio "
56911 On ch=1 n=53 v=69
56911 On ch=1 n=50 v=69
56911 On ch=1 n=36 v=55
56911 On ch=1 n=39 v=55
56911 On ch=1 n=50 v=79
56911 On ch=1 n=50 v=79
56971 Off ch=1 n=45 v=38
57031 Off ch=1 n=39 v=55
57031 Off ch=1 n=36 v=55
57031 On ch=1 n=47 v=55
57031 Off ch=1 n=50 v=79
57031 Off ch=1 n=50 v=79
57031 On ch=1 n=47 v=75
57061 Off ch=1 n=50 v=69
57151 Off ch=1 n=38 v=38
57151 On ch=1 n=47 v=38
57151 Off ch=1 n=47 v=55
57151 On ch=1 n=47 v=55
57271 Off ch=1 n=47 v=38
57271 Off ch=1 n=47 v=55
57271 Off ch=1 n=47 v=75
57271 On ch=1 n=45 v=69
57271 On ch=1 n=45 v=69
57391 Off ch=1 n=45 v=69
57391 Off ch=1 n=45 v=69
57451 Off ch=1 n=53 v=69
57451 On ch=1 n=43 v=38
57451 On ch=1 n=47 v=55
57571 Off ch=1 n=43 v=38
57571 Off ch=1 n=47 v=55
57571 On ch=1 n=42 v=38
57571 On ch=1 n=69 v=38
57691 On ch=1 n=45 v=38
57691 Off ch=1 n=69 v=38
57691 On ch=1 n=45 v=57
57691 On ch=1 n=45 v=57
57751 Off ch=1 n=45 v=38
57871 Meta Lyric "od "
57931 Off ch=1 n=45 v=57
57931 Off ch=1 n=45 v=57
57931 On ch=1 n=40 v=50
57991 Off ch=1 n=40 v=50
57991 On ch=1 n=41 v=38
58111 Off ch=1 n=41 v=38
58111 On ch=1 n=44 v=46
58111 Off ch=1 n=42 v=38
58111 On ch=1 n=39 v=55
58185 Tempo 1000000
58231 Off ch=1 n=39 v=55
58291 Off ch=1 n=44 v=46
58531 On ch=1 n=41 v=50
58531 On ch=1 n=41 v=105
58531 On ch=1 n=41 v=38
58531 On ch=1 n=41 v=38
58591 Off ch=1 n=41 v=38
58591 Off ch=1 n=41 v=38
58591 On ch=1 n=40 v=38
58591 On ch=1 n=40 v=38
58651 Off ch=1 n=41 v=105
58651 On ch=1 n=41 v=55
58651 Meta Lyric "aro) "
58651 Off ch=1 n=40 v=38
58651 Off ch=1 n=40 v=38
58651 On ch=1 n=40 v=38
58651 On ch=1 n=40 v=38
58771 Off ch=1 n=41 v=50
58771 Off ch=1 n=40 v=38
58771 On ch=1 n=40 v=38
58831 Off ch=1 n=40 v=38
58891 Off ch=1 n=41 v=55
58927 Off ch=1 n=40 v=38
59071 Tempo 2000000
59071 Meta Lyric "asl "
59071 On ch=1 n=38 v=38
59191 Tempo 2000000
59191 On ch=1 n=72 v=46
59191 On ch=1 n=59 v=38
59191 On ch=1 n=64 v=38
59191 On ch=1 n=67 v=38
59191 On ch=1 n=60 v=38
59191 Off ch=1 n=38 v=38
59251 Tempo 2000000
59251 Off ch=1 n=67 v=38
59251 On ch=1 n=62 v=38
59251 On ch=1 n=66 v=38
59251 On ch=1 n=57 v=38
59275 Off ch=1 n=66 v=38
59275 Off ch=1 n=62 v=38
59275 On ch=1 n=67 v=38
59275 On ch=1 n=64 v=38
59299 Off ch=1 n=67 v=38
59299 Off ch=1 n=64 v=38
59299 On ch=1 n=66 v=38
59299 On ch=1 n=62 v=38
59311 Tempo 2000000
59311 Off ch=1 n=72 v=46
59311 On ch=1 n=84 v=38
59311 On ch=1 n=71 v=46
59311 On ch=1 n=74 v=46
59311 Off ch=1 n=60 v=38
59311 Off ch=1 n=64 v=38
59311 Off ch=1 n=59 v=38
59323 Off ch=1 n=66 v=38
59323 Off ch=1 n=62 v=38
59323 On ch=1 n=67 v=38
59323 On ch=1 n=64 v=38
59347 Off ch=1 n=67 v=38
59347 Off ch=1 n=64 v=38
59347 On ch=1 n=66 v=38
59347 On ch=1 n=62 v=38
59371 On ch=1 n=64 v=38
59371 Off ch=1 n=66 v=38
59371 Off ch=1 n=62 v=38
59371 On ch=1 n=67 v=38
59371 On ch=1 n=64 v=38
59381 On ch=1 n=67 v=38
59391 On ch=1 n=77 v=38
59391 On ch=1 n=77 v=38
59395 Off ch=1 n=67 v=38
59395 Off ch=1 n=64 v=38
59395 On ch=1 n=66 v=38
59395 On ch=1 n=62 v=38
59419 Off ch=1 n=66 v=38
59419 Off ch=1 n=62 v=38
59419 On ch=1 n=67 v=38
59419 On ch=1 n=64 v=38
59431 Tempo 2000000
59431 Off ch=1 n=84 v=38
59431 Off ch=1 n=74 v=46
59431 Off ch=1 n=71 v=46
59431 On ch=1 n=62 v=46
59431 On ch=1 n=72 v=46
59431 On ch=1 n=71 v=46
59431 On ch=1 n=74 v=46
59431 Off ch=1 n=57 v=38
59443 Off ch=1 n=67 v=38
59443 Off ch=1 n=64 v=38
59443 On ch=1 n=66 v=38
59443 On ch=1 n=62 v=38
59467 Off ch=1 n=66 v=38
59467 Off ch=1 n=62 v=38
59467 On ch=1 n=67 v=38
59467 On ch=1 n=64 v=38
59491 Tempo 1000000
59491 Off ch=1 n=77 v=38
59491 Off ch=1 n=67 v=38
59491 Off ch=1 n=64 v=38
59491 Off ch=1 n=74 v=46
59491 Off ch=1 n=71 v=46
59491 Off ch=1 n=72 v=46
59491 Off ch=1 n=62 v=46
59491 On ch=1 n=67 v=46
59491 On ch=1 n=71 v=46
59491 Off ch=1 n=67 v=38
59491 Off ch=1 n=64 v=38
59551 Tempo 2000000
59551 Off ch=1 n=77 v=38
59551 On ch=1 n=62 v=38
59551 On ch=1 n=79 v=38
59551 On ch=1 n=84 v=38
59566 Tempo 2000000
59566 On ch=1 n=84 v=38
59581 Tempo 2000000
59581 On ch=1 n=86 v=38
59585 Off ch=1 n=84 v=38
59611 Tempo 1000000
59611 Off ch=1 n=86 v=38
59611 Off ch=1 n=84 v=38
59611 Off ch=1 n=79 v=38
59611 Off ch=1 n=62 v=38
59611 Off ch=1 n=71 v=46
59611 Off ch=1 n=67 v=46
59611 On ch=1 n=48 v=46
59611 On ch=1 n=48 v=55
59611 Meta Lyric "au__----_-_- "
59611 On ch=1 n=72 v=38
59851 Off ch=1 n=48 v=46
60091 Off ch=1 n=48 v=55
60091 Off ch=1 n=72 v=38
60151 On ch=1 n=76 v=46
60151 On ch=1 n=45 v=46
60151 On ch=1 n=48 v=46
60151 On ch=1 n=113 v=46
60151 Meta Lyric "ly, "
60151 On ch=1 n=83 v=38
60151 On ch=1 n=89 v=38
60151 On ch=1 n=78 v=38
60151 Meta Lyric "rian "
60151 On ch=1 n=59 v=68
60151 On ch=1 n=64 v=68
60151 Meta Lyric "VI.I "
60151 On ch=1 n=78 v=46
60151 On ch=1 n=74 v=55
60151 On ch=1 n=67 v=55
60151 On ch=1 n=71 v=55
60151 On ch=1 n=64 v=55
60151 On ch=1 n=59 v=55
60151 On ch=1 n=49 v=55
60151 On ch=1 n=40 v=55
60151 Meta Lyric "arco "
60151 On ch=1 n=57 v=55
60151 On ch=1 n=45 v=55
60156 Off ch=1 n=113 v=46
60196 On ch=1 n=69 v=55
60196 On ch=1 n=84 v=55
60196 On ch=1 n=79 v=55
60211 Off ch=1 n=64 v=68
60211 Off ch=1 n=59 v=68
60271 Off ch=1 n=48 v=46
60271 Off ch=1 n=45 v=46
60271 Off ch=1 n=76 v=46
60271 On ch=1 n=63 v=46
60271 On ch=1 n=59 v=55
60271 On ch=1 n=64 v=55
60271 Off ch=1 n=78 v=46
60271 On ch=1 n=78 v=46
60271 Off ch=1 n=40 v=55
60271 Off ch=1 n=45 v=55
60307 Off ch=1 n=64 v=55
60316 Off ch=1 n=79 v=55
60316 Off ch=1 n=84 v=55
60316 Off ch=1 n=69 v=55
60316 On ch=1 n=84 v=55
60376 Off ch=1 n=84 v=55
60376 On ch=1 n=79 v=55
60391 On ch=1 n=74 v=72
60391 Off ch=1 n=78 v=38
60391 On ch=1 n=71 v=38
60391 On ch=1 n=74 v=38
60391 Off ch=1 n=71 v=55
60391 Off ch=1 n=67 v=55
60391 Off ch=1 n=74 v=55
60391 On ch=1 n=74 v=55
60391 On ch=1 n=67 v=55
60391 On ch=1 n=71 v=55
60391 Off ch=1 n=59 v=55
60391 On ch=1 n=64 v=55
60391 On ch=1 n=59 v=55
60391 On ch=1 n=40 v=55
60391 Meta Lyric ""
60391 Off ch=1 n=57 v=55
60391 On ch=1 n=57 v=55
60391 On ch=1 n=45 v=55
60406 Off ch=1 n=79 v=55
60406 On ch=1 n=84 v=55
60421 Off ch=1 n=74 v=72
60421 On ch=1 n=79 v=72
60427 Off ch=1 n=64 v=55
60427 Off ch=1 n=59 v=55
60436 Off ch=1 n=84 v=55
60436 On ch=1 n=84 v=55
60481 Off ch=1 n=79 v=72
60481 On ch=1 n=70 v=72
60481 On ch=1 n=79 v=72
60481 On ch=1 n=67 v=72
60511 Off ch=1 n=63 v=46
60511 On ch=1 n=63 v=46
60511 Off ch=1 n=74 v=38
60511 Off ch=1 n=71 v=38
60511 On ch=1 n=84 v=38
60511 Off ch=1 n=78 v=46
60511 Off ch=1 n=45 v=55
60541 Off ch=1 n=79 v=72
60541 Off ch=1 n=70 v=72
60547 Off ch=1 n=57 v=55
60556 Off ch=1 n=84 v=55
60578 Off ch=1 n=40 v=55
60586 Off ch=1 n=71 v=55
60586 Off ch=1 n=67 v=55
60601 Off ch=1 n=67 v=72
60631 Off ch=1 n=84 v=38
60631 Off ch=1 n=89 v=38
60631 Off ch=1 n=83 v=38
60631 On ch=1 n=72 v=38
60631 On ch=1 n=76 v=38
60631 On ch=1 n=81 v=38
60631 On ch=1 n=71 v=38
60691 Off ch=1 n=63 v=46
60691 Off ch=1 n=71 v=38
60691 Off ch=1 n=81 v=38
60691 Off ch=1 n=76 v=38
60691 Off ch=1 n=72 v=38
60691 Off ch=1 n=74 v=55
60691 Off ch=1 n=64 v=55
60691 Off ch=1 n=59 v=55
60691 Off ch=1 n=49 v=55
60691 On ch=1 n=99 v=55
60691 On ch=1 n=64 v=105
60691 On ch=1 n=79 v=38
60691 On ch=1 n=23 v=46
60691 Meta Lyric "hndantanimatOb.t) "
60691 On ch=1 n=59 v=55
60691 On ch=1 n=64 v=55
60691 On ch=1 n=78 v=46
60691 On ch=1 n=74 v=55
60691 On ch=1 n=67 v=55
60691 On ch=1 n=71 v=55
60691 Meta Lyric ""
60691 On ch=1 n=64 v=55
60691 On ch=1 n=59 v=55
60691 On ch=1 n=49 v=55
60691 On ch=1 n=49 v=55
60691 On ch=1 n=57 v=55
60691 On ch=1 n=45 v=55
60728 Off ch=1 n=45 v=55
60751 Off ch=1 n=64 v=105
60751 On ch=1 n=60 v=46
60751 Off ch=1 n=64 v=55
60751 Off ch=1 n=59 v=55
60751 Off ch=1 n=59 v=55
60766 Off ch=1 n=57 v=55
60769 Off ch=1 n=74 v=55
60811 Off ch=1 n=99 v=55
60811 On ch=1 n=84 v=55
60811 Off ch=1 n=79 v=38
60811 On ch=1 n=76 v=38
60811 Off ch=1 n=23 v=46
60811 On ch=1 n=59 v=55
60811 On ch=1 n=64 v=55
60811 On ch=1 n=83 v=55
60811 Off ch=1 n=78 v=46
60811 On ch=1 n=78 v=46
60811 Off ch=1 n=71 v=55
60811 Off ch=1 n=67 v=55
60811 On ch=1 n=74 v=55
60811 On ch=1 n=67 v=55
60811 On ch=1 n=71 v=55
60811 Off ch=1 n=64 v=55
60811 On ch=1 n=64 v=55
60811 On ch=1 n=59 v=55
60811 Off ch=1 n=49 v=55
60811 On ch=1 n=49 v=55
60811 On ch=1 n=49 v=55
60811 Meta Lyric "t "
60811 On ch=1 n=57 v=55
60811 On ch=1 n=45 v=55
60847 Off ch=1 n=49 v=55
60856 Off ch=1 n=84 v=55
60856 On ch=1 n=79 v=55
60871 Off ch=1 n=60 v=46
60871 On ch=1 n=62 v=46
60871 On ch=1 n=78 v=38
60886 Off ch=1 n=79 v=55
60886 On ch=1 n=84 v=55
60886 Off ch=1 n=76 v=38
60886 Off ch=1 n=49 v=55
60904 Off ch=1 n=45 v=55
60908 Off ch=1 n=64 v=55
60916 Off ch=1 n=84 v=55
60916 On ch=1 n=87 v=55
60931 Tempo 2000000
60931 On ch=1 n=63 v=72
60931 Off ch=1 n=64 v=55
60931 On ch=1 n=64 v=55
60931 Meta Lyric "c "
60931 Off ch=1 n=78 v=46
60931 On ch=1 n=78 v=46
60931 Off ch=1 n=59 v=55
60931 On ch=1 n=64 v=55
60931 On ch=1 n=59 v=55
60931 On ch=1 n=49 v=55
60931 Off ch=1 n=57 v=55
60931 On ch=1 n=57 v=55
60931 On ch=1 n=45 v=55
60946 Off ch=1 n=87 v=55
60946 On ch=1 n=87 v=55
60961 Off ch=1 n=83 v=55
60961 Off ch=1 n=59 v=55
60961 Off ch=1 n=71 v=55
60961 Off ch=1 n=67 v=55
60961 Off ch=1 n=49 v=55
60976 Off ch=1 n=87 v=55
60976 On ch=1 n=79 v=55
60991 Off ch=1 n=62 v=46
60991 On ch=1 n=62 v=46
60991 Off ch=1 n=64 v=55
60991 Off ch=1 n=74 v=55
60991 On ch=1 n=74 v=55
60991 On ch=1 n=67 v=55
60991 On ch=1 n=71 v=55
61006 Off ch=1 n=63 v=72
61006 On ch=1 n=67 v=72
61006 Off ch=1 n=45 v=55
61036 Off ch=1 n=79 v=55
61036 On ch=1 n=79 v=55
61066 Off ch=1 n=79 v=55
61066 On ch=1 n=77 v=55
61087 Off ch=1 n=57 v=55
61096 Off ch=1 n=77 v=55
61096 On ch=1 n=84 v=55
61096 Off ch=1 n=67 v=72
61096 On ch=1 n=67 v=72
61111 Off ch=1 n=62 v=46
61111 On ch=1 n=71 v=46
61156 Off ch=1 n=67 v=72
61171 Tempo 1000000
61171 Off ch=1 n=78 v=38
61171 Off ch=1 n=78 v=46
61186 Off ch=1 n=84 v=55
61186 On ch=1 n=84 v=55
61231 Off ch=1 n=84 v=55
61231 Off ch=1 n=71 v=46
61231 Off ch=1 n=59 v=55
61231 Tempo 2000000
61231 On ch=1 n=73 v=80
61231 On ch=1 n=65 v=46
61231 On ch=1 n=73 v=55
61231 On ch=1 n=69 v=55
61231 On ch=1 n=61 v=55
61231 Meta Lyric "r_r"
61231 On ch=1 n=59 v=55
61231 Meta Lyric "A_A"
61231 On ch=1 n=53 v=55
61231 On ch=1 n=53 v=55
61231 On ch=1 n=60 v=55
61231 On ch=1 n=48 v=55
61243 Off ch=1 n=64 v=55
61243 Off ch=1 n=49 v=55
61291 On ch=1 n=98 v=55
61291 Meta Lyric "So"
61303 Off ch=1 n=74 v=55
61303 Off ch=1 n=71 v=55
61303 Off ch=1 n=67 v=55
61351 Off ch=1 n=73 v=80
61351 On ch=1 n=70 v=80
61351 Off ch=1 n=65 v=46
61351 On ch=1 n=64 v=55
61351 Off ch=1 n=48 v=55
61387 Off ch=1 n=53 v=55
61387 Off ch=1 n=60 v=55
61411 Off ch=1 n=98 v=55
61411 Off ch=1 n=70 v=80
61411 On ch=1 n=70 v=80
61471 Tempo 1000000
61471 On ch=1 n=73 v=80
61471 Off ch=1 n=64 v=55
61471 Off ch=1 n=69 v=55
61471 Off ch=1 n=73 v=55
61471 On ch=1 n=73 v=55
61471 On ch=1 n=69 v=55
61471 Off ch=1 n=61 v=55
61471 On ch=1 n=61 v=55
61471 On ch=1 n=65 v=55
61471 Meta Lyric ""
61471 Off ch=1 n=53 v=55
61471 On ch=1 n=53 v=55
61471 On ch=1 n=53 v=55
61471 On ch=1 n=60 v=55
61471 On ch=1 n=48 v=55
61483 Par ch=1 c=64 v=0
61483 Par ch=1 c=64 v=0
61483 Par ch=1 c=64 v=0
61483 Par ch=1 c=64 v=0
61486 Off ch=1 n=70 v=80
61543 Off ch=1 n=59 v=55
61559 Par ch=1 c=64 v=0
61559 Par ch=1 c=64 v=0
61559 Par ch=1 c=64 v=0
61559 Par ch=1 c=64 v=0
61591 Off ch=1 n=73 v=80
61591 On ch=1 n=64 v=55
61591 Off ch=1 n=48 v=55
61627 Off ch=1 n=53 v=55
61627 Off ch=1 n=53 v=55
61627 Off ch=1 n=60 v=55
61666 Off ch=1 n=61 v=55
61711 Off ch=1 n=64 v=55
61711 On ch=1 n=63 v=55
61711 Off ch=1 n=69 v=55
61711 Off ch=1 n=73 v=55
61741 Off ch=1 n=63 v=55
61771 TimeSig 2/4 120 8
61771 On ch=1 n=89 v=55
61771 On ch=1 n=73 v=80
61771 On ch=1 n=64 v=55
61771 On ch=1 n=38 v=38
61771 On ch=1 n=83 v=55
61771 Meta Lyric "I "
61771 On ch=1 n=50 v=46
61771 Meta Lyric "O,a "
61771 On ch=1 n=96 v=55
61771 On ch=1 n=69 v=55
61771 On ch=1 n=73 v=55
61771 On ch=1 n=65 v=55
61771 On ch=1 n=61 v=55
61771 Meta Lyric "r_. "
61771 On ch=1 n=59 v=55
61771 On ch=1 n=53 v=55
61771 On ch=1 n=61 v=55
61771 On ch=1 n=49 v=55
61772 Off ch=1 n=59 v=55
61780 Off ch=1 n=64 v=55
61780 On ch=1 n=65 v=55
61783 Off ch=1 n=65 v=55
61789 Off ch=1 n=65 v=55
61789 On ch=1 n=64 v=55
61831 Off ch=1 n=49 v=55
61849 Off ch=1 n=64 v=55
61891 Off ch=1 n=89 v=55
61891 Off ch=1 n=73 v=80
61891 On ch=1 n=70 v=80
61891 On ch=1 n=58 v=55
61891 On ch=1 n=62 v=38
61891 Off ch=1 n=96 v=55
61891 Off ch=1 n=73 v=55
61891 On ch=1 n=73 v=55
61891 On ch=1 n=69 v=55
61891 Off ch=1 n=61 v=55
61891 Off ch=1 n=65 v=55
61891 On ch=1 n=65 v=55
61891 On ch=1 n=61 v=55
61891 Meta Lyric "y "
61891 On ch=1 n=59 v=55
61891 On ch=1 n=60 v=55
61891 Meta Lyric "_n "
61891 Off ch=1 n=53 v=55
61891 On ch=1 n=53 v=55
61891 On ch=1 n=53 v=55
61891 Meta Lyric "y "
61921 Off ch=1 n=69 v=55
61921 Off ch=1 n=59 v=55
61927 Off ch=1 n=38 v=38
61939 Off ch=1 n=60 v=55
61951 Off ch=1 n=70 v=80
61951 On ch=1 n=73 v=80
61951 Off ch=1 n=58 v=55
61951 Off ch=1 n=83 v=55
61951 Off ch=1 n=59 v=55
61951 Off ch=1 n=61 v=55
61951 On ch=1 n=61 v=105
61951 On ch=1 n=49 v=105
61966 Off ch=1 n=69 v=55
61981 Off ch=1 n=61 v=105
62011 Off ch=1 n=73 v=80
62011 Off ch=1 n=62 v=38
62011 Meta Lyric "l "
62011 Off ch=1 n=50 v=46
62011 Off ch=1 n=73 v=55
62011 Off ch=1 n=61 v=55
62011 Off ch=1 n=65 v=55
62011 Off ch=1 n=53 v=55
62011 Off ch=1 n=53 v=55
62011 Off ch=1 n=49 v=105
62011 On ch=1 n=64 v=55
62011 On ch=1 n=38 v=47
62011 On ch=1 n=42 v=47
62011 Meta Lyric ""
62011 On ch=1 n=55 v=46
62011 On ch=1 n=53 v=46
62011 On ch=1 n=81 v=55
62011 On ch=1 n=74 v=55
62011 On ch=1 n=71 v=55
62011 On ch=1 n=67 v=55
62011 On ch=1 n=52 v=55
62011 On ch=1 n=59 v=55
62011 On ch=1 n=47 v=55
62012 Off ch=1 n=48 v=38
62012 Off ch=1 n=53 v=46
62012 Off ch=1 n=67 v=55
62012 Off ch=1 n=55 v=55
62012 Off ch=1 n=55 v=55
62012 Off ch=1 n=61 v=55
62041 On ch=1 n=81 v=80
62041 Off ch=1 n=47 v=55
62048 Off ch=1 n=74 v=80
62071 Off ch=1 n=81 v=80
62071 On ch=1 n=81 v=80
62071 Off ch=1 n=64 v=55
62071 Off ch=1 n=42 v=47
62071 Off ch=1 n=38 v=47
62101 On ch=1 n=77 v=80
62108 Off ch=1 n=81 v=80
62131 Meta Lyric "PI,Oatitadra "
62131 Meta Lyric "votrc "
62131 On ch=1 n=59 v=55
62131 Meta Lyric "r "
62132 Off ch=1 n=60 v=55
62132 Off ch=1 n=55 v=55
62251 On ch=1 n=36 v=38
62251 Off ch=1 n=55 v=46
62251 On ch=1 n=55 v=46
62251 Off ch=1 n=53 v=46
62251 On ch=1 n=58 v=46
62251 On ch=1 n=60 v=46
62251 On ch=1 n=50 v=57
62251 On ch=1 n=53 v=57
62251 On ch=1 n=29 v=46
62251 On ch=1 n=33 v=46
62251 On ch=1 n=35 v=46
62251 On ch=1 n=54 v=55
62251 Off ch=1 n=52 v=55
62251 On ch=1 n=48 v=55
62251 On ch=1 n=52 v=55
62270 Par ch=1 c=64 v=0
62270 Par ch=1 c=64 v=0
62270 Par ch=1 c=64 v=0
62270 Par ch=1 c=64 v=0
62270 Par ch=1 c=64 v=127
62270 Par ch=1 c=64 v=127
62270 Par ch=1 c=64 v=127
62270 Par ch=1 c=64 v=127
62281 Off ch=1 n=77 v=80
62281 On ch=1 n=73 v=80
62281 Off ch=1 n=74 v=55
62281 Off ch=1 n=67 v=55
62287 Off ch=1 n=59 v=55
62311 Off ch=1 n=36 v=38
62311 On ch=1 n=61 v=55
62311 Meta Lyric "ePP "
62311 On ch=1 n=60 v=55
62326 Off ch=1 n=71 v=55
62326 Off ch=1 n=54 v=55
62341 Off ch=1 n=60 v=55
62341 On ch=1 n=57 v=55
62371 Off ch=1 n=73 v=80
62371 Off ch=1 n=61 v=55
62371 Off ch=1 n=55 v=46
62371 Off ch=1 n=35 v=46
62371 Off ch=1 n=33 v=46
62371 Off ch=1 n=29 v=46
62371 Off ch=1 n=53 v=57
62371 Off ch=1 n=50 v=57
62371 Off ch=1 n=60 v=46
62371 Off ch=1 n=58 v=46
62371 Off ch=1 n=81 v=55
62371 TimeSig 4/4 120 8
62371 On ch=1 n=72 v=80
62371 On ch=1 n=58 v=55
62371 On ch=1 n=48 v=38
62371 On ch=1 n=47 v=38
62371 On ch=1 n=42 v=38
62371 On ch=1 n=36 v=38
62371 On ch=1 n=81 v=46
62371 On ch=1 n=67 v=46
62371 On ch=1 n=60 v=55
62371 On ch=1 n=55 v=46
62371 On ch=1 n=55 v=46
62371 On ch=1 n=53 v=46
62371 On ch=1 n=53 v=46
62371 On ch=1 n=50 v=55
62371 On ch=1 n=53 v=55
62371 On ch=1 n=58 v=55
62371 On ch=1 n=60 v=55
62371 On ch=1 n=79 v=55
62371 On ch=1 n=77 v=55
62371 On ch=1 n=75 v=55
62371 On ch=1 n=75 v=55
62371 On ch=1 n=71 v=55
62371 On ch=1 n=67 v=55
62371 On ch=1 n=64 v=55
62371 On ch=1 n=67 v=55
62371 On ch=1 n=64 v=55
62371 Meta Lyric "rr "
62371 On ch=1 n=53 v=55
62371 On ch=1 n=53 v=55
62371 On ch=1 n=51 v=55
62371 On ch=1 n=51 v=55
62371 On ch=1 n=49 v=55
62371 On ch=1 n=48 v=55
62372 Off ch=1 n=72 v=55
62380 Off ch=1 n=57 v=55
62401 Off ch=1 n=48 v=55
62407 Off ch=1 n=52 v=55
62407 Off ch=1 n=48 v=55
62431 On ch=1 n=75 v=80
62431 Off ch=1 n=58 v=55
62431 On ch=1 n=63 v=55
62431 Off ch=1 n=48 v=38
62431 Off ch=1 n=47 v=38
62431 Off ch=1 n=42 v=38
62431 Off ch=1 n=36 v=38
62431 Off ch=1 n=67 v=46
62431 On ch=1 n=63 v=46
62431 Off ch=1 n=60 v=55
62431 Off ch=1 n=58 v=55
62431 Off ch=1 n=53 v=55
62431 Off ch=1 n=50 v=55
62431 On ch=1 n=50 v=55
62431 Off ch=1 n=67 v=55
62431 Off ch=1 n=64 v=55
62431 Off ch=1 n=53 v=55
62431 On ch=1 n=60 v=55
62431 On ch=1 n=47 v=55
62443 Off ch=1 n=59 v=55
62446 Off ch=1 n=72 v=80
62449 Off ch=1 n=51 v=55
62461 Off ch=1 n=63 v=55
62461 Off ch=1 n=60 v=55
62491 On ch=1 n=74 v=80
62491 On ch=1 n=64 v=55
62491 On ch=1 n=48 v=38
62491 On ch=1 n=46 v=38
62491 On ch=1 n=42 v=38
62491 On ch=1 n=36 v=38
62491 On ch=1 n=40 v=38
62491 Off ch=1 n=81 v=46
62491 Off ch=1 n=63 v=46
62491 On ch=1 n=67 v=46
62491 Off ch=1 n=53 v=46
62491 Off ch=1 n=53 v=46
62491 Off ch=1 n=55 v=46
62491 Off ch=1 n=50 v=55
62491 On ch=1 n=50 v=55
62491 On ch=1 n=53 v=55
62491 On ch=1 n=58 v=55
62491 On ch=1 n=60 v=55
62491 Meta Lyric "_.o "
62491 Off ch=1 n=75 v=55
62491 Off ch=1 n=77 v=55
62491 Off ch=1 n=67 v=55
62491 Off ch=1 n=64 v=55
62491 On ch=1 n=57 v=55
62491 Off ch=1 n=53 v=55
62491 Off ch=1 n=49 v=55
62491 On ch=1 n=53 v=55
62491 On ch=1 n=53 v=55
62491 On ch=1 n=53 v=55
62491 On ch=1 n=49 v=55
62491 Off ch=1 n=47 v=55
62491 On ch=1 n=43 v=55
62506 Par ch=1 c=64 v=0
62506 Par ch=1 c=64 v=0
62506 Par ch=1 c=64 v=0
62506 Par ch=1 c=64 v=0
62506 On ch=1 n=59 v=46
62506 On ch=1 n=60 v=46
62506 On ch=1 n=59 v=46
62506 On ch=1 n=60 v=46
62506 On ch=1 n=50 v=46
62506 On ch=1 n=53 v=46
62506 On ch=1 n=33 v=46
62626 Off ch=1 n=33 v=46
62626 Off ch=1 n=53 v=46
62626 Off ch=1 n=50 v=46
62626 Off ch=1 n=60 v=46
62626 Off ch=1 n=59 v=46
62641 Off ch=1 n=75 v=80
62656 Off ch=1 n=64 v=55
62656 On ch=1 n=65 v=55
62656 Off ch=1 n=67 v=46
62656 On ch=1 n=69 v=46
62656 Off ch=1 n=60 v=55
62656 Off ch=1 n=58 v=55
62656 Off ch=1 n=53 v=55
62656 Off ch=1 n=50 v=55
62656 On ch=1 n=50 v=55
62656 On ch=1 n=53 v=55
62656 On ch=1 n=58 v=55
62656 On ch=1 n=60 v=55
62656 Off ch=1 n=57 v=55
62656 Off ch=1 n=43 v=55
62662 Off ch=1 n=75 v=55
62662 Off ch=1 n=71 v=55
62662 Off ch=1 n=51 v=55
62686 On ch=1 n=72 v=80
62686 Off ch=1 n=65 v=55
62686 On ch=1 n=58 v=55
62686 Off ch=1 n=48 v=38
62686 Off ch=1 n=46 v=38
62686 Off ch=1 n=42 v=38
62686 Off ch=1 n=40 v=38
62686 Off ch=1 n=36 v=38
62686 Off ch=1 n=69 v=46
62686 Off ch=1 n=60 v=55
62686 Off ch=1 n=55 v=46
62686 On ch=1 n=55 v=46
62686 On ch=1 n=55 v=46
62686 On ch=1 n=53 v=46
62686 On ch=1 n=53 v=46
62686 Off ch=1 n=60 v=46
62686 Off ch=1 n=59 v=46
62686 On ch=1 n=59 v=46
62686 On ch=1 n=60 v=46
62686 On ch=1 n=50 v=46
62686 On ch=1 n=53 v=46
62686 On ch=1 n=50 v=46
62686 On ch=1 n=53 v=46
62686 On ch=1 n=33 v=46
62686 Off ch=1 n=60 v=55
62686 Off ch=1 n=58 v=55
62686 Off ch=1 n=53 v=55
62686 Off ch=1 n=50 v=55
62686 On ch=1 n=54 v=55
62686 Off ch=1 n=53 v=55
62686 On ch=1 n=48 v=55
62701 Off ch=1 n=74 v=80
62701 Off ch=1 n=54 v=55
62716 On ch=1 n=73 v=80
62716 On ch=1 n=73 v=80
62716 On ch=1 n=70 v=80
62716 On ch=1 n=69 v=80
62716 On ch=1 n=74 v=46
62716 On ch=1 n=50 v=55
62716 On ch=1 n=60 v=55
62716 Off ch=1 n=48 v=55
62723 Off ch=1 n=72 v=80
62746 Off ch=1 n=58 v=55
62746 On ch=1 n=63 v=55
62746 On ch=1 n=48 v=38
62746 On ch=1 n=46 v=38
62746 Off ch=1 n=60 v=46
62746 Off ch=1 n=59 v=46
62746 Off ch=1 n=53 v=46
62746 Off ch=1 n=50 v=46
62746 Off ch=1 n=79 v=55
62746 On ch=1 n=79 v=55
62746 On ch=1 n=75 v=55
62746 On ch=1 n=71 v=55
62746 On ch=1 n=71 v=55
62746 On ch=1 n=71 v=55
62746 On ch=1 n=61 v=55
62746 On ch=1 n=67 v=55
62746 On ch=1 n=65 v=68
62746 Off ch=1 n=60 v=55
62746 Off ch=1 n=49 v=55
62746 On ch=1 n=51 v=55
62746 On ch=1 n=47 v=55
62746 On ch=1 n=59 v=55
62746 On ch=1 n=56 v=55
62746 On ch=1 n=43 v=55
62776 Off ch=1 n=74 v=46
62776 On ch=1 n=67 v=46
62776 Off ch=1 n=50 v=55
62776 On ch=1 n=50 v=55
62776 On ch=1 n=53 v=55
62776 On ch=1 n=60 v=55
62776 On ch=1 n=57 v=55
62782 Off ch=1 n=53 v=55
62782 Off ch=1 n=53 v=55
62791 Off ch=1 n=70 v=80
62791 Off ch=1 n=73 v=80
62806 Off ch=1 n=63 v=55
62806 On ch=1 n=64 v=55
62806 On ch=1 n=67 v=55
62806 On ch=1 n=64 v=55
62806 On ch=1 n=63 v=55
62806 Meta Lyric "e "
62806 Off ch=1 n=48 v=38
62806 Off ch=1 n=46 v=38
62806 Off ch=1 n=67 v=46
62806 Off ch=1 n=53 v=46
62806 Off ch=1 n=53 v=46
62806 Off ch=1 n=55 v=46
62806 On ch=1 n=55 v=46
62806 On ch=1 n=55 v=46
62806 On ch=1 n=55 v=46
62806 Off ch=1 n=33 v=46
62806 Off ch=1 n=53 v=46
62806 Off ch=1 n=50 v=46
62806 On ch=1 n=58 v=46
62806 On ch=1 n=60 v=46
62806 On ch=1 n=58 v=46
62806 On ch=1 n=60 v=46
62806 On ch=1 n=50 v=46
62806 On ch=1 n=53 v=46
62806 On ch=1 n=55 v=46
62806 Off ch=1 n=67 v=55
62806 Off ch=1 n=56 v=55
62806 Off ch=1 n=43 v=55
62806 Off ch=1 n=47 v=55
62824 Off ch=1 n=51 v=55
62826 On ch=1 n=77 v=55
62826 Meta Lyric "r "
62836 On ch=1 n=75 v=80
62836 On ch=1 n=75 v=80
62836 On ch=1 n=73 v=80
62836 On ch=1 n=70 v=80
62836 On ch=1 n=71 v=46
62836 Off ch=1 n=60 v=55
62836 Off ch=1 n=53 v=55
62836 Off ch=1 n=50 v=55
62836 On ch=1 n=50 v=55
62836 Off ch=1 n=57 v=55
62836 On ch=1 n=54 v=55
62851 Off ch=1 n=71 v=46
62866 Off ch=1 n=69 v=80
62866 Off ch=1 n=73 v=80
62866 Off ch=1 n=64 v=55
62866 On ch=1 n=69 v=46
62866 Off ch=1 n=55 v=46
62866 Off ch=1 n=50 v=55
62866 On ch=1 n=50 v=55
62866 On ch=1 n=53 v=55
62866 On ch=1 n=58 v=55
62866 On ch=1 n=60 v=55
62866 Off ch=1 n=71 v=55
62866 Off ch=1 n=75 v=55
62866 Off ch=1 n=79 v=55
62866 Off ch=1 n=54 v=55
62866 On ch=1 n=51 v=55
62896 Off ch=1 n=69 v=46
62896 On ch=1 n=67 v=46
62896 On ch=1 n=60 v=55
62902 Off ch=1 n=71 v=55
62902 Off ch=1 n=61 v=55
62918 Off ch=1 n=67 v=46
62926 Off ch=1 n=63 v=55
62926 Off ch=1 n=67 v=55
62926 On ch=1 n=74 v=55
62926 On ch=1 n=64 v=55
62926 Off ch=1 n=55 v=46
62926 Off ch=1 n=55 v=46
62926 Off ch=1 n=55 v=46
62926 Off ch=1 n=55 v=46
62926 Off ch=1 n=53 v=46
62926 Off ch=1 n=50 v=46
62926 Off ch=1 n=60 v=46
62926 Off ch=1 n=58 v=46
62926 Off ch=1 n=60 v=46
62926 Off ch=1 n=58 v=46
62926 On ch=1 n=48 v=46
62926 On ch=1 n=52 v=46
62926 On ch=1 n=58 v=46
62926 On ch=1 n=60 v=46
62926 On ch=1 n=58 v=46
62926 On ch=1 n=60 v=46
62926 On ch=1 n=50 v=46
62926 On ch=1 n=53 v=46
62926 On ch=1 n=50 v=46
62926 On ch=1 n=53 v=46
62926 Off ch=1 n=60 v=55
62926 Off ch=1 n=58 v=55
62926 Off ch=1 n=53 v=55
62926 Off ch=1 n=50 v=55
62926 On ch=1 n=50 v=55
62926 On ch=1 n=53 v=55
62926 On ch=1 n=58 v=55
62926 On ch=1 n=60 v=55
62926 Meta Lyric "o "
62926 Off ch=1 n=71 v=55
62926 On ch=1 n=73 v=55
62926 On ch=1 n=73 v=55
62926 On ch=1 n=69 v=55
62926 On ch=1 n=73 v=55
62926 On ch=1 n=69 v=55
62926 On ch=1 n=73 v=55
62941 On ch=1 n=65 v=46
62941 Off ch=1 n=60 v=55
62956 Off ch=1 n=73 v=80
62956 On ch=1 n=73 v=80
62956 Off ch=1 n=64 v=55
62956 Off ch=1 n=65 v=46
62956 Off ch=1 n=60 v=46
62956 Off ch=1 n=58 v=46
62956 Off ch=1 n=60 v=55
62956 Off ch=1 n=58 v=55
62956 Off ch=1 n=53 v=55
62956 Off ch=1 n=50 v=55
62956 On ch=1 n=52 v=55
62956 Off ch=1 n=73 v=55
62956 Off ch=1 n=69 v=55
62971 On ch=1 n=64 v=46
62978 Off ch=1 n=64 v=46
62981 Off ch=1 n=77 v=55
62986 Off ch=1 n=73 v=80
62986 Off ch=1 n=70 v=80
62986 Off ch=1 n=75 v=80
62986 Off ch=1 n=75 v=80
62986 Off ch=1 n=64 v=55
62986 Off ch=1 n=74 v=55
62986 Off ch=1 n=53 v=46
62986 Off ch=1 n=50 v=46
62986 Off ch=1 n=53 v=46
62986 Off ch=1 n=50 v=46
62986 Off ch=1 n=60 v=46
62986 Off ch=1 n=58 v=46
62986 Off ch=1 n=52 v=46
62986 Off ch=1 n=48 v=46
62986 Off ch=1 n=52 v=55
62986 Off ch=1 n=65 v=68
62986 On ch=1 n=72 v=80
62986 On ch=1 n=74 v=80
62987 Off ch=1 n=64 v=46
62987 Off ch=1 n=55 v=46
62987 Off ch=1 n=53 v=46
62987 Off ch=1 n=50 v=46
62987 Off ch=1 n=60 v=46
62987 Off ch=1 n=58 v=46
62987 Off ch=1 n=60 v=46
62987 Off ch=1 n=58 v=46
62987 Off ch=1 n=60 v=46
62987 Off ch=1 n=58 v=46
62987 Off ch=1 n=73 v=55
62987 Off ch=1 n=69 v=55
62987 Off ch=1 n=61 v=55
62987 Off ch=1 n=61 v=55
62987 Off ch=1 n=71 v=55
62987 Off ch=1 n=65 v=55
62987 Off ch=1 n=62 v=55
62987 Off ch=1 n=59 v=55
62987 Off ch=1 n=65 v=55
62987 Off ch=1 n=61 v=55
62987 Off ch=1 n=61 v=55
62987 Off ch=1 n=65 v=55
62987 Off ch=1 n=67 v=55
62987 Off ch=1 n=72 v=55
62987 Off ch=1 n=69 v=55
62987 Off ch=1 n=64 v=55
62987 Off ch=1 n=59 v=55
62987 Off ch=1 n=49 v=55
62987 Off ch=1 n=60 v=55
62987 Off ch=1 n=49 v=55
62987 Off ch=1 n=61 v=55
62987 Off ch=1 n=61 v=55
62987 Off ch=1 n=57 v=55
62987 Off ch=1 n=59 v=55
63004 Off ch=1 n=73 v=55
63004 Off ch=1 n=73 v=55
63004 Off ch=1 n=73 v=55
63004 Off ch=1 n=69 v=55
63022 Off ch=1 n=51 v=55
63058 Off ch=1 n=59 v=55
63106 Meta Lyric "nP "
63106 Off ch=1 n=42 v=38
63106 Off ch=1 n=38 v=38
63106 Off ch=1 n=48 v=38
63285 Meta Lyric ")oa$oc "
63285 On ch=1 n=71 v=80
63285 Off ch=1 n=74 v=80
63285 On ch=1 n=72 v=80
63330 Off ch=1 n=72 v=80
63345 Off ch=1 n=71 v=80
63345 On ch=1 n=74 v=80
63345 Off ch=1 n=72 v=80
63345 On ch=1 n=74 v=80
63405 Off ch=1 n=74 v=80
63405 On ch=1 n=77 v=80
63435 Off ch=1 n=74 v=80
63435 On ch=1 n=75 v=80
63465 On ch=1 n=76 v=80
63480 Off ch=1 n=77 v=80
63495 On ch=1 n=73 v=80
63510 Off ch=1 n=75 v=80
63525 On ch=1 n=74 v=80
63540 Off ch=1 n=76 v=80
63555 On ch=1 n=72 v=80
63570 Off ch=1 n=73 v=80
63585 Off ch=1 n=72 v=80
63585 Off ch=1 n=74 v=80
63585 On ch=1 n=71 v=80
63585 On ch=1 n=72 v=80
63645 Off ch=1 n=71 v=80
63645 On ch=1 n=69 v=80
63645 Off ch=1 n=72 v=80
63645 On ch=1 n=71 v=80
63705 Off ch=1 n=69 v=80
63705 On ch=1 n=67 v=80
63705 On ch=1 n=69 v=80
63720 Off ch=1 n=71 v=80
63765 On ch=1 n=71 v=80
63780 Off ch=1 n=69 v=80
63795 Off ch=1 n=67 v=80
63795 On ch=1 n=69 v=80
63795 Off ch=1 n=71 v=80
63795 On ch=1 n=72 v=80
63825 Off ch=1 n=69 v=80
63975 Meta Lyric "l "
63975 Off ch=1 n=58 v=55
63975 Off ch=1 n=59 v=55
63975 Off ch=1 n=59 v=55
63975 Off ch=1 n=60 v=55
63975 Off ch=1 n=58 v=55
63975 Off ch=1 n=54 v=55
63975 Off ch=1 n=52 v=55
63975 Off ch=1 n=60 v=55
64454 On ch=1 n=88 v=55
64574 Off ch=1 n=88 v=55
64904 Off ch=1 n=72 v=80
64934 On ch=1 n=76 v=80
64934 On ch=1 n=76 v=80
64934 On ch=1 n=78 v=80
65054 Off ch=1 n=76 v=80
65054 On ch=1 n=78 v=80
65114 Off ch=1 n=78 v=80
65114 On ch=1 n=75 v=80
65114 Off ch=1 n=76 v=80
65114 On ch=1 n=74 v=80
65114 Off ch=1 n=78 v=80
65114 On ch=1 n=80 v=80
65174 Off ch=1 n=80 v=80
65174 On ch=1 n=74 v=80
65234 Off ch=1 n=75 v=80
65234 On ch=1 n=72 v=80
65234 On ch=1 n=77 v=80
65264 Off ch=1 n=74 v=80
65294 Off ch=1 n=77 v=80
65294 On ch=1 n=72 v=80
65294 Off ch=1 n=74 v=80
65354 Off ch=1 n=72 v=80
65414 Off ch=1 n=72 v=80
65414 On ch=1 n=75 v=80
65414 On ch=1 n=75 v=80
65414 On ch=1 n=74 v=80
65534 Off ch=1 n=74 v=80
65534 On ch=1 n=78 v=72
65564 Off ch=1 n=78 v=72
65594 On ch=1 n=77 v=72
65654 Off ch=1 n=75 v=80
65654 On ch=1 n=77 v=80
65654 Off ch=1 n=75 v=80
65654 On ch=1 n=76 v=80
65654 On ch=1 n=76 v=72
65669 Off ch=1 n=77 v=72
65691 Off ch=1 n=76 v=72
65714 Off ch=1 n=77 v=80
65714 On ch=1 n=75 v=80
65714 Off ch=1 n=76 v=80
65714 On ch=1 n=75 v=80
65714 On ch=1 n=75 v=72
65751 Off ch=1 n=75 v=80
65751 Off ch=1 n=75 v=72
65774 On ch=1 n=73 v=80
65774 Off ch=1 n=75 v=80
65774 On ch=1 n=73 v=80
65811 Off ch=1 n=73 v=80
65834 On ch=1 n=73 v=80
65834 Off ch=1 n=73 v=80
65834 On ch=1 n=73 v=80
65894 Off ch=1 n=73 v=80
65894 Off ch=1 n=73 v=80
65894 On ch=1 n=78 v=80
65894 Meta Lyric "r "
65894 On ch=1 n=78 v=80
65894 On ch=1 n=74 v=72
65924 Off ch=1 n=78 v=80
65954 On ch=1 n=77 v=80
65954 Off ch=1 n=78 v=80
65954 On ch=1 n=77 v=80
65991 Off ch=1 n=77 v=80
65991 Off ch=1 n=77 v=80
66014 On ch=1 n=76 v=80
66014 On ch=1 n=76 v=80
66014 Off ch=1 n=74 v=72
66014 On ch=1 n=80 v=72
66059 Off ch=1 n=80 v=72
66074 On ch=1 n=75 v=80
66074 On ch=1 n=75 v=80
66089 Off ch=1 n=76 v=80
66089 Off ch=1 n=76 v=80
66104 Off ch=1 n=75 v=80
66104 On ch=1 n=79 v=72
66134 Off ch=1 n=75 v=80
66164 On ch=1 n=77 v=72
66179 Off ch=1 n=79 v=72
66224 Off ch=1 n=77 v=72
66374 On ch=1 n=47 v=72
66374 On ch=1 n=41 v=72
66494 Off ch=1 n=41 v=72
66494 Off ch=1 n=47 v=72
66854 On ch=1 n=38 v=55
66974 Off ch=1 n=38 v=55
66974 On ch=1 n=47 v=55
67154 Off ch=1 n=47 v=55
67154 On ch=1 n=48 v=55
67274 Off ch=1 n=48 v=55
67454 On ch=1 n=47 v=55
67574 Off ch=1 n=47 v=55
67574 On ch=1 n=42 v=55
67634 Off ch=1 n=42 v=55
67694 On ch=1 n=38 v=55
67814 Off ch=1 n=38 v=55
67814 On ch=1 n=42 v=55
67994 Off ch=1 n=42 v=55
67994 On ch=1 n=38 v=55
68114 Off ch=1 n=38 v=55
68114 On ch=1 n=48 v=55
68234 Off ch=1 n=48 v=55
68294 On ch=1 n=46 v=55
68414 Off ch=1 n=46 v=55
68414 On ch=1 n=42 v=55
68534 Off ch=1 n=42 v=55
68654 On ch=1 n=36 v=55
68774 Off ch=1 n=36 v=55
68774 On ch=1 n=69 v=55
68775 Off ch=1 n=46 v=55
68834 On ch=1 n=67 v=55
68852 Off ch=1 n=69 v=55
68894 On ch=1 n=66 v=55
68909 Off ch=1 n=67 v=55
68924 Off ch=1 n=66 v=55
68954 On ch=1 n=65 v=55
69014 On ch=1 n=64 v=55
69032 Off ch=1 n=65 v=55
69074 On ch=1 n=59 v=55
69074 On ch=1 n=62 v=55
69089 Off ch=1 n=64 v=55
69104 Off ch=1 n=62 v=55
69104 Off ch=1 n=59 v=55
69134 On ch=1 n=71 v=55
69171 Off ch=1 n=71 v=55
69194 On ch=1 n=69 v=55
69254 On ch=1 n=68 v=55
69269 Off ch=1 n=69 v=55
69284 Off ch=1 n=68 v=55
69314 On ch=1 n=64 v=55
69374 Off ch=1 n=64 v=55
69374 On ch=1 n=60 v=55
69374 On ch=1 n=64 v=55
69434 On ch=1 n=61 v=55
69464 On ch=1 n=70 v=55
69467 Off ch=1 n=64 v=55
69467 Off ch=1 n=60 v=55
69494 Off ch=1 n=61 v=55
69524 On ch=1 n=68 v=55
69554 On ch=1 n=67 v=55
69561 Off ch=1 n=68 v=55
69561 Off ch=1 n=70 v=55
69614 Off ch=1 n=67 v=55
69614 On ch=1 n=68 v=55
69734 Off ch=1 n=68 v=55
69734 On ch=1 n=64 v=55
69794 On ch=1 n=63 v=55
69809 Off ch=1 n=64 v=55
69854 On ch=1 n=67 v=55
69854 On ch=1 n=71 v=55
69854 On ch=1 n=69 v=55
69854 Off ch=1 n=63 v=55
69854 On ch=1 n=67 v=55
69884 Off ch=1 n=67 v=55
69884 On ch=1 n=65 v=55
69891 Off ch=1 n=69 v=55
69914 On ch=1 n=67 v=55
69944 On ch=1 n=64 v=55
69959 Off ch=1 n=65 v=55
69974 On ch=1 n=66 v=55
69974 Off ch=1 n=64 v=55
69989 Off ch=1 n=67 v=55
70004 Off ch=1 n=71 v=55
70004 Off ch=1 n=67 v=55
70004 On ch=1 n=62 v=55
70034 Off ch=1 n=66 v=55
70034 On ch=1 n=64 v=55
70034 On ch=1 n=67 v=55
70064 On ch=1 n=61 v=55
70079 Off ch=1 n=62 v=55
70082 Off ch=1 n=67 v=55
70082 Off ch=1 n=64 v=55
70094 On ch=1 n=64 v=55
70124 Off ch=1 n=61 v=55
70154 On ch=1 n=63 v=55
70169 Off ch=1 n=64 v=55
70214 Off ch=1 n=63 v=55
71174 On ch=1 n=59 v=105
71294 Off ch=1 n=59 v=105
71654 On ch=1 n=59 v=50
71774 Off ch=1 n=59 v=50
71774 On ch=1 n=55 v=55
71774 On ch=1 n=59 v=55
71894 Off ch=1 n=59 v=55
71894 Off ch=1 n=55 v=55
72134 On ch=1 n=57 v=55
72254 Off ch=1 n=57 v=55
72254 On ch=1 n=55 v=55
72374 Off ch=1 n=55 v=55
72374 On ch=1 n=57 v=55
72494 Off ch=1 n=57 v=55
72614 On ch=1 n=55 v=55
72734 Off ch=1 n=55 v=55
73094 On ch=1 n=55 v=55
73214 Off ch=1 n=55 v=55
73214 On ch=1 n=55 v=55
73334 Off ch=1 n=55 v=55
73334 On ch=1 n=55 v=55
73454 Off ch=1 n=55 v=55
73574 On ch=1 n=55 v=55
73694 Off ch=1 n=55 v=55
73814 On ch=1 n=55 v=55
73934 Off ch=1 n=55 v=55
76334 On ch=1 n=65 v=55
76334 On ch=1 n=76 v=55
76454 Off ch=1 n=76 v=55
76454 Off ch=1 n=65 v=55
76454 On ch=1 n=58 v=55
76454 On ch=1 n=60 v=55
76454 On ch=1 n=50 v=55
76454 On ch=1 n=54 v=55
76514 Off ch=1 n=54 v=55
76514 Off ch=1 n=50 v=55
76574 Off ch=1 n=60 v=55
76574 Off ch=1 n=58 v=55
76934 On ch=1 n=57 v=55
77054 Off ch=1 n=57 v=55
77054 On ch=1 n=59 v=55
77054 On ch=1 n=60 v=55
77054 On ch=1 n=50 v=55
77054 On ch=1 n=53 v=55
77174 Off ch=1 n=53 v=55
77174 Off ch=1 n=50 v=55
77174 Off ch=1 n=60 v=55
77174 Off ch=1 n=59 v=55
77294 On ch=1 n=59 v=55
77294 On ch=1 n=60 v=55
77294 On ch=1 n=50 v=55
77414 Off ch=1 n=50 v=55
77414 Off ch=1 n=60 v=55
77414 Off ch=1 n=59 v=55
77414 On ch=1 n=58 v=55
77414 On ch=1 n=60 v=55
77414 On ch=1 n=50 v=55
77414 On ch=1 n=54 v=55
77474 Off ch=1 n=60 v=55
77474 Off ch=1 n=58 v=55
77534 Off ch=1 n=54 v=55
77534 Off ch=1 n=50 v=55
77534 On ch=1 n=58 v=55
77534 On ch=1 n=60 v=55
77534 On ch=1 n=50 v=55
77534 On ch=1 n=54 v=55
77594 Off ch=1 n=60 v=55
77594 Off ch=1 n=58 v=55
77654 Off ch=1 n=54 v=55
77654 Off ch=1 n=50 v=55
77654 On ch=1 n=58 v=55
77654 On ch=1 n=60 v=55
77654 On ch=1 n=50 v=55
77654 On ch=1 n=54 v=55
77774 Off ch=1 n=54 v=55
77774 Off ch=1 n=50 v=55
77774 Off ch=1 n=60 v=55
77774 Off ch=1 n=58 v=55
77894 On ch=1 n=58 v=55
77894 On ch=1 n=60 v=55
77894 On ch=1 n=50 v=55
77894 On ch=1 n=53 v=55
77954 Off ch=1 n=60 v=55
77954 Off ch=1 n=58 v=55
78014 Off ch=1 n=53 v=55
78014 Off ch=1 n=50 v=55
78134 On ch=1 n=58 v=55
78134 On ch=1 n=50 v=55
78134 On ch=1 n=53 v=55
78254 Off ch=1 n=53 v=55
78254 Off ch=1 n=50 v=55
78254 Off ch=1 n=58 v=55
78374 On ch=1 n=57 v=55
78374 On ch=1 n=57 v=55
78434 Off ch=1 n=57 v=55
78494 Off ch=1 n=57 v=55
78494 On ch=1 n=59 v=55
78494 On ch=1 n=50 v=55
78494 On ch=1 n=53 v=55
78614 Off ch=1 n=53 v=55
78614 Off ch=1 n=50 v=55
78614 Off ch=1 n=59 v=55
78614 On ch=1 n=60 v=55
78614 On ch=1 n=62 v=55
78614 On ch=1 n=50 v=55
78614 On ch=1 n=53 v=55
78674 Off ch=1 n=62 v=55
78674 Off ch=1 n=60 v=55
78734 Off ch=1 n=53 v=55
78734 Off ch=1 n=50 v=55
78734 On ch=1 n=59 v=55
78734 On ch=1 n=50 v=55
78734 On ch=1 n=53 v=55
78854 Off ch=1 n=53 v=55
78854 Off ch=1 n=50 v=55
78854 Off ch=1 n=59 v=55
78854 On ch=1 n=57 v=55
78974 Off ch=1 n=57 v=55
78974 On ch=1 n=59 v=55
78974 On ch=1 n=50 v=55
78974 On ch=1 n=53 v=55
79094 Off ch=1 n=53 v=55
79094 Off ch=1 n=50 v=55
79094 Off ch=1 n=59 v=55
79094 On ch=1 n=53 v=55
79214 Off ch=1 n=53 v=55
79214 On ch=1 n=59 v=55
79214 On ch=1 n=60 v=55
79214 On ch=1 n=50 v=55
79214 On ch=1 n=53 v=55
79334 Off ch=1 n=53 v=55
79334 Off ch=1 n=50 v=55
79334 Off ch=1 n=60 v=55
79334 Off ch=1 n=59 v=55
79334 On ch=1 n=43 v=55
79334 On ch=1 n=47 v=55
79334 On ch=1 n=50 v=55
79334 On ch=1 n=53 v=55
79334 On ch=1 n=60 v=55
79335 Off ch=1 n=60 v=55
79335 Off ch=1 n=58 v=55
79335 Off ch=1 n=53 v=55
79335 Off ch=1 n=50 v=55
79454 Off ch=1 n=60 v=55
79454 Off ch=1 n=53 v=55
79454 Off ch=1 n=50 v=55
79454 Off ch=1 n=47 v=55
79454 Off ch=1 n=43 v=55
80294 On ch=1 n=55 v=55
80414 Off ch=1 n=55 v=55
80414 On ch=1 n=40 v=55
80414 On ch=1 n=50 v=55
80414 On ch=1 n=53 v=55
80534 Off ch=1 n=53 v=55
80534 Off ch=1 n=50 v=55
80534 On ch=1 n=40 v=55
80624 Off ch=1 n=40 v=55
80624 On ch=1 n=53 v=55
80654 Off ch=1 n=40 v=55
80654 On ch=1 n=50 v=55
80654 On ch=1 n=53 v=55
80654 On ch=1 n=59 v=55
80654 On ch=1 n=60 v=55
80744 Off ch=1 n=53 v=55
80744 On ch=1 n=50 v=55
80744 On ch=1 n=60 v=55
80774 Off ch=1 n=60 v=55
80774 Off ch=1 n=50 v=55
80774 Off ch=1 n=60 v=55
80774 Off ch=1 n=59 v=55
80774 Off ch=1 n=53 v=55
80774 Off ch=1 n=50 v=55
80926 Par ch=1 c=64 v=0
80926 Par ch=1 c=64 v=0
80926 Par ch=1 c=64 v=0
80926 Par ch=1 c=64 v=0
80926 Par ch=1 c=64 v=127
80926 Par ch=1 c=64 v=127
80926 Par ch=1 c=64 v=127
80926 Par ch=1 c=64 v=127
80926 Par ch=1 c=64 v=0
80926 Par ch=1 c=64 v=0
80926 Par ch=1 c=64 v=0
80926 Par ch=1 c=64 v=0
80926 On ch=1 n=47 v=55
80927 Off ch=1 n=59 v=55
80927 Off ch=1 n=60 v=55
80927 Off ch=1 n=53 v=55
80927 Off ch=1 n=50 v=55
80927 Off ch=1 n=40 v=55
81046 Off ch=1 n=47 v=55
81046 On ch=1 n=50 v=55
81046 On ch=1 n=53 v=55
81061 Off ch=1 n=53 v=55
81061 Off ch=1 n=50 v=55
81076 On ch=1 n=50 v=55
81076 On ch=1 n=53 v=55
81076 On ch=1 n=60 v=55
81136 Off ch=1 n=60 v=55
81136 Off ch=1 n=53 v=55
81136 Off ch=1 n=50 v=55
81136 On ch=1 n=48 v=55
81136 On ch=1 n=40 v=55
81136 On ch=1 n=52 v=55
81256 Off ch=1 n=52 v=55
81256 Off ch=1 n=40 v=55
81256 Off ch=1 n=48 v=55
81256 On ch=1 n=47 v=55
81256 On ch=1 n=53 v=55
81316 Off ch=1 n=53 v=55
81316 Off ch=1 n=47 v=55
81316 On ch=1 n=47 v=55
81406 Off ch=1 n=47 v=55
81406 On ch=1 n=88 v=55
81406 On ch=1 n=48 v=55
81466 On ch=1 n=41 v=55
81466 Off ch=1 n=48 v=55
81526 On ch=1 n=58 v=68
81526 Meta Lyric "#- "
81586 Off ch=1 n=41 v=55
81586 On ch=1 n=53 v=55
81586 Meta Lyric "eP "
81646 Off ch=1 n=88 v=55
81646 On ch=1 n=90 v=55
81706 Off ch=1 n=90 v=55
81706 Off ch=1 n=58 v=68
81706 Off ch=1 n=53 v=55
81706 On ch=1 n=53 v=55
81736 Off ch=1 n=53 v=55
81886 On ch=1 n=89 v=55
81886 On ch=1 n=71 v=55
81886 On ch=1 n=74 v=55
81886 On ch=1 n=60 v=55
81886 On ch=1 n=49 v=55
81886 On ch=1 n=43 v=55
81887 Off ch=1 n=60 v=55
81916 Off ch=1 n=43 v=55
81946 On ch=1 n=40 v=55
81946 On ch=1 n=43 v=55
82006 Off ch=1 n=89 v=55
82006 On ch=1 n=85 v=55
82006 Off ch=1 n=60 v=55
82006 Off ch=1 n=74 v=55
82006 Off ch=1 n=71 v=55
82006 On ch=1 n=58 v=55
82036 Off ch=1 n=58 v=55
82066 On ch=1 n=54 v=55
82066 Off ch=1 n=43 v=55
82066 Off ch=1 n=40 v=55
82066 On ch=1 n=43 v=55
82088 Off ch=1 n=54 v=55
82126 Off ch=1 n=43 v=55
82171 On ch=1 n=60 v=55
82201 Off ch=1 n=60 v=55
82246 Off ch=1 n=85 v=55
82366 Off ch=1 n=49 v=55
82366 On ch=1 n=89 v=105
82366 On ch=1 n=80 v=105
82366 On ch=1 n=70 v=55
82366 On ch=1 n=60 v=55
82366 Meta Lyric "r "
82366 On ch=1 n=54 v=55
82366 On ch=1 n=50 v=55
82366 On ch=1 n=50 v=55
82366 On ch=1 n=50 v=55
82366 On ch=1 n=50 v=55
82486 Off ch=1 n=89 v=105
82486 Off ch=1 n=60 v=55
82486 Off ch=1 n=50 v=55
82486 On ch=1 n=53 v=55
82486 Off ch=1 n=50 v=55
82486 On ch=1 n=53 v=55
82606 Off ch=1 n=80 v=105
82606 On ch=1 n=93 v=50
82606 On ch=1 n=84 v=50
82606 Off ch=1 n=70 v=55
82606 On ch=1 n=79 v=55
82606 On ch=1 n=70 v=55
82606 Off ch=1 n=54 v=55
82606 On ch=1 n=63 v=55
82606 Off ch=1 n=53 v=55
82606 Off ch=1 n=50 v=55
82606 On ch=1 n=55 v=55
82606 Off ch=1 n=53 v=55
82606 Off ch=1 n=50 v=55
82606 On ch=1 n=57 v=55
82726 Off ch=1 n=84 v=50
82726 On ch=1 n=91 v=55
82726 Off ch=1 n=63 v=55
82726 Off ch=1 n=55 v=55
82726 Off ch=1 n=57 v=55
82786 Off ch=1 n=93 v=50
82801 Off ch=1 n=91 v=55
82846 Off ch=1 n=70 v=55
82846 Off ch=1 n=79 v=55
82846 On ch=1 n=90 v=72
82846 On ch=1 n=84 v=72
82846 On ch=1 n=72 v=55
82846 On ch=1 n=63 v=55
82846 Meta Lyric ""
82846 On ch=1 n=57 v=55
82846 On ch=1 n=57 v=55
82846 On ch=1 n=55 v=55
82906 On ch=1 n=83 v=72
82906 On ch=1 n=83 v=72
82921 Off ch=1 n=84 v=72
82921 Off ch=1 n=90 v=72
82943 Off ch=1 n=83 v=72
82966 On ch=1 n=82 v=72
82966 On ch=1 n=82 v=72
82966 Off ch=1 n=72 v=55
82966 On ch=1 n=72 v=55
82966 Off ch=1 n=57 v=55
82966 Off ch=1 n=57 v=55
82966 On ch=1 n=52 v=55
82966 On ch=1 n=52 v=55
83003 Off ch=1 n=82 v=72
83003 Off ch=1 n=83 v=72
83026 On ch=1 n=81 v=72
83026 On ch=1 n=81 v=72
83063 Off ch=1 n=82 v=72
83086 Off ch=1 n=63 v=55
83086 On ch=1 n=60 v=55
83086 Meta Lyric "pi "
83086 Off ch=1 n=55 v=55
83086 On ch=1 n=52 v=55
83086 On ch=1 n=52 v=55
83206 Off ch=1 n=81 v=72
83206 Off ch=1 n=81 v=72
83206 Off ch=1 n=72 v=55
83206 Off ch=1 n=60 v=55
83206 Meta Lyric "z. "
83206 Off ch=1 n=52 v=55
83206 Off ch=1 n=52 v=55
83326 Off ch=1 n=52 v=55
83326 Off ch=1 n=52 v=55
83326 On ch=1 n=84 v=72
83326 On ch=1 n=84 v=72
83326 On ch=1 n=76 v=80
83326 On ch=1 n=68 v=80
83326 On ch=1 n=56 v=80
83326 On ch=1 n=46 v=55
83326 On ch=1 n=46 v=55
83326 On ch=1 n=46 v=72
83327 Off ch=1 n=53 v=55
83386 Off ch=1 n=84 v=72
83386 Off ch=1 n=84 v=72
83386 On ch=1 n=83 v=72
83386 On ch=1 n=83 v=72
83446 Off ch=1 n=83 v=72
83446 Off ch=1 n=83 v=72
83446 On ch=1 n=83 v=72
83446 On ch=1 n=83 v=72
83446 Off ch=1 n=68 v=80
83446 Off ch=1 n=46 v=72
83446 On ch=1 n=52 v=72
83476 Off ch=1 n=83 v=72
83506 On ch=1 n=81 v=72
83506 On ch=1 n=81 v=72
83524 Off ch=1 n=83 v=72
83566 Off ch=1 n=81 v=72
83566 On ch=1 n=79 v=72
83566 Off ch=1 n=76 v=80
83566 On ch=1 n=72 v=80
83566 On ch=1 n=62 v=80
83566 Off ch=1 n=56 v=80
83566 On ch=1 n=60 v=80
83566 Off ch=1 n=46 v=55
83566 Off ch=1 n=46 v=55
83566 On ch=1 n=52 v=55
83566 On ch=1 n=52 v=55
83566 Off ch=1 n=52 v=72
83566 On ch=1 n=46 v=72
83584 Off ch=1 n=81 v=72
83603 Off ch=1 n=60 v=80
83626 On ch=1 n=53 v=80
83686 On ch=1 n=59 v=80
83686 Off ch=1 n=52 v=55
83686 Off ch=1 n=52 v=55
83686 On ch=1 n=57 v=55
83686 On ch=1 n=46 v=55
83686 Off ch=1 n=46 v=72
83701 Off ch=1 n=53 v=80
83704 Off ch=1 n=59 v=80
83716 Off ch=1 n=72 v=80
83716 On ch=1 n=62 v=80
83746 Off ch=1 n=79 v=72
83746 On ch=1 n=84 v=72
83746 Off ch=1 n=62 v=80
83746 Par ch=1 c=64 v=0
83746 Par ch=1 c=64 v=0
83746 Par ch=1 c=64 v=0
83746 Par ch=1 c=64 v=0
83746 On ch=1 n=76 v=80
83746 On ch=1 n=65 v=80
83776 Off ch=1 n=84 v=72
83783 Off ch=1 n=65 v=80
83798 Off ch=1 n=46 v=55
83806 Off ch=1 n=76 v=80
83806 Off ch=1 n=62 v=80
83806 Off ch=1 n=57 v=55
83806 On ch=1 n=78 v=80
83806 Meta Lyric "sr "
83806 On ch=1 n=80 v=72
83806 On ch=1 n=62 v=80
83806 On ch=1 n=52 v=80
83806 On ch=1 n=46 v=80
83806 On ch=1 n=44 v=80
83806 On ch=1 n=127 v=46
83806 On ch=1 n=55 v=46
83806 On ch=1 n=55 v=46
83806 On ch=1 n=55 v=46
83806 On ch=1 n=55 v=46
83806 On ch=1 n=52 v=38
83806 On ch=1 n=62 v=38
83806 On ch=1 n=74 v=38
83806 On ch=1 n=53 v=38
83806 On ch=1 n=65 v=38
83806 On ch=1 n=50 v=38
83806 On ch=1 n=53 v=38
83806 On ch=1 n=62 v=38
83806 On ch=1 n=53 v=38
83806 Meta Lyric "l)"
83806 On ch=1 n=65 v=46
83806 On ch=1 n=76 v=46
83806 On ch=1 n=62 v=46
83806 On ch=1 n=72 v=46
83806 On ch=1 n=62 v=46
83806 On ch=1 n=72 v=46
83806 Meta Lyric "ano "
83806 Par ch=1 c=64 v=0
83806 Par ch=1 c=64 v=0
83806 Par ch=1 c=64 v=0
83806 Par ch=1 c=64 v=0
83806 Par ch=1 c=64 v=0
83806 Par ch=1 c=64 v=0
83806 Par ch=1 c=64 v=0
83806 Par ch=1 c=64 v=0
83806 Par ch=1 c=64 v=0
83806 Par ch=1 c=64 v=0
83806 Par ch=1 c=64 v=0
83806 Par ch=1 c=64 v=0
83806 Par ch=1 c=64 v=0
83806 Par ch=1 c=64 v=0
83806 Par ch=1 c=64 v=0
83806 Par ch=1 c=64 v=0
83806 Par ch=1 c=64 v=0
83806 Par ch=1 c=64 v=0
83806 Par ch=1 c=64 v=0
83806 Par ch=1 c=64 v=0
83806 Par ch=1 c=64 v=0
83806 Par ch=1 c=64 v=0
83806 Par ch=1 c=64 v=0
83806 Par ch=1 c=64 v=0
83806 Par ch=1 c=64 v=127
83806 Par ch=1 c=64 v=127
83806 Par ch=1 c=64 v=127
83806 Par ch=1 c=64 v=127
83806 Par ch=1 c=64 v=127
83806 Par ch=1 c=64 v=127
83806 Par ch=1 c=64 v=127
83806 Par ch=1 c=64 v=127
83806 Par ch=1 c=64 v=127
83806 Par ch=1 c=64 v=127
83806 Par ch=1 c=64 v=127
83806 Par ch=1 c=64 v=127
83806 On ch=1 n=28 v=55
83806 On ch=1 n=33 v=55
83806 On ch=1 n=35 v=55
83806 Meta Lyric "Oi "
83806 Par ch=1 c=64 v=0
83806 Par ch=1 c=64 v=0
83806 Par ch=1 c=64 v=0
83806 Par ch=1 c=64 v=0
83806 Par ch=1 c=64 v=0
83806 Par ch=1 c=64 v=0
83806 Par ch=1 c=64 v=0
83806 Par ch=1 c=64 v=0
83806 Par ch=1 c=64 v=0
83806 Par ch=1 c=64 v=0
83806 Par ch=1 c=64 v=0
83806 Par ch=1 c=64 v=0
83806 Par ch=1 c=64 v=0
83806 Par ch=1 c=64 v=0
83806 Par ch=1 c=64 v=0
83806 Par ch=1 c=64 v=0
83806 Par ch=1 c=64 v=0
83806 Par ch=1 c=64 v=0
83806 Par ch=1 c=64 v=0
83806 Par ch=1 c=64 v=0
83806 Par ch=1 c=64 v=0
83806 Par ch=1 c=64 v=0
83806 Par ch=1 c=64 v=0
83806 Par ch=1 c=64 v=0
83806 Par ch=1 c=64 v=127
83806 Par ch=1 c=64 v=127
83806 Par ch=1 c=64 v=127
83806 Par ch=1 c=64 v=127
83806 Par ch=1 c=64 v=127
83806 Par ch=1 c=64 v=127
83806 Par ch=1 c=64 v=127
83806 Par ch=1 c=64 v=127
83806 Par ch=1 c=64 v=127
83806 Par ch=1 c=64 v=127
83806 Par ch=1 c=64 v=127
83806 Par ch=1 c=64 v=127
83806 On ch=1 n=83 v=105
83806 Meta Lyric "r "
83806 On ch=1 n=72 v=105
83806 On ch=1 n=70 v=105
83806 On ch=1 n=62 v=105
83806 On ch=1 n=61 v=100
83806 Meta Lyric "anl "
83806 On ch=1 n=57 v=105
83806 On ch=1 n=53 v=105
83806 On ch=1 n=53 v=105
83806 On ch=1 n=53 v=105
83806 Meta Lyric "arco "
83806 On ch=1 n=52 v=80
83806 On ch=1 n=46 v=80
83806 On ch=1 n=46 v=80
83806 On ch=1 n=43 v=80
83806 On ch=1 n=64 v=80
83806 On ch=1 n=58 v=80
83806 On ch=1 n=52 v=80
83806 On ch=1 n=46 v=80
83845 Off ch=1 n=78 v=80
83866 On ch=1 n=77 v=80
83866 Off ch=1 n=80 v=72
83866 On ch=1 n=79 v=72
83866 Off ch=1 n=72 v=46
83866 Off ch=1 n=62 v=46
83866 Off ch=1 n=35 v=55
83866 Off ch=1 n=33 v=55
83866 Off ch=1 n=28 v=55
83866 On ch=1 n=26 v=55
83866 On ch=1 n=35 v=55
83866 On ch=1 n=36 v=55
83866 Off ch=1 n=83 v=105
83866 On ch=1 n=82 v=99
83896 Off ch=1 n=79 v=72
83896 Off ch=1 n=36 v=55
83896 Off ch=1 n=35 v=55
83896 Off ch=1 n=26 v=55
83926 Off ch=1 n=77 v=80
83926 On ch=1 n=75 v=80
83926 On ch=1 n=77 v=72
83926 Off ch=1 n=44 v=80
83926 Off ch=1 n=46 v=80
83926 Off ch=1 n=62 v=80
83926 Off ch=1 n=127 v=46
83926 Off ch=1 n=55 v=46
83926 Off ch=1 n=55 v=46
83926 Off ch=1 n=55 v=46
83926 On ch=1 n=55 v=46
83926 On ch=1 n=55 v=46
83926 On ch=1 n=55 v=46
83926 Off ch=1 n=62 v=38
83926 Off ch=1 n=53 v=38
83926 Off ch=1 n=50 v=38
83926 Off ch=1 n=65 v=38
83926 Off ch=1 n=53 v=38
83926 Off ch=1 n=74 v=38
83926 Off ch=1 n=62 v=38
83926 Off ch=1 n=52 v=38
83926 On ch=1 n=55 v=38
83926 On ch=1 n=65 v=38
83926 On ch=1 n=57 v=38
83926 Off ch=1 n=72 v=46
83926 Off ch=1 n=62 v=46
83926 Off ch=1 n=76 v=46
83926 Off ch=1 n=65 v=46
83926 On ch=1 n=31 v=55
83926 On ch=1 n=35 v=55
83926 On ch=1 n=50 v=55
83926 On ch=1 n=53 v=55
83926 On ch=1 n=58 v=55
83926 On ch=1 n=60 v=55
83926 On ch=1 n=29 v=55
83926 On ch=1 n=35 v=55
83926 On ch=1 n=36 v=55
83926 On ch=1 n=50 v=55
83926 On ch=1 n=53 v=55
83926 On ch=1 n=58 v=55
83926 On ch=1 n=60 v=55
83926 Off ch=1 n=82 v=99
83926 On ch=1 n=81 v=92
83926 On ch=1 n=82 v=92
83926 Off ch=1 n=61 v=100
83926 Off ch=1 n=53 v=105
83926 Off ch=1 n=53 v=105
83926 Off ch=1 n=53 v=105
83926 Off ch=1 n=57 v=105
83926 On ch=1 n=62 v=90
83926 On ch=1 n=62 v=90
83926 On ch=1 n=55 v=90
83926 Off ch=1 n=43 v=80
83926 Off ch=1 n=46 v=80
83926 Off ch=1 n=46 v=80
83926 Off ch=1 n=46 v=80
83926 Off ch=1 n=58 v=80
83926 Off ch=1 n=64 v=80
83986 Off ch=1 n=75 v=80
83986 On ch=1 n=75 v=80
83986 Off ch=1 n=77 v=72
83986 On ch=1 n=77 v=72
83986 Off ch=1 n=55 v=46
83986 Off ch=1 n=60 v=55
83986 Off ch=1 n=58 v=55
83986 Off ch=1 n=53 v=55
83986 Off ch=1 n=50 v=55
83986 Off ch=1 n=82 v=92
83986 Off ch=1 n=81 v=92
83986 On ch=1 n=82 v=85
84046 Off ch=1 n=75 v=80
84046 On ch=1 n=74 v=80
84046 Off ch=1 n=77 v=72
84046 On ch=1 n=76 v=72
84046 Off ch=1 n=52 v=80
84046 On ch=1 n=46 v=80
84046 On ch=1 n=46 v=80
84046 On ch=1 n=42 v=80
84046 On ch=1 n=36 v=80
84046 Off ch=1 n=55 v=46
84046 Off ch=1 n=55 v=46
84046 Off ch=1 n=55 v=46
84046 Off ch=1 n=57 v=38
84046 Off ch=1 n=53 v=38
84046 Off ch=1 n=65 v=38
84046 Off ch=1 n=55 v=38
84046 On ch=1 n=64 v=38
84046 Off ch=1 n=36 v=55
84046 Off ch=1 n=35 v=55
84046 Off ch=1 n=29 v=55
84046 Off ch=1 n=60 v=55
84046 Off ch=1 n=58 v=55
84046 Off ch=1 n=53 v=55
84046 Off ch=1 n=50 v=55
84046 Off ch=1 n=35 v=55
84046 Off ch=1 n=31 v=55
84046 On ch=1 n=28 v=55
84046 On ch=1 n=34 v=55
84046 On ch=1 n=53 v=55
84046 On ch=1 n=50 v=55
84046 On ch=1 n=53 v=55
84046 On ch=1 n=58 v=55
84046 On ch=1 n=60 v=55
84046 On ch=1 n=50 v=55
84046 On ch=1 n=53 v=55
84046 On ch=1 n=58 v=55
84046 On ch=1 n=60 v=55
84046 Off ch=1 n=82 v=85
84046 On ch=1 n=81 v=78
84046 Off ch=1 n=62 v=105
84046 Off ch=1 n=70 v=105
84046 Off ch=1 n=72 v=105
84046 On ch=1 n=72 v=78
84046 On ch=1 n=72 v=78
84046 On ch=1 n=62 v=78
84046 On ch=1 n=62 v=78
84046 Off ch=1 n=62 v=90
84046 Off ch=1 n=52 v=80
84046 On ch=1 n=52 v=80
84046 On ch=1 n=50 v=80
84046 On ch=1 n=52 v=80
84046 On ch=1 n=44 v=80
84046 Off ch=1 n=52 v=80
84046 On ch=1 n=56 v=80
84046 On ch=1 n=47 v=80
84046 On ch=1 n=52 v=80
84046 On ch=1 n=44 v=80
84076 On ch=1 n=53 v=38
84076 On ch=1 n=59 v=38
84076 On ch=1 n=65 v=38
84106 Off ch=1 n=74 v=80
84106 On ch=1 n=72 v=80
84106 Off ch=1 n=76 v=72
84106 On ch=1 n=74 v=72
84106 On ch=1 n=69 v=46
84106 On ch=1 n=75 v=46
84106 Off ch=1 n=34 v=55
84106 Off ch=1 n=28 v=55
84106 Off ch=1 n=60 v=55
84106 Off ch=1 n=58 v=55
84106 Off ch=1 n=53 v=55
84106 Off ch=1 n=50 v=55
84106 Off ch=1 n=60 v=55
84106 Off ch=1 n=58 v=55
84106 Off ch=1 n=53 v=55
84106 Off ch=1 n=50 v=55
84106 Off ch=1 n=81 v=78
84106 On ch=1 n=81 v=71
84106 Off ch=1 n=62 v=78
84106 Off ch=1 n=72 v=78
84106 On ch=1 n=76 v=71
84106 Off ch=1 n=55 v=90
84106 On ch=1 n=54 v=66
84106 On ch=1 n=54 v=66
84106 Off ch=1 n=52 v=80
84106 On ch=1 n=46 v=80
84106 Off ch=1 n=52 v=80
84166 Off ch=1 n=74 v=72
84166 On ch=1 n=74 v=72
84166 Off ch=1 n=36 v=80
84166 Off ch=1 n=42 v=80
84166 Off ch=1 n=46 v=80
84166 Off ch=1 n=46 v=80
84166 Off ch=1 n=64 v=38
84166 On ch=1 n=29 v=38
84166 Off ch=1 n=53 v=55
84166 On ch=1 n=50 v=55
84166 On ch=1 n=54 v=55
84166 On ch=1 n=58 v=55
84166 On ch=1 n=60 v=55
84166 On ch=1 n=50 v=55
84166 On ch=1 n=54 v=55
84166 On ch=1 n=58 v=55
84166 On ch=1 n=60 v=55
84166 On ch=1 n=50 v=55
84166 On ch=1 n=54 v=55
84166 On ch=1 n=58 v=55
84166 On ch=1 n=60 v=55
84166 On ch=1 n=55 v=55
84166 Off ch=1 n=81 v=71
84166 On ch=1 n=80 v=64
84166 On ch=1 n=80 v=64
84166 On ch=1 n=75 v=64
84166 On ch=1 n=75 v=64
84166 Off ch=1 n=62 v=90
84166 On ch=1 n=52 v=58
84166 Off ch=1 n=44 v=80
84166 Off ch=1 n=50 v=80
84166 Off ch=1 n=44 v=80
84166 Off ch=1 n=47 v=80
84166 Off ch=1 n=56 v=80
84166 On ch=1 n=56 v=80
84166 On ch=1 n=41 v=80
84166 On ch=1 n=46 v=80
84166 On ch=1 n=44 v=80
84196 Off ch=1 n=72 v=80
84196 On ch=1 n=72 v=80
84196 Off ch=1 n=74 v=72
84196 On ch=1 n=76 v=72
84196 Off ch=1 n=65 v=38
84196 Off ch=1 n=59 v=38
84196 Off ch=1 n=53 v=38
84211 Off ch=1 n=72 v=80
84226 On ch=1 n=74 v=80
84226 Off ch=1 n=60 v=55
84226 Off ch=1 n=58 v=55
84226 Off ch=1 n=54 v=55
84226 Off ch=1 n=50 v=55
84226 Off ch=1 n=60 v=55
84226 Off ch=1 n=58 v=55
84226 Off ch=1 n=54 v=55
84226 Off ch=1 n=50 v=55
84226 Off ch=1 n=60 v=55
84226 Off ch=1 n=58 v=55
84226 Off ch=1 n=54 v=55
84226 Off ch=1 n=50 v=55
84226 Off ch=1 n=76 v=71
84226 Off ch=1 n=54 v=66
84226 Off ch=1 n=54 v=66
84226 On ch=1 n=54 v=50
84226 On ch=1 n=54 v=50
84226 Off ch=1 n=46 v=80
84226 Off ch=1 n=52 v=80
84226 On ch=1 n=44 v=80
84226 On ch=1 n=41 v=80
84226 On ch=1 n=47 v=80
84226 On ch=1 n=44 v=80
84256 Off ch=1 n=76 v=72
84256 On ch=1 n=74 v=72
84286 Off ch=1 n=74 v=80
84286 Off ch=1 n=74 v=72
84286 Off ch=1 n=29 v=38
84286 Off ch=1 n=75 v=46
84286 Off ch=1 n=69 v=46
84286 Off ch=1 n=55 v=55
84286 Off ch=1 n=75 v=64
84286 Off ch=1 n=75 v=64
84286 Off ch=1 n=80 v=64
84286 Off ch=1 n=80 v=64
84286 Off ch=1 n=62 v=78
84286 Off ch=1 n=72 v=78
84286 Off ch=1 n=54 v=50
84286 Off ch=1 n=54 v=50
84286 Off ch=1 n=52 v=58
84286 Off ch=1 n=44 v=80
84286 Off ch=1 n=47 v=80
84286 Off ch=1 n=41 v=80
84286 Off ch=1 n=44 v=80
84286 Off ch=1 n=44 v=80
84286 Off ch=1 n=46 v=80
84286 Off ch=1 n=41 v=80
84286 Off ch=1 n=56 v=80
84286 On ch=1 n=69 v=72
84286 On ch=1 n=69 v=80
84286 On ch=1 n=71 v=46
84286 On ch=1 n=44 v=46
84286 On ch=1 n=57 v=55
84286 On ch=1 n=85 v=105
84286 On ch=1 n=76 v=63
84286 On ch=1 n=70 v=80
84286 On ch=1 n=54 v=72
84286 On ch=1 n=44 v=80
84286 Meta Lyric "pl "
84286 On ch=1 n=56 v=80
84287 Off ch=1 n=44 v=80
84287 Off ch=1 n=60 v=55
84287 Off ch=1 n=58 v=55
84287 Off ch=1 n=54 v=55
84287 Off ch=1 n=50 v=55
84287 Off ch=1 n=60 v=55
84287 Off ch=1 n=58 v=55
84287 Off ch=1 n=54 v=55
84287 Off ch=1 n=50 v=55
84287 Off ch=1 n=80 v=50
84326 Off ch=1 n=71 v=46
84326 On ch=1 n=64 v=46
84346 On ch=1 n=60 v=46
84346 Meta Lyric "I'P "
84346 Off ch=1 n=57 v=55
84346 On ch=1 n=57 v=55
84346 On ch=1 n=54 v=72
84346 On ch=1 n=59 v=72
84366 Off ch=1 n=64 v=46
84406 Off ch=1 n=69 v=72
84406 On ch=1 n=68 v=72
84406 Off ch=1 n=69 v=80
84406 On ch=1 n=71 v=55
84406 On ch=1 n=64 v=46
84406 Off ch=1 n=44 v=46
84406 On ch=1 n=48 v=46
84406 Off ch=1 n=60 v=46
84406 On ch=1 n=60 v=46
84406 Off ch=1 n=85 v=105
84406 On ch=1 n=86 v=72
84406 On ch=1 n=91 v=72
84406 Off ch=1 n=44 v=80
84406 Off ch=1 n=56 v=80
84406 On ch=1 n=58 v=80
84406 On ch=1 n=40 v=80
84421 Off ch=1 n=57 v=55
84421 Off ch=1 n=59 v=72
84421 Off ch=1 n=54 v=72
84443 Off ch=1 n=40 v=80
84456 Off ch=1 n=64 v=46
84466 Off ch=1 n=68 v=72
84466 Off ch=1 n=60 v=46
84466 On ch=1 n=60 v=46
84466 On ch=1 n=40 v=80
84466 On ch=1 n=46 v=80
84481 Off ch=1 n=91 v=72
84481 Off ch=1 n=86 v=72
84486 On ch=1 n=64 v=46
84526 On ch=1 n=67 v=72
84526 Off ch=1 n=71 v=55
84526 On ch=1 n=52 v=46
84526 Off ch=1 n=60 v=46
84526 On ch=1 n=60 v=46
84526 On ch=1 n=54 v=72
84526 On ch=1 n=59 v=72
84526 Off ch=1 n=76 v=63
84526 On ch=1 n=80 v=63
84526 On ch=1 n=80 v=63
84526 Off ch=1 n=70 v=80
84526 On ch=1 n=72 v=80
84526 Off ch=1 n=54 v=72
84526 On ch=1 n=52 v=72
84526 On ch=1 n=52 v=72
84526 On ch=1 n=64 v=80
84526 On ch=1 n=40 v=80
84532 Par ch=1 c=64 v=0
84532 Par ch=1 c=64 v=0
84532 Par ch=1 c=64 v=0
84532 Par ch=1 c=64 v=0
84532 Par ch=1 c=64 v=127
84532 Par ch=1 c=64 v=127
84532 Par ch=1 c=64 v=127
84532 Par ch=1 c=64 v=127
84536 Off ch=1 n=64 v=46
84556 Off ch=1 n=48 v=46
84556 Off ch=1 n=58 v=80
84563 Off ch=1 n=40 v=80
84566 On ch=1 n=64 v=46
84586 On ch=1 n=71 v=55
84586 On ch=1 n=71 v=55
84586 Off ch=1 n=64 v=46
84586 Off ch=1 n=60 v=46
84586 Off ch=1 n=59 v=72
84586 Off ch=1 n=54 v=72
84586 On ch=1 n=54 v=72
84586 On ch=1 n=60 v=72
84586 Off ch=1 n=40 v=80
84586 On ch=1 n=40 v=80
84586 Meta Lyric "("
84586 On ch=1 n=40 v=80
84616 Off ch=1 n=60 v=72
84616 Off ch=1 n=54 v=72
84616 Off ch=1 n=46 v=80
84616 Off ch=1 n=40 v=80
84646 Off ch=1 n=67 v=72
84646 Off ch=1 n=80 v=63
84646 Off ch=1 n=80 v=63
84646 Off ch=1 n=40 v=80
84646 Meta Lyric ""
84646 Off ch=1 n=64 v=80
84706 On ch=1 n=67 v=72
84706 Off ch=1 n=71 v=55
84706 Off ch=1 n=71 v=55
84706 On ch=1 n=71 v=55
84706 On ch=1 n=86 v=72
84706 On ch=1 n=91 v=72
84706 On ch=1 n=40 v=80
84766 Off ch=1 n=67 v=72
84766 Off ch=1 n=71 v=55
84766 Off ch=1 n=52 v=46
84766 Off ch=1 n=91 v=72
84766 Off ch=1 n=86 v=72
84766 Off ch=1 n=72 v=80
84766 Off ch=1 n=52 v=72
84766 Off ch=1 n=52 v=72
84766 Off ch=1 n=40 v=80
84766 On ch=1 n=70 v=55
84766 On ch=1 n=44 v=46
84766 Par ch=1 c=64 v=0
84766 Par ch=1 c=64 v=0
84766 Par ch=1 c=64 v=0
84766 Par ch=1 c=64 v=0
84766 Par ch=1 c=64 v=127
84766 Par ch=1 c=64 v=127
84766 Par ch=1 c=64 v=127
84766 Par ch=1 c=64 v=127
84766 On ch=1 n=57 v=55
84766 On ch=1 n=88 v=80
84766 On ch=1 n=53 v=80
84766 On ch=1 n=40 v=80
84766 On ch=1 n=40 v=80
84766 On ch=1 n=63 v=63
84766 On ch=1 n=58 v=55
84766 Meta Lyric "ar "
84766 On ch=1 n=54 v=72
84766 On ch=1 n=54 v=72
84766 Meta Lyric "piz "
84766 On ch=1 n=43 v=80
84766 On ch=1 n=47 v=80
84766 On ch=1 n=43 v=80
84766 On ch=1 n=39 v=80
84766 On ch=1 n=57 v=105
84766 On ch=1 n=40 v=105
84796 Off ch=1 n=39 v=80
84796 Off ch=1 n=40 v=105
84803 Off ch=1 n=40 v=80
84806 On ch=1 n=64 v=105
84826 Off ch=1 n=70 v=55
84826 On ch=1 n=61 v=46
84826 Meta Lyric "I''P "
84826 Off ch=1 n=57 v=55
84826 On ch=1 n=57 v=55
84826 On ch=1 n=46 v=80
84826 Off ch=1 n=54 v=72
84826 Off ch=1 n=54 v=72
84826 On ch=1 n=54 v=72
84846 Off ch=1 n=64 v=105
84846 On ch=1 n=64 v=50
84876 Off ch=1 n=64 v=50
84885 Par ch=1 c=64 v=0
84885 Par ch=1 c=64 v=0
84885 Par ch=1 c=64 v=0
84885 Par ch=1 c=64 v=0
84886 Off ch=1 n=65 v=72
84886 On ch=1 n=67 v=72
84886 On ch=1 n=70 v=105
84886 Off ch=1 n=44 v=46
84886 On ch=1 n=46 v=46
84886 Off ch=1 n=61 v=46
84886 Off ch=1 n=57 v=55
84886 On ch=1 n=57 v=55
84886 On ch=1 n=0 v=55
84886 Off ch=1 n=54 v=72
84886 Off ch=1 n=43 v=80
84886 Off ch=1 n=47 v=80
84886 Off ch=1 n=43 v=80
84886 On ch=1 n=46 v=80
84886 On ch=1 n=39 v=80
84886 Off ch=1 n=57 v=105
84886 On ch=1 n=58 v=92
84886 On ch=1 n=40 v=92
84916 Off ch=1 n=40 v=80
84916 Off ch=1 n=53 v=80
84923 Off ch=1 n=39 v=80
84923 Off ch=1 n=40 v=92
84946 Off ch=1 n=70 v=105
84946 On ch=1 n=61 v=46
84946 Off ch=1 n=0 v=55
84946 Off ch=1 n=57 v=55
84946 On ch=1 n=48 v=80
84946 On ch=1 n=40 v=80
84946 On ch=1 n=54 v=72
84946 Meta Lyric ""
84976 Off ch=1 n=46 v=80
84986 On ch=1 n=64 v=46
85003 Off ch=1 n=40 v=80
85006 Off ch=1 n=67 v=72
85006 On ch=1 n=66 v=72
85006 On ch=1 n=66 v=78
85006 Off ch=1 n=64 v=46
85006 On ch=1 n=52 v=46
85006 Off ch=1 n=61 v=46
85006 On ch=1 n=61 v=46
85006 On ch=1 n=57 v=55
85006 Off ch=1 n=63 v=63
85006 On ch=1 n=68 v=63
85006 Off ch=1 n=58 v=55
85006 On ch=1 n=62 v=55
85006 On ch=1 n=60 v=55
85006 Off ch=1 n=54 v=72
85006 On ch=1 n=52 v=105
85006 On ch=1 n=39 v=105
85006 Meta Lyric ""
85006 On ch=1 n=64 v=78
85006 On ch=1 n=40 v=78
85036 Off ch=1 n=46 v=46
85036 Off ch=1 n=46 v=80
85036 Off ch=1 n=58 v=92
85043 Off ch=1 n=39 v=105
85043 Off ch=1 n=40 v=78
85066 On ch=1 n=64 v=46
85066 Off ch=1 n=61 v=46
85066 Off ch=1 n=57 v=55
85066 Off ch=1 n=88 v=80
85066 On ch=1 n=52 v=80
85066 On ch=1 n=39 v=80
85086 Off ch=1 n=64 v=46
85126 Off ch=1 n=66 v=72
85126 On ch=1 n=70 v=46
85126 On ch=1 n=65 v=50
85126 On ch=1 n=61 v=46
85126 On ch=1 n=57 v=55
85126 On ch=1 n=58 v=55
85126 On ch=1 n=54 v=72
85126 On ch=1 n=54 v=72
85126 On ch=1 n=39 v=78
85126 On ch=1 n=40 v=64
85146 On ch=1 n=64 v=46
85156 Off ch=1 n=66 v=78
85156 Off ch=1 n=60 v=55
85156 Off ch=1 n=39 v=78
85156 Off ch=1 n=40 v=64
85166 Off ch=1 n=64 v=46
85179 Off ch=1 n=48 v=80
85182 Off ch=1 n=39 v=80
85186 On ch=1 n=63 v=46
85186 Off ch=1 n=61 v=46
85186 Meta Lyric "l "
85186 Off ch=1 n=57 v=55
85186 On ch=1 n=39 v=105
85186 Off ch=1 n=54 v=72
85246 Off ch=1 n=70 v=46
85246 Off ch=1 n=65 v=50
85246 Off ch=1 n=63 v=46
85246 Off ch=1 n=52 v=46
85246 Meta Lyric "pl "
85246 Off ch=1 n=52 v=80
85246 Off ch=1 n=39 v=105
85246 Off ch=1 n=68 v=63
85246 Off ch=1 n=62 v=55
85246 Off ch=1 n=58 v=55
85246 Off ch=1 n=54 v=72
85246 Off ch=1 n=52 v=105
85246 Meta Lyric "pi "
85246 Off ch=1 n=64 v=78
85246 On ch=1 n=70 v=105
85246 On ch=1 n=61 v=46
85246 Meta Lyric "C "
85246 On ch=1 n=57 v=55
85246 On ch=1 n=63 v=55
85246 On ch=1 n=63 v=55
85246 On ch=1 n=58 v=46
85246 On ch=1 n=58 v=46
85246 On ch=1 n=47 v=46
85246 On ch=1 n=43 v=46
85246 On ch=1 n=40 v=46
85246 On ch=1 n=51 v=46
85246 On ch=1 n=39 v=46
85247 Off ch=1 n=55 v=46
85247 Off ch=1 n=53 v=105
85247 Off ch=1 n=55 v=105
85247 Off ch=1 n=61 v=46
85247 Off ch=1 n=39 v=80
85247 Off ch=1 n=39 v=80
85247 Off ch=1 n=54 v=72
85247 Off ch=1 n=39 v=50
85247 Off ch=1 n=39 v=80
85247 Off ch=1 n=40 v=50
85247 Off ch=1 n=40 v=50
85262 Off ch=1 n=61 v=46
85272 On ch=1 n=61 v=46
85272 Meta Lyric "lylut "
85276 Off ch=1 n=39 v=46
85304 Off ch=1 n=61 v=46
85306 Off ch=1 n=70 v=105
85306 On ch=1 n=61 v=46
85306 Off ch=1 n=57 v=55
85306 On ch=1 n=57 v=55
85306 On ch=1 n=54 v=72
85306 On ch=1 n=54 v=72
85306 Off ch=1 n=40 v=46
85306 Off ch=1 n=51 v=46
85325 On ch=1 n=63 v=46
85336 Off ch=1 n=54 v=72
85351 Off ch=1 n=63 v=46
85366 Meta Lyric "pv"
85366 On ch=1 n=70 v=92
85366 Off ch=1 n=61 v=46
85366 Off ch=1 n=57 v=55
85366 On ch=1 n=57 v=55
85366 On ch=1 n=39 v=46
85366 Off ch=1 n=54 v=72
85366 Off ch=1 n=43 v=46
85366 Off ch=1 n=47 v=46
85366 On ch=1 n=46 v=46
85366 On ch=1 n=40 v=46
85366 On ch=1 n=51 v=46
85366 On ch=1 n=39 v=46
85392 On ch=1 n=61 v=46
85396 Off ch=1 n=39 v=46
85396 Off ch=1 n=39 v=46
85403 Off ch=1 n=40 v=46
85426 Off ch=1 n=70 v=92
85426 On ch=1 n=61 v=46
85426 Off ch=1 n=57 v=55
85426 On ch=1 n=50 v=46
85426 On ch=1 n=55 v=46
85426 On ch=1 n=54 v=72
85426 On ch=1 n=54 v=72
85426 Off ch=1 n=51 v=46
85426 On ch=1 n=51 v=46
85426 On ch=1 n=39 v=46
85432 Off ch=1 n=61 v=46
85456 Off ch=1 n=39 v=46
85463 Off ch=1 n=61 v=46
85472 On ch=1 n=61 v=46
85486 Meta Lyric ""
85486 Off ch=1 n=61 v=55
85545 On ch=1 n=62 v=46
85605 Off ch=1 n=62 v=46
85665 On ch=1 n=62 v=46
85725 On ch=1 n=72 v=78
85725 On ch=1 n=57 v=55
85725 On ch=1 n=39 v=46
85725 Off ch=1 n=63 v=55
85725 Off ch=1 n=63 v=55
85725 Off ch=1 n=58 v=46
85725 Off ch=1 n=58 v=46
85725 Off ch=1 n=54 v=72
85725 Off ch=1 n=54 v=72
85725 On ch=1 n=54 v=72
85725 On ch=1 n=54 v=72
85725 On ch=1 n=40 v=46
85725 Off ch=1 n=51 v=46
85740 Off ch=1 n=62 v=46
85740 Off ch=1 n=55 v=46
85740 Off ch=1 n=50 v=46
85751 Off ch=1 n=61 v=46
85755 On ch=1 n=61 v=46
85755 Off ch=1 n=46 v=46
85762 Off ch=1 n=40 v=46
85771 Off ch=1 n=39 v=46
85785 Off ch=1 n=72 v=78
85785 Off ch=1 n=57 v=55
85785 Off ch=1 n=54 v=72
85785 Off ch=1 n=54 v=72
85785 On ch=1 n=54 v=72
85785 On ch=1 n=54 v=72
85785 On ch=1 n=51 v=46
85785 On ch=1 n=39 v=46
85815 On ch=1 n=62 v=46
85815 Off ch=1 n=61 v=46
85815 On ch=1 n=50 v=46
85815 On ch=1 n=55 v=46
85815 Off ch=1 n=39 v=46
85845 Off ch=1 n=54 v=72
85845 Off ch=1 n=54 v=72
85845 On ch=1 n=52 v=46
85845 On ch=1 n=40 v=46
85845 Off ch=1 n=51 v=46
85875 Off ch=1 n=62 v=46
85875 On ch=1 n=39 v=46
85890 Off ch=1 n=55 v=46
85890 Off ch=1 n=50 v=46
85891 Off ch=1 n=40 v=46
85905 Off ch=1 n=52 v=46
85925 Par ch=1 c=64 v=0
85925 Par ch=1 c=64 v=0
85925 Par ch=1 c=64 v=0
85925 Par ch=1 c=64 v=0
85925 Off ch=1 n=73 v=80
87334 On ch=1 n=70 v=54
87334 On ch=1 n=62 v=46
87334 On ch=1 n=50 v=46
87349 Off ch=1 n=39 v=46
87364 Off ch=1 n=70 v=54
87364 Off ch=1 n=62 v=46
87364 Off ch=1 n=50 v=46
87364 On ch=1 n=58 v=46
87364 On ch=1 n=57 v=105
87364 Meta Lyric "Pio "
87364 On ch=1 n=39 v=46
87364 On ch=1 n=52 v=55
87364 Meta Lyric "piz "
87364 On ch=1 n=39 v=46
87364 On ch=1 n=39 v=46
87364 On ch=1 n=52 v=55
87364 On ch=1 n=38 v=55
87365 Off ch=1 n=62 v=38
87365 Off ch=1 n=59 v=38
87394 On ch=1 n=67 v=80
87394 On ch=1 n=77 v=80
87394 Off ch=1 n=39 v=46
87394 Off ch=1 n=52 v=55
87394 Off ch=1 n=39 v=46
87394 Off ch=1 n=38 v=55
87424 Off ch=1 n=57 v=105
87424 On ch=1 n=50 v=46
87424 On ch=1 n=59 v=38
87424 On ch=1 n=62 v=38
87424 Off ch=1 n=39 v=46
87424 Off ch=1 n=52 v=55
87454 Off ch=1 n=62 v=38
87454 Off ch=1 n=59 v=38
87454 On ch=1 n=54 v=55
87454 On ch=1 n=54 v=55
87484 Off ch=1 n=58 v=46
87484 On ch=1 n=57 v=92
87484 On ch=1 n=59 v=38
87484 On ch=1 n=62 v=38
87484 Off ch=1 n=54 v=55
87484 On ch=1 n=39 v=46
87484 On ch=1 n=39 v=46
87484 On ch=1 n=52 v=55
87484 On ch=1 n=40 v=55
87514 Off ch=1 n=77 v=80
87514 Off ch=1 n=67 v=80
87514 Off ch=1 n=62 v=38
87514 Off ch=1 n=59 v=38
87514 Off ch=1 n=54 v=55
87514 On ch=1 n=52 v=55
87514 Off ch=1 n=39 v=46
87514 Off ch=1 n=39 v=46
87514 Off ch=1 n=40 v=55
87544 Off ch=1 n=57 v=92
87544 Off ch=1 n=50 v=46
87544 On ch=1 n=43 v=46
87544 On ch=1 n=53 v=46
87544 On ch=1 n=59 v=38
87544 On ch=1 n=62 v=38
87544 Off ch=1 n=52 v=55
87544 On ch=1 n=52 v=55
87544 On ch=1 n=40 v=55
87574 Off ch=1 n=62 v=38
87574 Off ch=1 n=59 v=38
87574 Off ch=1 n=52 v=55
87574 On ch=1 n=54 v=55
87574 On ch=1 n=39 v=46
87574 On ch=1 n=39 v=46
87574 Off ch=1 n=40 v=55
87604 Off ch=1 n=53 v=46
87604 Off ch=1 n=43 v=46
87604 Off ch=1 n=39 v=46
87604 Off ch=1 n=39 v=46
87604 Off ch=1 n=52 v=55
87634 Off ch=1 n=54 v=55
87634 On ch=1 n=50 v=55
87634 On ch=1 n=39 v=46
87634 On ch=1 n=39 v=46
87664 On ch=1 n=59 v=38
87664 On ch=1 n=62 v=38
87664 Off ch=1 n=39 v=46
87664 Off ch=1 n=39 v=46
87664 On ch=1 n=52 v=55
87664 On ch=1 n=40 v=55
87694 Off ch=1 n=50 v=55
87694 On ch=1 n=54 v=55
87694 Off ch=1 n=40 v=55
87716 On ch=1 n=43 v=46
87716 On ch=1 n=53 v=46
87724 Off ch=1 n=62 v=38
87724 Off ch=1 n=59 v=38
87724 Off ch=1 n=52 v=55
87754 Off ch=1 n=54 v=55
87776 Off ch=1 n=53 v=46
87776 Off ch=1 n=43 v=46
87814 On ch=1 n=54 v=55
87814 On ch=1 n=54 v=55
87814 Meta Lyric "rco) "
87844 Off ch=1 n=54 v=55
87844 Off ch=1 n=54 v=55
87844 On ch=1 n=67 v=80
87844 On ch=1 n=68 v=72
87844 On ch=1 n=66 v=55
87844 On ch=1 n=57 v=80
87844 Meta Lyric "nis "
87845 Off ch=1 n=70 v=105
87859 Par ch=1 c=64 v=0
87859 Par ch=1 c=64 v=0
87859 Par ch=1 c=64 v=0
87859 Par ch=1 c=64 v=0
87859 Par ch=1 c=64 v=127
87859 Par ch=1 c=64 v=127
87859 Par ch=1 c=64 v=127
87859 Par ch=1 c=64 v=127
87874 Off ch=1 n=57 v=80
87874 On ch=1 n=57 v=80
87874 On ch=1 n=64 v=80
87884 On ch=1 n=39 v=105
87904 Off ch=1 n=68 v=72
87904 Off ch=1 n=66 v=55
87904 On ch=1 n=57 v=72
87904 On ch=1 n=40 v=55
87904 On ch=1 n=39 v=55
87904 On ch=1 n=51 v=55
87919 Par ch=1 c=64 v=0
87919 Par ch=1 c=64 v=0
87919 Par ch=1 c=64 v=0
87919 Par ch=1 c=64 v=0
87919 Off ch=1 n=40 v=55
87924 On ch=1 n=70 v=105
87924 On ch=1 n=61 v=46
87924 Off ch=1 n=39 v=105
87924 On ch=1 n=39 v=50
87934 On ch=1 n=68 v=72
87934 On ch=1 n=66 v=55
87934 Off ch=1 n=57 v=80
87934 On ch=1 n=57 v=80
87934 On ch=1 n=40 v=55
87934 Off ch=1 n=39 v=55
87944 Off ch=1 n=67 v=80
87949 Off ch=1 n=64 v=80
87952 Off ch=1 n=68 v=72
87964 Off ch=1 n=61 v=46
87964 Off ch=1 n=39 v=50
87964 On ch=1 n=39 v=38
87964 On ch=1 n=69 v=72
87964 On ch=1 n=67 v=55
87964 Off ch=1 n=57 v=72
87964 On ch=1 n=57 v=72
87964 Off ch=1 n=51 v=55
87971 Off ch=1 n=66 v=55
87980 Off ch=1 n=40 v=55
88004 Off ch=1 n=70 v=105
88014 Off ch=1 n=39 v=38
88039 Off ch=1 n=57 v=72
88042 Off ch=1 n=67 v=55
88044 On ch=1 n=39 v=38
88054 Off ch=1 n=57 v=80
88054 On ch=1 n=40 v=55
88054 On ch=1 n=39 v=55
88054 On ch=1 n=51 v=55
88064 Off ch=1 n=39 v=38
88084 Off ch=1 n=69 v=72
88084 On ch=1 n=68 v=72
88084 On ch=1 n=66 v=55
88091 Off ch=1 n=40 v=55
88091 Off ch=1 n=51 v=55
88091 Off ch=1 n=39 v=55
88114 Off ch=1 n=66 v=55
88144 On ch=1 n=39 v=55
88144 On ch=1 n=51 v=55
88164 On ch=1 n=58 v=46
88174 On ch=1 n=66 v=55
88174 On ch=1 n=40 v=55
88181 Off ch=1 n=51 v=55
88181 Off ch=1 n=39 v=55
88189 Off ch=1 n=40 v=55
88204 Off ch=1 n=58 v=46
88204 Off ch=1 n=68 v=72
88204 On ch=1 n=64 v=55
88211 Off ch=1 n=66 v=55
88234 On ch=1 n=66 v=72
88234 On ch=1 n=39 v=55
88234 On ch=1 n=51 v=55
88244 On ch=1 n=67 v=55
88264 Off ch=1 n=64 v=55
88264 Off ch=1 n=51 v=55
88264 Off ch=1 n=39 v=55
88274 Off ch=1 n=67 v=55
88279 Off ch=1 n=66 v=72
88324 Tempo 400000
88324 Tempo 400000
88324 On ch=1 n=84 v=55
88324 On ch=1 n=67 v=72
88324 On ch=1 n=66 v=55
88324 On ch=1 n=57 v=80
88324 On ch=1 n=83 v=55
88324 On ch=1 n=52 v=55
88324 On ch=1 n=40 v=55
88380 Off ch=1 n=66 v=55
88384 On ch=1 n=57 v=72
88384 On ch=1 n=39 v=55
88384 Off ch=1 n=40 v=55
88384 Off ch=1 n=52 v=55
88414 On ch=1 n=66 v=55
88414 Off ch=1 n=57 v=80
88414 On ch=1 n=57 v=80
88414 Off ch=1 n=39 v=55
88421 Off ch=1 n=66 v=55
88429 On ch=1 n=67 v=55
88444 Off ch=1 n=84 v=55
88444 On ch=1 n=40 v=38
88444 Off ch=1 n=57 v=80
88444 On ch=1 n=57 v=80
88444 Off ch=1 n=57 v=72
88444 On ch=1 n=39 v=55
88457 Off ch=1 n=40 v=38
88459 Off ch=1 n=67 v=55
88474 On ch=1 n=52 v=55
88474 On ch=1 n=40 v=55
88481 Off ch=1 n=39 v=55
88489 On ch=1 n=66 v=55
88504 On ch=1 n=40 v=38
88504 Off ch=1 n=67 v=72
88504 Off ch=1 n=57 v=80
88504 On ch=1 n=57 v=80
88504 On ch=1 n=57 v=72
88504 On ch=1 n=39 v=55
88511 Off ch=1 n=40 v=55
88519 Off ch=1 n=66 v=55
88529 Off ch=1 n=40 v=38
88541 Off ch=1 n=39 v=55
88544 On ch=1 n=40 v=38
88549 On ch=1 n=73 v=55
88549 Off ch=1 n=52 v=55
88564 Off ch=1 n=57 v=80
88564 On ch=1 n=62 v=80
88579 Off ch=1 n=57 v=72
88594 Off ch=1 n=40 v=38
88594 On ch=1 n=52 v=55
88594 On ch=1 n=40 v=55
88624 On ch=1 n=40 v=38
88624 On ch=1 n=57 v=72
88624 On ch=1 n=39 v=55
88631 Off ch=1 n=40 v=55
88639 Off ch=1 n=39 v=55
88664 Off ch=1 n=40 v=38
88669 Off ch=1 n=73 v=55
88669 On ch=1 n=73 v=55
88669 Off ch=1 n=52 v=55
88684 Off ch=1 n=62 v=80
88684 On ch=1 n=62 v=80
88699 Off ch=1 n=57 v=72
88714 On ch=1 n=52 v=55
88714 On ch=1 n=40 v=55
88729 Off ch=1 n=73 v=55
88744 On ch=1 n=69 v=72
88744 On ch=1 n=57 v=72
88751 Off ch=1 n=40 v=55
88774 Off ch=1 n=52 v=55
88804 Off ch=1 n=69 v=72
88804 Off ch=1 n=62 v=80
88804 Off ch=1 n=57 v=72
88804 Off ch=1 n=83 v=55
88804 On ch=1 n=52 v=72
88804 On ch=1 n=73 v=105
88804 On ch=1 n=64 v=105
88804 Meta Lyric "mcderaob_tn-ll-I, "
88805 Off ch=1 n=83 v=55
88844 On ch=1 n=39 v=38
88864 On ch=1 n=57 v=72
88864 On ch=1 n=39 v=55
88864 On ch=1 n=51 v=55
88864 On ch=1 n=39 v=55
88884 Off ch=1 n=39 v=38
88894 Off ch=1 n=39 v=55
88894 Off ch=1 n=39 v=55
88924 On ch=1 n=39 v=38
88924 Off ch=1 n=57 v=72
88924 Off ch=1 n=51 v=55
88974 Off ch=1 n=39 v=38
88984 On ch=1 n=75 v=80
88984 Off ch=1 n=52 v=72
88984 Off ch=1 n=73 v=105
88984 Off ch=1 n=64 v=105
88984 On ch=1 n=57 v=72
88984 On ch=1 n=54 v=38
88984 On ch=1 n=58 v=38
88984 On ch=1 n=60 v=38
88984 On ch=1 n=64 v=38
88984 On ch=1 n=40 v=80
88984 On ch=1 n=61 v=80
88984 On ch=1 n=57 v=80
88984 On ch=1 n=57 v=80
88984 On ch=1 n=39 v=55
88984 Meta Lyric "- "
88984 On ch=1 n=51 v=55
88984 On ch=1 n=39 v=55
89004 On ch=1 n=39 v=38
89014 Off ch=1 n=64 v=38
89014 Off ch=1 n=60 v=38
89014 Off ch=1 n=58 v=38
89014 Off ch=1 n=54 v=38
89014 Off ch=1 n=40 v=80
89030 Off ch=1 n=39 v=55
89044 Off ch=1 n=39 v=38
89044 On ch=1 n=39 v=38
89044 On ch=1 n=55 v=38
89044 On ch=1 n=58 v=38
89044 On ch=1 n=60 v=38
89044 On ch=1 n=62 v=38
89044 On ch=1 n=66 v=38
89044 Off ch=1 n=61 v=80
89044 Off ch=1 n=57 v=80
89044 Off ch=1 n=39 v=55
89044 On ch=1 n=39 v=55
89059 Off ch=1 n=57 v=72
89077 Off ch=1 n=51 v=55
89081 Off ch=1 n=39 v=55
89084 Off ch=1 n=39 v=38
89104 Off ch=1 n=75 v=80
89104 On ch=1 n=81 v=80
89104 On ch=1 n=57 v=72
89104 Off ch=1 n=66 v=38
89104 Off ch=1 n=62 v=38
89104 Off ch=1 n=60 v=38
89104 Off ch=1 n=58 v=38
89104 Off ch=1 n=55 v=38
89104 On ch=1 n=54 v=38
89104 On ch=1 n=58 v=38
89104 On ch=1 n=60 v=38
89104 On ch=1 n=64 v=38
89104 On ch=1 n=40 v=80
89104 On ch=1 n=62 v=80
89104 On ch=1 n=62 v=80
89104 Off ch=1 n=57 v=80
89104 On ch=1 n=57 v=80
89104 On ch=1 n=57 v=80
89104 On ch=1 n=39 v=55
89104 On ch=1 n=50 v=55
89104 On ch=1 n=50 v=55
89104 On ch=1 n=39 v=55
89119 Off ch=1 n=81 v=80
89134 On ch=1 n=75 v=80
89134 Off ch=1 n=64 v=38
89134 Off ch=1 n=60 v=38
89134 Off ch=1 n=58 v=38
89134 Off ch=1 n=54 v=38
89134 Off ch=1 n=40 v=80
89134 On ch=1 n=40 v=80
89141 Off ch=1 n=62 v=80
89141 Off ch=1 n=57 v=80
89164 Off ch=1 n=75 v=80
89164 Off ch=1 n=57 v=72
89164 On ch=1 n=57 v=72
89164 On ch=1 n=50 v=38
89164 On ch=1 n=52 v=38
89164 On ch=1 n=59 v=38
89164 On ch=1 n=62 v=38
89164 On ch=1 n=64 v=80
89164 On ch=1 n=64 v=80
89164 On ch=1 n=61 v=80
89164 On ch=1 n=61 v=80
89164 Off ch=1 n=57 v=80
89164 On ch=1 n=57 v=80
89164 On ch=1 n=57 v=80
89164 Off ch=1 n=50 v=55
89164 Off ch=1 n=39 v=55
89179 Off ch=1 n=62 v=80
89179 Off ch=1 n=39 v=55
89179 Off ch=1 n=50 v=55
89194 On ch=1 n=81 v=80
89194 Off ch=1 n=62 v=38
89194 Off ch=1 n=59 v=38
89194 Off ch=1 n=52 v=38
89194 Off ch=1 n=50 v=38
89194 Off ch=1 n=40 v=80
89210 Off ch=1 n=61 v=80
89224 Off ch=1 n=57 v=72
89224 On ch=1 n=54 v=38
89224 On ch=1 n=58 v=38
89224 On ch=1 n=60 v=38
89224 On ch=1 n=64 v=38
89224 Off ch=1 n=64 v=80
89224 Off ch=1 n=64 v=80
89224 Off ch=1 n=61 v=80
89224 On ch=1 n=59 v=80
89224 On ch=1 n=59 v=80
89224 Off ch=1 n=57 v=80
89224 Off ch=1 n=57 v=80
89224 On ch=1 n=55 v=80
89224 On ch=1 n=51 v=55
89224 On ch=1 n=39 v=55
89239 Off ch=1 n=55 v=80
89239 On ch=1 n=57 v=80
89239 On ch=1 n=57 v=80
89241 Par ch=1 c=64 v=0
89241 Par ch=1 c=64 v=0
89241 Par ch=1 c=64 v=0
89241 Par ch=1 c=64 v=0
89254 Off ch=1 n=81 v=80
89254 On ch=1 n=82 v=80
89261 Off ch=1 n=57 v=80
89261 Off ch=1 n=39 v=55
89269 Off ch=1 n=57 v=80
89284 Off ch=1 n=82 v=80
89284 Off ch=1 n=64 v=38
89284 Off ch=1 n=60 v=38
89284 Off ch=1 n=58 v=38
89284 Off ch=1 n=54 v=38
89284 Off ch=1 n=59 v=80
89284 Off ch=1 n=51 v=55
89284 On ch=1 n=85 v=55
89284 On ch=1 n=29 v=38
89284 On ch=1 n=40 v=38
89284 On ch=1 n=59 v=38
89284 On ch=1 n=55 v=38
89284 On ch=1 n=57 v=38
89284 On ch=1 n=61 v=38
89284 On ch=1 n=65 v=38
89284 Meta Lyric "Piano "
89284 On ch=1 n=62 v=80
89284 On ch=1 n=62 v=80
89284 On ch=1 n=57 v=80
89284 On ch=1 n=57 v=80
89285 Off ch=1 n=61 v=80
89302 Off ch=1 n=59 v=80
89314 Off ch=1 n=57 v=80
89344 Meta Lyric "v "
89344 On ch=1 n=39 v=46
89344 On ch=1 n=57 v=72
89344 On ch=1 n=39 v=80
89344 Off ch=1 n=62 v=80
89344 Off ch=1 n=62 v=80
89344 On ch=1 n=61 v=80
89344 On ch=1 n=61 v=80
89344 Off ch=1 n=57 v=80
89344 On ch=1 n=57 v=80
89344 On ch=1 n=57 v=80
89344 On ch=1 n=39 v=55
89364 Off ch=1 n=59 v=38
89364 Off ch=1 n=40 v=38
89364 Off ch=1 n=29 v=38
89374 Off ch=1 n=39 v=46
89374 Off ch=1 n=39 v=80
89374 Off ch=1 n=57 v=80
89374 On ch=1 n=52 v=55
89374 On ch=1 n=40 v=55
89404 Off ch=1 n=85 v=55
89404 On ch=1 n=82 v=55
89404 On ch=1 n=39 v=46
89404 Off ch=1 n=57 v=72
89404 Off ch=1 n=65 v=38
89404 Off ch=1 n=61 v=38
89404 Off ch=1 n=57 v=38
89404 Off ch=1 n=55 v=38
89404 On ch=1 n=55 v=38
89404 On ch=1 n=56 v=38
89404 On ch=1 n=61 v=38
89404 On ch=1 n=64 v=38
89404 Off ch=1 n=61 v=80
89404 Off ch=1 n=61 v=80
89404 On ch=1 n=66 v=80
89404 On ch=1 n=66 v=80
89404 Off ch=1 n=57 v=80
89404 On ch=1 n=62 v=80
89404 On ch=1 n=62 v=80
89404 Off ch=1 n=39 v=55
89434 Off ch=1 n=40 v=55
89434 Off ch=1 n=52 v=55
89464 Meta Lyric "v "
89464 On ch=1 n=66 v=80
89464 On ch=1 n=66 v=80
89465 Off ch=1 n=66 v=80
89465 Off ch=1 n=62 v=80
89465 Off ch=1 n=64 v=80
89524 Off ch=1 n=66 v=80
89524 Off ch=1 n=66 v=80
89524 On ch=1 n=64 v=80
89524 On ch=1 n=64 v=80
89584 Off ch=1 n=64 v=80
89584 Off ch=1 n=64 v=80
89584 On ch=1 n=71 v=80
89584 On ch=1 n=71 v=80
89644 Off ch=1 n=82 v=55
89644 On ch=1 n=85 v=55
89644 Off ch=1 n=39 v=46
89644 On ch=1 n=39 v=46
89644 On ch=1 n=57 v=72
89644 On ch=1 n=39 v=80
89644 On ch=1 n=39 v=55
89666 Off ch=1 n=85 v=55
89674 Off ch=1 n=39 v=80
89674 On ch=1 n=52 v=55
89674 On ch=1 n=40 v=55
89689 On ch=1 n=86 v=55
89690 Off ch=1 n=39 v=55
89704 Off ch=1 n=86 v=55
89704 Off ch=1 n=39 v=46
89704 On ch=1 n=39 v=46
89704 Off ch=1 n=64 v=38
89704 Off ch=1 n=61 v=38
89704 Off ch=1 n=56 v=38
89704 Off ch=1 n=55 v=38
89704 On ch=1 n=40 v=38
89704 On ch=1 n=61 v=38
89704 On ch=1 n=66 v=38
89704 On ch=1 n=71 v=38
89704 On ch=1 n=39 v=80
89704 Off ch=1 n=71 v=80
89704 Off ch=1 n=71 v=80
89704 On ch=1 n=72 v=80
89704 Off ch=1 n=66 v=80
89704 Off ch=1 n=66 v=80
89704 On ch=1 n=68 v=80
89704 On ch=1 n=68 v=80
89704 Off ch=1 n=62 v=80
89704 Off ch=1 n=62 v=80
89704 On ch=1 n=64 v=80
89704 On ch=1 n=64 v=80
89704 On ch=1 n=39 v=55
89719 On ch=1 n=87 v=55
89719 Off ch=1 n=57 v=72
89720 Off ch=1 n=40 v=55
89734 Off ch=1 n=39 v=80
89741 Off ch=1 n=39 v=55
89764 Off ch=1 n=39 v=46
89764 On ch=1 n=57 v=72
89767 Off ch=1 n=52 v=55
89779 Off ch=1 n=87 v=55
89779 On ch=1 n=81 v=55
89794 On ch=1 n=40 v=55
89824 Off ch=1 n=57 v=72
89824 On ch=1 n=57 v=72
89824 Off ch=1 n=71 v=38
89824 Off ch=1 n=66 v=38
89824 Off ch=1 n=61 v=38
89824 Off ch=1 n=40 v=38
89824 On ch=1 n=67 v=38
89824 On ch=1 n=72 v=38
89824 On ch=1 n=39 v=80
89824 Off ch=1 n=72 v=80
89824 Off ch=1 n=68 v=80
89824 Off ch=1 n=64 v=80
89824 Off ch=1 n=64 v=80
89824 On ch=1 n=65 v=80
89824 On ch=1 n=65 v=80
89824 On ch=1 n=39 v=55
89839 Off ch=1 n=81 v=55
89839 On ch=1 n=84 v=55
89854 Off ch=1 n=39 v=80
89869 Off ch=1 n=84 v=55
89869 On ch=1 n=82 v=55
89869 Off ch=1 n=40 v=55
89884 Off ch=1 n=57 v=72
89884 Off ch=1 n=68 v=80
89884 On ch=1 n=70 v=80
89884 On ch=1 n=70 v=80
89884 Meta Lyric "r "
89884 Off ch=1 n=39 v=55
89899 Off ch=1 n=82 v=55
89899 On ch=1 n=81 v=55
89914 On ch=1 n=52 v=55
89914 On ch=1 n=40 v=55
89929 Off ch=1 n=81 v=55
89944 Off ch=1 n=72 v=38
89944 Off ch=1 n=67 v=38
89944 Off ch=1 n=70 v=80
89944 Off ch=1 n=65 v=80
89944 Off ch=1 n=40 v=55
89944 Off ch=1 n=52 v=55
89944 On ch=1 n=79 v=55
89944 On ch=1 n=57 v=72
89944 On ch=1 n=74 v=80
89944 On ch=1 n=74 v=80
89944 On ch=1 n=69 v=80
89944 On ch=1 n=69 v=80
89962 Off ch=1 n=70 v=80
90004 On ch=1 n=39 v=80
90004 Off ch=1 n=57 v=72
90004 On ch=1 n=57 v=72
90004 On ch=1 n=39 v=80
90004 Meta Lyric "v "
90004 On ch=1 n=39 v=55
90004 On ch=1 n=39 v=55
90004 On ch=1 n=40 v=55
90034 Off ch=1 n=39 v=80
90064 Off ch=1 n=79 v=55
90064 On ch=1 n=81 v=55
90064 On ch=1 n=64 v=80
90064 Off ch=1 n=39 v=80
90064 On ch=1 n=39 v=80
90064 Meta Lyric "v "
90064 Off ch=1 n=57 v=72
90064 Off ch=1 n=74 v=38
90064 Off ch=1 n=70 v=38
90064 Off ch=1 n=65 v=38
90064 Off ch=1 n=61 v=38
90064 On ch=1 n=59 v=38
90064 On ch=1 n=62 v=38
90064 On ch=1 n=63 v=38
90064 On ch=1 n=39 v=80
90064 Off ch=1 n=74 v=80
90064 Off ch=1 n=74 v=80
90064 Off ch=1 n=69 v=80
90064 Off ch=1 n=69 v=80
90064 Off ch=1 n=65 v=80
90064 Off ch=1 n=39 v=55
90064 Off ch=1 n=40 v=55
90079 Off ch=1 n=64 v=80
90094 On ch=1 n=64 v=80
90094 Off ch=1 n=63 v=38
90094 Off ch=1 n=62 v=38
90094 Off ch=1 n=59 v=38
90109 Off ch=1 n=64 v=80
90124 On ch=1 n=62 v=80
90124 Off ch=1 n=39 v=80
90124 On ch=1 n=51 v=38
90124 On ch=1 n=55 v=38
90124 On ch=1 n=60 v=38
90124 On ch=1 n=62 v=38
90124 Off ch=1 n=39 v=80
90124 Off ch=1 n=39 v=55
90124 On ch=1 n=39 v=55
90124 On ch=1 n=39 v=55
90124 On ch=1 n=40 v=55
90127 Par ch=1 c=64 v=0
90127 Par ch=1 c=64 v=0
90127 Par ch=1 c=64 v=0
90127 Par ch=1 c=64 v=0
90154 Off ch=1 n=62 v=80
90154 Off ch=1 n=62 v=38
90154 Off ch=1 n=60 v=38
90154 Off ch=1 n=55 v=38
90154 Off ch=1 n=51 v=38
90184 Off ch=1 n=81 v=55
90184 On ch=1 n=74 v=55
90184 On ch=1 n=74 v=55
90184 On ch=1 n=64 v=80
90184 On ch=1 n=39 v=80
90184 On ch=1 n=62 v=38
90184 On ch=1 n=64 v=38
90184 On ch=1 n=39 v=80
90184 On ch=1 n=57 v=80
90184 Off ch=1 n=39 v=55
90184 Off ch=1 n=39 v=55
90184 Off ch=1 n=40 v=55
90214 Off ch=1 n=64 v=80
90224 On ch=1 n=68 v=80
90244 Off ch=1 n=74 v=55
90244 Off ch=1 n=39 v=80
90244 On ch=1 n=39 v=68
90244 Off ch=1 n=39 v=80
90244 On ch=1 n=55 v=80
90244 On ch=1 n=39 v=55
90244 On ch=1 n=39 v=55
90244 On ch=1 n=52 v=55
90244 On ch=1 n=40 v=55
90274 Off ch=1 n=39 v=55
90290 Off ch=1 n=40 v=55
90304 Off ch=1 n=74 v=55
90304 On ch=1 n=74 v=55
90304 Off ch=1 n=39 v=68
90304 Off ch=1 n=68 v=80
90304 Off ch=1 n=64 v=38
90304 Off ch=1 n=62 v=38
90304 On ch=1 n=53 v=38
90304 On ch=1 n=57 v=38
90304 On ch=1 n=60 v=38
90304 On ch=1 n=65 v=38
90304 On ch=1 n=58 v=80
90304 Off ch=1 n=57 v=80
90304 On ch=1 n=57 v=80
90304 Off ch=1 n=39 v=55
90304 Meta Lyric "y "
90319 Off ch=1 n=52 v=55
90334 On ch=1 n=59 v=105
90341 Off ch=1 n=58 v=80
90364 Off ch=1 n=74 v=55
90364 On ch=1 n=79 v=55
90364 Off ch=1 n=65 v=38
90364 Off ch=1 n=60 v=38
90364 Off ch=1 n=57 v=38
90364 Off ch=1 n=53 v=38
90364 Off ch=1 n=55 v=80
90364 On ch=1 n=39 v=80
90364 On ch=1 n=39 v=55
90364 On ch=1 n=52 v=55
90364 On ch=1 n=40 v=55
90394 On ch=1 n=58 v=50
90401 Off ch=1 n=40 v=55
90409 Off ch=1 n=58 v=50
90409 Off ch=1 n=59 v=105
90424 Off ch=1 n=79 v=55
90424 Off ch=1 n=39 v=80
90424 Off ch=1 n=57 v=80
90424 Off ch=1 n=39 v=55
90424 Off ch=1 n=52 v=55
90424 On ch=1 n=82 v=55
90424 On ch=1 n=39 v=55
90424 On ch=1 n=66 v=80
90424 On ch=1 n=59 v=80
90424 On ch=1 n=55 v=80
90424 On ch=1 n=48 v=55
90424 On ch=1 n=40 v=55
90424 On ch=1 n=51 v=55
90424 On ch=1 n=38 v=55
90454 Off ch=1 n=39 v=55
90454 Off ch=1 n=40 v=55
90454 Off ch=1 n=38 v=55
90464 Off ch=1 n=66 v=80
90464 On ch=1 n=66 v=80
90484 On ch=1 n=81 v=55
90484 On ch=1 n=58 v=80
90484 Meta Lyric "#- "
90484 On ch=1 n=40 v=55
90484 Off ch=1 n=51 v=55
90499 Off ch=1 n=82 v=55
90514 On ch=1 n=39 v=55
90514 On ch=1 n=57 v=72
90514 Off ch=1 n=40 v=55
90544 Off ch=1 n=81 v=55
90544 On ch=1 n=81 v=55
90544 On ch=1 n=51 v=55
90544 On ch=1 n=40 v=55
90559 Off ch=1 n=81 v=55
90574 On ch=1 n=84 v=55
90574 Off ch=1 n=39 v=55
90574 On ch=1 n=39 v=55
90574 Off ch=1 n=57 v=72
90574 On ch=1 n=57 v=72
90584 Off ch=1 n=66 v=80
90584 On ch=1 n=70 v=80
90590 Off ch=1 n=40 v=55
90604 Off ch=1 n=84 v=55
90604 On ch=1 n=86 v=55
90604 On ch=1 n=40 v=55
90634 Off ch=1 n=39 v=55
90634 Off ch=1 n=57 v=72
90634 Off ch=1 n=40 v=55
90637 Off ch=1 n=51 v=55
90664 Off ch=1 n=86 v=55
90664 On ch=1 n=79 v=55
90664 Off ch=1 n=58 v=80
90664 On ch=1 n=58 v=80
90664 Meta Lyric "r- "
90664 Off ch=1 n=55 v=80
90664 Off ch=1 n=59 v=80
90664 Off ch=1 n=48 v=55
90664 On ch=1 n=50 v=55
90664 Meta Lyric ": "
90664 On ch=1 n=51 v=55
90664 On ch=1 n=40 v=55
90694 On ch=1 n=39 v=55
90694 On ch=1 n=57 v=72
90698 Par ch=1 c=64 v=0
90698 Par ch=1 c=64 v=0
90698 Par ch=1 c=64 v=0
90698 Par ch=1 c=64 v=0
90710 Off ch=1 n=40 v=55
90724 Off ch=1 n=79 v=55
90724 On ch=1 n=82 v=55
90724 Off ch=1 n=70 v=80
90724 On ch=1 n=68 v=80
90724 On ch=1 n=60 v=80
90724 On ch=1 n=55 v=80
90724 On ch=1 n=59 v=80
90724 On ch=1 n=40 v=55
90724 Off ch=1 n=51 v=55
90724 On ch=1 n=51 v=55
90724 On ch=1 n=40 v=55
90754 Off ch=1 n=40 v=55
90761 Off ch=1 n=40 v=55
90764 On ch=1 n=66 v=80
90769 Off ch=1 n=82 v=55
90769 On ch=1 n=81 v=55
90769 Off ch=1 n=57 v=72
90774 Off ch=1 n=68 v=80
90784 Off ch=1 n=81 v=55
90784 Off ch=1 n=50 v=55
90784 On ch=1 n=48 v=55
90784 Off ch=1 n=51 v=55
90799 On ch=1 n=79 v=55
90814 Off ch=1 n=39 v=55
90829 Off ch=1 n=79 v=55
90829 On ch=1 n=77 v=55
90844 Off ch=1 n=66 v=80
90844 On ch=1 n=66 v=80
90844 On ch=1 n=57 v=72
90844 On ch=1 n=58 v=80
90844 Off ch=1 n=59 v=80
90844 Off ch=1 n=55 v=80
90844 Off ch=1 n=60 v=80
90844 On ch=1 n=55 v=80
90844 Off ch=1 n=48 v=55
90859 Off ch=1 n=77 v=55
90859 On ch=1 n=79 v=55
90898 Off ch=1 n=58 v=80
90904 Off ch=1 n=57 v=72
90904 On ch=1 n=39 v=55
90904 On ch=1 n=57 v=72
90904 On ch=1 n=39 v=63
90904 On ch=1 n=84 v=80
90904 On ch=1 n=67 v=80
90904 On ch=1 n=43 v=55
90904 On ch=1 n=40 v=55
90904 Meta Lyric "O."
90904 On ch=1 n=50 v=89
90904 On ch=1 n=40 v=89
90964 Off ch=1 n=39 v=55
90964 Off ch=1 n=57 v=72
90964 Off ch=1 n=58 v=80
90964 Off ch=1 n=40 v=55
90964 Off ch=1 n=43 v=55
90964 On ch=1 n=50 v=55
90979 Off ch=1 n=40 v=89
90979 Off ch=1 n=50 v=89
90984 Off ch=1 n=66 v=80
91024 Off ch=1 n=79 v=55
91024 On ch=1 n=82 v=50
91024 On ch=1 n=39 v=55
91024 On ch=1 n=43 v=80
91024 On ch=1 n=43 v=80
91024 On ch=1 n=57 v=80
91024 On ch=1 n=43 v=80
91024 Meta Lyric "( "
91024 Off ch=1 n=84 v=80
91024 On ch=1 n=71 v=89
91024 Meta Lyric "r( "
91024 Off ch=1 n=67 v=80
91024 On ch=1 n=71 v=89
91024 Off ch=1 n=55 v=80
91024 On ch=1 n=40 v=80
91024 Off ch=1 n=50 v=55
91024 On ch=1 n=36 v=55
91024 On ch=1 n=43 v=55
91024 On ch=1 n=52 v=89
91024 On ch=1 n=40 v=89
91042 Off ch=1 n=71 v=89
91054 Off ch=1 n=82 v=50
91054 On ch=1 n=84 v=105
91054 Off ch=1 n=39 v=63
91054 On ch=1 n=71 v=89
91054 Meta Lyric "ni,. "
91054 Off ch=1 n=71 v=89
91054 On ch=1 n=71 v=89
91069 Off ch=1 n=71 v=89
91070 Off ch=1 n=40 v=89
91082 Off ch=1 n=71 v=89
91084 Off ch=1 n=84 v=105
91084 On ch=1 n=86 v=55
91084 Off ch=1 n=39 v=55
91084 On ch=1 n=39 v=55
91084 Off ch=1 n=43 v=80
91084 Off ch=1 n=57 v=80
91084 On ch=1 n=39 v=63
91084 On ch=1 n=43 v=63
91084 On ch=1 n=43 v=63
91084 On ch=1 n=31 v=63
91084 On ch=1 n=66 v=89
91084 On ch=1 n=70 v=89
91084 Off ch=1 n=43 v=55
91084 Off ch=1 n=36 v=55
91084 On ch=1 n=40 v=55
91099 On ch=1 n=65 v=89
91099 On ch=1 n=69 v=89
91099 On ch=1 n=71 v=89
91114 Off ch=1 n=39 v=55
91114 Off ch=1 n=70 v=89
91114 Off ch=1 n=66 v=89
91117 Off ch=1 n=52 v=89
91129 Off ch=1 n=69 v=89
91129 Off ch=1 n=65 v=89
91144 Off ch=1 n=43 v=80
91144 Off ch=1 n=43 v=80
91144 On ch=1 n=57 v=80
91144 Meta Lyric "ihCym "
91144 On ch=1 n=71 v=89
91144 Off ch=1 n=40 v=55
91144 On ch=1 n=50 v=55
91144 On ch=1 n=52 v=89
91144 On ch=1 n=40 v=89
91159 On ch=1 n=67 v=89
91159 On ch=1 n=71 v=89
91162 Off ch=1 n=71 v=89
91174 On ch=1 n=87 v=55
91174 On ch=1 n=71 v=89
91177 Off ch=1 n=43 v=63
91177 Off ch=1 n=71 v=89
91177 Off ch=1 n=67 v=89
91181 Off ch=1 n=86 v=55
91189 Off ch=1 n=71 v=89
91189 On ch=1 n=67 v=89
91189 On ch=1 n=71 v=89
91204 Off ch=1 n=87 v=55
91204 On ch=1 n=86 v=55
91204 On ch=1 n=39 v=55
91204 Off ch=1 n=57 v=80
91204 On ch=1 n=50 v=63
91204 Meta Lyric "( "
91204 On ch=1 n=70 v=89
91204 On ch=1 n=72 v=89
91204 Off ch=1 n=71 v=89
91204 Off ch=1 n=67 v=89
91204 On ch=1 n=52 v=55
91204 On ch=1 n=40 v=55
91219 Off ch=1 n=71 v=89
91219 On ch=1 n=69 v=89
91219 On ch=1 n=72 v=89
91219 Off ch=1 n=50 v=55
91219 Off ch=1 n=40 v=89
91219 Off ch=1 n=52 v=89
91234 Off ch=1 n=39 v=55
91264 Off ch=1 n=39 v=63
91264 On ch=1 n=39 v=63
91264 On ch=1 n=52 v=63
91264 Meta Lyric "r "
91264 Off ch=1 n=72 v=89
91264 Off ch=1 n=70 v=89
91264 On ch=1 n=71 v=89
91264 Off ch=1 n=40 v=80
91264 On ch=1 n=55 v=80
91264 On ch=1 n=54 v=80
91264 Meta Lyric "r "
91264 On ch=1 n=50 v=55
91264 On ch=1 n=50 v=89
91264 On ch=1 n=40 v=89
91271 Off ch=1 n=31 v=63
91271 Off ch=1 n=43 v=63
91279 Off ch=1 n=72 v=89
91279 Off ch=1 n=69 v=89
91279 On ch=1 n=67 v=89
91279 On ch=1 n=71 v=89
91279 Off ch=1 n=40 v=55
91279 Off ch=1 n=52 v=55
91294 Off ch=1 n=86 v=55
91294 On ch=1 n=85 v=55
91294 Off ch=1 n=71 v=89
91297 Off ch=1 n=50 v=63
91324 Off ch=1 n=85 v=55
91324 On ch=1 n=82 v=55
91324 On ch=1 n=57 v=80
91324 On ch=1 n=50 v=78
91324 On ch=1 n=66 v=89
91324 On ch=1 n=69 v=89
91324 Off ch=1 n=54 v=80
91324 Off ch=1 n=55 v=80
91324 On ch=1 n=50 v=80
91324 On ch=1 n=50 v=80
91324 On ch=1 n=49 v=55
91324 On ch=1 n=40 v=55
91339 Off ch=1 n=69 v=89
91339 On ch=1 n=71 v=89
91339 Off ch=1 n=71 v=89
91339 Off ch=1 n=67 v=89
91339 On ch=1 n=69 v=89
91339 On ch=1 n=66 v=89
91339 Off ch=1 n=50 v=55
91339 Off ch=1 n=50 v=89
91354 On ch=1 n=71 v=89
91357 Off ch=1 n=52 v=63
91357 Off ch=1 n=39 v=63
91357 Off ch=1 n=69 v=89
91369 Off ch=1 n=71 v=89
91384 Off ch=1 n=57 v=80
91384 Off ch=1 n=50 v=78
91384 Off ch=1 n=66 v=89
91384 Off ch=1 n=71 v=89
91384 Off ch=1 n=66 v=89
91384 Off ch=1 n=50 v=80
91384 Off ch=1 n=50 v=80
91384 Off ch=1 n=40 v=55
91384 Off ch=1 n=49 v=55
91384 Off ch=1 n=40 v=89
91384 Meta Lyric "r "
91384 On ch=1 n=39 v=55
91384 On ch=1 n=43 v=105
91384 On ch=1 n=55 v=55
91384 On ch=1 n=52 v=63
91384 On ch=1 n=39 v=63
91384 On ch=1 n=64 v=89
91384 On ch=1 n=67 v=89
91384 On ch=1 n=64 v=89
91384 On ch=1 n=67 v=89
91384 On ch=1 n=50 v=80
91384 On ch=1 n=52 v=55
91384 On ch=1 n=39 v=55
91384 On ch=1 n=51 v=89
91384 On ch=1 n=40 v=89
91385 Off ch=1 n=39 v=63
91414 Off ch=1 n=82 v=55
91414 On ch=1 n=85 v=55
91414 Off ch=1 n=51 v=89
91429 Off ch=1 n=85 v=55
91436 Par ch=1 c=64 v=0
91436 Par ch=1 c=64 v=0
91436 Par ch=1 c=64 v=0
91436 Par ch=1 c=64 v=0
91444 On ch=1 n=86 v=55
91444 Off ch=1 n=39 v=55
91444 On ch=1 n=43 v=55
91444 On ch=1 n=41 v=80
91444 Off ch=1 n=55 v=55
91444 Off ch=1 n=40 v=89
91459 Off ch=1 n=39 v=63
91459 Off ch=1 n=39 v=55
91474 On ch=1 n=43 v=72
91504 Off ch=1 n=86 v=55
91504 On ch=1 n=79 v=55
91504 On ch=1 n=39 v=55
91504 Off ch=1 n=43 v=105
91504 Off ch=1 n=52 v=63
91504 On ch=1 n=43 v=63
91504 Off ch=1 n=67 v=89
91504 Off ch=1 n=64 v=89
91504 On ch=1 n=66 v=89
91504 On ch=1 n=69 v=89
91504 Off ch=1 n=67 v=89
91504 Off ch=1 n=64 v=89
91504 On ch=1 n=66 v=89
91504 On ch=1 n=69 v=89
91504 Off ch=1 n=50 v=80
91504 On ch=1 n=53 v=80
91504 On ch=1 n=55 v=80
91504 Off ch=1 n=52 v=55
91504 On ch=1 n=36 v=80
91504 On ch=1 n=43 v=80
91504 On ch=1 n=65 v=80
91504 Meta Lyric "7 "
91504 On ch=1 n=51 v=89
91504 On ch=1 n=40 v=89
91506 Par ch=1 c=64 v=0
91506 Par ch=1 c=64 v=0
91506 Par ch=1 c=64 v=0
91506 Par ch=1 c=64 v=0
91519 Off ch=1 n=43 v=55
91534 Off ch=1 n=43 v=72
91534 On ch=1 n=55 v=72
91534 Off ch=1 n=55 v=80
91534 Off ch=1 n=53 v=80
91534 Off ch=1 n=43 v=80
91534 Off ch=1 n=36 v=80
91534 Off ch=1 n=40 v=89
91564 Off ch=1 n=79 v=55
91564 On ch=1 n=87 v=55
91564 Off ch=1 n=39 v=55
91564 Off ch=1 n=43 v=63
91564 On ch=1 n=50 v=63
91564 On ch=1 n=38 v=63
91564 Off ch=1 n=69 v=89
91564 Off ch=1 n=66 v=89
91564 On ch=1 n=66 v=89
91564 On ch=1 n=69 v=89
91564 Meta Lyric "- "
91564 On ch=1 n=50 v=80
91564 Off ch=1 n=51 v=89
91594 Off ch=1 n=55 v=72
91624 Off ch=1 n=87 v=55
91624 On ch=1 n=86 v=55
91624 On ch=1 n=39 v=55
91624 On ch=1 n=52 v=63
91624 On ch=1 n=41 v=63
91624 Off ch=1 n=50 v=80
91624 On ch=1 n=52 v=80
91624 Off ch=1 n=65 v=80
91624 On ch=1 n=50 v=80
91624 On ch=1 n=39 v=80
91624 On ch=1 n=51 v=89
91624 On ch=1 n=40 v=89
91639 Off ch=1 n=38 v=63
91639 Off ch=1 n=50 v=63
91654 Off ch=1 n=86 v=55
91654 On ch=1 n=55 v=72
91654 Off ch=1 n=40 v=89
91684 On ch=1 n=84 v=55
91684 Off ch=1 n=39 v=55
91684 Off ch=1 n=69 v=89
91684 Off ch=1 n=66 v=89
91684 On ch=1 n=67 v=89
91684 On ch=1 n=71 v=89
91684 Off ch=1 n=69 v=89
91684 Off ch=1 n=66 v=89
91684 On ch=1 n=67 v=89
91684 On ch=1 n=71 v=89
91684 Off ch=1 n=52 v=80
91684 On ch=1 n=50 v=80
91684 On ch=1 n=52 v=80
91684 Off ch=1 n=51 v=89
91699 Off ch=1 n=52 v=63
91699 Off ch=1 n=71 v=89
91699 Off ch=1 n=67 v=89
91699 Off ch=1 n=71 v=89
91699 Off ch=1 n=67 v=89
91699 Off ch=1 n=39 v=80
91699 Off ch=1 n=50 v=80
91714 Off ch=1 n=55 v=72
91714 On ch=1 n=55 v=72
91714 On ch=1 n=67 v=89
91714 On ch=1 n=71 v=89
91714 On ch=1 n=66 v=89
91714 On ch=1 n=69 v=89
91744 Off ch=1 n=84 v=55
91744 On ch=1 n=82 v=55
91744 On ch=1 n=39 v=55
91744 Off ch=1 n=71 v=89
91744 Off ch=1 n=67 v=89
91744 On ch=1 n=66 v=89
91744 On ch=1 n=69 v=89
91744 Off ch=1 n=50 v=80
91744 On ch=1 n=49 v=80
91744 On ch=1 n=50 v=80
91744 On ch=1 n=39 v=80
91744 On ch=1 n=51 v=89
91744 On ch=1 n=40 v=89
91759 Off ch=1 n=52 v=80
91759 Off ch=1 n=51 v=89
91774 Off ch=1 n=55 v=72
91774 Off ch=1 n=69 v=89
91774 Off ch=1 n=66 v=89
91774 Off ch=1 n=40 v=89
91804 Off ch=1 n=82 v=55
91804 On ch=1 n=81 v=55
91804 Off ch=1 n=39 v=55
91804 Off ch=1 n=69 v=89
91804 Off ch=1 n=66 v=89
91804 Off ch=1 n=49 v=80
91804 On ch=1 n=50 v=80
91804 On ch=1 n=49 v=80
91819 Off ch=1 n=39 v=80
91819 Off ch=1 n=50 v=80
91864 Off ch=1 n=81 v=55
91864 Off ch=1 n=41 v=80
91864 Off ch=1 n=41 v=63
91864 Off ch=1 n=50 v=80
91864 Off ch=1 n=49 v=80
91864 On ch=1 n=79 v=55
91864 On ch=1 n=43 v=55
91864 Meta Lyric "A "
91864 On ch=1 n=42 v=80
91864 On ch=1 n=42 v=80
91864 On ch=1 n=55 v=72
91864 On ch=1 n=43 v=72
91864 On ch=1 n=50 v=63
91864 On ch=1 n=67 v=89
91864 On ch=1 n=71 v=89
91864 On ch=1 n=67 v=89
91864 On ch=1 n=71 v=89
91864 On ch=1 n=54 v=80
91864 On ch=1 n=56 v=80
91864 Meta Lyric "t "
91864 On ch=1 n=36 v=80
91864 On ch=1 n=43 v=80
91864 On ch=1 n=39 v=80
91865 Off ch=1 n=43 v=105
91865 Off ch=1 n=52 v=80
91894 Off ch=1 n=56 v=80
91894 Off ch=1 n=54 v=80
91894 Off ch=1 n=39 v=80
91909 Off ch=1 n=79 v=55
91924 Off ch=1 n=43 v=55
91924 Off ch=1 n=42 v=80
91924 Off ch=1 n=55 v=72
91924 On ch=1 n=52 v=63
91924 On ch=1 n=40 v=63
91924 Off ch=1 n=71 v=89
91924 Off ch=1 n=67 v=89
91924 On ch=1 n=68 v=89
91924 On ch=1 n=72 v=89
91924 Off ch=1 n=71 v=89
91924 Off ch=1 n=67 v=89
91924 On ch=1 n=69 v=89
91924 On ch=1 n=72 v=89
91924 On ch=1 n=50 v=80
91924 Off ch=1 n=43 v=80
91924 Off ch=1 n=36 v=80
91924 On ch=1 n=50 v=80
91939 Off ch=1 n=50 v=63
91954 On ch=1 n=75 v=55
91954 On ch=1 n=79 v=55
91984 On ch=1 n=39 v=55
91984 Off ch=1 n=42 v=80
91984 Off ch=1 n=43 v=72
91984 On ch=1 n=55 v=72
91984 On ch=1 n=50 v=63
91984 On ch=1 n=52 v=80
91984 On ch=1 n=52 v=80
91984 On ch=1 n=39 v=80
91984 On ch=1 n=40 v=89
91984 On ch=1 n=52 v=89
91999 Off ch=1 n=40 v=63
91999 Off ch=1 n=52 v=63
91999 Off ch=1 n=50 v=80
91999 Off ch=1 n=50 v=80
92014 Off ch=1 n=40 v=89
92021 Off ch=1 n=50 v=63
92044 Off ch=1 n=55 v=72
92044 On ch=1 n=49 v=63
92044 On ch=1 n=40 v=63
92044 Off ch=1 n=72 v=89
92044 Off ch=1 n=68 v=89
92044 On ch=1 n=71 v=89
92044 On ch=1 n=74 v=89
92044 Off ch=1 n=72 v=89
92044 Off ch=1 n=69 v=89
92044 On ch=1 n=71 v=89
92044 On ch=1 n=74 v=89
92044 On ch=1 n=69 v=89
92044 On ch=1 n=72 v=89
92044 On ch=1 n=50 v=80
92044 On ch=1 n=50 v=80
92044 Off ch=1 n=52 v=89
92059 Off ch=1 n=52 v=80
92059 Off ch=1 n=39 v=80
92059 Off ch=1 n=52 v=80
92074 Off ch=1 n=79 v=55
92074 Off ch=1 n=75 v=55
92074 On ch=1 n=77 v=55
92104 Off ch=1 n=77 v=55
92104 On ch=1 n=75 v=55
92104 Off ch=1 n=39 v=55
92104 On ch=1 n=55 v=72
92104 On ch=1 n=50 v=63
92104 On ch=1 n=49 v=80
92104 On ch=1 n=49 v=80
92104 On ch=1 n=39 v=80
92104 On ch=1 n=40 v=89
92104 On ch=1 n=52 v=89
92119 Off ch=1 n=40 v=63
92119 Off ch=1 n=49 v=63
92119 Off ch=1 n=50 v=80
92119 Off ch=1 n=50 v=80
92134 Off ch=1 n=75 v=55
92134 On ch=1 n=75 v=55
92134 Off ch=1 n=40 v=89
92141 Off ch=1 n=39 v=80
92164 On ch=1 n=39 v=55
92164 Off ch=1 n=55 v=72
92164 Off ch=1 n=50 v=63
92164 On ch=1 n=50 v=63
92164 On ch=1 n=53 v=63
92164 On ch=1 n=40 v=63
92164 Off ch=1 n=71 v=89
92164 On ch=1 n=67 v=89
92164 On ch=1 n=71 v=89
92164 Off ch=1 n=72 v=89
92164 Off ch=1 n=69 v=89
92164 Off ch=1 n=74 v=89
92164 Off ch=1 n=71 v=89
92164 On ch=1 n=67 v=89
92164 On ch=1 n=71 v=89
92164 On ch=1 n=50 v=80
92164 On ch=1 n=50 v=80
92164 Off ch=1 n=52 v=89
92179 Off ch=1 n=49 v=80
92179 Off ch=1 n=49 v=80
92194 Off ch=1 n=75 v=55
92194 On ch=1 n=74 v=55
92194 Off ch=1 n=39 v=55
92194 Off ch=1 n=71 v=89
92194 Off ch=1 n=67 v=89
92194 Off ch=1 n=74 v=89
92194 Off ch=1 n=71 v=89
92194 Off ch=1 n=67 v=89
92224 Off ch=1 n=74 v=55
92224 On ch=1 n=55 v=72
92224 Off ch=1 n=40 v=63
92224 Off ch=1 n=53 v=63
92224 Off ch=1 n=50 v=63
92224 On ch=1 n=43 v=63
92224 On ch=1 n=66 v=89
92224 On ch=1 n=69 v=89
92224 On ch=1 n=66 v=89
92224 On ch=1 n=69 v=89
92224 On ch=1 n=52 v=80
92224 On ch=1 n=52 v=80
92224 On ch=1 n=39 v=80
92224 On ch=1 n=40 v=89
92224 On ch=1 n=52 v=89
92239 Off ch=1 n=50 v=80
92239 Off ch=1 n=50 v=80
92254 Off ch=1 n=52 v=80
92254 Off ch=1 n=40 v=89
92261 Off ch=1 n=39 v=80
92284 On ch=1 n=39 v=55
92284 On ch=1 n=42 v=80
92284 Off ch=1 n=55 v=72
92284 On ch=1 n=43 v=72
92284 Off ch=1 n=43 v=63
92284 On ch=1 n=54 v=80
92284 On ch=1 n=56 v=80
92284 Off ch=1 n=52 v=80
92284 On ch=1 n=36 v=80
92284 On ch=1 n=43 v=80
92284 Off ch=1 n=52 v=89
92314 Off ch=1 n=56 v=80
92314 Off ch=1 n=54 v=80
92344 Off ch=1 n=39 v=55
92344 Off ch=1 n=43 v=72
92344 Off ch=1 n=69 v=89
92344 Off ch=1 n=66 v=89
92344 Off ch=1 n=69 v=89
92344 Off ch=1 n=66 v=89
92344 Off ch=1 n=43 v=80
92344 Off ch=1 n=36 v=80
92344 On ch=1 n=67 v=80
92344 Meta Lyric "$A "
92344 On ch=1 n=50 v=80
92344 On ch=1 n=43 v=80
92344 On ch=1 n=55 v=72
92344 Meta Lyric "Pio "
92344 On ch=1 n=50 v=63
92344 On ch=1 n=40 v=63
92344 On ch=1 n=66 v=89
92344 On ch=1 n=69 v=89
92344 On ch=1 n=65 v=89
92344 On ch=1 n=69 v=89
92344 On ch=1 n=50 v=80
92344 On ch=1 n=50 v=80
92344 On ch=1 n=39 v=80
92344 On ch=1 n=51 v=89
92344 On ch=1 n=39 v=89
92345 Off ch=1 n=43 v=80
92345 Off ch=1 n=40 v=89
92374 Off ch=1 n=39 v=89
92381 Off ch=1 n=40 v=63
92404 On ch=1 n=52 v=80
92404 Off ch=1 n=42 v=80
92404 Off ch=1 n=43 v=80
92404 On ch=1 n=52 v=63
92404 Off ch=1 n=50 v=80
92404 On ch=1 n=52 v=80
92404 On ch=1 n=52 v=80
92404 Off ch=1 n=51 v=89
92419 Off ch=1 n=50 v=80
92419 Off ch=1 n=50 v=63
92419 Off ch=1 n=39 v=80
92419 Off ch=1 n=50 v=80
92422 Off ch=1 n=55 v=72
92464 On ch=1 n=74 v=89
92464 Meta Lyric "A "
92464 Off ch=1 n=67 v=80
92464 On ch=1 n=74 v=89
92464 On ch=1 n=40 v=80
92464 On ch=1 n=71 v=80
92464 On ch=1 n=55 v=72
92464 On ch=1 n=50 v=63
92464 On ch=1 n=40 v=63
92464 Off ch=1 n=52 v=80
92464 On ch=1 n=50 v=80
92464 On ch=1 n=50 v=80
92464 On ch=1 n=39 v=80
92464 On ch=1 n=51 v=89
92464 On ch=1 n=39 v=89
92465 Par ch=1 c=64 v=0
92465 Par ch=1 c=64 v=0
92465 Par ch=1 c=64 v=0
92465 Par ch=1 c=64 v=0
92465 Par ch=1 c=64 v=127
92465 Par ch=1 c=64 v=127
92465 Par ch=1 c=64 v=127
92465 Par ch=1 c=64 v=127
92479 Off ch=1 n=52 v=80
92479 Off ch=1 n=52 v=80
92494 Off ch=1 n=74 v=89
92494 On ch=1 n=69 v=105
92494 Off ch=1 n=74 v=89
92494 On ch=1 n=69 v=89
92494 Off ch=1 n=71 v=80
92494 On ch=1 n=66 v=80
92494 Off ch=1 n=69 v=89
92494 Off ch=1 n=65 v=89
92494 Off ch=1 n=39 v=89
92501 Off ch=1 n=40 v=63
92501 Off ch=1 n=52 v=63
92501 Off ch=1 n=39 v=80
92509 Off ch=1 n=66 v=80
92524 Off ch=1 n=69 v=105
92524 On ch=1 n=74 v=78
92524 Off ch=1 n=69 v=89
92524 On ch=1 n=74 v=89
92524 On ch=1 n=71 v=80
92524 On ch=1 n=49 v=80
92524 On ch=1 n=71 v=80
92524 Off ch=1 n=55 v=72
92524 On ch=1 n=49 v=63
92524 Off ch=1 n=69 v=89
92524 Off ch=1 n=66 v=89
92524 Off ch=1 n=50 v=80
92524 On ch=1 n=49 v=80
92524 On ch=1 n=49 v=80
92524 Off ch=1 n=51 v=89
92539 Off ch=1 n=74 v=78
92539 Off ch=1 n=40 v=80
92539 Off ch=1 n=50 v=63
92539 Off ch=1 n=50 v=80
92554 On ch=1 n=75 v=50
92554 On ch=1 n=78 v=50
92554 Off ch=1 n=74 v=89
92554 On ch=1 n=78 v=89
92554 Off ch=1 n=71 v=80
92554 On ch=1 n=66 v=80
92554 Off ch=1 n=71 v=80
92554 On ch=1 n=75 v=80
92557 Par ch=1 c=64 v=0
92557 Par ch=1 c=64 v=0
92557 Par ch=1 c=64 v=0
92557 Par ch=1 c=64 v=0
92569 Off ch=1 n=66 v=80
92584 Off ch=1 n=78 v=50
92584 Off ch=1 n=75 v=50
92584 On ch=1 n=75 v=89
92584 Off ch=1 n=78 v=89
92584 On ch=1 n=75 v=89
92584 On ch=1 n=71 v=80
92584 On ch=1 n=50 v=80
92584 Off ch=1 n=75 v=80
92584 On ch=1 n=73 v=80
92584 On ch=1 n=55 v=72
92584 On ch=1 n=82 v=80
92584 On ch=1 n=87 v=80
92584 On ch=1 n=50 v=63
92584 On ch=1 n=40 v=63
92584 On ch=1 n=50 v=80
92584 On ch=1 n=39 v=80
92584 On ch=1 n=51 v=89
92584 On ch=1 n=39 v=89
92599 Off ch=1 n=71 v=80
92599 Off ch=1 n=49 v=80
92599 Off ch=1 n=87 v=80
92599 Off ch=1 n=82 v=80
92599 Off ch=1 n=49 v=63
92599 Off ch=1 n=49 v=80
92614 Off ch=1 n=75 v=89
92614 On ch=1 n=75 v=80
92614 On ch=1 n=82 v=80
92614 On ch=1 n=87 v=80
92614 Meta Lyric "A "
92614 Off ch=1 n=49 v=80
92614 On ch=1 n=50 v=80
92644 On ch=1 n=81 v=89
92644 Off ch=1 n=75 v=89
92644 On ch=1 n=81 v=89
92644 Off ch=1 n=75 v=80
92644 On ch=1 n=73 v=80
92644 Off ch=1 n=50 v=80
92644 On ch=1 n=52 v=80
92644 Off ch=1 n=73 v=80
92644 Off ch=1 n=55 v=72
92644 Off ch=1 n=87 v=80
92644 Off ch=1 n=82 v=80
92644 On ch=1 n=82 v=80
92644 On ch=1 n=87 v=80
92644 Meta Lyric "A "
92644 Off ch=1 n=40 v=63
92644 Off ch=1 n=50 v=63
92644 On ch=1 n=52 v=63
92644 On ch=1 n=52 v=80
92644 Off ch=1 n=39 v=89
92644 Off ch=1 n=51 v=89
92659 Off ch=1 n=81 v=89
92659 Off ch=1 n=87 v=80
92659 Off ch=1 n=82 v=80
92659 Off ch=1 n=39 v=80
92659 Off ch=1 n=50 v=80
92674 On ch=1 n=81 v=89
92674 Off ch=1 n=81 v=89
92674 On ch=1 n=81 v=89
92674 Off ch=1 n=50 v=80
92674 On ch=1 n=52 v=80
92704 Off ch=1 n=81 v=89
92704 On ch=1 n=81 v=89
92704 Off ch=1 n=81 v=89
92704 On ch=1 n=81 v=89
92704 Off ch=1 n=73 v=80
92704 On ch=1 n=78 v=80
92704 Off ch=1 n=52 v=80
92704 On ch=1 n=40 v=80
92704 On ch=1 n=55 v=72
92704 On ch=1 n=43 v=72
92704 Off ch=1 n=52 v=63
92704 On ch=1 n=39 v=63
92704 Off ch=1 n=52 v=80
92704 On ch=1 n=36 v=80
92704 On ch=1 n=43 v=80
92704 On ch=1 n=39 v=80
92704 On ch=1 n=51 v=89
92704 On ch=1 n=39 v=89
92719 Off ch=1 n=78 v=80
92734 On ch=1 n=78 v=80
92734 Off ch=1 n=39 v=63
92734 Off ch=1 n=52 v=80
92734 On ch=1 n=54 v=80
92734 On ch=1 n=55 v=80
92734 Off ch=1 n=39 v=80
92734 Off ch=1 n=39 v=89
92764 Off ch=1 n=78 v=80
92764 On ch=1 n=78 v=80
92764 Off ch=1 n=40 v=80
92764 On ch=1 n=50 v=80
92764 On ch=1 n=41 v=80
92764 Off ch=1 n=55 v=72
92764 On ch=1 n=50 v=63
92764 Off ch=1 n=43 v=80
92764 Off ch=1 n=36 v=80
92764 On ch=1 n=50 v=80
92764 Off ch=1 n=51 v=89
92794 Off ch=1 n=78 v=80
92794 Off ch=1 n=41 v=80
92794 Off ch=1 n=55 v=80
92794 Off ch=1 n=54 v=80
92794 On ch=1 n=50 v=80
92824 Off ch=1 n=81 v=89
92824 Off ch=1 n=81 v=89
92824 Off ch=1 n=50 v=80
92824 Off ch=1 n=43 v=72
92824 On ch=1 n=81 v=89
92824 On ch=1 n=81 v=89
92824 On ch=1 n=77 v=80
92824 On ch=1 n=52 v=80
92824 Meta Lyric "A "
92824 On ch=1 n=55 v=72
92824 On ch=1 n=52 v=63
92824 On ch=1 n=39 v=63
92824 On ch=1 n=52 v=80
92824 On ch=1 n=52 v=80
92824 On ch=1 n=38 v=80
92824 On ch=1 n=51 v=89
92824 On ch=1 n=39 v=89
92831 Off ch=1 n=50 v=80
92839 Off ch=1 n=50 v=80
92842 Off ch=1 n=50 v=63
92854 Off ch=1 n=39 v=89
92861 Off ch=1 n=38 v=80
92884 Off ch=1 n=77 v=80
92884 Off ch=1 n=52 v=80
92884 On ch=1 n=50 v=80
92884 On ch=1 n=43 v=80
92884 Off ch=1 n=55 v=72
92884 On ch=1 n=50 v=63
92884 On ch=1 n=50 v=80
92884 On ch=1 n=50 v=80
92884 Off ch=1 n=51 v=89
92884 On ch=1 n=51 v=89
92884 On ch=1 n=39 v=89
92899 Off ch=1 n=39 v=63
92899 Off ch=1 n=52 v=63
92899 Off ch=1 n=52 v=80
92899 Off ch=1 n=52 v=80
92914 Off ch=1 n=39 v=89
92914 Off ch=1 n=51 v=89
92944 Off ch=1 n=81 v=89
92944 Off ch=1 n=81 v=89
92944 Off ch=1 n=50 v=80
92944 On ch=1 n=40 v=80
92944 On ch=1 n=55 v=72
92944 On ch=1 n=49 v=63
92944 On ch=1 n=39 v=63
92944 Meta Lyric "di "
92944 On ch=1 n=49 v=80
92944 On ch=1 n=48 v=80
92944 On ch=1 n=38 v=80
92959 Off ch=1 n=50 v=63
92959 Off ch=1 n=50 v=80
92959 Off ch=1 n=50 v=80
92974 On ch=1 n=51 v=89
92974 On ch=1 n=39 v=89
92981 Off ch=1 n=38 v=80
93004 Off ch=1 n=40 v=80
93004 On ch=1 n=50 v=80
93004 Off ch=1 n=43 v=80
93004 Off ch=1 n=55 v=72
93004 On ch=1 n=50 v=63
93004 On ch=1 n=79 v=89
93004 On ch=1 n=83 v=89
93004 On ch=1 n=72 v=89
93004 On ch=1 n=83 v=89
93004 On ch=1 n=50 v=80
93004 On ch=1 n=50 v=80
93004 Off ch=1 n=39 v=89
93019 Off ch=1 n=39 v=63
93019 Off ch=1 n=49 v=63
93019 Off ch=1 n=49 v=80
93019 Off ch=1 n=48 v=80
93034 Off ch=1 n=83 v=89
93034 Off ch=1 n=79 v=89
93034 On ch=1 n=79 v=89
93034 On ch=1 n=83 v=89
93034 Off ch=1 n=83 v=89
93034 Off ch=1 n=72 v=89
93034 On ch=1 n=72 v=89
93034 On ch=1 n=83 v=89
93034 Off ch=1 n=51 v=89
93064 Off ch=1 n=50 v=80
93064 On ch=1 n=52 v=80
93064 On ch=1 n=55 v=72
93064 On ch=1 n=52 v=63
93064 On ch=1 n=39 v=63
93064 Off ch=1 n=83 v=89
93064 Off ch=1 n=79 v=89
93064 On ch=1 n=78 v=89
93064 On ch=1 n=82 v=89
93064 Off ch=1 n=83 v=89
93064 Off ch=1 n=72 v=89
93064 On ch=1 n=71 v=89
93064 On ch=1 n=81 v=89
93064 Off ch=1 n=50 v=80
93064 On ch=1 n=52 v=80
93064 On ch=1 n=52 v=80
93064 On ch=1 n=40 v=80
93079 Off ch=1 n=50 v=63
93079 Off ch=1 n=50 v=80
93094 Off ch=1 n=71 v=89
93094 Off ch=1 n=52 v=80
93094 On ch=1 n=50 v=89
93094 On ch=1 n=39 v=89
93101 Off ch=1 n=39 v=63
93124 Off ch=1 n=52 v=80
93124 On ch=1 n=43 v=80
93124 Meta Lyric "t "
93124 On ch=1 n=41 v=80
93124 Off ch=1 n=55 v=72
93124 On ch=1 n=43 v=72
93124 Meta Lyric "v"
93124 Off ch=1 n=52 v=63
93124 Off ch=1 n=82 v=89
93124 Off ch=1 n=78 v=89
93124 On ch=1 n=79 v=89
93124 On ch=1 n=83 v=89
93124 Off ch=1 n=81 v=89
93124 On ch=1 n=72 v=89
93124 On ch=1 n=84 v=89
93124 On ch=1 n=54 v=80
93124 On ch=1 n=55 v=80
93124 Off ch=1 n=40 v=80
93124 Off ch=1 n=52 v=80
93124 On ch=1 n=36 v=80
93124 On ch=1 n=43 v=80
93124 Off ch=1 n=39 v=89
93154 Off ch=1 n=83 v=89
93154 Off ch=1 n=79 v=89
93154 On ch=1 n=79 v=89
93154 On ch=1 n=83 v=89
93154 Off ch=1 n=84 v=89
93154 Off ch=1 n=72 v=89
93154 On ch=1 n=72 v=89
93154 On ch=1 n=83 v=89
93154 Off ch=1 n=50 v=89
93184 Off ch=1 n=43 v=80
93184 On ch=1 n=52 v=80
93184 On ch=1 n=55 v=72
93184 Meta Lyric ""
93184 On ch=1 n=31 v=63
93184 On ch=1 n=43 v=63
93184 Off ch=1 n=83 v=89
93184 Off ch=1 n=79 v=89
93184 On ch=1 n=80 v=89
93184 On ch=1 n=84 v=89
93184 Off ch=1 n=83 v=89
93184 Off ch=1 n=72 v=89
93184 On ch=1 n=73 v=89
93184 On ch=1 n=84 v=89
93184 On ch=1 n=52 v=80
93184 Off ch=1 n=43 v=80
93184 Off ch=1 n=36 v=80
93184 On ch=1 n=52 v=80
93184 On ch=1 n=38 v=80
93202 Off ch=1 n=55 v=80
93202 Off ch=1 n=54 v=80
93214 Off ch=1 n=41 v=80
93244 On ch=1 n=50 v=80
93244 Off ch=1 n=43 v=72
93244 Off ch=1 n=55 v=72
93244 Off ch=1 n=43 v=63
93244 Off ch=1 n=31 v=63
93244 On ch=1 n=52 v=63
93244 On ch=1 n=39 v=63
93244 Off ch=1 n=84 v=89
93244 Off ch=1 n=80 v=89
93244 On ch=1 n=79 v=89
93244 On ch=1 n=83 v=89
93244 Off ch=1 n=84 v=89
93244 Off ch=1 n=73 v=89
93244 On ch=1 n=72 v=89
93244 On ch=1 n=83 v=89
93244 On ch=1 n=50 v=80
93244 On ch=1 n=50 v=80
93259 Off ch=1 n=52 v=80
93259 Off ch=1 n=52 v=80
93259 Off ch=1 n=38 v=80
93259 Off ch=1 n=52 v=80
93274 Off ch=1 n=72 v=89
93281 Off ch=1 n=39 v=63
93304 Off ch=1 n=50 v=80
93304 Off ch=1 n=52 v=63
93304 Off ch=1 n=83 v=89
93304 Off ch=1 n=79 v=89
93304 Off ch=1 n=83 v=89
93304 Off ch=1 n=50 v=80
93304 Off ch=1 n=50 v=80
93304 TimeSig 2/4 120 8
93304 Meta Lyric "d "
93304 On ch=1 n=49 v=80
93304 On ch=1 n=43 v=80
93304 On ch=1 n=43 v=80
93304 On ch=1 n=43 v=80
93304 On ch=1 n=41 v=80
93304 Meta Lyric "-"
93304 On ch=1 n=43 v=80
93304 On ch=1 n=43 v=80
93304 On ch=1 n=43 v=80
93304 On ch=1 n=41 v=80
93304 On ch=1 n=55 v=72
93304 On ch=1 n=49 v=63
93304 On ch=1 n=81 v=89
93304 On ch=1 n=71 v=89
93304 On ch=1 n=50 v=80
93304 On ch=1 n=49 v=80
93304 On ch=1 n=38 v=89
93334 Off ch=1 n=81 v=89
93334 On ch=1 n=84 v=89
93334 Off ch=1 n=71 v=89
93334 On ch=1 n=72 v=89
93334 Off ch=1 n=49 v=80
93334 On ch=1 n=48 v=80
93334 On ch=1 n=39 v=80
93334 Off ch=1 n=38 v=89
93343 Off ch=1 n=43 v=80
93364 On ch=1 n=48 v=80
93364 Off ch=1 n=43 v=80
93364 Off ch=1 n=43 v=80
93364 Off ch=1 n=43 v=80
93364 Off ch=1 n=43 v=80
93364 On ch=1 n=43 v=80
93364 On ch=1 n=43 v=80
93364 On ch=1 n=41 v=80
93364 Off ch=1 n=55 v=72
93364 On ch=1 n=55 v=72
93364 Meta Lyric "v "
93364 On ch=1 n=48 v=63
93364 On ch=1 n=39 v=63
93364 Off ch=1 n=84 v=89
93364 On ch=1 n=76 v=89
93364 On ch=1 n=79 v=89
93364 On ch=1 n=48 v=80
93364 Off ch=1 n=39 v=80
93364 On ch=1 n=40 v=89
93379 Off ch=1 n=49 v=80
93379 Off ch=1 n=49 v=63
93379 Off ch=1 n=72 v=89
93379 On ch=1 n=68 v=89
93379 On ch=1 n=81 v=89
93379 Off ch=1 n=50 v=80
93394 Off ch=1 n=48 v=80
93394 On ch=1 n=39 v=80
93394 Off ch=1 n=40 v=89
93409 Off ch=1 n=81 v=89
93409 On ch=1 n=83 v=89
93424 On ch=1 n=40 v=80
93424 Off ch=1 n=55 v=72
93424 On ch=1 n=55 v=72
93424 Off ch=1 n=39 v=63
93424 On ch=1 n=39 v=63
93424 On ch=1 n=54 v=80
93424 On ch=1 n=55 v=80
93424 Off ch=1 n=39 v=80
93424 On ch=1 n=40 v=89
93439 Off ch=1 n=48 v=80
93439 Off ch=1 n=48 v=63
93439 Off ch=1 n=83 v=89
93439 Off ch=1 n=68 v=89
93439 On ch=1 n=79 v=89
93439 Off ch=1 n=48 v=80
93454 On ch=1 n=39 v=80
93454 Off ch=1 n=40 v=89
93461 Off ch=1 n=39 v=63
93461 Off ch=1 n=55 v=80
93461 Off ch=1 n=54 v=80
93484 On ch=1 n=49 v=80
93484 On ch=1 n=43 v=80
93484 On ch=1 n=43 v=80
93484 On ch=1 n=41 v=80
93484 Off ch=1 n=43 v=80
93484 Off ch=1 n=43 v=80
93484 Off ch=1 n=55 v=72
93484 On ch=1 n=55 v=72
93484 On ch=1 n=31 v=63
93484 On ch=1 n=43 v=63
93484 On ch=1 n=39 v=63
93484 Off ch=1 n=79 v=89
93484 Off ch=1 n=76 v=89
93484 On ch=1 n=77 v=89
93484 On ch=1 n=81 v=89
93484 On ch=1 n=49 v=80
93484 On ch=1 n=40 v=89
93484 On ch=1 n=51 v=89
93499 Off ch=1 n=40 v=80
93499 Off ch=1 n=79 v=89
93499 On ch=1 n=68 v=89
93514 Off ch=1 n=77 v=89
93514 Off ch=1 n=39 v=80
93514 On ch=1 n=36 v=80
93514 On ch=1 n=43 v=80
93514 On ch=1 n=39 v=80
93514 Off ch=1 n=40 v=89
93521 Off ch=1 n=68 v=89
93538 Off ch=1 n=43 v=80
93544 Off ch=1 n=49 v=80
93544 Off ch=1 n=41 v=80
93544 Off ch=1 n=43 v=80
93544 Off ch=1 n=43 v=80
93544 Off ch=1 n=41 v=80
93544 Off ch=1 n=41 v=80
93544 Off ch=1 n=41 v=80
93544 Off ch=1 n=55 v=72
93544 Off ch=1 n=39 v=63
93544 Off ch=1 n=49 v=80
93544 Off ch=1 n=39 v=80
93544 Off ch=1 n=43 v=80
93544 Off ch=1 n=36 v=80
93544 Off ch=1 n=51 v=89
93544 TimeSig 4/4 120 8
93544 On ch=1 n=61 v=89
93544 Meta Lyric "_t "
93544 On ch=1 n=64 v=80
93544 On ch=1 n=69 v=80
93544 Meta Lyric "g "
93544 On ch=1 n=64 v=80
93544 On ch=1 n=49 v=80
93544 Meta Lyric "t- "
93544 Meta Lyric "ianc "
93544 On ch=1 n=62 v=89
93544 On ch=1 n=62 v=89
93544 On ch=1 n=50 v=89
93544 On ch=1 n=38 v=89
93545 Off ch=1 n=43 v=72
93545 Off ch=1 n=43 v=72
93545 Off ch=1 n=81 v=89
93545 Off ch=1 n=78 v=89
93545 Off ch=1 n=83 v=89
93545 Off ch=1 n=79 v=89
93545 Off ch=1 n=72 v=89
93545 Off ch=1 n=70 v=89
93545 Off ch=1 n=72 v=89
93545 Off ch=1 n=70 v=89
93545 Off ch=1 n=38 v=89
93545 Off ch=1 n=38 v=89
93545 Off ch=1 n=40 v=89
93545 Off ch=1 n=40 v=89
93545 Off ch=1 n=40 v=89
93545 Off ch=1 n=40 v=89
93574 Off ch=1 n=38 v=89
93604 Meta Lyric "s "
93604 Off ch=1 n=61 v=89
93604 On ch=1 n=62 v=89
93604 Off ch=1 n=49 v=80
93604 On ch=1 n=50 v=80
93624 Off ch=1 n=69 v=80
93624 On ch=1 n=69 v=80
93664 Off ch=1 n=62 v=89
93664 On ch=1 n=61 v=89
93664 Off ch=1 n=64 v=80
93664 On ch=1 n=64 v=80
93664 Off ch=1 n=64 v=80
93664 On ch=1 n=64 v=80
93664 Off ch=1 n=50 v=80
93664 On ch=1 n=49 v=80
93664 Off ch=1 n=62 v=89
93664 On ch=1 n=62 v=89
93664 Off ch=1 n=62 v=89
93664 On ch=1 n=62 v=89
93664 Off ch=1 n=50 v=89
93664 On ch=1 n=50 v=89
93664 On ch=1 n=38 v=89
93704 Off ch=1 n=69 v=80
93704 On ch=1 n=69 v=80
93724 Off ch=1 n=61 v=89
93724 On ch=1 n=62 v=89
93724 Off ch=1 n=64 v=80
93724 Off ch=1 n=49 v=80
93724 On ch=1 n=50 v=80
93724 Off ch=1 n=38 v=89
93744 Off ch=1 n=69 v=80
93754 Off ch=1 n=50 v=80
93784 Off ch=1 n=62 v=89
93784 On ch=1 n=61 v=89
93784 Off ch=1 n=64 v=80
93784 On ch=1 n=64 v=80
93784 On ch=1 n=69 v=80
93784 On ch=1 n=64 v=80
93784 On ch=1 n=49 v=80
93784 Off ch=1 n=62 v=89
93784 On ch=1 n=62 v=89
93784 Off ch=1 n=62 v=89
93784 On ch=1 n=60 v=89
93784 Off ch=1 n=50 v=89
93784 On ch=1 n=50 v=89
93784 On ch=1 n=36 v=89
93814 Off ch=1 n=36 v=89
93844 Off ch=1 n=61 v=89
93844 On ch=1 n=62 v=89
93844 Off ch=1 n=49 v=80
93844 On ch=1 n=50 v=80
93864 Off ch=1 n=69 v=80
93904 Meta Lyric "t "
93904 On ch=1 n=50 v=89
93905 Off ch=1 n=52 v=80
93905 Off ch=1 n=52 v=80
93905 Off ch=1 n=55 v=80
93905 Off ch=1 n=54 v=80
94024 Off ch=1 n=50 v=89
94024 On ch=1 n=57 v=89
94024 On ch=1 n=62 v=89
94084 Off ch=1 n=62 v=89
94084 Off ch=1 n=57 v=89
94144 On ch=1 n=57 v=89
94144 On ch=1 n=62 v=89
94204 Off ch=1 n=62 v=89
94204 Off ch=1 n=57 v=89
94264 Off ch=1 n=62 v=89
94264 On ch=1 n=61 v=89
94264 Off ch=1 n=64 v=80
94264 On ch=1 n=64 v=80
94264 Off ch=1 n=64 v=80
94264 On ch=1 n=64 v=80
94264 Off ch=1 n=50 v=80
94264 On ch=1 n=49 v=80
94264 Off ch=1 n=62 v=89
94264 On ch=1 n=62 v=89
94264 On ch=1 n=57 v=89
94264 On ch=1 n=62 v=89
94264 Off ch=1 n=50 v=89
94264 On ch=1 n=50 v=89
94264 On ch=1 n=38 v=89
94294 Off ch=1 n=38 v=89
94300 Off ch=1 n=60 v=89
94324 Off ch=1 n=61 v=89
94324 On ch=1 n=62 v=89
94324 Off ch=1 n=64 v=80
94324 Off ch=1 n=49 v=80
94324 On ch=1 n=50 v=80
94384 Off ch=1 n=62 v=89
94384 Off ch=1 n=64 v=80
94384 Off ch=1 n=50 v=80
94384 Off ch=1 n=62 v=89
94384 Off ch=1 n=62 v=89
94384 Off ch=1 n=57 v=89
94384 Off ch=1 n=50 v=89
94384 On ch=1 n=64 v=80
94384 On ch=1 n=64 v=80
94384 On ch=1 n=51 v=80
94384 Meta Lyric "Piao "
94384 On ch=1 n=62 v=89
94384 On ch=1 n=62 v=89
94384 On ch=1 n=57 v=89
94384 On ch=1 n=62 v=89
94440 Off ch=1 n=62 v=89
94440 Off ch=1 n=57 v=89
94444 On ch=1 n=67 v=80
94444 On ch=1 n=63 v=80
94444 On ch=1 n=50 v=89
94444 On ch=1 n=36 v=89
94459 Off ch=1 n=64 v=80
94464 Off ch=1 n=67 v=80
94464 On ch=1 n=69 v=80
94474 On ch=1 n=63 v=80
94474 Off ch=1 n=63 v=80
94474 On ch=1 n=64 v=80
94474 On ch=1 n=61 v=89
94474 On ch=1 n=61 v=89
94474 On ch=1 n=62 v=89
94484 Off ch=1 n=50 v=89
94494 Off ch=1 n=69 v=80
94496 Off ch=1 n=64 v=80
94496 Off ch=1 n=62 v=89
94504 On ch=1 n=63 v=89
94504 Off ch=1 n=63 v=80
94504 On ch=1 n=64 v=80
94504 Off ch=1 n=61 v=89
94504 On ch=1 n=61 v=89
94504 On ch=1 n=64 v=89
94504 Off ch=1 n=62 v=89
94504 On ch=1 n=62 v=89
94513 Off ch=1 n=61 v=89
94522 Off ch=1 n=36 v=89
94524 On ch=1 n=71 v=80
94524 On ch=1 n=50 v=89
94524 On ch=1 n=38 v=89
94534 Meta Lyric "-( "
94534 On ch=1 n=38 v=80
94534 Meta Lyric ")f "
94654 Off ch=1 n=38 v=80
94654 On ch=1 n=38 v=80
94714 Off ch=1 n=38 v=80
94774 On ch=1 n=38 v=80
94894 Off ch=1 n=38 v=80
94894 On ch=1 n=35 v=80
94894 On ch=1 n=38 v=80
95050 Off ch=1 n=38 v=80
95050 Off ch=1 n=35 v=80
95074 On ch=1 n=38 v=80
95104 Off ch=1 n=38 v=80
95134 On ch=1 n=40 v=80
95164 Meta Lyric "y'' "
95164 On ch=1 n=38 v=80
95164 On ch=1 n=49 v=80
95164 Meta Lyric "ar "
95165 Off ch=1 n=43 v=80
95165 Off ch=1 n=36 v=80
95165 Off ch=1 n=39 v=80
95224 Off ch=1 n=49 v=80
95224 Off ch=1 n=38 v=80
95224 On ch=1 n=50 v=80
95224 Meta Lyric "o. "
95284 Off ch=1 n=50 v=80
95284 On ch=1 n=38 v=80
95284 On ch=1 n=49 v=80
95344 Off ch=1 n=49 v=80
95344 Off ch=1 n=38 v=80
95344 On ch=1 n=50 v=80
95344 On ch=1 n=50 v=80
95374 Off ch=1 n=50 v=80
95404 On ch=1 n=38 v=80
95404 On ch=1 n=49 v=80
95464 Off ch=1 n=49 v=80
95464 Off ch=1 n=38 v=80
95464 Off ch=1 n=50 v=80
95464 On ch=1 n=50 v=80
95524 Off ch=1 n=50 v=80
95524 On ch=1 n=38 v=80
95524 On ch=1 n=47 v=80
95584 Off ch=1 n=47 v=80
95584 Off ch=1 n=38 v=80
95584 On ch=1 n=50 v=80
95644 Off ch=1 n=50 v=80
95644 On ch=1 n=51 v=80
95764 Off ch=1 n=51 v=80
95764 On ch=1 n=38 v=80
95764 On ch=1 n=49 v=80
95804 Off ch=1 n=71 v=80
95804 On ch=1 n=69 v=80
95824 Off ch=1 n=40 v=80
95824 On ch=1 n=66 v=80
95824 Off ch=1 n=51 v=80
95824 On ch=1 n=49 v=80
95824 Off ch=1 n=64 v=89
95824 Off ch=1 n=61 v=89
95824 On ch=1 n=64 v=89
95824 Off ch=1 n=49 v=80
95824 Off ch=1 n=38 v=80
95824 On ch=1 n=50 v=80
95844 Off ch=1 n=50 v=89
95844 Off ch=1 n=38 v=89
95846 Off ch=1 n=64 v=80
95854 Off ch=1 n=64 v=80
95854 On ch=1 n=66 v=80
95854 Off ch=1 n=66 v=80
95854 On ch=1 n=64 v=80
95854 Off ch=1 n=49 v=80
95854 Off ch=1 n=64 v=89
95854 On ch=1 n=62 v=89
95854 On ch=1 n=64 v=89
95854 On ch=1 n=60 v=89
95876 Off ch=1 n=62 v=89
95884 Off ch=1 n=63 v=89
95884 On ch=1 n=61 v=89
95884 Off ch=1 n=66 v=80
95884 On ch=1 n=64 v=80
95884 Off ch=1 n=69 v=80
95884 On ch=1 n=67 v=80
95884 On ch=1 n=71 v=80
95884 On ch=1 n=50 v=80
95884 Off ch=1 n=64 v=89
95884 On ch=1 n=62 v=89
95884 Off ch=1 n=60 v=89
95884 Off ch=1 n=62 v=89
95884 On ch=1 n=57 v=89
95884 On ch=1 n=62 v=89
95884 Off ch=1 n=50 v=80
95884 On ch=1 n=38 v=80
95884 On ch=1 n=49 v=80
95904 On ch=1 n=50 v=89
95904 On ch=1 n=38 v=89
95924 On ch=1 n=69 v=80
95934 Off ch=1 n=67 v=80
95943 Off ch=1 n=38 v=89
95944 On ch=1 n=62 v=89
95944 On ch=1 n=40 v=80
95944 Off ch=1 n=50 v=80
95944 On ch=1 n=49 v=80
95944 Off ch=1 n=62 v=89
95944 Off ch=1 n=57 v=89
95944 Off ch=1 n=49 v=80
95944 Off ch=1 n=38 v=80
95944 On ch=1 n=50 v=80
95974 Off ch=1 n=69 v=80
95974 Off ch=1 n=64 v=80
95981 Off ch=1 n=61 v=89
96004 Off ch=1 n=62 v=89
96004 On ch=1 n=61 v=89
96004 Off ch=1 n=40 v=80
96004 Off ch=1 n=71 v=80
96004 Off ch=1 n=49 v=80
96004 On ch=1 n=50 v=80
96004 On ch=1 n=51 v=80
96019 Off ch=1 n=50 v=80
96024 Off ch=1 n=50 v=89
96034 Off ch=1 n=51 v=80
96064 Meta Lyric "A "
96064 On ch=1 n=38 v=80
96064 On ch=1 n=49 v=80
96065 Off ch=1 n=39 v=63
96065 Off ch=1 n=39 v=63
96082 Off ch=1 n=43 v=63
96082 Off ch=1 n=31 v=63
96094 Off ch=1 n=49 v=80
96094 Off ch=1 n=38 v=80
96124 On ch=1 n=50 v=80
96184 Off ch=1 n=50 v=80
96184 On ch=1 n=38 v=80
96184 On ch=1 n=49 v=80
96244 Off ch=1 n=49 v=80
96244 Off ch=1 n=38 v=80
96244 On ch=1 n=50 v=80
96274 Off ch=1 n=50 v=80
96304 On ch=1 n=38 v=80
96304 On ch=1 n=49 v=80
96364 Off ch=1 n=49 v=80
96364 Off ch=1 n=38 v=80
96364 On ch=1 n=50 v=80
96394 Off ch=1 n=50 v=80
96424 On ch=1 n=38 v=80
96424 On ch=1 n=49 v=80
96484 Off ch=1 n=49 v=80
96484 Off ch=1 n=38 v=80
96484 On ch=1 n=50 v=80
96544 Off ch=1 n=50 v=80
96544 On ch=1 n=51 v=80
96604 Off ch=1 n=51 v=80
96664 On ch=1 n=38 v=80
96664 On ch=1 n=49 v=80
96701 Off ch=1 n=49 v=80
96701 Off ch=1 n=38 v=80
96724 On ch=1 n=50 v=80
96784 Off ch=1 n=50 v=80
96784 On ch=1 n=38 v=80
96784 On ch=1 n=49 v=80
96844 Off ch=1 n=49 v=80
96844 Off ch=1 n=38 v=80
96844 On ch=1 n=50 v=80
96904 On ch=1 n=51 v=80
96919 Off ch=1 n=50 v=80
96934 Off ch=1 n=51 v=80
96964 Off ch=1 n=61 v=89
96964 On ch=1 n=62 v=89
96964 On ch=1 n=51 v=80
96964 On ch=1 n=38 v=80
96964 On ch=1 n=49 v=80
96964 On ch=1 n=38 v=80
96964 On ch=1 n=49 v=80
96979 Off ch=1 n=50 v=80
96994 Off ch=1 n=49 v=80
96994 Off ch=1 n=38 v=80
96994 Off ch=1 n=62 v=89
96994 Off ch=1 n=49 v=80
96994 Off ch=1 n=38 v=80
97024 Off ch=1 n=62 v=89
97024 Off ch=1 n=64 v=80
97024 Off ch=1 n=51 v=80
97024 On ch=1 n=61 v=89
97024 On ch=1 n=67 v=80
97024 On ch=1 n=38 v=80
97024 On ch=1 n=68 v=80
97024 On ch=1 n=49 v=80
97024 On ch=1 n=38 v=80
97024 On ch=1 n=49 v=80
97024 On ch=1 n=66 v=89
97024 On ch=1 n=66 v=89
97024 On ch=1 n=66 v=89
97024 On ch=1 n=55 v=89
97024 Meta Lyric "dr "
97024 On ch=1 n=49 v=80
97024 On ch=1 n=38 v=80
97024 On ch=1 n=50 v=89
97049 Off ch=1 n=68 v=80
97054 Off ch=1 n=61 v=89
97054 Off ch=1 n=49 v=80
97054 Off ch=1 n=49 v=80
97064 On ch=1 n=69 v=80
97084 On ch=1 n=61 v=89
97084 Off ch=1 n=67 v=80
97084 Off ch=1 n=38 v=80
97084 On ch=1 n=38 v=80
97084 On ch=1 n=50 v=80
97084 Off ch=1 n=49 v=80
97084 Off ch=1 n=38 v=80
97084 On ch=1 n=50 v=80
97084 Off ch=1 n=55 v=89
97084 On ch=1 n=50 v=80
97084 Meta Lyric "1 "
97096 Off ch=1 n=62 v=89
97102 Off ch=1 n=38 v=80
97104 Off ch=1 n=69 v=80
97144 Off ch=1 n=61 v=89
97144 On ch=1 n=63 v=89
97144 On ch=1 n=67 v=80
97144 Off ch=1 n=38 v=80
97144 On ch=1 n=68 v=80
97144 On ch=1 n=51 v=80
97144 On ch=1 n=51 v=80
97144 Off ch=1 n=66 v=89
97144 On ch=1 n=66 v=89
97144 Off ch=1 n=66 v=89
97144 On ch=1 n=55 v=89
97144 On ch=1 n=66 v=89
97144 Meta Lyric "rCO "
97144 Off ch=1 n=50 v=80
97144 On ch=1 n=51 v=80
97144 Off ch=1 n=50 v=89
97159 Off ch=1 n=50 v=80
97159 Off ch=1 n=50 v=80
97174 Off ch=1 n=51 v=80
97174 Off ch=1 n=51 v=80
97184 On ch=1 n=69 v=80
97194 Off ch=1 n=68 v=80
97204 Off ch=1 n=63 v=89
97204 On ch=1 n=61 v=89
97204 On ch=1 n=38 v=80
97204 On ch=1 n=67 v=80
97204 Meta Lyric "61' "
97204 On ch=1 n=49 v=80
97204 On ch=1 n=38 v=80
97204 On ch=1 n=49 v=80
97204 Off ch=1 n=66 v=89
97204 On ch=1 n=66 v=89
97204 Off ch=1 n=66 v=89
97204 Off ch=1 n=55 v=89
97204 Off ch=1 n=51 v=80
97204 On ch=1 n=49 v=80
97204 On ch=1 n=38 v=80
97204 Meta Lyric "v "
97204 On ch=1 n=38 v=89
97204 On ch=1 n=50 v=89
97224 Off ch=1 n=69 v=80
97224 On ch=1 n=68 v=80
97234 Off ch=1 n=49 v=80
97234 Off ch=1 n=38 v=80
97249 Off ch=1 n=68 v=80
97264 Off ch=1 n=61 v=89
97264 On ch=1 n=62 v=89
97264 Off ch=1 n=67 v=80
97264 On ch=1 n=67 v=80
97264 On ch=1 n=69 v=80
97264 Off ch=1 n=67 v=80
97264 Off ch=1 n=49 v=80
97264 On ch=1 n=50 v=80
97264 Off ch=1 n=49 v=80
97264 Off ch=1 n=38 v=80
97264 On ch=1 n=50 v=80
97264 Off ch=1 n=66 v=89
97264 On ch=1 n=66 v=89
97264 On ch=1 n=50 v=80
97264 Off ch=1 n=50 v=89
97282 Off ch=1 n=38 v=89
97304 Off ch=1 n=69 v=80
97324 Off ch=1 n=62 v=89
97324 On ch=1 n=61 v=89
97324 Off ch=1 n=38 v=80
97324 On ch=1 n=67 v=80
97324 Off ch=1 n=50 v=80
97324 On ch=1 n=49 v=80
97324 Off ch=1 n=50 v=80
97324 On ch=1 n=38 v=80
97324 On ch=1 n=49 v=80
97324 Off ch=1 n=66 v=89
97324 On ch=1 n=66 v=89
97324 On ch=1 n=55 v=89
97324 On ch=1 n=66 v=89
97324 Off ch=1 n=50 v=80
97324 On ch=1 n=49 v=80
97324 On ch=1 n=38 v=80
97324 On ch=1 n=38 v=89
97324 On ch=1 n=50 v=89
97363 Off ch=1 n=38 v=80
97384 Off ch=1 n=61 v=89
97384 On ch=1 n=62 v=89
97384 Off ch=1 n=67 v=80
97384 On ch=1 n=67 v=80
97384 Off ch=1 n=67 v=80
97384 Off ch=1 n=49 v=80
97384 On ch=1 n=50 v=80
97384 On ch=1 n=50 v=80
97384 Off ch=1 n=66 v=89
97384 Off ch=1 n=66 v=89
97384 On ch=1 n=66 v=89
97384 Off ch=1 n=55 v=89
97384 Off ch=1 n=49 v=80
97384 On ch=1 n=50 v=80
97399 Off ch=1 n=49 v=80
97399 Off ch=1 n=38 v=80
97402 Off ch=1 n=38 v=89
97444 Off ch=1 n=62 v=89
97444 On ch=1 n=63 v=89
97444 On ch=1 n=67 v=80
97444 On ch=1 n=51 v=80
97444 On ch=1 n=53 v=80
97444 On ch=1 n=66 v=89
97444 Off ch=1 n=66 v=89
97444 On ch=1 n=55 v=89
97444 On ch=1 n=66 v=89
97444 On ch=1 n=51 v=80
97459 Off ch=1 n=50 v=80
97459 Off ch=1 n=50 v=80
97459 Off ch=1 n=50 v=80
97474 Off ch=1 n=67 v=80
97474 Off ch=1 n=66 v=89
97504 Off ch=1 n=63 v=89
97504 Off ch=1 n=67 v=80
97504 Off ch=1 n=51 v=80
97504 Off ch=1 n=53 v=80
97504 Off ch=1 n=66 v=89
97504 Off ch=1 n=66 v=89
97504 Off ch=1 n=55 v=89
97504 Off ch=1 n=51 v=80
97504 Off ch=1 n=50 v=89
97504 On ch=1 n=61 v=89
97504 On ch=1 n=68 v=80
97504 On ch=1 n=38 v=80
97504 On ch=1 n=49 v=80
97504 On ch=1 n=38 v=80
97504 On ch=1 n=49 v=80
97504 On ch=1 n=66 v=89
97504 On ch=1 n=66 v=89
97504 On ch=1 n=66 v=89
97504 On ch=1 n=49 v=80
97504 On ch=1 n=38 v=80
97504 On ch=1 n=50 v=89
97519 On ch=1 n=64 v=89
97522 Off ch=1 n=66 v=89
97534 Off ch=1 n=49 v=80
97534 Off ch=1 n=66 v=89
97534 Off ch=1 n=49 v=80
97534 Off ch=1 n=38 v=80
97541 Off ch=1 n=61 v=89
97549 Off ch=1 n=64 v=89
97549 On ch=1 n=66 v=89
97564 Meta Lyric "A "
97564 On ch=1 n=64 v=80
97565 Off ch=1 n=67 v=80
97624 On ch=1 n=62 v=89
97624 On ch=1 n=50 v=80
97624 Off ch=1 n=49 v=80
97624 Off ch=1 n=38 v=80
97624 On ch=1 n=50 v=80
97624 On ch=1 n=50 v=80
97644 On ch=1 n=67 v=80
97654 Off ch=1 n=38 v=80
97654 On ch=1 n=64 v=89
97669 Off ch=1 n=67 v=80
97676 Off ch=1 n=66 v=89
97684 Off ch=1 n=62 v=89
97684 On ch=1 n=61 v=89
97684 On ch=1 n=69 v=80
97684 Off ch=1 n=64 v=80
97684 On ch=1 n=67 v=80
97684 Off ch=1 n=50 v=80
97684 On ch=1 n=49 v=80
97684 Off ch=1 n=50 v=80
97684 On ch=1 n=38 v=80
97684 On ch=1 n=49 v=80
97684 Off ch=1 n=64 v=89
97684 On ch=1 n=66 v=89
97684 On ch=1 n=64 v=89
97684 Off ch=1 n=50 v=80
97684 On ch=1 n=49 v=80
97684 On ch=1 n=38 v=80
97684 Off ch=1 n=50 v=89
97684 On ch=1 n=50 v=89
97684 On ch=1 n=38 v=89
97699 Off ch=1 n=66 v=89
97699 On ch=1 n=67 v=89
97714 Off ch=1 n=61 v=89
97714 Off ch=1 n=49 v=80
97714 Off ch=1 n=38 v=80
97714 Off ch=1 n=64 v=89
97714 On ch=1 n=66 v=89
97714 On ch=1 n=55 v=89
97723 Off ch=1 n=49 v=80
97724 Off ch=1 n=69 v=80
97724 On ch=1 n=67 v=80
97729 On ch=1 n=66 v=80
97729 Off ch=1 n=67 v=89
97729 On ch=1 n=66 v=89
97729 Off ch=1 n=66 v=89
97729 On ch=1 n=67 v=89
97740 Off ch=1 n=67 v=80
97744 On ch=1 n=62 v=89
97744 Off ch=1 n=68 v=80
97744 On ch=1 n=38 v=80
97744 Off ch=1 n=49 v=80
97744 On ch=1 n=50 v=80
97744 On ch=1 n=50 v=80
97744 Off ch=1 n=66 v=89
97744 On ch=1 n=50 v=80
97759 Off ch=1 n=66 v=80
97759 On ch=1 n=67 v=80
97759 Off ch=1 n=67 v=89
97759 On ch=1 n=66 v=89
97762 Off ch=1 n=38 v=80
97762 Off ch=1 n=38 v=89
97774 Off ch=1 n=55 v=89
97776 Off ch=1 n=67 v=80
97801 Off ch=1 n=50 v=89
97804 On ch=1 n=63 v=89
97804 Off ch=1 n=38 v=80
97804 On ch=1 n=69 v=80
97804 On ch=1 n=69 v=80
97804 On ch=1 n=52 v=80
97804 On ch=1 n=51 v=80
97804 On ch=1 n=52 v=80
97804 On ch=1 n=50 v=89
97815 Off ch=1 n=67 v=80
97819 Off ch=1 n=62 v=89
97819 Off ch=1 n=69 v=80
97819 On ch=1 n=67 v=80
97819 Off ch=1 n=50 v=80
97819 Off ch=1 n=50 v=80
97819 Off ch=1 n=50 v=80
97834 On ch=1 n=67 v=89
97849 Off ch=1 n=66 v=89
97864 Off ch=1 n=63 v=89
97864 On ch=1 n=61 v=89
97864 On ch=1 n=38 v=80
97864 Off ch=1 n=52 v=80
97864 On ch=1 n=49 v=80
97864 Off ch=1 n=51 v=80
97864 On ch=1 n=36 v=80
97864 On ch=1 n=49 v=80
97864 Off ch=1 n=67 v=89
97864 On ch=1 n=66 v=89
97864 On ch=1 n=55 v=89
97864 On ch=1 n=66 v=89
97864 Off ch=1 n=52 v=80
97864 On ch=1 n=38 v=80
97864 On ch=1 n=49 v=80
97864 Off ch=1 n=50 v=89
97884 Off ch=1 n=69 v=80
97924 Off ch=1 n=61 v=89
97924 On ch=1 n=62 v=89
97924 Off ch=1 n=38 v=80
97924 On ch=1 n=67 v=80
97924 Off ch=1 n=49 v=80
97924 Off ch=1 n=36 v=80
97924 On ch=1 n=50 v=80
97924 Off ch=1 n=66 v=89
97924 Off ch=1 n=55 v=89
97924 Off ch=1 n=49 v=80
97924 Off ch=1 n=38 v=80
97924 On ch=1 n=50 v=80
97936 Off ch=1 n=67 v=80
97944 On ch=1 n=69 v=80
97954 On ch=1 n=49 v=80
97954 On ch=1 n=53 v=80
97961 Off ch=1 n=50 v=80
97964 Off ch=1 n=69 v=80
97984 Off ch=1 n=62 v=89
97984 Meta Lyric "g "
97984 On ch=1 n=68 v=80
97984 On ch=1 n=38 v=80
97984 Meta Lyric "ti "
97984 Off ch=1 n=49 v=80
97984 On ch=1 n=50 v=80
97984 Off ch=1 n=50 v=80
97984 On ch=1 n=38 v=80
97984 On ch=1 n=49 v=80
98044 Off ch=1 n=38 v=80
98044 Off ch=1 n=67 v=80
98044 Off ch=1 n=50 v=80
98044 Off ch=1 n=53 v=80
98044 Off ch=1 n=49 v=80
98044 Off ch=1 n=66 v=89
98044 Off ch=1 n=49 v=80
98044 Off ch=1 n=38 v=80
98044 On ch=1 n=84 v=111
98044 On ch=1 n=58 v=89
98044 On ch=1 n=81 v=89
98044 On ch=1 n=58 v=89
98044 On ch=1 n=38 v=80
98044 On ch=1 n=64 v=80
98044 Meta Lyric ""
98044 On ch=1 n=73 v=80
98044 On ch=1 n=76 v=80
98044 Meta Lyric "Or "
98044 On ch=1 n=54 v=80
98044 On ch=1 n=38 v=80
98044 On ch=1 n=84 v=72
98044 On ch=1 n=57 v=72
98044 On ch=1 n=71 v=55
98044 On ch=1 n=75 v=55
98044 On ch=1 n=77 v=55
98044 On ch=1 n=64 v=111
98044 On ch=1 n=64 v=89
98044 On ch=1 n=60 v=89
98044 On ch=1 n=57 v=89
98044 On ch=1 n=84 v=89
98044 On ch=1 n=54 v=89
98044 On ch=1 n=50 v=89
98044 On ch=1 n=69 v=111
98044 On ch=1 n=50 v=89
98044 On ch=1 n=38 v=89
98044 Meta Lyric "arco "
98044 On ch=1 n=50 v=89
98044 On ch=1 n=28 v=89
98047 Par ch=1 c=64 v=0
98047 Par ch=1 c=64 v=0
98047 Par ch=1 c=64 v=0
98047 Par ch=1 c=64 v=0
98059 Off ch=1 n=84 v=111
98059 Off ch=1 n=81 v=89
98059 Off ch=1 n=54 v=80
98071 Off ch=1 n=66 v=89
98074 On ch=1 n=82 v=89
98074 On ch=1 n=80 v=89
98074 On ch=1 n=58 v=80
98074 Off ch=1 n=77 v=55
98074 Off ch=1 n=75 v=55
98074 Off ch=1 n=71 v=55
98084 Off ch=1 n=64 v=80
98084 Meta Lyric "_Solo) "
98104 Meta Lyric "A "
98104 On ch=1 n=72 v=80
98104 Meta Lyric "w "
98164 Meta Lyric "CL) "
98164 On ch=1 n=45 v=89
98164 On ch=1 n=36 v=89
98164 On ch=1 n=40 v=89
98224 Off ch=1 n=80 v=89
98224 On ch=1 n=79 v=89
98224 On ch=1 n=50 v=80
98224 On ch=1 n=75 v=55
98224 On ch=1 n=78 v=55
98224 On ch=1 n=82 v=55
98224 Off ch=1 n=64 v=89
98224 Off ch=1 n=64 v=111
98224 On ch=1 n=65 v=89
98224 On ch=1 n=65 v=89
98224 Off ch=1 n=57 v=89
98224 Off ch=1 n=60 v=89
98224 On ch=1 n=59 v=89
98224 On ch=1 n=62 v=89
98224 Off ch=1 n=50 v=89
98224 Off ch=1 n=54 v=89
98224 On ch=1 n=56 v=89
98224 On ch=1 n=52 v=89
98239 Off ch=1 n=82 v=89
98239 On ch=1 n=82 v=89
98239 Off ch=1 n=82 v=55
98239 Off ch=1 n=78 v=55
98239 Off ch=1 n=75 v=55
98242 Off ch=1 n=40 v=89
98242 Off ch=1 n=36 v=89
98254 Off ch=1 n=76 v=80
98254 Off ch=1 n=73 v=80
98254 On ch=1 n=75 v=55
98254 On ch=1 n=78 v=55
98254 On ch=1 n=82 v=55
98254 Off ch=1 n=65 v=89
98254 Off ch=1 n=65 v=89
98254 On ch=1 n=67 v=89
98254 On ch=1 n=67 v=89
98254 Off ch=1 n=62 v=89
98254 Off ch=1 n=59 v=89
98254 On ch=1 n=64 v=89
98254 On ch=1 n=61 v=89
98254 Off ch=1 n=52 v=89
98254 Off ch=1 n=56 v=89
98254 Off ch=1 n=84 v=89
98254 On ch=1 n=57 v=89
98254 On ch=1 n=54 v=89
98254 On ch=1 n=54 v=89
98261 Off ch=1 n=64 v=89
98263 Off ch=1 n=79 v=89
98281 Off ch=1 n=38 v=89
98284 On ch=1 n=78 v=89
98284 Off ch=1 n=38 v=80
98284 On ch=1 n=44 v=80
98284 On ch=1 n=67 v=80
98284 Off ch=1 n=38 v=80
98284 On ch=1 n=44 v=80
98284 Off ch=1 n=57 v=72
98284 On ch=1 n=57 v=72
98284 Off ch=1 n=82 v=55
98284 Off ch=1 n=78 v=55
98284 Off ch=1 n=75 v=55
98284 On ch=1 n=76 v=55
98284 On ch=1 n=81 v=55
98284 On ch=1 n=83 v=55
98284 Off ch=1 n=45 v=89
98284 On ch=1 n=41 v=89
98284 On ch=1 n=45 v=89
98284 Meta Lyric "Animato "
98284 Off ch=1 n=67 v=89
98284 Off ch=1 n=67 v=89
98284 On ch=1 n=70 v=89
98284 On ch=1 n=70 v=89
98284 Off ch=1 n=61 v=89
98284 On ch=1 n=63 v=89
98284 On ch=1 n=66 v=89
98284 Off ch=1 n=54 v=89
98284 Off ch=1 n=57 v=89
98284 On ch=1 n=60 v=89
98284 On ch=1 n=56 v=89
98284 Meta Lyric ""
98284 Off ch=1 n=69 v=111
98284 Off ch=1 n=50 v=89
98284 Off ch=1 n=28 v=89
98299 Off ch=1 n=82 v=89
98299 On ch=1 n=81 v=89
98314 Off ch=1 n=78 v=89
98314 On ch=1 n=77 v=89
98314 Off ch=1 n=54 v=89
98314 On ch=1 n=56 v=89
98324 Off ch=1 n=67 v=80
98324 On ch=1 n=70 v=80
98329 Off ch=1 n=81 v=89
98329 On ch=1 n=80 v=89
98329 Meta Lyric "A"
98344 Off ch=1 n=77 v=89
98344 On ch=1 n=75 v=89
98344 Off ch=1 n=72 v=80
98344 On ch=1 n=72 v=80
98344 On ch=1 n=73 v=80
98344 On ch=1 n=76 v=80
98344 Off ch=1 n=58 v=80
98344 Off ch=1 n=50 v=80
98344 On ch=1 n=60 v=80
98344 Off ch=1 n=83 v=55
98344 Off ch=1 n=81 v=55
98344 Off ch=1 n=76 v=55
98344 On ch=1 n=81 v=55
98344 On ch=1 n=84 v=55
98344 On ch=1 n=88 v=55
98344 Off ch=1 n=70 v=89
98344 Off ch=1 n=70 v=89
98344 On ch=1 n=72 v=89
98344 Off ch=1 n=66 v=89
98344 Off ch=1 n=63 v=89
98344 On ch=1 n=67 v=89
98344 On ch=1 n=65 v=89
98344 Off ch=1 n=56 v=89
98344 Off ch=1 n=60 v=89
98344 On ch=1 n=62 v=89
98344 On ch=1 n=58 v=89
98344 Off ch=1 n=56 v=89
98364 Off ch=1 n=70 v=80
98364 On ch=1 n=74 v=80
98374 Off ch=1 n=80 v=89
98374 On ch=1 n=79 v=89
98374 Meta Lyric ""
98374 On ch=1 n=74 v=89
98374 On ch=1 n=74 v=89
98374 On ch=1 n=93 v=89
98374 Off ch=1 n=65 v=89
98374 Off ch=1 n=67 v=89
98374 On ch=1 n=70 v=89
98374 On ch=1 n=66 v=89
98374 Off ch=1 n=58 v=89
98374 Off ch=1 n=62 v=89
98374 On ch=1 n=64 v=89
98374 On ch=1 n=60 v=89
98374 On ch=1 n=60 v=89
98383 Off ch=1 n=75 v=89
98383 Off ch=1 n=72 v=89
98384 Meta Lyric "A "
98404 On ch=1 n=82 v=89
98404 Off ch=1 n=72 v=80
98404 On ch=1 n=69 v=80
98404 Off ch=1 n=60 v=80
98404 On ch=1 n=64 v=80
98404 On ch=1 n=71 v=80
98404 Meta Lyric "- "
98404 Off ch=1 n=57 v=72
98404 Off ch=1 n=84 v=72
98404 On ch=1 n=57 v=72
98404 Off ch=1 n=74 v=89
98404 Off ch=1 n=74 v=89
98404 On ch=1 n=76 v=89
98404 On ch=1 n=76 v=89
98404 Off ch=1 n=66 v=89
98404 Off ch=1 n=70 v=89
98404 On ch=1 n=72 v=89
98404 On ch=1 n=69 v=89
98404 Off ch=1 n=60 v=89
98404 Off ch=1 n=64 v=89
98404 On ch=1 n=64 v=89
98404 On ch=1 n=67 v=89
98404 On ch=1 n=62 v=89
98404 On ch=1 n=66 v=89
98404 Off ch=1 n=60 v=89
98404 Off ch=1 n=50 v=89
98404 On ch=1 n=50 v=89
98404 On ch=1 n=50 v=89
98404 On ch=1 n=28 v=89
98424 Off ch=1 n=74 v=80
98424 On ch=1 n=64 v=80
98434 Off ch=1 n=79 v=89
98434 On ch=1 n=84 v=89
98434 Off ch=1 n=82 v=89
98434 On ch=1 n=80 v=89
98434 Meta Lyric "a "
98434 Off ch=1 n=44 v=80
98434 On ch=1 n=50 v=80
98434 Off ch=1 n=71 v=80
98434 On ch=1 n=47 v=80
98434 Off ch=1 n=44 v=80
98434 On ch=1 n=50 v=80
98434 Off ch=1 n=88 v=55
98434 Off ch=1 n=84 v=55
98434 Off ch=1 n=81 v=55
98434 On ch=1 n=75 v=55
98434 On ch=1 n=78 v=55
98434 On ch=1 n=81 v=55
98434 Off ch=1 n=76 v=89
98441 Off ch=1 n=80 v=89
98449 On ch=1 n=79 v=89
98449 Meta Lyric "cato"
98464 Off ch=1 n=84 v=89
98464 On ch=1 n=83 v=89
98464 Off ch=1 n=79 v=89
98464 Off ch=1 n=76 v=80
98464 Off ch=1 n=73 v=80
98464 On ch=1 n=71 v=80
98464 On ch=1 n=74 v=80
98464 Off ch=1 n=76 v=89
98464 On ch=1 n=74 v=89
98464 On ch=1 n=76 v=89
98464 On ch=1 n=79 v=89
98464 Off ch=1 n=69 v=89
98464 Off ch=1 n=72 v=89
98464 On ch=1 n=74 v=89
98464 On ch=1 n=71 v=89
98464 Off ch=1 n=66 v=89
98464 Off ch=1 n=62 v=89
98464 Off ch=1 n=67 v=89
98464 Off ch=1 n=64 v=89
98464 On ch=1 n=68 v=89
98464 On ch=1 n=64 v=89
98464 Off ch=1 n=50 v=89
98464 On ch=1 n=50 v=89
98479 On ch=1 n=78 v=89
98479 Off ch=1 n=50 v=80
98494 Off ch=1 n=83 v=89
98494 On ch=1 n=82 v=89
98494 Off ch=1 n=57 v=72
98494 Off ch=1 n=93 v=89
98494 Off ch=1 n=71 v=89
98494 Off ch=1 n=74 v=89
98494 On ch=1 n=76 v=89
98494 On ch=1 n=73 v=89
98494 Off ch=1 n=64 v=89
98494 Off ch=1 n=68 v=89
98494 On ch=1 n=68 v=89
98494 On ch=1 n=72 v=89
98494 On ch=1 n=66 v=89
98504 Off ch=1 n=64 v=80
98504 On ch=1 n=67 v=80
98509 Off ch=1 n=82 v=89
98509 Off ch=1 n=73 v=89
98509 On ch=1 n=76 v=89
98524 On ch=1 n=80 v=89
98524 Off ch=1 n=69 v=80
98524 On ch=1 n=69 v=80
98524 Meta Lyric "S "
98524 On ch=1 n=56 v=80
98524 Off ch=1 n=50 v=80
98524 On ch=1 n=56 v=80
98524 Off ch=1 n=79 v=89
98524 Off ch=1 n=76 v=89
98524 Off ch=1 n=76 v=89
98524 Off ch=1 n=66 v=89
98524 Off ch=1 n=72 v=89
98524 Off ch=1 n=68 v=89
98524 On ch=1 n=72 v=89
98524 On ch=1 n=68 v=89
98524 Off ch=1 n=50 v=89
98539 Off ch=1 n=78 v=89
98539 On ch=1 n=78 v=89
98539 Meta Lyric ""
98539 Off ch=1 n=76 v=89
98539 On ch=1 n=77 v=89
98539 On ch=1 n=74 v=89
98554 Off ch=1 n=64 v=80
98554 Off ch=1 n=47 v=80
98554 On ch=1 n=58 v=80
98554 Off ch=1 n=81 v=55
98554 Off ch=1 n=78 v=55
98554 Off ch=1 n=75 v=55
98554 On ch=1 n=81 v=55
98554 On ch=1 n=84 v=55
98554 On ch=1 n=88 v=55
98569 Off ch=1 n=78 v=89
98569 On ch=1 n=75 v=89
98569 Off ch=1 n=74 v=89
98584 Off ch=1 n=80 v=89
98584 On ch=1 n=80 v=89
98584 Off ch=1 n=69 v=80
98584 On ch=1 n=74 v=80
98584 Meta Lyric "A "
98584 Off ch=1 n=74 v=80
98584 Off ch=1 n=71 v=80
98584 On ch=1 n=69 v=80
98584 On ch=1 n=73 v=80
98584 Off ch=1 n=56 v=80
98584 On ch=1 n=41 v=80
98584 Off ch=1 n=88 v=55
98584 Off ch=1 n=84 v=55
98584 Off ch=1 n=81 v=55
98584 Off ch=1 n=72 v=89
98584 Off ch=1 n=50 v=89
98584 On ch=1 n=54 v=89
98584 Off ch=1 n=28 v=89
98599 Off ch=1 n=75 v=89
98599 Off ch=1 n=77 v=89
98599 On ch=1 n=80 v=89
98599 On ch=1 n=77 v=89
98608 Off ch=1 n=67 v=80
98614 Off ch=1 n=80 v=89
98614 On ch=1 n=79 v=89
98614 Off ch=1 n=68 v=89
98614 On ch=1 n=72 v=89
98614 On ch=1 n=74 v=89
98614 On ch=1 n=70 v=89
98614 Off ch=1 n=54 v=89
98629 Off ch=1 n=79 v=89
98629 Off ch=1 n=77 v=89
98629 Off ch=1 n=80 v=89
98629 On ch=1 n=77 v=89
98644 Off ch=1 n=58 v=89
98644 Off ch=1 n=58 v=89
98644 Off ch=1 n=73 v=80
98644 Off ch=1 n=69 v=80
98644 Off ch=1 n=58 v=80
98644 Off ch=1 n=41 v=80
98644 Off ch=1 n=45 v=89
98644 Off ch=1 n=41 v=89
98644 Off ch=1 n=74 v=89
98644 Off ch=1 n=77 v=89
98644 Off ch=1 n=70 v=89
98644 Off ch=1 n=74 v=89
98644 Off ch=1 n=72 v=89
98644 On ch=1 n=85 v=89
98644 On ch=1 n=79 v=89
98644 On ch=1 n=71 v=80
98644 Meta Lyric "A "
98644 On ch=1 n=38 v=80
98644 On ch=1 n=71 v=80
98644 On ch=1 n=74 v=80
98644 On ch=1 n=38 v=80
98644 On ch=1 n=81 v=55
98644 On ch=1 n=84 v=55
98644 On ch=1 n=88 v=55
98644 Meta Lyric "Piano "
98644 On ch=1 n=88 v=89
98644 On ch=1 n=84 v=89
98644 On ch=1 n=79 v=89
98644 On ch=1 n=50 v=89
98644 Meta Lyric "A"
98644 On ch=1 n=53 v=89
98645 Off ch=1 n=56 v=89
98674 Off ch=1 n=85 v=89
98674 On ch=1 n=81 v=89
98674 Off ch=1 n=74 v=80
98674 Off ch=1 n=71 v=80
98680 Off ch=1 n=56 v=80
98704 Off ch=1 n=71 v=80
98704 On ch=1 n=73 v=80
98704 On ch=1 n=72 v=80
98704 On ch=1 n=76 v=80
98704 Off ch=1 n=64 v=80
98704 On ch=1 n=63 v=80
98704 Off ch=1 n=88 v=55
98704 Off ch=1 n=84 v=55
98704 Off ch=1 n=81 v=55
98704 On ch=1 n=59 v=80
98704 On ch=1 n=63 v=80
98704 On ch=1 n=66 v=80
98704 Off ch=1 n=88 v=89
98704 On ch=1 n=90 v=89
98704 Off ch=1 n=84 v=89
98704 On ch=1 n=86 v=89
98704 On ch=1 n=83 v=89
98704 Off ch=1 n=79 v=89
98704 On ch=1 n=82 v=89
98704 On ch=1 n=76 v=89
98719 Off ch=1 n=81 v=89
98719 On ch=1 n=81 v=89
98719 Off ch=1 n=76 v=80
98719 Off ch=1 n=72 v=80
98724 Off ch=1 n=74 v=80
98724 On ch=1 n=72 v=80
98734 Off ch=1 n=73 v=80
98734 On ch=1 n=74 v=80
98734 On ch=1 n=74 v=80
98734 On ch=1 n=78 v=80
98734 Off ch=1 n=90 v=89
98734 On ch=1 n=92 v=89
98734 Off ch=1 n=83 v=89
98734 Off ch=1 n=86 v=89
98734 On ch=1 n=88 v=89
98734 On ch=1 n=85 v=89
98734 Off ch=1 n=76 v=89
98734 Off ch=1 n=82 v=89
98734 On ch=1 n=82 v=89
98734 On ch=1 n=77 v=89
98744 Off ch=1 n=72 v=80
98744 On ch=1 n=72 v=80
98744 Meta Lyric "r "
98749 Off ch=1 n=81 v=89
98749 On ch=1 n=80 v=89
98764 Meta Lyric "-,,hCymb. "
98764 On ch=1 n=45 v=80
98765 Off ch=1 n=57 v=80
98794 Off ch=1 n=45 v=80
98824 On ch=1 n=45 v=80
98824 Meta Lyric "A"
98854 Off ch=1 n=45 v=80
98884 Off ch=1 n=79 v=89
98884 On ch=1 n=81 v=89
98884 Meta Lyric ""
98884 On ch=1 n=57 v=80
98884 On ch=1 n=45 v=80
98884 Meta Lyric ""
98884 Off ch=1 n=92 v=89
98884 On ch=1 n=90 v=89
98884 Off ch=1 n=85 v=89
98884 Off ch=1 n=88 v=89
98884 On ch=1 n=85 v=89
98884 Off ch=1 n=77 v=89
98884 Off ch=1 n=82 v=89
98884 On ch=1 n=82 v=89
98884 On ch=1 n=76 v=89
98884 Off ch=1 n=50 v=89
98884 On ch=1 n=59 v=89
98884 Off ch=1 n=53 v=89
98884 On ch=1 n=38 v=89
98886 Par ch=1 c=64 v=0
98886 Par ch=1 c=64 v=0
98886 Par ch=1 c=64 v=0
98886 Par ch=1 c=64 v=0
98899 Off ch=1 n=80 v=89
98899 On ch=1 n=80 v=89
98914 Off ch=1 n=81 v=89
98914 On ch=1 n=80 v=89
98914 Off ch=1 n=74 v=80
98914 On ch=1 n=71 v=80
98914 Off ch=1 n=78 v=80
98914 Off ch=1 n=74 v=80
98914 On ch=1 n=71 v=80
98914 On ch=1 n=74 v=80
98914 Off ch=1 n=63 v=80
98914 On ch=1 n=62 v=80
98914 Off ch=1 n=66 v=80
98914 Off ch=1 n=63 v=80
98914 Off ch=1 n=59 v=80
98914 On ch=1 n=58 v=80
98914 On ch=1 n=62 v=80
98914 On ch=1 n=65 v=80
98924 Off ch=1 n=72 v=80
98924 On ch=1 n=72 v=80
98929 Off ch=1 n=80 v=89
98929 On ch=1 n=80 v=89
98929 Off ch=1 n=80 v=89
98944 On ch=1 n=81 v=89
98944 Off ch=1 n=71 v=80
98944 On ch=1 n=67 v=80
98944 Off ch=1 n=38 v=80
98944 Meta Lyric "y "
98944 Off ch=1 n=74 v=80
98944 Off ch=1 n=71 v=80
98944 On ch=1 n=71 v=80
98944 Off ch=1 n=38 v=80
98944 On ch=1 n=44 v=80
98944 Off ch=1 n=57 v=80
98944 On ch=1 n=57 v=80
98944 Off ch=1 n=90 v=89
98944 On ch=1 n=88 v=89
98944 Off ch=1 n=85 v=89
98944 On ch=1 n=84 v=89
98944 On ch=1 n=81 v=89
98944 Off ch=1 n=76 v=89
98944 Off ch=1 n=82 v=89
98944 On ch=1 n=77 v=89
98944 On ch=1 n=74 v=89
98959 Off ch=1 n=80 v=89
98959 On ch=1 n=83 v=89
98959 Off ch=1 n=81 v=89
98959 On ch=1 n=80 v=89
98959 Meta Lyric ""
98964 Off ch=1 n=72 v=80
98964 On ch=1 n=67 v=80
98974 Off ch=1 n=88 v=89
98974 On ch=1 n=86 v=89
98974 Off ch=1 n=84 v=89
98974 On ch=1 n=81 v=89
98974 On ch=1 n=83 v=89
98974 Off ch=1 n=74 v=89
98974 Off ch=1 n=77 v=89
98974 On ch=1 n=76 v=89
98974 On ch=1 n=72 v=89
98980 Par ch=1 c=64 v=0
98980 Par ch=1 c=64 v=0
98980 Par ch=1 c=64 v=0
98980 Par ch=1 c=64 v=0
98980 Par ch=1 c=64 v=127
98980 Par ch=1 c=64 v=127
98980 Par ch=1 c=64 v=127
98980 Par ch=1 c=64 v=127
98989 Off ch=1 n=83 v=89
98989 Off ch=1 n=80 v=89
98989 On ch=1 n=77 v=89
99004 Meta Lyric ".be "
99004 On ch=1 n=45 v=80
99004 Off ch=1 n=45 v=80
99004 Off ch=1 n=86 v=89
99004 On ch=1 n=84 v=89
99004 Off ch=1 n=83 v=89
99004 Off ch=1 n=81 v=89
99004 Off ch=1 n=72 v=89
99004 Off ch=1 n=76 v=89
99004 On ch=1 n=74 v=89
99004 On ch=1 n=70 v=89
99004 Off ch=1 n=59 v=89
99004 On ch=1 n=56 v=89
99004 Off ch=1 n=38 v=89
99019 On ch=1 n=84 v=89
99019 On ch=1 n=80 v=89
99019 Meta Lyric ""
99019 Off ch=1 n=56 v=89
99022 Off ch=1 n=57 v=80
99024 Off ch=1 n=67 v=80
99024 On ch=1 n=68 v=80
99026 Off ch=1 n=77 v=89
99029 Off ch=1 n=84 v=89
99029 On ch=1 n=85 v=89
99034 Off ch=1 n=68 v=80
99034 Off ch=1 n=65 v=80
99034 Off ch=1 n=62 v=80
99034 Off ch=1 n=58 v=80
99034 On ch=1 n=52 v=80
99034 On ch=1 n=56 v=80
99034 On ch=1 n=59 v=80
99034 On ch=1 n=58 v=89
99044 On ch=1 n=70 v=80
99049 Off ch=1 n=80 v=89
99049 On ch=1 n=80 v=89
99064 Off ch=1 n=71 v=80
99064 Off ch=1 n=62 v=80
99064 On ch=1 n=56 v=80
99064 Meta Lyric "J "
99064 On ch=1 n=57 v=80
99064 Off ch=1 n=84 v=89
99064 On ch=1 n=82 v=89
99064 Off ch=1 n=70 v=89
99064 Off ch=1 n=74 v=89
99064 On ch=1 n=70 v=50
99069 Off ch=1 n=85 v=89
99069 On ch=1 n=86 v=89
99079 Off ch=1 n=80 v=89
99079 On ch=1 n=81 v=89
99079 Meta Lyric ""
99079 Off ch=1 n=58 v=89
99084 Off ch=1 n=70 v=80
99084 On ch=1 n=74 v=80
99089 Off ch=1 n=86 v=89
99089 On ch=1 n=87 v=89
99094 Off ch=1 n=59 v=80
99094 Off ch=1 n=56 v=80
99094 Off ch=1 n=52 v=80
99094 On ch=1 n=57 v=80
99094 Off ch=1 n=82 v=89
99094 On ch=1 n=78 v=89
99104 Off ch=1 n=74 v=80
99109 Off ch=1 n=81 v=89
99109 On ch=1 n=80 v=89
99109 On ch=1 n=81 v=89
99124 Meta Lyric "$_"
99124 Off ch=1 n=45 v=80
99124 On ch=1 n=50 v=80
99124 Off ch=1 n=56 v=80
99124 On ch=1 n=58 v=80
99124 Off ch=1 n=57 v=80
99124 Off ch=1 n=78 v=89
99124 On ch=1 n=77 v=89
99124 Off ch=1 n=81 v=89
99124 On ch=1 n=81 v=89
99124 On ch=1 n=77 v=89
99124 Off ch=1 n=70 v=50
99124 On ch=1 n=65 v=105
99124 On ch=1 n=50 v=89
99124 On ch=1 n=38 v=89
99139 Off ch=1 n=58 v=80
99149 Off ch=1 n=87 v=89
99149 On ch=1 n=87 v=89
99154 Meta Lyric ""
99154 On ch=1 n=38 v=80
99154 On ch=1 n=41 v=80
99154 On ch=1 n=45 v=80
99394 Off ch=1 n=45 v=80
99394 Off ch=1 n=41 v=80
99394 Off ch=1 n=38 v=80
99394 On ch=1 n=38 v=80
99394 On ch=1 n=41 v=80
99394 On ch=1 n=45 v=80
99454 Off ch=1 n=45 v=80
99454 Off ch=1 n=41 v=80
99454 Off ch=1 n=38 v=80
99454 On ch=1 n=45 v=80
99454 On ch=1 n=48 v=80
99454 On ch=1 n=51 v=80
99469 Off ch=1 n=51 v=80
99469 Off ch=1 n=48 v=80
99469 Off ch=1 n=45 v=80
99484 On ch=1 n=45 v=100
99484 On ch=1 n=48 v=100
99484 On ch=1 n=51 v=100
99544 On ch=1 n=60 v=80
99544 Off ch=1 n=77 v=89
99544 On ch=1 n=74 v=89
99544 Off ch=1 n=65 v=105
99544 On ch=1 n=77 v=89
99544 On ch=1 n=74 v=89
99544 On ch=1 n=74 v=89
99554 Off ch=1 n=87 v=89
99559 Off ch=1 n=81 v=89
99559 On ch=1 n=82 v=89
99574 Off ch=1 n=67 v=80
99574 Off ch=1 n=44 v=80
99574 On ch=1 n=50 v=80
99574 Off ch=1 n=74 v=89
99574 Off ch=1 n=77 v=89
99574 Off ch=1 n=81 v=89
99574 On ch=1 n=76 v=89
99574 On ch=1 n=80 v=89
99574 On ch=1 n=76 v=89
99574 Off ch=1 n=50 v=89
99574 On ch=1 n=52 v=89
99589 Off ch=1 n=82 v=89
99589 On ch=1 n=84 v=89
99604 Off ch=1 n=60 v=80
99604 On ch=1 n=64 v=80
99604 Off ch=1 n=51 v=100
99604 Off ch=1 n=48 v=100
99604 Off ch=1 n=45 v=100
99604 On ch=1 n=55 v=80
99604 Off ch=1 n=76 v=89
99604 Off ch=1 n=80 v=89
99604 Off ch=1 n=76 v=89
99604 On ch=1 n=76 v=89
99604 On ch=1 n=73 v=89
99604 On ch=1 n=76 v=89
99604 Off ch=1 n=74 v=89
99604 Off ch=1 n=77 v=89
99604 On ch=1 n=77 v=89
99604 On ch=1 n=72 v=89
99619 Off ch=1 n=80 v=89
99619 Off ch=1 n=64 v=80
99619 Off ch=1 n=55 v=80
99634 Off ch=1 n=84 v=89
99634 Off ch=1 n=50 v=80
99634 Off ch=1 n=50 v=80
99634 Off ch=1 n=57 v=80
99634 Off ch=1 n=76 v=89
99634 Off ch=1 n=73 v=89
99634 Off ch=1 n=76 v=89
99634 Off ch=1 n=72 v=89
99634 Off ch=1 n=77 v=89
99634 Off ch=1 n=74 v=89
99634 Off ch=1 n=52 v=89
99634 Off ch=1 n=38 v=89
99634 On ch=1 n=70 v=89
99634 Meta Lyric "A "
99634 On ch=1 n=68 v=80
99634 Meta Lyric ")'' "
99634 On ch=1 n=38 v=80
99634 On ch=1 n=67 v=80
99634 On ch=1 n=71 v=80
99634 On ch=1 n=50 v=80
99634 On ch=1 n=38 v=80
99634 On ch=1 n=57 v=55
99634 On ch=1 n=45 v=55
99634 On ch=1 n=50 v=80
99634 Meta Lyric "i "
99634 Meta Lyric "dit "
99634 On ch=1 n=61 v=89
99634 On ch=1 n=50 v=89
99634 Meta Lyric "CO"
99634 On ch=1 n=50 v=55
99634 On ch=1 n=61 v=55
99635 Off ch=1 n=85 v=89
99635 Off ch=1 n=63 v=80
99635 Off ch=1 n=56 v=89
99635 Off ch=1 n=59 v=89
99664 On ch=1 n=82 v=89
99664 Off ch=1 n=38 v=80
99664 On ch=1 n=51 v=80
99664 Off ch=1 n=38 v=80
99664 On ch=1 n=51 v=80
99664 On ch=1 n=79 v=89
99664 On ch=1 n=87 v=89
99664 On ch=1 n=73 v=89
99664 On ch=1 n=84 v=89
99664 Meta Lyric "di "
99664 On ch=1 n=67 v=89
99664 Off ch=1 n=61 v=89
99664 Off ch=1 n=61 v=55
99664 Off ch=1 n=50 v=55
99674 On ch=1 n=72 v=89
99686 Off ch=1 n=82 v=89
99694 Off ch=1 n=51 v=80
99694 Off ch=1 n=71 v=80
99694 Off ch=1 n=67 v=80
99694 On ch=1 n=67 v=80
99694 On ch=1 n=71 v=80
99694 Meta Lyric "A "
99694 Off ch=1 n=50 v=80
99694 On ch=1 n=62 v=80
99694 Meta Lyric "r "
99694 Off ch=1 n=87 v=89
99694 Off ch=1 n=79 v=89
99694 Off ch=1 n=84 v=89
99694 Off ch=1 n=73 v=89
99694 Off ch=1 n=67 v=89
99694 Off ch=1 n=50 v=89
99694 On ch=1 n=61 v=89
99694 On ch=1 n=50 v=89
99694 On ch=1 n=50 v=55
99694 On ch=1 n=61 v=55
99709 On ch=1 n=89 v=89
99709 Off ch=1 n=71 v=80
99709 Off ch=1 n=67 v=80
99709 Off ch=1 n=45 v=55
99714 Off ch=1 n=72 v=89
99714 On ch=1 n=72 v=89
99724 On ch=1 n=50 v=80
99724 On ch=1 n=67 v=105
99724 On ch=1 n=71 v=105
99724 Off ch=1 n=51 v=80
99724 On ch=1 n=50 v=80
99724 On ch=1 n=79 v=89
99724 On ch=1 n=86 v=89
99724 On ch=1 n=73 v=89
99724 On ch=1 n=84 v=89
99724 On ch=1 n=67 v=89
99734 Off ch=1 n=72 v=89
99754 Off ch=1 n=70 v=89
99754 On ch=1 n=87 v=89
99754 Off ch=1 n=68 v=80
99754 On ch=1 n=68 v=80
99754 Off ch=1 n=71 v=105
99754 Off ch=1 n=67 v=105
99754 On ch=1 n=67 v=101
99754 On ch=1 n=71 v=101
99754 Off ch=1 n=62 v=80
99754 On ch=1 n=60 v=80
99754 Off ch=1 n=57 v=55
99754 On ch=1 n=57 v=55
99754 On ch=1 n=45 v=55
99754 Off ch=1 n=50 v=80
99754 On ch=1 n=41 v=80
99754 On ch=1 n=45 v=80
99754 Off ch=1 n=84 v=89
99754 Off ch=1 n=73 v=89
99754 Off ch=1 n=50 v=89
99754 Off ch=1 n=61 v=89
99754 On ch=1 n=61 v=89
99754 On ch=1 n=50 v=89
99754 Off ch=1 n=61 v=55
99754 Off ch=1 n=50 v=55
99754 On ch=1 n=50 v=55
99754 On ch=1 n=61 v=55
99761 Off ch=1 n=50 v=80
99769 Off ch=1 n=89 v=89
99769 On ch=1 n=93 v=89
99769 Off ch=1 n=87 v=89
99784 On ch=1 n=79 v=89
99784 On ch=1 n=51 v=80
99784 On ch=1 n=51 v=80
99784 Off ch=1 n=45 v=80
99784 Off ch=1 n=41 v=80
99784 Off ch=1 n=86 v=89
99784 Off ch=1 n=79 v=89
99784 On ch=1 n=79 v=89
99784 On ch=1 n=86 v=89
99784 Meta Lyric "A "
99784 On ch=1 n=73 v=89
99784 On ch=1 n=84 v=89
99784 Off ch=1 n=67 v=89
99784 On ch=1 n=67 v=89
99784 Off ch=1 n=61 v=89
99784 Off ch=1 n=50 v=89
99784 Off ch=1 n=61 v=55
99784 Off ch=1 n=50 v=55
99794 On ch=1 n=74 v=89
99799 Off ch=1 n=50 v=80
99814 Off ch=1 n=79 v=89
99814 On ch=1 n=86 v=89
99814 Off ch=1 n=68 v=80
99814 Off ch=1 n=51 v=80
99814 Off ch=1 n=71 v=101
99814 Off ch=1 n=67 v=101
99814 Off ch=1 n=60 v=80
99814 On ch=1 n=62 v=80
99814 Off ch=1 n=45 v=55
99814 On ch=1 n=40 v=80
99814 On ch=1 n=42 v=80
99814 Meta Lyric "sf "
99814 Off ch=1 n=86 v=89
99814 Off ch=1 n=79 v=89
99814 Off ch=1 n=67 v=89
99814 On ch=1 n=61 v=89
99814 On ch=1 n=50 v=89
99814 On ch=1 n=50 v=55
99814 On ch=1 n=61 v=55
99821 Off ch=1 n=51 v=80
99829 Off ch=1 n=61 v=89
99829 Off ch=1 n=61 v=55
99829 Off ch=1 n=50 v=55
99834 Off ch=1 n=74 v=89
99834 On ch=1 n=73 v=89
99844 Off ch=1 n=86 v=89
99844 On ch=1 n=50 v=80
99844 Off ch=1 n=62 v=80
99844 On ch=1 n=50 v=80
99844 Off ch=1 n=57 v=55
99844 On ch=1 n=57 v=55
99844 On ch=1 n=79 v=89
99844 On ch=1 n=87 v=89
99844 Off ch=1 n=84 v=89
99844 Off ch=1 n=73 v=89
99844 On ch=1 n=73 v=89
99844 On ch=1 n=84 v=89
99844 On ch=1 n=67 v=89
99844 On ch=1 n=76 v=89
99844 Off ch=1 n=50 v=89
99844 On ch=1 n=47 v=89
99854 Off ch=1 n=73 v=89
99859 Off ch=1 n=50 v=80
99859 Off ch=1 n=76 v=89
99859 Off ch=1 n=67 v=89
99874 On ch=1 n=69 v=80
99874 Off ch=1 n=50 v=80
99874 On ch=1 n=38 v=80
99874 On ch=1 n=74 v=89
99874 On ch=1 n=69 v=84
99874 On ch=1 n=73 v=84
99874 On ch=1 n=50 v=80
99874 On ch=1 n=38 v=80
99874 Off ch=1 n=57 v=55
99874 On ch=1 n=57 v=55
99874 Off ch=1 n=42 v=80
99874 Off ch=1 n=40 v=80
99874 On ch=1 n=41 v=80
99874 On ch=1 n=45 v=80
99874 Off ch=1 n=87 v=89
99874 Off ch=1 n=79 v=89
99874 Off ch=1 n=84 v=89
99874 Off ch=1 n=73 v=89
99889 Off ch=1 n=93 v=89
99889 On ch=1 n=90 v=89
99889 Meta Lyric "b "
99904 On ch=1 n=78 v=89
99904 Off ch=1 n=69 v=80
99904 Off ch=1 n=45 v=80
99904 Off ch=1 n=41 v=80
99914 Off ch=1 n=74 v=89
99919 Off ch=1 n=90 v=89
99934 Off ch=1 n=78 v=89
99934 On ch=1 n=86 v=89
99934 On ch=1 n=69 v=80
99934 Off ch=1 n=73 v=84
99934 Off ch=1 n=69 v=84
99934 On ch=1 n=69 v=76
99934 On ch=1 n=73 v=76
99934 Off ch=1 n=50 v=80
99934 On ch=1 n=64 v=80
99934 On ch=1 n=78 v=89
99934 On ch=1 n=86 v=89
99934 On ch=1 n=82 v=89
99934 On ch=1 n=83 v=89
99934 On ch=1 n=72 v=89
99934 On ch=1 n=72 v=89
99949 On ch=1 n=89 v=89
99949 Meta Lyric "A "
99949 Off ch=1 n=86 v=89
99949 Off ch=1 n=64 v=80
99949 On ch=1 n=50 v=55
99949 On ch=1 n=63 v=55
99964 On ch=1 n=78 v=89
99964 Off ch=1 n=69 v=80
99964 On ch=1 n=69 v=80
99964 Off ch=1 n=73 v=76
99964 Off ch=1 n=69 v=76
99964 On ch=1 n=69 v=72
99964 On ch=1 n=73 v=72
99964 On ch=1 n=62 v=80
99964 Off ch=1 n=72 v=89
99964 Off ch=1 n=72 v=89
99964 Off ch=1 n=47 v=89
99964 On ch=1 n=36 v=89
99964 Meta Lyric "dir "
99968 Par ch=1 c=64 v=0
99968 Par ch=1 c=64 v=0
99968 Par ch=1 c=64 v=0
99968 Par ch=1 c=64 v=0
99979 Off ch=1 n=89 v=89
99979 On ch=1 n=82 v=89
99979 Off ch=1 n=63 v=55
99979 Off ch=1 n=50 v=55
99979 On ch=1 n=50 v=55
99979 On ch=1 n=63 v=55
99994 Off ch=1 n=82 v=89
99994 Off ch=1 n=78 v=89
99994 On ch=1 n=89 v=80
99994 Off ch=1 n=69 v=80
99994 On ch=1 n=69 v=80
99994 Off ch=1 n=38 v=80
99994 On ch=1 n=40 v=80
99994 Off ch=1 n=73 v=72
99994 Off ch=1 n=69 v=72
99994 On ch=1 n=69 v=67
99994 On ch=1 n=73 v=67
99994 Off ch=1 n=38 v=80
99994 On ch=1 n=38 v=80
99994 Off ch=1 n=57 v=55
99994 On ch=1 n=45 v=55
99994 Off ch=1 n=86 v=89
99994 Off ch=1 n=78 v=89
99994 On ch=1 n=78 v=89
99994 On ch=1 n=86 v=89
99994 On ch=1 n=62 v=89
99994 On ch=1 n=64 v=89
100024 Off ch=1 n=89 v=80
100024 Off ch=1 n=73 v=67
100024 Off ch=1 n=69 v=67
100024 Off ch=1 n=62 v=80
100024 On ch=1 n=64 v=80
100039 On ch=1 n=83 v=89
100039 Off ch=1 n=64 v=89
100039 Off ch=1 n=62 v=89
100054 On ch=1 n=87 v=80
100054 Off ch=1 n=69 v=80
100054 On ch=1 n=69 v=80
100054 On ch=1 n=38 v=80
100054 On ch=1 n=69 v=59
100054 On ch=1 n=74 v=59
100054 Off ch=1 n=45 v=55
100054 On ch=1 n=50 v=80
100064 Off ch=1 n=38 v=80
100064 Off ch=1 n=40 v=80
100069 Off ch=1 n=87 v=80
100070 Par ch=1 c=64 v=0
100070 Par ch=1 c=64 v=0
100070 Par ch=1 c=64 v=0
100070 Par ch=1 c=64 v=0
100070 Par ch=1 c=64 v=127
100070 Par ch=1 c=64 v=127
100070 Par ch=1 c=64 v=127
100070 Par ch=1 c=64 v=127
100074 On ch=1 n=57 v=55
100084 Off ch=1 n=83 v=89
100084 On ch=1 n=91 v=89
100084 On ch=1 n=78 v=80
100084 Off ch=1 n=74 v=59
100084 Off ch=1 n=69 v=59
100084 Off ch=1 n=64 v=80
100084 Off ch=1 n=38 v=80
100084 On ch=1 n=38 v=80
100084 Off ch=1 n=86 v=89
100084 Off ch=1 n=78 v=89
100084 On ch=1 n=62 v=89
100084 On ch=1 n=64 v=89
100084 On ch=1 n=72 v=89
100084 On ch=1 n=72 v=89
100084 Off ch=1 n=36 v=89
100084 On ch=1 n=50 v=89
100084 On ch=1 n=63 v=89
100099 Par ch=1 c=64 v=0
100099 Par ch=1 c=64 v=0
100099 Par ch=1 c=64 v=0
100099 Par ch=1 c=64 v=0
100099 On ch=1 n=46 v=80
100099 On ch=1 n=48 v=80
100099 Meta Lyric "6 "
100100 Off ch=1 n=61 v=80
100100 Off ch=1 n=57 v=80
100100 Off ch=1 n=53 v=80
100100 Off ch=1 n=63 v=80
100100 Off ch=1 n=59 v=80
100129 Off ch=1 n=48 v=80
100129 Off ch=1 n=46 v=80
100159 On ch=1 n=46 v=80
100159 On ch=1 n=48 v=80
100174 Off ch=1 n=48 v=80
100174 Off ch=1 n=46 v=80
100174 On ch=1 n=46 v=80
100174 On ch=1 n=48 v=80
100204 Off ch=1 n=48 v=80
100204 Off ch=1 n=46 v=80
100204 On ch=1 n=46 v=80
100204 On ch=1 n=48 v=80
100204 Meta Lyric "xl "
100234 Off ch=1 n=48 v=80
100234 Off ch=1 n=46 v=80
100264 On ch=1 n=46 v=80
100264 On ch=1 n=48 v=80
100294 Off ch=1 n=48 v=80
100294 Off ch=1 n=46 v=80
100324 On ch=1 n=47 v=80
100324 On ch=1 n=50 v=80
100354 Off ch=1 n=50 v=80
100354 Off ch=1 n=47 v=80
100384 On ch=1 n=47 v=80
100384 On ch=1 n=50 v=80
100399 Off ch=1 n=50 v=80
100399 Off ch=1 n=47 v=80
100414 On ch=1 n=47 v=80
100429 Off ch=1 n=47 v=80
100429 On ch=1 n=47 v=80
100429 On ch=1 n=50 v=80
100429 Meta Lyric "l "
100489 Off ch=1 n=50 v=80
100489 Off ch=1 n=47 v=80
100564 Off ch=1 n=91 v=89
100579 Off ch=1 n=78 v=80
100579 Off ch=1 n=69 v=80
100579 Off ch=1 n=57 v=55
100579 Off ch=1 n=50 v=80
100579 Off ch=1 n=72 v=89
100579 Off ch=1 n=72 v=89
100579 Off ch=1 n=64 v=89
100579 Off ch=1 n=62 v=89
100579 Off ch=1 n=63 v=89
100579 Off ch=1 n=50 v=89
100579 Off ch=1 n=63 v=55
100579 Off ch=1 n=50 v=55
100579 On ch=1 n=87 v=89
100579 On ch=1 n=88 v=80
100579 On ch=1 n=73 v=89
100579 On ch=1 n=68 v=50
100579 On ch=1 n=71 v=50
100579 On ch=1 n=50 v=80
100579 On ch=1 n=57 v=55
100579 On ch=1 n=45 v=55
100579 On ch=1 n=46 v=80
100579 On ch=1 n=48 v=80
100579 On ch=1 n=38 v=89
100579 On ch=1 n=67 v=89
100579 On ch=1 n=76 v=89
100579 On ch=1 n=50 v=89
100579 On ch=1 n=61 v=89
100579 On ch=1 n=50 v=55
100579 On ch=1 n=61 v=55
100580 Off ch=1 n=93 v=89
100580 Off ch=1 n=91 v=89
100597 Off ch=1 n=83 v=89
100597 Off ch=1 n=82 v=89
100609 Off ch=1 n=87 v=89
100609 On ch=1 n=85 v=80
100609 Meta Lyric "b "
100609 Off ch=1 n=88 v=80
100609 Off ch=1 n=71 v=50
100609 Off ch=1 n=68 v=50
100609 On ch=1 n=68 v=80
100609 On ch=1 n=71 v=80
100609 On ch=1 n=58 v=80
100609 Off ch=1 n=48 v=80
100609 Off ch=1 n=46 v=80
100609 On ch=1 n=79 v=89
100609 On ch=1 n=87 v=89
100609 Meta Lyric "dir "
100609 On ch=1 n=73 v=89
100609 On ch=1 n=84 v=89
100619 Off ch=1 n=73 v=89
100619 On ch=1 n=68 v=89
100639 On ch=1 n=87 v=89
100639 Off ch=1 n=85 v=80
100639 On ch=1 n=85 v=80
100639 Off ch=1 n=71 v=80
100639 Off ch=1 n=68 v=80
100639 Off ch=1 n=50 v=80
100639 On ch=1 n=51 v=80
100639 Off ch=1 n=45 v=55
100639 On ch=1 n=46 v=80
100639 On ch=1 n=48 v=80
100639 Off ch=1 n=61 v=89
100639 Off ch=1 n=50 v=89
100639 On ch=1 n=49 v=89
100639 On ch=1 n=60 v=89
100654 Off ch=1 n=48 v=80
100654 Off ch=1 n=46 v=80
100659 Off ch=1 n=68 v=89
100659 On ch=1 n=69 v=89
100659 Off ch=1 n=61 v=55
100659 Off ch=1 n=50 v=55
100659 On ch=1 n=37 v=55
100666 Off ch=1 n=37 v=55
100666 On ch=1 n=50 v=55
100669 Off ch=1 n=87 v=89
100669 On ch=1 n=84 v=80
100669 Off ch=1 n=85 v=80
100669 On ch=1 n=68 v=80
100669 On ch=1 n=71 v=80
100669 Off ch=1 n=58 v=80
100669 On ch=1 n=57 v=80
100669 On ch=1 n=46 v=80
100669 On ch=1 n=48 v=80
100669 Off ch=1 n=87 v=89
100669 Off ch=1 n=79 v=89
100669 On ch=1 n=78 v=89
100669 Off ch=1 n=84 v=89
100669 Off ch=1 n=73 v=89
100669 On ch=1 n=72 v=89
100669 On ch=1 n=81 v=89
100669 Meta Lyric "l "
100699 Meta Lyric "I "
100699 On ch=1 n=50 v=80
100759 Off ch=1 n=50 v=80
100759 On ch=1 n=58 v=80
100819 On ch=1 n=84 v=89
100819 On ch=1 n=84 v=80
100819 On ch=1 n=64 v=80
100819 Off ch=1 n=69 v=89
100819 On ch=1 n=70 v=89
100819 Off ch=1 n=71 v=80
100819 Off ch=1 n=68 v=80
100819 Off ch=1 n=51 v=80
100819 On ch=1 n=52 v=80
100819 Off ch=1 n=57 v=55
100819 On ch=1 n=57 v=55
100819 On ch=1 n=45 v=55
100819 Off ch=1 n=48 v=80
100819 Off ch=1 n=46 v=80
100819 On ch=1 n=46 v=80
100819 On ch=1 n=48 v=80
100819 Off ch=1 n=58 v=80
100819 On ch=1 n=51 v=80
100819 Off ch=1 n=38 v=89
100819 Off ch=1 n=67 v=89
100819 On ch=1 n=62 v=89
100819 On ch=1 n=67 v=89
100819 Off ch=1 n=60 v=89
100819 Off ch=1 n=49 v=89
100819 On ch=1 n=48 v=89
100819 On ch=1 n=59 v=89
100819 Meta Lyric ""
100828 Off ch=1 n=84 v=80
100846 Off ch=1 n=50 v=55
100846 On ch=1 n=38 v=55
100846 On ch=1 n=49 v=55
100849 Off ch=1 n=84 v=89
100849 On ch=1 n=82 v=80
100849 Meta Lyric "arca "
100849 Off ch=1 n=84 v=80
100849 Off ch=1 n=64 v=80
100849 On ch=1 n=68 v=80
100849 On ch=1 n=71 v=80
100849 Off ch=1 n=57 v=80
100849 On ch=1 n=56 v=80
100849 Off ch=1 n=48 v=80
100849 Off ch=1 n=46 v=80
100849 Off ch=1 n=78 v=89
100849 On ch=1 n=77 v=89
100849 On ch=1 n=85 v=89
100849 Off ch=1 n=81 v=89
100849 Off ch=1 n=72 v=89
100849 On ch=1 n=71 v=89
100849 On ch=1 n=82 v=89
100849 Off ch=1 n=76 v=89
100849 On ch=1 n=60 v=89
100849 On ch=1 n=65 v=89
100856 Off ch=1 n=67 v=89
100856 Off ch=1 n=62 v=89
100859 Off ch=1 n=70 v=89
100859 On ch=1 n=73 v=89
100866 Off ch=1 n=49 v=55
100866 Off ch=1 n=38 v=55
100866 On ch=1 n=50 v=55
100866 On ch=1 n=61 v=55
100879 On ch=1 n=84 v=89
100879 Meta Lyric ""a "
100879 Off ch=1 n=82 v=80
100879 On ch=1 n=82 v=80
100879 On ch=1 n=83 v=80
100879 On ch=1 n=63 v=80
100879 Off ch=1 n=52 v=80
100879 On ch=1 n=53 v=80
100879 Off ch=1 n=45 v=55
100879 On ch=1 n=46 v=80
100879 On ch=1 n=48 v=80
100879 Off ch=1 n=51 v=80
100879 On ch=1 n=57 v=80
100879 Off ch=1 n=85 v=89
100879 Off ch=1 n=77 v=89
100879 On ch=1 n=74 v=89
100879 Off ch=1 n=59 v=89
100879 Off ch=1 n=48 v=89
100879 On ch=1 n=47 v=89
100879 On ch=1 n=58 v=89
100886 Off ch=1 n=65 v=89
100886 Off ch=1 n=60 v=89
100889 Off ch=1 n=73 v=89
100909 Off ch=1 n=84 v=89
100909 Off ch=1 n=83 v=80
100909 On ch=1 n=82 v=80
100909 Off ch=1 n=71 v=80
100909 Off ch=1 n=68 v=80
100909 On ch=1 n=68 v=80
100909 On ch=1 n=71 v=80
100909 Off ch=1 n=56 v=80
100909 On ch=1 n=55 v=80
100909 Off ch=1 n=57 v=55
100909 On ch=1 n=57 v=55
100909 On ch=1 n=75 v=89
100909 On ch=1 n=83 v=89
100909 Off ch=1 n=82 v=89
100909 Off ch=1 n=71 v=89
100909 Off ch=1 n=58 v=89
100909 Off ch=1 n=47 v=89
100909 On ch=1 n=47 v=89
100919 On ch=1 n=74 v=89
100939 On ch=1 n=83 v=89
100939 Meta Lyric "cato "
100939 Off ch=1 n=82 v=80
100939 On ch=1 n=81 v=80
100939 On ch=1 n=62 v=80
100939 Off ch=1 n=53 v=80
100939 On ch=1 n=53 v=80
100939 Off ch=1 n=57 v=55
100939 On ch=1 n=57 v=55
100939 Off ch=1 n=57 v=80
100939 On ch=1 n=56 v=80
100939 On ch=1 n=52 v=80
100946 Off ch=1 n=61 v=55
100946 Off ch=1 n=50 v=55
100954 Off ch=1 n=63 v=80
100959 Off ch=1 n=74 v=89
100959 On ch=1 n=74 v=89
100969 Off ch=1 n=81 v=80
100969 Off ch=1 n=82 v=80
100969 On ch=1 n=81 v=80
100969 On ch=1 n=69 v=80
100969 On ch=1 n=73 v=80
100969 Off ch=1 n=55 v=80
100969 On ch=1 n=54 v=80
100969 Off ch=1 n=83 v=89
100969 Off ch=1 n=75 v=89
100987 Off ch=1 n=71 v=80
100987 Off ch=1 n=68 v=80
100989 On ch=1 n=50 v=89
100999 Off ch=1 n=83 v=89
100999 On ch=1 n=82 v=89
100999 On ch=1 n=80 v=80
100999 Off ch=1 n=81 v=80
100999 On ch=1 n=61 v=80
100999 Off ch=1 n=74 v=89
100999 On ch=1 n=74 v=89
100999 Off ch=1 n=53 v=80
100999 On ch=1 n=55 v=80
100999 Off ch=1 n=48 v=80
100999 Off ch=1 n=46 v=80
100999 On ch=1 n=47 v=80
100999 On ch=1 n=50 v=80
100999 On ch=1 n=54 v=80
100999 Off ch=1 n=52 v=80
100999 Off ch=1 n=56 v=80
100999 On ch=1 n=51 v=80
100999 On ch=1 n=52 v=80
100999 Off ch=1 n=74 v=89
101009 Off ch=1 n=47 v=89
101014 Off ch=1 n=62 v=80
101014 Off ch=1 n=50 v=89
101019 Off ch=1 n=74 v=89
101029 Off ch=1 n=80 v=80
101029 On ch=1 n=78 v=80
101029 Off ch=1 n=73 v=80
101029 Off ch=1 n=69 v=80
101029 On ch=1 n=69 v=80
101029 On ch=1 n=73 v=80
101029 Off ch=1 n=54 v=80
101029 On ch=1 n=53 v=80
101029 On ch=1 n=69 v=89
101029 On ch=1 n=71 v=89
101029 On ch=1 n=81 v=89
101029 On ch=1 n=50 v=89
101036 Off ch=1 n=61 v=80
101049 Off ch=1 n=50 v=89
101049 On ch=1 n=50 v=89
101049 On ch=1 n=60 v=89
101059 Off ch=1 n=82 v=89
101059 On ch=1 n=81 v=89
101059 On ch=1 n=79 v=80
101059 Off ch=1 n=78 v=80
101059 On ch=1 n=77 v=80
101059 On ch=1 n=60 v=80
101059 Off ch=1 n=55 v=80
101059 On ch=1 n=56 v=80
101059 Off ch=1 n=57 v=55
101059 On ch=1 n=45 v=55
101059 Off ch=1 n=52 v=80
101059 Off ch=1 n=51 v=80
101059 On ch=1 n=55 v=80
101059 On ch=1 n=69 v=89
101066 On ch=1 n=50 v=55
101089 Off ch=1 n=81 v=89
101089 Off ch=1 n=77 v=80
101089 Off ch=1 n=73 v=80
101089 Off ch=1 n=69 v=80
101089 On ch=1 n=69 v=80
101089 On ch=1 n=73 v=80
101089 Off ch=1 n=53 v=80
101089 On ch=1 n=52 v=80
101089 Off ch=1 n=55 v=80
101089 On ch=1 n=54 v=80
101089 On ch=1 n=54 v=80
101089 Off ch=1 n=69 v=89
101089 On ch=1 n=61 v=89
101089 On ch=1 n=71 v=89
101089 Off ch=1 n=81 v=89
101089 Off ch=1 n=71 v=89
101089 On ch=1 n=70 v=89
101089 On ch=1 n=80 v=89
101091 Par ch=1 c=64 v=0
101091 Par ch=1 c=64 v=0
101091 Par ch=1 c=64 v=0
101091 Par ch=1 c=64 v=0
101096 Off ch=1 n=60 v=80
101119 On ch=1 n=80 v=89
101119 Off ch=1 n=79 v=80
101119 On ch=1 n=78 v=80
101119 On ch=1 n=61 v=80
101119 Off ch=1 n=56 v=80
101119 On ch=1 n=57 v=80
101119 Off ch=1 n=45 v=55
101119 Off ch=1 n=54 v=80
101119 Off ch=1 n=50 v=80
101119 Off ch=1 n=47 v=80
101119 On ch=1 n=35 v=80
101119 On ch=1 n=41 v=80
101119 On ch=1 n=43 v=80
101119 On ch=1 n=46 v=80
101119 Off ch=1 n=71 v=89
101119 Off ch=1 n=61 v=89
101119 On ch=1 n=74 v=89
101119 On ch=1 n=80 v=89
101126 Off ch=1 n=50 v=55
101126 On ch=1 n=50 v=55
101126 On ch=1 n=61 v=55
101129 Off ch=1 n=60 v=89
101129 Off ch=1 n=50 v=89
101134 Off ch=1 n=78 v=80
101137 Par ch=1 c=64 v=0
101137 Par ch=1 c=64 v=0
101137 Par ch=1 c=64 v=0
101137 Par ch=1 c=64 v=0
101139 On ch=1 n=57 v=55
101141 Off ch=1 n=61 v=55
101141 Off ch=1 n=50 v=55
101149 Off ch=1 n=73 v=80
101149 Off ch=1 n=69 v=80
101149 Off ch=1 n=57 v=80
101149 Off ch=1 n=52 v=80
101149 On ch=1 n=51 v=80
101149 Off ch=1 n=80 v=89
101149 Off ch=1 n=70 v=89
101149 On ch=1 n=70 v=89
101149 On ch=1 n=79 v=89
101156 On ch=1 n=50 v=55
101156 On ch=1 n=61 v=55
101179 Off ch=1 n=80 v=89
101179 Off ch=1 n=61 v=80
101179 Off ch=1 n=51 v=80
101179 Off ch=1 n=57 v=55
101179 Off ch=1 n=46 v=80
101179 Off ch=1 n=43 v=80
101179 Off ch=1 n=41 v=80
101179 Off ch=1 n=35 v=80
101179 Off ch=1 n=54 v=80
101179 Off ch=1 n=54 v=80
101179 Off ch=1 n=80 v=89
101179 Off ch=1 n=74 v=89
101179 Off ch=1 n=79 v=89
101179 Off ch=1 n=70 v=89
101179 Off ch=1 n=69 v=89
101179 Off ch=1 n=61 v=55
101179 Off ch=1 n=50 v=55
101179 On ch=1 n=71 v=80
101179 Meta Lyric "Or "
101179 On ch=1 n=71 v=80
101179 On ch=1 n=74 v=80
101179 On ch=1 n=45 v=55
101179 Meta Lyric "b"
101179 Meta Lyric "an "
101180 Off ch=1 n=62 v=80
101180 Off ch=1 n=57 v=55
101180 Off ch=1 n=47 v=80
101180 Off ch=1 n=41 v=80
101180 Off ch=1 n=35 v=80
101219 On ch=1 n=66 v=105
101239 On ch=1 n=84 v=105
101239 On ch=1 n=78 v=80
101239 On ch=1 n=50 v=105
101239 On ch=1 n=54 v=80
101239 On ch=1 n=50 v=80
101239 Off ch=1 n=45 v=55
101239 On ch=1 n=57 v=55
101239 On ch=1 n=71 v=80
101239 On ch=1 n=71 v=80
101239 On ch=1 n=79 v=89
101239 On ch=1 n=86 v=89
101239 On ch=1 n=71 v=105
101239 On ch=1 n=84 v=105
101239 On ch=1 n=62 v=80
101239 On ch=1 n=66 v=80
101239 On ch=1 n=50 v=89
101239 On ch=1 n=54 v=89
101239 On ch=1 n=59 v=89
101239 On ch=1 n=60 v=89
101239 Meta Lyric "aro "
101239 On ch=1 n=38 v=55
101259 Off ch=1 n=66 v=105
101259 On ch=1 n=66 v=69
101271 Off ch=1 n=66 v=69
101276 Off ch=1 n=66 v=80
101276 Off ch=1 n=62 v=80
101279 On ch=1 n=66 v=50
101299 Off ch=1 n=78 v=80
101299 On ch=1 n=78 v=105
101299 Off ch=1 n=66 v=50
101299 Off ch=1 n=74 v=80
101299 Off ch=1 n=71 v=80
101299 On ch=1 n=71 v=80
101299 On ch=1 n=74 v=80
101299 Off ch=1 n=54 v=80
101299 On ch=1 n=54 v=105
101299 Off ch=1 n=57 v=55
101299 On ch=1 n=57 v=55
101299 On ch=1 n=45 v=55
101299 Off ch=1 n=86 v=89
101299 Off ch=1 n=79 v=89
101299 On ch=1 n=79 v=105
101299 On ch=1 n=86 v=105
101299 On ch=1 n=66 v=80
101299 On ch=1 n=62 v=80
101299 Off ch=1 n=54 v=89
101299 Off ch=1 n=50 v=89
101299 On ch=1 n=50 v=89
101299 On ch=1 n=54 v=89
101299 On ch=1 n=59 v=89
101314 On ch=1 n=71 v=50
101314 On ch=1 n=84 v=50
101314 Off ch=1 n=60 v=89
101314 Off ch=1 n=59 v=89
101317 Off ch=1 n=50 v=105
101317 Off ch=1 n=54 v=105
101317 Off ch=1 n=84 v=105
101317 Off ch=1 n=71 v=105
101329 On ch=1 n=84 v=89
101329 Off ch=1 n=78 v=105
101329 On ch=1 n=78 v=50
101329 On ch=1 n=50 v=80
101329 On ch=1 n=54 v=80
101329 Off ch=1 n=86 v=105
101329 Off ch=1 n=79 v=105
101329 On ch=1 n=79 v=50
101329 On ch=1 n=86 v=50
101329 Off ch=1 n=62 v=80
101329 Off ch=1 n=66 v=80
101329 On ch=1 n=66 v=80
101329 On ch=1 n=62 v=80
101329 Off ch=1 n=59 v=89
101329 Off ch=1 n=54 v=89
101329 Off ch=1 n=50 v=89
101329 On ch=1 n=50 v=89
101329 On ch=1 n=54 v=89
101329 On ch=1 n=59 v=89
101336 Off ch=1 n=84 v=105
101359 Off ch=1 n=78 v=50
101359 Off ch=1 n=71 v=80
101359 On ch=1 n=71 v=80
101359 Off ch=1 n=50 v=80
101359 Off ch=1 n=50 v=80
101359 Off ch=1 n=71 v=80
101359 Off ch=1 n=71 v=80
101359 On ch=1 n=62 v=80
101359 On ch=1 n=65 v=80
101359 On ch=1 n=71 v=80
101359 On ch=1 n=72 v=80
101359 On ch=1 n=79 v=80
101359 On ch=1 n=84 v=80
101359 On ch=1 n=87 v=80
101359 On ch=1 n=89 v=80
101374 Off ch=1 n=45 v=55
101374 Off ch=1 n=84 v=50
101374 Off ch=1 n=71 v=50
101379 On ch=1 n=65 v=89
101389 Off ch=1 n=84 v=89
101389 Off ch=1 n=54 v=80
101389 Off ch=1 n=89 v=80
101389 Off ch=1 n=87 v=80
101389 Off ch=1 n=84 v=80
101389 Off ch=1 n=79 v=80
101389 Off ch=1 n=72 v=80
101389 Off ch=1 n=71 v=80
101389 Off ch=1 n=65 v=80
101389 Off ch=1 n=62 v=80
101389 Off ch=1 n=86 v=50
101389 Off ch=1 n=79 v=50
101389 Off ch=1 n=62 v=80
101389 Off ch=1 n=66 v=80
101389 Off ch=1 n=59 v=89
101389 Off ch=1 n=54 v=89
101389 Off ch=1 n=50 v=89
101419 On ch=1 n=77 v=80
101419 Off ch=1 n=65 v=89
101419 On ch=1 n=65 v=105
101419 Off ch=1 n=74 v=80
101419 Off ch=1 n=71 v=80
101419 On ch=1 n=69 v=80
101419 On ch=1 n=72 v=80
101419 Off ch=1 n=57 v=55
101419 On ch=1 n=57 v=55
101419 On ch=1 n=62 v=80
101419 On ch=1 n=65 v=80
101419 On ch=1 n=71 v=80
101419 On ch=1 n=72 v=80
101419 On ch=1 n=79 v=80
101419 On ch=1 n=84 v=80
101419 On ch=1 n=87 v=80
101419 On ch=1 n=89 v=80
101429 Off ch=1 n=65 v=105
101434 On ch=1 n=77 v=105
101434 On ch=1 n=84 v=105
101437 Off ch=1 n=89 v=80
101437 Off ch=1 n=87 v=80
101437 Off ch=1 n=84 v=80
101437 Off ch=1 n=79 v=80
101437 Off ch=1 n=72 v=80
101437 Off ch=1 n=71 v=80
101437 Off ch=1 n=65 v=80
101437 Off ch=1 n=62 v=80
101439 On ch=1 n=65 v=50
101449 On ch=1 n=60 v=80
101449 On ch=1 n=64 v=80
101449 On ch=1 n=71 v=80
101449 On ch=1 n=72 v=80
101449 On ch=1 n=79 v=80
101449 On ch=1 n=84 v=80
101449 On ch=1 n=87 v=80
101449 On ch=1 n=89 v=80
101449 Meta Lyric ""
101459 Off ch=1 n=65 v=50
101479 On ch=1 n=81 v=89
101479 Off ch=1 n=77 v=80
101479 On ch=1 n=77 v=105
101479 Off ch=1 n=71 v=80
101479 On ch=1 n=69 v=80
101479 On ch=1 n=50 v=105
101479 On ch=1 n=38 v=80
101479 Off ch=1 n=57 v=55
101479 On ch=1 n=81 v=89
101479 On ch=1 n=88 v=89
101494 On ch=1 n=54 v=105
101509 Off ch=1 n=77 v=105
101509 On ch=1 n=77 v=80
101509 On ch=1 n=45 v=55
101509 Off ch=1 n=89 v=80
101509 Off ch=1 n=87 v=80
101509 Off ch=1 n=84 v=80
101509 Off ch=1 n=79 v=80
101509 Off ch=1 n=72 v=80
101509 Off ch=1 n=71 v=80
101509 Off ch=1 n=64 v=80
101509 Off ch=1 n=60 v=80
101512 Off ch=1 n=84 v=105
101512 Off ch=1 n=77 v=105
101524 On ch=1 n=77 v=50
101524 On ch=1 n=84 v=50
101539 Off ch=1 n=81 v=89
101539 On ch=1 n=81 v=105
101539 Off ch=1 n=69 v=80
101539 Off ch=1 n=72 v=80
101539 Off ch=1 n=69 v=80
101539 On ch=1 n=68 v=80
101539 On ch=1 n=71 v=80
101539 Off ch=1 n=88 v=89
101539 Off ch=1 n=81 v=89
101539 On ch=1 n=81 v=105
101539 On ch=1 n=88 v=105
101554 Off ch=1 n=50 v=105
101569 Off ch=1 n=81 v=105
101569 On ch=1 n=81 v=89
101569 Off ch=1 n=77 v=80
101569 On ch=1 n=50 v=80
101569 Off ch=1 n=45 v=55
101569 On ch=1 n=57 v=55
101569 Off ch=1 n=88 v=105
101569 Off ch=1 n=81 v=105
101569 On ch=1 n=81 v=50
101569 On ch=1 n=88 v=50
101569 On ch=1 n=67 v=80
101569 On ch=1 n=50 v=89
101569 On ch=1 n=54 v=89
101569 On ch=1 n=58 v=89
101584 On ch=1 n=54 v=80
101584 Off ch=1 n=84 v=50
101584 Off ch=1 n=77 v=50
101591 Off ch=1 n=54 v=105
101599 On ch=1 n=68 v=80
101599 Off ch=1 n=71 v=80
101599 Off ch=1 n=68 v=80
101599 Off ch=1 n=38 v=80
101599 On ch=1 n=60 v=80
101599 On ch=1 n=64 v=80
101599 On ch=1 n=72 v=80
101599 On ch=1 n=76 v=80
101599 On ch=1 n=78 v=80
101599 On ch=1 n=81 v=80
101599 On ch=1 n=84 v=80
101599 On ch=1 n=88 v=80
101599 On ch=1 n=91 v=80
101606 Off ch=1 n=54 v=89
101606 Off ch=1 n=50 v=89
101629 Off ch=1 n=81 v=89
101629 Off ch=1 n=50 v=80
101629 Off ch=1 n=57 v=55
101629 On ch=1 n=45 v=55
101629 Off ch=1 n=91 v=80
101629 Off ch=1 n=88 v=80
101629 Off ch=1 n=84 v=80
101629 Off ch=1 n=81 v=80
101629 Off ch=1 n=78 v=80
101629 Off ch=1 n=76 v=80
101629 Off ch=1 n=72 v=80
101629 Off ch=1 n=64 v=80
101629 Off ch=1 n=60 v=80
101629 Off ch=1 n=88 v=50
101629 Off ch=1 n=81 v=50
101629 Off ch=1 n=58 v=89
101629 On ch=1 n=50 v=89
101629 On ch=1 n=54 v=89
101629 On ch=1 n=58 v=89
101644 Off ch=1 n=54 v=80
101659 Off ch=1 n=68 v=80
101659 Off ch=1 n=45 v=55
101659 Off ch=1 n=67 v=80
101659 Off ch=1 n=58 v=89
101659 Off ch=1 n=54 v=89
101659 Off ch=1 n=50 v=89
101659 Off ch=1 n=38 v=55
101659 On ch=1 n=69 v=80
101659 On ch=1 n=69 v=80
101659 On ch=1 n=73 v=80
101659 On ch=1 n=45 v=55
101692 Par ch=1 c=64 v=0
101692 Par ch=1 c=64 v=0
101692 Par ch=1 c=64 v=0
101692 Par ch=1 c=64 v=0
101692 On ch=1 n=71 v=80
101693 Off ch=1 n=66 v=80
101693 Off ch=1 n=62 v=80
101693 Off ch=1 n=71 v=80
101732 On ch=1 n=79 v=89
101732 On ch=1 n=73 v=89
101752 Off ch=1 n=79 v=89
101752 On ch=1 n=81 v=105
101752 On ch=1 n=74 v=105
101752 On ch=1 n=56 v=80
101752 On ch=1 n=62 v=80
101752 On ch=1 n=44 v=80
101752 Off ch=1 n=45 v=55
101752 On ch=1 n=57 v=55
101752 On ch=1 n=60 v=80
101752 On ch=1 n=66 v=80
101752 On ch=1 n=70 v=80
101752 On ch=1 n=75 v=80
101752 On ch=1 n=81 v=80
101752 On ch=1 n=86 v=80
101752 On ch=1 n=74 v=105
101752 On ch=1 n=86 v=105
101752 On ch=1 n=67 v=89
101752 On ch=1 n=68 v=89
101752 On ch=1 n=81 v=89
101752 On ch=1 n=62 v=80
101752 On ch=1 n=66 v=80
101752 Meta Lyric "A_ "
101755 Par ch=1 c=64 v=0
101755 Par ch=1 c=64 v=0
101755 Par ch=1 c=64 v=0
101755 Par ch=1 c=64 v=0
101755 Off ch=1 n=50 v=55
101814 On ch=1 n=44 v=55
101814 On ch=1 n=44 v=55
101834 Off ch=1 n=73 v=89
101834 On ch=1 n=73 v=105
101844 Off ch=1 n=69 v=80
101844 On ch=1 n=71 v=80
101844 Off ch=1 n=56 v=80
101844 Off ch=1 n=73 v=80
101844 Off ch=1 n=69 v=80
101844 On ch=1 n=71 v=80
101844 On ch=1 n=74 v=80
101844 Off ch=1 n=62 v=80
101844 On ch=1 n=45 v=89
101844 On ch=1 n=56 v=89
101854 Off ch=1 n=73 v=105
101854 On ch=1 n=73 v=89
101874 On ch=1 n=56 v=105
101874 Off ch=1 n=74 v=80
101874 Off ch=1 n=71 v=80
101874 On ch=1 n=73 v=80
101874 On ch=1 n=76 v=80
101874 On ch=1 n=62 v=105
101874 Off ch=1 n=57 v=55
101874 On ch=1 n=45 v=55
101874 Meta Lyric "- "
101874 Off ch=1 n=86 v=80
101874 Off ch=1 n=81 v=80
101874 Off ch=1 n=75 v=80
101874 Off ch=1 n=70 v=80
101874 Off ch=1 n=66 v=80
101874 Off ch=1 n=60 v=80
101874 On ch=1 n=77 v=80
101874 Off ch=1 n=56 v=89
101874 Off ch=1 n=44 v=55
101874 Off ch=1 n=44 v=55
101889 Off ch=1 n=71 v=80
101889 On ch=1 n=73 v=80
101892 Off ch=1 n=56 v=105
101892 Off ch=1 n=62 v=105
101894 Off ch=1 n=73 v=89
101904 On ch=1 n=74 v=80
101904 On ch=1 n=56 v=80
101904 On ch=1 n=62 v=80
101904 On ch=1 n=74 v=89
101904 On ch=1 n=86 v=89
101904 On ch=1 n=68 v=89
101904 On ch=1 n=81 v=89
101904 On ch=1 n=62 v=80
101904 On ch=1 n=66 v=80
101904 On ch=1 n=56 v=89
101911 Off ch=1 n=74 v=105
101911 Off ch=1 n=86 v=105
101911 Off ch=1 n=74 v=105
101911 Off ch=1 n=81 v=89
101911 Off ch=1 n=68 v=89
101911 Off ch=1 n=66 v=80
101911 Off ch=1 n=62 v=80
101919 Off ch=1 n=73 v=80
101919 Off ch=1 n=76 v=80
101919 Off ch=1 n=73 v=80
101919 On ch=1 n=55 v=50
101919 On ch=1 n=83 v=50
101934 On ch=1 n=72 v=89
101934 Off ch=1 n=44 v=80
101934 Off ch=1 n=45 v=55
101934 On ch=1 n=57 v=55
101934 Off ch=1 n=56 v=89
101934 On ch=1 n=45 v=89
101934 On ch=1 n=56 v=89
101941 Off ch=1 n=45 v=89
101949 On ch=1 n=69 v=80
101964 Off ch=1 n=74 v=80
101964 Off ch=1 n=69 v=80
101964 Off ch=1 n=56 v=80
101964 On ch=1 n=69 v=80
101964 On ch=1 n=73 v=80
101964 Off ch=1 n=62 v=80
101964 Off ch=1 n=86 v=89
101964 Off ch=1 n=74 v=89
101964 Off ch=1 n=66 v=80
101964 Off ch=1 n=62 v=80
101974 Off ch=1 n=72 v=89
101974 On ch=1 n=71 v=50
101979 On ch=1 n=67 v=80
101979 Off ch=1 n=81 v=89
101979 Off ch=1 n=68 v=89
101984 Off ch=1 n=71 v=50
101994 On ch=1 n=81 v=89
101994 On ch=1 n=74 v=80
101994 On ch=1 n=72 v=105
101994 Off ch=1 n=73 v=80
101994 Off ch=1 n=69 v=80
101994 On ch=1 n=70 v=80
101994 Off ch=1 n=57 v=55
101994 On ch=1 n=45 v=55
101994 On ch=1 n=59 v=80
101994 On ch=1 n=62 v=80
101994 On ch=1 n=66 v=80
101994 On ch=1 n=70 v=80
101994 On ch=1 n=75 v=80
101994 On ch=1 n=81 v=80
101994 On ch=1 n=86 v=80
101994 Off ch=1 n=56 v=89
101994 Off ch=1 n=45 v=89
102009 Off ch=1 n=81 v=105
102009 On ch=1 n=73 v=50
102009 On ch=1 n=84 v=50
102024 Off ch=1 n=72 v=105
102024 On ch=1 n=59 v=80
102024 Off ch=1 n=86 v=80
102024 Off ch=1 n=81 v=80
102024 Off ch=1 n=75 v=80
102024 Off ch=1 n=70 v=80
102024 Off ch=1 n=66 v=80
102024 Off ch=1 n=62 v=80
102024 Off ch=1 n=59 v=80
102024 Off ch=1 n=77 v=80
102024 On ch=1 n=62 v=80
102024 On ch=1 n=66 v=80
102024 On ch=1 n=70 v=80
102024 On ch=1 n=75 v=80
102024 On ch=1 n=81 v=80
102024 On ch=1 n=86 v=80
102039 Off ch=1 n=83 v=50
102039 Off ch=1 n=55 v=50
102054 Off ch=1 n=81 v=89
102054 On ch=1 n=53 v=80
102054 On ch=1 n=43 v=80
102054 Off ch=1 n=45 v=55
102054 On ch=1 n=57 v=55
102054 Meta Lyric "b"
102054 On ch=1 n=61 v=80
102054 On ch=1 n=65 v=80
102054 On ch=1 n=43 v=55
102054 On ch=1 n=43 v=55
102069 Off ch=1 n=65 v=80
102069 Off ch=1 n=61 v=80
102084 Off ch=1 n=59 v=80
102084 On ch=1 n=59 v=50
102084 Off ch=1 n=86 v=80
102084 Off ch=1 n=81 v=80
102084 Off ch=1 n=75 v=80
102084 Off ch=1 n=70 v=80
102084 Off ch=1 n=66 v=80
102084 Off ch=1 n=62 v=80
102084 On ch=1 n=61 v=50
102084 On ch=1 n=65 v=50
102084 Meta Lyric "- "
102084 On ch=1 n=55 v=89
102084 On ch=1 n=43 v=89
102099 Off ch=1 n=67 v=80
102099 On ch=1 n=73 v=105
102099 On ch=1 n=84 v=105
102106 Off ch=1 n=84 v=50
102106 Off ch=1 n=73 v=50
102114 Off ch=1 n=74 v=80
102114 On ch=1 n=73 v=80
102114 Off ch=1 n=53 v=80
102114 On ch=1 n=55 v=50
102114 Off ch=1 n=70 v=80
102114 Off ch=1 n=59 v=50
102114 On ch=1 n=59 v=105
102114 Off ch=1 n=57 v=55
102114 On ch=1 n=45 v=55
102114 Off ch=1 n=65 v=50
102114 Off ch=1 n=61 v=50
102114 On ch=1 n=61 v=105
102114 On ch=1 n=65 v=105
102114 Off ch=1 n=55 v=89
102129 Off ch=1 n=43 v=55
102144 Off ch=1 n=55 v=50
102144 On ch=1 n=55 v=105
102144 On ch=1 n=57 v=55
102144 On ch=1 n=79 v=89
102144 On ch=1 n=87 v=89
102144 Off ch=1 n=43 v=89
102144 On ch=1 n=53 v=89
102144 On ch=1 n=43 v=89
102159 Off ch=1 n=84 v=105
102159 Off ch=1 n=73 v=105
102174 Off ch=1 n=73 v=80
102174 On ch=1 n=73 v=50
102174 Off ch=1 n=43 v=80
102174 Off ch=1 n=65 v=105
102174 Off ch=1 n=61 v=105
102174 Off ch=1 n=43 v=89
102174 On ch=1 n=55 v=89
102174 On ch=1 n=43 v=89
102181 Off ch=1 n=53 v=89
102189 Off ch=1 n=55 v=105
102189 Off ch=1 n=45 v=55
102204 Off ch=1 n=73 v=50
102204 On ch=1 n=73 v=105
102204 Off ch=1 n=59 v=105
102204 Off ch=1 n=57 v=55
102204 Off ch=1 n=87 v=89
102204 Off ch=1 n=79 v=89
102204 On ch=1 n=79 v=50
102204 On ch=1 n=87 v=50
102204 Off ch=1 n=43 v=55
102211 Off ch=1 n=43 v=89
102219 On ch=1 n=67 v=80
102234 Off ch=1 n=73 v=105
102234 Off ch=1 n=67 v=80
102234 Off ch=1 n=87 v=50
102234 Off ch=1 n=79 v=50
102234 Off ch=1 n=67 v=89
102234 Off ch=1 n=55 v=89
102234 On ch=1 n=89 v=89
102234 On ch=1 n=60 v=80
102234 On ch=1 n=67 v=80
102234 On ch=1 n=67 v=80
102234 On ch=1 n=69 v=89
102234 Meta Lyric "ar "
102234 On ch=1 n=65 v=80
102234 On ch=1 n=69 v=80
102234 On ch=1 n=50 v=80
102234 Meta Lyric "t6r "
102234 On ch=1 n=38 v=80
102234 On ch=1 n=45 v=89
102234 Meta Lyric "r__________"
102234 On ch=1 n=35 v=68
102234 On ch=1 n=38 v=68
102234 On ch=1 n=59 v=68
102234 Meta Lyric "66eosft "
102234 On ch=1 n=59 v=89
102234 On ch=1 n=88 v=89
102234 On ch=1 n=84 v=89
102234 On ch=1 n=83 v=80
102234 On ch=1 n=81 v=80
102234 On ch=1 n=59 v=89
102234 On ch=1 n=43 v=55
102234 On ch=1 n=55 v=55
102264 Off ch=1 n=89 v=89
102264 On ch=1 n=87 v=89
102264 Off ch=1 n=67 v=80
102264 On ch=1 n=70 v=50
102264 Off ch=1 n=67 v=80
102264 On ch=1 n=66 v=80
102264 Meta Lyric "a "
102264 Off ch=1 n=50 v=80
102264 On ch=1 n=49 v=80
102264 Off ch=1 n=84 v=89
102264 Off ch=1 n=88 v=89
102264 On ch=1 n=84 v=89
102264 On ch=1 n=83 v=89
102264 Off ch=1 n=81 v=80
102264 Off ch=1 n=83 v=80
102264 On ch=1 n=81 v=80
102264 On ch=1 n=79 v=80
102274 Off ch=1 n=69 v=89
102274 On ch=1 n=70 v=89
102274 Meta Lyric "ato"
102294 On ch=1 n=86 v=89
102294 On ch=1 n=71 v=53
102294 On ch=1 n=71 v=53
102294 On ch=1 n=64 v=80
102294 Meta Lyric "a"
102294 Off ch=1 n=69 v=80
102294 Off ch=1 n=65 v=80
102294 Off ch=1 n=49 v=80
102294 Off ch=1 n=83 v=89
102294 Off ch=1 n=84 v=89
102294 On ch=1 n=33 v=89
102294 Off ch=1 n=79 v=80
102294 Off ch=1 n=81 v=80
102294 On ch=1 n=79 v=80
102294 On ch=1 n=78 v=80
102301 Off ch=1 n=87 v=89
102301 Off ch=1 n=70 v=50
102301 Off ch=1 n=66 v=80
102303 Par ch=1 c=64 v=0
102303 Par ch=1 c=64 v=0
102303 Par ch=1 c=64 v=0
102303 Par ch=1 c=64 v=0
102309 Off ch=1 n=78 v=80
102314 Off ch=1 n=70 v=89
102314 On ch=1 n=71 v=89
102324 On ch=1 n=84 v=89
102324 On ch=1 n=62 v=80
102324 On ch=1 n=50 v=80
102324 Off ch=1 n=33 v=89
102324 On ch=1 n=81 v=89
102324 On ch=1 n=79 v=89
102324 Off ch=1 n=79 v=80
102324 On ch=1 n=78 v=80
102324 On ch=1 n=76 v=80
102331 Off ch=1 n=86 v=89
102331 Off ch=1 n=71 v=53
102331 Off ch=1 n=64 v=80
102354 On ch=1 n=82 v=89
102354 On ch=1 n=60 v=80
102354 Off ch=1 n=71 v=89
102354 On ch=1 n=72 v=89
102354 Meta Lyric "_ "
102354 On ch=1 n=67 v=50
102354 On ch=1 n=71 v=50
102354 Off ch=1 n=79 v=89
102354 Off ch=1 n=81 v=89
102354 On ch=1 n=79 v=89
102354 On ch=1 n=78 v=89
102354 Off ch=1 n=76 v=80
102354 Off ch=1 n=78 v=80
102354 On ch=1 n=76 v=80
102354 On ch=1 n=74 v=80
102354 On ch=1 n=57 v=50
102361 Off ch=1 n=84 v=89
102361 Off ch=1 n=62 v=80
102369 Off ch=1 n=74 v=80
102384 On ch=1 n=81 v=89
102384 On ch=1 n=59 v=80
102384 Meta Lyric ""
102384 Off ch=1 n=50 v=80
102384 On ch=1 n=51 v=80
102384 Off ch=1 n=78 v=89
102384 Off ch=1 n=79 v=89
102384 On ch=1 n=76 v=89
102384 On ch=1 n=76 v=89
102384 Off ch=1 n=76 v=80
102384 On ch=1 n=74 v=80
102384 On ch=1 n=72 v=80
102384 Off ch=1 n=55 v=55
102384 Off ch=1 n=43 v=55
102391 Off ch=1 n=82 v=89
102391 Off ch=1 n=60 v=80
102394 Off ch=1 n=72 v=89
102394 On ch=1 n=73 v=89
102394 Meta Lyric ""
102399 Off ch=1 n=76 v=89
102414 On ch=1 n=79 v=89
102414 Off ch=1 n=71 v=53
102414 On ch=1 n=72 v=68
102414 On ch=1 n=72 v=68
102414 On ch=1 n=57 v=80
102414 Off ch=1 n=76 v=89
102414 On ch=1 n=76 v=89
102414 On ch=1 n=76 v=89
102414 Off ch=1 n=72 v=80
102414 Off ch=1 n=74 v=80
102414 On ch=1 n=72 v=80
102414 On ch=1 n=71 v=80
102421 Off ch=1 n=81 v=89
102421 Off ch=1 n=59 v=80
102434 Off ch=1 n=73 v=89
102434 On ch=1 n=72 v=89
102444 Meta Lyric "- "
102444 On ch=1 n=77 v=80
102444 On ch=1 n=77 v=80
102444 On ch=1 n=80 v=80
102654 On ch=1 n=76 v=89
102654 On ch=1 n=55 v=80
102654 Off ch=1 n=71 v=50
102654 Off ch=1 n=67 v=50
102654 On ch=1 n=65 v=73
102654 On ch=1 n=69 v=73
102654 Meta Lyric "m "
102654 Off ch=1 n=51 v=80
102654 On ch=1 n=52 v=80
102654 Off ch=1 n=76 v=89
102654 Off ch=1 n=76 v=89
102654 On ch=1 n=74 v=89
102654 On ch=1 n=72 v=89
102654 Off ch=1 n=71 v=80
102654 Off ch=1 n=72 v=80
102654 On ch=1 n=71 v=80
102654 On ch=1 n=69 v=80
102661 Off ch=1 n=79 v=89
102661 Off ch=1 n=57 v=80
102669 Off ch=1 n=72 v=68
102669 On ch=1 n=75 v=73
102669 Off ch=1 n=69 v=80
102684 Off ch=1 n=76 v=89
102684 On ch=1 n=74 v=89
102684 On ch=1 n=78 v=89
102684 On ch=1 n=53 v=80
102684 Off ch=1 n=72 v=89
102684 On ch=1 n=71 v=89
102684 Meta Lyric ""
102684 On ch=1 n=68 v=81
102684 On ch=1 n=71 v=81
102684 Meta Lyric "al"
102684 Off ch=1 n=52 v=80
102684 On ch=1 n=52 v=80
102684 Off ch=1 n=72 v=89
102684 Off ch=1 n=74 v=89
102684 On ch=1 n=72 v=89
102684 On ch=1 n=71 v=89
102684 Off ch=1 n=71 v=80
102684 On ch=1 n=69 v=80
102684 On ch=1 n=67 v=80
102684 On ch=1 n=48 v=105
102687 Off ch=1 n=75 v=73
102691 Off ch=1 n=55 v=80
102691 Off ch=1 n=69 v=73
102691 Off ch=1 n=65 v=73
102699 Off ch=1 n=71 v=89
102714 On ch=1 n=72 v=89
102714 On ch=1 n=75 v=89
102714 Off ch=1 n=72 v=68
102714 On ch=1 n=76 v=79
102714 On ch=1 n=76 v=79
102714 On ch=1 n=52 v=80
102714 Off ch=1 n=52 v=80
102714 On ch=1 n=53 v=80
102714 Off ch=1 n=72 v=89
102714 On ch=1 n=71 v=89
102714 On ch=1 n=69 v=89
102714 Off ch=1 n=69 v=80
102721 Off ch=1 n=78 v=89
102721 Off ch=1 n=74 v=89
102721 Off ch=1 n=53 v=80
102724 Off ch=1 n=71 v=89
102724 On ch=1 n=71 v=89
102729 Off ch=1 n=67 v=80
102729 On ch=1 n=67 v=80
102729 On ch=1 n=66 v=80
102744 On ch=1 n=70 v=89
102744 On ch=1 n=80 v=89
102744 Off ch=1 n=76 v=79
102744 Off ch=1 n=76 v=79
102744 On ch=1 n=77 v=83
102744 On ch=1 n=77 v=83
102744 On ch=1 n=50 v=80
102744 On ch=1 n=65 v=97
102744 On ch=1 n=69 v=97
102744 Off ch=1 n=69 v=89
102744 Off ch=1 n=71 v=89
102744 On ch=1 n=69 v=89
102744 On ch=1 n=67 v=89
102751 Off ch=1 n=52 v=80
102759 Off ch=1 n=77 v=83
102759 Off ch=1 n=71 v=81
102759 Off ch=1 n=68 v=81
102759 Off ch=1 n=66 v=80
102759 Off ch=1 n=67 v=80
102759 On ch=1 n=66 v=80
102759 On ch=1 n=64 v=80
102760 Off ch=1 n=75 v=89
102760 Off ch=1 n=72 v=89
102774 On ch=1 n=69 v=89
102774 On ch=1 n=81 v=89
102774 On ch=1 n=80 v=86
102774 On ch=1 n=48 v=80
102774 On ch=1 n=68 v=105
102774 On ch=1 n=71 v=105
102774 Meta Lyric "_ "
102774 Off ch=1 n=53 v=80
102774 Off ch=1 n=67 v=89
102774 Off ch=1 n=69 v=89
102774 On ch=1 n=67 v=89
102774 On ch=1 n=66 v=89
102781 Off ch=1 n=80 v=89
102781 Off ch=1 n=70 v=89
102781 Off ch=1 n=50 v=80
102781 Off ch=1 n=69 v=97
102781 Off ch=1 n=65 v=97
102784 Off ch=1 n=71 v=89
102784 On ch=1 n=73 v=89
102789 Off ch=1 n=64 v=80
102789 Off ch=1 n=66 v=80
102789 On ch=1 n=64 v=80
102789 On ch=1 n=62 v=80
102797 Off ch=1 n=57 v=50
102804 On ch=1 n=80 v=105
102804 On ch=1 n=80 v=105
102804 Off ch=1 n=80 v=86
102804 Off ch=1 n=77 v=83
102804 On ch=1 n=81 v=90
102804 On ch=1 n=81 v=90
102804 On ch=1 n=47 v=80
102804 Off ch=1 n=66 v=89
102804 Off ch=1 n=67 v=89
102804 On ch=1 n=78 v=89
102804 On ch=1 n=76 v=89
102811 Off ch=1 n=81 v=89
102811 Off ch=1 n=69 v=89
102811 Off ch=1 n=48 v=80
102819 Off ch=1 n=62 v=80
102824 Off ch=1 n=73 v=89
102824 On ch=1 n=74 v=89
102834 On ch=1 n=78 v=78
102834 On ch=1 n=78 v=78
102834 Off ch=1 n=81 v=90
102834 Off ch=1 n=81 v=90
102834 On ch=1 n=82 v=94
102834 On ch=1 n=82 v=94
102834 On ch=1 n=45 v=80
102834 Off ch=1 n=71 v=105
102834 Off ch=1 n=68 v=105
102834 On ch=1 n=69 v=80
102834 On ch=1 n=73 v=80
102834 Meta Lyric ""
102834 Off ch=1 n=76 v=89
102834 Off ch=1 n=78 v=89
102834 On ch=1 n=76 v=89
102834 On ch=1 n=74 v=89
102841 Off ch=1 n=80 v=105
102841 Off ch=1 n=80 v=105
102841 Off ch=1 n=47 v=80
102849 Off ch=1 n=64 v=80
102849 On ch=1 n=62 v=80
102849 On ch=1 n=60 v=80
102856 Off ch=1 n=82 v=94
102864 On ch=1 n=75 v=50
102864 On ch=1 n=75 v=50
102864 On ch=1 n=43 v=80
102864 Off ch=1 n=74 v=89
102864 Off ch=1 n=73 v=80
102864 Off ch=1 n=69 v=80
102864 Off ch=1 n=74 v=89
102864 Off ch=1 n=76 v=89
102864 On ch=1 n=74 v=89
102864 On ch=1 n=72 v=89
102871 Off ch=1 n=78 v=78
102871 Off ch=1 n=78 v=78
102871 Off ch=1 n=45 v=80
102879 On ch=1 n=85 v=99
102879 Off ch=1 n=60 v=80
102879 Off ch=1 n=62 v=80
102879 On ch=1 n=60 v=80
102879 On ch=1 n=59 v=80
102894 Off ch=1 n=75 v=50
102894 Off ch=1 n=75 v=50
102894 On ch=1 n=40 v=80
102894 On ch=1 n=53 v=80
102894 Off ch=1 n=72 v=89
102894 Off ch=1 n=74 v=89
102894 On ch=1 n=73 v=89
102894 On ch=1 n=71 v=89
102897 Off ch=1 n=85 v=99
102901 Off ch=1 n=43 v=80
102909 Off ch=1 n=59 v=80
102909 Off ch=1 n=60 v=80
102909 On ch=1 n=40 v=80
102909 On ch=1 n=43 v=80
102909 On ch=1 n=59 v=80
102924 Off ch=1 n=60 v=80
102924 Off ch=1 n=82 v=94
102924 Off ch=1 n=40 v=80
102924 Off ch=1 n=53 v=80
102924 Off ch=1 n=80 v=80
102924 Off ch=1 n=77 v=80
102924 Off ch=1 n=77 v=80
102924 Meta Lyric "O "
102924 Off ch=1 n=59 v=68
102924 Off ch=1 n=38 v=68
102924 Off ch=1 n=35 v=68
102924 Meta Lyric "eo "
102924 Off ch=1 n=59 v=89
102924 Off ch=1 n=71 v=89
102924 Off ch=1 n=73 v=89
102924 Off ch=1 n=59 v=80
102924 Off ch=1 n=43 v=80
102924 Off ch=1 n=40 v=80
102924 Off ch=1 n=59 v=89
102924 Off ch=1 n=48 v=105
102924 Tempo 800000
102924 On ch=1 n=75 v=89
102924 On ch=1 n=67 v=89
102924 On ch=1 n=74 v=80
102924 On ch=1 n=46 v=80
102924 On ch=1 n=50 v=80
102924 On ch=1 n=91 v=80
102924 On ch=1 n=29 v=80
102924 On ch=1 n=33 v=80
102924 On ch=1 n=74 v=89
102924 On ch=1 n=62 v=80
102924 On ch=1 n=57 v=89
102924 On ch=1 n=65 v=55
102924 Meta Lyric "ia "
102924 On ch=1 n=71 v=89
102924 On ch=1 n=57 v=80
102924 On ch=1 n=52 v=80
102924 On ch=1 n=48 v=46
102924 Meta Lyric "ePP "
102924 On ch=1 n=62 v=46
102925 Off ch=1 n=87 v=105
102925 Off ch=1 n=74 v=89
102925 Off ch=1 n=71 v=89
102925 Off ch=1 n=50 v=55
102925 Off ch=1 n=62 v=80
102928 Par ch=1 c=64 v=0
102928 Par ch=1 c=64 v=0
102928 Par ch=1 c=64 v=0
102928 Par ch=1 c=64 v=0
102939 Off ch=1 n=62 v=46
102954 Off ch=1 n=38 v=80
102954 Off ch=1 n=45 v=89
102969 Off ch=1 n=57 v=89
102976 Par ch=1 c=64 v=0
102976 Par ch=1 c=64 v=0
102976 Par ch=1 c=64 v=0
102976 Par ch=1 c=64 v=0
102976 Par ch=1 c=64 v=127
102976 Par ch=1 c=64 v=127
102976 Par ch=1 c=64 v=127
102976 Par ch=1 c=64 v=127
102976 Par ch=1 c=64 v=0
102976 Par ch=1 c=64 v=0
102976 Par ch=1 c=64 v=0
102976 Par ch=1 c=64 v=0
102976 Par ch=1 c=64 v=127
102976 Par ch=1 c=64 v=127
102976 Par ch=1 c=64 v=127
102976 Par ch=1 c=64 v=127
102999 Off ch=1 n=52 v=80
102999 Off ch=1 n=48 v=46
103004 Off ch=1 n=74 v=89
103044 Tempo 400000
103044 Off ch=1 n=91 v=80
103044 Off ch=1 n=62 v=80
103044 Off ch=1 n=79 v=55
103044 Off ch=1 n=75 v=55
103044 Off ch=1 n=71 v=55
103044 Off ch=1 n=68 v=55
103044 Off ch=1 n=65 v=55
103044 On ch=1 n=55 v=80
103054 Par ch=1 c=64 v=0
103054 Par ch=1 c=64 v=0
103054 Par ch=1 c=64 v=0
103054 Par ch=1 c=64 v=0
103054 Par ch=1 c=64 v=0
103054 Par ch=1 c=64 v=0
103054 Par ch=1 c=64 v=0
103054 Par ch=1 c=64 v=0
103054 Par ch=1 c=64 v=127
103054 Par ch=1 c=64 v=127
103054 Par ch=1 c=64 v=127
103054 Par ch=1 c=64 v=127
103054 Par ch=1 c=64 v=0
103054 Par ch=1 c=64 v=0
103054 Par ch=1 c=64 v=0
103054 Par ch=1 c=64 v=0
103054 Par ch=1 c=64 v=0
103054 Par ch=1 c=64 v=0
103054 Par ch=1 c=64 v=0
103054 Par ch=1 c=64 v=0
103054 Par ch=1 c=64 v=127
103054 Par ch=1 c=64 v=127
103054 Par ch=1 c=64 v=127
103054 Par ch=1 c=64 v=127
103074 Off ch=1 n=57 v=80
103075 Par ch=1 c=64 v=0
103075 Par ch=1 c=64 v=0
103075 Par ch=1 c=64 v=0
103075 Par ch=1 c=64 v=0
103075 On ch=1 n=53 v=55
103075 On ch=1 n=59 v=55
103195 Off ch=1 n=59 v=55
103195 Off ch=1 n=53 v=55
103226 Par ch=1 c=64 v=0
103226 Par ch=1 c=64 v=0
103226 Par ch=1 c=64 v=0
103226 Par ch=1 c=64 v=0
103226 On ch=1 n=67 v=89
103226 On ch=1 n=65 v=89
103301 Off ch=1 n=65 v=89
103346 On ch=1 n=72 v=55
103376 Off ch=1 n=67 v=89
103382 Off ch=1 n=67 v=89
103382 Off ch=1 n=75 v=89
103382 Off ch=1 n=33 v=80
103382 Off ch=1 n=29 v=80
103406 Off ch=1 n=71 v=89
103406 Off ch=1 n=55 v=80
103406 On ch=1 n=52 v=80
103421 Off ch=1 n=50 v=80
103421 Off ch=1 n=46 v=80
103436 Off ch=1 n=74 v=80
103436 On ch=1 n=52 v=55
103436 Meta Lyric "dol "
103466 Off ch=1 n=52 v=80
103466 On ch=1 n=55 v=80
103496 Off ch=1 n=72 v=55
103526 Off ch=1 n=55 v=80
103526 On ch=1 n=52 v=80
103556 Off ch=1 n=52 v=55
103586 On ch=1 n=64 v=55
103586 Off ch=1 n=52 v=80
103586 On ch=1 n=55 v=80
103646 Off ch=1 n=64 v=55
103646 On ch=1 n=64 v=55
103646 Off ch=1 n=55 v=80
103646 On ch=1 n=52 v=80
103691 Off ch=1 n=64 v=55
103706 Off ch=1 n=52 v=80
103706 On ch=1 n=62 v=55
103706 On ch=1 n=50 v=80
103706 On ch=1 n=47 v=46
103707 Off ch=1 n=48 v=46
103766 Off ch=1 n=50 v=80
103766 On ch=1 n=55 v=80
103781 Off ch=1 n=47 v=46
103826 On ch=1 n=71 v=55
103826 Off ch=1 n=55 v=80
103826 On ch=1 n=50 v=80
103826 On ch=1 n=47 v=46
103862 Off ch=1 n=62 v=55
103886 On ch=1 n=55 v=80
103901 Off ch=1 n=50 v=80
103946 Off ch=1 n=55 v=80
103946 On ch=1 n=50 v=80
103946 Off ch=1 n=47 v=46
103946 On ch=1 n=47 v=46
104006 Off ch=1 n=50 v=80
104006 On ch=1 n=55 v=80
104006 Off ch=1 n=47 v=46
104066 On ch=1 n=62 v=55
104066 Off ch=1 n=55 v=80
104066 On ch=1 n=50 v=80
104066 On ch=1 n=47 v=46
104126 Off ch=1 n=71 v=55
104126 On ch=1 n=55 v=80
104126 Off ch=1 n=47 v=46
104141 Off ch=1 n=50 v=80
104156 Off ch=1 n=62 v=55
104156 On ch=1 n=62 v=55
104156 On ch=1 n=62 v=55
104186 Off ch=1 n=62 v=55
104186 Off ch=1 n=62 v=55
104186 Off ch=1 n=55 v=80
104186 On ch=1 n=61 v=55
104186 On ch=1 n=61 v=55
104186 On ch=1 n=52 v=80
104186 On ch=1 n=45 v=46
104246 On ch=1 n=71 v=55
104246 On ch=1 n=55 v=80
104261 Off ch=1 n=61 v=55
104261 Off ch=1 n=52 v=80
104306 On ch=1 n=69 v=55
104306 On ch=1 n=60 v=55
104306 Off ch=1 n=55 v=80
104306 On ch=1 n=54 v=80
104306 Off ch=1 n=45 v=46
104306 On ch=1 n=50 v=46
104321 Off ch=1 n=71 v=55
104336 Off ch=1 n=61 v=55
104426 On ch=1 n=67 v=55
104426 On ch=1 n=59 v=55
104426 Off ch=1 n=54 v=80
104426 On ch=1 n=55 v=80
104426 Off ch=1 n=50 v=46
104426 On ch=1 n=43 v=46
104426 On ch=1 n=47 v=46
104456 Off ch=1 n=60 v=55
104456 Off ch=1 n=69 v=55
104456 Off ch=1 n=43 v=46
104486 Off ch=1 n=59 v=55
104486 Off ch=1 n=67 v=55
104486 On ch=1 n=67 v=55
104486 Off ch=1 n=55 v=80
104546 Off ch=1 n=67 v=55
104546 On ch=1 n=67 v=80
104546 Meta Lyric "l "
104546 Off ch=1 n=47 v=46
104546 On ch=1 n=50 v=55
104576 Off ch=1 n=50 v=55
104606 Off ch=1 n=67 v=80
104606 On ch=1 n=67 v=80
104666 Off ch=1 n=67 v=80
104666 On ch=1 n=67 v=80
104666 On ch=1 n=67 v=80
104666 On ch=1 n=48 v=46
104666 On ch=1 n=48 v=46
104666 On ch=1 n=43 v=55
104666 On ch=1 n=43 v=55
104726 Off ch=1 n=67 v=80
104726 On ch=1 n=67 v=80
104726 On ch=1 n=67 v=80
104726 Off ch=1 n=43 v=55
104741 Off ch=1 n=67 v=80
104741 Off ch=1 n=48 v=46
104786 Off ch=1 n=67 v=80
104786 Off ch=1 n=67 v=80
104786 On ch=1 n=67 v=80
104786 On ch=1 n=66 v=80
104786 Off ch=1 n=48 v=46
104786 On ch=1 n=47 v=46
104786 Off ch=1 n=43 v=55
104846 On ch=1 n=65 v=80
104879 Off ch=1 n=66 v=80
104906 Meta Lyric "Pe "
104906 On ch=1 n=64 v=80
104906 On ch=1 n=64 v=80
104906 On ch=1 n=52 v=46
104906 On ch=1 n=52 v=46
104906 Off ch=1 n=47 v=46
104921 Off ch=1 n=65 v=80
104936 On ch=1 n=72 v=80
104936 Off ch=1 n=67 v=80
104966 Off ch=1 n=52 v=46
104966 Off ch=1 n=52 v=46
104966 On ch=1 n=55 v=46
104966 On ch=1 n=55 v=46
104996 On ch=1 n=58 v=55
105026 On ch=1 n=75 v=55
105026 On ch=1 n=71 v=80
105026 On ch=1 n=71 v=80
105026 Off ch=1 n=55 v=46
105026 Off ch=1 n=55 v=46
105026 On ch=1 n=50 v=46
105056 Off ch=1 n=72 v=80
105056 On ch=1 n=72 v=80
105056 Off ch=1 n=64 v=80
105056 Off ch=1 n=64 v=80
105086 Off ch=1 n=75 v=55
105086 On ch=1 n=75 v=55
105086 On ch=1 n=55 v=46
105086 On ch=1 n=55 v=46
105116 Off ch=1 n=58 v=55
105119 Off ch=1 n=50 v=46
105146 Off ch=1 n=75 v=55
105146 Off ch=1 n=72 v=80
105146 Off ch=1 n=71 v=80
105146 Off ch=1 n=71 v=80
105146 Off ch=1 n=55 v=46
105146 Off ch=1 n=55 v=46
105146 On ch=1 n=75 v=55
105146 On ch=1 n=72 v=80
105146 On ch=1 n=67 v=80
105146 On ch=1 n=72 v=80
105146 On ch=1 n=72 v=80
105146 On ch=1 n=67 v=89
105146 On ch=1 n=50 v=46
105146 On ch=1 n=48 v=46
105146 On ch=1 n=48 v=46
105206 Off ch=1 n=75 v=55
105206 On ch=1 n=74 v=55
105206 Off ch=1 n=72 v=80
105206 On ch=1 n=72 v=80
105206 On ch=1 n=55 v=46
105206 On ch=1 n=55 v=46
105221 Off ch=1 n=50 v=46
105266 Off ch=1 n=74 v=55
105266 Off ch=1 n=72 v=80
105266 Off ch=1 n=67 v=80
105266 Off ch=1 n=72 v=80
105266 Off ch=1 n=72 v=80
105266 On ch=1 n=64 v=80
105266 On ch=1 n=64 v=80
105266 Off ch=1 n=67 v=89
105266 On ch=1 n=48 v=46
105266 Off ch=1 n=48 v=46
105266 Off ch=1 n=48 v=46
105266 On ch=1 n=47 v=46
105266 On ch=1 n=47 v=46
105299 Off ch=1 n=55 v=46
105326 Off ch=1 n=55 v=46
105326 On ch=1 n=55 v=46
105326 Off ch=1 n=47 v=46
105386 On ch=1 n=70 v=80
105386 Off ch=1 n=47 v=46
105386 On ch=1 n=47 v=46
105386 On ch=1 n=47 v=46
105416 Tempo 800000
105416 Off ch=1 n=70 v=80
105416 On ch=1 n=69 v=80
105416 Off ch=1 n=48 v=46
105431 On ch=1 n=74 v=55
105446 Off ch=1 n=64 v=80
105446 On ch=1 n=64 v=105
105446 Off ch=1 n=55 v=46
105446 On ch=1 n=50 v=46
105446 On ch=1 n=50 v=46
105446 Off ch=1 n=47 v=46
105461 Off ch=1 n=74 v=55
105461 On ch=1 n=74 v=55
105476 Tempo 400000
105476 Off ch=1 n=69 v=80
105476 On ch=1 n=70 v=80
105491 Off ch=1 n=64 v=80
105506 On ch=1 n=53 v=46
105506 Off ch=1 n=47 v=46
105506 On ch=1 n=47 v=46
105506 On ch=1 n=47 v=46
105521 Off ch=1 n=74 v=55
105521 On ch=1 n=74 v=55
105521 Off ch=1 n=50 v=46
105536 Off ch=1 n=70 v=80
105536 On ch=1 n=70 v=80
105566 Off ch=1 n=70 v=80
105566 On ch=1 n=70 v=80
105566 Off ch=1 n=64 v=105
105566 On ch=1 n=62 v=80
105566 On ch=1 n=62 v=80
105566 Off ch=1 n=53 v=46
105566 Off ch=1 n=50 v=46
105566 On ch=1 n=50 v=46
105566 On ch=1 n=50 v=46
105581 Off ch=1 n=74 v=55
105581 On ch=1 n=74 v=55
105596 Off ch=1 n=74 v=55
105624 Off ch=1 n=70 v=80
105626 Off ch=1 n=62 v=80
105626 Off ch=1 n=62 v=80
105626 Off ch=1 n=50 v=46
105626 Off ch=1 n=50 v=46
105626 Off ch=1 n=47 v=46
105626 Off ch=1 n=47 v=46
105626 TimeSig 3/8 120 8
105626 On ch=1 n=74 v=80
105626 On ch=1 n=71 v=80
105626 On ch=1 n=71 v=80
105626 On ch=1 n=71 v=80
105626 On ch=1 n=47 v=46
105626 On ch=1 n=47 v=46
105656 Off ch=1 n=74 v=80
105656 On ch=1 n=74 v=80
105656 Off ch=1 n=71 v=80
105656 On ch=1 n=71 v=80
105686 Off ch=1 n=71 v=80
105686 Off ch=1 n=47 v=46
105716 Off ch=1 n=74 v=80
105716 On ch=1 n=74 v=80
105716 On ch=1 n=71 v=80
105746 Tempo 800000
105746 Off ch=1 n=74 v=80
105746 On ch=1 n=74 v=80
105746 Off ch=1 n=71 v=80
105746 On ch=1 n=71 v=80
105746 Off ch=1 n=71 v=80
105746 Off ch=1 n=71 v=80
105746 On ch=1 n=62 v=80
105746 On ch=1 n=62 v=80
105746 Off ch=1 n=47 v=46
105746 On ch=1 n=47 v=46
105746 On ch=1 n=47 v=46
105776 Off ch=1 n=47 v=46
105783 Off ch=1 n=71 v=80
105806 Tempo 400000
105806 Off ch=1 n=74 v=80
105806 Off ch=1 n=62 v=80
105806 Off ch=1 n=62 v=80
105806 Off ch=1 n=47 v=46
105806 TimeSig 4/4 120 8
105806 On ch=1 n=62 v=80
105806 On ch=1 n=48 v=89
105806 On ch=1 n=67 v=80
105806 On ch=1 n=58 v=80
105806 On ch=1 n=51 v=80
105806 Meta Lyric "V "
105806 On ch=1 n=48 v=80
105806 On ch=1 n=48 v=80
105807 Off ch=1 n=50 v=46
105836 On ch=1 n=65 v=80
105836 On ch=1 n=60 v=80
105843 Off ch=1 n=62 v=80
105843 Off ch=1 n=58 v=80
105866 On ch=1 n=62 v=80
105866 Meta Lyric ""
105866 On ch=1 n=55 v=80
105866 On ch=1 n=55 v=80
105873 Off ch=1 n=60 v=80
105881 Off ch=1 n=67 v=80
105881 Off ch=1 n=51 v=80
105886 Off ch=1 n=48 v=89
105886 On ch=1 n=47 v=89
105896 Off ch=1 n=65 v=80
105896 On ch=1 n=65 v=80
105912 Off ch=1 n=55 v=80
105926 Off ch=1 n=62 v=80
105926 On ch=1 n=67 v=80
105926 On ch=1 n=62 v=80
105926 Off ch=1 n=48 v=80
105926 On ch=1 n=47 v=80
105926 On ch=1 n=47 v=80
105956 Off ch=1 n=65 v=80
105956 On ch=1 n=62 v=80
105962 Off ch=1 n=48 v=80
105966 Off ch=1 n=47 v=89
105966 On ch=1 n=48 v=89
105986 Meta Lyric "A "
105986 Off ch=1 n=71 v=80
106165 On ch=1 n=64 v=80
106165 Off ch=1 n=62 v=80
106165 On ch=1 n=58 v=80
106165 Off ch=1 n=55 v=80
106165 On ch=1 n=51 v=80
106165 On ch=1 n=51 v=80
106165 Meta Lyric "V "
106172 Off ch=1 n=62 v=80
106180 Off ch=1 n=58 v=80
106183 Off ch=1 n=67 v=80
106195 On ch=1 n=65 v=80
106195 On ch=1 n=60 v=80
106202 Off ch=1 n=64 v=80
106202 Off ch=1 n=51 v=80
106225 Off ch=1 n=48 v=89
106225 On ch=1 n=47 v=89
106225 On ch=1 n=62 v=80
106225 On ch=1 n=55 v=80
106225 On ch=1 n=55 v=80
106225 Off ch=1 n=47 v=80
106225 Off ch=1 n=47 v=80
106225 On ch=1 n=48 v=80
106225 On ch=1 n=48 v=80
106232 Off ch=1 n=60 v=80
106240 Off ch=1 n=51 v=80
106255 Off ch=1 n=65 v=80
106255 On ch=1 n=65 v=80
106285 Off ch=1 n=62 v=80
106285 On ch=1 n=62 v=80
106285 On ch=1 n=67 v=80
106285 On ch=1 n=62 v=80
106285 Off ch=1 n=55 v=80
106285 Off ch=1 n=55 v=80
106285 On ch=1 n=50 v=80
106305 Off ch=1 n=47 v=89
106315 Off ch=1 n=65 v=80
106315 On ch=1 n=65 v=80
106315 Off ch=1 n=62 v=80
106315 On ch=1 n=67 v=80
106322 Off ch=1 n=50 v=80
106345 Off ch=1 n=65 v=80
106345 On ch=1 n=62 v=80
106345 Off ch=1 n=62 v=80
106345 On ch=1 n=55 v=80
106345 On ch=1 n=55 v=80
106345 Off ch=1 n=48 v=80
106345 Off ch=1 n=48 v=80
106345 On ch=1 n=47 v=80
106345 On ch=1 n=47 v=80
106363 Off ch=1 n=62 v=80
106375 On ch=1 n=64 v=80
106405 On ch=1 n=65 v=80
106405 Off ch=1 n=67 v=80
106405 On ch=1 n=48 v=80
106412 Off ch=1 n=64 v=80
106420 Off ch=1 n=55 v=80
106423 Off ch=1 n=65 v=80
106435 Off ch=1 n=67 v=80
106435 On ch=1 n=58 v=80
106465 Off ch=1 n=58 v=80
106465 Off ch=1 n=55 v=80
106465 Off ch=1 n=48 v=80
106465 Off ch=1 n=47 v=80
106465 Off ch=1 n=47 v=80
106465 On ch=1 n=65 v=80
106465 On ch=1 n=49 v=80
106465 On ch=1 n=49 v=80
106465 On ch=1 n=46 v=80
106465 On ch=1 n=46 v=80
106495 Off ch=1 n=65 v=80
106495 On ch=1 n=65 v=80
106495 Off ch=1 n=62 v=80
106495 On ch=1 n=61 v=80
106495 On ch=1 n=63 v=80
106525 On ch=1 n=55 v=80
106525 On ch=1 n=55 v=80
106540 Off ch=1 n=49 v=80
106540 Off ch=1 n=49 v=80
106545 On ch=1 n=47 v=89
106555 Off ch=1 n=63 v=80
106555 On ch=1 n=63 v=80
106585 Off ch=1 n=65 v=80
106585 On ch=1 n=65 v=80
106585 Off ch=1 n=47 v=89
106585 Off ch=1 n=61 v=80
106585 On ch=1 n=60 v=80
106585 Off ch=1 n=63 v=80
106585 On ch=1 n=65 v=80
106585 Off ch=1 n=55 v=80
106585 Off ch=1 n=55 v=80
106585 On ch=1 n=48 v=80
106585 On ch=1 n=48 v=80
106585 Off ch=1 n=46 v=80
106585 Off ch=1 n=46 v=80
106585 On ch=1 n=45 v=80
106585 On ch=1 n=45 v=80
106615 On ch=1 n=67 v=80
106615 On ch=1 n=63 v=80
106622 Off ch=1 n=65 v=80
106622 Off ch=1 n=65 v=80
106625 On ch=1 n=45 v=89
106645 On ch=1 n=65 v=80
106645 Off ch=1 n=60 v=80
106645 On ch=1 n=59 v=80
106645 On ch=1 n=60 v=80
106645 Off ch=1 n=48 v=80
106645 Off ch=1 n=48 v=80
106645 On ch=1 n=55 v=80
106645 On ch=1 n=55 v=80
106652 Off ch=1 n=67 v=80
106652 Off ch=1 n=63 v=80
106675 On ch=1 n=62 v=80
106682 Off ch=1 n=65 v=80
106690 Off ch=1 n=60 v=80
106690 On ch=1 n=62 v=80
106705 Off ch=1 n=45 v=89
106705 On ch=1 n=44 v=89
106705 Off ch=1 n=59 v=80
106705 On ch=1 n=57 v=80
106705 Meta Lyric "r"
106705 Off ch=1 n=55 v=80
106705 Off ch=1 n=55 v=80
106705 On ch=1 n=54 v=80
106705 On ch=1 n=54 v=80
106705 Off ch=1 n=45 v=80
106705 Off ch=1 n=45 v=80
106705 On ch=1 n=44 v=80
106705 On ch=1 n=44 v=80
106720 Off ch=1 n=62 v=80
106720 On ch=1 n=64 v=80
106742 Off ch=1 n=54 v=80
106750 On ch=1 n=57 v=80
106765 Off ch=1 n=54 v=80
106765 On ch=1 n=50 v=80
106765 On ch=1 n=50 v=80
106768 Off ch=1 n=62 v=80
106780 Off ch=1 n=64 v=80
106780 On ch=1 n=61 v=80
106785 Off ch=1 n=44 v=89
106785 On ch=1 n=43 v=89
106810 Off ch=1 n=57 v=80
106810 On ch=1 n=59 v=80
106825 Meta Lyric ""
106825 Off ch=1 n=50 v=80
106825 Off ch=1 n=50 v=80
106825 On ch=1 n=52 v=80
106825 On ch=1 n=52 v=80
106825 Off ch=1 n=44 v=80
106825 Off ch=1 n=44 v=80
106825 On ch=1 n=43 v=80
106825 On ch=1 n=43 v=80
106840 Off ch=1 n=59 v=80
106840 On ch=1 n=60 v=80
106855 Off ch=1 n=57 v=80
106855 On ch=1 n=60 v=80
106855 On ch=1 n=62 v=80
106855 On ch=1 n=60 v=80
106862 Off ch=1 n=52 v=80
106865 Off ch=1 n=43 v=89
106870 Off ch=1 n=61 v=80
106870 On ch=1 n=65 v=80
106870 Off ch=1 n=60 v=80
106870 Off ch=1 n=60 v=80
106870 On ch=1 n=63 v=80
106885 Off ch=1 n=62 v=80
106885 On ch=1 n=62 v=80
106885 On ch=1 n=63 v=80
106885 On ch=1 n=51 v=80
106900 Off ch=1 n=65 v=80
106900 Off ch=1 n=62 v=80
106900 Off ch=1 n=63 v=80
106900 On ch=1 n=65 v=80
106900 Off ch=1 n=52 v=80
106915 Off ch=1 n=63 v=80
106915 On ch=1 n=63 v=80
106915 On ch=1 n=65 v=80
106915 Off ch=1 n=65 v=80
106930 Off ch=1 n=63 v=80
106945 Off ch=1 n=65 v=80
106945 Off ch=1 n=60 v=80
106945 Off ch=1 n=51 v=80
106945 Off ch=1 n=43 v=80
106945 Off ch=1 n=43 v=80
106945 On ch=1 n=67 v=80
106945 On ch=1 n=44 v=80
106945 On ch=1 n=65 v=80
106945 On ch=1 n=64 v=80
106945 On ch=1 n=65 v=80
106945 Meta Lyric "t"
106945 On ch=1 n=50 v=80
106945 On ch=1 n=50 v=80
106960 Off ch=1 n=65 v=80
106975 On ch=1 n=61 v=80
106975 On ch=1 n=59 v=80
106975 On ch=1 n=57 v=80
106975 On ch=1 n=59 v=80
106975 On ch=1 n=59 v=80
106982 Off ch=1 n=67 v=80
106985 On ch=1 n=45 v=80
106991 Off ch=1 n=64 v=80
106991 Off ch=1 n=65 v=80
107005 Off ch=1 n=44 v=80
107005 On ch=1 n=53 v=80
107005 On ch=1 n=53 v=80
107005 On ch=1 n=44 v=80
107005 On ch=1 n=44 v=80
107005 Meta Lyric "V "
107005 On ch=1 n=56 v=80
107020 Off ch=1 n=50 v=80
107020 Off ch=1 n=50 v=80
107035 Off ch=1 n=61 v=80
107035 On ch=1 n=61 v=80
107035 Off ch=1 n=57 v=80
107035 Off ch=1 n=59 v=80
107035 On ch=1 n=57 v=80
107035 On ch=1 n=55 v=80
107035 Off ch=1 n=59 v=80
107035 Off ch=1 n=59 v=80
107035 On ch=1 n=59 v=80
107035 On ch=1 n=59 v=80
107037 Off ch=1 n=45 v=80
107053 Off ch=1 n=55 v=80
107065 Off ch=1 n=61 v=80
107065 On ch=1 n=61 v=80
107065 On ch=1 n=45 v=80
107065 On ch=1 n=44 v=80
107065 On ch=1 n=59 v=80
107065 On ch=1 n=57 v=80
107065 Off ch=1 n=59 v=80
107065 Off ch=1 n=59 v=80
107065 On ch=1 n=59 v=80
107065 On ch=1 n=59 v=80
107065 Off ch=1 n=53 v=80
107065 Off ch=1 n=53 v=80
107065 On ch=1 n=50 v=80
107065 On ch=1 n=50 v=80
107065 Off ch=1 n=44 v=80
107072 Off ch=1 n=57 v=80
107095 Off ch=1 n=57 v=80
107095 Off ch=1 n=59 v=80
107115 Off ch=1 n=45 v=80
107115 On ch=1 n=43 v=80
107125 Off ch=1 n=61 v=80
107125 On ch=1 n=64 v=80
107125 On ch=1 n=62 v=80
107125 On ch=1 n=60 v=80
107125 Off ch=1 n=59 v=80
107125 On ch=1 n=53 v=80
107125 On ch=1 n=53 v=80
107125 Off ch=1 n=44 v=80
107125 On ch=1 n=44 v=80
107125 On ch=1 n=44 v=80
107125 Off ch=1 n=56 v=80
107125 On ch=1 n=56 v=80
107140 Off ch=1 n=50 v=80
107140 Off ch=1 n=50 v=80
107155 Off ch=1 n=64 v=80
107155 On ch=1 n=65 v=80
107155 Off ch=1 n=60 v=80
107155 Off ch=1 n=62 v=80
107155 On ch=1 n=60 v=80
107185 Off ch=1 n=65 v=80
107185 On ch=1 n=67 v=80
107185 Off ch=1 n=44 v=80
107185 On ch=1 n=43 v=80
107185 Off ch=1 n=60 v=80
107185 On ch=1 n=63 v=80
107185 On ch=1 n=62 v=80
107185 Off ch=1 n=59 v=80
107185 On ch=1 n=62 v=80
107185 Off ch=1 n=53 v=80
107185 Off ch=1 n=53 v=80
107185 On ch=1 n=50 v=80
107185 On ch=1 n=50 v=80
107185 Off ch=1 n=44 v=80
107185 On ch=1 n=43 v=80
107200 Off ch=1 n=62 v=80
107215 On ch=1 n=61 v=80
107215 Meta Lyric "C"
107215 Off ch=1 n=63 v=80
107215 On ch=1 n=65 v=80
107215 On ch=1 n=63 v=80
107215 Off ch=1 n=62 v=80
107215 On ch=1 n=64 v=80
107222 Off ch=1 n=67 v=80
107222 Off ch=1 n=50 v=80
107230 Off ch=1 n=61 v=80
107235 Off ch=1 n=43 v=80
107237 Off ch=1 n=65 v=80
107245 On ch=1 n=57 v=55
107245 On ch=1 n=57 v=80
107245 On ch=1 n=57 v=80
107245 Off ch=1 n=64 v=80
107245 On ch=1 n=65 v=80
107245 On ch=1 n=65 v=80
107245 Off ch=1 n=50 v=80
107245 On ch=1 n=53 v=80
107245 On ch=1 n=53 v=80
107245 Off ch=1 n=43 v=80
107245 Off ch=1 n=44 v=80
107245 On ch=1 n=43 v=80
107245 On ch=1 n=43 v=80
107245 Meta Lyric "V "
107245 Off ch=1 n=56 v=80
107245 On ch=1 n=55 v=80
107261 Off ch=1 n=63 v=80
107263 Off ch=1 n=65 v=80
107275 On ch=1 n=61 v=80
107275 Off ch=1 n=57 v=80
107275 Off ch=1 n=57 v=80
107275 On ch=1 n=59 v=80
107275 On ch=1 n=59 v=80
107282 Off ch=1 n=65 v=80
107293 Off ch=1 n=59 v=80
107305 Off ch=1 n=61 v=80
107305 On ch=1 n=61 v=80
107305 Off ch=1 n=57 v=55
107305 On ch=1 n=59 v=80
107305 On ch=1 n=55 v=80
107305 Off ch=1 n=59 v=80
107305 On ch=1 n=59 v=80
107305 On ch=1 n=59 v=80
107305 Off ch=1 n=53 v=80
107305 Off ch=1 n=53 v=80
107305 On ch=1 n=50 v=80
107305 On ch=1 n=50 v=80
107305 Off ch=1 n=55 v=80
107335 Off ch=1 n=61 v=80
107335 On ch=1 n=64 v=80
107335 Off ch=1 n=55 v=80
107335 On ch=1 n=57 v=80
107335 On ch=1 n=55 v=80
107335 Off ch=1 n=59 v=80
107335 Off ch=1 n=59 v=80
107335 On ch=1 n=59 v=80
107335 On ch=1 n=59 v=80
107335 Meta Lyric "- "
107341 Off ch=1 n=43 v=80
107342 Off ch=1 n=50 v=80
107344 Off ch=1 n=59 v=80
107350 Off ch=1 n=64 v=80
107365 On ch=1 n=67 v=80
107365 Off ch=1 n=55 v=80
107365 Off ch=1 n=57 v=80
107365 On ch=1 n=60 v=80
107365 Off ch=1 n=59 v=80
107365 Off ch=1 n=59 v=80
107365 On ch=1 n=62 v=80
107365 On ch=1 n=62 v=80
107365 On ch=1 n=53 v=80
107365 On ch=1 n=53 v=80
107365 Off ch=1 n=43 v=80
107365 Off ch=1 n=43 v=80
107380 Off ch=1 n=50 v=80
107395 Off ch=1 n=67 v=80
107395 Off ch=1 n=60 v=80
107395 On ch=1 n=63 v=80
107395 On ch=1 n=62 v=80
107395 Off ch=1 n=62 v=80
107395 Off ch=1 n=62 v=80
107395 On ch=1 n=63 v=80
107395 On ch=1 n=63 v=80
107410 Off ch=1 n=62 v=80
107411 Off ch=1 n=53 v=80
107425 Off ch=1 n=63 v=80
107425 Off ch=1 n=63 v=80
107425 Off ch=1 n=63 v=80
107425 Off ch=1 n=53 v=80
107425 On ch=1 n=61 v=80
107425 On ch=1 n=57 v=55
107425 On ch=1 n=74 v=80
107425 On ch=1 n=77 v=80
107425 On ch=1 n=59 v=80
107425 Meta Lyric "u "
107425 On ch=1 n=50 v=80
107445 On ch=1 n=44 v=89
107455 Off ch=1 n=61 v=80
107455 On ch=1 n=44 v=80
107455 Off ch=1 n=59 v=80
107455 Meta Lyric "li "
107455 On ch=1 n=44 v=89
107455 Meta Lyric "pi "
107455 On ch=1 n=64 v=80
107475 Off ch=1 n=44 v=89
107485 Off ch=1 n=57 v=55
107485 On ch=1 n=59 v=80
107485 Off ch=1 n=50 v=80
107485 On ch=1 n=53 v=80
107485 Meta Lyric "ais. "
107505 On ch=1 n=43 v=89
107515 On ch=1 n=61 v=80
107515 Off ch=1 n=44 v=80
107515 On ch=1 n=43 v=80
107515 Off ch=1 n=44 v=89
107515 On ch=1 n=59 v=89
107515 Meta Lyric "arco "
107545 Off ch=1 n=77 v=80
107545 Off ch=1 n=74 v=80
107545 On ch=1 n=59 v=80
107545 On ch=1 n=57 v=80
107545 Off ch=1 n=53 v=80
107545 On ch=1 n=50 v=80
107560 Off ch=1 n=57 v=80
107565 Off ch=1 n=43 v=89
107565 On ch=1 n=43 v=89
107575 On ch=1 n=64 v=80
107575 Off ch=1 n=59 v=80
107575 On ch=1 n=59 v=80
107575 On ch=1 n=57 v=80
107575 Meta Lyric "V "
107575 Off ch=1 n=59 v=80
107575 On ch=1 n=64 v=80
107575 Off ch=1 n=64 v=80
107575 On ch=1 n=55 v=80
107605 Off ch=1 n=64 v=80
107605 On ch=1 n=65 v=80
107605 Off ch=1 n=61 v=80
107605 On ch=1 n=64 v=80
107605 Off ch=1 n=43 v=89
107605 Off ch=1 n=43 v=80
107605 On ch=1 n=44 v=80
107605 Off ch=1 n=64 v=80
107635 Off ch=1 n=65 v=80
107635 On ch=1 n=67 v=80
107635 Off ch=1 n=64 v=80
107635 On ch=1 n=65 v=80
107635 Off ch=1 n=55 v=80
107645 On ch=1 n=44 v=89
107650 Off ch=1 n=65 v=80
107665 On ch=1 n=67 v=80
107665 Off ch=1 n=44 v=89
107665 Off ch=1 n=57 v=80
107665 Off ch=1 n=59 v=80
107665 On ch=1 n=62 v=80
107665 On ch=1 n=60 v=80
107680 Off ch=1 n=60 v=80
107685 On ch=1 n=43 v=89
107695 On ch=1 n=70 v=80
107695 On ch=1 n=69 v=80
107695 Off ch=1 n=67 v=80
107695 On ch=1 n=61 v=80
107695 Off ch=1 n=44 v=80
107695 On ch=1 n=44 v=80
107695 Meta Lyric "A "
107695 Off ch=1 n=62 v=80
107695 On ch=1 n=62 v=80
107695 On ch=1 n=62 v=80
107710 Off ch=1 n=61 v=80
107725 Off ch=1 n=69 v=80
107725 On ch=1 n=69 v=50
107725 On ch=1 n=62 v=80
107725 Off ch=1 n=44 v=80
107725 On ch=1 n=43 v=80
107725 Off ch=1 n=62 v=80
107725 Off ch=1 n=62 v=80
107725 On ch=1 n=64 v=80
107725 On ch=1 n=62 v=80
107725 On ch=1 n=64 v=80
107725 On ch=1 n=53 v=80
107740 Off ch=1 n=50 v=80
107755 Off ch=1 n=69 v=50
107755 On ch=1 n=72 v=59
107755 Off ch=1 n=62 v=80
107755 On ch=1 n=61 v=80
107755 Off ch=1 n=64 v=80
107755 On ch=1 n=64 v=80
107755 Off ch=1 n=64 v=80
107755 On ch=1 n=65 v=80
107755 On ch=1 n=57 v=80
107765 Off ch=1 n=43 v=89
107770 Off ch=1 n=61 v=80
107785 Off ch=1 n=72 v=59
107785 Off ch=1 n=67 v=80
107785 On ch=1 n=71 v=80
107785 On ch=1 n=61 v=80
107785 Off ch=1 n=62 v=80
107785 Off ch=1 n=64 v=80
107785 On ch=1 n=59 v=80
107785 On ch=1 n=57 v=80
107785 Off ch=1 n=53 v=80
107785 On ch=1 n=50 v=80
107800 Off ch=1 n=57 v=80
107800 Off ch=1 n=59 v=80
107815 Off ch=1 n=70 v=80
107815 On ch=1 n=75 v=77
107815 On ch=1 n=75 v=77
107815 Off ch=1 n=65 v=80
107815 On ch=1 n=59 v=80
107830 On ch=1 n=59 v=80
107830 On ch=1 n=57 v=80
107833 Off ch=1 n=57 v=80
107845 Off ch=1 n=75 v=77
107845 Off ch=1 n=61 v=80
107845 On ch=1 n=64 v=80
107845 Off ch=1 n=43 v=80
107845 Off ch=1 n=59 v=80
107845 On ch=1 n=59 v=80
107845 On ch=1 n=53 v=80
107860 Off ch=1 n=59 v=80
107860 On ch=1 n=60 v=80
107860 Off ch=1 n=50 v=80
107875 Off ch=1 n=64 v=80
107875 On ch=1 n=65 v=80
107875 Off ch=1 n=53 v=80
107875 On ch=1 n=57 v=80
107905 Off ch=1 n=75 v=77
107905 Off ch=1 n=71 v=80
107905 Off ch=1 n=65 v=80
107905 Off ch=1 n=57 v=80
107905 Off ch=1 n=60 v=80
107905 Off ch=1 n=59 v=80
107905 Off ch=1 n=59 v=89
107905 Off ch=1 n=57 v=80
107905 On ch=1 n=65 v=80
107905 On ch=1 n=67 v=80
107905 On ch=1 n=65 v=89
107905 Meta Lyric "lir "
107906 Off ch=1 n=75 v=105
107906 Off ch=1 n=57 v=55
107906 Off ch=1 n=55 v=80
107920 Off ch=1 n=65 v=80
107925 On ch=1 n=42 v=89
107935 On ch=1 n=77 v=80
107935 On ch=1 n=71 v=80
107935 On ch=1 n=72 v=80
107935 On ch=1 n=76 v=80
107935 On ch=1 n=67 v=80
107935 On ch=1 n=59 v=80
107935 On ch=1 n=60 v=89
107935 On ch=1 n=62 v=89
107935 Meta Lyric "div. "
107935 On ch=1 n=47 v=89
107935 On ch=1 n=44 v=89
107935 On ch=1 n=47 v=89
107935 On ch=1 n=56 v=89
107935 On ch=1 n=59 v=89
107935 On ch=1 n=57 v=89
107935 On ch=1 n=60 v=89
107950 Off ch=1 n=59 v=80
107965 Off ch=1 n=42 v=89
107974 Off ch=1 n=44 v=89
107974 Off ch=1 n=60 v=89
107974 Off ch=1 n=57 v=89
107995 Off ch=1 n=77 v=80
107995 On ch=1 n=67 v=80
107995 On ch=1 n=77 v=80
107995 On ch=1 n=67 v=80
107995 Off ch=1 n=71 v=80
107995 Off ch=1 n=62 v=89
107995 Off ch=1 n=60 v=89
107995 Off ch=1 n=47 v=89
107995 Off ch=1 n=59 v=89
107995 Off ch=1 n=56 v=89
107995 Off ch=1 n=47 v=89
107995 On ch=1 n=56 v=89
107995 On ch=1 n=59 v=89
108005 On ch=1 n=42 v=89
108005 On ch=1 n=45 v=89
108010 Off ch=1 n=56 v=89
108010 Off ch=1 n=59 v=89
108025 Off ch=1 n=67 v=80
108025 On ch=1 n=67 v=80
108025 On ch=1 n=49 v=80
108025 On ch=1 n=50 v=89
108025 On ch=1 n=55 v=89
108025 On ch=1 n=62 v=89
108025 On ch=1 n=53 v=89
108025 On ch=1 n=57 v=89
108025 Meta Lyric "v "
108025 On ch=1 n=56 v=89
108025 On ch=1 n=59 v=89
108040 Off ch=1 n=56 v=89
108055 Off ch=1 n=77 v=80
108055 Off ch=1 n=67 v=80
108055 On ch=1 n=75 v=80
108055 On ch=1 n=69 v=80
108055 Off ch=1 n=67 v=80
108055 Off ch=1 n=76 v=80
108055 Off ch=1 n=72 v=80
108055 Off ch=1 n=49 v=80
108055 Off ch=1 n=57 v=89
108055 Off ch=1 n=53 v=89
108055 Off ch=1 n=62 v=89
108055 Off ch=1 n=55 v=89
108055 Off ch=1 n=50 v=89
108055 On ch=1 n=47 v=89
108055 On ch=1 n=44 v=89
108055 Off ch=1 n=59 v=89
108070 Off ch=1 n=44 v=89
108085 Off ch=1 n=45 v=89
108085 Off ch=1 n=42 v=89
108085 On ch=1 n=50 v=89
108085 On ch=1 n=53 v=89
108085 Off ch=1 n=69 v=80
108085 On ch=1 n=66 v=80
108085 On ch=1 n=50 v=80
108115 Off ch=1 n=75 v=80
108115 Off ch=1 n=67 v=80
108115 On ch=1 n=65 v=80
108115 On ch=1 n=67 v=80
108115 On ch=1 n=47 v=80
108115 On ch=1 n=59 v=80
108115 On ch=1 n=60 v=89
108115 On ch=1 n=64 v=89
108115 On ch=1 n=65 v=89
108115 On ch=1 n=62 v=89
108115 On ch=1 n=53 v=89
108115 On ch=1 n=57 v=89
108115 On ch=1 n=50 v=89
108115 On ch=1 n=55 v=89
108115 On ch=1 n=48 v=89
108115 On ch=1 n=56 v=89
108115 On ch=1 n=59 v=89
108124 Off ch=1 n=50 v=80
108130 Off ch=1 n=55 v=89
108130 Off ch=1 n=50 v=89
108145 Off ch=1 n=65 v=80
108145 On ch=1 n=64 v=80
108145 Off ch=1 n=66 v=80
108145 Off ch=1 n=62 v=89
108145 Off ch=1 n=57 v=89
108145 Off ch=1 n=53 v=89
108145 On ch=1 n=53 v=89
108145 On ch=1 n=57 v=89
108145 On ch=1 n=44 v=89
108145 Off ch=1 n=59 v=89
108165 Off ch=1 n=53 v=89
108165 Off ch=1 n=50 v=89
108175 On ch=1 n=75 v=80
108175 Off ch=1 n=64 v=80
108175 On ch=1 n=48 v=89
108175 On ch=1 n=55 v=89
108175 On ch=1 n=62 v=89
108175 Off ch=1 n=47 v=89
108181 Off ch=1 n=67 v=80
108184 Off ch=1 n=57 v=89
108184 Off ch=1 n=53 v=89
108184 Off ch=1 n=44 v=89
108190 Off ch=1 n=62 v=89
108190 Off ch=1 n=55 v=89
108190 Off ch=1 n=48 v=89
108205 On ch=1 n=67 v=80
108205 On ch=1 n=71 v=80
108205 On ch=1 n=60 v=89
108205 On ch=1 n=62 v=89
108205 Meta Lyric "v "
108235 On ch=1 n=49 v=80
108235 Off ch=1 n=62 v=89
108235 Off ch=1 n=60 v=89
108235 Off ch=1 n=65 v=89
108235 Off ch=1 n=64 v=89
108235 Off ch=1 n=60 v=89
108235 On ch=1 n=44 v=89
108235 Off ch=1 n=56 v=89
108235 Off ch=1 n=48 v=89
108235 On ch=1 n=56 v=89
108235 On ch=1 n=59 v=89
108235 On ch=1 n=53 v=89
108235 On ch=1 n=57 v=89
108235 On ch=1 n=60 v=89
108265 On ch=1 n=65 v=80
108265 Off ch=1 n=71 v=80
108265 On ch=1 n=53 v=89
108265 On ch=1 n=57 v=89
108265 On ch=1 n=43 v=111
108265 On ch=1 n=50 v=111
108265 On ch=1 n=55 v=111
108265 On ch=1 n=62 v=111
108265 Off ch=1 n=60 v=89
108265 Off ch=1 n=57 v=89
108265 Off ch=1 n=53 v=89
108271 Off ch=1 n=67 v=80
108271 Off ch=1 n=59 v=80
108271 Off ch=1 n=47 v=80
108285 On ch=1 n=43 v=89
108295 Off ch=1 n=75 v=80
108295 On ch=1 n=73 v=80
108295 On ch=1 n=52 v=89
108295 On ch=1 n=60 v=89
108295 On ch=1 n=62 v=89
108295 On ch=1 n=50 v=89
108295 Off ch=1 n=62 v=111
108295 Off ch=1 n=55 v=111
108295 Off ch=1 n=50 v=111
108295 Off ch=1 n=43 v=111
108295 Off ch=1 n=57 v=89
108295 Off ch=1 n=53 v=89
108295 Off ch=1 n=44 v=89
108310 On ch=1 n=69 v=80
108315 Off ch=1 n=43 v=89
108315 On ch=1 n=47 v=89
108325 Off ch=1 n=65 v=80
108325 Off ch=1 n=67 v=80
108340 Off ch=1 n=62 v=89
108340 Off ch=1 n=60 v=89
108340 Off ch=1 n=52 v=89
108349 Off ch=1 n=69 v=80
108355 Off ch=1 n=73 v=80
108355 On ch=1 n=67 v=80
108355 Off ch=1 n=49 v=80
108355 On ch=1 n=52 v=89
108355 On ch=1 n=57 v=89
108355 On ch=1 n=43 v=89
108355 On ch=1 n=50 v=89
108355 On ch=1 n=55 v=89
108355 On ch=1 n=62 v=89
108355 On ch=1 n=47 v=89
108370 Off ch=1 n=47 v=89
108385 Off ch=1 n=47 v=89
108385 Off ch=1 n=67 v=80
108385 Off ch=1 n=65 v=89
108385 Off ch=1 n=50 v=89
108385 Off ch=1 n=62 v=89
108385 Off ch=1 n=55 v=89
108385 Off ch=1 n=50 v=89
108385 Off ch=1 n=43 v=89
108385 Off ch=1 n=57 v=89
108385 Off ch=1 n=52 v=89
108385 Off ch=1 n=56 v=89
108385 TimeSig 2/4 120 8
108385 On ch=1 n=65 v=80
108385 On ch=1 n=67 v=80
108385 On ch=1 n=67 v=80
108385 On ch=1 n=67 v=80
108385 On ch=1 n=57 v=72
108385 On ch=1 n=43 v=72
108385 Meta Lyric "(no "
108385 Meta Lyric "Pin "
108385 On ch=1 n=43 v=55
108385 On ch=1 n=59 v=89
108385 On ch=1 n=62 v=89
108385 On ch=1 n=64 v=89
108385 On ch=1 n=65 v=89
108385 On ch=1 n=44 v=89
108385 On ch=1 n=56 v=89
108386 Off ch=1 n=42 v=89
108386 Off ch=1 n=62 v=89
108386 Off ch=1 n=59 v=89
108391 Off ch=1 n=59 v=89
108415 Off ch=1 n=65 v=80
108415 Off ch=1 n=67 v=80
108415 Off ch=1 n=65 v=89
108415 Off ch=1 n=64 v=89
108415 Off ch=1 n=62 v=89
108415 Off ch=1 n=59 v=89
108415 Off ch=1 n=56 v=89
108425 On ch=1 n=47 v=89
108445 On ch=1 n=64 v=80
108445 On ch=1 n=65 v=80
108445 On ch=1 n=67 v=80
108445 On ch=1 n=71 v=80
108445 On ch=1 n=71 v=80
108445 On ch=1 n=59 v=80
108445 Off ch=1 n=43 v=72
108445 Off ch=1 n=57 v=72
108445 Meta Lyric "C "
108445 On ch=1 n=59 v=89
108445 On ch=1 n=62 v=89
108445 On ch=1 n=64 v=89
108445 On ch=1 n=64 v=89
108445 Off ch=1 n=44 v=89
108445 On ch=1 n=44 v=89
108445 On ch=1 n=59 v=89
108445 On ch=1 n=56 v=89
108475 Off ch=1 n=64 v=80
108475 Off ch=1 n=65 v=80
108475 On ch=1 n=65 v=80
108475 Off ch=1 n=67 v=80
108475 Off ch=1 n=71 v=80
108475 Off ch=1 n=59 v=80
108475 Off ch=1 n=62 v=89
108475 Off ch=1 n=59 v=89
108475 Off ch=1 n=64 v=89
108475 On ch=1 n=50 v=89
108475 On ch=1 n=62 v=89
108475 Off ch=1 n=44 v=89
108475 Off ch=1 n=59 v=89
108477 Par ch=1 c=64 v=0
108477 Par ch=1 c=64 v=0
108477 Par ch=1 c=64 v=0
108477 Par ch=1 c=64 v=0
108490 Off ch=1 n=65 v=80
108505 On ch=1 n=65 v=80
108505 On ch=1 n=67 v=80
108505 Off ch=1 n=47 v=89
108505 On ch=1 n=43 v=89
108505 On ch=1 n=66 v=80
108505 On ch=1 n=49 v=80
108505 Off ch=1 n=43 v=55
108505 On ch=1 n=57 v=89
108505 On ch=1 n=60 v=89
108505 On ch=1 n=64 v=89
108505 On ch=1 n=65 v=89
108505 Meta Lyric "V "
108505 Off ch=1 n=64 v=89
108505 Off ch=1 n=62 v=89
108505 Off ch=1 n=50 v=89
108505 On ch=1 n=44 v=89
108505 On ch=1 n=47 v=89
108505 On ch=1 n=56 v=89
108505 On ch=1 n=53 v=89
108505 On ch=1 n=59 v=89
108523 Off ch=1 n=56 v=89
108535 Off ch=1 n=65 v=80
108535 Off ch=1 n=67 v=80
108535 Off ch=1 n=49 v=80
108535 Off ch=1 n=60 v=89
108535 Off ch=1 n=57 v=89
108535 On ch=1 n=50 v=89
108535 On ch=1 n=55 v=89
108535 On ch=1 n=62 v=89
108535 On ch=1 n=53 v=89
108535 On ch=1 n=57 v=89
108535 Off ch=1 n=56 v=89
108541 Off ch=1 n=67 v=80
108541 Off ch=1 n=67 v=80
108544 Off ch=1 n=66 v=80
108544 Off ch=1 n=44 v=89
108545 Off ch=1 n=43 v=89
108545 On ch=1 n=42 v=89
108565 On ch=1 n=74 v=80
108565 On ch=1 n=43 v=89
108565 Off ch=1 n=71 v=80
108565 On ch=1 n=50 v=80
108565 Off ch=1 n=65 v=89
108565 Off ch=1 n=64 v=89
108565 On ch=1 n=60 v=89
108565 On ch=1 n=62 v=89
108565 Off ch=1 n=57 v=89
108565 Off ch=1 n=53 v=89
108565 Off ch=1 n=47 v=89
108565 On ch=1 n=47 v=89
108565 Off ch=1 n=59 v=89
108565 Off ch=1 n=53 v=89
108565 On ch=1 n=59 v=89
108565 On ch=1 n=56 v=89
108571 Off ch=1 n=42 v=89
108574 Off ch=1 n=62 v=89
108574 Off ch=1 n=55 v=89
108574 Off ch=1 n=50 v=89
108595 On ch=1 n=50 v=89
108595 On ch=1 n=55 v=89
108595 On ch=1 n=62 v=89
108595 On ch=1 n=53 v=89
108595 On ch=1 n=57 v=89
108604 Off ch=1 n=59 v=89
108604 Off ch=1 n=56 v=89
108605 Off ch=1 n=43 v=89
108605 On ch=1 n=50 v=89
108610 Off ch=1 n=62 v=89
108610 Off ch=1 n=55 v=89
108610 Off ch=1 n=50 v=89
108625 Off ch=1 n=74 v=80
108625 Off ch=1 n=50 v=89
108625 Off ch=1 n=50 v=80
108625 Off ch=1 n=62 v=89
108625 Off ch=1 n=60 v=89
108625 Off ch=1 n=47 v=89
108625 TimeSig 4/4 120 8
108625 On ch=1 n=69 v=55
108625 On ch=1 n=72 v=80
108625 On ch=1 n=47 v=80
108625 On ch=1 n=67 v=89
108625 Meta Lyric "Sol "
108625 On ch=1 n=52 v=80
108625 On ch=1 n=40 v=80
108625 On ch=1 n=43 v=80
108625 Meta Lyric "Pio "
108625 On ch=1 n=32 v=89
108625 On ch=1 n=43 v=89
108625 On ch=1 n=72 v=89
108625 On ch=1 n=71 v=89
108625 On ch=1 n=64 v=89
108625 On ch=1 n=72 v=89
108625 On ch=1 n=60 v=89
108625 On ch=1 n=60 v=89
108625 Meta Lyric "aco "
108625 On ch=1 n=45 v=89
108625 On ch=1 n=45 v=89
108625 Meta Lyric "i "
108626 Off ch=1 n=62 v=89
108626 Off ch=1 n=60 v=89
108626 Off ch=1 n=47 v=89
108634 Off ch=1 n=57 v=89
108634 Off ch=1 n=53 v=89
108655 Off ch=1 n=72 v=80
108655 On ch=1 n=74 v=80
108670 Off ch=1 n=74 v=80
108685 Meta Lyric "m "
108685 On ch=1 n=75 v=80
108685 On ch=1 n=65 v=72
108685 On ch=1 n=64 v=80
108685 Off ch=1 n=43 v=89
108685 Off ch=1 n=32 v=89
108703 Off ch=1 n=45 v=89
108715 Off ch=1 n=65 v=72
108729 Off ch=1 n=67 v=89
108745 Meta Lyric ") "
108745 On ch=1 n=43 v=68
108746 Off ch=1 n=57 v=68
108865 Off ch=1 n=69 v=55
108865 Off ch=1 n=47 v=80
108865 On ch=1 n=45 v=80
108865 Meta Lyric "tS "
108865 On ch=1 n=71 v=72
108865 Off ch=1 n=40 v=80
108865 On ch=1 n=53 v=80
108865 Off ch=1 n=43 v=80
108865 On ch=1 n=45 v=89
108865 On ch=1 n=57 v=72
108865 Off ch=1 n=64 v=80
108865 On ch=1 n=55 v=89
108865 On ch=1 n=27 v=89
108865 On ch=1 n=38 v=89
108865 Off ch=1 n=45 v=89
108865 On ch=1 n=52 v=89
108865 On ch=1 n=40 v=89
108865 On ch=1 n=56 v=55
108865 On ch=1 n=56 v=55
108895 Off ch=1 n=75 v=80
108895 On ch=1 n=77 v=80
108895 Off ch=1 n=45 v=80
108895 Off ch=1 n=43 v=68
108895 Off ch=1 n=56 v=55
108905 On ch=1 n=66 v=89
108925 On ch=1 n=72 v=80
108925 Off ch=1 n=77 v=80
108925 On ch=1 n=75 v=80
108925 Meta Lyric "to "
108925 Off ch=1 n=71 v=72
108925 On ch=1 n=65 v=72
108925 On ch=1 n=43 v=72
108925 On ch=1 n=64 v=80
108925 Off ch=1 n=56 v=55
108940 Off ch=1 n=57 v=72
108940 Off ch=1 n=40 v=89
108955 Off ch=1 n=72 v=80
108955 On ch=1 n=74 v=80
108955 On ch=1 n=52 v=55
108955 On ch=1 n=52 v=55
108983 Par ch=1 c=64 v=0
108983 Par ch=1 c=64 v=0
108983 Par ch=1 c=64 v=0
108983 Par ch=1 c=64 v=0
108985 Off ch=1 n=74 v=80
108985 On ch=1 n=75 v=80
108985 Off ch=1 n=75 v=80
108985 On ch=1 n=74 v=80
108985 On ch=1 n=39 v=80
108985 On ch=1 n=67 v=89
108985 Off ch=1 n=65 v=72
108985 Off ch=1 n=53 v=80
108985 Off ch=1 n=52 v=80
108985 On ch=1 n=52 v=80
108985 On ch=1 n=57 v=72
108985 Off ch=1 n=64 v=80
108985 Off ch=1 n=38 v=89
108985 Off ch=1 n=27 v=89
108985 Off ch=1 n=55 v=89
108985 On ch=1 n=57 v=111
108985 On ch=1 n=32 v=89
108985 On ch=1 n=43 v=89
108985 Off ch=1 n=71 v=89
108985 Off ch=1 n=72 v=89
108985 On ch=1 n=71 v=89
108985 On ch=1 n=70 v=89
108985 Off ch=1 n=72 v=89
108985 Off ch=1 n=64 v=89
108985 On ch=1 n=64 v=89
108985 On ch=1 n=71 v=89
108985 Off ch=1 n=60 v=89
108985 On ch=1 n=52 v=89
108985 On ch=1 n=57 v=89
108985 On ch=1 n=57 v=89
108985 On ch=1 n=45 v=89
108988 Par ch=1 c=64 v=0
108988 Par ch=1 c=64 v=0
108988 Par ch=1 c=64 v=0
108988 Par ch=1 c=64 v=0
109005 Off ch=1 n=66 v=89
109015 Off ch=1 n=74 v=80
109015 On ch=1 n=72 v=80
109015 Off ch=1 n=52 v=89
109015 Off ch=1 n=52 v=55
109015 Off ch=1 n=52 v=55
109022 Off ch=1 n=45 v=89
109045 Off ch=1 n=75 v=80
109045 On ch=1 n=77 v=80
109045 Off ch=1 n=72 v=80
109045 On ch=1 n=74 v=80
109045 On ch=1 n=65 v=72
109045 Off ch=1 n=43 v=72
109045 On ch=1 n=43 v=72
109045 On ch=1 n=64 v=80
109045 Off ch=1 n=57 v=111
109045 On ch=1 n=56 v=89
109045 Off ch=1 n=57 v=89
109045 Off ch=1 n=52 v=89
109045 On ch=1 n=57 v=89
109045 Off ch=1 n=57 v=89
109057 Off ch=1 n=60 v=89
109060 Off ch=1 n=57 v=72
109063 Off ch=1 n=39 v=80
109065 Off ch=1 n=67 v=89
109075 Off ch=1 n=77 v=80
109075 On ch=1 n=75 v=80
109075 Off ch=1 n=74 v=80
109075 On ch=1 n=75 v=80
109075 On ch=1 n=56 v=55
109075 On ch=1 n=56 v=55
109105 On ch=1 n=45 v=80
109105 Off ch=1 n=65 v=72
109105 Off ch=1 n=52 v=80
109105 Off ch=1 n=45 v=89
109105 On ch=1 n=43 v=89
109105 On ch=1 n=57 v=72
109105 Off ch=1 n=64 v=80
109105 Off ch=1 n=43 v=89
109105 Off ch=1 n=32 v=89
109105 Off ch=1 n=70 v=89
109105 Off ch=1 n=71 v=89
109105 On ch=1 n=72 v=89
109105 On ch=1 n=71 v=89
109105 Off ch=1 n=71 v=89
109105 Off ch=1 n=64 v=89
109105 On ch=1 n=64 v=89
109105 On ch=1 n=72 v=89
109105 Off ch=1 n=57 v=89
109105 On ch=1 n=52 v=89
109105 On ch=1 n=59 v=89
109105 On ch=1 n=52 v=89
109105 On ch=1 n=40 v=89
109105 Off ch=1 n=56 v=55
109135 Off ch=1 n=75 v=80
109135 Off ch=1 n=40 v=89
109135 Off ch=1 n=56 v=55
109135 On ch=1 n=52 v=55
109165 Off ch=1 n=75 v=80
109165 On ch=1 n=74 v=80
109165 Off ch=1 n=45 v=80
109165 On ch=1 n=65 v=72
109165 Off ch=1 n=43 v=72
109165 Off ch=1 n=57 v=72
109165 On ch=1 n=57 v=72
109165 On ch=1 n=57 v=80
109165 On ch=1 n=60 v=80
109165 On ch=1 n=64 v=80
109165 Off ch=1 n=56 v=89
109165 On ch=1 n=56 v=89
109165 On ch=1 n=27 v=89
109165 On ch=1 n=38 v=89
109165 Meta Lyric "V "
109165 Off ch=1 n=59 v=89
109165 Off ch=1 n=52 v=89
109165 On ch=1 n=59 v=89
109165 On ch=1 n=56 v=89
109165 Off ch=1 n=52 v=55
109195 Off ch=1 n=74 v=80
109195 On ch=1 n=72 v=80
109195 Off ch=1 n=38 v=89
109195 Off ch=1 n=27 v=89
109195 Off ch=1 n=56 v=89
109225 Off ch=1 n=72 v=80
109225 Off ch=1 n=65 v=72
109225 Off ch=1 n=43 v=89
109225 Off ch=1 n=57 v=72
109225 Off ch=1 n=64 v=80
109225 Off ch=1 n=60 v=80
109225 Off ch=1 n=57 v=80
109225 Off ch=1 n=56 v=89
109225 Off ch=1 n=71 v=89
109225 Off ch=1 n=72 v=89
109225 Off ch=1 n=72 v=89
109225 Off ch=1 n=64 v=89
109225 Off ch=1 n=59 v=89
109225 On ch=1 n=75 v=80
109225 On ch=1 n=75 v=80
109225 On ch=1 n=45 v=80
109225 On ch=1 n=62 v=89
109225 On ch=1 n=55 v=80
109225 On ch=1 n=33 v=89
109225 On ch=1 n=57 v=80
109225 On ch=1 n=43 v=80
109225 On ch=1 n=33 v=89
109225 On ch=1 n=43 v=89
109225 On ch=1 n=67 v=89
109225 On ch=1 n=65 v=89
109225 On ch=1 n=60 v=89
109225 On ch=1 n=67 v=89
109225 On ch=1 n=64 v=89
109225 On ch=1 n=57 v=89
109225 On ch=1 n=57 v=89
109225 On ch=1 n=45 v=89
109225 On ch=1 n=57 v=55
109225 On ch=1 n=45 v=55
109226 Off ch=1 n=39 v=80
109240 Off ch=1 n=67 v=89
109240 Off ch=1 n=60 v=89
109255 Off ch=1 n=64 v=89
109255 Off ch=1 n=45 v=89
109255 Off ch=1 n=57 v=55
109261 Off ch=1 n=52 v=89
109265 Off ch=1 n=62 v=89
109265 On ch=1 n=65 v=89
109285 Off ch=1 n=75 v=80
109285 On ch=1 n=65 v=72
109285 Meta Lyric "- "
109285 On ch=1 n=56 v=80
109285 On ch=1 n=60 v=80
109285 On ch=1 n=64 v=80
109285 Off ch=1 n=43 v=89
109285 Off ch=1 n=33 v=89
109285 Off ch=1 n=67 v=89
109285 On ch=1 n=71 v=89
109285 On ch=1 n=64 v=89
109285 On ch=1 n=71 v=89
109285 On ch=1 n=60 v=89
109285 On ch=1 n=57 v=89
109285 Off ch=1 n=57 v=89
109300 Off ch=1 n=57 v=89
109315 Off ch=1 n=75 v=80
109315 On ch=1 n=69 v=80
109315 Off ch=1 n=45 v=80
109315 On ch=1 n=40 v=80
109315 Off ch=1 n=65 v=72
109315 On ch=1 n=65 v=72
109325 Off ch=1 n=65 v=89
109325 On ch=1 n=63 v=89
109345 On ch=1 n=79 v=80
109345 Off ch=1 n=40 v=80
109345 Off ch=1 n=65 v=72
109345 Off ch=1 n=55 v=80
109345 On ch=1 n=57 v=80
109345 Off ch=1 n=33 v=89
109345 On ch=1 n=45 v=89
109345 Off ch=1 n=43 v=80
109345 Off ch=1 n=57 v=80
109345 On ch=1 n=57 v=80
109345 Off ch=1 n=64 v=80
109345 Off ch=1 n=60 v=80
109345 Off ch=1 n=56 v=80
109345 On ch=1 n=28 v=89
109345 On ch=1 n=38 v=89
109345 On ch=1 n=60 v=89
109345 Meta Lyric "V "
109345 Off ch=1 n=71 v=89
109345 Off ch=1 n=65 v=89
109345 On ch=1 n=69 v=89
109345 On ch=1 n=64 v=111
109345 Off ch=1 n=60 v=89
109345 Off ch=1 n=71 v=89
109345 Off ch=1 n=64 v=89
109345 On ch=1 n=60 v=89
109345 On ch=1 n=68 v=89
109345 On ch=1 n=50 v=89
109345 On ch=1 n=40 v=89
109345 Off ch=1 n=45 v=55
109345 On ch=1 n=52 v=55
109365 Off ch=1 n=63 v=89
109365 On ch=1 n=60 v=89
109375 Off ch=1 n=79 v=80
109375 Off ch=1 n=69 v=89
109405 Off ch=1 n=69 v=80
109405 On ch=1 n=77 v=80
109405 On ch=1 n=77 v=80
109405 Off ch=1 n=60 v=89
109405 On ch=1 n=62 v=89
109405 On ch=1 n=65 v=72
109405 On ch=1 n=64 v=80
109405 Off ch=1 n=38 v=89
109405 Off ch=1 n=28 v=89
109405 Off ch=1 n=60 v=89
109405 On ch=1 n=64 v=89
109405 Off ch=1 n=64 v=111
109405 On ch=1 n=65 v=89
109405 On ch=1 n=64 v=89
109405 Off ch=1 n=60 v=89
109405 On ch=1 n=60 v=89
109405 On ch=1 n=65 v=89
109405 Off ch=1 n=57 v=89
109405 On ch=1 n=59 v=89
109405 On ch=1 n=52 v=89
109405 On ch=1 n=57 v=89
109405 Off ch=1 n=40 v=89
109405 On ch=1 n=57 v=89
109405 On ch=1 n=45 v=89
109405 Off ch=1 n=52 v=55
109423 Off ch=1 n=50 v=89
109425 On ch=1 n=60 v=89
109435 On ch=1 n=45 v=80
109435 Meta Lyric "A "
109435 Off ch=1 n=65 v=72
109437 Off ch=1 n=62 v=89
109445 On ch=1 n=58 v=89
109450 Off ch=1 n=60 v=89
109465 Off ch=1 n=77 v=80
109465 On ch=1 n=75 v=80
109465 Off ch=1 n=77 v=80
109465 On ch=1 n=76 v=80
109465 Off ch=1 n=57 v=80
109465 On ch=1 n=60 v=80
109465 Off ch=1 n=57 v=80
109465 On ch=1 n=43 v=80
109465 Off ch=1 n=64 v=80
109465 On ch=1 n=64 v=80
109465 On ch=1 n=64 v=80
109465 Off ch=1 n=64 v=89
109465 On ch=1 n=33 v=89
109465 On ch=1 n=43 v=89
109465 On ch=1 n=58 v=89
109465 Off ch=1 n=65 v=89
109465 On ch=1 n=57 v=89
109465 On ch=1 n=60 v=89
109465 On ch=1 n=67 v=89
109465 Off ch=1 n=65 v=89
109465 Off ch=1 n=60 v=89
109465 Off ch=1 n=68 v=89
109465 On ch=1 n=64 v=89
109465 On ch=1 n=67 v=89
109465 On ch=1 n=57 v=89
109465 Off ch=1 n=57 v=89
109465 Off ch=1 n=52 v=89
109465 Off ch=1 n=59 v=89
109465 On ch=1 n=57 v=89
109465 Off ch=1 n=45 v=89
109465 Off ch=1 n=57 v=89
109465 On ch=1 n=57 v=89
109465 On ch=1 n=45 v=89
109465 On ch=1 n=45 v=55
109465 On ch=1 n=57 v=55
109495 Off ch=1 n=45 v=80
109495 Off ch=1 n=64 v=89
109495 On ch=1 n=65 v=89
109495 On ch=1 n=62 v=89
109495 On ch=1 n=65 v=89
109495 Off ch=1 n=57 v=89
109502 Off ch=1 n=67 v=89
109502 Off ch=1 n=60 v=89
109502 Off ch=1 n=57 v=89
109502 Off ch=1 n=57 v=89
109525 Off ch=1 n=75 v=80
109525 On ch=1 n=74 v=80
109525 Off ch=1 n=76 v=80
109525 On ch=1 n=74 v=80
109525 Off ch=1 n=58 v=89
109525 On ch=1 n=58 v=89
109525 On ch=1 n=65 v=72
109525 Off ch=1 n=64 v=80
109525 Off ch=1 n=64 v=80
109525 On ch=1 n=60 v=80
109525 Off ch=1 n=43 v=89
109525 Off ch=1 n=33 v=89
109525 Off ch=1 n=58 v=89
109525 On ch=1 n=28 v=89
109525 On ch=1 n=38 v=89
109525 Off ch=1 n=65 v=89
109525 On ch=1 n=59 v=89
109525 On ch=1 n=64 v=89
109525 On ch=1 n=60 v=89
109525 On ch=1 n=64 v=89
109525 On ch=1 n=55 v=89
109525 Off ch=1 n=45 v=89
109525 Off ch=1 n=57 v=89
109525 On ch=1 n=50 v=89
109525 Off ch=1 n=57 v=55
109525 Off ch=1 n=45 v=55
109532 Off ch=1 n=65 v=89
109532 Off ch=1 n=62 v=89
109555 Off ch=1 n=74 v=80
109555 On ch=1 n=45 v=80
109564 Off ch=1 n=59 v=89
109565 Off ch=1 n=58 v=89
109585 Off ch=1 n=74 v=80
109585 On ch=1 n=72 v=80
109585 On ch=1 n=72 v=80
109585 Off ch=1 n=45 v=80
109585 Off ch=1 n=65 v=72
109585 Off ch=1 n=60 v=80
109585 Off ch=1 n=45 v=89
109585 On ch=1 n=43 v=89
109585 Off ch=1 n=43 v=80
109585 On ch=1 n=57 v=80
109585 Off ch=1 n=60 v=80
109585 On ch=1 n=64 v=80
109585 On ch=1 n=64 v=80
109585 Off ch=1 n=38 v=89
109585 Off ch=1 n=28 v=89
109585 On ch=1 n=60 v=89
109585 Off ch=1 n=67 v=89
109585 Off ch=1 n=64 v=89
109585 On ch=1 n=60 v=89
109585 On ch=1 n=64 v=89
109585 On ch=1 n=52 v=89
109585 On ch=1 n=57 v=89
109600 Off ch=1 n=55 v=89
109615 Off ch=1 n=72 v=80
109615 Off ch=1 n=72 v=80
109615 On ch=1 n=40 v=80
109645 On ch=1 n=70 v=80
109645 On ch=1 n=71 v=80
109645 On ch=1 n=64 v=72
109645 Off ch=1 n=43 v=89
109645 On ch=1 n=40 v=89
109645 Off ch=1 n=64 v=80
109645 Off ch=1 n=64 v=80
109645 Off ch=1 n=64 v=89
109645 Off ch=1 n=60 v=89
109645 On ch=1 n=61 v=89
109645 On ch=1 n=64 v=89
109645 Off ch=1 n=64 v=89
109645 Off ch=1 n=60 v=89
109645 Off ch=1 n=64 v=89
109645 Off ch=1 n=60 v=89
109645 Off ch=1 n=57 v=89
109645 Off ch=1 n=52 v=89
109645 On ch=1 n=56 v=89
109645 On ch=1 n=52 v=89
109645 Off ch=1 n=50 v=89
109645 On ch=1 n=52 v=89
109645 On ch=1 n=40 v=89
109645 On ch=1 n=52 v=55
109645 On ch=1 n=52 v=55
109675 Off ch=1 n=40 v=80
109684 Off ch=1 n=64 v=89
109684 Off ch=1 n=61 v=89
109684 Off ch=1 n=56 v=89
109705 Off ch=1 n=70 v=80
109705 Off ch=1 n=71 v=80
109705 Off ch=1 n=64 v=72
109705 Off ch=1 n=40 v=89
109705 Off ch=1 n=57 v=80
109705 Off ch=1 n=52 v=89
109705 Off ch=1 n=40 v=89
109705 Off ch=1 n=52 v=89
109705 Off ch=1 n=52 v=55
109705 Off ch=1 n=52 v=55
109705 On ch=1 n=67 v=80
109705 On ch=1 n=69 v=80
109705 On ch=1 n=67 v=89
109705 On ch=1 n=64 v=72
109705 On ch=1 n=53 v=80
109705 On ch=1 n=50 v=89
109705 On ch=1 n=57 v=80
109705 On ch=1 n=64 v=80
109705 On ch=1 n=57 v=89
109705 On ch=1 n=28 v=89
109705 On ch=1 n=38 v=89
109705 On ch=1 n=72 v=89
109705 On ch=1 n=69 v=89
109705 On ch=1 n=64 v=89
109705 On ch=1 n=72 v=89
109705 On ch=1 n=57 v=89
109705 On ch=1 n=57 v=89
109705 On ch=1 n=52 v=89
109705 On ch=1 n=57 v=89
109705 On ch=1 n=45 v=89
109705 On ch=1 n=57 v=55
109705 On ch=1 n=45 v=55
109706 Off ch=1 n=56 v=89
109731 Off ch=1 n=57 v=89
109735 Off ch=1 n=67 v=80
109735 On ch=1 n=65 v=80
109735 Off ch=1 n=69 v=80
109735 On ch=1 n=67 v=80
109735 Off ch=1 n=57 v=89
109735 Off ch=1 n=45 v=55
109745 Off ch=1 n=67 v=89
109750 Off ch=1 n=67 v=80
109765 Off ch=1 n=65 v=80
109765 On ch=1 n=63 v=80
109765 On ch=1 n=67 v=80
109765 On ch=1 n=45 v=80
109765 Off ch=1 n=64 v=72
109765 Off ch=1 n=50 v=89
109765 On ch=1 n=48 v=89
109765 Off ch=1 n=57 v=80
109765 On ch=1 n=43 v=80
109765 Off ch=1 n=64 v=80
109765 Off ch=1 n=38 v=89
109765 Off ch=1 n=28 v=89
109765 Off ch=1 n=57 v=89
109765 On ch=1 n=33 v=89
109765 On ch=1 n=43 v=89
109765 Off ch=1 n=52 v=89
109765 Off ch=1 n=45 v=89
109765 Off ch=1 n=57 v=55
109785 On ch=1 n=67 v=89
109791 On ch=1 n=52 v=89
109791 On ch=1 n=39 v=89
109795 Off ch=1 n=43 v=80
109817 Off ch=1 n=52 v=89
109825 Off ch=1 n=63 v=80
109825 On ch=1 n=69 v=80
109825 Off ch=1 n=67 v=80
109825 On ch=1 n=71 v=80
109825 Off ch=1 n=45 v=80
109825 On ch=1 n=65 v=72
109825 On ch=1 n=52 v=80
109825 Off ch=1 n=48 v=89
109825 On ch=1 n=48 v=89
109825 On ch=1 n=57 v=80
109825 On ch=1 n=64 v=80
109825 Off ch=1 n=43 v=89
109825 Off ch=1 n=33 v=89
109825 Off ch=1 n=69 v=89
109825 Off ch=1 n=72 v=89
109825 On ch=1 n=72 v=89
109825 On ch=1 n=71 v=89
109825 Off ch=1 n=72 v=89
109825 Off ch=1 n=64 v=89
109825 On ch=1 n=64 v=89
109825 On ch=1 n=72 v=89
109825 Off ch=1 n=57 v=89
109825 On ch=1 n=57 v=89
109825 Par ch=1 c=64 v=0
109825 Par ch=1 c=64 v=0
109825 Par ch=1 c=64 v=0
109825 Par ch=1 c=64 v=0
109825 On ch=1 n=52 v=55
109825 On ch=1 n=52 v=55
109851 Off ch=1 n=39 v=89
109851 On ch=1 n=57 v=89
109851 On ch=1 n=45 v=89
109855 Off ch=1 n=65 v=72
109855 On ch=1 n=65 v=72
109855 Off ch=1 n=53 v=80
109855 Off ch=1 n=57 v=80
109865 Off ch=1 n=67 v=89
109865 On ch=1 n=66 v=89
109877 Off ch=1 n=57 v=89
109881 Off ch=1 n=45 v=89
109885 Off ch=1 n=69 v=80
109885 On ch=1 n=63 v=80
109885 Off ch=1 n=71 v=80
109885 On ch=1 n=65 v=80
109885 Off ch=1 n=65 v=72
109885 On ch=1 n=65 v=72
109885 Off ch=1 n=48 v=89
109885 On ch=1 n=47 v=89
109885 On ch=1 n=57 v=80
109885 On ch=1 n=43 v=80
109885 Off ch=1 n=64 v=80
109885 On ch=1 n=54 v=89
109885 Meta Lyric "A "
109885 Off ch=1 n=72 v=89
109885 Off ch=1 n=64 v=89
109885 On ch=1 n=59 v=89
109885 On ch=1 n=52 v=89
109885 On ch=1 n=57 v=89
109885 Off ch=1 n=52 v=55
109885 Off ch=1 n=52 v=55
109900 Off ch=1 n=57 v=89
109911 On ch=1 n=52 v=89
109911 On ch=1 n=39 v=89
109915 On ch=1 n=40 v=80
109922 Off ch=1 n=59 v=89
109937 Off ch=1 n=52 v=89
109941 Off ch=1 n=39 v=89
109945 On ch=1 n=75 v=89
109945 Off ch=1 n=63 v=80
109945 On ch=1 n=69 v=80
109945 Off ch=1 n=65 v=80
109945 On ch=1 n=71 v=80
109945 Off ch=1 n=40 v=80
109945 Off ch=1 n=66 v=89
109945 On ch=1 n=67 v=89
109945 Off ch=1 n=65 v=72
109945 Off ch=1 n=52 v=80
109945 Off ch=1 n=47 v=89
109945 On ch=1 n=47 v=89
109945 Off ch=1 n=43 v=80
109945 Off ch=1 n=57 v=80
109945 On ch=1 n=64 v=80
109945 Off ch=1 n=54 v=89
109945 On ch=1 n=55 v=89
109945 Off ch=1 n=72 v=89
109945 On ch=1 n=72 v=89
109945 On ch=1 n=64 v=89
109945 On ch=1 n=71 v=89
109945 Off ch=1 n=57 v=89
109945 Off ch=1 n=52 v=89
109945 On ch=1 n=56 v=89
109945 On ch=1 n=57 v=55
109945 On ch=1 n=45 v=55
109960 Off ch=1 n=75 v=89
109975 On ch=1 n=75 v=89
109975 Off ch=1 n=64 v=80
109975 On ch=1 n=64 v=80
109975 Off ch=1 n=71 v=89
109975 Off ch=1 n=56 v=89
109975 Off ch=1 n=57 v=55
109975 Off ch=1 n=45 v=55
109990 Off ch=1 n=75 v=89
110005 On ch=1 n=81 v=89
110005 Meta Lyric "A "
110005 Off ch=1 n=69 v=80
110005 On ch=1 n=70 v=80
110005 Off ch=1 n=71 v=80
110005 On ch=1 n=72 v=80
110005 On ch=1 n=65 v=72
110005 Off ch=1 n=47 v=89
110005 On ch=1 n=47 v=89
110005 On ch=1 n=57 v=80
110005 On ch=1 n=43 v=80
110005 On ch=1 n=57 v=89
110005 On ch=1 n=59 v=89
110005 On ch=1 n=52 v=89
110005 On ch=1 n=57 v=89
110025 Off ch=1 n=67 v=89
110035 On ch=1 n=45 v=80
110035 Off ch=1 n=65 v=72
110035 On ch=1 n=65 v=72
110035 Off ch=1 n=64 v=80
110065 Off ch=1 n=81 v=89
110065 On ch=1 n=75 v=89
110065 Off ch=1 n=72 v=80
110065 On ch=1 n=74 v=80
110065 Off ch=1 n=65 v=72
110065 On ch=1 n=65 v=72
110065 Off ch=1 n=47 v=89
110065 On ch=1 n=45 v=89
110065 Off ch=1 n=43 v=80
110065 Off ch=1 n=57 v=80
110065 On ch=1 n=57 v=80
110065 Off ch=1 n=55 v=89
110065 On ch=1 n=33 v=89
110065 On ch=1 n=43 v=89
110065 Off ch=1 n=64 v=89
110065 On ch=1 n=64 v=89
110065 On ch=1 n=72 v=89
110065 Off ch=1 n=59 v=89
110065 On ch=1 n=59 v=89
110065 On ch=1 n=52 v=55
110065 On ch=1 n=52 v=55
110080 Off ch=1 n=57 v=89
110080 Off ch=1 n=52 v=89
110080 Off ch=1 n=57 v=89
110095 Off ch=1 n=71 v=89
110095 Off ch=1 n=52 v=55
110095 Off ch=1 n=52 v=55
110125 Off ch=1 n=75 v=89
110125 Off ch=1 n=70 v=80
110125 On ch=1 n=72 v=80
110125 Off ch=1 n=45 v=80
110125 Off ch=1 n=65 v=72
110125 On ch=1 n=65 v=72
110125 Off ch=1 n=45 v=89
110125 On ch=1 n=44 v=89
110125 Off ch=1 n=57 v=80
110125 On ch=1 n=57 v=80
110125 On ch=1 n=43 v=80
110125 Off ch=1 n=59 v=89
110125 On ch=1 n=56 v=89
110125 On ch=1 n=52 v=89
110155 Off ch=1 n=72 v=80
110155 Off ch=1 n=56 v=89
110185 Off ch=1 n=65 v=72
110185 Off ch=1 n=44 v=89
110185 Off ch=1 n=43 v=80
110185 Off ch=1 n=57 v=80
110185 Off ch=1 n=43 v=89
110185 Off ch=1 n=33 v=89
110185 Off ch=1 n=72 v=89
110185 Off ch=1 n=72 v=89
110185 Off ch=1 n=64 v=89
110185 Off ch=1 n=52 v=89
110185 TimeSig 3/4 120 8
110185 On ch=1 n=70 v=89
110185 On ch=1 n=72 v=80
110185 On ch=1 n=45 v=80
110185 On ch=1 n=72 v=89
110185 On ch=1 n=71 v=72
110185 On ch=1 n=60 v=50
110185 On ch=1 n=43 v=89
110185 On ch=1 n=57 v=80
110185 On ch=1 n=43 v=80
110185 On ch=1 n=58 v=80
110185 On ch=1 n=45 v=89
110185 On ch=1 n=69 v=89
110185 On ch=1 n=77 v=89
110185 On ch=1 n=72 v=89
110185 On ch=1 n=77 v=89
110185 On ch=1 n=69 v=89
110185 On ch=1 n=77 v=89
110185 On ch=1 n=53 v=89
110185 On ch=1 n=57 v=89
110185 On ch=1 n=57 v=89
110185 On ch=1 n=43 v=89
110185 Meta Lyric "r "
110185 On ch=1 n=57 v=55
110185 On ch=1 n=57 v=55
110215 Off ch=1 n=45 v=80
110215 Off ch=1 n=60 v=50
110215 Off ch=1 n=43 v=80
110215 Off ch=1 n=57 v=89
110215 Off ch=1 n=53 v=89
110215 On ch=1 n=59 v=89
110215 Off ch=1 n=57 v=55
110215 On ch=1 n=57 v=55
110230 Off ch=1 n=72 v=80
110230 On ch=1 n=70 v=80
110230 Off ch=1 n=74 v=80
110230 On ch=1 n=72 v=80
110245 On ch=1 n=47 v=80
110245 Off ch=1 n=71 v=72
110245 On ch=1 n=65 v=72
110245 On ch=1 n=62 v=105
110245 Off ch=1 n=43 v=89
110245 On ch=1 n=41 v=89
110245 Off ch=1 n=57 v=80
110245 On ch=1 n=57 v=80
110245 On ch=1 n=43 v=80
110245 Off ch=1 n=59 v=89
110245 On ch=1 n=60 v=89
110245 On ch=1 n=50 v=89
110245 On ch=1 n=57 v=89
110245 Off ch=1 n=43 v=89
110245 Off ch=1 n=57 v=89
110245 On ch=1 n=57 v=89
110245 On ch=1 n=45 v=89
110260 Off ch=1 n=70 v=80
110260 On ch=1 n=70 v=80
110260 Off ch=1 n=72 v=80
110260 On ch=1 n=73 v=80
110275 On ch=1 n=72 v=80
110275 On ch=1 n=74 v=80
110275 Off ch=1 n=47 v=80
110275 Off ch=1 n=62 v=105
110275 Off ch=1 n=60 v=89
110275 On ch=1 n=62 v=89
110275 Off ch=1 n=45 v=89
110275 Off ch=1 n=57 v=55
110275 Off ch=1 n=57 v=55
110278 Off ch=1 n=70 v=80
110278 Off ch=1 n=73 v=80
110290 Off ch=1 n=72 v=80
110290 On ch=1 n=69 v=80
110290 On ch=1 n=76 v=80
110293 Off ch=1 n=74 v=80
110305 On ch=1 n=77 v=80
110305 On ch=1 n=48 v=80
110305 Off ch=1 n=72 v=89
110305 On ch=1 n=71 v=89
110305 On ch=1 n=71 v=72
110305 On ch=1 n=64 v=80
110305 Off ch=1 n=41 v=89
110305 On ch=1 n=40 v=89
110305 Off ch=1 n=43 v=80
110305 Off ch=1 n=57 v=80
110305 On ch=1 n=57 v=80
110305 Off ch=1 n=45 v=89
110305 On ch=1 n=33 v=89
110305 On ch=1 n=43 v=89
110305 Off ch=1 n=77 v=89
110305 Off ch=1 n=69 v=89
110305 On ch=1 n=72 v=89
110305 On ch=1 n=76 v=89
110305 Off ch=1 n=77 v=89
110305 Off ch=1 n=69 v=89
110305 Off ch=1 n=77 v=89
110305 Off ch=1 n=72 v=89
110305 On ch=1 n=69 v=89
110305 On ch=1 n=76 v=89
110305 Off ch=1 n=62 v=89
110305 Off ch=1 n=57 v=89
110305 Off ch=1 n=50 v=89
110305 On ch=1 n=64 v=89
110305 On ch=1 n=64 v=89
110305 Off ch=1 n=57 v=89
110305 On ch=1 n=60 v=89
110305 On ch=1 n=48 v=89
110308 Off ch=1 n=76 v=80
110320 Off ch=1 n=65 v=72
110345 Off ch=1 n=71 v=89
110345 On ch=1 n=67 v=89
110365 Off ch=1 n=77 v=80
110365 On ch=1 n=71 v=80
110365 Off ch=1 n=40 v=89
110365 On ch=1 n=54 v=89
110365 Off ch=1 n=58 v=80
110365 On ch=1 n=64 v=80
110365 On ch=1 n=69 v=80
110365 On ch=1 n=77 v=80
110365 On ch=1 n=74 v=80
110365 Off ch=1 n=43 v=89
110365 Off ch=1 n=33 v=89
110365 On ch=1 n=35 v=89
110365 On ch=1 n=47 v=89
110365 Off ch=1 n=76 v=89
110365 Off ch=1 n=69 v=89
110365 On ch=1 n=69 v=89
110365 On ch=1 n=72 v=89
110365 Off ch=1 n=64 v=89
110365 On ch=1 n=60 v=55
110365 On ch=1 n=60 v=55
110385 Off ch=1 n=67 v=89
110385 On ch=1 n=71 v=89
110410 Off ch=1 n=69 v=80
110410 On ch=1 n=72 v=80
110425 Off ch=1 n=70 v=89
110425 On ch=1 n=81 v=89
110425 Off ch=1 n=71 v=80
110425 On ch=1 n=74 v=80
110425 Off ch=1 n=71 v=89
110425 Off ch=1 n=64 v=80
110425 Off ch=1 n=54 v=89
110425 On ch=1 n=53 v=89
110425 Off ch=1 n=57 v=80
110425 On ch=1 n=43 v=80
110425 Off ch=1 n=69 v=80
110425 Off ch=1 n=64 v=80
110425 Off ch=1 n=47 v=89
110425 Off ch=1 n=35 v=89
110425 On ch=1 n=36 v=89
110425 On ch=1 n=74 v=89
110425 On ch=1 n=74 v=89
110425 Off ch=1 n=72 v=89
110425 On ch=1 n=72 v=89
110425 On ch=1 n=76 v=89
110425 Off ch=1 n=64 v=89
110425 On ch=1 n=64 v=89
110425 On ch=1 n=50 v=89
110425 On ch=1 n=57 v=89
110425 Off ch=1 n=60 v=55
110440 Off ch=1 n=72 v=80
110440 On ch=1 n=70 v=80
110440 Off ch=1 n=69 v=89
110455 Off ch=1 n=74 v=80
110455 On ch=1 n=72 v=80
110455 Off ch=1 n=76 v=89
110455 Off ch=1 n=72 v=89
110470 Off ch=1 n=70 v=80
110470 On ch=1 n=69 v=80
110485 Off ch=1 n=81 v=89
110485 On ch=1 n=82 v=89
110485 Off ch=1 n=72 v=80
110485 On ch=1 n=71 v=80
110485 Off ch=1 n=53 v=89
110485 On ch=1 n=52 v=89
110485 Off ch=1 n=43 v=80
110485 On ch=1 n=57 v=80
110485 Off ch=1 n=74 v=80
110485 Off ch=1 n=77 v=80
110485 On ch=1 n=67 v=80
110485 On ch=1 n=72 v=80
110485 Off ch=1 n=76 v=89
110485 Off ch=1 n=72 v=89
110485 Off ch=1 n=57 v=89
110485 Off ch=1 n=50 v=89
110485 Off ch=1 n=64 v=89
110485 On ch=1 n=65 v=89
110485 Off ch=1 n=60 v=55
110485 On ch=1 n=45 v=55
110485 On ch=1 n=53 v=55
110500 Off ch=1 n=69 v=80
110500 On ch=1 n=67 v=80
110500 Off ch=1 n=74 v=89
110515 Off ch=1 n=82 v=89
110515 Off ch=1 n=71 v=80
110515 On ch=1 n=69 v=80
110530 Off ch=1 n=67 v=80
110545 Off ch=1 n=69 v=80
110545 Off ch=1 n=48 v=80
110545 Off ch=1 n=71 v=72
110545 Off ch=1 n=52 v=89
110545 Off ch=1 n=72 v=80
110545 Off ch=1 n=67 v=80
110545 Off ch=1 n=36 v=89
110545 Off ch=1 n=74 v=89
110545 Off ch=1 n=65 v=89
110545 Off ch=1 n=48 v=89
110545 Off ch=1 n=60 v=89
110545 Off ch=1 n=53 v=55
110545 Off ch=1 n=45 v=55
110545 TimeSig 4/4 120 8
110545 On ch=1 n=87 v=89
110545 On ch=1 n=69 v=80
110545 On ch=1 n=71 v=80
110545 On ch=1 n=40 v=80
110545 On ch=1 n=69 v=80
110545 On ch=1 n=65 v=80
110545 On ch=1 n=52 v=89
110545 Meta Lyric "6 "
110545 On ch=1 n=43 v=80
110545 Meta Lyric "(Cy "
110545 On ch=1 n=58 v=80
110545 On ch=1 n=72 v=105
110545 On ch=1 n=71 v=89
110545 On ch=1 n=67 v=89
110545 Meta Lyric "rco. "
110545 On ch=1 n=39 v=89
110545 On ch=1 n=51 v=89
110545 Meta Lyric "rco "
110545 On ch=1 n=52 v=55
110546 Off ch=1 n=84 v=89
110575 Off ch=1 n=87 v=89
110584 Off ch=1 n=51 v=89
110584 Off ch=1 n=39 v=89
110605 On ch=1 n=81 v=89
110605 Off ch=1 n=69 v=80
110605 On ch=1 n=75 v=80
110605 Off ch=1 n=71 v=80
110605 On ch=1 n=77 v=80
110605 Off ch=1 n=40 v=80
110605 On ch=1 n=40 v=80
110605 Off ch=1 n=69 v=80
110605 On ch=1 n=68 v=80
110605 Off ch=1 n=52 v=89
110605 On ch=1 n=40 v=89
110605 Meta Lyric "a "
110605 Off ch=1 n=67 v=89
110605 On ch=1 n=40 v=89
110605 On ch=1 n=52 v=89
110605 Off ch=1 n=52 v=55
110605 On ch=1 n=52 v=55
110625 On ch=1 n=64 v=89
110625 Off ch=1 n=57 v=80
110625 On ch=1 n=57 v=80
110625 Meta Lyric "ni) "
110642 Off ch=1 n=52 v=55
110644 Off ch=1 n=52 v=89
110644 Off ch=1 n=40 v=89
110665 Off ch=1 n=81 v=89
110665 On ch=1 n=84 v=89
110665 Off ch=1 n=75 v=80
110665 On ch=1 n=81 v=80
110665 Off ch=1 n=77 v=80
110665 On ch=1 n=86 v=80
110665 Off ch=1 n=40 v=80
110665 On ch=1 n=41 v=80
110665 Off ch=1 n=68 v=80
110665 On ch=1 n=67 v=80
110665 On ch=1 n=64 v=80
110665 Off ch=1 n=43 v=80
110665 On ch=1 n=43 v=80
110665 On ch=1 n=27 v=89
110665 On ch=1 n=38 v=89
110665 On ch=1 n=39 v=89
110665 On ch=1 n=71 v=89
110665 Meta Lyric "lnl) "
110665 On ch=1 n=66 v=89
110665 On ch=1 n=41 v=89
110665 On ch=1 n=53 v=89
110665 On ch=1 n=53 v=55
110695 Off ch=1 n=84 v=89
110695 On ch=1 n=82 v=89
110695 Off ch=1 n=81 v=80
110695 On ch=1 n=79 v=80
110695 Off ch=1 n=86 v=80
110695 On ch=1 n=84 v=80
110695 Off ch=1 n=65 v=80
110695 Off ch=1 n=40 v=89
110695 On ch=1 n=41 v=89
110695 Off ch=1 n=39 v=89
110695 Off ch=1 n=38 v=89
110695 Off ch=1 n=27 v=89
110702 Off ch=1 n=53 v=55
110705 Off ch=1 n=64 v=89
110705 On ch=1 n=64 v=89
110705 Off ch=1 n=57 v=80
110705 On ch=1 n=57 v=80
110710 Off ch=1 n=82 v=89
110710 Off ch=1 n=79 v=80
110725 On ch=1 n=81 v=89
110725 On ch=1 n=77 v=80
110725 Off ch=1 n=84 v=80
110725 On ch=1 n=83 v=80
110725 Off ch=1 n=41 v=80
110725 On ch=1 n=41 v=80
110725 Off ch=1 n=67 v=80
110725 On ch=1 n=67 v=80
110725 Off ch=1 n=58 v=80
110725 On ch=1 n=64 v=80
110725 On ch=1 n=69 v=80
110725 On ch=1 n=77 v=80
110725 On ch=1 n=74 v=80
110725 On ch=1 n=28 v=89
110725 On ch=1 n=38 v=89
110725 On ch=1 n=40 v=89
110725 Off ch=1 n=53 v=89
110725 Off ch=1 n=41 v=89
110725 On ch=1 n=42 v=89
110725 On ch=1 n=54 v=89
110725 Meta Lyric "sf "
110725 On ch=1 n=53 v=55
110725 On ch=1 n=52 v=55
110725 On ch=1 n=57 v=55
110745 Off ch=1 n=64 v=89
110745 On ch=1 n=64 v=89
110755 Off ch=1 n=81 v=89
110755 On ch=1 n=79 v=89
110755 Off ch=1 n=77 v=80
110755 On ch=1 n=76 v=80
110755 Off ch=1 n=83 v=80
110755 On ch=1 n=81 v=80
110755 Off ch=1 n=41 v=89
110755 On ch=1 n=42 v=89
110785 Off ch=1 n=76 v=80
110785 On ch=1 n=76 v=80
110785 Off ch=1 n=64 v=89
110785 On ch=1 n=65 v=89
110785 On ch=1 n=60 v=80
110785 Off ch=1 n=57 v=80
110785 Off ch=1 n=43 v=80
110785 On ch=1 n=57 v=80
110785 Off ch=1 n=69 v=80
110785 Off ch=1 n=64 v=80
110785 Off ch=1 n=40 v=89
110785 Off ch=1 n=38 v=89
110785 Off ch=1 n=28 v=89
110785 On ch=1 n=29 v=89
110785 On ch=1 n=40 v=89
110785 On ch=1 n=41 v=89
110785 Off ch=1 n=71 v=89
110785 On ch=1 n=71 v=105
110785 Off ch=1 n=66 v=89
110785 On ch=1 n=65 v=89
110815 Off ch=1 n=64 v=80
110815 Off ch=1 n=42 v=89
110815 On ch=1 n=42 v=89
110815 Off ch=1 n=71 v=105
110815 Off ch=1 n=72 v=105
110815 On ch=1 n=65 v=78
110815 On ch=1 n=64 v=78
110815 Off ch=1 n=53 v=55
110815 On ch=1 n=53 v=105
110825 Off ch=1 n=65 v=89
110825 On ch=1 n=65 v=89
110845 Off ch=1 n=67 v=80
110845 On ch=1 n=65 v=89
110845 Off ch=1 n=57 v=80
110845 On ch=1 n=57 v=80
110845 Off ch=1 n=74 v=80
110845 Off ch=1 n=77 v=80
110845 On ch=1 n=67 v=80
110845 On ch=1 n=72 v=80
110845 Off ch=1 n=41 v=89
110845 Off ch=1 n=40 v=89
110845 Off ch=1 n=29 v=89
110845 On ch=1 n=30 v=80
110845 On ch=1 n=40 v=80
110845 On ch=1 n=42 v=80
110845 Off ch=1 n=64 v=78
110845 Off ch=1 n=65 v=78
110845 On ch=1 n=67 v=50
110845 On ch=1 n=65 v=50
110845 Off ch=1 n=57 v=55
110845 Off ch=1 n=52 v=55
110865 Off ch=1 n=65 v=89
110875 Off ch=1 n=65 v=89
110875 On ch=1 n=71 v=89
110875 Off ch=1 n=65 v=50
110875 On ch=1 n=68 v=89
110875 On ch=1 n=65 v=89
110875 On ch=1 n=68 v=89
110875 On ch=1 n=71 v=89
110891 Off ch=1 n=67 v=50
110905 Off ch=1 n=76 v=80
110905 On ch=1 n=75 v=80
110905 Off ch=1 n=81 v=80
110905 On ch=1 n=81 v=80
110905 Off ch=1 n=71 v=89
110905 On ch=1 n=71 v=89
110905 Off ch=1 n=60 v=80
110905 On ch=1 n=62 v=80
110905 Off ch=1 n=57 v=80
110905 On ch=1 n=57 v=80
110905 Off ch=1 n=72 v=80
110905 Off ch=1 n=67 v=80
110905 Off ch=1 n=42 v=80
110905 On ch=1 n=69 v=89
110905 On ch=1 n=68 v=89
110905 Off ch=1 n=71 v=89
110905 On ch=1 n=71 v=89
110905 On ch=1 n=74 v=89
110905 Off ch=1 n=65 v=89
110905 On ch=1 n=53 v=89
110921 Off ch=1 n=65 v=89
110921 Off ch=1 n=68 v=89
110935 Off ch=1 n=71 v=89
110935 On ch=1 n=65 v=89
110935 On ch=1 n=70 v=89
110935 On ch=1 n=69 v=89
110935 Off ch=1 n=74 v=89
110935 Off ch=1 n=71 v=89
110935 On ch=1 n=64 v=89
110935 Off ch=1 n=53 v=105
110951 Off ch=1 n=68 v=89
110951 Off ch=1 n=69 v=89
110965 Off ch=1 n=41 v=80
110965 Off ch=1 n=65 v=89
110965 On ch=1 n=71 v=89
110965 Off ch=1 n=57 v=80
110965 On ch=1 n=57 v=80
110965 Off ch=1 n=64 v=89
110965 On ch=1 n=65 v=89
110965 Off ch=1 n=53 v=89
110981 Off ch=1 n=69 v=89
110981 Off ch=1 n=70 v=89
110995 Off ch=1 n=71 v=89
110995 On ch=1 n=72 v=89
111025 Off ch=1 n=79 v=89
111025 Off ch=1 n=75 v=80
111025 Off ch=1 n=81 v=80
111025 Off ch=1 n=72 v=89
111025 Off ch=1 n=62 v=80
111025 Off ch=1 n=42 v=89
111025 Off ch=1 n=57 v=80
111025 Off ch=1 n=40 v=80
111025 Off ch=1 n=30 v=80
111025 Off ch=1 n=71 v=89
111025 Off ch=1 n=68 v=89
111025 Off ch=1 n=65 v=89
111025 Off ch=1 n=54 v=89
111025 Off ch=1 n=42 v=89
111025 On ch=1 n=83 v=89
111025 On ch=1 n=77 v=89
111025 On ch=1 n=77 v=80
111025 On ch=1 n=59 v=80
111025 On ch=1 n=39 v=80
111025 On ch=1 n=66 v=89
111025 On ch=1 n=69 v=89
111025 On ch=1 n=65 v=80
111025 On ch=1 n=39 v=89
111025 On ch=1 n=57 v=80
111025 On ch=1 n=43 v=80
111025 On ch=1 n=27 v=80
111025 On ch=1 n=38 v=80
111025 On ch=1 n=39 v=80
111025 On ch=1 n=72 v=89
111025 On ch=1 n=71 v=50
111025 On ch=1 n=74 v=50
111025 On ch=1 n=67 v=89
111025 On ch=1 n=39 v=89
111025 On ch=1 n=50 v=89
111025 On ch=1 n=49 v=55
111026 Off ch=1 n=74 v=89
111040 Off ch=1 n=83 v=89
111055 On ch=1 n=81 v=89
111055 Off ch=1 n=77 v=89
111055 On ch=1 n=75 v=89
111055 Off ch=1 n=77 v=80
111055 On ch=1 n=77 v=80
111055 On ch=1 n=64 v=80
111055 Off ch=1 n=49 v=55
111065 Off ch=1 n=66 v=89
111065 On ch=1 n=67 v=89
111085 On ch=1 n=79 v=89
111085 Off ch=1 n=75 v=89
111085 On ch=1 n=74 v=89
111085 On ch=1 n=76 v=80
111085 Off ch=1 n=39 v=80
111085 On ch=1 n=40 v=80
111085 Off ch=1 n=67 v=89
111085 Off ch=1 n=69 v=89
111085 On ch=1 n=68 v=89
111085 Off ch=1 n=65 v=80
111085 On ch=1 n=64 v=80
111085 Off ch=1 n=39 v=89
111085 On ch=1 n=40 v=89
111085 Meta Lyric "A "
111085 Off ch=1 n=39 v=80
111085 Off ch=1 n=38 v=80
111085 Off ch=1 n=27 v=80
111085 On ch=1 n=28 v=80
111085 On ch=1 n=38 v=80
111085 On ch=1 n=40 v=80
111085 Off ch=1 n=67 v=89
111085 On ch=1 n=40 v=89
111085 On ch=1 n=52 v=89
111085 On ch=1 n=52 v=55
111085 On ch=1 n=52 v=55
111092 Off ch=1 n=81 v=89
111092 Off ch=1 n=77 v=80
111103 Off ch=1 n=50 v=89
111103 Off ch=1 n=39 v=89
111115 On ch=1 n=78 v=89
111115 Off ch=1 n=74 v=89
111115 On ch=1 n=72 v=89
111115 Off ch=1 n=40 v=80
111115 On ch=1 n=41 v=80
111122 Off ch=1 n=79 v=89
111130 On ch=1 n=74 v=80
111141 Off ch=1 n=76 v=80
111145 On ch=1 n=76 v=89
111145 Off ch=1 n=72 v=89
111145 On ch=1 n=70 v=89
111145 Off ch=1 n=68 v=89
111145 On ch=1 n=67 v=89
111145 Off ch=1 n=64 v=80
111145 On ch=1 n=62 v=80
111145 Off ch=1 n=40 v=89
111145 On ch=1 n=42 v=89
111145 Meta Lyric "l "
111145 Off ch=1 n=43 v=80
111145 Off ch=1 n=57 v=80
111145 On ch=1 n=57 v=80
111145 Off ch=1 n=40 v=80
111145 Off ch=1 n=38 v=80
111145 Off ch=1 n=28 v=80
111145 On ch=1 n=29 v=80
111145 On ch=1 n=40 v=80
111145 On ch=1 n=41 v=80
111145 On ch=1 n=66 v=89
111145 Off ch=1 n=52 v=89
111145 Off ch=1 n=40 v=89
111145 On ch=1 n=41 v=89
111145 On ch=1 n=53 v=89
111145 Off ch=1 n=52 v=55
111145 On ch=1 n=53 v=55
111152 Off ch=1 n=78 v=89
111160 On ch=1 n=72 v=80
111167 Off ch=1 n=74 v=80
111175 On ch=1 n=74 v=89
111175 Off ch=1 n=70 v=89
111175 On ch=1 n=81 v=89
111175 Off ch=1 n=41 v=80
111175 On ch=1 n=41 v=80
111175 Off ch=1 n=67 v=89
111175 On ch=1 n=77 v=89
111175 Off ch=1 n=62 v=80
111182 Off ch=1 n=76 v=89
111185 On ch=1 n=67 v=89
111190 On ch=1 n=71 v=80
111197 Off ch=1 n=72 v=80
111205 On ch=1 n=73 v=89
111205 Off ch=1 n=81 v=89
111205 On ch=1 n=79 v=89
111205 Off ch=1 n=77 v=89
111205 On ch=1 n=72 v=89
111205 On ch=1 n=59 v=80
111205 Off ch=1 n=41 v=80
111205 Off ch=1 n=40 v=80
111205 Off ch=1 n=29 v=80
111205 On ch=1 n=29 v=80
111205 On ch=1 n=40 v=80
111205 On ch=1 n=42 v=80
111205 Off ch=1 n=53 v=89
111205 Off ch=1 n=41 v=89
111205 On ch=1 n=42 v=89
111205 On ch=1 n=54 v=89
111205 Off ch=1 n=53 v=55
111205 Off ch=1 n=52 v=55
111205 On ch=1 n=53 v=72
111212 Off ch=1 n=74 v=89
111220 On ch=1 n=69 v=80
111225 Off ch=1 n=67 v=89
111225 On ch=1 n=71 v=89
111227 Off ch=1 n=71 v=80
111235 Off ch=1 n=73 v=89
111235 On ch=1 n=71 v=89
111235 On ch=1 n=77 v=89
111235 Off ch=1 n=72 v=89
111235 On ch=1 n=72 v=89
111235 Off ch=1 n=64 v=80
111235 On ch=1 n=59 v=80
111235 On ch=1 n=62 v=80
111242 Off ch=1 n=79 v=89
111250 Off ch=1 n=69 v=80
111250 On ch=1 n=67 v=80
111265 Off ch=1 n=71 v=89
111265 On ch=1 n=71 v=89
111265 Off ch=1 n=72 v=89
111265 Off ch=1 n=59 v=80
111265 On ch=1 n=60 v=80
111265 On ch=1 n=43 v=80
111265 Off ch=1 n=42 v=80
111265 On ch=1 n=71 v=89
111265 On ch=1 n=74 v=89
111265 On ch=1 n=77 v=89
111265 Off ch=1 n=74 v=50
111265 Off ch=1 n=71 v=50
111265 On ch=1 n=71 v=89
111265 On ch=1 n=74 v=89
111265 Off ch=1 n=66 v=89
111265 On ch=1 n=65 v=89
111295 Off ch=1 n=62 v=80
111295 Off ch=1 n=59 v=80
111295 Off ch=1 n=74 v=89
111295 Off ch=1 n=71 v=89
111295 On ch=1 n=64 v=89
111301 Off ch=1 n=57 v=80
111325 Off ch=1 n=60 v=80
111325 On ch=1 n=60 v=80
111325 Off ch=1 n=72 v=89
111325 Off ch=1 n=64 v=89
111325 On ch=1 n=65 v=89
111325 Off ch=1 n=65 v=89
111325 On ch=1 n=65 v=89
111345 Off ch=1 n=71 v=89
111355 On ch=1 n=64 v=80
111355 On ch=1 n=59 v=80
111355 On ch=1 n=62 v=80
111355 On ch=1 n=66 v=89
111362 Off ch=1 n=65 v=89
111385 Off ch=1 n=71 v=89
111385 On ch=1 n=70 v=105
111385 On ch=1 n=67 v=89
111385 Off ch=1 n=60 v=80
111385 On ch=1 n=57 v=80
111385 Off ch=1 n=43 v=80
111385 On ch=1 n=57 v=80
111385 Off ch=1 n=64 v=80
111385 On ch=1 n=64 v=80
111385 Off ch=1 n=40 v=80
111385 Off ch=1 n=29 v=80
111385 On ch=1 n=67 v=89
111385 Off ch=1 n=54 v=89
111385 Off ch=1 n=42 v=89
111385 Off ch=1 n=53 v=72
111392 Off ch=1 n=66 v=89
111415 Off ch=1 n=77 v=89
111415 On ch=1 n=76 v=89
111415 Off ch=1 n=41 v=80
111415 On ch=1 n=69 v=89
111422 Off ch=1 n=64 v=80
111422 Off ch=1 n=67 v=89
111430 Off ch=1 n=67 v=80
111445 Off ch=1 n=70 v=105
111445 On ch=1 n=68 v=89
111445 Off ch=1 n=76 v=89
111445 On ch=1 n=75 v=89
111445 On ch=1 n=71 v=89
111452 Off ch=1 n=77 v=89
111452 Off ch=1 n=69 v=89
111475 On ch=1 n=74 v=89
111475 Off ch=1 n=67 v=89
111475 Off ch=1 n=42 v=89
111475 Off ch=1 n=62 v=80
111475 Off ch=1 n=59 v=80
111475 On ch=1 n=64 v=80
111475 Off ch=1 n=71 v=89
111475 On ch=1 n=72 v=89
111482 Off ch=1 n=75 v=89
111505 Off ch=1 n=68 v=89
111505 Off ch=1 n=74 v=89
111505 Off ch=1 n=59 v=80
111505 Off ch=1 n=57 v=80
111505 Off ch=1 n=64 v=80
111505 Off ch=1 n=74 v=89
111505 Off ch=1 n=71 v=89
111505 Off ch=1 n=72 v=89
111505 Off ch=1 n=65 v=89
111505 Meta TrkEnd
TrkEnd