MFile 1 21 480
MTrk
0 Meta TrkName "spring.mid"
0 SMPTE 96 0 0 0 0
0 Tempo 500000
0 TimeSig 4/4 24 8
0 Meta Marker "------------------"
1920 Tempo 3157894
2328 Tempo 1333333
2763 Tempo 1500000
2883 Tempo 8571428
3039 Tempo 1621621
3210 Tempo 1132075
3687 Tempo 1200000
3840 TimeSig 3/4 24 8
4554 Tempo 1333333
5280 Tempo 2000000
5280 TimeSig 4/4 24 8
5382 Tempo 1250000
5568 Tempo 1395348
6964 Tempo 1395348
7200 TimeSig 2/4 24 8
7680 Meta Marker "The Rite of Spring"
7776 Tempo 1395348
8156 Tempo 1363636
8160 TimeSig 3/4 24 8
8636 Tempo 1333333
9125 Tempo 1250000
10090 Tempo 1333333
10764 Tempo 5000000
10878 Tempo 1304347
11040 TimeSig 2/4 24 8
11874 Tempo 1578947
12000 TimeSig 3/4 24 8
12228 Tempo 1333333
12498 Tempo 1250000
12954 Tempo 1395348
13440 Tempo 2000000
13440 TimeSig 2/4 24 8
13542 Tempo 1333333
13818 Tempo 1500000
13938 Tempo 2727272
14400 Tempo 1200000
15840 Meta Marker "Igor Stravinsky"
15988 Tempo 1333333
16244 Tempo 1818181
17280 Tempo 1200000
17280 TimeSig 3/4 24 8
17760 Tempo 1578947
17871 Tempo 1250000
18147 Tempo 1714285
18243 Tempo 2400000
18720 Tempo 1200000
18720 TimeSig 2/4 24 8
19200 Tempo 1090909
23040 Meta Marker "For SC-88"
23520 TimeSig 3/4 24 8
24960 Tempo 1016949
26400 TimeSig 2/4 24 8
29280 TimeSig 3/4 24 8
30240 Meta Marker "Jun Nishio"
30720 TimeSig 2/4 24 8
37440 Meta Marker "junatc@na.rim.or.jp"
44640 Meta Marker "------------------"
56640 TimeSig 3/4 24 8
58080 TimeSig 2/4 24 8
59040 TimeSig 3/4 24 8
61920 TimeSig 2/4 24 8
63840 TimeSig 3/4 24 8
65280 TimeSig 2/4 24 8
68160 TimeSig 3/4 24 8
72480 TimeSig 2/4 24 8
73440 Tempo 3000000
73845 Tempo 1304347
74283 Tempo 1500000
74400 Tempo 1304347
74400 TimeSig 3/4 24 8
75834 Tempo 2000000
75945 Tempo 1153846
77280 TimeSig 2/4 24 8
79200 TimeSig 3/4 24 8
81768 Tempo 1500000
82080 Tempo 1090909
84960 TimeSig 2/4 24 8
86880 Tempo 540540
153126 Tempo 666666
153950 Tempo 7500000
154080 Tempo 666666
154650 Tempo 5454545
154877 Tempo 540540
252000 Tempo 588235
252480 Tempo 631578
252960 Tempo 352941
252960 TimeSig 9/8 24 8
289680 TimeSig 12/8 24 8
292560 TimeSig 9/8 24 8
296880 TimeSig 6/8 24 8
308400 TimeSig 7/8 24 8
310080 TimeSig 3/4 24 8
311520 TimeSig 6/8 24 8
312960 TimeSig 2/4 24 8
313920 TimeSig 6/8 24 8
315360 TimeSig 3/4 24 8
316800 TimeSig 9/8 24 8
324000 Tempo 363636
324720 Tempo 375000
325437 Tempo 387096
326160 Tempo 400000
326880 Tempo 461538
334080 TimeSig 3/8 24 8
334800 Tempo 375000
334800 TimeSig 5/8 24 8
337200 TimeSig 3/8 24 8
337920 TimeSig 4/8 24 8
338880 TimeSig 5/8 24 8
340080 TimeSig 6/8 24 8
341520 TimeSig 5/8 24 8
342720 Tempo 375000
342720 TimeSig 2/8 24 8
343200 TimeSig 6/8 24 8
347520 TimeSig 6/8 24 8
348960 TimeSig 2/8 24 8
349440 TimeSig 6/8 24 8
350880 TimeSig 4/8 24 8
351840 TimeSig 6/8 24 8
354720 TimeSig 4/8 24 8
355680 TimeSig 6/8 24 8
357120 TimeSig 4/4 24 8
416640 Tempo 1071428
430080 TimeSig 3/4 24 8
431520 TimeSig 4/4 24 8
450720 TimeSig 6/4 24 8
453600 TimeSig 4/4 24 8
463200 TimeSig 3/4 24 8
464640 TimeSig 4/4 24 8
524160 Meta TrkEnd
TrkEnd
MTrk
0 Meta InstrName "SC-88VL"
0 Meta TrkName "STr"
480 Par ch=1 c=0 v=0
480 Par ch=1 c=32 v=1
480 PrCh ch=1 p=48
960 Par ch=1 c=93 v=0
960 Par ch=1 c=91 v=110
970 Par ch=1 c=7 v=100
50880 On ch=1 n=34 v=48
56640 Off ch=1 n=34 v=64
62880 On ch=1 n=35 v=32
62880 On ch=1 n=40 v=32
62880 On ch=1 n=71 v=14
62880 On ch=1 n=76 v=14
62880 On ch=1 n=80 v=14
62880 On ch=1 n=86 v=14
73440 Off ch=1 n=35 v=64
73440 Off ch=1 n=40 v=64
73440 Off ch=1 n=71 v=64
73440 Off ch=1 n=76 v=64
73440 Off ch=1 n=80 v=64
73440 Off ch=1 n=86 v=64
83040 Par ch=1 c=7 v=24
83051 Par ch=1 c=7 v=24
83062 Par ch=1 c=7 v=25
83074 Par ch=1 c=7 v=26
83085 Par ch=1 c=7 v=27
83097 Par ch=1 c=7 v=28
83108 Par ch=1 c=7 v=29
83120 Par ch=1 c=7 v=30
83131 Par ch=1 c=7 v=31
83142 Par ch=1 c=7 v=32
83154 Par ch=1 c=7 v=33
83165 Par ch=1 c=7 v=34
83177 Par ch=1 c=7 v=35
83188 Par ch=1 c=7 v=36
83200 Par ch=1 c=7 v=37
83211 Par ch=1 c=7 v=38
83222 Par ch=1 c=7 v=39
83234 Par ch=1 c=7 v=40
83245 Par ch=1 c=7 v=41
83257 Par ch=1 c=7 v=42
83268 Par ch=1 c=7 v=43
83280 On ch=1 n=98 v=38
83280 Par ch=1 c=7 v=44
83280 On ch=1 n=72 v=38
83280 On ch=1 n=79 v=38
83280 On ch=1 n=58 v=38
83280 On ch=1 n=54 v=38
83280 On ch=1 n=64 v=38
83291 Par ch=1 c=7 v=45
83302 Par ch=1 c=7 v=46
83314 Par ch=1 c=7 v=47
83325 Par ch=1 c=7 v=48
83337 Par ch=1 c=7 v=49
83348 Par ch=1 c=7 v=50
83360 Par ch=1 c=7 v=51
83371 Par ch=1 c=7 v=52
83382 Par ch=1 c=7 v=53
83394 Par ch=1 c=7 v=54
83405 Par ch=1 c=7 v=55
83417 Par ch=1 c=7 v=56
83428 Par ch=1 c=7 v=57
83440 Par ch=1 c=7 v=58
83451 Par ch=1 c=7 v=59
83462 Par ch=1 c=7 v=60
83474 Par ch=1 c=7 v=61
83485 Par ch=1 c=7 v=62
83497 Par ch=1 c=7 v=63
83508 Par ch=1 c=7 v=64
83519 Par ch=1 c=7 v=66
83792 Par ch=1 c=7 v=65
84179 Par ch=1 c=7 v=64
84181 Par ch=1 c=7 v=64
84193 Par ch=1 c=7 v=63
84205 Par ch=1 c=7 v=62
84217 Par ch=1 c=7 v=61
84229 Par ch=1 c=7 v=60
84241 Par ch=1 c=7 v=59
84254 Par ch=1 c=7 v=58
84266 Par ch=1 c=7 v=57
84278 Par ch=1 c=7 v=56
84290 Par ch=1 c=7 v=55
84302 Par ch=1 c=7 v=54
84314 Par ch=1 c=7 v=53
84326 Par ch=1 c=7 v=52
84338 Par ch=1 c=7 v=51
84350 Par ch=1 c=7 v=50
84362 Par ch=1 c=7 v=49
84375 Par ch=1 c=7 v=48
84387 Par ch=1 c=7 v=47
84399 Par ch=1 c=7 v=46
84411 Par ch=1 c=7 v=45
84423 Par ch=1 c=7 v=44
84435 Par ch=1 c=7 v=43
84447 Par ch=1 c=7 v=42
84459 Par ch=1 c=7 v=41
84471 Par ch=1 c=7 v=40
84480 Off ch=1 n=98 v=64
84480 Off ch=1 n=72 v=64
84480 Off ch=1 n=79 v=64
84480 Off ch=1 n=58 v=64
84480 Off ch=1 n=54 v=64
84480 Off ch=1 n=64 v=64
84480 On ch=1 n=67 v=42
84480 On ch=1 n=73 v=42
84480 On ch=1 n=52 v=42
84480 On ch=1 n=63 v=42
84483 Par ch=1 c=7 v=39
84495 Par ch=1 c=7 v=38
84576 Off ch=1 n=67 v=64
84576 Off ch=1 n=73 v=64
84576 Off ch=1 n=52 v=64
84576 Off ch=1 n=63 v=64
86635 Par ch=1 c=7 v=98
86880 On ch=1 n=52 v=76
86880 On ch=1 n=47 v=76
86880 On ch=1 n=40 v=96
86880 On ch=1 n=44 v=86
86880 On ch=1 n=63 v=86
86880 On ch=1 n=55 v=86
86880 On ch=1 n=61 v=86
86880 On ch=1 n=58 v=86
86984 Off ch=1 n=52 v=64
86984 Off ch=1 n=47 v=64
86984 Off ch=1 n=40 v=64
86984 Off ch=1 n=44 v=64
86984 Off ch=1 n=63 v=64
86984 Off ch=1 n=55 v=64
86984 Off ch=1 n=61 v=64
86984 Off ch=1 n=58 v=64
87120 On ch=1 n=40 v=96
87120 On ch=1 n=47 v=76
87120 On ch=1 n=44 v=86
87120 On ch=1 n=52 v=76
87120 On ch=1 n=55 v=86
87120 On ch=1 n=63 v=86
87120 On ch=1 n=61 v=86
87120 On ch=1 n=58 v=86
87224 Off ch=1 n=40 v=64
87224 Off ch=1 n=47 v=64
87224 Off ch=1 n=44 v=64
87224 Off ch=1 n=52 v=64
87224 Off ch=1 n=55 v=64
87224 Off ch=1 n=63 v=64
87224 Off ch=1 n=61 v=64
87224 Off ch=1 n=58 v=64
87360 On ch=1 n=40 v=96
87360 On ch=1 n=52 v=76
87360 On ch=1 n=44 v=86
87360 On ch=1 n=47 v=76
87360 On ch=1 n=63 v=86
87360 On ch=1 n=55 v=86
87360 On ch=1 n=58 v=86
87360 On ch=1 n=61 v=86
87464 Off ch=1 n=40 v=64
87464 Off ch=1 n=52 v=64
87464 Off ch=1 n=44 v=64
87464 Off ch=1 n=47 v=64
87464 Off ch=1 n=63 v=64
87464 Off ch=1 n=55 v=64
87464 Off ch=1 n=58 v=64
87464 Off ch=1 n=61 v=64
87600 On ch=1 n=47 v=76
87600 On ch=1 n=40 v=96
87600 On ch=1 n=44 v=86
87600 On ch=1 n=52 v=76
87600 On ch=1 n=55 v=86
87600 On ch=1 n=63 v=86
87600 On ch=1 n=58 v=86
87600 On ch=1 n=61 v=86
87704 Off ch=1 n=47 v=64
87704 Off ch=1 n=40 v=64
87704 Off ch=1 n=44 v=64
87704 Off ch=1 n=52 v=64
87704 Off ch=1 n=55 v=64
87704 Off ch=1 n=63 v=64
87704 Off ch=1 n=58 v=64
87704 Off ch=1 n=61 v=64
87840 On ch=1 n=40 v=96
87840 On ch=1 n=47 v=76
87840 On ch=1 n=52 v=76
87840 On ch=1 n=44 v=86
87840 On ch=1 n=63 v=86
87840 On ch=1 n=55 v=86
87840 On ch=1 n=58 v=86
87840 On ch=1 n=61 v=86
87944 Off ch=1 n=40 v=64
87944 Off ch=1 n=47 v=64
87944 Off ch=1 n=52 v=64
87944 Off ch=1 n=44 v=64
87944 Off ch=1 n=63 v=64
87944 Off ch=1 n=55 v=64
87944 Off ch=1 n=58 v=64
87944 Off ch=1 n=61 v=64
88080 On ch=1 n=40 v=96
88080 On ch=1 n=47 v=76
88080 On ch=1 n=52 v=76
88080 On ch=1 n=44 v=86
88080 On ch=1 n=55 v=86
88080 On ch=1 n=63 v=86
88080 On ch=1 n=61 v=86
88080 On ch=1 n=58 v=86
88184 Off ch=1 n=40 v=64
88184 Off ch=1 n=47 v=64
88184 Off ch=1 n=52 v=64
88184 Off ch=1 n=44 v=64
88184 Off ch=1 n=55 v=64
88184 Off ch=1 n=63 v=64
88184 Off ch=1 n=61 v=64
88184 Off ch=1 n=58 v=64
88320 On ch=1 n=40 v=96
88320 On ch=1 n=44 v=86
88320 On ch=1 n=47 v=76
88320 On ch=1 n=52 v=76
88320 On ch=1 n=55 v=86
88320 On ch=1 n=63 v=86
88320 On ch=1 n=58 v=86
88320 On ch=1 n=61 v=86
88424 Off ch=1 n=40 v=64
88424 Off ch=1 n=44 v=64
88424 Off ch=1 n=47 v=64
88424 Off ch=1 n=52 v=64
88424 Off ch=1 n=55 v=64
88424 Off ch=1 n=63 v=64
88424 Off ch=1 n=58 v=64
88424 Off ch=1 n=61 v=64
88560 On ch=1 n=47 v=76
88560 On ch=1 n=40 v=96
88560 On ch=1 n=44 v=86
88560 On ch=1 n=52 v=76
88560 On ch=1 n=55 v=86
88560 On ch=1 n=63 v=86
88560 On ch=1 n=58 v=86
88560 On ch=1 n=61 v=86
88664 Off ch=1 n=47 v=64
88664 Off ch=1 n=40 v=64
88664 Off ch=1 n=44 v=64
88664 Off ch=1 n=52 v=64
88664 Off ch=1 n=55 v=64
88664 Off ch=1 n=63 v=64
88664 Off ch=1 n=58 v=64
88664 Off ch=1 n=61 v=64
88800 On ch=1 n=44 v=86
88800 On ch=1 n=47 v=76
88800 On ch=1 n=52 v=76
88800 On ch=1 n=40 v=96
88800 On ch=1 n=55 v=86
88800 On ch=1 n=63 v=86
88800 On ch=1 n=61 v=86
88800 On ch=1 n=58 v=86
88904 Off ch=1 n=44 v=64
88904 Off ch=1 n=47 v=64
88904 Off ch=1 n=52 v=64
88904 Off ch=1 n=40 v=64
88904 Off ch=1 n=55 v=64
88904 Off ch=1 n=63 v=64
88904 Off ch=1 n=61 v=64
88904 Off ch=1 n=58 v=64
89040 On ch=1 n=40 v=127
89040 On ch=1 n=47 v=108
89040 On ch=1 n=52 v=108
89040 On ch=1 n=44 v=118
89040 On ch=1 n=55 v=118
89040 On ch=1 n=63 v=118
89040 On ch=1 n=58 v=118
89040 On ch=1 n=61 v=118
89144 Off ch=1 n=40 v=64
89144 Off ch=1 n=47 v=64
89144 Off ch=1 n=52 v=64
89144 Off ch=1 n=44 v=64
89144 Off ch=1 n=55 v=64
89144 Off ch=1 n=63 v=64
89144 Off ch=1 n=58 v=64
89144 Off ch=1 n=61 v=64
89280 On ch=1 n=47 v=74
89280 On ch=1 n=44 v=84
89280 On ch=1 n=52 v=74
89280 On ch=1 n=40 v=94
89280 On ch=1 n=55 v=84
89280 On ch=1 n=63 v=84
89280 On ch=1 n=58 v=84
89280 On ch=1 n=61 v=84
89384 Off ch=1 n=47 v=64
89384 Off ch=1 n=44 v=64
89384 Off ch=1 n=52 v=64
89384 Off ch=1 n=40 v=64
89384 Off ch=1 n=55 v=64
89384 Off ch=1 n=63 v=64
89384 Off ch=1 n=58 v=64
89384 Off ch=1 n=61 v=64
89520 On ch=1 n=47 v=108
89520 On ch=1 n=52 v=108
89520 On ch=1 n=44 v=118
89520 On ch=1 n=40 v=127
89520 On ch=1 n=55 v=118
89520 On ch=1 n=58 v=118
89520 On ch=1 n=63 v=118
89520 On ch=1 n=61 v=118
89624 Off ch=1 n=47 v=64
89624 Off ch=1 n=52 v=64
89624 Off ch=1 n=44 v=64
89624 Off ch=1 n=40 v=64
89624 Off ch=1 n=55 v=64
89624 Off ch=1 n=58 v=64
89624 Off ch=1 n=63 v=64
89624 Off ch=1 n=61 v=64
89760 On ch=1 n=44 v=88
89760 On ch=1 n=47 v=78
89760 On ch=1 n=52 v=78
89760 On ch=1 n=40 v=98
89760 On ch=1 n=55 v=88
89760 On ch=1 n=63 v=88
89760 On ch=1 n=58 v=88
89760 On ch=1 n=61 v=88
89864 Off ch=1 n=44 v=64
89864 Off ch=1 n=47 v=64
89864 Off ch=1 n=52 v=64
89864 Off ch=1 n=40 v=64
89864 Off ch=1 n=55 v=64
89864 Off ch=1 n=63 v=64
89864 Off ch=1 n=58 v=64
89864 Off ch=1 n=61 v=64
90000 On ch=1 n=47 v=78
90000 On ch=1 n=40 v=98
90000 On ch=1 n=52 v=78
90000 On ch=1 n=44 v=88
90000 On ch=1 n=63 v=88
90000 On ch=1 n=55 v=88
90000 On ch=1 n=58 v=88
90000 On ch=1 n=61 v=88
90104 Off ch=1 n=47 v=64
90104 Off ch=1 n=40 v=64
90104 Off ch=1 n=52 v=64
90104 Off ch=1 n=44 v=64
90104 Off ch=1 n=63 v=64
90104 Off ch=1 n=55 v=64
90104 Off ch=1 n=58 v=64
90104 Off ch=1 n=61 v=64
90240 On ch=1 n=47 v=78
90240 On ch=1 n=40 v=98
90240 On ch=1 n=44 v=88
90240 On ch=1 n=52 v=78
90240 On ch=1 n=55 v=88
90240 On ch=1 n=63 v=88
90240 On ch=1 n=61 v=88
90240 On ch=1 n=58 v=88
90344 Off ch=1 n=47 v=64
90344 Off ch=1 n=40 v=64
90344 Off ch=1 n=44 v=64
90344 Off ch=1 n=52 v=64
90344 Off ch=1 n=55 v=64
90344 Off ch=1 n=63 v=64
90344 Off ch=1 n=61 v=64
90344 Off ch=1 n=58 v=64
90480 On ch=1 n=47 v=78
90480 On ch=1 n=40 v=98
90480 On ch=1 n=44 v=88
90480 On ch=1 n=52 v=78
90480 On ch=1 n=55 v=88
90480 On ch=1 n=63 v=88
90480 On ch=1 n=61 v=88
90480 On ch=1 n=58 v=88
90584 Off ch=1 n=47 v=64
90584 Off ch=1 n=40 v=64
90584 Off ch=1 n=44 v=64
90584 Off ch=1 n=52 v=64
90584 Off ch=1 n=55 v=64
90584 Off ch=1 n=63 v=64
90584 Off ch=1 n=61 v=64
90584 Off ch=1 n=58 v=64
90720 On ch=1 n=40 v=98
90720 On ch=1 n=44 v=88
90720 On ch=1 n=47 v=78
90720 On ch=1 n=52 v=78
90720 On ch=1 n=55 v=88
90720 On ch=1 n=58 v=88
90720 On ch=1 n=63 v=88
90720 On ch=1 n=61 v=88
90824 Off ch=1 n=40 v=64
90824 Off ch=1 n=44 v=64
90824 Off ch=1 n=47 v=64
90824 Off ch=1 n=52 v=64
90824 Off ch=1 n=55 v=64
90824 Off ch=1 n=58 v=64
90824 Off ch=1 n=63 v=64
90824 Off ch=1 n=61 v=64
90960 On ch=1 n=40 v=127
90960 On ch=1 n=47 v=108
90960 On ch=1 n=44 v=118
90960 On ch=1 n=52 v=108
90960 On ch=1 n=55 v=118
90960 On ch=1 n=63 v=118
90960 On ch=1 n=58 v=118
90960 On ch=1 n=61 v=118
91064 Off ch=1 n=40 v=64
91064 Off ch=1 n=47 v=64
91064 Off ch=1 n=44 v=64
91064 Off ch=1 n=52 v=64
91064 Off ch=1 n=55 v=64
91064 Off ch=1 n=63 v=64
91064 Off ch=1 n=58 v=64
91064 Off ch=1 n=61 v=64
91200 On ch=1 n=44 v=88
91200 On ch=1 n=47 v=78
91200 On ch=1 n=52 v=78
91200 On ch=1 n=40 v=98
91200 On ch=1 n=55 v=88
91200 On ch=1 n=63 v=88
91200 On ch=1 n=58 v=88
91200 On ch=1 n=61 v=88
91304 Off ch=1 n=44 v=64
91304 Off ch=1 n=47 v=64
91304 Off ch=1 n=52 v=64
91304 Off ch=1 n=40 v=64
91304 Off ch=1 n=55 v=64
91304 Off ch=1 n=63 v=64
91304 Off ch=1 n=58 v=64
91304 Off ch=1 n=61 v=64
91440 On ch=1 n=47 v=78
91440 On ch=1 n=44 v=88
91440 On ch=1 n=40 v=98
91440 On ch=1 n=52 v=78
91440 On ch=1 n=55 v=88
91440 On ch=1 n=63 v=88
91440 On ch=1 n=61 v=88
91440 On ch=1 n=58 v=88
91544 Off ch=1 n=47 v=64
91544 Off ch=1 n=44 v=64
91544 Off ch=1 n=40 v=64
91544 Off ch=1 n=52 v=64
91544 Off ch=1 n=55 v=64
91544 Off ch=1 n=63 v=64
91544 Off ch=1 n=61 v=64
91544 Off ch=1 n=58 v=64
91680 On ch=1 n=47 v=108
91680 On ch=1 n=44 v=118
91680 On ch=1 n=40 v=127
91680 On ch=1 n=52 v=108
91680 On ch=1 n=55 v=118
91680 On ch=1 n=63 v=118
91680 On ch=1 n=61 v=118
91680 On ch=1 n=58 v=118
91784 Off ch=1 n=47 v=64
91784 Off ch=1 n=44 v=64
91784 Off ch=1 n=40 v=64
91784 Off ch=1 n=52 v=64
91784 Off ch=1 n=55 v=64
91784 Off ch=1 n=63 v=64
91784 Off ch=1 n=61 v=64
91784 Off ch=1 n=58 v=64
91920 On ch=1 n=44 v=88
91920 On ch=1 n=47 v=78
91920 On ch=1 n=40 v=98
91920 On ch=1 n=52 v=78
91920 On ch=1 n=55 v=88
91920 On ch=1 n=61 v=88
91920 On ch=1 n=63 v=88
91920 On ch=1 n=58 v=88
92024 Off ch=1 n=44 v=64
92024 Off ch=1 n=47 v=64
92024 Off ch=1 n=40 v=64
92024 Off ch=1 n=52 v=64
92024 Off ch=1 n=55 v=64
92024 Off ch=1 n=61 v=64
92024 Off ch=1 n=63 v=64
92024 Off ch=1 n=58 v=64
92160 On ch=1 n=47 v=78
92160 On ch=1 n=44 v=88
92160 On ch=1 n=40 v=98
92160 On ch=1 n=52 v=78
92160 On ch=1 n=55 v=88
92160 On ch=1 n=61 v=88
92160 On ch=1 n=63 v=88
92160 On ch=1 n=58 v=88
92264 Off ch=1 n=47 v=64
92264 Off ch=1 n=44 v=64
92264 Off ch=1 n=40 v=64
92264 Off ch=1 n=52 v=64
92264 Off ch=1 n=55 v=64
92264 Off ch=1 n=61 v=64
92264 Off ch=1 n=63 v=64
92264 Off ch=1 n=58 v=64
92400 On ch=1 n=47 v=78
92400 On ch=1 n=44 v=88
92400 On ch=1 n=52 v=78
92400 On ch=1 n=40 v=98
92400 On ch=1 n=55 v=88
92400 On ch=1 n=63 v=88
92400 On ch=1 n=61 v=88
92400 On ch=1 n=58 v=88
92504 Off ch=1 n=47 v=64
92504 Off ch=1 n=44 v=64
92504 Off ch=1 n=52 v=64
92504 Off ch=1 n=40 v=64
92504 Off ch=1 n=55 v=64
92504 Off ch=1 n=63 v=64
92504 Off ch=1 n=61 v=64
92504 Off ch=1 n=58 v=64
92640 On ch=1 n=47 v=108
92640 On ch=1 n=52 v=108
92640 On ch=1 n=44 v=118
92640 On ch=1 n=40 v=127
92640 On ch=1 n=55 v=118
92640 On ch=1 n=58 v=118
92640 On ch=1 n=63 v=118
92640 On ch=1 n=61 v=118
92744 Off ch=1 n=47 v=64
92744 Off ch=1 n=52 v=64
92744 Off ch=1 n=44 v=64
92744 Off ch=1 n=40 v=64
92744 Off ch=1 n=55 v=64
92744 Off ch=1 n=58 v=64
92744 Off ch=1 n=63 v=64
92744 Off ch=1 n=61 v=64
92880 On ch=1 n=47 v=78
92880 On ch=1 n=44 v=88
92880 On ch=1 n=52 v=78
92880 On ch=1 n=40 v=98
92880 On ch=1 n=63 v=88
92880 On ch=1 n=55 v=88
92880 On ch=1 n=61 v=88
92880 On ch=1 n=58 v=88
92984 Off ch=1 n=47 v=64
92984 Off ch=1 n=44 v=64
92984 Off ch=1 n=52 v=64
92984 Off ch=1 n=40 v=64
92984 Off ch=1 n=63 v=64
92984 Off ch=1 n=55 v=64
92984 Off ch=1 n=61 v=64
92984 Off ch=1 n=58 v=64
93120 On ch=1 n=47 v=78
93120 On ch=1 n=44 v=88
93120 On ch=1 n=40 v=98
93120 On ch=1 n=52 v=78
93120 On ch=1 n=55 v=88
93120 On ch=1 n=63 v=88
93120 On ch=1 n=61 v=88
93120 On ch=1 n=58 v=88
93224 Off ch=1 n=47 v=64
93224 Off ch=1 n=44 v=64
93224 Off ch=1 n=40 v=64
93224 Off ch=1 n=52 v=64
93224 Off ch=1 n=55 v=64
93224 Off ch=1 n=63 v=64
93224 Off ch=1 n=61 v=64
93224 Off ch=1 n=58 v=64
93360 On ch=1 n=44 v=88
93360 On ch=1 n=47 v=78
93360 On ch=1 n=40 v=98
93360 On ch=1 n=52 v=78
93360 On ch=1 n=55 v=88
93360 On ch=1 n=63 v=88
93360 On ch=1 n=61 v=88
93360 On ch=1 n=58 v=88
93464 Off ch=1 n=44 v=64
93464 Off ch=1 n=47 v=64
93464 Off ch=1 n=40 v=64
93464 Off ch=1 n=52 v=64
93464 Off ch=1 n=55 v=64
93464 Off ch=1 n=63 v=64
93464 Off ch=1 n=61 v=64
93464 Off ch=1 n=58 v=64
93600 On ch=1 n=47 v=78
93600 On ch=1 n=44 v=88
93600 On ch=1 n=40 v=98
93600 On ch=1 n=52 v=78
93600 On ch=1 n=63 v=88
93600 On ch=1 n=55 v=88
93600 On ch=1 n=58 v=88
93600 On ch=1 n=61 v=88
93704 Off ch=1 n=47 v=64
93704 Off ch=1 n=44 v=64
93704 Off ch=1 n=40 v=64
93704 Off ch=1 n=52 v=64
93704 Off ch=1 n=63 v=64
93704 Off ch=1 n=55 v=64
93704 Off ch=1 n=58 v=64
93704 Off ch=1 n=61 v=64
93840 On ch=1 n=40 v=127
93840 On ch=1 n=47 v=108
93840 On ch=1 n=52 v=108
93840 On ch=1 n=44 v=118
93840 On ch=1 n=55 v=118
93840 On ch=1 n=63 v=118
93840 On ch=1 n=61 v=118
93840 On ch=1 n=58 v=118
93944 Off ch=1 n=40 v=64
93944 Off ch=1 n=47 v=64
93944 Off ch=1 n=52 v=64
93944 Off ch=1 n=44 v=64
93944 Off ch=1 n=55 v=64
93944 Off ch=1 n=63 v=64
93944 Off ch=1 n=61 v=64
93944 Off ch=1 n=58 v=64
94080 On ch=1 n=47 v=78
94080 On ch=1 n=44 v=88
94080 On ch=1 n=52 v=78
94080 On ch=1 n=40 v=98
94080 On ch=1 n=55 v=88
94080 On ch=1 n=63 v=88
94080 On ch=1 n=61 v=88
94080 On ch=1 n=58 v=88
94184 Off ch=1 n=47 v=64
94184 Off ch=1 n=44 v=64
94184 Off ch=1 n=52 v=64
94184 Off ch=1 n=40 v=64
94184 Off ch=1 n=55 v=64
94184 Off ch=1 n=63 v=64
94184 Off ch=1 n=61 v=64
94184 Off ch=1 n=58 v=64
94320 On ch=1 n=40 v=98
94320 On ch=1 n=47 v=78
94320 On ch=1 n=52 v=78
94320 On ch=1 n=44 v=88
94320 On ch=1 n=55 v=88
94320 On ch=1 n=63 v=88
94320 On ch=1 n=61 v=88
94320 On ch=1 n=58 v=88
94424 Off ch=1 n=40 v=64
94424 Off ch=1 n=47 v=64
94424 Off ch=1 n=52 v=64
94424 Off ch=1 n=44 v=64
94424 Off ch=1 n=55 v=64
94424 Off ch=1 n=63 v=64
94424 Off ch=1 n=61 v=64
94424 Off ch=1 n=58 v=64
98400 On ch=1 n=52 v=76
98400 On ch=1 n=47 v=76
98400 On ch=1 n=40 v=96
98400 On ch=1 n=44 v=86
98400 On ch=1 n=63 v=86
98400 On ch=1 n=55 v=86
98400 On ch=1 n=61 v=86
98400 On ch=1 n=58 v=86
98504 Off ch=1 n=52 v=64
98504 Off ch=1 n=47 v=64
98504 Off ch=1 n=40 v=64
98504 Off ch=1 n=44 v=64
98504 Off ch=1 n=63 v=64
98504 Off ch=1 n=55 v=64
98504 Off ch=1 n=61 v=64
98504 Off ch=1 n=58 v=64
98640 On ch=1 n=40 v=96
98640 On ch=1 n=47 v=76
98640 On ch=1 n=44 v=86
98640 On ch=1 n=52 v=76
98640 On ch=1 n=55 v=86
98640 On ch=1 n=63 v=86
98640 On ch=1 n=61 v=86
98640 On ch=1 n=58 v=86
98744 Off ch=1 n=40 v=64
98744 Off ch=1 n=47 v=64
98744 Off ch=1 n=44 v=64
98744 Off ch=1 n=52 v=64
98744 Off ch=1 n=55 v=64
98744 Off ch=1 n=63 v=64
98744 Off ch=1 n=61 v=64
98744 Off ch=1 n=58 v=64
98880 On ch=1 n=40 v=96
98880 On ch=1 n=52 v=76
98880 On ch=1 n=44 v=86
98880 On ch=1 n=47 v=76
98880 On ch=1 n=63 v=86
98880 On ch=1 n=55 v=86
98880 On ch=1 n=58 v=86
98880 On ch=1 n=61 v=86
98984 Off ch=1 n=40 v=64
98984 Off ch=1 n=52 v=64
98984 Off ch=1 n=44 v=64
98984 Off ch=1 n=47 v=64
98984 Off ch=1 n=63 v=64
98984 Off ch=1 n=55 v=64
98984 Off ch=1 n=58 v=64
98984 Off ch=1 n=61 v=64
99120 On ch=1 n=47 v=76
99120 On ch=1 n=40 v=96
99120 On ch=1 n=44 v=86
99120 On ch=1 n=52 v=76
99120 On ch=1 n=55 v=86
99120 On ch=1 n=63 v=86
99120 On ch=1 n=58 v=86
99120 On ch=1 n=61 v=86
99224 Off ch=1 n=47 v=64
99224 Off ch=1 n=40 v=64
99224 Off ch=1 n=44 v=64
99224 Off ch=1 n=52 v=64
99224 Off ch=1 n=55 v=64
99224 Off ch=1 n=63 v=64
99224 Off ch=1 n=58 v=64
99224 Off ch=1 n=61 v=64
99360 On ch=1 n=44 v=86
99360 On ch=1 n=47 v=76
99360 On ch=1 n=52 v=76
99360 On ch=1 n=40 v=96
99360 On ch=1 n=55 v=86
99360 On ch=1 n=63 v=86
99360 On ch=1 n=61 v=86
99360 On ch=1 n=58 v=86
99464 Off ch=1 n=44 v=64
99464 Off ch=1 n=47 v=64
99464 Off ch=1 n=52 v=64
99464 Off ch=1 n=40 v=64
99464 Off ch=1 n=55 v=64
99464 Off ch=1 n=63 v=64
99464 Off ch=1 n=61 v=64
99464 Off ch=1 n=58 v=64
99600 On ch=1 n=40 v=127
99600 On ch=1 n=47 v=108
99600 On ch=1 n=52 v=108
99600 On ch=1 n=44 v=118
99600 On ch=1 n=55 v=118
99600 On ch=1 n=63 v=118
99600 On ch=1 n=58 v=118
99600 On ch=1 n=61 v=118
99704 Off ch=1 n=40 v=64
99704 Off ch=1 n=47 v=64
99704 Off ch=1 n=52 v=64
99704 Off ch=1 n=44 v=64
99704 Off ch=1 n=55 v=64
99704 Off ch=1 n=63 v=64
99704 Off ch=1 n=58 v=64
99704 Off ch=1 n=61 v=64
99840 On ch=1 n=47 v=78
99840 On ch=1 n=44 v=88
99840 On ch=1 n=52 v=78
99840 On ch=1 n=40 v=98
99840 On ch=1 n=55 v=88
99840 On ch=1 n=63 v=88
99840 On ch=1 n=58 v=88
99840 On ch=1 n=61 v=88
99944 Off ch=1 n=47 v=64
99944 Off ch=1 n=44 v=64
99944 Off ch=1 n=52 v=64
99944 Off ch=1 n=40 v=64
99944 Off ch=1 n=55 v=64
99944 Off ch=1 n=63 v=64
99944 Off ch=1 n=58 v=64
99944 Off ch=1 n=61 v=64
100080 On ch=1 n=47 v=108
100080 On ch=1 n=52 v=108
100080 On ch=1 n=44 v=118
100080 On ch=1 n=40 v=127
100080 On ch=1 n=55 v=118
100080 On ch=1 n=58 v=118
100080 On ch=1 n=63 v=118
100080 On ch=1 n=61 v=118
100184 Off ch=1 n=47 v=64
100184 Off ch=1 n=52 v=64
100184 Off ch=1 n=44 v=64
100184 Off ch=1 n=40 v=64
100184 Off ch=1 n=55 v=64
100184 Off ch=1 n=58 v=64
100184 Off ch=1 n=63 v=64
100184 Off ch=1 n=61 v=64
100320 On ch=1 n=44 v=86
100320 On ch=1 n=47 v=76
100320 On ch=1 n=52 v=76
100320 On ch=1 n=40 v=96
100320 On ch=1 n=55 v=86
100320 On ch=1 n=63 v=86
100320 On ch=1 n=58 v=86
100320 On ch=1 n=61 v=86
100424 Off ch=1 n=44 v=64
100424 Off ch=1 n=47 v=64
100424 Off ch=1 n=52 v=64
100424 Off ch=1 n=40 v=64
100424 Off ch=1 n=55 v=64
100424 Off ch=1 n=63 v=64
100424 Off ch=1 n=58 v=64
100424 Off ch=1 n=61 v=64
100560 On ch=1 n=47 v=76
100560 On ch=1 n=40 v=96
100560 On ch=1 n=52 v=76
100560 On ch=1 n=44 v=86
100560 On ch=1 n=63 v=86
100560 On ch=1 n=55 v=86
100560 On ch=1 n=58 v=86
100560 On ch=1 n=61 v=86
100664 Off ch=1 n=47 v=64
100664 Off ch=1 n=40 v=64
100664 Off ch=1 n=52 v=64
100664 Off ch=1 n=44 v=64
100664 Off ch=1 n=63 v=64
100664 Off ch=1 n=55 v=64
100664 Off ch=1 n=58 v=64
100664 Off ch=1 n=61 v=64
100800 On ch=1 n=47 v=76
100800 On ch=1 n=40 v=96
100800 On ch=1 n=44 v=86
100800 On ch=1 n=52 v=76
100800 On ch=1 n=55 v=86
100800 On ch=1 n=63 v=86
100800 On ch=1 n=61 v=86
100800 On ch=1 n=58 v=86
100904 Off ch=1 n=47 v=64
100904 Off ch=1 n=40 v=64
100904 Off ch=1 n=44 v=64
100904 Off ch=1 n=52 v=64
100904 Off ch=1 n=55 v=64
100904 Off ch=1 n=63 v=64
100904 Off ch=1 n=61 v=64
100904 Off ch=1 n=58 v=64
101040 On ch=1 n=47 v=76
101040 On ch=1 n=40 v=96
101040 On ch=1 n=44 v=86
101040 On ch=1 n=52 v=76
101040 On ch=1 n=55 v=86
101040 On ch=1 n=63 v=86
101040 On ch=1 n=61 v=86
101040 On ch=1 n=58 v=86
101144 Off ch=1 n=47 v=64
101144 Off ch=1 n=40 v=64
101144 Off ch=1 n=44 v=64
101144 Off ch=1 n=52 v=64
101144 Off ch=1 n=55 v=64
101144 Off ch=1 n=63 v=64
101144 Off ch=1 n=61 v=64
101144 Off ch=1 n=58 v=64
101280 On ch=1 n=40 v=96
101280 On ch=1 n=44 v=86
101280 On ch=1 n=47 v=76
101280 On ch=1 n=52 v=76
101280 On ch=1 n=55 v=86
101280 On ch=1 n=58 v=86
101280 On ch=1 n=63 v=86
101280 On ch=1 n=61 v=86
101384 Off ch=1 n=40 v=64
101384 Off ch=1 n=44 v=64
101384 Off ch=1 n=47 v=64
101384 Off ch=1 n=52 v=64
101384 Off ch=1 n=55 v=64
101384 Off ch=1 n=58 v=64
101384 Off ch=1 n=63 v=64
101384 Off ch=1 n=61 v=64
101520 On ch=1 n=40 v=127
101520 On ch=1 n=47 v=108
101520 On ch=1 n=44 v=118
101520 On ch=1 n=52 v=108
101520 On ch=1 n=55 v=118
101520 On ch=1 n=63 v=118
101520 On ch=1 n=58 v=118
101520 On ch=1 n=61 v=118
101624 Off ch=1 n=40 v=64
101624 Off ch=1 n=47 v=64
101624 Off ch=1 n=44 v=64
101624 Off ch=1 n=52 v=64
101624 Off ch=1 n=55 v=64
101624 Off ch=1 n=63 v=64
101624 Off ch=1 n=58 v=64
101624 Off ch=1 n=61 v=64
101760 On ch=1 n=44 v=86
101760 On ch=1 n=47 v=76
101760 On ch=1 n=52 v=76
101760 On ch=1 n=40 v=96
101760 On ch=1 n=55 v=86
101760 On ch=1 n=63 v=86
101760 On ch=1 n=58 v=86
101760 On ch=1 n=61 v=86
101864 Off ch=1 n=44 v=64
101864 Off ch=1 n=47 v=64
101864 Off ch=1 n=52 v=64
101864 Off ch=1 n=40 v=64
101864 Off ch=1 n=55 v=64
101864 Off ch=1 n=63 v=64
101864 Off ch=1 n=58 v=64
101864 Off ch=1 n=61 v=64
102000 On ch=1 n=47 v=76
102000 On ch=1 n=44 v=86
102000 On ch=1 n=40 v=96
102000 On ch=1 n=52 v=76
102000 On ch=1 n=55 v=86
102000 On ch=1 n=63 v=86
102000 On ch=1 n=61 v=86
102000 On ch=1 n=58 v=86
102104 Off ch=1 n=47 v=64
102104 Off ch=1 n=44 v=64
102104 Off ch=1 n=40 v=64
102104 Off ch=1 n=52 v=64
102104 Off ch=1 n=55 v=64
102104 Off ch=1 n=63 v=64
102104 Off ch=1 n=61 v=64
102104 Off ch=1 n=58 v=64
102240 On ch=1 n=44 v=86
102240 On ch=1 n=47 v=76
102240 On ch=1 n=52 v=76
102240 On ch=1 n=40 v=96
102240 On ch=1 n=55 v=86
102240 On ch=1 n=63 v=86
102240 On ch=1 n=58 v=86
102240 On ch=1 n=61 v=86
102344 Off ch=1 n=44 v=64
102344 Off ch=1 n=47 v=64
102344 Off ch=1 n=52 v=64
102344 Off ch=1 n=40 v=64
102344 Off ch=1 n=55 v=64
102344 Off ch=1 n=63 v=64
102344 Off ch=1 n=58 v=64
102344 Off ch=1 n=61 v=64
102480 On ch=1 n=47 v=76
102480 On ch=1 n=40 v=96
102480 On ch=1 n=52 v=76
102480 On ch=1 n=44 v=86
102480 On ch=1 n=63 v=86
102480 On ch=1 n=55 v=86
102480 On ch=1 n=58 v=86
102480 On ch=1 n=61 v=86
102584 Off ch=1 n=47 v=64
102584 Off ch=1 n=40 v=64
102584 Off ch=1 n=52 v=64
102584 Off ch=1 n=44 v=64
102584 Off ch=1 n=63 v=64
102584 Off ch=1 n=55 v=64
102584 Off ch=1 n=58 v=64
102584 Off ch=1 n=61 v=64
102720 On ch=1 n=47 v=76
102720 On ch=1 n=40 v=96
102720 On ch=1 n=44 v=86
102720 On ch=1 n=52 v=76
102720 On ch=1 n=55 v=86
102720 On ch=1 n=63 v=86
102720 On ch=1 n=61 v=86
102720 On ch=1 n=58 v=86
102824 Off ch=1 n=47 v=64
102824 Off ch=1 n=40 v=64
102824 Off ch=1 n=44 v=64
102824 Off ch=1 n=52 v=64
102824 Off ch=1 n=55 v=64
102824 Off ch=1 n=63 v=64
102824 Off ch=1 n=61 v=64
102824 Off ch=1 n=58 v=64
102960 On ch=1 n=47 v=76
102960 On ch=1 n=40 v=96
102960 On ch=1 n=44 v=86
102960 On ch=1 n=52 v=76
102960 On ch=1 n=55 v=86
102960 On ch=1 n=63 v=86
102960 On ch=1 n=61 v=86
102960 On ch=1 n=58 v=86
103064 Off ch=1 n=47 v=64
103064 Off ch=1 n=40 v=64
103064 Off ch=1 n=44 v=64
103064 Off ch=1 n=52 v=64
103064 Off ch=1 n=55 v=64
103064 Off ch=1 n=63 v=64
103064 Off ch=1 n=61 v=64
103064 Off ch=1 n=58 v=64
103200 On ch=1 n=44 v=86
103200 On ch=1 n=47 v=76
103200 On ch=1 n=52 v=76
103200 On ch=1 n=40 v=96
103200 On ch=1 n=55 v=86
103200 On ch=1 n=63 v=86
103200 On ch=1 n=58 v=86
103200 On ch=1 n=61 v=86
103304 Off ch=1 n=44 v=64
103304 Off ch=1 n=47 v=64
103304 Off ch=1 n=52 v=64
103304 Off ch=1 n=40 v=64
103304 Off ch=1 n=55 v=64
103304 Off ch=1 n=63 v=64
103304 Off ch=1 n=58 v=64
103304 Off ch=1 n=61 v=64
103440 On ch=1 n=47 v=76
103440 On ch=1 n=40 v=96
103440 On ch=1 n=52 v=76
103440 On ch=1 n=44 v=86
103440 On ch=1 n=63 v=86
103440 On ch=1 n=55 v=86
103440 On ch=1 n=58 v=86
103440 On ch=1 n=61 v=86
103544 Off ch=1 n=47 v=64
103544 Off ch=1 n=40 v=64
103544 Off ch=1 n=52 v=64
103544 Off ch=1 n=44 v=64
103544 Off ch=1 n=63 v=64
103544 Off ch=1 n=55 v=64
103544 Off ch=1 n=58 v=64
103544 Off ch=1 n=61 v=64
103680 On ch=1 n=47 v=76
103680 On ch=1 n=40 v=96
103680 On ch=1 n=44 v=86
103680 On ch=1 n=52 v=76
103680 On ch=1 n=55 v=86
103680 On ch=1 n=63 v=86
103680 On ch=1 n=61 v=86
103680 On ch=1 n=58 v=86
103784 Off ch=1 n=47 v=64
103784 Off ch=1 n=40 v=64
103784 Off ch=1 n=44 v=64
103784 Off ch=1 n=52 v=64
103784 Off ch=1 n=55 v=64
103784 Off ch=1 n=63 v=64
103784 Off ch=1 n=61 v=64
103784 Off ch=1 n=58 v=64
103920 On ch=1 n=47 v=76
103920 On ch=1 n=40 v=96
103920 On ch=1 n=44 v=86
103920 On ch=1 n=52 v=76
103920 On ch=1 n=55 v=86
103920 On ch=1 n=63 v=86
103920 On ch=1 n=61 v=86
103920 On ch=1 n=58 v=86
104024 Off ch=1 n=47 v=64
104024 Off ch=1 n=40 v=64
104024 Off ch=1 n=44 v=64
104024 Off ch=1 n=52 v=64
104024 Off ch=1 n=55 v=64
104024 Off ch=1 n=63 v=64
104024 Off ch=1 n=61 v=64
104024 Off ch=1 n=58 v=64
104160 On ch=1 n=44 v=86
104160 On ch=1 n=47 v=76
104160 On ch=1 n=52 v=76
104160 On ch=1 n=40 v=96
104160 On ch=1 n=55 v=86
104160 On ch=1 n=63 v=86
104160 On ch=1 n=58 v=86
104160 On ch=1 n=61 v=86
104264 Off ch=1 n=44 v=64
104264 Off ch=1 n=47 v=64
104264 Off ch=1 n=52 v=64
104264 Off ch=1 n=40 v=64
104264 Off ch=1 n=55 v=64
104264 Off ch=1 n=63 v=64
104264 Off ch=1 n=58 v=64
104264 Off ch=1 n=61 v=64
104400 On ch=1 n=47 v=76
104400 On ch=1 n=40 v=96
104400 On ch=1 n=52 v=76
104400 On ch=1 n=44 v=86
104400 On ch=1 n=63 v=86
104400 On ch=1 n=55 v=86
104400 On ch=1 n=58 v=86
104400 On ch=1 n=61 v=86
104504 Off ch=1 n=47 v=64
104504 Off ch=1 n=40 v=64
104504 Off ch=1 n=52 v=64
104504 Off ch=1 n=44 v=64
104504 Off ch=1 n=63 v=64
104504 Off ch=1 n=55 v=64
104504 Off ch=1 n=58 v=64
104504 Off ch=1 n=61 v=64
104640 On ch=1 n=47 v=76
104640 On ch=1 n=40 v=96
104640 On ch=1 n=44 v=86
104640 On ch=1 n=52 v=76
104640 On ch=1 n=55 v=86
104640 On ch=1 n=63 v=86
104640 On ch=1 n=61 v=86
104640 On ch=1 n=58 v=86
104744 Off ch=1 n=47 v=64
104744 Off ch=1 n=40 v=64
104744 Off ch=1 n=44 v=64
104744 Off ch=1 n=52 v=64
104744 Off ch=1 n=55 v=64
104744 Off ch=1 n=63 v=64
104744 Off ch=1 n=61 v=64
104744 Off ch=1 n=58 v=64
104880 On ch=1 n=47 v=76
104880 On ch=1 n=40 v=96
104880 On ch=1 n=44 v=86
104880 On ch=1 n=52 v=76
104880 On ch=1 n=55 v=86
104880 On ch=1 n=63 v=86
104880 On ch=1 n=61 v=86
104880 On ch=1 n=58 v=86
104984 Off ch=1 n=47 v=64
104984 Off ch=1 n=40 v=64
104984 Off ch=1 n=44 v=64
104984 Off ch=1 n=52 v=64
104984 Off ch=1 n=55 v=64
104984 Off ch=1 n=63 v=64
104984 Off ch=1 n=61 v=64
104984 Off ch=1 n=58 v=64
105120 On ch=1 n=44 v=86
105120 On ch=1 n=47 v=76
105120 On ch=1 n=52 v=76
105120 On ch=1 n=40 v=96
105120 On ch=1 n=55 v=86
105120 On ch=1 n=63 v=86
105120 On ch=1 n=58 v=86
105120 On ch=1 n=61 v=86
105224 Off ch=1 n=44 v=64
105224 Off ch=1 n=47 v=64
105224 Off ch=1 n=52 v=64
105224 Off ch=1 n=40 v=64
105224 Off ch=1 n=55 v=64
105224 Off ch=1 n=63 v=64
105224 Off ch=1 n=58 v=64
105224 Off ch=1 n=61 v=64
105360 On ch=1 n=47 v=76
105360 On ch=1 n=40 v=96
105360 On ch=1 n=52 v=76
105360 On ch=1 n=44 v=86
105360 On ch=1 n=63 v=86
105360 On ch=1 n=55 v=86
105360 On ch=1 n=58 v=86
105360 On ch=1 n=61 v=86
105464 Off ch=1 n=47 v=64
105464 Off ch=1 n=40 v=64
105464 Off ch=1 n=52 v=64
105464 Off ch=1 n=44 v=64
105464 Off ch=1 n=63 v=64
105464 Off ch=1 n=55 v=64
105464 Off ch=1 n=58 v=64
105464 Off ch=1 n=61 v=64
105600 On ch=1 n=47 v=76
105600 On ch=1 n=40 v=96
105600 On ch=1 n=44 v=86
105600 On ch=1 n=52 v=76
105600 On ch=1 n=55 v=86
105600 On ch=1 n=63 v=86
105600 On ch=1 n=61 v=86
105600 On ch=1 n=58 v=86
105704 Off ch=1 n=47 v=64
105704 Off ch=1 n=40 v=64
105704 Off ch=1 n=44 v=64
105704 Off ch=1 n=52 v=64
105704 Off ch=1 n=55 v=64
105704 Off ch=1 n=63 v=64
105704 Off ch=1 n=61 v=64
105704 Off ch=1 n=58 v=64
105840 On ch=1 n=47 v=76
105840 On ch=1 n=40 v=96
105840 On ch=1 n=44 v=86
105840 On ch=1 n=52 v=76
105840 On ch=1 n=55 v=86
105840 On ch=1 n=63 v=86
105840 On ch=1 n=61 v=86
105840 On ch=1 n=58 v=86
105944 Off ch=1 n=47 v=64
105944 Off ch=1 n=40 v=64
105944 Off ch=1 n=44 v=64
105944 Off ch=1 n=52 v=64
105944 Off ch=1 n=55 v=64
105944 Off ch=1 n=63 v=64
105944 Off ch=1 n=61 v=64
105944 Off ch=1 n=58 v=64
106080 On ch=1 n=44 v=86
106080 On ch=1 n=47 v=76
106080 On ch=1 n=52 v=76
106080 On ch=1 n=40 v=96
106080 On ch=1 n=55 v=86
106080 On ch=1 n=63 v=86
106080 On ch=1 n=58 v=86
106080 On ch=1 n=61 v=86
106184 Off ch=1 n=44 v=64
106184 Off ch=1 n=47 v=64
106184 Off ch=1 n=52 v=64
106184 Off ch=1 n=40 v=64
106184 Off ch=1 n=55 v=64
106184 Off ch=1 n=63 v=64
106184 Off ch=1 n=58 v=64
106184 Off ch=1 n=61 v=64
106320 On ch=1 n=47 v=76
106320 On ch=1 n=40 v=96
106320 On ch=1 n=52 v=76
106320 On ch=1 n=44 v=86
106320 On ch=1 n=63 v=86
106320 On ch=1 n=55 v=86
106320 On ch=1 n=58 v=86
106320 On ch=1 n=61 v=86
106424 Off ch=1 n=47 v=64
106424 Off ch=1 n=40 v=64
106424 Off ch=1 n=52 v=64
106424 Off ch=1 n=44 v=64
106424 Off ch=1 n=63 v=64
106424 Off ch=1 n=55 v=64
106424 Off ch=1 n=58 v=64
106424 Off ch=1 n=61 v=64
106560 On ch=1 n=47 v=76
106560 On ch=1 n=40 v=96
106560 On ch=1 n=44 v=86
106560 On ch=1 n=52 v=76
106560 On ch=1 n=55 v=86
106560 On ch=1 n=63 v=86
106560 On ch=1 n=61 v=86
106560 On ch=1 n=58 v=86
106664 Off ch=1 n=47 v=64
106664 Off ch=1 n=40 v=64
106664 Off ch=1 n=44 v=64
106664 Off ch=1 n=52 v=64
106664 Off ch=1 n=55 v=64
106664 Off ch=1 n=63 v=64
106664 Off ch=1 n=61 v=64
106664 Off ch=1 n=58 v=64
106800 On ch=1 n=47 v=76
106800 On ch=1 n=40 v=96
106800 On ch=1 n=44 v=86
106800 On ch=1 n=52 v=76
106800 On ch=1 n=55 v=86
106800 On ch=1 n=63 v=86
106800 On ch=1 n=61 v=86
106800 On ch=1 n=58 v=86
106904 Off ch=1 n=47 v=64
106904 Off ch=1 n=40 v=64
106904 Off ch=1 n=44 v=64
106904 Off ch=1 n=52 v=64
106904 Off ch=1 n=55 v=64
106904 Off ch=1 n=63 v=64
106904 Off ch=1 n=61 v=64
106904 Off ch=1 n=58 v=64
107040 On ch=1 n=44 v=86
107040 On ch=1 n=47 v=76
107040 On ch=1 n=52 v=76
107040 On ch=1 n=40 v=96
107040 On ch=1 n=55 v=86
107040 On ch=1 n=63 v=86
107040 On ch=1 n=58 v=86
107040 On ch=1 n=61 v=86
107144 Off ch=1 n=44 v=64
107144 Off ch=1 n=47 v=64
107144 Off ch=1 n=52 v=64
107144 Off ch=1 n=40 v=64
107144 Off ch=1 n=55 v=64
107144 Off ch=1 n=63 v=64
107144 Off ch=1 n=58 v=64
107144 Off ch=1 n=61 v=64
107280 On ch=1 n=47 v=76
107280 On ch=1 n=40 v=96
107280 On ch=1 n=52 v=76
107280 On ch=1 n=44 v=86
107280 On ch=1 n=63 v=86
107280 On ch=1 n=55 v=86
107280 On ch=1 n=58 v=86
107280 On ch=1 n=61 v=86
107384 Off ch=1 n=47 v=64
107384 Off ch=1 n=40 v=64
107384 Off ch=1 n=52 v=64
107384 Off ch=1 n=44 v=64
107384 Off ch=1 n=63 v=64
107384 Off ch=1 n=55 v=64
107384 Off ch=1 n=58 v=64
107384 Off ch=1 n=61 v=64
107520 On ch=1 n=47 v=76
107520 On ch=1 n=40 v=96
107520 On ch=1 n=44 v=86
107520 On ch=1 n=52 v=76
107520 On ch=1 n=55 v=86
107520 On ch=1 n=63 v=86
107520 On ch=1 n=61 v=86
107520 On ch=1 n=58 v=86
107624 Off ch=1 n=47 v=64
107624 Off ch=1 n=40 v=64
107624 Off ch=1 n=44 v=64
107624 Off ch=1 n=52 v=64
107624 Off ch=1 n=55 v=64
107624 Off ch=1 n=63 v=64
107624 Off ch=1 n=61 v=64
107624 Off ch=1 n=58 v=64
107760 On ch=1 n=47 v=76
107760 On ch=1 n=40 v=96
107760 On ch=1 n=44 v=86
107760 On ch=1 n=52 v=76
107760 On ch=1 n=55 v=86
107760 On ch=1 n=63 v=86
107760 On ch=1 n=61 v=86
107760 On ch=1 n=58 v=86
107864 Off ch=1 n=47 v=64
107864 Off ch=1 n=40 v=64
107864 Off ch=1 n=44 v=64
107864 Off ch=1 n=52 v=64
107864 Off ch=1 n=55 v=64
107864 Off ch=1 n=63 v=64
107864 Off ch=1 n=61 v=64
107864 Off ch=1 n=58 v=64
119520 On ch=1 n=52 v=127
119520 On ch=1 n=55 v=127
119520 On ch=1 n=47 v=127
119520 On ch=1 n=40 v=127
119520 On ch=1 n=44 v=127
119520 On ch=1 n=63 v=127
119520 On ch=1 n=58 v=127
119624 Off ch=1 n=52 v=64
119624 Off ch=1 n=55 v=64
119624 Off ch=1 n=47 v=64
119624 Off ch=1 n=40 v=64
119624 Off ch=1 n=44 v=64
119624 Off ch=1 n=63 v=64
119624 Off ch=1 n=58 v=64
119760 On ch=1 n=40 v=98
119760 On ch=1 n=47 v=78
119760 On ch=1 n=44 v=88
119760 On ch=1 n=52 v=78
119760 On ch=1 n=55 v=88
119760 On ch=1 n=63 v=88
119760 On ch=1 n=61 v=88
119760 On ch=1 n=58 v=88
119864 Off ch=1 n=40 v=64
119864 Off ch=1 n=47 v=64
119864 Off ch=1 n=44 v=64
119864 Off ch=1 n=52 v=64
119864 Off ch=1 n=55 v=64
119864 Off ch=1 n=63 v=64
119864 Off ch=1 n=61 v=64
119864 Off ch=1 n=58 v=64
120000 On ch=1 n=40 v=98
120000 On ch=1 n=52 v=78
120000 On ch=1 n=44 v=88
120000 On ch=1 n=47 v=78
120000 On ch=1 n=63 v=88
120000 On ch=1 n=55 v=88
120000 On ch=1 n=58 v=88
120000 On ch=1 n=61 v=88
120104 Off ch=1 n=40 v=64
120104 Off ch=1 n=52 v=64
120104 Off ch=1 n=44 v=64
120104 Off ch=1 n=47 v=64
120104 Off ch=1 n=63 v=64
120104 Off ch=1 n=55 v=64
120104 Off ch=1 n=58 v=64
120104 Off ch=1 n=61 v=64
120240 On ch=1 n=47 v=78
120240 On ch=1 n=40 v=98
120240 On ch=1 n=44 v=88
120240 On ch=1 n=52 v=78
120240 On ch=1 n=55 v=88
120240 On ch=1 n=63 v=88
120240 On ch=1 n=58 v=88
120240 On ch=1 n=61 v=88
120344 Off ch=1 n=47 v=64
120344 Off ch=1 n=40 v=64
120344 Off ch=1 n=44 v=64
120344 Off ch=1 n=52 v=64
120344 Off ch=1 n=55 v=64
120344 Off ch=1 n=63 v=64
120344 Off ch=1 n=58 v=64
120344 Off ch=1 n=61 v=64
120480 On ch=1 n=40 v=98
120480 On ch=1 n=52 v=78
120480 On ch=1 n=44 v=88
120480 On ch=1 n=47 v=78
120480 On ch=1 n=63 v=88
120480 On ch=1 n=55 v=88
120480 On ch=1 n=58 v=88
120480 On ch=1 n=61 v=88
120584 Off ch=1 n=40 v=64
120584 Off ch=1 n=52 v=64
120584 Off ch=1 n=44 v=64
120584 Off ch=1 n=47 v=64
120584 Off ch=1 n=63 v=64
120584 Off ch=1 n=55 v=64
120584 Off ch=1 n=58 v=64
120584 Off ch=1 n=61 v=64
120720 On ch=1 n=47 v=78
120720 On ch=1 n=40 v=98
120720 On ch=1 n=44 v=88
120720 On ch=1 n=52 v=78
120720 On ch=1 n=55 v=88
120720 On ch=1 n=63 v=88
120720 On ch=1 n=58 v=88
120720 On ch=1 n=61 v=88
120824 Off ch=1 n=47 v=64
120824 Off ch=1 n=40 v=64
120824 Off ch=1 n=44 v=64
120824 Off ch=1 n=52 v=64
120824 Off ch=1 n=55 v=64
120824 Off ch=1 n=63 v=64
120824 Off ch=1 n=58 v=64
120824 Off ch=1 n=61 v=64
120960 On ch=1 n=40 v=98
120960 On ch=1 n=52 v=78
120960 On ch=1 n=44 v=88
120960 On ch=1 n=47 v=78
120960 On ch=1 n=63 v=88
120960 On ch=1 n=55 v=88
120960 On ch=1 n=58 v=88
120960 On ch=1 n=61 v=88
121064 Off ch=1 n=40 v=64
121064 Off ch=1 n=52 v=64
121064 Off ch=1 n=44 v=64
121064 Off ch=1 n=47 v=64
121064 Off ch=1 n=63 v=64
121064 Off ch=1 n=55 v=64
121064 Off ch=1 n=58 v=64
121064 Off ch=1 n=61 v=64
121200 On ch=1 n=47 v=78
121200 On ch=1 n=40 v=98
121200 On ch=1 n=44 v=88
121200 On ch=1 n=52 v=78
121200 On ch=1 n=55 v=88
121200 On ch=1 n=63 v=88
121200 On ch=1 n=58 v=88
121200 On ch=1 n=61 v=88
121304 Off ch=1 n=47 v=64
121304 Off ch=1 n=40 v=64
121304 Off ch=1 n=44 v=64
121304 Off ch=1 n=52 v=64
121304 Off ch=1 n=55 v=64
121304 Off ch=1 n=63 v=64
121304 Off ch=1 n=58 v=64
121304 Off ch=1 n=61 v=64
121440 On ch=1 n=44 v=88
121440 On ch=1 n=47 v=78
121440 On ch=1 n=52 v=78
121440 On ch=1 n=40 v=98
121440 On ch=1 n=55 v=88
121440 On ch=1 n=63 v=88
121440 On ch=1 n=61 v=88
121440 On ch=1 n=58 v=88
121544 Off ch=1 n=44 v=64
121544 Off ch=1 n=47 v=64
121544 Off ch=1 n=52 v=64
121544 Off ch=1 n=40 v=64
121544 Off ch=1 n=55 v=64
121544 Off ch=1 n=63 v=64
121544 Off ch=1 n=61 v=64
121544 Off ch=1 n=58 v=64
121680 On ch=1 n=40 v=127
121680 On ch=1 n=47 v=108
121680 On ch=1 n=52 v=108
121680 On ch=1 n=44 v=118
121680 On ch=1 n=55 v=118
121680 On ch=1 n=63 v=118
121680 On ch=1 n=58 v=118
121680 On ch=1 n=61 v=118
121784 Off ch=1 n=40 v=64
121784 Off ch=1 n=47 v=64
121784 Off ch=1 n=52 v=64
121784 Off ch=1 n=44 v=64
121784 Off ch=1 n=55 v=64
121784 Off ch=1 n=63 v=64
121784 Off ch=1 n=58 v=64
121784 Off ch=1 n=61 v=64
121920 On ch=1 n=47 v=78
121920 On ch=1 n=44 v=88
121920 On ch=1 n=52 v=78
121920 On ch=1 n=40 v=98
121920 On ch=1 n=55 v=88
121920 On ch=1 n=63 v=88
121920 On ch=1 n=58 v=88
121920 On ch=1 n=61 v=88
122024 Off ch=1 n=47 v=64
122024 Off ch=1 n=44 v=64
122024 Off ch=1 n=52 v=64
122024 Off ch=1 n=40 v=64
122024 Off ch=1 n=55 v=64
122024 Off ch=1 n=63 v=64
122024 Off ch=1 n=58 v=64
122024 Off ch=1 n=61 v=64
122160 On ch=1 n=47 v=108
122160 On ch=1 n=52 v=108
122160 On ch=1 n=44 v=118
122160 On ch=1 n=40 v=127
122160 On ch=1 n=55 v=118
122160 On ch=1 n=58 v=118
122160 On ch=1 n=63 v=118
122160 On ch=1 n=61 v=118
122264 Off ch=1 n=47 v=64
122264 Off ch=1 n=52 v=64
122264 Off ch=1 n=44 v=64
122264 Off ch=1 n=40 v=64
122264 Off ch=1 n=55 v=64
122264 Off ch=1 n=58 v=64
122264 Off ch=1 n=63 v=64
122264 Off ch=1 n=61 v=64
122400 On ch=1 n=40 v=98
122400 On ch=1 n=52 v=78
122400 On ch=1 n=44 v=88
122400 On ch=1 n=47 v=78
122400 On ch=1 n=63 v=88
122400 On ch=1 n=55 v=88
122400 On ch=1 n=58 v=88
122400 On ch=1 n=61 v=88
122504 Off ch=1 n=40 v=64
122504 Off ch=1 n=52 v=64
122504 Off ch=1 n=44 v=64
122504 Off ch=1 n=47 v=64
122504 Off ch=1 n=63 v=64
122504 Off ch=1 n=55 v=64
122504 Off ch=1 n=58 v=64
122504 Off ch=1 n=61 v=64
122640 On ch=1 n=47 v=78
122640 On ch=1 n=40 v=98
122640 On ch=1 n=44 v=88
122640 On ch=1 n=52 v=78
122640 On ch=1 n=55 v=88
122640 On ch=1 n=63 v=88
122640 On ch=1 n=58 v=88
122640 On ch=1 n=61 v=88
122744 Off ch=1 n=47 v=64
122744 Off ch=1 n=40 v=64
122744 Off ch=1 n=44 v=64
122744 Off ch=1 n=52 v=64
122744 Off ch=1 n=55 v=64
122744 Off ch=1 n=63 v=64
122744 Off ch=1 n=58 v=64
122744 Off ch=1 n=61 v=64
122880 On ch=1 n=40 v=98
122880 On ch=1 n=52 v=78
122880 On ch=1 n=44 v=88
122880 On ch=1 n=47 v=78
122880 On ch=1 n=63 v=88
122880 On ch=1 n=55 v=88
122880 On ch=1 n=58 v=88
122880 On ch=1 n=61 v=88
122984 Off ch=1 n=40 v=64
122984 Off ch=1 n=52 v=64
122984 Off ch=1 n=44 v=64
122984 Off ch=1 n=47 v=64
122984 Off ch=1 n=63 v=64
122984 Off ch=1 n=55 v=64
122984 Off ch=1 n=58 v=64
122984 Off ch=1 n=61 v=64
123120 On ch=1 n=47 v=78
123120 On ch=1 n=40 v=98
123120 On ch=1 n=44 v=88
123120 On ch=1 n=52 v=78
123120 On ch=1 n=55 v=88
123120 On ch=1 n=63 v=88
123120 On ch=1 n=58 v=88
123120 On ch=1 n=61 v=88
123224 Off ch=1 n=47 v=64
123224 Off ch=1 n=40 v=64
123224 Off ch=1 n=44 v=64
123224 Off ch=1 n=52 v=64
123224 Off ch=1 n=55 v=64
123224 Off ch=1 n=63 v=64
123224 Off ch=1 n=58 v=64
123224 Off ch=1 n=61 v=64
123360 On ch=1 n=47 v=78
123360 On ch=1 n=44 v=88
123360 On ch=1 n=52 v=78
123360 On ch=1 n=40 v=98
123360 On ch=1 n=55 v=88
123360 On ch=1 n=63 v=88
123360 On ch=1 n=58 v=88
123360 On ch=1 n=61 v=88
123464 Off ch=1 n=47 v=64
123464 Off ch=1 n=44 v=64
123464 Off ch=1 n=52 v=64
123464 Off ch=1 n=40 v=64
123464 Off ch=1 n=55 v=64
123464 Off ch=1 n=63 v=64
123464 Off ch=1 n=58 v=64
123464 Off ch=1 n=61 v=64
123600 On ch=1 n=47 v=108
123600 On ch=1 n=52 v=108
123600 On ch=1 n=44 v=118
123600 On ch=1 n=40 v=127
123600 On ch=1 n=55 v=118
123600 On ch=1 n=58 v=118
123600 On ch=1 n=63 v=118
123600 On ch=1 n=61 v=118
123704 Off ch=1 n=47 v=64
123704 Off ch=1 n=52 v=64
123704 Off ch=1 n=44 v=64
123704 Off ch=1 n=40 v=64
123704 Off ch=1 n=55 v=64
123704 Off ch=1 n=58 v=64
123704 Off ch=1 n=63 v=64
123704 Off ch=1 n=61 v=64
123840 On ch=1 n=40 v=96
123840 On ch=1 n=52 v=76
123840 On ch=1 n=44 v=86
123840 On ch=1 n=47 v=76
123840 On ch=1 n=63 v=86
123840 On ch=1 n=55 v=86
123840 On ch=1 n=58 v=86
123840 On ch=1 n=61 v=86
123944 Off ch=1 n=40 v=64
123944 Off ch=1 n=52 v=64
123944 Off ch=1 n=44 v=64
123944 Off ch=1 n=47 v=64
123944 Off ch=1 n=63 v=64
123944 Off ch=1 n=55 v=64
123944 Off ch=1 n=58 v=64
123944 Off ch=1 n=61 v=64
124080 On ch=1 n=47 v=76
124080 On ch=1 n=40 v=96
124080 On ch=1 n=44 v=86
124080 On ch=1 n=52 v=76
124080 On ch=1 n=55 v=86
124080 On ch=1 n=63 v=86
124080 On ch=1 n=58 v=86
124080 On ch=1 n=61 v=86
124184 Off ch=1 n=47 v=64
124184 Off ch=1 n=40 v=64
124184 Off ch=1 n=44 v=64
124184 Off ch=1 n=52 v=64
124184 Off ch=1 n=55 v=64
124184 Off ch=1 n=63 v=64
124184 Off ch=1 n=58 v=64
124184 Off ch=1 n=61 v=64
124320 On ch=1 n=47 v=108
124320 On ch=1 n=52 v=108
124320 On ch=1 n=44 v=118
124320 On ch=1 n=40 v=127
124320 On ch=1 n=55 v=118
124320 On ch=1 n=58 v=118
124320 On ch=1 n=63 v=118
124320 On ch=1 n=61 v=118
124424 Off ch=1 n=47 v=64
124424 Off ch=1 n=52 v=64
124424 Off ch=1 n=44 v=64
124424 Off ch=1 n=40 v=64
124424 Off ch=1 n=55 v=64
124424 Off ch=1 n=58 v=64
124424 Off ch=1 n=63 v=64
124424 Off ch=1 n=61 v=64
124560 On ch=1 n=40 v=98
124560 On ch=1 n=52 v=78
124560 On ch=1 n=44 v=88
124560 On ch=1 n=47 v=78
124560 On ch=1 n=63 v=88
124560 On ch=1 n=55 v=88
124560 On ch=1 n=58 v=88
124560 On ch=1 n=61 v=88
124664 Off ch=1 n=40 v=64
124664 Off ch=1 n=52 v=64
124664 Off ch=1 n=44 v=64
124664 Off ch=1 n=47 v=64
124664 Off ch=1 n=63 v=64
124664 Off ch=1 n=55 v=64
124664 Off ch=1 n=58 v=64
124664 Off ch=1 n=61 v=64
124800 On ch=1 n=47 v=78
124800 On ch=1 n=40 v=98
124800 On ch=1 n=44 v=88
124800 On ch=1 n=52 v=78
124800 On ch=1 n=55 v=88
124800 On ch=1 n=63 v=88
124800 On ch=1 n=58 v=88
124800 On ch=1 n=61 v=88
124904 Off ch=1 n=47 v=64
124904 Off ch=1 n=40 v=64
124904 Off ch=1 n=44 v=64
124904 Off ch=1 n=52 v=64
124904 Off ch=1 n=55 v=64
124904 Off ch=1 n=63 v=64
124904 Off ch=1 n=58 v=64
124904 Off ch=1 n=61 v=64
125040 On ch=1 n=40 v=98
125040 On ch=1 n=52 v=78
125040 On ch=1 n=44 v=88
125040 On ch=1 n=47 v=78
125040 On ch=1 n=63 v=88
125040 On ch=1 n=55 v=88
125040 On ch=1 n=58 v=88
125040 On ch=1 n=61 v=88
125144 Off ch=1 n=40 v=64
125144 Off ch=1 n=52 v=64
125144 Off ch=1 n=44 v=64
125144 Off ch=1 n=47 v=64
125144 Off ch=1 n=63 v=64
125144 Off ch=1 n=55 v=64
125144 Off ch=1 n=58 v=64
125144 Off ch=1 n=61 v=64
125280 On ch=1 n=47 v=108
125280 On ch=1 n=52 v=108
125280 On ch=1 n=44 v=118
125280 On ch=1 n=40 v=127
125280 On ch=1 n=55 v=118
125280 On ch=1 n=58 v=118
125280 On ch=1 n=63 v=118
125280 On ch=1 n=61 v=118
125384 Off ch=1 n=47 v=64
125384 Off ch=1 n=52 v=64
125384 Off ch=1 n=44 v=64
125384 Off ch=1 n=40 v=64
125384 Off ch=1 n=55 v=64
125384 Off ch=1 n=58 v=64
125384 Off ch=1 n=63 v=64
125384 Off ch=1 n=61 v=64
125520 On ch=1 n=40 v=98
125520 On ch=1 n=52 v=78
125520 On ch=1 n=44 v=88
125520 On ch=1 n=47 v=78
125520 On ch=1 n=63 v=88
125520 On ch=1 n=55 v=88
125520 On ch=1 n=58 v=88
125520 On ch=1 n=61 v=88
125624 Off ch=1 n=40 v=64
125624 Off ch=1 n=52 v=64
125624 Off ch=1 n=44 v=64
125624 Off ch=1 n=47 v=64
125624 Off ch=1 n=63 v=64
125624 Off ch=1 n=55 v=64
125624 Off ch=1 n=58 v=64
125624 Off ch=1 n=61 v=64
125760 On ch=1 n=47 v=78
125760 On ch=1 n=40 v=98
125760 On ch=1 n=44 v=88
125760 On ch=1 n=52 v=78
125760 On ch=1 n=55 v=88
125760 On ch=1 n=63 v=88
125760 On ch=1 n=58 v=88
125760 On ch=1 n=61 v=88
125864 Off ch=1 n=47 v=64
125864 Off ch=1 n=40 v=64
125864 Off ch=1 n=44 v=64
125864 Off ch=1 n=52 v=64
125864 Off ch=1 n=55 v=64
125864 Off ch=1 n=63 v=64
125864 Off ch=1 n=58 v=64
125864 Off ch=1 n=61 v=64
126000 On ch=1 n=40 v=98
126000 On ch=1 n=52 v=78
126000 On ch=1 n=44 v=88
126000 On ch=1 n=47 v=78
126000 On ch=1 n=63 v=88
126000 On ch=1 n=55 v=88
126000 On ch=1 n=58 v=88
126000 On ch=1 n=61 v=88
126104 Off ch=1 n=40 v=64
126104 Off ch=1 n=52 v=64
126104 Off ch=1 n=44 v=64
126104 Off ch=1 n=47 v=64
126104 Off ch=1 n=63 v=64
126104 Off ch=1 n=55 v=64
126104 Off ch=1 n=58 v=64
126104 Off ch=1 n=61 v=64
126240 On ch=1 n=47 v=78
126240 On ch=1 n=44 v=88
126240 On ch=1 n=52 v=78
126240 On ch=1 n=40 v=98
126240 On ch=1 n=55 v=88
126240 On ch=1 n=63 v=88
126240 On ch=1 n=58 v=88
126240 On ch=1 n=61 v=88
126344 Off ch=1 n=47 v=64
126344 Off ch=1 n=44 v=64
126344 Off ch=1 n=52 v=64
126344 Off ch=1 n=40 v=64
126344 Off ch=1 n=55 v=64
126344 Off ch=1 n=63 v=64
126344 Off ch=1 n=58 v=64
126344 Off ch=1 n=61 v=64
126480 On ch=1 n=47 v=108
126480 On ch=1 n=52 v=108
126480 On ch=1 n=44 v=118
126480 On ch=1 n=40 v=127
126480 On ch=1 n=55 v=118
126480 On ch=1 n=58 v=118
126480 On ch=1 n=63 v=118
126480 On ch=1 n=61 v=118
126584 Off ch=1 n=47 v=64
126584 Off ch=1 n=52 v=64
126584 Off ch=1 n=44 v=64
126584 Off ch=1 n=40 v=64
126584 Off ch=1 n=55 v=64
126584 Off ch=1 n=58 v=64
126584 Off ch=1 n=63 v=64
126584 Off ch=1 n=61 v=64
126720 On ch=1 n=40 v=98
126720 On ch=1 n=52 v=78
126720 On ch=1 n=44 v=88
126720 On ch=1 n=47 v=78
126720 On ch=1 n=63 v=88
126720 On ch=1 n=55 v=88
126720 On ch=1 n=58 v=88
126720 On ch=1 n=61 v=88
126824 Off ch=1 n=40 v=64
126824 Off ch=1 n=52 v=64
126824 Off ch=1 n=44 v=64
126824 Off ch=1 n=47 v=64
126824 Off ch=1 n=63 v=64
126824 Off ch=1 n=55 v=64
126824 Off ch=1 n=58 v=64
126824 Off ch=1 n=61 v=64
126960 On ch=1 n=47 v=78
126960 On ch=1 n=40 v=98
126960 On ch=1 n=44 v=88
126960 On ch=1 n=52 v=78
126960 On ch=1 n=55 v=88
126960 On ch=1 n=63 v=88
126960 On ch=1 n=58 v=88
126960 On ch=1 n=61 v=88
127064 Off ch=1 n=47 v=64
127064 Off ch=1 n=40 v=64
127064 Off ch=1 n=44 v=64
127064 Off ch=1 n=52 v=64
127064 Off ch=1 n=55 v=64
127064 Off ch=1 n=63 v=64
127064 Off ch=1 n=58 v=64
127064 Off ch=1 n=61 v=64
127200 On ch=1 n=47 v=26
127200 On ch=1 n=44 v=26
127200 On ch=1 n=52 v=26
127200 On ch=1 n=40 v=26
127200 On ch=1 n=55 v=26
127200 On ch=1 n=63 v=26
127200 On ch=1 n=58 v=26
127200 On ch=1 n=61 v=26
127304 Off ch=1 n=47 v=64
127304 Off ch=1 n=44 v=64
127304 Off ch=1 n=52 v=64
127304 Off ch=1 n=40 v=64
127304 Off ch=1 n=55 v=64
127304 Off ch=1 n=63 v=64
127304 Off ch=1 n=58 v=64
127304 Off ch=1 n=61 v=64
127440 On ch=1 n=47 v=26
127440 On ch=1 n=52 v=26
127440 On ch=1 n=44 v=26
127440 On ch=1 n=40 v=26
127440 On ch=1 n=55 v=26
127440 On ch=1 n=58 v=26
127440 On ch=1 n=63 v=26
127440 On ch=1 n=61 v=26
127544 Off ch=1 n=47 v=64
127544 Off ch=1 n=52 v=64
127544 Off ch=1 n=44 v=64
127544 Off ch=1 n=40 v=64
127544 Off ch=1 n=55 v=64
127544 Off ch=1 n=58 v=64
127544 Off ch=1 n=63 v=64
127544 Off ch=1 n=61 v=64
127680 On ch=1 n=40 v=26
127680 On ch=1 n=52 v=26
127680 On ch=1 n=44 v=26
127680 On ch=1 n=47 v=26
127680 On ch=1 n=63 v=26
127680 On ch=1 n=55 v=26
127680 On ch=1 n=58 v=26
127680 On ch=1 n=61 v=26
127784 Off ch=1 n=40 v=64
127784 Off ch=1 n=52 v=64
127784 Off ch=1 n=44 v=64
127784 Off ch=1 n=47 v=64
127784 Off ch=1 n=63 v=64
127784 Off ch=1 n=55 v=64
127784 Off ch=1 n=58 v=64
127784 Off ch=1 n=61 v=64
127920 On ch=1 n=47 v=26
127920 On ch=1 n=40 v=26
127920 On ch=1 n=44 v=26
127920 On ch=1 n=52 v=26
127920 On ch=1 n=55 v=26
127920 On ch=1 n=63 v=26
127920 On ch=1 n=58 v=26
127920 On ch=1 n=61 v=26
128024 Off ch=1 n=47 v=64
128024 Off ch=1 n=40 v=64
128024 Off ch=1 n=44 v=64
128024 Off ch=1 n=52 v=64
128024 Off ch=1 n=55 v=64
128024 Off ch=1 n=63 v=64
128024 Off ch=1 n=58 v=64
128024 Off ch=1 n=61 v=64
128160 On ch=1 n=47 v=26
128160 On ch=1 n=44 v=26
128160 On ch=1 n=52 v=26
128160 On ch=1 n=40 v=26
128160 On ch=1 n=55 v=26
128160 On ch=1 n=63 v=26
128160 On ch=1 n=58 v=26
128160 On ch=1 n=61 v=26
128264 Off ch=1 n=47 v=64
128264 Off ch=1 n=44 v=64
128264 Off ch=1 n=52 v=64
128264 Off ch=1 n=40 v=64
128264 Off ch=1 n=55 v=64
128264 Off ch=1 n=63 v=64
128264 Off ch=1 n=58 v=64
128264 Off ch=1 n=61 v=64
128400 On ch=1 n=47 v=26
128400 On ch=1 n=52 v=26
128400 On ch=1 n=44 v=26
128400 On ch=1 n=40 v=26
128400 On ch=1 n=55 v=26
128400 On ch=1 n=58 v=26
128400 On ch=1 n=63 v=26
128400 On ch=1 n=61 v=26
128504 Off ch=1 n=47 v=64
128504 Off ch=1 n=52 v=64
128504 Off ch=1 n=44 v=64
128504 Off ch=1 n=40 v=64
128504 Off ch=1 n=55 v=64
128504 Off ch=1 n=58 v=64
128504 Off ch=1 n=63 v=64
128504 Off ch=1 n=61 v=64
128640 On ch=1 n=40 v=26
128640 On ch=1 n=52 v=26
128640 On ch=1 n=44 v=26
128640 On ch=1 n=47 v=26
128640 On ch=1 n=63 v=26
128640 On ch=1 n=55 v=26
128640 On ch=1 n=58 v=26
128640 On ch=1 n=61 v=26
128744 Off ch=1 n=40 v=64
128744 Off ch=1 n=52 v=64
128744 Off ch=1 n=44 v=64
128744 Off ch=1 n=47 v=64
128744 Off ch=1 n=63 v=64
128744 Off ch=1 n=55 v=64
128744 Off ch=1 n=58 v=64
128744 Off ch=1 n=61 v=64
128880 On ch=1 n=47 v=26
128880 On ch=1 n=40 v=26
128880 On ch=1 n=44 v=26
128880 On ch=1 n=52 v=26
128880 On ch=1 n=55 v=26
128880 On ch=1 n=63 v=26
128880 On ch=1 n=58 v=26
128880 On ch=1 n=61 v=26
128984 Off ch=1 n=47 v=64
128984 Off ch=1 n=40 v=64
128984 Off ch=1 n=44 v=64
128984 Off ch=1 n=52 v=64
128984 Off ch=1 n=55 v=64
128984 Off ch=1 n=63 v=64
128984 Off ch=1 n=58 v=64
128984 Off ch=1 n=61 v=64
129120 On ch=1 n=47 v=26
129120 On ch=1 n=44 v=26
129120 On ch=1 n=52 v=26
129120 On ch=1 n=40 v=26
129120 On ch=1 n=55 v=26
129120 On ch=1 n=63 v=26
129120 On ch=1 n=58 v=26
129120 On ch=1 n=61 v=26
129224 Off ch=1 n=47 v=64
129224 Off ch=1 n=44 v=64
129224 Off ch=1 n=52 v=64
129224 Off ch=1 n=40 v=64
129224 Off ch=1 n=55 v=64
129224 Off ch=1 n=63 v=64
129224 Off ch=1 n=58 v=64
129224 Off ch=1 n=61 v=64
129360 On ch=1 n=47 v=26
129360 On ch=1 n=52 v=26
129360 On ch=1 n=44 v=26
129360 On ch=1 n=40 v=26
129360 On ch=1 n=55 v=26
129360 On ch=1 n=58 v=26
129360 On ch=1 n=63 v=26
129360 On ch=1 n=61 v=26
129464 Off ch=1 n=47 v=64
129464 Off ch=1 n=52 v=64
129464 Off ch=1 n=44 v=64
129464 Off ch=1 n=40 v=64
129464 Off ch=1 n=55 v=64
129464 Off ch=1 n=58 v=64
129464 Off ch=1 n=63 v=64
129464 Off ch=1 n=61 v=64
129600 On ch=1 n=40 v=26
129600 On ch=1 n=52 v=26
129600 On ch=1 n=44 v=26
129600 On ch=1 n=47 v=26
129600 On ch=1 n=63 v=26
129600 On ch=1 n=55 v=26
129600 On ch=1 n=58 v=26
129600 On ch=1 n=61 v=26
129704 Off ch=1 n=40 v=64
129704 Off ch=1 n=52 v=64
129704 Off ch=1 n=44 v=64
129704 Off ch=1 n=47 v=64
129704 Off ch=1 n=63 v=64
129704 Off ch=1 n=55 v=64
129704 Off ch=1 n=58 v=64
129704 Off ch=1 n=61 v=64
129840 On ch=1 n=47 v=26
129840 On ch=1 n=40 v=26
129840 On ch=1 n=44 v=26
129840 On ch=1 n=52 v=26
129840 On ch=1 n=55 v=26
129840 On ch=1 n=63 v=26
129840 On ch=1 n=58 v=26
129840 On ch=1 n=61 v=26
129944 Off ch=1 n=47 v=64
129944 Off ch=1 n=40 v=64
129944 Off ch=1 n=44 v=64
129944 Off ch=1 n=52 v=64
129944 Off ch=1 n=55 v=64
129944 Off ch=1 n=63 v=64
129944 Off ch=1 n=58 v=64
129944 Off ch=1 n=61 v=64
130080 On ch=1 n=47 v=26
130080 On ch=1 n=44 v=26
130080 On ch=1 n=52 v=26
130080 On ch=1 n=40 v=26
130080 On ch=1 n=55 v=26
130080 On ch=1 n=63 v=26
130080 On ch=1 n=58 v=26
130080 On ch=1 n=61 v=26
130184 Off ch=1 n=47 v=64
130184 Off ch=1 n=44 v=64
130184 Off ch=1 n=52 v=64
130184 Off ch=1 n=40 v=64
130184 Off ch=1 n=55 v=64
130184 Off ch=1 n=63 v=64
130184 Off ch=1 n=58 v=64
130184 Off ch=1 n=61 v=64
130320 On ch=1 n=47 v=98
130320 On ch=1 n=52 v=98
130320 On ch=1 n=44 v=108
130320 On ch=1 n=40 v=118
130320 On ch=1 n=55 v=108
130320 On ch=1 n=58 v=108
130320 On ch=1 n=63 v=108
130320 On ch=1 n=61 v=108
130424 Off ch=1 n=47 v=64
130424 Off ch=1 n=52 v=64
130424 Off ch=1 n=44 v=64
130424 Off ch=1 n=40 v=64
130424 Off ch=1 n=55 v=64
130424 Off ch=1 n=58 v=64
130424 Off ch=1 n=63 v=64
130424 Off ch=1 n=61 v=64
130560 On ch=1 n=40 v=90
130560 On ch=1 n=52 v=70
130560 On ch=1 n=44 v=80
130560 On ch=1 n=47 v=70
130560 On ch=1 n=63 v=80
130560 On ch=1 n=55 v=80
130560 On ch=1 n=58 v=80
130560 On ch=1 n=61 v=80
130664 Off ch=1 n=40 v=64
130664 Off ch=1 n=52 v=64
130664 Off ch=1 n=44 v=64
130664 Off ch=1 n=47 v=64
130664 Off ch=1 n=63 v=64
130664 Off ch=1 n=55 v=64
130664 Off ch=1 n=58 v=64
130664 Off ch=1 n=61 v=64
130800 On ch=1 n=47 v=98
130800 On ch=1 n=40 v=118
130800 On ch=1 n=44 v=108
130800 On ch=1 n=52 v=98
130800 On ch=1 n=55 v=108
130800 On ch=1 n=63 v=108
130800 On ch=1 n=58 v=108
130800 On ch=1 n=61 v=108
130904 Off ch=1 n=47 v=64
130904 Off ch=1 n=40 v=64
130904 Off ch=1 n=44 v=64
130904 Off ch=1 n=52 v=64
130904 Off ch=1 n=55 v=64
130904 Off ch=1 n=63 v=64
130904 Off ch=1 n=58 v=64
130904 Off ch=1 n=61 v=64
131040 On ch=1 n=47 v=24
131040 On ch=1 n=44 v=24
131040 On ch=1 n=52 v=24
131040 On ch=1 n=40 v=24
131040 On ch=1 n=55 v=24
131040 On ch=1 n=63 v=24
131040 On ch=1 n=58 v=24
131040 On ch=1 n=61 v=24
131144 Off ch=1 n=47 v=64
131144 Off ch=1 n=44 v=64
131144 Off ch=1 n=52 v=64
131144 Off ch=1 n=40 v=64
131144 Off ch=1 n=55 v=64
131144 Off ch=1 n=63 v=64
131144 Off ch=1 n=58 v=64
131144 Off ch=1 n=61 v=64
131280 On ch=1 n=47 v=24
131280 On ch=1 n=52 v=24
131280 On ch=1 n=44 v=24
131280 On ch=1 n=40 v=24
131280 On ch=1 n=55 v=24
131280 On ch=1 n=58 v=24
131280 On ch=1 n=63 v=24
131280 On ch=1 n=61 v=24
131384 Off ch=1 n=47 v=64
131384 Off ch=1 n=52 v=64
131384 Off ch=1 n=44 v=64
131384 Off ch=1 n=40 v=64
131384 Off ch=1 n=55 v=64
131384 Off ch=1 n=58 v=64
131384 Off ch=1 n=63 v=64
131384 Off ch=1 n=61 v=64
131520 On ch=1 n=40 v=24
131520 On ch=1 n=52 v=24
131520 On ch=1 n=44 v=24
131520 On ch=1 n=47 v=24
131520 On ch=1 n=63 v=24
131520 On ch=1 n=55 v=24
131520 On ch=1 n=58 v=24
131520 On ch=1 n=61 v=24
131624 Off ch=1 n=40 v=64
131624 Off ch=1 n=52 v=64
131624 Off ch=1 n=44 v=64
131624 Off ch=1 n=47 v=64
131624 Off ch=1 n=63 v=64
131624 Off ch=1 n=55 v=64
131624 Off ch=1 n=58 v=64
131624 Off ch=1 n=61 v=64
131760 On ch=1 n=47 v=24
131760 On ch=1 n=40 v=24
131760 On ch=1 n=44 v=24
131760 On ch=1 n=52 v=24
131760 On ch=1 n=55 v=24
131760 On ch=1 n=63 v=24
131760 On ch=1 n=58 v=24
131760 On ch=1 n=61 v=24
131864 Off ch=1 n=47 v=64
131864 Off ch=1 n=40 v=64
131864 Off ch=1 n=44 v=64
131864 Off ch=1 n=52 v=64
131864 Off ch=1 n=55 v=64
131864 Off ch=1 n=63 v=64
131864 Off ch=1 n=58 v=64
131864 Off ch=1 n=61 v=64
132000 On ch=1 n=47 v=24
132000 On ch=1 n=44 v=24
132000 On ch=1 n=52 v=24
132000 On ch=1 n=40 v=24
132000 On ch=1 n=55 v=24
132000 On ch=1 n=63 v=24
132000 On ch=1 n=58 v=24
132000 On ch=1 n=61 v=24
132104 Off ch=1 n=47 v=64
132104 Off ch=1 n=44 v=64
132104 Off ch=1 n=52 v=64
132104 Off ch=1 n=40 v=64
132104 Off ch=1 n=55 v=64
132104 Off ch=1 n=63 v=64
132104 Off ch=1 n=58 v=64
132104 Off ch=1 n=61 v=64
132240 On ch=1 n=47 v=24
132240 On ch=1 n=52 v=24
132240 On ch=1 n=44 v=24
132240 On ch=1 n=40 v=24
132240 On ch=1 n=55 v=24
132240 On ch=1 n=58 v=24
132240 On ch=1 n=63 v=24
132240 On ch=1 n=61 v=24
132344 Off ch=1 n=47 v=64
132344 Off ch=1 n=52 v=64
132344 Off ch=1 n=44 v=64
132344 Off ch=1 n=40 v=64
132344 Off ch=1 n=55 v=64
132344 Off ch=1 n=58 v=64
132344 Off ch=1 n=63 v=64
132344 Off ch=1 n=61 v=64
132480 On ch=1 n=40 v=24
132480 On ch=1 n=52 v=24
132480 On ch=1 n=44 v=24
132480 On ch=1 n=47 v=24
132480 On ch=1 n=63 v=24
132480 On ch=1 n=55 v=24
132480 On ch=1 n=58 v=24
132480 On ch=1 n=61 v=24
132584 Off ch=1 n=40 v=64
132584 Off ch=1 n=52 v=64
132584 Off ch=1 n=44 v=64
132584 Off ch=1 n=47 v=64
132584 Off ch=1 n=63 v=64
132584 Off ch=1 n=55 v=64
132584 Off ch=1 n=58 v=64
132584 Off ch=1 n=61 v=64
132720 On ch=1 n=47 v=24
132720 On ch=1 n=40 v=24
132720 On ch=1 n=44 v=24
132720 On ch=1 n=52 v=24
132720 On ch=1 n=55 v=24
132720 On ch=1 n=63 v=24
132720 On ch=1 n=58 v=24
132720 On ch=1 n=61 v=24
132824 Off ch=1 n=47 v=64
132824 Off ch=1 n=40 v=64
132824 Off ch=1 n=44 v=64
132824 Off ch=1 n=52 v=64
132824 Off ch=1 n=55 v=64
132824 Off ch=1 n=63 v=64
132824 Off ch=1 n=58 v=64
132824 Off ch=1 n=61 v=64
132960 On ch=1 n=47 v=24
132960 On ch=1 n=44 v=24
132960 On ch=1 n=52 v=24
132960 On ch=1 n=40 v=24
132960 On ch=1 n=55 v=24
132960 On ch=1 n=63 v=24
132960 On ch=1 n=58 v=24
132960 On ch=1 n=61 v=24
133064 Off ch=1 n=47 v=64
133064 Off ch=1 n=44 v=64
133064 Off ch=1 n=52 v=64
133064 Off ch=1 n=40 v=64
133064 Off ch=1 n=55 v=64
133064 Off ch=1 n=63 v=64
133064 Off ch=1 n=58 v=64
133064 Off ch=1 n=61 v=64
133200 On ch=1 n=47 v=24
133200 On ch=1 n=52 v=24
133200 On ch=1 n=44 v=24
133200 On ch=1 n=40 v=24
133200 On ch=1 n=55 v=24
133200 On ch=1 n=58 v=24
133200 On ch=1 n=63 v=24
133200 On ch=1 n=61 v=24
133304 Off ch=1 n=47 v=64
133304 Off ch=1 n=52 v=64
133304 Off ch=1 n=44 v=64
133304 Off ch=1 n=40 v=64
133304 Off ch=1 n=55 v=64
133304 Off ch=1 n=58 v=64
133304 Off ch=1 n=63 v=64
133304 Off ch=1 n=61 v=64
133440 On ch=1 n=40 v=24
133440 On ch=1 n=52 v=24
133440 On ch=1 n=44 v=24
133440 On ch=1 n=47 v=24
133440 On ch=1 n=63 v=24
133440 On ch=1 n=55 v=24
133440 On ch=1 n=58 v=24
133440 On ch=1 n=61 v=24
133544 Off ch=1 n=40 v=64
133544 Off ch=1 n=52 v=64
133544 Off ch=1 n=44 v=64
133544 Off ch=1 n=47 v=64
133544 Off ch=1 n=63 v=64
133544 Off ch=1 n=55 v=64
133544 Off ch=1 n=58 v=64
133544 Off ch=1 n=61 v=64
133680 On ch=1 n=47 v=24
133680 On ch=1 n=40 v=24
133680 On ch=1 n=44 v=24
133680 On ch=1 n=52 v=24
133680 On ch=1 n=55 v=24
133680 On ch=1 n=63 v=24
133680 On ch=1 n=58 v=24
133680 On ch=1 n=61 v=24
133784 Off ch=1 n=47 v=64
133784 Off ch=1 n=40 v=64
133784 Off ch=1 n=44 v=64
133784 Off ch=1 n=52 v=64
133784 Off ch=1 n=55 v=64
133784 Off ch=1 n=63 v=64
133784 Off ch=1 n=58 v=64
133784 Off ch=1 n=61 v=64
133920 On ch=1 n=47 v=24
133920 On ch=1 n=44 v=24
133920 On ch=1 n=52 v=24
133920 On ch=1 n=40 v=24
133920 On ch=1 n=55 v=24
133920 On ch=1 n=63 v=24
133920 On ch=1 n=58 v=24
133920 On ch=1 n=61 v=24
134024 Off ch=1 n=47 v=64
134024 Off ch=1 n=44 v=64
134024 Off ch=1 n=52 v=64
134024 Off ch=1 n=40 v=64
134024 Off ch=1 n=55 v=64
134024 Off ch=1 n=63 v=64
134024 Off ch=1 n=58 v=64
134024 Off ch=1 n=61 v=64
134160 On ch=1 n=47 v=96
134160 On ch=1 n=52 v=96
134160 On ch=1 n=44 v=106
134160 On ch=1 n=40 v=116
134160 On ch=1 n=55 v=106
134160 On ch=1 n=58 v=106
134160 On ch=1 n=63 v=106
134160 On ch=1 n=61 v=106
134264 Off ch=1 n=47 v=64
134264 Off ch=1 n=52 v=64
134264 Off ch=1 n=44 v=64
134264 Off ch=1 n=40 v=64
134264 Off ch=1 n=55 v=64
134264 Off ch=1 n=58 v=64
134264 Off ch=1 n=63 v=64
134264 Off ch=1 n=61 v=64
134400 On ch=1 n=40 v=86
134400 On ch=1 n=52 v=66
134400 On ch=1 n=44 v=76
134400 On ch=1 n=47 v=66
134400 On ch=1 n=63 v=76
134400 On ch=1 n=55 v=76
134400 On ch=1 n=58 v=76
134400 On ch=1 n=61 v=76
134504 Off ch=1 n=40 v=64
134504 Off ch=1 n=52 v=64
134504 Off ch=1 n=44 v=64
134504 Off ch=1 n=47 v=64
134504 Off ch=1 n=63 v=64
134504 Off ch=1 n=55 v=64
134504 Off ch=1 n=58 v=64
134504 Off ch=1 n=61 v=64
134640 On ch=1 n=47 v=66
134640 On ch=1 n=40 v=86
134640 On ch=1 n=44 v=76
134640 On ch=1 n=52 v=66
134640 On ch=1 n=55 v=76
134640 On ch=1 n=63 v=76
134640 On ch=1 n=58 v=76
134640 On ch=1 n=61 v=76
134744 Off ch=1 n=47 v=64
134744 Off ch=1 n=40 v=64
134744 Off ch=1 n=44 v=64
134744 Off ch=1 n=52 v=64
134744 Off ch=1 n=55 v=64
134744 Off ch=1 n=63 v=64
134744 Off ch=1 n=58 v=64
134744 Off ch=1 n=61 v=64
134880 On ch=1 n=47 v=98
134880 On ch=1 n=44 v=108
134880 On ch=1 n=52 v=98
134880 On ch=1 n=40 v=118
134880 On ch=1 n=55 v=108
134880 On ch=1 n=63 v=108
134880 On ch=1 n=58 v=108
134880 On ch=1 n=61 v=108
134984 Off ch=1 n=47 v=64
134984 Off ch=1 n=44 v=64
134984 Off ch=1 n=52 v=64
134984 Off ch=1 n=40 v=64
134984 Off ch=1 n=55 v=64
134984 Off ch=1 n=63 v=64
134984 Off ch=1 n=58 v=64
134984 Off ch=1 n=61 v=64
135120 On ch=1 n=47 v=66
135120 On ch=1 n=52 v=66
135120 On ch=1 n=44 v=76
135120 On ch=1 n=40 v=86
135120 On ch=1 n=55 v=76
135120 On ch=1 n=58 v=76
135120 On ch=1 n=63 v=76
135120 On ch=1 n=61 v=76
135224 Off ch=1 n=47 v=64
135224 Off ch=1 n=52 v=64
135224 Off ch=1 n=44 v=64
135224 Off ch=1 n=40 v=64
135224 Off ch=1 n=55 v=64
135224 Off ch=1 n=58 v=64
135224 Off ch=1 n=63 v=64
135224 Off ch=1 n=61 v=64
135360 On ch=1 n=40 v=86
135360 On ch=1 n=52 v=66
135360 On ch=1 n=44 v=76
135360 On ch=1 n=47 v=66
135360 On ch=1 n=63 v=76
135360 On ch=1 n=55 v=76
135360 On ch=1 n=58 v=76
135360 On ch=1 n=61 v=76
135464 Off ch=1 n=40 v=64
135464 Off ch=1 n=52 v=64
135464 Off ch=1 n=44 v=64
135464 Off ch=1 n=47 v=64
135464 Off ch=1 n=63 v=64
135464 Off ch=1 n=55 v=64
135464 Off ch=1 n=58 v=64
135464 Off ch=1 n=61 v=64
135600 On ch=1 n=47 v=66
135600 On ch=1 n=40 v=86
135600 On ch=1 n=44 v=76
135600 On ch=1 n=52 v=66
135600 On ch=1 n=55 v=76
135600 On ch=1 n=63 v=76
135600 On ch=1 n=58 v=76
135600 On ch=1 n=61 v=76
135704 Off ch=1 n=47 v=64
135704 Off ch=1 n=40 v=64
135704 Off ch=1 n=44 v=64
135704 Off ch=1 n=52 v=64
135704 Off ch=1 n=55 v=64
135704 Off ch=1 n=63 v=64
135704 Off ch=1 n=58 v=64
135704 Off ch=1 n=61 v=64
135840 On ch=1 n=47 v=66
135840 On ch=1 n=44 v=76
135840 On ch=1 n=52 v=66
135840 On ch=1 n=40 v=86
135840 On ch=1 n=55 v=76
135840 On ch=1 n=63 v=76
135840 On ch=1 n=58 v=76
135840 On ch=1 n=61 v=76
135944 Off ch=1 n=47 v=64
135944 Off ch=1 n=44 v=64
135944 Off ch=1 n=52 v=64
135944 Off ch=1 n=40 v=64
135944 Off ch=1 n=55 v=64
135944 Off ch=1 n=63 v=64
135944 Off ch=1 n=58 v=64
135944 Off ch=1 n=61 v=64
136080 On ch=1 n=47 v=20
136080 On ch=1 n=52 v=20
136080 On ch=1 n=44 v=20
136080 On ch=1 n=40 v=20
136080 On ch=1 n=55 v=20
136080 On ch=1 n=58 v=20
136080 On ch=1 n=63 v=20
136080 On ch=1 n=61 v=20
136184 Off ch=1 n=47 v=64
136184 Off ch=1 n=52 v=64
136184 Off ch=1 n=44 v=64
136184 Off ch=1 n=40 v=64
136184 Off ch=1 n=55 v=64
136184 Off ch=1 n=58 v=64
136184 Off ch=1 n=63 v=64
136184 Off ch=1 n=61 v=64
136320 On ch=1 n=40 v=20
136320 On ch=1 n=52 v=20
136320 On ch=1 n=44 v=20
136320 On ch=1 n=47 v=20
136320 On ch=1 n=63 v=20
136320 On ch=1 n=55 v=20
136320 On ch=1 n=58 v=20
136320 On ch=1 n=61 v=20
136424 Off ch=1 n=40 v=64
136424 Off ch=1 n=52 v=64
136424 Off ch=1 n=44 v=64
136424 Off ch=1 n=47 v=64
136424 Off ch=1 n=63 v=64
136424 Off ch=1 n=55 v=64
136424 Off ch=1 n=58 v=64
136424 Off ch=1 n=61 v=64
136560 On ch=1 n=47 v=20
136560 On ch=1 n=40 v=20
136560 On ch=1 n=44 v=20
136560 On ch=1 n=52 v=20
136560 On ch=1 n=55 v=20
136560 On ch=1 n=63 v=20
136560 On ch=1 n=58 v=20
136560 On ch=1 n=61 v=20
136664 Off ch=1 n=47 v=64
136664 Off ch=1 n=40 v=64
136664 Off ch=1 n=44 v=64
136664 Off ch=1 n=52 v=64
136664 Off ch=1 n=55 v=64
136664 Off ch=1 n=63 v=64
136664 Off ch=1 n=58 v=64
136664 Off ch=1 n=61 v=64
136800 On ch=1 n=47 v=20
136800 On ch=1 n=44 v=20
136800 On ch=1 n=52 v=20
136800 On ch=1 n=40 v=20
136800 On ch=1 n=55 v=20
136800 On ch=1 n=63 v=20
136800 On ch=1 n=58 v=20
136800 On ch=1 n=61 v=20
136904 Off ch=1 n=47 v=64
136904 Off ch=1 n=44 v=64
136904 Off ch=1 n=52 v=64
136904 Off ch=1 n=40 v=64
136904 Off ch=1 n=55 v=64
136904 Off ch=1 n=63 v=64
136904 Off ch=1 n=58 v=64
136904 Off ch=1 n=61 v=64
137040 On ch=1 n=47 v=20
137040 On ch=1 n=52 v=20
137040 On ch=1 n=44 v=20
137040 On ch=1 n=40 v=20
137040 On ch=1 n=55 v=20
137040 On ch=1 n=58 v=20
137040 On ch=1 n=63 v=20
137040 On ch=1 n=61 v=20
137144 Off ch=1 n=47 v=64
137144 Off ch=1 n=52 v=64
137144 Off ch=1 n=44 v=64
137144 Off ch=1 n=40 v=64
137144 Off ch=1 n=55 v=64
137144 Off ch=1 n=58 v=64
137144 Off ch=1 n=63 v=64
137144 Off ch=1 n=61 v=64
137280 On ch=1 n=40 v=20
137280 On ch=1 n=52 v=20
137280 On ch=1 n=44 v=20
137280 On ch=1 n=47 v=20
137280 On ch=1 n=63 v=20
137280 On ch=1 n=55 v=20
137280 On ch=1 n=58 v=20
137280 On ch=1 n=61 v=20
137384 Off ch=1 n=40 v=64
137384 Off ch=1 n=52 v=64
137384 Off ch=1 n=44 v=64
137384 Off ch=1 n=47 v=64
137384 Off ch=1 n=63 v=64
137384 Off ch=1 n=55 v=64
137384 Off ch=1 n=58 v=64
137384 Off ch=1 n=61 v=64
137520 On ch=1 n=47 v=20
137520 On ch=1 n=40 v=20
137520 On ch=1 n=44 v=20
137520 On ch=1 n=52 v=20
137520 On ch=1 n=55 v=20
137520 On ch=1 n=63 v=20
137520 On ch=1 n=58 v=20
137520 On ch=1 n=61 v=20
137624 Off ch=1 n=47 v=64
137624 Off ch=1 n=40 v=64
137624 Off ch=1 n=44 v=64
137624 Off ch=1 n=52 v=64
137624 Off ch=1 n=55 v=64
137624 Off ch=1 n=63 v=64
137624 Off ch=1 n=58 v=64
137624 Off ch=1 n=61 v=64
137760 On ch=1 n=47 v=20
137760 On ch=1 n=44 v=20
137760 On ch=1 n=52 v=20
137760 On ch=1 n=40 v=20
137760 On ch=1 n=55 v=20
137760 On ch=1 n=63 v=20
137760 On ch=1 n=58 v=20
137760 On ch=1 n=61 v=20
137864 Off ch=1 n=47 v=64
137864 Off ch=1 n=44 v=64
137864 Off ch=1 n=52 v=64
137864 Off ch=1 n=40 v=64
137864 Off ch=1 n=55 v=64
137864 Off ch=1 n=63 v=64
137864 Off ch=1 n=58 v=64
137864 Off ch=1 n=61 v=64
138000 On ch=1 n=47 v=20
138000 On ch=1 n=52 v=20
138000 On ch=1 n=44 v=20
138000 On ch=1 n=40 v=20
138000 On ch=1 n=55 v=20
138000 On ch=1 n=58 v=20
138000 On ch=1 n=63 v=20
138000 On ch=1 n=61 v=20
138104 Off ch=1 n=47 v=64
138104 Off ch=1 n=52 v=64
138104 Off ch=1 n=44 v=64
138104 Off ch=1 n=40 v=64
138104 Off ch=1 n=55 v=64
138104 Off ch=1 n=58 v=64
138104 Off ch=1 n=63 v=64
138104 Off ch=1 n=61 v=64
138240 On ch=1 n=40 v=20
138240 On ch=1 n=52 v=20
138240 On ch=1 n=44 v=20
138240 On ch=1 n=47 v=20
138240 On ch=1 n=63 v=20
138240 On ch=1 n=55 v=20
138240 On ch=1 n=58 v=20
138240 On ch=1 n=61 v=20
138344 Off ch=1 n=40 v=64
138344 Off ch=1 n=52 v=64
138344 Off ch=1 n=44 v=64
138344 Off ch=1 n=47 v=64
138344 Off ch=1 n=63 v=64
138344 Off ch=1 n=55 v=64
138344 Off ch=1 n=58 v=64
138344 Off ch=1 n=61 v=64
138480 On ch=1 n=47 v=20
138480 On ch=1 n=40 v=20
138480 On ch=1 n=44 v=20
138480 On ch=1 n=52 v=20
138480 On ch=1 n=55 v=20
138480 On ch=1 n=63 v=20
138480 On ch=1 n=58 v=20
138480 On ch=1 n=61 v=20
138584 Off ch=1 n=47 v=64
138584 Off ch=1 n=40 v=64
138584 Off ch=1 n=44 v=64
138584 Off ch=1 n=52 v=64
138584 Off ch=1 n=55 v=64
138584 Off ch=1 n=63 v=64
138584 Off ch=1 n=58 v=64
138584 Off ch=1 n=61 v=64
138720 On ch=1 n=47 v=20
138720 On ch=1 n=44 v=20
138720 On ch=1 n=52 v=20
138720 On ch=1 n=40 v=20
138720 On ch=1 n=55 v=20
138720 On ch=1 n=63 v=20
138720 On ch=1 n=58 v=20
138720 On ch=1 n=61 v=20
138824 Off ch=1 n=47 v=64
138824 Off ch=1 n=44 v=64
138824 Off ch=1 n=52 v=64
138824 Off ch=1 n=40 v=64
138824 Off ch=1 n=55 v=64
138824 Off ch=1 n=63 v=64
138824 Off ch=1 n=58 v=64
138824 Off ch=1 n=61 v=64
138960 On ch=1 n=47 v=20
138960 On ch=1 n=52 v=20
138960 On ch=1 n=44 v=20
138960 On ch=1 n=40 v=20
138960 On ch=1 n=55 v=20
138960 On ch=1 n=58 v=20
138960 On ch=1 n=63 v=20
138960 On ch=1 n=61 v=20
139064 Off ch=1 n=47 v=64
139064 Off ch=1 n=52 v=64
139064 Off ch=1 n=44 v=64
139064 Off ch=1 n=40 v=64
139064 Off ch=1 n=55 v=64
139064 Off ch=1 n=58 v=64
139064 Off ch=1 n=63 v=64
139064 Off ch=1 n=61 v=64
139200 On ch=1 n=40 v=20
139200 On ch=1 n=52 v=20
139200 On ch=1 n=44 v=20
139200 On ch=1 n=47 v=20
139200 On ch=1 n=63 v=20
139200 On ch=1 n=55 v=20
139200 On ch=1 n=58 v=20
139200 On ch=1 n=61 v=20
139304 Off ch=1 n=40 v=64
139304 Off ch=1 n=52 v=64
139304 Off ch=1 n=44 v=64
139304 Off ch=1 n=47 v=64
139304 Off ch=1 n=63 v=64
139304 Off ch=1 n=55 v=64
139304 Off ch=1 n=58 v=64
139304 Off ch=1 n=61 v=64
139440 On ch=1 n=47 v=100
139440 On ch=1 n=40 v=120
139440 On ch=1 n=44 v=110
139440 On ch=1 n=52 v=100
139440 On ch=1 n=55 v=110
139440 On ch=1 n=63 v=110
139440 On ch=1 n=58 v=110
139440 On ch=1 n=61 v=110
139544 Off ch=1 n=47 v=64
139544 Off ch=1 n=40 v=64
139544 Off ch=1 n=44 v=64
139544 Off ch=1 n=52 v=64
139544 Off ch=1 n=55 v=64
139544 Off ch=1 n=63 v=64
139544 Off ch=1 n=58 v=64
139544 Off ch=1 n=61 v=64
139680 On ch=1 n=47 v=68
139680 On ch=1 n=44 v=78
139680 On ch=1 n=52 v=68
139680 On ch=1 n=40 v=88
139680 On ch=1 n=55 v=78
139680 On ch=1 n=63 v=78
139680 On ch=1 n=58 v=78
139680 On ch=1 n=61 v=78
139784 Off ch=1 n=47 v=64
139784 Off ch=1 n=44 v=64
139784 Off ch=1 n=52 v=64
139784 Off ch=1 n=40 v=64
139784 Off ch=1 n=55 v=64
139784 Off ch=1 n=63 v=64
139784 Off ch=1 n=58 v=64
139784 Off ch=1 n=61 v=64
139920 On ch=1 n=47 v=100
139920 On ch=1 n=52 v=100
139920 On ch=1 n=44 v=110
139920 On ch=1 n=40 v=120
139920 On ch=1 n=55 v=110
139920 On ch=1 n=58 v=110
139920 On ch=1 n=63 v=110
139920 On ch=1 n=61 v=110
140024 Off ch=1 n=47 v=64
140024 Off ch=1 n=52 v=64
140024 Off ch=1 n=44 v=64
140024 Off ch=1 n=40 v=64
140024 Off ch=1 n=55 v=64
140024 Off ch=1 n=58 v=64
140024 Off ch=1 n=63 v=64
140024 Off ch=1 n=61 v=64
140160 On ch=1 n=40 v=88
140160 On ch=1 n=52 v=68
140160 On ch=1 n=44 v=78
140160 On ch=1 n=47 v=68
140160 On ch=1 n=63 v=78
140160 On ch=1 n=55 v=78
140160 On ch=1 n=58 v=78
140160 On ch=1 n=61 v=78
140264 Off ch=1 n=40 v=64
140264 Off ch=1 n=52 v=64
140264 Off ch=1 n=44 v=64
140264 Off ch=1 n=47 v=64
140264 Off ch=1 n=63 v=64
140264 Off ch=1 n=55 v=64
140264 Off ch=1 n=58 v=64
140264 Off ch=1 n=61 v=64
140400 On ch=1 n=47 v=100
140400 On ch=1 n=40 v=120
140400 On ch=1 n=44 v=110
140400 On ch=1 n=52 v=100
140400 On ch=1 n=55 v=110
140400 On ch=1 n=63 v=110
140400 On ch=1 n=58 v=110
140400 On ch=1 n=61 v=110
140504 Off ch=1 n=47 v=64
140504 Off ch=1 n=40 v=64
140504 Off ch=1 n=44 v=64
140504 Off ch=1 n=52 v=64
140504 Off ch=1 n=55 v=64
140504 Off ch=1 n=63 v=64
140504 Off ch=1 n=58 v=64
140504 Off ch=1 n=61 v=64
140640 On ch=1 n=47 v=68
140640 On ch=1 n=44 v=78
140640 On ch=1 n=52 v=68
140640 On ch=1 n=40 v=88
140640 On ch=1 n=55 v=78
140640 On ch=1 n=63 v=78
140640 On ch=1 n=58 v=78
140640 On ch=1 n=61 v=78
140744 Off ch=1 n=47 v=64
140744 Off ch=1 n=44 v=64
140744 Off ch=1 n=52 v=64
140744 Off ch=1 n=40 v=64
140744 Off ch=1 n=55 v=64
140744 Off ch=1 n=63 v=64
140744 Off ch=1 n=58 v=64
140744 Off ch=1 n=61 v=64
140880 On ch=1 n=47 v=68
140880 On ch=1 n=52 v=68
140880 On ch=1 n=44 v=78
140880 On ch=1 n=40 v=88
140880 On ch=1 n=55 v=78
140880 On ch=1 n=58 v=78
140880 On ch=1 n=63 v=78
140880 On ch=1 n=61 v=78
140984 Off ch=1 n=47 v=64
140984 Off ch=1 n=52 v=64
140984 Off ch=1 n=44 v=64
140984 Off ch=1 n=40 v=64
140984 Off ch=1 n=55 v=64
140984 Off ch=1 n=58 v=64
140984 Off ch=1 n=63 v=64
140984 Off ch=1 n=61 v=64
141120 On ch=1 n=40 v=88
141120 On ch=1 n=52 v=68
141120 On ch=1 n=44 v=78
141120 On ch=1 n=47 v=68
141120 On ch=1 n=63 v=78
141120 On ch=1 n=55 v=78
141120 On ch=1 n=58 v=78
141120 On ch=1 n=61 v=78
141224 Off ch=1 n=40 v=64
141224 Off ch=1 n=52 v=64
141224 Off ch=1 n=44 v=64
141224 Off ch=1 n=47 v=64
141224 Off ch=1 n=63 v=64
141224 Off ch=1 n=55 v=64
141224 Off ch=1 n=58 v=64
141224 Off ch=1 n=61 v=64
141360 On ch=1 n=47 v=68
141360 On ch=1 n=40 v=88
141360 On ch=1 n=44 v=78
141360 On ch=1 n=52 v=68
141360 On ch=1 n=55 v=78
141360 On ch=1 n=63 v=78
141360 On ch=1 n=58 v=78
141360 On ch=1 n=61 v=78
141464 Off ch=1 n=47 v=64
141464 Off ch=1 n=40 v=64
141464 Off ch=1 n=44 v=64
141464 Off ch=1 n=52 v=64
141464 Off ch=1 n=55 v=64
141464 Off ch=1 n=63 v=64
141464 Off ch=1 n=58 v=64
141464 Off ch=1 n=61 v=64
141600 On ch=1 n=47 v=100
141600 On ch=1 n=44 v=110
141600 On ch=1 n=52 v=100
141600 On ch=1 n=40 v=120
141600 On ch=1 n=55 v=110
141600 On ch=1 n=63 v=110
141600 On ch=1 n=58 v=110
141600 On ch=1 n=61 v=110
141704 Off ch=1 n=47 v=64
141704 Off ch=1 n=44 v=64
141704 Off ch=1 n=52 v=64
141704 Off ch=1 n=40 v=64
141704 Off ch=1 n=55 v=64
141704 Off ch=1 n=63 v=64
141704 Off ch=1 n=58 v=64
141704 Off ch=1 n=61 v=64
141840 On ch=1 n=47 v=68
141840 On ch=1 n=52 v=68
141840 On ch=1 n=44 v=78
141840 On ch=1 n=40 v=88
141840 On ch=1 n=55 v=78
141840 On ch=1 n=58 v=78
141840 On ch=1 n=63 v=78
141840 On ch=1 n=61 v=78
141944 Off ch=1 n=47 v=64
141944 Off ch=1 n=52 v=64
141944 Off ch=1 n=44 v=64
141944 Off ch=1 n=40 v=64
141944 Off ch=1 n=55 v=64
141944 Off ch=1 n=58 v=64
141944 Off ch=1 n=63 v=64
141944 Off ch=1 n=61 v=64
142080 On ch=1 n=40 v=88
142080 On ch=1 n=52 v=68
142080 On ch=1 n=44 v=78
142080 On ch=1 n=47 v=68
142080 On ch=1 n=63 v=78
142080 On ch=1 n=55 v=78
142080 On ch=1 n=58 v=78
142080 On ch=1 n=61 v=78
142184 Off ch=1 n=40 v=64
142184 Off ch=1 n=52 v=64
142184 Off ch=1 n=44 v=64
142184 Off ch=1 n=47 v=64
142184 Off ch=1 n=63 v=64
142184 Off ch=1 n=55 v=64
142184 Off ch=1 n=58 v=64
142184 Off ch=1 n=61 v=64
142320 On ch=1 n=47 v=68
142320 On ch=1 n=40 v=88
142320 On ch=1 n=44 v=78
142320 On ch=1 n=52 v=68
142320 On ch=1 n=55 v=78
142320 On ch=1 n=63 v=78
142320 On ch=1 n=58 v=78
142320 On ch=1 n=61 v=78
142424 Off ch=1 n=47 v=64
142424 Off ch=1 n=40 v=64
142424 Off ch=1 n=44 v=64
142424 Off ch=1 n=52 v=64
142424 Off ch=1 n=55 v=64
142424 Off ch=1 n=63 v=64
142424 Off ch=1 n=58 v=64
142424 Off ch=1 n=61 v=64
142560 On ch=1 n=47 v=68
142560 On ch=1 n=44 v=78
142560 On ch=1 n=52 v=68
142560 On ch=1 n=40 v=88
142560 On ch=1 n=55 v=78
142560 On ch=1 n=63 v=78
142560 On ch=1 n=58 v=78
142560 On ch=1 n=61 v=78
142664 Off ch=1 n=47 v=64
142664 Off ch=1 n=44 v=64
142664 Off ch=1 n=52 v=64
142664 Off ch=1 n=40 v=64
142664 Off ch=1 n=55 v=64
142664 Off ch=1 n=63 v=64
142664 Off ch=1 n=58 v=64
142664 Off ch=1 n=61 v=64
142800 On ch=1 n=47 v=100
142800 On ch=1 n=52 v=100
142800 On ch=1 n=44 v=110
142800 On ch=1 n=40 v=120
142800 On ch=1 n=55 v=110
142800 On ch=1 n=58 v=110
142800 On ch=1 n=63 v=110
142800 On ch=1 n=61 v=110
142904 Off ch=1 n=47 v=64
142904 Off ch=1 n=52 v=64
142904 Off ch=1 n=44 v=64
142904 Off ch=1 n=40 v=64
142904 Off ch=1 n=55 v=64
142904 Off ch=1 n=58 v=64
142904 Off ch=1 n=63 v=64
142904 Off ch=1 n=61 v=64
143040 On ch=1 n=40 v=88
143040 On ch=1 n=52 v=68
143040 On ch=1 n=44 v=78
143040 On ch=1 n=47 v=68
143040 On ch=1 n=63 v=78
143040 On ch=1 n=55 v=78
143040 On ch=1 n=58 v=78
143040 On ch=1 n=61 v=78
143144 Off ch=1 n=40 v=64
143144 Off ch=1 n=52 v=64
143144 Off ch=1 n=44 v=64
143144 Off ch=1 n=47 v=64
143144 Off ch=1 n=63 v=64
143144 Off ch=1 n=55 v=64
143144 Off ch=1 n=58 v=64
143144 Off ch=1 n=61 v=64
143280 On ch=1 n=47 v=68
143280 On ch=1 n=40 v=88
143280 On ch=1 n=44 v=78
143280 On ch=1 n=52 v=68
143280 On ch=1 n=55 v=78
143280 On ch=1 n=63 v=78
143280 On ch=1 n=58 v=78
143280 On ch=1 n=61 v=78
143384 Off ch=1 n=47 v=64
143384 Off ch=1 n=40 v=64
143384 Off ch=1 n=44 v=64
143384 Off ch=1 n=52 v=64
143384 Off ch=1 n=55 v=64
143384 Off ch=1 n=63 v=64
143384 Off ch=1 n=58 v=64
143384 Off ch=1 n=61 v=64
143520 On ch=1 n=47 v=68
143520 On ch=1 n=44 v=78
143520 On ch=1 n=52 v=68
143520 On ch=1 n=40 v=88
143520 On ch=1 n=55 v=78
143520 On ch=1 n=63 v=78
143520 On ch=1 n=58 v=78
143520 On ch=1 n=61 v=78
143624 Off ch=1 n=47 v=64
143624 Off ch=1 n=44 v=64
143624 Off ch=1 n=52 v=64
143624 Off ch=1 n=40 v=64
143624 Off ch=1 n=55 v=64
143624 Off ch=1 n=63 v=64
143624 Off ch=1 n=58 v=64
143624 Off ch=1 n=61 v=64
143760 On ch=1 n=47 v=22
143760 On ch=1 n=52 v=22
143760 On ch=1 n=44 v=22
143760 On ch=1 n=40 v=22
143760 On ch=1 n=55 v=22
143760 On ch=1 n=58 v=22
143760 On ch=1 n=63 v=22
143760 On ch=1 n=61 v=22
143864 Off ch=1 n=47 v=64
143864 Off ch=1 n=52 v=64
143864 Off ch=1 n=44 v=64
143864 Off ch=1 n=40 v=64
143864 Off ch=1 n=55 v=64
143864 Off ch=1 n=58 v=64
143864 Off ch=1 n=63 v=64
143864 Off ch=1 n=61 v=64
144000 On ch=1 n=40 v=22
144000 On ch=1 n=52 v=22
144000 On ch=1 n=44 v=22
144000 On ch=1 n=47 v=22
144000 On ch=1 n=63 v=22
144000 On ch=1 n=55 v=22
144000 On ch=1 n=58 v=22
144000 On ch=1 n=61 v=22
144104 Off ch=1 n=40 v=64
144104 Off ch=1 n=52 v=64
144104 Off ch=1 n=44 v=64
144104 Off ch=1 n=47 v=64
144104 Off ch=1 n=63 v=64
144104 Off ch=1 n=55 v=64
144104 Off ch=1 n=58 v=64
144104 Off ch=1 n=61 v=64
144240 On ch=1 n=47 v=22
144240 On ch=1 n=40 v=22
144240 On ch=1 n=44 v=22
144240 On ch=1 n=52 v=22
144240 On ch=1 n=55 v=22
144240 On ch=1 n=63 v=22
144240 On ch=1 n=58 v=22
144240 On ch=1 n=61 v=22
144344 Off ch=1 n=47 v=64
144344 Off ch=1 n=40 v=64
144344 Off ch=1 n=44 v=64
144344 Off ch=1 n=52 v=64
144344 Off ch=1 n=55 v=64
144344 Off ch=1 n=63 v=64
144344 Off ch=1 n=58 v=64
144344 Off ch=1 n=61 v=64
144480 On ch=1 n=47 v=22
144480 On ch=1 n=44 v=22
144480 On ch=1 n=52 v=22
144480 On ch=1 n=40 v=22
144480 On ch=1 n=55 v=22
144480 On ch=1 n=63 v=22
144480 On ch=1 n=58 v=22
144480 On ch=1 n=61 v=22
144584 Off ch=1 n=47 v=64
144584 Off ch=1 n=44 v=64
144584 Off ch=1 n=52 v=64
144584 Off ch=1 n=40 v=64
144584 Off ch=1 n=55 v=64
144584 Off ch=1 n=63 v=64
144584 Off ch=1 n=58 v=64
144584 Off ch=1 n=61 v=64
144720 On ch=1 n=47 v=22
144720 On ch=1 n=52 v=22
144720 On ch=1 n=44 v=22
144720 On ch=1 n=40 v=22
144720 On ch=1 n=55 v=22
144720 On ch=1 n=58 v=22
144720 On ch=1 n=63 v=22
144720 On ch=1 n=61 v=22
144824 Off ch=1 n=47 v=64
144824 Off ch=1 n=52 v=64
144824 Off ch=1 n=44 v=64
144824 Off ch=1 n=40 v=64
144824 Off ch=1 n=55 v=64
144824 Off ch=1 n=58 v=64
144824 Off ch=1 n=63 v=64
144824 Off ch=1 n=61 v=64
144960 On ch=1 n=40 v=22
144960 On ch=1 n=52 v=22
144960 On ch=1 n=44 v=22
144960 On ch=1 n=47 v=22
144960 On ch=1 n=63 v=22
144960 On ch=1 n=55 v=22
144960 On ch=1 n=58 v=22
144960 On ch=1 n=61 v=22
145064 Off ch=1 n=40 v=64
145064 Off ch=1 n=52 v=64
145064 Off ch=1 n=44 v=64
145064 Off ch=1 n=47 v=64
145064 Off ch=1 n=63 v=64
145064 Off ch=1 n=55 v=64
145064 Off ch=1 n=58 v=64
145064 Off ch=1 n=61 v=64
145200 On ch=1 n=47 v=22
145200 On ch=1 n=40 v=22
145200 On ch=1 n=44 v=22
145200 On ch=1 n=52 v=22
145200 On ch=1 n=55 v=22
145200 On ch=1 n=63 v=22
145200 On ch=1 n=58 v=22
145200 On ch=1 n=61 v=22
145304 Off ch=1 n=47 v=64
145304 Off ch=1 n=40 v=64
145304 Off ch=1 n=44 v=64
145304 Off ch=1 n=52 v=64
145304 Off ch=1 n=55 v=64
145304 Off ch=1 n=63 v=64
145304 Off ch=1 n=58 v=64
145304 Off ch=1 n=61 v=64
145440 On ch=1 n=47 v=22
145440 On ch=1 n=44 v=22
145440 On ch=1 n=52 v=22
145440 On ch=1 n=40 v=22
145440 On ch=1 n=55 v=22
145440 On ch=1 n=63 v=22
145440 On ch=1 n=58 v=22
145440 On ch=1 n=61 v=22
145544 Off ch=1 n=47 v=64
145544 Off ch=1 n=44 v=64
145544 Off ch=1 n=52 v=64
145544 Off ch=1 n=40 v=64
145544 Off ch=1 n=55 v=64
145544 Off ch=1 n=63 v=64
145544 Off ch=1 n=58 v=64
145544 Off ch=1 n=61 v=64
145680 On ch=1 n=47 v=22
145680 On ch=1 n=52 v=22
145680 On ch=1 n=44 v=22
145680 On ch=1 n=40 v=22
145680 On ch=1 n=55 v=22
145680 On ch=1 n=58 v=22
145680 On ch=1 n=63 v=22
145680 On ch=1 n=61 v=22
145784 Off ch=1 n=47 v=64
145784 Off ch=1 n=52 v=64
145784 Off ch=1 n=44 v=64
145784 Off ch=1 n=40 v=64
145784 Off ch=1 n=55 v=64
145784 Off ch=1 n=58 v=64
145784 Off ch=1 n=63 v=64
145784 Off ch=1 n=61 v=64
145920 On ch=1 n=40 v=22
145920 On ch=1 n=52 v=22
145920 On ch=1 n=44 v=22
145920 On ch=1 n=47 v=22
145920 On ch=1 n=63 v=22
145920 On ch=1 n=55 v=22
145920 On ch=1 n=58 v=22
145920 On ch=1 n=61 v=22
146024 Off ch=1 n=40 v=64
146024 Off ch=1 n=52 v=64
146024 Off ch=1 n=44 v=64
146024 Off ch=1 n=47 v=64
146024 Off ch=1 n=63 v=64
146024 Off ch=1 n=55 v=64
146024 Off ch=1 n=58 v=64
146024 Off ch=1 n=61 v=64
146160 On ch=1 n=47 v=22
146160 On ch=1 n=40 v=22
146160 On ch=1 n=44 v=22
146160 On ch=1 n=52 v=22
146160 On ch=1 n=55 v=22
146160 On ch=1 n=63 v=22
146160 On ch=1 n=58 v=22
146160 On ch=1 n=61 v=22
146264 Off ch=1 n=47 v=64
146264 Off ch=1 n=40 v=64
146264 Off ch=1 n=44 v=64
146264 Off ch=1 n=52 v=64
146264 Off ch=1 n=55 v=64
146264 Off ch=1 n=63 v=64
146264 Off ch=1 n=58 v=64
146264 Off ch=1 n=61 v=64
146400 On ch=1 n=47 v=22
146400 On ch=1 n=44 v=22
146400 On ch=1 n=52 v=22
146400 On ch=1 n=40 v=22
146400 On ch=1 n=55 v=22
146400 On ch=1 n=63 v=22
146400 On ch=1 n=58 v=22
146400 On ch=1 n=61 v=22
146504 Off ch=1 n=47 v=64
146504 Off ch=1 n=44 v=64
146504 Off ch=1 n=52 v=64
146504 Off ch=1 n=40 v=64
146504 Off ch=1 n=55 v=64
146504 Off ch=1 n=63 v=64
146504 Off ch=1 n=58 v=64
146504 Off ch=1 n=61 v=64
146640 On ch=1 n=47 v=22
146640 On ch=1 n=52 v=22
146640 On ch=1 n=44 v=22
146640 On ch=1 n=40 v=22
146640 On ch=1 n=55 v=22
146640 On ch=1 n=58 v=22
146640 On ch=1 n=63 v=22
146640 On ch=1 n=61 v=22
146744 Off ch=1 n=47 v=64
146744 Off ch=1 n=52 v=64
146744 Off ch=1 n=44 v=64
146744 Off ch=1 n=40 v=64
146744 Off ch=1 n=55 v=64
146744 Off ch=1 n=58 v=64
146744 Off ch=1 n=63 v=64
146744 Off ch=1 n=61 v=64
146880 On ch=1 n=40 v=22
146880 On ch=1 n=52 v=22
146880 On ch=1 n=44 v=22
146880 On ch=1 n=47 v=22
146880 On ch=1 n=63 v=22
146880 On ch=1 n=55 v=22
146880 On ch=1 n=58 v=22
146880 On ch=1 n=61 v=22
146984 Off ch=1 n=40 v=64
146984 Off ch=1 n=52 v=64
146984 Off ch=1 n=44 v=64
146984 Off ch=1 n=47 v=64
146984 Off ch=1 n=63 v=64
146984 Off ch=1 n=55 v=64
146984 Off ch=1 n=58 v=64
146984 Off ch=1 n=61 v=64
147120 On ch=1 n=47 v=22
147120 On ch=1 n=40 v=22
147120 On ch=1 n=44 v=22
147120 On ch=1 n=52 v=22
147120 On ch=1 n=55 v=22
147120 On ch=1 n=63 v=22
147120 On ch=1 n=58 v=22
147120 On ch=1 n=61 v=22
147224 Off ch=1 n=47 v=64
147224 Off ch=1 n=40 v=64
147224 Off ch=1 n=44 v=64
147224 Off ch=1 n=52 v=64
147224 Off ch=1 n=55 v=64
147224 Off ch=1 n=63 v=64
147224 Off ch=1 n=58 v=64
147224 Off ch=1 n=61 v=64
147360 On ch=1 n=47 v=22
147360 On ch=1 n=44 v=22
147360 On ch=1 n=52 v=22
147360 On ch=1 n=40 v=22
147360 On ch=1 n=55 v=22
147360 On ch=1 n=63 v=22
147360 On ch=1 n=58 v=22
147360 On ch=1 n=61 v=22
147464 Off ch=1 n=47 v=64
147464 Off ch=1 n=44 v=64
147464 Off ch=1 n=52 v=64
147464 Off ch=1 n=40 v=64
147464 Off ch=1 n=55 v=64
147464 Off ch=1 n=63 v=64
147464 Off ch=1 n=58 v=64
147464 Off ch=1 n=61 v=64
147600 On ch=1 n=47 v=22
147600 On ch=1 n=52 v=22
147600 On ch=1 n=44 v=22
147600 On ch=1 n=40 v=22
147600 On ch=1 n=55 v=22
147600 On ch=1 n=58 v=22
147600 On ch=1 n=63 v=22
147600 On ch=1 n=61 v=22
147704 Off ch=1 n=47 v=64
147704 Off ch=1 n=52 v=64
147704 Off ch=1 n=44 v=64
147704 Off ch=1 n=40 v=64
147704 Off ch=1 n=55 v=64
147704 Off ch=1 n=58 v=64
147704 Off ch=1 n=63 v=64
147704 Off ch=1 n=61 v=64
147840 On ch=1 n=40 v=22
147840 On ch=1 n=52 v=22
147840 On ch=1 n=44 v=22
147840 On ch=1 n=47 v=22
147840 On ch=1 n=63 v=22
147840 On ch=1 n=55 v=22
147840 On ch=1 n=58 v=22
147840 On ch=1 n=61 v=22
147944 Off ch=1 n=40 v=64
147944 Off ch=1 n=52 v=64
147944 Off ch=1 n=44 v=64
147944 Off ch=1 n=47 v=64
147944 Off ch=1 n=63 v=64
147944 Off ch=1 n=55 v=64
147944 Off ch=1 n=58 v=64
147944 Off ch=1 n=61 v=64
148080 On ch=1 n=47 v=22
148080 On ch=1 n=40 v=22
148080 On ch=1 n=44 v=22
148080 On ch=1 n=52 v=22
148080 On ch=1 n=55 v=22
148080 On ch=1 n=63 v=22
148080 On ch=1 n=58 v=22
148080 On ch=1 n=61 v=22
148184 Off ch=1 n=47 v=64
148184 Off ch=1 n=40 v=64
148184 Off ch=1 n=44 v=64
148184 Off ch=1 n=52 v=64
148184 Off ch=1 n=55 v=64
148184 Off ch=1 n=63 v=64
148184 Off ch=1 n=58 v=64
148184 Off ch=1 n=61 v=64
148320 On ch=1 n=47 v=22
148320 On ch=1 n=44 v=22
148320 On ch=1 n=52 v=22
148320 On ch=1 n=40 v=22
148320 On ch=1 n=55 v=22
148320 On ch=1 n=63 v=22
148320 On ch=1 n=58 v=22
148320 On ch=1 n=61 v=22
148424 Off ch=1 n=47 v=64
148424 Off ch=1 n=44 v=64
148424 Off ch=1 n=52 v=64
148424 Off ch=1 n=40 v=64
148424 Off ch=1 n=55 v=64
148424 Off ch=1 n=63 v=64
148424 Off ch=1 n=58 v=64
148424 Off ch=1 n=61 v=64
148560 On ch=1 n=47 v=22
148560 On ch=1 n=52 v=22
148560 On ch=1 n=44 v=22
148560 On ch=1 n=40 v=22
148560 On ch=1 n=55 v=22
148560 On ch=1 n=58 v=22
148560 On ch=1 n=63 v=22
148560 On ch=1 n=61 v=22
148664 Off ch=1 n=47 v=64
148664 Off ch=1 n=52 v=64
148664 Off ch=1 n=44 v=64
148664 Off ch=1 n=40 v=64
148664 Off ch=1 n=55 v=64
148664 Off ch=1 n=58 v=64
148664 Off ch=1 n=63 v=64
148664 Off ch=1 n=61 v=64
148800 On ch=1 n=40 v=22
148800 On ch=1 n=52 v=22
148800 On ch=1 n=44 v=22
148800 On ch=1 n=47 v=22
148800 On ch=1 n=63 v=22
148800 On ch=1 n=55 v=22
148800 On ch=1 n=58 v=22
148800 On ch=1 n=61 v=22
148904 Off ch=1 n=40 v=64
148904 Off ch=1 n=52 v=64
148904 Off ch=1 n=44 v=64
148904 Off ch=1 n=47 v=64
148904 Off ch=1 n=63 v=64
148904 Off ch=1 n=55 v=64
148904 Off ch=1 n=58 v=64
148904 Off ch=1 n=61 v=64
149040 On ch=1 n=47 v=22
149040 On ch=1 n=40 v=22
149040 On ch=1 n=44 v=22
149040 On ch=1 n=52 v=22
149040 On ch=1 n=55 v=22
149040 On ch=1 n=63 v=22
149040 On ch=1 n=58 v=22
149040 On ch=1 n=61 v=22
149144 Off ch=1 n=47 v=64
149144 Off ch=1 n=40 v=64
149144 Off ch=1 n=44 v=64
149144 Off ch=1 n=52 v=64
149144 Off ch=1 n=55 v=64
149144 Off ch=1 n=63 v=64
149144 Off ch=1 n=58 v=64
149144 Off ch=1 n=61 v=64
149280 On ch=1 n=47 v=22
149280 On ch=1 n=44 v=22
149280 On ch=1 n=52 v=22
149280 On ch=1 n=40 v=22
149280 On ch=1 n=55 v=22
149280 On ch=1 n=63 v=22
149280 On ch=1 n=58 v=22
149280 On ch=1 n=61 v=22
149384 Off ch=1 n=47 v=64
149384 Off ch=1 n=44 v=64
149384 Off ch=1 n=52 v=64
149384 Off ch=1 n=40 v=64
149384 Off ch=1 n=55 v=64
149384 Off ch=1 n=63 v=64
149384 Off ch=1 n=58 v=64
149384 Off ch=1 n=61 v=64
149520 On ch=1 n=47 v=22
149520 On ch=1 n=52 v=22
149520 On ch=1 n=44 v=22
149520 On ch=1 n=40 v=22
149520 On ch=1 n=55 v=22
149520 On ch=1 n=58 v=22
149520 On ch=1 n=63 v=22
149520 On ch=1 n=61 v=22
149624 Off ch=1 n=47 v=64
149624 Off ch=1 n=52 v=64
149624 Off ch=1 n=44 v=64
149624 Off ch=1 n=40 v=64
149624 Off ch=1 n=55 v=64
149624 Off ch=1 n=58 v=64
149624 Off ch=1 n=63 v=64
149624 Off ch=1 n=61 v=64
149760 On ch=1 n=40 v=22
149760 On ch=1 n=52 v=22
149760 On ch=1 n=44 v=22
149760 On ch=1 n=47 v=22
149760 On ch=1 n=63 v=22
149760 On ch=1 n=55 v=22
149760 On ch=1 n=58 v=22
149760 On ch=1 n=61 v=22
149864 Off ch=1 n=40 v=64
149864 Off ch=1 n=52 v=64
149864 Off ch=1 n=44 v=64
149864 Off ch=1 n=47 v=64
149864 Off ch=1 n=63 v=64
149864 Off ch=1 n=55 v=64
149864 Off ch=1 n=58 v=64
149864 Off ch=1 n=61 v=64
150000 On ch=1 n=47 v=22
150000 On ch=1 n=40 v=22
150000 On ch=1 n=44 v=22
150000 On ch=1 n=52 v=22
150000 On ch=1 n=55 v=22
150000 On ch=1 n=63 v=22
150000 On ch=1 n=58 v=22
150000 On ch=1 n=61 v=22
150104 Off ch=1 n=47 v=64
150104 Off ch=1 n=40 v=64
150104 Off ch=1 n=44 v=64
150104 Off ch=1 n=52 v=64
150104 Off ch=1 n=55 v=64
150104 Off ch=1 n=63 v=64
150104 Off ch=1 n=58 v=64
150104 Off ch=1 n=61 v=64
150240 On ch=1 n=47 v=22
150240 On ch=1 n=44 v=22
150240 On ch=1 n=52 v=22
150240 On ch=1 n=40 v=22
150240 On ch=1 n=55 v=22
150240 On ch=1 n=63 v=22
150240 On ch=1 n=58 v=22
150240 On ch=1 n=61 v=22
150344 Off ch=1 n=47 v=64
150344 Off ch=1 n=44 v=64
150344 Off ch=1 n=52 v=64
150344 Off ch=1 n=40 v=64
150344 Off ch=1 n=55 v=64
150344 Off ch=1 n=63 v=64
150344 Off ch=1 n=58 v=64
150344 Off ch=1 n=61 v=64
150480 On ch=1 n=47 v=22
150480 On ch=1 n=52 v=22
150480 On ch=1 n=44 v=22
150480 On ch=1 n=40 v=22
150480 On ch=1 n=55 v=22
150480 On ch=1 n=58 v=22
150480 On ch=1 n=63 v=22
150480 On ch=1 n=61 v=22
150584 Off ch=1 n=47 v=64
150584 Off ch=1 n=52 v=64
150584 Off ch=1 n=44 v=64
150584 Off ch=1 n=40 v=64
150584 Off ch=1 n=55 v=64
150584 Off ch=1 n=58 v=64
150584 Off ch=1 n=63 v=64
150584 Off ch=1 n=61 v=64
150720 On ch=1 n=40 v=22
150720 On ch=1 n=52 v=22
150720 On ch=1 n=44 v=22
150720 On ch=1 n=47 v=22
150720 On ch=1 n=63 v=22
150720 On ch=1 n=55 v=22
150720 On ch=1 n=58 v=22
150720 On ch=1 n=61 v=22
150824 Off ch=1 n=40 v=64
150824 Off ch=1 n=52 v=64
150824 Off ch=1 n=44 v=64
150824 Off ch=1 n=47 v=64
150824 Off ch=1 n=63 v=64
150824 Off ch=1 n=55 v=64
150824 Off ch=1 n=58 v=64
150824 Off ch=1 n=61 v=64
150960 On ch=1 n=47 v=22
150960 On ch=1 n=40 v=22
150960 On ch=1 n=44 v=22
150960 On ch=1 n=52 v=22
150960 On ch=1 n=55 v=22
150960 On ch=1 n=63 v=22
150960 On ch=1 n=58 v=22
150960 On ch=1 n=61 v=22
151064 Off ch=1 n=47 v=64
151064 Off ch=1 n=40 v=64
151064 Off ch=1 n=44 v=64
151064 Off ch=1 n=52 v=64
151064 Off ch=1 n=55 v=64
151064 Off ch=1 n=63 v=64
151064 Off ch=1 n=58 v=64
151064 Off ch=1 n=61 v=64
151200 On ch=1 n=47 v=22
151200 On ch=1 n=44 v=22
151200 On ch=1 n=52 v=22
151200 On ch=1 n=40 v=22
151200 On ch=1 n=55 v=22
151200 On ch=1 n=63 v=22
151200 On ch=1 n=58 v=22
151200 On ch=1 n=61 v=22
151304 Off ch=1 n=47 v=64
151304 Off ch=1 n=44 v=64
151304 Off ch=1 n=52 v=64
151304 Off ch=1 n=40 v=64
151304 Off ch=1 n=55 v=64
151304 Off ch=1 n=63 v=64
151304 Off ch=1 n=58 v=64
151304 Off ch=1 n=61 v=64
151440 On ch=1 n=47 v=22
151440 On ch=1 n=52 v=22
151440 On ch=1 n=44 v=22
151440 On ch=1 n=40 v=22
151440 On ch=1 n=55 v=22
151440 On ch=1 n=58 v=22
151440 On ch=1 n=63 v=22
151440 On ch=1 n=61 v=22
151544 Off ch=1 n=47 v=64
151544 Off ch=1 n=52 v=64
151544 Off ch=1 n=44 v=64
151544 Off ch=1 n=40 v=64
151544 Off ch=1 n=55 v=64
151544 Off ch=1 n=58 v=64
151544 Off ch=1 n=63 v=64
151544 Off ch=1 n=61 v=64
151680 On ch=1 n=40 v=22
151680 On ch=1 n=52 v=22
151680 On ch=1 n=44 v=22
151680 On ch=1 n=47 v=22
151680 On ch=1 n=63 v=22
151680 On ch=1 n=55 v=22
151680 On ch=1 n=58 v=22
151680 On ch=1 n=61 v=22
151784 Off ch=1 n=40 v=64
151784 Off ch=1 n=52 v=64
151784 Off ch=1 n=44 v=64
151784 Off ch=1 n=47 v=64
151784 Off ch=1 n=63 v=64
151784 Off ch=1 n=55 v=64
151784 Off ch=1 n=58 v=64
151784 Off ch=1 n=61 v=64
151920 On ch=1 n=47 v=22
151920 On ch=1 n=40 v=22
151920 On ch=1 n=44 v=22
151920 On ch=1 n=52 v=22
151920 On ch=1 n=55 v=22
151920 On ch=1 n=63 v=22
151920 On ch=1 n=58 v=22
151920 On ch=1 n=61 v=22
152024 Off ch=1 n=47 v=64
152024 Off ch=1 n=40 v=64
152024 Off ch=1 n=44 v=64
152024 Off ch=1 n=52 v=64
152024 Off ch=1 n=55 v=64
152024 Off ch=1 n=63 v=64
152024 Off ch=1 n=58 v=64
152024 Off ch=1 n=61 v=64
152160 On ch=1 n=47 v=22
152160 On ch=1 n=44 v=22
152160 On ch=1 n=52 v=22
152160 On ch=1 n=40 v=22
152160 On ch=1 n=55 v=22
152160 On ch=1 n=63 v=22
152160 On ch=1 n=58 v=22
152160 On ch=1 n=61 v=22
152264 Off ch=1 n=47 v=64
152264 Off ch=1 n=44 v=64
152264 Off ch=1 n=52 v=64
152264 Off ch=1 n=40 v=64
152264 Off ch=1 n=55 v=64
152264 Off ch=1 n=63 v=64
152264 Off ch=1 n=58 v=64
152264 Off ch=1 n=61 v=64
152400 On ch=1 n=47 v=22
152400 On ch=1 n=52 v=22
152400 On ch=1 n=44 v=22
152400 On ch=1 n=40 v=22
152400 On ch=1 n=55 v=22
152400 On ch=1 n=58 v=22
152400 On ch=1 n=63 v=22
152400 On ch=1 n=61 v=22
152504 Off ch=1 n=47 v=64
152504 Off ch=1 n=52 v=64
152504 Off ch=1 n=44 v=64
152504 Off ch=1 n=40 v=64
152504 Off ch=1 n=55 v=64
152504 Off ch=1 n=58 v=64
152504 Off ch=1 n=63 v=64
152504 Off ch=1 n=61 v=64
152640 On ch=1 n=40 v=22
152640 On ch=1 n=52 v=22
152640 On ch=1 n=44 v=22
152640 On ch=1 n=47 v=22
152640 On ch=1 n=63 v=22
152640 On ch=1 n=55 v=22
152640 On ch=1 n=58 v=22
152640 On ch=1 n=61 v=22
152744 Off ch=1 n=40 v=64
152744 Off ch=1 n=52 v=64
152744 Off ch=1 n=44 v=64
152744 Off ch=1 n=47 v=64
152744 Off ch=1 n=63 v=64
152744 Off ch=1 n=55 v=64
152744 Off ch=1 n=58 v=64
152744 Off ch=1 n=61 v=64
152880 On ch=1 n=47 v=22
152880 On ch=1 n=40 v=22
152880 On ch=1 n=44 v=22
152880 On ch=1 n=52 v=22
152880 On ch=1 n=55 v=22
152880 On ch=1 n=63 v=22
152880 On ch=1 n=58 v=22
152880 On ch=1 n=61 v=22
152984 Off ch=1 n=47 v=64
152984 Off ch=1 n=40 v=64
152984 Off ch=1 n=44 v=64
152984 Off ch=1 n=52 v=64
152984 Off ch=1 n=55 v=64
152984 Off ch=1 n=63 v=64
152984 Off ch=1 n=58 v=64
152984 Off ch=1 n=61 v=64
154080 On ch=1 n=62 v=84
154080 On ch=1 n=50 v=84
154208 Off ch=1 n=62 v=64
154208 Off ch=1 n=50 v=64
154240 On ch=1 n=42 v=78
154240 On ch=1 n=66 v=78
154292 Off ch=1 n=66 v=64
154294 Off ch=1 n=42 v=64
154400 On ch=1 n=43 v=78
154512 Off ch=1 n=43 v=64
154560 On ch=1 n=29 v=88
154560 On ch=1 n=41 v=88
154614 Off ch=1 n=29 v=64
154614 Off ch=1 n=41 v=64
160716 On ch=1 n=67 v=78
160744 On ch=1 n=69 v=78
160772 On ch=1 n=71 v=78
160788 Off ch=1 n=67 v=64
160800 On ch=1 n=72 v=78
160800 On ch=1 n=73 v=78
160816 Off ch=1 n=69 v=64
160844 Off ch=1 n=71 v=64
160920 Off ch=1 n=72 v=64
160920 Off ch=1 n=73 v=64
161196 On ch=1 n=67 v=78
161224 On ch=1 n=69 v=78
161252 On ch=1 n=71 v=78
161268 Off ch=1 n=67 v=64
161280 On ch=1 n=75 v=78
161280 On ch=1 n=72 v=78
161296 Off ch=1 n=69 v=64
161324 Off ch=1 n=71 v=64
161400 Off ch=1 n=75 v=64
161400 Off ch=1 n=72 v=64
161676 On ch=1 n=67 v=78
161704 On ch=1 n=69 v=78
161732 On ch=1 n=71 v=78
161748 Off ch=1 n=67 v=64
161760 On ch=1 n=72 v=78
161760 On ch=1 n=73 v=78
161776 Off ch=1 n=69 v=64
161804 Off ch=1 n=71 v=64
161880 Off ch=1 n=72 v=64
161880 Off ch=1 n=73 v=64
162156 On ch=1 n=67 v=78
162184 On ch=1 n=69 v=78
162212 On ch=1 n=71 v=78
162228 Off ch=1 n=67 v=64
162240 On ch=1 n=75 v=78
162240 On ch=1 n=72 v=78
162256 Off ch=1 n=69 v=64
162284 Off ch=1 n=71 v=64
162360 Off ch=1 n=75 v=64
162360 Off ch=1 n=72 v=64
162636 On ch=1 n=67 v=78
162664 On ch=1 n=69 v=78
162692 On ch=1 n=71 v=78
162708 Off ch=1 n=67 v=64
162720 On ch=1 n=72 v=78
162720 On ch=1 n=73 v=78
162736 Off ch=1 n=69 v=64
162764 Off ch=1 n=71 v=64
162840 Off ch=1 n=72 v=64
162840 Off ch=1 n=73 v=64
163116 On ch=1 n=67 v=78
163144 On ch=1 n=69 v=78
163172 On ch=1 n=71 v=78
163188 Off ch=1 n=67 v=64
163200 On ch=1 n=75 v=78
163200 On ch=1 n=72 v=78
163216 Off ch=1 n=69 v=64
163244 Off ch=1 n=71 v=64
163320 Off ch=1 n=75 v=64
163320 Off ch=1 n=72 v=64
164556 On ch=1 n=67 v=78
164584 On ch=1 n=69 v=78
164612 On ch=1 n=71 v=78
164628 Off ch=1 n=67 v=64
164640 On ch=1 n=72 v=78
164640 On ch=1 n=73 v=78
164656 Off ch=1 n=69 v=64
164684 Off ch=1 n=71 v=64
164760 Off ch=1 n=72 v=64
164760 Off ch=1 n=73 v=64
165036 On ch=1 n=67 v=78
165064 On ch=1 n=69 v=78
165092 On ch=1 n=71 v=78
165108 Off ch=1 n=67 v=64
165120 On ch=1 n=75 v=78
165120 On ch=1 n=72 v=78
165136 Off ch=1 n=69 v=64
165164 Off ch=1 n=71 v=64
165240 Off ch=1 n=75 v=64
165240 Off ch=1 n=72 v=64
196320 Par ch=1 c=0 v=0
196320 Par ch=1 c=32 v=2
196320 PrCh ch=1 p=98
206880 On ch=1 n=92 v=53
207360 On ch=1 n=94 v=53
207794 Off ch=1 n=92 v=64
207840 On ch=1 n=92 v=53
208274 Off ch=1 n=94 v=64
208320 On ch=1 n=94 v=53
208754 Off ch=1 n=92 v=64
208800 On ch=1 n=92 v=53
209234 Off ch=1 n=94 v=64
209280 On ch=1 n=94 v=53
209714 Off ch=1 n=92 v=64
209760 On ch=1 n=92 v=53
210194 Off ch=1 n=94 v=64
210240 On ch=1 n=94 v=53
210674 Off ch=1 n=92 v=64
210720 On ch=1 n=92 v=53
211154 Off ch=1 n=94 v=64
211200 On ch=1 n=94 v=53
211634 Off ch=1 n=92 v=64
211680 On ch=1 n=92 v=53
212114 Off ch=1 n=94 v=64
212160 On ch=1 n=94 v=53
212594 Off ch=1 n=92 v=64
212640 On ch=1 n=92 v=53
213074 Off ch=1 n=94 v=64
213120 On ch=1 n=94 v=53
213554 Off ch=1 n=92 v=64
213600 On ch=1 n=92 v=53
214034 Off ch=1 n=94 v=64
214080 On ch=1 n=94 v=53
214514 Off ch=1 n=92 v=64
214560 Off ch=1 n=94 v=64
227040 Par ch=1 c=0 v=0
227040 Par ch=1 c=32 v=1
227040 PrCh ch=1 p=48
230152 Par ch=1 c=7 v=90
230160 On ch=1 n=53 v=84
230173 Par ch=1 c=7 v=89
230194 Par ch=1 c=7 v=88
230215 Par ch=1 c=7 v=87
230236 Par ch=1 c=7 v=86
230258 Par ch=1 c=7 v=85
230279 Par ch=1 c=7 v=84
230300 Par ch=1 c=7 v=83
230321 Par ch=1 c=7 v=82
230342 Par ch=1 c=7 v=81
230364 Par ch=1 c=7 v=80
230385 Par ch=1 c=7 v=79
230406 Par ch=1 c=7 v=78
230427 Par ch=1 c=7 v=77
230448 Par ch=1 c=7 v=76
230456 Off ch=1 n=53 v=64
230470 Par ch=1 c=7 v=75
230491 Par ch=1 c=7 v=74
230512 Par ch=1 c=7 v=73
230533 Par ch=1 c=7 v=72
230554 Par ch=1 c=7 v=71
230575 Par ch=1 c=7 v=70
230592 Par ch=1 c=7 v=90
230640 On ch=1 n=51 v=84
230744 Par ch=1 c=7 v=90
230759 Par ch=1 c=7 v=89
230774 Par ch=1 c=7 v=88
230789 Par ch=1 c=7 v=87
230804 Par ch=1 c=7 v=86
230819 Par ch=1 c=7 v=85
230834 Par ch=1 c=7 v=84
230849 Par ch=1 c=7 v=83
230864 Par ch=1 c=7 v=82
230880 Par ch=1 c=7 v=81
230895 Par ch=1 c=7 v=80
230910 Par ch=1 c=7 v=79
230925 Par ch=1 c=7 v=78
230936 Off ch=1 n=51 v=64
230940 Par ch=1 c=7 v=77
230955 Par ch=1 c=7 v=76
230970 Par ch=1 c=7 v=75
230985 Par ch=1 c=7 v=74
231000 Par ch=1 c=7 v=73
231015 Par ch=1 c=7 v=72
231088 Par ch=1 c=7 v=90
231120 On ch=1 n=41 v=84
231240 Par ch=1 c=7 v=90
231254 Par ch=1 c=7 v=89
231269 Par ch=1 c=7 v=88
231284 Par ch=1 c=7 v=87
231298 Par ch=1 c=7 v=86
231313 Par ch=1 c=7 v=85
231328 Par ch=1 c=7 v=84
231342 Par ch=1 c=7 v=83
231357 Par ch=1 c=7 v=82
231372 Par ch=1 c=7 v=81
231386 Par ch=1 c=7 v=80
231401 Par ch=1 c=7 v=79
231416 Off ch=1 n=41 v=64
231416 Par ch=1 c=7 v=78
231430 Par ch=1 c=7 v=77
231445 Par ch=1 c=7 v=76
231460 Par ch=1 c=7 v=75
231474 Par ch=1 c=7 v=74
231489 Par ch=1 c=7 v=73
231503 Par ch=1 c=7 v=72
231576 Par ch=1 c=7 v=90
231600 On ch=1 n=43 v=84
231696 Par ch=1 c=7 v=90
231710 Par ch=1 c=7 v=89
231724 Par ch=1 c=7 v=88
231738 Par ch=1 c=7 v=87
231752 Par ch=1 c=7 v=86
231767 Par ch=1 c=7 v=85
231781 Par ch=1 c=7 v=84
231795 Par ch=1 c=7 v=83
231809 Par ch=1 c=7 v=82
231824 Par ch=1 c=7 v=81
231838 Par ch=1 c=7 v=80
231852 Par ch=1 c=7 v=79
231866 Par ch=1 c=7 v=78
231880 Par ch=1 c=7 v=77
231895 Par ch=1 c=7 v=76
231896 Off ch=1 n=43 v=64
231909 Par ch=1 c=7 v=75
231923 Par ch=1 c=7 v=74
231937 Par ch=1 c=7 v=73
231951 Par ch=1 c=7 v=72
232016 Par ch=1 c=7 v=90
232080 On ch=1 n=53 v=84
232120 Par ch=1 c=7 v=90
232136 Par ch=1 c=7 v=89
232152 Par ch=1 c=7 v=88
232168 Par ch=1 c=7 v=87
232184 Par ch=1 c=7 v=86
232200 Par ch=1 c=7 v=85
232216 Par ch=1 c=7 v=84
232232 Par ch=1 c=7 v=83
232248 Par ch=1 c=7 v=82
232264 Par ch=1 c=7 v=81
232280 Par ch=1 c=7 v=80
232296 Par ch=1 c=7 v=79
232312 Par ch=1 c=7 v=78
232328 Par ch=1 c=7 v=77
232344 Par ch=1 c=7 v=76
232360 Par ch=1 c=7 v=75
232376 Off ch=1 n=53 v=64
232376 Par ch=1 c=7 v=74
232392 Par ch=1 c=7 v=73
232407 Par ch=1 c=7 v=72
232504 Par ch=1 c=7 v=90
232560 On ch=1 n=51 v=84
232592 Par ch=1 c=7 v=88
232612 Par ch=1 c=7 v=87
232633 Par ch=1 c=7 v=86
232653 Par ch=1 c=7 v=85
232674 Par ch=1 c=7 v=84
232694 Par ch=1 c=7 v=83
232715 Par ch=1 c=7 v=82
232735 Par ch=1 c=7 v=81
232756 Par ch=1 c=7 v=80
232776 Par ch=1 c=7 v=79
232797 Par ch=1 c=7 v=78
232817 Par ch=1 c=7 v=77
232838 Par ch=1 c=7 v=76
232856 Off ch=1 n=51 v=64
232858 Par ch=1 c=7 v=75
232879 Par ch=1 c=7 v=74
232899 Par ch=1 c=7 v=73
232919 Par ch=1 c=7 v=72
232976 Par ch=1 c=7 v=90
233040 On ch=1 n=41 v=84
233064 Par ch=1 c=7 v=90
233080 Par ch=1 c=7 v=89
233097 Par ch=1 c=7 v=88
233114 Par ch=1 c=7 v=87
233131 Par ch=1 c=7 v=86
233148 Par ch=1 c=7 v=85
233165 Par ch=1 c=7 v=84
233182 Par ch=1 c=7 v=83
233199 Par ch=1 c=7 v=82
233216 Par ch=1 c=7 v=81
233232 Par ch=1 c=7 v=80
233249 Par ch=1 c=7 v=79
233266 Par ch=1 c=7 v=78
233283 Par ch=1 c=7 v=77
233300 Par ch=1 c=7 v=76
233317 Par ch=1 c=7 v=75
233334 Par ch=1 c=7 v=74
233336 Off ch=1 n=41 v=64
233351 Par ch=1 c=7 v=73
233367 Par ch=1 c=7 v=72
233424 Par ch=1 c=7 v=90
233520 On ch=1 n=43 v=84
233520 Par ch=1 c=7 v=88
233579 Par ch=1 c=7 v=85
233638 Par ch=1 c=7 v=82
233698 Par ch=1 c=7 v=80
233757 Par ch=1 c=7 v=77
233816 Off ch=1 n=43 v=64
233816 Par ch=1 c=7 v=74
233875 Par ch=1 c=7 v=72
233928 Par ch=1 c=7 v=90
233936 Par ch=1 c=7 v=90
234000 On ch=1 n=53 v=84
234000 On ch=1 n=41 v=84
234040 Par ch=1 c=7 v=90
234056 Par ch=1 c=7 v=89
234072 Par ch=1 c=7 v=88
234088 Par ch=1 c=7 v=87
234104 Par ch=1 c=7 v=86
234120 Par ch=1 c=7 v=85
234136 Par ch=1 c=7 v=84
234152 Par ch=1 c=7 v=83
234168 Par ch=1 c=7 v=82
234184 Par ch=1 c=7 v=81
234200 Par ch=1 c=7 v=80
234208 Off ch=1 n=41 v=64
234216 Par ch=1 c=7 v=79
234232 Par ch=1 c=7 v=78
234248 Par ch=1 c=7 v=77
234264 Par ch=1 c=7 v=76
234280 Par ch=1 c=7 v=75
234296 Off ch=1 n=53 v=64
234296 Par ch=1 c=7 v=74
234312 Par ch=1 c=7 v=73
234327 Par ch=1 c=7 v=72
234424 Par ch=1 c=7 v=90
234480 On ch=1 n=51 v=84
234480 On ch=1 n=39 v=84
234512 Par ch=1 c=7 v=88
234532 Par ch=1 c=7 v=87
234553 Par ch=1 c=7 v=86
234573 Par ch=1 c=7 v=85
234594 Par ch=1 c=7 v=84
234614 Par ch=1 c=7 v=83
234635 Par ch=1 c=7 v=82
234655 Par ch=1 c=7 v=81
234676 Par ch=1 c=7 v=80
234688 Off ch=1 n=39 v=64
234696 Par ch=1 c=7 v=79
234717 Par ch=1 c=7 v=78
234737 Par ch=1 c=7 v=77
234758 Par ch=1 c=7 v=76
234776 Off ch=1 n=51 v=64
234778 Par ch=1 c=7 v=75
234799 Par ch=1 c=7 v=74
234819 Par ch=1 c=7 v=73
234839 Par ch=1 c=7 v=72
234896 Par ch=1 c=7 v=90
234960 On ch=1 n=41 v=84
234960 On ch=1 n=29 v=84
234984 Par ch=1 c=7 v=90
235000 Par ch=1 c=7 v=89
235017 Par ch=1 c=7 v=88
235034 Par ch=1 c=7 v=87
235051 Par ch=1 c=7 v=86
235068 Par ch=1 c=7 v=85
235085 Par ch=1 c=7 v=84
235102 Par ch=1 c=7 v=83
235119 Par ch=1 c=7 v=82
235136 Par ch=1 c=7 v=81
235152 Par ch=1 c=7 v=80
235168 Off ch=1 n=29 v=64
235169 Par ch=1 c=7 v=79
235186 Par ch=1 c=7 v=78
235203 Par ch=1 c=7 v=77
235220 Par ch=1 c=7 v=76
235237 Par ch=1 c=7 v=75
235254 Par ch=1 c=7 v=74
235256 Off ch=1 n=41 v=64
235271 Par ch=1 c=7 v=73
235287 Par ch=1 c=7 v=72
235344 Par ch=1 c=7 v=90
235440 On ch=1 n=43 v=84
235440 Par ch=1 c=7 v=90
235440 On ch=1 n=31 v=84
235442 Par ch=1 c=7 v=90
235501 Par ch=1 c=7 v=87
235560 Par ch=1 c=7 v=84
235619 Par ch=1 c=7 v=81
235648 Off ch=1 n=31 v=64
235678 Par ch=1 c=7 v=78
235736 Off ch=1 n=43 v=64
235737 Par ch=1 c=7 v=75
235795 Par ch=1 c=7 v=72
235848 Par ch=1 c=7 v=90
235848 Par ch=1 c=7 v=90
235856 Par ch=1 c=7 v=90
235920 On ch=1 n=53 v=84
235920 Par ch=1 c=7 v=90
235920 On ch=1 n=41 v=84
235946 Par ch=1 c=7 v=89
235973 Par ch=1 c=7 v=88
236000 Par ch=1 c=7 v=87
236026 Par ch=1 c=7 v=86
236053 Par ch=1 c=7 v=85
236080 Par ch=1 c=7 v=84
236106 Par ch=1 c=7 v=83
236128 Off ch=1 n=41 v=64
236133 Par ch=1 c=7 v=82
236160 Par ch=1 c=7 v=81
236186 Par ch=1 c=7 v=80
236213 Par ch=1 c=7 v=79
236216 Off ch=1 n=53 v=64
236240 Par ch=1 c=7 v=78
236266 Par ch=1 c=7 v=77
236293 Par ch=1 c=7 v=76
236320 Par ch=1 c=7 v=75
236346 Par ch=1 c=7 v=74
236373 Par ch=1 c=7 v=73
236399 Par ch=1 c=7 v=72
236400 On ch=1 n=51 v=84
236400 On ch=1 n=39 v=84
236482 Par ch=1 c=7 v=90
236570 Par ch=1 c=7 v=88
236590 Par ch=1 c=7 v=87
236608 Off ch=1 n=39 v=64
236611 Par ch=1 c=7 v=86
236631 Par ch=1 c=7 v=85
236652 Par ch=1 c=7 v=84
236672 Par ch=1 c=7 v=83
236693 Par ch=1 c=7 v=82
236696 Off ch=1 n=51 v=64
236713 Par ch=1 c=7 v=81
236734 Par ch=1 c=7 v=80
236754 Par ch=1 c=7 v=79
236775 Par ch=1 c=7 v=78
236795 Par ch=1 c=7 v=77
236816 Par ch=1 c=7 v=76
236836 Par ch=1 c=7 v=75
236857 Par ch=1 c=7 v=74
236877 Par ch=1 c=7 v=73
236880 On ch=1 n=41 v=84
236880 On ch=1 n=29 v=84
236897 Par ch=1 c=7 v=72
236954 Par ch=1 c=7 v=90
237042 Par ch=1 c=7 v=90
237058 Par ch=1 c=7 v=89
237075 Par ch=1 c=7 v=88
237088 Off ch=1 n=29 v=64
237092 Par ch=1 c=7 v=87
237109 Par ch=1 c=7 v=86
237126 Par ch=1 c=7 v=85
237143 Par ch=1 c=7 v=84
237160 Par ch=1 c=7 v=83
237176 Off ch=1 n=41 v=64
237177 Par ch=1 c=7 v=82
237194 Par ch=1 c=7 v=81
237210 Par ch=1 c=7 v=80
237227 Par ch=1 c=7 v=79
237244 Par ch=1 c=7 v=78
237261 Par ch=1 c=7 v=77
237278 Par ch=1 c=7 v=76
237295 Par ch=1 c=7 v=75
237312 Par ch=1 c=7 v=74
237329 Par ch=1 c=7 v=73
237345 Par ch=1 c=7 v=72
237360 On ch=1 n=43 v=84
237360 On ch=1 n=31 v=84
237402 Par ch=1 c=7 v=90
237496 Par ch=1 c=7 v=90
237555 Par ch=1 c=7 v=87
237568 Off ch=1 n=31 v=64
237614 Par ch=1 c=7 v=84
237656 Off ch=1 n=43 v=64
237674 Par ch=1 c=7 v=81
237733 Par ch=1 c=7 v=78
237792 Par ch=1 c=7 v=75
237840 On ch=1 n=53 v=84
237840 On ch=1 n=41 v=84
237851 Par ch=1 c=7 v=72
237906 Par ch=1 c=7 v=90
237906 Par ch=1 c=7 v=90
237914 Par ch=1 c=7 v=90
238004 Off ch=1 n=41 v=64
238018 Par ch=1 c=7 v=90
238034 Par ch=1 c=7 v=89
238050 Par ch=1 c=7 v=88
238066 Par ch=1 c=7 v=87
238082 Par ch=1 c=7 v=86
238098 Par ch=1 c=7 v=85
238114 Par ch=1 c=7 v=84
238130 Par ch=1 c=7 v=83
238136 Off ch=1 n=53 v=64
238146 Par ch=1 c=7 v=82
238162 Par ch=1 c=7 v=81
238178 Par ch=1 c=7 v=80
238194 Par ch=1 c=7 v=79
238210 Par ch=1 c=7 v=78
238226 Par ch=1 c=7 v=77
238242 Par ch=1 c=7 v=76
238258 Par ch=1 c=7 v=75
238274 Par ch=1 c=7 v=74
238290 Par ch=1 c=7 v=73
238305 Par ch=1 c=7 v=72
238320 On ch=1 n=51 v=84
238320 On ch=1 n=39 v=84
238402 Par ch=1 c=7 v=90
238484 Off ch=1 n=39 v=64
238490 Par ch=1 c=7 v=88
238510 Par ch=1 c=7 v=87
238531 Par ch=1 c=7 v=86
238551 Par ch=1 c=7 v=85
238572 Par ch=1 c=7 v=84
238592 Par ch=1 c=7 v=83
238613 Par ch=1 c=7 v=82
238616 Off ch=1 n=51 v=64
238633 Par ch=1 c=7 v=81
238654 Par ch=1 c=7 v=80
238674 Par ch=1 c=7 v=79
238695 Par ch=1 c=7 v=78
238715 Par ch=1 c=7 v=77
238736 Par ch=1 c=7 v=76
238756 Par ch=1 c=7 v=75
238777 Par ch=1 c=7 v=74
238797 Par ch=1 c=7 v=73
238800 On ch=1 n=41 v=84
238800 On ch=1 n=29 v=84
238817 Par ch=1 c=7 v=72
238874 Par ch=1 c=7 v=90
238962 Par ch=1 c=7 v=90
238964 Off ch=1 n=29 v=64
238978 Par ch=1 c=7 v=89
238995 Par ch=1 c=7 v=88
239012 Par ch=1 c=7 v=87
239029 Par ch=1 c=7 v=86
239046 Par ch=1 c=7 v=85
239063 Par ch=1 c=7 v=84
239080 Par ch=1 c=7 v=83
239096 Off ch=1 n=41 v=64
239097 Par ch=1 c=7 v=82
239114 Par ch=1 c=7 v=81
239130 Par ch=1 c=7 v=80
239147 Par ch=1 c=7 v=79
239164 Par ch=1 c=7 v=78
239181 Par ch=1 c=7 v=77
239198 Par ch=1 c=7 v=76
239215 Par ch=1 c=7 v=75
239232 Par ch=1 c=7 v=74
239249 Par ch=1 c=7 v=73
239265 Par ch=1 c=7 v=72
239280 On ch=1 n=43 v=84
239280 On ch=1 n=31 v=84
239322 Par ch=1 c=7 v=90
239416 Par ch=1 c=7 v=90
239444 Off ch=1 n=31 v=64
239478 Par ch=1 c=7 v=87
239540 Par ch=1 c=7 v=84
239576 Off ch=1 n=43 v=64
239603 Par ch=1 c=7 v=81
239665 Par ch=1 c=7 v=78
239727 Par ch=1 c=7 v=75
239760 On ch=1 n=53 v=84
239760 On ch=1 n=41 v=84
239789 Par ch=1 c=7 v=72
239826 Par ch=1 c=7 v=90
239826 Par ch=1 c=7 v=90
239834 Par ch=1 c=7 v=90
239924 Off ch=1 n=41 v=64
239938 Par ch=1 c=7 v=90
239954 Par ch=1 c=7 v=89
239970 Par ch=1 c=7 v=88
239986 Par ch=1 c=7 v=87
240002 Par ch=1 c=7 v=86
240018 Par ch=1 c=7 v=85
240034 Par ch=1 c=7 v=84
240050 Par ch=1 c=7 v=83
240056 Off ch=1 n=53 v=64
240066 Par ch=1 c=7 v=82
240082 Par ch=1 c=7 v=81
240098 Par ch=1 c=7 v=80
240114 Par ch=1 c=7 v=79
240130 Par ch=1 c=7 v=78
240146 Par ch=1 c=7 v=77
240162 Par ch=1 c=7 v=76
240178 Par ch=1 c=7 v=75
240194 Par ch=1 c=7 v=74
240210 Par ch=1 c=7 v=73
240225 Par ch=1 c=7 v=72
240240 On ch=1 n=51 v=84
240240 On ch=1 n=39 v=84
240322 Par ch=1 c=7 v=90
240404 Off ch=1 n=39 v=64
240410 Par ch=1 c=7 v=88
240430 Par ch=1 c=7 v=87
240451 Par ch=1 c=7 v=86
240471 Par ch=1 c=7 v=85
240492 Par ch=1 c=7 v=84
240512 Par ch=1 c=7 v=83
240533 Par ch=1 c=7 v=82
240536 Off ch=1 n=51 v=64
240553 Par ch=1 c=7 v=81
240574 Par ch=1 c=7 v=80
240594 Par ch=1 c=7 v=79
240615 Par ch=1 c=7 v=78
240635 Par ch=1 c=7 v=77
240656 Par ch=1 c=7 v=76
240676 Par ch=1 c=7 v=75
240697 Par ch=1 c=7 v=74
240717 Par ch=1 c=7 v=73
240720 On ch=1 n=41 v=84
240720 On ch=1 n=29 v=84
240737 Par ch=1 c=7 v=72
240794 Par ch=1 c=7 v=90
240882 Par ch=1 c=7 v=90
240884 Off ch=1 n=29 v=64
240898 Par ch=1 c=7 v=89
240915 Par ch=1 c=7 v=88
240932 Par ch=1 c=7 v=87
240949 Par ch=1 c=7 v=86
240966 Par ch=1 c=7 v=85
240983 Par ch=1 c=7 v=84
241000 Par ch=1 c=7 v=83
241016 Off ch=1 n=41 v=64
241017 Par ch=1 c=7 v=82
241034 Par ch=1 c=7 v=81
241050 Par ch=1 c=7 v=80
241067 Par ch=1 c=7 v=79
241084 Par ch=1 c=7 v=78
241101 Par ch=1 c=7 v=77
241118 Par ch=1 c=7 v=76
241135 Par ch=1 c=7 v=75
241152 Par ch=1 c=7 v=74
241169 Par ch=1 c=7 v=73
241185 Par ch=1 c=7 v=72
241200 On ch=1 n=43 v=84
241200 On ch=1 n=31 v=84
241242 Par ch=1 c=7 v=90
241338 Par ch=1 c=7 v=90
241354 Par ch=1 c=7 v=89
241364 Off ch=1 n=31 v=64
241371 Par ch=1 c=7 v=88
241388 Par ch=1 c=7 v=87
241405 Par ch=1 c=7 v=86
241422 Par ch=1 c=7 v=85
241438 Par ch=1 c=7 v=84
241455 Par ch=1 c=7 v=83
241472 Par ch=1 c=7 v=82
241489 Par ch=1 c=7 v=81
241496 Off ch=1 n=43 v=64
241506 Par ch=1 c=7 v=80
241522 Par ch=1 c=7 v=79
241539 Par ch=1 c=7 v=78
241556 Par ch=1 c=7 v=77
241573 Par ch=1 c=7 v=76
241590 Par ch=1 c=7 v=75
241606 Par ch=1 c=7 v=74
241623 Par ch=1 c=7 v=73
241640 Par ch=1 c=7 v=72
241657 Par ch=1 c=7 v=71
241673 Par ch=1 c=7 v=70
241680 On ch=1 n=53 v=92
241680 On ch=1 n=41 v=92
241746 Par ch=1 c=7 v=90
241800 Off ch=1 n=53 v=64
241920 Off ch=1 n=41 v=64
241920 On ch=1 n=41 v=92
242040 Off ch=1 n=41 v=64
242040 On ch=1 n=53 v=92
242040 On ch=1 n=41 v=92
242160 Off ch=1 n=53 v=64
242160 Off ch=1 n=41 v=64
242160 On ch=1 n=51 v=92
242160 On ch=1 n=39 v=92
242280 Off ch=1 n=39 v=64
242280 On ch=1 n=39 v=92
242400 Off ch=1 n=39 v=64
242400 On ch=1 n=39 v=92
242520 Off ch=1 n=51 v=64
242520 Off ch=1 n=39 v=64
242520 On ch=1 n=39 v=92
242640 Off ch=1 n=39 v=64
242640 On ch=1 n=29 v=92
242640 On ch=1 n=41 v=92
242760 Off ch=1 n=29 v=64
242880 Off ch=1 n=41 v=64
242880 On ch=1 n=41 v=92
243000 Off ch=1 n=41 v=64
243000 On ch=1 n=41 v=92
243000 On ch=1 n=29 v=92
243120 Off ch=1 n=41 v=64
243120 Off ch=1 n=29 v=64
243120 On ch=1 n=31 v=92
243120 On ch=1 n=43 v=92
243240 Off ch=1 n=43 v=64
243240 On ch=1 n=43 v=92
243360 Off ch=1 n=43 v=64
243360 On ch=1 n=43 v=92
243480 Off ch=1 n=31 v=64
243480 Off ch=1 n=43 v=64
243480 On ch=1 n=43 v=92
243600 Off ch=1 n=43 v=64
243600 On ch=1 n=53 v=92
243600 On ch=1 n=41 v=92
243720 Off ch=1 n=53 v=64
243840 Off ch=1 n=41 v=64
243840 On ch=1 n=41 v=92
243960 Off ch=1 n=41 v=64
243960 On ch=1 n=53 v=92
243960 On ch=1 n=41 v=92
244080 Off ch=1 n=53 v=64
244080 Off ch=1 n=41 v=64
244080 On ch=1 n=39 v=92
244080 On ch=1 n=51 v=92
244200 Off ch=1 n=39 v=64
244200 On ch=1 n=39 v=92
244320 Off ch=1 n=39 v=64
244320 On ch=1 n=39 v=92
244440 Off ch=1 n=51 v=64
244560 Off ch=1 n=39 v=64
244560 On ch=1 n=29 v=92
244764 Off ch=1 n=29 v=64
245040 On ch=1 n=31 v=92
245244 Off ch=1 n=31 v=64
245520 On ch=1 n=53 v=92
245520 On ch=1 n=41 v=92
245640 Off ch=1 n=53 v=64
245760 Off ch=1 n=41 v=64
245760 On ch=1 n=41 v=92
245880 Off ch=1 n=41 v=64
245880 On ch=1 n=53 v=92
245880 On ch=1 n=41 v=92
246000 Off ch=1 n=53 v=64
246000 Off ch=1 n=41 v=64
246000 On ch=1 n=51 v=92
246000 On ch=1 n=39 v=92
246120 Off ch=1 n=39 v=64
246120 On ch=1 n=39 v=92
246240 Off ch=1 n=39 v=64
246240 On ch=1 n=39 v=92
246360 Off ch=1 n=51 v=64
246360 Off ch=1 n=39 v=64
246360 On ch=1 n=39 v=92
246480 Off ch=1 n=39 v=64
246480 On ch=1 n=29 v=92
246480 On ch=1 n=41 v=92
246600 Off ch=1 n=29 v=64
246720 Off ch=1 n=41 v=64
246720 On ch=1 n=41 v=92
246840 Off ch=1 n=41 v=64
246840 On ch=1 n=41 v=92
246840 On ch=1 n=29 v=92
246960 Off ch=1 n=41 v=64
246960 Off ch=1 n=29 v=64
246960 On ch=1 n=31 v=92
246960 On ch=1 n=43 v=92
247080 Off ch=1 n=43 v=64
247080 On ch=1 n=43 v=92
247200 Off ch=1 n=43 v=64
247200 On ch=1 n=43 v=92
247320 Off ch=1 n=31 v=64
247320 Off ch=1 n=43 v=64
247320 On ch=1 n=43 v=92
247440 Off ch=1 n=43 v=64
247440 On ch=1 n=53 v=92
247440 On ch=1 n=41 v=92
247560 Off ch=1 n=53 v=64
247680 Off ch=1 n=41 v=64
247680 On ch=1 n=41 v=92
247800 Off ch=1 n=41 v=64
247800 On ch=1 n=53 v=92
247800 On ch=1 n=41 v=92
247920 Off ch=1 n=53 v=64
247920 Off ch=1 n=41 v=64
247920 On ch=1 n=39 v=92
247920 On ch=1 n=51 v=92
248040 Off ch=1 n=39 v=64
248040 On ch=1 n=39 v=92
248160 Off ch=1 n=39 v=64
248160 On ch=1 n=39 v=92
248280 Off ch=1 n=51 v=64
248400 Off ch=1 n=39 v=64
248400 On ch=1 n=29 v=92
248604 Off ch=1 n=29 v=64
248880 On ch=1 n=31 v=92
249084 Off ch=1 n=31 v=64
249360 On ch=1 n=53 v=92
249360 On ch=1 n=41 v=92
249480 Off ch=1 n=53 v=64
249600 Off ch=1 n=41 v=64
249600 On ch=1 n=41 v=92
249720 Off ch=1 n=41 v=64
249720 On ch=1 n=53 v=92
249720 On ch=1 n=41 v=92
249840 Off ch=1 n=53 v=64
249840 Off ch=1 n=41 v=64
249840 On ch=1 n=51 v=92
249840 On ch=1 n=39 v=92
249960 Off ch=1 n=39 v=64
249960 On ch=1 n=39 v=92
250080 Off ch=1 n=39 v=64
250080 On ch=1 n=39 v=92
250200 Off ch=1 n=51 v=64
250200 Off ch=1 n=39 v=64
250200 On ch=1 n=39 v=92
250320 Off ch=1 n=39 v=64
250320 On ch=1 n=29 v=92
250320 On ch=1 n=41 v=92
250440 Off ch=1 n=29 v=64
250560 Off ch=1 n=41 v=64
250560 On ch=1 n=41 v=92
250680 Off ch=1 n=41 v=64
250680 On ch=1 n=41 v=92
250680 On ch=1 n=29 v=92
250800 Off ch=1 n=41 v=64
250800 Off ch=1 n=29 v=64
250800 On ch=1 n=31 v=92
250800 On ch=1 n=43 v=92
250920 Off ch=1 n=43 v=64
250920 On ch=1 n=43 v=92
251040 Off ch=1 n=43 v=64
251040 On ch=1 n=43 v=92
251160 Off ch=1 n=31 v=64
251160 Off ch=1 n=43 v=64
251160 On ch=1 n=43 v=92
251280 Off ch=1 n=43 v=64
251280 On ch=1 n=53 v=92
251280 On ch=1 n=41 v=92
251400 Off ch=1 n=53 v=64
251520 Off ch=1 n=41 v=64
251520 On ch=1 n=41 v=92
251640 Off ch=1 n=41 v=64
251640 On ch=1 n=53 v=92
251640 On ch=1 n=41 v=92
251760 Off ch=1 n=53 v=64
251760 Off ch=1 n=41 v=64
251760 On ch=1 n=39 v=92
251760 On ch=1 n=51 v=92
251880 Off ch=1 n=39 v=64
251880 On ch=1 n=39 v=92
252000 Off ch=1 n=39 v=64
252000 On ch=1 n=39 v=92
252120 Off ch=1 n=51 v=64
252240 Off ch=1 n=39 v=64
252240 On ch=1 n=29 v=92
252444 Off ch=1 n=29 v=64
252720 On ch=1 n=31 v=92
252924 Off ch=1 n=31 v=64
252960 On ch=1 n=36 v=94
252960 On ch=1 n=55 v=94
252960 On ch=1 n=48 v=94
253080 Off ch=1 n=36 v=64
253080 Off ch=1 n=55 v=64
253080 Off ch=1 n=48 v=64
254154 Par ch=1 c=0 v=8
254154 Par ch=1 c=32 v=2
254154 PrCh ch=1 p=116
254253 Par ch=1 c=7 v=122
254291 Par ch=1 c=7 v=122
255480 On ch=1 n=30 v=127
255840 Off ch=1 n=30 v=64
256920 On ch=1 n=30 v=127
257280 Off ch=1 n=30 v=64
257640 On ch=1 n=30 v=127
258000 Off ch=1 n=30 v=64
261600 Par ch=1 c=0 v=0
261600 Par ch=1 c=32 v=2
261600 PrCh ch=1 p=47
265560 On ch=1 n=48 v=78
265920 Off ch=1 n=48 v=64
266280 On ch=1 n=59 v=78
266640 Off ch=1 n=59 v=64
266640 On ch=1 n=48 v=78
267000 Off ch=1 n=48 v=64
267720 On ch=1 n=59 v=78
268080 Off ch=1 n=59 v=64
268440 On ch=1 n=48 v=78
268800 Off ch=1 n=48 v=64
269160 On ch=1 n=59 v=78
269520 Off ch=1 n=59 v=64
269520 On ch=1 n=48 v=78
269880 Off ch=1 n=48 v=64
287880 On ch=1 n=48 v=78
288240 Off ch=1 n=48 v=64
288600 On ch=1 n=59 v=78
288960 Off ch=1 n=59 v=64
288960 On ch=1 n=48 v=78
289320 Off ch=1 n=48 v=64
290040 On ch=1 n=59 v=78
290400 Off ch=1 n=59 v=64
290760 On ch=1 n=48 v=78
291120 Off ch=1 n=48 v=64
291480 On ch=1 n=59 v=78
291840 Off ch=1 n=59 v=64
291840 On ch=1 n=48 v=78
292200 Off ch=1 n=48 v=64
325440 Par ch=1 c=0 v=8
325440 Par ch=1 c=32 v=2
325440 PrCh ch=1 p=116
327693 Par ch=1 c=7 v=127
327725 Par ch=1 c=7 v=127
331200 On ch=1 n=36 v=127
331440 Off ch=1 n=36 v=64
354720 On ch=1 n=29 v=106
354960 Off ch=1 n=29 v=64
416640 On ch=1 n=39 v=34
417120 Off ch=1 n=39 v=64
418560 On ch=1 n=39 v=34
419040 Off ch=1 n=39 v=64
420480 On ch=1 n=39 v=34
420960 Off ch=1 n=39 v=64
422400 On ch=1 n=39 v=26
422880 Off ch=1 n=39 v=64
424320 On ch=1 n=39 v=34
424800 Off ch=1 n=39 v=64
426240 On ch=1 n=39 v=34
426720 Off ch=1 n=39 v=64
428160 On ch=1 n=39 v=26
428640 Off ch=1 n=39 v=64
431520 On ch=1 n=39 v=34
432000 Off ch=1 n=39 v=64
433440 On ch=1 n=39 v=34
433920 Off ch=1 n=39 v=64
435360 On ch=1 n=39 v=34
435840 Off ch=1 n=39 v=64
437280 On ch=1 n=39 v=34
437760 Off ch=1 n=39 v=64
439200 On ch=1 n=39 v=34
439680 Off ch=1 n=39 v=64
441120 On ch=1 n=39 v=34
441600 Off ch=1 n=39 v=64
443040 On ch=1 n=39 v=34
443520 Off ch=1 n=39 v=64
444960 On ch=1 n=39 v=34
445440 Off ch=1 n=39 v=64
446880 On ch=1 n=39 v=34
447360 Off ch=1 n=39 v=64
448800 On ch=1 n=39 v=34
449280 Off ch=1 n=39 v=64
450720 On ch=1 n=39 v=34
451200 Off ch=1 n=39 v=64
453600 On ch=1 n=39 v=34
454080 Off ch=1 n=39 v=64
455520 On ch=1 n=39 v=34
456000 Off ch=1 n=39 v=64
457440 On ch=1 n=39 v=26
457920 Off ch=1 n=39 v=64
459360 On ch=1 n=39 v=34
459840 Off ch=1 n=39 v=64
461280 On ch=1 n=39 v=26
461760 Off ch=1 n=39 v=64
524160 Meta TrkEnd
TrkEnd
MTrk
0 Meta InstrName "SC-88VL"
0 Meta TrkName "Tpt"
500 Par ch=2 c=0 v=0
500 Par ch=2 c=32 v=1
500 PrCh ch=2 p=56
960 Par ch=2 c=93 v=0
960 Par ch=2 c=91 v=110
970 Par ch=2 c=7 v=100
67200 On ch=2 n=82 v=86
67316 Off ch=2 n=82 v=64
67440 On ch=2 n=77 v=86
67726 Off ch=2 n=77 v=64
67776 On ch=2 n=70 v=86
67826 Off ch=2 n=70 v=64
67872 On ch=2 n=75 v=86
67922 Off ch=2 n=75 v=64
67968 On ch=2 n=80 v=86
68018 Off ch=2 n=80 v=64
68064 On ch=2 n=82 v=86
68114 Off ch=2 n=82 v=64
68160 On ch=2 n=77 v=86
68246 Off ch=2 n=77 v=64
68640 On ch=2 n=82 v=98
68920 On ch=2 n=80 v=85
68926 Off ch=2 n=82 v=64
68960 Off ch=2 n=80 v=64
68960 On ch=2 n=82 v=82
69000 Off ch=2 n=82 v=64
69000 On ch=2 n=80 v=80
69040 Off ch=2 n=80 v=64
69040 On ch=2 n=82 v=77
69080 Off ch=2 n=82 v=64
69080 On ch=2 n=80 v=74
69120 Off ch=2 n=80 v=64
69120 On ch=2 n=82 v=86
69676 Off ch=2 n=82 v=64
70560 On ch=2 n=70 v=86
70620 Off ch=2 n=70 v=64
70656 On ch=2 n=75 v=86
70706 Off ch=2 n=75 v=64
70752 On ch=2 n=80 v=86
70802 Off ch=2 n=80 v=64
70848 On ch=2 n=82 v=86
70898 Off ch=2 n=82 v=64
70944 On ch=2 n=77 v=86
70994 Off ch=2 n=77 v=64
71040 On ch=2 n=82 v=86
71156 Off ch=2 n=82 v=64
71280 On ch=2 n=77 v=86
71566 Off ch=2 n=77 v=64
71616 On ch=2 n=70 v=86
71666 Off ch=2 n=70 v=64
71712 On ch=2 n=75 v=86
71762 Off ch=2 n=75 v=64
71808 On ch=2 n=80 v=86
71858 Off ch=2 n=80 v=64
71904 On ch=2 n=82 v=86
71954 Off ch=2 n=82 v=64
72000 On ch=2 n=77 v=86
72086 Off ch=2 n=77 v=64
72480 On ch=2 n=82 v=98
72760 On ch=2 n=80 v=85
72766 Off ch=2 n=82 v=64
72800 Off ch=2 n=80 v=64
72800 On ch=2 n=82 v=82
72840 Off ch=2 n=82 v=64
72840 On ch=2 n=80 v=80
72880 Off ch=2 n=80 v=64
72880 On ch=2 n=82 v=77
72920 Off ch=2 n=82 v=64
72920 On ch=2 n=80 v=74
72960 Off ch=2 n=80 v=64
72960 On ch=2 n=82 v=86
73012 Off ch=2 n=82 v=64
80640 Par ch=2 c=0 v=0
80640 Par ch=2 c=32 v=1
80640 PrCh ch=2 p=59
84480 On ch=2 n=63 v=44
84480 On ch=2 n=67 v=44
86880 Off ch=2 n=63 v=64
86880 Off ch=2 n=67 v=64
89040 On ch=2 n=33 v=84
89040 On ch=2 n=40 v=84
89040 On ch=2 n=45 v=84
89040 On ch=2 n=37 v=84
89040 On ch=2 n=58 v=81
89040 On ch=2 n=55 v=81
89151 Off ch=2 n=33 v=64
89151 Off ch=2 n=40 v=64
89151 Off ch=2 n=45 v=64
89151 Off ch=2 n=37 v=64
89151 Off ch=2 n=58 v=64
89151 Off ch=2 n=55 v=64
89520 On ch=2 n=40 v=84
89520 On ch=2 n=33 v=84
89520 On ch=2 n=45 v=84
89520 On ch=2 n=37 v=84
89520 On ch=2 n=58 v=81
89520 On ch=2 n=55 v=81
89631 Off ch=2 n=40 v=64
89631 Off ch=2 n=33 v=64
89631 Off ch=2 n=45 v=64
89631 Off ch=2 n=37 v=64
89631 Off ch=2 n=58 v=64
89631 Off ch=2 n=55 v=64
90960 On ch=2 n=40 v=84
90960 On ch=2 n=33 v=84
90960 On ch=2 n=37 v=84
90960 On ch=2 n=45 v=84
90960 On ch=2 n=58 v=81
90960 On ch=2 n=55 v=81
91071 Off ch=2 n=40 v=64
91071 Off ch=2 n=33 v=64
91071 Off ch=2 n=37 v=64
91071 Off ch=2 n=45 v=64
91071 Off ch=2 n=58 v=64
91071 Off ch=2 n=55 v=64
91680 On ch=2 n=33 v=84
91680 On ch=2 n=40 v=84
91680 On ch=2 n=45 v=84
91680 On ch=2 n=37 v=84
91680 On ch=2 n=58 v=81
91680 On ch=2 n=55 v=81
91791 Off ch=2 n=33 v=64
91791 Off ch=2 n=40 v=64
91791 Off ch=2 n=45 v=64
91791 Off ch=2 n=37 v=64
91791 Off ch=2 n=58 v=64
91791 Off ch=2 n=55 v=64
92640 On ch=2 n=33 v=84
92640 On ch=2 n=40 v=84
92640 On ch=2 n=37 v=84
92640 On ch=2 n=45 v=84
92640 On ch=2 n=58 v=81
92640 On ch=2 n=55 v=81
92751 Off ch=2 n=33 v=64
92751 Off ch=2 n=40 v=64
92751 Off ch=2 n=37 v=64
92751 Off ch=2 n=45 v=64
92751 Off ch=2 n=58 v=64
92751 Off ch=2 n=55 v=64
93840 On ch=2 n=33 v=84
93840 On ch=2 n=40 v=84
93840 On ch=2 n=37 v=84
93840 On ch=2 n=45 v=84
93840 On ch=2 n=58 v=81
93840 On ch=2 n=55 v=81
93951 Off ch=2 n=33 v=64
93951 Off ch=2 n=40 v=64
93951 Off ch=2 n=37 v=64
93951 Off ch=2 n=45 v=64
93951 Off ch=2 n=58 v=64
93951 Off ch=2 n=55 v=64
99600 On ch=2 n=33 v=84
99600 On ch=2 n=40 v=84
99600 On ch=2 n=45 v=84
99600 On ch=2 n=37 v=84
99600 On ch=2 n=58 v=81
99600 On ch=2 n=55 v=81
99711 Off ch=2 n=33 v=64
99711 Off ch=2 n=40 v=64
99711 Off ch=2 n=45 v=64
99711 Off ch=2 n=37 v=64
99711 Off ch=2 n=58 v=64
99711 Off ch=2 n=55 v=64
100080 On ch=2 n=40 v=84
100080 On ch=2 n=33 v=84
100080 On ch=2 n=45 v=84
100080 On ch=2 n=37 v=84
100080 On ch=2 n=58 v=81
100080 On ch=2 n=55 v=81
100191 Off ch=2 n=40 v=64
100191 Off ch=2 n=33 v=64
100191 Off ch=2 n=45 v=64
100191 Off ch=2 n=37 v=64
100191 Off ch=2 n=58 v=64
100191 Off ch=2 n=55 v=64
101520 On ch=2 n=40 v=84
101520 On ch=2 n=33 v=84
101520 On ch=2 n=37 v=84
101520 On ch=2 n=45 v=84
101520 On ch=2 n=58 v=81
101520 On ch=2 n=55 v=81
101631 Off ch=2 n=40 v=64
101631 Off ch=2 n=33 v=64
101631 Off ch=2 n=37 v=64
101631 Off ch=2 n=45 v=64
101631 Off ch=2 n=58 v=64
101631 Off ch=2 n=55 v=64
103200 On ch=2 n=70 v=90
103297 Off ch=2 n=70 v=64
103360 On ch=2 n=70 v=84
103429 Off ch=2 n=70 v=64
103520 On ch=2 n=70 v=84
103589 Off ch=2 n=70 v=64
103680 On ch=2 n=70 v=92
104320 On ch=2 n=69 v=87
104343 Off ch=2 n=70 v=64
104396 Off ch=2 n=69 v=64
104480 On ch=2 n=68 v=84
104556 Off ch=2 n=68 v=64
104640 On ch=2 n=67 v=84
104712 Off ch=2 n=67 v=64
104880 On ch=2 n=66 v=84
104952 Off ch=2 n=66 v=64
107040 On ch=2 n=64 v=84
107130 Off ch=2 n=64 v=64
107200 On ch=2 n=64 v=76
107283 Off ch=2 n=64 v=64
107360 On ch=2 n=64 v=76
107443 Off ch=2 n=64 v=64
107520 On ch=2 n=64 v=82
107923 Off ch=2 n=64 v=64
110910 Par ch=2 c=7 v=64
111120 On ch=2 n=86 v=126
111120 On ch=2 n=79 v=121
111120 On ch=2 n=65 v=106
111120 On ch=2 n=72 v=121
111120 On ch=2 n=58 v=101
111525 Off ch=2 n=86 v=64
111525 Off ch=2 n=79 v=64
111525 Off ch=2 n=65 v=64
111525 Off ch=2 n=72 v=64
111525 Off ch=2 n=58 v=64
111600 On ch=2 n=86 v=120
111600 On ch=2 n=79 v=115
111600 On ch=2 n=65 v=100
111600 On ch=2 n=72 v=115
111600 On ch=2 n=58 v=95
111645 Off ch=2 n=86 v=64
111645 Off ch=2 n=79 v=64
111645 Off ch=2 n=65 v=64
111645 Off ch=2 n=72 v=64
111645 Off ch=2 n=58 v=64
111680 On ch=2 n=86 v=120
111680 On ch=2 n=79 v=115
111680 On ch=2 n=65 v=100
111680 On ch=2 n=72 v=115
111680 On ch=2 n=58 v=95
111725 Off ch=2 n=86 v=64
111725 Off ch=2 n=79 v=64
111725 Off ch=2 n=65 v=64
111725 Off ch=2 n=72 v=64
111725 Off ch=2 n=58 v=64
111760 On ch=2 n=86 v=120
111760 On ch=2 n=79 v=115
111760 On ch=2 n=65 v=100
111760 On ch=2 n=72 v=115
111760 On ch=2 n=58 v=95
111805 Off ch=2 n=86 v=64
111805 Off ch=2 n=79 v=64
111805 Off ch=2 n=65 v=64
111805 Off ch=2 n=72 v=64
111805 Off ch=2 n=58 v=64
113280 On ch=2 n=86 v=126
113280 On ch=2 n=79 v=121
113280 On ch=2 n=65 v=106
113280 On ch=2 n=72 v=121
113280 On ch=2 n=58 v=101
113325 Off ch=2 n=86 v=64
113325 Off ch=2 n=79 v=64
113325 Off ch=2 n=65 v=64
113325 Off ch=2 n=72 v=64
113325 Off ch=2 n=58 v=64
113360 On ch=2 n=86 v=126
113360 On ch=2 n=79 v=121
113360 On ch=2 n=65 v=106
113360 On ch=2 n=72 v=121
113360 On ch=2 n=58 v=101
113405 Off ch=2 n=86 v=64
113405 Off ch=2 n=79 v=64
113405 Off ch=2 n=65 v=64
113405 Off ch=2 n=72 v=64
113405 Off ch=2 n=58 v=64
113440 On ch=2 n=86 v=126
113440 On ch=2 n=79 v=121
113440 On ch=2 n=65 v=106
113440 On ch=2 n=72 v=121
113440 On ch=2 n=58 v=101
113485 Off ch=2 n=86 v=64
113485 Off ch=2 n=79 v=64
113485 Off ch=2 n=65 v=64
113485 Off ch=2 n=72 v=64
113485 Off ch=2 n=58 v=64
114000 On ch=2 n=86 v=126
114000 On ch=2 n=79 v=121
114000 On ch=2 n=65 v=106
114000 On ch=2 n=72 v=121
114000 On ch=2 n=58 v=101
114410 Off ch=2 n=86 v=64
114410 Off ch=2 n=79 v=64
114410 Off ch=2 n=65 v=64
114410 Off ch=2 n=72 v=64
114410 Off ch=2 n=58 v=64
114480 On ch=2 n=86 v=120
114480 On ch=2 n=79 v=115
114480 On ch=2 n=65 v=100
114480 On ch=2 n=72 v=115
114480 On ch=2 n=58 v=95
114525 Off ch=2 n=86 v=64
114525 Off ch=2 n=79 v=64
114525 Off ch=2 n=65 v=64
114525 Off ch=2 n=72 v=64
114525 Off ch=2 n=58 v=64
114560 On ch=2 n=86 v=120
114560 On ch=2 n=79 v=115
114560 On ch=2 n=65 v=100
114560 On ch=2 n=72 v=115
114560 On ch=2 n=58 v=95
114605 Off ch=2 n=86 v=64
114605 Off ch=2 n=79 v=64
114605 Off ch=2 n=65 v=64
114605 Off ch=2 n=72 v=64
114605 Off ch=2 n=58 v=64
114640 On ch=2 n=86 v=120
114640 On ch=2 n=79 v=115
114640 On ch=2 n=65 v=100
114640 On ch=2 n=72 v=115
114640 On ch=2 n=58 v=95
114685 Off ch=2 n=86 v=64
114685 Off ch=2 n=79 v=64
114685 Off ch=2 n=65 v=64
114685 Off ch=2 n=72 v=64
114685 Off ch=2 n=58 v=64
118240 On ch=2 n=72 v=88
118340 Off ch=2 n=72 v=64
118400 On ch=2 n=77 v=94
118400 On ch=2 n=72 v=94
118500 Off ch=2 n=77 v=64
118500 Off ch=2 n=72 v=64
118800 On ch=2 n=82 v=107
118800 On ch=2 n=67 v=107
118800 On ch=2 n=77 v=107
118800 On ch=2 n=72 v=107
118950 Off ch=2 n=82 v=64
118950 Off ch=2 n=67 v=64
118950 Off ch=2 n=77 v=64
118950 Off ch=2 n=72 v=64
119360 On ch=2 n=87 v=127
119360 On ch=2 n=77 v=127
119360 On ch=2 n=72 v=127
119360 On ch=2 n=67 v=127
119360 On ch=2 n=82 v=127
119515 Off ch=2 n=87 v=64
119515 Off ch=2 n=77 v=64
119515 Off ch=2 n=72 v=64
119515 Off ch=2 n=67 v=64
119515 Off ch=2 n=82 v=64
121032 Par ch=2 c=7 v=90
121257 Par ch=2 c=7 v=96
121680 On ch=2 n=33 v=92
121680 On ch=2 n=40 v=92
121680 On ch=2 n=45 v=92
121680 On ch=2 n=37 v=92
121680 On ch=2 n=58 v=92
121680 On ch=2 n=55 v=92
121791 Off ch=2 n=33 v=64
121791 Off ch=2 n=40 v=64
121791 Off ch=2 n=45 v=64
121791 Off ch=2 n=37 v=64
121791 Off ch=2 n=58 v=64
121791 Off ch=2 n=55 v=64
122160 On ch=2 n=40 v=92
122160 On ch=2 n=33 v=92
122160 On ch=2 n=45 v=92
122160 On ch=2 n=37 v=92
122160 On ch=2 n=58 v=92
122160 On ch=2 n=55 v=92
122271 Off ch=2 n=40 v=64
122271 Off ch=2 n=33 v=64
122271 Off ch=2 n=45 v=64
122271 Off ch=2 n=37 v=64
122271 Off ch=2 n=58 v=64
122271 Off ch=2 n=55 v=64
123600 On ch=2 n=40 v=92
123600 On ch=2 n=33 v=92
123600 On ch=2 n=37 v=92
123600 On ch=2 n=45 v=92
123600 On ch=2 n=58 v=92
123600 On ch=2 n=55 v=92
123711 Off ch=2 n=40 v=64
123711 Off ch=2 n=33 v=64
123711 Off ch=2 n=37 v=64
123711 Off ch=2 n=45 v=64
123711 Off ch=2 n=58 v=64
123711 Off ch=2 n=55 v=64
124320 On ch=2 n=40 v=92
124320 On ch=2 n=33 v=92
124320 On ch=2 n=37 v=92
124320 On ch=2 n=45 v=92
124320 On ch=2 n=58 v=92
124320 On ch=2 n=55 v=92
124431 Off ch=2 n=40 v=64
124431 Off ch=2 n=33 v=64
124431 Off ch=2 n=37 v=64
124431 Off ch=2 n=45 v=64
124431 Off ch=2 n=58 v=64
124431 Off ch=2 n=55 v=64
125280 On ch=2 n=40 v=92
125280 On ch=2 n=33 v=92
125280 On ch=2 n=37 v=92
125280 On ch=2 n=45 v=92
125280 On ch=2 n=58 v=92
125280 On ch=2 n=55 v=92
125391 Off ch=2 n=40 v=64
125391 Off ch=2 n=33 v=64
125391 Off ch=2 n=37 v=64
125391 Off ch=2 n=45 v=64
125391 Off ch=2 n=58 v=64
125391 Off ch=2 n=55 v=64
126480 On ch=2 n=40 v=92
126480 On ch=2 n=33 v=92
126480 On ch=2 n=37 v=92
126480 On ch=2 n=45 v=92
126480 On ch=2 n=58 v=92
126480 On ch=2 n=55 v=92
126591 Off ch=2 n=40 v=64
126591 Off ch=2 n=33 v=64
126591 Off ch=2 n=37 v=64
126591 Off ch=2 n=45 v=64
126591 Off ch=2 n=58 v=64
126591 Off ch=2 n=55 v=64
128160 Par ch=2 c=0 v=0
128160 Par ch=2 c=32 v=1
128160 PrCh ch=2 p=56
135800 Par ch=2 c=7 v=104
135849 Par ch=2 c=7 v=104
136080 On ch=2 n=53 v=96
136169 Off ch=2 n=53 v=64
136320 On ch=2 n=55 v=96
136409 Off ch=2 n=55 v=64
136560 On ch=2 n=56 v=96
136649 Off ch=2 n=56 v=64
136800 On ch=2 n=58 v=96
136889 Off ch=2 n=58 v=64
137040 On ch=2 n=56 v=96
137129 Off ch=2 n=56 v=64
137280 On ch=2 n=55 v=96
137369 Off ch=2 n=55 v=64
137520 On ch=2 n=53 v=96
137609 Off ch=2 n=53 v=64
149040 On ch=2 n=53 v=102
149129 Off ch=2 n=53 v=64
149280 On ch=2 n=55 v=102
149369 Off ch=2 n=55 v=64
149520 On ch=2 n=56 v=102
149609 Off ch=2 n=56 v=64
149760 On ch=2 n=58 v=102
149849 Off ch=2 n=58 v=64
150000 On ch=2 n=56 v=102
150089 Off ch=2 n=56 v=64
150240 On ch=2 n=55 v=102
150329 Off ch=2 n=55 v=64
150480 On ch=2 n=53 v=102
150569 Off ch=2 n=53 v=64
150720 On ch=2 n=55 v=102
150809 Off ch=2 n=55 v=64
153600 On ch=2 n=63 v=118
153600 On ch=2 n=51 v=118
153696 Off ch=2 n=63 v=64
153696 Off ch=2 n=51 v=64
155040 On ch=2 n=85 v=92
155100 Off ch=2 n=85 v=64
155280 On ch=2 n=82 v=92
155340 Off ch=2 n=82 v=64
155520 On ch=2 n=75 v=92
155580 Off ch=2 n=75 v=64
155760 On ch=2 n=70 v=92
155820 Off ch=2 n=70 v=64
156000 On ch=2 n=61 v=80
156060 Off ch=2 n=61 v=64
156240 On ch=2 n=58 v=80
156300 Off ch=2 n=58 v=64
156480 On ch=2 n=51 v=80
156540 Off ch=2 n=51 v=64
156720 On ch=2 n=46 v=80
156780 Off ch=2 n=46 v=64
160800 On ch=2 n=73 v=86
160860 Off ch=2 n=73 v=64
161040 On ch=2 n=70 v=86
161100 Off ch=2 n=70 v=64
161280 On ch=2 n=75 v=86
161340 Off ch=2 n=75 v=64
161520 On ch=2 n=70 v=86
161580 Off ch=2 n=70 v=64
161760 On ch=2 n=73 v=86
161820 Off ch=2 n=73 v=64
162000 On ch=2 n=70 v=86
162060 Off ch=2 n=70 v=64
162240 On ch=2 n=75 v=86
162300 Off ch=2 n=75 v=64
162480 On ch=2 n=70 v=86
162540 Off ch=2 n=70 v=64
162720 On ch=2 n=73 v=86
162780 Off ch=2 n=73 v=64
162960 On ch=2 n=70 v=86
163020 Off ch=2 n=70 v=64
163200 On ch=2 n=75 v=86
163260 Off ch=2 n=75 v=64
163440 On ch=2 n=70 v=86
163500 Off ch=2 n=70 v=64
164640 On ch=2 n=73 v=86
164700 Off ch=2 n=73 v=64
164880 On ch=2 n=70 v=86
164940 Off ch=2 n=70 v=64
165120 On ch=2 n=75 v=86
165180 Off ch=2 n=75 v=64
165360 On ch=2 n=70 v=86
165420 Off ch=2 n=70 v=64
182400 On ch=2 n=74 v=66
182940 Off ch=2 n=74 v=64
183040 On ch=2 n=73 v=58
183096 Off ch=2 n=73 v=64
183200 On ch=2 n=72 v=58
183256 Off ch=2 n=72 v=64
183360 On ch=2 n=71 v=54
183450 Off ch=2 n=71 v=64
183600 On ch=2 n=70 v=48
183710 Off ch=2 n=70 v=64
184800 On ch=2 n=74 v=62
184860 Off ch=2 n=74 v=64
184960 On ch=2 n=73 v=58
185025 Off ch=2 n=73 v=64
185120 On ch=2 n=72 v=58
185185 Off ch=2 n=72 v=64
185280 On ch=2 n=71 v=54
185370 Off ch=2 n=71 v=64
185520 On ch=2 n=70 v=48
185630 Off ch=2 n=70 v=64
200160 Par ch=2 c=0 v=0
200160 Par ch=2 c=32 v=2
200160 PrCh ch=2 p=56
201072 Par ch=2 c=7 v=84
201096 Par ch=2 c=7 v=84
201120 On ch=2 n=61 v=52
201120 On ch=2 n=70 v=55
201120 On ch=2 n=66 v=55
201120 On ch=2 n=65 v=52
201151 Par ch=2 c=7 v=84
201207 Par ch=2 c=7 v=85
201263 Par ch=2 c=7 v=86
201319 Par ch=2 c=7 v=87
201375 Par ch=2 c=7 v=88
201430 Par ch=2 c=7 v=89
201486 Par ch=2 c=7 v=90
201542 Par ch=2 c=7 v=91
201598 Par ch=2 c=7 v=92
201600 Off ch=2 n=61 v=64
201600 Off ch=2 n=70 v=64
201600 Off ch=2 n=66 v=64
201600 Off ch=2 n=65 v=64
201600 On ch=2 n=61 v=52
201600 On ch=2 n=66 v=55
201600 On ch=2 n=70 v=55
201600 On ch=2 n=65 v=52
201654 Par ch=2 c=7 v=93
201710 Par ch=2 c=7 v=94
201765 Par ch=2 c=7 v=95
201821 Par ch=2 c=7 v=96
201877 Par ch=2 c=7 v=97
201933 Par ch=2 c=7 v=98
201989 Par ch=2 c=7 v=99
202044 Par ch=2 c=7 v=100
202080 Off ch=2 n=61 v=64
202080 Off ch=2 n=66 v=64
202080 Off ch=2 n=70 v=64
202080 Off ch=2 n=65 v=64
202080 On ch=2 n=61 v=52
202080 On ch=2 n=66 v=55
202080 On ch=2 n=70 v=55
202080 On ch=2 n=65 v=52
202100 Par ch=2 c=7 v=101
202156 Par ch=2 c=7 v=102
202212 Par ch=2 c=7 v=103
202268 Par ch=2 c=7 v=104
202323 Par ch=2 c=7 v=105
202379 Par ch=2 c=7 v=106
202435 Par ch=2 c=7 v=107
202491 Par ch=2 c=7 v=108
202547 Par ch=2 c=7 v=109
202560 Off ch=2 n=61 v=64
202560 Off ch=2 n=66 v=64
202560 Off ch=2 n=70 v=64
202560 Off ch=2 n=65 v=64
202560 On ch=2 n=61 v=52
202560 On ch=2 n=66 v=55
202560 On ch=2 n=65 v=52
202560 On ch=2 n=70 v=55
202603 Par ch=2 c=7 v=110
202658 Par ch=2 c=7 v=111
202714 Par ch=2 c=7 v=112
202770 Par ch=2 c=7 v=113
202826 Par ch=2 c=7 v=114
202882 Par ch=2 c=7 v=115
202937 Par ch=2 c=7 v=116
202993 Par ch=2 c=7 v=117
203040 Off ch=2 n=61 v=64
203040 Off ch=2 n=66 v=64
203040 Off ch=2 n=65 v=64
203040 Off ch=2 n=70 v=64
203040 On ch=2 n=63 v=52
203040 On ch=2 n=66 v=52
203040 On ch=2 n=72 v=55
203040 On ch=2 n=68 v=55
203049 Par ch=2 c=7 v=118
203105 Par ch=2 c=7 v=119
203161 Par ch=2 c=7 v=120
203216 Par ch=2 c=7 v=121
203272 Par ch=2 c=7 v=122
203280 Off ch=2 n=63 v=64
203280 Off ch=2 n=66 v=64
203280 Off ch=2 n=72 v=64
203280 Off ch=2 n=68 v=64
203280 On ch=2 n=70 v=55
203280 On ch=2 n=65 v=52
203280 On ch=2 n=68 v=52
203280 On ch=2 n=73 v=55
203328 Par ch=2 c=7 v=123
203384 Par ch=2 c=7 v=124
203440 Par ch=2 c=7 v=125
203495 Par ch=2 c=7 v=127
203520 Off ch=2 n=70 v=64
203520 Off ch=2 n=65 v=64
203520 Off ch=2 n=68 v=64
203520 Off ch=2 n=73 v=64
203520 On ch=2 n=75 v=55
203520 Par ch=2 c=7 v=124
203520 On ch=2 n=72 v=55
203520 On ch=2 n=66 v=52
203520 On ch=2 n=70 v=52
203580 Par ch=2 c=7 v=123
203640 Par ch=2 c=7 v=122
203700 Par ch=2 c=7 v=121
203760 Par ch=2 c=7 v=120
203820 Par ch=2 c=7 v=119
203880 Par ch=2 c=7 v=118
203940 Par ch=2 c=7 v=117
204000 Off ch=2 n=75 v=64
204000 Off ch=2 n=72 v=64
204000 Off ch=2 n=66 v=64
204000 Off ch=2 n=70 v=64
204000 On ch=2 n=65 v=52
204000 Par ch=2 c=7 v=116
204000 On ch=2 n=73 v=55
204000 On ch=2 n=70 v=55
204000 On ch=2 n=68 v=52
204060 Par ch=2 c=7 v=115
204120 Par ch=2 c=7 v=114
204180 Par ch=2 c=7 v=113
204240 Par ch=2 c=7 v=112
204300 Par ch=2 c=7 v=111
204360 Par ch=2 c=7 v=110
204420 Par ch=2 c=7 v=109
204480 Off ch=2 n=65 v=64
204480 Off ch=2 n=73 v=64
204480 Off ch=2 n=70 v=64
204480 Off ch=2 n=68 v=64
204480 On ch=2 n=63 v=52
204480 Par ch=2 c=7 v=108
204480 On ch=2 n=66 v=52
204480 On ch=2 n=72 v=55
204480 On ch=2 n=68 v=55
204540 Par ch=2 c=7 v=107
204600 Par ch=2 c=7 v=106
204660 Par ch=2 c=7 v=105
204720 Par ch=2 c=7 v=104
204780 Par ch=2 c=7 v=103
204840 Par ch=2 c=7 v=102
204900 Par ch=2 c=7 v=101
204959 Par ch=2 c=7 v=100
204960 Off ch=2 n=63 v=64
204960 Off ch=2 n=66 v=64
204960 Off ch=2 n=72 v=64
204960 Off ch=2 n=68 v=64
204960 On ch=2 n=61 v=52
204960 Par ch=2 c=7 v=100
204960 On ch=2 n=66 v=55
204960 On ch=2 n=70 v=55
204960 On ch=2 n=65 v=52
205013 Par ch=2 c=7 v=100
205067 Par ch=2 c=7 v=101
205121 Par ch=2 c=7 v=102
205175 Par ch=2 c=7 v=103
205228 Par ch=2 c=7 v=104
205282 Par ch=2 c=7 v=105
205336 Par ch=2 c=7 v=106
205390 Par ch=2 c=7 v=107
205440 Off ch=2 n=61 v=64
205440 Off ch=2 n=66 v=64
205440 Off ch=2 n=70 v=64
205440 Off ch=2 n=65 v=64
205440 On ch=2 n=61 v=52
205440 On ch=2 n=70 v=55
205440 On ch=2 n=66 v=55
205440 On ch=2 n=65 v=52
205444 Par ch=2 c=7 v=108
205497 Par ch=2 c=7 v=109
205551 Par ch=2 c=7 v=110
205605 Par ch=2 c=7 v=111
205659 Par ch=2 c=7 v=112
205712 Par ch=2 c=7 v=113
205766 Par ch=2 c=7 v=114
205820 Par ch=2 c=7 v=115
205874 Par ch=2 c=7 v=116
205920 Off ch=2 n=61 v=64
205920 Off ch=2 n=70 v=64
205920 Off ch=2 n=66 v=64
205920 Off ch=2 n=65 v=64
205920 On ch=2 n=63 v=52
205920 On ch=2 n=66 v=52
205920 On ch=2 n=72 v=55
205920 On ch=2 n=68 v=55
205928 Par ch=2 c=7 v=117
205981 Par ch=2 c=7 v=118
206035 Par ch=2 c=7 v=119
206089 Par ch=2 c=7 v=120
206143 Par ch=2 c=7 v=121
206160 Off ch=2 n=63 v=64
206160 Off ch=2 n=66 v=64
206160 Off ch=2 n=72 v=64
206160 Off ch=2 n=68 v=64
206160 On ch=2 n=65 v=52
206160 On ch=2 n=73 v=55
206160 On ch=2 n=70 v=55
206160 On ch=2 n=68 v=52
206196 Par ch=2 c=7 v=122
206250 Par ch=2 c=7 v=123
206304 Par ch=2 c=7 v=124
206358 Par ch=2 c=7 v=125
206400 Off ch=2 n=65 v=64
206400 Off ch=2 n=73 v=64
206400 Off ch=2 n=70 v=64
206400 Off ch=2 n=68 v=64
206400 On ch=2 n=75 v=55
206400 On ch=2 n=72 v=55
206400 On ch=2 n=66 v=52
206400 On ch=2 n=70 v=52
206411 Par ch=2 c=7 v=127
206412 Par ch=2 c=7 v=126
206424 Par ch=2 c=7 v=126
206464 Par ch=2 c=7 v=125
206504 Par ch=2 c=7 v=124
206544 Par ch=2 c=7 v=123
206584 Par ch=2 c=7 v=122
206624 Par ch=2 c=7 v=121
206664 Par ch=2 c=7 v=120
206704 Par ch=2 c=7 v=119
206744 Par ch=2 c=7 v=118
206784 Par ch=2 c=7 v=117
206808 Off ch=2 n=75 v=64
206808 Off ch=2 n=72 v=64
206808 Off ch=2 n=66 v=64
206808 Off ch=2 n=70 v=64
206824 Par ch=2 c=7 v=116
206864 Par ch=2 c=7 v=115
206880 On ch=2 n=61 v=52
206880 On ch=2 n=70 v=55
206880 On ch=2 n=66 v=55
206880 On ch=2 n=65 v=52
206903 Par ch=2 c=7 v=114
206904 Par ch=2 c=7 v=114
207011 Par ch=2 c=7 v=114
207118 Par ch=2 c=7 v=115
207225 Par ch=2 c=7 v=116
207332 Par ch=2 c=7 v=117
207360 Off ch=2 n=61 v=64
207360 Off ch=2 n=70 v=64
207360 Off ch=2 n=66 v=64
207360 Off ch=2 n=65 v=64
207360 On ch=2 n=70 v=55
207360 On ch=2 n=61 v=52
207360 On ch=2 n=66 v=55
207360 On ch=2 n=65 v=52
207439 Par ch=2 c=7 v=118
207546 Par ch=2 c=7 v=119
207653 Par ch=2 c=7 v=120
207760 Par ch=2 c=7 v=121
207840 Off ch=2 n=70 v=64
207840 Off ch=2 n=61 v=64
207840 Off ch=2 n=66 v=64
207840 Off ch=2 n=65 v=64
207840 On ch=2 n=63 v=52
207840 On ch=2 n=66 v=52
207840 On ch=2 n=72 v=55
207840 On ch=2 n=68 v=55
207867 Par ch=2 c=7 v=122
207974 Par ch=2 c=7 v=123
208080 Off ch=2 n=63 v=64
208080 Off ch=2 n=66 v=64
208080 Off ch=2 n=72 v=64
208080 Off ch=2 n=68 v=64
208080 On ch=2 n=65 v=52
208080 On ch=2 n=73 v=55
208080 On ch=2 n=70 v=55
208080 On ch=2 n=68 v=52
208081 Par ch=2 c=7 v=124
208188 Par ch=2 c=7 v=125
208295 Par ch=2 c=7 v=127
208320 Off ch=2 n=65 v=64
208320 Off ch=2 n=73 v=64
208320 Off ch=2 n=70 v=64
208320 Off ch=2 n=68 v=64
208320 On ch=2 n=75 v=55
208320 On ch=2 n=72 v=55
208320 On ch=2 n=66 v=52
208320 On ch=2 n=70 v=52
208788 Par ch=2 c=7 v=126
208800 Off ch=2 n=75 v=64
208800 Off ch=2 n=72 v=64
208800 Off ch=2 n=66 v=64
208800 Off ch=2 n=70 v=64
208800 On ch=2 n=73 v=55
208800 On ch=2 n=65 v=52
208800 On ch=2 n=70 v=55
208800 On ch=2 n=68 v=52
208829 Par ch=2 c=7 v=125
208870 Par ch=2 c=7 v=124
208911 Par ch=2 c=7 v=123
208952 Par ch=2 c=7 v=122
208993 Par ch=2 c=7 v=121
209034 Par ch=2 c=7 v=120
209075 Par ch=2 c=7 v=119
209116 Par ch=2 c=7 v=118
209157 Par ch=2 c=7 v=117
209198 Par ch=2 c=7 v=116
209239 Par ch=2 c=7 v=115
209280 Off ch=2 n=73 v=64
209280 Off ch=2 n=65 v=64
209280 Off ch=2 n=70 v=64
209280 Off ch=2 n=68 v=64
209280 On ch=2 n=63 v=52
209280 Par ch=2 c=7 v=114
209280 On ch=2 n=72 v=55
209280 On ch=2 n=66 v=52
209280 On ch=2 n=68 v=55
209321 Par ch=2 c=7 v=113
209362 Par ch=2 c=7 v=112
209403 Par ch=2 c=7 v=111
209444 Par ch=2 c=7 v=110
209485 Par ch=2 c=7 v=109
209526 Par ch=2 c=7 v=108
209567 Par ch=2 c=7 v=107
209608 Par ch=2 c=7 v=106
209649 Par ch=2 c=7 v=105
209690 Par ch=2 c=7 v=104
209731 Par ch=2 c=7 v=103
209760 Off ch=2 n=63 v=64
209760 Off ch=2 n=72 v=64
209760 Off ch=2 n=66 v=64
209760 Off ch=2 n=68 v=64
209760 On ch=2 n=61 v=52
209760 On ch=2 n=66 v=55
209760 On ch=2 n=70 v=55
209760 On ch=2 n=65 v=52
209771 Par ch=2 c=7 v=102
209772 Par ch=2 c=7 v=102
209829 Par ch=2 c=7 v=102
209886 Par ch=2 c=7 v=103
209943 Par ch=2 c=7 v=104
210000 Par ch=2 c=7 v=105
210057 Par ch=2 c=7 v=106
210114 Par ch=2 c=7 v=107
210171 Par ch=2 c=7 v=108
210229 Par ch=2 c=7 v=109
210240 Off ch=2 n=61 v=64
210240 Off ch=2 n=66 v=64
210240 Off ch=2 n=70 v=64
210240 Off ch=2 n=65 v=64
210240 On ch=2 n=61 v=52
210240 On ch=2 n=66 v=55
210240 On ch=2 n=70 v=55
210240 On ch=2 n=65 v=52
210286 Par ch=2 c=7 v=110
210343 Par ch=2 c=7 v=111
210400 Par ch=2 c=7 v=112
210457 Par ch=2 c=7 v=113
210514 Par ch=2 c=7 v=114
210571 Par ch=2 c=7 v=115
210628 Par ch=2 c=7 v=116
210685 Par ch=2 c=7 v=117
210720 Off ch=2 n=61 v=64
210720 Off ch=2 n=66 v=64
210720 Off ch=2 n=70 v=64
210720 Off ch=2 n=65 v=64
210720 On ch=2 n=63 v=52
210720 On ch=2 n=72 v=55
210720 On ch=2 n=66 v=52
210720 On ch=2 n=68 v=55
210743 Par ch=2 c=7 v=118
210800 Par ch=2 c=7 v=119
210857 Par ch=2 c=7 v=120
210914 Par ch=2 c=7 v=121
210960 Off ch=2 n=63 v=64
210960 Off ch=2 n=72 v=64
210960 Off ch=2 n=66 v=64
210960 Off ch=2 n=68 v=64
210960 On ch=2 n=65 v=52
210960 On ch=2 n=73 v=55
210960 On ch=2 n=70 v=55
210960 On ch=2 n=68 v=52
210971 Par ch=2 c=7 v=122
211028 Par ch=2 c=7 v=123
211085 Par ch=2 c=7 v=124
211142 Par ch=2 c=7 v=125
211199 Par ch=2 c=7 v=127
211200 Off ch=2 n=65 v=64
211200 Off ch=2 n=73 v=64
211200 Off ch=2 n=70 v=64
211200 Off ch=2 n=68 v=64
211200 On ch=2 n=75 v=55
211200 On ch=2 n=66 v=52
211200 On ch=2 n=72 v=55
211200 On ch=2 n=70 v=52
211680 Off ch=2 n=75 v=64
211680 Off ch=2 n=66 v=64
211680 Off ch=2 n=72 v=64
211680 Off ch=2 n=70 v=64
211788 Par ch=2 c=7 v=126
211842 Par ch=2 c=7 v=125
211896 Par ch=2 c=7 v=124
211920 On ch=2 n=70 v=55
211920 On ch=2 n=61 v=52
211920 On ch=2 n=66 v=55
211920 On ch=2 n=65 v=52
211950 Par ch=2 c=7 v=123
212004 Par ch=2 c=7 v=122
212058 Par ch=2 c=7 v=121
212112 Par ch=2 c=7 v=120
212166 Par ch=2 c=7 v=119
212220 Par ch=2 c=7 v=118
212274 Par ch=2 c=7 v=117
212328 Par ch=2 c=7 v=116
212382 Par ch=2 c=7 v=115
212436 Par ch=2 c=7 v=114
212490 Par ch=2 c=7 v=113
212544 Par ch=2 c=7 v=112
212598 Par ch=2 c=7 v=111
212640 Off ch=2 n=70 v=64
212640 Off ch=2 n=61 v=64
212640 Off ch=2 n=66 v=64
212640 Off ch=2 n=65 v=64
212640 On ch=2 n=66 v=55
212640 On ch=2 n=61 v=52
212640 On ch=2 n=65 v=52
212640 On ch=2 n=70 v=55
212651 Par ch=2 c=7 v=110
212714 Par ch=2 c=7 v=111
212804 Par ch=2 c=7 v=112
212894 Par ch=2 c=7 v=113
212985 Par ch=2 c=7 v=114
213075 Par ch=2 c=7 v=115
213120 Off ch=2 n=66 v=64
213120 Off ch=2 n=61 v=64
213120 Off ch=2 n=65 v=64
213120 Off ch=2 n=70 v=64
213120 On ch=2 n=65 v=52
213120 On ch=2 n=61 v=52
213120 On ch=2 n=66 v=55
213120 On ch=2 n=70 v=55
213165 Par ch=2 c=7 v=116
213255 Par ch=2 c=7 v=117
213346 Par ch=2 c=7 v=118
213436 Par ch=2 c=7 v=119
213526 Par ch=2 c=7 v=120
213600 Off ch=2 n=65 v=64
213600 Off ch=2 n=61 v=64
213600 Off ch=2 n=66 v=64
213600 Off ch=2 n=70 v=64
213600 On ch=2 n=63 v=52
213600 On ch=2 n=66 v=52
213600 On ch=2 n=72 v=55
213600 On ch=2 n=68 v=55
213616 Par ch=2 c=7 v=121
213707 Par ch=2 c=7 v=122
213797 Par ch=2 c=7 v=123
213840 Off ch=2 n=63 v=64
213840 Off ch=2 n=66 v=64
213840 Off ch=2 n=72 v=64
213840 Off ch=2 n=68 v=64
213840 On ch=2 n=65 v=52
213840 On ch=2 n=73 v=55
213840 On ch=2 n=70 v=55
213840 On ch=2 n=68 v=52
213887 Par ch=2 c=7 v=124
213977 Par ch=2 c=7 v=125
214067 Par ch=2 c=7 v=127
214080 Off ch=2 n=65 v=64
214080 Off ch=2 n=73 v=64
214080 Off ch=2 n=70 v=64
214080 Off ch=2 n=68 v=64
214080 On ch=2 n=75 v=55
214080 On ch=2 n=72 v=55
214080 On ch=2 n=66 v=52
214080 On ch=2 n=70 v=52
214560 Off ch=2 n=75 v=64
214560 Off ch=2 n=72 v=64
214560 Off ch=2 n=66 v=64
214560 Off ch=2 n=70 v=64
228960 Par ch=2 c=0 v=0
228960 Par ch=2 c=32 v=1
228960 PrCh ch=2 p=56
229680 Par ch=2 c=7 v=100
229920 On ch=2 n=69 v=66
230016 Off ch=2 n=69 v=64
230160 On ch=2 n=72 v=66
230256 Off ch=2 n=72 v=64
230400 On ch=2 n=71 v=66
230496 Off ch=2 n=71 v=64
230640 On ch=2 n=74 v=66
230736 Off ch=2 n=74 v=64
230880 On ch=2 n=69 v=66
230976 Off ch=2 n=69 v=64
231120 On ch=2 n=72 v=66
231216 Off ch=2 n=72 v=64
231360 On ch=2 n=71 v=66
231456 Off ch=2 n=71 v=64
231600 On ch=2 n=74 v=66
231696 Off ch=2 n=74 v=64
231840 On ch=2 n=69 v=66
231936 Off ch=2 n=69 v=64
232080 On ch=2 n=72 v=66
232176 Off ch=2 n=72 v=64
232320 On ch=2 n=71 v=66
232416 Off ch=2 n=71 v=64
232560 On ch=2 n=74 v=66
232656 Off ch=2 n=74 v=64
232800 On ch=2 n=69 v=66
232896 Off ch=2 n=69 v=64
233040 On ch=2 n=72 v=66
233136 Off ch=2 n=72 v=64
233280 On ch=2 n=71 v=66
233376 Off ch=2 n=71 v=64
233520 On ch=2 n=74 v=66
233616 Off ch=2 n=74 v=64
233760 On ch=2 n=69 v=66
233856 Off ch=2 n=69 v=64
234000 On ch=2 n=72 v=66
234096 Off ch=2 n=72 v=64
234240 On ch=2 n=71 v=66
234336 Off ch=2 n=71 v=64
234480 On ch=2 n=74 v=66
234576 Off ch=2 n=74 v=64
234720 On ch=2 n=69 v=66
234816 Off ch=2 n=69 v=64
234960 On ch=2 n=72 v=66
235056 Off ch=2 n=72 v=64
235200 On ch=2 n=71 v=66
235296 Off ch=2 n=71 v=64
235440 On ch=2 n=74 v=66
235536 Off ch=2 n=74 v=64
235680 On ch=2 n=69 v=66
235680 On ch=2 n=75 v=68
235680 On ch=2 n=79 v=68
235680 On ch=2 n=72 v=68
235680 On ch=2 n=69 v=68
235776 Off ch=2 n=69 v=64
235776 Off ch=2 n=69 v=64
235800 Off ch=2 n=75 v=64
235800 Off ch=2 n=79 v=64
235800 Off ch=2 n=72 v=64
235920 On ch=2 n=72 v=66
236016 Off ch=2 n=72 v=64
236075 On ch=2 n=72 v=83
236075 On ch=2 n=79 v=83
236075 On ch=2 n=69 v=83
236075 On ch=2 n=75 v=83
236137 Off ch=2 n=72 v=64
236137 Off ch=2 n=79 v=64
236137 Off ch=2 n=69 v=64
236137 Off ch=2 n=75 v=64
236160 On ch=2 n=71 v=66
236160 On ch=2 n=71 v=85
236160 On ch=2 n=77 v=85
236160 On ch=2 n=81 v=85
236160 On ch=2 n=74 v=85
236256 Off ch=2 n=71 v=64
236256 Off ch=2 n=71 v=64
236280 Off ch=2 n=77 v=64
236280 Off ch=2 n=81 v=64
236280 Off ch=2 n=74 v=64
236400 On ch=2 n=74 v=66
236496 Off ch=2 n=74 v=64
236562 On ch=2 n=71 v=78
236562 On ch=2 n=81 v=78
236562 On ch=2 n=77 v=78
236562 On ch=2 n=74 v=78
236629 Off ch=2 n=71 v=64
236629 Off ch=2 n=81 v=64
236629 Off ch=2 n=77 v=64
236629 Off ch=2 n=74 v=64
236640 On ch=2 n=69 v=66
236640 On ch=2 n=75 v=66
236640 On ch=2 n=79 v=66
236640 On ch=2 n=69 v=66
236640 On ch=2 n=72 v=66
236736 Off ch=2 n=69 v=64
236736 Off ch=2 n=69 v=64
236760 Off ch=2 n=75 v=64
236760 Off ch=2 n=79 v=64
236760 Off ch=2 n=72 v=64
236880 On ch=2 n=72 v=66
236976 Off ch=2 n=72 v=64
237120 On ch=2 n=71 v=66
237216 Off ch=2 n=71 v=64
237360 On ch=2 n=74 v=66
237456 Off ch=2 n=74 v=64
237600 On ch=2 n=60 v=117
237600 On ch=2 n=69 v=66
237600 On ch=2 n=79 v=77
237600 On ch=2 n=69 v=77
237600 On ch=2 n=72 v=77
237600 On ch=2 n=75 v=77
237669 Off ch=2 n=60 v=64
237692 Off ch=2 n=69 v=64
237692 Off ch=2 n=79 v=64
237692 Off ch=2 n=69 v=64
237692 Off ch=2 n=72 v=64
237692 Off ch=2 n=75 v=64
237840 On ch=2 n=57 v=117
237840 On ch=2 n=72 v=66
237909 Off ch=2 n=57 v=64
237936 Off ch=2 n=72 v=64
237988 On ch=2 n=69 v=77
237988 On ch=2 n=79 v=77
237988 On ch=2 n=72 v=77
237988 On ch=2 n=75 v=77
238080 Off ch=2 n=69 v=64
238080 Off ch=2 n=79 v=64
238080 Off ch=2 n=72 v=64
238080 Off ch=2 n=75 v=64
238080 On ch=2 n=62 v=117
238080 On ch=2 n=71 v=66
238080 On ch=2 n=81 v=77
238080 On ch=2 n=71 v=77
238080 On ch=2 n=77 v=77
238080 On ch=2 n=74 v=77
238149 Off ch=2 n=62 v=64
238172 Off ch=2 n=71 v=64
238172 Off ch=2 n=81 v=64
238172 Off ch=2 n=71 v=64
238172 Off ch=2 n=77 v=64
238172 Off ch=2 n=74 v=64
238320 On ch=2 n=57 v=117
238320 On ch=2 n=74 v=66
238389 Off ch=2 n=57 v=64
238416 Off ch=2 n=74 v=64
238468 On ch=2 n=81 v=77
238468 On ch=2 n=71 v=77
238468 On ch=2 n=77 v=77
238468 On ch=2 n=74 v=77
238560 Off ch=2 n=81 v=64
238560 Off ch=2 n=71 v=64
238560 Off ch=2 n=77 v=64
238560 Off ch=2 n=74 v=64
238560 On ch=2 n=60 v=117
238560 On ch=2 n=69 v=66
238560 On ch=2 n=79 v=77
238560 On ch=2 n=75 v=77
238560 On ch=2 n=69 v=77
238560 On ch=2 n=72 v=77
238629 Off ch=2 n=60 v=64
238652 Off ch=2 n=69 v=64
238652 Off ch=2 n=75 v=64
238652 Off ch=2 n=69 v=64
238652 Off ch=2 n=72 v=64
238680 Off ch=2 n=79 v=64
238800 On ch=2 n=57 v=117
238800 On ch=2 n=72 v=66
238869 Off ch=2 n=57 v=64
238896 Off ch=2 n=72 v=64
238941 On ch=2 n=72 v=77
238941 On ch=2 n=69 v=77
238941 On ch=2 n=79 v=77
238941 On ch=2 n=75 v=77
239033 Off ch=2 n=72 v=64
239033 Off ch=2 n=69 v=64
239033 Off ch=2 n=79 v=64
239033 Off ch=2 n=75 v=64
239040 On ch=2 n=62 v=117
239040 On ch=2 n=71 v=66
239040 On ch=2 n=71 v=77
239040 On ch=2 n=81 v=77
239040 On ch=2 n=77 v=77
239040 On ch=2 n=74 v=77
239109 Off ch=2 n=62 v=64
239132 Off ch=2 n=71 v=64
239132 Off ch=2 n=71 v=64
239132 Off ch=2 n=81 v=64
239132 Off ch=2 n=77 v=64
239132 Off ch=2 n=74 v=64
239280 On ch=2 n=57 v=117
239280 On ch=2 n=74 v=66
239349 Off ch=2 n=57 v=64
239376 Off ch=2 n=74 v=64
239421 On ch=2 n=71 v=77
239421 On ch=2 n=81 v=77
239421 On ch=2 n=74 v=77
239421 On ch=2 n=77 v=77
239513 Off ch=2 n=71 v=64
239513 Off ch=2 n=81 v=64
239513 Off ch=2 n=74 v=64
239513 Off ch=2 n=77 v=64
239520 On ch=2 n=60 v=117
239520 On ch=2 n=69 v=66
239520 On ch=2 n=69 v=77
239520 On ch=2 n=79 v=77
239520 On ch=2 n=72 v=77
239520 On ch=2 n=75 v=77
239589 Off ch=2 n=60 v=64
239612 Off ch=2 n=69 v=64
239612 Off ch=2 n=69 v=64
239612 Off ch=2 n=72 v=64
239612 Off ch=2 n=75 v=64
239640 Off ch=2 n=79 v=64
239760 On ch=2 n=57 v=117
239760 On ch=2 n=72 v=66
239829 Off ch=2 n=57 v=64
239856 Off ch=2 n=72 v=64
239901 On ch=2 n=69 v=77
239901 On ch=2 n=79 v=77
239901 On ch=2 n=75 v=77
239901 On ch=2 n=72 v=77
239993 Off ch=2 n=69 v=64
239993 Off ch=2 n=79 v=64
239993 Off ch=2 n=75 v=64
239993 Off ch=2 n=72 v=64
240000 On ch=2 n=62 v=117
240000 On ch=2 n=71 v=66
240000 On ch=2 n=71 v=77
240000 On ch=2 n=81 v=77
240000 On ch=2 n=77 v=77
240000 On ch=2 n=74 v=77
240069 Off ch=2 n=62 v=64
240092 Off ch=2 n=71 v=64
240092 Off ch=2 n=71 v=64
240092 Off ch=2 n=81 v=64
240092 Off ch=2 n=77 v=64
240092 Off ch=2 n=74 v=64
240240 On ch=2 n=57 v=117
240240 On ch=2 n=74 v=66
240309 Off ch=2 n=57 v=64
240336 Off ch=2 n=74 v=64
240381 On ch=2 n=71 v=77
240381 On ch=2 n=81 v=77
240381 On ch=2 n=77 v=77
240381 On ch=2 n=74 v=77
240473 Off ch=2 n=71 v=64
240473 Off ch=2 n=81 v=64
240473 Off ch=2 n=77 v=64
240473 Off ch=2 n=74 v=64
240480 On ch=2 n=60 v=117
240480 On ch=2 n=69 v=66
240480 On ch=2 n=72 v=77
240480 On ch=2 n=79 v=77
240480 On ch=2 n=83 v=77
240480 On ch=2 n=75 v=77
240549 Off ch=2 n=60 v=64
240572 Off ch=2 n=72 v=64
240572 Off ch=2 n=79 v=64
240572 Off ch=2 n=83 v=64
240572 Off ch=2 n=75 v=64
240576 Off ch=2 n=69 v=64
240720 On ch=2 n=57 v=117
240720 On ch=2 n=72 v=66
240789 Off ch=2 n=57 v=64
240816 Off ch=2 n=72 v=64
240861 On ch=2 n=72 v=77
240861 On ch=2 n=75 v=77
240861 On ch=2 n=79 v=77
240861 On ch=2 n=83 v=77
240953 Off ch=2 n=72 v=64
240953 Off ch=2 n=75 v=64
240953 Off ch=2 n=79 v=64
240953 Off ch=2 n=83 v=64
240960 On ch=2 n=62 v=117
240960 On ch=2 n=71 v=66
240960 On ch=2 n=71 v=77
240960 On ch=2 n=81 v=77
240960 On ch=2 n=77 v=77
240960 On ch=2 n=74 v=77
241029 Off ch=2 n=62 v=64
241052 Off ch=2 n=71 v=64
241052 Off ch=2 n=71 v=64
241052 Off ch=2 n=81 v=64
241052 Off ch=2 n=77 v=64
241052 Off ch=2 n=74 v=64
241200 On ch=2 n=57 v=117
241200 On ch=2 n=74 v=66
241269 Off ch=2 n=57 v=64
241296 Off ch=2 n=74 v=64
241341 On ch=2 n=71 v=77
241341 On ch=2 n=81 v=77
241341 On ch=2 n=77 v=77
241341 On ch=2 n=74 v=77
241433 Off ch=2 n=71 v=64
241433 Off ch=2 n=81 v=64
241433 Off ch=2 n=77 v=64
241433 Off ch=2 n=74 v=64
241440 On ch=2 n=60 v=117
241440 On ch=2 n=69 v=71
241440 On ch=2 n=79 v=82
241440 On ch=2 n=72 v=82
241440 On ch=2 n=69 v=82
241440 On ch=2 n=75 v=82
241509 Off ch=2 n=60 v=64
241536 Off ch=2 n=69 v=64
241536 Off ch=2 n=69 v=64
241560 Off ch=2 n=79 v=64
241560 Off ch=2 n=72 v=64
241560 Off ch=2 n=75 v=64
241680 On ch=2 n=57 v=117
241680 On ch=2 n=72 v=71
241749 Off ch=2 n=57 v=64
241776 Off ch=2 n=72 v=64
241800 On ch=2 n=69 v=82
241800 On ch=2 n=79 v=82
241800 On ch=2 n=72 v=82
241800 On ch=2 n=75 v=82
241920 Off ch=2 n=69 v=64
241920 Off ch=2 n=79 v=64
241920 Off ch=2 n=72 v=64
241920 Off ch=2 n=75 v=64
241920 On ch=2 n=62 v=117
241920 On ch=2 n=71 v=71
241920 On ch=2 n=71 v=82
241920 On ch=2 n=74 v=82
241920 On ch=2 n=77 v=82
241920 On ch=2 n=81 v=82
241989 Off ch=2 n=62 v=64
242016 Off ch=2 n=71 v=64
242016 Off ch=2 n=71 v=64
242040 Off ch=2 n=74 v=64
242040 Off ch=2 n=77 v=64
242040 Off ch=2 n=81 v=64
242160 On ch=2 n=57 v=117
242160 On ch=2 n=74 v=71
242229 Off ch=2 n=57 v=64
242256 Off ch=2 n=74 v=64
242280 On ch=2 n=71 v=82
242280 On ch=2 n=74 v=82
242280 On ch=2 n=81 v=82
242280 On ch=2 n=77 v=82
242400 Off ch=2 n=71 v=64
242400 Off ch=2 n=74 v=64
242400 Off ch=2 n=81 v=64
242400 Off ch=2 n=77 v=64
242400 On ch=2 n=60 v=117
242400 On ch=2 n=69 v=71
242400 On ch=2 n=72 v=82
242400 On ch=2 n=83 v=82
242400 On ch=2 n=79 v=82
242400 On ch=2 n=75 v=82
242469 Off ch=2 n=60 v=64
242496 Off ch=2 n=69 v=64
242520 Off ch=2 n=72 v=64
242520 Off ch=2 n=83 v=64
242520 Off ch=2 n=79 v=64
242520 Off ch=2 n=75 v=64
242640 On ch=2 n=57 v=117
242640 On ch=2 n=72 v=71
242709 Off ch=2 n=57 v=64
242736 Off ch=2 n=72 v=64
242760 On ch=2 n=72 v=82
242760 On ch=2 n=83 v=82
242760 On ch=2 n=75 v=82
242760 On ch=2 n=79 v=82
242880 Off ch=2 n=72 v=64
242880 Off ch=2 n=83 v=64
242880 Off ch=2 n=75 v=64
242880 Off ch=2 n=79 v=64
242880 On ch=2 n=62 v=117
242880 On ch=2 n=71 v=71
242880 On ch=2 n=71 v=82
242880 On ch=2 n=74 v=82
242880 On ch=2 n=77 v=82
242880 On ch=2 n=81 v=82
242949 Off ch=2 n=62 v=64
242976 Off ch=2 n=71 v=64
242976 Off ch=2 n=71 v=64
243000 Off ch=2 n=74 v=64
243000 Off ch=2 n=77 v=64
243000 Off ch=2 n=81 v=64
243120 On ch=2 n=57 v=117
243120 On ch=2 n=74 v=71
243189 Off ch=2 n=57 v=64
243216 Off ch=2 n=74 v=64
243240 On ch=2 n=71 v=82
243240 On ch=2 n=77 v=82
243240 On ch=2 n=81 v=82
243240 On ch=2 n=74 v=82
243360 Off ch=2 n=71 v=64
243360 Off ch=2 n=77 v=64
243360 Off ch=2 n=81 v=64
243360 Off ch=2 n=74 v=64
243360 On ch=2 n=60 v=117
243360 On ch=2 n=69 v=71
243360 On ch=2 n=69 v=82
243360 On ch=2 n=72 v=82
243360 On ch=2 n=75 v=82
243360 On ch=2 n=79 v=82
243429 Off ch=2 n=60 v=64
243456 Off ch=2 n=69 v=64
243456 Off ch=2 n=69 v=64
243480 Off ch=2 n=72 v=64
243480 Off ch=2 n=75 v=64
243480 Off ch=2 n=79 v=64
243600 On ch=2 n=57 v=117
243600 On ch=2 n=72 v=71
243669 Off ch=2 n=57 v=64
243696 Off ch=2 n=72 v=64
243720 On ch=2 n=69 v=82
243720 On ch=2 n=79 v=82
243720 On ch=2 n=72 v=82
243720 On ch=2 n=75 v=82
243840 Off ch=2 n=69 v=64
243840 Off ch=2 n=79 v=64
243840 Off ch=2 n=72 v=64
243840 Off ch=2 n=75 v=64
243840 On ch=2 n=62 v=117
243840 On ch=2 n=71 v=71
243840 On ch=2 n=71 v=82
243840 On ch=2 n=74 v=82
243840 On ch=2 n=77 v=82
243840 On ch=2 n=81 v=82
243909 Off ch=2 n=62 v=64
243936 Off ch=2 n=71 v=64
243936 Off ch=2 n=71 v=64
243960 Off ch=2 n=74 v=64
243960 Off ch=2 n=77 v=64
243960 Off ch=2 n=81 v=64
244080 On ch=2 n=57 v=117
244080 On ch=2 n=74 v=71
244149 Off ch=2 n=57 v=64
244176 Off ch=2 n=74 v=64
244200 On ch=2 n=71 v=82
244200 On ch=2 n=81 v=82
244200 On ch=2 n=77 v=82
244200 On ch=2 n=74 v=82
244320 Off ch=2 n=71 v=64
244320 Off ch=2 n=81 v=64
244320 Off ch=2 n=77 v=64
244320 Off ch=2 n=74 v=64
244320 On ch=2 n=60 v=117
244320 On ch=2 n=69 v=71
244320 On ch=2 n=69 v=82
244320 On ch=2 n=79 v=82
244320 On ch=2 n=75 v=82
244320 On ch=2 n=72 v=82
244389 Off ch=2 n=60 v=64
244416 Off ch=2 n=69 v=64
244416 Off ch=2 n=69 v=64
244448 Off ch=2 n=79 v=64
244448 Off ch=2 n=75 v=64
244448 Off ch=2 n=72 v=64
244560 On ch=2 n=57 v=117
244560 On ch=2 n=72 v=71
244560 On ch=2 n=69 v=102
244560 On ch=2 n=41 v=127
244560 On ch=2 n=79 v=102
244560 On ch=2 n=75 v=102
244560 On ch=2 n=72 v=102
244629 Off ch=2 n=57 v=64
244656 Off ch=2 n=72 v=64
244656 Off ch=2 n=72 v=64
244704 Off ch=2 n=69 v=64
244704 Off ch=2 n=79 v=64
244704 Off ch=2 n=75 v=64
244760 Off ch=2 n=41 v=64
244800 On ch=2 n=62 v=117
244800 On ch=2 n=71 v=71
244869 Off ch=2 n=62 v=64
244896 Off ch=2 n=71 v=64
245040 On ch=2 n=57 v=117
245040 On ch=2 n=74 v=71
245040 On ch=2 n=69 v=102
245040 On ch=2 n=43 v=127
245040 On ch=2 n=79 v=102
245040 On ch=2 n=75 v=102
245040 On ch=2 n=72 v=102
245109 Off ch=2 n=57 v=64
245136 Off ch=2 n=74 v=64
245184 Off ch=2 n=69 v=64
245184 Off ch=2 n=79 v=64
245184 Off ch=2 n=75 v=64
245184 Off ch=2 n=72 v=64
245240 Off ch=2 n=43 v=64
245280 On ch=2 n=60 v=117
245280 On ch=2 n=69 v=71
245280 On ch=2 n=79 v=82
245280 On ch=2 n=72 v=82
245280 On ch=2 n=69 v=82
245280 On ch=2 n=75 v=82
245349 Off ch=2 n=60 v=64
245376 Off ch=2 n=69 v=64
245376 Off ch=2 n=69 v=64
245400 Off ch=2 n=79 v=64
245400 Off ch=2 n=72 v=64
245400 Off ch=2 n=75 v=64
245520 On ch=2 n=57 v=117
245520 On ch=2 n=72 v=71
245589 Off ch=2 n=57 v=64
245616 Off ch=2 n=72 v=64
245640 On ch=2 n=69 v=82
245640 On ch=2 n=79 v=82
245640 On ch=2 n=72 v=82
245640 On ch=2 n=75 v=82
245760 Off ch=2 n=69 v=64
245760 Off ch=2 n=79 v=64
245760 Off ch=2 n=72 v=64
245760 Off ch=2 n=75 v=64
245760 On ch=2 n=62 v=117
245760 On ch=2 n=71 v=71
245760 On ch=2 n=71 v=82
245760 On ch=2 n=74 v=82
245760 On ch=2 n=77 v=82
245760 On ch=2 n=81 v=82
245829 Off ch=2 n=62 v=64
245856 Off ch=2 n=71 v=64
245856 Off ch=2 n=71 v=64
245880 Off ch=2 n=74 v=64
245880 Off ch=2 n=77 v=64
245880 Off ch=2 n=81 v=64
246000 On ch=2 n=57 v=117
246000 On ch=2 n=74 v=71
246069 Off ch=2 n=57 v=64
246096 Off ch=2 n=74 v=64
246120 On ch=2 n=71 v=82
246120 On ch=2 n=74 v=82
246120 On ch=2 n=81 v=82
246120 On ch=2 n=77 v=82
246240 Off ch=2 n=71 v=64
246240 Off ch=2 n=74 v=64
246240 Off ch=2 n=81 v=64
246240 Off ch=2 n=77 v=64
246240 On ch=2 n=60 v=117
246240 On ch=2 n=69 v=71
246240 On ch=2 n=72 v=82
246240 On ch=2 n=83 v=82
246240 On ch=2 n=79 v=82
246240 On ch=2 n=75 v=82
246309 Off ch=2 n=60 v=64
246336 Off ch=2 n=69 v=64
246360 Off ch=2 n=72 v=64
246360 Off ch=2 n=83 v=64
246360 Off ch=2 n=79 v=64
246360 Off ch=2 n=75 v=64
246480 On ch=2 n=57 v=117
246480 On ch=2 n=72 v=71
246549 Off ch=2 n=57 v=64
246576 Off ch=2 n=72 v=64
246600 On ch=2 n=72 v=82
246600 On ch=2 n=83 v=82
246600 On ch=2 n=75 v=82
246600 On ch=2 n=79 v=82
246720 Off ch=2 n=72 v=64
246720 Off ch=2 n=83 v=64
246720 Off ch=2 n=75 v=64
246720 Off ch=2 n=79 v=64
246720 On ch=2 n=62 v=117
246720 On ch=2 n=71 v=71
246720 On ch=2 n=71 v=82
246720 On ch=2 n=74 v=82
246720 On ch=2 n=77 v=82
246720 On ch=2 n=81 v=82
246789 Off ch=2 n=62 v=64
246816 Off ch=2 n=71 v=64
246816 Off ch=2 n=71 v=64
246840 Off ch=2 n=74 v=64
246840 Off ch=2 n=77 v=64
246840 Off ch=2 n=81 v=64
246960 On ch=2 n=57 v=117
246960 On ch=2 n=74 v=71
247029 Off ch=2 n=57 v=64
247056 Off ch=2 n=74 v=64
247080 On ch=2 n=71 v=82
247080 On ch=2 n=77 v=82
247080 On ch=2 n=81 v=82
247080 On ch=2 n=74 v=82
247200 Off ch=2 n=71 v=64
247200 Off ch=2 n=77 v=64
247200 Off ch=2 n=81 v=64
247200 Off ch=2 n=74 v=64
247200 On ch=2 n=60 v=117
247200 On ch=2 n=69 v=71
247200 On ch=2 n=69 v=82
247200 On ch=2 n=72 v=82
247200 On ch=2 n=75 v=82
247200 On ch=2 n=79 v=82
247269 Off ch=2 n=60 v=64
247296 Off ch=2 n=69 v=64
247296 Off ch=2 n=69 v=64
247320 Off ch=2 n=72 v=64
247320 Off ch=2 n=75 v=64
247320 Off ch=2 n=79 v=64
247440 On ch=2 n=57 v=117
247440 On ch=2 n=72 v=71
247509 Off ch=2 n=57 v=64
247536 Off ch=2 n=72 v=64
247560 On ch=2 n=69 v=82
247560 On ch=2 n=79 v=82
247560 On ch=2 n=72 v=82
247560 On ch=2 n=75 v=82
247680 Off ch=2 n=69 v=64
247680 Off ch=2 n=79 v=64
247680 Off ch=2 n=72 v=64
247680 Off ch=2 n=75 v=64
247680 On ch=2 n=62 v=117
247680 On ch=2 n=71 v=71
247680 On ch=2 n=71 v=82
247680 On ch=2 n=74 v=82
247680 On ch=2 n=77 v=82
247680 On ch=2 n=81 v=82
247749 Off ch=2 n=62 v=64
247776 Off ch=2 n=71 v=64
247776 Off ch=2 n=71 v=64
247800 Off ch=2 n=74 v=64
247800 Off ch=2 n=77 v=64
247800 Off ch=2 n=81 v=64
247920 On ch=2 n=57 v=117
247920 On ch=2 n=74 v=71
247989 Off ch=2 n=57 v=64
248016 Off ch=2 n=74 v=64
248040 On ch=2 n=71 v=82
248040 On ch=2 n=81 v=82
248040 On ch=2 n=77 v=82
248040 On ch=2 n=74 v=82
248160 Off ch=2 n=71 v=64
248160 Off ch=2 n=81 v=64
248160 Off ch=2 n=77 v=64
248160 Off ch=2 n=74 v=64
248160 On ch=2 n=60 v=117
248160 On ch=2 n=69 v=71
248160 On ch=2 n=69 v=82
248160 On ch=2 n=79 v=82
248160 On ch=2 n=75 v=82
248160 On ch=2 n=72 v=82
248229 Off ch=2 n=60 v=64
248256 Off ch=2 n=69 v=64
248256 Off ch=2 n=69 v=64
248288 Off ch=2 n=79 v=64
248288 Off ch=2 n=75 v=64
248288 Off ch=2 n=72 v=64
248400 On ch=2 n=57 v=117
248400 On ch=2 n=72 v=71
248400 On ch=2 n=69 v=100
248400 On ch=2 n=41 v=127
248400 On ch=2 n=79 v=100
248400 On ch=2 n=75 v=100
248400 On ch=2 n=72 v=100
248469 Off ch=2 n=57 v=64
248496 Off ch=2 n=72 v=64
248496 Off ch=2 n=72 v=64
248544 Off ch=2 n=69 v=64
248544 Off ch=2 n=79 v=64
248544 Off ch=2 n=75 v=64
248600 Off ch=2 n=41 v=64
248640 On ch=2 n=62 v=117
248640 On ch=2 n=71 v=71
248709 Off ch=2 n=62 v=64
248736 Off ch=2 n=71 v=64
248880 On ch=2 n=57 v=117
248880 On ch=2 n=74 v=71
248880 On ch=2 n=69 v=100
248880 On ch=2 n=43 v=127
248880 On ch=2 n=79 v=100
248880 On ch=2 n=75 v=100
248880 On ch=2 n=72 v=100
248949 Off ch=2 n=57 v=64
248976 Off ch=2 n=74 v=64
249024 Off ch=2 n=69 v=64
249024 Off ch=2 n=79 v=64
249024 Off ch=2 n=75 v=64
249024 Off ch=2 n=72 v=64
249080 Off ch=2 n=43 v=64
249120 On ch=2 n=60 v=117
249120 On ch=2 n=69 v=71
249120 On ch=2 n=79 v=82
249120 On ch=2 n=72 v=82
249120 On ch=2 n=69 v=82
249120 On ch=2 n=75 v=82
249189 Off ch=2 n=60 v=64
249216 Off ch=2 n=69 v=64
249216 Off ch=2 n=69 v=64
249240 Off ch=2 n=79 v=64
249240 Off ch=2 n=72 v=64
249240 Off ch=2 n=75 v=64
249360 On ch=2 n=57 v=117
249360 On ch=2 n=72 v=71
249429 Off ch=2 n=57 v=64
249456 Off ch=2 n=72 v=64
249480 On ch=2 n=69 v=82
249480 On ch=2 n=79 v=82
249480 On ch=2 n=72 v=82
249480 On ch=2 n=75 v=82
249600 Off ch=2 n=69 v=64
249600 Off ch=2 n=79 v=64
249600 Off ch=2 n=72 v=64
249600 Off ch=2 n=75 v=64
249600 On ch=2 n=62 v=117
249600 On ch=2 n=71 v=71
249600 On ch=2 n=71 v=82
249600 On ch=2 n=74 v=82
249600 On ch=2 n=77 v=82
249600 On ch=2 n=81 v=82
249669 Off ch=2 n=62 v=64
249696 Off ch=2 n=71 v=64
249696 Off ch=2 n=71 v=64
249720 Off ch=2 n=74 v=64
249720 Off ch=2 n=77 v=64
249720 Off ch=2 n=81 v=64
249840 On ch=2 n=57 v=117
249840 On ch=2 n=74 v=71
249909 Off ch=2 n=57 v=64
249936 Off ch=2 n=74 v=64
249960 On ch=2 n=71 v=82
249960 On ch=2 n=74 v=82
249960 On ch=2 n=81 v=82
249960 On ch=2 n=77 v=82
250080 Off ch=2 n=71 v=64
250080 Off ch=2 n=74 v=64
250080 Off ch=2 n=81 v=64
250080 Off ch=2 n=77 v=64
250080 On ch=2 n=60 v=117
250080 On ch=2 n=69 v=71
250080 On ch=2 n=72 v=82
250080 On ch=2 n=83 v=82
250080 On ch=2 n=79 v=82
250080 On ch=2 n=75 v=82
250149 Off ch=2 n=60 v=64
250176 Off ch=2 n=69 v=64
250200 Off ch=2 n=72 v=64
250200 Off ch=2 n=83 v=64
250200 Off ch=2 n=79 v=64
250200 Off ch=2 n=75 v=64
250320 On ch=2 n=57 v=117
250320 On ch=2 n=72 v=71
250389 Off ch=2 n=57 v=64
250416 Off ch=2 n=72 v=64
250440 On ch=2 n=72 v=82
250440 On ch=2 n=83 v=82
250440 On ch=2 n=75 v=82
250440 On ch=2 n=79 v=82
250560 Off ch=2 n=72 v=64
250560 Off ch=2 n=83 v=64
250560 Off ch=2 n=75 v=64
250560 Off ch=2 n=79 v=64
250560 On ch=2 n=62 v=117
250560 On ch=2 n=71 v=71
250560 On ch=2 n=71 v=82
250560 On ch=2 n=74 v=82
250560 On ch=2 n=77 v=82
250560 On ch=2 n=81 v=82
250629 Off ch=2 n=62 v=64
250656 Off ch=2 n=71 v=64
250656 Off ch=2 n=71 v=64
250680 Off ch=2 n=74 v=64
250680 Off ch=2 n=77 v=64
250680 Off ch=2 n=81 v=64
250800 On ch=2 n=57 v=117
250800 On ch=2 n=74 v=71
250869 Off ch=2 n=57 v=64
250896 Off ch=2 n=74 v=64
250920 On ch=2 n=71 v=82
250920 On ch=2 n=77 v=82
250920 On ch=2 n=81 v=82
250920 On ch=2 n=74 v=82
251040 Off ch=2 n=71 v=64
251040 Off ch=2 n=77 v=64
251040 Off ch=2 n=81 v=64
251040 Off ch=2 n=74 v=64
251040 On ch=2 n=60 v=117
251040 On ch=2 n=69 v=71
251040 On ch=2 n=69 v=82
251040 On ch=2 n=72 v=82
251040 On ch=2 n=75 v=82
251040 On ch=2 n=79 v=82
251109 Off ch=2 n=60 v=64
251136 Off ch=2 n=69 v=64
251136 Off ch=2 n=69 v=64
251160 Off ch=2 n=72 v=64
251160 Off ch=2 n=75 v=64
251160 Off ch=2 n=79 v=64
251280 On ch=2 n=57 v=117
251280 On ch=2 n=72 v=71
251349 Off ch=2 n=57 v=64
251376 Off ch=2 n=72 v=64
251400 On ch=2 n=69 v=82
251400 On ch=2 n=79 v=82
251400 On ch=2 n=72 v=82
251400 On ch=2 n=75 v=82
251520 Off ch=2 n=69 v=64
251520 Off ch=2 n=79 v=64
251520 Off ch=2 n=72 v=64
251520 Off ch=2 n=75 v=64
251520 On ch=2 n=62 v=117
251520 On ch=2 n=71 v=71
251520 On ch=2 n=71 v=82
251520 On ch=2 n=74 v=82
251520 On ch=2 n=77 v=82
251520 On ch=2 n=81 v=82
251589 Off ch=2 n=62 v=64
251616 Off ch=2 n=71 v=64
251616 Off ch=2 n=71 v=64
251640 Off ch=2 n=74 v=64
251640 Off ch=2 n=77 v=64
251640 Off ch=2 n=81 v=64
251760 On ch=2 n=57 v=117
251760 On ch=2 n=74 v=71
251829 Off ch=2 n=57 v=64
251856 Off ch=2 n=74 v=64
251880 On ch=2 n=71 v=82
251880 On ch=2 n=81 v=82
251880 On ch=2 n=77 v=82
251880 On ch=2 n=74 v=82
252000 Off ch=2 n=71 v=64
252000 Off ch=2 n=81 v=64
252000 Off ch=2 n=77 v=64
252000 Off ch=2 n=74 v=64
252000 On ch=2 n=60 v=117
252000 On ch=2 n=69 v=71
252000 On ch=2 n=69 v=82
252000 On ch=2 n=79 v=82
252000 On ch=2 n=75 v=82
252000 On ch=2 n=72 v=82
252069 Off ch=2 n=60 v=64
252096 Off ch=2 n=69 v=64
252096 Off ch=2 n=69 v=64
252128 Off ch=2 n=79 v=64
252128 Off ch=2 n=75 v=64
252128 Off ch=2 n=72 v=64
252240 On ch=2 n=57 v=117
252240 On ch=2 n=72 v=71
252240 On ch=2 n=69 v=100
252240 On ch=2 n=41 v=127
252240 On ch=2 n=79 v=100
252240 On ch=2 n=75 v=100
252240 On ch=2 n=72 v=100
252309 Off ch=2 n=57 v=64
252336 Off ch=2 n=72 v=64
252336 Off ch=2 n=72 v=64
252384 Off ch=2 n=69 v=64
252384 Off ch=2 n=79 v=64
252384 Off ch=2 n=75 v=64
252440 Off ch=2 n=41 v=64
252480 On ch=2 n=62 v=117
252480 On ch=2 n=71 v=71
252549 Off ch=2 n=62 v=64
252576 Off ch=2 n=71 v=64
252720 On ch=2 n=57 v=117
252720 On ch=2 n=74 v=71
252720 On ch=2 n=69 v=100
252720 On ch=2 n=43 v=127
252720 On ch=2 n=79 v=100
252720 On ch=2 n=75 v=100
252720 On ch=2 n=72 v=100
252789 Off ch=2 n=57 v=64
252816 Off ch=2 n=74 v=64
252864 Off ch=2 n=69 v=64
252864 Off ch=2 n=79 v=64
252864 Off ch=2 n=75 v=64
252864 Off ch=2 n=72 v=64
252920 Off ch=2 n=43 v=64
252960 On ch=2 n=67 v=76
252960 On ch=2 n=75 v=76
252960 On ch=2 n=73 v=76
252960 On ch=2 n=70 v=76
258240 On ch=2 n=69 v=92
258297 Off ch=2 n=69 v=64
258360 On ch=2 n=69 v=92
258417 Off ch=2 n=69 v=64
258480 On ch=2 n=74 v=92
258537 Off ch=2 n=74 v=64
258600 On ch=2 n=74 v=92
258657 Off ch=2 n=74 v=64
258720 On ch=2 n=69 v=92
258777 Off ch=2 n=69 v=64
258840 On ch=2 n=69 v=92
258897 Off ch=2 n=69 v=64
258960 On ch=2 n=74 v=92
259017 Off ch=2 n=74 v=64
259080 On ch=2 n=74 v=92
259137 Off ch=2 n=74 v=64
259200 On ch=2 n=76 v=92
259257 Off ch=2 n=76 v=64
259320 On ch=2 n=76 v=92
259377 Off ch=2 n=76 v=64
259440 On ch=2 n=79 v=92
259497 Off ch=2 n=79 v=64
259560 On ch=2 n=79 v=92
259617 Off ch=2 n=79 v=64
259680 On ch=2 n=78 v=92
259737 Off ch=2 n=78 v=64
259800 On ch=2 n=78 v=92
259857 Off ch=2 n=78 v=64
259920 On ch=2 n=76 v=92
259977 Off ch=2 n=76 v=64
260040 On ch=2 n=76 v=92
260097 Off ch=2 n=76 v=64
260160 On ch=2 n=74 v=92
260217 Off ch=2 n=74 v=64
260280 On ch=2 n=74 v=92
260337 Off ch=2 n=74 v=64
260400 On ch=2 n=69 v=92
260457 Off ch=2 n=69 v=64
260520 On ch=2 n=69 v=92
260577 Off ch=2 n=69 v=64
260640 On ch=2 n=71 v=92
260697 Off ch=2 n=71 v=64
260760 On ch=2 n=71 v=92
260817 Off ch=2 n=71 v=64
260880 On ch=2 n=74 v=92
260937 Off ch=2 n=74 v=64
261000 On ch=2 n=74 v=92
261057 Off ch=2 n=74 v=64
261120 On ch=2 n=79 v=92
261177 Off ch=2 n=79 v=64
261240 On ch=2 n=79 v=92
261297 Off ch=2 n=79 v=64
261360 On ch=2 n=78 v=92
261417 Off ch=2 n=78 v=64
261480 On ch=2 n=78 v=92
261537 Off ch=2 n=78 v=64
261600 On ch=2 n=76 v=92
261657 Off ch=2 n=76 v=64
261720 On ch=2 n=76 v=92
261777 Off ch=2 n=76 v=64
261840 On ch=2 n=74 v=92
261897 Off ch=2 n=74 v=64
261960 On ch=2 n=74 v=92
262017 Off ch=2 n=74 v=64
262080 On ch=2 n=69 v=92
262137 Off ch=2 n=69 v=64
262200 On ch=2 n=69 v=92
262257 Off ch=2 n=69 v=64
262560 On ch=2 n=71 v=92
262617 Off ch=2 n=71 v=64
262680 On ch=2 n=71 v=92
262737 Off ch=2 n=71 v=64
262800 On ch=2 n=74 v=92
262857 Off ch=2 n=74 v=64
262920 On ch=2 n=74 v=92
262977 Off ch=2 n=74 v=64
263040 On ch=2 n=72 v=92
263097 Off ch=2 n=72 v=64
263160 On ch=2 n=72 v=92
263217 Off ch=2 n=72 v=64
263280 On ch=2 n=69 v=92
263337 Off ch=2 n=69 v=64
263400 On ch=2 n=69 v=92
263457 Off ch=2 n=69 v=64
263520 On ch=2 n=69 v=92
263577 Off ch=2 n=69 v=64
263640 On ch=2 n=69 v=92
263697 Off ch=2 n=69 v=64
263760 Off ch=2 n=67 v=64
263760 Off ch=2 n=75 v=64
263760 Off ch=2 n=73 v=64
263760 Off ch=2 n=70 v=64
263760 On ch=2 n=71 v=68
263760 On ch=2 n=75 v=68
263760 On ch=2 n=66 v=68
263760 On ch=2 n=69 v=68
264000 Off ch=2 n=71 v=64
264000 Off ch=2 n=75 v=64
264000 Off ch=2 n=66 v=64
264000 Off ch=2 n=69 v=64
270235 On ch=2 n=45 v=127
270310 Off ch=2 n=45 v=64
270475 On ch=2 n=49 v=127
270550 Off ch=2 n=49 v=64
270715 On ch=2 n=52 v=127
270790 Off ch=2 n=52 v=64
270955 On ch=2 n=48 v=127
271030 Off ch=2 n=48 v=64
271195 On ch=2 n=52 v=127
271275 Off ch=2 n=52 v=64
271435 On ch=2 n=55 v=127
271510 Off ch=2 n=55 v=64
271675 On ch=2 n=57 v=127
271750 Off ch=2 n=57 v=64
271915 On ch=2 n=61 v=127
271990 Off ch=2 n=61 v=64
272155 On ch=2 n=64 v=127
272230 Off ch=2 n=64 v=64
272395 On ch=2 n=60 v=127
272470 Off ch=2 n=60 v=64
286800 On ch=2 n=66 v=108
286800 On ch=2 n=74 v=108
286800 On ch=2 n=69 v=108
286800 On ch=2 n=72 v=108
286923 Off ch=2 n=66 v=64
286923 Off ch=2 n=74 v=64
286923 Off ch=2 n=69 v=64
286923 Off ch=2 n=72 v=64
287040 On ch=2 n=65 v=108
287040 On ch=2 n=73 v=108
287040 On ch=2 n=71 v=108
287040 On ch=2 n=68 v=108
287163 Off ch=2 n=65 v=64
287163 Off ch=2 n=73 v=64
287163 Off ch=2 n=71 v=64
287163 Off ch=2 n=68 v=64
287280 On ch=2 n=64 v=108
287280 On ch=2 n=72 v=108
287280 On ch=2 n=67 v=108
287280 On ch=2 n=70 v=108
287403 Off ch=2 n=64 v=64
287403 Off ch=2 n=72 v=64
287403 Off ch=2 n=67 v=64
287403 Off ch=2 n=70 v=64
292560 On ch=2 n=45 v=127
292701 Off ch=2 n=45 v=64
292800 On ch=2 n=49 v=127
292941 Off ch=2 n=49 v=64
293040 On ch=2 n=52 v=127
293181 Off ch=2 n=52 v=64
293280 On ch=2 n=48 v=127
293421 Off ch=2 n=48 v=64
293520 On ch=2 n=52 v=127
293661 Off ch=2 n=52 v=64
294720 On ch=2 n=52 v=112
294720 On ch=2 n=48 v=112
294720 On ch=2 n=55 v=112
294816 Off ch=2 n=52 v=64
294816 Off ch=2 n=48 v=64
294816 Off ch=2 n=55 v=64
294960 On ch=2 n=56 v=112
294960 On ch=2 n=52 v=112
294960 On ch=2 n=59 v=112
295056 Off ch=2 n=56 v=64
295056 Off ch=2 n=52 v=64
295056 Off ch=2 n=59 v=64
295200 On ch=2 n=55 v=112
295200 On ch=2 n=62 v=112
295200 On ch=2 n=59 v=112
295296 Off ch=2 n=55 v=64
295296 Off ch=2 n=62 v=64
295296 Off ch=2 n=59 v=64
295440 On ch=2 n=51 v=112
295440 On ch=2 n=55 v=112
295440 On ch=2 n=58 v=112
295536 Off ch=2 n=51 v=64
295536 Off ch=2 n=55 v=64
295536 Off ch=2 n=58 v=64
295680 On ch=2 n=62 v=112
295680 On ch=2 n=59 v=112
295680 On ch=2 n=55 v=112
295776 Off ch=2 n=62 v=64
295776 Off ch=2 n=59 v=64
295776 Off ch=2 n=55 v=64
295920 On ch=2 n=58 v=112
295920 On ch=2 n=65 v=112
295920 On ch=2 n=62 v=112
296016 Off ch=2 n=58 v=64
296016 Off ch=2 n=65 v=64
296016 Off ch=2 n=62 v=64
296160 On ch=2 n=67 v=112
296160 On ch=2 n=64 v=112
296160 On ch=2 n=60 v=112
296256 Off ch=2 n=67 v=64
296256 Off ch=2 n=64 v=64
296256 Off ch=2 n=60 v=64
296400 On ch=2 n=64 v=112
296400 On ch=2 n=71 v=112
296400 On ch=2 n=68 v=112
296496 Off ch=2 n=64 v=64
296496 Off ch=2 n=71 v=64
296496 Off ch=2 n=68 v=64
296640 On ch=2 n=67 v=112
296640 On ch=2 n=71 v=112
296640 On ch=2 n=74 v=112
296736 Off ch=2 n=67 v=64
296736 Off ch=2 n=71 v=64
296736 Off ch=2 n=74 v=64
296880 On ch=2 n=67 v=112
296880 On ch=2 n=70 v=112
296880 On ch=2 n=63 v=112
296976 Off ch=2 n=67 v=64
296976 Off ch=2 n=70 v=64
296976 Off ch=2 n=63 v=64
298320 On ch=2 n=76 v=54
298320 On ch=2 n=79 v=54
298320 On ch=2 n=81 v=54
298320 On ch=2 n=73 v=54
298398 Off ch=2 n=76 v=64
298398 Off ch=2 n=79 v=64
298398 Off ch=2 n=81 v=64
298398 Off ch=2 n=73 v=64
298440 On ch=2 n=76 v=53
298440 On ch=2 n=73 v=53
298440 On ch=2 n=79 v=53
298440 On ch=2 n=81 v=53
298518 Off ch=2 n=76 v=64
298518 Off ch=2 n=73 v=64
298518 Off ch=2 n=79 v=64
298518 Off ch=2 n=81 v=64
298560 On ch=2 n=76 v=51
298560 On ch=2 n=73 v=51
298560 On ch=2 n=79 v=51
298560 On ch=2 n=81 v=51
298638 Off ch=2 n=76 v=64
298638 Off ch=2 n=73 v=64
298638 Off ch=2 n=79 v=64
298638 Off ch=2 n=81 v=64
298680 On ch=2 n=76 v=49
298680 On ch=2 n=79 v=49
298680 On ch=2 n=73 v=49
298680 On ch=2 n=81 v=49
298758 Off ch=2 n=76 v=64
298758 Off ch=2 n=79 v=64
298758 Off ch=2 n=73 v=64
298758 Off ch=2 n=81 v=64
298800 On ch=2 n=73 v=47
298800 On ch=2 n=76 v=47
298800 On ch=2 n=79 v=47
298800 On ch=2 n=81 v=47
298878 Off ch=2 n=73 v=64
298878 Off ch=2 n=76 v=64
298878 Off ch=2 n=79 v=64
298878 Off ch=2 n=81 v=64
298920 On ch=2 n=73 v=44
298920 On ch=2 n=76 v=44
298920 On ch=2 n=79 v=44
298920 On ch=2 n=81 v=44
298998 Off ch=2 n=73 v=64
298998 Off ch=2 n=76 v=64
298998 Off ch=2 n=79 v=64
298998 Off ch=2 n=81 v=64
301200 On ch=2 n=76 v=63
301200 On ch=2 n=79 v=63
301200 On ch=2 n=81 v=63
301200 On ch=2 n=73 v=63
301278 Off ch=2 n=76 v=64
301278 Off ch=2 n=79 v=64
301278 Off ch=2 n=81 v=64
301278 Off ch=2 n=73 v=64
301320 On ch=2 n=76 v=61
301320 On ch=2 n=73 v=61
301320 On ch=2 n=79 v=61
301320 On ch=2 n=81 v=61
301398 Off ch=2 n=76 v=64
301398 Off ch=2 n=73 v=64
301398 Off ch=2 n=79 v=64
301398 Off ch=2 n=81 v=64
301440 On ch=2 n=76 v=58
301440 On ch=2 n=73 v=58
301440 On ch=2 n=79 v=58
301440 On ch=2 n=81 v=58
301518 Off ch=2 n=76 v=64
301518 Off ch=2 n=73 v=64
301518 Off ch=2 n=79 v=64
301518 Off ch=2 n=81 v=64
301560 On ch=2 n=76 v=56
301560 On ch=2 n=79 v=56
301560 On ch=2 n=73 v=56
301560 On ch=2 n=81 v=56
301638 Off ch=2 n=76 v=64
301638 Off ch=2 n=79 v=64
301638 Off ch=2 n=73 v=64
301638 Off ch=2 n=81 v=64
301680 On ch=2 n=73 v=53
301680 On ch=2 n=76 v=53
301680 On ch=2 n=79 v=53
301680 On ch=2 n=81 v=53
301758 Off ch=2 n=73 v=64
301758 Off ch=2 n=76 v=64
301758 Off ch=2 n=79 v=64
301758 Off ch=2 n=81 v=64
301800 On ch=2 n=73 v=51
301800 On ch=2 n=76 v=51
301800 On ch=2 n=79 v=51
301800 On ch=2 n=81 v=51
301878 Off ch=2 n=73 v=64
301878 Off ch=2 n=76 v=64
301878 Off ch=2 n=79 v=64
301878 Off ch=2 n=81 v=64
304080 On ch=2 n=76 v=75
304080 On ch=2 n=79 v=75
304080 On ch=2 n=81 v=75
304080 On ch=2 n=73 v=75
304158 Off ch=2 n=76 v=64
304158 Off ch=2 n=79 v=64
304158 Off ch=2 n=81 v=64
304158 Off ch=2 n=73 v=64
304200 On ch=2 n=76 v=73
304200 On ch=2 n=73 v=73
304200 On ch=2 n=79 v=73
304200 On ch=2 n=81 v=73
304278 Off ch=2 n=76 v=64
304278 Off ch=2 n=73 v=64
304278 Off ch=2 n=79 v=64
304278 Off ch=2 n=81 v=64
304320 On ch=2 n=76 v=71
304320 On ch=2 n=73 v=71
304320 On ch=2 n=79 v=71
304320 On ch=2 n=81 v=71
304398 Off ch=2 n=76 v=64
304398 Off ch=2 n=73 v=64
304398 Off ch=2 n=79 v=64
304398 Off ch=2 n=81 v=64
304440 On ch=2 n=76 v=69
304440 On ch=2 n=79 v=69
304440 On ch=2 n=73 v=69
304440 On ch=2 n=81 v=69
304518 Off ch=2 n=76 v=64
304518 Off ch=2 n=79 v=64
304518 Off ch=2 n=73 v=64
304518 Off ch=2 n=81 v=64
304560 On ch=2 n=73 v=67
304560 On ch=2 n=76 v=67
304560 On ch=2 n=79 v=67
304560 On ch=2 n=81 v=67
304638 Off ch=2 n=73 v=64
304638 Off ch=2 n=76 v=64
304638 Off ch=2 n=79 v=64
304638 Off ch=2 n=81 v=64
304680 On ch=2 n=73 v=65
304680 On ch=2 n=76 v=65
304680 On ch=2 n=79 v=65
304680 On ch=2 n=81 v=65
304758 Off ch=2 n=73 v=64
304758 Off ch=2 n=76 v=64
304758 Off ch=2 n=79 v=64
304758 Off ch=2 n=81 v=64
308400 On ch=2 n=82 v=82
308400 On ch=2 n=78 v=82
308400 On ch=2 n=55 v=82
308400 On ch=2 n=67 v=82
308400 On ch=2 n=61 v=82
308520 Off ch=2 n=82 v=64
308520 Off ch=2 n=78 v=64
308520 Off ch=2 n=55 v=64
308520 Off ch=2 n=67 v=64
308520 Off ch=2 n=61 v=64
308640 On ch=2 n=80 v=81
308640 On ch=2 n=77 v=81
308640 On ch=2 n=61 v=81
308640 On ch=2 n=67 v=81
308640 On ch=2 n=55 v=81
308760 Off ch=2 n=80 v=64
308760 Off ch=2 n=77 v=64
308760 Off ch=2 n=61 v=64
308760 Off ch=2 n=67 v=64
308760 Off ch=2 n=55 v=64
308880 On ch=2 n=82 v=78
308880 On ch=2 n=78 v=78
308880 On ch=2 n=67 v=78
308880 On ch=2 n=61 v=78
308880 On ch=2 n=55 v=78
309000 Off ch=2 n=82 v=64
309000 Off ch=2 n=78 v=64
309000 Off ch=2 n=67 v=64
309000 Off ch=2 n=61 v=64
309000 Off ch=2 n=55 v=64
309120 On ch=2 n=80 v=75
309120 On ch=2 n=77 v=75
309120 On ch=2 n=67 v=75
309120 On ch=2 n=61 v=75
309120 On ch=2 n=55 v=75
309240 Off ch=2 n=80 v=64
309240 Off ch=2 n=77 v=64
309240 Off ch=2 n=67 v=64
309240 Off ch=2 n=61 v=64
309240 Off ch=2 n=55 v=64
309360 On ch=2 n=78 v=73
309360 On ch=2 n=75 v=73
309360 On ch=2 n=67 v=73
309360 On ch=2 n=61 v=73
309360 On ch=2 n=55 v=73
309480 Off ch=2 n=78 v=64
309480 Off ch=2 n=75 v=64
309480 Off ch=2 n=67 v=64
309480 Off ch=2 n=61 v=64
309480 Off ch=2 n=55 v=64
309600 On ch=2 n=77 v=70
309600 On ch=2 n=73 v=70
309600 On ch=2 n=67 v=70
309600 On ch=2 n=61 v=70
309600 On ch=2 n=55 v=70
309720 Off ch=2 n=77 v=64
309720 Off ch=2 n=73 v=64
309720 Off ch=2 n=67 v=64
309720 Off ch=2 n=61 v=64
309720 Off ch=2 n=55 v=64
309840 On ch=2 n=78 v=67
309840 On ch=2 n=75 v=67
309840 On ch=2 n=55 v=67
309840 On ch=2 n=67 v=67
309840 On ch=2 n=61 v=67
309960 Off ch=2 n=78 v=64
309960 Off ch=2 n=75 v=64
309960 Off ch=2 n=55 v=64
309960 Off ch=2 n=67 v=64
309960 Off ch=2 n=61 v=64
310080 On ch=2 n=75 v=82
310080 On ch=2 n=72 v=82
310080 On ch=2 n=67 v=82
310080 On ch=2 n=55 v=82
310080 On ch=2 n=61 v=82
310200 Off ch=2 n=75 v=64
310200 Off ch=2 n=72 v=64
310200 Off ch=2 n=67 v=64
310200 Off ch=2 n=55 v=64
310200 Off ch=2 n=61 v=64
310320 On ch=2 n=75 v=72
310320 On ch=2 n=72 v=72
310320 On ch=2 n=55 v=72
310320 On ch=2 n=67 v=72
310320 On ch=2 n=61 v=72
310440 Off ch=2 n=75 v=64
310440 Off ch=2 n=72 v=64
310440 Off ch=2 n=55 v=64
310440 Off ch=2 n=67 v=64
310440 Off ch=2 n=61 v=64
310560 On ch=2 n=75 v=82
310560 On ch=2 n=72 v=82
310560 On ch=2 n=67 v=82
310560 On ch=2 n=55 v=82
310560 On ch=2 n=61 v=82
310680 Off ch=2 n=75 v=64
310680 Off ch=2 n=72 v=64
310680 Off ch=2 n=67 v=64
310680 Off ch=2 n=55 v=64
310680 Off ch=2 n=61 v=64
310800 On ch=2 n=77 v=72
310800 On ch=2 n=73 v=72
310800 On ch=2 n=67 v=72
310800 On ch=2 n=55 v=72
310800 On ch=2 n=61 v=72
310920 Off ch=2 n=77 v=64
310920 Off ch=2 n=73 v=64
310920 Off ch=2 n=67 v=64
310920 Off ch=2 n=55 v=64
310920 Off ch=2 n=61 v=64
311040 On ch=2 n=78 v=82
311040 On ch=2 n=75 v=82
311040 On ch=2 n=67 v=82
311040 On ch=2 n=55 v=82
311040 On ch=2 n=61 v=82
311160 Off ch=2 n=78 v=64
311160 Off ch=2 n=75 v=64
311160 Off ch=2 n=67 v=64
311160 Off ch=2 n=55 v=64
311160 Off ch=2 n=61 v=64
311280 On ch=2 n=80 v=75
311280 On ch=2 n=77 v=75
311280 On ch=2 n=67 v=75
311280 On ch=2 n=55 v=75
311280 On ch=2 n=61 v=75
311400 Off ch=2 n=80 v=64
311400 Off ch=2 n=77 v=64
311400 Off ch=2 n=67 v=64
311400 Off ch=2 n=55 v=64
311400 Off ch=2 n=61 v=64
311520 On ch=2 n=82 v=82
311520 On ch=2 n=78 v=82
311520 On ch=2 n=55 v=82
311520 On ch=2 n=67 v=82
311520 On ch=2 n=61 v=82
311640 Off ch=2 n=82 v=64
311640 Off ch=2 n=78 v=64
311640 Off ch=2 n=55 v=64
311640 Off ch=2 n=67 v=64
311640 Off ch=2 n=61 v=64
313920 On ch=2 n=81 v=82
313920 On ch=2 n=77 v=82
313920 On ch=2 n=60 v=82
313920 On ch=2 n=48 v=82
313920 On ch=2 n=54 v=82
314040 Off ch=2 n=81 v=64
314040 Off ch=2 n=77 v=64
314040 Off ch=2 n=60 v=64
314040 Off ch=2 n=48 v=64
314040 Off ch=2 n=54 v=64
314160 On ch=2 n=79 v=81
314160 On ch=2 n=76 v=81
314160 On ch=2 n=60 v=81
314160 On ch=2 n=48 v=81
314160 On ch=2 n=54 v=81
314280 Off ch=2 n=79 v=64
314280 Off ch=2 n=76 v=64
314280 Off ch=2 n=60 v=64
314280 Off ch=2 n=48 v=64
314280 Off ch=2 n=54 v=64
314400 On ch=2 n=81 v=79
314400 On ch=2 n=77 v=79
314400 On ch=2 n=54 v=79
314400 On ch=2 n=60 v=79
314400 On ch=2 n=48 v=79
314520 Off ch=2 n=81 v=64
314520 Off ch=2 n=77 v=64
314520 Off ch=2 n=54 v=64
314520 Off ch=2 n=60 v=64
314520 Off ch=2 n=48 v=64
314640 On ch=2 n=79 v=76
314640 On ch=2 n=76 v=76
314640 On ch=2 n=60 v=76
314640 On ch=2 n=54 v=76
314640 On ch=2 n=48 v=76
314760 Off ch=2 n=79 v=64
314760 Off ch=2 n=76 v=64
314760 Off ch=2 n=60 v=64
314760 Off ch=2 n=54 v=64
314760 Off ch=2 n=48 v=64
314880 On ch=2 n=77 v=74
314880 On ch=2 n=74 v=74
314880 On ch=2 n=60 v=74
314880 On ch=2 n=54 v=74
314880 On ch=2 n=48 v=74
315000 Off ch=2 n=77 v=64
315000 Off ch=2 n=74 v=64
315000 Off ch=2 n=60 v=64
315000 Off ch=2 n=54 v=64
315000 Off ch=2 n=48 v=64
315120 On ch=2 n=76 v=71
315120 On ch=2 n=72 v=71
315120 On ch=2 n=60 v=71
315120 On ch=2 n=54 v=71
315120 On ch=2 n=48 v=71
315240 Off ch=2 n=76 v=64
315240 Off ch=2 n=72 v=64
315240 Off ch=2 n=60 v=64
315240 Off ch=2 n=54 v=64
315240 Off ch=2 n=48 v=64
315360 On ch=2 n=74 v=82
315360 On ch=2 n=71 v=82
315360 On ch=2 n=60 v=82
315360 On ch=2 n=48 v=82
315360 On ch=2 n=54 v=82
315480 Off ch=2 n=74 v=64
315480 Off ch=2 n=71 v=64
315480 Off ch=2 n=60 v=64
315480 Off ch=2 n=48 v=64
315480 Off ch=2 n=54 v=64
315600 On ch=2 n=74 v=76
315600 On ch=2 n=71 v=76
315600 On ch=2 n=60 v=76
315600 On ch=2 n=54 v=76
315600 On ch=2 n=48 v=76
315720 Off ch=2 n=74 v=64
315720 Off ch=2 n=71 v=64
315720 Off ch=2 n=60 v=64
315720 Off ch=2 n=54 v=64
315720 Off ch=2 n=48 v=64
315840 On ch=2 n=74 v=82
315840 On ch=2 n=71 v=82
315840 On ch=2 n=60 v=82
315840 On ch=2 n=54 v=82
315840 On ch=2 n=48 v=82
315960 Off ch=2 n=74 v=64
315960 Off ch=2 n=71 v=64
315960 Off ch=2 n=60 v=64
315960 Off ch=2 n=54 v=64
315960 Off ch=2 n=48 v=64
316080 On ch=2 n=76 v=75
316080 On ch=2 n=72 v=75
316080 On ch=2 n=60 v=75
316080 On ch=2 n=54 v=75
316080 On ch=2 n=48 v=75
316200 Off ch=2 n=76 v=64
316200 Off ch=2 n=72 v=64
316200 Off ch=2 n=60 v=64
316200 Off ch=2 n=54 v=64
316200 Off ch=2 n=48 v=64
316320 On ch=2 n=77 v=82
316320 On ch=2 n=74 v=82
316320 On ch=2 n=60 v=82
316320 On ch=2 n=54 v=82
316320 On ch=2 n=48 v=82
316440 Off ch=2 n=77 v=64
316440 Off ch=2 n=74 v=64
316440 Off ch=2 n=60 v=64
316440 Off ch=2 n=54 v=64
316440 Off ch=2 n=48 v=64
316560 On ch=2 n=79 v=73
316560 On ch=2 n=76 v=73
316560 On ch=2 n=60 v=73
316560 On ch=2 n=54 v=73
316560 On ch=2 n=48 v=73
316680 Off ch=2 n=79 v=64
316680 Off ch=2 n=76 v=64
316680 Off ch=2 n=60 v=64
316680 Off ch=2 n=54 v=64
316680 Off ch=2 n=48 v=64
316800 On ch=2 n=72 v=44
316800 On ch=2 n=69 v=44
316800 On ch=2 n=75 v=44
316800 On ch=2 n=77 v=44
316888 Off ch=2 n=72 v=64
316888 Off ch=2 n=69 v=64
316888 Off ch=2 n=75 v=64
316888 Off ch=2 n=77 v=64
316920 On ch=2 n=75 v=44
316920 On ch=2 n=77 v=44
316920 On ch=2 n=69 v=44
316920 On ch=2 n=72 v=44
317008 Off ch=2 n=75 v=64
317008 Off ch=2 n=77 v=64
317008 Off ch=2 n=69 v=64
317008 Off ch=2 n=72 v=64
317040 On ch=2 n=75 v=44
317040 On ch=2 n=77 v=44
317040 On ch=2 n=72 v=44
317040 On ch=2 n=69 v=44
317128 Off ch=2 n=75 v=64
317128 Off ch=2 n=77 v=64
317128 Off ch=2 n=72 v=64
317128 Off ch=2 n=69 v=64
317160 On ch=2 n=75 v=44
317160 On ch=2 n=69 v=44
317160 On ch=2 n=77 v=44
317160 On ch=2 n=72 v=44
317248 Off ch=2 n=75 v=64
317248 Off ch=2 n=69 v=64
317248 Off ch=2 n=77 v=64
317248 Off ch=2 n=72 v=64
317280 On ch=2 n=72 v=44
317280 On ch=2 n=75 v=44
317280 On ch=2 n=77 v=44
317280 On ch=2 n=69 v=44
317368 Off ch=2 n=72 v=64
317368 Off ch=2 n=75 v=64
317368 Off ch=2 n=77 v=64
317368 Off ch=2 n=69 v=64
317400 On ch=2 n=75 v=44
317400 On ch=2 n=69 v=44
317400 On ch=2 n=72 v=44
317400 On ch=2 n=77 v=44
317488 Off ch=2 n=75 v=64
317488 Off ch=2 n=69 v=64
317488 Off ch=2 n=72 v=64
317488 Off ch=2 n=77 v=64
317520 On ch=2 n=75 v=44
317520 On ch=2 n=77 v=44
317520 On ch=2 n=72 v=44
317520 On ch=2 n=69 v=44
317608 Off ch=2 n=75 v=64
317608 Off ch=2 n=77 v=64
317608 Off ch=2 n=72 v=64
317608 Off ch=2 n=69 v=64
317640 On ch=2 n=69 v=44
317640 On ch=2 n=75 v=44
317640 On ch=2 n=72 v=44
317640 On ch=2 n=77 v=44
317728 Off ch=2 n=69 v=64
317728 Off ch=2 n=75 v=64
317728 Off ch=2 n=72 v=64
317728 Off ch=2 n=77 v=64
317760 On ch=2 n=75 v=44
317760 On ch=2 n=77 v=44
317760 On ch=2 n=69 v=44
317760 On ch=2 n=72 v=44
317848 Off ch=2 n=75 v=64
317848 Off ch=2 n=77 v=64
317848 Off ch=2 n=69 v=64
317848 Off ch=2 n=72 v=64
317880 On ch=2 n=69 v=44
317880 On ch=2 n=72 v=44
317880 On ch=2 n=75 v=44
317880 On ch=2 n=77 v=44
317968 Off ch=2 n=69 v=64
317968 Off ch=2 n=72 v=64
317968 Off ch=2 n=75 v=64
317968 Off ch=2 n=77 v=64
318000 On ch=2 n=75 v=44
318000 On ch=2 n=72 v=44
318000 On ch=2 n=77 v=44
318000 On ch=2 n=69 v=44
318088 Off ch=2 n=75 v=64
318088 Off ch=2 n=72 v=64
318088 Off ch=2 n=77 v=64
318088 Off ch=2 n=69 v=64
318120 On ch=2 n=69 v=44
318120 On ch=2 n=72 v=44
318120 On ch=2 n=75 v=44
318120 On ch=2 n=77 v=44
318208 Off ch=2 n=69 v=64
318208 Off ch=2 n=72 v=64
318208 Off ch=2 n=75 v=64
318208 Off ch=2 n=77 v=64
318240 On ch=2 n=75 v=44
318240 On ch=2 n=72 v=44
318240 On ch=2 n=77 v=44
318240 On ch=2 n=69 v=44
318328 Off ch=2 n=75 v=64
318328 Off ch=2 n=72 v=64
318328 Off ch=2 n=77 v=64
318328 Off ch=2 n=69 v=64
318360 On ch=2 n=69 v=44
318360 On ch=2 n=72 v=44
318360 On ch=2 n=75 v=44
318360 On ch=2 n=77 v=44
318448 Off ch=2 n=69 v=64
318448 Off ch=2 n=72 v=64
318448 Off ch=2 n=75 v=64
318448 Off ch=2 n=77 v=64
318480 On ch=2 n=75 v=45
318480 On ch=2 n=72 v=45
318480 On ch=2 n=69 v=45
318480 On ch=2 n=77 v=45
318568 Off ch=2 n=75 v=64
318568 Off ch=2 n=72 v=64
318568 Off ch=2 n=69 v=64
318568 Off ch=2 n=77 v=64
318600 On ch=2 n=72 v=45
318600 On ch=2 n=69 v=45
318600 On ch=2 n=77 v=45
318600 On ch=2 n=75 v=45
318688 Off ch=2 n=72 v=64
318688 Off ch=2 n=69 v=64
318688 Off ch=2 n=77 v=64
318688 Off ch=2 n=75 v=64
318720 On ch=2 n=75 v=45
318720 On ch=2 n=72 v=45
318720 On ch=2 n=69 v=45
318720 On ch=2 n=77 v=45
318808 Off ch=2 n=75 v=64
318808 Off ch=2 n=72 v=64
318808 Off ch=2 n=69 v=64
318808 Off ch=2 n=77 v=64
318840 On ch=2 n=69 v=45
318840 On ch=2 n=72 v=45
318840 On ch=2 n=77 v=45
318840 On ch=2 n=75 v=45
318928 Off ch=2 n=69 v=64
318928 Off ch=2 n=72 v=64
318928 Off ch=2 n=77 v=64
318928 Off ch=2 n=75 v=64
318960 On ch=2 n=72 v=45
318960 On ch=2 n=69 v=45
318960 On ch=2 n=75 v=45
318960 On ch=2 n=77 v=45
319048 Off ch=2 n=72 v=64
319048 Off ch=2 n=69 v=64
319048 Off ch=2 n=75 v=64
319048 Off ch=2 n=77 v=64
319080 On ch=2 n=69 v=45
319080 On ch=2 n=72 v=45
319080 On ch=2 n=77 v=45
319080 On ch=2 n=75 v=45
319168 Off ch=2 n=69 v=64
319168 Off ch=2 n=72 v=64
319168 Off ch=2 n=77 v=64
319168 Off ch=2 n=75 v=64
319200 On ch=2 n=69 v=45
319200 On ch=2 n=72 v=45
319200 On ch=2 n=75 v=45
319200 On ch=2 n=77 v=45
319288 Off ch=2 n=69 v=64
319288 Off ch=2 n=72 v=64
319288 Off ch=2 n=75 v=64
319288 Off ch=2 n=77 v=64
319320 On ch=2 n=69 v=45
319320 On ch=2 n=72 v=45
319320 On ch=2 n=75 v=45
319320 On ch=2 n=77 v=45
319408 Off ch=2 n=69 v=64
319408 Off ch=2 n=72 v=64
319408 Off ch=2 n=75 v=64
319408 Off ch=2 n=77 v=64
319440 On ch=2 n=75 v=45
319440 On ch=2 n=77 v=45
319440 On ch=2 n=69 v=45
319440 On ch=2 n=72 v=45
319528 Off ch=2 n=75 v=64
319528 Off ch=2 n=77 v=64
319528 Off ch=2 n=69 v=64
319528 Off ch=2 n=72 v=64
319560 On ch=2 n=69 v=45
319560 On ch=2 n=72 v=45
319560 On ch=2 n=77 v=45
319560 On ch=2 n=75 v=45
319648 Off ch=2 n=69 v=64
319648 Off ch=2 n=72 v=64
319648 Off ch=2 n=77 v=64
319648 Off ch=2 n=75 v=64
319680 On ch=2 n=77 v=45
319680 On ch=2 n=69 v=45
319680 On ch=2 n=72 v=45
319680 On ch=2 n=75 v=45
319768 Off ch=2 n=77 v=64
319768 Off ch=2 n=69 v=64
319768 Off ch=2 n=72 v=64
319768 Off ch=2 n=75 v=64
319800 On ch=2 n=72 v=45
319800 On ch=2 n=69 v=45
319800 On ch=2 n=75 v=45
319800 On ch=2 n=77 v=45
319888 Off ch=2 n=72 v=64
319888 Off ch=2 n=69 v=64
319888 Off ch=2 n=75 v=64
319888 Off ch=2 n=77 v=64
319920 On ch=2 n=69 v=45
319920 On ch=2 n=72 v=45
319920 On ch=2 n=77 v=45
319920 On ch=2 n=75 v=45
320008 Off ch=2 n=69 v=64
320008 Off ch=2 n=72 v=64
320008 Off ch=2 n=77 v=64
320008 Off ch=2 n=75 v=64
320040 On ch=2 n=72 v=45
320040 On ch=2 n=69 v=45
320040 On ch=2 n=75 v=45
320040 On ch=2 n=77 v=45
320128 Off ch=2 n=72 v=64
320128 Off ch=2 n=69 v=64
320128 Off ch=2 n=75 v=64
320128 Off ch=2 n=77 v=64
320160 On ch=2 n=69 v=46
320160 On ch=2 n=72 v=46
320160 On ch=2 n=75 v=46
320160 On ch=2 n=77 v=46
320248 Off ch=2 n=69 v=64
320248 Off ch=2 n=72 v=64
320248 Off ch=2 n=75 v=64
320248 Off ch=2 n=77 v=64
320280 On ch=2 n=69 v=46
320280 On ch=2 n=72 v=46
320280 On ch=2 n=75 v=46
320280 On ch=2 n=77 v=46
320368 Off ch=2 n=69 v=64
320368 Off ch=2 n=72 v=64
320368 Off ch=2 n=75 v=64
320368 Off ch=2 n=77 v=64
320400 On ch=2 n=77 v=46
320400 On ch=2 n=72 v=46
320400 On ch=2 n=75 v=46
320400 On ch=2 n=69 v=46
320488 Off ch=2 n=77 v=64
320488 Off ch=2 n=72 v=64
320488 Off ch=2 n=75 v=64
320488 Off ch=2 n=69 v=64
320520 On ch=2 n=72 v=46
320520 On ch=2 n=69 v=46
320520 On ch=2 n=77 v=46
320520 On ch=2 n=75 v=46
320608 Off ch=2 n=72 v=64
320608 Off ch=2 n=69 v=64
320608 Off ch=2 n=77 v=64
320608 Off ch=2 n=75 v=64
320640 On ch=2 n=77 v=46
320640 On ch=2 n=69 v=46
320640 On ch=2 n=75 v=46
320640 On ch=2 n=72 v=46
320728 Off ch=2 n=77 v=64
320728 Off ch=2 n=69 v=64
320728 Off ch=2 n=75 v=64
320728 Off ch=2 n=72 v=64
320760 On ch=2 n=69 v=46
320760 On ch=2 n=72 v=46
320760 On ch=2 n=75 v=46
320760 On ch=2 n=77 v=46
320848 Off ch=2 n=69 v=64
320848 Off ch=2 n=72 v=64
320848 Off ch=2 n=75 v=64
320848 Off ch=2 n=77 v=64
320880 On ch=2 n=77 v=46
320880 On ch=2 n=69 v=46
320880 On ch=2 n=75 v=46
320880 On ch=2 n=72 v=46
320968 Off ch=2 n=77 v=64
320968 Off ch=2 n=69 v=64
320968 Off ch=2 n=75 v=64
320968 Off ch=2 n=72 v=64
321000 On ch=2 n=69 v=46
321000 On ch=2 n=72 v=46
321000 On ch=2 n=75 v=46
321000 On ch=2 n=77 v=46
321088 Off ch=2 n=69 v=64
321088 Off ch=2 n=72 v=64
321088 Off ch=2 n=75 v=64
321088 Off ch=2 n=77 v=64
321120 On ch=2 n=72 v=46
321120 On ch=2 n=69 v=46
321120 On ch=2 n=75 v=46
321120 On ch=2 n=77 v=46
321208 Off ch=2 n=72 v=64
321208 Off ch=2 n=69 v=64
321208 Off ch=2 n=75 v=64
321208 Off ch=2 n=77 v=64
321240 On ch=2 n=69 v=46
321240 On ch=2 n=72 v=46
321240 On ch=2 n=75 v=46
321240 On ch=2 n=77 v=46
321328 Off ch=2 n=69 v=64
321328 Off ch=2 n=72 v=64
321328 Off ch=2 n=75 v=64
321328 Off ch=2 n=77 v=64
321360 On ch=2 n=72 v=46
321360 On ch=2 n=69 v=46
321360 On ch=2 n=75 v=46
321360 On ch=2 n=77 v=46
321448 Off ch=2 n=72 v=64
321448 Off ch=2 n=69 v=64
321448 Off ch=2 n=75 v=64
321448 Off ch=2 n=77 v=64
321480 On ch=2 n=69 v=46
321480 On ch=2 n=72 v=46
321480 On ch=2 n=75 v=46
321480 On ch=2 n=77 v=46
321568 Off ch=2 n=69 v=64
321568 Off ch=2 n=72 v=64
321568 Off ch=2 n=75 v=64
321568 Off ch=2 n=77 v=64
321600 On ch=2 n=69 v=46
321600 On ch=2 n=72 v=46
321600 On ch=2 n=75 v=46
321600 On ch=2 n=77 v=46
321688 Off ch=2 n=69 v=64
321688 Off ch=2 n=72 v=64
321688 Off ch=2 n=75 v=64
321688 Off ch=2 n=77 v=64
321720 On ch=2 n=69 v=46
321720 On ch=2 n=75 v=46
321720 On ch=2 n=72 v=46
321720 On ch=2 n=77 v=46
321808 Off ch=2 n=69 v=64
321808 Off ch=2 n=75 v=64
321808 Off ch=2 n=72 v=64
321808 Off ch=2 n=77 v=64
321840 On ch=2 n=69 v=47
321840 On ch=2 n=77 v=47
321840 On ch=2 n=75 v=47
321840 On ch=2 n=72 v=47
321928 Off ch=2 n=69 v=64
321928 Off ch=2 n=77 v=64
321928 Off ch=2 n=75 v=64
321928 Off ch=2 n=72 v=64
321960 On ch=2 n=69 v=47
321960 On ch=2 n=72 v=47
321960 On ch=2 n=75 v=47
321960 On ch=2 n=77 v=47
322048 Off ch=2 n=69 v=64
322048 Off ch=2 n=72 v=64
322048 Off ch=2 n=75 v=64
322048 Off ch=2 n=77 v=64
322080 On ch=2 n=69 v=47
322080 On ch=2 n=72 v=47
322080 On ch=2 n=75 v=47
322080 On ch=2 n=77 v=47
322168 Off ch=2 n=69 v=64
322168 Off ch=2 n=72 v=64
322168 Off ch=2 n=75 v=64
322168 Off ch=2 n=77 v=64
322200 On ch=2 n=72 v=47
322200 On ch=2 n=69 v=47
322200 On ch=2 n=75 v=47
322200 On ch=2 n=77 v=47
322288 Off ch=2 n=72 v=64
322288 Off ch=2 n=69 v=64
322288 Off ch=2 n=75 v=64
322288 Off ch=2 n=77 v=64
322320 On ch=2 n=69 v=47
322320 On ch=2 n=72 v=47
322320 On ch=2 n=75 v=47
322320 On ch=2 n=77 v=47
322408 Off ch=2 n=69 v=64
322408 Off ch=2 n=72 v=64
322408 Off ch=2 n=75 v=64
322408 Off ch=2 n=77 v=64
322440 On ch=2 n=69 v=47
322440 On ch=2 n=72 v=47
322440 On ch=2 n=77 v=47
322440 On ch=2 n=75 v=47
322528 Off ch=2 n=69 v=64
322528 Off ch=2 n=72 v=64
322528 Off ch=2 n=77 v=64
322528 Off ch=2 n=75 v=64
322560 On ch=2 n=77 v=47
322560 On ch=2 n=75 v=47
322560 On ch=2 n=72 v=47
322560 On ch=2 n=69 v=47
322648 Off ch=2 n=77 v=64
322648 Off ch=2 n=75 v=64
322648 Off ch=2 n=72 v=64
322648 Off ch=2 n=69 v=64
322680 On ch=2 n=69 v=47
322680 On ch=2 n=72 v=47
322680 On ch=2 n=77 v=47
322680 On ch=2 n=75 v=47
322768 Off ch=2 n=69 v=64
322768 Off ch=2 n=72 v=64
322768 Off ch=2 n=77 v=64
322768 Off ch=2 n=75 v=64
322800 On ch=2 n=69 v=47
322800 On ch=2 n=72 v=47
322800 On ch=2 n=77 v=47
322800 On ch=2 n=75 v=47
322888 Off ch=2 n=69 v=64
322888 Off ch=2 n=72 v=64
322888 Off ch=2 n=77 v=64
322888 Off ch=2 n=75 v=64
322920 On ch=2 n=72 v=47
322920 On ch=2 n=69 v=47
322920 On ch=2 n=75 v=47
322920 On ch=2 n=77 v=47
323008 Off ch=2 n=72 v=64
323008 Off ch=2 n=69 v=64
323008 Off ch=2 n=75 v=64
323008 Off ch=2 n=77 v=64
323040 On ch=2 n=69 v=47
323040 On ch=2 n=72 v=47
323040 On ch=2 n=77 v=47
323040 On ch=2 n=75 v=47
323128 Off ch=2 n=69 v=64
323128 Off ch=2 n=72 v=64
323128 Off ch=2 n=77 v=64
323128 Off ch=2 n=75 v=64
323160 On ch=2 n=69 v=47
323160 On ch=2 n=72 v=47
323160 On ch=2 n=75 v=47
323160 On ch=2 n=77 v=47
323248 Off ch=2 n=69 v=64
323248 Off ch=2 n=72 v=64
323248 Off ch=2 n=75 v=64
323248 Off ch=2 n=77 v=64
323280 On ch=2 n=75 v=47
323280 On ch=2 n=69 v=47
323280 On ch=2 n=77 v=47
323280 On ch=2 n=72 v=47
323368 Off ch=2 n=75 v=64
323368 Off ch=2 n=69 v=64
323368 Off ch=2 n=77 v=64
323368 Off ch=2 n=72 v=64
327300 Par ch=2 c=7 v=127
327371 Par ch=2 c=7 v=127
327600 On ch=2 n=72 v=66
327744 Off ch=2 n=72 v=64
327840 On ch=2 n=72 v=66
327984 Off ch=2 n=72 v=64
328080 On ch=2 n=72 v=66
328224 Off ch=2 n=72 v=64
328320 On ch=2 n=69 v=66
328464 Off ch=2 n=69 v=64
328560 On ch=2 n=69 v=66
328704 Off ch=2 n=69 v=64
328800 On ch=2 n=69 v=66
328944 Off ch=2 n=69 v=64
329040 On ch=2 n=66 v=66
329040 On ch=2 n=74 v=66
329184 Off ch=2 n=66 v=64
329184 Off ch=2 n=74 v=64
329280 On ch=2 n=74 v=66
329424 Off ch=2 n=74 v=64
329520 On ch=2 n=74 v=66
329520 On ch=2 n=54 v=127
329520 On ch=2 n=66 v=127
329664 Off ch=2 n=74 v=64
329664 Off ch=2 n=54 v=64
329664 Off ch=2 n=66 v=64
329760 On ch=2 n=75 v=66
329760 On ch=2 n=71 v=66
329760 On ch=2 n=49 v=127
329760 On ch=2 n=61 v=127
329904 Off ch=2 n=75 v=64
329904 Off ch=2 n=71 v=64
330000 On ch=2 n=75 v=66
330000 On ch=2 n=71 v=66
330144 Off ch=2 n=75 v=64
330144 Off ch=2 n=71 v=64
330240 On ch=2 n=75 v=66
330240 On ch=2 n=71 v=66
330384 Off ch=2 n=75 v=64
330384 Off ch=2 n=71 v=64
330480 On ch=2 n=77 v=66
330480 On ch=2 n=70 v=66
330480 On ch=2 n=65 v=66
330480 On ch=2 n=69 v=66
330480 On ch=2 n=81 v=66
330624 Off ch=2 n=77 v=64
330624 Off ch=2 n=70 v=64
330624 Off ch=2 n=65 v=64
330624 Off ch=2 n=69 v=64
330624 Off ch=2 n=81 v=64
330720 On ch=2 n=77 v=66
330720 On ch=2 n=70 v=66
330720 On ch=2 n=69 v=66
330720 On ch=2 n=65 v=66
330720 On ch=2 n=81 v=66
330864 Off ch=2 n=77 v=64
330864 Off ch=2 n=70 v=64
330864 Off ch=2 n=69 v=64
330864 Off ch=2 n=65 v=64
330864 Off ch=2 n=81 v=64
330960 On ch=2 n=77 v=66
330960 On ch=2 n=70 v=66
330960 On ch=2 n=69 v=66
330960 On ch=2 n=65 v=66
330960 On ch=2 n=81 v=66
331104 Off ch=2 n=77 v=64
331104 Off ch=2 n=70 v=64
331104 Off ch=2 n=69 v=64
331104 Off ch=2 n=65 v=64
331104 Off ch=2 n=81 v=64
331192 Off ch=2 n=49 v=64
331192 Off ch=2 n=61 v=64
331200 On ch=2 n=78 v=66
331200 On ch=2 n=67 v=66
331200 On ch=2 n=66 v=66
331200 On ch=2 n=62 v=66
331200 On ch=2 n=74 v=66
331344 Off ch=2 n=78 v=64
331344 Off ch=2 n=67 v=64
331344 Off ch=2 n=66 v=64
331344 Off ch=2 n=62 v=64
331344 Off ch=2 n=74 v=64
331440 On ch=2 n=78 v=66
331440 On ch=2 n=67 v=66
331440 On ch=2 n=66 v=66
331440 On ch=2 n=62 v=66
331440 On ch=2 n=74 v=66
331584 Off ch=2 n=78 v=64
331584 Off ch=2 n=67 v=64
331584 Off ch=2 n=66 v=64
331584 Off ch=2 n=62 v=64
331584 Off ch=2 n=74 v=64
331680 On ch=2 n=78 v=66
331680 On ch=2 n=67 v=66
331680 On ch=2 n=66 v=66
331680 On ch=2 n=62 v=66
331680 On ch=2 n=74 v=66
331824 Off ch=2 n=78 v=64
331824 Off ch=2 n=67 v=64
331824 Off ch=2 n=66 v=64
331824 Off ch=2 n=62 v=64
331824 Off ch=2 n=74 v=64
331920 On ch=2 n=64 v=66
331920 On ch=2 n=71 v=66
331920 On ch=2 n=63 v=66
331920 On ch=2 n=75 v=66
332064 Off ch=2 n=64 v=64
332064 Off ch=2 n=71 v=64
332064 Off ch=2 n=63 v=64
332064 Off ch=2 n=75 v=64
332160 On ch=2 n=71 v=66
332160 On ch=2 n=64 v=66
332160 On ch=2 n=63 v=66
332160 On ch=2 n=75 v=66
332304 Off ch=2 n=71 v=64
332304 Off ch=2 n=64 v=64
332304 Off ch=2 n=63 v=64
332304 Off ch=2 n=75 v=64
332400 On ch=2 n=71 v=66
332400 On ch=2 n=64 v=66
332400 On ch=2 n=63 v=66
332400 On ch=2 n=75 v=66
332544 Off ch=2 n=71 v=64
332544 Off ch=2 n=64 v=64
332544 Off ch=2 n=63 v=64
332544 Off ch=2 n=75 v=64
332640 On ch=2 n=63 v=66
332640 On ch=2 n=72 v=66
332640 On ch=2 n=68 v=66
332640 On ch=2 n=68 v=66
332784 Off ch=2 n=63 v=64
332784 Off ch=2 n=72 v=64
332784 Off ch=2 n=68 v=64
332784 Off ch=2 n=68 v=64
332880 On ch=2 n=63 v=66
332880 On ch=2 n=72 v=66
332880 On ch=2 n=68 v=66
333024 Off ch=2 n=63 v=64
333024 Off ch=2 n=72 v=64
333024 Off ch=2 n=68 v=64
333120 On ch=2 n=72 v=66
333120 On ch=2 n=63 v=66
333120 On ch=2 n=68 v=66
333264 Off ch=2 n=72 v=64
333264 Off ch=2 n=63 v=64
333264 Off ch=2 n=68 v=64
333360 On ch=2 n=65 v=66
333360 On ch=2 n=58 v=66
333360 On ch=2 n=69 v=66
333504 Off ch=2 n=65 v=64
333504 Off ch=2 n=58 v=64
333504 Off ch=2 n=69 v=64
333600 On ch=2 n=58 v=66
333600 On ch=2 n=65 v=66
333600 On ch=2 n=69 v=66
333744 Off ch=2 n=58 v=64
333744 Off ch=2 n=65 v=64
333744 Off ch=2 n=69 v=64
333840 On ch=2 n=58 v=66
333840 On ch=2 n=65 v=66
333840 On ch=2 n=69 v=66
333984 Off ch=2 n=58 v=64
333984 Off ch=2 n=65 v=64
333984 Off ch=2 n=69 v=64
334800 On ch=2 n=65 v=64
334920 Off ch=2 n=65 v=64
335040 On ch=2 n=70 v=64
335160 Off ch=2 n=70 v=64
335280 On ch=2 n=65 v=64
335400 Off ch=2 n=65 v=64
335520 On ch=2 n=70 v=64
335640 Off ch=2 n=70 v=64
335760 On ch=2 n=72 v=64
335880 Off ch=2 n=72 v=64
336000 On ch=2 n=75 v=64
336120 Off ch=2 n=75 v=64
336240 On ch=2 n=74 v=64
336360 Off ch=2 n=74 v=64
336480 On ch=2 n=72 v=64
336600 Off ch=2 n=72 v=64
336720 On ch=2 n=70 v=64
336840 Off ch=2 n=70 v=64
336960 On ch=2 n=65 v=64
337080 Off ch=2 n=65 v=64
337920 On ch=2 n=70 v=78
338040 Off ch=2 n=70 v=64
338160 On ch=2 n=65 v=64
338280 Off ch=2 n=65 v=64
338400 On ch=2 n=70 v=64
338520 Off ch=2 n=70 v=64
338640 On ch=2 n=72 v=64
338760 Off ch=2 n=72 v=64
338880 On ch=2 n=75 v=80
339000 Off ch=2 n=75 v=64
339120 On ch=2 n=74 v=64
339240 Off ch=2 n=74 v=64
339360 On ch=2 n=72 v=64
339480 Off ch=2 n=72 v=64
339600 On ch=2 n=70 v=64
339720 Off ch=2 n=70 v=64
339840 On ch=2 n=65 v=64
339960 Off ch=2 n=65 v=64
340080 On ch=2 n=70 v=84
340200 Off ch=2 n=70 v=64
340320 On ch=2 n=75 v=64
340440 Off ch=2 n=75 v=64
340560 On ch=2 n=74 v=64
340680 Off ch=2 n=74 v=64
340800 On ch=2 n=72 v=64
340920 Off ch=2 n=72 v=64
341040 On ch=2 n=70 v=64
341160 Off ch=2 n=70 v=64
341280 On ch=2 n=65 v=64
341400 Off ch=2 n=65 v=64
341520 On ch=2 n=67 v=86
341640 Off ch=2 n=67 v=64
341760 On ch=2 n=70 v=64
341880 Off ch=2 n=70 v=64
342000 On ch=2 n=68 v=64
342120 Off ch=2 n=68 v=64
342240 On ch=2 n=65 v=64
342360 Off ch=2 n=65 v=64
342480 On ch=2 n=65 v=64
342600 Off ch=2 n=65 v=64
357120 On ch=2 n=72 v=98
357120 On ch=2 n=77 v=98
357120 On ch=2 n=80 v=98
357120 On ch=2 n=60 v=98
357120 On ch=2 n=54 v=98
357120 On ch=2 n=48 v=98
357120 On ch=2 n=68 v=98
357120 On ch=2 n=36 v=98
357318 Off ch=2 n=72 v=64
357318 Off ch=2 n=77 v=64
357318 Off ch=2 n=80 v=64
357318 Off ch=2 n=60 v=64
357318 Off ch=2 n=54 v=64
357318 Off ch=2 n=48 v=64
357318 Off ch=2 n=68 v=64
357318 Off ch=2 n=36 v=64
358560 On ch=2 n=72 v=98
358560 On ch=2 n=77 v=98
358560 On ch=2 n=80 v=98
358560 On ch=2 n=60 v=98
358560 On ch=2 n=54 v=98
358560 On ch=2 n=48 v=98
358560 On ch=2 n=68 v=98
358560 On ch=2 n=36 v=98
358758 Off ch=2 n=72 v=64
358758 Off ch=2 n=77 v=64
358758 Off ch=2 n=80 v=64
358758 Off ch=2 n=60 v=64
358758 Off ch=2 n=54 v=64
358758 Off ch=2 n=48 v=64
358758 Off ch=2 n=68 v=64
358758 Off ch=2 n=36 v=64
360000 On ch=2 n=72 v=98
360000 On ch=2 n=77 v=98
360000 On ch=2 n=80 v=98
360000 On ch=2 n=60 v=98
360000 On ch=2 n=54 v=98
360000 On ch=2 n=48 v=98
360000 On ch=2 n=68 v=98
360000 On ch=2 n=36 v=98
360198 Off ch=2 n=72 v=64
360198 Off ch=2 n=77 v=64
360198 Off ch=2 n=80 v=64
360198 Off ch=2 n=60 v=64
360198 Off ch=2 n=54 v=64
360198 Off ch=2 n=48 v=64
360198 Off ch=2 n=68 v=64
360198 Off ch=2 n=36 v=64
360960 On ch=2 n=72 v=98
360960 On ch=2 n=77 v=98
360960 On ch=2 n=80 v=98
360960 On ch=2 n=60 v=98
360960 On ch=2 n=54 v=98
360960 On ch=2 n=48 v=98
360960 On ch=2 n=68 v=98
360960 On ch=2 n=36 v=98
361158 Off ch=2 n=72 v=64
361158 Off ch=2 n=77 v=64
361158 Off ch=2 n=80 v=64
361158 Off ch=2 n=60 v=64
361158 Off ch=2 n=54 v=64
361158 Off ch=2 n=48 v=64
361158 Off ch=2 n=68 v=64
361158 Off ch=2 n=36 v=64
524160 Meta TrkEnd
TrkEnd
MTrk
0 Meta InstrName "SC-88VL"
0 Meta TrkName "Flute"
480 Par ch=3 c=0 v=0
480 Par ch=3 c=32 v=1
480 PrCh ch=3 p=73
960 Par ch=3 c=93 v=0
960 Par ch=3 c=91 v=110
970 Par ch=3 c=7 v=100
30720 On ch=3 n=69 v=48
30800 Off ch=3 n=69 v=64
30800 On ch=3 n=75 v=46
30880 Off ch=3 n=75 v=64
30880 On ch=3 n=73 v=45
30960 Off ch=3 n=73 v=64
30960 On ch=3 n=80 v=44
31020 Off ch=3 n=80 v=64
31020 On ch=3 n=78 v=45
31080 Off ch=3 n=78 v=64
31080 On ch=3 n=87 v=46
31140 Off ch=3 n=87 v=64
31140 On ch=3 n=80 v=48
31200 Off ch=3 n=80 v=64
31200 On ch=3 n=92 v=49
31466 On ch=3 n=80 v=47
31473 Off ch=3 n=92 v=64
31520 Off ch=3 n=80 v=64
31520 On ch=3 n=87 v=46
31573 Off ch=3 n=87 v=64
31573 On ch=3 n=78 v=45
31626 Off ch=3 n=78 v=64
31626 On ch=3 n=80 v=43
31680 Off ch=3 n=80 v=64
31680 On ch=3 n=75 v=42
31946 On ch=3 n=80 v=44
31949 Off ch=3 n=75 v=64
32000 Off ch=3 n=80 v=64
32000 On ch=3 n=78 v=47
32053 Off ch=3 n=78 v=64
32053 On ch=3 n=87 v=50
32106 Off ch=3 n=87 v=64
32106 On ch=3 n=80 v=52
32160 Off ch=3 n=80 v=64
32160 On ch=3 n=92 v=55
32208 On ch=3 n=80 v=51
32256 Off ch=3 n=80 v=64
32256 On ch=3 n=87 v=48
32302 Off ch=3 n=92 v=64
32304 Off ch=3 n=87 v=64
32304 On ch=3 n=78 v=45
32352 Off ch=3 n=78 v=64
32352 On ch=3 n=92 v=42
32400 Off ch=3 n=92 v=64
32400 On ch=3 n=80 v=51
32448 On ch=3 n=87 v=49
32496 Off ch=3 n=87 v=64
32496 On ch=3 n=78 v=47
32538 Off ch=3 n=80 v=64
32544 Off ch=3 n=78 v=64
32544 On ch=3 n=80 v=45
32592 Off ch=3 n=80 v=64
32592 On ch=3 n=75 v=44
32640 Off ch=3 n=75 v=64
32640 On ch=3 n=73 v=34
35040 On ch=3 n=62 v=34
37120 Off ch=3 n=62 v=64
37120 On ch=3 n=64 v=40
37120 On ch=3 n=59 v=35
37120 On ch=3 n=71 v=40
37144 Off ch=3 n=73 v=64
37280 Off ch=3 n=64 v=64
37280 Off ch=3 n=59 v=64
37280 Off ch=3 n=71 v=64
37280 On ch=3 n=63 v=40
37280 On ch=3 n=58 v=35
37280 On ch=3 n=72 v=40
37440 Off ch=3 n=63 v=64
37440 Off ch=3 n=58 v=64
37440 Off ch=3 n=72 v=64
37440 On ch=3 n=62 v=40
37440 On ch=3 n=57 v=35
37440 On ch=3 n=69 v=40
37600 Off ch=3 n=62 v=64
37600 Off ch=3 n=57 v=64
37600 Off ch=3 n=69 v=64
37600 On ch=3 n=63 v=40
37600 On ch=3 n=58 v=35
37600 On ch=3 n=72 v=40
37760 Off ch=3 n=63 v=64
37760 Off ch=3 n=58 v=64
37760 Off ch=3 n=72 v=64
37760 On ch=3 n=64 v=40
37760 On ch=3 n=59 v=35
37760 On ch=3 n=71 v=40
37920 Off ch=3 n=64 v=64
37920 Off ch=3 n=59 v=64
37920 Off ch=3 n=71 v=64
37920 On ch=3 n=65 v=40
37920 On ch=3 n=60 v=35
37920 On ch=3 n=74 v=40
38080 Off ch=3 n=65 v=64
38080 Off ch=3 n=60 v=64
38080 Off ch=3 n=74 v=64
38080 On ch=3 n=64 v=40
38080 On ch=3 n=59 v=35
38080 On ch=3 n=71 v=40
38240 Off ch=3 n=64 v=64
38240 Off ch=3 n=59 v=64
38240 Off ch=3 n=71 v=64
38240 On ch=3 n=63 v=40
38240 On ch=3 n=58 v=35
38240 On ch=3 n=72 v=40
38400 Off ch=3 n=63 v=64
38400 Off ch=3 n=58 v=64
38400 Off ch=3 n=72 v=64
38400 On ch=3 n=62 v=40
38400 On ch=3 n=57 v=35
38400 On ch=3 n=69 v=40
38560 Off ch=3 n=62 v=64
38560 Off ch=3 n=57 v=64
38560 Off ch=3 n=69 v=64
38560 On ch=3 n=63 v=40
38560 On ch=3 n=58 v=35
38560 On ch=3 n=72 v=40
38720 Off ch=3 n=63 v=64
38720 Off ch=3 n=58 v=64
38720 Off ch=3 n=72 v=64
38720 On ch=3 n=64 v=40
38720 On ch=3 n=59 v=35
38720 On ch=3 n=71 v=40
38880 Off ch=3 n=64 v=64
38880 Off ch=3 n=59 v=64
38880 Off ch=3 n=71 v=64
38880 On ch=3 n=65 v=40
38880 On ch=3 n=60 v=35
38880 On ch=3 n=74 v=40
39040 Off ch=3 n=65 v=64
39040 Off ch=3 n=60 v=64
39040 Off ch=3 n=74 v=64
39040 On ch=3 n=64 v=40
39040 On ch=3 n=59 v=35
39040 On ch=3 n=71 v=40
39200 Off ch=3 n=64 v=64
39200 Off ch=3 n=59 v=64
39200 Off ch=3 n=71 v=64
39200 On ch=3 n=63 v=40
39200 On ch=3 n=58 v=35
39200 On ch=3 n=72 v=40
39360 Off ch=3 n=63 v=64
39360 Off ch=3 n=58 v=64
39360 Off ch=3 n=72 v=64
39360 On ch=3 n=62 v=40
39360 On ch=3 n=57 v=35
39360 On ch=3 n=69 v=40
39600 Off ch=3 n=62 v=64
39600 Off ch=3 n=57 v=64
39600 Off ch=3 n=69 v=64
39600 On ch=3 n=63 v=40
39600 On ch=3 n=58 v=35
39600 On ch=3 n=72 v=40
39840 Off ch=3 n=63 v=64
39840 Off ch=3 n=58 v=64
39840 Off ch=3 n=72 v=64
39840 On ch=3 n=62 v=40
39840 On ch=3 n=57 v=35
39840 On ch=3 n=69 v=40
40480 On ch=3 n=63 v=40
40480 On ch=3 n=58 v=35
40480 On ch=3 n=74 v=40
40496 Off ch=3 n=62 v=64
40496 Off ch=3 n=57 v=64
40496 Off ch=3 n=69 v=64
40640 Off ch=3 n=63 v=64
40640 Off ch=3 n=58 v=64
40640 Off ch=3 n=74 v=64
40640 On ch=3 n=64 v=40
40640 On ch=3 n=59 v=35
40640 On ch=3 n=72 v=40
40800 Off ch=3 n=64 v=64
40800 Off ch=3 n=59 v=64
40800 Off ch=3 n=72 v=64
40800 On ch=3 n=62 v=40
40800 On ch=3 n=57 v=35
40800 On ch=3 n=69 v=40
41040 Off ch=3 n=62 v=64
41040 Off ch=3 n=57 v=64
41040 Off ch=3 n=69 v=64
41040 On ch=3 n=63 v=40
41040 On ch=3 n=58 v=35
41040 On ch=3 n=72 v=40
41280 Off ch=3 n=63 v=64
41280 Off ch=3 n=58 v=64
41280 Off ch=3 n=72 v=64
41280 On ch=3 n=64 v=40
41280 On ch=3 n=59 v=35
41280 On ch=3 n=71 v=40
41520 Off ch=3 n=64 v=64
41520 Off ch=3 n=59 v=64
41520 Off ch=3 n=71 v=64
41520 On ch=3 n=65 v=40
41520 On ch=3 n=60 v=35
41520 On ch=3 n=74 v=40
41760 Off ch=3 n=65 v=64
41760 Off ch=3 n=60 v=64
41760 Off ch=3 n=74 v=64
41760 On ch=3 n=64 v=40
41760 On ch=3 n=59 v=35
41760 On ch=3 n=71 v=40
42000 Off ch=3 n=64 v=64
42000 Off ch=3 n=59 v=64
42000 Off ch=3 n=71 v=64
42000 On ch=3 n=63 v=40
42000 On ch=3 n=58 v=35
42000 On ch=3 n=72 v=40
42240 Off ch=3 n=63 v=64
42240 Off ch=3 n=58 v=64
42240 Off ch=3 n=72 v=64
42240 On ch=3 n=62 v=40
42240 On ch=3 n=57 v=35
42240 On ch=3 n=69 v=40
42480 Off ch=3 n=62 v=64
42480 Off ch=3 n=57 v=64
42480 Off ch=3 n=69 v=64
42480 On ch=3 n=63 v=40
42480 On ch=3 n=58 v=35
42480 On ch=3 n=72 v=40
42720 Off ch=3 n=63 v=64
42720 Off ch=3 n=58 v=64
42720 Off ch=3 n=72 v=64
42720 On ch=3 n=62 v=40
42720 On ch=3 n=57 v=35
42720 On ch=3 n=69 v=40
43680 Off ch=3 n=69 v=64
43680 On ch=3 n=69 v=36
43733 On ch=3 n=73 v=38
43747 Off ch=3 n=62 v=64
43747 Off ch=3 n=57 v=64
43751 Off ch=3 n=69 v=64
43786 On ch=3 n=76 v=41
43804 Off ch=3 n=73 v=64
43840 On ch=3 n=75 v=43
43858 Off ch=3 n=76 v=64
43893 On ch=3 n=80 v=36
43946 On ch=3 n=72 v=39
43964 Off ch=3 n=80 v=64
43983 Off ch=3 n=75 v=64
44000 On ch=3 n=79 v=41
44018 Off ch=3 n=72 v=64
44053 On ch=3 n=84 v=43
44071 Off ch=3 n=79 v=64
44106 On ch=3 n=82 v=46
44124 Off ch=3 n=84 v=64
44150 On ch=3 n=62 v=46
44160 Off ch=3 n=82 v=64
44160 On ch=3 n=77 v=38
44160 On ch=3 n=58 v=46
44180 Off ch=3 n=62 v=64
44320 Off ch=3 n=58 v=64
44400 Off ch=3 n=77 v=64
44470 On ch=3 n=62 v=46
44480 On ch=3 n=58 v=46
44500 Off ch=3 n=62 v=64
44640 Off ch=3 n=58 v=64
44790 On ch=3 n=62 v=46
44800 On ch=3 n=58 v=46
44820 Off ch=3 n=62 v=64
44960 Off ch=3 n=58 v=64
45110 On ch=3 n=62 v=46
45120 On ch=3 n=58 v=46
45140 Off ch=3 n=62 v=64
45280 Off ch=3 n=58 v=64
45430 On ch=3 n=62 v=46
45440 On ch=3 n=58 v=46
45460 Off ch=3 n=62 v=64
45600 Off ch=3 n=58 v=64
45600 On ch=3 n=80 v=44
45648 Off ch=3 n=80 v=64
45648 On ch=3 n=80 v=47
45696 Off ch=3 n=80 v=64
45696 On ch=3 n=92 v=49
45744 Off ch=3 n=92 v=64
45744 On ch=3 n=92 v=52
45750 On ch=3 n=62 v=46
45760 On ch=3 n=58 v=46
45780 Off ch=3 n=62 v=64
45792 Off ch=3 n=92 v=64
45792 On ch=3 n=92 v=55
45840 Off ch=3 n=92 v=64
45840 On ch=3 n=92 v=58
45888 Off ch=3 n=92 v=64
45888 On ch=3 n=99 v=61
45920 Off ch=3 n=58 v=64
45936 Off ch=3 n=99 v=64
45936 On ch=3 n=99 v=53
45984 Off ch=3 n=99 v=64
45984 On ch=3 n=92 v=44
46032 Off ch=3 n=92 v=64
46032 On ch=3 n=92 v=35
46070 On ch=3 n=62 v=46
46080 Off ch=3 n=92 v=64
46080 On ch=3 n=58 v=46
46080 On ch=3 n=80 v=44
46100 Off ch=3 n=62 v=64
46128 Off ch=3 n=80 v=64
46128 On ch=3 n=80 v=47
46176 Off ch=3 n=80 v=64
46176 On ch=3 n=92 v=49
46224 Off ch=3 n=92 v=64
46224 On ch=3 n=92 v=52
46240 Off ch=3 n=58 v=64
46272 Off ch=3 n=92 v=64
46272 On ch=3 n=92 v=55
46320 Off ch=3 n=92 v=64
46320 On ch=3 n=92 v=58
46368 Off ch=3 n=92 v=64
46368 On ch=3 n=99 v=61
46390 On ch=3 n=62 v=46
46400 On ch=3 n=58 v=46
46416 Off ch=3 n=99 v=64
46416 On ch=3 n=99 v=53
46420 Off ch=3 n=62 v=64
46464 Off ch=3 n=99 v=64
46464 On ch=3 n=92 v=44
46512 Off ch=3 n=92 v=64
46512 On ch=3 n=92 v=35
46560 Off ch=3 n=58 v=64
46560 Off ch=3 n=92 v=64
46560 On ch=3 n=80 v=44
46608 Off ch=3 n=80 v=64
46608 On ch=3 n=80 v=47
46656 Off ch=3 n=80 v=64
46656 On ch=3 n=92 v=49
46704 Off ch=3 n=92 v=64
46704 On ch=3 n=92 v=52
46710 On ch=3 n=62 v=46
46720 On ch=3 n=58 v=46
46740 Off ch=3 n=62 v=64
46752 Off ch=3 n=92 v=64
46752 On ch=3 n=92 v=55
46800 Off ch=3 n=92 v=64
46800 On ch=3 n=92 v=58
46848 Off ch=3 n=92 v=64
46848 On ch=3 n=99 v=61
46880 Off ch=3 n=58 v=64
46896 Off ch=3 n=99 v=64
46896 On ch=3 n=99 v=53
46944 Off ch=3 n=99 v=64
46944 On ch=3 n=92 v=44
46992 Off ch=3 n=92 v=64
46992 On ch=3 n=92 v=35
47040 Off ch=3 n=92 v=64
48000 On ch=3 n=58 v=46
48000 On ch=3 n=80 v=44
48048 Off ch=3 n=80 v=64
48048 On ch=3 n=80 v=47
48096 Off ch=3 n=80 v=64
48096 On ch=3 n=92 v=49
48144 Off ch=3 n=92 v=64
48144 On ch=3 n=92 v=52
48160 Off ch=3 n=58 v=64
48192 Off ch=3 n=92 v=64
48192 On ch=3 n=92 v=55
48240 Off ch=3 n=92 v=64
48240 On ch=3 n=92 v=58
48288 Off ch=3 n=92 v=64
48288 On ch=3 n=99 v=61
48310 On ch=3 n=62 v=46
48320 On ch=3 n=58 v=46
48336 Off ch=3 n=99 v=64
48336 On ch=3 n=99 v=53
48340 Off ch=3 n=62 v=64
48384 Off ch=3 n=99 v=64
48384 On ch=3 n=92 v=44
48432 Off ch=3 n=92 v=64
48432 On ch=3 n=92 v=35
48480 Off ch=3 n=58 v=64
48480 Off ch=3 n=92 v=64
48480 On ch=3 n=80 v=44
48528 Off ch=3 n=80 v=64
48528 On ch=3 n=80 v=47
48576 Off ch=3 n=80 v=64
48576 On ch=3 n=92 v=49
48624 Off ch=3 n=92 v=64
48624 On ch=3 n=92 v=52
48630 On ch=3 n=62 v=46
48640 On ch=3 n=58 v=46
48660 Off ch=3 n=62 v=64
48672 Off ch=3 n=92 v=64
48672 On ch=3 n=92 v=55
48720 Off ch=3 n=92 v=64
48720 On ch=3 n=92 v=58
48768 Off ch=3 n=92 v=64
48768 On ch=3 n=99 v=61
48800 Off ch=3 n=58 v=64
48816 Off ch=3 n=99 v=64
48816 On ch=3 n=99 v=53
48864 Off ch=3 n=99 v=64
48864 On ch=3 n=92 v=44
48912 Off ch=3 n=92 v=64
48912 On ch=3 n=92 v=35
48960 Off ch=3 n=92 v=64
52752 Par ch=3 c=7 v=70
52770 Par ch=3 c=7 v=70
52788 Par ch=3 c=7 v=71
52800 On ch=3 n=87 v=52
52806 Par ch=3 c=7 v=72
52824 Par ch=3 c=7 v=73
52842 Par ch=3 c=7 v=74
52860 Par ch=3 c=7 v=75
52878 Par ch=3 c=7 v=76
52897 Par ch=3 c=7 v=77
52915 Par ch=3 c=7 v=78
52933 Par ch=3 c=7 v=79
52951 Par ch=3 c=7 v=80
52969 Par ch=3 c=7 v=81
52987 Par ch=3 c=7 v=82
53005 Par ch=3 c=7 v=83
53024 Par ch=3 c=7 v=84
53042 Par ch=3 c=7 v=85
53060 Par ch=3 c=7 v=86
53078 Par ch=3 c=7 v=87
53096 Par ch=3 c=7 v=88
53114 Par ch=3 c=7 v=89
53132 Par ch=3 c=7 v=90
53150 Par ch=3 c=7 v=91
53169 Par ch=3 c=7 v=92
53187 Par ch=3 c=7 v=93
53205 Par ch=3 c=7 v=94
53223 Par ch=3 c=7 v=95
53241 Par ch=3 c=7 v=96
53259 Par ch=3 c=7 v=97
53277 Par ch=3 c=7 v=98
53280 Off ch=3 n=87 v=64
53280 On ch=3 n=85 v=52
53295 Par ch=3 c=7 v=100
53490 On ch=3 n=87 v=52
53520 Off ch=3 n=85 v=64
53520 On ch=3 n=73 v=52
53550 Off ch=3 n=87 v=64
53712 Off ch=3 n=73 v=64
53760 On ch=3 n=70 v=52
54224 Par ch=3 c=7 v=100
54240 Off ch=3 n=70 v=64
54240 On ch=3 n=68 v=52
54242 Par ch=3 c=7 v=99
54260 Par ch=3 c=7 v=98
54278 Par ch=3 c=7 v=97
54297 Par ch=3 c=7 v=96
54315 Par ch=3 c=7 v=95
54333 Par ch=3 c=7 v=94
54352 Par ch=3 c=7 v=93
54370 Par ch=3 c=7 v=92
54388 Par ch=3 c=7 v=91
54406 Par ch=3 c=7 v=90
54425 Par ch=3 c=7 v=89
54443 Par ch=3 c=7 v=88
54444 Off ch=3 n=68 v=64
54450 On ch=3 n=68 v=52
54461 Par ch=3 c=7 v=87
54480 On ch=3 n=82 v=52
54480 Par ch=3 c=7 v=86
54498 Par ch=3 c=7 v=85
54510 Off ch=3 n=68 v=64
54516 Par ch=3 c=7 v=84
54534 Par ch=3 c=7 v=83
54553 Par ch=3 c=7 v=82
54571 Par ch=3 c=7 v=81
54589 Par ch=3 c=7 v=80
54608 Par ch=3 c=7 v=79
54626 Par ch=3 c=7 v=78
54644 Par ch=3 c=7 v=77
54662 Par ch=3 c=7 v=76
54672 Off ch=3 n=82 v=64
54681 Par ch=3 c=7 v=75
54699 Par ch=3 c=7 v=74
54717 Par ch=3 c=7 v=73
54720 On ch=3 n=87 v=52
54735 Par ch=3 c=7 v=72
54736 Par ch=3 c=7 v=72
54752 Par ch=3 c=7 v=73
54768 Par ch=3 c=7 v=74
54784 Par ch=3 c=7 v=75
54800 Par ch=3 c=7 v=76
54816 Par ch=3 c=7 v=77
54832 Par ch=3 c=7 v=78
54848 Par ch=3 c=7 v=79
54864 Par ch=3 c=7 v=80
54880 Par ch=3 c=7 v=81
54896 Par ch=3 c=7 v=82
54912 Par ch=3 c=7 v=83
54928 Par ch=3 c=7 v=84
54944 Par ch=3 c=7 v=85
54960 Par ch=3 c=7 v=86
54976 Par ch=3 c=7 v=87
54992 Par ch=3 c=7 v=88
55008 Par ch=3 c=7 v=89
55024 Par ch=3 c=7 v=90
55040 Par ch=3 c=7 v=91
55056 Par ch=3 c=7 v=92
55072 Par ch=3 c=7 v=93
55088 Par ch=3 c=7 v=94
55104 Par ch=3 c=7 v=95
55120 Par ch=3 c=7 v=96
55136 Par ch=3 c=7 v=97
55152 Par ch=3 c=7 v=98
55168 Par ch=3 c=7 v=99
55184 Par ch=3 c=7 v=100
55200 Off ch=3 n=87 v=64
55200 On ch=3 n=85 v=52
55200 Par ch=3 c=7 v=101
55215 Par ch=3 c=7 v=102
55410 On ch=3 n=87 v=52
55440 Off ch=3 n=85 v=64
55440 On ch=3 n=73 v=52
55470 Off ch=3 n=87 v=64
55632 Off ch=3 n=73 v=64
55680 On ch=3 n=70 v=52
56160 Par ch=3 c=7 v=102
56160 Off ch=3 n=70 v=64
56160 On ch=3 n=68 v=52
56177 Par ch=3 c=7 v=101
56194 Par ch=3 c=7 v=100
56211 Par ch=3 c=7 v=99
56228 Par ch=3 c=7 v=98
56245 Par ch=3 c=7 v=97
56262 Par ch=3 c=7 v=96
56279 Par ch=3 c=7 v=95
56296 Par ch=3 c=7 v=94
56313 Par ch=3 c=7 v=93
56330 Par ch=3 c=7 v=92
56347 Par ch=3 c=7 v=91
56364 Off ch=3 n=68 v=64
56364 Par ch=3 c=7 v=90
56370 On ch=3 n=68 v=52
56381 Par ch=3 c=7 v=89
56398 Par ch=3 c=7 v=88
56400 On ch=3 n=82 v=52
56416 Par ch=3 c=7 v=87
56430 Off ch=3 n=68 v=64
56433 Par ch=3 c=7 v=86
56450 Par ch=3 c=7 v=85
56467 Par ch=3 c=7 v=84
56484 Par ch=3 c=7 v=83
56501 Par ch=3 c=7 v=82
56518 Par ch=3 c=7 v=81
56535 Par ch=3 c=7 v=80
56552 Par ch=3 c=7 v=79
56569 Par ch=3 c=7 v=78
56586 Par ch=3 c=7 v=77
56592 Off ch=3 n=82 v=64
56603 Par ch=3 c=7 v=76
56620 Par ch=3 c=7 v=75
56637 Par ch=3 c=7 v=74
56654 Par ch=3 c=7 v=73
56671 Par ch=3 c=7 v=72
61680 On ch=3 n=65 v=61
61720 On ch=3 n=70 v=64
61732 Off ch=3 n=65 v=64
61760 On ch=3 n=72 v=67
61772 Off ch=3 n=70 v=64
61800 On ch=3 n=75 v=69
61812 Off ch=3 n=72 v=64
61840 On ch=3 n=77 v=72
61852 Off ch=3 n=75 v=64
61880 On ch=3 n=82 v=75
61892 Off ch=3 n=77 v=64
61920 On ch=3 n=89 v=78
61932 Off ch=3 n=82 v=64
61968 On ch=3 n=84 v=78
62000 Off ch=3 n=89 v=64
62016 On ch=3 n=87 v=73
62028 Off ch=3 n=84 v=64
62064 On ch=3 n=82 v=68
62076 Off ch=3 n=87 v=64
62112 On ch=3 n=77 v=64
62124 Off ch=3 n=82 v=64
62160 On ch=3 n=72 v=59
62172 Off ch=3 n=77 v=64
62292 Off ch=3 n=72 v=64
62640 On ch=3 n=66 v=39
62674 On ch=3 n=67 v=40
62690 Off ch=3 n=66 v=64
62708 On ch=3 n=69 v=41
62724 Off ch=3 n=67 v=64
62742 On ch=3 n=70 v=42
62758 Off ch=3 n=69 v=64
62777 On ch=3 n=72 v=43
62793 Off ch=3 n=70 v=64
62811 On ch=3 n=74 v=44
62827 Off ch=3 n=72 v=64
62845 On ch=3 n=75 v=45
62861 Off ch=3 n=74 v=64
62880 On ch=3 n=77 v=46
62896 Off ch=3 n=75 v=64
62960 Off ch=3 n=77 v=64
65320 On ch=3 n=68 v=47
65360 Off ch=3 n=68 v=64
65360 On ch=3 n=75 v=50
65400 Off ch=3 n=75 v=64
65400 On ch=3 n=80 v=53
65440 Off ch=3 n=80 v=64
65440 On ch=3 n=87 v=55
65480 On ch=3 n=92 v=58
65520 Off ch=3 n=92 v=64
65520 On ch=3 n=99 v=61
65556 Off ch=3 n=87 v=64
65560 Off ch=3 n=99 v=64
65560 On ch=3 n=87 v=64
65600 Off ch=3 n=87 v=64
65600 On ch=3 n=92 v=61
65640 On ch=3 n=87 v=58
65680 Off ch=3 n=92 v=64
65680 Off ch=3 n=87 v=64
65680 On ch=3 n=80 v=54
65720 Off ch=3 n=80 v=64
65720 On ch=3 n=75 v=50
65760 Off ch=3 n=75 v=64
65760 On ch=3 n=68 v=47
65880 Off ch=3 n=68 v=64
66760 On ch=3 n=68 v=47
66800 Off ch=3 n=68 v=64
66800 On ch=3 n=75 v=50
66840 Off ch=3 n=75 v=64
66840 On ch=3 n=80 v=53
66880 Off ch=3 n=80 v=64
66880 On ch=3 n=87 v=56
66920 On ch=3 n=92 v=59
66960 Off ch=3 n=87 v=64
66960 Off ch=3 n=92 v=64
66960 On ch=3 n=99 v=62
67000 Off ch=3 n=99 v=64
67000 On ch=3 n=87 v=65
67040 Off ch=3 n=87 v=64
67040 On ch=3 n=92 v=65
67093 On ch=3 n=99 v=65
67137 Off ch=3 n=92 v=64
67146 Off ch=3 n=99 v=64
67146 On ch=3 n=87 v=65
67200 Off ch=3 n=87 v=64
67200 On ch=3 n=92 v=65
67253 On ch=3 n=99 v=66
67297 Off ch=3 n=92 v=64
67306 Off ch=3 n=99 v=64
67306 On ch=3 n=87 v=66
67360 Off ch=3 n=87 v=64
67360 On ch=3 n=92 v=66
67400 Off ch=3 n=92 v=64
67400 On ch=3 n=87 v=66
67440 Off ch=3 n=87 v=64
67440 On ch=3 n=80 v=66
67480 Off ch=3 n=80 v=64
67480 On ch=3 n=87 v=64
67520 Off ch=3 n=87 v=64
67520 On ch=3 n=92 v=62
67560 On ch=3 n=87 v=60
67600 Off ch=3 n=87 v=64
67600 On ch=3 n=80 v=58
67604 Off ch=3 n=92 v=64
67640 Off ch=3 n=80 v=64
67640 On ch=3 n=75 v=56
67680 Off ch=3 n=75 v=64
67680 On ch=3 n=68 v=54
67800 Off ch=3 n=68 v=64
68480 On ch=3 n=80 v=58
68520 Off ch=3 n=80 v=64
68520 On ch=3 n=87 v=60
68560 Off ch=3 n=87 v=64
68560 On ch=3 n=92 v=63
68600 Off ch=3 n=92 v=64
68600 On ch=3 n=87 v=66
68640 Off ch=3 n=87 v=64
68640 On ch=3 n=99 v=68
68680 On ch=3 n=87 v=67
68720 Off ch=3 n=99 v=64
68720 Off ch=3 n=87 v=64
68720 On ch=3 n=92 v=67
68760 Off ch=3 n=92 v=64
68760 On ch=3 n=87 v=67
68800 Off ch=3 n=87 v=64
68800 On ch=3 n=99 v=67
68853 On ch=3 n=87 v=67
68889 Off ch=3 n=99 v=64
68906 Off ch=3 n=87 v=64
68906 On ch=3 n=92 v=67
68960 Off ch=3 n=92 v=64
68960 On ch=3 n=80 v=67
69013 On ch=3 n=87 v=67
69061 Off ch=3 n=80 v=64
69066 Off ch=3 n=87 v=64
69066 On ch=3 n=92 v=67
69120 Off ch=3 n=92 v=64
69120 On ch=3 n=99 v=67
69173 On ch=3 n=87 v=67
69217 Off ch=3 n=99 v=64
69226 Off ch=3 n=87 v=64
69226 On ch=3 n=92 v=67
69280 Off ch=3 n=92 v=64
69280 On ch=3 n=99 v=69
69333 On ch=3 n=87 v=64
69381 Off ch=3 n=99 v=64
69386 Off ch=3 n=87 v=64
69386 On ch=3 n=92 v=60
69440 Off ch=3 n=92 v=64
69440 On ch=3 n=80 v=56
69493 Off ch=3 n=80 v=64
69600 On ch=3 n=80 v=58
69640 Off ch=3 n=80 v=64
69640 On ch=3 n=87 v=61
69680 Off ch=3 n=87 v=64
69680 On ch=3 n=92 v=63
69720 Off ch=3 n=92 v=64
69720 On ch=3 n=87 v=66
69760 Off ch=3 n=87 v=64
69760 On ch=3 n=99 v=68
69813 On ch=3 n=87 v=65
69849 Off ch=3 n=99 v=64
69866 Off ch=3 n=87 v=64
69866 On ch=3 n=92 v=61
69920 Off ch=3 n=92 v=64
69920 On ch=3 n=80 v=56
69993 Off ch=3 n=80 v=64
70240 On ch=3 n=80 v=61
70280 Off ch=3 n=80 v=64
70280 On ch=3 n=87 v=62
70320 Off ch=3 n=87 v=64
70320 On ch=3 n=92 v=63
70360 Off ch=3 n=92 v=64
70360 On ch=3 n=87 v=65
70400 Off ch=3 n=87 v=64
70400 On ch=3 n=99 v=66
70440 On ch=3 n=87 v=67
70480 Off ch=3 n=99 v=64
70480 Off ch=3 n=87 v=64
70480 On ch=3 n=92 v=67
70520 Off ch=3 n=92 v=64
70520 On ch=3 n=87 v=67
70560 Off ch=3 n=87 v=64
70560 On ch=3 n=80 v=67
70613 On ch=3 n=87 v=67
70657 Off ch=3 n=80 v=64
70666 Off ch=3 n=87 v=64
70666 On ch=3 n=92 v=67
70720 Off ch=3 n=92 v=64
70720 On ch=3 n=99 v=67
70773 On ch=3 n=87 v=67
70805 Off ch=3 n=99 v=64
70826 Off ch=3 n=87 v=64
70826 On ch=3 n=92 v=62
70880 Off ch=3 n=92 v=64
70880 On ch=3 n=80 v=57
70957 Off ch=3 n=80 v=64
71040 On ch=3 n=80 v=57
71093 Off ch=3 n=80 v=64
71093 On ch=3 n=87 v=59
71146 Off ch=3 n=87 v=64
71146 On ch=3 n=92 v=61
71200 Off ch=3 n=92 v=64
71200 On ch=3 n=99 v=62
71253 On ch=3 n=87 v=64
71281 Off ch=3 n=99 v=64
71306 Off ch=3 n=87 v=64
71306 On ch=3 n=92 v=66
71360 Off ch=3 n=92 v=64
71360 On ch=3 n=80 v=67
71400 On ch=3 n=87 v=67
71440 Off ch=3 n=87 v=64
71440 On ch=3 n=92 v=67
71480 Off ch=3 n=92 v=64
71480 On ch=3 n=87 v=67
71496 Off ch=3 n=80 v=64
71520 Off ch=3 n=87 v=64
71520 On ch=3 n=99 v=67
71560 On ch=3 n=87 v=67
71600 Off ch=3 n=87 v=64
71600 On ch=3 n=92 v=67
71640 Off ch=3 n=92 v=64
71640 On ch=3 n=87 v=67
71652 Off ch=3 n=99 v=64
71680 Off ch=3 n=87 v=64
71680 On ch=3 n=99 v=67
71733 On ch=3 n=87 v=67
71786 Off ch=3 n=87 v=64
71786 On ch=3 n=92 v=67
71813 Off ch=3 n=99 v=64
71840 Off ch=3 n=92 v=64
71840 On ch=3 n=80 v=67
71893 On ch=3 n=87 v=67
71946 Off ch=3 n=87 v=64
71946 On ch=3 n=92 v=67
71969 Off ch=3 n=80 v=64
72000 Off ch=3 n=92 v=64
72000 On ch=3 n=99 v=67
72053 On ch=3 n=87 v=67
72106 Off ch=3 n=87 v=64
72106 On ch=3 n=92 v=67
72133 Off ch=3 n=99 v=64
72160 Off ch=3 n=92 v=64
72160 On ch=3 n=80 v=67
72200 On ch=3 n=87 v=67
72240 Off ch=3 n=87 v=64
72240 On ch=3 n=92 v=67
72280 Off ch=3 n=92 v=64
72280 On ch=3 n=87 v=67
72284 Off ch=3 n=80 v=64
72320 Off ch=3 n=87 v=64
72320 On ch=3 n=99 v=67
72373 On ch=3 n=87 v=67
72426 Off ch=3 n=87 v=64
72426 On ch=3 n=92 v=67
72457 Off ch=3 n=99 v=64
72480 Off ch=3 n=92 v=64
72480 On ch=3 n=99 v=67
72533 On ch=3 n=87 v=67
72586 Off ch=3 n=87 v=64
72586 On ch=3 n=92 v=67
72589 Off ch=3 n=99 v=64
72640 Off ch=3 n=92 v=64
72640 On ch=3 n=80 v=67
72693 On ch=3 n=87 v=67
72746 Off ch=3 n=87 v=64
72746 On ch=3 n=92 v=67
72761 Off ch=3 n=80 v=64
72800 Off ch=3 n=92 v=64
72800 On ch=3 n=99 v=67
72840 On ch=3 n=87 v=67
72880 Off ch=3 n=87 v=64
72880 On ch=3 n=92 v=67
72920 Off ch=3 n=92 v=64
72920 On ch=3 n=87 v=67
72936 Off ch=3 n=99 v=64
72960 Off ch=3 n=87 v=64
72960 On ch=3 n=99 v=67
73000 On ch=3 n=87 v=67
73040 Off ch=3 n=87 v=64
73040 On ch=3 n=92 v=67
73080 Off ch=3 n=92 v=64
73080 On ch=3 n=87 v=67
73088 Off ch=3 n=99 v=64
73120 Off ch=3 n=87 v=64
73120 On ch=3 n=80 v=67
73160 On ch=3 n=87 v=67
73200 Off ch=3 n=87 v=64
73200 On ch=3 n=92 v=67
73240 Off ch=3 n=92 v=64
73240 On ch=3 n=87 v=67
73248 Off ch=3 n=80 v=64
73280 Off ch=3 n=87 v=64
73280 On ch=3 n=99 v=67
73333 On ch=3 n=87 v=67
73386 Off ch=3 n=87 v=64
73386 On ch=3 n=92 v=67
73413 Off ch=3 n=99 v=64
73440 Off ch=3 n=92 v=64
102454 On ch=3 n=96 v=101
102480 On ch=3 n=89 v=101
102480 On ch=3 n=101 v=101
102500 Off ch=3 n=96 v=64
102600 Off ch=3 n=89 v=64
102600 Off ch=3 n=101 v=64
102934 On ch=3 n=96 v=101
102960 On ch=3 n=91 v=101
102960 On ch=3 n=103 v=101
102980 Off ch=3 n=96 v=64
103066 Off ch=3 n=91 v=64
103066 Off ch=3 n=103 v=64
111120 Par ch=3 c=7 v=62
111840 On ch=3 n=96 v=99
111840 On ch=3 n=84 v=79
111920 Off ch=3 n=96 v=64
111920 Off ch=3 n=84 v=64
111920 On ch=3 n=108 v=98
111920 On ch=3 n=96 v=78
112000 Off ch=3 n=108 v=64
112000 Off ch=3 n=96 v=64
112000 On ch=3 n=96 v=97
112000 On ch=3 n=84 v=77
112080 Off ch=3 n=96 v=64
112080 Off ch=3 n=84 v=64
112080 On ch=3 n=94 v=96
112080 On ch=3 n=82 v=76
112160 Off ch=3 n=94 v=64
112160 Off ch=3 n=82 v=64
112160 On ch=3 n=96 v=95
112160 On ch=3 n=84 v=75
112240 Off ch=3 n=96 v=64
112240 Off ch=3 n=84 v=64
112240 On ch=3 n=94 v=94
112240 On ch=3 n=82 v=74
112320 Off ch=3 n=94 v=64
112320 Off ch=3 n=82 v=64
112320 On ch=3 n=93 v=93
112320 On ch=3 n=81 v=73
112400 Off ch=3 n=93 v=64
112400 Off ch=3 n=81 v=64
112400 On ch=3 n=94 v=92
112400 On ch=3 n=82 v=72
112480 Off ch=3 n=94 v=64
112480 Off ch=3 n=82 v=64
112480 On ch=3 n=93 v=91
112480 On ch=3 n=81 v=71
112560 Off ch=3 n=93 v=64
112560 Off ch=3 n=81 v=64
112560 On ch=3 n=91 v=90
112560 On ch=3 n=79 v=70
112640 Off ch=3 n=91 v=64
112640 Off ch=3 n=79 v=64
112640 On ch=3 n=103 v=89
112640 On ch=3 n=91 v=69
112720 Off ch=3 n=103 v=64
112720 Off ch=3 n=91 v=64
112720 On ch=3 n=91 v=88
112720 On ch=3 n=79 v=68
112800 Off ch=3 n=91 v=64
112800 Off ch=3 n=79 v=64
112800 On ch=3 n=93 v=87
112800 On ch=3 n=81 v=67
112880 Off ch=3 n=93 v=64
112880 Off ch=3 n=81 v=64
114960 On ch=3 n=91 v=83
114960 On ch=3 n=79 v=63
115040 Off ch=3 n=91 v=64
115040 Off ch=3 n=79 v=64
115040 On ch=3 n=103 v=84
115040 On ch=3 n=91 v=64
115120 Off ch=3 n=103 v=64
115120 Off ch=3 n=91 v=64
115120 On ch=3 n=91 v=86
115120 On ch=3 n=79 v=66
115200 Off ch=3 n=91 v=64
115200 Off ch=3 n=79 v=64
115200 On ch=3 n=93 v=88
115200 On ch=3 n=81 v=68
115280 Off ch=3 n=93 v=64
115280 Off ch=3 n=81 v=64
115280 On ch=3 n=94 v=90
115280 On ch=3 n=82 v=70
115360 Off ch=3 n=94 v=64
115360 Off ch=3 n=82 v=64
115360 On ch=3 n=93 v=91
115360 On ch=3 n=81 v=71
115440 Off ch=3 n=93 v=64
115440 Off ch=3 n=81 v=64
115440 On ch=3 n=94 v=93
115440 On ch=3 n=82 v=73
115520 Off ch=3 n=94 v=64
115520 Off ch=3 n=82 v=64
115520 On ch=3 n=96 v=95
115520 On ch=3 n=84 v=75
115600 Off ch=3 n=96 v=64
115600 Off ch=3 n=84 v=64
115600 On ch=3 n=94 v=97
115600 On ch=3 n=82 v=77
115680 Off ch=3 n=94 v=64
115680 Off ch=3 n=82 v=64
115680 On ch=3 n=96 v=99
115680 On ch=3 n=84 v=79
115760 Off ch=3 n=96 v=64
115760 Off ch=3 n=84 v=64
115760 On ch=3 n=108 v=97
115760 On ch=3 n=96 v=77
115840 Off ch=3 n=108 v=64
115840 Off ch=3 n=96 v=64
115840 On ch=3 n=96 v=96
115840 On ch=3 n=84 v=76
115920 Off ch=3 n=96 v=64
115920 Off ch=3 n=84 v=64
115920 On ch=3 n=94 v=95
115920 On ch=3 n=82 v=75
116000 Off ch=3 n=94 v=64
116000 Off ch=3 n=82 v=64
116000 On ch=3 n=96 v=93
116000 On ch=3 n=84 v=73
116080 Off ch=3 n=96 v=64
116080 Off ch=3 n=84 v=64
116080 On ch=3 n=94 v=92
116080 On ch=3 n=82 v=72
116160 Off ch=3 n=94 v=64
116160 Off ch=3 n=82 v=64
116160 On ch=3 n=93 v=91
116160 On ch=3 n=81 v=71
116240 Off ch=3 n=93 v=64
116240 Off ch=3 n=81 v=64
116240 On ch=3 n=94 v=89
116240 On ch=3 n=82 v=69
116320 Off ch=3 n=94 v=64
116320 Off ch=3 n=82 v=64
116320 On ch=3 n=93 v=88
116320 On ch=3 n=81 v=68
116400 Off ch=3 n=93 v=64
116400 Off ch=3 n=81 v=64
116400 On ch=3 n=91 v=87
116400 On ch=3 n=79 v=67
116480 Off ch=3 n=91 v=64
116480 Off ch=3 n=79 v=64
116480 On ch=3 n=103 v=85
116480 On ch=3 n=91 v=65
116560 Off ch=3 n=103 v=64
116560 Off ch=3 n=91 v=64
116560 On ch=3 n=91 v=84
116560 On ch=3 n=79 v=64
116640 Off ch=3 n=91 v=64
116640 Off ch=3 n=79 v=64
116640 On ch=3 n=93 v=83
116640 On ch=3 n=81 v=63
116720 Off ch=3 n=93 v=64
116720 Off ch=3 n=81 v=64
116720 On ch=3 n=94 v=84
116720 On ch=3 n=82 v=64
116800 Off ch=3 n=94 v=64
116800 Off ch=3 n=82 v=64
116800 On ch=3 n=93 v=85
116800 On ch=3 n=81 v=65
116880 Off ch=3 n=93 v=64
116880 Off ch=3 n=81 v=64
116880 On ch=3 n=94 v=87
116880 On ch=3 n=82 v=67
116960 Off ch=3 n=94 v=64
116960 Off ch=3 n=82 v=64
116960 On ch=3 n=96 v=88
116960 On ch=3 n=84 v=68
117040 Off ch=3 n=96 v=64
117040 Off ch=3 n=84 v=64
117040 On ch=3 n=94 v=90
117040 On ch=3 n=82 v=70
117120 Off ch=3 n=94 v=64
117120 Off ch=3 n=82 v=64
117120 On ch=3 n=96 v=91
117120 On ch=3 n=84 v=71
117200 Off ch=3 n=96 v=64
117200 Off ch=3 n=84 v=64
117200 On ch=3 n=108 v=93
117200 On ch=3 n=96 v=73
117280 Off ch=3 n=108 v=64
117280 Off ch=3 n=96 v=64
117280 On ch=3 n=96 v=94
117280 On ch=3 n=84 v=74
117360 Off ch=3 n=96 v=64
117360 Off ch=3 n=84 v=64
117360 On ch=3 n=94 v=96
117360 On ch=3 n=82 v=76
117440 Off ch=3 n=94 v=64
117440 Off ch=3 n=82 v=64
117440 On ch=3 n=96 v=97
117440 On ch=3 n=84 v=77
117520 Off ch=3 n=96 v=64
117520 Off ch=3 n=84 v=64
117520 On ch=3 n=94 v=99
117520 On ch=3 n=82 v=79
117600 Off ch=3 n=94 v=64
117600 Off ch=3 n=82 v=64
117600 On ch=3 n=93 v=101
117600 On ch=3 n=81 v=81
117680 Off ch=3 n=93 v=64
117680 Off ch=3 n=81 v=64
117680 On ch=3 n=94 v=98
117680 On ch=3 n=82 v=78
117760 Off ch=3 n=94 v=64
117760 Off ch=3 n=82 v=64
117760 On ch=3 n=93 v=95
117760 On ch=3 n=81 v=75
117840 Off ch=3 n=93 v=64
117840 Off ch=3 n=81 v=64
117840 On ch=3 n=91 v=93
117840 On ch=3 n=79 v=73
117920 Off ch=3 n=91 v=64
117920 Off ch=3 n=79 v=64
117920 On ch=3 n=103 v=90
117920 On ch=3 n=91 v=70
118000 Off ch=3 n=103 v=64
118000 Off ch=3 n=91 v=64
118000 On ch=3 n=91 v=87
118000 On ch=3 n=79 v=67
118080 Off ch=3 n=91 v=64
118080 Off ch=3 n=79 v=64
118080 On ch=3 n=93 v=99
118080 On ch=3 n=81 v=79
118160 Off ch=3 n=93 v=64
118160 Off ch=3 n=81 v=64
147576 On ch=3 n=94 v=94
147600 On ch=3 n=80 v=94
147636 Off ch=3 n=94 v=64
147684 Off ch=3 n=80 v=64
148056 On ch=3 n=91 v=94
148080 On ch=3 n=77 v=94
148116 Off ch=3 n=91 v=64
148164 Off ch=3 n=77 v=64
149496 On ch=3 n=91 v=94
149520 On ch=3 n=77 v=94
149556 Off ch=3 n=91 v=64
149604 Off ch=3 n=77 v=64
149976 On ch=3 n=94 v=94
150000 On ch=3 n=80 v=94
150036 Off ch=3 n=94 v=64
150084 Off ch=3 n=80 v=64
150456 On ch=3 n=94 v=94
150480 On ch=3 n=80 v=94
150516 Off ch=3 n=94 v=64
150564 Off ch=3 n=80 v=64
150936 On ch=3 n=91 v=94
150960 On ch=3 n=77 v=94
150996 Off ch=3 n=91 v=64
151044 Off ch=3 n=77 v=64
151416 On ch=3 n=94 v=94
151440 On ch=3 n=80 v=94
151476 Off ch=3 n=94 v=64
151524 Off ch=3 n=80 v=64
151896 On ch=3 n=94 v=94
151920 On ch=3 n=80 v=94
151956 Off ch=3 n=94 v=64
152004 Off ch=3 n=80 v=64
152376 On ch=3 n=91 v=94
152400 On ch=3 n=77 v=94
152436 Off ch=3 n=91 v=64
152484 Off ch=3 n=77 v=64
154906 On ch=3 n=95 v=81
154958 On ch=3 n=96 v=90
154978 Off ch=3 n=95 v=64
154998 On ch=3 n=98 v=100
155030 Off ch=3 n=96 v=64
155040 On ch=3 n=97 v=111
155042 On ch=3 n=100 v=111
155070 Off ch=3 n=98 v=64
155100 Off ch=3 n=97 v=64
155246 Off ch=3 n=100 v=64
155280 On ch=3 n=94 v=110
155324 On ch=3 n=95 v=103
155324 On ch=3 n=92 v=103
155340 Off ch=3 n=94 v=64
155388 On ch=3 n=88 v=93
155444 Off ch=3 n=95 v=64
155444 Off ch=3 n=92 v=64
155448 On ch=3 n=86 v=84
155508 Off ch=3 n=88 v=64
155520 On ch=3 n=83 v=72
155568 Off ch=3 n=86 v=64
155712 Off ch=3 n=83 v=64
175200 On ch=3 n=79 v=60
175440 Off ch=3 n=79 v=64
175440 On ch=3 n=84 v=65
175680 Off ch=3 n=84 v=64
175680 On ch=3 n=89 v=71
175800 Off ch=3 n=89 v=64
175800 On ch=3 n=82 v=68
175920 Off ch=3 n=82 v=64
175920 On ch=3 n=84 v=64
176040 Off ch=3 n=84 v=64
176040 On ch=3 n=77 v=60
176160 Off ch=3 n=77 v=64
176160 On ch=3 n=79 v=60
176400 Off ch=3 n=79 v=64
176400 On ch=3 n=84 v=60
176640 Off ch=3 n=84 v=64
176640 On ch=3 n=82 v=60
176880 Off ch=3 n=82 v=64
176880 On ch=3 n=81 v=60
177000 Off ch=3 n=81 v=64
177000 On ch=3 n=77 v=60
177120 Off ch=3 n=77 v=64
177120 On ch=3 n=79 v=70
177292 On ch=3 n=84 v=71
177308 Off ch=3 n=79 v=64
177360 On ch=3 n=81 v=67
177380 Off ch=3 n=84 v=64
177600 Off ch=3 n=81 v=64
177600 On ch=3 n=79 v=55
178768 Off ch=3 n=79 v=64
188640 On ch=3 n=70 v=70
188880 Off ch=3 n=70 v=64
188880 On ch=3 n=72 v=70
189000 Off ch=3 n=72 v=64
189000 On ch=3 n=68 v=58
189120 Off ch=3 n=68 v=64
189120 On ch=3 n=70 v=70
189360 Off ch=3 n=70 v=64
189360 On ch=3 n=75 v=70
189600 Off ch=3 n=75 v=64
189600 On ch=3 n=73 v=70
189840 Off ch=3 n=73 v=64
189840 On ch=3 n=72 v=70
189960 Off ch=3 n=72 v=64
189960 On ch=3 n=70 v=58
190080 Off ch=3 n=70 v=64
190080 On ch=3 n=72 v=70
190320 Off ch=3 n=72 v=64
190320 On ch=3 n=68 v=70
190560 Off ch=3 n=68 v=64
190560 On ch=3 n=70 v=70
190716 Off ch=3 n=70 v=64
190756 On ch=3 n=75 v=70
190800 On ch=3 n=72 v=70
190824 Off ch=3 n=75 v=64
191040 Off ch=3 n=72 v=64
191040 On ch=3 n=70 v=70
191611 Off ch=3 n=70 v=64
191716 On ch=3 n=87 v=70
191760 On ch=3 n=84 v=70
191784 Off ch=3 n=87 v=64
192000 Off ch=3 n=84 v=64
192000 On ch=3 n=82 v=70
192586 Off ch=3 n=82 v=64
192678 On ch=3 n=75 v=70
192720 On ch=3 n=72 v=70
192768 Off ch=3 n=75 v=64
192960 Off ch=3 n=72 v=64
192960 On ch=3 n=70 v=70
193182 Off ch=3 n=70 v=64
193200 On ch=3 n=75 v=70
193440 Off ch=3 n=75 v=64
193440 On ch=3 n=73 v=70
193680 Off ch=3 n=73 v=64
193680 On ch=3 n=72 v=70
193800 Off ch=3 n=72 v=64
193800 On ch=3 n=70 v=58
193920 Off ch=3 n=70 v=64
193920 On ch=3 n=72 v=70
194160 Off ch=3 n=72 v=64
194160 On ch=3 n=68 v=70
194400 Off ch=3 n=68 v=64
194400 On ch=3 n=70 v=70
194610 Off ch=3 n=70 v=64
194640 On ch=3 n=75 v=70
194880 Off ch=3 n=75 v=64
194880 On ch=3 n=73 v=70
195120 Off ch=3 n=73 v=64
195120 On ch=3 n=72 v=70
195240 Off ch=3 n=72 v=64
195240 On ch=3 n=70 v=56
195360 Off ch=3 n=70 v=64
195360 On ch=3 n=72 v=70
195600 Off ch=3 n=72 v=64
195600 On ch=3 n=68 v=70
195840 Off ch=3 n=68 v=64
195840 On ch=3 n=70 v=70
196002 Off ch=3 n=70 v=64
196050 On ch=3 n=75 v=70
196080 On ch=3 n=72 v=70
196128 Off ch=3 n=75 v=64
196320 Off ch=3 n=72 v=64
196320 On ch=3 n=70 v=70
196926 Off ch=3 n=70 v=64
197004 On ch=3 n=75 v=70
197004 On ch=3 n=87 v=70
197040 On ch=3 n=72 v=70
197040 On ch=3 n=84 v=70
197076 Off ch=3 n=75 v=64
197076 Off ch=3 n=87 v=64
197214 Off ch=3 n=72 v=64
197280 On ch=3 n=82 v=63
197280 On ch=3 n=70 v=63
197289 Off ch=3 n=84 v=64
197520 Off ch=3 n=82 v=64
197520 Off ch=3 n=70 v=64
197520 On ch=3 n=84 v=63
197520 On ch=3 n=72 v=63
197640 Off ch=3 n=84 v=64
197640 Off ch=3 n=72 v=64
197640 On ch=3 n=80 v=53
197640 On ch=3 n=68 v=53
197760 Off ch=3 n=80 v=64
197760 Off ch=3 n=68 v=64
197760 On ch=3 n=82 v=60
197760 On ch=3 n=70 v=60
198000 Off ch=3 n=82 v=64
198000 Off ch=3 n=70 v=64
198000 On ch=3 n=87 v=54
198000 On ch=3 n=75 v=54
198240 Off ch=3 n=87 v=64
198240 Off ch=3 n=75 v=64
198240 On ch=3 n=85 v=63
198240 On ch=3 n=73 v=63
198480 Off ch=3 n=85 v=64
198480 Off ch=3 n=73 v=64
198480 On ch=3 n=84 v=63
198480 On ch=3 n=72 v=63
198600 Off ch=3 n=84 v=64
198600 Off ch=3 n=72 v=64
198600 On ch=3 n=82 v=53
198600 On ch=3 n=70 v=53
198720 Off ch=3 n=82 v=64
198720 Off ch=3 n=70 v=64
198720 On ch=3 n=84 v=62
198720 On ch=3 n=72 v=62
198960 Off ch=3 n=84 v=64
198960 Off ch=3 n=72 v=64
198960 On ch=3 n=80 v=52
198960 On ch=3 n=68 v=52
199200 Off ch=3 n=80 v=64
199200 Off ch=3 n=68 v=64
199200 On ch=3 n=82 v=63
199200 On ch=3 n=70 v=63
199440 Off ch=3 n=82 v=64
199440 Off ch=3 n=70 v=64
199440 On ch=3 n=87 v=67
199440 On ch=3 n=75 v=67
199680 Off ch=3 n=87 v=64
199680 Off ch=3 n=75 v=64
199680 On ch=3 n=92 v=70
199680 On ch=3 n=80 v=70
199800 Off ch=3 n=92 v=64
199800 Off ch=3 n=80 v=64
199800 On ch=3 n=85 v=66
199800 On ch=3 n=73 v=66
199920 Off ch=3 n=85 v=64
199920 Off ch=3 n=73 v=64
199920 On ch=3 n=87 v=63
199920 On ch=3 n=75 v=63
200040 Off ch=3 n=87 v=64
200040 Off ch=3 n=75 v=64
200040 On ch=3 n=80 v=60
200040 On ch=3 n=68 v=60
200160 Off ch=3 n=80 v=64
200160 Off ch=3 n=68 v=64
200160 On ch=3 n=82 v=57
200160 On ch=3 n=70 v=57
200400 Off ch=3 n=82 v=64
200400 Off ch=3 n=70 v=64
200400 On ch=3 n=87 v=64
200400 On ch=3 n=75 v=64
200640 Off ch=3 n=87 v=64
200640 Off ch=3 n=75 v=64
200640 On ch=3 n=85 v=59
200640 On ch=3 n=73 v=59
200880 Off ch=3 n=85 v=64
200880 Off ch=3 n=73 v=64
200880 On ch=3 n=84 v=54
200880 On ch=3 n=72 v=54
201000 Off ch=3 n=84 v=64
201000 Off ch=3 n=72 v=64
201000 On ch=3 n=80 v=51
201000 On ch=3 n=68 v=51
201120 Off ch=3 n=80 v=64
201120 Off ch=3 n=68 v=64
201120 On ch=3 n=82 v=63
201120 On ch=3 n=70 v=63
201360 Off ch=3 n=82 v=64
201360 Off ch=3 n=70 v=64
201360 On ch=3 n=84 v=63
201360 On ch=3 n=72 v=63
201480 Off ch=3 n=84 v=64
201480 Off ch=3 n=72 v=64
201480 On ch=3 n=80 v=55
201480 On ch=3 n=68 v=55
201600 Off ch=3 n=80 v=64
201600 Off ch=3 n=68 v=64
201600 On ch=3 n=82 v=63
201600 On ch=3 n=70 v=63
201840 Off ch=3 n=82 v=64
201840 Off ch=3 n=70 v=64
201840 On ch=3 n=87 v=57
201840 On ch=3 n=75 v=57
202080 Off ch=3 n=87 v=64
202080 Off ch=3 n=75 v=64
202080 On ch=3 n=85 v=63
202080 On ch=3 n=73 v=63
202320 Off ch=3 n=85 v=64
202320 Off ch=3 n=73 v=64
202320 On ch=3 n=84 v=63
202320 On ch=3 n=72 v=63
202440 Off ch=3 n=84 v=64
202440 Off ch=3 n=72 v=64
202440 On ch=3 n=82 v=55
202440 On ch=3 n=70 v=55
202560 Off ch=3 n=82 v=64
202560 Off ch=3 n=70 v=64
202560 On ch=3 n=84 v=63
202560 On ch=3 n=72 v=63
202800 Off ch=3 n=84 v=64
202800 Off ch=3 n=72 v=64
202800 On ch=3 n=80 v=54
202800 On ch=3 n=68 v=54
203040 Off ch=3 n=80 v=64
203040 Off ch=3 n=68 v=64
203040 On ch=3 n=82 v=63
203040 On ch=3 n=70 v=63
203280 Off ch=3 n=82 v=64
203280 Off ch=3 n=70 v=64
203280 On ch=3 n=87 v=55
203280 On ch=3 n=75 v=55
203520 Off ch=3 n=87 v=64
203520 Off ch=3 n=75 v=64
203520 On ch=3 n=85 v=63
203520 On ch=3 n=73 v=63
203760 Off ch=3 n=85 v=64
203760 Off ch=3 n=73 v=64
203760 On ch=3 n=84 v=63
203760 On ch=3 n=72 v=63
203880 Off ch=3 n=84 v=64
203880 Off ch=3 n=72 v=64
203880 On ch=3 n=82 v=54
203880 On ch=3 n=70 v=54
204000 Off ch=3 n=82 v=64
204000 Off ch=3 n=70 v=64
204000 On ch=3 n=84 v=58
204000 On ch=3 n=72 v=58
204240 Off ch=3 n=84 v=64
204240 Off ch=3 n=72 v=64
204240 On ch=3 n=80 v=52
204240 On ch=3 n=68 v=52
204480 Off ch=3 n=80 v=64
204480 Off ch=3 n=68 v=64
204480 On ch=3 n=82 v=63
204480 On ch=3 n=70 v=63
204720 Off ch=3 n=82 v=64
204720 Off ch=3 n=70 v=64
204720 On ch=3 n=87 v=63
204720 On ch=3 n=75 v=63
204960 Off ch=3 n=87 v=64
204960 Off ch=3 n=75 v=64
204960 On ch=3 n=92 v=63
204960 On ch=3 n=80 v=63
205080 Off ch=3 n=92 v=64
205080 Off ch=3 n=80 v=64
205080 On ch=3 n=85 v=59
205080 On ch=3 n=73 v=59
205200 Off ch=3 n=85 v=64
205200 Off ch=3 n=73 v=64
205200 On ch=3 n=87 v=55
205200 On ch=3 n=75 v=55
205320 Off ch=3 n=87 v=64
205320 Off ch=3 n=75 v=64
205320 On ch=3 n=80 v=51
205320 On ch=3 n=68 v=51
205440 Off ch=3 n=80 v=64
205440 Off ch=3 n=68 v=64
205440 On ch=3 n=82 v=61
205440 On ch=3 n=70 v=61
205680 Off ch=3 n=82 v=64
205680 Off ch=3 n=70 v=64
205680 On ch=3 n=87 v=61
205680 On ch=3 n=75 v=61
205920 Off ch=3 n=87 v=64
205920 Off ch=3 n=75 v=64
205920 On ch=3 n=92 v=62
205920 On ch=3 n=80 v=62
206040 Off ch=3 n=92 v=64
206040 Off ch=3 n=80 v=64
206040 On ch=3 n=85 v=60
206040 On ch=3 n=73 v=60
206160 Off ch=3 n=85 v=64
206160 Off ch=3 n=73 v=64
206160 On ch=3 n=87 v=55
206160 On ch=3 n=75 v=55
206280 Off ch=3 n=87 v=64
206280 Off ch=3 n=75 v=64
206280 On ch=3 n=80 v=50
206280 On ch=3 n=68 v=50
206400 Off ch=3 n=80 v=64
206400 Off ch=3 n=68 v=64
206400 On ch=3 n=82 v=63
206400 On ch=3 n=70 v=63
206640 Off ch=3 n=82 v=64
206640 Off ch=3 n=70 v=64
206640 On ch=3 n=87 v=55
206640 On ch=3 n=75 v=55
206880 Off ch=3 n=87 v=64
206880 Off ch=3 n=75 v=64
206880 On ch=3 n=85 v=63
206880 On ch=3 n=73 v=63
207120 Off ch=3 n=85 v=64
207120 Off ch=3 n=73 v=64
207120 On ch=3 n=84 v=63
207120 On ch=3 n=72 v=63
207240 Off ch=3 n=84 v=64
207240 Off ch=3 n=72 v=64
207240 On ch=3 n=82 v=53
207240 On ch=3 n=70 v=53
207360 Off ch=3 n=82 v=64
207360 Off ch=3 n=70 v=64
207360 On ch=3 n=84 v=63
207360 On ch=3 n=72 v=63
207600 Off ch=3 n=84 v=64
207600 Off ch=3 n=72 v=64
207600 On ch=3 n=80 v=56
207600 On ch=3 n=68 v=56
207840 Off ch=3 n=80 v=64
207840 Off ch=3 n=68 v=64
207840 On ch=3 n=82 v=63
207840 On ch=3 n=70 v=63
208080 Off ch=3 n=82 v=64
208080 Off ch=3 n=70 v=64
208080 On ch=3 n=84 v=59
208080 On ch=3 n=72 v=59
208320 Off ch=3 n=84 v=64
208320 Off ch=3 n=72 v=64
208320 On ch=3 n=82 v=55
208320 On ch=3 n=70 v=55
208560 Off ch=3 n=82 v=64
208560 Off ch=3 n=70 v=64
208560 On ch=3 n=87 v=51
208560 On ch=3 n=75 v=51
208800 Off ch=3 n=87 v=64
208800 Off ch=3 n=75 v=64
208800 On ch=3 n=85 v=63
208800 On ch=3 n=73 v=63
209040 Off ch=3 n=85 v=64
209040 Off ch=3 n=73 v=64
209040 On ch=3 n=84 v=63
209040 On ch=3 n=72 v=63
209160 Off ch=3 n=84 v=64
209160 Off ch=3 n=72 v=64
209160 On ch=3 n=82 v=53
209160 On ch=3 n=70 v=53
209280 Off ch=3 n=82 v=64
209280 Off ch=3 n=70 v=64
209280 On ch=3 n=84 v=63
209280 On ch=3 n=72 v=63
209520 Off ch=3 n=84 v=64
209520 Off ch=3 n=72 v=64
209520 On ch=3 n=80 v=63
209520 On ch=3 n=68 v=63
209760 Off ch=3 n=80 v=64
209760 Off ch=3 n=68 v=64
209760 On ch=3 n=82 v=63
209760 On ch=3 n=70 v=63
210000 Off ch=3 n=82 v=64
210000 Off ch=3 n=70 v=64
210000 On ch=3 n=84 v=63
210000 On ch=3 n=72 v=63
210120 Off ch=3 n=84 v=64
210120 Off ch=3 n=72 v=64
210120 On ch=3 n=80 v=53
210120 On ch=3 n=68 v=53
210240 Off ch=3 n=80 v=64
210240 Off ch=3 n=68 v=64
210240 On ch=3 n=82 v=63
210240 On ch=3 n=70 v=63
210480 Off ch=3 n=82 v=64
210480 Off ch=3 n=70 v=64
210480 On ch=3 n=87 v=56
210480 On ch=3 n=75 v=56
210720 Off ch=3 n=87 v=64
210720 Off ch=3 n=75 v=64
210720 On ch=3 n=85 v=63
210720 On ch=3 n=73 v=63
210960 Off ch=3 n=85 v=64
210960 Off ch=3 n=73 v=64
210960 On ch=3 n=84 v=63
210960 On ch=3 n=72 v=63
211080 Off ch=3 n=84 v=64
211080 Off ch=3 n=72 v=64
211080 On ch=3 n=82 v=51
211080 On ch=3 n=70 v=51
211200 Off ch=3 n=82 v=64
211200 Off ch=3 n=70 v=64
211200 On ch=3 n=84 v=63
211200 On ch=3 n=72 v=63
211440 Off ch=3 n=84 v=64
211440 Off ch=3 n=72 v=64
211440 On ch=3 n=80 v=56
211440 On ch=3 n=68 v=56
211680 Off ch=3 n=80 v=64
211680 Off ch=3 n=68 v=64
211680 On ch=3 n=82 v=63
211680 On ch=3 n=70 v=63
211920 Off ch=3 n=82 v=64
211920 Off ch=3 n=70 v=64
211920 On ch=3 n=87 v=58
211920 On ch=3 n=75 v=58
212160 Off ch=3 n=87 v=64
212160 Off ch=3 n=75 v=64
212160 On ch=3 n=85 v=63
212160 On ch=3 n=73 v=63
212400 Off ch=3 n=85 v=64
212400 Off ch=3 n=73 v=64
212400 On ch=3 n=84 v=63
212400 On ch=3 n=72 v=63
212520 Off ch=3 n=84 v=64
212520 Off ch=3 n=72 v=64
212520 On ch=3 n=80 v=54
212520 On ch=3 n=68 v=54
212640 Off ch=3 n=80 v=64
212640 Off ch=3 n=68 v=64
212640 On ch=3 n=82 v=63
212640 On ch=3 n=70 v=63
212880 Off ch=3 n=82 v=64
212880 Off ch=3 n=70 v=64
212880 On ch=3 n=87 v=61
212880 On ch=3 n=75 v=61
213120 Off ch=3 n=87 v=64
213120 Off ch=3 n=75 v=64
213120 On ch=3 n=92 v=62
213120 On ch=3 n=80 v=62
213240 Off ch=3 n=92 v=64
213240 Off ch=3 n=80 v=64
213240 On ch=3 n=85 v=59
213240 On ch=3 n=73 v=59
213360 Off ch=3 n=85 v=64
213360 Off ch=3 n=73 v=64
213360 On ch=3 n=87 v=55
213360 On ch=3 n=75 v=55
213480 Off ch=3 n=87 v=64
213480 Off ch=3 n=75 v=64
213480 On ch=3 n=80 v=51
213480 On ch=3 n=68 v=51
213600 Off ch=3 n=80 v=64
213600 Off ch=3 n=68 v=64
213600 On ch=3 n=82 v=63
213600 On ch=3 n=70 v=63
213840 Off ch=3 n=82 v=64
213840 Off ch=3 n=70 v=64
213840 On ch=3 n=87 v=63
213840 On ch=3 n=75 v=63
214080 Off ch=3 n=87 v=64
214080 Off ch=3 n=75 v=64
214080 On ch=3 n=85 v=63
214080 On ch=3 n=73 v=63
214320 Off ch=3 n=85 v=64
214320 Off ch=3 n=73 v=64
214320 On ch=3 n=84 v=63
214320 On ch=3 n=72 v=63
214440 Off ch=3 n=84 v=64
214440 Off ch=3 n=72 v=64
214440 On ch=3 n=80 v=51
214440 On ch=3 n=68 v=51
214560 Off ch=3 n=80 v=64
214560 Off ch=3 n=68 v=64
222240 On ch=3 n=93 v=70
222465 On ch=3 n=96 v=70
222480 Off ch=3 n=93 v=64
222480 On ch=3 n=95 v=70
222535 Off ch=3 n=96 v=64
222600 Off ch=3 n=95 v=64
222600 On ch=3 n=91 v=70
222720 Off ch=3 n=91 v=64
222720 On ch=3 n=93 v=70
222960 Off ch=3 n=93 v=64
222960 On ch=3 n=98 v=70
223125 Off ch=3 n=98 v=64
223170 On ch=3 n=96 v=70
223185 On ch=3 n=98 v=70
223200 Off ch=3 n=96 v=64
223200 On ch=3 n=96 v=70
223265 Off ch=3 n=98 v=64
223440 Off ch=3 n=96 v=64
223440 On ch=3 n=95 v=70
223560 Off ch=3 n=95 v=64
223560 On ch=3 n=93 v=70
223680 Off ch=3 n=93 v=64
223680 On ch=3 n=95 v=70
223920 Off ch=3 n=95 v=64
223920 On ch=3 n=91 v=58
224160 Off ch=3 n=91 v=64
226080 On ch=3 n=93 v=70
226200 Off ch=3 n=93 v=64
226320 On ch=3 n=98 v=70
226440 Off ch=3 n=98 v=64
226560 On ch=3 n=103 v=70
226680 Off ch=3 n=103 v=64
226680 On ch=3 n=96 v=70
226800 Off ch=3 n=96 v=64
226800 On ch=3 n=98 v=70
226920 Off ch=3 n=98 v=64
226920 On ch=3 n=91 v=70
227040 Off ch=3 n=91 v=64
227040 On ch=3 n=93 v=70
227280 Off ch=3 n=93 v=64
227280 On ch=3 n=98 v=70
227465 Off ch=3 n=98 v=64
227485 On ch=3 n=96 v=70
227505 On ch=3 n=98 v=70
227520 Off ch=3 n=96 v=64
227520 On ch=3 n=96 v=70
227595 Off ch=3 n=98 v=64
227760 Off ch=3 n=96 v=64
227760 On ch=3 n=95 v=70
227880 Off ch=3 n=95 v=64
227880 On ch=3 n=91 v=70
228000 Off ch=3 n=91 v=64
229920 On ch=3 n=81 v=74
229920 On ch=3 n=69 v=74
230040 Off ch=3 n=81 v=64
230040 Off ch=3 n=69 v=64
230130 On ch=3 n=74 v=74
230160 On ch=3 n=83 v=74
230160 On ch=3 n=71 v=74
230225 Off ch=3 n=74 v=64
230280 Off ch=3 n=83 v=64
230280 Off ch=3 n=71 v=64
230280 On ch=3 n=79 v=74
230400 Off ch=3 n=79 v=64
230400 On ch=3 n=81 v=74
230400 On ch=3 n=69 v=74
230520 Off ch=3 n=81 v=64
230520 Off ch=3 n=69 v=64
230610 On ch=3 n=74 v=74
230640 On ch=3 n=83 v=74
230640 On ch=3 n=71 v=74
230705 Off ch=3 n=74 v=64
230760 Off ch=3 n=83 v=64
230760 Off ch=3 n=71 v=64
230760 On ch=3 n=79 v=74
230880 Off ch=3 n=79 v=64
230880 On ch=3 n=81 v=74
230880 On ch=3 n=69 v=74
231000 Off ch=3 n=81 v=64
231000 Off ch=3 n=69 v=64
231090 On ch=3 n=74 v=74
231120 On ch=3 n=83 v=74
231120 On ch=3 n=71 v=74
231185 Off ch=3 n=74 v=64
231240 Off ch=3 n=83 v=64
231240 Off ch=3 n=71 v=64
231240 On ch=3 n=79 v=74
231360 Off ch=3 n=79 v=64
231360 On ch=3 n=81 v=74
231360 On ch=3 n=69 v=74
231480 Off ch=3 n=81 v=64
231480 Off ch=3 n=69 v=64
231570 On ch=3 n=74 v=74
231600 On ch=3 n=83 v=74
231600 On ch=3 n=71 v=74
231665 Off ch=3 n=74 v=64
231720 Off ch=3 n=83 v=64
231720 Off ch=3 n=71 v=64
231720 On ch=3 n=79 v=74
231840 Off ch=3 n=79 v=64
231840 On ch=3 n=81 v=74
231840 On ch=3 n=69 v=74
232080 Off ch=3 n=81 v=64
232080 Off ch=3 n=69 v=64
232080 On ch=3 n=86 v=74
232080 On ch=3 n=74 v=74
232320 Off ch=3 n=86 v=64
232320 Off ch=3 n=74 v=64
232320 On ch=3 n=84 v=74
232320 On ch=3 n=72 v=74
232380 On ch=3 n=86 v=74
232380 On ch=3 n=74 v=74
232410 Off ch=3 n=84 v=64
232410 Off ch=3 n=72 v=64
232440 On ch=3 n=84 v=74
232440 On ch=3 n=72 v=74
232470 Off ch=3 n=86 v=64
232470 Off ch=3 n=74 v=64
232500 On ch=3 n=86 v=74
232500 On ch=3 n=74 v=74
232530 Off ch=3 n=84 v=64
232530 Off ch=3 n=72 v=64
232560 On ch=3 n=83 v=74
232560 On ch=3 n=71 v=74
232590 Off ch=3 n=86 v=64
232590 Off ch=3 n=74 v=64
232680 Off ch=3 n=83 v=64
232680 Off ch=3 n=71 v=64
232680 On ch=3 n=81 v=74
232680 On ch=3 n=69 v=74
232800 Off ch=3 n=81 v=64
232800 Off ch=3 n=69 v=64
232800 On ch=3 n=83 v=74
232800 On ch=3 n=71 v=74
233040 Off ch=3 n=83 v=64
233040 Off ch=3 n=71 v=64
233040 On ch=3 n=79 v=74
233040 On ch=3 n=67 v=74
233280 Off ch=3 n=79 v=64
233280 Off ch=3 n=67 v=64
233280 On ch=3 n=81 v=74
233280 On ch=3 n=69 v=74
233485 On ch=3 n=86 v=74
233485 On ch=3 n=74 v=74
233520 Off ch=3 n=81 v=64
233520 Off ch=3 n=69 v=64
233520 On ch=3 n=83 v=74
233520 On ch=3 n=71 v=74
233575 Off ch=3 n=86 v=64
233575 Off ch=3 n=74 v=64
233760 Off ch=3 n=83 v=64
233760 Off ch=3 n=71 v=64
233760 On ch=3 n=81 v=74
233760 On ch=3 n=93 v=74
233820 On ch=3 n=83 v=74
233820 On ch=3 n=95 v=74
233836 Off ch=3 n=81 v=64
233836 Off ch=3 n=93 v=64
233880 On ch=3 n=81 v=74
233880 On ch=3 n=93 v=74
233896 Off ch=3 n=83 v=64
233896 Off ch=3 n=95 v=64
233940 On ch=3 n=83 v=74
233940 On ch=3 n=95 v=74
233956 Off ch=3 n=81 v=64
233956 Off ch=3 n=93 v=64
233976 On ch=3 n=86 v=74
233976 On ch=3 n=98 v=74
234000 Off ch=3 n=83 v=64
234000 Off ch=3 n=95 v=64
234000 On ch=3 n=83 v=74
234000 On ch=3 n=95 v=74
234044 Off ch=3 n=86 v=64
234044 Off ch=3 n=98 v=64
234120 Off ch=3 n=83 v=64
234120 Off ch=3 n=95 v=64
234120 On ch=3 n=79 v=74
234120 On ch=3 n=91 v=74
234240 Off ch=3 n=79 v=64
234240 Off ch=3 n=91 v=64
234240 On ch=3 n=81 v=74
234240 On ch=3 n=93 v=74
234480 On ch=3 n=86 v=74
234480 On ch=3 n=98 v=74
234488 Off ch=3 n=81 v=64
234488 Off ch=3 n=93 v=64
234720 On ch=3 n=84 v=74
234720 On ch=3 n=96 v=74
234722 Off ch=3 n=86 v=64
234722 Off ch=3 n=98 v=64
234780 On ch=3 n=86 v=74
234780 On ch=3 n=98 v=74
234792 Off ch=3 n=84 v=64
234792 Off ch=3 n=96 v=64
234840 On ch=3 n=84 v=74
234840 On ch=3 n=96 v=74
234852 Off ch=3 n=86 v=64
234852 Off ch=3 n=98 v=64
234900 On ch=3 n=86 v=74
234900 On ch=3 n=98 v=74
234912 Off ch=3 n=84 v=64
234912 Off ch=3 n=96 v=64
234960 On ch=3 n=83 v=74
234960 On ch=3 n=95 v=74
234972 Off ch=3 n=86 v=64
234972 Off ch=3 n=98 v=64
235080 Off ch=3 n=83 v=64
235080 Off ch=3 n=95 v=64
235080 On ch=3 n=81 v=74
235080 On ch=3 n=93 v=74
235200 Off ch=3 n=81 v=64
235200 Off ch=3 n=93 v=64
235200 On ch=3 n=83 v=74
235200 On ch=3 n=95 v=74
235440 On ch=3 n=79 v=74
235440 On ch=3 n=91 v=74
235444 Off ch=3 n=83 v=64
235444 Off ch=3 n=95 v=64
235624 Off ch=3 n=79 v=64
235624 Off ch=3 n=91 v=64
235680 On ch=3 n=81 v=74
235680 On ch=3 n=93 v=74
235740 On ch=3 n=83 v=74
235740 On ch=3 n=95 v=74
235758 Off ch=3 n=81 v=64
235758 Off ch=3 n=93 v=64
235800 On ch=3 n=81 v=74
235800 On ch=3 n=93 v=74
235818 Off ch=3 n=83 v=64
235818 Off ch=3 n=95 v=64
235860 On ch=3 n=83 v=74
235860 On ch=3 n=95 v=74
235878 Off ch=3 n=81 v=64
235878 Off ch=3 n=93 v=64
235902 On ch=3 n=86 v=74
235902 On ch=3 n=98 v=74
235920 Off ch=3 n=83 v=64
235920 Off ch=3 n=95 v=64
235920 On ch=3 n=83 v=74
235920 On ch=3 n=95 v=74
235952 Off ch=3 n=86 v=64
235952 Off ch=3 n=98 v=64
236040 Off ch=3 n=83 v=64
236040 Off ch=3 n=95 v=64
236040 On ch=3 n=79 v=74
236040 On ch=3 n=91 v=74
236160 Off ch=3 n=79 v=64
236160 Off ch=3 n=91 v=64
236160 On ch=3 n=81 v=74
236160 On ch=3 n=93 v=74
236380 On ch=3 n=86 v=74
236380 On ch=3 n=98 v=74
236400 On ch=3 n=83 v=74
236400 On ch=3 n=95 v=74
236402 Off ch=3 n=81 v=64
236402 Off ch=3 n=93 v=64
236434 Off ch=3 n=86 v=64
236434 Off ch=3 n=98 v=64
236640 On ch=3 n=81 v=74
236640 On ch=3 n=93 v=74
236642 Off ch=3 n=83 v=64
236642 Off ch=3 n=95 v=64
236700 On ch=3 n=83 v=74
236700 On ch=3 n=95 v=74
236716 Off ch=3 n=81 v=64
236716 Off ch=3 n=93 v=64
236760 On ch=3 n=81 v=74
236760 On ch=3 n=93 v=74
236776 Off ch=3 n=83 v=64
236776 Off ch=3 n=95 v=64
236820 On ch=3 n=83 v=74
236820 On ch=3 n=95 v=74
236836 Off ch=3 n=81 v=64
236836 Off ch=3 n=93 v=64
236880 On ch=3 n=86 v=74
236880 On ch=3 n=98 v=74
236896 Off ch=3 n=83 v=64
236896 Off ch=3 n=95 v=64
237120 On ch=3 n=84 v=74
237120 On ch=3 n=96 v=74
237122 Off ch=3 n=86 v=64
237122 Off ch=3 n=98 v=64
237180 On ch=3 n=86 v=74
237180 On ch=3 n=98 v=74
237190 Off ch=3 n=84 v=64
237190 Off ch=3 n=96 v=64
237240 On ch=3 n=84 v=74
237240 On ch=3 n=96 v=74
237250 Off ch=3 n=86 v=64
237250 Off ch=3 n=98 v=64
237300 On ch=3 n=86 v=74
237300 On ch=3 n=98 v=74
237310 Off ch=3 n=84 v=64
237310 Off ch=3 n=96 v=64
237360 On ch=3 n=83 v=74
237360 On ch=3 n=95 v=74
237382 Off ch=3 n=86 v=64
237382 Off ch=3 n=98 v=64
237480 Off ch=3 n=83 v=64
237480 Off ch=3 n=95 v=64
237480 On ch=3 n=79 v=74
237480 On ch=3 n=91 v=74
237600 Off ch=3 n=79 v=64
237600 Off ch=3 n=91 v=64
237600 On ch=3 n=81 v=76
237600 On ch=3 n=93 v=76
237660 On ch=3 n=83 v=76
237660 On ch=3 n=95 v=76
237672 Off ch=3 n=81 v=64
237672 Off ch=3 n=93 v=64
237720 On ch=3 n=81 v=76
237720 On ch=3 n=93 v=76
237732 Off ch=3 n=83 v=64
237732 Off ch=3 n=95 v=64
237780 On ch=3 n=83 v=76
237780 On ch=3 n=95 v=76
237792 Off ch=3 n=81 v=64
237792 Off ch=3 n=93 v=64
237813 On ch=3 n=86 v=76
237813 On ch=3 n=98 v=76
237840 Off ch=3 n=83 v=64
237840 Off ch=3 n=95 v=64
237840 On ch=3 n=83 v=76
237840 On ch=3 n=95 v=76
237867 Off ch=3 n=86 v=64
237867 Off ch=3 n=98 v=64
238080 On ch=3 n=81 v=76
238080 On ch=3 n=93 v=76
238083 Off ch=3 n=83 v=64
238083 Off ch=3 n=95 v=64
238320 On ch=3 n=86 v=76
238320 On ch=3 n=98 v=76
238323 Off ch=3 n=81 v=64
238323 Off ch=3 n=93 v=64
238560 Off ch=3 n=86 v=64
238560 Off ch=3 n=98 v=64
238560 On ch=3 n=84 v=76
238560 On ch=3 n=96 v=76
238620 On ch=3 n=86 v=76
238620 On ch=3 n=98 v=76
238647 Off ch=3 n=84 v=64
238647 Off ch=3 n=96 v=64
238680 On ch=3 n=84 v=76
238680 On ch=3 n=96 v=76
238707 Off ch=3 n=86 v=64
238707 Off ch=3 n=98 v=64
238740 On ch=3 n=86 v=76
238740 On ch=3 n=98 v=76
238767 Off ch=3 n=84 v=64
238767 Off ch=3 n=96 v=64
238800 Off ch=3 n=86 v=64
238800 Off ch=3 n=98 v=64
238800 On ch=3 n=83 v=76
238800 On ch=3 n=95 v=76
238920 Off ch=3 n=83 v=64
238920 Off ch=3 n=95 v=64
238920 On ch=3 n=81 v=76
238920 On ch=3 n=93 v=76
239040 Off ch=3 n=81 v=64
239040 Off ch=3 n=93 v=64
239040 On ch=3 n=83 v=76
239040 On ch=3 n=95 v=76
239280 Off ch=3 n=83 v=64
239280 Off ch=3 n=95 v=64
239280 On ch=3 n=79 v=76
239280 On ch=3 n=91 v=76
239454 Off ch=3 n=79 v=64
239454 Off ch=3 n=91 v=64
239520 On ch=3 n=81 v=78
239520 On ch=3 n=93 v=78
239760 On ch=3 n=86 v=78
239760 On ch=3 n=98 v=78
239763 Off ch=3 n=81 v=64
239763 Off ch=3 n=93 v=64
240000 On ch=3 n=91 v=80
240000 On ch=3 n=103 v=80
240003 Off ch=3 n=86 v=64
240003 Off ch=3 n=98 v=64
240120 On ch=3 n=84 v=78
240120 On ch=3 n=96 v=78
240135 Off ch=3 n=91 v=64
240135 Off ch=3 n=103 v=64
240240 Off ch=3 n=84 v=64
240240 Off ch=3 n=96 v=64
240240 On ch=3 n=86 v=78
240240 On ch=3 n=98 v=78
240360 On ch=3 n=79 v=78
240360 On ch=3 n=91 v=78
240375 Off ch=3 n=86 v=64
240375 Off ch=3 n=98 v=64
240456 Off ch=3 n=79 v=64
240456 Off ch=3 n=91 v=64
240480 On ch=3 n=81 v=78
240480 On ch=3 n=93 v=78
240720 On ch=3 n=86 v=78
240720 On ch=3 n=98 v=78
240723 Off ch=3 n=81 v=64
240723 Off ch=3 n=93 v=64
240960 On ch=3 n=84 v=78
240960 On ch=3 n=96 v=78
240963 Off ch=3 n=86 v=64
240963 Off ch=3 n=98 v=64
241020 On ch=3 n=86 v=78
241020 On ch=3 n=98 v=78
241038 Off ch=3 n=84 v=64
241038 Off ch=3 n=96 v=64
241080 On ch=3 n=84 v=78
241080 On ch=3 n=96 v=78
241098 Off ch=3 n=86 v=64
241098 Off ch=3 n=98 v=64
241140 On ch=3 n=86 v=78
241140 On ch=3 n=98 v=78
241158 Off ch=3 n=84 v=64
241158 Off ch=3 n=96 v=64
241200 Off ch=3 n=86 v=64
241200 Off ch=3 n=98 v=64
241200 On ch=3 n=83 v=78
241200 On ch=3 n=95 v=78
241320 Off ch=3 n=83 v=64
241320 Off ch=3 n=95 v=64
241320 On ch=3 n=79 v=78
241320 On ch=3 n=91 v=78
241440 Off ch=3 n=79 v=64
241440 Off ch=3 n=91 v=64
241440 On ch=3 n=93 v=78
241680 On ch=3 n=95 v=78
241692 Off ch=3 n=93 v=64
241800 Off ch=3 n=95 v=64
241800 On ch=3 n=91 v=78
241920 Off ch=3 n=91 v=64
241920 On ch=3 n=93 v=78
242160 On ch=3 n=98 v=78
242172 Off ch=3 n=93 v=64
242400 On ch=3 n=96 v=78
242412 Off ch=3 n=98 v=64
242640 On ch=3 n=95 v=78
242658 Off ch=3 n=96 v=64
242760 Off ch=3 n=95 v=64
242760 On ch=3 n=93 v=78
242880 Off ch=3 n=93 v=64
242880 On ch=3 n=95 v=78
243120 On ch=3 n=91 v=78
243126 Off ch=3 n=95 v=64
243318 Off ch=3 n=91 v=64
243360 On ch=3 n=93 v=78
243600 On ch=3 n=98 v=78
243612 Off ch=3 n=93 v=64
243840 On ch=3 n=103 v=78
243852 Off ch=3 n=98 v=64
243960 Off ch=3 n=103 v=64
243960 On ch=3 n=96 v=78
244080 Off ch=3 n=96 v=64
244080 On ch=3 n=98 v=78
244200 Off ch=3 n=98 v=64
244200 On ch=3 n=91 v=78
244320 Off ch=3 n=91 v=64
244320 On ch=3 n=93 v=78
244560 On ch=3 n=98 v=78
244572 Off ch=3 n=93 v=64
244800 On ch=3 n=96 v=78
244812 Off ch=3 n=98 v=64
245040 On ch=3 n=95 v=78
245064 Off ch=3 n=96 v=64
245160 Off ch=3 n=95 v=64
245160 On ch=3 n=91 v=78
245280 Off ch=3 n=91 v=64
245280 On ch=3 n=93 v=78
245520 On ch=3 n=95 v=78
245532 Off ch=3 n=93 v=64
245640 Off ch=3 n=95 v=64
245640 On ch=3 n=91 v=78
245760 Off ch=3 n=91 v=64
245760 On ch=3 n=93 v=78
246000 On ch=3 n=98 v=78
246012 Off ch=3 n=93 v=64
246240 On ch=3 n=96 v=78
246252 Off ch=3 n=98 v=64
246480 On ch=3 n=95 v=78
246498 Off ch=3 n=96 v=64
246600 Off ch=3 n=95 v=64
246600 On ch=3 n=93 v=78
246720 Off ch=3 n=93 v=64
246720 On ch=3 n=95 v=78
246960 On ch=3 n=91 v=78
246966 Off ch=3 n=95 v=64
247158 Off ch=3 n=91 v=64
247200 On ch=3 n=93 v=78
247440 On ch=3 n=98 v=78
247452 Off ch=3 n=93 v=64
247680 On ch=3 n=103 v=78
247692 Off ch=3 n=98 v=64
247800 Off ch=3 n=103 v=64
247800 On ch=3 n=96 v=78
247920 Off ch=3 n=96 v=64
247920 On ch=3 n=98 v=78
248040 Off ch=3 n=98 v=64
248040 On ch=3 n=91 v=78
248160 Off ch=3 n=91 v=64
248160 On ch=3 n=93 v=78
248400 On ch=3 n=98 v=78
248412 Off ch=3 n=93 v=64
248640 On ch=3 n=96 v=78
248652 Off ch=3 n=98 v=64
248880 On ch=3 n=95 v=78
248904 Off ch=3 n=96 v=64
249000 Off ch=3 n=95 v=64
249000 On ch=3 n=91 v=78
249120 Off ch=3 n=91 v=64
249120 On ch=3 n=93 v=78
249360 On ch=3 n=98 v=78
249372 Off ch=3 n=93 v=64
249600 On ch=3 n=103 v=78
249612 Off ch=3 n=98 v=64
249720 Off ch=3 n=103 v=64
249720 On ch=3 n=96 v=78
249840 Off ch=3 n=96 v=64
249840 On ch=3 n=98 v=78
249960 Off ch=3 n=98 v=64
249960 On ch=3 n=91 v=78
250080 Off ch=3 n=91 v=64
250080 On ch=3 n=93 v=78
250320 On ch=3 n=98 v=78
250332 Off ch=3 n=93 v=64
250560 On ch=3 n=103 v=78
250572 Off ch=3 n=98 v=64
250680 Off ch=3 n=103 v=64
250680 On ch=3 n=96 v=78
250800 Off ch=3 n=96 v=64
250800 On ch=3 n=98 v=78
250920 Off ch=3 n=98 v=64
250920 On ch=3 n=91 v=78
251040 Off ch=3 n=91 v=64
251040 On ch=3 n=93 v=78
251280 On ch=3 n=98 v=78
251292 Off ch=3 n=93 v=64
251520 On ch=3 n=103 v=78
251532 Off ch=3 n=98 v=64
251640 Off ch=3 n=103 v=64
251640 On ch=3 n=96 v=78
251760 Off ch=3 n=96 v=64
251760 On ch=3 n=98 v=78
251880 Off ch=3 n=98 v=64
251880 On ch=3 n=91 v=78
252000 Off ch=3 n=91 v=64
252000 On ch=3 n=93 v=78
252240 On ch=3 n=98 v=78
252252 Off ch=3 n=93 v=64
252480 On ch=3 n=96 v=78
252492 Off ch=3 n=98 v=64
252720 On ch=3 n=95 v=78
252744 Off ch=3 n=96 v=64
252840 Off ch=3 n=95 v=64
252840 On ch=3 n=91 v=78
252960 Off ch=3 n=91 v=64
258240 On ch=3 n=81 v=106
258360 Off ch=3 n=81 v=64
258480 On ch=3 n=86 v=106
258600 Off ch=3 n=86 v=64
258720 On ch=3 n=81 v=106
258840 Off ch=3 n=81 v=64
258960 On ch=3 n=86 v=106
259080 Off ch=3 n=86 v=64
259200 On ch=3 n=88 v=106
259320 Off ch=3 n=88 v=64
259440 On ch=3 n=91 v=106
259560 Off ch=3 n=91 v=64
259680 On ch=3 n=90 v=106
259800 Off ch=3 n=90 v=64
259920 On ch=3 n=88 v=106
260040 Off ch=3 n=88 v=64
260160 On ch=3 n=86 v=106
260280 Off ch=3 n=86 v=64
260400 On ch=3 n=81 v=106
260400 On ch=3 n=93 v=86
260520 Off ch=3 n=81 v=64
260520 Off ch=3 n=93 v=64
260640 On ch=3 n=83 v=106
260640 On ch=3 n=95 v=86
260760 Off ch=3 n=83 v=64
260760 Off ch=3 n=95 v=64
260880 On ch=3 n=86 v=106
260880 On ch=3 n=98 v=86
261000 Off ch=3 n=86 v=64
261000 Off ch=3 n=98 v=64
261120 On ch=3 n=91 v=106
261120 On ch=3 n=103 v=86
261240 Off ch=3 n=91 v=64
261240 Off ch=3 n=103 v=64
261360 On ch=3 n=90 v=106
261360 On ch=3 n=102 v=86
261480 Off ch=3 n=90 v=64
261480 Off ch=3 n=102 v=64
261600 On ch=3 n=88 v=106
261600 On ch=3 n=100 v=86
261720 Off ch=3 n=88 v=64
261720 Off ch=3 n=100 v=64
261840 On ch=3 n=98 v=86
261840 On ch=3 n=86 v=106
261960 Off ch=3 n=98 v=64
261960 Off ch=3 n=86 v=64
262080 On ch=3 n=93 v=86
262080 On ch=3 n=81 v=106
262200 Off ch=3 n=93 v=64
262200 Off ch=3 n=81 v=64
262560 On ch=3 n=83 v=106
262560 On ch=3 n=95 v=86
262680 Off ch=3 n=83 v=64
262680 Off ch=3 n=95 v=64
262800 On ch=3 n=86 v=106
262800 On ch=3 n=98 v=86
262920 Off ch=3 n=86 v=64
262920 Off ch=3 n=98 v=64
263040 On ch=3 n=84 v=106
263040 On ch=3 n=96 v=86
263160 Off ch=3 n=84 v=64
263160 Off ch=3 n=96 v=64
263280 On ch=3 n=93 v=86
263280 On ch=3 n=81 v=106
263400 Off ch=3 n=93 v=64
263400 Off ch=3 n=81 v=64
263520 On ch=3 n=81 v=106
263520 On ch=3 n=93 v=86
263640 Off ch=3 n=81 v=64
263640 Off ch=3 n=93 v=64
263760 On ch=3 n=93 v=86
263880 Off ch=3 n=93 v=64
271200 On ch=3 n=87 v=66
271200 On ch=3 n=79 v=66
271200 On ch=3 n=85 v=66
271200 On ch=3 n=82 v=66
271311 Off ch=3 n=87 v=64
271311 Off ch=3 n=79 v=64
271311 Off ch=3 n=85 v=64
271311 Off ch=3 n=82 v=64
271333 On ch=3 n=84 v=66
271333 On ch=3 n=86 v=66
271333 On ch=3 n=78 v=66
271333 On ch=3 n=81 v=66
271444 Off ch=3 n=84 v=64
271444 Off ch=3 n=86 v=64
271444 Off ch=3 n=78 v=64
271444 Off ch=3 n=81 v=64
271466 On ch=3 n=77 v=66
271466 On ch=3 n=83 v=66
271466 On ch=3 n=85 v=66
271466 On ch=3 n=80 v=66
271578 Off ch=3 n=77 v=64
271578 Off ch=3 n=83 v=64
271578 Off ch=3 n=85 v=64
271578 Off ch=3 n=80 v=64
271600 On ch=3 n=82 v=66
271600 On ch=3 n=76 v=66
271600 On ch=3 n=79 v=66
271600 On ch=3 n=84 v=66
271711 Off ch=3 n=82 v=64
271711 Off ch=3 n=76 v=64
271711 Off ch=3 n=79 v=64
271711 Off ch=3 n=84 v=64
271733 On ch=3 n=75 v=66
271733 On ch=3 n=81 v=66
271733 On ch=3 n=78 v=66
271733 On ch=3 n=83 v=66
271844 Off ch=3 n=75 v=64
271844 Off ch=3 n=81 v=64
271844 Off ch=3 n=78 v=64
271844 Off ch=3 n=83 v=64
271866 On ch=3 n=82 v=66
271866 On ch=3 n=74 v=66
271866 On ch=3 n=80 v=66
271866 On ch=3 n=77 v=66
271978 Off ch=3 n=82 v=64
271978 Off ch=3 n=74 v=64
271978 Off ch=3 n=80 v=64
271978 Off ch=3 n=77 v=64
272000 On ch=3 n=76 v=66
272000 On ch=3 n=81 v=66
272000 On ch=3 n=79 v=66
272000 On ch=3 n=73 v=66
272111 Off ch=3 n=76 v=64
272111 Off ch=3 n=81 v=64
272111 Off ch=3 n=79 v=64
272111 Off ch=3 n=73 v=64
272133 On ch=3 n=78 v=66
272133 On ch=3 n=72 v=66
272133 On ch=3 n=75 v=66
272133 On ch=3 n=80 v=66
272244 Off ch=3 n=78 v=64
272244 Off ch=3 n=72 v=64
272244 Off ch=3 n=75 v=64
272244 Off ch=3 n=80 v=64
272266 On ch=3 n=71 v=66
272266 On ch=3 n=79 v=66
272266 On ch=3 n=77 v=66
272266 On ch=3 n=74 v=66
272378 Off ch=3 n=71 v=64
272378 Off ch=3 n=79 v=64
272378 Off ch=3 n=77 v=64
272378 Off ch=3 n=74 v=64
272400 On ch=3 n=78 v=66
272400 On ch=3 n=76 v=66
272400 On ch=3 n=70 v=66
272400 On ch=3 n=73 v=66
272511 Off ch=3 n=78 v=64
272511 Off ch=3 n=76 v=64
272511 Off ch=3 n=70 v=64
272511 Off ch=3 n=73 v=64
277680 On ch=3 n=82 v=70
277680 On ch=3 n=94 v=70
277836 Off ch=3 n=82 v=64
277836 Off ch=3 n=94 v=64
277920 On ch=3 n=87 v=71
277920 On ch=3 n=99 v=71
278076 Off ch=3 n=87 v=64
278076 Off ch=3 n=99 v=64
278160 On ch=3 n=82 v=69
278160 On ch=3 n=94 v=69
278316 Off ch=3 n=82 v=64
278316 Off ch=3 n=94 v=64
278400 On ch=3 n=87 v=74
278400 On ch=3 n=99 v=74
278556 Off ch=3 n=87 v=64
278556 Off ch=3 n=99 v=64
278640 On ch=3 n=89 v=80
278640 On ch=3 n=101 v=80
278796 Off ch=3 n=89 v=64
278796 Off ch=3 n=101 v=64
278880 On ch=3 n=92 v=85
278880 On ch=3 n=104 v=85
279036 Off ch=3 n=92 v=64
279036 Off ch=3 n=104 v=64
279120 On ch=3 n=91 v=81
279120 On ch=3 n=103 v=81
279276 Off ch=3 n=91 v=64
279276 Off ch=3 n=103 v=64
279360 On ch=3 n=89 v=76
279360 On ch=3 n=101 v=76
279516 Off ch=3 n=89 v=64
279516 Off ch=3 n=101 v=64
279600 On ch=3 n=87 v=72
279600 On ch=3 n=99 v=72
279756 Off ch=3 n=87 v=64
279756 Off ch=3 n=99 v=64
279840 On ch=3 n=82 v=67
279840 On ch=3 n=94 v=67
279996 Off ch=3 n=82 v=64
279996 Off ch=3 n=94 v=64
281760 On ch=3 n=87 v=84
281760 On ch=3 n=99 v=84
281916 Off ch=3 n=87 v=64
281916 Off ch=3 n=99 v=64
282000 On ch=3 n=92 v=81
282000 On ch=3 n=104 v=81
282156 Off ch=3 n=92 v=64
282156 Off ch=3 n=104 v=64
282240 On ch=3 n=91 v=76
282240 On ch=3 n=103 v=76
282396 Off ch=3 n=91 v=64
282396 Off ch=3 n=103 v=64
282480 On ch=3 n=89 v=71
282480 On ch=3 n=101 v=71
282636 Off ch=3 n=89 v=64
282636 Off ch=3 n=101 v=64
282720 On ch=3 n=87 v=66
282720 On ch=3 n=99 v=66
282876 Off ch=3 n=87 v=64
282876 Off ch=3 n=99 v=64
282960 On ch=3 n=82 v=72
282960 On ch=3 n=94 v=72
283116 Off ch=3 n=82 v=64
283116 Off ch=3 n=94 v=64
283200 On ch=3 n=84 v=79
283200 On ch=3 n=96 v=79
283356 Off ch=3 n=84 v=64
283356 Off ch=3 n=96 v=64
283440 On ch=3 n=99 v=85
283440 On ch=3 n=87 v=85
283596 Off ch=3 n=99 v=64
283596 Off ch=3 n=87 v=64
283680 On ch=3 n=85 v=81
283680 On ch=3 n=97 v=81
283836 Off ch=3 n=85 v=64
283836 Off ch=3 n=97 v=64
283920 On ch=3 n=82 v=76
283920 On ch=3 n=94 v=76
284076 Off ch=3 n=82 v=64
284076 Off ch=3 n=94 v=64
284160 On ch=3 n=82 v=72
284160 On ch=3 n=94 v=72
284316 Off ch=3 n=82 v=64
284316 Off ch=3 n=94 v=64
284400 On ch=3 n=82 v=67
284400 On ch=3 n=94 v=67
284556 Off ch=3 n=82 v=64
284556 Off ch=3 n=94 v=64
305400 On ch=3 n=88 v=106
305426 On ch=3 n=90 v=110
305442 Off ch=3 n=88 v=64
305456 On ch=3 n=91 v=114
305468 Off ch=3 n=90 v=64
305488 On ch=3 n=93 v=119
305498 Off ch=3 n=91 v=64
305520 On ch=3 n=94 v=124
305520 On ch=3 n=82 v=124
305530 Off ch=3 n=93 v=64
305640 Off ch=3 n=94 v=64
305640 Off ch=3 n=82 v=64
305760 On ch=3 n=92 v=110
305760 On ch=3 n=80 v=110
305880 Off ch=3 n=92 v=64
305880 Off ch=3 n=80 v=64
306000 On ch=3 n=94 v=106
306000 On ch=3 n=82 v=106
306120 Off ch=3 n=94 v=64
306120 Off ch=3 n=82 v=64
306240 On ch=3 n=92 v=101
306240 On ch=3 n=80 v=101
306360 Off ch=3 n=92 v=64
306360 Off ch=3 n=80 v=64
306480 On ch=3 n=90 v=97
306480 On ch=3 n=78 v=97
306600 Off ch=3 n=90 v=64
306600 Off ch=3 n=78 v=64
306720 On ch=3 n=89 v=92
306720 On ch=3 n=77 v=92
306840 Off ch=3 n=89 v=64
306840 Off ch=3 n=77 v=64
306960 On ch=3 n=94 v=108
306960 On ch=3 n=82 v=108
307080 Off ch=3 n=94 v=64
307080 Off ch=3 n=82 v=64
307200 On ch=3 n=92 v=105
307200 On ch=3 n=80 v=105
307320 Off ch=3 n=92 v=64
307320 Off ch=3 n=80 v=64
307440 On ch=3 n=94 v=102
307440 On ch=3 n=82 v=102
307560 Off ch=3 n=94 v=64
307560 Off ch=3 n=82 v=64
307680 On ch=3 n=92 v=100
307680 On ch=3 n=80 v=100
307800 Off ch=3 n=92 v=64
307800 Off ch=3 n=80 v=64
307920 On ch=3 n=90 v=97
307920 On ch=3 n=78 v=97
308040 Off ch=3 n=90 v=64
308040 Off ch=3 n=78 v=64
308160 On ch=3 n=89 v=94
308160 On ch=3 n=77 v=94
308280 Off ch=3 n=89 v=64
308280 Off ch=3 n=77 v=64
308400 On ch=3 n=94 v=108
308400 On ch=3 n=82 v=108
308520 Off ch=3 n=94 v=64
308520 Off ch=3 n=82 v=64
308640 On ch=3 n=92 v=105
308640 On ch=3 n=80 v=105
308760 Off ch=3 n=92 v=64
308760 Off ch=3 n=80 v=64
308880 On ch=3 n=94 v=103
308880 On ch=3 n=82 v=103
309000 Off ch=3 n=94 v=64
309000 Off ch=3 n=82 v=64
309120 On ch=3 n=92 v=101
309120 On ch=3 n=80 v=101
309240 Off ch=3 n=92 v=64
309240 Off ch=3 n=80 v=64
309360 On ch=3 n=90 v=99
309360 On ch=3 n=78 v=99
309480 Off ch=3 n=90 v=64
309480 Off ch=3 n=78 v=64
309600 On ch=3 n=89 v=97
309600 On ch=3 n=77 v=97
309720 Off ch=3 n=89 v=64
309720 Off ch=3 n=77 v=64
309840 On ch=3 n=90 v=95
309840 On ch=3 n=78 v=95
309960 Off ch=3 n=90 v=64
309960 Off ch=3 n=78 v=64
310080 On ch=3 n=87 v=108
310080 On ch=3 n=75 v=108
310200 Off ch=3 n=87 v=64
310200 Off ch=3 n=75 v=64
310320 On ch=3 n=87 v=100
310320 On ch=3 n=75 v=100
310440 Off ch=3 n=87 v=64
310440 Off ch=3 n=75 v=64
310560 On ch=3 n=87 v=108
310560 On ch=3 n=75 v=108
310680 Off ch=3 n=87 v=64
310680 Off ch=3 n=75 v=64
310800 On ch=3 n=89 v=100
310800 On ch=3 n=77 v=100
310920 Off ch=3 n=89 v=64
310920 Off ch=3 n=77 v=64
311040 On ch=3 n=90 v=108
311040 On ch=3 n=78 v=108
311160 Off ch=3 n=90 v=64
311160 Off ch=3 n=78 v=64
311280 On ch=3 n=92 v=97
311280 On ch=3 n=80 v=97
311400 Off ch=3 n=92 v=64
311400 Off ch=3 n=80 v=64
311520 On ch=3 n=94 v=108
311520 On ch=3 n=82 v=108
311640 Off ch=3 n=94 v=64
311640 Off ch=3 n=82 v=64
311760 On ch=3 n=92 v=107
311760 On ch=3 n=80 v=107
311880 Off ch=3 n=92 v=64
311880 Off ch=3 n=80 v=64
312000 On ch=3 n=94 v=104
312000 On ch=3 n=82 v=104
312120 Off ch=3 n=94 v=64
312120 Off ch=3 n=82 v=64
312240 On ch=3 n=92 v=102
312240 On ch=3 n=80 v=102
312360 Off ch=3 n=92 v=64
312360 Off ch=3 n=80 v=64
312480 On ch=3 n=90 v=99
312480 On ch=3 n=78 v=99
312600 Off ch=3 n=90 v=64
312600 Off ch=3 n=78 v=64
312720 On ch=3 n=89 v=96
312720 On ch=3 n=77 v=96
312840 Off ch=3 n=89 v=64
312840 Off ch=3 n=77 v=64
312960 On ch=3 n=87 v=108
312960 On ch=3 n=75 v=108
313080 Off ch=3 n=87 v=64
313080 Off ch=3 n=75 v=64
313200 On ch=3 n=89 v=106
313200 On ch=3 n=77 v=106
313320 Off ch=3 n=89 v=64
313320 Off ch=3 n=77 v=64
313440 On ch=3 n=90 v=101
313440 On ch=3 n=78 v=101
313560 Off ch=3 n=90 v=64
313560 Off ch=3 n=78 v=64
313680 On ch=3 n=92 v=96
313680 On ch=3 n=80 v=96
313800 Off ch=3 n=92 v=64
313800 Off ch=3 n=80 v=64
313920 On ch=3 n=93 v=108
313920 On ch=3 n=81 v=108
314040 Off ch=3 n=93 v=64
314040 Off ch=3 n=81 v=64
314160 On ch=3 n=91 v=107
314160 On ch=3 n=79 v=107
314280 Off ch=3 n=91 v=64
314280 Off ch=3 n=79 v=64
314400 On ch=3 n=93 v=105
314400 On ch=3 n=81 v=105
314520 Off ch=3 n=93 v=64
314520 Off ch=3 n=81 v=64
314640 On ch=3 n=91 v=102
314640 On ch=3 n=79 v=102
314760 Off ch=3 n=91 v=64
314760 Off ch=3 n=79 v=64
314880 On ch=3 n=89 v=100
314880 On ch=3 n=77 v=100
315000 Off ch=3 n=89 v=64
315000 Off ch=3 n=77 v=64
315120 On ch=3 n=88 v=97
315120 On ch=3 n=76 v=97
315240 Off ch=3 n=88 v=64
315240 Off ch=3 n=76 v=64
315360 On ch=3 n=86 v=108
315360 On ch=3 n=74 v=108
315480 Off ch=3 n=86 v=64
315480 Off ch=3 n=74 v=64
315600 On ch=3 n=86 v=96
315600 On ch=3 n=74 v=96
315720 Off ch=3 n=86 v=64
315720 Off ch=3 n=74 v=64
315840 On ch=3 n=86 v=108
315840 On ch=3 n=74 v=108
315960 Off ch=3 n=86 v=64
315960 Off ch=3 n=74 v=64
316080 On ch=3 n=88 v=98
316080 On ch=3 n=76 v=98
316200 Off ch=3 n=88 v=64
316200 Off ch=3 n=76 v=64
316320 On ch=3 n=89 v=108
316320 On ch=3 n=77 v=108
316440 Off ch=3 n=89 v=64
316440 Off ch=3 n=77 v=64
316560 On ch=3 n=91 v=98
316560 On ch=3 n=79 v=98
316680 Off ch=3 n=91 v=64
316680 Off ch=3 n=79 v=64
327360 On ch=3 n=96 v=90
327360 On ch=3 n=92 v=90
327420 Off ch=3 n=96 v=64
327420 Off ch=3 n=92 v=64
327420 On ch=3 n=96 v=94
327420 On ch=3 n=99 v=94
327480 Off ch=3 n=96 v=64
327480 Off ch=3 n=99 v=64
327480 On ch=3 n=99 v=98
327480 On ch=3 n=102 v=98
327540 Off ch=3 n=99 v=64
327540 Off ch=3 n=102 v=64
327540 On ch=3 n=104 v=101
327540 On ch=3 n=102 v=101
327600 Off ch=3 n=104 v=64
327600 Off ch=3 n=102 v=64
327600 On ch=3 n=104 v=105
327600 On ch=3 n=108 v=105
327600 On ch=3 n=85 v=105
327744 Off ch=3 n=104 v=64
327744 Off ch=3 n=108 v=64
327744 Off ch=3 n=85 v=64
327840 On ch=3 n=108 v=110
327840 On ch=3 n=104 v=110
327840 On ch=3 n=85 v=110
327984 Off ch=3 n=108 v=64
327984 Off ch=3 n=104 v=64
327984 Off ch=3 n=85 v=64
328080 On ch=3 n=104 v=110
328080 On ch=3 n=108 v=110
328080 On ch=3 n=85 v=110
328224 Off ch=3 n=104 v=64
328224 Off ch=3 n=108 v=64
328224 Off ch=3 n=85 v=64
328320 On ch=3 n=105 v=110
328320 On ch=3 n=101 v=110
328320 On ch=3 n=82 v=110
328464 Off ch=3 n=105 v=64
328464 Off ch=3 n=101 v=64
328464 Off ch=3 n=82 v=64
328560 On ch=3 n=105 v=110
328560 On ch=3 n=101 v=110
328560 On ch=3 n=82 v=110
328704 Off ch=3 n=105 v=64
328704 Off ch=3 n=101 v=64
328704 Off ch=3 n=82 v=64
328800 On ch=3 n=105 v=110
328800 On ch=3 n=101 v=110
328800 On ch=3 n=82 v=110
328944 Off ch=3 n=105 v=64
328944 Off ch=3 n=101 v=64
328944 Off ch=3 n=82 v=64
329040 On ch=3 n=98 v=110
329040 On ch=3 n=102 v=110
329040 On ch=3 n=79 v=110
329184 Off ch=3 n=98 v=64
329184 Off ch=3 n=102 v=64
329184 Off ch=3 n=79 v=64
329280 On ch=3 n=102 v=110
329280 On ch=3 n=98 v=110
329280 On ch=3 n=79 v=110
329424 Off ch=3 n=102 v=64
329424 Off ch=3 n=98 v=64
329424 Off ch=3 n=79 v=64
329520 On ch=3 n=102 v=110
329520 On ch=3 n=98 v=110
329520 On ch=3 n=79 v=110
329664 Off ch=3 n=102 v=64
329664 Off ch=3 n=98 v=64
329664 Off ch=3 n=79 v=64
329760 On ch=3 n=99 v=102
329760 On ch=3 n=95 v=102
329760 On ch=3 n=87 v=102
329760 On ch=3 n=83 v=102
329760 On ch=3 n=76 v=102
329904 Off ch=3 n=99 v=64
329904 Off ch=3 n=95 v=64
329904 Off ch=3 n=87 v=64
329904 Off ch=3 n=83 v=64
329904 Off ch=3 n=76 v=64
330000 On ch=3 n=99 v=102
330000 On ch=3 n=95 v=102
330000 On ch=3 n=83 v=102
330000 On ch=3 n=87 v=102
330000 On ch=3 n=76 v=102
330144 Off ch=3 n=99 v=64
330144 Off ch=3 n=95 v=64
330144 Off ch=3 n=83 v=64
330144 Off ch=3 n=87 v=64
330144 Off ch=3 n=76 v=64
330240 On ch=3 n=99 v=102
330240 On ch=3 n=95 v=102
330240 On ch=3 n=83 v=102
330240 On ch=3 n=87 v=102
330240 On ch=3 n=76 v=102
330384 Off ch=3 n=99 v=64
330384 Off ch=3 n=95 v=64
330384 Off ch=3 n=83 v=64
330384 Off ch=3 n=87 v=64
330384 Off ch=3 n=76 v=64
330480 On ch=3 n=93 v=102
330480 On ch=3 n=89 v=102
330480 On ch=3 n=82 v=102
330624 Off ch=3 n=93 v=64
330624 Off ch=3 n=89 v=64
330624 Off ch=3 n=82 v=64
330720 On ch=3 n=89 v=102
330720 On ch=3 n=93 v=102
330720 On ch=3 n=82 v=102
330864 Off ch=3 n=89 v=64
330864 Off ch=3 n=93 v=64
330864 Off ch=3 n=82 v=64
330960 On ch=3 n=89 v=101
330960 On ch=3 n=93 v=101
330960 On ch=3 n=82 v=101
331104 Off ch=3 n=89 v=64
331104 Off ch=3 n=93 v=64
331104 Off ch=3 n=82 v=64
331200 On ch=3 n=90 v=101
331200 On ch=3 n=86 v=101
331200 On ch=3 n=79 v=101
331344 Off ch=3 n=90 v=64
331344 Off ch=3 n=86 v=64
331344 Off ch=3 n=79 v=64
331440 On ch=3 n=90 v=101
331440 On ch=3 n=86 v=101
331440 On ch=3 n=79 v=101
331584 Off ch=3 n=90 v=64
331584 Off ch=3 n=86 v=64
331584 Off ch=3 n=79 v=64
331680 On ch=3 n=90 v=101
331680 On ch=3 n=86 v=101
331680 On ch=3 n=79 v=101
331824 Off ch=3 n=90 v=64
331824 Off ch=3 n=86 v=64
331824 Off ch=3 n=79 v=64
331920 On ch=3 n=87 v=96
331920 On ch=3 n=83 v=96
331920 On ch=3 n=76 v=96
332064 Off ch=3 n=87 v=64
332064 Off ch=3 n=83 v=64
332064 Off ch=3 n=76 v=64
332160 On ch=3 n=87 v=96
332160 On ch=3 n=83 v=96
332160 On ch=3 n=76 v=96
332304 Off ch=3 n=87 v=64
332304 Off ch=3 n=83 v=64
332304 Off ch=3 n=76 v=64
332400 On ch=3 n=87 v=96
332400 On ch=3 n=83 v=96
332400 On ch=3 n=76 v=96
332544 Off ch=3 n=87 v=64
332544 Off ch=3 n=83 v=64
332544 Off ch=3 n=76 v=64
332640 On ch=3 n=84 v=96
332640 On ch=3 n=80 v=96
332640 On ch=3 n=73 v=96
332784 Off ch=3 n=84 v=64
332784 Off ch=3 n=80 v=64
332784 Off ch=3 n=73 v=64
332880 On ch=3 n=84 v=96
332880 On ch=3 n=80 v=96
332880 On ch=3 n=73 v=96
333024 Off ch=3 n=84 v=64
333024 Off ch=3 n=80 v=64
333024 Off ch=3 n=73 v=64
333120 On ch=3 n=84 v=96
333120 On ch=3 n=80 v=96
333120 On ch=3 n=73 v=96
333264 Off ch=3 n=84 v=64
333264 Off ch=3 n=80 v=64
333264 Off ch=3 n=73 v=64
333360 On ch=3 n=81 v=96
333360 On ch=3 n=77 v=96
333360 On ch=3 n=70 v=96
333504 Off ch=3 n=81 v=64
333504 Off ch=3 n=77 v=64
333504 Off ch=3 n=70 v=64
333600 On ch=3 n=81 v=96
333600 On ch=3 n=77 v=96
333600 On ch=3 n=70 v=96
333744 Off ch=3 n=81 v=64
333744 Off ch=3 n=77 v=64
333744 Off ch=3 n=70 v=64
333840 On ch=3 n=81 v=96
333840 On ch=3 n=77 v=96
333840 On ch=3 n=70 v=96
333984 Off ch=3 n=81 v=64
333984 Off ch=3 n=77 v=64
333984 Off ch=3 n=70 v=64
334800 On ch=3 n=77 v=83
334800 On ch=3 n=89 v=83
334800 On ch=3 n=65 v=83
334920 Off ch=3 n=77 v=64
334920 Off ch=3 n=89 v=64
334920 Off ch=3 n=65 v=64
335040 On ch=3 n=82 v=81
335040 On ch=3 n=70 v=81
335040 On ch=3 n=94 v=81
335160 Off ch=3 n=82 v=64
335160 Off ch=3 n=70 v=64
335160 Off ch=3 n=94 v=64
335280 On ch=3 n=65 v=78
335280 On ch=3 n=77 v=78
335280 On ch=3 n=89 v=78
335400 Off ch=3 n=65 v=64
335400 Off ch=3 n=77 v=64
335400 Off ch=3 n=89 v=64
335520 On ch=3 n=70 v=75
335520 On ch=3 n=82 v=75
335520 On ch=3 n=94 v=75
335640 Off ch=3 n=70 v=64
335640 Off ch=3 n=82 v=64
335640 Off ch=3 n=94 v=64
335760 On ch=3 n=72 v=72
335760 On ch=3 n=84 v=72
335760 On ch=3 n=96 v=72
335880 Off ch=3 n=72 v=64
335880 Off ch=3 n=84 v=64
335880 Off ch=3 n=96 v=64
336000 On ch=3 n=75 v=84
336000 On ch=3 n=87 v=84
336000 On ch=3 n=99 v=84
336120 Off ch=3 n=75 v=64
336120 Off ch=3 n=87 v=64
336120 Off ch=3 n=99 v=64
336240 On ch=3 n=86 v=82
336240 On ch=3 n=74 v=82
336240 On ch=3 n=98 v=82
336360 Off ch=3 n=86 v=64
336360 Off ch=3 n=74 v=64
336360 Off ch=3 n=98 v=64
336480 On ch=3 n=84 v=79
336480 On ch=3 n=72 v=79
336480 On ch=3 n=96 v=79
336600 Off ch=3 n=84 v=64
336600 Off ch=3 n=72 v=64
336600 Off ch=3 n=96 v=64
336720 On ch=3 n=70 v=75
336720 On ch=3 n=82 v=75
336720 On ch=3 n=94 v=75
336840 Off ch=3 n=70 v=64
336840 Off ch=3 n=82 v=64
336840 Off ch=3 n=94 v=64
336960 On ch=3 n=65 v=72
336960 On ch=3 n=89 v=72
336960 On ch=3 n=77 v=72
337080 Off ch=3 n=65 v=64
337080 Off ch=3 n=89 v=64
337080 Off ch=3 n=77 v=64
337920 On ch=3 n=82 v=84
337920 On ch=3 n=70 v=84
337920 On ch=3 n=94 v=84
338040 Off ch=3 n=82 v=64
338040 Off ch=3 n=70 v=64
338040 Off ch=3 n=94 v=64
338160 On ch=3 n=77 v=79
338160 On ch=3 n=65 v=79
338160 On ch=3 n=89 v=79
338280 Off ch=3 n=77 v=64
338280 Off ch=3 n=65 v=64
338280 Off ch=3 n=89 v=64
338400 On ch=3 n=70 v=74
338400 On ch=3 n=82 v=74
338400 On ch=3 n=94 v=74
338520 Off ch=3 n=70 v=64
338520 Off ch=3 n=82 v=64
338520 Off ch=3 n=94 v=64
338640 On ch=3 n=72 v=69
338640 On ch=3 n=84 v=69
338640 On ch=3 n=96 v=69
338760 Off ch=3 n=72 v=64
338760 Off ch=3 n=84 v=64
338760 Off ch=3 n=96 v=64
338880 On ch=3 n=75 v=84
338880 On ch=3 n=87 v=84
338880 On ch=3 n=99 v=84
339000 Off ch=3 n=75 v=64
339000 Off ch=3 n=87 v=64
339000 Off ch=3 n=99 v=64
339120 On ch=3 n=74 v=80
339120 On ch=3 n=86 v=80
339120 On ch=3 n=98 v=80
339240 Off ch=3 n=74 v=64
339240 Off ch=3 n=86 v=64
339240 Off ch=3 n=98 v=64
339360 On ch=3 n=72 v=77
339360 On ch=3 n=96 v=77
339360 On ch=3 n=84 v=77
339480 Off ch=3 n=72 v=64
339480 Off ch=3 n=96 v=64
339480 Off ch=3 n=84 v=64
339600 On ch=3 n=94 v=74
339600 On ch=3 n=70 v=74
339600 On ch=3 n=82 v=74
339720 Off ch=3 n=94 v=64
339720 Off ch=3 n=70 v=64
339720 Off ch=3 n=82 v=64
339840 On ch=3 n=89 v=70
339840 On ch=3 n=77 v=70
339840 On ch=3 n=65 v=70
339960 Off ch=3 n=89 v=64
339960 Off ch=3 n=77 v=64
339960 Off ch=3 n=65 v=64
340080 On ch=3 n=70 v=83
340080 On ch=3 n=82 v=83
340080 On ch=3 n=94 v=83
340200 Off ch=3 n=70 v=64
340200 Off ch=3 n=82 v=64
340200 Off ch=3 n=94 v=64
340320 On ch=3 n=75 v=79
340320 On ch=3 n=87 v=79
340320 On ch=3 n=99 v=79
340440 Off ch=3 n=75 v=64
340440 Off ch=3 n=87 v=64
340440 Off ch=3 n=99 v=64
340560 On ch=3 n=74 v=77
340560 On ch=3 n=98 v=77
340560 On ch=3 n=86 v=77
340680 Off ch=3 n=74 v=64
340680 Off ch=3 n=98 v=64
340680 Off ch=3 n=86 v=64
340800 On ch=3 n=96 v=75
340800 On ch=3 n=72 v=75
340800 On ch=3 n=84 v=75
340920 Off ch=3 n=96 v=64
340920 Off ch=3 n=72 v=64
340920 Off ch=3 n=84 v=64
341040 On ch=3 n=70 v=73
341040 On ch=3 n=82 v=73
341040 On ch=3 n=94 v=73
341160 Off ch=3 n=70 v=64
341160 Off ch=3 n=82 v=64
341160 Off ch=3 n=94 v=64
341280 On ch=3 n=77 v=71
341280 On ch=3 n=89 v=71
341280 On ch=3 n=65 v=71
341400 Off ch=3 n=77 v=64
341400 Off ch=3 n=89 v=64
341400 Off ch=3 n=65 v=64
341520 On ch=3 n=79 v=84
341520 On ch=3 n=91 v=84
341520 On ch=3 n=67 v=84
341640 Off ch=3 n=79 v=64
341640 Off ch=3 n=91 v=64
341640 Off ch=3 n=67 v=64
341760 On ch=3 n=70 v=81
341760 On ch=3 n=82 v=81
341760 On ch=3 n=94 v=81
341880 Off ch=3 n=70 v=64
341880 Off ch=3 n=82 v=64
341880 Off ch=3 n=94 v=64
342000 On ch=3 n=68 v=77
342000 On ch=3 n=80 v=77
342000 On ch=3 n=92 v=77
342120 Off ch=3 n=68 v=64
342120 Off ch=3 n=80 v=64
342120 Off ch=3 n=92 v=64
342240 On ch=3 n=77 v=74
342240 On ch=3 n=89 v=74
342240 On ch=3 n=65 v=74
342360 Off ch=3 n=77 v=64
342360 Off ch=3 n=89 v=64
342360 Off ch=3 n=65 v=64
342480 On ch=3 n=77 v=71
342480 On ch=3 n=65 v=71
342480 On ch=3 n=89 v=71
342600 Off ch=3 n=77 v=64
342600 Off ch=3 n=65 v=64
342600 Off ch=3 n=89 v=64
357120 On ch=3 n=100 v=108
357318 Off ch=3 n=100 v=64
358560 On ch=3 n=100 v=108
358758 Off ch=3 n=100 v=64
360000 On ch=3 n=100 v=108
360198 Off ch=3 n=100 v=64
360960 On ch=3 n=100 v=108
361158 Off ch=3 n=100 v=64
435120 Par ch=3 c=7 v=98
435360 Par ch=3 c=7 v=98
435599 Par ch=3 c=7 v=100
435840 On ch=3 n=65 v=40
435840 On ch=3 n=58 v=40
435840 On ch=3 n=66 v=40
435840 On ch=3 n=70 v=40
436292 Off ch=3 n=65 v=64
436292 Off ch=3 n=58 v=64
436292 Off ch=3 n=66 v=64
436292 Off ch=3 n=70 v=64
436320 On ch=3 n=58 v=40
436320 On ch=3 n=66 v=40
436320 On ch=3 n=65 v=40
436320 On ch=3 n=70 v=40
436772 Off ch=3 n=58 v=64
436772 Off ch=3 n=66 v=64
436772 Off ch=3 n=65 v=64
436772 Off ch=3 n=70 v=64
436800 On ch=3 n=58 v=40
436800 On ch=3 n=65 v=40
436800 On ch=3 n=66 v=40
436800 On ch=3 n=70 v=40
437252 Off ch=3 n=58 v=64
437252 Off ch=3 n=65 v=64
437252 Off ch=3 n=66 v=64
437252 Off ch=3 n=70 v=64
437280 On ch=3 n=60 v=40
437280 On ch=3 n=66 v=40
437280 On ch=3 n=72 v=40
437280 On ch=3 n=68 v=40
437520 Off ch=3 n=60 v=64
437520 Off ch=3 n=66 v=64
437520 Off ch=3 n=72 v=64
437520 Off ch=3 n=68 v=64
437520 On ch=3 n=61 v=40
437520 On ch=3 n=68 v=40
437520 On ch=3 n=70 v=40
437520 On ch=3 n=73 v=40
437760 Off ch=3 n=61 v=64
437760 Off ch=3 n=68 v=64
437760 Off ch=3 n=70 v=64
437760 Off ch=3 n=73 v=64
437760 On ch=3 n=63 v=40
437760 On ch=3 n=70 v=40
437760 On ch=3 n=72 v=40
437760 On ch=3 n=75 v=40
438240 Off ch=3 n=63 v=64
438240 Off ch=3 n=70 v=64
438240 Off ch=3 n=72 v=64
438240 Off ch=3 n=75 v=64
438240 On ch=3 n=61 v=40
438240 On ch=3 n=70 v=40
438240 On ch=3 n=73 v=40
438240 On ch=3 n=68 v=40
438720 Off ch=3 n=61 v=64
438720 Off ch=3 n=70 v=64
438720 Off ch=3 n=73 v=64
438720 Off ch=3 n=68 v=64
438720 On ch=3 n=66 v=40
438720 On ch=3 n=60 v=40
438720 On ch=3 n=72 v=40
438720 On ch=3 n=68 v=40
439200 Off ch=3 n=66 v=64
439200 Off ch=3 n=60 v=64
439200 Off ch=3 n=72 v=64
439200 Off ch=3 n=68 v=64
441120 On ch=3 n=60 v=40
441120 On ch=3 n=66 v=40
441120 On ch=3 n=72 v=40
441120 On ch=3 n=68 v=40
441360 Off ch=3 n=60 v=64
441360 Off ch=3 n=66 v=64
441360 Off ch=3 n=72 v=64
441360 Off ch=3 n=68 v=64
441360 On ch=3 n=61 v=40
441360 On ch=3 n=68 v=40
441360 On ch=3 n=70 v=40
441360 On ch=3 n=73 v=40
441600 Off ch=3 n=61 v=64
441600 Off ch=3 n=68 v=64
441600 Off ch=3 n=70 v=64
441600 Off ch=3 n=73 v=64
441600 On ch=3 n=63 v=40
441600 On ch=3 n=70 v=40
441600 On ch=3 n=72 v=40
441600 On ch=3 n=75 v=40
442080 Off ch=3 n=63 v=64
442080 Off ch=3 n=70 v=64
442080 Off ch=3 n=72 v=64
442080 Off ch=3 n=75 v=64
442080 On ch=3 n=61 v=40
442080 On ch=3 n=70 v=40
442080 On ch=3 n=73 v=40
442080 On ch=3 n=68 v=40
442560 Off ch=3 n=61 v=64
442560 Off ch=3 n=70 v=64
442560 Off ch=3 n=73 v=64
442560 Off ch=3 n=68 v=64
442560 On ch=3 n=66 v=40
442560 On ch=3 n=60 v=40
442560 On ch=3 n=72 v=40
442560 On ch=3 n=68 v=40
443040 Off ch=3 n=66 v=64
443040 Off ch=3 n=60 v=64
443040 Off ch=3 n=72 v=64
443040 Off ch=3 n=68 v=64
443040 On ch=3 n=58 v=40
443040 On ch=3 n=66 v=40
443040 On ch=3 n=65 v=40
443040 On ch=3 n=70 v=40
443492 Off ch=3 n=58 v=64
443492 Off ch=3 n=66 v=64
443492 Off ch=3 n=65 v=64
443492 Off ch=3 n=70 v=64
443520 On ch=3 n=58 v=40
443520 On ch=3 n=65 v=40
443520 On ch=3 n=66 v=40
443520 On ch=3 n=70 v=40
443972 Off ch=3 n=58 v=64
443972 Off ch=3 n=65 v=64
443972 Off ch=3 n=66 v=64
443972 Off ch=3 n=70 v=64
444000 On ch=3 n=60 v=40
444000 On ch=3 n=66 v=40
444000 On ch=3 n=72 v=40
444000 On ch=3 n=68 v=40
444240 Off ch=3 n=60 v=64
444240 Off ch=3 n=66 v=64
444240 Off ch=3 n=72 v=64
444240 Off ch=3 n=68 v=64
444240 On ch=3 n=61 v=40
444240 On ch=3 n=68 v=40
444240 On ch=3 n=70 v=40
444240 On ch=3 n=73 v=40
444480 Off ch=3 n=61 v=64
444480 Off ch=3 n=68 v=64
444480 Off ch=3 n=70 v=64
444480 Off ch=3 n=73 v=64
444480 On ch=3 n=63 v=40
444480 On ch=3 n=70 v=40
444480 On ch=3 n=72 v=40
444480 On ch=3 n=75 v=40
444933 Off ch=3 n=63 v=64
444933 Off ch=3 n=70 v=64
444933 Off ch=3 n=72 v=64
444933 Off ch=3 n=75 v=64
445126 Par ch=3 c=7 v=100
445440 On ch=3 n=65 v=38
445440 On ch=3 n=58 v=38
445440 On ch=3 n=66 v=38
445440 On ch=3 n=70 v=38
445892 Off ch=3 n=65 v=64
445892 Off ch=3 n=58 v=64
445892 Off ch=3 n=66 v=64
445892 Off ch=3 n=70 v=64
445920 On ch=3 n=58 v=38
445920 On ch=3 n=66 v=38
445920 On ch=3 n=65 v=38
445920 On ch=3 n=70 v=38
446372 Off ch=3 n=58 v=64
446372 Off ch=3 n=66 v=64
446372 Off ch=3 n=65 v=64
446372 Off ch=3 n=70 v=64
446400 On ch=3 n=58 v=38
446400 On ch=3 n=65 v=38
446400 On ch=3 n=66 v=38
446400 On ch=3 n=70 v=38
446852 Off ch=3 n=58 v=64
446852 Off ch=3 n=65 v=64
446852 Off ch=3 n=66 v=64
446852 Off ch=3 n=70 v=64
446880 On ch=3 n=60 v=38
446880 On ch=3 n=66 v=38
446880 On ch=3 n=72 v=38
446880 On ch=3 n=68 v=38
447120 Off ch=3 n=60 v=64
447120 Off ch=3 n=66 v=64
447120 Off ch=3 n=72 v=64
447120 Off ch=3 n=68 v=64
447120 On ch=3 n=61 v=38
447120 On ch=3 n=68 v=38
447120 On ch=3 n=70 v=38
447120 On ch=3 n=73 v=38
447360 Off ch=3 n=61 v=64
447360 Off ch=3 n=68 v=64
447360 Off ch=3 n=70 v=64
447360 Off ch=3 n=73 v=64
447360 On ch=3 n=63 v=38
447360 On ch=3 n=70 v=38
447360 On ch=3 n=72 v=38
447360 On ch=3 n=75 v=38
447840 Off ch=3 n=63 v=64
447840 Off ch=3 n=70 v=64
447840 Off ch=3 n=72 v=64
447840 Off ch=3 n=75 v=64
447840 On ch=3 n=61 v=38
447840 On ch=3 n=70 v=38
447840 On ch=3 n=73 v=38
447840 On ch=3 n=68 v=38
448320 Off ch=3 n=61 v=64
448320 Off ch=3 n=70 v=64
448320 Off ch=3 n=73 v=64
448320 Off ch=3 n=68 v=64
448320 On ch=3 n=66 v=38
448320 On ch=3 n=60 v=38
448320 On ch=3 n=72 v=38
448320 On ch=3 n=68 v=38
448800 Off ch=3 n=66 v=64
448800 Off ch=3 n=60 v=64
448800 Off ch=3 n=72 v=64
448800 Off ch=3 n=68 v=64
448800 On ch=3 n=58 v=38
448800 On ch=3 n=66 v=38
448800 On ch=3 n=65 v=38
448800 On ch=3 n=70 v=38
449252 Off ch=3 n=58 v=64
449252 Off ch=3 n=66 v=64
449252 Off ch=3 n=65 v=64
449252 Off ch=3 n=70 v=64
449280 On ch=3 n=58 v=38
449280 On ch=3 n=65 v=38
449280 On ch=3 n=66 v=38
449280 On ch=3 n=70 v=38
449732 Off ch=3 n=58 v=64
449732 Off ch=3 n=65 v=64
449732 Off ch=3 n=66 v=64
449732 Off ch=3 n=70 v=64
449760 On ch=3 n=60 v=38
449760 On ch=3 n=66 v=38
449760 On ch=3 n=72 v=38
449760 On ch=3 n=68 v=38
450000 Off ch=3 n=60 v=64
450000 Off ch=3 n=66 v=64
450000 Off ch=3 n=72 v=64
450000 Off ch=3 n=68 v=64
450000 On ch=3 n=61 v=38
450000 On ch=3 n=68 v=38
450000 On ch=3 n=70 v=38
450000 On ch=3 n=73 v=38
450240 Off ch=3 n=61 v=64
450240 Off ch=3 n=68 v=64
450240 Off ch=3 n=70 v=64
450240 Off ch=3 n=73 v=64
450240 On ch=3 n=63 v=38
450240 On ch=3 n=70 v=38
450240 On ch=3 n=72 v=38
450240 On ch=3 n=75 v=38
450720 Off ch=3 n=63 v=64
450720 Off ch=3 n=70 v=64
450720 Off ch=3 n=72 v=64
450720 Off ch=3 n=75 v=64
450720 On ch=3 n=61 v=38
450720 On ch=3 n=70 v=38
450720 On ch=3 n=73 v=38
450720 On ch=3 n=68 v=38
451200 Off ch=3 n=61 v=64
451200 Off ch=3 n=70 v=64
451200 Off ch=3 n=73 v=64
451200 Off ch=3 n=68 v=64
451200 On ch=3 n=66 v=38
451200 On ch=3 n=60 v=38
451200 On ch=3 n=72 v=38
451200 On ch=3 n=68 v=38
451680 Off ch=3 n=66 v=64
451680 Off ch=3 n=60 v=64
451680 Off ch=3 n=72 v=64
451680 Off ch=3 n=68 v=64
451680 On ch=3 n=58 v=38
451680 On ch=3 n=66 v=38
451680 On ch=3 n=65 v=38
451680 On ch=3 n=70 v=38
452132 Off ch=3 n=58 v=64
452132 Off ch=3 n=66 v=64
452132 Off ch=3 n=65 v=64
452132 Off ch=3 n=70 v=64
452160 On ch=3 n=58 v=38
452160 On ch=3 n=65 v=38
452160 On ch=3 n=66 v=38
452160 On ch=3 n=70 v=38
452612 Off ch=3 n=58 v=64
452612 Off ch=3 n=65 v=64
452612 Off ch=3 n=66 v=64
452612 Off ch=3 n=70 v=64
452640 On ch=3 n=60 v=38
452640 On ch=3 n=66 v=38
452640 On ch=3 n=72 v=38
452640 On ch=3 n=68 v=38
452880 Off ch=3 n=60 v=64
452880 Off ch=3 n=66 v=64
452880 Off ch=3 n=72 v=64
452880 Off ch=3 n=68 v=64
452880 On ch=3 n=61 v=38
452880 On ch=3 n=68 v=38
452880 On ch=3 n=70 v=38
452880 On ch=3 n=73 v=38
453120 Off ch=3 n=61 v=64
453120 Off ch=3 n=68 v=64
453120 Off ch=3 n=70 v=64
453120 Off ch=3 n=73 v=64
453120 On ch=3 n=63 v=38
453120 On ch=3 n=70 v=38
453120 On ch=3 n=72 v=38
453120 On ch=3 n=75 v=38
453600 Off ch=3 n=63 v=64
453600 Off ch=3 n=70 v=64
453600 Off ch=3 n=72 v=64
453600 Off ch=3 n=75 v=64
524160 Meta TrkEnd
TrkEnd
MTrk
0 Meta InstrName "SC-88VL"
0 Meta TrkName "Str #3"
480 Par ch=4 c=0 v=0
480 Par ch=4 c=32 v=2
480 PrCh ch=4 p=71
960 Par ch=4 c=93 v=0
960 Par ch=4 c=91 v=110
970 Par ch=4 c=7 v=100
7147 Par ch=4 c=7 v=56
7157 Par ch=4 c=7 v=56
7168 Par ch=4 c=7 v=57
7179 Par ch=4 c=7 v=58
7190 Par ch=4 c=7 v=59
7200 On ch=4 n=61 v=46
7200 On ch=4 n=56 v=46
7201 Par ch=4 c=7 v=60
7211 Par ch=4 c=7 v=61
7222 Par ch=4 c=7 v=62
7233 Par ch=4 c=7 v=63
7244 Par ch=4 c=7 v=64
7255 Par ch=4 c=7 v=65
7265 Par ch=4 c=7 v=66
7276 Par ch=4 c=7 v=67
7287 Par ch=4 c=7 v=68
7298 Par ch=4 c=7 v=69
7309 Par ch=4 c=7 v=70
7319 Par ch=4 c=7 v=71
7330 Par ch=4 c=7 v=72
7341 Par ch=4 c=7 v=73
7352 Par ch=4 c=7 v=74
7363 Par ch=4 c=7 v=75
7373 Par ch=4 c=7 v=76
7384 Par ch=4 c=7 v=77
7395 Par ch=4 c=7 v=78
7406 Par ch=4 c=7 v=79
7417 Par ch=4 c=7 v=80
7427 Par ch=4 c=7 v=81
7438 Par ch=4 c=7 v=82
7449 Par ch=4 c=7 v=83
7460 Par ch=4 c=7 v=84
7471 Par ch=4 c=7 v=85
7481 Par ch=4 c=7 v=86
7492 Par ch=4 c=7 v=87
7503 Par ch=4 c=7 v=88
7514 Par ch=4 c=7 v=89
7525 Par ch=4 c=7 v=90
7535 Par ch=4 c=7 v=91
7546 Par ch=4 c=7 v=92
7557 Par ch=4 c=7 v=93
7568 Par ch=4 c=7 v=94
7579 Par ch=4 c=7 v=95
7589 Par ch=4 c=7 v=96
7600 Par ch=4 c=7 v=97
7611 Par ch=4 c=7 v=98
7622 Par ch=4 c=7 v=99
7633 Par ch=4 c=7 v=100
7643 Par ch=4 c=7 v=102
7920 On ch=4 n=60 v=40
7920 On ch=4 n=55 v=40
7935 Off ch=4 n=61 v=64
7935 Off ch=4 n=56 v=64
8320 On ch=4 n=59 v=40
8320 On ch=4 n=54 v=40
8336 Off ch=4 n=60 v=64
8336 Off ch=4 n=55 v=64
8640 On ch=4 n=58 v=40
8640 On ch=4 n=53 v=40
8655 Off ch=4 n=59 v=64
8655 Off ch=4 n=54 v=64
9280 On ch=4 n=57 v=40
9280 On ch=4 n=52 v=40
9303 Off ch=4 n=58 v=64
9303 Off ch=4 n=53 v=64
9440 On ch=4 n=56 v=40
9440 On ch=4 n=51 v=40
9455 Off ch=4 n=57 v=64
9455 Off ch=4 n=52 v=64
9600 On ch=4 n=55 v=40
9600 On ch=4 n=50 v=40
9615 Off ch=4 n=56 v=64
9615 Off ch=4 n=51 v=64
9760 On ch=4 n=54 v=40
9760 On ch=4 n=49 v=40
9775 Off ch=4 n=55 v=64
9775 Off ch=4 n=50 v=64
9920 On ch=4 n=53 v=40
9920 On ch=4 n=48 v=40
9935 Off ch=4 n=54 v=64
9935 Off ch=4 n=49 v=64
10080 On ch=4 n=52 v=40
10080 On ch=4 n=47 v=40
10095 Off ch=4 n=53 v=64
10095 Off ch=4 n=48 v=64
10240 On ch=4 n=51 v=40
10240 On ch=4 n=46 v=40
10255 Off ch=4 n=52 v=64
10255 Off ch=4 n=47 v=64
10400 On ch=4 n=50 v=40
10400 On ch=4 n=45 v=40
10415 Off ch=4 n=51 v=64
10415 Off ch=4 n=46 v=64
10560 On ch=4 n=49 v=40
10560 On ch=4 n=44 v=40
10575 Off ch=4 n=50 v=64
10575 Off ch=4 n=45 v=64
12640 On ch=4 n=50 v=48
12640 On ch=4 n=45 v=48
12657 Off ch=4 n=49 v=64
12657 Off ch=4 n=44 v=64
12800 Off ch=4 n=50 v=64
12800 Off ch=4 n=45 v=64
12800 On ch=4 n=51 v=48
12800 On ch=4 n=46 v=48
13200 On ch=4 n=50 v=48
13200 On ch=4 n=45 v=48
13212 Off ch=4 n=51 v=64
13212 Off ch=4 n=46 v=64
13440 Off ch=4 n=50 v=64
13440 Off ch=4 n=45 v=64
13440 On ch=4 n=49 v=48
13440 On ch=4 n=44 v=48
14400 Off ch=4 n=49 v=64
14400 Off ch=4 n=44 v=64
14400 On ch=4 n=49 v=48
14400 On ch=4 n=44 v=48
17250 Off ch=4 n=44 v=64
17253 Off ch=4 n=49 v=64
17280 On ch=4 n=51 v=48
17280 On ch=4 n=43 v=43
17600 Off ch=4 n=51 v=64
17600 On ch=4 n=50 v=48
17760 Off ch=4 n=50 v=64
17760 On ch=4 n=49 v=48
18240 Off ch=4 n=49 v=64
18240 On ch=4 n=48 v=48
18720 Off ch=4 n=48 v=64
18720 On ch=4 n=47 v=43
18720 On ch=4 n=42 v=38
18735 Off ch=4 n=43 v=64
18840 Off ch=4 n=47 v=64
18840 Off ch=4 n=42 v=64
26400 On ch=4 n=56 v=48
26480 Off ch=4 n=56 v=64
26480 On ch=4 n=58 v=47
26560 Off ch=4 n=58 v=64
26560 On ch=4 n=56 v=45
26640 Off ch=4 n=56 v=64
26640 On ch=4 n=58 v=43
26720 Off ch=4 n=58 v=64
26720 On ch=4 n=56 v=41
26800 Off ch=4 n=56 v=64
28320 On ch=4 n=56 v=49
28400 Off ch=4 n=56 v=64
28400 On ch=4 n=58 v=47
28480 Off ch=4 n=58 v=64
28480 On ch=4 n=56 v=45
28560 Off ch=4 n=56 v=64
28560 On ch=4 n=58 v=43
28640 Off ch=4 n=58 v=64
28640 On ch=4 n=56 v=42
28720 Off ch=4 n=56 v=64
29760 On ch=4 n=56 v=49
29840 Off ch=4 n=56 v=64
29840 On ch=4 n=58 v=47
29920 Off ch=4 n=58 v=64
29920 On ch=4 n=56 v=45
30000 Off ch=4 n=56 v=64
30000 On ch=4 n=58 v=43
30080 Off ch=4 n=58 v=64
30080 On ch=4 n=56 v=41
30160 Off ch=4 n=56 v=64
30240 On ch=4 n=56 v=49
30320 Off ch=4 n=56 v=64
30320 On ch=4 n=58 v=48
30400 Off ch=4 n=58 v=64
30400 On ch=4 n=56 v=45
30480 Off ch=4 n=56 v=64
30480 On ch=4 n=58 v=43
30560 Off ch=4 n=58 v=64
30560 On ch=4 n=56 v=40
30640 Off ch=4 n=56 v=64
31280 On ch=4 n=57 v=45
31360 Off ch=4 n=57 v=64
31360 On ch=4 n=65 v=43
31440 Off ch=4 n=65 v=64
31440 On ch=4 n=73 v=40
31520 Off ch=4 n=73 v=64
31520 On ch=4 n=64 v=37
31600 Off ch=4 n=64 v=64
31600 On ch=4 n=57 v=35
31680 Off ch=4 n=57 v=64
32240 On ch=4 n=57 v=45
32320 Off ch=4 n=57 v=64
32320 On ch=4 n=64 v=42
32400 Off ch=4 n=64 v=64
32400 On ch=4 n=73 v=40
32480 Off ch=4 n=73 v=64
32480 On ch=4 n=65 v=37
32560 Off ch=4 n=65 v=64
32560 On ch=4 n=57 v=34
32695 Off ch=4 n=57 v=64
32720 On ch=4 n=57 v=45
32800 Off ch=4 n=57 v=64
32800 On ch=4 n=65 v=42
32880 Off ch=4 n=65 v=64
32880 On ch=4 n=73 v=40
32960 Off ch=4 n=73 v=64
32960 On ch=4 n=64 v=37
33040 Off ch=4 n=64 v=64
33040 On ch=4 n=57 v=34
33170 Off ch=4 n=57 v=64
33200 On ch=4 n=57 v=43
33280 Off ch=4 n=57 v=64
33280 On ch=4 n=64 v=41
33360 Off ch=4 n=64 v=64
33360 On ch=4 n=73 v=39
33440 Off ch=4 n=73 v=64
33440 On ch=4 n=65 v=37
33520 Off ch=4 n=65 v=64
33520 On ch=4 n=57 v=36
33600 Off ch=4 n=57 v=64
33600 On ch=4 n=53 v=34
33720 Off ch=4 n=53 v=64
43773 Par ch=4 c=0 v=0
43773 Par ch=4 c=32 v=1
43773 PrCh ch=4 p=71
44580 Par ch=4 c=7 v=48
44589 Par ch=4 c=7 v=48
44599 Par ch=4 c=7 v=49
44608 Par ch=4 c=7 v=50
44618 Par ch=4 c=7 v=51
44627 Par ch=4 c=7 v=52
44637 Par ch=4 c=7 v=53
44640 On ch=4 n=77 v=56
44646 Par ch=4 c=7 v=54
44656 Par ch=4 c=7 v=55
44666 Par ch=4 c=7 v=56
44675 Par ch=4 c=7 v=57
44685 Par ch=4 c=7 v=58
44694 Par ch=4 c=7 v=59
44704 Par ch=4 c=7 v=60
44713 Par ch=4 c=7 v=61
44723 Par ch=4 c=7 v=62
44732 Par ch=4 c=7 v=63
44742 Par ch=4 c=7 v=64
44752 Par ch=4 c=7 v=65
44761 Par ch=4 c=7 v=66
44771 Par ch=4 c=7 v=67
44780 Par ch=4 c=7 v=68
44790 Par ch=4 c=7 v=69
44799 Par ch=4 c=7 v=70
44809 Par ch=4 c=7 v=71
44818 Par ch=4 c=7 v=72
44828 Par ch=4 c=7 v=73
44838 Par ch=4 c=7 v=74
44847 Par ch=4 c=7 v=75
44857 Par ch=4 c=7 v=76
44866 Par ch=4 c=7 v=77
44876 Par ch=4 c=7 v=78
44885 Par ch=4 c=7 v=79
44895 Par ch=4 c=7 v=80
44904 Par ch=4 c=7 v=81
44914 Par ch=4 c=7 v=82
44924 Par ch=4 c=7 v=83
44933 Par ch=4 c=7 v=84
44943 Par ch=4 c=7 v=85
44952 Par ch=4 c=7 v=86
44962 Par ch=4 c=7 v=87
44971 Par ch=4 c=7 v=88
44981 Par ch=4 c=7 v=89
44990 Par ch=4 c=7 v=90
45000 Par ch=4 c=7 v=91
45010 Par ch=4 c=7 v=92
45019 Par ch=4 c=7 v=93
45029 Par ch=4 c=7 v=94
45038 Par ch=4 c=7 v=95
45048 Par ch=4 c=7 v=96
45057 Par ch=4 c=7 v=97
45067 Par ch=4 c=7 v=98
45076 Par ch=4 c=7 v=99
45086 Par ch=4 c=7 v=100
45095 Par ch=4 c=7 v=102
45280 On ch=4 n=76 v=56
45288 Off ch=4 n=77 v=64
45424 On ch=4 n=77 v=53
45440 Off ch=4 n=76 v=64
45440 On ch=4 n=75 v=53
45464 Off ch=4 n=77 v=64
45600 Off ch=4 n=75 v=64
45600 On ch=4 n=74 v=50
45744 On ch=4 n=77 v=47
45760 Off ch=4 n=74 v=64
45760 On ch=4 n=75 v=47
45784 Off ch=4 n=77 v=64
45808 Par ch=4 c=7 v=102
45816 Par ch=4 c=7 v=101
45825 Par ch=4 c=7 v=100
45834 Par ch=4 c=7 v=99
45843 Par ch=4 c=7 v=98
45852 Par ch=4 c=7 v=97
45860 Par ch=4 c=7 v=96
45869 Par ch=4 c=7 v=95
45878 Par ch=4 c=7 v=94
45887 Par ch=4 c=7 v=93
45896 Par ch=4 c=7 v=92
45904 Par ch=4 c=7 v=91
45913 Par ch=4 c=7 v=90
45920 Off ch=4 n=75 v=64
45920 On ch=4 n=74 v=44
45922 Par ch=4 c=7 v=89
45931 Par ch=4 c=7 v=88
45940 Par ch=4 c=7 v=87
45948 Par ch=4 c=7 v=86
45957 Par ch=4 c=7 v=85
45966 Par ch=4 c=7 v=84
45975 Par ch=4 c=7 v=83
45984 Par ch=4 c=7 v=82
45992 Par ch=4 c=7 v=81
46001 Par ch=4 c=7 v=80
46010 Par ch=4 c=7 v=79
46019 Par ch=4 c=7 v=78
46028 Par ch=4 c=7 v=77
46036 Par ch=4 c=7 v=76
46045 Par ch=4 c=7 v=75
46054 Par ch=4 c=7 v=74
46063 Par ch=4 c=7 v=73
46071 Par ch=4 c=7 v=72
46072 Par ch=4 c=7 v=72
46077 Par ch=4 c=7 v=72
46080 Off ch=4 n=74 v=64
46080 On ch=4 n=77 v=56
46082 Par ch=4 c=7 v=73
46087 Par ch=4 c=7 v=74
46092 Par ch=4 c=7 v=75
46097 Par ch=4 c=7 v=76
46102 Par ch=4 c=7 v=77
46107 Par ch=4 c=7 v=78
46112 Par ch=4 c=7 v=79
46117 Par ch=4 c=7 v=80
46122 Par ch=4 c=7 v=81
46127 Par ch=4 c=7 v=82
46132 Par ch=4 c=7 v=83
46137 Par ch=4 c=7 v=84
46142 Par ch=4 c=7 v=85
46147 Par ch=4 c=7 v=86
46152 Par ch=4 c=7 v=87
46157 Par ch=4 c=7 v=88
46162 Par ch=4 c=7 v=89
46167 Par ch=4 c=7 v=90
46172 Par ch=4 c=7 v=91
46177 Par ch=4 c=7 v=92
46182 Par ch=4 c=7 v=93
46187 Par ch=4 c=7 v=94
46192 Par ch=4 c=7 v=95
46197 Par ch=4 c=7 v=96
46202 Par ch=4 c=7 v=97
46207 Par ch=4 c=7 v=98
46211 Par ch=4 c=7 v=100
46240 Off ch=4 n=77 v=64
46240 On ch=4 n=76 v=53
46384 On ch=4 n=77 v=50
46400 Off ch=4 n=76 v=64
46400 On ch=4 n=75 v=50
46424 Off ch=4 n=77 v=64
46560 Off ch=4 n=75 v=64
46560 On ch=4 n=74 v=47
46704 On ch=4 n=77 v=45
46720 Off ch=4 n=74 v=64
46720 On ch=4 n=75 v=45
46744 Off ch=4 n=77 v=64
46756 Par ch=4 c=7 v=100
46766 Par ch=4 c=7 v=99
46777 Par ch=4 c=7 v=98
46787 Par ch=4 c=7 v=97
46798 Par ch=4 c=7 v=96
46808 Par ch=4 c=7 v=95
46819 Par ch=4 c=7 v=94
46830 Par ch=4 c=7 v=93
46840 Par ch=4 c=7 v=92
46851 Par ch=4 c=7 v=91
46861 Par ch=4 c=7 v=90
46872 Par ch=4 c=7 v=89
46880 Off ch=4 n=75 v=64
46880 On ch=4 n=74 v=42
46882 Par ch=4 c=7 v=88
46893 Par ch=4 c=7 v=87
46904 Par ch=4 c=7 v=86
46914 Par ch=4 c=7 v=85
46925 Par ch=4 c=7 v=84
46935 Par ch=4 c=7 v=83
46946 Par ch=4 c=7 v=82
46956 Par ch=4 c=7 v=81
46967 Par ch=4 c=7 v=80
46978 Par ch=4 c=7 v=79
46988 Par ch=4 c=7 v=78
46999 Par ch=4 c=7 v=77
47009 Par ch=4 c=7 v=76
47020 Par ch=4 c=7 v=75
47030 Par ch=4 c=7 v=74
47040 Off ch=4 n=74 v=64
47041 Par ch=4 c=7 v=73
47051 Par ch=4 c=7 v=72
47592 Par ch=4 c=7 v=98
47910 Par ch=4 c=7 v=72
47920 Par ch=4 c=7 v=72
47931 Par ch=4 c=7 v=73
47942 Par ch=4 c=7 v=74
47953 Par ch=4 c=7 v=75
47964 Par ch=4 c=7 v=76
47975 Par ch=4 c=7 v=77
47985 Par ch=4 c=7 v=78
47996 Par ch=4 c=7 v=79
48000 On ch=4 n=77 v=56
48007 Par ch=4 c=7 v=80
48018 Par ch=4 c=7 v=81
48029 Par ch=4 c=7 v=82
48040 Par ch=4 c=7 v=83
48051 Par ch=4 c=7 v=84
48061 Par ch=4 c=7 v=85
48072 Par ch=4 c=7 v=86
48083 Par ch=4 c=7 v=87
48094 Par ch=4 c=7 v=88
48105 Par ch=4 c=7 v=89
48116 Par ch=4 c=7 v=90
48126 Par ch=4 c=7 v=91
48137 Par ch=4 c=7 v=92
48148 Par ch=4 c=7 v=93
48159 Par ch=4 c=7 v=94
48160 Off ch=4 n=77 v=64
48160 On ch=4 n=76 v=53
48170 Par ch=4 c=7 v=95
48181 Par ch=4 c=7 v=96
48191 Par ch=4 c=7 v=98
48304 On ch=4 n=77 v=50
48320 Off ch=4 n=76 v=64
48320 On ch=4 n=75 v=50
48344 Off ch=4 n=77 v=64
48480 Off ch=4 n=75 v=64
48480 On ch=4 n=74 v=47
48624 On ch=4 n=77 v=45
48640 Off ch=4 n=74 v=64
48640 On ch=4 n=75 v=45
48660 Par ch=4 c=7 v=96
48664 Off ch=4 n=77 v=64
48674 Par ch=4 c=7 v=95
48688 Par ch=4 c=7 v=94
48702 Par ch=4 c=7 v=93
48717 Par ch=4 c=7 v=92
48731 Par ch=4 c=7 v=91
48745 Par ch=4 c=7 v=90
48759 Par ch=4 c=7 v=89
48774 Par ch=4 c=7 v=88
48788 Par ch=4 c=7 v=87
48800 Off ch=4 n=75 v=64
48800 On ch=4 n=74 v=42
48802 Par ch=4 c=7 v=86
48816 Par ch=4 c=7 v=85
48831 Par ch=4 c=7 v=84
48845 Par ch=4 c=7 v=83
48859 Par ch=4 c=7 v=82
48873 Par ch=4 c=7 v=81
48888 Par ch=4 c=7 v=80
48902 Par ch=4 c=7 v=79
48916 Par ch=4 c=7 v=78
48930 Par ch=4 c=7 v=77
48945 Par ch=4 c=7 v=76
48959 Par ch=4 c=7 v=75
48960 Off ch=4 n=74 v=64
48973 Par ch=4 c=7 v=74
48987 Par ch=4 c=7 v=73
49001 Par ch=4 c=7 v=72
50814 Par ch=4 c=7 v=50
50838 Par ch=4 c=7 v=50
50863 Par ch=4 c=7 v=51
50880 On ch=4 n=76 v=56
50888 Par ch=4 c=7 v=52
50913 Par ch=4 c=7 v=53
50938 Par ch=4 c=7 v=54
50963 Par ch=4 c=7 v=55
50988 Par ch=4 c=7 v=56
51013 Par ch=4 c=7 v=57
51038 Par ch=4 c=7 v=58
51063 Par ch=4 c=7 v=59
51088 Par ch=4 c=7 v=60
51113 Par ch=4 c=7 v=61
51138 Par ch=4 c=7 v=62
51163 Par ch=4 c=7 v=63
51188 Par ch=4 c=7 v=64
51213 Par ch=4 c=7 v=65
51238 Par ch=4 c=7 v=66
51263 Par ch=4 c=7 v=67
51288 Par ch=4 c=7 v=68
51313 Par ch=4 c=7 v=69
51338 Par ch=4 c=7 v=70
51362 Par ch=4 c=7 v=72
51520 On ch=4 n=75 v=56
51525 Off ch=4 n=76 v=64
51655 On ch=4 n=76 v=53
51680 Off ch=4 n=75 v=64
51680 On ch=4 n=74 v=56
51710 Off ch=4 n=76 v=64
51835 Par ch=4 c=7 v=72
51840 Off ch=4 n=74 v=64
51840 On ch=4 n=73 v=56
51859 Par ch=4 c=7 v=71
51884 Par ch=4 c=7 v=70
51909 Par ch=4 c=7 v=69
51934 Par ch=4 c=7 v=68
51959 Par ch=4 c=7 v=67
51975 On ch=4 n=76 v=53
51984 Par ch=4 c=7 v=66
52000 Off ch=4 n=73 v=64
52000 On ch=4 n=74 v=56
52009 Par ch=4 c=7 v=65
52030 Off ch=4 n=76 v=64
52034 Par ch=4 c=7 v=64
52058 Par ch=4 c=7 v=63
52083 Par ch=4 c=7 v=62
52108 Par ch=4 c=7 v=61
52133 Par ch=4 c=7 v=60
52158 Par ch=4 c=7 v=59
52160 Off ch=4 n=74 v=64
52160 On ch=4 n=73 v=56
52183 Par ch=4 c=7 v=58
52208 Par ch=4 c=7 v=57
52233 Par ch=4 c=7 v=56
52257 Par ch=4 c=7 v=55
52282 Par ch=4 c=7 v=54
52307 Par ch=4 c=7 v=53
52320 Off ch=4 n=73 v=64
52320 On ch=4 n=70 v=56
52332 Par ch=4 c=7 v=52
52357 Par ch=4 c=7 v=51
52382 Par ch=4 c=7 v=50
52407 Par ch=4 c=7 v=49
52432 Par ch=4 c=7 v=48
52456 Par ch=4 c=7 v=47
52481 Par ch=4 c=7 v=46
52506 Par ch=4 c=7 v=45
52531 Par ch=4 c=7 v=44
52556 Par ch=4 c=7 v=43
52581 Par ch=4 c=7 v=42
52606 Par ch=4 c=7 v=41
52631 Par ch=4 c=7 v=40
52655 Par ch=4 c=7 v=39
52680 Par ch=4 c=7 v=38
52705 Par ch=4 c=7 v=37
52730 Par ch=4 c=7 v=36
52755 Par ch=4 c=7 v=35
52780 Par ch=4 c=7 v=34
52800 Off ch=4 n=70 v=64
52805 Par ch=4 c=7 v=33
52829 Par ch=4 c=7 v=32
52866 Par ch=4 c=7 v=38
52876 Par ch=4 c=7 v=38
52887 Par ch=4 c=7 v=39
52897 Par ch=4 c=7 v=40
52908 Par ch=4 c=7 v=41
52918 Par ch=4 c=7 v=42
52929 Par ch=4 c=7 v=43
52939 Par ch=4 c=7 v=44
52950 Par ch=4 c=7 v=45
52960 Par ch=4 c=7 v=46
52971 Par ch=4 c=7 v=47
52981 Par ch=4 c=7 v=48
52992 Par ch=4 c=7 v=49
53002 Par ch=4 c=7 v=50
53013 Par ch=4 c=7 v=51
53023 Par ch=4 c=7 v=52
53034 Par ch=4 c=7 v=53
53040 On ch=4 n=76 v=56
53044 Par ch=4 c=7 v=54
53055 Par ch=4 c=7 v=55
53065 Par ch=4 c=7 v=56
53076 Par ch=4 c=7 v=57
53086 Par ch=4 c=7 v=58
53097 Par ch=4 c=7 v=59
53107 Par ch=4 c=7 v=60
53118 Par ch=4 c=7 v=61
53128 Par ch=4 c=7 v=62
53139 Par ch=4 c=7 v=63
53149 Par ch=4 c=7 v=64
53160 Par ch=4 c=7 v=65
53170 Par ch=4 c=7 v=66
53181 Par ch=4 c=7 v=67
53191 Par ch=4 c=7 v=68
53202 Par ch=4 c=7 v=69
53212 Par ch=4 c=7 v=70
53223 Par ch=4 c=7 v=71
53233 Par ch=4 c=7 v=72
53244 Par ch=4 c=7 v=73
53254 Par ch=4 c=7 v=74
53265 Par ch=4 c=7 v=75
53275 Par ch=4 c=7 v=76
53286 Par ch=4 c=7 v=77
53296 Par ch=4 c=7 v=78
53306 Par ch=4 c=7 v=80
53440 On ch=4 n=75 v=56
53445 Off ch=4 n=76 v=64
53575 On ch=4 n=76 v=53
53600 Off ch=4 n=75 v=64
53600 On ch=4 n=74 v=56
53630 Off ch=4 n=76 v=64
53760 Off ch=4 n=74 v=64
53760 On ch=4 n=73 v=56
53795 Par ch=4 c=7 v=78
53816 Par ch=4 c=7 v=76
53836 Par ch=4 c=7 v=76
53857 Par ch=4 c=7 v=75
53878 Par ch=4 c=7 v=74
53895 On ch=4 n=76 v=53
53899 Par ch=4 c=7 v=73
53920 Off ch=4 n=73 v=64
53920 On ch=4 n=74 v=56
53920 Par ch=4 c=7 v=72
53941 Par ch=4 c=7 v=71
53950 Off ch=4 n=76 v=64
53962 Par ch=4 c=7 v=70
53983 Par ch=4 c=7 v=69
54004 Par ch=4 c=7 v=68
54025 Par ch=4 c=7 v=67
54046 Par ch=4 c=7 v=66
54066 Par ch=4 c=7 v=65
54080 Off ch=4 n=74 v=64
54080 On ch=4 n=73 v=56
54087 Par ch=4 c=7 v=64
54108 Par ch=4 c=7 v=63
54129 Par ch=4 c=7 v=62
54150 Par ch=4 c=7 v=61
54171 Par ch=4 c=7 v=60
54192 Par ch=4 c=7 v=59
54213 Par ch=4 c=7 v=58
54234 Par ch=4 c=7 v=57
54240 Off ch=4 n=73 v=64
54240 On ch=4 n=70 v=56
54255 Par ch=4 c=7 v=56
54275 Par ch=4 c=7 v=55
54296 Par ch=4 c=7 v=54
54317 Par ch=4 c=7 v=53
54338 Par ch=4 c=7 v=52
54359 Par ch=4 c=7 v=51
54380 Par ch=4 c=7 v=50
54401 Par ch=4 c=7 v=49
54422 Par ch=4 c=7 v=48
54443 Par ch=4 c=7 v=47
54464 Par ch=4 c=7 v=46
54485 Par ch=4 c=7 v=45
54505 Par ch=4 c=7 v=44
54526 Par ch=4 c=7 v=43
54547 Par ch=4 c=7 v=42
54568 Par ch=4 c=7 v=41
54589 Par ch=4 c=7 v=40
54610 Par ch=4 c=7 v=39
54631 Par ch=4 c=7 v=38
54652 Par ch=4 c=7 v=37
54673 Par ch=4 c=7 v=36
54694 Par ch=4 c=7 v=35
54714 Par ch=4 c=7 v=34
54720 Off ch=4 n=70 v=64
54810 Par ch=4 c=7 v=38
54819 Par ch=4 c=7 v=38
54828 Par ch=4 c=7 v=39
54837 Par ch=4 c=7 v=40
54846 Par ch=4 c=7 v=41
54855 Par ch=4 c=7 v=42
54865 Par ch=4 c=7 v=43
54874 Par ch=4 c=7 v=44
54883 Par ch=4 c=7 v=45
54892 Par ch=4 c=7 v=46
54901 Par ch=4 c=7 v=47
54911 Par ch=4 c=7 v=48
54920 Par ch=4 c=7 v=49
54929 Par ch=4 c=7 v=50
54938 Par ch=4 c=7 v=51
54947 Par ch=4 c=7 v=52
54957 Par ch=4 c=7 v=53
54960 On ch=4 n=76 v=56
54966 Par ch=4 c=7 v=54
54975 Par ch=4 c=7 v=55
54984 Par ch=4 c=7 v=56
54993 Par ch=4 c=7 v=57
55003 Par ch=4 c=7 v=58
55012 Par ch=4 c=7 v=59
55021 Par ch=4 c=7 v=60
55030 Par ch=4 c=7 v=61
55039 Par ch=4 c=7 v=62
55049 Par ch=4 c=7 v=63
55058 Par ch=4 c=7 v=64
55067 Par ch=4 c=7 v=65
55076 Par ch=4 c=7 v=66
55085 Par ch=4 c=7 v=67
55095 Par ch=4 c=7 v=68
55104 Par ch=4 c=7 v=69
55113 Par ch=4 c=7 v=70
55122 Par ch=4 c=7 v=71
55131 Par ch=4 c=7 v=72
55141 Par ch=4 c=7 v=73
55150 Par ch=4 c=7 v=74
55159 Par ch=4 c=7 v=75
55168 Par ch=4 c=7 v=76
55177 Par ch=4 c=7 v=77
55187 Par ch=4 c=7 v=78
55196 Par ch=4 c=7 v=79
55205 Par ch=4 c=7 v=80
55214 Par ch=4 c=7 v=81
55223 Par ch=4 c=7 v=82
55232 Par ch=4 c=7 v=84
55234 Par ch=4 c=7 v=84
55360 On ch=4 n=75 v=56
55365 Off ch=4 n=76 v=64
55495 On ch=4 n=76 v=53
55520 Off ch=4 n=75 v=64
55520 On ch=4 n=74 v=56
55550 Off ch=4 n=76 v=64
55680 Off ch=4 n=74 v=64
55680 On ch=4 n=73 v=56
55685 Par ch=4 c=7 v=84
55706 Par ch=4 c=7 v=83
55727 Par ch=4 c=7 v=82
55749 Par ch=4 c=7 v=81
55770 Par ch=4 c=7 v=80
55792 Par ch=4 c=7 v=79
55813 Par ch=4 c=7 v=78
55815 On ch=4 n=76 v=53
55835 Par ch=4 c=7 v=77
55840 Off ch=4 n=73 v=64
55840 On ch=4 n=74 v=56
55856 Par ch=4 c=7 v=76
55870 Off ch=4 n=76 v=64
55877 Par ch=4 c=7 v=75
55899 Par ch=4 c=7 v=74
55920 Par ch=4 c=7 v=73
55942 Par ch=4 c=7 v=72
55963 Par ch=4 c=7 v=71
55984 Par ch=4 c=7 v=70
56000 Off ch=4 n=74 v=64
56000 On ch=4 n=73 v=56
56006 Par ch=4 c=7 v=69
56027 Par ch=4 c=7 v=68
56049 Par ch=4 c=7 v=67
56070 Par ch=4 c=7 v=66
56091 Par ch=4 c=7 v=65
56113 Par ch=4 c=7 v=64
56134 Par ch=4 c=7 v=63
56156 Par ch=4 c=7 v=62
56160 Off ch=4 n=73 v=64
56160 On ch=4 n=70 v=56
56177 Par ch=4 c=7 v=61
56198 Par ch=4 c=7 v=60
56220 Par ch=4 c=7 v=59
56241 Par ch=4 c=7 v=58
56263 Par ch=4 c=7 v=57
56284 Par ch=4 c=7 v=56
56306 Par ch=4 c=7 v=55
56327 Par ch=4 c=7 v=54
56348 Par ch=4 c=7 v=53
56370 Par ch=4 c=7 v=52
56391 Par ch=4 c=7 v=51
56413 Par ch=4 c=7 v=50
56434 Par ch=4 c=7 v=49
56455 Par ch=4 c=7 v=48
56477 Par ch=4 c=7 v=47
56498 Par ch=4 c=7 v=46
56520 Par ch=4 c=7 v=45
56541 Par ch=4 c=7 v=44
56562 Par ch=4 c=7 v=43
56584 Par ch=4 c=7 v=42
56605 Par ch=4 c=7 v=41
56627 Par ch=4 c=7 v=40
56640 Off ch=4 n=70 v=64
56648 Par ch=4 c=7 v=39
56669 Par ch=4 c=7 v=38
58988 Par ch=4 c=7 v=64
59040 On ch=4 n=77 v=94
59164 Off ch=4 n=77 v=64
59280 On ch=4 n=82 v=98
59404 Off ch=4 n=82 v=64
59520 On ch=4 n=89 v=102
59640 Off ch=4 n=89 v=64
59640 On ch=4 n=87 v=90
60240 On ch=4 n=89 v=89
60244 Off ch=4 n=87 v=64
60288 On ch=4 n=84 v=86
60300 Off ch=4 n=89 v=64
60336 On ch=4 n=87 v=83
60348 Off ch=4 n=84 v=64
60384 On ch=4 n=82 v=81
60396 Off ch=4 n=87 v=64
60432 On ch=4 n=77 v=90
60444 Off ch=4 n=82 v=64
60608 Off ch=4 n=77 v=64
60720 On ch=4 n=82 v=97
60844 Off ch=4 n=82 v=64
60960 On ch=4 n=89 v=103
61080 Off ch=4 n=89 v=64
61080 On ch=4 n=87 v=90
62160 On ch=4 n=89 v=90
62176 Off ch=4 n=87 v=64
62220 On ch=4 n=84 v=88
62236 Off ch=4 n=89 v=64
62280 On ch=4 n=87 v=85
62296 Off ch=4 n=84 v=64
62340 On ch=4 n=82 v=83
62356 Off ch=4 n=87 v=64
62400 On ch=4 n=77 v=81
62416 Off ch=4 n=82 v=64
62592 Off ch=4 n=77 v=64
63360 On ch=4 n=77 v=94
63505 Off ch=4 n=77 v=64
63600 On ch=4 n=82 v=98
63745 Off ch=4 n=82 v=64
63840 On ch=4 n=89 v=101
63960 Off ch=4 n=89 v=64
63960 On ch=4 n=87 v=90
64560 On ch=4 n=89 v=98
64575 Off ch=4 n=87 v=64
64620 On ch=4 n=84 v=92
64635 Off ch=4 n=89 v=64
64680 On ch=4 n=87 v=85
64695 Off ch=4 n=84 v=64
64740 On ch=4 n=82 v=79
64755 Off ch=4 n=87 v=64
64800 On ch=4 n=77 v=73
64815 Off ch=4 n=82 v=64
64995 Off ch=4 n=77 v=64
65760 On ch=4 n=77 v=92
65890 Off ch=4 n=77 v=64
66000 On ch=4 n=82 v=98
66130 Off ch=4 n=82 v=64
66240 On ch=4 n=89 v=103
66360 Off ch=4 n=89 v=64
66360 On ch=4 n=87 v=90
66960 Off ch=4 n=87 v=64
68160 On ch=4 n=77 v=94
68280 Off ch=4 n=77 v=64
68400 On ch=4 n=82 v=99
68520 Off ch=4 n=82 v=64
68640 On ch=4 n=89 v=103
68760 Off ch=4 n=89 v=64
68760 On ch=4 n=87 v=90
69360 On ch=4 n=89 v=89
69375 Off ch=4 n=87 v=64
69408 On ch=4 n=84 v=88
69433 Off ch=4 n=89 v=64
69456 On ch=4 n=87 v=87
69481 Off ch=4 n=84 v=64
69504 On ch=4 n=82 v=86
69529 Off ch=4 n=87 v=64
69552 On ch=4 n=77 v=85
69577 Off ch=4 n=82 v=64
69745 Off ch=4 n=77 v=64
69840 On ch=4 n=82 v=94
69970 Off ch=4 n=82 v=64
70080 On ch=4 n=89 v=102
70200 Off ch=4 n=89 v=64
70200 On ch=4 n=87 v=90
70800 On ch=4 n=89 v=88
70815 Off ch=4 n=87 v=64
70860 On ch=4 n=84 v=86
70880 Off ch=4 n=89 v=64
70920 On ch=4 n=87 v=83
70940 Off ch=4 n=84 v=64
70980 On ch=4 n=82 v=80
71000 Off ch=4 n=87 v=64
71040 On ch=4 n=77 v=88
71060 Off ch=4 n=82 v=64
71175 Off ch=4 n=77 v=64
71280 On ch=4 n=82 v=95
71415 Off ch=4 n=82 v=64
71520 On ch=4 n=89 v=103
71580 Off ch=4 n=89 v=64
71580 On ch=4 n=87 v=91
71760 Off ch=4 n=87 v=64
71760 On ch=4 n=89 v=89
71808 On ch=4 n=84 v=87
71823 Off ch=4 n=89 v=64
71856 On ch=4 n=87 v=86
71871 Off ch=4 n=84 v=64
71904 On ch=4 n=82 v=84
71919 Off ch=4 n=87 v=64
71952 On ch=4 n=77 v=82
71967 Off ch=4 n=82 v=64
72160 Off ch=4 n=77 v=64
72240 On ch=4 n=89 v=87
72300 On ch=4 n=84 v=85
72325 Off ch=4 n=89 v=64
72360 On ch=4 n=87 v=83
72385 Off ch=4 n=84 v=64
72420 On ch=4 n=82 v=81
72445 Off ch=4 n=87 v=64
72480 On ch=4 n=77 v=79
72505 Off ch=4 n=82 v=64
72675 Off ch=4 n=77 v=64
72960 On ch=4 n=77 v=98
73100 Off ch=4 n=77 v=64
73200 On ch=4 n=82 v=106
73340 Off ch=4 n=82 v=64
84480 On ch=4 n=79 v=42
84480 On ch=4 n=73 v=42
84480 On ch=4 n=61 v=42
84480 On ch=4 n=55 v=42
86880 Off ch=4 n=79 v=64
86880 Off ch=4 n=73 v=64
86880 Off ch=4 n=61 v=64
86880 Off ch=4 n=55 v=64
102480 On ch=4 n=83 v=82
102480 On ch=4 n=76 v=82
102480 On ch=4 n=71 v=82
102594 Off ch=4 n=83 v=64
102594 Off ch=4 n=76 v=64
102594 Off ch=4 n=71 v=64
102960 On ch=4 n=80 v=82
102960 On ch=4 n=73 v=82
102960 On ch=4 n=68 v=82
103074 Off ch=4 n=80 v=64
103074 Off ch=4 n=73 v=64
103074 Off ch=4 n=68 v=64
153120 Par ch=4 c=0 v=8
153120 Par ch=4 c=32 v=2
153120 PrCh ch=4 p=116
154560 On ch=4 n=30 v=127
155040 Off ch=4 n=30 v=64
196320 Par ch=4 c=0 v=0
196320 Par ch=4 c=32 v=2
196320 PrCh ch=4 p=42
200067 Par ch=4 c=7 v=80
200350 Par ch=4 c=7 v=80
200634 Par ch=4 c=7 v=81
200917 Par ch=4 c=7 v=82
201120 On ch=4 n=70 v=36
201200 Par ch=4 c=7 v=84
201207 Par ch=4 c=7 v=85
201263 Par ch=4 c=7 v=86
201319 Par ch=4 c=7 v=87
201375 Par ch=4 c=7 v=88
201430 Par ch=4 c=7 v=89
201486 Par ch=4 c=7 v=90
201542 Par ch=4 c=7 v=91
201598 Par ch=4 c=7 v=92
201600 Off ch=4 n=70 v=64
201600 On ch=4 n=70 v=36
201654 Par ch=4 c=7 v=93
201710 Par ch=4 c=7 v=94
201765 Par ch=4 c=7 v=95
201821 Par ch=4 c=7 v=96
201877 Par ch=4 c=7 v=97
201933 Par ch=4 c=7 v=98
201989 Par ch=4 c=7 v=99
202044 Par ch=4 c=7 v=100
202080 Off ch=4 n=70 v=64
202080 On ch=4 n=70 v=36
202100 Par ch=4 c=7 v=101
202156 Par ch=4 c=7 v=102
202212 Par ch=4 c=7 v=103
202268 Par ch=4 c=7 v=104
202323 Par ch=4 c=7 v=105
202379 Par ch=4 c=7 v=106
202435 Par ch=4 c=7 v=107
202491 Par ch=4 c=7 v=108
202547 Par ch=4 c=7 v=109
202560 Off ch=4 n=70 v=64
202560 On ch=4 n=70 v=36
202603 Par ch=4 c=7 v=110
202658 Par ch=4 c=7 v=111
202714 Par ch=4 c=7 v=112
202770 Par ch=4 c=7 v=113
202826 Par ch=4 c=7 v=114
202882 Par ch=4 c=7 v=115
202937 Par ch=4 c=7 v=116
202993 Par ch=4 c=7 v=117
203040 Off ch=4 n=70 v=64
203040 On ch=4 n=72 v=36
203049 Par ch=4 c=7 v=118
203105 Par ch=4 c=7 v=119
203161 Par ch=4 c=7 v=120
203216 Par ch=4 c=7 v=121
203272 Par ch=4 c=7 v=122
203280 Off ch=4 n=72 v=64
203280 On ch=4 n=73 v=36
203328 Par ch=4 c=7 v=123
203384 Par ch=4 c=7 v=124
203440 Par ch=4 c=7 v=125
203495 Par ch=4 c=7 v=127
203520 Off ch=4 n=73 v=64
203520 On ch=4 n=75 v=36
203520 Par ch=4 c=7 v=124
203580 Par ch=4 c=7 v=123
203640 Par ch=4 c=7 v=122
203700 Par ch=4 c=7 v=121
203760 Par ch=4 c=7 v=120
203820 Par ch=4 c=7 v=119
203880 Par ch=4 c=7 v=118
203940 Par ch=4 c=7 v=117
204000 Off ch=4 n=75 v=64
204000 On ch=4 n=73 v=36
204000 Par ch=4 c=7 v=116
204060 Par ch=4 c=7 v=115
204120 Par ch=4 c=7 v=114
204180 Par ch=4 c=7 v=113
204240 Par ch=4 c=7 v=112
204300 Par ch=4 c=7 v=111
204360 Par ch=4 c=7 v=110
204420 Par ch=4 c=7 v=109
204480 Off ch=4 n=73 v=64
204480 On ch=4 n=72 v=36
204480 Par ch=4 c=7 v=108
204540 Par ch=4 c=7 v=107
204600 Par ch=4 c=7 v=106
204660 Par ch=4 c=7 v=105
204720 Par ch=4 c=7 v=104
204780 Par ch=4 c=7 v=103
204840 Par ch=4 c=7 v=102
204900 Par ch=4 c=7 v=101
204959 Par ch=4 c=7 v=100
204960 Off ch=4 n=72 v=64
204960 On ch=4 n=70 v=36
204960 Par ch=4 c=7 v=100
205013 Par ch=4 c=7 v=100
205067 Par ch=4 c=7 v=101
205121 Par ch=4 c=7 v=102
205175 Par ch=4 c=7 v=103
205228 Par ch=4 c=7 v=104
205282 Par ch=4 c=7 v=105
205336 Par ch=4 c=7 v=106
205390 Par ch=4 c=7 v=107
205440 Off ch=4 n=70 v=64
205440 On ch=4 n=70 v=36
205444 Par ch=4 c=7 v=108
205497 Par ch=4 c=7 v=109
205551 Par ch=4 c=7 v=110
205605 Par ch=4 c=7 v=111
205659 Par ch=4 c=7 v=112
205712 Par ch=4 c=7 v=113
205766 Par ch=4 c=7 v=114
205820 Par ch=4 c=7 v=115
205874 Par ch=4 c=7 v=116
205920 Off ch=4 n=70 v=64
205920 On ch=4 n=72 v=36
205928 Par ch=4 c=7 v=117
205981 Par ch=4 c=7 v=118
206035 Par ch=4 c=7 v=119
206089 Par ch=4 c=7 v=120
206143 Par ch=4 c=7 v=121
206160 Off ch=4 n=72 v=64
206160 On ch=4 n=73 v=36
206196 Par ch=4 c=7 v=122
206250 Par ch=4 c=7 v=123
206304 Par ch=4 c=7 v=124
206358 Par ch=4 c=7 v=125
206400 Off ch=4 n=73 v=64
206400 On ch=4 n=75 v=36
206411 Par ch=4 c=7 v=127
206412 Par ch=4 c=7 v=126
206424 Par ch=4 c=7 v=126
206464 Par ch=4 c=7 v=125
206504 Par ch=4 c=7 v=124
206544 Par ch=4 c=7 v=123
206584 Par ch=4 c=7 v=122
206624 Par ch=4 c=7 v=121
206664 Par ch=4 c=7 v=120
206704 Par ch=4 c=7 v=119
206744 Par ch=4 c=7 v=118
206784 Par ch=4 c=7 v=117
206808 Off ch=4 n=75 v=64
206824 Par ch=4 c=7 v=116
206864 Par ch=4 c=7 v=115
206880 On ch=4 n=70 v=36
206903 Par ch=4 c=7 v=114
206904 Par ch=4 c=7 v=114
207011 Par ch=4 c=7 v=114
207118 Par ch=4 c=7 v=115
207225 Par ch=4 c=7 v=116
207332 Par ch=4 c=7 v=117
207360 Off ch=4 n=70 v=64
207360 On ch=4 n=70 v=36
207439 Par ch=4 c=7 v=118
207546 Par ch=4 c=7 v=119
207653 Par ch=4 c=7 v=120
207760 Par ch=4 c=7 v=121
207840 Off ch=4 n=70 v=64
207840 On ch=4 n=72 v=36
207867 Par ch=4 c=7 v=122
207974 Par ch=4 c=7 v=123
208080 Off ch=4 n=72 v=64
208080 On ch=4 n=73 v=36
208081 Par ch=4 c=7 v=124
208188 Par ch=4 c=7 v=125
208295 Par ch=4 c=7 v=127
208320 Off ch=4 n=73 v=64
208320 On ch=4 n=75 v=36
208788 Par ch=4 c=7 v=126
208800 Off ch=4 n=75 v=64
208800 On ch=4 n=73 v=36
208829 Par ch=4 c=7 v=125
208870 Par ch=4 c=7 v=124
208911 Par ch=4 c=7 v=123
208952 Par ch=4 c=7 v=122
208993 Par ch=4 c=7 v=121
209034 Par ch=4 c=7 v=120
209075 Par ch=4 c=7 v=119
209116 Par ch=4 c=7 v=118
209157 Par ch=4 c=7 v=117
209198 Par ch=4 c=7 v=116
209239 Par ch=4 c=7 v=115
209280 Off ch=4 n=73 v=64
209280 On ch=4 n=72 v=36
209280 Par ch=4 c=7 v=114
209321 Par ch=4 c=7 v=113
209362 Par ch=4 c=7 v=112
209403 Par ch=4 c=7 v=111
209444 Par ch=4 c=7 v=110
209485 Par ch=4 c=7 v=109
209526 Par ch=4 c=7 v=108
209567 Par ch=4 c=7 v=107
209608 Par ch=4 c=7 v=106
209649 Par ch=4 c=7 v=105
209690 Par ch=4 c=7 v=104
209731 Par ch=4 c=7 v=103
209760 Off ch=4 n=72 v=64
209760 On ch=4 n=70 v=36
209771 Par ch=4 c=7 v=102
209772 Par ch=4 c=7 v=102
209829 Par ch=4 c=7 v=102
209886 Par ch=4 c=7 v=103
209943 Par ch=4 c=7 v=104
210000 Par ch=4 c=7 v=105
210057 Par ch=4 c=7 v=106
210114 Par ch=4 c=7 v=107
210171 Par ch=4 c=7 v=108
210229 Par ch=4 c=7 v=109
210240 Off ch=4 n=70 v=64
210240 On ch=4 n=70 v=36
210286 Par ch=4 c=7 v=110
210343 Par ch=4 c=7 v=111
210400 Par ch=4 c=7 v=112
210457 Par ch=4 c=7 v=113
210514 Par ch=4 c=7 v=114
210571 Par ch=4 c=7 v=115
210628 Par ch=4 c=7 v=116
210685 Par ch=4 c=7 v=117
210720 Off ch=4 n=70 v=64
210720 On ch=4 n=72 v=36
210743 Par ch=4 c=7 v=118
210800 Par ch=4 c=7 v=119
210857 Par ch=4 c=7 v=120
210914 Par ch=4 c=7 v=121
210960 Off ch=4 n=72 v=64
210960 On ch=4 n=73 v=36
210971 Par ch=4 c=7 v=122
211028 Par ch=4 c=7 v=123
211085 Par ch=4 c=7 v=124
211142 Par ch=4 c=7 v=125
211199 Par ch=4 c=7 v=127
211200 Off ch=4 n=73 v=64
211200 On ch=4 n=75 v=36
211680 Off ch=4 n=75 v=64
211788 Par ch=4 c=7 v=126
211842 Par ch=4 c=7 v=125
211896 Par ch=4 c=7 v=124
211920 On ch=4 n=70 v=36
211950 Par ch=4 c=7 v=123
212004 Par ch=4 c=7 v=122
212058 Par ch=4 c=7 v=121
212112 Par ch=4 c=7 v=120
212166 Par ch=4 c=7 v=119
212220 Par ch=4 c=7 v=118
212274 Par ch=4 c=7 v=117
212328 Par ch=4 c=7 v=116
212382 Par ch=4 c=7 v=115
212436 Par ch=4 c=7 v=114
212490 Par ch=4 c=7 v=113
212544 Par ch=4 c=7 v=112
212598 Par ch=4 c=7 v=111
212640 Off ch=4 n=70 v=64
212640 On ch=4 n=70 v=36
212651 Par ch=4 c=7 v=110
212714 Par ch=4 c=7 v=111
212804 Par ch=4 c=7 v=112
212894 Par ch=4 c=7 v=113
212985 Par ch=4 c=7 v=114
213075 Par ch=4 c=7 v=115
213120 Off ch=4 n=70 v=64
213120 On ch=4 n=70 v=36
213165 Par ch=4 c=7 v=116
213255 Par ch=4 c=7 v=117
213346 Par ch=4 c=7 v=118
213436 Par ch=4 c=7 v=119
213526 Par ch=4 c=7 v=120
213600 Off ch=4 n=70 v=64
213600 On ch=4 n=72 v=36
213616 Par ch=4 c=7 v=121
213707 Par ch=4 c=7 v=122
213797 Par ch=4 c=7 v=123
213840 Off ch=4 n=72 v=64
213840 On ch=4 n=73 v=36
213887 Par ch=4 c=7 v=124
213977 Par ch=4 c=7 v=125
214067 Par ch=4 c=7 v=127
214080 Off ch=4 n=73 v=64
214080 On ch=4 n=75 v=36
214560 Off ch=4 n=75 v=64
215520 Par ch=4 c=0 v=0
215520 Par ch=4 c=32 v=2
215520 PrCh ch=4 p=71
216720 On ch=4 n=80 v=56
216720 On ch=4 n=74 v=46
216720 On ch=4 n=70 v=46
216720 On ch=4 n=68 v=46
216720 On ch=4 n=62 v=46
216780 Off ch=4 n=80 v=64
216780 Off ch=4 n=74 v=64
216780 Off ch=4 n=70 v=64
216780 Off ch=4 n=68 v=64
216780 Off ch=4 n=62 v=64
217200 On ch=4 n=82 v=56
217200 On ch=4 n=76 v=46
217200 On ch=4 n=70 v=46
217200 On ch=4 n=72 v=46
217200 On ch=4 n=64 v=46
217260 Off ch=4 n=82 v=64
217260 Off ch=4 n=76 v=64
217260 Off ch=4 n=70 v=64
217260 Off ch=4 n=72 v=64
217260 Off ch=4 n=64 v=64
218640 On ch=4 n=80 v=56
218640 On ch=4 n=74 v=46
218640 On ch=4 n=70 v=46
218640 On ch=4 n=68 v=46
218640 On ch=4 n=62 v=46
218700 Off ch=4 n=80 v=64
218700 Off ch=4 n=74 v=64
218700 Off ch=4 n=70 v=64
218700 Off ch=4 n=68 v=64
218700 Off ch=4 n=62 v=64
219360 On ch=4 n=81 v=56
219360 On ch=4 n=75 v=46
219360 On ch=4 n=69 v=46
219360 On ch=4 n=73 v=46
219360 On ch=4 n=63 v=46
219420 Off ch=4 n=81 v=64
219420 Off ch=4 n=75 v=64
219420 Off ch=4 n=69 v=64
219420 Off ch=4 n=73 v=64
219420 Off ch=4 n=63 v=64
220320 On ch=4 n=81 v=56
220320 On ch=4 n=75 v=46
220320 On ch=4 n=67 v=46
220320 On ch=4 n=73 v=46
220320 On ch=4 n=63 v=46
220380 Off ch=4 n=81 v=64
220380 Off ch=4 n=75 v=64
220380 Off ch=4 n=67 v=64
220380 Off ch=4 n=73 v=64
220380 Off ch=4 n=63 v=64
221520 On ch=4 n=84 v=56
221520 On ch=4 n=78 v=46
221520 On ch=4 n=70 v=46
221520 On ch=4 n=66 v=46
221520 On ch=4 n=64 v=46
221580 Off ch=4 n=84 v=64
221580 Off ch=4 n=78 v=64
221580 Off ch=4 n=70 v=64
221580 Off ch=4 n=66 v=64
221580 Off ch=4 n=64 v=64
228000 Par ch=4 c=0 v=0
228000 Par ch=4 c=32 v=1
228000 PrCh ch=4 p=48
229670 Par ch=4 c=7 v=64
229920 On ch=4 n=75 v=68
229920 On ch=4 n=72 v=68
229920 On ch=4 n=79 v=68
229920 On ch=4 n=69 v=68
229985 Off ch=4 n=75 v=64
229985 Off ch=4 n=72 v=64
229985 Off ch=4 n=79 v=64
229985 Off ch=4 n=69 v=64
230040 On ch=4 n=79 v=68
230040 On ch=4 n=75 v=68
230040 On ch=4 n=72 v=68
230040 On ch=4 n=69 v=68
230105 Off ch=4 n=79 v=64
230105 Off ch=4 n=75 v=64
230105 Off ch=4 n=72 v=64
230105 Off ch=4 n=69 v=64
230280 On ch=4 n=72 v=68
230280 On ch=4 n=75 v=68
230280 On ch=4 n=79 v=68
230280 On ch=4 n=69 v=68
230345 Off ch=4 n=72 v=64
230345 Off ch=4 n=75 v=64
230345 Off ch=4 n=79 v=64
230345 Off ch=4 n=69 v=64
230400 On ch=4 n=72 v=68
230400 On ch=4 n=79 v=68
230400 On ch=4 n=69 v=68
230400 On ch=4 n=75 v=68
230465 Off ch=4 n=72 v=64
230465 Off ch=4 n=79 v=64
230465 Off ch=4 n=69 v=64
230465 Off ch=4 n=75 v=64
230520 On ch=4 n=79 v=68
230520 On ch=4 n=72 v=68
230520 On ch=4 n=75 v=68
230520 On ch=4 n=69 v=68
230585 Off ch=4 n=79 v=64
230585 Off ch=4 n=72 v=64
230585 Off ch=4 n=75 v=64
230585 Off ch=4 n=69 v=64
230760 On ch=4 n=75 v=68
230760 On ch=4 n=79 v=68
230760 On ch=4 n=72 v=68
230760 On ch=4 n=69 v=68
230825 Off ch=4 n=75 v=64
230825 Off ch=4 n=79 v=64
230825 Off ch=4 n=72 v=64
230825 Off ch=4 n=69 v=64
230880 On ch=4 n=75 v=68
230880 On ch=4 n=72 v=68
230880 On ch=4 n=79 v=68
230880 On ch=4 n=69 v=68
230945 Off ch=4 n=75 v=64
230945 Off ch=4 n=72 v=64
230945 Off ch=4 n=79 v=64
230945 Off ch=4 n=69 v=64
231000 On ch=4 n=79 v=68
231000 On ch=4 n=75 v=68
231000 On ch=4 n=72 v=68
231000 On ch=4 n=69 v=68
231065 Off ch=4 n=79 v=64
231065 Off ch=4 n=75 v=64
231065 Off ch=4 n=72 v=64
231065 Off ch=4 n=69 v=64
231240 On ch=4 n=72 v=68
231240 On ch=4 n=75 v=68
231240 On ch=4 n=79 v=68
231240 On ch=4 n=69 v=68
231305 Off ch=4 n=72 v=64
231305 Off ch=4 n=75 v=64
231305 Off ch=4 n=79 v=64
231305 Off ch=4 n=69 v=64
231360 On ch=4 n=72 v=68
231360 On ch=4 n=79 v=68
231360 On ch=4 n=69 v=68
231360 On ch=4 n=75 v=68
231425 Off ch=4 n=72 v=64
231425 Off ch=4 n=79 v=64
231425 Off ch=4 n=69 v=64
231425 Off ch=4 n=75 v=64
231480 On ch=4 n=79 v=68
231480 On ch=4 n=72 v=68
231480 On ch=4 n=75 v=68
231480 On ch=4 n=69 v=68
231545 Off ch=4 n=79 v=64
231545 Off ch=4 n=72 v=64
231545 Off ch=4 n=75 v=64
231545 Off ch=4 n=69 v=64
231720 On ch=4 n=75 v=68
231720 On ch=4 n=79 v=68
231720 On ch=4 n=72 v=68
231720 On ch=4 n=69 v=68
231785 Off ch=4 n=75 v=64
231785 Off ch=4 n=79 v=64
231785 Off ch=4 n=72 v=64
231785 Off ch=4 n=69 v=64
231840 On ch=4 n=75 v=68
231840 On ch=4 n=72 v=68
231840 On ch=4 n=79 v=68
231840 On ch=4 n=69 v=68
231905 Off ch=4 n=75 v=64
231905 Off ch=4 n=72 v=64
231905 Off ch=4 n=79 v=64
231905 Off ch=4 n=69 v=64
231960 On ch=4 n=79 v=68
231960 On ch=4 n=75 v=68
231960 On ch=4 n=72 v=68
231960 On ch=4 n=69 v=68
232025 Off ch=4 n=79 v=64
232025 Off ch=4 n=75 v=64
232025 Off ch=4 n=72 v=64
232025 Off ch=4 n=69 v=64
232200 On ch=4 n=72 v=68
232200 On ch=4 n=75 v=68
232200 On ch=4 n=79 v=68
232200 On ch=4 n=69 v=68
232265 Off ch=4 n=72 v=64
232265 Off ch=4 n=75 v=64
232265 Off ch=4 n=79 v=64
232265 Off ch=4 n=69 v=64
232320 On ch=4 n=72 v=68
232320 On ch=4 n=79 v=68
232320 On ch=4 n=69 v=68
232320 On ch=4 n=75 v=68
232385 Off ch=4 n=72 v=64
232385 Off ch=4 n=79 v=64
232385 Off ch=4 n=69 v=64
232385 Off ch=4 n=75 v=64
232440 On ch=4 n=79 v=68
232440 On ch=4 n=72 v=68
232440 On ch=4 n=75 v=68
232440 On ch=4 n=69 v=68
232505 Off ch=4 n=79 v=64
232505 Off ch=4 n=72 v=64
232505 Off ch=4 n=75 v=64
232505 Off ch=4 n=69 v=64
232680 On ch=4 n=75 v=68
232680 On ch=4 n=79 v=68
232680 On ch=4 n=72 v=68
232680 On ch=4 n=69 v=68
232745 Off ch=4 n=75 v=64
232745 Off ch=4 n=79 v=64
232745 Off ch=4 n=72 v=64
232745 Off ch=4 n=69 v=64
232800 On ch=4 n=75 v=68
232800 On ch=4 n=72 v=68
232800 On ch=4 n=79 v=68
232800 On ch=4 n=69 v=68
232865 Off ch=4 n=75 v=64
232865 Off ch=4 n=72 v=64
232865 Off ch=4 n=79 v=64
232865 Off ch=4 n=69 v=64
232920 On ch=4 n=79 v=68
232920 On ch=4 n=75 v=68
232920 On ch=4 n=72 v=68
232920 On ch=4 n=69 v=68
232985 Off ch=4 n=79 v=64
232985 Off ch=4 n=75 v=64
232985 Off ch=4 n=72 v=64
232985 Off ch=4 n=69 v=64
233160 On ch=4 n=72 v=68
233160 On ch=4 n=75 v=68
233160 On ch=4 n=79 v=68
233160 On ch=4 n=69 v=68
233225 Off ch=4 n=72 v=64
233225 Off ch=4 n=75 v=64
233225 Off ch=4 n=79 v=64
233225 Off ch=4 n=69 v=64
233280 On ch=4 n=72 v=68
233280 On ch=4 n=79 v=68
233280 On ch=4 n=69 v=68
233280 On ch=4 n=75 v=68
233345 Off ch=4 n=72 v=64
233345 Off ch=4 n=79 v=64
233345 Off ch=4 n=69 v=64
233345 Off ch=4 n=75 v=64
233400 On ch=4 n=79 v=68
233400 On ch=4 n=72 v=68
233400 On ch=4 n=75 v=68
233400 On ch=4 n=69 v=68
233465 Off ch=4 n=79 v=64
233465 Off ch=4 n=72 v=64
233465 Off ch=4 n=75 v=64
233465 Off ch=4 n=69 v=64
233640 On ch=4 n=75 v=68
233640 On ch=4 n=79 v=68
233640 On ch=4 n=72 v=68
233640 On ch=4 n=69 v=68
233705 Off ch=4 n=75 v=64
233705 Off ch=4 n=79 v=64
233705 Off ch=4 n=72 v=64
233705 Off ch=4 n=69 v=64
237600 On ch=4 n=81 v=100
237685 Off ch=4 n=81 v=64
237720 On ch=4 n=81 v=94
237805 Off ch=4 n=81 v=64
237840 On ch=4 n=83 v=100
237925 Off ch=4 n=83 v=64
237960 On ch=4 n=83 v=94
238045 Off ch=4 n=83 v=64
238080 On ch=4 n=81 v=100
238165 Off ch=4 n=81 v=64
238200 On ch=4 n=81 v=94
238285 Off ch=4 n=81 v=64
238320 On ch=4 n=86 v=100
238405 Off ch=4 n=86 v=64
238440 On ch=4 n=86 v=94
238525 Off ch=4 n=86 v=64
238560 On ch=4 n=84 v=102
238645 Off ch=4 n=84 v=64
238680 On ch=4 n=84 v=94
238765 Off ch=4 n=84 v=64
238800 On ch=4 n=83 v=102
238920 On ch=4 n=81 v=94
238941 Off ch=4 n=83 v=64
239005 Off ch=4 n=81 v=64
239040 On ch=4 n=83 v=102
239125 Off ch=4 n=83 v=64
239160 On ch=4 n=83 v=94
239245 Off ch=4 n=83 v=64
239280 On ch=4 n=79 v=102
239365 Off ch=4 n=79 v=64
239400 On ch=4 n=79 v=94
239485 Off ch=4 n=79 v=64
239520 On ch=4 n=81 v=104
239605 Off ch=4 n=81 v=64
239640 On ch=4 n=81 v=94
239725 Off ch=4 n=81 v=64
239760 On ch=4 n=86 v=102
239845 Off ch=4 n=86 v=64
239880 On ch=4 n=86 v=94
239965 Off ch=4 n=86 v=64
240000 On ch=4 n=91 v=102
240120 On ch=4 n=84 v=94
240127 Off ch=4 n=91 v=64
240205 Off ch=4 n=84 v=64
240240 On ch=4 n=86 v=104
240360 Off ch=4 n=86 v=64
240360 On ch=4 n=79 v=94
240445 Off ch=4 n=79 v=64
240480 On ch=4 n=81 v=102
240565 Off ch=4 n=81 v=64
240600 On ch=4 n=81 v=94
240685 Off ch=4 n=81 v=64
240720 On ch=4 n=86 v=104
240805 Off ch=4 n=86 v=64
240840 On ch=4 n=86 v=94
240925 Off ch=4 n=86 v=64
240960 On ch=4 n=84 v=102
241045 Off ch=4 n=84 v=64
241080 On ch=4 n=84 v=94
241165 Off ch=4 n=84 v=64
241200 On ch=4 n=83 v=102
241320 On ch=4 n=79 v=94
241341 Off ch=4 n=83 v=64
241405 Off ch=4 n=79 v=64
241440 On ch=4 n=93 v=96
241680 Off ch=4 n=93 v=64
241680 On ch=4 n=95 v=96
241800 Off ch=4 n=95 v=64
241800 On ch=4 n=91 v=96
241920 Off ch=4 n=91 v=64
241920 On ch=4 n=93 v=96
242160 Off ch=4 n=93 v=64
242160 On ch=4 n=86 v=96
242400 Off ch=4 n=86 v=64
242400 On ch=4 n=84 v=96
242640 Off ch=4 n=84 v=64
242640 On ch=4 n=83 v=96
242760 Off ch=4 n=83 v=64
242760 On ch=4 n=81 v=96
242880 Off ch=4 n=81 v=64
242880 On ch=4 n=83 v=96
243120 Off ch=4 n=83 v=64
243120 On ch=4 n=91 v=96
243360 Off ch=4 n=91 v=64
243360 On ch=4 n=93 v=96
243600 Off ch=4 n=93 v=64
243600 On ch=4 n=86 v=96
243840 Off ch=4 n=86 v=64
243840 On ch=4 n=91 v=96
243960 Off ch=4 n=91 v=64
243960 On ch=4 n=84 v=96
244080 Off ch=4 n=84 v=64
244080 On ch=4 n=86 v=96
244200 Off ch=4 n=86 v=64
244200 On ch=4 n=79 v=96
244320 Off ch=4 n=79 v=64
244320 On ch=4 n=81 v=96
244560 Off ch=4 n=81 v=64
244560 On ch=4 n=86 v=96
244800 Off ch=4 n=86 v=64
244800 On ch=4 n=84 v=96
245040 Off ch=4 n=84 v=64
245040 On ch=4 n=83 v=96
245160 Off ch=4 n=83 v=64
245160 On ch=4 n=91 v=96
245280 Off ch=4 n=91 v=64
245280 On ch=4 n=81 v=96
245280 On ch=4 n=93 v=96
245280 On ch=4 n=69 v=96
245520 Off ch=4 n=81 v=64
245520 Off ch=4 n=93 v=64
245520 Off ch=4 n=69 v=64
245520 On ch=4 n=83 v=96
245520 On ch=4 n=95 v=96
245640 Off ch=4 n=83 v=64
245640 Off ch=4 n=95 v=64
245640 On ch=4 n=79 v=96
245640 On ch=4 n=91 v=96
245760 Off ch=4 n=79 v=64
245760 Off ch=4 n=91 v=64
245760 On ch=4 n=81 v=96
245760 On ch=4 n=93 v=96
246000 Off ch=4 n=81 v=64
246000 Off ch=4 n=93 v=64
246000 On ch=4 n=86 v=96
246240 Off ch=4 n=86 v=64
246240 On ch=4 n=84 v=96
246480 Off ch=4 n=84 v=64
246480 On ch=4 n=83 v=96
246600 Off ch=4 n=83 v=64
246600 On ch=4 n=81 v=96
246720 Off ch=4 n=81 v=64
246720 On ch=4 n=83 v=96
246960 Off ch=4 n=83 v=64
246960 On ch=4 n=91 v=96
246960 On ch=4 n=79 v=96
247200 Off ch=4 n=91 v=64
247200 Off ch=4 n=79 v=64
247200 On ch=4 n=81 v=96
247200 On ch=4 n=93 v=96
247440 Off ch=4 n=81 v=64
247440 Off ch=4 n=93 v=64
247440 On ch=4 n=86 v=96
247680 Off ch=4 n=86 v=64
247680 On ch=4 n=91 v=96
247800 Off ch=4 n=91 v=64
247800 On ch=4 n=84 v=96
247920 Off ch=4 n=84 v=64
247920 On ch=4 n=86 v=96
248040 Off ch=4 n=86 v=64
248040 On ch=4 n=79 v=96
248160 Off ch=4 n=79 v=64
248160 On ch=4 n=81 v=96
248400 Off ch=4 n=81 v=64
248400 On ch=4 n=86 v=96
248640 Off ch=4 n=86 v=64
248640 On ch=4 n=84 v=96
248880 Off ch=4 n=84 v=64
248880 On ch=4 n=83 v=96
249000 Off ch=4 n=83 v=64
249000 On ch=4 n=79 v=96
249000 On ch=4 n=91 v=96
249120 Off ch=4 n=79 v=64
249120 Off ch=4 n=91 v=64
249120 On ch=4 n=93 v=96
249120 On ch=4 n=81 v=96
249360 Off ch=4 n=93 v=64
249360 Off ch=4 n=81 v=64
249360 On ch=4 n=86 v=96
249600 Off ch=4 n=86 v=64
249600 On ch=4 n=91 v=96
249720 Off ch=4 n=91 v=64
249720 On ch=4 n=84 v=96
249840 Off ch=4 n=84 v=64
249840 On ch=4 n=86 v=96
249960 Off ch=4 n=86 v=64
249960 On ch=4 n=79 v=96
250080 Off ch=4 n=79 v=64
250080 On ch=4 n=81 v=96
250080 On ch=4 n=93 v=96
250320 Off ch=4 n=81 v=64
250320 Off ch=4 n=93 v=64
250320 On ch=4 n=86 v=96
250560 Off ch=4 n=86 v=64
250560 On ch=4 n=91 v=96
250680 Off ch=4 n=91 v=64
250680 On ch=4 n=84 v=96
250800 Off ch=4 n=84 v=64
250800 On ch=4 n=86 v=96
250920 Off ch=4 n=86 v=64
250920 On ch=4 n=79 v=96
251040 Off ch=4 n=79 v=64
251040 On ch=4 n=81 v=96
251040 On ch=4 n=93 v=96
251280 Off ch=4 n=81 v=64
251280 Off ch=4 n=93 v=64
251280 On ch=4 n=86 v=96
251520 Off ch=4 n=86 v=64
251520 On ch=4 n=91 v=96
251640 Off ch=4 n=91 v=64
251640 On ch=4 n=84 v=96
251760 Off ch=4 n=84 v=64
251760 On ch=4 n=86 v=96
251880 Off ch=4 n=86 v=64
251880 On ch=4 n=79 v=96
252000 Off ch=4 n=79 v=64
252000 On ch=4 n=93 v=96
252000 On ch=4 n=81 v=96
252240 Off ch=4 n=93 v=64
252240 Off ch=4 n=81 v=64
252240 On ch=4 n=86 v=96
252480 Off ch=4 n=86 v=64
252480 On ch=4 n=84 v=96
252720 Off ch=4 n=84 v=64
252720 On ch=4 n=83 v=96
252840 Off ch=4 n=83 v=64
252840 On ch=4 n=79 v=96
252960 Off ch=4 n=79 v=64
265560 On ch=4 n=36 v=86
265920 Off ch=4 n=36 v=64
266280 On ch=4 n=47 v=86
266640 Off ch=4 n=47 v=64
266640 On ch=4 n=36 v=86
267000 Off ch=4 n=36 v=64
267720 On ch=4 n=47 v=86
268080 Off ch=4 n=47 v=64
268440 On ch=4 n=36 v=86
268800 Off ch=4 n=36 v=64
269160 On ch=4 n=47 v=86
269520 Off ch=4 n=47 v=64
269520 On ch=4 n=36 v=86
269880 Off ch=4 n=36 v=64
271200 On ch=4 n=87 v=72
271200 On ch=4 n=79 v=72
271200 On ch=4 n=85 v=72
271200 On ch=4 n=82 v=72
271271 Off ch=4 n=87 v=64
271271 Off ch=4 n=79 v=64
271271 Off ch=4 n=85 v=64
271271 Off ch=4 n=82 v=64
271333 On ch=4 n=84 v=72
271333 On ch=4 n=86 v=72
271333 On ch=4 n=78 v=72
271333 On ch=4 n=81 v=72
271404 Off ch=4 n=84 v=64
271404 Off ch=4 n=86 v=64
271404 Off ch=4 n=78 v=64
271404 Off ch=4 n=81 v=64
271466 On ch=4 n=77 v=72
271466 On ch=4 n=83 v=72
271466 On ch=4 n=85 v=72
271466 On ch=4 n=80 v=72
271538 Off ch=4 n=77 v=64
271538 Off ch=4 n=83 v=64
271538 Off ch=4 n=85 v=64
271538 Off ch=4 n=80 v=64
271600 On ch=4 n=82 v=72
271600 On ch=4 n=76 v=72
271600 On ch=4 n=79 v=72
271600 On ch=4 n=84 v=72
271671 Off ch=4 n=82 v=64
271671 Off ch=4 n=76 v=64
271671 Off ch=4 n=79 v=64
271671 Off ch=4 n=84 v=64
271733 On ch=4 n=75 v=72
271733 On ch=4 n=81 v=72
271733 On ch=4 n=78 v=72
271733 On ch=4 n=83 v=72
271804 Off ch=4 n=75 v=64
271804 Off ch=4 n=81 v=64
271804 Off ch=4 n=78 v=64
271804 Off ch=4 n=83 v=64
271866 On ch=4 n=82 v=72
271866 On ch=4 n=74 v=72
271866 On ch=4 n=80 v=72
271866 On ch=4 n=77 v=72
271938 Off ch=4 n=82 v=64
271938 Off ch=4 n=74 v=64
271938 Off ch=4 n=80 v=64
271938 Off ch=4 n=77 v=64
272000 On ch=4 n=76 v=72
272000 On ch=4 n=81 v=72
272000 On ch=4 n=79 v=72
272000 On ch=4 n=73 v=72
272071 Off ch=4 n=76 v=64
272071 Off ch=4 n=81 v=64
272071 Off ch=4 n=79 v=64
272071 Off ch=4 n=73 v=64
272133 On ch=4 n=78 v=72
272133 On ch=4 n=72 v=72
272133 On ch=4 n=75 v=72
272133 On ch=4 n=80 v=72
272204 Off ch=4 n=78 v=64
272204 Off ch=4 n=72 v=64
272204 Off ch=4 n=75 v=64
272204 Off ch=4 n=80 v=64
272266 On ch=4 n=71 v=72
272266 On ch=4 n=79 v=72
272266 On ch=4 n=77 v=72
272266 On ch=4 n=74 v=72
272338 Off ch=4 n=71 v=64
272338 Off ch=4 n=79 v=64
272338 Off ch=4 n=77 v=64
272338 Off ch=4 n=74 v=64
272400 On ch=4 n=78 v=72
272400 On ch=4 n=76 v=72
272400 On ch=4 n=70 v=72
272400 On ch=4 n=73 v=72
272471 Off ch=4 n=78 v=64
272471 Off ch=4 n=76 v=64
272471 Off ch=4 n=70 v=64
272471 Off ch=4 n=73 v=64
287880 On ch=4 n=36 v=86
288240 Off ch=4 n=36 v=64
288600 On ch=4 n=47 v=86
288960 Off ch=4 n=47 v=64
288960 On ch=4 n=36 v=86
289320 Off ch=4 n=36 v=64
290040 On ch=4 n=47 v=86
290400 Off ch=4 n=47 v=64
290760 On ch=4 n=36 v=86
291120 Off ch=4 n=36 v=64
291480 On ch=4 n=47 v=86
291840 Off ch=4 n=47 v=64
291840 On ch=4 n=36 v=86
292200 Off ch=4 n=36 v=64
292560 On ch=4 n=33 v=127
292655 Off ch=4 n=33 v=64
292800 On ch=4 n=37 v=127
292895 Off ch=4 n=37 v=64
293040 On ch=4 n=40 v=127
293135 Off ch=4 n=40 v=64
293280 On ch=4 n=36 v=127
293375 Off ch=4 n=36 v=64
293520 On ch=4 n=40 v=127
293615 Off ch=4 n=40 v=64
293760 On ch=4 n=43 v=127
293855 Off ch=4 n=43 v=64
294000 On ch=4 n=45 v=127
294095 Off ch=4 n=45 v=64
294240 On ch=4 n=49 v=127
294335 Off ch=4 n=49 v=64
294480 On ch=4 n=52 v=127
294575 Off ch=4 n=52 v=64
294720 On ch=4 n=48 v=127
294815 Off ch=4 n=48 v=64
297600 On ch=4 n=85 v=42
297600 On ch=4 n=88 v=42
297600 On ch=4 n=82 v=42
297600 On ch=4 n=90 v=42
297720 Off ch=4 n=85 v=64
297720 Off ch=4 n=88 v=64
297720 Off ch=4 n=82 v=64
297720 Off ch=4 n=90 v=64
297720 On ch=4 n=90 v=52
297720 On ch=4 n=82 v=52
297720 On ch=4 n=85 v=52
297720 On ch=4 n=88 v=52
297840 Off ch=4 n=90 v=64
297840 Off ch=4 n=82 v=64
297840 Off ch=4 n=85 v=64
297840 Off ch=4 n=88 v=64
297840 On ch=4 n=90 v=62
297840 On ch=4 n=85 v=62
297840 On ch=4 n=88 v=62
297840 On ch=4 n=82 v=62
297960 Off ch=4 n=90 v=64
297960 Off ch=4 n=85 v=64
297960 Off ch=4 n=88 v=64
297960 Off ch=4 n=82 v=64
297960 On ch=4 n=85 v=72
297960 On ch=4 n=90 v=72
297960 On ch=4 n=88 v=72
297960 On ch=4 n=82 v=72
298080 Off ch=4 n=85 v=64
298080 Off ch=4 n=90 v=64
298080 Off ch=4 n=88 v=64
298080 Off ch=4 n=82 v=64
298080 On ch=4 n=85 v=82
298080 On ch=4 n=88 v=82
298080 On ch=4 n=82 v=82
298080 On ch=4 n=90 v=82
298200 Off ch=4 n=85 v=64
298200 Off ch=4 n=88 v=64
298200 Off ch=4 n=82 v=64
298200 Off ch=4 n=90 v=64
298200 On ch=4 n=85 v=92
298200 On ch=4 n=82 v=92
298200 On ch=4 n=88 v=92
298200 On ch=4 n=90 v=92
298320 Off ch=4 n=85 v=64
298320 Off ch=4 n=82 v=64
298320 Off ch=4 n=88 v=64
298320 Off ch=4 n=90 v=64
298320 On ch=4 n=85 v=102
298320 On ch=4 n=82 v=102
298320 On ch=4 n=88 v=102
298320 On ch=4 n=90 v=102
298440 Off ch=4 n=85 v=64
298440 Off ch=4 n=82 v=64
298440 Off ch=4 n=88 v=64
298440 Off ch=4 n=90 v=64
298440 On ch=4 n=85 v=93
298440 On ch=4 n=90 v=93
298440 On ch=4 n=88 v=93
298440 On ch=4 n=82 v=93
298560 Off ch=4 n=85 v=64
298560 Off ch=4 n=90 v=64
298560 Off ch=4 n=88 v=64
298560 Off ch=4 n=82 v=64
298560 On ch=4 n=85 v=79
298560 On ch=4 n=82 v=79
298560 On ch=4 n=90 v=79
298560 On ch=4 n=88 v=79
298680 Off ch=4 n=85 v=64
298680 Off ch=4 n=82 v=64
298680 Off ch=4 n=90 v=64
298680 Off ch=4 n=88 v=64
298680 On ch=4 n=85 v=65
298680 On ch=4 n=82 v=65
298680 On ch=4 n=90 v=65
298680 On ch=4 n=88 v=65
298800 Off ch=4 n=85 v=64
298800 Off ch=4 n=82 v=64
298800 Off ch=4 n=90 v=64
298800 Off ch=4 n=88 v=64
298800 On ch=4 n=85 v=51
298800 On ch=4 n=82 v=51
298800 On ch=4 n=90 v=51
298800 On ch=4 n=88 v=51
298920 Off ch=4 n=85 v=64
298920 Off ch=4 n=82 v=64
298920 Off ch=4 n=90 v=64
298920 Off ch=4 n=88 v=64
298920 On ch=4 n=85 v=37
298920 On ch=4 n=88 v=37
298920 On ch=4 n=82 v=37
298920 On ch=4 n=90 v=37
299040 Off ch=4 n=85 v=64
299040 Off ch=4 n=88 v=64
299040 Off ch=4 n=82 v=64
299040 Off ch=4 n=90 v=64
300480 On ch=4 n=85 v=44
300480 On ch=4 n=88 v=44
300480 On ch=4 n=82 v=44
300480 On ch=4 n=90 v=44
300600 Off ch=4 n=85 v=64
300600 Off ch=4 n=88 v=64
300600 Off ch=4 n=82 v=64
300600 Off ch=4 n=90 v=64
300600 On ch=4 n=90 v=54
300600 On ch=4 n=82 v=54
300600 On ch=4 n=85 v=54
300600 On ch=4 n=88 v=54
300720 Off ch=4 n=90 v=64
300720 Off ch=4 n=82 v=64
300720 Off ch=4 n=85 v=64
300720 Off ch=4 n=88 v=64
300720 On ch=4 n=90 v=64
300720 On ch=4 n=85 v=64
300720 On ch=4 n=88 v=64
300720 On ch=4 n=82 v=64
300840 Off ch=4 n=90 v=64
300840 Off ch=4 n=85 v=64
300840 Off ch=4 n=88 v=64
300840 Off ch=4 n=82 v=64
300840 On ch=4 n=85 v=74
300840 On ch=4 n=90 v=74
300840 On ch=4 n=88 v=74
300840 On ch=4 n=82 v=74
300960 Off ch=4 n=85 v=64
300960 Off ch=4 n=90 v=64
300960 Off ch=4 n=88 v=64
300960 Off ch=4 n=82 v=64
300960 On ch=4 n=85 v=84
300960 On ch=4 n=88 v=84
300960 On ch=4 n=82 v=84
300960 On ch=4 n=90 v=84
301080 Off ch=4 n=85 v=64
301080 Off ch=4 n=88 v=64
301080 Off ch=4 n=82 v=64
301080 Off ch=4 n=90 v=64
301080 On ch=4 n=85 v=94
301080 On ch=4 n=82 v=94
301080 On ch=4 n=88 v=94
301080 On ch=4 n=90 v=94
301200 Off ch=4 n=85 v=64
301200 Off ch=4 n=82 v=64
301200 Off ch=4 n=88 v=64
301200 Off ch=4 n=90 v=64
301200 On ch=4 n=85 v=104
301200 On ch=4 n=82 v=104
301200 On ch=4 n=88 v=104
301200 On ch=4 n=90 v=104
301320 Off ch=4 n=85 v=64
301320 Off ch=4 n=82 v=64
301320 Off ch=4 n=88 v=64
301320 Off ch=4 n=90 v=64
301320 On ch=4 n=85 v=95
301320 On ch=4 n=90 v=95
301320 On ch=4 n=88 v=95
301320 On ch=4 n=82 v=95
301440 Off ch=4 n=85 v=64
301440 Off ch=4 n=90 v=64
301440 Off ch=4 n=88 v=64
301440 Off ch=4 n=82 v=64
301440 On ch=4 n=85 v=81
301440 On ch=4 n=82 v=81
301440 On ch=4 n=90 v=81
301440 On ch=4 n=88 v=81
301560 Off ch=4 n=85 v=64
301560 Off ch=4 n=82 v=64
301560 Off ch=4 n=90 v=64
301560 Off ch=4 n=88 v=64
301560 On ch=4 n=85 v=67
301560 On ch=4 n=82 v=67
301560 On ch=4 n=90 v=67
301560 On ch=4 n=88 v=67
301680 Off ch=4 n=85 v=64
301680 Off ch=4 n=82 v=64
301680 Off ch=4 n=90 v=64
301680 Off ch=4 n=88 v=64
301680 On ch=4 n=85 v=53
301680 On ch=4 n=82 v=53
301680 On ch=4 n=90 v=53
301680 On ch=4 n=88 v=53
301800 Off ch=4 n=85 v=64
301800 Off ch=4 n=82 v=64
301800 Off ch=4 n=90 v=64
301800 Off ch=4 n=88 v=64
301800 On ch=4 n=85 v=39
301800 On ch=4 n=88 v=39
301800 On ch=4 n=82 v=39
301800 On ch=4 n=90 v=39
301920 Off ch=4 n=85 v=64
301920 Off ch=4 n=88 v=64
301920 Off ch=4 n=82 v=64
301920 Off ch=4 n=90 v=64
303360 On ch=4 n=85 v=46
303360 On ch=4 n=88 v=46
303360 On ch=4 n=82 v=46
303360 On ch=4 n=90 v=46
303480 Off ch=4 n=85 v=64
303480 Off ch=4 n=88 v=64
303480 Off ch=4 n=82 v=64
303480 Off ch=4 n=90 v=64
303480 On ch=4 n=90 v=56
303480 On ch=4 n=82 v=56
303480 On ch=4 n=85 v=56
303480 On ch=4 n=88 v=56
303600 Off ch=4 n=90 v=64
303600 Off ch=4 n=82 v=64
303600 Off ch=4 n=85 v=64
303600 Off ch=4 n=88 v=64
303600 On ch=4 n=90 v=66
303600 On ch=4 n=85 v=66
303600 On ch=4 n=88 v=66
303600 On ch=4 n=82 v=66
303720 Off ch=4 n=90 v=64
303720 Off ch=4 n=85 v=64
303720 Off ch=4 n=88 v=64
303720 Off ch=4 n=82 v=64
303720 On ch=4 n=85 v=76
303720 On ch=4 n=90 v=76
303720 On ch=4 n=88 v=76
303720 On ch=4 n=82 v=76
303840 Off ch=4 n=85 v=64
303840 Off ch=4 n=90 v=64
303840 Off ch=4 n=88 v=64
303840 Off ch=4 n=82 v=64
303840 On ch=4 n=85 v=86
303840 On ch=4 n=88 v=86
303840 On ch=4 n=82 v=86
303840 On ch=4 n=90 v=86
303960 Off ch=4 n=85 v=64
303960 Off ch=4 n=88 v=64
303960 Off ch=4 n=82 v=64
303960 Off ch=4 n=90 v=64
303960 On ch=4 n=85 v=96
303960 On ch=4 n=82 v=96
303960 On ch=4 n=88 v=96
303960 On ch=4 n=90 v=96
304080 Off ch=4 n=85 v=64
304080 Off ch=4 n=82 v=64
304080 Off ch=4 n=88 v=64
304080 Off ch=4 n=90 v=64
304080 On ch=4 n=85 v=106
304080 On ch=4 n=82 v=106
304080 On ch=4 n=88 v=106
304080 On ch=4 n=90 v=106
304200 Off ch=4 n=85 v=64
304200 Off ch=4 n=82 v=64
304200 Off ch=4 n=88 v=64
304200 Off ch=4 n=90 v=64
304200 On ch=4 n=85 v=97
304200 On ch=4 n=90 v=97
304200 On ch=4 n=88 v=97
304200 On ch=4 n=82 v=97
304320 Off ch=4 n=85 v=64
304320 Off ch=4 n=90 v=64
304320 Off ch=4 n=88 v=64
304320 Off ch=4 n=82 v=64
304320 On ch=4 n=85 v=83
304320 On ch=4 n=82 v=83
304320 On ch=4 n=90 v=83
304320 On ch=4 n=88 v=83
304440 Off ch=4 n=85 v=64
304440 Off ch=4 n=82 v=64
304440 Off ch=4 n=90 v=64
304440 Off ch=4 n=88 v=64
304440 On ch=4 n=85 v=69
304440 On ch=4 n=82 v=69
304440 On ch=4 n=90 v=69
304440 On ch=4 n=88 v=69
304560 Off ch=4 n=85 v=64
304560 Off ch=4 n=82 v=64
304560 Off ch=4 n=90 v=64
304560 Off ch=4 n=88 v=64
304560 On ch=4 n=85 v=55
304560 On ch=4 n=82 v=55
304560 On ch=4 n=90 v=55
304560 On ch=4 n=88 v=55
304680 Off ch=4 n=85 v=64
304680 Off ch=4 n=82 v=64
304680 Off ch=4 n=90 v=64
304680 Off ch=4 n=88 v=64
304680 On ch=4 n=85 v=41
304680 On ch=4 n=88 v=41
304680 On ch=4 n=82 v=41
304680 On ch=4 n=90 v=41
304800 Off ch=4 n=85 v=64
304800 Off ch=4 n=88 v=64
304800 Off ch=4 n=82 v=64
304800 Off ch=4 n=90 v=64
306960 On ch=4 n=82 v=94
306960 On ch=4 n=78 v=94
306960 On ch=4 n=70 v=94
306960 On ch=4 n=67 v=94
307080 Off ch=4 n=82 v=64
307080 Off ch=4 n=78 v=64
307080 Off ch=4 n=70 v=64
307080 Off ch=4 n=67 v=64
307440 On ch=4 n=82 v=94
307440 On ch=4 n=78 v=94
307440 On ch=4 n=70 v=94
307440 On ch=4 n=67 v=94
307560 Off ch=4 n=82 v=64
307560 Off ch=4 n=78 v=64
307560 Off ch=4 n=70 v=64
307560 Off ch=4 n=67 v=64
308400 On ch=4 n=82 v=104
308400 On ch=4 n=78 v=94
308400 On ch=4 n=70 v=94
308400 On ch=4 n=67 v=98
308520 Off ch=4 n=82 v=64
308520 Off ch=4 n=78 v=64
308520 Off ch=4 n=70 v=64
308520 Off ch=4 n=67 v=64
308640 On ch=4 n=77 v=102
308640 On ch=4 n=80 v=102
308640 On ch=4 n=65 v=102
308640 On ch=4 n=69 v=102
308760 Off ch=4 n=77 v=64
308760 Off ch=4 n=80 v=64
308760 Off ch=4 n=65 v=64
308760 Off ch=4 n=69 v=64
308880 On ch=4 n=82 v=100
308880 On ch=4 n=78 v=100
308880 On ch=4 n=70 v=100
308880 On ch=4 n=67 v=100
309000 Off ch=4 n=82 v=64
309000 Off ch=4 n=78 v=64
309000 Off ch=4 n=70 v=64
309000 Off ch=4 n=67 v=64
309120 On ch=4 n=77 v=98
309120 On ch=4 n=80 v=98
309120 On ch=4 n=65 v=98
309120 On ch=4 n=69 v=98
309240 Off ch=4 n=77 v=64
309240 Off ch=4 n=80 v=64
309240 Off ch=4 n=65 v=64
309240 Off ch=4 n=69 v=64
309360 On ch=4 n=78 v=96
309360 On ch=4 n=75 v=96
309360 On ch=4 n=67 v=96
309360 On ch=4 n=63 v=96
309480 Off ch=4 n=78 v=64
309480 Off ch=4 n=75 v=64
309480 Off ch=4 n=67 v=64
309480 Off ch=4 n=63 v=64
309600 On ch=4 n=73 v=94
309600 On ch=4 n=77 v=94
309600 On ch=4 n=62 v=94
309600 On ch=4 n=65 v=94
309720 Off ch=4 n=73 v=64
309720 Off ch=4 n=77 v=64
309720 Off ch=4 n=62 v=64
309720 Off ch=4 n=65 v=64
309840 On ch=4 n=78 v=92
309840 On ch=4 n=75 v=92
309840 On ch=4 n=67 v=92
309840 On ch=4 n=63 v=92
309960 Off ch=4 n=78 v=64
309960 Off ch=4 n=75 v=64
309960 Off ch=4 n=67 v=64
309960 Off ch=4 n=63 v=64
310080 On ch=4 n=75 v=104
310080 On ch=4 n=72 v=94
310080 On ch=4 n=60 v=94
310080 On ch=4 n=64 v=98
310200 Off ch=4 n=75 v=64
310200 Off ch=4 n=72 v=64
310200 Off ch=4 n=60 v=64
310200 Off ch=4 n=64 v=64
310320 On ch=4 n=72 v=96
310320 On ch=4 n=75 v=96
310320 On ch=4 n=64 v=96
310320 On ch=4 n=60 v=96
310440 Off ch=4 n=72 v=64
310440 Off ch=4 n=75 v=64
310440 Off ch=4 n=64 v=64
310440 Off ch=4 n=60 v=64
310560 On ch=4 n=75 v=104
310560 On ch=4 n=72 v=94
310560 On ch=4 n=60 v=94
310560 On ch=4 n=64 v=98
310680 Off ch=4 n=75 v=64
310680 Off ch=4 n=72 v=64
310680 Off ch=4 n=60 v=64
310680 Off ch=4 n=64 v=64
310800 On ch=4 n=73 v=97
310800 On ch=4 n=77 v=97
310800 On ch=4 n=65 v=97
310800 On ch=4 n=62 v=97
310920 Off ch=4 n=73 v=64
310920 Off ch=4 n=77 v=64
310920 Off ch=4 n=65 v=64
310920 Off ch=4 n=62 v=64
311040 On ch=4 n=78 v=104
311040 On ch=4 n=75 v=94
311040 On ch=4 n=63 v=94
311040 On ch=4 n=67 v=98
311160 Off ch=4 n=78 v=64
311160 Off ch=4 n=75 v=64
311160 Off ch=4 n=63 v=64
311160 Off ch=4 n=67 v=64
311280 On ch=4 n=77 v=95
311280 On ch=4 n=80 v=95
311280 On ch=4 n=69 v=95
311280 On ch=4 n=65 v=95
311400 Off ch=4 n=77 v=64
311400 Off ch=4 n=80 v=64
311400 Off ch=4 n=69 v=64
311400 Off ch=4 n=65 v=64
311520 On ch=4 n=82 v=104
311520 On ch=4 n=78 v=94
311520 On ch=4 n=67 v=94
311520 On ch=4 n=70 v=98
311640 Off ch=4 n=82 v=64
311640 Off ch=4 n=78 v=64
311640 Off ch=4 n=67 v=64
311640 Off ch=4 n=70 v=64
313920 On ch=4 n=81 v=104
313920 On ch=4 n=77 v=94
313920 On ch=4 n=69 v=94
313920 On ch=4 n=66 v=98
314040 Off ch=4 n=81 v=64
314040 Off ch=4 n=77 v=64
314040 Off ch=4 n=69 v=64
314040 Off ch=4 n=66 v=64
314160 On ch=4 n=76 v=103
314160 On ch=4 n=79 v=103
314160 On ch=4 n=64 v=103
314160 On ch=4 n=68 v=103
314280 Off ch=4 n=76 v=64
314280 Off ch=4 n=79 v=64
314280 Off ch=4 n=64 v=64
314280 Off ch=4 n=68 v=64
314400 On ch=4 n=81 v=100
314400 On ch=4 n=77 v=100
314400 On ch=4 n=69 v=100
314400 On ch=4 n=66 v=100
314520 Off ch=4 n=81 v=64
314520 Off ch=4 n=77 v=64
314520 Off ch=4 n=69 v=64
314520 Off ch=4 n=66 v=64
314640 On ch=4 n=76 v=98
314640 On ch=4 n=79 v=98
314640 On ch=4 n=64 v=98
314640 On ch=4 n=68 v=98
314760 Off ch=4 n=76 v=64
314760 Off ch=4 n=79 v=64
314760 Off ch=4 n=64 v=64
314760 Off ch=4 n=68 v=64
314880 On ch=4 n=77 v=95
314880 On ch=4 n=74 v=95
314880 On ch=4 n=66 v=95
314880 On ch=4 n=62 v=95
315000 Off ch=4 n=77 v=64
315000 Off ch=4 n=74 v=64
315000 Off ch=4 n=66 v=64
315000 Off ch=4 n=62 v=64
315120 On ch=4 n=72 v=92
315120 On ch=4 n=76 v=92
315120 On ch=4 n=61 v=92
315120 On ch=4 n=64 v=92
315240 Off ch=4 n=72 v=64
315240 Off ch=4 n=76 v=64
315240 Off ch=4 n=61 v=64
315240 Off ch=4 n=64 v=64
315360 On ch=4 n=74 v=104
315360 On ch=4 n=71 v=94
315360 On ch=4 n=63 v=94
315360 On ch=4 n=59 v=98
315480 Off ch=4 n=74 v=64
315480 Off ch=4 n=71 v=64
315480 Off ch=4 n=63 v=64
315480 Off ch=4 n=59 v=64
315600 On ch=4 n=71 v=95
315600 On ch=4 n=74 v=95
315600 On ch=4 n=59 v=95
315600 On ch=4 n=63 v=95
315720 Off ch=4 n=71 v=64
315720 Off ch=4 n=74 v=64
315720 Off ch=4 n=59 v=64
315720 Off ch=4 n=63 v=64
315840 On ch=4 n=74 v=104
315840 On ch=4 n=71 v=94
315840 On ch=4 n=63 v=94
315840 On ch=4 n=59 v=98
315960 Off ch=4 n=74 v=64
315960 Off ch=4 n=71 v=64
315960 Off ch=4 n=63 v=64
315960 Off ch=4 n=59 v=64
316080 On ch=4 n=72 v=92
316080 On ch=4 n=76 v=92
316080 On ch=4 n=61 v=92
316080 On ch=4 n=64 v=92
316200 Off ch=4 n=72 v=64
316200 Off ch=4 n=76 v=64
316200 Off ch=4 n=61 v=64
316200 Off ch=4 n=64 v=64
316320 On ch=4 n=77 v=104
316320 On ch=4 n=74 v=94
316320 On ch=4 n=66 v=94
316320 On ch=4 n=62 v=98
316440 Off ch=4 n=77 v=64
316440 Off ch=4 n=74 v=64
316440 Off ch=4 n=66 v=64
316440 Off ch=4 n=62 v=64
316560 On ch=4 n=76 v=93
316560 On ch=4 n=79 v=93
316560 On ch=4 n=64 v=93
316560 On ch=4 n=68 v=93
316680 Off ch=4 n=76 v=64
316680 Off ch=4 n=79 v=64
316680 Off ch=4 n=64 v=64
316680 Off ch=4 n=68 v=64
327249 On ch=4 n=29 v=73
327375 On ch=4 n=31 v=79
327402 Off ch=4 n=29 v=64
327492 On ch=4 n=32 v=84
327528 Off ch=4 n=31 v=64
327600 On ch=4 n=45 v=89
327600 On ch=4 n=33 v=89
327600 On ch=4 n=57 v=89
327645 Off ch=4 n=32 v=64
328266 Off ch=4 n=45 v=64
328266 Off ch=4 n=33 v=64
328266 Off ch=4 n=57 v=64
328320 On ch=4 n=40 v=88
328320 On ch=4 n=64 v=88
328320 On ch=4 n=52 v=88
328986 Off ch=4 n=40 v=64
328986 Off ch=4 n=64 v=64
328986 Off ch=4 n=52 v=64
329040 On ch=4 n=35 v=88
329040 On ch=4 n=47 v=88
329040 On ch=4 n=59 v=88
329466 Off ch=4 n=35 v=64
329466 Off ch=4 n=47 v=64
329466 Off ch=4 n=59 v=64
330957 On ch=4 n=28 v=96
331047 On ch=4 n=29 v=98
331074 Off ch=4 n=28 v=64
331128 On ch=4 n=31 v=101
331164 Off ch=4 n=29 v=64
331200 On ch=4 n=44 v=112
331200 On ch=4 n=32 v=112
331200 On ch=4 n=56 v=112
331245 Off ch=4 n=31 v=64
331278 Off ch=4 n=44 v=64
331278 Off ch=4 n=32 v=64
331278 Off ch=4 n=56 v=64
334080 On ch=4 n=29 v=120
334080 On ch=4 n=41 v=120
334290 Off ch=4 n=29 v=64
334290 Off ch=4 n=41 v=64
337200 On ch=4 n=29 v=110
337200 On ch=4 n=41 v=110
337410 Off ch=4 n=29 v=64
337410 Off ch=4 n=41 v=64
342720 On ch=4 n=36 v=123
342720 On ch=4 n=48 v=123
342720 On ch=4 n=57 v=123
342720 On ch=4 n=66 v=123
342720 On ch=4 n=68 v=123
342720 On ch=4 n=77 v=123
342720 On ch=4 n=84 v=123
342946 Off ch=4 n=36 v=64
342946 Off ch=4 n=48 v=64
342946 Off ch=4 n=57 v=64
342946 Off ch=4 n=66 v=64
342946 Off ch=4 n=68 v=64
342946 Off ch=4 n=77 v=64
342946 Off ch=4 n=84 v=64
348960 On ch=4 n=36 v=123
348960 On ch=4 n=48 v=123
348960 On ch=4 n=57 v=123
348960 On ch=4 n=66 v=123
348960 On ch=4 n=68 v=123
348960 On ch=4 n=77 v=123
348960 On ch=4 n=84 v=123
349186 Off ch=4 n=36 v=64
349186 Off ch=4 n=48 v=64
349186 Off ch=4 n=57 v=64
349186 Off ch=4 n=66 v=64
349186 Off ch=4 n=68 v=64
349186 Off ch=4 n=77 v=64
349186 Off ch=4 n=84 v=64
350880 On ch=4 n=36 v=123
350880 On ch=4 n=48 v=123
350880 On ch=4 n=57 v=123
350880 On ch=4 n=66 v=123
350880 On ch=4 n=68 v=123
350880 On ch=4 n=77 v=123
350880 On ch=4 n=88 v=123
351106 Off ch=4 n=36 v=64
351106 Off ch=4 n=48 v=64
351106 Off ch=4 n=57 v=64
351106 Off ch=4 n=66 v=64
351106 Off ch=4 n=68 v=64
351106 Off ch=4 n=77 v=64
351106 Off ch=4 n=88 v=64
351360 On ch=4 n=36 v=123
351360 On ch=4 n=48 v=123
351360 On ch=4 n=57 v=123
351360 On ch=4 n=66 v=123
351360 On ch=4 n=68 v=123
351360 On ch=4 n=77 v=123
351360 On ch=4 n=84 v=123
351586 Off ch=4 n=36 v=64
351586 Off ch=4 n=48 v=64
351586 Off ch=4 n=57 v=64
351586 Off ch=4 n=66 v=64
351586 Off ch=4 n=68 v=64
351586 Off ch=4 n=77 v=64
351586 Off ch=4 n=84 v=64
355200 On ch=4 n=36 v=123
355200 On ch=4 n=48 v=123
355200 On ch=4 n=57 v=123
355200 On ch=4 n=66 v=123
355200 On ch=4 n=68 v=123
355200 On ch=4 n=77 v=123
355200 On ch=4 n=84 v=123
355426 Off ch=4 n=36 v=64
355426 Off ch=4 n=48 v=64
355426 Off ch=4 n=57 v=64
355426 Off ch=4 n=66 v=64
355426 Off ch=4 n=68 v=64
355426 Off ch=4 n=77 v=64
355426 Off ch=4 n=84 v=64
385920 Par ch=4 c=0 v=0
385920 Par ch=4 c=32 v=1
385920 PrCh ch=4 p=49
416160 Par ch=4 c=7 v=94
416640 On ch=4 n=46 v=70
416640 On ch=4 n=27 v=70
416640 On ch=4 n=39 v=70
416640 On ch=4 n=34 v=70
417120 Off ch=4 n=46 v=64
417120 Off ch=4 n=27 v=64
417120 Off ch=4 n=39 v=64
417120 Off ch=4 n=34 v=64
417120 On ch=4 n=65 v=70
417120 On ch=4 n=58 v=70
417120 On ch=4 n=54 v=70
417444 Off ch=4 n=65 v=64
417444 Off ch=4 n=58 v=64
417444 Off ch=4 n=54 v=64
417600 On ch=4 n=65 v=70
417600 On ch=4 n=54 v=70
417600 On ch=4 n=58 v=70
417924 Off ch=4 n=65 v=64
417924 Off ch=4 n=54 v=64
417924 Off ch=4 n=58 v=64
418080 On ch=4 n=65 v=70
418080 On ch=4 n=54 v=70
418080 On ch=4 n=58 v=70
418404 Off ch=4 n=65 v=64
418404 Off ch=4 n=54 v=64
418404 Off ch=4 n=58 v=64
418560 On ch=4 n=34 v=70
418560 On ch=4 n=46 v=70
418560 On ch=4 n=27 v=70
418560 On ch=4 n=39 v=70
419040 Off ch=4 n=34 v=64
419040 Off ch=4 n=46 v=64
419040 Off ch=4 n=27 v=64
419040 Off ch=4 n=39 v=64
419040 On ch=4 n=65 v=70
419040 On ch=4 n=54 v=70
419040 On ch=4 n=58 v=70
419364 Off ch=4 n=65 v=64
419364 Off ch=4 n=54 v=64
419364 Off ch=4 n=58 v=64
419520 On ch=4 n=65 v=70
419520 On ch=4 n=54 v=70
419520 On ch=4 n=58 v=70
419844 Off ch=4 n=65 v=64
419844 Off ch=4 n=54 v=64
419844 Off ch=4 n=58 v=64
420000 On ch=4 n=65 v=70
420000 On ch=4 n=54 v=70
420000 On ch=4 n=58 v=70
420324 Off ch=4 n=65 v=64
420324 Off ch=4 n=54 v=64
420324 Off ch=4 n=58 v=64
420480 On ch=4 n=46 v=70
420480 On ch=4 n=27 v=70
420480 On ch=4 n=39 v=70
420480 On ch=4 n=34 v=70
420960 Off ch=4 n=46 v=64
420960 Off ch=4 n=27 v=64
420960 Off ch=4 n=39 v=64
420960 Off ch=4 n=34 v=64
420960 On ch=4 n=65 v=70
420960 On ch=4 n=54 v=70
420960 On ch=4 n=58 v=70
421284 Off ch=4 n=65 v=64
421284 Off ch=4 n=54 v=64
421284 Off ch=4 n=58 v=64
421440 On ch=4 n=65 v=70
421440 On ch=4 n=54 v=70
421440 On ch=4 n=58 v=70
421764 Off ch=4 n=65 v=64
421764 Off ch=4 n=54 v=64
421764 Off ch=4 n=58 v=64
421920 On ch=4 n=65 v=70
421920 On ch=4 n=54 v=70
421920 On ch=4 n=58 v=70
422244 Off ch=4 n=65 v=64
422244 Off ch=4 n=54 v=64
422244 Off ch=4 n=58 v=64
422400 On ch=4 n=34 v=70
422400 On ch=4 n=39 v=70
422400 On ch=4 n=46 v=70
422400 On ch=4 n=27 v=70
422640 Off ch=4 n=34 v=64
422640 Off ch=4 n=39 v=64
422640 Off ch=4 n=46 v=64
422640 Off ch=4 n=27 v=64
422640 On ch=4 n=61 v=34
422640 On ch=4 n=65 v=34
422640 On ch=4 n=75 v=34
422640 On ch=4 n=70 v=34
424320 On ch=4 n=46 v=70
424320 On ch=4 n=27 v=70
424320 On ch=4 n=39 v=70
424320 On ch=4 n=34 v=70
424322 Off ch=4 n=61 v=64
424322 Off ch=4 n=65 v=64
424322 Off ch=4 n=75 v=64
424322 Off ch=4 n=70 v=64
424800 Off ch=4 n=46 v=64
424800 Off ch=4 n=27 v=64
424800 Off ch=4 n=39 v=64
424800 Off ch=4 n=34 v=64
424800 On ch=4 n=65 v=70
424800 On ch=4 n=58 v=70
424800 On ch=4 n=54 v=70
425124 Off ch=4 n=65 v=64
425124 Off ch=4 n=58 v=64
425124 Off ch=4 n=54 v=64
425280 On ch=4 n=65 v=70
425280 On ch=4 n=54 v=70
425280 On ch=4 n=58 v=70
425604 Off ch=4 n=65 v=64
425604 Off ch=4 n=54 v=64
425604 Off ch=4 n=58 v=64
425760 On ch=4 n=65 v=70
425760 On ch=4 n=54 v=70
425760 On ch=4 n=58 v=70
426084 Off ch=4 n=65 v=64
426084 Off ch=4 n=54 v=64
426084 Off ch=4 n=58 v=64
426240 On ch=4 n=34 v=70
426240 On ch=4 n=46 v=70
426240 On ch=4 n=27 v=70
426240 On ch=4 n=39 v=70
426720 Off ch=4 n=34 v=64
426720 Off ch=4 n=46 v=64
426720 Off ch=4 n=27 v=64
426720 Off ch=4 n=39 v=64
426720 On ch=4 n=65 v=70
426720 On ch=4 n=54 v=70
426720 On ch=4 n=58 v=70
427044 Off ch=4 n=65 v=64
427044 Off ch=4 n=54 v=64
427044 Off ch=4 n=58 v=64
427200 On ch=4 n=65 v=70
427200 On ch=4 n=54 v=70
427200 On ch=4 n=58 v=70
427524 Off ch=4 n=65 v=64
427524 Off ch=4 n=54 v=64
427524 Off ch=4 n=58 v=64
427680 On ch=4 n=65 v=70
427680 On ch=4 n=54 v=70
427680 On ch=4 n=58 v=70
428004 Off ch=4 n=65 v=64
428004 Off ch=4 n=54 v=64
428004 Off ch=4 n=58 v=64
428160 On ch=4 n=34 v=70
428160 On ch=4 n=39 v=70
428160 On ch=4 n=46 v=70
428160 On ch=4 n=27 v=70
428400 Off ch=4 n=34 v=64
428400 Off ch=4 n=39 v=64
428400 Off ch=4 n=46 v=64
428400 Off ch=4 n=27 v=64
428400 On ch=4 n=61 v=34
428400 On ch=4 n=65 v=34
428400 On ch=4 n=75 v=34
428400 On ch=4 n=70 v=34
431520 On ch=4 n=46 v=70
431520 On ch=4 n=27 v=70
431520 On ch=4 n=39 v=70
431520 On ch=4 n=34 v=70
431741 Off ch=4 n=61 v=64
431741 Off ch=4 n=65 v=64
431741 Off ch=4 n=75 v=64
431741 Off ch=4 n=70 v=64
432000 Off ch=4 n=46 v=64
432000 Off ch=4 n=27 v=64
432000 Off ch=4 n=39 v=64
432000 Off ch=4 n=34 v=64
433440 On ch=4 n=34 v=70
433440 On ch=4 n=46 v=70
433440 On ch=4 n=27 v=70
433440 On ch=4 n=39 v=70
433920 Off ch=4 n=34 v=64
433920 Off ch=4 n=46 v=64
433920 Off ch=4 n=27 v=64
433920 Off ch=4 n=39 v=64
435360 On ch=4 n=46 v=70
435360 On ch=4 n=27 v=70
435360 On ch=4 n=39 v=70
435360 On ch=4 n=34 v=70
435526 Par ch=4 c=7 v=100
435840 Off ch=4 n=46 v=64
435840 Off ch=4 n=27 v=64
435840 Off ch=4 n=39 v=64
435840 Off ch=4 n=34 v=64
435840 On ch=4 n=65 v=46
435840 On ch=4 n=58 v=46
435840 On ch=4 n=66 v=46
435840 On ch=4 n=70 v=46
436292 Off ch=4 n=65 v=64
436292 Off ch=4 n=58 v=64
436292 Off ch=4 n=66 v=64
436292 Off ch=4 n=70 v=64
436320 On ch=4 n=58 v=47
436320 On ch=4 n=66 v=47
436320 On ch=4 n=65 v=47
436320 On ch=4 n=70 v=47
436772 Off ch=4 n=58 v=64
436772 Off ch=4 n=66 v=64
436772 Off ch=4 n=65 v=64
436772 Off ch=4 n=70 v=64
436800 On ch=4 n=58 v=49
436800 On ch=4 n=65 v=49
436800 On ch=4 n=66 v=49
436800 On ch=4 n=70 v=49
437252 Off ch=4 n=58 v=64
437252 Off ch=4 n=65 v=64
437252 Off ch=4 n=66 v=64
437252 Off ch=4 n=70 v=64
437280 On ch=4 n=34 v=70
437280 On ch=4 n=46 v=70
437280 On ch=4 n=27 v=70
437280 On ch=4 n=39 v=70
437280 On ch=4 n=60 v=44
437280 On ch=4 n=66 v=44
437280 On ch=4 n=72 v=44
437280 On ch=4 n=68 v=44
437520 Off ch=4 n=60 v=64
437520 Off ch=4 n=66 v=64
437520 Off ch=4 n=72 v=64
437520 Off ch=4 n=68 v=64
437520 On ch=4 n=61 v=50
437520 On ch=4 n=68 v=50
437520 On ch=4 n=70 v=50
437520 On ch=4 n=73 v=50
437760 Off ch=4 n=34 v=64
437760 Off ch=4 n=46 v=64
437760 Off ch=4 n=27 v=64
437760 Off ch=4 n=39 v=64
437760 Off ch=4 n=61 v=64
437760 Off ch=4 n=68 v=64
437760 Off ch=4 n=70 v=64
437760 Off ch=4 n=73 v=64
437760 On ch=4 n=63 v=55
437760 On ch=4 n=70 v=55
437760 On ch=4 n=72 v=55
437760 On ch=4 n=75 v=55
438240 Off ch=4 n=63 v=64
438240 Off ch=4 n=70 v=64
438240 Off ch=4 n=72 v=64
438240 Off ch=4 n=75 v=64
438240 On ch=4 n=61 v=48
438240 On ch=4 n=70 v=48
438240 On ch=4 n=73 v=48
438240 On ch=4 n=68 v=48
438720 Off ch=4 n=61 v=64
438720 Off ch=4 n=70 v=64
438720 Off ch=4 n=73 v=64
438720 Off ch=4 n=68 v=64
438720 On ch=4 n=66 v=40
438720 On ch=4 n=60 v=40
438720 On ch=4 n=72 v=40
438720 On ch=4 n=68 v=40
439200 Off ch=4 n=66 v=64
439200 Off ch=4 n=60 v=64
439200 Off ch=4 n=72 v=64
439200 Off ch=4 n=68 v=64
439200 On ch=4 n=34 v=70
439200 On ch=4 n=46 v=70
439200 On ch=4 n=27 v=70
439200 On ch=4 n=39 v=70
439680 Off ch=4 n=34 v=64
439680 Off ch=4 n=46 v=64
439680 Off ch=4 n=27 v=64
439680 Off ch=4 n=39 v=64
441120 On ch=4 n=46 v=70
441120 On ch=4 n=27 v=70
441120 On ch=4 n=39 v=70
441120 On ch=4 n=34 v=70
441600 Off ch=4 n=46 v=64
441600 Off ch=4 n=27 v=64
441600 Off ch=4 n=39 v=64
441600 Off ch=4 n=34 v=64
443040 On ch=4 n=34 v=70
443040 On ch=4 n=46 v=70
443040 On ch=4 n=27 v=70
443040 On ch=4 n=39 v=70
443520 Off ch=4 n=34 v=64
443520 Off ch=4 n=46 v=64
443520 Off ch=4 n=27 v=64
443520 Off ch=4 n=39 v=64
444960 On ch=4 n=34 v=70
444960 On ch=4 n=46 v=70
444960 On ch=4 n=27 v=70
444960 On ch=4 n=39 v=70
445126 Par ch=4 c=7 v=100
445440 Off ch=4 n=34 v=64
445440 Off ch=4 n=46 v=64
445440 Off ch=4 n=27 v=64
445440 Off ch=4 n=39 v=64
445440 On ch=4 n=65 v=49
445440 On ch=4 n=58 v=49
445440 On ch=4 n=66 v=49
445440 On ch=4 n=70 v=49
445892 Off ch=4 n=65 v=64
445892 Off ch=4 n=58 v=64
445892 Off ch=4 n=66 v=64
445892 Off ch=4 n=70 v=64
445920 On ch=4 n=58 v=50
445920 On ch=4 n=66 v=50
445920 On ch=4 n=65 v=50
445920 On ch=4 n=70 v=50
446372 Off ch=4 n=58 v=64
446372 Off ch=4 n=66 v=64
446372 Off ch=4 n=65 v=64
446372 Off ch=4 n=70 v=64
446400 On ch=4 n=58 v=52
446400 On ch=4 n=65 v=52
446400 On ch=4 n=66 v=52
446400 On ch=4 n=70 v=52
446852 Off ch=4 n=58 v=64
446852 Off ch=4 n=65 v=64
446852 Off ch=4 n=66 v=64
446852 Off ch=4 n=70 v=64
446880 On ch=4 n=34 v=70
446880 On ch=4 n=46 v=70
446880 On ch=4 n=27 v=70
446880 On ch=4 n=39 v=70
446880 On ch=4 n=60 v=47
446880 On ch=4 n=66 v=47
446880 On ch=4 n=72 v=47
446880 On ch=4 n=68 v=47
447120 Off ch=4 n=60 v=64
447120 Off ch=4 n=66 v=64
447120 Off ch=4 n=72 v=64
447120 Off ch=4 n=68 v=64
447120 On ch=4 n=61 v=53
447120 On ch=4 n=68 v=53
447120 On ch=4 n=70 v=53
447120 On ch=4 n=73 v=53
447360 Off ch=4 n=34 v=64
447360 Off ch=4 n=46 v=64
447360 Off ch=4 n=27 v=64
447360 Off ch=4 n=39 v=64
447360 Off ch=4 n=61 v=64
447360 Off ch=4 n=68 v=64
447360 Off ch=4 n=70 v=64
447360 Off ch=4 n=73 v=64
447360 On ch=4 n=63 v=58
447360 On ch=4 n=70 v=58
447360 On ch=4 n=72 v=58
447360 On ch=4 n=75 v=58
447840 Off ch=4 n=63 v=64
447840 Off ch=4 n=70 v=64
447840 Off ch=4 n=72 v=64
447840 Off ch=4 n=75 v=64
447840 On ch=4 n=61 v=51
447840 On ch=4 n=70 v=51
447840 On ch=4 n=73 v=51
447840 On ch=4 n=68 v=51
448320 Off ch=4 n=61 v=64
448320 Off ch=4 n=70 v=64
448320 Off ch=4 n=73 v=64
448320 Off ch=4 n=68 v=64
448320 On ch=4 n=66 v=47
448320 On ch=4 n=60 v=47
448320 On ch=4 n=72 v=47
448320 On ch=4 n=68 v=47
448800 Off ch=4 n=66 v=64
448800 Off ch=4 n=60 v=64
448800 Off ch=4 n=72 v=64
448800 Off ch=4 n=68 v=64
448800 On ch=4 n=46 v=70
448800 On ch=4 n=27 v=70
448800 On ch=4 n=39 v=70
448800 On ch=4 n=34 v=70
448800 On ch=4 n=58 v=47
448800 On ch=4 n=66 v=47
448800 On ch=4 n=65 v=47
448800 On ch=4 n=70 v=47
449252 Off ch=4 n=58 v=64
449252 Off ch=4 n=66 v=64
449252 Off ch=4 n=65 v=64
449252 Off ch=4 n=70 v=64
449280 Off ch=4 n=46 v=64
449280 Off ch=4 n=27 v=64
449280 Off ch=4 n=39 v=64
449280 Off ch=4 n=34 v=64
449280 On ch=4 n=58 v=47
449280 On ch=4 n=65 v=47
449280 On ch=4 n=66 v=47
449280 On ch=4 n=70 v=47
449732 Off ch=4 n=58 v=64
449732 Off ch=4 n=65 v=64
449732 Off ch=4 n=66 v=64
449732 Off ch=4 n=70 v=64
449760 On ch=4 n=60 v=47
449760 On ch=4 n=66 v=47
449760 On ch=4 n=72 v=47
449760 On ch=4 n=68 v=47
450000 Off ch=4 n=60 v=64
450000 Off ch=4 n=66 v=64
450000 Off ch=4 n=72 v=64
450000 Off ch=4 n=68 v=64
450000 On ch=4 n=61 v=53
450000 On ch=4 n=68 v=53
450000 On ch=4 n=70 v=53
450000 On ch=4 n=73 v=53
450240 Off ch=4 n=61 v=64
450240 Off ch=4 n=68 v=64
450240 Off ch=4 n=70 v=64
450240 Off ch=4 n=73 v=64
450240 On ch=4 n=63 v=58
450240 On ch=4 n=70 v=58
450240 On ch=4 n=72 v=58
450240 On ch=4 n=75 v=58
450720 Off ch=4 n=63 v=64
450720 Off ch=4 n=70 v=64
450720 Off ch=4 n=72 v=64
450720 Off ch=4 n=75 v=64
450720 On ch=4 n=34 v=70
450720 On ch=4 n=46 v=70
450720 On ch=4 n=27 v=70
450720 On ch=4 n=39 v=70
450720 On ch=4 n=61 v=51
450720 On ch=4 n=70 v=51
450720 On ch=4 n=73 v=51
450720 On ch=4 n=68 v=51
451200 Off ch=4 n=34 v=64
451200 Off ch=4 n=46 v=64
451200 Off ch=4 n=27 v=64
451200 Off ch=4 n=39 v=64
451200 Off ch=4 n=61 v=64
451200 Off ch=4 n=70 v=64
451200 Off ch=4 n=73 v=64
451200 Off ch=4 n=68 v=64
451200 On ch=4 n=66 v=47
451200 On ch=4 n=60 v=47
451200 On ch=4 n=72 v=47
451200 On ch=4 n=68 v=47
451680 Off ch=4 n=66 v=64
451680 Off ch=4 n=60 v=64
451680 Off ch=4 n=72 v=64
451680 Off ch=4 n=68 v=64
451680 On ch=4 n=58 v=47
451680 On ch=4 n=66 v=47
451680 On ch=4 n=65 v=47
451680 On ch=4 n=70 v=47
452132 Off ch=4 n=58 v=64
452132 Off ch=4 n=66 v=64
452132 Off ch=4 n=65 v=64
452132 Off ch=4 n=70 v=64
452160 On ch=4 n=58 v=47
452160 On ch=4 n=65 v=47
452160 On ch=4 n=66 v=47
452160 On ch=4 n=70 v=47
452612 Off ch=4 n=58 v=64
452612 Off ch=4 n=65 v=64
452612 Off ch=4 n=66 v=64
452612 Off ch=4 n=70 v=64
452640 On ch=4 n=60 v=47
452640 On ch=4 n=66 v=47
452640 On ch=4 n=72 v=47
452640 On ch=4 n=68 v=47
452880 Off ch=4 n=60 v=64
452880 Off ch=4 n=66 v=64
452880 Off ch=4 n=72 v=64
452880 Off ch=4 n=68 v=64
452880 On ch=4 n=61 v=53
452880 On ch=4 n=68 v=53
452880 On ch=4 n=70 v=53
452880 On ch=4 n=73 v=53
453120 Off ch=4 n=61 v=64
453120 Off ch=4 n=68 v=64
453120 Off ch=4 n=70 v=64
453120 Off ch=4 n=73 v=64
453120 On ch=4 n=63 v=58
453120 On ch=4 n=70 v=58
453120 On ch=4 n=72 v=58
453120 On ch=4 n=75 v=58
453600 Off ch=4 n=63 v=64
453600 Off ch=4 n=70 v=64
453600 Off ch=4 n=72 v=64
453600 Off ch=4 n=75 v=64
453600 On ch=4 n=34 v=70
453600 On ch=4 n=46 v=70
453600 On ch=4 n=27 v=70
453600 On ch=4 n=39 v=70
454080 Off ch=4 n=34 v=64
454080 Off ch=4 n=46 v=64
454080 Off ch=4 n=27 v=64
454080 Off ch=4 n=39 v=64
454080 On ch=4 n=65 v=70
454080 On ch=4 n=54 v=70
454080 On ch=4 n=58 v=70
454404 Off ch=4 n=65 v=64
454404 Off ch=4 n=54 v=64
454404 Off ch=4 n=58 v=64
454560 On ch=4 n=65 v=70
454560 On ch=4 n=54 v=70
454560 On ch=4 n=58 v=70
454884 Off ch=4 n=65 v=64
454884 Off ch=4 n=54 v=64
454884 Off ch=4 n=58 v=64
455040 On ch=4 n=65 v=70
455040 On ch=4 n=54 v=70
455040 On ch=4 n=58 v=70
455364 Off ch=4 n=65 v=64
455364 Off ch=4 n=54 v=64
455364 Off ch=4 n=58 v=64
455520 On ch=4 n=46 v=70
455520 On ch=4 n=27 v=70
455520 On ch=4 n=39 v=70
455520 On ch=4 n=34 v=70
456000 Off ch=4 n=46 v=64
456000 Off ch=4 n=27 v=64
456000 Off ch=4 n=39 v=64
456000 Off ch=4 n=34 v=64
456000 On ch=4 n=65 v=70
456000 On ch=4 n=54 v=70
456000 On ch=4 n=58 v=70
456324 Off ch=4 n=65 v=64
456324 Off ch=4 n=54 v=64
456324 Off ch=4 n=58 v=64
456480 On ch=4 n=65 v=70
456480 On ch=4 n=54 v=70
456480 On ch=4 n=58 v=70
456804 Off ch=4 n=65 v=64
456804 Off ch=4 n=54 v=64
456804 Off ch=4 n=58 v=64
456960 On ch=4 n=65 v=70
456960 On ch=4 n=54 v=70
456960 On ch=4 n=58 v=70
457284 Off ch=4 n=65 v=64
457284 Off ch=4 n=54 v=64
457284 Off ch=4 n=58 v=64
457440 On ch=4 n=34 v=70
457440 On ch=4 n=39 v=70
457440 On ch=4 n=46 v=70
457440 On ch=4 n=27 v=70
457680 Off ch=4 n=34 v=64
457680 Off ch=4 n=39 v=64
457680 Off ch=4 n=46 v=64
457680 Off ch=4 n=27 v=64
457680 On ch=4 n=61 v=34
457680 On ch=4 n=65 v=34
457680 On ch=4 n=75 v=34
457680 On ch=4 n=70 v=34
459360 On ch=4 n=46 v=70
459360 On ch=4 n=27 v=70
459360 On ch=4 n=39 v=70
459360 On ch=4 n=34 v=70
459362 Off ch=4 n=61 v=64
459362 Off ch=4 n=65 v=64
459362 Off ch=4 n=75 v=64
459362 Off ch=4 n=70 v=64
459840 Off ch=4 n=46 v=64
459840 Off ch=4 n=27 v=64
459840 Off ch=4 n=39 v=64
459840 Off ch=4 n=34 v=64
459840 On ch=4 n=65 v=70
459840 On ch=4 n=58 v=70
459840 On ch=4 n=54 v=70
460164 Off ch=4 n=65 v=64
460164 Off ch=4 n=58 v=64
460164 Off ch=4 n=54 v=64
460320 On ch=4 n=65 v=70
460320 On ch=4 n=54 v=70
460320 On ch=4 n=58 v=70
460644 Off ch=4 n=65 v=64
460644 Off ch=4 n=54 v=64
460644 Off ch=4 n=58 v=64
460800 On ch=4 n=65 v=70
460800 On ch=4 n=54 v=70
460800 On ch=4 n=58 v=70
461124 Off ch=4 n=65 v=64
461124 Off ch=4 n=54 v=64
461124 Off ch=4 n=58 v=64
461280 On ch=4 n=34 v=70
461280 On ch=4 n=39 v=70
461280 On ch=4 n=46 v=70
461280 On ch=4 n=27 v=70
461520 Off ch=4 n=34 v=64
461520 Off ch=4 n=39 v=64
461520 Off ch=4 n=46 v=64
461520 Off ch=4 n=27 v=64
461520 On ch=4 n=61 v=34
461520 On ch=4 n=65 v=34
461520 On ch=4 n=75 v=34
461520 On ch=4 n=70 v=34
464633 Off ch=4 n=65 v=64
464633 Off ch=4 n=75 v=64
464637 Off ch=4 n=70 v=64
464639 Off ch=4 n=61 v=64
524160 Meta TrkEnd
TrkEnd
MTrk
0 Meta InstrName "SC-88VL"
0 Meta TrkName "Oboe/Horn"
480 Par ch=5 c=0 v=0
480 Par ch=5 c=32 v=2
480 PrCh ch=5 p=68
960 Par ch=5 c=93 v=0
960 Par ch=5 c=91 v=110
970 Par ch=5 c=7 v=100
14400 On ch=5 n=61 v=52
14640 Off ch=5 n=61 v=64
14640 On ch=5 n=66 v=52
14804 On ch=5 n=61 v=48
14812 Off ch=5 n=66 v=64
14848 On ch=5 n=66 v=48
14860 Off ch=5 n=61 v=64
14880 On ch=5 n=63 v=52
14892 Off ch=5 n=66 v=64
15040 Off ch=5 n=63 v=64
15040 On ch=5 n=61 v=52
15200 Off ch=5 n=61 v=64
15200 On ch=5 n=66 v=52
15304 On ch=5 n=61 v=48
15312 Off ch=5 n=66 v=64
15336 On ch=5 n=66 v=48
15360 Off ch=5 n=61 v=64
15360 On ch=5 n=63 v=52
15380 Off ch=5 n=66 v=64
15520 Off ch=5 n=63 v=64
15520 On ch=5 n=61 v=52
15680 Off ch=5 n=61 v=64
15680 On ch=5 n=66 v=52
15828 Off ch=5 n=66 v=64
16000 On ch=5 n=68 v=52
16080 Off ch=5 n=68 v=64
16080 On ch=5 n=63 v=52
16160 Off ch=5 n=63 v=64
16160 On ch=5 n=66 v=52
16240 Off ch=5 n=66 v=64
16240 On ch=5 n=61 v=52
16320 Off ch=5 n=61 v=64
16320 On ch=5 n=63 v=52
17195 Off ch=5 n=63 v=64
18720 On ch=5 n=61 v=54
18960 Off ch=5 n=61 v=64
18960 On ch=5 n=66 v=54
19130 On ch=5 n=61 v=50
19140 Off ch=5 n=66 v=64
19165 On ch=5 n=66 v=50
19175 Off ch=5 n=61 v=64
19200 On ch=5 n=63 v=54
19210 Off ch=5 n=66 v=64
19360 Off ch=5 n=63 v=64
19360 On ch=5 n=61 v=54
19440 Off ch=5 n=61 v=64
19450 On ch=5 n=61 v=50
19485 On ch=5 n=66 v=50
19495 Off ch=5 n=61 v=64
19520 On ch=5 n=63 v=54
19530 Off ch=5 n=66 v=64
20320 On ch=5 n=61 v=54
20335 Off ch=5 n=63 v=64
20405 Off ch=5 n=61 v=64
20410 On ch=5 n=61 v=54
20445 On ch=5 n=66 v=54
20455 Off ch=5 n=61 v=64
20480 On ch=5 n=63 v=54
20490 Off ch=5 n=66 v=64
20725 On ch=5 n=61 v=46
20740 Off ch=5 n=63 v=64
20760 On ch=5 n=66 v=46
20770 Off ch=5 n=61 v=64
20800 On ch=5 n=63 v=54
20805 Off ch=5 n=66 v=64
21120 Off ch=5 n=63 v=64
21120 On ch=5 n=61 v=54
21514 Off ch=5 n=61 v=64
21600 On ch=5 n=68 v=63
21680 Off ch=5 n=68 v=64
21680 On ch=5 n=66 v=61
21760 Off ch=5 n=66 v=64
21760 On ch=5 n=63 v=59
21840 Off ch=5 n=63 v=64
21840 On ch=5 n=66 v=57
21920 Off ch=5 n=66 v=64
21920 On ch=5 n=64 v=55
22000 Off ch=5 n=64 v=64
22000 On ch=5 n=61 v=52
22080 Off ch=5 n=61 v=64
22080 On ch=5 n=63 v=50
22245 On ch=5 n=61 v=46
22255 Off ch=5 n=63 v=64
22280 On ch=5 n=66 v=46
22290 Off ch=5 n=61 v=64
22320 On ch=5 n=63 v=54
22325 Off ch=5 n=66 v=64
22800 On ch=5 n=66 v=50
22810 Off ch=5 n=63 v=64
22880 Off ch=5 n=66 v=64
22880 On ch=5 n=64 v=50
22960 Off ch=5 n=64 v=64
22960 On ch=5 n=61 v=50
23040 Off ch=5 n=61 v=64
23040 On ch=5 n=63 v=50
23480 Off ch=5 n=63 v=64
23520 On ch=5 n=68 v=61
23700 Off ch=5 n=68 v=64
23705 On ch=5 n=66 v=54
23735 On ch=5 n=68 v=53
23750 Off ch=5 n=66 v=64
23760 On ch=5 n=66 v=52
23780 Off ch=5 n=68 v=64
23880 Off ch=5 n=66 v=64
23880 On ch=5 n=63 v=47
24000 Off ch=5 n=63 v=64
24000 On ch=5 n=68 v=54
24180 Off ch=5 n=68 v=64
24180 On ch=5 n=66 v=55
24210 On ch=5 n=68 v=52
24225 Off ch=5 n=66 v=64
24240 On ch=5 n=66 v=51
24255 Off ch=5 n=68 v=64
24360 Off ch=5 n=66 v=64
24360 On ch=5 n=63 v=46
24480 Off ch=5 n=63 v=64
24480 On ch=5 n=68 v=50
24560 Off ch=5 n=68 v=64
24560 On ch=5 n=66 v=49
24640 Off ch=5 n=66 v=64
24640 On ch=5 n=63 v=48
24720 Off ch=5 n=63 v=64
24720 On ch=5 n=66 v=47
24800 Off ch=5 n=66 v=64
24800 On ch=5 n=64 v=46
24880 Off ch=5 n=64 v=64
24880 On ch=5 n=61 v=45
24960 Off ch=5 n=61 v=64
24960 On ch=5 n=63 v=44
25080 Off ch=5 n=63 v=64
25440 On ch=5 n=75 v=50
25585 Off ch=5 n=75 v=64
25600 On ch=5 n=75 v=50
25665 Off ch=5 n=75 v=64
25680 On ch=5 n=75 v=50
25745 Off ch=5 n=75 v=64
25760 On ch=5 n=75 v=50
25825 Off ch=5 n=75 v=64
25840 On ch=5 n=75 v=50
25905 Off ch=5 n=75 v=64
25920 On ch=5 n=75 v=50
26065 Off ch=5 n=75 v=64
26080 On ch=5 n=75 v=50
26145 Off ch=5 n=75 v=64
26160 On ch=5 n=75 v=50
26225 Off ch=5 n=75 v=64
26240 On ch=5 n=75 v=50
26305 Off ch=5 n=75 v=64
26320 On ch=5 n=75 v=50
26385 Off ch=5 n=75 v=64
26400 On ch=5 n=75 v=50
27765 Off ch=5 n=75 v=64
27840 On ch=5 n=75 v=50
27980 Off ch=5 n=75 v=64
28000 On ch=5 n=75 v=50
28060 Off ch=5 n=75 v=64
28080 On ch=5 n=75 v=50
28140 Off ch=5 n=75 v=64
28160 On ch=5 n=75 v=50
28220 Off ch=5 n=75 v=64
28240 On ch=5 n=75 v=50
28300 Off ch=5 n=75 v=64
28320 On ch=5 n=75 v=50
29190 Off ch=5 n=75 v=64
29280 On ch=5 n=75 v=50
29420 Off ch=5 n=75 v=64
29440 On ch=5 n=75 v=50
29500 Off ch=5 n=75 v=64
29520 On ch=5 n=75 v=50
29580 Off ch=5 n=75 v=64
29600 On ch=5 n=75 v=50
29660 Off ch=5 n=75 v=64
29680 On ch=5 n=75 v=50
29740 Off ch=5 n=75 v=64
29760 On ch=5 n=75 v=50
30655 Off ch=5 n=75 v=64
30720 On ch=5 n=76 v=58
31360 On ch=5 n=73 v=58
31380 Off ch=5 n=76 v=64
31520 Off ch=5 n=73 v=64
31520 On ch=5 n=80 v=58
31650 Off ch=5 n=80 v=64
31650 On ch=5 n=80 v=54
31680 On ch=5 n=77 v=58
31722 Off ch=5 n=80 v=64
32320 On ch=5 n=73 v=58
32334 Off ch=5 n=77 v=64
32480 Off ch=5 n=73 v=64
32480 On ch=5 n=80 v=58
32610 Off ch=5 n=80 v=64
32610 On ch=5 n=80 v=52
32640 On ch=5 n=76 v=58
32682 Off ch=5 n=80 v=64
32800 Off ch=5 n=76 v=64
32800 On ch=5 n=73 v=58
32960 Off ch=5 n=73 v=64
32960 On ch=5 n=80 v=58
33090 Off ch=5 n=80 v=64
33090 On ch=5 n=80 v=56
33120 On ch=5 n=77 v=58
33162 Off ch=5 n=80 v=64
33280 Off ch=5 n=77 v=64
33280 On ch=5 n=73 v=58
33440 Off ch=5 n=73 v=64
33440 On ch=5 n=80 v=58
33522 On ch=5 n=85 v=48
33546 Off ch=5 n=80 v=64
33558 On ch=5 n=78 v=48
33594 Off ch=5 n=85 v=64
33600 On ch=5 n=76 v=54
33600 On ch=5 n=65 v=54
33630 Off ch=5 n=78 v=64
33840 Off ch=5 n=76 v=64
33840 Off ch=5 n=65 v=64
33840 On ch=5 n=70 v=54
34038 Off ch=5 n=70 v=64
34056 On ch=5 n=70 v=54
34080 On ch=5 n=67 v=54
34110 Off ch=5 n=70 v=64
34644 Off ch=5 n=67 v=64
34720 On ch=5 n=70 v=54
34790 On ch=5 n=65 v=54
34832 Off ch=5 n=70 v=64
34850 On ch=5 n=70 v=54
34860 Off ch=5 n=65 v=64
34880 On ch=5 n=67 v=54
34902 Off ch=5 n=70 v=64
35658 Off ch=5 n=67 v=64
35760 On ch=5 n=65 v=54
36000 Off ch=5 n=65 v=64
36000 On ch=5 n=70 v=54
36152 On ch=5 n=65 v=54
36186 Off ch=5 n=70 v=64
36212 On ch=5 n=70 v=54
36222 Off ch=5 n=65 v=64
36240 On ch=5 n=67 v=54
36264 Off ch=5 n=70 v=64
37038 Off ch=5 n=67 v=64
37120 On ch=5 n=66 v=44
37256 On ch=5 n=69 v=44
37280 Off ch=5 n=66 v=64
37280 On ch=5 n=67 v=44
37320 Off ch=5 n=69 v=64
37440 Off ch=5 n=67 v=64
37440 On ch=5 n=65 v=44
37576 On ch=5 n=69 v=44
37600 Off ch=5 n=65 v=64
37600 On ch=5 n=67 v=44
37640 Off ch=5 n=69 v=64
37760 Off ch=5 n=67 v=64
37760 On ch=5 n=66 v=44
37920 Off ch=5 n=66 v=64
37920 On ch=5 n=69 v=44
38080 Off ch=5 n=69 v=64
38080 On ch=5 n=66 v=44
38216 On ch=5 n=69 v=44
38240 Off ch=5 n=66 v=64
38240 On ch=5 n=67 v=44
38280 Off ch=5 n=69 v=64
38400 Off ch=5 n=67 v=64
38400 On ch=5 n=65 v=44
38536 On ch=5 n=69 v=44
38560 Off ch=5 n=65 v=64
38560 On ch=5 n=67 v=44
38600 Off ch=5 n=69 v=64
38720 Off ch=5 n=67 v=64
38720 On ch=5 n=66 v=44
38880 Off ch=5 n=66 v=64
38880 On ch=5 n=69 v=44
39040 Off ch=5 n=69 v=64
39040 On ch=5 n=66 v=44
39176 On ch=5 n=69 v=44
39200 Off ch=5 n=66 v=64
39200 On ch=5 n=67 v=44
39240 Off ch=5 n=69 v=64
39360 Off ch=5 n=67 v=64
39360 On ch=5 n=65 v=44
39578 On ch=5 n=69 v=44
39600 Off ch=5 n=65 v=64
39600 On ch=5 n=67 v=44
39642 Off ch=5 n=69 v=64
39840 Off ch=5 n=67 v=64
39840 On ch=5 n=66 v=44
40440 Off ch=5 n=66 v=64
40538 On ch=5 n=69 v=44
40560 On ch=5 n=67 v=44
40602 Off ch=5 n=69 v=64
40800 Off ch=5 n=67 v=64
40800 On ch=5 n=65 v=44
40936 On ch=5 n=69 v=44
40960 Off ch=5 n=65 v=64
40960 On ch=5 n=67 v=44
41000 Off ch=5 n=69 v=64
41120 Off ch=5 n=67 v=64
41120 On ch=5 n=66 v=44
41416 On ch=5 n=69 v=44
41430 Off ch=5 n=66 v=64
41440 On ch=5 n=67 v=44
41480 Off ch=5 n=69 v=64
41600 Off ch=5 n=67 v=64
41600 On ch=5 n=65 v=44
41896 On ch=5 n=69 v=44
41898 Off ch=5 n=65 v=64
41920 On ch=5 n=67 v=44
41960 Off ch=5 n=69 v=64
42080 Off ch=5 n=67 v=64
42080 On ch=5 n=66 v=44
42376 On ch=5 n=69 v=44
42384 Off ch=5 n=66 v=64
42400 On ch=5 n=67 v=44
42440 Off ch=5 n=69 v=64
42560 Off ch=5 n=67 v=64
42560 On ch=5 n=65 v=44
42856 On ch=5 n=69 v=44
42864 Off ch=5 n=65 v=64
42880 On ch=5 n=67 v=44
42920 Off ch=5 n=69 v=64
43040 Off ch=5 n=67 v=64
43040 On ch=5 n=66 v=44
43763 Off ch=5 n=66 v=64
44115 Par ch=5 c=7 v=56
44126 Par ch=5 c=7 v=56
44137 Par ch=5 c=7 v=57
44148 Par ch=5 c=7 v=58
44159 Par ch=5 c=7 v=59
44160 On ch=5 n=66 v=52
44170 Par ch=5 c=7 v=60
44182 Par ch=5 c=7 v=61
44193 Par ch=5 c=7 v=62
44204 Par ch=5 c=7 v=63
44215 Par ch=5 c=7 v=64
44226 Par ch=5 c=7 v=65
44238 Par ch=5 c=7 v=66
44249 Par ch=5 c=7 v=67
44260 Par ch=5 c=7 v=68
44271 Par ch=5 c=7 v=69
44282 Par ch=5 c=7 v=70
44294 Par ch=5 c=7 v=71
44305 Par ch=5 c=7 v=72
44316 Par ch=5 c=7 v=73
44327 Par ch=5 c=7 v=74
44338 Par ch=5 c=7 v=75
44350 Par ch=5 c=7 v=76
44361 Par ch=5 c=7 v=77
44372 Par ch=5 c=7 v=78
44383 Par ch=5 c=7 v=79
44394 Par ch=5 c=7 v=80
44406 Par ch=5 c=7 v=81
44417 Par ch=5 c=7 v=82
44428 Par ch=5 c=7 v=83
44439 Par ch=5 c=7 v=84
44450 Par ch=5 c=7 v=85
44462 Par ch=5 c=7 v=86
44473 Par ch=5 c=7 v=87
44484 Par ch=5 c=7 v=88
44495 Par ch=5 c=7 v=89
44506 Par ch=5 c=7 v=90
44518 Par ch=5 c=7 v=91
44529 Par ch=5 c=7 v=92
44540 Par ch=5 c=7 v=93
44551 Par ch=5 c=7 v=94
44562 Par ch=5 c=7 v=95
44574 Par ch=5 c=7 v=96
44585 Par ch=5 c=7 v=97
44596 Par ch=5 c=7 v=98
44607 Par ch=5 c=7 v=99
44618 Par ch=5 c=7 v=100
44629 Par ch=5 c=7 v=102
44820 Off ch=5 n=66 v=64
44835 On ch=5 n=66 v=52
44880 On ch=5 n=63 v=52
44905 Off ch=5 n=66 v=64
45085 Off ch=5 n=63 v=64
45120 Par ch=5 c=7 v=104
45120 On ch=5 n=66 v=52
45148 Par ch=5 c=7 v=102
45176 Par ch=5 c=7 v=100
45204 Par ch=5 c=7 v=99
45232 Par ch=5 c=7 v=97
45261 Par ch=5 c=7 v=95
45280 Off ch=5 n=66 v=64
45280 On ch=5 n=63 v=52
45289 Par ch=5 c=7 v=94
45317 Par ch=5 c=7 v=92
45345 Par ch=5 c=7 v=90
45374 Par ch=5 c=7 v=89
45402 Par ch=5 c=7 v=87
45430 Par ch=5 c=7 v=85
45440 Off ch=5 n=63 v=64
45440 On ch=5 n=75 v=52
45458 Par ch=5 c=7 v=84
45487 Par ch=5 c=7 v=82
45495 Par ch=5 c=7 v=82
45523 Par ch=5 c=7 v=75
45552 Par ch=5 c=7 v=69
45555 Off ch=5 n=75 v=64
45565 On ch=5 n=75 v=52
45581 Par ch=5 c=7 v=62
45600 On ch=5 n=66 v=52
45609 Par ch=5 c=7 v=56
45616 Par ch=5 c=7 v=58
45625 Off ch=5 n=75 v=64
45627 Par ch=5 c=7 v=59
45638 Par ch=5 c=7 v=60
45649 Par ch=5 c=7 v=61
45661 Par ch=5 c=7 v=63
45672 Par ch=5 c=7 v=63
45683 Par ch=5 c=7 v=64
45694 Par ch=5 c=7 v=65
45705 Par ch=5 c=7 v=66
45717 Par ch=5 c=7 v=68
45728 Par ch=5 c=7 v=68
45739 Par ch=5 c=7 v=69
45750 Par ch=5 c=7 v=70
45761 Par ch=5 c=7 v=71
45772 Par ch=5 c=7 v=72
45784 Par ch=5 c=7 v=73
45795 Par ch=5 c=7 v=74
45806 Par ch=5 c=7 v=75
45817 Par ch=5 c=7 v=76
45828 Par ch=5 c=7 v=77
45840 Par ch=5 c=7 v=78
45851 Par ch=5 c=7 v=79
45862 Par ch=5 c=7 v=80
45873 Par ch=5 c=7 v=81
45884 Par ch=5 c=7 v=82
45896 Par ch=5 c=7 v=84
45907 Par ch=5 c=7 v=84
45918 Par ch=5 c=7 v=85
45929 Par ch=5 c=7 v=86
45940 Par ch=5 c=7 v=87
45951 Par ch=5 c=7 v=88
45963 Par ch=5 c=7 v=89
45974 Par ch=5 c=7 v=90
45985 Par ch=5 c=7 v=91
45996 Par ch=5 c=7 v=92
46007 Par ch=5 c=7 v=93
46019 Par ch=5 c=7 v=94
46030 Par ch=5 c=7 v=95
46041 Par ch=5 c=7 v=96
46052 Par ch=5 c=7 v=97
46063 Par ch=5 c=7 v=98
46074 Par ch=5 c=7 v=100
46240 On ch=5 n=63 v=52
46250 Off ch=5 n=66 v=64
46400 Off ch=5 n=63 v=64
46400 On ch=5 n=75 v=52
46505 Off ch=5 n=75 v=64
46525 On ch=5 n=75 v=52
46555 Par ch=5 c=7 v=100
46560 On ch=5 n=66 v=52
46560 Par ch=5 c=7 v=100
46585 Off ch=5 n=75 v=64
46720 Off ch=5 n=66 v=64
46720 On ch=5 n=63 v=52
46720 Par ch=5 c=7 v=99
46880 Off ch=5 n=63 v=64
46880 On ch=5 n=75 v=52
46880 Par ch=5 c=7 v=98
47020 Off ch=5 n=75 v=64
47040 On ch=5 n=65 v=65
47040 Par ch=5 c=7 v=97
47200 Par ch=5 c=7 v=96
47280 Off ch=5 n=65 v=64
47280 On ch=5 n=70 v=58
47360 Par ch=5 c=7 v=95
47455 On ch=5 n=65 v=51
47475 Off ch=5 n=70 v=64
47490 On ch=5 n=70 v=51
47505 Off ch=5 n=65 v=64
47519 Par ch=5 c=7 v=94
47520 On ch=5 n=67 v=51
47550 Off ch=5 n=70 v=64
47569 Par ch=5 c=7 v=96
47950 Off ch=5 n=67 v=64
48000 On ch=5 n=66 v=52
48160 Off ch=5 n=66 v=64
48160 On ch=5 n=63 v=52
48320 Off ch=5 n=63 v=64
48320 On ch=5 n=75 v=52
48425 Off ch=5 n=75 v=64
48445 On ch=5 n=75 v=52
48475 Par ch=5 c=7 v=96
48480 On ch=5 n=66 v=52
48494 Par ch=5 c=7 v=95
48505 Off ch=5 n=75 v=64
48514 Par ch=5 c=7 v=94
48534 Par ch=5 c=7 v=93
48554 Par ch=5 c=7 v=92
48574 Par ch=5 c=7 v=91
48593 Par ch=5 c=7 v=90
48613 Par ch=5 c=7 v=89
48633 Par ch=5 c=7 v=88
48640 Off ch=5 n=66 v=64
48640 On ch=5 n=63 v=52
48653 Par ch=5 c=7 v=87
48673 Par ch=5 c=7 v=86
48692 Par ch=5 c=7 v=85
48712 Par ch=5 c=7 v=84
48732 Par ch=5 c=7 v=83
48752 Par ch=5 c=7 v=82
48772 Par ch=5 c=7 v=81
48791 Par ch=5 c=7 v=80
48800 Off ch=5 n=63 v=64
48800 On ch=5 n=75 v=52
48811 Par ch=5 c=7 v=79
48831 Par ch=5 c=7 v=78
48851 Par ch=5 c=7 v=77
48871 Par ch=5 c=7 v=76
48890 Par ch=5 c=7 v=75
48910 Par ch=5 c=7 v=74
48930 Par ch=5 c=7 v=73
48940 Off ch=5 n=75 v=64
48950 Par ch=5 c=7 v=72
48960 On ch=5 n=65 v=65
48970 Par ch=5 c=7 v=71
48989 Par ch=5 c=7 v=70
49200 Off ch=5 n=65 v=64
49200 On ch=5 n=70 v=58
49375 On ch=5 n=65 v=51
49395 Off ch=5 n=70 v=64
49410 On ch=5 n=70 v=51
49425 Off ch=5 n=65 v=64
49440 On ch=5 n=67 v=51
49470 Off ch=5 n=70 v=64
49870 Off ch=5 n=67 v=64
49920 On ch=5 n=65 v=65
50160 Off ch=5 n=65 v=64
50160 On ch=5 n=70 v=58
50335 On ch=5 n=65 v=51
50355 Off ch=5 n=70 v=64
50370 On ch=5 n=70 v=51
50385 Off ch=5 n=65 v=64
50400 On ch=5 n=67 v=51
50430 Off ch=5 n=70 v=64
50830 Off ch=5 n=67 v=64
56640 On ch=5 n=77 v=70
56765 Off ch=5 n=77 v=64
56880 On ch=5 n=72 v=58
57180 Off ch=5 n=72 v=64
57216 On ch=5 n=65 v=58
57287 Off ch=5 n=65 v=64
57312 On ch=5 n=70 v=58
57383 Off ch=5 n=70 v=64
57408 On ch=5 n=75 v=58
57479 Off ch=5 n=75 v=64
57504 On ch=5 n=77 v=58
57575 Off ch=5 n=77 v=64
57600 On ch=5 n=72 v=58
58160 On ch=5 n=65 v=58
58170 Off ch=5 n=72 v=64
58240 Off ch=5 n=65 v=64
58240 On ch=5 n=70 v=57
58320 Off ch=5 n=70 v=64
58320 On ch=5 n=75 v=56
58400 Off ch=5 n=75 v=64
58400 On ch=5 n=77 v=55
58480 Off ch=5 n=77 v=64
58480 On ch=5 n=72 v=54
58560 Off ch=5 n=72 v=64
58560 On ch=5 n=77 v=67
58840 On ch=5 n=75 v=54
58865 Off ch=5 n=77 v=64
58880 On ch=5 n=77 v=52
58895 Off ch=5 n=75 v=64
58920 On ch=5 n=75 v=50
58935 Off ch=5 n=77 v=64
58960 On ch=5 n=77 v=48
58975 Off ch=5 n=75 v=64
59000 On ch=5 n=75 v=46
59015 Off ch=5 n=77 v=64
59040 On ch=5 n=77 v=56
59055 Off ch=5 n=75 v=64
59520 Off ch=5 n=77 v=64
59520 On ch=5 n=77 v=65
59800 On ch=5 n=75 v=53
59815 Off ch=5 n=77 v=64
59840 On ch=5 n=77 v=52
59860 Off ch=5 n=75 v=64
59880 On ch=5 n=75 v=52
59900 Off ch=5 n=77 v=64
59920 On ch=5 n=77 v=51
59940 Off ch=5 n=75 v=64
59960 On ch=5 n=75 v=50
59980 Off ch=5 n=77 v=64
60000 On ch=5 n=77 v=68
60020 Off ch=5 n=75 v=64
60125 Off ch=5 n=77 v=64
60240 On ch=5 n=72 v=58
60545 Off ch=5 n=72 v=64
60576 On ch=5 n=65 v=58
60657 Off ch=5 n=65 v=64
60672 On ch=5 n=70 v=58
60753 Off ch=5 n=70 v=64
60768 On ch=5 n=75 v=58
60849 Off ch=5 n=75 v=64
60864 On ch=5 n=77 v=58
60945 Off ch=5 n=77 v=64
60960 On ch=5 n=72 v=58
61041 Off ch=5 n=72 v=64
61056 On ch=5 n=65 v=58
61137 Off ch=5 n=65 v=64
61152 On ch=5 n=70 v=58
61233 Off ch=5 n=70 v=64
61248 On ch=5 n=75 v=58
61329 Off ch=5 n=75 v=64
61344 On ch=5 n=77 v=58
61425 Off ch=5 n=77 v=64
61440 On ch=5 n=72 v=57
61520 Off ch=5 n=72 v=64
61520 On ch=5 n=65 v=55
61600 Off ch=5 n=65 v=64
61600 On ch=5 n=70 v=54
61680 Off ch=5 n=70 v=64
61680 On ch=5 n=75 v=52
61760 Off ch=5 n=75 v=64
61760 On ch=5 n=77 v=50
61840 Off ch=5 n=77 v=64
61840 On ch=5 n=72 v=48
61920 Off ch=5 n=72 v=64
61920 On ch=5 n=77 v=65
62200 On ch=5 n=75 v=49
62220 Off ch=5 n=77 v=64
62240 On ch=5 n=77 v=49
62260 Off ch=5 n=75 v=64
62280 On ch=5 n=75 v=48
62300 Off ch=5 n=77 v=64
62320 On ch=5 n=77 v=48
62340 Off ch=5 n=75 v=64
62360 On ch=5 n=75 v=47
62380 Off ch=5 n=77 v=64
62400 On ch=5 n=77 v=53
62420 Off ch=5 n=75 v=64
62430 On ch=5 n=79 v=53
62450 Off ch=5 n=77 v=64
62460 On ch=5 n=77 v=52
62480 Off ch=5 n=79 v=64
62490 On ch=5 n=79 v=51
62510 Off ch=5 n=77 v=64
62520 On ch=5 n=77 v=50
62540 Off ch=5 n=79 v=64
62550 On ch=5 n=79 v=50
62570 Off ch=5 n=77 v=64
62580 On ch=5 n=77 v=49
62600 Off ch=5 n=79 v=64
62610 On ch=5 n=79 v=48
62630 Off ch=5 n=77 v=64
62640 On ch=5 n=77 v=48
62660 Off ch=5 n=79 v=64
62670 On ch=5 n=79 v=47
62690 Off ch=5 n=77 v=64
62700 On ch=5 n=77 v=46
62720 Off ch=5 n=79 v=64
62730 On ch=5 n=79 v=45
62750 Off ch=5 n=77 v=64
62760 On ch=5 n=77 v=45
62780 Off ch=5 n=79 v=64
62790 On ch=5 n=79 v=44
62810 Off ch=5 n=77 v=64
62840 Off ch=5 n=79 v=64
63840 On ch=5 n=65 v=60
64080 Off ch=5 n=65 v=64
64080 On ch=5 n=70 v=54
64230 On ch=5 n=65 v=62
64278 Off ch=5 n=70 v=64
64290 On ch=5 n=70 v=62
64320 On ch=5 n=67 v=60
64326 Off ch=5 n=65 v=64
64386 Off ch=5 n=70 v=64
64692 Off ch=5 n=67 v=64
64800 On ch=5 n=65 v=60
65040 Off ch=5 n=65 v=64
65040 On ch=5 n=70 v=54
65190 On ch=5 n=65 v=62
65226 Off ch=5 n=70 v=64
65250 On ch=5 n=70 v=62
65280 On ch=5 n=67 v=60
65286 Off ch=5 n=65 v=64
65346 Off ch=5 n=70 v=64
65430 On ch=5 n=65 v=62
65460 Off ch=5 n=67 v=64
65490 On ch=5 n=70 v=62
65520 On ch=5 n=67 v=60
65526 Off ch=5 n=65 v=64
65586 Off ch=5 n=70 v=64
65712 Off ch=5 n=67 v=64
65760 On ch=5 n=72 v=65
65840 Off ch=5 n=72 v=64
65840 On ch=5 n=70 v=63
65920 Off ch=5 n=70 v=64
65920 On ch=5 n=67 v=61
65964 On ch=5 n=72 v=60
66000 Off ch=5 n=67 v=64
66000 On ch=5 n=70 v=58
66044 Off ch=5 n=72 v=64
66080 Off ch=5 n=70 v=64
66080 On ch=5 n=68 v=56
66160 Off ch=5 n=68 v=64
66160 On ch=5 n=65 v=54
66240 Off ch=5 n=65 v=64
66240 On ch=5 n=67 v=60
66378 Off ch=5 n=67 v=64
66432 On ch=5 n=72 v=60
66480 On ch=5 n=70 v=58
66512 Off ch=5 n=72 v=64
66560 Off ch=5 n=70 v=64
66560 On ch=5 n=68 v=55
66640 Off ch=5 n=68 v=64
66640 On ch=5 n=65 v=52
66720 Off ch=5 n=65 v=64
66720 On ch=5 n=67 v=60
67302 Off ch=5 n=67 v=64
67350 On ch=5 n=65 v=62
67410 On ch=5 n=70 v=62
67440 On ch=5 n=67 v=60
67446 Off ch=5 n=65 v=64
67506 Off ch=5 n=70 v=64
67614 Off ch=5 n=67 v=64
67680 On ch=5 n=70 v=63
67760 Off ch=5 n=70 v=64
67760 On ch=5 n=68 v=59
67840 Off ch=5 n=68 v=64
67840 On ch=5 n=65 v=55
67920 Off ch=5 n=65 v=64
67920 On ch=5 n=67 v=50
68358 Off ch=5 n=67 v=64
68400 On ch=5 n=70 v=63
68480 Off ch=5 n=70 v=64
68480 On ch=5 n=68 v=59
68560 Off ch=5 n=68 v=64
68560 On ch=5 n=65 v=55
68640 Off ch=5 n=65 v=64
68640 On ch=5 n=67 v=50
68856 Off ch=5 n=67 v=64
68880 On ch=5 n=72 v=61
68960 Off ch=5 n=72 v=64
68960 On ch=5 n=70 v=59
69040 Off ch=5 n=70 v=64
69040 On ch=5 n=67 v=57
69120 Off ch=5 n=67 v=64
69120 On ch=5 n=70 v=56
69200 Off ch=5 n=70 v=64
69200 On ch=5 n=68 v=54
69280 Off ch=5 n=68 v=64
69280 On ch=5 n=65 v=52
69360 Off ch=5 n=65 v=64
69360 On ch=5 n=67 v=50
69546 Off ch=5 n=67 v=64
69600 On ch=5 n=70 v=67
69680 Off ch=5 n=70 v=64
69680 On ch=5 n=68 v=65
69760 Off ch=5 n=68 v=64
69760 On ch=5 n=65 v=64
69840 Off ch=5 n=65 v=64
69840 On ch=5 n=72 v=62
69920 Off ch=5 n=72 v=64
69920 On ch=5 n=70 v=60
70000 Off ch=5 n=70 v=64
70000 On ch=5 n=67 v=59
70080 Off ch=5 n=67 v=64
70080 On ch=5 n=70 v=57
70160 Off ch=5 n=70 v=64
70160 On ch=5 n=68 v=55
70240 Off ch=5 n=68 v=64
70240 On ch=5 n=65 v=54
70320 Off ch=5 n=65 v=64
70320 On ch=5 n=67 v=52
70710 Off ch=5 n=67 v=64
70800 On ch=5 n=70 v=59
70880 Off ch=5 n=70 v=64
70880 On ch=5 n=68 v=56
70960 Off ch=5 n=68 v=64
70960 On ch=5 n=65 v=53
71040 Off ch=5 n=65 v=64
71040 On ch=5 n=67 v=50
71172 Off ch=5 n=67 v=64
71190 On ch=5 n=65 v=62
71250 On ch=5 n=70 v=62
71280 On ch=5 n=67 v=60
71286 Off ch=5 n=65 v=64
71346 Off ch=5 n=70 v=64
71664 Off ch=5 n=67 v=64
71670 On ch=5 n=65 v=62
71730 On ch=5 n=70 v=62
71760 On ch=5 n=67 v=60
71766 Off ch=5 n=65 v=64
71826 Off ch=5 n=70 v=64
71940 Off ch=5 n=67 v=64
72000 On ch=5 n=70 v=60
72080 Off ch=5 n=70 v=64
72080 On ch=5 n=68 v=60
72160 Off ch=5 n=68 v=64
72160 On ch=5 n=65 v=60
72240 Off ch=5 n=65 v=64
72240 On ch=5 n=67 v=60
72630 On ch=5 n=65 v=62
72636 Off ch=5 n=67 v=64
72690 On ch=5 n=70 v=62
72720 On ch=5 n=67 v=60
72726 Off ch=5 n=65 v=64
72786 Off ch=5 n=70 v=64
72900 Off ch=5 n=67 v=64
72960 On ch=5 n=72 v=67
73040 Off ch=5 n=72 v=64
73040 On ch=5 n=70 v=64
73120 Off ch=5 n=70 v=64
73120 On ch=5 n=67 v=61
73200 Off ch=5 n=67 v=64
73200 On ch=5 n=70 v=58
73280 Off ch=5 n=70 v=64
73280 On ch=5 n=68 v=55
73360 Off ch=5 n=68 v=64
73360 On ch=5 n=65 v=52
73440 Off ch=5 n=65 v=64
91680 Par ch=5 c=0 v=0
91680 Par ch=5 c=32 v=1
91680 PrCh ch=5 p=68
94560 On ch=5 n=61 v=58
94646 Off ch=5 n=61 v=64
94800 On ch=5 n=58 v=58
94886 Off ch=5 n=58 v=64
95040 On ch=5 n=63 v=58
95126 Off ch=5 n=63 v=64
95280 On ch=5 n=58 v=58
95366 Off ch=5 n=58 v=64
95520 On ch=5 n=61 v=58
95606 Off ch=5 n=61 v=64
95760 On ch=5 n=58 v=58
95846 Off ch=5 n=58 v=64
96000 On ch=5 n=63 v=58
96086 Off ch=5 n=63 v=64
96240 On ch=5 n=58 v=58
96326 Off ch=5 n=58 v=64
96480 On ch=5 n=61 v=58
96566 Off ch=5 n=61 v=64
96720 On ch=5 n=58 v=58
96806 Off ch=5 n=58 v=64
96960 On ch=5 n=63 v=58
97046 Off ch=5 n=63 v=64
97200 On ch=5 n=58 v=58
97286 Off ch=5 n=58 v=64
97440 On ch=5 n=61 v=58
97526 Off ch=5 n=61 v=64
97680 On ch=5 n=58 v=58
97766 Off ch=5 n=58 v=64
97920 On ch=5 n=63 v=58
98006 Off ch=5 n=63 v=64
98160 On ch=5 n=58 v=58
98246 Off ch=5 n=58 v=64
102240 On ch=5 n=61 v=68
102326 Off ch=5 n=61 v=64
102480 On ch=5 n=58 v=68
102566 Off ch=5 n=58 v=64
102720 On ch=5 n=63 v=68
102806 Off ch=5 n=63 v=64
102960 On ch=5 n=58 v=68
103046 Off ch=5 n=58 v=64
103200 On ch=5 n=61 v=68
103200 On ch=5 n=70 v=96
103200 On ch=5 n=82 v=96
103270 Off ch=5 n=70 v=64
103270 Off ch=5 n=82 v=64
103286 Off ch=5 n=61 v=64
103360 On ch=5 n=82 v=96
103360 On ch=5 n=70 v=96
103430 Off ch=5 n=82 v=64
103430 Off ch=5 n=70 v=64
103440 On ch=5 n=58 v=68
103520 On ch=5 n=82 v=96
103520 On ch=5 n=70 v=96
103526 Off ch=5 n=58 v=64
103590 Off ch=5 n=82 v=64
103590 Off ch=5 n=70 v=64
103680 On ch=5 n=63 v=68
103680 On ch=5 n=70 v=96
103680 On ch=5 n=82 v=96
103766 Off ch=5 n=63 v=64
103920 On ch=5 n=58 v=68
104006 Off ch=5 n=58 v=64
104160 On ch=5 n=61 v=68
104245 Off ch=5 n=70 v=64
104245 Off ch=5 n=82 v=64
104246 Off ch=5 n=61 v=64
104400 On ch=5 n=58 v=68
104486 Off ch=5 n=58 v=64
104640 On ch=5 n=63 v=68
104726 Off ch=5 n=63 v=64
104880 On ch=5 n=58 v=68
104966 Off ch=5 n=58 v=64
105120 On ch=5 n=61 v=68
105120 On ch=5 n=70 v=102
105120 On ch=5 n=82 v=102
105206 Off ch=5 n=61 v=64
105213 Off ch=5 n=70 v=64
105213 Off ch=5 n=82 v=64
105360 On ch=5 n=58 v=68
105360 On ch=5 n=69 v=102
105360 On ch=5 n=81 v=102
105446 Off ch=5 n=58 v=64
105453 Off ch=5 n=69 v=64
105453 Off ch=5 n=81 v=64
105600 On ch=5 n=63 v=68
105600 On ch=5 n=80 v=94
105600 On ch=5 n=68 v=94
105686 Off ch=5 n=63 v=64
105690 Off ch=5 n=80 v=64
105690 Off ch=5 n=68 v=64
105760 On ch=5 n=79 v=94
105760 On ch=5 n=67 v=94
105840 On ch=5 n=58 v=68
105850 Off ch=5 n=79 v=64
105850 Off ch=5 n=67 v=64
105920 On ch=5 n=78 v=94
105920 On ch=5 n=66 v=94
105926 Off ch=5 n=58 v=64
106010 Off ch=5 n=78 v=64
106010 Off ch=5 n=66 v=64
106080 On ch=5 n=61 v=68
106166 Off ch=5 n=61 v=64
106320 On ch=5 n=58 v=68
106406 Off ch=5 n=58 v=64
106560 On ch=5 n=63 v=68
106646 Off ch=5 n=63 v=64
106800 On ch=5 n=58 v=68
106886 Off ch=5 n=58 v=64
107040 On ch=5 n=61 v=68
107126 Off ch=5 n=61 v=64
107280 On ch=5 n=58 v=68
107366 Off ch=5 n=58 v=64
107520 On ch=5 n=63 v=68
107606 Off ch=5 n=63 v=64
107760 On ch=5 n=58 v=68
107846 Off ch=5 n=58 v=64
108000 On ch=5 n=61 v=58
108086 Off ch=5 n=61 v=64
108240 On ch=5 n=58 v=58
108326 Off ch=5 n=58 v=64
108480 On ch=5 n=63 v=58
108566 Off ch=5 n=63 v=64
108720 On ch=5 n=58 v=58
108806 Off ch=5 n=58 v=64
108960 On ch=5 n=61 v=58
109046 Off ch=5 n=61 v=64
109200 On ch=5 n=58 v=58
109286 Off ch=5 n=58 v=64
109440 On ch=5 n=63 v=58
109526 Off ch=5 n=63 v=64
109680 On ch=5 n=58 v=58
109766 Off ch=5 n=58 v=64
109920 On ch=5 n=61 v=58
110006 Off ch=5 n=61 v=64
110160 On ch=5 n=58 v=58
110246 Off ch=5 n=58 v=64
110400 On ch=5 n=63 v=58
110400 On ch=5 n=60 v=60
110400 On ch=5 n=72 v=60
110486 Off ch=5 n=63 v=64
110640 On ch=5 n=58 v=58
110726 Off ch=5 n=58 v=64
110880 On ch=5 n=61 v=58
110966 Off ch=5 n=61 v=64
111120 On ch=5 n=58 v=58
111206 Off ch=5 n=58 v=64
111312 Off ch=5 n=60 v=64
111312 Off ch=5 n=72 v=64
111360 On ch=5 n=63 v=58
111360 On ch=5 n=72 v=60
111360 On ch=5 n=60 v=60
111446 Off ch=5 n=63 v=64
111600 On ch=5 n=58 v=58
111686 Off ch=5 n=58 v=64
111840 On ch=5 n=61 v=58
111926 Off ch=5 n=61 v=64
112080 On ch=5 n=58 v=58
112166 Off ch=5 n=58 v=64
112272 Off ch=5 n=72 v=64
112272 Off ch=5 n=60 v=64
112320 On ch=5 n=63 v=58
112320 On ch=5 n=60 v=60
112320 On ch=5 n=72 v=60
112406 Off ch=5 n=63 v=64
112560 On ch=5 n=58 v=58
112646 Off ch=5 n=58 v=64
112800 On ch=5 n=61 v=58
112886 Off ch=5 n=61 v=64
113040 On ch=5 n=58 v=58
113126 Off ch=5 n=58 v=64
113232 Off ch=5 n=60 v=64
113232 Off ch=5 n=72 v=64
113280 On ch=5 n=63 v=58
113280 On ch=5 n=60 v=60
113280 On ch=5 n=72 v=60
113366 Off ch=5 n=63 v=64
113520 On ch=5 n=58 v=58
113606 Off ch=5 n=58 v=64
113760 On ch=5 n=61 v=58
113846 Off ch=5 n=61 v=64
114000 On ch=5 n=58 v=58
114086 Off ch=5 n=58 v=64
114192 Off ch=5 n=60 v=64
114192 Off ch=5 n=72 v=64
114240 On ch=5 n=63 v=58
114240 On ch=5 n=60 v=60
114240 On ch=5 n=72 v=60
114326 Off ch=5 n=63 v=64
114480 On ch=5 n=58 v=58
114566 Off ch=5 n=58 v=64
114720 On ch=5 n=61 v=58
114806 Off ch=5 n=61 v=64
114960 On ch=5 n=58 v=58
115046 Off ch=5 n=58 v=64
115152 Off ch=5 n=60 v=64
115152 Off ch=5 n=72 v=64
115200 On ch=5 n=63 v=58
115200 On ch=5 n=60 v=60
115200 On ch=5 n=72 v=60
115286 Off ch=5 n=63 v=64
115440 On ch=5 n=58 v=58
115526 Off ch=5 n=58 v=64
115680 On ch=5 n=61 v=58
115766 Off ch=5 n=61 v=64
115920 On ch=5 n=58 v=58
116006 Off ch=5 n=58 v=64
116112 Off ch=5 n=60 v=64
116112 Off ch=5 n=72 v=64
116160 On ch=5 n=63 v=58
116160 On ch=5 n=72 v=60
116160 On ch=5 n=60 v=60
116246 Off ch=5 n=63 v=64
116400 On ch=5 n=58 v=58
116486 Off ch=5 n=58 v=64
116640 On ch=5 n=61 v=58
116726 Off ch=5 n=61 v=64
116880 On ch=5 n=58 v=58
116966 Off ch=5 n=58 v=64
117072 Off ch=5 n=72 v=64
117072 Off ch=5 n=60 v=64
117120 On ch=5 n=63 v=58
117120 On ch=5 n=60 v=60
117120 On ch=5 n=72 v=60
117206 Off ch=5 n=63 v=64
117360 On ch=5 n=58 v=58
117446 Off ch=5 n=58 v=64
117600 On ch=5 n=61 v=58
117686 Off ch=5 n=61 v=64
117840 On ch=5 n=58 v=58
117926 Off ch=5 n=58 v=64
118032 Off ch=5 n=60 v=64
118032 Off ch=5 n=72 v=64
118080 On ch=5 n=63 v=58
118080 On ch=5 n=60 v=60
118080 On ch=5 n=72 v=60
118166 Off ch=5 n=63 v=64
118320 On ch=5 n=58 v=58
118406 Off ch=5 n=58 v=64
118560 On ch=5 n=61 v=58
118646 Off ch=5 n=61 v=64
118800 On ch=5 n=58 v=58
118886 Off ch=5 n=58 v=64
118992 Off ch=5 n=60 v=64
118992 Off ch=5 n=72 v=64
119040 On ch=5 n=63 v=58
119040 On ch=5 n=60 v=60
119040 On ch=5 n=72 v=60
119126 Off ch=5 n=63 v=64
119280 On ch=5 n=58 v=58
119366 Off ch=5 n=58 v=64
119472 Off ch=5 n=60 v=64
119472 Off ch=5 n=72 v=64
145656 On ch=5 n=80 v=78
145680 On ch=5 n=82 v=78
145680 On ch=5 n=70 v=78
145716 Off ch=5 n=80 v=64
145764 Off ch=5 n=82 v=64
145764 Off ch=5 n=70 v=64
145896 On ch=5 n=68 v=78
145920 On ch=5 n=70 v=78
145920 On ch=5 n=82 v=78
145956 Off ch=5 n=68 v=64
146004 Off ch=5 n=70 v=64
146004 Off ch=5 n=82 v=64
146136 On ch=5 n=80 v=78
146160 On ch=5 n=82 v=78
146160 On ch=5 n=70 v=78
146196 Off ch=5 n=80 v=64
146244 Off ch=5 n=82 v=64
146244 Off ch=5 n=70 v=64
146376 On ch=5 n=68 v=78
146400 On ch=5 n=82 v=78
146400 On ch=5 n=70 v=78
146436 Off ch=5 n=68 v=64
146484 Off ch=5 n=82 v=64
146484 Off ch=5 n=70 v=64
146616 On ch=5 n=80 v=78
146640 On ch=5 n=82 v=78
146640 On ch=5 n=70 v=78
146676 Off ch=5 n=80 v=64
146724 Off ch=5 n=82 v=64
146724 Off ch=5 n=70 v=64
146856 On ch=5 n=68 v=78
146880 On ch=5 n=70 v=78
146880 On ch=5 n=82 v=78
146916 Off ch=5 n=68 v=64
146964 Off ch=5 n=70 v=64
146964 Off ch=5 n=82 v=64
147096 On ch=5 n=80 v=78
147120 On ch=5 n=82 v=78
147120 On ch=5 n=70 v=78
147156 Off ch=5 n=80 v=64
147204 Off ch=5 n=82 v=64
147204 Off ch=5 n=70 v=64
147336 On ch=5 n=68 v=78
147360 On ch=5 n=70 v=78
147360 On ch=5 n=82 v=78
147396 Off ch=5 n=68 v=64
147444 Off ch=5 n=70 v=64
147444 Off ch=5 n=82 v=64
147600 On ch=5 n=80 v=78
147600 On ch=5 n=68 v=78
147684 Off ch=5 n=80 v=64
147684 Off ch=5 n=68 v=64
147816 On ch=5 n=65 v=78
147840 On ch=5 n=79 v=78
147840 On ch=5 n=67 v=78
147876 Off ch=5 n=65 v=64
147924 Off ch=5 n=79 v=64
147924 Off ch=5 n=67 v=64
148080 On ch=5 n=65 v=78
148080 On ch=5 n=77 v=78
148164 Off ch=5 n=65 v=64
148164 Off ch=5 n=77 v=64
148296 On ch=5 n=65 v=78
148320 On ch=5 n=67 v=78
148320 On ch=5 n=79 v=78
148356 Off ch=5 n=65 v=64
148404 Off ch=5 n=67 v=64
148404 Off ch=5 n=79 v=64
149520 On ch=5 n=65 v=78
149520 On ch=5 n=77 v=78
149604 Off ch=5 n=65 v=64
149604 Off ch=5 n=77 v=64
149736 On ch=5 n=65 v=78
149760 On ch=5 n=67 v=78
149760 On ch=5 n=79 v=78
149796 Off ch=5 n=65 v=64
149844 Off ch=5 n=67 v=64
149844 Off ch=5 n=79 v=64
150000 On ch=5 n=80 v=78
150000 On ch=5 n=68 v=78
150084 Off ch=5 n=80 v=64
150084 Off ch=5 n=68 v=64
150216 On ch=5 n=68 v=78
150240 On ch=5 n=82 v=78
150240 On ch=5 n=70 v=78
150276 Off ch=5 n=68 v=64
150324 Off ch=5 n=82 v=64
150324 Off ch=5 n=70 v=64
150480 On ch=5 n=80 v=78
150480 On ch=5 n=68 v=78
150564 Off ch=5 n=80 v=64
150564 Off ch=5 n=68 v=64
150696 On ch=5 n=65 v=78
150720 On ch=5 n=79 v=78
150720 On ch=5 n=67 v=78
150756 Off ch=5 n=65 v=64
150804 Off ch=5 n=79 v=64
150804 Off ch=5 n=67 v=64
150960 On ch=5 n=65 v=78
150960 On ch=5 n=77 v=78
151044 Off ch=5 n=65 v=64
151044 Off ch=5 n=77 v=64
151176 On ch=5 n=65 v=78
151200 On ch=5 n=67 v=78
151200 On ch=5 n=79 v=78
151236 Off ch=5 n=65 v=64
151284 Off ch=5 n=67 v=64
151284 Off ch=5 n=79 v=64
151440 On ch=5 n=80 v=78
151440 On ch=5 n=68 v=78
151524 Off ch=5 n=80 v=64
151524 Off ch=5 n=68 v=64
151656 On ch=5 n=68 v=78
151680 On ch=5 n=70 v=78
151680 On ch=5 n=82 v=78
151716 Off ch=5 n=68 v=64
151764 Off ch=5 n=70 v=64
151764 Off ch=5 n=82 v=64
151920 On ch=5 n=80 v=78
151920 On ch=5 n=68 v=78
152004 Off ch=5 n=80 v=64
152004 Off ch=5 n=68 v=64
152136 On ch=5 n=65 v=78
152160 On ch=5 n=79 v=78
152160 On ch=5 n=67 v=78
152196 Off ch=5 n=65 v=64
152244 Off ch=5 n=79 v=64
152244 Off ch=5 n=67 v=64
152400 On ch=5 n=65 v=78
152400 On ch=5 n=77 v=78
152484 Off ch=5 n=65 v=64
152484 Off ch=5 n=77 v=64
152616 On ch=5 n=65 v=78
152640 On ch=5 n=67 v=78
152640 On ch=5 n=79 v=78
152676 Off ch=5 n=65 v=64
152724 Off ch=5 n=67 v=64
152724 Off ch=5 n=79 v=64
155520 On ch=5 n=87 v=86
155580 Off ch=5 n=87 v=64
155760 On ch=5 n=82 v=86
155820 Off ch=5 n=82 v=64
156000 On ch=5 n=73 v=68
156060 Off ch=5 n=73 v=64
156240 On ch=5 n=70 v=68
156300 Off ch=5 n=70 v=64
156480 On ch=5 n=63 v=54
156540 Off ch=5 n=63 v=64
156720 On ch=5 n=58 v=54
156780 Off ch=5 n=58 v=64
156960 On ch=5 n=61 v=54
157020 Off ch=5 n=61 v=64
157200 On ch=5 n=58 v=54
157260 Off ch=5 n=58 v=64
157440 On ch=5 n=63 v=54
157500 Off ch=5 n=63 v=64
157680 On ch=5 n=58 v=54
157740 Off ch=5 n=58 v=64
157920 On ch=5 n=61 v=54
157980 Off ch=5 n=61 v=64
158160 On ch=5 n=58 v=54
158220 Off ch=5 n=58 v=64
158400 On ch=5 n=63 v=54
158460 Off ch=5 n=63 v=64
158640 On ch=5 n=58 v=54
158700 Off ch=5 n=58 v=64
158880 On ch=5 n=61 v=54
158940 Off ch=5 n=61 v=64
159120 On ch=5 n=58 v=54
159180 Off ch=5 n=58 v=64
159360 On ch=5 n=63 v=54
159420 Off ch=5 n=63 v=64
159600 On ch=5 n=58 v=54
159660 Off ch=5 n=58 v=64
159840 On ch=5 n=61 v=54
159900 Off ch=5 n=61 v=64
160080 On ch=5 n=58 v=54
160140 Off ch=5 n=58 v=64
160320 On ch=5 n=63 v=54
160380 Off ch=5 n=63 v=64
160560 On ch=5 n=58 v=54
160620 Off ch=5 n=58 v=64
163680 On ch=5 n=61 v=54
163740 Off ch=5 n=61 v=64
163920 On ch=5 n=58 v=54
163980 Off ch=5 n=58 v=64
164160 On ch=5 n=63 v=54
164220 Off ch=5 n=63 v=64
164400 On ch=5 n=58 v=54
164460 Off ch=5 n=58 v=64
165600 On ch=5 n=61 v=54
165660 Off ch=5 n=61 v=64
165840 On ch=5 n=58 v=54
165900 Off ch=5 n=58 v=64
166080 On ch=5 n=63 v=54
166140 Off ch=5 n=63 v=64
166320 On ch=5 n=58 v=54
166380 Off ch=5 n=58 v=64
166560 On ch=5 n=61 v=54
166620 Off ch=5 n=61 v=64
166800 On ch=5 n=58 v=54
166860 Off ch=5 n=58 v=64
167040 On ch=5 n=63 v=54
167100 Off ch=5 n=63 v=64
167280 On ch=5 n=58 v=54
167340 Off ch=5 n=58 v=64
167520 On ch=5 n=61 v=54
167580 Off ch=5 n=61 v=64
167760 On ch=5 n=58 v=54
167820 Off ch=5 n=58 v=64
168000 On ch=5 n=63 v=54
168060 Off ch=5 n=63 v=64
168240 On ch=5 n=58 v=54
168300 Off ch=5 n=58 v=64
168480 On ch=5 n=61 v=54
168540 Off ch=5 n=61 v=64
168720 On ch=5 n=58 v=54
168780 Off ch=5 n=58 v=64
168960 On ch=5 n=63 v=54
169020 Off ch=5 n=63 v=64
169200 On ch=5 n=58 v=54
169260 Off ch=5 n=58 v=64
180960 On ch=5 n=88 v=58
180960 On ch=5 n=76 v=58
181034 Off ch=5 n=88 v=64
181034 Off ch=5 n=76 v=64
181120 On ch=5 n=88 v=58
181120 On ch=5 n=76 v=58
181194 Off ch=5 n=88 v=64
181194 Off ch=5 n=76 v=64
181280 On ch=5 n=76 v=58
181280 On ch=5 n=88 v=58
181354 Off ch=5 n=76 v=64
181354 Off ch=5 n=88 v=64
181440 On ch=5 n=88 v=58
181440 On ch=5 n=76 v=58
181985 Off ch=5 n=88 v=64
181985 Off ch=5 n=76 v=64
182135 On ch=5 n=87 v=68
182160 On ch=5 n=76 v=68
182205 Off ch=5 n=87 v=64
182310 Off ch=5 n=76 v=64
182375 On ch=5 n=78 v=58
182400 On ch=5 n=74 v=58
182435 Off ch=5 n=78 v=64
182535 Off ch=5 n=74 v=64
183840 On ch=5 n=88 v=58
183840 On ch=5 n=76 v=58
183914 Off ch=5 n=88 v=64
183914 Off ch=5 n=76 v=64
184000 On ch=5 n=88 v=58
184000 On ch=5 n=76 v=58
184074 Off ch=5 n=88 v=64
184074 Off ch=5 n=76 v=64
184160 On ch=5 n=76 v=58
184160 On ch=5 n=88 v=58
184234 Off ch=5 n=76 v=64
184234 Off ch=5 n=88 v=64
184535 On ch=5 n=87 v=68
184560 On ch=5 n=76 v=68
184605 Off ch=5 n=87 v=64
184710 Off ch=5 n=76 v=64
184775 On ch=5 n=78 v=58
184800 On ch=5 n=74 v=58
184835 Off ch=5 n=78 v=64
184935 Off ch=5 n=74 v=64
207840 On ch=5 n=82 v=62
207840 On ch=5 n=70 v=62
207900 Off ch=5 n=82 v=64
207900 Off ch=5 n=70 v=64
208080 On ch=5 n=72 v=62
208080 On ch=5 n=84 v=62
208140 Off ch=5 n=72 v=64
208140 Off ch=5 n=84 v=64
208320 On ch=5 n=70 v=62
208320 On ch=5 n=82 v=62
208380 Off ch=5 n=70 v=64
208380 Off ch=5 n=82 v=64
208560 On ch=5 n=75 v=62
208560 On ch=5 n=87 v=62
208620 Off ch=5 n=75 v=64
208620 Off ch=5 n=87 v=64
208800 On ch=5 n=85 v=62
208800 On ch=5 n=73 v=62
208800 On ch=5 n=60 v=70
208800 On ch=5 n=68 v=70
208818 On ch=5 n=66 v=70
208857 On ch=5 n=72 v=70
208860 Off ch=5 n=85 v=64
208860 Off ch=5 n=73 v=64
208893 Off ch=5 n=60 v=64
208893 Off ch=5 n=68 v=64
209040 On ch=5 n=72 v=62
209040 On ch=5 n=84 v=62
209100 Off ch=5 n=72 v=64
209100 Off ch=5 n=72 v=64
209100 Off ch=5 n=84 v=64
209280 On ch=5 n=72 v=62
209280 On ch=5 n=84 v=62
209337 Off ch=5 n=72 v=64
209340 Off ch=5 n=84 v=64
209520 On ch=5 n=80 v=62
209520 On ch=5 n=68 v=62
209580 Off ch=5 n=80 v=64
209580 Off ch=5 n=68 v=64
209733 Off ch=5 n=66 v=64
209760 On ch=5 n=70 v=62
209760 On ch=5 n=82 v=62
209760 On ch=5 n=60 v=70
209760 On ch=5 n=68 v=70
209778 On ch=5 n=66 v=70
209817 On ch=5 n=72 v=70
209820 Off ch=5 n=70 v=64
209820 Off ch=5 n=82 v=64
209853 Off ch=5 n=60 v=64
209853 Off ch=5 n=68 v=64
210000 On ch=5 n=72 v=62
210000 On ch=5 n=84 v=62
210060 Off ch=5 n=72 v=64
210060 Off ch=5 n=72 v=64
210060 Off ch=5 n=84 v=64
210240 On ch=5 n=82 v=62
210240 On ch=5 n=70 v=62
210300 Off ch=5 n=82 v=64
210300 Off ch=5 n=70 v=64
210480 On ch=5 n=75 v=62
210480 On ch=5 n=87 v=62
210540 Off ch=5 n=75 v=64
210540 Off ch=5 n=87 v=64
210693 Off ch=5 n=66 v=64
210720 On ch=5 n=85 v=62
210720 On ch=5 n=73 v=62
210720 On ch=5 n=60 v=70
210720 On ch=5 n=68 v=70
210738 On ch=5 n=66 v=70
210777 On ch=5 n=72 v=70
210780 Off ch=5 n=85 v=64
210780 Off ch=5 n=73 v=64
210813 Off ch=5 n=60 v=64
210813 Off ch=5 n=68 v=64
210960 On ch=5 n=72 v=62
210960 On ch=5 n=84 v=62
211020 Off ch=5 n=72 v=64
211020 Off ch=5 n=72 v=64
211020 Off ch=5 n=84 v=64
211200 On ch=5 n=72 v=62
211200 On ch=5 n=84 v=62
211257 Off ch=5 n=72 v=64
211260 Off ch=5 n=84 v=64
211440 On ch=5 n=80 v=62
211440 On ch=5 n=68 v=62
211500 Off ch=5 n=80 v=64
211500 Off ch=5 n=68 v=64
211653 Off ch=5 n=66 v=64
211680 On ch=5 n=82 v=62
211680 On ch=5 n=70 v=62
211680 On ch=5 n=60 v=70
211680 On ch=5 n=68 v=70
211698 On ch=5 n=66 v=70
211737 On ch=5 n=72 v=70
211740 Off ch=5 n=82 v=64
211740 Off ch=5 n=70 v=64
211773 Off ch=5 n=60 v=64
211773 Off ch=5 n=68 v=64
211920 On ch=5 n=75 v=62
211920 On ch=5 n=87 v=62
211980 Off ch=5 n=75 v=64
211980 Off ch=5 n=87 v=64
212160 On ch=5 n=85 v=62
212160 On ch=5 n=73 v=62
212217 Off ch=5 n=72 v=64
212220 Off ch=5 n=85 v=64
212220 Off ch=5 n=73 v=64
212400 On ch=5 n=72 v=62
212400 On ch=5 n=84 v=62
212460 Off ch=5 n=72 v=64
212460 Off ch=5 n=84 v=64
212613 Off ch=5 n=66 v=64
212640 On ch=5 n=82 v=62
212640 On ch=5 n=70 v=62
212640 On ch=5 n=60 v=70
212640 On ch=5 n=68 v=70
212658 On ch=5 n=66 v=70
212697 On ch=5 n=72 v=70
212700 Off ch=5 n=82 v=64
212700 Off ch=5 n=70 v=64
212733 Off ch=5 n=60 v=64
212733 Off ch=5 n=68 v=64
212880 On ch=5 n=75 v=62
212880 On ch=5 n=87 v=62
212940 Off ch=5 n=75 v=64
212940 Off ch=5 n=87 v=64
213120 On ch=5 n=80 v=62
213177 Off ch=5 n=72 v=64
213180 Off ch=5 n=80 v=64
213360 On ch=5 n=87 v=62
213360 On ch=5 n=75 v=62
213420 Off ch=5 n=87 v=64
213420 Off ch=5 n=75 v=64
213573 Off ch=5 n=66 v=64
213600 On ch=5 n=82 v=62
213600 On ch=5 n=70 v=62
213600 On ch=5 n=60 v=70
213600 On ch=5 n=68 v=70
213618 On ch=5 n=66 v=70
213657 On ch=5 n=72 v=70
213660 Off ch=5 n=82 v=64
213660 Off ch=5 n=70 v=64
213693 Off ch=5 n=60 v=64
213693 Off ch=5 n=68 v=64
213840 On ch=5 n=75 v=62
213840 On ch=5 n=87 v=62
213900 Off ch=5 n=75 v=64
213900 Off ch=5 n=87 v=64
214080 On ch=5 n=85 v=62
214080 On ch=5 n=73 v=62
214137 Off ch=5 n=72 v=64
214140 Off ch=5 n=85 v=64
214140 Off ch=5 n=73 v=64
214320 On ch=5 n=72 v=62
214320 On ch=5 n=84 v=62
214380 Off ch=5 n=72 v=64
214380 Off ch=5 n=84 v=64
214533 Off ch=5 n=66 v=64
222240 On ch=5 n=72 v=58
222240 On ch=5 n=60 v=58
222240 On ch=5 n=74 v=58
222240 On ch=5 n=62 v=58
222300 Off ch=5 n=72 v=64
222300 Off ch=5 n=60 v=64
222300 Off ch=5 n=74 v=64
222300 Off ch=5 n=62 v=64
222480 On ch=5 n=69 v=58
222480 On ch=5 n=57 v=58
222480 On ch=5 n=77 v=58
222480 On ch=5 n=65 v=58
222540 Off ch=5 n=69 v=64
222540 Off ch=5 n=57 v=64
222540 Off ch=5 n=77 v=64
222540 Off ch=5 n=65 v=64
222720 On ch=5 n=76 v=58
222720 On ch=5 n=64 v=58
222720 On ch=5 n=74 v=58
222720 On ch=5 n=62 v=58
222780 Off ch=5 n=76 v=64
222780 Off ch=5 n=64 v=64
222780 Off ch=5 n=74 v=64
222780 Off ch=5 n=62 v=64
222960 On ch=5 n=69 v=58
222960 On ch=5 n=57 v=58
222960 On ch=5 n=79 v=58
222960 On ch=5 n=67 v=58
223020 Off ch=5 n=69 v=64
223020 Off ch=5 n=57 v=64
223020 Off ch=5 n=79 v=64
223020 Off ch=5 n=67 v=64
223200 On ch=5 n=72 v=58
223200 On ch=5 n=60 v=58
223200 On ch=5 n=74 v=58
223200 On ch=5 n=62 v=58
223260 Off ch=5 n=72 v=64
223260 Off ch=5 n=60 v=64
223260 Off ch=5 n=74 v=64
223260 Off ch=5 n=62 v=64
223440 On ch=5 n=69 v=58
223440 On ch=5 n=57 v=58
223440 On ch=5 n=77 v=58
223440 On ch=5 n=65 v=58
223500 Off ch=5 n=69 v=64
223500 Off ch=5 n=57 v=64
223500 Off ch=5 n=77 v=64
223500 Off ch=5 n=65 v=64
223680 On ch=5 n=76 v=58
223680 On ch=5 n=64 v=58
223680 On ch=5 n=74 v=58
223680 On ch=5 n=62 v=58
223740 Off ch=5 n=76 v=64
223740 Off ch=5 n=64 v=64
223740 Off ch=5 n=74 v=64
223740 Off ch=5 n=62 v=64
223920 On ch=5 n=69 v=58
223920 On ch=5 n=57 v=58
223920 On ch=5 n=79 v=58
223920 On ch=5 n=67 v=58
223980 Off ch=5 n=69 v=64
223980 Off ch=5 n=57 v=64
223980 Off ch=5 n=79 v=64
223980 Off ch=5 n=67 v=64
224160 On ch=5 n=72 v=58
224160 On ch=5 n=60 v=58
224160 On ch=5 n=74 v=58
224160 On ch=5 n=62 v=58
224220 Off ch=5 n=72 v=64
224220 Off ch=5 n=60 v=64
224220 Off ch=5 n=74 v=64
224220 Off ch=5 n=62 v=64
224400 On ch=5 n=69 v=58
224400 On ch=5 n=57 v=58
224400 On ch=5 n=77 v=58
224400 On ch=5 n=65 v=58
224460 Off ch=5 n=69 v=64
224460 Off ch=5 n=57 v=64
224460 Off ch=5 n=77 v=64
224460 Off ch=5 n=65 v=64
224640 On ch=5 n=76 v=58
224640 On ch=5 n=64 v=58
224640 On ch=5 n=74 v=58
224640 On ch=5 n=62 v=58
224700 Off ch=5 n=76 v=64
224700 Off ch=5 n=64 v=64
224700 Off ch=5 n=74 v=64
224700 Off ch=5 n=62 v=64
224880 On ch=5 n=79 v=58
224880 On ch=5 n=67 v=58
224880 On ch=5 n=69 v=58
224880 On ch=5 n=57 v=58
224940 Off ch=5 n=79 v=64
224940 Off ch=5 n=67 v=64
224940 Off ch=5 n=69 v=64
224940 Off ch=5 n=57 v=64
225120 On ch=5 n=72 v=58
225120 On ch=5 n=60 v=58
225120 On ch=5 n=74 v=58
225120 On ch=5 n=62 v=58
225180 Off ch=5 n=72 v=64
225180 Off ch=5 n=60 v=64
225180 Off ch=5 n=74 v=64
225180 Off ch=5 n=62 v=64
225360 On ch=5 n=69 v=58
225360 On ch=5 n=57 v=58
225360 On ch=5 n=77 v=58
225360 On ch=5 n=65 v=58
225420 Off ch=5 n=69 v=64
225420 Off ch=5 n=57 v=64
225420 Off ch=5 n=77 v=64
225420 Off ch=5 n=65 v=64
225600 On ch=5 n=74 v=58
225600 On ch=5 n=62 v=58
225600 On ch=5 n=76 v=58
225600 On ch=5 n=64 v=58
225660 Off ch=5 n=74 v=64
225660 Off ch=5 n=62 v=64
225660 Off ch=5 n=76 v=64
225660 Off ch=5 n=64 v=64
225840 On ch=5 n=69 v=58
225840 On ch=5 n=57 v=58
225840 On ch=5 n=79 v=58
225840 On ch=5 n=67 v=58
225900 Off ch=5 n=69 v=64
225900 Off ch=5 n=57 v=64
225900 Off ch=5 n=79 v=64
225900 Off ch=5 n=67 v=64
226080 On ch=5 n=72 v=58
226080 On ch=5 n=60 v=58
226080 On ch=5 n=74 v=58
226080 On ch=5 n=62 v=58
226140 Off ch=5 n=72 v=64
226140 Off ch=5 n=60 v=64
226140 Off ch=5 n=74 v=64
226140 Off ch=5 n=62 v=64
226320 On ch=5 n=69 v=58
226320 On ch=5 n=57 v=58
226320 On ch=5 n=77 v=58
226320 On ch=5 n=65 v=58
226380 Off ch=5 n=69 v=64
226380 Off ch=5 n=57 v=64
226380 Off ch=5 n=77 v=64
226380 Off ch=5 n=65 v=64
226560 On ch=5 n=74 v=58
226560 On ch=5 n=62 v=58
226560 On ch=5 n=76 v=58
226560 On ch=5 n=64 v=58
226620 Off ch=5 n=74 v=64
226620 Off ch=5 n=62 v=64
226620 Off ch=5 n=76 v=64
226620 Off ch=5 n=64 v=64
226800 On ch=5 n=69 v=58
226800 On ch=5 n=57 v=58
226800 On ch=5 n=79 v=58
226800 On ch=5 n=67 v=58
226860 Off ch=5 n=69 v=64
226860 Off ch=5 n=57 v=64
226860 Off ch=5 n=79 v=64
226860 Off ch=5 n=67 v=64
227040 On ch=5 n=74 v=58
227040 On ch=5 n=62 v=58
227040 On ch=5 n=72 v=58
227040 On ch=5 n=60 v=58
227100 Off ch=5 n=74 v=64
227100 Off ch=5 n=62 v=64
227100 Off ch=5 n=72 v=64
227100 Off ch=5 n=60 v=64
227280 On ch=5 n=69 v=58
227280 On ch=5 n=57 v=58
227280 On ch=5 n=77 v=58
227280 On ch=5 n=65 v=58
227340 Off ch=5 n=69 v=64
227340 Off ch=5 n=57 v=64
227340 Off ch=5 n=77 v=64
227340 Off ch=5 n=65 v=64
227520 On ch=5 n=76 v=58
227520 On ch=5 n=64 v=58
227520 On ch=5 n=74 v=58
227520 On ch=5 n=62 v=58
227580 Off ch=5 n=76 v=64
227580 Off ch=5 n=64 v=64
227580 Off ch=5 n=74 v=64
227580 Off ch=5 n=62 v=64
227760 On ch=5 n=69 v=58
227760 On ch=5 n=57 v=58
227760 On ch=5 n=79 v=58
227760 On ch=5 n=67 v=58
227820 Off ch=5 n=69 v=64
227820 Off ch=5 n=57 v=64
227820 Off ch=5 n=79 v=64
227820 Off ch=5 n=67 v=64
228000 On ch=5 n=72 v=58
228000 On ch=5 n=60 v=58
228000 On ch=5 n=74 v=58
228000 On ch=5 n=62 v=58
228060 Off ch=5 n=72 v=64
228060 Off ch=5 n=60 v=64
228060 Off ch=5 n=74 v=64
228060 Off ch=5 n=62 v=64
228240 On ch=5 n=77 v=58
228240 On ch=5 n=65 v=58
228240 On ch=5 n=69 v=58
228240 On ch=5 n=57 v=58
228300 Off ch=5 n=77 v=64
228300 Off ch=5 n=65 v=64
228300 Off ch=5 n=69 v=64
228300 Off ch=5 n=57 v=64
228480 On ch=5 n=76 v=58
228480 On ch=5 n=64 v=58
228480 On ch=5 n=74 v=58
228480 On ch=5 n=62 v=58
228540 Off ch=5 n=76 v=64
228540 Off ch=5 n=64 v=64
228540 Off ch=5 n=74 v=64
228540 Off ch=5 n=62 v=64
228720 On ch=5 n=69 v=58
228720 On ch=5 n=57 v=58
228720 On ch=5 n=79 v=58
228720 On ch=5 n=67 v=58
228780 Off ch=5 n=69 v=64
228780 Off ch=5 n=57 v=64
228780 Off ch=5 n=79 v=64
228780 Off ch=5 n=67 v=64
228960 On ch=5 n=74 v=58
228960 On ch=5 n=62 v=58
228960 On ch=5 n=72 v=58
228960 On ch=5 n=60 v=58
229020 Off ch=5 n=74 v=64
229020 Off ch=5 n=62 v=64
229020 Off ch=5 n=72 v=64
229020 Off ch=5 n=60 v=64
229200 On ch=5 n=69 v=58
229200 On ch=5 n=57 v=58
229200 On ch=5 n=77 v=58
229200 On ch=5 n=65 v=58
229260 Off ch=5 n=69 v=64
229260 Off ch=5 n=57 v=64
229260 Off ch=5 n=77 v=64
229260 Off ch=5 n=65 v=64
229440 On ch=5 n=74 v=58
229440 On ch=5 n=62 v=58
229440 On ch=5 n=76 v=58
229440 On ch=5 n=64 v=58
229500 Off ch=5 n=74 v=64
229500 Off ch=5 n=62 v=64
229500 Off ch=5 n=76 v=64
229500 Off ch=5 n=64 v=64
229680 On ch=5 n=69 v=58
229680 On ch=5 n=57 v=58
229680 On ch=5 n=79 v=58
229680 On ch=5 n=67 v=58
229740 Off ch=5 n=69 v=64
229740 Off ch=5 n=57 v=64
229740 Off ch=5 n=79 v=64
229740 Off ch=5 n=67 v=64
229920 On ch=5 n=79 v=76
229920 On ch=5 n=75 v=76
229920 On ch=5 n=72 v=76
229920 On ch=5 n=69 v=76
229920 On ch=5 n=60 v=66
229989 Off ch=5 n=79 v=64
229989 Off ch=5 n=75 v=64
229989 Off ch=5 n=72 v=64
229989 Off ch=5 n=69 v=64
229989 Off ch=5 n=60 v=64
230160 On ch=5 n=57 v=66
230229 Off ch=5 n=57 v=64
230400 On ch=5 n=79 v=76
230400 On ch=5 n=69 v=76
230400 On ch=5 n=75 v=76
230400 On ch=5 n=72 v=76
230400 On ch=5 n=62 v=66
230469 Off ch=5 n=79 v=64
230469 Off ch=5 n=69 v=64
230469 Off ch=5 n=75 v=64
230469 Off ch=5 n=72 v=64
230469 Off ch=5 n=62 v=64
230640 On ch=5 n=57 v=66
230709 Off ch=5 n=57 v=64
230880 On ch=5 n=69 v=76
230880 On ch=5 n=79 v=76
230880 On ch=5 n=75 v=76
230880 On ch=5 n=72 v=76
230880 On ch=5 n=60 v=66
230949 Off ch=5 n=69 v=64
230949 Off ch=5 n=79 v=64
230949 Off ch=5 n=75 v=64
230949 Off ch=5 n=72 v=64
230949 Off ch=5 n=60 v=64
231120 On ch=5 n=57 v=66
231189 Off ch=5 n=57 v=64
231360 On ch=5 n=79 v=76
231360 On ch=5 n=69 v=76
231360 On ch=5 n=75 v=76
231360 On ch=5 n=72 v=76
231360 On ch=5 n=62 v=66
231429 Off ch=5 n=79 v=64
231429 Off ch=5 n=69 v=64
231429 Off ch=5 n=75 v=64
231429 Off ch=5 n=72 v=64
231429 Off ch=5 n=62 v=64
231600 On ch=5 n=57 v=66
231669 Off ch=5 n=57 v=64
231840 On ch=5 n=79 v=76
231840 On ch=5 n=75 v=76
231840 On ch=5 n=72 v=76
231840 On ch=5 n=69 v=76
231840 On ch=5 n=60 v=66
231909 Off ch=5 n=79 v=64
231909 Off ch=5 n=75 v=64
231909 Off ch=5 n=72 v=64
231909 Off ch=5 n=69 v=64
231909 Off ch=5 n=60 v=64
232080 On ch=5 n=57 v=66
232149 Off ch=5 n=57 v=64
232320 On ch=5 n=79 v=76
232320 On ch=5 n=69 v=76
232320 On ch=5 n=75 v=76
232320 On ch=5 n=72 v=76
232320 On ch=5 n=62 v=66
232389 Off ch=5 n=79 v=64
232389 Off ch=5 n=69 v=64
232389 Off ch=5 n=75 v=64
232389 Off ch=5 n=72 v=64
232389 Off ch=5 n=62 v=64
232560 On ch=5 n=57 v=66
232629 Off ch=5 n=57 v=64
232800 On ch=5 n=69 v=76
232800 On ch=5 n=79 v=76
232800 On ch=5 n=75 v=76
232800 On ch=5 n=72 v=76
232800 On ch=5 n=60 v=66
232869 Off ch=5 n=69 v=64
232869 Off ch=5 n=79 v=64
232869 Off ch=5 n=75 v=64
232869 Off ch=5 n=72 v=64
232869 Off ch=5 n=60 v=64
233040 On ch=5 n=57 v=66
233109 Off ch=5 n=57 v=64
233280 On ch=5 n=79 v=76
233280 On ch=5 n=69 v=76
233280 On ch=5 n=75 v=76
233280 On ch=5 n=72 v=76
233280 On ch=5 n=62 v=66
233349 Off ch=5 n=79 v=64
233349 Off ch=5 n=69 v=64
233349 Off ch=5 n=75 v=64
233349 Off ch=5 n=72 v=64
233349 Off ch=5 n=62 v=64
233520 On ch=5 n=57 v=66
233589 Off ch=5 n=57 v=64
233760 On ch=5 n=69 v=76
233760 On ch=5 n=79 v=76
233760 On ch=5 n=75 v=76
233760 On ch=5 n=72 v=76
233760 On ch=5 n=60 v=66
233829 Off ch=5 n=69 v=64
233829 Off ch=5 n=79 v=64
233829 Off ch=5 n=75 v=64
233829 Off ch=5 n=72 v=64
233829 Off ch=5 n=60 v=64
233880 On ch=5 n=69 v=76
233880 On ch=5 n=79 v=76
233880 On ch=5 n=75 v=76
233880 On ch=5 n=72 v=76
233949 Off ch=5 n=69 v=64
233949 Off ch=5 n=79 v=64
233949 Off ch=5 n=75 v=64
233949 Off ch=5 n=72 v=64
234000 On ch=5 n=57 v=66
234069 Off ch=5 n=57 v=64
234240 On ch=5 n=79 v=76
234240 On ch=5 n=69 v=76
234240 On ch=5 n=75 v=76
234240 On ch=5 n=72 v=76
234240 On ch=5 n=62 v=66
234309 Off ch=5 n=79 v=64
234309 Off ch=5 n=69 v=64
234309 Off ch=5 n=75 v=64
234309 Off ch=5 n=72 v=64
234309 Off ch=5 n=62 v=64
234360 On ch=5 n=79 v=76
234360 On ch=5 n=69 v=76
234360 On ch=5 n=75 v=76
234360 On ch=5 n=72 v=76
234429 Off ch=5 n=79 v=64
234429 Off ch=5 n=69 v=64
234429 Off ch=5 n=75 v=64
234429 Off ch=5 n=72 v=64
234480 On ch=5 n=57 v=66
234549 Off ch=5 n=57 v=64
234720 On ch=5 n=69 v=76
234720 On ch=5 n=79 v=76
234720 On ch=5 n=75 v=76
234720 On ch=5 n=72 v=76
234720 On ch=5 n=60 v=66
234789 Off ch=5 n=69 v=64
234789 Off ch=5 n=79 v=64
234789 Off ch=5 n=75 v=64
234789 Off ch=5 n=72 v=64
234789 Off ch=5 n=60 v=64
234840 On ch=5 n=69 v=76
234840 On ch=5 n=79 v=76
234840 On ch=5 n=75 v=76
234840 On ch=5 n=72 v=76
234909 Off ch=5 n=69 v=64
234909 Off ch=5 n=79 v=64
234909 Off ch=5 n=75 v=64
234909 Off ch=5 n=72 v=64
234960 On ch=5 n=57 v=66
235029 Off ch=5 n=57 v=64
235200 On ch=5 n=79 v=76
235200 On ch=5 n=69 v=76
235200 On ch=5 n=75 v=76
235200 On ch=5 n=72 v=76
235200 On ch=5 n=62 v=66
235269 Off ch=5 n=79 v=64
235269 Off ch=5 n=69 v=64
235269 Off ch=5 n=75 v=64
235269 Off ch=5 n=72 v=64
235269 Off ch=5 n=62 v=64
235320 On ch=5 n=79 v=76
235320 On ch=5 n=69 v=76
235320 On ch=5 n=75 v=76
235320 On ch=5 n=72 v=76
235389 Off ch=5 n=79 v=64
235389 Off ch=5 n=69 v=64
235389 Off ch=5 n=75 v=64
235389 Off ch=5 n=72 v=64
235440 On ch=5 n=57 v=66
235509 Off ch=5 n=57 v=64
235680 On ch=5 n=69 v=76
235680 On ch=5 n=79 v=76
235680 On ch=5 n=75 v=76
235680 On ch=5 n=72 v=76
235680 On ch=5 n=60 v=66
235749 Off ch=5 n=69 v=64
235749 Off ch=5 n=79 v=64
235749 Off ch=5 n=75 v=64
235749 Off ch=5 n=72 v=64
235749 Off ch=5 n=60 v=64
235800 On ch=5 n=69 v=76
235800 On ch=5 n=79 v=76
235800 On ch=5 n=75 v=76
235800 On ch=5 n=72 v=76
235869 Off ch=5 n=69 v=64
235869 Off ch=5 n=79 v=64
235869 Off ch=5 n=75 v=64
235869 Off ch=5 n=72 v=64
235920 On ch=5 n=57 v=66
235989 Off ch=5 n=57 v=64
236160 On ch=5 n=81 v=76
236160 On ch=5 n=71 v=76
236160 On ch=5 n=77 v=76
236160 On ch=5 n=74 v=76
236160 On ch=5 n=62 v=66
236229 Off ch=5 n=81 v=64
236229 Off ch=5 n=71 v=64
236229 Off ch=5 n=77 v=64
236229 Off ch=5 n=74 v=64
236229 Off ch=5 n=62 v=64
236280 On ch=5 n=81 v=76
236280 On ch=5 n=71 v=76
236280 On ch=5 n=77 v=76
236280 On ch=5 n=74 v=76
236349 Off ch=5 n=81 v=64
236349 Off ch=5 n=71 v=64
236349 Off ch=5 n=77 v=64
236349 Off ch=5 n=74 v=64
236400 On ch=5 n=57 v=66
236469 Off ch=5 n=57 v=64
236640 On ch=5 n=69 v=76
236640 On ch=5 n=79 v=76
236640 On ch=5 n=75 v=76
236640 On ch=5 n=72 v=76
236640 On ch=5 n=60 v=66
236709 Off ch=5 n=69 v=64
236709 Off ch=5 n=79 v=64
236709 Off ch=5 n=75 v=64
236709 Off ch=5 n=72 v=64
236709 Off ch=5 n=60 v=64
236760 On ch=5 n=69 v=76
236760 On ch=5 n=79 v=76
236760 On ch=5 n=75 v=76
236760 On ch=5 n=72 v=76
236829 Off ch=5 n=69 v=64
236829 Off ch=5 n=79 v=64
236829 Off ch=5 n=75 v=64
236829 Off ch=5 n=72 v=64
236880 On ch=5 n=57 v=66
236949 Off ch=5 n=57 v=64
237120 On ch=5 n=79 v=76
237120 On ch=5 n=71 v=76
237120 On ch=5 n=77 v=76
237120 On ch=5 n=74 v=76
237120 On ch=5 n=62 v=66
237189 Off ch=5 n=79 v=64
237189 Off ch=5 n=71 v=64
237189 Off ch=5 n=77 v=64
237189 Off ch=5 n=74 v=64
237189 Off ch=5 n=62 v=64
237240 On ch=5 n=79 v=76
237240 On ch=5 n=71 v=76
237240 On ch=5 n=77 v=76
237240 On ch=5 n=74 v=76
237309 Off ch=5 n=79 v=64
237309 Off ch=5 n=71 v=64
237309 Off ch=5 n=77 v=64
237309 Off ch=5 n=74 v=64
237360 On ch=5 n=57 v=66
237429 Off ch=5 n=57 v=64
237600 On ch=5 n=69 v=76
237600 On ch=5 n=79 v=76
237600 On ch=5 n=75 v=76
237600 On ch=5 n=72 v=76
237669 Off ch=5 n=69 v=64
237669 Off ch=5 n=79 v=64
237669 Off ch=5 n=75 v=64
237669 Off ch=5 n=72 v=64
237720 On ch=5 n=69 v=76
237720 On ch=5 n=79 v=76
237720 On ch=5 n=75 v=76
237720 On ch=5 n=72 v=76
237789 Off ch=5 n=69 v=64
237789 Off ch=5 n=79 v=64
237789 Off ch=5 n=75 v=64
237789 Off ch=5 n=72 v=64
238080 On ch=5 n=81 v=76
238080 On ch=5 n=71 v=76
238080 On ch=5 n=77 v=76
238080 On ch=5 n=74 v=76
238149 Off ch=5 n=81 v=64
238149 Off ch=5 n=71 v=64
238149 Off ch=5 n=77 v=64
238149 Off ch=5 n=74 v=64
238200 On ch=5 n=81 v=76
238200 On ch=5 n=71 v=76
238200 On ch=5 n=77 v=76
238200 On ch=5 n=74 v=76
238269 Off ch=5 n=81 v=64
238269 Off ch=5 n=71 v=64
238269 Off ch=5 n=77 v=64
238269 Off ch=5 n=74 v=64
238560 On ch=5 n=69 v=76
238560 On ch=5 n=79 v=76
238560 On ch=5 n=75 v=76
238560 On ch=5 n=72 v=76
238629 Off ch=5 n=69 v=64
238629 Off ch=5 n=79 v=64
238629 Off ch=5 n=75 v=64
238629 Off ch=5 n=72 v=64
238680 On ch=5 n=69 v=76
238680 On ch=5 n=79 v=76
238680 On ch=5 n=75 v=76
238680 On ch=5 n=72 v=76
238749 Off ch=5 n=69 v=64
238749 Off ch=5 n=79 v=64
238749 Off ch=5 n=75 v=64
238749 Off ch=5 n=72 v=64
239040 On ch=5 n=81 v=76
239040 On ch=5 n=71 v=76
239040 On ch=5 n=77 v=76
239040 On ch=5 n=74 v=76
239109 Off ch=5 n=81 v=64
239109 Off ch=5 n=71 v=64
239109 Off ch=5 n=77 v=64
239109 Off ch=5 n=74 v=64
239160 On ch=5 n=81 v=76
239160 On ch=5 n=71 v=76
239160 On ch=5 n=77 v=76
239160 On ch=5 n=74 v=76
239229 Off ch=5 n=81 v=64
239229 Off ch=5 n=71 v=64
239229 Off ch=5 n=77 v=64
239229 Off ch=5 n=74 v=64
239520 On ch=5 n=69 v=76
239520 On ch=5 n=79 v=76
239520 On ch=5 n=75 v=76
239520 On ch=5 n=72 v=76
239589 Off ch=5 n=69 v=64
239589 Off ch=5 n=79 v=64
239589 Off ch=5 n=75 v=64
239589 Off ch=5 n=72 v=64
239640 On ch=5 n=69 v=76
239640 On ch=5 n=79 v=76
239640 On ch=5 n=75 v=76
239640 On ch=5 n=72 v=76
239709 Off ch=5 n=69 v=64
239709 Off ch=5 n=79 v=64
239709 Off ch=5 n=75 v=64
239709 Off ch=5 n=72 v=64
240000 On ch=5 n=81 v=76
240000 On ch=5 n=71 v=76
240000 On ch=5 n=77 v=76
240000 On ch=5 n=74 v=76
240069 Off ch=5 n=81 v=64
240069 Off ch=5 n=71 v=64
240069 Off ch=5 n=77 v=64
240069 Off ch=5 n=74 v=64
240120 On ch=5 n=81 v=76
240120 On ch=5 n=71 v=76
240120 On ch=5 n=77 v=76
240120 On ch=5 n=74 v=76
240189 Off ch=5 n=81 v=64
240189 Off ch=5 n=71 v=64
240189 Off ch=5 n=77 v=64
240189 Off ch=5 n=74 v=64
240480 On ch=5 n=72 v=76
240480 On ch=5 n=83 v=76
240480 On ch=5 n=79 v=76
240480 On ch=5 n=75 v=76
240549 Off ch=5 n=72 v=64
240549 Off ch=5 n=83 v=64
240549 Off ch=5 n=79 v=64
240549 Off ch=5 n=75 v=64
240600 On ch=5 n=72 v=76
240600 On ch=5 n=83 v=76
240600 On ch=5 n=79 v=76
240600 On ch=5 n=75 v=76
240669 Off ch=5 n=72 v=64
240669 Off ch=5 n=83 v=64
240669 Off ch=5 n=79 v=64
240669 Off ch=5 n=75 v=64
240960 On ch=5 n=81 v=76
240960 On ch=5 n=71 v=76
240960 On ch=5 n=77 v=76
240960 On ch=5 n=74 v=76
241029 Off ch=5 n=81 v=64
241029 Off ch=5 n=71 v=64
241029 Off ch=5 n=77 v=64
241029 Off ch=5 n=74 v=64
241080 On ch=5 n=81 v=76
241080 On ch=5 n=71 v=76
241080 On ch=5 n=77 v=76
241080 On ch=5 n=74 v=76
241149 Off ch=5 n=81 v=64
241149 Off ch=5 n=71 v=64
241149 Off ch=5 n=77 v=64
241149 Off ch=5 n=74 v=64
241440 On ch=5 n=79 v=84
241440 On ch=5 n=72 v=84
241440 On ch=5 n=75 v=84
241470 Off ch=5 n=79 v=64
241470 Off ch=5 n=72 v=64
241470 Off ch=5 n=75 v=64
241560 On ch=5 n=75 v=84
241560 On ch=5 n=72 v=84
241560 On ch=5 n=79 v=84
241590 Off ch=5 n=75 v=64
241590 Off ch=5 n=72 v=64
241590 Off ch=5 n=79 v=64
241920 On ch=5 n=81 v=84
241920 On ch=5 n=77 v=84
241920 On ch=5 n=74 v=84
241950 Off ch=5 n=81 v=64
241950 Off ch=5 n=77 v=64
241950 Off ch=5 n=74 v=64
242040 On ch=5 n=77 v=84
242040 On ch=5 n=74 v=84
242040 On ch=5 n=81 v=84
242070 Off ch=5 n=77 v=64
242070 Off ch=5 n=74 v=64
242070 Off ch=5 n=81 v=64
242400 On ch=5 n=75 v=84
242400 On ch=5 n=83 v=84
242400 On ch=5 n=79 v=84
242430 Off ch=5 n=75 v=64
242430 Off ch=5 n=83 v=64
242430 Off ch=5 n=79 v=64
242520 On ch=5 n=75 v=84
242520 On ch=5 n=83 v=84
242520 On ch=5 n=79 v=84
242550 Off ch=5 n=75 v=64
242550 Off ch=5 n=83 v=64
242550 Off ch=5 n=79 v=64
242880 On ch=5 n=81 v=84
242880 On ch=5 n=74 v=84
242880 On ch=5 n=77 v=84
242910 Off ch=5 n=81 v=64
242910 Off ch=5 n=74 v=64
242910 Off ch=5 n=77 v=64
243000 On ch=5 n=77 v=84
243000 On ch=5 n=81 v=84
243000 On ch=5 n=74 v=84
243030 Off ch=5 n=77 v=64
243030 Off ch=5 n=81 v=64
243030 Off ch=5 n=74 v=64
243360 On ch=5 n=75 v=84
243360 On ch=5 n=72 v=84
243390 Off ch=5 n=75 v=64
243390 Off ch=5 n=72 v=64
243480 On ch=5 n=72 v=84
243480 On ch=5 n=75 v=84
243510 Off ch=5 n=72 v=64
243510 Off ch=5 n=75 v=64
243840 On ch=5 n=74 v=84
243840 On ch=5 n=77 v=84
243870 Off ch=5 n=74 v=64
243870 Off ch=5 n=77 v=64
243960 On ch=5 n=74 v=84
243960 On ch=5 n=77 v=84
243990 Off ch=5 n=74 v=64
243990 Off ch=5 n=77 v=64
244560 On ch=5 n=72 v=84
244560 On ch=5 n=79 v=84
244560 On ch=5 n=75 v=84
244642 Off ch=5 n=72 v=64
244642 Off ch=5 n=79 v=64
244642 Off ch=5 n=75 v=64
245040 On ch=5 n=79 v=84
245040 On ch=5 n=72 v=84
245040 On ch=5 n=75 v=84
245122 Off ch=5 n=79 v=64
245122 Off ch=5 n=72 v=64
245122 Off ch=5 n=75 v=64
245280 On ch=5 n=79 v=84
245280 On ch=5 n=72 v=84
245280 On ch=5 n=75 v=84
245310 Off ch=5 n=79 v=64
245310 Off ch=5 n=72 v=64
245310 Off ch=5 n=75 v=64
245400 On ch=5 n=75 v=84
245400 On ch=5 n=72 v=84
245400 On ch=5 n=79 v=84
245430 Off ch=5 n=75 v=64
245430 Off ch=5 n=72 v=64
245430 Off ch=5 n=79 v=64
245760 On ch=5 n=81 v=84
245760 On ch=5 n=77 v=84
245760 On ch=5 n=74 v=84
245790 Off ch=5 n=81 v=64
245790 Off ch=5 n=77 v=64
245790 Off ch=5 n=74 v=64
245880 On ch=5 n=77 v=84
245880 On ch=5 n=74 v=84
245880 On ch=5 n=81 v=84
245910 Off ch=5 n=77 v=64
245910 Off ch=5 n=74 v=64
245910 Off ch=5 n=81 v=64
246240 On ch=5 n=75 v=84
246240 On ch=5 n=83 v=84
246240 On ch=5 n=79 v=84
246270 Off ch=5 n=75 v=64
246270 Off ch=5 n=83 v=64
246270 Off ch=5 n=79 v=64
246360 On ch=5 n=75 v=84
246360 On ch=5 n=83 v=84
246360 On ch=5 n=79 v=84
246390 Off ch=5 n=75 v=64
246390 Off ch=5 n=83 v=64
246390 Off ch=5 n=79 v=64
246720 On ch=5 n=81 v=84
246720 On ch=5 n=74 v=84
246720 On ch=5 n=77 v=84
246750 Off ch=5 n=81 v=64
246750 Off ch=5 n=74 v=64
246750 Off ch=5 n=77 v=64
246840 On ch=5 n=77 v=84
246840 On ch=5 n=81 v=84
246840 On ch=5 n=74 v=84
246870 Off ch=5 n=77 v=64
246870 Off ch=5 n=81 v=64
246870 Off ch=5 n=74 v=64
247200 On ch=5 n=75 v=84
247200 On ch=5 n=72 v=84
247230 Off ch=5 n=75 v=64
247230 Off ch=5 n=72 v=64
247320 On ch=5 n=72 v=84
247320 On ch=5 n=75 v=84
247350 Off ch=5 n=72 v=64
247350 Off ch=5 n=75 v=64
247680 On ch=5 n=74 v=84
247680 On ch=5 n=77 v=84
247710 Off ch=5 n=74 v=64
247710 Off ch=5 n=77 v=64
247800 On ch=5 n=74 v=84
247800 On ch=5 n=77 v=84
247830 Off ch=5 n=74 v=64
247830 Off ch=5 n=77 v=64
248400 On ch=5 n=72 v=84
248400 On ch=5 n=79 v=84
248400 On ch=5 n=75 v=84
248482 Off ch=5 n=72 v=64
248482 Off ch=5 n=79 v=64
248482 Off ch=5 n=75 v=64
248880 On ch=5 n=79 v=84
248880 On ch=5 n=72 v=84
248880 On ch=5 n=75 v=84
248962 Off ch=5 n=79 v=64
248962 Off ch=5 n=72 v=64
248962 Off ch=5 n=75 v=64
249120 On ch=5 n=79 v=84
249120 On ch=5 n=72 v=84
249120 On ch=5 n=75 v=84
249150 Off ch=5 n=79 v=64
249150 Off ch=5 n=72 v=64
249150 Off ch=5 n=75 v=64
249240 On ch=5 n=75 v=84
249240 On ch=5 n=72 v=84
249240 On ch=5 n=79 v=84
249270 Off ch=5 n=75 v=64
249270 Off ch=5 n=72 v=64
249270 Off ch=5 n=79 v=64
249600 On ch=5 n=81 v=84
249600 On ch=5 n=77 v=84
249600 On ch=5 n=74 v=84
249630 Off ch=5 n=81 v=64
249630 Off ch=5 n=77 v=64
249630 Off ch=5 n=74 v=64
249720 On ch=5 n=77 v=84
249720 On ch=5 n=74 v=84
249720 On ch=5 n=81 v=84
249750 Off ch=5 n=77 v=64
249750 Off ch=5 n=74 v=64
249750 Off ch=5 n=81 v=64
250080 On ch=5 n=75 v=84
250080 On ch=5 n=83 v=84
250080 On ch=5 n=79 v=84
250110 Off ch=5 n=75 v=64
250110 Off ch=5 n=83 v=64
250110 Off ch=5 n=79 v=64
250200 On ch=5 n=75 v=84
250200 On ch=5 n=83 v=84
250200 On ch=5 n=79 v=84
250230 Off ch=5 n=75 v=64
250230 Off ch=5 n=83 v=64
250230 Off ch=5 n=79 v=64
250560 On ch=5 n=81 v=84
250560 On ch=5 n=74 v=84
250560 On ch=5 n=77 v=84
250590 Off ch=5 n=81 v=64
250590 Off ch=5 n=74 v=64
250590 Off ch=5 n=77 v=64
250680 On ch=5 n=77 v=84
250680 On ch=5 n=81 v=84
250680 On ch=5 n=74 v=84
250710 Off ch=5 n=77 v=64
250710 Off ch=5 n=81 v=64
250710 Off ch=5 n=74 v=64
251040 On ch=5 n=75 v=84
251040 On ch=5 n=72 v=84
251070 Off ch=5 n=75 v=64
251070 Off ch=5 n=72 v=64
251160 On ch=5 n=72 v=84
251160 On ch=5 n=75 v=84
251190 Off ch=5 n=72 v=64
251190 Off ch=5 n=75 v=64
251520 On ch=5 n=74 v=84
251520 On ch=5 n=77 v=84
251550 Off ch=5 n=74 v=64
251550 Off ch=5 n=77 v=64
251640 On ch=5 n=74 v=84
251640 On ch=5 n=77 v=84
251670 Off ch=5 n=74 v=64
251670 Off ch=5 n=77 v=64
252240 On ch=5 n=72 v=84
252240 On ch=5 n=79 v=84
252240 On ch=5 n=75 v=84
252322 Off ch=5 n=72 v=64
252322 Off ch=5 n=79 v=64
252322 Off ch=5 n=75 v=64
252720 On ch=5 n=79 v=84
252720 On ch=5 n=72 v=84
252720 On ch=5 n=75 v=84
252802 Off ch=5 n=79 v=64
252802 Off ch=5 n=72 v=64
252802 Off ch=5 n=75 v=64
258240 On ch=5 n=81 v=90
258360 Off ch=5 n=81 v=64
258480 On ch=5 n=86 v=90
258600 Off ch=5 n=86 v=64
258720 On ch=5 n=81 v=90
258840 Off ch=5 n=81 v=64
258960 On ch=5 n=86 v=90
259080 Off ch=5 n=86 v=64
259200 On ch=5 n=88 v=90
259320 Off ch=5 n=88 v=64
259440 On ch=5 n=91 v=90
259560 Off ch=5 n=91 v=64
259680 On ch=5 n=90 v=90
259800 Off ch=5 n=90 v=64
259920 On ch=5 n=88 v=90
260040 Off ch=5 n=88 v=64
260160 On ch=5 n=86 v=90
260280 Off ch=5 n=86 v=64
260400 On ch=5 n=81 v=90
260520 Off ch=5 n=81 v=64
264366 On ch=5 n=66 v=31
264366 On ch=5 n=63 v=31
264366 On ch=5 n=60 v=31
264366 On ch=5 n=60 v=31
264405 Off ch=5 n=66 v=64
264405 Off ch=5 n=63 v=64
264405 Off ch=5 n=60 v=64
264405 Off ch=5 n=60 v=64
264405 On ch=5 n=67 v=41
264405 On ch=5 n=64 v=41
264405 On ch=5 n=61 v=41
264405 On ch=5 n=63 v=41
264405 On ch=5 n=59 v=41
264444 Off ch=5 n=67 v=64
264444 Off ch=5 n=64 v=64
264444 Off ch=5 n=61 v=64
264444 Off ch=5 n=63 v=64
264444 Off ch=5 n=59 v=64
264444 On ch=5 n=68 v=51
264444 On ch=5 n=65 v=51
264444 On ch=5 n=62 v=51
264444 On ch=5 n=66 v=51
264444 On ch=5 n=57 v=51
264483 Off ch=5 n=68 v=64
264483 Off ch=5 n=65 v=64
264483 Off ch=5 n=62 v=64
264483 Off ch=5 n=66 v=64
264483 Off ch=5 n=57 v=64
264483 On ch=5 n=69 v=62
264483 On ch=5 n=66 v=62
264483 On ch=5 n=63 v=62
264483 On ch=5 n=71 v=62
264483 On ch=5 n=56 v=62
264618 Off ch=5 n=69 v=64
264618 Off ch=5 n=66 v=64
264618 Off ch=5 n=63 v=64
264618 Off ch=5 n=71 v=64
264618 Off ch=5 n=56 v=64
265806 On ch=5 n=66 v=31
265806 On ch=5 n=63 v=31
265806 On ch=5 n=60 v=31
265806 On ch=5 n=60 v=31
265845 Off ch=5 n=66 v=64
265845 Off ch=5 n=63 v=64
265845 Off ch=5 n=60 v=64
265845 Off ch=5 n=60 v=64
265845 On ch=5 n=67 v=41
265845 On ch=5 n=64 v=41
265845 On ch=5 n=61 v=41
265845 On ch=5 n=63 v=41
265845 On ch=5 n=59 v=41
265884 Off ch=5 n=67 v=64
265884 Off ch=5 n=64 v=64
265884 Off ch=5 n=61 v=64
265884 Off ch=5 n=63 v=64
265884 Off ch=5 n=59 v=64
265884 On ch=5 n=68 v=51
265884 On ch=5 n=65 v=51
265884 On ch=5 n=62 v=51
265884 On ch=5 n=66 v=51
265884 On ch=5 n=57 v=51
265923 Off ch=5 n=68 v=64
265923 Off ch=5 n=65 v=64
265923 Off ch=5 n=62 v=64
265923 Off ch=5 n=66 v=64
265923 Off ch=5 n=57 v=64
265923 On ch=5 n=69 v=62
265923 On ch=5 n=66 v=62
265923 On ch=5 n=63 v=62
265923 On ch=5 n=71 v=62
265923 On ch=5 n=56 v=62
266058 Off ch=5 n=69 v=64
266058 Off ch=5 n=66 v=64
266058 Off ch=5 n=63 v=64
266058 Off ch=5 n=71 v=64
266058 Off ch=5 n=56 v=64
267246 On ch=5 n=66 v=31
267246 On ch=5 n=63 v=31
267246 On ch=5 n=60 v=31
267246 On ch=5 n=60 v=31
267285 Off ch=5 n=66 v=64
267285 Off ch=5 n=63 v=64
267285 Off ch=5 n=60 v=64
267285 Off ch=5 n=60 v=64
267285 On ch=5 n=67 v=41
267285 On ch=5 n=64 v=41
267285 On ch=5 n=61 v=41
267285 On ch=5 n=63 v=41
267285 On ch=5 n=59 v=41
267324 Off ch=5 n=67 v=64
267324 Off ch=5 n=64 v=64
267324 Off ch=5 n=61 v=64
267324 Off ch=5 n=63 v=64
267324 Off ch=5 n=59 v=64
267324 On ch=5 n=68 v=51
267324 On ch=5 n=65 v=51
267324 On ch=5 n=62 v=51
267324 On ch=5 n=66 v=51
267324 On ch=5 n=57 v=51
267363 Off ch=5 n=68 v=64
267363 Off ch=5 n=65 v=64
267363 Off ch=5 n=62 v=64
267363 Off ch=5 n=66 v=64
267363 Off ch=5 n=57 v=64
267363 On ch=5 n=69 v=62
267363 On ch=5 n=66 v=62
267363 On ch=5 n=63 v=62
267363 On ch=5 n=71 v=62
267363 On ch=5 n=56 v=62
267498 Off ch=5 n=69 v=64
267498 Off ch=5 n=66 v=64
267498 Off ch=5 n=63 v=64
267498 Off ch=5 n=71 v=64
267498 Off ch=5 n=56 v=64
268686 On ch=5 n=66 v=31
268686 On ch=5 n=63 v=31
268686 On ch=5 n=60 v=31
268686 On ch=5 n=60 v=31
268725 Off ch=5 n=66 v=64
268725 Off ch=5 n=63 v=64
268725 Off ch=5 n=60 v=64
268725 Off ch=5 n=60 v=64
268725 On ch=5 n=67 v=41
268725 On ch=5 n=64 v=41
268725 On ch=5 n=61 v=41
268725 On ch=5 n=63 v=41
268725 On ch=5 n=59 v=41
268764 Off ch=5 n=67 v=64
268764 Off ch=5 n=64 v=64
268764 Off ch=5 n=61 v=64
268764 Off ch=5 n=63 v=64
268764 Off ch=5 n=59 v=64
268764 On ch=5 n=68 v=51
268764 On ch=5 n=65 v=51
268764 On ch=5 n=62 v=51
268764 On ch=5 n=66 v=51
268764 On ch=5 n=57 v=51
268803 Off ch=5 n=68 v=64
268803 Off ch=5 n=65 v=64
268803 Off ch=5 n=62 v=64
268803 Off ch=5 n=66 v=64
268803 Off ch=5 n=57 v=64
268803 On ch=5 n=69 v=62
268803 On ch=5 n=66 v=62
268803 On ch=5 n=63 v=62
268803 On ch=5 n=71 v=62
268803 On ch=5 n=56 v=62
268938 Off ch=5 n=69 v=64
268938 Off ch=5 n=66 v=64
268938 Off ch=5 n=63 v=64
268938 Off ch=5 n=71 v=64
268938 Off ch=5 n=56 v=64
270480 On ch=5 n=79 v=62
270480 On ch=5 n=87 v=62
270480 On ch=5 n=82 v=62
270480 On ch=5 n=85 v=62
270540 Off ch=5 n=79 v=64
270540 Off ch=5 n=87 v=64
270540 Off ch=5 n=82 v=64
270540 Off ch=5 n=85 v=64
270600 On ch=5 n=86 v=62
270600 On ch=5 n=84 v=62
270600 On ch=5 n=78 v=62
270600 On ch=5 n=81 v=62
270660 Off ch=5 n=86 v=64
270660 Off ch=5 n=84 v=64
270660 Off ch=5 n=78 v=64
270660 Off ch=5 n=81 v=64
270720 On ch=5 n=77 v=62
270720 On ch=5 n=85 v=62
270720 On ch=5 n=83 v=62
270720 On ch=5 n=80 v=62
270780 Off ch=5 n=77 v=64
270780 Off ch=5 n=85 v=64
270780 Off ch=5 n=83 v=64
270780 Off ch=5 n=80 v=64
270840 On ch=5 n=84 v=62
270840 On ch=5 n=76 v=62
270840 On ch=5 n=82 v=62
270840 On ch=5 n=79 v=62
270900 Off ch=5 n=84 v=64
270900 Off ch=5 n=76 v=64
270900 Off ch=5 n=82 v=64
270900 Off ch=5 n=79 v=64
270960 On ch=5 n=83 v=62
270960 On ch=5 n=78 v=62
270960 On ch=5 n=81 v=62
270960 On ch=5 n=75 v=62
271020 Off ch=5 n=83 v=64
271020 Off ch=5 n=78 v=64
271020 Off ch=5 n=81 v=64
271020 Off ch=5 n=75 v=64
271080 On ch=5 n=82 v=62
271080 On ch=5 n=74 v=62
271080 On ch=5 n=77 v=62
271080 On ch=5 n=80 v=62
271140 Off ch=5 n=82 v=64
271140 Off ch=5 n=74 v=64
271140 Off ch=5 n=77 v=64
271140 Off ch=5 n=80 v=64
271200 On ch=5 n=81 v=62
271200 On ch=5 n=76 v=62
271200 On ch=5 n=79 v=62
271200 On ch=5 n=73 v=62
271260 Off ch=5 n=81 v=64
271260 Off ch=5 n=76 v=64
271260 Off ch=5 n=79 v=64
271260 Off ch=5 n=73 v=64
288126 On ch=5 n=66 v=31
288126 On ch=5 n=63 v=31
288126 On ch=5 n=60 v=31
288126 On ch=5 n=60 v=31
288165 Off ch=5 n=66 v=64
288165 Off ch=5 n=63 v=64
288165 Off ch=5 n=60 v=64
288165 Off ch=5 n=60 v=64
288165 On ch=5 n=67 v=41
288165 On ch=5 n=64 v=41
288165 On ch=5 n=61 v=41
288165 On ch=5 n=63 v=41
288165 On ch=5 n=59 v=41
288204 Off ch=5 n=67 v=64
288204 Off ch=5 n=64 v=64
288204 Off ch=5 n=61 v=64
288204 Off ch=5 n=63 v=64
288204 Off ch=5 n=59 v=64
288204 On ch=5 n=68 v=51
288204 On ch=5 n=65 v=51
288204 On ch=5 n=62 v=51
288204 On ch=5 n=66 v=51
288204 On ch=5 n=57 v=51
288243 Off ch=5 n=68 v=64
288243 Off ch=5 n=65 v=64
288243 Off ch=5 n=62 v=64
288243 Off ch=5 n=66 v=64
288243 Off ch=5 n=57 v=64
288243 On ch=5 n=69 v=62
288243 On ch=5 n=66 v=62
288243 On ch=5 n=63 v=62
288243 On ch=5 n=71 v=62
288243 On ch=5 n=56 v=62
288378 Off ch=5 n=69 v=64
288378 Off ch=5 n=66 v=64
288378 Off ch=5 n=63 v=64
288378 Off ch=5 n=71 v=64
288378 Off ch=5 n=56 v=64
289566 On ch=5 n=66 v=31
289566 On ch=5 n=63 v=31
289566 On ch=5 n=60 v=31
289566 On ch=5 n=60 v=31
289605 Off ch=5 n=66 v=64
289605 Off ch=5 n=63 v=64
289605 Off ch=5 n=60 v=64
289605 Off ch=5 n=60 v=64
289605 On ch=5 n=67 v=41
289605 On ch=5 n=64 v=41
289605 On ch=5 n=61 v=41
289605 On ch=5 n=63 v=41
289605 On ch=5 n=59 v=41
289644 Off ch=5 n=67 v=64
289644 Off ch=5 n=64 v=64
289644 Off ch=5 n=61 v=64
289644 Off ch=5 n=63 v=64
289644 Off ch=5 n=59 v=64
289644 On ch=5 n=68 v=51
289644 On ch=5 n=65 v=51
289644 On ch=5 n=62 v=51
289644 On ch=5 n=66 v=51
289644 On ch=5 n=57 v=51
289683 Off ch=5 n=68 v=64
289683 Off ch=5 n=65 v=64
289683 Off ch=5 n=62 v=64
289683 Off ch=5 n=66 v=64
289683 Off ch=5 n=57 v=64
289683 On ch=5 n=69 v=62
289683 On ch=5 n=66 v=62
289683 On ch=5 n=63 v=62
289683 On ch=5 n=71 v=62
289683 On ch=5 n=56 v=62
289818 Off ch=5 n=69 v=64
289818 Off ch=5 n=66 v=64
289818 Off ch=5 n=63 v=64
289818 Off ch=5 n=71 v=64
289818 Off ch=5 n=56 v=64
291006 On ch=5 n=66 v=31
291006 On ch=5 n=63 v=31
291006 On ch=5 n=60 v=31
291006 On ch=5 n=60 v=31
291045 Off ch=5 n=66 v=64
291045 Off ch=5 n=63 v=64
291045 Off ch=5 n=60 v=64
291045 Off ch=5 n=60 v=64
291045 On ch=5 n=67 v=41
291045 On ch=5 n=64 v=41
291045 On ch=5 n=61 v=41
291045 On ch=5 n=63 v=41
291045 On ch=5 n=59 v=41
291084 Off ch=5 n=67 v=64
291084 Off ch=5 n=64 v=64
291084 Off ch=5 n=61 v=64
291084 Off ch=5 n=63 v=64
291084 Off ch=5 n=59 v=64
291084 On ch=5 n=68 v=51
291084 On ch=5 n=65 v=51
291084 On ch=5 n=62 v=51
291084 On ch=5 n=66 v=51
291084 On ch=5 n=57 v=51
291123 Off ch=5 n=68 v=64
291123 Off ch=5 n=65 v=64
291123 Off ch=5 n=62 v=64
291123 Off ch=5 n=66 v=64
291123 Off ch=5 n=57 v=64
291123 On ch=5 n=69 v=62
291123 On ch=5 n=66 v=62
291123 On ch=5 n=63 v=62
291123 On ch=5 n=71 v=62
291123 On ch=5 n=56 v=62
291258 Off ch=5 n=69 v=64
291258 Off ch=5 n=66 v=64
291258 Off ch=5 n=63 v=64
291258 Off ch=5 n=71 v=64
291258 Off ch=5 n=56 v=64
294720 Par ch=5 c=0 v=0
294720 Par ch=5 c=32 v=1
294720 PrCh ch=5 p=60
296880 On ch=5 n=67 v=48
298320 Off ch=5 n=67 v=64
298320 On ch=5 n=67 v=48
298320 On ch=5 n=70 v=48
299760 Off ch=5 n=70 v=64
299760 On ch=5 n=70 v=58
301200 Off ch=5 n=67 v=64
301200 Off ch=5 n=70 v=64
301200 On ch=5 n=70 v=58
301200 On ch=5 n=67 v=58
301200 On ch=5 n=73 v=58
302640 Off ch=5 n=73 v=64
302640 On ch=5 n=73 v=72
304080 Off ch=5 n=73 v=64
304080 On ch=5 n=75 v=80
305520 Off ch=5 n=70 v=64
305520 Off ch=5 n=67 v=64
305520 Off ch=5 n=75 v=64
305520 On ch=5 n=55 v=90
305520 On ch=5 n=67 v=90
305520 On ch=5 n=70 v=90
305520 On ch=5 n=61 v=90
305646 Off ch=5 n=55 v=64
305646 Off ch=5 n=67 v=64
305646 Off ch=5 n=70 v=64
305646 Off ch=5 n=61 v=64
305760 On ch=5 n=55 v=86
305760 On ch=5 n=61 v=86
305760 On ch=5 n=69 v=86
305760 On ch=5 n=67 v=86
305760 On ch=5 n=65 v=86
305886 Off ch=5 n=55 v=64
305886 Off ch=5 n=61 v=64
305886 Off ch=5 n=69 v=64
305886 Off ch=5 n=67 v=64
305886 Off ch=5 n=65 v=64
306000 On ch=5 n=55 v=83
306000 On ch=5 n=61 v=83
306000 On ch=5 n=67 v=83
306000 On ch=5 n=70 v=83
306126 Off ch=5 n=55 v=64
306126 Off ch=5 n=61 v=64
306126 Off ch=5 n=67 v=64
306126 Off ch=5 n=70 v=64
306240 On ch=5 n=55 v=79
306240 On ch=5 n=61 v=79
306240 On ch=5 n=67 v=79
306240 On ch=5 n=65 v=79
306240 On ch=5 n=69 v=79
306366 Off ch=5 n=55 v=64
306366 Off ch=5 n=61 v=64
306366 Off ch=5 n=67 v=64
306366 Off ch=5 n=65 v=64
306366 Off ch=5 n=69 v=64
306480 On ch=5 n=61 v=76
306480 On ch=5 n=55 v=76
306480 On ch=5 n=63 v=76
306480 On ch=5 n=67 v=76
306606 Off ch=5 n=61 v=64
306606 Off ch=5 n=55 v=64
306606 Off ch=5 n=63 v=64
306606 Off ch=5 n=67 v=64
306720 On ch=5 n=55 v=73
306720 On ch=5 n=61 v=73
306720 On ch=5 n=65 v=73
306720 On ch=5 n=62 v=73
306720 On ch=5 n=67 v=73
306846 Off ch=5 n=55 v=64
306846 Off ch=5 n=61 v=64
306846 Off ch=5 n=65 v=64
306846 Off ch=5 n=62 v=64
306846 Off ch=5 n=67 v=64
306960 On ch=5 n=55 v=89
306960 On ch=5 n=61 v=89
306960 On ch=5 n=67 v=89
306960 On ch=5 n=70 v=89
307086 Off ch=5 n=55 v=64
307086 Off ch=5 n=61 v=64
307086 Off ch=5 n=67 v=64
307086 Off ch=5 n=70 v=64
307200 On ch=5 n=55 v=86
307200 On ch=5 n=61 v=86
307200 On ch=5 n=69 v=86
307200 On ch=5 n=67 v=86
307200 On ch=5 n=65 v=86
307326 Off ch=5 n=55 v=64
307326 Off ch=5 n=61 v=64
307326 Off ch=5 n=69 v=64
307326 Off ch=5 n=67 v=64
307326 Off ch=5 n=65 v=64
307440 On ch=5 n=55 v=83
307440 On ch=5 n=61 v=83
307440 On ch=5 n=67 v=83
307440 On ch=5 n=70 v=83
307566 Off ch=5 n=55 v=64
307566 Off ch=5 n=61 v=64
307566 Off ch=5 n=67 v=64
307566 Off ch=5 n=70 v=64
307680 On ch=5 n=55 v=80
307680 On ch=5 n=61 v=80
307680 On ch=5 n=69 v=80
307680 On ch=5 n=65 v=80
307680 On ch=5 n=67 v=80
307806 Off ch=5 n=55 v=64
307806 Off ch=5 n=61 v=64
307806 Off ch=5 n=69 v=64
307806 Off ch=5 n=65 v=64
307806 Off ch=5 n=67 v=64
307920 On ch=5 n=55 v=77
307920 On ch=5 n=63 v=77
307920 On ch=5 n=61 v=77
307920 On ch=5 n=67 v=77
308046 Off ch=5 n=55 v=64
308046 Off ch=5 n=63 v=64
308046 Off ch=5 n=61 v=64
308046 Off ch=5 n=67 v=64
308160 On ch=5 n=55 v=74
308160 On ch=5 n=62 v=74
308160 On ch=5 n=61 v=74
308160 On ch=5 n=67 v=74
308160 On ch=5 n=65 v=74
308286 Off ch=5 n=55 v=64
308286 Off ch=5 n=62 v=64
308286 Off ch=5 n=61 v=64
308286 Off ch=5 n=67 v=64
308286 Off ch=5 n=65 v=64
308400 On ch=5 n=55 v=91
308400 On ch=5 n=61 v=91
308400 On ch=5 n=67 v=91
308400 On ch=5 n=70 v=91
308526 Off ch=5 n=55 v=64
308526 Off ch=5 n=61 v=64
308526 Off ch=5 n=67 v=64
308526 Off ch=5 n=70 v=64
308640 On ch=5 n=69 v=89
308640 On ch=5 n=65 v=89
308766 Off ch=5 n=69 v=64
308766 Off ch=5 n=65 v=64
308880 On ch=5 n=67 v=86
308880 On ch=5 n=70 v=86
309006 Off ch=5 n=67 v=64
309006 Off ch=5 n=70 v=64
309120 On ch=5 n=69 v=84
309120 On ch=5 n=65 v=84
309246 Off ch=5 n=69 v=64
309246 Off ch=5 n=65 v=64
309360 On ch=5 n=63 v=81
309360 On ch=5 n=67 v=81
309486 Off ch=5 n=63 v=64
309486 Off ch=5 n=67 v=64
309600 On ch=5 n=65 v=79
309600 On ch=5 n=62 v=79
309726 Off ch=5 n=65 v=64
309726 Off ch=5 n=62 v=64
309840 On ch=5 n=63 v=76
309840 On ch=5 n=67 v=76
309966 Off ch=5 n=63 v=64
309966 Off ch=5 n=67 v=64
310080 On ch=5 n=60 v=90
310080 On ch=5 n=64 v=90
310206 Off ch=5 n=60 v=64
310206 Off ch=5 n=64 v=64
310320 On ch=5 n=64 v=82
310320 On ch=5 n=60 v=82
310446 Off ch=5 n=64 v=64
310446 Off ch=5 n=60 v=64
310560 On ch=5 n=64 v=90
310560 On ch=5 n=60 v=90
310686 Off ch=5 n=64 v=64
310686 Off ch=5 n=60 v=64
310800 On ch=5 n=65 v=83
310800 On ch=5 n=62 v=83
310926 Off ch=5 n=65 v=64
310926 Off ch=5 n=62 v=64
311040 On ch=5 n=67 v=90
311040 On ch=5 n=63 v=90
311166 Off ch=5 n=67 v=64
311166 Off ch=5 n=63 v=64
311280 On ch=5 n=65 v=79
311280 On ch=5 n=69 v=79
311406 Off ch=5 n=65 v=64
311406 Off ch=5 n=69 v=64
311520 On ch=5 n=55 v=90
311520 On ch=5 n=67 v=90
311520 On ch=5 n=70 v=90
311520 On ch=5 n=61 v=90
311646 Off ch=5 n=55 v=64
311646 Off ch=5 n=67 v=64
311646 Off ch=5 n=70 v=64
311646 Off ch=5 n=61 v=64
311760 On ch=5 n=69 v=87
311760 On ch=5 n=55 v=87
311760 On ch=5 n=65 v=87
311760 On ch=5 n=61 v=87
311760 On ch=5 n=67 v=87
311886 Off ch=5 n=69 v=64
311886 Off ch=5 n=55 v=64
311886 Off ch=5 n=65 v=64
311886 Off ch=5 n=61 v=64
311886 Off ch=5 n=67 v=64
312000 On ch=5 n=55 v=85
312000 On ch=5 n=61 v=85
312000 On ch=5 n=67 v=85
312000 On ch=5 n=70 v=85
312126 Off ch=5 n=55 v=64
312126 Off ch=5 n=61 v=64
312126 Off ch=5 n=67 v=64
312126 Off ch=5 n=70 v=64
312240 On ch=5 n=61 v=82
312240 On ch=5 n=55 v=82
312240 On ch=5 n=65 v=82
312240 On ch=5 n=69 v=82
312240 On ch=5 n=67 v=82
312366 Off ch=5 n=61 v=64
312366 Off ch=5 n=55 v=64
312366 Off ch=5 n=65 v=64
312366 Off ch=5 n=69 v=64
312366 Off ch=5 n=67 v=64
312480 On ch=5 n=61 v=80
312480 On ch=5 n=55 v=80
312480 On ch=5 n=67 v=80
312480 On ch=5 n=63 v=80
312606 Off ch=5 n=61 v=64
312606 Off ch=5 n=55 v=64
312606 Off ch=5 n=67 v=64
312606 Off ch=5 n=63 v=64
312720 On ch=5 n=55 v=77
312720 On ch=5 n=62 v=77
312720 On ch=5 n=65 v=77
312720 On ch=5 n=61 v=77
312720 On ch=5 n=67 v=77
312846 Off ch=5 n=55 v=64
312846 Off ch=5 n=62 v=64
312846 Off ch=5 n=65 v=64
312846 Off ch=5 n=61 v=64
312846 Off ch=5 n=67 v=64
312960 On ch=5 n=55 v=90
312960 On ch=5 n=67 v=90
312960 On ch=5 n=64 v=90
312960 On ch=5 n=60 v=90
312960 On ch=5 n=61 v=90
313086 Off ch=5 n=55 v=64
313086 Off ch=5 n=67 v=64
313086 Off ch=5 n=64 v=64
313086 Off ch=5 n=60 v=64
313086 Off ch=5 n=61 v=64
313200 On ch=5 n=65 v=87
313200 On ch=5 n=67 v=87
313200 On ch=5 n=62 v=87
313200 On ch=5 n=61 v=87
313200 On ch=5 n=55 v=87
313326 Off ch=5 n=65 v=64
313326 Off ch=5 n=67 v=64
313326 Off ch=5 n=62 v=64
313326 Off ch=5 n=61 v=64
313326 Off ch=5 n=55 v=64
313440 On ch=5 n=55 v=82
313440 On ch=5 n=61 v=82
313440 On ch=5 n=67 v=82
313440 On ch=5 n=63 v=82
313566 Off ch=5 n=55 v=64
313566 Off ch=5 n=61 v=64
313566 Off ch=5 n=67 v=64
313566 Off ch=5 n=63 v=64
313680 On ch=5 n=55 v=77
313680 On ch=5 n=65 v=77
313680 On ch=5 n=61 v=77
313680 On ch=5 n=69 v=77
313680 On ch=5 n=67 v=77
313806 Off ch=5 n=55 v=64
313806 Off ch=5 n=65 v=64
313806 Off ch=5 n=61 v=64
313806 Off ch=5 n=69 v=64
313806 Off ch=5 n=67 v=64
313920 On ch=5 n=60 v=90
313920 On ch=5 n=69 v=90
313920 On ch=5 n=54 v=90
313920 On ch=5 n=66 v=90
314046 Off ch=5 n=60 v=64
314046 Off ch=5 n=69 v=64
314046 Off ch=5 n=54 v=64
314046 Off ch=5 n=66 v=64
314160 On ch=5 n=68 v=84
314160 On ch=5 n=64 v=84
314286 Off ch=5 n=68 v=64
314286 Off ch=5 n=64 v=64
314400 On ch=5 n=69 v=82
314400 On ch=5 n=66 v=82
314526 Off ch=5 n=69 v=64
314526 Off ch=5 n=66 v=64
314640 On ch=5 n=68 v=80
314640 On ch=5 n=64 v=80
314766 Off ch=5 n=68 v=64
314766 Off ch=5 n=64 v=64
314880 On ch=5 n=62 v=78
314880 On ch=5 n=66 v=78
315006 Off ch=5 n=62 v=64
315006 Off ch=5 n=66 v=64
315120 On ch=5 n=64 v=76
315120 On ch=5 n=61 v=76
315246 Off ch=5 n=64 v=64
315246 Off ch=5 n=61 v=64
315360 On ch=5 n=59 v=90
315360 On ch=5 n=63 v=90
315486 Off ch=5 n=59 v=64
315486 Off ch=5 n=63 v=64
315600 On ch=5 n=59 v=82
315600 On ch=5 n=63 v=82
315726 Off ch=5 n=59 v=64
315726 Off ch=5 n=63 v=64
315840 On ch=5 n=59 v=90
315840 On ch=5 n=63 v=90
315966 Off ch=5 n=59 v=64
315966 Off ch=5 n=63 v=64
316080 On ch=5 n=64 v=79
316080 On ch=5 n=61 v=79
316206 Off ch=5 n=64 v=64
316206 Off ch=5 n=61 v=64
316320 On ch=5 n=62 v=90
316320 On ch=5 n=66 v=90
316446 Off ch=5 n=62 v=64
316446 Off ch=5 n=66 v=64
316560 On ch=5 n=68 v=79
316560 On ch=5 n=64 v=79
316686 Off ch=5 n=68 v=64
316686 Off ch=5 n=64 v=64
323040 Par ch=5 c=0 v=0
323040 Par ch=5 c=32 v=2
323040 PrCh ch=5 p=70
327600 On ch=5 n=33 v=78
327600 On ch=5 n=45 v=78
327600 On ch=5 n=57 v=78
328320 Off ch=5 n=33 v=64
328320 Off ch=5 n=45 v=64
328320 Off ch=5 n=57 v=64
328320 On ch=5 n=40 v=78
328320 On ch=5 n=64 v=78
328320 On ch=5 n=52 v=78
329040 Off ch=5 n=40 v=64
329040 Off ch=5 n=64 v=64
329040 Off ch=5 n=52 v=64
329040 On ch=5 n=47 v=78
329040 On ch=5 n=59 v=78
329040 On ch=5 n=35 v=78
329520 Off ch=5 n=47 v=64
329520 Off ch=5 n=59 v=64
329520 Off ch=5 n=35 v=64
331200 On ch=5 n=44 v=78
331200 On ch=5 n=32 v=78
331200 On ch=5 n=56 v=78
331314 Off ch=5 n=44 v=64
331314 Off ch=5 n=32 v=64
331314 Off ch=5 n=56 v=64
342720 On ch=5 n=84 v=98
342720 On ch=5 n=77 v=98
342720 On ch=5 n=72 v=98
342720 On ch=5 n=80 v=98
342720 On ch=5 n=68 v=98
342918 Off ch=5 n=84 v=64
342918 Off ch=5 n=77 v=64
342918 Off ch=5 n=72 v=64
342918 Off ch=5 n=80 v=64
342918 Off ch=5 n=68 v=64
348960 On ch=5 n=84 v=98
348960 On ch=5 n=77 v=98
348960 On ch=5 n=72 v=98
348960 On ch=5 n=80 v=98
348960 On ch=5 n=68 v=98
349158 Off ch=5 n=84 v=64
349158 Off ch=5 n=77 v=64
349158 Off ch=5 n=72 v=64
349158 Off ch=5 n=80 v=64
349158 Off ch=5 n=68 v=64
350880 On ch=5 n=88 v=98
350880 On ch=5 n=77 v=98
350880 On ch=5 n=76 v=98
350880 On ch=5 n=80 v=98
350880 On ch=5 n=68 v=98
351078 Off ch=5 n=88 v=64
351078 Off ch=5 n=77 v=64
351078 Off ch=5 n=76 v=64
351078 Off ch=5 n=80 v=64
351078 Off ch=5 n=68 v=64
351360 On ch=5 n=84 v=98
351360 On ch=5 n=77 v=98
351360 On ch=5 n=72 v=98
351360 On ch=5 n=80 v=98
351360 On ch=5 n=68 v=98
351558 Off ch=5 n=84 v=64
351558 Off ch=5 n=77 v=64
351558 Off ch=5 n=72 v=64
351558 Off ch=5 n=80 v=64
351558 Off ch=5 n=68 v=64
355200 On ch=5 n=84 v=98
355200 On ch=5 n=77 v=98
355200 On ch=5 n=72 v=98
355200 On ch=5 n=80 v=98
355200 On ch=5 n=68 v=98
355398 Off ch=5 n=84 v=64
355398 Off ch=5 n=77 v=64
355398 Off ch=5 n=72 v=64
355398 Off ch=5 n=80 v=64
355398 Off ch=5 n=68 v=64
357120 On ch=5 n=88 v=98
357120 On ch=5 n=77 v=98
357120 On ch=5 n=76 v=98
357120 On ch=5 n=80 v=98
357120 On ch=5 n=68 v=98
357318 Off ch=5 n=88 v=64
357318 Off ch=5 n=77 v=64
357318 Off ch=5 n=76 v=64
357318 Off ch=5 n=80 v=64
357318 Off ch=5 n=68 v=64
358560 On ch=5 n=88 v=98
358560 On ch=5 n=77 v=98
358560 On ch=5 n=76 v=98
358560 On ch=5 n=80 v=98
358560 On ch=5 n=68 v=98
358758 Off ch=5 n=88 v=64
358758 Off ch=5 n=77 v=64
358758 Off ch=5 n=76 v=64
358758 Off ch=5 n=80 v=64
358758 Off ch=5 n=68 v=64
360000 On ch=5 n=88 v=98
360000 On ch=5 n=77 v=98
360000 On ch=5 n=76 v=98
360000 On ch=5 n=80 v=98
360000 On ch=5 n=68 v=98
360198 Off ch=5 n=88 v=64
360198 Off ch=5 n=77 v=64
360198 Off ch=5 n=76 v=64
360198 Off ch=5 n=80 v=64
360198 Off ch=5 n=68 v=64
360960 On ch=5 n=88 v=98
360960 On ch=5 n=77 v=98
360960 On ch=5 n=76 v=98
360960 On ch=5 n=80 v=98
360960 On ch=5 n=68 v=98
361158 Off ch=5 n=88 v=64
361158 Off ch=5 n=77 v=64
361158 Off ch=5 n=76 v=64
361158 Off ch=5 n=80 v=64
361158 Off ch=5 n=68 v=64
418560 Par ch=5 c=0 v=0
418560 Par ch=5 c=32 v=2
418560 PrCh ch=5 p=68
422235 Par ch=5 c=7 v=100
422640 On ch=5 n=77 v=40
422880 Off ch=5 n=77 v=64
422880 On ch=5 n=79 v=40
423080 Off ch=5 n=79 v=64
423080 On ch=5 n=79 v=40
423120 On ch=5 n=82 v=40
423145 Off ch=5 n=79 v=64
423320 On ch=5 n=82 v=40
423325 Off ch=5 n=82 v=64
423360 On ch=5 n=80 v=40
423385 Off ch=5 n=82 v=64
423600 Off ch=5 n=80 v=64
423600 On ch=5 n=79 v=40
423840 Off ch=5 n=79 v=64
423840 On ch=5 n=77 v=40
424045 On ch=5 n=73 v=40
424060 Off ch=5 n=77 v=64
424080 On ch=5 n=75 v=40
424110 Off ch=5 n=73 v=64
424340 Off ch=5 n=75 v=64
428400 On ch=5 n=77 v=40
428640 Off ch=5 n=77 v=64
428640 On ch=5 n=79 v=40
428840 Off ch=5 n=79 v=64
428840 On ch=5 n=79 v=40
428880 On ch=5 n=82 v=40
428905 Off ch=5 n=79 v=64
429080 On ch=5 n=82 v=40
429085 Off ch=5 n=82 v=64
429120 On ch=5 n=80 v=40
429145 Off ch=5 n=82 v=64
429360 Off ch=5 n=80 v=64
429360 On ch=5 n=79 v=40
429600 Off ch=5 n=79 v=64
429600 On ch=5 n=77 v=40
429805 On ch=5 n=73 v=40
429820 Off ch=5 n=77 v=64
429840 On ch=5 n=75 v=40
429870 Off ch=5 n=73 v=64
430080 On ch=5 n=77 v=40
430103 Off ch=5 n=75 v=64
430320 Off ch=5 n=77 v=64
430320 On ch=5 n=79 v=40
430520 On ch=5 n=82 v=40
430525 Off ch=5 n=79 v=64
430560 On ch=5 n=80 v=40
430585 Off ch=5 n=82 v=64
430800 Off ch=5 n=80 v=64
430800 On ch=5 n=79 v=40
431040 Off ch=5 n=79 v=64
431040 On ch=5 n=77 v=40
431245 On ch=5 n=73 v=40
431260 Off ch=5 n=77 v=64
431280 On ch=5 n=75 v=40
431310 Off ch=5 n=73 v=64
431520 On ch=5 n=77 v=40
431543 Off ch=5 n=75 v=64
431740 Off ch=5 n=77 v=64
453600 Par ch=5 c=0 v=0
453600 Par ch=5 c=32 v=2
453600 PrCh ch=5 p=68
457275 Par ch=5 c=7 v=100
457680 On ch=5 n=77 v=40
457920 Off ch=5 n=77 v=64
457920 On ch=5 n=79 v=40
458120 Off ch=5 n=79 v=64
458120 On ch=5 n=79 v=40
458160 On ch=5 n=82 v=40
458185 Off ch=5 n=79 v=64
458360 On ch=5 n=82 v=40
458365 Off ch=5 n=82 v=64
458400 On ch=5 n=80 v=40
458425 Off ch=5 n=82 v=64
458640 Off ch=5 n=80 v=64
458640 On ch=5 n=79 v=40
458880 Off ch=5 n=79 v=64
458880 On ch=5 n=77 v=40
459085 On ch=5 n=73 v=40
459100 Off ch=5 n=77 v=64
459120 On ch=5 n=75 v=40
459150 Off ch=5 n=73 v=64
459360 On ch=5 n=77 v=40
459380 Off ch=5 n=75 v=64
459620 Off ch=5 n=77 v=64
461520 On ch=5 n=77 v=40
461760 Off ch=5 n=77 v=64
461760 On ch=5 n=79 v=40
461960 Off ch=5 n=79 v=64
461960 On ch=5 n=79 v=40
462000 On ch=5 n=82 v=40
462025 Off ch=5 n=79 v=64
462200 On ch=5 n=82 v=40
462205 Off ch=5 n=82 v=64
462240 On ch=5 n=80 v=40
462265 Off ch=5 n=82 v=64
462480 Off ch=5 n=80 v=64
462480 On ch=5 n=79 v=40
462720 Off ch=5 n=79 v=64
462720 On ch=5 n=77 v=40
462925 On ch=5 n=73 v=40
462940 Off ch=5 n=77 v=64
462960 On ch=5 n=75 v=40
462990 Off ch=5 n=73 v=64
463200 On ch=5 n=77 v=40
463223 Off ch=5 n=75 v=64
463440 Off ch=5 n=77 v=64
463440 On ch=5 n=79 v=40
463640 On ch=5 n=82 v=40
463645 Off ch=5 n=79 v=64
463680 On ch=5 n=80 v=40
463705 Off ch=5 n=82 v=64
463920 Off ch=5 n=80 v=64
463920 On ch=5 n=79 v=40
464160 Off ch=5 n=79 v=64
464160 On ch=5 n=77 v=40
464365 On ch=5 n=73 v=40
464380 Off ch=5 n=77 v=64
464400 On ch=5 n=75 v=40
464430 Off ch=5 n=73 v=64
464633 Off ch=5 n=75 v=64
524160 Meta TrkEnd
TrkEnd
MTrk
0 Meta InstrName "SC-88VL"
0 Meta TrkName "Fagot"
480 Par ch=6 c=0 v=0
480 Par ch=6 c=32 v=2
480 PrCh ch=6 p=70
960 Par ch=6 c=93 v=0
960 Par ch=6 c=91 v=110
970 Par ch=6 c=7 v=100
1855 Par ch=6 c=7 v=26
1859 Par ch=6 c=7 v=26
1864 Par ch=6 c=7 v=27
1868 Par ch=6 c=7 v=28
1873 Par ch=6 c=7 v=29
1878 Par ch=6 c=7 v=31
1882 Par ch=6 c=7 v=31
1887 Par ch=6 c=7 v=32
1891 Par ch=6 c=7 v=33
1896 Par ch=6 c=7 v=34
1900 Par ch=6 c=7 v=35
1905 Par ch=6 c=7 v=36
1910 Par ch=6 c=7 v=37
1914 Par ch=6 c=7 v=38
1919 Par ch=6 c=7 v=39
1920 On ch=6 n=72 v=64
1923 Par ch=6 c=7 v=40
1928 Par ch=6 c=7 v=41
1932 Par ch=6 c=7 v=42
1937 Par ch=6 c=7 v=43
1942 Par ch=6 c=7 v=44
1946 Par ch=6 c=7 v=45
1951 Par ch=6 c=7 v=46
1955 Par ch=6 c=7 v=47
1960 Par ch=6 c=7 v=48
1965 Par ch=6 c=7 v=49
1969 Par ch=6 c=7 v=50
1974 Par ch=6 c=7 v=51
1978 Par ch=6 c=7 v=52
1983 Par ch=6 c=7 v=53
1987 Par ch=6 c=7 v=54
1992 Par ch=6 c=7 v=55
1997 Par ch=6 c=7 v=56
2001 Par ch=6 c=7 v=57
2006 Par ch=6 c=7 v=58
2010 Par ch=6 c=7 v=59
2015 Par ch=6 c=7 v=60
2020 Par ch=6 c=7 v=61
2024 Par ch=6 c=7 v=62
2029 Par ch=6 c=7 v=63
2033 Par ch=6 c=7 v=64
2038 Par ch=6 c=7 v=65
2042 Par ch=6 c=7 v=66
2047 Par ch=6 c=7 v=67
2052 Par ch=6 c=7 v=68
2056 Par ch=6 c=7 v=69
2061 Par ch=6 c=7 v=70
2065 Par ch=6 c=7 v=71
2070 Par ch=6 c=7 v=72
2075 Par ch=6 c=7 v=73
2079 Par ch=6 c=7 v=74
2084 Par ch=6 c=7 v=75
2088 Par ch=6 c=7 v=76
2093 Par ch=6 c=7 v=77
2097 Par ch=6 c=7 v=78
2102 Par ch=6 c=7 v=79
2107 Par ch=6 c=7 v=80
2111 Par ch=6 c=7 v=81
2116 Par ch=6 c=7 v=82
2120 Par ch=6 c=7 v=83
2125 Par ch=6 c=7 v=84
2130 Par ch=6 c=7 v=85
2134 Par ch=6 c=7 v=86
2139 Par ch=6 c=7 v=87
2143 Par ch=6 c=7 v=88
2148 Par ch=6 c=7 v=89
2152 Par ch=6 c=7 v=90
2157 Par ch=6 c=7 v=91
2162 Par ch=6 c=7 v=92
2166 Par ch=6 c=7 v=93
2171 Par ch=6 c=7 v=94
2175 Par ch=6 c=7 v=95
2180 Par ch=6 c=7 v=96
2184 Par ch=6 c=7 v=98
2189 Par ch=6 c=7 v=100
2191 Par ch=6 c=7 v=100
2340 On ch=6 n=71 v=52
2343 Off ch=6 n=72 v=64
2370 On ch=6 n=72 v=52
2373 Off ch=6 n=71 v=64
2400 On ch=6 n=71 v=52
2403 Off ch=6 n=72 v=64
2520 Off ch=6 n=71 v=64
2520 On ch=6 n=67 v=52
2640 Off ch=6 n=67 v=64
2640 On ch=6 n=64 v=52
2760 Off ch=6 n=64 v=64
2760 On ch=6 n=71 v=52
2880 Off ch=6 n=71 v=64
2880 On ch=6 n=69 v=52
3030 Off ch=6 n=69 v=64
3040 On ch=6 n=72 v=52
3160 On ch=6 n=71 v=44
3163 Off ch=6 n=72 v=64
3180 On ch=6 n=72 v=45
3183 Off ch=6 n=71 v=64
3200 On ch=6 n=71 v=52
3203 Off ch=6 n=72 v=64
3360 Off ch=6 n=71 v=64
3360 On ch=6 n=67 v=52
3520 Off ch=6 n=67 v=64
3520 On ch=6 n=64 v=52
3680 Off ch=6 n=64 v=64
3680 On ch=6 n=71 v=46
3840 Off ch=6 n=71 v=64
3840 On ch=6 n=69 v=52
4080 Off ch=6 n=69 v=64
4080 On ch=6 n=72 v=52
4262 On ch=6 n=71 v=46
4265 Off ch=6 n=72 v=64
4290 On ch=6 n=72 v=46
4293 Off ch=6 n=71 v=64
4320 On ch=6 n=71 v=54
4321 Off ch=6 n=72 v=64
4560 Off ch=6 n=71 v=64
4560 On ch=6 n=69 v=54
4800 Off ch=6 n=69 v=64
4800 On ch=6 n=74 v=54
4992 On ch=6 n=67 v=46
5001 Off ch=6 n=74 v=64
5040 On ch=6 n=69 v=54
5043 Off ch=6 n=67 v=64
5245 Off ch=6 n=69 v=64
5280 On ch=6 n=72 v=52
5337 On ch=6 n=71 v=46
5346 Off ch=6 n=72 v=64
5358 On ch=6 n=72 v=46
5367 Off ch=6 n=71 v=64
5376 On ch=6 n=71 v=52
5388 Off ch=6 n=72 v=64
5472 Off ch=6 n=71 v=64
5472 On ch=6 n=67 v=52
5568 Off ch=6 n=67 v=64
5568 On ch=6 n=64 v=52
5664 Off ch=6 n=64 v=64
5664 On ch=6 n=71 v=52
5760 Off ch=6 n=71 v=64
5760 On ch=6 n=69 v=52
6847 Off ch=6 n=69 v=64
6900 Par ch=6 c=7 v=30
6909 Par ch=6 c=7 v=31
6917 Par ch=6 c=7 v=31
6926 Par ch=6 c=7 v=32
6935 Par ch=6 c=7 v=33
6944 Par ch=6 c=7 v=34
6953 Par ch=6 c=7 v=35
6960 On ch=6 n=72 v=64
6962 Par ch=6 c=7 v=36
6971 Par ch=6 c=7 v=37
6980 Par ch=6 c=7 v=38
6989 Par ch=6 c=7 v=39
6998 Par ch=6 c=7 v=41
7006 Par ch=6 c=7 v=41
7015 Par ch=6 c=7 v=42
7024 Par ch=6 c=7 v=43
7033 Par ch=6 c=7 v=44
7042 Par ch=6 c=7 v=45
7051 Par ch=6 c=7 v=46
7060 Par ch=6 c=7 v=47
7069 Par ch=6 c=7 v=48
7078 Par ch=6 c=7 v=49
7086 Par ch=6 c=7 v=50
7095 Par ch=6 c=7 v=51
7104 Par ch=6 c=7 v=52
7113 Par ch=6 c=7 v=53
7122 Par ch=6 c=7 v=54
7131 Par ch=6 c=7 v=55
7140 Par ch=6 c=7 v=56
7149 Par ch=6 c=7 v=57
7158 Par ch=6 c=7 v=58
7167 Par ch=6 c=7 v=59
7175 Par ch=6 c=7 v=60
7184 Par ch=6 c=7 v=61
7193 Par ch=6 c=7 v=62
7202 Par ch=6 c=7 v=63
7211 Par ch=6 c=7 v=64
7220 Par ch=6 c=7 v=65
7229 Par ch=6 c=7 v=66
7238 Par ch=6 c=7 v=67
7247 Par ch=6 c=7 v=68
7255 Par ch=6 c=7 v=69
7264 Par ch=6 c=7 v=70
7273 Par ch=6 c=7 v=71
7282 Par ch=6 c=7 v=72
7291 Par ch=6 c=7 v=73
7300 Par ch=6 c=7 v=74
7309 Par ch=6 c=7 v=75
7318 Par ch=6 c=7 v=76
7327 Par ch=6 c=7 v=77
7336 Par ch=6 c=7 v=78
7344 Par ch=6 c=7 v=79
7353 Par ch=6 c=7 v=80
7362 Par ch=6 c=7 v=81
7371 Par ch=6 c=7 v=82
7380 Par ch=6 c=7 v=83
7389 Par ch=6 c=7 v=84
7398 Par ch=6 c=7 v=85
7407 Par ch=6 c=7 v=86
7416 Par ch=6 c=7 v=87
7424 Par ch=6 c=7 v=88
7433 Par ch=6 c=7 v=89
7442 Par ch=6 c=7 v=90
7451 Par ch=6 c=7 v=91
7460 Par ch=6 c=7 v=92
7469 Par ch=6 c=7 v=93
7478 Par ch=6 c=7 v=94
7487 Par ch=6 c=7 v=95
7496 Par ch=6 c=7 v=96
7504 Par ch=6 c=7 v=98
7784 On ch=6 n=71 v=48
7792 Off ch=6 n=72 v=64
7812 On ch=6 n=72 v=48
7821 Off ch=6 n=71 v=64
7840 On ch=6 n=71 v=54
7849 Off ch=6 n=72 v=64
7893 Off ch=6 n=71 v=64
7893 On ch=6 n=67 v=54
7946 Off ch=6 n=67 v=64
7946 On ch=6 n=71 v=54
7990 On ch=6 n=72 v=46
8000 Off ch=6 n=71 v=64
8028 On ch=6 n=70 v=54
8032 Off ch=6 n=72 v=64
8160 On ch=6 n=69 v=54
8169 Off ch=6 n=70 v=64
8282 On ch=6 n=72 v=43
8288 Off ch=6 n=69 v=64
8320 On ch=6 n=70 v=54
8324 Off ch=6 n=72 v=64
8480 Off ch=6 n=70 v=64
8480 On ch=6 n=69 v=54
8640 Off ch=6 n=69 v=64
8640 On ch=6 n=66 v=54
8880 Off ch=6 n=66 v=64
8880 On ch=6 n=72 v=47
9000 Off ch=6 n=72 v=64
10808 Par ch=6 c=7 v=26
10812 Par ch=6 c=7 v=26
10817 Par ch=6 c=7 v=27
10822 Par ch=6 c=7 v=28
10827 Par ch=6 c=7 v=29
10832 Par ch=6 c=7 v=30
10837 Par ch=6 c=7 v=32
10841 Par ch=6 c=7 v=32
10846 Par ch=6 c=7 v=33
10851 Par ch=6 c=7 v=34
10856 Par ch=6 c=7 v=35
10861 Par ch=6 c=7 v=36
10865 Par ch=6 c=7 v=37
10870 Par ch=6 c=7 v=38
10875 Par ch=6 c=7 v=39
10880 On ch=6 n=72 v=59
10880 Par ch=6 c=7 v=40
10885 Par ch=6 c=7 v=41
10889 Par ch=6 c=7 v=42
10894 Par ch=6 c=7 v=43
10899 Par ch=6 c=7 v=44
10904 Par ch=6 c=7 v=45
10909 Par ch=6 c=7 v=46
10913 Par ch=6 c=7 v=47
10918 Par ch=6 c=7 v=48
10923 Par ch=6 c=7 v=49
10928 Par ch=6 c=7 v=50
10933 Par ch=6 c=7 v=51
10937 Par ch=6 c=7 v=52
10942 Par ch=6 c=7 v=53
10947 Par ch=6 c=7 v=54
10952 Par ch=6 c=7 v=55
10957 Par ch=6 c=7 v=56
10962 Par ch=6 c=7 v=57
10966 Par ch=6 c=7 v=58
10971 Par ch=6 c=7 v=59
10976 Par ch=6 c=7 v=60
10981 Par ch=6 c=7 v=61
10986 Par ch=6 c=7 v=62
10990 Par ch=6 c=7 v=63
10995 Par ch=6 c=7 v=64
11000 Par ch=6 c=7 v=65
11005 Par ch=6 c=7 v=66
11010 Par ch=6 c=7 v=67
11014 Par ch=6 c=7 v=68
11019 Par ch=6 c=7 v=69
11024 Par ch=6 c=7 v=70
11029 Par ch=6 c=7 v=71
11034 Par ch=6 c=7 v=72
11038 Par ch=6 c=7 v=73
11043 Par ch=6 c=7 v=74
11048 Par ch=6 c=7 v=75
11053 Par ch=6 c=7 v=76
11058 Par ch=6 c=7 v=77
11063 Par ch=6 c=7 v=78
11067 Par ch=6 c=7 v=79
11072 Par ch=6 c=7 v=80
11077 Par ch=6 c=7 v=81
11082 Par ch=6 c=7 v=82
11087 Par ch=6 c=7 v=83
11091 Par ch=6 c=7 v=84
11096 Par ch=6 c=7 v=85
11101 Par ch=6 c=7 v=86
11106 Par ch=6 c=7 v=87
11111 Par ch=6 c=7 v=88
11115 Par ch=6 c=7 v=89
11120 Par ch=6 c=7 v=90
11125 Par ch=6 c=7 v=91
11130 Par ch=6 c=7 v=92
11135 Par ch=6 c=7 v=93
11139 Par ch=6 c=7 v=94
11144 Par ch=6 c=7 v=95
11149 Par ch=6 c=7 v=96
11154 Par ch=6 c=7 v=97
11159 Par ch=6 c=7 v=98
11163 Par ch=6 c=7 v=100
11460 On ch=6 n=71 v=52
11470 Off ch=6 n=72 v=64
11489 On ch=6 n=72 v=52
11496 Off ch=6 n=71 v=64
11520 On ch=6 n=71 v=52
11525 Off ch=6 n=72 v=64
11640 Off ch=6 n=71 v=64
11640 On ch=6 n=67 v=52
11760 Off ch=6 n=67 v=64
11760 On ch=6 n=64 v=52
11880 Off ch=6 n=64 v=64
11880 On ch=6 n=71 v=52
12000 Off ch=6 n=71 v=64
12000 On ch=6 n=69 v=52
12240 Off ch=6 n=69 v=64
12240 On ch=6 n=72 v=52
12426 Off ch=6 n=72 v=64
12426 On ch=6 n=71 v=52
12452 On ch=6 n=72 v=52
12459 Off ch=6 n=71 v=64
12480 On ch=6 n=71 v=52
12485 Off ch=6 n=72 v=64
12720 Off ch=6 n=71 v=64
12720 On ch=6 n=69 v=52
12960 Off ch=6 n=69 v=64
12960 On ch=6 n=74 v=52
13145 Off ch=6 n=74 v=64
13145 On ch=6 n=67 v=52
13200 On ch=6 n=69 v=52
13215 Off ch=6 n=67 v=64
13440 Off ch=6 n=69 v=64
13440 On ch=6 n=72 v=52
13494 On ch=6 n=71 v=52
13496 Off ch=6 n=72 v=64
13514 On ch=6 n=72 v=52
13524 Off ch=6 n=71 v=64
13536 On ch=6 n=71 v=52
13544 Off ch=6 n=72 v=64
13632 Off ch=6 n=71 v=64
13632 On ch=6 n=67 v=52
13728 Off ch=6 n=67 v=64
13728 On ch=6 n=64 v=52
13824 Off ch=6 n=64 v=64
13824 On ch=6 n=71 v=52
13920 Off ch=6 n=71 v=64
13920 On ch=6 n=69 v=52
17215 Off ch=6 n=69 v=64
17280 On ch=6 n=74 v=58
17481 On ch=6 n=67 v=52
17484 Off ch=6 n=74 v=64
17520 On ch=6 n=69 v=58
17529 Off ch=6 n=67 v=64
17760 Off ch=6 n=69 v=64
17760 On ch=6 n=72 v=58
17814 On ch=6 n=71 v=54
17820 Off ch=6 n=72 v=64
17835 On ch=6 n=72 v=54
17841 Off ch=6 n=71 v=64
17856 On ch=6 n=71 v=58
17865 Off ch=6 n=72 v=64
17952 Off ch=6 n=71 v=64
17952 On ch=6 n=67 v=58
18048 Off ch=6 n=67 v=64
18048 On ch=6 n=64 v=58
18144 Off ch=6 n=64 v=64
18144 On ch=6 n=71 v=58
18240 Off ch=6 n=71 v=64
18240 On ch=6 n=69 v=58
18720 On ch=6 n=59 v=50
18720 On ch=6 n=54 v=50
18790 Off ch=6 n=69 v=64
18960 On ch=6 n=69 v=48
19360 On ch=6 n=68 v=46
19360 On ch=6 n=58 v=46
19360 On ch=6 n=53 v=46
19375 Off ch=6 n=59 v=64
19375 Off ch=6 n=54 v=64
19380 Off ch=6 n=69 v=64
19484 On ch=6 n=69 v=45
19496 Off ch=6 n=68 v=64
19520 Off ch=6 n=58 v=64
19520 Off ch=6 n=53 v=64
19520 On ch=6 n=67 v=45
19520 On ch=6 n=57 v=45
19520 On ch=6 n=52 v=45
19548 Off ch=6 n=69 v=64
19680 Off ch=6 n=67 v=64
19680 Off ch=6 n=57 v=64
19680 Off ch=6 n=52 v=64
19680 On ch=6 n=66 v=44
19680 On ch=6 n=56 v=44
19680 On ch=6 n=51 v=44
19810 On ch=6 n=69 v=45
19822 Off ch=6 n=66 v=64
19840 Off ch=6 n=56 v=64
19840 Off ch=6 n=51 v=64
19840 On ch=6 n=67 v=46
19840 On ch=6 n=57 v=46
19840 On ch=6 n=52 v=46
19874 Off ch=6 n=69 v=64
20000 Off ch=6 n=67 v=64
20000 Off ch=6 n=57 v=64
20000 Off ch=6 n=52 v=64
20000 On ch=6 n=66 v=49
20000 On ch=6 n=58 v=49
20000 On ch=6 n=53 v=49
20160 Off ch=6 n=66 v=64
20160 Off ch=6 n=58 v=64
20160 Off ch=6 n=53 v=64
20160 On ch=6 n=63 v=48
20160 On ch=6 n=59 v=48
20160 On ch=6 n=54 v=48
20320 Off ch=6 n=63 v=64
20320 Off ch=6 n=59 v=64
20320 Off ch=6 n=54 v=64
20320 On ch=6 n=58 v=46
20320 On ch=6 n=53 v=46
20480 Off ch=6 n=58 v=64
20480 Off ch=6 n=53 v=64
20480 On ch=6 n=57 v=41
20480 On ch=6 n=52 v=41
20640 Off ch=6 n=57 v=64
20640 Off ch=6 n=52 v=64
20640 On ch=6 n=51 v=42
20640 On ch=6 n=56 v=42
20640 On ch=6 n=51 v=42
20800 Off ch=6 n=51 v=64
20800 Off ch=6 n=56 v=64
20800 Off ch=6 n=51 v=64
20800 On ch=6 n=52 v=45
20800 On ch=6 n=57 v=45
20960 Off ch=6 n=52 v=64
20960 Off ch=6 n=57 v=64
20960 On ch=6 n=53 v=49
20960 On ch=6 n=58 v=49
21120 Off ch=6 n=53 v=64
21120 Off ch=6 n=58 v=64
21120 On ch=6 n=52 v=51
21120 On ch=6 n=57 v=51
21280 Off ch=6 n=52 v=64
21280 Off ch=6 n=57 v=64
21280 On ch=6 n=51 v=48
21280 On ch=6 n=56 v=48
21440 Off ch=6 n=51 v=64
21440 Off ch=6 n=56 v=64
21440 On ch=6 n=50 v=44
21440 On ch=6 n=55 v=44
21600 Off ch=6 n=50 v=64
21600 Off ch=6 n=55 v=64
21600 On ch=6 n=54 v=42
21600 On ch=6 n=49 v=42
21760 Off ch=6 n=54 v=64
21760 Off ch=6 n=49 v=64
21760 On ch=6 n=55 v=44
21760 On ch=6 n=50 v=44
21920 Off ch=6 n=55 v=64
21920 Off ch=6 n=50 v=64
21920 On ch=6 n=56 v=46
21920 On ch=6 n=51 v=46
22080 Off ch=6 n=56 v=64
22080 Off ch=6 n=51 v=64
22080 On ch=6 n=57 v=47
22080 On ch=6 n=52 v=47
22240 Off ch=6 n=57 v=64
22240 Off ch=6 n=52 v=64
22240 On ch=6 n=56 v=45
22240 On ch=6 n=51 v=45
22400 Off ch=6 n=56 v=64
22400 Off ch=6 n=51 v=64
22400 On ch=6 n=55 v=42
22400 On ch=6 n=50 v=42
22560 Off ch=6 n=55 v=64
22560 Off ch=6 n=50 v=64
22560 On ch=6 n=54 v=43
22560 On ch=6 n=49 v=43
22720 Off ch=6 n=54 v=64
22720 Off ch=6 n=49 v=64
22720 On ch=6 n=55 v=45
22720 On ch=6 n=50 v=45
22880 Off ch=6 n=55 v=64
22880 Off ch=6 n=50 v=64
22880 On ch=6 n=56 v=47
22880 On ch=6 n=51 v=47
23040 Off ch=6 n=56 v=64
23040 Off ch=6 n=51 v=64
23040 On ch=6 n=57 v=45
23040 On ch=6 n=52 v=45
23200 Off ch=6 n=57 v=64
23200 Off ch=6 n=52 v=64
23200 On ch=6 n=56 v=47
23200 On ch=6 n=51 v=47
23360 Off ch=6 n=56 v=64
23360 Off ch=6 n=51 v=64
23360 On ch=6 n=55 v=44
23360 On ch=6 n=50 v=44
23520 Off ch=6 n=55 v=64
23520 Off ch=6 n=50 v=64
23520 On ch=6 n=54 v=42
23520 On ch=6 n=49 v=42
23680 Off ch=6 n=54 v=64
23680 Off ch=6 n=49 v=64
23680 On ch=6 n=55 v=45
23680 On ch=6 n=50 v=45
23840 Off ch=6 n=55 v=64
23840 Off ch=6 n=50 v=64
23840 On ch=6 n=56 v=48
23840 On ch=6 n=51 v=48
24000 Off ch=6 n=56 v=64
24000 Off ch=6 n=51 v=64
24000 On ch=6 n=57 v=47
24000 On ch=6 n=52 v=47
24160 Off ch=6 n=57 v=64
24160 Off ch=6 n=52 v=64
24160 On ch=6 n=56 v=50
24160 On ch=6 n=51 v=50
24320 Off ch=6 n=56 v=64
24320 Off ch=6 n=51 v=64
24320 On ch=6 n=55 v=48
24320 On ch=6 n=50 v=48
24480 Off ch=6 n=55 v=64
24480 Off ch=6 n=50 v=64
24480 On ch=6 n=54 v=46
24480 On ch=6 n=49 v=46
24640 Off ch=6 n=54 v=64
24640 Off ch=6 n=49 v=64
24640 On ch=6 n=56 v=44
24640 On ch=6 n=51 v=44
24800 Off ch=6 n=56 v=64
24800 Off ch=6 n=51 v=64
24800 On ch=6 n=55 v=43
24800 On ch=6 n=50 v=43
24960 Off ch=6 n=55 v=64
24960 Off ch=6 n=50 v=64
24960 On ch=6 n=56 v=41
24960 On ch=6 n=47 v=41
25200 Off ch=6 n=56 v=64
25200 Off ch=6 n=47 v=64
33600 On ch=6 n=59 v=38
35495 Off ch=6 n=59 v=64
47040 On ch=6 n=50 v=53
47200 Off ch=6 n=50 v=64
47200 On ch=6 n=52 v=48
47330 On ch=6 n=57 v=45
47360 Off ch=6 n=52 v=64
47360 On ch=6 n=55 v=44
47376 Off ch=6 n=57 v=64
47511 Off ch=6 n=55 v=64
47520 On ch=6 n=53 v=39
47760 Off ch=6 n=53 v=64
47760 On ch=6 n=52 v=32
47976 Off ch=6 n=52 v=64
48960 On ch=6 n=50 v=53
49120 Off ch=6 n=50 v=64
49120 On ch=6 n=52 v=48
49250 On ch=6 n=57 v=45
49280 Off ch=6 n=52 v=64
49280 On ch=6 n=55 v=44
49296 Off ch=6 n=57 v=64
49431 Off ch=6 n=55 v=64
49440 On ch=6 n=53 v=39
49680 Off ch=6 n=53 v=64
49680 On ch=6 n=52 v=32
49896 Off ch=6 n=52 v=64
49920 On ch=6 n=50 v=45
50160 Off ch=6 n=50 v=64
50160 On ch=6 n=52 v=41
50375 On ch=6 n=55 v=37
50400 Off ch=6 n=52 v=64
50400 On ch=6 n=53 v=35
50425 Off ch=6 n=55 v=64
50560 Off ch=6 n=53 v=64
50560 On ch=6 n=52 v=29
50720 Off ch=6 n=52 v=64
50720 On ch=6 n=50 v=23
50865 On ch=6 n=66 v=30
50880 Off ch=6 n=50 v=64
50880 On ch=6 n=62 v=30
50880 On ch=6 n=34 v=34
50896 Off ch=6 n=66 v=64
51000 Off ch=6 n=34 v=64
51000 On ch=6 n=35 v=34
51040 Off ch=6 n=62 v=64
51040 On ch=6 n=58 v=25
51120 Off ch=6 n=35 v=64
51120 On ch=6 n=34 v=34
51149 Off ch=6 n=58 v=64
51185 On ch=6 n=66 v=30
51200 On ch=6 n=61 v=30
51216 Off ch=6 n=66 v=64
51240 Off ch=6 n=34 v=64
51240 On ch=6 n=35 v=34
51360 Off ch=6 n=61 v=64
51360 Off ch=6 n=35 v=64
51360 On ch=6 n=58 v=25
51360 On ch=6 n=34 v=34
51469 Off ch=6 n=58 v=64
51480 Off ch=6 n=34 v=64
51480 On ch=6 n=35 v=34
51505 On ch=6 n=66 v=30
51520 On ch=6 n=62 v=30
51536 Off ch=6 n=66 v=64
51600 Off ch=6 n=35 v=64
51600 On ch=6 n=34 v=34
51680 Off ch=6 n=62 v=64
51680 On ch=6 n=58 v=25
51720 Off ch=6 n=34 v=64
51720 On ch=6 n=35 v=34
51789 Off ch=6 n=58 v=64
51825 On ch=6 n=66 v=30
51840 Off ch=6 n=35 v=64
51840 On ch=6 n=61 v=30
51840 On ch=6 n=34 v=34
51856 Off ch=6 n=66 v=64
51960 Off ch=6 n=34 v=64
51960 On ch=6 n=35 v=34
52000 Off ch=6 n=61 v=64
52000 On ch=6 n=58 v=25
52080 Off ch=6 n=35 v=64
52080 On ch=6 n=34 v=34
52109 Off ch=6 n=58 v=64
52145 On ch=6 n=66 v=30
52160 On ch=6 n=62 v=30
52176 Off ch=6 n=66 v=64
52200 Off ch=6 n=34 v=64
52200 On ch=6 n=35 v=34
52320 Off ch=6 n=62 v=64
52320 Off ch=6 n=35 v=64
52320 On ch=6 n=58 v=25
52320 On ch=6 n=34 v=34
52429 Off ch=6 n=58 v=64
52440 Off ch=6 n=34 v=64
52440 On ch=6 n=35 v=34
52465 On ch=6 n=66 v=30
52480 On ch=6 n=61 v=30
52496 Off ch=6 n=66 v=64
52560 Off ch=6 n=35 v=64
52560 On ch=6 n=34 v=34
52640 Off ch=6 n=61 v=64
52640 On ch=6 n=58 v=25
52680 Off ch=6 n=34 v=64
52680 On ch=6 n=35 v=34
52749 Off ch=6 n=58 v=64
52785 On ch=6 n=66 v=30
52800 Off ch=6 n=35 v=64
52800 On ch=6 n=62 v=30
52800 On ch=6 n=34 v=34
52816 Off ch=6 n=66 v=64
52920 Off ch=6 n=34 v=64
52920 On ch=6 n=35 v=34
52960 Off ch=6 n=62 v=64
52960 On ch=6 n=58 v=25
53040 Off ch=6 n=35 v=64
53040 On ch=6 n=34 v=34
53069 Off ch=6 n=58 v=64
53105 On ch=6 n=66 v=30
53120 On ch=6 n=61 v=30
53136 Off ch=6 n=66 v=64
53160 Off ch=6 n=34 v=64
53160 On ch=6 n=35 v=34
53280 Off ch=6 n=61 v=64
53280 Off ch=6 n=35 v=64
53280 On ch=6 n=58 v=25
53280 On ch=6 n=34 v=34
53389 Off ch=6 n=58 v=64
53400 Off ch=6 n=34 v=64
53400 On ch=6 n=35 v=34
53425 On ch=6 n=66 v=30
53440 On ch=6 n=62 v=30
53456 Off ch=6 n=66 v=64
53520 Off ch=6 n=35 v=64
53520 On ch=6 n=34 v=34
53600 Off ch=6 n=62 v=64
53600 On ch=6 n=58 v=25
53640 Off ch=6 n=34 v=64
53640 On ch=6 n=35 v=34
53709 Off ch=6 n=58 v=64
53745 On ch=6 n=66 v=30
53760 Off ch=6 n=35 v=64
53760 On ch=6 n=61 v=30
53760 On ch=6 n=34 v=34
53776 Off ch=6 n=66 v=64
53880 Off ch=6 n=34 v=64
53880 On ch=6 n=35 v=34
53920 Off ch=6 n=61 v=64
53920 On ch=6 n=58 v=25
54000 Off ch=6 n=35 v=64
54000 On ch=6 n=34 v=34
54029 Off ch=6 n=58 v=64
54065 On ch=6 n=66 v=30
54080 On ch=6 n=62 v=30
54096 Off ch=6 n=66 v=64
54120 Off ch=6 n=34 v=64
54120 On ch=6 n=35 v=34
54240 Off ch=6 n=62 v=64
54240 Off ch=6 n=35 v=64
54240 On ch=6 n=58 v=25
54240 On ch=6 n=34 v=34
54349 Off ch=6 n=58 v=64
54360 Off ch=6 n=34 v=64
54360 On ch=6 n=35 v=34
54385 On ch=6 n=66 v=30
54400 On ch=6 n=61 v=30
54416 Off ch=6 n=66 v=64
54480 Off ch=6 n=35 v=64
54480 On ch=6 n=34 v=34
54560 Off ch=6 n=61 v=64
54560 On ch=6 n=58 v=25
54600 Off ch=6 n=34 v=64
54600 On ch=6 n=35 v=34
54669 Off ch=6 n=58 v=64
54705 On ch=6 n=66 v=30
54720 Off ch=6 n=35 v=64
54720 On ch=6 n=62 v=30
54720 On ch=6 n=34 v=34
54736 Off ch=6 n=66 v=64
54840 Off ch=6 n=34 v=64
54840 On ch=6 n=35 v=34
54880 Off ch=6 n=62 v=64
54880 On ch=6 n=58 v=25
54960 Off ch=6 n=35 v=64
54960 On ch=6 n=34 v=34
54989 Off ch=6 n=58 v=64
55025 On ch=6 n=66 v=30
55040 On ch=6 n=61 v=30
55056 Off ch=6 n=66 v=64
55080 Off ch=6 n=34 v=64
55080 On ch=6 n=35 v=34
55200 Off ch=6 n=61 v=64
55200 Off ch=6 n=35 v=64
55200 On ch=6 n=58 v=25
55200 On ch=6 n=34 v=34
55309 Off ch=6 n=58 v=64
55320 Off ch=6 n=34 v=64
55320 On ch=6 n=35 v=34
55345 On ch=6 n=66 v=30
55360 On ch=6 n=62 v=30
55376 Off ch=6 n=66 v=64
55440 Off ch=6 n=35 v=64
55440 On ch=6 n=34 v=34
55520 Off ch=6 n=62 v=64
55520 On ch=6 n=58 v=25
55560 Off ch=6 n=34 v=64
55560 On ch=6 n=35 v=34
55629 Off ch=6 n=58 v=64
55665 On ch=6 n=66 v=30
55680 Off ch=6 n=35 v=64
55680 On ch=6 n=61 v=30
55680 On ch=6 n=34 v=34
55696 Off ch=6 n=66 v=64
55800 Off ch=6 n=34 v=64
55800 On ch=6 n=35 v=34
55840 Off ch=6 n=61 v=64
55840 On ch=6 n=58 v=25
55920 Off ch=6 n=35 v=64
55920 On ch=6 n=34 v=34
55949 Off ch=6 n=58 v=64
55985 On ch=6 n=66 v=30
56000 On ch=6 n=62 v=30
56016 Off ch=6 n=66 v=64
56040 Off ch=6 n=34 v=64
56040 On ch=6 n=35 v=34
56160 Off ch=6 n=62 v=64
56160 Off ch=6 n=35 v=64
56160 On ch=6 n=58 v=25
56160 On ch=6 n=34 v=34
56269 Off ch=6 n=58 v=64
56280 Off ch=6 n=34 v=64
56280 On ch=6 n=35 v=34
56305 On ch=6 n=66 v=30
56320 On ch=6 n=61 v=30
56336 Off ch=6 n=66 v=64
56400 Off ch=6 n=35 v=64
56400 On ch=6 n=34 v=34
56480 Off ch=6 n=61 v=64
56480 On ch=6 n=58 v=25
56520 Off ch=6 n=34 v=64
56520 On ch=6 n=35 v=34
56589 Off ch=6 n=58 v=64
56640 Off ch=6 n=35 v=64
62868 On ch=6 n=50 v=33
62880 On ch=6 n=44 v=38
62880 On ch=6 n=43 v=38
62911 Off ch=6 n=50 v=64
63040 Off ch=6 n=44 v=64
63040 Off ch=6 n=43 v=64
63040 On ch=6 n=35 v=28
63040 On ch=6 n=40 v=28
63143 Off ch=6 n=35 v=64
63143 Off ch=6 n=40 v=64
63188 On ch=6 n=50 v=33
63200 On ch=6 n=43 v=38
63200 On ch=6 n=44 v=38
63231 Off ch=6 n=50 v=64
63360 Off ch=6 n=43 v=64
63360 Off ch=6 n=44 v=64
63360 On ch=6 n=40 v=28
63360 On ch=6 n=35 v=28
63463 Off ch=6 n=40 v=64
63463 Off ch=6 n=35 v=64
63508 On ch=6 n=50 v=33
63520 On ch=6 n=43 v=38
63520 On ch=6 n=44 v=38
63551 Off ch=6 n=50 v=64
63680 Off ch=6 n=43 v=64
63680 Off ch=6 n=44 v=64
63680 On ch=6 n=35 v=28
63680 On ch=6 n=40 v=28
63783 Off ch=6 n=35 v=64
63783 Off ch=6 n=40 v=64
63828 On ch=6 n=50 v=33
63840 On ch=6 n=44 v=38
63840 On ch=6 n=43 v=38
63871 Off ch=6 n=50 v=64
64000 Off ch=6 n=44 v=64
64000 Off ch=6 n=43 v=64
64000 On ch=6 n=35 v=28
64000 On ch=6 n=40 v=28
64103 Off ch=6 n=35 v=64
64103 Off ch=6 n=40 v=64
64148 On ch=6 n=50 v=33
64160 On ch=6 n=43 v=38
64160 On ch=6 n=44 v=38
64191 Off ch=6 n=50 v=64
64320 Off ch=6 n=43 v=64
64320 Off ch=6 n=44 v=64
64320 On ch=6 n=40 v=28
64320 On ch=6 n=35 v=28
64423 Off ch=6 n=40 v=64
64423 Off ch=6 n=35 v=64
64468 On ch=6 n=50 v=33
64480 On ch=6 n=43 v=38
64480 On ch=6 n=44 v=38
64511 Off ch=6 n=50 v=64
64640 Off ch=6 n=43 v=64
64640 Off ch=6 n=44 v=64
64640 On ch=6 n=35 v=28
64640 On ch=6 n=40 v=28
64743 Off ch=6 n=35 v=64
64743 Off ch=6 n=40 v=64
64788 On ch=6 n=50 v=33
64800 On ch=6 n=43 v=38
64800 On ch=6 n=44 v=38
64831 Off ch=6 n=50 v=64
64960 Off ch=6 n=43 v=64
64960 Off ch=6 n=44 v=64
64960 On ch=6 n=35 v=28
64960 On ch=6 n=40 v=28
65063 Off ch=6 n=35 v=64
65063 Off ch=6 n=40 v=64
65108 On ch=6 n=50 v=33
65120 On ch=6 n=43 v=38
65120 On ch=6 n=44 v=38
65151 Off ch=6 n=50 v=64
65280 Off ch=6 n=43 v=64
65280 Off ch=6 n=44 v=64
65280 On ch=6 n=35 v=28
65280 On ch=6 n=40 v=28
65383 Off ch=6 n=35 v=64
65383 Off ch=6 n=40 v=64
65428 On ch=6 n=50 v=33
65440 On ch=6 n=43 v=38
65440 On ch=6 n=44 v=38
65471 Off ch=6 n=50 v=64
65600 Off ch=6 n=43 v=64
65600 Off ch=6 n=44 v=64
65600 On ch=6 n=40 v=28
65600 On ch=6 n=35 v=28
65703 Off ch=6 n=40 v=64
65703 Off ch=6 n=35 v=64
65748 On ch=6 n=50 v=33
65760 On ch=6 n=43 v=38
65760 On ch=6 n=44 v=38
65791 Off ch=6 n=50 v=64
65920 Off ch=6 n=43 v=64
65920 Off ch=6 n=44 v=64
65920 On ch=6 n=35 v=28
65920 On ch=6 n=40 v=28
66023 Off ch=6 n=35 v=64
66023 Off ch=6 n=40 v=64
66068 On ch=6 n=50 v=33
66080 On ch=6 n=43 v=38
66080 On ch=6 n=44 v=38
66111 Off ch=6 n=50 v=64
66240 Off ch=6 n=43 v=64
66240 Off ch=6 n=44 v=64
66240 On ch=6 n=35 v=28
66240 On ch=6 n=40 v=28
66343 Off ch=6 n=35 v=64
66343 Off ch=6 n=40 v=64
66388 On ch=6 n=50 v=33
66400 On ch=6 n=43 v=38
66400 On ch=6 n=44 v=38
66431 Off ch=6 n=50 v=64
66560 Off ch=6 n=43 v=64
66560 Off ch=6 n=44 v=64
66560 On ch=6 n=40 v=28
66560 On ch=6 n=35 v=28
66663 Off ch=6 n=40 v=64
66663 Off ch=6 n=35 v=64
66708 On ch=6 n=50 v=33
66720 On ch=6 n=43 v=38
66720 On ch=6 n=44 v=38
66751 Off ch=6 n=50 v=64
66880 Off ch=6 n=43 v=64
66880 Off ch=6 n=44 v=64
66880 On ch=6 n=35 v=28
66880 On ch=6 n=40 v=28
66983 Off ch=6 n=35 v=64
66983 Off ch=6 n=40 v=64
67028 On ch=6 n=50 v=33
67040 On ch=6 n=43 v=38
67040 On ch=6 n=44 v=38
67071 Off ch=6 n=50 v=64
67200 Off ch=6 n=43 v=64
67200 Off ch=6 n=44 v=64
67200 On ch=6 n=35 v=28
67200 On ch=6 n=40 v=28
67303 Off ch=6 n=35 v=64
67303 Off ch=6 n=40 v=64
67348 On ch=6 n=50 v=33
67360 On ch=6 n=43 v=38
67360 On ch=6 n=44 v=38
67391 Off ch=6 n=50 v=64
67520 Off ch=6 n=43 v=64
67520 Off ch=6 n=44 v=64
67520 On ch=6 n=40 v=28
67520 On ch=6 n=35 v=28
67623 Off ch=6 n=40 v=64
67623 Off ch=6 n=35 v=64
67668 On ch=6 n=50 v=33
67680 On ch=6 n=43 v=38
67680 On ch=6 n=44 v=38
67711 Off ch=6 n=50 v=64
67840 Off ch=6 n=43 v=64
67840 Off ch=6 n=44 v=64
67840 On ch=6 n=35 v=28
67840 On ch=6 n=40 v=28
67943 Off ch=6 n=35 v=64
67943 Off ch=6 n=40 v=64
67988 On ch=6 n=50 v=33
68000 On ch=6 n=43 v=38
68000 On ch=6 n=44 v=38
68031 Off ch=6 n=50 v=64
68160 Off ch=6 n=43 v=64
68160 Off ch=6 n=44 v=64
68160 On ch=6 n=40 v=28
68160 On ch=6 n=35 v=28
68263 Off ch=6 n=40 v=64
68263 Off ch=6 n=35 v=64
68308 On ch=6 n=50 v=33
68308 On ch=6 n=62 v=33
68320 On ch=6 n=43 v=38
68320 On ch=6 n=55 v=38
68320 On ch=6 n=44 v=38
68320 On ch=6 n=56 v=38
68351 Off ch=6 n=50 v=64
68351 Off ch=6 n=62 v=64
68480 Off ch=6 n=43 v=64
68480 Off ch=6 n=55 v=64
68480 Off ch=6 n=44 v=64
68480 Off ch=6 n=56 v=64
68480 On ch=6 n=35 v=28
68480 On ch=6 n=47 v=28
68480 On ch=6 n=40 v=28
68480 On ch=6 n=52 v=28
68583 Off ch=6 n=35 v=64
68583 Off ch=6 n=47 v=64
68583 Off ch=6 n=40 v=64
68583 Off ch=6 n=52 v=64
68628 On ch=6 n=50 v=33
68628 On ch=6 n=62 v=33
68640 On ch=6 n=43 v=38
68640 On ch=6 n=55 v=38
68640 On ch=6 n=44 v=38
68640 On ch=6 n=56 v=38
68671 Off ch=6 n=50 v=64
68671 Off ch=6 n=62 v=64
68800 Off ch=6 n=43 v=64
68800 Off ch=6 n=55 v=64
68800 Off ch=6 n=44 v=64
68800 Off ch=6 n=56 v=64
68800 On ch=6 n=35 v=28
68800 On ch=6 n=47 v=28
68800 On ch=6 n=40 v=28
68800 On ch=6 n=52 v=28
68903 Off ch=6 n=35 v=64
68903 Off ch=6 n=47 v=64
68903 Off ch=6 n=40 v=64
68903 Off ch=6 n=52 v=64
68948 On ch=6 n=50 v=33
68948 On ch=6 n=62 v=33
68960 On ch=6 n=43 v=38
68960 On ch=6 n=55 v=38
68960 On ch=6 n=44 v=38
68960 On ch=6 n=56 v=38
68991 Off ch=6 n=50 v=64
68991 Off ch=6 n=62 v=64
69120 Off ch=6 n=43 v=64
69120 Off ch=6 n=55 v=64
69120 Off ch=6 n=44 v=64
69120 Off ch=6 n=56 v=64
69120 On ch=6 n=40 v=28
69120 On ch=6 n=52 v=28
69120 On ch=6 n=35 v=28
69120 On ch=6 n=47 v=28
69223 Off ch=6 n=40 v=64
69223 Off ch=6 n=52 v=64
69223 Off ch=6 n=35 v=64
69223 Off ch=6 n=47 v=64
69268 On ch=6 n=50 v=33
69268 On ch=6 n=62 v=33
69280 On ch=6 n=43 v=38
69280 On ch=6 n=55 v=38
69280 On ch=6 n=44 v=38
69280 On ch=6 n=56 v=38
69311 Off ch=6 n=50 v=64
69311 Off ch=6 n=62 v=64
69440 Off ch=6 n=43 v=64
69440 Off ch=6 n=55 v=64
69440 Off ch=6 n=44 v=64
69440 Off ch=6 n=56 v=64
69440 On ch=6 n=35 v=28
69440 On ch=6 n=47 v=28
69440 On ch=6 n=40 v=28
69440 On ch=6 n=52 v=28
69543 Off ch=6 n=35 v=64
69543 Off ch=6 n=47 v=64
69543 Off ch=6 n=40 v=64
69543 Off ch=6 n=52 v=64
69588 On ch=6 n=50 v=33
69588 On ch=6 n=62 v=33
69600 On ch=6 n=43 v=38
69600 On ch=6 n=55 v=38
69600 On ch=6 n=44 v=38
69600 On ch=6 n=56 v=38
69631 Off ch=6 n=50 v=64
69631 Off ch=6 n=62 v=64
69760 Off ch=6 n=43 v=64
69760 Off ch=6 n=55 v=64
69760 Off ch=6 n=44 v=64
69760 Off ch=6 n=56 v=64
69760 On ch=6 n=35 v=28
69760 On ch=6 n=47 v=28
69760 On ch=6 n=40 v=28
69760 On ch=6 n=52 v=28
69863 Off ch=6 n=35 v=64
69863 Off ch=6 n=47 v=64
69863 Off ch=6 n=40 v=64
69863 Off ch=6 n=52 v=64
69908 On ch=6 n=50 v=33
69908 On ch=6 n=62 v=33
69920 On ch=6 n=43 v=38
69920 On ch=6 n=55 v=38
69920 On ch=6 n=44 v=38
69920 On ch=6 n=56 v=38
69951 Off ch=6 n=50 v=64
69951 Off ch=6 n=62 v=64
70080 Off ch=6 n=43 v=64
70080 Off ch=6 n=55 v=64
70080 Off ch=6 n=44 v=64
70080 Off ch=6 n=56 v=64
70080 On ch=6 n=35 v=28
70080 On ch=6 n=47 v=28
70080 On ch=6 n=40 v=28
70080 On ch=6 n=52 v=28
70183 Off ch=6 n=35 v=64
70183 Off ch=6 n=47 v=64
70183 Off ch=6 n=40 v=64
70183 Off ch=6 n=52 v=64
70228 On ch=6 n=50 v=33
70228 On ch=6 n=62 v=33
70240 On ch=6 n=43 v=38
70240 On ch=6 n=55 v=38
70240 On ch=6 n=44 v=38
70240 On ch=6 n=56 v=38
70271 Off ch=6 n=50 v=64
70271 Off ch=6 n=62 v=64
70400 Off ch=6 n=43 v=64
70400 Off ch=6 n=55 v=64
70400 Off ch=6 n=44 v=64
70400 Off ch=6 n=56 v=64
70400 On ch=6 n=40 v=28
70400 On ch=6 n=52 v=28
70400 On ch=6 n=35 v=28
70400 On ch=6 n=47 v=28
70503 Off ch=6 n=40 v=64
70503 Off ch=6 n=52 v=64
70503 Off ch=6 n=35 v=64
70503 Off ch=6 n=47 v=64
70548 On ch=6 n=50 v=33
70548 On ch=6 n=62 v=33
70560 On ch=6 n=43 v=38
70560 On ch=6 n=55 v=38
70560 On ch=6 n=44 v=38
70560 On ch=6 n=56 v=38
70591 Off ch=6 n=50 v=64
70591 Off ch=6 n=62 v=64
70720 Off ch=6 n=43 v=64
70720 Off ch=6 n=55 v=64
70720 Off ch=6 n=44 v=64
70720 Off ch=6 n=56 v=64
70720 On ch=6 n=35 v=28
70720 On ch=6 n=47 v=28
70720 On ch=6 n=40 v=28
70720 On ch=6 n=52 v=28
70823 Off ch=6 n=35 v=64
70823 Off ch=6 n=47 v=64
70823 Off ch=6 n=40 v=64
70823 Off ch=6 n=52 v=64
70868 On ch=6 n=50 v=33
70868 On ch=6 n=62 v=33
70880 On ch=6 n=43 v=38
70880 On ch=6 n=55 v=38
70880 On ch=6 n=44 v=38
70880 On ch=6 n=56 v=38
70911 Off ch=6 n=50 v=64
70911 Off ch=6 n=62 v=64
71040 Off ch=6 n=43 v=64
71040 Off ch=6 n=55 v=64
71040 Off ch=6 n=44 v=64
71040 Off ch=6 n=56 v=64
71040 On ch=6 n=40 v=28
71040 On ch=6 n=52 v=28
71040 On ch=6 n=35 v=28
71040 On ch=6 n=47 v=28
71143 Off ch=6 n=40 v=64
71143 Off ch=6 n=52 v=64
71143 Off ch=6 n=35 v=64
71143 Off ch=6 n=47 v=64
71188 On ch=6 n=50 v=33
71188 On ch=6 n=62 v=33
71200 On ch=6 n=43 v=38
71200 On ch=6 n=55 v=38
71200 On ch=6 n=44 v=38
71200 On ch=6 n=56 v=38
71231 Off ch=6 n=50 v=64
71231 Off ch=6 n=62 v=64
71360 Off ch=6 n=43 v=64
71360 Off ch=6 n=55 v=64
71360 Off ch=6 n=44 v=64
71360 Off ch=6 n=56 v=64
71360 On ch=6 n=35 v=28
71360 On ch=6 n=47 v=28
71360 On ch=6 n=40 v=28
71360 On ch=6 n=52 v=28
71463 Off ch=6 n=35 v=64
71463 Off ch=6 n=47 v=64
71463 Off ch=6 n=40 v=64
71463 Off ch=6 n=52 v=64
71508 On ch=6 n=50 v=33
71508 On ch=6 n=62 v=33
71520 On ch=6 n=43 v=38
71520 On ch=6 n=55 v=38
71520 On ch=6 n=44 v=38
71520 On ch=6 n=56 v=38
71551 Off ch=6 n=50 v=64
71551 Off ch=6 n=62 v=64
71680 Off ch=6 n=43 v=64
71680 Off ch=6 n=55 v=64
71680 Off ch=6 n=44 v=64
71680 Off ch=6 n=56 v=64
71680 On ch=6 n=35 v=28
71680 On ch=6 n=47 v=28
71680 On ch=6 n=40 v=28
71680 On ch=6 n=52 v=28
71783 Off ch=6 n=35 v=64
71783 Off ch=6 n=47 v=64
71783 Off ch=6 n=40 v=64
71783 Off ch=6 n=52 v=64
71828 On ch=6 n=50 v=33
71828 On ch=6 n=62 v=33
71840 On ch=6 n=43 v=38
71840 On ch=6 n=55 v=38
71840 On ch=6 n=44 v=38
71840 On ch=6 n=56 v=38
71871 Off ch=6 n=50 v=64
71871 Off ch=6 n=62 v=64
72000 Off ch=6 n=43 v=64
72000 Off ch=6 n=55 v=64
72000 Off ch=6 n=44 v=64
72000 Off ch=6 n=56 v=64
72000 On ch=6 n=40 v=28
72000 On ch=6 n=52 v=28
72000 On ch=6 n=35 v=28
72000 On ch=6 n=47 v=28
72103 Off ch=6 n=40 v=64
72103 Off ch=6 n=52 v=64
72103 Off ch=6 n=35 v=64
72103 Off ch=6 n=47 v=64
72148 On ch=6 n=50 v=33
72148 On ch=6 n=62 v=33
72160 On ch=6 n=43 v=38
72160 On ch=6 n=55 v=38
72160 On ch=6 n=44 v=38
72160 On ch=6 n=56 v=38
72191 Off ch=6 n=50 v=64
72191 Off ch=6 n=62 v=64
72320 Off ch=6 n=43 v=64
72320 Off ch=6 n=55 v=64
72320 Off ch=6 n=44 v=64
72320 Off ch=6 n=56 v=64
72320 On ch=6 n=35 v=28
72320 On ch=6 n=47 v=28
72320 On ch=6 n=40 v=28
72320 On ch=6 n=52 v=28
72423 Off ch=6 n=35 v=64
72423 Off ch=6 n=47 v=64
72423 Off ch=6 n=40 v=64
72423 Off ch=6 n=52 v=64
72468 On ch=6 n=50 v=33
72468 On ch=6 n=62 v=33
72480 On ch=6 n=43 v=38
72480 On ch=6 n=55 v=38
72480 On ch=6 n=44 v=38
72480 On ch=6 n=56 v=38
72511 Off ch=6 n=50 v=64
72511 Off ch=6 n=62 v=64
72640 Off ch=6 n=43 v=64
72640 Off ch=6 n=55 v=64
72640 Off ch=6 n=44 v=64
72640 Off ch=6 n=56 v=64
72640 On ch=6 n=35 v=28
72640 On ch=6 n=47 v=28
72640 On ch=6 n=40 v=28
72640 On ch=6 n=52 v=28
72743 Off ch=6 n=35 v=64
72743 Off ch=6 n=47 v=64
72743 Off ch=6 n=40 v=64
72743 Off ch=6 n=52 v=64
72788 On ch=6 n=50 v=33
72788 On ch=6 n=62 v=33
72800 On ch=6 n=43 v=38
72800 On ch=6 n=55 v=38
72800 On ch=6 n=44 v=38
72800 On ch=6 n=56 v=38
72831 Off ch=6 n=50 v=64
72831 Off ch=6 n=62 v=64
72960 Off ch=6 n=43 v=64
72960 Off ch=6 n=55 v=64
72960 Off ch=6 n=44 v=64
72960 Off ch=6 n=56 v=64
72960 On ch=6 n=35 v=28
72960 On ch=6 n=47 v=28
72960 On ch=6 n=40 v=28
72960 On ch=6 n=52 v=28
73063 Off ch=6 n=35 v=64
73063 Off ch=6 n=47 v=64
73063 Off ch=6 n=40 v=64
73063 Off ch=6 n=52 v=64
73108 On ch=6 n=50 v=33
73108 On ch=6 n=62 v=33
73120 On ch=6 n=43 v=38
73120 On ch=6 n=55 v=38
73120 On ch=6 n=44 v=38
73120 On ch=6 n=56 v=38
73151 Off ch=6 n=50 v=64
73151 Off ch=6 n=62 v=64
73280 Off ch=6 n=43 v=64
73280 Off ch=6 n=55 v=64
73280 Off ch=6 n=44 v=64
73280 Off ch=6 n=56 v=64
73280 On ch=6 n=40 v=28
73280 On ch=6 n=52 v=28
73280 On ch=6 n=35 v=28
73280 On ch=6 n=47 v=28
73383 Off ch=6 n=40 v=64
73383 Off ch=6 n=52 v=64
73383 Off ch=6 n=35 v=64
73383 Off ch=6 n=47 v=64
73419 Par ch=6 c=7 v=44
73425 Par ch=6 c=7 v=44
73432 Par ch=6 c=7 v=45
73439 Par ch=6 c=7 v=46
73440 On ch=6 n=71 v=62
73445 Par ch=6 c=7 v=47
73452 Par ch=6 c=7 v=48
73459 Par ch=6 c=7 v=49
73465 Par ch=6 c=7 v=50
73472 Par ch=6 c=7 v=51
73479 Par ch=6 c=7 v=52
73486 Par ch=6 c=7 v=53
73492 Par ch=6 c=7 v=54
73499 Par ch=6 c=7 v=55
73506 Par ch=6 c=7 v=56
73512 Par ch=6 c=7 v=57
73519 Par ch=6 c=7 v=58
73526 Par ch=6 c=7 v=59
73532 Par ch=6 c=7 v=60
73539 Par ch=6 c=7 v=61
73546 Par ch=6 c=7 v=62
73552 Par ch=6 c=7 v=63
73559 Par ch=6 c=7 v=64
73566 Par ch=6 c=7 v=65
73573 Par ch=6 c=7 v=66
73579 Par ch=6 c=7 v=67
73586 Par ch=6 c=7 v=68
73593 Par ch=6 c=7 v=69
73599 Par ch=6 c=7 v=70
73606 Par ch=6 c=7 v=71
73613 Par ch=6 c=7 v=72
73619 Par ch=6 c=7 v=73
73626 Par ch=6 c=7 v=74
73633 Par ch=6 c=7 v=75
73640 Par ch=6 c=7 v=76
73646 Par ch=6 c=7 v=77
73653 Par ch=6 c=7 v=78
73660 Par ch=6 c=7 v=79
73666 Par ch=6 c=7 v=80
73673 Par ch=6 c=7 v=81
73680 Par ch=6 c=7 v=82
73686 Par ch=6 c=7 v=83
73693 Par ch=6 c=7 v=84
73700 Par ch=6 c=7 v=85
73706 Par ch=6 c=7 v=86
73713 Par ch=6 c=7 v=87
73720 Par ch=6 c=7 v=88
73727 Par ch=6 c=7 v=89
73733 Par ch=6 c=7 v=90
73740 Par ch=6 c=7 v=91
73747 Par ch=6 c=7 v=92
73753 Par ch=6 c=7 v=93
73760 Par ch=6 c=7 v=94
73767 Par ch=6 c=7 v=95
73773 Par ch=6 c=7 v=96
73780 Par ch=6 c=7 v=97
73787 Par ch=6 c=7 v=98
73793 Par ch=6 c=7 v=100
73851 On ch=6 n=70 v=42
73857 Off ch=6 n=71 v=64
73887 On ch=6 n=71 v=42
73893 Off ch=6 n=70 v=64
73920 On ch=6 n=70 v=48
73926 Off ch=6 n=71 v=64
74040 On ch=6 n=66 v=48
74046 Off ch=6 n=70 v=64
74160 Off ch=6 n=66 v=64
74160 On ch=6 n=63 v=48
74280 Off ch=6 n=63 v=64
74280 On ch=6 n=70 v=48
74400 Off ch=6 n=70 v=64
74400 On ch=6 n=68 v=48
74640 Off ch=6 n=68 v=64
74640 On ch=6 n=71 v=48
74823 On ch=6 n=70 v=48
74832 Off ch=6 n=71 v=64
74853 On ch=6 n=71 v=48
74865 Off ch=6 n=70 v=64
74880 On ch=6 n=70 v=48
74907 Off ch=6 n=71 v=64
75120 Off ch=6 n=70 v=64
75120 On ch=6 n=68 v=48
75360 Off ch=6 n=68 v=64
75360 On ch=6 n=73 v=48
75561 On ch=6 n=66 v=48
75576 Off ch=6 n=73 v=64
75600 On ch=6 n=68 v=48
75612 Off ch=6 n=66 v=64
75789 Off ch=6 n=68 v=64
75840 On ch=6 n=71 v=48
75894 On ch=6 n=70 v=48
75906 Off ch=6 n=71 v=64
75915 On ch=6 n=71 v=48
75924 Off ch=6 n=70 v=64
75936 On ch=6 n=70 v=48
75945 Off ch=6 n=71 v=64
76032 Off ch=6 n=70 v=64
76032 On ch=6 n=66 v=48
76128 Off ch=6 n=66 v=64
76128 On ch=6 n=63 v=48
76224 Off ch=6 n=63 v=64
76224 On ch=6 n=70 v=48
76320 Off ch=6 n=70 v=64
76320 On ch=6 n=68 v=48
78240 Off ch=6 n=68 v=64
78240 On ch=6 n=65 v=30
78480 Off ch=6 n=65 v=64
91680 Par ch=6 c=0 v=0
91680 Par ch=6 c=32 v=1
91680 PrCh ch=6 p=70
94560 On ch=6 n=55 v=46
94625 Off ch=6 n=55 v=64
94680 On ch=6 n=52 v=43
94745 Off ch=6 n=52 v=64
94800 On ch=6 n=48 v=40
94865 Off ch=6 n=48 v=64
94920 On ch=6 n=43 v=37
94985 Off ch=6 n=43 v=64
95040 On ch=6 n=40 v=48
95105 Off ch=6 n=40 v=64
95160 On ch=6 n=43 v=45
95225 Off ch=6 n=43 v=64
95280 On ch=6 n=47 v=42
95345 Off ch=6 n=47 v=64
95400 On ch=6 n=52 v=39
95465 Off ch=6 n=52 v=64
95520 On ch=6 n=55 v=48
95585 Off ch=6 n=55 v=64
95640 On ch=6 n=52 v=45
95705 Off ch=6 n=52 v=64
95760 On ch=6 n=48 v=42
95825 Off ch=6 n=48 v=64
95880 On ch=6 n=43 v=39
95945 Off ch=6 n=43 v=64
96000 On ch=6 n=40 v=48
96065 Off ch=6 n=40 v=64
96120 On ch=6 n=43 v=45
96185 Off ch=6 n=43 v=64
96240 On ch=6 n=47 v=41
96305 Off ch=6 n=47 v=64
96360 On ch=6 n=52 v=37
96425 Off ch=6 n=52 v=64
96480 On ch=6 n=55 v=48
96545 Off ch=6 n=55 v=64
96600 On ch=6 n=52 v=44
96665 Off ch=6 n=52 v=64
96720 On ch=6 n=48 v=41
96785 Off ch=6 n=48 v=64
96840 On ch=6 n=43 v=37
96905 Off ch=6 n=43 v=64
96960 On ch=6 n=40 v=48
97025 Off ch=6 n=40 v=64
97080 On ch=6 n=43 v=44
97145 Off ch=6 n=43 v=64
97200 On ch=6 n=47 v=42
97265 Off ch=6 n=47 v=64
97320 On ch=6 n=52 v=40
97385 Off ch=6 n=52 v=64
97440 On ch=6 n=55 v=48
97505 Off ch=6 n=55 v=64
97560 On ch=6 n=52 v=43
97625 Off ch=6 n=52 v=64
97680 On ch=6 n=48 v=41
97745 Off ch=6 n=48 v=64
97800 On ch=6 n=43 v=38
97865 Off ch=6 n=43 v=64
97920 On ch=6 n=40 v=46
97985 Off ch=6 n=40 v=64
98040 On ch=6 n=43 v=42
98105 Off ch=6 n=43 v=64
98160 On ch=6 n=47 v=39
98225 Off ch=6 n=47 v=64
98280 On ch=6 n=52 v=36
98345 Off ch=6 n=52 v=64
127440 On ch=6 n=46 v=96
127440 On ch=6 n=58 v=96
127533 Off ch=6 n=46 v=64
127533 Off ch=6 n=58 v=64
127680 On ch=6 n=46 v=74
127680 On ch=6 n=58 v=74
127773 Off ch=6 n=46 v=64
127773 Off ch=6 n=58 v=64
127920 On ch=6 n=58 v=96
127920 On ch=6 n=46 v=96
128013 Off ch=6 n=58 v=64
128013 Off ch=6 n=46 v=64
128160 On ch=6 n=58 v=74
128160 On ch=6 n=46 v=74
128253 Off ch=6 n=58 v=64
128253 Off ch=6 n=46 v=64
128400 On ch=6 n=58 v=96
128400 On ch=6 n=46 v=96
128493 Off ch=6 n=58 v=64
128493 Off ch=6 n=46 v=64
128640 On ch=6 n=58 v=74
128640 On ch=6 n=46 v=74
128733 Off ch=6 n=58 v=64
128733 Off ch=6 n=46 v=64
128880 On ch=6 n=58 v=100
128880 On ch=6 n=46 v=100
128973 Off ch=6 n=58 v=64
128973 Off ch=6 n=46 v=64
129120 On ch=6 n=46 v=100
129120 On ch=6 n=58 v=100
129213 Off ch=6 n=46 v=64
129213 Off ch=6 n=58 v=64
129360 On ch=6 n=56 v=74
129360 On ch=6 n=44 v=74
129453 Off ch=6 n=56 v=64
129453 Off ch=6 n=44 v=64
129600 On ch=6 n=55 v=74
129600 On ch=6 n=43 v=74
129693 Off ch=6 n=55 v=64
129693 Off ch=6 n=43 v=64
129840 On ch=6 n=53 v=74
129840 On ch=6 n=41 v=74
129933 Off ch=6 n=53 v=64
129933 Off ch=6 n=41 v=64
130080 On ch=6 n=43 v=74
130080 On ch=6 n=55 v=74
130173 Off ch=6 n=43 v=64
130173 Off ch=6 n=55 v=64
132240 On ch=6 n=41 v=74
132240 On ch=6 n=53 v=74
132333 Off ch=6 n=41 v=64
132333 Off ch=6 n=53 v=64
132480 On ch=6 n=55 v=74
132480 On ch=6 n=43 v=74
132573 Off ch=6 n=55 v=64
132573 Off ch=6 n=43 v=64
132720 On ch=6 n=56 v=74
132720 On ch=6 n=44 v=74
132813 Off ch=6 n=56 v=64
132813 Off ch=6 n=44 v=64
132960 On ch=6 n=58 v=74
132960 On ch=6 n=46 v=74
133053 Off ch=6 n=58 v=64
133053 Off ch=6 n=46 v=64
133200 On ch=6 n=56 v=74
133200 On ch=6 n=44 v=74
133293 Off ch=6 n=56 v=64
133293 Off ch=6 n=44 v=64
133440 On ch=6 n=55 v=74
133440 On ch=6 n=43 v=74
133533 Off ch=6 n=55 v=64
133533 Off ch=6 n=43 v=64
133680 On ch=6 n=53 v=74
133680 On ch=6 n=41 v=74
133773 Off ch=6 n=53 v=64
133773 Off ch=6 n=41 v=64
133920 On ch=6 n=55 v=74
133920 On ch=6 n=43 v=74
134013 Off ch=6 n=55 v=64
134013 Off ch=6 n=43 v=64
137520 On ch=6 n=41 v=74
137520 On ch=6 n=53 v=74
137613 Off ch=6 n=41 v=64
137613 Off ch=6 n=53 v=64
137760 On ch=6 n=55 v=74
137760 On ch=6 n=43 v=74
137853 Off ch=6 n=55 v=64
137853 Off ch=6 n=43 v=64
138000 On ch=6 n=56 v=74
138000 On ch=6 n=44 v=74
138093 Off ch=6 n=56 v=64
138093 Off ch=6 n=44 v=64
138240 On ch=6 n=58 v=74
138240 On ch=6 n=46 v=74
138333 Off ch=6 n=58 v=64
138333 Off ch=6 n=46 v=64
138480 On ch=6 n=56 v=74
138480 On ch=6 n=44 v=74
138573 Off ch=6 n=56 v=64
138573 Off ch=6 n=44 v=64
138720 On ch=6 n=55 v=74
138720 On ch=6 n=43 v=74
138813 Off ch=6 n=55 v=64
138813 Off ch=6 n=43 v=64
138960 On ch=6 n=53 v=74
138960 On ch=6 n=41 v=74
139053 Off ch=6 n=53 v=64
139053 Off ch=6 n=41 v=64
139200 On ch=6 n=43 v=74
139200 On ch=6 n=55 v=74
139293 Off ch=6 n=43 v=64
139293 Off ch=6 n=55 v=64
143760 On ch=6 n=58 v=94
143760 On ch=6 n=46 v=94
143853 Off ch=6 n=58 v=64
143853 Off ch=6 n=46 v=64
144000 On ch=6 n=46 v=74
144000 On ch=6 n=58 v=74
144093 Off ch=6 n=46 v=64
144093 Off ch=6 n=58 v=64
144240 On ch=6 n=58 v=96
144240 On ch=6 n=46 v=96
144333 Off ch=6 n=58 v=64
144333 Off ch=6 n=46 v=64
144480 On ch=6 n=58 v=74
144480 On ch=6 n=46 v=74
144573 Off ch=6 n=58 v=64
144573 Off ch=6 n=46 v=64
144720 On ch=6 n=58 v=96
144720 On ch=6 n=46 v=96
144813 Off ch=6 n=58 v=64
144813 Off ch=6 n=46 v=64
144960 On ch=6 n=58 v=74
144960 On ch=6 n=46 v=74
145053 Off ch=6 n=58 v=64
145053 Off ch=6 n=46 v=64
145200 On ch=6 n=58 v=96
145200 On ch=6 n=46 v=96
145293 Off ch=6 n=58 v=64
145293 Off ch=6 n=46 v=64
145440 On ch=6 n=58 v=100
145440 On ch=6 n=46 v=100
145533 Off ch=6 n=58 v=64
145533 Off ch=6 n=46 v=64
145680 On ch=6 n=56 v=74
145680 On ch=6 n=44 v=74
145773 Off ch=6 n=56 v=64
145773 Off ch=6 n=44 v=64
145920 On ch=6 n=55 v=74
145920 On ch=6 n=43 v=74
146013 Off ch=6 n=55 v=64
146013 Off ch=6 n=43 v=64
146160 On ch=6 n=41 v=74
146160 On ch=6 n=53 v=74
146253 Off ch=6 n=41 v=64
146253 Off ch=6 n=53 v=64
146400 On ch=6 n=55 v=74
146400 On ch=6 n=43 v=74
146493 Off ch=6 n=55 v=64
146493 Off ch=6 n=43 v=64
147600 On ch=6 n=53 v=74
147600 On ch=6 n=41 v=74
147693 Off ch=6 n=53 v=64
147693 Off ch=6 n=41 v=64
147840 On ch=6 n=55 v=74
147840 On ch=6 n=43 v=74
147933 Off ch=6 n=55 v=64
147933 Off ch=6 n=43 v=64
148080 On ch=6 n=56 v=74
148080 On ch=6 n=44 v=74
148173 Off ch=6 n=56 v=64
148173 Off ch=6 n=44 v=64
148320 On ch=6 n=46 v=74
148320 On ch=6 n=58 v=74
148413 Off ch=6 n=46 v=64
148413 Off ch=6 n=58 v=64
148560 On ch=6 n=56 v=74
148560 On ch=6 n=44 v=74
148653 Off ch=6 n=56 v=64
148653 Off ch=6 n=44 v=64
148800 On ch=6 n=55 v=74
148800 On ch=6 n=43 v=74
148893 Off ch=6 n=55 v=64
148893 Off ch=6 n=43 v=64
149040 On ch=6 n=41 v=74
149040 On ch=6 n=53 v=74
149133 Off ch=6 n=41 v=64
149133 Off ch=6 n=53 v=64
149280 On ch=6 n=55 v=74
149280 On ch=6 n=43 v=74
149373 Off ch=6 n=55 v=64
149373 Off ch=6 n=43 v=64
150480 On ch=6 n=41 v=74
150480 On ch=6 n=53 v=74
150573 Off ch=6 n=41 v=64
150573 Off ch=6 n=53 v=64
150720 On ch=6 n=55 v=74
150720 On ch=6 n=43 v=74
150813 Off ch=6 n=55 v=64
150813 Off ch=6 n=43 v=64
150960 On ch=6 n=56 v=74
150960 On ch=6 n=44 v=74
151053 Off ch=6 n=56 v=64
151053 Off ch=6 n=44 v=64
151200 On ch=6 n=46 v=74
151200 On ch=6 n=58 v=74
151293 Off ch=6 n=46 v=64
151293 Off ch=6 n=58 v=64
151440 On ch=6 n=56 v=74
151440 On ch=6 n=44 v=74
151533 Off ch=6 n=56 v=64
151533 Off ch=6 n=44 v=64
151680 On ch=6 n=55 v=74
151680 On ch=6 n=43 v=74
151773 Off ch=6 n=55 v=64
151773 Off ch=6 n=43 v=64
151920 On ch=6 n=41 v=74
151920 On ch=6 n=53 v=74
152013 Off ch=6 n=41 v=64
152013 Off ch=6 n=53 v=64
152160 On ch=6 n=55 v=74
152160 On ch=6 n=43 v=74
152253 Off ch=6 n=55 v=64
152253 Off ch=6 n=43 v=64
197280 On ch=6 n=37 v=46
201120 Off ch=6 n=37 v=64
201120 On ch=6 n=37 v=46
204960 Off ch=6 n=37 v=64
204960 On ch=6 n=37 v=46
208800 Off ch=6 n=37 v=64
208800 On ch=6 n=37 v=46
212640 Off ch=6 n=37 v=64
212640 On ch=6 n=37 v=46
214548 Off ch=6 n=37 v=64
224400 On ch=6 n=44 v=72
224676 Off ch=6 n=44 v=64
224880 On ch=6 n=43 v=72
225156 Off ch=6 n=43 v=64
225360 On ch=6 n=30 v=72
225636 Off ch=6 n=30 v=64
225840 On ch=6 n=31 v=72
226116 Off ch=6 n=31 v=64
228240 On ch=6 n=44 v=72
228516 Off ch=6 n=44 v=64
228720 On ch=6 n=43 v=72
228996 Off ch=6 n=43 v=64
229200 On ch=6 n=30 v=72
229476 Off ch=6 n=30 v=64
229680 On ch=6 n=31 v=72
229893 Off ch=6 n=31 v=64
231120 On ch=6 n=41 v=76
231572 Off ch=6 n=41 v=64
231600 On ch=6 n=43 v=76
231730 Off ch=6 n=43 v=64
233040 On ch=6 n=41 v=76
233492 Off ch=6 n=41 v=64
233520 On ch=6 n=43 v=76
233650 Off ch=6 n=43 v=64
234000 On ch=6 n=41 v=76
234317 Off ch=6 n=41 v=64
234480 On ch=6 n=39 v=76
234797 Off ch=6 n=39 v=64
234960 On ch=6 n=29 v=76
234960 On ch=6 n=41 v=76
235277 Off ch=6 n=29 v=64
235277 Off ch=6 n=41 v=64
235440 On ch=6 n=31 v=76
235440 On ch=6 n=43 v=76
235757 Off ch=6 n=31 v=64
235757 Off ch=6 n=43 v=64
235920 On ch=6 n=41 v=76
236237 Off ch=6 n=41 v=64
236400 On ch=6 n=39 v=76
236717 Off ch=6 n=39 v=64
236880 On ch=6 n=29 v=76
236880 On ch=6 n=41 v=76
237197 Off ch=6 n=29 v=64
237197 Off ch=6 n=41 v=64
237360 On ch=6 n=31 v=76
237360 On ch=6 n=43 v=76
237677 Off ch=6 n=31 v=64
237677 Off ch=6 n=43 v=64
237840 On ch=6 n=41 v=76
237840 On ch=6 n=53 v=76
238157 Off ch=6 n=41 v=64
238157 Off ch=6 n=53 v=64
238320 On ch=6 n=39 v=76
238320 On ch=6 n=51 v=76
238637 Off ch=6 n=39 v=64
238637 Off ch=6 n=51 v=64
238800 On ch=6 n=29 v=76
238800 On ch=6 n=41 v=76
239117 Off ch=6 n=29 v=64
239117 Off ch=6 n=41 v=64
239280 On ch=6 n=31 v=76
239280 On ch=6 n=43 v=76
239597 Off ch=6 n=31 v=64
239597 Off ch=6 n=43 v=64
239760 On ch=6 n=41 v=76
239760 On ch=6 n=53 v=76
240077 Off ch=6 n=41 v=64
240077 Off ch=6 n=53 v=64
240240 On ch=6 n=39 v=76
240240 On ch=6 n=51 v=76
240557 Off ch=6 n=39 v=64
240557 Off ch=6 n=51 v=64
240720 On ch=6 n=29 v=76
240720 On ch=6 n=41 v=76
241037 Off ch=6 n=29 v=64
241037 Off ch=6 n=41 v=64
241200 On ch=6 n=31 v=76
241200 On ch=6 n=43 v=76
241517 Off ch=6 n=31 v=64
241517 Off ch=6 n=43 v=64
241680 On ch=6 n=41 v=94
241997 Off ch=6 n=41 v=64
242160 On ch=6 n=39 v=94
242477 Off ch=6 n=39 v=64
242640 On ch=6 n=29 v=94
242957 Off ch=6 n=29 v=64
243120 On ch=6 n=31 v=94
243437 Off ch=6 n=31 v=64
243600 On ch=6 n=41 v=94
243917 Off ch=6 n=41 v=64
244080 On ch=6 n=39 v=94
244397 Off ch=6 n=39 v=64
244560 On ch=6 n=29 v=118
244793 Off ch=6 n=29 v=64
245040 On ch=6 n=31 v=118
245273 Off ch=6 n=31 v=64
245520 On ch=6 n=41 v=94
245837 Off ch=6 n=41 v=64
246000 On ch=6 n=39 v=94
246317 Off ch=6 n=39 v=64
246480 On ch=6 n=29 v=94
246797 Off ch=6 n=29 v=64
246960 On ch=6 n=31 v=94
247277 Off ch=6 n=31 v=64
247440 On ch=6 n=41 v=94
247757 Off ch=6 n=41 v=64
247920 On ch=6 n=39 v=94
248237 Off ch=6 n=39 v=64
248400 On ch=6 n=29 v=120
248633 Off ch=6 n=29 v=64
248880 On ch=6 n=31 v=120
249113 Off ch=6 n=31 v=64
249360 On ch=6 n=41 v=94
249677 Off ch=6 n=41 v=64
249840 On ch=6 n=39 v=94
250157 Off ch=6 n=39 v=64
250320 On ch=6 n=29 v=94
250637 Off ch=6 n=29 v=64
250800 On ch=6 n=31 v=94
251117 Off ch=6 n=31 v=64
251280 On ch=6 n=41 v=94
251597 Off ch=6 n=41 v=64
251760 On ch=6 n=39 v=94
252077 Off ch=6 n=39 v=64
252240 On ch=6 n=29 v=120
252473 Off ch=6 n=29 v=64
252720 On ch=6 n=31 v=120
252953 Off ch=6 n=31 v=64
263760 On ch=6 n=56 v=48
263880 Off ch=6 n=56 v=64
264000 On ch=6 n=60 v=48
264120 Off ch=6 n=60 v=64
264240 On ch=6 n=63 v=48
264360 Off ch=6 n=63 v=64
264480 On ch=6 n=66 v=48
264600 Off ch=6 n=66 v=64
264720 On ch=6 n=69 v=48
264840 Off ch=6 n=69 v=64
264960 On ch=6 n=71 v=48
265080 Off ch=6 n=71 v=64
265200 On ch=6 n=56 v=48
265320 Off ch=6 n=56 v=64
265440 On ch=6 n=60 v=48
265560 Off ch=6 n=60 v=64
265680 On ch=6 n=63 v=48
265800 Off ch=6 n=63 v=64
265920 On ch=6 n=66 v=48
266040 Off ch=6 n=66 v=64
266160 On ch=6 n=69 v=48
266280 Off ch=6 n=69 v=64
266400 On ch=6 n=71 v=48
266520 Off ch=6 n=71 v=64
266640 On ch=6 n=56 v=48
266760 Off ch=6 n=56 v=64
266880 On ch=6 n=60 v=48
267000 Off ch=6 n=60 v=64
267120 On ch=6 n=63 v=48
267240 Off ch=6 n=63 v=64
267360 On ch=6 n=66 v=48
267480 Off ch=6 n=66 v=64
267600 On ch=6 n=69 v=48
267720 Off ch=6 n=69 v=64
267840 On ch=6 n=71 v=48
267960 Off ch=6 n=71 v=64
268080 On ch=6 n=56 v=48
268200 Off ch=6 n=56 v=64
268320 On ch=6 n=60 v=48
268440 Off ch=6 n=60 v=64
268560 On ch=6 n=63 v=48
268680 Off ch=6 n=63 v=64
268800 On ch=6 n=66 v=48
268920 Off ch=6 n=66 v=64
269040 On ch=6 n=69 v=48
269160 Off ch=6 n=69 v=64
269280 On ch=6 n=71 v=48
269400 Off ch=6 n=71 v=64
287520 On ch=6 n=56 v=48
287640 Off ch=6 n=56 v=64
287760 On ch=6 n=60 v=48
287880 Off ch=6 n=60 v=64
288000 On ch=6 n=63 v=48
288120 Off ch=6 n=63 v=64
288240 On ch=6 n=66 v=48
288360 Off ch=6 n=66 v=64
288480 On ch=6 n=69 v=48
288600 Off ch=6 n=69 v=64
288720 On ch=6 n=71 v=48
288840 Off ch=6 n=71 v=64
288960 On ch=6 n=56 v=48
289080 Off ch=6 n=56 v=64
289200 On ch=6 n=60 v=48
289320 Off ch=6 n=60 v=64
289440 On ch=6 n=63 v=48
289560 Off ch=6 n=63 v=64
289680 On ch=6 n=66 v=48
289800 Off ch=6 n=66 v=64
289920 On ch=6 n=69 v=48
290040 Off ch=6 n=69 v=64
290160 On ch=6 n=71 v=48
290280 Off ch=6 n=71 v=64
290400 On ch=6 n=56 v=48
290520 Off ch=6 n=56 v=64
290640 On ch=6 n=60 v=48
290760 Off ch=6 n=60 v=64
290880 On ch=6 n=63 v=48
291000 Off ch=6 n=63 v=64
291120 On ch=6 n=66 v=48
291240 Off ch=6 n=66 v=64
291360 On ch=6 n=69 v=48
291480 Off ch=6 n=69 v=64
291600 On ch=6 n=71 v=48
291720 Off ch=6 n=71 v=64
305520 On ch=6 n=55 v=64
305520 On ch=6 n=67 v=64
305520 On ch=6 n=61 v=64
305640 Off ch=6 n=55 v=64
305640 Off ch=6 n=67 v=64
305640 Off ch=6 n=61 v=64
305760 On ch=6 n=67 v=61
305760 On ch=6 n=61 v=61
305760 On ch=6 n=55 v=61
305880 Off ch=6 n=67 v=64
305880 Off ch=6 n=61 v=64
305880 Off ch=6 n=55 v=64
306000 On ch=6 n=67 v=58
306000 On ch=6 n=55 v=58
306000 On ch=6 n=61 v=58
306120 Off ch=6 n=67 v=64
306120 Off ch=6 n=55 v=64
306120 Off ch=6 n=61 v=64
306240 On ch=6 n=55 v=56
306240 On ch=6 n=61 v=56
306240 On ch=6 n=67 v=56
306360 Off ch=6 n=55 v=64
306360 Off ch=6 n=61 v=64
306360 Off ch=6 n=67 v=64
306480 On ch=6 n=55 v=53
306480 On ch=6 n=67 v=53
306480 On ch=6 n=61 v=53
306600 Off ch=6 n=55 v=64
306600 Off ch=6 n=67 v=64
306600 Off ch=6 n=61 v=64
306720 On ch=6 n=67 v=51
306720 On ch=6 n=61 v=51
306720 On ch=6 n=55 v=51
306840 Off ch=6 n=67 v=64
306840 Off ch=6 n=61 v=64
306840 Off ch=6 n=55 v=64
306960 On ch=6 n=67 v=65
306960 On ch=6 n=55 v=65
306960 On ch=6 n=61 v=65
307080 Off ch=6 n=67 v=64
307080 Off ch=6 n=55 v=64
307080 Off ch=6 n=61 v=64
307200 On ch=6 n=55 v=62
307200 On ch=6 n=61 v=62
307200 On ch=6 n=67 v=62
307320 Off ch=6 n=55 v=64
307320 Off ch=6 n=61 v=64
307320 Off ch=6 n=67 v=64
307440 On ch=6 n=55 v=59
307440 On ch=6 n=67 v=59
307440 On ch=6 n=61 v=59
307560 Off ch=6 n=55 v=64
307560 Off ch=6 n=67 v=64
307560 Off ch=6 n=61 v=64
307680 On ch=6 n=67 v=56
307680 On ch=6 n=61 v=56
307680 On ch=6 n=55 v=56
307800 Off ch=6 n=67 v=64
307800 Off ch=6 n=61 v=64
307800 Off ch=6 n=55 v=64
307920 On ch=6 n=67 v=54
307920 On ch=6 n=55 v=54
307920 On ch=6 n=61 v=54
308040 Off ch=6 n=67 v=64
308040 Off ch=6 n=55 v=64
308040 Off ch=6 n=61 v=64
308160 On ch=6 n=55 v=51
308160 On ch=6 n=61 v=51
308160 On ch=6 n=67 v=51
308280 Off ch=6 n=55 v=64
308280 Off ch=6 n=61 v=64
308280 Off ch=6 n=67 v=64
308400 On ch=6 n=55 v=64
308400 On ch=6 n=67 v=64
308400 On ch=6 n=61 v=64
308520 Off ch=6 n=55 v=64
308520 Off ch=6 n=67 v=64
308520 Off ch=6 n=61 v=64
311520 On ch=6 n=55 v=66
311520 On ch=6 n=67 v=66
311520 On ch=6 n=61 v=66
311640 Off ch=6 n=55 v=64
311640 Off ch=6 n=67 v=64
311640 Off ch=6 n=61 v=64
311760 On ch=6 n=67 v=62
311760 On ch=6 n=61 v=62
311760 On ch=6 n=55 v=62
311880 Off ch=6 n=67 v=64
311880 Off ch=6 n=61 v=64
311880 Off ch=6 n=55 v=64
312000 On ch=6 n=67 v=59
312000 On ch=6 n=55 v=59
312000 On ch=6 n=61 v=59
312120 Off ch=6 n=67 v=64
312120 Off ch=6 n=55 v=64
312120 Off ch=6 n=61 v=64
312240 On ch=6 n=55 v=56
312240 On ch=6 n=61 v=56
312240 On ch=6 n=67 v=56
312360 Off ch=6 n=55 v=64
312360 Off ch=6 n=61 v=64
312360 Off ch=6 n=67 v=64
312480 On ch=6 n=55 v=53
312480 On ch=6 n=67 v=53
312480 On ch=6 n=61 v=53
312600 Off ch=6 n=55 v=64
312600 Off ch=6 n=67 v=64
312600 Off ch=6 n=61 v=64
312720 On ch=6 n=67 v=50
312720 On ch=6 n=61 v=50
312720 On ch=6 n=55 v=50
312840 Off ch=6 n=67 v=64
312840 Off ch=6 n=61 v=64
312840 Off ch=6 n=55 v=64
312960 On ch=6 n=67 v=64
312960 On ch=6 n=55 v=64
312960 On ch=6 n=61 v=64
313080 Off ch=6 n=67 v=64
313080 Off ch=6 n=55 v=64
313080 Off ch=6 n=61 v=64
313200 On ch=6 n=55 v=58
313200 On ch=6 n=61 v=58
313200 On ch=6 n=67 v=58
313320 Off ch=6 n=55 v=64
313320 Off ch=6 n=61 v=64
313320 Off ch=6 n=67 v=64
313440 On ch=6 n=55 v=52
313440 On ch=6 n=67 v=52
313440 On ch=6 n=61 v=52
313560 Off ch=6 n=55 v=64
313560 Off ch=6 n=67 v=64
313560 Off ch=6 n=61 v=64
313680 On ch=6 n=67 v=46
313680 On ch=6 n=61 v=46
313680 On ch=6 n=55 v=46
313800 Off ch=6 n=67 v=64
313800 Off ch=6 n=61 v=64
313800 Off ch=6 n=55 v=64
313920 On ch=6 n=67 v=64
313920 On ch=6 n=55 v=64
313920 On ch=6 n=61 v=64
314040 Off ch=6 n=67 v=64
314040 Off ch=6 n=55 v=64
314040 Off ch=6 n=61 v=64
315360 Par ch=6 c=0 v=0
315360 Par ch=6 c=32 v=2
315360 PrCh ch=6 p=60
316800 On ch=6 n=74 v=104
317202 Off ch=6 n=74 v=64
317280 On ch=6 n=69 v=88
317412 Off ch=6 n=69 v=64
317520 On ch=6 n=74 v=104
317922 Off ch=6 n=74 v=64
318000 On ch=6 n=69 v=88
318132 Off ch=6 n=69 v=64
318240 On ch=6 n=74 v=104
318642 Off ch=6 n=74 v=64
318720 On ch=6 n=69 v=86
318852 Off ch=6 n=69 v=64
318960 On ch=6 n=74 v=108
319083 Off ch=6 n=74 v=64
319200 On ch=6 n=69 v=98
319323 Off ch=6 n=69 v=64
319440 On ch=6 n=74 v=98
319563 Off ch=6 n=74 v=64
319680 On ch=6 n=69 v=94
320460 Off ch=6 n=69 v=64
320640 On ch=6 n=74 v=98
320763 Off ch=6 n=74 v=64
320880 On ch=6 n=69 v=98
321003 Off ch=6 n=69 v=64
321120 On ch=6 n=74 v=98
321243 Off ch=6 n=74 v=64
321360 On ch=6 n=69 v=98
321483 Off ch=6 n=69 v=64
321600 On ch=6 n=74 v=98
321723 Off ch=6 n=74 v=64
321840 On ch=6 n=69 v=94
322611 Off ch=6 n=69 v=64
327600 On ch=6 n=61 v=80
327600 On ch=6 n=68 v=80
327744 Off ch=6 n=61 v=64
327744 Off ch=6 n=68 v=64
327840 On ch=6 n=61 v=80
327840 On ch=6 n=68 v=80
327984 Off ch=6 n=61 v=64
327984 Off ch=6 n=68 v=64
328080 On ch=6 n=68 v=80
328080 On ch=6 n=61 v=80
328224 Off ch=6 n=68 v=64
328224 Off ch=6 n=61 v=64
328320 On ch=6 n=58 v=80
328320 On ch=6 n=65 v=80
328464 Off ch=6 n=58 v=64
328464 Off ch=6 n=65 v=64
328560 On ch=6 n=58 v=80
328560 On ch=6 n=65 v=80
328704 Off ch=6 n=58 v=64
328704 Off ch=6 n=65 v=64
328800 On ch=6 n=58 v=80
328800 On ch=6 n=65 v=80
328944 Off ch=6 n=58 v=64
328944 Off ch=6 n=65 v=64
329040 On ch=6 n=55 v=74
329040 On ch=6 n=66 v=74
329040 On ch=6 n=67 v=74
329184 Off ch=6 n=55 v=64
329184 Off ch=6 n=66 v=64
329184 Off ch=6 n=67 v=64
329280 On ch=6 n=66 v=74
329280 On ch=6 n=67 v=74
329424 Off ch=6 n=66 v=64
329424 Off ch=6 n=67 v=64
329520 On ch=6 n=66 v=74
329520 On ch=6 n=67 v=74
329664 Off ch=6 n=66 v=64
329664 Off ch=6 n=67 v=64
329760 On ch=6 n=64 v=74
329760 On ch=6 n=63 v=74
329904 Off ch=6 n=64 v=64
329904 Off ch=6 n=63 v=64
330000 On ch=6 n=64 v=74
330000 On ch=6 n=63 v=74
330144 Off ch=6 n=64 v=64
330144 Off ch=6 n=63 v=64
330240 On ch=6 n=64 v=74
330240 On ch=6 n=63 v=74
330384 Off ch=6 n=64 v=64
330384 Off ch=6 n=63 v=64
330480 On ch=6 n=58 v=66
330480 On ch=6 n=65 v=66
330624 Off ch=6 n=58 v=64
330624 Off ch=6 n=65 v=64
331680 On ch=6 n=51 v=127
331680 On ch=6 n=63 v=127
331788 Off ch=6 n=51 v=64
331788 Off ch=6 n=63 v=64
331920 On ch=6 n=58 v=127
331920 On ch=6 n=70 v=127
333990 Off ch=6 n=58 v=64
333990 Off ch=6 n=70 v=64
342720 On ch=6 n=54 v=83
342720 On ch=6 n=57 v=83
342720 On ch=6 n=60 v=83
342946 Off ch=6 n=54 v=64
342946 Off ch=6 n=57 v=64
342946 Off ch=6 n=60 v=64
348960 On ch=6 n=54 v=83
348960 On ch=6 n=57 v=83
348960 On ch=6 n=60 v=83
349186 Off ch=6 n=54 v=64
349186 Off ch=6 n=57 v=64
349186 Off ch=6 n=60 v=64
350880 On ch=6 n=54 v=83
350880 On ch=6 n=57 v=83
350880 On ch=6 n=60 v=83
351106 Off ch=6 n=54 v=64
351106 Off ch=6 n=57 v=64
351106 Off ch=6 n=60 v=64
351360 On ch=6 n=54 v=83
351360 On ch=6 n=57 v=83
351360 On ch=6 n=60 v=83
351586 Off ch=6 n=54 v=64
351586 Off ch=6 n=57 v=64
351586 Off ch=6 n=60 v=64
355200 On ch=6 n=54 v=83
355200 On ch=6 n=57 v=83
355200 On ch=6 n=60 v=83
355426 Off ch=6 n=54 v=64
355426 Off ch=6 n=57 v=64
355426 Off ch=6 n=60 v=64
357120 On ch=6 n=66 v=83
357120 On ch=6 n=69 v=83
357120 On ch=6 n=57 v=83
357346 Off ch=6 n=66 v=64
357346 Off ch=6 n=69 v=64
357346 Off ch=6 n=57 v=64
358560 On ch=6 n=66 v=83
358560 On ch=6 n=69 v=83
358560 On ch=6 n=57 v=83
358786 Off ch=6 n=66 v=64
358786 Off ch=6 n=69 v=64
358786 Off ch=6 n=57 v=64
360000 On ch=6 n=66 v=83
360000 On ch=6 n=69 v=83
360000 On ch=6 n=57 v=83
360226 Off ch=6 n=66 v=64
360226 Off ch=6 n=69 v=64
360226 Off ch=6 n=57 v=64
360960 On ch=6 n=66 v=83
360960 On ch=6 n=69 v=83
360960 On ch=6 n=57 v=83
361186 Off ch=6 n=66 v=64
361186 Off ch=6 n=69 v=64
361186 Off ch=6 n=57 v=64
416640 Par ch=6 c=0 v=0
416640 Par ch=6 c=32 v=1
416640 PrCh ch=6 p=60
422400 On ch=6 n=27 v=32
422400 On ch=6 n=34 v=32
424323 Off ch=6 n=27 v=64
424323 Off ch=6 n=34 v=64
428160 On ch=6 n=27 v=32
428160 On ch=6 n=34 v=32
431739 Off ch=6 n=27 v=64
431739 Off ch=6 n=34 v=64
432000 On ch=6 n=65 v=54
432000 On ch=6 n=58 v=54
432000 On ch=6 n=70 v=54
432000 On ch=6 n=66 v=54
432432 Off ch=6 n=65 v=64
432432 Off ch=6 n=58 v=64
432432 Off ch=6 n=70 v=64
432432 Off ch=6 n=66 v=64
432480 On ch=6 n=58 v=54
432480 On ch=6 n=70 v=54
432480 On ch=6 n=65 v=54
432480 On ch=6 n=66 v=54
432912 Off ch=6 n=58 v=64
432912 Off ch=6 n=70 v=64
432912 Off ch=6 n=65 v=64
432912 Off ch=6 n=66 v=64
432960 On ch=6 n=65 v=54
432960 On ch=6 n=58 v=54
432960 On ch=6 n=70 v=54
432960 On ch=6 n=66 v=54
433392 Off ch=6 n=65 v=64
433392 Off ch=6 n=58 v=64
433392 Off ch=6 n=70 v=64
433392 Off ch=6 n=66 v=64
433920 On ch=6 n=70 v=54
433920 On ch=6 n=58 v=54
433920 On ch=6 n=65 v=54
433920 On ch=6 n=66 v=54
434352 Off ch=6 n=70 v=64
434352 Off ch=6 n=58 v=64
434352 Off ch=6 n=65 v=64
434352 Off ch=6 n=66 v=64
434400 On ch=6 n=58 v=54
434400 On ch=6 n=66 v=54
434400 On ch=6 n=65 v=54
434400 On ch=6 n=70 v=54
434832 Off ch=6 n=58 v=64
434832 Off ch=6 n=66 v=64
434832 Off ch=6 n=65 v=64
434832 Off ch=6 n=70 v=64
434880 On ch=6 n=58 v=54
434880 On ch=6 n=66 v=54
434880 On ch=6 n=70 v=54
434880 On ch=6 n=65 v=54
435312 Off ch=6 n=58 v=64
435312 Off ch=6 n=66 v=64
435312 Off ch=6 n=70 v=64
435312 Off ch=6 n=65 v=64
439680 On ch=6 n=65 v=56
439680 On ch=6 n=58 v=56
439680 On ch=6 n=70 v=56
439680 On ch=6 n=66 v=56
440124 Off ch=6 n=65 v=64
440124 Off ch=6 n=58 v=64
440124 Off ch=6 n=70 v=64
440124 Off ch=6 n=66 v=64
440160 On ch=6 n=65 v=56
440160 On ch=6 n=58 v=56
440160 On ch=6 n=70 v=56
440160 On ch=6 n=66 v=56
440604 Off ch=6 n=65 v=64
440604 Off ch=6 n=58 v=64
440604 Off ch=6 n=70 v=64
440604 Off ch=6 n=66 v=64
440640 On ch=6 n=65 v=56
440640 On ch=6 n=70 v=56
440640 On ch=6 n=58 v=56
440640 On ch=6 n=66 v=56
441084 Off ch=6 n=65 v=64
441084 Off ch=6 n=70 v=64
441084 Off ch=6 n=58 v=64
441084 Off ch=6 n=66 v=64
441120 On ch=6 n=68 v=56
441120 On ch=6 n=60 v=56
441120 On ch=6 n=72 v=56
441120 On ch=6 n=66 v=56
441360 Off ch=6 n=68 v=64
441360 Off ch=6 n=60 v=64
441360 Off ch=6 n=72 v=64
441360 Off ch=6 n=66 v=64
441360 On ch=6 n=68 v=56
441360 On ch=6 n=70 v=56
441360 On ch=6 n=73 v=56
441360 On ch=6 n=61 v=56
441600 Off ch=6 n=68 v=64
441600 Off ch=6 n=70 v=64
441600 Off ch=6 n=73 v=64
441600 Off ch=6 n=61 v=64
441600 On ch=6 n=70 v=56
441600 On ch=6 n=72 v=56
441600 On ch=6 n=75 v=56
441600 On ch=6 n=63 v=56
442080 On ch=6 n=68 v=56
442080 On ch=6 n=70 v=56
442080 On ch=6 n=73 v=56
442080 On ch=6 n=61 v=56
442081 Off ch=6 n=70 v=64
442081 Off ch=6 n=72 v=64
442081 Off ch=6 n=75 v=64
442081 Off ch=6 n=63 v=64
442558 Off ch=6 n=68 v=64
442558 Off ch=6 n=70 v=64
442558 Off ch=6 n=73 v=64
442558 Off ch=6 n=61 v=64
442560 On ch=6 n=60 v=54
442560 On ch=6 n=68 v=54
442560 On ch=6 n=72 v=54
442560 On ch=6 n=66 v=54
443038 Off ch=6 n=60 v=64
443038 Off ch=6 n=68 v=64
443038 Off ch=6 n=72 v=64
443038 Off ch=6 n=66 v=64
443040 On ch=6 n=65 v=56
443040 On ch=6 n=58 v=56
443040 On ch=6 n=70 v=56
443040 On ch=6 n=66 v=56
443496 Off ch=6 n=65 v=64
443496 Off ch=6 n=58 v=64
443496 Off ch=6 n=70 v=64
443496 Off ch=6 n=66 v=64
443520 On ch=6 n=58 v=56
443520 On ch=6 n=65 v=56
443520 On ch=6 n=70 v=56
443520 On ch=6 n=66 v=56
443976 Off ch=6 n=58 v=64
443976 Off ch=6 n=65 v=64
443976 Off ch=6 n=70 v=64
443976 Off ch=6 n=66 v=64
444000 On ch=6 n=60 v=56
444000 On ch=6 n=68 v=56
444000 On ch=6 n=72 v=56
444000 On ch=6 n=66 v=56
444240 Off ch=6 n=60 v=64
444240 Off ch=6 n=68 v=64
444240 Off ch=6 n=72 v=64
444240 Off ch=6 n=66 v=64
444240 On ch=6 n=68 v=56
444240 On ch=6 n=70 v=56
444240 On ch=6 n=73 v=56
444240 On ch=6 n=61 v=56
444480 Off ch=6 n=68 v=64
444480 Off ch=6 n=70 v=64
444480 Off ch=6 n=73 v=64
444480 Off ch=6 n=61 v=64
444480 On ch=6 n=72 v=56
444480 On ch=6 n=70 v=56
444480 On ch=6 n=75 v=56
444480 On ch=6 n=63 v=56
444924 Off ch=6 n=72 v=64
444924 Off ch=6 n=70 v=64
444924 Off ch=6 n=75 v=64
444924 Off ch=6 n=63 v=64
457440 On ch=6 n=27 v=32
457440 On ch=6 n=34 v=32
459603 Off ch=6 n=27 v=64
459603 Off ch=6 n=34 v=64
461280 On ch=6 n=27 v=32
461280 On ch=6 n=34 v=32
464633 Off ch=6 n=27 v=64
464635 Off ch=6 n=34 v=64
524160 Meta TrkEnd
TrkEnd
MTrk
0 Meta InstrName "SC-88VL"
0 Meta TrkName "Horn/ob"
480 Par ch=7 c=0 v=0
480 Par ch=7 c=32 v=1
480 PrCh ch=7 p=60
960 Par ch=7 c=93 v=0
960 Par ch=7 c=91 v=110
970 Par ch=7 c=7 v=100
3840 On ch=7 n=61 v=44
4480 On ch=7 n=62 v=44
4495 Off ch=7 n=61 v=64
5760 On ch=7 n=61 v=44
5773 Off ch=7 n=62 v=64
6841 Off ch=7 n=61 v=64
24960 On ch=7 n=56 v=40
24960 On ch=7 n=64 v=40
24960 On ch=7 n=47 v=40
30720 On ch=7 n=45 v=34
30720 On ch=7 n=34 v=34
30720 On ch=7 n=65 v=41
30728 Off ch=7 n=56 v=64
30728 Off ch=7 n=64 v=64
30728 Off ch=7 n=47 v=64
31416 Off ch=7 n=65 v=64
31440 On ch=7 n=64 v=41
32376 Off ch=7 n=64 v=64
32400 On ch=7 n=65 v=41
32856 Off ch=7 n=65 v=64
32880 On ch=7 n=64 v=41
33336 Off ch=7 n=64 v=64
33360 On ch=7 n=65 v=41
33592 Off ch=7 n=45 v=64
33592 Off ch=7 n=34 v=64
33600 On ch=7 n=38 v=30
33600 On ch=7 n=35 v=30
33816 Off ch=7 n=65 v=64
33840 Off ch=7 n=38 v=64
33840 Off ch=7 n=35 v=64
44160 On ch=7 n=62 v=42
47019 Off ch=7 n=62 v=64
47040 On ch=7 n=59 v=53
47160 Off ch=7 n=59 v=64
47160 On ch=7 n=61 v=51
47280 Off ch=7 n=61 v=64
47280 On ch=7 n=59 v=48
47400 Off ch=7 n=59 v=64
47400 On ch=7 n=61 v=46
47520 Off ch=7 n=61 v=64
47520 On ch=7 n=59 v=44
47640 Off ch=7 n=59 v=64
47640 On ch=7 n=61 v=41
47760 Off ch=7 n=61 v=64
47760 On ch=7 n=59 v=39
47880 Off ch=7 n=59 v=64
47880 On ch=7 n=61 v=37
48000 Off ch=7 n=61 v=64
48000 On ch=7 n=62 v=42
48915 Off ch=7 n=62 v=64
48960 On ch=7 n=59 v=48
49080 Off ch=7 n=59 v=64
49080 On ch=7 n=61 v=47
49200 Off ch=7 n=61 v=64
49200 On ch=7 n=59 v=46
49320 Off ch=7 n=59 v=64
49320 On ch=7 n=61 v=46
49440 Off ch=7 n=61 v=64
49440 On ch=7 n=59 v=45
49560 Off ch=7 n=59 v=64
49560 On ch=7 n=61 v=44
49680 Off ch=7 n=61 v=64
49680 On ch=7 n=59 v=44
49800 Off ch=7 n=59 v=64
49800 On ch=7 n=61 v=43
49920 Off ch=7 n=61 v=64
49920 On ch=7 n=59 v=42
50040 Off ch=7 n=59 v=64
50040 On ch=7 n=61 v=42
50160 Off ch=7 n=61 v=64
50160 On ch=7 n=59 v=41
50280 Off ch=7 n=59 v=64
50280 On ch=7 n=61 v=40
50400 Off ch=7 n=61 v=64
50400 On ch=7 n=59 v=40
50520 Off ch=7 n=59 v=64
50520 On ch=7 n=61 v=39
50640 Off ch=7 n=61 v=64
50640 On ch=7 n=59 v=39
50760 Off ch=7 n=59 v=64
50760 On ch=7 n=61 v=38
50880 Off ch=7 n=61 v=64
68320 On ch=7 n=56 v=56
68320 On ch=7 n=55 v=56
68480 Off ch=7 n=56 v=64
68480 Off ch=7 n=55 v=64
68640 On ch=7 n=56 v=56
68640 On ch=7 n=55 v=56
68800 Off ch=7 n=56 v=64
68800 Off ch=7 n=55 v=64
68960 On ch=7 n=56 v=56
68960 On ch=7 n=55 v=56
69120 Off ch=7 n=56 v=64
69120 Off ch=7 n=55 v=64
69280 On ch=7 n=56 v=56
69280 On ch=7 n=55 v=56
69440 Off ch=7 n=56 v=64
69440 Off ch=7 n=55 v=64
69600 On ch=7 n=56 v=56
69600 On ch=7 n=55 v=56
69760 Off ch=7 n=56 v=64
69760 Off ch=7 n=55 v=64
69920 On ch=7 n=56 v=56
69920 On ch=7 n=55 v=56
70080 Off ch=7 n=56 v=64
70080 Off ch=7 n=55 v=64
70240 On ch=7 n=56 v=56
70240 On ch=7 n=55 v=56
70400 Off ch=7 n=56 v=64
70400 Off ch=7 n=55 v=64
70560 On ch=7 n=56 v=56
70560 On ch=7 n=55 v=56
70720 Off ch=7 n=56 v=64
70720 Off ch=7 n=55 v=64
70880 On ch=7 n=56 v=56
70880 On ch=7 n=55 v=56
71040 Off ch=7 n=56 v=64
71040 Off ch=7 n=55 v=64
71200 On ch=7 n=56 v=56
71200 On ch=7 n=55 v=56
71360 Off ch=7 n=56 v=64
71360 Off ch=7 n=55 v=64
71520 On ch=7 n=56 v=56
71520 On ch=7 n=55 v=56
71680 Off ch=7 n=56 v=64
71680 Off ch=7 n=55 v=64
71840 On ch=7 n=56 v=56
71840 On ch=7 n=55 v=56
72000 Off ch=7 n=56 v=64
72000 Off ch=7 n=55 v=64
72160 On ch=7 n=56 v=56
72160 On ch=7 n=55 v=56
72320 Off ch=7 n=56 v=64
72320 Off ch=7 n=55 v=64
72480 On ch=7 n=56 v=56
72480 On ch=7 n=55 v=56
72640 Off ch=7 n=56 v=64
72640 Off ch=7 n=55 v=64
72800 On ch=7 n=56 v=56
72800 On ch=7 n=55 v=56
72960 Off ch=7 n=56 v=64
72960 Off ch=7 n=55 v=64
73120 On ch=7 n=55 v=56
73120 On ch=7 n=56 v=56
73280 Off ch=7 n=55 v=64
73280 Off ch=7 n=56 v=64
89040 On ch=7 n=63 v=104
89040 On ch=7 n=61 v=94
89136 Off ch=7 n=63 v=64
89136 Off ch=7 n=61 v=64
89520 On ch=7 n=63 v=104
89520 On ch=7 n=61 v=94
89616 Off ch=7 n=63 v=64
89616 Off ch=7 n=61 v=64
90960 On ch=7 n=63 v=104
90960 On ch=7 n=61 v=94
91056 Off ch=7 n=63 v=64
91056 Off ch=7 n=61 v=64
91680 On ch=7 n=63 v=104
91680 On ch=7 n=61 v=94
91776 Off ch=7 n=63 v=64
91776 Off ch=7 n=61 v=64
92640 On ch=7 n=63 v=104
92640 On ch=7 n=61 v=94
92736 Off ch=7 n=63 v=64
92736 Off ch=7 n=61 v=64
93840 On ch=7 n=63 v=104
93840 On ch=7 n=61 v=94
93936 Off ch=7 n=63 v=64
93936 Off ch=7 n=61 v=64
99600 On ch=7 n=63 v=104
99600 On ch=7 n=61 v=94
99696 Off ch=7 n=63 v=64
99696 Off ch=7 n=61 v=64
100080 On ch=7 n=63 v=104
100080 On ch=7 n=61 v=94
100176 Off ch=7 n=63 v=64
100176 Off ch=7 n=61 v=64
101520 On ch=7 n=63 v=104
101520 On ch=7 n=61 v=94
101616 Off ch=7 n=63 v=64
101616 Off ch=7 n=61 v=64
109920 Par ch=7 c=0 v=0
109920 Par ch=7 c=32 v=1
109920 PrCh ch=7 p=59
110910 Par ch=7 c=7 v=64
111120 On ch=7 n=51 v=96
111530 Off ch=7 n=51 v=64
111600 On ch=7 n=51 v=90
111645 Off ch=7 n=51 v=64
111680 On ch=7 n=51 v=70
111725 Off ch=7 n=51 v=64
111760 On ch=7 n=51 v=70
111805 Off ch=7 n=51 v=64
113280 On ch=7 n=51 v=96
113325 Off ch=7 n=51 v=64
113360 On ch=7 n=51 v=76
113405 Off ch=7 n=51 v=64
113440 On ch=7 n=51 v=76
113485 Off ch=7 n=51 v=64
114000 On ch=7 n=51 v=96
114400 Off ch=7 n=51 v=64
114480 On ch=7 n=51 v=90
114525 Off ch=7 n=51 v=64
114560 On ch=7 n=51 v=70
114605 Off ch=7 n=51 v=64
114640 On ch=7 n=51 v=70
114685 Off ch=7 n=51 v=64
119360 On ch=7 n=62 v=127
119515 Off ch=7 n=62 v=64
119868 Par ch=7 c=0 v=0
119868 Par ch=7 c=32 v=1
119868 PrCh ch=7 p=60
120230 Par ch=7 c=7 v=82
120240 Par ch=7 c=7 v=100
120339 Par ch=7 c=7 v=100
121680 On ch=7 n=63 v=104
121680 On ch=7 n=61 v=94
121776 Off ch=7 n=63 v=64
121776 Off ch=7 n=61 v=64
122160 On ch=7 n=63 v=104
122160 On ch=7 n=61 v=94
122256 Off ch=7 n=63 v=64
122256 Off ch=7 n=61 v=64
123600 On ch=7 n=63 v=104
123600 On ch=7 n=61 v=94
123696 Off ch=7 n=63 v=64
123696 Off ch=7 n=61 v=64
124320 On ch=7 n=63 v=104
124320 On ch=7 n=61 v=94
124416 Off ch=7 n=63 v=64
124416 Off ch=7 n=61 v=64
125280 On ch=7 n=63 v=104
125280 On ch=7 n=61 v=94
125376 Off ch=7 n=63 v=64
125376 Off ch=7 n=61 v=64
126480 On ch=7 n=63 v=104
126480 On ch=7 n=61 v=94
126576 Off ch=7 n=63 v=64
126576 Off ch=7 n=61 v=64
152400 Par ch=7 c=0 v=0
152400 Par ch=7 c=32 v=2
152400 PrCh ch=7 p=60
153080 Par ch=7 c=7 v=76
153369 Par ch=7 c=7 v=76
153600 On ch=7 n=27 v=22
153600 On ch=7 n=39 v=22
153600 On ch=7 n=51 v=117
153600 On ch=7 n=63 v=117
154080 Off ch=7 n=27 v=64
154080 Off ch=7 n=39 v=64
154080 Off ch=7 n=51 v=64
154080 Off ch=7 n=63 v=64
154560 On ch=7 n=29 v=108
154560 On ch=7 n=41 v=108
155040 Off ch=7 n=29 v=64
155040 Off ch=7 n=41 v=64
167520 Par ch=7 c=0 v=0
167520 Par ch=7 c=32 v=1
167520 PrCh ch=7 p=60
171360 On ch=7 n=67 v=64
171600 Off ch=7 n=67 v=64
171600 On ch=7 n=69 v=64
171720 Off ch=7 n=69 v=64
171720 On ch=7 n=65 v=50
171840 Off ch=7 n=65 v=64
171840 On ch=7 n=67 v=64
172080 Off ch=7 n=67 v=64
172080 On ch=7 n=72 v=64
172320 Off ch=7 n=72 v=64
172320 On ch=7 n=70 v=64
172560 Off ch=7 n=70 v=64
172560 On ch=7 n=69 v=64
172680 Off ch=7 n=69 v=64
172680 On ch=7 n=67 v=50
172800 Off ch=7 n=67 v=64
172800 On ch=7 n=69 v=64
173040 Off ch=7 n=69 v=64
173040 On ch=7 n=65 v=64
173280 Off ch=7 n=65 v=64
173280 On ch=7 n=67 v=64
173870 Off ch=7 n=67 v=64
173935 On ch=7 n=72 v=64
174000 On ch=7 n=69 v=64
174010 Off ch=7 n=72 v=64
174240 Off ch=7 n=69 v=64
174240 On ch=7 n=67 v=56
177135 Off ch=7 n=67 v=64
177290 On ch=7 n=72 v=64
177360 On ch=7 n=69 v=64
177380 Off ch=7 n=72 v=64
177600 Off ch=7 n=69 v=64
177600 On ch=7 n=67 v=60
178811 Off ch=7 n=67 v=64
180960 Par ch=7 c=0 v=0
180960 Par ch=7 c=32 v=1
180960 PrCh ch=7 p=59
185760 On ch=7 n=74 v=68
185860 Off ch=7 n=74 v=64
186000 On ch=7 n=73 v=68
186100 Off ch=7 n=73 v=64
186240 On ch=7 n=72 v=68
186290 Off ch=7 n=72 v=64
186400 On ch=7 n=71 v=68
186450 Off ch=7 n=71 v=64
186560 On ch=7 n=70 v=68
186615 Off ch=7 n=70 v=64
187680 Par ch=7 c=0 v=0
187680 Par ch=7 c=32 v=1
187680 PrCh ch=7 p=60
188640 On ch=7 n=61 v=54
188724 Off ch=7 n=61 v=64
188880 On ch=7 n=58 v=54
188964 Off ch=7 n=58 v=64
189120 On ch=7 n=63 v=54
189204 Off ch=7 n=63 v=64
189360 On ch=7 n=58 v=54
189444 Off ch=7 n=58 v=64
189600 On ch=7 n=61 v=54
189684 Off ch=7 n=61 v=64
189840 On ch=7 n=58 v=54
189924 Off ch=7 n=58 v=64
190080 On ch=7 n=63 v=54
190164 Off ch=7 n=63 v=64
190320 On ch=7 n=58 v=54
190404 Off ch=7 n=58 v=64
190560 On ch=7 n=61 v=54
190644 Off ch=7 n=61 v=64
190800 On ch=7 n=58 v=54
190884 Off ch=7 n=58 v=64
191040 On ch=7 n=63 v=54
191124 Off ch=7 n=63 v=64
191280 On ch=7 n=58 v=54
191364 Off ch=7 n=58 v=64
191520 On ch=7 n=61 v=54
191604 Off ch=7 n=61 v=64
191760 On ch=7 n=58 v=54
191844 Off ch=7 n=58 v=64
192000 On ch=7 n=63 v=54
192084 Off ch=7 n=63 v=64
192240 On ch=7 n=58 v=54
192324 Off ch=7 n=58 v=64
192480 On ch=7 n=61 v=54
192564 Off ch=7 n=61 v=64
192720 On ch=7 n=58 v=54
192804 Off ch=7 n=58 v=64
192960 On ch=7 n=63 v=54
193044 Off ch=7 n=63 v=64
193200 On ch=7 n=58 v=54
193284 Off ch=7 n=58 v=64
193440 On ch=7 n=61 v=54
193524 Off ch=7 n=61 v=64
193680 On ch=7 n=58 v=54
193764 Off ch=7 n=58 v=64
193920 On ch=7 n=63 v=54
194004 Off ch=7 n=63 v=64
194160 On ch=7 n=58 v=54
194244 Off ch=7 n=58 v=64
194400 On ch=7 n=61 v=54
194484 Off ch=7 n=61 v=64
194640 On ch=7 n=58 v=54
194724 Off ch=7 n=58 v=64
194880 On ch=7 n=63 v=54
194964 Off ch=7 n=63 v=64
195120 On ch=7 n=58 v=54
195204 Off ch=7 n=58 v=64
195360 On ch=7 n=61 v=54
195444 Off ch=7 n=61 v=64
195600 On ch=7 n=58 v=54
195684 Off ch=7 n=58 v=64
195840 On ch=7 n=63 v=54
195924 Off ch=7 n=63 v=64
196080 On ch=7 n=58 v=54
196164 Off ch=7 n=58 v=64
196320 On ch=7 n=61 v=54
196404 Off ch=7 n=61 v=64
196560 On ch=7 n=58 v=54
196644 Off ch=7 n=58 v=64
196800 On ch=7 n=63 v=54
196884 Off ch=7 n=63 v=64
197040 On ch=7 n=58 v=54
197124 Off ch=7 n=58 v=64
208665 Par ch=7 c=7 v=64
208800 On ch=7 n=46 v=78
208800 On ch=7 n=61 v=83
208800 On ch=7 n=27 v=78
208800 On ch=7 n=43 v=78
208805 Par ch=7 c=7 v=64
208829 Par ch=7 c=7 v=63
208854 Par ch=7 c=7 v=62
208879 Par ch=7 c=7 v=61
208904 Par ch=7 c=7 v=59
208928 Par ch=7 c=7 v=59
208953 Par ch=7 c=7 v=58
208978 Par ch=7 c=7 v=57
209002 Par ch=7 c=7 v=56
209027 Par ch=7 c=7 v=55
209052 Par ch=7 c=7 v=54
209077 Par ch=7 c=7 v=53
209101 Par ch=7 c=7 v=52
209126 Par ch=7 c=7 v=51
209151 Par ch=7 c=7 v=50
209175 Par ch=7 c=7 v=49
209200 Par ch=7 c=7 v=48
209225 Par ch=7 c=7 v=47
209250 Par ch=7 c=7 v=46
209274 Par ch=7 c=7 v=45
209299 Par ch=7 c=7 v=44
209324 Par ch=7 c=7 v=43
209348 Par ch=7 c=7 v=42
209373 Par ch=7 c=7 v=41
209398 Par ch=7 c=7 v=40
209423 Par ch=7 c=7 v=39
209447 Par ch=7 c=7 v=38
209472 Par ch=7 c=7 v=37
209497 Par ch=7 c=7 v=36
209521 Par ch=7 c=7 v=35
209546 Par ch=7 c=7 v=34
209571 Par ch=7 c=7 v=33
209596 Par ch=7 c=7 v=32
209620 Par ch=7 c=7 v=31
209645 Par ch=7 c=7 v=30
209670 Par ch=7 c=7 v=29
209694 Par ch=7 c=7 v=28
209710 Off ch=7 n=46 v=64
209710 Off ch=7 n=61 v=64
209710 Off ch=7 n=27 v=64
209710 Off ch=7 n=43 v=64
209730 Par ch=7 c=7 v=64
209760 On ch=7 n=46 v=78
209760 On ch=7 n=61 v=83
209760 On ch=7 n=27 v=78
209760 On ch=7 n=43 v=78
209765 Par ch=7 c=7 v=64
209789 Par ch=7 c=7 v=63
209814 Par ch=7 c=7 v=62
209839 Par ch=7 c=7 v=61
209864 Par ch=7 c=7 v=59
209888 Par ch=7 c=7 v=59
209913 Par ch=7 c=7 v=58
209938 Par ch=7 c=7 v=57
209962 Par ch=7 c=7 v=56
209987 Par ch=7 c=7 v=55
210012 Par ch=7 c=7 v=54
210037 Par ch=7 c=7 v=53
210061 Par ch=7 c=7 v=52
210086 Par ch=7 c=7 v=51
210111 Par ch=7 c=7 v=50
210135 Par ch=7 c=7 v=49
210160 Par ch=7 c=7 v=48
210185 Par ch=7 c=7 v=47
210210 Par ch=7 c=7 v=46
210234 Par ch=7 c=7 v=45
210259 Par ch=7 c=7 v=44
210284 Par ch=7 c=7 v=43
210308 Par ch=7 c=7 v=42
210333 Par ch=7 c=7 v=41
210358 Par ch=7 c=7 v=40
210383 Par ch=7 c=7 v=39
210407 Par ch=7 c=7 v=38
210432 Par ch=7 c=7 v=37
210457 Par ch=7 c=7 v=36
210481 Par ch=7 c=7 v=35
210506 Par ch=7 c=7 v=34
210531 Par ch=7 c=7 v=33
210556 Par ch=7 c=7 v=32
210580 Par ch=7 c=7 v=31
210605 Par ch=7 c=7 v=30
210630 Par ch=7 c=7 v=29
210654 Par ch=7 c=7 v=28
210670 Off ch=7 n=46 v=64
210670 Off ch=7 n=61 v=64
210670 Off ch=7 n=27 v=64
210670 Off ch=7 n=43 v=64
210690 Par ch=7 c=7 v=64
210720 On ch=7 n=46 v=78
210720 On ch=7 n=61 v=83
210720 On ch=7 n=27 v=78
210720 On ch=7 n=43 v=78
210725 Par ch=7 c=7 v=64
210749 Par ch=7 c=7 v=63
210774 Par ch=7 c=7 v=62
210799 Par ch=7 c=7 v=61
210824 Par ch=7 c=7 v=59
210848 Par ch=7 c=7 v=59
210873 Par ch=7 c=7 v=58
210898 Par ch=7 c=7 v=57
210922 Par ch=7 c=7 v=56
210947 Par ch=7 c=7 v=55
210972 Par ch=7 c=7 v=54
210997 Par ch=7 c=7 v=53
211021 Par ch=7 c=7 v=52
211046 Par ch=7 c=7 v=51
211071 Par ch=7 c=7 v=50
211095 Par ch=7 c=7 v=49
211120 Par ch=7 c=7 v=48
211145 Par ch=7 c=7 v=47
211170 Par ch=7 c=7 v=46
211194 Par ch=7 c=7 v=45
211219 Par ch=7 c=7 v=44
211244 Par ch=7 c=7 v=43
211268 Par ch=7 c=7 v=42
211293 Par ch=7 c=7 v=41
211318 Par ch=7 c=7 v=40
211343 Par ch=7 c=7 v=39
211367 Par ch=7 c=7 v=38
211392 Par ch=7 c=7 v=37
211417 Par ch=7 c=7 v=36
211441 Par ch=7 c=7 v=35
211466 Par ch=7 c=7 v=34
211491 Par ch=7 c=7 v=33
211516 Par ch=7 c=7 v=32
211540 Par ch=7 c=7 v=31
211565 Par ch=7 c=7 v=30
211590 Par ch=7 c=7 v=29
211614 Par ch=7 c=7 v=28
211630 Off ch=7 n=46 v=64
211630 Off ch=7 n=61 v=64
211630 Off ch=7 n=27 v=64
211630 Off ch=7 n=43 v=64
211650 Par ch=7 c=7 v=64
211680 On ch=7 n=46 v=78
211680 On ch=7 n=61 v=83
211680 On ch=7 n=27 v=78
211680 On ch=7 n=43 v=78
211685 Par ch=7 c=7 v=64
211709 Par ch=7 c=7 v=63
211734 Par ch=7 c=7 v=62
211759 Par ch=7 c=7 v=61
211784 Par ch=7 c=7 v=59
211808 Par ch=7 c=7 v=59
211833 Par ch=7 c=7 v=58
211858 Par ch=7 c=7 v=57
211882 Par ch=7 c=7 v=56
211907 Par ch=7 c=7 v=55
211932 Par ch=7 c=7 v=54
211957 Par ch=7 c=7 v=53
211981 Par ch=7 c=7 v=52
212006 Par ch=7 c=7 v=51
212031 Par ch=7 c=7 v=50
212055 Par ch=7 c=7 v=49
212080 Par ch=7 c=7 v=48
212105 Par ch=7 c=7 v=47
212130 Par ch=7 c=7 v=46
212154 Par ch=7 c=7 v=45
212179 Par ch=7 c=7 v=44
212204 Par ch=7 c=7 v=43
212228 Par ch=7 c=7 v=42
212253 Par ch=7 c=7 v=41
212278 Par ch=7 c=7 v=40
212303 Par ch=7 c=7 v=39
212327 Par ch=7 c=7 v=38
212352 Par ch=7 c=7 v=37
212377 Par ch=7 c=7 v=36
212401 Par ch=7 c=7 v=35
212426 Par ch=7 c=7 v=34
212451 Par ch=7 c=7 v=33
212476 Par ch=7 c=7 v=32
212500 Par ch=7 c=7 v=31
212525 Par ch=7 c=7 v=30
212550 Par ch=7 c=7 v=29
212574 Par ch=7 c=7 v=28
212590 Off ch=7 n=46 v=64
212590 Off ch=7 n=61 v=64
212590 Off ch=7 n=27 v=64
212590 Off ch=7 n=43 v=64
212610 Par ch=7 c=7 v=64
212640 On ch=7 n=46 v=78
212640 On ch=7 n=61 v=83
212640 On ch=7 n=27 v=78
212640 On ch=7 n=43 v=78
212645 Par ch=7 c=7 v=64
212669 Par ch=7 c=7 v=63
212694 Par ch=7 c=7 v=62
212719 Par ch=7 c=7 v=61
212744 Par ch=7 c=7 v=59
212768 Par ch=7 c=7 v=59
212793 Par ch=7 c=7 v=58
212818 Par ch=7 c=7 v=57
212842 Par ch=7 c=7 v=56
212867 Par ch=7 c=7 v=55
212892 Par ch=7 c=7 v=54
212917 Par ch=7 c=7 v=53
212941 Par ch=7 c=7 v=52
212966 Par ch=7 c=7 v=51
212991 Par ch=7 c=7 v=50
213015 Par ch=7 c=7 v=49
213040 Par ch=7 c=7 v=48
213065 Par ch=7 c=7 v=47
213090 Par ch=7 c=7 v=46
213114 Par ch=7 c=7 v=45
213139 Par ch=7 c=7 v=44
213164 Par ch=7 c=7 v=43
213188 Par ch=7 c=7 v=42
213213 Par ch=7 c=7 v=41
213238 Par ch=7 c=7 v=40
213263 Par ch=7 c=7 v=39
213287 Par ch=7 c=7 v=38
213312 Par ch=7 c=7 v=37
213337 Par ch=7 c=7 v=36
213361 Par ch=7 c=7 v=35
213386 Par ch=7 c=7 v=34
213411 Par ch=7 c=7 v=33
213436 Par ch=7 c=7 v=32
213460 Par ch=7 c=7 v=31
213485 Par ch=7 c=7 v=30
213510 Par ch=7 c=7 v=29
213534 Par ch=7 c=7 v=28
213550 Off ch=7 n=46 v=64
213550 Off ch=7 n=61 v=64
213550 Off ch=7 n=27 v=64
213550 Off ch=7 n=43 v=64
213570 Par ch=7 c=7 v=64
213600 On ch=7 n=46 v=78
213600 On ch=7 n=61 v=83
213600 On ch=7 n=27 v=78
213600 On ch=7 n=43 v=78
213605 Par ch=7 c=7 v=64
213629 Par ch=7 c=7 v=63
213654 Par ch=7 c=7 v=62
213679 Par ch=7 c=7 v=61
213704 Par ch=7 c=7 v=59
213728 Par ch=7 c=7 v=59
213753 Par ch=7 c=7 v=58
213778 Par ch=7 c=7 v=57
213802 Par ch=7 c=7 v=56
213827 Par ch=7 c=7 v=55
213852 Par ch=7 c=7 v=54
213877 Par ch=7 c=7 v=53
213901 Par ch=7 c=7 v=52
213926 Par ch=7 c=7 v=51
213951 Par ch=7 c=7 v=50
213975 Par ch=7 c=7 v=49
214000 Par ch=7 c=7 v=48
214025 Par ch=7 c=7 v=47
214050 Par ch=7 c=7 v=46
214074 Par ch=7 c=7 v=45
214099 Par ch=7 c=7 v=44
214124 Par ch=7 c=7 v=43
214148 Par ch=7 c=7 v=42
214173 Par ch=7 c=7 v=41
214198 Par ch=7 c=7 v=40
214223 Par ch=7 c=7 v=39
214247 Par ch=7 c=7 v=38
214272 Par ch=7 c=7 v=37
214297 Par ch=7 c=7 v=36
214321 Par ch=7 c=7 v=35
214346 Par ch=7 c=7 v=34
214371 Par ch=7 c=7 v=33
214396 Par ch=7 c=7 v=32
214420 Par ch=7 c=7 v=31
214445 Par ch=7 c=7 v=30
214470 Par ch=7 c=7 v=29
214494 Par ch=7 c=7 v=28
214510 Off ch=7 n=46 v=64
214510 Off ch=7 n=61 v=64
214510 Off ch=7 n=27 v=64
214510 Off ch=7 n=43 v=64
214530 Par ch=7 c=7 v=64
222480 On ch=7 n=32 v=96
222832 Off ch=7 n=32 v=64
222960 On ch=7 n=43 v=96
223312 Off ch=7 n=43 v=64
223440 On ch=7 n=42 v=96
223792 Off ch=7 n=42 v=64
223920 On ch=7 n=31 v=96
224272 Off ch=7 n=31 v=64
226320 On ch=7 n=32 v=96
226672 Off ch=7 n=32 v=64
226800 On ch=7 n=43 v=96
227152 Off ch=7 n=43 v=64
227280 On ch=7 n=42 v=96
227632 Off ch=7 n=42 v=64
227760 On ch=7 n=31 v=96
228112 Off ch=7 n=31 v=64
229920 On ch=7 n=60 v=52
229920 On ch=7 n=57 v=52
229920 On ch=7 n=67 v=52
229920 On ch=7 n=63 v=52
230013 Off ch=7 n=60 v=64
230013 Off ch=7 n=57 v=64
230013 Off ch=7 n=67 v=64
230013 Off ch=7 n=63 v=64
230160 On ch=7 n=55 v=52
230160 On ch=7 n=65 v=52
230160 On ch=7 n=59 v=52
230160 On ch=7 n=62 v=52
230253 Off ch=7 n=55 v=64
230253 Off ch=7 n=65 v=64
230253 Off ch=7 n=59 v=64
230253 Off ch=7 n=62 v=64
230400 On ch=7 n=60 v=52
230400 On ch=7 n=57 v=52
230400 On ch=7 n=67 v=52
230400 On ch=7 n=63 v=52
230493 Off ch=7 n=60 v=64
230493 Off ch=7 n=57 v=64
230493 Off ch=7 n=67 v=64
230493 Off ch=7 n=63 v=64
230640 On ch=7 n=55 v=52
230640 On ch=7 n=59 v=52
230640 On ch=7 n=65 v=52
230640 On ch=7 n=62 v=52
230733 Off ch=7 n=55 v=64
230733 Off ch=7 n=59 v=64
230733 Off ch=7 n=65 v=64
230733 Off ch=7 n=62 v=64
230880 On ch=7 n=60 v=52
230880 On ch=7 n=57 v=52
230880 On ch=7 n=67 v=52
230880 On ch=7 n=63 v=52
230973 Off ch=7 n=60 v=64
230973 Off ch=7 n=57 v=64
230973 Off ch=7 n=67 v=64
230973 Off ch=7 n=63 v=64
231120 On ch=7 n=55 v=52
231120 On ch=7 n=59 v=52
231120 On ch=7 n=65 v=52
231120 On ch=7 n=62 v=52
231213 Off ch=7 n=55 v=64
231213 Off ch=7 n=59 v=64
231213 Off ch=7 n=65 v=64
231213 Off ch=7 n=62 v=64
231360 On ch=7 n=57 v=52
231360 On ch=7 n=60 v=52
231360 On ch=7 n=63 v=52
231360 On ch=7 n=67 v=52
231453 Off ch=7 n=57 v=64
231453 Off ch=7 n=60 v=64
231453 Off ch=7 n=63 v=64
231453 Off ch=7 n=67 v=64
231600 On ch=7 n=55 v=52
231600 On ch=7 n=65 v=52
231600 On ch=7 n=59 v=52
231600 On ch=7 n=62 v=52
231693 Off ch=7 n=55 v=64
231693 Off ch=7 n=65 v=64
231693 Off ch=7 n=59 v=64
231693 Off ch=7 n=62 v=64
231840 On ch=7 n=60 v=52
231840 On ch=7 n=57 v=52
231840 On ch=7 n=67 v=52
231840 On ch=7 n=63 v=52
231933 Off ch=7 n=60 v=64
231933 Off ch=7 n=57 v=64
231933 Off ch=7 n=67 v=64
231933 Off ch=7 n=63 v=64
232080 On ch=7 n=55 v=52
232080 On ch=7 n=59 v=52
232080 On ch=7 n=62 v=52
232080 On ch=7 n=65 v=52
232173 Off ch=7 n=55 v=64
232173 Off ch=7 n=59 v=64
232173 Off ch=7 n=62 v=64
232173 Off ch=7 n=65 v=64
232320 On ch=7 n=67 v=52
232320 On ch=7 n=57 v=52
232320 On ch=7 n=60 v=52
232320 On ch=7 n=63 v=52
232413 Off ch=7 n=67 v=64
232413 Off ch=7 n=57 v=64
232413 Off ch=7 n=60 v=64
232413 Off ch=7 n=63 v=64
232560 On ch=7 n=55 v=52
232560 On ch=7 n=65 v=52
232560 On ch=7 n=59 v=52
232560 On ch=7 n=62 v=52
232653 Off ch=7 n=55 v=64
232653 Off ch=7 n=65 v=64
232653 Off ch=7 n=59 v=64
232653 Off ch=7 n=62 v=64
232800 On ch=7 n=57 v=52
232800 On ch=7 n=60 v=52
232800 On ch=7 n=63 v=52
232800 On ch=7 n=67 v=52
232893 Off ch=7 n=57 v=64
232893 Off ch=7 n=60 v=64
232893 Off ch=7 n=63 v=64
232893 Off ch=7 n=67 v=64
233040 On ch=7 n=55 v=52
233040 On ch=7 n=65 v=52
233040 On ch=7 n=59 v=52
233040 On ch=7 n=62 v=52
233133 Off ch=7 n=55 v=64
233133 Off ch=7 n=65 v=64
233133 Off ch=7 n=59 v=64
233133 Off ch=7 n=62 v=64
233280 On ch=7 n=57 v=52
233280 On ch=7 n=60 v=52
233280 On ch=7 n=67 v=52
233280 On ch=7 n=63 v=52
233373 Off ch=7 n=57 v=64
233373 Off ch=7 n=60 v=64
233373 Off ch=7 n=67 v=64
233373 Off ch=7 n=63 v=64
233520 On ch=7 n=55 v=52
233520 On ch=7 n=65 v=52
233520 On ch=7 n=62 v=52
233520 On ch=7 n=59 v=52
233613 Off ch=7 n=55 v=64
233613 Off ch=7 n=65 v=64
233613 Off ch=7 n=62 v=64
233613 Off ch=7 n=59 v=64
233760 On ch=7 n=60 v=52
233760 On ch=7 n=57 v=52
233760 On ch=7 n=67 v=52
233760 On ch=7 n=63 v=52
233853 Off ch=7 n=60 v=64
233853 Off ch=7 n=57 v=64
233853 Off ch=7 n=67 v=64
233853 Off ch=7 n=63 v=64
234000 On ch=7 n=55 v=52
234000 On ch=7 n=65 v=52
234000 On ch=7 n=59 v=52
234000 On ch=7 n=62 v=52
234093 Off ch=7 n=55 v=64
234093 Off ch=7 n=65 v=64
234093 Off ch=7 n=59 v=64
234093 Off ch=7 n=62 v=64
234240 On ch=7 n=60 v=52
234240 On ch=7 n=57 v=52
234240 On ch=7 n=67 v=52
234240 On ch=7 n=63 v=52
234333 Off ch=7 n=60 v=64
234333 Off ch=7 n=57 v=64
234333 Off ch=7 n=67 v=64
234333 Off ch=7 n=63 v=64
234480 On ch=7 n=55 v=52
234480 On ch=7 n=59 v=52
234480 On ch=7 n=65 v=52
234480 On ch=7 n=62 v=52
234573 Off ch=7 n=55 v=64
234573 Off ch=7 n=59 v=64
234573 Off ch=7 n=65 v=64
234573 Off ch=7 n=62 v=64
234720 On ch=7 n=60 v=52
234720 On ch=7 n=57 v=52
234720 On ch=7 n=67 v=52
234720 On ch=7 n=63 v=52
234813 Off ch=7 n=60 v=64
234813 Off ch=7 n=57 v=64
234813 Off ch=7 n=67 v=64
234813 Off ch=7 n=63 v=64
234960 On ch=7 n=55 v=52
234960 On ch=7 n=59 v=52
234960 On ch=7 n=65 v=52
234960 On ch=7 n=62 v=52
235053 Off ch=7 n=55 v=64
235053 Off ch=7 n=59 v=64
235053 Off ch=7 n=65 v=64
235053 Off ch=7 n=62 v=64
235200 On ch=7 n=57 v=52
235200 On ch=7 n=60 v=52
235200 On ch=7 n=63 v=52
235200 On ch=7 n=67 v=52
235293 Off ch=7 n=57 v=64
235293 Off ch=7 n=60 v=64
235293 Off ch=7 n=63 v=64
235293 Off ch=7 n=67 v=64
235440 On ch=7 n=55 v=52
235440 On ch=7 n=65 v=52
235440 On ch=7 n=59 v=52
235440 On ch=7 n=62 v=52
235533 Off ch=7 n=55 v=64
235533 Off ch=7 n=65 v=64
235533 Off ch=7 n=59 v=64
235533 Off ch=7 n=62 v=64
235680 On ch=7 n=60 v=52
235680 On ch=7 n=57 v=52
235680 On ch=7 n=67 v=52
235680 On ch=7 n=63 v=52
235773 Off ch=7 n=60 v=64
235773 Off ch=7 n=57 v=64
235773 Off ch=7 n=67 v=64
235773 Off ch=7 n=63 v=64
235920 On ch=7 n=55 v=52
235920 On ch=7 n=59 v=52
235920 On ch=7 n=62 v=52
235920 On ch=7 n=65 v=52
236013 Off ch=7 n=55 v=64
236013 Off ch=7 n=59 v=64
236013 Off ch=7 n=62 v=64
236013 Off ch=7 n=65 v=64
236160 On ch=7 n=67 v=52
236160 On ch=7 n=57 v=52
236160 On ch=7 n=60 v=52
236160 On ch=7 n=63 v=52
236253 Off ch=7 n=67 v=64
236253 Off ch=7 n=57 v=64
236253 Off ch=7 n=60 v=64
236253 Off ch=7 n=63 v=64
236400 On ch=7 n=55 v=52
236400 On ch=7 n=65 v=52
236400 On ch=7 n=59 v=52
236400 On ch=7 n=62 v=52
236493 Off ch=7 n=55 v=64
236493 Off ch=7 n=65 v=64
236493 Off ch=7 n=59 v=64
236493 Off ch=7 n=62 v=64
236640 On ch=7 n=57 v=52
236640 On ch=7 n=60 v=52
236640 On ch=7 n=63 v=52
236640 On ch=7 n=67 v=52
236733 Off ch=7 n=57 v=64
236733 Off ch=7 n=60 v=64
236733 Off ch=7 n=63 v=64
236733 Off ch=7 n=67 v=64
236880 On ch=7 n=55 v=52
236880 On ch=7 n=65 v=52
236880 On ch=7 n=59 v=52
236880 On ch=7 n=62 v=52
236973 Off ch=7 n=55 v=64
236973 Off ch=7 n=65 v=64
236973 Off ch=7 n=59 v=64
236973 Off ch=7 n=62 v=64
237120 On ch=7 n=57 v=52
237120 On ch=7 n=60 v=52
237120 On ch=7 n=67 v=52
237120 On ch=7 n=63 v=52
237213 Off ch=7 n=57 v=64
237213 Off ch=7 n=60 v=64
237213 Off ch=7 n=67 v=64
237213 Off ch=7 n=63 v=64
237360 On ch=7 n=55 v=52
237360 On ch=7 n=65 v=52
237360 On ch=7 n=62 v=52
237360 On ch=7 n=59 v=52
237453 Off ch=7 n=55 v=64
237453 Off ch=7 n=65 v=64
237453 Off ch=7 n=62 v=64
237453 Off ch=7 n=59 v=64
237600 On ch=7 n=60 v=52
237600 On ch=7 n=57 v=52
237600 On ch=7 n=67 v=52
237600 On ch=7 n=63 v=52
237693 Off ch=7 n=60 v=64
237693 Off ch=7 n=57 v=64
237693 Off ch=7 n=67 v=64
237693 Off ch=7 n=63 v=64
237840 On ch=7 n=55 v=52
237840 On ch=7 n=65 v=52
237840 On ch=7 n=59 v=52
237840 On ch=7 n=62 v=52
237933 Off ch=7 n=55 v=64
237933 Off ch=7 n=65 v=64
237933 Off ch=7 n=59 v=64
237933 Off ch=7 n=62 v=64
238080 On ch=7 n=60 v=52
238080 On ch=7 n=57 v=52
238080 On ch=7 n=67 v=52
238080 On ch=7 n=63 v=52
238173 Off ch=7 n=60 v=64
238173 Off ch=7 n=57 v=64
238173 Off ch=7 n=67 v=64
238173 Off ch=7 n=63 v=64
238320 On ch=7 n=55 v=52
238320 On ch=7 n=59 v=52
238320 On ch=7 n=65 v=52
238320 On ch=7 n=62 v=52
238413 Off ch=7 n=55 v=64
238413 Off ch=7 n=59 v=64
238413 Off ch=7 n=65 v=64
238413 Off ch=7 n=62 v=64
238560 On ch=7 n=60 v=52
238560 On ch=7 n=57 v=52
238560 On ch=7 n=67 v=52
238560 On ch=7 n=63 v=52
238653 Off ch=7 n=60 v=64
238653 Off ch=7 n=57 v=64
238653 Off ch=7 n=67 v=64
238653 Off ch=7 n=63 v=64
238800 On ch=7 n=55 v=52
238800 On ch=7 n=59 v=52
238800 On ch=7 n=65 v=52
238800 On ch=7 n=62 v=52
238893 Off ch=7 n=55 v=64
238893 Off ch=7 n=59 v=64
238893 Off ch=7 n=65 v=64
238893 Off ch=7 n=62 v=64
239040 On ch=7 n=57 v=52
239040 On ch=7 n=60 v=52
239040 On ch=7 n=63 v=52
239040 On ch=7 n=67 v=52
239133 Off ch=7 n=57 v=64
239133 Off ch=7 n=60 v=64
239133 Off ch=7 n=63 v=64
239133 Off ch=7 n=67 v=64
239280 On ch=7 n=55 v=52
239280 On ch=7 n=65 v=52
239280 On ch=7 n=59 v=52
239280 On ch=7 n=62 v=52
239373 Off ch=7 n=55 v=64
239373 Off ch=7 n=65 v=64
239373 Off ch=7 n=59 v=64
239373 Off ch=7 n=62 v=64
239520 On ch=7 n=60 v=52
239520 On ch=7 n=57 v=52
239520 On ch=7 n=67 v=52
239520 On ch=7 n=63 v=52
239613 Off ch=7 n=60 v=64
239613 Off ch=7 n=57 v=64
239613 Off ch=7 n=67 v=64
239613 Off ch=7 n=63 v=64
239760 On ch=7 n=55 v=52
239760 On ch=7 n=59 v=52
239760 On ch=7 n=62 v=52
239760 On ch=7 n=65 v=52
239853 Off ch=7 n=55 v=64
239853 Off ch=7 n=59 v=64
239853 Off ch=7 n=62 v=64
239853 Off ch=7 n=65 v=64
240000 On ch=7 n=67 v=52
240000 On ch=7 n=57 v=52
240000 On ch=7 n=60 v=52
240000 On ch=7 n=63 v=52
240093 Off ch=7 n=67 v=64
240093 Off ch=7 n=57 v=64
240093 Off ch=7 n=60 v=64
240093 Off ch=7 n=63 v=64
240240 On ch=7 n=55 v=52
240240 On ch=7 n=65 v=52
240240 On ch=7 n=59 v=52
240240 On ch=7 n=62 v=52
240333 Off ch=7 n=55 v=64
240333 Off ch=7 n=65 v=64
240333 Off ch=7 n=59 v=64
240333 Off ch=7 n=62 v=64
240480 On ch=7 n=57 v=52
240480 On ch=7 n=60 v=52
240480 On ch=7 n=63 v=52
240480 On ch=7 n=67 v=52
240573 Off ch=7 n=57 v=64
240573 Off ch=7 n=60 v=64
240573 Off ch=7 n=63 v=64
240573 Off ch=7 n=67 v=64
240720 On ch=7 n=55 v=52
240720 On ch=7 n=65 v=52
240720 On ch=7 n=59 v=52
240720 On ch=7 n=62 v=52
240813 Off ch=7 n=55 v=64
240813 Off ch=7 n=65 v=64
240813 Off ch=7 n=59 v=64
240813 Off ch=7 n=62 v=64
240960 On ch=7 n=57 v=52
240960 On ch=7 n=60 v=52
240960 On ch=7 n=67 v=52
240960 On ch=7 n=63 v=52
241053 Off ch=7 n=57 v=64
241053 Off ch=7 n=60 v=64
241053 Off ch=7 n=67 v=64
241053 Off ch=7 n=63 v=64
241200 On ch=7 n=55 v=52
241200 On ch=7 n=65 v=52
241200 On ch=7 n=62 v=52
241200 On ch=7 n=59 v=52
241293 Off ch=7 n=55 v=64
241293 Off ch=7 n=65 v=64
241293 Off ch=7 n=62 v=64
241293 Off ch=7 n=59 v=64
241440 On ch=7 n=60 v=78
241440 On ch=7 n=57 v=78
241440 On ch=7 n=67 v=78
241440 On ch=7 n=63 v=78
241533 Off ch=7 n=60 v=64
241533 Off ch=7 n=57 v=64
241533 Off ch=7 n=67 v=64
241533 Off ch=7 n=63 v=64
241680 On ch=7 n=55 v=78
241680 On ch=7 n=65 v=78
241680 On ch=7 n=59 v=78
241680 On ch=7 n=62 v=78
241773 Off ch=7 n=55 v=64
241773 Off ch=7 n=65 v=64
241773 Off ch=7 n=59 v=64
241773 Off ch=7 n=62 v=64
241920 On ch=7 n=60 v=78
241920 On ch=7 n=57 v=78
241920 On ch=7 n=67 v=78
241920 On ch=7 n=63 v=78
242013 Off ch=7 n=60 v=64
242013 Off ch=7 n=57 v=64
242013 Off ch=7 n=67 v=64
242013 Off ch=7 n=63 v=64
242160 On ch=7 n=55 v=78
242160 On ch=7 n=59 v=78
242160 On ch=7 n=65 v=78
242160 On ch=7 n=62 v=78
242253 Off ch=7 n=55 v=64
242253 Off ch=7 n=59 v=64
242253 Off ch=7 n=65 v=64
242253 Off ch=7 n=62 v=64
242400 On ch=7 n=60 v=78
242400 On ch=7 n=57 v=78
242400 On ch=7 n=67 v=78
242400 On ch=7 n=63 v=78
242493 Off ch=7 n=60 v=64
242493 Off ch=7 n=57 v=64
242493 Off ch=7 n=67 v=64
242493 Off ch=7 n=63 v=64
242640 On ch=7 n=55 v=78
242640 On ch=7 n=59 v=78
242640 On ch=7 n=65 v=78
242640 On ch=7 n=62 v=78
242733 Off ch=7 n=55 v=64
242733 Off ch=7 n=59 v=64
242733 Off ch=7 n=65 v=64
242733 Off ch=7 n=62 v=64
242880 On ch=7 n=57 v=78
242880 On ch=7 n=60 v=78
242880 On ch=7 n=63 v=78
242880 On ch=7 n=67 v=78
242973 Off ch=7 n=57 v=64
242973 Off ch=7 n=60 v=64
242973 Off ch=7 n=63 v=64
242973 Off ch=7 n=67 v=64
243120 On ch=7 n=55 v=78
243120 On ch=7 n=65 v=78
243120 On ch=7 n=59 v=78
243120 On ch=7 n=62 v=78
243213 Off ch=7 n=55 v=64
243213 Off ch=7 n=65 v=64
243213 Off ch=7 n=59 v=64
243213 Off ch=7 n=62 v=64
243360 On ch=7 n=60 v=78
243360 On ch=7 n=57 v=78
243360 On ch=7 n=67 v=78
243360 On ch=7 n=63 v=78
243453 Off ch=7 n=60 v=64
243453 Off ch=7 n=57 v=64
243453 Off ch=7 n=67 v=64
243453 Off ch=7 n=63 v=64
243600 On ch=7 n=55 v=78
243600 On ch=7 n=59 v=78
243600 On ch=7 n=62 v=78
243600 On ch=7 n=65 v=78
243693 Off ch=7 n=55 v=64
243693 Off ch=7 n=59 v=64
243693 Off ch=7 n=62 v=64
243693 Off ch=7 n=65 v=64
243840 On ch=7 n=67 v=78
243840 On ch=7 n=57 v=78
243840 On ch=7 n=60 v=78
243840 On ch=7 n=63 v=78
243933 Off ch=7 n=67 v=64
243933 Off ch=7 n=57 v=64
243933 Off ch=7 n=60 v=64
243933 Off ch=7 n=63 v=64
244080 On ch=7 n=55 v=78
244080 On ch=7 n=65 v=78
244080 On ch=7 n=59 v=78
244080 On ch=7 n=62 v=78
244173 Off ch=7 n=55 v=64
244173 Off ch=7 n=65 v=64
244173 Off ch=7 n=59 v=64
244173 Off ch=7 n=62 v=64
244320 On ch=7 n=57 v=78
244320 On ch=7 n=60 v=78
244320 On ch=7 n=63 v=78
244320 On ch=7 n=67 v=78
244413 Off ch=7 n=57 v=64
244413 Off ch=7 n=60 v=64
244413 Off ch=7 n=63 v=64
244413 Off ch=7 n=67 v=64
244560 On ch=7 n=55 v=112
244560 On ch=7 n=65 v=112
244560 On ch=7 n=59 v=112
244560 On ch=7 n=62 v=112
244653 Off ch=7 n=55 v=64
244653 Off ch=7 n=65 v=64
244653 Off ch=7 n=59 v=64
244653 Off ch=7 n=62 v=64
244800 On ch=7 n=57 v=78
244800 On ch=7 n=60 v=78
244800 On ch=7 n=67 v=78
244800 On ch=7 n=63 v=78
244893 Off ch=7 n=57 v=64
244893 Off ch=7 n=60 v=64
244893 Off ch=7 n=67 v=64
244893 Off ch=7 n=63 v=64
245040 On ch=7 n=55 v=112
245040 On ch=7 n=65 v=112
245040 On ch=7 n=62 v=112
245040 On ch=7 n=59 v=112
245133 Off ch=7 n=55 v=64
245133 Off ch=7 n=65 v=64
245133 Off ch=7 n=62 v=64
245133 Off ch=7 n=59 v=64
245280 On ch=7 n=60 v=78
245280 On ch=7 n=57 v=78
245280 On ch=7 n=67 v=78
245280 On ch=7 n=63 v=78
245373 Off ch=7 n=60 v=64
245373 Off ch=7 n=57 v=64
245373 Off ch=7 n=67 v=64
245373 Off ch=7 n=63 v=64
245520 On ch=7 n=55 v=78
245520 On ch=7 n=65 v=78
245520 On ch=7 n=59 v=78
245520 On ch=7 n=62 v=78
245613 Off ch=7 n=55 v=64
245613 Off ch=7 n=65 v=64
245613 Off ch=7 n=59 v=64
245613 Off ch=7 n=62 v=64
245760 On ch=7 n=60 v=78
245760 On ch=7 n=57 v=78
245760 On ch=7 n=67 v=78
245760 On ch=7 n=63 v=78
245853 Off ch=7 n=60 v=64
245853 Off ch=7 n=57 v=64
245853 Off ch=7 n=67 v=64
245853 Off ch=7 n=63 v=64
246000 On ch=7 n=55 v=78
246000 On ch=7 n=59 v=78
246000 On ch=7 n=65 v=78
246000 On ch=7 n=62 v=78
246093 Off ch=7 n=55 v=64
246093 Off ch=7 n=59 v=64
246093 Off ch=7 n=65 v=64
246093 Off ch=7 n=62 v=64
246240 On ch=7 n=60 v=78
246240 On ch=7 n=57 v=78
246240 On ch=7 n=67 v=78
246240 On ch=7 n=63 v=78
246333 Off ch=7 n=60 v=64
246333 Off ch=7 n=57 v=64
246333 Off ch=7 n=67 v=64
246333 Off ch=7 n=63 v=64
246480 On ch=7 n=55 v=78
246480 On ch=7 n=59 v=78
246480 On ch=7 n=65 v=78
246480 On ch=7 n=62 v=78
246573 Off ch=7 n=55 v=64
246573 Off ch=7 n=59 v=64
246573 Off ch=7 n=65 v=64
246573 Off ch=7 n=62 v=64
246720 On ch=7 n=57 v=78
246720 On ch=7 n=60 v=78
246720 On ch=7 n=63 v=78
246720 On ch=7 n=67 v=78
246813 Off ch=7 n=57 v=64
246813 Off ch=7 n=60 v=64
246813 Off ch=7 n=63 v=64
246813 Off ch=7 n=67 v=64
246960 On ch=7 n=55 v=78
246960 On ch=7 n=65 v=78
246960 On ch=7 n=59 v=78
246960 On ch=7 n=62 v=78
247053 Off ch=7 n=55 v=64
247053 Off ch=7 n=65 v=64
247053 Off ch=7 n=59 v=64
247053 Off ch=7 n=62 v=64
247200 On ch=7 n=60 v=78
247200 On ch=7 n=57 v=78
247200 On ch=7 n=67 v=78
247200 On ch=7 n=63 v=78
247293 Off ch=7 n=60 v=64
247293 Off ch=7 n=57 v=64
247293 Off ch=7 n=67 v=64
247293 Off ch=7 n=63 v=64
247440 On ch=7 n=55 v=78
247440 On ch=7 n=59 v=78
247440 On ch=7 n=62 v=78
247440 On ch=7 n=65 v=78
247533 Off ch=7 n=55 v=64
247533 Off ch=7 n=59 v=64
247533 Off ch=7 n=62 v=64
247533 Off ch=7 n=65 v=64
247680 On ch=7 n=67 v=78
247680 On ch=7 n=57 v=78
247680 On ch=7 n=60 v=78
247680 On ch=7 n=63 v=78
247773 Off ch=7 n=67 v=64
247773 Off ch=7 n=57 v=64
247773 Off ch=7 n=60 v=64
247773 Off ch=7 n=63 v=64
247920 On ch=7 n=55 v=78
247920 On ch=7 n=65 v=78
247920 On ch=7 n=59 v=78
247920 On ch=7 n=62 v=78
248013 Off ch=7 n=55 v=64
248013 Off ch=7 n=65 v=64
248013 Off ch=7 n=59 v=64
248013 Off ch=7 n=62 v=64
248160 On ch=7 n=57 v=78
248160 On ch=7 n=60 v=78
248160 On ch=7 n=63 v=78
248160 On ch=7 n=67 v=78
248253 Off ch=7 n=57 v=64
248253 Off ch=7 n=60 v=64
248253 Off ch=7 n=63 v=64
248253 Off ch=7 n=67 v=64
248400 On ch=7 n=55 v=110
248400 On ch=7 n=65 v=110
248400 On ch=7 n=59 v=110
248400 On ch=7 n=62 v=110
248493 Off ch=7 n=55 v=64
248493 Off ch=7 n=65 v=64
248493 Off ch=7 n=59 v=64
248493 Off ch=7 n=62 v=64
248640 On ch=7 n=57 v=78
248640 On ch=7 n=60 v=78
248640 On ch=7 n=67 v=78
248640 On ch=7 n=63 v=78
248733 Off ch=7 n=57 v=64
248733 Off ch=7 n=60 v=64
248733 Off ch=7 n=67 v=64
248733 Off ch=7 n=63 v=64
248880 On ch=7 n=55 v=110
248880 On ch=7 n=65 v=110
248880 On ch=7 n=62 v=110
248880 On ch=7 n=59 v=110
248973 Off ch=7 n=55 v=64
248973 Off ch=7 n=65 v=64
248973 Off ch=7 n=62 v=64
248973 Off ch=7 n=59 v=64
249068 Par ch=7 c=7 v=72
249120 On ch=7 n=57 v=116
249269 Par ch=7 c=7 v=72
249360 On ch=7 n=60 v=116
249420 On ch=7 n=63 v=116
249426 Off ch=7 n=57 v=64
249480 On ch=7 n=65 v=116
249486 Off ch=7 n=60 v=64
249540 On ch=7 n=67 v=116
249546 Off ch=7 n=63 v=64
249600 On ch=7 n=69 v=116
249606 Off ch=7 n=65 v=64
249666 Off ch=7 n=67 v=64
249720 Off ch=7 n=69 v=64
250080 On ch=7 n=60 v=116
250320 On ch=7 n=63 v=116
250374 Off ch=7 n=60 v=64
250380 On ch=7 n=65 v=116
250434 Off ch=7 n=63 v=64
250440 On ch=7 n=67 v=116
250494 Off ch=7 n=65 v=64
250500 On ch=7 n=69 v=116
250554 Off ch=7 n=67 v=64
250560 On ch=7 n=72 v=116
250614 Off ch=7 n=69 v=64
250680 Off ch=7 n=72 v=64
251040 On ch=7 n=60 v=116
251040 On ch=7 n=57 v=116
251040 On ch=7 n=63 v=116
251280 Off ch=7 n=60 v=64
251280 Off ch=7 n=57 v=64
251280 Off ch=7 n=63 v=64
251280 On ch=7 n=60 v=116
251280 On ch=7 n=65 v=116
251280 On ch=7 n=63 v=116
251340 Off ch=7 n=60 v=64
251340 Off ch=7 n=65 v=64
251340 Off ch=7 n=63 v=64
251340 On ch=7 n=67 v=116
251340 On ch=7 n=65 v=116
251340 On ch=7 n=63 v=116
251400 Off ch=7 n=67 v=64
251400 Off ch=7 n=65 v=64
251400 Off ch=7 n=63 v=64
251400 On ch=7 n=69 v=116
251400 On ch=7 n=67 v=116
251400 On ch=7 n=65 v=116
251460 Off ch=7 n=69 v=64
251460 Off ch=7 n=67 v=64
251460 Off ch=7 n=65 v=64
251460 On ch=7 n=72 v=116
251460 On ch=7 n=69 v=116
251460 On ch=7 n=67 v=116
251520 Off ch=7 n=72 v=64
251520 Off ch=7 n=69 v=64
251520 Off ch=7 n=67 v=64
251520 On ch=7 n=69 v=116
251520 On ch=7 n=72 v=116
251520 On ch=7 n=75 v=116
251640 Off ch=7 n=69 v=64
251640 Off ch=7 n=72 v=64
251640 Off ch=7 n=75 v=64
252504 Par ch=7 c=0 v=0
252504 Par ch=7 c=32 v=2
252504 PrCh ch=7 p=60
252960 On ch=7 n=64 v=84
252960 On ch=7 n=67 v=84
252960 On ch=7 n=60 v=84
263760 Off ch=7 n=64 v=64
263760 Off ch=7 n=67 v=64
263760 Off ch=7 n=60 v=64
263760 On ch=7 n=63 v=64
263760 On ch=7 n=66 v=64
263760 On ch=7 n=56 v=64
263760 On ch=7 n=60 v=64
264000 Off ch=7 n=63 v=64
264000 Off ch=7 n=66 v=64
264000 Off ch=7 n=56 v=64
264000 Off ch=7 n=60 v=64
266280 On ch=7 n=59 v=84
266406 Off ch=7 n=59 v=64
267720 On ch=7 n=59 v=84
268008 Off ch=7 n=59 v=64
269160 On ch=7 n=59 v=84
269286 Off ch=7 n=59 v=64
269388 Par ch=7 c=7 v=74
269512 Par ch=7 c=7 v=74
269520 On ch=7 n=72 v=118
269520 On ch=7 n=67 v=118
269520 On ch=7 n=70 v=118
269520 On ch=7 n=57 v=118
269520 On ch=7 n=64 v=118
269520 On ch=7 n=61 v=118
269637 Par ch=7 c=7 v=75
269760 On ch=7 n=73 v=120
269760 On ch=7 n=68 v=120
269760 On ch=7 n=71 v=120
269760 On ch=7 n=58 v=120
269760 On ch=7 n=65 v=120
269760 On ch=7 n=62 v=120
269762 Par ch=7 c=7 v=76
269787 Off ch=7 n=72 v=64
269787 Off ch=7 n=67 v=64
269787 Off ch=7 n=70 v=64
269787 Off ch=7 n=57 v=64
269787 Off ch=7 n=64 v=64
269787 Off ch=7 n=61 v=64
269887 Par ch=7 c=7 v=77
270000 On ch=7 n=74 v=123
270000 On ch=7 n=69 v=123
270000 On ch=7 n=72 v=123
270000 On ch=7 n=59 v=123
270000 On ch=7 n=63 v=123
270000 On ch=7 n=66 v=123
270012 Par ch=7 c=7 v=78
270027 Off ch=7 n=73 v=64
270027 Off ch=7 n=68 v=64
270027 Off ch=7 n=71 v=64
270027 Off ch=7 n=58 v=64
270027 Off ch=7 n=65 v=64
270027 Off ch=7 n=62 v=64
270137 Par ch=7 c=7 v=79
270240 On ch=7 n=70 v=125
270240 On ch=7 n=73 v=125
270240 On ch=7 n=75 v=125
270240 On ch=7 n=60 v=125
270240 On ch=7 n=67 v=125
270240 On ch=7 n=64 v=125
270262 Par ch=7 c=7 v=80
270267 Off ch=7 n=74 v=64
270267 Off ch=7 n=69 v=64
270267 Off ch=7 n=72 v=64
270267 Off ch=7 n=59 v=64
270267 Off ch=7 n=63 v=64
270267 Off ch=7 n=66 v=64
270386 Par ch=7 c=7 v=82
270480 Off ch=7 n=70 v=64
270480 Off ch=7 n=73 v=64
270480 Off ch=7 n=75 v=64
270480 Off ch=7 n=60 v=64
270480 Off ch=7 n=67 v=64
270480 Off ch=7 n=64 v=64
274560 On ch=7 n=69 v=114
274944 Off ch=7 n=69 v=64
275040 On ch=7 n=62 v=92
275172 Off ch=7 n=62 v=64
275280 On ch=7 n=69 v=116
275664 Off ch=7 n=69 v=64
275760 On ch=7 n=62 v=94
275892 Off ch=7 n=62 v=64
276000 On ch=7 n=69 v=114
276384 Off ch=7 n=69 v=64
276480 On ch=7 n=62 v=98
276891 Off ch=7 n=62 v=64
276960 On ch=7 n=69 v=100
277119 Off ch=7 n=69 v=64
277200 On ch=7 n=62 v=100
277359 Off ch=7 n=62 v=64
277440 On ch=7 n=69 v=100
277599 Off ch=7 n=69 v=64
280320 On ch=7 n=69 v=112
280704 Off ch=7 n=69 v=64
280800 On ch=7 n=62 v=98
281211 Off ch=7 n=62 v=64
281280 On ch=7 n=69 v=98
281439 Off ch=7 n=69 v=64
281520 On ch=7 n=62 v=98
281679 Off ch=7 n=62 v=64
281760 On ch=7 n=69 v=98
281919 Off ch=7 n=69 v=64
283920 On ch=7 n=69 v=114
284304 Off ch=7 n=69 v=64
284400 On ch=7 n=62 v=94
284532 Off ch=7 n=62 v=64
284640 On ch=7 n=69 v=114
285024 Off ch=7 n=69 v=64
285120 On ch=7 n=62 v=98
285531 Off ch=7 n=62 v=64
285600 On ch=7 n=69 v=96
285759 Off ch=7 n=69 v=64
285840 On ch=7 n=62 v=96
285999 Off ch=7 n=62 v=64
286080 On ch=7 n=69 v=96
286959 Off ch=7 n=69 v=64
287040 On ch=7 n=62 v=96
287199 Off ch=7 n=62 v=64
287280 On ch=7 n=69 v=96
287439 Off ch=7 n=69 v=64
288600 On ch=7 n=59 v=84
288726 Off ch=7 n=59 v=64
290040 On ch=7 n=59 v=84
290328 Off ch=7 n=59 v=64
291480 On ch=7 n=59 v=84
291606 Off ch=7 n=59 v=64
293225 Par ch=7 c=7 v=96
293455 On ch=7 n=52 v=127
293595 Off ch=7 n=52 v=64
293695 On ch=7 n=55 v=127
293835 Off ch=7 n=55 v=64
293935 On ch=7 n=57 v=127
294075 Off ch=7 n=57 v=64
294175 On ch=7 n=61 v=127
294315 Off ch=7 n=61 v=64
294415 On ch=7 n=64 v=127
294555 Off ch=7 n=64 v=64
294655 On ch=7 n=60 v=127
294795 Off ch=7 n=60 v=64
295848 Par ch=7 c=0 v=0
295848 Par ch=7 c=32 v=1
295848 PrCh ch=7 p=68
296880 On ch=7 n=70 v=34
296880 On ch=7 n=63 v=34
296880 On ch=7 n=67 v=34
297000 Off ch=7 n=70 v=64
297000 Off ch=7 n=63 v=64
297000 Off ch=7 n=67 v=64
297120 On ch=7 n=73 v=34
297120 On ch=7 n=70 v=34
297120 On ch=7 n=66 v=34
297240 Off ch=7 n=73 v=64
297240 Off ch=7 n=70 v=64
297240 Off ch=7 n=66 v=64
297360 On ch=7 n=70 v=34
297360 On ch=7 n=63 v=34
297360 On ch=7 n=67 v=34
297480 Off ch=7 n=70 v=64
297480 Off ch=7 n=63 v=64
297480 Off ch=7 n=67 v=64
297600 On ch=7 n=67 v=34
297600 On ch=7 n=60 v=34
297600 On ch=7 n=64 v=34
297720 Off ch=7 n=67 v=64
297720 Off ch=7 n=60 v=64
297720 Off ch=7 n=64 v=64
297840 On ch=7 n=64 v=34
297840 On ch=7 n=57 v=34
297840 On ch=7 n=61 v=34
297960 Off ch=7 n=64 v=64
297960 Off ch=7 n=57 v=64
297960 Off ch=7 n=61 v=64
298080 On ch=7 n=61 v=34
298080 On ch=7 n=54 v=34
298080 On ch=7 n=58 v=34
298200 Off ch=7 n=61 v=64
298200 Off ch=7 n=54 v=64
298200 Off ch=7 n=58 v=64
298320 On ch=7 n=70 v=38
298320 On ch=7 n=73 v=38
298320 On ch=7 n=66 v=38
298440 Off ch=7 n=70 v=64
298440 Off ch=7 n=73 v=64
298440 Off ch=7 n=66 v=64
298560 On ch=7 n=76 v=38
298560 On ch=7 n=73 v=38
298560 On ch=7 n=69 v=38
298680 Off ch=7 n=76 v=64
298680 Off ch=7 n=73 v=64
298680 Off ch=7 n=69 v=64
298800 On ch=7 n=70 v=38
298800 On ch=7 n=73 v=38
298800 On ch=7 n=66 v=38
298920 Off ch=7 n=70 v=64
298920 Off ch=7 n=73 v=64
298920 Off ch=7 n=66 v=64
299040 On ch=7 n=70 v=38
299040 On ch=7 n=67 v=38
299040 On ch=7 n=63 v=38
299160 Off ch=7 n=70 v=64
299160 Off ch=7 n=67 v=64
299160 Off ch=7 n=63 v=64
299280 On ch=7 n=67 v=38
299280 On ch=7 n=64 v=38
299280 On ch=7 n=60 v=38
299400 Off ch=7 n=67 v=64
299400 Off ch=7 n=64 v=64
299400 Off ch=7 n=60 v=64
299520 On ch=7 n=61 v=38
299520 On ch=7 n=64 v=38
299520 On ch=7 n=57 v=38
299640 Off ch=7 n=61 v=64
299640 Off ch=7 n=64 v=64
299640 Off ch=7 n=57 v=64
299760 On ch=7 n=76 v=40
299760 On ch=7 n=73 v=40
299760 On ch=7 n=69 v=40
299880 Off ch=7 n=76 v=64
299880 Off ch=7 n=73 v=64
299880 Off ch=7 n=69 v=64
300000 On ch=7 n=76 v=40
300000 On ch=7 n=79 v=40
300000 On ch=7 n=72 v=40
300120 Off ch=7 n=76 v=64
300120 Off ch=7 n=79 v=64
300120 Off ch=7 n=72 v=64
300240 On ch=7 n=76 v=40
300240 On ch=7 n=73 v=40
300240 On ch=7 n=69 v=40
300360 Off ch=7 n=76 v=64
300360 Off ch=7 n=73 v=64
300360 Off ch=7 n=69 v=64
300480 On ch=7 n=70 v=40
300480 On ch=7 n=73 v=40
300480 On ch=7 n=66 v=40
300600 Off ch=7 n=70 v=64
300600 Off ch=7 n=73 v=64
300600 Off ch=7 n=66 v=64
300720 On ch=7 n=67 v=40
300720 On ch=7 n=70 v=40
300720 On ch=7 n=63 v=40
300840 Off ch=7 n=67 v=64
300840 Off ch=7 n=70 v=64
300840 Off ch=7 n=63 v=64
300960 On ch=7 n=67 v=40
300960 On ch=7 n=64 v=40
300960 On ch=7 n=60 v=40
301080 Off ch=7 n=67 v=64
301080 Off ch=7 n=64 v=64
301080 Off ch=7 n=60 v=64
301200 On ch=7 n=79 v=44
301200 On ch=7 n=76 v=44
301200 On ch=7 n=72 v=44
301320 Off ch=7 n=79 v=64
301320 Off ch=7 n=76 v=64
301320 Off ch=7 n=72 v=64
301440 On ch=7 n=82 v=44
301440 On ch=7 n=79 v=44
301440 On ch=7 n=75 v=44
301560 Off ch=7 n=82 v=64
301560 Off ch=7 n=79 v=64
301560 Off ch=7 n=75 v=64
301680 On ch=7 n=79 v=44
301680 On ch=7 n=76 v=44
301680 On ch=7 n=72 v=44
301800 Off ch=7 n=79 v=64
301800 Off ch=7 n=76 v=64
301800 Off ch=7 n=72 v=64
301920 On ch=7 n=76 v=44
301920 On ch=7 n=73 v=44
301920 On ch=7 n=69 v=44
302040 Off ch=7 n=76 v=64
302040 Off ch=7 n=73 v=64
302040 Off ch=7 n=69 v=64
302160 On ch=7 n=70 v=44
302160 On ch=7 n=73 v=44
302160 On ch=7 n=66 v=44
302280 Off ch=7 n=70 v=64
302280 Off ch=7 n=73 v=64
302280 Off ch=7 n=66 v=64
302400 On ch=7 n=67 v=44
302400 On ch=7 n=70 v=44
302400 On ch=7 n=63 v=44
302520 Off ch=7 n=67 v=64
302520 Off ch=7 n=70 v=64
302520 Off ch=7 n=63 v=64
302640 On ch=7 n=82 v=46
302640 On ch=7 n=79 v=46
302640 On ch=7 n=75 v=46
302760 Off ch=7 n=82 v=64
302760 Off ch=7 n=79 v=64
302760 Off ch=7 n=75 v=64
302880 On ch=7 n=82 v=46
302880 On ch=7 n=85 v=46
302880 On ch=7 n=78 v=46
303000 Off ch=7 n=82 v=64
303000 Off ch=7 n=85 v=64
303000 Off ch=7 n=78 v=64
303120 On ch=7 n=82 v=46
303120 On ch=7 n=79 v=46
303120 On ch=7 n=75 v=46
303240 Off ch=7 n=82 v=64
303240 Off ch=7 n=79 v=64
303240 Off ch=7 n=75 v=64
303360 On ch=7 n=79 v=46
303360 On ch=7 n=76 v=46
303360 On ch=7 n=72 v=46
303480 Off ch=7 n=79 v=64
303480 Off ch=7 n=76 v=64
303480 Off ch=7 n=72 v=64
303600 On ch=7 n=76 v=46
303600 On ch=7 n=73 v=46
303600 On ch=7 n=69 v=46
303720 Off ch=7 n=76 v=64
303720 Off ch=7 n=73 v=64
303720 Off ch=7 n=69 v=64
303840 On ch=7 n=70 v=46
303840 On ch=7 n=73 v=46
303840 On ch=7 n=66 v=46
303960 Off ch=7 n=70 v=64
303960 Off ch=7 n=73 v=64
303960 Off ch=7 n=66 v=64
304080 On ch=7 n=85 v=46
304080 On ch=7 n=82 v=46
304080 On ch=7 n=78 v=46
304200 Off ch=7 n=85 v=64
304200 Off ch=7 n=82 v=64
304200 Off ch=7 n=78 v=64
304320 On ch=7 n=85 v=46
304320 On ch=7 n=88 v=46
304320 On ch=7 n=81 v=46
304440 Off ch=7 n=85 v=64
304440 Off ch=7 n=88 v=64
304440 Off ch=7 n=81 v=64
304560 On ch=7 n=85 v=46
304560 On ch=7 n=82 v=46
304560 On ch=7 n=78 v=46
304680 Off ch=7 n=85 v=64
304680 Off ch=7 n=82 v=64
304680 Off ch=7 n=78 v=64
304800 On ch=7 n=82 v=46
304800 On ch=7 n=79 v=46
304800 On ch=7 n=75 v=46
304920 Off ch=7 n=82 v=64
304920 Off ch=7 n=79 v=64
304920 Off ch=7 n=75 v=64
305040 On ch=7 n=79 v=46
305040 On ch=7 n=76 v=46
305040 On ch=7 n=72 v=46
305160 Off ch=7 n=79 v=64
305160 Off ch=7 n=76 v=64
305160 Off ch=7 n=72 v=64
305280 On ch=7 n=76 v=46
305280 On ch=7 n=73 v=46
305280 On ch=7 n=69 v=46
305400 Off ch=7 n=76 v=64
305400 Off ch=7 n=73 v=64
305400 Off ch=7 n=69 v=64
305520 On ch=7 n=82 v=72
305520 On ch=7 n=78 v=72
305520 On ch=7 n=73 v=72
305640 Off ch=7 n=82 v=64
305640 Off ch=7 n=78 v=64
305640 Off ch=7 n=73 v=64
305760 On ch=7 n=77 v=69
305760 On ch=7 n=80 v=69
305760 On ch=7 n=73 v=69
305880 Off ch=7 n=77 v=64
305880 Off ch=7 n=80 v=64
305880 Off ch=7 n=73 v=64
306000 On ch=7 n=78 v=66
306000 On ch=7 n=82 v=66
306000 On ch=7 n=73 v=66
306120 Off ch=7 n=78 v=64
306120 Off ch=7 n=82 v=64
306120 Off ch=7 n=73 v=64
306240 On ch=7 n=80 v=63
306240 On ch=7 n=77 v=63
306240 On ch=7 n=73 v=63
306360 Off ch=7 n=80 v=64
306360 Off ch=7 n=77 v=64
306360 Off ch=7 n=73 v=64
306480 On ch=7 n=78 v=61
306480 On ch=7 n=75 v=61
306480 On ch=7 n=73 v=61
306600 Off ch=7 n=78 v=64
306600 Off ch=7 n=75 v=64
306600 Off ch=7 n=73 v=64
306720 On ch=7 n=77 v=58
306720 On ch=7 n=73 v=58
306840 Off ch=7 n=77 v=64
306840 Off ch=7 n=73 v=64
306960 On ch=7 n=78 v=72
306960 On ch=7 n=82 v=72
306960 On ch=7 n=73 v=72
307080 Off ch=7 n=78 v=64
307080 Off ch=7 n=82 v=64
307080 Off ch=7 n=73 v=64
307200 On ch=7 n=77 v=71
307200 On ch=7 n=80 v=71
307200 On ch=7 n=73 v=71
307320 Off ch=7 n=77 v=64
307320 Off ch=7 n=80 v=64
307320 Off ch=7 n=73 v=64
307440 On ch=7 n=78 v=68
307440 On ch=7 n=82 v=68
307440 On ch=7 n=73 v=68
307560 Off ch=7 n=78 v=64
307560 Off ch=7 n=82 v=64
307560 Off ch=7 n=73 v=64
307680 On ch=7 n=77 v=65
307680 On ch=7 n=80 v=65
307680 On ch=7 n=73 v=65
307800 Off ch=7 n=77 v=64
307800 Off ch=7 n=80 v=64
307800 Off ch=7 n=73 v=64
307920 On ch=7 n=78 v=62
307920 On ch=7 n=75 v=62
307920 On ch=7 n=73 v=62
308040 Off ch=7 n=78 v=64
308040 Off ch=7 n=75 v=64
308040 Off ch=7 n=73 v=64
308160 On ch=7 n=77 v=59
308160 On ch=7 n=73 v=59
308280 Off ch=7 n=77 v=64
308280 Off ch=7 n=73 v=64
308400 On ch=7 n=78 v=72
308400 On ch=7 n=82 v=72
308400 On ch=7 n=73 v=72
308520 Off ch=7 n=78 v=64
308520 Off ch=7 n=82 v=64
308520 Off ch=7 n=73 v=64
308640 On ch=7 n=77 v=71
308640 On ch=7 n=80 v=71
308640 On ch=7 n=73 v=71
308760 Off ch=7 n=77 v=64
308760 Off ch=7 n=80 v=64
308760 Off ch=7 n=73 v=64
308880 On ch=7 n=78 v=69
308880 On ch=7 n=82 v=69
308880 On ch=7 n=73 v=69
309000 Off ch=7 n=78 v=64
309000 Off ch=7 n=82 v=64
309000 Off ch=7 n=73 v=64
309120 On ch=7 n=77 v=66
309120 On ch=7 n=80 v=66
309120 On ch=7 n=73 v=66
309240 Off ch=7 n=77 v=64
309240 Off ch=7 n=80 v=64
309240 Off ch=7 n=73 v=64
309360 On ch=7 n=75 v=64
309360 On ch=7 n=78 v=64
309360 On ch=7 n=73 v=64
309480 Off ch=7 n=75 v=64
309480 Off ch=7 n=78 v=64
309480 Off ch=7 n=73 v=64
309600 On ch=7 n=77 v=61
309600 On ch=7 n=73 v=61
309720 Off ch=7 n=77 v=64
309720 Off ch=7 n=73 v=64
309840 On ch=7 n=78 v=58
309840 On ch=7 n=75 v=58
309840 On ch=7 n=73 v=58
309960 Off ch=7 n=78 v=64
309960 Off ch=7 n=75 v=64
309960 Off ch=7 n=73 v=64
310080 On ch=7 n=72 v=72
310080 On ch=7 n=75 v=72
310080 On ch=7 n=73 v=72
310200 Off ch=7 n=72 v=64
310200 Off ch=7 n=75 v=64
310200 Off ch=7 n=73 v=64
310320 On ch=7 n=75 v=63
310320 On ch=7 n=72 v=63
310320 On ch=7 n=73 v=63
310440 Off ch=7 n=75 v=64
310440 Off ch=7 n=72 v=64
310440 Off ch=7 n=73 v=64
310560 On ch=7 n=72 v=72
310560 On ch=7 n=75 v=72
310560 On ch=7 n=73 v=72
310680 Off ch=7 n=72 v=64
310680 Off ch=7 n=75 v=64
310680 Off ch=7 n=73 v=64
310800 On ch=7 n=77 v=61
310800 On ch=7 n=73 v=61
310920 Off ch=7 n=77 v=64
310920 Off ch=7 n=73 v=64
311040 On ch=7 n=78 v=72
311040 On ch=7 n=75 v=72
311040 On ch=7 n=73 v=72
311160 Off ch=7 n=78 v=64
311160 Off ch=7 n=75 v=64
311160 Off ch=7 n=73 v=64
311280 On ch=7 n=80 v=61
311280 On ch=7 n=77 v=61
311280 On ch=7 n=73 v=61
311400 Off ch=7 n=80 v=64
311400 Off ch=7 n=77 v=64
311400 Off ch=7 n=73 v=64
311520 On ch=7 n=78 v=72
311520 On ch=7 n=82 v=72
311520 On ch=7 n=73 v=72
311640 Off ch=7 n=78 v=64
311640 Off ch=7 n=82 v=64
311640 Off ch=7 n=73 v=64
311760 On ch=7 n=77 v=69
311760 On ch=7 n=80 v=69
311760 On ch=7 n=73 v=69
311880 Off ch=7 n=77 v=64
311880 Off ch=7 n=80 v=64
311880 Off ch=7 n=73 v=64
312000 On ch=7 n=82 v=67
312000 On ch=7 n=78 v=67
312000 On ch=7 n=73 v=67
312120 Off ch=7 n=82 v=64
312120 Off ch=7 n=78 v=64
312120 Off ch=7 n=73 v=64
312240 On ch=7 n=77 v=64
312240 On ch=7 n=80 v=64
312240 On ch=7 n=73 v=64
312360 Off ch=7 n=77 v=64
312360 Off ch=7 n=80 v=64
312360 Off ch=7 n=73 v=64
312480 On ch=7 n=78 v=61
312480 On ch=7 n=75 v=61
312480 On ch=7 n=73 v=61
312600 Off ch=7 n=78 v=64
312600 Off ch=7 n=75 v=64
312600 Off ch=7 n=73 v=64
312720 On ch=7 n=77 v=58
312720 On ch=7 n=73 v=58
312840 Off ch=7 n=77 v=64
312840 Off ch=7 n=73 v=64
312960 On ch=7 n=72 v=72
312960 On ch=7 n=75 v=72
312960 On ch=7 n=73 v=72
313080 Off ch=7 n=72 v=64
313080 Off ch=7 n=75 v=64
313080 Off ch=7 n=73 v=64
313200 On ch=7 n=77 v=66
313200 On ch=7 n=73 v=66
313320 Off ch=7 n=77 v=64
313320 Off ch=7 n=73 v=64
313440 On ch=7 n=78 v=61
313440 On ch=7 n=75 v=61
313440 On ch=7 n=73 v=61
313560 Off ch=7 n=78 v=64
313560 Off ch=7 n=75 v=64
313560 Off ch=7 n=73 v=64
313680 On ch=7 n=80 v=55
313680 On ch=7 n=77 v=55
313680 On ch=7 n=73 v=55
313800 Off ch=7 n=80 v=64
313800 Off ch=7 n=77 v=64
313800 Off ch=7 n=73 v=64
313920 On ch=7 n=77 v=72
313920 On ch=7 n=81 v=72
313920 On ch=7 n=66 v=72
314040 Off ch=7 n=77 v=64
314040 Off ch=7 n=81 v=64
314040 Off ch=7 n=66 v=64
314160 On ch=7 n=76 v=69
314160 On ch=7 n=79 v=69
314160 On ch=7 n=66 v=69
314280 Off ch=7 n=76 v=64
314280 Off ch=7 n=79 v=64
314280 Off ch=7 n=66 v=64
314400 On ch=7 n=77 v=66
314400 On ch=7 n=81 v=66
314400 On ch=7 n=66 v=66
314520 Off ch=7 n=77 v=64
314520 Off ch=7 n=81 v=64
314520 Off ch=7 n=66 v=64
314640 On ch=7 n=76 v=63
314640 On ch=7 n=79 v=63
314640 On ch=7 n=66 v=63
314760 Off ch=7 n=76 v=64
314760 Off ch=7 n=79 v=64
314760 Off ch=7 n=66 v=64
314880 On ch=7 n=74 v=60
314880 On ch=7 n=77 v=60
314880 On ch=7 n=66 v=60
315000 Off ch=7 n=74 v=64
315000 Off ch=7 n=77 v=64
315000 Off ch=7 n=66 v=64
315120 On ch=7 n=76 v=57
315120 On ch=7 n=72 v=57
315120 On ch=7 n=66 v=57
315240 Off ch=7 n=76 v=64
315240 Off ch=7 n=72 v=64
315240 Off ch=7 n=66 v=64
315360 On ch=7 n=71 v=72
315360 On ch=7 n=74 v=72
315360 On ch=7 n=66 v=72
315480 Off ch=7 n=71 v=64
315480 Off ch=7 n=74 v=64
315480 Off ch=7 n=66 v=64
315600 On ch=7 n=71 v=58
315600 On ch=7 n=74 v=58
315600 On ch=7 n=66 v=58
315720 Off ch=7 n=71 v=64
315720 Off ch=7 n=74 v=64
315720 Off ch=7 n=66 v=64
315840 On ch=7 n=71 v=72
315840 On ch=7 n=74 v=72
315840 On ch=7 n=66 v=72
315960 Off ch=7 n=71 v=64
315960 Off ch=7 n=74 v=64
315960 Off ch=7 n=66 v=64
316080 On ch=7 n=76 v=61
316080 On ch=7 n=72 v=61
316080 On ch=7 n=66 v=61
316200 Off ch=7 n=76 v=64
316200 Off ch=7 n=72 v=64
316200 Off ch=7 n=66 v=64
316320 On ch=7 n=74 v=72
316320 On ch=7 n=77 v=72
316320 On ch=7 n=66 v=72
316440 Off ch=7 n=74 v=64
316440 Off ch=7 n=77 v=64
316440 Off ch=7 n=66 v=64
316560 On ch=7 n=76 v=59
316560 On ch=7 n=79 v=59
316560 On ch=7 n=66 v=59
316680 Off ch=7 n=76 v=64
316680 Off ch=7 n=79 v=64
316680 Off ch=7 n=66 v=64
323244 Par ch=7 c=7 v=54
323256 Par ch=7 c=7 v=56
323280 On ch=7 n=69 v=61
323280 On ch=7 n=75 v=61
323280 On ch=7 n=72 v=61
323280 On ch=7 n=63 v=61
323280 On ch=7 n=66 v=61
323337 Par ch=7 c=7 v=56
323418 Par ch=7 c=7 v=57
323499 Par ch=7 c=7 v=58
323580 Par ch=7 c=7 v=59
323661 Par ch=7 c=7 v=60
323742 Par ch=7 c=7 v=61
323823 Par ch=7 c=7 v=62
323904 Par ch=7 c=7 v=63
323986 Par ch=7 c=7 v=64
324067 Par ch=7 c=7 v=65
324148 Par ch=7 c=7 v=66
324229 Par ch=7 c=7 v=67
324310 Par ch=7 c=7 v=68
324391 Par ch=7 c=7 v=69
324472 Par ch=7 c=7 v=70
324553 Par ch=7 c=7 v=71
324634 Par ch=7 c=7 v=72
324716 Par ch=7 c=7 v=73
324797 Par ch=7 c=7 v=74
324878 Par ch=7 c=7 v=75
324959 Par ch=7 c=7 v=76
325040 Par ch=7 c=7 v=77
325121 Par ch=7 c=7 v=78
325202 Par ch=7 c=7 v=79
325283 Par ch=7 c=7 v=80
325364 Par ch=7 c=7 v=81
325446 Par ch=7 c=7 v=82
325527 Par ch=7 c=7 v=83
325608 Par ch=7 c=7 v=84
325689 Par ch=7 c=7 v=85
325770 Par ch=7 c=7 v=86
325851 Par ch=7 c=7 v=87
325932 Par ch=7 c=7 v=88
326013 Par ch=7 c=7 v=89
326094 Par ch=7 c=7 v=90
326176 Par ch=7 c=7 v=91
326257 Par ch=7 c=7 v=92
326338 Par ch=7 c=7 v=93
326419 Par ch=7 c=7 v=94
326500 Par ch=7 c=7 v=95
326581 Par ch=7 c=7 v=96
326662 Par ch=7 c=7 v=97
326743 Par ch=7 c=7 v=98
326824 Par ch=7 c=7 v=99
326906 Par ch=7 c=7 v=100
326987 Par ch=7 c=7 v=101
327068 Par ch=7 c=7 v=102
327149 Par ch=7 c=7 v=103
327230 Par ch=7 c=7 v=104
327311 Par ch=7 c=7 v=105
327392 Par ch=7 c=7 v=106
327473 Par ch=7 c=7 v=107
327554 Par ch=7 c=7 v=108
327600 Off ch=7 n=69 v=64
327600 Off ch=7 n=75 v=64
327600 Off ch=7 n=72 v=64
327600 Off ch=7 n=63 v=64
327600 Off ch=7 n=66 v=64
327600 On ch=7 n=84 v=66
327600 On ch=7 n=80 v=66
327600 On ch=7 n=85 v=66
327635 Par ch=7 c=7 v=110
327744 Off ch=7 n=84 v=64
327744 Off ch=7 n=80 v=64
327744 Off ch=7 n=85 v=64
327840 On ch=7 n=84 v=66
327840 On ch=7 n=85 v=66
327840 On ch=7 n=80 v=66
327984 Off ch=7 n=84 v=64
327984 Off ch=7 n=85 v=64
327984 Off ch=7 n=80 v=64
328080 On ch=7 n=84 v=66
328080 On ch=7 n=85 v=66
328080 On ch=7 n=80 v=66
328224 Off ch=7 n=84 v=64
328224 Off ch=7 n=85 v=64
328224 Off ch=7 n=80 v=64
328320 On ch=7 n=81 v=66
328320 On ch=7 n=77 v=66
328320 On ch=7 n=82 v=66
328464 Off ch=7 n=81 v=64
328464 Off ch=7 n=77 v=64
328464 Off ch=7 n=82 v=64
328560 On ch=7 n=81 v=66
328560 On ch=7 n=82 v=66
328560 On ch=7 n=77 v=66
328704 Off ch=7 n=81 v=64
328704 Off ch=7 n=82 v=64
328704 Off ch=7 n=77 v=64
328800 On ch=7 n=81 v=66
328800 On ch=7 n=77 v=66
328800 On ch=7 n=82 v=66
328944 Off ch=7 n=81 v=64
328944 Off ch=7 n=77 v=64
328944 Off ch=7 n=82 v=64
329040 On ch=7 n=78 v=66
329040 On ch=7 n=74 v=66
329040 On ch=7 n=79 v=66
329184 Off ch=7 n=78 v=64
329184 Off ch=7 n=74 v=64
329184 Off ch=7 n=79 v=64
329280 On ch=7 n=79 v=66
329280 On ch=7 n=78 v=66
329280 On ch=7 n=74 v=66
329424 Off ch=7 n=79 v=64
329424 Off ch=7 n=78 v=64
329424 Off ch=7 n=74 v=64
329520 On ch=7 n=74 v=66
329520 On ch=7 n=78 v=66
329520 On ch=7 n=79 v=66
329664 Off ch=7 n=74 v=64
329664 Off ch=7 n=78 v=64
329664 Off ch=7 n=79 v=64
329760 On ch=7 n=76 v=66
329760 On ch=7 n=75 v=66
329760 On ch=7 n=71 v=66
329904 Off ch=7 n=76 v=64
329904 Off ch=7 n=75 v=64
329904 Off ch=7 n=71 v=64
330000 On ch=7 n=71 v=66
330000 On ch=7 n=76 v=66
330000 On ch=7 n=75 v=66
330144 Off ch=7 n=71 v=64
330144 Off ch=7 n=76 v=64
330144 Off ch=7 n=75 v=64
330240 On ch=7 n=75 v=66
330240 On ch=7 n=76 v=66
330240 On ch=7 n=71 v=66
330384 Off ch=7 n=75 v=64
330384 Off ch=7 n=76 v=64
330384 Off ch=7 n=71 v=64
330480 On ch=7 n=82 v=66
330480 On ch=7 n=81 v=66
330480 On ch=7 n=77 v=66
330624 Off ch=7 n=82 v=64
330624 Off ch=7 n=81 v=64
330624 Off ch=7 n=77 v=64
330720 On ch=7 n=77 v=66
330720 On ch=7 n=82 v=66
330720 On ch=7 n=81 v=66
330864 Off ch=7 n=77 v=64
330864 Off ch=7 n=82 v=64
330864 Off ch=7 n=81 v=64
330960 On ch=7 n=77 v=66
330960 On ch=7 n=81 v=66
330960 On ch=7 n=82 v=66
331104 Off ch=7 n=77 v=64
331104 Off ch=7 n=81 v=64
331104 Off ch=7 n=82 v=64
331200 On ch=7 n=78 v=66
331200 On ch=7 n=74 v=66
331200 On ch=7 n=79 v=66
331344 Off ch=7 n=78 v=64
331344 Off ch=7 n=74 v=64
331344 Off ch=7 n=79 v=64
331440 On ch=7 n=78 v=66
331440 On ch=7 n=79 v=66
331440 On ch=7 n=74 v=66
331584 Off ch=7 n=78 v=64
331584 Off ch=7 n=79 v=64
331584 Off ch=7 n=74 v=64
331680 On ch=7 n=74 v=66
331680 On ch=7 n=78 v=66
331680 On ch=7 n=79 v=66
331824 Off ch=7 n=74 v=64
331824 Off ch=7 n=78 v=64
331824 Off ch=7 n=79 v=64
331920 On ch=7 n=75 v=62
331920 On ch=7 n=76 v=62
331920 On ch=7 n=71 v=62
332064 Off ch=7 n=75 v=64
332064 Off ch=7 n=76 v=64
332064 Off ch=7 n=71 v=64
332160 On ch=7 n=71 v=62
332160 On ch=7 n=75 v=62
332160 On ch=7 n=76 v=62
332304 Off ch=7 n=71 v=64
332304 Off ch=7 n=75 v=64
332304 Off ch=7 n=76 v=64
332400 On ch=7 n=75 v=62
332400 On ch=7 n=71 v=62
332400 On ch=7 n=76 v=62
332544 Off ch=7 n=75 v=64
332544 Off ch=7 n=71 v=64
332544 Off ch=7 n=76 v=64
332640 On ch=7 n=72 v=62
332640 On ch=7 n=73 v=62
332640 On ch=7 n=68 v=62
332784 Off ch=7 n=72 v=64
332784 Off ch=7 n=73 v=64
332784 Off ch=7 n=68 v=64
332880 On ch=7 n=72 v=62
332880 On ch=7 n=68 v=62
332880 On ch=7 n=73 v=62
333024 Off ch=7 n=72 v=64
333024 Off ch=7 n=68 v=64
333024 Off ch=7 n=73 v=64
333120 On ch=7 n=73 v=62
333120 On ch=7 n=72 v=62
333120 On ch=7 n=68 v=62
333264 Off ch=7 n=73 v=64
333264 Off ch=7 n=72 v=64
333264 Off ch=7 n=68 v=64
333360 On ch=7 n=65 v=62
333360 On ch=7 n=69 v=62
333360 On ch=7 n=70 v=62
333504 Off ch=7 n=65 v=64
333504 Off ch=7 n=69 v=64
333504 Off ch=7 n=70 v=64
333600 On ch=7 n=70 v=62
333600 On ch=7 n=69 v=62
333600 On ch=7 n=65 v=62
333744 Off ch=7 n=70 v=64
333744 Off ch=7 n=69 v=64
333744 Off ch=7 n=65 v=64
333840 On ch=7 n=65 v=62
333840 On ch=7 n=69 v=62
333840 On ch=7 n=70 v=62
333984 Off ch=7 n=65 v=64
333984 Off ch=7 n=69 v=64
333984 Off ch=7 n=70 v=64
341520 Par ch=7 c=0 v=0
341520 Par ch=7 c=32 v=2
341520 PrCh ch=7 p=70
342720 On ch=7 n=36 v=86
342720 On ch=7 n=48 v=86
342944 Off ch=7 n=36 v=64
342944 Off ch=7 n=48 v=64
348960 On ch=7 n=36 v=86
348960 On ch=7 n=48 v=86
349184 Off ch=7 n=36 v=64
349184 Off ch=7 n=48 v=64
350880 On ch=7 n=36 v=86
350880 On ch=7 n=48 v=86
351104 Off ch=7 n=36 v=64
351104 Off ch=7 n=48 v=64
351360 On ch=7 n=36 v=86
351360 On ch=7 n=48 v=86
351584 Off ch=7 n=36 v=64
351584 Off ch=7 n=48 v=64
355200 On ch=7 n=36 v=86
355200 On ch=7 n=48 v=86
355424 Off ch=7 n=36 v=64
355424 Off ch=7 n=48 v=64
357120 On ch=7 n=36 v=86
357120 On ch=7 n=48 v=86
357344 Off ch=7 n=36 v=64
357344 Off ch=7 n=48 v=64
358560 On ch=7 n=36 v=86
358560 On ch=7 n=48 v=86
358784 Off ch=7 n=36 v=64
358784 Off ch=7 n=48 v=64
360000 On ch=7 n=36 v=86
360000 On ch=7 n=48 v=86
360224 Off ch=7 n=36 v=64
360224 Off ch=7 n=48 v=64
360960 On ch=7 n=36 v=86
360960 On ch=7 n=48 v=86
361184 Off ch=7 n=36 v=64
361184 Off ch=7 n=48 v=64
415848 Par ch=7 c=7 v=100
416160 Par ch=7 c=7 v=86
416459 Par ch=7 c=7 v=86
416640 On ch=7 n=34 v=44
416640 On ch=7 n=39 v=44
416640 On ch=7 n=27 v=44
416640 On ch=7 n=46 v=44
417120 Off ch=7 n=34 v=64
417120 Off ch=7 n=39 v=64
417120 Off ch=7 n=27 v=64
417120 Off ch=7 n=46 v=64
418560 On ch=7 n=46 v=44
418560 On ch=7 n=34 v=44
418560 On ch=7 n=27 v=44
418560 On ch=7 n=39 v=44
419040 Off ch=7 n=46 v=64
419040 Off ch=7 n=34 v=64
419040 Off ch=7 n=27 v=64
419040 Off ch=7 n=39 v=64
420480 On ch=7 n=34 v=44
420480 On ch=7 n=27 v=44
420480 On ch=7 n=39 v=44
420480 On ch=7 n=46 v=44
420960 Off ch=7 n=34 v=64
420960 Off ch=7 n=27 v=64
420960 Off ch=7 n=39 v=64
420960 Off ch=7 n=46 v=64
422400 On ch=7 n=39 v=44
422400 On ch=7 n=46 v=44
422400 On ch=7 n=34 v=44
422400 On ch=7 n=27 v=44
422640 Off ch=7 n=39 v=64
422640 Off ch=7 n=46 v=64
422640 Off ch=7 n=34 v=64
422640 Off ch=7 n=27 v=64
422640 On ch=7 n=53 v=44
422880 Off ch=7 n=53 v=64
422880 On ch=7 n=55 v=44
423080 Off ch=7 n=55 v=64
423080 On ch=7 n=55 v=44
423120 On ch=7 n=58 v=44
423145 Off ch=7 n=55 v=64
423320 On ch=7 n=58 v=44
423325 Off ch=7 n=58 v=64
423360 On ch=7 n=56 v=44
423385 Off ch=7 n=58 v=64
423600 Off ch=7 n=56 v=64
423600 On ch=7 n=55 v=44
423840 Off ch=7 n=55 v=64
423840 On ch=7 n=53 v=44
424045 On ch=7 n=49 v=44
424060 Off ch=7 n=53 v=64
424080 On ch=7 n=51 v=44
424110 Off ch=7 n=49 v=64
424320 On ch=7 n=34 v=44
424320 On ch=7 n=39 v=44
424320 On ch=7 n=27 v=44
424320 On ch=7 n=46 v=44
424331 Off ch=7 n=51 v=64
424800 Off ch=7 n=34 v=64
424800 Off ch=7 n=39 v=64
424800 Off ch=7 n=27 v=64
424800 Off ch=7 n=46 v=64
426240 On ch=7 n=46 v=44
426240 On ch=7 n=34 v=44
426240 On ch=7 n=27 v=44
426240 On ch=7 n=39 v=44
426720 Off ch=7 n=46 v=64
426720 Off ch=7 n=34 v=64
426720 Off ch=7 n=27 v=64
426720 Off ch=7 n=39 v=64
428160 On ch=7 n=39 v=44
428160 On ch=7 n=46 v=44
428160 On ch=7 n=34 v=44
428160 On ch=7 n=27 v=44
428400 Off ch=7 n=39 v=64
428400 Off ch=7 n=46 v=64
428400 Off ch=7 n=34 v=64
428400 Off ch=7 n=27 v=64
428400 On ch=7 n=53 v=44
428640 Off ch=7 n=53 v=64
428640 On ch=7 n=55 v=44
428840 Off ch=7 n=55 v=64
428840 On ch=7 n=55 v=44
428880 On ch=7 n=58 v=44
428905 Off ch=7 n=55 v=64
429080 On ch=7 n=58 v=44
429085 Off ch=7 n=58 v=64
429120 On ch=7 n=56 v=44
429145 Off ch=7 n=58 v=64
429360 Off ch=7 n=56 v=64
429360 On ch=7 n=55 v=44
429600 Off ch=7 n=55 v=64
429600 On ch=7 n=53 v=44
429805 On ch=7 n=49 v=44
429820 Off ch=7 n=53 v=64
429840 On ch=7 n=51 v=44
429870 Off ch=7 n=49 v=64
430080 On ch=7 n=53 v=44
430103 Off ch=7 n=51 v=64
430320 Off ch=7 n=53 v=64
430320 On ch=7 n=55 v=44
430520 On ch=7 n=58 v=44
430525 Off ch=7 n=55 v=64
430560 On ch=7 n=56 v=44
430585 Off ch=7 n=58 v=64
430800 Off ch=7 n=56 v=64
430800 On ch=7 n=55 v=44
431040 Off ch=7 n=55 v=64
431040 On ch=7 n=53 v=44
431245 On ch=7 n=49 v=44
431260 Off ch=7 n=53 v=64
431280 On ch=7 n=51 v=44
431310 Off ch=7 n=49 v=64
431520 On ch=7 n=53 v=44
431520 On ch=7 n=46 v=44
431520 On ch=7 n=34 v=44
431520 On ch=7 n=27 v=44
431520 On ch=7 n=39 v=44
431543 Off ch=7 n=51 v=64
431740 Off ch=7 n=53 v=64
432000 Off ch=7 n=46 v=64
432000 Off ch=7 n=34 v=64
432000 Off ch=7 n=27 v=64
432000 Off ch=7 n=39 v=64
433440 On ch=7 n=46 v=44
433440 On ch=7 n=34 v=44
433440 On ch=7 n=27 v=44
433440 On ch=7 n=39 v=44
433920 Off ch=7 n=46 v=64
433920 Off ch=7 n=34 v=64
433920 Off ch=7 n=27 v=64
433920 Off ch=7 n=39 v=64
435360 On ch=7 n=46 v=44
435360 On ch=7 n=34 v=44
435360 On ch=7 n=27 v=44
435360 On ch=7 n=39 v=44
435840 Off ch=7 n=46 v=64
435840 Off ch=7 n=34 v=64
435840 Off ch=7 n=27 v=64
435840 Off ch=7 n=39 v=64
437280 On ch=7 n=46 v=44
437280 On ch=7 n=34 v=44
437280 On ch=7 n=27 v=44
437280 On ch=7 n=39 v=44
437760 Off ch=7 n=46 v=64
437760 Off ch=7 n=34 v=64
437760 Off ch=7 n=27 v=64
437760 Off ch=7 n=39 v=64
439200 On ch=7 n=46 v=44
439200 On ch=7 n=34 v=44
439200 On ch=7 n=27 v=44
439200 On ch=7 n=39 v=44
439680 Off ch=7 n=46 v=64
439680 Off ch=7 n=34 v=64
439680 Off ch=7 n=27 v=64
439680 Off ch=7 n=39 v=64
441120 On ch=7 n=46 v=44
441120 On ch=7 n=34 v=44
441120 On ch=7 n=27 v=44
441120 On ch=7 n=39 v=44
441600 Off ch=7 n=46 v=64
441600 Off ch=7 n=34 v=64
441600 Off ch=7 n=27 v=64
441600 Off ch=7 n=39 v=64
443040 On ch=7 n=46 v=44
443040 On ch=7 n=34 v=44
443040 On ch=7 n=27 v=44
443040 On ch=7 n=39 v=44
443520 Off ch=7 n=46 v=64
443520 Off ch=7 n=34 v=64
443520 Off ch=7 n=27 v=64
443520 Off ch=7 n=39 v=64
444960 On ch=7 n=46 v=44
444960 On ch=7 n=34 v=44
444960 On ch=7 n=27 v=44
444960 On ch=7 n=39 v=44
445440 Off ch=7 n=46 v=64
445440 Off ch=7 n=34 v=64
445440 Off ch=7 n=27 v=64
445440 Off ch=7 n=39 v=64
446880 On ch=7 n=46 v=44
446880 On ch=7 n=34 v=44
446880 On ch=7 n=27 v=44
446880 On ch=7 n=39 v=44
447360 Off ch=7 n=46 v=64
447360 Off ch=7 n=34 v=64
447360 Off ch=7 n=27 v=64
447360 Off ch=7 n=39 v=64
448800 On ch=7 n=46 v=44
448800 On ch=7 n=34 v=44
448800 On ch=7 n=27 v=44
448800 On ch=7 n=39 v=44
449280 Off ch=7 n=46 v=64
449280 Off ch=7 n=34 v=64
449280 Off ch=7 n=27 v=64
449280 Off ch=7 n=39 v=64
450720 On ch=7 n=46 v=44
450720 On ch=7 n=34 v=44
450720 On ch=7 n=27 v=44
450720 On ch=7 n=39 v=44
451200 Off ch=7 n=46 v=64
451200 Off ch=7 n=34 v=64
451200 Off ch=7 n=27 v=64
451200 Off ch=7 n=39 v=64
453600 On ch=7 n=46 v=44
453600 On ch=7 n=34 v=44
453600 On ch=7 n=27 v=44
453600 On ch=7 n=39 v=44
454080 Off ch=7 n=46 v=64
454080 Off ch=7 n=34 v=64
454080 Off ch=7 n=27 v=64
454080 Off ch=7 n=39 v=64
455520 On ch=7 n=34 v=44
455520 On ch=7 n=27 v=44
455520 On ch=7 n=39 v=44
455520 On ch=7 n=46 v=44
456000 Off ch=7 n=34 v=64
456000 Off ch=7 n=27 v=64
456000 Off ch=7 n=39 v=64
456000 Off ch=7 n=46 v=64
457440 On ch=7 n=39 v=44
457440 On ch=7 n=46 v=44
457440 On ch=7 n=34 v=44
457440 On ch=7 n=27 v=44
457680 Off ch=7 n=39 v=64
457680 Off ch=7 n=46 v=64
457680 Off ch=7 n=34 v=64
457680 Off ch=7 n=27 v=64
457680 On ch=7 n=53 v=44
457920 Off ch=7 n=53 v=64
457920 On ch=7 n=55 v=44
458120 Off ch=7 n=55 v=64
458120 On ch=7 n=55 v=44
458160 On ch=7 n=58 v=44
458185 Off ch=7 n=55 v=64
458360 On ch=7 n=58 v=44
458365 Off ch=7 n=58 v=64
458400 On ch=7 n=56 v=44
458425 Off ch=7 n=58 v=64
458640 Off ch=7 n=56 v=64
458640 On ch=7 n=55 v=44
458880 Off ch=7 n=55 v=64
458880 On ch=7 n=53 v=44
459085 On ch=7 n=49 v=44
459100 Off ch=7 n=53 v=64
459120 On ch=7 n=51 v=44
459150 Off ch=7 n=49 v=64
459360 On ch=7 n=34 v=44
459360 On ch=7 n=39 v=44
459360 On ch=7 n=27 v=44
459360 On ch=7 n=46 v=44
459360 On ch=7 n=53 v=44
459371 Off ch=7 n=51 v=64
459611 Off ch=7 n=53 v=64
459840 Off ch=7 n=34 v=64
459840 Off ch=7 n=39 v=64
459840 Off ch=7 n=27 v=64
459840 Off ch=7 n=46 v=64
461280 On ch=7 n=39 v=44
461280 On ch=7 n=46 v=44
461280 On ch=7 n=34 v=44
461280 On ch=7 n=27 v=44
461520 Off ch=7 n=39 v=64
461520 Off ch=7 n=46 v=64
461520 Off ch=7 n=34 v=64
461520 Off ch=7 n=27 v=64
461520 On ch=7 n=53 v=44
461760 Off ch=7 n=53 v=64
461760 On ch=7 n=55 v=44
461960 Off ch=7 n=55 v=64
461960 On ch=7 n=55 v=44
462000 On ch=7 n=58 v=44
462025 Off ch=7 n=55 v=64
462200 On ch=7 n=58 v=44
462205 Off ch=7 n=58 v=64
462240 On ch=7 n=56 v=44
462265 Off ch=7 n=58 v=64
462480 Off ch=7 n=56 v=64
462480 On ch=7 n=55 v=44
462720 Off ch=7 n=55 v=64
462720 On ch=7 n=53 v=44
462925 On ch=7 n=49 v=44
462940 Off ch=7 n=53 v=64
462960 On ch=7 n=51 v=44
462990 Off ch=7 n=49 v=64
463200 On ch=7 n=53 v=44
463223 Off ch=7 n=51 v=64
463440 Off ch=7 n=53 v=64
463440 On ch=7 n=55 v=44
463640 On ch=7 n=58 v=44
463645 Off ch=7 n=55 v=64
463680 On ch=7 n=56 v=44
463705 Off ch=7 n=58 v=64
463920 Off ch=7 n=56 v=64
463920 On ch=7 n=55 v=44
464160 Off ch=7 n=55 v=64
464160 On ch=7 n=53 v=44
464365 On ch=7 n=49 v=44
464380 Off ch=7 n=53 v=64
464400 On ch=7 n=51 v=44
464430 Off ch=7 n=49 v=64
464633 Off ch=7 n=51 v=64
524160 Meta TrkEnd
TrkEnd
MTrk
0 Meta InstrName "SC-88VL"
0 Meta TrkName "Cla"
480 Par ch=8 c=0 v=0
480 Par ch=8 c=32 v=2
480 PrCh ch=8 p=71
960 Par ch=8 c=93 v=0
960 Par ch=8 c=91 v=110
970 Par ch=8 c=7 v=100
8590 Par ch=8 c=7 v=68
8608 Par ch=8 c=7 v=68
8627 Par ch=8 c=7 v=69
8640 On ch=8 n=66 v=58
8646 Par ch=8 c=7 v=70
8665 Par ch=8 c=7 v=71
8684 Par ch=8 c=7 v=72
8703 Par ch=8 c=7 v=73
8722 Par ch=8 c=7 v=74
8741 Par ch=8 c=7 v=75
8760 Par ch=8 c=7 v=76
8779 Par ch=8 c=7 v=77
8797 Par ch=8 c=7 v=78
8816 Par ch=8 c=7 v=79
8835 Par ch=8 c=7 v=80
8854 Par ch=8 c=7 v=81
8873 Par ch=8 c=7 v=82
8892 Par ch=8 c=7 v=83
8911 Par ch=8 c=7 v=84
8930 Par ch=8 c=7 v=85
8949 Par ch=8 c=7 v=86
8968 Par ch=8 c=7 v=87
8987 Par ch=8 c=7 v=88
9005 Par ch=8 c=7 v=89
9024 Par ch=8 c=7 v=90
9043 Par ch=8 c=7 v=91
9062 Par ch=8 c=7 v=92
9081 Par ch=8 c=7 v=93
9100 Par ch=8 c=7 v=94
9119 Par ch=8 c=7 v=95
9138 Par ch=8 c=7 v=96
9157 Par ch=8 c=7 v=97
9176 Par ch=8 c=7 v=98
9194 Par ch=8 c=7 v=100
9759 Par ch=8 c=7 v=102
9760 On ch=8 n=63 v=45
9768 Off ch=8 n=66 v=64
9790 Par ch=8 c=7 v=101
9822 Par ch=8 c=7 v=100
9854 Par ch=8 c=7 v=99
9878 On ch=8 n=66 v=41
9884 Off ch=8 n=63 v=64
9886 Par ch=8 c=7 v=98
9917 Par ch=8 c=7 v=97
9920 On ch=8 n=64 v=44
9927 Off ch=8 n=66 v=64
9949 Par ch=8 c=7 v=96
9981 Par ch=8 c=7 v=95
10013 Par ch=8 c=7 v=94
10044 Par ch=8 c=7 v=93
10076 Par ch=8 c=7 v=92
10080 Off ch=8 n=64 v=64
10080 On ch=8 n=61 v=44
10108 Par ch=8 c=7 v=91
10140 Par ch=8 c=7 v=90
10172 Par ch=8 c=7 v=89
10203 Par ch=8 c=7 v=88
10207 On ch=8 n=64 v=36
10219 Off ch=8 n=61 v=64
10235 Par ch=8 c=7 v=87
10240 On ch=8 n=62 v=43
10257 Off ch=8 n=64 v=64
10267 Par ch=8 c=7 v=86
10299 Par ch=8 c=7 v=85
10330 Par ch=8 c=7 v=84
10362 Par ch=8 c=7 v=83
10394 Par ch=8 c=7 v=82
10400 Off ch=8 n=62 v=64
10400 On ch=8 n=59 v=35
10426 Par ch=8 c=7 v=81
10457 Par ch=8 c=7 v=80
10704 Off ch=8 n=59 v=64
25868 Par ch=8 c=7 v=30
25876 Par ch=8 c=7 v=30
25884 Par ch=8 c=7 v=31
25892 Par ch=8 c=7 v=32
25900 Par ch=8 c=7 v=33
25908 Par ch=8 c=7 v=34
25917 Par ch=8 c=7 v=35
25920 On ch=8 n=82 v=64
25925 Par ch=8 c=7 v=36
25933 Par ch=8 c=7 v=37
25941 Par ch=8 c=7 v=38
25949 Par ch=8 c=7 v=39
25957 Par ch=8 c=7 v=40
25966 Par ch=8 c=7 v=41
25974 Par ch=8 c=7 v=42
25982 Par ch=8 c=7 v=43
25990 Par ch=8 c=7 v=44
25998 Par ch=8 c=7 v=45
26006 Par ch=8 c=7 v=46
26015 Par ch=8 c=7 v=47
26023 Par ch=8 c=7 v=48
26031 Par ch=8 c=7 v=49
26039 Par ch=8 c=7 v=50
26047 Par ch=8 c=7 v=51
26055 Par ch=8 c=7 v=52
26064 Par ch=8 c=7 v=53
26072 Par ch=8 c=7 v=54
26080 Par ch=8 c=7 v=55
26088 Par ch=8 c=7 v=56
26096 Par ch=8 c=7 v=57
26104 Par ch=8 c=7 v=58
26113 Par ch=8 c=7 v=59
26121 Par ch=8 c=7 v=60
26129 Par ch=8 c=7 v=61
26137 Par ch=8 c=7 v=62
26145 Par ch=8 c=7 v=63
26153 Par ch=8 c=7 v=64
26162 Par ch=8 c=7 v=65
26170 Par ch=8 c=7 v=66
26178 Par ch=8 c=7 v=67
26186 Par ch=8 c=7 v=68
26194 Par ch=8 c=7 v=69
26202 Par ch=8 c=7 v=70
26211 Par ch=8 c=7 v=71
26219 Par ch=8 c=7 v=72
26227 Par ch=8 c=7 v=73
26235 Par ch=8 c=7 v=74
26243 Par ch=8 c=7 v=75
26251 Par ch=8 c=7 v=76
26259 Par ch=8 c=7 v=78
26560 On ch=8 n=81 v=56
26572 Off ch=8 n=82 v=64
26684 On ch=8 n=82 v=56
26704 Off ch=8 n=81 v=64
26720 On ch=8 n=80 v=56
26732 Off ch=8 n=82 v=64
26880 Off ch=8 n=80 v=64
26880 On ch=8 n=79 v=56
27004 On ch=8 n=82 v=56
27020 Off ch=8 n=79 v=64
27024 Par ch=8 c=7 v=78
27035 Par ch=8 c=7 v=77
27040 On ch=8 n=80 v=56
27046 Par ch=8 c=7 v=76
27052 Off ch=8 n=82 v=64
27057 Par ch=8 c=7 v=75
27068 Par ch=8 c=7 v=74
27079 Par ch=8 c=7 v=73
27090 Par ch=8 c=7 v=72
27101 Par ch=8 c=7 v=71
27113 Par ch=8 c=7 v=70
27124 Par ch=8 c=7 v=69
27135 Par ch=8 c=7 v=68
27146 Par ch=8 c=7 v=67
27157 Par ch=8 c=7 v=66
27168 Par ch=8 c=7 v=65
27179 Par ch=8 c=7 v=64
27191 Par ch=8 c=7 v=62
27200 Off ch=8 n=80 v=64
27200 On ch=8 n=79 v=56
27202 Par ch=8 c=7 v=62
27213 Par ch=8 c=7 v=61
27224 Par ch=8 c=7 v=60
27235 Par ch=8 c=7 v=59
27246 Par ch=8 c=7 v=58
27257 Par ch=8 c=7 v=57
27268 Par ch=8 c=7 v=56
27280 Par ch=8 c=7 v=55
27291 Par ch=8 c=7 v=54
27302 Par ch=8 c=7 v=53
27313 Par ch=8 c=7 v=52
27324 Par ch=8 c=7 v=51
27335 Par ch=8 c=7 v=50
27346 Par ch=8 c=7 v=49
27357 Par ch=8 c=7 v=48
27360 Off ch=8 n=79 v=64
27360 On ch=8 n=76 v=56
27369 Par ch=8 c=7 v=47
27380 Par ch=8 c=7 v=46
27391 Par ch=8 c=7 v=45
27402 Par ch=8 c=7 v=44
27413 Par ch=8 c=7 v=43
27424 Par ch=8 c=7 v=42
27435 Par ch=8 c=7 v=41
27446 Par ch=8 c=7 v=40
27458 Par ch=8 c=7 v=39
27469 Par ch=8 c=7 v=38
27480 Par ch=8 c=7 v=37
27491 Par ch=8 c=7 v=36
27502 Par ch=8 c=7 v=35
27513 Par ch=8 c=7 v=34
27524 Par ch=8 c=7 v=33
27535 Par ch=8 c=7 v=32
27544 Off ch=8 n=76 v=64
27594 Par ch=8 c=7 v=32
27599 Par ch=8 c=7 v=32
27600 On ch=8 n=82 v=67
27605 Par ch=8 c=7 v=33
27610 Par ch=8 c=7 v=34
27616 Par ch=8 c=7 v=35
27622 Par ch=8 c=7 v=36
27627 Par ch=8 c=7 v=37
27633 Par ch=8 c=7 v=38
27639 Par ch=8 c=7 v=39
27644 Par ch=8 c=7 v=40
27650 Par ch=8 c=7 v=41
27655 Par ch=8 c=7 v=42
27661 Par ch=8 c=7 v=43
27667 Par ch=8 c=7 v=44
27672 Par ch=8 c=7 v=45
27678 Par ch=8 c=7 v=46
27684 Par ch=8 c=7 v=47
27689 Par ch=8 c=7 v=48
27695 Par ch=8 c=7 v=49
27700 Par ch=8 c=7 v=50
27706 Par ch=8 c=7 v=51
27712 Par ch=8 c=7 v=52
27717 Par ch=8 c=7 v=53
27723 Par ch=8 c=7 v=54
27729 Par ch=8 c=7 v=55
27734 Par ch=8 c=7 v=56
27740 Par ch=8 c=7 v=57
27745 Par ch=8 c=7 v=58
27751 Par ch=8 c=7 v=59
27757 Par ch=8 c=7 v=60
27762 Par ch=8 c=7 v=61
27768 Par ch=8 c=7 v=62
27774 Par ch=8 c=7 v=63
27779 Par ch=8 c=7 v=64
27785 Par ch=8 c=7 v=65
27790 Par ch=8 c=7 v=66
27796 Par ch=8 c=7 v=67
27802 Par ch=8 c=7 v=68
27807 Par ch=8 c=7 v=69
27813 Par ch=8 c=7 v=70
27819 Par ch=8 c=7 v=71
27824 Par ch=8 c=7 v=72
27830 Par ch=8 c=7 v=73
27835 Par ch=8 c=7 v=74
27841 Par ch=8 c=7 v=75
27847 Par ch=8 c=7 v=76
27852 Par ch=8 c=7 v=77
27858 Par ch=8 c=7 v=78
27863 Par ch=8 c=7 v=80
28000 On ch=8 n=81 v=56
28004 Off ch=8 n=82 v=64
28124 On ch=8 n=82 v=56
28136 Off ch=8 n=81 v=64
28160 On ch=8 n=80 v=56
28172 Off ch=8 n=82 v=64
28320 Off ch=8 n=80 v=64
28320 On ch=8 n=79 v=56
28444 On ch=8 n=82 v=56
28456 Off ch=8 n=79 v=64
28480 On ch=8 n=80 v=56
28492 Off ch=8 n=82 v=64
28640 Off ch=8 n=80 v=64
28640 On ch=8 n=79 v=56
28800 Off ch=8 n=79 v=64
28800 On ch=8 n=76 v=56
28880 Off ch=8 n=76 v=64
28880 On ch=8 n=78 v=54
28960 Off ch=8 n=78 v=64
28960 On ch=8 n=82 v=53
29040 Off ch=8 n=82 v=64
29040 On ch=8 n=78 v=52
29120 Off ch=8 n=78 v=64
29120 On ch=8 n=80 v=51
29200 Off ch=8 n=80 v=64
29200 On ch=8 n=79 v=49
29280 Off ch=8 n=79 v=64
29280 On ch=8 n=76 v=48
29840 On ch=8 n=78 v=51
29844 Off ch=8 n=76 v=64
29920 Off ch=8 n=78 v=64
29920 On ch=8 n=82 v=50
30000 Off ch=8 n=82 v=64
30000 On ch=8 n=78 v=49
30080 Off ch=8 n=78 v=64
30080 On ch=8 n=80 v=48
30160 Off ch=8 n=80 v=64
30160 On ch=8 n=79 v=47
30240 Off ch=8 n=79 v=64
30240 On ch=8 n=76 v=46
30320 Off ch=8 n=76 v=64
30320 On ch=8 n=78 v=53
30400 Off ch=8 n=78 v=64
30400 On ch=8 n=82 v=52
30480 Off ch=8 n=82 v=64
30480 On ch=8 n=78 v=50
30560 Off ch=8 n=78 v=64
30560 On ch=8 n=80 v=49
30640 Off ch=8 n=80 v=64
30640 On ch=8 n=79 v=48
30720 Off ch=8 n=79 v=64
30720 On ch=8 n=76 v=47
30780 On ch=8 n=75 v=46
30804 Off ch=8 n=76 v=64
30840 On ch=8 n=74 v=45
30864 Off ch=8 n=75 v=64
30900 On ch=8 n=73 v=44
30924 Off ch=8 n=74 v=64
30960 On ch=8 n=75 v=43
30984 Off ch=8 n=73 v=64
31020 On ch=8 n=73 v=42
31044 Off ch=8 n=75 v=64
31080 On ch=8 n=72 v=41
31104 Off ch=8 n=73 v=64
31140 On ch=8 n=71 v=40
31164 Off ch=8 n=72 v=64
31200 On ch=8 n=69 v=50
31200 On ch=8 n=69 v=50
31224 Off ch=8 n=71 v=64
31260 On ch=8 n=76 v=48
31260 On ch=8 n=71 v=48
31284 Off ch=8 n=69 v=64
31284 Off ch=8 n=69 v=64
31320 On ch=8 n=75 v=47
31320 On ch=8 n=70 v=47
31344 Off ch=8 n=76 v=64
31344 Off ch=8 n=71 v=64
31380 On ch=8 n=74 v=46
31380 On ch=8 n=69 v=46
31404 Off ch=8 n=75 v=64
31404 Off ch=8 n=70 v=64
31440 On ch=8 n=73 v=44
31440 On ch=8 n=68 v=44
31464 Off ch=8 n=74 v=64
31464 Off ch=8 n=69 v=64
31500 On ch=8 n=72 v=43
31500 On ch=8 n=67 v=43
31524 Off ch=8 n=73 v=64
31524 Off ch=8 n=68 v=64
31560 On ch=8 n=71 v=42
31560 On ch=8 n=66 v=42
31584 Off ch=8 n=72 v=64
31584 Off ch=8 n=67 v=64
31620 On ch=8 n=70 v=41
31620 On ch=8 n=65 v=41
31644 Off ch=8 n=71 v=64
31644 Off ch=8 n=66 v=64
31680 On ch=8 n=69 v=39
31680 On ch=8 n=64 v=39
31704 Off ch=8 n=70 v=64
31704 Off ch=8 n=65 v=64
31800 Off ch=8 n=69 v=64
31800 Off ch=8 n=64 v=64
32640 On ch=8 n=76 v=47
32700 On ch=8 n=75 v=46
32718 Off ch=8 n=76 v=64
32760 On ch=8 n=74 v=45
32778 Off ch=8 n=75 v=64
32820 On ch=8 n=73 v=44
32838 Off ch=8 n=74 v=64
32880 On ch=8 n=75 v=43
32898 Off ch=8 n=73 v=64
32940 On ch=8 n=73 v=42
32958 Off ch=8 n=75 v=64
33000 On ch=8 n=72 v=41
33018 Off ch=8 n=73 v=64
33060 On ch=8 n=71 v=40
33078 Off ch=8 n=72 v=64
33120 On ch=8 n=69 v=47
33120 On ch=8 n=69 v=47
33138 Off ch=8 n=71 v=64
33180 On ch=8 n=77 v=46
33180 On ch=8 n=72 v=46
33198 Off ch=8 n=69 v=64
33198 Off ch=8 n=69 v=64
33240 On ch=8 n=76 v=45
33240 On ch=8 n=71 v=45
33258 Off ch=8 n=77 v=64
33258 Off ch=8 n=72 v=64
33300 On ch=8 n=75 v=44
33300 On ch=8 n=70 v=44
33318 Off ch=8 n=76 v=64
33318 Off ch=8 n=71 v=64
33360 On ch=8 n=74 v=43
33360 On ch=8 n=69 v=43
33378 Off ch=8 n=75 v=64
33378 Off ch=8 n=70 v=64
33420 On ch=8 n=73 v=42
33420 On ch=8 n=68 v=42
33438 Off ch=8 n=74 v=64
33438 Off ch=8 n=69 v=64
33480 On ch=8 n=72 v=41
33480 On ch=8 n=67 v=41
33498 Off ch=8 n=73 v=64
33498 Off ch=8 n=68 v=64
33540 On ch=8 n=71 v=40
33540 On ch=8 n=66 v=40
33558 Off ch=8 n=72 v=64
33558 Off ch=8 n=67 v=64
33600 On ch=8 n=70 v=39
33600 On ch=8 n=65 v=39
33618 Off ch=8 n=71 v=64
33618 Off ch=8 n=66 v=64
33720 Off ch=8 n=70 v=64
33720 Off ch=8 n=65 v=64
44150 On ch=8 n=62 v=46
44160 On ch=8 n=66 v=46
44174 Off ch=8 n=62 v=64
44320 Off ch=8 n=66 v=64
44320 On ch=8 n=63 v=41
44432 Off ch=8 n=63 v=64
44470 On ch=8 n=62 v=46
44480 On ch=8 n=66 v=46
44494 Off ch=8 n=62 v=64
44640 Off ch=8 n=66 v=64
44640 On ch=8 n=63 v=41
44752 Off ch=8 n=63 v=64
44790 On ch=8 n=62 v=46
44800 On ch=8 n=66 v=46
44814 Off ch=8 n=62 v=64
44960 Off ch=8 n=66 v=64
44960 On ch=8 n=63 v=41
45072 Off ch=8 n=63 v=64
45110 On ch=8 n=62 v=46
45120 On ch=8 n=66 v=46
45134 Off ch=8 n=62 v=64
45280 Off ch=8 n=66 v=64
45280 On ch=8 n=63 v=41
45392 Off ch=8 n=63 v=64
45430 On ch=8 n=62 v=46
45440 On ch=8 n=66 v=46
45454 Off ch=8 n=62 v=64
45600 Off ch=8 n=66 v=64
45600 On ch=8 n=63 v=41
45712 Off ch=8 n=63 v=64
45750 On ch=8 n=62 v=46
45760 On ch=8 n=66 v=46
45774 Off ch=8 n=62 v=64
45920 Off ch=8 n=66 v=64
45920 On ch=8 n=63 v=41
46032 Off ch=8 n=63 v=64
46070 On ch=8 n=62 v=46
46080 On ch=8 n=66 v=46
46094 Off ch=8 n=62 v=64
46240 Off ch=8 n=66 v=64
46240 On ch=8 n=63 v=41
46352 Off ch=8 n=63 v=64
46390 On ch=8 n=62 v=46
46400 On ch=8 n=66 v=46
46414 Off ch=8 n=62 v=64
46560 Off ch=8 n=66 v=64
46560 On ch=8 n=63 v=41
46672 Off ch=8 n=63 v=64
46710 On ch=8 n=62 v=46
46720 On ch=8 n=66 v=46
46734 Off ch=8 n=62 v=64
46880 Off ch=8 n=66 v=64
46880 On ch=8 n=63 v=41
46992 Off ch=8 n=63 v=64
48000 On ch=8 n=66 v=46
48160 Off ch=8 n=66 v=64
48160 On ch=8 n=63 v=41
48272 Off ch=8 n=63 v=64
48310 On ch=8 n=62 v=46
48320 On ch=8 n=66 v=46
48334 Off ch=8 n=62 v=64
48480 Off ch=8 n=66 v=64
48480 On ch=8 n=63 v=41
48592 Off ch=8 n=63 v=64
48630 On ch=8 n=62 v=46
48640 On ch=8 n=66 v=46
48654 Off ch=8 n=62 v=64
48800 Off ch=8 n=66 v=64
48800 On ch=8 n=63 v=41
48912 Off ch=8 n=63 v=64
50864 On ch=8 n=66 v=54
50880 On ch=8 n=56 v=54
50900 Off ch=8 n=66 v=64
51040 Off ch=8 n=56 v=64
51040 On ch=8 n=52 v=47
51160 Off ch=8 n=52 v=64
51184 On ch=8 n=66 v=54
51200 On ch=8 n=56 v=54
51220 Off ch=8 n=66 v=64
51360 Off ch=8 n=56 v=64
51360 On ch=8 n=52 v=44
51480 Off ch=8 n=52 v=64
51504 On ch=8 n=66 v=54
51520 On ch=8 n=56 v=54
51540 Off ch=8 n=66 v=64
51680 Off ch=8 n=56 v=64
51680 On ch=8 n=52 v=43
51800 Off ch=8 n=52 v=64
51824 On ch=8 n=66 v=54
51840 On ch=8 n=56 v=54
51860 Off ch=8 n=66 v=64
52000 Off ch=8 n=56 v=64
52000 On ch=8 n=52 v=47
52120 Off ch=8 n=52 v=64
52144 On ch=8 n=66 v=54
52160 On ch=8 n=56 v=54
52180 Off ch=8 n=66 v=64
52320 Off ch=8 n=56 v=64
52320 On ch=8 n=52 v=44
52440 Off ch=8 n=52 v=64
52464 On ch=8 n=66 v=54
52480 On ch=8 n=56 v=54
52500 Off ch=8 n=66 v=64
52640 Off ch=8 n=56 v=64
52640 On ch=8 n=52 v=43
52760 Off ch=8 n=52 v=64
52784 On ch=8 n=66 v=54
52800 On ch=8 n=56 v=54
52820 Off ch=8 n=66 v=64
52960 Off ch=8 n=56 v=64
52960 On ch=8 n=52 v=47
53080 Off ch=8 n=52 v=64
53104 On ch=8 n=66 v=54
53120 On ch=8 n=56 v=54
53140 Off ch=8 n=66 v=64
53280 Off ch=8 n=56 v=64
53280 On ch=8 n=52 v=44
53400 Off ch=8 n=52 v=64
53424 On ch=8 n=66 v=54
53440 On ch=8 n=56 v=54
53460 Off ch=8 n=66 v=64
53600 Off ch=8 n=56 v=64
53600 On ch=8 n=52 v=43
53720 Off ch=8 n=52 v=64
53744 On ch=8 n=66 v=54
53760 On ch=8 n=56 v=54
53780 Off ch=8 n=66 v=64
53920 Off ch=8 n=56 v=64
53920 On ch=8 n=52 v=47
54040 Off ch=8 n=52 v=64
54064 On ch=8 n=66 v=54
54080 On ch=8 n=56 v=54
54100 Off ch=8 n=66 v=64
54240 Off ch=8 n=56 v=64
54240 On ch=8 n=52 v=44
54360 Off ch=8 n=52 v=64
54384 On ch=8 n=66 v=54
54400 On ch=8 n=56 v=54
54420 Off ch=8 n=66 v=64
54560 Off ch=8 n=56 v=64
54560 On ch=8 n=52 v=43
54680 Off ch=8 n=52 v=64
54704 On ch=8 n=66 v=54
54720 On ch=8 n=56 v=54
54740 Off ch=8 n=66 v=64
54880 Off ch=8 n=56 v=64
54880 On ch=8 n=52 v=47
55000 Off ch=8 n=52 v=64
55024 On ch=8 n=66 v=54
55040 On ch=8 n=56 v=54
55060 Off ch=8 n=66 v=64
55200 Off ch=8 n=56 v=64
55200 On ch=8 n=52 v=44
55320 Off ch=8 n=52 v=64
55344 On ch=8 n=66 v=54
55360 On ch=8 n=56 v=54
55380 Off ch=8 n=66 v=64
55520 Off ch=8 n=56 v=64
55520 On ch=8 n=52 v=43
55640 Off ch=8 n=52 v=64
55664 On ch=8 n=66 v=54
55680 On ch=8 n=56 v=54
55700 Off ch=8 n=66 v=64
55840 Off ch=8 n=56 v=64
55840 On ch=8 n=52 v=47
55960 Off ch=8 n=52 v=64
55984 On ch=8 n=66 v=54
56000 On ch=8 n=56 v=54
56020 Off ch=8 n=66 v=64
56160 Off ch=8 n=56 v=64
56160 On ch=8 n=52 v=44
56280 Off ch=8 n=52 v=64
56304 On ch=8 n=66 v=54
56320 On ch=8 n=56 v=54
56340 Off ch=8 n=66 v=64
56480 Off ch=8 n=56 v=64
56480 On ch=8 n=52 v=43
56600 Off ch=8 n=52 v=64
61920 Par ch=8 c=0 v=0
61920 Par ch=8 c=32 v=1
61920 PrCh ch=8 p=71
63087 Par ch=8 c=7 v=24
63092 Par ch=8 c=7 v=24
63097 Par ch=8 c=7 v=25
63103 Par ch=8 c=7 v=26
63108 Par ch=8 c=7 v=27
63114 Par ch=8 c=7 v=28
63119 Par ch=8 c=7 v=29
63120 On ch=8 n=77 v=60
63125 Par ch=8 c=7 v=30
63130 Par ch=8 c=7 v=31
63135 Par ch=8 c=7 v=32
63141 Par ch=8 c=7 v=33
63146 Par ch=8 c=7 v=34
63152 Par ch=8 c=7 v=35
63157 Par ch=8 c=7 v=36
63162 Par ch=8 c=7 v=37
63168 Par ch=8 c=7 v=38
63173 Par ch=8 c=7 v=39
63179 Par ch=8 c=7 v=40
63184 Par ch=8 c=7 v=41
63190 Par ch=8 c=7 v=42
63195 Par ch=8 c=7 v=43
63200 Par ch=8 c=7 v=44
63206 Par ch=8 c=7 v=45
63211 Par ch=8 c=7 v=46
63217 Par ch=8 c=7 v=47
63222 Par ch=8 c=7 v=48
63228 Par ch=8 c=7 v=49
63233 Par ch=8 c=7 v=50
63238 Par ch=8 c=7 v=51
63244 Par ch=8 c=7 v=52
63249 Par ch=8 c=7 v=53
63255 Par ch=8 c=7 v=54
63260 Par ch=8 c=7 v=55
63265 Par ch=8 c=7 v=56
63271 Par ch=8 c=7 v=57
63276 Par ch=8 c=7 v=58
63282 Par ch=8 c=7 v=59
63287 Par ch=8 c=7 v=60
63293 Par ch=8 c=7 v=61
63298 Par ch=8 c=7 v=62
63303 Par ch=8 c=7 v=63
63309 Par ch=8 c=7 v=64
63314 Par ch=8 c=7 v=65
63320 Par ch=8 c=7 v=66
63325 Par ch=8 c=7 v=67
63331 Par ch=8 c=7 v=68
63336 Par ch=8 c=7 v=69
63341 Par ch=8 c=7 v=70
63347 Par ch=8 c=7 v=71
63352 Par ch=8 c=7 v=72
63358 Par ch=8 c=7 v=73
63363 Par ch=8 c=7 v=74
63368 Par ch=8 c=7 v=76
63369 Par ch=8 c=7 v=76
63374 Par ch=8 c=7 v=76
63520 On ch=8 n=76 v=60
63528 Off ch=8 n=77 v=64
63644 On ch=8 n=77 v=60
63680 Off ch=8 n=76 v=64
63680 On ch=8 n=75 v=60
63700 Off ch=8 n=77 v=64
63840 Par ch=8 c=7 v=76
63840 Off ch=8 n=75 v=64
63840 On ch=8 n=74 v=60
63878 Par ch=8 c=7 v=75
63916 Par ch=8 c=7 v=74
63954 Par ch=8 c=7 v=73
63964 On ch=8 n=77 v=60
63992 Par ch=8 c=7 v=72
64000 Off ch=8 n=74 v=64
64000 On ch=8 n=75 v=60
64020 Off ch=8 n=77 v=64
64030 Par ch=8 c=7 v=71
64068 Par ch=8 c=7 v=70
64106 Par ch=8 c=7 v=69
64144 Par ch=8 c=7 v=68
64160 Off ch=8 n=75 v=64
64160 On ch=8 n=74 v=60
64182 Par ch=8 c=7 v=67
64220 Par ch=8 c=7 v=66
64258 Par ch=8 c=7 v=65
64296 Par ch=8 c=7 v=64
64320 Off ch=8 n=74 v=64
64320 On ch=8 n=71 v=60
64320 Par ch=8 c=7 v=64
64372 Par ch=8 c=7 v=63
64424 Par ch=8 c=7 v=62
64476 Off ch=8 n=71 v=64
64476 Par ch=8 c=7 v=61
64480 On ch=8 n=76 v=60
64528 Par ch=8 c=7 v=60
64580 Par ch=8 c=7 v=59
64604 On ch=8 n=77 v=60
64632 Par ch=8 c=7 v=58
64640 Off ch=8 n=76 v=64
64640 On ch=8 n=75 v=60
64660 Off ch=8 n=77 v=64
64684 Par ch=8 c=7 v=57
64736 Par ch=8 c=7 v=56
64788 Par ch=8 c=7 v=55
64800 Off ch=8 n=75 v=64
64800 On ch=8 n=74 v=60
64840 Par ch=8 c=7 v=54
64892 Par ch=8 c=7 v=53
64924 On ch=8 n=77 v=60
64944 Par ch=8 c=7 v=52
64960 Off ch=8 n=74 v=64
64960 On ch=8 n=75 v=60
64980 Off ch=8 n=77 v=64
64996 Par ch=8 c=7 v=51
65048 Par ch=8 c=7 v=50
65100 Par ch=8 c=7 v=49
65120 Off ch=8 n=75 v=64
65120 On ch=8 n=74 v=60
65152 Par ch=8 c=7 v=48
65204 Par ch=8 c=7 v=47
65256 Par ch=8 c=7 v=46
65280 Off ch=8 n=74 v=64
65280 On ch=8 n=71 v=60
65308 Par ch=8 c=7 v=45
65359 Par ch=8 c=7 v=44
65365 Par ch=8 c=7 v=44
65376 Par ch=8 c=7 v=45
65387 Par ch=8 c=7 v=46
65399 Par ch=8 c=7 v=47
65410 Par ch=8 c=7 v=48
65422 Par ch=8 c=7 v=49
65433 Par ch=8 c=7 v=50
65445 Par ch=8 c=7 v=51
65456 Par ch=8 c=7 v=52
65467 Par ch=8 c=7 v=53
65479 Par ch=8 c=7 v=54
65490 Par ch=8 c=7 v=55
65502 Par ch=8 c=7 v=56
65513 Par ch=8 c=7 v=57
65525 Par ch=8 c=7 v=58
65536 Par ch=8 c=7 v=59
65547 Par ch=8 c=7 v=60
65559 Par ch=8 c=7 v=61
65570 Par ch=8 c=7 v=62
65582 Par ch=8 c=7 v=63
65593 Par ch=8 c=7 v=64
65605 Par ch=8 c=7 v=65
65616 Par ch=8 c=7 v=66
65627 Par ch=8 c=7 v=67
65639 Par ch=8 c=7 v=68
65650 Par ch=8 c=7 v=69
65662 Par ch=8 c=7 v=70
65673 Par ch=8 c=7 v=71
65685 Par ch=8 c=7 v=72
65696 Par ch=8 c=7 v=73
65707 Par ch=8 c=7 v=74
65719 Par ch=8 c=7 v=75
65730 Par ch=8 c=7 v=76
65740 Off ch=8 n=71 v=64
65742 Par ch=8 c=7 v=77
65753 Par ch=8 c=7 v=78
65755 Par ch=8 c=7 v=76
65760 On ch=8 n=73 v=60
65785 Par ch=8 c=7 v=75
65815 Par ch=8 c=7 v=74
65845 Par ch=8 c=7 v=73
65856 Off ch=8 n=73 v=64
65856 On ch=8 n=77 v=60
65875 Par ch=8 c=7 v=72
65905 Par ch=8 c=7 v=71
65935 Par ch=8 c=7 v=70
65952 Off ch=8 n=77 v=64
65952 On ch=8 n=73 v=60
65966 Par ch=8 c=7 v=69
65996 Par ch=8 c=7 v=68
66026 Par ch=8 c=7 v=67
66048 Off ch=8 n=73 v=64
66048 On ch=8 n=75 v=60
66056 Par ch=8 c=7 v=66
66086 Par ch=8 c=7 v=65
66116 Par ch=8 c=7 v=64
66144 Off ch=8 n=75 v=64
66144 On ch=8 n=74 v=60
66147 Par ch=8 c=7 v=63
66177 Par ch=8 c=7 v=62
66207 Par ch=8 c=7 v=61
66237 Par ch=8 c=7 v=60
66240 Off ch=8 n=74 v=64
66240 On ch=8 n=71 v=60
66267 Par ch=8 c=7 v=59
66297 Par ch=8 c=7 v=58
66320 Off ch=8 n=71 v=64
66320 On ch=8 n=72 v=60
66327 Par ch=8 c=7 v=57
66358 Par ch=8 c=7 v=56
66388 Par ch=8 c=7 v=55
66400 Off ch=8 n=72 v=64
66400 On ch=8 n=77 v=60
66418 Par ch=8 c=7 v=54
66448 Par ch=8 c=7 v=53
66478 Par ch=8 c=7 v=52
66480 Off ch=8 n=77 v=64
66480 On ch=8 n=73 v=60
66508 Par ch=8 c=7 v=51
66539 Par ch=8 c=7 v=50
66560 Off ch=8 n=73 v=64
66560 On ch=8 n=75 v=60
66569 Par ch=8 c=7 v=49
66599 Par ch=8 c=7 v=48
66629 Par ch=8 c=7 v=47
66640 Off ch=8 n=75 v=64
66640 On ch=8 n=74 v=60
66659 Par ch=8 c=7 v=46
66689 Par ch=8 c=7 v=45
66719 Par ch=8 c=7 v=44
66720 Off ch=8 n=74 v=64
66720 On ch=8 n=71 v=60
66720 Par ch=8 c=7 v=44
66737 Par ch=8 c=7 v=43
66755 Par ch=8 c=7 v=42
66773 Par ch=8 c=7 v=41
66791 Par ch=8 c=7 v=40
66809 Par ch=8 c=7 v=39
66827 Par ch=8 c=7 v=38
66845 Par ch=8 c=7 v=37
66863 Par ch=8 c=7 v=36
66881 Par ch=8 c=7 v=35
66899 Par ch=8 c=7 v=34
66917 Par ch=8 c=7 v=33
66934 Par ch=8 c=7 v=32
66935 Par ch=8 c=7 v=32
66944 Off ch=8 n=71 v=64
66946 Par ch=8 c=7 v=32
66957 Par ch=8 c=7 v=33
66960 On ch=8 n=77 v=60
66968 Par ch=8 c=7 v=34
66979 Par ch=8 c=7 v=35
66990 Par ch=8 c=7 v=36
67001 Par ch=8 c=7 v=37
67012 Par ch=8 c=7 v=38
67023 Par ch=8 c=7 v=39
67034 Par ch=8 c=7 v=40
67045 Par ch=8 c=7 v=41
67056 Par ch=8 c=7 v=42
67067 Par ch=8 c=7 v=43
67078 Par ch=8 c=7 v=44
67089 Par ch=8 c=7 v=45
67100 Par ch=8 c=7 v=46
67111 Par ch=8 c=7 v=47
67122 Par ch=8 c=7 v=48
67133 Par ch=8 c=7 v=49
67144 Par ch=8 c=7 v=50
67155 Par ch=8 c=7 v=51
67166 Par ch=8 c=7 v=52
67177 Par ch=8 c=7 v=53
67188 Par ch=8 c=7 v=54
67199 Par ch=8 c=7 v=55
67210 Par ch=8 c=7 v=56
67221 Par ch=8 c=7 v=57
67232 Par ch=8 c=7 v=58
67243 Par ch=8 c=7 v=59
67254 Par ch=8 c=7 v=60
67265 Par ch=8 c=7 v=61
67276 Par ch=8 c=7 v=62
67287 Par ch=8 c=7 v=63
67298 Par ch=8 c=7 v=64
67309 Par ch=8 c=7 v=65
67320 Par ch=8 c=7 v=66
67331 Par ch=8 c=7 v=67
67342 Par ch=8 c=7 v=68
67353 Par ch=8 c=7 v=69
67360 On ch=8 n=76 v=60
67364 Par ch=8 c=7 v=70
67368 Off ch=8 n=77 v=64
67375 Par ch=8 c=7 v=71
67386 Par ch=8 c=7 v=72
67397 Par ch=8 c=7 v=73
67408 Par ch=8 c=7 v=74
67419 Par ch=8 c=7 v=76
67484 On ch=8 n=77 v=60
67520 Off ch=8 n=76 v=64
67520 On ch=8 n=75 v=60
67544 Off ch=8 n=77 v=64
67680 Off ch=8 n=75 v=64
67680 On ch=8 n=74 v=60
67775 Par ch=8 c=7 v=76
67804 On ch=8 n=77 v=60
67840 Off ch=8 n=74 v=64
67840 On ch=8 n=75 v=60
67864 Off ch=8 n=77 v=64
67885 Par ch=8 c=7 v=75
67890 Par ch=8 c=7 v=74
67902 Par ch=8 c=7 v=73
67914 Par ch=8 c=7 v=72
67926 Par ch=8 c=7 v=71
67938 Par ch=8 c=7 v=70
67950 Par ch=8 c=7 v=69
67962 Par ch=8 c=7 v=68
67974 Par ch=8 c=7 v=67
67986 Par ch=8 c=7 v=66
67998 Par ch=8 c=7 v=65
68000 Off ch=8 n=75 v=64
68000 On ch=8 n=74 v=60
68010 Par ch=8 c=7 v=64
68022 Par ch=8 c=7 v=63
68035 Par ch=8 c=7 v=62
68047 Par ch=8 c=7 v=61
68059 Par ch=8 c=7 v=60
68071 Par ch=8 c=7 v=59
68083 Par ch=8 c=7 v=58
68095 Par ch=8 c=7 v=57
68107 Par ch=8 c=7 v=56
68119 Par ch=8 c=7 v=55
68131 Par ch=8 c=7 v=54
68143 Par ch=8 c=7 v=53
68155 Par ch=8 c=7 v=52
68160 Off ch=8 n=74 v=64
68160 On ch=8 n=71 v=60
68167 Par ch=8 c=7 v=51
68180 Par ch=8 c=7 v=50
68192 Par ch=8 c=7 v=49
68204 Par ch=8 c=7 v=48
68216 Par ch=8 c=7 v=47
68228 Par ch=8 c=7 v=46
68240 Par ch=8 c=7 v=45
68252 Par ch=8 c=7 v=44
68264 Par ch=8 c=7 v=43
68276 Par ch=8 c=7 v=42
68288 Par ch=8 c=7 v=41
68300 Par ch=8 c=7 v=40
68312 Par ch=8 c=7 v=39
68324 Par ch=8 c=7 v=38
68325 Par ch=8 c=7 v=38
68335 Par ch=8 c=7 v=38
68346 Par ch=8 c=7 v=39
68357 Par ch=8 c=7 v=40
68368 Par ch=8 c=7 v=41
68378 Par ch=8 c=7 v=42
68389 Par ch=8 c=7 v=43
68400 Off ch=8 n=71 v=64
68400 On ch=8 n=77 v=60
68400 Par ch=8 c=7 v=44
68411 Par ch=8 c=7 v=45
68421 Par ch=8 c=7 v=46
68432 Par ch=8 c=7 v=47
68443 Par ch=8 c=7 v=48
68454 Par ch=8 c=7 v=49
68464 Par ch=8 c=7 v=50
68475 Par ch=8 c=7 v=51
68486 Par ch=8 c=7 v=52
68497 Par ch=8 c=7 v=53
68508 Par ch=8 c=7 v=54
68518 Par ch=8 c=7 v=55
68529 Par ch=8 c=7 v=56
68540 Par ch=8 c=7 v=57
68551 Par ch=8 c=7 v=58
68561 Par ch=8 c=7 v=59
68572 Par ch=8 c=7 v=60
68583 Par ch=8 c=7 v=61
68594 Par ch=8 c=7 v=62
68604 Par ch=8 c=7 v=63
68615 Par ch=8 c=7 v=64
68626 Par ch=8 c=7 v=65
68637 Par ch=8 c=7 v=66
68647 Par ch=8 c=7 v=67
68658 Par ch=8 c=7 v=68
68669 Par ch=8 c=7 v=69
68680 Par ch=8 c=7 v=70
68690 Par ch=8 c=7 v=71
68701 Par ch=8 c=7 v=72
68712 Par ch=8 c=7 v=73
68723 Par ch=8 c=7 v=74
68733 Par ch=8 c=7 v=75
68744 Par ch=8 c=7 v=76
68755 Par ch=8 c=7 v=77
68766 Par ch=8 c=7 v=78
68776 Par ch=8 c=7 v=79
68787 Par ch=8 c=7 v=80
68798 Par ch=8 c=7 v=81
68800 On ch=8 n=76 v=60
68808 Off ch=8 n=77 v=64
68809 Par ch=8 c=7 v=82
68819 Par ch=8 c=7 v=84
68924 On ch=8 n=77 v=60
68960 Off ch=8 n=76 v=64
68960 On ch=8 n=75 v=60
68984 Off ch=8 n=77 v=64
69120 Off ch=8 n=75 v=64
69120 On ch=8 n=74 v=60
69244 On ch=8 n=77 v=60
69280 Off ch=8 n=74 v=64
69280 On ch=8 n=75 v=60
69304 Off ch=8 n=77 v=64
69395 Par ch=8 c=7 v=84
69434 Par ch=8 c=7 v=83
69440 Off ch=8 n=75 v=64
69440 On ch=8 n=74 v=60
69473 Par ch=8 c=7 v=82
69512 Par ch=8 c=7 v=81
69551 Par ch=8 c=7 v=80
69590 Par ch=8 c=7 v=79
69600 Off ch=8 n=74 v=64
69600 On ch=8 n=71 v=60
69630 Par ch=8 c=7 v=78
69669 Par ch=8 c=7 v=77
69680 Off ch=8 n=71 v=64
69680 On ch=8 n=72 v=60
69708 Par ch=8 c=7 v=76
69747 Par ch=8 c=7 v=75
69760 Off ch=8 n=72 v=64
69760 On ch=8 n=77 v=60
69786 Par ch=8 c=7 v=74
69825 Par ch=8 c=7 v=73
69840 Off ch=8 n=77 v=64
69840 On ch=8 n=73 v=60
69865 Par ch=8 c=7 v=72
69904 Par ch=8 c=7 v=71
69920 Off ch=8 n=73 v=64
69920 On ch=8 n=75 v=60
69943 Par ch=8 c=7 v=70
69982 Par ch=8 c=7 v=69
70000 Off ch=8 n=75 v=64
70000 On ch=8 n=74 v=60
70021 Par ch=8 c=7 v=68
70060 Par ch=8 c=7 v=67
70080 Off ch=8 n=74 v=64
70080 On ch=8 n=71 v=60
70100 Par ch=8 c=7 v=66
70139 Par ch=8 c=7 v=65
70160 Off ch=8 n=71 v=64
70160 On ch=8 n=72 v=60
70178 Par ch=8 c=7 v=64
70217 Par ch=8 c=7 v=63
70240 Off ch=8 n=72 v=64
70240 On ch=8 n=77 v=60
70256 Par ch=8 c=7 v=62
70295 Par ch=8 c=7 v=61
70320 Off ch=8 n=77 v=64
70320 On ch=8 n=73 v=60
70335 Par ch=8 c=7 v=60
70374 Par ch=8 c=7 v=59
70400 Off ch=8 n=73 v=64
70400 On ch=8 n=75 v=60
70413 Par ch=8 c=7 v=58
70452 Par ch=8 c=7 v=57
70480 Off ch=8 n=75 v=64
70480 On ch=8 n=74 v=60
70491 Par ch=8 c=7 v=56
70530 Par ch=8 c=7 v=55
70560 Off ch=8 n=74 v=64
70560 On ch=8 n=71 v=60
70569 Par ch=8 c=7 v=54
70570 Par ch=8 c=7 v=54
70586 Par ch=8 c=7 v=53
70602 Par ch=8 c=7 v=52
70618 Par ch=8 c=7 v=51
70634 Par ch=8 c=7 v=50
70650 Par ch=8 c=7 v=49
70666 Par ch=8 c=7 v=48
70682 Par ch=8 c=7 v=47
70698 Par ch=8 c=7 v=46
70714 Par ch=8 c=7 v=45
70730 Par ch=8 c=7 v=44
70746 Par ch=8 c=7 v=43
70762 Par ch=8 c=7 v=42
70778 Par ch=8 c=7 v=41
70784 Off ch=8 n=71 v=64
70794 Par ch=8 c=7 v=40
70795 Par ch=8 c=7 v=40
70800 On ch=8 n=77 v=60
70802 Par ch=8 c=7 v=40
70810 Par ch=8 c=7 v=41
70818 Par ch=8 c=7 v=42
70826 Par ch=8 c=7 v=43
70833 Par ch=8 c=7 v=44
70841 Par ch=8 c=7 v=45
70849 Par ch=8 c=7 v=46
70857 Par ch=8 c=7 v=47
70864 Par ch=8 c=7 v=48
70872 Par ch=8 c=7 v=49
70880 Par ch=8 c=7 v=50
70888 Par ch=8 c=7 v=51
70895 Par ch=8 c=7 v=52
70903 Par ch=8 c=7 v=53
70911 Par ch=8 c=7 v=54
70919 Par ch=8 c=7 v=55
70926 Par ch=8 c=7 v=56
70934 Par ch=8 c=7 v=57
70942 Par ch=8 c=7 v=58
70950 Par ch=8 c=7 v=59
70957 Par ch=8 c=7 v=60
70965 Par ch=8 c=7 v=61
70973 Par ch=8 c=7 v=62
70981 Par ch=8 c=7 v=63
70988 Par ch=8 c=7 v=64
70996 Par ch=8 c=7 v=65
71004 Par ch=8 c=7 v=66
71012 Par ch=8 c=7 v=67
71019 Par ch=8 c=7 v=68
71027 Par ch=8 c=7 v=69
71035 Par ch=8 c=7 v=70
71043 Par ch=8 c=7 v=71
71050 Par ch=8 c=7 v=72
71058 Par ch=8 c=7 v=73
71066 Par ch=8 c=7 v=74
71074 Par ch=8 c=7 v=75
71081 Par ch=8 c=7 v=76
71089 Par ch=8 c=7 v=77
71097 Par ch=8 c=7 v=78
71104 Par ch=8 c=7 v=80
71200 On ch=8 n=76 v=60
71212 Off ch=8 n=77 v=64
71328 On ch=8 n=77 v=60
71360 Par ch=8 c=7 v=80
71360 Off ch=8 n=76 v=64
71360 On ch=8 n=75 v=60
71388 Off ch=8 n=77 v=64
71400 Par ch=8 c=7 v=79
71440 Par ch=8 c=7 v=78
71480 Par ch=8 c=7 v=77
71520 Off ch=8 n=75 v=64
71520 On ch=8 n=74 v=60
71521 Par ch=8 c=7 v=76
71561 Par ch=8 c=7 v=75
71601 Par ch=8 c=7 v=74
71642 Par ch=8 c=7 v=73
71648 On ch=8 n=77 v=60
71680 Off ch=8 n=74 v=64
71680 On ch=8 n=75 v=60
71682 Par ch=8 c=7 v=72
71708 Off ch=8 n=77 v=64
71722 Par ch=8 c=7 v=71
71763 Par ch=8 c=7 v=70
71803 Par ch=8 c=7 v=69
71840 Off ch=8 n=75 v=64
71840 On ch=8 n=74 v=60
71843 Par ch=8 c=7 v=68
71884 Par ch=8 c=7 v=67
71924 Par ch=8 c=7 v=66
71964 Par ch=8 c=7 v=65
72000 Off ch=8 n=74 v=64
72000 On ch=8 n=71 v=60
72004 Par ch=8 c=7 v=64
72005 Par ch=8 c=7 v=64
72034 Par ch=8 c=7 v=64
72064 Par ch=8 c=7 v=65
72094 Par ch=8 c=7 v=66
72123 Par ch=8 c=7 v=67
72153 Par ch=8 c=7 v=68
72160 Off ch=8 n=71 v=64
72160 On ch=8 n=76 v=60
72183 Par ch=8 c=7 v=69
72212 Par ch=8 c=7 v=70
72242 Par ch=8 c=7 v=71
72272 Par ch=8 c=7 v=72
72284 On ch=8 n=77 v=60
72301 Par ch=8 c=7 v=73
72320 Off ch=8 n=76 v=64
72320 On ch=8 n=75 v=60
72331 Par ch=8 c=7 v=74
72348 Off ch=8 n=77 v=64
72361 Par ch=8 c=7 v=75
72390 Par ch=8 c=7 v=76
72420 Par ch=8 c=7 v=77
72450 Par ch=8 c=7 v=78
72479 Par ch=8 c=7 v=80
72480 Off ch=8 n=75 v=64
72480 On ch=8 n=74 v=60
72480 Par ch=8 c=7 v=80
72540 Par ch=8 c=7 v=79
72601 Par ch=8 c=7 v=78
72604 On ch=8 n=77 v=60
72640 Off ch=8 n=74 v=64
72640 On ch=8 n=75 v=60
72662 Par ch=8 c=7 v=77
72668 Off ch=8 n=77 v=64
72723 Par ch=8 c=7 v=76
72784 Par ch=8 c=7 v=75
72800 Off ch=8 n=75 v=64
72800 On ch=8 n=74 v=60
72845 Par ch=8 c=7 v=74
72906 Par ch=8 c=7 v=73
72960 Off ch=8 n=74 v=64
72960 On ch=8 n=71 v=60
72967 Par ch=8 c=7 v=72
73028 Par ch=8 c=7 v=71
73089 Par ch=8 c=7 v=70
73120 Off ch=8 n=71 v=64
73120 On ch=8 n=76 v=60
73150 Par ch=8 c=7 v=69
73211 Par ch=8 c=7 v=68
73240 On ch=8 n=77 v=60
73272 Par ch=8 c=7 v=67
73280 Off ch=8 n=76 v=64
73280 On ch=8 n=75 v=60
73312 Off ch=8 n=77 v=64
73333 Par ch=8 c=7 v=66
73394 Par ch=8 c=7 v=65
73440 Off ch=8 n=75 v=64
73454 Par ch=8 c=7 v=64
161280 On ch=8 n=64 v=68
161340 Off ch=8 n=64 v=64
161400 On ch=8 n=67 v=65
161460 Off ch=8 n=67 v=64
161520 On ch=8 n=72 v=63
161580 Off ch=8 n=72 v=64
161640 On ch=8 n=76 v=60
161700 Off ch=8 n=76 v=64
161760 On ch=8 n=79 v=58
161820 Off ch=8 n=79 v=64
161880 On ch=8 n=76 v=55
161940 Off ch=8 n=76 v=64
162000 On ch=8 n=72 v=53
162060 Off ch=8 n=72 v=64
162120 On ch=8 n=67 v=50
162180 Off ch=8 n=67 v=64
162240 On ch=8 n=64 v=68
162300 Off ch=8 n=64 v=64
162360 On ch=8 n=67 v=65
162420 Off ch=8 n=67 v=64
162480 On ch=8 n=72 v=63
162540 Off ch=8 n=72 v=64
162600 On ch=8 n=76 v=61
162660 Off ch=8 n=76 v=64
162720 On ch=8 n=79 v=59
162780 Off ch=8 n=79 v=64
162840 On ch=8 n=76 v=57
162900 Off ch=8 n=76 v=64
162960 On ch=8 n=72 v=55
163020 Off ch=8 n=72 v=64
163080 On ch=8 n=67 v=53
163140 Off ch=8 n=67 v=64
163200 On ch=8 n=64 v=68
163260 Off ch=8 n=64 v=64
163320 On ch=8 n=67 v=65
163380 Off ch=8 n=67 v=64
163440 On ch=8 n=72 v=63
163500 Off ch=8 n=72 v=64
163560 On ch=8 n=76 v=61
163620 Off ch=8 n=76 v=64
163680 On ch=8 n=79 v=59
163740 Off ch=8 n=79 v=64
163800 On ch=8 n=76 v=56
163860 Off ch=8 n=76 v=64
163920 On ch=8 n=72 v=54
163980 Off ch=8 n=72 v=64
164040 On ch=8 n=67 v=52
164100 Off ch=8 n=67 v=64
164160 On ch=8 n=64 v=68
164220 Off ch=8 n=64 v=64
164280 On ch=8 n=67 v=63
164340 Off ch=8 n=67 v=64
164400 On ch=8 n=72 v=57
164460 Off ch=8 n=72 v=64
164520 On ch=8 n=76 v=51
164580 Off ch=8 n=76 v=64
164640 On ch=8 n=79 v=52
164700 Off ch=8 n=79 v=64
186720 On ch=8 n=70 v=51
186720 On ch=8 n=65 v=51
186798 Off ch=8 n=70 v=64
186798 Off ch=8 n=65 v=64
186960 On ch=8 n=67 v=51
186960 On ch=8 n=72 v=51
187038 Off ch=8 n=67 v=64
187038 Off ch=8 n=72 v=64
187200 On ch=8 n=65 v=51
187200 On ch=8 n=70 v=51
187278 Off ch=8 n=65 v=64
187278 Off ch=8 n=70 v=64
187440 On ch=8 n=67 v=51
187440 On ch=8 n=72 v=51
187518 Off ch=8 n=67 v=64
187518 Off ch=8 n=72 v=64
187680 On ch=8 n=65 v=51
187680 On ch=8 n=70 v=51
187758 Off ch=8 n=65 v=64
187758 Off ch=8 n=70 v=64
187920 On ch=8 n=67 v=51
187920 On ch=8 n=72 v=51
187998 Off ch=8 n=67 v=64
187998 Off ch=8 n=72 v=64
188160 On ch=8 n=65 v=51
188160 On ch=8 n=70 v=51
188238 Off ch=8 n=65 v=64
188238 Off ch=8 n=70 v=64
188400 On ch=8 n=67 v=51
188400 On ch=8 n=72 v=51
188478 Off ch=8 n=67 v=64
188478 Off ch=8 n=72 v=64
188640 On ch=8 n=70 v=51
188640 On ch=8 n=65 v=51
188718 Off ch=8 n=70 v=64
188718 Off ch=8 n=65 v=64
188880 On ch=8 n=67 v=51
188880 On ch=8 n=72 v=51
188958 Off ch=8 n=67 v=64
188958 Off ch=8 n=72 v=64
189120 On ch=8 n=65 v=51
189120 On ch=8 n=70 v=51
189198 Off ch=8 n=65 v=64
189198 Off ch=8 n=70 v=64
189360 On ch=8 n=67 v=51
189360 On ch=8 n=72 v=51
189438 Off ch=8 n=67 v=64
189438 Off ch=8 n=72 v=64
189600 On ch=8 n=65 v=51
189600 On ch=8 n=70 v=51
189678 Off ch=8 n=65 v=64
189678 Off ch=8 n=70 v=64
189840 On ch=8 n=67 v=51
189840 On ch=8 n=72 v=51
189918 Off ch=8 n=67 v=64
189918 Off ch=8 n=72 v=64
190080 On ch=8 n=65 v=51
190080 On ch=8 n=70 v=51
190158 Off ch=8 n=65 v=64
190158 Off ch=8 n=70 v=64
190320 On ch=8 n=67 v=51
190320 On ch=8 n=72 v=51
190398 Off ch=8 n=67 v=64
190398 Off ch=8 n=72 v=64
190560 On ch=8 n=70 v=51
190560 On ch=8 n=65 v=51
190638 Off ch=8 n=70 v=64
190638 Off ch=8 n=65 v=64
190800 On ch=8 n=67 v=51
190800 On ch=8 n=72 v=51
190878 Off ch=8 n=67 v=64
190878 Off ch=8 n=72 v=64
191040 On ch=8 n=65 v=51
191040 On ch=8 n=70 v=51
191118 Off ch=8 n=65 v=64
191118 Off ch=8 n=70 v=64
191280 On ch=8 n=67 v=51
191280 On ch=8 n=72 v=51
191358 Off ch=8 n=67 v=64
191358 Off ch=8 n=72 v=64
191520 On ch=8 n=65 v=51
191520 On ch=8 n=70 v=51
191598 Off ch=8 n=65 v=64
191598 Off ch=8 n=70 v=64
191760 On ch=8 n=67 v=51
191760 On ch=8 n=72 v=51
191838 Off ch=8 n=67 v=64
191838 Off ch=8 n=72 v=64
192000 On ch=8 n=65 v=51
192000 On ch=8 n=70 v=51
192078 Off ch=8 n=65 v=64
192078 Off ch=8 n=70 v=64
192240 On ch=8 n=67 v=51
192240 On ch=8 n=72 v=51
192318 Off ch=8 n=67 v=64
192318 Off ch=8 n=72 v=64
192480 On ch=8 n=70 v=51
192480 On ch=8 n=65 v=51
192558 Off ch=8 n=70 v=64
192558 Off ch=8 n=65 v=64
192720 On ch=8 n=67 v=51
192720 On ch=8 n=72 v=51
192798 Off ch=8 n=67 v=64
192798 Off ch=8 n=72 v=64
192960 On ch=8 n=65 v=51
192960 On ch=8 n=70 v=51
193038 Off ch=8 n=65 v=64
193038 Off ch=8 n=70 v=64
193200 On ch=8 n=67 v=51
193200 On ch=8 n=72 v=51
193278 Off ch=8 n=67 v=64
193278 Off ch=8 n=72 v=64
193440 On ch=8 n=65 v=51
193440 On ch=8 n=70 v=51
193518 Off ch=8 n=65 v=64
193518 Off ch=8 n=70 v=64
193680 On ch=8 n=67 v=51
193680 On ch=8 n=72 v=51
193758 Off ch=8 n=67 v=64
193758 Off ch=8 n=72 v=64
193920 On ch=8 n=65 v=51
193920 On ch=8 n=70 v=51
193998 Off ch=8 n=65 v=64
193998 Off ch=8 n=70 v=64
194160 On ch=8 n=67 v=51
194160 On ch=8 n=72 v=51
194238 Off ch=8 n=67 v=64
194238 Off ch=8 n=72 v=64
194400 On ch=8 n=70 v=51
194400 On ch=8 n=65 v=51
194478 Off ch=8 n=70 v=64
194478 Off ch=8 n=65 v=64
194640 On ch=8 n=67 v=51
194640 On ch=8 n=72 v=51
194718 Off ch=8 n=67 v=64
194718 Off ch=8 n=72 v=64
194880 On ch=8 n=65 v=51
194880 On ch=8 n=70 v=51
194958 Off ch=8 n=65 v=64
194958 Off ch=8 n=70 v=64
195120 On ch=8 n=67 v=51
195120 On ch=8 n=72 v=51
195198 Off ch=8 n=67 v=64
195198 Off ch=8 n=72 v=64
195360 On ch=8 n=65 v=51
195360 On ch=8 n=70 v=51
195438 Off ch=8 n=65 v=64
195438 Off ch=8 n=70 v=64
195600 On ch=8 n=67 v=51
195600 On ch=8 n=72 v=51
195678 Off ch=8 n=67 v=64
195678 Off ch=8 n=72 v=64
195840 On ch=8 n=65 v=51
195840 On ch=8 n=70 v=51
195918 Off ch=8 n=65 v=64
195918 Off ch=8 n=70 v=64
196080 On ch=8 n=67 v=51
196080 On ch=8 n=72 v=51
196158 Off ch=8 n=67 v=64
196158 Off ch=8 n=72 v=64
196320 On ch=8 n=65 v=51
196320 On ch=8 n=70 v=51
196398 Off ch=8 n=65 v=64
196398 Off ch=8 n=70 v=64
196560 On ch=8 n=67 v=51
196560 On ch=8 n=72 v=51
196638 Off ch=8 n=67 v=64
196638 Off ch=8 n=72 v=64
196800 On ch=8 n=65 v=51
196800 On ch=8 n=70 v=51
196878 Off ch=8 n=65 v=64
196878 Off ch=8 n=70 v=64
197040 On ch=8 n=67 v=51
197040 On ch=8 n=72 v=51
197118 Off ch=8 n=67 v=64
197118 Off ch=8 n=72 v=64
197280 On ch=8 n=43 v=50
197280 On ch=8 n=46 v=50
201120 Off ch=8 n=43 v=64
201120 Off ch=8 n=46 v=64
201120 On ch=8 n=43 v=50
201120 On ch=8 n=46 v=50
204960 Off ch=8 n=43 v=64
204960 Off ch=8 n=46 v=64
204960 On ch=8 n=43 v=50
204960 On ch=8 n=46 v=50
208800 Off ch=8 n=43 v=64
208800 Off ch=8 n=46 v=64
208800 On ch=8 n=43 v=50
208800 On ch=8 n=46 v=50
212640 Off ch=8 n=43 v=64
212640 Off ch=8 n=46 v=64
212640 On ch=8 n=43 v=50
212640 On ch=8 n=46 v=50
214560 Off ch=8 n=43 v=64
214560 Off ch=8 n=46 v=64
229677 Par ch=8 c=7 v=64
229920 On ch=8 n=69 v=70
229920 On ch=8 n=81 v=70
230040 Off ch=8 n=69 v=64
230054 Off ch=8 n=81 v=64
230130 On ch=8 n=86 v=70
230160 On ch=8 n=71 v=70
230160 On ch=8 n=83 v=70
230225 Off ch=8 n=86 v=64
230280 Off ch=8 n=71 v=64
230280 On ch=8 n=67 v=70
230315 Off ch=8 n=83 v=64
230400 Off ch=8 n=67 v=64
230400 On ch=8 n=69 v=70
230400 On ch=8 n=81 v=70
230520 Off ch=8 n=69 v=64
230534 Off ch=8 n=81 v=64
230610 On ch=8 n=86 v=70
230640 On ch=8 n=71 v=70
230640 On ch=8 n=83 v=70
230705 Off ch=8 n=86 v=64
230760 Off ch=8 n=71 v=64
230760 On ch=8 n=67 v=70
230795 Off ch=8 n=83 v=64
230880 Off ch=8 n=67 v=64
230880 On ch=8 n=69 v=70
230880 On ch=8 n=81 v=70
231000 Off ch=8 n=69 v=64
231014 Off ch=8 n=81 v=64
231090 On ch=8 n=86 v=70
231120 On ch=8 n=71 v=70
231120 On ch=8 n=83 v=70
231185 Off ch=8 n=86 v=64
231240 Off ch=8 n=71 v=64
231240 On ch=8 n=67 v=70
231275 Off ch=8 n=83 v=64
231360 Off ch=8 n=67 v=64
231360 On ch=8 n=69 v=70
231360 On ch=8 n=81 v=70
231480 Off ch=8 n=69 v=64
231494 Off ch=8 n=81 v=64
231570 On ch=8 n=86 v=70
231600 On ch=8 n=71 v=70
231600 On ch=8 n=83 v=70
231665 Off ch=8 n=86 v=64
231720 Off ch=8 n=71 v=64
231720 On ch=8 n=67 v=70
231755 Off ch=8 n=83 v=64
231840 Off ch=8 n=67 v=64
231840 On ch=8 n=69 v=70
231840 On ch=8 n=81 v=70
232080 Off ch=8 n=69 v=64
232080 Off ch=8 n=81 v=64
232080 On ch=8 n=74 v=70
232320 Off ch=8 n=74 v=64
232320 On ch=8 n=72 v=70
232380 On ch=8 n=74 v=70
232410 Off ch=8 n=72 v=64
232440 On ch=8 n=72 v=70
232470 Off ch=8 n=74 v=64
232500 On ch=8 n=74 v=70
232530 Off ch=8 n=72 v=64
232560 On ch=8 n=71 v=70
232590 Off ch=8 n=74 v=64
232680 Off ch=8 n=71 v=64
232680 On ch=8 n=69 v=70
232800 Off ch=8 n=69 v=64
232800 On ch=8 n=71 v=70
233040 Off ch=8 n=71 v=64
233040 On ch=8 n=67 v=70
233280 Off ch=8 n=67 v=64
233280 On ch=8 n=69 v=70
233485 On ch=8 n=74 v=70
233520 Off ch=8 n=69 v=64
233520 On ch=8 n=71 v=70
233575 Off ch=8 n=74 v=64
233760 Off ch=8 n=71 v=64
233760 On ch=8 n=79 v=70
233760 On ch=8 n=75 v=70
233760 On ch=8 n=69 v=70
233760 On ch=8 n=72 v=70
233862 Off ch=8 n=79 v=64
233862 Off ch=8 n=75 v=64
233862 Off ch=8 n=69 v=64
233862 Off ch=8 n=72 v=64
234120 On ch=8 n=79 v=70
234120 On ch=8 n=75 v=70
234120 On ch=8 n=69 v=70
234120 On ch=8 n=72 v=70
234222 Off ch=8 n=79 v=64
234222 Off ch=8 n=75 v=64
234222 Off ch=8 n=69 v=64
234222 Off ch=8 n=72 v=64
234240 On ch=8 n=79 v=70
234240 On ch=8 n=75 v=70
234240 On ch=8 n=69 v=70
234240 On ch=8 n=72 v=70
234342 Off ch=8 n=79 v=64
234342 Off ch=8 n=75 v=64
234342 Off ch=8 n=69 v=64
234342 Off ch=8 n=72 v=64
234600 On ch=8 n=79 v=70
234600 On ch=8 n=75 v=70
234600 On ch=8 n=72 v=70
234600 On ch=8 n=69 v=70
234702 Off ch=8 n=79 v=64
234702 Off ch=8 n=75 v=64
234702 Off ch=8 n=72 v=64
234702 Off ch=8 n=69 v=64
234720 On ch=8 n=79 v=70
234720 On ch=8 n=69 v=70
234720 On ch=8 n=75 v=70
234720 On ch=8 n=72 v=70
234822 Off ch=8 n=79 v=64
234822 Off ch=8 n=69 v=64
234822 Off ch=8 n=75 v=64
234822 Off ch=8 n=72 v=64
235080 On ch=8 n=79 v=70
235080 On ch=8 n=75 v=70
235080 On ch=8 n=72 v=70
235080 On ch=8 n=69 v=70
235182 Off ch=8 n=79 v=64
235182 Off ch=8 n=75 v=64
235182 Off ch=8 n=72 v=64
235182 Off ch=8 n=69 v=64
235200 On ch=8 n=79 v=70
235200 On ch=8 n=69 v=70
235200 On ch=8 n=75 v=70
235200 On ch=8 n=72 v=70
235302 Off ch=8 n=79 v=64
235302 Off ch=8 n=69 v=64
235302 Off ch=8 n=75 v=64
235302 Off ch=8 n=72 v=64
235560 On ch=8 n=79 v=70
235560 On ch=8 n=75 v=70
235560 On ch=8 n=69 v=70
235560 On ch=8 n=72 v=70
235662 Off ch=8 n=79 v=64
235662 Off ch=8 n=75 v=64
235662 Off ch=8 n=69 v=64
235662 Off ch=8 n=72 v=64
235680 On ch=8 n=79 v=70
235680 On ch=8 n=75 v=70
235680 On ch=8 n=69 v=70
235680 On ch=8 n=72 v=70
235782 Off ch=8 n=79 v=64
235782 Off ch=8 n=75 v=64
235782 Off ch=8 n=69 v=64
235782 Off ch=8 n=72 v=64
236040 On ch=8 n=79 v=70
236040 On ch=8 n=75 v=70
236040 On ch=8 n=69 v=70
236040 On ch=8 n=72 v=70
236142 Off ch=8 n=79 v=64
236142 Off ch=8 n=75 v=64
236142 Off ch=8 n=69 v=64
236142 Off ch=8 n=72 v=64
236160 On ch=8 n=81 v=70
236160 On ch=8 n=74 v=70
236160 On ch=8 n=77 v=70
236160 On ch=8 n=71 v=70
236262 Off ch=8 n=81 v=64
236262 Off ch=8 n=74 v=64
236262 Off ch=8 n=77 v=64
236262 Off ch=8 n=71 v=64
236520 On ch=8 n=81 v=70
236520 On ch=8 n=74 v=70
236520 On ch=8 n=77 v=70
236520 On ch=8 n=71 v=70
236622 Off ch=8 n=81 v=64
236622 Off ch=8 n=74 v=64
236622 Off ch=8 n=77 v=64
236622 Off ch=8 n=71 v=64
236640 On ch=8 n=79 v=70
236640 On ch=8 n=69 v=70
236640 On ch=8 n=75 v=70
236640 On ch=8 n=72 v=70
236742 Off ch=8 n=79 v=64
236742 Off ch=8 n=69 v=64
236742 Off ch=8 n=75 v=64
236742 Off ch=8 n=72 v=64
237000 On ch=8 n=79 v=70
237000 On ch=8 n=75 v=70
237000 On ch=8 n=69 v=70
237000 On ch=8 n=72 v=70
237102 Off ch=8 n=79 v=64
237102 Off ch=8 n=75 v=64
237102 Off ch=8 n=69 v=64
237102 Off ch=8 n=72 v=64
237120 On ch=8 n=79 v=70
237120 On ch=8 n=77 v=70
237120 On ch=8 n=74 v=70
237120 On ch=8 n=71 v=70
237222 Off ch=8 n=79 v=64
237222 Off ch=8 n=77 v=64
237222 Off ch=8 n=74 v=64
237222 Off ch=8 n=71 v=64
237480 On ch=8 n=79 v=70
237480 On ch=8 n=77 v=70
237480 On ch=8 n=74 v=70
237480 On ch=8 n=71 v=70
237582 Off ch=8 n=79 v=64
237582 Off ch=8 n=77 v=64
237582 Off ch=8 n=74 v=64
237582 Off ch=8 n=71 v=64
237600 On ch=8 n=79 v=70
237600 On ch=8 n=75 v=70
237600 On ch=8 n=69 v=70
237600 On ch=8 n=72 v=70
237702 Off ch=8 n=79 v=64
237702 Off ch=8 n=75 v=64
237702 Off ch=8 n=69 v=64
237702 Off ch=8 n=72 v=64
242640 On ch=8 n=29 v=92
242982 Off ch=8 n=29 v=64
243120 On ch=8 n=31 v=92
243462 Off ch=8 n=31 v=64
244560 On ch=8 n=29 v=122
244560 On ch=8 n=86 v=92
244800 Off ch=8 n=86 v=64
244800 On ch=8 n=84 v=92
244902 Off ch=8 n=29 v=64
245040 Off ch=8 n=84 v=64
245040 On ch=8 n=31 v=122
245040 On ch=8 n=83 v=92
245160 Off ch=8 n=83 v=64
245160 On ch=8 n=79 v=92
245268 Off ch=8 n=31 v=64
245280 Off ch=8 n=79 v=64
246480 On ch=8 n=29 v=108
246822 Off ch=8 n=29 v=64
246960 On ch=8 n=31 v=108
247302 Off ch=8 n=31 v=64
248160 On ch=8 n=81 v=92
248400 Off ch=8 n=81 v=64
248400 On ch=8 n=29 v=122
248400 On ch=8 n=86 v=92
248640 Off ch=8 n=86 v=64
248640 On ch=8 n=84 v=92
248742 Off ch=8 n=29 v=64
248880 Off ch=8 n=84 v=64
248880 On ch=8 n=31 v=122
248880 On ch=8 n=83 v=92
249000 Off ch=8 n=83 v=64
249000 On ch=8 n=79 v=92
249108 Off ch=8 n=31 v=64
249120 Off ch=8 n=79 v=64
250320 On ch=8 n=29 v=112
250662 Off ch=8 n=29 v=64
250800 On ch=8 n=31 v=112
251142 Off ch=8 n=31 v=64
252240 On ch=8 n=29 v=122
252582 Off ch=8 n=29 v=64
252720 On ch=8 n=31 v=122
252948 Off ch=8 n=31 v=64
258240 On ch=8 n=81 v=96
258360 Off ch=8 n=81 v=64
258480 On ch=8 n=86 v=96
258600 Off ch=8 n=86 v=64
258720 On ch=8 n=81 v=96
258840 Off ch=8 n=81 v=64
258960 On ch=8 n=86 v=96
259080 Off ch=8 n=86 v=64
259200 On ch=8 n=88 v=96
259320 Off ch=8 n=88 v=64
259440 On ch=8 n=91 v=96
259560 Off ch=8 n=91 v=64
259680 On ch=8 n=90 v=96
259800 Off ch=8 n=90 v=64
259920 On ch=8 n=88 v=96
260040 Off ch=8 n=88 v=64
260160 On ch=8 n=86 v=96
260280 Off ch=8 n=86 v=64
260400 On ch=8 n=81 v=96
260520 Off ch=8 n=81 v=64
260640 On ch=8 n=83 v=96
260760 Off ch=8 n=83 v=64
260880 On ch=8 n=86 v=96
261000 Off ch=8 n=86 v=64
261120 On ch=8 n=91 v=96
261240 Off ch=8 n=91 v=64
261360 On ch=8 n=90 v=96
261480 Off ch=8 n=90 v=64
261600 On ch=8 n=88 v=96
261720 Off ch=8 n=88 v=64
261840 On ch=8 n=86 v=96
261960 Off ch=8 n=86 v=64
262080 On ch=8 n=81 v=96
262200 Off ch=8 n=81 v=64
262560 On ch=8 n=83 v=96
262680 Off ch=8 n=83 v=64
262800 On ch=8 n=86 v=96
262920 Off ch=8 n=86 v=64
263040 On ch=8 n=84 v=96
263160 Off ch=8 n=84 v=64
263280 On ch=8 n=81 v=96
263400 Off ch=8 n=81 v=64
263520 On ch=8 n=81 v=96
263640 Off ch=8 n=81 v=64
263760 On ch=8 n=81 v=96
263880 Off ch=8 n=81 v=64
265560 On ch=8 n=36 v=82
266280 Off ch=8 n=36 v=64
266640 On ch=8 n=36 v=82
267720 Off ch=8 n=36 v=64
268440 On ch=8 n=36 v=82
269160 Off ch=8 n=36 v=64
269520 On ch=8 n=36 v=82
270240 Off ch=8 n=36 v=64
287880 On ch=8 n=36 v=82
288600 Off ch=8 n=36 v=64
288960 On ch=8 n=36 v=82
290040 Off ch=8 n=36 v=64
290760 On ch=8 n=36 v=82
291480 Off ch=8 n=36 v=64
291840 On ch=8 n=36 v=82
292560 Off ch=8 n=36 v=64
296880 On ch=8 n=70 v=50
296880 On ch=8 n=73 v=50
296880 On ch=8 n=75 v=50
298320 Off ch=8 n=75 v=64
299760 Off ch=8 n=73 v=64
301200 Off ch=8 n=70 v=64
305520 On ch=8 n=82 v=70
305520 On ch=8 n=79 v=70
305520 On ch=8 n=82 v=70
305640 Off ch=8 n=82 v=64
305640 Off ch=8 n=79 v=64
305640 Off ch=8 n=82 v=64
305760 On ch=8 n=81 v=68
305760 On ch=8 n=77 v=68
305760 On ch=8 n=81 v=68
305880 Off ch=8 n=81 v=64
305880 Off ch=8 n=77 v=64
305880 Off ch=8 n=81 v=64
306000 On ch=8 n=82 v=65
306000 On ch=8 n=79 v=65
306000 On ch=8 n=82 v=65
306120 Off ch=8 n=82 v=64
306120 Off ch=8 n=79 v=64
306120 Off ch=8 n=82 v=64
306240 On ch=8 n=81 v=63
306240 On ch=8 n=77 v=63
306240 On ch=8 n=81 v=63
306360 Off ch=8 n=81 v=64
306360 Off ch=8 n=77 v=64
306360 Off ch=8 n=81 v=64
306480 On ch=8 n=79 v=60
306480 On ch=8 n=75 v=60
306480 On ch=8 n=79 v=60
306600 Off ch=8 n=79 v=64
306600 Off ch=8 n=75 v=64
306600 Off ch=8 n=79 v=64
306720 On ch=8 n=77 v=58
306720 On ch=8 n=74 v=58
306720 On ch=8 n=77 v=58
306840 Off ch=8 n=77 v=64
306840 Off ch=8 n=74 v=64
306840 Off ch=8 n=77 v=64
306960 On ch=8 n=82 v=70
306960 On ch=8 n=79 v=70
306960 On ch=8 n=82 v=70
307080 Off ch=8 n=82 v=64
307080 Off ch=8 n=79 v=64
307080 Off ch=8 n=82 v=64
307200 On ch=8 n=81 v=67
307200 On ch=8 n=77 v=67
307200 On ch=8 n=81 v=67
307320 Off ch=8 n=81 v=64
307320 Off ch=8 n=77 v=64
307320 Off ch=8 n=81 v=64
307440 On ch=8 n=82 v=64
307440 On ch=8 n=79 v=64
307440 On ch=8 n=82 v=64
307560 Off ch=8 n=82 v=64
307560 Off ch=8 n=79 v=64
307560 Off ch=8 n=82 v=64
307680 On ch=8 n=81 v=61
307680 On ch=8 n=77 v=61
307680 On ch=8 n=81 v=61
307800 Off ch=8 n=81 v=64
307800 Off ch=8 n=77 v=64
307800 Off ch=8 n=81 v=64
307920 On ch=8 n=79 v=59
307920 On ch=8 n=75 v=59
307920 On ch=8 n=79 v=59
308040 Off ch=8 n=79 v=64
308040 Off ch=8 n=75 v=64
308040 Off ch=8 n=79 v=64
308160 On ch=8 n=77 v=56
308160 On ch=8 n=74 v=56
308160 On ch=8 n=77 v=56
308280 Off ch=8 n=77 v=64
308280 Off ch=8 n=74 v=64
308280 Off ch=8 n=77 v=64
308400 On ch=8 n=82 v=70
308400 On ch=8 n=79 v=70
308400 On ch=8 n=82 v=70
308520 Off ch=8 n=82 v=64
308520 Off ch=8 n=79 v=64
308520 Off ch=8 n=82 v=64
308640 On ch=8 n=81 v=66
308640 On ch=8 n=77 v=66
308640 On ch=8 n=81 v=66
308760 Off ch=8 n=81 v=64
308760 Off ch=8 n=77 v=64
308760 Off ch=8 n=81 v=64
308880 On ch=8 n=82 v=64
308880 On ch=8 n=79 v=64
308880 On ch=8 n=82 v=64
309000 Off ch=8 n=82 v=64
309000 Off ch=8 n=79 v=64
309000 Off ch=8 n=82 v=64
309120 On ch=8 n=81 v=63
309120 On ch=8 n=77 v=63
309120 On ch=8 n=81 v=63
309240 Off ch=8 n=81 v=64
309240 Off ch=8 n=77 v=64
309240 Off ch=8 n=81 v=64
309360 On ch=8 n=79 v=61
309360 On ch=8 n=75 v=61
309360 On ch=8 n=79 v=61
309480 Off ch=8 n=79 v=64
309480 Off ch=8 n=75 v=64
309480 Off ch=8 n=79 v=64
309600 On ch=8 n=77 v=60
309600 On ch=8 n=74 v=60
309600 On ch=8 n=77 v=60
309720 Off ch=8 n=77 v=64
309720 Off ch=8 n=74 v=64
309720 Off ch=8 n=77 v=64
309840 On ch=8 n=79 v=58
309840 On ch=8 n=75 v=58
309840 On ch=8 n=79 v=58
309960 Off ch=8 n=79 v=64
309960 Off ch=8 n=75 v=64
309960 Off ch=8 n=79 v=64
310080 On ch=8 n=76 v=70
310080 On ch=8 n=72 v=70
310080 On ch=8 n=76 v=70
310200 Off ch=8 n=76 v=64
310200 Off ch=8 n=72 v=64
310200 Off ch=8 n=76 v=64
310320 On ch=8 n=76 v=62
310320 On ch=8 n=72 v=62
310320 On ch=8 n=76 v=62
310440 Off ch=8 n=76 v=64
310440 Off ch=8 n=72 v=64
310440 Off ch=8 n=76 v=64
310560 On ch=8 n=76 v=70
310560 On ch=8 n=72 v=70
310560 On ch=8 n=76 v=70
310680 Off ch=8 n=76 v=64
310680 Off ch=8 n=72 v=64
310680 Off ch=8 n=76 v=64
310800 On ch=8 n=77 v=62
310800 On ch=8 n=74 v=62
310800 On ch=8 n=77 v=62
310920 Off ch=8 n=77 v=64
310920 Off ch=8 n=74 v=64
310920 Off ch=8 n=77 v=64
311040 On ch=8 n=79 v=70
311040 On ch=8 n=75 v=70
311040 On ch=8 n=79 v=70
311160 Off ch=8 n=79 v=64
311160 Off ch=8 n=75 v=64
311160 Off ch=8 n=79 v=64
311280 On ch=8 n=81 v=54
311280 On ch=8 n=77 v=54
311280 On ch=8 n=81 v=54
311400 Off ch=8 n=81 v=64
311400 Off ch=8 n=77 v=64
311400 Off ch=8 n=81 v=64
311520 On ch=8 n=82 v=70
311520 On ch=8 n=79 v=70
311520 On ch=8 n=82 v=70
311640 Off ch=8 n=82 v=64
311640 Off ch=8 n=79 v=64
311640 Off ch=8 n=82 v=64
311760 On ch=8 n=81 v=67
311760 On ch=8 n=77 v=67
311760 On ch=8 n=81 v=67
311880 Off ch=8 n=81 v=64
311880 Off ch=8 n=77 v=64
311880 Off ch=8 n=81 v=64
312000 On ch=8 n=82 v=65
312000 On ch=8 n=79 v=65
312000 On ch=8 n=82 v=65
312120 Off ch=8 n=82 v=64
312120 Off ch=8 n=79 v=64
312120 Off ch=8 n=82 v=64
312240 On ch=8 n=81 v=62
312240 On ch=8 n=77 v=62
312240 On ch=8 n=81 v=62
312360 Off ch=8 n=81 v=64
312360 Off ch=8 n=77 v=64
312360 Off ch=8 n=81 v=64
312480 On ch=8 n=79 v=59
312480 On ch=8 n=75 v=59
312480 On ch=8 n=79 v=59
312600 Off ch=8 n=79 v=64
312600 Off ch=8 n=75 v=64
312600 Off ch=8 n=79 v=64
312720 On ch=8 n=77 v=57
312720 On ch=8 n=74 v=57
312720 On ch=8 n=77 v=57
312840 Off ch=8 n=77 v=64
312840 Off ch=8 n=74 v=64
312840 Off ch=8 n=77 v=64
312960 On ch=8 n=76 v=70
312960 On ch=8 n=72 v=70
312960 On ch=8 n=76 v=70
313080 Off ch=8 n=76 v=64
313080 Off ch=8 n=72 v=64
313080 Off ch=8 n=76 v=64
313200 On ch=8 n=77 v=65
313200 On ch=8 n=74 v=65
313200 On ch=8 n=77 v=65
313320 Off ch=8 n=77 v=64
313320 Off ch=8 n=74 v=64
313320 Off ch=8 n=77 v=64
313440 On ch=8 n=79 v=61
313440 On ch=8 n=75 v=61
313440 On ch=8 n=79 v=61
313560 Off ch=8 n=79 v=64
313560 Off ch=8 n=75 v=64
313560 Off ch=8 n=79 v=64
313680 On ch=8 n=81 v=58
313680 On ch=8 n=77 v=58
313680 On ch=8 n=81 v=58
313800 Off ch=8 n=81 v=64
313800 Off ch=8 n=77 v=64
313800 Off ch=8 n=81 v=64
313920 On ch=8 n=81 v=70
313920 On ch=8 n=78 v=70
313920 On ch=8 n=81 v=70
314040 Off ch=8 n=81 v=64
314040 Off ch=8 n=78 v=64
314040 Off ch=8 n=81 v=64
314160 On ch=8 n=79 v=66
314160 On ch=8 n=76 v=66
314160 On ch=8 n=80 v=66
314280 Off ch=8 n=79 v=64
314280 Off ch=8 n=76 v=64
314280 Off ch=8 n=80 v=64
314400 On ch=8 n=81 v=64
314400 On ch=8 n=78 v=64
314400 On ch=8 n=81 v=64
314520 Off ch=8 n=81 v=64
314520 Off ch=8 n=78 v=64
314520 Off ch=8 n=81 v=64
314640 On ch=8 n=79 v=62
314640 On ch=8 n=76 v=62
314640 On ch=8 n=80 v=62
314760 Off ch=8 n=79 v=64
314760 Off ch=8 n=76 v=64
314760 Off ch=8 n=80 v=64
314880 On ch=8 n=78 v=60
314880 On ch=8 n=74 v=60
314880 On ch=8 n=78 v=60
315000 Off ch=8 n=78 v=64
315000 Off ch=8 n=74 v=64
315000 Off ch=8 n=78 v=64
315120 On ch=8 n=76 v=58
315120 On ch=8 n=73 v=58
315120 On ch=8 n=76 v=58
315240 Off ch=8 n=76 v=64
315240 Off ch=8 n=73 v=64
315240 Off ch=8 n=76 v=64
315360 On ch=8 n=75 v=70
315360 On ch=8 n=71 v=70
315360 On ch=8 n=75 v=70
315480 Off ch=8 n=75 v=64
315480 Off ch=8 n=71 v=64
315480 Off ch=8 n=75 v=64
315600 On ch=8 n=75 v=59
315600 On ch=8 n=71 v=59
315600 On ch=8 n=75 v=59
315720 Off ch=8 n=75 v=64
315720 Off ch=8 n=71 v=64
315720 Off ch=8 n=75 v=64
315840 On ch=8 n=75 v=70
315840 On ch=8 n=71 v=70
315840 On ch=8 n=75 v=70
315960 Off ch=8 n=75 v=64
315960 Off ch=8 n=71 v=64
315960 Off ch=8 n=75 v=64
316080 On ch=8 n=76 v=58
316080 On ch=8 n=73 v=58
316080 On ch=8 n=76 v=58
316200 Off ch=8 n=76 v=64
316200 Off ch=8 n=73 v=64
316200 Off ch=8 n=76 v=64
316320 On ch=8 n=78 v=70
316320 On ch=8 n=74 v=70
316320 On ch=8 n=78 v=70
316440 Off ch=8 n=78 v=64
316440 Off ch=8 n=74 v=64
316440 Off ch=8 n=78 v=64
316560 On ch=8 n=80 v=59
316560 On ch=8 n=76 v=59
316560 On ch=8 n=80 v=59
316680 Off ch=8 n=80 v=64
316680 Off ch=8 n=76 v=64
316680 Off ch=8 n=80 v=64
327600 On ch=8 n=92 v=66
327600 On ch=8 n=85 v=66
327600 On ch=8 n=80 v=66
327744 Off ch=8 n=92 v=64
327744 Off ch=8 n=85 v=64
327744 Off ch=8 n=80 v=64
327840 On ch=8 n=92 v=66
327840 On ch=8 n=80 v=66
327840 On ch=8 n=85 v=66
327984 Off ch=8 n=92 v=64
327984 Off ch=8 n=80 v=64
327984 Off ch=8 n=85 v=64
328080 On ch=8 n=92 v=66
328080 On ch=8 n=80 v=66
328080 On ch=8 n=85 v=66
328224 Off ch=8 n=92 v=64
328224 Off ch=8 n=80 v=64
328224 Off ch=8 n=85 v=64
328320 On ch=8 n=89 v=66
328320 On ch=8 n=82 v=66
328320 On ch=8 n=77 v=66
328464 Off ch=8 n=89 v=64
328464 Off ch=8 n=82 v=64
328464 Off ch=8 n=77 v=64
328560 On ch=8 n=89 v=66
328560 On ch=8 n=82 v=66
328560 On ch=8 n=77 v=66
328704 Off ch=8 n=89 v=64
328704 Off ch=8 n=82 v=64
328704 Off ch=8 n=77 v=64
328800 On ch=8 n=89 v=66
328800 On ch=8 n=82 v=66
328800 On ch=8 n=77 v=66
328944 Off ch=8 n=89 v=64
328944 Off ch=8 n=82 v=64
328944 Off ch=8 n=77 v=64
329040 On ch=8 n=86 v=66
329040 On ch=8 n=74 v=66
329040 On ch=8 n=79 v=66
329040 On ch=8 n=78 v=66
329184 Off ch=8 n=86 v=64
329184 Off ch=8 n=74 v=64
329184 Off ch=8 n=79 v=64
329184 Off ch=8 n=78 v=64
329280 On ch=8 n=86 v=66
329280 On ch=8 n=74 v=66
329280 On ch=8 n=79 v=66
329280 On ch=8 n=78 v=66
329424 Off ch=8 n=86 v=64
329424 Off ch=8 n=74 v=64
329424 Off ch=8 n=79 v=64
329424 Off ch=8 n=78 v=64
329520 On ch=8 n=86 v=66
329520 On ch=8 n=74 v=66
329520 On ch=8 n=78 v=66
329520 On ch=8 n=79 v=66
329664 Off ch=8 n=86 v=64
329664 Off ch=8 n=74 v=64
329664 Off ch=8 n=78 v=64
329664 Off ch=8 n=79 v=64
329760 On ch=8 n=83 v=66
329760 On ch=8 n=76 v=66
329760 On ch=8 n=71 v=66
329904 Off ch=8 n=83 v=64
329904 Off ch=8 n=76 v=64
329904 Off ch=8 n=71 v=64
330000 On ch=8 n=83 v=66
330000 On ch=8 n=71 v=66
330000 On ch=8 n=76 v=66
330144 Off ch=8 n=83 v=64
330144 Off ch=8 n=71 v=64
330144 Off ch=8 n=76 v=64
330240 On ch=8 n=83 v=66
330240 On ch=8 n=71 v=66
330240 On ch=8 n=76 v=66
330384 Off ch=8 n=83 v=64
330384 Off ch=8 n=71 v=64
330384 Off ch=8 n=76 v=64
330480 On ch=8 n=93 v=66
330480 On ch=8 n=82 v=66
330480 On ch=8 n=81 v=66
330480 On ch=8 n=89 v=66
330624 Off ch=8 n=93 v=64
330624 Off ch=8 n=82 v=64
330624 Off ch=8 n=81 v=64
330624 Off ch=8 n=89 v=64
330720 On ch=8 n=93 v=66
330720 On ch=8 n=82 v=66
330720 On ch=8 n=81 v=66
330720 On ch=8 n=89 v=66
330864 Off ch=8 n=93 v=64
330864 Off ch=8 n=82 v=64
330864 Off ch=8 n=81 v=64
330864 Off ch=8 n=89 v=64
330960 On ch=8 n=93 v=66
330960 On ch=8 n=82 v=66
330960 On ch=8 n=81 v=66
330960 On ch=8 n=89 v=66
331104 Off ch=8 n=93 v=64
331104 Off ch=8 n=82 v=64
331104 Off ch=8 n=81 v=64
331104 Off ch=8 n=89 v=64
331200 On ch=8 n=86 v=66
331200 On ch=8 n=78 v=66
331200 On ch=8 n=90 v=66
331200 On ch=8 n=79 v=66
331344 Off ch=8 n=86 v=64
331344 Off ch=8 n=78 v=64
331344 Off ch=8 n=90 v=64
331344 Off ch=8 n=79 v=64
331440 On ch=8 n=86 v=66
331440 On ch=8 n=79 v=66
331440 On ch=8 n=78 v=66
331440 On ch=8 n=90 v=66
331584 Off ch=8 n=86 v=64
331584 Off ch=8 n=79 v=64
331584 Off ch=8 n=78 v=64
331584 Off ch=8 n=90 v=64
331680 On ch=8 n=86 v=66
331680 On ch=8 n=79 v=66
331680 On ch=8 n=90 v=66
331680 On ch=8 n=78 v=66
331824 Off ch=8 n=86 v=64
331824 Off ch=8 n=79 v=64
331824 Off ch=8 n=90 v=64
331824 Off ch=8 n=78 v=64
331920 On ch=8 n=87 v=66
331920 On ch=8 n=76 v=66
331920 On ch=8 n=75 v=66
331920 On ch=8 n=83 v=66
332064 Off ch=8 n=87 v=64
332064 Off ch=8 n=76 v=64
332064 Off ch=8 n=75 v=64
332064 Off ch=8 n=83 v=64
332160 On ch=8 n=87 v=66
332160 On ch=8 n=75 v=66
332160 On ch=8 n=76 v=66
332160 On ch=8 n=83 v=66
332304 Off ch=8 n=87 v=64
332304 Off ch=8 n=75 v=64
332304 Off ch=8 n=76 v=64
332304 Off ch=8 n=83 v=64
332400 On ch=8 n=87 v=66
332400 On ch=8 n=76 v=66
332400 On ch=8 n=83 v=66
332400 On ch=8 n=75 v=66
332544 Off ch=8 n=87 v=64
332544 Off ch=8 n=76 v=64
332544 Off ch=8 n=83 v=64
332544 Off ch=8 n=75 v=64
332640 On ch=8 n=80 v=66
332640 On ch=8 n=73 v=66
332640 On ch=8 n=84 v=66
332640 On ch=8 n=72 v=66
332784 Off ch=8 n=80 v=64
332784 Off ch=8 n=73 v=64
332784 Off ch=8 n=84 v=64
332784 Off ch=8 n=72 v=64
332880 On ch=8 n=80 v=66
332880 On ch=8 n=73 v=66
332880 On ch=8 n=84 v=66
332880 On ch=8 n=72 v=66
333024 Off ch=8 n=80 v=64
333024 Off ch=8 n=73 v=64
333024 Off ch=8 n=84 v=64
333024 Off ch=8 n=72 v=64
333120 On ch=8 n=80 v=66
333120 On ch=8 n=73 v=66
333120 On ch=8 n=84 v=66
333120 On ch=8 n=72 v=66
333264 Off ch=8 n=80 v=64
333264 Off ch=8 n=73 v=64
333264 Off ch=8 n=84 v=64
333264 Off ch=8 n=72 v=64
333360 On ch=8 n=81 v=66
333360 On ch=8 n=70 v=66
333360 On ch=8 n=69 v=66
333360 On ch=8 n=77 v=66
333504 Off ch=8 n=81 v=64
333504 Off ch=8 n=70 v=64
333504 Off ch=8 n=69 v=64
333504 Off ch=8 n=77 v=64
333600 On ch=8 n=81 v=66
333600 On ch=8 n=70 v=66
333600 On ch=8 n=69 v=66
333600 On ch=8 n=77 v=66
333744 Off ch=8 n=81 v=64
333744 Off ch=8 n=70 v=64
333744 Off ch=8 n=69 v=64
333744 Off ch=8 n=77 v=64
333840 On ch=8 n=81 v=66
333840 On ch=8 n=70 v=66
333840 On ch=8 n=69 v=66
333840 On ch=8 n=77 v=66
333984 Off ch=8 n=81 v=64
333984 Off ch=8 n=70 v=64
333984 Off ch=8 n=69 v=64
333984 Off ch=8 n=77 v=64
334800 On ch=8 n=89 v=64
334800 On ch=8 n=72 v=64
334800 On ch=8 n=77 v=64
334892 Off ch=8 n=89 v=64
334892 Off ch=8 n=72 v=64
334892 Off ch=8 n=77 v=64
335040 On ch=8 n=87 v=64
335040 On ch=8 n=77 v=64
335040 On ch=8 n=75 v=64
335132 Off ch=8 n=87 v=64
335132 Off ch=8 n=77 v=64
335132 Off ch=8 n=75 v=64
335280 On ch=8 n=86 v=64
335280 On ch=8 n=82 v=64
335280 On ch=8 n=74 v=64
335372 Off ch=8 n=86 v=64
335372 Off ch=8 n=82 v=64
335372 Off ch=8 n=74 v=64
335520 On ch=8 n=84 v=64
335520 On ch=8 n=87 v=64
335520 On ch=8 n=72 v=64
335612 Off ch=8 n=84 v=64
335612 Off ch=8 n=87 v=64
335612 Off ch=8 n=72 v=64
335760 On ch=8 n=86 v=64
335760 On ch=8 n=82 v=64
335760 On ch=8 n=74 v=64
335852 Off ch=8 n=86 v=64
335852 Off ch=8 n=82 v=64
335852 Off ch=8 n=74 v=64
336000 On ch=8 n=87 v=64
336000 On ch=8 n=77 v=64
336000 On ch=8 n=75 v=64
336092 Off ch=8 n=87 v=64
336092 Off ch=8 n=77 v=64
336092 Off ch=8 n=75 v=64
336240 On ch=8 n=89 v=64
336240 On ch=8 n=72 v=64
336240 On ch=8 n=77 v=64
336332 Off ch=8 n=89 v=64
336332 Off ch=8 n=72 v=64
336332 Off ch=8 n=77 v=64
336480 On ch=8 n=87 v=64
336480 On ch=8 n=77 v=64
336480 On ch=8 n=75 v=64
336572 Off ch=8 n=87 v=64
336572 Off ch=8 n=77 v=64
336572 Off ch=8 n=75 v=64
336720 On ch=8 n=86 v=64
336720 On ch=8 n=82 v=64
336720 On ch=8 n=74 v=64
336812 Off ch=8 n=86 v=64
336812 Off ch=8 n=82 v=64
336812 Off ch=8 n=74 v=64
336960 On ch=8 n=84 v=64
336960 On ch=8 n=87 v=64
336960 On ch=8 n=72 v=64
337052 Off ch=8 n=84 v=64
337052 Off ch=8 n=87 v=64
337052 Off ch=8 n=72 v=64
337920 On ch=8 n=87 v=64
337920 On ch=8 n=77 v=64
337920 On ch=8 n=75 v=64
338012 Off ch=8 n=87 v=64
338012 Off ch=8 n=77 v=64
338012 Off ch=8 n=75 v=64
338160 On ch=8 n=86 v=64
338160 On ch=8 n=82 v=64
338160 On ch=8 n=74 v=64
338252 Off ch=8 n=86 v=64
338252 Off ch=8 n=82 v=64
338252 Off ch=8 n=74 v=64
338400 On ch=8 n=84 v=64
338400 On ch=8 n=87 v=64
338400 On ch=8 n=72 v=64
338492 Off ch=8 n=84 v=64
338492 Off ch=8 n=87 v=64
338492 Off ch=8 n=72 v=64
338640 On ch=8 n=86 v=64
338640 On ch=8 n=82 v=64
338640 On ch=8 n=74 v=64
338732 Off ch=8 n=86 v=64
338732 Off ch=8 n=82 v=64
338732 Off ch=8 n=74 v=64
338880 On ch=8 n=87 v=64
338880 On ch=8 n=77 v=64
338880 On ch=8 n=75 v=64
338972 Off ch=8 n=87 v=64
338972 Off ch=8 n=77 v=64
338972 Off ch=8 n=75 v=64
339120 On ch=8 n=89 v=64
339120 On ch=8 n=72 v=64
339120 On ch=8 n=77 v=64
339212 Off ch=8 n=89 v=64
339212 Off ch=8 n=72 v=64
339212 Off ch=8 n=77 v=64
339360 On ch=8 n=87 v=64
339360 On ch=8 n=77 v=64
339360 On ch=8 n=75 v=64
339452 Off ch=8 n=87 v=64
339452 Off ch=8 n=77 v=64
339452 Off ch=8 n=75 v=64
339600 On ch=8 n=86 v=64
339600 On ch=8 n=82 v=64
339600 On ch=8 n=74 v=64
339692 Off ch=8 n=86 v=64
339692 Off ch=8 n=82 v=64
339692 Off ch=8 n=74 v=64
339840 On ch=8 n=84 v=64
339840 On ch=8 n=87 v=64
339840 On ch=8 n=72 v=64
339932 Off ch=8 n=84 v=64
339932 Off ch=8 n=87 v=64
339932 Off ch=8 n=72 v=64
340080 On ch=8 n=86 v=64
340080 On ch=8 n=82 v=64
340080 On ch=8 n=74 v=64
340172 Off ch=8 n=86 v=64
340172 Off ch=8 n=82 v=64
340172 Off ch=8 n=74 v=64
340320 On ch=8 n=87 v=64
340320 On ch=8 n=77 v=64
340320 On ch=8 n=75 v=64
340412 Off ch=8 n=87 v=64
340412 Off ch=8 n=77 v=64
340412 Off ch=8 n=75 v=64
340560 On ch=8 n=89 v=64
340560 On ch=8 n=72 v=64
340560 On ch=8 n=77 v=64
340652 Off ch=8 n=89 v=64
340652 Off ch=8 n=72 v=64
340652 Off ch=8 n=77 v=64
340800 On ch=8 n=87 v=64
340800 On ch=8 n=77 v=64
340800 On ch=8 n=75 v=64
340892 Off ch=8 n=87 v=64
340892 Off ch=8 n=77 v=64
340892 Off ch=8 n=75 v=64
341040 On ch=8 n=86 v=64
341040 On ch=8 n=82 v=64
341040 On ch=8 n=74 v=64
341132 Off ch=8 n=86 v=64
341132 Off ch=8 n=82 v=64
341132 Off ch=8 n=74 v=64
341280 On ch=8 n=84 v=64
341280 On ch=8 n=87 v=64
341280 On ch=8 n=72 v=64
341372 Off ch=8 n=84 v=64
341372 Off ch=8 n=87 v=64
341372 Off ch=8 n=72 v=64
341520 On ch=8 n=86 v=64
341520 On ch=8 n=82 v=64
341520 On ch=8 n=74 v=64
341612 Off ch=8 n=86 v=64
341612 Off ch=8 n=82 v=64
341612 Off ch=8 n=74 v=64
341760 On ch=8 n=87 v=64
341760 On ch=8 n=77 v=64
341760 On ch=8 n=75 v=64
341852 Off ch=8 n=87 v=64
341852 Off ch=8 n=77 v=64
341852 Off ch=8 n=75 v=64
342000 On ch=8 n=89 v=64
342000 On ch=8 n=72 v=64
342000 On ch=8 n=77 v=64
342092 Off ch=8 n=89 v=64
342092 Off ch=8 n=72 v=64
342092 Off ch=8 n=77 v=64
342240 On ch=8 n=87 v=64
342240 On ch=8 n=77 v=64
342240 On ch=8 n=75 v=64
342332 Off ch=8 n=87 v=64
342332 Off ch=8 n=77 v=64
342332 Off ch=8 n=75 v=64
342480 On ch=8 n=86 v=64
342480 On ch=8 n=82 v=64
342480 On ch=8 n=74 v=64
342572 Off ch=8 n=86 v=64
342572 Off ch=8 n=82 v=64
342572 Off ch=8 n=74 v=64
342720 On ch=8 n=84 v=88
342720 On ch=8 n=80 v=88
342720 On ch=8 n=77 v=88
342908 Off ch=8 n=84 v=64
342908 Off ch=8 n=80 v=64
342908 Off ch=8 n=77 v=64
348960 On ch=8 n=84 v=88
348960 On ch=8 n=80 v=88
348960 On ch=8 n=77 v=88
349148 Off ch=8 n=84 v=64
349148 Off ch=8 n=80 v=64
349148 Off ch=8 n=77 v=64
350880 On ch=8 n=88 v=88
350880 On ch=8 n=80 v=88
350880 On ch=8 n=77 v=88
351068 Off ch=8 n=88 v=64
351068 Off ch=8 n=80 v=64
351068 Off ch=8 n=77 v=64
351360 On ch=8 n=84 v=88
351360 On ch=8 n=80 v=88
351360 On ch=8 n=77 v=88
351548 Off ch=8 n=84 v=64
351548 Off ch=8 n=80 v=64
351548 Off ch=8 n=77 v=64
355200 On ch=8 n=84 v=88
355200 On ch=8 n=80 v=88
355200 On ch=8 n=77 v=88
355388 Off ch=8 n=84 v=64
355388 Off ch=8 n=80 v=64
355388 Off ch=8 n=77 v=64
357120 On ch=8 n=88 v=88
357120 On ch=8 n=80 v=88
357120 On ch=8 n=77 v=88
357308 Off ch=8 n=88 v=64
357308 Off ch=8 n=80 v=64
357308 Off ch=8 n=77 v=64
358560 On ch=8 n=88 v=88
358560 On ch=8 n=80 v=88
358560 On ch=8 n=77 v=88
358748 Off ch=8 n=88 v=64
358748 Off ch=8 n=80 v=64
358748 Off ch=8 n=77 v=64
360000 On ch=8 n=88 v=88
360000 On ch=8 n=80 v=88
360000 On ch=8 n=77 v=88
360188 Off ch=8 n=88 v=64
360188 Off ch=8 n=80 v=64
360188 Off ch=8 n=77 v=64
360960 On ch=8 n=88 v=88
360960 On ch=8 n=80 v=88
360960 On ch=8 n=77 v=88
361148 Off ch=8 n=88 v=64
361148 Off ch=8 n=80 v=64
361148 Off ch=8 n=77 v=64
366720 Par ch=8 c=0 v=0
366720 Par ch=8 c=32 v=2
366720 PrCh ch=8 p=71
368640 On ch=8 n=87 v=70
368640 On ch=8 n=63 v=50
369792 On ch=8 n=84 v=68
369792 On ch=8 n=60 v=48
369847 Off ch=8 n=87 v=64
369847 Off ch=8 n=63 v=64
370868 On ch=8 n=87 v=66
370868 On ch=8 n=63 v=46
370996 Off ch=8 n=84 v=64
370996 Off ch=8 n=60 v=64
371964 On ch=8 n=84 v=63
371964 On ch=8 n=60 v=43
372036 Off ch=8 n=87 v=64
372036 Off ch=8 n=63 v=64
373063 On ch=8 n=82 v=60
373063 On ch=8 n=58 v=40
373157 Off ch=8 n=84 v=64
373157 Off ch=8 n=60 v=64
374021 Off ch=8 n=82 v=64
374021 Off ch=8 n=58 v=64
374183 On ch=8 n=87 v=70
374183 On ch=8 n=63 v=50
375270 On ch=8 n=89 v=69
375270 On ch=8 n=65 v=49
375362 Off ch=8 n=87 v=64
375362 Off ch=8 n=63 v=64
376374 On ch=8 n=87 v=67
376374 On ch=8 n=63 v=47
376460 Off ch=8 n=89 v=64
376460 Off ch=8 n=65 v=64
377422 On ch=8 n=84 v=65
377422 On ch=8 n=60 v=45
377452 Off ch=8 n=87 v=64
377452 Off ch=8 n=63 v=64
378420 On ch=8 n=89 v=66
378420 On ch=8 n=65 v=46
378493 Off ch=8 n=84 v=64
378493 Off ch=8 n=60 v=64
378564 On ch=8 n=87 v=67
378564 On ch=8 n=63 v=47
378690 Off ch=8 n=89 v=64
378690 Off ch=8 n=65 v=64
379639 On ch=8 n=84 v=60
379639 On ch=8 n=60 v=40
379722 Off ch=8 n=87 v=64
379722 Off ch=8 n=63 v=64
380740 On ch=8 n=82 v=58
380740 On ch=8 n=58 v=38
380773 Off ch=8 n=84 v=64
380773 Off ch=8 n=60 v=64
381736 Off ch=8 n=82 v=64
381736 Off ch=8 n=58 v=64
381940 On ch=8 n=77 v=70
381940 On ch=8 n=53 v=50
383085 On ch=8 n=82 v=67
383085 On ch=8 n=58 v=47
383202 Off ch=8 n=77 v=64
383202 Off ch=8 n=53 v=64
384221 On ch=8 n=84 v=64
384221 On ch=8 n=60 v=44
384290 Off ch=8 n=82 v=64
384290 Off ch=8 n=58 v=64
385194 On ch=8 n=80 v=68
385194 On ch=8 n=56 v=48
385247 Off ch=8 n=84 v=64
385247 Off ch=8 n=60 v=64
385321 On ch=8 n=84 v=68
385321 On ch=8 n=60 v=48
385365 Off ch=8 n=80 v=64
385365 Off ch=8 n=56 v=64
385437 On ch=8 n=80 v=67
385437 On ch=8 n=56 v=47
385540 Off ch=8 n=84 v=64
385540 Off ch=8 n=60 v=64
386556 On ch=8 n=77 v=58
386556 On ch=8 n=53 v=38
386692 Off ch=8 n=80 v=64
386692 Off ch=8 n=56 v=64
388695 Off ch=8 n=77 v=64
388695 Off ch=8 n=53 v=64
389174 On ch=8 n=82 v=70
389174 On ch=8 n=58 v=50
390277 On ch=8 n=87 v=68
390277 On ch=8 n=63 v=48
390327 Off ch=8 n=82 v=64
390327 Off ch=8 n=58 v=64
392517 On ch=8 n=85 v=70
392517 On ch=8 n=61 v=50
392572 Off ch=8 n=87 v=64
392572 Off ch=8 n=63 v=64
392637 On ch=8 n=89 v=70
392637 On ch=8 n=65 v=50
392708 Off ch=8 n=85 v=64
392708 Off ch=8 n=61 v=64
392781 On ch=8 n=85 v=64
392781 On ch=8 n=61 v=44
392852 Off ch=8 n=89 v=64
392852 Off ch=8 n=65 v=64
393845 On ch=8 n=84 v=62
393845 On ch=8 n=60 v=42
394004 Off ch=8 n=85 v=64
394004 Off ch=8 n=61 v=64
397330 On ch=8 n=82 v=70
397330 On ch=8 n=58 v=50
397433 Off ch=8 n=84 v=64
397433 Off ch=8 n=60 v=64
398371 On ch=8 n=87 v=72
398371 On ch=8 n=63 v=52
398388 Off ch=8 n=82 v=64
398388 Off ch=8 n=58 v=64
398515 On ch=8 n=84 v=66
398515 On ch=8 n=60 v=46
398604 Off ch=8 n=87 v=64
398604 Off ch=8 n=63 v=64
399663 On ch=8 n=80 v=64
399663 On ch=8 n=56 v=44
399756 Off ch=8 n=84 v=64
399756 Off ch=8 n=60 v=64
400821 On ch=8 n=77 v=62
400821 On ch=8 n=53 v=42
400869 Off ch=8 n=80 v=64
400869 Off ch=8 n=56 v=64
402977 Off ch=8 n=77 v=64
402977 Off ch=8 n=53 v=64
403557 On ch=8 n=84 v=74
403557 On ch=8 n=60 v=54
404667 On ch=8 n=87 v=67
404667 On ch=8 n=63 v=47
404725 Off ch=8 n=84 v=64
404725 Off ch=8 n=60 v=64
404835 On ch=8 n=82 v=67
404835 On ch=8 n=58 v=47
404944 Off ch=8 n=87 v=64
404944 Off ch=8 n=63 v=64
406069 On ch=8 n=84 v=64
406069 On ch=8 n=60 v=44
406168 Off ch=8 n=82 v=64
406168 Off ch=8 n=58 v=64
406237 On ch=8 n=80 v=64
406237 On ch=8 n=56 v=44
406396 Off ch=8 n=84 v=64
406396 Off ch=8 n=60 v=64
407996 On ch=8 n=77 v=60
407996 On ch=8 n=53 v=40
408100 Off ch=8 n=80 v=64
408100 Off ch=8 n=56 v=64
410848 Par ch=8 c=7 v=64
410987 Par ch=8 c=7 v=63
411126 Par ch=8 c=7 v=62
411266 Par ch=8 c=7 v=61
411405 Par ch=8 c=7 v=60
411545 Par ch=8 c=7 v=59
411684 Par ch=8 c=7 v=58
411824 Par ch=8 c=7 v=57
411963 Par ch=8 c=7 v=56
412102 Par ch=8 c=7 v=55
412242 Par ch=8 c=7 v=54
412381 Par ch=8 c=7 v=53
412521 Par ch=8 c=7 v=52
412660 Par ch=8 c=7 v=51
412800 Par ch=8 c=7 v=50
412939 Par ch=8 c=7 v=49
413078 Par ch=8 c=7 v=48
413218 Par ch=8 c=7 v=47
413357 Par ch=8 c=7 v=46
413497 Par ch=8 c=7 v=45
413636 Par ch=8 c=7 v=44
413776 Par ch=8 c=7 v=43
413915 Par ch=8 c=7 v=42
414054 Par ch=8 c=7 v=41
414194 Par ch=8 c=7 v=40
414333 Par ch=8 c=7 v=39
414473 Par ch=8 c=7 v=38
414612 Par ch=8 c=7 v=37
414752 Par ch=8 c=7 v=36
414891 Par ch=8 c=7 v=35
415030 Par ch=8 c=7 v=34
415170 Par ch=8 c=7 v=33
415309 Par ch=8 c=7 v=32
415449 Par ch=8 c=7 v=31
415588 Par ch=8 c=7 v=30
415713 Off ch=8 n=77 v=64
415713 Off ch=8 n=53 v=64
415728 Par ch=8 c=7 v=29
415867 Par ch=8 c=7 v=28
416006 Par ch=8 c=7 v=27
416146 Par ch=8 c=7 v=26
416285 Par ch=8 c=7 v=25
416425 Par ch=8 c=7 v=24
416564 Par ch=8 c=7 v=23
416703 Par ch=8 c=7 v=22
417072 Par ch=8 c=7 v=100
417360 On ch=8 n=41 v=50
417360 On ch=8 n=48 v=50
417840 Off ch=8 n=41 v=64
417840 Off ch=8 n=48 v=64
417840 On ch=8 n=49 v=50
417840 On ch=8 n=42 v=50
418320 Off ch=8 n=49 v=64
418320 Off ch=8 n=42 v=64
418320 On ch=8 n=51 v=50
418320 On ch=8 n=44 v=50
418560 Off ch=8 n=51 v=64
418560 Off ch=8 n=44 v=64
419280 On ch=8 n=41 v=50
419280 On ch=8 n=48 v=50
419760 Off ch=8 n=41 v=64
419760 Off ch=8 n=48 v=64
419760 On ch=8 n=49 v=50
419760 On ch=8 n=42 v=50
420240 Off ch=8 n=49 v=64
420240 Off ch=8 n=42 v=64
420240 On ch=8 n=51 v=50
420240 On ch=8 n=44 v=50
420480 Off ch=8 n=51 v=64
420480 Off ch=8 n=44 v=64
421200 On ch=8 n=41 v=50
421200 On ch=8 n=48 v=50
421680 Off ch=8 n=41 v=64
421680 Off ch=8 n=48 v=64
421680 On ch=8 n=49 v=50
421680 On ch=8 n=42 v=50
422160 Off ch=8 n=49 v=64
422160 Off ch=8 n=42 v=64
422160 On ch=8 n=51 v=50
422160 On ch=8 n=44 v=50
422400 Off ch=8 n=51 v=64
422400 Off ch=8 n=44 v=64
422640 On ch=8 n=73 v=38
422640 On ch=8 n=65 v=38
422640 On ch=8 n=72 v=33
422880 Off ch=8 n=73 v=64
422880 Off ch=8 n=65 v=64
422880 On ch=8 n=75 v=32
422880 On ch=8 n=70 v=32
423100 Off ch=8 n=72 v=64
423120 Off ch=8 n=75 v=64
423120 Off ch=8 n=70 v=64
423120 On ch=8 n=73 v=38
423120 On ch=8 n=65 v=38
423120 On ch=8 n=72 v=33
423360 Off ch=8 n=73 v=64
423360 Off ch=8 n=65 v=64
423360 On ch=8 n=75 v=32
423360 On ch=8 n=70 v=32
423580 Off ch=8 n=72 v=64
423600 Off ch=8 n=75 v=64
423600 Off ch=8 n=70 v=64
423600 On ch=8 n=73 v=38
423600 On ch=8 n=65 v=38
423600 On ch=8 n=72 v=33
423840 Off ch=8 n=73 v=64
423840 Off ch=8 n=65 v=64
423840 On ch=8 n=75 v=32
423840 On ch=8 n=70 v=32
424060 Off ch=8 n=72 v=64
424080 Off ch=8 n=75 v=64
424080 Off ch=8 n=70 v=64
424080 On ch=8 n=73 v=38
424080 On ch=8 n=65 v=38
424080 On ch=8 n=72 v=33
424316 Off ch=8 n=72 v=64
424320 Off ch=8 n=73 v=64
424320 Off ch=8 n=65 v=64
424383 Par ch=8 c=7 v=22
424752 Par ch=8 c=7 v=100
425040 On ch=8 n=41 v=50
425040 On ch=8 n=48 v=50
425520 Off ch=8 n=41 v=64
425520 Off ch=8 n=48 v=64
425520 On ch=8 n=49 v=50
425520 On ch=8 n=42 v=50
426000 Off ch=8 n=49 v=64
426000 Off ch=8 n=42 v=64
426000 On ch=8 n=51 v=50
426000 On ch=8 n=44 v=50
426240 Off ch=8 n=51 v=64
426240 Off ch=8 n=44 v=64
426960 On ch=8 n=41 v=50
426960 On ch=8 n=48 v=50
427440 Off ch=8 n=41 v=64
427440 Off ch=8 n=48 v=64
427440 On ch=8 n=49 v=50
427440 On ch=8 n=42 v=50
427920 Off ch=8 n=49 v=64
427920 Off ch=8 n=42 v=64
427920 On ch=8 n=51 v=50
427920 On ch=8 n=44 v=50
428160 Off ch=8 n=51 v=64
428160 Off ch=8 n=44 v=64
428400 On ch=8 n=73 v=38
428400 On ch=8 n=65 v=38
428400 On ch=8 n=72 v=33
428640 Off ch=8 n=73 v=64
428640 Off ch=8 n=65 v=64
428640 On ch=8 n=75 v=32
428640 On ch=8 n=70 v=32
428860 Off ch=8 n=72 v=64
428880 Off ch=8 n=75 v=64
428880 Off ch=8 n=70 v=64
428880 On ch=8 n=73 v=38
428880 On ch=8 n=65 v=38
428880 On ch=8 n=72 v=33
429120 Off ch=8 n=73 v=64
429120 Off ch=8 n=65 v=64
429120 On ch=8 n=75 v=32
429120 On ch=8 n=70 v=32
429340 Off ch=8 n=72 v=64
429360 Off ch=8 n=75 v=64
429360 Off ch=8 n=70 v=64
429360 On ch=8 n=73 v=38
429360 On ch=8 n=65 v=38
429360 On ch=8 n=72 v=33
429600 Off ch=8 n=73 v=64
429600 Off ch=8 n=65 v=64
429600 On ch=8 n=75 v=32
429600 On ch=8 n=70 v=32
429820 Off ch=8 n=72 v=64
429840 Off ch=8 n=75 v=64
429840 Off ch=8 n=70 v=64
429840 On ch=8 n=73 v=38
429840 On ch=8 n=65 v=38
429840 On ch=8 n=72 v=33
430080 Off ch=8 n=73 v=64
430080 Off ch=8 n=65 v=64
430080 On ch=8 n=75 v=32
430080 On ch=8 n=70 v=32
430300 Off ch=8 n=72 v=64
430320 Off ch=8 n=75 v=64
430320 Off ch=8 n=70 v=64
430320 On ch=8 n=73 v=38
430320 On ch=8 n=65 v=38
430320 On ch=8 n=72 v=33
430560 Off ch=8 n=73 v=64
430560 Off ch=8 n=65 v=64
430560 On ch=8 n=75 v=32
430560 On ch=8 n=70 v=32
430780 Off ch=8 n=72 v=64
430800 Off ch=8 n=75 v=64
430800 Off ch=8 n=70 v=64
430800 On ch=8 n=73 v=38
430800 On ch=8 n=65 v=38
430800 On ch=8 n=72 v=33
431040 Off ch=8 n=73 v=64
431040 Off ch=8 n=65 v=64
431040 On ch=8 n=75 v=32
431040 On ch=8 n=70 v=32
431260 Off ch=8 n=72 v=64
431280 Off ch=8 n=75 v=64
431280 Off ch=8 n=70 v=64
431280 On ch=8 n=73 v=38
431280 On ch=8 n=65 v=38
431280 On ch=8 n=72 v=33
431520 Off ch=8 n=73 v=64
431520 Off ch=8 n=65 v=64
431520 On ch=8 n=75 v=32
431520 On ch=8 n=70 v=32
431732 Off ch=8 n=75 v=64
431732 Off ch=8 n=70 v=64
431740 Off ch=8 n=72 v=64
432240 On ch=8 n=41 v=50
432240 On ch=8 n=48 v=50
432720 Off ch=8 n=41 v=64
432720 Off ch=8 n=48 v=64
432720 On ch=8 n=49 v=50
432720 On ch=8 n=42 v=50
433200 Off ch=8 n=49 v=64
433200 Off ch=8 n=42 v=64
433200 On ch=8 n=51 v=50
433200 On ch=8 n=44 v=50
433440 Off ch=8 n=51 v=64
433440 Off ch=8 n=44 v=64
434160 On ch=8 n=41 v=50
434160 On ch=8 n=48 v=50
434640 Off ch=8 n=41 v=64
434640 Off ch=8 n=48 v=64
434640 On ch=8 n=49 v=50
434640 On ch=8 n=42 v=50
435120 Off ch=8 n=49 v=64
435120 Off ch=8 n=42 v=64
435120 On ch=8 n=51 v=50
435120 On ch=8 n=44 v=50
435360 Off ch=8 n=51 v=64
435360 Off ch=8 n=44 v=64
436080 On ch=8 n=41 v=50
436080 On ch=8 n=48 v=50
436560 Off ch=8 n=41 v=64
436560 Off ch=8 n=48 v=64
436560 On ch=8 n=49 v=50
436560 On ch=8 n=42 v=50
437040 Off ch=8 n=49 v=64
437040 Off ch=8 n=42 v=64
437040 On ch=8 n=51 v=50
437040 On ch=8 n=44 v=50
437280 Off ch=8 n=51 v=64
437280 Off ch=8 n=44 v=64
438000 On ch=8 n=41 v=50
438000 On ch=8 n=48 v=50
438480 Off ch=8 n=41 v=64
438480 Off ch=8 n=48 v=64
438480 On ch=8 n=49 v=50
438480 On ch=8 n=42 v=50
438960 Off ch=8 n=49 v=64
438960 Off ch=8 n=42 v=64
438960 On ch=8 n=51 v=50
438960 On ch=8 n=44 v=50
439200 Off ch=8 n=51 v=64
439200 Off ch=8 n=44 v=64
439920 On ch=8 n=41 v=50
439920 On ch=8 n=48 v=50
440400 Off ch=8 n=41 v=64
440400 Off ch=8 n=48 v=64
440400 On ch=8 n=49 v=50
440400 On ch=8 n=42 v=50
440880 Off ch=8 n=49 v=64
440880 Off ch=8 n=42 v=64
440880 On ch=8 n=51 v=50
440880 On ch=8 n=44 v=50
441120 Off ch=8 n=51 v=64
441120 Off ch=8 n=44 v=64
441840 On ch=8 n=41 v=50
441840 On ch=8 n=48 v=50
442320 Off ch=8 n=41 v=64
442320 Off ch=8 n=48 v=64
442320 On ch=8 n=49 v=50
442320 On ch=8 n=42 v=50
442800 Off ch=8 n=49 v=64
442800 Off ch=8 n=42 v=64
442800 On ch=8 n=51 v=50
442800 On ch=8 n=44 v=50
443040 Off ch=8 n=51 v=64
443040 Off ch=8 n=44 v=64
443760 On ch=8 n=41 v=50
443760 On ch=8 n=48 v=50
444240 Off ch=8 n=41 v=64
444240 Off ch=8 n=48 v=64
444240 On ch=8 n=49 v=50
444240 On ch=8 n=42 v=50
444720 Off ch=8 n=49 v=64
444720 Off ch=8 n=42 v=64
444720 On ch=8 n=51 v=50
444720 On ch=8 n=44 v=50
444960 Off ch=8 n=51 v=64
444960 Off ch=8 n=44 v=64
445680 On ch=8 n=41 v=50
445680 On ch=8 n=48 v=50
446160 Off ch=8 n=41 v=64
446160 Off ch=8 n=48 v=64
446160 On ch=8 n=49 v=50
446160 On ch=8 n=42 v=50
446640 Off ch=8 n=49 v=64
446640 Off ch=8 n=42 v=64
446640 On ch=8 n=51 v=50
446640 On ch=8 n=44 v=50
446880 Off ch=8 n=51 v=64
446880 Off ch=8 n=44 v=64
447600 On ch=8 n=41 v=50
447600 On ch=8 n=48 v=50
448080 Off ch=8 n=41 v=64
448080 Off ch=8 n=48 v=64
448080 On ch=8 n=49 v=50
448080 On ch=8 n=42 v=50
448560 Off ch=8 n=49 v=64
448560 Off ch=8 n=42 v=64
448560 On ch=8 n=51 v=50
448560 On ch=8 n=44 v=50
448800 Off ch=8 n=51 v=64
448800 Off ch=8 n=44 v=64
449520 On ch=8 n=41 v=50
449520 On ch=8 n=48 v=50
450000 Off ch=8 n=41 v=64
450000 Off ch=8 n=48 v=64
450000 On ch=8 n=49 v=50
450000 On ch=8 n=42 v=50
450480 Off ch=8 n=49 v=64
450480 Off ch=8 n=42 v=64
450480 On ch=8 n=51 v=50
450480 On ch=8 n=44 v=50
450720 Off ch=8 n=51 v=64
450720 Off ch=8 n=44 v=64
451440 On ch=8 n=41 v=50
451440 On ch=8 n=48 v=50
451920 Off ch=8 n=41 v=64
451920 Off ch=8 n=48 v=64
451920 On ch=8 n=49 v=50
451920 On ch=8 n=42 v=50
452400 Off ch=8 n=49 v=64
452400 Off ch=8 n=42 v=64
452400 On ch=8 n=51 v=50
452400 On ch=8 n=44 v=50
452880 Off ch=8 n=51 v=64
452880 Off ch=8 n=44 v=64
452880 On ch=8 n=53 v=50
452880 On ch=8 n=46 v=50
453360 Off ch=8 n=53 v=64
453360 Off ch=8 n=46 v=64
453360 On ch=8 n=51 v=50
453360 On ch=8 n=44 v=50
453600 Off ch=8 n=51 v=64
453600 Off ch=8 n=44 v=64
454320 On ch=8 n=41 v=50
454320 On ch=8 n=48 v=50
454800 Off ch=8 n=41 v=64
454800 Off ch=8 n=48 v=64
454800 On ch=8 n=49 v=50
454800 On ch=8 n=42 v=50
455280 Off ch=8 n=49 v=64
455280 Off ch=8 n=42 v=64
455280 On ch=8 n=51 v=50
455280 On ch=8 n=44 v=50
455520 Off ch=8 n=51 v=64
455520 Off ch=8 n=44 v=64
456240 On ch=8 n=41 v=50
456240 On ch=8 n=48 v=50
456720 Off ch=8 n=41 v=64
456720 Off ch=8 n=48 v=64
456720 On ch=8 n=49 v=50
456720 On ch=8 n=42 v=50
457200 Off ch=8 n=49 v=64
457200 Off ch=8 n=42 v=64
457200 On ch=8 n=51 v=50
457200 On ch=8 n=44 v=50
457440 Off ch=8 n=51 v=64
457440 Off ch=8 n=44 v=64
457680 On ch=8 n=73 v=38
457680 On ch=8 n=65 v=38
457680 On ch=8 n=72 v=33
457920 Off ch=8 n=73 v=64
457920 Off ch=8 n=65 v=64
457920 On ch=8 n=75 v=32
457920 On ch=8 n=70 v=32
458140 Off ch=8 n=72 v=64
458160 Off ch=8 n=75 v=64
458160 Off ch=8 n=70 v=64
458160 On ch=8 n=73 v=38
458160 On ch=8 n=65 v=38
458160 On ch=8 n=72 v=33
458400 Off ch=8 n=73 v=64
458400 Off ch=8 n=65 v=64
458400 On ch=8 n=75 v=32
458400 On ch=8 n=70 v=32
458620 Off ch=8 n=72 v=64
458640 Off ch=8 n=75 v=64
458640 Off ch=8 n=70 v=64
458640 On ch=8 n=73 v=38
458640 On ch=8 n=65 v=38
458640 On ch=8 n=72 v=33
458880 Off ch=8 n=73 v=64
458880 Off ch=8 n=65 v=64
458880 On ch=8 n=75 v=32
458880 On ch=8 n=70 v=32
459100 Off ch=8 n=72 v=64
459120 Off ch=8 n=75 v=64
459120 Off ch=8 n=70 v=64
459120 On ch=8 n=73 v=38
459120 On ch=8 n=65 v=38
459120 On ch=8 n=72 v=33
459360 Off ch=8 n=73 v=64
459360 Off ch=8 n=65 v=64
459360 On ch=8 n=75 v=32
459360 On ch=8 n=70 v=32
459423 Par ch=8 c=7 v=22
459596 Off ch=8 n=72 v=64
459600 Off ch=8 n=75 v=64
459600 Off ch=8 n=70 v=64
459792 Par ch=8 c=7 v=100
460080 On ch=8 n=41 v=50
460080 On ch=8 n=48 v=50
460560 Off ch=8 n=41 v=64
460560 Off ch=8 n=48 v=64
460560 On ch=8 n=49 v=50
460560 On ch=8 n=42 v=50
461040 Off ch=8 n=49 v=64
461040 Off ch=8 n=42 v=64
461040 On ch=8 n=51 v=50
461040 On ch=8 n=44 v=50
461280 Off ch=8 n=51 v=64
461280 Off ch=8 n=44 v=64
461520 On ch=8 n=73 v=38
461520 On ch=8 n=65 v=38
461520 On ch=8 n=72 v=33
461760 Off ch=8 n=73 v=64
461760 Off ch=8 n=65 v=64
461760 On ch=8 n=75 v=32
461760 On ch=8 n=70 v=32
461980 Off ch=8 n=72 v=64
462000 Off ch=8 n=75 v=64
462000 Off ch=8 n=70 v=64
462000 On ch=8 n=73 v=38
462000 On ch=8 n=65 v=38
462000 On ch=8 n=72 v=33
462240 Off ch=8 n=73 v=64
462240 Off ch=8 n=65 v=64
462240 On ch=8 n=75 v=32
462240 On ch=8 n=70 v=32
462460 Off ch=8 n=72 v=64
462480 Off ch=8 n=75 v=64
462480 Off ch=8 n=70 v=64
462480 On ch=8 n=73 v=38
462480 On ch=8 n=65 v=38
462480 On ch=8 n=72 v=33
462720 Off ch=8 n=73 v=64
462720 Off ch=8 n=65 v=64
462720 On ch=8 n=75 v=32
462720 On ch=8 n=70 v=32
462940 Off ch=8 n=72 v=64
462960 Off ch=8 n=75 v=64
462960 Off ch=8 n=70 v=64
462960 On ch=8 n=73 v=38
462960 On ch=8 n=65 v=38
462960 On ch=8 n=72 v=33
463200 Off ch=8 n=73 v=64
463200 Off ch=8 n=65 v=64
463200 On ch=8 n=75 v=32
463200 On ch=8 n=70 v=32
463420 Off ch=8 n=72 v=64
463440 Off ch=8 n=75 v=64
463440 Off ch=8 n=70 v=64
463440 On ch=8 n=73 v=38
463440 On ch=8 n=65 v=38
463440 On ch=8 n=72 v=33
463680 Off ch=8 n=73 v=64
463680 Off ch=8 n=65 v=64
463680 On ch=8 n=75 v=32
463680 On ch=8 n=70 v=32
463900 Off ch=8 n=72 v=64
463920 Off ch=8 n=75 v=64
463920 Off ch=8 n=70 v=64
463920 On ch=8 n=73 v=38
463920 On ch=8 n=65 v=38
463920 On ch=8 n=72 v=33
464160 Off ch=8 n=73 v=64
464160 Off ch=8 n=65 v=64
464160 On ch=8 n=75 v=32
464160 On ch=8 n=70 v=32
464380 Off ch=8 n=72 v=64
464400 Off ch=8 n=75 v=64
464400 Off ch=8 n=70 v=64
464400 On ch=8 n=73 v=38
464400 On ch=8 n=65 v=38
464400 On ch=8 n=72 v=33
464632 Off ch=8 n=72 v=64
464640 Off ch=8 n=73 v=64
464640 Off ch=8 n=65 v=64
524160 Meta TrkEnd
TrkEnd
MTrk
0 Meta InstrName "SC-88VL"
0 Meta TrkName "Pizz"
480 Par ch=9 c=0 v=0
480 Par ch=9 c=32 v=1
480 PrCh ch=9 p=45
960 Par ch=9 c=93 v=0
960 Par ch=9 c=91 v=110
970 Par ch=9 c=7 v=100
25080 On ch=9 n=56 v=58
25200 Off ch=9 n=56 v=64
25200 On ch=9 n=63 v=58
25320 Off ch=9 n=63 v=64
25320 On ch=9 n=70 v=58
25440 Off ch=9 n=70 v=64
25440 On ch=9 n=75 v=58
25560 Off ch=9 n=75 v=64
26400 On ch=9 n=56 v=58
26880 Off ch=9 n=56 v=64
27480 On ch=9 n=56 v=58
27600 Off ch=9 n=56 v=64
27600 On ch=9 n=63 v=58
27720 Off ch=9 n=63 v=64
27720 On ch=9 n=70 v=58
27840 Off ch=9 n=70 v=64
27840 On ch=9 n=75 v=58
27960 Off ch=9 n=75 v=64
28320 On ch=9 n=56 v=58
28800 Off ch=9 n=56 v=64
28920 On ch=9 n=56 v=58
29040 Off ch=9 n=56 v=64
29040 On ch=9 n=63 v=58
29160 Off ch=9 n=63 v=64
29160 On ch=9 n=70 v=58
29280 Off ch=9 n=70 v=64
29280 On ch=9 n=75 v=58
29400 Off ch=9 n=75 v=64
29760 On ch=9 n=56 v=58
30240 Off ch=9 n=56 v=64
30240 On ch=9 n=56 v=58
30720 Off ch=9 n=56 v=64
44320 On ch=9 n=48 v=42
44480 Off ch=9 n=48 v=64
44640 On ch=9 n=48 v=42
44800 Off ch=9 n=48 v=64
44960 On ch=9 n=48 v=42
45120 Off ch=9 n=48 v=64
45280 On ch=9 n=48 v=42
45440 Off ch=9 n=48 v=64
45600 On ch=9 n=48 v=42
45760 Off ch=9 n=48 v=64
45920 On ch=9 n=48 v=42
46080 Off ch=9 n=48 v=64
46240 On ch=9 n=48 v=42
46400 Off ch=9 n=48 v=64
46560 On ch=9 n=48 v=42
46720 Off ch=9 n=48 v=64
46880 On ch=9 n=48 v=42
47040 Off ch=9 n=48 v=64
48160 On ch=9 n=48 v=42
48320 Off ch=9 n=48 v=64
48480 On ch=9 n=48 v=42
48640 Off ch=9 n=48 v=64
48800 On ch=9 n=48 v=42
48960 Off ch=9 n=48 v=64
63040 On ch=9 n=35 v=56
63200 Off ch=9 n=35 v=64
63360 On ch=9 n=35 v=56
63520 Off ch=9 n=35 v=64
63680 On ch=9 n=35 v=56
63840 Off ch=9 n=35 v=64
64000 On ch=9 n=35 v=56
64160 Off ch=9 n=35 v=64
64320 On ch=9 n=35 v=56
64480 Off ch=9 n=35 v=64
64640 On ch=9 n=35 v=56
64800 Off ch=9 n=35 v=64
64960 On ch=9 n=35 v=56
65120 Off ch=9 n=35 v=64
65280 On ch=9 n=35 v=56
65440 Off ch=9 n=35 v=64
65600 On ch=9 n=35 v=56
65760 Off ch=9 n=35 v=64
65920 On ch=9 n=35 v=56
66080 Off ch=9 n=35 v=64
66240 On ch=9 n=35 v=56
66400 Off ch=9 n=35 v=64
66560 On ch=9 n=35 v=56
66720 Off ch=9 n=35 v=64
66880 On ch=9 n=35 v=56
67040 Off ch=9 n=35 v=64
67200 On ch=9 n=35 v=56
67360 Off ch=9 n=35 v=64
67520 On ch=9 n=35 v=56
67680 Off ch=9 n=35 v=64
67840 On ch=9 n=35 v=56
68000 Off ch=9 n=35 v=64
68160 On ch=9 n=35 v=56
68320 Off ch=9 n=35 v=64
68480 On ch=9 n=47 v=56
68480 On ch=9 n=35 v=56
68640 Off ch=9 n=47 v=64
68640 Off ch=9 n=35 v=64
68800 On ch=9 n=47 v=56
68800 On ch=9 n=35 v=56
68960 Off ch=9 n=47 v=64
68960 Off ch=9 n=35 v=64
69120 On ch=9 n=35 v=56
69120 On ch=9 n=47 v=56
69280 Off ch=9 n=35 v=64
69280 Off ch=9 n=47 v=64
69440 On ch=9 n=35 v=56
69440 On ch=9 n=47 v=56
69600 Off ch=9 n=35 v=64
69600 Off ch=9 n=47 v=64
69760 On ch=9 n=35 v=56
69760 On ch=9 n=47 v=56
69920 Off ch=9 n=35 v=64
69920 Off ch=9 n=47 v=64
70080 On ch=9 n=35 v=56
70080 On ch=9 n=47 v=56
70240 Off ch=9 n=35 v=64
70240 Off ch=9 n=47 v=64
70400 On ch=9 n=35 v=56
70400 On ch=9 n=47 v=56
70560 Off ch=9 n=35 v=64
70560 Off ch=9 n=47 v=64
70720 On ch=9 n=47 v=56
70720 On ch=9 n=35 v=56
70880 Off ch=9 n=47 v=64
70880 Off ch=9 n=35 v=64
71040 On ch=9 n=47 v=56
71040 On ch=9 n=35 v=56
71200 Off ch=9 n=47 v=64
71200 Off ch=9 n=35 v=64
71360 On ch=9 n=35 v=56
71360 On ch=9 n=47 v=56
71520 Off ch=9 n=35 v=64
71520 Off ch=9 n=47 v=64
71680 On ch=9 n=47 v=56
71680 On ch=9 n=35 v=56
71840 Off ch=9 n=47 v=64
71840 Off ch=9 n=35 v=64
72000 On ch=9 n=47 v=56
72000 On ch=9 n=35 v=56
72160 Off ch=9 n=47 v=64
72160 Off ch=9 n=35 v=64
72320 On ch=9 n=47 v=56
72320 On ch=9 n=35 v=56
72480 Off ch=9 n=47 v=64
72480 Off ch=9 n=35 v=64
72640 On ch=9 n=35 v=56
72640 On ch=9 n=47 v=56
72800 Off ch=9 n=35 v=64
72800 Off ch=9 n=47 v=64
72960 On ch=9 n=35 v=56
72960 On ch=9 n=47 v=56
73120 Off ch=9 n=35 v=64
73120 Off ch=9 n=47 v=64
73280 On ch=9 n=47 v=56
73280 On ch=9 n=35 v=56
73440 Off ch=9 n=47 v=64
73440 Off ch=9 n=35 v=64
78240 On ch=9 n=61 v=56
78360 Off ch=9 n=61 v=64
78360 On ch=9 n=58 v=56
78480 Off ch=9 n=58 v=64
78480 On ch=9 n=63 v=56
78600 Off ch=9 n=63 v=64
78600 On ch=9 n=58 v=56
78720 Off ch=9 n=58 v=64
78720 On ch=9 n=61 v=56
78840 Off ch=9 n=61 v=64
78840 On ch=9 n=58 v=56
78960 Off ch=9 n=58 v=64
78960 On ch=9 n=63 v=56
79080 Off ch=9 n=63 v=64
79080 On ch=9 n=58 v=56
79200 Off ch=9 n=58 v=64
79680 On ch=9 n=61 v=46
79800 Off ch=9 n=61 v=64
79800 On ch=9 n=58 v=46
79920 Off ch=9 n=58 v=64
79920 On ch=9 n=63 v=46
80040 Off ch=9 n=63 v=64
80040 On ch=9 n=58 v=46
80160 Off ch=9 n=58 v=64
84480 On ch=9 n=61 v=56
84600 Off ch=9 n=61 v=64
84600 On ch=9 n=58 v=56
84720 Off ch=9 n=58 v=64
84720 On ch=9 n=63 v=56
84840 Off ch=9 n=63 v=64
84840 On ch=9 n=58 v=56
84960 Off ch=9 n=58 v=64
84960 On ch=9 n=61 v=56
85080 Off ch=9 n=61 v=64
85080 On ch=9 n=58 v=56
85200 Off ch=9 n=58 v=64
85200 On ch=9 n=63 v=56
85320 Off ch=9 n=63 v=64
85320 On ch=9 n=58 v=56
85440 Off ch=9 n=58 v=64
85440 On ch=9 n=61 v=56
85560 Off ch=9 n=61 v=64
85560 On ch=9 n=58 v=56
85680 Off ch=9 n=58 v=64
85680 On ch=9 n=63 v=56
85800 Off ch=9 n=63 v=64
85800 On ch=9 n=58 v=56
85920 Off ch=9 n=58 v=64
85920 On ch=9 n=61 v=56
86040 Off ch=9 n=61 v=64
86040 On ch=9 n=58 v=56
86160 Off ch=9 n=58 v=64
86160 On ch=9 n=63 v=56
86280 Off ch=9 n=63 v=64
86280 On ch=9 n=58 v=56
86400 Off ch=9 n=58 v=64
86400 On ch=9 n=61 v=56
86520 Off ch=9 n=61 v=64
86520 On ch=9 n=58 v=56
86640 Off ch=9 n=58 v=64
86640 On ch=9 n=63 v=56
86760 Off ch=9 n=63 v=64
86760 On ch=9 n=58 v=56
86880 Off ch=9 n=58 v=64
94560 On ch=9 n=40 v=52
94800 Off ch=9 n=40 v=64
94800 On ch=9 n=44 v=49
95040 Off ch=9 n=44 v=64
95040 On ch=9 n=47 v=47
95280 Off ch=9 n=47 v=64
95280 On ch=9 n=52 v=44
95520 Off ch=9 n=52 v=64
95520 On ch=9 n=55 v=52
95760 Off ch=9 n=55 v=64
95760 On ch=9 n=52 v=50
96000 Off ch=9 n=52 v=64
96000 On ch=9 n=48 v=46
96240 Off ch=9 n=48 v=64
96240 On ch=9 n=43 v=42
96480 Off ch=9 n=43 v=64
96480 On ch=9 n=40 v=52
96720 Off ch=9 n=40 v=64
96720 On ch=9 n=44 v=49
96960 Off ch=9 n=44 v=64
96960 On ch=9 n=47 v=46
97200 Off ch=9 n=47 v=64
97200 On ch=9 n=52 v=44
97440 Off ch=9 n=52 v=64
97440 On ch=9 n=55 v=52
97680 Off ch=9 n=55 v=64
97680 On ch=9 n=52 v=49
97920 Off ch=9 n=52 v=64
97920 On ch=9 n=48 v=47
98160 Off ch=9 n=48 v=64
98160 On ch=9 n=43 v=45
98400 Off ch=9 n=43 v=64
102480 On ch=9 n=76 v=78
102480 On ch=9 n=83 v=78
102720 Off ch=9 n=76 v=64
102720 Off ch=9 n=83 v=64
102960 On ch=9 n=73 v=78
102960 On ch=9 n=80 v=78
103200 Off ch=9 n=73 v=64
103200 Off ch=9 n=80 v=64
106080 On ch=9 n=70 v=85
106240 Off ch=9 n=70 v=64
106240 On ch=9 n=69 v=82
106400 Off ch=9 n=69 v=64
106400 On ch=9 n=68 v=80
106560 Off ch=9 n=68 v=64
106560 On ch=9 n=67 v=79
106720 Off ch=9 n=67 v=64
106720 On ch=9 n=66 v=77
106880 Off ch=9 n=66 v=64
106880 On ch=9 n=65 v=76
107040 Off ch=9 n=65 v=64
107040 On ch=9 n=64 v=74
107200 Off ch=9 n=64 v=64
108000 On ch=9 n=39 v=68
108240 Off ch=9 n=39 v=64
108240 On ch=9 n=46 v=63
108480 Off ch=9 n=46 v=64
108480 On ch=9 n=53 v=53
108720 Off ch=9 n=53 v=64
108720 On ch=9 n=60 v=53
108960 Off ch=9 n=60 v=64
108960 On ch=9 n=53 v=53
109200 Off ch=9 n=53 v=64
109200 On ch=9 n=46 v=63
109440 Off ch=9 n=46 v=64
109440 On ch=9 n=39 v=68
109680 Off ch=9 n=39 v=64
109680 On ch=9 n=46 v=63
109920 Off ch=9 n=46 v=64
109920 On ch=9 n=53 v=53
110160 Off ch=9 n=53 v=64
110160 On ch=9 n=60 v=53
110400 Off ch=9 n=60 v=64
110400 On ch=9 n=53 v=53
110640 Off ch=9 n=53 v=64
110640 On ch=9 n=46 v=63
110880 Off ch=9 n=46 v=64
110880 On ch=9 n=39 v=68
111120 Off ch=9 n=39 v=64
111120 On ch=9 n=58 v=84
111120 On ch=9 n=46 v=89
111120 On ch=9 n=51 v=84
111120 On ch=9 n=65 v=89
111120 On ch=9 n=72 v=89
111120 On ch=9 n=86 v=89
111120 On ch=9 n=79 v=89
111360 Off ch=9 n=58 v=64
111360 Off ch=9 n=46 v=64
111360 Off ch=9 n=51 v=64
111360 Off ch=9 n=65 v=64
111360 Off ch=9 n=72 v=64
111360 Off ch=9 n=86 v=64
111360 Off ch=9 n=79 v=64
111360 On ch=9 n=53 v=53
111600 Off ch=9 n=53 v=64
111600 On ch=9 n=60 v=53
111840 Off ch=9 n=60 v=64
111840 On ch=9 n=53 v=53
111840 On ch=9 n=72 v=52
112080 Off ch=9 n=53 v=64
112080 Off ch=9 n=72 v=64
112080 On ch=9 n=46 v=63
112080 On ch=9 n=82 v=52
112320 Off ch=9 n=46 v=64
112320 Off ch=9 n=82 v=64
112320 On ch=9 n=39 v=68
112320 On ch=9 n=69 v=52
112560 Off ch=9 n=39 v=64
112560 Off ch=9 n=69 v=64
112560 On ch=9 n=46 v=63
112560 On ch=9 n=79 v=52
112800 Off ch=9 n=46 v=64
112800 Off ch=9 n=79 v=64
112800 On ch=9 n=53 v=53
112800 On ch=9 n=69 v=52
113040 Off ch=9 n=53 v=64
113040 Off ch=9 n=69 v=64
113040 On ch=9 n=60 v=53
113280 Off ch=9 n=60 v=64
113280 On ch=9 n=53 v=53
113520 Off ch=9 n=53 v=64
113520 On ch=9 n=46 v=63
113760 Off ch=9 n=46 v=64
113760 On ch=9 n=39 v=68
114000 Off ch=9 n=39 v=64
114000 On ch=9 n=46 v=89
114000 On ch=9 n=58 v=84
114000 On ch=9 n=51 v=84
114000 On ch=9 n=65 v=91
114000 On ch=9 n=72 v=91
114000 On ch=9 n=86 v=91
114000 On ch=9 n=79 v=91
114240 Off ch=9 n=46 v=64
114240 Off ch=9 n=58 v=64
114240 Off ch=9 n=51 v=64
114240 Off ch=9 n=65 v=64
114240 Off ch=9 n=72 v=64
114240 Off ch=9 n=86 v=64
114240 Off ch=9 n=79 v=64
114240 On ch=9 n=53 v=53
114480 Off ch=9 n=53 v=64
114480 On ch=9 n=60 v=53
114720 Off ch=9 n=60 v=64
114720 On ch=9 n=53 v=53
114960 Off ch=9 n=53 v=64
114960 On ch=9 n=46 v=63
114960 On ch=9 n=79 v=54
115200 Off ch=9 n=46 v=64
115200 Off ch=9 n=79 v=64
115200 On ch=9 n=39 v=68
115200 On ch=9 n=69 v=54
115440 Off ch=9 n=39 v=64
115440 Off ch=9 n=69 v=64
115440 On ch=9 n=46 v=63
115440 On ch=9 n=82 v=54
115680 Off ch=9 n=46 v=64
115680 Off ch=9 n=82 v=64
115680 On ch=9 n=53 v=53
115680 On ch=9 n=72 v=54
115920 Off ch=9 n=53 v=64
115920 Off ch=9 n=72 v=64
115920 On ch=9 n=60 v=53
115920 On ch=9 n=82 v=54
116160 Off ch=9 n=60 v=64
116160 Off ch=9 n=82 v=64
116160 On ch=9 n=53 v=53
116160 On ch=9 n=69 v=54
116400 Off ch=9 n=53 v=64
116400 Off ch=9 n=69 v=64
116400 On ch=9 n=46 v=63
116400 On ch=9 n=79 v=54
116640 Off ch=9 n=46 v=64
116640 Off ch=9 n=79 v=64
116640 On ch=9 n=39 v=68
116640 On ch=9 n=69 v=54
116880 Off ch=9 n=39 v=64
116880 Off ch=9 n=69 v=64
116880 On ch=9 n=46 v=63
116880 On ch=9 n=82 v=54
117120 Off ch=9 n=46 v=64
117120 Off ch=9 n=82 v=64
117120 On ch=9 n=53 v=53
117120 On ch=9 n=72 v=54
117360 Off ch=9 n=53 v=64
117360 Off ch=9 n=72 v=64
117360 On ch=9 n=60 v=53
117360 On ch=9 n=82 v=54
117600 Off ch=9 n=60 v=64
117600 Off ch=9 n=82 v=64
117600 On ch=9 n=53 v=53
117600 On ch=9 n=69 v=54
117840 Off ch=9 n=53 v=64
117840 Off ch=9 n=69 v=64
117840 On ch=9 n=46 v=63
117840 On ch=9 n=79 v=54
118080 Off ch=9 n=46 v=64
118080 Off ch=9 n=79 v=64
118080 On ch=9 n=39 v=68
118080 On ch=9 n=69 v=62
118240 Off ch=9 n=69 v=64
118240 On ch=9 n=47 v=62
118240 On ch=9 n=52 v=62
118240 On ch=9 n=67 v=66
118240 On ch=9 n=57 v=66
118240 On ch=9 n=62 v=66
118240 On ch=9 n=72 v=66
118320 Off ch=9 n=39 v=64
118320 On ch=9 n=46 v=63
118400 Off ch=9 n=47 v=64
118400 Off ch=9 n=52 v=64
118400 Off ch=9 n=67 v=64
118400 Off ch=9 n=57 v=64
118400 Off ch=9 n=62 v=64
118400 Off ch=9 n=72 v=64
118400 On ch=9 n=52 v=64
118400 On ch=9 n=77 v=71
118400 On ch=9 n=67 v=71
118400 On ch=9 n=57 v=71
118400 On ch=9 n=72 v=71
118400 On ch=9 n=62 v=71
118560 Off ch=9 n=46 v=64
118560 Off ch=9 n=52 v=64
118560 Off ch=9 n=77 v=64
118560 Off ch=9 n=67 v=64
118560 Off ch=9 n=57 v=64
118560 Off ch=9 n=72 v=64
118560 Off ch=9 n=62 v=64
118560 On ch=9 n=53 v=53
118800 Off ch=9 n=53 v=64
118800 On ch=9 n=60 v=60
118800 On ch=9 n=57 v=60
118800 On ch=9 n=82 v=82
118800 On ch=9 n=72 v=82
118800 On ch=9 n=67 v=82
118800 On ch=9 n=62 v=82
118800 On ch=9 n=77 v=82
119040 Off ch=9 n=60 v=64
119040 Off ch=9 n=57 v=64
119040 Off ch=9 n=82 v=64
119040 Off ch=9 n=72 v=64
119040 Off ch=9 n=67 v=64
119040 Off ch=9 n=62 v=64
119040 Off ch=9 n=77 v=64
119040 On ch=9 n=53 v=53
119280 Off ch=9 n=53 v=64
119280 On ch=9 n=46 v=63
119360 On ch=9 n=82 v=99
119360 On ch=9 n=87 v=99
119360 On ch=9 n=67 v=99
119360 On ch=9 n=72 v=99
119360 On ch=9 n=62 v=99
119360 On ch=9 n=77 v=99
119520 Off ch=9 n=46 v=64
119520 Off ch=9 n=82 v=64
119520 Off ch=9 n=87 v=64
119520 Off ch=9 n=67 v=64
119520 Off ch=9 n=72 v=64
119520 Off ch=9 n=62 v=64
119520 Off ch=9 n=77 v=64
153360 On ch=9 n=55 v=78
153360 On ch=9 n=60 v=78
153360 On ch=9 n=36 v=78
153360 On ch=9 n=48 v=78
153360 On ch=9 n=73 v=78
153360 On ch=9 n=70 v=78
153360 On ch=9 n=75 v=78
153360 On ch=9 n=78 v=78
153360 On ch=9 n=82 v=78
153600 Off ch=9 n=55 v=64
153600 Off ch=9 n=60 v=64
153600 Off ch=9 n=36 v=64
153600 Off ch=9 n=48 v=64
153600 Off ch=9 n=73 v=64
153600 Off ch=9 n=70 v=64
153600 Off ch=9 n=75 v=64
153600 Off ch=9 n=78 v=64
153600 Off ch=9 n=82 v=64
156000 On ch=9 n=61 v=52
156060 Off ch=9 n=61 v=64
156240 On ch=9 n=58 v=52
156300 Off ch=9 n=58 v=64
156480 On ch=9 n=75 v=44
156540 Off ch=9 n=75 v=64
156720 On ch=9 n=70 v=44
156780 Off ch=9 n=70 v=64
162720 On ch=9 n=61 v=60
162840 Off ch=9 n=61 v=64
162960 On ch=9 n=58 v=60
163080 Off ch=9 n=58 v=64
163200 On ch=9 n=63 v=60
163320 Off ch=9 n=63 v=64
163440 On ch=9 n=58 v=60
163560 Off ch=9 n=58 v=64
164640 On ch=9 n=61 v=60
164760 Off ch=9 n=61 v=64
164880 On ch=9 n=58 v=60
165000 Off ch=9 n=58 v=64
165120 On ch=9 n=63 v=60
165240 Off ch=9 n=63 v=64
165360 On ch=9 n=58 v=60
165480 Off ch=9 n=58 v=64
165600 On ch=9 n=60 v=32
165840 Off ch=9 n=60 v=64
165840 On ch=9 n=60 v=32
166080 Off ch=9 n=60 v=64
166080 On ch=9 n=60 v=32
166320 Off ch=9 n=60 v=64
166320 On ch=9 n=60 v=32
166560 Off ch=9 n=60 v=64
166560 On ch=9 n=60 v=32
166800 Off ch=9 n=60 v=64
166800 On ch=9 n=60 v=32
167040 Off ch=9 n=60 v=64
167040 On ch=9 n=60 v=32
167280 Off ch=9 n=60 v=64
167280 On ch=9 n=60 v=32
167520 Off ch=9 n=60 v=64
167520 On ch=9 n=60 v=32
167520 On ch=9 n=65 v=32
167760 Off ch=9 n=60 v=64
167760 Off ch=9 n=65 v=64
167760 On ch=9 n=65 v=32
167760 On ch=9 n=60 v=32
168000 Off ch=9 n=65 v=64
168000 Off ch=9 n=60 v=64
168000 On ch=9 n=60 v=32
168000 On ch=9 n=65 v=32
168240 Off ch=9 n=60 v=64
168240 Off ch=9 n=65 v=64
168240 On ch=9 n=65 v=32
168240 On ch=9 n=60 v=32
168480 Off ch=9 n=65 v=64
168480 Off ch=9 n=60 v=64
168480 On ch=9 n=67 v=32
168480 On ch=9 n=65 v=32
168480 On ch=9 n=60 v=32
168720 Off ch=9 n=67 v=64
168720 Off ch=9 n=65 v=64
168720 Off ch=9 n=60 v=64
168720 On ch=9 n=69 v=32
168720 On ch=9 n=65 v=32
168720 On ch=9 n=60 v=32
168960 Off ch=9 n=69 v=64
168960 Off ch=9 n=65 v=64
168960 Off ch=9 n=60 v=64
168960 On ch=9 n=67 v=32
168960 On ch=9 n=65 v=32
168960 On ch=9 n=60 v=32
169200 Off ch=9 n=67 v=64
169200 Off ch=9 n=65 v=64
169200 Off ch=9 n=60 v=64
169200 On ch=9 n=69 v=32
169200 On ch=9 n=60 v=32
169200 On ch=9 n=65 v=32
169440 Off ch=9 n=69 v=64
169440 Off ch=9 n=60 v=64
169440 Off ch=9 n=65 v=64
169440 On ch=9 n=67 v=30
169440 On ch=9 n=65 v=30
169440 On ch=9 n=60 v=30
169680 Off ch=9 n=67 v=64
169680 Off ch=9 n=65 v=64
169680 Off ch=9 n=60 v=64
169680 On ch=9 n=69 v=30
169680 On ch=9 n=60 v=30
169680 On ch=9 n=65 v=30
169920 Off ch=9 n=69 v=64
169920 Off ch=9 n=60 v=64
169920 Off ch=9 n=65 v=64
169920 On ch=9 n=67 v=30
169920 On ch=9 n=60 v=30
169920 On ch=9 n=65 v=30
170160 Off ch=9 n=67 v=64
170160 Off ch=9 n=60 v=64
170160 Off ch=9 n=65 v=64
170160 On ch=9 n=69 v=30
170160 On ch=9 n=60 v=30
170160 On ch=9 n=65 v=30
170400 Off ch=9 n=69 v=64
170400 Off ch=9 n=60 v=64
170400 Off ch=9 n=65 v=64
170400 On ch=9 n=67 v=30
170400 On ch=9 n=60 v=30
170400 On ch=9 n=65 v=30
170640 Off ch=9 n=67 v=64
170640 Off ch=9 n=60 v=64
170640 Off ch=9 n=65 v=64
170640 On ch=9 n=69 v=30
170640 On ch=9 n=65 v=30
170640 On ch=9 n=60 v=30
170880 Off ch=9 n=69 v=64
170880 Off ch=9 n=65 v=64
170880 Off ch=9 n=60 v=64
170880 On ch=9 n=60 v=30
170880 On ch=9 n=67 v=30
170880 On ch=9 n=65 v=30
171120 Off ch=9 n=60 v=64
171120 Off ch=9 n=67 v=64
171120 Off ch=9 n=65 v=64
171120 On ch=9 n=69 v=30
171120 On ch=9 n=65 v=30
171120 On ch=9 n=60 v=30
171360 Off ch=9 n=69 v=64
171360 Off ch=9 n=65 v=64
171360 Off ch=9 n=60 v=64
171360 On ch=9 n=67 v=30
171360 On ch=9 n=65 v=30
171360 On ch=9 n=60 v=30
171600 Off ch=9 n=67 v=64
171600 Off ch=9 n=65 v=64
171600 Off ch=9 n=60 v=64
171600 On ch=9 n=69 v=30
171600 On ch=9 n=60 v=30
171600 On ch=9 n=65 v=30
171840 Off ch=9 n=69 v=64
171840 Off ch=9 n=60 v=64
171840 Off ch=9 n=65 v=64
171840 On ch=9 n=67 v=30
171840 On ch=9 n=60 v=30
171840 On ch=9 n=65 v=30
172080 Off ch=9 n=67 v=64
172080 Off ch=9 n=60 v=64
172080 Off ch=9 n=65 v=64
172080 On ch=9 n=69 v=30
172080 On ch=9 n=60 v=30
172080 On ch=9 n=65 v=30
172320 Off ch=9 n=69 v=64
172320 Off ch=9 n=60 v=64
172320 Off ch=9 n=65 v=64
172320 On ch=9 n=67 v=30
172320 On ch=9 n=60 v=30
172320 On ch=9 n=65 v=30
172560 Off ch=9 n=67 v=64
172560 Off ch=9 n=60 v=64
172560 Off ch=9 n=65 v=64
172560 On ch=9 n=69 v=30
172560 On ch=9 n=65 v=30
172560 On ch=9 n=60 v=30
172800 Off ch=9 n=69 v=64
172800 Off ch=9 n=65 v=64
172800 Off ch=9 n=60 v=64
172800 On ch=9 n=60 v=30
172800 On ch=9 n=67 v=30
172800 On ch=9 n=65 v=30
173040 Off ch=9 n=60 v=64
173040 Off ch=9 n=67 v=64
173040 Off ch=9 n=65 v=64
173040 On ch=9 n=69 v=30
173040 On ch=9 n=65 v=30
173040 On ch=9 n=60 v=30
173280 Off ch=9 n=69 v=64
173280 Off ch=9 n=65 v=64
173280 Off ch=9 n=60 v=64
173280 On ch=9 n=67 v=30
173280 On ch=9 n=65 v=30
173280 On ch=9 n=60 v=30
173520 Off ch=9 n=67 v=64
173520 Off ch=9 n=65 v=64
173520 Off ch=9 n=60 v=64
173520 On ch=9 n=69 v=30
173520 On ch=9 n=60 v=30
173520 On ch=9 n=65 v=30
173760 Off ch=9 n=69 v=64
173760 Off ch=9 n=60 v=64
173760 Off ch=9 n=65 v=64
173760 On ch=9 n=67 v=30
173760 On ch=9 n=60 v=30
173760 On ch=9 n=65 v=30
174000 Off ch=9 n=67 v=64
174000 Off ch=9 n=60 v=64
174000 Off ch=9 n=65 v=64
174000 On ch=9 n=69 v=30
174000 On ch=9 n=60 v=30
174000 On ch=9 n=65 v=30
174240 Off ch=9 n=69 v=64
174240 Off ch=9 n=60 v=64
174240 Off ch=9 n=65 v=64
174240 On ch=9 n=67 v=30
174240 On ch=9 n=60 v=30
174240 On ch=9 n=65 v=30
174480 Off ch=9 n=67 v=64
174480 Off ch=9 n=60 v=64
174480 Off ch=9 n=65 v=64
174480 On ch=9 n=69 v=30
174480 On ch=9 n=65 v=30
174480 On ch=9 n=60 v=30
174720 Off ch=9 n=69 v=64
174720 Off ch=9 n=65 v=64
174720 Off ch=9 n=60 v=64
174720 On ch=9 n=60 v=30
174720 On ch=9 n=67 v=30
174720 On ch=9 n=65 v=30
174960 Off ch=9 n=60 v=64
174960 Off ch=9 n=67 v=64
174960 Off ch=9 n=65 v=64
174960 On ch=9 n=69 v=30
174960 On ch=9 n=65 v=30
174960 On ch=9 n=60 v=30
175200 Off ch=9 n=69 v=64
175200 Off ch=9 n=65 v=64
175200 Off ch=9 n=60 v=64
175200 On ch=9 n=67 v=30
175200 On ch=9 n=65 v=30
175200 On ch=9 n=60 v=30
175440 Off ch=9 n=67 v=64
175440 Off ch=9 n=65 v=64
175440 Off ch=9 n=60 v=64
175440 On ch=9 n=69 v=30
175440 On ch=9 n=60 v=30
175440 On ch=9 n=65 v=30
175680 Off ch=9 n=69 v=64
175680 Off ch=9 n=60 v=64
175680 Off ch=9 n=65 v=64
175680 On ch=9 n=67 v=30
175680 On ch=9 n=60 v=30
175680 On ch=9 n=65 v=30
175920 Off ch=9 n=67 v=64
175920 Off ch=9 n=60 v=64
175920 Off ch=9 n=65 v=64
175920 On ch=9 n=69 v=30
175920 On ch=9 n=60 v=30
175920 On ch=9 n=65 v=30
176160 Off ch=9 n=69 v=64
176160 Off ch=9 n=60 v=64
176160 Off ch=9 n=65 v=64
176160 On ch=9 n=67 v=30
176160 On ch=9 n=60 v=30
176160 On ch=9 n=65 v=30
176400 Off ch=9 n=67 v=64
176400 Off ch=9 n=60 v=64
176400 Off ch=9 n=65 v=64
176400 On ch=9 n=69 v=30
176400 On ch=9 n=65 v=30
176400 On ch=9 n=60 v=30
176640 Off ch=9 n=69 v=64
176640 Off ch=9 n=65 v=64
176640 Off ch=9 n=60 v=64
176640 On ch=9 n=60 v=30
176640 On ch=9 n=67 v=30
176640 On ch=9 n=65 v=30
176880 Off ch=9 n=60 v=64
176880 Off ch=9 n=67 v=64
176880 Off ch=9 n=65 v=64
176880 On ch=9 n=69 v=30
176880 On ch=9 n=65 v=30
176880 On ch=9 n=60 v=30
177120 Off ch=9 n=69 v=64
177120 Off ch=9 n=65 v=64
177120 Off ch=9 n=60 v=64
177120 On ch=9 n=67 v=30
177120 On ch=9 n=65 v=30
177120 On ch=9 n=60 v=30
177360 Off ch=9 n=67 v=64
177360 Off ch=9 n=65 v=64
177360 Off ch=9 n=60 v=64
177360 On ch=9 n=69 v=30
177360 On ch=9 n=60 v=30
177360 On ch=9 n=65 v=30
177600 Off ch=9 n=69 v=64
177600 Off ch=9 n=60 v=64
177600 Off ch=9 n=65 v=64
177600 On ch=9 n=67 v=30
177600 On ch=9 n=60 v=30
177600 On ch=9 n=65 v=30
177840 Off ch=9 n=67 v=64
177840 Off ch=9 n=60 v=64
177840 Off ch=9 n=65 v=64
177840 On ch=9 n=69 v=30
177840 On ch=9 n=60 v=30
177840 On ch=9 n=65 v=30
178080 Off ch=9 n=69 v=64
178080 Off ch=9 n=60 v=64
178080 Off ch=9 n=65 v=64
178080 On ch=9 n=67 v=30
178080 On ch=9 n=60 v=30
178080 On ch=9 n=65 v=30
178320 Off ch=9 n=67 v=64
178320 Off ch=9 n=60 v=64
178320 Off ch=9 n=65 v=64
178320 On ch=9 n=69 v=30
178320 On ch=9 n=65 v=30
178320 On ch=9 n=60 v=30
178560 Off ch=9 n=69 v=64
178560 Off ch=9 n=65 v=64
178560 Off ch=9 n=60 v=64
178560 On ch=9 n=60 v=30
178560 On ch=9 n=67 v=30
178560 On ch=9 n=65 v=30
178800 Off ch=9 n=60 v=64
178800 Off ch=9 n=67 v=64
178800 Off ch=9 n=65 v=64
178800 On ch=9 n=69 v=30
178800 On ch=9 n=65 v=30
178800 On ch=9 n=60 v=30
179040 Off ch=9 n=69 v=64
179040 Off ch=9 n=65 v=64
179040 Off ch=9 n=60 v=64
179040 On ch=9 n=67 v=30
179040 On ch=9 n=65 v=30
179040 On ch=9 n=60 v=30
179280 Off ch=9 n=67 v=64
179280 Off ch=9 n=65 v=64
179280 Off ch=9 n=60 v=64
179280 On ch=9 n=69 v=30
179280 On ch=9 n=60 v=30
179280 On ch=9 n=65 v=30
179520 Off ch=9 n=69 v=64
179520 Off ch=9 n=60 v=64
179520 Off ch=9 n=65 v=64
179520 On ch=9 n=67 v=30
179520 On ch=9 n=60 v=30
179520 On ch=9 n=65 v=30
179760 Off ch=9 n=67 v=64
179760 Off ch=9 n=60 v=64
179760 Off ch=9 n=65 v=64
179760 On ch=9 n=69 v=30
179760 On ch=9 n=60 v=30
179760 On ch=9 n=65 v=30
180000 Off ch=9 n=69 v=64
180000 Off ch=9 n=60 v=64
180000 Off ch=9 n=65 v=64
180000 On ch=9 n=67 v=30
180000 On ch=9 n=60 v=30
180000 On ch=9 n=65 v=30
180240 Off ch=9 n=67 v=64
180240 Off ch=9 n=60 v=64
180240 Off ch=9 n=65 v=64
180240 On ch=9 n=69 v=30
180240 On ch=9 n=65 v=30
180240 On ch=9 n=60 v=30
180480 Off ch=9 n=69 v=64
180480 Off ch=9 n=65 v=64
180480 Off ch=9 n=60 v=64
180480 On ch=9 n=60 v=30
180480 On ch=9 n=67 v=30
180480 On ch=9 n=65 v=30
180720 Off ch=9 n=60 v=64
180720 Off ch=9 n=67 v=64
180720 Off ch=9 n=65 v=64
180720 On ch=9 n=69 v=30
180720 On ch=9 n=65 v=30
180720 On ch=9 n=60 v=30
180960 Off ch=9 n=69 v=64
180960 Off ch=9 n=65 v=64
180960 Off ch=9 n=60 v=64
180960 On ch=9 n=67 v=30
180960 On ch=9 n=65 v=30
180960 On ch=9 n=60 v=30
181200 Off ch=9 n=67 v=64
181200 Off ch=9 n=65 v=64
181200 Off ch=9 n=60 v=64
181200 On ch=9 n=69 v=30
181200 On ch=9 n=60 v=30
181200 On ch=9 n=65 v=30
181440 Off ch=9 n=69 v=64
181440 Off ch=9 n=60 v=64
181440 Off ch=9 n=65 v=64
181440 On ch=9 n=67 v=30
181440 On ch=9 n=60 v=30
181440 On ch=9 n=65 v=30
181680 Off ch=9 n=67 v=64
181680 Off ch=9 n=60 v=64
181680 Off ch=9 n=65 v=64
181680 On ch=9 n=69 v=30
181680 On ch=9 n=60 v=30
181680 On ch=9 n=65 v=30
181920 Off ch=9 n=69 v=64
181920 Off ch=9 n=60 v=64
181920 Off ch=9 n=65 v=64
181920 On ch=9 n=67 v=30
181920 On ch=9 n=60 v=30
181920 On ch=9 n=65 v=30
182160 Off ch=9 n=67 v=64
182160 Off ch=9 n=60 v=64
182160 Off ch=9 n=65 v=64
182160 On ch=9 n=69 v=30
182160 On ch=9 n=65 v=30
182160 On ch=9 n=60 v=30
182400 Off ch=9 n=69 v=64
182400 Off ch=9 n=65 v=64
182400 Off ch=9 n=60 v=64
182400 On ch=9 n=60 v=30
182400 On ch=9 n=67 v=30
182400 On ch=9 n=65 v=30
182640 Off ch=9 n=60 v=64
182640 Off ch=9 n=67 v=64
182640 Off ch=9 n=65 v=64
182640 On ch=9 n=69 v=30
182640 On ch=9 n=65 v=30
182640 On ch=9 n=60 v=30
182880 Off ch=9 n=69 v=64
182880 Off ch=9 n=65 v=64
182880 Off ch=9 n=60 v=64
182880 On ch=9 n=67 v=30
182880 On ch=9 n=65 v=30
182880 On ch=9 n=60 v=30
183120 Off ch=9 n=67 v=64
183120 Off ch=9 n=65 v=64
183120 Off ch=9 n=60 v=64
183120 On ch=9 n=69 v=30
183120 On ch=9 n=60 v=30
183120 On ch=9 n=65 v=30
183360 Off ch=9 n=69 v=64
183360 Off ch=9 n=60 v=64
183360 Off ch=9 n=65 v=64
183360 On ch=9 n=67 v=30
183360 On ch=9 n=60 v=30
183360 On ch=9 n=65 v=30
183600 Off ch=9 n=67 v=64
183600 Off ch=9 n=60 v=64
183600 Off ch=9 n=65 v=64
183600 On ch=9 n=69 v=30
183600 On ch=9 n=60 v=30
183600 On ch=9 n=65 v=30
183840 Off ch=9 n=69 v=64
183840 Off ch=9 n=60 v=64
183840 Off ch=9 n=65 v=64
183840 On ch=9 n=67 v=30
183840 On ch=9 n=60 v=30
183840 On ch=9 n=65 v=30
184080 Off ch=9 n=67 v=64
184080 Off ch=9 n=60 v=64
184080 Off ch=9 n=65 v=64
184080 On ch=9 n=69 v=30
184080 On ch=9 n=65 v=30
184080 On ch=9 n=60 v=30
184320 Off ch=9 n=69 v=64
184320 Off ch=9 n=65 v=64
184320 Off ch=9 n=60 v=64
184320 On ch=9 n=60 v=30
184320 On ch=9 n=67 v=30
184320 On ch=9 n=65 v=30
184560 Off ch=9 n=60 v=64
184560 Off ch=9 n=67 v=64
184560 Off ch=9 n=65 v=64
184560 On ch=9 n=69 v=30
184560 On ch=9 n=65 v=30
184560 On ch=9 n=60 v=30
184800 Off ch=9 n=69 v=64
184800 Off ch=9 n=65 v=64
184800 Off ch=9 n=60 v=64
184800 On ch=9 n=67 v=30
184800 On ch=9 n=65 v=30
184800 On ch=9 n=60 v=30
185040 Off ch=9 n=67 v=64
185040 Off ch=9 n=65 v=64
185040 Off ch=9 n=60 v=64
185040 On ch=9 n=69 v=30
185040 On ch=9 n=60 v=30
185040 On ch=9 n=65 v=30
185280 Off ch=9 n=69 v=64
185280 Off ch=9 n=60 v=64
185280 Off ch=9 n=65 v=64
185280 On ch=9 n=67 v=30
185280 On ch=9 n=60 v=30
185280 On ch=9 n=65 v=30
185520 Off ch=9 n=67 v=64
185520 Off ch=9 n=60 v=64
185520 Off ch=9 n=65 v=64
185520 On ch=9 n=69 v=30
185520 On ch=9 n=60 v=30
185520 On ch=9 n=65 v=30
185760 Off ch=9 n=69 v=64
185760 Off ch=9 n=60 v=64
185760 Off ch=9 n=65 v=64
185760 On ch=9 n=67 v=30
185760 On ch=9 n=60 v=30
185760 On ch=9 n=65 v=30
186000 Off ch=9 n=67 v=64
186000 Off ch=9 n=60 v=64
186000 Off ch=9 n=65 v=64
186000 On ch=9 n=69 v=30
186000 On ch=9 n=65 v=30
186000 On ch=9 n=60 v=30
186240 Off ch=9 n=69 v=64
186240 Off ch=9 n=65 v=64
186240 Off ch=9 n=60 v=64
186240 On ch=9 n=60 v=30
186240 On ch=9 n=67 v=30
186240 On ch=9 n=65 v=30
186480 Off ch=9 n=60 v=64
186480 Off ch=9 n=67 v=64
186480 Off ch=9 n=65 v=64
186480 On ch=9 n=69 v=30
186480 On ch=9 n=65 v=30
186480 On ch=9 n=60 v=30
186720 Off ch=9 n=69 v=64
186720 Off ch=9 n=65 v=64
186720 Off ch=9 n=60 v=64
186720 On ch=9 n=70 v=30
186720 On ch=9 n=65 v=30
186720 On ch=9 n=60 v=30
186960 Off ch=9 n=70 v=64
186960 Off ch=9 n=65 v=64
186960 Off ch=9 n=60 v=64
186960 On ch=9 n=72 v=30
186960 On ch=9 n=60 v=30
186960 On ch=9 n=65 v=30
186960 On ch=9 n=67 v=30
187200 Off ch=9 n=72 v=64
187200 Off ch=9 n=60 v=64
187200 Off ch=9 n=65 v=64
187200 Off ch=9 n=67 v=64
187200 On ch=9 n=70 v=30
187200 On ch=9 n=60 v=30
187200 On ch=9 n=65 v=30
187440 Off ch=9 n=70 v=64
187440 Off ch=9 n=60 v=64
187440 Off ch=9 n=65 v=64
187440 On ch=9 n=72 v=30
187440 On ch=9 n=60 v=30
187440 On ch=9 n=65 v=30
187440 On ch=9 n=67 v=30
187680 Off ch=9 n=72 v=64
187680 Off ch=9 n=60 v=64
187680 Off ch=9 n=65 v=64
187680 Off ch=9 n=67 v=64
187680 On ch=9 n=70 v=30
187680 On ch=9 n=60 v=30
187680 On ch=9 n=65 v=30
187920 Off ch=9 n=70 v=64
187920 Off ch=9 n=60 v=64
187920 Off ch=9 n=65 v=64
187920 On ch=9 n=72 v=30
187920 On ch=9 n=65 v=30
187920 On ch=9 n=67 v=30
187920 On ch=9 n=60 v=30
188160 Off ch=9 n=72 v=64
188160 Off ch=9 n=65 v=64
188160 Off ch=9 n=67 v=64
188160 Off ch=9 n=60 v=64
188160 On ch=9 n=60 v=30
188160 On ch=9 n=70 v=30
188160 On ch=9 n=65 v=30
188400 Off ch=9 n=60 v=64
188400 Off ch=9 n=70 v=64
188400 Off ch=9 n=65 v=64
188400 On ch=9 n=72 v=30
188400 On ch=9 n=65 v=30
188400 On ch=9 n=67 v=30
188400 On ch=9 n=60 v=30
188640 Off ch=9 n=72 v=64
188640 Off ch=9 n=65 v=64
188640 Off ch=9 n=67 v=64
188640 Off ch=9 n=60 v=64
188640 On ch=9 n=70 v=30
188640 On ch=9 n=65 v=30
188640 On ch=9 n=60 v=30
188880 Off ch=9 n=70 v=64
188880 Off ch=9 n=65 v=64
188880 Off ch=9 n=60 v=64
188880 On ch=9 n=72 v=30
188880 On ch=9 n=60 v=30
188880 On ch=9 n=65 v=30
188880 On ch=9 n=67 v=30
189120 Off ch=9 n=72 v=64
189120 Off ch=9 n=60 v=64
189120 Off ch=9 n=65 v=64
189120 Off ch=9 n=67 v=64
189120 On ch=9 n=70 v=30
189120 On ch=9 n=60 v=30
189120 On ch=9 n=65 v=30
189360 Off ch=9 n=70 v=64
189360 Off ch=9 n=60 v=64
189360 Off ch=9 n=65 v=64
189360 On ch=9 n=72 v=30
189360 On ch=9 n=60 v=30
189360 On ch=9 n=65 v=30
189360 On ch=9 n=67 v=30
189600 Off ch=9 n=72 v=64
189600 Off ch=9 n=60 v=64
189600 Off ch=9 n=65 v=64
189600 Off ch=9 n=67 v=64
189600 On ch=9 n=70 v=30
189600 On ch=9 n=60 v=30
189600 On ch=9 n=65 v=30
189840 Off ch=9 n=70 v=64
189840 Off ch=9 n=60 v=64
189840 Off ch=9 n=65 v=64
189840 On ch=9 n=72 v=30
189840 On ch=9 n=65 v=30
189840 On ch=9 n=67 v=30
189840 On ch=9 n=60 v=30
190080 Off ch=9 n=72 v=64
190080 Off ch=9 n=65 v=64
190080 Off ch=9 n=67 v=64
190080 Off ch=9 n=60 v=64
190080 On ch=9 n=60 v=30
190080 On ch=9 n=70 v=30
190080 On ch=9 n=65 v=30
190320 Off ch=9 n=60 v=64
190320 Off ch=9 n=70 v=64
190320 Off ch=9 n=65 v=64
190320 On ch=9 n=72 v=30
190320 On ch=9 n=65 v=30
190320 On ch=9 n=67 v=30
190320 On ch=9 n=60 v=30
190560 Off ch=9 n=72 v=64
190560 Off ch=9 n=65 v=64
190560 Off ch=9 n=67 v=64
190560 Off ch=9 n=60 v=64
190560 On ch=9 n=70 v=30
190560 On ch=9 n=65 v=30
190560 On ch=9 n=60 v=30
190800 Off ch=9 n=70 v=64
190800 Off ch=9 n=65 v=64
190800 Off ch=9 n=60 v=64
190800 On ch=9 n=72 v=30
190800 On ch=9 n=60 v=30
190800 On ch=9 n=65 v=30
190800 On ch=9 n=67 v=30
191040 Off ch=9 n=72 v=64
191040 Off ch=9 n=60 v=64
191040 Off ch=9 n=65 v=64
191040 Off ch=9 n=67 v=64
191040 On ch=9 n=70 v=30
191040 On ch=9 n=60 v=30
191040 On ch=9 n=65 v=30
191280 Off ch=9 n=70 v=64
191280 Off ch=9 n=60 v=64
191280 Off ch=9 n=65 v=64
191280 On ch=9 n=72 v=30
191280 On ch=9 n=60 v=30
191280 On ch=9 n=65 v=30
191280 On ch=9 n=67 v=30
191520 Off ch=9 n=72 v=64
191520 Off ch=9 n=60 v=64
191520 Off ch=9 n=65 v=64
191520 Off ch=9 n=67 v=64
191520 On ch=9 n=70 v=30
191520 On ch=9 n=60 v=30
191520 On ch=9 n=65 v=30
191760 Off ch=9 n=70 v=64
191760 Off ch=9 n=60 v=64
191760 Off ch=9 n=65 v=64
191760 On ch=9 n=72 v=30
191760 On ch=9 n=65 v=30
191760 On ch=9 n=67 v=30
191760 On ch=9 n=60 v=30
192000 Off ch=9 n=72 v=64
192000 Off ch=9 n=65 v=64
192000 Off ch=9 n=67 v=64
192000 Off ch=9 n=60 v=64
192000 On ch=9 n=60 v=30
192000 On ch=9 n=70 v=30
192000 On ch=9 n=65 v=30
192240 Off ch=9 n=60 v=64
192240 Off ch=9 n=70 v=64
192240 Off ch=9 n=65 v=64
192240 On ch=9 n=72 v=30
192240 On ch=9 n=65 v=30
192240 On ch=9 n=67 v=30
192240 On ch=9 n=60 v=30
192480 Off ch=9 n=72 v=64
192480 Off ch=9 n=65 v=64
192480 Off ch=9 n=67 v=64
192480 Off ch=9 n=60 v=64
192480 On ch=9 n=70 v=30
192480 On ch=9 n=65 v=30
192480 On ch=9 n=60 v=30
192720 Off ch=9 n=70 v=64
192720 Off ch=9 n=65 v=64
192720 Off ch=9 n=60 v=64
192720 On ch=9 n=72 v=30
192720 On ch=9 n=60 v=30
192720 On ch=9 n=65 v=30
192720 On ch=9 n=67 v=30
192960 Off ch=9 n=72 v=64
192960 Off ch=9 n=60 v=64
192960 Off ch=9 n=65 v=64
192960 Off ch=9 n=67 v=64
192960 On ch=9 n=70 v=30
192960 On ch=9 n=60 v=30
192960 On ch=9 n=65 v=30
193200 Off ch=9 n=70 v=64
193200 Off ch=9 n=60 v=64
193200 Off ch=9 n=65 v=64
193200 On ch=9 n=72 v=30
193200 On ch=9 n=60 v=30
193200 On ch=9 n=65 v=30
193200 On ch=9 n=67 v=30
193440 Off ch=9 n=72 v=64
193440 Off ch=9 n=60 v=64
193440 Off ch=9 n=65 v=64
193440 Off ch=9 n=67 v=64
193440 On ch=9 n=70 v=30
193440 On ch=9 n=60 v=30
193440 On ch=9 n=65 v=30
193680 Off ch=9 n=70 v=64
193680 Off ch=9 n=60 v=64
193680 Off ch=9 n=65 v=64
193680 On ch=9 n=72 v=30
193680 On ch=9 n=65 v=30
193680 On ch=9 n=67 v=30
193680 On ch=9 n=60 v=30
193920 Off ch=9 n=72 v=64
193920 Off ch=9 n=65 v=64
193920 Off ch=9 n=67 v=64
193920 Off ch=9 n=60 v=64
193920 On ch=9 n=60 v=30
193920 On ch=9 n=70 v=30
193920 On ch=9 n=65 v=30
194160 Off ch=9 n=60 v=64
194160 Off ch=9 n=70 v=64
194160 Off ch=9 n=65 v=64
194160 On ch=9 n=72 v=30
194160 On ch=9 n=65 v=30
194160 On ch=9 n=67 v=30
194160 On ch=9 n=60 v=30
194400 Off ch=9 n=72 v=64
194400 Off ch=9 n=65 v=64
194400 Off ch=9 n=67 v=64
194400 Off ch=9 n=60 v=64
194400 On ch=9 n=70 v=30
194400 On ch=9 n=65 v=30
194400 On ch=9 n=60 v=30
194640 Off ch=9 n=70 v=64
194640 Off ch=9 n=65 v=64
194640 Off ch=9 n=60 v=64
194640 On ch=9 n=72 v=30
194640 On ch=9 n=60 v=30
194640 On ch=9 n=65 v=30
194640 On ch=9 n=67 v=30
194880 Off ch=9 n=72 v=64
194880 Off ch=9 n=60 v=64
194880 Off ch=9 n=65 v=64
194880 Off ch=9 n=67 v=64
194880 On ch=9 n=70 v=30
194880 On ch=9 n=60 v=30
194880 On ch=9 n=65 v=30
195120 Off ch=9 n=70 v=64
195120 Off ch=9 n=60 v=64
195120 Off ch=9 n=65 v=64
195120 On ch=9 n=72 v=30
195120 On ch=9 n=60 v=30
195120 On ch=9 n=65 v=30
195120 On ch=9 n=67 v=30
195360 Off ch=9 n=72 v=64
195360 Off ch=9 n=60 v=64
195360 Off ch=9 n=65 v=64
195360 Off ch=9 n=67 v=64
195360 On ch=9 n=70 v=30
195360 On ch=9 n=60 v=30
195360 On ch=9 n=65 v=30
195600 Off ch=9 n=70 v=64
195600 Off ch=9 n=60 v=64
195600 Off ch=9 n=65 v=64
195600 On ch=9 n=72 v=30
195600 On ch=9 n=65 v=30
195600 On ch=9 n=67 v=30
195600 On ch=9 n=60 v=30
195840 Off ch=9 n=72 v=64
195840 Off ch=9 n=65 v=64
195840 Off ch=9 n=67 v=64
195840 Off ch=9 n=60 v=64
195840 On ch=9 n=60 v=30
195840 On ch=9 n=70 v=30
195840 On ch=9 n=65 v=30
196080 Off ch=9 n=60 v=64
196080 Off ch=9 n=70 v=64
196080 Off ch=9 n=65 v=64
196080 On ch=9 n=72 v=30
196080 On ch=9 n=65 v=30
196080 On ch=9 n=67 v=30
196080 On ch=9 n=60 v=30
196320 Off ch=9 n=72 v=64
196320 Off ch=9 n=65 v=64
196320 Off ch=9 n=67 v=64
196320 Off ch=9 n=60 v=64
196320 On ch=9 n=70 v=30
196320 On ch=9 n=60 v=30
196320 On ch=9 n=65 v=30
196560 Off ch=9 n=70 v=64
196560 Off ch=9 n=60 v=64
196560 Off ch=9 n=65 v=64
196560 On ch=9 n=72 v=30
196560 On ch=9 n=65 v=30
196560 On ch=9 n=67 v=30
196560 On ch=9 n=60 v=30
196800 Off ch=9 n=72 v=64
196800 Off ch=9 n=65 v=64
196800 Off ch=9 n=67 v=64
196800 Off ch=9 n=60 v=64
196800 On ch=9 n=60 v=30
196800 On ch=9 n=70 v=30
196800 On ch=9 n=65 v=30
197040 Off ch=9 n=60 v=64
197040 Off ch=9 n=70 v=64
197040 Off ch=9 n=65 v=64
197040 On ch=9 n=72 v=30
197040 On ch=9 n=65 v=30
197040 On ch=9 n=67 v=30
197040 On ch=9 n=60 v=30
197280 Off ch=9 n=72 v=64
197280 Off ch=9 n=65 v=64
197280 Off ch=9 n=67 v=64
197280 Off ch=9 n=60 v=64
197280 On ch=9 n=39 v=51
197400 Off ch=9 n=39 v=64
197520 On ch=9 n=46 v=51
197640 Off ch=9 n=46 v=64
197760 On ch=9 n=53 v=51
197880 Off ch=9 n=53 v=64
198000 On ch=9 n=60 v=51
198120 Off ch=9 n=60 v=64
198240 On ch=9 n=53 v=51
198360 Off ch=9 n=53 v=64
198480 On ch=9 n=46 v=51
198600 Off ch=9 n=46 v=64
198720 On ch=9 n=39 v=51
198840 Off ch=9 n=39 v=64
198960 On ch=9 n=46 v=51
199080 Off ch=9 n=46 v=64
199200 On ch=9 n=53 v=51
199320 Off ch=9 n=53 v=64
199440 On ch=9 n=60 v=51
199560 Off ch=9 n=60 v=64
199680 On ch=9 n=53 v=51
199800 Off ch=9 n=53 v=64
199920 On ch=9 n=46 v=51
200040 Off ch=9 n=46 v=64
200160 On ch=9 n=39 v=51
200280 Off ch=9 n=39 v=64
200400 On ch=9 n=46 v=51
200520 Off ch=9 n=46 v=64
200640 On ch=9 n=53 v=51
200760 Off ch=9 n=53 v=64
200880 On ch=9 n=60 v=51
201000 Off ch=9 n=60 v=64
201120 On ch=9 n=53 v=51
201240 Off ch=9 n=53 v=64
201360 On ch=9 n=46 v=51
201480 Off ch=9 n=46 v=64
201600 On ch=9 n=39 v=51
201720 Off ch=9 n=39 v=64
201840 On ch=9 n=46 v=51
201960 Off ch=9 n=46 v=64
202080 On ch=9 n=53 v=60
202200 Off ch=9 n=53 v=64
202320 On ch=9 n=60 v=60
202440 Off ch=9 n=60 v=64
202560 On ch=9 n=53 v=60
202680 Off ch=9 n=53 v=64
202800 On ch=9 n=46 v=60
202920 Off ch=9 n=46 v=64
203040 On ch=9 n=39 v=60
203160 Off ch=9 n=39 v=64
203280 On ch=9 n=46 v=60
203400 Off ch=9 n=46 v=64
203520 On ch=9 n=53 v=60
203640 Off ch=9 n=53 v=64
203760 On ch=9 n=60 v=60
203880 Off ch=9 n=60 v=64
204000 On ch=9 n=53 v=60
204120 Off ch=9 n=53 v=64
204240 On ch=9 n=46 v=60
204360 Off ch=9 n=46 v=64
204480 On ch=9 n=39 v=60
204600 Off ch=9 n=39 v=64
204720 On ch=9 n=46 v=60
204840 Off ch=9 n=46 v=64
204960 On ch=9 n=53 v=60
205080 Off ch=9 n=53 v=64
205200 On ch=9 n=60 v=60
205320 Off ch=9 n=60 v=64
205440 On ch=9 n=53 v=60
205560 Off ch=9 n=53 v=64
205680 On ch=9 n=46 v=60
205800 Off ch=9 n=46 v=64
205920 On ch=9 n=39 v=60
206040 Off ch=9 n=39 v=64
206160 On ch=9 n=46 v=60
206280 Off ch=9 n=46 v=64
206400 On ch=9 n=53 v=60
206520 Off ch=9 n=53 v=64
206640 On ch=9 n=60 v=60
206760 Off ch=9 n=60 v=64
206880 On ch=9 n=53 v=60
207000 Off ch=9 n=53 v=64
207120 On ch=9 n=46 v=60
207240 Off ch=9 n=46 v=64
207360 On ch=9 n=39 v=68
207480 Off ch=9 n=39 v=64
207600 On ch=9 n=46 v=68
207720 Off ch=9 n=46 v=64
207840 On ch=9 n=53 v=68
207960 Off ch=9 n=53 v=64
208080 On ch=9 n=60 v=68
208200 Off ch=9 n=60 v=64
208320 On ch=9 n=53 v=68
208440 Off ch=9 n=53 v=64
208560 On ch=9 n=46 v=68
208680 Off ch=9 n=46 v=64
208800 On ch=9 n=39 v=68
208920 Off ch=9 n=39 v=64
209040 On ch=9 n=46 v=68
209160 Off ch=9 n=46 v=64
209280 On ch=9 n=53 v=68
209400 Off ch=9 n=53 v=64
209520 On ch=9 n=60 v=68
209640 Off ch=9 n=60 v=64
209760 On ch=9 n=53 v=68
209880 Off ch=9 n=53 v=64
210000 On ch=9 n=46 v=68
210120 Off ch=9 n=46 v=64
210240 On ch=9 n=39 v=68
210360 Off ch=9 n=39 v=64
210480 On ch=9 n=46 v=68
210600 Off ch=9 n=46 v=64
210720 On ch=9 n=53 v=68
210840 Off ch=9 n=53 v=64
210960 On ch=9 n=60 v=68
211080 Off ch=9 n=60 v=64
211200 On ch=9 n=53 v=68
211320 Off ch=9 n=53 v=64
211440 On ch=9 n=46 v=68
211560 Off ch=9 n=46 v=64
211680 On ch=9 n=39 v=68
211800 Off ch=9 n=39 v=64
211920 On ch=9 n=46 v=68
212040 Off ch=9 n=46 v=64
212160 On ch=9 n=53 v=68
212280 Off ch=9 n=53 v=64
212400 On ch=9 n=60 v=68
212520 Off ch=9 n=60 v=64
212640 On ch=9 n=53 v=68
212760 Off ch=9 n=53 v=64
212880 On ch=9 n=46 v=68
213000 Off ch=9 n=46 v=64
213120 On ch=9 n=39 v=68
213240 Off ch=9 n=39 v=64
213360 On ch=9 n=46 v=68
213480 Off ch=9 n=46 v=64
213600 On ch=9 n=53 v=68
213720 Off ch=9 n=53 v=64
213840 On ch=9 n=60 v=68
213960 Off ch=9 n=60 v=64
214080 On ch=9 n=53 v=68
214200 Off ch=9 n=53 v=64
214320 On ch=9 n=46 v=68
214440 Off ch=9 n=46 v=64
214560 On ch=9 n=39 v=42
214560 On ch=9 n=61 v=42
214560 On ch=9 n=59 v=34
214640 Off ch=9 n=59 v=64
214720 On ch=9 n=62 v=34
214800 Off ch=9 n=39 v=64
214800 Off ch=9 n=61 v=64
214800 Off ch=9 n=62 v=64
214800 On ch=9 n=46 v=42
214800 On ch=9 n=58 v=42
214880 On ch=9 n=65 v=34
214960 Off ch=9 n=65 v=64
215040 Off ch=9 n=46 v=64
215040 Off ch=9 n=58 v=64
215040 On ch=9 n=53 v=42
215040 On ch=9 n=63 v=42
215040 On ch=9 n=61 v=34
215120 Off ch=9 n=61 v=64
215200 On ch=9 n=64 v=34
215280 Off ch=9 n=53 v=64
215280 Off ch=9 n=63 v=64
215280 Off ch=9 n=64 v=64
215280 On ch=9 n=58 v=42
215280 On ch=9 n=60 v=48
215360 On ch=9 n=67 v=34
215400 Off ch=9 n=60 v=64
215440 Off ch=9 n=67 v=64
215520 Off ch=9 n=58 v=64
215520 On ch=9 n=53 v=42
215520 On ch=9 n=61 v=42
215520 On ch=9 n=59 v=34
215600 Off ch=9 n=59 v=64
215680 On ch=9 n=62 v=34
215760 Off ch=9 n=53 v=64
215760 Off ch=9 n=61 v=64
215760 Off ch=9 n=62 v=64
215760 On ch=9 n=46 v=42
215760 On ch=9 n=58 v=42
215840 On ch=9 n=65 v=34
215920 Off ch=9 n=65 v=64
216000 Off ch=9 n=46 v=64
216000 Off ch=9 n=58 v=64
216000 On ch=9 n=39 v=42
216000 On ch=9 n=63 v=42
216000 On ch=9 n=64 v=34
216080 Off ch=9 n=64 v=64
216160 On ch=9 n=67 v=34
216240 Off ch=9 n=39 v=64
216240 Off ch=9 n=63 v=64
216240 Off ch=9 n=67 v=64
216240 On ch=9 n=46 v=42
216240 On ch=9 n=58 v=42
216320 On ch=9 n=70 v=34
216400 Off ch=9 n=70 v=64
216480 Off ch=9 n=46 v=64
216480 Off ch=9 n=58 v=64
216480 On ch=9 n=53 v=42
216480 On ch=9 n=61 v=42
216480 On ch=9 n=59 v=34
216560 Off ch=9 n=59 v=64
216640 On ch=9 n=62 v=34
216720 Off ch=9 n=53 v=64
216720 Off ch=9 n=61 v=64
216720 Off ch=9 n=62 v=64
216720 On ch=9 n=58 v=42
216720 On ch=9 n=60 v=60
216720 On ch=9 n=80 v=60
216720 On ch=9 n=70 v=60
216800 On ch=9 n=65 v=34
216840 Off ch=9 n=60 v=64
216840 Off ch=9 n=80 v=64
216840 Off ch=9 n=70 v=64
216880 Off ch=9 n=65 v=64
216960 Off ch=9 n=58 v=64
216960 On ch=9 n=53 v=45
216960 On ch=9 n=63 v=42
216960 On ch=9 n=64 v=34
217040 Off ch=9 n=64 v=64
217120 On ch=9 n=67 v=34
217200 Off ch=9 n=53 v=64
217200 Off ch=9 n=63 v=64
217200 Off ch=9 n=67 v=64
217200 On ch=9 n=46 v=47
217200 On ch=9 n=58 v=42
217200 On ch=9 n=76 v=60
217200 On ch=9 n=70 v=60
217200 On ch=9 n=82 v=60
217280 On ch=9 n=70 v=34
217320 Off ch=9 n=76 v=64
217320 Off ch=9 n=70 v=64
217320 Off ch=9 n=82 v=64
217320 Off ch=9 n=70 v=64
217440 Off ch=9 n=46 v=64
217440 Off ch=9 n=58 v=64
217440 On ch=9 n=39 v=48
217440 On ch=9 n=61 v=42
217440 On ch=9 n=60 v=34
217520 Off ch=9 n=60 v=64
217600 On ch=9 n=63 v=34
217680 Off ch=9 n=39 v=64
217680 Off ch=9 n=61 v=64
217680 Off ch=9 n=63 v=64
217680 On ch=9 n=46 v=50
217680 On ch=9 n=58 v=42
217760 On ch=9 n=66 v=34
217840 Off ch=9 n=66 v=64
217920 Off ch=9 n=46 v=64
217920 Off ch=9 n=58 v=64
217920 On ch=9 n=53 v=52
217920 On ch=9 n=63 v=42
217920 On ch=9 n=68 v=34
218000 Off ch=9 n=68 v=64
218080 On ch=9 n=71 v=34
218160 Off ch=9 n=53 v=64
218160 Off ch=9 n=63 v=64
218160 Off ch=9 n=71 v=64
218160 On ch=9 n=58 v=42
218160 On ch=9 n=60 v=54
218240 On ch=9 n=74 v=34
218280 Off ch=9 n=60 v=64
218320 Off ch=9 n=74 v=64
218400 Off ch=9 n=58 v=64
218400 On ch=9 n=53 v=42
218400 On ch=9 n=61 v=42
218400 On ch=9 n=62 v=34
218480 Off ch=9 n=62 v=64
218560 On ch=9 n=65 v=34
218640 Off ch=9 n=53 v=64
218640 Off ch=9 n=61 v=64
218640 Off ch=9 n=65 v=64
218640 On ch=9 n=46 v=43
218640 On ch=9 n=58 v=43
218640 On ch=9 n=80 v=60
218640 On ch=9 n=70 v=60
218640 On ch=9 n=68 v=60
218720 On ch=9 n=69 v=34
218760 Off ch=9 n=80 v=64
218760 Off ch=9 n=70 v=64
218760 Off ch=9 n=68 v=64
218800 Off ch=9 n=69 v=64
218880 Off ch=9 n=46 v=64
218880 Off ch=9 n=58 v=64
218880 On ch=9 n=39 v=45
218880 On ch=9 n=63 v=43
218880 On ch=9 n=64 v=34
218960 Off ch=9 n=64 v=64
219040 On ch=9 n=67 v=34
219120 Off ch=9 n=39 v=64
219120 Off ch=9 n=63 v=64
219120 Off ch=9 n=67 v=64
219120 On ch=9 n=46 v=47
219120 On ch=9 n=58 v=43
219200 On ch=9 n=70 v=34
219280 Off ch=9 n=70 v=64
219360 Off ch=9 n=46 v=64
219360 Off ch=9 n=58 v=64
219360 On ch=9 n=53 v=49
219360 On ch=9 n=61 v=43
219360 On ch=9 n=63 v=34
219360 On ch=9 n=63 v=62
219360 On ch=9 n=81 v=62
219360 On ch=9 n=73 v=62
219440 Off ch=9 n=63 v=64
219440 Off ch=9 n=63 v=64
219480 Off ch=9 n=81 v=64
219480 Off ch=9 n=73 v=64
219520 On ch=9 n=66 v=34
219600 Off ch=9 n=53 v=64
219600 Off ch=9 n=61 v=64
219600 Off ch=9 n=66 v=64
219600 On ch=9 n=58 v=43
219680 On ch=9 n=69 v=34
219760 Off ch=9 n=69 v=64
219840 Off ch=9 n=58 v=64
219840 On ch=9 n=53 v=53
219840 On ch=9 n=63 v=43
219840 On ch=9 n=68 v=34
219920 Off ch=9 n=68 v=64
220000 On ch=9 n=71 v=34
220080 Off ch=9 n=53 v=64
220080 Off ch=9 n=63 v=64
220080 Off ch=9 n=71 v=64
220080 On ch=9 n=46 v=55
220080 On ch=9 n=58 v=43
220160 On ch=9 n=74 v=34
220240 Off ch=9 n=74 v=64
220320 Off ch=9 n=46 v=64
220320 Off ch=9 n=58 v=64
220320 On ch=9 n=39 v=52
220320 On ch=9 n=61 v=43
220320 On ch=9 n=63 v=34
220320 On ch=9 n=63 v=62
220320 On ch=9 n=81 v=62
220320 On ch=9 n=73 v=62
220400 Off ch=9 n=63 v=64
220400 Off ch=9 n=63 v=64
220440 Off ch=9 n=81 v=64
220440 Off ch=9 n=73 v=64
220480 On ch=9 n=66 v=34
220560 Off ch=9 n=39 v=64
220560 Off ch=9 n=61 v=64
220560 Off ch=9 n=66 v=64
220560 On ch=9 n=46 v=53
220560 On ch=9 n=58 v=43
220640 On ch=9 n=69 v=34
220720 Off ch=9 n=69 v=64
220800 Off ch=9 n=46 v=64
220800 Off ch=9 n=58 v=64
220800 On ch=9 n=53 v=54
220800 On ch=9 n=63 v=43
220800 On ch=9 n=65 v=34
220880 Off ch=9 n=65 v=64
220960 On ch=9 n=68 v=34
221040 Off ch=9 n=53 v=64
221040 Off ch=9 n=63 v=64
221040 Off ch=9 n=68 v=64
221040 On ch=9 n=58 v=43
221040 On ch=9 n=60 v=62
221120 On ch=9 n=71 v=34
221160 Off ch=9 n=60 v=64
221200 Off ch=9 n=71 v=64
221280 Off ch=9 n=58 v=64
221280 On ch=9 n=53 v=57
221280 On ch=9 n=61 v=43
221280 On ch=9 n=66 v=34
221360 Off ch=9 n=66 v=64
221440 On ch=9 n=69 v=34
221520 Off ch=9 n=53 v=64
221520 Off ch=9 n=61 v=64
221520 Off ch=9 n=69 v=64
221520 On ch=9 n=46 v=59
221520 On ch=9 n=58 v=43
221520 On ch=9 n=76 v=70
221520 On ch=9 n=84 v=70
221520 On ch=9 n=66 v=70
221520 On ch=9 n=70 v=70
221600 On ch=9 n=72 v=34
221640 Off ch=9 n=76 v=64
221640 Off ch=9 n=84 v=64
221640 Off ch=9 n=66 v=64
221640 Off ch=9 n=70 v=64
221680 Off ch=9 n=72 v=64
221760 Off ch=9 n=46 v=64
221760 Off ch=9 n=58 v=64
221760 On ch=9 n=39 v=60
221760 On ch=9 n=63 v=43
221760 On ch=9 n=68 v=34
221840 Off ch=9 n=68 v=64
221920 On ch=9 n=71 v=34
222000 Off ch=9 n=39 v=64
222000 Off ch=9 n=63 v=64
222000 Off ch=9 n=71 v=64
222000 On ch=9 n=46 v=62
222000 On ch=9 n=58 v=43
222080 On ch=9 n=74 v=34
222160 Off ch=9 n=74 v=64
222240 Off ch=9 n=46 v=64
222240 Off ch=9 n=58 v=64
222240 On ch=9 n=60 v=44
222240 On ch=9 n=62 v=44
222240 On ch=9 n=74 v=44
222240 On ch=9 n=72 v=44
222300 Off ch=9 n=60 v=64
222300 Off ch=9 n=62 v=64
222300 Off ch=9 n=74 v=64
222300 Off ch=9 n=72 v=64
222360 On ch=9 n=74 v=34
222360 On ch=9 n=72 v=34
222360 On ch=9 n=60 v=34
222360 On ch=9 n=62 v=34
222420 Off ch=9 n=74 v=64
222420 Off ch=9 n=72 v=64
222420 Off ch=9 n=60 v=64
222420 Off ch=9 n=62 v=64
222480 On ch=9 n=74 v=44
222480 On ch=9 n=72 v=44
222480 On ch=9 n=60 v=44
222480 On ch=9 n=62 v=44
222540 Off ch=9 n=74 v=64
222540 Off ch=9 n=72 v=64
222540 Off ch=9 n=60 v=64
222540 Off ch=9 n=62 v=64
222600 On ch=9 n=74 v=30
222600 On ch=9 n=72 v=30
222600 On ch=9 n=60 v=30
222600 On ch=9 n=62 v=30
222660 Off ch=9 n=74 v=64
222660 Off ch=9 n=72 v=64
222660 Off ch=9 n=60 v=64
222660 Off ch=9 n=62 v=64
222720 On ch=9 n=74 v=40
222720 On ch=9 n=72 v=40
222720 On ch=9 n=60 v=40
222720 On ch=9 n=62 v=40
222780 Off ch=9 n=74 v=64
222780 Off ch=9 n=72 v=64
222780 Off ch=9 n=60 v=64
222780 Off ch=9 n=62 v=64
222840 On ch=9 n=60 v=34
222840 On ch=9 n=72 v=34
222840 On ch=9 n=74 v=34
222840 On ch=9 n=62 v=34
222900 Off ch=9 n=60 v=64
222900 Off ch=9 n=72 v=64
222900 Off ch=9 n=74 v=64
222900 Off ch=9 n=62 v=64
222960 On ch=9 n=74 v=44
222960 On ch=9 n=72 v=44
222960 On ch=9 n=60 v=44
222960 On ch=9 n=62 v=44
223020 Off ch=9 n=74 v=64
223020 Off ch=9 n=72 v=64
223020 Off ch=9 n=60 v=64
223020 Off ch=9 n=62 v=64
223080 On ch=9 n=74 v=28
223080 On ch=9 n=72 v=28
223080 On ch=9 n=60 v=28
223080 On ch=9 n=62 v=28
223140 Off ch=9 n=74 v=64
223140 Off ch=9 n=72 v=64
223140 Off ch=9 n=60 v=64
223140 Off ch=9 n=62 v=64
223200 On ch=9 n=60 v=42
223200 On ch=9 n=74 v=42
223200 On ch=9 n=72 v=42
223200 On ch=9 n=62 v=42
223260 Off ch=9 n=60 v=64
223260 Off ch=9 n=74 v=64
223260 Off ch=9 n=72 v=64
223260 Off ch=9 n=62 v=64
223320 On ch=9 n=74 v=32
223320 On ch=9 n=72 v=32
223320 On ch=9 n=60 v=32
223320 On ch=9 n=62 v=32
223380 Off ch=9 n=74 v=64
223380 Off ch=9 n=72 v=64
223380 Off ch=9 n=60 v=64
223380 Off ch=9 n=62 v=64
223440 On ch=9 n=74 v=42
223440 On ch=9 n=72 v=42
223440 On ch=9 n=62 v=42
223440 On ch=9 n=60 v=42
223500 Off ch=9 n=74 v=64
223500 Off ch=9 n=72 v=64
223500 Off ch=9 n=62 v=64
223500 Off ch=9 n=60 v=64
223560 On ch=9 n=74 v=28
223560 On ch=9 n=72 v=28
223560 On ch=9 n=60 v=28
223560 On ch=9 n=62 v=28
223620 Off ch=9 n=74 v=64
223620 Off ch=9 n=72 v=64
223620 Off ch=9 n=60 v=64
223620 Off ch=9 n=62 v=64
223680 On ch=9 n=74 v=42
223680 On ch=9 n=72 v=42
223680 On ch=9 n=60 v=42
223680 On ch=9 n=62 v=42
223740 Off ch=9 n=74 v=64
223740 Off ch=9 n=72 v=64
223740 Off ch=9 n=60 v=64
223740 Off ch=9 n=62 v=64
223800 On ch=9 n=74 v=34
223800 On ch=9 n=72 v=34
223800 On ch=9 n=60 v=34
223800 On ch=9 n=62 v=34
223860 Off ch=9 n=74 v=64
223860 Off ch=9 n=72 v=64
223860 Off ch=9 n=60 v=64
223860 Off ch=9 n=62 v=64
223920 On ch=9 n=74 v=42
223920 On ch=9 n=72 v=42
223920 On ch=9 n=60 v=42
223920 On ch=9 n=62 v=42
223980 Off ch=9 n=74 v=64
223980 Off ch=9 n=72 v=64
223980 Off ch=9 n=60 v=64
223980 Off ch=9 n=62 v=64
224040 On ch=9 n=74 v=30
224040 On ch=9 n=72 v=30
224040 On ch=9 n=60 v=30
224040 On ch=9 n=62 v=30
224100 Off ch=9 n=74 v=64
224100 Off ch=9 n=72 v=64
224100 Off ch=9 n=60 v=64
224100 Off ch=9 n=62 v=64
224160 On ch=9 n=60 v=44
224160 On ch=9 n=62 v=44
224160 On ch=9 n=74 v=44
224160 On ch=9 n=72 v=44
224220 Off ch=9 n=60 v=64
224220 Off ch=9 n=62 v=64
224220 Off ch=9 n=74 v=64
224220 Off ch=9 n=72 v=64
224280 On ch=9 n=74 v=34
224280 On ch=9 n=72 v=34
224280 On ch=9 n=60 v=34
224280 On ch=9 n=62 v=34
224340 Off ch=9 n=74 v=64
224340 Off ch=9 n=72 v=64
224340 Off ch=9 n=60 v=64
224340 Off ch=9 n=62 v=64
224400 On ch=9 n=74 v=72
224400 On ch=9 n=72 v=72
224400 On ch=9 n=60 v=72
224400 On ch=9 n=62 v=72
224460 Off ch=9 n=74 v=64
224460 Off ch=9 n=72 v=64
224460 Off ch=9 n=60 v=64
224460 Off ch=9 n=62 v=64
224520 On ch=9 n=74 v=30
224520 On ch=9 n=72 v=30
224520 On ch=9 n=60 v=30
224520 On ch=9 n=62 v=30
224580 Off ch=9 n=74 v=64
224580 Off ch=9 n=72 v=64
224580 Off ch=9 n=60 v=64
224580 Off ch=9 n=62 v=64
224640 On ch=9 n=74 v=40
224640 On ch=9 n=72 v=40
224640 On ch=9 n=60 v=40
224640 On ch=9 n=62 v=40
224700 Off ch=9 n=74 v=64
224700 Off ch=9 n=72 v=64
224700 Off ch=9 n=60 v=64
224700 Off ch=9 n=62 v=64
224760 On ch=9 n=60 v=34
224760 On ch=9 n=72 v=34
224760 On ch=9 n=74 v=34
224760 On ch=9 n=62 v=34
224820 Off ch=9 n=60 v=64
224820 Off ch=9 n=72 v=64
224820 Off ch=9 n=74 v=64
224820 Off ch=9 n=62 v=64
224880 On ch=9 n=74 v=72
224880 On ch=9 n=72 v=72
224880 On ch=9 n=60 v=72
224880 On ch=9 n=62 v=72
224940 Off ch=9 n=74 v=64
224940 Off ch=9 n=72 v=64
224940 Off ch=9 n=60 v=64
224940 Off ch=9 n=62 v=64
225000 On ch=9 n=74 v=28
225000 On ch=9 n=72 v=28
225000 On ch=9 n=60 v=28
225000 On ch=9 n=62 v=28
225060 Off ch=9 n=74 v=64
225060 Off ch=9 n=72 v=64
225060 Off ch=9 n=60 v=64
225060 Off ch=9 n=62 v=64
225120 On ch=9 n=60 v=42
225120 On ch=9 n=74 v=42
225120 On ch=9 n=72 v=42
225120 On ch=9 n=62 v=42
225180 Off ch=9 n=60 v=64
225180 Off ch=9 n=74 v=64
225180 Off ch=9 n=72 v=64
225180 Off ch=9 n=62 v=64
225240 On ch=9 n=74 v=32
225240 On ch=9 n=72 v=32
225240 On ch=9 n=60 v=32
225240 On ch=9 n=62 v=32
225300 Off ch=9 n=74 v=64
225300 Off ch=9 n=72 v=64
225300 Off ch=9 n=60 v=64
225300 Off ch=9 n=62 v=64
225360 On ch=9 n=74 v=42
225360 On ch=9 n=72 v=42
225360 On ch=9 n=62 v=42
225360 On ch=9 n=60 v=42
225420 Off ch=9 n=74 v=64
225420 Off ch=9 n=72 v=64
225420 Off ch=9 n=62 v=64
225420 Off ch=9 n=60 v=64
225480 On ch=9 n=74 v=28
225480 On ch=9 n=72 v=28
225480 On ch=9 n=60 v=28
225480 On ch=9 n=62 v=28
225540 Off ch=9 n=74 v=64
225540 Off ch=9 n=72 v=64
225540 Off ch=9 n=60 v=64
225540 Off ch=9 n=62 v=64
225600 On ch=9 n=74 v=42
225600 On ch=9 n=72 v=42
225600 On ch=9 n=60 v=42
225600 On ch=9 n=62 v=42
225660 Off ch=9 n=74 v=64
225660 Off ch=9 n=72 v=64
225660 Off ch=9 n=60 v=64
225660 Off ch=9 n=62 v=64
225720 On ch=9 n=74 v=34
225720 On ch=9 n=72 v=34
225720 On ch=9 n=60 v=34
225720 On ch=9 n=62 v=34
225780 Off ch=9 n=74 v=64
225780 Off ch=9 n=72 v=64
225780 Off ch=9 n=60 v=64
225780 Off ch=9 n=62 v=64
225840 On ch=9 n=74 v=42
225840 On ch=9 n=72 v=42
225840 On ch=9 n=60 v=42
225840 On ch=9 n=62 v=42
225900 Off ch=9 n=74 v=64
225900 Off ch=9 n=72 v=64
225900 Off ch=9 n=60 v=64
225900 Off ch=9 n=62 v=64
225960 On ch=9 n=74 v=30
225960 On ch=9 n=72 v=30
225960 On ch=9 n=60 v=30
225960 On ch=9 n=62 v=30
226020 Off ch=9 n=74 v=64
226020 Off ch=9 n=72 v=64
226020 Off ch=9 n=60 v=64
226020 Off ch=9 n=62 v=64
226080 On ch=9 n=60 v=44
226080 On ch=9 n=62 v=44
226080 On ch=9 n=74 v=44
226080 On ch=9 n=72 v=44
226140 Off ch=9 n=60 v=64
226140 Off ch=9 n=62 v=64
226140 Off ch=9 n=74 v=64
226140 Off ch=9 n=72 v=64
226200 On ch=9 n=74 v=34
226200 On ch=9 n=72 v=34
226200 On ch=9 n=60 v=34
226200 On ch=9 n=62 v=34
226260 Off ch=9 n=74 v=64
226260 Off ch=9 n=72 v=64
226260 Off ch=9 n=60 v=64
226260 Off ch=9 n=62 v=64
226320 On ch=9 n=74 v=44
226320 On ch=9 n=72 v=44
226320 On ch=9 n=60 v=44
226320 On ch=9 n=62 v=44
226380 Off ch=9 n=74 v=64
226380 Off ch=9 n=72 v=64
226380 Off ch=9 n=60 v=64
226380 Off ch=9 n=62 v=64
226440 On ch=9 n=74 v=30
226440 On ch=9 n=72 v=30
226440 On ch=9 n=60 v=30
226440 On ch=9 n=62 v=30
226500 Off ch=9 n=74 v=64
226500 Off ch=9 n=72 v=64
226500 Off ch=9 n=60 v=64
226500 Off ch=9 n=62 v=64
226560 On ch=9 n=74 v=40
226560 On ch=9 n=72 v=40
226560 On ch=9 n=60 v=40
226560 On ch=9 n=62 v=40
226620 Off ch=9 n=74 v=64
226620 Off ch=9 n=72 v=64
226620 Off ch=9 n=60 v=64
226620 Off ch=9 n=62 v=64
226680 On ch=9 n=60 v=34
226680 On ch=9 n=72 v=34
226680 On ch=9 n=74 v=34
226680 On ch=9 n=62 v=34
226740 Off ch=9 n=60 v=64
226740 Off ch=9 n=72 v=64
226740 Off ch=9 n=74 v=64
226740 Off ch=9 n=62 v=64
226800 On ch=9 n=74 v=44
226800 On ch=9 n=72 v=44
226800 On ch=9 n=60 v=44
226800 On ch=9 n=62 v=44
226860 Off ch=9 n=74 v=64
226860 Off ch=9 n=72 v=64
226860 Off ch=9 n=60 v=64
226860 Off ch=9 n=62 v=64
226920 On ch=9 n=74 v=28
226920 On ch=9 n=72 v=28
226920 On ch=9 n=60 v=28
226920 On ch=9 n=62 v=28
226980 Off ch=9 n=74 v=64
226980 Off ch=9 n=72 v=64
226980 Off ch=9 n=60 v=64
226980 Off ch=9 n=62 v=64
227040 On ch=9 n=60 v=42
227040 On ch=9 n=74 v=42
227040 On ch=9 n=72 v=42
227040 On ch=9 n=62 v=42
227100 Off ch=9 n=60 v=64
227100 Off ch=9 n=74 v=64
227100 Off ch=9 n=72 v=64
227100 Off ch=9 n=62 v=64
227160 On ch=9 n=74 v=32
227160 On ch=9 n=72 v=32
227160 On ch=9 n=60 v=32
227160 On ch=9 n=62 v=32
227220 Off ch=9 n=74 v=64
227220 Off ch=9 n=72 v=64
227220 Off ch=9 n=60 v=64
227220 Off ch=9 n=62 v=64
227280 On ch=9 n=74 v=42
227280 On ch=9 n=72 v=42
227280 On ch=9 n=62 v=42
227280 On ch=9 n=60 v=42
227340 Off ch=9 n=74 v=64
227340 Off ch=9 n=72 v=64
227340 Off ch=9 n=62 v=64
227340 Off ch=9 n=60 v=64
227400 On ch=9 n=74 v=28
227400 On ch=9 n=72 v=28
227400 On ch=9 n=60 v=28
227400 On ch=9 n=62 v=28
227460 Off ch=9 n=74 v=64
227460 Off ch=9 n=72 v=64
227460 Off ch=9 n=60 v=64
227460 Off ch=9 n=62 v=64
227520 On ch=9 n=74 v=42
227520 On ch=9 n=72 v=42
227520 On ch=9 n=60 v=42
227520 On ch=9 n=62 v=42
227580 Off ch=9 n=74 v=64
227580 Off ch=9 n=72 v=64
227580 Off ch=9 n=60 v=64
227580 Off ch=9 n=62 v=64
227640 On ch=9 n=74 v=34
227640 On ch=9 n=72 v=34
227640 On ch=9 n=60 v=34
227640 On ch=9 n=62 v=34
227700 Off ch=9 n=74 v=64
227700 Off ch=9 n=72 v=64
227700 Off ch=9 n=60 v=64
227700 Off ch=9 n=62 v=64
227760 On ch=9 n=74 v=42
227760 On ch=9 n=72 v=42
227760 On ch=9 n=60 v=42
227760 On ch=9 n=62 v=42
227820 Off ch=9 n=74 v=64
227820 Off ch=9 n=72 v=64
227820 Off ch=9 n=60 v=64
227820 Off ch=9 n=62 v=64
227880 On ch=9 n=74 v=30
227880 On ch=9 n=72 v=30
227880 On ch=9 n=60 v=30
227880 On ch=9 n=62 v=30
227940 Off ch=9 n=74 v=64
227940 Off ch=9 n=72 v=64
227940 Off ch=9 n=60 v=64
227940 Off ch=9 n=62 v=64
228000 On ch=9 n=60 v=44
228000 On ch=9 n=62 v=44
228000 On ch=9 n=74 v=44
228000 On ch=9 n=72 v=44
228060 Off ch=9 n=60 v=64
228060 Off ch=9 n=62 v=64
228060 Off ch=9 n=74 v=64
228060 Off ch=9 n=72 v=64
228120 On ch=9 n=74 v=34
228120 On ch=9 n=72 v=34
228120 On ch=9 n=60 v=34
228120 On ch=9 n=62 v=34
228180 Off ch=9 n=74 v=64
228180 Off ch=9 n=72 v=64
228180 Off ch=9 n=60 v=64
228180 Off ch=9 n=62 v=64
228240 On ch=9 n=74 v=70
228240 On ch=9 n=72 v=70
228240 On ch=9 n=60 v=70
228240 On ch=9 n=62 v=70
228300 Off ch=9 n=74 v=64
228300 Off ch=9 n=72 v=64
228300 Off ch=9 n=60 v=64
228300 Off ch=9 n=62 v=64
228360 On ch=9 n=74 v=30
228360 On ch=9 n=72 v=30
228360 On ch=9 n=60 v=30
228360 On ch=9 n=62 v=30
228420 Off ch=9 n=74 v=64
228420 Off ch=9 n=72 v=64
228420 Off ch=9 n=60 v=64
228420 Off ch=9 n=62 v=64
228480 On ch=9 n=74 v=40
228480 On ch=9 n=72 v=40
228480 On ch=9 n=60 v=40
228480 On ch=9 n=62 v=40
228540 Off ch=9 n=74 v=64
228540 Off ch=9 n=72 v=64
228540 Off ch=9 n=60 v=64
228540 Off ch=9 n=62 v=64
228600 On ch=9 n=60 v=34
228600 On ch=9 n=72 v=34
228600 On ch=9 n=74 v=34
228600 On ch=9 n=62 v=34
228660 Off ch=9 n=60 v=64
228660 Off ch=9 n=72 v=64
228660 Off ch=9 n=74 v=64
228660 Off ch=9 n=62 v=64
228720 On ch=9 n=74 v=44
228720 On ch=9 n=72 v=44
228720 On ch=9 n=60 v=44
228720 On ch=9 n=62 v=44
228780 Off ch=9 n=74 v=64
228780 Off ch=9 n=72 v=64
228780 Off ch=9 n=60 v=64
228780 Off ch=9 n=62 v=64
228840 On ch=9 n=74 v=28
228840 On ch=9 n=72 v=28
228840 On ch=9 n=60 v=28
228840 On ch=9 n=62 v=28
228900 Off ch=9 n=74 v=64
228900 Off ch=9 n=72 v=64
228900 Off ch=9 n=60 v=64
228900 Off ch=9 n=62 v=64
228960 On ch=9 n=60 v=72
228960 On ch=9 n=74 v=72
228960 On ch=9 n=72 v=72
228960 On ch=9 n=62 v=72
229020 Off ch=9 n=60 v=64
229020 Off ch=9 n=74 v=64
229020 Off ch=9 n=72 v=64
229020 Off ch=9 n=62 v=64
229080 On ch=9 n=74 v=32
229080 On ch=9 n=72 v=32
229080 On ch=9 n=60 v=32
229080 On ch=9 n=62 v=32
229140 Off ch=9 n=74 v=64
229140 Off ch=9 n=72 v=64
229140 Off ch=9 n=60 v=64
229140 Off ch=9 n=62 v=64
229200 On ch=9 n=74 v=42
229200 On ch=9 n=72 v=42
229200 On ch=9 n=62 v=42
229200 On ch=9 n=60 v=42
229260 Off ch=9 n=74 v=64
229260 Off ch=9 n=72 v=64
229260 Off ch=9 n=62 v=64
229260 Off ch=9 n=60 v=64
229320 On ch=9 n=74 v=28
229320 On ch=9 n=72 v=28
229320 On ch=9 n=60 v=28
229320 On ch=9 n=62 v=28
229380 Off ch=9 n=74 v=64
229380 Off ch=9 n=72 v=64
229380 Off ch=9 n=60 v=64
229380 Off ch=9 n=62 v=64
229440 On ch=9 n=74 v=42
229440 On ch=9 n=72 v=42
229440 On ch=9 n=60 v=42
229440 On ch=9 n=62 v=42
229500 Off ch=9 n=74 v=64
229500 Off ch=9 n=72 v=64
229500 Off ch=9 n=60 v=64
229500 Off ch=9 n=62 v=64
229560 On ch=9 n=74 v=34
229560 On ch=9 n=72 v=34
229560 On ch=9 n=60 v=34
229560 On ch=9 n=62 v=34
229620 Off ch=9 n=74 v=64
229620 Off ch=9 n=72 v=64
229620 Off ch=9 n=60 v=64
229620 Off ch=9 n=62 v=64
229680 On ch=9 n=74 v=42
229680 On ch=9 n=72 v=42
229680 On ch=9 n=60 v=42
229680 On ch=9 n=62 v=42
229740 Off ch=9 n=74 v=64
229740 Off ch=9 n=72 v=64
229740 Off ch=9 n=60 v=64
229740 Off ch=9 n=62 v=64
229800 On ch=9 n=74 v=30
229800 On ch=9 n=72 v=30
229800 On ch=9 n=60 v=30
229800 On ch=9 n=62 v=30
229860 Off ch=9 n=74 v=64
229860 Off ch=9 n=72 v=64
229860 Off ch=9 n=60 v=64
229860 Off ch=9 n=62 v=64
237840 On ch=9 n=53 v=76
238080 Off ch=9 n=53 v=64
238320 On ch=9 n=51 v=76
238560 Off ch=9 n=51 v=64
238800 On ch=9 n=41 v=76
239040 Off ch=9 n=41 v=64
239280 On ch=9 n=43 v=76
239520 Off ch=9 n=43 v=64
239760 On ch=9 n=53 v=76
240000 Off ch=9 n=53 v=64
240240 On ch=9 n=51 v=76
240480 Off ch=9 n=51 v=64
240720 On ch=9 n=41 v=76
240960 Off ch=9 n=41 v=64
241200 On ch=9 n=43 v=76
241440 Off ch=9 n=43 v=64
242400 Par ch=9 c=0 v=0
242400 Par ch=9 c=32 v=1
242400 PrCh ch=9 p=60
249120 On ch=9 n=60 v=58
249120 On ch=9 n=57 v=58
249120 On ch=9 n=67 v=58
249120 On ch=9 n=63 v=58
249213 Off ch=9 n=60 v=64
249213 Off ch=9 n=57 v=64
249213 Off ch=9 n=67 v=64
249213 Off ch=9 n=63 v=64
249360 On ch=9 n=55 v=58
249360 On ch=9 n=65 v=58
249360 On ch=9 n=59 v=58
249360 On ch=9 n=62 v=58
249453 Off ch=9 n=55 v=64
249453 Off ch=9 n=65 v=64
249453 Off ch=9 n=59 v=64
249453 Off ch=9 n=62 v=64
249600 On ch=9 n=60 v=58
249600 On ch=9 n=57 v=58
249600 On ch=9 n=67 v=58
249600 On ch=9 n=63 v=58
249693 Off ch=9 n=60 v=64
249693 Off ch=9 n=57 v=64
249693 Off ch=9 n=67 v=64
249693 Off ch=9 n=63 v=64
249840 On ch=9 n=55 v=58
249840 On ch=9 n=59 v=58
249840 On ch=9 n=65 v=58
249840 On ch=9 n=62 v=58
249933 Off ch=9 n=55 v=64
249933 Off ch=9 n=59 v=64
249933 Off ch=9 n=65 v=64
249933 Off ch=9 n=62 v=64
250080 On ch=9 n=60 v=58
250080 On ch=9 n=57 v=58
250080 On ch=9 n=67 v=58
250080 On ch=9 n=63 v=58
250173 Off ch=9 n=60 v=64
250173 Off ch=9 n=57 v=64
250173 Off ch=9 n=67 v=64
250173 Off ch=9 n=63 v=64
250320 On ch=9 n=55 v=58
250320 On ch=9 n=59 v=58
250320 On ch=9 n=65 v=58
250320 On ch=9 n=62 v=58
250413 Off ch=9 n=55 v=64
250413 Off ch=9 n=59 v=64
250413 Off ch=9 n=65 v=64
250413 Off ch=9 n=62 v=64
250560 On ch=9 n=57 v=58
250560 On ch=9 n=60 v=58
250560 On ch=9 n=63 v=58
250560 On ch=9 n=67 v=58
250653 Off ch=9 n=57 v=64
250653 Off ch=9 n=60 v=64
250653 Off ch=9 n=63 v=64
250653 Off ch=9 n=67 v=64
250800 On ch=9 n=55 v=58
250800 On ch=9 n=65 v=58
250800 On ch=9 n=59 v=58
250800 On ch=9 n=62 v=58
250893 Off ch=9 n=55 v=64
250893 Off ch=9 n=65 v=64
250893 Off ch=9 n=59 v=64
250893 Off ch=9 n=62 v=64
251040 On ch=9 n=60 v=58
251040 On ch=9 n=57 v=58
251040 On ch=9 n=67 v=58
251040 On ch=9 n=63 v=58
251133 Off ch=9 n=60 v=64
251133 Off ch=9 n=57 v=64
251133 Off ch=9 n=67 v=64
251133 Off ch=9 n=63 v=64
251280 On ch=9 n=55 v=58
251280 On ch=9 n=59 v=58
251280 On ch=9 n=62 v=58
251280 On ch=9 n=65 v=58
251373 Off ch=9 n=55 v=64
251373 Off ch=9 n=59 v=64
251373 Off ch=9 n=62 v=64
251373 Off ch=9 n=65 v=64
251520 On ch=9 n=67 v=58
251520 On ch=9 n=57 v=58
251520 On ch=9 n=60 v=58
251520 On ch=9 n=63 v=58
251613 Off ch=9 n=67 v=64
251613 Off ch=9 n=57 v=64
251613 Off ch=9 n=60 v=64
251613 Off ch=9 n=63 v=64
251760 On ch=9 n=55 v=58
251760 On ch=9 n=65 v=58
251760 On ch=9 n=59 v=58
251760 On ch=9 n=62 v=58
251853 Off ch=9 n=55 v=64
251853 Off ch=9 n=65 v=64
251853 Off ch=9 n=59 v=64
251853 Off ch=9 n=62 v=64
252000 On ch=9 n=57 v=58
252000 On ch=9 n=60 v=58
252000 On ch=9 n=63 v=58
252000 On ch=9 n=67 v=58
252093 Off ch=9 n=57 v=64
252093 Off ch=9 n=60 v=64
252093 Off ch=9 n=63 v=64
252093 Off ch=9 n=67 v=64
252240 On ch=9 n=55 v=118
252240 On ch=9 n=65 v=118
252240 On ch=9 n=59 v=118
252240 On ch=9 n=62 v=118
252300 Off ch=9 n=55 v=64
252300 Off ch=9 n=65 v=64
252300 Off ch=9 n=59 v=64
252300 Off ch=9 n=62 v=64
252480 On ch=9 n=57 v=58
252480 On ch=9 n=60 v=58
252480 On ch=9 n=67 v=58
252480 On ch=9 n=63 v=58
252573 Off ch=9 n=57 v=64
252573 Off ch=9 n=60 v=64
252573 Off ch=9 n=67 v=64
252573 Off ch=9 n=63 v=64
252720 On ch=9 n=65 v=118
252720 On ch=9 n=55 v=118
252720 On ch=9 n=62 v=118
252720 On ch=9 n=59 v=118
252780 Off ch=9 n=65 v=64
252780 Off ch=9 n=55 v=64
252780 Off ch=9 n=62 v=64
252780 Off ch=9 n=59 v=64
259440 Par ch=9 c=0 v=0
259440 Par ch=9 c=32 v=1
259440 PrCh ch=9 p=45
263760 On ch=9 n=51 v=86
263760 On ch=9 n=60 v=86
263760 On ch=9 n=44 v=86
264000 Off ch=9 n=51 v=64
264000 Off ch=9 n=60 v=64
264000 Off ch=9 n=44 v=64
265560 On ch=9 n=48 v=86
265920 Off ch=9 n=48 v=64
266280 On ch=9 n=59 v=86
266640 Off ch=9 n=59 v=64
266640 On ch=9 n=48 v=86
267000 Off ch=9 n=48 v=64
267720 On ch=9 n=59 v=86
268080 Off ch=9 n=59 v=64
268440 On ch=9 n=48 v=86
268800 Off ch=9 n=48 v=64
269160 On ch=9 n=59 v=86
269520 Off ch=9 n=59 v=64
269520 On ch=9 n=48 v=86
269880 Off ch=9 n=48 v=64
272400 On ch=9 n=36 v=74
272640 Off ch=9 n=36 v=64
272640 On ch=9 n=40 v=74
272880 Off ch=9 n=40 v=64
272880 On ch=9 n=43 v=74
273120 Off ch=9 n=43 v=64
273120 On ch=9 n=45 v=74
273360 Off ch=9 n=45 v=64
273360 On ch=9 n=49 v=74
273600 Off ch=9 n=49 v=64
273600 On ch=9 n=52 v=74
273840 Off ch=9 n=52 v=64
273840 On ch=9 n=55 v=74
274080 Off ch=9 n=55 v=64
274080 On ch=9 n=60 v=74
274320 Off ch=9 n=60 v=64
274320 On ch=9 n=64 v=74
274560 Off ch=9 n=64 v=64
274560 On ch=9 n=69 v=76
274560 On ch=9 n=75 v=76
274800 Off ch=9 n=69 v=64
274800 Off ch=9 n=75 v=64
274800 On ch=9 n=73 v=50
275040 Off ch=9 n=73 v=64
275040 On ch=9 n=70 v=50
275280 Off ch=9 n=70 v=64
275280 On ch=9 n=67 v=50
275520 Off ch=9 n=67 v=64
275520 On ch=9 n=75 v=60
275760 Off ch=9 n=75 v=64
275760 On ch=9 n=73 v=50
276000 Off ch=9 n=73 v=64
276000 On ch=9 n=70 v=50
276240 Off ch=9 n=70 v=64
276240 On ch=9 n=67 v=50
276480 Off ch=9 n=67 v=64
276480 On ch=9 n=75 v=60
276720 Off ch=9 n=75 v=64
276720 On ch=9 n=73 v=50
276960 Off ch=9 n=73 v=64
276960 On ch=9 n=70 v=50
277200 Off ch=9 n=70 v=64
277200 On ch=9 n=67 v=50
277440 Off ch=9 n=67 v=64
277440 On ch=9 n=75 v=60
277680 Off ch=9 n=75 v=64
277680 On ch=9 n=73 v=50
277920 Off ch=9 n=73 v=64
277920 On ch=9 n=70 v=50
278160 Off ch=9 n=70 v=64
278160 On ch=9 n=67 v=50
278400 Off ch=9 n=67 v=64
278400 On ch=9 n=75 v=60
278640 Off ch=9 n=75 v=64
278640 On ch=9 n=73 v=50
278880 Off ch=9 n=73 v=64
278880 On ch=9 n=70 v=50
279120 Off ch=9 n=70 v=64
279120 On ch=9 n=67 v=50
279360 Off ch=9 n=67 v=64
279360 On ch=9 n=75 v=60
279600 Off ch=9 n=75 v=64
279600 On ch=9 n=73 v=50
279840 Off ch=9 n=73 v=64
279840 On ch=9 n=70 v=50
280080 Off ch=9 n=70 v=64
280080 On ch=9 n=67 v=50
280320 Off ch=9 n=67 v=64
280320 On ch=9 n=75 v=60
280560 Off ch=9 n=75 v=64
280560 On ch=9 n=73 v=50
280800 Off ch=9 n=73 v=64
280800 On ch=9 n=70 v=50
281040 Off ch=9 n=70 v=64
281040 On ch=9 n=67 v=50
281280 Off ch=9 n=67 v=64
281280 On ch=9 n=75 v=60
281520 Off ch=9 n=75 v=64
281520 On ch=9 n=73 v=50
281760 Off ch=9 n=73 v=64
281760 On ch=9 n=70 v=50
282000 Off ch=9 n=70 v=64
282000 On ch=9 n=67 v=50
282240 Off ch=9 n=67 v=64
282240 On ch=9 n=75 v=60
282480 Off ch=9 n=75 v=64
282480 On ch=9 n=73 v=50
282720 Off ch=9 n=73 v=64
282720 On ch=9 n=70 v=50
282960 Off ch=9 n=70 v=64
282960 On ch=9 n=67 v=50
283200 Off ch=9 n=67 v=64
283200 On ch=9 n=75 v=60
283440 Off ch=9 n=75 v=64
283440 On ch=9 n=73 v=50
283680 Off ch=9 n=73 v=64
283680 On ch=9 n=70 v=50
283920 Off ch=9 n=70 v=64
283920 On ch=9 n=67 v=50
284160 Off ch=9 n=67 v=64
284160 On ch=9 n=75 v=60
284400 Off ch=9 n=75 v=64
284400 On ch=9 n=73 v=50
284640 Off ch=9 n=73 v=64
284640 On ch=9 n=70 v=50
284880 Off ch=9 n=70 v=64
284880 On ch=9 n=67 v=50
285120 Off ch=9 n=67 v=64
285120 On ch=9 n=75 v=60
285360 Off ch=9 n=75 v=64
285360 On ch=9 n=73 v=50
285600 Off ch=9 n=73 v=64
285600 On ch=9 n=70 v=50
285840 Off ch=9 n=70 v=64
285840 On ch=9 n=67 v=50
286080 Off ch=9 n=67 v=64
286080 On ch=9 n=75 v=60
286320 Off ch=9 n=75 v=64
286320 On ch=9 n=73 v=50
286560 Off ch=9 n=73 v=64
286560 On ch=9 n=70 v=50
286800 Off ch=9 n=70 v=64
286800 On ch=9 n=69 v=50
287040 Off ch=9 n=69 v=64
287040 On ch=9 n=73 v=50
287280 Off ch=9 n=73 v=64
287280 On ch=9 n=76 v=50
287520 Off ch=9 n=76 v=64
287520 On ch=9 n=81 v=54
287760 Off ch=9 n=81 v=64
287880 On ch=9 n=48 v=86
288240 Off ch=9 n=48 v=64
288600 On ch=9 n=59 v=86
288960 Off ch=9 n=59 v=64
288960 On ch=9 n=48 v=86
289320 Off ch=9 n=48 v=64
290040 On ch=9 n=59 v=86
290400 Off ch=9 n=59 v=64
290760 On ch=9 n=48 v=86
291120 Off ch=9 n=48 v=64
291480 On ch=9 n=59 v=86
291840 Off ch=9 n=59 v=64
291840 On ch=9 n=48 v=86
292200 Off ch=9 n=48 v=64
296880 On ch=9 n=28 v=50
297120 Off ch=9 n=28 v=64
297120 On ch=9 n=33 v=50
297360 Off ch=9 n=33 v=64
297360 On ch=9 n=37 v=50
297600 Off ch=9 n=37 v=64
297600 On ch=9 n=39 v=50
297840 Off ch=9 n=39 v=64
297840 On ch=9 n=43 v=50
298080 Off ch=9 n=43 v=64
298080 On ch=9 n=46 v=50
298320 Off ch=9 n=46 v=64
298320 On ch=9 n=34 v=50
298320 On ch=9 n=51 v=50
298560 Off ch=9 n=34 v=64
298560 Off ch=9 n=51 v=64
298560 On ch=9 n=37 v=50
298560 On ch=9 n=55 v=50
298800 Off ch=9 n=37 v=64
298800 Off ch=9 n=55 v=64
298800 On ch=9 n=42 v=50
298800 On ch=9 n=58 v=50
299040 Off ch=9 n=42 v=64
299040 Off ch=9 n=58 v=64
299040 On ch=9 n=46 v=50
299040 On ch=9 n=60 v=50
299280 Off ch=9 n=46 v=64
299280 Off ch=9 n=60 v=64
299280 On ch=9 n=49 v=50
299280 On ch=9 n=64 v=50
299520 Off ch=9 n=49 v=64
299520 Off ch=9 n=64 v=64
299520 On ch=9 n=54 v=50
299520 On ch=9 n=67 v=50
299760 Off ch=9 n=54 v=64
299760 Off ch=9 n=67 v=64
299760 On ch=9 n=43 v=52
299760 On ch=9 n=57 v=52
299760 On ch=9 n=72 v=52
300000 Off ch=9 n=43 v=64
300000 Off ch=9 n=57 v=64
300000 Off ch=9 n=72 v=64
300000 On ch=9 n=46 v=52
300000 On ch=9 n=61 v=52
300000 On ch=9 n=76 v=52
300240 Off ch=9 n=46 v=64
300240 Off ch=9 n=61 v=64
300240 Off ch=9 n=76 v=64
300240 On ch=9 n=51 v=52
300240 On ch=9 n=64 v=52
300240 On ch=9 n=79 v=52
300480 Off ch=9 n=51 v=64
300480 Off ch=9 n=64 v=64
300480 Off ch=9 n=79 v=64
300480 On ch=9 n=52 v=52
300480 On ch=9 n=69 v=52
300480 On ch=9 n=82 v=52
300720 Off ch=9 n=52 v=64
300720 Off ch=9 n=69 v=64
300720 Off ch=9 n=82 v=64
300720 On ch=9 n=55 v=52
300720 On ch=9 n=73 v=52
300720 On ch=9 n=85 v=52
300960 Off ch=9 n=55 v=64
300960 Off ch=9 n=73 v=64
300960 Off ch=9 n=85 v=64
300960 On ch=9 n=60 v=52
300960 On ch=9 n=76 v=52
300960 On ch=9 n=90 v=52
301200 Off ch=9 n=60 v=64
301200 Off ch=9 n=76 v=64
301200 Off ch=9 n=90 v=64
301200 On ch=9 n=40 v=52
301200 On ch=9 n=64 v=52
301200 On ch=9 n=79 v=52
301440 Off ch=9 n=40 v=64
301440 Off ch=9 n=64 v=64
301440 Off ch=9 n=79 v=64
301440 On ch=9 n=45 v=52
301440 On ch=9 n=67 v=52
301440 On ch=9 n=82 v=52
301680 Off ch=9 n=45 v=64
301680 Off ch=9 n=67 v=64
301680 Off ch=9 n=82 v=64
301680 On ch=9 n=49 v=52
301680 On ch=9 n=72 v=52
301680 On ch=9 n=87 v=52
301920 Off ch=9 n=49 v=64
301920 Off ch=9 n=72 v=64
301920 Off ch=9 n=87 v=64
301920 On ch=9 n=64 v=52
301920 On ch=9 n=76 v=52
302160 Off ch=9 n=64 v=64
302160 Off ch=9 n=76 v=64
302160 On ch=9 n=67 v=52
302160 On ch=9 n=81 v=52
302400 Off ch=9 n=67 v=64
302400 Off ch=9 n=81 v=64
302400 On ch=9 n=72 v=52
302400 On ch=9 n=85 v=52
302640 Off ch=9 n=72 v=64
302640 Off ch=9 n=85 v=64
302640 On ch=9 n=76 v=54
302640 On ch=9 n=61 v=54
302880 Off ch=9 n=76 v=64
302880 Off ch=9 n=61 v=64
302880 On ch=9 n=79 v=54
302880 On ch=9 n=66 v=54
303120 Off ch=9 n=79 v=64
303120 Off ch=9 n=66 v=64
303120 On ch=9 n=84 v=54
303120 On ch=9 n=70 v=54
303360 Off ch=9 n=84 v=64
303360 Off ch=9 n=70 v=64
303360 On ch=9 n=73 v=54
303600 Off ch=9 n=73 v=64
303600 On ch=9 n=78 v=54
303840 Off ch=9 n=78 v=64
303840 On ch=9 n=82 v=54
304080 Off ch=9 n=82 v=64
304080 On ch=9 n=70 v=54
304320 Off ch=9 n=70 v=64
304320 On ch=9 n=75 v=54
304560 Off ch=9 n=75 v=64
304560 On ch=9 n=79 v=54
304800 Off ch=9 n=79 v=64
417360 On ch=9 n=41 v=64
417360 On ch=9 n=48 v=64
417600 Off ch=9 n=41 v=64
417600 Off ch=9 n=48 v=64
417840 On ch=9 n=49 v=64
417840 On ch=9 n=42 v=64
418080 Off ch=9 n=49 v=64
418080 Off ch=9 n=42 v=64
418320 On ch=9 n=51 v=64
418320 On ch=9 n=44 v=64
418560 Off ch=9 n=51 v=64
418560 Off ch=9 n=44 v=64
419280 On ch=9 n=48 v=64
419280 On ch=9 n=41 v=64
419520 Off ch=9 n=48 v=64
419520 Off ch=9 n=41 v=64
419760 On ch=9 n=42 v=64
419760 On ch=9 n=49 v=64
420000 Off ch=9 n=42 v=64
420000 Off ch=9 n=49 v=64
420240 On ch=9 n=51 v=64
420240 On ch=9 n=44 v=64
420480 Off ch=9 n=51 v=64
420480 Off ch=9 n=44 v=64
421200 On ch=9 n=41 v=64
421200 On ch=9 n=48 v=64
421440 Off ch=9 n=41 v=64
421440 Off ch=9 n=48 v=64
421680 On ch=9 n=42 v=64
421680 On ch=9 n=49 v=64
421920 Off ch=9 n=42 v=64
421920 Off ch=9 n=49 v=64
422160 On ch=9 n=51 v=64
422160 On ch=9 n=44 v=64
422400 Off ch=9 n=51 v=64
422400 Off ch=9 n=44 v=64
425040 On ch=9 n=41 v=64
425040 On ch=9 n=48 v=64
425280 Off ch=9 n=41 v=64
425280 Off ch=9 n=48 v=64
425520 On ch=9 n=49 v=64
425520 On ch=9 n=42 v=64
425760 Off ch=9 n=49 v=64
425760 Off ch=9 n=42 v=64
426000 On ch=9 n=51 v=64
426000 On ch=9 n=44 v=64
426240 Off ch=9 n=51 v=64
426240 Off ch=9 n=44 v=64
426960 On ch=9 n=48 v=64
426960 On ch=9 n=41 v=64
427200 Off ch=9 n=48 v=64
427200 Off ch=9 n=41 v=64
427440 On ch=9 n=42 v=64
427440 On ch=9 n=49 v=64
427680 Off ch=9 n=42 v=64
427680 Off ch=9 n=49 v=64
427920 On ch=9 n=51 v=64
427920 On ch=9 n=44 v=64
428160 Off ch=9 n=51 v=64
428160 Off ch=9 n=44 v=64
432240 On ch=9 n=48 v=64
432240 On ch=9 n=41 v=64
432480 Off ch=9 n=48 v=64
432480 Off ch=9 n=41 v=64
432720 On ch=9 n=42 v=64
432720 On ch=9 n=49 v=64
432960 Off ch=9 n=42 v=64
432960 Off ch=9 n=49 v=64
433200 On ch=9 n=51 v=64
433200 On ch=9 n=44 v=64
433440 Off ch=9 n=51 v=64
433440 Off ch=9 n=44 v=64
434160 On ch=9 n=48 v=64
434160 On ch=9 n=41 v=64
434400 Off ch=9 n=48 v=64
434400 Off ch=9 n=41 v=64
434640 On ch=9 n=42 v=64
434640 On ch=9 n=49 v=64
434880 Off ch=9 n=42 v=64
434880 Off ch=9 n=49 v=64
435120 On ch=9 n=51 v=64
435120 On ch=9 n=44 v=64
435360 Off ch=9 n=51 v=64
435360 Off ch=9 n=44 v=64
436080 On ch=9 n=48 v=64
436080 On ch=9 n=41 v=64
436320 Off ch=9 n=48 v=64
436320 Off ch=9 n=41 v=64
436560 On ch=9 n=42 v=64
436560 On ch=9 n=49 v=64
436800 Off ch=9 n=42 v=64
436800 Off ch=9 n=49 v=64
437040 On ch=9 n=51 v=64
437040 On ch=9 n=44 v=64
437280 Off ch=9 n=51 v=64
437280 Off ch=9 n=44 v=64
438000 On ch=9 n=48 v=64
438000 On ch=9 n=41 v=64
438240 Off ch=9 n=48 v=64
438240 Off ch=9 n=41 v=64
438480 On ch=9 n=42 v=64
438480 On ch=9 n=49 v=64
438720 Off ch=9 n=42 v=64
438720 Off ch=9 n=49 v=64
438960 On ch=9 n=51 v=64
438960 On ch=9 n=44 v=64
439200 Off ch=9 n=51 v=64
439200 Off ch=9 n=44 v=64
439920 On ch=9 n=48 v=64
439920 On ch=9 n=41 v=64
440160 Off ch=9 n=48 v=64
440160 Off ch=9 n=41 v=64
440400 On ch=9 n=42 v=64
440400 On ch=9 n=49 v=64
440640 Off ch=9 n=42 v=64
440640 Off ch=9 n=49 v=64
440880 On ch=9 n=51 v=64
440880 On ch=9 n=44 v=64
441120 Off ch=9 n=51 v=64
441120 Off ch=9 n=44 v=64
441840 On ch=9 n=48 v=64
441840 On ch=9 n=41 v=64
442080 Off ch=9 n=48 v=64
442080 Off ch=9 n=41 v=64
442320 On ch=9 n=42 v=64
442320 On ch=9 n=49 v=64
442560 Off ch=9 n=42 v=64
442560 Off ch=9 n=49 v=64
442800 On ch=9 n=51 v=64
442800 On ch=9 n=44 v=64
443040 Off ch=9 n=51 v=64
443040 Off ch=9 n=44 v=64
443760 On ch=9 n=48 v=64
443760 On ch=9 n=41 v=64
444000 Off ch=9 n=48 v=64
444000 Off ch=9 n=41 v=64
444240 On ch=9 n=42 v=64
444240 On ch=9 n=49 v=64
444480 Off ch=9 n=42 v=64
444480 Off ch=9 n=49 v=64
444720 On ch=9 n=51 v=64
444720 On ch=9 n=44 v=64
444960 Off ch=9 n=51 v=64
444960 Off ch=9 n=44 v=64
445680 On ch=9 n=48 v=64
445680 On ch=9 n=41 v=64
445920 Off ch=9 n=48 v=64
445920 Off ch=9 n=41 v=64
446160 On ch=9 n=42 v=64
446160 On ch=9 n=49 v=64
446400 Off ch=9 n=42 v=64
446400 Off ch=9 n=49 v=64
446640 On ch=9 n=51 v=64
446640 On ch=9 n=44 v=64
446880 Off ch=9 n=51 v=64
446880 Off ch=9 n=44 v=64
447600 On ch=9 n=48 v=64
447600 On ch=9 n=41 v=64
447840 Off ch=9 n=48 v=64
447840 Off ch=9 n=41 v=64
448080 On ch=9 n=42 v=64
448080 On ch=9 n=49 v=64
448320 Off ch=9 n=42 v=64
448320 Off ch=9 n=49 v=64
448560 On ch=9 n=51 v=64
448560 On ch=9 n=44 v=64
448800 Off ch=9 n=51 v=64
448800 Off ch=9 n=44 v=64
449520 On ch=9 n=48 v=64
449520 On ch=9 n=41 v=64
449760 Off ch=9 n=48 v=64
449760 Off ch=9 n=41 v=64
450000 On ch=9 n=42 v=64
450000 On ch=9 n=49 v=64
450240 Off ch=9 n=42 v=64
450240 Off ch=9 n=49 v=64
450480 On ch=9 n=51 v=64
450480 On ch=9 n=44 v=64
450720 Off ch=9 n=51 v=64
450720 Off ch=9 n=44 v=64
451440 On ch=9 n=48 v=64
451440 On ch=9 n=41 v=64
451680 Off ch=9 n=48 v=64
451680 Off ch=9 n=41 v=64
451920 On ch=9 n=42 v=64
451920 On ch=9 n=49 v=64
452160 Off ch=9 n=42 v=64
452160 Off ch=9 n=49 v=64
452400 On ch=9 n=51 v=64
452400 On ch=9 n=44 v=64
452640 Off ch=9 n=51 v=64
452640 Off ch=9 n=44 v=64
452880 On ch=9 n=53 v=64
452880 On ch=9 n=46 v=64
453120 Off ch=9 n=53 v=64
453120 Off ch=9 n=46 v=64
453360 On ch=9 n=51 v=64
453360 On ch=9 n=44 v=64
453600 Off ch=9 n=51 v=64
453600 Off ch=9 n=44 v=64
454320 On ch=9 n=48 v=64
454320 On ch=9 n=41 v=64
454560 Off ch=9 n=48 v=64
454560 Off ch=9 n=41 v=64
454800 On ch=9 n=42 v=64
454800 On ch=9 n=49 v=64
455040 Off ch=9 n=42 v=64
455040 Off ch=9 n=49 v=64
455280 On ch=9 n=51 v=64
455280 On ch=9 n=44 v=64
455520 Off ch=9 n=51 v=64
455520 Off ch=9 n=44 v=64
456240 On ch=9 n=41 v=64
456240 On ch=9 n=48 v=64
456480 Off ch=9 n=41 v=64
456480 Off ch=9 n=48 v=64
456720 On ch=9 n=42 v=64
456720 On ch=9 n=49 v=64
456960 Off ch=9 n=42 v=64
456960 Off ch=9 n=49 v=64
457200 On ch=9 n=51 v=64
457200 On ch=9 n=44 v=64
457440 Off ch=9 n=51 v=64
457440 Off ch=9 n=44 v=64
460080 On ch=9 n=41 v=64
460080 On ch=9 n=48 v=64
460320 Off ch=9 n=41 v=64
460320 Off ch=9 n=48 v=64
460560 On ch=9 n=49 v=64
460560 On ch=9 n=42 v=64
460800 Off ch=9 n=49 v=64
460800 Off ch=9 n=42 v=64
461040 On ch=9 n=51 v=64
461040 On ch=9 n=44 v=64
461280 Off ch=9 n=51 v=64
461280 Off ch=9 n=44 v=64
524160 Meta TrkEnd
TrkEnd
MTrk
0 Meta InstrName "SC-88VL"
0 Meta TrkName "percc"
480 PrCh ch=10 p=48
960 Par ch=10 c=93 v=0
960 Par ch=10 c=91 v=110
970 Par ch=10 c=7 v=100
154080 On ch=10 n=50 v=122
154240 Off ch=10 n=50 v=64
154240 On ch=10 n=50 v=122
154400 Off ch=10 n=50 v=64
154400 On ch=10 n=43 v=122
154560 Off ch=10 n=43 v=64
197280 On ch=10 n=49 v=35
197328 Off ch=10 n=49 v=64
197520 On ch=10 n=46 v=35
197568 Off ch=10 n=46 v=64
197760 On ch=10 n=51 v=35
197808 Off ch=10 n=51 v=64
198000 On ch=10 n=46 v=35
198048 Off ch=10 n=46 v=64
198240 On ch=10 n=49 v=35
198288 Off ch=10 n=49 v=64
198480 On ch=10 n=46 v=35
198528 Off ch=10 n=46 v=64
198720 On ch=10 n=51 v=35
198768 Off ch=10 n=51 v=64
198960 On ch=10 n=46 v=35
199008 Off ch=10 n=46 v=64
199200 On ch=10 n=49 v=35
199248 Off ch=10 n=49 v=64
199440 On ch=10 n=46 v=35
199488 Off ch=10 n=46 v=64
199680 On ch=10 n=51 v=35
199728 Off ch=10 n=51 v=64
199920 On ch=10 n=46 v=35
199968 Off ch=10 n=46 v=64
200160 On ch=10 n=49 v=35
200208 Off ch=10 n=49 v=64
200400 On ch=10 n=46 v=35
200448 Off ch=10 n=46 v=64
200640 On ch=10 n=51 v=35
200688 Off ch=10 n=51 v=64
200880 On ch=10 n=46 v=35
200928 Off ch=10 n=46 v=64
201120 On ch=10 n=49 v=43
201168 Off ch=10 n=49 v=64
201360 On ch=10 n=46 v=43
201408 Off ch=10 n=46 v=64
201600 On ch=10 n=51 v=43
201648 Off ch=10 n=51 v=64
201840 On ch=10 n=46 v=43
201888 Off ch=10 n=46 v=64
202080 On ch=10 n=49 v=43
202128 Off ch=10 n=49 v=64
202320 On ch=10 n=46 v=43
202368 Off ch=10 n=46 v=64
202560 On ch=10 n=51 v=43
202608 Off ch=10 n=51 v=64
202800 On ch=10 n=46 v=43
202848 Off ch=10 n=46 v=64
203040 On ch=10 n=49 v=43
203088 Off ch=10 n=49 v=64
203280 On ch=10 n=46 v=43
203328 Off ch=10 n=46 v=64
203520 On ch=10 n=51 v=43
203568 Off ch=10 n=51 v=64
203760 On ch=10 n=46 v=43
203808 Off ch=10 n=46 v=64
204000 On ch=10 n=49 v=43
204048 Off ch=10 n=49 v=64
204240 On ch=10 n=46 v=43
204288 Off ch=10 n=46 v=64
204480 On ch=10 n=51 v=43
204528 Off ch=10 n=51 v=64
204720 On ch=10 n=46 v=43
204768 Off ch=10 n=46 v=64
204960 On ch=10 n=49 v=43
205008 Off ch=10 n=49 v=64
205200 On ch=10 n=46 v=43
205248 Off ch=10 n=46 v=64
205440 On ch=10 n=51 v=43
205488 Off ch=10 n=51 v=64
205680 On ch=10 n=46 v=43
205728 Off ch=10 n=46 v=64
205920 On ch=10 n=49 v=43
205968 Off ch=10 n=49 v=64
206160 On ch=10 n=46 v=43
206208 Off ch=10 n=46 v=64
206400 On ch=10 n=51 v=43
206448 Off ch=10 n=51 v=64
206640 On ch=10 n=46 v=43
206688 Off ch=10 n=46 v=64
206880 On ch=10 n=49 v=43
206880 On ch=10 n=81 v=45
206928 Off ch=10 n=49 v=64
207120 On ch=10 n=46 v=43
207168 Off ch=10 n=46 v=64
207360 Off ch=10 n=81 v=64
207360 On ch=10 n=51 v=43
207360 On ch=10 n=81 v=45
207408 Off ch=10 n=51 v=64
207600 On ch=10 n=46 v=43
207648 Off ch=10 n=46 v=64
207840 Off ch=10 n=81 v=64
207840 On ch=10 n=49 v=43
207840 On ch=10 n=81 v=45
207888 Off ch=10 n=49 v=64
208080 On ch=10 n=46 v=43
208128 Off ch=10 n=46 v=64
208320 Off ch=10 n=81 v=64
208320 On ch=10 n=51 v=43
208320 On ch=10 n=81 v=45
208368 Off ch=10 n=51 v=64
208560 On ch=10 n=46 v=43
208608 Off ch=10 n=46 v=64
208800 Off ch=10 n=81 v=64
208800 On ch=10 n=49 v=43
208800 On ch=10 n=81 v=45
208848 Off ch=10 n=49 v=64
209040 On ch=10 n=46 v=43
209088 Off ch=10 n=46 v=64
209280 Off ch=10 n=81 v=64
209280 On ch=10 n=51 v=43
209280 On ch=10 n=81 v=45
209328 Off ch=10 n=51 v=64
209520 On ch=10 n=46 v=43
209568 Off ch=10 n=46 v=64
209760 Off ch=10 n=81 v=64
209760 On ch=10 n=49 v=43
209760 On ch=10 n=81 v=45
209808 Off ch=10 n=49 v=64
210000 On ch=10 n=46 v=43
210048 Off ch=10 n=46 v=64
210240 Off ch=10 n=81 v=64
210240 On ch=10 n=51 v=43
210240 On ch=10 n=81 v=45
210288 Off ch=10 n=51 v=64
210480 On ch=10 n=46 v=43
210528 Off ch=10 n=46 v=64
210720 Off ch=10 n=81 v=64
210720 On ch=10 n=49 v=43
210720 On ch=10 n=81 v=45
210768 Off ch=10 n=49 v=64
210960 On ch=10 n=46 v=43
211008 Off ch=10 n=46 v=64
211200 Off ch=10 n=81 v=64
211200 On ch=10 n=51 v=43
211200 On ch=10 n=81 v=45
211248 Off ch=10 n=51 v=64
211440 On ch=10 n=46 v=43
211488 Off ch=10 n=46 v=64
211680 Off ch=10 n=81 v=64
211680 On ch=10 n=49 v=43
211680 On ch=10 n=81 v=45
211728 Off ch=10 n=49 v=64
211920 On ch=10 n=46 v=43
211968 Off ch=10 n=46 v=64
212160 Off ch=10 n=81 v=64
212160 On ch=10 n=51 v=43
212160 On ch=10 n=81 v=45
212208 Off ch=10 n=51 v=64
212400 On ch=10 n=46 v=43
212448 Off ch=10 n=46 v=64
212640 Off ch=10 n=81 v=64
212640 On ch=10 n=49 v=43
212640 On ch=10 n=81 v=45
212688 Off ch=10 n=49 v=64
212880 On ch=10 n=46 v=43
212928 Off ch=10 n=46 v=64
213120 Off ch=10 n=81 v=64
213120 On ch=10 n=51 v=43
213120 On ch=10 n=81 v=45
213168 Off ch=10 n=51 v=64
213360 On ch=10 n=46 v=43
213408 Off ch=10 n=46 v=64
213600 Off ch=10 n=81 v=64
213600 On ch=10 n=49 v=43
213600 On ch=10 n=81 v=45
213648 Off ch=10 n=49 v=64
213840 On ch=10 n=46 v=43
213888 Off ch=10 n=46 v=64
214080 Off ch=10 n=81 v=64
214080 On ch=10 n=51 v=43
214080 On ch=10 n=81 v=45
214128 Off ch=10 n=51 v=64
214320 On ch=10 n=46 v=43
214368 Off ch=10 n=46 v=64
214560 Off ch=10 n=81 v=64
244560 On ch=10 n=41 v=106
244800 Off ch=10 n=41 v=64
245040 On ch=10 n=43 v=106
245280 Off ch=10 n=43 v=64
248400 On ch=10 n=41 v=106
248640 Off ch=10 n=41 v=64
248880 On ch=10 n=43 v=106
249120 Off ch=10 n=43 v=64
252240 On ch=10 n=41 v=106
252480 Off ch=10 n=41 v=64
252720 On ch=10 n=43 v=106
252960 Off ch=10 n=43 v=64
252960 On ch=10 n=48 v=102
253320 Off ch=10 n=48 v=64
255480 On ch=10 n=42 v=102
255840 Off ch=10 n=42 v=64
256920 On ch=10 n=42 v=102
257280 Off ch=10 n=42 v=64
257640 On ch=10 n=42 v=102
258000 Off ch=10 n=42 v=64
313920 On ch=10 n=48 v=80
314040 Off ch=10 n=48 v=64
314160 On ch=10 n=48 v=80
314280 Off ch=10 n=48 v=64
314400 On ch=10 n=48 v=80
314520 Off ch=10 n=48 v=64
314640 On ch=10 n=48 v=80
314760 Off ch=10 n=48 v=64
314880 On ch=10 n=48 v=80
315000 Off ch=10 n=48 v=64
315120 On ch=10 n=48 v=80
315240 Off ch=10 n=48 v=64
315360 On ch=10 n=48 v=80
315480 Off ch=10 n=48 v=64
315600 On ch=10 n=48 v=80
315720 Off ch=10 n=48 v=64
315840 On ch=10 n=48 v=80
315960 Off ch=10 n=48 v=64
316080 On ch=10 n=48 v=80
316200 Off ch=10 n=48 v=64
316320 On ch=10 n=48 v=80
316440 Off ch=10 n=48 v=64
316560 On ch=10 n=48 v=80
316680 Off ch=10 n=48 v=64
331200 On ch=10 n=44 v=112
331440 Off ch=10 n=44 v=64
334080 On ch=10 n=41 v=120
334320 Off ch=10 n=41 v=64
337200 On ch=10 n=41 v=98
337440 Off ch=10 n=41 v=64
342720 On ch=10 n=48 v=98
342960 Off ch=10 n=48 v=64
348960 On ch=10 n=48 v=98
349200 Off ch=10 n=48 v=64
350880 On ch=10 n=48 v=98
351120 Off ch=10 n=48 v=64
351360 On ch=10 n=48 v=98
351600 Off ch=10 n=48 v=64
355200 On ch=10 n=48 v=98
355440 Off ch=10 n=48 v=64
357120 On ch=10 n=48 v=98
357360 Off ch=10 n=48 v=64
358560 On ch=10 n=48 v=98
358800 Off ch=10 n=48 v=64
360000 On ch=10 n=48 v=98
360240 Off ch=10 n=48 v=64
360960 On ch=10 n=48 v=98
361200 Off ch=10 n=48 v=64
524160 Meta TrkEnd
TrkEnd
MTrk
0 Meta InstrName "SC-88VL"
0 Meta TrkName "Perc"
480 Par ch=11 c=7 v=100
960 Par ch=11 c=93 v=0
960 Par ch=11 c=91 v=110
970 Par ch=11 c=7 v=100
1200 PrCh ch=11 p=48
524160 Meta TrkEnd
TrkEnd
MTrk
0 Meta InstrName "SC-88VL"
0 Meta TrkName "Str #2"
960 Par ch=12 c=93 v=0
960 Par ch=12 c=91 v=110
970 Par ch=12 c=7 v=100
1200 Par ch=12 c=0 v=0
1200 Par ch=12 c=32 v=2
1200 PrCh ch=12 p=71
23520 Par ch=12 c=0 v=0
23520 Par ch=12 c=32 v=1
23520 PrCh ch=12 p=71
24960 On ch=12 n=68 v=34
24990 Off ch=12 n=68 v=64
24990 On ch=12 n=70 v=34
25020 Off ch=12 n=70 v=64
25020 On ch=12 n=68 v=34
25050 Off ch=12 n=68 v=64
25050 On ch=12 n=70 v=34
25080 Off ch=12 n=70 v=64
25080 On ch=12 n=68 v=34
25110 Off ch=12 n=68 v=64
25110 On ch=12 n=70 v=34
25140 Off ch=12 n=70 v=64
25140 On ch=12 n=68 v=34
25170 Off ch=12 n=68 v=64
25170 On ch=12 n=70 v=34
25200 Off ch=12 n=70 v=64
25200 On ch=12 n=68 v=34
25230 Off ch=12 n=68 v=64
25230 On ch=12 n=70 v=34
25260 Off ch=12 n=70 v=64
25260 On ch=12 n=68 v=34
25290 Off ch=12 n=68 v=64
25290 On ch=12 n=70 v=34
25320 Off ch=12 n=70 v=64
25320 On ch=12 n=68 v=34
25350 Off ch=12 n=68 v=64
25350 On ch=12 n=70 v=34
25380 Off ch=12 n=70 v=64
25380 On ch=12 n=68 v=34
25410 Off ch=12 n=68 v=64
25410 On ch=12 n=70 v=34
25440 Off ch=12 n=70 v=64
25440 On ch=12 n=68 v=34
25470 Off ch=12 n=68 v=64
25470 On ch=12 n=70 v=34
25500 Off ch=12 n=70 v=64
25500 On ch=12 n=68 v=34
25530 Off ch=12 n=68 v=64
25530 On ch=12 n=70 v=34
25560 Off ch=12 n=70 v=64
25560 On ch=12 n=68 v=34
25590 Off ch=12 n=68 v=64
25590 On ch=12 n=70 v=34
25620 Off ch=12 n=70 v=64
25620 On ch=12 n=68 v=34
25650 Off ch=12 n=68 v=64
25650 On ch=12 n=70 v=34
25680 Off ch=12 n=70 v=64
25680 On ch=12 n=68 v=34
25710 Off ch=12 n=68 v=64
25710 On ch=12 n=70 v=34
25740 Off ch=12 n=70 v=64
25740 On ch=12 n=68 v=34
25770 Off ch=12 n=68 v=64
25770 On ch=12 n=70 v=34
25800 Off ch=12 n=70 v=64
25800 On ch=12 n=68 v=34
25830 Off ch=12 n=68 v=64
25830 On ch=12 n=70 v=34
25860 Off ch=12 n=70 v=64
25860 On ch=12 n=68 v=34
25890 Off ch=12 n=68 v=64
25890 On ch=12 n=70 v=34
25920 Off ch=12 n=70 v=64
25920 On ch=12 n=68 v=34
25950 Off ch=12 n=68 v=64
25950 On ch=12 n=70 v=34
25980 Off ch=12 n=70 v=64
25980 On ch=12 n=68 v=34
26010 Off ch=12 n=68 v=64
26010 On ch=12 n=70 v=34
26040 Off ch=12 n=70 v=64
26040 On ch=12 n=68 v=34
26070 Off ch=12 n=68 v=64
26070 On ch=12 n=70 v=34
26100 Off ch=12 n=70 v=64
26100 On ch=12 n=68 v=34
26130 Off ch=12 n=68 v=64
26130 On ch=12 n=70 v=34
26160 Off ch=12 n=70 v=64
26160 On ch=12 n=68 v=34
26190 Off ch=12 n=68 v=64
26190 On ch=12 n=70 v=34
26220 Off ch=12 n=70 v=64
26220 On ch=12 n=68 v=34
26250 Off ch=12 n=68 v=64
26250 On ch=12 n=70 v=34
26280 Off ch=12 n=70 v=64
26280 On ch=12 n=68 v=34
26310 Off ch=12 n=68 v=64
26310 On ch=12 n=70 v=34
26340 Off ch=12 n=70 v=64
26340 On ch=12 n=68 v=34
26370 Off ch=12 n=68 v=64
26370 On ch=12 n=70 v=34
26400 Off ch=12 n=70 v=64
26400 On ch=12 n=68 v=34
26430 Off ch=12 n=68 v=64
26430 On ch=12 n=70 v=34
26460 Off ch=12 n=70 v=64
26460 On ch=12 n=68 v=34
26490 Off ch=12 n=68 v=64
26490 On ch=12 n=70 v=34
26520 Off ch=12 n=70 v=64
26520 On ch=12 n=68 v=34
26550 Off ch=12 n=68 v=64
26550 On ch=12 n=70 v=34
26580 Off ch=12 n=70 v=64
26580 On ch=12 n=68 v=34
26610 Off ch=12 n=68 v=64
26610 On ch=12 n=70 v=34
26640 Off ch=12 n=70 v=64
26640 On ch=12 n=68 v=34
26670 Off ch=12 n=68 v=64
26670 On ch=12 n=70 v=34
26700 Off ch=12 n=70 v=64
26700 On ch=12 n=68 v=34
26730 Off ch=12 n=68 v=64
26730 On ch=12 n=70 v=34
26760 Off ch=12 n=70 v=64
26760 On ch=12 n=68 v=34
26790 Off ch=12 n=68 v=64
26790 On ch=12 n=70 v=34
26820 Off ch=12 n=70 v=64
26820 On ch=12 n=68 v=34
26850 Off ch=12 n=68 v=64
26850 On ch=12 n=70 v=34
26880 Off ch=12 n=70 v=64
26880 On ch=12 n=68 v=34
26910 Off ch=12 n=68 v=64
26910 On ch=12 n=70 v=34
26940 Off ch=12 n=70 v=64
26940 On ch=12 n=68 v=34
26970 Off ch=12 n=68 v=64
26970 On ch=12 n=70 v=34
27000 Off ch=12 n=70 v=64
27000 On ch=12 n=68 v=34
27030 Off ch=12 n=68 v=64
27030 On ch=12 n=70 v=34
27060 Off ch=12 n=70 v=64
27060 On ch=12 n=68 v=34
27090 Off ch=12 n=68 v=64
27090 On ch=12 n=70 v=34
27120 Off ch=12 n=70 v=64
27120 On ch=12 n=68 v=34
27150 Off ch=12 n=68 v=64
27150 On ch=12 n=70 v=34
27180 Off ch=12 n=70 v=64
27180 On ch=12 n=68 v=34
27210 Off ch=12 n=68 v=64
27210 On ch=12 n=70 v=34
27240 Off ch=12 n=70 v=64
27240 On ch=12 n=68 v=34
27270 Off ch=12 n=68 v=64
27270 On ch=12 n=70 v=34
27300 Off ch=12 n=70 v=64
27300 On ch=12 n=68 v=34
27330 Off ch=12 n=68 v=64
27330 On ch=12 n=70 v=34
27360 Off ch=12 n=70 v=64
27360 On ch=12 n=68 v=34
27390 Off ch=12 n=68 v=64
27390 On ch=12 n=70 v=34
27420 Off ch=12 n=70 v=64
27420 On ch=12 n=68 v=34
27450 Off ch=12 n=68 v=64
27450 On ch=12 n=70 v=34
27480 Off ch=12 n=70 v=64
27480 On ch=12 n=68 v=34
27510 Off ch=12 n=68 v=64
27510 On ch=12 n=70 v=34
27540 Off ch=12 n=70 v=64
27540 On ch=12 n=68 v=34
27570 Off ch=12 n=68 v=64
27570 On ch=12 n=70 v=34
27600 Off ch=12 n=70 v=64
27600 On ch=12 n=68 v=34
27630 Off ch=12 n=68 v=64
27630 On ch=12 n=70 v=34
27660 Off ch=12 n=70 v=64
27660 On ch=12 n=68 v=34
27690 Off ch=12 n=68 v=64
27690 On ch=12 n=70 v=34
27720 Off ch=12 n=70 v=64
27720 On ch=12 n=68 v=34
27750 Off ch=12 n=68 v=64
27750 On ch=12 n=70 v=34
27780 Off ch=12 n=70 v=64
27780 On ch=12 n=68 v=34
27810 Off ch=12 n=68 v=64
27810 On ch=12 n=70 v=34
27840 Off ch=12 n=70 v=64
27840 On ch=12 n=68 v=34
27870 Off ch=12 n=68 v=64
27870 On ch=12 n=70 v=34
27900 Off ch=12 n=70 v=64
27900 On ch=12 n=68 v=34
27930 Off ch=12 n=68 v=64
27930 On ch=12 n=70 v=34
27960 Off ch=12 n=70 v=64
27960 On ch=12 n=68 v=34
27990 Off ch=12 n=68 v=64
27990 On ch=12 n=70 v=34
28020 Off ch=12 n=70 v=64
28020 On ch=12 n=68 v=34
28050 Off ch=12 n=68 v=64
28050 On ch=12 n=70 v=34
28080 Off ch=12 n=70 v=64
28080 On ch=12 n=68 v=34
28110 Off ch=12 n=68 v=64
28110 On ch=12 n=70 v=34
28140 Off ch=12 n=70 v=64
28140 On ch=12 n=68 v=34
28170 Off ch=12 n=68 v=64
28170 On ch=12 n=70 v=34
28200 Off ch=12 n=70 v=64
28200 On ch=12 n=68 v=34
28230 Off ch=12 n=68 v=64
28230 On ch=12 n=70 v=34
28260 Off ch=12 n=70 v=64
28260 On ch=12 n=68 v=34
28290 Off ch=12 n=68 v=64
28290 On ch=12 n=70 v=34
28320 Off ch=12 n=70 v=64
28320 On ch=12 n=68 v=34
28350 Off ch=12 n=68 v=64
28350 On ch=12 n=70 v=34
28380 Off ch=12 n=70 v=64
28380 On ch=12 n=68 v=34
28410 Off ch=12 n=68 v=64
28410 On ch=12 n=70 v=34
28440 Off ch=12 n=70 v=64
28440 On ch=12 n=68 v=34
28470 Off ch=12 n=68 v=64
28470 On ch=12 n=70 v=34
28500 Off ch=12 n=70 v=64
28500 On ch=12 n=68 v=34
28530 Off ch=12 n=68 v=64
28530 On ch=12 n=70 v=34
28560 Off ch=12 n=70 v=64
28560 On ch=12 n=68 v=34
28590 Off ch=12 n=68 v=64
28590 On ch=12 n=70 v=34
28620 Off ch=12 n=70 v=64
28620 On ch=12 n=68 v=34
28650 Off ch=12 n=68 v=64
28650 On ch=12 n=70 v=34
28680 Off ch=12 n=70 v=64
28680 On ch=12 n=68 v=34
28710 Off ch=12 n=68 v=64
28710 On ch=12 n=70 v=34
28740 Off ch=12 n=70 v=64
28740 On ch=12 n=68 v=34
28770 Off ch=12 n=68 v=64
28770 On ch=12 n=70 v=34
28800 Off ch=12 n=70 v=64
28800 On ch=12 n=68 v=34
28830 Off ch=12 n=68 v=64
28830 On ch=12 n=70 v=34
28860 Off ch=12 n=70 v=64
28860 On ch=12 n=68 v=34
28890 Off ch=12 n=68 v=64
28890 On ch=12 n=70 v=34
28920 Off ch=12 n=70 v=64
28920 On ch=12 n=68 v=34
28950 Off ch=12 n=68 v=64
28950 On ch=12 n=70 v=34
28980 Off ch=12 n=70 v=64
28980 On ch=12 n=68 v=34
29010 Off ch=12 n=68 v=64
29010 On ch=12 n=70 v=34
29040 Off ch=12 n=70 v=64
29040 On ch=12 n=68 v=34
29070 Off ch=12 n=68 v=64
29070 On ch=12 n=70 v=34
29100 Off ch=12 n=70 v=64
29100 On ch=12 n=68 v=34
29130 Off ch=12 n=68 v=64
29130 On ch=12 n=70 v=34
29160 Off ch=12 n=70 v=64
29160 On ch=12 n=68 v=34
29190 Off ch=12 n=68 v=64
29190 On ch=12 n=70 v=34
29220 Off ch=12 n=70 v=64
29220 On ch=12 n=68 v=34
29250 Off ch=12 n=68 v=64
29250 On ch=12 n=70 v=34
29280 Off ch=12 n=70 v=64
29280 On ch=12 n=68 v=34
29310 Off ch=12 n=68 v=64
29310 On ch=12 n=70 v=34
29340 Off ch=12 n=70 v=64
29340 On ch=12 n=68 v=34
29370 Off ch=12 n=68 v=64
29370 On ch=12 n=70 v=34
29400 Off ch=12 n=70 v=64
29400 On ch=12 n=68 v=34
29430 Off ch=12 n=68 v=64
29430 On ch=12 n=70 v=34
29460 Off ch=12 n=70 v=64
29460 On ch=12 n=68 v=34
29490 Off ch=12 n=68 v=64
29490 On ch=12 n=70 v=34
29520 Off ch=12 n=70 v=64
29520 On ch=12 n=68 v=34
29550 Off ch=12 n=68 v=64
29550 On ch=12 n=70 v=34
29580 Off ch=12 n=70 v=64
29580 On ch=12 n=68 v=34
29610 Off ch=12 n=68 v=64
29610 On ch=12 n=70 v=34
29640 Off ch=12 n=70 v=64
29640 On ch=12 n=68 v=34
29670 Off ch=12 n=68 v=64
29670 On ch=12 n=70 v=34
29700 Off ch=12 n=70 v=64
29700 On ch=12 n=68 v=34
29730 Off ch=12 n=68 v=64
29730 On ch=12 n=70 v=34
29760 Off ch=12 n=70 v=64
29760 On ch=12 n=68 v=34
29790 Off ch=12 n=68 v=64
29790 On ch=12 n=70 v=34
29820 Off ch=12 n=70 v=64
29820 On ch=12 n=68 v=34
29850 Off ch=12 n=68 v=64
29850 On ch=12 n=70 v=34
29880 Off ch=12 n=70 v=64
29880 On ch=12 n=68 v=34
29910 Off ch=12 n=68 v=64
29910 On ch=12 n=70 v=34
29940 Off ch=12 n=70 v=64
29940 On ch=12 n=68 v=34
29970 Off ch=12 n=68 v=64
29970 On ch=12 n=70 v=34
30000 Off ch=12 n=70 v=64
30000 On ch=12 n=68 v=34
30030 Off ch=12 n=68 v=64
30030 On ch=12 n=70 v=34
30060 Off ch=12 n=70 v=64
30060 On ch=12 n=68 v=34
30090 Off ch=12 n=68 v=64
30090 On ch=12 n=70 v=34
30120 Off ch=12 n=70 v=64
30120 On ch=12 n=68 v=34
30150 Off ch=12 n=68 v=64
30150 On ch=12 n=70 v=34
30180 Off ch=12 n=70 v=64
30180 On ch=12 n=68 v=34
30210 Off ch=12 n=68 v=64
30210 On ch=12 n=70 v=34
30240 Off ch=12 n=70 v=64
30240 On ch=12 n=68 v=34
30270 Off ch=12 n=68 v=64
30270 On ch=12 n=70 v=34
30300 Off ch=12 n=70 v=64
30300 On ch=12 n=68 v=34
30330 Off ch=12 n=68 v=64
30330 On ch=12 n=70 v=34
30360 Off ch=12 n=70 v=64
30360 On ch=12 n=68 v=34
30390 Off ch=12 n=68 v=64
30390 On ch=12 n=70 v=34
30420 Off ch=12 n=70 v=64
30420 On ch=12 n=68 v=34
30450 Off ch=12 n=68 v=64
30450 On ch=12 n=70 v=34
30480 Off ch=12 n=70 v=64
30480 On ch=12 n=68 v=34
30510 Off ch=12 n=68 v=64
30510 On ch=12 n=70 v=34
30540 Off ch=12 n=70 v=64
30540 On ch=12 n=68 v=34
30570 Off ch=12 n=68 v=64
30570 On ch=12 n=70 v=34
30600 Off ch=12 n=70 v=64
30600 On ch=12 n=68 v=34
30630 Off ch=12 n=68 v=64
30630 On ch=12 n=70 v=34
30660 Off ch=12 n=70 v=64
30660 On ch=12 n=67 v=34
30690 Off ch=12 n=67 v=64
30690 On ch=12 n=68 v=34
30720 Off ch=12 n=68 v=64
32640 Par ch=12 c=0 v=0
32640 Par ch=12 c=32 v=2
32640 PrCh ch=12 p=71
34220 On ch=12 n=38 v=52
34240 On ch=12 n=40 v=52
34268 Off ch=12 n=38 v=64
34312 Off ch=12 n=40 v=64
34400 On ch=12 n=40 v=51
34472 Off ch=12 n=40 v=64
34536 On ch=12 n=38 v=52
34560 On ch=12 n=40 v=52
34584 Off ch=12 n=38 v=64
34632 Off ch=12 n=40 v=64
34656 On ch=12 n=40 v=50
34728 Off ch=12 n=40 v=64
34752 On ch=12 n=40 v=48
34824 Off ch=12 n=40 v=64
34848 On ch=12 n=40 v=46
34920 Off ch=12 n=40 v=64
34944 On ch=12 n=40 v=44
35016 Off ch=12 n=40 v=64
35040 On ch=12 n=40 v=46
35100 Off ch=12 n=40 v=64
35100 On ch=12 n=43 v=49
35160 Off ch=12 n=43 v=64
35160 On ch=12 n=50 v=52
35220 Off ch=12 n=50 v=64
35220 On ch=12 n=54 v=54
35280 Off ch=12 n=54 v=64
35280 On ch=12 n=52 v=57
35340 Off ch=12 n=52 v=64
35340 On ch=12 n=58 v=60
35400 Off ch=12 n=58 v=64
35400 On ch=12 n=50 v=52
35460 Off ch=12 n=50 v=64
35460 On ch=12 n=43 v=46
35520 Off ch=12 n=43 v=64
35520 On ch=12 n=40 v=40
35612 Off ch=12 n=40 v=64
35736 On ch=12 n=38 v=52
35760 On ch=12 n=40 v=46
35784 Off ch=12 n=38 v=64
36036 Off ch=12 n=40 v=64
36060 On ch=12 n=43 v=47
36120 Off ch=12 n=43 v=64
36120 On ch=12 n=50 v=50
36180 Off ch=12 n=50 v=64
36180 On ch=12 n=54 v=54
36240 Off ch=12 n=54 v=64
36240 On ch=12 n=52 v=58
36300 Off ch=12 n=52 v=64
36300 On ch=12 n=58 v=61
36360 Off ch=12 n=58 v=64
36360 On ch=12 n=50 v=58
36420 Off ch=12 n=50 v=64
36420 On ch=12 n=43 v=49
36480 Off ch=12 n=43 v=64
36480 On ch=12 n=40 v=40
36540 Off ch=12 n=40 v=64
36540 On ch=12 n=43 v=46
36600 Off ch=12 n=43 v=64
36600 On ch=12 n=50 v=49
36660 Off ch=12 n=50 v=64
36660 On ch=12 n=54 v=53
36720 Off ch=12 n=54 v=64
36720 On ch=12 n=52 v=56
36780 Off ch=12 n=52 v=64
36780 On ch=12 n=58 v=59
36840 Off ch=12 n=58 v=64
36840 On ch=12 n=50 v=57
36900 Off ch=12 n=50 v=64
36900 On ch=12 n=43 v=48
36960 Off ch=12 n=43 v=64
36960 On ch=12 n=40 v=39
37016 Off ch=12 n=40 v=64
37060 On ch=12 n=38 v=52
37080 On ch=12 n=40 v=49
37104 Off ch=12 n=38 v=64
37148 Off ch=12 n=40 v=64
37200 On ch=12 n=40 v=46
37268 Off ch=12 n=40 v=64
37320 On ch=12 n=40 v=47
37388 Off ch=12 n=40 v=64
44144 On ch=12 n=62 v=44
44160 On ch=12 n=58 v=44
44176 Off ch=12 n=62 v=64
44320 Off ch=12 n=58 v=64
44320 On ch=12 n=48 v=39
44436 Off ch=12 n=48 v=64
44464 On ch=12 n=62 v=44
44480 On ch=12 n=58 v=44
44496 Off ch=12 n=62 v=64
44640 Off ch=12 n=58 v=64
44640 On ch=12 n=48 v=39
44756 Off ch=12 n=48 v=64
44784 On ch=12 n=62 v=44
44800 On ch=12 n=58 v=44
44816 Off ch=12 n=62 v=64
44960 Off ch=12 n=58 v=64
44960 On ch=12 n=48 v=39
45076 Off ch=12 n=48 v=64
45104 On ch=12 n=62 v=44
45120 On ch=12 n=58 v=44
45136 Off ch=12 n=62 v=64
45280 Off ch=12 n=58 v=64
45280 On ch=12 n=48 v=39
45396 Off ch=12 n=48 v=64
45424 On ch=12 n=62 v=44
45440 On ch=12 n=58 v=44
45456 Off ch=12 n=62 v=64
45600 Off ch=12 n=58 v=64
45600 On ch=12 n=48 v=39
45716 Off ch=12 n=48 v=64
45744 On ch=12 n=62 v=44
45760 On ch=12 n=58 v=44
45776 Off ch=12 n=62 v=64
45920 Off ch=12 n=58 v=64
45920 On ch=12 n=48 v=39
46036 Off ch=12 n=48 v=64
46064 On ch=12 n=62 v=44
46080 On ch=12 n=58 v=44
46096 Off ch=12 n=62 v=64
46240 Off ch=12 n=58 v=64
46240 On ch=12 n=48 v=39
46356 Off ch=12 n=48 v=64
46384 On ch=12 n=62 v=44
46400 On ch=12 n=58 v=44
46416 Off ch=12 n=62 v=64
46560 Off ch=12 n=58 v=64
46560 On ch=12 n=48 v=39
46676 Off ch=12 n=48 v=64
46704 On ch=12 n=62 v=44
46720 On ch=12 n=58 v=44
46736 Off ch=12 n=62 v=64
46880 Off ch=12 n=58 v=64
46880 On ch=12 n=48 v=39
46996 Off ch=12 n=48 v=64
48000 On ch=12 n=58 v=44
48160 Off ch=12 n=58 v=64
48160 On ch=12 n=48 v=39
48276 Off ch=12 n=48 v=64
48304 On ch=12 n=62 v=44
48320 On ch=12 n=58 v=44
48336 Off ch=12 n=62 v=64
48480 Off ch=12 n=58 v=64
48480 On ch=12 n=48 v=39
48596 Off ch=12 n=48 v=64
48624 On ch=12 n=62 v=44
48640 On ch=12 n=58 v=44
48656 Off ch=12 n=62 v=64
48800 Off ch=12 n=58 v=64
48800 On ch=12 n=48 v=39
48916 Off ch=12 n=48 v=64
61440 On ch=12 n=65 v=40
61500 On ch=12 n=70 v=43
61528 Off ch=12 n=65 v=64
61560 On ch=12 n=72 v=45
61588 Off ch=12 n=70 v=64
61620 On ch=12 n=75 v=48
61648 Off ch=12 n=72 v=64
61680 On ch=12 n=77 v=50
61708 Off ch=12 n=75 v=64
61740 On ch=12 n=82 v=53
61768 Off ch=12 n=77 v=64
61800 On ch=12 n=77 v=49
61828 Off ch=12 n=82 v=64
61860 On ch=12 n=75 v=44
61888 Off ch=12 n=77 v=64
61920 On ch=12 n=70 v=38
61948 Off ch=12 n=75 v=64
62000 Off ch=12 n=70 v=64
66480 On ch=12 n=75 v=48
66498 Off ch=12 n=75 v=64
66514 On ch=12 n=74 v=48
66532 Off ch=12 n=74 v=64
66548 On ch=12 n=73 v=48
66566 Off ch=12 n=73 v=64
66582 On ch=12 n=72 v=48
66601 Off ch=12 n=72 v=64
66617 On ch=12 n=71 v=48
66635 Off ch=12 n=71 v=64
66651 On ch=12 n=70 v=48
66669 Off ch=12 n=70 v=64
66685 On ch=12 n=69 v=48
66704 Off ch=12 n=69 v=64
66720 On ch=12 n=68 v=48
66772 Off ch=12 n=68 v=64
68160 On ch=12 n=75 v=48
68178 Off ch=12 n=75 v=64
68194 On ch=12 n=74 v=48
68212 Off ch=12 n=74 v=64
68228 On ch=12 n=73 v=48
68246 Off ch=12 n=73 v=64
68262 On ch=12 n=72 v=48
68281 Off ch=12 n=72 v=64
68297 On ch=12 n=71 v=48
68315 Off ch=12 n=71 v=64
68331 On ch=12 n=70 v=48
68349 Off ch=12 n=70 v=64
68365 On ch=12 n=69 v=48
68384 Off ch=12 n=69 v=64
68400 On ch=12 n=68 v=48
68474 Off ch=12 n=68 v=64
68640 On ch=12 n=65 v=40
68700 On ch=12 n=70 v=42
68724 Off ch=12 n=65 v=64
68760 On ch=12 n=72 v=44
68784 Off ch=12 n=70 v=64
68820 On ch=12 n=75 v=46
68844 Off ch=12 n=72 v=64
68880 On ch=12 n=77 v=48
68904 Off ch=12 n=75 v=64
68940 On ch=12 n=82 v=50
68964 Off ch=12 n=77 v=64
69000 On ch=12 n=77 v=47
69024 Off ch=12 n=82 v=64
69060 On ch=12 n=75 v=44
69084 Off ch=12 n=77 v=64
69120 On ch=12 n=70 v=41
69144 Off ch=12 n=75 v=64
69244 On ch=12 n=38 v=59
69258 Off ch=12 n=70 v=64
69280 On ch=12 n=40 v=53
69300 Off ch=12 n=38 v=64
69368 Off ch=12 n=40 v=64
69440 On ch=12 n=40 v=52
69528 Off ch=12 n=40 v=64
69600 On ch=12 n=75 v=48
69600 On ch=12 n=65 v=40
69622 Off ch=12 n=75 v=64
69634 On ch=12 n=74 v=48
69656 Off ch=12 n=74 v=64
69660 On ch=12 n=70 v=42
69668 On ch=12 n=73 v=48
69684 Off ch=12 n=65 v=64
69690 Off ch=12 n=73 v=64
69702 On ch=12 n=72 v=48
69720 On ch=12 n=72 v=44
69725 Off ch=12 n=72 v=64
69725 Off ch=12 n=72 v=64
69737 On ch=12 n=71 v=48
69744 Off ch=12 n=70 v=64
69759 Off ch=12 n=71 v=64
69771 On ch=12 n=70 v=48
69780 On ch=12 n=75 v=46
69793 Off ch=12 n=70 v=64
69805 On ch=12 n=69 v=48
69828 Off ch=12 n=69 v=64
69840 On ch=12 n=68 v=48
69840 On ch=12 n=77 v=48
69840 On ch=12 n=40 v=46
69864 Off ch=12 n=75 v=64
69900 On ch=12 n=82 v=50
69900 On ch=12 n=43 v=51
69916 Off ch=12 n=40 v=64
69918 Off ch=12 n=68 v=64
69924 Off ch=12 n=77 v=64
69960 On ch=12 n=77 v=51
69960 On ch=12 n=50 v=56
69976 Off ch=12 n=43 v=64
69984 Off ch=12 n=82 v=64
70020 On ch=12 n=72 v=47
70020 On ch=12 n=54 v=61
70036 Off ch=12 n=50 v=64
70044 Off ch=12 n=77 v=64
70080 On ch=12 n=65 v=42
70080 On ch=12 n=52 v=66
70096 Off ch=12 n=54 v=64
70104 Off ch=12 n=72 v=64
70140 On ch=12 n=70 v=43
70140 On ch=12 n=58 v=71
70156 Off ch=12 n=52 v=64
70164 Off ch=12 n=65 v=64
70200 On ch=12 n=72 v=44
70200 On ch=12 n=50 v=64
70216 Off ch=12 n=58 v=64
70224 Off ch=12 n=70 v=64
70260 On ch=12 n=75 v=46
70260 On ch=12 n=43 v=55
70276 Off ch=12 n=50 v=64
70284 Off ch=12 n=72 v=64
70320 On ch=12 n=77 v=48
70320 On ch=12 n=40 v=47
70336 Off ch=12 n=43 v=64
70344 Off ch=12 n=75 v=64
70380 On ch=12 n=82 v=50
70404 Off ch=12 n=77 v=64
70424 Off ch=12 n=40 v=64
70440 On ch=12 n=77 v=47
70464 Off ch=12 n=82 v=64
70500 On ch=12 n=72 v=44
70524 Off ch=12 n=77 v=64
70560 On ch=12 n=70 v=41
70584 Off ch=12 n=72 v=64
70688 On ch=12 n=38 v=58
70716 Off ch=12 n=70 v=64
70720 On ch=12 n=40 v=52
70736 Off ch=12 n=38 v=64
70800 Off ch=12 n=40 v=64
70800 On ch=12 n=77 v=48
70800 On ch=12 n=65 v=38
70820 Off ch=12 n=77 v=64
70834 On ch=12 n=76 v=48
70854 Off ch=12 n=76 v=64
70860 On ch=12 n=70 v=40
70868 On ch=12 n=75 v=48
70880 On ch=12 n=40 v=52
70884 Off ch=12 n=65 v=64
70888 Off ch=12 n=75 v=64
70902 On ch=12 n=74 v=48
70920 On ch=12 n=72 v=43
70923 Off ch=12 n=74 v=64
70937 On ch=12 n=73 v=48
70944 Off ch=12 n=70 v=64
70957 Off ch=12 n=73 v=64
70960 Off ch=12 n=40 v=64
70971 On ch=12 n=72 v=48
70980 On ch=12 n=75 v=45
70991 Off ch=12 n=72 v=64
70991 Off ch=12 n=72 v=64
71005 On ch=12 n=71 v=48
71012 On ch=12 n=38 v=57
71026 Off ch=12 n=71 v=64
71040 On ch=12 n=70 v=48
71040 On ch=12 n=77 v=47
71040 On ch=12 n=40 v=53
71064 Off ch=12 n=75 v=64
71072 Off ch=12 n=38 v=64
71100 On ch=12 n=82 v=49
71104 Off ch=12 n=40 v=64
71116 Off ch=12 n=70 v=64
71124 Off ch=12 n=77 v=64
71160 On ch=12 n=77 v=52
71160 On ch=12 n=40 v=52
71184 Off ch=12 n=82 v=64
71220 On ch=12 n=72 v=47
71224 Off ch=12 n=40 v=64
71244 Off ch=12 n=77 v=64
71280 On ch=12 n=65 v=42
71280 On ch=12 n=40 v=52
71304 Off ch=12 n=72 v=64
71340 On ch=12 n=70 v=38
71344 Off ch=12 n=40 v=64
71364 Off ch=12 n=65 v=64
71400 On ch=12 n=72 v=41
71400 On ch=12 n=40 v=52
71424 Off ch=12 n=70 v=64
71460 On ch=12 n=75 v=44
71464 Off ch=12 n=40 v=64
71484 Off ch=12 n=72 v=64
71520 On ch=12 n=77 v=47
71520 On ch=12 n=40 v=52
71544 Off ch=12 n=75 v=64
71580 Off ch=12 n=40 v=64
71580 On ch=12 n=82 v=50
71580 On ch=12 n=43 v=56
71604 Off ch=12 n=77 v=64
71640 Off ch=12 n=43 v=64
71640 On ch=12 n=77 v=45
71640 On ch=12 n=50 v=60
71664 Off ch=12 n=82 v=64
71700 Off ch=12 n=50 v=64
71700 On ch=12 n=75 v=41
71700 On ch=12 n=54 v=64
71724 Off ch=12 n=77 v=64
71760 Off ch=12 n=54 v=64
71760 On ch=12 n=77 v=48
71760 On ch=12 n=70 v=36
71760 On ch=12 n=52 v=68
71780 Off ch=12 n=77 v=64
71784 Off ch=12 n=75 v=64
71794 On ch=12 n=76 v=48
71814 Off ch=12 n=76 v=64
71820 Off ch=12 n=52 v=64
71820 On ch=12 n=58 v=72
71828 On ch=12 n=75 v=48
71848 Off ch=12 n=75 v=64
71862 On ch=12 n=74 v=48
71880 Off ch=12 n=58 v=64
71880 On ch=12 n=50 v=68
71883 Off ch=12 n=74 v=64
71897 On ch=12 n=73 v=48
71917 Off ch=12 n=73 v=64
71922 Off ch=12 n=70 v=64
71931 On ch=12 n=72 v=48
71940 Off ch=12 n=50 v=64
71940 On ch=12 n=43 v=60
71951 Off ch=12 n=72 v=64
71965 On ch=12 n=71 v=48
71986 Off ch=12 n=71 v=64
72000 Off ch=12 n=43 v=64
72000 On ch=12 n=70 v=48
72000 On ch=12 n=65 v=38
72000 On ch=12 n=40 v=50
72060 Off ch=12 n=40 v=64
72060 On ch=12 n=70 v=40
72060 On ch=12 n=43 v=54
72084 Off ch=12 n=65 v=64
72088 Off ch=12 n=70 v=64
72088 Off ch=12 n=70 v=64
72120 Off ch=12 n=43 v=64
72120 On ch=12 n=72 v=42
72120 On ch=12 n=50 v=59
72180 Off ch=12 n=50 v=64
72180 On ch=12 n=75 v=45
72180 On ch=12 n=54 v=63
72204 Off ch=12 n=72 v=64
72240 Off ch=12 n=54 v=64
72240 On ch=12 n=77 v=47
72240 On ch=12 n=52 v=68
72264 Off ch=12 n=75 v=64
72300 Off ch=12 n=52 v=64
72300 On ch=12 n=82 v=49
72300 On ch=12 n=58 v=71
72324 Off ch=12 n=77 v=64
72360 Off ch=12 n=58 v=64
72360 On ch=12 n=77 v=46
72360 On ch=12 n=50 v=64
72384 Off ch=12 n=82 v=64
72420 Off ch=12 n=50 v=64
72420 On ch=12 n=75 v=41
72420 On ch=12 n=43 v=56
72444 Off ch=12 n=77 v=64
72480 Off ch=12 n=43 v=64
72480 On ch=12 n=72 v=36
72480 On ch=12 n=40 v=49
72504 Off ch=12 n=75 v=64
72540 On ch=12 n=70 v=39
72564 Off ch=12 n=72 v=64
72572 Off ch=12 n=40 v=64
72600 On ch=12 n=72 v=42
72624 Off ch=12 n=70 v=64
72660 On ch=12 n=75 v=46
72684 Off ch=12 n=72 v=64
72720 On ch=12 n=77 v=49
72720 On ch=12 n=40 v=50
72744 Off ch=12 n=75 v=64
72780 Off ch=12 n=40 v=64
72780 On ch=12 n=82 v=52
72780 On ch=12 n=43 v=54
72804 Off ch=12 n=77 v=64
72840 Off ch=12 n=43 v=64
72840 On ch=12 n=77 v=51
72840 On ch=12 n=50 v=59
72864 Off ch=12 n=82 v=64
72900 Off ch=12 n=50 v=64
72900 On ch=12 n=75 v=46
72900 On ch=12 n=54 v=64
72924 Off ch=12 n=77 v=64
72960 Off ch=12 n=54 v=64
72960 On ch=12 n=77 v=48
72960 On ch=12 n=72 v=42
72960 On ch=12 n=52 v=68
72980 Off ch=12 n=77 v=64
72984 Off ch=12 n=75 v=64
72994 On ch=12 n=76 v=48
73014 Off ch=12 n=76 v=64
73020 Off ch=12 n=52 v=64
73020 On ch=12 n=70 v=38
73020 On ch=12 n=58 v=73
73028 On ch=12 n=75 v=48
73044 Off ch=12 n=72 v=64
73048 Off ch=12 n=75 v=64
73062 On ch=12 n=74 v=48
73080 Off ch=12 n=58 v=64
73080 On ch=12 n=72 v=39
73080 On ch=12 n=50 v=65
73083 Off ch=12 n=74 v=64
73097 On ch=12 n=73 v=48
73104 Off ch=12 n=70 v=64
73117 Off ch=12 n=73 v=64
73131 On ch=12 n=72 v=48
73140 Off ch=12 n=50 v=64
73140 On ch=12 n=75 v=42
73140 On ch=12 n=43 v=56
73151 Off ch=12 n=72 v=64
73151 Off ch=12 n=72 v=64
73165 On ch=12 n=71 v=48
73186 Off ch=12 n=71 v=64
73200 Off ch=12 n=43 v=64
73200 On ch=12 n=70 v=48
73200 On ch=12 n=77 v=46
73200 On ch=12 n=40 v=47
73224 Off ch=12 n=75 v=64
73260 On ch=12 n=82 v=50
73268 Off ch=12 n=40 v=64
73270 Off ch=12 n=70 v=64
73284 Off ch=12 n=77 v=64
73320 On ch=12 n=77 v=46
73344 Off ch=12 n=82 v=64
73380 On ch=12 n=75 v=42
73404 Off ch=12 n=77 v=64
73464 Off ch=12 n=75 v=64
76320 On ch=12 n=60 v=34
76350 On ch=12 n=62 v=34
76370 Off ch=12 n=60 v=64
76380 On ch=12 n=60 v=34
76400 Off ch=12 n=62 v=64
76410 On ch=12 n=62 v=34
76430 Off ch=12 n=60 v=64
76440 On ch=12 n=60 v=34
76460 Off ch=12 n=62 v=64
76470 On ch=12 n=62 v=34
76490 Off ch=12 n=60 v=64
76500 On ch=12 n=60 v=34
76520 Off ch=12 n=62 v=64
76530 On ch=12 n=62 v=34
76550 Off ch=12 n=60 v=64
76560 On ch=12 n=60 v=34
76580 Off ch=12 n=62 v=64
76590 On ch=12 n=62 v=34
76610 Off ch=12 n=60 v=64
76620 On ch=12 n=60 v=34
76640 Off ch=12 n=62 v=64
76650 On ch=12 n=62 v=34
76670 Off ch=12 n=60 v=64
76680 On ch=12 n=60 v=34
76700 Off ch=12 n=62 v=64
76710 On ch=12 n=62 v=34
76730 Off ch=12 n=60 v=64
76740 On ch=12 n=60 v=34
76760 Off ch=12 n=62 v=64
76770 On ch=12 n=62 v=34
76790 Off ch=12 n=60 v=64
76800 On ch=12 n=60 v=34
76820 Off ch=12 n=62 v=64
76830 On ch=12 n=62 v=34
76850 Off ch=12 n=60 v=64
76860 On ch=12 n=60 v=34
76880 Off ch=12 n=62 v=64
76890 On ch=12 n=62 v=34
76910 Off ch=12 n=60 v=64
76920 On ch=12 n=60 v=34
76940 Off ch=12 n=62 v=64
76950 On ch=12 n=62 v=34
76970 Off ch=12 n=60 v=64
76980 On ch=12 n=60 v=34
77000 Off ch=12 n=62 v=64
77010 On ch=12 n=62 v=34
77030 Off ch=12 n=60 v=64
77040 On ch=12 n=60 v=34
77060 Off ch=12 n=62 v=64
77070 On ch=12 n=62 v=34
77090 Off ch=12 n=60 v=64
77100 On ch=12 n=60 v=34
77120 Off ch=12 n=62 v=64
77130 On ch=12 n=62 v=34
77150 Off ch=12 n=60 v=64
77160 On ch=12 n=60 v=34
77180 Off ch=12 n=62 v=64
77190 On ch=12 n=62 v=34
77210 Off ch=12 n=60 v=64
77220 On ch=12 n=60 v=34
77240 Off ch=12 n=62 v=64
77250 On ch=12 n=62 v=34
77270 Off ch=12 n=60 v=64
77280 On ch=12 n=60 v=34
77300 Off ch=12 n=62 v=64
77310 On ch=12 n=62 v=34
77330 Off ch=12 n=60 v=64
77340 On ch=12 n=60 v=34
77360 Off ch=12 n=62 v=64
77370 On ch=12 n=62 v=34
77390 Off ch=12 n=60 v=64
77400 On ch=12 n=60 v=34
77420 Off ch=12 n=62 v=64
77430 On ch=12 n=62 v=34
77450 Off ch=12 n=60 v=64
77460 On ch=12 n=60 v=34
77480 Off ch=12 n=62 v=64
77490 On ch=12 n=62 v=34
77510 Off ch=12 n=60 v=64
77520 On ch=12 n=60 v=34
77540 Off ch=12 n=62 v=64
77550 On ch=12 n=62 v=34
77570 Off ch=12 n=60 v=64
77580 On ch=12 n=60 v=34
77600 Off ch=12 n=62 v=64
77610 On ch=12 n=62 v=34
77630 Off ch=12 n=60 v=64
77640 On ch=12 n=60 v=34
77660 Off ch=12 n=62 v=64
77670 On ch=12 n=62 v=34
77690 Off ch=12 n=60 v=64
77700 On ch=12 n=60 v=34
77720 Off ch=12 n=62 v=64
77730 On ch=12 n=62 v=34
77750 Off ch=12 n=60 v=64
77760 On ch=12 n=60 v=34
77780 Off ch=12 n=62 v=64
77790 On ch=12 n=62 v=34
77810 Off ch=12 n=60 v=64
77820 On ch=12 n=60 v=34
77840 Off ch=12 n=62 v=64
77850 On ch=12 n=62 v=34
77870 Off ch=12 n=60 v=64
77880 On ch=12 n=60 v=34
77900 Off ch=12 n=62 v=64
77910 On ch=12 n=62 v=34
77930 Off ch=12 n=60 v=64
77940 On ch=12 n=60 v=34
77960 Off ch=12 n=62 v=64
77970 On ch=12 n=62 v=34
77990 Off ch=12 n=60 v=64
78000 On ch=12 n=60 v=34
78020 Off ch=12 n=62 v=64
78030 On ch=12 n=62 v=34
78050 Off ch=12 n=60 v=64
78060 On ch=12 n=60 v=34
78080 Off ch=12 n=62 v=64
78090 On ch=12 n=62 v=34
78110 Off ch=12 n=60 v=64
78120 On ch=12 n=60 v=34
78140 Off ch=12 n=62 v=64
78150 On ch=12 n=62 v=34
78170 Off ch=12 n=60 v=64
78180 On ch=12 n=60 v=34
78200 Off ch=12 n=62 v=64
78210 On ch=12 n=62 v=34
78230 Off ch=12 n=60 v=64
78240 On ch=12 n=60 v=34
78260 Off ch=12 n=62 v=64
78270 On ch=12 n=62 v=34
78290 Off ch=12 n=60 v=64
78300 On ch=12 n=60 v=34
78320 Off ch=12 n=62 v=64
78330 On ch=12 n=62 v=34
78350 Off ch=12 n=60 v=64
78360 On ch=12 n=60 v=34
78380 Off ch=12 n=62 v=64
78390 On ch=12 n=62 v=34
78410 Off ch=12 n=60 v=64
78420 On ch=12 n=60 v=34
78440 Off ch=12 n=62 v=64
78450 On ch=12 n=62 v=34
78470 Off ch=12 n=60 v=64
78480 On ch=12 n=60 v=34
78500 Off ch=12 n=62 v=64
78510 On ch=12 n=62 v=34
78530 Off ch=12 n=60 v=64
78540 On ch=12 n=60 v=34
78560 Off ch=12 n=62 v=64
78570 On ch=12 n=62 v=34
78590 Off ch=12 n=60 v=64
78600 On ch=12 n=60 v=34
78620 Off ch=12 n=62 v=64
78630 On ch=12 n=62 v=34
78650 Off ch=12 n=60 v=64
78660 On ch=12 n=60 v=34
78680 Off ch=12 n=62 v=64
78690 On ch=12 n=62 v=34
78710 Off ch=12 n=60 v=64
78720 On ch=12 n=60 v=34
78740 Off ch=12 n=62 v=64
78750 On ch=12 n=62 v=34
78770 Off ch=12 n=60 v=64
78780 On ch=12 n=60 v=34
78800 Off ch=12 n=62 v=64
78810 On ch=12 n=62 v=34
78830 Off ch=12 n=60 v=64
78840 On ch=12 n=60 v=34
78860 Off ch=12 n=62 v=64
78870 On ch=12 n=62 v=34
78890 Off ch=12 n=60 v=64
78900 On ch=12 n=60 v=34
78920 Off ch=12 n=62 v=64
78930 On ch=12 n=62 v=34
78950 Off ch=12 n=60 v=64
78960 On ch=12 n=60 v=34
78980 Off ch=12 n=62 v=64
78990 On ch=12 n=62 v=34
79010 Off ch=12 n=60 v=64
79020 On ch=12 n=60 v=34
79040 Off ch=12 n=62 v=64
79050 On ch=12 n=62 v=34
79070 Off ch=12 n=60 v=64
79080 On ch=12 n=60 v=34
79100 Off ch=12 n=62 v=64
79110 On ch=12 n=62 v=34
79130 Off ch=12 n=60 v=64
79140 On ch=12 n=60 v=34
79160 Off ch=12 n=62 v=64
79170 On ch=12 n=62 v=34
79190 Off ch=12 n=60 v=64
79200 On ch=12 n=60 v=34
79220 Off ch=12 n=62 v=64
79230 On ch=12 n=62 v=34
79250 Off ch=12 n=60 v=64
79260 On ch=12 n=60 v=34
79280 Off ch=12 n=62 v=64
79290 On ch=12 n=62 v=34
79310 Off ch=12 n=60 v=64
79320 On ch=12 n=60 v=34
79340 Off ch=12 n=62 v=64
79350 On ch=12 n=62 v=34
79370 Off ch=12 n=60 v=64
79380 On ch=12 n=60 v=34
79400 Off ch=12 n=62 v=64
79410 On ch=12 n=62 v=34
79430 Off ch=12 n=60 v=64
79440 On ch=12 n=60 v=34
79460 Off ch=12 n=62 v=64
79470 On ch=12 n=62 v=34
79490 Off ch=12 n=60 v=64
79500 On ch=12 n=60 v=34
79520 Off ch=12 n=62 v=64
79530 On ch=12 n=62 v=34
79550 Off ch=12 n=60 v=64
79560 On ch=12 n=60 v=34
79580 Off ch=12 n=62 v=64
79590 On ch=12 n=62 v=34
79610 Off ch=12 n=60 v=64
79620 On ch=12 n=60 v=34
79640 Off ch=12 n=62 v=64
79650 On ch=12 n=62 v=34
79670 Off ch=12 n=60 v=64
79680 On ch=12 n=60 v=34
79700 Off ch=12 n=62 v=64
79710 On ch=12 n=62 v=34
79730 Off ch=12 n=60 v=64
79740 On ch=12 n=60 v=34
79760 Off ch=12 n=62 v=64
79770 On ch=12 n=62 v=34
79790 Off ch=12 n=60 v=64
79800 On ch=12 n=60 v=34
79820 Off ch=12 n=62 v=64
79830 On ch=12 n=62 v=34
79850 Off ch=12 n=60 v=64
79860 On ch=12 n=60 v=34
79880 Off ch=12 n=62 v=64
79890 On ch=12 n=62 v=34
79910 Off ch=12 n=60 v=64
79920 On ch=12 n=60 v=34
79940 Off ch=12 n=62 v=64
79950 On ch=12 n=62 v=34
79970 Off ch=12 n=60 v=64
79980 On ch=12 n=60 v=34
80000 Off ch=12 n=62 v=64
80010 On ch=12 n=62 v=34
80030 Off ch=12 n=60 v=64
80040 On ch=12 n=60 v=34
80060 Off ch=12 n=62 v=64
80070 On ch=12 n=62 v=34
80090 Off ch=12 n=60 v=64
80100 On ch=12 n=60 v=34
80120 Off ch=12 n=62 v=64
80130 On ch=12 n=62 v=34
80150 Off ch=12 n=60 v=64
80160 On ch=12 n=60 v=34
80180 Off ch=12 n=62 v=64
80190 On ch=12 n=62 v=34
80210 Off ch=12 n=60 v=64
80220 On ch=12 n=60 v=34
80240 Off ch=12 n=62 v=64
80250 On ch=12 n=62 v=34
80270 Off ch=12 n=60 v=64
80280 On ch=12 n=60 v=34
80300 Off ch=12 n=62 v=64
80310 On ch=12 n=62 v=34
80330 Off ch=12 n=60 v=64
80340 On ch=12 n=60 v=34
80360 Off ch=12 n=62 v=64
80370 On ch=12 n=62 v=34
80390 Off ch=12 n=60 v=64
80400 On ch=12 n=60 v=34
80420 Off ch=12 n=62 v=64
80430 On ch=12 n=62 v=34
80450 Off ch=12 n=60 v=64
80460 On ch=12 n=60 v=34
80480 Off ch=12 n=62 v=64
80490 On ch=12 n=62 v=34
80510 Off ch=12 n=60 v=64
80520 On ch=12 n=60 v=34
80540 Off ch=12 n=62 v=64
80550 On ch=12 n=62 v=34
80570 Off ch=12 n=60 v=64
80580 On ch=12 n=60 v=34
80600 Off ch=12 n=62 v=64
80610 On ch=12 n=62 v=34
80630 Off ch=12 n=60 v=64
80640 On ch=12 n=60 v=34
80660 Off ch=12 n=62 v=64
80670 On ch=12 n=62 v=34
80690 Off ch=12 n=60 v=64
80700 On ch=12 n=60 v=34
80720 Off ch=12 n=62 v=64
80730 On ch=12 n=62 v=34
80750 Off ch=12 n=60 v=64
80760 On ch=12 n=60 v=34
80780 Off ch=12 n=62 v=64
80790 On ch=12 n=62 v=34
80810 Off ch=12 n=60 v=64
80820 On ch=12 n=60 v=34
80840 Off ch=12 n=62 v=64
80850 On ch=12 n=62 v=34
80870 Off ch=12 n=60 v=64
80880 On ch=12 n=60 v=34
80900 Off ch=12 n=62 v=64
80910 On ch=12 n=62 v=34
80930 Off ch=12 n=60 v=64
80940 On ch=12 n=60 v=34
80960 Off ch=12 n=62 v=64
80970 On ch=12 n=62 v=34
80990 Off ch=12 n=60 v=64
81000 On ch=12 n=60 v=34
81020 Off ch=12 n=62 v=64
81030 On ch=12 n=62 v=34
81050 Off ch=12 n=60 v=64
81060 On ch=12 n=60 v=34
81080 Off ch=12 n=62 v=64
81090 On ch=12 n=62 v=34
81110 Off ch=12 n=60 v=64
81120 On ch=12 n=60 v=34
81140 Off ch=12 n=62 v=64
81150 On ch=12 n=62 v=34
81170 Off ch=12 n=60 v=64
81180 On ch=12 n=60 v=34
81200 Off ch=12 n=62 v=64
81210 On ch=12 n=62 v=34
81230 Off ch=12 n=60 v=64
81240 On ch=12 n=60 v=34
81260 Off ch=12 n=62 v=64
81270 On ch=12 n=62 v=34
81290 Off ch=12 n=60 v=64
81300 On ch=12 n=60 v=34
81320 Off ch=12 n=62 v=64
81330 On ch=12 n=62 v=34
81350 Off ch=12 n=60 v=64
81360 On ch=12 n=60 v=34
81380 Off ch=12 n=62 v=64
81390 On ch=12 n=62 v=34
81410 Off ch=12 n=60 v=64
81420 On ch=12 n=60 v=34
81440 Off ch=12 n=62 v=64
81450 On ch=12 n=62 v=34
81470 Off ch=12 n=60 v=64
81480 On ch=12 n=60 v=34
81500 Off ch=12 n=62 v=64
81510 On ch=12 n=62 v=34
81530 Off ch=12 n=60 v=64
81540 On ch=12 n=60 v=34
81560 Off ch=12 n=62 v=64
81570 On ch=12 n=62 v=34
81590 Off ch=12 n=60 v=64
81600 On ch=12 n=60 v=34
81620 Off ch=12 n=62 v=64
81650 Off ch=12 n=60 v=64
81760 On ch=12 n=60 v=65
81813 On ch=12 n=55 v=61
81820 Off ch=12 n=60 v=64
81866 Off ch=12 n=55 v=64
81866 On ch=12 n=50 v=57
81920 Off ch=12 n=50 v=64
81920 On ch=12 n=53 v=54
81973 On ch=12 n=58 v=51
81981 Off ch=12 n=53 v=64
82026 Off ch=12 n=58 v=64
82026 On ch=12 n=48 v=48
82079 Off ch=12 n=48 v=64
82079 On ch=12 n=42 v=45
82840 Par ch=12 c=7 v=100
82920 Par ch=12 c=7 v=99
82999 Par ch=12 c=7 v=98
83000 Par ch=12 c=7 v=98
83016 Par ch=12 c=7 v=97
83032 Par ch=12 c=7 v=96
83049 Par ch=12 c=7 v=95
83065 Par ch=12 c=7 v=94
83081 Par ch=12 c=7 v=93
83098 Par ch=12 c=7 v=92
83114 Par ch=12 c=7 v=91
83130 Par ch=12 c=7 v=90
83147 Par ch=12 c=7 v=89
83163 Par ch=12 c=7 v=88
83179 Par ch=12 c=7 v=87
83196 Par ch=12 c=7 v=86
83212 Par ch=12 c=7 v=85
83228 Par ch=12 c=7 v=84
83245 Par ch=12 c=7 v=83
83261 Par ch=12 c=7 v=82
83277 Par ch=12 c=7 v=81
83294 Par ch=12 c=7 v=80
83310 Par ch=12 c=7 v=79
83326 Par ch=12 c=7 v=78
83343 Par ch=12 c=7 v=77
83359 Par ch=12 c=7 v=76
83375 Par ch=12 c=7 v=75
83391 Par ch=12 c=7 v=74
83423 Par ch=12 c=7 v=72
83470 Par ch=12 c=7 v=71
83518 Par ch=12 c=7 v=70
83566 Par ch=12 c=7 v=69
83613 Par ch=12 c=7 v=68
83661 Par ch=12 c=7 v=67
83708 Par ch=12 c=7 v=66
83756 Par ch=12 c=7 v=65
83804 Par ch=12 c=7 v=64
83851 Par ch=12 c=7 v=63
83899 Par ch=12 c=7 v=62
83946 Par ch=12 c=7 v=61
83994 Par ch=12 c=7 v=60
84042 Par ch=12 c=7 v=59
84089 Par ch=12 c=7 v=58
84137 Par ch=12 c=7 v=57
84184 Par ch=12 c=7 v=56
84232 Par ch=12 c=7 v=55
84279 Par ch=12 c=7 v=54
86879 Off ch=12 n=42 v=64
108000 Par ch=12 c=0 v=0
108000 Par ch=12 c=32 v=1
108000 PrCh ch=12 p=48
108306 Par ch=12 c=7 v=92
108960 On ch=12 n=64 v=52
109040 Off ch=12 n=64 v=64
109040 On ch=12 n=64 v=46
109115 Par ch=12 c=7 v=92
109120 Off ch=12 n=64 v=64
109120 On ch=12 n=60 v=52
109200 Off ch=12 n=60 v=64
109200 On ch=12 n=60 v=46
109280 Off ch=12 n=60 v=64
109280 On ch=12 n=64 v=52
109360 Off ch=12 n=64 v=64
109360 On ch=12 n=64 v=48
109440 Off ch=12 n=64 v=64
109440 On ch=12 n=67 v=58
109520 Off ch=12 n=67 v=64
109520 On ch=12 n=67 v=50
109600 Off ch=12 n=67 v=64
109600 On ch=12 n=64 v=52
109680 Off ch=12 n=64 v=64
109680 On ch=12 n=64 v=46
109760 Off ch=12 n=64 v=64
109760 On ch=12 n=60 v=48
109840 Off ch=12 n=60 v=64
109840 On ch=12 n=60 v=44
109920 Off ch=12 n=60 v=64
109920 On ch=12 n=64 v=52
110000 Off ch=12 n=64 v=64
110000 On ch=12 n=64 v=46
110080 Off ch=12 n=64 v=64
110080 On ch=12 n=60 v=52
110160 Off ch=12 n=60 v=64
110160 On ch=12 n=60 v=46
110240 Off ch=12 n=60 v=64
110240 On ch=12 n=64 v=52
110320 Off ch=12 n=64 v=64
110320 On ch=12 n=64 v=48
110400 Off ch=12 n=64 v=64
110400 On ch=12 n=67 v=58
110480 Off ch=12 n=67 v=64
110480 On ch=12 n=67 v=50
110560 Off ch=12 n=67 v=64
110560 On ch=12 n=64 v=52
110640 Off ch=12 n=64 v=64
110640 On ch=12 n=64 v=46
110720 Off ch=12 n=64 v=64
110720 On ch=12 n=60 v=48
110800 Off ch=12 n=60 v=64
110800 On ch=12 n=60 v=44
110880 Off ch=12 n=60 v=64
110880 On ch=12 n=64 v=52
110960 Off ch=12 n=64 v=64
110960 On ch=12 n=64 v=46
111040 Off ch=12 n=64 v=64
111040 On ch=12 n=60 v=52
111120 Off ch=12 n=60 v=64
111120 On ch=12 n=60 v=46
111200 Off ch=12 n=60 v=64
111200 On ch=12 n=64 v=52
111280 Off ch=12 n=64 v=64
111280 On ch=12 n=64 v=48
111360 Off ch=12 n=64 v=64
111360 On ch=12 n=67 v=58
111440 Off ch=12 n=67 v=64
111440 On ch=12 n=67 v=50
111520 Off ch=12 n=67 v=64
111520 On ch=12 n=64 v=52
111600 Off ch=12 n=64 v=64
111600 On ch=12 n=64 v=46
111680 Off ch=12 n=64 v=64
111680 On ch=12 n=60 v=48
111760 Off ch=12 n=60 v=64
111760 On ch=12 n=60 v=44
111840 Off ch=12 n=60 v=64
111840 On ch=12 n=64 v=52
111920 Off ch=12 n=64 v=64
111920 On ch=12 n=64 v=46
112000 Off ch=12 n=64 v=64
112000 On ch=12 n=60 v=52
112080 Off ch=12 n=60 v=64
112080 On ch=12 n=60 v=46
112160 Off ch=12 n=60 v=64
112160 On ch=12 n=64 v=52
112240 Off ch=12 n=64 v=64
112240 On ch=12 n=64 v=48
112320 Off ch=12 n=64 v=64
112320 On ch=12 n=67 v=58
112400 Off ch=12 n=67 v=64
112400 On ch=12 n=67 v=50
112480 Off ch=12 n=67 v=64
112480 On ch=12 n=64 v=52
112560 Off ch=12 n=64 v=64
112560 On ch=12 n=64 v=46
112640 Off ch=12 n=64 v=64
112640 On ch=12 n=60 v=48
112720 Off ch=12 n=60 v=64
112720 On ch=12 n=60 v=44
112800 Off ch=12 n=60 v=64
112800 On ch=12 n=64 v=52
112880 Off ch=12 n=64 v=64
112880 On ch=12 n=64 v=46
112960 Off ch=12 n=64 v=64
112960 On ch=12 n=60 v=52
113040 Off ch=12 n=60 v=64
113040 On ch=12 n=60 v=46
113120 Off ch=12 n=60 v=64
113120 On ch=12 n=64 v=52
113200 Off ch=12 n=64 v=64
113200 On ch=12 n=64 v=48
113280 Off ch=12 n=64 v=64
113280 On ch=12 n=67 v=58
113360 Off ch=12 n=67 v=64
113360 On ch=12 n=67 v=50
113440 Off ch=12 n=67 v=64
113440 On ch=12 n=64 v=52
113520 Off ch=12 n=64 v=64
113520 On ch=12 n=64 v=46
113600 Off ch=12 n=64 v=64
113600 On ch=12 n=60 v=48
113680 Off ch=12 n=60 v=64
113680 On ch=12 n=60 v=44
113760 Off ch=12 n=60 v=64
113760 On ch=12 n=64 v=52
113840 Off ch=12 n=64 v=64
113840 On ch=12 n=64 v=46
113920 Off ch=12 n=64 v=64
113920 On ch=12 n=60 v=52
114000 Off ch=12 n=60 v=64
114000 On ch=12 n=60 v=46
114080 Off ch=12 n=60 v=64
114080 On ch=12 n=64 v=52
114160 Off ch=12 n=64 v=64
114160 On ch=12 n=64 v=48
114240 Off ch=12 n=64 v=64
114240 On ch=12 n=67 v=58
114320 Off ch=12 n=67 v=64
114320 On ch=12 n=67 v=50
114400 Off ch=12 n=67 v=64
114400 On ch=12 n=64 v=52
114480 Off ch=12 n=64 v=64
114480 On ch=12 n=64 v=46
114560 Off ch=12 n=64 v=64
114560 On ch=12 n=60 v=48
114640 Off ch=12 n=60 v=64
114640 On ch=12 n=60 v=44
114720 Off ch=12 n=60 v=64
114720 On ch=12 n=64 v=52
114800 Off ch=12 n=64 v=64
114800 On ch=12 n=64 v=46
114880 Off ch=12 n=64 v=64
114880 On ch=12 n=60 v=52
114960 Off ch=12 n=60 v=64
114960 On ch=12 n=60 v=46
115040 Off ch=12 n=60 v=64
115040 On ch=12 n=64 v=52
115120 Off ch=12 n=64 v=64
115120 On ch=12 n=64 v=48
115200 Off ch=12 n=64 v=64
115200 On ch=12 n=67 v=58
115280 Off ch=12 n=67 v=64
115280 On ch=12 n=67 v=50
115360 Off ch=12 n=67 v=64
115360 On ch=12 n=64 v=52
115440 Off ch=12 n=64 v=64
115440 On ch=12 n=64 v=46
115520 Off ch=12 n=64 v=64
115520 On ch=12 n=60 v=48
115600 Off ch=12 n=60 v=64
115600 On ch=12 n=60 v=44
115680 Off ch=12 n=60 v=64
115680 On ch=12 n=64 v=52
115760 Off ch=12 n=64 v=64
115760 On ch=12 n=64 v=46
115840 Off ch=12 n=64 v=64
115840 On ch=12 n=60 v=52
115920 Off ch=12 n=60 v=64
115920 On ch=12 n=60 v=46
116000 Off ch=12 n=60 v=64
116000 On ch=12 n=64 v=52
116080 Off ch=12 n=64 v=64
116080 On ch=12 n=64 v=48
116160 Off ch=12 n=64 v=64
116160 On ch=12 n=67 v=58
116240 Off ch=12 n=67 v=64
116240 On ch=12 n=67 v=50
116320 Off ch=12 n=67 v=64
116320 On ch=12 n=64 v=52
116400 Off ch=12 n=64 v=64
116400 On ch=12 n=64 v=46
116480 Off ch=12 n=64 v=64
116480 On ch=12 n=60 v=48
116560 Off ch=12 n=60 v=64
116560 On ch=12 n=60 v=44
116640 Off ch=12 n=60 v=64
116640 On ch=12 n=64 v=52
116720 Off ch=12 n=64 v=64
116720 On ch=12 n=64 v=46
116800 Off ch=12 n=64 v=64
116800 On ch=12 n=60 v=52
116880 Off ch=12 n=60 v=64
116880 On ch=12 n=60 v=46
116960 Off ch=12 n=60 v=64
116960 On ch=12 n=64 v=52
117040 Off ch=12 n=64 v=64
117040 On ch=12 n=64 v=48
117120 Off ch=12 n=64 v=64
117120 On ch=12 n=67 v=58
117200 Off ch=12 n=67 v=64
117200 On ch=12 n=67 v=50
117280 Off ch=12 n=67 v=64
117280 On ch=12 n=64 v=52
117360 Off ch=12 n=64 v=64
117360 On ch=12 n=64 v=46
117440 Off ch=12 n=64 v=64
117440 On ch=12 n=60 v=48
117520 Off ch=12 n=60 v=64
117520 On ch=12 n=60 v=44
117600 Off ch=12 n=60 v=64
117600 On ch=12 n=64 v=52
117680 Off ch=12 n=64 v=64
117680 On ch=12 n=64 v=46
117760 Off ch=12 n=64 v=64
117760 On ch=12 n=60 v=52
117840 Off ch=12 n=60 v=64
117840 On ch=12 n=60 v=46
117920 Off ch=12 n=60 v=64
117920 On ch=12 n=64 v=52
118000 Off ch=12 n=64 v=64
118000 On ch=12 n=64 v=48
118080 Off ch=12 n=64 v=64
118080 On ch=12 n=67 v=58
118160 Off ch=12 n=67 v=64
118160 On ch=12 n=67 v=50
118240 Off ch=12 n=67 v=64
118240 On ch=12 n=64 v=52
118320 Off ch=12 n=64 v=64
118320 On ch=12 n=64 v=46
118400 Off ch=12 n=64 v=64
118400 On ch=12 n=60 v=48
118480 Off ch=12 n=60 v=64
118480 On ch=12 n=60 v=44
118560 Off ch=12 n=60 v=64
118560 On ch=12 n=64 v=52
118640 Off ch=12 n=64 v=64
118640 On ch=12 n=64 v=46
118720 Off ch=12 n=64 v=64
118720 On ch=12 n=60 v=52
118800 Off ch=12 n=60 v=64
118800 On ch=12 n=60 v=46
118880 Off ch=12 n=60 v=64
118880 On ch=12 n=64 v=52
118960 Off ch=12 n=64 v=64
118960 On ch=12 n=64 v=48
119040 Off ch=12 n=64 v=64
119040 On ch=12 n=67 v=58
119120 Off ch=12 n=67 v=64
119120 On ch=12 n=67 v=50
119200 Off ch=12 n=67 v=64
119200 On ch=12 n=64 v=52
119280 Off ch=12 n=64 v=64
119280 On ch=12 n=64 v=46
119360 Off ch=12 n=64 v=64
119360 On ch=12 n=60 v=48
119440 Off ch=12 n=60 v=64
119440 On ch=12 n=60 v=44
119520 Off ch=12 n=60 v=64
156000 Par ch=12 c=0 v=0
156000 Par ch=12 c=32 v=1
156000 PrCh ch=12 p=48
169440 On ch=12 n=61 v=39
169560 Off ch=12 n=61 v=64
169560 On ch=12 n=61 v=35
169680 Off ch=12 n=61 v=64
169680 On ch=12 n=58 v=39
169800 Off ch=12 n=58 v=64
169800 On ch=12 n=58 v=35
169920 Off ch=12 n=58 v=64
169920 On ch=12 n=63 v=39
170040 Off ch=12 n=63 v=64
170040 On ch=12 n=63 v=35
170160 Off ch=12 n=63 v=64
170160 On ch=12 n=58 v=39
170280 Off ch=12 n=58 v=64
170280 On ch=12 n=58 v=35
170400 Off ch=12 n=58 v=64
170400 On ch=12 n=61 v=39
170520 Off ch=12 n=61 v=64
170520 On ch=12 n=61 v=35
170640 Off ch=12 n=61 v=64
170640 On ch=12 n=58 v=39
170760 Off ch=12 n=58 v=64
170760 On ch=12 n=58 v=35
170880 Off ch=12 n=58 v=64
170880 On ch=12 n=63 v=39
171000 Off ch=12 n=63 v=64
171000 On ch=12 n=63 v=35
171120 Off ch=12 n=63 v=64
171120 On ch=12 n=58 v=39
171240 Off ch=12 n=58 v=64
171240 On ch=12 n=58 v=35
171360 Off ch=12 n=58 v=64
171360 On ch=12 n=61 v=39
171480 Off ch=12 n=61 v=64
171480 On ch=12 n=61 v=35
171600 Off ch=12 n=61 v=64
171600 On ch=12 n=58 v=39
171720 Off ch=12 n=58 v=64
171720 On ch=12 n=58 v=35
171840 Off ch=12 n=58 v=64
171840 On ch=12 n=63 v=39
171960 Off ch=12 n=63 v=64
171960 On ch=12 n=63 v=35
172080 Off ch=12 n=63 v=64
172080 On ch=12 n=58 v=39
172200 Off ch=12 n=58 v=64
172200 On ch=12 n=58 v=35
172320 Off ch=12 n=58 v=64
172320 On ch=12 n=61 v=39
172440 Off ch=12 n=61 v=64
172440 On ch=12 n=61 v=35
172560 Off ch=12 n=61 v=64
172560 On ch=12 n=58 v=39
172680 Off ch=12 n=58 v=64
172680 On ch=12 n=58 v=35
172800 Off ch=12 n=58 v=64
172800 On ch=12 n=63 v=39
172920 Off ch=12 n=63 v=64
172920 On ch=12 n=63 v=35
173040 Off ch=12 n=63 v=64
173040 On ch=12 n=58 v=39
173160 Off ch=12 n=58 v=64
173160 On ch=12 n=58 v=35
173280 Off ch=12 n=58 v=64
173280 On ch=12 n=61 v=39
173400 Off ch=12 n=61 v=64
173400 On ch=12 n=61 v=35
173520 Off ch=12 n=61 v=64
173520 On ch=12 n=58 v=39
173640 Off ch=12 n=58 v=64
173640 On ch=12 n=58 v=35
173760 Off ch=12 n=58 v=64
173760 On ch=12 n=63 v=39
173880 Off ch=12 n=63 v=64
173880 On ch=12 n=63 v=35
174000 Off ch=12 n=63 v=64
174000 On ch=12 n=58 v=39
174120 Off ch=12 n=58 v=64
174120 On ch=12 n=58 v=35
174240 Off ch=12 n=58 v=64
174240 On ch=12 n=61 v=39
174360 Off ch=12 n=61 v=64
174360 On ch=12 n=61 v=35
174480 Off ch=12 n=61 v=64
174480 On ch=12 n=58 v=39
174600 Off ch=12 n=58 v=64
174600 On ch=12 n=58 v=35
174720 Off ch=12 n=58 v=64
174720 On ch=12 n=63 v=39
174840 Off ch=12 n=63 v=64
174840 On ch=12 n=63 v=35
174960 Off ch=12 n=63 v=64
174960 On ch=12 n=58 v=39
175080 Off ch=12 n=58 v=64
175080 On ch=12 n=58 v=35
175200 Off ch=12 n=58 v=64
175200 On ch=12 n=61 v=39
175320 Off ch=12 n=61 v=64
175320 On ch=12 n=61 v=35
175440 Off ch=12 n=61 v=64
175440 On ch=12 n=58 v=39
175560 Off ch=12 n=58 v=64
175560 On ch=12 n=58 v=35
175680 Off ch=12 n=58 v=64
175680 On ch=12 n=63 v=39
175800 Off ch=12 n=63 v=64
175800 On ch=12 n=63 v=35
175920 Off ch=12 n=63 v=64
175920 On ch=12 n=58 v=39
176040 Off ch=12 n=58 v=64
176040 On ch=12 n=58 v=35
176160 Off ch=12 n=58 v=64
176160 On ch=12 n=61 v=39
176280 Off ch=12 n=61 v=64
176280 On ch=12 n=61 v=35
176400 Off ch=12 n=61 v=64
176400 On ch=12 n=58 v=39
176520 Off ch=12 n=58 v=64
176520 On ch=12 n=58 v=35
176640 Off ch=12 n=58 v=64
176640 On ch=12 n=63 v=39
176760 Off ch=12 n=63 v=64
176760 On ch=12 n=63 v=35
176880 Off ch=12 n=63 v=64
176880 On ch=12 n=58 v=39
177000 Off ch=12 n=58 v=64
177000 On ch=12 n=58 v=35
177120 Off ch=12 n=58 v=64
177120 On ch=12 n=61 v=39
177240 Off ch=12 n=61 v=64
177240 On ch=12 n=61 v=35
177360 Off ch=12 n=61 v=64
177360 On ch=12 n=58 v=39
177480 Off ch=12 n=58 v=64
177480 On ch=12 n=58 v=35
177600 Off ch=12 n=58 v=64
177600 On ch=12 n=63 v=39
177720 Off ch=12 n=63 v=64
177720 On ch=12 n=63 v=35
177840 Off ch=12 n=63 v=64
177840 On ch=12 n=58 v=39
177960 Off ch=12 n=58 v=64
177960 On ch=12 n=58 v=35
178080 Off ch=12 n=58 v=64
178080 On ch=12 n=61 v=39
178200 Off ch=12 n=61 v=64
178200 On ch=12 n=61 v=35
178320 Off ch=12 n=61 v=64
178320 On ch=12 n=58 v=39
178440 Off ch=12 n=58 v=64
178440 On ch=12 n=58 v=35
178560 Off ch=12 n=58 v=64
178560 On ch=12 n=63 v=39
178680 Off ch=12 n=63 v=64
178680 On ch=12 n=63 v=35
178800 Off ch=12 n=63 v=64
178800 On ch=12 n=58 v=39
178920 Off ch=12 n=58 v=64
178920 On ch=12 n=58 v=35
179040 Off ch=12 n=58 v=64
179040 On ch=12 n=61 v=39
179160 Off ch=12 n=61 v=64
179160 On ch=12 n=61 v=35
179280 Off ch=12 n=61 v=64
179280 On ch=12 n=58 v=39
179400 Off ch=12 n=58 v=64
179400 On ch=12 n=58 v=35
179520 Off ch=12 n=58 v=64
179520 On ch=12 n=63 v=39
179640 Off ch=12 n=63 v=64
179640 On ch=12 n=63 v=35
179760 Off ch=12 n=63 v=64
179760 On ch=12 n=58 v=39
179880 Off ch=12 n=58 v=64
179880 On ch=12 n=58 v=35
180000 Off ch=12 n=58 v=64
180000 On ch=12 n=61 v=39
180120 Off ch=12 n=61 v=64
180120 On ch=12 n=61 v=35
180240 Off ch=12 n=61 v=64
180240 On ch=12 n=58 v=39
180360 Off ch=12 n=58 v=64
180360 On ch=12 n=58 v=35
180480 Off ch=12 n=58 v=64
180480 On ch=12 n=63 v=39
180600 Off ch=12 n=63 v=64
180600 On ch=12 n=63 v=35
180720 Off ch=12 n=63 v=64
180720 On ch=12 n=58 v=39
180840 Off ch=12 n=58 v=64
180840 On ch=12 n=58 v=35
180960 Off ch=12 n=58 v=64
180960 On ch=12 n=61 v=39
181080 Off ch=12 n=61 v=64
181080 On ch=12 n=61 v=35
181200 Off ch=12 n=61 v=64
181200 On ch=12 n=58 v=39
181320 Off ch=12 n=58 v=64
181320 On ch=12 n=58 v=35
181440 Off ch=12 n=58 v=64
181440 On ch=12 n=63 v=39
181560 Off ch=12 n=63 v=64
181560 On ch=12 n=63 v=35
181680 Off ch=12 n=63 v=64
181680 On ch=12 n=58 v=39
181800 Off ch=12 n=58 v=64
181800 On ch=12 n=58 v=35
181920 Off ch=12 n=58 v=64
181920 On ch=12 n=61 v=39
182040 Off ch=12 n=61 v=64
182040 On ch=12 n=61 v=35
182160 Off ch=12 n=61 v=64
182160 On ch=12 n=58 v=39
182280 Off ch=12 n=58 v=64
182280 On ch=12 n=58 v=35
182400 Off ch=12 n=58 v=64
182400 On ch=12 n=63 v=39
182520 Off ch=12 n=63 v=64
182520 On ch=12 n=63 v=35
182640 Off ch=12 n=63 v=64
182640 On ch=12 n=58 v=39
182760 Off ch=12 n=58 v=64
182760 On ch=12 n=58 v=35
182880 Off ch=12 n=58 v=64
182880 On ch=12 n=61 v=39
183000 Off ch=12 n=61 v=64
183000 On ch=12 n=61 v=35
183120 Off ch=12 n=61 v=64
183120 On ch=12 n=58 v=39
183240 Off ch=12 n=58 v=64
183240 On ch=12 n=58 v=35
183360 Off ch=12 n=58 v=64
183360 On ch=12 n=63 v=39
183480 Off ch=12 n=63 v=64
183480 On ch=12 n=63 v=35
183600 Off ch=12 n=63 v=64
183600 On ch=12 n=58 v=39
183720 Off ch=12 n=58 v=64
183720 On ch=12 n=58 v=35
183840 Off ch=12 n=58 v=64
183840 On ch=12 n=61 v=39
183960 Off ch=12 n=61 v=64
183960 On ch=12 n=61 v=35
184080 Off ch=12 n=61 v=64
184080 On ch=12 n=58 v=39
184200 Off ch=12 n=58 v=64
184200 On ch=12 n=58 v=35
184320 Off ch=12 n=58 v=64
184320 On ch=12 n=63 v=39
184440 Off ch=12 n=63 v=64
184440 On ch=12 n=63 v=35
184560 Off ch=12 n=63 v=64
184560 On ch=12 n=58 v=39
184680 Off ch=12 n=58 v=64
184680 On ch=12 n=58 v=35
184800 Off ch=12 n=58 v=64
184800 On ch=12 n=61 v=39
184920 Off ch=12 n=61 v=64
184920 On ch=12 n=61 v=35
185040 Off ch=12 n=61 v=64
185040 On ch=12 n=58 v=39
185160 Off ch=12 n=58 v=64
185160 On ch=12 n=58 v=35
185280 Off ch=12 n=58 v=64
185280 On ch=12 n=63 v=39
185400 Off ch=12 n=63 v=64
185400 On ch=12 n=63 v=35
185520 Off ch=12 n=63 v=64
185520 On ch=12 n=58 v=39
185640 Off ch=12 n=58 v=64
185640 On ch=12 n=58 v=35
185760 Off ch=12 n=58 v=64
185760 On ch=12 n=61 v=39
185880 Off ch=12 n=61 v=64
185880 On ch=12 n=61 v=35
186000 Off ch=12 n=61 v=64
186000 On ch=12 n=58 v=39
186120 Off ch=12 n=58 v=64
186120 On ch=12 n=58 v=35
186240 Off ch=12 n=58 v=64
186240 On ch=12 n=63 v=39
186360 Off ch=12 n=63 v=64
186360 On ch=12 n=63 v=35
186480 Off ch=12 n=63 v=64
186480 On ch=12 n=58 v=39
186600 Off ch=12 n=58 v=64
186600 On ch=12 n=58 v=35
186720 Off ch=12 n=58 v=64
186720 On ch=12 n=61 v=39
186840 Off ch=12 n=61 v=64
186840 On ch=12 n=61 v=35
186960 Off ch=12 n=61 v=64
186960 On ch=12 n=58 v=39
187080 Off ch=12 n=58 v=64
187080 On ch=12 n=58 v=35
187200 Off ch=12 n=58 v=64
187200 On ch=12 n=63 v=39
187320 Off ch=12 n=63 v=64
187320 On ch=12 n=63 v=35
187440 Off ch=12 n=63 v=64
187440 On ch=12 n=58 v=39
187560 Off ch=12 n=58 v=64
187560 On ch=12 n=58 v=35
187680 Off ch=12 n=58 v=64
187680 On ch=12 n=61 v=39
187800 Off ch=12 n=61 v=64
187800 On ch=12 n=61 v=35
187920 Off ch=12 n=61 v=64
187920 On ch=12 n=58 v=39
188040 Off ch=12 n=58 v=64
188040 On ch=12 n=58 v=35
188160 Off ch=12 n=58 v=64
188160 On ch=12 n=63 v=39
188280 Off ch=12 n=63 v=64
188280 On ch=12 n=63 v=35
188400 Off ch=12 n=63 v=64
188400 On ch=12 n=58 v=39
188520 Off ch=12 n=58 v=64
188520 On ch=12 n=58 v=35
188640 Off ch=12 n=58 v=64
188640 On ch=12 n=61 v=39
188760 Off ch=12 n=61 v=64
188760 On ch=12 n=61 v=35
188880 Off ch=12 n=61 v=64
188880 On ch=12 n=58 v=39
189000 Off ch=12 n=58 v=64
189000 On ch=12 n=58 v=35
189120 Off ch=12 n=58 v=64
189120 On ch=12 n=63 v=39
189240 Off ch=12 n=63 v=64
189240 On ch=12 n=63 v=35
189360 Off ch=12 n=63 v=64
189360 On ch=12 n=58 v=39
189480 Off ch=12 n=58 v=64
189480 On ch=12 n=58 v=35
189600 Off ch=12 n=58 v=64
189600 On ch=12 n=61 v=39
189720 Off ch=12 n=61 v=64
189720 On ch=12 n=61 v=35
189840 Off ch=12 n=61 v=64
189840 On ch=12 n=58 v=39
189960 Off ch=12 n=58 v=64
189960 On ch=12 n=58 v=35
190080 Off ch=12 n=58 v=64
190080 On ch=12 n=63 v=39
190200 Off ch=12 n=63 v=64
190200 On ch=12 n=63 v=35
190320 Off ch=12 n=63 v=64
190320 On ch=12 n=58 v=39
190440 Off ch=12 n=58 v=64
190440 On ch=12 n=58 v=35
190560 Off ch=12 n=58 v=64
190560 On ch=12 n=61 v=39
190680 Off ch=12 n=61 v=64
190680 On ch=12 n=61 v=35
190800 Off ch=12 n=61 v=64
190800 On ch=12 n=58 v=39
190920 Off ch=12 n=58 v=64
190920 On ch=12 n=58 v=35
191040 Off ch=12 n=58 v=64
191040 On ch=12 n=63 v=39
191160 Off ch=12 n=63 v=64
191160 On ch=12 n=63 v=35
191280 Off ch=12 n=63 v=64
191280 On ch=12 n=58 v=39
191400 Off ch=12 n=58 v=64
191400 On ch=12 n=58 v=35
191520 Off ch=12 n=58 v=64
191520 On ch=12 n=61 v=39
191640 Off ch=12 n=61 v=64
191640 On ch=12 n=61 v=35
191760 Off ch=12 n=61 v=64
191760 On ch=12 n=58 v=39
191880 Off ch=12 n=58 v=64
191880 On ch=12 n=58 v=35
192000 Off ch=12 n=58 v=64
192000 On ch=12 n=63 v=39
192120 Off ch=12 n=63 v=64
192120 On ch=12 n=63 v=35
192240 Off ch=12 n=63 v=64
192240 On ch=12 n=58 v=39
192360 Off ch=12 n=58 v=64
192360 On ch=12 n=58 v=35
192480 Off ch=12 n=58 v=64
192480 On ch=12 n=61 v=39
192600 Off ch=12 n=61 v=64
192600 On ch=12 n=61 v=35
192720 Off ch=12 n=61 v=64
192720 On ch=12 n=58 v=39
192840 Off ch=12 n=58 v=64
192840 On ch=12 n=58 v=35
192960 Off ch=12 n=58 v=64
192960 On ch=12 n=63 v=39
193080 Off ch=12 n=63 v=64
193080 On ch=12 n=63 v=35
193200 Off ch=12 n=63 v=64
193200 On ch=12 n=58 v=39
193320 Off ch=12 n=58 v=64
193320 On ch=12 n=58 v=35
193440 Off ch=12 n=58 v=64
193440 On ch=12 n=61 v=39
193560 Off ch=12 n=61 v=64
193560 On ch=12 n=61 v=35
193680 Off ch=12 n=61 v=64
193680 On ch=12 n=58 v=39
193800 Off ch=12 n=58 v=64
193800 On ch=12 n=58 v=35
193920 Off ch=12 n=58 v=64
193920 On ch=12 n=63 v=39
194040 Off ch=12 n=63 v=64
194040 On ch=12 n=63 v=35
194160 Off ch=12 n=63 v=64
194160 On ch=12 n=58 v=39
194280 Off ch=12 n=58 v=64
194280 On ch=12 n=58 v=35
194400 Off ch=12 n=58 v=64
194400 On ch=12 n=61 v=39
194520 Off ch=12 n=61 v=64
194520 On ch=12 n=61 v=35
194640 Off ch=12 n=61 v=64
194640 On ch=12 n=58 v=39
194760 Off ch=12 n=58 v=64
194760 On ch=12 n=58 v=35
194880 Off ch=12 n=58 v=64
194880 On ch=12 n=63 v=39
195000 Off ch=12 n=63 v=64
195000 On ch=12 n=63 v=35
195120 Off ch=12 n=63 v=64
195120 On ch=12 n=58 v=39
195240 Off ch=12 n=58 v=64
195240 On ch=12 n=58 v=35
195360 Off ch=12 n=58 v=64
195360 On ch=12 n=61 v=39
195480 Off ch=12 n=61 v=64
195480 On ch=12 n=61 v=35
195600 Off ch=12 n=61 v=64
195600 On ch=12 n=58 v=39
195720 Off ch=12 n=58 v=64
195720 On ch=12 n=58 v=35
195840 Off ch=12 n=58 v=64
195840 On ch=12 n=63 v=39
195960 Off ch=12 n=63 v=64
195960 On ch=12 n=63 v=35
196080 Off ch=12 n=63 v=64
196080 On ch=12 n=58 v=39
196200 Off ch=12 n=58 v=64
196200 On ch=12 n=58 v=35
196320 Off ch=12 n=58 v=64
196320 On ch=12 n=61 v=39
196440 Off ch=12 n=61 v=64
196440 On ch=12 n=61 v=35
196560 Off ch=12 n=61 v=64
196560 On ch=12 n=58 v=39
196680 Off ch=12 n=58 v=64
196680 On ch=12 n=58 v=35
196800 Off ch=12 n=58 v=64
196800 On ch=12 n=63 v=39
196920 Off ch=12 n=63 v=64
196920 On ch=12 n=63 v=35
197040 Off ch=12 n=63 v=64
197040 On ch=12 n=58 v=39
197160 Off ch=12 n=58 v=64
197160 On ch=12 n=58 v=35
197280 Off ch=12 n=58 v=64
198240 Par ch=12 c=0 v=0
198240 Par ch=12 c=32 v=2
198240 PrCh ch=12 p=73
206696 Par ch=12 c=7 v=62
206880 On ch=12 n=99 v=67
206940 On ch=12 n=92 v=67
206964 Off ch=12 n=99 v=64
207000 On ch=12 n=94 v=67
207024 Off ch=12 n=92 v=64
207060 On ch=12 n=92 v=67
207084 Off ch=12 n=94 v=64
207120 On ch=12 n=87 v=67
207144 Off ch=12 n=92 v=64
207200 Off ch=12 n=87 v=64
207360 On ch=12 n=99 v=67
207420 On ch=12 n=94 v=67
207444 Off ch=12 n=99 v=64
207480 On ch=12 n=96 v=67
207504 Off ch=12 n=94 v=64
207540 On ch=12 n=94 v=67
207564 Off ch=12 n=96 v=64
207600 On ch=12 n=87 v=67
207624 Off ch=12 n=94 v=64
207680 Off ch=12 n=87 v=64
207840 On ch=12 n=99 v=67
207900 On ch=12 n=92 v=67
207924 Off ch=12 n=99 v=64
207960 On ch=12 n=94 v=67
207984 Off ch=12 n=92 v=64
208020 On ch=12 n=92 v=67
208044 Off ch=12 n=94 v=64
208080 On ch=12 n=87 v=67
208104 Off ch=12 n=92 v=64
208160 Off ch=12 n=87 v=64
208320 On ch=12 n=99 v=67
208380 On ch=12 n=94 v=67
208404 Off ch=12 n=99 v=64
208440 On ch=12 n=96 v=67
208464 Off ch=12 n=94 v=64
208500 On ch=12 n=94 v=67
208524 Off ch=12 n=96 v=64
208560 On ch=12 n=87 v=67
208584 Off ch=12 n=94 v=64
208640 Off ch=12 n=87 v=64
208800 On ch=12 n=99 v=67
208860 On ch=12 n=92 v=67
208884 Off ch=12 n=99 v=64
208920 On ch=12 n=94 v=67
208944 Off ch=12 n=92 v=64
208980 On ch=12 n=92 v=67
209004 Off ch=12 n=94 v=64
209040 On ch=12 n=87 v=67
209064 Off ch=12 n=92 v=64
209120 Off ch=12 n=87 v=64
209280 On ch=12 n=99 v=67
209340 On ch=12 n=94 v=67
209364 Off ch=12 n=99 v=64
209400 On ch=12 n=96 v=67
209424 Off ch=12 n=94 v=64
209460 On ch=12 n=94 v=67
209484 Off ch=12 n=96 v=64
209520 On ch=12 n=87 v=67
209544 Off ch=12 n=94 v=64
209600 Off ch=12 n=87 v=64
209760 On ch=12 n=99 v=67
209820 On ch=12 n=92 v=67
209844 Off ch=12 n=99 v=64
209880 On ch=12 n=94 v=67
209904 Off ch=12 n=92 v=64
209940 On ch=12 n=92 v=67
209964 Off ch=12 n=94 v=64
210000 On ch=12 n=87 v=67
210024 Off ch=12 n=92 v=64
210080 Off ch=12 n=87 v=64
210240 On ch=12 n=99 v=67
210300 On ch=12 n=94 v=67
210324 Off ch=12 n=99 v=64
210360 On ch=12 n=96 v=67
210384 Off ch=12 n=94 v=64
210420 On ch=12 n=94 v=67
210444 Off ch=12 n=96 v=64
210480 On ch=12 n=87 v=67
210504 Off ch=12 n=94 v=64
210560 Off ch=12 n=87 v=64
210720 On ch=12 n=99 v=67
210780 On ch=12 n=92 v=67
210804 Off ch=12 n=99 v=64
210840 On ch=12 n=94 v=67
210864 Off ch=12 n=92 v=64
210900 On ch=12 n=92 v=67
210924 Off ch=12 n=94 v=64
210960 On ch=12 n=87 v=67
210984 Off ch=12 n=92 v=64
211040 Off ch=12 n=87 v=64
211200 On ch=12 n=99 v=67
211260 On ch=12 n=94 v=67
211284 Off ch=12 n=99 v=64
211320 On ch=12 n=96 v=67
211344 Off ch=12 n=94 v=64
211380 On ch=12 n=94 v=67
211404 Off ch=12 n=96 v=64
211440 On ch=12 n=87 v=67
211464 Off ch=12 n=94 v=64
211520 Off ch=12 n=87 v=64
211680 On ch=12 n=99 v=67
211740 On ch=12 n=92 v=67
211764 Off ch=12 n=99 v=64
211800 On ch=12 n=94 v=67
211824 Off ch=12 n=92 v=64
211860 On ch=12 n=92 v=67
211884 Off ch=12 n=94 v=64
211920 On ch=12 n=87 v=67
211944 Off ch=12 n=92 v=64
212000 Off ch=12 n=87 v=64
212160 On ch=12 n=99 v=67
212220 On ch=12 n=94 v=67
212244 Off ch=12 n=99 v=64
212280 On ch=12 n=96 v=67
212304 Off ch=12 n=94 v=64
212340 On ch=12 n=94 v=67
212364 Off ch=12 n=96 v=64
212400 On ch=12 n=87 v=67
212424 Off ch=12 n=94 v=64
212480 Off ch=12 n=87 v=64
212640 On ch=12 n=99 v=67
212700 On ch=12 n=92 v=67
212724 Off ch=12 n=99 v=64
212760 On ch=12 n=94 v=67
212784 Off ch=12 n=92 v=64
212820 On ch=12 n=92 v=67
212844 Off ch=12 n=94 v=64
212880 On ch=12 n=87 v=67
212904 Off ch=12 n=92 v=64
212960 Off ch=12 n=87 v=64
213120 On ch=12 n=99 v=67
213180 On ch=12 n=94 v=67
213204 Off ch=12 n=99 v=64
213240 On ch=12 n=96 v=67
213264 Off ch=12 n=94 v=64
213300 On ch=12 n=94 v=67
213324 Off ch=12 n=96 v=64
213360 On ch=12 n=87 v=67
213384 Off ch=12 n=94 v=64
213440 Off ch=12 n=87 v=64
213600 On ch=12 n=99 v=67
213660 On ch=12 n=92 v=67
213684 Off ch=12 n=99 v=64
213720 On ch=12 n=94 v=67
213744 Off ch=12 n=92 v=64
213780 On ch=12 n=92 v=67
213804 Off ch=12 n=94 v=64
213840 On ch=12 n=87 v=67
213864 Off ch=12 n=92 v=64
213920 Off ch=12 n=87 v=64
214080 On ch=12 n=99 v=67
214140 On ch=12 n=94 v=67
214164 Off ch=12 n=99 v=64
214200 On ch=12 n=96 v=67
214224 Off ch=12 n=94 v=64
214260 On ch=12 n=94 v=67
214284 Off ch=12 n=96 v=64
214320 On ch=12 n=87 v=67
214344 Off ch=12 n=94 v=64
214400 Off ch=12 n=87 v=64
227040 Par ch=12 c=0 v=0
227040 Par ch=12 c=32 v=1
227040 PrCh ch=12 p=48
230040 On ch=12 n=57 v=61
230104 Off ch=12 n=57 v=64
230160 On ch=12 n=59 v=63
230224 Off ch=12 n=59 v=64
230280 On ch=12 n=60 v=66
230344 Off ch=12 n=60 v=64
230400 On ch=12 n=62 v=68
230464 Off ch=12 n=62 v=64
230520 On ch=12 n=63 v=71
230584 Off ch=12 n=63 v=64
230640 On ch=12 n=65 v=73
230704 Off ch=12 n=65 v=64
230760 On ch=12 n=67 v=76
230824 Off ch=12 n=67 v=64
230880 On ch=12 n=69 v=78
230944 Off ch=12 n=69 v=64
231000 On ch=12 n=57 v=60
231000 On ch=12 n=60 v=60
231064 Off ch=12 n=57 v=64
231064 Off ch=12 n=60 v=64
231120 On ch=12 n=62 v=63
231120 On ch=12 n=59 v=63
231184 Off ch=12 n=62 v=64
231184 Off ch=12 n=59 v=64
231240 On ch=12 n=63 v=66
231240 On ch=12 n=60 v=66
231304 Off ch=12 n=63 v=64
231304 Off ch=12 n=60 v=64
231360 On ch=12 n=65 v=68
231360 On ch=12 n=62 v=68
231424 Off ch=12 n=65 v=64
231424 Off ch=12 n=62 v=64
231480 On ch=12 n=63 v=71
231480 On ch=12 n=67 v=71
231544 Off ch=12 n=63 v=64
231544 Off ch=12 n=67 v=64
231600 On ch=12 n=69 v=74
231600 On ch=12 n=65 v=74
231664 Off ch=12 n=69 v=64
231664 Off ch=12 n=65 v=64
231720 On ch=12 n=67 v=76
231720 On ch=12 n=71 v=76
231784 Off ch=12 n=67 v=64
231784 Off ch=12 n=71 v=64
231840 On ch=12 n=69 v=79
231840 On ch=12 n=72 v=79
231904 Off ch=12 n=69 v=64
231904 Off ch=12 n=72 v=64
231960 On ch=12 n=63 v=62
231960 On ch=12 n=57 v=62
231960 On ch=12 n=60 v=62
232024 Off ch=12 n=63 v=64
232024 Off ch=12 n=57 v=64
232024 Off ch=12 n=60 v=64
232080 On ch=12 n=65 v=64
232080 On ch=12 n=59 v=64
232080 On ch=12 n=62 v=64
232144 Off ch=12 n=65 v=64
232144 Off ch=12 n=59 v=64
232144 Off ch=12 n=62 v=64
232200 On ch=12 n=63 v=67
232200 On ch=12 n=67 v=67
232200 On ch=12 n=60 v=67
232264 Off ch=12 n=63 v=64
232264 Off ch=12 n=67 v=64
232264 Off ch=12 n=60 v=64
232320 On ch=12 n=65 v=69
232320 On ch=12 n=62 v=69
232320 On ch=12 n=69 v=69
232384 Off ch=12 n=65 v=64
232384 Off ch=12 n=62 v=64
232384 Off ch=12 n=69 v=64
232440 On ch=12 n=71 v=71
232440 On ch=12 n=63 v=71
232440 On ch=12 n=67 v=71
232504 Off ch=12 n=71 v=64
232504 Off ch=12 n=63 v=64
232504 Off ch=12 n=67 v=64
232560 On ch=12 n=69 v=73
232560 On ch=12 n=72 v=73
232560 On ch=12 n=65 v=73
232624 Off ch=12 n=69 v=64
232624 Off ch=12 n=72 v=64
232624 Off ch=12 n=65 v=64
232680 On ch=12 n=71 v=76
232680 On ch=12 n=74 v=76
232680 On ch=12 n=67 v=76
232744 Off ch=12 n=71 v=64
232744 Off ch=12 n=74 v=64
232744 Off ch=12 n=67 v=64
232800 On ch=12 n=69 v=78
232800 On ch=12 n=75 v=78
232800 On ch=12 n=72 v=78
232864 Off ch=12 n=69 v=64
232864 Off ch=12 n=75 v=64
232864 Off ch=12 n=72 v=64
232920 On ch=12 n=63 v=60
232920 On ch=12 n=67 v=60
232920 On ch=12 n=60 v=60
232920 On ch=12 n=57 v=60
232984 Off ch=12 n=63 v=64
232984 Off ch=12 n=67 v=64
232984 Off ch=12 n=60 v=64
232984 Off ch=12 n=57 v=64
233040 On ch=12 n=65 v=63
233040 On ch=12 n=59 v=63
233040 On ch=12 n=62 v=63
233040 On ch=12 n=69 v=63
233104 Off ch=12 n=65 v=64
233104 Off ch=12 n=59 v=64
233104 Off ch=12 n=62 v=64
233104 Off ch=12 n=69 v=64
233160 On ch=12 n=63 v=65
233160 On ch=12 n=67 v=65
233160 On ch=12 n=71 v=65
233160 On ch=12 n=60 v=65
233224 Off ch=12 n=63 v=64
233224 Off ch=12 n=67 v=64
233224 Off ch=12 n=71 v=64
233224 Off ch=12 n=60 v=64
233280 On ch=12 n=62 v=68
233280 On ch=12 n=69 v=68
233280 On ch=12 n=72 v=68
233280 On ch=12 n=65 v=68
233344 Off ch=12 n=62 v=64
233344 Off ch=12 n=69 v=64
233344 Off ch=12 n=72 v=64
233344 Off ch=12 n=65 v=64
233400 On ch=12 n=71 v=70
233400 On ch=12 n=67 v=70
233400 On ch=12 n=63 v=70
233400 On ch=12 n=74 v=70
233464 Off ch=12 n=71 v=64
233464 Off ch=12 n=67 v=64
233464 Off ch=12 n=63 v=64
233464 Off ch=12 n=74 v=64
233520 On ch=12 n=72 v=73
233520 On ch=12 n=75 v=73
233520 On ch=12 n=65 v=73
233520 On ch=12 n=69 v=73
233584 Off ch=12 n=72 v=64
233584 Off ch=12 n=75 v=64
233584 Off ch=12 n=65 v=64
233584 Off ch=12 n=69 v=64
233640 On ch=12 n=77 v=75
233640 On ch=12 n=71 v=75
233640 On ch=12 n=67 v=75
233640 On ch=12 n=74 v=75
233704 Off ch=12 n=77 v=64
233704 Off ch=12 n=71 v=64
233704 Off ch=12 n=67 v=64
233704 Off ch=12 n=74 v=64
233760 On ch=12 n=75 v=78
233760 On ch=12 n=72 v=78
233760 On ch=12 n=69 v=78
233760 On ch=12 n=79 v=78
233808 Off ch=12 n=75 v=64
233808 Off ch=12 n=72 v=64
233808 Off ch=12 n=69 v=64
233808 Off ch=12 n=79 v=64
233880 On ch=12 n=67 v=68
233880 On ch=12 n=77 v=68
233880 On ch=12 n=71 v=68
233880 On ch=12 n=74 v=68
233928 Off ch=12 n=67 v=64
233928 Off ch=12 n=77 v=64
233928 Off ch=12 n=71 v=64
233928 Off ch=12 n=74 v=64
234000 On ch=12 n=75 v=78
234000 On ch=12 n=72 v=78
234000 On ch=12 n=79 v=78
234000 On ch=12 n=69 v=78
234048 Off ch=12 n=75 v=64
234048 Off ch=12 n=72 v=64
234048 Off ch=12 n=79 v=64
234048 Off ch=12 n=69 v=64
234120 On ch=12 n=77 v=66
234120 On ch=12 n=71 v=66
234120 On ch=12 n=74 v=66
234120 On ch=12 n=67 v=66
234168 Off ch=12 n=77 v=64
234168 Off ch=12 n=71 v=64
234168 Off ch=12 n=74 v=64
234168 Off ch=12 n=67 v=64
234240 On ch=12 n=75 v=78
234240 On ch=12 n=79 v=78
234240 On ch=12 n=72 v=78
234240 On ch=12 n=69 v=78
234288 Off ch=12 n=75 v=64
234288 Off ch=12 n=79 v=64
234288 Off ch=12 n=72 v=64
234288 Off ch=12 n=69 v=64
234360 On ch=12 n=67 v=66
234360 On ch=12 n=74 v=66
234360 On ch=12 n=71 v=66
234360 On ch=12 n=77 v=66
234408 Off ch=12 n=67 v=64
234408 Off ch=12 n=74 v=64
234408 Off ch=12 n=71 v=64
234408 Off ch=12 n=77 v=64
234480 On ch=12 n=75 v=78
234480 On ch=12 n=79 v=78
234480 On ch=12 n=72 v=78
234480 On ch=12 n=69 v=78
234528 Off ch=12 n=75 v=64
234528 Off ch=12 n=79 v=64
234528 Off ch=12 n=72 v=64
234528 Off ch=12 n=69 v=64
234600 On ch=12 n=77 v=68
234600 On ch=12 n=71 v=68
234600 On ch=12 n=67 v=68
234600 On ch=12 n=74 v=68
234648 Off ch=12 n=77 v=64
234648 Off ch=12 n=71 v=64
234648 Off ch=12 n=67 v=64
234648 Off ch=12 n=74 v=64
234720 On ch=12 n=75 v=78
234720 On ch=12 n=72 v=78
234720 On ch=12 n=69 v=78
234720 On ch=12 n=79 v=78
234768 Off ch=12 n=75 v=64
234768 Off ch=12 n=72 v=64
234768 Off ch=12 n=69 v=64
234768 Off ch=12 n=79 v=64
234840 On ch=12 n=67 v=68
234840 On ch=12 n=77 v=68
234840 On ch=12 n=71 v=68
234840 On ch=12 n=74 v=68
234888 Off ch=12 n=67 v=64
234888 Off ch=12 n=77 v=64
234888 Off ch=12 n=71 v=64
234888 Off ch=12 n=74 v=64
234960 On ch=12 n=75 v=78
234960 On ch=12 n=72 v=78
234960 On ch=12 n=79 v=78
234960 On ch=12 n=69 v=78
235008 Off ch=12 n=75 v=64
235008 Off ch=12 n=72 v=64
235008 Off ch=12 n=79 v=64
235008 Off ch=12 n=69 v=64
235080 On ch=12 n=77 v=66
235080 On ch=12 n=71 v=66
235080 On ch=12 n=74 v=66
235080 On ch=12 n=67 v=66
235128 Off ch=12 n=77 v=64
235128 Off ch=12 n=71 v=64
235128 Off ch=12 n=74 v=64
235128 Off ch=12 n=67 v=64
235200 On ch=12 n=75 v=78
235200 On ch=12 n=79 v=78
235200 On ch=12 n=72 v=78
235200 On ch=12 n=69 v=78
235248 Off ch=12 n=75 v=64
235248 Off ch=12 n=79 v=64
235248 Off ch=12 n=72 v=64
235248 Off ch=12 n=69 v=64
235320 On ch=12 n=67 v=66
235320 On ch=12 n=74 v=66
235320 On ch=12 n=71 v=66
235320 On ch=12 n=77 v=66
235368 Off ch=12 n=67 v=64
235368 Off ch=12 n=74 v=64
235368 Off ch=12 n=71 v=64
235368 Off ch=12 n=77 v=64
235440 On ch=12 n=75 v=78
235440 On ch=12 n=79 v=78
235440 On ch=12 n=72 v=78
235440 On ch=12 n=69 v=78
235488 Off ch=12 n=75 v=64
235488 Off ch=12 n=79 v=64
235488 Off ch=12 n=72 v=64
235488 Off ch=12 n=69 v=64
235560 On ch=12 n=77 v=66
235560 On ch=12 n=71 v=66
235560 On ch=12 n=67 v=66
235560 On ch=12 n=74 v=66
235608 Off ch=12 n=77 v=64
235608 Off ch=12 n=71 v=64
235608 Off ch=12 n=67 v=64
235608 Off ch=12 n=74 v=64
235680 On ch=12 n=79 v=78
235680 On ch=12 n=72 v=78
235680 On ch=12 n=63 v=78
235680 On ch=12 n=69 v=78
235800 Off ch=12 n=79 v=64
235800 Off ch=12 n=72 v=64
235800 Off ch=12 n=63 v=64
235800 Off ch=12 n=69 v=64
235800 On ch=12 n=71 v=78
235800 On ch=12 n=77 v=78
235800 On ch=12 n=67 v=78
235800 On ch=12 n=62 v=78
235860 Off ch=12 n=71 v=64
235860 Off ch=12 n=77 v=64
235860 Off ch=12 n=67 v=64
235860 Off ch=12 n=62 v=64
235920 On ch=12 n=69 v=78
235920 On ch=12 n=75 v=78
235920 On ch=12 n=60 v=78
235920 On ch=12 n=65 v=78
235980 Off ch=12 n=69 v=64
235980 Off ch=12 n=75 v=64
235980 Off ch=12 n=60 v=64
235980 Off ch=12 n=65 v=64
236040 On ch=12 n=67 v=78
236040 On ch=12 n=74 v=78
236040 On ch=12 n=59 v=78
236040 On ch=12 n=63 v=78
236100 Off ch=12 n=67 v=64
236100 Off ch=12 n=74 v=64
236100 Off ch=12 n=59 v=64
236100 Off ch=12 n=63 v=64
236160 On ch=12 n=74 v=78
236160 On ch=12 n=81 v=78
236160 On ch=12 n=71 v=78
236160 On ch=12 n=65 v=78
236280 Off ch=12 n=74 v=64
236280 Off ch=12 n=81 v=64
236280 Off ch=12 n=71 v=64
236280 Off ch=12 n=65 v=64
236280 On ch=12 n=72 v=78
236280 On ch=12 n=79 v=78
236280 On ch=12 n=63 v=78
236280 On ch=12 n=69 v=78
236340 Off ch=12 n=72 v=64
236340 Off ch=12 n=79 v=64
236340 Off ch=12 n=63 v=64
236340 Off ch=12 n=69 v=64
236400 On ch=12 n=71 v=78
236400 On ch=12 n=77 v=78
236400 On ch=12 n=67 v=78
236400 On ch=12 n=62 v=78
236460 Off ch=12 n=71 v=64
236460 Off ch=12 n=77 v=64
236460 Off ch=12 n=67 v=64
236460 Off ch=12 n=62 v=64
236520 On ch=12 n=75 v=78
236520 On ch=12 n=69 v=78
236520 On ch=12 n=60 v=78
236520 On ch=12 n=65 v=78
236580 Off ch=12 n=75 v=64
236580 Off ch=12 n=69 v=64
236580 Off ch=12 n=60 v=64
236580 Off ch=12 n=65 v=64
236640 On ch=12 n=75 v=78
236640 On ch=12 n=72 v=78
236640 On ch=12 n=69 v=78
236640 On ch=12 n=79 v=78
236688 Off ch=12 n=75 v=64
236688 Off ch=12 n=72 v=64
236688 Off ch=12 n=69 v=64
236688 Off ch=12 n=79 v=64
236760 On ch=12 n=67 v=68
236760 On ch=12 n=77 v=68
236760 On ch=12 n=71 v=68
236760 On ch=12 n=74 v=68
236808 Off ch=12 n=67 v=64
236808 Off ch=12 n=77 v=64
236808 Off ch=12 n=71 v=64
236808 Off ch=12 n=74 v=64
236880 On ch=12 n=75 v=78
236880 On ch=12 n=72 v=78
236880 On ch=12 n=79 v=78
236880 On ch=12 n=69 v=78
236928 Off ch=12 n=75 v=64
236928 Off ch=12 n=72 v=64
236928 Off ch=12 n=79 v=64
236928 Off ch=12 n=69 v=64
237000 On ch=12 n=77 v=66
237000 On ch=12 n=71 v=66
237000 On ch=12 n=74 v=66
237000 On ch=12 n=67 v=66
237048 Off ch=12 n=77 v=64
237048 Off ch=12 n=71 v=64
237048 Off ch=12 n=74 v=64
237048 Off ch=12 n=67 v=64
237120 On ch=12 n=75 v=78
237120 On ch=12 n=79 v=78
237120 On ch=12 n=72 v=78
237120 On ch=12 n=69 v=78
237168 Off ch=12 n=75 v=64
237168 Off ch=12 n=79 v=64
237168 Off ch=12 n=72 v=64
237168 Off ch=12 n=69 v=64
237240 On ch=12 n=67 v=66
237240 On ch=12 n=74 v=66
237240 On ch=12 n=71 v=66
237240 On ch=12 n=77 v=66
237288 Off ch=12 n=67 v=64
237288 Off ch=12 n=74 v=64
237288 Off ch=12 n=71 v=64
237288 Off ch=12 n=77 v=64
237360 On ch=12 n=75 v=78
237360 On ch=12 n=79 v=78
237360 On ch=12 n=72 v=78
237360 On ch=12 n=69 v=78
237408 Off ch=12 n=75 v=64
237408 Off ch=12 n=79 v=64
237408 Off ch=12 n=72 v=64
237408 Off ch=12 n=69 v=64
237480 On ch=12 n=77 v=66
237480 On ch=12 n=71 v=66
237480 On ch=12 n=67 v=66
237480 On ch=12 n=74 v=66
237528 Off ch=12 n=77 v=64
237528 Off ch=12 n=71 v=64
237528 Off ch=12 n=67 v=64
237528 Off ch=12 n=74 v=64
237600 On ch=12 n=79 v=78
237600 On ch=12 n=72 v=78
237600 On ch=12 n=63 v=78
237600 On ch=12 n=69 v=78
237720 Off ch=12 n=79 v=64
237720 Off ch=12 n=72 v=64
237720 Off ch=12 n=63 v=64
237720 Off ch=12 n=69 v=64
237720 On ch=12 n=71 v=78
237720 On ch=12 n=77 v=78
237720 On ch=12 n=67 v=78
237720 On ch=12 n=62 v=78
237780 Off ch=12 n=71 v=64
237780 Off ch=12 n=77 v=64
237780 Off ch=12 n=67 v=64
237780 Off ch=12 n=62 v=64
237840 On ch=12 n=69 v=78
237840 On ch=12 n=75 v=78
237840 On ch=12 n=60 v=78
237840 On ch=12 n=65 v=78
237900 Off ch=12 n=69 v=64
237900 Off ch=12 n=75 v=64
237900 Off ch=12 n=60 v=64
237900 Off ch=12 n=65 v=64
237960 On ch=12 n=67 v=78
237960 On ch=12 n=74 v=78
237960 On ch=12 n=59 v=78
237960 On ch=12 n=63 v=78
238020 Off ch=12 n=67 v=64
238020 Off ch=12 n=74 v=64
238020 Off ch=12 n=59 v=64
238020 Off ch=12 n=63 v=64
238080 On ch=12 n=74 v=78
238080 On ch=12 n=81 v=78
238080 On ch=12 n=71 v=78
238080 On ch=12 n=65 v=78
238200 Off ch=12 n=74 v=64
238200 Off ch=12 n=81 v=64
238200 Off ch=12 n=71 v=64
238200 Off ch=12 n=65 v=64
238200 On ch=12 n=72 v=78
238200 On ch=12 n=79 v=78
238200 On ch=12 n=63 v=78
238200 On ch=12 n=69 v=78
238260 Off ch=12 n=72 v=64
238260 Off ch=12 n=79 v=64
238260 Off ch=12 n=63 v=64
238260 Off ch=12 n=69 v=64
238320 On ch=12 n=71 v=78
238320 On ch=12 n=77 v=78
238320 On ch=12 n=67 v=78
238320 On ch=12 n=62 v=78
238380 Off ch=12 n=71 v=64
238380 Off ch=12 n=77 v=64
238380 Off ch=12 n=67 v=64
238380 Off ch=12 n=62 v=64
238440 On ch=12 n=75 v=78
238440 On ch=12 n=69 v=78
238440 On ch=12 n=60 v=78
238440 On ch=12 n=65 v=78
238500 Off ch=12 n=75 v=64
238500 Off ch=12 n=69 v=64
238500 Off ch=12 n=60 v=64
238500 Off ch=12 n=65 v=64
238560 On ch=12 n=79 v=78
238560 On ch=12 n=72 v=78
238560 On ch=12 n=63 v=78
238560 On ch=12 n=69 v=78
238680 Off ch=12 n=79 v=64
238680 Off ch=12 n=72 v=64
238680 Off ch=12 n=63 v=64
238680 Off ch=12 n=69 v=64
238680 On ch=12 n=71 v=78
238680 On ch=12 n=77 v=78
238680 On ch=12 n=67 v=78
238680 On ch=12 n=62 v=78
238740 Off ch=12 n=71 v=64
238740 Off ch=12 n=77 v=64
238740 Off ch=12 n=67 v=64
238740 Off ch=12 n=62 v=64
238800 On ch=12 n=69 v=78
238800 On ch=12 n=75 v=78
238800 On ch=12 n=60 v=78
238800 On ch=12 n=65 v=78
238860 Off ch=12 n=69 v=64
238860 Off ch=12 n=75 v=64
238860 Off ch=12 n=60 v=64
238860 Off ch=12 n=65 v=64
238920 On ch=12 n=67 v=78
238920 On ch=12 n=74 v=78
238920 On ch=12 n=59 v=78
238920 On ch=12 n=63 v=78
238980 Off ch=12 n=67 v=64
238980 Off ch=12 n=74 v=64
238980 Off ch=12 n=59 v=64
238980 Off ch=12 n=63 v=64
239040 On ch=12 n=74 v=78
239040 On ch=12 n=81 v=78
239040 On ch=12 n=71 v=78
239040 On ch=12 n=65 v=78
239160 Off ch=12 n=74 v=64
239160 Off ch=12 n=81 v=64
239160 Off ch=12 n=71 v=64
239160 Off ch=12 n=65 v=64
239160 On ch=12 n=72 v=78
239160 On ch=12 n=79 v=78
239160 On ch=12 n=63 v=78
239160 On ch=12 n=69 v=78
239220 Off ch=12 n=72 v=64
239220 Off ch=12 n=79 v=64
239220 Off ch=12 n=63 v=64
239220 Off ch=12 n=69 v=64
239280 On ch=12 n=71 v=78
239280 On ch=12 n=77 v=78
239280 On ch=12 n=67 v=78
239280 On ch=12 n=62 v=78
239340 Off ch=12 n=71 v=64
239340 Off ch=12 n=77 v=64
239340 Off ch=12 n=67 v=64
239340 Off ch=12 n=62 v=64
239400 On ch=12 n=75 v=78
239400 On ch=12 n=69 v=78
239400 On ch=12 n=60 v=78
239400 On ch=12 n=65 v=78
239460 Off ch=12 n=75 v=64
239460 Off ch=12 n=69 v=64
239460 Off ch=12 n=60 v=64
239460 Off ch=12 n=65 v=64
239520 On ch=12 n=79 v=78
239520 On ch=12 n=72 v=78
239520 On ch=12 n=63 v=78
239520 On ch=12 n=69 v=78
239640 Off ch=12 n=79 v=64
239640 Off ch=12 n=72 v=64
239640 Off ch=12 n=63 v=64
239640 Off ch=12 n=69 v=64
239640 On ch=12 n=71 v=78
239640 On ch=12 n=77 v=78
239640 On ch=12 n=67 v=78
239640 On ch=12 n=62 v=78
239700 Off ch=12 n=71 v=64
239700 Off ch=12 n=77 v=64
239700 Off ch=12 n=67 v=64
239700 Off ch=12 n=62 v=64
239760 On ch=12 n=69 v=78
239760 On ch=12 n=75 v=78
239760 On ch=12 n=60 v=78
239760 On ch=12 n=65 v=78
239820 Off ch=12 n=69 v=64
239820 Off ch=12 n=75 v=64
239820 Off ch=12 n=60 v=64
239820 Off ch=12 n=65 v=64
239880 On ch=12 n=67 v=78
239880 On ch=12 n=74 v=78
239880 On ch=12 n=59 v=78
239880 On ch=12 n=63 v=78
239940 Off ch=12 n=67 v=64
239940 Off ch=12 n=74 v=64
239940 Off ch=12 n=59 v=64
239940 Off ch=12 n=63 v=64
240000 On ch=12 n=74 v=78
240000 On ch=12 n=81 v=78
240000 On ch=12 n=71 v=78
240000 On ch=12 n=65 v=78
240120 Off ch=12 n=74 v=64
240120 Off ch=12 n=81 v=64
240120 Off ch=12 n=71 v=64
240120 Off ch=12 n=65 v=64
240120 On ch=12 n=72 v=78
240120 On ch=12 n=79 v=78
240120 On ch=12 n=63 v=78
240120 On ch=12 n=69 v=78
240180 Off ch=12 n=72 v=64
240180 Off ch=12 n=79 v=64
240180 Off ch=12 n=63 v=64
240180 Off ch=12 n=69 v=64
240240 On ch=12 n=71 v=78
240240 On ch=12 n=77 v=78
240240 On ch=12 n=67 v=78
240240 On ch=12 n=62 v=78
240300 Off ch=12 n=71 v=64
240300 Off ch=12 n=77 v=64
240300 Off ch=12 n=67 v=64
240300 Off ch=12 n=62 v=64
240360 On ch=12 n=75 v=78
240360 On ch=12 n=69 v=78
240360 On ch=12 n=60 v=78
240360 On ch=12 n=65 v=78
240420 Off ch=12 n=75 v=64
240420 Off ch=12 n=69 v=64
240420 Off ch=12 n=60 v=64
240420 Off ch=12 n=65 v=64
240480 On ch=12 n=79 v=78
240480 On ch=12 n=72 v=78
240480 On ch=12 n=63 v=78
240480 On ch=12 n=69 v=78
240600 Off ch=12 n=79 v=64
240600 Off ch=12 n=72 v=64
240600 Off ch=12 n=63 v=64
240600 Off ch=12 n=69 v=64
240600 On ch=12 n=71 v=78
240600 On ch=12 n=77 v=78
240600 On ch=12 n=67 v=78
240600 On ch=12 n=62 v=78
240660 Off ch=12 n=71 v=64
240660 Off ch=12 n=77 v=64
240660 Off ch=12 n=67 v=64
240660 Off ch=12 n=62 v=64
240720 On ch=12 n=69 v=78
240720 On ch=12 n=75 v=78
240720 On ch=12 n=60 v=78
240720 On ch=12 n=65 v=78
240780 Off ch=12 n=69 v=64
240780 Off ch=12 n=75 v=64
240780 Off ch=12 n=60 v=64
240780 Off ch=12 n=65 v=64
240840 On ch=12 n=67 v=78
240840 On ch=12 n=74 v=78
240840 On ch=12 n=59 v=78
240840 On ch=12 n=63 v=78
240900 Off ch=12 n=67 v=64
240900 Off ch=12 n=74 v=64
240900 Off ch=12 n=59 v=64
240900 Off ch=12 n=63 v=64
240960 On ch=12 n=74 v=78
240960 On ch=12 n=81 v=78
240960 On ch=12 n=71 v=78
240960 On ch=12 n=65 v=78
241080 Off ch=12 n=74 v=64
241080 Off ch=12 n=81 v=64
241080 Off ch=12 n=71 v=64
241080 Off ch=12 n=65 v=64
241080 On ch=12 n=72 v=78
241080 On ch=12 n=79 v=78
241080 On ch=12 n=63 v=78
241080 On ch=12 n=69 v=78
241140 Off ch=12 n=72 v=64
241140 Off ch=12 n=79 v=64
241140 Off ch=12 n=63 v=64
241140 Off ch=12 n=69 v=64
241200 On ch=12 n=71 v=78
241200 On ch=12 n=77 v=78
241200 On ch=12 n=67 v=78
241200 On ch=12 n=62 v=78
241260 Off ch=12 n=71 v=64
241260 Off ch=12 n=77 v=64
241260 Off ch=12 n=67 v=64
241260 Off ch=12 n=62 v=64
241320 On ch=12 n=75 v=78
241320 On ch=12 n=69 v=78
241320 On ch=12 n=60 v=78
241320 On ch=12 n=65 v=78
241380 Off ch=12 n=75 v=64
241380 Off ch=12 n=69 v=64
241380 Off ch=12 n=60 v=64
241380 Off ch=12 n=65 v=64
241440 On ch=12 n=72 v=88
241440 On ch=12 n=69 v=88
241440 On ch=12 n=63 v=88
241440 On ch=12 n=67 v=88
241440 On ch=12 n=79 v=88
241560 Off ch=12 n=72 v=64
241560 Off ch=12 n=69 v=64
241560 Off ch=12 n=63 v=64
241560 Off ch=12 n=67 v=64
241560 Off ch=12 n=79 v=64
241560 On ch=12 n=71 v=88
241560 On ch=12 n=67 v=88
241560 On ch=12 n=65 v=88
241560 On ch=12 n=62 v=88
241560 On ch=12 n=77 v=88
241626 Off ch=12 n=71 v=64
241626 Off ch=12 n=67 v=64
241632 Off ch=12 n=65 v=64
241632 Off ch=12 n=62 v=64
241632 Off ch=12 n=77 v=64
241680 On ch=12 n=65 v=88
241680 On ch=12 n=69 v=88
241680 On ch=12 n=63 v=88
241680 On ch=12 n=60 v=88
241680 On ch=12 n=75 v=88
241746 Off ch=12 n=65 v=64
241746 Off ch=12 n=69 v=64
241752 Off ch=12 n=63 v=64
241752 Off ch=12 n=60 v=64
241752 Off ch=12 n=75 v=64
241800 On ch=12 n=67 v=88
241800 On ch=12 n=63 v=88
241800 On ch=12 n=59 v=88
241800 On ch=12 n=62 v=88
241800 On ch=12 n=74 v=88
241866 Off ch=12 n=67 v=64
241866 Off ch=12 n=63 v=64
241872 Off ch=12 n=59 v=64
241872 Off ch=12 n=62 v=64
241872 Off ch=12 n=74 v=64
241920 On ch=12 n=71 v=88
241920 On ch=12 n=74 v=88
241920 On ch=12 n=69 v=88
241920 On ch=12 n=65 v=88
241920 On ch=12 n=81 v=88
242040 Off ch=12 n=71 v=64
242040 Off ch=12 n=74 v=64
242040 Off ch=12 n=69 v=64
242040 Off ch=12 n=65 v=64
242040 Off ch=12 n=81 v=64
242040 On ch=12 n=72 v=88
242040 On ch=12 n=69 v=88
242040 On ch=12 n=63 v=88
242040 On ch=12 n=67 v=88
242040 On ch=12 n=79 v=88
242106 Off ch=12 n=72 v=64
242106 Off ch=12 n=69 v=64
242106 Off ch=12 n=63 v=64
242106 Off ch=12 n=67 v=64
242106 Off ch=12 n=79 v=64
242160 On ch=12 n=71 v=88
242160 On ch=12 n=67 v=88
242160 On ch=12 n=65 v=88
242160 On ch=12 n=62 v=88
242160 On ch=12 n=77 v=88
242226 Off ch=12 n=71 v=64
242226 Off ch=12 n=67 v=64
242226 Off ch=12 n=65 v=64
242226 Off ch=12 n=62 v=64
242226 Off ch=12 n=77 v=64
242280 On ch=12 n=65 v=88
242280 On ch=12 n=69 v=88
242280 On ch=12 n=63 v=88
242280 On ch=12 n=60 v=88
242280 On ch=12 n=75 v=88
242346 Off ch=12 n=65 v=64
242346 Off ch=12 n=69 v=64
242346 Off ch=12 n=63 v=64
242346 Off ch=12 n=60 v=64
242346 Off ch=12 n=75 v=64
242400 On ch=12 n=72 v=88
242400 On ch=12 n=75 v=88
242400 On ch=12 n=67 v=88
242400 On ch=12 n=71 v=88
242400 On ch=12 n=83 v=88
242520 Off ch=12 n=72 v=64
242520 Off ch=12 n=75 v=64
242520 Off ch=12 n=67 v=64
242520 Off ch=12 n=71 v=64
242520 Off ch=12 n=83 v=64
242520 On ch=12 n=71 v=88
242520 On ch=12 n=74 v=88
242520 On ch=12 n=69 v=88
242520 On ch=12 n=65 v=88
242520 On ch=12 n=81 v=88
242580 Off ch=12 n=81 v=64
242586 Off ch=12 n=71 v=64
242586 Off ch=12 n=74 v=64
242586 Off ch=12 n=69 v=64
242586 Off ch=12 n=65 v=64
242640 On ch=12 n=72 v=88
242640 On ch=12 n=69 v=88
242640 On ch=12 n=63 v=88
242640 On ch=12 n=67 v=88
242640 On ch=12 n=79 v=88
242700 Off ch=12 n=79 v=64
242706 Off ch=12 n=72 v=64
242706 Off ch=12 n=69 v=64
242706 Off ch=12 n=63 v=64
242706 Off ch=12 n=67 v=64
242760 On ch=12 n=71 v=88
242760 On ch=12 n=67 v=88
242760 On ch=12 n=62 v=88
242760 On ch=12 n=65 v=88
242760 On ch=12 n=77 v=88
242820 Off ch=12 n=77 v=64
242826 Off ch=12 n=71 v=64
242826 Off ch=12 n=67 v=64
242826 Off ch=12 n=62 v=64
242826 Off ch=12 n=65 v=64
242880 On ch=12 n=71 v=88
242880 On ch=12 n=74 v=88
242880 On ch=12 n=65 v=88
242880 On ch=12 n=69 v=88
242880 On ch=12 n=81 v=88
243000 Off ch=12 n=71 v=64
243000 Off ch=12 n=74 v=64
243000 Off ch=12 n=65 v=64
243000 Off ch=12 n=69 v=64
243000 Off ch=12 n=81 v=64
243000 On ch=12 n=69 v=88
243000 On ch=12 n=72 v=88
243000 On ch=12 n=63 v=88
243000 On ch=12 n=67 v=88
243000 On ch=12 n=79 v=88
243066 Off ch=12 n=69 v=64
243066 Off ch=12 n=72 v=64
243066 Off ch=12 n=63 v=64
243066 Off ch=12 n=67 v=64
243066 Off ch=12 n=79 v=64
243120 On ch=12 n=71 v=88
243120 On ch=12 n=67 v=88
243120 On ch=12 n=65 v=88
243120 On ch=12 n=62 v=88
243120 On ch=12 n=77 v=88
243186 Off ch=12 n=71 v=64
243186 Off ch=12 n=67 v=64
243186 Off ch=12 n=65 v=64
243186 Off ch=12 n=62 v=64
243186 Off ch=12 n=77 v=64
243240 On ch=12 n=69 v=88
243240 On ch=12 n=65 v=88
243240 On ch=12 n=63 v=88
243240 On ch=12 n=60 v=88
243240 On ch=12 n=75 v=88
243306 Off ch=12 n=69 v=64
243306 Off ch=12 n=65 v=64
243306 Off ch=12 n=63 v=64
243306 Off ch=12 n=60 v=64
243306 Off ch=12 n=75 v=64
243360 On ch=12 n=72 v=88
243360 On ch=12 n=69 v=88
243360 On ch=12 n=63 v=88
243360 On ch=12 n=67 v=88
243360 On ch=12 n=79 v=88
243480 Off ch=12 n=72 v=64
243480 Off ch=12 n=69 v=64
243480 Off ch=12 n=63 v=64
243480 Off ch=12 n=67 v=64
243480 Off ch=12 n=79 v=64
243480 On ch=12 n=67 v=88
243480 On ch=12 n=71 v=88
243480 On ch=12 n=65 v=88
243480 On ch=12 n=62 v=88
243480 On ch=12 n=77 v=88
243540 Off ch=12 n=67 v=64
243540 Off ch=12 n=71 v=64
243540 Off ch=12 n=65 v=64
243540 Off ch=12 n=62 v=64
243552 Off ch=12 n=77 v=64
243600 On ch=12 n=69 v=88
243600 On ch=12 n=65 v=88
243600 On ch=12 n=63 v=88
243600 On ch=12 n=60 v=88
243600 On ch=12 n=75 v=88
243660 Off ch=12 n=69 v=64
243660 Off ch=12 n=65 v=64
243660 Off ch=12 n=63 v=64
243660 Off ch=12 n=60 v=64
243672 Off ch=12 n=75 v=64
243720 On ch=12 n=63 v=88
243720 On ch=12 n=67 v=88
243720 On ch=12 n=59 v=88
243720 On ch=12 n=62 v=88
243720 On ch=12 n=74 v=88
243780 Off ch=12 n=63 v=64
243780 Off ch=12 n=67 v=64
243780 Off ch=12 n=59 v=64
243780 Off ch=12 n=62 v=64
243792 Off ch=12 n=74 v=64
243840 On ch=12 n=74 v=88
243840 On ch=12 n=71 v=88
243840 On ch=12 n=65 v=88
243840 On ch=12 n=69 v=88
243840 On ch=12 n=81 v=88
243960 Off ch=12 n=74 v=64
243960 Off ch=12 n=71 v=64
243960 Off ch=12 n=65 v=64
243960 Off ch=12 n=69 v=64
243960 Off ch=12 n=81 v=64
243960 On ch=12 n=72 v=88
243960 On ch=12 n=69 v=88
243960 On ch=12 n=63 v=88
243960 On ch=12 n=67 v=88
243960 On ch=12 n=79 v=88
244026 Off ch=12 n=72 v=64
244026 Off ch=12 n=69 v=64
244026 Off ch=12 n=63 v=64
244026 Off ch=12 n=67 v=64
244026 Off ch=12 n=79 v=64
244080 On ch=12 n=71 v=88
244080 On ch=12 n=67 v=88
244080 On ch=12 n=65 v=88
244080 On ch=12 n=62 v=88
244080 On ch=12 n=77 v=88
244146 Off ch=12 n=71 v=64
244146 Off ch=12 n=67 v=64
244146 Off ch=12 n=65 v=64
244146 Off ch=12 n=62 v=64
244146 Off ch=12 n=77 v=64
244200 On ch=12 n=65 v=88
244200 On ch=12 n=69 v=88
244200 On ch=12 n=63 v=88
244200 On ch=12 n=60 v=88
244200 On ch=12 n=75 v=88
244266 Off ch=12 n=65 v=64
244266 Off ch=12 n=69 v=64
244266 Off ch=12 n=63 v=64
244266 Off ch=12 n=60 v=64
244266 Off ch=12 n=75 v=64
244560 On ch=12 n=69 v=120
244560 On ch=12 n=79 v=120
244560 On ch=12 n=53 v=120
244560 On ch=12 n=41 v=120
244560 On ch=12 n=63 v=120
244734 Off ch=12 n=69 v=64
244734 Off ch=12 n=79 v=64
244758 Off ch=12 n=53 v=64
244758 Off ch=12 n=41 v=64
244758 Off ch=12 n=63 v=64
245040 On ch=12 n=79 v=120
245040 On ch=12 n=69 v=120
245040 On ch=12 n=55 v=120
245040 On ch=12 n=43 v=120
245040 On ch=12 n=63 v=120
245214 Off ch=12 n=79 v=64
245214 Off ch=12 n=69 v=64
245238 Off ch=12 n=55 v=64
245238 Off ch=12 n=43 v=64
245238 Off ch=12 n=63 v=64
245280 On ch=12 n=72 v=88
245280 On ch=12 n=69 v=88
245280 On ch=12 n=63 v=88
245280 On ch=12 n=67 v=88
245280 On ch=12 n=79 v=88
245400 Off ch=12 n=72 v=64
245400 Off ch=12 n=69 v=64
245400 Off ch=12 n=63 v=64
245400 Off ch=12 n=67 v=64
245400 Off ch=12 n=79 v=64
245400 On ch=12 n=71 v=88
245400 On ch=12 n=67 v=88
245400 On ch=12 n=65 v=88
245400 On ch=12 n=62 v=88
245400 On ch=12 n=77 v=88
245466 Off ch=12 n=71 v=64
245466 Off ch=12 n=67 v=64
245472 Off ch=12 n=65 v=64
245472 Off ch=12 n=62 v=64
245472 Off ch=12 n=77 v=64
245520 On ch=12 n=65 v=88
245520 On ch=12 n=69 v=88
245520 On ch=12 n=63 v=88
245520 On ch=12 n=60 v=88
245520 On ch=12 n=75 v=88
245586 Off ch=12 n=65 v=64
245586 Off ch=12 n=69 v=64
245592 Off ch=12 n=63 v=64
245592 Off ch=12 n=60 v=64
245592 Off ch=12 n=75 v=64
245640 On ch=12 n=67 v=88
245640 On ch=12 n=63 v=88
245640 On ch=12 n=59 v=88
245640 On ch=12 n=62 v=88
245640 On ch=12 n=74 v=88
245706 Off ch=12 n=67 v=64
245706 Off ch=12 n=63 v=64
245712 Off ch=12 n=59 v=64
245712 Off ch=12 n=62 v=64
245712 Off ch=12 n=74 v=64
245760 On ch=12 n=71 v=88
245760 On ch=12 n=74 v=88
245760 On ch=12 n=69 v=88
245760 On ch=12 n=65 v=88
245760 On ch=12 n=81 v=88
245880 Off ch=12 n=71 v=64
245880 Off ch=12 n=74 v=64
245880 Off ch=12 n=69 v=64
245880 Off ch=12 n=65 v=64
245880 Off ch=12 n=81 v=64
245880 On ch=12 n=72 v=88
245880 On ch=12 n=69 v=88
245880 On ch=12 n=63 v=88
245880 On ch=12 n=67 v=88
245880 On ch=12 n=79 v=88
245946 Off ch=12 n=72 v=64
245946 Off ch=12 n=69 v=64
245946 Off ch=12 n=63 v=64
245946 Off ch=12 n=67 v=64
245946 Off ch=12 n=79 v=64
246000 On ch=12 n=71 v=88
246000 On ch=12 n=67 v=88
246000 On ch=12 n=65 v=88
246000 On ch=12 n=62 v=88
246000 On ch=12 n=77 v=88
246066 Off ch=12 n=71 v=64
246066 Off ch=12 n=67 v=64
246066 Off ch=12 n=65 v=64
246066 Off ch=12 n=62 v=64
246066 Off ch=12 n=77 v=64
246120 On ch=12 n=65 v=88
246120 On ch=12 n=69 v=88
246120 On ch=12 n=63 v=88
246120 On ch=12 n=60 v=88
246120 On ch=12 n=75 v=88
246186 Off ch=12 n=65 v=64
246186 Off ch=12 n=69 v=64
246186 Off ch=12 n=63 v=64
246186 Off ch=12 n=60 v=64
246186 Off ch=12 n=75 v=64
246240 On ch=12 n=72 v=88
246240 On ch=12 n=75 v=88
246240 On ch=12 n=67 v=88
246240 On ch=12 n=71 v=88
246240 On ch=12 n=83 v=88
246360 Off ch=12 n=72 v=64
246360 Off ch=12 n=75 v=64
246360 Off ch=12 n=67 v=64
246360 Off ch=12 n=71 v=64
246360 Off ch=12 n=83 v=64
246360 On ch=12 n=71 v=88
246360 On ch=12 n=74 v=88
246360 On ch=12 n=69 v=88
246360 On ch=12 n=65 v=88
246360 On ch=12 n=81 v=88
246420 Off ch=12 n=81 v=64
246426 Off ch=12 n=71 v=64
246426 Off ch=12 n=74 v=64
246426 Off ch=12 n=69 v=64
246426 Off ch=12 n=65 v=64
246480 On ch=12 n=72 v=88
246480 On ch=12 n=69 v=88
246480 On ch=12 n=63 v=88
246480 On ch=12 n=67 v=88
246480 On ch=12 n=79 v=88
246540 Off ch=12 n=79 v=64
246546 Off ch=12 n=72 v=64
246546 Off ch=12 n=69 v=64
246546 Off ch=12 n=63 v=64
246546 Off ch=12 n=67 v=64
246600 On ch=12 n=71 v=88
246600 On ch=12 n=67 v=88
246600 On ch=12 n=62 v=88
246600 On ch=12 n=65 v=88
246600 On ch=12 n=77 v=88
246660 Off ch=12 n=77 v=64
246666 Off ch=12 n=71 v=64
246666 Off ch=12 n=67 v=64
246666 Off ch=12 n=62 v=64
246666 Off ch=12 n=65 v=64
246720 On ch=12 n=71 v=88
246720 On ch=12 n=74 v=88
246720 On ch=12 n=65 v=88
246720 On ch=12 n=69 v=88
246720 On ch=12 n=81 v=88
246840 Off ch=12 n=71 v=64
246840 Off ch=12 n=74 v=64
246840 Off ch=12 n=65 v=64
246840 Off ch=12 n=69 v=64
246840 Off ch=12 n=81 v=64
246840 On ch=12 n=69 v=88
246840 On ch=12 n=72 v=88
246840 On ch=12 n=63 v=88
246840 On ch=12 n=67 v=88
246840 On ch=12 n=79 v=88
246906 Off ch=12 n=69 v=64
246906 Off ch=12 n=72 v=64
246906 Off ch=12 n=63 v=64
246906 Off ch=12 n=67 v=64
246906 Off ch=12 n=79 v=64
246960 On ch=12 n=71 v=88
246960 On ch=12 n=67 v=88
246960 On ch=12 n=65 v=88
246960 On ch=12 n=62 v=88
246960 On ch=12 n=77 v=88
247026 Off ch=12 n=71 v=64
247026 Off ch=12 n=67 v=64
247026 Off ch=12 n=65 v=64
247026 Off ch=12 n=62 v=64
247026 Off ch=12 n=77 v=64
247080 On ch=12 n=69 v=88
247080 On ch=12 n=65 v=88
247080 On ch=12 n=63 v=88
247080 On ch=12 n=60 v=88
247080 On ch=12 n=75 v=88
247146 Off ch=12 n=69 v=64
247146 Off ch=12 n=65 v=64
247146 Off ch=12 n=63 v=64
247146 Off ch=12 n=60 v=64
247146 Off ch=12 n=75 v=64
247200 On ch=12 n=72 v=88
247200 On ch=12 n=69 v=88
247200 On ch=12 n=63 v=88
247200 On ch=12 n=67 v=88
247200 On ch=12 n=79 v=88
247320 Off ch=12 n=72 v=64
247320 Off ch=12 n=69 v=64
247320 Off ch=12 n=63 v=64
247320 Off ch=12 n=67 v=64
247320 Off ch=12 n=79 v=64
247320 On ch=12 n=67 v=88
247320 On ch=12 n=71 v=88
247320 On ch=12 n=65 v=88
247320 On ch=12 n=62 v=88
247320 On ch=12 n=77 v=88
247380 Off ch=12 n=67 v=64
247380 Off ch=12 n=71 v=64
247380 Off ch=12 n=65 v=64
247380 Off ch=12 n=62 v=64
247392 Off ch=12 n=77 v=64
247440 On ch=12 n=69 v=88
247440 On ch=12 n=65 v=88
247440 On ch=12 n=63 v=88
247440 On ch=12 n=60 v=88
247440 On ch=12 n=75 v=88
247500 Off ch=12 n=69 v=64
247500 Off ch=12 n=65 v=64
247500 Off ch=12 n=63 v=64
247500 Off ch=12 n=60 v=64
247512 Off ch=12 n=75 v=64
247560 On ch=12 n=63 v=88
247560 On ch=12 n=67 v=88
247560 On ch=12 n=59 v=88
247560 On ch=12 n=62 v=88
247560 On ch=12 n=74 v=88
247620 Off ch=12 n=63 v=64
247620 Off ch=12 n=67 v=64
247620 Off ch=12 n=59 v=64
247620 Off ch=12 n=62 v=64
247632 Off ch=12 n=74 v=64
247680 On ch=12 n=74 v=88
247680 On ch=12 n=71 v=88
247680 On ch=12 n=65 v=88
247680 On ch=12 n=69 v=88
247680 On ch=12 n=81 v=88
247800 Off ch=12 n=74 v=64
247800 Off ch=12 n=71 v=64
247800 Off ch=12 n=65 v=64
247800 Off ch=12 n=69 v=64
247800 Off ch=12 n=81 v=64
247800 On ch=12 n=72 v=88
247800 On ch=12 n=69 v=88
247800 On ch=12 n=63 v=88
247800 On ch=12 n=67 v=88
247800 On ch=12 n=79 v=88
247866 Off ch=12 n=72 v=64
247866 Off ch=12 n=69 v=64
247866 Off ch=12 n=63 v=64
247866 Off ch=12 n=67 v=64
247866 Off ch=12 n=79 v=64
247920 On ch=12 n=71 v=88
247920 On ch=12 n=67 v=88
247920 On ch=12 n=65 v=88
247920 On ch=12 n=62 v=88
247920 On ch=12 n=77 v=88
247986 Off ch=12 n=71 v=64
247986 Off ch=12 n=67 v=64
247986 Off ch=12 n=65 v=64
247986 Off ch=12 n=62 v=64
247986 Off ch=12 n=77 v=64
248040 On ch=12 n=65 v=88
248040 On ch=12 n=69 v=88
248040 On ch=12 n=63 v=88
248040 On ch=12 n=60 v=88
248040 On ch=12 n=75 v=88
248106 Off ch=12 n=65 v=64
248106 Off ch=12 n=69 v=64
248106 Off ch=12 n=63 v=64
248106 Off ch=12 n=60 v=64
248106 Off ch=12 n=75 v=64
248400 On ch=12 n=69 v=120
248400 On ch=12 n=79 v=120
248400 On ch=12 n=53 v=120
248400 On ch=12 n=41 v=120
248400 On ch=12 n=63 v=120
248574 Off ch=12 n=69 v=64
248574 Off ch=12 n=79 v=64
248598 Off ch=12 n=53 v=64
248598 Off ch=12 n=41 v=64
248598 Off ch=12 n=63 v=64
248880 On ch=12 n=79 v=120
248880 On ch=12 n=69 v=120
248880 On ch=12 n=55 v=120
248880 On ch=12 n=43 v=120
248880 On ch=12 n=63 v=120
249054 Off ch=12 n=79 v=64
249054 Off ch=12 n=69 v=64
249078 Off ch=12 n=55 v=64
249078 Off ch=12 n=43 v=64
249078 Off ch=12 n=63 v=64
249120 On ch=12 n=72 v=88
249120 On ch=12 n=69 v=88
249120 On ch=12 n=63 v=88
249120 On ch=12 n=67 v=88
249120 On ch=12 n=79 v=88
249240 Off ch=12 n=72 v=64
249240 Off ch=12 n=69 v=64
249240 Off ch=12 n=63 v=64
249240 Off ch=12 n=67 v=64
249240 Off ch=12 n=79 v=64
249240 On ch=12 n=71 v=88
249240 On ch=12 n=67 v=88
249240 On ch=12 n=65 v=88
249240 On ch=12 n=62 v=88
249240 On ch=12 n=77 v=88
249306 Off ch=12 n=71 v=64
249306 Off ch=12 n=67 v=64
249312 Off ch=12 n=65 v=64
249312 Off ch=12 n=62 v=64
249312 Off ch=12 n=77 v=64
249360 On ch=12 n=65 v=88
249360 On ch=12 n=69 v=88
249360 On ch=12 n=63 v=88
249360 On ch=12 n=60 v=88
249360 On ch=12 n=75 v=88
249426 Off ch=12 n=65 v=64
249426 Off ch=12 n=69 v=64
249432 Off ch=12 n=63 v=64
249432 Off ch=12 n=60 v=64
249432 Off ch=12 n=75 v=64
249480 On ch=12 n=67 v=88
249480 On ch=12 n=63 v=88
249480 On ch=12 n=59 v=88
249480 On ch=12 n=62 v=88
249480 On ch=12 n=74 v=88
249546 Off ch=12 n=67 v=64
249546 Off ch=12 n=63 v=64
249552 Off ch=12 n=59 v=64
249552 Off ch=12 n=62 v=64
249552 Off ch=12 n=74 v=64
249600 On ch=12 n=71 v=88
249600 On ch=12 n=74 v=88
249600 On ch=12 n=69 v=88
249600 On ch=12 n=65 v=88
249600 On ch=12 n=81 v=88
249720 Off ch=12 n=71 v=64
249720 Off ch=12 n=74 v=64
249720 Off ch=12 n=69 v=64
249720 Off ch=12 n=65 v=64
249720 Off ch=12 n=81 v=64
249720 On ch=12 n=72 v=88
249720 On ch=12 n=69 v=88
249720 On ch=12 n=63 v=88
249720 On ch=12 n=67 v=88
249720 On ch=12 n=79 v=88
249786 Off ch=12 n=72 v=64
249786 Off ch=12 n=69 v=64
249786 Off ch=12 n=63 v=64
249786 Off ch=12 n=67 v=64
249786 Off ch=12 n=79 v=64
249840 On ch=12 n=71 v=88
249840 On ch=12 n=67 v=88
249840 On ch=12 n=65 v=88
249840 On ch=12 n=62 v=88
249840 On ch=12 n=77 v=88
249906 Off ch=12 n=71 v=64
249906 Off ch=12 n=67 v=64
249906 Off ch=12 n=65 v=64
249906 Off ch=12 n=62 v=64
249906 Off ch=12 n=77 v=64
249960 On ch=12 n=65 v=88
249960 On ch=12 n=69 v=88
249960 On ch=12 n=63 v=88
249960 On ch=12 n=60 v=88
249960 On ch=12 n=75 v=88
250026 Off ch=12 n=65 v=64
250026 Off ch=12 n=69 v=64
250026 Off ch=12 n=63 v=64
250026 Off ch=12 n=60 v=64
250026 Off ch=12 n=75 v=64
250080 On ch=12 n=72 v=88
250080 On ch=12 n=75 v=88
250080 On ch=12 n=67 v=88
250080 On ch=12 n=71 v=88
250080 On ch=12 n=83 v=88
250200 Off ch=12 n=72 v=64
250200 Off ch=12 n=75 v=64
250200 Off ch=12 n=67 v=64
250200 Off ch=12 n=71 v=64
250200 Off ch=12 n=83 v=64
250200 On ch=12 n=71 v=88
250200 On ch=12 n=74 v=88
250200 On ch=12 n=69 v=88
250200 On ch=12 n=65 v=88
250200 On ch=12 n=81 v=88
250260 Off ch=12 n=81 v=64
250266 Off ch=12 n=71 v=64
250266 Off ch=12 n=74 v=64
250266 Off ch=12 n=69 v=64
250266 Off ch=12 n=65 v=64
250320 On ch=12 n=72 v=88
250320 On ch=12 n=69 v=88
250320 On ch=12 n=63 v=88
250320 On ch=12 n=67 v=88
250320 On ch=12 n=79 v=88
250380 Off ch=12 n=79 v=64
250386 Off ch=12 n=72 v=64
250386 Off ch=12 n=69 v=64
250386 Off ch=12 n=63 v=64
250386 Off ch=12 n=67 v=64
250440 On ch=12 n=71 v=88
250440 On ch=12 n=67 v=88
250440 On ch=12 n=62 v=88
250440 On ch=12 n=65 v=88
250440 On ch=12 n=77 v=88
250500 Off ch=12 n=77 v=64
250506 Off ch=12 n=71 v=64
250506 Off ch=12 n=67 v=64
250506 Off ch=12 n=62 v=64
250506 Off ch=12 n=65 v=64
250560 On ch=12 n=71 v=88
250560 On ch=12 n=74 v=88
250560 On ch=12 n=65 v=88
250560 On ch=12 n=69 v=88
250560 On ch=12 n=81 v=88
250680 Off ch=12 n=71 v=64
250680 Off ch=12 n=74 v=64
250680 Off ch=12 n=65 v=64
250680 Off ch=12 n=69 v=64
250680 Off ch=12 n=81 v=64
250680 On ch=12 n=69 v=88
250680 On ch=12 n=72 v=88
250680 On ch=12 n=63 v=88
250680 On ch=12 n=67 v=88
250680 On ch=12 n=79 v=88
250746 Off ch=12 n=69 v=64
250746 Off ch=12 n=72 v=64
250746 Off ch=12 n=63 v=64
250746 Off ch=12 n=67 v=64
250746 Off ch=12 n=79 v=64
250800 On ch=12 n=71 v=88
250800 On ch=12 n=67 v=88
250800 On ch=12 n=65 v=88
250800 On ch=12 n=62 v=88
250800 On ch=12 n=77 v=88
250866 Off ch=12 n=71 v=64
250866 Off ch=12 n=67 v=64
250866 Off ch=12 n=65 v=64
250866 Off ch=12 n=62 v=64
250866 Off ch=12 n=77 v=64
250920 On ch=12 n=69 v=88
250920 On ch=12 n=65 v=88
250920 On ch=12 n=63 v=88
250920 On ch=12 n=60 v=88
250920 On ch=12 n=75 v=88
250986 Off ch=12 n=69 v=64
250986 Off ch=12 n=65 v=64
250986 Off ch=12 n=63 v=64
250986 Off ch=12 n=60 v=64
250986 Off ch=12 n=75 v=64
251040 On ch=12 n=72 v=88
251040 On ch=12 n=69 v=88
251040 On ch=12 n=63 v=88
251040 On ch=12 n=67 v=88
251040 On ch=12 n=79 v=88
251160 Off ch=12 n=72 v=64
251160 Off ch=12 n=69 v=64
251160 Off ch=12 n=63 v=64
251160 Off ch=12 n=67 v=64
251160 Off ch=12 n=79 v=64
251160 On ch=12 n=67 v=88
251160 On ch=12 n=71 v=88
251160 On ch=12 n=65 v=88
251160 On ch=12 n=62 v=88
251160 On ch=12 n=77 v=88
251220 Off ch=12 n=67 v=64
251220 Off ch=12 n=71 v=64
251220 Off ch=12 n=65 v=64
251220 Off ch=12 n=62 v=64
251232 Off ch=12 n=77 v=64
251280 On ch=12 n=69 v=88
251280 On ch=12 n=65 v=88
251280 On ch=12 n=63 v=88
251280 On ch=12 n=60 v=88
251280 On ch=12 n=75 v=88
251340 Off ch=12 n=69 v=64
251340 Off ch=12 n=65 v=64
251340 Off ch=12 n=63 v=64
251340 Off ch=12 n=60 v=64
251352 Off ch=12 n=75 v=64
251400 On ch=12 n=63 v=88
251400 On ch=12 n=67 v=88
251400 On ch=12 n=59 v=88
251400 On ch=12 n=62 v=88
251400 On ch=12 n=74 v=88
251460 Off ch=12 n=63 v=64
251460 Off ch=12 n=67 v=64
251460 Off ch=12 n=59 v=64
251460 Off ch=12 n=62 v=64
251472 Off ch=12 n=74 v=64
251520 On ch=12 n=74 v=88
251520 On ch=12 n=71 v=88
251520 On ch=12 n=65 v=88
251520 On ch=12 n=69 v=88
251520 On ch=12 n=81 v=88
251640 Off ch=12 n=74 v=64
251640 Off ch=12 n=71 v=64
251640 Off ch=12 n=65 v=64
251640 Off ch=12 n=69 v=64
251640 Off ch=12 n=81 v=64
251640 On ch=12 n=72 v=88
251640 On ch=12 n=69 v=88
251640 On ch=12 n=63 v=88
251640 On ch=12 n=67 v=88
251640 On ch=12 n=79 v=88
251706 Off ch=12 n=72 v=64
251706 Off ch=12 n=69 v=64
251706 Off ch=12 n=63 v=64
251706 Off ch=12 n=67 v=64
251706 Off ch=12 n=79 v=64
251760 On ch=12 n=71 v=88
251760 On ch=12 n=67 v=88
251760 On ch=12 n=65 v=88
251760 On ch=12 n=62 v=88
251760 On ch=12 n=77 v=88
251826 Off ch=12 n=71 v=64
251826 Off ch=12 n=67 v=64
251826 Off ch=12 n=65 v=64
251826 Off ch=12 n=62 v=64
251826 Off ch=12 n=77 v=64
251880 On ch=12 n=65 v=88
251880 On ch=12 n=69 v=88
251880 On ch=12 n=63 v=88
251880 On ch=12 n=60 v=88
251880 On ch=12 n=75 v=88
251946 Off ch=12 n=65 v=64
251946 Off ch=12 n=69 v=64
251946 Off ch=12 n=63 v=64
251946 Off ch=12 n=60 v=64
251946 Off ch=12 n=75 v=64
252240 On ch=12 n=69 v=120
252240 On ch=12 n=79 v=120
252240 On ch=12 n=53 v=120
252240 On ch=12 n=41 v=120
252240 On ch=12 n=63 v=120
252414 Off ch=12 n=69 v=64
252414 Off ch=12 n=79 v=64
252438 Off ch=12 n=53 v=64
252438 Off ch=12 n=41 v=64
252438 Off ch=12 n=63 v=64
252720 On ch=12 n=79 v=120
252720 On ch=12 n=69 v=120
252720 On ch=12 n=55 v=120
252720 On ch=12 n=43 v=120
252720 On ch=12 n=63 v=120
252894 Off ch=12 n=79 v=64
252894 Off ch=12 n=69 v=64
252918 Off ch=12 n=55 v=64
252918 Off ch=12 n=43 v=64
252918 Off ch=12 n=63 v=64
252960 On ch=12 n=75 v=88
252960 On ch=12 n=67 v=88
252960 On ch=12 n=64 v=70
252960 On ch=12 n=60 v=70
252960 On ch=12 n=70 v=75
252960 On ch=12 n=73 v=75
253080 Off ch=12 n=75 v=64
253080 Off ch=12 n=67 v=64
253080 Off ch=12 n=64 v=64
253080 Off ch=12 n=60 v=64
253080 Off ch=12 n=70 v=64
253080 Off ch=12 n=73 v=64
253080 On ch=12 n=67 v=88
253080 On ch=12 n=75 v=88
253080 On ch=12 n=64 v=70
253080 On ch=12 n=60 v=70
253080 On ch=12 n=70 v=74
253080 On ch=12 n=73 v=74
253200 Off ch=12 n=67 v=64
253200 Off ch=12 n=75 v=64
253200 Off ch=12 n=64 v=64
253200 Off ch=12 n=60 v=64
253200 Off ch=12 n=70 v=64
253200 Off ch=12 n=73 v=64
253200 On ch=12 n=67 v=88
253200 On ch=12 n=60 v=88
253200 On ch=12 n=75 v=70
253200 On ch=12 n=64 v=70
253200 On ch=12 n=73 v=73
253200 On ch=12 n=70 v=73
253320 Off ch=12 n=67 v=64
253320 Off ch=12 n=60 v=64
253320 Off ch=12 n=75 v=64
253320 Off ch=12 n=64 v=64
253320 Off ch=12 n=73 v=64
253320 Off ch=12 n=70 v=64
253320 On ch=12 n=67 v=88
253320 On ch=12 n=60 v=88
253320 On ch=12 n=64 v=70
253320 On ch=12 n=75 v=70
253320 On ch=12 n=70 v=72
253320 On ch=12 n=73 v=72
253440 Off ch=12 n=67 v=64
253440 Off ch=12 n=60 v=64
253440 Off ch=12 n=64 v=64
253440 Off ch=12 n=75 v=64
253440 Off ch=12 n=70 v=64
253440 Off ch=12 n=73 v=64
253440 On ch=12 n=67 v=88
253440 On ch=12 n=60 v=88
253440 On ch=12 n=75 v=70
253440 On ch=12 n=64 v=70
253440 On ch=12 n=73 v=71
253440 On ch=12 n=70 v=71
253560 Off ch=12 n=67 v=64
253560 Off ch=12 n=60 v=64
253560 Off ch=12 n=75 v=64
253560 Off ch=12 n=64 v=64
253560 Off ch=12 n=73 v=64
253560 Off ch=12 n=70 v=64
253560 On ch=12 n=67 v=88
253560 On ch=12 n=60 v=88
253560 On ch=12 n=64 v=70
253560 On ch=12 n=75 v=70
253560 On ch=12 n=73 v=70
253560 On ch=12 n=70 v=70
253680 Off ch=12 n=67 v=64
253680 Off ch=12 n=60 v=64
253680 Off ch=12 n=64 v=64
253680 Off ch=12 n=75 v=64
253680 Off ch=12 n=73 v=64
253680 Off ch=12 n=70 v=64
253680 On ch=12 n=67 v=88
253680 On ch=12 n=60 v=88
253680 On ch=12 n=75 v=70
253680 On ch=12 n=64 v=70
253680 On ch=12 n=73 v=69
253680 On ch=12 n=70 v=69
253800 Off ch=12 n=67 v=64
253800 Off ch=12 n=60 v=64
253800 Off ch=12 n=75 v=64
253800 Off ch=12 n=64 v=64
253800 Off ch=12 n=73 v=64
253800 Off ch=12 n=70 v=64
253800 On ch=12 n=67 v=88
253800 On ch=12 n=60 v=88
253800 On ch=12 n=75 v=70
253800 On ch=12 n=64 v=70
253800 On ch=12 n=73 v=68
253800 On ch=12 n=70 v=68
253920 Off ch=12 n=67 v=64
253920 Off ch=12 n=60 v=64
253920 Off ch=12 n=75 v=64
253920 Off ch=12 n=64 v=64
253920 Off ch=12 n=73 v=64
253920 Off ch=12 n=70 v=64
253920 On ch=12 n=75 v=88
253920 On ch=12 n=67 v=88
253920 On ch=12 n=60 v=70
253920 On ch=12 n=64 v=70
253920 On ch=12 n=73 v=67
253920 On ch=12 n=70 v=67
254040 Off ch=12 n=75 v=64
254040 Off ch=12 n=67 v=64
254040 Off ch=12 n=60 v=64
254040 Off ch=12 n=64 v=64
254040 Off ch=12 n=73 v=64
254040 Off ch=12 n=70 v=64
254040 On ch=12 n=67 v=88
254040 On ch=12 n=75 v=88
254040 On ch=12 n=64 v=70
254040 On ch=12 n=60 v=70
254040 On ch=12 n=73 v=66
254040 On ch=12 n=70 v=66
254160 Off ch=12 n=67 v=64
254160 Off ch=12 n=75 v=64
254160 Off ch=12 n=64 v=64
254160 Off ch=12 n=60 v=64
254160 Off ch=12 n=73 v=64
254160 Off ch=12 n=70 v=64
254160 On ch=12 n=75 v=88
254160 On ch=12 n=67 v=88
254160 On ch=12 n=60 v=70
254160 On ch=12 n=64 v=70
254160 On ch=12 n=73 v=65
254160 On ch=12 n=70 v=65
254280 Off ch=12 n=75 v=64
254280 Off ch=12 n=67 v=64
254280 Off ch=12 n=60 v=64
254280 Off ch=12 n=64 v=64
254280 Off ch=12 n=73 v=64
254280 Off ch=12 n=70 v=64
254280 On ch=12 n=67 v=88
254280 On ch=12 n=75 v=88
254280 On ch=12 n=60 v=70
254280 On ch=12 n=64 v=70
254280 On ch=12 n=73 v=64
254280 On ch=12 n=70 v=64
254400 Off ch=12 n=67 v=64
254400 Off ch=12 n=75 v=64
254400 Off ch=12 n=60 v=64
254400 Off ch=12 n=64 v=64
254400 Off ch=12 n=73 v=64
254400 Off ch=12 n=70 v=64
254400 On ch=12 n=75 v=88
254400 On ch=12 n=67 v=88
254400 On ch=12 n=64 v=70
254400 On ch=12 n=60 v=70
254400 On ch=12 n=70 v=75
254400 On ch=12 n=73 v=75
254520 Off ch=12 n=75 v=64
254520 Off ch=12 n=67 v=64
254520 Off ch=12 n=64 v=64
254520 Off ch=12 n=60 v=64
254520 Off ch=12 n=70 v=64
254520 Off ch=12 n=73 v=64
254520 On ch=12 n=67 v=88
254520 On ch=12 n=75 v=88
254520 On ch=12 n=60 v=70
254520 On ch=12 n=64 v=70
254520 On ch=12 n=73 v=72
254520 On ch=12 n=70 v=72
254640 Off ch=12 n=67 v=64
254640 Off ch=12 n=75 v=64
254640 Off ch=12 n=60 v=64
254640 Off ch=12 n=64 v=64
254640 Off ch=12 n=73 v=64
254640 Off ch=12 n=70 v=64
254640 On ch=12 n=67 v=88
254640 On ch=12 n=60 v=88
254640 On ch=12 n=64 v=70
254640 On ch=12 n=75 v=70
254640 On ch=12 n=73 v=70
254640 On ch=12 n=70 v=70
254760 Off ch=12 n=67 v=64
254760 Off ch=12 n=60 v=64
254760 Off ch=12 n=64 v=64
254760 Off ch=12 n=75 v=64
254760 Off ch=12 n=73 v=64
254760 Off ch=12 n=70 v=64
254760 On ch=12 n=67 v=88
254760 On ch=12 n=60 v=88
254760 On ch=12 n=64 v=70
254760 On ch=12 n=75 v=70
254760 On ch=12 n=73 v=67
254760 On ch=12 n=70 v=67
254880 Off ch=12 n=67 v=64
254880 Off ch=12 n=60 v=64
254880 Off ch=12 n=64 v=64
254880 Off ch=12 n=75 v=64
254880 Off ch=12 n=73 v=64
254880 Off ch=12 n=70 v=64
254880 On ch=12 n=67 v=88
254880 On ch=12 n=60 v=88
254880 On ch=12 n=64 v=70
254880 On ch=12 n=75 v=70
254880 On ch=12 n=73 v=65
254880 On ch=12 n=70 v=65
255000 Off ch=12 n=67 v=64
255000 Off ch=12 n=60 v=64
255000 Off ch=12 n=64 v=64
255000 Off ch=12 n=75 v=64
255000 Off ch=12 n=73 v=64
255000 Off ch=12 n=70 v=64
255000 On ch=12 n=67 v=88
255000 On ch=12 n=60 v=88
255000 On ch=12 n=64 v=70
255000 On ch=12 n=75 v=70
255000 On ch=12 n=73 v=62
255000 On ch=12 n=70 v=62
255120 Off ch=12 n=67 v=64
255120 Off ch=12 n=60 v=64
255120 Off ch=12 n=64 v=64
255120 Off ch=12 n=75 v=64
255120 Off ch=12 n=73 v=64
255120 Off ch=12 n=70 v=64
255120 On ch=12 n=67 v=88
255120 On ch=12 n=60 v=88
255120 On ch=12 n=75 v=70
255120 On ch=12 n=64 v=70
255120 On ch=12 n=70 v=75
255120 On ch=12 n=73 v=75
255240 Off ch=12 n=67 v=64
255240 Off ch=12 n=60 v=64
255240 Off ch=12 n=75 v=64
255240 Off ch=12 n=64 v=64
255240 Off ch=12 n=70 v=64
255240 Off ch=12 n=73 v=64
255240 On ch=12 n=67 v=88
255240 On ch=12 n=60 v=88
255240 On ch=12 n=64 v=70
255240 On ch=12 n=75 v=70
255240 On ch=12 n=70 v=74
255240 On ch=12 n=73 v=74
255360 Off ch=12 n=67 v=64
255360 Off ch=12 n=60 v=64
255360 Off ch=12 n=64 v=64
255360 Off ch=12 n=75 v=64
255360 Off ch=12 n=70 v=64
255360 Off ch=12 n=73 v=64
255360 On ch=12 n=75 v=88
255360 On ch=12 n=67 v=88
255360 On ch=12 n=60 v=70
255360 On ch=12 n=64 v=70
255360 On ch=12 n=73 v=73
255360 On ch=12 n=70 v=73
255480 Off ch=12 n=75 v=64
255480 Off ch=12 n=67 v=64
255480 Off ch=12 n=60 v=64
255480 Off ch=12 n=64 v=64
255480 Off ch=12 n=73 v=64
255480 Off ch=12 n=70 v=64
255480 On ch=12 n=67 v=88
255480 On ch=12 n=75 v=88
255480 On ch=12 n=64 v=70
255480 On ch=12 n=60 v=70
255480 On ch=12 n=70 v=72
255480 On ch=12 n=73 v=72
255600 Off ch=12 n=67 v=64
255600 Off ch=12 n=75 v=64
255600 Off ch=12 n=64 v=64
255600 Off ch=12 n=60 v=64
255600 Off ch=12 n=70 v=64
255600 Off ch=12 n=73 v=64
255600 On ch=12 n=67 v=88
255600 On ch=12 n=75 v=88
255600 On ch=12 n=64 v=70
255600 On ch=12 n=73 v=71
255600 On ch=12 n=70 v=71
255720 Off ch=12 n=67 v=64
255720 Off ch=12 n=75 v=64
255720 Off ch=12 n=64 v=64
255720 Off ch=12 n=73 v=64
255720 Off ch=12 n=70 v=64
255720 On ch=12 n=67 v=88
255720 On ch=12 n=75 v=88
255720 On ch=12 n=60 v=70
255720 On ch=12 n=64 v=70
255720 On ch=12 n=73 v=70
255720 On ch=12 n=70 v=70
255840 Off ch=12 n=67 v=64
255840 Off ch=12 n=75 v=64
255840 Off ch=12 n=60 v=64
255840 Off ch=12 n=64 v=64
255840 Off ch=12 n=73 v=64
255840 Off ch=12 n=70 v=64
255840 On ch=12 n=67 v=88
255840 On ch=12 n=75 v=88
255840 On ch=12 n=64 v=70
255840 On ch=12 n=60 v=70
255840 On ch=12 n=73 v=69
255840 On ch=12 n=70 v=69
255960 Off ch=12 n=67 v=64
255960 Off ch=12 n=75 v=64
255960 Off ch=12 n=64 v=64
255960 Off ch=12 n=60 v=64
255960 Off ch=12 n=73 v=64
255960 Off ch=12 n=70 v=64
255960 On ch=12 n=67 v=88
255960 On ch=12 n=75 v=88
255960 On ch=12 n=60 v=70
255960 On ch=12 n=64 v=70
255960 On ch=12 n=73 v=68
255960 On ch=12 n=70 v=68
256080 Off ch=12 n=67 v=64
256080 Off ch=12 n=75 v=64
256080 Off ch=12 n=60 v=64
256080 Off ch=12 n=64 v=64
256080 Off ch=12 n=73 v=64
256080 Off ch=12 n=70 v=64
256080 On ch=12 n=67 v=88
256080 On ch=12 n=60 v=88
256080 On ch=12 n=75 v=70
256080 On ch=12 n=64 v=70
256080 On ch=12 n=73 v=67
256080 On ch=12 n=70 v=67
256200 Off ch=12 n=67 v=64
256200 Off ch=12 n=60 v=64
256200 Off ch=12 n=75 v=64
256200 Off ch=12 n=64 v=64
256200 Off ch=12 n=73 v=64
256200 Off ch=12 n=70 v=64
256200 On ch=12 n=67 v=88
256200 On ch=12 n=60 v=88
256200 On ch=12 n=64 v=70
256200 On ch=12 n=75 v=70
256200 On ch=12 n=73 v=66
256200 On ch=12 n=70 v=66
256320 Off ch=12 n=67 v=64
256320 Off ch=12 n=60 v=64
256320 Off ch=12 n=64 v=64
256320 Off ch=12 n=75 v=64
256320 Off ch=12 n=73 v=64
256320 Off ch=12 n=70 v=64
256320 On ch=12 n=67 v=88
256320 On ch=12 n=60 v=88
256320 On ch=12 n=64 v=70
256320 On ch=12 n=75 v=70
256320 On ch=12 n=73 v=65
256320 On ch=12 n=70 v=65
256440 Off ch=12 n=67 v=64
256440 Off ch=12 n=60 v=64
256440 Off ch=12 n=64 v=64
256440 Off ch=12 n=75 v=64
256440 Off ch=12 n=73 v=64
256440 Off ch=12 n=70 v=64
256440 On ch=12 n=67 v=88
256440 On ch=12 n=60 v=88
256440 On ch=12 n=75 v=70
256440 On ch=12 n=64 v=70
256440 On ch=12 n=73 v=64
256440 On ch=12 n=70 v=64
256560 Off ch=12 n=67 v=64
256560 Off ch=12 n=60 v=64
256560 Off ch=12 n=75 v=64
256560 Off ch=12 n=64 v=64
256560 Off ch=12 n=73 v=64
256560 Off ch=12 n=70 v=64
256560 On ch=12 n=67 v=88
256560 On ch=12 n=60 v=88
256560 On ch=12 n=64 v=70
256560 On ch=12 n=75 v=70
256560 On ch=12 n=70 v=75
256560 On ch=12 n=73 v=75
256680 Off ch=12 n=67 v=64
256680 Off ch=12 n=60 v=64
256680 Off ch=12 n=64 v=64
256680 Off ch=12 n=75 v=64
256680 Off ch=12 n=70 v=64
256680 Off ch=12 n=73 v=64
256680 On ch=12 n=67 v=88
256680 On ch=12 n=60 v=88
256680 On ch=12 n=64 v=70
256680 On ch=12 n=75 v=70
256680 On ch=12 n=73 v=72
256680 On ch=12 n=70 v=72
256800 Off ch=12 n=67 v=64
256800 Off ch=12 n=60 v=64
256800 Off ch=12 n=64 v=64
256800 Off ch=12 n=75 v=64
256800 Off ch=12 n=73 v=64
256800 Off ch=12 n=70 v=64
256800 On ch=12 n=67 v=88
256800 On ch=12 n=75 v=88
256800 On ch=12 n=60 v=70
256800 On ch=12 n=64 v=70
256800 On ch=12 n=73 v=70
256800 On ch=12 n=70 v=70
256920 Off ch=12 n=67 v=64
256920 Off ch=12 n=75 v=64
256920 Off ch=12 n=60 v=64
256920 Off ch=12 n=64 v=64
256920 Off ch=12 n=73 v=64
256920 Off ch=12 n=70 v=64
256920 On ch=12 n=67 v=88
256920 On ch=12 n=75 v=88
256920 On ch=12 n=64 v=70
256920 On ch=12 n=60 v=70
256920 On ch=12 n=73 v=67
256920 On ch=12 n=70 v=67
257040 Off ch=12 n=67 v=64
257040 Off ch=12 n=75 v=64
257040 Off ch=12 n=64 v=64
257040 Off ch=12 n=60 v=64
257040 Off ch=12 n=73 v=64
257040 Off ch=12 n=70 v=64
257040 On ch=12 n=67 v=88
257040 On ch=12 n=75 v=88
257040 On ch=12 n=60 v=70
257040 On ch=12 n=64 v=70
257040 On ch=12 n=73 v=65
257040 On ch=12 n=70 v=65
257160 Off ch=12 n=67 v=64
257160 Off ch=12 n=75 v=64
257160 Off ch=12 n=60 v=64
257160 Off ch=12 n=64 v=64
257160 Off ch=12 n=73 v=64
257160 Off ch=12 n=70 v=64
257160 On ch=12 n=67 v=88
257160 On ch=12 n=75 v=88
257160 On ch=12 n=64 v=70
257160 On ch=12 n=60 v=70
257160 On ch=12 n=73 v=62
257160 On ch=12 n=70 v=62
257280 Off ch=12 n=67 v=64
257280 Off ch=12 n=75 v=64
257280 Off ch=12 n=64 v=64
257280 Off ch=12 n=60 v=64
257280 Off ch=12 n=73 v=64
257280 Off ch=12 n=70 v=64
257280 On ch=12 n=67 v=88
257280 On ch=12 n=75 v=88
257280 On ch=12 n=60 v=70
257280 On ch=12 n=64 v=70
257280 On ch=12 n=70 v=75
257280 On ch=12 n=73 v=75
257400 Off ch=12 n=67 v=64
257400 Off ch=12 n=75 v=64
257400 Off ch=12 n=60 v=64
257400 Off ch=12 n=64 v=64
257400 Off ch=12 n=70 v=64
257400 Off ch=12 n=73 v=64
257400 On ch=12 n=67 v=88
257400 On ch=12 n=75 v=88
257400 On ch=12 n=60 v=70
257400 On ch=12 n=64 v=70
257400 On ch=12 n=70 v=74
257400 On ch=12 n=73 v=74
257520 Off ch=12 n=67 v=64
257520 Off ch=12 n=75 v=64
257520 Off ch=12 n=60 v=64
257520 Off ch=12 n=64 v=64
257520 Off ch=12 n=70 v=64
257520 Off ch=12 n=73 v=64
257520 On ch=12 n=67 v=88
257520 On ch=12 n=60 v=88
257520 On ch=12 n=75 v=70
257520 On ch=12 n=64 v=70
257520 On ch=12 n=73 v=73
257520 On ch=12 n=70 v=73
257640 Off ch=12 n=67 v=64
257640 Off ch=12 n=60 v=64
257640 Off ch=12 n=75 v=64
257640 Off ch=12 n=64 v=64
257640 Off ch=12 n=73 v=64
257640 Off ch=12 n=70 v=64
257640 On ch=12 n=67 v=88
257640 On ch=12 n=60 v=88
257640 On ch=12 n=64 v=70
257640 On ch=12 n=75 v=70
257640 On ch=12 n=70 v=72
257640 On ch=12 n=73 v=72
257760 Off ch=12 n=67 v=64
257760 Off ch=12 n=60 v=64
257760 Off ch=12 n=64 v=64
257760 Off ch=12 n=75 v=64
257760 Off ch=12 n=70 v=64
257760 Off ch=12 n=73 v=64
257760 On ch=12 n=67 v=88
257760 On ch=12 n=60 v=88
257760 On ch=12 n=64 v=70
257760 On ch=12 n=75 v=70
257760 On ch=12 n=73 v=71
257760 On ch=12 n=70 v=71
257880 Off ch=12 n=67 v=64
257880 Off ch=12 n=60 v=64
257880 Off ch=12 n=64 v=64
257880 Off ch=12 n=75 v=64
257880 Off ch=12 n=73 v=64
257880 Off ch=12 n=70 v=64
257880 On ch=12 n=67 v=88
257880 On ch=12 n=60 v=88
257880 On ch=12 n=75 v=70
257880 On ch=12 n=64 v=70
257880 On ch=12 n=73 v=70
257880 On ch=12 n=70 v=70
258000 Off ch=12 n=67 v=64
258000 Off ch=12 n=60 v=64
258000 Off ch=12 n=75 v=64
258000 Off ch=12 n=64 v=64
258000 Off ch=12 n=73 v=64
258000 Off ch=12 n=70 v=64
258000 On ch=12 n=67 v=88
258000 On ch=12 n=60 v=88
258000 On ch=12 n=64 v=70
258000 On ch=12 n=75 v=70
258000 On ch=12 n=73 v=69
258000 On ch=12 n=70 v=69
258120 Off ch=12 n=67 v=64
258120 Off ch=12 n=60 v=64
258120 Off ch=12 n=64 v=64
258120 Off ch=12 n=75 v=64
258120 Off ch=12 n=73 v=64
258120 Off ch=12 n=70 v=64
258120 On ch=12 n=67 v=88
258120 On ch=12 n=60 v=88
258120 On ch=12 n=64 v=70
258120 On ch=12 n=75 v=70
258120 On ch=12 n=73 v=68
258120 On ch=12 n=70 v=68
258240 Off ch=12 n=67 v=64
258240 Off ch=12 n=60 v=64
258240 Off ch=12 n=64 v=64
258240 Off ch=12 n=75 v=64
258240 Off ch=12 n=73 v=64
258240 Off ch=12 n=70 v=64
258240 On ch=12 n=67 v=88
258240 On ch=12 n=75 v=88
258240 On ch=12 n=60 v=70
258240 On ch=12 n=64 v=70
258240 On ch=12 n=73 v=67
258240 On ch=12 n=70 v=67
258360 Off ch=12 n=67 v=64
258360 Off ch=12 n=75 v=64
258360 Off ch=12 n=60 v=64
258360 Off ch=12 n=64 v=64
258360 Off ch=12 n=73 v=64
258360 Off ch=12 n=70 v=64
258360 On ch=12 n=67 v=88
258360 On ch=12 n=75 v=88
258360 On ch=12 n=64 v=70
258360 On ch=12 n=60 v=70
258360 On ch=12 n=73 v=66
258360 On ch=12 n=70 v=66
258480 Off ch=12 n=67 v=64
258480 Off ch=12 n=75 v=64
258480 Off ch=12 n=64 v=64
258480 Off ch=12 n=60 v=64
258480 Off ch=12 n=73 v=64
258480 Off ch=12 n=70 v=64
258480 On ch=12 n=67 v=88
258480 On ch=12 n=75 v=88
258480 On ch=12 n=64 v=70
258480 On ch=12 n=60 v=70
258480 On ch=12 n=73 v=65
258480 On ch=12 n=70 v=65
258600 Off ch=12 n=67 v=64
258600 Off ch=12 n=75 v=64
258600 Off ch=12 n=64 v=64
258600 Off ch=12 n=60 v=64
258600 Off ch=12 n=73 v=64
258600 Off ch=12 n=70 v=64
258600 On ch=12 n=67 v=88
258600 On ch=12 n=75 v=88
258600 On ch=12 n=64 v=70
258600 On ch=12 n=60 v=70
258600 On ch=12 n=73 v=64
258600 On ch=12 n=70 v=64
258720 Off ch=12 n=67 v=64
258720 Off ch=12 n=75 v=64
258720 Off ch=12 n=64 v=64
258720 Off ch=12 n=60 v=64
258720 Off ch=12 n=73 v=64
258720 Off ch=12 n=70 v=64
258720 On ch=12 n=67 v=88
258720 On ch=12 n=75 v=88
258720 On ch=12 n=60 v=70
258720 On ch=12 n=64 v=70
258720 On ch=12 n=70 v=75
258720 On ch=12 n=73 v=75
258840 Off ch=12 n=67 v=64
258840 Off ch=12 n=75 v=64
258840 Off ch=12 n=60 v=64
258840 Off ch=12 n=64 v=64
258840 Off ch=12 n=70 v=64
258840 Off ch=12 n=73 v=64
258840 On ch=12 n=75 v=88
258840 On ch=12 n=67 v=88
258840 On ch=12 n=64 v=70
258840 On ch=12 n=60 v=70
258840 On ch=12 n=73 v=72
258840 On ch=12 n=70 v=72
258960 Off ch=12 n=75 v=64
258960 Off ch=12 n=67 v=64
258960 Off ch=12 n=64 v=64
258960 Off ch=12 n=60 v=64
258960 Off ch=12 n=73 v=64
258960 Off ch=12 n=70 v=64
258960 On ch=12 n=60 v=88
258960 On ch=12 n=67 v=88
258960 On ch=12 n=64 v=70
258960 On ch=12 n=75 v=70
258960 On ch=12 n=73 v=70
258960 On ch=12 n=70 v=70
259080 Off ch=12 n=60 v=64
259080 Off ch=12 n=67 v=64
259080 Off ch=12 n=64 v=64
259080 Off ch=12 n=75 v=64
259080 Off ch=12 n=73 v=64
259080 Off ch=12 n=70 v=64
259080 On ch=12 n=67 v=88
259080 On ch=12 n=60 v=88
259080 On ch=12 n=64 v=70
259080 On ch=12 n=75 v=70
259080 On ch=12 n=73 v=67
259080 On ch=12 n=70 v=67
259200 Off ch=12 n=67 v=64
259200 Off ch=12 n=60 v=64
259200 Off ch=12 n=64 v=64
259200 Off ch=12 n=75 v=64
259200 Off ch=12 n=73 v=64
259200 Off ch=12 n=70 v=64
259200 On ch=12 n=67 v=88
259200 On ch=12 n=60 v=88
259200 On ch=12 n=75 v=70
259200 On ch=12 n=64 v=70
259200 On ch=12 n=73 v=65
259200 On ch=12 n=70 v=65
259320 Off ch=12 n=67 v=64
259320 Off ch=12 n=60 v=64
259320 Off ch=12 n=75 v=64
259320 Off ch=12 n=64 v=64
259320 Off ch=12 n=73 v=64
259320 Off ch=12 n=70 v=64
259320 On ch=12 n=67 v=88
259320 On ch=12 n=60 v=88
259320 On ch=12 n=64 v=70
259320 On ch=12 n=75 v=70
259320 On ch=12 n=73 v=62
259320 On ch=12 n=70 v=62
259440 Off ch=12 n=67 v=64
259440 Off ch=12 n=60 v=64
259440 Off ch=12 n=64 v=64
259440 Off ch=12 n=75 v=64
259440 Off ch=12 n=73 v=64
259440 Off ch=12 n=70 v=64
259440 On ch=12 n=67 v=88
259440 On ch=12 n=60 v=88
259440 On ch=12 n=64 v=70
259440 On ch=12 n=75 v=70
259440 On ch=12 n=70 v=75
259440 On ch=12 n=73 v=75
259560 Off ch=12 n=67 v=64
259560 Off ch=12 n=60 v=64
259560 Off ch=12 n=64 v=64
259560 Off ch=12 n=75 v=64
259560 Off ch=12 n=70 v=64
259560 Off ch=12 n=73 v=64
259560 On ch=12 n=60 v=88
259560 On ch=12 n=67 v=88
259560 On ch=12 n=64 v=70
259560 On ch=12 n=75 v=70
259560 On ch=12 n=70 v=74
259560 On ch=12 n=73 v=74
259680 Off ch=12 n=60 v=64
259680 Off ch=12 n=67 v=64
259680 Off ch=12 n=64 v=64
259680 Off ch=12 n=75 v=64
259680 Off ch=12 n=70 v=64
259680 Off ch=12 n=73 v=64
259680 On ch=12 n=75 v=88
259680 On ch=12 n=67 v=88
259680 On ch=12 n=64 v=70
259680 On ch=12 n=60 v=70
259680 On ch=12 n=73 v=73
259680 On ch=12 n=70 v=73
259800 Off ch=12 n=75 v=64
259800 Off ch=12 n=67 v=64
259800 Off ch=12 n=64 v=64
259800 Off ch=12 n=60 v=64
259800 Off ch=12 n=73 v=64
259800 Off ch=12 n=70 v=64
259800 On ch=12 n=67 v=88
259800 On ch=12 n=75 v=88
259800 On ch=12 n=64 v=70
259800 On ch=12 n=60 v=70
259800 On ch=12 n=70 v=72
259800 On ch=12 n=73 v=72
259920 Off ch=12 n=67 v=64
259920 Off ch=12 n=75 v=64
259920 Off ch=12 n=64 v=64
259920 Off ch=12 n=60 v=64
259920 Off ch=12 n=70 v=64
259920 Off ch=12 n=73 v=64
259920 On ch=12 n=67 v=88
259920 On ch=12 n=75 v=88
259920 On ch=12 n=60 v=70
259920 On ch=12 n=64 v=70
259920 On ch=12 n=73 v=71
259920 On ch=12 n=70 v=71
260040 Off ch=12 n=67 v=64
260040 Off ch=12 n=75 v=64
260040 Off ch=12 n=60 v=64
260040 Off ch=12 n=64 v=64
260040 Off ch=12 n=73 v=64
260040 Off ch=12 n=70 v=64
260040 On ch=12 n=67 v=88
260040 On ch=12 n=75 v=88
260040 On ch=12 n=60 v=70
260040 On ch=12 n=64 v=70
260040 On ch=12 n=73 v=70
260040 On ch=12 n=70 v=70
260160 Off ch=12 n=67 v=64
260160 Off ch=12 n=75 v=64
260160 Off ch=12 n=60 v=64
260160 Off ch=12 n=64 v=64
260160 Off ch=12 n=73 v=64
260160 Off ch=12 n=70 v=64
260160 On ch=12 n=67 v=88
260160 On ch=12 n=75 v=88
260160 On ch=12 n=64 v=70
260160 On ch=12 n=60 v=70
260160 On ch=12 n=73 v=69
260160 On ch=12 n=70 v=69
260280 Off ch=12 n=67 v=64
260280 Off ch=12 n=75 v=64
260280 Off ch=12 n=64 v=64
260280 Off ch=12 n=60 v=64
260280 Off ch=12 n=73 v=64
260280 Off ch=12 n=70 v=64
260280 On ch=12 n=67 v=88
260280 On ch=12 n=75 v=88
260280 On ch=12 n=60 v=70
260280 On ch=12 n=64 v=70
260280 On ch=12 n=73 v=68
260280 On ch=12 n=70 v=68
260400 Off ch=12 n=67 v=64
260400 Off ch=12 n=75 v=64
260400 Off ch=12 n=60 v=64
260400 Off ch=12 n=64 v=64
260400 Off ch=12 n=73 v=64
260400 Off ch=12 n=70 v=64
260400 On ch=12 n=67 v=88
260400 On ch=12 n=60 v=88
260400 On ch=12 n=64 v=70
260400 On ch=12 n=75 v=70
260400 On ch=12 n=73 v=67
260400 On ch=12 n=70 v=67
260520 Off ch=12 n=67 v=64
260520 Off ch=12 n=60 v=64
260520 Off ch=12 n=64 v=64
260520 Off ch=12 n=75 v=64
260520 Off ch=12 n=73 v=64
260520 Off ch=12 n=70 v=64
260520 On ch=12 n=67 v=88
260520 On ch=12 n=60 v=88
260520 On ch=12 n=75 v=70
260520 On ch=12 n=64 v=70
260520 On ch=12 n=73 v=66
260520 On ch=12 n=70 v=66
260640 Off ch=12 n=67 v=64
260640 Off ch=12 n=60 v=64
260640 Off ch=12 n=75 v=64
260640 Off ch=12 n=64 v=64
260640 Off ch=12 n=73 v=64
260640 Off ch=12 n=70 v=64
260640 On ch=12 n=67 v=88
260640 On ch=12 n=60 v=88
260640 On ch=12 n=75 v=70
260640 On ch=12 n=64 v=70
260640 On ch=12 n=73 v=65
260640 On ch=12 n=70 v=65
260760 Off ch=12 n=67 v=64
260760 Off ch=12 n=60 v=64
260760 Off ch=12 n=75 v=64
260760 Off ch=12 n=64 v=64
260760 Off ch=12 n=73 v=64
260760 Off ch=12 n=70 v=64
260760 On ch=12 n=67 v=88
260760 On ch=12 n=60 v=88
260760 On ch=12 n=64 v=70
260760 On ch=12 n=75 v=70
260760 On ch=12 n=73 v=64
260760 On ch=12 n=70 v=64
260880 Off ch=12 n=67 v=64
260880 Off ch=12 n=60 v=64
260880 Off ch=12 n=64 v=64
260880 Off ch=12 n=75 v=64
260880 Off ch=12 n=73 v=64
260880 Off ch=12 n=70 v=64
260880 On ch=12 n=67 v=88
260880 On ch=12 n=60 v=88
260880 On ch=12 n=64 v=70
260880 On ch=12 n=75 v=70
260880 On ch=12 n=70 v=75
260880 On ch=12 n=73 v=75
261000 Off ch=12 n=67 v=64
261000 Off ch=12 n=60 v=64
261000 Off ch=12 n=64 v=64
261000 Off ch=12 n=75 v=64
261000 Off ch=12 n=70 v=64
261000 Off ch=12 n=73 v=64
261000 On ch=12 n=60 v=88
261000 On ch=12 n=67 v=88
261000 On ch=12 n=64 v=70
261000 On ch=12 n=75 v=70
261000 On ch=12 n=73 v=72
261000 On ch=12 n=70 v=72
261120 Off ch=12 n=60 v=64
261120 Off ch=12 n=67 v=64
261120 Off ch=12 n=64 v=64
261120 Off ch=12 n=75 v=64
261120 Off ch=12 n=73 v=64
261120 Off ch=12 n=70 v=64
261120 On ch=12 n=67 v=88
261120 On ch=12 n=75 v=88
261120 On ch=12 n=60 v=70
261120 On ch=12 n=64 v=70
261120 On ch=12 n=73 v=70
261120 On ch=12 n=70 v=70
261240 Off ch=12 n=67 v=64
261240 Off ch=12 n=75 v=64
261240 Off ch=12 n=60 v=64
261240 Off ch=12 n=64 v=64
261240 Off ch=12 n=73 v=64
261240 Off ch=12 n=70 v=64
261240 On ch=12 n=67 v=88
261240 On ch=12 n=75 v=88
261240 On ch=12 n=64 v=70
261240 On ch=12 n=60 v=70
261240 On ch=12 n=73 v=67
261240 On ch=12 n=70 v=67
261360 Off ch=12 n=67 v=64
261360 Off ch=12 n=75 v=64
261360 Off ch=12 n=64 v=64
261360 Off ch=12 n=60 v=64
261360 Off ch=12 n=73 v=64
261360 Off ch=12 n=70 v=64
261360 On ch=12 n=67 v=88
261360 On ch=12 n=75 v=88
261360 On ch=12 n=60 v=70
261360 On ch=12 n=64 v=70
261360 On ch=12 n=73 v=65
261360 On ch=12 n=70 v=65
261480 Off ch=12 n=67 v=64
261480 Off ch=12 n=75 v=64
261480 Off ch=12 n=60 v=64
261480 Off ch=12 n=64 v=64
261480 Off ch=12 n=73 v=64
261480 Off ch=12 n=70 v=64
261480 On ch=12 n=75 v=88
261480 On ch=12 n=67 v=88
261480 On ch=12 n=64 v=70
261480 On ch=12 n=60 v=70
261480 On ch=12 n=73 v=62
261480 On ch=12 n=70 v=62
261600 Off ch=12 n=75 v=64
261600 Off ch=12 n=67 v=64
261600 Off ch=12 n=64 v=64
261600 Off ch=12 n=60 v=64
261600 Off ch=12 n=73 v=64
261600 Off ch=12 n=70 v=64
261600 On ch=12 n=75 v=88
261600 On ch=12 n=67 v=88
261600 On ch=12 n=60 v=70
261600 On ch=12 n=64 v=70
261600 On ch=12 n=70 v=75
261600 On ch=12 n=73 v=75
261720 Off ch=12 n=75 v=64
261720 Off ch=12 n=67 v=64
261720 Off ch=12 n=60 v=64
261720 Off ch=12 n=64 v=64
261720 Off ch=12 n=70 v=64
261720 Off ch=12 n=73 v=64
261720 On ch=12 n=67 v=88
261720 On ch=12 n=75 v=88
261720 On ch=12 n=60 v=70
261720 On ch=12 n=64 v=70
261720 On ch=12 n=70 v=74
261720 On ch=12 n=73 v=74
261840 Off ch=12 n=67 v=64
261840 Off ch=12 n=75 v=64
261840 Off ch=12 n=60 v=64
261840 Off ch=12 n=64 v=64
261840 Off ch=12 n=70 v=64
261840 Off ch=12 n=73 v=64
261840 On ch=12 n=67 v=88
261840 On ch=12 n=60 v=88
261840 On ch=12 n=64 v=70
261840 On ch=12 n=75 v=70
261840 On ch=12 n=73 v=73
261840 On ch=12 n=70 v=73
261960 Off ch=12 n=67 v=64
261960 Off ch=12 n=60 v=64
261960 Off ch=12 n=64 v=64
261960 Off ch=12 n=75 v=64
261960 Off ch=12 n=73 v=64
261960 Off ch=12 n=70 v=64
261960 On ch=12 n=67 v=88
261960 On ch=12 n=60 v=88
261960 On ch=12 n=64 v=70
261960 On ch=12 n=75 v=70
261960 On ch=12 n=70 v=72
261960 On ch=12 n=73 v=72
262080 Off ch=12 n=67 v=64
262080 Off ch=12 n=60 v=64
262080 Off ch=12 n=64 v=64
262080 Off ch=12 n=75 v=64
262080 Off ch=12 n=70 v=64
262080 Off ch=12 n=73 v=64
262080 On ch=12 n=67 v=88
262080 On ch=12 n=60 v=88
262080 On ch=12 n=64 v=70
262080 On ch=12 n=75 v=70
262080 On ch=12 n=73 v=71
262080 On ch=12 n=70 v=71
262200 Off ch=12 n=67 v=64
262200 Off ch=12 n=60 v=64
262200 Off ch=12 n=64 v=64
262200 Off ch=12 n=75 v=64
262200 Off ch=12 n=73 v=64
262200 Off ch=12 n=70 v=64
262200 On ch=12 n=67 v=88
262200 On ch=12 n=60 v=88
262200 On ch=12 n=75 v=70
262200 On ch=12 n=64 v=70
262200 On ch=12 n=73 v=70
262200 On ch=12 n=70 v=70
262320 Off ch=12 n=67 v=64
262320 Off ch=12 n=60 v=64
262320 Off ch=12 n=75 v=64
262320 Off ch=12 n=64 v=64
262320 Off ch=12 n=73 v=64
262320 Off ch=12 n=70 v=64
262320 On ch=12 n=60 v=88
262320 On ch=12 n=67 v=88
262320 On ch=12 n=64 v=70
262320 On ch=12 n=75 v=70
262320 On ch=12 n=73 v=69
262320 On ch=12 n=70 v=69
262440 Off ch=12 n=60 v=64
262440 Off ch=12 n=67 v=64
262440 Off ch=12 n=64 v=64
262440 Off ch=12 n=75 v=64
262440 Off ch=12 n=73 v=64
262440 Off ch=12 n=70 v=64
262440 On ch=12 n=67 v=88
262440 On ch=12 n=60 v=88
262440 On ch=12 n=75 v=70
262440 On ch=12 n=64 v=70
262440 On ch=12 n=73 v=68
262440 On ch=12 n=70 v=68
262560 Off ch=12 n=67 v=64
262560 Off ch=12 n=60 v=64
262560 Off ch=12 n=75 v=64
262560 Off ch=12 n=64 v=64
262560 Off ch=12 n=73 v=64
262560 Off ch=12 n=70 v=64
262560 On ch=12 n=67 v=88
262560 On ch=12 n=75 v=88
262560 On ch=12 n=64 v=70
262560 On ch=12 n=60 v=70
262560 On ch=12 n=73 v=67
262560 On ch=12 n=70 v=67
262680 Off ch=12 n=67 v=64
262680 Off ch=12 n=75 v=64
262680 Off ch=12 n=64 v=64
262680 Off ch=12 n=60 v=64
262680 Off ch=12 n=73 v=64
262680 Off ch=12 n=70 v=64
262680 On ch=12 n=67 v=88
262680 On ch=12 n=75 v=88
262680 On ch=12 n=64 v=70
262680 On ch=12 n=60 v=70
262680 On ch=12 n=73 v=66
262680 On ch=12 n=70 v=66
262800 Off ch=12 n=67 v=64
262800 Off ch=12 n=75 v=64
262800 Off ch=12 n=64 v=64
262800 Off ch=12 n=60 v=64
262800 Off ch=12 n=73 v=64
262800 Off ch=12 n=70 v=64
262800 On ch=12 n=67 v=88
262800 On ch=12 n=75 v=88
262800 On ch=12 n=64 v=70
262800 On ch=12 n=60 v=70
262800 On ch=12 n=73 v=65
262800 On ch=12 n=70 v=65
262920 Off ch=12 n=67 v=64
262920 Off ch=12 n=75 v=64
262920 Off ch=12 n=64 v=64
262920 Off ch=12 n=60 v=64
262920 Off ch=12 n=73 v=64
262920 Off ch=12 n=70 v=64
262920 On ch=12 n=75 v=88
262920 On ch=12 n=67 v=88
262920 On ch=12 n=64 v=70
262920 On ch=12 n=60 v=70
262920 On ch=12 n=73 v=64
262920 On ch=12 n=70 v=64
263040 Off ch=12 n=75 v=64
263040 Off ch=12 n=67 v=64
263040 Off ch=12 n=64 v=64
263040 Off ch=12 n=60 v=64
263040 Off ch=12 n=73 v=64
263040 Off ch=12 n=70 v=64
263040 On ch=12 n=75 v=88
263040 On ch=12 n=67 v=88
263040 On ch=12 n=60 v=70
263040 On ch=12 n=64 v=70
263040 On ch=12 n=70 v=75
263040 On ch=12 n=73 v=75
263160 Off ch=12 n=75 v=64
263160 Off ch=12 n=67 v=64
263160 Off ch=12 n=60 v=64
263160 Off ch=12 n=64 v=64
263160 Off ch=12 n=70 v=64
263160 Off ch=12 n=73 v=64
263160 On ch=12 n=67 v=88
263160 On ch=12 n=75 v=88
263160 On ch=12 n=64 v=70
263160 On ch=12 n=60 v=70
263160 On ch=12 n=73 v=72
263160 On ch=12 n=70 v=72
263280 Off ch=12 n=67 v=64
263280 Off ch=12 n=75 v=64
263280 Off ch=12 n=64 v=64
263280 Off ch=12 n=60 v=64
263280 Off ch=12 n=73 v=64
263280 Off ch=12 n=70 v=64
263280 On ch=12 n=67 v=88
263280 On ch=12 n=60 v=88
263280 On ch=12 n=64 v=70
263280 On ch=12 n=75 v=70
263280 On ch=12 n=73 v=70
263280 On ch=12 n=70 v=70
263400 Off ch=12 n=67 v=64
263400 Off ch=12 n=60 v=64
263400 Off ch=12 n=64 v=64
263400 Off ch=12 n=75 v=64
263400 Off ch=12 n=73 v=64
263400 Off ch=12 n=70 v=64
263400 On ch=12 n=67 v=88
263400 On ch=12 n=60 v=88
263400 On ch=12 n=64 v=70
263400 On ch=12 n=75 v=70
263400 On ch=12 n=73 v=67
263400 On ch=12 n=70 v=67
263520 Off ch=12 n=67 v=64
263520 Off ch=12 n=60 v=64
263520 Off ch=12 n=64 v=64
263520 Off ch=12 n=75 v=64
263520 Off ch=12 n=73 v=64
263520 Off ch=12 n=70 v=64
263520 On ch=12 n=67 v=88
263520 On ch=12 n=60 v=88
263520 On ch=12 n=75 v=70
263520 On ch=12 n=64 v=70
263520 On ch=12 n=73 v=65
263520 On ch=12 n=70 v=65
263640 Off ch=12 n=67 v=64
263640 Off ch=12 n=60 v=64
263640 Off ch=12 n=75 v=64
263640 Off ch=12 n=64 v=64
263640 Off ch=12 n=73 v=64
263640 Off ch=12 n=70 v=64
263640 On ch=12 n=67 v=88
263640 On ch=12 n=60 v=88
263640 On ch=12 n=64 v=70
263640 On ch=12 n=75 v=70
263640 On ch=12 n=73 v=62
263640 On ch=12 n=70 v=62
263760 Off ch=12 n=67 v=64
263760 Off ch=12 n=60 v=64
263760 Off ch=12 n=64 v=64
263760 Off ch=12 n=75 v=64
263760 Off ch=12 n=73 v=64
263760 Off ch=12 n=70 v=64
263760 On ch=12 n=66 v=88
263760 On ch=12 n=75 v=70
263760 On ch=12 n=63 v=70
263760 On ch=12 n=71 v=77
263760 On ch=12 n=69 v=85
263880 Off ch=12 n=71 v=64
263880 Off ch=12 n=69 v=64
263880 On ch=12 n=71 v=88
263880 On ch=12 n=69 v=88
264000 Off ch=12 n=66 v=64
264000 Off ch=12 n=75 v=64
264000 Off ch=12 n=63 v=64
264000 Off ch=12 n=71 v=64
264000 Off ch=12 n=69 v=64
264000 On ch=12 n=69 v=88
264120 Off ch=12 n=69 v=64
264120 On ch=12 n=69 v=88
264240 Off ch=12 n=69 v=64
264240 On ch=12 n=66 v=88
264360 Off ch=12 n=66 v=64
264360 On ch=12 n=66 v=88
264480 Off ch=12 n=66 v=64
264480 On ch=12 n=63 v=88
264600 Off ch=12 n=63 v=64
264600 On ch=12 n=63 v=88
264720 Off ch=12 n=63 v=64
264720 On ch=12 n=60 v=88
264840 Off ch=12 n=60 v=64
264840 On ch=12 n=60 v=88
264960 Off ch=12 n=60 v=64
264960 On ch=12 n=56 v=88
265080 Off ch=12 n=56 v=64
265080 On ch=12 n=56 v=88
265200 Off ch=12 n=56 v=64
265200 On ch=12 n=71 v=88
265320 Off ch=12 n=71 v=64
265320 On ch=12 n=71 v=88
265440 Off ch=12 n=71 v=64
265440 On ch=12 n=69 v=88
265560 Off ch=12 n=69 v=64
265560 On ch=12 n=69 v=88
265680 Off ch=12 n=69 v=64
265680 On ch=12 n=66 v=88
265800 Off ch=12 n=66 v=64
265800 On ch=12 n=66 v=88
265920 Off ch=12 n=66 v=64
265920 On ch=12 n=63 v=88
266040 Off ch=12 n=63 v=64
266040 On ch=12 n=63 v=88
266160 Off ch=12 n=63 v=64
266160 On ch=12 n=60 v=88
266280 Off ch=12 n=60 v=64
266280 On ch=12 n=60 v=88
266400 Off ch=12 n=60 v=64
266400 On ch=12 n=56 v=88
266520 Off ch=12 n=56 v=64
266520 On ch=12 n=56 v=88
266640 Off ch=12 n=56 v=64
266640 On ch=12 n=71 v=88
266760 Off ch=12 n=71 v=64
266760 On ch=12 n=71 v=88
266880 Off ch=12 n=71 v=64
266880 On ch=12 n=69 v=88
267000 Off ch=12 n=69 v=64
267000 On ch=12 n=69 v=88
267120 Off ch=12 n=69 v=64
267120 On ch=12 n=66 v=88
267240 Off ch=12 n=66 v=64
267240 On ch=12 n=66 v=88
267360 Off ch=12 n=66 v=64
267360 On ch=12 n=63 v=88
267480 Off ch=12 n=63 v=64
267480 On ch=12 n=63 v=88
267600 Off ch=12 n=63 v=64
267600 On ch=12 n=60 v=88
267720 Off ch=12 n=60 v=64
267720 On ch=12 n=60 v=88
267840 Off ch=12 n=60 v=64
267840 On ch=12 n=56 v=88
267960 Off ch=12 n=56 v=64
267960 On ch=12 n=56 v=88
268080 Off ch=12 n=56 v=64
268080 On ch=12 n=71 v=88
268200 Off ch=12 n=71 v=64
268200 On ch=12 n=71 v=88
268320 Off ch=12 n=71 v=64
268320 On ch=12 n=69 v=88
268440 Off ch=12 n=69 v=64
268440 On ch=12 n=69 v=88
268560 Off ch=12 n=69 v=64
268560 On ch=12 n=66 v=88
268680 Off ch=12 n=66 v=64
268680 On ch=12 n=66 v=88
268800 Off ch=12 n=66 v=64
268800 On ch=12 n=63 v=88
268920 Off ch=12 n=63 v=64
268920 On ch=12 n=63 v=88
269040 Off ch=12 n=63 v=64
269040 On ch=12 n=60 v=88
269160 Off ch=12 n=60 v=64
269160 On ch=12 n=60 v=88
269280 Off ch=12 n=60 v=64
269280 On ch=12 n=56 v=88
269400 Off ch=12 n=56 v=64
269400 On ch=12 n=56 v=88
269520 Off ch=12 n=56 v=64
269520 On ch=12 n=72 v=88
269520 On ch=12 n=70 v=88
269640 Off ch=12 n=72 v=64
269640 Off ch=12 n=70 v=64
269640 On ch=12 n=72 v=90
269640 On ch=12 n=70 v=90
269760 Off ch=12 n=72 v=64
269760 Off ch=12 n=70 v=64
269760 On ch=12 n=65 v=92
269760 On ch=12 n=71 v=92
269760 On ch=12 n=73 v=92
269760 On ch=12 n=68 v=92
269880 Off ch=12 n=65 v=64
269880 Off ch=12 n=71 v=64
269880 Off ch=12 n=73 v=64
269880 Off ch=12 n=68 v=64
269880 On ch=12 n=65 v=94
269880 On ch=12 n=71 v=94
269880 On ch=12 n=73 v=94
269880 On ch=12 n=68 v=94
270000 Off ch=12 n=65 v=64
270000 Off ch=12 n=71 v=64
270000 Off ch=12 n=73 v=64
270000 Off ch=12 n=68 v=64
270000 On ch=12 n=63 v=96
270000 On ch=12 n=59 v=96
270000 On ch=12 n=66 v=96
270000 On ch=12 n=69 v=96
270000 On ch=12 n=72 v=96
270000 On ch=12 n=74 v=96
270120 Off ch=12 n=63 v=64
270120 Off ch=12 n=59 v=64
270120 Off ch=12 n=66 v=64
270120 Off ch=12 n=69 v=64
270120 Off ch=12 n=72 v=64
270120 Off ch=12 n=74 v=64
270120 On ch=12 n=63 v=98
270120 On ch=12 n=59 v=98
270120 On ch=12 n=72 v=98
270120 On ch=12 n=66 v=98
270120 On ch=12 n=74 v=98
270120 On ch=12 n=69 v=98
270240 Off ch=12 n=63 v=64
270240 Off ch=12 n=59 v=64
270240 Off ch=12 n=72 v=64
270240 Off ch=12 n=66 v=64
270240 Off ch=12 n=74 v=64
270240 Off ch=12 n=69 v=64
270240 On ch=12 n=60 v=100
270240 On ch=12 n=64 v=100
270240 On ch=12 n=67 v=100
270240 On ch=12 n=75 v=100
270240 On ch=12 n=70 v=100
270240 On ch=12 n=73 v=100
270480 Off ch=12 n=60 v=64
270480 Off ch=12 n=64 v=64
270480 Off ch=12 n=67 v=64
270480 Off ch=12 n=75 v=64
270480 Off ch=12 n=70 v=64
270480 Off ch=12 n=73 v=64
272400 On ch=12 n=78 v=87
272400 On ch=12 n=76 v=87
272400 On ch=12 n=73 v=87
272400 On ch=12 n=70 v=87
272520 Off ch=12 n=78 v=64
272520 Off ch=12 n=76 v=64
272520 Off ch=12 n=73 v=64
272520 Off ch=12 n=70 v=64
272520 On ch=12 n=79 v=87
272520 On ch=12 n=77 v=87
272520 On ch=12 n=74 v=87
272520 On ch=12 n=71 v=87
272640 Off ch=12 n=79 v=64
272640 Off ch=12 n=77 v=64
272640 Off ch=12 n=74 v=64
272640 Off ch=12 n=71 v=64
272640 On ch=12 n=78 v=87
272640 On ch=12 n=76 v=87
272640 On ch=12 n=73 v=87
272640 On ch=12 n=70 v=87
272760 Off ch=12 n=78 v=64
272760 Off ch=12 n=76 v=64
272760 Off ch=12 n=73 v=64
272760 Off ch=12 n=70 v=64
272760 On ch=12 n=79 v=86
272760 On ch=12 n=77 v=86
272760 On ch=12 n=74 v=86
272760 On ch=12 n=71 v=86
272880 Off ch=12 n=79 v=64
272880 Off ch=12 n=77 v=64
272880 Off ch=12 n=74 v=64
272880 Off ch=12 n=71 v=64
272880 On ch=12 n=78 v=86
272880 On ch=12 n=76 v=86
272880 On ch=12 n=73 v=86
272880 On ch=12 n=70 v=86
273000 Off ch=12 n=78 v=64
273000 Off ch=12 n=76 v=64
273000 Off ch=12 n=73 v=64
273000 Off ch=12 n=70 v=64
273000 On ch=12 n=79 v=86
273000 On ch=12 n=77 v=86
273000 On ch=12 n=74 v=86
273000 On ch=12 n=71 v=86
273120 Off ch=12 n=79 v=64
273120 Off ch=12 n=77 v=64
273120 Off ch=12 n=74 v=64
273120 Off ch=12 n=71 v=64
273120 On ch=12 n=78 v=85
273120 On ch=12 n=76 v=85
273120 On ch=12 n=73 v=85
273120 On ch=12 n=70 v=85
273240 Off ch=12 n=78 v=64
273240 Off ch=12 n=76 v=64
273240 Off ch=12 n=73 v=64
273240 Off ch=12 n=70 v=64
273240 On ch=12 n=79 v=85
273240 On ch=12 n=77 v=85
273240 On ch=12 n=74 v=85
273240 On ch=12 n=71 v=85
273360 Off ch=12 n=79 v=64
273360 Off ch=12 n=77 v=64
273360 Off ch=12 n=74 v=64
273360 Off ch=12 n=71 v=64
273360 On ch=12 n=78 v=85
273360 On ch=12 n=76 v=85
273360 On ch=12 n=73 v=85
273360 On ch=12 n=70 v=85
273480 Off ch=12 n=78 v=64
273480 Off ch=12 n=76 v=64
273480 Off ch=12 n=73 v=64
273480 Off ch=12 n=70 v=64
273480 On ch=12 n=79 v=84
273480 On ch=12 n=77 v=84
273480 On ch=12 n=74 v=84
273480 On ch=12 n=71 v=84
273600 Off ch=12 n=79 v=64
273600 Off ch=12 n=77 v=64
273600 Off ch=12 n=74 v=64
273600 Off ch=12 n=71 v=64
273600 On ch=12 n=78 v=84
273600 On ch=12 n=76 v=84
273600 On ch=12 n=73 v=84
273600 On ch=12 n=70 v=84
273720 Off ch=12 n=78 v=64
273720 Off ch=12 n=76 v=64
273720 Off ch=12 n=73 v=64
273720 Off ch=12 n=70 v=64
273720 On ch=12 n=79 v=84
273720 On ch=12 n=77 v=84
273720 On ch=12 n=74 v=84
273720 On ch=12 n=71 v=84
273840 Off ch=12 n=79 v=64
273840 Off ch=12 n=77 v=64
273840 Off ch=12 n=74 v=64
273840 Off ch=12 n=71 v=64
273840 On ch=12 n=78 v=84
273840 On ch=12 n=76 v=84
273840 On ch=12 n=73 v=84
273840 On ch=12 n=70 v=84
273960 Off ch=12 n=78 v=64
273960 Off ch=12 n=76 v=64
273960 Off ch=12 n=73 v=64
273960 Off ch=12 n=70 v=64
273960 On ch=12 n=78 v=83
273960 On ch=12 n=76 v=83
273960 On ch=12 n=73 v=83
273960 On ch=12 n=70 v=83
274080 Off ch=12 n=78 v=64
274080 Off ch=12 n=76 v=64
274080 Off ch=12 n=73 v=64
274080 Off ch=12 n=70 v=64
274080 On ch=12 n=77 v=83
274080 On ch=12 n=75 v=83
274080 On ch=12 n=72 v=83
274080 On ch=12 n=69 v=83
274200 Off ch=12 n=77 v=64
274200 Off ch=12 n=75 v=64
274200 Off ch=12 n=72 v=64
274200 Off ch=12 n=69 v=64
274200 On ch=12 n=77 v=83
274200 On ch=12 n=75 v=83
274200 On ch=12 n=72 v=83
274200 On ch=12 n=69 v=83
274320 Off ch=12 n=77 v=64
274320 Off ch=12 n=75 v=64
274320 Off ch=12 n=72 v=64
274320 Off ch=12 n=69 v=64
274320 On ch=12 n=76 v=82
274320 On ch=12 n=74 v=82
274320 On ch=12 n=71 v=82
274320 On ch=12 n=68 v=82
274440 Off ch=12 n=76 v=64
274440 Off ch=12 n=74 v=64
274440 Off ch=12 n=71 v=64
274440 Off ch=12 n=68 v=64
274440 On ch=12 n=76 v=82
274440 On ch=12 n=74 v=82
274440 On ch=12 n=71 v=82
274440 On ch=12 n=68 v=82
274560 Off ch=12 n=76 v=64
274560 Off ch=12 n=74 v=64
274560 Off ch=12 n=71 v=64
274560 Off ch=12 n=68 v=64
274560 On ch=12 n=75 v=82
274560 On ch=12 n=73 v=82
274560 On ch=12 n=70 v=82
274560 On ch=12 n=67 v=82
274680 Off ch=12 n=75 v=64
274680 Off ch=12 n=73 v=64
274680 Off ch=12 n=70 v=64
274680 Off ch=12 n=67 v=64
274680 On ch=12 n=67 v=36
274800 Off ch=12 n=67 v=64
274800 On ch=12 n=70 v=38
274920 Off ch=12 n=70 v=64
274920 On ch=12 n=70 v=39
275040 Off ch=12 n=70 v=64
275040 On ch=12 n=67 v=41
275160 Off ch=12 n=67 v=64
275160 On ch=12 n=67 v=43
275280 Off ch=12 n=67 v=64
275280 On ch=12 n=70 v=45
275400 Off ch=12 n=70 v=64
275400 On ch=12 n=70 v=46
275520 Off ch=12 n=70 v=64
275520 On ch=12 n=67 v=48
275640 Off ch=12 n=67 v=64
275640 On ch=12 n=67 v=50
275760 Off ch=12 n=67 v=64
275760 On ch=12 n=70 v=51
275880 Off ch=12 n=70 v=64
275880 On ch=12 n=70 v=53
276000 Off ch=12 n=70 v=64
276000 On ch=12 n=67 v=55
276120 Off ch=12 n=67 v=64
276120 On ch=12 n=67 v=56
276240 Off ch=12 n=67 v=64
276240 On ch=12 n=70 v=58
276360 Off ch=12 n=70 v=64
276360 On ch=12 n=70 v=60
276480 Off ch=12 n=70 v=64
276480 On ch=12 n=67 v=62
276600 Off ch=12 n=67 v=64
276600 On ch=12 n=67 v=63
276720 Off ch=12 n=67 v=64
276720 On ch=12 n=70 v=65
276840 Off ch=12 n=70 v=64
276840 On ch=12 n=70 v=67
276960 Off ch=12 n=70 v=64
276960 On ch=12 n=67 v=68
277080 Off ch=12 n=67 v=64
277080 On ch=12 n=67 v=70
277200 Off ch=12 n=67 v=64
277200 On ch=12 n=70 v=72
277320 Off ch=12 n=70 v=64
277320 On ch=12 n=70 v=73
277440 Off ch=12 n=70 v=64
277440 On ch=12 n=67 v=75
277560 Off ch=12 n=67 v=64
277560 On ch=12 n=67 v=74
277680 Off ch=12 n=67 v=64
277680 On ch=12 n=70 v=74
277680 On ch=12 n=82 v=104
277800 Off ch=12 n=70 v=64
277800 Off ch=12 n=82 v=64
277800 On ch=12 n=70 v=74
277800 On ch=12 n=82 v=104
277920 Off ch=12 n=70 v=64
277920 Off ch=12 n=82 v=64
277920 On ch=12 n=87 v=104
278040 Off ch=12 n=87 v=64
278040 On ch=12 n=87 v=104
278160 Off ch=12 n=87 v=64
278160 On ch=12 n=82 v=104
278280 Off ch=12 n=82 v=64
278280 On ch=12 n=82 v=104
278400 Off ch=12 n=82 v=64
278400 On ch=12 n=87 v=104
278520 Off ch=12 n=87 v=64
278520 On ch=12 n=87 v=104
278640 Off ch=12 n=87 v=64
278640 On ch=12 n=89 v=104
278760 Off ch=12 n=89 v=64
278760 On ch=12 n=89 v=104
278880 Off ch=12 n=89 v=64
278880 On ch=12 n=92 v=104
279000 Off ch=12 n=92 v=64
279000 On ch=12 n=92 v=104
279120 Off ch=12 n=92 v=64
279120 On ch=12 n=91 v=104
279240 Off ch=12 n=91 v=64
279240 On ch=12 n=91 v=104
279360 Off ch=12 n=91 v=64
279360 On ch=12 n=89 v=104
279480 Off ch=12 n=89 v=64
279480 On ch=12 n=89 v=104
279600 Off ch=12 n=89 v=64
279600 On ch=12 n=87 v=104
279720 Off ch=12 n=87 v=64
279720 On ch=12 n=87 v=104
279840 Off ch=12 n=87 v=64
279840 On ch=12 n=82 v=104
279960 Off ch=12 n=82 v=64
279960 On ch=12 n=82 v=104
280080 Off ch=12 n=82 v=64
281760 On ch=12 n=87 v=106
281880 Off ch=12 n=87 v=64
281880 On ch=12 n=87 v=106
282000 Off ch=12 n=87 v=64
282000 On ch=12 n=92 v=106
282120 Off ch=12 n=92 v=64
282120 On ch=12 n=92 v=106
282240 Off ch=12 n=92 v=64
282240 On ch=12 n=91 v=106
282360 Off ch=12 n=91 v=64
282360 On ch=12 n=91 v=106
282480 Off ch=12 n=91 v=64
282480 On ch=12 n=89 v=106
282600 Off ch=12 n=89 v=64
282600 On ch=12 n=89 v=106
282720 Off ch=12 n=89 v=64
282720 On ch=12 n=87 v=106
282840 Off ch=12 n=87 v=64
282840 On ch=12 n=87 v=106
282960 Off ch=12 n=87 v=64
282960 On ch=12 n=82 v=106
283080 Off ch=12 n=82 v=64
283080 On ch=12 n=82 v=106
283200 Off ch=12 n=82 v=64
283200 On ch=12 n=84 v=106
283320 Off ch=12 n=84 v=64
283320 On ch=12 n=84 v=106
283440 Off ch=12 n=84 v=64
283440 On ch=12 n=87 v=106
283560 Off ch=12 n=87 v=64
283560 On ch=12 n=87 v=106
283680 Off ch=12 n=87 v=64
283680 On ch=12 n=85 v=106
283800 Off ch=12 n=85 v=64
283800 On ch=12 n=85 v=106
283920 Off ch=12 n=85 v=64
283920 On ch=12 n=82 v=106
284040 Off ch=12 n=82 v=64
284040 On ch=12 n=82 v=106
284160 Off ch=12 n=82 v=64
284160 On ch=12 n=82 v=106
284280 Off ch=12 n=82 v=64
284280 On ch=12 n=82 v=106
284400 Off ch=12 n=82 v=64
284400 On ch=12 n=82 v=106
284520 Off ch=12 n=82 v=64
284520 On ch=12 n=82 v=106
284640 Off ch=12 n=82 v=64
285360 On ch=12 n=67 v=92
285480 Off ch=12 n=67 v=64
285480 On ch=12 n=67 v=93
285600 Off ch=12 n=67 v=64
285600 On ch=12 n=67 v=95
285720 Off ch=12 n=67 v=64
285720 On ch=12 n=67 v=97
285840 Off ch=12 n=67 v=64
285840 On ch=12 n=70 v=99
285840 On ch=12 n=67 v=99
285960 Off ch=12 n=70 v=64
285960 Off ch=12 n=67 v=64
285960 On ch=12 n=70 v=101
285960 On ch=12 n=67 v=101
286080 Off ch=12 n=70 v=64
286080 Off ch=12 n=67 v=64
286080 On ch=12 n=70 v=103
286080 On ch=12 n=67 v=103
286200 Off ch=12 n=70 v=64
286200 Off ch=12 n=67 v=64
286200 On ch=12 n=70 v=105
286200 On ch=12 n=67 v=105
286320 Off ch=12 n=70 v=64
286320 Off ch=12 n=67 v=64
286320 On ch=12 n=73 v=107
286320 On ch=12 n=70 v=107
286320 On ch=12 n=67 v=107
286440 Off ch=12 n=73 v=64
286440 Off ch=12 n=70 v=64
286440 Off ch=12 n=67 v=64
286440 On ch=12 n=73 v=109
286440 On ch=12 n=70 v=109
286440 On ch=12 n=67 v=109
286560 Off ch=12 n=73 v=64
286560 Off ch=12 n=70 v=64
286560 Off ch=12 n=67 v=64
286560 On ch=12 n=73 v=111
286560 On ch=12 n=70 v=111
286560 On ch=12 n=67 v=111
286680 Off ch=12 n=73 v=64
286680 Off ch=12 n=70 v=64
286680 Off ch=12 n=67 v=64
286680 On ch=12 n=73 v=113
286680 On ch=12 n=70 v=113
286680 On ch=12 n=67 v=113
286800 Off ch=12 n=73 v=64
286800 Off ch=12 n=70 v=64
286800 Off ch=12 n=67 v=64
286800 On ch=12 n=74 v=115
286800 On ch=12 n=72 v=115
286800 On ch=12 n=69 v=115
286800 On ch=12 n=66 v=115
286920 Off ch=12 n=74 v=64
286920 Off ch=12 n=72 v=64
286920 Off ch=12 n=69 v=64
286920 Off ch=12 n=66 v=64
286920 On ch=12 n=74 v=114
286920 On ch=12 n=72 v=114
286920 On ch=12 n=69 v=114
286920 On ch=12 n=66 v=114
287040 Off ch=12 n=74 v=64
287040 Off ch=12 n=72 v=64
287040 Off ch=12 n=69 v=64
287040 Off ch=12 n=66 v=64
287040 On ch=12 n=73 v=112
287040 On ch=12 n=71 v=112
287040 On ch=12 n=68 v=112
287040 On ch=12 n=65 v=112
287160 Off ch=12 n=73 v=64
287160 Off ch=12 n=71 v=64
287160 Off ch=12 n=68 v=64
287160 Off ch=12 n=65 v=64
287160 On ch=12 n=73 v=111
287160 On ch=12 n=71 v=111
287160 On ch=12 n=68 v=111
287160 On ch=12 n=65 v=111
287280 Off ch=12 n=73 v=64
287280 Off ch=12 n=71 v=64
287280 Off ch=12 n=68 v=64
287280 Off ch=12 n=65 v=64
287280 On ch=12 n=72 v=109
287280 On ch=12 n=70 v=109
287280 On ch=12 n=67 v=109
287280 On ch=12 n=64 v=109
287400 Off ch=12 n=72 v=64
287400 Off ch=12 n=70 v=64
287400 Off ch=12 n=67 v=64
287400 Off ch=12 n=64 v=64
287400 On ch=12 n=72 v=108
287400 On ch=12 n=70 v=108
287400 On ch=12 n=67 v=108
287400 On ch=12 n=64 v=108
287520 Off ch=12 n=72 v=64
287520 Off ch=12 n=70 v=64
287520 Off ch=12 n=67 v=64
287520 Off ch=12 n=64 v=64
287520 On ch=12 n=66 v=106
287520 On ch=12 n=63 v=106
287520 On ch=12 n=71 v=70
287520 On ch=12 n=69 v=70
287640 Off ch=12 n=66 v=64
287640 Off ch=12 n=63 v=64
287640 Off ch=12 n=71 v=64
287640 Off ch=12 n=69 v=64
287640 On ch=12 n=71 v=88
287760 Off ch=12 n=71 v=64
287760 On ch=12 n=69 v=88
287880 Off ch=12 n=69 v=64
287880 On ch=12 n=69 v=88
288000 Off ch=12 n=69 v=64
288000 On ch=12 n=66 v=88
288120 Off ch=12 n=66 v=64
288120 On ch=12 n=66 v=88
288240 Off ch=12 n=66 v=64
288240 On ch=12 n=63 v=88
288360 Off ch=12 n=63 v=64
288360 On ch=12 n=63 v=88
288480 Off ch=12 n=63 v=64
288480 On ch=12 n=60 v=88
288600 Off ch=12 n=60 v=64
288600 On ch=12 n=60 v=88
288720 Off ch=12 n=60 v=64
288720 On ch=12 n=56 v=88
288840 Off ch=12 n=56 v=64
288840 On ch=12 n=56 v=88
288960 Off ch=12 n=56 v=64
288960 On ch=12 n=71 v=88
289080 Off ch=12 n=71 v=64
289080 On ch=12 n=71 v=88
289200 Off ch=12 n=71 v=64
289200 On ch=12 n=69 v=88
289320 Off ch=12 n=69 v=64
289320 On ch=12 n=69 v=88
289440 Off ch=12 n=69 v=64
289440 On ch=12 n=66 v=88
289560 Off ch=12 n=66 v=64
289560 On ch=12 n=66 v=88
289680 Off ch=12 n=66 v=64
289680 On ch=12 n=63 v=88
289800 Off ch=12 n=63 v=64
289800 On ch=12 n=63 v=88
289920 Off ch=12 n=63 v=64
289920 On ch=12 n=60 v=88
290040 Off ch=12 n=60 v=64
290040 On ch=12 n=60 v=88
290160 Off ch=12 n=60 v=64
290160 On ch=12 n=56 v=88
290280 Off ch=12 n=56 v=64
290280 On ch=12 n=56 v=88
290400 Off ch=12 n=56 v=64
290400 On ch=12 n=71 v=88
290400 On ch=12 n=71 v=88
290520 Off ch=12 n=71 v=64
290520 Off ch=12 n=71 v=64
290520 On ch=12 n=71 v=88
290520 On ch=12 n=71 v=88
290640 Off ch=12 n=71 v=64
290640 Off ch=12 n=71 v=64
290640 On ch=12 n=69 v=88
290640 On ch=12 n=69 v=88
290760 Off ch=12 n=69 v=64
290760 Off ch=12 n=69 v=64
290760 On ch=12 n=69 v=88
290760 On ch=12 n=69 v=88
290880 Off ch=12 n=69 v=64
290880 Off ch=12 n=69 v=64
290880 On ch=12 n=66 v=88
290880 On ch=12 n=66 v=88
291000 Off ch=12 n=66 v=64
291000 Off ch=12 n=66 v=64
291000 On ch=12 n=66 v=88
291000 On ch=12 n=66 v=88
291120 Off ch=12 n=66 v=64
291120 Off ch=12 n=66 v=64
291120 On ch=12 n=63 v=88
291240 Off ch=12 n=63 v=64
291240 On ch=12 n=63 v=88
291360 Off ch=12 n=63 v=64
291360 On ch=12 n=60 v=88
291360 On ch=12 n=60 v=88
291480 Off ch=12 n=60 v=64
291480 Off ch=12 n=60 v=64
291480 On ch=12 n=60 v=88
291480 On ch=12 n=60 v=88
291600 Off ch=12 n=60 v=64
291600 Off ch=12 n=60 v=64
291600 On ch=12 n=56 v=88
291600 On ch=12 n=56 v=88
291720 Off ch=12 n=56 v=64
291720 Off ch=12 n=56 v=64
291720 On ch=12 n=56 v=88
291720 On ch=12 n=56 v=88
291840 Off ch=12 n=56 v=64
291840 Off ch=12 n=56 v=64
291840 On ch=12 n=61 v=88
291840 On ch=12 n=54 v=88
291840 On ch=12 n=57 v=88
291840 On ch=12 n=72 v=88
291840 On ch=12 n=64 v=88
291840 On ch=12 n=67 v=88
291840 On ch=12 n=70 v=88
291960 Off ch=12 n=61 v=64
291960 Off ch=12 n=54 v=64
291960 Off ch=12 n=57 v=64
291960 Off ch=12 n=72 v=64
291960 Off ch=12 n=64 v=64
291960 Off ch=12 n=67 v=64
291960 Off ch=12 n=70 v=64
291960 On ch=12 n=61 v=88
291960 On ch=12 n=54 v=88
291960 On ch=12 n=57 v=88
291960 On ch=12 n=67 v=88
291960 On ch=12 n=64 v=88
291960 On ch=12 n=72 v=88
291960 On ch=12 n=70 v=88
292080 Off ch=12 n=61 v=64
292080 Off ch=12 n=54 v=64
292080 Off ch=12 n=57 v=64
292080 Off ch=12 n=67 v=64
292080 Off ch=12 n=64 v=64
292080 Off ch=12 n=72 v=64
292080 Off ch=12 n=70 v=64
292080 On ch=12 n=62 v=88
292080 On ch=12 n=65 v=88
292080 On ch=12 n=58 v=88
292080 On ch=12 n=65 v=88
292080 On ch=12 n=71 v=88
292080 On ch=12 n=68 v=88
292080 On ch=12 n=73 v=88
292200 Off ch=12 n=62 v=64
292200 Off ch=12 n=65 v=64
292200 Off ch=12 n=58 v=64
292200 Off ch=12 n=65 v=64
292200 Off ch=12 n=71 v=64
292200 Off ch=12 n=68 v=64
292200 Off ch=12 n=73 v=64
292200 On ch=12 n=62 v=88
292200 On ch=12 n=65 v=88
292200 On ch=12 n=58 v=88
292200 On ch=12 n=71 v=88
292200 On ch=12 n=65 v=88
292200 On ch=12 n=73 v=88
292200 On ch=12 n=68 v=88
292320 Off ch=12 n=62 v=64
292320 Off ch=12 n=65 v=64
292320 Off ch=12 n=58 v=64
292320 Off ch=12 n=71 v=64
292320 Off ch=12 n=65 v=64
292320 Off ch=12 n=73 v=64
292320 Off ch=12 n=68 v=64
292320 On ch=12 n=63 v=88
292320 On ch=12 n=59 v=88
292320 On ch=12 n=56 v=88
292320 On ch=12 n=72 v=88
292320 On ch=12 n=66 v=88
292320 On ch=12 n=69 v=88
292320 On ch=12 n=74 v=88
292440 Off ch=12 n=63 v=64
292440 Off ch=12 n=59 v=64
292440 Off ch=12 n=56 v=64
292440 Off ch=12 n=72 v=64
292440 Off ch=12 n=66 v=64
292440 Off ch=12 n=69 v=64
292440 Off ch=12 n=74 v=64
292440 On ch=12 n=63 v=88
292440 On ch=12 n=59 v=88
292440 On ch=12 n=56 v=88
292440 On ch=12 n=66 v=88
292440 On ch=12 n=69 v=88
292440 On ch=12 n=72 v=88
292440 On ch=12 n=74 v=88
292560 Off ch=12 n=63 v=64
292560 Off ch=12 n=59 v=64
292560 Off ch=12 n=56 v=64
292560 Off ch=12 n=66 v=64
292560 Off ch=12 n=69 v=64
292560 Off ch=12 n=72 v=64
292560 Off ch=12 n=74 v=64
292560 On ch=12 n=75 v=88
292560 On ch=12 n=73 v=88
292560 On ch=12 n=70 v=88
292560 On ch=12 n=67 v=88
292560 On ch=12 n=64 v=88
292560 On ch=12 n=60 v=88
292680 Off ch=12 n=75 v=64
292680 Off ch=12 n=73 v=64
292680 Off ch=12 n=70 v=64
292680 Off ch=12 n=67 v=64
292680 Off ch=12 n=64 v=64
292680 Off ch=12 n=60 v=64
292680 On ch=12 n=75 v=88
292680 On ch=12 n=73 v=88
292680 On ch=12 n=70 v=88
292680 On ch=12 n=67 v=88
292680 On ch=12 n=64 v=88
292680 On ch=12 n=60 v=88
292800 Off ch=12 n=75 v=64
292800 Off ch=12 n=73 v=64
292800 Off ch=12 n=70 v=64
292800 Off ch=12 n=67 v=64
292800 Off ch=12 n=64 v=64
292800 Off ch=12 n=60 v=64
292800 On ch=12 n=76 v=88
292800 On ch=12 n=74 v=88
292800 On ch=12 n=71 v=88
292800 On ch=12 n=68 v=88
292800 On ch=12 n=65 v=88
292800 On ch=12 n=62 v=88
292800 On ch=12 n=58 v=88
292920 Off ch=12 n=76 v=64
292920 Off ch=12 n=74 v=64
292920 Off ch=12 n=71 v=64
292920 Off ch=12 n=68 v=64
292920 Off ch=12 n=65 v=64
292920 Off ch=12 n=62 v=64
292920 Off ch=12 n=58 v=64
292920 On ch=12 n=76 v=88
292920 On ch=12 n=74 v=88
292920 On ch=12 n=71 v=88
292920 On ch=12 n=68 v=88
292920 On ch=12 n=65 v=88
292920 On ch=12 n=62 v=88
292920 On ch=12 n=58 v=88
293040 Off ch=12 n=76 v=64
293040 Off ch=12 n=74 v=64
293040 Off ch=12 n=71 v=64
293040 Off ch=12 n=68 v=64
293040 Off ch=12 n=65 v=64
293040 Off ch=12 n=62 v=64
293040 Off ch=12 n=58 v=64
293040 On ch=12 n=77 v=88
293040 On ch=12 n=75 v=88
293040 On ch=12 n=72 v=88
293040 On ch=12 n=69 v=88
293040 On ch=12 n=66 v=88
293040 On ch=12 n=62 v=88
293160 Off ch=12 n=77 v=64
293160 Off ch=12 n=75 v=64
293160 Off ch=12 n=72 v=64
293160 Off ch=12 n=69 v=64
293160 Off ch=12 n=66 v=64
293160 Off ch=12 n=62 v=64
293160 On ch=12 n=77 v=88
293160 On ch=12 n=75 v=88
293160 On ch=12 n=72 v=88
293160 On ch=12 n=69 v=88
293160 On ch=12 n=66 v=88
293160 On ch=12 n=62 v=88
293280 Off ch=12 n=77 v=64
293280 Off ch=12 n=75 v=64
293280 Off ch=12 n=72 v=64
293280 Off ch=12 n=69 v=64
293280 Off ch=12 n=66 v=64
293280 Off ch=12 n=62 v=64
293280 On ch=12 n=78 v=88
293280 On ch=12 n=76 v=88
293280 On ch=12 n=73 v=88
293280 On ch=12 n=70 v=88
293280 On ch=12 n=67 v=88
293280 On ch=12 n=64 v=88
293280 On ch=12 n=60 v=88
293400 Off ch=12 n=78 v=64
293400 Off ch=12 n=76 v=64
293400 Off ch=12 n=73 v=64
293400 Off ch=12 n=70 v=64
293400 Off ch=12 n=67 v=64
293400 Off ch=12 n=64 v=64
293400 Off ch=12 n=60 v=64
293400 On ch=12 n=78 v=88
293400 On ch=12 n=76 v=88
293400 On ch=12 n=73 v=88
293400 On ch=12 n=70 v=88
293400 On ch=12 n=67 v=88
293400 On ch=12 n=64 v=88
293400 On ch=12 n=60 v=88
293520 Off ch=12 n=78 v=64
293520 Off ch=12 n=76 v=64
293520 Off ch=12 n=73 v=64
293520 Off ch=12 n=70 v=64
293520 Off ch=12 n=67 v=64
293520 Off ch=12 n=64 v=64
293520 Off ch=12 n=60 v=64
293520 On ch=12 n=78 v=88
293520 On ch=12 n=76 v=88
293520 On ch=12 n=73 v=88
293520 On ch=12 n=70 v=88
293520 On ch=12 n=67 v=88
293520 On ch=12 n=64 v=88
293520 On ch=12 n=60 v=88
293640 Off ch=12 n=78 v=64
293640 Off ch=12 n=76 v=64
293640 Off ch=12 n=73 v=64
293640 Off ch=12 n=70 v=64
293640 Off ch=12 n=67 v=64
293640 Off ch=12 n=64 v=64
293640 Off ch=12 n=60 v=64
293640 On ch=12 n=78 v=88
293640 On ch=12 n=76 v=88
293640 On ch=12 n=73 v=88
293640 On ch=12 n=70 v=88
293640 On ch=12 n=67 v=88
293640 On ch=12 n=64 v=88
293640 On ch=12 n=60 v=88
293760 Off ch=12 n=78 v=64
293760 Off ch=12 n=76 v=64
293760 Off ch=12 n=73 v=64
293760 Off ch=12 n=70 v=64
293760 Off ch=12 n=67 v=64
293760 Off ch=12 n=64 v=64
293760 Off ch=12 n=60 v=64
293760 On ch=12 n=78 v=88
293760 On ch=12 n=76 v=88
293760 On ch=12 n=73 v=88
293760 On ch=12 n=70 v=88
293760 On ch=12 n=67 v=88
293760 On ch=12 n=64 v=88
293760 On ch=12 n=60 v=88
293880 Off ch=12 n=78 v=64
293880 Off ch=12 n=76 v=64
293880 Off ch=12 n=73 v=64
293880 Off ch=12 n=70 v=64
293880 Off ch=12 n=67 v=64
293880 Off ch=12 n=64 v=64
293880 Off ch=12 n=60 v=64
293880 On ch=12 n=78 v=88
293880 On ch=12 n=76 v=88
293880 On ch=12 n=73 v=88
293880 On ch=12 n=70 v=88
293880 On ch=12 n=67 v=88
293880 On ch=12 n=64 v=88
293880 On ch=12 n=60 v=88
294000 Off ch=12 n=78 v=64
294000 Off ch=12 n=76 v=64
294000 Off ch=12 n=73 v=64
294000 Off ch=12 n=70 v=64
294000 Off ch=12 n=67 v=64
294000 Off ch=12 n=64 v=64
294000 Off ch=12 n=60 v=64
294000 On ch=12 n=75 v=88
294000 On ch=12 n=73 v=88
294000 On ch=12 n=70 v=88
294000 On ch=12 n=67 v=88
294000 On ch=12 n=64 v=88
294000 On ch=12 n=60 v=88
294120 Off ch=12 n=75 v=64
294120 Off ch=12 n=73 v=64
294120 Off ch=12 n=70 v=64
294120 Off ch=12 n=67 v=64
294120 Off ch=12 n=64 v=64
294120 Off ch=12 n=60 v=64
294120 On ch=12 n=75 v=88
294120 On ch=12 n=73 v=88
294120 On ch=12 n=70 v=88
294120 On ch=12 n=67 v=88
294120 On ch=12 n=64 v=88
294120 On ch=12 n=60 v=88
294240 Off ch=12 n=75 v=64
294240 Off ch=12 n=73 v=64
294240 Off ch=12 n=70 v=64
294240 Off ch=12 n=67 v=64
294240 Off ch=12 n=64 v=64
294240 Off ch=12 n=60 v=64
294240 On ch=12 n=75 v=88
294240 On ch=12 n=73 v=88
294240 On ch=12 n=70 v=88
294240 On ch=12 n=67 v=88
294240 On ch=12 n=64 v=88
294240 On ch=12 n=60 v=88
294360 Off ch=12 n=75 v=64
294360 Off ch=12 n=73 v=64
294360 Off ch=12 n=70 v=64
294360 Off ch=12 n=67 v=64
294360 Off ch=12 n=64 v=64
294360 Off ch=12 n=60 v=64
294360 On ch=12 n=75 v=88
294360 On ch=12 n=73 v=88
294360 On ch=12 n=70 v=88
294360 On ch=12 n=67 v=88
294360 On ch=12 n=64 v=88
294360 On ch=12 n=60 v=88
294480 Off ch=12 n=75 v=64
294480 Off ch=12 n=73 v=64
294480 Off ch=12 n=70 v=64
294480 Off ch=12 n=67 v=64
294480 Off ch=12 n=64 v=64
294480 Off ch=12 n=60 v=64
294480 On ch=12 n=75 v=88
294480 On ch=12 n=73 v=88
294480 On ch=12 n=70 v=88
294480 On ch=12 n=67 v=88
294480 On ch=12 n=64 v=88
294480 On ch=12 n=60 v=88
294600 Off ch=12 n=75 v=64
294600 Off ch=12 n=73 v=64
294600 Off ch=12 n=70 v=64
294600 Off ch=12 n=67 v=64
294600 Off ch=12 n=64 v=64
294600 Off ch=12 n=60 v=64
294600 On ch=12 n=75 v=88
294600 On ch=12 n=73 v=88
294600 On ch=12 n=70 v=88
294600 On ch=12 n=67 v=88
294600 On ch=12 n=64 v=88
294600 On ch=12 n=60 v=88
294720 Off ch=12 n=75 v=64
294720 Off ch=12 n=73 v=64
294720 Off ch=12 n=70 v=64
294720 Off ch=12 n=67 v=64
294720 Off ch=12 n=64 v=64
294720 Off ch=12 n=60 v=64
294720 On ch=12 n=75 v=88
294720 On ch=12 n=73 v=88
294720 On ch=12 n=70 v=88
294720 On ch=12 n=67 v=88
294720 On ch=12 n=64 v=88
294720 On ch=12 n=60 v=88
294840 Off ch=12 n=75 v=64
294840 Off ch=12 n=73 v=64
294840 Off ch=12 n=70 v=64
294840 Off ch=12 n=67 v=64
294840 Off ch=12 n=64 v=64
294840 Off ch=12 n=60 v=64
294840 On ch=12 n=75 v=88
294840 On ch=12 n=73 v=88
294840 On ch=12 n=70 v=88
294840 On ch=12 n=67 v=88
294840 On ch=12 n=64 v=88
294840 On ch=12 n=60 v=88
294960 Off ch=12 n=75 v=64
294960 Off ch=12 n=73 v=64
294960 Off ch=12 n=70 v=64
294960 Off ch=12 n=67 v=64
294960 Off ch=12 n=64 v=64
294960 Off ch=12 n=60 v=64
294960 On ch=12 n=76 v=88
294960 On ch=12 n=74 v=88
294960 On ch=12 n=71 v=88
294960 On ch=12 n=68 v=88
294960 On ch=12 n=65 v=88
294960 On ch=12 n=62 v=88
294960 On ch=12 n=58 v=88
295080 Off ch=12 n=76 v=64
295080 Off ch=12 n=74 v=64
295080 Off ch=12 n=71 v=64
295080 Off ch=12 n=68 v=64
295080 Off ch=12 n=65 v=64
295080 Off ch=12 n=62 v=64
295080 Off ch=12 n=58 v=64
295080 On ch=12 n=76 v=88
295080 On ch=12 n=74 v=88
295080 On ch=12 n=71 v=88
295080 On ch=12 n=68 v=88
295080 On ch=12 n=65 v=88
295080 On ch=12 n=62 v=88
295080 On ch=12 n=58 v=88
295200 Off ch=12 n=76 v=64
295200 Off ch=12 n=74 v=64
295200 Off ch=12 n=71 v=64
295200 Off ch=12 n=68 v=64
295200 Off ch=12 n=65 v=64
295200 Off ch=12 n=62 v=64
295200 Off ch=12 n=58 v=64
295200 On ch=12 n=77 v=88
295200 On ch=12 n=75 v=88
295200 On ch=12 n=72 v=88
295200 On ch=12 n=69 v=88
295200 On ch=12 n=66 v=88
295200 On ch=12 n=62 v=88
295320 Off ch=12 n=77 v=64
295320 Off ch=12 n=75 v=64
295320 Off ch=12 n=72 v=64
295320 Off ch=12 n=69 v=64
295320 Off ch=12 n=66 v=64
295320 Off ch=12 n=62 v=64
295320 On ch=12 n=77 v=88
295320 On ch=12 n=75 v=88
295320 On ch=12 n=72 v=88
295320 On ch=12 n=69 v=88
295320 On ch=12 n=66 v=88
295320 On ch=12 n=62 v=88
295440 Off ch=12 n=77 v=64
295440 Off ch=12 n=75 v=64
295440 Off ch=12 n=72 v=64
295440 Off ch=12 n=69 v=64
295440 Off ch=12 n=66 v=64
295440 Off ch=12 n=62 v=64
295440 On ch=12 n=78 v=88
295440 On ch=12 n=76 v=88
295440 On ch=12 n=73 v=88
295440 On ch=12 n=70 v=88
295440 On ch=12 n=67 v=88
295440 On ch=12 n=64 v=88
295440 On ch=12 n=60 v=88
295560 Off ch=12 n=78 v=64
295560 Off ch=12 n=76 v=64
295560 Off ch=12 n=73 v=64
295560 Off ch=12 n=70 v=64
295560 Off ch=12 n=67 v=64
295560 Off ch=12 n=64 v=64
295560 Off ch=12 n=60 v=64
295560 On ch=12 n=78 v=88
295560 On ch=12 n=76 v=88
295560 On ch=12 n=73 v=88
295560 On ch=12 n=70 v=88
295560 On ch=12 n=67 v=88
295560 On ch=12 n=64 v=88
295560 On ch=12 n=60 v=88
295680 Off ch=12 n=78 v=64
295680 Off ch=12 n=76 v=64
295680 Off ch=12 n=73 v=64
295680 Off ch=12 n=70 v=64
295680 Off ch=12 n=67 v=64
295680 Off ch=12 n=64 v=64
295680 Off ch=12 n=60 v=64
295680 On ch=12 n=77 v=88
295680 On ch=12 n=75 v=88
295680 On ch=12 n=72 v=88
295680 On ch=12 n=69 v=88
295680 On ch=12 n=66 v=88
295680 On ch=12 n=62 v=88
295800 Off ch=12 n=77 v=64
295800 Off ch=12 n=75 v=64
295800 Off ch=12 n=72 v=64
295800 Off ch=12 n=69 v=64
295800 Off ch=12 n=66 v=64
295800 Off ch=12 n=62 v=64
295800 On ch=12 n=77 v=88
295800 On ch=12 n=75 v=88
295800 On ch=12 n=72 v=88
295800 On ch=12 n=69 v=88
295800 On ch=12 n=66 v=88
295800 On ch=12 n=62 v=88
295920 Off ch=12 n=77 v=64
295920 Off ch=12 n=75 v=64
295920 Off ch=12 n=72 v=64
295920 Off ch=12 n=69 v=64
295920 Off ch=12 n=66 v=64
295920 Off ch=12 n=62 v=64
295920 On ch=12 n=76 v=88
295920 On ch=12 n=74 v=88
295920 On ch=12 n=71 v=88
295920 On ch=12 n=68 v=88
295920 On ch=12 n=65 v=88
295920 On ch=12 n=62 v=88
295920 On ch=12 n=58 v=88
296040 Off ch=12 n=76 v=64
296040 Off ch=12 n=74 v=64
296040 Off ch=12 n=71 v=64
296040 Off ch=12 n=68 v=64
296040 Off ch=12 n=65 v=64
296040 Off ch=12 n=62 v=64
296040 Off ch=12 n=58 v=64
296040 On ch=12 n=76 v=88
296040 On ch=12 n=74 v=88
296040 On ch=12 n=71 v=88
296040 On ch=12 n=68 v=88
296040 On ch=12 n=65 v=88
296040 On ch=12 n=62 v=88
296040 On ch=12 n=58 v=88
296160 Off ch=12 n=76 v=64
296160 Off ch=12 n=74 v=64
296160 Off ch=12 n=71 v=64
296160 Off ch=12 n=68 v=64
296160 Off ch=12 n=65 v=64
296160 Off ch=12 n=62 v=64
296160 Off ch=12 n=58 v=64
296160 On ch=12 n=75 v=88
296160 On ch=12 n=73 v=88
296160 On ch=12 n=70 v=88
296160 On ch=12 n=67 v=88
296160 On ch=12 n=64 v=88
296160 On ch=12 n=60 v=88
296280 Off ch=12 n=75 v=64
296280 Off ch=12 n=73 v=64
296280 Off ch=12 n=70 v=64
296280 Off ch=12 n=67 v=64
296280 Off ch=12 n=64 v=64
296280 Off ch=12 n=60 v=64
296280 On ch=12 n=75 v=88
296280 On ch=12 n=73 v=88
296280 On ch=12 n=70 v=88
296280 On ch=12 n=67 v=88
296280 On ch=12 n=64 v=88
296280 On ch=12 n=60 v=88
296400 Off ch=12 n=75 v=64
296400 Off ch=12 n=73 v=64
296400 Off ch=12 n=70 v=64
296400 Off ch=12 n=67 v=64
296400 Off ch=12 n=64 v=64
296400 Off ch=12 n=60 v=64
296400 On ch=12 n=75 v=88
296400 On ch=12 n=73 v=88
296400 On ch=12 n=70 v=88
296400 On ch=12 n=67 v=88
296400 On ch=12 n=64 v=88
296400 On ch=12 n=60 v=88
296520 Off ch=12 n=75 v=64
296520 Off ch=12 n=73 v=64
296520 Off ch=12 n=70 v=64
296520 Off ch=12 n=67 v=64
296520 Off ch=12 n=64 v=64
296520 Off ch=12 n=60 v=64
296520 On ch=12 n=75 v=88
296520 On ch=12 n=73 v=88
296520 On ch=12 n=70 v=88
296520 On ch=12 n=67 v=88
296520 On ch=12 n=64 v=88
296520 On ch=12 n=60 v=88
296640 Off ch=12 n=75 v=64
296640 Off ch=12 n=73 v=64
296640 Off ch=12 n=70 v=64
296640 Off ch=12 n=67 v=64
296640 Off ch=12 n=64 v=64
296640 Off ch=12 n=60 v=64
296640 On ch=12 n=75 v=88
296640 On ch=12 n=73 v=88
296640 On ch=12 n=70 v=88
296640 On ch=12 n=67 v=88
296640 On ch=12 n=64 v=88
296640 On ch=12 n=60 v=88
296760 Off ch=12 n=75 v=64
296760 Off ch=12 n=73 v=64
296760 Off ch=12 n=70 v=64
296760 Off ch=12 n=67 v=64
296760 Off ch=12 n=64 v=64
296760 Off ch=12 n=60 v=64
296760 On ch=12 n=75 v=88
296760 On ch=12 n=73 v=88
296760 On ch=12 n=70 v=88
296760 On ch=12 n=67 v=88
296760 On ch=12 n=64 v=88
296760 On ch=12 n=60 v=88
296880 Off ch=12 n=75 v=64
296880 Off ch=12 n=73 v=64
296880 Off ch=12 n=70 v=64
296880 Off ch=12 n=67 v=64
296880 Off ch=12 n=64 v=64
296880 Off ch=12 n=60 v=64
296880 On ch=12 n=75 v=90
296880 On ch=12 n=73 v=90
296880 On ch=12 n=67 v=90
296880 On ch=12 n=64 v=90
296880 On ch=12 n=60 v=90
296880 On ch=12 n=70 v=90
297000 Off ch=12 n=75 v=64
297000 Off ch=12 n=73 v=64
297000 Off ch=12 n=67 v=64
297000 Off ch=12 n=64 v=64
297000 Off ch=12 n=60 v=64
297000 Off ch=12 n=70 v=64
297000 On ch=12 n=67 v=60
297120 Off ch=12 n=67 v=64
297120 On ch=12 n=73 v=70
297240 Off ch=12 n=73 v=64
297240 On ch=12 n=70 v=60
297360 Off ch=12 n=70 v=64
297360 On ch=12 n=70 v=70
297480 Off ch=12 n=70 v=64
297480 On ch=12 n=67 v=60
297600 Off ch=12 n=67 v=64
297600 On ch=12 n=67 v=70
297720 Off ch=12 n=67 v=64
297720 On ch=12 n=64 v=60
297840 Off ch=12 n=64 v=64
297840 On ch=12 n=64 v=70
297960 Off ch=12 n=64 v=64
297960 On ch=12 n=61 v=60
298080 Off ch=12 n=61 v=64
298080 On ch=12 n=61 v=70
298200 Off ch=12 n=61 v=64
298200 On ch=12 n=58 v=60
298320 Off ch=12 n=58 v=64
298320 On ch=12 n=73 v=70
298440 Off ch=12 n=73 v=64
298440 On ch=12 n=70 v=60
298560 Off ch=12 n=70 v=64
298560 On ch=12 n=76 v=70
298680 Off ch=12 n=76 v=64
298680 On ch=12 n=73 v=60
298800 Off ch=12 n=73 v=64
298800 On ch=12 n=73 v=70
298920 Off ch=12 n=73 v=64
298920 On ch=12 n=70 v=60
299040 Off ch=12 n=70 v=64
299040 On ch=12 n=70 v=70
299160 Off ch=12 n=70 v=64
299160 On ch=12 n=67 v=60
299280 Off ch=12 n=67 v=64
299280 On ch=12 n=67 v=70
299400 Off ch=12 n=67 v=64
299400 On ch=12 n=64 v=60
299520 Off ch=12 n=64 v=64
299520 On ch=12 n=64 v=70
299640 Off ch=12 n=64 v=64
299640 On ch=12 n=61 v=60
299760 Off ch=12 n=61 v=64
299760 On ch=12 n=76 v=72
299880 Off ch=12 n=76 v=64
299880 On ch=12 n=73 v=62
300000 Off ch=12 n=73 v=64
300000 On ch=12 n=79 v=72
300120 Off ch=12 n=79 v=64
300120 On ch=12 n=76 v=62
300240 Off ch=12 n=76 v=64
300240 On ch=12 n=76 v=72
300360 Off ch=12 n=76 v=64
300360 On ch=12 n=73 v=62
300480 Off ch=12 n=73 v=64
300480 On ch=12 n=73 v=72
300600 Off ch=12 n=73 v=64
300600 On ch=12 n=70 v=62
300720 Off ch=12 n=70 v=64
300720 On ch=12 n=70 v=72
300840 Off ch=12 n=70 v=64
300840 On ch=12 n=67 v=62
300960 Off ch=12 n=67 v=64
300960 On ch=12 n=67 v=72
301080 Off ch=12 n=67 v=64
301080 On ch=12 n=64 v=62
301200 Off ch=12 n=64 v=64
301200 On ch=12 n=79 v=72
301320 Off ch=12 n=79 v=64
301320 On ch=12 n=76 v=62
301440 Off ch=12 n=76 v=64
301440 On ch=12 n=82 v=72
301560 Off ch=12 n=82 v=64
301560 On ch=12 n=79 v=62
301680 Off ch=12 n=79 v=64
301680 On ch=12 n=79 v=72
301800 Off ch=12 n=79 v=64
301800 On ch=12 n=76 v=62
301920 Off ch=12 n=76 v=64
301920 On ch=12 n=76 v=72
302040 Off ch=12 n=76 v=64
302040 On ch=12 n=73 v=62
302160 Off ch=12 n=73 v=64
302160 On ch=12 n=73 v=72
302280 Off ch=12 n=73 v=64
302280 On ch=12 n=70 v=62
302400 Off ch=12 n=70 v=64
302400 On ch=12 n=70 v=72
302520 Off ch=12 n=70 v=64
302520 On ch=12 n=67 v=62
302640 Off ch=12 n=67 v=64
302640 On ch=12 n=82 v=74
302760 Off ch=12 n=82 v=64
302760 On ch=12 n=79 v=64
302880 Off ch=12 n=79 v=64
302880 On ch=12 n=85 v=74
303000 Off ch=12 n=85 v=64
303000 On ch=12 n=82 v=64
303120 Off ch=12 n=82 v=64
303120 On ch=12 n=82 v=74
303240 Off ch=12 n=82 v=64
303240 On ch=12 n=79 v=64
303360 Off ch=12 n=79 v=64
303360 On ch=12 n=79 v=74
303480 Off ch=12 n=79 v=64
303480 On ch=12 n=76 v=64
303600 Off ch=12 n=76 v=64
303600 On ch=12 n=76 v=74
303720 Off ch=12 n=76 v=64
303720 On ch=12 n=73 v=64
303840 Off ch=12 n=73 v=64
303840 On ch=12 n=73 v=74
303960 Off ch=12 n=73 v=64
303960 On ch=12 n=70 v=64
304080 Off ch=12 n=70 v=64
304080 On ch=12 n=85 v=74
304200 Off ch=12 n=85 v=64
304200 On ch=12 n=82 v=64
304320 Off ch=12 n=82 v=64
304320 On ch=12 n=88 v=74
304440 Off ch=12 n=88 v=64
304440 On ch=12 n=85 v=64
304560 Off ch=12 n=85 v=64
304560 On ch=12 n=85 v=74
304680 Off ch=12 n=85 v=64
304680 On ch=12 n=82 v=64
304800 Off ch=12 n=82 v=64
304800 On ch=12 n=82 v=74
304920 Off ch=12 n=82 v=64
304920 On ch=12 n=79 v=64
305040 Off ch=12 n=79 v=64
305040 On ch=12 n=79 v=74
305160 Off ch=12 n=79 v=64
305160 On ch=12 n=76 v=64
305280 Off ch=12 n=76 v=64
305280 On ch=12 n=76 v=74
305400 Off ch=12 n=76 v=64
305400 On ch=12 n=73 v=64
305520 Off ch=12 n=73 v=64
305520 On ch=12 n=73 v=70
305760 Off ch=12 n=73 v=64
316800 On ch=12 n=69 v=49
316878 Off ch=12 n=69 v=64
316920 On ch=12 n=69 v=57
316998 Off ch=12 n=69 v=64
317040 On ch=12 n=69 v=66
317040 On ch=12 n=72 v=66
317118 Off ch=12 n=69 v=64
317118 Off ch=12 n=72 v=64
317160 On ch=12 n=69 v=74
317160 On ch=12 n=72 v=74
317238 Off ch=12 n=69 v=64
317238 Off ch=12 n=72 v=64
317280 On ch=12 n=72 v=83
317280 On ch=12 n=75 v=83
317280 On ch=12 n=69 v=83
317358 Off ch=12 n=72 v=64
317358 Off ch=12 n=75 v=64
317358 Off ch=12 n=69 v=64
317400 On ch=12 n=69 v=92
317400 On ch=12 n=75 v=92
317400 On ch=12 n=72 v=92
317478 Off ch=12 n=69 v=64
317478 Off ch=12 n=75 v=64
317478 Off ch=12 n=72 v=64
317520 On ch=12 n=69 v=100
317520 On ch=12 n=75 v=100
317520 On ch=12 n=72 v=100
317520 On ch=12 n=77 v=100
317598 Off ch=12 n=69 v=64
317598 Off ch=12 n=75 v=64
317598 Off ch=12 n=72 v=64
317598 Off ch=12 n=77 v=64
317640 On ch=12 n=69 v=91
317640 On ch=12 n=75 v=91
317640 On ch=12 n=77 v=91
317640 On ch=12 n=72 v=91
317718 Off ch=12 n=69 v=64
317718 Off ch=12 n=75 v=64
317718 Off ch=12 n=77 v=64
317718 Off ch=12 n=72 v=64
317760 On ch=12 n=69 v=80
317760 On ch=12 n=72 v=80
317760 On ch=12 n=75 v=80
317838 Off ch=12 n=69 v=64
317838 Off ch=12 n=72 v=64
317838 Off ch=12 n=75 v=64
317880 On ch=12 n=69 v=68
317880 On ch=12 n=75 v=68
317880 On ch=12 n=72 v=68
317958 Off ch=12 n=69 v=64
317958 Off ch=12 n=75 v=64
317958 Off ch=12 n=72 v=64
318000 On ch=12 n=69 v=57
318000 On ch=12 n=72 v=57
318078 Off ch=12 n=69 v=64
318078 Off ch=12 n=72 v=64
318120 On ch=12 n=69 v=45
318120 On ch=12 n=72 v=45
318198 Off ch=12 n=69 v=64
318198 Off ch=12 n=72 v=64
318240 On ch=12 n=69 v=50
318318 Off ch=12 n=69 v=64
318360 On ch=12 n=69 v=58
318438 Off ch=12 n=69 v=64
318480 On ch=12 n=69 v=66
318480 On ch=12 n=72 v=66
318558 Off ch=12 n=69 v=64
318558 Off ch=12 n=72 v=64
318600 On ch=12 n=69 v=74
318600 On ch=12 n=72 v=74
318678 Off ch=12 n=69 v=64
318678 Off ch=12 n=72 v=64
318720 On ch=12 n=69 v=82
318720 On ch=12 n=72 v=82
318720 On ch=12 n=75 v=82
318798 Off ch=12 n=69 v=64
318798 Off ch=12 n=72 v=64
318798 Off ch=12 n=75 v=64
318840 On ch=12 n=75 v=90
318840 On ch=12 n=69 v=90
318840 On ch=12 n=72 v=90
318918 Off ch=12 n=75 v=64
318918 Off ch=12 n=69 v=64
318918 Off ch=12 n=72 v=64
318960 On ch=12 n=69 v=98
318960 On ch=12 n=75 v=98
318960 On ch=12 n=77 v=98
318960 On ch=12 n=72 v=98
319038 Off ch=12 n=69 v=64
319038 Off ch=12 n=75 v=64
319038 Off ch=12 n=77 v=64
319038 Off ch=12 n=72 v=64
319080 On ch=12 n=69 v=90
319080 On ch=12 n=72 v=90
319080 On ch=12 n=77 v=90
319080 On ch=12 n=75 v=90
319158 Off ch=12 n=69 v=64
319158 Off ch=12 n=72 v=64
319158 Off ch=12 n=77 v=64
319158 Off ch=12 n=75 v=64
319200 On ch=12 n=69 v=79
319200 On ch=12 n=75 v=79
319200 On ch=12 n=72 v=79
319278 Off ch=12 n=69 v=64
319278 Off ch=12 n=75 v=64
319278 Off ch=12 n=72 v=64
319320 On ch=12 n=69 v=68
319320 On ch=12 n=75 v=68
319320 On ch=12 n=72 v=68
319398 Off ch=12 n=69 v=64
319398 Off ch=12 n=75 v=64
319398 Off ch=12 n=72 v=64
319440 On ch=12 n=69 v=57
319440 On ch=12 n=72 v=57
319518 Off ch=12 n=69 v=64
319518 Off ch=12 n=72 v=64
319560 On ch=12 n=69 v=46
319560 On ch=12 n=72 v=46
319638 Off ch=12 n=69 v=64
319638 Off ch=12 n=72 v=64
319680 On ch=12 n=69 v=50
319758 Off ch=12 n=69 v=64
319800 On ch=12 n=69 v=58
319878 Off ch=12 n=69 v=64
319920 On ch=12 n=69 v=66
319920 On ch=12 n=72 v=66
319998 Off ch=12 n=69 v=64
319998 Off ch=12 n=72 v=64
320040 On ch=12 n=69 v=75
320040 On ch=12 n=72 v=75
320118 Off ch=12 n=69 v=64
320118 Off ch=12 n=72 v=64
320160 On ch=12 n=69 v=83
320160 On ch=12 n=75 v=83
320160 On ch=12 n=72 v=83
320238 Off ch=12 n=69 v=64
320238 Off ch=12 n=75 v=64
320238 Off ch=12 n=72 v=64
320280 On ch=12 n=75 v=91
320280 On ch=12 n=72 v=91
320280 On ch=12 n=69 v=91
320358 Off ch=12 n=75 v=64
320358 Off ch=12 n=72 v=64
320358 Off ch=12 n=69 v=64
320400 On ch=12 n=69 v=99
320400 On ch=12 n=72 v=99
320400 On ch=12 n=75 v=99
320400 On ch=12 n=77 v=99
320478 Off ch=12 n=69 v=64
320478 Off ch=12 n=72 v=64
320478 Off ch=12 n=75 v=64
320478 Off ch=12 n=77 v=64
320520 On ch=12 n=69 v=90
320520 On ch=12 n=72 v=90
320520 On ch=12 n=77 v=90
320520 On ch=12 n=75 v=90
320598 Off ch=12 n=69 v=64
320598 Off ch=12 n=72 v=64
320598 Off ch=12 n=77 v=64
320598 Off ch=12 n=75 v=64
320640 On ch=12 n=72 v=79
320640 On ch=12 n=75 v=79
320640 On ch=12 n=69 v=79
320718 Off ch=12 n=72 v=64
320718 Off ch=12 n=75 v=64
320718 Off ch=12 n=69 v=64
320760 On ch=12 n=69 v=69
320760 On ch=12 n=75 v=69
320760 On ch=12 n=72 v=69
320838 Off ch=12 n=69 v=64
320838 Off ch=12 n=75 v=64
320838 Off ch=12 n=72 v=64
320880 On ch=12 n=69 v=58
320880 On ch=12 n=72 v=58
320958 Off ch=12 n=69 v=64
320958 Off ch=12 n=72 v=64
321000 On ch=12 n=72 v=42
321000 On ch=12 n=69 v=42
321078 Off ch=12 n=72 v=64
321078 Off ch=12 n=69 v=64
321120 On ch=12 n=69 v=48
321198 Off ch=12 n=69 v=64
321240 On ch=12 n=69 v=54
321318 Off ch=12 n=69 v=64
321360 On ch=12 n=69 v=61
321360 On ch=12 n=72 v=61
321438 Off ch=12 n=69 v=64
321438 Off ch=12 n=72 v=64
321480 On ch=12 n=69 v=67
321480 On ch=12 n=72 v=67
321558 Off ch=12 n=69 v=64
321558 Off ch=12 n=72 v=64
321600 On ch=12 n=72 v=74
321600 On ch=12 n=75 v=74
321600 On ch=12 n=69 v=74
321678 Off ch=12 n=72 v=64
321678 Off ch=12 n=75 v=64
321678 Off ch=12 n=69 v=64
321720 On ch=12 n=69 v=80
321720 On ch=12 n=75 v=80
321720 On ch=12 n=72 v=80
321798 Off ch=12 n=69 v=64
321798 Off ch=12 n=75 v=64
321798 Off ch=12 n=72 v=64
321840 On ch=12 n=69 v=87
321840 On ch=12 n=72 v=87
321840 On ch=12 n=75 v=87
321840 On ch=12 n=77 v=87
321918 Off ch=12 n=69 v=64
321918 Off ch=12 n=72 v=64
321918 Off ch=12 n=75 v=64
321918 Off ch=12 n=77 v=64
321960 On ch=12 n=69 v=81
321960 On ch=12 n=72 v=81
321960 On ch=12 n=77 v=81
321960 On ch=12 n=75 v=81
322038 Off ch=12 n=69 v=64
322038 Off ch=12 n=72 v=64
322038 Off ch=12 n=77 v=64
322038 Off ch=12 n=75 v=64
322080 On ch=12 n=69 v=73
322080 On ch=12 n=72 v=73
322080 On ch=12 n=75 v=73
322158 Off ch=12 n=69 v=64
322158 Off ch=12 n=72 v=64
322158 Off ch=12 n=75 v=64
322200 On ch=12 n=75 v=65
322200 On ch=12 n=69 v=65
322200 On ch=12 n=72 v=65
322278 Off ch=12 n=75 v=64
322278 Off ch=12 n=69 v=64
322278 Off ch=12 n=72 v=64
322320 On ch=12 n=69 v=57
322320 On ch=12 n=72 v=57
322398 Off ch=12 n=69 v=64
322398 Off ch=12 n=72 v=64
322440 On ch=12 n=69 v=49
322440 On ch=12 n=72 v=49
322518 Off ch=12 n=69 v=64
322518 Off ch=12 n=72 v=64
322560 On ch=12 n=69 v=42
322638 Off ch=12 n=69 v=64
322680 On ch=12 n=69 v=49
322758 Off ch=12 n=69 v=64
322800 On ch=12 n=69 v=56
322800 On ch=12 n=72 v=56
322878 Off ch=12 n=69 v=64
322878 Off ch=12 n=72 v=64
322920 On ch=12 n=72 v=64
322920 On ch=12 n=69 v=64
322998 Off ch=12 n=72 v=64
322998 Off ch=12 n=69 v=64
323040 On ch=12 n=69 v=71
323040 On ch=12 n=72 v=71
323040 On ch=12 n=75 v=71
323118 Off ch=12 n=69 v=64
323118 Off ch=12 n=72 v=64
323118 Off ch=12 n=75 v=64
323160 On ch=12 n=75 v=79
323160 On ch=12 n=69 v=79
323160 On ch=12 n=72 v=79
323238 Off ch=12 n=75 v=64
323238 Off ch=12 n=69 v=64
323238 Off ch=12 n=72 v=64
323280 On ch=12 n=69 v=60
323280 On ch=12 n=75 v=60
323280 On ch=12 n=72 v=60
323280 On ch=12 n=77 v=60
323280 On ch=12 n=71 v=60
323280 On ch=12 n=63 v=60
323280 On ch=12 n=66 v=60
323358 Off ch=12 n=69 v=64
323358 Off ch=12 n=75 v=64
323358 Off ch=12 n=72 v=64
323358 Off ch=12 n=77 v=64
323364 Off ch=12 n=71 v=64
323364 Off ch=12 n=63 v=64
323364 Off ch=12 n=66 v=64
323400 On ch=12 n=75 v=64
323400 On ch=12 n=69 v=64
323400 On ch=12 n=72 v=64
323400 On ch=12 n=77 v=64
323400 On ch=12 n=71 v=64
323400 On ch=12 n=66 v=64
323400 On ch=12 n=63 v=64
323478 Off ch=12 n=75 v=64
323478 Off ch=12 n=69 v=64
323478 Off ch=12 n=72 v=64
323478 Off ch=12 n=77 v=64
323484 Off ch=12 n=71 v=64
323484 Off ch=12 n=66 v=64
323484 Off ch=12 n=63 v=64
323520 On ch=12 n=69 v=67
323520 On ch=12 n=75 v=67
323520 On ch=12 n=72 v=67
323520 On ch=12 n=77 v=67
323520 On ch=12 n=71 v=67
323520 On ch=12 n=63 v=67
323520 On ch=12 n=66 v=67
323598 Off ch=12 n=69 v=64
323598 Off ch=12 n=75 v=64
323598 Off ch=12 n=72 v=64
323598 Off ch=12 n=77 v=64
323604 Off ch=12 n=71 v=64
323604 Off ch=12 n=63 v=64
323604 Off ch=12 n=66 v=64
323640 On ch=12 n=75 v=70
323640 On ch=12 n=69 v=70
323640 On ch=12 n=72 v=70
323640 On ch=12 n=77 v=70
323640 On ch=12 n=71 v=70
323640 On ch=12 n=66 v=70
323640 On ch=12 n=63 v=70
323718 Off ch=12 n=75 v=64
323718 Off ch=12 n=69 v=64
323718 Off ch=12 n=72 v=64
323718 Off ch=12 n=77 v=64
323724 Off ch=12 n=71 v=64
323724 Off ch=12 n=66 v=64
323724 Off ch=12 n=63 v=64
323760 On ch=12 n=69 v=74
323760 On ch=12 n=72 v=74
323760 On ch=12 n=77 v=74
323760 On ch=12 n=75 v=74
323760 On ch=12 n=71 v=74
323760 On ch=12 n=66 v=74
323760 On ch=12 n=63 v=74
323838 Off ch=12 n=69 v=64
323838 Off ch=12 n=72 v=64
323838 Off ch=12 n=77 v=64
323838 Off ch=12 n=75 v=64
323844 Off ch=12 n=71 v=64
323844 Off ch=12 n=66 v=64
323844 Off ch=12 n=63 v=64
323880 On ch=12 n=75 v=77
323880 On ch=12 n=69 v=77
323880 On ch=12 n=72 v=77
323880 On ch=12 n=77 v=77
323880 On ch=12 n=71 v=77
323880 On ch=12 n=66 v=77
323880 On ch=12 n=63 v=77
323958 Off ch=12 n=75 v=64
323958 Off ch=12 n=69 v=64
323958 Off ch=12 n=72 v=64
323958 Off ch=12 n=77 v=64
323964 Off ch=12 n=71 v=64
323964 Off ch=12 n=66 v=64
323964 Off ch=12 n=63 v=64
324000 On ch=12 n=69 v=80
324000 On ch=12 n=72 v=80
324000 On ch=12 n=78 v=80
324000 On ch=12 n=74 v=80
324000 On ch=12 n=65 v=80
324000 On ch=12 n=63 v=80
324000 On ch=12 n=60 v=80
324078 Off ch=12 n=69 v=64
324078 Off ch=12 n=72 v=64
324078 Off ch=12 n=78 v=64
324078 Off ch=12 n=74 v=64
324084 Off ch=12 n=65 v=64
324084 Off ch=12 n=63 v=64
324084 Off ch=12 n=60 v=64
324120 On ch=12 n=78 v=57
324120 On ch=12 n=69 v=57
324120 On ch=12 n=72 v=57
324120 On ch=12 n=74 v=57
324120 On ch=12 n=65 v=57
324120 On ch=12 n=63 v=57
324120 On ch=12 n=60 v=57
324198 Off ch=12 n=78 v=64
324198 Off ch=12 n=69 v=64
324198 Off ch=12 n=72 v=64
324198 Off ch=12 n=74 v=64
324204 Off ch=12 n=65 v=64
324204 Off ch=12 n=63 v=64
324204 Off ch=12 n=60 v=64
324240 On ch=12 n=72 v=56
324240 On ch=12 n=69 v=56
324240 On ch=12 n=74 v=56
324240 On ch=12 n=78 v=56
324240 On ch=12 n=65 v=56
324240 On ch=12 n=60 v=56
324240 On ch=12 n=63 v=56
324318 Off ch=12 n=72 v=64
324318 Off ch=12 n=69 v=64
324318 Off ch=12 n=74 v=64
324318 Off ch=12 n=78 v=64
324324 Off ch=12 n=65 v=64
324324 Off ch=12 n=60 v=64
324324 Off ch=12 n=63 v=64
324360 On ch=12 n=69 v=54
324360 On ch=12 n=72 v=54
324360 On ch=12 n=74 v=54
324360 On ch=12 n=78 v=54
324360 On ch=12 n=65 v=54
324360 On ch=12 n=60 v=54
324360 On ch=12 n=63 v=54
324438 Off ch=12 n=69 v=64
324438 Off ch=12 n=72 v=64
324438 Off ch=12 n=74 v=64
324438 Off ch=12 n=78 v=64
324444 Off ch=12 n=65 v=64
324444 Off ch=12 n=60 v=64
324444 Off ch=12 n=63 v=64
324480 On ch=12 n=78 v=53
324480 On ch=12 n=69 v=53
324480 On ch=12 n=72 v=53
324480 On ch=12 n=74 v=53
324480 On ch=12 n=65 v=53
324480 On ch=12 n=63 v=53
324480 On ch=12 n=60 v=53
324558 Off ch=12 n=78 v=64
324558 Off ch=12 n=69 v=64
324558 Off ch=12 n=72 v=64
324558 Off ch=12 n=74 v=64
324564 Off ch=12 n=65 v=64
324564 Off ch=12 n=63 v=64
324564 Off ch=12 n=60 v=64
324600 On ch=12 n=69 v=51
324600 On ch=12 n=78 v=51
324600 On ch=12 n=72 v=51
324600 On ch=12 n=74 v=51
324600 On ch=12 n=65 v=51
324600 On ch=12 n=63 v=51
324600 On ch=12 n=60 v=51
324678 Off ch=12 n=69 v=64
324678 Off ch=12 n=78 v=64
324678 Off ch=12 n=72 v=64
324678 Off ch=12 n=74 v=64
324684 Off ch=12 n=65 v=64
324684 Off ch=12 n=63 v=64
324684 Off ch=12 n=60 v=64
324720 On ch=12 n=72 v=52
324720 On ch=12 n=75 v=52
324720 On ch=12 n=69 v=52
324720 On ch=12 n=77 v=52
324720 On ch=12 n=66 v=52
324720 On ch=12 n=63 v=52
324720 On ch=12 n=60 v=52
324720 On ch=12 n=68 v=52
324798 Off ch=12 n=72 v=64
324798 Off ch=12 n=75 v=64
324798 Off ch=12 n=69 v=64
324798 Off ch=12 n=77 v=64
324804 Off ch=12 n=66 v=64
324804 Off ch=12 n=63 v=64
324804 Off ch=12 n=60 v=64
324804 Off ch=12 n=68 v=64
324840 On ch=12 n=69 v=59
324840 On ch=12 n=75 v=59
324840 On ch=12 n=72 v=59
324840 On ch=12 n=77 v=59
324840 On ch=12 n=66 v=59
324840 On ch=12 n=68 v=59
324840 On ch=12 n=63 v=59
324840 On ch=12 n=60 v=59
324918 Off ch=12 n=69 v=64
324918 Off ch=12 n=75 v=64
324918 Off ch=12 n=72 v=64
324918 Off ch=12 n=77 v=64
324924 Off ch=12 n=66 v=64
324924 Off ch=12 n=68 v=64
324924 Off ch=12 n=63 v=64
324924 Off ch=12 n=60 v=64
324960 On ch=12 n=69 v=66
324960 On ch=12 n=72 v=66
324960 On ch=12 n=75 v=66
324960 On ch=12 n=77 v=66
324960 On ch=12 n=66 v=66
324960 On ch=12 n=68 v=66
324960 On ch=12 n=60 v=66
324960 On ch=12 n=63 v=66
325038 Off ch=12 n=69 v=64
325038 Off ch=12 n=72 v=64
325038 Off ch=12 n=75 v=64
325038 Off ch=12 n=77 v=64
325044 Off ch=12 n=66 v=64
325044 Off ch=12 n=68 v=64
325044 Off ch=12 n=60 v=64
325044 Off ch=12 n=63 v=64
325080 On ch=12 n=69 v=73
325080 On ch=12 n=72 v=73
325080 On ch=12 n=75 v=73
325080 On ch=12 n=77 v=73
325080 On ch=12 n=66 v=73
325080 On ch=12 n=68 v=73
325080 On ch=12 n=60 v=73
325080 On ch=12 n=63 v=73
325158 Off ch=12 n=69 v=64
325158 Off ch=12 n=72 v=64
325158 Off ch=12 n=75 v=64
325158 Off ch=12 n=77 v=64
325164 Off ch=12 n=66 v=64
325164 Off ch=12 n=68 v=64
325164 Off ch=12 n=60 v=64
325164 Off ch=12 n=63 v=64
325200 On ch=12 n=69 v=80
325200 On ch=12 n=75 v=80
325200 On ch=12 n=72 v=80
325200 On ch=12 n=77 v=80
325200 On ch=12 n=66 v=80
325200 On ch=12 n=68 v=80
325200 On ch=12 n=63 v=80
325200 On ch=12 n=60 v=80
325278 Off ch=12 n=69 v=64
325278 Off ch=12 n=75 v=64
325278 Off ch=12 n=72 v=64
325278 Off ch=12 n=77 v=64
325284 Off ch=12 n=66 v=64
325284 Off ch=12 n=68 v=64
325284 Off ch=12 n=63 v=64
325284 Off ch=12 n=60 v=64
325320 On ch=12 n=72 v=87
325320 On ch=12 n=75 v=87
325320 On ch=12 n=69 v=87
325320 On ch=12 n=77 v=87
325320 On ch=12 n=66 v=87
325320 On ch=12 n=68 v=87
325320 On ch=12 n=60 v=87
325320 On ch=12 n=63 v=87
325398 Off ch=12 n=72 v=64
325398 Off ch=12 n=75 v=64
325398 Off ch=12 n=69 v=64
325398 Off ch=12 n=77 v=64
325404 Off ch=12 n=66 v=64
325404 Off ch=12 n=68 v=64
325404 Off ch=12 n=60 v=64
325404 Off ch=12 n=63 v=64
325440 On ch=12 n=72 v=59
325440 On ch=12 n=75 v=59
325440 On ch=12 n=78 v=59
325440 On ch=12 n=80 v=59
325440 On ch=12 n=65 v=59
325440 On ch=12 n=63 v=59
325440 On ch=12 n=57 v=59
325440 On ch=12 n=60 v=59
325518 Off ch=12 n=72 v=64
325518 Off ch=12 n=75 v=64
325518 Off ch=12 n=78 v=64
325518 Off ch=12 n=80 v=64
325524 Off ch=12 n=65 v=64
325524 Off ch=12 n=63 v=64
325524 Off ch=12 n=57 v=64
325524 Off ch=12 n=60 v=64
325560 On ch=12 n=75 v=58
325560 On ch=12 n=72 v=58
325560 On ch=12 n=78 v=58
325560 On ch=12 n=80 v=58
325560 On ch=12 n=65 v=58
325560 On ch=12 n=63 v=58
325560 On ch=12 n=57 v=58
325560 On ch=12 n=60 v=58
325638 Off ch=12 n=75 v=64
325638 Off ch=12 n=72 v=64
325638 Off ch=12 n=78 v=64
325638 Off ch=12 n=80 v=64
325644 Off ch=12 n=65 v=64
325644 Off ch=12 n=63 v=64
325644 Off ch=12 n=57 v=64
325644 Off ch=12 n=60 v=64
325680 On ch=12 n=72 v=57
325680 On ch=12 n=75 v=57
325680 On ch=12 n=78 v=57
325680 On ch=12 n=80 v=57
325680 On ch=12 n=65 v=57
325680 On ch=12 n=63 v=57
325680 On ch=12 n=57 v=57
325680 On ch=12 n=60 v=57
325758 Off ch=12 n=72 v=64
325758 Off ch=12 n=75 v=64
325758 Off ch=12 n=78 v=64
325758 Off ch=12 n=80 v=64
325764 Off ch=12 n=65 v=64
325764 Off ch=12 n=63 v=64
325764 Off ch=12 n=57 v=64
325764 Off ch=12 n=60 v=64
325800 On ch=12 n=75 v=56
325800 On ch=12 n=72 v=56
325800 On ch=12 n=78 v=56
325800 On ch=12 n=80 v=56
325800 On ch=12 n=65 v=56
325800 On ch=12 n=63 v=56
325800 On ch=12 n=57 v=56
325800 On ch=12 n=60 v=56
325878 Off ch=12 n=75 v=64
325878 Off ch=12 n=72 v=64
325878 Off ch=12 n=78 v=64
325878 Off ch=12 n=80 v=64
325884 Off ch=12 n=65 v=64
325884 Off ch=12 n=63 v=64
325884 Off ch=12 n=57 v=64
325884 Off ch=12 n=60 v=64
325920 On ch=12 n=72 v=55
325920 On ch=12 n=75 v=55
325920 On ch=12 n=78 v=55
325920 On ch=12 n=80 v=55
325920 On ch=12 n=65 v=55
325920 On ch=12 n=63 v=55
325920 On ch=12 n=57 v=55
325920 On ch=12 n=60 v=55
325998 Off ch=12 n=72 v=64
325998 Off ch=12 n=75 v=64
325998 Off ch=12 n=78 v=64
325998 Off ch=12 n=80 v=64
326004 Off ch=12 n=65 v=64
326004 Off ch=12 n=63 v=64
326004 Off ch=12 n=57 v=64
326004 Off ch=12 n=60 v=64
326040 On ch=12 n=75 v=54
326040 On ch=12 n=72 v=54
326040 On ch=12 n=78 v=54
326040 On ch=12 n=80 v=54
326040 On ch=12 n=65 v=54
326040 On ch=12 n=63 v=54
326040 On ch=12 n=57 v=54
326040 On ch=12 n=60 v=54
326118 Off ch=12 n=75 v=64
326118 Off ch=12 n=72 v=64
326118 Off ch=12 n=78 v=64
326118 Off ch=12 n=80 v=64
326124 Off ch=12 n=65 v=64
326124 Off ch=12 n=63 v=64
326124 Off ch=12 n=57 v=64
326124 Off ch=12 n=60 v=64
326160 On ch=12 n=77 v=58
326160 On ch=12 n=72 v=58
326160 On ch=12 n=75 v=58
326160 On ch=12 n=69 v=58
326160 On ch=12 n=66 v=58
326160 On ch=12 n=62 v=58
326160 On ch=12 n=57 v=58
326160 On ch=12 n=60 v=58
326238 Off ch=12 n=77 v=64
326238 Off ch=12 n=72 v=64
326238 Off ch=12 n=75 v=64
326238 Off ch=12 n=69 v=64
326244 Off ch=12 n=66 v=64
326244 Off ch=12 n=62 v=64
326244 Off ch=12 n=57 v=64
326244 Off ch=12 n=60 v=64
326280 On ch=12 n=69 v=64
326280 On ch=12 n=77 v=64
326280 On ch=12 n=75 v=64
326280 On ch=12 n=72 v=64
326280 On ch=12 n=66 v=64
326280 On ch=12 n=62 v=64
326280 On ch=12 n=57 v=64
326280 On ch=12 n=60 v=64
326358 Off ch=12 n=69 v=64
326358 Off ch=12 n=77 v=64
326358 Off ch=12 n=75 v=64
326358 Off ch=12 n=72 v=64
326364 Off ch=12 n=66 v=64
326364 Off ch=12 n=62 v=64
326364 Off ch=12 n=57 v=64
326364 Off ch=12 n=60 v=64
326400 On ch=12 n=75 v=71
326400 On ch=12 n=69 v=71
326400 On ch=12 n=77 v=71
326400 On ch=12 n=72 v=71
326400 On ch=12 n=66 v=71
326400 On ch=12 n=57 v=71
326400 On ch=12 n=62 v=71
326400 On ch=12 n=60 v=71
326478 Off ch=12 n=75 v=64
326478 Off ch=12 n=69 v=64
326478 Off ch=12 n=77 v=64
326478 Off ch=12 n=72 v=64
326484 Off ch=12 n=66 v=64
326484 Off ch=12 n=57 v=64
326484 Off ch=12 n=62 v=64
326484 Off ch=12 n=60 v=64
326520 On ch=12 n=75 v=78
326520 On ch=12 n=69 v=78
326520 On ch=12 n=72 v=78
326520 On ch=12 n=77 v=78
326520 On ch=12 n=66 v=78
326520 On ch=12 n=57 v=78
326520 On ch=12 n=60 v=78
326520 On ch=12 n=62 v=78
326598 Off ch=12 n=75 v=64
326598 Off ch=12 n=69 v=64
326598 Off ch=12 n=72 v=64
326598 Off ch=12 n=77 v=64
326604 Off ch=12 n=66 v=64
326604 Off ch=12 n=57 v=64
326604 Off ch=12 n=60 v=64
326604 Off ch=12 n=62 v=64
326640 On ch=12 n=75 v=84
326640 On ch=12 n=69 v=84
326640 On ch=12 n=77 v=84
326640 On ch=12 n=72 v=84
326640 On ch=12 n=66 v=84
326640 On ch=12 n=57 v=84
326640 On ch=12 n=60 v=84
326640 On ch=12 n=62 v=84
326718 Off ch=12 n=75 v=64
326718 Off ch=12 n=69 v=64
326718 Off ch=12 n=77 v=64
326718 Off ch=12 n=72 v=64
326724 Off ch=12 n=66 v=64
326724 Off ch=12 n=57 v=64
326724 Off ch=12 n=60 v=64
326724 Off ch=12 n=62 v=64
326760 On ch=12 n=69 v=91
326760 On ch=12 n=75 v=91
326760 On ch=12 n=72 v=91
326760 On ch=12 n=77 v=91
326760 On ch=12 n=66 v=91
326760 On ch=12 n=57 v=91
326760 On ch=12 n=62 v=91
326760 On ch=12 n=60 v=91
326838 Off ch=12 n=69 v=64
326838 Off ch=12 n=75 v=64
326838 Off ch=12 n=72 v=64
326838 Off ch=12 n=77 v=64
326844 Off ch=12 n=66 v=64
326844 Off ch=12 n=57 v=64
326844 Off ch=12 n=62 v=64
326844 Off ch=12 n=60 v=64
326880 On ch=12 n=84 v=75
326880 On ch=12 n=75 v=75
326880 On ch=12 n=80 v=75
326880 On ch=12 n=78 v=75
326880 On ch=12 n=63 v=75
326880 On ch=12 n=60 v=75
326880 On ch=12 n=57 v=75
326880 On ch=12 n=53 v=75
326958 Off ch=12 n=84 v=64
326958 Off ch=12 n=75 v=64
326958 Off ch=12 n=80 v=64
326958 Off ch=12 n=78 v=64
326964 Off ch=12 n=63 v=64
326964 Off ch=12 n=60 v=64
326964 Off ch=12 n=57 v=64
326964 Off ch=12 n=53 v=64
327000 On ch=12 n=84 v=79
327000 On ch=12 n=75 v=79
327000 On ch=12 n=78 v=79
327000 On ch=12 n=80 v=79
327000 On ch=12 n=63 v=79
327000 On ch=12 n=60 v=79
327000 On ch=12 n=53 v=79
327000 On ch=12 n=57 v=79
327078 Off ch=12 n=84 v=64
327078 Off ch=12 n=75 v=64
327078 Off ch=12 n=78 v=64
327078 Off ch=12 n=80 v=64
327084 Off ch=12 n=63 v=64
327084 Off ch=12 n=60 v=64
327084 Off ch=12 n=53 v=64
327084 Off ch=12 n=57 v=64
327120 On ch=12 n=84 v=83
327120 On ch=12 n=75 v=83
327120 On ch=12 n=78 v=83
327120 On ch=12 n=80 v=83
327120 On ch=12 n=63 v=83
327120 On ch=12 n=53 v=83
327120 On ch=12 n=60 v=83
327120 On ch=12 n=57 v=83
327198 Off ch=12 n=84 v=64
327198 Off ch=12 n=75 v=64
327198 Off ch=12 n=78 v=64
327198 Off ch=12 n=80 v=64
327204 Off ch=12 n=63 v=64
327204 Off ch=12 n=53 v=64
327204 Off ch=12 n=60 v=64
327204 Off ch=12 n=57 v=64
327240 On ch=12 n=84 v=87
327240 On ch=12 n=75 v=87
327240 On ch=12 n=80 v=87
327240 On ch=12 n=78 v=87
327240 On ch=12 n=63 v=87
327240 On ch=12 n=53 v=87
327240 On ch=12 n=60 v=87
327240 On ch=12 n=57 v=87
327318 Off ch=12 n=84 v=64
327318 Off ch=12 n=75 v=64
327318 Off ch=12 n=80 v=64
327324 Off ch=12 n=63 v=64
327324 Off ch=12 n=53 v=64
327324 Off ch=12 n=60 v=64
327324 Off ch=12 n=57 v=64
327360 On ch=12 n=84 v=73
327360 On ch=12 n=80 v=73
327360 On ch=12 n=63 v=73
327360 On ch=12 n=53 v=73
327360 On ch=12 n=60 v=73
327360 On ch=12 n=57 v=73
327368 Off ch=12 n=78 v=64
327380 Off ch=12 n=84 v=64
327380 On ch=12 n=85 v=75
327380 On ch=12 n=82 v=75
327400 Off ch=12 n=85 v=64
327400 Off ch=12 n=82 v=64
327400 On ch=12 n=84 v=78
327400 On ch=12 n=86 v=78
327420 Off ch=12 n=84 v=64
327420 Off ch=12 n=86 v=64
327420 On ch=12 n=86 v=81
327420 On ch=12 n=87 v=81
327440 Off ch=12 n=86 v=64
327440 Off ch=12 n=87 v=64
327440 On ch=12 n=88 v=83
327444 Off ch=12 n=63 v=64
327444 Off ch=12 n=53 v=64
327444 Off ch=12 n=60 v=64
327444 Off ch=12 n=57 v=64
327460 Off ch=12 n=88 v=64
327460 On ch=12 n=89 v=86
327480 Off ch=12 n=89 v=64
327480 On ch=12 n=90 v=89
327480 On ch=12 n=63 v=89
327480 On ch=12 n=60 v=89
327480 On ch=12 n=53 v=89
327480 On ch=12 n=57 v=89
327480 On ch=12 n=82 v=89
327490 Off ch=12 n=80 v=64
327500 Off ch=12 n=90 v=64
327500 On ch=12 n=91 v=92
327520 Off ch=12 n=91 v=64
327520 On ch=12 n=92 v=94
327540 Off ch=12 n=92 v=64
327540 On ch=12 n=93 v=97
327560 Off ch=12 n=93 v=64
327560 On ch=12 n=94 v=100
327564 Off ch=12 n=63 v=64
327564 Off ch=12 n=60 v=64
327564 Off ch=12 n=53 v=64
327564 Off ch=12 n=57 v=64
327580 Off ch=12 n=94 v=64
327580 On ch=12 n=95 v=102
327600 Off ch=12 n=95 v=64
327600 On ch=12 n=96 v=105
327600 On ch=12 n=84 v=105
327600 On ch=12 n=73 v=105
327600 On ch=12 n=80 v=105
327603 Off ch=12 n=82 v=64
327684 Off ch=12 n=96 v=64
327684 Off ch=12 n=84 v=64
327684 Off ch=12 n=73 v=64
327684 Off ch=12 n=80 v=64
327720 On ch=12 n=96 v=84
327720 On ch=12 n=84 v=84
327720 On ch=12 n=73 v=84
327720 On ch=12 n=80 v=84
327804 Off ch=12 n=96 v=64
327804 Off ch=12 n=84 v=64
327804 Off ch=12 n=73 v=64
327804 Off ch=12 n=80 v=64
327840 On ch=12 n=96 v=84
327840 On ch=12 n=84 v=84
327840 On ch=12 n=73 v=84
327840 On ch=12 n=80 v=84
327924 Off ch=12 n=96 v=64
327924 Off ch=12 n=84 v=64
327924 Off ch=12 n=73 v=64
327924 Off ch=12 n=80 v=64
327960 On ch=12 n=96 v=84
327960 On ch=12 n=84 v=84
327960 On ch=12 n=73 v=84
327960 On ch=12 n=80 v=84
328044 Off ch=12 n=96 v=64
328044 Off ch=12 n=84 v=64
328044 Off ch=12 n=73 v=64
328044 Off ch=12 n=80 v=64
328080 On ch=12 n=96 v=84
328080 On ch=12 n=84 v=84
328080 On ch=12 n=73 v=84
328080 On ch=12 n=80 v=84
328164 Off ch=12 n=96 v=64
328164 Off ch=12 n=84 v=64
328164 Off ch=12 n=73 v=64
328164 Off ch=12 n=80 v=64
328200 On ch=12 n=96 v=84
328200 On ch=12 n=84 v=84
328200 On ch=12 n=73 v=84
328200 On ch=12 n=80 v=84
328284 Off ch=12 n=96 v=64
328284 Off ch=12 n=84 v=64
328284 Off ch=12 n=73 v=64
328284 Off ch=12 n=80 v=64
328320 On ch=12 n=93 v=102
328320 On ch=12 n=81 v=102
328320 On ch=12 n=70 v=102
328320 On ch=12 n=77 v=102
328404 Off ch=12 n=93 v=64
328404 Off ch=12 n=81 v=64
328404 Off ch=12 n=70 v=64
328404 Off ch=12 n=77 v=64
328440 On ch=12 n=93 v=86
328440 On ch=12 n=81 v=86
328440 On ch=12 n=70 v=86
328440 On ch=12 n=77 v=86
328524 Off ch=12 n=93 v=64
328524 Off ch=12 n=81 v=64
328524 Off ch=12 n=70 v=64
328524 Off ch=12 n=77 v=64
328560 On ch=12 n=93 v=86
328560 On ch=12 n=81 v=86
328560 On ch=12 n=70 v=86
328560 On ch=12 n=77 v=86
328644 Off ch=12 n=93 v=64
328644 Off ch=12 n=81 v=64
328644 Off ch=12 n=70 v=64
328644 Off ch=12 n=77 v=64
328680 On ch=12 n=93 v=86
328680 On ch=12 n=81 v=86
328680 On ch=12 n=70 v=86
328680 On ch=12 n=77 v=86
328764 Off ch=12 n=93 v=64
328764 Off ch=12 n=81 v=64
328764 Off ch=12 n=70 v=64
328764 Off ch=12 n=77 v=64
328800 On ch=12 n=93 v=86
328800 On ch=12 n=81 v=86
328800 On ch=12 n=70 v=86
328800 On ch=12 n=77 v=86
328884 Off ch=12 n=93 v=64
328884 Off ch=12 n=81 v=64
328884 Off ch=12 n=70 v=64
328884 Off ch=12 n=77 v=64
328920 On ch=12 n=93 v=86
328920 On ch=12 n=81 v=86
328920 On ch=12 n=70 v=86
328920 On ch=12 n=77 v=86
329004 Off ch=12 n=93 v=64
329004 Off ch=12 n=81 v=64
329004 Off ch=12 n=70 v=64
329004 Off ch=12 n=77 v=64
329040 On ch=12 n=90 v=100
329040 On ch=12 n=78 v=100
329040 On ch=12 n=67 v=100
329040 On ch=12 n=74 v=100
329124 Off ch=12 n=90 v=64
329124 Off ch=12 n=78 v=64
329124 Off ch=12 n=67 v=64
329124 Off ch=12 n=74 v=64
329160 On ch=12 n=90 v=86
329160 On ch=12 n=78 v=86
329160 On ch=12 n=67 v=86
329160 On ch=12 n=74 v=86
329244 Off ch=12 n=90 v=64
329244 Off ch=12 n=78 v=64
329244 Off ch=12 n=67 v=64
329244 Off ch=12 n=74 v=64
329280 On ch=12 n=90 v=86
329280 On ch=12 n=78 v=86
329280 On ch=12 n=67 v=86
329280 On ch=12 n=74 v=86
329364 Off ch=12 n=90 v=64
329364 Off ch=12 n=78 v=64
329364 Off ch=12 n=67 v=64
329364 Off ch=12 n=74 v=64
329400 On ch=12 n=90 v=86
329400 On ch=12 n=78 v=86
329400 On ch=12 n=67 v=86
329400 On ch=12 n=74 v=86
329484 Off ch=12 n=90 v=64
329484 Off ch=12 n=78 v=64
329484 Off ch=12 n=67 v=64
329484 Off ch=12 n=74 v=64
329520 On ch=12 n=90 v=86
329520 On ch=12 n=78 v=86
329520 On ch=12 n=67 v=86
329520 On ch=12 n=74 v=86
329604 Off ch=12 n=90 v=64
329604 Off ch=12 n=78 v=64
329604 Off ch=12 n=67 v=64
329604 Off ch=12 n=74 v=64
329640 On ch=12 n=90 v=86
329640 On ch=12 n=78 v=86
329640 On ch=12 n=67 v=86
329640 On ch=12 n=74 v=86
329724 Off ch=12 n=90 v=64
329724 Off ch=12 n=78 v=64
329724 Off ch=12 n=67 v=64
329724 Off ch=12 n=74 v=64
329760 On ch=12 n=87 v=102
329760 On ch=12 n=75 v=102
329760 On ch=12 n=86 v=102
329760 On ch=12 n=64 v=102
329760 On ch=12 n=71 v=102
329844 Off ch=12 n=87 v=64
329844 Off ch=12 n=75 v=64
329844 Off ch=12 n=86 v=64
329844 Off ch=12 n=64 v=64
329844 Off ch=12 n=71 v=64
329880 On ch=12 n=87 v=90
329880 On ch=12 n=75 v=90
329880 On ch=12 n=86 v=90
329880 On ch=12 n=64 v=90
329880 On ch=12 n=71 v=90
329964 Off ch=12 n=87 v=64
329964 Off ch=12 n=75 v=64
329964 Off ch=12 n=86 v=64
329964 Off ch=12 n=64 v=64
329964 Off ch=12 n=71 v=64
330000 On ch=12 n=87 v=90
330000 On ch=12 n=75 v=90
330000 On ch=12 n=86 v=90
330000 On ch=12 n=64 v=90
330000 On ch=12 n=71 v=90
330084 Off ch=12 n=87 v=64
330084 Off ch=12 n=75 v=64
330084 Off ch=12 n=86 v=64
330084 Off ch=12 n=64 v=64
330084 Off ch=12 n=71 v=64
330120 On ch=12 n=87 v=90
330120 On ch=12 n=75 v=90
330120 On ch=12 n=86 v=90
330120 On ch=12 n=64 v=90
330120 On ch=12 n=71 v=90
330204 Off ch=12 n=87 v=64
330204 Off ch=12 n=75 v=64
330204 Off ch=12 n=86 v=64
330204 Off ch=12 n=64 v=64
330204 Off ch=12 n=71 v=64
330240 On ch=12 n=87 v=90
330240 On ch=12 n=75 v=90
330240 On ch=12 n=86 v=90
330240 On ch=12 n=64 v=90
330240 On ch=12 n=71 v=90
330324 Off ch=12 n=87 v=64
330324 Off ch=12 n=75 v=64
330324 Off ch=12 n=86 v=64
330324 Off ch=12 n=64 v=64
330324 Off ch=12 n=71 v=64
330360 On ch=12 n=87 v=90
330360 On ch=12 n=75 v=90
330360 On ch=12 n=86 v=90
330360 On ch=12 n=64 v=90
330360 On ch=12 n=71 v=90
330444 Off ch=12 n=87 v=64
330444 Off ch=12 n=75 v=64
330444 Off ch=12 n=86 v=64
330444 Off ch=12 n=64 v=64
330444 Off ch=12 n=71 v=64
330480 On ch=12 n=93 v=102
330480 On ch=12 n=81 v=102
330480 On ch=12 n=89 v=102
330480 On ch=12 n=77 v=102
330480 On ch=12 n=70 v=102
330564 Off ch=12 n=93 v=64
330564 Off ch=12 n=81 v=64
330564 Off ch=12 n=89 v=64
330564 Off ch=12 n=77 v=64
330564 Off ch=12 n=70 v=64
330600 On ch=12 n=93 v=90
330600 On ch=12 n=89 v=90
330600 On ch=12 n=81 v=90
330600 On ch=12 n=77 v=90
330600 On ch=12 n=70 v=90
330684 Off ch=12 n=93 v=64
330684 Off ch=12 n=89 v=64
330684 Off ch=12 n=81 v=64
330684 Off ch=12 n=77 v=64
330684 Off ch=12 n=70 v=64
330720 On ch=12 n=93 v=90
330720 On ch=12 n=89 v=90
330720 On ch=12 n=81 v=90
330720 On ch=12 n=77 v=90
330720 On ch=12 n=70 v=90
330804 Off ch=12 n=93 v=64
330804 Off ch=12 n=89 v=64
330804 Off ch=12 n=81 v=64
330804 Off ch=12 n=77 v=64
330804 Off ch=12 n=70 v=64
330840 On ch=12 n=93 v=90
330840 On ch=12 n=89 v=90
330840 On ch=12 n=81 v=90
330840 On ch=12 n=77 v=90
330840 On ch=12 n=70 v=90
330924 Off ch=12 n=93 v=64
330924 Off ch=12 n=89 v=64
330924 Off ch=12 n=81 v=64
330924 Off ch=12 n=77 v=64
330924 Off ch=12 n=70 v=64
330960 On ch=12 n=93 v=90
330960 On ch=12 n=89 v=90
330960 On ch=12 n=81 v=90
330960 On ch=12 n=77 v=90
330960 On ch=12 n=70 v=90
331044 Off ch=12 n=93 v=64
331044 Off ch=12 n=89 v=64
331044 Off ch=12 n=81 v=64
331044 Off ch=12 n=77 v=64
331044 Off ch=12 n=70 v=64
331080 On ch=12 n=93 v=90
331080 On ch=12 n=81 v=90
331080 On ch=12 n=89 v=90
331080 On ch=12 n=77 v=90
331080 On ch=12 n=70 v=90
331164 Off ch=12 n=93 v=64
331164 Off ch=12 n=81 v=64
331164 Off ch=12 n=89 v=64
331164 Off ch=12 n=77 v=64
331164 Off ch=12 n=70 v=64
331200 On ch=12 n=86 v=100
331200 On ch=12 n=74 v=100
331200 On ch=12 n=90 v=100
331200 On ch=12 n=78 v=100
331200 On ch=12 n=67 v=100
331284 Off ch=12 n=86 v=64
331284 Off ch=12 n=74 v=64
331284 Off ch=12 n=90 v=64
331284 Off ch=12 n=78 v=64
331284 Off ch=12 n=67 v=64
331320 On ch=12 n=86 v=90
331320 On ch=12 n=90 v=90
331320 On ch=12 n=74 v=90
331320 On ch=12 n=78 v=90
331320 On ch=12 n=67 v=90
331404 Off ch=12 n=86 v=64
331404 Off ch=12 n=90 v=64
331404 Off ch=12 n=74 v=64
331404 Off ch=12 n=78 v=64
331404 Off ch=12 n=67 v=64
331440 On ch=12 n=86 v=90
331440 On ch=12 n=90 v=90
331440 On ch=12 n=74 v=90
331440 On ch=12 n=78 v=90
331440 On ch=12 n=67 v=90
331524 Off ch=12 n=86 v=64
331524 Off ch=12 n=90 v=64
331524 Off ch=12 n=74 v=64
331524 Off ch=12 n=78 v=64
331524 Off ch=12 n=67 v=64
331560 On ch=12 n=86 v=90
331560 On ch=12 n=90 v=90
331560 On ch=12 n=74 v=90
331560 On ch=12 n=78 v=90
331560 On ch=12 n=67 v=90
331644 Off ch=12 n=86 v=64
331644 Off ch=12 n=90 v=64
331644 Off ch=12 n=74 v=64
331644 Off ch=12 n=78 v=64
331644 Off ch=12 n=67 v=64
331680 On ch=12 n=86 v=90
331680 On ch=12 n=90 v=90
331680 On ch=12 n=74 v=90
331680 On ch=12 n=78 v=90
331680 On ch=12 n=67 v=90
331764 Off ch=12 n=86 v=64
331764 Off ch=12 n=90 v=64
331764 Off ch=12 n=74 v=64
331764 Off ch=12 n=78 v=64
331764 Off ch=12 n=67 v=64
331800 On ch=12 n=86 v=90
331800 On ch=12 n=74 v=90
331800 On ch=12 n=90 v=90
331800 On ch=12 n=78 v=90
331800 On ch=12 n=67 v=90
331884 Off ch=12 n=86 v=64
331884 Off ch=12 n=74 v=64
331884 Off ch=12 n=90 v=64
331884 Off ch=12 n=78 v=64
331884 Off ch=12 n=67 v=64
331920 On ch=12 n=87 v=100
331920 On ch=12 n=75 v=100
331920 On ch=12 n=83 v=100
331920 On ch=12 n=71 v=100
331920 On ch=12 n=64 v=100
332004 Off ch=12 n=87 v=64
332004 Off ch=12 n=75 v=64
332004 Off ch=12 n=83 v=64
332004 Off ch=12 n=71 v=64
332004 Off ch=12 n=64 v=64
332040 On ch=12 n=87 v=88
332040 On ch=12 n=83 v=88
332040 On ch=12 n=75 v=88
332040 On ch=12 n=71 v=88
332040 On ch=12 n=64 v=88
332124 Off ch=12 n=87 v=64
332124 Off ch=12 n=83 v=64
332124 Off ch=12 n=75 v=64
332124 Off ch=12 n=71 v=64
332124 Off ch=12 n=64 v=64
332160 On ch=12 n=87 v=88
332160 On ch=12 n=83 v=88
332160 On ch=12 n=75 v=88
332160 On ch=12 n=71 v=88
332160 On ch=12 n=64 v=88
332244 Off ch=12 n=87 v=64
332244 Off ch=12 n=83 v=64
332244 Off ch=12 n=75 v=64
332244 Off ch=12 n=71 v=64
332244 Off ch=12 n=64 v=64
332280 On ch=12 n=87 v=88
332280 On ch=12 n=83 v=88
332280 On ch=12 n=75 v=88
332280 On ch=12 n=71 v=88
332280 On ch=12 n=64 v=88
332364 Off ch=12 n=87 v=64
332364 Off ch=12 n=83 v=64
332364 Off ch=12 n=75 v=64
332364 Off ch=12 n=71 v=64
332364 Off ch=12 n=64 v=64
332400 On ch=12 n=87 v=88
332400 On ch=12 n=75 v=88
332400 On ch=12 n=83 v=88
332400 On ch=12 n=71 v=88
332400 On ch=12 n=64 v=88
332484 Off ch=12 n=87 v=64
332484 Off ch=12 n=75 v=64
332484 Off ch=12 n=83 v=64
332484 Off ch=12 n=71 v=64
332484 Off ch=12 n=64 v=64
332520 On ch=12 n=87 v=88
332520 On ch=12 n=75 v=88
332520 On ch=12 n=83 v=88
332520 On ch=12 n=71 v=88
332520 On ch=12 n=64 v=88
332604 Off ch=12 n=87 v=64
332604 Off ch=12 n=75 v=64
332604 Off ch=12 n=83 v=64
332604 Off ch=12 n=71 v=64
332604 Off ch=12 n=64 v=64
332640 On ch=12 n=80 v=100
332640 On ch=12 n=68 v=100
332640 On ch=12 n=84 v=100
332640 On ch=12 n=72 v=100
332640 On ch=12 n=61 v=100
332724 Off ch=12 n=80 v=64
332724 Off ch=12 n=68 v=64
332724 Off ch=12 n=84 v=64
332724 Off ch=12 n=72 v=64
332724 Off ch=12 n=61 v=64
332760 On ch=12 n=80 v=88
332760 On ch=12 n=84 v=88
332760 On ch=12 n=68 v=88
332760 On ch=12 n=72 v=88
332760 On ch=12 n=61 v=88
332844 Off ch=12 n=80 v=64
332844 Off ch=12 n=84 v=64
332844 Off ch=12 n=68 v=64
332844 Off ch=12 n=72 v=64
332844 Off ch=12 n=61 v=64
332880 On ch=12 n=80 v=88
332880 On ch=12 n=84 v=88
332880 On ch=12 n=68 v=88
332880 On ch=12 n=72 v=88
332880 On ch=12 n=61 v=88
332964 Off ch=12 n=80 v=64
332964 Off ch=12 n=84 v=64
332964 Off ch=12 n=68 v=64
332964 Off ch=12 n=72 v=64
332964 Off ch=12 n=61 v=64
333000 On ch=12 n=80 v=88
333000 On ch=12 n=68 v=88
333000 On ch=12 n=84 v=88
333000 On ch=12 n=72 v=88
333000 On ch=12 n=61 v=88
333084 Off ch=12 n=80 v=64
333084 Off ch=12 n=68 v=64
333084 Off ch=12 n=84 v=64
333084 Off ch=12 n=72 v=64
333084 Off ch=12 n=61 v=64
333120 On ch=12 n=80 v=88
333120 On ch=12 n=68 v=88
333120 On ch=12 n=84 v=88
333120 On ch=12 n=72 v=88
333120 On ch=12 n=61 v=88
333204 Off ch=12 n=80 v=64
333204 Off ch=12 n=68 v=64
333204 Off ch=12 n=84 v=64
333204 Off ch=12 n=72 v=64
333204 Off ch=12 n=61 v=64
333240 On ch=12 n=80 v=88
333240 On ch=12 n=68 v=88
333240 On ch=12 n=84 v=88
333240 On ch=12 n=72 v=88
333240 On ch=12 n=61 v=88
333324 Off ch=12 n=80 v=64
333324 Off ch=12 n=68 v=64
333324 Off ch=12 n=84 v=64
333324 Off ch=12 n=72 v=64
333324 Off ch=12 n=61 v=64
333360 On ch=12 n=81 v=104
333360 On ch=12 n=77 v=104
333360 On ch=12 n=69 v=104
333360 On ch=12 n=65 v=104
333360 On ch=12 n=58 v=104
333444 Off ch=12 n=81 v=64
333444 Off ch=12 n=77 v=64
333444 Off ch=12 n=69 v=64
333444 Off ch=12 n=65 v=64
333444 Off ch=12 n=58 v=64
333480 On ch=12 n=81 v=88
333480 On ch=12 n=69 v=88
333480 On ch=12 n=77 v=88
333480 On ch=12 n=65 v=88
333480 On ch=12 n=58 v=88
333564 Off ch=12 n=81 v=64
333564 Off ch=12 n=69 v=64
333564 Off ch=12 n=77 v=64
333564 Off ch=12 n=65 v=64
333564 Off ch=12 n=58 v=64
333600 On ch=12 n=81 v=88
333600 On ch=12 n=69 v=88
333600 On ch=12 n=77 v=88
333600 On ch=12 n=65 v=88
333600 On ch=12 n=58 v=88
333684 Off ch=12 n=81 v=64
333684 Off ch=12 n=69 v=64
333684 Off ch=12 n=77 v=64
333684 Off ch=12 n=65 v=64
333684 Off ch=12 n=58 v=64
333720 On ch=12 n=81 v=88
333720 On ch=12 n=69 v=88
333720 On ch=12 n=77 v=88
333720 On ch=12 n=65 v=88
333720 On ch=12 n=58 v=88
333804 Off ch=12 n=81 v=64
333804 Off ch=12 n=69 v=64
333804 Off ch=12 n=77 v=64
333804 Off ch=12 n=65 v=64
333804 Off ch=12 n=58 v=64
333840 On ch=12 n=81 v=88
333840 On ch=12 n=69 v=88
333840 On ch=12 n=77 v=88
333840 On ch=12 n=65 v=88
333840 On ch=12 n=58 v=88
333924 Off ch=12 n=81 v=64
333924 Off ch=12 n=69 v=64
333924 Off ch=12 n=77 v=64
333924 Off ch=12 n=65 v=64
333924 Off ch=12 n=58 v=64
333960 On ch=12 n=81 v=88
333960 On ch=12 n=77 v=88
333960 On ch=12 n=69 v=88
333960 On ch=12 n=65 v=88
333960 On ch=12 n=58 v=88
334044 Off ch=12 n=81 v=64
334044 Off ch=12 n=77 v=64
334044 Off ch=12 n=69 v=64
334044 Off ch=12 n=65 v=64
334044 Off ch=12 n=58 v=64
343200 On ch=12 n=56 v=50
343200 On ch=12 n=60 v=50
343302 Off ch=12 n=56 v=64
343302 Off ch=12 n=60 v=64
343320 On ch=12 n=56 v=55
343320 On ch=12 n=60 v=55
343422 Off ch=12 n=56 v=64
343422 Off ch=12 n=60 v=64
343440 On ch=12 n=65 v=59
343440 On ch=12 n=57 v=59
343440 On ch=12 n=60 v=59
343542 Off ch=12 n=65 v=64
343542 Off ch=12 n=57 v=64
343542 Off ch=12 n=60 v=64
343560 On ch=12 n=65 v=64
343560 On ch=12 n=60 v=64
343560 On ch=12 n=57 v=64
343662 Off ch=12 n=65 v=64
343662 Off ch=12 n=60 v=64
343662 Off ch=12 n=57 v=64
343680 On ch=12 n=58 v=69
343680 On ch=12 n=67 v=69
343680 On ch=12 n=60 v=69
343782 Off ch=12 n=58 v=64
343782 Off ch=12 n=67 v=64
343782 Off ch=12 n=60 v=64
343800 On ch=12 n=58 v=74
343800 On ch=12 n=67 v=74
343800 On ch=12 n=60 v=74
343902 Off ch=12 n=58 v=64
343902 Off ch=12 n=67 v=64
343902 Off ch=12 n=60 v=64
343920 On ch=12 n=72 v=79
343920 On ch=12 n=61 v=79
343920 On ch=12 n=60 v=79
344022 Off ch=12 n=72 v=64
344022 Off ch=12 n=61 v=64
344022 Off ch=12 n=60 v=64
344040 On ch=12 n=61 v=73
344040 On ch=12 n=72 v=73
344040 On ch=12 n=60 v=73
344142 Off ch=12 n=61 v=64
344142 Off ch=12 n=72 v=64
344142 Off ch=12 n=60 v=64
344160 On ch=12 n=60 v=65
344160 On ch=12 n=70 v=65
344262 Off ch=12 n=60 v=64
344262 Off ch=12 n=70 v=64
344280 On ch=12 n=60 v=58
344280 On ch=12 n=70 v=58
344382 Off ch=12 n=60 v=64
344382 Off ch=12 n=70 v=64
344400 On ch=12 n=67 v=50
344400 On ch=12 n=58 v=50
344400 On ch=12 n=60 v=50
344502 Off ch=12 n=67 v=64
344502 Off ch=12 n=58 v=64
344502 Off ch=12 n=60 v=64
344520 On ch=12 n=67 v=42
344520 On ch=12 n=58 v=42
344520 On ch=12 n=60 v=42
344622 Off ch=12 n=67 v=64
344622 Off ch=12 n=58 v=64
344622 Off ch=12 n=60 v=64
344640 On ch=12 n=56 v=52
344640 On ch=12 n=60 v=52
344742 Off ch=12 n=56 v=64
344742 Off ch=12 n=60 v=64
344760 On ch=12 n=56 v=62
344760 On ch=12 n=60 v=62
344862 Off ch=12 n=56 v=64
344862 Off ch=12 n=60 v=64
344880 On ch=12 n=65 v=72
344880 On ch=12 n=57 v=72
344880 On ch=12 n=60 v=72
344982 Off ch=12 n=65 v=64
344982 Off ch=12 n=57 v=64
344982 Off ch=12 n=60 v=64
345000 On ch=12 n=65 v=83
345000 On ch=12 n=60 v=83
345000 On ch=12 n=57 v=83
345102 Off ch=12 n=65 v=64
345102 Off ch=12 n=60 v=64
345102 Off ch=12 n=57 v=64
345120 On ch=12 n=58 v=96
345120 On ch=12 n=67 v=96
345120 On ch=12 n=60 v=96
345222 Off ch=12 n=58 v=64
345222 Off ch=12 n=67 v=64
345222 Off ch=12 n=60 v=64
345240 On ch=12 n=58 v=88
345240 On ch=12 n=67 v=88
345240 On ch=12 n=60 v=88
345342 Off ch=12 n=58 v=64
345342 Off ch=12 n=67 v=64
345342 Off ch=12 n=60 v=64
345360 On ch=12 n=72 v=81
345360 On ch=12 n=61 v=81
345360 On ch=12 n=60 v=81
345462 Off ch=12 n=72 v=64
345462 Off ch=12 n=61 v=64
345462 Off ch=12 n=60 v=64
345480 On ch=12 n=61 v=73
345480 On ch=12 n=72 v=73
345480 On ch=12 n=60 v=73
345582 Off ch=12 n=61 v=64
345582 Off ch=12 n=72 v=64
345582 Off ch=12 n=60 v=64
345600 On ch=12 n=60 v=66
345600 On ch=12 n=70 v=66
345702 Off ch=12 n=60 v=64
345702 Off ch=12 n=70 v=64
345720 On ch=12 n=60 v=58
345720 On ch=12 n=70 v=58
345822 Off ch=12 n=60 v=64
345822 Off ch=12 n=70 v=64
345840 On ch=12 n=67 v=51
345840 On ch=12 n=58 v=51
345840 On ch=12 n=60 v=51
345942 Off ch=12 n=67 v=64
345942 Off ch=12 n=58 v=64
345942 Off ch=12 n=60 v=64
345960 On ch=12 n=67 v=43
345960 On ch=12 n=58 v=43
345960 On ch=12 n=60 v=43
346062 Off ch=12 n=67 v=64
346062 Off ch=12 n=58 v=64
346062 Off ch=12 n=60 v=64
346080 On ch=12 n=56 v=52
346080 On ch=12 n=60 v=52
346182 Off ch=12 n=56 v=64
346182 Off ch=12 n=60 v=64
346200 On ch=12 n=56 v=62
346200 On ch=12 n=60 v=62
346302 Off ch=12 n=56 v=64
346302 Off ch=12 n=60 v=64
346320 On ch=12 n=65 v=72
346320 On ch=12 n=57 v=72
346320 On ch=12 n=60 v=72
346422 Off ch=12 n=65 v=64
346422 Off ch=12 n=57 v=64
346422 Off ch=12 n=60 v=64
346440 On ch=12 n=65 v=83
346440 On ch=12 n=60 v=83
346440 On ch=12 n=57 v=83
346542 Off ch=12 n=65 v=64
346542 Off ch=12 n=60 v=64
346542 Off ch=12 n=57 v=64
346560 On ch=12 n=58 v=96
346560 On ch=12 n=67 v=96
346560 On ch=12 n=60 v=96
346662 Off ch=12 n=58 v=64
346662 Off ch=12 n=67 v=64
346662 Off ch=12 n=60 v=64
346680 On ch=12 n=58 v=88
346680 On ch=12 n=67 v=88
346680 On ch=12 n=60 v=88
346782 Off ch=12 n=58 v=64
346782 Off ch=12 n=67 v=64
346782 Off ch=12 n=60 v=64
346800 On ch=12 n=72 v=81
346800 On ch=12 n=61 v=81
346800 On ch=12 n=60 v=81
346902 Off ch=12 n=72 v=64
346902 Off ch=12 n=61 v=64
346902 Off ch=12 n=60 v=64
346920 On ch=12 n=61 v=73
346920 On ch=12 n=72 v=73
346920 On ch=12 n=60 v=73
347022 Off ch=12 n=61 v=64
347022 Off ch=12 n=72 v=64
347022 Off ch=12 n=60 v=64
347040 On ch=12 n=60 v=66
347040 On ch=12 n=70 v=66
347142 Off ch=12 n=60 v=64
347142 Off ch=12 n=70 v=64
347160 On ch=12 n=60 v=58
347160 On ch=12 n=70 v=58
347262 Off ch=12 n=60 v=64
347262 Off ch=12 n=70 v=64
347280 On ch=12 n=67 v=51
347280 On ch=12 n=58 v=51
347280 On ch=12 n=60 v=51
347382 Off ch=12 n=67 v=64
347382 Off ch=12 n=58 v=64
347382 Off ch=12 n=60 v=64
347400 On ch=12 n=67 v=43
347400 On ch=12 n=58 v=43
347400 On ch=12 n=60 v=43
347502 Off ch=12 n=67 v=64
347502 Off ch=12 n=58 v=64
347502 Off ch=12 n=60 v=64
347520 On ch=12 n=56 v=50
347520 On ch=12 n=60 v=50
347622 Off ch=12 n=56 v=64
347622 Off ch=12 n=60 v=64
347640 On ch=12 n=56 v=55
347640 On ch=12 n=60 v=55
347742 Off ch=12 n=56 v=64
347742 Off ch=12 n=60 v=64
347760 On ch=12 n=65 v=59
347760 On ch=12 n=57 v=59
347760 On ch=12 n=60 v=59
347862 Off ch=12 n=65 v=64
347862 Off ch=12 n=57 v=64
347862 Off ch=12 n=60 v=64
347880 On ch=12 n=65 v=64
347880 On ch=12 n=60 v=64
347880 On ch=12 n=57 v=64
347982 Off ch=12 n=65 v=64
347982 Off ch=12 n=60 v=64
347982 Off ch=12 n=57 v=64
348000 On ch=12 n=58 v=69
348000 On ch=12 n=67 v=69
348000 On ch=12 n=60 v=69
348102 Off ch=12 n=58 v=64
348102 Off ch=12 n=67 v=64
348102 Off ch=12 n=60 v=64
348120 On ch=12 n=58 v=74
348120 On ch=12 n=67 v=74
348120 On ch=12 n=60 v=74
348222 Off ch=12 n=58 v=64
348222 Off ch=12 n=67 v=64
348222 Off ch=12 n=60 v=64
348240 On ch=12 n=72 v=79
348240 On ch=12 n=61 v=79
348240 On ch=12 n=60 v=79
348342 Off ch=12 n=72 v=64
348342 Off ch=12 n=61 v=64
348342 Off ch=12 n=60 v=64
348360 On ch=12 n=61 v=73
348360 On ch=12 n=72 v=73
348360 On ch=12 n=60 v=73
348462 Off ch=12 n=61 v=64
348462 Off ch=12 n=72 v=64
348462 Off ch=12 n=60 v=64
348480 On ch=12 n=60 v=65
348480 On ch=12 n=70 v=65
348582 Off ch=12 n=60 v=64
348582 Off ch=12 n=70 v=64
348600 On ch=12 n=60 v=58
348600 On ch=12 n=70 v=58
348702 Off ch=12 n=60 v=64
348702 Off ch=12 n=70 v=64
348720 On ch=12 n=67 v=50
348720 On ch=12 n=58 v=50
348720 On ch=12 n=60 v=50
348822 Off ch=12 n=67 v=64
348822 Off ch=12 n=58 v=64
348822 Off ch=12 n=60 v=64
348840 On ch=12 n=67 v=42
348840 On ch=12 n=58 v=42
348840 On ch=12 n=60 v=42
348942 Off ch=12 n=67 v=64
348942 Off ch=12 n=58 v=64
348942 Off ch=12 n=60 v=64
349440 On ch=12 n=56 v=50
349440 On ch=12 n=60 v=50
349542 Off ch=12 n=56 v=64
349542 Off ch=12 n=60 v=64
349560 On ch=12 n=56 v=55
349560 On ch=12 n=60 v=55
349662 Off ch=12 n=56 v=64
349662 Off ch=12 n=60 v=64
349680 On ch=12 n=65 v=59
349680 On ch=12 n=57 v=59
349680 On ch=12 n=60 v=59
349782 Off ch=12 n=65 v=64
349782 Off ch=12 n=57 v=64
349782 Off ch=12 n=60 v=64
349800 On ch=12 n=65 v=64
349800 On ch=12 n=60 v=64
349800 On ch=12 n=57 v=64
349902 Off ch=12 n=65 v=64
349902 Off ch=12 n=60 v=64
349902 Off ch=12 n=57 v=64
349920 On ch=12 n=58 v=69
349920 On ch=12 n=67 v=69
349920 On ch=12 n=60 v=69
350022 Off ch=12 n=58 v=64
350022 Off ch=12 n=67 v=64
350022 Off ch=12 n=60 v=64
350040 On ch=12 n=58 v=74
350040 On ch=12 n=67 v=74
350040 On ch=12 n=60 v=74
350142 Off ch=12 n=58 v=64
350142 Off ch=12 n=67 v=64
350142 Off ch=12 n=60 v=64
350160 On ch=12 n=72 v=79
350160 On ch=12 n=61 v=79
350160 On ch=12 n=60 v=79
350262 Off ch=12 n=72 v=64
350262 Off ch=12 n=61 v=64
350262 Off ch=12 n=60 v=64
350280 On ch=12 n=61 v=73
350280 On ch=12 n=72 v=73
350280 On ch=12 n=60 v=73
350382 Off ch=12 n=61 v=64
350382 Off ch=12 n=72 v=64
350382 Off ch=12 n=60 v=64
350400 On ch=12 n=60 v=65
350400 On ch=12 n=70 v=65
350502 Off ch=12 n=60 v=64
350502 Off ch=12 n=70 v=64
350520 On ch=12 n=60 v=58
350520 On ch=12 n=70 v=58
350622 Off ch=12 n=60 v=64
350622 Off ch=12 n=70 v=64
350640 On ch=12 n=67 v=50
350640 On ch=12 n=58 v=50
350640 On ch=12 n=60 v=50
350742 Off ch=12 n=67 v=64
350742 Off ch=12 n=58 v=64
350742 Off ch=12 n=60 v=64
350760 On ch=12 n=67 v=42
350760 On ch=12 n=58 v=42
350760 On ch=12 n=60 v=42
350862 Off ch=12 n=67 v=64
350862 Off ch=12 n=58 v=64
350862 Off ch=12 n=60 v=64
351840 On ch=12 n=56 v=50
351840 On ch=12 n=60 v=50
351840 On ch=12 n=72 v=50
351942 Off ch=12 n=56 v=64
351942 Off ch=12 n=60 v=64
351942 Off ch=12 n=72 v=64
351960 On ch=12 n=56 v=55
351960 On ch=12 n=60 v=55
351960 On ch=12 n=72 v=55
352062 Off ch=12 n=56 v=64
352062 Off ch=12 n=60 v=64
352062 Off ch=12 n=72 v=64
352080 On ch=12 n=65 v=59
352080 On ch=12 n=72 v=59
352080 On ch=12 n=77 v=59
352080 On ch=12 n=57 v=59
352080 On ch=12 n=60 v=59
352182 Off ch=12 n=65 v=64
352182 Off ch=12 n=72 v=64
352182 Off ch=12 n=77 v=64
352182 Off ch=12 n=57 v=64
352182 Off ch=12 n=60 v=64
352200 On ch=12 n=65 v=64
352200 On ch=12 n=72 v=64
352200 On ch=12 n=77 v=64
352200 On ch=12 n=60 v=64
352200 On ch=12 n=57 v=64
352302 Off ch=12 n=65 v=64
352302 Off ch=12 n=72 v=64
352302 Off ch=12 n=77 v=64
352302 Off ch=12 n=60 v=64
352302 Off ch=12 n=57 v=64
352320 On ch=12 n=58 v=69
352320 On ch=12 n=67 v=69
352320 On ch=12 n=72 v=69
352320 On ch=12 n=79 v=69
352320 On ch=12 n=60 v=69
352422 Off ch=12 n=58 v=64
352422 Off ch=12 n=67 v=64
352422 Off ch=12 n=72 v=64
352422 Off ch=12 n=79 v=64
352422 Off ch=12 n=60 v=64
352440 On ch=12 n=58 v=74
352440 On ch=12 n=67 v=74
352440 On ch=12 n=72 v=74
352440 On ch=12 n=79 v=74
352440 On ch=12 n=60 v=74
352542 Off ch=12 n=58 v=64
352542 Off ch=12 n=67 v=64
352542 Off ch=12 n=72 v=64
352542 Off ch=12 n=79 v=64
352542 Off ch=12 n=60 v=64
352560 On ch=12 n=72 v=79
352560 On ch=12 n=84 v=79
352560 On ch=12 n=61 v=79
352560 On ch=12 n=60 v=79
352662 Off ch=12 n=72 v=64
352662 Off ch=12 n=84 v=64
352662 Off ch=12 n=61 v=64
352662 Off ch=12 n=60 v=64
352680 On ch=12 n=61 v=73
352680 On ch=12 n=72 v=73
352680 On ch=12 n=84 v=73
352680 On ch=12 n=60 v=73
352782 Off ch=12 n=61 v=64
352782 Off ch=12 n=72 v=64
352782 Off ch=12 n=84 v=64
352782 Off ch=12 n=60 v=64
352800 On ch=12 n=60 v=65
352800 On ch=12 n=70 v=65
352800 On ch=12 n=72 v=65
352800 On ch=12 n=82 v=65
352902 Off ch=12 n=60 v=64
352902 Off ch=12 n=70 v=64
352902 Off ch=12 n=72 v=64
352902 Off ch=12 n=82 v=64
352920 On ch=12 n=60 v=58
352920 On ch=12 n=70 v=58
352920 On ch=12 n=72 v=58
352920 On ch=12 n=82 v=58
353022 Off ch=12 n=60 v=64
353022 Off ch=12 n=70 v=64
353022 Off ch=12 n=72 v=64
353022 Off ch=12 n=82 v=64
353040 On ch=12 n=67 v=50
353040 On ch=12 n=72 v=50
353040 On ch=12 n=79 v=50
353040 On ch=12 n=58 v=50
353040 On ch=12 n=60 v=50
353142 Off ch=12 n=67 v=64
353142 Off ch=12 n=72 v=64
353142 Off ch=12 n=79 v=64
353142 Off ch=12 n=58 v=64
353142 Off ch=12 n=60 v=64
353160 On ch=12 n=67 v=42
353160 On ch=12 n=72 v=42
353160 On ch=12 n=79 v=42
353160 On ch=12 n=58 v=42
353160 On ch=12 n=60 v=42
353262 Off ch=12 n=67 v=64
353262 Off ch=12 n=72 v=64
353262 Off ch=12 n=79 v=64
353262 Off ch=12 n=58 v=64
353262 Off ch=12 n=60 v=64
353280 On ch=12 n=56 v=52
353280 On ch=12 n=60 v=52
353280 On ch=12 n=72 v=52
353382 Off ch=12 n=56 v=64
353382 Off ch=12 n=60 v=64
353382 Off ch=12 n=72 v=64
353400 On ch=12 n=56 v=62
353400 On ch=12 n=60 v=62
353400 On ch=12 n=72 v=62
353502 Off ch=12 n=56 v=64
353502 Off ch=12 n=60 v=64
353502 Off ch=12 n=72 v=64
353520 On ch=12 n=65 v=72
353520 On ch=12 n=72 v=72
353520 On ch=12 n=77 v=72
353520 On ch=12 n=57 v=72
353520 On ch=12 n=60 v=72
353622 Off ch=12 n=65 v=64
353622 Off ch=12 n=72 v=64
353622 Off ch=12 n=77 v=64
353622 Off ch=12 n=57 v=64
353622 Off ch=12 n=60 v=64
353640 On ch=12 n=65 v=83
353640 On ch=12 n=72 v=83
353640 On ch=12 n=77 v=83
353640 On ch=12 n=60 v=83
353640 On ch=12 n=57 v=83
353742 Off ch=12 n=65 v=64
353742 Off ch=12 n=72 v=64
353742 Off ch=12 n=77 v=64
353742 Off ch=12 n=60 v=64
353742 Off ch=12 n=57 v=64
353760 On ch=12 n=58 v=96
353760 On ch=12 n=67 v=96
353760 On ch=12 n=79 v=96
353760 On ch=12 n=72 v=96
353760 On ch=12 n=60 v=96
353862 Off ch=12 n=58 v=64
353862 Off ch=12 n=67 v=64
353862 Off ch=12 n=79 v=64
353862 Off ch=12 n=72 v=64
353862 Off ch=12 n=60 v=64
353880 On ch=12 n=58 v=88
353880 On ch=12 n=67 v=88
353880 On ch=12 n=79 v=88
353880 On ch=12 n=72 v=88
353880 On ch=12 n=60 v=88
353982 Off ch=12 n=58 v=64
353982 Off ch=12 n=67 v=64
353982 Off ch=12 n=79 v=64
353982 Off ch=12 n=72 v=64
353982 Off ch=12 n=60 v=64
354000 On ch=12 n=72 v=81
354000 On ch=12 n=84 v=81
354000 On ch=12 n=61 v=81
354000 On ch=12 n=60 v=81
354102 Off ch=12 n=72 v=64
354102 Off ch=12 n=84 v=64
354102 Off ch=12 n=61 v=64
354102 Off ch=12 n=60 v=64
354120 On ch=12 n=61 v=73
354120 On ch=12 n=72 v=73
354120 On ch=12 n=84 v=73
354120 On ch=12 n=60 v=73
354222 Off ch=12 n=61 v=64
354222 Off ch=12 n=72 v=64
354222 Off ch=12 n=84 v=64
354222 Off ch=12 n=60 v=64
354240 On ch=12 n=60 v=66
354240 On ch=12 n=70 v=66
354240 On ch=12 n=82 v=66
354240 On ch=12 n=72 v=66
354342 Off ch=12 n=60 v=64
354342 Off ch=12 n=70 v=64
354342 Off ch=12 n=82 v=64
354342 Off ch=12 n=72 v=64
354360 On ch=12 n=60 v=58
354360 On ch=12 n=70 v=58
354360 On ch=12 n=82 v=58
354360 On ch=12 n=72 v=58
354462 Off ch=12 n=60 v=64
354462 Off ch=12 n=70 v=64
354462 Off ch=12 n=82 v=64
354462 Off ch=12 n=72 v=64
354480 On ch=12 n=67 v=51
354480 On ch=12 n=79 v=51
354480 On ch=12 n=72 v=51
354480 On ch=12 n=58 v=51
354480 On ch=12 n=60 v=51
354582 Off ch=12 n=67 v=64
354582 Off ch=12 n=79 v=64
354582 Off ch=12 n=72 v=64
354582 Off ch=12 n=58 v=64
354582 Off ch=12 n=60 v=64
354600 On ch=12 n=67 v=43
354600 On ch=12 n=79 v=43
354600 On ch=12 n=72 v=43
354600 On ch=12 n=58 v=43
354600 On ch=12 n=60 v=43
354702 Off ch=12 n=67 v=64
354702 Off ch=12 n=79 v=64
354702 Off ch=12 n=72 v=64
354702 Off ch=12 n=58 v=64
354702 Off ch=12 n=60 v=64
355680 On ch=12 n=56 v=52
355680 On ch=12 n=60 v=52
355680 On ch=12 n=72 v=52
355782 Off ch=12 n=56 v=64
355782 Off ch=12 n=60 v=64
355782 Off ch=12 n=72 v=64
355800 On ch=12 n=56 v=62
355800 On ch=12 n=60 v=62
355800 On ch=12 n=72 v=62
355902 Off ch=12 n=56 v=64
355902 Off ch=12 n=60 v=64
355902 Off ch=12 n=72 v=64
355920 On ch=12 n=65 v=72
355920 On ch=12 n=72 v=72
355920 On ch=12 n=77 v=72
355920 On ch=12 n=57 v=72
355920 On ch=12 n=60 v=72
356022 Off ch=12 n=65 v=64
356022 Off ch=12 n=72 v=64
356022 Off ch=12 n=77 v=64
356022 Off ch=12 n=57 v=64
356022 Off ch=12 n=60 v=64
356040 On ch=12 n=65 v=83
356040 On ch=12 n=72 v=83
356040 On ch=12 n=77 v=83
356040 On ch=12 n=60 v=83
356040 On ch=12 n=57 v=83
356142 Off ch=12 n=65 v=64
356142 Off ch=12 n=72 v=64
356142 Off ch=12 n=77 v=64
356142 Off ch=12 n=60 v=64
356142 Off ch=12 n=57 v=64
356160 On ch=12 n=58 v=96
356160 On ch=12 n=67 v=96
356160 On ch=12 n=79 v=96
356160 On ch=12 n=72 v=96
356160 On ch=12 n=60 v=96
356262 Off ch=12 n=58 v=64
356262 Off ch=12 n=67 v=64
356262 Off ch=12 n=79 v=64
356262 Off ch=12 n=72 v=64
356262 Off ch=12 n=60 v=64
356280 On ch=12 n=58 v=88
356280 On ch=12 n=67 v=88
356280 On ch=12 n=79 v=88
356280 On ch=12 n=72 v=88
356280 On ch=12 n=60 v=88
356382 Off ch=12 n=58 v=64
356382 Off ch=12 n=67 v=64
356382 Off ch=12 n=79 v=64
356382 Off ch=12 n=72 v=64
356382 Off ch=12 n=60 v=64
356400 On ch=12 n=72 v=81
356400 On ch=12 n=84 v=81
356400 On ch=12 n=61 v=81
356400 On ch=12 n=60 v=81
356502 Off ch=12 n=72 v=64
356502 Off ch=12 n=84 v=64
356502 Off ch=12 n=61 v=64
356502 Off ch=12 n=60 v=64
356520 On ch=12 n=61 v=73
356520 On ch=12 n=72 v=73
356520 On ch=12 n=84 v=73
356520 On ch=12 n=60 v=73
356622 Off ch=12 n=61 v=64
356622 Off ch=12 n=72 v=64
356622 Off ch=12 n=84 v=64
356622 Off ch=12 n=60 v=64
356640 On ch=12 n=60 v=66
356640 On ch=12 n=70 v=66
356640 On ch=12 n=82 v=66
356640 On ch=12 n=72 v=66
356742 Off ch=12 n=60 v=64
356742 Off ch=12 n=70 v=64
356742 Off ch=12 n=82 v=64
356742 Off ch=12 n=72 v=64
356760 On ch=12 n=60 v=58
356760 On ch=12 n=70 v=58
356760 On ch=12 n=82 v=58
356760 On ch=12 n=72 v=58
356862 Off ch=12 n=60 v=64
356862 Off ch=12 n=70 v=64
356862 Off ch=12 n=82 v=64
356862 Off ch=12 n=72 v=64
356880 On ch=12 n=67 v=51
356880 On ch=12 n=79 v=51
356880 On ch=12 n=72 v=51
356880 On ch=12 n=58 v=51
356880 On ch=12 n=60 v=51
356982 Off ch=12 n=67 v=64
356982 Off ch=12 n=79 v=64
356982 Off ch=12 n=72 v=64
356982 Off ch=12 n=58 v=64
356982 Off ch=12 n=60 v=64
357000 On ch=12 n=67 v=43
357000 On ch=12 n=79 v=43
357000 On ch=12 n=72 v=43
357000 On ch=12 n=58 v=43
357000 On ch=12 n=60 v=43
357102 Off ch=12 n=67 v=64
357102 Off ch=12 n=79 v=64
357102 Off ch=12 n=72 v=64
357102 Off ch=12 n=58 v=64
357102 Off ch=12 n=60 v=64
357120 On ch=12 n=64 v=96
357120 On ch=12 n=76 v=96
357120 On ch=12 n=88 v=96
357180 Off ch=12 n=64 v=64
357180 Off ch=12 n=76 v=64
357180 Off ch=12 n=88 v=64
357180 On ch=12 n=63 v=96
357180 On ch=12 n=75 v=96
357180 On ch=12 n=87 v=96
357240 Off ch=12 n=63 v=64
357240 Off ch=12 n=75 v=64
357240 Off ch=12 n=87 v=64
357240 On ch=12 n=76 v=96
357240 On ch=12 n=88 v=96
357240 On ch=12 n=64 v=96
357300 Off ch=12 n=76 v=64
357300 Off ch=12 n=88 v=64
357300 Off ch=12 n=64 v=64
357300 On ch=12 n=75 v=96
357300 On ch=12 n=63 v=96
357300 On ch=12 n=87 v=96
357360 Off ch=12 n=75 v=64
357360 Off ch=12 n=63 v=64
357360 Off ch=12 n=87 v=64
357360 On ch=12 n=64 v=96
357360 On ch=12 n=76 v=96
357360 On ch=12 n=88 v=96
357420 Off ch=12 n=64 v=64
357420 Off ch=12 n=76 v=64
357420 Off ch=12 n=88 v=64
357420 On ch=12 n=63 v=96
357420 On ch=12 n=75 v=96
357420 On ch=12 n=87 v=96
357480 Off ch=12 n=63 v=64
357480 Off ch=12 n=75 v=64
357480 Off ch=12 n=87 v=64
357480 On ch=12 n=88 v=96
357480 On ch=12 n=64 v=96
357480 On ch=12 n=76 v=96
357540 Off ch=12 n=88 v=64
357540 Off ch=12 n=64 v=64
357540 Off ch=12 n=76 v=64
357540 On ch=12 n=63 v=96
357540 On ch=12 n=87 v=96
357540 On ch=12 n=75 v=96
357600 Off ch=12 n=63 v=64
357600 Off ch=12 n=87 v=64
357600 Off ch=12 n=75 v=64
357600 On ch=12 n=88 v=96
357600 On ch=12 n=64 v=96
357600 On ch=12 n=76 v=96
357660 Off ch=12 n=88 v=64
357660 Off ch=12 n=64 v=64
357660 Off ch=12 n=76 v=64
357660 On ch=12 n=63 v=96
357660 On ch=12 n=87 v=96
357660 On ch=12 n=75 v=96
357720 Off ch=12 n=63 v=64
357720 Off ch=12 n=87 v=64
357720 Off ch=12 n=75 v=64
357720 On ch=12 n=88 v=96
357720 On ch=12 n=76 v=96
357720 On ch=12 n=64 v=96
357780 Off ch=12 n=88 v=64
357780 Off ch=12 n=76 v=64
357780 Off ch=12 n=64 v=64
357780 On ch=12 n=63 v=96
357780 On ch=12 n=75 v=96
357780 On ch=12 n=87 v=96
357840 Off ch=12 n=63 v=64
357840 Off ch=12 n=75 v=64
357840 Off ch=12 n=87 v=64
357840 On ch=12 n=64 v=96
357840 On ch=12 n=76 v=96
357840 On ch=12 n=88 v=96
357900 Off ch=12 n=64 v=64
357900 Off ch=12 n=76 v=64
357900 Off ch=12 n=88 v=64
357900 On ch=12 n=63 v=96
357900 On ch=12 n=75 v=96
357900 On ch=12 n=87 v=96
357960 Off ch=12 n=63 v=64
357960 Off ch=12 n=75 v=64
357960 Off ch=12 n=87 v=64
357960 On ch=12 n=88 v=96
357960 On ch=12 n=64 v=96
357960 On ch=12 n=76 v=96
358020 Off ch=12 n=88 v=64
358020 Off ch=12 n=64 v=64
358020 Off ch=12 n=76 v=64
358020 On ch=12 n=63 v=96
358020 On ch=12 n=75 v=96
358020 On ch=12 n=87 v=96
358080 Off ch=12 n=63 v=64
358080 Off ch=12 n=75 v=64
358080 Off ch=12 n=87 v=64
358080 On ch=12 n=88 v=96
358080 On ch=12 n=64 v=96
358080 On ch=12 n=76 v=96
358140 Off ch=12 n=88 v=64
358140 Off ch=12 n=64 v=64
358140 Off ch=12 n=76 v=64
358140 On ch=12 n=63 v=96
358140 On ch=12 n=75 v=96
358140 On ch=12 n=87 v=96
358200 Off ch=12 n=63 v=64
358200 Off ch=12 n=75 v=64
358200 Off ch=12 n=87 v=64
358200 On ch=12 n=88 v=96
358200 On ch=12 n=64 v=96
358200 On ch=12 n=76 v=96
358260 Off ch=12 n=88 v=64
358260 Off ch=12 n=64 v=64
358260 Off ch=12 n=76 v=64
358260 On ch=12 n=63 v=96
358260 On ch=12 n=75 v=96
358260 On ch=12 n=87 v=96
358320 Off ch=12 n=63 v=64
358320 Off ch=12 n=75 v=64
358320 Off ch=12 n=87 v=64
358320 On ch=12 n=88 v=96
358320 On ch=12 n=64 v=96
358320 On ch=12 n=76 v=96
358380 Off ch=12 n=88 v=64
358380 Off ch=12 n=64 v=64
358380 Off ch=12 n=76 v=64
358380 On ch=12 n=63 v=96
358380 On ch=12 n=87 v=96
358380 On ch=12 n=75 v=96
358440 Off ch=12 n=63 v=64
358440 Off ch=12 n=87 v=64
358440 Off ch=12 n=75 v=64
358440 On ch=12 n=88 v=96
358440 On ch=12 n=76 v=96
358440 On ch=12 n=64 v=96
358500 Off ch=12 n=88 v=64
358500 Off ch=12 n=76 v=64
358500 Off ch=12 n=64 v=64
358500 On ch=12 n=63 v=96
358500 On ch=12 n=87 v=96
358500 On ch=12 n=75 v=96
358560 Off ch=12 n=63 v=64
358560 Off ch=12 n=87 v=64
358560 Off ch=12 n=75 v=64
358560 On ch=12 n=88 v=96
358560 On ch=12 n=76 v=96
358560 On ch=12 n=64 v=96
358620 Off ch=12 n=88 v=64
358620 Off ch=12 n=76 v=64
358620 Off ch=12 n=64 v=64
358620 On ch=12 n=87 v=96
358620 On ch=12 n=63 v=96
358620 On ch=12 n=75 v=96
358680 Off ch=12 n=87 v=64
358680 Off ch=12 n=63 v=64
358680 Off ch=12 n=75 v=64
358680 On ch=12 n=88 v=96
358680 On ch=12 n=64 v=96
358680 On ch=12 n=76 v=96
358740 Off ch=12 n=88 v=64
358740 Off ch=12 n=64 v=64
358740 Off ch=12 n=76 v=64
358740 On ch=12 n=63 v=96
358740 On ch=12 n=87 v=96
358740 On ch=12 n=75 v=96
358800 Off ch=12 n=63 v=64
358800 Off ch=12 n=87 v=64
358800 Off ch=12 n=75 v=64
358800 On ch=12 n=88 v=96
358800 On ch=12 n=64 v=96
358800 On ch=12 n=76 v=96
358860 Off ch=12 n=88 v=64
358860 Off ch=12 n=64 v=64
358860 Off ch=12 n=76 v=64
358860 On ch=12 n=63 v=96
358860 On ch=12 n=87 v=96
358860 On ch=12 n=75 v=96
358920 Off ch=12 n=63 v=64
358920 Off ch=12 n=87 v=64
358920 Off ch=12 n=75 v=64
358920 On ch=12 n=88 v=96
358920 On ch=12 n=64 v=96
358920 On ch=12 n=76 v=96
358980 Off ch=12 n=88 v=64
358980 Off ch=12 n=64 v=64
358980 Off ch=12 n=76 v=64
358980 On ch=12 n=63 v=96
358980 On ch=12 n=87 v=96
358980 On ch=12 n=75 v=96
359040 Off ch=12 n=63 v=64
359040 Off ch=12 n=87 v=64
359040 Off ch=12 n=75 v=64
359040 On ch=12 n=64 v=96
359040 On ch=12 n=76 v=96
359040 On ch=12 n=88 v=96
359100 Off ch=12 n=64 v=64
359100 Off ch=12 n=76 v=64
359100 Off ch=12 n=88 v=64
359100 On ch=12 n=63 v=96
359100 On ch=12 n=75 v=96
359100 On ch=12 n=87 v=96
359160 Off ch=12 n=63 v=64
359160 Off ch=12 n=75 v=64
359160 Off ch=12 n=87 v=64
359160 On ch=12 n=76 v=96
359160 On ch=12 n=88 v=96
359160 On ch=12 n=64 v=96
359220 Off ch=12 n=76 v=64
359220 Off ch=12 n=88 v=64
359220 Off ch=12 n=64 v=64
359220 On ch=12 n=75 v=96
359220 On ch=12 n=63 v=96
359220 On ch=12 n=87 v=96
359280 Off ch=12 n=75 v=64
359280 Off ch=12 n=63 v=64
359280 Off ch=12 n=87 v=64
359280 On ch=12 n=64 v=96
359280 On ch=12 n=76 v=96
359280 On ch=12 n=88 v=96
359340 Off ch=12 n=64 v=64
359340 Off ch=12 n=76 v=64
359340 Off ch=12 n=88 v=64
359340 On ch=12 n=63 v=96
359340 On ch=12 n=75 v=96
359340 On ch=12 n=87 v=96
359400 Off ch=12 n=63 v=64
359400 Off ch=12 n=75 v=64
359400 Off ch=12 n=87 v=64
359400 On ch=12 n=88 v=96
359400 On ch=12 n=64 v=96
359400 On ch=12 n=76 v=96
359460 Off ch=12 n=88 v=64
359460 Off ch=12 n=64 v=64
359460 Off ch=12 n=76 v=64
359460 On ch=12 n=63 v=96
359460 On ch=12 n=87 v=96
359460 On ch=12 n=75 v=96
359520 Off ch=12 n=63 v=64
359520 Off ch=12 n=87 v=64
359520 Off ch=12 n=75 v=64
359520 On ch=12 n=88 v=96
359520 On ch=12 n=64 v=96
359520 On ch=12 n=76 v=96
359580 Off ch=12 n=88 v=64
359580 Off ch=12 n=64 v=64
359580 Off ch=12 n=76 v=64
359580 On ch=12 n=63 v=96
359580 On ch=12 n=87 v=96
359580 On ch=12 n=75 v=96
359640 Off ch=12 n=63 v=64
359640 Off ch=12 n=87 v=64
359640 Off ch=12 n=75 v=64
359640 On ch=12 n=88 v=96
359640 On ch=12 n=76 v=96
359640 On ch=12 n=64 v=96
359700 Off ch=12 n=88 v=64
359700 Off ch=12 n=76 v=64
359700 Off ch=12 n=64 v=64
359700 On ch=12 n=63 v=96
359700 On ch=12 n=75 v=96
359700 On ch=12 n=87 v=96
359760 Off ch=12 n=63 v=64
359760 Off ch=12 n=75 v=64
359760 Off ch=12 n=87 v=64
359760 On ch=12 n=64 v=96
359760 On ch=12 n=76 v=96
359760 On ch=12 n=88 v=96
359820 Off ch=12 n=64 v=64
359820 Off ch=12 n=76 v=64
359820 Off ch=12 n=88 v=64
359820 On ch=12 n=63 v=96
359820 On ch=12 n=75 v=96
359820 On ch=12 n=87 v=96
359880 Off ch=12 n=63 v=64
359880 Off ch=12 n=75 v=64
359880 Off ch=12 n=87 v=64
359880 On ch=12 n=88 v=96
359880 On ch=12 n=64 v=96
359880 On ch=12 n=76 v=96
359940 Off ch=12 n=88 v=64
359940 Off ch=12 n=64 v=64
359940 Off ch=12 n=76 v=64
359940 On ch=12 n=63 v=96
359940 On ch=12 n=75 v=96
359940 On ch=12 n=87 v=96
360000 Off ch=12 n=63 v=64
360000 Off ch=12 n=75 v=64
360000 Off ch=12 n=87 v=64
360000 On ch=12 n=88 v=96
360000 On ch=12 n=64 v=96
360000 On ch=12 n=76 v=96
360060 Off ch=12 n=88 v=64
360060 Off ch=12 n=64 v=64
360060 Off ch=12 n=76 v=64
360060 On ch=12 n=63 v=96
360060 On ch=12 n=75 v=96
360060 On ch=12 n=87 v=96
360120 Off ch=12 n=63 v=64
360120 Off ch=12 n=75 v=64
360120 Off ch=12 n=87 v=64
360120 On ch=12 n=88 v=96
360120 On ch=12 n=64 v=96
360120 On ch=12 n=76 v=96
360180 Off ch=12 n=88 v=64
360180 Off ch=12 n=64 v=64
360180 Off ch=12 n=76 v=64
360180 On ch=12 n=63 v=96
360180 On ch=12 n=75 v=96
360180 On ch=12 n=87 v=96
360240 Off ch=12 n=63 v=64
360240 Off ch=12 n=75 v=64
360240 Off ch=12 n=87 v=64
360240 On ch=12 n=88 v=96
360240 On ch=12 n=64 v=96
360240 On ch=12 n=76 v=96
360300 Off ch=12 n=88 v=64
360300 Off ch=12 n=64 v=64
360300 Off ch=12 n=76 v=64
360300 On ch=12 n=63 v=96
360300 On ch=12 n=87 v=96
360300 On ch=12 n=75 v=96
360360 Off ch=12 n=63 v=64
360360 Off ch=12 n=87 v=64
360360 Off ch=12 n=75 v=64
360360 On ch=12 n=88 v=96
360360 On ch=12 n=76 v=96
360360 On ch=12 n=64 v=96
360420 Off ch=12 n=88 v=64
360420 Off ch=12 n=76 v=64
360420 Off ch=12 n=64 v=64
360420 On ch=12 n=63 v=96
360420 On ch=12 n=87 v=96
360420 On ch=12 n=75 v=96
360480 Off ch=12 n=63 v=64
360480 Off ch=12 n=87 v=64
360480 Off ch=12 n=75 v=64
360480 On ch=12 n=88 v=96
360480 On ch=12 n=76 v=96
360480 On ch=12 n=64 v=96
360540 Off ch=12 n=88 v=64
360540 Off ch=12 n=76 v=64
360540 Off ch=12 n=64 v=64
360540 On ch=12 n=87 v=96
360540 On ch=12 n=63 v=96
360540 On ch=12 n=75 v=96
360600 Off ch=12 n=87 v=64
360600 Off ch=12 n=63 v=64
360600 Off ch=12 n=75 v=64
360600 On ch=12 n=88 v=96
360600 On ch=12 n=64 v=96
360600 On ch=12 n=76 v=96
360660 Off ch=12 n=88 v=64
360660 Off ch=12 n=64 v=64
360660 Off ch=12 n=76 v=64
360660 On ch=12 n=63 v=96
360660 On ch=12 n=87 v=96
360660 On ch=12 n=75 v=96
360720 Off ch=12 n=63 v=64
360720 Off ch=12 n=87 v=64
360720 Off ch=12 n=75 v=64
360720 On ch=12 n=88 v=96
360720 On ch=12 n=64 v=96
360720 On ch=12 n=76 v=96
360780 Off ch=12 n=88 v=64
360780 Off ch=12 n=64 v=64
360780 Off ch=12 n=76 v=64
360780 On ch=12 n=63 v=96
360780 On ch=12 n=87 v=96
360780 On ch=12 n=75 v=96
360840 Off ch=12 n=63 v=64
360840 Off ch=12 n=87 v=64
360840 Off ch=12 n=75 v=64
360840 On ch=12 n=88 v=96
360840 On ch=12 n=64 v=96
360840 On ch=12 n=76 v=96
360900 Off ch=12 n=88 v=64
360900 Off ch=12 n=64 v=64
360900 Off ch=12 n=76 v=64
360900 On ch=12 n=63 v=96
360900 On ch=12 n=87 v=96
360900 On ch=12 n=75 v=96
360960 Off ch=12 n=63 v=64
360960 Off ch=12 n=87 v=64
360960 Off ch=12 n=75 v=64
360960 On ch=12 n=64 v=96
360960 On ch=12 n=76 v=96
360960 On ch=12 n=88 v=96
361090 Off ch=12 n=64 v=64
361090 Off ch=12 n=76 v=64
361090 Off ch=12 n=88 v=64
524160 Meta TrkEnd
TrkEnd
MTrk
0 Meta InstrName "SC-88VL"
0 Meta TrkName "FL"
960 Par ch=13 c=93 v=0
960 Par ch=13 c=91 v=110
970 Par ch=13 c=7 v=100
1200 Par ch=13 c=0 v=0
1200 Par ch=13 c=32 v=1
1200 PrCh ch=13 p=73
30720 On ch=13 n=73 v=28
30720 On ch=13 n=57 v=28
30750 On ch=13 n=75 v=28
30750 On ch=13 n=59 v=28
30762 Off ch=13 n=73 v=64
30762 Off ch=13 n=57 v=64
30780 On ch=13 n=73 v=28
30780 On ch=13 n=57 v=28
30792 Off ch=13 n=75 v=64
30792 Off ch=13 n=59 v=64
30810 On ch=13 n=75 v=28
30810 On ch=13 n=59 v=28
30822 Off ch=13 n=73 v=64
30822 Off ch=13 n=57 v=64
30840 On ch=13 n=73 v=28
30840 On ch=13 n=57 v=28
30852 Off ch=13 n=75 v=64
30852 Off ch=13 n=59 v=64
30870 On ch=13 n=75 v=28
30870 On ch=13 n=59 v=28
30882 Off ch=13 n=73 v=64
30882 Off ch=13 n=57 v=64
30900 On ch=13 n=73 v=28
30900 On ch=13 n=57 v=28
30912 Off ch=13 n=75 v=64
30912 Off ch=13 n=59 v=64
30930 On ch=13 n=75 v=28
30930 On ch=13 n=59 v=28
30942 Off ch=13 n=73 v=64
30942 Off ch=13 n=57 v=64
30960 On ch=13 n=73 v=28
30960 On ch=13 n=57 v=28
30972 Off ch=13 n=75 v=64
30972 Off ch=13 n=59 v=64
30990 On ch=13 n=75 v=28
30990 On ch=13 n=59 v=28
31002 Off ch=13 n=73 v=64
31002 Off ch=13 n=57 v=64
31020 On ch=13 n=73 v=28
31020 On ch=13 n=57 v=28
31032 Off ch=13 n=75 v=64
31032 Off ch=13 n=59 v=64
31050 On ch=13 n=75 v=28
31050 On ch=13 n=59 v=28
31062 Off ch=13 n=73 v=64
31062 Off ch=13 n=57 v=64
31080 On ch=13 n=73 v=28
31080 On ch=13 n=57 v=28
31092 Off ch=13 n=75 v=64
31092 Off ch=13 n=59 v=64
31110 On ch=13 n=75 v=28
31110 On ch=13 n=59 v=28
31122 Off ch=13 n=73 v=64
31122 Off ch=13 n=57 v=64
31140 On ch=13 n=73 v=28
31140 On ch=13 n=57 v=28
31152 Off ch=13 n=75 v=64
31152 Off ch=13 n=59 v=64
31170 On ch=13 n=75 v=28
31170 On ch=13 n=59 v=28
31182 Off ch=13 n=73 v=64
31182 Off ch=13 n=57 v=64
31200 On ch=13 n=73 v=28
31200 On ch=13 n=57 v=28
31212 Off ch=13 n=75 v=64
31212 Off ch=13 n=59 v=64
31230 On ch=13 n=75 v=28
31230 On ch=13 n=59 v=28
31242 Off ch=13 n=73 v=64
31242 Off ch=13 n=57 v=64
31260 On ch=13 n=73 v=28
31260 On ch=13 n=57 v=28
31272 Off ch=13 n=75 v=64
31272 Off ch=13 n=59 v=64
31290 On ch=13 n=75 v=28
31290 On ch=13 n=59 v=28
31302 Off ch=13 n=73 v=64
31302 Off ch=13 n=57 v=64
31320 On ch=13 n=73 v=28
31320 On ch=13 n=57 v=28
31332 Off ch=13 n=75 v=64
31332 Off ch=13 n=59 v=64
31350 On ch=13 n=75 v=28
31350 On ch=13 n=59 v=28
31362 Off ch=13 n=73 v=64
31362 Off ch=13 n=57 v=64
31380 On ch=13 n=73 v=28
31380 On ch=13 n=57 v=28
31392 Off ch=13 n=75 v=64
31392 Off ch=13 n=59 v=64
31410 On ch=13 n=75 v=28
31410 On ch=13 n=59 v=28
31422 Off ch=13 n=73 v=64
31422 Off ch=13 n=57 v=64
31440 On ch=13 n=73 v=28
31440 On ch=13 n=57 v=28
31452 Off ch=13 n=75 v=64
31452 Off ch=13 n=59 v=64
31470 On ch=13 n=75 v=28
31470 On ch=13 n=59 v=28
31482 Off ch=13 n=73 v=64
31482 Off ch=13 n=57 v=64
31500 On ch=13 n=73 v=28
31500 On ch=13 n=57 v=28
31512 Off ch=13 n=75 v=64
31512 Off ch=13 n=59 v=64
31530 On ch=13 n=75 v=28
31530 On ch=13 n=59 v=28
31542 Off ch=13 n=73 v=64
31542 Off ch=13 n=57 v=64
31560 On ch=13 n=73 v=28
31560 On ch=13 n=57 v=28
31572 Off ch=13 n=75 v=64
31572 Off ch=13 n=59 v=64
31590 On ch=13 n=75 v=28
31590 On ch=13 n=59 v=28
31602 Off ch=13 n=73 v=64
31602 Off ch=13 n=57 v=64
31620 On ch=13 n=73 v=28
31620 On ch=13 n=57 v=28
31632 Off ch=13 n=75 v=64
31632 Off ch=13 n=59 v=64
31650 On ch=13 n=75 v=28
31650 On ch=13 n=59 v=28
31662 Off ch=13 n=73 v=64
31662 Off ch=13 n=57 v=64
31680 On ch=13 n=73 v=28
31680 On ch=13 n=57 v=28
31692 Off ch=13 n=75 v=64
31692 Off ch=13 n=59 v=64
31710 On ch=13 n=75 v=28
31710 On ch=13 n=59 v=28
31722 Off ch=13 n=73 v=64
31722 Off ch=13 n=57 v=64
31740 On ch=13 n=73 v=28
31740 On ch=13 n=57 v=28
31752 Off ch=13 n=75 v=64
31752 Off ch=13 n=59 v=64
31770 On ch=13 n=75 v=28
31770 On ch=13 n=59 v=28
31782 Off ch=13 n=73 v=64
31782 Off ch=13 n=57 v=64
31800 On ch=13 n=73 v=28
31800 On ch=13 n=57 v=28
31812 Off ch=13 n=75 v=64
31812 Off ch=13 n=59 v=64
31830 On ch=13 n=75 v=28
31830 On ch=13 n=59 v=28
31842 Off ch=13 n=73 v=64
31842 Off ch=13 n=57 v=64
31860 On ch=13 n=73 v=28
31860 On ch=13 n=57 v=28
31872 Off ch=13 n=75 v=64
31872 Off ch=13 n=59 v=64
31890 On ch=13 n=75 v=28
31890 On ch=13 n=59 v=28
31902 Off ch=13 n=73 v=64
31902 Off ch=13 n=57 v=64
31920 On ch=13 n=73 v=28
31920 On ch=13 n=57 v=28
31932 Off ch=13 n=75 v=64
31932 Off ch=13 n=59 v=64
31950 On ch=13 n=75 v=28
31950 On ch=13 n=59 v=28
31962 Off ch=13 n=73 v=64
31962 Off ch=13 n=57 v=64
31980 On ch=13 n=73 v=28
31980 On ch=13 n=57 v=28
31992 Off ch=13 n=75 v=64
31992 Off ch=13 n=59 v=64
32010 On ch=13 n=75 v=28
32010 On ch=13 n=59 v=28
32022 Off ch=13 n=73 v=64
32022 Off ch=13 n=57 v=64
32040 On ch=13 n=73 v=28
32040 On ch=13 n=57 v=28
32052 Off ch=13 n=75 v=64
32052 Off ch=13 n=59 v=64
32070 On ch=13 n=75 v=28
32070 On ch=13 n=59 v=28
32082 Off ch=13 n=73 v=64
32082 Off ch=13 n=57 v=64
32100 On ch=13 n=73 v=28
32100 On ch=13 n=57 v=28
32112 Off ch=13 n=75 v=64
32112 Off ch=13 n=59 v=64
32130 On ch=13 n=75 v=28
32130 On ch=13 n=59 v=28
32142 Off ch=13 n=73 v=64
32142 Off ch=13 n=57 v=64
32160 On ch=13 n=73 v=28
32160 On ch=13 n=57 v=28
32172 Off ch=13 n=75 v=64
32172 Off ch=13 n=59 v=64
32190 On ch=13 n=75 v=28
32190 On ch=13 n=59 v=28
32202 Off ch=13 n=73 v=64
32202 Off ch=13 n=57 v=64
32220 On ch=13 n=73 v=28
32220 On ch=13 n=57 v=28
32232 Off ch=13 n=75 v=64
32232 Off ch=13 n=59 v=64
32250 On ch=13 n=75 v=28
32250 On ch=13 n=59 v=28
32262 Off ch=13 n=73 v=64
32262 Off ch=13 n=57 v=64
32280 On ch=13 n=73 v=28
32280 On ch=13 n=57 v=28
32292 Off ch=13 n=75 v=64
32292 Off ch=13 n=59 v=64
32310 On ch=13 n=75 v=28
32310 On ch=13 n=59 v=28
32322 Off ch=13 n=73 v=64
32322 Off ch=13 n=57 v=64
32340 On ch=13 n=73 v=28
32340 On ch=13 n=57 v=28
32352 Off ch=13 n=75 v=64
32352 Off ch=13 n=59 v=64
32370 On ch=13 n=75 v=28
32370 On ch=13 n=59 v=28
32382 Off ch=13 n=73 v=64
32382 Off ch=13 n=57 v=64
32400 On ch=13 n=73 v=28
32400 On ch=13 n=57 v=28
32412 Off ch=13 n=75 v=64
32412 Off ch=13 n=59 v=64
32430 On ch=13 n=75 v=28
32430 On ch=13 n=59 v=28
32442 Off ch=13 n=73 v=64
32442 Off ch=13 n=57 v=64
32460 On ch=13 n=73 v=28
32460 On ch=13 n=57 v=28
32472 Off ch=13 n=75 v=64
32472 Off ch=13 n=59 v=64
32490 On ch=13 n=75 v=28
32490 On ch=13 n=59 v=28
32502 Off ch=13 n=73 v=64
32502 Off ch=13 n=57 v=64
32520 On ch=13 n=73 v=28
32520 On ch=13 n=57 v=28
32532 Off ch=13 n=75 v=64
32532 Off ch=13 n=59 v=64
32550 On ch=13 n=75 v=28
32550 On ch=13 n=59 v=28
32562 Off ch=13 n=73 v=64
32562 Off ch=13 n=57 v=64
32580 On ch=13 n=73 v=28
32580 On ch=13 n=57 v=28
32592 Off ch=13 n=75 v=64
32592 Off ch=13 n=59 v=64
32610 On ch=13 n=75 v=28
32610 On ch=13 n=59 v=28
32622 Off ch=13 n=73 v=64
32622 Off ch=13 n=57 v=64
32640 On ch=13 n=73 v=28
32640 On ch=13 n=57 v=28
32652 Off ch=13 n=75 v=64
32652 Off ch=13 n=59 v=64
32670 On ch=13 n=75 v=28
32670 On ch=13 n=59 v=28
32682 Off ch=13 n=73 v=64
32682 Off ch=13 n=57 v=64
32700 On ch=13 n=73 v=28
32700 On ch=13 n=57 v=28
32712 Off ch=13 n=75 v=64
32712 Off ch=13 n=59 v=64
32730 On ch=13 n=75 v=28
32730 On ch=13 n=59 v=28
32742 Off ch=13 n=73 v=64
32742 Off ch=13 n=57 v=64
32760 On ch=13 n=73 v=28
32760 On ch=13 n=57 v=28
32772 Off ch=13 n=75 v=64
32772 Off ch=13 n=59 v=64
32790 On ch=13 n=75 v=28
32790 On ch=13 n=59 v=28
32802 Off ch=13 n=73 v=64
32802 Off ch=13 n=57 v=64
32820 On ch=13 n=73 v=28
32820 On ch=13 n=57 v=28
32832 Off ch=13 n=75 v=64
32832 Off ch=13 n=59 v=64
32850 On ch=13 n=75 v=28
32850 On ch=13 n=59 v=28
32862 Off ch=13 n=73 v=64
32862 Off ch=13 n=57 v=64
32880 On ch=13 n=73 v=28
32880 On ch=13 n=57 v=28
32892 Off ch=13 n=75 v=64
32892 Off ch=13 n=59 v=64
32910 On ch=13 n=75 v=28
32910 On ch=13 n=59 v=28
32922 Off ch=13 n=73 v=64
32922 Off ch=13 n=57 v=64
32940 On ch=13 n=73 v=28
32940 On ch=13 n=57 v=28
32952 Off ch=13 n=75 v=64
32952 Off ch=13 n=59 v=64
32970 On ch=13 n=75 v=28
32970 On ch=13 n=59 v=28
32982 Off ch=13 n=73 v=64
32982 Off ch=13 n=57 v=64
33000 On ch=13 n=73 v=28
33000 On ch=13 n=57 v=28
33012 Off ch=13 n=75 v=64
33012 Off ch=13 n=59 v=64
33030 On ch=13 n=75 v=28
33030 On ch=13 n=59 v=28
33042 Off ch=13 n=73 v=64
33042 Off ch=13 n=57 v=64
33060 On ch=13 n=73 v=28
33060 On ch=13 n=57 v=28
33072 Off ch=13 n=75 v=64
33072 Off ch=13 n=59 v=64
33090 On ch=13 n=75 v=28
33090 On ch=13 n=59 v=28
33102 Off ch=13 n=73 v=64
33102 Off ch=13 n=57 v=64
33120 On ch=13 n=73 v=28
33120 On ch=13 n=57 v=28
33132 Off ch=13 n=75 v=64
33132 Off ch=13 n=59 v=64
33150 On ch=13 n=75 v=28
33150 On ch=13 n=59 v=28
33162 Off ch=13 n=73 v=64
33162 Off ch=13 n=57 v=64
33180 On ch=13 n=73 v=28
33180 On ch=13 n=57 v=28
33192 Off ch=13 n=75 v=64
33192 Off ch=13 n=59 v=64
33210 On ch=13 n=75 v=28
33210 On ch=13 n=59 v=28
33222 Off ch=13 n=73 v=64
33222 Off ch=13 n=57 v=64
33240 On ch=13 n=73 v=28
33240 On ch=13 n=57 v=28
33252 Off ch=13 n=75 v=64
33252 Off ch=13 n=59 v=64
33270 On ch=13 n=75 v=28
33270 On ch=13 n=59 v=28
33282 Off ch=13 n=73 v=64
33282 Off ch=13 n=57 v=64
33300 On ch=13 n=73 v=28
33300 On ch=13 n=57 v=28
33312 Off ch=13 n=75 v=64
33312 Off ch=13 n=59 v=64
33330 On ch=13 n=75 v=28
33330 On ch=13 n=59 v=28
33342 Off ch=13 n=73 v=64
33342 Off ch=13 n=57 v=64
33360 On ch=13 n=73 v=28
33360 On ch=13 n=57 v=28
33372 Off ch=13 n=75 v=64
33372 Off ch=13 n=59 v=64
33390 On ch=13 n=75 v=28
33390 On ch=13 n=59 v=28
33402 Off ch=13 n=73 v=64
33402 Off ch=13 n=57 v=64
33420 On ch=13 n=73 v=28
33420 On ch=13 n=57 v=28
33432 Off ch=13 n=75 v=64
33432 Off ch=13 n=59 v=64
33450 On ch=13 n=75 v=28
33450 On ch=13 n=59 v=28
33462 Off ch=13 n=73 v=64
33462 Off ch=13 n=57 v=64
33480 On ch=13 n=73 v=28
33480 On ch=13 n=57 v=28
33492 Off ch=13 n=75 v=64
33492 Off ch=13 n=59 v=64
33510 On ch=13 n=75 v=28
33510 On ch=13 n=59 v=28
33522 Off ch=13 n=73 v=64
33522 Off ch=13 n=57 v=64
33540 On ch=13 n=73 v=28
33540 On ch=13 n=57 v=28
33552 Off ch=13 n=75 v=64
33552 Off ch=13 n=59 v=64
33570 On ch=13 n=75 v=28
33570 On ch=13 n=59 v=28
33582 Off ch=13 n=73 v=64
33582 Off ch=13 n=57 v=64
33600 On ch=13 n=62 v=52
33612 Off ch=13 n=75 v=64
33612 Off ch=13 n=59 v=64
33760 Off ch=13 n=62 v=64
33760 On ch=13 n=64 v=52
33892 On ch=13 n=69 v=52
33920 Off ch=13 n=64 v=64
33920 On ch=13 n=67 v=52
33936 Off ch=13 n=69 v=64
34080 Off ch=13 n=67 v=64
34080 On ch=13 n=65 v=51
34320 Off ch=13 n=65 v=64
34320 On ch=13 n=64 v=42
34560 Off ch=13 n=64 v=64
34560 On ch=13 n=62 v=52
34686 On ch=13 n=59 v=47
34693 Off ch=13 n=62 v=64
34720 On ch=13 n=62 v=47
34724 Off ch=13 n=59 v=64
34773 Off ch=13 n=62 v=64
34773 On ch=13 n=59 v=45
34826 Off ch=13 n=59 v=64
34826 On ch=13 n=62 v=44
34880 Off ch=13 n=62 v=64
34880 On ch=13 n=59 v=42
34933 Off ch=13 n=59 v=64
34933 On ch=13 n=62 v=41
34986 Off ch=13 n=62 v=64
34986 On ch=13 n=59 v=40
35040 Off ch=13 n=59 v=64
35040 On ch=13 n=62 v=38
35280 Off ch=13 n=62 v=64
35520 On ch=13 n=59 v=52
35573 Off ch=13 n=59 v=64
35573 On ch=13 n=61 v=50
35626 Off ch=13 n=61 v=64
35626 On ch=13 n=64 v=48
35680 Off ch=13 n=64 v=64
35680 On ch=13 n=62 v=46
35733 Off ch=13 n=62 v=64
35733 On ch=13 n=61 v=45
35786 Off ch=13 n=61 v=64
35786 On ch=13 n=59 v=43
35840 Off ch=13 n=59 v=64
35840 On ch=13 n=61 v=41
35918 On ch=13 n=57 v=39
35929 Off ch=13 n=61 v=64
36000 Off ch=13 n=57 v=64
36000 On ch=13 n=59 v=36
37096 Off ch=13 n=59 v=64
45600 On ch=13 n=80 v=44
45628 Off ch=13 n=80 v=64
45630 On ch=13 n=80 v=45
45658 Off ch=13 n=80 v=64
45660 On ch=13 n=80 v=46
45688 Off ch=13 n=80 v=64
45690 On ch=13 n=80 v=47
45718 Off ch=13 n=80 v=64
45720 On ch=13 n=80 v=47
45748 Off ch=13 n=80 v=64
45750 On ch=13 n=80 v=48
45778 Off ch=13 n=80 v=64
45780 On ch=13 n=80 v=49
45808 Off ch=13 n=80 v=64
45810 On ch=13 n=80 v=50
45838 Off ch=13 n=80 v=64
45840 On ch=13 n=80 v=51
45894 Off ch=13 n=80 v=64
46080 On ch=13 n=80 v=44
46108 Off ch=13 n=80 v=64
46110 On ch=13 n=80 v=45
46138 Off ch=13 n=80 v=64
46140 On ch=13 n=80 v=46
46168 Off ch=13 n=80 v=64
46170 On ch=13 n=80 v=47
46198 Off ch=13 n=80 v=64
46200 On ch=13 n=80 v=47
46228 Off ch=13 n=80 v=64
46230 On ch=13 n=80 v=48
46258 Off ch=13 n=80 v=64
46260 On ch=13 n=80 v=49
46288 Off ch=13 n=80 v=64
46290 On ch=13 n=80 v=50
46318 Off ch=13 n=80 v=64
46320 On ch=13 n=80 v=51
46374 Off ch=13 n=80 v=64
46560 On ch=13 n=80 v=44
46588 Off ch=13 n=80 v=64
46590 On ch=13 n=80 v=45
46618 Off ch=13 n=80 v=64
46620 On ch=13 n=80 v=46
46648 Off ch=13 n=80 v=64
46650 On ch=13 n=80 v=47
46678 Off ch=13 n=80 v=64
46680 On ch=13 n=80 v=47
46708 Off ch=13 n=80 v=64
46710 On ch=13 n=80 v=48
46738 Off ch=13 n=80 v=64
46740 On ch=13 n=80 v=49
46768 Off ch=13 n=80 v=64
46770 On ch=13 n=80 v=50
46798 Off ch=13 n=80 v=64
46800 On ch=13 n=80 v=51
46854 Off ch=13 n=80 v=64
48000 On ch=13 n=80 v=44
48028 Off ch=13 n=80 v=64
48030 On ch=13 n=80 v=45
48058 Off ch=13 n=80 v=64
48060 On ch=13 n=80 v=46
48088 Off ch=13 n=80 v=64
48090 On ch=13 n=80 v=47
48118 Off ch=13 n=80 v=64
48120 On ch=13 n=80 v=47
48148 Off ch=13 n=80 v=64
48150 On ch=13 n=80 v=48
48178 Off ch=13 n=80 v=64
48180 On ch=13 n=80 v=49
48208 Off ch=13 n=80 v=64
48210 On ch=13 n=80 v=50
48238 Off ch=13 n=80 v=64
48240 On ch=13 n=80 v=51
48294 Off ch=13 n=80 v=64
48480 On ch=13 n=80 v=44
48508 Off ch=13 n=80 v=64
48510 On ch=13 n=80 v=45
48538 Off ch=13 n=80 v=64
48540 On ch=13 n=80 v=46
48568 Off ch=13 n=80 v=64
48570 On ch=13 n=80 v=47
48598 Off ch=13 n=80 v=64
48600 On ch=13 n=80 v=47
48628 Off ch=13 n=80 v=64
48630 On ch=13 n=80 v=48
48658 Off ch=13 n=80 v=64
48660 On ch=13 n=80 v=49
48688 Off ch=13 n=80 v=64
48690 On ch=13 n=80 v=50
48718 Off ch=13 n=80 v=64
48720 On ch=13 n=80 v=51
48774 Off ch=13 n=80 v=64
50880 On ch=13 n=62 v=42
52000 On ch=13 n=64 v=42
52012 Off ch=13 n=62 v=64
52160 Off ch=13 n=64 v=64
52160 On ch=13 n=65 v=42
52296 On ch=13 n=69 v=42
52320 Off ch=13 n=65 v=64
52320 On ch=13 n=67 v=42
52348 Off ch=13 n=69 v=64
52400 Off ch=13 n=67 v=64
52400 On ch=13 n=65 v=41
52480 Off ch=13 n=65 v=64
52480 On ch=13 n=64 v=40
52560 Off ch=13 n=64 v=64
52560 On ch=13 n=62 v=39
52640 Off ch=13 n=62 v=64
52640 On ch=13 n=64 v=38
52720 Off ch=13 n=64 v=64
52720 On ch=13 n=60 v=38
52800 Off ch=13 n=60 v=64
52800 On ch=13 n=62 v=42
53280 Off ch=13 n=62 v=64
53280 On ch=13 n=64 v=42
53520 Off ch=13 n=64 v=64
53520 On ch=13 n=65 v=38
53728 Off ch=13 n=65 v=64
53760 On ch=13 n=64 v=42
54000 Off ch=13 n=64 v=64
54000 On ch=13 n=66 v=37
54208 Off ch=13 n=66 v=64
54216 On ch=13 n=69 v=42
54240 On ch=13 n=67 v=42
54272 Off ch=13 n=69 v=64
54320 Off ch=13 n=67 v=64
54320 On ch=13 n=66 v=40
54400 Off ch=13 n=66 v=64
54400 On ch=13 n=64 v=39
54480 Off ch=13 n=64 v=64
54480 On ch=13 n=66 v=38
54540 On ch=13 n=62 v=37
54556 Off ch=13 n=66 v=64
54600 On ch=13 n=64 v=37
54616 Off ch=13 n=62 v=64
54660 On ch=13 n=60 v=36
54676 Off ch=13 n=64 v=64
54720 On ch=13 n=62 v=42
54736 Off ch=13 n=60 v=64
54780 On ch=13 n=64 v=41
54796 Off ch=13 n=62 v=64
54840 On ch=13 n=69 v=41
54856 Off ch=13 n=64 v=64
54900 On ch=13 n=67 v=40
54916 Off ch=13 n=69 v=64
54960 On ch=13 n=66 v=40
54976 Off ch=13 n=67 v=64
55020 On ch=13 n=64 v=40
55036 Off ch=13 n=66 v=64
55080 On ch=13 n=66 v=39
55096 Off ch=13 n=64 v=64
55140 On ch=13 n=62 v=39
55156 Off ch=13 n=66 v=64
55200 On ch=13 n=64 v=38
55216 Off ch=13 n=62 v=64
55260 On ch=13 n=66 v=38
55276 Off ch=13 n=64 v=64
55320 On ch=13 n=69 v=38
55336 Off ch=13 n=66 v=64
55380 On ch=13 n=67 v=37
55396 Off ch=13 n=69 v=64
55440 On ch=13 n=66 v=37
55456 Off ch=13 n=67 v=64
55500 On ch=13 n=64 v=36
55516 Off ch=13 n=66 v=64
55560 On ch=13 n=66 v=36
55576 Off ch=13 n=64 v=64
55620 On ch=13 n=62 v=36
55636 Off ch=13 n=66 v=64
55680 On ch=13 n=64 v=42
55696 Off ch=13 n=62 v=64
55740 On ch=13 n=66 v=41
55756 Off ch=13 n=64 v=64
55800 On ch=13 n=69 v=40
55816 Off ch=13 n=66 v=64
55860 On ch=13 n=67 v=40
55876 Off ch=13 n=69 v=64
55920 On ch=13 n=66 v=39
55936 Off ch=13 n=67 v=64
55980 On ch=13 n=64 v=39
55996 Off ch=13 n=66 v=64
56040 On ch=13 n=66 v=38
56056 Off ch=13 n=64 v=64
56100 On ch=13 n=62 v=38
56116 Off ch=13 n=66 v=64
56160 On ch=13 n=64 v=37
56176 Off ch=13 n=62 v=64
56208 On ch=13 n=66 v=37
56224 Off ch=13 n=64 v=64
56256 On ch=13 n=69 v=37
56272 Off ch=13 n=66 v=64
56304 On ch=13 n=67 v=36
56320 Off ch=13 n=69 v=64
56352 On ch=13 n=66 v=36
56368 Off ch=13 n=67 v=64
56400 On ch=13 n=64 v=35
56416 Off ch=13 n=66 v=64
56448 On ch=13 n=66 v=35
56464 Off ch=13 n=64 v=64
56496 On ch=13 n=62 v=35
56512 Off ch=13 n=66 v=64
56544 On ch=13 n=64 v=34
56560 Off ch=13 n=62 v=64
56592 On ch=13 n=60 v=34
56608 Off ch=13 n=64 v=64
56640 On ch=13 n=62 v=37
56656 Off ch=13 n=60 v=64
56688 Off ch=13 n=62 v=64
56688 On ch=13 n=64 v=37
56736 Off ch=13 n=64 v=64
56736 On ch=13 n=66 v=36
56784 Off ch=13 n=66 v=64
56784 On ch=13 n=69 v=36
56832 Off ch=13 n=69 v=64
56832 On ch=13 n=67 v=35
56880 Off ch=13 n=67 v=64
56880 On ch=13 n=66 v=34
56928 Off ch=13 n=66 v=64
56928 On ch=13 n=64 v=34
56976 Off ch=13 n=64 v=64
56976 On ch=13 n=62 v=33
57024 Off ch=13 n=62 v=64
57024 On ch=13 n=64 v=32
57072 Off ch=13 n=64 v=64
57072 On ch=13 n=60 v=32
57120 Off ch=13 n=60 v=64
57120 On ch=13 n=62 v=38
57189 Off ch=13 n=62 v=64
57240 On ch=13 n=64 v=38
57309 Off ch=13 n=64 v=64
57360 On ch=13 n=66 v=38
57429 Off ch=13 n=66 v=64
57453 On ch=13 n=69 v=38
57480 On ch=13 n=67 v=38
57493 Off ch=13 n=69 v=64
57520 Off ch=13 n=67 v=64
57520 On ch=13 n=66 v=38
57560 Off ch=13 n=66 v=64
57560 On ch=13 n=64 v=38
57600 Off ch=13 n=64 v=64
57600 On ch=13 n=66 v=38
57630 On ch=13 n=67 v=37
57640 Off ch=13 n=66 v=64
57660 On ch=13 n=66 v=37
57670 Off ch=13 n=67 v=64
57690 On ch=13 n=67 v=36
57700 Off ch=13 n=66 v=64
57720 On ch=13 n=66 v=36
57730 Off ch=13 n=67 v=64
57750 On ch=13 n=67 v=36
57760 Off ch=13 n=66 v=64
57780 On ch=13 n=66 v=35
57790 Off ch=13 n=67 v=64
57810 On ch=13 n=67 v=35
57820 Off ch=13 n=66 v=64
57840 On ch=13 n=66 v=34
57850 Off ch=13 n=67 v=64
57870 On ch=13 n=67 v=34
57880 Off ch=13 n=66 v=64
57918 Off ch=13 n=67 v=64
57920 On ch=13 n=66 v=33
57960 Off ch=13 n=66 v=64
57960 On ch=13 n=62 v=33
58000 Off ch=13 n=62 v=64
58000 On ch=13 n=64 v=32
58040 Off ch=13 n=64 v=64
58040 On ch=13 n=60 v=32
58080 Off ch=13 n=60 v=64
58080 On ch=13 n=62 v=38
58110 On ch=13 n=64 v=37
58120 Off ch=13 n=62 v=64
58140 On ch=13 n=62 v=37
58150 Off ch=13 n=64 v=64
58170 On ch=13 n=64 v=37
58180 Off ch=13 n=62 v=64
58200 On ch=13 n=62 v=36
58210 Off ch=13 n=64 v=64
58230 On ch=13 n=64 v=36
58240 Off ch=13 n=62 v=64
58260 On ch=13 n=62 v=36
58270 Off ch=13 n=64 v=64
58290 On ch=13 n=64 v=36
58300 Off ch=13 n=62 v=64
58320 On ch=13 n=62 v=35
58330 Off ch=13 n=64 v=64
58350 On ch=13 n=64 v=35
58360 Off ch=13 n=62 v=64
58380 On ch=13 n=62 v=35
58390 Off ch=13 n=64 v=64
58410 On ch=13 n=64 v=35
58420 Off ch=13 n=62 v=64
58440 On ch=13 n=62 v=34
58450 Off ch=13 n=64 v=64
58470 On ch=13 n=64 v=34
58480 Off ch=13 n=62 v=64
58500 On ch=13 n=62 v=34
58510 Off ch=13 n=64 v=64
58530 On ch=13 n=64 v=34
58540 Off ch=13 n=62 v=64
58560 On ch=13 n=62 v=38
58570 Off ch=13 n=64 v=64
58608 Off ch=13 n=62 v=64
58608 On ch=13 n=64 v=37
58656 Off ch=13 n=64 v=64
58656 On ch=13 n=66 v=36
58704 Off ch=13 n=66 v=64
58704 On ch=13 n=69 v=36
58752 Off ch=13 n=69 v=64
58752 On ch=13 n=67 v=35
58800 Off ch=13 n=67 v=64
58800 On ch=13 n=66 v=34
58848 Off ch=13 n=66 v=64
58848 On ch=13 n=64 v=34
58896 Off ch=13 n=64 v=64
58896 On ch=13 n=62 v=33
58944 Off ch=13 n=62 v=64
58944 On ch=13 n=64 v=32
58992 Off ch=13 n=64 v=64
58992 On ch=13 n=60 v=32
59040 Off ch=13 n=60 v=64
59040 On ch=13 n=62 v=38
59070 On ch=13 n=64 v=37
59080 Off ch=13 n=62 v=64
59100 On ch=13 n=62 v=37
59110 Off ch=13 n=64 v=64
59130 On ch=13 n=64 v=37
59140 Off ch=13 n=62 v=64
59160 On ch=13 n=62 v=36
59170 Off ch=13 n=64 v=64
59190 On ch=13 n=64 v=36
59200 Off ch=13 n=62 v=64
59220 On ch=13 n=62 v=36
59230 Off ch=13 n=64 v=64
59250 On ch=13 n=64 v=36
59260 Off ch=13 n=62 v=64
59280 On ch=13 n=62 v=35
59290 Off ch=13 n=64 v=64
59310 On ch=13 n=64 v=35
59320 Off ch=13 n=62 v=64
59340 On ch=13 n=62 v=35
59350 Off ch=13 n=64 v=64
59370 On ch=13 n=64 v=35
59380 Off ch=13 n=62 v=64
59400 On ch=13 n=62 v=34
59410 Off ch=13 n=64 v=64
59430 On ch=13 n=64 v=34
59440 Off ch=13 n=62 v=64
59460 On ch=13 n=62 v=34
59470 Off ch=13 n=64 v=64
59490 On ch=13 n=64 v=34
59500 Off ch=13 n=62 v=64
59520 On ch=13 n=62 v=38
59530 Off ch=13 n=64 v=64
59568 Off ch=13 n=62 v=64
59568 On ch=13 n=64 v=37
59616 Off ch=13 n=64 v=64
59616 On ch=13 n=66 v=36
59664 Off ch=13 n=66 v=64
59664 On ch=13 n=69 v=36
59712 Off ch=13 n=69 v=64
59712 On ch=13 n=67 v=35
59760 Off ch=13 n=67 v=64
59760 On ch=13 n=66 v=34
59808 Off ch=13 n=66 v=64
59808 On ch=13 n=64 v=34
59856 Off ch=13 n=64 v=64
59856 On ch=13 n=62 v=33
59904 Off ch=13 n=62 v=64
59904 On ch=13 n=64 v=32
59952 Off ch=13 n=64 v=64
59952 On ch=13 n=60 v=32
60000 Off ch=13 n=60 v=64
60000 On ch=13 n=62 v=38
60030 On ch=13 n=64 v=37
60040 Off ch=13 n=62 v=64
60060 On ch=13 n=62 v=37
60070 Off ch=13 n=64 v=64
60090 On ch=13 n=64 v=36
60100 Off ch=13 n=62 v=64
60120 On ch=13 n=62 v=36
60130 Off ch=13 n=64 v=64
60150 On ch=13 n=64 v=36
60160 Off ch=13 n=62 v=64
60180 On ch=13 n=62 v=35
60190 Off ch=13 n=64 v=64
60210 On ch=13 n=64 v=35
60220 Off ch=13 n=62 v=64
60240 On ch=13 n=62 v=34
60250 Off ch=13 n=64 v=64
60270 On ch=13 n=64 v=34
60280 Off ch=13 n=62 v=64
60300 On ch=13 n=62 v=34
60310 Off ch=13 n=64 v=64
60330 On ch=13 n=64 v=33
60340 Off ch=13 n=62 v=64
60360 On ch=13 n=62 v=33
60370 Off ch=13 n=64 v=64
60390 On ch=13 n=64 v=33
60400 Off ch=13 n=62 v=64
60420 On ch=13 n=62 v=32
60430 Off ch=13 n=64 v=64
60450 On ch=13 n=64 v=32
60460 Off ch=13 n=62 v=64
60480 On ch=13 n=62 v=38
60490 Off ch=13 n=64 v=64
60528 Off ch=13 n=62 v=64
60528 On ch=13 n=64 v=37
60576 Off ch=13 n=64 v=64
60576 On ch=13 n=66 v=36
60624 Off ch=13 n=66 v=64
60624 On ch=13 n=69 v=36
60672 Off ch=13 n=69 v=64
60672 On ch=13 n=67 v=35
60720 Off ch=13 n=67 v=64
60720 On ch=13 n=66 v=34
60768 Off ch=13 n=66 v=64
60768 On ch=13 n=64 v=34
60816 Off ch=13 n=64 v=64
60816 On ch=13 n=62 v=33
60864 Off ch=13 n=62 v=64
60864 On ch=13 n=64 v=32
60912 Off ch=13 n=64 v=64
60912 On ch=13 n=60 v=32
60960 Off ch=13 n=60 v=64
60960 On ch=13 n=62 v=38
61004 Off ch=13 n=62 v=64
61040 On ch=13 n=64 v=38
61084 Off ch=13 n=64 v=64
61120 On ch=13 n=66 v=38
61164 Off ch=13 n=66 v=64
61179 On ch=13 n=69 v=38
61200 On ch=13 n=67 v=37
61223 Off ch=13 n=69 v=64
61280 Off ch=13 n=67 v=64
61280 On ch=13 n=66 v=35
61360 Off ch=13 n=66 v=64
61360 On ch=13 n=64 v=32
61440 Off ch=13 n=64 v=64
61440 On ch=13 n=66 v=40
61470 On ch=13 n=67 v=39
61480 Off ch=13 n=66 v=64
61500 On ch=13 n=66 v=38
61510 Off ch=13 n=67 v=64
61530 On ch=13 n=67 v=38
61540 Off ch=13 n=66 v=64
61560 On ch=13 n=66 v=37
61570 Off ch=13 n=67 v=64
61590 On ch=13 n=67 v=37
61600 Off ch=13 n=66 v=64
61620 On ch=13 n=66 v=36
61630 Off ch=13 n=67 v=64
61650 On ch=13 n=67 v=36
61660 Off ch=13 n=66 v=64
61680 On ch=13 n=66 v=35
61690 Off ch=13 n=67 v=64
61710 On ch=13 n=67 v=35
61720 Off ch=13 n=66 v=64
61760 On ch=13 n=66 v=34
61762 Off ch=13 n=67 v=64
61800 Off ch=13 n=66 v=64
61800 On ch=13 n=62 v=33
61840 Off ch=13 n=62 v=64
61840 On ch=13 n=64 v=32
61880 Off ch=13 n=64 v=64
61880 On ch=13 n=60 v=32
61920 Off ch=13 n=60 v=64
61920 On ch=13 n=62 v=40
61968 Off ch=13 n=62 v=64
61968 On ch=13 n=64 v=39
62016 Off ch=13 n=64 v=64
62016 On ch=13 n=66 v=38
62064 Off ch=13 n=66 v=64
62064 On ch=13 n=69 v=37
62112 Off ch=13 n=69 v=64
62112 On ch=13 n=67 v=36
62160 Off ch=13 n=67 v=64
62160 On ch=13 n=66 v=35
62208 Off ch=13 n=66 v=64
62208 On ch=13 n=64 v=35
62256 Off ch=13 n=64 v=64
62256 On ch=13 n=62 v=34
62304 Off ch=13 n=62 v=64
62304 On ch=13 n=64 v=33
62352 Off ch=13 n=64 v=64
62352 On ch=13 n=60 v=32
62400 Off ch=13 n=60 v=64
62400 On ch=13 n=62 v=38
62448 Off ch=13 n=62 v=64
62448 On ch=13 n=64 v=39
62496 Off ch=13 n=64 v=64
62496 On ch=13 n=66 v=38
62544 Off ch=13 n=66 v=64
62544 On ch=13 n=69 v=37
62592 Off ch=13 n=69 v=64
62592 On ch=13 n=67 v=36
62640 Off ch=13 n=67 v=64
62640 On ch=13 n=66 v=35
62688 Off ch=13 n=66 v=64
62688 On ch=13 n=64 v=34
62736 Off ch=13 n=64 v=64
62736 On ch=13 n=62 v=33
62784 Off ch=13 n=62 v=64
62784 On ch=13 n=64 v=32
62832 Off ch=13 n=64 v=64
62832 On ch=13 n=60 v=31
62880 Off ch=13 n=60 v=64
62880 On ch=13 n=62 v=30
63000 Off ch=13 n=62 v=64
66480 On ch=13 n=89 v=54
66506 Off ch=13 n=89 v=64
66514 On ch=13 n=88 v=54
66540 Off ch=13 n=88 v=64
66548 On ch=13 n=87 v=54
66574 Off ch=13 n=87 v=64
66582 On ch=13 n=86 v=54
66609 Off ch=13 n=86 v=64
66617 On ch=13 n=85 v=54
66643 Off ch=13 n=85 v=64
66651 On ch=13 n=84 v=54
66677 Off ch=13 n=84 v=64
66685 On ch=13 n=83 v=54
66712 Off ch=13 n=83 v=64
66720 On ch=13 n=82 v=54
66796 Off ch=13 n=82 v=64
68160 On ch=13 n=89 v=54
68184 Off ch=13 n=89 v=64
68194 On ch=13 n=88 v=54
68218 Off ch=13 n=88 v=64
68228 On ch=13 n=87 v=54
68252 Off ch=13 n=87 v=64
68262 On ch=13 n=86 v=54
68287 Off ch=13 n=86 v=64
68297 On ch=13 n=85 v=54
68321 Off ch=13 n=85 v=64
68331 On ch=13 n=84 v=54
68355 Off ch=13 n=84 v=64
68365 On ch=13 n=83 v=54
68390 Off ch=13 n=83 v=64
68400 On ch=13 n=82 v=54
68472 Off ch=13 n=82 v=64
68880 On ch=13 n=65 v=52
68940 Off ch=13 n=65 v=64
68940 On ch=13 n=72 v=53
69000 Off ch=13 n=72 v=64
69000 On ch=13 n=77 v=54
69060 Off ch=13 n=77 v=64
69060 On ch=13 n=82 v=56
69120 Off ch=13 n=82 v=64
69120 On ch=13 n=89 v=57
69168 Off ch=13 n=89 v=64
69168 On ch=13 n=84 v=56
69216 Off ch=13 n=84 v=64
69216 On ch=13 n=87 v=54
69264 Off ch=13 n=87 v=64
69264 On ch=13 n=82 v=52
69312 Off ch=13 n=82 v=64
69312 On ch=13 n=77 v=50
69360 Off ch=13 n=77 v=64
69360 On ch=13 n=70 v=47
69460 Off ch=13 n=70 v=64
69600 On ch=13 n=89 v=54
69624 Off ch=13 n=89 v=64
69634 On ch=13 n=88 v=54
69658 Off ch=13 n=88 v=64
69668 On ch=13 n=87 v=54
69692 Off ch=13 n=87 v=64
69702 On ch=13 n=86 v=54
69727 Off ch=13 n=86 v=64
69737 On ch=13 n=85 v=54
69761 Off ch=13 n=85 v=64
69771 On ch=13 n=84 v=54
69795 Off ch=13 n=84 v=64
69805 On ch=13 n=83 v=54
69830 Off ch=13 n=83 v=64
69840 On ch=13 n=82 v=54
69912 Off ch=13 n=82 v=64
70320 On ch=13 n=65 v=48
70368 Off ch=13 n=65 v=64
70368 On ch=13 n=72 v=50
70416 Off ch=13 n=72 v=64
70416 On ch=13 n=77 v=52
70464 Off ch=13 n=77 v=64
70464 On ch=13 n=82 v=54
70512 Off ch=13 n=82 v=64
70512 On ch=13 n=87 v=55
70560 Off ch=13 n=87 v=64
70560 On ch=13 n=89 v=57
70608 Off ch=13 n=89 v=64
70608 On ch=13 n=84 v=55
70656 On ch=13 n=87 v=53
70657 Off ch=13 n=84 v=64
70704 On ch=13 n=82 v=51
70705 Off ch=13 n=87 v=64
70752 On ch=13 n=77 v=49
70753 Off ch=13 n=82 v=64
70800 On ch=13 n=70 v=46
70801 Off ch=13 n=77 v=64
70896 Off ch=13 n=70 v=64
71040 On ch=13 n=65 v=34
71088 Off ch=13 n=65 v=64
71088 On ch=13 n=72 v=36
71136 Off ch=13 n=72 v=64
71136 On ch=13 n=77 v=38
71184 Off ch=13 n=77 v=64
71184 On ch=13 n=82 v=40
71232 Off ch=13 n=82 v=64
71232 On ch=13 n=87 v=43
71280 Off ch=13 n=87 v=64
71280 On ch=13 n=65 v=44
71280 On ch=13 n=89 v=44
71328 Off ch=13 n=65 v=64
71328 Off ch=13 n=89 v=64
71328 On ch=13 n=72 v=44
71328 On ch=13 n=84 v=44
71376 Off ch=13 n=72 v=64
71376 Off ch=13 n=84 v=64
71376 On ch=13 n=77 v=44
71376 On ch=13 n=87 v=44
71424 Off ch=13 n=77 v=64
71424 Off ch=13 n=87 v=64
71424 On ch=13 n=82 v=44
71472 Off ch=13 n=82 v=64
71472 On ch=13 n=87 v=44
71472 On ch=13 n=77 v=44
71520 Off ch=13 n=87 v=64
71520 Off ch=13 n=77 v=64
71520 On ch=13 n=89 v=44
71520 On ch=13 n=70 v=44
71568 Off ch=13 n=89 v=64
71568 On ch=13 n=84 v=42
71616 Off ch=13 n=84 v=64
71616 On ch=13 n=87 v=39
71664 Off ch=13 n=87 v=64
71664 On ch=13 n=82 v=37
71692 Off ch=13 n=70 v=64
71712 Off ch=13 n=82 v=64
71712 On ch=13 n=77 v=35
71760 Off ch=13 n=77 v=64
71760 On ch=13 n=65 v=34
71760 On ch=13 n=70 v=34
71808 Off ch=13 n=65 v=64
71808 Off ch=13 n=70 v=64
71808 On ch=13 n=72 v=36
71856 Off ch=13 n=72 v=64
71856 On ch=13 n=77 v=38
71904 Off ch=13 n=77 v=64
71904 On ch=13 n=82 v=40
71952 Off ch=13 n=82 v=64
71952 On ch=13 n=87 v=41
72000 Off ch=13 n=87 v=64
72000 On ch=13 n=89 v=43
72048 Off ch=13 n=89 v=64
72048 On ch=13 n=84 v=42
72096 Off ch=13 n=84 v=64
72096 On ch=13 n=87 v=41
72144 Off ch=13 n=87 v=64
72144 On ch=13 n=82 v=39
72192 Off ch=13 n=82 v=64
72192 On ch=13 n=77 v=38
72240 Off ch=13 n=77 v=64
72240 On ch=13 n=70 v=36
72240 On ch=13 n=65 v=36
72288 Off ch=13 n=65 v=64
72288 On ch=13 n=72 v=37
72336 Off ch=13 n=72 v=64
72336 On ch=13 n=77 v=38
72384 Off ch=13 n=77 v=64
72384 On ch=13 n=82 v=40
72416 Off ch=13 n=70 v=64
72432 Off ch=13 n=82 v=64
72432 On ch=13 n=87 v=42
72480 Off ch=13 n=87 v=64
72480 On ch=13 n=89 v=44
72528 Off ch=13 n=89 v=64
72528 On ch=13 n=84 v=44
72576 Off ch=13 n=84 v=64
72576 On ch=13 n=87 v=44
72624 Off ch=13 n=87 v=64
72624 On ch=13 n=82 v=44
72672 Off ch=13 n=82 v=64
72672 On ch=13 n=77 v=44
72720 Off ch=13 n=77 v=64
72720 On ch=13 n=70 v=44
72720 On ch=13 n=89 v=44
72768 Off ch=13 n=89 v=64
72768 On ch=13 n=84 v=44
72816 Off ch=13 n=84 v=64
72816 On ch=13 n=87 v=44
72864 Off ch=13 n=87 v=64
72864 On ch=13 n=82 v=44
72896 Off ch=13 n=70 v=64
72912 Off ch=13 n=82 v=64
72912 On ch=13 n=77 v=44
72960 Off ch=13 n=77 v=64
72960 On ch=13 n=65 v=44
72960 On ch=13 n=70 v=44
73008 Off ch=13 n=65 v=64
73008 Off ch=13 n=70 v=64
73008 On ch=13 n=72 v=44
73056 Off ch=13 n=72 v=64
73056 On ch=13 n=77 v=44
73104 Off ch=13 n=77 v=64
73104 On ch=13 n=82 v=44
73152 Off ch=13 n=82 v=64
73152 On ch=13 n=87 v=44
73200 Off ch=13 n=87 v=64
73200 On ch=13 n=65 v=44
73200 On ch=13 n=89 v=44
73248 Off ch=13 n=65 v=64
73248 Off ch=13 n=89 v=64
73248 On ch=13 n=84 v=44
73248 On ch=13 n=72 v=44
73296 Off ch=13 n=84 v=64
73296 Off ch=13 n=72 v=64
73296 On ch=13 n=77 v=44
73296 On ch=13 n=87 v=44
73344 Off ch=13 n=77 v=64
73344 Off ch=13 n=87 v=64
73344 On ch=13 n=82 v=44
73392 Off ch=13 n=82 v=64
73392 On ch=13 n=77 v=44
73392 On ch=13 n=87 v=44
73440 Off ch=13 n=77 v=64
73440 Off ch=13 n=87 v=64
111840 On ch=13 n=96 v=48
111880 Off ch=13 n=96 v=64
111920 On ch=13 n=95 v=47
111960 Off ch=13 n=95 v=64
112000 On ch=13 n=94 v=47
112040 Off ch=13 n=94 v=64
112080 On ch=13 n=93 v=46
112120 Off ch=13 n=93 v=64
112160 On ch=13 n=92 v=45
112200 Off ch=13 n=92 v=64
112240 On ch=13 n=91 v=44
112280 Off ch=13 n=91 v=64
112320 On ch=13 n=90 v=43
112360 Off ch=13 n=90 v=64
112400 On ch=13 n=89 v=42
112440 Off ch=13 n=89 v=64
112480 On ch=13 n=88 v=41
112520 Off ch=13 n=88 v=64
112560 On ch=13 n=87 v=40
112600 Off ch=13 n=87 v=64
112640 On ch=13 n=86 v=40
112680 Off ch=13 n=86 v=64
112720 On ch=13 n=85 v=39
112760 Off ch=13 n=85 v=64
112800 On ch=13 n=84 v=38
112840 Off ch=13 n=84 v=64
114960 On ch=13 n=68 v=38
115000 Off ch=13 n=68 v=64
115040 On ch=13 n=69 v=37
115080 Off ch=13 n=69 v=64
115120 On ch=13 n=70 v=37
115160 Off ch=13 n=70 v=64
115200 On ch=13 n=71 v=37
115240 Off ch=13 n=71 v=64
115280 On ch=13 n=72 v=37
115320 Off ch=13 n=72 v=64
115360 On ch=13 n=73 v=37
115400 Off ch=13 n=73 v=64
115440 On ch=13 n=74 v=38
115480 Off ch=13 n=74 v=64
115520 On ch=13 n=75 v=38
115560 Off ch=13 n=75 v=64
115600 On ch=13 n=76 v=38
115640 Off ch=13 n=76 v=64
115680 On ch=13 n=77 v=38
115720 Off ch=13 n=77 v=64
116640 On ch=13 n=84 v=46
116640 On ch=13 n=65 v=46
116680 Off ch=13 n=84 v=64
116680 Off ch=13 n=65 v=64
116720 On ch=13 n=85 v=45
116720 On ch=13 n=66 v=45
116760 Off ch=13 n=85 v=64
116760 Off ch=13 n=66 v=64
116800 On ch=13 n=86 v=44
116800 On ch=13 n=67 v=44
116840 Off ch=13 n=86 v=64
116840 Off ch=13 n=67 v=64
116880 On ch=13 n=87 v=43
116880 On ch=13 n=68 v=43
116920 Off ch=13 n=87 v=64
116920 Off ch=13 n=68 v=64
116960 On ch=13 n=88 v=42
116960 On ch=13 n=69 v=42
117000 Off ch=13 n=88 v=64
117000 Off ch=13 n=69 v=64
117040 On ch=13 n=89 v=41
117040 On ch=13 n=70 v=41
117080 Off ch=13 n=89 v=64
117080 Off ch=13 n=70 v=64
117120 On ch=13 n=90 v=40
117120 On ch=13 n=71 v=40
117160 Off ch=13 n=90 v=64
117160 Off ch=13 n=71 v=64
117200 On ch=13 n=91 v=39
117200 On ch=13 n=72 v=39
117240 Off ch=13 n=91 v=64
117240 Off ch=13 n=72 v=64
117280 On ch=13 n=92 v=38
117280 On ch=13 n=73 v=38
117320 Off ch=13 n=92 v=64
117320 Off ch=13 n=73 v=64
117360 On ch=13 n=93 v=37
117360 On ch=13 n=74 v=37
117400 Off ch=13 n=93 v=64
117400 Off ch=13 n=74 v=64
195360 Par ch=13 c=0 v=0
195360 Par ch=13 c=32 v=1
195360 PrCh ch=13 p=71
197256 Par ch=13 c=7 v=76
197280 On ch=13 n=75 v=56
197280 On ch=13 n=73 v=42
197310 Off ch=13 n=75 v=64
197340 On ch=13 n=75 v=41
197370 Off ch=13 n=73 v=64
197400 On ch=13 n=82 v=52
197400 On ch=13 n=73 v=40
197430 Off ch=13 n=75 v=64
197430 Off ch=13 n=82 v=64
197460 On ch=13 n=75 v=39
197490 Off ch=13 n=73 v=64
197520 On ch=13 n=78 v=48
197520 On ch=13 n=73 v=39
197550 Off ch=13 n=75 v=64
197550 Off ch=13 n=78 v=64
197580 On ch=13 n=75 v=38
197610 Off ch=13 n=73 v=64
197640 On ch=13 n=72 v=43
197640 On ch=13 n=73 v=37
197670 Off ch=13 n=75 v=64
197670 Off ch=13 n=72 v=64
197700 On ch=13 n=75 v=36
197730 Off ch=13 n=73 v=64
197760 On ch=13 n=77 v=54
197760 On ch=13 n=73 v=44
197790 Off ch=13 n=75 v=64
197790 Off ch=13 n=77 v=64
197820 On ch=13 n=75 v=43
197850 Off ch=13 n=73 v=64
197880 On ch=13 n=82 v=51
197880 On ch=13 n=73 v=42
197910 Off ch=13 n=75 v=64
197910 Off ch=13 n=82 v=64
197940 On ch=13 n=75 v=41
197970 Off ch=13 n=73 v=64
198000 On ch=13 n=80 v=47
198000 On ch=13 n=73 v=40
198030 Off ch=13 n=75 v=64
198030 Off ch=13 n=80 v=64
198060 On ch=13 n=75 v=39
198090 Off ch=13 n=73 v=64
198120 On ch=13 n=72 v=43
198120 On ch=13 n=73 v=38
198150 Off ch=13 n=75 v=64
198150 Off ch=13 n=72 v=64
198180 On ch=13 n=75 v=37
198210 Off ch=13 n=73 v=64
198240 On ch=13 n=75 v=56
198240 On ch=13 n=73 v=42
198270 Off ch=13 n=75 v=64
198270 Off ch=13 n=75 v=64
198300 On ch=13 n=75 v=41
198330 Off ch=13 n=73 v=64
198360 On ch=13 n=82 v=52
198360 On ch=13 n=73 v=40
198390 Off ch=13 n=75 v=64
198390 Off ch=13 n=82 v=64
198420 On ch=13 n=75 v=39
198450 Off ch=13 n=73 v=64
198480 On ch=13 n=78 v=47
198480 On ch=13 n=73 v=39
198510 Off ch=13 n=75 v=64
198510 Off ch=13 n=78 v=64
198540 On ch=13 n=75 v=38
198570 Off ch=13 n=73 v=64
198600 On ch=13 n=72 v=43
198600 On ch=13 n=73 v=37
198630 Off ch=13 n=75 v=64
198630 Off ch=13 n=72 v=64
198660 On ch=13 n=75 v=36
198690 Off ch=13 n=73 v=64
198720 On ch=13 n=77 v=54
198720 On ch=13 n=73 v=44
198750 Off ch=13 n=75 v=64
198750 Off ch=13 n=77 v=64
198780 On ch=13 n=75 v=43
198810 Off ch=13 n=73 v=64
198840 On ch=13 n=82 v=51
198840 On ch=13 n=73 v=42
198870 Off ch=13 n=75 v=64
198870 Off ch=13 n=82 v=64
198900 On ch=13 n=75 v=41
198930 Off ch=13 n=73 v=64
198960 On ch=13 n=80 v=48
198960 On ch=13 n=73 v=40
198990 Off ch=13 n=75 v=64
198990 Off ch=13 n=80 v=64
199020 On ch=13 n=75 v=39
199050 Off ch=13 n=73 v=64
199080 On ch=13 n=72 v=45
199080 On ch=13 n=73 v=38
199110 Off ch=13 n=75 v=64
199110 Off ch=13 n=72 v=64
199140 On ch=13 n=75 v=37
199170 Off ch=13 n=73 v=64
199200 On ch=13 n=75 v=56
199200 On ch=13 n=73 v=42
199230 Off ch=13 n=75 v=64
199230 Off ch=13 n=75 v=64
199260 On ch=13 n=75 v=41
199290 Off ch=13 n=73 v=64
199320 On ch=13 n=82 v=52
199320 On ch=13 n=73 v=40
199350 Off ch=13 n=75 v=64
199350 Off ch=13 n=82 v=64
199380 On ch=13 n=75 v=39
199410 Off ch=13 n=73 v=64
199440 On ch=13 n=78 v=48
199440 On ch=13 n=73 v=39
199470 Off ch=13 n=75 v=64
199470 Off ch=13 n=78 v=64
199500 On ch=13 n=75 v=38
199530 Off ch=13 n=73 v=64
199560 On ch=13 n=72 v=43
199560 On ch=13 n=73 v=37
199590 Off ch=13 n=75 v=64
199590 Off ch=13 n=72 v=64
199620 On ch=13 n=75 v=36
199650 Off ch=13 n=73 v=64
199680 On ch=13 n=77 v=54
199680 On ch=13 n=73 v=44
199710 Off ch=13 n=75 v=64
199710 Off ch=13 n=77 v=64
199740 On ch=13 n=75 v=43
199770 Off ch=13 n=73 v=64
199800 On ch=13 n=82 v=51
199800 On ch=13 n=73 v=42
199830 Off ch=13 n=75 v=64
199830 Off ch=13 n=82 v=64
199860 On ch=13 n=75 v=41
199890 Off ch=13 n=73 v=64
199920 On ch=13 n=80 v=47
199920 On ch=13 n=73 v=40
199950 Off ch=13 n=75 v=64
199950 Off ch=13 n=80 v=64
199980 On ch=13 n=75 v=39
200010 Off ch=13 n=73 v=64
200040 On ch=13 n=72 v=43
200040 On ch=13 n=73 v=38
200070 Off ch=13 n=75 v=64
200070 Off ch=13 n=72 v=64
200100 On ch=13 n=75 v=37
200130 Off ch=13 n=73 v=64
200160 On ch=13 n=75 v=56
200160 On ch=13 n=73 v=42
200190 Off ch=13 n=75 v=64
200190 Off ch=13 n=75 v=64
200220 On ch=13 n=75 v=41
200250 Off ch=13 n=73 v=64
200280 On ch=13 n=82 v=52
200280 On ch=13 n=73 v=40
200310 Off ch=13 n=75 v=64
200310 Off ch=13 n=82 v=64
200340 On ch=13 n=75 v=39
200370 Off ch=13 n=73 v=64
200400 On ch=13 n=78 v=47
200400 On ch=13 n=73 v=39
200430 Off ch=13 n=75 v=64
200430 Off ch=13 n=78 v=64
200460 On ch=13 n=75 v=38
200490 Off ch=13 n=73 v=64
200520 On ch=13 n=72 v=43
200520 On ch=13 n=73 v=37
200550 Off ch=13 n=75 v=64
200550 Off ch=13 n=72 v=64
200580 On ch=13 n=75 v=36
200610 Off ch=13 n=73 v=64
200640 On ch=13 n=77 v=54
200640 On ch=13 n=73 v=44
200670 Off ch=13 n=75 v=64
200670 Off ch=13 n=77 v=64
200700 On ch=13 n=75 v=43
200730 Off ch=13 n=73 v=64
200760 On ch=13 n=82 v=51
200760 On ch=13 n=73 v=42
200790 Off ch=13 n=75 v=64
200790 Off ch=13 n=82 v=64
200820 On ch=13 n=75 v=41
200850 Off ch=13 n=73 v=64
200880 On ch=13 n=80 v=48
200880 On ch=13 n=73 v=40
200910 Off ch=13 n=75 v=64
200910 Off ch=13 n=80 v=64
200940 On ch=13 n=75 v=39
200970 Off ch=13 n=73 v=64
201000 On ch=13 n=72 v=45
201000 On ch=13 n=73 v=38
201030 Off ch=13 n=75 v=64
201030 Off ch=13 n=72 v=64
201060 On ch=13 n=75 v=37
201090 Off ch=13 n=73 v=64
201120 On ch=13 n=75 v=56
201120 On ch=13 n=73 v=42
201150 Off ch=13 n=75 v=64
201150 Off ch=13 n=75 v=64
201180 On ch=13 n=75 v=41
201210 Off ch=13 n=73 v=64
201240 On ch=13 n=82 v=52
201240 On ch=13 n=73 v=40
201270 Off ch=13 n=75 v=64
201270 Off ch=13 n=82 v=64
201300 On ch=13 n=75 v=39
201330 Off ch=13 n=73 v=64
201360 On ch=13 n=78 v=48
201360 On ch=13 n=73 v=39
201390 Off ch=13 n=75 v=64
201390 Off ch=13 n=78 v=64
201420 On ch=13 n=75 v=38
201450 Off ch=13 n=73 v=64
201480 On ch=13 n=72 v=43
201480 On ch=13 n=73 v=37
201510 Off ch=13 n=75 v=64
201510 Off ch=13 n=72 v=64
201540 On ch=13 n=75 v=36
201570 Off ch=13 n=73 v=64
201600 On ch=13 n=77 v=54
201600 On ch=13 n=73 v=44
201630 Off ch=13 n=75 v=64
201630 Off ch=13 n=77 v=64
201660 On ch=13 n=75 v=43
201690 Off ch=13 n=73 v=64
201720 On ch=13 n=82 v=51
201720 On ch=13 n=73 v=42
201750 Off ch=13 n=75 v=64
201750 Off ch=13 n=82 v=64
201780 On ch=13 n=75 v=41
201810 Off ch=13 n=73 v=64
201840 On ch=13 n=80 v=47
201840 On ch=13 n=73 v=40
201870 Off ch=13 n=75 v=64
201870 Off ch=13 n=80 v=64
201900 On ch=13 n=75 v=39
201930 Off ch=13 n=73 v=64
201960 On ch=13 n=72 v=43
201960 On ch=13 n=73 v=38
201990 Off ch=13 n=75 v=64
201990 Off ch=13 n=72 v=64
202020 On ch=13 n=75 v=37
202050 Off ch=13 n=73 v=64
202080 On ch=13 n=75 v=56
202080 On ch=13 n=73 v=42
202110 Off ch=13 n=75 v=64
202110 Off ch=13 n=75 v=64
202140 On ch=13 n=75 v=41
202170 Off ch=13 n=73 v=64
202200 On ch=13 n=82 v=52
202200 On ch=13 n=73 v=40
202230 Off ch=13 n=75 v=64
202230 Off ch=13 n=82 v=64
202260 On ch=13 n=75 v=39
202290 Off ch=13 n=73 v=64
202320 On ch=13 n=78 v=47
202320 On ch=13 n=73 v=39
202350 Off ch=13 n=75 v=64
202350 Off ch=13 n=78 v=64
202380 On ch=13 n=75 v=38
202410 Off ch=13 n=73 v=64
202440 On ch=13 n=72 v=43
202440 On ch=13 n=73 v=37
202470 Off ch=13 n=75 v=64
202470 Off ch=13 n=72 v=64
202500 On ch=13 n=75 v=36
202530 Off ch=13 n=73 v=64
202560 On ch=13 n=77 v=54
202560 On ch=13 n=73 v=44
202590 Off ch=13 n=75 v=64
202590 Off ch=13 n=77 v=64
202620 On ch=13 n=75 v=43
202650 Off ch=13 n=73 v=64
202680 On ch=13 n=82 v=51
202680 On ch=13 n=73 v=42
202710 Off ch=13 n=75 v=64
202710 Off ch=13 n=82 v=64
202740 On ch=13 n=75 v=41
202770 Off ch=13 n=73 v=64
202800 On ch=13 n=80 v=48
202800 On ch=13 n=73 v=40
202830 Off ch=13 n=75 v=64
202830 Off ch=13 n=80 v=64
202860 On ch=13 n=75 v=39
202890 Off ch=13 n=73 v=64
202920 On ch=13 n=72 v=45
202920 On ch=13 n=73 v=38
202950 Off ch=13 n=75 v=64
202950 Off ch=13 n=72 v=64
202980 On ch=13 n=75 v=37
203010 Off ch=13 n=73 v=64
203040 On ch=13 n=75 v=56
203040 On ch=13 n=73 v=42
203070 Off ch=13 n=75 v=64
203070 Off ch=13 n=75 v=64
203100 On ch=13 n=75 v=41
203130 Off ch=13 n=73 v=64
203160 On ch=13 n=82 v=52
203160 On ch=13 n=73 v=40
203190 Off ch=13 n=75 v=64
203190 Off ch=13 n=82 v=64
203220 On ch=13 n=75 v=39
203250 Off ch=13 n=73 v=64
203280 On ch=13 n=78 v=48
203280 On ch=13 n=73 v=39
203310 Off ch=13 n=75 v=64
203310 Off ch=13 n=78 v=64
203340 On ch=13 n=75 v=38
203370 Off ch=13 n=73 v=64
203400 On ch=13 n=72 v=43
203400 On ch=13 n=73 v=37
203430 Off ch=13 n=75 v=64
203430 Off ch=13 n=72 v=64
203460 On ch=13 n=75 v=36
203490 Off ch=13 n=73 v=64
203520 On ch=13 n=77 v=54
203520 On ch=13 n=73 v=44
203550 Off ch=13 n=75 v=64
203550 Off ch=13 n=77 v=64
203580 On ch=13 n=75 v=43
203610 Off ch=13 n=73 v=64
203640 On ch=13 n=82 v=51
203640 On ch=13 n=73 v=42
203670 Off ch=13 n=75 v=64
203670 Off ch=13 n=82 v=64
203700 On ch=13 n=75 v=41
203730 Off ch=13 n=73 v=64
203760 On ch=13 n=80 v=47
203760 On ch=13 n=73 v=40
203790 Off ch=13 n=75 v=64
203790 Off ch=13 n=80 v=64
203820 On ch=13 n=75 v=39
203850 Off ch=13 n=73 v=64
203880 On ch=13 n=72 v=43
203880 On ch=13 n=73 v=38
203910 Off ch=13 n=75 v=64
203910 Off ch=13 n=72 v=64
203940 On ch=13 n=75 v=37
203970 Off ch=13 n=73 v=64
204000 On ch=13 n=75 v=56
204000 On ch=13 n=73 v=42
204030 Off ch=13 n=75 v=64
204030 Off ch=13 n=75 v=64
204060 On ch=13 n=75 v=41
204090 Off ch=13 n=73 v=64
204120 On ch=13 n=82 v=52
204120 On ch=13 n=73 v=40
204150 Off ch=13 n=75 v=64
204150 Off ch=13 n=82 v=64
204180 On ch=13 n=75 v=39
204210 Off ch=13 n=73 v=64
204240 On ch=13 n=78 v=47
204240 On ch=13 n=73 v=39
204270 Off ch=13 n=75 v=64
204270 Off ch=13 n=78 v=64
204300 On ch=13 n=75 v=38
204330 Off ch=13 n=73 v=64
204360 On ch=13 n=72 v=43
204360 On ch=13 n=73 v=37
204390 Off ch=13 n=75 v=64
204390 Off ch=13 n=72 v=64
204420 On ch=13 n=75 v=36
204450 Off ch=13 n=73 v=64
204480 On ch=13 n=77 v=54
204480 On ch=13 n=73 v=44
204510 Off ch=13 n=75 v=64
204510 Off ch=13 n=77 v=64
204540 On ch=13 n=75 v=43
204570 Off ch=13 n=73 v=64
204600 On ch=13 n=82 v=51
204600 On ch=13 n=73 v=42
204630 Off ch=13 n=75 v=64
204630 Off ch=13 n=82 v=64
204660 On ch=13 n=75 v=41
204690 Off ch=13 n=73 v=64
204720 On ch=13 n=80 v=48
204720 On ch=13 n=73 v=40
204750 Off ch=13 n=75 v=64
204750 Off ch=13 n=80 v=64
204780 On ch=13 n=75 v=39
204810 Off ch=13 n=73 v=64
204840 On ch=13 n=72 v=45
204840 On ch=13 n=73 v=38
204870 Off ch=13 n=75 v=64
204870 Off ch=13 n=72 v=64
204900 On ch=13 n=75 v=37
204930 Off ch=13 n=73 v=64
204960 On ch=13 n=75 v=56
204960 On ch=13 n=73 v=42
204990 Off ch=13 n=75 v=64
204990 Off ch=13 n=75 v=64
205020 On ch=13 n=75 v=41
205050 Off ch=13 n=73 v=64
205080 On ch=13 n=82 v=52
205080 On ch=13 n=73 v=40
205110 Off ch=13 n=75 v=64
205110 Off ch=13 n=82 v=64
205140 On ch=13 n=75 v=39
205170 Off ch=13 n=73 v=64
205200 On ch=13 n=78 v=48
205200 On ch=13 n=73 v=39
205230 Off ch=13 n=75 v=64
205230 Off ch=13 n=78 v=64
205260 On ch=13 n=75 v=38
205290 Off ch=13 n=73 v=64
205320 On ch=13 n=72 v=43
205320 On ch=13 n=73 v=37
205350 Off ch=13 n=75 v=64
205350 Off ch=13 n=72 v=64
205380 On ch=13 n=75 v=36
205410 Off ch=13 n=73 v=64
205440 On ch=13 n=77 v=54
205440 On ch=13 n=73 v=44
205470 Off ch=13 n=75 v=64
205470 Off ch=13 n=77 v=64
205500 On ch=13 n=75 v=43
205530 Off ch=13 n=73 v=64
205560 On ch=13 n=82 v=51
205560 On ch=13 n=73 v=42
205590 Off ch=13 n=75 v=64
205590 Off ch=13 n=82 v=64
205620 On ch=13 n=75 v=41
205650 Off ch=13 n=73 v=64
205680 On ch=13 n=80 v=47
205680 On ch=13 n=73 v=40
205710 Off ch=13 n=75 v=64
205710 Off ch=13 n=80 v=64
205740 On ch=13 n=75 v=39
205770 Off ch=13 n=73 v=64
205800 On ch=13 n=72 v=43
205800 On ch=13 n=73 v=38
205830 Off ch=13 n=75 v=64
205830 Off ch=13 n=72 v=64
205860 On ch=13 n=75 v=37
205890 Off ch=13 n=73 v=64
205920 On ch=13 n=75 v=56
205920 On ch=13 n=73 v=42
205950 Off ch=13 n=75 v=64
205950 Off ch=13 n=75 v=64
205980 On ch=13 n=75 v=41
206010 Off ch=13 n=73 v=64
206040 On ch=13 n=82 v=52
206040 On ch=13 n=73 v=40
206070 Off ch=13 n=75 v=64
206070 Off ch=13 n=82 v=64
206100 On ch=13 n=75 v=39
206130 Off ch=13 n=73 v=64
206160 On ch=13 n=78 v=47
206160 On ch=13 n=73 v=39
206190 Off ch=13 n=75 v=64
206190 Off ch=13 n=78 v=64
206220 On ch=13 n=75 v=38
206250 Off ch=13 n=73 v=64
206280 On ch=13 n=72 v=43
206280 On ch=13 n=73 v=37
206310 Off ch=13 n=75 v=64
206310 Off ch=13 n=72 v=64
206340 On ch=13 n=75 v=36
206370 Off ch=13 n=73 v=64
206400 On ch=13 n=77 v=54
206400 On ch=13 n=73 v=44
206430 Off ch=13 n=75 v=64
206430 Off ch=13 n=77 v=64
206460 On ch=13 n=75 v=43
206490 Off ch=13 n=73 v=64
206520 On ch=13 n=82 v=51
206520 On ch=13 n=73 v=42
206550 Off ch=13 n=75 v=64
206550 Off ch=13 n=82 v=64
206580 On ch=13 n=75 v=41
206610 Off ch=13 n=73 v=64
206640 On ch=13 n=80 v=48
206640 On ch=13 n=73 v=40
206670 Off ch=13 n=75 v=64
206670 Off ch=13 n=80 v=64
206700 On ch=13 n=75 v=39
206730 Off ch=13 n=73 v=64
206760 On ch=13 n=72 v=45
206760 On ch=13 n=73 v=38
206790 Off ch=13 n=75 v=64
206790 Off ch=13 n=72 v=64
206820 On ch=13 n=75 v=37
206850 Off ch=13 n=73 v=64
206880 On ch=13 n=75 v=56
206880 On ch=13 n=73 v=42
206910 Off ch=13 n=75 v=64
206910 Off ch=13 n=75 v=64
206940 On ch=13 n=75 v=41
206970 Off ch=13 n=73 v=64
207000 On ch=13 n=82 v=52
207000 On ch=13 n=73 v=40
207030 Off ch=13 n=75 v=64
207030 Off ch=13 n=82 v=64
207060 On ch=13 n=75 v=39
207090 Off ch=13 n=73 v=64
207120 On ch=13 n=78 v=48
207120 On ch=13 n=73 v=39
207150 Off ch=13 n=75 v=64
207150 Off ch=13 n=78 v=64
207180 On ch=13 n=75 v=38
207210 Off ch=13 n=73 v=64
207240 On ch=13 n=72 v=43
207240 On ch=13 n=73 v=37
207270 Off ch=13 n=75 v=64
207270 Off ch=13 n=72 v=64
207300 On ch=13 n=75 v=36
207330 Off ch=13 n=73 v=64
207360 On ch=13 n=77 v=54
207360 On ch=13 n=73 v=44
207390 Off ch=13 n=75 v=64
207390 Off ch=13 n=77 v=64
207420 On ch=13 n=75 v=43
207450 Off ch=13 n=73 v=64
207480 On ch=13 n=82 v=51
207480 On ch=13 n=73 v=42
207510 Off ch=13 n=75 v=64
207510 Off ch=13 n=82 v=64
207540 On ch=13 n=75 v=41
207570 Off ch=13 n=73 v=64
207600 On ch=13 n=80 v=47
207600 On ch=13 n=73 v=40
207630 Off ch=13 n=75 v=64
207630 Off ch=13 n=80 v=64
207660 On ch=13 n=75 v=39
207690 Off ch=13 n=73 v=64
207720 On ch=13 n=72 v=43
207720 On ch=13 n=73 v=38
207750 Off ch=13 n=75 v=64
207750 Off ch=13 n=72 v=64
207780 On ch=13 n=75 v=37
207810 Off ch=13 n=73 v=64
207840 On ch=13 n=75 v=56
207840 On ch=13 n=73 v=42
207870 Off ch=13 n=75 v=64
207870 Off ch=13 n=75 v=64
207900 On ch=13 n=75 v=41
207930 Off ch=13 n=73 v=64
207960 On ch=13 n=82 v=52
207960 On ch=13 n=73 v=40
207990 Off ch=13 n=75 v=64
207990 Off ch=13 n=82 v=64
208020 On ch=13 n=75 v=39
208050 Off ch=13 n=73 v=64
208080 On ch=13 n=78 v=47
208080 On ch=13 n=73 v=39
208110 Off ch=13 n=75 v=64
208110 Off ch=13 n=78 v=64
208140 On ch=13 n=75 v=38
208170 Off ch=13 n=73 v=64
208200 On ch=13 n=72 v=43
208200 On ch=13 n=73 v=37
208230 Off ch=13 n=75 v=64
208230 Off ch=13 n=72 v=64
208260 On ch=13 n=75 v=36
208290 Off ch=13 n=73 v=64
208320 On ch=13 n=77 v=54
208320 On ch=13 n=73 v=44
208350 Off ch=13 n=75 v=64
208350 Off ch=13 n=77 v=64
208380 On ch=13 n=75 v=43
208410 Off ch=13 n=73 v=64
208440 On ch=13 n=82 v=51
208440 On ch=13 n=73 v=42
208470 Off ch=13 n=75 v=64
208470 Off ch=13 n=82 v=64
208500 On ch=13 n=75 v=41
208530 Off ch=13 n=73 v=64
208560 On ch=13 n=80 v=48
208560 On ch=13 n=73 v=40
208590 Off ch=13 n=75 v=64
208590 Off ch=13 n=80 v=64
208620 On ch=13 n=75 v=39
208650 Off ch=13 n=73 v=64
208680 On ch=13 n=72 v=45
208680 On ch=13 n=73 v=38
208710 Off ch=13 n=75 v=64
208710 Off ch=13 n=72 v=64
208740 On ch=13 n=75 v=37
208770 Off ch=13 n=73 v=64
208800 On ch=13 n=75 v=56
208800 On ch=13 n=73 v=42
208830 Off ch=13 n=75 v=64
208830 Off ch=13 n=75 v=64
208860 On ch=13 n=75 v=41
208890 Off ch=13 n=73 v=64
208920 On ch=13 n=82 v=52
208920 On ch=13 n=73 v=40
208950 Off ch=13 n=75 v=64
208950 Off ch=13 n=82 v=64
208980 On ch=13 n=75 v=39
209010 Off ch=13 n=73 v=64
209040 On ch=13 n=78 v=48
209040 On ch=13 n=73 v=39
209070 Off ch=13 n=75 v=64
209070 Off ch=13 n=78 v=64
209100 On ch=13 n=75 v=38
209130 Off ch=13 n=73 v=64
209160 On ch=13 n=72 v=43
209160 On ch=13 n=73 v=37
209190 Off ch=13 n=75 v=64
209190 Off ch=13 n=72 v=64
209220 On ch=13 n=75 v=36
209250 Off ch=13 n=73 v=64
209280 On ch=13 n=77 v=54
209280 On ch=13 n=73 v=44
209310 Off ch=13 n=75 v=64
209310 Off ch=13 n=77 v=64
209340 On ch=13 n=75 v=43
209370 Off ch=13 n=73 v=64
209400 On ch=13 n=82 v=51
209400 On ch=13 n=73 v=42
209430 Off ch=13 n=75 v=64
209430 Off ch=13 n=82 v=64
209460 On ch=13 n=75 v=41
209490 Off ch=13 n=73 v=64
209520 On ch=13 n=80 v=47
209520 On ch=13 n=73 v=40
209550 Off ch=13 n=75 v=64
209550 Off ch=13 n=80 v=64
209580 On ch=13 n=75 v=39
209610 Off ch=13 n=73 v=64
209640 On ch=13 n=72 v=43
209640 On ch=13 n=73 v=38
209670 Off ch=13 n=75 v=64
209670 Off ch=13 n=72 v=64
209700 On ch=13 n=75 v=37
209730 Off ch=13 n=73 v=64
209760 On ch=13 n=75 v=56
209760 On ch=13 n=73 v=42
209790 Off ch=13 n=75 v=64
209790 Off ch=13 n=75 v=64
209820 On ch=13 n=75 v=41
209850 Off ch=13 n=73 v=64
209880 On ch=13 n=82 v=52
209880 On ch=13 n=73 v=40
209910 Off ch=13 n=75 v=64
209910 Off ch=13 n=82 v=64
209940 On ch=13 n=75 v=39
209970 Off ch=13 n=73 v=64
210000 On ch=13 n=78 v=47
210000 On ch=13 n=73 v=39
210030 Off ch=13 n=75 v=64
210030 Off ch=13 n=78 v=64
210060 On ch=13 n=75 v=38
210090 Off ch=13 n=73 v=64
210120 On ch=13 n=72 v=43
210120 On ch=13 n=73 v=37
210150 Off ch=13 n=75 v=64
210150 Off ch=13 n=72 v=64
210180 On ch=13 n=75 v=36
210210 Off ch=13 n=73 v=64
210240 On ch=13 n=77 v=54
210240 On ch=13 n=73 v=44
210270 Off ch=13 n=75 v=64
210270 Off ch=13 n=77 v=64
210300 On ch=13 n=75 v=43
210330 Off ch=13 n=73 v=64
210360 On ch=13 n=82 v=51
210360 On ch=13 n=73 v=42
210390 Off ch=13 n=75 v=64
210390 Off ch=13 n=82 v=64
210420 On ch=13 n=75 v=41
210450 Off ch=13 n=73 v=64
210480 On ch=13 n=80 v=48
210480 On ch=13 n=73 v=40
210510 Off ch=13 n=75 v=64
210510 Off ch=13 n=80 v=64
210540 On ch=13 n=75 v=39
210570 Off ch=13 n=73 v=64
210600 On ch=13 n=72 v=45
210600 On ch=13 n=73 v=38
210630 Off ch=13 n=75 v=64
210630 Off ch=13 n=72 v=64
210660 On ch=13 n=75 v=37
210690 Off ch=13 n=73 v=64
210720 On ch=13 n=75 v=56
210720 On ch=13 n=73 v=42
210750 Off ch=13 n=75 v=64
210750 Off ch=13 n=75 v=64
210780 On ch=13 n=75 v=41
210810 Off ch=13 n=73 v=64
210840 On ch=13 n=82 v=52
210840 On ch=13 n=73 v=40
210870 Off ch=13 n=75 v=64
210870 Off ch=13 n=82 v=64
210900 On ch=13 n=75 v=39
210930 Off ch=13 n=73 v=64
210960 On ch=13 n=78 v=48
210960 On ch=13 n=73 v=39
210990 Off ch=13 n=75 v=64
210990 Off ch=13 n=78 v=64
211020 On ch=13 n=75 v=38
211050 Off ch=13 n=73 v=64
211080 On ch=13 n=72 v=43
211080 On ch=13 n=73 v=37
211110 Off ch=13 n=75 v=64
211110 Off ch=13 n=72 v=64
211140 On ch=13 n=75 v=36
211170 Off ch=13 n=73 v=64
211200 On ch=13 n=77 v=54
211200 On ch=13 n=73 v=44
211230 Off ch=13 n=75 v=64
211230 Off ch=13 n=77 v=64
211260 On ch=13 n=75 v=43
211290 Off ch=13 n=73 v=64
211320 On ch=13 n=82 v=51
211320 On ch=13 n=73 v=42
211350 Off ch=13 n=75 v=64
211350 Off ch=13 n=82 v=64
211380 On ch=13 n=75 v=41
211410 Off ch=13 n=73 v=64
211440 On ch=13 n=80 v=47
211440 On ch=13 n=73 v=40
211470 Off ch=13 n=75 v=64
211470 Off ch=13 n=80 v=64
211500 On ch=13 n=75 v=39
211530 Off ch=13 n=73 v=64
211560 On ch=13 n=72 v=43
211560 On ch=13 n=73 v=38
211590 Off ch=13 n=75 v=64
211590 Off ch=13 n=72 v=64
211620 On ch=13 n=75 v=37
211650 Off ch=13 n=73 v=64
211680 On ch=13 n=75 v=56
211680 On ch=13 n=73 v=42
211710 Off ch=13 n=75 v=64
211710 Off ch=13 n=75 v=64
211740 On ch=13 n=75 v=41
211770 Off ch=13 n=73 v=64
211800 On ch=13 n=82 v=52
211800 On ch=13 n=73 v=40
211830 Off ch=13 n=75 v=64
211830 Off ch=13 n=82 v=64
211860 On ch=13 n=75 v=39
211890 Off ch=13 n=73 v=64
211920 On ch=13 n=78 v=47
211920 On ch=13 n=73 v=39
211950 Off ch=13 n=75 v=64
211950 Off ch=13 n=78 v=64
211980 On ch=13 n=75 v=38
212010 Off ch=13 n=73 v=64
212040 On ch=13 n=72 v=43
212040 On ch=13 n=73 v=37
212070 Off ch=13 n=75 v=64
212070 Off ch=13 n=72 v=64
212100 On ch=13 n=75 v=36
212130 Off ch=13 n=73 v=64
212160 On ch=13 n=77 v=54
212160 On ch=13 n=73 v=44
212190 Off ch=13 n=75 v=64
212190 Off ch=13 n=77 v=64
212220 On ch=13 n=75 v=43
212250 Off ch=13 n=73 v=64
212280 On ch=13 n=82 v=51
212280 On ch=13 n=73 v=42
212310 Off ch=13 n=75 v=64
212310 Off ch=13 n=82 v=64
212340 On ch=13 n=75 v=41
212370 Off ch=13 n=73 v=64
212400 On ch=13 n=80 v=48
212400 On ch=13 n=73 v=40
212430 Off ch=13 n=75 v=64
212430 Off ch=13 n=80 v=64
212460 On ch=13 n=75 v=39
212490 Off ch=13 n=73 v=64
212520 On ch=13 n=72 v=45
212520 On ch=13 n=73 v=38
212550 Off ch=13 n=75 v=64
212550 Off ch=13 n=72 v=64
212580 On ch=13 n=75 v=37
212610 Off ch=13 n=73 v=64
212640 On ch=13 n=75 v=56
212640 On ch=13 n=73 v=42
212670 Off ch=13 n=75 v=64
212670 Off ch=13 n=75 v=64
212700 On ch=13 n=75 v=41
212730 Off ch=13 n=73 v=64
212760 On ch=13 n=82 v=52
212760 On ch=13 n=73 v=40
212790 Off ch=13 n=75 v=64
212790 Off ch=13 n=82 v=64
212820 On ch=13 n=75 v=39
212850 Off ch=13 n=73 v=64
212880 On ch=13 n=78 v=48
212880 On ch=13 n=73 v=39
212910 Off ch=13 n=75 v=64
212910 Off ch=13 n=78 v=64
212940 On ch=13 n=75 v=38
212970 Off ch=13 n=73 v=64
213000 On ch=13 n=72 v=43
213000 On ch=13 n=73 v=37
213030 Off ch=13 n=75 v=64
213030 Off ch=13 n=72 v=64
213060 On ch=13 n=75 v=36
213090 Off ch=13 n=73 v=64
213120 On ch=13 n=77 v=54
213120 On ch=13 n=73 v=44
213150 Off ch=13 n=75 v=64
213150 Off ch=13 n=77 v=64
213180 On ch=13 n=75 v=43
213210 Off ch=13 n=73 v=64
213240 On ch=13 n=82 v=51
213240 On ch=13 n=73 v=42
213270 Off ch=13 n=75 v=64
213270 Off ch=13 n=82 v=64
213300 On ch=13 n=75 v=41
213330 Off ch=13 n=73 v=64
213360 On ch=13 n=80 v=47
213360 On ch=13 n=73 v=40
213390 Off ch=13 n=75 v=64
213390 Off ch=13 n=80 v=64
213420 On ch=13 n=75 v=39
213450 Off ch=13 n=73 v=64
213480 On ch=13 n=72 v=43
213480 On ch=13 n=73 v=38
213510 Off ch=13 n=75 v=64
213510 Off ch=13 n=72 v=64
213540 On ch=13 n=75 v=37
213570 Off ch=13 n=73 v=64
213600 On ch=13 n=75 v=56
213600 On ch=13 n=73 v=42
213630 Off ch=13 n=75 v=64
213630 Off ch=13 n=75 v=64
213660 On ch=13 n=75 v=41
213690 Off ch=13 n=73 v=64
213720 On ch=13 n=82 v=52
213720 On ch=13 n=73 v=40
213750 Off ch=13 n=75 v=64
213750 Off ch=13 n=82 v=64
213780 On ch=13 n=75 v=39
213810 Off ch=13 n=73 v=64
213840 On ch=13 n=78 v=47
213840 On ch=13 n=73 v=39
213870 Off ch=13 n=75 v=64
213870 Off ch=13 n=78 v=64
213900 On ch=13 n=75 v=38
213930 Off ch=13 n=73 v=64
213960 On ch=13 n=72 v=43
213960 On ch=13 n=73 v=37
213990 Off ch=13 n=75 v=64
213990 Off ch=13 n=72 v=64
214020 On ch=13 n=75 v=36
214050 Off ch=13 n=73 v=64
214080 On ch=13 n=77 v=54
214080 On ch=13 n=73 v=44
214110 Off ch=13 n=75 v=64
214110 Off ch=13 n=77 v=64
214140 On ch=13 n=75 v=43
214170 Off ch=13 n=73 v=64
214200 On ch=13 n=82 v=51
214200 On ch=13 n=73 v=42
214230 Off ch=13 n=75 v=64
214230 Off ch=13 n=82 v=64
214260 On ch=13 n=75 v=41
214290 Off ch=13 n=73 v=64
214320 On ch=13 n=80 v=48
214320 On ch=13 n=73 v=40
214350 Off ch=13 n=75 v=64
214350 Off ch=13 n=80 v=64
214380 On ch=13 n=75 v=39
214410 Off ch=13 n=73 v=64
214440 On ch=13 n=72 v=45
214440 On ch=13 n=73 v=38
214470 Off ch=13 n=75 v=64
214470 Off ch=13 n=72 v=64
214500 On ch=13 n=75 v=37
214530 Off ch=13 n=73 v=64
214590 Off ch=13 n=75 v=64
234720 Par ch=13 c=0 v=0
234720 Par ch=13 c=32 v=1
234720 PrCh ch=13 p=73
235680 On ch=13 n=65 v=62
235748 On ch=13 n=66 v=63
235793 Off ch=13 n=65 v=64
235817 On ch=13 n=67 v=64
235862 Off ch=13 n=66 v=64
235885 On ch=13 n=68 v=66
235930 Off ch=13 n=67 v=64
235954 On ch=13 n=69 v=67
235999 Off ch=13 n=68 v=64
236022 On ch=13 n=70 v=68
236067 Off ch=13 n=69 v=64
236091 On ch=13 n=71 v=69
236136 Off ch=13 n=70 v=64
236160 On ch=13 n=72 v=71
236205 Off ch=13 n=71 v=64
236228 On ch=13 n=73 v=72
236273 Off ch=13 n=72 v=64
236297 On ch=13 n=74 v=73
236342 Off ch=13 n=73 v=64
236365 On ch=13 n=75 v=75
236410 Off ch=13 n=74 v=64
236434 On ch=13 n=76 v=76
236479 Off ch=13 n=75 v=64
236502 On ch=13 n=77 v=77
236547 Off ch=13 n=76 v=64
236571 On ch=13 n=78 v=78
236616 Off ch=13 n=77 v=64
236640 On ch=13 n=79 v=80
236685 Off ch=13 n=78 v=64
236833 Off ch=13 n=79 v=64
237600 On ch=13 n=65 v=66
237668 On ch=13 n=66 v=67
237710 Off ch=13 n=65 v=64
237737 On ch=13 n=67 v=68
237779 Off ch=13 n=66 v=64
237805 On ch=13 n=68 v=69
237847 Off ch=13 n=67 v=64
237874 On ch=13 n=69 v=70
237916 Off ch=13 n=68 v=64
237942 On ch=13 n=70 v=71
237984 Off ch=13 n=69 v=64
238011 On ch=13 n=71 v=72
238053 Off ch=13 n=70 v=64
238080 On ch=13 n=72 v=72
238122 Off ch=13 n=71 v=64
238148 On ch=13 n=73 v=73
238190 Off ch=13 n=72 v=64
238217 On ch=13 n=74 v=74
238259 Off ch=13 n=73 v=64
238285 On ch=13 n=75 v=75
238327 Off ch=13 n=74 v=64
238354 On ch=13 n=76 v=76
238396 Off ch=13 n=75 v=64
238422 On ch=13 n=77 v=77
238464 Off ch=13 n=76 v=64
238491 On ch=13 n=78 v=78
238533 Off ch=13 n=77 v=64
238560 On ch=13 n=79 v=82
238560 On ch=13 n=65 v=66
238602 Off ch=13 n=78 v=64
238628 On ch=13 n=66 v=67
238652 Off ch=13 n=79 v=64
238670 Off ch=13 n=65 v=64
238697 On ch=13 n=67 v=68
238739 Off ch=13 n=66 v=64
238765 On ch=13 n=68 v=69
238807 Off ch=13 n=67 v=64
238834 On ch=13 n=69 v=70
238876 Off ch=13 n=68 v=64
238902 On ch=13 n=70 v=70
238944 Off ch=13 n=69 v=64
238971 On ch=13 n=71 v=71
239013 Off ch=13 n=70 v=64
239040 On ch=13 n=72 v=72
239082 Off ch=13 n=71 v=64
239108 On ch=13 n=73 v=73
239150 Off ch=13 n=72 v=64
239177 On ch=13 n=74 v=74
239219 Off ch=13 n=73 v=64
239245 On ch=13 n=75 v=75
239287 Off ch=13 n=74 v=64
239314 On ch=13 n=76 v=76
239356 Off ch=13 n=75 v=64
239382 On ch=13 n=77 v=77
239424 Off ch=13 n=76 v=64
239451 On ch=13 n=78 v=78
239493 Off ch=13 n=77 v=64
239520 On ch=13 n=71 v=68
239520 On ch=13 n=79 v=82
239562 Off ch=13 n=78 v=64
239600 On ch=13 n=72 v=69
239612 Off ch=13 n=79 v=64
239630 Off ch=13 n=71 v=64
239680 On ch=13 n=73 v=69
239710 Off ch=13 n=72 v=64
239760 On ch=13 n=74 v=70
239790 Off ch=13 n=73 v=64
239840 On ch=13 n=75 v=71
239870 Off ch=13 n=74 v=64
239920 On ch=13 n=76 v=72
239950 Off ch=13 n=75 v=64
240000 On ch=13 n=77 v=73
240000 On ch=13 n=74 v=73
240030 Off ch=13 n=76 v=64
240080 On ch=13 n=78 v=74
240096 On ch=13 n=75 v=74
240110 Off ch=13 n=77 v=64
240126 Off ch=13 n=74 v=64
240160 On ch=13 n=79 v=75
240190 Off ch=13 n=78 v=64
240192 On ch=13 n=76 v=76
240222 Off ch=13 n=75 v=64
240240 On ch=13 n=80 v=76
240270 Off ch=13 n=79 v=64
240288 On ch=13 n=77 v=77
240318 Off ch=13 n=76 v=64
240320 On ch=13 n=81 v=77
240350 Off ch=13 n=80 v=64
240384 On ch=13 n=78 v=78
240400 On ch=13 n=82 v=78
240414 Off ch=13 n=77 v=64
240430 Off ch=13 n=81 v=64
240480 On ch=13 n=83 v=79
240480 On ch=13 n=79 v=79
240510 Off ch=13 n=78 v=64
240510 Off ch=13 n=82 v=64
240576 On ch=13 n=78 v=75
240600 Off ch=13 n=83 v=64
240606 Off ch=13 n=79 v=64
240672 On ch=13 n=77 v=73
240702 Off ch=13 n=78 v=64
240768 On ch=13 n=76 v=71
240798 Off ch=13 n=77 v=64
240864 On ch=13 n=75 v=69
240894 Off ch=13 n=76 v=64
240960 On ch=13 n=74 v=66
240990 Off ch=13 n=75 v=64
241080 Off ch=13 n=74 v=64
241440 On ch=13 n=83 v=62
241440 On ch=13 n=81 v=62
241520 On ch=13 n=84 v=63
241552 Off ch=13 n=83 v=64
241600 On ch=13 n=85 v=65
241632 Off ch=13 n=84 v=64
241680 Off ch=13 n=81 v=64
241680 On ch=13 n=86 v=67
241712 Off ch=13 n=85 v=64
241760 On ch=13 n=87 v=69
241792 Off ch=13 n=86 v=64
241840 On ch=13 n=88 v=71
241872 Off ch=13 n=87 v=64
241920 On ch=13 n=89 v=72
241920 On ch=13 n=86 v=72
241952 Off ch=13 n=88 v=64
242000 On ch=13 n=90 v=74
242016 On ch=13 n=87 v=75
242032 Off ch=13 n=89 v=64
242064 Off ch=13 n=86 v=64
242080 On ch=13 n=91 v=76
242112 Off ch=13 n=90 v=64
242112 On ch=13 n=88 v=77
242160 Off ch=13 n=87 v=64
242160 On ch=13 n=92 v=78
242192 Off ch=13 n=91 v=64
242208 On ch=13 n=89 v=79
242240 On ch=13 n=93 v=80
242256 Off ch=13 n=88 v=64
242272 Off ch=13 n=92 v=64
242304 On ch=13 n=90 v=81
242320 On ch=13 n=94 v=82
242352 Off ch=13 n=89 v=64
242352 Off ch=13 n=93 v=64
242400 On ch=13 n=95 v=82
242400 On ch=13 n=91 v=82
242432 Off ch=13 n=94 v=64
242448 Off ch=13 n=90 v=64
242480 On ch=13 n=94 v=80
242496 On ch=13 n=90 v=80
242512 Off ch=13 n=95 v=64
242520 Off ch=13 n=91 v=64
242560 On ch=13 n=93 v=79
242592 Off ch=13 n=94 v=64
242592 On ch=13 n=89 v=78
242616 Off ch=13 n=90 v=64
242640 On ch=13 n=92 v=77
242672 Off ch=13 n=93 v=64
242688 On ch=13 n=88 v=76
242712 Off ch=13 n=89 v=64
242720 On ch=13 n=91 v=76
242752 Off ch=13 n=92 v=64
242784 On ch=13 n=87 v=74
242800 On ch=13 n=90 v=74
242808 Off ch=13 n=88 v=64
242832 Off ch=13 n=91 v=64
242880 On ch=13 n=89 v=73
242880 On ch=13 n=86 v=73
242904 Off ch=13 n=87 v=64
242912 Off ch=13 n=90 v=64
242960 On ch=13 n=88 v=71
242992 Off ch=13 n=89 v=64
243000 Off ch=13 n=86 v=64
243040 On ch=13 n=87 v=70
243072 Off ch=13 n=88 v=64
243120 On ch=13 n=86 v=68
243152 Off ch=13 n=87 v=64
243200 On ch=13 n=85 v=67
243232 Off ch=13 n=86 v=64
243280 On ch=13 n=84 v=65
243312 Off ch=13 n=85 v=64
243360 On ch=13 n=83 v=67
243392 Off ch=13 n=84 v=64
243512 Off ch=13 n=83 v=64
243840 On ch=13 n=86 v=58
243936 On ch=13 n=87 v=62
243966 Off ch=13 n=86 v=64
244032 On ch=13 n=88 v=67
244062 Off ch=13 n=87 v=64
244128 On ch=13 n=89 v=71
244158 Off ch=13 n=88 v=64
244224 On ch=13 n=90 v=76
244254 Off ch=13 n=89 v=64
244320 On ch=13 n=91 v=81
244350 Off ch=13 n=90 v=64
244446 Off ch=13 n=91 v=64
244800 On ch=13 n=84 v=78
245040 Off ch=13 n=84 v=64
245040 On ch=13 n=83 v=78
245160 Off ch=13 n=83 v=64
245160 On ch=13 n=79 v=78
245280 Off ch=13 n=79 v=64
245280 On ch=13 n=83 v=64
245280 On ch=13 n=81 v=64
245360 On ch=13 n=84 v=65
245400 Off ch=13 n=81 v=64
245408 Off ch=13 n=83 v=64
245440 On ch=13 n=85 v=67
245488 Off ch=13 n=84 v=64
245520 On ch=13 n=86 v=69
245568 Off ch=13 n=85 v=64
245600 On ch=13 n=87 v=71
245648 Off ch=13 n=86 v=64
245680 On ch=13 n=88 v=73
245728 Off ch=13 n=87 v=64
245760 On ch=13 n=89 v=74
245760 On ch=13 n=86 v=74
245808 Off ch=13 n=88 v=64
245840 On ch=13 n=90 v=76
245856 On ch=13 n=87 v=76
245888 Off ch=13 n=89 v=64
245904 Off ch=13 n=86 v=64
245920 On ch=13 n=91 v=78
245952 On ch=13 n=88 v=79
245968 Off ch=13 n=90 v=64
246000 Off ch=13 n=87 v=64
246000 On ch=13 n=92 v=80
246048 Off ch=13 n=91 v=64
246048 On ch=13 n=89 v=81
246080 On ch=13 n=93 v=81
246096 Off ch=13 n=88 v=64
246128 Off ch=13 n=92 v=64
246144 On ch=13 n=90 v=83
246160 On ch=13 n=94 v=83
246192 Off ch=13 n=89 v=64
246208 Off ch=13 n=93 v=64
246240 On ch=13 n=95 v=85
246240 On ch=13 n=91 v=85
246288 Off ch=13 n=90 v=64
246288 Off ch=13 n=94 v=64
246320 On ch=13 n=94 v=82
246336 On ch=13 n=90 v=82
246360 Off ch=13 n=91 v=64
246368 Off ch=13 n=95 v=64
246400 On ch=13 n=93 v=80
246432 On ch=13 n=89 v=80
246448 Off ch=13 n=94 v=64
246456 Off ch=13 n=90 v=64
246480 On ch=13 n=92 v=79
246528 Off ch=13 n=93 v=64
246528 On ch=13 n=88 v=78
246552 Off ch=13 n=89 v=64
246560 On ch=13 n=91 v=77
246608 Off ch=13 n=92 v=64
246624 On ch=13 n=87 v=76
246640 On ch=13 n=90 v=75
246648 Off ch=13 n=88 v=64
246688 Off ch=13 n=91 v=64
246720 On ch=13 n=89 v=74
246720 On ch=13 n=86 v=74
246744 Off ch=13 n=87 v=64
246768 Off ch=13 n=90 v=64
246800 On ch=13 n=88 v=72
246840 Off ch=13 n=86 v=64
246848 Off ch=13 n=89 v=64
246880 On ch=13 n=87 v=70
246928 Off ch=13 n=88 v=64
246960 On ch=13 n=86 v=69
247008 Off ch=13 n=87 v=64
247040 On ch=13 n=85 v=67
247088 Off ch=13 n=86 v=64
247120 On ch=13 n=84 v=65
247168 Off ch=13 n=85 v=64
247200 On ch=13 n=83 v=64
247248 Off ch=13 n=84 v=64
247320 Off ch=13 n=83 v=64
247680 On ch=13 n=86 v=65
247776 On ch=13 n=87 v=69
247806 Off ch=13 n=86 v=64
247872 On ch=13 n=88 v=73
247902 Off ch=13 n=87 v=64
247968 On ch=13 n=89 v=77
247998 Off ch=13 n=88 v=64
248064 On ch=13 n=90 v=81
248094 Off ch=13 n=89 v=64
248160 On ch=13 n=81 v=84
248160 On ch=13 n=91 v=84
248190 Off ch=13 n=90 v=64
248286 Off ch=13 n=91 v=64
248400 Off ch=13 n=81 v=64
248400 On ch=13 n=86 v=76
248640 Off ch=13 n=86 v=64
248640 On ch=13 n=84 v=76
248880 Off ch=13 n=84 v=64
248880 On ch=13 n=83 v=77
249000 Off ch=13 n=83 v=64
249000 On ch=13 n=79 v=77
249120 Off ch=13 n=79 v=64
249120 On ch=13 n=81 v=62
249120 On ch=13 n=79 v=62
249188 On ch=13 n=80 v=63
249224 Off ch=13 n=79 v=64
249228 Off ch=13 n=81 v=64
249257 On ch=13 n=81 v=64
249281 Off ch=13 n=80 v=64
249325 On ch=13 n=82 v=66
249349 Off ch=13 n=81 v=64
249394 On ch=13 n=83 v=67
249418 Off ch=13 n=82 v=64
249462 On ch=13 n=84 v=69
249486 Off ch=13 n=83 v=64
249531 On ch=13 n=85 v=70
249555 Off ch=13 n=84 v=64
249600 On ch=13 n=86 v=71
249624 Off ch=13 n=85 v=64
249696 On ch=13 n=87 v=73
249744 Off ch=13 n=86 v=64
249792 On ch=13 n=88 v=75
249840 Off ch=13 n=87 v=64
249888 On ch=13 n=89 v=77
249936 Off ch=13 n=88 v=64
249984 On ch=13 n=90 v=79
250032 Off ch=13 n=89 v=64
250080 On ch=13 n=91 v=81
250080 On ch=13 n=79 v=62
250128 Off ch=13 n=90 v=64
250148 On ch=13 n=80 v=63
250184 Off ch=13 n=79 v=64
250200 Off ch=13 n=91 v=64
250217 On ch=13 n=81 v=64
250241 Off ch=13 n=80 v=64
250285 On ch=13 n=82 v=66
250309 Off ch=13 n=81 v=64
250354 On ch=13 n=83 v=67
250378 Off ch=13 n=82 v=64
250422 On ch=13 n=84 v=69
250446 Off ch=13 n=83 v=64
250491 On ch=13 n=85 v=70
250515 Off ch=13 n=84 v=64
250560 On ch=13 n=86 v=66
250584 Off ch=13 n=85 v=64
250656 On ch=13 n=87 v=69
250704 Off ch=13 n=86 v=64
250752 On ch=13 n=88 v=72
250800 Off ch=13 n=87 v=64
250848 On ch=13 n=89 v=75
250896 Off ch=13 n=88 v=64
250944 On ch=13 n=90 v=78
250992 Off ch=13 n=89 v=64
251040 On ch=13 n=91 v=81
251040 On ch=13 n=79 v=62
251088 Off ch=13 n=90 v=64
251108 On ch=13 n=80 v=63
251144 Off ch=13 n=79 v=64
251160 Off ch=13 n=91 v=64
251177 On ch=13 n=81 v=64
251201 Off ch=13 n=80 v=64
251245 On ch=13 n=82 v=66
251269 Off ch=13 n=81 v=64
251314 On ch=13 n=83 v=67
251338 Off ch=13 n=82 v=64
251382 On ch=13 n=84 v=69
251406 Off ch=13 n=83 v=64
251451 On ch=13 n=85 v=70
251475 Off ch=13 n=84 v=64
251520 On ch=13 n=86 v=66
251544 Off ch=13 n=85 v=64
251616 On ch=13 n=87 v=69
251664 Off ch=13 n=86 v=64
251712 On ch=13 n=88 v=72
251760 Off ch=13 n=87 v=64
251808 On ch=13 n=89 v=75
251856 Off ch=13 n=88 v=64
251904 On ch=13 n=90 v=78
251952 Off ch=13 n=89 v=64
252000 On ch=13 n=91 v=81
252000 On ch=13 n=81 v=84
252048 Off ch=13 n=90 v=64
252120 Off ch=13 n=91 v=64
252240 Off ch=13 n=81 v=64
252240 On ch=13 n=86 v=76
252480 Off ch=13 n=86 v=64
252480 On ch=13 n=84 v=76
252720 Off ch=13 n=84 v=64
252720 On ch=13 n=83 v=77
252840 Off ch=13 n=83 v=64
252840 On ch=13 n=79 v=77
252960 Off ch=13 n=79 v=64
263760 On ch=13 n=71 v=49
263760 On ch=13 n=66 v=49
263760 On ch=13 n=60 v=49
263820 On ch=13 n=63 v=49
263820 On ch=13 n=69 v=49
263820 On ch=13 n=56 v=49
263840 Off ch=13 n=71 v=64
263840 Off ch=13 n=66 v=64
263840 Off ch=13 n=60 v=64
263880 On ch=13 n=66 v=49
263880 On ch=13 n=71 v=49
263880 On ch=13 n=60 v=49
263900 Off ch=13 n=63 v=64
263900 Off ch=13 n=69 v=64
263900 Off ch=13 n=56 v=64
263940 On ch=13 n=63 v=48
263940 On ch=13 n=69 v=48
263940 On ch=13 n=56 v=48
263960 Off ch=13 n=66 v=64
263960 Off ch=13 n=71 v=64
263960 Off ch=13 n=60 v=64
264000 On ch=13 n=66 v=48
264000 On ch=13 n=71 v=48
264000 On ch=13 n=60 v=48
264020 Off ch=13 n=63 v=64
264020 Off ch=13 n=69 v=64
264020 Off ch=13 n=56 v=64
264060 On ch=13 n=63 v=48
264060 On ch=13 n=69 v=48
264060 On ch=13 n=56 v=48
264080 Off ch=13 n=66 v=64
264080 Off ch=13 n=71 v=64
264080 Off ch=13 n=60 v=64
264120 On ch=13 n=71 v=48
264120 On ch=13 n=66 v=48
264120 On ch=13 n=60 v=48
264140 Off ch=13 n=63 v=64
264140 Off ch=13 n=69 v=64
264140 Off ch=13 n=56 v=64
264180 On ch=13 n=69 v=47
264180 On ch=13 n=63 v=47
264180 On ch=13 n=56 v=47
264200 Off ch=13 n=71 v=64
264200 Off ch=13 n=66 v=64
264200 Off ch=13 n=60 v=64
264240 On ch=13 n=71 v=47
264240 On ch=13 n=66 v=47
264240 On ch=13 n=60 v=47
264260 Off ch=13 n=69 v=64
264260 Off ch=13 n=63 v=64
264260 Off ch=13 n=56 v=64
264300 On ch=13 n=63 v=47
264300 On ch=13 n=69 v=47
264300 On ch=13 n=56 v=47
264320 Off ch=13 n=71 v=64
264320 Off ch=13 n=66 v=64
264320 Off ch=13 n=60 v=64
264360 On ch=13 n=71 v=46
264360 On ch=13 n=66 v=46
264360 On ch=13 n=60 v=46
264380 Off ch=13 n=63 v=64
264380 Off ch=13 n=69 v=64
264380 Off ch=13 n=56 v=64
264420 On ch=13 n=63 v=46
264420 On ch=13 n=69 v=46
264420 On ch=13 n=56 v=46
264440 Off ch=13 n=71 v=64
264440 Off ch=13 n=66 v=64
264440 Off ch=13 n=60 v=64
264480 On ch=13 n=71 v=46
264480 On ch=13 n=66 v=46
264480 On ch=13 n=60 v=46
264500 Off ch=13 n=63 v=64
264500 Off ch=13 n=69 v=64
264500 Off ch=13 n=56 v=64
264540 On ch=13 n=63 v=45
264540 On ch=13 n=69 v=45
264540 On ch=13 n=56 v=45
264560 Off ch=13 n=71 v=64
264560 Off ch=13 n=66 v=64
264560 Off ch=13 n=60 v=64
264600 On ch=13 n=71 v=45
264600 On ch=13 n=66 v=45
264600 On ch=13 n=60 v=45
264620 Off ch=13 n=63 v=64
264620 Off ch=13 n=69 v=64
264620 Off ch=13 n=56 v=64
264660 On ch=13 n=63 v=45
264660 On ch=13 n=69 v=45
264660 On ch=13 n=56 v=45
264680 Off ch=13 n=71 v=64
264680 Off ch=13 n=66 v=64
264680 Off ch=13 n=60 v=64
264720 On ch=13 n=66 v=44
264720 On ch=13 n=71 v=44
264720 On ch=13 n=60 v=44
264740 Off ch=13 n=63 v=64
264740 Off ch=13 n=69 v=64
264740 Off ch=13 n=56 v=64
264780 On ch=13 n=69 v=44
264780 On ch=13 n=63 v=44
264780 On ch=13 n=56 v=44
264800 Off ch=13 n=66 v=64
264800 Off ch=13 n=71 v=64
264800 Off ch=13 n=60 v=64
264840 On ch=13 n=71 v=44
264840 On ch=13 n=66 v=44
264840 On ch=13 n=60 v=44
264860 Off ch=13 n=69 v=64
264860 Off ch=13 n=63 v=64
264860 Off ch=13 n=56 v=64
264900 On ch=13 n=63 v=43
264900 On ch=13 n=69 v=43
264900 On ch=13 n=56 v=43
264920 Off ch=13 n=71 v=64
264920 Off ch=13 n=66 v=64
264920 Off ch=13 n=60 v=64
264960 On ch=13 n=71 v=43
264960 On ch=13 n=66 v=43
264960 On ch=13 n=60 v=43
264980 Off ch=13 n=63 v=64
264980 Off ch=13 n=69 v=64
264980 Off ch=13 n=56 v=64
265020 On ch=13 n=63 v=43
265020 On ch=13 n=69 v=43
265020 On ch=13 n=56 v=43
265040 Off ch=13 n=71 v=64
265040 Off ch=13 n=66 v=64
265040 Off ch=13 n=60 v=64
265080 On ch=13 n=66 v=42
265080 On ch=13 n=71 v=42
265080 On ch=13 n=60 v=42
265100 Off ch=13 n=63 v=64
265100 Off ch=13 n=69 v=64
265100 Off ch=13 n=56 v=64
265140 On ch=13 n=63 v=42
265140 On ch=13 n=69 v=42
265140 On ch=13 n=56 v=42
265160 Off ch=13 n=66 v=64
265160 Off ch=13 n=71 v=64
265160 Off ch=13 n=60 v=64
265200 On ch=13 n=66 v=53
265200 On ch=13 n=71 v=53
265200 On ch=13 n=60 v=53
265220 Off ch=13 n=63 v=64
265220 Off ch=13 n=69 v=64
265220 Off ch=13 n=56 v=64
265260 On ch=13 n=69 v=52
265260 On ch=13 n=63 v=52
265260 On ch=13 n=56 v=52
265280 Off ch=13 n=66 v=64
265280 Off ch=13 n=71 v=64
265280 Off ch=13 n=60 v=64
265320 On ch=13 n=66 v=51
265320 On ch=13 n=71 v=51
265320 On ch=13 n=60 v=51
265340 Off ch=13 n=69 v=64
265340 Off ch=13 n=63 v=64
265340 Off ch=13 n=56 v=64
265380 On ch=13 n=63 v=50
265380 On ch=13 n=69 v=50
265380 On ch=13 n=56 v=50
265400 Off ch=13 n=66 v=64
265400 Off ch=13 n=71 v=64
265400 Off ch=13 n=60 v=64
265440 On ch=13 n=66 v=49
265440 On ch=13 n=71 v=49
265440 On ch=13 n=60 v=49
265460 Off ch=13 n=63 v=64
265460 Off ch=13 n=69 v=64
265460 Off ch=13 n=56 v=64
265500 On ch=13 n=63 v=48
265500 On ch=13 n=69 v=48
265500 On ch=13 n=56 v=48
265520 Off ch=13 n=66 v=64
265520 Off ch=13 n=71 v=64
265520 Off ch=13 n=60 v=64
265560 On ch=13 n=71 v=46
265560 On ch=13 n=66 v=46
265560 On ch=13 n=60 v=46
265580 Off ch=13 n=63 v=64
265580 Off ch=13 n=69 v=64
265580 Off ch=13 n=56 v=64
265620 On ch=13 n=63 v=45
265620 On ch=13 n=69 v=45
265620 On ch=13 n=56 v=45
265640 Off ch=13 n=71 v=64
265640 Off ch=13 n=66 v=64
265640 Off ch=13 n=60 v=64
265680 On ch=13 n=66 v=44
265680 On ch=13 n=71 v=44
265680 On ch=13 n=60 v=44
265700 Off ch=13 n=63 v=64
265700 Off ch=13 n=69 v=64
265700 Off ch=13 n=56 v=64
265740 On ch=13 n=63 v=43
265740 On ch=13 n=69 v=43
265740 On ch=13 n=56 v=43
265760 Off ch=13 n=66 v=64
265760 Off ch=13 n=71 v=64
265760 Off ch=13 n=60 v=64
265800 On ch=13 n=66 v=42
265800 On ch=13 n=71 v=42
265800 On ch=13 n=60 v=42
265820 Off ch=13 n=63 v=64
265820 Off ch=13 n=69 v=64
265820 Off ch=13 n=56 v=64
265860 On ch=13 n=69 v=41
265860 On ch=13 n=63 v=41
265860 On ch=13 n=56 v=41
265880 Off ch=13 n=66 v=64
265880 Off ch=13 n=71 v=64
265880 Off ch=13 n=60 v=64
265920 On ch=13 n=71 v=49
265920 On ch=13 n=66 v=49
265920 On ch=13 n=60 v=49
265940 Off ch=13 n=69 v=64
265940 Off ch=13 n=63 v=64
265940 Off ch=13 n=56 v=64
265980 On ch=13 n=63 v=49
265980 On ch=13 n=69 v=49
265980 On ch=13 n=56 v=49
266000 Off ch=13 n=71 v=64
266000 Off ch=13 n=66 v=64
266000 Off ch=13 n=60 v=64
266040 On ch=13 n=66 v=49
266040 On ch=13 n=71 v=49
266040 On ch=13 n=60 v=49
266060 Off ch=13 n=63 v=64
266060 Off ch=13 n=69 v=64
266060 Off ch=13 n=56 v=64
266100 On ch=13 n=63 v=48
266100 On ch=13 n=69 v=48
266100 On ch=13 n=56 v=48
266120 Off ch=13 n=66 v=64
266120 Off ch=13 n=71 v=64
266120 Off ch=13 n=60 v=64
266160 On ch=13 n=66 v=48
266160 On ch=13 n=71 v=48
266160 On ch=13 n=60 v=48
266180 Off ch=13 n=63 v=64
266180 Off ch=13 n=69 v=64
266180 Off ch=13 n=56 v=64
266220 On ch=13 n=63 v=48
266220 On ch=13 n=69 v=48
266220 On ch=13 n=56 v=48
266240 Off ch=13 n=66 v=64
266240 Off ch=13 n=71 v=64
266240 Off ch=13 n=60 v=64
266280 On ch=13 n=71 v=48
266280 On ch=13 n=66 v=48
266280 On ch=13 n=60 v=48
266300 Off ch=13 n=63 v=64
266300 Off ch=13 n=69 v=64
266300 Off ch=13 n=56 v=64
266340 On ch=13 n=69 v=47
266340 On ch=13 n=63 v=47
266340 On ch=13 n=56 v=47
266360 Off ch=13 n=71 v=64
266360 Off ch=13 n=66 v=64
266360 Off ch=13 n=60 v=64
266400 On ch=13 n=71 v=47
266400 On ch=13 n=66 v=47
266400 On ch=13 n=60 v=47
266420 Off ch=13 n=69 v=64
266420 Off ch=13 n=63 v=64
266420 Off ch=13 n=56 v=64
266460 On ch=13 n=63 v=47
266460 On ch=13 n=69 v=47
266460 On ch=13 n=56 v=47
266480 Off ch=13 n=71 v=64
266480 Off ch=13 n=66 v=64
266480 Off ch=13 n=60 v=64
266520 On ch=13 n=71 v=46
266520 On ch=13 n=66 v=46
266520 On ch=13 n=60 v=46
266540 Off ch=13 n=63 v=64
266540 Off ch=13 n=69 v=64
266540 Off ch=13 n=56 v=64
266580 On ch=13 n=63 v=46
266580 On ch=13 n=69 v=46
266580 On ch=13 n=56 v=46
266600 Off ch=13 n=71 v=64
266600 Off ch=13 n=66 v=64
266600 Off ch=13 n=60 v=64
266640 On ch=13 n=71 v=46
266640 On ch=13 n=66 v=46
266640 On ch=13 n=60 v=46
266660 Off ch=13 n=63 v=64
266660 Off ch=13 n=69 v=64
266660 Off ch=13 n=56 v=64
266700 On ch=13 n=63 v=45
266700 On ch=13 n=69 v=45
266700 On ch=13 n=56 v=45
266720 Off ch=13 n=71 v=64
266720 Off ch=13 n=66 v=64
266720 Off ch=13 n=60 v=64
266760 On ch=13 n=71 v=45
266760 On ch=13 n=66 v=45
266760 On ch=13 n=60 v=45
266780 Off ch=13 n=63 v=64
266780 Off ch=13 n=69 v=64
266780 Off ch=13 n=56 v=64
266820 On ch=13 n=63 v=45
266820 On ch=13 n=69 v=45
266820 On ch=13 n=56 v=45
266840 Off ch=13 n=71 v=64
266840 Off ch=13 n=66 v=64
266840 Off ch=13 n=60 v=64
266880 On ch=13 n=66 v=44
266880 On ch=13 n=71 v=44
266880 On ch=13 n=60 v=44
266900 Off ch=13 n=63 v=64
266900 Off ch=13 n=69 v=64
266900 Off ch=13 n=56 v=64
266940 On ch=13 n=69 v=44
266940 On ch=13 n=63 v=44
266940 On ch=13 n=56 v=44
266960 Off ch=13 n=66 v=64
266960 Off ch=13 n=71 v=64
266960 Off ch=13 n=60 v=64
267000 On ch=13 n=71 v=44
267000 On ch=13 n=66 v=44
267000 On ch=13 n=60 v=44
267020 Off ch=13 n=69 v=64
267020 Off ch=13 n=63 v=64
267020 Off ch=13 n=56 v=64
267060 On ch=13 n=63 v=43
267060 On ch=13 n=69 v=43
267060 On ch=13 n=56 v=43
267080 Off ch=13 n=71 v=64
267080 Off ch=13 n=66 v=64
267080 Off ch=13 n=60 v=64
267120 On ch=13 n=71 v=43
267120 On ch=13 n=66 v=43
267120 On ch=13 n=60 v=43
267140 Off ch=13 n=63 v=64
267140 Off ch=13 n=69 v=64
267140 Off ch=13 n=56 v=64
267180 On ch=13 n=63 v=43
267180 On ch=13 n=69 v=43
267180 On ch=13 n=56 v=43
267200 Off ch=13 n=71 v=64
267200 Off ch=13 n=66 v=64
267200 Off ch=13 n=60 v=64
267240 On ch=13 n=66 v=42
267240 On ch=13 n=71 v=42
267240 On ch=13 n=60 v=42
267260 Off ch=13 n=63 v=64
267260 Off ch=13 n=69 v=64
267260 Off ch=13 n=56 v=64
267300 On ch=13 n=63 v=42
267300 On ch=13 n=69 v=42
267300 On ch=13 n=56 v=42
267320 Off ch=13 n=66 v=64
267320 Off ch=13 n=71 v=64
267320 Off ch=13 n=60 v=64
267360 On ch=13 n=66 v=53
267360 On ch=13 n=71 v=53
267360 On ch=13 n=60 v=53
267380 Off ch=13 n=63 v=64
267380 Off ch=13 n=69 v=64
267380 Off ch=13 n=56 v=64
267420 On ch=13 n=69 v=52
267420 On ch=13 n=63 v=52
267420 On ch=13 n=56 v=52
267440 Off ch=13 n=66 v=64
267440 Off ch=13 n=71 v=64
267440 Off ch=13 n=60 v=64
267480 On ch=13 n=66 v=51
267480 On ch=13 n=71 v=51
267480 On ch=13 n=60 v=51
267500 Off ch=13 n=69 v=64
267500 Off ch=13 n=63 v=64
267500 Off ch=13 n=56 v=64
267540 On ch=13 n=63 v=50
267540 On ch=13 n=69 v=50
267540 On ch=13 n=56 v=50
267560 Off ch=13 n=66 v=64
267560 Off ch=13 n=71 v=64
267560 Off ch=13 n=60 v=64
267600 On ch=13 n=66 v=49
267600 On ch=13 n=71 v=49
267600 On ch=13 n=60 v=49
267620 Off ch=13 n=63 v=64
267620 Off ch=13 n=69 v=64
267620 Off ch=13 n=56 v=64
267660 On ch=13 n=63 v=48
267660 On ch=13 n=69 v=48
267660 On ch=13 n=56 v=48
267680 Off ch=13 n=66 v=64
267680 Off ch=13 n=71 v=64
267680 Off ch=13 n=60 v=64
267720 On ch=13 n=71 v=46
267720 On ch=13 n=66 v=46
267720 On ch=13 n=60 v=46
267740 Off ch=13 n=63 v=64
267740 Off ch=13 n=69 v=64
267740 Off ch=13 n=56 v=64
267780 On ch=13 n=63 v=45
267780 On ch=13 n=69 v=45
267780 On ch=13 n=56 v=45
267800 Off ch=13 n=71 v=64
267800 Off ch=13 n=66 v=64
267800 Off ch=13 n=60 v=64
267840 On ch=13 n=66 v=44
267840 On ch=13 n=71 v=44
267840 On ch=13 n=60 v=44
267860 Off ch=13 n=63 v=64
267860 Off ch=13 n=69 v=64
267860 Off ch=13 n=56 v=64
267900 On ch=13 n=63 v=43
267900 On ch=13 n=69 v=43
267900 On ch=13 n=56 v=43
267920 Off ch=13 n=66 v=64
267920 Off ch=13 n=71 v=64
267920 Off ch=13 n=60 v=64
267960 On ch=13 n=66 v=42
267960 On ch=13 n=71 v=42
267960 On ch=13 n=60 v=42
267980 Off ch=13 n=63 v=64
267980 Off ch=13 n=69 v=64
267980 Off ch=13 n=56 v=64
268020 On ch=13 n=69 v=41
268020 On ch=13 n=63 v=41
268020 On ch=13 n=56 v=41
268040 Off ch=13 n=66 v=64
268040 Off ch=13 n=71 v=64
268040 Off ch=13 n=60 v=64
268080 On ch=13 n=71 v=49
268080 On ch=13 n=66 v=49
268080 On ch=13 n=60 v=49
268100 Off ch=13 n=69 v=64
268100 Off ch=13 n=63 v=64
268100 Off ch=13 n=56 v=64
268140 On ch=13 n=63 v=49
268140 On ch=13 n=69 v=49
268140 On ch=13 n=56 v=49
268160 Off ch=13 n=71 v=64
268160 Off ch=13 n=66 v=64
268160 Off ch=13 n=60 v=64
268200 On ch=13 n=66 v=49
268200 On ch=13 n=71 v=49
268200 On ch=13 n=60 v=49
268220 Off ch=13 n=63 v=64
268220 Off ch=13 n=69 v=64
268220 Off ch=13 n=56 v=64
268260 On ch=13 n=63 v=48
268260 On ch=13 n=69 v=48
268260 On ch=13 n=56 v=48
268280 Off ch=13 n=66 v=64
268280 Off ch=13 n=71 v=64
268280 Off ch=13 n=60 v=64
268320 On ch=13 n=66 v=48
268320 On ch=13 n=71 v=48
268320 On ch=13 n=60 v=48
268340 Off ch=13 n=63 v=64
268340 Off ch=13 n=69 v=64
268340 Off ch=13 n=56 v=64
268380 On ch=13 n=63 v=48
268380 On ch=13 n=69 v=48
268380 On ch=13 n=56 v=48
268400 Off ch=13 n=66 v=64
268400 Off ch=13 n=71 v=64
268400 Off ch=13 n=60 v=64
268440 On ch=13 n=71 v=48
268440 On ch=13 n=66 v=48
268440 On ch=13 n=60 v=48
268460 Off ch=13 n=63 v=64
268460 Off ch=13 n=69 v=64
268460 Off ch=13 n=56 v=64
268500 On ch=13 n=69 v=47
268500 On ch=13 n=63 v=47
268500 On ch=13 n=56 v=47
268520 Off ch=13 n=71 v=64
268520 Off ch=13 n=66 v=64
268520 Off ch=13 n=60 v=64
268560 On ch=13 n=71 v=47
268560 On ch=13 n=66 v=47
268560 On ch=13 n=60 v=47
268580 Off ch=13 n=69 v=64
268580 Off ch=13 n=63 v=64
268580 Off ch=13 n=56 v=64
268620 On ch=13 n=63 v=47
268620 On ch=13 n=69 v=47
268620 On ch=13 n=56 v=47
268640 Off ch=13 n=71 v=64
268640 Off ch=13 n=66 v=64
268640 Off ch=13 n=60 v=64
268680 On ch=13 n=71 v=46
268680 On ch=13 n=66 v=46
268680 On ch=13 n=60 v=46
268700 Off ch=13 n=63 v=64
268700 Off ch=13 n=69 v=64
268700 Off ch=13 n=56 v=64
268740 On ch=13 n=63 v=46
268740 On ch=13 n=69 v=46
268740 On ch=13 n=56 v=46
268760 Off ch=13 n=71 v=64
268760 Off ch=13 n=66 v=64
268760 Off ch=13 n=60 v=64
268800 On ch=13 n=71 v=46
268800 On ch=13 n=66 v=46
268800 On ch=13 n=60 v=46
268820 Off ch=13 n=63 v=64
268820 Off ch=13 n=69 v=64
268820 Off ch=13 n=56 v=64
268860 On ch=13 n=63 v=45
268860 On ch=13 n=69 v=45
268860 On ch=13 n=56 v=45
268880 Off ch=13 n=71 v=64
268880 Off ch=13 n=66 v=64
268880 Off ch=13 n=60 v=64
268920 On ch=13 n=71 v=45
268920 On ch=13 n=66 v=45
268920 On ch=13 n=60 v=45
268940 Off ch=13 n=63 v=64
268940 Off ch=13 n=69 v=64
268940 Off ch=13 n=56 v=64
268980 On ch=13 n=63 v=45
268980 On ch=13 n=69 v=45
268980 On ch=13 n=56 v=45
269000 Off ch=13 n=71 v=64
269000 Off ch=13 n=66 v=64
269000 Off ch=13 n=60 v=64
269040 On ch=13 n=66 v=44
269040 On ch=13 n=71 v=44
269040 On ch=13 n=60 v=44
269060 Off ch=13 n=63 v=64
269060 Off ch=13 n=69 v=64
269060 Off ch=13 n=56 v=64
269100 On ch=13 n=69 v=44
269100 On ch=13 n=63 v=44
269100 On ch=13 n=56 v=44
269120 Off ch=13 n=66 v=64
269120 Off ch=13 n=71 v=64
269120 Off ch=13 n=60 v=64
269160 On ch=13 n=71 v=44
269160 On ch=13 n=66 v=44
269160 On ch=13 n=60 v=44
269180 Off ch=13 n=69 v=64
269180 Off ch=13 n=63 v=64
269180 Off ch=13 n=56 v=64
269220 On ch=13 n=63 v=43
269220 On ch=13 n=69 v=43
269220 On ch=13 n=56 v=43
269240 Off ch=13 n=71 v=64
269240 Off ch=13 n=66 v=64
269240 Off ch=13 n=60 v=64
269280 On ch=13 n=71 v=43
269280 On ch=13 n=66 v=43
269280 On ch=13 n=60 v=43
269300 Off ch=13 n=63 v=64
269300 Off ch=13 n=69 v=64
269300 Off ch=13 n=56 v=64
269340 On ch=13 n=63 v=43
269340 On ch=13 n=69 v=43
269340 On ch=13 n=56 v=43
269360 Off ch=13 n=71 v=64
269360 Off ch=13 n=66 v=64
269360 Off ch=13 n=60 v=64
269400 On ch=13 n=66 v=42
269400 On ch=13 n=71 v=42
269400 On ch=13 n=60 v=42
269420 Off ch=13 n=63 v=64
269420 Off ch=13 n=69 v=64
269420 Off ch=13 n=56 v=64
269460 On ch=13 n=63 v=42
269460 On ch=13 n=69 v=42
269460 On ch=13 n=56 v=42
269480 Off ch=13 n=66 v=64
269480 Off ch=13 n=71 v=64
269480 Off ch=13 n=60 v=64
269520 On ch=13 n=67 v=53
269520 On ch=13 n=72 v=53
269520 On ch=13 n=57 v=53
269540 Off ch=13 n=63 v=64
269540 Off ch=13 n=69 v=64
269540 Off ch=13 n=56 v=64
269600 Off ch=13 n=67 v=64
269600 Off ch=13 n=72 v=64
269600 Off ch=13 n=57 v=64
287520 On ch=13 n=71 v=49
287520 On ch=13 n=66 v=49
287520 On ch=13 n=60 v=49
287580 On ch=13 n=63 v=49
287580 On ch=13 n=69 v=49
287580 On ch=13 n=56 v=49
287600 Off ch=13 n=71 v=64
287600 Off ch=13 n=66 v=64
287600 Off ch=13 n=60 v=64
287640 On ch=13 n=66 v=49
287640 On ch=13 n=71 v=49
287640 On ch=13 n=60 v=49
287660 Off ch=13 n=63 v=64
287660 Off ch=13 n=69 v=64
287660 Off ch=13 n=56 v=64
287700 On ch=13 n=63 v=48
287700 On ch=13 n=69 v=48
287700 On ch=13 n=56 v=48
287720 Off ch=13 n=66 v=64
287720 Off ch=13 n=71 v=64
287720 Off ch=13 n=60 v=64
287760 On ch=13 n=66 v=48
287760 On ch=13 n=71 v=48
287760 On ch=13 n=60 v=48
287780 Off ch=13 n=63 v=64
287780 Off ch=13 n=69 v=64
287780 Off ch=13 n=56 v=64
287820 On ch=13 n=63 v=48
287820 On ch=13 n=69 v=48
287820 On ch=13 n=56 v=48
287840 Off ch=13 n=66 v=64
287840 Off ch=13 n=71 v=64
287840 Off ch=13 n=60 v=64
287880 On ch=13 n=71 v=48
287880 On ch=13 n=66 v=48
287880 On ch=13 n=60 v=48
287900 Off ch=13 n=63 v=64
287900 Off ch=13 n=69 v=64
287900 Off ch=13 n=56 v=64
287940 On ch=13 n=69 v=47
287940 On ch=13 n=63 v=47
287940 On ch=13 n=56 v=47
287960 Off ch=13 n=71 v=64
287960 Off ch=13 n=66 v=64
287960 Off ch=13 n=60 v=64
288000 On ch=13 n=71 v=47
288000 On ch=13 n=66 v=47
288000 On ch=13 n=60 v=47
288020 Off ch=13 n=69 v=64
288020 Off ch=13 n=63 v=64
288020 Off ch=13 n=56 v=64
288060 On ch=13 n=63 v=47
288060 On ch=13 n=69 v=47
288060 On ch=13 n=56 v=47
288080 Off ch=13 n=71 v=64
288080 Off ch=13 n=66 v=64
288080 Off ch=13 n=60 v=64
288120 On ch=13 n=71 v=46
288120 On ch=13 n=66 v=46
288120 On ch=13 n=60 v=46
288140 Off ch=13 n=63 v=64
288140 Off ch=13 n=69 v=64
288140 Off ch=13 n=56 v=64
288180 On ch=13 n=63 v=46
288180 On ch=13 n=69 v=46
288180 On ch=13 n=56 v=46
288200 Off ch=13 n=71 v=64
288200 Off ch=13 n=66 v=64
288200 Off ch=13 n=60 v=64
288240 On ch=13 n=71 v=46
288240 On ch=13 n=66 v=46
288240 On ch=13 n=60 v=46
288260 Off ch=13 n=63 v=64
288260 Off ch=13 n=69 v=64
288260 Off ch=13 n=56 v=64
288300 On ch=13 n=63 v=45
288300 On ch=13 n=69 v=45
288300 On ch=13 n=56 v=45
288320 Off ch=13 n=71 v=64
288320 Off ch=13 n=66 v=64
288320 Off ch=13 n=60 v=64
288360 On ch=13 n=71 v=45
288360 On ch=13 n=66 v=45
288360 On ch=13 n=60 v=45
288380 Off ch=13 n=63 v=64
288380 Off ch=13 n=69 v=64
288380 Off ch=13 n=56 v=64
288420 On ch=13 n=63 v=45
288420 On ch=13 n=69 v=45
288420 On ch=13 n=56 v=45
288440 Off ch=13 n=71 v=64
288440 Off ch=13 n=66 v=64
288440 Off ch=13 n=60 v=64
288480 On ch=13 n=66 v=44
288480 On ch=13 n=71 v=44
288480 On ch=13 n=60 v=44
288500 Off ch=13 n=63 v=64
288500 Off ch=13 n=69 v=64
288500 Off ch=13 n=56 v=64
288540 On ch=13 n=69 v=44
288540 On ch=13 n=63 v=44
288540 On ch=13 n=56 v=44
288560 Off ch=13 n=66 v=64
288560 Off ch=13 n=71 v=64
288560 Off ch=13 n=60 v=64
288600 On ch=13 n=71 v=44
288600 On ch=13 n=66 v=44
288600 On ch=13 n=60 v=44
288620 Off ch=13 n=69 v=64
288620 Off ch=13 n=63 v=64
288620 Off ch=13 n=56 v=64
288660 On ch=13 n=63 v=43
288660 On ch=13 n=69 v=43
288660 On ch=13 n=56 v=43
288680 Off ch=13 n=71 v=64
288680 Off ch=13 n=66 v=64
288680 Off ch=13 n=60 v=64
288720 On ch=13 n=71 v=43
288720 On ch=13 n=66 v=43
288720 On ch=13 n=60 v=43
288740 Off ch=13 n=63 v=64
288740 Off ch=13 n=69 v=64
288740 Off ch=13 n=56 v=64
288780 On ch=13 n=63 v=43
288780 On ch=13 n=69 v=43
288780 On ch=13 n=56 v=43
288800 Off ch=13 n=71 v=64
288800 Off ch=13 n=66 v=64
288800 Off ch=13 n=60 v=64
288840 On ch=13 n=66 v=42
288840 On ch=13 n=71 v=42
288840 On ch=13 n=60 v=42
288860 Off ch=13 n=63 v=64
288860 Off ch=13 n=69 v=64
288860 Off ch=13 n=56 v=64
288900 On ch=13 n=63 v=42
288900 On ch=13 n=69 v=42
288900 On ch=13 n=56 v=42
288920 Off ch=13 n=66 v=64
288920 Off ch=13 n=71 v=64
288920 Off ch=13 n=60 v=64
288960 On ch=13 n=66 v=53
288960 On ch=13 n=71 v=53
288960 On ch=13 n=60 v=53
288980 Off ch=13 n=63 v=64
288980 Off ch=13 n=69 v=64
288980 Off ch=13 n=56 v=64
289020 On ch=13 n=69 v=52
289020 On ch=13 n=63 v=52
289020 On ch=13 n=56 v=52
289040 Off ch=13 n=66 v=64
289040 Off ch=13 n=71 v=64
289040 Off ch=13 n=60 v=64
289080 On ch=13 n=66 v=51
289080 On ch=13 n=71 v=51
289080 On ch=13 n=60 v=51
289100 Off ch=13 n=69 v=64
289100 Off ch=13 n=63 v=64
289100 Off ch=13 n=56 v=64
289140 On ch=13 n=63 v=50
289140 On ch=13 n=69 v=50
289140 On ch=13 n=56 v=50
289160 Off ch=13 n=66 v=64
289160 Off ch=13 n=71 v=64
289160 Off ch=13 n=60 v=64
289200 On ch=13 n=66 v=49
289200 On ch=13 n=71 v=49
289200 On ch=13 n=60 v=49
289220 Off ch=13 n=63 v=64
289220 Off ch=13 n=69 v=64
289220 Off ch=13 n=56 v=64
289260 On ch=13 n=63 v=48
289260 On ch=13 n=69 v=48
289260 On ch=13 n=56 v=48
289280 Off ch=13 n=66 v=64
289280 Off ch=13 n=71 v=64
289280 Off ch=13 n=60 v=64
289320 On ch=13 n=71 v=46
289320 On ch=13 n=66 v=46
289320 On ch=13 n=60 v=46
289340 Off ch=13 n=63 v=64
289340 Off ch=13 n=69 v=64
289340 Off ch=13 n=56 v=64
289380 On ch=13 n=63 v=45
289380 On ch=13 n=69 v=45
289380 On ch=13 n=56 v=45
289400 Off ch=13 n=71 v=64
289400 Off ch=13 n=66 v=64
289400 Off ch=13 n=60 v=64
289440 On ch=13 n=66 v=44
289440 On ch=13 n=71 v=44
289440 On ch=13 n=60 v=44
289460 Off ch=13 n=63 v=64
289460 Off ch=13 n=69 v=64
289460 Off ch=13 n=56 v=64
289500 On ch=13 n=63 v=43
289500 On ch=13 n=69 v=43
289500 On ch=13 n=56 v=43
289520 Off ch=13 n=66 v=64
289520 Off ch=13 n=71 v=64
289520 Off ch=13 n=60 v=64
289560 On ch=13 n=66 v=42
289560 On ch=13 n=71 v=42
289560 On ch=13 n=60 v=42
289580 Off ch=13 n=63 v=64
289580 Off ch=13 n=69 v=64
289580 Off ch=13 n=56 v=64
289620 On ch=13 n=69 v=41
289620 On ch=13 n=63 v=41
289620 On ch=13 n=56 v=41
289640 Off ch=13 n=66 v=64
289640 Off ch=13 n=71 v=64
289640 Off ch=13 n=60 v=64
289680 On ch=13 n=71 v=49
289680 On ch=13 n=66 v=49
289680 On ch=13 n=60 v=49
289700 Off ch=13 n=69 v=64
289700 Off ch=13 n=63 v=64
289700 Off ch=13 n=56 v=64
289740 On ch=13 n=63 v=49
289740 On ch=13 n=69 v=49
289740 On ch=13 n=56 v=49
289760 Off ch=13 n=71 v=64
289760 Off ch=13 n=66 v=64
289760 Off ch=13 n=60 v=64
289800 On ch=13 n=66 v=49
289800 On ch=13 n=71 v=49
289800 On ch=13 n=60 v=49
289820 Off ch=13 n=63 v=64
289820 Off ch=13 n=69 v=64
289820 Off ch=13 n=56 v=64
289860 On ch=13 n=63 v=48
289860 On ch=13 n=69 v=48
289860 On ch=13 n=56 v=48
289880 Off ch=13 n=66 v=64
289880 Off ch=13 n=71 v=64
289880 Off ch=13 n=60 v=64
289920 On ch=13 n=66 v=48
289920 On ch=13 n=71 v=48
289920 On ch=13 n=60 v=48
289940 Off ch=13 n=63 v=64
289940 Off ch=13 n=69 v=64
289940 Off ch=13 n=56 v=64
289980 On ch=13 n=63 v=48
289980 On ch=13 n=69 v=48
289980 On ch=13 n=56 v=48
290000 Off ch=13 n=66 v=64
290000 Off ch=13 n=71 v=64
290000 Off ch=13 n=60 v=64
290040 On ch=13 n=71 v=48
290040 On ch=13 n=66 v=48
290040 On ch=13 n=60 v=48
290060 Off ch=13 n=63 v=64
290060 Off ch=13 n=69 v=64
290060 Off ch=13 n=56 v=64
290100 On ch=13 n=69 v=47
290100 On ch=13 n=63 v=47
290100 On ch=13 n=56 v=47
290120 Off ch=13 n=71 v=64
290120 Off ch=13 n=66 v=64
290120 Off ch=13 n=60 v=64
290160 On ch=13 n=71 v=47
290160 On ch=13 n=66 v=47
290160 On ch=13 n=60 v=47
290180 Off ch=13 n=69 v=64
290180 Off ch=13 n=63 v=64
290180 Off ch=13 n=56 v=64
290220 On ch=13 n=63 v=47
290220 On ch=13 n=69 v=47
290220 On ch=13 n=56 v=47
290240 Off ch=13 n=71 v=64
290240 Off ch=13 n=66 v=64
290240 Off ch=13 n=60 v=64
290280 On ch=13 n=71 v=46
290280 On ch=13 n=66 v=46
290280 On ch=13 n=60 v=46
290300 Off ch=13 n=63 v=64
290300 Off ch=13 n=69 v=64
290300 Off ch=13 n=56 v=64
290340 On ch=13 n=63 v=46
290340 On ch=13 n=69 v=46
290340 On ch=13 n=56 v=46
290360 Off ch=13 n=71 v=64
290360 Off ch=13 n=66 v=64
290360 Off ch=13 n=60 v=64
290400 On ch=13 n=71 v=46
290400 On ch=13 n=66 v=46
290400 On ch=13 n=60 v=46
290420 Off ch=13 n=63 v=64
290420 Off ch=13 n=69 v=64
290420 Off ch=13 n=56 v=64
290460 On ch=13 n=63 v=45
290460 On ch=13 n=69 v=45
290460 On ch=13 n=56 v=45
290480 Off ch=13 n=71 v=64
290480 Off ch=13 n=66 v=64
290480 Off ch=13 n=60 v=64
290520 On ch=13 n=71 v=45
290520 On ch=13 n=66 v=45
290520 On ch=13 n=60 v=45
290540 Off ch=13 n=63 v=64
290540 Off ch=13 n=69 v=64
290540 Off ch=13 n=56 v=64
290580 On ch=13 n=63 v=45
290580 On ch=13 n=69 v=45
290580 On ch=13 n=56 v=45
290600 Off ch=13 n=71 v=64
290600 Off ch=13 n=66 v=64
290600 Off ch=13 n=60 v=64
290640 On ch=13 n=66 v=44
290640 On ch=13 n=71 v=44
290640 On ch=13 n=60 v=44
290660 Off ch=13 n=63 v=64
290660 Off ch=13 n=69 v=64
290660 Off ch=13 n=56 v=64
290700 On ch=13 n=69 v=44
290700 On ch=13 n=63 v=44
290700 On ch=13 n=56 v=44
290720 Off ch=13 n=66 v=64
290720 Off ch=13 n=71 v=64
290720 Off ch=13 n=60 v=64
290760 On ch=13 n=71 v=44
290760 On ch=13 n=66 v=44
290760 On ch=13 n=60 v=44
290780 Off ch=13 n=69 v=64
290780 Off ch=13 n=63 v=64
290780 Off ch=13 n=56 v=64
290820 On ch=13 n=63 v=43
290820 On ch=13 n=69 v=43
290820 On ch=13 n=56 v=43
290840 Off ch=13 n=71 v=64
290840 Off ch=13 n=66 v=64
290840 Off ch=13 n=60 v=64
290880 On ch=13 n=71 v=43
290880 On ch=13 n=66 v=43
290880 On ch=13 n=60 v=43
290900 Off ch=13 n=63 v=64
290900 Off ch=13 n=69 v=64
290900 Off ch=13 n=56 v=64
290940 On ch=13 n=63 v=43
290940 On ch=13 n=69 v=43
290940 On ch=13 n=56 v=43
290960 Off ch=13 n=71 v=64
290960 Off ch=13 n=66 v=64
290960 Off ch=13 n=60 v=64
291000 On ch=13 n=66 v=42
291000 On ch=13 n=71 v=42
291000 On ch=13 n=60 v=42
291020 Off ch=13 n=63 v=64
291020 Off ch=13 n=69 v=64
291020 Off ch=13 n=56 v=64
291060 On ch=13 n=63 v=42
291060 On ch=13 n=69 v=42
291060 On ch=13 n=56 v=42
291080 Off ch=13 n=66 v=64
291080 Off ch=13 n=71 v=64
291080 Off ch=13 n=60 v=64
291120 On ch=13 n=66 v=53
291120 On ch=13 n=71 v=53
291120 On ch=13 n=60 v=53
291140 Off ch=13 n=63 v=64
291140 Off ch=13 n=69 v=64
291140 Off ch=13 n=56 v=64
291180 On ch=13 n=69 v=52
291180 On ch=13 n=63 v=52
291180 On ch=13 n=56 v=52
291200 Off ch=13 n=66 v=64
291200 Off ch=13 n=71 v=64
291200 Off ch=13 n=60 v=64
291240 On ch=13 n=66 v=51
291240 On ch=13 n=71 v=51
291240 On ch=13 n=60 v=51
291260 Off ch=13 n=69 v=64
291260 Off ch=13 n=63 v=64
291260 Off ch=13 n=56 v=64
291300 On ch=13 n=63 v=50
291300 On ch=13 n=69 v=50
291300 On ch=13 n=56 v=50
291320 Off ch=13 n=66 v=64
291320 Off ch=13 n=71 v=64
291320 Off ch=13 n=60 v=64
291360 On ch=13 n=66 v=49
291360 On ch=13 n=71 v=49
291360 On ch=13 n=60 v=49
291380 Off ch=13 n=63 v=64
291380 Off ch=13 n=69 v=64
291380 Off ch=13 n=56 v=64
291420 On ch=13 n=63 v=48
291420 On ch=13 n=69 v=48
291420 On ch=13 n=56 v=48
291440 Off ch=13 n=66 v=64
291440 Off ch=13 n=71 v=64
291440 Off ch=13 n=60 v=64
291480 On ch=13 n=71 v=46
291480 On ch=13 n=66 v=46
291480 On ch=13 n=60 v=46
291500 Off ch=13 n=63 v=64
291500 Off ch=13 n=69 v=64
291500 Off ch=13 n=56 v=64
291540 On ch=13 n=63 v=45
291540 On ch=13 n=69 v=45
291540 On ch=13 n=56 v=45
291560 Off ch=13 n=71 v=64
291560 Off ch=13 n=66 v=64
291560 Off ch=13 n=60 v=64
291600 On ch=13 n=66 v=44
291600 On ch=13 n=71 v=44
291600 On ch=13 n=60 v=44
291620 Off ch=13 n=63 v=64
291620 Off ch=13 n=69 v=64
291620 Off ch=13 n=56 v=64
291660 On ch=13 n=63 v=43
291660 On ch=13 n=69 v=43
291660 On ch=13 n=56 v=43
291680 Off ch=13 n=66 v=64
291680 Off ch=13 n=71 v=64
291680 Off ch=13 n=60 v=64
291720 On ch=13 n=66 v=42
291720 On ch=13 n=71 v=42
291720 On ch=13 n=60 v=42
291740 Off ch=13 n=63 v=64
291740 Off ch=13 n=69 v=64
291740 Off ch=13 n=56 v=64
291780 On ch=13 n=69 v=41
291780 On ch=13 n=63 v=41
291780 On ch=13 n=56 v=41
291800 Off ch=13 n=66 v=64
291800 Off ch=13 n=71 v=64
291800 Off ch=13 n=60 v=64
291840 On ch=13 n=72 v=49
291840 On ch=13 n=67 v=49
291840 On ch=13 n=57 v=49
291860 Off ch=13 n=69 v=64
291860 Off ch=13 n=63 v=64
291860 Off ch=13 n=56 v=64
291920 Off ch=13 n=72 v=64
291920 Off ch=13 n=67 v=64
291920 Off ch=13 n=57 v=64
296880 On ch=13 n=79 v=24
296880 On ch=13 n=85 v=24
296880 On ch=13 n=82 v=24
296880 On ch=13 n=87 v=24
297000 Off ch=13 n=79 v=64
297000 Off ch=13 n=85 v=64
297000 Off ch=13 n=82 v=64
297000 Off ch=13 n=87 v=64
297000 On ch=13 n=85 v=25
297000 On ch=13 n=82 v=25
297000 On ch=13 n=79 v=25
297000 On ch=13 n=87 v=25
297120 Off ch=13 n=85 v=64
297120 Off ch=13 n=82 v=64
297120 Off ch=13 n=79 v=64
297120 Off ch=13 n=87 v=64
297120 On ch=13 n=85 v=26
297120 On ch=13 n=79 v=26
297120 On ch=13 n=82 v=26
297120 On ch=13 n=87 v=26
297240 Off ch=13 n=85 v=64
297240 Off ch=13 n=79 v=64
297240 Off ch=13 n=82 v=64
297240 Off ch=13 n=87 v=64
297240 On ch=13 n=85 v=27
297240 On ch=13 n=82 v=27
297240 On ch=13 n=79 v=27
297240 On ch=13 n=87 v=27
297360 Off ch=13 n=85 v=64
297360 Off ch=13 n=82 v=64
297360 Off ch=13 n=79 v=64
297360 Off ch=13 n=87 v=64
297360 On ch=13 n=85 v=28
297360 On ch=13 n=79 v=28
297360 On ch=13 n=82 v=28
297360 On ch=13 n=87 v=28
297480 Off ch=13 n=85 v=64
297480 Off ch=13 n=79 v=64
297480 Off ch=13 n=82 v=64
297480 Off ch=13 n=87 v=64
297480 On ch=13 n=82 v=30
297480 On ch=13 n=85 v=30
297480 On ch=13 n=79 v=30
297480 On ch=13 n=87 v=30
297600 Off ch=13 n=82 v=64
297600 Off ch=13 n=85 v=64
297600 Off ch=13 n=79 v=64
297600 Off ch=13 n=87 v=64
297600 On ch=13 n=88 v=31
297600 On ch=13 n=82 v=31
297600 On ch=13 n=85 v=31
297600 On ch=13 n=87 v=31
297600 On ch=13 n=90 v=31
297720 Off ch=13 n=88 v=64
297720 Off ch=13 n=82 v=64
297720 Off ch=13 n=85 v=64
297720 Off ch=13 n=87 v=64
297720 Off ch=13 n=90 v=64
297720 On ch=13 n=88 v=32
297720 On ch=13 n=85 v=32
297720 On ch=13 n=82 v=32
297720 On ch=13 n=90 v=32
297720 On ch=13 n=87 v=32
297840 Off ch=13 n=88 v=64
297840 Off ch=13 n=85 v=64
297840 Off ch=13 n=82 v=64
297840 Off ch=13 n=90 v=64
297840 Off ch=13 n=87 v=64
297840 On ch=13 n=88 v=33
297840 On ch=13 n=85 v=33
297840 On ch=13 n=82 v=33
297840 On ch=13 n=90 v=33
297840 On ch=13 n=87 v=33
297960 Off ch=13 n=88 v=64
297960 Off ch=13 n=85 v=64
297960 Off ch=13 n=82 v=64
297960 Off ch=13 n=90 v=64
297960 Off ch=13 n=87 v=64
297960 On ch=13 n=82 v=34
297960 On ch=13 n=88 v=34
297960 On ch=13 n=85 v=34
297960 On ch=13 n=90 v=34
297960 On ch=13 n=87 v=34
298080 Off ch=13 n=82 v=64
298080 Off ch=13 n=88 v=64
298080 Off ch=13 n=85 v=64
298080 Off ch=13 n=90 v=64
298080 Off ch=13 n=87 v=64
298080 On ch=13 n=88 v=35
298080 On ch=13 n=85 v=35
298080 On ch=13 n=82 v=35
298080 On ch=13 n=90 v=35
298080 On ch=13 n=87 v=35
298200 Off ch=13 n=88 v=64
298200 Off ch=13 n=85 v=64
298200 Off ch=13 n=82 v=64
298200 Off ch=13 n=90 v=64
298200 Off ch=13 n=87 v=64
298200 On ch=13 n=88 v=36
298200 On ch=13 n=82 v=36
298200 On ch=13 n=85 v=36
298200 On ch=13 n=90 v=36
298200 On ch=13 n=87 v=36
298320 Off ch=13 n=88 v=64
298320 Off ch=13 n=82 v=64
298320 Off ch=13 n=85 v=64
298320 Off ch=13 n=90 v=64
298320 Off ch=13 n=87 v=64
298320 On ch=13 n=88 v=37
298320 On ch=13 n=82 v=37
298320 On ch=13 n=85 v=37
298320 On ch=13 n=90 v=37
298320 On ch=13 n=87 v=37
298440 Off ch=13 n=88 v=64
298440 Off ch=13 n=82 v=64
298440 Off ch=13 n=85 v=64
298440 Off ch=13 n=90 v=64
298440 Off ch=13 n=87 v=64
298440 On ch=13 n=85 v=36
298440 On ch=13 n=88 v=36
298440 On ch=13 n=82 v=36
298440 On ch=13 n=90 v=36
298440 On ch=13 n=87 v=36
298560 Off ch=13 n=85 v=64
298560 Off ch=13 n=88 v=64
298560 Off ch=13 n=82 v=64
298560 Off ch=13 n=90 v=64
298560 Off ch=13 n=87 v=64
298560 On ch=13 n=82 v=35
298560 On ch=13 n=88 v=35
298560 On ch=13 n=85 v=35
298560 On ch=13 n=87 v=35
298560 On ch=13 n=90 v=35
298680 Off ch=13 n=82 v=64
298680 Off ch=13 n=88 v=64
298680 Off ch=13 n=85 v=64
298680 Off ch=13 n=87 v=64
298680 Off ch=13 n=90 v=64
298680 On ch=13 n=85 v=34
298680 On ch=13 n=88 v=34
298680 On ch=13 n=82 v=34
298680 On ch=13 n=90 v=34
298680 On ch=13 n=87 v=34
298800 Off ch=13 n=85 v=64
298800 Off ch=13 n=88 v=64
298800 Off ch=13 n=82 v=64
298800 Off ch=13 n=90 v=64
298800 Off ch=13 n=87 v=64
298800 On ch=13 n=88 v=33
298800 On ch=13 n=82 v=33
298800 On ch=13 n=85 v=33
298800 On ch=13 n=87 v=33
298800 On ch=13 n=90 v=33
298920 Off ch=13 n=88 v=64
298920 Off ch=13 n=82 v=64
298920 Off ch=13 n=85 v=64
298920 Off ch=13 n=87 v=64
298920 Off ch=13 n=90 v=64
298920 On ch=13 n=88 v=32
298920 On ch=13 n=82 v=32
298920 On ch=13 n=85 v=32
298920 On ch=13 n=90 v=32
298920 On ch=13 n=87 v=32
299040 Off ch=13 n=88 v=64
299040 Off ch=13 n=82 v=64
299040 Off ch=13 n=85 v=64
299040 Off ch=13 n=90 v=64
299040 Off ch=13 n=87 v=64
299040 On ch=13 n=85 v=30
299040 On ch=13 n=82 v=30
299040 On ch=13 n=79 v=30
299040 On ch=13 n=87 v=30
299160 Off ch=13 n=85 v=64
299160 Off ch=13 n=82 v=64
299160 Off ch=13 n=79 v=64
299160 Off ch=13 n=87 v=64
299160 On ch=13 n=85 v=29
299160 On ch=13 n=79 v=29
299160 On ch=13 n=82 v=29
299160 On ch=13 n=87 v=29
299280 Off ch=13 n=85 v=64
299280 Off ch=13 n=79 v=64
299280 Off ch=13 n=82 v=64
299280 Off ch=13 n=87 v=64
299280 On ch=13 n=79 v=28
299280 On ch=13 n=85 v=28
299280 On ch=13 n=82 v=28
299280 On ch=13 n=87 v=28
299400 Off ch=13 n=79 v=64
299400 Off ch=13 n=85 v=64
299400 Off ch=13 n=82 v=64
299400 Off ch=13 n=87 v=64
299400 On ch=13 n=85 v=27
299400 On ch=13 n=79 v=27
299400 On ch=13 n=82 v=27
299400 On ch=13 n=87 v=27
299520 Off ch=13 n=85 v=64
299520 Off ch=13 n=79 v=64
299520 Off ch=13 n=82 v=64
299520 Off ch=13 n=87 v=64
299520 On ch=13 n=79 v=26
299520 On ch=13 n=85 v=26
299520 On ch=13 n=82 v=26
299520 On ch=13 n=87 v=26
299640 Off ch=13 n=79 v=64
299640 Off ch=13 n=85 v=64
299640 Off ch=13 n=82 v=64
299640 Off ch=13 n=87 v=64
299640 On ch=13 n=85 v=24
299640 On ch=13 n=79 v=24
299640 On ch=13 n=82 v=24
299640 On ch=13 n=87 v=24
299760 Off ch=13 n=85 v=64
299760 Off ch=13 n=79 v=64
299760 Off ch=13 n=82 v=64
299760 Off ch=13 n=87 v=64
299760 On ch=13 n=79 v=22
299760 On ch=13 n=85 v=22
299760 On ch=13 n=82 v=22
299760 On ch=13 n=87 v=22
299880 Off ch=13 n=79 v=64
299880 Off ch=13 n=85 v=64
299880 Off ch=13 n=82 v=64
299880 Off ch=13 n=87 v=64
299880 On ch=13 n=85 v=23
299880 On ch=13 n=82 v=23
299880 On ch=13 n=79 v=23
299880 On ch=13 n=87 v=23
300000 Off ch=13 n=85 v=64
300000 Off ch=13 n=82 v=64
300000 Off ch=13 n=79 v=64
300000 Off ch=13 n=87 v=64
300000 On ch=13 n=85 v=25
300000 On ch=13 n=79 v=25
300000 On ch=13 n=82 v=25
300000 On ch=13 n=87 v=25
300120 Off ch=13 n=85 v=64
300120 Off ch=13 n=79 v=64
300120 Off ch=13 n=82 v=64
300120 Off ch=13 n=87 v=64
300120 On ch=13 n=85 v=26
300120 On ch=13 n=82 v=26
300120 On ch=13 n=79 v=26
300120 On ch=13 n=87 v=26
300240 Off ch=13 n=85 v=64
300240 Off ch=13 n=82 v=64
300240 Off ch=13 n=79 v=64
300240 Off ch=13 n=87 v=64
300240 On ch=13 n=85 v=28
300240 On ch=13 n=79 v=28
300240 On ch=13 n=82 v=28
300240 On ch=13 n=87 v=28
300360 Off ch=13 n=85 v=64
300360 Off ch=13 n=79 v=64
300360 Off ch=13 n=82 v=64
300360 Off ch=13 n=87 v=64
300360 On ch=13 n=82 v=29
300360 On ch=13 n=85 v=29
300360 On ch=13 n=79 v=29
300360 On ch=13 n=87 v=29
300480 Off ch=13 n=82 v=64
300480 Off ch=13 n=85 v=64
300480 Off ch=13 n=79 v=64
300480 Off ch=13 n=87 v=64
300480 On ch=13 n=88 v=30
300480 On ch=13 n=82 v=30
300480 On ch=13 n=85 v=30
300480 On ch=13 n=87 v=30
300480 On ch=13 n=90 v=30
300600 Off ch=13 n=88 v=64
300600 Off ch=13 n=82 v=64
300600 Off ch=13 n=85 v=64
300600 Off ch=13 n=87 v=64
300600 Off ch=13 n=90 v=64
300600 On ch=13 n=88 v=32
300600 On ch=13 n=85 v=32
300600 On ch=13 n=82 v=32
300600 On ch=13 n=90 v=32
300600 On ch=13 n=87 v=32
300720 Off ch=13 n=88 v=64
300720 Off ch=13 n=85 v=64
300720 Off ch=13 n=82 v=64
300720 Off ch=13 n=90 v=64
300720 Off ch=13 n=87 v=64
300720 On ch=13 n=88 v=33
300720 On ch=13 n=85 v=33
300720 On ch=13 n=82 v=33
300720 On ch=13 n=90 v=33
300720 On ch=13 n=87 v=33
300840 Off ch=13 n=88 v=64
300840 Off ch=13 n=85 v=64
300840 Off ch=13 n=82 v=64
300840 Off ch=13 n=90 v=64
300840 Off ch=13 n=87 v=64
300840 On ch=13 n=82 v=35
300840 On ch=13 n=88 v=35
300840 On ch=13 n=85 v=35
300840 On ch=13 n=90 v=35
300840 On ch=13 n=87 v=35
300960 Off ch=13 n=82 v=64
300960 Off ch=13 n=88 v=64
300960 Off ch=13 n=85 v=64
300960 Off ch=13 n=90 v=64
300960 Off ch=13 n=87 v=64
300960 On ch=13 n=88 v=36
300960 On ch=13 n=85 v=36
300960 On ch=13 n=82 v=36
300960 On ch=13 n=90 v=36
300960 On ch=13 n=87 v=36
301080 Off ch=13 n=88 v=64
301080 Off ch=13 n=85 v=64
301080 Off ch=13 n=82 v=64
301080 Off ch=13 n=90 v=64
301080 Off ch=13 n=87 v=64
301080 On ch=13 n=88 v=37
301080 On ch=13 n=82 v=37
301080 On ch=13 n=85 v=37
301080 On ch=13 n=90 v=37
301080 On ch=13 n=87 v=37
301200 Off ch=13 n=88 v=64
301200 Off ch=13 n=82 v=64
301200 Off ch=13 n=85 v=64
301200 Off ch=13 n=90 v=64
301200 Off ch=13 n=87 v=64
301200 On ch=13 n=88 v=39
301200 On ch=13 n=82 v=39
301200 On ch=13 n=85 v=39
301200 On ch=13 n=90 v=39
301200 On ch=13 n=87 v=39
301320 Off ch=13 n=88 v=64
301320 Off ch=13 n=82 v=64
301320 Off ch=13 n=85 v=64
301320 Off ch=13 n=90 v=64
301320 Off ch=13 n=87 v=64
301320 On ch=13 n=85 v=36
301320 On ch=13 n=88 v=36
301320 On ch=13 n=82 v=36
301320 On ch=13 n=90 v=36
301320 On ch=13 n=87 v=36
301440 Off ch=13 n=85 v=64
301440 Off ch=13 n=88 v=64
301440 Off ch=13 n=82 v=64
301440 Off ch=13 n=90 v=64
301440 Off ch=13 n=87 v=64
301440 On ch=13 n=82 v=35
301440 On ch=13 n=88 v=35
301440 On ch=13 n=85 v=35
301440 On ch=13 n=87 v=35
301440 On ch=13 n=90 v=35
301560 Off ch=13 n=82 v=64
301560 Off ch=13 n=88 v=64
301560 Off ch=13 n=85 v=64
301560 Off ch=13 n=87 v=64
301560 Off ch=13 n=90 v=64
301560 On ch=13 n=85 v=34
301560 On ch=13 n=88 v=34
301560 On ch=13 n=82 v=34
301560 On ch=13 n=90 v=34
301560 On ch=13 n=87 v=34
301680 Off ch=13 n=85 v=64
301680 Off ch=13 n=88 v=64
301680 Off ch=13 n=82 v=64
301680 Off ch=13 n=90 v=64
301680 Off ch=13 n=87 v=64
301680 On ch=13 n=88 v=33
301680 On ch=13 n=82 v=33
301680 On ch=13 n=85 v=33
301680 On ch=13 n=87 v=33
301680 On ch=13 n=90 v=33
301800 Off ch=13 n=88 v=64
301800 Off ch=13 n=82 v=64
301800 Off ch=13 n=85 v=64
301800 Off ch=13 n=87 v=64
301800 Off ch=13 n=90 v=64
301800 On ch=13 n=88 v=32
301800 On ch=13 n=82 v=32
301800 On ch=13 n=85 v=32
301800 On ch=13 n=90 v=32
301800 On ch=13 n=87 v=32
301920 Off ch=13 n=88 v=64
301920 Off ch=13 n=82 v=64
301920 Off ch=13 n=85 v=64
301920 Off ch=13 n=90 v=64
301920 Off ch=13 n=87 v=64
301920 On ch=13 n=85 v=31
301920 On ch=13 n=82 v=31
301920 On ch=13 n=79 v=31
301920 On ch=13 n=87 v=31
302040 Off ch=13 n=85 v=64
302040 Off ch=13 n=82 v=64
302040 Off ch=13 n=79 v=64
302040 Off ch=13 n=87 v=64
302040 On ch=13 n=85 v=30
302040 On ch=13 n=79 v=30
302040 On ch=13 n=82 v=30
302040 On ch=13 n=87 v=30
302160 Off ch=13 n=85 v=64
302160 Off ch=13 n=79 v=64
302160 Off ch=13 n=82 v=64
302160 Off ch=13 n=87 v=64
302160 On ch=13 n=79 v=28
302160 On ch=13 n=85 v=28
302160 On ch=13 n=82 v=28
302160 On ch=13 n=87 v=28
302280 Off ch=13 n=79 v=64
302280 Off ch=13 n=85 v=64
302280 Off ch=13 n=82 v=64
302280 Off ch=13 n=87 v=64
302280 On ch=13 n=85 v=27
302280 On ch=13 n=79 v=27
302280 On ch=13 n=82 v=27
302280 On ch=13 n=87 v=27
302400 Off ch=13 n=85 v=64
302400 Off ch=13 n=79 v=64
302400 Off ch=13 n=82 v=64
302400 Off ch=13 n=87 v=64
302400 On ch=13 n=79 v=26
302400 On ch=13 n=85 v=26
302400 On ch=13 n=82 v=26
302400 On ch=13 n=87 v=26
302520 Off ch=13 n=79 v=64
302520 Off ch=13 n=85 v=64
302520 Off ch=13 n=82 v=64
302520 Off ch=13 n=87 v=64
302520 On ch=13 n=85 v=25
302520 On ch=13 n=79 v=25
302520 On ch=13 n=82 v=25
302520 On ch=13 n=87 v=25
302640 Off ch=13 n=85 v=64
302640 Off ch=13 n=79 v=64
302640 Off ch=13 n=82 v=64
302640 Off ch=13 n=87 v=64
302640 On ch=13 n=79 v=24
302640 On ch=13 n=85 v=24
302640 On ch=13 n=82 v=24
302640 On ch=13 n=87 v=24
302760 Off ch=13 n=79 v=64
302760 Off ch=13 n=85 v=64
302760 Off ch=13 n=82 v=64
302760 Off ch=13 n=87 v=64
302760 On ch=13 n=85 v=25
302760 On ch=13 n=82 v=25
302760 On ch=13 n=79 v=25
302760 On ch=13 n=87 v=25
302880 Off ch=13 n=85 v=64
302880 Off ch=13 n=82 v=64
302880 Off ch=13 n=79 v=64
302880 Off ch=13 n=87 v=64
302880 On ch=13 n=85 v=26
302880 On ch=13 n=79 v=26
302880 On ch=13 n=82 v=26
302880 On ch=13 n=87 v=26
303000 Off ch=13 n=85 v=64
303000 Off ch=13 n=79 v=64
303000 Off ch=13 n=82 v=64
303000 Off ch=13 n=87 v=64
303000 On ch=13 n=85 v=28
303000 On ch=13 n=82 v=28
303000 On ch=13 n=79 v=28
303000 On ch=13 n=87 v=28
303120 Off ch=13 n=85 v=64
303120 Off ch=13 n=82 v=64
303120 Off ch=13 n=79 v=64
303120 Off ch=13 n=87 v=64
303120 On ch=13 n=85 v=30
303120 On ch=13 n=79 v=30
303120 On ch=13 n=82 v=30
303120 On ch=13 n=87 v=30
303240 Off ch=13 n=85 v=64
303240 Off ch=13 n=79 v=64
303240 Off ch=13 n=82 v=64
303240 Off ch=13 n=87 v=64
303240 On ch=13 n=82 v=31
303240 On ch=13 n=85 v=31
303240 On ch=13 n=79 v=31
303240 On ch=13 n=87 v=31
303360 Off ch=13 n=82 v=64
303360 Off ch=13 n=85 v=64
303360 Off ch=13 n=79 v=64
303360 Off ch=13 n=87 v=64
303360 On ch=13 n=88 v=33
303360 On ch=13 n=82 v=33
303360 On ch=13 n=85 v=33
303360 On ch=13 n=87 v=33
303360 On ch=13 n=90 v=33
303480 Off ch=13 n=88 v=64
303480 Off ch=13 n=82 v=64
303480 Off ch=13 n=85 v=64
303480 Off ch=13 n=87 v=64
303480 Off ch=13 n=90 v=64
303480 On ch=13 n=88 v=34
303480 On ch=13 n=85 v=34
303480 On ch=13 n=82 v=34
303480 On ch=13 n=90 v=34
303480 On ch=13 n=87 v=34
303600 Off ch=13 n=88 v=64
303600 Off ch=13 n=85 v=64
303600 Off ch=13 n=82 v=64
303600 Off ch=13 n=90 v=64
303600 Off ch=13 n=87 v=64
303600 On ch=13 n=88 v=36
303600 On ch=13 n=85 v=36
303600 On ch=13 n=82 v=36
303600 On ch=13 n=90 v=36
303600 On ch=13 n=87 v=36
303720 Off ch=13 n=88 v=64
303720 Off ch=13 n=85 v=64
303720 Off ch=13 n=82 v=64
303720 Off ch=13 n=90 v=64
303720 Off ch=13 n=87 v=64
303720 On ch=13 n=82 v=38
303720 On ch=13 n=88 v=38
303720 On ch=13 n=85 v=38
303720 On ch=13 n=90 v=38
303720 On ch=13 n=87 v=38
303840 Off ch=13 n=82 v=64
303840 Off ch=13 n=88 v=64
303840 Off ch=13 n=85 v=64
303840 Off ch=13 n=90 v=64
303840 Off ch=13 n=87 v=64
303840 On ch=13 n=88 v=39
303840 On ch=13 n=85 v=39
303840 On ch=13 n=82 v=39
303840 On ch=13 n=90 v=39
303840 On ch=13 n=87 v=39
303960 Off ch=13 n=88 v=64
303960 Off ch=13 n=85 v=64
303960 Off ch=13 n=82 v=64
303960 Off ch=13 n=90 v=64
303960 Off ch=13 n=87 v=64
303960 On ch=13 n=88 v=41
303960 On ch=13 n=82 v=41
303960 On ch=13 n=85 v=41
303960 On ch=13 n=90 v=41
303960 On ch=13 n=87 v=41
304080 Off ch=13 n=88 v=64
304080 Off ch=13 n=82 v=64
304080 Off ch=13 n=85 v=64
304080 Off ch=13 n=90 v=64
304080 Off ch=13 n=87 v=64
304080 On ch=13 n=88 v=41
304080 On ch=13 n=82 v=41
304080 On ch=13 n=85 v=41
304080 On ch=13 n=90 v=41
304080 On ch=13 n=87 v=41
304200 Off ch=13 n=88 v=64
304200 Off ch=13 n=82 v=64
304200 Off ch=13 n=85 v=64
304200 Off ch=13 n=90 v=64
304200 Off ch=13 n=87 v=64
304200 On ch=13 n=85 v=39
304200 On ch=13 n=88 v=39
304200 On ch=13 n=82 v=39
304200 On ch=13 n=90 v=39
304200 On ch=13 n=87 v=39
304320 Off ch=13 n=85 v=64
304320 Off ch=13 n=88 v=64
304320 Off ch=13 n=82 v=64
304320 Off ch=13 n=90 v=64
304320 Off ch=13 n=87 v=64
304320 On ch=13 n=82 v=38
304320 On ch=13 n=88 v=38
304320 On ch=13 n=85 v=38
304320 On ch=13 n=87 v=38
304320 On ch=13 n=90 v=38
304440 Off ch=13 n=82 v=64
304440 Off ch=13 n=88 v=64
304440 Off ch=13 n=85 v=64
304440 Off ch=13 n=87 v=64
304440 Off ch=13 n=90 v=64
304440 On ch=13 n=85 v=36
304440 On ch=13 n=88 v=36
304440 On ch=13 n=82 v=36
304440 On ch=13 n=90 v=36
304440 On ch=13 n=87 v=36
304560 Off ch=13 n=85 v=64
304560 Off ch=13 n=88 v=64
304560 Off ch=13 n=82 v=64
304560 Off ch=13 n=90 v=64
304560 Off ch=13 n=87 v=64
304560 On ch=13 n=88 v=34
304560 On ch=13 n=82 v=34
304560 On ch=13 n=85 v=34
304560 On ch=13 n=87 v=34
304560 On ch=13 n=90 v=34
304680 Off ch=13 n=88 v=64
304680 Off ch=13 n=82 v=64
304680 Off ch=13 n=85 v=64
304680 Off ch=13 n=87 v=64
304680 Off ch=13 n=90 v=64
304680 On ch=13 n=88 v=32
304680 On ch=13 n=82 v=32
304680 On ch=13 n=85 v=32
304680 On ch=13 n=90 v=32
304680 On ch=13 n=87 v=32
304800 Off ch=13 n=88 v=64
304800 Off ch=13 n=82 v=64
304800 Off ch=13 n=85 v=64
304800 Off ch=13 n=90 v=64
304800 Off ch=13 n=87 v=64
304800 On ch=13 n=85 v=31
304800 On ch=13 n=82 v=31
304800 On ch=13 n=79 v=31
304800 On ch=13 n=87 v=31
304920 Off ch=13 n=85 v=64
304920 Off ch=13 n=82 v=64
304920 Off ch=13 n=79 v=64
304920 Off ch=13 n=87 v=64
304920 On ch=13 n=85 v=29
304920 On ch=13 n=79 v=29
304920 On ch=13 n=82 v=29
304920 On ch=13 n=87 v=29
305040 Off ch=13 n=85 v=64
305040 Off ch=13 n=79 v=64
305040 Off ch=13 n=82 v=64
305040 Off ch=13 n=87 v=64
305040 On ch=13 n=79 v=27
305040 On ch=13 n=85 v=27
305040 On ch=13 n=82 v=27
305040 On ch=13 n=87 v=27
305160 Off ch=13 n=79 v=64
305160 Off ch=13 n=85 v=64
305160 Off ch=13 n=82 v=64
305160 Off ch=13 n=87 v=64
305160 On ch=13 n=85 v=26
305160 On ch=13 n=79 v=26
305160 On ch=13 n=82 v=26
305160 On ch=13 n=87 v=26
305280 Off ch=13 n=85 v=64
305280 Off ch=13 n=79 v=64
305280 Off ch=13 n=82 v=64
305280 Off ch=13 n=87 v=64
305280 On ch=13 n=79 v=24
305280 On ch=13 n=85 v=24
305280 On ch=13 n=82 v=24
305280 On ch=13 n=87 v=24
305400 Off ch=13 n=79 v=64
305400 Off ch=13 n=85 v=64
305400 Off ch=13 n=82 v=64
305400 Off ch=13 n=87 v=64
305400 On ch=13 n=85 v=22
305400 On ch=13 n=79 v=22
305400 On ch=13 n=82 v=22
305400 On ch=13 n=87 v=22
305520 Off ch=13 n=85 v=64
305520 Off ch=13 n=79 v=64
305520 Off ch=13 n=82 v=64
305520 Off ch=13 n=87 v=64
360960 On ch=13 n=63 v=32
360960 On ch=13 n=75 v=32
360960 On ch=13 n=87 v=32
361020 On ch=13 n=65 v=27
361020 On ch=13 n=77 v=27
361020 On ch=13 n=89 v=27
361060 Off ch=13 n=63 v=64
361060 Off ch=13 n=75 v=64
361060 Off ch=13 n=87 v=64
361080 On ch=13 n=63 v=32
361080 On ch=13 n=75 v=32
361080 On ch=13 n=87 v=32
361120 Off ch=13 n=65 v=64
361120 Off ch=13 n=77 v=64
361120 Off ch=13 n=89 v=64
361140 On ch=13 n=65 v=27
361140 On ch=13 n=89 v=27
361140 On ch=13 n=77 v=27
361180 Off ch=13 n=63 v=64
361180 Off ch=13 n=75 v=64
361180 Off ch=13 n=87 v=64
361200 On ch=13 n=63 v=32
361200 On ch=13 n=75 v=32
361200 On ch=13 n=87 v=32
361240 Off ch=13 n=65 v=64
361240 Off ch=13 n=89 v=64
361240 Off ch=13 n=77 v=64
361260 On ch=13 n=89 v=27
361260 On ch=13 n=65 v=27
361260 On ch=13 n=77 v=27
361300 Off ch=13 n=63 v=64
361300 Off ch=13 n=75 v=64
361300 Off ch=13 n=87 v=64
361320 On ch=13 n=75 v=32
361320 On ch=13 n=63 v=32
361320 On ch=13 n=87 v=32
361360 Off ch=13 n=89 v=64
361360 Off ch=13 n=65 v=64
361360 Off ch=13 n=77 v=64
361380 On ch=13 n=65 v=27
361380 On ch=13 n=89 v=27
361380 On ch=13 n=77 v=27
361420 Off ch=13 n=75 v=64
361420 Off ch=13 n=63 v=64
361420 Off ch=13 n=87 v=64
361440 On ch=13 n=63 v=32
361440 On ch=13 n=75 v=32
361440 On ch=13 n=87 v=32
361480 Off ch=13 n=65 v=64
361480 Off ch=13 n=89 v=64
361480 Off ch=13 n=77 v=64
361500 On ch=13 n=89 v=27
361500 On ch=13 n=65 v=27
361500 On ch=13 n=77 v=27
361540 Off ch=13 n=63 v=64
361540 Off ch=13 n=75 v=64
361540 Off ch=13 n=87 v=64
361560 On ch=13 n=63 v=32
361560 On ch=13 n=75 v=32
361560 On ch=13 n=87 v=32
361600 Off ch=13 n=89 v=64
361600 Off ch=13 n=65 v=64
361600 Off ch=13 n=77 v=64
361620 On ch=13 n=89 v=27
361620 On ch=13 n=77 v=27
361620 On ch=13 n=65 v=27
361660 Off ch=13 n=63 v=64
361660 Off ch=13 n=75 v=64
361660 Off ch=13 n=87 v=64
361680 On ch=13 n=63 v=32
361680 On ch=13 n=75 v=32
361680 On ch=13 n=87 v=32
361720 Off ch=13 n=89 v=64
361720 Off ch=13 n=77 v=64
361720 Off ch=13 n=65 v=64
361740 On ch=13 n=65 v=27
361740 On ch=13 n=89 v=27
361740 On ch=13 n=77 v=27
361780 Off ch=13 n=63 v=64
361780 Off ch=13 n=75 v=64
361780 Off ch=13 n=87 v=64
361800 On ch=13 n=63 v=32
361800 On ch=13 n=75 v=32
361800 On ch=13 n=87 v=32
361840 Off ch=13 n=65 v=64
361840 Off ch=13 n=89 v=64
361840 Off ch=13 n=77 v=64
361860 On ch=13 n=89 v=27
361860 On ch=13 n=65 v=27
361860 On ch=13 n=77 v=27
361900 Off ch=13 n=63 v=64
361900 Off ch=13 n=75 v=64
361900 Off ch=13 n=87 v=64
361920 On ch=13 n=63 v=32
361920 On ch=13 n=75 v=32
361920 On ch=13 n=87 v=32
361960 Off ch=13 n=89 v=64
361960 Off ch=13 n=65 v=64
361960 Off ch=13 n=77 v=64
361980 On ch=13 n=65 v=27
361980 On ch=13 n=89 v=27
361980 On ch=13 n=77 v=27
362020 Off ch=13 n=63 v=64
362020 Off ch=13 n=75 v=64
362020 Off ch=13 n=87 v=64
362040 On ch=13 n=63 v=32
362040 On ch=13 n=87 v=32
362040 On ch=13 n=75 v=32
362080 Off ch=13 n=65 v=64
362080 Off ch=13 n=89 v=64
362080 Off ch=13 n=77 v=64
362100 On ch=13 n=65 v=27
362100 On ch=13 n=89 v=27
362100 On ch=13 n=77 v=27
362140 Off ch=13 n=63 v=64
362140 Off ch=13 n=87 v=64
362140 Off ch=13 n=75 v=64
362160 On ch=13 n=63 v=32
362160 On ch=13 n=87 v=32
362160 On ch=13 n=75 v=32
362200 Off ch=13 n=65 v=64
362200 Off ch=13 n=89 v=64
362200 Off ch=13 n=77 v=64
362220 On ch=13 n=65 v=27
362220 On ch=13 n=89 v=27
362220 On ch=13 n=77 v=27
362260 Off ch=13 n=63 v=64
362260 Off ch=13 n=87 v=64
362260 Off ch=13 n=75 v=64
362280 On ch=13 n=63 v=32
362280 On ch=13 n=75 v=32
362280 On ch=13 n=87 v=32
362320 Off ch=13 n=65 v=64
362320 Off ch=13 n=89 v=64
362320 Off ch=13 n=77 v=64
362340 On ch=13 n=77 v=27
362340 On ch=13 n=65 v=27
362340 On ch=13 n=89 v=27
362380 Off ch=13 n=63 v=64
362380 Off ch=13 n=75 v=64
362380 Off ch=13 n=87 v=64
362400 On ch=13 n=63 v=32
362400 On ch=13 n=75 v=32
362400 On ch=13 n=87 v=32
362440 Off ch=13 n=77 v=64
362440 Off ch=13 n=65 v=64
362440 Off ch=13 n=89 v=64
362460 On ch=13 n=89 v=27
362460 On ch=13 n=65 v=27
362460 On ch=13 n=77 v=27
362500 Off ch=13 n=63 v=64
362500 Off ch=13 n=75 v=64
362500 Off ch=13 n=87 v=64
362520 On ch=13 n=63 v=32
362520 On ch=13 n=87 v=32
362520 On ch=13 n=75 v=32
362560 Off ch=13 n=89 v=64
362560 Off ch=13 n=65 v=64
362560 Off ch=13 n=77 v=64
362580 On ch=13 n=77 v=27
362580 On ch=13 n=65 v=27
362580 On ch=13 n=89 v=27
362620 Off ch=13 n=63 v=64
362620 Off ch=13 n=87 v=64
362620 Off ch=13 n=75 v=64
362640 On ch=13 n=63 v=32
362640 On ch=13 n=75 v=32
362640 On ch=13 n=87 v=32
362680 Off ch=13 n=77 v=64
362680 Off ch=13 n=65 v=64
362680 Off ch=13 n=89 v=64
362700 On ch=13 n=89 v=27
362700 On ch=13 n=65 v=27
362700 On ch=13 n=77 v=27
362740 Off ch=13 n=63 v=64
362740 Off ch=13 n=75 v=64
362740 Off ch=13 n=87 v=64
362760 On ch=13 n=63 v=32
362760 On ch=13 n=75 v=32
362760 On ch=13 n=87 v=32
362800 Off ch=13 n=89 v=64
362800 Off ch=13 n=65 v=64
362800 Off ch=13 n=77 v=64
362820 On ch=13 n=89 v=27
362820 On ch=13 n=65 v=27
362820 On ch=13 n=77 v=27
362860 Off ch=13 n=63 v=64
362860 Off ch=13 n=75 v=64
362860 Off ch=13 n=87 v=64
362880 On ch=13 n=63 v=32
362880 On ch=13 n=75 v=32
362880 On ch=13 n=87 v=32
362920 Off ch=13 n=89 v=64
362920 Off ch=13 n=65 v=64
362920 Off ch=13 n=77 v=64
362940 On ch=13 n=65 v=27
362940 On ch=13 n=77 v=27
362940 On ch=13 n=89 v=27
362980 Off ch=13 n=63 v=64
362980 Off ch=13 n=75 v=64
362980 Off ch=13 n=87 v=64
363000 On ch=13 n=63 v=32
363000 On ch=13 n=75 v=32
363000 On ch=13 n=87 v=32
363040 Off ch=13 n=65 v=64
363040 Off ch=13 n=77 v=64
363040 Off ch=13 n=89 v=64
363060 On ch=13 n=65 v=27
363060 On ch=13 n=89 v=27
363060 On ch=13 n=77 v=27
363100 Off ch=13 n=63 v=64
363100 Off ch=13 n=75 v=64
363100 Off ch=13 n=87 v=64
363120 On ch=13 n=63 v=32
363120 On ch=13 n=75 v=32
363120 On ch=13 n=87 v=32
363160 Off ch=13 n=65 v=64
363160 Off ch=13 n=89 v=64
363160 Off ch=13 n=77 v=64
363180 On ch=13 n=89 v=27
363180 On ch=13 n=65 v=27
363180 On ch=13 n=77 v=27
363220 Off ch=13 n=63 v=64
363220 Off ch=13 n=75 v=64
363220 Off ch=13 n=87 v=64
363240 On ch=13 n=75 v=32
363240 On ch=13 n=63 v=32
363240 On ch=13 n=87 v=32
363280 Off ch=13 n=89 v=64
363280 Off ch=13 n=65 v=64
363280 Off ch=13 n=77 v=64
363300 On ch=13 n=65 v=27
363300 On ch=13 n=89 v=27
363300 On ch=13 n=77 v=27
363340 Off ch=13 n=75 v=64
363340 Off ch=13 n=63 v=64
363340 Off ch=13 n=87 v=64
363360 On ch=13 n=63 v=32
363360 On ch=13 n=75 v=32
363360 On ch=13 n=87 v=32
363400 Off ch=13 n=65 v=64
363400 Off ch=13 n=89 v=64
363400 Off ch=13 n=77 v=64
363420 On ch=13 n=89 v=27
363420 On ch=13 n=65 v=27
363420 On ch=13 n=77 v=27
363460 Off ch=13 n=63 v=64
363460 Off ch=13 n=75 v=64
363460 Off ch=13 n=87 v=64
363480 On ch=13 n=63 v=32
363480 On ch=13 n=75 v=32
363480 On ch=13 n=87 v=32
363520 Off ch=13 n=89 v=64
363520 Off ch=13 n=65 v=64
363520 Off ch=13 n=77 v=64
363540 On ch=13 n=89 v=27
363540 On ch=13 n=77 v=27
363540 On ch=13 n=65 v=27
363580 Off ch=13 n=63 v=64
363580 Off ch=13 n=75 v=64
363580 Off ch=13 n=87 v=64
363600 On ch=13 n=63 v=32
363600 On ch=13 n=75 v=32
363600 On ch=13 n=87 v=32
363640 Off ch=13 n=89 v=64
363640 Off ch=13 n=77 v=64
363640 Off ch=13 n=65 v=64
363660 On ch=13 n=65 v=27
363660 On ch=13 n=89 v=27
363660 On ch=13 n=77 v=27
363700 Off ch=13 n=63 v=64
363700 Off ch=13 n=75 v=64
363700 Off ch=13 n=87 v=64
363720 On ch=13 n=63 v=32
363720 On ch=13 n=75 v=32
363720 On ch=13 n=87 v=32
363760 Off ch=13 n=65 v=64
363760 Off ch=13 n=89 v=64
363760 Off ch=13 n=77 v=64
363780 On ch=13 n=89 v=27
363780 On ch=13 n=65 v=27
363780 On ch=13 n=77 v=27
363820 Off ch=13 n=63 v=64
363820 Off ch=13 n=75 v=64
363820 Off ch=13 n=87 v=64
363840 On ch=13 n=63 v=32
363840 On ch=13 n=75 v=32
363840 On ch=13 n=87 v=32
363880 Off ch=13 n=89 v=64
363880 Off ch=13 n=65 v=64
363880 Off ch=13 n=77 v=64
363900 On ch=13 n=65 v=27
363900 On ch=13 n=89 v=27
363900 On ch=13 n=77 v=27
363940 Off ch=13 n=63 v=64
363940 Off ch=13 n=75 v=64
363940 Off ch=13 n=87 v=64
363960 On ch=13 n=63 v=32
363960 On ch=13 n=87 v=32
363960 On ch=13 n=75 v=32
364000 Off ch=13 n=65 v=64
364000 Off ch=13 n=89 v=64
364000 Off ch=13 n=77 v=64
364020 On ch=13 n=65 v=27
364020 On ch=13 n=89 v=27
364020 On ch=13 n=77 v=27
364060 Off ch=13 n=63 v=64
364060 Off ch=13 n=87 v=64
364060 Off ch=13 n=75 v=64
364080 On ch=13 n=63 v=32
364080 On ch=13 n=87 v=32
364080 On ch=13 n=75 v=32
364120 Off ch=13 n=65 v=64
364120 Off ch=13 n=89 v=64
364120 Off ch=13 n=77 v=64
364140 On ch=13 n=65 v=27
364140 On ch=13 n=89 v=27
364140 On ch=13 n=77 v=27
364180 Off ch=13 n=63 v=64
364180 Off ch=13 n=87 v=64
364180 Off ch=13 n=75 v=64
364200 On ch=13 n=63 v=32
364200 On ch=13 n=75 v=32
364200 On ch=13 n=87 v=32
364240 Off ch=13 n=65 v=64
364240 Off ch=13 n=89 v=64
364240 Off ch=13 n=77 v=64
364260 On ch=13 n=77 v=27
364260 On ch=13 n=65 v=27
364260 On ch=13 n=89 v=27
364300 Off ch=13 n=63 v=64
364300 Off ch=13 n=75 v=64
364300 Off ch=13 n=87 v=64
364320 On ch=13 n=63 v=32
364320 On ch=13 n=75 v=32
364320 On ch=13 n=87 v=32
364360 Off ch=13 n=77 v=64
364360 Off ch=13 n=65 v=64
364360 Off ch=13 n=89 v=64
364380 On ch=13 n=89 v=27
364380 On ch=13 n=65 v=27
364380 On ch=13 n=77 v=27
364420 Off ch=13 n=63 v=64
364420 Off ch=13 n=75 v=64
364420 Off ch=13 n=87 v=64
364440 On ch=13 n=63 v=32
364440 On ch=13 n=87 v=32
364440 On ch=13 n=75 v=32
364480 Off ch=13 n=89 v=64
364480 Off ch=13 n=65 v=64
364480 Off ch=13 n=77 v=64
364500 On ch=13 n=77 v=27
364500 On ch=13 n=65 v=27
364500 On ch=13 n=89 v=27
364540 Off ch=13 n=63 v=64
364540 Off ch=13 n=87 v=64
364540 Off ch=13 n=75 v=64
364560 On ch=13 n=63 v=32
364560 On ch=13 n=75 v=32
364560 On ch=13 n=87 v=32
364600 Off ch=13 n=77 v=64
364600 Off ch=13 n=65 v=64
364600 Off ch=13 n=89 v=64
364620 On ch=13 n=89 v=27
364620 On ch=13 n=65 v=27
364620 On ch=13 n=77 v=27
364660 Off ch=13 n=63 v=64
364660 Off ch=13 n=75 v=64
364660 Off ch=13 n=87 v=64
364680 On ch=13 n=63 v=32
364680 On ch=13 n=75 v=32
364680 On ch=13 n=87 v=32
364720 Off ch=13 n=89 v=64
364720 Off ch=13 n=65 v=64
364720 Off ch=13 n=77 v=64
364740 On ch=13 n=89 v=27
364740 On ch=13 n=65 v=27
364740 On ch=13 n=77 v=27
364780 Off ch=13 n=63 v=64
364780 Off ch=13 n=75 v=64
364780 Off ch=13 n=87 v=64
364800 On ch=13 n=63 v=32
364800 On ch=13 n=75 v=32
364800 On ch=13 n=87 v=32
364840 Off ch=13 n=89 v=64
364840 Off ch=13 n=65 v=64
364840 Off ch=13 n=77 v=64
364860 On ch=13 n=65 v=27
364860 On ch=13 n=77 v=27
364860 On ch=13 n=89 v=27
364900 Off ch=13 n=63 v=64
364900 Off ch=13 n=75 v=64
364900 Off ch=13 n=87 v=64
364920 On ch=13 n=63 v=32
364920 On ch=13 n=75 v=32
364920 On ch=13 n=87 v=32
364960 Off ch=13 n=65 v=64
364960 Off ch=13 n=77 v=64
364960 Off ch=13 n=89 v=64
364980 On ch=13 n=65 v=27
364980 On ch=13 n=89 v=27
364980 On ch=13 n=77 v=27
365020 Off ch=13 n=63 v=64
365020 Off ch=13 n=75 v=64
365020 Off ch=13 n=87 v=64
365040 On ch=13 n=63 v=32
365040 On ch=13 n=75 v=32
365040 On ch=13 n=87 v=32
365080 Off ch=13 n=65 v=64
365080 Off ch=13 n=89 v=64
365080 Off ch=13 n=77 v=64
365100 On ch=13 n=89 v=27
365100 On ch=13 n=65 v=27
365100 On ch=13 n=77 v=27
365140 Off ch=13 n=63 v=64
365140 Off ch=13 n=75 v=64
365140 Off ch=13 n=87 v=64
365160 On ch=13 n=75 v=32
365160 On ch=13 n=63 v=32
365160 On ch=13 n=87 v=32
365200 Off ch=13 n=89 v=64
365200 Off ch=13 n=65 v=64
365200 Off ch=13 n=77 v=64
365220 On ch=13 n=65 v=27
365220 On ch=13 n=89 v=27
365220 On ch=13 n=77 v=27
365260 Off ch=13 n=75 v=64
365260 Off ch=13 n=63 v=64
365260 Off ch=13 n=87 v=64
365280 On ch=13 n=63 v=32
365280 On ch=13 n=75 v=32
365280 On ch=13 n=87 v=32
365320 Off ch=13 n=65 v=64
365320 Off ch=13 n=89 v=64
365320 Off ch=13 n=77 v=64
365340 On ch=13 n=89 v=27
365340 On ch=13 n=65 v=27
365340 On ch=13 n=77 v=27
365380 Off ch=13 n=63 v=64
365380 Off ch=13 n=75 v=64
365380 Off ch=13 n=87 v=64
365400 On ch=13 n=63 v=32
365400 On ch=13 n=75 v=32
365400 On ch=13 n=87 v=32
365440 Off ch=13 n=89 v=64
365440 Off ch=13 n=65 v=64
365440 Off ch=13 n=77 v=64
365460 On ch=13 n=89 v=27
365460 On ch=13 n=77 v=27
365460 On ch=13 n=65 v=27
365500 Off ch=13 n=63 v=64
365500 Off ch=13 n=75 v=64
365500 Off ch=13 n=87 v=64
365520 On ch=13 n=63 v=32
365520 On ch=13 n=75 v=32
365520 On ch=13 n=87 v=32
365560 Off ch=13 n=89 v=64
365560 Off ch=13 n=77 v=64
365560 Off ch=13 n=65 v=64
365580 On ch=13 n=65 v=27
365580 On ch=13 n=89 v=27
365580 On ch=13 n=77 v=27
365620 Off ch=13 n=63 v=64
365620 Off ch=13 n=75 v=64
365620 Off ch=13 n=87 v=64
365640 On ch=13 n=63 v=32
365640 On ch=13 n=75 v=32
365640 On ch=13 n=87 v=32
365680 Off ch=13 n=65 v=64
365680 Off ch=13 n=89 v=64
365680 Off ch=13 n=77 v=64
365700 On ch=13 n=89 v=27
365700 On ch=13 n=65 v=27
365700 On ch=13 n=77 v=27
365740 Off ch=13 n=63 v=64
365740 Off ch=13 n=75 v=64
365740 Off ch=13 n=87 v=64
365760 On ch=13 n=63 v=32
365760 On ch=13 n=75 v=32
365760 On ch=13 n=87 v=32
365800 Off ch=13 n=89 v=64
365800 Off ch=13 n=65 v=64
365800 Off ch=13 n=77 v=64
365820 On ch=13 n=65 v=27
365820 On ch=13 n=89 v=27
365820 On ch=13 n=77 v=27
365860 Off ch=13 n=63 v=64
365860 Off ch=13 n=75 v=64
365860 Off ch=13 n=87 v=64
365880 On ch=13 n=63 v=32
365880 On ch=13 n=87 v=32
365880 On ch=13 n=75 v=32
365920 Off ch=13 n=65 v=64
365920 Off ch=13 n=89 v=64
365920 Off ch=13 n=77 v=64
365940 On ch=13 n=65 v=27
365940 On ch=13 n=89 v=27
365940 On ch=13 n=77 v=27
365980 Off ch=13 n=63 v=64
365980 Off ch=13 n=87 v=64
365980 Off ch=13 n=75 v=64
366000 On ch=13 n=63 v=32
366000 On ch=13 n=87 v=32
366000 On ch=13 n=75 v=32
366040 Off ch=13 n=65 v=64
366040 Off ch=13 n=89 v=64
366040 Off ch=13 n=77 v=64
366060 On ch=13 n=65 v=27
366060 On ch=13 n=89 v=27
366060 On ch=13 n=77 v=27
366100 Off ch=13 n=63 v=64
366100 Off ch=13 n=87 v=64
366100 Off ch=13 n=75 v=64
366120 On ch=13 n=63 v=32
366120 On ch=13 n=75 v=32
366120 On ch=13 n=87 v=32
366160 Off ch=13 n=65 v=64
366160 Off ch=13 n=89 v=64
366160 Off ch=13 n=77 v=64
366180 On ch=13 n=77 v=27
366180 On ch=13 n=65 v=27
366180 On ch=13 n=89 v=27
366220 Off ch=13 n=63 v=64
366220 Off ch=13 n=75 v=64
366220 Off ch=13 n=87 v=64
366240 On ch=13 n=63 v=32
366240 On ch=13 n=75 v=32
366240 On ch=13 n=87 v=32
366280 Off ch=13 n=77 v=64
366280 Off ch=13 n=65 v=64
366280 Off ch=13 n=89 v=64
366300 On ch=13 n=89 v=27
366300 On ch=13 n=65 v=27
366300 On ch=13 n=77 v=27
366340 Off ch=13 n=63 v=64
366340 Off ch=13 n=75 v=64
366340 Off ch=13 n=87 v=64
366360 On ch=13 n=63 v=32
366360 On ch=13 n=87 v=32
366360 On ch=13 n=75 v=32
366400 Off ch=13 n=89 v=64
366400 Off ch=13 n=65 v=64
366400 Off ch=13 n=77 v=64
366420 On ch=13 n=77 v=27
366420 On ch=13 n=65 v=27
366420 On ch=13 n=89 v=27
366460 Off ch=13 n=63 v=64
366460 Off ch=13 n=87 v=64
366460 Off ch=13 n=75 v=64
366480 On ch=13 n=63 v=32
366480 On ch=13 n=75 v=32
366480 On ch=13 n=87 v=32
366520 Off ch=13 n=77 v=64
366520 Off ch=13 n=65 v=64
366520 Off ch=13 n=89 v=64
366540 On ch=13 n=89 v=27
366540 On ch=13 n=65 v=27
366540 On ch=13 n=77 v=27
366580 Off ch=13 n=63 v=64
366580 Off ch=13 n=75 v=64
366580 Off ch=13 n=87 v=64
366600 On ch=13 n=63 v=32
366600 On ch=13 n=75 v=32
366600 On ch=13 n=87 v=32
366640 Off ch=13 n=89 v=64
366640 Off ch=13 n=65 v=64
366640 Off ch=13 n=77 v=64
366660 On ch=13 n=89 v=27
366660 On ch=13 n=65 v=27
366660 On ch=13 n=77 v=27
366700 Off ch=13 n=63 v=64
366700 Off ch=13 n=75 v=64
366700 Off ch=13 n=87 v=64
366720 On ch=13 n=63 v=32
366720 On ch=13 n=75 v=32
366720 On ch=13 n=87 v=32
366760 Off ch=13 n=89 v=64
366760 Off ch=13 n=65 v=64
366760 Off ch=13 n=77 v=64
366780 On ch=13 n=65 v=27
366780 On ch=13 n=77 v=27
366780 On ch=13 n=89 v=27
366820 Off ch=13 n=63 v=64
366820 Off ch=13 n=75 v=64
366820 Off ch=13 n=87 v=64
366840 On ch=13 n=63 v=32
366840 On ch=13 n=75 v=32
366840 On ch=13 n=87 v=32
366880 Off ch=13 n=65 v=64
366880 Off ch=13 n=77 v=64
366880 Off ch=13 n=89 v=64
366900 On ch=13 n=65 v=27
366900 On ch=13 n=89 v=27
366900 On ch=13 n=77 v=27
366940 Off ch=13 n=63 v=64
366940 Off ch=13 n=75 v=64
366940 Off ch=13 n=87 v=64
366960 On ch=13 n=63 v=32
366960 On ch=13 n=75 v=32
366960 On ch=13 n=87 v=32
367000 Off ch=13 n=65 v=64
367000 Off ch=13 n=89 v=64
367000 Off ch=13 n=77 v=64
367020 On ch=13 n=89 v=27
367020 On ch=13 n=65 v=27
367020 On ch=13 n=77 v=27
367060 Off ch=13 n=63 v=64
367060 Off ch=13 n=75 v=64
367060 Off ch=13 n=87 v=64
367080 On ch=13 n=75 v=32
367080 On ch=13 n=63 v=32
367080 On ch=13 n=87 v=32
367120 Off ch=13 n=89 v=64
367120 Off ch=13 n=65 v=64
367120 Off ch=13 n=77 v=64
367140 On ch=13 n=65 v=27
367140 On ch=13 n=89 v=27
367140 On ch=13 n=77 v=27
367180 Off ch=13 n=75 v=64
367180 Off ch=13 n=63 v=64
367180 Off ch=13 n=87 v=64
367200 On ch=13 n=63 v=32
367200 On ch=13 n=75 v=32
367200 On ch=13 n=87 v=32
367240 Off ch=13 n=65 v=64
367240 Off ch=13 n=89 v=64
367240 Off ch=13 n=77 v=64
367260 On ch=13 n=89 v=27
367260 On ch=13 n=65 v=27
367260 On ch=13 n=77 v=27
367300 Off ch=13 n=63 v=64
367300 Off ch=13 n=75 v=64
367300 Off ch=13 n=87 v=64
367320 On ch=13 n=63 v=32
367320 On ch=13 n=75 v=32
367320 On ch=13 n=87 v=32
367360 Off ch=13 n=89 v=64
367360 Off ch=13 n=65 v=64
367360 Off ch=13 n=77 v=64
367380 On ch=13 n=89 v=27
367380 On ch=13 n=77 v=27
367380 On ch=13 n=65 v=27
367420 Off ch=13 n=63 v=64
367420 Off ch=13 n=75 v=64
367420 Off ch=13 n=87 v=64
367440 On ch=13 n=63 v=32
367440 On ch=13 n=75 v=32
367440 On ch=13 n=87 v=32
367480 Off ch=13 n=89 v=64
367480 Off ch=13 n=77 v=64
367480 Off ch=13 n=65 v=64
367500 On ch=13 n=65 v=27
367500 On ch=13 n=89 v=27
367500 On ch=13 n=77 v=27
367540 Off ch=13 n=63 v=64
367540 Off ch=13 n=75 v=64
367540 Off ch=13 n=87 v=64
367560 On ch=13 n=63 v=32
367560 On ch=13 n=75 v=32
367560 On ch=13 n=87 v=32
367600 Off ch=13 n=65 v=64
367600 Off ch=13 n=89 v=64
367600 Off ch=13 n=77 v=64
367620 On ch=13 n=89 v=27
367620 On ch=13 n=65 v=27
367620 On ch=13 n=77 v=27
367660 Off ch=13 n=63 v=64
367660 Off ch=13 n=75 v=64
367660 Off ch=13 n=87 v=64
367680 On ch=13 n=63 v=32
367680 On ch=13 n=75 v=32
367680 On ch=13 n=87 v=32
367720 Off ch=13 n=89 v=64
367720 Off ch=13 n=65 v=64
367720 Off ch=13 n=77 v=64
367740 On ch=13 n=65 v=27
367740 On ch=13 n=89 v=27
367740 On ch=13 n=77 v=27
367780 Off ch=13 n=63 v=64
367780 Off ch=13 n=75 v=64
367780 Off ch=13 n=87 v=64
367800 On ch=13 n=63 v=32
367800 On ch=13 n=87 v=32
367800 On ch=13 n=75 v=32
367840 Off ch=13 n=65 v=64
367840 Off ch=13 n=89 v=64
367840 Off ch=13 n=77 v=64
367860 On ch=13 n=65 v=27
367860 On ch=13 n=89 v=27
367860 On ch=13 n=77 v=27
367900 Off ch=13 n=63 v=64
367900 Off ch=13 n=87 v=64
367900 Off ch=13 n=75 v=64
367920 On ch=13 n=63 v=32
367920 On ch=13 n=87 v=32
367920 On ch=13 n=75 v=32
367960 Off ch=13 n=65 v=64
367960 Off ch=13 n=89 v=64
367960 Off ch=13 n=77 v=64
367980 On ch=13 n=65 v=27
367980 On ch=13 n=89 v=27
367980 On ch=13 n=77 v=27
368020 Off ch=13 n=63 v=64
368020 Off ch=13 n=87 v=64
368020 Off ch=13 n=75 v=64
368040 On ch=13 n=63 v=32
368040 On ch=13 n=75 v=32
368040 On ch=13 n=87 v=32
368080 Off ch=13 n=65 v=64
368080 Off ch=13 n=89 v=64
368080 Off ch=13 n=77 v=64
368100 On ch=13 n=77 v=27
368100 On ch=13 n=65 v=27
368100 On ch=13 n=89 v=27
368140 Off ch=13 n=63 v=64
368140 Off ch=13 n=75 v=64
368140 Off ch=13 n=87 v=64
368160 On ch=13 n=63 v=32
368160 On ch=13 n=75 v=32
368160 On ch=13 n=87 v=32
368200 Off ch=13 n=77 v=64
368200 Off ch=13 n=65 v=64
368200 Off ch=13 n=89 v=64
368220 On ch=13 n=89 v=27
368220 On ch=13 n=65 v=27
368220 On ch=13 n=77 v=27
368260 Off ch=13 n=63 v=64
368260 Off ch=13 n=75 v=64
368260 Off ch=13 n=87 v=64
368280 On ch=13 n=63 v=32
368280 On ch=13 n=87 v=32
368280 On ch=13 n=75 v=32
368320 Off ch=13 n=89 v=64
368320 Off ch=13 n=65 v=64
368320 Off ch=13 n=77 v=64
368340 On ch=13 n=77 v=27
368340 On ch=13 n=65 v=27
368340 On ch=13 n=89 v=27
368380 Off ch=13 n=63 v=64
368380 Off ch=13 n=87 v=64
368380 Off ch=13 n=75 v=64
368400 On ch=13 n=63 v=32
368400 On ch=13 n=75 v=32
368400 On ch=13 n=87 v=32
368440 Off ch=13 n=77 v=64
368440 Off ch=13 n=65 v=64
368440 Off ch=13 n=89 v=64
368460 On ch=13 n=89 v=27
368460 On ch=13 n=65 v=27
368460 On ch=13 n=77 v=27
368500 Off ch=13 n=63 v=64
368500 Off ch=13 n=75 v=64
368500 Off ch=13 n=87 v=64
368520 On ch=13 n=63 v=32
368520 On ch=13 n=75 v=32
368520 On ch=13 n=87 v=32
368560 Off ch=13 n=89 v=64
368560 Off ch=13 n=65 v=64
368560 Off ch=13 n=77 v=64
368580 On ch=13 n=89 v=27
368580 On ch=13 n=65 v=27
368580 On ch=13 n=77 v=27
368620 Off ch=13 n=63 v=64
368620 Off ch=13 n=75 v=64
368620 Off ch=13 n=87 v=64
368640 On ch=13 n=63 v=32
368640 On ch=13 n=75 v=32
368640 On ch=13 n=87 v=32
368680 Off ch=13 n=89 v=64
368680 Off ch=13 n=65 v=64
368680 Off ch=13 n=77 v=64
368700 On ch=13 n=65 v=27
368700 On ch=13 n=77 v=27
368700 On ch=13 n=89 v=27
368740 Off ch=13 n=63 v=64
368740 Off ch=13 n=75 v=64
368740 Off ch=13 n=87 v=64
368760 On ch=13 n=63 v=32
368760 On ch=13 n=75 v=32
368760 On ch=13 n=87 v=32
368800 Off ch=13 n=65 v=64
368800 Off ch=13 n=77 v=64
368800 Off ch=13 n=89 v=64
368820 On ch=13 n=65 v=27
368820 On ch=13 n=89 v=27
368820 On ch=13 n=77 v=27
368860 Off ch=13 n=63 v=64
368860 Off ch=13 n=75 v=64
368860 Off ch=13 n=87 v=64
368880 On ch=13 n=63 v=32
368880 On ch=13 n=75 v=32
368880 On ch=13 n=87 v=32
368920 Off ch=13 n=65 v=64
368920 Off ch=13 n=89 v=64
368920 Off ch=13 n=77 v=64
368940 On ch=13 n=89 v=27
368940 On ch=13 n=65 v=27
368940 On ch=13 n=77 v=27
368980 Off ch=13 n=63 v=64
368980 Off ch=13 n=75 v=64
368980 Off ch=13 n=87 v=64
369000 On ch=13 n=75 v=32
369000 On ch=13 n=63 v=32
369000 On ch=13 n=87 v=32
369040 Off ch=13 n=89 v=64
369040 Off ch=13 n=65 v=64
369040 Off ch=13 n=77 v=64
369060 On ch=13 n=65 v=27
369060 On ch=13 n=89 v=27
369060 On ch=13 n=77 v=27
369100 Off ch=13 n=75 v=64
369100 Off ch=13 n=63 v=64
369100 Off ch=13 n=87 v=64
369120 On ch=13 n=63 v=32
369120 On ch=13 n=75 v=32
369120 On ch=13 n=87 v=32
369160 Off ch=13 n=65 v=64
369160 Off ch=13 n=89 v=64
369160 Off ch=13 n=77 v=64
369180 On ch=13 n=89 v=27
369180 On ch=13 n=65 v=27
369180 On ch=13 n=77 v=27
369220 Off ch=13 n=63 v=64
369220 Off ch=13 n=75 v=64
369220 Off ch=13 n=87 v=64
369240 On ch=13 n=63 v=32
369240 On ch=13 n=75 v=32
369240 On ch=13 n=87 v=32
369280 Off ch=13 n=89 v=64
369280 Off ch=13 n=65 v=64
369280 Off ch=13 n=77 v=64
369300 On ch=13 n=89 v=27
369300 On ch=13 n=77 v=27
369300 On ch=13 n=65 v=27
369340 Off ch=13 n=63 v=64
369340 Off ch=13 n=75 v=64
369340 Off ch=13 n=87 v=64
369360 On ch=13 n=63 v=32
369360 On ch=13 n=75 v=32
369360 On ch=13 n=87 v=32
369400 Off ch=13 n=89 v=64
369400 Off ch=13 n=77 v=64
369400 Off ch=13 n=65 v=64
369420 On ch=13 n=65 v=27
369420 On ch=13 n=89 v=27
369420 On ch=13 n=77 v=27
369460 Off ch=13 n=63 v=64
369460 Off ch=13 n=75 v=64
369460 Off ch=13 n=87 v=64
369480 On ch=13 n=63 v=32
369480 On ch=13 n=75 v=32
369480 On ch=13 n=87 v=32
369520 Off ch=13 n=65 v=64
369520 Off ch=13 n=89 v=64
369520 Off ch=13 n=77 v=64
369540 On ch=13 n=89 v=27
369540 On ch=13 n=65 v=27
369540 On ch=13 n=77 v=27
369580 Off ch=13 n=63 v=64
369580 Off ch=13 n=75 v=64
369580 Off ch=13 n=87 v=64
369600 On ch=13 n=63 v=32
369600 On ch=13 n=75 v=32
369600 On ch=13 n=87 v=32
369640 Off ch=13 n=89 v=64
369640 Off ch=13 n=65 v=64
369640 Off ch=13 n=77 v=64
369660 On ch=13 n=65 v=27
369660 On ch=13 n=89 v=27
369660 On ch=13 n=77 v=27
369700 Off ch=13 n=63 v=64
369700 Off ch=13 n=75 v=64
369700 Off ch=13 n=87 v=64
369720 On ch=13 n=63 v=32
369720 On ch=13 n=87 v=32
369720 On ch=13 n=75 v=32
369760 Off ch=13 n=65 v=64
369760 Off ch=13 n=89 v=64
369760 Off ch=13 n=77 v=64
369780 On ch=13 n=65 v=27
369780 On ch=13 n=89 v=27
369780 On ch=13 n=77 v=27
369820 Off ch=13 n=63 v=64
369820 Off ch=13 n=87 v=64
369820 Off ch=13 n=75 v=64
369840 On ch=13 n=63 v=32
369840 On ch=13 n=87 v=32
369840 On ch=13 n=75 v=32
369880 Off ch=13 n=65 v=64
369880 Off ch=13 n=89 v=64
369880 Off ch=13 n=77 v=64
369900 On ch=13 n=65 v=27
369900 On ch=13 n=89 v=27
369900 On ch=13 n=77 v=27
369940 Off ch=13 n=63 v=64
369940 Off ch=13 n=87 v=64
369940 Off ch=13 n=75 v=64
369960 On ch=13 n=63 v=32
369960 On ch=13 n=75 v=32
369960 On ch=13 n=87 v=32
370000 Off ch=13 n=65 v=64
370000 Off ch=13 n=89 v=64
370000 Off ch=13 n=77 v=64
370020 On ch=13 n=77 v=27
370020 On ch=13 n=65 v=27
370020 On ch=13 n=89 v=27
370060 Off ch=13 n=63 v=64
370060 Off ch=13 n=75 v=64
370060 Off ch=13 n=87 v=64
370080 On ch=13 n=63 v=32
370080 On ch=13 n=75 v=32
370080 On ch=13 n=87 v=32
370120 Off ch=13 n=77 v=64
370120 Off ch=13 n=65 v=64
370120 Off ch=13 n=89 v=64
370140 On ch=13 n=89 v=27
370140 On ch=13 n=65 v=27
370140 On ch=13 n=77 v=27
370180 Off ch=13 n=63 v=64
370180 Off ch=13 n=75 v=64
370180 Off ch=13 n=87 v=64
370200 On ch=13 n=63 v=32
370200 On ch=13 n=87 v=32
370200 On ch=13 n=75 v=32
370240 Off ch=13 n=89 v=64
370240 Off ch=13 n=65 v=64
370240 Off ch=13 n=77 v=64
370260 On ch=13 n=77 v=27
370260 On ch=13 n=65 v=27
370260 On ch=13 n=89 v=27
370300 Off ch=13 n=63 v=64
370300 Off ch=13 n=87 v=64
370300 Off ch=13 n=75 v=64
370320 On ch=13 n=63 v=32
370320 On ch=13 n=75 v=32
370320 On ch=13 n=87 v=32
370360 Off ch=13 n=77 v=64
370360 Off ch=13 n=65 v=64
370360 Off ch=13 n=89 v=64
370380 On ch=13 n=89 v=27
370380 On ch=13 n=65 v=27
370380 On ch=13 n=77 v=27
370420 Off ch=13 n=63 v=64
370420 Off ch=13 n=75 v=64
370420 Off ch=13 n=87 v=64
370440 On ch=13 n=63 v=32
370440 On ch=13 n=75 v=32
370440 On ch=13 n=87 v=32
370480 Off ch=13 n=89 v=64
370480 Off ch=13 n=65 v=64
370480 Off ch=13 n=77 v=64
370500 On ch=13 n=89 v=27
370500 On ch=13 n=65 v=27
370500 On ch=13 n=77 v=27
370540 Off ch=13 n=63 v=64
370540 Off ch=13 n=75 v=64
370540 Off ch=13 n=87 v=64
370560 On ch=13 n=63 v=32
370560 On ch=13 n=75 v=32
370560 On ch=13 n=87 v=32
370600 Off ch=13 n=89 v=64
370600 Off ch=13 n=65 v=64
370600 Off ch=13 n=77 v=64
370620 On ch=13 n=65 v=27
370620 On ch=13 n=77 v=27
370620 On ch=13 n=89 v=27
370660 Off ch=13 n=63 v=64
370660 Off ch=13 n=75 v=64
370660 Off ch=13 n=87 v=64
370680 On ch=13 n=63 v=32
370680 On ch=13 n=75 v=32
370680 On ch=13 n=87 v=32
370720 Off ch=13 n=65 v=64
370720 Off ch=13 n=77 v=64
370720 Off ch=13 n=89 v=64
370740 On ch=13 n=65 v=27
370740 On ch=13 n=89 v=27
370740 On ch=13 n=77 v=27
370780 Off ch=13 n=63 v=64
370780 Off ch=13 n=75 v=64
370780 Off ch=13 n=87 v=64
370800 On ch=13 n=63 v=32
370800 On ch=13 n=75 v=32
370800 On ch=13 n=87 v=32
370840 Off ch=13 n=65 v=64
370840 Off ch=13 n=89 v=64
370840 Off ch=13 n=77 v=64
370860 On ch=13 n=89 v=27
370860 On ch=13 n=65 v=27
370860 On ch=13 n=77 v=27
370900 Off ch=13 n=63 v=64
370900 Off ch=13 n=75 v=64
370900 Off ch=13 n=87 v=64
370920 On ch=13 n=75 v=32
370920 On ch=13 n=63 v=32
370920 On ch=13 n=87 v=32
370960 Off ch=13 n=89 v=64
370960 Off ch=13 n=65 v=64
370960 Off ch=13 n=77 v=64
370980 On ch=13 n=65 v=27
370980 On ch=13 n=89 v=27
370980 On ch=13 n=77 v=27
371020 Off ch=13 n=75 v=64
371020 Off ch=13 n=63 v=64
371020 Off ch=13 n=87 v=64
371040 On ch=13 n=63 v=32
371040 On ch=13 n=75 v=32
371040 On ch=13 n=87 v=32
371080 Off ch=13 n=65 v=64
371080 Off ch=13 n=89 v=64
371080 Off ch=13 n=77 v=64
371100 On ch=13 n=89 v=27
371100 On ch=13 n=65 v=27
371100 On ch=13 n=77 v=27
371140 Off ch=13 n=63 v=64
371140 Off ch=13 n=75 v=64
371140 Off ch=13 n=87 v=64
371160 On ch=13 n=63 v=32
371160 On ch=13 n=75 v=32
371160 On ch=13 n=87 v=32
371200 Off ch=13 n=89 v=64
371200 Off ch=13 n=65 v=64
371200 Off ch=13 n=77 v=64
371220 On ch=13 n=89 v=27
371220 On ch=13 n=77 v=27
371220 On ch=13 n=65 v=27
371260 Off ch=13 n=63 v=64
371260 Off ch=13 n=75 v=64
371260 Off ch=13 n=87 v=64
371280 On ch=13 n=63 v=32
371280 On ch=13 n=75 v=32
371280 On ch=13 n=87 v=32
371320 Off ch=13 n=89 v=64
371320 Off ch=13 n=77 v=64
371320 Off ch=13 n=65 v=64
371340 On ch=13 n=65 v=27
371340 On ch=13 n=89 v=27
371340 On ch=13 n=77 v=27
371380 Off ch=13 n=63 v=64
371380 Off ch=13 n=75 v=64
371380 Off ch=13 n=87 v=64
371400 On ch=13 n=63 v=32
371400 On ch=13 n=75 v=32
371400 On ch=13 n=87 v=32
371440 Off ch=13 n=65 v=64
371440 Off ch=13 n=89 v=64
371440 Off ch=13 n=77 v=64
371460 On ch=13 n=89 v=27
371460 On ch=13 n=65 v=27
371460 On ch=13 n=77 v=27
371500 Off ch=13 n=63 v=64
371500 Off ch=13 n=75 v=64
371500 Off ch=13 n=87 v=64
371520 On ch=13 n=63 v=32
371520 On ch=13 n=75 v=32
371520 On ch=13 n=87 v=32
371560 Off ch=13 n=89 v=64
371560 Off ch=13 n=65 v=64
371560 Off ch=13 n=77 v=64
371580 On ch=13 n=65 v=27
371580 On ch=13 n=89 v=27
371580 On ch=13 n=77 v=27
371620 Off ch=13 n=63 v=64
371620 Off ch=13 n=75 v=64
371620 Off ch=13 n=87 v=64
371640 On ch=13 n=63 v=32
371640 On ch=13 n=87 v=32
371640 On ch=13 n=75 v=32
371680 Off ch=13 n=65 v=64
371680 Off ch=13 n=89 v=64
371680 Off ch=13 n=77 v=64
371700 On ch=13 n=65 v=27
371700 On ch=13 n=89 v=27
371700 On ch=13 n=77 v=27
371740 Off ch=13 n=63 v=64
371740 Off ch=13 n=87 v=64
371740 Off ch=13 n=75 v=64
371760 On ch=13 n=63 v=32
371760 On ch=13 n=87 v=32
371760 On ch=13 n=75 v=32
371800 Off ch=13 n=65 v=64
371800 Off ch=13 n=89 v=64
371800 Off ch=13 n=77 v=64
371820 On ch=13 n=65 v=27
371820 On ch=13 n=89 v=27
371820 On ch=13 n=77 v=27
371860 Off ch=13 n=63 v=64
371860 Off ch=13 n=87 v=64
371860 Off ch=13 n=75 v=64
371880 On ch=13 n=63 v=32
371880 On ch=13 n=75 v=32
371880 On ch=13 n=87 v=32
371920 Off ch=13 n=65 v=64
371920 Off ch=13 n=89 v=64
371920 Off ch=13 n=77 v=64
371940 On ch=13 n=77 v=27
371940 On ch=13 n=65 v=27
371940 On ch=13 n=89 v=27
371980 Off ch=13 n=63 v=64
371980 Off ch=13 n=75 v=64
371980 Off ch=13 n=87 v=64
372000 On ch=13 n=63 v=32
372000 On ch=13 n=75 v=32
372000 On ch=13 n=87 v=32
372040 Off ch=13 n=77 v=64
372040 Off ch=13 n=65 v=64
372040 Off ch=13 n=89 v=64
372060 On ch=13 n=89 v=27
372060 On ch=13 n=65 v=27
372060 On ch=13 n=77 v=27
372100 Off ch=13 n=63 v=64
372100 Off ch=13 n=75 v=64
372100 Off ch=13 n=87 v=64
372120 On ch=13 n=63 v=32
372120 On ch=13 n=87 v=32
372120 On ch=13 n=75 v=32
372160 Off ch=13 n=89 v=64
372160 Off ch=13 n=65 v=64
372160 Off ch=13 n=77 v=64
372180 On ch=13 n=77 v=27
372180 On ch=13 n=65 v=27
372180 On ch=13 n=89 v=27
372220 Off ch=13 n=63 v=64
372220 Off ch=13 n=87 v=64
372220 Off ch=13 n=75 v=64
372240 On ch=13 n=63 v=32
372240 On ch=13 n=75 v=32
372240 On ch=13 n=87 v=32
372280 Off ch=13 n=77 v=64
372280 Off ch=13 n=65 v=64
372280 Off ch=13 n=89 v=64
372300 On ch=13 n=89 v=27
372300 On ch=13 n=65 v=27
372300 On ch=13 n=77 v=27
372340 Off ch=13 n=63 v=64
372340 Off ch=13 n=75 v=64
372340 Off ch=13 n=87 v=64
372360 On ch=13 n=63 v=32
372360 On ch=13 n=75 v=32
372360 On ch=13 n=87 v=32
372400 Off ch=13 n=89 v=64
372400 Off ch=13 n=65 v=64
372400 Off ch=13 n=77 v=64
372420 On ch=13 n=89 v=27
372420 On ch=13 n=65 v=27
372420 On ch=13 n=77 v=27
372460 Off ch=13 n=63 v=64
372460 Off ch=13 n=75 v=64
372460 Off ch=13 n=87 v=64
372480 On ch=13 n=63 v=32
372480 On ch=13 n=75 v=32
372480 On ch=13 n=87 v=32
372520 Off ch=13 n=89 v=64
372520 Off ch=13 n=65 v=64
372520 Off ch=13 n=77 v=64
372540 On ch=13 n=65 v=27
372540 On ch=13 n=77 v=27
372540 On ch=13 n=89 v=27
372580 Off ch=13 n=63 v=64
372580 Off ch=13 n=75 v=64
372580 Off ch=13 n=87 v=64
372600 On ch=13 n=63 v=32
372600 On ch=13 n=75 v=32
372600 On ch=13 n=87 v=32
372640 Off ch=13 n=65 v=64
372640 Off ch=13 n=77 v=64
372640 Off ch=13 n=89 v=64
372660 On ch=13 n=65 v=27
372660 On ch=13 n=89 v=27
372660 On ch=13 n=77 v=27
372700 Off ch=13 n=63 v=64
372700 Off ch=13 n=75 v=64
372700 Off ch=13 n=87 v=64
372720 On ch=13 n=63 v=32
372720 On ch=13 n=75 v=32
372720 On ch=13 n=87 v=32
372760 Off ch=13 n=65 v=64
372760 Off ch=13 n=89 v=64
372760 Off ch=13 n=77 v=64
372780 On ch=13 n=89 v=27
372780 On ch=13 n=65 v=27
372780 On ch=13 n=77 v=27
372820 Off ch=13 n=63 v=64
372820 Off ch=13 n=75 v=64
372820 Off ch=13 n=87 v=64
372840 On ch=13 n=75 v=32
372840 On ch=13 n=63 v=32
372840 On ch=13 n=87 v=32
372880 Off ch=13 n=89 v=64
372880 Off ch=13 n=65 v=64
372880 Off ch=13 n=77 v=64
372900 On ch=13 n=65 v=27
372900 On ch=13 n=89 v=27
372900 On ch=13 n=77 v=27
372940 Off ch=13 n=75 v=64
372940 Off ch=13 n=63 v=64
372940 Off ch=13 n=87 v=64
372960 On ch=13 n=63 v=32
372960 On ch=13 n=75 v=32
372960 On ch=13 n=87 v=32
373000 Off ch=13 n=65 v=64
373000 Off ch=13 n=89 v=64
373000 Off ch=13 n=77 v=64
373020 On ch=13 n=89 v=27
373020 On ch=13 n=65 v=27
373020 On ch=13 n=77 v=27
373060 Off ch=13 n=63 v=64
373060 Off ch=13 n=75 v=64
373060 Off ch=13 n=87 v=64
373080 On ch=13 n=63 v=32
373080 On ch=13 n=75 v=32
373080 On ch=13 n=87 v=32
373120 Off ch=13 n=89 v=64
373120 Off ch=13 n=65 v=64
373120 Off ch=13 n=77 v=64
373140 On ch=13 n=89 v=27
373140 On ch=13 n=77 v=27
373140 On ch=13 n=65 v=27
373180 Off ch=13 n=63 v=64
373180 Off ch=13 n=75 v=64
373180 Off ch=13 n=87 v=64
373200 On ch=13 n=63 v=32
373200 On ch=13 n=75 v=32
373200 On ch=13 n=87 v=32
373240 Off ch=13 n=89 v=64
373240 Off ch=13 n=77 v=64
373240 Off ch=13 n=65 v=64
373260 On ch=13 n=65 v=27
373260 On ch=13 n=89 v=27
373260 On ch=13 n=77 v=27
373300 Off ch=13 n=63 v=64
373300 Off ch=13 n=75 v=64
373300 Off ch=13 n=87 v=64
373320 On ch=13 n=63 v=32
373320 On ch=13 n=75 v=32
373320 On ch=13 n=87 v=32
373360 Off ch=13 n=65 v=64
373360 Off ch=13 n=89 v=64
373360 Off ch=13 n=77 v=64
373380 On ch=13 n=89 v=27
373380 On ch=13 n=65 v=27
373380 On ch=13 n=77 v=27
373420 Off ch=13 n=63 v=64
373420 Off ch=13 n=75 v=64
373420 Off ch=13 n=87 v=64
373440 On ch=13 n=63 v=32
373440 On ch=13 n=75 v=32
373440 On ch=13 n=87 v=32
373480 Off ch=13 n=89 v=64
373480 Off ch=13 n=65 v=64
373480 Off ch=13 n=77 v=64
373500 On ch=13 n=65 v=27
373500 On ch=13 n=89 v=27
373500 On ch=13 n=77 v=27
373540 Off ch=13 n=63 v=64
373540 Off ch=13 n=75 v=64
373540 Off ch=13 n=87 v=64
373560 On ch=13 n=63 v=32
373560 On ch=13 n=87 v=32
373560 On ch=13 n=75 v=32
373600 Off ch=13 n=65 v=64
373600 Off ch=13 n=89 v=64
373600 Off ch=13 n=77 v=64
373620 On ch=13 n=65 v=27
373620 On ch=13 n=89 v=27
373620 On ch=13 n=77 v=27
373660 Off ch=13 n=63 v=64
373660 Off ch=13 n=87 v=64
373660 Off ch=13 n=75 v=64
373680 On ch=13 n=63 v=32
373680 On ch=13 n=87 v=32
373680 On ch=13 n=75 v=32
373720 Off ch=13 n=65 v=64
373720 Off ch=13 n=89 v=64
373720 Off ch=13 n=77 v=64
373740 On ch=13 n=65 v=27
373740 On ch=13 n=89 v=27
373740 On ch=13 n=77 v=27
373780 Off ch=13 n=63 v=64
373780 Off ch=13 n=87 v=64
373780 Off ch=13 n=75 v=64
373800 On ch=13 n=63 v=32
373800 On ch=13 n=75 v=32
373800 On ch=13 n=87 v=32
373840 Off ch=13 n=65 v=64
373840 Off ch=13 n=89 v=64
373840 Off ch=13 n=77 v=64
373860 On ch=13 n=77 v=27
373860 On ch=13 n=65 v=27
373860 On ch=13 n=89 v=27
373900 Off ch=13 n=63 v=64
373900 Off ch=13 n=75 v=64
373900 Off ch=13 n=87 v=64
373920 On ch=13 n=63 v=32
373920 On ch=13 n=75 v=32
373920 On ch=13 n=87 v=32
373960 Off ch=13 n=77 v=64
373960 Off ch=13 n=65 v=64
373960 Off ch=13 n=89 v=64
373980 On ch=13 n=89 v=27
373980 On ch=13 n=65 v=27
373980 On ch=13 n=77 v=27
374020 Off ch=13 n=63 v=64
374020 Off ch=13 n=75 v=64
374020 Off ch=13 n=87 v=64
374040 On ch=13 n=63 v=32
374040 On ch=13 n=87 v=32
374040 On ch=13 n=75 v=32
374080 Off ch=13 n=89 v=64
374080 Off ch=13 n=65 v=64
374080 Off ch=13 n=77 v=64
374100 On ch=13 n=77 v=27
374100 On ch=13 n=65 v=27
374100 On ch=13 n=89 v=27
374140 Off ch=13 n=63 v=64
374140 Off ch=13 n=87 v=64
374140 Off ch=13 n=75 v=64
374160 On ch=13 n=63 v=32
374160 On ch=13 n=75 v=32
374160 On ch=13 n=87 v=32
374200 Off ch=13 n=77 v=64
374200 Off ch=13 n=65 v=64
374200 Off ch=13 n=89 v=64
374220 On ch=13 n=89 v=27
374220 On ch=13 n=65 v=27
374220 On ch=13 n=77 v=27
374260 Off ch=13 n=63 v=64
374260 Off ch=13 n=75 v=64
374260 Off ch=13 n=87 v=64
374280 On ch=13 n=63 v=32
374280 On ch=13 n=75 v=32
374280 On ch=13 n=87 v=32
374320 Off ch=13 n=89 v=64
374320 Off ch=13 n=65 v=64
374320 Off ch=13 n=77 v=64
374340 On ch=13 n=89 v=27
374340 On ch=13 n=65 v=27
374340 On ch=13 n=77 v=27
374380 Off ch=13 n=63 v=64
374380 Off ch=13 n=75 v=64
374380 Off ch=13 n=87 v=64
374400 On ch=13 n=63 v=32
374400 On ch=13 n=75 v=32
374400 On ch=13 n=87 v=32
374440 Off ch=13 n=89 v=64
374440 Off ch=13 n=65 v=64
374440 Off ch=13 n=77 v=64
374460 On ch=13 n=65 v=27
374460 On ch=13 n=77 v=27
374460 On ch=13 n=89 v=27
374500 Off ch=13 n=63 v=64
374500 Off ch=13 n=75 v=64
374500 Off ch=13 n=87 v=64
374520 On ch=13 n=63 v=32
374520 On ch=13 n=75 v=32
374520 On ch=13 n=87 v=32
374560 Off ch=13 n=65 v=64
374560 Off ch=13 n=77 v=64
374560 Off ch=13 n=89 v=64
374580 On ch=13 n=65 v=27
374580 On ch=13 n=89 v=27
374580 On ch=13 n=77 v=27
374620 Off ch=13 n=63 v=64
374620 Off ch=13 n=75 v=64
374620 Off ch=13 n=87 v=64
374640 On ch=13 n=63 v=32
374640 On ch=13 n=75 v=32
374640 On ch=13 n=87 v=32
374680 Off ch=13 n=65 v=64
374680 Off ch=13 n=89 v=64
374680 Off ch=13 n=77 v=64
374700 On ch=13 n=89 v=27
374700 On ch=13 n=65 v=27
374700 On ch=13 n=77 v=27
374740 Off ch=13 n=63 v=64
374740 Off ch=13 n=75 v=64
374740 Off ch=13 n=87 v=64
374760 On ch=13 n=75 v=32
374760 On ch=13 n=63 v=32
374760 On ch=13 n=87 v=32
374800 Off ch=13 n=89 v=64
374800 Off ch=13 n=65 v=64
374800 Off ch=13 n=77 v=64
374820 On ch=13 n=65 v=27
374820 On ch=13 n=89 v=27
374820 On ch=13 n=77 v=27
374860 Off ch=13 n=75 v=64
374860 Off ch=13 n=63 v=64
374860 Off ch=13 n=87 v=64
374880 On ch=13 n=63 v=32
374880 On ch=13 n=75 v=32
374880 On ch=13 n=87 v=32
374920 Off ch=13 n=65 v=64
374920 Off ch=13 n=89 v=64
374920 Off ch=13 n=77 v=64
374940 On ch=13 n=89 v=27
374940 On ch=13 n=65 v=27
374940 On ch=13 n=77 v=27
374980 Off ch=13 n=63 v=64
374980 Off ch=13 n=75 v=64
374980 Off ch=13 n=87 v=64
375000 On ch=13 n=63 v=32
375000 On ch=13 n=75 v=32
375000 On ch=13 n=87 v=32
375040 Off ch=13 n=89 v=64
375040 Off ch=13 n=65 v=64
375040 Off ch=13 n=77 v=64
375060 On ch=13 n=89 v=27
375060 On ch=13 n=77 v=27
375060 On ch=13 n=65 v=27
375100 Off ch=13 n=63 v=64
375100 Off ch=13 n=75 v=64
375100 Off ch=13 n=87 v=64
375120 On ch=13 n=63 v=32
375120 On ch=13 n=75 v=32
375120 On ch=13 n=87 v=32
375160 Off ch=13 n=89 v=64
375160 Off ch=13 n=77 v=64
375160 Off ch=13 n=65 v=64
375180 On ch=13 n=65 v=27
375180 On ch=13 n=89 v=27
375180 On ch=13 n=77 v=27
375220 Off ch=13 n=63 v=64
375220 Off ch=13 n=75 v=64
375220 Off ch=13 n=87 v=64
375240 On ch=13 n=63 v=32
375240 On ch=13 n=75 v=32
375240 On ch=13 n=87 v=32
375280 Off ch=13 n=65 v=64
375280 Off ch=13 n=89 v=64
375280 Off ch=13 n=77 v=64
375300 On ch=13 n=89 v=27
375300 On ch=13 n=65 v=27
375300 On ch=13 n=77 v=27
375340 Off ch=13 n=63 v=64
375340 Off ch=13 n=75 v=64
375340 Off ch=13 n=87 v=64
375360 On ch=13 n=63 v=32
375360 On ch=13 n=75 v=32
375360 On ch=13 n=87 v=32
375400 Off ch=13 n=89 v=64
375400 Off ch=13 n=65 v=64
375400 Off ch=13 n=77 v=64
375420 On ch=13 n=65 v=27
375420 On ch=13 n=89 v=27
375420 On ch=13 n=77 v=27
375460 Off ch=13 n=63 v=64
375460 Off ch=13 n=75 v=64
375460 Off ch=13 n=87 v=64
375480 On ch=13 n=63 v=32
375480 On ch=13 n=87 v=32
375480 On ch=13 n=75 v=32
375520 Off ch=13 n=65 v=64
375520 Off ch=13 n=89 v=64
375520 Off ch=13 n=77 v=64
375540 On ch=13 n=65 v=27
375540 On ch=13 n=89 v=27
375540 On ch=13 n=77 v=27
375580 Off ch=13 n=63 v=64
375580 Off ch=13 n=87 v=64
375580 Off ch=13 n=75 v=64
375600 On ch=13 n=63 v=32
375600 On ch=13 n=87 v=32
375600 On ch=13 n=75 v=32
375640 Off ch=13 n=65 v=64
375640 Off ch=13 n=89 v=64
375640 Off ch=13 n=77 v=64
375660 On ch=13 n=65 v=27
375660 On ch=13 n=89 v=27
375660 On ch=13 n=77 v=27
375700 Off ch=13 n=63 v=64
375700 Off ch=13 n=87 v=64
375700 Off ch=13 n=75 v=64
375720 On ch=13 n=63 v=32
375720 On ch=13 n=75 v=32
375720 On ch=13 n=87 v=32
375760 Off ch=13 n=65 v=64
375760 Off ch=13 n=89 v=64
375760 Off ch=13 n=77 v=64
375780 On ch=13 n=77 v=27
375780 On ch=13 n=65 v=27
375780 On ch=13 n=89 v=27
375820 Off ch=13 n=63 v=64
375820 Off ch=13 n=75 v=64
375820 Off ch=13 n=87 v=64
375840 On ch=13 n=63 v=32
375840 On ch=13 n=75 v=32
375840 On ch=13 n=87 v=32
375880 Off ch=13 n=77 v=64
375880 Off ch=13 n=65 v=64
375880 Off ch=13 n=89 v=64
375900 On ch=13 n=89 v=27
375900 On ch=13 n=65 v=27
375900 On ch=13 n=77 v=27
375940 Off ch=13 n=63 v=64
375940 Off ch=13 n=75 v=64
375940 Off ch=13 n=87 v=64
375960 On ch=13 n=63 v=32
375960 On ch=13 n=87 v=32
375960 On ch=13 n=75 v=32
376000 Off ch=13 n=89 v=64
376000 Off ch=13 n=65 v=64
376000 Off ch=13 n=77 v=64
376020 On ch=13 n=77 v=27
376020 On ch=13 n=65 v=27
376020 On ch=13 n=89 v=27
376060 Off ch=13 n=63 v=64
376060 Off ch=13 n=87 v=64
376060 Off ch=13 n=75 v=64
376080 On ch=13 n=63 v=32
376080 On ch=13 n=75 v=32
376080 On ch=13 n=87 v=32
376120 Off ch=13 n=77 v=64
376120 Off ch=13 n=65 v=64
376120 Off ch=13 n=89 v=64
376140 On ch=13 n=89 v=27
376140 On ch=13 n=65 v=27
376140 On ch=13 n=77 v=27
376180 Off ch=13 n=63 v=64
376180 Off ch=13 n=75 v=64
376180 Off ch=13 n=87 v=64
376200 On ch=13 n=63 v=32
376200 On ch=13 n=75 v=32
376200 On ch=13 n=87 v=32
376240 Off ch=13 n=89 v=64
376240 Off ch=13 n=65 v=64
376240 Off ch=13 n=77 v=64
376260 On ch=13 n=89 v=27
376260 On ch=13 n=65 v=27
376260 On ch=13 n=77 v=27
376300 Off ch=13 n=63 v=64
376300 Off ch=13 n=75 v=64
376300 Off ch=13 n=87 v=64
376320 On ch=13 n=63 v=32
376320 On ch=13 n=75 v=32
376320 On ch=13 n=87 v=32
376360 Off ch=13 n=89 v=64
376360 Off ch=13 n=65 v=64
376360 Off ch=13 n=77 v=64
376380 On ch=13 n=65 v=27
376380 On ch=13 n=77 v=27
376380 On ch=13 n=89 v=27
376420 Off ch=13 n=63 v=64
376420 Off ch=13 n=75 v=64
376420 Off ch=13 n=87 v=64
376440 On ch=13 n=63 v=32
376440 On ch=13 n=75 v=32
376440 On ch=13 n=87 v=32
376480 Off ch=13 n=65 v=64
376480 Off ch=13 n=77 v=64
376480 Off ch=13 n=89 v=64
376500 On ch=13 n=65 v=27
376500 On ch=13 n=89 v=27
376500 On ch=13 n=77 v=27
376540 Off ch=13 n=63 v=64
376540 Off ch=13 n=75 v=64
376540 Off ch=13 n=87 v=64
376560 On ch=13 n=63 v=32
376560 On ch=13 n=75 v=32
376560 On ch=13 n=87 v=32
376600 Off ch=13 n=65 v=64
376600 Off ch=13 n=89 v=64
376600 Off ch=13 n=77 v=64
376620 On ch=13 n=89 v=27
376620 On ch=13 n=65 v=27
376620 On ch=13 n=77 v=27
376660 Off ch=13 n=63 v=64
376660 Off ch=13 n=75 v=64
376660 Off ch=13 n=87 v=64
376680 On ch=13 n=75 v=32
376680 On ch=13 n=63 v=32
376680 On ch=13 n=87 v=32
376720 Off ch=13 n=89 v=64
376720 Off ch=13 n=65 v=64
376720 Off ch=13 n=77 v=64
376740 On ch=13 n=65 v=27
376740 On ch=13 n=89 v=27
376740 On ch=13 n=77 v=27
376780 Off ch=13 n=75 v=64
376780 Off ch=13 n=63 v=64
376780 Off ch=13 n=87 v=64
376800 On ch=13 n=63 v=32
376800 On ch=13 n=75 v=32
376800 On ch=13 n=87 v=32
376840 Off ch=13 n=65 v=64
376840 Off ch=13 n=89 v=64
376840 Off ch=13 n=77 v=64
376860 On ch=13 n=89 v=27
376860 On ch=13 n=65 v=27
376860 On ch=13 n=77 v=27
376900 Off ch=13 n=63 v=64
376900 Off ch=13 n=75 v=64
376900 Off ch=13 n=87 v=64
376920 On ch=13 n=63 v=32
376920 On ch=13 n=75 v=32
376920 On ch=13 n=87 v=32
376960 Off ch=13 n=89 v=64
376960 Off ch=13 n=65 v=64
376960 Off ch=13 n=77 v=64
376980 On ch=13 n=89 v=27
376980 On ch=13 n=77 v=27
376980 On ch=13 n=65 v=27
377020 Off ch=13 n=63 v=64
377020 Off ch=13 n=75 v=64
377020 Off ch=13 n=87 v=64
377040 On ch=13 n=63 v=32
377040 On ch=13 n=75 v=32
377040 On ch=13 n=87 v=32
377080 Off ch=13 n=89 v=64
377080 Off ch=13 n=77 v=64
377080 Off ch=13 n=65 v=64
377100 On ch=13 n=65 v=27
377100 On ch=13 n=89 v=27
377100 On ch=13 n=77 v=27
377140 Off ch=13 n=63 v=64
377140 Off ch=13 n=75 v=64
377140 Off ch=13 n=87 v=64
377160 On ch=13 n=63 v=32
377160 On ch=13 n=75 v=32
377160 On ch=13 n=87 v=32
377200 Off ch=13 n=65 v=64
377200 Off ch=13 n=89 v=64
377200 Off ch=13 n=77 v=64
377220 On ch=13 n=89 v=27
377220 On ch=13 n=65 v=27
377220 On ch=13 n=77 v=27
377260 Off ch=13 n=63 v=64
377260 Off ch=13 n=75 v=64
377260 Off ch=13 n=87 v=64
377280 On ch=13 n=63 v=32
377280 On ch=13 n=75 v=32
377280 On ch=13 n=87 v=32
377320 Off ch=13 n=89 v=64
377320 Off ch=13 n=65 v=64
377320 Off ch=13 n=77 v=64
377340 On ch=13 n=65 v=27
377340 On ch=13 n=89 v=27
377340 On ch=13 n=77 v=27
377380 Off ch=13 n=63 v=64
377380 Off ch=13 n=75 v=64
377380 Off ch=13 n=87 v=64
377400 On ch=13 n=63 v=32
377400 On ch=13 n=87 v=32
377400 On ch=13 n=75 v=32
377440 Off ch=13 n=65 v=64
377440 Off ch=13 n=89 v=64
377440 Off ch=13 n=77 v=64
377460 On ch=13 n=65 v=27
377460 On ch=13 n=89 v=27
377460 On ch=13 n=77 v=27
377500 Off ch=13 n=63 v=64
377500 Off ch=13 n=87 v=64
377500 Off ch=13 n=75 v=64
377520 On ch=13 n=63 v=32
377520 On ch=13 n=87 v=32
377520 On ch=13 n=75 v=32
377560 Off ch=13 n=65 v=64
377560 Off ch=13 n=89 v=64
377560 Off ch=13 n=77 v=64
377580 On ch=13 n=65 v=27
377580 On ch=13 n=89 v=27
377580 On ch=13 n=77 v=27
377620 Off ch=13 n=63 v=64
377620 Off ch=13 n=87 v=64
377620 Off ch=13 n=75 v=64
377640 On ch=13 n=63 v=32
377640 On ch=13 n=75 v=32
377640 On ch=13 n=87 v=32
377680 Off ch=13 n=65 v=64
377680 Off ch=13 n=89 v=64
377680 Off ch=13 n=77 v=64
377700 On ch=13 n=77 v=27
377700 On ch=13 n=65 v=27
377700 On ch=13 n=89 v=27
377740 Off ch=13 n=63 v=64
377740 Off ch=13 n=75 v=64
377740 Off ch=13 n=87 v=64
377760 On ch=13 n=63 v=32
377760 On ch=13 n=75 v=32
377760 On ch=13 n=87 v=32
377800 Off ch=13 n=77 v=64
377800 Off ch=13 n=65 v=64
377800 Off ch=13 n=89 v=64
377820 On ch=13 n=89 v=27
377820 On ch=13 n=65 v=27
377820 On ch=13 n=77 v=27
377860 Off ch=13 n=63 v=64
377860 Off ch=13 n=75 v=64
377860 Off ch=13 n=87 v=64
377880 On ch=13 n=63 v=32
377880 On ch=13 n=87 v=32
377880 On ch=13 n=75 v=32
377920 Off ch=13 n=89 v=64
377920 Off ch=13 n=65 v=64
377920 Off ch=13 n=77 v=64
377940 On ch=13 n=77 v=27
377940 On ch=13 n=65 v=27
377940 On ch=13 n=89 v=27
377980 Off ch=13 n=63 v=64
377980 Off ch=13 n=87 v=64
377980 Off ch=13 n=75 v=64
378000 On ch=13 n=63 v=32
378000 On ch=13 n=75 v=32
378000 On ch=13 n=87 v=32
378040 Off ch=13 n=77 v=64
378040 Off ch=13 n=65 v=64
378040 Off ch=13 n=89 v=64
378060 On ch=13 n=89 v=27
378060 On ch=13 n=65 v=27
378060 On ch=13 n=77 v=27
378100 Off ch=13 n=63 v=64
378100 Off ch=13 n=75 v=64
378100 Off ch=13 n=87 v=64
378120 On ch=13 n=63 v=32
378120 On ch=13 n=75 v=32
378120 On ch=13 n=87 v=32
378160 Off ch=13 n=89 v=64
378160 Off ch=13 n=65 v=64
378160 Off ch=13 n=77 v=64
378180 On ch=13 n=89 v=27
378180 On ch=13 n=65 v=27
378180 On ch=13 n=77 v=27
378220 Off ch=13 n=63 v=64
378220 Off ch=13 n=75 v=64
378220 Off ch=13 n=87 v=64
378240 On ch=13 n=63 v=32
378240 On ch=13 n=75 v=32
378240 On ch=13 n=87 v=32
378280 Off ch=13 n=89 v=64
378280 Off ch=13 n=65 v=64
378280 Off ch=13 n=77 v=64
378300 On ch=13 n=65 v=27
378300 On ch=13 n=77 v=27
378300 On ch=13 n=89 v=27
378340 Off ch=13 n=63 v=64
378340 Off ch=13 n=75 v=64
378340 Off ch=13 n=87 v=64
378360 On ch=13 n=63 v=32
378360 On ch=13 n=75 v=32
378360 On ch=13 n=87 v=32
378400 Off ch=13 n=65 v=64
378400 Off ch=13 n=77 v=64
378400 Off ch=13 n=89 v=64
378420 On ch=13 n=65 v=27
378420 On ch=13 n=89 v=27
378420 On ch=13 n=77 v=27
378460 Off ch=13 n=63 v=64
378460 Off ch=13 n=75 v=64
378460 Off ch=13 n=87 v=64
378480 On ch=13 n=63 v=32
378480 On ch=13 n=75 v=32
378480 On ch=13 n=87 v=32
378520 Off ch=13 n=65 v=64
378520 Off ch=13 n=89 v=64
378520 Off ch=13 n=77 v=64
378540 On ch=13 n=89 v=27
378540 On ch=13 n=65 v=27
378540 On ch=13 n=77 v=27
378580 Off ch=13 n=63 v=64
378580 Off ch=13 n=75 v=64
378580 Off ch=13 n=87 v=64
378600 On ch=13 n=75 v=32
378600 On ch=13 n=63 v=32
378600 On ch=13 n=87 v=32
378640 Off ch=13 n=89 v=64
378640 Off ch=13 n=65 v=64
378640 Off ch=13 n=77 v=64
378660 On ch=13 n=65 v=27
378660 On ch=13 n=89 v=27
378660 On ch=13 n=77 v=27
378700 Off ch=13 n=75 v=64
378700 Off ch=13 n=63 v=64
378700 Off ch=13 n=87 v=64
378720 On ch=13 n=63 v=32
378720 On ch=13 n=75 v=32
378720 On ch=13 n=87 v=32
378760 Off ch=13 n=65 v=64
378760 Off ch=13 n=89 v=64
378760 Off ch=13 n=77 v=64
378780 On ch=13 n=89 v=27
378780 On ch=13 n=65 v=27
378780 On ch=13 n=77 v=27
378820 Off ch=13 n=63 v=64
378820 Off ch=13 n=75 v=64
378820 Off ch=13 n=87 v=64
378840 On ch=13 n=63 v=32
378840 On ch=13 n=75 v=32
378840 On ch=13 n=87 v=32
378880 Off ch=13 n=89 v=64
378880 Off ch=13 n=65 v=64
378880 Off ch=13 n=77 v=64
378900 On ch=13 n=89 v=27
378900 On ch=13 n=77 v=27
378900 On ch=13 n=65 v=27
378940 Off ch=13 n=63 v=64
378940 Off ch=13 n=75 v=64
378940 Off ch=13 n=87 v=64
378960 On ch=13 n=63 v=32
378960 On ch=13 n=75 v=32
378960 On ch=13 n=87 v=32
379000 Off ch=13 n=89 v=64
379000 Off ch=13 n=77 v=64
379000 Off ch=13 n=65 v=64
379020 On ch=13 n=65 v=27
379020 On ch=13 n=89 v=27
379020 On ch=13 n=77 v=27
379060 Off ch=13 n=63 v=64
379060 Off ch=13 n=75 v=64
379060 Off ch=13 n=87 v=64
379080 On ch=13 n=63 v=32
379080 On ch=13 n=75 v=32
379080 On ch=13 n=87 v=32
379120 Off ch=13 n=65 v=64
379120 Off ch=13 n=89 v=64
379120 Off ch=13 n=77 v=64
379140 On ch=13 n=89 v=27
379140 On ch=13 n=65 v=27
379140 On ch=13 n=77 v=27
379180 Off ch=13 n=63 v=64
379180 Off ch=13 n=75 v=64
379180 Off ch=13 n=87 v=64
379200 On ch=13 n=63 v=32
379200 On ch=13 n=75 v=32
379200 On ch=13 n=87 v=32
379240 Off ch=13 n=89 v=64
379240 Off ch=13 n=65 v=64
379240 Off ch=13 n=77 v=64
379260 On ch=13 n=65 v=27
379260 On ch=13 n=89 v=27
379260 On ch=13 n=77 v=27
379300 Off ch=13 n=63 v=64
379300 Off ch=13 n=75 v=64
379300 Off ch=13 n=87 v=64
379320 On ch=13 n=63 v=32
379320 On ch=13 n=87 v=32
379320 On ch=13 n=75 v=32
379360 Off ch=13 n=65 v=64
379360 Off ch=13 n=89 v=64
379360 Off ch=13 n=77 v=64
379380 On ch=13 n=65 v=27
379380 On ch=13 n=89 v=27
379380 On ch=13 n=77 v=27
379420 Off ch=13 n=63 v=64
379420 Off ch=13 n=87 v=64
379420 Off ch=13 n=75 v=64
379440 On ch=13 n=63 v=32
379440 On ch=13 n=87 v=32
379440 On ch=13 n=75 v=32
379480 Off ch=13 n=65 v=64
379480 Off ch=13 n=89 v=64
379480 Off ch=13 n=77 v=64
379500 On ch=13 n=65 v=27
379500 On ch=13 n=89 v=27
379500 On ch=13 n=77 v=27
379540 Off ch=13 n=63 v=64
379540 Off ch=13 n=87 v=64
379540 Off ch=13 n=75 v=64
379560 On ch=13 n=63 v=32
379560 On ch=13 n=75 v=32
379560 On ch=13 n=87 v=32
379600 Off ch=13 n=65 v=64
379600 Off ch=13 n=89 v=64
379600 Off ch=13 n=77 v=64
379620 On ch=13 n=77 v=27
379620 On ch=13 n=65 v=27
379620 On ch=13 n=89 v=27
379660 Off ch=13 n=63 v=64
379660 Off ch=13 n=75 v=64
379660 Off ch=13 n=87 v=64
379680 On ch=13 n=63 v=32
379680 On ch=13 n=75 v=32
379680 On ch=13 n=87 v=32
379720 Off ch=13 n=77 v=64
379720 Off ch=13 n=65 v=64
379720 Off ch=13 n=89 v=64
379740 On ch=13 n=89 v=27
379740 On ch=13 n=65 v=27
379740 On ch=13 n=77 v=27
379780 Off ch=13 n=63 v=64
379780 Off ch=13 n=75 v=64
379780 Off ch=13 n=87 v=64
379800 On ch=13 n=63 v=32
379800 On ch=13 n=87 v=32
379800 On ch=13 n=75 v=32
379840 Off ch=13 n=89 v=64
379840 Off ch=13 n=65 v=64
379840 Off ch=13 n=77 v=64
379860 On ch=13 n=77 v=27
379860 On ch=13 n=65 v=27
379860 On ch=13 n=89 v=27
379900 Off ch=13 n=63 v=64
379900 Off ch=13 n=87 v=64
379900 Off ch=13 n=75 v=64
379920 On ch=13 n=63 v=32
379920 On ch=13 n=75 v=32
379920 On ch=13 n=87 v=32
379960 Off ch=13 n=77 v=64
379960 Off ch=13 n=65 v=64
379960 Off ch=13 n=89 v=64
379980 On ch=13 n=89 v=27
379980 On ch=13 n=65 v=27
379980 On ch=13 n=77 v=27
380020 Off ch=13 n=63 v=64
380020 Off ch=13 n=75 v=64
380020 Off ch=13 n=87 v=64
380040 On ch=13 n=63 v=32
380040 On ch=13 n=75 v=32
380040 On ch=13 n=87 v=32
380080 Off ch=13 n=89 v=64
380080 Off ch=13 n=65 v=64
380080 Off ch=13 n=77 v=64
380100 On ch=13 n=89 v=27
380100 On ch=13 n=65 v=27
380100 On ch=13 n=77 v=27
380140 Off ch=13 n=63 v=64
380140 Off ch=13 n=75 v=64
380140 Off ch=13 n=87 v=64
380160 On ch=13 n=63 v=32
380160 On ch=13 n=75 v=32
380160 On ch=13 n=87 v=32
380200 Off ch=13 n=89 v=64
380200 Off ch=13 n=65 v=64
380200 Off ch=13 n=77 v=64
380220 On ch=13 n=65 v=27
380220 On ch=13 n=77 v=27
380220 On ch=13 n=89 v=27
380260 Off ch=13 n=63 v=64
380260 Off ch=13 n=75 v=64
380260 Off ch=13 n=87 v=64
380280 On ch=13 n=63 v=32
380280 On ch=13 n=75 v=32
380280 On ch=13 n=87 v=32
380320 Off ch=13 n=65 v=64
380320 Off ch=13 n=77 v=64
380320 Off ch=13 n=89 v=64
380340 On ch=13 n=65 v=27
380340 On ch=13 n=89 v=27
380340 On ch=13 n=77 v=27
380380 Off ch=13 n=63 v=64
380380 Off ch=13 n=75 v=64
380380 Off ch=13 n=87 v=64
380400 On ch=13 n=63 v=32
380400 On ch=13 n=75 v=32
380400 On ch=13 n=87 v=32
380440 Off ch=13 n=65 v=64
380440 Off ch=13 n=89 v=64
380440 Off ch=13 n=77 v=64
380460 On ch=13 n=89 v=27
380460 On ch=13 n=65 v=27
380460 On ch=13 n=77 v=27
380500 Off ch=13 n=63 v=64
380500 Off ch=13 n=75 v=64
380500 Off ch=13 n=87 v=64
380520 On ch=13 n=75 v=32
380520 On ch=13 n=63 v=32
380520 On ch=13 n=87 v=32
380560 Off ch=13 n=89 v=64
380560 Off ch=13 n=65 v=64
380560 Off ch=13 n=77 v=64
380580 On ch=13 n=65 v=27
380580 On ch=13 n=89 v=27
380580 On ch=13 n=77 v=27
380620 Off ch=13 n=75 v=64
380620 Off ch=13 n=63 v=64
380620 Off ch=13 n=87 v=64
380640 On ch=13 n=63 v=32
380640 On ch=13 n=75 v=32
380640 On ch=13 n=87 v=32
380680 Off ch=13 n=65 v=64
380680 Off ch=13 n=89 v=64
380680 Off ch=13 n=77 v=64
380700 On ch=13 n=89 v=27
380700 On ch=13 n=65 v=27
380700 On ch=13 n=77 v=27
380740 Off ch=13 n=63 v=64
380740 Off ch=13 n=75 v=64
380740 Off ch=13 n=87 v=64
380760 On ch=13 n=63 v=32
380760 On ch=13 n=75 v=32
380760 On ch=13 n=87 v=32
380800 Off ch=13 n=89 v=64
380800 Off ch=13 n=65 v=64
380800 Off ch=13 n=77 v=64
380820 On ch=13 n=89 v=27
380820 On ch=13 n=77 v=27
380820 On ch=13 n=65 v=27
380860 Off ch=13 n=63 v=64
380860 Off ch=13 n=75 v=64
380860 Off ch=13 n=87 v=64
380880 On ch=13 n=63 v=32
380880 On ch=13 n=75 v=32
380880 On ch=13 n=87 v=32
380920 Off ch=13 n=89 v=64
380920 Off ch=13 n=77 v=64
380920 Off ch=13 n=65 v=64
380940 On ch=13 n=65 v=27
380940 On ch=13 n=89 v=27
380940 On ch=13 n=77 v=27
380980 Off ch=13 n=63 v=64
380980 Off ch=13 n=75 v=64
380980 Off ch=13 n=87 v=64
381000 On ch=13 n=63 v=32
381000 On ch=13 n=75 v=32
381000 On ch=13 n=87 v=32
381040 Off ch=13 n=65 v=64
381040 Off ch=13 n=89 v=64
381040 Off ch=13 n=77 v=64
381060 On ch=13 n=89 v=27
381060 On ch=13 n=65 v=27
381060 On ch=13 n=77 v=27
381100 Off ch=13 n=63 v=64
381100 Off ch=13 n=75 v=64
381100 Off ch=13 n=87 v=64
381120 On ch=13 n=63 v=32
381120 On ch=13 n=75 v=32
381120 On ch=13 n=87 v=32
381160 Off ch=13 n=89 v=64
381160 Off ch=13 n=65 v=64
381160 Off ch=13 n=77 v=64
381180 On ch=13 n=65 v=27
381180 On ch=13 n=89 v=27
381180 On ch=13 n=77 v=27
381220 Off ch=13 n=63 v=64
381220 Off ch=13 n=75 v=64
381220 Off ch=13 n=87 v=64
381240 On ch=13 n=63 v=32
381240 On ch=13 n=87 v=32
381240 On ch=13 n=75 v=32
381280 Off ch=13 n=65 v=64
381280 Off ch=13 n=89 v=64
381280 Off ch=13 n=77 v=64
381300 On ch=13 n=65 v=27
381300 On ch=13 n=89 v=27
381300 On ch=13 n=77 v=27
381340 Off ch=13 n=63 v=64
381340 Off ch=13 n=87 v=64
381340 Off ch=13 n=75 v=64
381360 On ch=13 n=63 v=32
381360 On ch=13 n=87 v=32
381360 On ch=13 n=75 v=32
381400 Off ch=13 n=65 v=64
381400 Off ch=13 n=89 v=64
381400 Off ch=13 n=77 v=64
381420 On ch=13 n=65 v=27
381420 On ch=13 n=89 v=27
381420 On ch=13 n=77 v=27
381460 Off ch=13 n=63 v=64
381460 Off ch=13 n=87 v=64
381460 Off ch=13 n=75 v=64
381480 On ch=13 n=63 v=32
381480 On ch=13 n=75 v=32
381480 On ch=13 n=87 v=32
381520 Off ch=13 n=65 v=64
381520 Off ch=13 n=89 v=64
381520 Off ch=13 n=77 v=64
381540 On ch=13 n=77 v=27
381540 On ch=13 n=65 v=27
381540 On ch=13 n=89 v=27
381580 Off ch=13 n=63 v=64
381580 Off ch=13 n=75 v=64
381580 Off ch=13 n=87 v=64
381600 On ch=13 n=63 v=32
381600 On ch=13 n=75 v=32
381600 On ch=13 n=87 v=32
381640 Off ch=13 n=77 v=64
381640 Off ch=13 n=65 v=64
381640 Off ch=13 n=89 v=64
381660 On ch=13 n=89 v=27
381660 On ch=13 n=65 v=27
381660 On ch=13 n=77 v=27
381700 Off ch=13 n=63 v=64
381700 Off ch=13 n=75 v=64
381700 Off ch=13 n=87 v=64
381720 On ch=13 n=63 v=32
381720 On ch=13 n=87 v=32
381720 On ch=13 n=75 v=32
381760 Off ch=13 n=89 v=64
381760 Off ch=13 n=65 v=64
381760 Off ch=13 n=77 v=64
381780 On ch=13 n=77 v=27
381780 On ch=13 n=65 v=27
381780 On ch=13 n=89 v=27
381820 Off ch=13 n=63 v=64
381820 Off ch=13 n=87 v=64
381820 Off ch=13 n=75 v=64
381840 On ch=13 n=63 v=32
381840 On ch=13 n=75 v=32
381840 On ch=13 n=87 v=32
381880 Off ch=13 n=77 v=64
381880 Off ch=13 n=65 v=64
381880 Off ch=13 n=89 v=64
381900 On ch=13 n=89 v=27
381900 On ch=13 n=65 v=27
381900 On ch=13 n=77 v=27
381940 Off ch=13 n=63 v=64
381940 Off ch=13 n=75 v=64
381940 Off ch=13 n=87 v=64
381960 On ch=13 n=63 v=32
381960 On ch=13 n=75 v=32
381960 On ch=13 n=87 v=32
382000 Off ch=13 n=89 v=64
382000 Off ch=13 n=65 v=64
382000 Off ch=13 n=77 v=64
382020 On ch=13 n=89 v=27
382020 On ch=13 n=65 v=27
382020 On ch=13 n=77 v=27
382060 Off ch=13 n=63 v=64
382060 Off ch=13 n=75 v=64
382060 Off ch=13 n=87 v=64
382080 On ch=13 n=63 v=32
382080 On ch=13 n=75 v=32
382080 On ch=13 n=87 v=32
382120 Off ch=13 n=89 v=64
382120 Off ch=13 n=65 v=64
382120 Off ch=13 n=77 v=64
382140 On ch=13 n=65 v=27
382140 On ch=13 n=77 v=27
382140 On ch=13 n=89 v=27
382180 Off ch=13 n=63 v=64
382180 Off ch=13 n=75 v=64
382180 Off ch=13 n=87 v=64
382200 On ch=13 n=63 v=32
382200 On ch=13 n=75 v=32
382200 On ch=13 n=87 v=32
382240 Off ch=13 n=65 v=64
382240 Off ch=13 n=77 v=64
382240 Off ch=13 n=89 v=64
382260 On ch=13 n=65 v=27
382260 On ch=13 n=89 v=27
382260 On ch=13 n=77 v=27
382300 Off ch=13 n=63 v=64
382300 Off ch=13 n=75 v=64
382300 Off ch=13 n=87 v=64
382320 On ch=13 n=63 v=32
382320 On ch=13 n=75 v=32
382320 On ch=13 n=87 v=32
382360 Off ch=13 n=65 v=64
382360 Off ch=13 n=89 v=64
382360 Off ch=13 n=77 v=64
382380 On ch=13 n=89 v=27
382380 On ch=13 n=65 v=27
382380 On ch=13 n=77 v=27
382420 Off ch=13 n=63 v=64
382420 Off ch=13 n=75 v=64
382420 Off ch=13 n=87 v=64
382440 On ch=13 n=75 v=32
382440 On ch=13 n=63 v=32
382440 On ch=13 n=87 v=32
382480 Off ch=13 n=89 v=64
382480 Off ch=13 n=65 v=64
382480 Off ch=13 n=77 v=64
382500 On ch=13 n=65 v=27
382500 On ch=13 n=89 v=27
382500 On ch=13 n=77 v=27
382540 Off ch=13 n=75 v=64
382540 Off ch=13 n=63 v=64
382540 Off ch=13 n=87 v=64
382560 On ch=13 n=63 v=32
382560 On ch=13 n=75 v=32
382560 On ch=13 n=87 v=32
382600 Off ch=13 n=65 v=64
382600 Off ch=13 n=89 v=64
382600 Off ch=13 n=77 v=64
382620 On ch=13 n=89 v=27
382620 On ch=13 n=65 v=27
382620 On ch=13 n=77 v=27
382660 Off ch=13 n=63 v=64
382660 Off ch=13 n=75 v=64
382660 Off ch=13 n=87 v=64
382680 On ch=13 n=63 v=32
382680 On ch=13 n=75 v=32
382680 On ch=13 n=87 v=32
382720 Off ch=13 n=89 v=64
382720 Off ch=13 n=65 v=64
382720 Off ch=13 n=77 v=64
382740 On ch=13 n=89 v=27
382740 On ch=13 n=77 v=27
382740 On ch=13 n=65 v=27
382780 Off ch=13 n=63 v=64
382780 Off ch=13 n=75 v=64
382780 Off ch=13 n=87 v=64
382800 On ch=13 n=63 v=32
382800 On ch=13 n=75 v=32
382800 On ch=13 n=87 v=32
382840 Off ch=13 n=89 v=64
382840 Off ch=13 n=77 v=64
382840 Off ch=13 n=65 v=64
382860 On ch=13 n=65 v=27
382860 On ch=13 n=89 v=27
382860 On ch=13 n=77 v=27
382900 Off ch=13 n=63 v=64
382900 Off ch=13 n=75 v=64
382900 Off ch=13 n=87 v=64
382920 On ch=13 n=63 v=32
382920 On ch=13 n=75 v=32
382920 On ch=13 n=87 v=32
382960 Off ch=13 n=65 v=64
382960 Off ch=13 n=89 v=64
382960 Off ch=13 n=77 v=64
382980 On ch=13 n=89 v=27
382980 On ch=13 n=65 v=27
382980 On ch=13 n=77 v=27
383020 Off ch=13 n=63 v=64
383020 Off ch=13 n=75 v=64
383020 Off ch=13 n=87 v=64
383040 On ch=13 n=63 v=32
383040 On ch=13 n=75 v=32
383040 On ch=13 n=87 v=32
383080 Off ch=13 n=89 v=64
383080 Off ch=13 n=65 v=64
383080 Off ch=13 n=77 v=64
383100 On ch=13 n=65 v=27
383100 On ch=13 n=89 v=27
383100 On ch=13 n=77 v=27
383140 Off ch=13 n=63 v=64
383140 Off ch=13 n=75 v=64
383140 Off ch=13 n=87 v=64
383160 On ch=13 n=63 v=32
383160 On ch=13 n=87 v=32
383160 On ch=13 n=75 v=32
383200 Off ch=13 n=65 v=64
383200 Off ch=13 n=89 v=64
383200 Off ch=13 n=77 v=64
383220 On ch=13 n=65 v=27
383220 On ch=13 n=89 v=27
383220 On ch=13 n=77 v=27
383260 Off ch=13 n=63 v=64
383260 Off ch=13 n=87 v=64
383260 Off ch=13 n=75 v=64
383280 On ch=13 n=63 v=32
383280 On ch=13 n=87 v=32
383280 On ch=13 n=75 v=32
383320 Off ch=13 n=65 v=64
383320 Off ch=13 n=89 v=64
383320 Off ch=13 n=77 v=64
383340 On ch=13 n=65 v=27
383340 On ch=13 n=89 v=27
383340 On ch=13 n=77 v=27
383380 Off ch=13 n=63 v=64
383380 Off ch=13 n=87 v=64
383380 Off ch=13 n=75 v=64
383400 On ch=13 n=63 v=32
383400 On ch=13 n=75 v=32
383400 On ch=13 n=87 v=32
383440 Off ch=13 n=65 v=64
383440 Off ch=13 n=89 v=64
383440 Off ch=13 n=77 v=64
383460 On ch=13 n=77 v=27
383460 On ch=13 n=65 v=27
383460 On ch=13 n=89 v=27
383500 Off ch=13 n=63 v=64
383500 Off ch=13 n=75 v=64
383500 Off ch=13 n=87 v=64
383520 On ch=13 n=63 v=32
383520 On ch=13 n=75 v=32
383520 On ch=13 n=87 v=32
383560 Off ch=13 n=77 v=64
383560 Off ch=13 n=65 v=64
383560 Off ch=13 n=89 v=64
383580 On ch=13 n=89 v=27
383580 On ch=13 n=65 v=27
383580 On ch=13 n=77 v=27
383620 Off ch=13 n=63 v=64
383620 Off ch=13 n=75 v=64
383620 Off ch=13 n=87 v=64
383640 On ch=13 n=63 v=32
383640 On ch=13 n=87 v=32
383640 On ch=13 n=75 v=32
383680 Off ch=13 n=89 v=64
383680 Off ch=13 n=65 v=64
383680 Off ch=13 n=77 v=64
383700 On ch=13 n=77 v=27
383700 On ch=13 n=65 v=27
383700 On ch=13 n=89 v=27
383740 Off ch=13 n=63 v=64
383740 Off ch=13 n=87 v=64
383740 Off ch=13 n=75 v=64
383760 On ch=13 n=63 v=32
383760 On ch=13 n=75 v=32
383760 On ch=13 n=87 v=32
383800 Off ch=13 n=77 v=64
383800 Off ch=13 n=65 v=64
383800 Off ch=13 n=89 v=64
383820 On ch=13 n=89 v=27
383820 On ch=13 n=65 v=27
383820 On ch=13 n=77 v=27
383860 Off ch=13 n=63 v=64
383860 Off ch=13 n=75 v=64
383860 Off ch=13 n=87 v=64
383880 On ch=13 n=63 v=32
383880 On ch=13 n=75 v=32
383880 On ch=13 n=87 v=32
383920 Off ch=13 n=89 v=64
383920 Off ch=13 n=65 v=64
383920 Off ch=13 n=77 v=64
383940 On ch=13 n=89 v=27
383940 On ch=13 n=65 v=27
383940 On ch=13 n=77 v=27
383980 Off ch=13 n=63 v=64
383980 Off ch=13 n=75 v=64
383980 Off ch=13 n=87 v=64
384000 On ch=13 n=63 v=32
384000 On ch=13 n=75 v=32
384000 On ch=13 n=87 v=32
384040 Off ch=13 n=89 v=64
384040 Off ch=13 n=65 v=64
384040 Off ch=13 n=77 v=64
384060 On ch=13 n=65 v=27
384060 On ch=13 n=77 v=27
384060 On ch=13 n=89 v=27
384100 Off ch=13 n=63 v=64
384100 Off ch=13 n=75 v=64
384100 Off ch=13 n=87 v=64
384120 On ch=13 n=63 v=32
384120 On ch=13 n=75 v=32
384120 On ch=13 n=87 v=32
384160 Off ch=13 n=65 v=64
384160 Off ch=13 n=77 v=64
384160 Off ch=13 n=89 v=64
384180 On ch=13 n=65 v=27
384180 On ch=13 n=89 v=27
384180 On ch=13 n=77 v=27
384220 Off ch=13 n=63 v=64
384220 Off ch=13 n=75 v=64
384220 Off ch=13 n=87 v=64
384240 On ch=13 n=63 v=32
384240 On ch=13 n=75 v=32
384240 On ch=13 n=87 v=32
384280 Off ch=13 n=65 v=64
384280 Off ch=13 n=89 v=64
384280 Off ch=13 n=77 v=64
384300 On ch=13 n=89 v=27
384300 On ch=13 n=65 v=27
384300 On ch=13 n=77 v=27
384340 Off ch=13 n=63 v=64
384340 Off ch=13 n=75 v=64
384340 Off ch=13 n=87 v=64
384360 On ch=13 n=75 v=32
384360 On ch=13 n=63 v=32
384360 On ch=13 n=87 v=32
384400 Off ch=13 n=89 v=64
384400 Off ch=13 n=65 v=64
384400 Off ch=13 n=77 v=64
384420 On ch=13 n=65 v=27
384420 On ch=13 n=89 v=27
384420 On ch=13 n=77 v=27
384460 Off ch=13 n=75 v=64
384460 Off ch=13 n=63 v=64
384460 Off ch=13 n=87 v=64
384480 On ch=13 n=63 v=32
384480 On ch=13 n=75 v=32
384480 On ch=13 n=87 v=32
384520 Off ch=13 n=65 v=64
384520 Off ch=13 n=89 v=64
384520 Off ch=13 n=77 v=64
384540 On ch=13 n=89 v=27
384540 On ch=13 n=65 v=27
384540 On ch=13 n=77 v=27
384580 Off ch=13 n=63 v=64
384580 Off ch=13 n=75 v=64
384580 Off ch=13 n=87 v=64
384600 On ch=13 n=63 v=32
384600 On ch=13 n=75 v=32
384600 On ch=13 n=87 v=32
384640 Off ch=13 n=89 v=64
384640 Off ch=13 n=65 v=64
384640 Off ch=13 n=77 v=64
384660 On ch=13 n=89 v=27
384660 On ch=13 n=77 v=27
384660 On ch=13 n=65 v=27
384700 Off ch=13 n=63 v=64
384700 Off ch=13 n=75 v=64
384700 Off ch=13 n=87 v=64
384720 On ch=13 n=63 v=32
384720 On ch=13 n=75 v=32
384720 On ch=13 n=87 v=32
384760 Off ch=13 n=89 v=64
384760 Off ch=13 n=77 v=64
384760 Off ch=13 n=65 v=64
384780 On ch=13 n=65 v=27
384780 On ch=13 n=89 v=27
384780 On ch=13 n=77 v=27
384820 Off ch=13 n=63 v=64
384820 Off ch=13 n=75 v=64
384820 Off ch=13 n=87 v=64
384840 On ch=13 n=63 v=32
384840 On ch=13 n=75 v=32
384840 On ch=13 n=87 v=32
384880 Off ch=13 n=65 v=64
384880 Off ch=13 n=89 v=64
384880 Off ch=13 n=77 v=64
384900 On ch=13 n=89 v=27
384900 On ch=13 n=65 v=27
384900 On ch=13 n=77 v=27
384940 Off ch=13 n=63 v=64
384940 Off ch=13 n=75 v=64
384940 Off ch=13 n=87 v=64
384960 On ch=13 n=63 v=32
384960 On ch=13 n=75 v=32
384960 On ch=13 n=87 v=32
385000 Off ch=13 n=89 v=64
385000 Off ch=13 n=65 v=64
385000 Off ch=13 n=77 v=64
385020 On ch=13 n=65 v=27
385020 On ch=13 n=89 v=27
385020 On ch=13 n=77 v=27
385060 Off ch=13 n=63 v=64
385060 Off ch=13 n=75 v=64
385060 Off ch=13 n=87 v=64
385080 On ch=13 n=63 v=32
385080 On ch=13 n=87 v=32
385080 On ch=13 n=75 v=32
385120 Off ch=13 n=65 v=64
385120 Off ch=13 n=89 v=64
385120 Off ch=13 n=77 v=64
385140 On ch=13 n=65 v=27
385140 On ch=13 n=89 v=27
385140 On ch=13 n=77 v=27
385180 Off ch=13 n=63 v=64
385180 Off ch=13 n=87 v=64
385180 Off ch=13 n=75 v=64
385200 On ch=13 n=63 v=32
385200 On ch=13 n=87 v=32
385200 On ch=13 n=75 v=32
385240 Off ch=13 n=65 v=64
385240 Off ch=13 n=89 v=64
385240 Off ch=13 n=77 v=64
385260 On ch=13 n=65 v=27
385260 On ch=13 n=89 v=27
385260 On ch=13 n=77 v=27
385300 Off ch=13 n=63 v=64
385300 Off ch=13 n=87 v=64
385300 Off ch=13 n=75 v=64
385320 On ch=13 n=63 v=32
385320 On ch=13 n=75 v=32
385320 On ch=13 n=87 v=32
385360 Off ch=13 n=65 v=64
385360 Off ch=13 n=89 v=64
385360 Off ch=13 n=77 v=64
385380 On ch=13 n=77 v=27
385380 On ch=13 n=65 v=27
385380 On ch=13 n=89 v=27
385420 Off ch=13 n=63 v=64
385420 Off ch=13 n=75 v=64
385420 Off ch=13 n=87 v=64
385440 On ch=13 n=63 v=32
385440 On ch=13 n=75 v=32
385440 On ch=13 n=87 v=32
385480 Off ch=13 n=77 v=64
385480 Off ch=13 n=65 v=64
385480 Off ch=13 n=89 v=64
385500 On ch=13 n=89 v=27
385500 On ch=13 n=65 v=27
385500 On ch=13 n=77 v=27
385540 Off ch=13 n=63 v=64
385540 Off ch=13 n=75 v=64
385540 Off ch=13 n=87 v=64
385560 On ch=13 n=63 v=32
385560 On ch=13 n=87 v=32
385560 On ch=13 n=75 v=32
385600 Off ch=13 n=89 v=64
385600 Off ch=13 n=65 v=64
385600 Off ch=13 n=77 v=64
385620 On ch=13 n=77 v=27
385620 On ch=13 n=65 v=27
385620 On ch=13 n=89 v=27
385660 Off ch=13 n=63 v=64
385660 Off ch=13 n=87 v=64
385660 Off ch=13 n=75 v=64
385680 On ch=13 n=63 v=32
385680 On ch=13 n=75 v=32
385680 On ch=13 n=87 v=32
385720 Off ch=13 n=77 v=64
385720 Off ch=13 n=65 v=64
385720 Off ch=13 n=89 v=64
385740 On ch=13 n=89 v=27
385740 On ch=13 n=65 v=27
385740 On ch=13 n=77 v=27
385780 Off ch=13 n=63 v=64
385780 Off ch=13 n=75 v=64
385780 Off ch=13 n=87 v=64
385800 On ch=13 n=63 v=32
385800 On ch=13 n=75 v=32
385800 On ch=13 n=87 v=32
385840 Off ch=13 n=89 v=64
385840 Off ch=13 n=65 v=64
385840 Off ch=13 n=77 v=64
385860 On ch=13 n=89 v=27
385860 On ch=13 n=65 v=27
385860 On ch=13 n=77 v=27
385900 Off ch=13 n=63 v=64
385900 Off ch=13 n=75 v=64
385900 Off ch=13 n=87 v=64
385920 On ch=13 n=63 v=32
385920 On ch=13 n=75 v=32
385920 On ch=13 n=87 v=32
385960 Off ch=13 n=89 v=64
385960 Off ch=13 n=65 v=64
385960 Off ch=13 n=77 v=64
385980 On ch=13 n=65 v=27
385980 On ch=13 n=77 v=27
385980 On ch=13 n=89 v=27
386020 Off ch=13 n=63 v=64
386020 Off ch=13 n=75 v=64
386020 Off ch=13 n=87 v=64
386040 On ch=13 n=63 v=32
386040 On ch=13 n=75 v=32
386040 On ch=13 n=87 v=32
386080 Off ch=13 n=65 v=64
386080 Off ch=13 n=77 v=64
386080 Off ch=13 n=89 v=64
386100 On ch=13 n=65 v=27
386100 On ch=13 n=89 v=27
386100 On ch=13 n=77 v=27
386140 Off ch=13 n=63 v=64
386140 Off ch=13 n=75 v=64
386140 Off ch=13 n=87 v=64
386160 On ch=13 n=63 v=32
386160 On ch=13 n=75 v=32
386160 On ch=13 n=87 v=32
386200 Off ch=13 n=65 v=64
386200 Off ch=13 n=89 v=64
386200 Off ch=13 n=77 v=64
386220 On ch=13 n=89 v=27
386220 On ch=13 n=65 v=27
386220 On ch=13 n=77 v=27
386260 Off ch=13 n=63 v=64
386260 Off ch=13 n=75 v=64
386260 Off ch=13 n=87 v=64
386280 On ch=13 n=75 v=32
386280 On ch=13 n=63 v=32
386280 On ch=13 n=87 v=32
386320 Off ch=13 n=89 v=64
386320 Off ch=13 n=65 v=64
386320 Off ch=13 n=77 v=64
386340 On ch=13 n=65 v=27
386340 On ch=13 n=89 v=27
386340 On ch=13 n=77 v=27
386380 Off ch=13 n=75 v=64
386380 Off ch=13 n=63 v=64
386380 Off ch=13 n=87 v=64
386400 On ch=13 n=63 v=32
386400 On ch=13 n=75 v=32
386400 On ch=13 n=87 v=32
386440 Off ch=13 n=65 v=64
386440 Off ch=13 n=89 v=64
386440 Off ch=13 n=77 v=64
386460 On ch=13 n=89 v=27
386460 On ch=13 n=65 v=27
386460 On ch=13 n=77 v=27
386500 Off ch=13 n=63 v=64
386500 Off ch=13 n=75 v=64
386500 Off ch=13 n=87 v=64
386520 On ch=13 n=63 v=32
386520 On ch=13 n=75 v=32
386520 On ch=13 n=87 v=32
386560 Off ch=13 n=89 v=64
386560 Off ch=13 n=65 v=64
386560 Off ch=13 n=77 v=64
386580 On ch=13 n=89 v=27
386580 On ch=13 n=77 v=27
386580 On ch=13 n=65 v=27
386620 Off ch=13 n=63 v=64
386620 Off ch=13 n=75 v=64
386620 Off ch=13 n=87 v=64
386640 On ch=13 n=63 v=32
386640 On ch=13 n=75 v=32
386640 On ch=13 n=87 v=32
386680 Off ch=13 n=89 v=64
386680 Off ch=13 n=77 v=64
386680 Off ch=13 n=65 v=64
386700 On ch=13 n=65 v=27
386700 On ch=13 n=89 v=27
386700 On ch=13 n=77 v=27
386740 Off ch=13 n=63 v=64
386740 Off ch=13 n=75 v=64
386740 Off ch=13 n=87 v=64
386760 On ch=13 n=63 v=32
386760 On ch=13 n=75 v=32
386760 On ch=13 n=87 v=32
386800 Off ch=13 n=65 v=64
386800 Off ch=13 n=89 v=64
386800 Off ch=13 n=77 v=64
386820 On ch=13 n=89 v=27
386820 On ch=13 n=65 v=27
386820 On ch=13 n=77 v=27
386860 Off ch=13 n=63 v=64
386860 Off ch=13 n=75 v=64
386860 Off ch=13 n=87 v=64
386880 On ch=13 n=63 v=32
386880 On ch=13 n=75 v=32
386880 On ch=13 n=87 v=32
386920 Off ch=13 n=89 v=64
386920 Off ch=13 n=65 v=64
386920 Off ch=13 n=77 v=64
386940 On ch=13 n=65 v=27
386940 On ch=13 n=89 v=27
386940 On ch=13 n=77 v=27
386980 Off ch=13 n=63 v=64
386980 Off ch=13 n=75 v=64
386980 Off ch=13 n=87 v=64
387000 On ch=13 n=63 v=32
387000 On ch=13 n=87 v=32
387000 On ch=13 n=75 v=32
387040 Off ch=13 n=65 v=64
387040 Off ch=13 n=89 v=64
387040 Off ch=13 n=77 v=64
387060 On ch=13 n=65 v=27
387060 On ch=13 n=89 v=27
387060 On ch=13 n=77 v=27
387100 Off ch=13 n=63 v=64
387100 Off ch=13 n=87 v=64
387100 Off ch=13 n=75 v=64
387120 On ch=13 n=63 v=32
387120 On ch=13 n=87 v=32
387120 On ch=13 n=75 v=32
387160 Off ch=13 n=65 v=64
387160 Off ch=13 n=89 v=64
387160 Off ch=13 n=77 v=64
387180 On ch=13 n=65 v=27
387180 On ch=13 n=89 v=27
387180 On ch=13 n=77 v=27
387220 Off ch=13 n=63 v=64
387220 Off ch=13 n=87 v=64
387220 Off ch=13 n=75 v=64
387240 On ch=13 n=63 v=32
387240 On ch=13 n=75 v=32
387240 On ch=13 n=87 v=32
387280 Off ch=13 n=65 v=64
387280 Off ch=13 n=89 v=64
387280 Off ch=13 n=77 v=64
387300 On ch=13 n=77 v=27
387300 On ch=13 n=65 v=27
387300 On ch=13 n=89 v=27
387340 Off ch=13 n=63 v=64
387340 Off ch=13 n=75 v=64
387340 Off ch=13 n=87 v=64
387360 On ch=13 n=63 v=32
387360 On ch=13 n=75 v=32
387360 On ch=13 n=87 v=32
387400 Off ch=13 n=77 v=64
387400 Off ch=13 n=65 v=64
387400 Off ch=13 n=89 v=64
387420 On ch=13 n=89 v=27
387420 On ch=13 n=65 v=27
387420 On ch=13 n=77 v=27
387460 Off ch=13 n=63 v=64
387460 Off ch=13 n=75 v=64
387460 Off ch=13 n=87 v=64
387480 On ch=13 n=63 v=32
387480 On ch=13 n=87 v=32
387480 On ch=13 n=75 v=32
387520 Off ch=13 n=89 v=64
387520 Off ch=13 n=65 v=64
387520 Off ch=13 n=77 v=64
387540 On ch=13 n=77 v=27
387540 On ch=13 n=65 v=27
387540 On ch=13 n=89 v=27
387580 Off ch=13 n=63 v=64
387580 Off ch=13 n=87 v=64
387580 Off ch=13 n=75 v=64
387600 On ch=13 n=63 v=32
387600 On ch=13 n=75 v=32
387600 On ch=13 n=87 v=32
387640 Off ch=13 n=77 v=64
387640 Off ch=13 n=65 v=64
387640 Off ch=13 n=89 v=64
387660 On ch=13 n=89 v=27
387660 On ch=13 n=65 v=27
387660 On ch=13 n=77 v=27
387700 Off ch=13 n=63 v=64
387700 Off ch=13 n=75 v=64
387700 Off ch=13 n=87 v=64
387720 On ch=13 n=63 v=32
387720 On ch=13 n=75 v=32
387720 On ch=13 n=87 v=32
387760 Off ch=13 n=89 v=64
387760 Off ch=13 n=65 v=64
387760 Off ch=13 n=77 v=64
387780 On ch=13 n=89 v=27
387780 On ch=13 n=65 v=27
387780 On ch=13 n=77 v=27
387820 Off ch=13 n=63 v=64
387820 Off ch=13 n=75 v=64
387820 Off ch=13 n=87 v=64
387840 On ch=13 n=63 v=32
387840 On ch=13 n=75 v=32
387840 On ch=13 n=87 v=32
387880 Off ch=13 n=89 v=64
387880 Off ch=13 n=65 v=64
387880 Off ch=13 n=77 v=64
387900 On ch=13 n=65 v=27
387900 On ch=13 n=77 v=27
387900 On ch=13 n=89 v=27
387940 Off ch=13 n=63 v=64
387940 Off ch=13 n=75 v=64
387940 Off ch=13 n=87 v=64
387960 On ch=13 n=63 v=32
387960 On ch=13 n=75 v=32
387960 On ch=13 n=87 v=32
388000 Off ch=13 n=65 v=64
388000 Off ch=13 n=77 v=64
388000 Off ch=13 n=89 v=64
388020 On ch=13 n=65 v=27
388020 On ch=13 n=89 v=27
388020 On ch=13 n=77 v=27
388060 Off ch=13 n=63 v=64
388060 Off ch=13 n=75 v=64
388060 Off ch=13 n=87 v=64
388080 On ch=13 n=63 v=32
388080 On ch=13 n=75 v=32
388080 On ch=13 n=87 v=32
388120 Off ch=13 n=65 v=64
388120 Off ch=13 n=89 v=64
388120 Off ch=13 n=77 v=64
388140 On ch=13 n=89 v=27
388140 On ch=13 n=65 v=27
388140 On ch=13 n=77 v=27
388180 Off ch=13 n=63 v=64
388180 Off ch=13 n=75 v=64
388180 Off ch=13 n=87 v=64
388200 On ch=13 n=75 v=32
388200 On ch=13 n=63 v=32
388200 On ch=13 n=87 v=32
388240 Off ch=13 n=89 v=64
388240 Off ch=13 n=65 v=64
388240 Off ch=13 n=77 v=64
388260 On ch=13 n=65 v=27
388260 On ch=13 n=89 v=27
388260 On ch=13 n=77 v=27
388300 Off ch=13 n=75 v=64
388300 Off ch=13 n=63 v=64
388300 Off ch=13 n=87 v=64
388320 On ch=13 n=63 v=32
388320 On ch=13 n=75 v=32
388320 On ch=13 n=87 v=32
388360 Off ch=13 n=65 v=64
388360 Off ch=13 n=89 v=64
388360 Off ch=13 n=77 v=64
388380 On ch=13 n=89 v=27
388380 On ch=13 n=65 v=27
388380 On ch=13 n=77 v=27
388420 Off ch=13 n=63 v=64
388420 Off ch=13 n=75 v=64
388420 Off ch=13 n=87 v=64
388440 On ch=13 n=63 v=32
388440 On ch=13 n=75 v=32
388440 On ch=13 n=87 v=32
388480 Off ch=13 n=89 v=64
388480 Off ch=13 n=65 v=64
388480 Off ch=13 n=77 v=64
388500 On ch=13 n=89 v=27
388500 On ch=13 n=77 v=27
388500 On ch=13 n=65 v=27
388540 Off ch=13 n=63 v=64
388540 Off ch=13 n=75 v=64
388540 Off ch=13 n=87 v=64
388560 On ch=13 n=63 v=32
388560 On ch=13 n=75 v=32
388560 On ch=13 n=87 v=32
388600 Off ch=13 n=89 v=64
388600 Off ch=13 n=77 v=64
388600 Off ch=13 n=65 v=64
388620 On ch=13 n=65 v=27
388620 On ch=13 n=89 v=27
388620 On ch=13 n=77 v=27
388660 Off ch=13 n=63 v=64
388660 Off ch=13 n=75 v=64
388660 Off ch=13 n=87 v=64
388680 On ch=13 n=63 v=32
388680 On ch=13 n=75 v=32
388680 On ch=13 n=87 v=32
388720 Off ch=13 n=65 v=64
388720 Off ch=13 n=89 v=64
388720 Off ch=13 n=77 v=64
388740 On ch=13 n=89 v=27
388740 On ch=13 n=65 v=27
388740 On ch=13 n=77 v=27
388780 Off ch=13 n=63 v=64
388780 Off ch=13 n=75 v=64
388780 Off ch=13 n=87 v=64
388800 On ch=13 n=63 v=32
388800 On ch=13 n=75 v=32
388800 On ch=13 n=87 v=32
388840 Off ch=13 n=89 v=64
388840 Off ch=13 n=65 v=64
388840 Off ch=13 n=77 v=64
388860 On ch=13 n=65 v=27
388860 On ch=13 n=89 v=27
388860 On ch=13 n=77 v=27
388900 Off ch=13 n=63 v=64
388900 Off ch=13 n=75 v=64
388900 Off ch=13 n=87 v=64
388920 On ch=13 n=63 v=32
388920 On ch=13 n=87 v=32
388920 On ch=13 n=75 v=32
388960 Off ch=13 n=65 v=64
388960 Off ch=13 n=89 v=64
388960 Off ch=13 n=77 v=64
388980 On ch=13 n=65 v=27
388980 On ch=13 n=89 v=27
388980 On ch=13 n=77 v=27
389020 Off ch=13 n=63 v=64
389020 Off ch=13 n=87 v=64
389020 Off ch=13 n=75 v=64
389040 On ch=13 n=63 v=32
389040 On ch=13 n=87 v=32
389040 On ch=13 n=75 v=32
389080 Off ch=13 n=65 v=64
389080 Off ch=13 n=89 v=64
389080 Off ch=13 n=77 v=64
389100 On ch=13 n=65 v=27
389100 On ch=13 n=89 v=27
389100 On ch=13 n=77 v=27
389140 Off ch=13 n=63 v=64
389140 Off ch=13 n=87 v=64
389140 Off ch=13 n=75 v=64
389160 On ch=13 n=63 v=32
389160 On ch=13 n=75 v=32
389160 On ch=13 n=87 v=32
389200 Off ch=13 n=65 v=64
389200 Off ch=13 n=89 v=64
389200 Off ch=13 n=77 v=64
389220 On ch=13 n=77 v=27
389220 On ch=13 n=65 v=27
389220 On ch=13 n=89 v=27
389260 Off ch=13 n=63 v=64
389260 Off ch=13 n=75 v=64
389260 Off ch=13 n=87 v=64
389280 On ch=13 n=63 v=32
389280 On ch=13 n=75 v=32
389280 On ch=13 n=87 v=32
389320 Off ch=13 n=77 v=64
389320 Off ch=13 n=65 v=64
389320 Off ch=13 n=89 v=64
389340 On ch=13 n=89 v=27
389340 On ch=13 n=65 v=27
389340 On ch=13 n=77 v=27
389380 Off ch=13 n=63 v=64
389380 Off ch=13 n=75 v=64
389380 Off ch=13 n=87 v=64
389400 On ch=13 n=63 v=32
389400 On ch=13 n=87 v=32
389400 On ch=13 n=75 v=32
389440 Off ch=13 n=89 v=64
389440 Off ch=13 n=65 v=64
389440 Off ch=13 n=77 v=64
389460 On ch=13 n=77 v=27
389460 On ch=13 n=65 v=27
389460 On ch=13 n=89 v=27
389500 Off ch=13 n=63 v=64
389500 Off ch=13 n=87 v=64
389500 Off ch=13 n=75 v=64
389520 On ch=13 n=63 v=32
389520 On ch=13 n=75 v=32
389520 On ch=13 n=87 v=32
389560 Off ch=13 n=77 v=64
389560 Off ch=13 n=65 v=64
389560 Off ch=13 n=89 v=64
389580 On ch=13 n=89 v=27
389580 On ch=13 n=65 v=27
389580 On ch=13 n=77 v=27
389620 Off ch=13 n=63 v=64
389620 Off ch=13 n=75 v=64
389620 Off ch=13 n=87 v=64
389640 On ch=13 n=63 v=32
389640 On ch=13 n=75 v=32
389640 On ch=13 n=87 v=32
389680 Off ch=13 n=89 v=64
389680 Off ch=13 n=65 v=64
389680 Off ch=13 n=77 v=64
389700 On ch=13 n=89 v=27
389700 On ch=13 n=65 v=27
389700 On ch=13 n=77 v=27
389740 Off ch=13 n=63 v=64
389740 Off ch=13 n=75 v=64
389740 Off ch=13 n=87 v=64
389760 On ch=13 n=63 v=32
389760 On ch=13 n=75 v=32
389760 On ch=13 n=87 v=32
389800 Off ch=13 n=89 v=64
389800 Off ch=13 n=65 v=64
389800 Off ch=13 n=77 v=64
389820 On ch=13 n=65 v=27
389820 On ch=13 n=77 v=27
389820 On ch=13 n=89 v=27
389860 Off ch=13 n=63 v=64
389860 Off ch=13 n=75 v=64
389860 Off ch=13 n=87 v=64
389880 On ch=13 n=63 v=32
389880 On ch=13 n=75 v=32
389880 On ch=13 n=87 v=32
389920 Off ch=13 n=65 v=64
389920 Off ch=13 n=77 v=64
389920 Off ch=13 n=89 v=64
389940 On ch=13 n=65 v=27
389940 On ch=13 n=89 v=27
389940 On ch=13 n=77 v=27
389980 Off ch=13 n=63 v=64
389980 Off ch=13 n=75 v=64
389980 Off ch=13 n=87 v=64
390000 On ch=13 n=63 v=32
390000 On ch=13 n=75 v=32
390000 On ch=13 n=87 v=32
390040 Off ch=13 n=65 v=64
390040 Off ch=13 n=89 v=64
390040 Off ch=13 n=77 v=64
390060 On ch=13 n=89 v=27
390060 On ch=13 n=65 v=27
390060 On ch=13 n=77 v=27
390100 Off ch=13 n=63 v=64
390100 Off ch=13 n=75 v=64
390100 Off ch=13 n=87 v=64
390120 On ch=13 n=75 v=32
390120 On ch=13 n=63 v=32
390120 On ch=13 n=87 v=32
390160 Off ch=13 n=89 v=64
390160 Off ch=13 n=65 v=64
390160 Off ch=13 n=77 v=64
390180 On ch=13 n=65 v=27
390180 On ch=13 n=89 v=27
390180 On ch=13 n=77 v=27
390220 Off ch=13 n=75 v=64
390220 Off ch=13 n=63 v=64
390220 Off ch=13 n=87 v=64
390240 On ch=13 n=63 v=32
390240 On ch=13 n=75 v=32
390240 On ch=13 n=87 v=32
390280 Off ch=13 n=65 v=64
390280 Off ch=13 n=89 v=64
390280 Off ch=13 n=77 v=64
390300 On ch=13 n=89 v=27
390300 On ch=13 n=65 v=27
390300 On ch=13 n=77 v=27
390340 Off ch=13 n=63 v=64
390340 Off ch=13 n=75 v=64
390340 Off ch=13 n=87 v=64
390360 On ch=13 n=63 v=32
390360 On ch=13 n=75 v=32
390360 On ch=13 n=87 v=32
390400 Off ch=13 n=89 v=64
390400 Off ch=13 n=65 v=64
390400 Off ch=13 n=77 v=64
390420 On ch=13 n=89 v=27
390420 On ch=13 n=77 v=27
390420 On ch=13 n=65 v=27
390460 Off ch=13 n=63 v=64
390460 Off ch=13 n=75 v=64
390460 Off ch=13 n=87 v=64
390480 On ch=13 n=63 v=32
390480 On ch=13 n=75 v=32
390480 On ch=13 n=87 v=32
390520 Off ch=13 n=89 v=64
390520 Off ch=13 n=77 v=64
390520 Off ch=13 n=65 v=64
390540 On ch=13 n=65 v=27
390540 On ch=13 n=89 v=27
390540 On ch=13 n=77 v=27
390580 Off ch=13 n=63 v=64
390580 Off ch=13 n=75 v=64
390580 Off ch=13 n=87 v=64
390600 On ch=13 n=63 v=32
390600 On ch=13 n=75 v=32
390600 On ch=13 n=87 v=32
390640 Off ch=13 n=65 v=64
390640 Off ch=13 n=89 v=64
390640 Off ch=13 n=77 v=64
390660 On ch=13 n=89 v=27
390660 On ch=13 n=65 v=27
390660 On ch=13 n=77 v=27
390700 Off ch=13 n=63 v=64
390700 Off ch=13 n=75 v=64
390700 Off ch=13 n=87 v=64
390720 On ch=13 n=63 v=32
390720 On ch=13 n=75 v=32
390720 On ch=13 n=87 v=32
390760 Off ch=13 n=89 v=64
390760 Off ch=13 n=65 v=64
390760 Off ch=13 n=77 v=64
390780 On ch=13 n=65 v=27
390780 On ch=13 n=89 v=27
390780 On ch=13 n=77 v=27
390820 Off ch=13 n=63 v=64
390820 Off ch=13 n=75 v=64
390820 Off ch=13 n=87 v=64
390840 On ch=13 n=63 v=32
390840 On ch=13 n=87 v=32
390840 On ch=13 n=75 v=32
390880 Off ch=13 n=65 v=64
390880 Off ch=13 n=89 v=64
390880 Off ch=13 n=77 v=64
390900 On ch=13 n=65 v=27
390900 On ch=13 n=89 v=27
390900 On ch=13 n=77 v=27
390940 Off ch=13 n=63 v=64
390940 Off ch=13 n=87 v=64
390940 Off ch=13 n=75 v=64
390960 On ch=13 n=63 v=32
390960 On ch=13 n=87 v=32
390960 On ch=13 n=75 v=32
391000 Off ch=13 n=65 v=64
391000 Off ch=13 n=89 v=64
391000 Off ch=13 n=77 v=64
391020 On ch=13 n=65 v=27
391020 On ch=13 n=89 v=27
391020 On ch=13 n=77 v=27
391060 Off ch=13 n=63 v=64
391060 Off ch=13 n=87 v=64
391060 Off ch=13 n=75 v=64
391080 On ch=13 n=63 v=32
391080 On ch=13 n=75 v=32
391080 On ch=13 n=87 v=32
391120 Off ch=13 n=65 v=64
391120 Off ch=13 n=89 v=64
391120 Off ch=13 n=77 v=64
391140 On ch=13 n=77 v=27
391140 On ch=13 n=65 v=27
391140 On ch=13 n=89 v=27
391180 Off ch=13 n=63 v=64
391180 Off ch=13 n=75 v=64
391180 Off ch=13 n=87 v=64
391200 On ch=13 n=63 v=32
391200 On ch=13 n=75 v=32
391200 On ch=13 n=87 v=32
391240 Off ch=13 n=77 v=64
391240 Off ch=13 n=65 v=64
391240 Off ch=13 n=89 v=64
391260 On ch=13 n=89 v=27
391260 On ch=13 n=65 v=27
391260 On ch=13 n=77 v=27
391300 Off ch=13 n=63 v=64
391300 Off ch=13 n=75 v=64
391300 Off ch=13 n=87 v=64
391320 On ch=13 n=63 v=32
391320 On ch=13 n=87 v=32
391320 On ch=13 n=75 v=32
391360 Off ch=13 n=89 v=64
391360 Off ch=13 n=65 v=64
391360 Off ch=13 n=77 v=64
391380 On ch=13 n=77 v=27
391380 On ch=13 n=65 v=27
391380 On ch=13 n=89 v=27
391420 Off ch=13 n=63 v=64
391420 Off ch=13 n=87 v=64
391420 Off ch=13 n=75 v=64
391440 On ch=13 n=63 v=32
391440 On ch=13 n=75 v=32
391440 On ch=13 n=87 v=32
391480 Off ch=13 n=77 v=64
391480 Off ch=13 n=65 v=64
391480 Off ch=13 n=89 v=64
391500 On ch=13 n=89 v=27
391500 On ch=13 n=65 v=27
391500 On ch=13 n=77 v=27
391540 Off ch=13 n=63 v=64
391540 Off ch=13 n=75 v=64
391540 Off ch=13 n=87 v=64
391560 On ch=13 n=63 v=32
391560 On ch=13 n=75 v=32
391560 On ch=13 n=87 v=32
391600 Off ch=13 n=89 v=64
391600 Off ch=13 n=65 v=64
391600 Off ch=13 n=77 v=64
391620 On ch=13 n=89 v=27
391620 On ch=13 n=65 v=27
391620 On ch=13 n=77 v=27
391660 Off ch=13 n=63 v=64
391660 Off ch=13 n=75 v=64
391660 Off ch=13 n=87 v=64
391680 On ch=13 n=63 v=32
391680 On ch=13 n=75 v=32
391680 On ch=13 n=87 v=32
391720 Off ch=13 n=89 v=64
391720 Off ch=13 n=65 v=64
391720 Off ch=13 n=77 v=64
391740 On ch=13 n=65 v=27
391740 On ch=13 n=77 v=27
391740 On ch=13 n=89 v=27
391780 Off ch=13 n=63 v=64
391780 Off ch=13 n=75 v=64
391780 Off ch=13 n=87 v=64
391800 On ch=13 n=63 v=32
391800 On ch=13 n=75 v=32
391800 On ch=13 n=87 v=32
391840 Off ch=13 n=65 v=64
391840 Off ch=13 n=77 v=64
391840 Off ch=13 n=89 v=64
391860 On ch=13 n=65 v=27
391860 On ch=13 n=89 v=27
391860 On ch=13 n=77 v=27
391900 Off ch=13 n=63 v=64
391900 Off ch=13 n=75 v=64
391900 Off ch=13 n=87 v=64
391920 On ch=13 n=63 v=32
391920 On ch=13 n=75 v=32
391920 On ch=13 n=87 v=32
391960 Off ch=13 n=65 v=64
391960 Off ch=13 n=89 v=64
391960 Off ch=13 n=77 v=64
391980 On ch=13 n=89 v=27
391980 On ch=13 n=65 v=27
391980 On ch=13 n=77 v=27
392020 Off ch=13 n=63 v=64
392020 Off ch=13 n=75 v=64
392020 Off ch=13 n=87 v=64
392040 On ch=13 n=75 v=32
392040 On ch=13 n=63 v=32
392040 On ch=13 n=87 v=32
392080 Off ch=13 n=89 v=64
392080 Off ch=13 n=65 v=64
392080 Off ch=13 n=77 v=64
392100 On ch=13 n=65 v=27
392100 On ch=13 n=89 v=27
392100 On ch=13 n=77 v=27
392140 Off ch=13 n=75 v=64
392140 Off ch=13 n=63 v=64
392140 Off ch=13 n=87 v=64
392160 On ch=13 n=63 v=32
392160 On ch=13 n=75 v=32
392160 On ch=13 n=87 v=32
392200 Off ch=13 n=65 v=64
392200 Off ch=13 n=89 v=64
392200 Off ch=13 n=77 v=64
392220 On ch=13 n=89 v=27
392220 On ch=13 n=65 v=27
392220 On ch=13 n=77 v=27
392260 Off ch=13 n=63 v=64
392260 Off ch=13 n=75 v=64
392260 Off ch=13 n=87 v=64
392280 On ch=13 n=63 v=32
392280 On ch=13 n=75 v=32
392280 On ch=13 n=87 v=32
392320 Off ch=13 n=89 v=64
392320 Off ch=13 n=65 v=64
392320 Off ch=13 n=77 v=64
392340 On ch=13 n=89 v=27
392340 On ch=13 n=77 v=27
392340 On ch=13 n=65 v=27
392380 Off ch=13 n=63 v=64
392380 Off ch=13 n=75 v=64
392380 Off ch=13 n=87 v=64
392400 On ch=13 n=63 v=32
392400 On ch=13 n=75 v=32
392400 On ch=13 n=87 v=32
392440 Off ch=13 n=89 v=64
392440 Off ch=13 n=77 v=64
392440 Off ch=13 n=65 v=64
392460 On ch=13 n=65 v=27
392460 On ch=13 n=89 v=27
392460 On ch=13 n=77 v=27
392500 Off ch=13 n=63 v=64
392500 Off ch=13 n=75 v=64
392500 Off ch=13 n=87 v=64
392520 On ch=13 n=63 v=32
392520 On ch=13 n=75 v=32
392520 On ch=13 n=87 v=32
392560 Off ch=13 n=65 v=64
392560 Off ch=13 n=89 v=64
392560 Off ch=13 n=77 v=64
392580 On ch=13 n=89 v=27
392580 On ch=13 n=65 v=27
392580 On ch=13 n=77 v=27
392620 Off ch=13 n=63 v=64
392620 Off ch=13 n=75 v=64
392620 Off ch=13 n=87 v=64
392640 On ch=13 n=63 v=32
392640 On ch=13 n=75 v=32
392640 On ch=13 n=87 v=32
392680 Off ch=13 n=89 v=64
392680 Off ch=13 n=65 v=64
392680 Off ch=13 n=77 v=64
392700 On ch=13 n=65 v=27
392700 On ch=13 n=89 v=27
392700 On ch=13 n=77 v=27
392740 Off ch=13 n=63 v=64
392740 Off ch=13 n=75 v=64
392740 Off ch=13 n=87 v=64
392760 On ch=13 n=63 v=32
392760 On ch=13 n=87 v=32
392760 On ch=13 n=75 v=32
392800 Off ch=13 n=65 v=64
392800 Off ch=13 n=89 v=64
392800 Off ch=13 n=77 v=64
392820 On ch=13 n=65 v=27
392820 On ch=13 n=89 v=27
392820 On ch=13 n=77 v=27
392860 Off ch=13 n=63 v=64
392860 Off ch=13 n=87 v=64
392860 Off ch=13 n=75 v=64
392880 On ch=13 n=63 v=32
392880 On ch=13 n=87 v=32
392880 On ch=13 n=75 v=32
392920 Off ch=13 n=65 v=64
392920 Off ch=13 n=89 v=64
392920 Off ch=13 n=77 v=64
392940 On ch=13 n=65 v=27
392940 On ch=13 n=89 v=27
392940 On ch=13 n=77 v=27
392980 Off ch=13 n=63 v=64
392980 Off ch=13 n=87 v=64
392980 Off ch=13 n=75 v=64
393000 On ch=13 n=63 v=32
393000 On ch=13 n=75 v=32
393000 On ch=13 n=87 v=32
393040 Off ch=13 n=65 v=64
393040 Off ch=13 n=89 v=64
393040 Off ch=13 n=77 v=64
393060 On ch=13 n=77 v=27
393060 On ch=13 n=65 v=27
393060 On ch=13 n=89 v=27
393100 Off ch=13 n=63 v=64
393100 Off ch=13 n=75 v=64
393100 Off ch=13 n=87 v=64
393120 On ch=13 n=63 v=32
393120 On ch=13 n=75 v=32
393120 On ch=13 n=87 v=32
393160 Off ch=13 n=77 v=64
393160 Off ch=13 n=65 v=64
393160 Off ch=13 n=89 v=64
393180 On ch=13 n=89 v=27
393180 On ch=13 n=65 v=27
393180 On ch=13 n=77 v=27
393220 Off ch=13 n=63 v=64
393220 Off ch=13 n=75 v=64
393220 Off ch=13 n=87 v=64
393240 On ch=13 n=63 v=32
393240 On ch=13 n=87 v=32
393240 On ch=13 n=75 v=32
393280 Off ch=13 n=89 v=64
393280 Off ch=13 n=65 v=64
393280 Off ch=13 n=77 v=64
393300 On ch=13 n=77 v=27
393300 On ch=13 n=65 v=27
393300 On ch=13 n=89 v=27
393340 Off ch=13 n=63 v=64
393340 Off ch=13 n=87 v=64
393340 Off ch=13 n=75 v=64
393360 On ch=13 n=63 v=32
393360 On ch=13 n=75 v=32
393360 On ch=13 n=87 v=32
393400 Off ch=13 n=77 v=64
393400 Off ch=13 n=65 v=64
393400 Off ch=13 n=89 v=64
393420 On ch=13 n=89 v=27
393420 On ch=13 n=65 v=27
393420 On ch=13 n=77 v=27
393460 Off ch=13 n=63 v=64
393460 Off ch=13 n=75 v=64
393460 Off ch=13 n=87 v=64
393480 On ch=13 n=63 v=32
393480 On ch=13 n=75 v=32
393480 On ch=13 n=87 v=32
393520 Off ch=13 n=89 v=64
393520 Off ch=13 n=65 v=64
393520 Off ch=13 n=77 v=64
393540 On ch=13 n=89 v=27
393540 On ch=13 n=65 v=27
393540 On ch=13 n=77 v=27
393580 Off ch=13 n=63 v=64
393580 Off ch=13 n=75 v=64
393580 Off ch=13 n=87 v=64
393600 On ch=13 n=63 v=32
393600 On ch=13 n=75 v=32
393600 On ch=13 n=87 v=32
393640 Off ch=13 n=89 v=64
393640 Off ch=13 n=65 v=64
393640 Off ch=13 n=77 v=64
393660 On ch=13 n=65 v=27
393660 On ch=13 n=77 v=27
393660 On ch=13 n=89 v=27
393700 Off ch=13 n=63 v=64
393700 Off ch=13 n=75 v=64
393700 Off ch=13 n=87 v=64
393720 On ch=13 n=63 v=32
393720 On ch=13 n=75 v=32
393720 On ch=13 n=87 v=32
393760 Off ch=13 n=65 v=64
393760 Off ch=13 n=77 v=64
393760 Off ch=13 n=89 v=64
393780 On ch=13 n=65 v=27
393780 On ch=13 n=89 v=27
393780 On ch=13 n=77 v=27
393820 Off ch=13 n=63 v=64
393820 Off ch=13 n=75 v=64
393820 Off ch=13 n=87 v=64
393840 On ch=13 n=63 v=32
393840 On ch=13 n=75 v=32
393840 On ch=13 n=87 v=32
393880 Off ch=13 n=65 v=64
393880 Off ch=13 n=89 v=64
393880 Off ch=13 n=77 v=64
393900 On ch=13 n=89 v=27
393900 On ch=13 n=65 v=27
393900 On ch=13 n=77 v=27
393940 Off ch=13 n=63 v=64
393940 Off ch=13 n=75 v=64
393940 Off ch=13 n=87 v=64
393960 On ch=13 n=75 v=32
393960 On ch=13 n=63 v=32
393960 On ch=13 n=87 v=32
394000 Off ch=13 n=89 v=64
394000 Off ch=13 n=65 v=64
394000 Off ch=13 n=77 v=64
394020 On ch=13 n=65 v=27
394020 On ch=13 n=89 v=27
394020 On ch=13 n=77 v=27
394060 Off ch=13 n=75 v=64
394060 Off ch=13 n=63 v=64
394060 Off ch=13 n=87 v=64
394080 On ch=13 n=63 v=32
394080 On ch=13 n=75 v=32
394080 On ch=13 n=87 v=32
394120 Off ch=13 n=65 v=64
394120 Off ch=13 n=89 v=64
394120 Off ch=13 n=77 v=64
394140 On ch=13 n=89 v=27
394140 On ch=13 n=65 v=27
394140 On ch=13 n=77 v=27
394180 Off ch=13 n=63 v=64
394180 Off ch=13 n=75 v=64
394180 Off ch=13 n=87 v=64
394200 On ch=13 n=63 v=32
394200 On ch=13 n=75 v=32
394200 On ch=13 n=87 v=32
394240 Off ch=13 n=89 v=64
394240 Off ch=13 n=65 v=64
394240 Off ch=13 n=77 v=64
394260 On ch=13 n=89 v=27
394260 On ch=13 n=77 v=27
394260 On ch=13 n=65 v=27
394300 Off ch=13 n=63 v=64
394300 Off ch=13 n=75 v=64
394300 Off ch=13 n=87 v=64
394320 On ch=13 n=63 v=32
394320 On ch=13 n=75 v=32
394320 On ch=13 n=87 v=32
394360 Off ch=13 n=89 v=64
394360 Off ch=13 n=77 v=64
394360 Off ch=13 n=65 v=64
394380 On ch=13 n=65 v=27
394380 On ch=13 n=89 v=27
394380 On ch=13 n=77 v=27
394420 Off ch=13 n=63 v=64
394420 Off ch=13 n=75 v=64
394420 Off ch=13 n=87 v=64
394440 On ch=13 n=63 v=32
394440 On ch=13 n=75 v=32
394440 On ch=13 n=87 v=32
394480 Off ch=13 n=65 v=64
394480 Off ch=13 n=89 v=64
394480 Off ch=13 n=77 v=64
394500 On ch=13 n=89 v=27
394500 On ch=13 n=65 v=27
394500 On ch=13 n=77 v=27
394540 Off ch=13 n=63 v=64
394540 Off ch=13 n=75 v=64
394540 Off ch=13 n=87 v=64
394560 On ch=13 n=63 v=32
394560 On ch=13 n=75 v=32
394560 On ch=13 n=87 v=32
394600 Off ch=13 n=89 v=64
394600 Off ch=13 n=65 v=64
394600 Off ch=13 n=77 v=64
394620 On ch=13 n=65 v=27
394620 On ch=13 n=89 v=27
394620 On ch=13 n=77 v=27
394660 Off ch=13 n=63 v=64
394660 Off ch=13 n=75 v=64
394660 Off ch=13 n=87 v=64
394680 On ch=13 n=63 v=32
394680 On ch=13 n=87 v=32
394680 On ch=13 n=75 v=32
394720 Off ch=13 n=65 v=64
394720 Off ch=13 n=89 v=64
394720 Off ch=13 n=77 v=64
394740 On ch=13 n=65 v=27
394740 On ch=13 n=89 v=27
394740 On ch=13 n=77 v=27
394780 Off ch=13 n=63 v=64
394780 Off ch=13 n=87 v=64
394780 Off ch=13 n=75 v=64
394800 On ch=13 n=63 v=32
394800 On ch=13 n=87 v=32
394800 On ch=13 n=75 v=32
394840 Off ch=13 n=65 v=64
394840 Off ch=13 n=89 v=64
394840 Off ch=13 n=77 v=64
394860 On ch=13 n=65 v=27
394860 On ch=13 n=89 v=27
394860 On ch=13 n=77 v=27
394900 Off ch=13 n=63 v=64
394900 Off ch=13 n=87 v=64
394900 Off ch=13 n=75 v=64
394920 On ch=13 n=63 v=32
394920 On ch=13 n=75 v=32
394920 On ch=13 n=87 v=32
394960 Off ch=13 n=65 v=64
394960 Off ch=13 n=89 v=64
394960 Off ch=13 n=77 v=64
394980 On ch=13 n=77 v=27
394980 On ch=13 n=65 v=27
394980 On ch=13 n=89 v=27
395020 Off ch=13 n=63 v=64
395020 Off ch=13 n=75 v=64
395020 Off ch=13 n=87 v=64
395040 On ch=13 n=63 v=32
395040 On ch=13 n=75 v=32
395040 On ch=13 n=87 v=32
395080 Off ch=13 n=77 v=64
395080 Off ch=13 n=65 v=64
395080 Off ch=13 n=89 v=64
395100 On ch=13 n=89 v=27
395100 On ch=13 n=65 v=27
395100 On ch=13 n=77 v=27
395140 Off ch=13 n=63 v=64
395140 Off ch=13 n=75 v=64
395140 Off ch=13 n=87 v=64
395160 On ch=13 n=63 v=32
395160 On ch=13 n=87 v=32
395160 On ch=13 n=75 v=32
395200 Off ch=13 n=89 v=64
395200 Off ch=13 n=65 v=64
395200 Off ch=13 n=77 v=64
395220 On ch=13 n=77 v=27
395220 On ch=13 n=65 v=27
395220 On ch=13 n=89 v=27
395260 Off ch=13 n=63 v=64
395260 Off ch=13 n=87 v=64
395260 Off ch=13 n=75 v=64
395280 On ch=13 n=63 v=32
395280 On ch=13 n=75 v=32
395280 On ch=13 n=87 v=32
395320 Off ch=13 n=77 v=64
395320 Off ch=13 n=65 v=64
395320 Off ch=13 n=89 v=64
395340 On ch=13 n=89 v=27
395340 On ch=13 n=65 v=27
395340 On ch=13 n=77 v=27
395380 Off ch=13 n=63 v=64
395380 Off ch=13 n=75 v=64
395380 Off ch=13 n=87 v=64
395400 On ch=13 n=63 v=32
395400 On ch=13 n=75 v=32
395400 On ch=13 n=87 v=32
395440 Off ch=13 n=89 v=64
395440 Off ch=13 n=65 v=64
395440 Off ch=13 n=77 v=64
395460 On ch=13 n=89 v=27
395460 On ch=13 n=65 v=27
395460 On ch=13 n=77 v=27
395500 Off ch=13 n=63 v=64
395500 Off ch=13 n=75 v=64
395500 Off ch=13 n=87 v=64
395520 On ch=13 n=63 v=32
395520 On ch=13 n=75 v=32
395520 On ch=13 n=87 v=32
395560 Off ch=13 n=89 v=64
395560 Off ch=13 n=65 v=64
395560 Off ch=13 n=77 v=64
395580 On ch=13 n=65 v=27
395580 On ch=13 n=77 v=27
395580 On ch=13 n=89 v=27
395620 Off ch=13 n=63 v=64
395620 Off ch=13 n=75 v=64
395620 Off ch=13 n=87 v=64
395640 On ch=13 n=63 v=32
395640 On ch=13 n=75 v=32
395640 On ch=13 n=87 v=32
395680 Off ch=13 n=65 v=64
395680 Off ch=13 n=77 v=64
395680 Off ch=13 n=89 v=64
395700 On ch=13 n=65 v=27
395700 On ch=13 n=89 v=27
395700 On ch=13 n=77 v=27
395740 Off ch=13 n=63 v=64
395740 Off ch=13 n=75 v=64
395740 Off ch=13 n=87 v=64
395760 On ch=13 n=63 v=32
395760 On ch=13 n=75 v=32
395760 On ch=13 n=87 v=32
395800 Off ch=13 n=65 v=64
395800 Off ch=13 n=89 v=64
395800 Off ch=13 n=77 v=64
395820 On ch=13 n=89 v=27
395820 On ch=13 n=65 v=27
395820 On ch=13 n=77 v=27
395860 Off ch=13 n=63 v=64
395860 Off ch=13 n=75 v=64
395860 Off ch=13 n=87 v=64
395880 On ch=13 n=75 v=32
395880 On ch=13 n=63 v=32
395880 On ch=13 n=87 v=32
395920 Off ch=13 n=89 v=64
395920 Off ch=13 n=65 v=64
395920 Off ch=13 n=77 v=64
395940 On ch=13 n=65 v=27
395940 On ch=13 n=89 v=27
395940 On ch=13 n=77 v=27
395980 Off ch=13 n=75 v=64
395980 Off ch=13 n=63 v=64
395980 Off ch=13 n=87 v=64
396000 On ch=13 n=63 v=32
396000 On ch=13 n=75 v=32
396000 On ch=13 n=87 v=32
396040 Off ch=13 n=65 v=64
396040 Off ch=13 n=89 v=64
396040 Off ch=13 n=77 v=64
396060 On ch=13 n=89 v=27
396060 On ch=13 n=65 v=27
396060 On ch=13 n=77 v=27
396100 Off ch=13 n=63 v=64
396100 Off ch=13 n=75 v=64
396100 Off ch=13 n=87 v=64
396120 On ch=13 n=63 v=32
396120 On ch=13 n=75 v=32
396120 On ch=13 n=87 v=32
396160 Off ch=13 n=89 v=64
396160 Off ch=13 n=65 v=64
396160 Off ch=13 n=77 v=64
396180 On ch=13 n=89 v=27
396180 On ch=13 n=77 v=27
396180 On ch=13 n=65 v=27
396220 Off ch=13 n=63 v=64
396220 Off ch=13 n=75 v=64
396220 Off ch=13 n=87 v=64
396240 On ch=13 n=63 v=32
396240 On ch=13 n=75 v=32
396240 On ch=13 n=87 v=32
396280 Off ch=13 n=89 v=64
396280 Off ch=13 n=77 v=64
396280 Off ch=13 n=65 v=64
396300 On ch=13 n=65 v=27
396300 On ch=13 n=89 v=27
396300 On ch=13 n=77 v=27
396340 Off ch=13 n=63 v=64
396340 Off ch=13 n=75 v=64
396340 Off ch=13 n=87 v=64
396360 On ch=13 n=63 v=32
396360 On ch=13 n=75 v=32
396360 On ch=13 n=87 v=32
396400 Off ch=13 n=65 v=64
396400 Off ch=13 n=89 v=64
396400 Off ch=13 n=77 v=64
396420 On ch=13 n=89 v=27
396420 On ch=13 n=65 v=27
396420 On ch=13 n=77 v=27
396460 Off ch=13 n=63 v=64
396460 Off ch=13 n=75 v=64
396460 Off ch=13 n=87 v=64
396480 On ch=13 n=63 v=32
396480 On ch=13 n=75 v=32
396480 On ch=13 n=87 v=32
396520 Off ch=13 n=89 v=64
396520 Off ch=13 n=65 v=64
396520 Off ch=13 n=77 v=64
396540 On ch=13 n=65 v=27
396540 On ch=13 n=89 v=27
396540 On ch=13 n=77 v=27
396580 Off ch=13 n=63 v=64
396580 Off ch=13 n=75 v=64
396580 Off ch=13 n=87 v=64
396600 On ch=13 n=63 v=32
396600 On ch=13 n=87 v=32
396600 On ch=13 n=75 v=32
396640 Off ch=13 n=65 v=64
396640 Off ch=13 n=89 v=64
396640 Off ch=13 n=77 v=64
396660 On ch=13 n=65 v=27
396660 On ch=13 n=89 v=27
396660 On ch=13 n=77 v=27
396700 Off ch=13 n=63 v=64
396700 Off ch=13 n=87 v=64
396700 Off ch=13 n=75 v=64
396720 On ch=13 n=63 v=32
396720 On ch=13 n=87 v=32
396720 On ch=13 n=75 v=32
396760 Off ch=13 n=65 v=64
396760 Off ch=13 n=89 v=64
396760 Off ch=13 n=77 v=64
396780 On ch=13 n=65 v=27
396780 On ch=13 n=89 v=27
396780 On ch=13 n=77 v=27
396820 Off ch=13 n=63 v=64
396820 Off ch=13 n=87 v=64
396820 Off ch=13 n=75 v=64
396840 On ch=13 n=63 v=32
396840 On ch=13 n=75 v=32
396840 On ch=13 n=87 v=32
396880 Off ch=13 n=65 v=64
396880 Off ch=13 n=89 v=64
396880 Off ch=13 n=77 v=64
396900 On ch=13 n=77 v=27
396900 On ch=13 n=65 v=27
396900 On ch=13 n=89 v=27
396940 Off ch=13 n=63 v=64
396940 Off ch=13 n=75 v=64
396940 Off ch=13 n=87 v=64
396960 On ch=13 n=63 v=32
396960 On ch=13 n=75 v=32
396960 On ch=13 n=87 v=32
397000 Off ch=13 n=77 v=64
397000 Off ch=13 n=65 v=64
397000 Off ch=13 n=89 v=64
397020 On ch=13 n=89 v=27
397020 On ch=13 n=65 v=27
397020 On ch=13 n=77 v=27
397060 Off ch=13 n=63 v=64
397060 Off ch=13 n=75 v=64
397060 Off ch=13 n=87 v=64
397080 On ch=13 n=63 v=32
397080 On ch=13 n=87 v=32
397080 On ch=13 n=75 v=32
397120 Off ch=13 n=89 v=64
397120 Off ch=13 n=65 v=64
397120 Off ch=13 n=77 v=64
397140 On ch=13 n=77 v=27
397140 On ch=13 n=65 v=27
397140 On ch=13 n=89 v=27
397180 Off ch=13 n=63 v=64
397180 Off ch=13 n=87 v=64
397180 Off ch=13 n=75 v=64
397200 On ch=13 n=63 v=32
397200 On ch=13 n=75 v=32
397200 On ch=13 n=87 v=32
397240 Off ch=13 n=77 v=64
397240 Off ch=13 n=65 v=64
397240 Off ch=13 n=89 v=64
397260 On ch=13 n=89 v=27
397260 On ch=13 n=65 v=27
397260 On ch=13 n=77 v=27
397300 Off ch=13 n=63 v=64
397300 Off ch=13 n=75 v=64
397300 Off ch=13 n=87 v=64
397320 On ch=13 n=63 v=32
397320 On ch=13 n=75 v=32
397320 On ch=13 n=87 v=32
397360 Off ch=13 n=89 v=64
397360 Off ch=13 n=65 v=64
397360 Off ch=13 n=77 v=64
397380 On ch=13 n=89 v=27
397380 On ch=13 n=65 v=27
397380 On ch=13 n=77 v=27
397420 Off ch=13 n=63 v=64
397420 Off ch=13 n=75 v=64
397420 Off ch=13 n=87 v=64
397440 On ch=13 n=63 v=32
397440 On ch=13 n=75 v=32
397440 On ch=13 n=87 v=32
397480 Off ch=13 n=89 v=64
397480 Off ch=13 n=65 v=64
397480 Off ch=13 n=77 v=64
397500 On ch=13 n=65 v=27
397500 On ch=13 n=77 v=27
397500 On ch=13 n=89 v=27
397540 Off ch=13 n=63 v=64
397540 Off ch=13 n=75 v=64
397540 Off ch=13 n=87 v=64
397560 On ch=13 n=63 v=32
397560 On ch=13 n=75 v=32
397560 On ch=13 n=87 v=32
397600 Off ch=13 n=65 v=64
397600 Off ch=13 n=77 v=64
397600 Off ch=13 n=89 v=64
397620 On ch=13 n=65 v=27
397620 On ch=13 n=89 v=27
397620 On ch=13 n=77 v=27
397660 Off ch=13 n=63 v=64
397660 Off ch=13 n=75 v=64
397660 Off ch=13 n=87 v=64
397680 On ch=13 n=63 v=32
397680 On ch=13 n=75 v=32
397680 On ch=13 n=87 v=32
397720 Off ch=13 n=65 v=64
397720 Off ch=13 n=89 v=64
397720 Off ch=13 n=77 v=64
397740 On ch=13 n=89 v=27
397740 On ch=13 n=65 v=27
397740 On ch=13 n=77 v=27
397780 Off ch=13 n=63 v=64
397780 Off ch=13 n=75 v=64
397780 Off ch=13 n=87 v=64
397800 On ch=13 n=75 v=32
397800 On ch=13 n=63 v=32
397800 On ch=13 n=87 v=32
397840 Off ch=13 n=89 v=64
397840 Off ch=13 n=65 v=64
397840 Off ch=13 n=77 v=64
397860 On ch=13 n=65 v=27
397860 On ch=13 n=89 v=27
397860 On ch=13 n=77 v=27
397900 Off ch=13 n=75 v=64
397900 Off ch=13 n=63 v=64
397900 Off ch=13 n=87 v=64
397920 On ch=13 n=63 v=32
397920 On ch=13 n=75 v=32
397920 On ch=13 n=87 v=32
397960 Off ch=13 n=65 v=64
397960 Off ch=13 n=89 v=64
397960 Off ch=13 n=77 v=64
397980 On ch=13 n=89 v=27
397980 On ch=13 n=65 v=27
397980 On ch=13 n=77 v=27
398020 Off ch=13 n=63 v=64
398020 Off ch=13 n=75 v=64
398020 Off ch=13 n=87 v=64
398040 On ch=13 n=63 v=32
398040 On ch=13 n=75 v=32
398040 On ch=13 n=87 v=32
398080 Off ch=13 n=89 v=64
398080 Off ch=13 n=65 v=64
398080 Off ch=13 n=77 v=64
398100 On ch=13 n=89 v=27
398100 On ch=13 n=77 v=27
398100 On ch=13 n=65 v=27
398140 Off ch=13 n=63 v=64
398140 Off ch=13 n=75 v=64
398140 Off ch=13 n=87 v=64
398160 On ch=13 n=63 v=32
398160 On ch=13 n=75 v=32
398160 On ch=13 n=87 v=32
398200 Off ch=13 n=89 v=64
398200 Off ch=13 n=77 v=64
398200 Off ch=13 n=65 v=64
398220 On ch=13 n=65 v=27
398220 On ch=13 n=89 v=27
398220 On ch=13 n=77 v=27
398260 Off ch=13 n=63 v=64
398260 Off ch=13 n=75 v=64
398260 Off ch=13 n=87 v=64
398280 On ch=13 n=63 v=32
398280 On ch=13 n=75 v=32
398280 On ch=13 n=87 v=32
398320 Off ch=13 n=65 v=64
398320 Off ch=13 n=89 v=64
398320 Off ch=13 n=77 v=64
398340 On ch=13 n=89 v=27
398340 On ch=13 n=65 v=27
398340 On ch=13 n=77 v=27
398380 Off ch=13 n=63 v=64
398380 Off ch=13 n=75 v=64
398380 Off ch=13 n=87 v=64
398400 On ch=13 n=63 v=32
398400 On ch=13 n=75 v=32
398400 On ch=13 n=87 v=32
398440 Off ch=13 n=89 v=64
398440 Off ch=13 n=65 v=64
398440 Off ch=13 n=77 v=64
398460 On ch=13 n=65 v=27
398460 On ch=13 n=89 v=27
398460 On ch=13 n=77 v=27
398500 Off ch=13 n=63 v=64
398500 Off ch=13 n=75 v=64
398500 Off ch=13 n=87 v=64
398520 On ch=13 n=63 v=32
398520 On ch=13 n=87 v=32
398520 On ch=13 n=75 v=32
398560 Off ch=13 n=65 v=64
398560 Off ch=13 n=89 v=64
398560 Off ch=13 n=77 v=64
398580 On ch=13 n=65 v=27
398580 On ch=13 n=89 v=27
398580 On ch=13 n=77 v=27
398620 Off ch=13 n=63 v=64
398620 Off ch=13 n=87 v=64
398620 Off ch=13 n=75 v=64
398640 On ch=13 n=63 v=32
398640 On ch=13 n=87 v=32
398640 On ch=13 n=75 v=32
398680 Off ch=13 n=65 v=64
398680 Off ch=13 n=89 v=64
398680 Off ch=13 n=77 v=64
398700 On ch=13 n=65 v=27
398700 On ch=13 n=89 v=27
398700 On ch=13 n=77 v=27
398740 Off ch=13 n=63 v=64
398740 Off ch=13 n=87 v=64
398740 Off ch=13 n=75 v=64
398760 On ch=13 n=63 v=32
398760 On ch=13 n=75 v=32
398760 On ch=13 n=87 v=32
398800 Off ch=13 n=65 v=64
398800 Off ch=13 n=89 v=64
398800 Off ch=13 n=77 v=64
398820 On ch=13 n=77 v=27
398820 On ch=13 n=65 v=27
398820 On ch=13 n=89 v=27
398860 Off ch=13 n=63 v=64
398860 Off ch=13 n=75 v=64
398860 Off ch=13 n=87 v=64
398880 On ch=13 n=63 v=32
398880 On ch=13 n=75 v=32
398880 On ch=13 n=87 v=32
398920 Off ch=13 n=77 v=64
398920 Off ch=13 n=65 v=64
398920 Off ch=13 n=89 v=64
398940 On ch=13 n=89 v=27
398940 On ch=13 n=65 v=27
398940 On ch=13 n=77 v=27
398980 Off ch=13 n=63 v=64
398980 Off ch=13 n=75 v=64
398980 Off ch=13 n=87 v=64
399000 On ch=13 n=63 v=32
399000 On ch=13 n=87 v=32
399000 On ch=13 n=75 v=32
399040 Off ch=13 n=89 v=64
399040 Off ch=13 n=65 v=64
399040 Off ch=13 n=77 v=64
399060 On ch=13 n=77 v=27
399060 On ch=13 n=65 v=27
399060 On ch=13 n=89 v=27
399100 Off ch=13 n=63 v=64
399100 Off ch=13 n=87 v=64
399100 Off ch=13 n=75 v=64
399120 On ch=13 n=63 v=32
399120 On ch=13 n=75 v=32
399120 On ch=13 n=87 v=32
399160 Off ch=13 n=77 v=64
399160 Off ch=13 n=65 v=64
399160 Off ch=13 n=89 v=64
399180 On ch=13 n=89 v=27
399180 On ch=13 n=65 v=27
399180 On ch=13 n=77 v=27
399220 Off ch=13 n=63 v=64
399220 Off ch=13 n=75 v=64
399220 Off ch=13 n=87 v=64
399240 On ch=13 n=63 v=32
399240 On ch=13 n=75 v=32
399240 On ch=13 n=87 v=32
399280 Off ch=13 n=89 v=64
399280 Off ch=13 n=65 v=64
399280 Off ch=13 n=77 v=64
399300 On ch=13 n=89 v=27
399300 On ch=13 n=65 v=27
399300 On ch=13 n=77 v=27
399340 Off ch=13 n=63 v=64
399340 Off ch=13 n=75 v=64
399340 Off ch=13 n=87 v=64
399360 On ch=13 n=63 v=32
399360 On ch=13 n=75 v=32
399360 On ch=13 n=87 v=32
399400 Off ch=13 n=89 v=64
399400 Off ch=13 n=65 v=64
399400 Off ch=13 n=77 v=64
399420 On ch=13 n=65 v=27
399420 On ch=13 n=77 v=27
399420 On ch=13 n=89 v=27
399460 Off ch=13 n=63 v=64
399460 Off ch=13 n=75 v=64
399460 Off ch=13 n=87 v=64
399480 On ch=13 n=63 v=32
399480 On ch=13 n=75 v=32
399480 On ch=13 n=87 v=32
399520 Off ch=13 n=65 v=64
399520 Off ch=13 n=77 v=64
399520 Off ch=13 n=89 v=64
399540 On ch=13 n=65 v=27
399540 On ch=13 n=89 v=27
399540 On ch=13 n=77 v=27
399580 Off ch=13 n=63 v=64
399580 Off ch=13 n=75 v=64
399580 Off ch=13 n=87 v=64
399600 On ch=13 n=63 v=32
399600 On ch=13 n=75 v=32
399600 On ch=13 n=87 v=32
399640 Off ch=13 n=65 v=64
399640 Off ch=13 n=89 v=64
399640 Off ch=13 n=77 v=64
399660 On ch=13 n=89 v=27
399660 On ch=13 n=65 v=27
399660 On ch=13 n=77 v=27
399700 Off ch=13 n=63 v=64
399700 Off ch=13 n=75 v=64
399700 Off ch=13 n=87 v=64
399720 On ch=13 n=75 v=32
399720 On ch=13 n=63 v=32
399720 On ch=13 n=87 v=32
399760 Off ch=13 n=89 v=64
399760 Off ch=13 n=65 v=64
399760 Off ch=13 n=77 v=64
399780 On ch=13 n=65 v=27
399780 On ch=13 n=89 v=27
399780 On ch=13 n=77 v=27
399820 Off ch=13 n=75 v=64
399820 Off ch=13 n=63 v=64
399820 Off ch=13 n=87 v=64
399840 On ch=13 n=63 v=32
399840 On ch=13 n=75 v=32
399840 On ch=13 n=87 v=32
399880 Off ch=13 n=65 v=64
399880 Off ch=13 n=89 v=64
399880 Off ch=13 n=77 v=64
399900 On ch=13 n=89 v=27
399900 On ch=13 n=65 v=27
399900 On ch=13 n=77 v=27
399940 Off ch=13 n=63 v=64
399940 Off ch=13 n=75 v=64
399940 Off ch=13 n=87 v=64
399960 On ch=13 n=63 v=32
399960 On ch=13 n=75 v=32
399960 On ch=13 n=87 v=32
400000 Off ch=13 n=89 v=64
400000 Off ch=13 n=65 v=64
400000 Off ch=13 n=77 v=64
400020 On ch=13 n=89 v=27
400020 On ch=13 n=77 v=27
400020 On ch=13 n=65 v=27
400060 Off ch=13 n=63 v=64
400060 Off ch=13 n=75 v=64
400060 Off ch=13 n=87 v=64
400080 On ch=13 n=63 v=32
400080 On ch=13 n=75 v=32
400080 On ch=13 n=87 v=32
400120 Off ch=13 n=89 v=64
400120 Off ch=13 n=77 v=64
400120 Off ch=13 n=65 v=64
400140 On ch=13 n=65 v=27
400140 On ch=13 n=89 v=27
400140 On ch=13 n=77 v=27
400180 Off ch=13 n=63 v=64
400180 Off ch=13 n=75 v=64
400180 Off ch=13 n=87 v=64
400200 On ch=13 n=63 v=32
400200 On ch=13 n=75 v=32
400200 On ch=13 n=87 v=32
400240 Off ch=13 n=65 v=64
400240 Off ch=13 n=89 v=64
400240 Off ch=13 n=77 v=64
400260 On ch=13 n=89 v=27
400260 On ch=13 n=65 v=27
400260 On ch=13 n=77 v=27
400300 Off ch=13 n=63 v=64
400300 Off ch=13 n=75 v=64
400300 Off ch=13 n=87 v=64
400320 On ch=13 n=63 v=32
400320 On ch=13 n=75 v=32
400320 On ch=13 n=87 v=32
400360 Off ch=13 n=89 v=64
400360 Off ch=13 n=65 v=64
400360 Off ch=13 n=77 v=64
400380 On ch=13 n=65 v=27
400380 On ch=13 n=89 v=27
400380 On ch=13 n=77 v=27
400420 Off ch=13 n=63 v=64
400420 Off ch=13 n=75 v=64
400420 Off ch=13 n=87 v=64
400440 On ch=13 n=63 v=32
400440 On ch=13 n=87 v=32
400440 On ch=13 n=75 v=32
400480 Off ch=13 n=65 v=64
400480 Off ch=13 n=89 v=64
400480 Off ch=13 n=77 v=64
400500 On ch=13 n=65 v=27
400500 On ch=13 n=89 v=27
400500 On ch=13 n=77 v=27
400540 Off ch=13 n=63 v=64
400540 Off ch=13 n=87 v=64
400540 Off ch=13 n=75 v=64
400560 On ch=13 n=63 v=32
400560 On ch=13 n=87 v=32
400560 On ch=13 n=75 v=32
400600 Off ch=13 n=65 v=64
400600 Off ch=13 n=89 v=64
400600 Off ch=13 n=77 v=64
400620 On ch=13 n=65 v=27
400620 On ch=13 n=89 v=27
400620 On ch=13 n=77 v=27
400660 Off ch=13 n=63 v=64
400660 Off ch=13 n=87 v=64
400660 Off ch=13 n=75 v=64
400680 On ch=13 n=63 v=32
400680 On ch=13 n=75 v=32
400680 On ch=13 n=87 v=32
400720 Off ch=13 n=65 v=64
400720 Off ch=13 n=89 v=64
400720 Off ch=13 n=77 v=64
400740 On ch=13 n=77 v=27
400740 On ch=13 n=65 v=27
400740 On ch=13 n=89 v=27
400780 Off ch=13 n=63 v=64
400780 Off ch=13 n=75 v=64
400780 Off ch=13 n=87 v=64
400800 On ch=13 n=63 v=32
400800 On ch=13 n=75 v=32
400800 On ch=13 n=87 v=32
400840 Off ch=13 n=77 v=64
400840 Off ch=13 n=65 v=64
400840 Off ch=13 n=89 v=64
400860 On ch=13 n=89 v=27
400860 On ch=13 n=65 v=27
400860 On ch=13 n=77 v=27
400900 Off ch=13 n=63 v=64
400900 Off ch=13 n=75 v=64
400900 Off ch=13 n=87 v=64
400920 On ch=13 n=63 v=32
400920 On ch=13 n=87 v=32
400920 On ch=13 n=75 v=32
400960 Off ch=13 n=89 v=64
400960 Off ch=13 n=65 v=64
400960 Off ch=13 n=77 v=64
400980 On ch=13 n=77 v=27
400980 On ch=13 n=65 v=27
400980 On ch=13 n=89 v=27
401020 Off ch=13 n=63 v=64
401020 Off ch=13 n=87 v=64
401020 Off ch=13 n=75 v=64
401040 On ch=13 n=63 v=32
401040 On ch=13 n=75 v=32
401040 On ch=13 n=87 v=32
401080 Off ch=13 n=77 v=64
401080 Off ch=13 n=65 v=64
401080 Off ch=13 n=89 v=64
401100 On ch=13 n=89 v=27
401100 On ch=13 n=65 v=27
401100 On ch=13 n=77 v=27
401140 Off ch=13 n=63 v=64
401140 Off ch=13 n=75 v=64
401140 Off ch=13 n=87 v=64
401160 On ch=13 n=63 v=32
401160 On ch=13 n=75 v=32
401160 On ch=13 n=87 v=32
401200 Off ch=13 n=89 v=64
401200 Off ch=13 n=65 v=64
401200 Off ch=13 n=77 v=64
401220 On ch=13 n=89 v=27
401220 On ch=13 n=65 v=27
401220 On ch=13 n=77 v=27
401260 Off ch=13 n=63 v=64
401260 Off ch=13 n=75 v=64
401260 Off ch=13 n=87 v=64
401280 On ch=13 n=63 v=32
401280 On ch=13 n=75 v=32
401280 On ch=13 n=87 v=32
401320 Off ch=13 n=89 v=64
401320 Off ch=13 n=65 v=64
401320 Off ch=13 n=77 v=64
401340 On ch=13 n=65 v=27
401340 On ch=13 n=77 v=27
401340 On ch=13 n=89 v=27
401380 Off ch=13 n=63 v=64
401380 Off ch=13 n=75 v=64
401380 Off ch=13 n=87 v=64
401400 On ch=13 n=63 v=32
401400 On ch=13 n=75 v=32
401400 On ch=13 n=87 v=32
401440 Off ch=13 n=65 v=64
401440 Off ch=13 n=77 v=64
401440 Off ch=13 n=89 v=64
401460 On ch=13 n=65 v=27
401460 On ch=13 n=89 v=27
401460 On ch=13 n=77 v=27
401500 Off ch=13 n=63 v=64
401500 Off ch=13 n=75 v=64
401500 Off ch=13 n=87 v=64
401520 On ch=13 n=63 v=32
401520 On ch=13 n=75 v=32
401520 On ch=13 n=87 v=32
401560 Off ch=13 n=65 v=64
401560 Off ch=13 n=89 v=64
401560 Off ch=13 n=77 v=64
401580 On ch=13 n=89 v=27
401580 On ch=13 n=65 v=27
401580 On ch=13 n=77 v=27
401620 Off ch=13 n=63 v=64
401620 Off ch=13 n=75 v=64
401620 Off ch=13 n=87 v=64
401640 On ch=13 n=75 v=32
401640 On ch=13 n=63 v=32
401640 On ch=13 n=87 v=32
401680 Off ch=13 n=89 v=64
401680 Off ch=13 n=65 v=64
401680 Off ch=13 n=77 v=64
401700 On ch=13 n=65 v=27
401700 On ch=13 n=89 v=27
401700 On ch=13 n=77 v=27
401740 Off ch=13 n=75 v=64
401740 Off ch=13 n=63 v=64
401740 Off ch=13 n=87 v=64
401760 On ch=13 n=63 v=32
401760 On ch=13 n=75 v=32
401760 On ch=13 n=87 v=32
401800 Off ch=13 n=65 v=64
401800 Off ch=13 n=89 v=64
401800 Off ch=13 n=77 v=64
401820 On ch=13 n=89 v=27
401820 On ch=13 n=65 v=27
401820 On ch=13 n=77 v=27
401860 Off ch=13 n=63 v=64
401860 Off ch=13 n=75 v=64
401860 Off ch=13 n=87 v=64
401880 On ch=13 n=63 v=32
401880 On ch=13 n=75 v=32
401880 On ch=13 n=87 v=32
401920 Off ch=13 n=89 v=64
401920 Off ch=13 n=65 v=64
401920 Off ch=13 n=77 v=64
401940 On ch=13 n=89 v=27
401940 On ch=13 n=77 v=27
401940 On ch=13 n=65 v=27
401980 Off ch=13 n=63 v=64
401980 Off ch=13 n=75 v=64
401980 Off ch=13 n=87 v=64
402000 On ch=13 n=63 v=32
402000 On ch=13 n=75 v=32
402000 On ch=13 n=87 v=32
402040 Off ch=13 n=89 v=64
402040 Off ch=13 n=77 v=64
402040 Off ch=13 n=65 v=64
402060 On ch=13 n=65 v=27
402060 On ch=13 n=89 v=27
402060 On ch=13 n=77 v=27
402100 Off ch=13 n=63 v=64
402100 Off ch=13 n=75 v=64
402100 Off ch=13 n=87 v=64
402120 On ch=13 n=63 v=32
402120 On ch=13 n=75 v=32
402120 On ch=13 n=87 v=32
402160 Off ch=13 n=65 v=64
402160 Off ch=13 n=89 v=64
402160 Off ch=13 n=77 v=64
402180 On ch=13 n=89 v=27
402180 On ch=13 n=65 v=27
402180 On ch=13 n=77 v=27
402220 Off ch=13 n=63 v=64
402220 Off ch=13 n=75 v=64
402220 Off ch=13 n=87 v=64
402240 On ch=13 n=63 v=32
402240 On ch=13 n=75 v=32
402240 On ch=13 n=87 v=32
402280 Off ch=13 n=89 v=64
402280 Off ch=13 n=65 v=64
402280 Off ch=13 n=77 v=64
402300 On ch=13 n=65 v=27
402300 On ch=13 n=89 v=27
402300 On ch=13 n=77 v=27
402340 Off ch=13 n=63 v=64
402340 Off ch=13 n=75 v=64
402340 Off ch=13 n=87 v=64
402360 On ch=13 n=63 v=32
402360 On ch=13 n=87 v=32
402360 On ch=13 n=75 v=32
402400 Off ch=13 n=65 v=64
402400 Off ch=13 n=89 v=64
402400 Off ch=13 n=77 v=64
402420 On ch=13 n=65 v=27
402420 On ch=13 n=89 v=27
402420 On ch=13 n=77 v=27
402460 Off ch=13 n=63 v=64
402460 Off ch=13 n=87 v=64
402460 Off ch=13 n=75 v=64
402480 On ch=13 n=63 v=32
402480 On ch=13 n=87 v=32
402480 On ch=13 n=75 v=32
402520 Off ch=13 n=65 v=64
402520 Off ch=13 n=89 v=64
402520 Off ch=13 n=77 v=64
402540 On ch=13 n=65 v=27
402540 On ch=13 n=89 v=27
402540 On ch=13 n=77 v=27
402580 Off ch=13 n=63 v=64
402580 Off ch=13 n=87 v=64
402580 Off ch=13 n=75 v=64
402600 On ch=13 n=63 v=32
402600 On ch=13 n=75 v=32
402600 On ch=13 n=87 v=32
402640 Off ch=13 n=65 v=64
402640 Off ch=13 n=89 v=64
402640 Off ch=13 n=77 v=64
402660 On ch=13 n=77 v=27
402660 On ch=13 n=65 v=27
402660 On ch=13 n=89 v=27
402700 Off ch=13 n=63 v=64
402700 Off ch=13 n=75 v=64
402700 Off ch=13 n=87 v=64
402720 On ch=13 n=63 v=32
402720 On ch=13 n=75 v=32
402720 On ch=13 n=87 v=32
402760 Off ch=13 n=77 v=64
402760 Off ch=13 n=65 v=64
402760 Off ch=13 n=89 v=64
402780 On ch=13 n=89 v=27
402780 On ch=13 n=65 v=27
402780 On ch=13 n=77 v=27
402820 Off ch=13 n=63 v=64
402820 Off ch=13 n=75 v=64
402820 Off ch=13 n=87 v=64
402840 On ch=13 n=63 v=32
402840 On ch=13 n=87 v=32
402840 On ch=13 n=75 v=32
402880 Off ch=13 n=89 v=64
402880 Off ch=13 n=65 v=64
402880 Off ch=13 n=77 v=64
402900 On ch=13 n=77 v=27
402900 On ch=13 n=65 v=27
402900 On ch=13 n=89 v=27
402940 Off ch=13 n=63 v=64
402940 Off ch=13 n=87 v=64
402940 Off ch=13 n=75 v=64
402960 On ch=13 n=63 v=32
402960 On ch=13 n=75 v=32
402960 On ch=13 n=87 v=32
403000 Off ch=13 n=77 v=64
403000 Off ch=13 n=65 v=64
403000 Off ch=13 n=89 v=64
403020 On ch=13 n=89 v=27
403020 On ch=13 n=65 v=27
403020 On ch=13 n=77 v=27
403060 Off ch=13 n=63 v=64
403060 Off ch=13 n=75 v=64
403060 Off ch=13 n=87 v=64
403080 On ch=13 n=63 v=32
403080 On ch=13 n=75 v=32
403080 On ch=13 n=87 v=32
403120 Off ch=13 n=89 v=64
403120 Off ch=13 n=65 v=64
403120 Off ch=13 n=77 v=64
403140 On ch=13 n=89 v=27
403140 On ch=13 n=65 v=27
403140 On ch=13 n=77 v=27
403180 Off ch=13 n=63 v=64
403180 Off ch=13 n=75 v=64
403180 Off ch=13 n=87 v=64
403200 On ch=13 n=63 v=32
403200 On ch=13 n=75 v=32
403200 On ch=13 n=87 v=32
403240 Off ch=13 n=89 v=64
403240 Off ch=13 n=65 v=64
403240 Off ch=13 n=77 v=64
403260 On ch=13 n=65 v=27
403260 On ch=13 n=77 v=27
403260 On ch=13 n=89 v=27
403300 Off ch=13 n=63 v=64
403300 Off ch=13 n=75 v=64
403300 Off ch=13 n=87 v=64
403320 On ch=13 n=63 v=32
403320 On ch=13 n=75 v=32
403320 On ch=13 n=87 v=32
403360 Off ch=13 n=65 v=64
403360 Off ch=13 n=77 v=64
403360 Off ch=13 n=89 v=64
403380 On ch=13 n=65 v=27
403380 On ch=13 n=89 v=27
403380 On ch=13 n=77 v=27
403420 Off ch=13 n=63 v=64
403420 Off ch=13 n=75 v=64
403420 Off ch=13 n=87 v=64
403440 On ch=13 n=63 v=32
403440 On ch=13 n=75 v=32
403440 On ch=13 n=87 v=32
403480 Off ch=13 n=65 v=64
403480 Off ch=13 n=89 v=64
403480 Off ch=13 n=77 v=64
403500 On ch=13 n=89 v=27
403500 On ch=13 n=65 v=27
403500 On ch=13 n=77 v=27
403540 Off ch=13 n=63 v=64
403540 Off ch=13 n=75 v=64
403540 Off ch=13 n=87 v=64
403560 On ch=13 n=75 v=32
403560 On ch=13 n=63 v=32
403560 On ch=13 n=87 v=32
403600 Off ch=13 n=89 v=64
403600 Off ch=13 n=65 v=64
403600 Off ch=13 n=77 v=64
403620 On ch=13 n=65 v=27
403620 On ch=13 n=89 v=27
403620 On ch=13 n=77 v=27
403660 Off ch=13 n=75 v=64
403660 Off ch=13 n=63 v=64
403660 Off ch=13 n=87 v=64
403680 On ch=13 n=63 v=32
403680 On ch=13 n=75 v=32
403680 On ch=13 n=87 v=32
403720 Off ch=13 n=65 v=64
403720 Off ch=13 n=89 v=64
403720 Off ch=13 n=77 v=64
403740 On ch=13 n=89 v=27
403740 On ch=13 n=65 v=27
403740 On ch=13 n=77 v=27
403780 Off ch=13 n=63 v=64
403780 Off ch=13 n=75 v=64
403780 Off ch=13 n=87 v=64
403800 On ch=13 n=63 v=32
403800 On ch=13 n=75 v=32
403800 On ch=13 n=87 v=32
403840 Off ch=13 n=89 v=64
403840 Off ch=13 n=65 v=64
403840 Off ch=13 n=77 v=64
403860 On ch=13 n=89 v=27
403860 On ch=13 n=77 v=27
403860 On ch=13 n=65 v=27
403900 Off ch=13 n=63 v=64
403900 Off ch=13 n=75 v=64
403900 Off ch=13 n=87 v=64
403920 On ch=13 n=63 v=32
403920 On ch=13 n=75 v=32
403920 On ch=13 n=87 v=32
403960 Off ch=13 n=89 v=64
403960 Off ch=13 n=77 v=64
403960 Off ch=13 n=65 v=64
403980 On ch=13 n=65 v=27
403980 On ch=13 n=89 v=27
403980 On ch=13 n=77 v=27
404020 Off ch=13 n=63 v=64
404020 Off ch=13 n=75 v=64
404020 Off ch=13 n=87 v=64
404040 On ch=13 n=63 v=32
404040 On ch=13 n=75 v=32
404040 On ch=13 n=87 v=32
404080 Off ch=13 n=65 v=64
404080 Off ch=13 n=89 v=64
404080 Off ch=13 n=77 v=64
404100 On ch=13 n=89 v=27
404100 On ch=13 n=65 v=27
404100 On ch=13 n=77 v=27
404140 Off ch=13 n=63 v=64
404140 Off ch=13 n=75 v=64
404140 Off ch=13 n=87 v=64
404160 On ch=13 n=63 v=32
404160 On ch=13 n=75 v=32
404160 On ch=13 n=87 v=32
404200 Off ch=13 n=89 v=64
404200 Off ch=13 n=65 v=64
404200 Off ch=13 n=77 v=64
404220 On ch=13 n=65 v=27
404220 On ch=13 n=89 v=27
404220 On ch=13 n=77 v=27
404260 Off ch=13 n=63 v=64
404260 Off ch=13 n=75 v=64
404260 Off ch=13 n=87 v=64
404280 On ch=13 n=63 v=32
404280 On ch=13 n=87 v=32
404280 On ch=13 n=75 v=32
404320 Off ch=13 n=65 v=64
404320 Off ch=13 n=89 v=64
404320 Off ch=13 n=77 v=64
404340 On ch=13 n=65 v=27
404340 On ch=13 n=89 v=27
404340 On ch=13 n=77 v=27
404380 Off ch=13 n=63 v=64
404380 Off ch=13 n=87 v=64
404380 Off ch=13 n=75 v=64
404400 On ch=13 n=63 v=32
404400 On ch=13 n=87 v=32
404400 On ch=13 n=75 v=32
404440 Off ch=13 n=65 v=64
404440 Off ch=13 n=89 v=64
404440 Off ch=13 n=77 v=64
404460 On ch=13 n=65 v=27
404460 On ch=13 n=89 v=27
404460 On ch=13 n=77 v=27
404500 Off ch=13 n=63 v=64
404500 Off ch=13 n=87 v=64
404500 Off ch=13 n=75 v=64
404520 On ch=13 n=63 v=32
404520 On ch=13 n=75 v=32
404520 On ch=13 n=87 v=32
404560 Off ch=13 n=65 v=64
404560 Off ch=13 n=89 v=64
404560 Off ch=13 n=77 v=64
404580 On ch=13 n=77 v=27
404580 On ch=13 n=65 v=27
404580 On ch=13 n=89 v=27
404620 Off ch=13 n=63 v=64
404620 Off ch=13 n=75 v=64
404620 Off ch=13 n=87 v=64
404640 On ch=13 n=63 v=32
404640 On ch=13 n=75 v=32
404640 On ch=13 n=87 v=32
404680 Off ch=13 n=77 v=64
404680 Off ch=13 n=65 v=64
404680 Off ch=13 n=89 v=64
404700 On ch=13 n=89 v=27
404700 On ch=13 n=65 v=27
404700 On ch=13 n=77 v=27
404740 Off ch=13 n=63 v=64
404740 Off ch=13 n=75 v=64
404740 Off ch=13 n=87 v=64
404760 On ch=13 n=63 v=32
404760 On ch=13 n=87 v=32
404760 On ch=13 n=75 v=32
404800 Off ch=13 n=89 v=64
404800 Off ch=13 n=65 v=64
404800 Off ch=13 n=77 v=64
404820 On ch=13 n=77 v=27
404820 On ch=13 n=65 v=27
404820 On ch=13 n=89 v=27
404860 Off ch=13 n=63 v=64
404860 Off ch=13 n=87 v=64
404860 Off ch=13 n=75 v=64
404880 On ch=13 n=63 v=32
404880 On ch=13 n=75 v=32
404880 On ch=13 n=87 v=32
404920 Off ch=13 n=77 v=64
404920 Off ch=13 n=65 v=64
404920 Off ch=13 n=89 v=64
404940 On ch=13 n=89 v=27
404940 On ch=13 n=65 v=27
404940 On ch=13 n=77 v=27
404980 Off ch=13 n=63 v=64
404980 Off ch=13 n=75 v=64
404980 Off ch=13 n=87 v=64
405000 On ch=13 n=63 v=32
405000 On ch=13 n=75 v=32
405000 On ch=13 n=87 v=32
405040 Off ch=13 n=89 v=64
405040 Off ch=13 n=65 v=64
405040 Off ch=13 n=77 v=64
405060 On ch=13 n=89 v=27
405060 On ch=13 n=65 v=27
405060 On ch=13 n=77 v=27
405100 Off ch=13 n=63 v=64
405100 Off ch=13 n=75 v=64
405100 Off ch=13 n=87 v=64
405120 On ch=13 n=63 v=32
405120 On ch=13 n=75 v=32
405120 On ch=13 n=87 v=32
405160 Off ch=13 n=89 v=64
405160 Off ch=13 n=65 v=64
405160 Off ch=13 n=77 v=64
405180 On ch=13 n=65 v=27
405180 On ch=13 n=77 v=27
405180 On ch=13 n=89 v=27
405220 Off ch=13 n=63 v=64
405220 Off ch=13 n=75 v=64
405220 Off ch=13 n=87 v=64
405240 On ch=13 n=63 v=32
405240 On ch=13 n=75 v=32
405240 On ch=13 n=87 v=32
405280 Off ch=13 n=65 v=64
405280 Off ch=13 n=77 v=64
405280 Off ch=13 n=89 v=64
405300 On ch=13 n=65 v=27
405300 On ch=13 n=89 v=27
405300 On ch=13 n=77 v=27
405340 Off ch=13 n=63 v=64
405340 Off ch=13 n=75 v=64
405340 Off ch=13 n=87 v=64
405360 On ch=13 n=63 v=32
405360 On ch=13 n=75 v=32
405360 On ch=13 n=87 v=32
405400 Off ch=13 n=65 v=64
405400 Off ch=13 n=89 v=64
405400 Off ch=13 n=77 v=64
405420 On ch=13 n=89 v=27
405420 On ch=13 n=65 v=27
405420 On ch=13 n=77 v=27
405460 Off ch=13 n=63 v=64
405460 Off ch=13 n=75 v=64
405460 Off ch=13 n=87 v=64
405480 On ch=13 n=75 v=32
405480 On ch=13 n=63 v=32
405480 On ch=13 n=87 v=32
405520 Off ch=13 n=89 v=64
405520 Off ch=13 n=65 v=64
405520 Off ch=13 n=77 v=64
405540 On ch=13 n=65 v=27
405540 On ch=13 n=89 v=27
405540 On ch=13 n=77 v=27
405580 Off ch=13 n=75 v=64
405580 Off ch=13 n=63 v=64
405580 Off ch=13 n=87 v=64
405600 On ch=13 n=63 v=32
405600 On ch=13 n=75 v=32
405600 On ch=13 n=87 v=32
405640 Off ch=13 n=65 v=64
405640 Off ch=13 n=89 v=64
405640 Off ch=13 n=77 v=64
405660 On ch=13 n=89 v=27
405660 On ch=13 n=65 v=27
405660 On ch=13 n=77 v=27
405700 Off ch=13 n=63 v=64
405700 Off ch=13 n=75 v=64
405700 Off ch=13 n=87 v=64
405720 On ch=13 n=63 v=32
405720 On ch=13 n=75 v=32
405720 On ch=13 n=87 v=32
405760 Off ch=13 n=89 v=64
405760 Off ch=13 n=65 v=64
405760 Off ch=13 n=77 v=64
405780 On ch=13 n=89 v=27
405780 On ch=13 n=77 v=27
405780 On ch=13 n=65 v=27
405820 Off ch=13 n=63 v=64
405820 Off ch=13 n=75 v=64
405820 Off ch=13 n=87 v=64
405840 On ch=13 n=63 v=32
405840 On ch=13 n=75 v=32
405840 On ch=13 n=87 v=32
405880 Off ch=13 n=89 v=64
405880 Off ch=13 n=77 v=64
405880 Off ch=13 n=65 v=64
405900 On ch=13 n=65 v=27
405900 On ch=13 n=89 v=27
405900 On ch=13 n=77 v=27
405940 Off ch=13 n=63 v=64
405940 Off ch=13 n=75 v=64
405940 Off ch=13 n=87 v=64
405960 On ch=13 n=63 v=32
405960 On ch=13 n=75 v=32
405960 On ch=13 n=87 v=32
406000 Off ch=13 n=65 v=64
406000 Off ch=13 n=89 v=64
406000 Off ch=13 n=77 v=64
406020 On ch=13 n=89 v=27
406020 On ch=13 n=65 v=27
406020 On ch=13 n=77 v=27
406060 Off ch=13 n=63 v=64
406060 Off ch=13 n=75 v=64
406060 Off ch=13 n=87 v=64
406080 On ch=13 n=63 v=32
406080 On ch=13 n=75 v=32
406080 On ch=13 n=87 v=32
406120 Off ch=13 n=89 v=64
406120 Off ch=13 n=65 v=64
406120 Off ch=13 n=77 v=64
406140 On ch=13 n=65 v=27
406140 On ch=13 n=89 v=27
406140 On ch=13 n=77 v=27
406180 Off ch=13 n=63 v=64
406180 Off ch=13 n=75 v=64
406180 Off ch=13 n=87 v=64
406200 On ch=13 n=63 v=32
406200 On ch=13 n=87 v=32
406200 On ch=13 n=75 v=32
406240 Off ch=13 n=65 v=64
406240 Off ch=13 n=89 v=64
406240 Off ch=13 n=77 v=64
406260 On ch=13 n=65 v=27
406260 On ch=13 n=89 v=27
406260 On ch=13 n=77 v=27
406300 Off ch=13 n=63 v=64
406300 Off ch=13 n=87 v=64
406300 Off ch=13 n=75 v=64
406320 On ch=13 n=63 v=32
406320 On ch=13 n=87 v=32
406320 On ch=13 n=75 v=32
406360 Off ch=13 n=65 v=64
406360 Off ch=13 n=89 v=64
406360 Off ch=13 n=77 v=64
406380 On ch=13 n=65 v=27
406380 On ch=13 n=89 v=27
406380 On ch=13 n=77 v=27
406420 Off ch=13 n=63 v=64
406420 Off ch=13 n=87 v=64
406420 Off ch=13 n=75 v=64
406440 On ch=13 n=63 v=32
406440 On ch=13 n=75 v=32
406440 On ch=13 n=87 v=32
406480 Off ch=13 n=65 v=64
406480 Off ch=13 n=89 v=64
406480 Off ch=13 n=77 v=64
406500 On ch=13 n=77 v=27
406500 On ch=13 n=65 v=27
406500 On ch=13 n=89 v=27
406540 Off ch=13 n=63 v=64
406540 Off ch=13 n=75 v=64
406540 Off ch=13 n=87 v=64
406560 On ch=13 n=63 v=32
406560 On ch=13 n=75 v=32
406560 On ch=13 n=87 v=32
406600 Off ch=13 n=77 v=64
406600 Off ch=13 n=65 v=64
406600 Off ch=13 n=89 v=64
406620 On ch=13 n=89 v=27
406620 On ch=13 n=65 v=27
406620 On ch=13 n=77 v=27
406660 Off ch=13 n=63 v=64
406660 Off ch=13 n=75 v=64
406660 Off ch=13 n=87 v=64
406680 On ch=13 n=63 v=32
406680 On ch=13 n=87 v=32
406680 On ch=13 n=75 v=32
406720 Off ch=13 n=89 v=64
406720 Off ch=13 n=65 v=64
406720 Off ch=13 n=77 v=64
406740 On ch=13 n=77 v=27
406740 On ch=13 n=65 v=27
406740 On ch=13 n=89 v=27
406780 Off ch=13 n=63 v=64
406780 Off ch=13 n=87 v=64
406780 Off ch=13 n=75 v=64
406800 On ch=13 n=63 v=32
406800 On ch=13 n=75 v=32
406800 On ch=13 n=87 v=32
406840 Off ch=13 n=77 v=64
406840 Off ch=13 n=65 v=64
406840 Off ch=13 n=89 v=64
406860 On ch=13 n=89 v=27
406860 On ch=13 n=65 v=27
406860 On ch=13 n=77 v=27
406900 Off ch=13 n=63 v=64
406900 Off ch=13 n=75 v=64
406900 Off ch=13 n=87 v=64
406920 On ch=13 n=63 v=32
406920 On ch=13 n=75 v=32
406920 On ch=13 n=87 v=32
406960 Off ch=13 n=89 v=64
406960 Off ch=13 n=65 v=64
406960 Off ch=13 n=77 v=64
406980 On ch=13 n=89 v=27
406980 On ch=13 n=65 v=27
406980 On ch=13 n=77 v=27
407020 Off ch=13 n=63 v=64
407020 Off ch=13 n=75 v=64
407020 Off ch=13 n=87 v=64
407040 On ch=13 n=63 v=32
407040 On ch=13 n=75 v=32
407040 On ch=13 n=87 v=32
407080 Off ch=13 n=89 v=64
407080 Off ch=13 n=65 v=64
407080 Off ch=13 n=77 v=64
407100 On ch=13 n=65 v=27
407100 On ch=13 n=77 v=27
407100 On ch=13 n=89 v=27
407140 Off ch=13 n=63 v=64
407140 Off ch=13 n=75 v=64
407140 Off ch=13 n=87 v=64
407160 On ch=13 n=63 v=32
407160 On ch=13 n=75 v=32
407160 On ch=13 n=87 v=32
407200 Off ch=13 n=65 v=64
407200 Off ch=13 n=77 v=64
407200 Off ch=13 n=89 v=64
407220 On ch=13 n=65 v=27
407220 On ch=13 n=89 v=27
407220 On ch=13 n=77 v=27
407260 Off ch=13 n=63 v=64
407260 Off ch=13 n=75 v=64
407260 Off ch=13 n=87 v=64
407280 On ch=13 n=63 v=32
407280 On ch=13 n=75 v=32
407280 On ch=13 n=87 v=32
407320 Off ch=13 n=65 v=64
407320 Off ch=13 n=89 v=64
407320 Off ch=13 n=77 v=64
407340 On ch=13 n=89 v=27
407340 On ch=13 n=65 v=27
407340 On ch=13 n=77 v=27
407380 Off ch=13 n=63 v=64
407380 Off ch=13 n=75 v=64
407380 Off ch=13 n=87 v=64
407400 On ch=13 n=75 v=32
407400 On ch=13 n=63 v=32
407400 On ch=13 n=87 v=32
407440 Off ch=13 n=89 v=64
407440 Off ch=13 n=65 v=64
407440 Off ch=13 n=77 v=64
407460 On ch=13 n=65 v=27
407460 On ch=13 n=89 v=27
407460 On ch=13 n=77 v=27
407500 Off ch=13 n=75 v=64
407500 Off ch=13 n=63 v=64
407500 Off ch=13 n=87 v=64
407520 On ch=13 n=63 v=32
407520 On ch=13 n=75 v=32
407520 On ch=13 n=87 v=32
407560 Off ch=13 n=65 v=64
407560 Off ch=13 n=89 v=64
407560 Off ch=13 n=77 v=64
407580 On ch=13 n=89 v=27
407580 On ch=13 n=65 v=27
407580 On ch=13 n=77 v=27
407620 Off ch=13 n=63 v=64
407620 Off ch=13 n=75 v=64
407620 Off ch=13 n=87 v=64
407640 On ch=13 n=63 v=32
407640 On ch=13 n=75 v=32
407640 On ch=13 n=87 v=32
407680 Off ch=13 n=89 v=64
407680 Off ch=13 n=65 v=64
407680 Off ch=13 n=77 v=64
407700 On ch=13 n=89 v=27
407700 On ch=13 n=77 v=27
407700 On ch=13 n=65 v=27
407740 Off ch=13 n=63 v=64
407740 Off ch=13 n=75 v=64
407740 Off ch=13 n=87 v=64
407760 On ch=13 n=63 v=32
407760 On ch=13 n=75 v=32
407760 On ch=13 n=87 v=32
407800 Off ch=13 n=89 v=64
407800 Off ch=13 n=77 v=64
407800 Off ch=13 n=65 v=64
407820 On ch=13 n=65 v=27
407820 On ch=13 n=89 v=27
407820 On ch=13 n=77 v=27
407860 Off ch=13 n=63 v=64
407860 Off ch=13 n=75 v=64
407860 Off ch=13 n=87 v=64
407880 On ch=13 n=63 v=32
407880 On ch=13 n=75 v=32
407880 On ch=13 n=87 v=32
407920 Off ch=13 n=65 v=64
407920 Off ch=13 n=89 v=64
407920 Off ch=13 n=77 v=64
407940 On ch=13 n=89 v=27
407940 On ch=13 n=65 v=27
407940 On ch=13 n=77 v=27
407980 Off ch=13 n=63 v=64
407980 Off ch=13 n=75 v=64
407980 Off ch=13 n=87 v=64
408000 On ch=13 n=63 v=32
408000 On ch=13 n=75 v=32
408000 On ch=13 n=87 v=32
408040 Off ch=13 n=89 v=64
408040 Off ch=13 n=65 v=64
408040 Off ch=13 n=77 v=64
408060 On ch=13 n=65 v=27
408060 On ch=13 n=89 v=27
408060 On ch=13 n=77 v=27
408100 Off ch=13 n=63 v=64
408100 Off ch=13 n=75 v=64
408100 Off ch=13 n=87 v=64
408120 On ch=13 n=63 v=32
408120 On ch=13 n=87 v=32
408120 On ch=13 n=75 v=32
408160 Off ch=13 n=65 v=64
408160 Off ch=13 n=89 v=64
408160 Off ch=13 n=77 v=64
408180 On ch=13 n=65 v=27
408180 On ch=13 n=89 v=27
408180 On ch=13 n=77 v=27
408220 Off ch=13 n=63 v=64
408220 Off ch=13 n=87 v=64
408220 Off ch=13 n=75 v=64
408240 On ch=13 n=63 v=32
408240 On ch=13 n=87 v=32
408240 On ch=13 n=75 v=32
408280 Off ch=13 n=65 v=64
408280 Off ch=13 n=89 v=64
408280 Off ch=13 n=77 v=64
408300 On ch=13 n=65 v=27
408300 On ch=13 n=89 v=27
408300 On ch=13 n=77 v=27
408340 Off ch=13 n=63 v=64
408340 Off ch=13 n=87 v=64
408340 Off ch=13 n=75 v=64
408360 On ch=13 n=63 v=32
408360 On ch=13 n=75 v=32
408360 On ch=13 n=87 v=32
408400 Off ch=13 n=65 v=64
408400 Off ch=13 n=89 v=64
408400 Off ch=13 n=77 v=64
408420 On ch=13 n=77 v=27
408420 On ch=13 n=65 v=27
408420 On ch=13 n=89 v=27
408460 Off ch=13 n=63 v=64
408460 Off ch=13 n=75 v=64
408460 Off ch=13 n=87 v=64
408480 On ch=13 n=63 v=32
408480 On ch=13 n=75 v=32
408480 On ch=13 n=87 v=32
408520 Off ch=13 n=77 v=64
408520 Off ch=13 n=65 v=64
408520 Off ch=13 n=89 v=64
408540 On ch=13 n=89 v=27
408540 On ch=13 n=65 v=27
408540 On ch=13 n=77 v=27
408580 Off ch=13 n=63 v=64
408580 Off ch=13 n=75 v=64
408580 Off ch=13 n=87 v=64
408600 On ch=13 n=63 v=32
408600 On ch=13 n=87 v=32
408600 On ch=13 n=75 v=32
408640 Off ch=13 n=89 v=64
408640 Off ch=13 n=65 v=64
408640 Off ch=13 n=77 v=64
408660 On ch=13 n=77 v=27
408660 On ch=13 n=65 v=27
408660 On ch=13 n=89 v=27
408700 Off ch=13 n=63 v=64
408700 Off ch=13 n=87 v=64
408700 Off ch=13 n=75 v=64
408720 On ch=13 n=63 v=32
408720 On ch=13 n=75 v=32
408720 On ch=13 n=87 v=32
408760 Off ch=13 n=77 v=64
408760 Off ch=13 n=65 v=64
408760 Off ch=13 n=89 v=64
408780 On ch=13 n=89 v=27
408780 On ch=13 n=65 v=27
408780 On ch=13 n=77 v=27
408820 Off ch=13 n=63 v=64
408820 Off ch=13 n=75 v=64
408820 Off ch=13 n=87 v=64
408840 On ch=13 n=63 v=32
408840 On ch=13 n=75 v=32
408840 On ch=13 n=87 v=32
408880 Off ch=13 n=89 v=64
408880 Off ch=13 n=65 v=64
408880 Off ch=13 n=77 v=64
408900 On ch=13 n=89 v=27
408900 On ch=13 n=65 v=27
408900 On ch=13 n=77 v=27
408940 Off ch=13 n=63 v=64
408940 Off ch=13 n=75 v=64
408940 Off ch=13 n=87 v=64
408960 On ch=13 n=63 v=32
408960 On ch=13 n=75 v=32
408960 On ch=13 n=87 v=32
409000 Off ch=13 n=89 v=64
409000 Off ch=13 n=65 v=64
409000 Off ch=13 n=77 v=64
409020 On ch=13 n=65 v=27
409020 On ch=13 n=77 v=27
409020 On ch=13 n=89 v=27
409060 Off ch=13 n=63 v=64
409060 Off ch=13 n=75 v=64
409060 Off ch=13 n=87 v=64
409080 On ch=13 n=63 v=32
409080 On ch=13 n=75 v=32
409080 On ch=13 n=87 v=32
409120 Off ch=13 n=65 v=64
409120 Off ch=13 n=77 v=64
409120 Off ch=13 n=89 v=64
409140 On ch=13 n=65 v=27
409140 On ch=13 n=89 v=27
409140 On ch=13 n=77 v=27
409180 Off ch=13 n=63 v=64
409180 Off ch=13 n=75 v=64
409180 Off ch=13 n=87 v=64
409200 On ch=13 n=63 v=32
409200 On ch=13 n=75 v=32
409200 On ch=13 n=87 v=32
409240 Off ch=13 n=65 v=64
409240 Off ch=13 n=89 v=64
409240 Off ch=13 n=77 v=64
409260 On ch=13 n=89 v=27
409260 On ch=13 n=65 v=27
409260 On ch=13 n=77 v=27
409300 Off ch=13 n=63 v=64
409300 Off ch=13 n=75 v=64
409300 Off ch=13 n=87 v=64
409320 On ch=13 n=75 v=32
409320 On ch=13 n=63 v=32
409320 On ch=13 n=87 v=32
409360 Off ch=13 n=89 v=64
409360 Off ch=13 n=65 v=64
409360 Off ch=13 n=77 v=64
409380 On ch=13 n=65 v=27
409380 On ch=13 n=89 v=27
409380 On ch=13 n=77 v=27
409420 Off ch=13 n=75 v=64
409420 Off ch=13 n=63 v=64
409420 Off ch=13 n=87 v=64
409440 On ch=13 n=63 v=32
409440 On ch=13 n=75 v=32
409440 On ch=13 n=87 v=32
409480 Off ch=13 n=65 v=64
409480 Off ch=13 n=89 v=64
409480 Off ch=13 n=77 v=64
409500 On ch=13 n=89 v=27
409500 On ch=13 n=65 v=27
409500 On ch=13 n=77 v=27
409540 Off ch=13 n=63 v=64
409540 Off ch=13 n=75 v=64
409540 Off ch=13 n=87 v=64
409560 On ch=13 n=63 v=32
409560 On ch=13 n=75 v=32
409560 On ch=13 n=87 v=32
409600 Off ch=13 n=89 v=64
409600 Off ch=13 n=65 v=64
409600 Off ch=13 n=77 v=64
409620 On ch=13 n=89 v=27
409620 On ch=13 n=77 v=27
409620 On ch=13 n=65 v=27
409660 Off ch=13 n=63 v=64
409660 Off ch=13 n=75 v=64
409660 Off ch=13 n=87 v=64
409680 On ch=13 n=63 v=32
409680 On ch=13 n=75 v=32
409680 On ch=13 n=87 v=32
409720 Off ch=13 n=89 v=64
409720 Off ch=13 n=77 v=64
409720 Off ch=13 n=65 v=64
409740 On ch=13 n=65 v=27
409740 On ch=13 n=89 v=27
409740 On ch=13 n=77 v=27
409780 Off ch=13 n=63 v=64
409780 Off ch=13 n=75 v=64
409780 Off ch=13 n=87 v=64
409800 On ch=13 n=63 v=32
409800 On ch=13 n=75 v=32
409800 On ch=13 n=87 v=32
409840 Off ch=13 n=65 v=64
409840 Off ch=13 n=89 v=64
409840 Off ch=13 n=77 v=64
409860 On ch=13 n=89 v=27
409860 On ch=13 n=65 v=27
409860 On ch=13 n=77 v=27
409900 Off ch=13 n=63 v=64
409900 Off ch=13 n=75 v=64
409900 Off ch=13 n=87 v=64
409920 On ch=13 n=63 v=32
409920 On ch=13 n=75 v=32
409920 On ch=13 n=87 v=32
409960 Off ch=13 n=89 v=64
409960 Off ch=13 n=65 v=64
409960 Off ch=13 n=77 v=64
409980 On ch=13 n=65 v=27
409980 On ch=13 n=89 v=27
409980 On ch=13 n=77 v=27
410020 Off ch=13 n=63 v=64
410020 Off ch=13 n=75 v=64
410020 Off ch=13 n=87 v=64
410040 On ch=13 n=63 v=32
410040 On ch=13 n=87 v=32
410040 On ch=13 n=75 v=32
410080 Off ch=13 n=65 v=64
410080 Off ch=13 n=89 v=64
410080 Off ch=13 n=77 v=64
410100 On ch=13 n=65 v=27
410100 On ch=13 n=89 v=27
410100 On ch=13 n=77 v=27
410140 Off ch=13 n=63 v=64
410140 Off ch=13 n=87 v=64
410140 Off ch=13 n=75 v=64
410160 On ch=13 n=63 v=32
410160 On ch=13 n=87 v=32
410160 On ch=13 n=75 v=32
410200 Off ch=13 n=65 v=64
410200 Off ch=13 n=89 v=64
410200 Off ch=13 n=77 v=64
410220 On ch=13 n=65 v=27
410220 On ch=13 n=89 v=27
410220 On ch=13 n=77 v=27
410260 Off ch=13 n=63 v=64
410260 Off ch=13 n=87 v=64
410260 Off ch=13 n=75 v=64
410280 On ch=13 n=63 v=32
410280 On ch=13 n=75 v=32
410280 On ch=13 n=87 v=32
410320 Off ch=13 n=65 v=64
410320 Off ch=13 n=89 v=64
410320 Off ch=13 n=77 v=64
410340 On ch=13 n=77 v=27
410340 On ch=13 n=65 v=27
410340 On ch=13 n=89 v=27
410380 Off ch=13 n=63 v=64
410380 Off ch=13 n=75 v=64
410380 Off ch=13 n=87 v=64
410400 On ch=13 n=63 v=32
410400 On ch=13 n=75 v=32
410400 On ch=13 n=87 v=32
410440 Off ch=13 n=77 v=64
410440 Off ch=13 n=65 v=64
410440 Off ch=13 n=89 v=64
410460 On ch=13 n=89 v=27
410460 On ch=13 n=65 v=27
410460 On ch=13 n=77 v=27
410500 Off ch=13 n=63 v=64
410500 Off ch=13 n=75 v=64
410500 Off ch=13 n=87 v=64
410520 On ch=13 n=63 v=32
410520 On ch=13 n=87 v=32
410520 On ch=13 n=75 v=32
410560 Off ch=13 n=89 v=64
410560 Off ch=13 n=65 v=64
410560 Off ch=13 n=77 v=64
410580 On ch=13 n=77 v=27
410580 On ch=13 n=65 v=27
410580 On ch=13 n=89 v=27
410620 Off ch=13 n=63 v=64
410620 Off ch=13 n=87 v=64
410620 Off ch=13 n=75 v=64
410640 On ch=13 n=63 v=32
410640 On ch=13 n=75 v=32
410640 On ch=13 n=87 v=32
410680 Off ch=13 n=77 v=64
410680 Off ch=13 n=65 v=64
410680 Off ch=13 n=89 v=64
410700 On ch=13 n=89 v=27
410700 On ch=13 n=65 v=27
410700 On ch=13 n=77 v=27
410740 Off ch=13 n=63 v=64
410740 Off ch=13 n=75 v=64
410740 Off ch=13 n=87 v=64
410760 On ch=13 n=63 v=32
410760 On ch=13 n=75 v=32
410760 On ch=13 n=87 v=32
410800 Off ch=13 n=89 v=64
410800 Off ch=13 n=65 v=64
410800 Off ch=13 n=77 v=64
410820 On ch=13 n=89 v=27
410820 On ch=13 n=65 v=27
410820 On ch=13 n=77 v=27
410860 Off ch=13 n=63 v=64
410860 Off ch=13 n=75 v=64
410860 Off ch=13 n=87 v=64
410868 Par ch=13 c=7 v=76
410880 On ch=13 n=63 v=32
410880 On ch=13 n=75 v=32
410880 On ch=13 n=87 v=32
410920 Off ch=13 n=89 v=64
410920 Off ch=13 n=65 v=64
410920 Off ch=13 n=77 v=64
410940 On ch=13 n=65 v=27
410940 On ch=13 n=77 v=27
410940 On ch=13 n=89 v=27
410980 Off ch=13 n=63 v=64
410980 Off ch=13 n=75 v=64
410980 Off ch=13 n=87 v=64
411000 On ch=13 n=63 v=32
411000 On ch=13 n=75 v=32
411000 On ch=13 n=87 v=32
411040 Off ch=13 n=65 v=64
411040 Off ch=13 n=77 v=64
411040 Off ch=13 n=89 v=64
411049 Par ch=13 c=7 v=75
411060 On ch=13 n=65 v=27
411060 On ch=13 n=89 v=27
411060 On ch=13 n=77 v=27
411100 Off ch=13 n=63 v=64
411100 Off ch=13 n=75 v=64
411100 Off ch=13 n=87 v=64
411120 On ch=13 n=63 v=32
411120 On ch=13 n=75 v=32
411120 On ch=13 n=87 v=32
411160 Off ch=13 n=65 v=64
411160 Off ch=13 n=89 v=64
411160 Off ch=13 n=77 v=64
411180 On ch=13 n=89 v=27
411180 On ch=13 n=65 v=27
411180 On ch=13 n=77 v=27
411220 Off ch=13 n=63 v=64
411220 Off ch=13 n=75 v=64
411220 Off ch=13 n=87 v=64
411230 Par ch=13 c=7 v=74
411240 On ch=13 n=75 v=32
411240 On ch=13 n=63 v=32
411240 On ch=13 n=87 v=32
411280 Off ch=13 n=89 v=64
411280 Off ch=13 n=65 v=64
411280 Off ch=13 n=77 v=64
411300 On ch=13 n=65 v=27
411300 On ch=13 n=89 v=27
411300 On ch=13 n=77 v=27
411340 Off ch=13 n=75 v=64
411340 Off ch=13 n=63 v=64
411340 Off ch=13 n=87 v=64
411360 On ch=13 n=63 v=32
411360 On ch=13 n=75 v=32
411360 On ch=13 n=87 v=32
411400 Off ch=13 n=65 v=64
411400 Off ch=13 n=89 v=64
411400 Off ch=13 n=77 v=64
411411 Par ch=13 c=7 v=73
411420 On ch=13 n=89 v=27
411420 On ch=13 n=65 v=27
411420 On ch=13 n=77 v=27
411460 Off ch=13 n=63 v=64
411460 Off ch=13 n=75 v=64
411460 Off ch=13 n=87 v=64
411480 On ch=13 n=63 v=32
411480 On ch=13 n=75 v=32
411480 On ch=13 n=87 v=32
411520 Off ch=13 n=89 v=64
411520 Off ch=13 n=65 v=64
411520 Off ch=13 n=77 v=64
411540 On ch=13 n=89 v=27
411540 On ch=13 n=77 v=27
411540 On ch=13 n=65 v=27
411580 Off ch=13 n=63 v=64
411580 Off ch=13 n=75 v=64
411580 Off ch=13 n=87 v=64
411592 Par ch=13 c=7 v=72
411600 On ch=13 n=63 v=32
411600 On ch=13 n=75 v=32
411600 On ch=13 n=87 v=32
411640 Off ch=13 n=89 v=64
411640 Off ch=13 n=77 v=64
411640 Off ch=13 n=65 v=64
411660 On ch=13 n=65 v=27
411660 On ch=13 n=89 v=27
411660 On ch=13 n=77 v=27
411700 Off ch=13 n=63 v=64
411700 Off ch=13 n=75 v=64
411700 Off ch=13 n=87 v=64
411720 On ch=13 n=63 v=32
411720 On ch=13 n=75 v=32
411720 On ch=13 n=87 v=32
411760 Off ch=13 n=65 v=64
411760 Off ch=13 n=89 v=64
411760 Off ch=13 n=77 v=64
411773 Par ch=13 c=7 v=71
411780 On ch=13 n=89 v=27
411780 On ch=13 n=65 v=27
411780 On ch=13 n=77 v=27
411820 Off ch=13 n=63 v=64
411820 Off ch=13 n=75 v=64
411820 Off ch=13 n=87 v=64
411840 On ch=13 n=63 v=32
411840 On ch=13 n=75 v=32
411840 On ch=13 n=87 v=32
411880 Off ch=13 n=89 v=64
411880 Off ch=13 n=65 v=64
411880 Off ch=13 n=77 v=64
411900 On ch=13 n=65 v=27
411900 On ch=13 n=89 v=27
411900 On ch=13 n=77 v=27
411940 Off ch=13 n=63 v=64
411940 Off ch=13 n=75 v=64
411940 Off ch=13 n=87 v=64
411954 Par ch=13 c=7 v=70
411960 On ch=13 n=63 v=32
411960 On ch=13 n=87 v=32
411960 On ch=13 n=75 v=32
412000 Off ch=13 n=65 v=64
412000 Off ch=13 n=89 v=64
412000 Off ch=13 n=77 v=64
412020 On ch=13 n=65 v=27
412020 On ch=13 n=89 v=27
412020 On ch=13 n=77 v=27
412060 Off ch=13 n=63 v=64
412060 Off ch=13 n=87 v=64
412060 Off ch=13 n=75 v=64
412080 On ch=13 n=63 v=32
412080 On ch=13 n=87 v=32
412080 On ch=13 n=75 v=32
412120 Off ch=13 n=65 v=64
412120 Off ch=13 n=89 v=64
412120 Off ch=13 n=77 v=64
412135 Par ch=13 c=7 v=69
412140 On ch=13 n=65 v=27
412140 On ch=13 n=89 v=27
412140 On ch=13 n=77 v=27
412180 Off ch=13 n=63 v=64
412180 Off ch=13 n=87 v=64
412180 Off ch=13 n=75 v=64
412200 On ch=13 n=63 v=32
412200 On ch=13 n=75 v=32
412200 On ch=13 n=87 v=32
412240 Off ch=13 n=65 v=64
412240 Off ch=13 n=89 v=64
412240 Off ch=13 n=77 v=64
412260 On ch=13 n=77 v=27
412260 On ch=13 n=65 v=27
412260 On ch=13 n=89 v=27
412300 Off ch=13 n=63 v=64
412300 Off ch=13 n=75 v=64
412300 Off ch=13 n=87 v=64
412317 Par ch=13 c=7 v=68
412320 On ch=13 n=63 v=32
412320 On ch=13 n=75 v=32
412320 On ch=13 n=87 v=32
412360 Off ch=13 n=77 v=64
412360 Off ch=13 n=65 v=64
412360 Off ch=13 n=89 v=64
412380 On ch=13 n=89 v=27
412380 On ch=13 n=65 v=27
412380 On ch=13 n=77 v=27
412420 Off ch=13 n=63 v=64
412420 Off ch=13 n=75 v=64
412420 Off ch=13 n=87 v=64
412440 On ch=13 n=63 v=32
412440 On ch=13 n=87 v=32
412440 On ch=13 n=75 v=32
412480 Off ch=13 n=89 v=64
412480 Off ch=13 n=65 v=64
412480 Off ch=13 n=77 v=64
412498 Par ch=13 c=7 v=67
412500 On ch=13 n=77 v=27
412500 On ch=13 n=65 v=27
412500 On ch=13 n=89 v=27
412540 Off ch=13 n=63 v=64
412540 Off ch=13 n=87 v=64
412540 Off ch=13 n=75 v=64
412560 On ch=13 n=63 v=32
412560 On ch=13 n=75 v=32
412560 On ch=13 n=87 v=32
412600 Off ch=13 n=77 v=64
412600 Off ch=13 n=65 v=64
412600 Off ch=13 n=89 v=64
412620 On ch=13 n=89 v=27
412620 On ch=13 n=65 v=27
412620 On ch=13 n=77 v=27
412660 Off ch=13 n=63 v=64
412660 Off ch=13 n=75 v=64
412660 Off ch=13 n=87 v=64
412679 Par ch=13 c=7 v=66
412680 On ch=13 n=63 v=32
412680 On ch=13 n=75 v=32
412680 On ch=13 n=87 v=32
412720 Off ch=13 n=89 v=64
412720 Off ch=13 n=65 v=64
412720 Off ch=13 n=77 v=64
412740 On ch=13 n=89 v=27
412740 On ch=13 n=65 v=27
412740 On ch=13 n=77 v=27
412780 Off ch=13 n=63 v=64
412780 Off ch=13 n=75 v=64
412780 Off ch=13 n=87 v=64
412800 On ch=13 n=63 v=32
412800 On ch=13 n=75 v=32
412800 On ch=13 n=87 v=32
412840 Off ch=13 n=89 v=64
412840 Off ch=13 n=65 v=64
412840 Off ch=13 n=77 v=64
412860 Par ch=13 c=7 v=65
412860 On ch=13 n=65 v=27
412860 On ch=13 n=77 v=27
412860 On ch=13 n=89 v=27
412900 Off ch=13 n=63 v=64
412900 Off ch=13 n=75 v=64
412900 Off ch=13 n=87 v=64
412920 On ch=13 n=63 v=32
412920 On ch=13 n=75 v=32
412920 On ch=13 n=87 v=32
412960 Off ch=13 n=65 v=64
412960 Off ch=13 n=77 v=64
412960 Off ch=13 n=89 v=64
412980 On ch=13 n=65 v=27
412980 On ch=13 n=89 v=27
412980 On ch=13 n=77 v=27
413020 Off ch=13 n=63 v=64
413020 Off ch=13 n=75 v=64
413020 Off ch=13 n=87 v=64
413040 On ch=13 n=63 v=32
413040 On ch=13 n=75 v=32
413040 On ch=13 n=87 v=32
413041 Par ch=13 c=7 v=64
413080 Off ch=13 n=65 v=64
413080 Off ch=13 n=89 v=64
413080 Off ch=13 n=77 v=64
413100 On ch=13 n=89 v=27
413100 On ch=13 n=65 v=27
413100 On ch=13 n=77 v=27
413140 Off ch=13 n=63 v=64
413140 Off ch=13 n=75 v=64
413140 Off ch=13 n=87 v=64
413160 On ch=13 n=75 v=32
413160 On ch=13 n=63 v=32
413160 On ch=13 n=87 v=32
413200 Off ch=13 n=89 v=64
413200 Off ch=13 n=65 v=64
413200 Off ch=13 n=77 v=64
413220 On ch=13 n=65 v=27
413220 On ch=13 n=89 v=27
413220 On ch=13 n=77 v=27
413222 Par ch=13 c=7 v=63
413260 Off ch=13 n=75 v=64
413260 Off ch=13 n=63 v=64
413260 Off ch=13 n=87 v=64
413280 On ch=13 n=63 v=32
413280 On ch=13 n=75 v=32
413280 On ch=13 n=87 v=32
413320 Off ch=13 n=65 v=64
413320 Off ch=13 n=89 v=64
413320 Off ch=13 n=77 v=64
413340 On ch=13 n=89 v=27
413340 On ch=13 n=65 v=27
413340 On ch=13 n=77 v=27
413380 Off ch=13 n=63 v=64
413380 Off ch=13 n=75 v=64
413380 Off ch=13 n=87 v=64
413400 On ch=13 n=63 v=32
413400 On ch=13 n=75 v=32
413400 On ch=13 n=87 v=32
413403 Par ch=13 c=7 v=62
413440 Off ch=13 n=89 v=64
413440 Off ch=13 n=65 v=64
413440 Off ch=13 n=77 v=64
413460 On ch=13 n=89 v=27
413460 On ch=13 n=77 v=27
413460 On ch=13 n=65 v=27
413500 Off ch=13 n=63 v=64
413500 Off ch=13 n=75 v=64
413500 Off ch=13 n=87 v=64
413520 On ch=13 n=63 v=32
413520 On ch=13 n=75 v=32
413520 On ch=13 n=87 v=32
413560 Off ch=13 n=89 v=64
413560 Off ch=13 n=77 v=64
413560 Off ch=13 n=65 v=64
413580 On ch=13 n=65 v=27
413580 On ch=13 n=89 v=27
413580 On ch=13 n=77 v=27
413584 Par ch=13 c=7 v=61
413620 Off ch=13 n=63 v=64
413620 Off ch=13 n=75 v=64
413620 Off ch=13 n=87 v=64
413640 On ch=13 n=63 v=32
413640 On ch=13 n=75 v=32
413640 On ch=13 n=87 v=32
413680 Off ch=13 n=65 v=64
413680 Off ch=13 n=89 v=64
413680 Off ch=13 n=77 v=64
413700 On ch=13 n=89 v=27
413700 On ch=13 n=65 v=27
413700 On ch=13 n=77 v=27
413740 Off ch=13 n=63 v=64
413740 Off ch=13 n=75 v=64
413740 Off ch=13 n=87 v=64
413760 On ch=13 n=63 v=32
413760 On ch=13 n=75 v=32
413760 On ch=13 n=87 v=32
413766 Par ch=13 c=7 v=60
413800 Off ch=13 n=89 v=64
413800 Off ch=13 n=65 v=64
413800 Off ch=13 n=77 v=64
413820 On ch=13 n=65 v=27
413820 On ch=13 n=89 v=27
413820 On ch=13 n=77 v=27
413860 Off ch=13 n=63 v=64
413860 Off ch=13 n=75 v=64
413860 Off ch=13 n=87 v=64
413880 On ch=13 n=63 v=32
413880 On ch=13 n=87 v=32
413880 On ch=13 n=75 v=32
413920 Off ch=13 n=65 v=64
413920 Off ch=13 n=89 v=64
413920 Off ch=13 n=77 v=64
413940 On ch=13 n=65 v=27
413940 On ch=13 n=89 v=27
413940 On ch=13 n=77 v=27
413947 Par ch=13 c=7 v=59
413980 Off ch=13 n=63 v=64
413980 Off ch=13 n=87 v=64
413980 Off ch=13 n=75 v=64
414000 On ch=13 n=63 v=32
414000 On ch=13 n=87 v=32
414000 On ch=13 n=75 v=32
414040 Off ch=13 n=65 v=64
414040 Off ch=13 n=89 v=64
414040 Off ch=13 n=77 v=64
414060 On ch=13 n=65 v=27
414060 On ch=13 n=89 v=27
414060 On ch=13 n=77 v=27
414100 Off ch=13 n=63 v=64
414100 Off ch=13 n=87 v=64
414100 Off ch=13 n=75 v=64
414120 On ch=13 n=63 v=32
414120 On ch=13 n=75 v=32
414120 On ch=13 n=87 v=32
414128 Par ch=13 c=7 v=58
414160 Off ch=13 n=65 v=64
414160 Off ch=13 n=89 v=64
414160 Off ch=13 n=77 v=64
414180 On ch=13 n=77 v=27
414180 On ch=13 n=65 v=27
414180 On ch=13 n=89 v=27
414220 Off ch=13 n=63 v=64
414220 Off ch=13 n=75 v=64
414220 Off ch=13 n=87 v=64
414240 On ch=13 n=63 v=32
414240 On ch=13 n=75 v=32
414240 On ch=13 n=87 v=32
414280 Off ch=13 n=77 v=64
414280 Off ch=13 n=65 v=64
414280 Off ch=13 n=89 v=64
414300 On ch=13 n=89 v=27
414300 On ch=13 n=65 v=27
414300 On ch=13 n=77 v=27
414309 Par ch=13 c=7 v=57
414340 Off ch=13 n=63 v=64
414340 Off ch=13 n=75 v=64
414340 Off ch=13 n=87 v=64
414360 On ch=13 n=63 v=32
414360 On ch=13 n=87 v=32
414360 On ch=13 n=75 v=32
414400 Off ch=13 n=89 v=64
414400 Off ch=13 n=65 v=64
414400 Off ch=13 n=77 v=64
414420 On ch=13 n=77 v=27
414420 On ch=13 n=65 v=27
414420 On ch=13 n=89 v=27
414460 Off ch=13 n=63 v=64
414460 Off ch=13 n=87 v=64
414460 Off ch=13 n=75 v=64
414480 On ch=13 n=63 v=32
414480 On ch=13 n=75 v=32
414480 On ch=13 n=87 v=32
414490 Par ch=13 c=7 v=56
414520 Off ch=13 n=77 v=64
414520 Off ch=13 n=65 v=64
414520 Off ch=13 n=89 v=64
414540 On ch=13 n=89 v=27
414540 On ch=13 n=65 v=27
414540 On ch=13 n=77 v=27
414580 Off ch=13 n=63 v=64
414580 Off ch=13 n=75 v=64
414580 Off ch=13 n=87 v=64
414600 On ch=13 n=63 v=32
414600 On ch=13 n=75 v=32
414600 On ch=13 n=87 v=32
414640 Off ch=13 n=89 v=64
414640 Off ch=13 n=65 v=64
414640 Off ch=13 n=77 v=64
414660 On ch=13 n=89 v=27
414660 On ch=13 n=65 v=27
414660 On ch=13 n=77 v=27
414671 Par ch=13 c=7 v=55
414700 Off ch=13 n=63 v=64
414700 Off ch=13 n=75 v=64
414700 Off ch=13 n=87 v=64
414720 On ch=13 n=63 v=32
414720 On ch=13 n=75 v=32
414720 On ch=13 n=87 v=32
414760 Off ch=13 n=89 v=64
414760 Off ch=13 n=65 v=64
414760 Off ch=13 n=77 v=64
414780 On ch=13 n=65 v=27
414780 On ch=13 n=77 v=27
414780 On ch=13 n=89 v=27
414820 Off ch=13 n=63 v=64
414820 Off ch=13 n=75 v=64
414820 Off ch=13 n=87 v=64
414840 On ch=13 n=63 v=32
414840 On ch=13 n=75 v=32
414840 On ch=13 n=87 v=32
414852 Par ch=13 c=7 v=54
414880 Off ch=13 n=65 v=64
414880 Off ch=13 n=77 v=64
414880 Off ch=13 n=89 v=64
414900 On ch=13 n=65 v=27
414900 On ch=13 n=89 v=27
414900 On ch=13 n=77 v=27
414940 Off ch=13 n=63 v=64
414940 Off ch=13 n=75 v=64
414940 Off ch=13 n=87 v=64
414960 On ch=13 n=63 v=32
414960 On ch=13 n=75 v=32
414960 On ch=13 n=87 v=32
415000 Off ch=13 n=65 v=64
415000 Off ch=13 n=89 v=64
415000 Off ch=13 n=77 v=64
415020 On ch=13 n=89 v=27
415020 On ch=13 n=65 v=27
415020 On ch=13 n=77 v=27
415033 Par ch=13 c=7 v=53
415060 Off ch=13 n=63 v=64
415060 Off ch=13 n=75 v=64
415060 Off ch=13 n=87 v=64
415080 On ch=13 n=75 v=32
415080 On ch=13 n=63 v=32
415080 On ch=13 n=87 v=32
415120 Off ch=13 n=89 v=64
415120 Off ch=13 n=65 v=64
415120 Off ch=13 n=77 v=64
415140 On ch=13 n=65 v=27
415140 On ch=13 n=89 v=27
415140 On ch=13 n=77 v=27
415180 Off ch=13 n=75 v=64
415180 Off ch=13 n=63 v=64
415180 Off ch=13 n=87 v=64
415200 On ch=13 n=63 v=32
415200 On ch=13 n=75 v=32
415200 On ch=13 n=87 v=32
415215 Par ch=13 c=7 v=52
415240 Off ch=13 n=65 v=64
415240 Off ch=13 n=89 v=64
415240 Off ch=13 n=77 v=64
415260 On ch=13 n=89 v=27
415260 On ch=13 n=65 v=27
415260 On ch=13 n=77 v=27
415300 Off ch=13 n=63 v=64
415300 Off ch=13 n=75 v=64
415300 Off ch=13 n=87 v=64
415320 On ch=13 n=63 v=32
415320 On ch=13 n=75 v=32
415320 On ch=13 n=87 v=32
415360 Off ch=13 n=89 v=64
415360 Off ch=13 n=65 v=64
415360 Off ch=13 n=77 v=64
415380 On ch=13 n=89 v=27
415380 On ch=13 n=77 v=27
415380 On ch=13 n=65 v=27
415396 Par ch=13 c=7 v=51
415420 Off ch=13 n=63 v=64
415420 Off ch=13 n=75 v=64
415420 Off ch=13 n=87 v=64
415440 On ch=13 n=63 v=32
415440 On ch=13 n=75 v=32
415440 On ch=13 n=87 v=32
415480 Off ch=13 n=89 v=64
415480 Off ch=13 n=77 v=64
415480 Off ch=13 n=65 v=64
415500 On ch=13 n=65 v=27
415500 On ch=13 n=89 v=27
415500 On ch=13 n=77 v=27
415540 Off ch=13 n=63 v=64
415540 Off ch=13 n=75 v=64
415540 Off ch=13 n=87 v=64
415560 On ch=13 n=63 v=32
415560 On ch=13 n=75 v=32
415560 On ch=13 n=87 v=32
415577 Par ch=13 c=7 v=50
415600 Off ch=13 n=65 v=64
415600 Off ch=13 n=89 v=64
415600 Off ch=13 n=77 v=64
415620 On ch=13 n=89 v=27
415620 On ch=13 n=65 v=27
415620 On ch=13 n=77 v=27
415660 Off ch=13 n=63 v=64
415660 Off ch=13 n=75 v=64
415660 Off ch=13 n=87 v=64
415680 On ch=13 n=63 v=32
415680 On ch=13 n=75 v=32
415680 On ch=13 n=87 v=32
415720 Off ch=13 n=89 v=64
415720 Off ch=13 n=65 v=64
415720 Off ch=13 n=77 v=64
415758 Par ch=13 c=7 v=49
415780 Off ch=13 n=63 v=64
415780 Off ch=13 n=75 v=64
415780 Off ch=13 n=87 v=64
415939 Par ch=13 c=7 v=48
416120 Par ch=13 c=7 v=47
416301 Par ch=13 c=7 v=46
416482 Par ch=13 c=7 v=45
416663 Par ch=13 c=7 v=44
445292 Par ch=13 c=7 v=100
445440 On ch=13 n=89 v=50
445480 On ch=13 n=90 v=49
445500 Off ch=13 n=89 v=64
445520 On ch=13 n=89 v=49
445540 Off ch=13 n=90 v=64
445560 On ch=13 n=90 v=48
445580 Off ch=13 n=89 v=64
445600 On ch=13 n=89 v=48
445620 Off ch=13 n=90 v=64
445640 On ch=13 n=90 v=48
445660 Off ch=13 n=89 v=64
445680 On ch=13 n=89 v=47
445700 Off ch=13 n=90 v=64
445720 On ch=13 n=90 v=47
445740 Off ch=13 n=89 v=64
445760 On ch=13 n=89 v=47
445780 Off ch=13 n=90 v=64
445800 On ch=13 n=90 v=46
445820 Off ch=13 n=89 v=64
445840 On ch=13 n=89 v=46
445860 Off ch=13 n=90 v=64
445880 On ch=13 n=90 v=45
445900 Off ch=13 n=89 v=64
445920 On ch=13 n=89 v=45
445940 Off ch=13 n=90 v=64
445960 On ch=13 n=90 v=45
445980 Off ch=13 n=89 v=64
446000 On ch=13 n=89 v=44
446020 Off ch=13 n=90 v=64
446040 On ch=13 n=90 v=44
446060 Off ch=13 n=89 v=64
446080 On ch=13 n=89 v=44
446100 Off ch=13 n=90 v=64
446120 On ch=13 n=90 v=43
446140 Off ch=13 n=89 v=64
446160 On ch=13 n=89 v=43
446180 Off ch=13 n=90 v=64
446200 On ch=13 n=90 v=42
446220 Off ch=13 n=89 v=64
446240 On ch=13 n=89 v=42
446260 Off ch=13 n=90 v=64
446280 On ch=13 n=90 v=42
446300 Off ch=13 n=89 v=64
446320 On ch=13 n=89 v=41
446340 Off ch=13 n=90 v=64
446360 On ch=13 n=90 v=41
446380 Off ch=13 n=89 v=64
446400 On ch=13 n=89 v=41
446420 Off ch=13 n=90 v=64
446440 On ch=13 n=90 v=40
446460 Off ch=13 n=89 v=64
446480 On ch=13 n=89 v=40
446500 Off ch=13 n=90 v=64
446540 Off ch=13 n=89 v=64
446640 On ch=13 n=89 v=50
446720 Off ch=13 n=89 v=64
446720 On ch=13 n=87 v=50
446800 Off ch=13 n=87 v=64
446800 On ch=13 n=85 v=50
446880 Off ch=13 n=85 v=64
446880 On ch=13 n=84 v=48
446920 On ch=13 n=85 v=47
446940 Off ch=13 n=84 v=64
446960 On ch=13 n=84 v=47
446980 Off ch=13 n=85 v=64
447000 On ch=13 n=85 v=47
447020 Off ch=13 n=84 v=64
447040 On ch=13 n=84 v=47
447060 Off ch=13 n=85 v=64
447080 On ch=13 n=85 v=46
447100 Off ch=13 n=84 v=64
447120 On ch=13 n=84 v=46
447140 Off ch=13 n=85 v=64
447160 On ch=13 n=85 v=46
447180 Off ch=13 n=84 v=64
447200 On ch=13 n=84 v=46
447220 Off ch=13 n=85 v=64
447240 On ch=13 n=85 v=46
447260 Off ch=13 n=84 v=64
447280 On ch=13 n=84 v=45
447300 Off ch=13 n=85 v=64
447320 On ch=13 n=85 v=45
447340 Off ch=13 n=84 v=64
447360 On ch=13 n=84 v=45
447380 Off ch=13 n=85 v=64
447400 On ch=13 n=85 v=45
447420 Off ch=13 n=84 v=64
447440 On ch=13 n=84 v=45
447460 Off ch=13 n=85 v=64
447480 On ch=13 n=85 v=44
447500 Off ch=13 n=84 v=64
447520 On ch=13 n=84 v=44
447540 Off ch=13 n=85 v=64
447560 On ch=13 n=85 v=44
447580 Off ch=13 n=84 v=64
447600 On ch=13 n=84 v=44
447620 Off ch=13 n=85 v=64
447640 On ch=13 n=85 v=44
447660 Off ch=13 n=84 v=64
447680 On ch=13 n=84 v=43
447700 Off ch=13 n=85 v=64
447720 On ch=13 n=85 v=43
447740 Off ch=13 n=84 v=64
447760 On ch=13 n=84 v=43
447780 Off ch=13 n=85 v=64
447800 On ch=13 n=85 v=43
447820 Off ch=13 n=84 v=64
447840 On ch=13 n=84 v=43
447860 Off ch=13 n=85 v=64
447880 On ch=13 n=85 v=42
447900 Off ch=13 n=84 v=64
447920 On ch=13 n=84 v=42
447940 Off ch=13 n=85 v=64
447960 On ch=13 n=85 v=42
447980 Off ch=13 n=84 v=64
448000 On ch=13 n=84 v=42
448020 Off ch=13 n=85 v=64
448040 On ch=13 n=85 v=42
448060 Off ch=13 n=84 v=64
448080 On ch=13 n=84 v=41
448100 Off ch=13 n=85 v=64
448120 On ch=13 n=85 v=41
448140 Off ch=13 n=84 v=64
448160 On ch=13 n=84 v=41
448180 Off ch=13 n=85 v=64
448200 On ch=13 n=85 v=41
448220 Off ch=13 n=84 v=64
448240 On ch=13 n=84 v=41
448260 Off ch=13 n=85 v=64
448280 On ch=13 n=85 v=40
448300 Off ch=13 n=84 v=64
448320 On ch=13 n=84 v=40
448340 Off ch=13 n=85 v=64
448360 On ch=13 n=85 v=40
448380 Off ch=13 n=84 v=64
448400 On ch=13 n=84 v=40
448420 Off ch=13 n=85 v=64
448440 On ch=13 n=85 v=40
448460 Off ch=13 n=84 v=64
448480 On ch=13 n=84 v=39
448500 Off ch=13 n=85 v=64
448520 On ch=13 n=85 v=39
448540 Off ch=13 n=84 v=64
448560 On ch=13 n=84 v=39
448580 Off ch=13 n=85 v=64
448600 On ch=13 n=85 v=39
448620 Off ch=13 n=84 v=64
448640 On ch=13 n=84 v=39
448660 Off ch=13 n=85 v=64
448680 On ch=13 n=85 v=38
448700 Off ch=13 n=84 v=64
448720 On ch=13 n=84 v=38
448740 Off ch=13 n=85 v=64
448760 On ch=13 n=85 v=38
448780 Off ch=13 n=84 v=64
448800 On ch=13 n=84 v=38
448820 Off ch=13 n=85 v=64
448860 Off ch=13 n=84 v=64
449040 On ch=13 n=84 v=50
449120 Off ch=13 n=84 v=64
449120 On ch=13 n=85 v=50
449200 Off ch=13 n=85 v=64
449200 On ch=13 n=87 v=50
449280 Off ch=13 n=87 v=64
449280 On ch=13 n=89 v=50
449408 Off ch=13 n=89 v=64
449520 On ch=13 n=89 v=50
449600 Off ch=13 n=89 v=64
449600 On ch=13 n=87 v=50
449680 Off ch=13 n=87 v=64
449680 On ch=13 n=85 v=50
449760 Off ch=13 n=85 v=64
449760 On ch=13 n=84 v=49
449800 On ch=13 n=85 v=49
449820 Off ch=13 n=84 v=64
449840 On ch=13 n=84 v=48
449860 Off ch=13 n=85 v=64
449880 On ch=13 n=85 v=47
449900 Off ch=13 n=84 v=64
449920 On ch=13 n=84 v=47
449940 Off ch=13 n=85 v=64
449960 On ch=13 n=85 v=46
449980 Off ch=13 n=84 v=64
450000 On ch=13 n=84 v=45
450020 Off ch=13 n=85 v=64
450040 On ch=13 n=85 v=45
450060 Off ch=13 n=84 v=64
450080 On ch=13 n=84 v=44
450100 Off ch=13 n=85 v=64
450120 On ch=13 n=85 v=43
450140 Off ch=13 n=84 v=64
450160 On ch=13 n=84 v=43
450180 Off ch=13 n=85 v=64
450200 On ch=13 n=85 v=42
450220 Off ch=13 n=84 v=64
450240 On ch=13 n=84 v=41
450260 Off ch=13 n=85 v=64
450280 On ch=13 n=85 v=41
450300 Off ch=13 n=84 v=64
450320 On ch=13 n=84 v=40
450340 Off ch=13 n=85 v=64
450380 Off ch=13 n=84 v=64
450480 On ch=13 n=84 v=50
450560 Off ch=13 n=84 v=64
450560 On ch=13 n=85 v=50
450640 Off ch=13 n=85 v=64
450640 On ch=13 n=87 v=50
450720 Off ch=13 n=87 v=64
450720 On ch=13 n=89 v=50
450760 On ch=13 n=90 v=49
450780 Off ch=13 n=89 v=64
450800 On ch=13 n=89 v=49
450820 Off ch=13 n=90 v=64
450840 On ch=13 n=90 v=49
450860 Off ch=13 n=89 v=64
450880 On ch=13 n=89 v=49
450900 Off ch=13 n=90 v=64
450920 On ch=13 n=90 v=49
450940 Off ch=13 n=89 v=64
450960 On ch=13 n=89 v=48
450980 Off ch=13 n=90 v=64
451000 On ch=13 n=90 v=48
451020 Off ch=13 n=89 v=64
451040 On ch=13 n=89 v=48
451060 Off ch=13 n=90 v=64
451080 On ch=13 n=90 v=48
451100 Off ch=13 n=89 v=64
451120 On ch=13 n=89 v=48
451140 Off ch=13 n=90 v=64
451160 On ch=13 n=90 v=47
451180 Off ch=13 n=89 v=64
451200 On ch=13 n=89 v=47
451220 Off ch=13 n=90 v=64
451240 On ch=13 n=90 v=47
451260 Off ch=13 n=89 v=64
451280 On ch=13 n=89 v=47
451300 Off ch=13 n=90 v=64
451320 On ch=13 n=90 v=47
451340 Off ch=13 n=89 v=64
451360 On ch=13 n=89 v=46
451380 Off ch=13 n=90 v=64
451400 On ch=13 n=90 v=46
451420 Off ch=13 n=89 v=64
451440 On ch=13 n=89 v=46
451460 Off ch=13 n=90 v=64
451480 On ch=13 n=90 v=46
451500 Off ch=13 n=89 v=64
451520 On ch=13 n=89 v=46
451540 Off ch=13 n=90 v=64
451560 On ch=13 n=90 v=45
451580 Off ch=13 n=89 v=64
451600 On ch=13 n=89 v=45
451620 Off ch=13 n=90 v=64
451640 On ch=13 n=90 v=45
451660 Off ch=13 n=89 v=64
451680 On ch=13 n=89 v=45
451700 Off ch=13 n=90 v=64
451720 On ch=13 n=90 v=45
451740 Off ch=13 n=89 v=64
451760 On ch=13 n=89 v=44
451780 Off ch=13 n=90 v=64
451800 On ch=13 n=90 v=44
451820 Off ch=13 n=89 v=64
451840 On ch=13 n=89 v=44
451860 Off ch=13 n=90 v=64
451880 On ch=13 n=90 v=44
451900 Off ch=13 n=89 v=64
451920 On ch=13 n=89 v=44
451940 Off ch=13 n=90 v=64
451960 On ch=13 n=90 v=43
451980 Off ch=13 n=89 v=64
452000 On ch=13 n=89 v=43
452020 Off ch=13 n=90 v=64
452040 On ch=13 n=90 v=43
452060 Off ch=13 n=89 v=64
452080 On ch=13 n=89 v=43
452100 Off ch=13 n=90 v=64
452120 On ch=13 n=90 v=43
452140 Off ch=13 n=89 v=64
452160 On ch=13 n=89 v=42
452180 Off ch=13 n=90 v=64
452200 On ch=13 n=90 v=42
452220 Off ch=13 n=89 v=64
452240 On ch=13 n=89 v=42
452260 Off ch=13 n=90 v=64
452280 On ch=13 n=90 v=42
452300 Off ch=13 n=89 v=64
452320 On ch=13 n=89 v=42
452340 Off ch=13 n=90 v=64
452360 On ch=13 n=90 v=41
452380 Off ch=13 n=89 v=64
452400 On ch=13 n=89 v=41
452420 Off ch=13 n=90 v=64
452440 On ch=13 n=90 v=41
452460 Off ch=13 n=89 v=64
452480 On ch=13 n=89 v=41
452500 Off ch=13 n=90 v=64
452520 On ch=13 n=90 v=41
452540 Off ch=13 n=89 v=64
452560 On ch=13 n=89 v=40
452580 Off ch=13 n=90 v=64
452600 On ch=13 n=90 v=40
452620 Off ch=13 n=89 v=64
452640 On ch=13 n=89 v=40
452660 Off ch=13 n=90 v=64
452680 On ch=13 n=90 v=40
452700 Off ch=13 n=89 v=64
452720 On ch=13 n=89 v=40
452740 Off ch=13 n=90 v=64
452760 On ch=13 n=90 v=40
452780 Off ch=13 n=89 v=64
452800 On ch=13 n=89 v=39
452820 Off ch=13 n=90 v=64
452840 On ch=13 n=90 v=39
452860 Off ch=13 n=89 v=64
452880 On ch=13 n=89 v=39
452900 Off ch=13 n=90 v=64
452920 On ch=13 n=90 v=39
452940 Off ch=13 n=89 v=64
452960 On ch=13 n=89 v=39
452980 Off ch=13 n=90 v=64
453000 On ch=13 n=90 v=38
453020 Off ch=13 n=89 v=64
453040 On ch=13 n=89 v=38
453060 Off ch=13 n=90 v=64
453080 On ch=13 n=90 v=38
453100 Off ch=13 n=89 v=64
453120 On ch=13 n=89 v=38
453140 Off ch=13 n=90 v=64
453160 On ch=13 n=90 v=38
453180 Off ch=13 n=89 v=64
453200 On ch=13 n=89 v=37
453220 Off ch=13 n=90 v=64
453240 On ch=13 n=90 v=37
453260 Off ch=13 n=89 v=64
453280 On ch=13 n=89 v=37
453300 Off ch=13 n=90 v=64
453320 On ch=13 n=90 v=37
453340 Off ch=13 n=89 v=64
453360 On ch=13 n=89 v=37
453380 Off ch=13 n=90 v=64
453400 On ch=13 n=90 v=36
453420 Off ch=13 n=89 v=64
453440 On ch=13 n=89 v=36
453460 Off ch=13 n=90 v=64
453480 On ch=13 n=90 v=36
453500 Off ch=13 n=89 v=64
453520 On ch=13 n=89 v=36
453540 Off ch=13 n=90 v=64
453560 On ch=13 n=90 v=36
453580 Off ch=13 n=89 v=64
453620 Off ch=13 n=90 v=64
524160 Meta TrkEnd
TrkEnd
MTrk
0 Meta InstrName "SC-88VL"
0 Meta TrkName "CLa"
480 Par ch=14 c=0 v=0
480 Par ch=14 c=32 v=1
480 PrCh ch=14 p=68
960 Par ch=14 c=93 v=0
960 Par ch=14 c=91 v=110
970 Par ch=14 c=7 v=100
44160 On ch=14 n=70 v=54
44248 Off ch=14 n=70 v=64
44320 On ch=14 n=70 v=54
44364 Off ch=14 n=70 v=64
44400 On ch=14 n=70 v=54
44444 Off ch=14 n=70 v=64
44480 On ch=14 n=70 v=54
44524 Off ch=14 n=70 v=64
44560 On ch=14 n=70 v=54
44604 Off ch=14 n=70 v=64
44640 On ch=14 n=70 v=54
44728 Off ch=14 n=70 v=64
44800 On ch=14 n=70 v=54
44844 Off ch=14 n=70 v=64
44880 On ch=14 n=70 v=54
44924 Off ch=14 n=70 v=64
44960 On ch=14 n=70 v=54
45004 Off ch=14 n=70 v=64
45040 On ch=14 n=70 v=54
45084 Off ch=14 n=70 v=64
45120 On ch=14 n=70 v=54
45150 Off ch=14 n=70 v=64
45150 On ch=14 n=72 v=53
45180 Off ch=14 n=72 v=64
45180 On ch=14 n=70 v=52
45210 Off ch=14 n=70 v=64
45210 On ch=14 n=72 v=52
45240 Off ch=14 n=72 v=64
45240 On ch=14 n=70 v=51
45270 Off ch=14 n=70 v=64
45270 On ch=14 n=72 v=51
45300 Off ch=14 n=72 v=64
45300 On ch=14 n=70 v=50
45330 Off ch=14 n=70 v=64
45330 On ch=14 n=72 v=49
45360 Off ch=14 n=72 v=64
45360 On ch=14 n=70 v=49
45390 Off ch=14 n=70 v=64
45390 On ch=14 n=72 v=48
45420 Off ch=14 n=72 v=64
45420 On ch=14 n=70 v=48
45450 Off ch=14 n=70 v=64
45450 On ch=14 n=72 v=47
45480 Off ch=14 n=72 v=64
45480 On ch=14 n=70 v=46
45510 Off ch=14 n=70 v=64
45510 On ch=14 n=72 v=46
45540 Off ch=14 n=72 v=64
45540 On ch=14 n=70 v=45
45570 Off ch=14 n=70 v=64
45570 On ch=14 n=72 v=45
45600 Off ch=14 n=72 v=64
45600 On ch=14 n=70 v=44
45630 Off ch=14 n=70 v=64
45630 On ch=14 n=72 v=44
45660 Off ch=14 n=72 v=64
45660 On ch=14 n=70 v=44
45690 Off ch=14 n=70 v=64
45690 On ch=14 n=72 v=44
45720 Off ch=14 n=72 v=64
45720 On ch=14 n=70 v=44
45750 Off ch=14 n=70 v=64
45750 On ch=14 n=72 v=44
45780 Off ch=14 n=72 v=64
45780 On ch=14 n=70 v=44
45810 Off ch=14 n=70 v=64
45810 On ch=14 n=72 v=44
45840 Off ch=14 n=72 v=64
45840 On ch=14 n=70 v=44
45870 Off ch=14 n=70 v=64
45870 On ch=14 n=72 v=44
45900 Off ch=14 n=72 v=64
45900 On ch=14 n=70 v=44
45930 Off ch=14 n=70 v=64
45930 On ch=14 n=72 v=44
45960 Off ch=14 n=72 v=64
45960 On ch=14 n=70 v=44
45990 Off ch=14 n=70 v=64
45990 On ch=14 n=72 v=44
46020 Off ch=14 n=72 v=64
46020 On ch=14 n=70 v=44
46050 Off ch=14 n=70 v=64
46050 On ch=14 n=72 v=44
46080 Off ch=14 n=72 v=64
46080 On ch=14 n=70 v=43
46110 Off ch=14 n=70 v=64
46110 On ch=14 n=72 v=43
46140 Off ch=14 n=72 v=64
46140 On ch=14 n=70 v=43
46170 Off ch=14 n=70 v=64
46170 On ch=14 n=72 v=43
46200 Off ch=14 n=72 v=64
46200 On ch=14 n=70 v=42
46230 Off ch=14 n=70 v=64
46230 On ch=14 n=72 v=42
46260 Off ch=14 n=72 v=64
46260 On ch=14 n=70 v=42
46290 Off ch=14 n=70 v=64
46290 On ch=14 n=72 v=42
46320 Off ch=14 n=72 v=64
46320 On ch=14 n=70 v=41
46350 Off ch=14 n=70 v=64
46350 On ch=14 n=72 v=41
46380 Off ch=14 n=72 v=64
46380 On ch=14 n=70 v=41
46410 Off ch=14 n=70 v=64
46410 On ch=14 n=72 v=41
46440 Off ch=14 n=72 v=64
46440 On ch=14 n=70 v=41
46470 Off ch=14 n=70 v=64
46470 On ch=14 n=72 v=40
46500 Off ch=14 n=72 v=64
46500 On ch=14 n=70 v=40
46530 Off ch=14 n=70 v=64
46530 On ch=14 n=72 v=40
46560 Off ch=14 n=72 v=64
46560 On ch=14 n=70 v=40
46590 Off ch=14 n=70 v=64
46590 On ch=14 n=72 v=39
46620 Off ch=14 n=72 v=64
46620 On ch=14 n=70 v=39
46650 Off ch=14 n=70 v=64
46650 On ch=14 n=72 v=39
46680 Off ch=14 n=72 v=64
46680 On ch=14 n=70 v=39
46710 Off ch=14 n=70 v=64
46710 On ch=14 n=72 v=38
46740 Off ch=14 n=72 v=64
46740 On ch=14 n=70 v=38
46770 Off ch=14 n=70 v=64
46770 On ch=14 n=72 v=38
46800 Off ch=14 n=72 v=64
46800 On ch=14 n=70 v=38
46830 Off ch=14 n=70 v=64
46830 On ch=14 n=72 v=37
46860 Off ch=14 n=72 v=64
46860 On ch=14 n=70 v=37
46890 Off ch=14 n=70 v=64
46890 On ch=14 n=72 v=37
46920 Off ch=14 n=72 v=64
46920 On ch=14 n=70 v=37
46950 Off ch=14 n=70 v=64
46950 On ch=14 n=72 v=36
46980 Off ch=14 n=72 v=64
46980 On ch=14 n=70 v=36
47010 Off ch=14 n=70 v=64
47010 On ch=14 n=72 v=36
47040 Off ch=14 n=72 v=64
48000 On ch=14 n=70 v=43
48030 Off ch=14 n=70 v=64
48030 On ch=14 n=72 v=43
48060 Off ch=14 n=72 v=64
48060 On ch=14 n=70 v=43
48090 Off ch=14 n=70 v=64
48090 On ch=14 n=72 v=43
48120 Off ch=14 n=72 v=64
48120 On ch=14 n=70 v=42
48150 Off ch=14 n=70 v=64
48150 On ch=14 n=72 v=42
48180 Off ch=14 n=72 v=64
48180 On ch=14 n=70 v=42
48210 Off ch=14 n=70 v=64
48210 On ch=14 n=72 v=42
48240 Off ch=14 n=72 v=64
48240 On ch=14 n=70 v=41
48270 Off ch=14 n=70 v=64
48270 On ch=14 n=72 v=41
48300 Off ch=14 n=72 v=64
48300 On ch=14 n=70 v=41
48330 Off ch=14 n=70 v=64
48330 On ch=14 n=72 v=41
48360 Off ch=14 n=72 v=64
48360 On ch=14 n=70 v=41
48390 Off ch=14 n=70 v=64
48390 On ch=14 n=72 v=40
48420 Off ch=14 n=72 v=64
48420 On ch=14 n=70 v=40
48450 Off ch=14 n=70 v=64
48450 On ch=14 n=72 v=40
48480 Off ch=14 n=72 v=64
48480 On ch=14 n=70 v=40
48510 Off ch=14 n=70 v=64
48510 On ch=14 n=72 v=39
48540 Off ch=14 n=72 v=64
48540 On ch=14 n=70 v=39
48570 Off ch=14 n=70 v=64
48570 On ch=14 n=72 v=39
48600 Off ch=14 n=72 v=64
48600 On ch=14 n=70 v=39
48630 Off ch=14 n=70 v=64
48630 On ch=14 n=72 v=38
48660 Off ch=14 n=72 v=64
48660 On ch=14 n=70 v=38
48690 Off ch=14 n=70 v=64
48690 On ch=14 n=72 v=38
48720 Off ch=14 n=72 v=64
48720 On ch=14 n=70 v=38
48750 Off ch=14 n=70 v=64
48750 On ch=14 n=72 v=37
48780 Off ch=14 n=72 v=64
48780 On ch=14 n=70 v=37
48810 Off ch=14 n=70 v=64
48810 On ch=14 n=72 v=37
48840 Off ch=14 n=72 v=64
48840 On ch=14 n=70 v=37
48870 Off ch=14 n=70 v=64
48870 On ch=14 n=72 v=36
48900 Off ch=14 n=72 v=64
48900 On ch=14 n=70 v=36
48930 Off ch=14 n=70 v=64
48930 On ch=14 n=72 v=36
48960 Off ch=14 n=72 v=64
66480 On ch=14 n=84 v=54
66480 On ch=14 n=80 v=54
66498 Off ch=14 n=84 v=64
66498 Off ch=14 n=80 v=64
66514 On ch=14 n=83 v=54
66514 On ch=14 n=79 v=54
66532 Off ch=14 n=83 v=64
66532 Off ch=14 n=79 v=64
66548 On ch=14 n=78 v=54
66548 On ch=14 n=82 v=54
66566 Off ch=14 n=78 v=64
66566 Off ch=14 n=82 v=64
66582 On ch=14 n=81 v=54
66582 On ch=14 n=77 v=54
66601 Off ch=14 n=81 v=64
66601 Off ch=14 n=77 v=64
66617 On ch=14 n=80 v=54
66617 On ch=14 n=76 v=54
66635 Off ch=14 n=80 v=64
66635 Off ch=14 n=76 v=64
66651 On ch=14 n=79 v=54
66651 On ch=14 n=75 v=54
66669 Off ch=14 n=79 v=64
66669 Off ch=14 n=75 v=64
66685 On ch=14 n=78 v=54
66685 On ch=14 n=74 v=54
66704 Off ch=14 n=78 v=64
66704 Off ch=14 n=74 v=64
66720 On ch=14 n=77 v=54
66720 On ch=14 n=73 v=54
66828 Off ch=14 n=77 v=64
66828 Off ch=14 n=73 v=64
67200 On ch=14 n=82 v=68
67326 Off ch=14 n=82 v=64
67440 On ch=14 n=77 v=62
67728 Off ch=14 n=77 v=64
67776 On ch=14 n=70 v=62
67830 Off ch=14 n=70 v=64
67872 On ch=14 n=75 v=62
67926 Off ch=14 n=75 v=64
67968 On ch=14 n=80 v=62
68022 Off ch=14 n=80 v=64
68064 On ch=14 n=82 v=62
68118 Off ch=14 n=82 v=64
68160 On ch=14 n=84 v=54
68160 On ch=14 n=80 v=54
68160 On ch=14 n=77 v=62
68178 Off ch=14 n=84 v=64
68178 Off ch=14 n=80 v=64
68194 On ch=14 n=83 v=54
68194 On ch=14 n=79 v=54
68212 Off ch=14 n=83 v=64
68212 Off ch=14 n=79 v=64
68228 On ch=14 n=82 v=54
68228 On ch=14 n=78 v=54
68240 Off ch=14 n=77 v=64
68240 On ch=14 n=70 v=63
68246 Off ch=14 n=82 v=64
68246 Off ch=14 n=78 v=64
68262 On ch=14 n=81 v=54
68262 On ch=14 n=77 v=54
68281 Off ch=14 n=81 v=64
68281 Off ch=14 n=77 v=64
68297 On ch=14 n=76 v=54
68297 On ch=14 n=80 v=54
68315 Off ch=14 n=76 v=64
68315 Off ch=14 n=80 v=64
68320 Off ch=14 n=70 v=64
68320 On ch=14 n=75 v=61
68331 On ch=14 n=79 v=54
68331 On ch=14 n=75 v=54
68349 Off ch=14 n=75 v=64
68349 Off ch=14 n=79 v=64
68349 Off ch=14 n=75 v=64
68365 On ch=14 n=78 v=54
68365 On ch=14 n=74 v=54
68384 Off ch=14 n=78 v=64
68384 Off ch=14 n=74 v=64
68400 On ch=14 n=77 v=54
68400 On ch=14 n=73 v=54
68400 On ch=14 n=80 v=59
68480 Off ch=14 n=80 v=64
68480 On ch=14 n=82 v=57
68496 Off ch=14 n=77 v=64
68496 Off ch=14 n=73 v=64
68560 Off ch=14 n=82 v=64
68560 On ch=14 n=77 v=55
68640 Off ch=14 n=77 v=64
68640 On ch=14 n=82 v=68
68760 Off ch=14 n=82 v=64
69600 On ch=14 n=84 v=54
69600 On ch=14 n=80 v=54
69600 On ch=14 n=82 v=68
69618 Off ch=14 n=84 v=64
69618 Off ch=14 n=80 v=64
69634 On ch=14 n=83 v=54
69634 On ch=14 n=79 v=54
69652 Off ch=14 n=83 v=64
69652 Off ch=14 n=79 v=64
69668 On ch=14 n=78 v=54
69668 On ch=14 n=82 v=54
69686 Off ch=14 n=82 v=64
69686 Off ch=14 n=78 v=64
69686 Off ch=14 n=82 v=64
69702 On ch=14 n=81 v=54
69702 On ch=14 n=77 v=54
69721 Off ch=14 n=81 v=64
69721 Off ch=14 n=77 v=64
69737 On ch=14 n=76 v=54
69737 On ch=14 n=80 v=54
69755 Off ch=14 n=76 v=64
69755 Off ch=14 n=80 v=64
69771 On ch=14 n=79 v=54
69771 On ch=14 n=75 v=54
69789 Off ch=14 n=79 v=64
69789 Off ch=14 n=75 v=64
69805 On ch=14 n=78 v=54
69805 On ch=14 n=74 v=54
69824 Off ch=14 n=78 v=64
69824 Off ch=14 n=74 v=64
69840 On ch=14 n=77 v=54
69840 On ch=14 n=73 v=54
69880 On ch=14 n=80 v=68
69920 Off ch=14 n=80 v=64
69920 On ch=14 n=82 v=66
69936 Off ch=14 n=77 v=64
69936 Off ch=14 n=73 v=64
69960 Off ch=14 n=82 v=64
69960 On ch=14 n=80 v=64
70000 Off ch=14 n=80 v=64
70000 On ch=14 n=82 v=62
70040 Off ch=14 n=82 v=64
70040 On ch=14 n=80 v=61
70080 Off ch=14 n=80 v=64
70080 On ch=14 n=82 v=65
70160 Off ch=14 n=82 v=64
70160 On ch=14 n=70 v=64
70240 Off ch=14 n=70 v=64
70240 On ch=14 n=75 v=64
70320 Off ch=14 n=75 v=64
70320 On ch=14 n=80 v=63
70400 Off ch=14 n=80 v=64
70400 On ch=14 n=82 v=62
70480 Off ch=14 n=82 v=64
70480 On ch=14 n=77 v=61
70560 Off ch=14 n=77 v=64
70560 On ch=14 n=70 v=60
70680 Off ch=14 n=70 v=64
70800 On ch=14 n=84 v=54
70800 On ch=14 n=80 v=54
70818 Off ch=14 n=84 v=64
70818 Off ch=14 n=80 v=64
70834 On ch=14 n=79 v=54
70834 On ch=14 n=83 v=54
70852 Off ch=14 n=79 v=64
70852 Off ch=14 n=83 v=64
70868 On ch=14 n=78 v=54
70868 On ch=14 n=82 v=54
70886 Off ch=14 n=78 v=64
70886 Off ch=14 n=82 v=64
70902 On ch=14 n=81 v=54
70902 On ch=14 n=77 v=54
70921 Off ch=14 n=81 v=64
70921 Off ch=14 n=77 v=64
70937 On ch=14 n=76 v=54
70937 On ch=14 n=80 v=54
70955 Off ch=14 n=76 v=64
70955 Off ch=14 n=80 v=64
70971 On ch=14 n=79 v=54
70971 On ch=14 n=75 v=54
70989 Off ch=14 n=79 v=64
70989 Off ch=14 n=75 v=64
71005 On ch=14 n=74 v=54
71005 On ch=14 n=78 v=54
71024 Off ch=14 n=74 v=64
71024 Off ch=14 n=78 v=64
71040 On ch=14 n=77 v=54
71040 On ch=14 n=73 v=54
71040 On ch=14 n=82 v=68
71140 Off ch=14 n=77 v=64
71140 Off ch=14 n=73 v=64
71166 Off ch=14 n=82 v=64
71280 On ch=14 n=77 v=62
71568 Off ch=14 n=77 v=64
71616 On ch=14 n=70 v=62
71670 Off ch=14 n=70 v=64
71712 On ch=14 n=75 v=62
71760 On ch=14 n=84 v=54
71760 On ch=14 n=80 v=54
71766 Off ch=14 n=75 v=64
71778 Off ch=14 n=84 v=64
71778 Off ch=14 n=80 v=64
71794 On ch=14 n=83 v=54
71794 On ch=14 n=79 v=54
71808 On ch=14 n=80 v=62
71812 Off ch=14 n=83 v=64
71812 Off ch=14 n=79 v=64
71828 On ch=14 n=78 v=54
71828 On ch=14 n=82 v=54
71846 Off ch=14 n=78 v=64
71846 Off ch=14 n=82 v=64
71862 Off ch=14 n=80 v=64
71862 On ch=14 n=81 v=54
71862 On ch=14 n=77 v=54
71881 Off ch=14 n=81 v=64
71881 Off ch=14 n=77 v=64
71897 On ch=14 n=76 v=54
71897 On ch=14 n=80 v=54
71904 On ch=14 n=82 v=62
71915 Off ch=14 n=76 v=64
71915 Off ch=14 n=80 v=64
71931 On ch=14 n=79 v=54
71931 On ch=14 n=75 v=54
71949 Off ch=14 n=79 v=64
71949 Off ch=14 n=75 v=64
71958 Off ch=14 n=82 v=64
71965 On ch=14 n=74 v=54
71965 On ch=14 n=78 v=54
71984 Off ch=14 n=74 v=64
71984 Off ch=14 n=78 v=64
72000 On ch=14 n=77 v=54
72000 On ch=14 n=73 v=54
72000 On ch=14 n=77 v=62
72080 Off ch=14 n=77 v=64
72080 Off ch=14 n=77 v=64
72080 On ch=14 n=70 v=63
72100 Off ch=14 n=73 v=64
72160 Off ch=14 n=70 v=64
72160 On ch=14 n=75 v=61
72240 Off ch=14 n=75 v=64
72240 On ch=14 n=80 v=59
72320 Off ch=14 n=80 v=64
72320 On ch=14 n=82 v=57
72400 Off ch=14 n=82 v=64
72400 On ch=14 n=77 v=55
72480 Off ch=14 n=77 v=64
72480 On ch=14 n=82 v=68
72600 Off ch=14 n=82 v=64
72960 On ch=14 n=84 v=54
72960 On ch=14 n=80 v=54
72964 On ch=14 n=82 v=63
72978 Off ch=14 n=84 v=64
72978 Off ch=14 n=80 v=64
72994 On ch=14 n=83 v=54
72994 On ch=14 n=79 v=54
73012 Off ch=14 n=83 v=64
73012 Off ch=14 n=79 v=64
73028 On ch=14 n=78 v=54
73028 On ch=14 n=82 v=54
73044 Off ch=14 n=82 v=64
73044 Off ch=14 n=82 v=64
73044 On ch=14 n=77 v=62
73046 Off ch=14 n=78 v=64
73062 On ch=14 n=77 v=54
73062 On ch=14 n=81 v=54
73081 Off ch=14 n=77 v=64
73081 Off ch=14 n=77 v=64
73081 Off ch=14 n=81 v=64
73097 On ch=14 n=76 v=54
73097 On ch=14 n=80 v=54
73115 Off ch=14 n=76 v=64
73115 Off ch=14 n=80 v=64
73124 On ch=14 n=70 v=60
73131 On ch=14 n=79 v=54
73131 On ch=14 n=75 v=54
73149 Off ch=14 n=79 v=64
73149 Off ch=14 n=75 v=64
73165 On ch=14 n=74 v=54
73165 On ch=14 n=78 v=54
73184 Off ch=14 n=74 v=64
73184 Off ch=14 n=78 v=64
73200 On ch=14 n=77 v=54
73200 On ch=14 n=73 v=54
73204 Off ch=14 n=70 v=64
73204 On ch=14 n=75 v=59
73284 Off ch=14 n=77 v=64
73284 Off ch=14 n=73 v=64
73284 Off ch=14 n=75 v=64
73284 On ch=14 n=80 v=58
73364 Off ch=14 n=80 v=64
73364 On ch=14 n=82 v=56
73444 Off ch=14 n=82 v=64
105120 Par ch=14 c=0 v=0
105120 Par ch=14 c=32 v=1
105120 PrCh ch=14 p=71
111185 Par ch=14 c=7 v=62
111600 On ch=14 n=72 v=62
111600 On ch=14 n=65 v=62
111600 On ch=14 n=51 v=62
111600 On ch=14 n=58 v=62
111630 Off ch=14 n=72 v=64
111630 Off ch=14 n=65 v=64
111630 Off ch=14 n=51 v=64
111630 Off ch=14 n=58 v=64
111680 On ch=14 n=79 v=62
111680 On ch=14 n=72 v=62
111680 On ch=14 n=65 v=62
111680 On ch=14 n=58 v=62
111710 Off ch=14 n=79 v=64
111710 Off ch=14 n=72 v=64
111710 Off ch=14 n=65 v=64
111710 Off ch=14 n=58 v=64
111760 On ch=14 n=86 v=62
111760 On ch=14 n=79 v=62
111760 On ch=14 n=65 v=62
111760 On ch=14 n=72 v=62
111790 Off ch=14 n=86 v=64
111790 Off ch=14 n=79 v=64
111790 Off ch=14 n=65 v=64
111790 Off ch=14 n=72 v=64
113280 On ch=14 n=72 v=62
113280 On ch=14 n=65 v=62
113280 On ch=14 n=51 v=62
113280 On ch=14 n=58 v=62
113310 Off ch=14 n=72 v=64
113310 Off ch=14 n=65 v=64
113310 Off ch=14 n=51 v=64
113310 Off ch=14 n=58 v=64
113360 On ch=14 n=79 v=62
113360 On ch=14 n=72 v=62
113360 On ch=14 n=65 v=62
113360 On ch=14 n=58 v=62
113390 Off ch=14 n=79 v=64
113390 Off ch=14 n=72 v=64
113390 Off ch=14 n=65 v=64
113390 Off ch=14 n=58 v=64
113440 On ch=14 n=86 v=62
113440 On ch=14 n=79 v=62
113440 On ch=14 n=65 v=62
113440 On ch=14 n=72 v=62
113470 Off ch=14 n=86 v=64
113470 Off ch=14 n=79 v=64
113470 Off ch=14 n=65 v=64
113470 Off ch=14 n=72 v=64
114480 On ch=14 n=72 v=62
114480 On ch=14 n=65 v=62
114480 On ch=14 n=51 v=62
114480 On ch=14 n=58 v=62
114510 Off ch=14 n=72 v=64
114510 Off ch=14 n=65 v=64
114510 Off ch=14 n=51 v=64
114510 Off ch=14 n=58 v=64
114560 On ch=14 n=79 v=62
114560 On ch=14 n=72 v=62
114560 On ch=14 n=65 v=62
114560 On ch=14 n=58 v=62
114590 Off ch=14 n=79 v=64
114590 Off ch=14 n=72 v=64
114590 Off ch=14 n=65 v=64
114590 Off ch=14 n=58 v=64
114640 On ch=14 n=86 v=62
114640 On ch=14 n=79 v=62
114640 On ch=14 n=65 v=62
114640 On ch=14 n=72 v=62
114670 Off ch=14 n=86 v=64
114670 Off ch=14 n=79 v=64
114670 Off ch=14 n=65 v=64
114670 Off ch=14 n=72 v=64
115680 On ch=14 n=84 v=60
115680 On ch=14 n=79 v=60
115720 Off ch=14 n=84 v=64
115720 Off ch=14 n=79 v=64
115760 On ch=14 n=83 v=58
115760 On ch=14 n=78 v=58
115800 Off ch=14 n=83 v=64
115800 Off ch=14 n=78 v=64
115840 On ch=14 n=82 v=56
115840 On ch=14 n=77 v=56
115880 Off ch=14 n=82 v=64
115880 Off ch=14 n=77 v=64
115920 On ch=14 n=81 v=55
115920 On ch=14 n=76 v=55
115960 Off ch=14 n=81 v=64
115960 Off ch=14 n=76 v=64
116000 On ch=14 n=80 v=53
116000 On ch=14 n=75 v=53
116040 Off ch=14 n=80 v=64
116040 Off ch=14 n=75 v=64
116080 On ch=14 n=79 v=51
116080 On ch=14 n=74 v=51
116120 Off ch=14 n=79 v=64
116120 Off ch=14 n=74 v=64
116160 On ch=14 n=78 v=50
116160 On ch=14 n=73 v=50
116160 On ch=14 n=73 v=50
116160 On ch=14 n=78 v=50
116200 Off ch=14 n=78 v=64
116200 Off ch=14 n=73 v=64
116200 Off ch=14 n=73 v=64
116200 Off ch=14 n=78 v=64
116240 On ch=14 n=72 v=48
116240 On ch=14 n=77 v=48
116280 Off ch=14 n=72 v=64
116280 Off ch=14 n=77 v=64
116320 On ch=14 n=71 v=46
116320 On ch=14 n=76 v=46
116360 Off ch=14 n=71 v=64
116360 Off ch=14 n=76 v=64
116400 On ch=14 n=70 v=44
116400 On ch=14 n=75 v=44
116440 Off ch=14 n=70 v=64
116440 Off ch=14 n=75 v=64
116480 On ch=14 n=69 v=43
116480 On ch=14 n=74 v=43
116520 Off ch=14 n=69 v=64
116520 Off ch=14 n=74 v=64
116560 On ch=14 n=68 v=41
116560 On ch=14 n=73 v=41
116600 Off ch=14 n=68 v=64
116600 Off ch=14 n=73 v=64
116640 On ch=14 n=67 v=39
116640 On ch=14 n=72 v=39
116680 Off ch=14 n=67 v=64
116680 Off ch=14 n=72 v=64
117120 On ch=14 n=84 v=58
117160 Off ch=14 n=84 v=64
117200 On ch=14 n=83 v=56
117240 Off ch=14 n=83 v=64
117280 On ch=14 n=82 v=55
117320 Off ch=14 n=82 v=64
117360 On ch=14 n=81 v=53
117360 On ch=14 n=76 v=53
117400 Off ch=14 n=81 v=64
117400 Off ch=14 n=76 v=64
117440 On ch=14 n=80 v=52
117440 On ch=14 n=75 v=52
117480 Off ch=14 n=80 v=64
117480 Off ch=14 n=75 v=64
117520 On ch=14 n=79 v=50
117520 On ch=14 n=74 v=50
117560 Off ch=14 n=79 v=64
117560 Off ch=14 n=74 v=64
117600 On ch=14 n=78 v=48
117600 On ch=14 n=73 v=48
117600 On ch=14 n=68 v=48
117640 Off ch=14 n=78 v=64
117640 Off ch=14 n=73 v=64
117640 Off ch=14 n=68 v=64
117680 On ch=14 n=77 v=47
117680 On ch=14 n=72 v=47
117680 On ch=14 n=67 v=47
117720 Off ch=14 n=77 v=64
117720 Off ch=14 n=72 v=64
117720 Off ch=14 n=67 v=64
117760 On ch=14 n=76 v=45
117760 On ch=14 n=71 v=45
117760 On ch=14 n=66 v=45
117800 Off ch=14 n=76 v=64
117800 Off ch=14 n=71 v=64
117800 Off ch=14 n=66 v=64
117840 On ch=14 n=75 v=44
117840 On ch=14 n=70 v=44
117840 On ch=14 n=65 v=44
117840 On ch=14 n=60 v=44
117880 Off ch=14 n=75 v=64
117880 Off ch=14 n=70 v=64
117880 Off ch=14 n=65 v=64
117880 Off ch=14 n=60 v=64
117920 On ch=14 n=74 v=42
117920 On ch=14 n=69 v=42
117920 On ch=14 n=59 v=42
117920 On ch=14 n=64 v=42
117960 Off ch=14 n=74 v=64
117960 Off ch=14 n=69 v=64
117960 Off ch=14 n=59 v=64
117960 Off ch=14 n=64 v=64
118000 On ch=14 n=73 v=41
118000 On ch=14 n=68 v=41
118000 On ch=14 n=63 v=41
118000 On ch=14 n=58 v=41
118040 Off ch=14 n=73 v=64
118040 Off ch=14 n=68 v=64
118040 Off ch=14 n=63 v=64
118040 Off ch=14 n=58 v=64
118080 On ch=14 n=72 v=39
118080 On ch=14 n=67 v=39
118080 On ch=14 n=62 v=39
118080 On ch=14 n=57 v=39
118120 Off ch=14 n=72 v=64
118120 Off ch=14 n=67 v=64
118120 Off ch=14 n=62 v=64
118120 Off ch=14 n=57 v=64
155520 On ch=14 n=79 v=88
155580 On ch=14 n=81 v=83
155607 Off ch=14 n=79 v=64
155640 On ch=14 n=79 v=78
155667 Off ch=14 n=81 v=64
155700 On ch=14 n=81 v=78
155727 Off ch=14 n=79 v=64
155760 On ch=14 n=79 v=77
155787 Off ch=14 n=81 v=64
155820 On ch=14 n=81 v=77
155847 Off ch=14 n=79 v=64
155880 On ch=14 n=79 v=77
155907 Off ch=14 n=81 v=64
155940 On ch=14 n=81 v=76
155967 Off ch=14 n=79 v=64
156000 On ch=14 n=79 v=78
156015 Off ch=14 n=81 v=64
156080 On ch=14 n=84 v=75
156095 Off ch=14 n=79 v=64
156160 On ch=14 n=79 v=73
156175 Off ch=14 n=84 v=64
156240 On ch=14 n=76 v=71
156255 Off ch=14 n=79 v=64
156320 On ch=14 n=72 v=67
156335 Off ch=14 n=76 v=64
156400 On ch=14 n=67 v=63
156415 Off ch=14 n=72 v=64
156480 On ch=14 n=60 v=59
156495 Off ch=14 n=67 v=64
156605 Off ch=14 n=60 v=64
195360 Par ch=14 c=0 v=0
195360 Par ch=14 c=32 v=1
195360 PrCh ch=14 p=45
197280 On ch=14 n=70 v=52
197280 On ch=14 n=63 v=52
197400 Off ch=14 n=70 v=64
197400 Off ch=14 n=63 v=64
197520 On ch=14 n=78 v=52
197520 On ch=14 n=72 v=52
197640 Off ch=14 n=78 v=64
197640 Off ch=14 n=72 v=64
197760 On ch=14 n=72 v=52
197760 On ch=14 n=65 v=52
197880 Off ch=14 n=72 v=64
197880 Off ch=14 n=65 v=64
198000 On ch=14 n=80 v=52
198000 On ch=14 n=72 v=52
198120 Off ch=14 n=80 v=64
198120 Off ch=14 n=72 v=64
198240 On ch=14 n=70 v=52
198240 On ch=14 n=63 v=52
198360 Off ch=14 n=70 v=64
198360 Off ch=14 n=63 v=64
198480 On ch=14 n=78 v=52
198480 On ch=14 n=72 v=52
198600 Off ch=14 n=78 v=64
198600 Off ch=14 n=72 v=64
198720 On ch=14 n=72 v=52
198720 On ch=14 n=65 v=52
198840 Off ch=14 n=72 v=64
198840 Off ch=14 n=65 v=64
198960 On ch=14 n=80 v=52
198960 On ch=14 n=72 v=52
199080 Off ch=14 n=80 v=64
199080 Off ch=14 n=72 v=64
199200 On ch=14 n=70 v=52
199200 On ch=14 n=63 v=52
199320 Off ch=14 n=70 v=64
199320 Off ch=14 n=63 v=64
199440 On ch=14 n=78 v=52
199440 On ch=14 n=72 v=52
199560 Off ch=14 n=78 v=64
199560 Off ch=14 n=72 v=64
199680 On ch=14 n=72 v=52
199680 On ch=14 n=65 v=52
199800 Off ch=14 n=72 v=64
199800 Off ch=14 n=65 v=64
199920 On ch=14 n=80 v=52
199920 On ch=14 n=72 v=52
200040 Off ch=14 n=80 v=64
200040 Off ch=14 n=72 v=64
200160 On ch=14 n=70 v=52
200160 On ch=14 n=63 v=52
200280 Off ch=14 n=70 v=64
200280 Off ch=14 n=63 v=64
200400 On ch=14 n=78 v=52
200400 On ch=14 n=72 v=52
200520 Off ch=14 n=78 v=64
200520 Off ch=14 n=72 v=64
200640 On ch=14 n=72 v=52
200640 On ch=14 n=65 v=52
200760 Off ch=14 n=72 v=64
200760 Off ch=14 n=65 v=64
200880 On ch=14 n=80 v=52
200880 On ch=14 n=72 v=52
201000 Off ch=14 n=80 v=64
201000 Off ch=14 n=72 v=64
201120 On ch=14 n=70 v=52
201120 On ch=14 n=63 v=52
201240 Off ch=14 n=70 v=64
201240 Off ch=14 n=63 v=64
201360 On ch=14 n=78 v=52
201360 On ch=14 n=72 v=52
201480 Off ch=14 n=78 v=64
201480 Off ch=14 n=72 v=64
201600 On ch=14 n=72 v=52
201600 On ch=14 n=65 v=52
201720 Off ch=14 n=72 v=64
201720 Off ch=14 n=65 v=64
201840 On ch=14 n=80 v=52
201840 On ch=14 n=72 v=52
201960 Off ch=14 n=80 v=64
201960 Off ch=14 n=72 v=64
202080 On ch=14 n=70 v=52
202080 On ch=14 n=63 v=52
202200 Off ch=14 n=70 v=64
202200 Off ch=14 n=63 v=64
202320 On ch=14 n=78 v=52
202320 On ch=14 n=72 v=52
202440 Off ch=14 n=78 v=64
202440 Off ch=14 n=72 v=64
202560 On ch=14 n=72 v=52
202560 On ch=14 n=65 v=52
202680 Off ch=14 n=72 v=64
202680 Off ch=14 n=65 v=64
202800 On ch=14 n=80 v=52
202800 On ch=14 n=72 v=52
202920 Off ch=14 n=80 v=64
202920 Off ch=14 n=72 v=64
203040 On ch=14 n=70 v=52
203040 On ch=14 n=63 v=52
203160 Off ch=14 n=70 v=64
203160 Off ch=14 n=63 v=64
203280 On ch=14 n=78 v=52
203280 On ch=14 n=72 v=52
203400 Off ch=14 n=78 v=64
203400 Off ch=14 n=72 v=64
203520 On ch=14 n=72 v=52
203520 On ch=14 n=65 v=52
203640 Off ch=14 n=72 v=64
203640 Off ch=14 n=65 v=64
203760 On ch=14 n=80 v=52
203760 On ch=14 n=72 v=52
203880 Off ch=14 n=80 v=64
203880 Off ch=14 n=72 v=64
204000 On ch=14 n=70 v=52
204000 On ch=14 n=63 v=52
204120 Off ch=14 n=70 v=64
204120 Off ch=14 n=63 v=64
204240 On ch=14 n=78 v=52
204240 On ch=14 n=72 v=52
204360 Off ch=14 n=78 v=64
204360 Off ch=14 n=72 v=64
204480 On ch=14 n=72 v=52
204480 On ch=14 n=65 v=52
204600 Off ch=14 n=72 v=64
204600 Off ch=14 n=65 v=64
204720 On ch=14 n=80 v=52
204720 On ch=14 n=72 v=52
204840 Off ch=14 n=80 v=64
204840 Off ch=14 n=72 v=64
204960 On ch=14 n=70 v=52
204960 On ch=14 n=63 v=52
205080 Off ch=14 n=70 v=64
205080 Off ch=14 n=63 v=64
205200 On ch=14 n=78 v=52
205200 On ch=14 n=72 v=52
205320 Off ch=14 n=78 v=64
205320 Off ch=14 n=72 v=64
205440 On ch=14 n=72 v=52
205440 On ch=14 n=65 v=52
205560 Off ch=14 n=72 v=64
205560 Off ch=14 n=65 v=64
205680 On ch=14 n=80 v=52
205680 On ch=14 n=72 v=52
205800 Off ch=14 n=80 v=64
205800 Off ch=14 n=72 v=64
205920 On ch=14 n=70 v=52
205920 On ch=14 n=63 v=52
206040 Off ch=14 n=70 v=64
206040 Off ch=14 n=63 v=64
206160 On ch=14 n=78 v=52
206160 On ch=14 n=72 v=52
206280 Off ch=14 n=78 v=64
206280 Off ch=14 n=72 v=64
206400 On ch=14 n=72 v=52
206400 On ch=14 n=65 v=52
206520 Off ch=14 n=72 v=64
206520 Off ch=14 n=65 v=64
206640 On ch=14 n=80 v=52
206640 On ch=14 n=72 v=52
206760 Off ch=14 n=80 v=64
206760 Off ch=14 n=72 v=64
206880 On ch=14 n=70 v=52
206880 On ch=14 n=63 v=52
207000 Off ch=14 n=70 v=64
207000 Off ch=14 n=63 v=64
207120 On ch=14 n=78 v=52
207120 On ch=14 n=72 v=52
207240 Off ch=14 n=78 v=64
207240 Off ch=14 n=72 v=64
207360 On ch=14 n=72 v=52
207360 On ch=14 n=65 v=52
207480 Off ch=14 n=72 v=64
207480 Off ch=14 n=65 v=64
207600 On ch=14 n=80 v=52
207600 On ch=14 n=72 v=52
207720 Off ch=14 n=80 v=64
207720 Off ch=14 n=72 v=64
207840 On ch=14 n=70 v=52
207840 On ch=14 n=63 v=52
207960 Off ch=14 n=70 v=64
207960 Off ch=14 n=63 v=64
208080 On ch=14 n=78 v=52
208080 On ch=14 n=72 v=52
208200 Off ch=14 n=78 v=64
208200 Off ch=14 n=72 v=64
208320 On ch=14 n=72 v=52
208320 On ch=14 n=65 v=52
208440 Off ch=14 n=72 v=64
208440 Off ch=14 n=65 v=64
208560 On ch=14 n=80 v=52
208560 On ch=14 n=72 v=52
208680 Off ch=14 n=80 v=64
208680 Off ch=14 n=72 v=64
208800 On ch=14 n=70 v=52
208800 On ch=14 n=63 v=52
208920 Off ch=14 n=70 v=64
208920 Off ch=14 n=63 v=64
209040 On ch=14 n=78 v=52
209040 On ch=14 n=72 v=52
209160 Off ch=14 n=78 v=64
209160 Off ch=14 n=72 v=64
209280 On ch=14 n=72 v=52
209280 On ch=14 n=65 v=52
209400 Off ch=14 n=72 v=64
209400 Off ch=14 n=65 v=64
209520 On ch=14 n=80 v=52
209520 On ch=14 n=72 v=52
209640 Off ch=14 n=80 v=64
209640 Off ch=14 n=72 v=64
209760 On ch=14 n=70 v=52
209760 On ch=14 n=63 v=52
209880 Off ch=14 n=70 v=64
209880 Off ch=14 n=63 v=64
210000 On ch=14 n=78 v=52
210000 On ch=14 n=72 v=52
210120 Off ch=14 n=78 v=64
210120 Off ch=14 n=72 v=64
210240 On ch=14 n=72 v=52
210240 On ch=14 n=65 v=52
210360 Off ch=14 n=72 v=64
210360 Off ch=14 n=65 v=64
210480 On ch=14 n=80 v=52
210480 On ch=14 n=72 v=52
210600 Off ch=14 n=80 v=64
210600 Off ch=14 n=72 v=64
210720 On ch=14 n=70 v=52
210720 On ch=14 n=63 v=52
210840 Off ch=14 n=70 v=64
210840 Off ch=14 n=63 v=64
210960 On ch=14 n=78 v=52
210960 On ch=14 n=72 v=52
211080 Off ch=14 n=78 v=64
211080 Off ch=14 n=72 v=64
211200 On ch=14 n=72 v=52
211200 On ch=14 n=65 v=52
211320 Off ch=14 n=72 v=64
211320 Off ch=14 n=65 v=64
211440 On ch=14 n=80 v=52
211440 On ch=14 n=72 v=52
211560 Off ch=14 n=80 v=64
211560 Off ch=14 n=72 v=64
211680 On ch=14 n=70 v=52
211680 On ch=14 n=63 v=52
211800 Off ch=14 n=70 v=64
211800 Off ch=14 n=63 v=64
211920 On ch=14 n=78 v=52
211920 On ch=14 n=72 v=52
212040 Off ch=14 n=78 v=64
212040 Off ch=14 n=72 v=64
212160 On ch=14 n=72 v=52
212160 On ch=14 n=65 v=52
212280 Off ch=14 n=72 v=64
212280 Off ch=14 n=65 v=64
212400 On ch=14 n=80 v=52
212400 On ch=14 n=72 v=52
212520 Off ch=14 n=80 v=64
212520 Off ch=14 n=72 v=64
212640 On ch=14 n=70 v=52
212640 On ch=14 n=63 v=52
212760 Off ch=14 n=70 v=64
212760 Off ch=14 n=63 v=64
212880 On ch=14 n=78 v=52
212880 On ch=14 n=72 v=52
213000 Off ch=14 n=78 v=64
213000 Off ch=14 n=72 v=64
213120 On ch=14 n=72 v=52
213120 On ch=14 n=65 v=52
213240 Off ch=14 n=72 v=64
213240 Off ch=14 n=65 v=64
213360 On ch=14 n=80 v=52
213360 On ch=14 n=72 v=52
213480 Off ch=14 n=80 v=64
213480 Off ch=14 n=72 v=64
213600 On ch=14 n=70 v=52
213600 On ch=14 n=63 v=52
213720 Off ch=14 n=70 v=64
213720 Off ch=14 n=63 v=64
213840 On ch=14 n=78 v=52
213840 On ch=14 n=72 v=52
213960 Off ch=14 n=78 v=64
213960 Off ch=14 n=72 v=64
214080 On ch=14 n=72 v=52
214080 On ch=14 n=65 v=52
214200 Off ch=14 n=72 v=64
214200 Off ch=14 n=65 v=64
214320 On ch=14 n=80 v=52
214320 On ch=14 n=72 v=52
214440 Off ch=14 n=80 v=64
214440 Off ch=14 n=72 v=64
227040 Par ch=14 c=0 v=0
227040 Par ch=14 c=32 v=1
227040 PrCh ch=14 p=71
241440 On ch=14 n=79 v=64
241440 On ch=14 n=72 v=64
241508 Off ch=14 n=72 v=64
241508 On ch=14 n=80 v=65
241508 On ch=14 n=73 v=65
241526 Off ch=14 n=79 v=64
241577 Off ch=14 n=73 v=64
241577 On ch=14 n=81 v=66
241577 On ch=14 n=74 v=66
241595 Off ch=14 n=80 v=64
241645 Off ch=14 n=74 v=64
241645 On ch=14 n=82 v=68
241645 On ch=14 n=75 v=68
241663 Off ch=14 n=81 v=64
241714 Off ch=14 n=75 v=64
241714 On ch=14 n=83 v=69
241714 On ch=14 n=76 v=69
241732 Off ch=14 n=82 v=64
241782 Off ch=14 n=76 v=64
241782 On ch=14 n=84 v=70
241782 On ch=14 n=77 v=70
241800 Off ch=14 n=83 v=64
241851 Off ch=14 n=77 v=64
241851 On ch=14 n=85 v=71
241851 On ch=14 n=78 v=71
241869 Off ch=14 n=84 v=64
241920 Off ch=14 n=78 v=64
241920 On ch=14 n=86 v=73
241920 On ch=14 n=79 v=73
241938 Off ch=14 n=85 v=64
242006 Off ch=14 n=86 v=64
242016 On ch=14 n=80 v=74
242048 Off ch=14 n=79 v=64
242112 On ch=14 n=81 v=76
242144 Off ch=14 n=80 v=64
242208 On ch=14 n=82 v=78
242240 Off ch=14 n=81 v=64
242304 On ch=14 n=83 v=80
242336 Off ch=14 n=82 v=64
242400 On ch=14 n=84 v=81
242432 Off ch=14 n=83 v=64
242496 On ch=14 n=83 v=80
242528 Off ch=14 n=84 v=64
242592 On ch=14 n=82 v=78
242624 Off ch=14 n=83 v=64
242688 On ch=14 n=81 v=76
242720 Off ch=14 n=82 v=64
242784 On ch=14 n=80 v=74
242816 Off ch=14 n=81 v=64
242880 On ch=14 n=86 v=72
242880 On ch=14 n=79 v=72
242912 Off ch=14 n=80 v=64
242948 On ch=14 n=85 v=70
242966 Off ch=14 n=86 v=64
242976 Off ch=14 n=79 v=64
243017 On ch=14 n=84 v=69
243035 Off ch=14 n=85 v=64
243085 On ch=14 n=83 v=68
243103 Off ch=14 n=84 v=64
243154 On ch=14 n=82 v=66
243172 Off ch=14 n=83 v=64
243222 On ch=14 n=81 v=65
243240 Off ch=14 n=82 v=64
243291 On ch=14 n=80 v=63
243309 Off ch=14 n=81 v=64
243360 On ch=14 n=79 v=65
243360 On ch=14 n=72 v=65
243360 On ch=14 n=69 v=65
243378 Off ch=14 n=80 v=64
243428 On ch=14 n=80 v=66
243428 On ch=14 n=73 v=66
243440 On ch=14 n=70 v=66
243446 Off ch=14 n=79 v=64
243458 Off ch=14 n=72 v=64
243470 Off ch=14 n=69 v=64
243497 On ch=14 n=81 v=67
243497 On ch=14 n=74 v=67
243515 Off ch=14 n=80 v=64
243520 On ch=14 n=71 v=67
243527 Off ch=14 n=73 v=64
243550 Off ch=14 n=70 v=64
243565 On ch=14 n=82 v=68
243565 On ch=14 n=75 v=68
243583 Off ch=14 n=81 v=64
243595 Off ch=14 n=74 v=64
243600 On ch=14 n=72 v=69
243630 Off ch=14 n=71 v=64
243634 On ch=14 n=83 v=69
243634 On ch=14 n=76 v=69
243652 Off ch=14 n=82 v=64
243664 Off ch=14 n=75 v=64
243680 On ch=14 n=73 v=70
243702 On ch=14 n=84 v=70
243702 On ch=14 n=77 v=70
243710 Off ch=14 n=72 v=64
243720 Off ch=14 n=83 v=64
243732 Off ch=14 n=76 v=64
243760 On ch=14 n=74 v=71
243771 On ch=14 n=85 v=72
243771 On ch=14 n=78 v=72
243789 Off ch=14 n=84 v=64
243790 Off ch=14 n=73 v=64
243801 Off ch=14 n=77 v=64
243840 On ch=14 n=86 v=73
243840 On ch=14 n=79 v=73
243840 On ch=14 n=75 v=73
243858 Off ch=14 n=85 v=64
243870 Off ch=14 n=74 v=64
243870 Off ch=14 n=78 v=64
243920 On ch=14 n=76 v=74
243926 Off ch=14 n=86 v=64
243936 On ch=14 n=80 v=74
243950 Off ch=14 n=75 v=64
243982 Off ch=14 n=79 v=64
244000 On ch=14 n=77 v=75
244030 Off ch=14 n=76 v=64
244032 On ch=14 n=81 v=76
244078 Off ch=14 n=80 v=64
244080 On ch=14 n=78 v=77
244110 Off ch=14 n=77 v=64
244128 On ch=14 n=82 v=78
244160 On ch=14 n=79 v=78
244174 Off ch=14 n=81 v=64
244190 Off ch=14 n=78 v=64
244224 On ch=14 n=83 v=79
244240 On ch=14 n=80 v=79
244270 Off ch=14 n=82 v=64
244270 Off ch=14 n=79 v=64
244320 On ch=14 n=84 v=81
244320 On ch=14 n=81 v=81
244350 Off ch=14 n=80 v=64
244366 Off ch=14 n=83 v=64
244430 Off ch=14 n=81 v=64
244462 Off ch=14 n=84 v=64
245280 On ch=14 n=79 v=64
245280 On ch=14 n=72 v=64
245348 Off ch=14 n=72 v=64
245348 On ch=14 n=80 v=65
245348 On ch=14 n=73 v=65
245366 Off ch=14 n=79 v=64
245417 Off ch=14 n=73 v=64
245417 On ch=14 n=81 v=66
245417 On ch=14 n=74 v=66
245435 Off ch=14 n=80 v=64
245485 Off ch=14 n=74 v=64
245485 On ch=14 n=82 v=68
245485 On ch=14 n=75 v=68
245503 Off ch=14 n=81 v=64
245554 Off ch=14 n=75 v=64
245554 On ch=14 n=83 v=69
245554 On ch=14 n=76 v=69
245572 Off ch=14 n=82 v=64
245622 Off ch=14 n=76 v=64
245622 On ch=14 n=84 v=70
245622 On ch=14 n=77 v=70
245640 Off ch=14 n=83 v=64
245691 Off ch=14 n=77 v=64
245691 On ch=14 n=85 v=71
245691 On ch=14 n=78 v=71
245709 Off ch=14 n=84 v=64
245760 Off ch=14 n=78 v=64
245760 On ch=14 n=86 v=73
245760 On ch=14 n=79 v=73
245778 Off ch=14 n=85 v=64
245846 Off ch=14 n=86 v=64
245856 On ch=14 n=80 v=74
245888 Off ch=14 n=79 v=64
245952 On ch=14 n=81 v=76
245984 Off ch=14 n=80 v=64
246048 On ch=14 n=82 v=78
246080 Off ch=14 n=81 v=64
246144 On ch=14 n=83 v=80
246176 Off ch=14 n=82 v=64
246240 On ch=14 n=84 v=81
246272 Off ch=14 n=83 v=64
246336 On ch=14 n=83 v=80
246368 Off ch=14 n=84 v=64
246432 On ch=14 n=82 v=78
246464 Off ch=14 n=83 v=64
246528 On ch=14 n=81 v=76
246560 Off ch=14 n=82 v=64
246624 On ch=14 n=80 v=74
246656 Off ch=14 n=81 v=64
246720 On ch=14 n=86 v=72
246720 On ch=14 n=79 v=72
246752 Off ch=14 n=80 v=64
246788 On ch=14 n=85 v=70
246806 Off ch=14 n=86 v=64
246816 Off ch=14 n=79 v=64
246857 On ch=14 n=84 v=69
246875 Off ch=14 n=85 v=64
246925 On ch=14 n=83 v=68
246943 Off ch=14 n=84 v=64
246994 On ch=14 n=82 v=66
247012 Off ch=14 n=83 v=64
247062 On ch=14 n=81 v=65
247080 Off ch=14 n=82 v=64
247131 On ch=14 n=80 v=63
247149 Off ch=14 n=81 v=64
247200 On ch=14 n=79 v=65
247200 On ch=14 n=72 v=65
247200 On ch=14 n=69 v=65
247218 Off ch=14 n=80 v=64
247268 On ch=14 n=80 v=66
247268 On ch=14 n=73 v=66
247280 On ch=14 n=70 v=66
247286 Off ch=14 n=79 v=64
247298 Off ch=14 n=72 v=64
247310 Off ch=14 n=69 v=64
247337 On ch=14 n=81 v=67
247337 On ch=14 n=74 v=67
247355 Off ch=14 n=80 v=64
247360 On ch=14 n=71 v=67
247367 Off ch=14 n=73 v=64
247390 Off ch=14 n=70 v=64
247405 On ch=14 n=82 v=68
247405 On ch=14 n=75 v=68
247423 Off ch=14 n=81 v=64
247435 Off ch=14 n=74 v=64
247440 On ch=14 n=72 v=69
247470 Off ch=14 n=71 v=64
247474 On ch=14 n=83 v=69
247474 On ch=14 n=76 v=69
247492 Off ch=14 n=82 v=64
247504 Off ch=14 n=75 v=64
247520 On ch=14 n=73 v=70
247542 On ch=14 n=84 v=70
247542 On ch=14 n=77 v=70
247550 Off ch=14 n=72 v=64
247560 Off ch=14 n=83 v=64
247572 Off ch=14 n=76 v=64
247600 On ch=14 n=74 v=71
247611 On ch=14 n=85 v=72
247611 On ch=14 n=78 v=72
247629 Off ch=14 n=84 v=64
247630 Off ch=14 n=73 v=64
247641 Off ch=14 n=77 v=64
247680 On ch=14 n=86 v=73
247680 On ch=14 n=79 v=73
247680 On ch=14 n=75 v=73
247698 Off ch=14 n=85 v=64
247710 Off ch=14 n=74 v=64
247710 Off ch=14 n=78 v=64
247760 On ch=14 n=76 v=74
247766 Off ch=14 n=86 v=64
247776 On ch=14 n=80 v=74
247790 Off ch=14 n=75 v=64
247822 Off ch=14 n=79 v=64
247840 On ch=14 n=77 v=75
247870 Off ch=14 n=76 v=64
247872 On ch=14 n=81 v=76
247918 Off ch=14 n=80 v=64
247920 On ch=14 n=78 v=77
247950 Off ch=14 n=77 v=64
247968 On ch=14 n=82 v=78
248000 On ch=14 n=79 v=78
248014 Off ch=14 n=81 v=64
248030 Off ch=14 n=78 v=64
248064 On ch=14 n=83 v=79
248080 On ch=14 n=80 v=79
248110 Off ch=14 n=82 v=64
248110 Off ch=14 n=79 v=64
248160 On ch=14 n=84 v=81
248160 On ch=14 n=81 v=81
248190 Off ch=14 n=80 v=64
248206 Off ch=14 n=83 v=64
248270 Off ch=14 n=81 v=64
248302 Off ch=14 n=84 v=64
249120 On ch=14 n=76 v=62
249120 On ch=14 n=73 v=62
249188 On ch=14 n=77 v=63
249200 On ch=14 n=74 v=63
249224 Off ch=14 n=76 v=64
249236 Off ch=14 n=73 v=64
249257 On ch=14 n=78 v=64
249280 On ch=14 n=75 v=64
249293 Off ch=14 n=77 v=64
249316 Off ch=14 n=74 v=64
249325 On ch=14 n=79 v=65
249360 On ch=14 n=76 v=65
249361 Off ch=14 n=78 v=64
249394 On ch=14 n=80 v=66
249396 Off ch=14 n=75 v=64
249430 Off ch=14 n=79 v=64
249440 On ch=14 n=77 v=67
249462 On ch=14 n=81 v=67
249476 Off ch=14 n=76 v=64
249498 Off ch=14 n=80 v=64
249520 On ch=14 n=78 v=68
249531 On ch=14 n=82 v=68
249556 Off ch=14 n=77 v=64
249567 Off ch=14 n=81 v=64
249600 On ch=14 n=79 v=69
249600 On ch=14 n=83 v=69
249600 On ch=14 n=79 v=69
249636 Off ch=14 n=78 v=64
249636 Off ch=14 n=82 v=64
249680 On ch=14 n=80 v=71
249696 On ch=14 n=80 v=71
249704 Off ch=14 n=83 v=64
249716 Off ch=14 n=79 v=64
249716 Off ch=14 n=79 v=64
249760 On ch=14 n=81 v=72
249792 On ch=14 n=81 v=73
249796 Off ch=14 n=80 v=64
249796 Off ch=14 n=80 v=64
249840 On ch=14 n=82 v=73
249876 Off ch=14 n=81 v=64
249876 Off ch=14 n=81 v=64
249888 On ch=14 n=82 v=74
249920 On ch=14 n=83 v=75
249956 Off ch=14 n=82 v=64
249956 Off ch=14 n=82 v=64
249984 On ch=14 n=83 v=76
250000 On ch=14 n=84 v=76
250036 Off ch=14 n=83 v=64
250036 Off ch=14 n=83 v=64
250080 On ch=14 n=84 v=62
250080 On ch=14 n=85 v=62
250080 On ch=14 n=76 v=62
250080 On ch=14 n=73 v=62
250116 Off ch=14 n=84 v=64
250116 Off ch=14 n=84 v=64
250148 On ch=14 n=77 v=63
250160 On ch=14 n=74 v=63
250184 Off ch=14 n=76 v=64
250196 Off ch=14 n=85 v=64
250196 Off ch=14 n=73 v=64
250217 On ch=14 n=78 v=64
250240 On ch=14 n=75 v=64
250253 Off ch=14 n=77 v=64
250276 Off ch=14 n=74 v=64
250285 On ch=14 n=79 v=65
250320 On ch=14 n=76 v=65
250321 Off ch=14 n=78 v=64
250354 On ch=14 n=80 v=66
250356 Off ch=14 n=75 v=64
250390 Off ch=14 n=79 v=64
250400 On ch=14 n=77 v=67
250422 On ch=14 n=81 v=67
250436 Off ch=14 n=76 v=64
250458 Off ch=14 n=80 v=64
250480 On ch=14 n=78 v=68
250491 On ch=14 n=82 v=68
250516 Off ch=14 n=77 v=64
250527 Off ch=14 n=81 v=64
250560 On ch=14 n=79 v=69
250560 On ch=14 n=83 v=69
250560 On ch=14 n=79 v=69
250596 Off ch=14 n=78 v=64
250596 Off ch=14 n=82 v=64
250640 On ch=14 n=80 v=71
250656 On ch=14 n=80 v=71
250664 Off ch=14 n=83 v=64
250676 Off ch=14 n=79 v=64
250676 Off ch=14 n=79 v=64
250720 On ch=14 n=81 v=72
250752 On ch=14 n=81 v=73
250756 Off ch=14 n=80 v=64
250756 Off ch=14 n=80 v=64
250800 On ch=14 n=82 v=73
250836 Off ch=14 n=81 v=64
250836 Off ch=14 n=81 v=64
250848 On ch=14 n=82 v=74
250880 On ch=14 n=83 v=75
250916 Off ch=14 n=82 v=64
250916 Off ch=14 n=82 v=64
250944 On ch=14 n=83 v=76
250960 On ch=14 n=84 v=76
250996 Off ch=14 n=83 v=64
250996 Off ch=14 n=83 v=64
251040 On ch=14 n=84 v=64
251040 On ch=14 n=85 v=64
251040 On ch=14 n=76 v=64
251040 On ch=14 n=73 v=64
251076 Off ch=14 n=84 v=64
251076 Off ch=14 n=84 v=64
251108 On ch=14 n=77 v=65
251120 On ch=14 n=74 v=65
251144 Off ch=14 n=76 v=64
251156 Off ch=14 n=85 v=64
251156 Off ch=14 n=73 v=64
251177 On ch=14 n=78 v=66
251200 On ch=14 n=75 v=66
251213 Off ch=14 n=77 v=64
251236 Off ch=14 n=74 v=64
251245 On ch=14 n=79 v=67
251280 On ch=14 n=76 v=67
251281 Off ch=14 n=78 v=64
251314 On ch=14 n=80 v=68
251316 Off ch=14 n=75 v=64
251350 Off ch=14 n=79 v=64
251360 On ch=14 n=77 v=69
251382 On ch=14 n=81 v=69
251396 Off ch=14 n=76 v=64
251418 Off ch=14 n=80 v=64
251440 On ch=14 n=78 v=70
251451 On ch=14 n=82 v=70
251476 Off ch=14 n=77 v=64
251487 Off ch=14 n=81 v=64
251520 On ch=14 n=79 v=71
251520 On ch=14 n=83 v=71
251520 On ch=14 n=79 v=71
251556 Off ch=14 n=78 v=64
251556 Off ch=14 n=82 v=64
251600 On ch=14 n=80 v=73
251616 On ch=14 n=80 v=73
251624 Off ch=14 n=83 v=64
251636 Off ch=14 n=79 v=64
251636 Off ch=14 n=79 v=64
251680 On ch=14 n=81 v=74
251712 On ch=14 n=81 v=75
251716 Off ch=14 n=80 v=64
251716 Off ch=14 n=80 v=64
251760 On ch=14 n=82 v=75
251796 Off ch=14 n=81 v=64
251796 Off ch=14 n=81 v=64
251808 On ch=14 n=82 v=76
251840 On ch=14 n=83 v=77
251876 Off ch=14 n=82 v=64
251876 Off ch=14 n=82 v=64
251904 On ch=14 n=83 v=78
251920 On ch=14 n=84 v=78
251956 Off ch=14 n=83 v=64
251956 Off ch=14 n=83 v=64
252000 On ch=14 n=81 v=76
252000 On ch=14 n=84 v=76
252000 On ch=14 n=85 v=76
252036 Off ch=14 n=84 v=64
252036 Off ch=14 n=84 v=64
252116 Off ch=14 n=85 v=64
252240 Off ch=14 n=81 v=64
252240 On ch=14 n=86 v=75
252480 Off ch=14 n=86 v=64
252480 On ch=14 n=84 v=75
252720 Off ch=14 n=84 v=64
252720 On ch=14 n=83 v=74
252840 Off ch=14 n=83 v=64
252840 On ch=14 n=79 v=74
252960 Off ch=14 n=79 v=64
263760 On ch=14 n=69 v=52
263760 On ch=14 n=63 v=52
263760 On ch=14 n=56 v=52
263820 On ch=14 n=60 v=51
263820 On ch=14 n=71 v=51
263820 On ch=14 n=66 v=51
263840 Off ch=14 n=69 v=64
263840 Off ch=14 n=63 v=64
263840 Off ch=14 n=56 v=64
263880 On ch=14 n=69 v=51
263880 On ch=14 n=63 v=51
263880 On ch=14 n=56 v=51
263900 Off ch=14 n=60 v=64
263900 Off ch=14 n=71 v=64
263900 Off ch=14 n=66 v=64
263940 On ch=14 n=60 v=50
263940 On ch=14 n=71 v=50
263940 On ch=14 n=66 v=50
263960 Off ch=14 n=69 v=64
263960 Off ch=14 n=63 v=64
263960 Off ch=14 n=56 v=64
264000 On ch=14 n=69 v=50
264000 On ch=14 n=63 v=50
264000 On ch=14 n=56 v=50
264020 Off ch=14 n=60 v=64
264020 Off ch=14 n=71 v=64
264020 Off ch=14 n=66 v=64
264060 On ch=14 n=60 v=49
264060 On ch=14 n=71 v=49
264060 On ch=14 n=66 v=49
264080 Off ch=14 n=69 v=64
264080 Off ch=14 n=63 v=64
264080 Off ch=14 n=56 v=64
264120 On ch=14 n=69 v=49
264120 On ch=14 n=63 v=49
264120 On ch=14 n=56 v=49
264140 Off ch=14 n=60 v=64
264140 Off ch=14 n=71 v=64
264140 Off ch=14 n=66 v=64
264180 On ch=14 n=60 v=49
264180 On ch=14 n=71 v=49
264180 On ch=14 n=66 v=49
264200 Off ch=14 n=69 v=64
264200 Off ch=14 n=63 v=64
264200 Off ch=14 n=56 v=64
264240 On ch=14 n=69 v=48
264240 On ch=14 n=63 v=48
264240 On ch=14 n=56 v=48
264260 Off ch=14 n=60 v=64
264260 Off ch=14 n=71 v=64
264260 Off ch=14 n=66 v=64
264300 On ch=14 n=60 v=48
264300 On ch=14 n=71 v=48
264300 On ch=14 n=66 v=48
264320 Off ch=14 n=69 v=64
264320 Off ch=14 n=63 v=64
264320 Off ch=14 n=56 v=64
264360 On ch=14 n=69 v=47
264360 On ch=14 n=63 v=47
264360 On ch=14 n=56 v=47
264380 Off ch=14 n=60 v=64
264380 Off ch=14 n=71 v=64
264380 Off ch=14 n=66 v=64
264420 On ch=14 n=60 v=47
264420 On ch=14 n=71 v=47
264420 On ch=14 n=66 v=47
264440 Off ch=14 n=69 v=64
264440 Off ch=14 n=63 v=64
264440 Off ch=14 n=56 v=64
264480 On ch=14 n=69 v=47
264480 On ch=14 n=63 v=47
264480 On ch=14 n=56 v=47
264500 Off ch=14 n=60 v=64
264500 Off ch=14 n=71 v=64
264500 Off ch=14 n=66 v=64
264540 On ch=14 n=60 v=46
264540 On ch=14 n=71 v=46
264540 On ch=14 n=66 v=46
264560 Off ch=14 n=69 v=64
264560 Off ch=14 n=63 v=64
264560 Off ch=14 n=56 v=64
264600 On ch=14 n=69 v=46
264600 On ch=14 n=63 v=46
264600 On ch=14 n=56 v=46
264620 Off ch=14 n=60 v=64
264620 Off ch=14 n=71 v=64
264620 Off ch=14 n=66 v=64
264660 On ch=14 n=60 v=45
264660 On ch=14 n=71 v=45
264660 On ch=14 n=66 v=45
264680 Off ch=14 n=69 v=64
264680 Off ch=14 n=63 v=64
264680 Off ch=14 n=56 v=64
264720 On ch=14 n=69 v=45
264720 On ch=14 n=63 v=45
264720 On ch=14 n=56 v=45
264740 Off ch=14 n=60 v=64
264740 Off ch=14 n=71 v=64
264740 Off ch=14 n=66 v=64
264780 On ch=14 n=60 v=44
264780 On ch=14 n=71 v=44
264780 On ch=14 n=66 v=44
264800 Off ch=14 n=69 v=64
264800 Off ch=14 n=63 v=64
264800 Off ch=14 n=56 v=64
264840 On ch=14 n=69 v=44
264840 On ch=14 n=63 v=44
264840 On ch=14 n=56 v=44
264860 Off ch=14 n=60 v=64
264860 Off ch=14 n=71 v=64
264860 Off ch=14 n=66 v=64
264900 On ch=14 n=60 v=44
264900 On ch=14 n=71 v=44
264900 On ch=14 n=66 v=44
264920 Off ch=14 n=69 v=64
264920 Off ch=14 n=63 v=64
264920 Off ch=14 n=56 v=64
264960 On ch=14 n=69 v=43
264960 On ch=14 n=63 v=43
264960 On ch=14 n=56 v=43
264980 Off ch=14 n=60 v=64
264980 Off ch=14 n=71 v=64
264980 Off ch=14 n=66 v=64
265020 On ch=14 n=60 v=43
265020 On ch=14 n=71 v=43
265020 On ch=14 n=66 v=43
265040 Off ch=14 n=69 v=64
265040 Off ch=14 n=63 v=64
265040 Off ch=14 n=56 v=64
265080 On ch=14 n=69 v=42
265080 On ch=14 n=63 v=42
265080 On ch=14 n=56 v=42
265100 Off ch=14 n=60 v=64
265100 Off ch=14 n=71 v=64
265100 Off ch=14 n=66 v=64
265140 On ch=14 n=60 v=42
265140 On ch=14 n=71 v=42
265140 On ch=14 n=66 v=42
265160 Off ch=14 n=69 v=64
265160 Off ch=14 n=63 v=64
265160 Off ch=14 n=56 v=64
265200 On ch=14 n=69 v=54
265200 On ch=14 n=63 v=54
265200 On ch=14 n=56 v=54
265220 Off ch=14 n=60 v=64
265220 Off ch=14 n=71 v=64
265220 Off ch=14 n=66 v=64
265260 On ch=14 n=60 v=53
265260 On ch=14 n=71 v=53
265260 On ch=14 n=66 v=53
265280 Off ch=14 n=69 v=64
265280 Off ch=14 n=63 v=64
265280 Off ch=14 n=56 v=64
265320 On ch=14 n=69 v=52
265320 On ch=14 n=63 v=52
265320 On ch=14 n=56 v=52
265340 Off ch=14 n=60 v=64
265340 Off ch=14 n=71 v=64
265340 Off ch=14 n=66 v=64
265380 On ch=14 n=60 v=51
265380 On ch=14 n=71 v=51
265380 On ch=14 n=66 v=51
265400 Off ch=14 n=69 v=64
265400 Off ch=14 n=63 v=64
265400 Off ch=14 n=56 v=64
265440 On ch=14 n=69 v=50
265440 On ch=14 n=63 v=50
265440 On ch=14 n=56 v=50
265460 Off ch=14 n=60 v=64
265460 Off ch=14 n=71 v=64
265460 Off ch=14 n=66 v=64
265500 On ch=14 n=60 v=49
265500 On ch=14 n=71 v=49
265500 On ch=14 n=66 v=49
265520 Off ch=14 n=69 v=64
265520 Off ch=14 n=63 v=64
265520 Off ch=14 n=56 v=64
265560 On ch=14 n=69 v=48
265560 On ch=14 n=63 v=48
265560 On ch=14 n=56 v=48
265580 Off ch=14 n=60 v=64
265580 Off ch=14 n=71 v=64
265580 Off ch=14 n=66 v=64
265620 On ch=14 n=60 v=47
265620 On ch=14 n=71 v=47
265620 On ch=14 n=66 v=47
265640 Off ch=14 n=69 v=64
265640 Off ch=14 n=63 v=64
265640 Off ch=14 n=56 v=64
265680 On ch=14 n=69 v=46
265680 On ch=14 n=63 v=46
265680 On ch=14 n=56 v=46
265700 Off ch=14 n=60 v=64
265700 Off ch=14 n=71 v=64
265700 Off ch=14 n=66 v=64
265740 On ch=14 n=60 v=45
265740 On ch=14 n=71 v=45
265740 On ch=14 n=66 v=45
265760 Off ch=14 n=69 v=64
265760 Off ch=14 n=63 v=64
265760 Off ch=14 n=56 v=64
265800 On ch=14 n=69 v=44
265800 On ch=14 n=63 v=44
265800 On ch=14 n=56 v=44
265820 Off ch=14 n=60 v=64
265820 Off ch=14 n=71 v=64
265820 Off ch=14 n=66 v=64
265860 On ch=14 n=60 v=43
265860 On ch=14 n=71 v=43
265860 On ch=14 n=66 v=43
265880 Off ch=14 n=69 v=64
265880 Off ch=14 n=63 v=64
265880 Off ch=14 n=56 v=64
265920 On ch=14 n=69 v=52
265920 On ch=14 n=63 v=52
265920 On ch=14 n=56 v=52
265940 Off ch=14 n=60 v=64
265940 Off ch=14 n=71 v=64
265940 Off ch=14 n=66 v=64
265980 On ch=14 n=60 v=51
265980 On ch=14 n=71 v=51
265980 On ch=14 n=66 v=51
266000 Off ch=14 n=69 v=64
266000 Off ch=14 n=63 v=64
266000 Off ch=14 n=56 v=64
266040 On ch=14 n=69 v=51
266040 On ch=14 n=63 v=51
266040 On ch=14 n=56 v=51
266060 Off ch=14 n=60 v=64
266060 Off ch=14 n=71 v=64
266060 Off ch=14 n=66 v=64
266100 On ch=14 n=60 v=50
266100 On ch=14 n=71 v=50
266100 On ch=14 n=66 v=50
266120 Off ch=14 n=69 v=64
266120 Off ch=14 n=63 v=64
266120 Off ch=14 n=56 v=64
266160 On ch=14 n=69 v=50
266160 On ch=14 n=63 v=50
266160 On ch=14 n=56 v=50
266180 Off ch=14 n=60 v=64
266180 Off ch=14 n=71 v=64
266180 Off ch=14 n=66 v=64
266220 On ch=14 n=60 v=49
266220 On ch=14 n=71 v=49
266220 On ch=14 n=66 v=49
266240 Off ch=14 n=69 v=64
266240 Off ch=14 n=63 v=64
266240 Off ch=14 n=56 v=64
266280 On ch=14 n=69 v=49
266280 On ch=14 n=63 v=49
266280 On ch=14 n=56 v=49
266300 Off ch=14 n=60 v=64
266300 Off ch=14 n=71 v=64
266300 Off ch=14 n=66 v=64
266340 On ch=14 n=60 v=49
266340 On ch=14 n=71 v=49
266340 On ch=14 n=66 v=49
266360 Off ch=14 n=69 v=64
266360 Off ch=14 n=63 v=64
266360 Off ch=14 n=56 v=64
266400 On ch=14 n=69 v=48
266400 On ch=14 n=63 v=48
266400 On ch=14 n=56 v=48
266420 Off ch=14 n=60 v=64
266420 Off ch=14 n=71 v=64
266420 Off ch=14 n=66 v=64
266460 On ch=14 n=60 v=48
266460 On ch=14 n=71 v=48
266460 On ch=14 n=66 v=48
266480 Off ch=14 n=69 v=64
266480 Off ch=14 n=63 v=64
266480 Off ch=14 n=56 v=64
266520 On ch=14 n=69 v=47
266520 On ch=14 n=63 v=47
266520 On ch=14 n=56 v=47
266540 Off ch=14 n=60 v=64
266540 Off ch=14 n=71 v=64
266540 Off ch=14 n=66 v=64
266580 On ch=14 n=60 v=47
266580 On ch=14 n=71 v=47
266580 On ch=14 n=66 v=47
266600 Off ch=14 n=69 v=64
266600 Off ch=14 n=63 v=64
266600 Off ch=14 n=56 v=64
266640 On ch=14 n=69 v=47
266640 On ch=14 n=63 v=47
266640 On ch=14 n=56 v=47
266660 Off ch=14 n=60 v=64
266660 Off ch=14 n=71 v=64
266660 Off ch=14 n=66 v=64
266700 On ch=14 n=60 v=46
266700 On ch=14 n=71 v=46
266700 On ch=14 n=66 v=46
266720 Off ch=14 n=69 v=64
266720 Off ch=14 n=63 v=64
266720 Off ch=14 n=56 v=64
266760 On ch=14 n=69 v=46
266760 On ch=14 n=63 v=46
266760 On ch=14 n=56 v=46
266780 Off ch=14 n=60 v=64
266780 Off ch=14 n=71 v=64
266780 Off ch=14 n=66 v=64
266820 On ch=14 n=60 v=45
266820 On ch=14 n=71 v=45
266820 On ch=14 n=66 v=45
266840 Off ch=14 n=69 v=64
266840 Off ch=14 n=63 v=64
266840 Off ch=14 n=56 v=64
266880 On ch=14 n=69 v=45
266880 On ch=14 n=63 v=45
266880 On ch=14 n=56 v=45
266900 Off ch=14 n=60 v=64
266900 Off ch=14 n=71 v=64
266900 Off ch=14 n=66 v=64
266940 On ch=14 n=60 v=44
266940 On ch=14 n=71 v=44
266940 On ch=14 n=66 v=44
266960 Off ch=14 n=69 v=64
266960 Off ch=14 n=63 v=64
266960 Off ch=14 n=56 v=64
267000 On ch=14 n=69 v=44
267000 On ch=14 n=63 v=44
267000 On ch=14 n=56 v=44
267020 Off ch=14 n=60 v=64
267020 Off ch=14 n=71 v=64
267020 Off ch=14 n=66 v=64
267060 On ch=14 n=60 v=44
267060 On ch=14 n=71 v=44
267060 On ch=14 n=66 v=44
267080 Off ch=14 n=69 v=64
267080 Off ch=14 n=63 v=64
267080 Off ch=14 n=56 v=64
267120 On ch=14 n=69 v=43
267120 On ch=14 n=63 v=43
267120 On ch=14 n=56 v=43
267140 Off ch=14 n=60 v=64
267140 Off ch=14 n=71 v=64
267140 Off ch=14 n=66 v=64
267180 On ch=14 n=60 v=43
267180 On ch=14 n=71 v=43
267180 On ch=14 n=66 v=43
267200 Off ch=14 n=69 v=64
267200 Off ch=14 n=63 v=64
267200 Off ch=14 n=56 v=64
267240 On ch=14 n=69 v=42
267240 On ch=14 n=63 v=42
267240 On ch=14 n=56 v=42
267260 Off ch=14 n=60 v=64
267260 Off ch=14 n=71 v=64
267260 Off ch=14 n=66 v=64
267300 On ch=14 n=60 v=42
267300 On ch=14 n=71 v=42
267300 On ch=14 n=66 v=42
267320 Off ch=14 n=69 v=64
267320 Off ch=14 n=63 v=64
267320 Off ch=14 n=56 v=64
267360 On ch=14 n=69 v=54
267360 On ch=14 n=63 v=54
267360 On ch=14 n=56 v=54
267380 Off ch=14 n=60 v=64
267380 Off ch=14 n=71 v=64
267380 Off ch=14 n=66 v=64
267420 On ch=14 n=60 v=53
267420 On ch=14 n=71 v=53
267420 On ch=14 n=66 v=53
267440 Off ch=14 n=69 v=64
267440 Off ch=14 n=63 v=64
267440 Off ch=14 n=56 v=64
267480 On ch=14 n=69 v=52
267480 On ch=14 n=63 v=52
267480 On ch=14 n=56 v=52
267500 Off ch=14 n=60 v=64
267500 Off ch=14 n=71 v=64
267500 Off ch=14 n=66 v=64
267540 On ch=14 n=60 v=51
267540 On ch=14 n=71 v=51
267540 On ch=14 n=66 v=51
267560 Off ch=14 n=69 v=64
267560 Off ch=14 n=63 v=64
267560 Off ch=14 n=56 v=64
267600 On ch=14 n=69 v=50
267600 On ch=14 n=63 v=50
267600 On ch=14 n=56 v=50
267620 Off ch=14 n=60 v=64
267620 Off ch=14 n=71 v=64
267620 Off ch=14 n=66 v=64
267660 On ch=14 n=60 v=49
267660 On ch=14 n=71 v=49
267660 On ch=14 n=66 v=49
267680 Off ch=14 n=69 v=64
267680 Off ch=14 n=63 v=64
267680 Off ch=14 n=56 v=64
267720 On ch=14 n=69 v=48
267720 On ch=14 n=63 v=48
267720 On ch=14 n=56 v=48
267740 Off ch=14 n=60 v=64
267740 Off ch=14 n=71 v=64
267740 Off ch=14 n=66 v=64
267780 On ch=14 n=60 v=47
267780 On ch=14 n=71 v=47
267780 On ch=14 n=66 v=47
267800 Off ch=14 n=69 v=64
267800 Off ch=14 n=63 v=64
267800 Off ch=14 n=56 v=64
267840 On ch=14 n=69 v=46
267840 On ch=14 n=63 v=46
267840 On ch=14 n=56 v=46
267860 Off ch=14 n=60 v=64
267860 Off ch=14 n=71 v=64
267860 Off ch=14 n=66 v=64
267900 On ch=14 n=60 v=45
267900 On ch=14 n=71 v=45
267900 On ch=14 n=66 v=45
267920 Off ch=14 n=69 v=64
267920 Off ch=14 n=63 v=64
267920 Off ch=14 n=56 v=64
267960 On ch=14 n=69 v=44
267960 On ch=14 n=63 v=44
267960 On ch=14 n=56 v=44
267980 Off ch=14 n=60 v=64
267980 Off ch=14 n=71 v=64
267980 Off ch=14 n=66 v=64
268020 On ch=14 n=60 v=43
268020 On ch=14 n=71 v=43
268020 On ch=14 n=66 v=43
268040 Off ch=14 n=69 v=64
268040 Off ch=14 n=63 v=64
268040 Off ch=14 n=56 v=64
268080 On ch=14 n=69 v=54
268080 On ch=14 n=63 v=54
268080 On ch=14 n=56 v=54
268100 Off ch=14 n=60 v=64
268100 Off ch=14 n=71 v=64
268100 Off ch=14 n=66 v=64
268140 On ch=14 n=60 v=53
268140 On ch=14 n=71 v=53
268140 On ch=14 n=66 v=53
268160 Off ch=14 n=69 v=64
268160 Off ch=14 n=63 v=64
268160 Off ch=14 n=56 v=64
268200 On ch=14 n=69 v=53
268200 On ch=14 n=63 v=53
268200 On ch=14 n=56 v=53
268220 Off ch=14 n=60 v=64
268220 Off ch=14 n=71 v=64
268220 Off ch=14 n=66 v=64
268260 On ch=14 n=60 v=52
268260 On ch=14 n=71 v=52
268260 On ch=14 n=66 v=52
268280 Off ch=14 n=69 v=64
268280 Off ch=14 n=63 v=64
268280 Off ch=14 n=56 v=64
268320 On ch=14 n=69 v=52
268320 On ch=14 n=63 v=52
268320 On ch=14 n=56 v=52
268340 Off ch=14 n=60 v=64
268340 Off ch=14 n=71 v=64
268340 Off ch=14 n=66 v=64
268380 On ch=14 n=60 v=51
268380 On ch=14 n=71 v=51
268380 On ch=14 n=66 v=51
268400 Off ch=14 n=69 v=64
268400 Off ch=14 n=63 v=64
268400 Off ch=14 n=56 v=64
268440 On ch=14 n=69 v=51
268440 On ch=14 n=63 v=51
268440 On ch=14 n=56 v=51
268460 Off ch=14 n=60 v=64
268460 Off ch=14 n=71 v=64
268460 Off ch=14 n=66 v=64
268500 On ch=14 n=60 v=51
268500 On ch=14 n=71 v=51
268500 On ch=14 n=66 v=51
268520 Off ch=14 n=69 v=64
268520 Off ch=14 n=63 v=64
268520 Off ch=14 n=56 v=64
268560 On ch=14 n=69 v=50
268560 On ch=14 n=63 v=50
268560 On ch=14 n=56 v=50
268580 Off ch=14 n=60 v=64
268580 Off ch=14 n=71 v=64
268580 Off ch=14 n=66 v=64
268620 On ch=14 n=60 v=50
268620 On ch=14 n=71 v=50
268620 On ch=14 n=66 v=50
268640 Off ch=14 n=69 v=64
268640 Off ch=14 n=63 v=64
268640 Off ch=14 n=56 v=64
268680 On ch=14 n=69 v=49
268680 On ch=14 n=63 v=49
268680 On ch=14 n=56 v=49
268700 Off ch=14 n=60 v=64
268700 Off ch=14 n=71 v=64
268700 Off ch=14 n=66 v=64
268740 On ch=14 n=60 v=49
268740 On ch=14 n=71 v=49
268740 On ch=14 n=66 v=49
268760 Off ch=14 n=69 v=64
268760 Off ch=14 n=63 v=64
268760 Off ch=14 n=56 v=64
268800 On ch=14 n=69 v=49
268800 On ch=14 n=63 v=49
268800 On ch=14 n=56 v=49
268820 Off ch=14 n=60 v=64
268820 Off ch=14 n=71 v=64
268820 Off ch=14 n=66 v=64
268860 On ch=14 n=60 v=48
268860 On ch=14 n=71 v=48
268860 On ch=14 n=66 v=48
268880 Off ch=14 n=69 v=64
268880 Off ch=14 n=63 v=64
268880 Off ch=14 n=56 v=64
268920 On ch=14 n=69 v=48
268920 On ch=14 n=63 v=48
268920 On ch=14 n=56 v=48
268940 Off ch=14 n=60 v=64
268940 Off ch=14 n=71 v=64
268940 Off ch=14 n=66 v=64
268980 On ch=14 n=60 v=47
268980 On ch=14 n=71 v=47
268980 On ch=14 n=66 v=47
269000 Off ch=14 n=69 v=64
269000 Off ch=14 n=63 v=64
269000 Off ch=14 n=56 v=64
269040 On ch=14 n=69 v=47
269040 On ch=14 n=63 v=47
269040 On ch=14 n=56 v=47
269060 Off ch=14 n=60 v=64
269060 Off ch=14 n=71 v=64
269060 Off ch=14 n=66 v=64
269100 On ch=14 n=60 v=46
269100 On ch=14 n=71 v=46
269100 On ch=14 n=66 v=46
269120 Off ch=14 n=69 v=64
269120 Off ch=14 n=63 v=64
269120 Off ch=14 n=56 v=64
269160 On ch=14 n=69 v=46
269160 On ch=14 n=63 v=46
269160 On ch=14 n=56 v=46
269180 Off ch=14 n=60 v=64
269180 Off ch=14 n=71 v=64
269180 Off ch=14 n=66 v=64
269220 On ch=14 n=60 v=46
269220 On ch=14 n=71 v=46
269220 On ch=14 n=66 v=46
269240 Off ch=14 n=69 v=64
269240 Off ch=14 n=63 v=64
269240 Off ch=14 n=56 v=64
269280 On ch=14 n=69 v=45
269280 On ch=14 n=63 v=45
269280 On ch=14 n=56 v=45
269300 Off ch=14 n=60 v=64
269300 Off ch=14 n=71 v=64
269300 Off ch=14 n=66 v=64
269340 On ch=14 n=60 v=45
269340 On ch=14 n=71 v=45
269340 On ch=14 n=66 v=45
269360 Off ch=14 n=69 v=64
269360 Off ch=14 n=63 v=64
269360 Off ch=14 n=56 v=64
269400 On ch=14 n=69 v=44
269400 On ch=14 n=63 v=44
269400 On ch=14 n=56 v=44
269420 Off ch=14 n=60 v=64
269420 Off ch=14 n=71 v=64
269420 Off ch=14 n=66 v=64
269460 On ch=14 n=60 v=44
269460 On ch=14 n=71 v=44
269460 On ch=14 n=66 v=44
269480 Off ch=14 n=69 v=64
269480 Off ch=14 n=63 v=64
269480 Off ch=14 n=56 v=64
269520 On ch=14 n=70 v=52
269520 On ch=14 n=64 v=52
269520 On ch=14 n=61 v=52
269540 Off ch=14 n=60 v=64
269540 Off ch=14 n=71 v=64
269540 Off ch=14 n=66 v=64
269600 Off ch=14 n=70 v=64
269600 Off ch=14 n=64 v=64
269600 Off ch=14 n=61 v=64
270240 On ch=14 n=75 v=54
270240 On ch=14 n=73 v=54
270240 On ch=14 n=67 v=54
270240 On ch=14 n=70 v=54
270300 On ch=14 n=76 v=54
270300 On ch=14 n=68 v=54
270300 On ch=14 n=74 v=54
270300 On ch=14 n=71 v=54
270305 Off ch=14 n=75 v=64
270305 Off ch=14 n=73 v=64
270305 Off ch=14 n=67 v=64
270305 Off ch=14 n=70 v=64
270360 On ch=14 n=75 v=54
270360 On ch=14 n=73 v=54
270360 On ch=14 n=67 v=54
270360 On ch=14 n=70 v=54
270365 Off ch=14 n=76 v=64
270365 Off ch=14 n=68 v=64
270365 Off ch=14 n=74 v=64
270365 Off ch=14 n=71 v=64
270420 On ch=14 n=76 v=55
270420 On ch=14 n=68 v=55
270420 On ch=14 n=74 v=55
270420 On ch=14 n=71 v=55
270425 Off ch=14 n=75 v=64
270425 Off ch=14 n=73 v=64
270425 Off ch=14 n=67 v=64
270425 Off ch=14 n=70 v=64
270480 On ch=14 n=75 v=55
270480 On ch=14 n=73 v=55
270480 On ch=14 n=67 v=55
270480 On ch=14 n=70 v=55
270485 Off ch=14 n=76 v=64
270485 Off ch=14 n=68 v=64
270485 Off ch=14 n=74 v=64
270485 Off ch=14 n=71 v=64
270540 On ch=14 n=76 v=56
270540 On ch=14 n=68 v=56
270540 On ch=14 n=74 v=56
270540 On ch=14 n=71 v=56
270545 Off ch=14 n=75 v=64
270545 Off ch=14 n=73 v=64
270545 Off ch=14 n=67 v=64
270545 Off ch=14 n=70 v=64
270600 On ch=14 n=75 v=56
270600 On ch=14 n=73 v=56
270600 On ch=14 n=67 v=56
270600 On ch=14 n=70 v=56
270605 Off ch=14 n=76 v=64
270605 Off ch=14 n=68 v=64
270605 Off ch=14 n=74 v=64
270605 Off ch=14 n=71 v=64
270660 On ch=14 n=76 v=57
270660 On ch=14 n=68 v=57
270660 On ch=14 n=74 v=57
270660 On ch=14 n=71 v=57
270665 Off ch=14 n=75 v=64
270665 Off ch=14 n=73 v=64
270665 Off ch=14 n=67 v=64
270665 Off ch=14 n=70 v=64
270720 On ch=14 n=75 v=57
270720 On ch=14 n=73 v=57
270720 On ch=14 n=67 v=57
270720 On ch=14 n=70 v=57
270725 Off ch=14 n=76 v=64
270725 Off ch=14 n=68 v=64
270725 Off ch=14 n=74 v=64
270725 Off ch=14 n=71 v=64
270780 On ch=14 n=76 v=57
270780 On ch=14 n=68 v=57
270780 On ch=14 n=74 v=57
270780 On ch=14 n=71 v=57
270785 Off ch=14 n=75 v=64
270785 Off ch=14 n=73 v=64
270785 Off ch=14 n=67 v=64
270785 Off ch=14 n=70 v=64
270840 On ch=14 n=75 v=58
270840 On ch=14 n=67 v=58
270840 On ch=14 n=73 v=58
270840 On ch=14 n=70 v=58
270845 Off ch=14 n=76 v=64
270845 Off ch=14 n=68 v=64
270845 Off ch=14 n=74 v=64
270845 Off ch=14 n=71 v=64
270900 On ch=14 n=76 v=58
270900 On ch=14 n=68 v=58
270900 On ch=14 n=74 v=58
270900 On ch=14 n=71 v=58
270905 Off ch=14 n=75 v=64
270905 Off ch=14 n=67 v=64
270905 Off ch=14 n=73 v=64
270905 Off ch=14 n=70 v=64
270960 On ch=14 n=75 v=59
270960 On ch=14 n=67 v=59
270960 On ch=14 n=73 v=59
270960 On ch=14 n=70 v=59
270965 Off ch=14 n=76 v=64
270965 Off ch=14 n=68 v=64
270965 Off ch=14 n=74 v=64
270965 Off ch=14 n=71 v=64
271020 On ch=14 n=76 v=59
271020 On ch=14 n=68 v=59
271020 On ch=14 n=74 v=59
271020 On ch=14 n=71 v=59
271025 Off ch=14 n=75 v=64
271025 Off ch=14 n=67 v=64
271025 Off ch=14 n=73 v=64
271025 Off ch=14 n=70 v=64
271080 On ch=14 n=75 v=60
271080 On ch=14 n=67 v=60
271080 On ch=14 n=73 v=60
271080 On ch=14 n=70 v=60
271085 Off ch=14 n=76 v=64
271085 Off ch=14 n=68 v=64
271085 Off ch=14 n=74 v=64
271085 Off ch=14 n=71 v=64
271140 On ch=14 n=76 v=60
271140 On ch=14 n=68 v=60
271140 On ch=14 n=74 v=60
271140 On ch=14 n=71 v=60
271145 Off ch=14 n=75 v=64
271145 Off ch=14 n=67 v=64
271145 Off ch=14 n=73 v=64
271145 Off ch=14 n=70 v=64
271200 On ch=14 n=75 v=61
271200 On ch=14 n=67 v=61
271200 On ch=14 n=73 v=61
271200 On ch=14 n=70 v=61
271205 Off ch=14 n=76 v=64
271205 Off ch=14 n=68 v=64
271205 Off ch=14 n=74 v=64
271205 Off ch=14 n=71 v=64
271260 On ch=14 n=76 v=61
271260 On ch=14 n=74 v=61
271260 On ch=14 n=68 v=61
271260 On ch=14 n=71 v=61
271265 Off ch=14 n=75 v=64
271265 Off ch=14 n=67 v=64
271265 Off ch=14 n=73 v=64
271265 Off ch=14 n=70 v=64
271320 On ch=14 n=75 v=61
271320 On ch=14 n=67 v=61
271320 On ch=14 n=73 v=61
271320 On ch=14 n=70 v=61
271325 Off ch=14 n=76 v=64
271325 Off ch=14 n=74 v=64
271325 Off ch=14 n=68 v=64
271325 Off ch=14 n=71 v=64
271380 On ch=14 n=76 v=62
271380 On ch=14 n=74 v=62
271380 On ch=14 n=68 v=62
271380 On ch=14 n=71 v=62
271385 Off ch=14 n=75 v=64
271385 Off ch=14 n=67 v=64
271385 Off ch=14 n=73 v=64
271385 Off ch=14 n=70 v=64
271440 On ch=14 n=75 v=62
271440 On ch=14 n=73 v=62
271440 On ch=14 n=67 v=62
271440 On ch=14 n=70 v=62
271445 Off ch=14 n=76 v=64
271445 Off ch=14 n=74 v=64
271445 Off ch=14 n=68 v=64
271445 Off ch=14 n=71 v=64
271500 On ch=14 n=76 v=63
271500 On ch=14 n=68 v=63
271500 On ch=14 n=74 v=63
271500 On ch=14 n=71 v=63
271505 Off ch=14 n=75 v=64
271505 Off ch=14 n=73 v=64
271505 Off ch=14 n=67 v=64
271505 Off ch=14 n=70 v=64
271560 On ch=14 n=75 v=63
271560 On ch=14 n=67 v=63
271560 On ch=14 n=73 v=63
271560 On ch=14 n=70 v=63
271565 Off ch=14 n=76 v=64
271565 Off ch=14 n=68 v=64
271565 Off ch=14 n=74 v=64
271565 Off ch=14 n=71 v=64
271620 On ch=14 n=76 v=64
271620 On ch=14 n=68 v=64
271620 On ch=14 n=74 v=64
271620 On ch=14 n=71 v=64
271625 Off ch=14 n=75 v=64
271625 Off ch=14 n=67 v=64
271625 Off ch=14 n=73 v=64
271625 Off ch=14 n=70 v=64
271680 On ch=14 n=75 v=64
271680 On ch=14 n=67 v=64
271680 On ch=14 n=73 v=64
271680 On ch=14 n=70 v=64
271685 Off ch=14 n=76 v=64
271685 Off ch=14 n=68 v=64
271685 Off ch=14 n=74 v=64
271685 Off ch=14 n=71 v=64
271740 On ch=14 n=76 v=64
271740 On ch=14 n=68 v=64
271740 On ch=14 n=74 v=64
271740 On ch=14 n=71 v=64
271745 Off ch=14 n=75 v=64
271745 Off ch=14 n=67 v=64
271745 Off ch=14 n=73 v=64
271745 Off ch=14 n=70 v=64
271800 On ch=14 n=75 v=65
271800 On ch=14 n=67 v=65
271800 On ch=14 n=73 v=65
271800 On ch=14 n=70 v=65
271805 Off ch=14 n=76 v=64
271805 Off ch=14 n=68 v=64
271805 Off ch=14 n=74 v=64
271805 Off ch=14 n=71 v=64
271860 On ch=14 n=76 v=65
271860 On ch=14 n=74 v=65
271860 On ch=14 n=68 v=65
271860 On ch=14 n=71 v=65
271865 Off ch=14 n=75 v=64
271865 Off ch=14 n=67 v=64
271865 Off ch=14 n=73 v=64
271865 Off ch=14 n=70 v=64
271920 On ch=14 n=75 v=66
271920 On ch=14 n=67 v=66
271920 On ch=14 n=73 v=66
271920 On ch=14 n=70 v=66
271925 Off ch=14 n=76 v=64
271925 Off ch=14 n=74 v=64
271925 Off ch=14 n=68 v=64
271925 Off ch=14 n=71 v=64
271980 On ch=14 n=76 v=66
271980 On ch=14 n=68 v=66
271980 On ch=14 n=74 v=66
271980 On ch=14 n=71 v=66
271985 Off ch=14 n=75 v=64
271985 Off ch=14 n=67 v=64
271985 Off ch=14 n=73 v=64
271985 Off ch=14 n=70 v=64
272040 On ch=14 n=75 v=67
272040 On ch=14 n=67 v=67
272040 On ch=14 n=73 v=67
272040 On ch=14 n=70 v=67
272045 Off ch=14 n=76 v=64
272045 Off ch=14 n=68 v=64
272045 Off ch=14 n=74 v=64
272045 Off ch=14 n=71 v=64
272100 On ch=14 n=76 v=67
272100 On ch=14 n=74 v=67
272100 On ch=14 n=68 v=67
272100 On ch=14 n=71 v=67
272105 Off ch=14 n=75 v=64
272105 Off ch=14 n=67 v=64
272105 Off ch=14 n=73 v=64
272105 Off ch=14 n=70 v=64
272160 On ch=14 n=75 v=68
272160 On ch=14 n=67 v=68
272160 On ch=14 n=73 v=68
272160 On ch=14 n=70 v=68
272165 Off ch=14 n=76 v=64
272165 Off ch=14 n=74 v=64
272165 Off ch=14 n=68 v=64
272165 Off ch=14 n=71 v=64
272220 On ch=14 n=76 v=68
272220 On ch=14 n=74 v=68
272220 On ch=14 n=68 v=68
272220 On ch=14 n=71 v=68
272225 Off ch=14 n=75 v=64
272225 Off ch=14 n=67 v=64
272225 Off ch=14 n=73 v=64
272225 Off ch=14 n=70 v=64
272280 On ch=14 n=75 v=68
272280 On ch=14 n=67 v=68
272280 On ch=14 n=73 v=68
272280 On ch=14 n=70 v=68
272285 Off ch=14 n=76 v=64
272285 Off ch=14 n=74 v=64
272285 Off ch=14 n=68 v=64
272285 Off ch=14 n=71 v=64
272340 On ch=14 n=76 v=69
272340 On ch=14 n=68 v=69
272340 On ch=14 n=74 v=69
272340 On ch=14 n=71 v=69
272345 Off ch=14 n=75 v=64
272345 Off ch=14 n=67 v=64
272345 Off ch=14 n=73 v=64
272345 Off ch=14 n=70 v=64
272400 Off ch=14 n=76 v=64
272400 Off ch=14 n=68 v=64
272400 Off ch=14 n=74 v=64
272400 Off ch=14 n=71 v=64
272400 On ch=14 n=78 v=69
272400 On ch=14 n=70 v=69
272400 On ch=14 n=76 v=69
272400 On ch=14 n=73 v=69
272515 Off ch=14 n=73 v=64
272520 Off ch=14 n=70 v=64
272520 Off ch=14 n=76 v=64
272526 Off ch=14 n=78 v=64
287520 On ch=14 n=69 v=52
287520 On ch=14 n=63 v=52
287520 On ch=14 n=56 v=52
287580 On ch=14 n=60 v=51
287580 On ch=14 n=71 v=51
287580 On ch=14 n=66 v=51
287600 Off ch=14 n=69 v=64
287600 Off ch=14 n=63 v=64
287600 Off ch=14 n=56 v=64
287640 On ch=14 n=69 v=51
287640 On ch=14 n=63 v=51
287640 On ch=14 n=56 v=51
287660 Off ch=14 n=60 v=64
287660 Off ch=14 n=71 v=64
287660 Off ch=14 n=66 v=64
287700 On ch=14 n=60 v=50
287700 On ch=14 n=71 v=50
287700 On ch=14 n=66 v=50
287720 Off ch=14 n=69 v=64
287720 Off ch=14 n=63 v=64
287720 Off ch=14 n=56 v=64
287760 On ch=14 n=69 v=50
287760 On ch=14 n=63 v=50
287760 On ch=14 n=56 v=50
287780 Off ch=14 n=60 v=64
287780 Off ch=14 n=71 v=64
287780 Off ch=14 n=66 v=64
287820 On ch=14 n=60 v=49
287820 On ch=14 n=71 v=49
287820 On ch=14 n=66 v=49
287840 Off ch=14 n=69 v=64
287840 Off ch=14 n=63 v=64
287840 Off ch=14 n=56 v=64
287880 On ch=14 n=69 v=49
287880 On ch=14 n=63 v=49
287880 On ch=14 n=56 v=49
287900 Off ch=14 n=60 v=64
287900 Off ch=14 n=71 v=64
287900 Off ch=14 n=66 v=64
287940 On ch=14 n=60 v=49
287940 On ch=14 n=71 v=49
287940 On ch=14 n=66 v=49
287960 Off ch=14 n=69 v=64
287960 Off ch=14 n=63 v=64
287960 Off ch=14 n=56 v=64
288000 On ch=14 n=69 v=48
288000 On ch=14 n=63 v=48
288000 On ch=14 n=56 v=48
288020 Off ch=14 n=60 v=64
288020 Off ch=14 n=71 v=64
288020 Off ch=14 n=66 v=64
288060 On ch=14 n=60 v=48
288060 On ch=14 n=71 v=48
288060 On ch=14 n=66 v=48
288080 Off ch=14 n=69 v=64
288080 Off ch=14 n=63 v=64
288080 Off ch=14 n=56 v=64
288120 On ch=14 n=69 v=47
288120 On ch=14 n=63 v=47
288120 On ch=14 n=56 v=47
288140 Off ch=14 n=60 v=64
288140 Off ch=14 n=71 v=64
288140 Off ch=14 n=66 v=64
288180 On ch=14 n=60 v=47
288180 On ch=14 n=71 v=47
288180 On ch=14 n=66 v=47
288200 Off ch=14 n=69 v=64
288200 Off ch=14 n=63 v=64
288200 Off ch=14 n=56 v=64
288240 On ch=14 n=69 v=47
288240 On ch=14 n=63 v=47
288240 On ch=14 n=56 v=47
288260 Off ch=14 n=60 v=64
288260 Off ch=14 n=71 v=64
288260 Off ch=14 n=66 v=64
288300 On ch=14 n=60 v=46
288300 On ch=14 n=71 v=46
288300 On ch=14 n=66 v=46
288320 Off ch=14 n=69 v=64
288320 Off ch=14 n=63 v=64
288320 Off ch=14 n=56 v=64
288360 On ch=14 n=69 v=46
288360 On ch=14 n=63 v=46
288360 On ch=14 n=56 v=46
288380 Off ch=14 n=60 v=64
288380 Off ch=14 n=71 v=64
288380 Off ch=14 n=66 v=64
288420 On ch=14 n=60 v=45
288420 On ch=14 n=71 v=45
288420 On ch=14 n=66 v=45
288440 Off ch=14 n=69 v=64
288440 Off ch=14 n=63 v=64
288440 Off ch=14 n=56 v=64
288480 On ch=14 n=69 v=45
288480 On ch=14 n=63 v=45
288480 On ch=14 n=56 v=45
288500 Off ch=14 n=60 v=64
288500 Off ch=14 n=71 v=64
288500 Off ch=14 n=66 v=64
288540 On ch=14 n=60 v=44
288540 On ch=14 n=71 v=44
288540 On ch=14 n=66 v=44
288560 Off ch=14 n=69 v=64
288560 Off ch=14 n=63 v=64
288560 Off ch=14 n=56 v=64
288600 On ch=14 n=69 v=44
288600 On ch=14 n=63 v=44
288600 On ch=14 n=56 v=44
288620 Off ch=14 n=60 v=64
288620 Off ch=14 n=71 v=64
288620 Off ch=14 n=66 v=64
288660 On ch=14 n=60 v=44
288660 On ch=14 n=71 v=44
288660 On ch=14 n=66 v=44
288680 Off ch=14 n=69 v=64
288680 Off ch=14 n=63 v=64
288680 Off ch=14 n=56 v=64
288720 On ch=14 n=69 v=43
288720 On ch=14 n=63 v=43
288720 On ch=14 n=56 v=43
288740 Off ch=14 n=60 v=64
288740 Off ch=14 n=71 v=64
288740 Off ch=14 n=66 v=64
288780 On ch=14 n=60 v=43
288780 On ch=14 n=71 v=43
288780 On ch=14 n=66 v=43
288800 Off ch=14 n=69 v=64
288800 Off ch=14 n=63 v=64
288800 Off ch=14 n=56 v=64
288840 On ch=14 n=69 v=42
288840 On ch=14 n=63 v=42
288840 On ch=14 n=56 v=42
288860 Off ch=14 n=60 v=64
288860 Off ch=14 n=71 v=64
288860 Off ch=14 n=66 v=64
288900 On ch=14 n=60 v=42
288900 On ch=14 n=71 v=42
288900 On ch=14 n=66 v=42
288920 Off ch=14 n=69 v=64
288920 Off ch=14 n=63 v=64
288920 Off ch=14 n=56 v=64
288960 On ch=14 n=69 v=54
288960 On ch=14 n=63 v=54
288960 On ch=14 n=56 v=54
288980 Off ch=14 n=60 v=64
288980 Off ch=14 n=71 v=64
288980 Off ch=14 n=66 v=64
289020 On ch=14 n=60 v=53
289020 On ch=14 n=71 v=53
289020 On ch=14 n=66 v=53
289040 Off ch=14 n=69 v=64
289040 Off ch=14 n=63 v=64
289040 Off ch=14 n=56 v=64
289080 On ch=14 n=69 v=52
289080 On ch=14 n=63 v=52
289080 On ch=14 n=56 v=52
289100 Off ch=14 n=60 v=64
289100 Off ch=14 n=71 v=64
289100 Off ch=14 n=66 v=64
289140 On ch=14 n=60 v=51
289140 On ch=14 n=71 v=51
289140 On ch=14 n=66 v=51
289160 Off ch=14 n=69 v=64
289160 Off ch=14 n=63 v=64
289160 Off ch=14 n=56 v=64
289200 On ch=14 n=69 v=50
289200 On ch=14 n=63 v=50
289200 On ch=14 n=56 v=50
289220 Off ch=14 n=60 v=64
289220 Off ch=14 n=71 v=64
289220 Off ch=14 n=66 v=64
289260 On ch=14 n=60 v=49
289260 On ch=14 n=71 v=49
289260 On ch=14 n=66 v=49
289280 Off ch=14 n=69 v=64
289280 Off ch=14 n=63 v=64
289280 Off ch=14 n=56 v=64
289320 On ch=14 n=69 v=48
289320 On ch=14 n=63 v=48
289320 On ch=14 n=56 v=48
289340 Off ch=14 n=60 v=64
289340 Off ch=14 n=71 v=64
289340 Off ch=14 n=66 v=64
289380 On ch=14 n=60 v=47
289380 On ch=14 n=71 v=47
289380 On ch=14 n=66 v=47
289400 Off ch=14 n=69 v=64
289400 Off ch=14 n=63 v=64
289400 Off ch=14 n=56 v=64
289440 On ch=14 n=69 v=46
289440 On ch=14 n=63 v=46
289440 On ch=14 n=56 v=46
289460 Off ch=14 n=60 v=64
289460 Off ch=14 n=71 v=64
289460 Off ch=14 n=66 v=64
289500 On ch=14 n=60 v=45
289500 On ch=14 n=71 v=45
289500 On ch=14 n=66 v=45
289520 Off ch=14 n=69 v=64
289520 Off ch=14 n=63 v=64
289520 Off ch=14 n=56 v=64
289560 On ch=14 n=69 v=44
289560 On ch=14 n=63 v=44
289560 On ch=14 n=56 v=44
289580 Off ch=14 n=60 v=64
289580 Off ch=14 n=71 v=64
289580 Off ch=14 n=66 v=64
289620 On ch=14 n=60 v=43
289620 On ch=14 n=71 v=43
289620 On ch=14 n=66 v=43
289640 Off ch=14 n=69 v=64
289640 Off ch=14 n=63 v=64
289640 Off ch=14 n=56 v=64
289680 On ch=14 n=69 v=52
289680 On ch=14 n=63 v=52
289680 On ch=14 n=56 v=52
289700 Off ch=14 n=60 v=64
289700 Off ch=14 n=71 v=64
289700 Off ch=14 n=66 v=64
289740 On ch=14 n=60 v=51
289740 On ch=14 n=71 v=51
289740 On ch=14 n=66 v=51
289760 Off ch=14 n=69 v=64
289760 Off ch=14 n=63 v=64
289760 Off ch=14 n=56 v=64
289800 On ch=14 n=69 v=51
289800 On ch=14 n=63 v=51
289800 On ch=14 n=56 v=51
289820 Off ch=14 n=60 v=64
289820 Off ch=14 n=71 v=64
289820 Off ch=14 n=66 v=64
289860 On ch=14 n=60 v=50
289860 On ch=14 n=71 v=50
289860 On ch=14 n=66 v=50
289880 Off ch=14 n=69 v=64
289880 Off ch=14 n=63 v=64
289880 Off ch=14 n=56 v=64
289920 On ch=14 n=69 v=50
289920 On ch=14 n=63 v=50
289920 On ch=14 n=56 v=50
289940 Off ch=14 n=60 v=64
289940 Off ch=14 n=71 v=64
289940 Off ch=14 n=66 v=64
289980 On ch=14 n=60 v=49
289980 On ch=14 n=71 v=49
289980 On ch=14 n=66 v=49
290000 Off ch=14 n=69 v=64
290000 Off ch=14 n=63 v=64
290000 Off ch=14 n=56 v=64
290040 On ch=14 n=69 v=49
290040 On ch=14 n=63 v=49
290040 On ch=14 n=56 v=49
290060 Off ch=14 n=60 v=64
290060 Off ch=14 n=71 v=64
290060 Off ch=14 n=66 v=64
290100 On ch=14 n=60 v=49
290100 On ch=14 n=71 v=49
290100 On ch=14 n=66 v=49
290120 Off ch=14 n=69 v=64
290120 Off ch=14 n=63 v=64
290120 Off ch=14 n=56 v=64
290160 On ch=14 n=69 v=48
290160 On ch=14 n=63 v=48
290160 On ch=14 n=56 v=48
290180 Off ch=14 n=60 v=64
290180 Off ch=14 n=71 v=64
290180 Off ch=14 n=66 v=64
290220 On ch=14 n=60 v=48
290220 On ch=14 n=71 v=48
290220 On ch=14 n=66 v=48
290240 Off ch=14 n=69 v=64
290240 Off ch=14 n=63 v=64
290240 Off ch=14 n=56 v=64
290280 On ch=14 n=69 v=47
290280 On ch=14 n=63 v=47
290280 On ch=14 n=56 v=47
290300 Off ch=14 n=60 v=64
290300 Off ch=14 n=71 v=64
290300 Off ch=14 n=66 v=64
290340 On ch=14 n=60 v=47
290340 On ch=14 n=71 v=47
290340 On ch=14 n=66 v=47
290360 Off ch=14 n=69 v=64
290360 Off ch=14 n=63 v=64
290360 Off ch=14 n=56 v=64
290400 On ch=14 n=69 v=47
290400 On ch=14 n=63 v=47
290400 On ch=14 n=56 v=47
290420 Off ch=14 n=60 v=64
290420 Off ch=14 n=71 v=64
290420 Off ch=14 n=66 v=64
290460 On ch=14 n=60 v=46
290460 On ch=14 n=71 v=46
290460 On ch=14 n=66 v=46
290480 Off ch=14 n=69 v=64
290480 Off ch=14 n=63 v=64
290480 Off ch=14 n=56 v=64
290520 On ch=14 n=69 v=46
290520 On ch=14 n=63 v=46
290520 On ch=14 n=56 v=46
290540 Off ch=14 n=60 v=64
290540 Off ch=14 n=71 v=64
290540 Off ch=14 n=66 v=64
290580 On ch=14 n=60 v=45
290580 On ch=14 n=71 v=45
290580 On ch=14 n=66 v=45
290600 Off ch=14 n=69 v=64
290600 Off ch=14 n=63 v=64
290600 Off ch=14 n=56 v=64
290640 On ch=14 n=69 v=45
290640 On ch=14 n=63 v=45
290640 On ch=14 n=56 v=45
290660 Off ch=14 n=60 v=64
290660 Off ch=14 n=71 v=64
290660 Off ch=14 n=66 v=64
290700 On ch=14 n=60 v=44
290700 On ch=14 n=71 v=44
290700 On ch=14 n=66 v=44
290720 Off ch=14 n=69 v=64
290720 Off ch=14 n=63 v=64
290720 Off ch=14 n=56 v=64
290760 On ch=14 n=69 v=44
290760 On ch=14 n=63 v=44
290760 On ch=14 n=56 v=44
290780 Off ch=14 n=60 v=64
290780 Off ch=14 n=71 v=64
290780 Off ch=14 n=66 v=64
290820 On ch=14 n=60 v=44
290820 On ch=14 n=71 v=44
290820 On ch=14 n=66 v=44
290840 Off ch=14 n=69 v=64
290840 Off ch=14 n=63 v=64
290840 Off ch=14 n=56 v=64
290880 On ch=14 n=69 v=43
290880 On ch=14 n=63 v=43
290880 On ch=14 n=56 v=43
290900 Off ch=14 n=60 v=64
290900 Off ch=14 n=71 v=64
290900 Off ch=14 n=66 v=64
290940 On ch=14 n=60 v=43
290940 On ch=14 n=71 v=43
290940 On ch=14 n=66 v=43
290960 Off ch=14 n=69 v=64
290960 Off ch=14 n=63 v=64
290960 Off ch=14 n=56 v=64
291000 On ch=14 n=69 v=42
291000 On ch=14 n=63 v=42
291000 On ch=14 n=56 v=42
291020 Off ch=14 n=60 v=64
291020 Off ch=14 n=71 v=64
291020 Off ch=14 n=66 v=64
291060 On ch=14 n=60 v=42
291060 On ch=14 n=71 v=42
291060 On ch=14 n=66 v=42
291080 Off ch=14 n=69 v=64
291080 Off ch=14 n=63 v=64
291080 Off ch=14 n=56 v=64
291120 On ch=14 n=69 v=54
291120 On ch=14 n=63 v=54
291120 On ch=14 n=56 v=54
291140 Off ch=14 n=60 v=64
291140 Off ch=14 n=71 v=64
291140 Off ch=14 n=66 v=64
291180 On ch=14 n=60 v=53
291180 On ch=14 n=71 v=53
291180 On ch=14 n=66 v=53
291200 Off ch=14 n=69 v=64
291200 Off ch=14 n=63 v=64
291200 Off ch=14 n=56 v=64
291240 On ch=14 n=69 v=52
291240 On ch=14 n=63 v=52
291240 On ch=14 n=56 v=52
291260 Off ch=14 n=60 v=64
291260 Off ch=14 n=71 v=64
291260 Off ch=14 n=66 v=64
291300 On ch=14 n=60 v=51
291300 On ch=14 n=71 v=51
291300 On ch=14 n=66 v=51
291320 Off ch=14 n=69 v=64
291320 Off ch=14 n=63 v=64
291320 Off ch=14 n=56 v=64
291360 On ch=14 n=69 v=50
291360 On ch=14 n=63 v=50
291360 On ch=14 n=56 v=50
291380 Off ch=14 n=60 v=64
291380 Off ch=14 n=71 v=64
291380 Off ch=14 n=66 v=64
291420 On ch=14 n=60 v=49
291420 On ch=14 n=71 v=49
291420 On ch=14 n=66 v=49
291440 Off ch=14 n=69 v=64
291440 Off ch=14 n=63 v=64
291440 Off ch=14 n=56 v=64
291480 On ch=14 n=69 v=48
291480 On ch=14 n=63 v=48
291480 On ch=14 n=56 v=48
291500 Off ch=14 n=60 v=64
291500 Off ch=14 n=71 v=64
291500 Off ch=14 n=66 v=64
291540 On ch=14 n=60 v=47
291540 On ch=14 n=71 v=47
291540 On ch=14 n=66 v=47
291560 Off ch=14 n=69 v=64
291560 Off ch=14 n=63 v=64
291560 Off ch=14 n=56 v=64
291600 On ch=14 n=69 v=46
291600 On ch=14 n=63 v=46
291600 On ch=14 n=56 v=46
291620 Off ch=14 n=60 v=64
291620 Off ch=14 n=71 v=64
291620 Off ch=14 n=66 v=64
291660 On ch=14 n=60 v=45
291660 On ch=14 n=71 v=45
291660 On ch=14 n=66 v=45
291680 Off ch=14 n=69 v=64
291680 Off ch=14 n=63 v=64
291680 Off ch=14 n=56 v=64
291720 On ch=14 n=69 v=44
291720 On ch=14 n=63 v=44
291720 On ch=14 n=56 v=44
291740 Off ch=14 n=60 v=64
291740 Off ch=14 n=71 v=64
291740 Off ch=14 n=66 v=64
291780 On ch=14 n=60 v=43
291780 On ch=14 n=71 v=43
291780 On ch=14 n=66 v=43
291800 Off ch=14 n=69 v=64
291800 Off ch=14 n=63 v=64
291800 Off ch=14 n=56 v=64
291840 On ch=14 n=70 v=52
291840 On ch=14 n=64 v=52
291840 On ch=14 n=61 v=52
291860 Off ch=14 n=60 v=64
291860 Off ch=14 n=71 v=64
291860 Off ch=14 n=66 v=64
291920 Off ch=14 n=70 v=64
291920 Off ch=14 n=64 v=64
291920 Off ch=14 n=61 v=64
296880 On ch=14 n=67 v=46
296982 Off ch=14 n=67 v=64
296982 On ch=14 n=70 v=46
297085 Off ch=14 n=70 v=64
297085 On ch=14 n=73 v=46
297188 Off ch=14 n=73 v=64
297188 On ch=14 n=75 v=46
297291 Off ch=14 n=75 v=64
297291 On ch=14 n=79 v=46
297394 Off ch=14 n=79 v=64
297394 On ch=14 n=82 v=46
297497 Off ch=14 n=82 v=64
297497 On ch=14 n=85 v=46
297600 Off ch=14 n=85 v=64
297600 On ch=14 n=87 v=46
297702 Off ch=14 n=87 v=64
297702 On ch=14 n=85 v=46
297805 Off ch=14 n=85 v=64
297805 On ch=14 n=82 v=46
297908 Off ch=14 n=82 v=64
297908 On ch=14 n=79 v=46
298011 Off ch=14 n=79 v=64
298011 On ch=14 n=75 v=46
298114 Off ch=14 n=75 v=64
298114 On ch=14 n=73 v=46
298217 Off ch=14 n=73 v=64
298217 On ch=14 n=70 v=46
298320 Off ch=14 n=70 v=64
298320 On ch=14 n=67 v=46
298422 Off ch=14 n=67 v=64
298422 On ch=14 n=70 v=46
298525 Off ch=14 n=70 v=64
298525 On ch=14 n=73 v=46
298628 Off ch=14 n=73 v=64
298628 On ch=14 n=75 v=46
298731 Off ch=14 n=75 v=64
298731 On ch=14 n=79 v=46
298834 Off ch=14 n=79 v=64
298834 On ch=14 n=82 v=46
298937 Off ch=14 n=82 v=64
298937 On ch=14 n=85 v=46
299040 Off ch=14 n=85 v=64
299040 On ch=14 n=87 v=46
299142 Off ch=14 n=87 v=64
299142 On ch=14 n=85 v=46
299245 Off ch=14 n=85 v=64
299245 On ch=14 n=82 v=46
299348 Off ch=14 n=82 v=64
299348 On ch=14 n=79 v=46
299451 Off ch=14 n=79 v=64
299451 On ch=14 n=75 v=46
299554 Off ch=14 n=75 v=64
299554 On ch=14 n=73 v=46
299657 Off ch=14 n=73 v=64
299657 On ch=14 n=70 v=46
299760 Off ch=14 n=70 v=64
299760 On ch=14 n=67 v=46
299862 Off ch=14 n=67 v=64
299862 On ch=14 n=70 v=46
299965 Off ch=14 n=70 v=64
299965 On ch=14 n=73 v=46
300068 Off ch=14 n=73 v=64
300068 On ch=14 n=75 v=46
300171 Off ch=14 n=75 v=64
300171 On ch=14 n=79 v=46
300274 Off ch=14 n=79 v=64
300274 On ch=14 n=82 v=46
300377 Off ch=14 n=82 v=64
300377 On ch=14 n=85 v=46
300480 Off ch=14 n=85 v=64
300480 On ch=14 n=87 v=46
300582 Off ch=14 n=87 v=64
300582 On ch=14 n=85 v=46
300685 Off ch=14 n=85 v=64
300685 On ch=14 n=82 v=46
300788 Off ch=14 n=82 v=64
300788 On ch=14 n=79 v=46
300891 Off ch=14 n=79 v=64
300891 On ch=14 n=75 v=46
300994 Off ch=14 n=75 v=64
300994 On ch=14 n=73 v=46
301097 Off ch=14 n=73 v=64
301097 On ch=14 n=70 v=46
301200 Off ch=14 n=70 v=64
301200 On ch=14 n=67 v=46
301302 Off ch=14 n=67 v=64
301302 On ch=14 n=70 v=46
301405 Off ch=14 n=70 v=64
301405 On ch=14 n=73 v=46
301508 Off ch=14 n=73 v=64
301508 On ch=14 n=75 v=46
301611 Off ch=14 n=75 v=64
301611 On ch=14 n=79 v=46
301714 Off ch=14 n=79 v=64
301714 On ch=14 n=82 v=46
301817 Off ch=14 n=82 v=64
301817 On ch=14 n=85 v=46
301920 Off ch=14 n=85 v=64
301920 On ch=14 n=87 v=46
302022 Off ch=14 n=87 v=64
302022 On ch=14 n=85 v=46
302125 Off ch=14 n=85 v=64
302125 On ch=14 n=82 v=46
302228 Off ch=14 n=82 v=64
302228 On ch=14 n=79 v=46
302331 Off ch=14 n=79 v=64
302331 On ch=14 n=75 v=46
302434 Off ch=14 n=75 v=64
302434 On ch=14 n=73 v=46
302537 Off ch=14 n=73 v=64
302537 On ch=14 n=70 v=46
302640 Off ch=14 n=70 v=64
302640 On ch=14 n=67 v=46
302742 Off ch=14 n=67 v=64
302742 On ch=14 n=70 v=46
302845 Off ch=14 n=70 v=64
302845 On ch=14 n=73 v=46
302948 Off ch=14 n=73 v=64
302948 On ch=14 n=75 v=46
303051 Off ch=14 n=75 v=64
303051 On ch=14 n=79 v=46
303154 Off ch=14 n=79 v=64
303154 On ch=14 n=82 v=46
303257 Off ch=14 n=82 v=64
303257 On ch=14 n=85 v=46
303360 Off ch=14 n=85 v=64
303360 On ch=14 n=87 v=46
303462 Off ch=14 n=87 v=64
303462 On ch=14 n=85 v=46
303565 Off ch=14 n=85 v=64
303565 On ch=14 n=82 v=46
303668 Off ch=14 n=82 v=64
303668 On ch=14 n=79 v=46
303771 Off ch=14 n=79 v=64
303771 On ch=14 n=75 v=46
303874 Off ch=14 n=75 v=64
303874 On ch=14 n=73 v=46
303977 Off ch=14 n=73 v=64
303977 On ch=14 n=70 v=46
304080 Off ch=14 n=70 v=64
304080 On ch=14 n=67 v=46
304182 Off ch=14 n=67 v=64
304182 On ch=14 n=70 v=46
304285 Off ch=14 n=70 v=64
304285 On ch=14 n=73 v=46
304388 Off ch=14 n=73 v=64
304388 On ch=14 n=75 v=46
304491 Off ch=14 n=75 v=64
304491 On ch=14 n=79 v=46
304594 Off ch=14 n=79 v=64
304594 On ch=14 n=82 v=46
304697 Off ch=14 n=82 v=64
304697 On ch=14 n=85 v=46
304800 Off ch=14 n=85 v=64
304800 On ch=14 n=87 v=46
304902 Off ch=14 n=87 v=64
304902 On ch=14 n=85 v=46
305005 Off ch=14 n=85 v=64
305005 On ch=14 n=82 v=46
305108 Off ch=14 n=82 v=64
305108 On ch=14 n=79 v=46
305211 Off ch=14 n=79 v=64
305211 On ch=14 n=75 v=46
305314 Off ch=14 n=75 v=64
305314 On ch=14 n=73 v=46
305417 Off ch=14 n=73 v=64
305417 On ch=14 n=70 v=46
305520 Off ch=14 n=70 v=64
441120 Par ch=14 c=0 v=0
441120 Par ch=14 c=32 v=2
441120 PrCh ch=14 p=71
445292 Par ch=14 c=7 v=100
445440 On ch=14 n=77 v=40
445480 On ch=14 n=78 v=39
445500 Off ch=14 n=77 v=64
445520 On ch=14 n=77 v=39
445540 Off ch=14 n=78 v=64
445560 On ch=14 n=78 v=38
445580 Off ch=14 n=77 v=64
445600 On ch=14 n=77 v=38
445620 Off ch=14 n=78 v=64
445640 On ch=14 n=78 v=38
445660 Off ch=14 n=77 v=64
445680 On ch=14 n=77 v=37
445700 Off ch=14 n=78 v=64
445720 On ch=14 n=78 v=37
445740 Off ch=14 n=77 v=64
445760 On ch=14 n=77 v=37
445780 Off ch=14 n=78 v=64
445800 On ch=14 n=78 v=36
445820 Off ch=14 n=77 v=64
445840 On ch=14 n=77 v=36
445860 Off ch=14 n=78 v=64
445880 On ch=14 n=78 v=35
445900 Off ch=14 n=77 v=64
445920 On ch=14 n=77 v=35
445940 Off ch=14 n=78 v=64
445960 On ch=14 n=78 v=35
445980 Off ch=14 n=77 v=64
446000 On ch=14 n=77 v=34
446020 Off ch=14 n=78 v=64
446040 On ch=14 n=78 v=34
446060 Off ch=14 n=77 v=64
446080 On ch=14 n=77 v=34
446100 Off ch=14 n=78 v=64
446120 On ch=14 n=78 v=33
446140 Off ch=14 n=77 v=64
446160 On ch=14 n=77 v=33
446180 Off ch=14 n=78 v=64
446200 On ch=14 n=78 v=32
446220 Off ch=14 n=77 v=64
446240 On ch=14 n=77 v=32
446260 Off ch=14 n=78 v=64
446280 On ch=14 n=78 v=32
446300 Off ch=14 n=77 v=64
446320 On ch=14 n=77 v=31
446340 Off ch=14 n=78 v=64
446360 On ch=14 n=78 v=31
446380 Off ch=14 n=77 v=64
446400 On ch=14 n=77 v=31
446420 Off ch=14 n=78 v=64
446440 On ch=14 n=78 v=30
446460 Off ch=14 n=77 v=64
446480 On ch=14 n=77 v=30
446500 Off ch=14 n=78 v=64
446540 Off ch=14 n=77 v=64
446640 On ch=14 n=77 v=40
446720 Off ch=14 n=77 v=64
446720 On ch=14 n=75 v=40
446800 Off ch=14 n=75 v=64
446800 On ch=14 n=73 v=40
446880 Off ch=14 n=73 v=64
446880 On ch=14 n=72 v=38
446920 On ch=14 n=73 v=37
446940 Off ch=14 n=72 v=64
446960 On ch=14 n=72 v=37
446980 Off ch=14 n=73 v=64
447000 On ch=14 n=73 v=37
447020 Off ch=14 n=72 v=64
447040 On ch=14 n=72 v=37
447060 Off ch=14 n=73 v=64
447080 On ch=14 n=73 v=36
447100 Off ch=14 n=72 v=64
447120 On ch=14 n=72 v=36
447140 Off ch=14 n=73 v=64
447160 On ch=14 n=73 v=36
447180 Off ch=14 n=72 v=64
447200 On ch=14 n=72 v=36
447220 Off ch=14 n=73 v=64
447240 On ch=14 n=73 v=36
447260 Off ch=14 n=72 v=64
447280 On ch=14 n=72 v=35
447300 Off ch=14 n=73 v=64
447320 On ch=14 n=73 v=35
447340 Off ch=14 n=72 v=64
447360 On ch=14 n=72 v=35
447380 Off ch=14 n=73 v=64
447400 On ch=14 n=73 v=35
447420 Off ch=14 n=72 v=64
447440 On ch=14 n=72 v=35
447460 Off ch=14 n=73 v=64
447480 On ch=14 n=73 v=34
447500 Off ch=14 n=72 v=64
447520 On ch=14 n=72 v=34
447540 Off ch=14 n=73 v=64
447560 On ch=14 n=73 v=34
447580 Off ch=14 n=72 v=64
447600 On ch=14 n=72 v=34
447620 Off ch=14 n=73 v=64
447640 On ch=14 n=73 v=34
447660 Off ch=14 n=72 v=64
447680 On ch=14 n=72 v=33
447700 Off ch=14 n=73 v=64
447720 On ch=14 n=73 v=33
447740 Off ch=14 n=72 v=64
447760 On ch=14 n=72 v=33
447780 Off ch=14 n=73 v=64
447800 On ch=14 n=73 v=33
447820 Off ch=14 n=72 v=64
447840 On ch=14 n=72 v=33
447860 Off ch=14 n=73 v=64
447880 On ch=14 n=73 v=32
447900 Off ch=14 n=72 v=64
447920 On ch=14 n=72 v=32
447940 Off ch=14 n=73 v=64
447960 On ch=14 n=73 v=32
447980 Off ch=14 n=72 v=64
448000 On ch=14 n=72 v=32
448020 Off ch=14 n=73 v=64
448040 On ch=14 n=73 v=32
448060 Off ch=14 n=72 v=64
448080 On ch=14 n=72 v=31
448100 Off ch=14 n=73 v=64
448120 On ch=14 n=73 v=31
448140 Off ch=14 n=72 v=64
448160 On ch=14 n=72 v=31
448180 Off ch=14 n=73 v=64
448200 On ch=14 n=73 v=31
448220 Off ch=14 n=72 v=64
448240 On ch=14 n=72 v=31
448260 Off ch=14 n=73 v=64
448280 On ch=14 n=73 v=30
448300 Off ch=14 n=72 v=64
448320 On ch=14 n=72 v=30
448340 Off ch=14 n=73 v=64
448360 On ch=14 n=73 v=30
448380 Off ch=14 n=72 v=64
448400 On ch=14 n=72 v=30
448420 Off ch=14 n=73 v=64
448440 On ch=14 n=73 v=30
448460 Off ch=14 n=72 v=64
448480 On ch=14 n=72 v=29
448500 Off ch=14 n=73 v=64
448520 On ch=14 n=73 v=29
448540 Off ch=14 n=72 v=64
448560 On ch=14 n=72 v=29
448580 Off ch=14 n=73 v=64
448600 On ch=14 n=73 v=29
448620 Off ch=14 n=72 v=64
448640 On ch=14 n=72 v=29
448660 Off ch=14 n=73 v=64
448680 On ch=14 n=73 v=28
448700 Off ch=14 n=72 v=64
448720 On ch=14 n=72 v=28
448740 Off ch=14 n=73 v=64
448760 On ch=14 n=73 v=28
448780 Off ch=14 n=72 v=64
448800 On ch=14 n=72 v=28
448820 Off ch=14 n=73 v=64
448860 Off ch=14 n=72 v=64
449040 On ch=14 n=72 v=40
449120 Off ch=14 n=72 v=64
449120 On ch=14 n=73 v=40
449200 Off ch=14 n=73 v=64
449200 On ch=14 n=75 v=40
449280 Off ch=14 n=75 v=64
449280 On ch=14 n=77 v=40
449408 Off ch=14 n=77 v=64
449520 On ch=14 n=77 v=40
449600 Off ch=14 n=77 v=64
449600 On ch=14 n=75 v=40
449680 Off ch=14 n=75 v=64
449680 On ch=14 n=73 v=40
449760 Off ch=14 n=73 v=64
449760 On ch=14 n=72 v=39
449800 On ch=14 n=73 v=39
449820 Off ch=14 n=72 v=64
449840 On ch=14 n=72 v=38
449860 Off ch=14 n=73 v=64
449880 On ch=14 n=73 v=37
449900 Off ch=14 n=72 v=64
449920 On ch=14 n=72 v=37
449940 Off ch=14 n=73 v=64
449960 On ch=14 n=73 v=36
449980 Off ch=14 n=72 v=64
450000 On ch=14 n=72 v=35
450020 Off ch=14 n=73 v=64
450040 On ch=14 n=73 v=35
450060 Off ch=14 n=72 v=64
450080 On ch=14 n=72 v=34
450100 Off ch=14 n=73 v=64
450120 On ch=14 n=73 v=33
450140 Off ch=14 n=72 v=64
450160 On ch=14 n=72 v=33
450180 Off ch=14 n=73 v=64
450200 On ch=14 n=73 v=32
450220 Off ch=14 n=72 v=64
450240 On ch=14 n=72 v=31
450260 Off ch=14 n=73 v=64
450280 On ch=14 n=73 v=31
450300 Off ch=14 n=72 v=64
450320 On ch=14 n=72 v=30
450340 Off ch=14 n=73 v=64
450380 Off ch=14 n=72 v=64
450480 On ch=14 n=72 v=40
450560 Off ch=14 n=72 v=64
450560 On ch=14 n=73 v=40
450640 Off ch=14 n=73 v=64
450640 On ch=14 n=75 v=40
450720 Off ch=14 n=75 v=64
450720 On ch=14 n=77 v=40
450760 On ch=14 n=78 v=39
450780 Off ch=14 n=77 v=64
450800 On ch=14 n=77 v=39
450820 Off ch=14 n=78 v=64
450840 On ch=14 n=78 v=39
450860 Off ch=14 n=77 v=64
450880 On ch=14 n=77 v=39
450900 Off ch=14 n=78 v=64
450920 On ch=14 n=78 v=39
450940 Off ch=14 n=77 v=64
450960 On ch=14 n=77 v=38
450980 Off ch=14 n=78 v=64
451000 On ch=14 n=78 v=38
451020 Off ch=14 n=77 v=64
451040 On ch=14 n=77 v=38
451060 Off ch=14 n=78 v=64
451080 On ch=14 n=78 v=38
451100 Off ch=14 n=77 v=64
451120 On ch=14 n=77 v=38
451140 Off ch=14 n=78 v=64
451160 On ch=14 n=78 v=37
451180 Off ch=14 n=77 v=64
451200 On ch=14 n=77 v=37
451220 Off ch=14 n=78 v=64
451240 On ch=14 n=78 v=37
451260 Off ch=14 n=77 v=64
451280 On ch=14 n=77 v=37
451300 Off ch=14 n=78 v=64
451320 On ch=14 n=78 v=37
451340 Off ch=14 n=77 v=64
451360 On ch=14 n=77 v=36
451380 Off ch=14 n=78 v=64
451400 On ch=14 n=78 v=36
451420 Off ch=14 n=77 v=64
451440 On ch=14 n=77 v=36
451460 Off ch=14 n=78 v=64
451480 On ch=14 n=78 v=36
451500 Off ch=14 n=77 v=64
451520 On ch=14 n=77 v=36
451540 Off ch=14 n=78 v=64
451560 On ch=14 n=78 v=35
451580 Off ch=14 n=77 v=64
451600 On ch=14 n=77 v=35
451620 Off ch=14 n=78 v=64
451640 On ch=14 n=78 v=35
451660 Off ch=14 n=77 v=64
451680 On ch=14 n=77 v=35
451700 Off ch=14 n=78 v=64
451720 On ch=14 n=78 v=35
451740 Off ch=14 n=77 v=64
451760 On ch=14 n=77 v=34
451780 Off ch=14 n=78 v=64
451800 On ch=14 n=78 v=34
451820 Off ch=14 n=77 v=64
451840 On ch=14 n=77 v=34
451860 Off ch=14 n=78 v=64
451880 On ch=14 n=78 v=34
451900 Off ch=14 n=77 v=64
451920 On ch=14 n=77 v=34
451940 Off ch=14 n=78 v=64
451960 On ch=14 n=78 v=33
451980 Off ch=14 n=77 v=64
452000 On ch=14 n=77 v=33
452020 Off ch=14 n=78 v=64
452040 On ch=14 n=78 v=33
452060 Off ch=14 n=77 v=64
452080 On ch=14 n=77 v=33
452100 Off ch=14 n=78 v=64
452120 On ch=14 n=78 v=33
452140 Off ch=14 n=77 v=64
452160 On ch=14 n=77 v=32
452180 Off ch=14 n=78 v=64
452200 On ch=14 n=78 v=32
452220 Off ch=14 n=77 v=64
452240 On ch=14 n=77 v=32
452260 Off ch=14 n=78 v=64
452280 On ch=14 n=78 v=32
452300 Off ch=14 n=77 v=64
452320 On ch=14 n=77 v=32
452340 Off ch=14 n=78 v=64
452360 On ch=14 n=78 v=31
452380 Off ch=14 n=77 v=64
452400 On ch=14 n=77 v=31
452420 Off ch=14 n=78 v=64
452440 On ch=14 n=78 v=31
452460 Off ch=14 n=77 v=64
452480 On ch=14 n=77 v=31
452500 Off ch=14 n=78 v=64
452520 On ch=14 n=78 v=31
452540 Off ch=14 n=77 v=64
452560 On ch=14 n=77 v=30
452580 Off ch=14 n=78 v=64
452600 On ch=14 n=78 v=30
452620 Off ch=14 n=77 v=64
452640 On ch=14 n=77 v=30
452660 Off ch=14 n=78 v=64
452680 On ch=14 n=78 v=30
452700 Off ch=14 n=77 v=64
452720 On ch=14 n=77 v=30
452740 Off ch=14 n=78 v=64
452760 On ch=14 n=78 v=30
452780 Off ch=14 n=77 v=64
452800 On ch=14 n=77 v=29
452820 Off ch=14 n=78 v=64
452840 On ch=14 n=78 v=29
452860 Off ch=14 n=77 v=64
452880 On ch=14 n=77 v=29
452900 Off ch=14 n=78 v=64
452920 On ch=14 n=78 v=29
452940 Off ch=14 n=77 v=64
452960 On ch=14 n=77 v=29
452980 Off ch=14 n=78 v=64
453000 On ch=14 n=78 v=28
453020 Off ch=14 n=77 v=64
453040 On ch=14 n=77 v=28
453060 Off ch=14 n=78 v=64
453080 On ch=14 n=78 v=28
453100 Off ch=14 n=77 v=64
453120 On ch=14 n=77 v=28
453140 Off ch=14 n=78 v=64
453160 On ch=14 n=78 v=28
453180 Off ch=14 n=77 v=64
453200 On ch=14 n=77 v=27
453220 Off ch=14 n=78 v=64
453240 On ch=14 n=78 v=27
453260 Off ch=14 n=77 v=64
453280 On ch=14 n=77 v=27
453300 Off ch=14 n=78 v=64
453320 On ch=14 n=78 v=27
453340 Off ch=14 n=77 v=64
453360 On ch=14 n=77 v=27
453380 Off ch=14 n=78 v=64
453400 On ch=14 n=78 v=26
453420 Off ch=14 n=77 v=64
453440 On ch=14 n=77 v=26
453460 Off ch=14 n=78 v=64
453480 On ch=14 n=78 v=26
453500 Off ch=14 n=77 v=64
453520 On ch=14 n=77 v=26
453540 Off ch=14 n=78 v=64
453560 On ch=14 n=78 v=26
453580 Off ch=14 n=77 v=64
453620 Off ch=14 n=78 v=64
524160 Meta TrkEnd
TrkEnd
MTrk
0 Meta InstrName "SC-88VL"
0 Meta TrkName "Str"
960 Par ch=15 c=93 v=0
960 Par ch=15 c=91 v=110
970 Par ch=15 c=7 v=100
1200 Par ch=15 c=0 v=0
1200 Par ch=15 c=32 v=1
1200 PrCh ch=15 p=48
39840 On ch=15 n=69 v=32
39870 On ch=15 n=71 v=32
39886 Off ch=15 n=69 v=64
39900 On ch=15 n=69 v=32
39916 Off ch=15 n=71 v=64
39930 On ch=15 n=71 v=32
39946 Off ch=15 n=69 v=64
39960 On ch=15 n=69 v=32
39976 Off ch=15 n=71 v=64
39990 On ch=15 n=71 v=32
40006 Off ch=15 n=69 v=64
40020 On ch=15 n=69 v=32
40036 Off ch=15 n=71 v=64
40050 On ch=15 n=71 v=32
40066 Off ch=15 n=69 v=64
40080 On ch=15 n=69 v=32
40096 Off ch=15 n=71 v=64
40110 On ch=15 n=71 v=32
40126 Off ch=15 n=69 v=64
40140 On ch=15 n=69 v=32
40156 Off ch=15 n=71 v=64
40170 On ch=15 n=71 v=32
40186 Off ch=15 n=69 v=64
40200 On ch=15 n=69 v=32
40216 Off ch=15 n=71 v=64
40230 On ch=15 n=71 v=32
40246 Off ch=15 n=69 v=64
40260 On ch=15 n=69 v=32
40276 Off ch=15 n=71 v=64
40290 On ch=15 n=71 v=32
40306 Off ch=15 n=69 v=64
40320 On ch=15 n=69 v=32
40336 Off ch=15 n=71 v=64
40350 On ch=15 n=71 v=32
40366 Off ch=15 n=69 v=64
40380 On ch=15 n=69 v=32
40396 Off ch=15 n=71 v=64
40410 On ch=15 n=71 v=32
40426 Off ch=15 n=69 v=64
40440 On ch=15 n=69 v=32
40456 Off ch=15 n=71 v=64
40470 On ch=15 n=71 v=32
40486 Off ch=15 n=69 v=64
40500 On ch=15 n=69 v=32
40516 Off ch=15 n=71 v=64
40530 On ch=15 n=71 v=32
40546 Off ch=15 n=69 v=64
40560 On ch=15 n=69 v=32
40576 Off ch=15 n=71 v=64
40590 On ch=15 n=71 v=32
40606 Off ch=15 n=69 v=64
40620 On ch=15 n=69 v=32
40636 Off ch=15 n=71 v=64
40650 On ch=15 n=71 v=32
40666 Off ch=15 n=69 v=64
40680 On ch=15 n=69 v=32
40696 Off ch=15 n=71 v=64
40710 On ch=15 n=71 v=32
40726 Off ch=15 n=69 v=64
40740 On ch=15 n=69 v=32
40756 Off ch=15 n=71 v=64
40770 On ch=15 n=71 v=32
40786 Off ch=15 n=69 v=64
40800 On ch=15 n=69 v=32
40816 Off ch=15 n=71 v=64
40830 On ch=15 n=71 v=32
40846 Off ch=15 n=69 v=64
40860 On ch=15 n=69 v=32
40876 Off ch=15 n=71 v=64
40890 On ch=15 n=71 v=32
40906 Off ch=15 n=69 v=64
40920 On ch=15 n=69 v=32
40936 Off ch=15 n=71 v=64
40950 On ch=15 n=71 v=32
40966 Off ch=15 n=69 v=64
40980 On ch=15 n=69 v=32
40996 Off ch=15 n=71 v=64
41010 On ch=15 n=71 v=32
41026 Off ch=15 n=69 v=64
41040 On ch=15 n=69 v=32
41056 Off ch=15 n=71 v=64
41070 On ch=15 n=71 v=32
41086 Off ch=15 n=69 v=64
41100 On ch=15 n=69 v=32
41116 Off ch=15 n=71 v=64
41130 On ch=15 n=71 v=32
41146 Off ch=15 n=69 v=64
41160 On ch=15 n=69 v=32
41176 Off ch=15 n=71 v=64
41190 On ch=15 n=71 v=32
41206 Off ch=15 n=69 v=64
41220 On ch=15 n=69 v=32
41236 Off ch=15 n=71 v=64
41250 On ch=15 n=71 v=32
41266 Off ch=15 n=69 v=64
41280 On ch=15 n=69 v=32
41296 Off ch=15 n=71 v=64
41310 On ch=15 n=71 v=32
41326 Off ch=15 n=69 v=64
41340 On ch=15 n=69 v=32
41356 Off ch=15 n=71 v=64
41370 On ch=15 n=71 v=32
41386 Off ch=15 n=69 v=64
41400 On ch=15 n=69 v=32
41416 Off ch=15 n=71 v=64
41430 On ch=15 n=71 v=32
41446 Off ch=15 n=69 v=64
41460 On ch=15 n=69 v=32
41476 Off ch=15 n=71 v=64
41490 On ch=15 n=71 v=32
41506 Off ch=15 n=69 v=64
41520 On ch=15 n=69 v=32
41536 Off ch=15 n=71 v=64
41550 On ch=15 n=71 v=32
41566 Off ch=15 n=69 v=64
41580 On ch=15 n=69 v=32
41596 Off ch=15 n=71 v=64
41610 On ch=15 n=71 v=32
41626 Off ch=15 n=69 v=64
41640 On ch=15 n=69 v=32
41656 Off ch=15 n=71 v=64
41670 On ch=15 n=71 v=32
41686 Off ch=15 n=69 v=64
41700 On ch=15 n=69 v=32
41716 Off ch=15 n=71 v=64
41730 On ch=15 n=71 v=32
41746 Off ch=15 n=69 v=64
41760 On ch=15 n=69 v=32
41776 Off ch=15 n=71 v=64
41790 On ch=15 n=71 v=32
41806 Off ch=15 n=69 v=64
41820 On ch=15 n=69 v=32
41836 Off ch=15 n=71 v=64
41850 On ch=15 n=71 v=32
41866 Off ch=15 n=69 v=64
41880 On ch=15 n=69 v=32
41896 Off ch=15 n=71 v=64
41910 On ch=15 n=71 v=32
41926 Off ch=15 n=69 v=64
41940 On ch=15 n=69 v=32
41956 Off ch=15 n=71 v=64
41970 On ch=15 n=71 v=32
41986 Off ch=15 n=69 v=64
42000 On ch=15 n=69 v=32
42016 Off ch=15 n=71 v=64
42030 On ch=15 n=71 v=32
42046 Off ch=15 n=69 v=64
42060 On ch=15 n=69 v=32
42076 Off ch=15 n=71 v=64
42090 On ch=15 n=71 v=32
42106 Off ch=15 n=69 v=64
42120 On ch=15 n=69 v=32
42136 Off ch=15 n=71 v=64
42150 On ch=15 n=71 v=32
42166 Off ch=15 n=69 v=64
42180 On ch=15 n=69 v=32
42196 Off ch=15 n=71 v=64
42210 On ch=15 n=71 v=32
42226 Off ch=15 n=69 v=64
42240 On ch=15 n=69 v=32
42256 Off ch=15 n=71 v=64
42270 On ch=15 n=71 v=32
42286 Off ch=15 n=69 v=64
42300 On ch=15 n=69 v=32
42316 Off ch=15 n=71 v=64
42330 On ch=15 n=71 v=32
42346 Off ch=15 n=69 v=64
42360 On ch=15 n=69 v=32
42376 Off ch=15 n=71 v=64
42390 On ch=15 n=71 v=32
42406 Off ch=15 n=69 v=64
42420 On ch=15 n=69 v=32
42436 Off ch=15 n=71 v=64
42450 On ch=15 n=71 v=32
42466 Off ch=15 n=69 v=64
42480 On ch=15 n=69 v=32
42496 Off ch=15 n=71 v=64
42510 On ch=15 n=71 v=32
42526 Off ch=15 n=69 v=64
42540 On ch=15 n=69 v=32
42556 Off ch=15 n=71 v=64
42570 On ch=15 n=71 v=32
42586 Off ch=15 n=69 v=64
42600 On ch=15 n=69 v=32
42616 Off ch=15 n=71 v=64
42630 On ch=15 n=71 v=32
42646 Off ch=15 n=69 v=64
42660 On ch=15 n=69 v=32
42676 Off ch=15 n=71 v=64
42690 On ch=15 n=71 v=32
42706 Off ch=15 n=69 v=64
42720 On ch=15 n=69 v=32
42736 Off ch=15 n=71 v=64
42750 On ch=15 n=71 v=32
42766 Off ch=15 n=69 v=64
42780 On ch=15 n=69 v=32
42796 Off ch=15 n=71 v=64
42810 On ch=15 n=71 v=32
42826 Off ch=15 n=69 v=64
42840 On ch=15 n=69 v=32
42856 Off ch=15 n=71 v=64
42870 On ch=15 n=71 v=32
42886 Off ch=15 n=69 v=64
42900 On ch=15 n=69 v=32
42916 Off ch=15 n=71 v=64
42930 On ch=15 n=71 v=32
42946 Off ch=15 n=69 v=64
42960 On ch=15 n=69 v=32
42976 Off ch=15 n=71 v=64
42990 On ch=15 n=71 v=32
43006 Off ch=15 n=69 v=64
43020 On ch=15 n=69 v=32
43036 Off ch=15 n=71 v=64
43050 On ch=15 n=71 v=32
43066 Off ch=15 n=69 v=64
43080 On ch=15 n=69 v=32
43096 Off ch=15 n=71 v=64
43110 On ch=15 n=71 v=32
43126 Off ch=15 n=69 v=64
43140 On ch=15 n=69 v=32
43156 Off ch=15 n=71 v=64
43170 On ch=15 n=71 v=32
43186 Off ch=15 n=69 v=64
43200 On ch=15 n=69 v=32
43216 Off ch=15 n=71 v=64
43230 On ch=15 n=71 v=32
43246 Off ch=15 n=69 v=64
43260 On ch=15 n=69 v=32
43276 Off ch=15 n=71 v=64
43290 On ch=15 n=71 v=32
43306 Off ch=15 n=69 v=64
43320 On ch=15 n=69 v=32
43336 Off ch=15 n=71 v=64
43350 On ch=15 n=71 v=32
43366 Off ch=15 n=69 v=64
43380 On ch=15 n=69 v=32
43396 Off ch=15 n=71 v=64
43410 On ch=15 n=71 v=32
43426 Off ch=15 n=69 v=64
43440 On ch=15 n=69 v=32
43456 Off ch=15 n=71 v=64
43470 On ch=15 n=71 v=32
43486 Off ch=15 n=69 v=64
43500 On ch=15 n=69 v=32
43516 Off ch=15 n=71 v=64
43530 On ch=15 n=71 v=32
43546 Off ch=15 n=69 v=64
43560 On ch=15 n=69 v=32
43576 Off ch=15 n=71 v=64
43590 On ch=15 n=71 v=32
43606 Off ch=15 n=69 v=64
43620 On ch=15 n=69 v=32
43636 Off ch=15 n=71 v=64
43650 On ch=15 n=71 v=32
43666 Off ch=15 n=69 v=64
43680 On ch=15 n=69 v=32
43696 Off ch=15 n=71 v=64
43726 Off ch=15 n=69 v=64
156480 On ch=15 n=60 v=28
156540 On ch=15 n=62 v=28
156572 Off ch=15 n=60 v=64
156600 On ch=15 n=60 v=28
156632 Off ch=15 n=62 v=64
156660 On ch=15 n=62 v=28
156692 Off ch=15 n=60 v=64
156720 On ch=15 n=60 v=28
156752 Off ch=15 n=62 v=64
156780 On ch=15 n=62 v=28
156812 Off ch=15 n=60 v=64
156840 On ch=15 n=60 v=28
156872 Off ch=15 n=62 v=64
156900 On ch=15 n=62 v=28
156932 Off ch=15 n=60 v=64
156960 On ch=15 n=60 v=28
156992 Off ch=15 n=62 v=64
157020 On ch=15 n=62 v=28
157052 Off ch=15 n=60 v=64
157080 On ch=15 n=60 v=28
157112 Off ch=15 n=62 v=64
157140 On ch=15 n=62 v=28
157172 Off ch=15 n=60 v=64
157200 On ch=15 n=60 v=28
157232 Off ch=15 n=62 v=64
157260 On ch=15 n=62 v=28
157292 Off ch=15 n=60 v=64
157320 On ch=15 n=60 v=28
157352 Off ch=15 n=62 v=64
157380 On ch=15 n=62 v=28
157412 Off ch=15 n=60 v=64
157440 On ch=15 n=60 v=28
157472 Off ch=15 n=62 v=64
157500 On ch=15 n=62 v=28
157532 Off ch=15 n=60 v=64
157560 On ch=15 n=60 v=28
157592 Off ch=15 n=62 v=64
157620 On ch=15 n=62 v=28
157652 Off ch=15 n=60 v=64
157680 On ch=15 n=60 v=28
157712 Off ch=15 n=62 v=64
157740 On ch=15 n=62 v=28
157772 Off ch=15 n=60 v=64
157800 On ch=15 n=60 v=28
157832 Off ch=15 n=62 v=64
157860 On ch=15 n=62 v=28
157892 Off ch=15 n=60 v=64
157920 On ch=15 n=60 v=28
157952 Off ch=15 n=62 v=64
157980 On ch=15 n=62 v=28
158012 Off ch=15 n=60 v=64
158040 On ch=15 n=60 v=28
158072 Off ch=15 n=62 v=64
158100 On ch=15 n=62 v=28
158132 Off ch=15 n=60 v=64
158160 On ch=15 n=60 v=28
158192 Off ch=15 n=62 v=64
158220 On ch=15 n=62 v=28
158252 Off ch=15 n=60 v=64
158280 On ch=15 n=60 v=28
158312 Off ch=15 n=62 v=64
158340 On ch=15 n=62 v=28
158372 Off ch=15 n=60 v=64
158400 On ch=15 n=60 v=28
158432 Off ch=15 n=62 v=64
158460 On ch=15 n=62 v=28
158492 Off ch=15 n=60 v=64
158520 On ch=15 n=60 v=28
158552 Off ch=15 n=62 v=64
158580 On ch=15 n=62 v=28
158612 Off ch=15 n=60 v=64
158640 On ch=15 n=60 v=28
158672 Off ch=15 n=62 v=64
158700 On ch=15 n=62 v=28
158732 Off ch=15 n=60 v=64
158760 On ch=15 n=60 v=28
158792 Off ch=15 n=62 v=64
158820 On ch=15 n=62 v=28
158852 Off ch=15 n=60 v=64
158880 On ch=15 n=60 v=28
158912 Off ch=15 n=62 v=64
158940 On ch=15 n=62 v=28
158972 Off ch=15 n=60 v=64
159000 On ch=15 n=60 v=28
159032 Off ch=15 n=62 v=64
159060 On ch=15 n=62 v=28
159092 Off ch=15 n=60 v=64
159120 On ch=15 n=60 v=28
159152 Off ch=15 n=62 v=64
159180 On ch=15 n=62 v=28
159212 Off ch=15 n=60 v=64
159240 On ch=15 n=60 v=28
159272 Off ch=15 n=62 v=64
159300 On ch=15 n=62 v=28
159332 Off ch=15 n=60 v=64
159360 On ch=15 n=60 v=28
159392 Off ch=15 n=62 v=64
159420 On ch=15 n=62 v=28
159452 Off ch=15 n=60 v=64
159480 On ch=15 n=60 v=28
159512 Off ch=15 n=62 v=64
159540 On ch=15 n=62 v=28
159572 Off ch=15 n=60 v=64
159600 On ch=15 n=60 v=28
159632 Off ch=15 n=62 v=64
159660 On ch=15 n=62 v=28
159692 Off ch=15 n=60 v=64
159720 On ch=15 n=60 v=28
159752 Off ch=15 n=62 v=64
159780 On ch=15 n=62 v=28
159812 Off ch=15 n=60 v=64
159840 On ch=15 n=60 v=28
159872 Off ch=15 n=62 v=64
159900 On ch=15 n=62 v=28
159932 Off ch=15 n=60 v=64
159960 On ch=15 n=60 v=28
159992 Off ch=15 n=62 v=64
160020 On ch=15 n=62 v=28
160052 Off ch=15 n=60 v=64
160080 On ch=15 n=60 v=28
160112 Off ch=15 n=62 v=64
160140 On ch=15 n=62 v=28
160172 Off ch=15 n=60 v=64
160200 On ch=15 n=60 v=28
160232 Off ch=15 n=62 v=64
160260 On ch=15 n=62 v=28
160292 Off ch=15 n=60 v=64
160320 On ch=15 n=60 v=28
160352 Off ch=15 n=62 v=64
160380 On ch=15 n=62 v=28
160412 Off ch=15 n=60 v=64
160440 On ch=15 n=60 v=28
160472 Off ch=15 n=62 v=64
160500 On ch=15 n=62 v=28
160532 Off ch=15 n=60 v=64
160560 On ch=15 n=60 v=28
160592 Off ch=15 n=62 v=64
160620 On ch=15 n=62 v=28
160652 Off ch=15 n=60 v=64
160680 On ch=15 n=60 v=28
160712 Off ch=15 n=62 v=64
160740 On ch=15 n=62 v=28
160772 Off ch=15 n=60 v=64
160832 Off ch=15 n=62 v=64
165600 On ch=15 n=60 v=22
165660 On ch=15 n=62 v=22
165684 Off ch=15 n=60 v=64
165720 On ch=15 n=60 v=22
165744 Off ch=15 n=62 v=64
165780 On ch=15 n=62 v=22
165804 Off ch=15 n=60 v=64
165840 On ch=15 n=60 v=22
165864 Off ch=15 n=62 v=64
165900 On ch=15 n=62 v=22
165924 Off ch=15 n=60 v=64
165960 On ch=15 n=60 v=22
165984 Off ch=15 n=62 v=64
166020 On ch=15 n=62 v=22
166044 Off ch=15 n=60 v=64
166080 On ch=15 n=60 v=22
166104 Off ch=15 n=62 v=64
166140 On ch=15 n=62 v=22
166164 Off ch=15 n=60 v=64
166200 On ch=15 n=60 v=22
166224 Off ch=15 n=62 v=64
166260 On ch=15 n=62 v=22
166284 Off ch=15 n=60 v=64
166320 On ch=15 n=60 v=22
166344 Off ch=15 n=62 v=64
166380 On ch=15 n=62 v=22
166404 Off ch=15 n=60 v=64
166440 On ch=15 n=60 v=22
166464 Off ch=15 n=62 v=64
166500 On ch=15 n=62 v=22
166524 Off ch=15 n=60 v=64
166560 On ch=15 n=60 v=22
166584 Off ch=15 n=62 v=64
166620 On ch=15 n=62 v=22
166644 Off ch=15 n=60 v=64
166680 On ch=15 n=60 v=22
166704 Off ch=15 n=62 v=64
166740 On ch=15 n=62 v=22
166764 Off ch=15 n=60 v=64
166800 On ch=15 n=60 v=22
166824 Off ch=15 n=62 v=64
166860 On ch=15 n=62 v=22
166884 Off ch=15 n=60 v=64
166920 On ch=15 n=60 v=22
166944 Off ch=15 n=62 v=64
166980 On ch=15 n=62 v=22
167004 Off ch=15 n=60 v=64
167040 On ch=15 n=60 v=22
167064 Off ch=15 n=62 v=64
167100 On ch=15 n=62 v=22
167124 Off ch=15 n=60 v=64
167160 On ch=15 n=60 v=22
167184 Off ch=15 n=62 v=64
167220 On ch=15 n=62 v=22
167244 Off ch=15 n=60 v=64
167280 On ch=15 n=60 v=22
167304 Off ch=15 n=62 v=64
167340 On ch=15 n=62 v=22
167364 Off ch=15 n=60 v=64
167400 On ch=15 n=60 v=22
167424 Off ch=15 n=62 v=64
167460 On ch=15 n=62 v=22
167484 Off ch=15 n=60 v=64
167520 On ch=15 n=60 v=22
167520 On ch=15 n=65 v=28
167544 Off ch=15 n=62 v=64
167580 Off ch=15 n=65 v=64
167580 On ch=15 n=62 v=22
167580 On ch=15 n=64 v=25
167604 Off ch=15 n=60 v=64
167640 Off ch=15 n=64 v=64
167640 On ch=15 n=60 v=22
167640 On ch=15 n=65 v=25
167664 Off ch=15 n=62 v=64
167700 Off ch=15 n=65 v=64
167700 On ch=15 n=62 v=22
167700 On ch=15 n=64 v=24
167724 Off ch=15 n=60 v=64
167760 Off ch=15 n=64 v=64
167760 On ch=15 n=60 v=22
167760 On ch=15 n=65 v=24
167784 Off ch=15 n=62 v=64
167820 Off ch=15 n=65 v=64
167820 On ch=15 n=62 v=22
167820 On ch=15 n=64 v=23
167844 Off ch=15 n=60 v=64
167880 Off ch=15 n=64 v=64
167880 On ch=15 n=60 v=22
167880 On ch=15 n=65 v=23
167904 Off ch=15 n=62 v=64
167940 Off ch=15 n=65 v=64
167940 On ch=15 n=62 v=22
167940 On ch=15 n=64 v=22
167964 Off ch=15 n=60 v=64
168000 Off ch=15 n=64 v=64
168000 On ch=15 n=60 v=22
168000 On ch=15 n=65 v=21
168024 Off ch=15 n=62 v=64
168060 Off ch=15 n=65 v=64
168060 On ch=15 n=62 v=22
168060 On ch=15 n=64 v=21
168084 Off ch=15 n=60 v=64
168120 Off ch=15 n=64 v=64
168120 On ch=15 n=60 v=22
168120 On ch=15 n=65 v=21
168144 Off ch=15 n=62 v=64
168180 Off ch=15 n=65 v=64
168180 On ch=15 n=62 v=22
168180 On ch=15 n=64 v=21
168204 Off ch=15 n=60 v=64
168240 Off ch=15 n=64 v=64
168240 On ch=15 n=60 v=22
168240 On ch=15 n=65 v=21
168264 Off ch=15 n=62 v=64
168300 Off ch=15 n=65 v=64
168300 On ch=15 n=62 v=22
168300 On ch=15 n=64 v=21
168324 Off ch=15 n=60 v=64
168360 Off ch=15 n=64 v=64
168360 On ch=15 n=60 v=22
168360 On ch=15 n=65 v=21
168384 Off ch=15 n=62 v=64
168420 Off ch=15 n=65 v=64
168420 On ch=15 n=62 v=22
168420 On ch=15 n=64 v=21
168444 Off ch=15 n=60 v=64
168480 Off ch=15 n=64 v=64
168480 On ch=15 n=60 v=22
168480 On ch=15 n=65 v=21
168504 Off ch=15 n=62 v=64
168540 Off ch=15 n=65 v=64
168540 On ch=15 n=62 v=22
168540 On ch=15 n=64 v=21
168564 Off ch=15 n=60 v=64
168600 Off ch=15 n=64 v=64
168600 On ch=15 n=60 v=22
168600 On ch=15 n=65 v=21
168624 Off ch=15 n=62 v=64
168660 Off ch=15 n=65 v=64
168660 On ch=15 n=62 v=22
168660 On ch=15 n=64 v=21
168684 Off ch=15 n=60 v=64
168720 Off ch=15 n=64 v=64
168720 On ch=15 n=60 v=22
168720 On ch=15 n=65 v=21
168744 Off ch=15 n=62 v=64
168780 Off ch=15 n=65 v=64
168780 On ch=15 n=62 v=22
168780 On ch=15 n=64 v=21
168804 Off ch=15 n=60 v=64
168840 Off ch=15 n=64 v=64
168840 On ch=15 n=60 v=22
168840 On ch=15 n=65 v=21
168864 Off ch=15 n=62 v=64
168900 Off ch=15 n=65 v=64
168900 On ch=15 n=62 v=22
168900 On ch=15 n=64 v=21
168924 Off ch=15 n=60 v=64
168960 Off ch=15 n=64 v=64
168960 On ch=15 n=60 v=22
168960 On ch=15 n=65 v=21
168984 Off ch=15 n=62 v=64
169020 Off ch=15 n=65 v=64
169020 On ch=15 n=62 v=22
169020 On ch=15 n=64 v=21
169044 Off ch=15 n=60 v=64
169080 Off ch=15 n=64 v=64
169080 On ch=15 n=60 v=22
169080 On ch=15 n=65 v=21
169104 Off ch=15 n=62 v=64
169140 Off ch=15 n=65 v=64
169140 On ch=15 n=62 v=22
169140 On ch=15 n=64 v=21
169164 Off ch=15 n=60 v=64
169200 Off ch=15 n=64 v=64
169200 On ch=15 n=60 v=22
169200 On ch=15 n=65 v=21
169224 Off ch=15 n=62 v=64
169260 Off ch=15 n=65 v=64
169260 On ch=15 n=62 v=22
169260 On ch=15 n=64 v=21
169284 Off ch=15 n=60 v=64
169320 Off ch=15 n=64 v=64
169320 On ch=15 n=60 v=22
169320 On ch=15 n=65 v=21
169344 Off ch=15 n=62 v=64
169380 Off ch=15 n=65 v=64
169380 On ch=15 n=62 v=22
169380 On ch=15 n=64 v=21
169404 Off ch=15 n=60 v=64
169440 Off ch=15 n=64 v=64
169440 On ch=15 n=60 v=18
169440 On ch=15 n=65 v=21
169464 Off ch=15 n=62 v=64
169500 Off ch=15 n=65 v=64
169500 On ch=15 n=62 v=18
169500 On ch=15 n=64 v=18
169524 Off ch=15 n=60 v=64
169560 Off ch=15 n=64 v=64
169560 On ch=15 n=60 v=18
169560 On ch=15 n=65 v=18
169584 Off ch=15 n=62 v=64
169620 Off ch=15 n=65 v=64
169620 On ch=15 n=62 v=18
169620 On ch=15 n=64 v=18
169644 Off ch=15 n=60 v=64
169680 Off ch=15 n=64 v=64
169680 On ch=15 n=60 v=18
169680 On ch=15 n=65 v=18
169704 Off ch=15 n=62 v=64
169740 Off ch=15 n=65 v=64
169740 On ch=15 n=62 v=18
169740 On ch=15 n=64 v=18
169764 Off ch=15 n=60 v=64
169800 Off ch=15 n=64 v=64
169800 On ch=15 n=60 v=18
169800 On ch=15 n=65 v=18
169824 Off ch=15 n=62 v=64
169860 Off ch=15 n=65 v=64
169860 On ch=15 n=62 v=18
169860 On ch=15 n=64 v=18
169884 Off ch=15 n=60 v=64
169920 Off ch=15 n=64 v=64
169920 On ch=15 n=60 v=18
169920 On ch=15 n=65 v=18
169944 Off ch=15 n=62 v=64
169980 Off ch=15 n=65 v=64
169980 On ch=15 n=62 v=18
169980 On ch=15 n=64 v=18
170004 Off ch=15 n=60 v=64
170040 Off ch=15 n=64 v=64
170040 On ch=15 n=60 v=18
170040 On ch=15 n=65 v=18
170064 Off ch=15 n=62 v=64
170100 Off ch=15 n=65 v=64
170100 On ch=15 n=62 v=18
170100 On ch=15 n=64 v=18
170124 Off ch=15 n=60 v=64
170160 Off ch=15 n=64 v=64
170160 On ch=15 n=60 v=18
170160 On ch=15 n=65 v=18
170184 Off ch=15 n=62 v=64
170220 Off ch=15 n=65 v=64
170220 On ch=15 n=62 v=18
170220 On ch=15 n=64 v=18
170244 Off ch=15 n=60 v=64
170280 Off ch=15 n=64 v=64
170280 On ch=15 n=60 v=18
170280 On ch=15 n=65 v=18
170304 Off ch=15 n=62 v=64
170340 Off ch=15 n=65 v=64
170340 On ch=15 n=62 v=18
170340 On ch=15 n=64 v=18
170364 Off ch=15 n=60 v=64
170400 Off ch=15 n=64 v=64
170400 On ch=15 n=60 v=18
170400 On ch=15 n=65 v=18
170424 Off ch=15 n=62 v=64
170460 Off ch=15 n=65 v=64
170460 On ch=15 n=62 v=18
170460 On ch=15 n=64 v=18
170484 Off ch=15 n=60 v=64
170520 Off ch=15 n=64 v=64
170520 On ch=15 n=60 v=18
170520 On ch=15 n=65 v=18
170544 Off ch=15 n=62 v=64
170580 Off ch=15 n=65 v=64
170580 On ch=15 n=62 v=18
170580 On ch=15 n=64 v=18
170604 Off ch=15 n=60 v=64
170640 Off ch=15 n=64 v=64
170640 On ch=15 n=60 v=18
170640 On ch=15 n=65 v=18
170664 Off ch=15 n=62 v=64
170700 Off ch=15 n=65 v=64
170700 On ch=15 n=62 v=18
170700 On ch=15 n=64 v=18
170724 Off ch=15 n=60 v=64
170760 Off ch=15 n=64 v=64
170760 On ch=15 n=60 v=18
170760 On ch=15 n=65 v=18
170784 Off ch=15 n=62 v=64
170820 Off ch=15 n=65 v=64
170820 On ch=15 n=62 v=18
170820 On ch=15 n=64 v=18
170844 Off ch=15 n=60 v=64
170880 Off ch=15 n=64 v=64
170880 On ch=15 n=60 v=18
170880 On ch=15 n=65 v=18
170904 Off ch=15 n=62 v=64
170940 Off ch=15 n=65 v=64
170940 On ch=15 n=62 v=18
170940 On ch=15 n=64 v=18
170964 Off ch=15 n=60 v=64
171000 Off ch=15 n=64 v=64
171000 On ch=15 n=60 v=18
171000 On ch=15 n=65 v=18
171024 Off ch=15 n=62 v=64
171060 Off ch=15 n=65 v=64
171060 On ch=15 n=62 v=18
171060 On ch=15 n=64 v=18
171084 Off ch=15 n=60 v=64
171120 Off ch=15 n=64 v=64
171120 On ch=15 n=60 v=18
171120 On ch=15 n=65 v=18
171144 Off ch=15 n=62 v=64
171180 Off ch=15 n=65 v=64
171180 On ch=15 n=62 v=18
171180 On ch=15 n=64 v=18
171204 Off ch=15 n=60 v=64
171240 Off ch=15 n=64 v=64
171240 On ch=15 n=60 v=18
171240 On ch=15 n=65 v=18
171264 Off ch=15 n=62 v=64
171300 Off ch=15 n=65 v=64
171300 On ch=15 n=62 v=18
171300 On ch=15 n=64 v=18
171324 Off ch=15 n=60 v=64
171360 Off ch=15 n=64 v=64
171360 On ch=15 n=60 v=18
171360 On ch=15 n=65 v=21
171384 Off ch=15 n=62 v=64
171420 Off ch=15 n=65 v=64
171420 On ch=15 n=62 v=18
171420 On ch=15 n=64 v=18
171444 Off ch=15 n=60 v=64
171480 Off ch=15 n=64 v=64
171480 On ch=15 n=60 v=18
171480 On ch=15 n=65 v=18
171504 Off ch=15 n=62 v=64
171540 Off ch=15 n=65 v=64
171540 On ch=15 n=62 v=18
171540 On ch=15 n=64 v=18
171564 Off ch=15 n=60 v=64
171600 Off ch=15 n=64 v=64
171600 On ch=15 n=60 v=18
171600 On ch=15 n=65 v=18
171624 Off ch=15 n=62 v=64
171660 Off ch=15 n=65 v=64
171660 On ch=15 n=62 v=18
171660 On ch=15 n=64 v=18
171684 Off ch=15 n=60 v=64
171720 Off ch=15 n=64 v=64
171720 On ch=15 n=60 v=18
171720 On ch=15 n=65 v=18
171744 Off ch=15 n=62 v=64
171780 Off ch=15 n=65 v=64
171780 On ch=15 n=62 v=18
171780 On ch=15 n=64 v=18
171804 Off ch=15 n=60 v=64
171840 Off ch=15 n=64 v=64
171840 On ch=15 n=60 v=18
171840 On ch=15 n=65 v=18
171864 Off ch=15 n=62 v=64
171900 Off ch=15 n=65 v=64
171900 On ch=15 n=62 v=18
171900 On ch=15 n=64 v=18
171924 Off ch=15 n=60 v=64
171960 Off ch=15 n=64 v=64
171960 On ch=15 n=60 v=18
171960 On ch=15 n=65 v=18
171984 Off ch=15 n=62 v=64
172020 Off ch=15 n=65 v=64
172020 On ch=15 n=62 v=18
172020 On ch=15 n=64 v=18
172044 Off ch=15 n=60 v=64
172080 Off ch=15 n=64 v=64
172080 On ch=15 n=60 v=18
172080 On ch=15 n=65 v=18
172104 Off ch=15 n=62 v=64
172140 Off ch=15 n=65 v=64
172140 On ch=15 n=62 v=18
172140 On ch=15 n=64 v=18
172164 Off ch=15 n=60 v=64
172200 Off ch=15 n=64 v=64
172200 On ch=15 n=60 v=18
172200 On ch=15 n=65 v=18
172224 Off ch=15 n=62 v=64
172260 Off ch=15 n=65 v=64
172260 On ch=15 n=62 v=18
172260 On ch=15 n=64 v=18
172284 Off ch=15 n=60 v=64
172320 Off ch=15 n=64 v=64
172320 On ch=15 n=60 v=18
172320 On ch=15 n=65 v=18
172344 Off ch=15 n=62 v=64
172380 Off ch=15 n=65 v=64
172380 On ch=15 n=62 v=18
172380 On ch=15 n=64 v=18
172404 Off ch=15 n=60 v=64
172440 Off ch=15 n=64 v=64
172440 On ch=15 n=60 v=18
172440 On ch=15 n=65 v=18
172464 Off ch=15 n=62 v=64
172500 Off ch=15 n=65 v=64
172500 On ch=15 n=62 v=18
172500 On ch=15 n=64 v=18
172524 Off ch=15 n=60 v=64
172560 Off ch=15 n=64 v=64
172560 On ch=15 n=60 v=18
172560 On ch=15 n=65 v=18
172584 Off ch=15 n=62 v=64
172620 Off ch=15 n=65 v=64
172620 On ch=15 n=62 v=18
172620 On ch=15 n=64 v=18
172644 Off ch=15 n=60 v=64
172680 Off ch=15 n=64 v=64
172680 On ch=15 n=60 v=18
172680 On ch=15 n=65 v=18
172704 Off ch=15 n=62 v=64
172740 Off ch=15 n=65 v=64
172740 On ch=15 n=62 v=18
172740 On ch=15 n=64 v=18
172764 Off ch=15 n=60 v=64
172800 Off ch=15 n=64 v=64
172800 On ch=15 n=60 v=18
172800 On ch=15 n=65 v=18
172824 Off ch=15 n=62 v=64
172860 Off ch=15 n=65 v=64
172860 On ch=15 n=62 v=18
172860 On ch=15 n=64 v=18
172884 Off ch=15 n=60 v=64
172920 Off ch=15 n=64 v=64
172920 On ch=15 n=60 v=18
172920 On ch=15 n=65 v=18
172944 Off ch=15 n=62 v=64
172980 Off ch=15 n=65 v=64
172980 On ch=15 n=62 v=18
172980 On ch=15 n=64 v=18
173004 Off ch=15 n=60 v=64
173040 Off ch=15 n=64 v=64
173040 On ch=15 n=60 v=18
173040 On ch=15 n=65 v=18
173064 Off ch=15 n=62 v=64
173100 Off ch=15 n=65 v=64
173100 On ch=15 n=62 v=18
173100 On ch=15 n=64 v=18
173124 Off ch=15 n=60 v=64
173160 Off ch=15 n=64 v=64
173160 On ch=15 n=60 v=18
173160 On ch=15 n=65 v=18
173184 Off ch=15 n=62 v=64
173220 Off ch=15 n=65 v=64
173220 On ch=15 n=62 v=18
173220 On ch=15 n=64 v=18
173244 Off ch=15 n=60 v=64
173280 Off ch=15 n=64 v=64
173280 On ch=15 n=60 v=18
173280 On ch=15 n=65 v=21
173304 Off ch=15 n=62 v=64
173340 Off ch=15 n=65 v=64
173340 On ch=15 n=62 v=18
173340 On ch=15 n=64 v=18
173364 Off ch=15 n=60 v=64
173400 Off ch=15 n=64 v=64
173400 On ch=15 n=60 v=18
173400 On ch=15 n=65 v=18
173424 Off ch=15 n=62 v=64
173460 Off ch=15 n=65 v=64
173460 On ch=15 n=62 v=18
173460 On ch=15 n=64 v=18
173484 Off ch=15 n=60 v=64
173520 Off ch=15 n=64 v=64
173520 On ch=15 n=60 v=18
173520 On ch=15 n=65 v=18
173544 Off ch=15 n=62 v=64
173580 Off ch=15 n=65 v=64
173580 On ch=15 n=62 v=18
173580 On ch=15 n=64 v=18
173604 Off ch=15 n=60 v=64
173640 Off ch=15 n=64 v=64
173640 On ch=15 n=60 v=18
173640 On ch=15 n=65 v=18
173664 Off ch=15 n=62 v=64
173700 Off ch=15 n=65 v=64
173700 On ch=15 n=62 v=18
173700 On ch=15 n=64 v=18
173724 Off ch=15 n=60 v=64
173760 Off ch=15 n=64 v=64
173760 On ch=15 n=60 v=18
173760 On ch=15 n=65 v=18
173784 Off ch=15 n=62 v=64
173820 Off ch=15 n=65 v=64
173820 On ch=15 n=62 v=18
173820 On ch=15 n=64 v=18
173844 Off ch=15 n=60 v=64
173880 Off ch=15 n=64 v=64
173880 On ch=15 n=60 v=18
173880 On ch=15 n=65 v=18
173904 Off ch=15 n=62 v=64
173940 Off ch=15 n=65 v=64
173940 On ch=15 n=62 v=18
173940 On ch=15 n=64 v=18
173964 Off ch=15 n=60 v=64
174000 Off ch=15 n=64 v=64
174000 On ch=15 n=60 v=18
174000 On ch=15 n=65 v=18
174024 Off ch=15 n=62 v=64
174060 Off ch=15 n=65 v=64
174060 On ch=15 n=62 v=18
174060 On ch=15 n=64 v=18
174084 Off ch=15 n=60 v=64
174120 Off ch=15 n=64 v=64
174120 On ch=15 n=60 v=18
174120 On ch=15 n=65 v=18
174144 Off ch=15 n=62 v=64
174180 Off ch=15 n=65 v=64
174180 On ch=15 n=62 v=18
174180 On ch=15 n=64 v=18
174204 Off ch=15 n=60 v=64
174240 Off ch=15 n=64 v=64
174240 On ch=15 n=60 v=18
174240 On ch=15 n=65 v=18
174264 Off ch=15 n=62 v=64
174300 Off ch=15 n=65 v=64
174300 On ch=15 n=62 v=18
174300 On ch=15 n=64 v=18
174324 Off ch=15 n=60 v=64
174360 Off ch=15 n=64 v=64
174360 On ch=15 n=60 v=18
174360 On ch=15 n=65 v=18
174384 Off ch=15 n=62 v=64
174420 Off ch=15 n=65 v=64
174420 On ch=15 n=62 v=18
174420 On ch=15 n=64 v=18
174444 Off ch=15 n=60 v=64
174480 Off ch=15 n=64 v=64
174480 On ch=15 n=60 v=18
174480 On ch=15 n=65 v=18
174504 Off ch=15 n=62 v=64
174540 Off ch=15 n=65 v=64
174540 On ch=15 n=62 v=18
174540 On ch=15 n=64 v=18
174564 Off ch=15 n=60 v=64
174600 Off ch=15 n=64 v=64
174600 On ch=15 n=60 v=18
174600 On ch=15 n=65 v=18
174624 Off ch=15 n=62 v=64
174660 Off ch=15 n=65 v=64
174660 On ch=15 n=62 v=18
174660 On ch=15 n=64 v=18
174684 Off ch=15 n=60 v=64
174720 Off ch=15 n=64 v=64
174720 On ch=15 n=60 v=18
174720 On ch=15 n=65 v=18
174744 Off ch=15 n=62 v=64
174780 Off ch=15 n=65 v=64
174780 On ch=15 n=62 v=18
174780 On ch=15 n=64 v=18
174804 Off ch=15 n=60 v=64
174840 Off ch=15 n=64 v=64
174840 On ch=15 n=60 v=18
174840 On ch=15 n=65 v=18
174864 Off ch=15 n=62 v=64
174900 Off ch=15 n=65 v=64
174900 On ch=15 n=62 v=18
174900 On ch=15 n=64 v=18
174924 Off ch=15 n=60 v=64
174960 Off ch=15 n=64 v=64
174960 On ch=15 n=60 v=18
174960 On ch=15 n=65 v=18
174984 Off ch=15 n=62 v=64
175020 Off ch=15 n=65 v=64
175020 On ch=15 n=62 v=18
175020 On ch=15 n=64 v=18
175044 Off ch=15 n=60 v=64
175080 Off ch=15 n=64 v=64
175080 On ch=15 n=60 v=18
175080 On ch=15 n=65 v=18
175104 Off ch=15 n=62 v=64
175140 Off ch=15 n=65 v=64
175140 On ch=15 n=62 v=18
175140 On ch=15 n=64 v=18
175164 Off ch=15 n=60 v=64
175200 Off ch=15 n=64 v=64
175200 On ch=15 n=60 v=18
175200 On ch=15 n=65 v=21
175224 Off ch=15 n=62 v=64
175260 Off ch=15 n=65 v=64
175260 On ch=15 n=62 v=18
175260 On ch=15 n=64 v=18
175284 Off ch=15 n=60 v=64
175320 Off ch=15 n=64 v=64
175320 On ch=15 n=60 v=18
175320 On ch=15 n=65 v=18
175344 Off ch=15 n=62 v=64
175380 Off ch=15 n=65 v=64
175380 On ch=15 n=62 v=18
175380 On ch=15 n=64 v=18
175404 Off ch=15 n=60 v=64
175440 Off ch=15 n=64 v=64
175440 On ch=15 n=60 v=18
175440 On ch=15 n=65 v=18
175464 Off ch=15 n=62 v=64
175500 Off ch=15 n=65 v=64
175500 On ch=15 n=62 v=18
175500 On ch=15 n=64 v=18
175524 Off ch=15 n=60 v=64
175560 Off ch=15 n=64 v=64
175560 On ch=15 n=60 v=18
175560 On ch=15 n=65 v=18
175584 Off ch=15 n=62 v=64
175620 Off ch=15 n=65 v=64
175620 On ch=15 n=62 v=18
175620 On ch=15 n=64 v=18
175644 Off ch=15 n=60 v=64
175680 Off ch=15 n=64 v=64
175680 On ch=15 n=60 v=18
175680 On ch=15 n=65 v=18
175704 Off ch=15 n=62 v=64
175740 Off ch=15 n=65 v=64
175740 On ch=15 n=62 v=18
175740 On ch=15 n=64 v=18
175764 Off ch=15 n=60 v=64
175800 Off ch=15 n=64 v=64
175800 On ch=15 n=60 v=18
175800 On ch=15 n=65 v=18
175824 Off ch=15 n=62 v=64
175860 Off ch=15 n=65 v=64
175860 On ch=15 n=62 v=18
175860 On ch=15 n=64 v=18
175884 Off ch=15 n=60 v=64
175920 Off ch=15 n=64 v=64
175920 On ch=15 n=60 v=18
175920 On ch=15 n=65 v=18
175944 Off ch=15 n=62 v=64
175980 Off ch=15 n=65 v=64
175980 On ch=15 n=62 v=18
175980 On ch=15 n=64 v=18
176004 Off ch=15 n=60 v=64
176040 Off ch=15 n=64 v=64
176040 On ch=15 n=60 v=18
176040 On ch=15 n=65 v=18
176064 Off ch=15 n=62 v=64
176100 Off ch=15 n=65 v=64
176100 On ch=15 n=62 v=18
176100 On ch=15 n=64 v=18
176124 Off ch=15 n=60 v=64
176160 Off ch=15 n=64 v=64
176160 On ch=15 n=60 v=18
176160 On ch=15 n=65 v=18
176184 Off ch=15 n=62 v=64
176220 Off ch=15 n=65 v=64
176220 On ch=15 n=62 v=18
176220 On ch=15 n=64 v=18
176244 Off ch=15 n=60 v=64
176280 Off ch=15 n=64 v=64
176280 On ch=15 n=60 v=18
176280 On ch=15 n=65 v=18
176304 Off ch=15 n=62 v=64
176340 Off ch=15 n=65 v=64
176340 On ch=15 n=62 v=18
176340 On ch=15 n=64 v=18
176364 Off ch=15 n=60 v=64
176400 Off ch=15 n=64 v=64
176400 On ch=15 n=60 v=18
176400 On ch=15 n=65 v=18
176424 Off ch=15 n=62 v=64
176460 Off ch=15 n=65 v=64
176460 On ch=15 n=62 v=18
176460 On ch=15 n=64 v=18
176484 Off ch=15 n=60 v=64
176520 Off ch=15 n=64 v=64
176520 On ch=15 n=60 v=18
176520 On ch=15 n=65 v=18
176544 Off ch=15 n=62 v=64
176580 Off ch=15 n=65 v=64
176580 On ch=15 n=62 v=18
176580 On ch=15 n=64 v=18
176604 Off ch=15 n=60 v=64
176640 Off ch=15 n=64 v=64
176640 On ch=15 n=60 v=18
176640 On ch=15 n=65 v=18
176664 Off ch=15 n=62 v=64
176700 Off ch=15 n=65 v=64
176700 On ch=15 n=62 v=18
176700 On ch=15 n=64 v=18
176724 Off ch=15 n=60 v=64
176760 Off ch=15 n=64 v=64
176760 On ch=15 n=60 v=18
176760 On ch=15 n=65 v=18
176784 Off ch=15 n=62 v=64
176820 Off ch=15 n=65 v=64
176820 On ch=15 n=62 v=18
176820 On ch=15 n=64 v=18
176844 Off ch=15 n=60 v=64
176880 Off ch=15 n=64 v=64
176880 On ch=15 n=60 v=18
176880 On ch=15 n=65 v=18
176904 Off ch=15 n=62 v=64
176940 Off ch=15 n=65 v=64
176940 On ch=15 n=62 v=18
176940 On ch=15 n=64 v=18
176964 Off ch=15 n=60 v=64
177000 Off ch=15 n=64 v=64
177000 On ch=15 n=60 v=18
177000 On ch=15 n=65 v=18
177024 Off ch=15 n=62 v=64
177060 Off ch=15 n=65 v=64
177060 On ch=15 n=62 v=18
177060 On ch=15 n=64 v=18
177084 Off ch=15 n=60 v=64
177120 Off ch=15 n=64 v=64
177120 On ch=15 n=60 v=18
177120 On ch=15 n=65 v=21
177144 Off ch=15 n=62 v=64
177180 Off ch=15 n=65 v=64
177180 On ch=15 n=62 v=18
177180 On ch=15 n=64 v=18
177204 Off ch=15 n=60 v=64
177240 Off ch=15 n=64 v=64
177240 On ch=15 n=60 v=18
177240 On ch=15 n=65 v=18
177264 Off ch=15 n=62 v=64
177300 Off ch=15 n=65 v=64
177300 On ch=15 n=62 v=18
177300 On ch=15 n=64 v=18
177324 Off ch=15 n=60 v=64
177360 Off ch=15 n=64 v=64
177360 On ch=15 n=60 v=18
177360 On ch=15 n=65 v=18
177384 Off ch=15 n=62 v=64
177420 Off ch=15 n=65 v=64
177420 On ch=15 n=62 v=18
177420 On ch=15 n=64 v=18
177444 Off ch=15 n=60 v=64
177480 Off ch=15 n=64 v=64
177480 On ch=15 n=60 v=18
177480 On ch=15 n=65 v=18
177504 Off ch=15 n=62 v=64
177540 Off ch=15 n=65 v=64
177540 On ch=15 n=62 v=18
177540 On ch=15 n=64 v=18
177564 Off ch=15 n=60 v=64
177600 Off ch=15 n=64 v=64
177600 On ch=15 n=60 v=18
177600 On ch=15 n=65 v=18
177624 Off ch=15 n=62 v=64
177660 Off ch=15 n=65 v=64
177660 On ch=15 n=62 v=18
177660 On ch=15 n=64 v=18
177684 Off ch=15 n=60 v=64
177720 Off ch=15 n=64 v=64
177720 On ch=15 n=60 v=18
177720 On ch=15 n=65 v=18
177744 Off ch=15 n=62 v=64
177780 Off ch=15 n=65 v=64
177780 On ch=15 n=62 v=18
177780 On ch=15 n=64 v=18
177804 Off ch=15 n=60 v=64
177840 Off ch=15 n=64 v=64
177840 On ch=15 n=60 v=18
177840 On ch=15 n=65 v=18
177864 Off ch=15 n=62 v=64
177900 Off ch=15 n=65 v=64
177900 On ch=15 n=62 v=18
177900 On ch=15 n=64 v=18
177924 Off ch=15 n=60 v=64
177960 Off ch=15 n=64 v=64
177960 On ch=15 n=60 v=18
177960 On ch=15 n=65 v=18
177984 Off ch=15 n=62 v=64
178020 Off ch=15 n=65 v=64
178020 On ch=15 n=62 v=18
178020 On ch=15 n=64 v=18
178044 Off ch=15 n=60 v=64
178080 Off ch=15 n=64 v=64
178080 On ch=15 n=60 v=18
178080 On ch=15 n=65 v=18
178104 Off ch=15 n=62 v=64
178140 Off ch=15 n=65 v=64
178140 On ch=15 n=62 v=18
178140 On ch=15 n=64 v=18
178164 Off ch=15 n=60 v=64
178200 Off ch=15 n=64 v=64
178200 On ch=15 n=60 v=18
178200 On ch=15 n=65 v=18
178224 Off ch=15 n=62 v=64
178260 Off ch=15 n=65 v=64
178260 On ch=15 n=62 v=18
178260 On ch=15 n=64 v=18
178284 Off ch=15 n=60 v=64
178320 Off ch=15 n=64 v=64
178320 On ch=15 n=60 v=18
178320 On ch=15 n=65 v=18
178344 Off ch=15 n=62 v=64
178380 Off ch=15 n=65 v=64
178380 On ch=15 n=62 v=18
178380 On ch=15 n=64 v=18
178404 Off ch=15 n=60 v=64
178440 Off ch=15 n=64 v=64
178440 On ch=15 n=60 v=18
178440 On ch=15 n=65 v=18
178464 Off ch=15 n=62 v=64
178500 Off ch=15 n=65 v=64
178500 On ch=15 n=62 v=18
178500 On ch=15 n=64 v=18
178524 Off ch=15 n=60 v=64
178560 Off ch=15 n=64 v=64
178560 On ch=15 n=60 v=18
178560 On ch=15 n=65 v=18
178584 Off ch=15 n=62 v=64
178620 Off ch=15 n=65 v=64
178620 On ch=15 n=62 v=18
178620 On ch=15 n=64 v=18
178644 Off ch=15 n=60 v=64
178680 Off ch=15 n=64 v=64
178680 On ch=15 n=60 v=18
178680 On ch=15 n=65 v=18
178704 Off ch=15 n=62 v=64
178740 Off ch=15 n=65 v=64
178740 On ch=15 n=62 v=18
178740 On ch=15 n=64 v=18
178764 Off ch=15 n=60 v=64
178800 Off ch=15 n=64 v=64
178800 On ch=15 n=60 v=18
178800 On ch=15 n=65 v=18
178824 Off ch=15 n=62 v=64
178860 Off ch=15 n=65 v=64
178860 On ch=15 n=62 v=18
178860 On ch=15 n=64 v=18
178884 Off ch=15 n=60 v=64
178920 Off ch=15 n=64 v=64
178920 On ch=15 n=60 v=18
178920 On ch=15 n=65 v=18
178944 Off ch=15 n=62 v=64
178980 Off ch=15 n=65 v=64
178980 On ch=15 n=62 v=18
178980 On ch=15 n=64 v=18
179004 Off ch=15 n=60 v=64
179040 Off ch=15 n=64 v=64
179040 On ch=15 n=60 v=18
179040 On ch=15 n=65 v=21
179064 Off ch=15 n=62 v=64
179100 Off ch=15 n=65 v=64
179100 On ch=15 n=62 v=18
179100 On ch=15 n=64 v=18
179124 Off ch=15 n=60 v=64
179160 Off ch=15 n=64 v=64
179160 On ch=15 n=60 v=18
179160 On ch=15 n=65 v=18
179184 Off ch=15 n=62 v=64
179220 Off ch=15 n=65 v=64
179220 On ch=15 n=62 v=18
179220 On ch=15 n=64 v=18
179244 Off ch=15 n=60 v=64
179280 Off ch=15 n=64 v=64
179280 On ch=15 n=60 v=18
179280 On ch=15 n=65 v=18
179304 Off ch=15 n=62 v=64
179340 Off ch=15 n=65 v=64
179340 On ch=15 n=62 v=18
179340 On ch=15 n=64 v=18
179364 Off ch=15 n=60 v=64
179400 Off ch=15 n=64 v=64
179400 On ch=15 n=60 v=18
179400 On ch=15 n=65 v=18
179424 Off ch=15 n=62 v=64
179460 Off ch=15 n=65 v=64
179460 On ch=15 n=62 v=18
179460 On ch=15 n=64 v=18
179484 Off ch=15 n=60 v=64
179520 Off ch=15 n=64 v=64
179520 On ch=15 n=60 v=18
179520 On ch=15 n=65 v=18
179544 Off ch=15 n=62 v=64
179580 Off ch=15 n=65 v=64
179580 On ch=15 n=62 v=18
179580 On ch=15 n=64 v=18
179604 Off ch=15 n=60 v=64
179640 Off ch=15 n=64 v=64
179640 On ch=15 n=60 v=18
179640 On ch=15 n=65 v=18
179664 Off ch=15 n=62 v=64
179700 Off ch=15 n=65 v=64
179700 On ch=15 n=62 v=18
179700 On ch=15 n=64 v=18
179724 Off ch=15 n=60 v=64
179760 Off ch=15 n=64 v=64
179760 On ch=15 n=60 v=18
179760 On ch=15 n=65 v=18
179784 Off ch=15 n=62 v=64
179820 Off ch=15 n=65 v=64
179820 On ch=15 n=62 v=18
179820 On ch=15 n=64 v=18
179844 Off ch=15 n=60 v=64
179880 Off ch=15 n=64 v=64
179880 On ch=15 n=60 v=18
179880 On ch=15 n=65 v=18
179904 Off ch=15 n=62 v=64
179940 Off ch=15 n=65 v=64
179940 On ch=15 n=62 v=18
179940 On ch=15 n=64 v=18
179964 Off ch=15 n=60 v=64
180000 Off ch=15 n=64 v=64
180000 On ch=15 n=60 v=18
180000 On ch=15 n=65 v=18
180024 Off ch=15 n=62 v=64
180060 Off ch=15 n=65 v=64
180060 On ch=15 n=62 v=18
180060 On ch=15 n=64 v=18
180084 Off ch=15 n=60 v=64
180120 Off ch=15 n=64 v=64
180120 On ch=15 n=60 v=18
180120 On ch=15 n=65 v=18
180144 Off ch=15 n=62 v=64
180180 Off ch=15 n=65 v=64
180180 On ch=15 n=62 v=18
180180 On ch=15 n=64 v=18
180204 Off ch=15 n=60 v=64
180240 Off ch=15 n=64 v=64
180240 On ch=15 n=60 v=18
180240 On ch=15 n=65 v=18
180264 Off ch=15 n=62 v=64
180300 Off ch=15 n=65 v=64
180300 On ch=15 n=62 v=18
180300 On ch=15 n=64 v=18
180324 Off ch=15 n=60 v=64
180360 Off ch=15 n=64 v=64
180360 On ch=15 n=60 v=18
180360 On ch=15 n=65 v=18
180384 Off ch=15 n=62 v=64
180420 Off ch=15 n=65 v=64
180420 On ch=15 n=62 v=18
180420 On ch=15 n=64 v=18
180444 Off ch=15 n=60 v=64
180480 Off ch=15 n=64 v=64
180480 On ch=15 n=60 v=18
180480 On ch=15 n=65 v=18
180504 Off ch=15 n=62 v=64
180540 Off ch=15 n=65 v=64
180540 On ch=15 n=62 v=18
180540 On ch=15 n=64 v=18
180564 Off ch=15 n=60 v=64
180600 Off ch=15 n=64 v=64
180600 On ch=15 n=60 v=18
180600 On ch=15 n=65 v=18
180624 Off ch=15 n=62 v=64
180660 Off ch=15 n=65 v=64
180660 On ch=15 n=62 v=18
180660 On ch=15 n=64 v=18
180684 Off ch=15 n=60 v=64
180720 Off ch=15 n=64 v=64
180720 On ch=15 n=60 v=18
180720 On ch=15 n=65 v=18
180744 Off ch=15 n=62 v=64
180780 Off ch=15 n=65 v=64
180780 On ch=15 n=62 v=18
180780 On ch=15 n=64 v=18
180804 Off ch=15 n=60 v=64
180840 Off ch=15 n=64 v=64
180840 On ch=15 n=60 v=18
180840 On ch=15 n=65 v=18
180864 Off ch=15 n=62 v=64
180900 Off ch=15 n=65 v=64
180900 On ch=15 n=62 v=18
180900 On ch=15 n=64 v=18
180924 Off ch=15 n=60 v=64
180960 Off ch=15 n=64 v=64
180960 On ch=15 n=60 v=18
180960 On ch=15 n=65 v=21
180984 Off ch=15 n=62 v=64
181020 Off ch=15 n=65 v=64
181020 On ch=15 n=62 v=18
181020 On ch=15 n=64 v=18
181044 Off ch=15 n=60 v=64
181080 Off ch=15 n=64 v=64
181080 On ch=15 n=60 v=18
181080 On ch=15 n=65 v=18
181104 Off ch=15 n=62 v=64
181140 Off ch=15 n=65 v=64
181140 On ch=15 n=62 v=18
181140 On ch=15 n=64 v=18
181164 Off ch=15 n=60 v=64
181200 Off ch=15 n=64 v=64
181200 On ch=15 n=60 v=18
181200 On ch=15 n=65 v=18
181224 Off ch=15 n=62 v=64
181260 Off ch=15 n=65 v=64
181260 On ch=15 n=62 v=18
181260 On ch=15 n=64 v=18
181284 Off ch=15 n=60 v=64
181320 Off ch=15 n=64 v=64
181320 On ch=15 n=60 v=18
181320 On ch=15 n=65 v=18
181344 Off ch=15 n=62 v=64
181380 Off ch=15 n=65 v=64
181380 On ch=15 n=62 v=18
181380 On ch=15 n=64 v=18
181404 Off ch=15 n=60 v=64
181440 Off ch=15 n=64 v=64
181440 On ch=15 n=60 v=18
181440 On ch=15 n=65 v=18
181464 Off ch=15 n=62 v=64
181500 Off ch=15 n=65 v=64
181500 On ch=15 n=62 v=18
181500 On ch=15 n=64 v=18
181524 Off ch=15 n=60 v=64
181560 Off ch=15 n=64 v=64
181560 On ch=15 n=60 v=18
181560 On ch=15 n=65 v=18
181584 Off ch=15 n=62 v=64
181620 Off ch=15 n=65 v=64
181620 On ch=15 n=62 v=18
181620 On ch=15 n=64 v=18
181644 Off ch=15 n=60 v=64
181680 Off ch=15 n=64 v=64
181680 On ch=15 n=60 v=18
181680 On ch=15 n=65 v=18
181704 Off ch=15 n=62 v=64
181740 Off ch=15 n=65 v=64
181740 On ch=15 n=62 v=18
181740 On ch=15 n=64 v=18
181764 Off ch=15 n=60 v=64
181800 Off ch=15 n=64 v=64
181800 On ch=15 n=60 v=18
181800 On ch=15 n=65 v=18
181824 Off ch=15 n=62 v=64
181860 Off ch=15 n=65 v=64
181860 On ch=15 n=62 v=18
181860 On ch=15 n=64 v=18
181884 Off ch=15 n=60 v=64
181920 Off ch=15 n=64 v=64
181920 On ch=15 n=60 v=18
181920 On ch=15 n=65 v=18
181944 Off ch=15 n=62 v=64
181980 Off ch=15 n=65 v=64
181980 On ch=15 n=62 v=18
181980 On ch=15 n=64 v=18
182004 Off ch=15 n=60 v=64
182040 Off ch=15 n=64 v=64
182040 On ch=15 n=60 v=18
182040 On ch=15 n=65 v=18
182064 Off ch=15 n=62 v=64
182100 Off ch=15 n=65 v=64
182100 On ch=15 n=62 v=18
182100 On ch=15 n=64 v=18
182124 Off ch=15 n=60 v=64
182160 Off ch=15 n=64 v=64
182160 On ch=15 n=60 v=18
182160 On ch=15 n=65 v=18
182184 Off ch=15 n=62 v=64
182220 Off ch=15 n=65 v=64
182220 On ch=15 n=62 v=18
182220 On ch=15 n=64 v=18
182244 Off ch=15 n=60 v=64
182280 Off ch=15 n=64 v=64
182280 On ch=15 n=60 v=18
182280 On ch=15 n=65 v=18
182304 Off ch=15 n=62 v=64
182340 Off ch=15 n=65 v=64
182340 On ch=15 n=62 v=18
182340 On ch=15 n=64 v=18
182364 Off ch=15 n=60 v=64
182400 Off ch=15 n=64 v=64
182400 On ch=15 n=60 v=18
182400 On ch=15 n=65 v=18
182424 Off ch=15 n=62 v=64
182460 Off ch=15 n=65 v=64
182460 On ch=15 n=62 v=18
182460 On ch=15 n=64 v=18
182484 Off ch=15 n=60 v=64
182520 Off ch=15 n=64 v=64
182520 On ch=15 n=60 v=18
182520 On ch=15 n=65 v=18
182544 Off ch=15 n=62 v=64
182580 Off ch=15 n=65 v=64
182580 On ch=15 n=62 v=18
182580 On ch=15 n=64 v=18
182604 Off ch=15 n=60 v=64
182640 Off ch=15 n=64 v=64
182640 On ch=15 n=60 v=18
182640 On ch=15 n=65 v=18
182664 Off ch=15 n=62 v=64
182700 Off ch=15 n=65 v=64
182700 On ch=15 n=62 v=18
182700 On ch=15 n=64 v=18
182724 Off ch=15 n=60 v=64
182760 Off ch=15 n=64 v=64
182760 On ch=15 n=60 v=18
182760 On ch=15 n=65 v=18
182784 Off ch=15 n=62 v=64
182820 Off ch=15 n=65 v=64
182820 On ch=15 n=62 v=18
182820 On ch=15 n=64 v=18
182844 Off ch=15 n=60 v=64
182880 Off ch=15 n=64 v=64
182880 On ch=15 n=60 v=18
182880 On ch=15 n=65 v=21
182904 Off ch=15 n=62 v=64
182940 Off ch=15 n=65 v=64
182940 On ch=15 n=62 v=18
182940 On ch=15 n=64 v=18
182964 Off ch=15 n=60 v=64
183000 Off ch=15 n=64 v=64
183000 On ch=15 n=60 v=18
183000 On ch=15 n=65 v=18
183024 Off ch=15 n=62 v=64
183060 Off ch=15 n=65 v=64
183060 On ch=15 n=62 v=18
183060 On ch=15 n=64 v=18
183084 Off ch=15 n=60 v=64
183120 Off ch=15 n=64 v=64
183120 On ch=15 n=60 v=18
183120 On ch=15 n=65 v=18
183144 Off ch=15 n=62 v=64
183180 Off ch=15 n=65 v=64
183180 On ch=15 n=62 v=18
183180 On ch=15 n=64 v=18
183204 Off ch=15 n=60 v=64
183240 Off ch=15 n=64 v=64
183240 On ch=15 n=60 v=18
183240 On ch=15 n=65 v=18
183264 Off ch=15 n=62 v=64
183300 Off ch=15 n=65 v=64
183300 On ch=15 n=62 v=18
183300 On ch=15 n=64 v=18
183324 Off ch=15 n=60 v=64
183360 Off ch=15 n=64 v=64
183360 On ch=15 n=60 v=18
183360 On ch=15 n=65 v=18
183384 Off ch=15 n=62 v=64
183420 Off ch=15 n=65 v=64
183420 On ch=15 n=62 v=18
183420 On ch=15 n=64 v=18
183444 Off ch=15 n=60 v=64
183480 Off ch=15 n=64 v=64
183480 On ch=15 n=60 v=18
183480 On ch=15 n=65 v=18
183504 Off ch=15 n=62 v=64
183540 Off ch=15 n=65 v=64
183540 On ch=15 n=62 v=18
183540 On ch=15 n=64 v=18
183564 Off ch=15 n=60 v=64
183600 Off ch=15 n=64 v=64
183600 On ch=15 n=60 v=18
183600 On ch=15 n=65 v=18
183624 Off ch=15 n=62 v=64
183660 Off ch=15 n=65 v=64
183660 On ch=15 n=62 v=18
183660 On ch=15 n=64 v=18
183684 Off ch=15 n=60 v=64
183720 Off ch=15 n=64 v=64
183720 On ch=15 n=60 v=18
183720 On ch=15 n=65 v=18
183744 Off ch=15 n=62 v=64
183780 Off ch=15 n=65 v=64
183780 On ch=15 n=62 v=18
183780 On ch=15 n=64 v=18
183804 Off ch=15 n=60 v=64
183840 Off ch=15 n=64 v=64
183840 On ch=15 n=60 v=18
183840 On ch=15 n=65 v=18
183864 Off ch=15 n=62 v=64
183900 Off ch=15 n=65 v=64
183900 On ch=15 n=62 v=18
183900 On ch=15 n=64 v=18
183924 Off ch=15 n=60 v=64
183960 Off ch=15 n=64 v=64
183960 On ch=15 n=60 v=18
183960 On ch=15 n=65 v=18
183984 Off ch=15 n=62 v=64
184020 Off ch=15 n=65 v=64
184020 On ch=15 n=62 v=18
184020 On ch=15 n=64 v=18
184044 Off ch=15 n=60 v=64
184080 Off ch=15 n=64 v=64
184080 On ch=15 n=60 v=18
184080 On ch=15 n=65 v=18
184104 Off ch=15 n=62 v=64
184140 Off ch=15 n=65 v=64
184140 On ch=15 n=62 v=18
184140 On ch=15 n=64 v=18
184164 Off ch=15 n=60 v=64
184200 Off ch=15 n=64 v=64
184200 On ch=15 n=60 v=18
184200 On ch=15 n=65 v=18
184224 Off ch=15 n=62 v=64
184260 Off ch=15 n=65 v=64
184260 On ch=15 n=62 v=18
184260 On ch=15 n=64 v=18
184284 Off ch=15 n=60 v=64
184320 Off ch=15 n=64 v=64
184320 On ch=15 n=60 v=18
184320 On ch=15 n=65 v=18
184344 Off ch=15 n=62 v=64
184380 Off ch=15 n=65 v=64
184380 On ch=15 n=62 v=18
184380 On ch=15 n=64 v=18
184404 Off ch=15 n=60 v=64
184440 Off ch=15 n=64 v=64
184440 On ch=15 n=60 v=18
184440 On ch=15 n=65 v=18
184464 Off ch=15 n=62 v=64
184500 Off ch=15 n=65 v=64
184500 On ch=15 n=62 v=18
184500 On ch=15 n=64 v=18
184524 Off ch=15 n=60 v=64
184560 Off ch=15 n=64 v=64
184560 On ch=15 n=60 v=18
184560 On ch=15 n=65 v=18
184584 Off ch=15 n=62 v=64
184620 Off ch=15 n=65 v=64
184620 On ch=15 n=62 v=18
184620 On ch=15 n=64 v=18
184644 Off ch=15 n=60 v=64
184680 Off ch=15 n=64 v=64
184680 On ch=15 n=60 v=18
184680 On ch=15 n=65 v=18
184704 Off ch=15 n=62 v=64
184740 Off ch=15 n=65 v=64
184740 On ch=15 n=62 v=18
184740 On ch=15 n=64 v=18
184764 Off ch=15 n=60 v=64
184800 Off ch=15 n=64 v=64
184800 On ch=15 n=60 v=18
184800 On ch=15 n=65 v=21
184824 Off ch=15 n=62 v=64
184860 Off ch=15 n=65 v=64
184860 On ch=15 n=62 v=18
184860 On ch=15 n=64 v=18
184884 Off ch=15 n=60 v=64
184920 Off ch=15 n=64 v=64
184920 On ch=15 n=60 v=18
184920 On ch=15 n=65 v=18
184944 Off ch=15 n=62 v=64
184980 Off ch=15 n=65 v=64
184980 On ch=15 n=62 v=18
184980 On ch=15 n=64 v=18
185004 Off ch=15 n=60 v=64
185040 Off ch=15 n=64 v=64
185040 On ch=15 n=60 v=18
185040 On ch=15 n=65 v=18
185064 Off ch=15 n=62 v=64
185100 Off ch=15 n=65 v=64
185100 On ch=15 n=62 v=18
185100 On ch=15 n=64 v=18
185124 Off ch=15 n=60 v=64
185160 Off ch=15 n=64 v=64
185160 On ch=15 n=60 v=18
185160 On ch=15 n=65 v=18
185184 Off ch=15 n=62 v=64
185220 Off ch=15 n=65 v=64
185220 On ch=15 n=62 v=18
185220 On ch=15 n=64 v=18
185244 Off ch=15 n=60 v=64
185280 Off ch=15 n=64 v=64
185280 On ch=15 n=60 v=18
185280 On ch=15 n=65 v=18
185304 Off ch=15 n=62 v=64
185340 Off ch=15 n=65 v=64
185340 On ch=15 n=62 v=18
185340 On ch=15 n=64 v=18
185364 Off ch=15 n=60 v=64
185400 Off ch=15 n=64 v=64
185400 On ch=15 n=60 v=18
185400 On ch=15 n=65 v=18
185424 Off ch=15 n=62 v=64
185460 Off ch=15 n=65 v=64
185460 On ch=15 n=62 v=18
185460 On ch=15 n=64 v=18
185484 Off ch=15 n=60 v=64
185520 Off ch=15 n=64 v=64
185520 On ch=15 n=60 v=18
185520 On ch=15 n=65 v=18
185544 Off ch=15 n=62 v=64
185580 Off ch=15 n=65 v=64
185580 On ch=15 n=62 v=18
185580 On ch=15 n=64 v=18
185604 Off ch=15 n=60 v=64
185640 Off ch=15 n=64 v=64
185640 On ch=15 n=60 v=18
185640 On ch=15 n=65 v=18
185664 Off ch=15 n=62 v=64
185700 Off ch=15 n=65 v=64
185700 On ch=15 n=62 v=18
185700 On ch=15 n=64 v=18
185724 Off ch=15 n=60 v=64
185760 Off ch=15 n=64 v=64
185760 On ch=15 n=60 v=18
185760 On ch=15 n=65 v=18
185784 Off ch=15 n=62 v=64
185820 Off ch=15 n=65 v=64
185820 On ch=15 n=62 v=18
185820 On ch=15 n=64 v=18
185844 Off ch=15 n=60 v=64
185880 Off ch=15 n=64 v=64
185880 On ch=15 n=60 v=18
185880 On ch=15 n=65 v=18
185904 Off ch=15 n=62 v=64
185940 Off ch=15 n=65 v=64
185940 On ch=15 n=62 v=18
185940 On ch=15 n=64 v=18
185964 Off ch=15 n=60 v=64
186000 Off ch=15 n=64 v=64
186000 On ch=15 n=60 v=18
186000 On ch=15 n=65 v=18
186024 Off ch=15 n=62 v=64
186060 Off ch=15 n=65 v=64
186060 On ch=15 n=62 v=18
186060 On ch=15 n=64 v=18
186084 Off ch=15 n=60 v=64
186120 Off ch=15 n=64 v=64
186120 On ch=15 n=60 v=18
186120 On ch=15 n=65 v=18
186144 Off ch=15 n=62 v=64
186180 Off ch=15 n=65 v=64
186180 On ch=15 n=62 v=18
186180 On ch=15 n=64 v=18
186204 Off ch=15 n=60 v=64
186240 Off ch=15 n=64 v=64
186240 On ch=15 n=60 v=18
186240 On ch=15 n=65 v=18
186264 Off ch=15 n=62 v=64
186300 Off ch=15 n=65 v=64
186300 On ch=15 n=62 v=18
186300 On ch=15 n=64 v=18
186324 Off ch=15 n=60 v=64
186360 Off ch=15 n=64 v=64
186360 On ch=15 n=60 v=18
186360 On ch=15 n=65 v=18
186384 Off ch=15 n=62 v=64
186420 Off ch=15 n=65 v=64
186420 On ch=15 n=62 v=18
186420 On ch=15 n=64 v=18
186444 Off ch=15 n=60 v=64
186480 Off ch=15 n=64 v=64
186480 On ch=15 n=60 v=18
186480 On ch=15 n=65 v=18
186504 Off ch=15 n=62 v=64
186540 Off ch=15 n=65 v=64
186540 On ch=15 n=62 v=18
186540 On ch=15 n=64 v=18
186564 Off ch=15 n=60 v=64
186600 Off ch=15 n=64 v=64
186600 On ch=15 n=60 v=18
186600 On ch=15 n=65 v=18
186624 Off ch=15 n=62 v=64
186660 Off ch=15 n=65 v=64
186660 On ch=15 n=62 v=18
186660 On ch=15 n=64 v=18
186684 Off ch=15 n=60 v=64
186720 Off ch=15 n=64 v=64
186720 On ch=15 n=60 v=18
186720 On ch=15 n=65 v=21
186744 Off ch=15 n=62 v=64
186780 Off ch=15 n=65 v=64
186780 On ch=15 n=62 v=18
186780 On ch=15 n=64 v=18
186804 Off ch=15 n=60 v=64
186840 Off ch=15 n=64 v=64
186840 On ch=15 n=60 v=18
186840 On ch=15 n=65 v=18
186864 Off ch=15 n=62 v=64
186900 Off ch=15 n=65 v=64
186900 On ch=15 n=62 v=18
186900 On ch=15 n=64 v=18
186924 Off ch=15 n=60 v=64
186960 Off ch=15 n=64 v=64
186960 On ch=15 n=60 v=18
186960 On ch=15 n=65 v=18
186984 Off ch=15 n=62 v=64
187020 Off ch=15 n=65 v=64
187020 On ch=15 n=62 v=18
187020 On ch=15 n=64 v=18
187044 Off ch=15 n=60 v=64
187080 Off ch=15 n=64 v=64
187080 On ch=15 n=60 v=18
187080 On ch=15 n=65 v=18
187104 Off ch=15 n=62 v=64
187140 Off ch=15 n=65 v=64
187140 On ch=15 n=62 v=18
187140 On ch=15 n=64 v=18
187164 Off ch=15 n=60 v=64
187200 Off ch=15 n=64 v=64
187200 On ch=15 n=60 v=18
187200 On ch=15 n=65 v=18
187224 Off ch=15 n=62 v=64
187260 Off ch=15 n=65 v=64
187260 On ch=15 n=62 v=18
187260 On ch=15 n=64 v=18
187284 Off ch=15 n=60 v=64
187320 Off ch=15 n=64 v=64
187320 On ch=15 n=60 v=18
187320 On ch=15 n=65 v=18
187344 Off ch=15 n=62 v=64
187380 Off ch=15 n=65 v=64
187380 On ch=15 n=62 v=18
187380 On ch=15 n=64 v=18
187404 Off ch=15 n=60 v=64
187440 Off ch=15 n=64 v=64
187440 On ch=15 n=60 v=18
187440 On ch=15 n=65 v=18
187464 Off ch=15 n=62 v=64
187500 Off ch=15 n=65 v=64
187500 On ch=15 n=62 v=18
187500 On ch=15 n=64 v=18
187524 Off ch=15 n=60 v=64
187560 Off ch=15 n=64 v=64
187560 On ch=15 n=60 v=18
187560 On ch=15 n=65 v=18
187584 Off ch=15 n=62 v=64
187620 Off ch=15 n=65 v=64
187620 On ch=15 n=62 v=18
187620 On ch=15 n=64 v=18
187644 Off ch=15 n=60 v=64
187680 Off ch=15 n=64 v=64
187680 On ch=15 n=60 v=18
187680 On ch=15 n=65 v=18
187704 Off ch=15 n=62 v=64
187740 Off ch=15 n=65 v=64
187740 On ch=15 n=62 v=18
187740 On ch=15 n=64 v=18
187764 Off ch=15 n=60 v=64
187800 Off ch=15 n=64 v=64
187800 On ch=15 n=60 v=18
187800 On ch=15 n=65 v=18
187824 Off ch=15 n=62 v=64
187860 Off ch=15 n=65 v=64
187860 On ch=15 n=62 v=18
187860 On ch=15 n=64 v=18
187884 Off ch=15 n=60 v=64
187920 Off ch=15 n=64 v=64
187920 On ch=15 n=60 v=18
187920 On ch=15 n=65 v=18
187944 Off ch=15 n=62 v=64
187980 Off ch=15 n=65 v=64
187980 On ch=15 n=62 v=18
187980 On ch=15 n=64 v=18
188004 Off ch=15 n=60 v=64
188040 Off ch=15 n=64 v=64
188040 On ch=15 n=60 v=18
188040 On ch=15 n=65 v=18
188064 Off ch=15 n=62 v=64
188100 Off ch=15 n=65 v=64
188100 On ch=15 n=62 v=18
188100 On ch=15 n=64 v=18
188124 Off ch=15 n=60 v=64
188160 Off ch=15 n=64 v=64
188160 On ch=15 n=60 v=18
188160 On ch=15 n=65 v=18
188184 Off ch=15 n=62 v=64
188220 Off ch=15 n=65 v=64
188220 On ch=15 n=62 v=18
188220 On ch=15 n=64 v=18
188244 Off ch=15 n=60 v=64
188280 Off ch=15 n=64 v=64
188280 On ch=15 n=60 v=18
188280 On ch=15 n=65 v=18
188304 Off ch=15 n=62 v=64
188340 Off ch=15 n=65 v=64
188340 On ch=15 n=62 v=18
188340 On ch=15 n=64 v=18
188364 Off ch=15 n=60 v=64
188400 Off ch=15 n=64 v=64
188400 On ch=15 n=60 v=18
188400 On ch=15 n=65 v=18
188424 Off ch=15 n=62 v=64
188460 Off ch=15 n=65 v=64
188460 On ch=15 n=62 v=18
188460 On ch=15 n=64 v=18
188484 Off ch=15 n=60 v=64
188520 Off ch=15 n=64 v=64
188520 On ch=15 n=60 v=18
188520 On ch=15 n=65 v=18
188544 Off ch=15 n=62 v=64
188580 Off ch=15 n=65 v=64
188580 On ch=15 n=62 v=18
188580 On ch=15 n=64 v=18
188604 Off ch=15 n=60 v=64
188640 Off ch=15 n=64 v=64
188640 On ch=15 n=60 v=18
188640 On ch=15 n=65 v=21
188664 Off ch=15 n=62 v=64
188700 Off ch=15 n=65 v=64
188700 On ch=15 n=62 v=18
188700 On ch=15 n=64 v=18
188724 Off ch=15 n=60 v=64
188760 Off ch=15 n=64 v=64
188760 On ch=15 n=60 v=18
188760 On ch=15 n=65 v=18
188784 Off ch=15 n=62 v=64
188820 Off ch=15 n=65 v=64
188820 On ch=15 n=62 v=18
188820 On ch=15 n=64 v=18
188844 Off ch=15 n=60 v=64
188880 Off ch=15 n=64 v=64
188880 On ch=15 n=60 v=18
188880 On ch=15 n=65 v=18
188904 Off ch=15 n=62 v=64
188940 Off ch=15 n=65 v=64
188940 On ch=15 n=62 v=18
188940 On ch=15 n=64 v=18
188964 Off ch=15 n=60 v=64
189000 Off ch=15 n=64 v=64
189000 On ch=15 n=60 v=18
189000 On ch=15 n=65 v=18
189024 Off ch=15 n=62 v=64
189060 Off ch=15 n=65 v=64
189060 On ch=15 n=62 v=18
189060 On ch=15 n=64 v=18
189084 Off ch=15 n=60 v=64
189120 Off ch=15 n=64 v=64
189120 On ch=15 n=60 v=18
189120 On ch=15 n=65 v=18
189144 Off ch=15 n=62 v=64
189180 Off ch=15 n=65 v=64
189180 On ch=15 n=62 v=18
189180 On ch=15 n=64 v=18
189204 Off ch=15 n=60 v=64
189240 Off ch=15 n=64 v=64
189240 On ch=15 n=60 v=18
189240 On ch=15 n=65 v=18
189264 Off ch=15 n=62 v=64
189300 Off ch=15 n=65 v=64
189300 On ch=15 n=62 v=18
189300 On ch=15 n=64 v=18
189324 Off ch=15 n=60 v=64
189360 Off ch=15 n=64 v=64
189360 On ch=15 n=60 v=18
189360 On ch=15 n=65 v=18
189384 Off ch=15 n=62 v=64
189420 Off ch=15 n=65 v=64
189420 On ch=15 n=62 v=18
189420 On ch=15 n=64 v=18
189444 Off ch=15 n=60 v=64
189480 Off ch=15 n=64 v=64
189480 On ch=15 n=60 v=18
189480 On ch=15 n=65 v=18
189504 Off ch=15 n=62 v=64
189540 Off ch=15 n=65 v=64
189540 On ch=15 n=62 v=18
189540 On ch=15 n=64 v=18
189564 Off ch=15 n=60 v=64
189600 Off ch=15 n=64 v=64
189600 On ch=15 n=60 v=18
189600 On ch=15 n=65 v=18
189624 Off ch=15 n=62 v=64
189660 Off ch=15 n=65 v=64
189660 On ch=15 n=62 v=18
189660 On ch=15 n=64 v=18
189684 Off ch=15 n=60 v=64
189720 Off ch=15 n=64 v=64
189720 On ch=15 n=60 v=18
189720 On ch=15 n=65 v=18
189744 Off ch=15 n=62 v=64
189780 Off ch=15 n=65 v=64
189780 On ch=15 n=62 v=18
189780 On ch=15 n=64 v=18
189804 Off ch=15 n=60 v=64
189840 Off ch=15 n=64 v=64
189840 On ch=15 n=60 v=18
189840 On ch=15 n=65 v=18
189864 Off ch=15 n=62 v=64
189900 Off ch=15 n=65 v=64
189900 On ch=15 n=62 v=18
189900 On ch=15 n=64 v=18
189924 Off ch=15 n=60 v=64
189960 Off ch=15 n=64 v=64
189960 On ch=15 n=60 v=18
189960 On ch=15 n=65 v=18
189984 Off ch=15 n=62 v=64
190020 Off ch=15 n=65 v=64
190020 On ch=15 n=62 v=18
190020 On ch=15 n=64 v=18
190044 Off ch=15 n=60 v=64
190080 Off ch=15 n=64 v=64
190080 On ch=15 n=60 v=18
190080 On ch=15 n=65 v=18
190104 Off ch=15 n=62 v=64
190140 Off ch=15 n=65 v=64
190140 On ch=15 n=62 v=18
190140 On ch=15 n=64 v=18
190164 Off ch=15 n=60 v=64
190200 Off ch=15 n=64 v=64
190200 On ch=15 n=60 v=18
190200 On ch=15 n=65 v=18
190224 Off ch=15 n=62 v=64
190260 Off ch=15 n=65 v=64
190260 On ch=15 n=62 v=18
190260 On ch=15 n=64 v=18
190284 Off ch=15 n=60 v=64
190320 Off ch=15 n=64 v=64
190320 On ch=15 n=60 v=18
190320 On ch=15 n=65 v=18
190344 Off ch=15 n=62 v=64
190380 Off ch=15 n=65 v=64
190380 On ch=15 n=62 v=18
190380 On ch=15 n=64 v=18
190404 Off ch=15 n=60 v=64
190440 Off ch=15 n=64 v=64
190440 On ch=15 n=60 v=18
190440 On ch=15 n=65 v=18
190464 Off ch=15 n=62 v=64
190500 Off ch=15 n=65 v=64
190500 On ch=15 n=62 v=18
190500 On ch=15 n=64 v=18
190524 Off ch=15 n=60 v=64
190560 Off ch=15 n=64 v=64
190560 On ch=15 n=60 v=18
190560 On ch=15 n=65 v=21
190584 Off ch=15 n=62 v=64
190620 Off ch=15 n=65 v=64
190620 On ch=15 n=62 v=18
190620 On ch=15 n=64 v=18
190644 Off ch=15 n=60 v=64
190680 Off ch=15 n=64 v=64
190680 On ch=15 n=60 v=18
190680 On ch=15 n=65 v=18
190704 Off ch=15 n=62 v=64
190740 Off ch=15 n=65 v=64
190740 On ch=15 n=62 v=18
190740 On ch=15 n=64 v=18
190764 Off ch=15 n=60 v=64
190800 Off ch=15 n=64 v=64
190800 On ch=15 n=60 v=18
190800 On ch=15 n=65 v=18
190824 Off ch=15 n=62 v=64
190860 Off ch=15 n=65 v=64
190860 On ch=15 n=62 v=18
190860 On ch=15 n=64 v=18
190884 Off ch=15 n=60 v=64
190920 Off ch=15 n=64 v=64
190920 On ch=15 n=60 v=18
190920 On ch=15 n=65 v=18
190944 Off ch=15 n=62 v=64
190980 Off ch=15 n=65 v=64
190980 On ch=15 n=62 v=18
190980 On ch=15 n=64 v=18
191004 Off ch=15 n=60 v=64
191040 Off ch=15 n=64 v=64
191040 On ch=15 n=60 v=18
191040 On ch=15 n=65 v=18
191064 Off ch=15 n=62 v=64
191100 Off ch=15 n=65 v=64
191100 On ch=15 n=62 v=18
191100 On ch=15 n=64 v=18
191124 Off ch=15 n=60 v=64
191160 Off ch=15 n=64 v=64
191160 On ch=15 n=60 v=18
191160 On ch=15 n=65 v=18
191184 Off ch=15 n=62 v=64
191220 Off ch=15 n=65 v=64
191220 On ch=15 n=62 v=18
191220 On ch=15 n=64 v=18
191244 Off ch=15 n=60 v=64
191280 Off ch=15 n=64 v=64
191280 On ch=15 n=60 v=18
191280 On ch=15 n=65 v=18
191304 Off ch=15 n=62 v=64
191340 Off ch=15 n=65 v=64
191340 On ch=15 n=62 v=18
191340 On ch=15 n=64 v=18
191364 Off ch=15 n=60 v=64
191400 Off ch=15 n=64 v=64
191400 On ch=15 n=60 v=18
191400 On ch=15 n=65 v=18
191424 Off ch=15 n=62 v=64
191460 Off ch=15 n=65 v=64
191460 On ch=15 n=62 v=18
191460 On ch=15 n=64 v=18
191484 Off ch=15 n=60 v=64
191520 Off ch=15 n=64 v=64
191520 On ch=15 n=60 v=18
191520 On ch=15 n=65 v=18
191544 Off ch=15 n=62 v=64
191580 Off ch=15 n=65 v=64
191580 On ch=15 n=62 v=18
191580 On ch=15 n=64 v=18
191604 Off ch=15 n=60 v=64
191640 Off ch=15 n=64 v=64
191640 On ch=15 n=60 v=18
191640 On ch=15 n=65 v=18
191664 Off ch=15 n=62 v=64
191700 Off ch=15 n=65 v=64
191700 On ch=15 n=62 v=18
191700 On ch=15 n=64 v=18
191724 Off ch=15 n=60 v=64
191760 Off ch=15 n=64 v=64
191760 On ch=15 n=60 v=18
191760 On ch=15 n=65 v=18
191784 Off ch=15 n=62 v=64
191820 Off ch=15 n=65 v=64
191820 On ch=15 n=62 v=18
191820 On ch=15 n=64 v=18
191844 Off ch=15 n=60 v=64
191880 Off ch=15 n=64 v=64
191880 On ch=15 n=60 v=18
191880 On ch=15 n=65 v=18
191904 Off ch=15 n=62 v=64
191940 Off ch=15 n=65 v=64
191940 On ch=15 n=62 v=18
191940 On ch=15 n=64 v=18
191964 Off ch=15 n=60 v=64
192000 Off ch=15 n=64 v=64
192000 On ch=15 n=60 v=18
192000 On ch=15 n=65 v=18
192024 Off ch=15 n=62 v=64
192060 Off ch=15 n=65 v=64
192060 On ch=15 n=62 v=18
192060 On ch=15 n=64 v=18
192084 Off ch=15 n=60 v=64
192120 Off ch=15 n=64 v=64
192120 On ch=15 n=60 v=18
192120 On ch=15 n=65 v=18
192144 Off ch=15 n=62 v=64
192180 Off ch=15 n=65 v=64
192180 On ch=15 n=62 v=18
192180 On ch=15 n=64 v=18
192204 Off ch=15 n=60 v=64
192240 Off ch=15 n=64 v=64
192240 On ch=15 n=60 v=18
192240 On ch=15 n=65 v=18
192264 Off ch=15 n=62 v=64
192300 Off ch=15 n=65 v=64
192300 On ch=15 n=62 v=18
192300 On ch=15 n=64 v=18
192324 Off ch=15 n=60 v=64
192360 Off ch=15 n=64 v=64
192360 On ch=15 n=60 v=18
192360 On ch=15 n=65 v=18
192384 Off ch=15 n=62 v=64
192420 Off ch=15 n=65 v=64
192420 On ch=15 n=62 v=18
192420 On ch=15 n=64 v=18
192444 Off ch=15 n=60 v=64
192480 Off ch=15 n=64 v=64
192480 On ch=15 n=60 v=18
192480 On ch=15 n=65 v=21
192504 Off ch=15 n=62 v=64
192540 Off ch=15 n=65 v=64
192540 On ch=15 n=62 v=18
192540 On ch=15 n=64 v=18
192564 Off ch=15 n=60 v=64
192600 Off ch=15 n=64 v=64
192600 On ch=15 n=60 v=18
192600 On ch=15 n=65 v=18
192624 Off ch=15 n=62 v=64
192660 Off ch=15 n=65 v=64
192660 On ch=15 n=62 v=18
192660 On ch=15 n=64 v=18
192684 Off ch=15 n=60 v=64
192720 Off ch=15 n=64 v=64
192720 On ch=15 n=60 v=18
192720 On ch=15 n=65 v=18
192744 Off ch=15 n=62 v=64
192780 Off ch=15 n=65 v=64
192780 On ch=15 n=62 v=18
192780 On ch=15 n=64 v=18
192804 Off ch=15 n=60 v=64
192840 Off ch=15 n=64 v=64
192840 On ch=15 n=60 v=18
192840 On ch=15 n=65 v=18
192864 Off ch=15 n=62 v=64
192900 Off ch=15 n=65 v=64
192900 On ch=15 n=62 v=18
192900 On ch=15 n=64 v=18
192924 Off ch=15 n=60 v=64
192960 Off ch=15 n=64 v=64
192960 On ch=15 n=60 v=18
192960 On ch=15 n=65 v=18
192984 Off ch=15 n=62 v=64
193020 Off ch=15 n=65 v=64
193020 On ch=15 n=62 v=18
193020 On ch=15 n=64 v=18
193044 Off ch=15 n=60 v=64
193080 Off ch=15 n=64 v=64
193080 On ch=15 n=60 v=18
193080 On ch=15 n=65 v=18
193104 Off ch=15 n=62 v=64
193140 Off ch=15 n=65 v=64
193140 On ch=15 n=62 v=18
193140 On ch=15 n=64 v=18
193164 Off ch=15 n=60 v=64
193200 Off ch=15 n=64 v=64
193200 On ch=15 n=60 v=18
193200 On ch=15 n=65 v=18
193224 Off ch=15 n=62 v=64
193260 Off ch=15 n=65 v=64
193260 On ch=15 n=62 v=18
193260 On ch=15 n=64 v=18
193284 Off ch=15 n=60 v=64
193320 Off ch=15 n=64 v=64
193320 On ch=15 n=60 v=18
193320 On ch=15 n=65 v=18
193344 Off ch=15 n=62 v=64
193380 Off ch=15 n=65 v=64
193380 On ch=15 n=62 v=18
193380 On ch=15 n=64 v=18
193404 Off ch=15 n=60 v=64
193440 Off ch=15 n=64 v=64
193440 On ch=15 n=60 v=18
193440 On ch=15 n=65 v=18
193464 Off ch=15 n=62 v=64
193500 Off ch=15 n=65 v=64
193500 On ch=15 n=62 v=18
193500 On ch=15 n=64 v=18
193524 Off ch=15 n=60 v=64
193560 Off ch=15 n=64 v=64
193560 On ch=15 n=60 v=18
193560 On ch=15 n=65 v=18
193584 Off ch=15 n=62 v=64
193620 Off ch=15 n=65 v=64
193620 On ch=15 n=62 v=18
193620 On ch=15 n=64 v=18
193644 Off ch=15 n=60 v=64
193680 Off ch=15 n=64 v=64
193680 On ch=15 n=60 v=18
193680 On ch=15 n=65 v=18
193704 Off ch=15 n=62 v=64
193740 Off ch=15 n=65 v=64
193740 On ch=15 n=62 v=18
193740 On ch=15 n=64 v=18
193764 Off ch=15 n=60 v=64
193800 Off ch=15 n=64 v=64
193800 On ch=15 n=60 v=18
193800 On ch=15 n=65 v=18
193824 Off ch=15 n=62 v=64
193860 Off ch=15 n=65 v=64
193860 On ch=15 n=62 v=18
193860 On ch=15 n=64 v=18
193884 Off ch=15 n=60 v=64
193920 Off ch=15 n=64 v=64
193920 On ch=15 n=60 v=18
193920 On ch=15 n=65 v=18
193944 Off ch=15 n=62 v=64
193980 Off ch=15 n=65 v=64
193980 On ch=15 n=62 v=18
193980 On ch=15 n=64 v=18
194004 Off ch=15 n=60 v=64
194040 Off ch=15 n=64 v=64
194040 On ch=15 n=60 v=18
194040 On ch=15 n=65 v=18
194064 Off ch=15 n=62 v=64
194100 Off ch=15 n=65 v=64
194100 On ch=15 n=62 v=18
194100 On ch=15 n=64 v=18
194124 Off ch=15 n=60 v=64
194160 Off ch=15 n=64 v=64
194160 On ch=15 n=60 v=18
194160 On ch=15 n=65 v=18
194184 Off ch=15 n=62 v=64
194220 Off ch=15 n=65 v=64
194220 On ch=15 n=62 v=18
194220 On ch=15 n=64 v=18
194244 Off ch=15 n=60 v=64
194280 Off ch=15 n=64 v=64
194280 On ch=15 n=60 v=18
194280 On ch=15 n=65 v=18
194304 Off ch=15 n=62 v=64
194340 Off ch=15 n=65 v=64
194340 On ch=15 n=62 v=18
194340 On ch=15 n=64 v=18
194364 Off ch=15 n=60 v=64
194400 Off ch=15 n=64 v=64
194400 On ch=15 n=60 v=18
194400 On ch=15 n=65 v=21
194424 Off ch=15 n=62 v=64
194460 Off ch=15 n=65 v=64
194460 On ch=15 n=62 v=18
194460 On ch=15 n=64 v=18
194484 Off ch=15 n=60 v=64
194520 Off ch=15 n=64 v=64
194520 On ch=15 n=60 v=18
194520 On ch=15 n=65 v=18
194544 Off ch=15 n=62 v=64
194580 Off ch=15 n=65 v=64
194580 On ch=15 n=62 v=18
194580 On ch=15 n=64 v=18
194604 Off ch=15 n=60 v=64
194640 Off ch=15 n=64 v=64
194640 On ch=15 n=60 v=18
194640 On ch=15 n=65 v=18
194664 Off ch=15 n=62 v=64
194700 Off ch=15 n=65 v=64
194700 On ch=15 n=62 v=18
194700 On ch=15 n=64 v=18
194724 Off ch=15 n=60 v=64
194760 Off ch=15 n=64 v=64
194760 On ch=15 n=60 v=18
194760 On ch=15 n=65 v=18
194784 Off ch=15 n=62 v=64
194820 Off ch=15 n=65 v=64
194820 On ch=15 n=62 v=18
194820 On ch=15 n=64 v=18
194844 Off ch=15 n=60 v=64
194880 Off ch=15 n=64 v=64
194880 On ch=15 n=60 v=18
194880 On ch=15 n=65 v=18
194904 Off ch=15 n=62 v=64
194940 Off ch=15 n=65 v=64
194940 On ch=15 n=62 v=18
194940 On ch=15 n=64 v=18
194964 Off ch=15 n=60 v=64
195000 Off ch=15 n=64 v=64
195000 On ch=15 n=60 v=18
195000 On ch=15 n=65 v=18
195024 Off ch=15 n=62 v=64
195060 Off ch=15 n=65 v=64
195060 On ch=15 n=62 v=18
195060 On ch=15 n=64 v=18
195084 Off ch=15 n=60 v=64
195120 Off ch=15 n=64 v=64
195120 On ch=15 n=60 v=18
195120 On ch=15 n=65 v=18
195144 Off ch=15 n=62 v=64
195180 Off ch=15 n=65 v=64
195180 On ch=15 n=62 v=18
195180 On ch=15 n=64 v=18
195204 Off ch=15 n=60 v=64
195240 Off ch=15 n=64 v=64
195240 On ch=15 n=60 v=18
195240 On ch=15 n=65 v=18
195264 Off ch=15 n=62 v=64
195300 Off ch=15 n=65 v=64
195300 On ch=15 n=62 v=18
195300 On ch=15 n=64 v=18
195324 Off ch=15 n=60 v=64
195360 Off ch=15 n=64 v=64
195360 On ch=15 n=60 v=18
195360 On ch=15 n=65 v=18
195384 Off ch=15 n=62 v=64
195420 Off ch=15 n=65 v=64
195420 On ch=15 n=62 v=18
195420 On ch=15 n=64 v=18
195444 Off ch=15 n=60 v=64
195480 Off ch=15 n=64 v=64
195480 On ch=15 n=60 v=18
195480 On ch=15 n=65 v=18
195504 Off ch=15 n=62 v=64
195540 Off ch=15 n=65 v=64
195540 On ch=15 n=62 v=18
195540 On ch=15 n=64 v=18
195564 Off ch=15 n=60 v=64
195600 Off ch=15 n=64 v=64
195600 On ch=15 n=60 v=18
195600 On ch=15 n=65 v=18
195624 Off ch=15 n=62 v=64
195660 Off ch=15 n=65 v=64
195660 On ch=15 n=62 v=18
195660 On ch=15 n=64 v=18
195684 Off ch=15 n=60 v=64
195720 Off ch=15 n=64 v=64
195720 On ch=15 n=60 v=18
195720 On ch=15 n=65 v=18
195744 Off ch=15 n=62 v=64
195780 Off ch=15 n=65 v=64
195780 On ch=15 n=62 v=18
195780 On ch=15 n=64 v=18
195804 Off ch=15 n=60 v=64
195840 Off ch=15 n=64 v=64
195840 On ch=15 n=60 v=18
195840 On ch=15 n=65 v=18
195864 Off ch=15 n=62 v=64
195900 Off ch=15 n=65 v=64
195900 On ch=15 n=62 v=18
195900 On ch=15 n=64 v=18
195924 Off ch=15 n=60 v=64
195960 Off ch=15 n=64 v=64
195960 On ch=15 n=60 v=18
195960 On ch=15 n=65 v=18
195984 Off ch=15 n=62 v=64
196020 Off ch=15 n=65 v=64
196020 On ch=15 n=62 v=18
196020 On ch=15 n=64 v=18
196044 Off ch=15 n=60 v=64
196080 Off ch=15 n=64 v=64
196080 On ch=15 n=60 v=18
196080 On ch=15 n=65 v=18
196104 Off ch=15 n=62 v=64
196140 Off ch=15 n=65 v=64
196140 On ch=15 n=62 v=18
196140 On ch=15 n=64 v=18
196164 Off ch=15 n=60 v=64
196200 Off ch=15 n=64 v=64
196200 On ch=15 n=60 v=18
196200 On ch=15 n=65 v=18
196224 Off ch=15 n=62 v=64
196260 Off ch=15 n=65 v=64
196260 On ch=15 n=62 v=18
196260 On ch=15 n=64 v=18
196284 Off ch=15 n=60 v=64
196320 Off ch=15 n=64 v=64
196320 On ch=15 n=60 v=18
196320 On ch=15 n=65 v=18
196344 Off ch=15 n=62 v=64
196380 Off ch=15 n=65 v=64
196380 On ch=15 n=62 v=18
196380 On ch=15 n=64 v=18
196404 Off ch=15 n=60 v=64
196440 Off ch=15 n=64 v=64
196440 On ch=15 n=60 v=18
196440 On ch=15 n=65 v=18
196464 Off ch=15 n=62 v=64
196500 Off ch=15 n=65 v=64
196500 On ch=15 n=62 v=18
196500 On ch=15 n=64 v=18
196524 Off ch=15 n=60 v=64
196560 Off ch=15 n=64 v=64
196560 On ch=15 n=60 v=18
196560 On ch=15 n=65 v=18
196584 Off ch=15 n=62 v=64
196620 Off ch=15 n=65 v=64
196620 On ch=15 n=62 v=18
196620 On ch=15 n=64 v=18
196644 Off ch=15 n=60 v=64
196680 Off ch=15 n=64 v=64
196680 On ch=15 n=60 v=18
196680 On ch=15 n=65 v=18
196704 Off ch=15 n=62 v=64
196740 Off ch=15 n=65 v=64
196740 On ch=15 n=62 v=18
196740 On ch=15 n=64 v=18
196764 Off ch=15 n=60 v=64
196800 Off ch=15 n=64 v=64
196800 On ch=15 n=60 v=18
196800 On ch=15 n=65 v=18
196824 Off ch=15 n=62 v=64
196860 Off ch=15 n=65 v=64
196860 On ch=15 n=62 v=18
196860 On ch=15 n=64 v=18
196884 Off ch=15 n=60 v=64
196920 Off ch=15 n=64 v=64
196920 On ch=15 n=60 v=18
196920 On ch=15 n=65 v=18
196944 Off ch=15 n=62 v=64
196980 Off ch=15 n=65 v=64
196980 On ch=15 n=62 v=18
196980 On ch=15 n=64 v=18
197004 Off ch=15 n=60 v=64
197040 Off ch=15 n=64 v=64
197040 On ch=15 n=60 v=18
197040 On ch=15 n=65 v=18
197064 Off ch=15 n=62 v=64
197100 Off ch=15 n=65 v=64
197100 On ch=15 n=62 v=18
197100 On ch=15 n=64 v=18
197124 Off ch=15 n=60 v=64
197160 Off ch=15 n=64 v=64
197160 On ch=15 n=60 v=18
197160 On ch=15 n=65 v=18
197184 Off ch=15 n=62 v=64
197220 Off ch=15 n=65 v=64
197220 On ch=15 n=62 v=18
197220 On ch=15 n=64 v=18
197244 Off ch=15 n=60 v=64
197280 Off ch=15 n=64 v=64
197304 Off ch=15 n=62 v=64
202848 Par ch=15 c=7 v=62
202956 On ch=15 n=77 v=56
202986 On ch=15 n=78 v=56
203010 On ch=15 n=80 v=56
203022 Off ch=15 n=77 v=64
203040 On ch=15 n=82 v=56
203052 Off ch=15 n=78 v=64
203076 Off ch=15 n=80 v=64
203106 Off ch=15 n=82 v=64
203160 On ch=15 n=80 v=56
203220 Off ch=15 n=80 v=64
203280 On ch=15 n=78 v=56
203340 Off ch=15 n=78 v=64
203400 On ch=15 n=77 v=56
203460 Off ch=15 n=77 v=64
203520 On ch=15 n=75 v=56
203580 Off ch=15 n=75 v=64
203640 On ch=15 n=73 v=56
203700 Off ch=15 n=73 v=64
203760 On ch=15 n=72 v=56
203820 Off ch=15 n=72 v=64
203880 On ch=15 n=70 v=56
203940 Off ch=15 n=70 v=64
204876 On ch=15 n=77 v=56
204876 On ch=15 n=73 v=56
204906 On ch=15 n=78 v=56
204906 On ch=15 n=75 v=56
204930 On ch=15 n=80 v=56
204930 On ch=15 n=77 v=56
204942 Off ch=15 n=77 v=64
204942 Off ch=15 n=73 v=64
204942 Off ch=15 n=77 v=64
204960 On ch=15 n=82 v=56
204960 On ch=15 n=78 v=56
204972 Off ch=15 n=78 v=64
204972 Off ch=15 n=75 v=64
204972 Off ch=15 n=78 v=64
204996 Off ch=15 n=80 v=64
205026 Off ch=15 n=82 v=64
205080 On ch=15 n=80 v=56
205080 On ch=15 n=77 v=56
205140 Off ch=15 n=80 v=64
205140 Off ch=15 n=77 v=64
205200 On ch=15 n=78 v=56
205200 On ch=15 n=75 v=56
205260 Off ch=15 n=78 v=64
205260 Off ch=15 n=75 v=64
205320 On ch=15 n=77 v=56
205320 On ch=15 n=73 v=56
205380 Off ch=15 n=77 v=64
205380 Off ch=15 n=73 v=64
205440 On ch=15 n=75 v=56
205440 On ch=15 n=72 v=56
205500 Off ch=15 n=75 v=64
205500 Off ch=15 n=72 v=64
205560 On ch=15 n=73 v=56
205560 On ch=15 n=70 v=56
205620 Off ch=15 n=73 v=64
205620 Off ch=15 n=70 v=64
205680 On ch=15 n=72 v=56
205680 On ch=15 n=68 v=56
205740 Off ch=15 n=72 v=64
205740 Off ch=15 n=68 v=64
205800 On ch=15 n=70 v=56
205800 On ch=15 n=66 v=56
205860 Off ch=15 n=70 v=64
205860 Off ch=15 n=66 v=64
206796 On ch=15 n=77 v=56
206796 On ch=15 n=73 v=56
206826 On ch=15 n=78 v=56
206826 On ch=15 n=75 v=56
206850 On ch=15 n=80 v=56
206850 On ch=15 n=77 v=56
206862 Off ch=15 n=77 v=64
206862 Off ch=15 n=73 v=64
206862 Off ch=15 n=77 v=64
206880 On ch=15 n=82 v=56
206880 On ch=15 n=78 v=56
206892 Off ch=15 n=78 v=64
206892 Off ch=15 n=75 v=64
206892 Off ch=15 n=78 v=64
206916 Off ch=15 n=80 v=64
206946 Off ch=15 n=82 v=64
207000 On ch=15 n=80 v=56
207000 On ch=15 n=77 v=56
207060 Off ch=15 n=80 v=64
207060 Off ch=15 n=77 v=64
207120 On ch=15 n=78 v=56
207120 On ch=15 n=75 v=56
207180 Off ch=15 n=78 v=64
207180 Off ch=15 n=75 v=64
207240 On ch=15 n=77 v=56
207240 On ch=15 n=73 v=56
207300 Off ch=15 n=77 v=64
207300 Off ch=15 n=73 v=64
207360 On ch=15 n=75 v=56
207360 On ch=15 n=72 v=56
207420 Off ch=15 n=75 v=64
207420 Off ch=15 n=72 v=64
207480 On ch=15 n=73 v=56
207480 On ch=15 n=70 v=56
207540 Off ch=15 n=73 v=64
207540 Off ch=15 n=70 v=64
207600 On ch=15 n=72 v=56
207600 On ch=15 n=68 v=56
207660 Off ch=15 n=72 v=64
207660 Off ch=15 n=68 v=64
207720 On ch=15 n=70 v=56
207720 On ch=15 n=66 v=56
207756 On ch=15 n=77 v=56
207756 On ch=15 n=73 v=56
207780 Off ch=15 n=70 v=64
207780 Off ch=15 n=66 v=64
207786 On ch=15 n=78 v=56
207786 On ch=15 n=75 v=56
207810 On ch=15 n=80 v=56
207810 On ch=15 n=77 v=56
207822 Off ch=15 n=77 v=64
207822 Off ch=15 n=73 v=64
207822 Off ch=15 n=77 v=64
207840 On ch=15 n=82 v=56
207840 On ch=15 n=78 v=56
207852 Off ch=15 n=78 v=64
207852 Off ch=15 n=75 v=64
207852 Off ch=15 n=78 v=64
207876 Off ch=15 n=80 v=64
207906 Off ch=15 n=82 v=64
207960 On ch=15 n=80 v=56
207960 On ch=15 n=77 v=56
208020 Off ch=15 n=80 v=64
208020 Off ch=15 n=77 v=64
208080 On ch=15 n=78 v=56
208080 On ch=15 n=75 v=56
208140 Off ch=15 n=78 v=64
208140 Off ch=15 n=75 v=64
208200 On ch=15 n=77 v=56
208200 On ch=15 n=73 v=56
208260 Off ch=15 n=77 v=64
208260 Off ch=15 n=73 v=64
208320 On ch=15 n=75 v=56
208320 On ch=15 n=72 v=56
208380 Off ch=15 n=75 v=64
208380 Off ch=15 n=72 v=64
208440 On ch=15 n=73 v=56
208440 On ch=15 n=70 v=56
208500 Off ch=15 n=73 v=64
208500 Off ch=15 n=70 v=64
208560 On ch=15 n=72 v=56
208560 On ch=15 n=68 v=56
208620 Off ch=15 n=72 v=64
208620 Off ch=15 n=68 v=64
208680 On ch=15 n=70 v=56
208680 On ch=15 n=66 v=56
208716 On ch=15 n=77 v=56
208716 On ch=15 n=73 v=56
208740 Off ch=15 n=70 v=64
208740 Off ch=15 n=66 v=64
208746 On ch=15 n=78 v=56
208746 On ch=15 n=75 v=56
208770 On ch=15 n=80 v=56
208770 On ch=15 n=77 v=56
208782 Off ch=15 n=77 v=64
208782 Off ch=15 n=73 v=64
208782 Off ch=15 n=77 v=64
208800 On ch=15 n=82 v=56
208800 On ch=15 n=78 v=56
208812 Off ch=15 n=78 v=64
208812 Off ch=15 n=75 v=64
208812 Off ch=15 n=78 v=64
208836 Off ch=15 n=80 v=64
208866 Off ch=15 n=82 v=64
208920 On ch=15 n=80 v=56
208920 On ch=15 n=77 v=56
208980 Off ch=15 n=80 v=64
208980 Off ch=15 n=77 v=64
209040 On ch=15 n=78 v=56
209040 On ch=15 n=75 v=56
209100 Off ch=15 n=78 v=64
209100 Off ch=15 n=75 v=64
209160 On ch=15 n=77 v=56
209160 On ch=15 n=73 v=56
209220 Off ch=15 n=77 v=64
209220 Off ch=15 n=73 v=64
209280 On ch=15 n=75 v=56
209280 On ch=15 n=72 v=56
209340 Off ch=15 n=75 v=64
209340 Off ch=15 n=72 v=64
209400 On ch=15 n=73 v=56
209400 On ch=15 n=70 v=56
209460 Off ch=15 n=73 v=64
209460 Off ch=15 n=70 v=64
209520 On ch=15 n=72 v=56
209520 On ch=15 n=68 v=56
209580 Off ch=15 n=72 v=64
209580 Off ch=15 n=68 v=64
209640 On ch=15 n=70 v=56
209640 On ch=15 n=66 v=56
209676 On ch=15 n=77 v=56
209676 On ch=15 n=73 v=56
209700 Off ch=15 n=70 v=64
209700 Off ch=15 n=66 v=64
209706 On ch=15 n=78 v=56
209706 On ch=15 n=75 v=56
209730 On ch=15 n=80 v=56
209730 On ch=15 n=77 v=56
209742 Off ch=15 n=77 v=64
209742 Off ch=15 n=73 v=64
209742 Off ch=15 n=77 v=64
209760 On ch=15 n=82 v=56
209760 On ch=15 n=78 v=56
209772 Off ch=15 n=78 v=64
209772 Off ch=15 n=75 v=64
209772 Off ch=15 n=78 v=64
209796 Off ch=15 n=80 v=64
209826 Off ch=15 n=82 v=64
209880 On ch=15 n=80 v=56
209880 On ch=15 n=77 v=56
209940 Off ch=15 n=80 v=64
209940 Off ch=15 n=77 v=64
210000 On ch=15 n=78 v=56
210000 On ch=15 n=75 v=56
210060 Off ch=15 n=78 v=64
210060 Off ch=15 n=75 v=64
210120 On ch=15 n=77 v=56
210120 On ch=15 n=73 v=56
210180 Off ch=15 n=77 v=64
210180 Off ch=15 n=73 v=64
210240 On ch=15 n=75 v=56
210240 On ch=15 n=72 v=56
210300 Off ch=15 n=75 v=64
210300 Off ch=15 n=72 v=64
210360 On ch=15 n=73 v=56
210360 On ch=15 n=70 v=56
210420 Off ch=15 n=73 v=64
210420 Off ch=15 n=70 v=64
210480 On ch=15 n=72 v=56
210480 On ch=15 n=68 v=56
210540 Off ch=15 n=72 v=64
210540 Off ch=15 n=68 v=64
210600 On ch=15 n=70 v=56
210600 On ch=15 n=66 v=56
210636 On ch=15 n=77 v=56
210636 On ch=15 n=73 v=56
210660 Off ch=15 n=70 v=64
210660 Off ch=15 n=66 v=64
210666 On ch=15 n=78 v=56
210666 On ch=15 n=75 v=56
210690 On ch=15 n=80 v=56
210690 On ch=15 n=77 v=56
210702 Off ch=15 n=77 v=64
210702 Off ch=15 n=73 v=64
210702 Off ch=15 n=77 v=64
210720 On ch=15 n=82 v=56
210720 On ch=15 n=78 v=56
210732 Off ch=15 n=78 v=64
210732 Off ch=15 n=75 v=64
210732 Off ch=15 n=78 v=64
210756 Off ch=15 n=80 v=64
210786 Off ch=15 n=82 v=64
210840 On ch=15 n=80 v=56
210840 On ch=15 n=77 v=56
210900 Off ch=15 n=80 v=64
210900 Off ch=15 n=77 v=64
210960 On ch=15 n=78 v=56
210960 On ch=15 n=75 v=56
211020 Off ch=15 n=78 v=64
211020 Off ch=15 n=75 v=64
211080 On ch=15 n=77 v=56
211080 On ch=15 n=73 v=56
211140 Off ch=15 n=77 v=64
211140 Off ch=15 n=73 v=64
211200 On ch=15 n=75 v=56
211200 On ch=15 n=72 v=56
211260 Off ch=15 n=75 v=64
211260 Off ch=15 n=72 v=64
211320 On ch=15 n=73 v=56
211320 On ch=15 n=70 v=56
211380 Off ch=15 n=73 v=64
211380 Off ch=15 n=70 v=64
211440 On ch=15 n=72 v=56
211440 On ch=15 n=68 v=56
211500 Off ch=15 n=72 v=64
211500 Off ch=15 n=68 v=64
211560 On ch=15 n=70 v=56
211560 On ch=15 n=66 v=56
211596 On ch=15 n=77 v=56
211596 On ch=15 n=73 v=56
211620 Off ch=15 n=70 v=64
211620 Off ch=15 n=66 v=64
211626 On ch=15 n=78 v=56
211626 On ch=15 n=75 v=56
211650 On ch=15 n=80 v=56
211650 On ch=15 n=77 v=56
211662 Off ch=15 n=77 v=64
211662 Off ch=15 n=73 v=64
211662 Off ch=15 n=77 v=64
211680 On ch=15 n=82 v=56
211680 On ch=15 n=78 v=56
211692 Off ch=15 n=78 v=64
211692 Off ch=15 n=75 v=64
211692 Off ch=15 n=78 v=64
211716 Off ch=15 n=80 v=64
211746 Off ch=15 n=82 v=64
211800 On ch=15 n=80 v=56
211800 On ch=15 n=77 v=56
211860 Off ch=15 n=80 v=64
211860 Off ch=15 n=77 v=64
211920 On ch=15 n=78 v=56
211920 On ch=15 n=75 v=56
211980 Off ch=15 n=78 v=64
211980 Off ch=15 n=75 v=64
212040 On ch=15 n=77 v=56
212040 On ch=15 n=73 v=56
212100 Off ch=15 n=77 v=64
212100 Off ch=15 n=73 v=64
212160 On ch=15 n=75 v=56
212160 On ch=15 n=72 v=56
212220 Off ch=15 n=75 v=64
212220 Off ch=15 n=72 v=64
212280 On ch=15 n=73 v=56
212280 On ch=15 n=70 v=56
212340 Off ch=15 n=73 v=64
212340 Off ch=15 n=70 v=64
212400 On ch=15 n=72 v=56
212400 On ch=15 n=68 v=56
212460 Off ch=15 n=72 v=64
212460 Off ch=15 n=68 v=64
212520 On ch=15 n=70 v=56
212520 On ch=15 n=66 v=56
212556 On ch=15 n=77 v=56
212556 On ch=15 n=73 v=56
212580 Off ch=15 n=70 v=64
212580 Off ch=15 n=66 v=64
212586 On ch=15 n=78 v=56
212586 On ch=15 n=75 v=56
212610 On ch=15 n=80 v=56
212610 On ch=15 n=77 v=56
212622 Off ch=15 n=77 v=64
212622 Off ch=15 n=73 v=64
212622 Off ch=15 n=77 v=64
212640 On ch=15 n=82 v=56
212640 On ch=15 n=78 v=56
212652 Off ch=15 n=78 v=64
212652 Off ch=15 n=75 v=64
212652 Off ch=15 n=78 v=64
212676 Off ch=15 n=80 v=64
212706 Off ch=15 n=82 v=64
212760 On ch=15 n=80 v=56
212760 On ch=15 n=77 v=56
212820 Off ch=15 n=80 v=64
212820 Off ch=15 n=77 v=64
212880 On ch=15 n=78 v=56
212880 On ch=15 n=75 v=56
212940 Off ch=15 n=78 v=64
212940 Off ch=15 n=75 v=64
213000 On ch=15 n=77 v=56
213000 On ch=15 n=73 v=56
213060 Off ch=15 n=77 v=64
213060 Off ch=15 n=73 v=64
213120 On ch=15 n=75 v=56
213120 On ch=15 n=72 v=56
213180 Off ch=15 n=75 v=64
213180 Off ch=15 n=72 v=64
213240 On ch=15 n=73 v=56
213240 On ch=15 n=70 v=56
213300 Off ch=15 n=73 v=64
213300 Off ch=15 n=70 v=64
213360 On ch=15 n=72 v=56
213360 On ch=15 n=68 v=56
213420 Off ch=15 n=72 v=64
213420 Off ch=15 n=68 v=64
213480 On ch=15 n=70 v=56
213480 On ch=15 n=66 v=56
213516 On ch=15 n=77 v=56
213516 On ch=15 n=73 v=56
213540 Off ch=15 n=70 v=64
213540 Off ch=15 n=66 v=64
213546 On ch=15 n=78 v=56
213546 On ch=15 n=75 v=56
213570 On ch=15 n=80 v=56
213570 On ch=15 n=77 v=56
213582 Off ch=15 n=77 v=64
213582 Off ch=15 n=73 v=64
213582 Off ch=15 n=77 v=64
213600 On ch=15 n=82 v=56
213600 On ch=15 n=78 v=56
213612 Off ch=15 n=78 v=64
213612 Off ch=15 n=75 v=64
213612 Off ch=15 n=78 v=64
213636 Off ch=15 n=80 v=64
213666 Off ch=15 n=82 v=64
213720 On ch=15 n=80 v=56
213720 On ch=15 n=77 v=56
213780 Off ch=15 n=80 v=64
213780 Off ch=15 n=77 v=64
213840 On ch=15 n=78 v=56
213840 On ch=15 n=75 v=56
213900 Off ch=15 n=78 v=64
213900 Off ch=15 n=75 v=64
213960 On ch=15 n=77 v=56
213960 On ch=15 n=73 v=56
214020 Off ch=15 n=77 v=64
214020 Off ch=15 n=73 v=64
214080 On ch=15 n=75 v=56
214080 On ch=15 n=72 v=56
214140 Off ch=15 n=75 v=64
214140 Off ch=15 n=72 v=64
214200 On ch=15 n=73 v=56
214200 On ch=15 n=70 v=56
214260 Off ch=15 n=73 v=64
214260 Off ch=15 n=70 v=64
214320 On ch=15 n=72 v=56
214320 On ch=15 n=68 v=56
214380 Off ch=15 n=72 v=64
214380 Off ch=15 n=68 v=64
214440 On ch=15 n=70 v=56
214440 On ch=15 n=66 v=56
214500 Off ch=15 n=70 v=64
214500 Off ch=15 n=66 v=64
214560 On ch=15 n=65 v=50
214560 On ch=15 n=59 v=50
214635 Off ch=15 n=65 v=64
214635 Off ch=15 n=59 v=64
214680 On ch=15 n=65 v=50
214680 On ch=15 n=59 v=50
214680 On ch=15 n=66 v=44
214740 Off ch=15 n=66 v=64
214755 Off ch=15 n=65 v=64
214755 Off ch=15 n=59 v=64
214800 On ch=15 n=68 v=50
214800 On ch=15 n=62 v=50
214800 On ch=15 n=64 v=44
214875 Off ch=15 n=68 v=64
214875 Off ch=15 n=62 v=64
214920 On ch=15 n=68 v=50
214920 On ch=15 n=62 v=50
214920 On ch=15 n=65 v=44
214932 Off ch=15 n=64 v=64
214980 Off ch=15 n=65 v=64
214995 Off ch=15 n=68 v=64
214995 Off ch=15 n=62 v=64
215040 On ch=15 n=67 v=50
215040 On ch=15 n=61 v=50
215040 On ch=15 n=63 v=44
215115 Off ch=15 n=67 v=64
215115 Off ch=15 n=61 v=64
215160 On ch=15 n=67 v=50
215160 On ch=15 n=61 v=50
215160 On ch=15 n=64 v=44
215172 Off ch=15 n=63 v=64
215220 Off ch=15 n=64 v=64
215235 Off ch=15 n=67 v=64
215235 Off ch=15 n=61 v=64
215280 On ch=15 n=70 v=50
215280 On ch=15 n=64 v=50
215280 On ch=15 n=62 v=44
215355 Off ch=15 n=70 v=64
215355 Off ch=15 n=64 v=64
215400 On ch=15 n=70 v=50
215400 On ch=15 n=64 v=50
215400 On ch=15 n=63 v=44
215412 Off ch=15 n=62 v=64
215460 Off ch=15 n=63 v=64
215475 Off ch=15 n=70 v=64
215475 Off ch=15 n=64 v=64
215520 On ch=15 n=65 v=50
215520 On ch=15 n=59 v=50
215520 On ch=15 n=64 v=44
215595 Off ch=15 n=65 v=64
215595 Off ch=15 n=59 v=64
215640 On ch=15 n=65 v=50
215640 On ch=15 n=59 v=50
215640 On ch=15 n=65 v=44
215652 Off ch=15 n=64 v=64
215700 Off ch=15 n=65 v=64
215700 Off ch=15 n=65 v=64
215715 Off ch=15 n=59 v=64
215760 On ch=15 n=68 v=50
215760 On ch=15 n=62 v=50
215760 On ch=15 n=63 v=44
215835 Off ch=15 n=68 v=64
215835 Off ch=15 n=62 v=64
215880 On ch=15 n=68 v=50
215880 On ch=15 n=62 v=50
215880 On ch=15 n=64 v=44
215892 Off ch=15 n=63 v=64
215940 Off ch=15 n=64 v=64
215955 Off ch=15 n=68 v=64
215955 Off ch=15 n=62 v=64
216000 On ch=15 n=67 v=50
216000 On ch=15 n=61 v=50
216000 On ch=15 n=62 v=44
216075 Off ch=15 n=67 v=64
216075 Off ch=15 n=61 v=64
216120 Off ch=15 n=62 v=64
216120 On ch=15 n=67 v=50
216120 On ch=15 n=61 v=50
216120 On ch=15 n=63 v=44
216180 Off ch=15 n=63 v=64
216195 Off ch=15 n=67 v=64
216195 Off ch=15 n=61 v=64
216240 On ch=15 n=70 v=50
216240 On ch=15 n=64 v=50
216240 On ch=15 n=61 v=44
216315 Off ch=15 n=70 v=64
216315 Off ch=15 n=64 v=64
216360 Off ch=15 n=61 v=64
216360 On ch=15 n=70 v=50
216360 On ch=15 n=64 v=50
216360 On ch=15 n=62 v=44
216420 Off ch=15 n=62 v=64
216435 Off ch=15 n=70 v=64
216435 Off ch=15 n=64 v=64
216480 On ch=15 n=65 v=50
216480 On ch=15 n=59 v=50
216480 On ch=15 n=63 v=44
216555 Off ch=15 n=65 v=64
216555 Off ch=15 n=59 v=64
216600 Off ch=15 n=63 v=64
216600 On ch=15 n=65 v=50
216600 On ch=15 n=59 v=50
216600 On ch=15 n=64 v=44
216660 Off ch=15 n=64 v=64
216675 Off ch=15 n=65 v=64
216675 Off ch=15 n=59 v=64
216720 On ch=15 n=68 v=51
216720 On ch=15 n=62 v=51
216720 On ch=15 n=62 v=44
216795 Off ch=15 n=68 v=64
216795 Off ch=15 n=62 v=64
216795 Off ch=15 n=62 v=64
216840 On ch=15 n=68 v=52
216840 On ch=15 n=62 v=52
216840 On ch=15 n=63 v=44
216900 Off ch=15 n=63 v=64
216915 Off ch=15 n=68 v=64
216915 Off ch=15 n=62 v=64
216960 On ch=15 n=67 v=53
216960 On ch=15 n=61 v=53
216960 On ch=15 n=61 v=44
217035 Off ch=15 n=67 v=64
217035 Off ch=15 n=61 v=64
217035 Off ch=15 n=61 v=64
217080 On ch=15 n=67 v=54
217080 On ch=15 n=61 v=54
217080 On ch=15 n=62 v=44
217140 Off ch=15 n=62 v=64
217155 Off ch=15 n=67 v=64
217155 Off ch=15 n=61 v=64
217200 On ch=15 n=70 v=55
217200 On ch=15 n=64 v=55
217200 On ch=15 n=60 v=44
217275 Off ch=15 n=70 v=64
217275 Off ch=15 n=64 v=64
217320 Off ch=15 n=60 v=64
217320 On ch=15 n=70 v=56
217320 On ch=15 n=64 v=56
217320 On ch=15 n=61 v=44
217380 Off ch=15 n=61 v=64
217395 Off ch=15 n=70 v=64
217395 Off ch=15 n=64 v=64
217440 On ch=15 n=69 v=56
217440 On ch=15 n=63 v=56
217440 On ch=15 n=67 v=56
217515 Off ch=15 n=69 v=64
217515 Off ch=15 n=63 v=64
217548 Off ch=15 n=67 v=64
217560 On ch=15 n=69 v=57
217560 On ch=15 n=63 v=57
217560 On ch=15 n=68 v=54
217620 Off ch=15 n=68 v=64
217635 Off ch=15 n=69 v=64
217635 Off ch=15 n=63 v=64
217680 On ch=15 n=72 v=58
217680 On ch=15 n=66 v=58
217680 On ch=15 n=66 v=53
217755 Off ch=15 n=72 v=64
217755 Off ch=15 n=66 v=64
217755 Off ch=15 n=66 v=64
217800 On ch=15 n=72 v=59
217800 On ch=15 n=66 v=59
217800 On ch=15 n=67 v=51
217860 Off ch=15 n=67 v=64
217875 Off ch=15 n=72 v=64
217875 Off ch=15 n=66 v=64
217920 On ch=15 n=71 v=60
217920 On ch=15 n=65 v=60
217920 On ch=15 n=65 v=50
217995 Off ch=15 n=71 v=64
217995 Off ch=15 n=65 v=64
217995 Off ch=15 n=65 v=64
218040 On ch=15 n=71 v=61
218040 On ch=15 n=65 v=61
218040 On ch=15 n=66 v=48
218100 Off ch=15 n=66 v=64
218115 Off ch=15 n=71 v=64
218115 Off ch=15 n=65 v=64
218160 On ch=15 n=74 v=62
218160 On ch=15 n=68 v=62
218160 On ch=15 n=64 v=47
218235 Off ch=15 n=74 v=64
218235 Off ch=15 n=68 v=64
218268 Off ch=15 n=64 v=64
218280 On ch=15 n=74 v=63
218280 On ch=15 n=68 v=63
218280 On ch=15 n=65 v=45
218340 Off ch=15 n=65 v=64
218355 Off ch=15 n=74 v=64
218355 Off ch=15 n=68 v=64
218400 On ch=15 n=65 v=50
218400 On ch=15 n=59 v=50
218400 On ch=15 n=63 v=44
218475 Off ch=15 n=65 v=64
218475 Off ch=15 n=59 v=64
218520 Off ch=15 n=63 v=64
218520 On ch=15 n=65 v=50
218520 On ch=15 n=59 v=50
218520 On ch=15 n=64 v=44
218580 Off ch=15 n=64 v=64
218595 Off ch=15 n=65 v=64
218595 Off ch=15 n=59 v=64
218640 On ch=15 n=68 v=51
218640 On ch=15 n=62 v=51
218640 On ch=15 n=62 v=44
218715 Off ch=15 n=68 v=64
218715 Off ch=15 n=62 v=64
218715 Off ch=15 n=62 v=64
218760 On ch=15 n=68 v=52
218760 On ch=15 n=62 v=52
218760 On ch=15 n=63 v=44
218820 Off ch=15 n=63 v=64
218835 Off ch=15 n=68 v=64
218835 Off ch=15 n=62 v=64
218880 On ch=15 n=67 v=53
218880 On ch=15 n=61 v=53
218880 On ch=15 n=61 v=44
218955 Off ch=15 n=67 v=64
218955 Off ch=15 n=61 v=64
218955 Off ch=15 n=61 v=64
219000 On ch=15 n=67 v=54
219000 On ch=15 n=61 v=54
219000 On ch=15 n=62 v=44
219060 Off ch=15 n=62 v=64
219075 Off ch=15 n=67 v=64
219075 Off ch=15 n=61 v=64
219120 On ch=15 n=70 v=55
219120 On ch=15 n=64 v=55
219120 On ch=15 n=60 v=44
219195 Off ch=15 n=70 v=64
219195 Off ch=15 n=64 v=64
219228 Off ch=15 n=60 v=64
219240 On ch=15 n=70 v=56
219240 On ch=15 n=64 v=56
219240 On ch=15 n=61 v=44
219300 Off ch=15 n=61 v=64
219315 Off ch=15 n=70 v=64
219315 Off ch=15 n=64 v=64
219360 On ch=15 n=69 v=56
219360 On ch=15 n=63 v=56
219360 On ch=15 n=69 v=62
219435 Off ch=15 n=69 v=64
219435 Off ch=15 n=63 v=64
219435 Off ch=15 n=69 v=64
219480 On ch=15 n=69 v=57
219480 On ch=15 n=63 v=57
219480 On ch=15 n=70 v=59
219484 Off ch=15 n=69 v=64
219540 Off ch=15 n=70 v=64
219555 Off ch=15 n=63 v=64
219600 On ch=15 n=72 v=58
219600 On ch=15 n=66 v=58
219600 On ch=15 n=68 v=57
219675 Off ch=15 n=72 v=64
219675 Off ch=15 n=66 v=64
219720 On ch=15 n=72 v=59
219720 On ch=15 n=66 v=59
219720 On ch=15 n=69 v=55
219724 Off ch=15 n=68 v=64
219780 Off ch=15 n=69 v=64
219795 Off ch=15 n=72 v=64
219795 Off ch=15 n=66 v=64
219840 On ch=15 n=71 v=60
219840 On ch=15 n=65 v=60
219840 On ch=15 n=67 v=53
219915 Off ch=15 n=71 v=64
219915 Off ch=15 n=65 v=64
219960 On ch=15 n=71 v=61
219960 On ch=15 n=65 v=61
219960 On ch=15 n=68 v=50
219980 Off ch=15 n=67 v=64
220020 Off ch=15 n=68 v=64
220035 Off ch=15 n=71 v=64
220035 Off ch=15 n=65 v=64
220080 On ch=15 n=74 v=62
220080 On ch=15 n=68 v=62
220080 On ch=15 n=66 v=48
220155 Off ch=15 n=74 v=64
220155 Off ch=15 n=68 v=64
220200 On ch=15 n=74 v=63
220200 On ch=15 n=68 v=63
220200 On ch=15 n=67 v=46
220220 Off ch=15 n=66 v=64
220260 Off ch=15 n=67 v=64
220275 Off ch=15 n=74 v=64
220275 Off ch=15 n=68 v=64
220320 On ch=15 n=69 v=54
220320 On ch=15 n=63 v=54
220320 On ch=15 n=67 v=66
220395 Off ch=15 n=69 v=64
220395 Off ch=15 n=63 v=64
220428 Off ch=15 n=67 v=64
220440 On ch=15 n=69 v=54
220440 On ch=15 n=63 v=54
220440 On ch=15 n=68 v=63
220500 Off ch=15 n=68 v=64
220515 Off ch=15 n=69 v=64
220515 Off ch=15 n=63 v=64
220560 On ch=15 n=72 v=55
220560 On ch=15 n=66 v=55
220560 On ch=15 n=66 v=60
220635 Off ch=15 n=72 v=64
220635 Off ch=15 n=66 v=64
220635 Off ch=15 n=66 v=64
220680 On ch=15 n=72 v=56
220680 On ch=15 n=66 v=56
220680 On ch=15 n=67 v=57
220740 Off ch=15 n=67 v=64
220755 Off ch=15 n=72 v=64
220755 Off ch=15 n=66 v=64
220800 On ch=15 n=71 v=57
220800 On ch=15 n=65 v=57
220800 On ch=15 n=65 v=55
220875 Off ch=15 n=71 v=64
220875 Off ch=15 n=65 v=64
220875 Off ch=15 n=65 v=64
220920 On ch=15 n=71 v=58
220920 On ch=15 n=65 v=58
220920 On ch=15 n=66 v=52
220980 Off ch=15 n=66 v=64
220995 Off ch=15 n=71 v=64
220995 Off ch=15 n=65 v=64
221040 On ch=15 n=74 v=59
221040 On ch=15 n=68 v=59
221040 On ch=15 n=64 v=49
221115 Off ch=15 n=74 v=64
221115 Off ch=15 n=68 v=64
221148 Off ch=15 n=64 v=64
221160 On ch=15 n=74 v=60
221160 On ch=15 n=68 v=60
221160 On ch=15 n=65 v=46
221220 Off ch=15 n=65 v=64
221235 Off ch=15 n=74 v=64
221235 Off ch=15 n=68 v=64
221280 On ch=15 n=69 v=60
221280 On ch=15 n=63 v=60
221280 On ch=15 n=65 v=60
221355 Off ch=15 n=69 v=64
221355 Off ch=15 n=63 v=64
221400 On ch=15 n=69 v=61
221400 On ch=15 n=63 v=61
221400 On ch=15 n=66 v=58
221404 Off ch=15 n=65 v=64
221460 Off ch=15 n=66 v=64
221475 Off ch=15 n=69 v=64
221475 Off ch=15 n=63 v=64
221520 On ch=15 n=72 v=62
221520 On ch=15 n=66 v=62
221520 On ch=15 n=64 v=56
221595 Off ch=15 n=72 v=64
221595 Off ch=15 n=66 v=64
221640 On ch=15 n=72 v=63
221640 On ch=15 n=66 v=63
221640 On ch=15 n=65 v=54
221644 Off ch=15 n=64 v=64
221700 Off ch=15 n=65 v=64
221715 Off ch=15 n=72 v=64
221715 Off ch=15 n=66 v=64
221760 On ch=15 n=71 v=64
221760 On ch=15 n=65 v=64
221760 On ch=15 n=63 v=52
221835 Off ch=15 n=71 v=64
221835 Off ch=15 n=65 v=64
221868 Off ch=15 n=63 v=64
221880 On ch=15 n=71 v=65
221880 On ch=15 n=65 v=65
221880 On ch=15 n=64 v=50
221940 Off ch=15 n=64 v=64
221955 Off ch=15 n=71 v=64
221955 Off ch=15 n=65 v=64
222000 On ch=15 n=74 v=66
222000 On ch=15 n=68 v=66
222000 On ch=15 n=62 v=48
222075 Off ch=15 n=74 v=64
222075 Off ch=15 n=68 v=64
222108 Off ch=15 n=62 v=64
222120 On ch=15 n=74 v=67
222120 On ch=15 n=68 v=67
222120 On ch=15 n=63 v=46
222180 Off ch=15 n=63 v=64
222195 Off ch=15 n=74 v=64
222195 Off ch=15 n=68 v=64
268080 On ch=15 n=56 v=62
268200 Off ch=15 n=56 v=64
268200 On ch=15 n=58 v=64
268320 Off ch=15 n=58 v=64
268320 On ch=15 n=60 v=66
268440 Off ch=15 n=60 v=64
268440 On ch=15 n=61 v=68
268560 Off ch=15 n=61 v=64
268560 On ch=15 n=63 v=70
268680 Off ch=15 n=63 v=64
268680 On ch=15 n=64 v=72
268800 Off ch=15 n=64 v=64
268800 On ch=15 n=63 v=74
268920 Off ch=15 n=63 v=64
268920 On ch=15 n=65 v=76
269040 Off ch=15 n=65 v=64
269040 On ch=15 n=66 v=78
269160 Off ch=15 n=66 v=64
269160 On ch=15 n=68 v=80
269280 Off ch=15 n=68 v=64
269280 On ch=15 n=70 v=83
269400 Off ch=15 n=70 v=64
269400 On ch=15 n=71 v=85
269520 Off ch=15 n=71 v=64
272400 Par ch=15 c=0 v=0
272400 Par ch=15 c=32 v=1
272400 PrCh ch=15 p=56
274560 On ch=15 n=75 v=89
274560 On ch=15 n=73 v=88
274560 On ch=15 n=70 v=86
274560 On ch=15 n=67 v=82
274740 Off ch=15 n=75 v=64
274740 Off ch=15 n=73 v=64
274740 Off ch=15 n=70 v=64
274740 Off ch=15 n=67 v=64
274740 On ch=15 n=75 v=86
274740 On ch=15 n=73 v=85
274740 On ch=15 n=70 v=83
274740 On ch=15 n=67 v=79
274920 Off ch=15 n=75 v=64
274920 Off ch=15 n=73 v=64
274920 Off ch=15 n=70 v=64
274920 Off ch=15 n=67 v=64
274920 On ch=15 n=75 v=83
274920 On ch=15 n=73 v=82
274920 On ch=15 n=70 v=80
274920 On ch=15 n=67 v=77
275100 Off ch=15 n=75 v=64
275100 Off ch=15 n=73 v=64
275100 Off ch=15 n=70 v=64
275100 Off ch=15 n=67 v=64
275100 On ch=15 n=75 v=80
275100 On ch=15 n=73 v=79
275100 On ch=15 n=70 v=77
275100 On ch=15 n=67 v=75
275280 Off ch=15 n=75 v=64
275280 Off ch=15 n=73 v=64
275280 Off ch=15 n=70 v=64
275280 Off ch=15 n=67 v=64
275280 On ch=15 n=75 v=77
275280 On ch=15 n=73 v=76
275280 On ch=15 n=70 v=75
275280 On ch=15 n=67 v=73
275460 Off ch=15 n=75 v=64
275460 Off ch=15 n=73 v=64
275460 Off ch=15 n=70 v=64
275460 Off ch=15 n=67 v=64
275460 On ch=15 n=75 v=74
275460 On ch=15 n=73 v=73
275460 On ch=15 n=70 v=72
275460 On ch=15 n=67 v=70
275640 Off ch=15 n=75 v=64
275640 Off ch=15 n=73 v=64
275640 Off ch=15 n=70 v=64
275640 Off ch=15 n=67 v=64
275640 On ch=15 n=75 v=71
275640 On ch=15 n=73 v=70
275640 On ch=15 n=70 v=69
275640 On ch=15 n=67 v=68
275820 Off ch=15 n=75 v=64
275820 Off ch=15 n=73 v=64
275820 Off ch=15 n=70 v=64
275820 Off ch=15 n=67 v=64
275820 On ch=15 n=75 v=68
275820 On ch=15 n=73 v=67
275820 On ch=15 n=70 v=66
275820 On ch=15 n=67 v=66
276000 Off ch=15 n=75 v=64
276000 Off ch=15 n=73 v=64
276000 Off ch=15 n=70 v=64
276000 Off ch=15 n=67 v=64
276000 On ch=15 n=75 v=86
276000 On ch=15 n=73 v=88
276000 On ch=15 n=70 v=84
276000 On ch=15 n=67 v=86
276180 Off ch=15 n=75 v=64
276180 Off ch=15 n=73 v=64
276180 Off ch=15 n=70 v=64
276180 Off ch=15 n=67 v=64
276180 On ch=15 n=75 v=80
276180 On ch=15 n=73 v=82
276180 On ch=15 n=70 v=79
276180 On ch=15 n=67 v=81
276360 Off ch=15 n=75 v=64
276360 Off ch=15 n=73 v=64
276360 Off ch=15 n=70 v=64
276360 Off ch=15 n=67 v=64
276360 On ch=15 n=75 v=75
276360 On ch=15 n=73 v=76
276360 On ch=15 n=70 v=74
276360 On ch=15 n=67 v=76
276540 Off ch=15 n=75 v=64
276540 Off ch=15 n=73 v=64
276540 Off ch=15 n=70 v=64
276540 Off ch=15 n=67 v=64
276540 On ch=15 n=75 v=69
276540 On ch=15 n=73 v=70
276540 On ch=15 n=70 v=69
276540 On ch=15 n=67 v=71
276720 Off ch=15 n=75 v=64
276720 Off ch=15 n=73 v=64
276720 Off ch=15 n=70 v=64
276720 Off ch=15 n=67 v=64
276720 On ch=15 n=75 v=92
276720 On ch=15 n=73 v=92
276720 On ch=15 n=70 v=84
276720 On ch=15 n=67 v=82
276900 Off ch=15 n=75 v=64
276900 Off ch=15 n=73 v=64
276900 Off ch=15 n=70 v=64
276900 Off ch=15 n=67 v=64
276900 On ch=15 n=75 v=88
276900 On ch=15 n=73 v=85
276900 On ch=15 n=70 v=81
276900 On ch=15 n=67 v=79
277080 Off ch=15 n=75 v=64
277080 Off ch=15 n=73 v=64
277080 Off ch=15 n=70 v=64
277080 Off ch=15 n=67 v=64
277080 On ch=15 n=75 v=85
277080 On ch=15 n=73 v=78
277080 On ch=15 n=70 v=79
277080 On ch=15 n=67 v=77
277260 Off ch=15 n=75 v=64
277260 Off ch=15 n=73 v=64
277260 Off ch=15 n=70 v=64
277260 Off ch=15 n=67 v=64
277260 On ch=15 n=75 v=82
277260 On ch=15 n=73 v=71
277260 On ch=15 n=70 v=77
277260 On ch=15 n=67 v=75
277440 Off ch=15 n=75 v=64
277440 Off ch=15 n=73 v=64
277440 Off ch=15 n=70 v=64
277440 Off ch=15 n=67 v=64
277440 On ch=15 n=73 v=92
277440 On ch=15 n=75 v=79
277440 On ch=15 n=70 v=75
277440 On ch=15 n=67 v=73
277620 Off ch=15 n=73 v=64
277620 Off ch=15 n=75 v=64
277620 Off ch=15 n=70 v=64
277620 Off ch=15 n=67 v=64
277620 On ch=15 n=73 v=88
277620 On ch=15 n=75 v=75
277620 On ch=15 n=70 v=72
277620 On ch=15 n=67 v=70
277800 Off ch=15 n=73 v=64
277800 Off ch=15 n=75 v=64
277800 Off ch=15 n=70 v=64
277800 Off ch=15 n=67 v=64
277800 On ch=15 n=73 v=85
277800 On ch=15 n=75 v=72
277800 On ch=15 n=70 v=70
277800 On ch=15 n=67 v=68
277980 Off ch=15 n=73 v=64
277980 Off ch=15 n=75 v=64
277980 Off ch=15 n=70 v=64
277980 Off ch=15 n=67 v=64
277980 On ch=15 n=73 v=81
277980 On ch=15 n=75 v=69
277980 On ch=15 n=70 v=68
277980 On ch=15 n=67 v=66
278160 Off ch=15 n=73 v=64
278160 Off ch=15 n=75 v=64
278160 Off ch=15 n=70 v=64
278160 Off ch=15 n=67 v=64
278160 On ch=15 n=73 v=78
278160 On ch=15 n=75 v=88
278160 On ch=15 n=70 v=86
278160 On ch=15 n=67 v=86
278340 Off ch=15 n=73 v=64
278340 Off ch=15 n=75 v=64
278340 Off ch=15 n=70 v=64
278340 Off ch=15 n=67 v=64
278340 On ch=15 n=73 v=75
278340 On ch=15 n=75 v=82
278340 On ch=15 n=70 v=81
278340 On ch=15 n=67 v=80
278520 Off ch=15 n=73 v=64
278520 Off ch=15 n=75 v=64
278520 Off ch=15 n=70 v=64
278520 Off ch=15 n=67 v=64
278520 On ch=15 n=73 v=71
278520 On ch=15 n=75 v=76
278520 On ch=15 n=70 v=76
278520 On ch=15 n=67 v=75
278700 Off ch=15 n=73 v=64
278700 Off ch=15 n=75 v=64
278700 Off ch=15 n=70 v=64
278700 Off ch=15 n=67 v=64
278700 On ch=15 n=73 v=68
278700 On ch=15 n=75 v=70
278700 On ch=15 n=70 v=71
278700 On ch=15 n=67 v=69
278880 Off ch=15 n=73 v=64
278880 Off ch=15 n=75 v=64
278880 Off ch=15 n=70 v=64
278880 Off ch=15 n=67 v=64
278880 On ch=15 n=75 v=90
278880 On ch=15 n=73 v=88
278880 On ch=15 n=70 v=80
278880 On ch=15 n=67 v=80
279060 Off ch=15 n=75 v=64
279060 Off ch=15 n=73 v=64
279060 Off ch=15 n=70 v=64
279060 Off ch=15 n=67 v=64
279060 On ch=15 n=75 v=86
279060 On ch=15 n=73 v=85
279060 On ch=15 n=70 v=77
279060 On ch=15 n=67 v=78
279240 Off ch=15 n=75 v=64
279240 Off ch=15 n=73 v=64
279240 Off ch=15 n=70 v=64
279240 Off ch=15 n=67 v=64
279240 On ch=15 n=75 v=83
279240 On ch=15 n=73 v=82
279240 On ch=15 n=70 v=75
279240 On ch=15 n=67 v=76
279420 Off ch=15 n=75 v=64
279420 Off ch=15 n=73 v=64
279420 Off ch=15 n=70 v=64
279420 Off ch=15 n=67 v=64
279420 On ch=15 n=75 v=80
279420 On ch=15 n=73 v=79
279420 On ch=15 n=70 v=73
279420 On ch=15 n=67 v=74
279600 Off ch=15 n=75 v=64
279600 Off ch=15 n=73 v=64
279600 Off ch=15 n=70 v=64
279600 Off ch=15 n=67 v=64
279600 On ch=15 n=75 v=77
279600 On ch=15 n=73 v=76
279600 On ch=15 n=70 v=71
279600 On ch=15 n=67 v=72
279780 Off ch=15 n=75 v=64
279780 Off ch=15 n=73 v=64
279780 Off ch=15 n=70 v=64
279780 Off ch=15 n=67 v=64
279780 On ch=15 n=75 v=73
279780 On ch=15 n=73 v=73
279780 On ch=15 n=70 v=68
279780 On ch=15 n=67 v=70
279960 Off ch=15 n=75 v=64
279960 Off ch=15 n=73 v=64
279960 Off ch=15 n=70 v=64
279960 Off ch=15 n=67 v=64
279960 On ch=15 n=75 v=70
279960 On ch=15 n=73 v=70
279960 On ch=15 n=70 v=66
279960 On ch=15 n=67 v=68
280140 Off ch=15 n=75 v=64
280140 Off ch=15 n=73 v=64
280140 Off ch=15 n=70 v=64
280140 Off ch=15 n=67 v=64
280140 On ch=15 n=75 v=67
280140 On ch=15 n=73 v=67
280140 On ch=15 n=70 v=64
280140 On ch=15 n=67 v=66
280320 Off ch=15 n=75 v=64
280320 Off ch=15 n=73 v=64
280320 Off ch=15 n=70 v=64
280320 Off ch=15 n=67 v=64
280320 On ch=15 n=70 v=87
280320 On ch=15 n=75 v=92
280320 On ch=15 n=73 v=88
280320 On ch=15 n=67 v=82
280500 Off ch=15 n=70 v=64
280500 Off ch=15 n=75 v=64
280500 Off ch=15 n=73 v=64
280500 Off ch=15 n=67 v=64
280500 On ch=15 n=70 v=84
280500 On ch=15 n=75 v=85
280500 On ch=15 n=73 v=82
280500 On ch=15 n=67 v=77
280680 Off ch=15 n=70 v=64
280680 Off ch=15 n=75 v=64
280680 Off ch=15 n=73 v=64
280680 Off ch=15 n=67 v=64
280680 On ch=15 n=70 v=82
280680 On ch=15 n=75 v=79
280680 On ch=15 n=73 v=76
280680 On ch=15 n=67 v=72
280860 Off ch=15 n=70 v=64
280860 Off ch=15 n=75 v=64
280860 Off ch=15 n=73 v=64
280860 Off ch=15 n=67 v=64
280860 On ch=15 n=70 v=79
280860 On ch=15 n=75 v=72
280860 On ch=15 n=73 v=70
280860 On ch=15 n=67 v=67
281040 Off ch=15 n=70 v=64
281040 Off ch=15 n=75 v=64
281040 Off ch=15 n=73 v=64
281040 Off ch=15 n=67 v=64
281040 On ch=15 n=70 v=77
281040 On ch=15 n=75 v=92
281040 On ch=15 n=73 v=88
281040 On ch=15 n=67 v=82
281220 Off ch=15 n=70 v=64
281220 Off ch=15 n=75 v=64
281220 Off ch=15 n=73 v=64
281220 Off ch=15 n=67 v=64
281220 On ch=15 n=70 v=74
281220 On ch=15 n=75 v=88
281220 On ch=15 n=73 v=85
281220 On ch=15 n=67 v=80
281400 Off ch=15 n=70 v=64
281400 Off ch=15 n=75 v=64
281400 Off ch=15 n=73 v=64
281400 Off ch=15 n=67 v=64
281400 On ch=15 n=70 v=71
281400 On ch=15 n=75 v=85
281400 On ch=15 n=73 v=82
281400 On ch=15 n=67 v=78
281580 Off ch=15 n=70 v=64
281580 Off ch=15 n=75 v=64
281580 Off ch=15 n=73 v=64
281580 Off ch=15 n=67 v=64
281580 On ch=15 n=70 v=69
281580 On ch=15 n=75 v=81
281580 On ch=15 n=73 v=79
281580 On ch=15 n=67 v=76
281760 Off ch=15 n=70 v=64
281760 Off ch=15 n=75 v=64
281760 Off ch=15 n=73 v=64
281760 Off ch=15 n=67 v=64
281760 On ch=15 n=75 v=78
281760 On ch=15 n=73 v=76
281760 On ch=15 n=70 v=82
281760 On ch=15 n=67 v=74
281940 Off ch=15 n=75 v=64
281940 Off ch=15 n=73 v=64
281940 Off ch=15 n=70 v=64
281940 Off ch=15 n=67 v=64
281940 On ch=15 n=75 v=74
281940 On ch=15 n=73 v=73
281940 On ch=15 n=70 v=79
281940 On ch=15 n=67 v=72
282120 Off ch=15 n=75 v=64
282120 Off ch=15 n=73 v=64
282120 Off ch=15 n=70 v=64
282120 Off ch=15 n=67 v=64
282120 On ch=15 n=75 v=71
282120 On ch=15 n=73 v=70
282120 On ch=15 n=70 v=77
282120 On ch=15 n=67 v=70
282300 Off ch=15 n=75 v=64
282300 Off ch=15 n=73 v=64
282300 Off ch=15 n=70 v=64
282300 Off ch=15 n=67 v=64
282300 On ch=15 n=75 v=67
282300 On ch=15 n=73 v=67
282300 On ch=15 n=70 v=74
282300 On ch=15 n=67 v=68
282480 Off ch=15 n=75 v=64
282480 Off ch=15 n=73 v=64
282480 Off ch=15 n=70 v=64
282480 Off ch=15 n=67 v=64
282480 On ch=15 n=75 v=92
282480 On ch=15 n=73 v=86
282480 On ch=15 n=70 v=72
282480 On ch=15 n=67 v=84
282660 Off ch=15 n=75 v=64
282660 Off ch=15 n=73 v=64
282660 Off ch=15 n=70 v=64
282660 Off ch=15 n=67 v=64
282660 On ch=15 n=75 v=85
282660 On ch=15 n=73 v=81
282660 On ch=15 n=70 v=69
282660 On ch=15 n=67 v=79
282840 Off ch=15 n=75 v=64
282840 Off ch=15 n=73 v=64
282840 Off ch=15 n=70 v=64
282840 Off ch=15 n=67 v=64
282840 On ch=15 n=75 v=78
282840 On ch=15 n=73 v=76
282840 On ch=15 n=70 v=67
282840 On ch=15 n=67 v=74
283020 Off ch=15 n=75 v=64
283020 Off ch=15 n=73 v=64
283020 Off ch=15 n=70 v=64
283020 Off ch=15 n=67 v=64
283020 On ch=15 n=75 v=71
283020 On ch=15 n=73 v=71
283020 On ch=15 n=70 v=64
283020 On ch=15 n=67 v=69
283200 Off ch=15 n=75 v=64
283200 Off ch=15 n=73 v=64
283200 Off ch=15 n=70 v=64
283200 Off ch=15 n=67 v=64
283200 On ch=15 n=67 v=87
283200 On ch=15 n=75 v=92
283200 On ch=15 n=73 v=90
283200 On ch=15 n=70 v=82
283380 Off ch=15 n=67 v=64
283380 Off ch=15 n=75 v=64
283380 Off ch=15 n=73 v=64
283380 Off ch=15 n=70 v=64
283380 On ch=15 n=67 v=84
283380 On ch=15 n=75 v=88
283380 On ch=15 n=73 v=86
283380 On ch=15 n=70 v=79
283560 Off ch=15 n=67 v=64
283560 Off ch=15 n=75 v=64
283560 Off ch=15 n=73 v=64
283560 Off ch=15 n=70 v=64
283560 On ch=15 n=67 v=82
283560 On ch=15 n=75 v=85
283560 On ch=15 n=73 v=83
283560 On ch=15 n=70 v=77
283740 Off ch=15 n=67 v=64
283740 Off ch=15 n=75 v=64
283740 Off ch=15 n=73 v=64
283740 Off ch=15 n=70 v=64
283740 On ch=15 n=67 v=79
283740 On ch=15 n=75 v=82
283740 On ch=15 n=73 v=80
283740 On ch=15 n=70 v=75
283920 Off ch=15 n=67 v=64
283920 Off ch=15 n=75 v=64
283920 Off ch=15 n=73 v=64
283920 Off ch=15 n=70 v=64
283920 On ch=15 n=67 v=76
283920 On ch=15 n=75 v=79
283920 On ch=15 n=73 v=77
283920 On ch=15 n=70 v=73
284100 Off ch=15 n=67 v=64
284100 Off ch=15 n=75 v=64
284100 Off ch=15 n=73 v=64
284100 Off ch=15 n=70 v=64
284100 On ch=15 n=67 v=73
284100 On ch=15 n=75 v=75
284100 On ch=15 n=73 v=73
284100 On ch=15 n=70 v=70
284280 Off ch=15 n=67 v=64
284280 Off ch=15 n=75 v=64
284280 Off ch=15 n=73 v=64
284280 Off ch=15 n=70 v=64
284280 On ch=15 n=67 v=70
284280 On ch=15 n=75 v=72
284280 On ch=15 n=73 v=70
284280 On ch=15 n=70 v=68
284460 Off ch=15 n=67 v=64
284460 Off ch=15 n=75 v=64
284460 Off ch=15 n=73 v=64
284460 Off ch=15 n=70 v=64
284460 On ch=15 n=67 v=67
284460 On ch=15 n=75 v=69
284460 On ch=15 n=73 v=67
284460 On ch=15 n=70 v=66
284640 Off ch=15 n=67 v=64
284640 Off ch=15 n=75 v=64
284640 Off ch=15 n=73 v=64
284640 Off ch=15 n=70 v=64
284640 On ch=15 n=75 v=92
284640 On ch=15 n=73 v=92
284640 On ch=15 n=70 v=80
284640 On ch=15 n=67 v=82
284820 Off ch=15 n=75 v=64
284820 Off ch=15 n=73 v=64
284820 Off ch=15 n=70 v=64
284820 Off ch=15 n=67 v=64
284820 On ch=15 n=75 v=86
284820 On ch=15 n=73 v=85
284820 On ch=15 n=70 v=76
284820 On ch=15 n=67 v=78
285000 Off ch=15 n=75 v=64
285000 Off ch=15 n=73 v=64
285000 Off ch=15 n=70 v=64
285000 Off ch=15 n=67 v=64
285000 On ch=15 n=75 v=80
285000 On ch=15 n=73 v=79
285000 On ch=15 n=70 v=72
285000 On ch=15 n=67 v=74
285180 Off ch=15 n=75 v=64
285180 Off ch=15 n=73 v=64
285180 Off ch=15 n=70 v=64
285180 Off ch=15 n=67 v=64
285180 On ch=15 n=75 v=74
285180 On ch=15 n=73 v=72
285180 On ch=15 n=70 v=68
285180 On ch=15 n=67 v=70
285360 Off ch=15 n=75 v=64
285360 Off ch=15 n=73 v=64
285360 Off ch=15 n=70 v=64
285360 Off ch=15 n=67 v=64
285360 On ch=15 n=75 v=86
285360 On ch=15 n=73 v=88
285360 On ch=15 n=70 v=82
285360 On ch=15 n=67 v=78
285540 Off ch=15 n=75 v=64
285540 Off ch=15 n=73 v=64
285540 Off ch=15 n=70 v=64
285540 Off ch=15 n=67 v=64
285540 On ch=15 n=75 v=83
285540 On ch=15 n=73 v=85
285540 On ch=15 n=70 v=79
285540 On ch=15 n=67 v=76
285720 Off ch=15 n=75 v=64
285720 Off ch=15 n=73 v=64
285720 Off ch=15 n=70 v=64
285720 Off ch=15 n=67 v=64
285720 On ch=15 n=75 v=80
285720 On ch=15 n=73 v=82
285720 On ch=15 n=70 v=77
285720 On ch=15 n=67 v=74
285900 Off ch=15 n=75 v=64
285900 Off ch=15 n=73 v=64
285900 Off ch=15 n=70 v=64
285900 Off ch=15 n=67 v=64
285900 On ch=15 n=75 v=77
285900 On ch=15 n=73 v=79
285900 On ch=15 n=70 v=74
285900 On ch=15 n=67 v=72
286080 Off ch=15 n=75 v=64
286080 Off ch=15 n=73 v=64
286080 Off ch=15 n=70 v=64
286080 Off ch=15 n=67 v=64
286080 On ch=15 n=75 v=75
286080 On ch=15 n=73 v=76
286080 On ch=15 n=70 v=72
286080 On ch=15 n=67 v=70
286260 Off ch=15 n=75 v=64
286260 Off ch=15 n=73 v=64
286260 Off ch=15 n=70 v=64
286260 Off ch=15 n=67 v=64
286260 On ch=15 n=75 v=72
286260 On ch=15 n=73 v=73
286260 On ch=15 n=70 v=69
286260 On ch=15 n=67 v=68
286440 Off ch=15 n=75 v=64
286440 Off ch=15 n=73 v=64
286440 Off ch=15 n=70 v=64
286440 Off ch=15 n=67 v=64
286440 On ch=15 n=75 v=69
286440 On ch=15 n=73 v=70
286440 On ch=15 n=70 v=67
286440 On ch=15 n=67 v=66
286620 Off ch=15 n=75 v=64
286620 Off ch=15 n=73 v=64
286620 Off ch=15 n=70 v=64
286620 Off ch=15 n=67 v=64
286620 On ch=15 n=75 v=66
286620 On ch=15 n=73 v=67
286620 On ch=15 n=70 v=64
286620 On ch=15 n=67 v=64
286800 Off ch=15 n=75 v=64
286800 Off ch=15 n=73 v=64
286800 Off ch=15 n=70 v=64
286800 Off ch=15 n=67 v=64
288000 Par ch=15 c=0 v=0
288000 Par ch=15 c=32 v=1
288000 PrCh ch=15 p=48
288240 Par ch=15 c=7 v=96
288960 On ch=15 n=56 v=60
289080 Off ch=15 n=56 v=64
289080 On ch=15 n=58 v=60
289200 Off ch=15 n=58 v=64
289200 On ch=15 n=60 v=60
289320 Off ch=15 n=60 v=64
289320 On ch=15 n=61 v=60
289440 Off ch=15 n=61 v=64
289440 On ch=15 n=63 v=60
289560 Off ch=15 n=63 v=64
289560 On ch=15 n=64 v=60
289680 Off ch=15 n=64 v=64
289680 On ch=15 n=63 v=60
289800 Off ch=15 n=63 v=64
289800 On ch=15 n=65 v=60
289920 Off ch=15 n=65 v=64
289920 On ch=15 n=66 v=60
290040 Off ch=15 n=66 v=64
290040 On ch=15 n=68 v=60
290160 Off ch=15 n=68 v=64
290160 On ch=15 n=69 v=60
290280 Off ch=15 n=69 v=64
290280 On ch=15 n=70 v=60
290400 Off ch=15 n=70 v=64
290400 On ch=15 n=56 v=60
290520 Off ch=15 n=56 v=64
290520 On ch=15 n=58 v=60
290640 Off ch=15 n=58 v=64
290640 On ch=15 n=60 v=60
290760 Off ch=15 n=60 v=64
290760 On ch=15 n=61 v=60
290880 Off ch=15 n=61 v=64
290880 On ch=15 n=63 v=60
291000 Off ch=15 n=63 v=64
291000 On ch=15 n=64 v=60
291120 Off ch=15 n=64 v=64
291120 On ch=15 n=63 v=60
291240 Off ch=15 n=63 v=64
291240 On ch=15 n=65 v=60
291360 Off ch=15 n=65 v=64
291360 On ch=15 n=66 v=60
291480 Off ch=15 n=66 v=64
291480 On ch=15 n=68 v=60
291600 Off ch=15 n=68 v=64
291600 On ch=15 n=70 v=60
291720 Off ch=15 n=70 v=64
291720 On ch=15 n=71 v=60
291840 Off ch=15 n=71 v=64
301200 On ch=15 n=76 v=46
301320 Off ch=15 n=76 v=64
301320 On ch=15 n=76 v=46
301440 Off ch=15 n=76 v=64
301440 On ch=15 n=79 v=46
301560 Off ch=15 n=79 v=64
301560 On ch=15 n=79 v=47
301680 Off ch=15 n=79 v=64
301680 On ch=15 n=76 v=47
301800 Off ch=15 n=76 v=64
301800 On ch=15 n=76 v=48
301920 Off ch=15 n=76 v=64
301920 On ch=15 n=73 v=48
302040 Off ch=15 n=73 v=64
302040 On ch=15 n=73 v=48
302160 Off ch=15 n=73 v=64
302160 On ch=15 n=70 v=49
302280 Off ch=15 n=70 v=64
302280 On ch=15 n=70 v=49
302400 Off ch=15 n=70 v=64
302400 On ch=15 n=67 v=50
302520 Off ch=15 n=67 v=64
302520 On ch=15 n=67 v=50
302640 Off ch=15 n=67 v=64
302640 On ch=15 n=79 v=53
302640 On ch=15 n=75 v=53
302760 Off ch=15 n=79 v=64
302760 Off ch=15 n=75 v=64
302760 On ch=15 n=79 v=53
302760 On ch=15 n=75 v=53
302880 Off ch=15 n=79 v=64
302880 Off ch=15 n=75 v=64
302880 On ch=15 n=82 v=53
302880 On ch=15 n=78 v=53
303000 Off ch=15 n=82 v=64
303000 Off ch=15 n=78 v=64
303000 On ch=15 n=82 v=54
303000 On ch=15 n=78 v=54
303120 Off ch=15 n=82 v=64
303120 Off ch=15 n=78 v=64
303120 On ch=15 n=79 v=54
303120 On ch=15 n=75 v=54
303240 Off ch=15 n=79 v=64
303240 Off ch=15 n=75 v=64
303240 On ch=15 n=79 v=55
303240 On ch=15 n=75 v=55
303360 Off ch=15 n=79 v=64
303360 Off ch=15 n=75 v=64
303360 On ch=15 n=76 v=55
303360 On ch=15 n=72 v=55
303480 Off ch=15 n=76 v=64
303480 Off ch=15 n=72 v=64
303480 On ch=15 n=76 v=56
303480 On ch=15 n=72 v=56
303600 Off ch=15 n=76 v=64
303600 Off ch=15 n=72 v=64
303600 On ch=15 n=73 v=56
303600 On ch=15 n=69 v=56
303720 Off ch=15 n=73 v=64
303720 Off ch=15 n=69 v=64
303720 On ch=15 n=73 v=56
303720 On ch=15 n=69 v=56
303840 Off ch=15 n=73 v=64
303840 Off ch=15 n=69 v=64
303840 On ch=15 n=70 v=57
303840 On ch=15 n=66 v=57
303960 Off ch=15 n=70 v=64
303960 Off ch=15 n=66 v=64
303960 On ch=15 n=70 v=57
303960 On ch=15 n=66 v=57
304080 Off ch=15 n=70 v=64
304080 Off ch=15 n=66 v=64
304080 On ch=15 n=82 v=58
304080 On ch=15 n=78 v=58
304200 Off ch=15 n=82 v=64
304200 Off ch=15 n=78 v=64
304200 On ch=15 n=82 v=58
304200 On ch=15 n=78 v=58
304320 Off ch=15 n=82 v=64
304320 Off ch=15 n=78 v=64
304320 On ch=15 n=85 v=59
304320 On ch=15 n=81 v=59
304440 Off ch=15 n=85 v=64
304440 Off ch=15 n=81 v=64
304440 On ch=15 n=85 v=59
304440 On ch=15 n=81 v=59
304560 Off ch=15 n=85 v=64
304560 Off ch=15 n=81 v=64
304560 On ch=15 n=82 v=59
304560 On ch=15 n=78 v=59
304680 Off ch=15 n=82 v=64
304680 Off ch=15 n=78 v=64
304680 On ch=15 n=82 v=60
304680 On ch=15 n=78 v=60
304800 Off ch=15 n=82 v=64
304800 Off ch=15 n=78 v=64
304800 On ch=15 n=79 v=60
304800 On ch=15 n=75 v=60
304920 Off ch=15 n=79 v=64
304920 Off ch=15 n=75 v=64
304920 On ch=15 n=79 v=61
304920 On ch=15 n=75 v=61
305040 Off ch=15 n=79 v=64
305040 Off ch=15 n=75 v=64
305040 On ch=15 n=76 v=61
305040 On ch=15 n=72 v=61
305160 Off ch=15 n=76 v=64
305160 Off ch=15 n=72 v=64
305160 On ch=15 n=76 v=61
305160 On ch=15 n=72 v=61
305280 Off ch=15 n=76 v=64
305280 Off ch=15 n=72 v=64
305280 On ch=15 n=73 v=62
305280 On ch=15 n=69 v=62
305400 Off ch=15 n=73 v=64
305400 Off ch=15 n=69 v=64
305400 On ch=15 n=73 v=62
305400 On ch=15 n=69 v=62
305520 Off ch=15 n=73 v=64
305520 Off ch=15 n=69 v=64
305520 On ch=15 n=70 v=59
305520 On ch=15 n=66 v=59
305760 Off ch=15 n=70 v=64
305760 Off ch=15 n=66 v=64
524160 Meta TrkEnd
TrkEnd
MTrk
0 Meta InstrName "SC-88VL"
0 Meta TrkName "gbN 1 #2"
0 SysEx f0 42 12 40 00 7f 00 41 f7 14 f0
20 SysEx f0 42 12 40 1a 15 02 0f f7 9f fe
524160 Meta TrkEnd
TrkEnd
MTrk
0 Meta InstrName "SC-88VL"
0 Meta TrkName "gbN 1"
720 Par ch=16 c=0 v=0
720 Par ch=16 c=32 v=1
720 PrCh ch=16 p=70
960 Par ch=16 c=93 v=0
960 Par ch=16 c=91 v=110
970 Par ch=16 c=7 v=100
108000 On ch=16 n=60 v=32
108060 On ch=16 n=62 v=32
108092 Off ch=16 n=60 v=64
108120 On ch=16 n=60 v=32
108152 Off ch=16 n=62 v=64
108180 On ch=16 n=62 v=32
108212 Off ch=16 n=60 v=64
108240 On ch=16 n=60 v=32
108272 Off ch=16 n=62 v=64
108300 On ch=16 n=62 v=32
108332 Off ch=16 n=60 v=64
108360 On ch=16 n=60 v=32
108392 Off ch=16 n=62 v=64
108420 On ch=16 n=62 v=32
108452 Off ch=16 n=60 v=64
108480 On ch=16 n=60 v=32
108512 Off ch=16 n=62 v=64
108540 On ch=16 n=62 v=32
108572 Off ch=16 n=60 v=64
108600 On ch=16 n=60 v=32
108632 Off ch=16 n=62 v=64
108660 On ch=16 n=62 v=32
108692 Off ch=16 n=60 v=64
108720 On ch=16 n=60 v=32
108752 Off ch=16 n=62 v=64
108780 On ch=16 n=62 v=32
108812 Off ch=16 n=60 v=64
108840 On ch=16 n=60 v=32
108872 Off ch=16 n=62 v=64
108900 On ch=16 n=62 v=32
108932 Off ch=16 n=60 v=64
108960 On ch=16 n=60 v=32
108992 Off ch=16 n=62 v=64
109020 On ch=16 n=62 v=32
109052 Off ch=16 n=60 v=64
109080 On ch=16 n=60 v=32
109112 Off ch=16 n=62 v=64
109140 On ch=16 n=62 v=32
109172 Off ch=16 n=60 v=64
109200 On ch=16 n=60 v=32
109232 Off ch=16 n=62 v=64
109260 On ch=16 n=62 v=32
109292 Off ch=16 n=60 v=64
109320 On ch=16 n=60 v=32
109352 Off ch=16 n=62 v=64
109380 On ch=16 n=62 v=32
109412 Off ch=16 n=60 v=64
109440 On ch=16 n=60 v=32
109472 Off ch=16 n=62 v=64
109500 On ch=16 n=62 v=32
109532 Off ch=16 n=60 v=64
109560 On ch=16 n=60 v=32
109592 Off ch=16 n=62 v=64
109620 On ch=16 n=62 v=32
109652 Off ch=16 n=60 v=64
109680 On ch=16 n=60 v=32
109712 Off ch=16 n=62 v=64
109740 On ch=16 n=62 v=32
109772 Off ch=16 n=60 v=64
109800 On ch=16 n=60 v=32
109832 Off ch=16 n=62 v=64
109860 On ch=16 n=62 v=32
109892 Off ch=16 n=60 v=64
109920 On ch=16 n=60 v=32
109952 Off ch=16 n=62 v=64
109980 On ch=16 n=62 v=32
110012 Off ch=16 n=60 v=64
110040 On ch=16 n=60 v=32
110072 Off ch=16 n=62 v=64
110100 On ch=16 n=62 v=32
110132 Off ch=16 n=60 v=64
110160 On ch=16 n=60 v=32
110192 Off ch=16 n=62 v=64
110220 On ch=16 n=62 v=32
110252 Off ch=16 n=60 v=64
110280 On ch=16 n=60 v=32
110312 Off ch=16 n=62 v=64
110340 On ch=16 n=62 v=32
110372 Off ch=16 n=60 v=64
110400 On ch=16 n=60 v=32
110432 Off ch=16 n=62 v=64
110460 On ch=16 n=62 v=32
110492 Off ch=16 n=60 v=64
110520 On ch=16 n=60 v=32
110552 Off ch=16 n=62 v=64
110580 On ch=16 n=62 v=32
110612 Off ch=16 n=60 v=64
110640 On ch=16 n=60 v=32
110672 Off ch=16 n=62 v=64
110700 On ch=16 n=62 v=32
110732 Off ch=16 n=60 v=64
110760 On ch=16 n=60 v=32
110792 Off ch=16 n=62 v=64
110820 On ch=16 n=62 v=32
110852 Off ch=16 n=60 v=64
110880 On ch=16 n=60 v=32
110912 Off ch=16 n=62 v=64
110940 On ch=16 n=62 v=32
110972 Off ch=16 n=60 v=64
111000 On ch=16 n=60 v=32
111032 Off ch=16 n=62 v=64
111060 On ch=16 n=62 v=32
111092 Off ch=16 n=60 v=64
111120 On ch=16 n=60 v=32
111152 Off ch=16 n=62 v=64
111180 On ch=16 n=62 v=32
111212 Off ch=16 n=60 v=64
111240 On ch=16 n=60 v=32
111272 Off ch=16 n=62 v=64
111300 On ch=16 n=62 v=32
111332 Off ch=16 n=60 v=64
111360 On ch=16 n=60 v=32
111392 Off ch=16 n=62 v=64
111420 On ch=16 n=62 v=32
111452 Off ch=16 n=60 v=64
111480 On ch=16 n=60 v=32
111512 Off ch=16 n=62 v=64
111540 On ch=16 n=62 v=32
111572 Off ch=16 n=60 v=64
111600 On ch=16 n=60 v=32
111632 Off ch=16 n=62 v=64
111660 On ch=16 n=62 v=32
111692 Off ch=16 n=60 v=64
111720 On ch=16 n=60 v=32
111752 Off ch=16 n=62 v=64
111780 On ch=16 n=62 v=32
111812 Off ch=16 n=60 v=64
111840 On ch=16 n=60 v=32
111872 Off ch=16 n=62 v=64
111900 On ch=16 n=62 v=32
111932 Off ch=16 n=60 v=64
111960 On ch=16 n=60 v=32
111992 Off ch=16 n=62 v=64
112020 On ch=16 n=62 v=32
112052 Off ch=16 n=60 v=64
112080 On ch=16 n=60 v=32
112112 Off ch=16 n=62 v=64
112140 On ch=16 n=62 v=32
112172 Off ch=16 n=60 v=64
112200 On ch=16 n=60 v=32
112232 Off ch=16 n=62 v=64
112260 On ch=16 n=62 v=32
112292 Off ch=16 n=60 v=64
112320 On ch=16 n=60 v=32
112352 Off ch=16 n=62 v=64
112380 On ch=16 n=62 v=32
112412 Off ch=16 n=60 v=64
112440 On ch=16 n=60 v=32
112472 Off ch=16 n=62 v=64
112500 On ch=16 n=62 v=32
112532 Off ch=16 n=60 v=64
112560 On ch=16 n=60 v=32
112592 Off ch=16 n=62 v=64
112620 On ch=16 n=62 v=32
112652 Off ch=16 n=60 v=64
112680 On ch=16 n=60 v=32
112712 Off ch=16 n=62 v=64
112740 On ch=16 n=62 v=32
112772 Off ch=16 n=60 v=64
112800 On ch=16 n=60 v=32
112832 Off ch=16 n=62 v=64
112860 On ch=16 n=62 v=32
112892 Off ch=16 n=60 v=64
112920 On ch=16 n=60 v=32
112952 Off ch=16 n=62 v=64
112980 On ch=16 n=62 v=32
113012 Off ch=16 n=60 v=64
113040 On ch=16 n=60 v=32
113072 Off ch=16 n=62 v=64
113100 On ch=16 n=62 v=32
113132 Off ch=16 n=60 v=64
113160 On ch=16 n=60 v=32
113192 Off ch=16 n=62 v=64
113220 On ch=16 n=62 v=32
113252 Off ch=16 n=60 v=64
113280 On ch=16 n=60 v=32
113312 Off ch=16 n=62 v=64
113340 On ch=16 n=62 v=32
113372 Off ch=16 n=60 v=64
113400 On ch=16 n=60 v=32
113432 Off ch=16 n=62 v=64
113460 On ch=16 n=62 v=32
113492 Off ch=16 n=60 v=64
113520 On ch=16 n=60 v=32
113552 Off ch=16 n=62 v=64
113580 On ch=16 n=62 v=32
113612 Off ch=16 n=60 v=64
113640 On ch=16 n=60 v=32
113672 Off ch=16 n=62 v=64
113700 On ch=16 n=62 v=32
113732 Off ch=16 n=60 v=64
113760 On ch=16 n=60 v=32
113792 Off ch=16 n=62 v=64
113820 On ch=16 n=62 v=32
113852 Off ch=16 n=60 v=64
113880 On ch=16 n=60 v=32
113912 Off ch=16 n=62 v=64
113940 On ch=16 n=62 v=32
113972 Off ch=16 n=60 v=64
114000 On ch=16 n=60 v=32
114032 Off ch=16 n=62 v=64
114060 On ch=16 n=62 v=32
114092 Off ch=16 n=60 v=64
114120 On ch=16 n=60 v=32
114152 Off ch=16 n=62 v=64
114180 On ch=16 n=62 v=32
114212 Off ch=16 n=60 v=64
114240 On ch=16 n=60 v=32
114272 Off ch=16 n=62 v=64
114300 On ch=16 n=62 v=32
114332 Off ch=16 n=60 v=64
114360 On ch=16 n=60 v=32
114392 Off ch=16 n=62 v=64
114420 On ch=16 n=62 v=32
114452 Off ch=16 n=60 v=64
114480 On ch=16 n=60 v=32
114512 Off ch=16 n=62 v=64
114540 On ch=16 n=62 v=32
114572 Off ch=16 n=60 v=64
114600 On ch=16 n=60 v=32
114632 Off ch=16 n=62 v=64
114660 On ch=16 n=62 v=32
114692 Off ch=16 n=60 v=64
114720 On ch=16 n=60 v=32
114752 Off ch=16 n=62 v=64
114780 On ch=16 n=62 v=32
114812 Off ch=16 n=60 v=64
114840 On ch=16 n=60 v=32
114872 Off ch=16 n=62 v=64
114900 On ch=16 n=62 v=32
114932 Off ch=16 n=60 v=64
114960 On ch=16 n=60 v=32
114992 Off ch=16 n=62 v=64
115020 On ch=16 n=62 v=32
115052 Off ch=16 n=60 v=64
115080 On ch=16 n=60 v=32
115112 Off ch=16 n=62 v=64
115140 On ch=16 n=62 v=32
115172 Off ch=16 n=60 v=64
115200 On ch=16 n=60 v=32
115232 Off ch=16 n=62 v=64
115260 On ch=16 n=62 v=32
115292 Off ch=16 n=60 v=64
115320 On ch=16 n=60 v=32
115352 Off ch=16 n=62 v=64
115380 On ch=16 n=62 v=32
115412 Off ch=16 n=60 v=64
115440 On ch=16 n=60 v=32
115472 Off ch=16 n=62 v=64
115500 On ch=16 n=62 v=32
115532 Off ch=16 n=60 v=64
115560 On ch=16 n=60 v=32
115592 Off ch=16 n=62 v=64
115620 On ch=16 n=62 v=32
115652 Off ch=16 n=60 v=64
115680 On ch=16 n=60 v=32
115712 Off ch=16 n=62 v=64
115740 On ch=16 n=62 v=32
115772 Off ch=16 n=60 v=64
115800 On ch=16 n=60 v=32
115832 Off ch=16 n=62 v=64
115860 On ch=16 n=62 v=32
115892 Off ch=16 n=60 v=64
115920 On ch=16 n=60 v=32
115952 Off ch=16 n=62 v=64
115980 On ch=16 n=62 v=32
116012 Off ch=16 n=60 v=64
116040 On ch=16 n=60 v=32
116072 Off ch=16 n=62 v=64
116100 On ch=16 n=62 v=32
116132 Off ch=16 n=60 v=64
116160 On ch=16 n=60 v=32
116192 Off ch=16 n=62 v=64
116220 On ch=16 n=62 v=32
116252 Off ch=16 n=60 v=64
116280 On ch=16 n=60 v=32
116312 Off ch=16 n=62 v=64
116340 On ch=16 n=62 v=32
116372 Off ch=16 n=60 v=64
116400 On ch=16 n=60 v=32
116432 Off ch=16 n=62 v=64
116460 On ch=16 n=62 v=32
116492 Off ch=16 n=60 v=64
116520 On ch=16 n=60 v=32
116552 Off ch=16 n=62 v=64
116580 On ch=16 n=62 v=32
116612 Off ch=16 n=60 v=64
116640 On ch=16 n=60 v=32
116672 Off ch=16 n=62 v=64
116700 On ch=16 n=62 v=32
116732 Off ch=16 n=60 v=64
116760 On ch=16 n=60 v=32
116792 Off ch=16 n=62 v=64
116820 On ch=16 n=62 v=32
116852 Off ch=16 n=60 v=64
116880 On ch=16 n=60 v=32
116912 Off ch=16 n=62 v=64
116940 On ch=16 n=62 v=32
116972 Off ch=16 n=60 v=64
117000 On ch=16 n=60 v=32
117032 Off ch=16 n=62 v=64
117060 On ch=16 n=62 v=32
117092 Off ch=16 n=60 v=64
117120 On ch=16 n=60 v=32
117152 Off ch=16 n=62 v=64
117180 On ch=16 n=62 v=32
117212 Off ch=16 n=60 v=64
117240 On ch=16 n=60 v=32
117272 Off ch=16 n=62 v=64
117300 On ch=16 n=62 v=32
117332 Off ch=16 n=60 v=64
117360 On ch=16 n=60 v=32
117392 Off ch=16 n=62 v=64
117420 On ch=16 n=62 v=32
117452 Off ch=16 n=60 v=64
117480 On ch=16 n=60 v=32
117512 Off ch=16 n=62 v=64
117540 On ch=16 n=62 v=32
117572 Off ch=16 n=60 v=64
117600 On ch=16 n=60 v=32
117632 Off ch=16 n=62 v=64
117660 On ch=16 n=62 v=32
117692 Off ch=16 n=60 v=64
117720 On ch=16 n=60 v=32
117752 Off ch=16 n=62 v=64
117780 On ch=16 n=62 v=32
117812 Off ch=16 n=60 v=64
117840 On ch=16 n=60 v=32
117872 Off ch=16 n=62 v=64
117900 On ch=16 n=62 v=32
117932 Off ch=16 n=60 v=64
117960 On ch=16 n=60 v=32
117992 Off ch=16 n=62 v=64
118020 On ch=16 n=62 v=32
118052 Off ch=16 n=60 v=64
118080 On ch=16 n=60 v=32
118112 Off ch=16 n=62 v=64
118140 On ch=16 n=62 v=32
118172 Off ch=16 n=60 v=64
118200 On ch=16 n=60 v=32
118232 Off ch=16 n=62 v=64
118260 On ch=16 n=62 v=32
118292 Off ch=16 n=60 v=64
118320 On ch=16 n=60 v=32
118352 Off ch=16 n=62 v=64
118380 On ch=16 n=62 v=32
118412 Off ch=16 n=60 v=64
118440 On ch=16 n=60 v=32
118472 Off ch=16 n=62 v=64
118500 On ch=16 n=62 v=32
118532 Off ch=16 n=60 v=64
118560 On ch=16 n=60 v=32
118592 Off ch=16 n=62 v=64
118620 On ch=16 n=62 v=32
118652 Off ch=16 n=60 v=64
118680 On ch=16 n=60 v=32
118712 Off ch=16 n=62 v=64
118740 On ch=16 n=62 v=32
118772 Off ch=16 n=60 v=64
118800 On ch=16 n=60 v=32
118832 Off ch=16 n=62 v=64
118860 On ch=16 n=62 v=32
118892 Off ch=16 n=60 v=64
118920 On ch=16 n=60 v=32
118952 Off ch=16 n=62 v=64
118980 On ch=16 n=62 v=32
119012 Off ch=16 n=60 v=64
119040 On ch=16 n=60 v=32
119072 Off ch=16 n=62 v=64
119100 On ch=16 n=62 v=32
119132 Off ch=16 n=60 v=64
119160 On ch=16 n=60 v=32
119192 Off ch=16 n=62 v=64
119220 On ch=16 n=62 v=32
119252 Off ch=16 n=60 v=64
119280 On ch=16 n=60 v=32
119312 Off ch=16 n=62 v=64
119340 On ch=16 n=62 v=32
119372 Off ch=16 n=60 v=64
119400 On ch=16 n=60 v=32
119432 Off ch=16 n=62 v=64
119460 On ch=16 n=62 v=32
119492 Off ch=16 n=60 v=64
119552 Off ch=16 n=62 v=64
156480 On ch=16 n=60 v=28
156540 On ch=16 n=62 v=28
156572 Off ch=16 n=60 v=64
156600 On ch=16 n=60 v=28
156632 Off ch=16 n=62 v=64
156660 On ch=16 n=62 v=28
156692 Off ch=16 n=60 v=64
156720 On ch=16 n=60 v=28
156752 Off ch=16 n=62 v=64
156780 On ch=16 n=62 v=28
156812 Off ch=16 n=60 v=64
156840 On ch=16 n=60 v=28
156872 Off ch=16 n=62 v=64
156900 On ch=16 n=62 v=28
156932 Off ch=16 n=60 v=64
156960 On ch=16 n=60 v=28
156992 Off ch=16 n=62 v=64
157020 On ch=16 n=62 v=28
157052 Off ch=16 n=60 v=64
157080 On ch=16 n=60 v=28
157112 Off ch=16 n=62 v=64
157140 On ch=16 n=62 v=28
157172 Off ch=16 n=60 v=64
157200 On ch=16 n=60 v=28
157232 Off ch=16 n=62 v=64
157260 On ch=16 n=62 v=28
157292 Off ch=16 n=60 v=64
157320 On ch=16 n=60 v=28
157352 Off ch=16 n=62 v=64
157380 On ch=16 n=62 v=28
157412 Off ch=16 n=60 v=64
157440 On ch=16 n=60 v=28
157472 Off ch=16 n=62 v=64
157500 On ch=16 n=62 v=28
157532 Off ch=16 n=60 v=64
157560 On ch=16 n=60 v=28
157592 Off ch=16 n=62 v=64
157620 On ch=16 n=62 v=28
157652 Off ch=16 n=60 v=64
157680 On ch=16 n=60 v=28
157712 Off ch=16 n=62 v=64
157740 On ch=16 n=62 v=28
157772 Off ch=16 n=60 v=64
157800 On ch=16 n=60 v=28
157832 Off ch=16 n=62 v=64
157860 On ch=16 n=62 v=28
157892 Off ch=16 n=60 v=64
157920 On ch=16 n=60 v=28
157952 Off ch=16 n=62 v=64
157980 On ch=16 n=62 v=28
158012 Off ch=16 n=60 v=64
158040 On ch=16 n=60 v=28
158072 Off ch=16 n=62 v=64
158100 On ch=16 n=62 v=28
158132 Off ch=16 n=60 v=64
158160 On ch=16 n=60 v=28
158192 Off ch=16 n=62 v=64
158220 On ch=16 n=62 v=28
158252 Off ch=16 n=60 v=64
158280 On ch=16 n=60 v=28
158312 Off ch=16 n=62 v=64
158340 On ch=16 n=62 v=28
158372 Off ch=16 n=60 v=64
158400 On ch=16 n=60 v=28
158432 Off ch=16 n=62 v=64
158460 On ch=16 n=62 v=28
158492 Off ch=16 n=60 v=64
158520 On ch=16 n=60 v=28
158552 Off ch=16 n=62 v=64
158580 On ch=16 n=62 v=28
158612 Off ch=16 n=60 v=64
158640 On ch=16 n=60 v=28
158672 Off ch=16 n=62 v=64
158700 On ch=16 n=62 v=28
158732 Off ch=16 n=60 v=64
158760 On ch=16 n=60 v=28
158792 Off ch=16 n=62 v=64
158820 On ch=16 n=62 v=28
158852 Off ch=16 n=60 v=64
158880 On ch=16 n=60 v=28
158912 Off ch=16 n=62 v=64
158940 On ch=16 n=62 v=28
158972 Off ch=16 n=60 v=64
159000 On ch=16 n=60 v=28
159032 Off ch=16 n=62 v=64
159060 On ch=16 n=62 v=28
159092 Off ch=16 n=60 v=64
159120 On ch=16 n=60 v=28
159152 Off ch=16 n=62 v=64
159180 On ch=16 n=62 v=28
159212 Off ch=16 n=60 v=64
159240 On ch=16 n=60 v=28
159272 Off ch=16 n=62 v=64
159300 On ch=16 n=62 v=28
159332 Off ch=16 n=60 v=64
159360 On ch=16 n=60 v=28
159392 Off ch=16 n=62 v=64
159420 On ch=16 n=62 v=28
159452 Off ch=16 n=60 v=64
159480 On ch=16 n=60 v=28
159512 Off ch=16 n=62 v=64
159540 On ch=16 n=62 v=28
159572 Off ch=16 n=60 v=64
159600 On ch=16 n=60 v=28
159632 Off ch=16 n=62 v=64
159660 On ch=16 n=62 v=28
159692 Off ch=16 n=60 v=64
159720 On ch=16 n=60 v=28
159752 Off ch=16 n=62 v=64
159780 On ch=16 n=62 v=28
159812 Off ch=16 n=60 v=64
159840 On ch=16 n=60 v=28
159872 Off ch=16 n=62 v=64
159900 On ch=16 n=62 v=28
159932 Off ch=16 n=60 v=64
159960 On ch=16 n=60 v=28
159992 Off ch=16 n=62 v=64
160020 On ch=16 n=62 v=28
160052 Off ch=16 n=60 v=64
160080 On ch=16 n=60 v=28
160112 Off ch=16 n=62 v=64
160140 On ch=16 n=62 v=28
160172 Off ch=16 n=60 v=64
160200 On ch=16 n=60 v=28
160232 Off ch=16 n=62 v=64
160260 On ch=16 n=62 v=28
160292 Off ch=16 n=60 v=64
160320 On ch=16 n=60 v=28
160352 Off ch=16 n=62 v=64
160380 On ch=16 n=62 v=28
160412 Off ch=16 n=60 v=64
160440 On ch=16 n=60 v=28
160472 Off ch=16 n=62 v=64
160500 On ch=16 n=62 v=28
160532 Off ch=16 n=60 v=64
160560 On ch=16 n=60 v=28
160592 Off ch=16 n=62 v=64
160620 On ch=16 n=62 v=28
160652 Off ch=16 n=60 v=64
160680 On ch=16 n=60 v=28
160712 Off ch=16 n=62 v=64
160740 On ch=16 n=62 v=28
160772 Off ch=16 n=60 v=64
160832 Off ch=16 n=62 v=64
165600 On ch=16 n=60 v=22
165660 On ch=16 n=62 v=22
165684 Off ch=16 n=60 v=64
165720 On ch=16 n=60 v=22
165744 Off ch=16 n=62 v=64
165780 On ch=16 n=62 v=22
165804 Off ch=16 n=60 v=64
165840 On ch=16 n=60 v=22
165864 Off ch=16 n=62 v=64
165900 On ch=16 n=62 v=22
165924 Off ch=16 n=60 v=64
165960 On ch=16 n=60 v=22
165984 Off ch=16 n=62 v=64
166020 On ch=16 n=62 v=22
166044 Off ch=16 n=60 v=64
166080 On ch=16 n=60 v=22
166104 Off ch=16 n=62 v=64
166140 On ch=16 n=62 v=22
166164 Off ch=16 n=60 v=64
166200 On ch=16 n=60 v=22
166224 Off ch=16 n=62 v=64
166260 On ch=16 n=62 v=22
166284 Off ch=16 n=60 v=64
166320 On ch=16 n=60 v=22
166344 Off ch=16 n=62 v=64
166380 On ch=16 n=62 v=22
166404 Off ch=16 n=60 v=64
166440 On ch=16 n=60 v=22
166464 Off ch=16 n=62 v=64
166500 On ch=16 n=62 v=22
166524 Off ch=16 n=60 v=64
166560 On ch=16 n=60 v=22
166584 Off ch=16 n=62 v=64
166620 On ch=16 n=62 v=22
166644 Off ch=16 n=60 v=64
166680 On ch=16 n=60 v=22
166704 Off ch=16 n=62 v=64
166740 On ch=16 n=62 v=22
166764 Off ch=16 n=60 v=64
166800 On ch=16 n=60 v=22
166824 Off ch=16 n=62 v=64
166860 On ch=16 n=62 v=22
166884 Off ch=16 n=60 v=64
166920 On ch=16 n=60 v=22
166944 Off ch=16 n=62 v=64
166980 On ch=16 n=62 v=22
167004 Off ch=16 n=60 v=64
167040 On ch=16 n=60 v=22
167064 Off ch=16 n=62 v=64
167100 On ch=16 n=62 v=22
167124 Off ch=16 n=60 v=64
167160 On ch=16 n=60 v=22
167184 Off ch=16 n=62 v=64
167220 On ch=16 n=62 v=22
167244 Off ch=16 n=60 v=64
167280 On ch=16 n=60 v=22
167304 Off ch=16 n=62 v=64
167340 On ch=16 n=62 v=22
167340 On ch=16 n=60 v=33
167364 Off ch=16 n=60 v=64
167364 Off ch=16 n=60 v=64
167400 On ch=16 n=60 v=22
167400 On ch=16 n=62 v=31
167424 Off ch=16 n=62 v=64
167424 Off ch=16 n=62 v=64
167460 On ch=16 n=62 v=22
167460 On ch=16 n=64 v=29
167484 Off ch=16 n=60 v=64
167520 Off ch=16 n=64 v=64
167520 On ch=16 n=60 v=22
167520 On ch=16 n=65 v=28
167544 Off ch=16 n=62 v=64
167580 Off ch=16 n=65 v=64
167580 On ch=16 n=62 v=22
167580 On ch=16 n=64 v=25
167604 Off ch=16 n=60 v=64
167640 Off ch=16 n=64 v=64
167640 On ch=16 n=60 v=22
167640 On ch=16 n=65 v=25
167664 Off ch=16 n=62 v=64
167700 Off ch=16 n=65 v=64
167700 On ch=16 n=62 v=22
167700 On ch=16 n=64 v=24
167724 Off ch=16 n=60 v=64
167760 Off ch=16 n=64 v=64
167760 On ch=16 n=60 v=22
167760 On ch=16 n=65 v=24
167784 Off ch=16 n=62 v=64
167820 Off ch=16 n=65 v=64
167820 On ch=16 n=62 v=22
167820 On ch=16 n=64 v=23
167844 Off ch=16 n=60 v=64
167880 Off ch=16 n=64 v=64
167880 On ch=16 n=60 v=22
167880 On ch=16 n=65 v=23
167904 Off ch=16 n=62 v=64
167940 Off ch=16 n=65 v=64
167940 On ch=16 n=62 v=22
167940 On ch=16 n=64 v=22
167964 Off ch=16 n=60 v=64
168000 Off ch=16 n=64 v=64
168000 On ch=16 n=60 v=22
168000 On ch=16 n=65 v=21
168024 Off ch=16 n=62 v=64
168060 Off ch=16 n=65 v=64
168060 On ch=16 n=62 v=22
168060 On ch=16 n=64 v=21
168084 Off ch=16 n=60 v=64
168120 Off ch=16 n=64 v=64
168120 On ch=16 n=60 v=22
168120 On ch=16 n=65 v=21
168144 Off ch=16 n=62 v=64
168180 Off ch=16 n=65 v=64
168180 On ch=16 n=62 v=22
168180 On ch=16 n=64 v=21
168204 Off ch=16 n=60 v=64
168240 Off ch=16 n=64 v=64
168240 On ch=16 n=60 v=22
168240 On ch=16 n=65 v=21
168264 Off ch=16 n=62 v=64
168300 Off ch=16 n=65 v=64
168300 On ch=16 n=62 v=22
168300 On ch=16 n=64 v=21
168324 Off ch=16 n=60 v=64
168360 Off ch=16 n=64 v=64
168360 On ch=16 n=60 v=22
168360 On ch=16 n=65 v=21
168384 Off ch=16 n=62 v=64
168420 Off ch=16 n=65 v=64
168420 On ch=16 n=62 v=22
168420 On ch=16 n=64 v=21
168444 Off ch=16 n=60 v=64
168480 Off ch=16 n=64 v=64
168480 On ch=16 n=60 v=22
168480 On ch=16 n=65 v=21
168504 Off ch=16 n=62 v=64
168540 Off ch=16 n=65 v=64
168540 On ch=16 n=62 v=22
168540 On ch=16 n=64 v=21
168564 Off ch=16 n=60 v=64
168600 Off ch=16 n=64 v=64
168600 On ch=16 n=60 v=22
168600 On ch=16 n=65 v=21
168624 Off ch=16 n=62 v=64
168660 Off ch=16 n=65 v=64
168660 On ch=16 n=62 v=22
168660 On ch=16 n=64 v=21
168684 Off ch=16 n=60 v=64
168720 Off ch=16 n=64 v=64
168720 On ch=16 n=60 v=22
168720 On ch=16 n=65 v=21
168744 Off ch=16 n=62 v=64
168780 Off ch=16 n=65 v=64
168780 On ch=16 n=62 v=22
168780 On ch=16 n=64 v=21
168804 Off ch=16 n=60 v=64
168840 Off ch=16 n=64 v=64
168840 On ch=16 n=60 v=22
168840 On ch=16 n=65 v=21
168864 Off ch=16 n=62 v=64
168900 Off ch=16 n=65 v=64
168900 On ch=16 n=62 v=22
168900 On ch=16 n=64 v=21
168924 Off ch=16 n=60 v=64
168960 Off ch=16 n=64 v=64
168960 On ch=16 n=60 v=22
168960 On ch=16 n=65 v=21
168984 Off ch=16 n=62 v=64
169020 Off ch=16 n=65 v=64
169020 On ch=16 n=62 v=22
169020 On ch=16 n=64 v=21
169044 Off ch=16 n=60 v=64
169080 Off ch=16 n=64 v=64
169080 On ch=16 n=60 v=22
169080 On ch=16 n=65 v=21
169104 Off ch=16 n=62 v=64
169140 Off ch=16 n=65 v=64
169140 On ch=16 n=62 v=22
169140 On ch=16 n=64 v=21
169164 Off ch=16 n=60 v=64
169200 Off ch=16 n=64 v=64
169200 On ch=16 n=60 v=22
169200 On ch=16 n=65 v=21
169224 Off ch=16 n=62 v=64
169260 Off ch=16 n=65 v=64
169260 On ch=16 n=62 v=22
169260 On ch=16 n=64 v=21
169284 Off ch=16 n=60 v=64
169320 Off ch=16 n=64 v=64
169320 On ch=16 n=60 v=22
169320 On ch=16 n=65 v=21
169344 Off ch=16 n=62 v=64
169380 Off ch=16 n=65 v=64
169380 On ch=16 n=62 v=22
169380 On ch=16 n=64 v=21
169404 Off ch=16 n=60 v=64
169440 Off ch=16 n=64 v=64
169440 On ch=16 n=60 v=18
169440 On ch=16 n=65 v=21
169464 Off ch=16 n=62 v=64
169500 Off ch=16 n=65 v=64
169500 On ch=16 n=62 v=18
169500 On ch=16 n=64 v=18
169524 Off ch=16 n=60 v=64
169560 Off ch=16 n=64 v=64
169560 On ch=16 n=60 v=18
169560 On ch=16 n=65 v=18
169584 Off ch=16 n=62 v=64
169620 Off ch=16 n=65 v=64
169620 On ch=16 n=62 v=18
169620 On ch=16 n=64 v=18
169644 Off ch=16 n=60 v=64
169680 Off ch=16 n=64 v=64
169680 On ch=16 n=60 v=18
169680 On ch=16 n=65 v=18
169704 Off ch=16 n=62 v=64
169740 Off ch=16 n=65 v=64
169740 On ch=16 n=62 v=18
169740 On ch=16 n=64 v=18
169764 Off ch=16 n=60 v=64
169800 Off ch=16 n=64 v=64
169800 On ch=16 n=60 v=18
169800 On ch=16 n=65 v=18
169824 Off ch=16 n=62 v=64
169860 Off ch=16 n=65 v=64
169860 On ch=16 n=62 v=18
169860 On ch=16 n=64 v=18
169884 Off ch=16 n=60 v=64
169920 Off ch=16 n=64 v=64
169920 On ch=16 n=60 v=18
169920 On ch=16 n=65 v=18
169944 Off ch=16 n=62 v=64
169980 Off ch=16 n=65 v=64
169980 On ch=16 n=62 v=18
169980 On ch=16 n=64 v=18
170004 Off ch=16 n=60 v=64
170040 Off ch=16 n=64 v=64
170040 On ch=16 n=60 v=18
170040 On ch=16 n=65 v=18
170064 Off ch=16 n=62 v=64
170100 Off ch=16 n=65 v=64
170100 On ch=16 n=62 v=18
170100 On ch=16 n=64 v=18
170124 Off ch=16 n=60 v=64
170160 Off ch=16 n=64 v=64
170160 On ch=16 n=60 v=18
170160 On ch=16 n=65 v=18
170184 Off ch=16 n=62 v=64
170220 Off ch=16 n=65 v=64
170220 On ch=16 n=62 v=18
170220 On ch=16 n=64 v=18
170244 Off ch=16 n=60 v=64
170280 Off ch=16 n=64 v=64
170280 On ch=16 n=60 v=18
170280 On ch=16 n=65 v=18
170304 Off ch=16 n=62 v=64
170340 Off ch=16 n=65 v=64
170340 On ch=16 n=62 v=18
170340 On ch=16 n=64 v=18
170364 Off ch=16 n=60 v=64
170400 Off ch=16 n=64 v=64
170400 On ch=16 n=60 v=18
170400 On ch=16 n=65 v=18
170424 Off ch=16 n=62 v=64
170460 Off ch=16 n=65 v=64
170460 On ch=16 n=62 v=18
170460 On ch=16 n=64 v=18
170484 Off ch=16 n=60 v=64
170520 Off ch=16 n=64 v=64
170520 On ch=16 n=60 v=18
170520 On ch=16 n=65 v=18
170544 Off ch=16 n=62 v=64
170580 Off ch=16 n=65 v=64
170580 On ch=16 n=62 v=18
170580 On ch=16 n=64 v=18
170604 Off ch=16 n=60 v=64
170640 Off ch=16 n=64 v=64
170640 On ch=16 n=60 v=18
170640 On ch=16 n=65 v=18
170664 Off ch=16 n=62 v=64
170700 Off ch=16 n=65 v=64
170700 On ch=16 n=62 v=18
170700 On ch=16 n=64 v=18
170724 Off ch=16 n=60 v=64
170760 Off ch=16 n=64 v=64
170760 On ch=16 n=60 v=18
170760 On ch=16 n=65 v=18
170784 Off ch=16 n=62 v=64
170820 Off ch=16 n=65 v=64
170820 On ch=16 n=62 v=18
170820 On ch=16 n=64 v=18
170844 Off ch=16 n=60 v=64
170880 Off ch=16 n=64 v=64
170880 On ch=16 n=60 v=18
170880 On ch=16 n=65 v=18
170904 Off ch=16 n=62 v=64
170940 Off ch=16 n=65 v=64
170940 On ch=16 n=62 v=18
170940 On ch=16 n=64 v=18
170964 Off ch=16 n=60 v=64
171000 Off ch=16 n=64 v=64
171000 On ch=16 n=60 v=18
171000 On ch=16 n=65 v=18
171024 Off ch=16 n=62 v=64
171060 Off ch=16 n=65 v=64
171060 On ch=16 n=62 v=18
171060 On ch=16 n=64 v=18
171084 Off ch=16 n=60 v=64
171120 Off ch=16 n=64 v=64
171120 On ch=16 n=60 v=18
171120 On ch=16 n=65 v=18
171144 Off ch=16 n=62 v=64
171180 Off ch=16 n=65 v=64
171180 On ch=16 n=62 v=18
171180 On ch=16 n=64 v=18
171204 Off ch=16 n=60 v=64
171240 Off ch=16 n=64 v=64
171240 On ch=16 n=60 v=18
171240 On ch=16 n=65 v=18
171264 Off ch=16 n=62 v=64
171300 Off ch=16 n=65 v=64
171300 On ch=16 n=62 v=18
171300 On ch=16 n=64 v=18
171324 Off ch=16 n=60 v=64
171360 Off ch=16 n=64 v=64
171360 On ch=16 n=60 v=18
171360 On ch=16 n=65 v=21
171384 Off ch=16 n=62 v=64
171420 Off ch=16 n=65 v=64
171420 On ch=16 n=62 v=18
171420 On ch=16 n=64 v=18
171444 Off ch=16 n=60 v=64
171480 Off ch=16 n=64 v=64
171480 On ch=16 n=60 v=18
171480 On ch=16 n=65 v=18
171504 Off ch=16 n=62 v=64
171540 Off ch=16 n=65 v=64
171540 On ch=16 n=62 v=18
171540 On ch=16 n=64 v=18
171564 Off ch=16 n=60 v=64
171600 Off ch=16 n=64 v=64
171600 On ch=16 n=60 v=18
171600 On ch=16 n=65 v=18
171624 Off ch=16 n=62 v=64
171660 Off ch=16 n=65 v=64
171660 On ch=16 n=62 v=18
171660 On ch=16 n=64 v=18
171684 Off ch=16 n=60 v=64
171720 Off ch=16 n=64 v=64
171720 On ch=16 n=60 v=18
171720 On ch=16 n=65 v=18
171744 Off ch=16 n=62 v=64
171780 Off ch=16 n=65 v=64
171780 On ch=16 n=62 v=18
171780 On ch=16 n=64 v=18
171804 Off ch=16 n=60 v=64
171840 Off ch=16 n=64 v=64
171840 On ch=16 n=60 v=18
171840 On ch=16 n=65 v=18
171864 Off ch=16 n=62 v=64
171900 Off ch=16 n=65 v=64
171900 On ch=16 n=62 v=18
171900 On ch=16 n=64 v=18
171924 Off ch=16 n=60 v=64
171960 Off ch=16 n=64 v=64
171960 On ch=16 n=60 v=18
171960 On ch=16 n=65 v=18
171984 Off ch=16 n=62 v=64
172020 Off ch=16 n=65 v=64
172020 On ch=16 n=62 v=18
172020 On ch=16 n=64 v=18
172044 Off ch=16 n=60 v=64
172080 Off ch=16 n=64 v=64
172080 On ch=16 n=60 v=18
172080 On ch=16 n=65 v=18
172104 Off ch=16 n=62 v=64
172140 Off ch=16 n=65 v=64
172140 On ch=16 n=62 v=18
172140 On ch=16 n=64 v=18
172164 Off ch=16 n=60 v=64
172200 Off ch=16 n=64 v=64
172200 On ch=16 n=60 v=18
172200 On ch=16 n=65 v=18
172224 Off ch=16 n=62 v=64
172260 Off ch=16 n=65 v=64
172260 On ch=16 n=62 v=18
172260 On ch=16 n=64 v=18
172284 Off ch=16 n=60 v=64
172320 Off ch=16 n=64 v=64
172320 On ch=16 n=60 v=18
172320 On ch=16 n=65 v=18
172344 Off ch=16 n=62 v=64
172380 Off ch=16 n=65 v=64
172380 On ch=16 n=62 v=18
172380 On ch=16 n=64 v=18
172404 Off ch=16 n=60 v=64
172440 Off ch=16 n=64 v=64
172440 On ch=16 n=60 v=18
172440 On ch=16 n=65 v=18
172464 Off ch=16 n=62 v=64
172500 Off ch=16 n=65 v=64
172500 On ch=16 n=62 v=18
172500 On ch=16 n=64 v=18
172524 Off ch=16 n=60 v=64
172560 Off ch=16 n=64 v=64
172560 On ch=16 n=60 v=18
172560 On ch=16 n=65 v=18
172584 Off ch=16 n=62 v=64
172620 Off ch=16 n=65 v=64
172620 On ch=16 n=62 v=18
172620 On ch=16 n=64 v=18
172644 Off ch=16 n=60 v=64
172680 Off ch=16 n=64 v=64
172680 On ch=16 n=60 v=18
172680 On ch=16 n=65 v=18
172704 Off ch=16 n=62 v=64
172740 Off ch=16 n=65 v=64
172740 On ch=16 n=62 v=18
172740 On ch=16 n=64 v=18
172764 Off ch=16 n=60 v=64
172800 Off ch=16 n=64 v=64
172800 On ch=16 n=60 v=18
172800 On ch=16 n=65 v=18
172824 Off ch=16 n=62 v=64
172860 Off ch=16 n=65 v=64
172860 On ch=16 n=62 v=18
172860 On ch=16 n=64 v=18
172884 Off ch=16 n=60 v=64
172920 Off ch=16 n=64 v=64
172920 On ch=16 n=60 v=18
172920 On ch=16 n=65 v=18
172944 Off ch=16 n=62 v=64
172980 Off ch=16 n=65 v=64
172980 On ch=16 n=62 v=18
172980 On ch=16 n=64 v=18
173004 Off ch=16 n=60 v=64
173040 Off ch=16 n=64 v=64
173040 On ch=16 n=60 v=18
173040 On ch=16 n=65 v=18
173064 Off ch=16 n=62 v=64
173100 Off ch=16 n=65 v=64
173100 On ch=16 n=62 v=18
173100 On ch=16 n=64 v=18
173124 Off ch=16 n=60 v=64
173160 Off ch=16 n=64 v=64
173160 On ch=16 n=60 v=18
173160 On ch=16 n=65 v=18
173184 Off ch=16 n=62 v=64
173220 Off ch=16 n=65 v=64
173220 On ch=16 n=62 v=18
173220 On ch=16 n=64 v=18
173244 Off ch=16 n=60 v=64
173280 Off ch=16 n=64 v=64
173280 On ch=16 n=60 v=18
173280 On ch=16 n=65 v=21
173304 Off ch=16 n=62 v=64
173340 Off ch=16 n=65 v=64
173340 On ch=16 n=62 v=18
173340 On ch=16 n=64 v=18
173364 Off ch=16 n=60 v=64
173400 Off ch=16 n=64 v=64
173400 On ch=16 n=60 v=18
173400 On ch=16 n=65 v=18
173424 Off ch=16 n=62 v=64
173460 Off ch=16 n=65 v=64
173460 On ch=16 n=62 v=18
173460 On ch=16 n=64 v=18
173484 Off ch=16 n=60 v=64
173520 Off ch=16 n=64 v=64
173520 On ch=16 n=60 v=18
173520 On ch=16 n=65 v=18
173544 Off ch=16 n=62 v=64
173580 Off ch=16 n=65 v=64
173580 On ch=16 n=62 v=18
173580 On ch=16 n=64 v=18
173604 Off ch=16 n=60 v=64
173640 Off ch=16 n=64 v=64
173640 On ch=16 n=60 v=18
173640 On ch=16 n=65 v=18
173664 Off ch=16 n=62 v=64
173700 Off ch=16 n=65 v=64
173700 On ch=16 n=62 v=18
173700 On ch=16 n=64 v=18
173724 Off ch=16 n=60 v=64
173760 Off ch=16 n=64 v=64
173760 On ch=16 n=60 v=18
173760 On ch=16 n=65 v=18
173784 Off ch=16 n=62 v=64
173820 Off ch=16 n=65 v=64
173820 On ch=16 n=62 v=18
173820 On ch=16 n=64 v=18
173844 Off ch=16 n=60 v=64
173880 Off ch=16 n=64 v=64
173880 On ch=16 n=60 v=18
173880 On ch=16 n=65 v=18
173904 Off ch=16 n=62 v=64
173940 Off ch=16 n=65 v=64
173940 On ch=16 n=62 v=18
173940 On ch=16 n=64 v=18
173964 Off ch=16 n=60 v=64
174000 Off ch=16 n=64 v=64
174000 On ch=16 n=60 v=18
174000 On ch=16 n=65 v=18
174024 Off ch=16 n=62 v=64
174060 Off ch=16 n=65 v=64
174060 On ch=16 n=62 v=18
174060 On ch=16 n=64 v=18
174084 Off ch=16 n=60 v=64
174120 Off ch=16 n=64 v=64
174120 On ch=16 n=60 v=18
174120 On ch=16 n=65 v=18
174144 Off ch=16 n=62 v=64
174180 Off ch=16 n=65 v=64
174180 On ch=16 n=62 v=18
174180 On ch=16 n=64 v=18
174204 Off ch=16 n=60 v=64
174240 Off ch=16 n=64 v=64
174240 On ch=16 n=60 v=18
174240 On ch=16 n=65 v=18
174264 Off ch=16 n=62 v=64
174300 Off ch=16 n=65 v=64
174300 On ch=16 n=62 v=18
174300 On ch=16 n=64 v=18
174324 Off ch=16 n=60 v=64
174360 Off ch=16 n=64 v=64
174360 On ch=16 n=60 v=18
174360 On ch=16 n=65 v=18
174384 Off ch=16 n=62 v=64
174420 Off ch=16 n=65 v=64
174420 On ch=16 n=62 v=18
174420 On ch=16 n=64 v=18
174444 Off ch=16 n=60 v=64
174480 Off ch=16 n=64 v=64
174480 On ch=16 n=60 v=18
174480 On ch=16 n=65 v=18
174504 Off ch=16 n=62 v=64
174540 Off ch=16 n=65 v=64
174540 On ch=16 n=62 v=18
174540 On ch=16 n=64 v=18
174564 Off ch=16 n=60 v=64
174600 Off ch=16 n=64 v=64
174600 On ch=16 n=60 v=18
174600 On ch=16 n=65 v=18
174624 Off ch=16 n=62 v=64
174660 Off ch=16 n=65 v=64
174660 On ch=16 n=62 v=18
174660 On ch=16 n=64 v=18
174684 Off ch=16 n=60 v=64
174720 Off ch=16 n=64 v=64
174720 On ch=16 n=60 v=18
174720 On ch=16 n=65 v=18
174744 Off ch=16 n=62 v=64
174780 Off ch=16 n=65 v=64
174780 On ch=16 n=62 v=18
174780 On ch=16 n=64 v=18
174804 Off ch=16 n=60 v=64
174840 Off ch=16 n=64 v=64
174840 On ch=16 n=60 v=18
174840 On ch=16 n=65 v=18
174864 Off ch=16 n=62 v=64
174900 Off ch=16 n=65 v=64
174900 On ch=16 n=62 v=18
174900 On ch=16 n=64 v=18
174924 Off ch=16 n=60 v=64
174960 Off ch=16 n=64 v=64
174960 On ch=16 n=60 v=18
174960 On ch=16 n=65 v=18
174984 Off ch=16 n=62 v=64
175020 Off ch=16 n=65 v=64
175020 On ch=16 n=62 v=18
175020 On ch=16 n=64 v=18
175044 Off ch=16 n=60 v=64
175080 Off ch=16 n=64 v=64
175080 On ch=16 n=60 v=18
175080 On ch=16 n=65 v=18
175104 Off ch=16 n=62 v=64
175140 Off ch=16 n=65 v=64
175140 On ch=16 n=62 v=18
175140 On ch=16 n=64 v=18
175164 Off ch=16 n=60 v=64
175200 Off ch=16 n=64 v=64
175200 On ch=16 n=60 v=18
175200 On ch=16 n=65 v=21
175224 Off ch=16 n=62 v=64
175260 Off ch=16 n=65 v=64
175260 On ch=16 n=62 v=18
175260 On ch=16 n=64 v=18
175284 Off ch=16 n=60 v=64
175320 Off ch=16 n=64 v=64
175320 On ch=16 n=60 v=18
175320 On ch=16 n=65 v=18
175344 Off ch=16 n=62 v=64
175380 Off ch=16 n=65 v=64
175380 On ch=16 n=62 v=18
175380 On ch=16 n=64 v=18
175404 Off ch=16 n=60 v=64
175440 Off ch=16 n=64 v=64
175440 On ch=16 n=60 v=18
175440 On ch=16 n=65 v=18
175464 Off ch=16 n=62 v=64
175500 Off ch=16 n=65 v=64
175500 On ch=16 n=62 v=18
175500 On ch=16 n=64 v=18
175524 Off ch=16 n=60 v=64
175560 Off ch=16 n=64 v=64
175560 On ch=16 n=60 v=18
175560 On ch=16 n=65 v=18
175584 Off ch=16 n=62 v=64
175620 Off ch=16 n=65 v=64
175620 On ch=16 n=62 v=18
175620 On ch=16 n=64 v=18
175644 Off ch=16 n=60 v=64
175680 Off ch=16 n=64 v=64
175680 On ch=16 n=60 v=18
175680 On ch=16 n=65 v=18
175704 Off ch=16 n=62 v=64
175740 Off ch=16 n=65 v=64
175740 On ch=16 n=62 v=18
175740 On ch=16 n=64 v=18
175764 Off ch=16 n=60 v=64
175800 Off ch=16 n=64 v=64
175800 On ch=16 n=60 v=18
175800 On ch=16 n=65 v=18
175824 Off ch=16 n=62 v=64
175860 Off ch=16 n=65 v=64
175860 On ch=16 n=62 v=18
175860 On ch=16 n=64 v=18
175884 Off ch=16 n=60 v=64
175920 Off ch=16 n=64 v=64
175920 On ch=16 n=60 v=18
175920 On ch=16 n=65 v=18
175944 Off ch=16 n=62 v=64
175980 Off ch=16 n=65 v=64
175980 On ch=16 n=62 v=18
175980 On ch=16 n=64 v=18
176004 Off ch=16 n=60 v=64
176040 Off ch=16 n=64 v=64
176040 On ch=16 n=60 v=18
176040 On ch=16 n=65 v=18
176064 Off ch=16 n=62 v=64
176100 Off ch=16 n=65 v=64
176100 On ch=16 n=62 v=18
176100 On ch=16 n=64 v=18
176124 Off ch=16 n=60 v=64
176160 Off ch=16 n=64 v=64
176160 On ch=16 n=60 v=18
176160 On ch=16 n=65 v=18
176184 Off ch=16 n=62 v=64
176220 Off ch=16 n=65 v=64
176220 On ch=16 n=62 v=18
176220 On ch=16 n=64 v=18
176244 Off ch=16 n=60 v=64
176280 Off ch=16 n=64 v=64
176280 On ch=16 n=60 v=18
176280 On ch=16 n=65 v=18
176304 Off ch=16 n=62 v=64
176340 Off ch=16 n=65 v=64
176340 On ch=16 n=62 v=18
176340 On ch=16 n=64 v=18
176364 Off ch=16 n=60 v=64
176400 Off ch=16 n=64 v=64
176400 On ch=16 n=60 v=18
176400 On ch=16 n=65 v=18
176424 Off ch=16 n=62 v=64
176460 Off ch=16 n=65 v=64
176460 On ch=16 n=62 v=18
176460 On ch=16 n=64 v=18
176484 Off ch=16 n=60 v=64
176520 Off ch=16 n=64 v=64
176520 On ch=16 n=60 v=18
176520 On ch=16 n=65 v=18
176544 Off ch=16 n=62 v=64
176580 Off ch=16 n=65 v=64
176580 On ch=16 n=62 v=18
176580 On ch=16 n=64 v=18
176604 Off ch=16 n=60 v=64
176640 Off ch=16 n=64 v=64
176640 On ch=16 n=60 v=18
176640 On ch=16 n=65 v=18
176664 Off ch=16 n=62 v=64
176700 Off ch=16 n=65 v=64
176700 On ch=16 n=62 v=18
176700 On ch=16 n=64 v=18
176724 Off ch=16 n=60 v=64
176760 Off ch=16 n=64 v=64
176760 On ch=16 n=60 v=18
176760 On ch=16 n=65 v=18
176784 Off ch=16 n=62 v=64
176820 Off ch=16 n=65 v=64
176820 On ch=16 n=62 v=18
176820 On ch=16 n=64 v=18
176844 Off ch=16 n=60 v=64
176880 Off ch=16 n=64 v=64
176880 On ch=16 n=60 v=18
176880 On ch=16 n=65 v=18
176904 Off ch=16 n=62 v=64
176940 Off ch=16 n=65 v=64
176940 On ch=16 n=62 v=18
176940 On ch=16 n=64 v=18
176964 Off ch=16 n=60 v=64
177000 Off ch=16 n=64 v=64
177000 On ch=16 n=60 v=18
177000 On ch=16 n=65 v=18
177024 Off ch=16 n=62 v=64
177060 Off ch=16 n=65 v=64
177060 On ch=16 n=62 v=18
177060 On ch=16 n=64 v=18
177084 Off ch=16 n=60 v=64
177120 Off ch=16 n=64 v=64
177120 On ch=16 n=60 v=18
177120 On ch=16 n=65 v=21
177144 Off ch=16 n=62 v=64
177180 Off ch=16 n=65 v=64
177180 On ch=16 n=62 v=18
177180 On ch=16 n=64 v=18
177204 Off ch=16 n=60 v=64
177240 Off ch=16 n=64 v=64
177240 On ch=16 n=60 v=18
177240 On ch=16 n=65 v=18
177264 Off ch=16 n=62 v=64
177300 Off ch=16 n=65 v=64
177300 On ch=16 n=62 v=18
177300 On ch=16 n=64 v=18
177324 Off ch=16 n=60 v=64
177360 Off ch=16 n=64 v=64
177360 On ch=16 n=60 v=18
177360 On ch=16 n=65 v=18
177384 Off ch=16 n=62 v=64
177420 Off ch=16 n=65 v=64
177420 On ch=16 n=62 v=18
177420 On ch=16 n=64 v=18
177444 Off ch=16 n=60 v=64
177480 Off ch=16 n=64 v=64
177480 On ch=16 n=60 v=18
177480 On ch=16 n=65 v=18
177504 Off ch=16 n=62 v=64
177540 Off ch=16 n=65 v=64
177540 On ch=16 n=62 v=18
177540 On ch=16 n=64 v=18
177564 Off ch=16 n=60 v=64
177600 Off ch=16 n=64 v=64
177600 On ch=16 n=60 v=18
177600 On ch=16 n=65 v=18
177624 Off ch=16 n=62 v=64
177660 Off ch=16 n=65 v=64
177660 On ch=16 n=62 v=18
177660 On ch=16 n=64 v=18
177684 Off ch=16 n=60 v=64
177720 Off ch=16 n=64 v=64
177720 On ch=16 n=60 v=18
177720 On ch=16 n=65 v=18
177744 Off ch=16 n=62 v=64
177780 Off ch=16 n=65 v=64
177780 On ch=16 n=62 v=18
177780 On ch=16 n=64 v=18
177804 Off ch=16 n=60 v=64
177840 Off ch=16 n=64 v=64
177840 On ch=16 n=60 v=18
177840 On ch=16 n=65 v=18
177864 Off ch=16 n=62 v=64
177900 Off ch=16 n=65 v=64
177900 On ch=16 n=62 v=18
177900 On ch=16 n=64 v=18
177924 Off ch=16 n=60 v=64
177960 Off ch=16 n=64 v=64
177960 On ch=16 n=60 v=18
177960 On ch=16 n=65 v=18
177984 Off ch=16 n=62 v=64
178020 Off ch=16 n=65 v=64
178020 On ch=16 n=62 v=18
178020 On ch=16 n=64 v=18
178044 Off ch=16 n=60 v=64
178080 Off ch=16 n=64 v=64
178080 On ch=16 n=60 v=18
178080 On ch=16 n=65 v=18
178104 Off ch=16 n=62 v=64
178140 Off ch=16 n=65 v=64
178140 On ch=16 n=62 v=18
178140 On ch=16 n=64 v=18
178164 Off ch=16 n=60 v=64
178200 Off ch=16 n=64 v=64
178200 On ch=16 n=60 v=18
178200 On ch=16 n=65 v=18
178224 Off ch=16 n=62 v=64
178260 Off ch=16 n=65 v=64
178260 On ch=16 n=62 v=18
178260 On ch=16 n=64 v=18
178284 Off ch=16 n=60 v=64
178320 Off ch=16 n=64 v=64
178320 On ch=16 n=60 v=18
178320 On ch=16 n=65 v=18
178344 Off ch=16 n=62 v=64
178380 Off ch=16 n=65 v=64
178380 On ch=16 n=62 v=18
178380 On ch=16 n=64 v=18
178404 Off ch=16 n=60 v=64
178440 Off ch=16 n=64 v=64
178440 On ch=16 n=60 v=18
178440 On ch=16 n=65 v=18
178464 Off ch=16 n=62 v=64
178500 Off ch=16 n=65 v=64
178500 On ch=16 n=62 v=18
178500 On ch=16 n=64 v=18
178524 Off ch=16 n=60 v=64
178560 Off ch=16 n=64 v=64
178560 On ch=16 n=60 v=18
178560 On ch=16 n=65 v=18
178584 Off ch=16 n=62 v=64
178620 Off ch=16 n=65 v=64
178620 On ch=16 n=62 v=18
178620 On ch=16 n=64 v=18
178644 Off ch=16 n=60 v=64
178680 Off ch=16 n=64 v=64
178680 On ch=16 n=60 v=18
178680 On ch=16 n=65 v=18
178704 Off ch=16 n=62 v=64
178740 Off ch=16 n=65 v=64
178740 On ch=16 n=62 v=18
178740 On ch=16 n=64 v=18
178764 Off ch=16 n=60 v=64
178800 Off ch=16 n=64 v=64
178800 On ch=16 n=60 v=18
178800 On ch=16 n=65 v=18
178824 Off ch=16 n=62 v=64
178860 Off ch=16 n=65 v=64
178860 On ch=16 n=62 v=18
178860 On ch=16 n=64 v=18
178884 Off ch=16 n=60 v=64
178920 Off ch=16 n=64 v=64
178920 On ch=16 n=60 v=18
178920 On ch=16 n=65 v=18
178944 Off ch=16 n=62 v=64
178980 Off ch=16 n=65 v=64
178980 On ch=16 n=62 v=18
178980 On ch=16 n=64 v=18
179004 Off ch=16 n=60 v=64
179040 Off ch=16 n=64 v=64
179040 On ch=16 n=60 v=18
179040 On ch=16 n=65 v=21
179064 Off ch=16 n=62 v=64
179100 Off ch=16 n=65 v=64
179100 On ch=16 n=62 v=18
179100 On ch=16 n=64 v=18
179124 Off ch=16 n=60 v=64
179160 Off ch=16 n=64 v=64
179160 On ch=16 n=60 v=18
179160 On ch=16 n=65 v=18
179184 Off ch=16 n=62 v=64
179220 Off ch=16 n=65 v=64
179220 On ch=16 n=62 v=18
179220 On ch=16 n=64 v=18
179244 Off ch=16 n=60 v=64
179280 Off ch=16 n=64 v=64
179280 On ch=16 n=60 v=18
179280 On ch=16 n=65 v=18
179304 Off ch=16 n=62 v=64
179340 Off ch=16 n=65 v=64
179340 On ch=16 n=62 v=18
179340 On ch=16 n=64 v=18
179364 Off ch=16 n=60 v=64
179400 Off ch=16 n=64 v=64
179400 On ch=16 n=60 v=18
179400 On ch=16 n=65 v=18
179424 Off ch=16 n=62 v=64
179460 Off ch=16 n=65 v=64
179460 On ch=16 n=62 v=18
179460 On ch=16 n=64 v=18
179484 Off ch=16 n=60 v=64
179520 Off ch=16 n=64 v=64
179520 On ch=16 n=60 v=18
179520 On ch=16 n=65 v=18
179544 Off ch=16 n=62 v=64
179580 Off ch=16 n=65 v=64
179580 On ch=16 n=62 v=18
179580 On ch=16 n=64 v=18
179604 Off ch=16 n=60 v=64
179640 Off ch=16 n=64 v=64
179640 On ch=16 n=60 v=18
179640 On ch=16 n=65 v=18
179664 Off ch=16 n=62 v=64
179700 Off ch=16 n=65 v=64
179700 On ch=16 n=62 v=18
179700 On ch=16 n=64 v=18
179724 Off ch=16 n=60 v=64
179760 Off ch=16 n=64 v=64
179760 On ch=16 n=60 v=18
179760 On ch=16 n=65 v=18
179784 Off ch=16 n=62 v=64
179820 Off ch=16 n=65 v=64
179820 On ch=16 n=62 v=18
179820 On ch=16 n=64 v=18
179844 Off ch=16 n=60 v=64
179880 Off ch=16 n=64 v=64
179880 On ch=16 n=60 v=18
179880 On ch=16 n=65 v=18
179904 Off ch=16 n=62 v=64
179940 Off ch=16 n=65 v=64
179940 On ch=16 n=62 v=18
179940 On ch=16 n=64 v=18
179964 Off ch=16 n=60 v=64
180000 Off ch=16 n=64 v=64
180000 On ch=16 n=60 v=18
180000 On ch=16 n=65 v=18
180024 Off ch=16 n=62 v=64
180060 Off ch=16 n=65 v=64
180060 On ch=16 n=62 v=18
180060 On ch=16 n=64 v=18
180084 Off ch=16 n=60 v=64
180120 Off ch=16 n=64 v=64
180120 On ch=16 n=60 v=18
180120 On ch=16 n=65 v=18
180144 Off ch=16 n=62 v=64
180180 Off ch=16 n=65 v=64
180180 On ch=16 n=62 v=18
180180 On ch=16 n=64 v=18
180204 Off ch=16 n=60 v=64
180240 Off ch=16 n=64 v=64
180240 On ch=16 n=60 v=18
180240 On ch=16 n=65 v=18
180264 Off ch=16 n=62 v=64
180300 Off ch=16 n=65 v=64
180300 On ch=16 n=62 v=18
180300 On ch=16 n=64 v=18
180324 Off ch=16 n=60 v=64
180360 Off ch=16 n=64 v=64
180360 On ch=16 n=60 v=18
180360 On ch=16 n=65 v=18
180384 Off ch=16 n=62 v=64
180420 Off ch=16 n=65 v=64
180420 On ch=16 n=62 v=18
180420 On ch=16 n=64 v=18
180444 Off ch=16 n=60 v=64
180480 Off ch=16 n=64 v=64
180480 On ch=16 n=60 v=18
180480 On ch=16 n=65 v=18
180504 Off ch=16 n=62 v=64
180540 Off ch=16 n=65 v=64
180540 On ch=16 n=62 v=18
180540 On ch=16 n=64 v=18
180564 Off ch=16 n=60 v=64
180600 Off ch=16 n=64 v=64
180600 On ch=16 n=60 v=18
180600 On ch=16 n=65 v=18
180624 Off ch=16 n=62 v=64
180660 Off ch=16 n=65 v=64
180660 On ch=16 n=62 v=18
180660 On ch=16 n=64 v=18
180684 Off ch=16 n=60 v=64
180720 Off ch=16 n=64 v=64
180720 On ch=16 n=60 v=18
180720 On ch=16 n=65 v=18
180744 Off ch=16 n=62 v=64
180780 Off ch=16 n=65 v=64
180780 On ch=16 n=62 v=18
180780 On ch=16 n=64 v=18
180804 Off ch=16 n=60 v=64
180840 Off ch=16 n=64 v=64
180840 On ch=16 n=60 v=18
180840 On ch=16 n=65 v=18
180864 Off ch=16 n=62 v=64
180900 Off ch=16 n=65 v=64
180900 On ch=16 n=62 v=18
180900 On ch=16 n=64 v=18
180924 Off ch=16 n=60 v=64
180960 Off ch=16 n=64 v=64
180960 On ch=16 n=60 v=18
180960 On ch=16 n=65 v=21
180984 Off ch=16 n=62 v=64
181020 Off ch=16 n=65 v=64
181020 On ch=16 n=62 v=18
181020 On ch=16 n=64 v=18
181044 Off ch=16 n=60 v=64
181080 Off ch=16 n=64 v=64
181080 On ch=16 n=60 v=18
181080 On ch=16 n=65 v=18
181104 Off ch=16 n=62 v=64
181140 Off ch=16 n=65 v=64
181140 On ch=16 n=62 v=18
181140 On ch=16 n=64 v=18
181164 Off ch=16 n=60 v=64
181200 Off ch=16 n=64 v=64
181200 On ch=16 n=60 v=18
181200 On ch=16 n=65 v=18
181224 Off ch=16 n=62 v=64
181260 Off ch=16 n=65 v=64
181260 On ch=16 n=62 v=18
181260 On ch=16 n=64 v=18
181284 Off ch=16 n=60 v=64
181320 Off ch=16 n=64 v=64
181320 On ch=16 n=60 v=18
181320 On ch=16 n=65 v=18
181344 Off ch=16 n=62 v=64
181380 Off ch=16 n=65 v=64
181380 On ch=16 n=62 v=18
181380 On ch=16 n=64 v=18
181404 Off ch=16 n=60 v=64
181440 Off ch=16 n=64 v=64
181440 On ch=16 n=60 v=18
181440 On ch=16 n=65 v=18
181464 Off ch=16 n=62 v=64
181500 Off ch=16 n=65 v=64
181500 On ch=16 n=62 v=18
181500 On ch=16 n=64 v=18
181524 Off ch=16 n=60 v=64
181560 Off ch=16 n=64 v=64
181560 On ch=16 n=60 v=18
181560 On ch=16 n=65 v=18
181584 Off ch=16 n=62 v=64
181620 Off ch=16 n=65 v=64
181620 On ch=16 n=62 v=18
181620 On ch=16 n=64 v=18
181644 Off ch=16 n=60 v=64
181680 Off ch=16 n=64 v=64
181680 On ch=16 n=60 v=18
181680 On ch=16 n=65 v=18
181704 Off ch=16 n=62 v=64
181740 Off ch=16 n=65 v=64
181740 On ch=16 n=62 v=18
181740 On ch=16 n=64 v=18
181764 Off ch=16 n=60 v=64
181800 Off ch=16 n=64 v=64
181800 On ch=16 n=60 v=18
181800 On ch=16 n=65 v=18
181824 Off ch=16 n=62 v=64
181860 Off ch=16 n=65 v=64
181860 On ch=16 n=62 v=18
181860 On ch=16 n=64 v=18
181884 Off ch=16 n=60 v=64
181920 Off ch=16 n=64 v=64
181920 On ch=16 n=60 v=18
181920 On ch=16 n=65 v=18
181944 Off ch=16 n=62 v=64
181980 Off ch=16 n=65 v=64
181980 On ch=16 n=62 v=18
181980 On ch=16 n=64 v=18
182004 Off ch=16 n=60 v=64
182040 Off ch=16 n=64 v=64
182040 On ch=16 n=60 v=18
182040 On ch=16 n=65 v=18
182064 Off ch=16 n=62 v=64
182100 Off ch=16 n=65 v=64
182100 On ch=16 n=62 v=18
182100 On ch=16 n=64 v=18
182124 Off ch=16 n=60 v=64
182160 Off ch=16 n=64 v=64
182160 On ch=16 n=60 v=18
182160 On ch=16 n=65 v=18
182184 Off ch=16 n=62 v=64
182220 Off ch=16 n=65 v=64
182220 On ch=16 n=62 v=18
182220 On ch=16 n=64 v=18
182244 Off ch=16 n=60 v=64
182280 Off ch=16 n=64 v=64
182280 On ch=16 n=60 v=18
182280 On ch=16 n=65 v=18
182304 Off ch=16 n=62 v=64
182340 Off ch=16 n=65 v=64
182340 On ch=16 n=62 v=18
182340 On ch=16 n=64 v=18
182364 Off ch=16 n=60 v=64
182400 Off ch=16 n=64 v=64
182400 On ch=16 n=60 v=18
182400 On ch=16 n=65 v=18
182424 Off ch=16 n=62 v=64
182460 Off ch=16 n=65 v=64
182460 On ch=16 n=62 v=18
182460 On ch=16 n=64 v=18
182484 Off ch=16 n=60 v=64
182520 Off ch=16 n=64 v=64
182520 On ch=16 n=60 v=18
182520 On ch=16 n=65 v=18
182544 Off ch=16 n=62 v=64
182580 Off ch=16 n=65 v=64
182580 On ch=16 n=62 v=18
182580 On ch=16 n=64 v=18
182604 Off ch=16 n=60 v=64
182640 Off ch=16 n=64 v=64
182640 On ch=16 n=60 v=18
182640 On ch=16 n=65 v=18
182664 Off ch=16 n=62 v=64
182700 Off ch=16 n=65 v=64
182700 On ch=16 n=62 v=18
182700 On ch=16 n=64 v=18
182724 Off ch=16 n=60 v=64
182760 Off ch=16 n=64 v=64
182760 On ch=16 n=60 v=18
182760 On ch=16 n=65 v=18
182784 Off ch=16 n=62 v=64
182820 Off ch=16 n=65 v=64
182820 On ch=16 n=62 v=18
182820 On ch=16 n=64 v=18
182844 Off ch=16 n=60 v=64
182880 Off ch=16 n=64 v=64
182880 On ch=16 n=60 v=18
182880 On ch=16 n=65 v=21
182904 Off ch=16 n=62 v=64
182940 Off ch=16 n=65 v=64
182940 On ch=16 n=62 v=18
182940 On ch=16 n=64 v=18
182964 Off ch=16 n=60 v=64
183000 Off ch=16 n=64 v=64
183000 On ch=16 n=60 v=18
183000 On ch=16 n=65 v=18
183024 Off ch=16 n=62 v=64
183060 Off ch=16 n=65 v=64
183060 On ch=16 n=62 v=18
183060 On ch=16 n=64 v=18
183084 Off ch=16 n=60 v=64
183120 Off ch=16 n=64 v=64
183120 On ch=16 n=60 v=18
183120 On ch=16 n=65 v=18
183144 Off ch=16 n=62 v=64
183180 Off ch=16 n=65 v=64
183180 On ch=16 n=62 v=18
183180 On ch=16 n=64 v=18
183204 Off ch=16 n=60 v=64
183240 Off ch=16 n=64 v=64
183240 On ch=16 n=60 v=18
183240 On ch=16 n=65 v=18
183264 Off ch=16 n=62 v=64
183300 Off ch=16 n=65 v=64
183300 On ch=16 n=62 v=18
183300 On ch=16 n=64 v=18
183324 Off ch=16 n=60 v=64
183360 Off ch=16 n=64 v=64
183360 On ch=16 n=60 v=18
183360 On ch=16 n=65 v=18
183384 Off ch=16 n=62 v=64
183420 Off ch=16 n=65 v=64
183420 On ch=16 n=62 v=18
183420 On ch=16 n=64 v=18
183444 Off ch=16 n=60 v=64
183480 Off ch=16 n=64 v=64
183480 On ch=16 n=60 v=18
183480 On ch=16 n=65 v=18
183504 Off ch=16 n=62 v=64
183540 Off ch=16 n=65 v=64
183540 On ch=16 n=62 v=18
183540 On ch=16 n=64 v=18
183564 Off ch=16 n=60 v=64
183600 Off ch=16 n=64 v=64
183600 On ch=16 n=60 v=18
183600 On ch=16 n=65 v=18
183624 Off ch=16 n=62 v=64
183660 Off ch=16 n=65 v=64
183660 On ch=16 n=62 v=18
183660 On ch=16 n=64 v=18
183684 Off ch=16 n=60 v=64
183720 Off ch=16 n=64 v=64
183720 On ch=16 n=60 v=18
183720 On ch=16 n=65 v=18
183744 Off ch=16 n=62 v=64
183780 Off ch=16 n=65 v=64
183780 On ch=16 n=62 v=18
183780 On ch=16 n=64 v=18
183804 Off ch=16 n=60 v=64
183840 Off ch=16 n=64 v=64
183840 On ch=16 n=60 v=18
183840 On ch=16 n=65 v=18
183864 Off ch=16 n=62 v=64
183900 Off ch=16 n=65 v=64
183900 On ch=16 n=62 v=18
183900 On ch=16 n=64 v=18
183924 Off ch=16 n=60 v=64
183960 Off ch=16 n=64 v=64
183960 On ch=16 n=60 v=18
183960 On ch=16 n=65 v=18
183984 Off ch=16 n=62 v=64
184020 Off ch=16 n=65 v=64
184020 On ch=16 n=62 v=18
184020 On ch=16 n=64 v=18
184044 Off ch=16 n=60 v=64
184080 Off ch=16 n=64 v=64
184080 On ch=16 n=60 v=18
184080 On ch=16 n=65 v=18
184104 Off ch=16 n=62 v=64
184140 Off ch=16 n=65 v=64
184140 On ch=16 n=62 v=18
184140 On ch=16 n=64 v=18
184164 Off ch=16 n=60 v=64
184200 Off ch=16 n=64 v=64
184200 On ch=16 n=60 v=18
184200 On ch=16 n=65 v=18
184224 Off ch=16 n=62 v=64
184260 Off ch=16 n=65 v=64
184260 On ch=16 n=62 v=18
184260 On ch=16 n=64 v=18
184284 Off ch=16 n=60 v=64
184320 Off ch=16 n=64 v=64
184320 On ch=16 n=60 v=18
184320 On ch=16 n=65 v=18
184344 Off ch=16 n=62 v=64
184380 Off ch=16 n=65 v=64
184380 On ch=16 n=62 v=18
184380 On ch=16 n=64 v=18
184404 Off ch=16 n=60 v=64
184440 Off ch=16 n=64 v=64
184440 On ch=16 n=60 v=18
184440 On ch=16 n=65 v=18
184464 Off ch=16 n=62 v=64
184500 Off ch=16 n=65 v=64
184500 On ch=16 n=62 v=18
184500 On ch=16 n=64 v=18
184524 Off ch=16 n=60 v=64
184560 Off ch=16 n=64 v=64
184560 On ch=16 n=60 v=18
184560 On ch=16 n=65 v=18
184584 Off ch=16 n=62 v=64
184620 Off ch=16 n=65 v=64
184620 On ch=16 n=62 v=18
184620 On ch=16 n=64 v=18
184644 Off ch=16 n=60 v=64
184680 Off ch=16 n=64 v=64
184680 On ch=16 n=60 v=18
184680 On ch=16 n=65 v=18
184704 Off ch=16 n=62 v=64
184740 Off ch=16 n=65 v=64
184740 On ch=16 n=62 v=18
184740 On ch=16 n=64 v=18
184764 Off ch=16 n=60 v=64
184800 Off ch=16 n=64 v=64
184800 On ch=16 n=60 v=18
184800 On ch=16 n=65 v=21
184824 Off ch=16 n=62 v=64
184860 Off ch=16 n=65 v=64
184860 On ch=16 n=62 v=18
184860 On ch=16 n=64 v=18
184884 Off ch=16 n=60 v=64
184920 Off ch=16 n=64 v=64
184920 On ch=16 n=60 v=18
184920 On ch=16 n=65 v=18
184944 Off ch=16 n=62 v=64
184980 Off ch=16 n=65 v=64
184980 On ch=16 n=62 v=18
184980 On ch=16 n=64 v=18
185004 Off ch=16 n=60 v=64
185040 Off ch=16 n=64 v=64
185040 On ch=16 n=60 v=18
185040 On ch=16 n=65 v=18
185064 Off ch=16 n=62 v=64
185100 Off ch=16 n=65 v=64
185100 On ch=16 n=62 v=18
185100 On ch=16 n=64 v=18
185124 Off ch=16 n=60 v=64
185160 Off ch=16 n=64 v=64
185160 On ch=16 n=60 v=18
185160 On ch=16 n=65 v=18
185184 Off ch=16 n=62 v=64
185220 Off ch=16 n=65 v=64
185220 On ch=16 n=62 v=18
185220 On ch=16 n=64 v=18
185244 Off ch=16 n=60 v=64
185280 Off ch=16 n=64 v=64
185280 On ch=16 n=60 v=18
185280 On ch=16 n=65 v=18
185304 Off ch=16 n=62 v=64
185340 Off ch=16 n=65 v=64
185340 On ch=16 n=62 v=18
185340 On ch=16 n=64 v=18
185364 Off ch=16 n=60 v=64
185400 Off ch=16 n=64 v=64
185400 On ch=16 n=60 v=18
185400 On ch=16 n=65 v=18
185424 Off ch=16 n=62 v=64
185460 Off ch=16 n=65 v=64
185460 On ch=16 n=62 v=18
185460 On ch=16 n=64 v=18
185484 Off ch=16 n=60 v=64
185520 Off ch=16 n=64 v=64
185520 On ch=16 n=60 v=18
185520 On ch=16 n=65 v=18
185544 Off ch=16 n=62 v=64
185580 Off ch=16 n=65 v=64
185580 On ch=16 n=62 v=18
185580 On ch=16 n=64 v=18
185604 Off ch=16 n=60 v=64
185640 Off ch=16 n=64 v=64
185640 On ch=16 n=60 v=18
185640 On ch=16 n=65 v=18
185664 Off ch=16 n=62 v=64
185700 Off ch=16 n=65 v=64
185700 On ch=16 n=62 v=18
185700 On ch=16 n=64 v=18
185724 Off ch=16 n=60 v=64
185760 Off ch=16 n=64 v=64
185760 On ch=16 n=60 v=18
185760 On ch=16 n=65 v=18
185784 Off ch=16 n=62 v=64
185820 Off ch=16 n=65 v=64
185820 On ch=16 n=62 v=18
185820 On ch=16 n=64 v=18
185844 Off ch=16 n=60 v=64
185880 Off ch=16 n=64 v=64
185880 On ch=16 n=60 v=18
185880 On ch=16 n=65 v=18
185904 Off ch=16 n=62 v=64
185940 Off ch=16 n=65 v=64
185940 On ch=16 n=62 v=18
185940 On ch=16 n=64 v=18
185964 Off ch=16 n=60 v=64
186000 Off ch=16 n=64 v=64
186000 On ch=16 n=60 v=18
186000 On ch=16 n=65 v=18
186024 Off ch=16 n=62 v=64
186060 Off ch=16 n=65 v=64
186060 On ch=16 n=62 v=18
186060 On ch=16 n=64 v=18
186084 Off ch=16 n=60 v=64
186120 Off ch=16 n=64 v=64
186120 On ch=16 n=60 v=18
186120 On ch=16 n=65 v=18
186144 Off ch=16 n=62 v=64
186180 Off ch=16 n=65 v=64
186180 On ch=16 n=62 v=18
186180 On ch=16 n=64 v=18
186204 Off ch=16 n=60 v=64
186240 Off ch=16 n=64 v=64
186240 On ch=16 n=60 v=18
186240 On ch=16 n=65 v=18
186264 Off ch=16 n=62 v=64
186300 Off ch=16 n=65 v=64
186300 On ch=16 n=62 v=18
186300 On ch=16 n=64 v=18
186324 Off ch=16 n=60 v=64
186360 Off ch=16 n=64 v=64
186360 On ch=16 n=60 v=18
186360 On ch=16 n=65 v=18
186384 Off ch=16 n=62 v=64
186420 Off ch=16 n=65 v=64
186420 On ch=16 n=62 v=18
186420 On ch=16 n=64 v=18
186444 Off ch=16 n=60 v=64
186480 Off ch=16 n=64 v=64
186480 On ch=16 n=60 v=18
186480 On ch=16 n=65 v=18
186504 Off ch=16 n=62 v=64
186540 Off ch=16 n=65 v=64
186540 On ch=16 n=62 v=18
186540 On ch=16 n=64 v=18
186564 Off ch=16 n=60 v=64
186600 Off ch=16 n=64 v=64
186600 On ch=16 n=60 v=18
186600 On ch=16 n=65 v=18
186624 Off ch=16 n=62 v=64
186660 Off ch=16 n=65 v=64
186660 On ch=16 n=62 v=18
186660 On ch=16 n=64 v=18
186684 Off ch=16 n=60 v=64
186720 Off ch=16 n=64 v=64
186720 On ch=16 n=60 v=18
186720 On ch=16 n=65 v=21
186744 Off ch=16 n=62 v=64
186780 Off ch=16 n=65 v=64
186780 On ch=16 n=62 v=18
186780 On ch=16 n=64 v=18
186804 Off ch=16 n=60 v=64
186840 Off ch=16 n=64 v=64
186840 On ch=16 n=60 v=18
186840 On ch=16 n=65 v=18
186864 Off ch=16 n=62 v=64
186900 Off ch=16 n=65 v=64
186900 On ch=16 n=62 v=18
186900 On ch=16 n=64 v=18
186924 Off ch=16 n=60 v=64
186960 Off ch=16 n=64 v=64
186960 On ch=16 n=60 v=18
186960 On ch=16 n=65 v=18
186984 Off ch=16 n=62 v=64
187020 Off ch=16 n=65 v=64
187020 On ch=16 n=62 v=18
187020 On ch=16 n=64 v=18
187044 Off ch=16 n=60 v=64
187080 Off ch=16 n=64 v=64
187080 On ch=16 n=60 v=18
187080 On ch=16 n=65 v=18
187104 Off ch=16 n=62 v=64
187140 Off ch=16 n=65 v=64
187140 On ch=16 n=62 v=18
187140 On ch=16 n=64 v=18
187164 Off ch=16 n=60 v=64
187200 Off ch=16 n=64 v=64
187200 On ch=16 n=60 v=18
187200 On ch=16 n=65 v=18
187224 Off ch=16 n=62 v=64
187260 Off ch=16 n=65 v=64
187260 On ch=16 n=62 v=18
187260 On ch=16 n=64 v=18
187284 Off ch=16 n=60 v=64
187320 Off ch=16 n=64 v=64
187320 On ch=16 n=60 v=18
187320 On ch=16 n=65 v=18
187344 Off ch=16 n=62 v=64
187380 Off ch=16 n=65 v=64
187380 On ch=16 n=62 v=18
187380 On ch=16 n=64 v=18
187404 Off ch=16 n=60 v=64
187440 Off ch=16 n=64 v=64
187440 On ch=16 n=60 v=18
187440 On ch=16 n=65 v=18
187464 Off ch=16 n=62 v=64
187500 Off ch=16 n=65 v=64
187500 On ch=16 n=62 v=18
187500 On ch=16 n=64 v=18
187524 Off ch=16 n=60 v=64
187560 Off ch=16 n=64 v=64
187560 On ch=16 n=60 v=18
187560 On ch=16 n=65 v=18
187584 Off ch=16 n=62 v=64
187620 Off ch=16 n=65 v=64
187620 On ch=16 n=62 v=18
187620 On ch=16 n=64 v=18
187644 Off ch=16 n=60 v=64
187680 Off ch=16 n=64 v=64
187680 On ch=16 n=60 v=18
187680 On ch=16 n=65 v=18
187704 Off ch=16 n=62 v=64
187740 Off ch=16 n=65 v=64
187740 On ch=16 n=62 v=18
187740 On ch=16 n=64 v=18
187764 Off ch=16 n=60 v=64
187800 Off ch=16 n=64 v=64
187800 On ch=16 n=60 v=18
187800 On ch=16 n=65 v=18
187824 Off ch=16 n=62 v=64
187860 Off ch=16 n=65 v=64
187860 On ch=16 n=62 v=18
187860 On ch=16 n=64 v=18
187884 Off ch=16 n=60 v=64
187920 Off ch=16 n=64 v=64
187920 On ch=16 n=60 v=18
187920 On ch=16 n=65 v=18
187944 Off ch=16 n=62 v=64
187980 Off ch=16 n=65 v=64
187980 On ch=16 n=62 v=18
187980 On ch=16 n=64 v=18
188004 Off ch=16 n=60 v=64
188040 Off ch=16 n=64 v=64
188040 On ch=16 n=60 v=18
188040 On ch=16 n=65 v=18
188064 Off ch=16 n=62 v=64
188100 Off ch=16 n=65 v=64
188100 On ch=16 n=62 v=18
188100 On ch=16 n=64 v=18
188124 Off ch=16 n=60 v=64
188160 Off ch=16 n=64 v=64
188160 On ch=16 n=60 v=18
188160 On ch=16 n=65 v=18
188184 Off ch=16 n=62 v=64
188220 Off ch=16 n=65 v=64
188220 On ch=16 n=62 v=18
188220 On ch=16 n=64 v=18
188244 Off ch=16 n=60 v=64
188280 Off ch=16 n=64 v=64
188280 On ch=16 n=60 v=18
188280 On ch=16 n=65 v=18
188304 Off ch=16 n=62 v=64
188340 Off ch=16 n=65 v=64
188340 On ch=16 n=62 v=18
188340 On ch=16 n=64 v=18
188364 Off ch=16 n=60 v=64
188400 Off ch=16 n=64 v=64
188400 On ch=16 n=60 v=18
188400 On ch=16 n=65 v=18
188424 Off ch=16 n=62 v=64
188460 Off ch=16 n=65 v=64
188460 On ch=16 n=62 v=18
188460 On ch=16 n=64 v=18
188484 Off ch=16 n=60 v=64
188520 Off ch=16 n=64 v=64
188520 On ch=16 n=60 v=18
188520 On ch=16 n=65 v=18
188544 Off ch=16 n=62 v=64
188580 Off ch=16 n=65 v=64
188580 On ch=16 n=62 v=18
188580 On ch=16 n=64 v=18
188604 Off ch=16 n=60 v=64
188640 Off ch=16 n=64 v=64
188640 On ch=16 n=60 v=18
188640 On ch=16 n=65 v=21
188664 Off ch=16 n=62 v=64
188700 Off ch=16 n=65 v=64
188700 On ch=16 n=62 v=18
188700 On ch=16 n=64 v=18
188724 Off ch=16 n=60 v=64
188760 Off ch=16 n=64 v=64
188760 On ch=16 n=60 v=18
188760 On ch=16 n=65 v=18
188784 Off ch=16 n=62 v=64
188820 Off ch=16 n=65 v=64
188820 On ch=16 n=62 v=18
188820 On ch=16 n=64 v=18
188844 Off ch=16 n=60 v=64
188880 Off ch=16 n=64 v=64
188880 On ch=16 n=60 v=18
188880 On ch=16 n=65 v=18
188904 Off ch=16 n=62 v=64
188940 Off ch=16 n=65 v=64
188940 On ch=16 n=62 v=18
188940 On ch=16 n=64 v=18
188964 Off ch=16 n=60 v=64
189000 Off ch=16 n=64 v=64
189000 On ch=16 n=60 v=18
189000 On ch=16 n=65 v=18
189024 Off ch=16 n=62 v=64
189060 Off ch=16 n=65 v=64
189060 On ch=16 n=62 v=18
189060 On ch=16 n=64 v=18
189084 Off ch=16 n=60 v=64
189120 Off ch=16 n=64 v=64
189120 On ch=16 n=60 v=18
189120 On ch=16 n=65 v=18
189144 Off ch=16 n=62 v=64
189180 Off ch=16 n=65 v=64
189180 On ch=16 n=62 v=18
189180 On ch=16 n=64 v=18
189204 Off ch=16 n=60 v=64
189240 Off ch=16 n=64 v=64
189240 On ch=16 n=60 v=18
189240 On ch=16 n=65 v=18
189264 Off ch=16 n=62 v=64
189300 Off ch=16 n=65 v=64
189300 On ch=16 n=62 v=18
189300 On ch=16 n=64 v=18
189324 Off ch=16 n=60 v=64
189360 Off ch=16 n=64 v=64
189360 On ch=16 n=60 v=18
189360 On ch=16 n=65 v=18
189384 Off ch=16 n=62 v=64
189420 Off ch=16 n=65 v=64
189420 On ch=16 n=62 v=18
189420 On ch=16 n=64 v=18
189444 Off ch=16 n=60 v=64
189480 Off ch=16 n=64 v=64
189480 On ch=16 n=60 v=18
189480 On ch=16 n=65 v=18
189504 Off ch=16 n=62 v=64
189540 Off ch=16 n=65 v=64
189540 On ch=16 n=62 v=18
189540 On ch=16 n=64 v=18
189564 Off ch=16 n=60 v=64
189600 Off ch=16 n=64 v=64
189600 On ch=16 n=60 v=18
189600 On ch=16 n=65 v=18
189624 Off ch=16 n=62 v=64
189660 Off ch=16 n=65 v=64
189660 On ch=16 n=62 v=18
189660 On ch=16 n=64 v=18
189684 Off ch=16 n=60 v=64
189720 Off ch=16 n=64 v=64
189720 On ch=16 n=60 v=18
189720 On ch=16 n=65 v=18
189744 Off ch=16 n=62 v=64
189780 Off ch=16 n=65 v=64
189780 On ch=16 n=62 v=18
189780 On ch=16 n=64 v=18
189804 Off ch=16 n=60 v=64
189840 Off ch=16 n=64 v=64
189840 On ch=16 n=60 v=18
189840 On ch=16 n=65 v=18
189864 Off ch=16 n=62 v=64
189900 Off ch=16 n=65 v=64
189900 On ch=16 n=62 v=18
189900 On ch=16 n=64 v=18
189924 Off ch=16 n=60 v=64
189960 Off ch=16 n=64 v=64
189960 On ch=16 n=60 v=18
189960 On ch=16 n=65 v=18
189984 Off ch=16 n=62 v=64
190020 Off ch=16 n=65 v=64
190020 On ch=16 n=62 v=18
190020 On ch=16 n=64 v=18
190044 Off ch=16 n=60 v=64
190080 Off ch=16 n=64 v=64
190080 On ch=16 n=60 v=18
190080 On ch=16 n=65 v=18
190104 Off ch=16 n=62 v=64
190140 Off ch=16 n=65 v=64
190140 On ch=16 n=62 v=18
190140 On ch=16 n=64 v=18
190164 Off ch=16 n=60 v=64
190200 Off ch=16 n=64 v=64
190200 On ch=16 n=60 v=18
190200 On ch=16 n=65 v=18
190224 Off ch=16 n=62 v=64
190260 Off ch=16 n=65 v=64
190260 On ch=16 n=62 v=18
190260 On ch=16 n=64 v=18
190284 Off ch=16 n=60 v=64
190320 Off ch=16 n=64 v=64
190320 On ch=16 n=60 v=18
190320 On ch=16 n=65 v=18
190344 Off ch=16 n=62 v=64
190380 Off ch=16 n=65 v=64
190380 On ch=16 n=62 v=18
190380 On ch=16 n=64 v=18
190404 Off ch=16 n=60 v=64
190440 Off ch=16 n=64 v=64
190440 On ch=16 n=60 v=18
190440 On ch=16 n=65 v=18
190464 Off ch=16 n=62 v=64
190500 Off ch=16 n=65 v=64
190500 On ch=16 n=62 v=18
190500 On ch=16 n=64 v=18
190524 Off ch=16 n=60 v=64
190560 Off ch=16 n=64 v=64
190560 On ch=16 n=60 v=18
190560 On ch=16 n=65 v=21
190584 Off ch=16 n=62 v=64
190620 Off ch=16 n=65 v=64
190620 On ch=16 n=62 v=18
190620 On ch=16 n=64 v=18
190644 Off ch=16 n=60 v=64
190680 Off ch=16 n=64 v=64
190680 On ch=16 n=60 v=18
190680 On ch=16 n=65 v=18
190704 Off ch=16 n=62 v=64
190740 Off ch=16 n=65 v=64
190740 On ch=16 n=62 v=18
190740 On ch=16 n=64 v=18
190764 Off ch=16 n=60 v=64
190800 Off ch=16 n=64 v=64
190800 On ch=16 n=60 v=18
190800 On ch=16 n=65 v=18
190824 Off ch=16 n=62 v=64
190860 Off ch=16 n=65 v=64
190860 On ch=16 n=62 v=18
190860 On ch=16 n=64 v=18
190884 Off ch=16 n=60 v=64
190920 Off ch=16 n=64 v=64
190920 On ch=16 n=60 v=18
190920 On ch=16 n=65 v=18
190944 Off ch=16 n=62 v=64
190980 Off ch=16 n=65 v=64
190980 On ch=16 n=62 v=18
190980 On ch=16 n=64 v=18
191004 Off ch=16 n=60 v=64
191040 Off ch=16 n=64 v=64
191040 On ch=16 n=60 v=18
191040 On ch=16 n=65 v=18
191064 Off ch=16 n=62 v=64
191100 Off ch=16 n=65 v=64
191100 On ch=16 n=62 v=18
191100 On ch=16 n=64 v=18
191124 Off ch=16 n=60 v=64
191160 Off ch=16 n=64 v=64
191160 On ch=16 n=60 v=18
191160 On ch=16 n=65 v=18
191184 Off ch=16 n=62 v=64
191220 Off ch=16 n=65 v=64
191220 On ch=16 n=62 v=18
191220 On ch=16 n=64 v=18
191244 Off ch=16 n=60 v=64
191280 Off ch=16 n=64 v=64
191280 On ch=16 n=60 v=18
191280 On ch=16 n=65 v=18
191304 Off ch=16 n=62 v=64
191340 Off ch=16 n=65 v=64
191340 On ch=16 n=62 v=18
191340 On ch=16 n=64 v=18
191364 Off ch=16 n=60 v=64
191400 Off ch=16 n=64 v=64
191400 On ch=16 n=60 v=18
191400 On ch=16 n=65 v=18
191424 Off ch=16 n=62 v=64
191460 Off ch=16 n=65 v=64
191460 On ch=16 n=62 v=18
191460 On ch=16 n=64 v=18
191484 Off ch=16 n=60 v=64
191520 Off ch=16 n=64 v=64
191520 On ch=16 n=60 v=18
191520 On ch=16 n=65 v=18
191544 Off ch=16 n=62 v=64
191580 Off ch=16 n=65 v=64
191580 On ch=16 n=62 v=18
191580 On ch=16 n=64 v=18
191604 Off ch=16 n=60 v=64
191640 Off ch=16 n=64 v=64
191640 On ch=16 n=60 v=18
191640 On ch=16 n=65 v=18
191664 Off ch=16 n=62 v=64
191700 Off ch=16 n=65 v=64
191700 On ch=16 n=62 v=18
191700 On ch=16 n=64 v=18
191724 Off ch=16 n=60 v=64
191760 Off ch=16 n=64 v=64
191760 On ch=16 n=60 v=18
191760 On ch=16 n=65 v=18
191784 Off ch=16 n=62 v=64
191820 Off ch=16 n=65 v=64
191820 On ch=16 n=62 v=18
191820 On ch=16 n=64 v=18
191844 Off ch=16 n=60 v=64
191880 Off ch=16 n=64 v=64
191880 On ch=16 n=60 v=18
191880 On ch=16 n=65 v=18
191904 Off ch=16 n=62 v=64
191940 Off ch=16 n=65 v=64
191940 On ch=16 n=62 v=18
191940 On ch=16 n=64 v=18
191964 Off ch=16 n=60 v=64
192000 Off ch=16 n=64 v=64
192000 On ch=16 n=60 v=18
192000 On ch=16 n=65 v=18
192024 Off ch=16 n=62 v=64
192060 Off ch=16 n=65 v=64
192060 On ch=16 n=62 v=18
192060 On ch=16 n=64 v=18
192084 Off ch=16 n=60 v=64
192120 Off ch=16 n=64 v=64
192120 On ch=16 n=60 v=18
192120 On ch=16 n=65 v=18
192144 Off ch=16 n=62 v=64
192180 Off ch=16 n=65 v=64
192180 On ch=16 n=62 v=18
192180 On ch=16 n=64 v=18
192204 Off ch=16 n=60 v=64
192240 Off ch=16 n=64 v=64
192240 On ch=16 n=60 v=18
192240 On ch=16 n=65 v=18
192264 Off ch=16 n=62 v=64
192300 Off ch=16 n=65 v=64
192300 On ch=16 n=62 v=18
192300 On ch=16 n=64 v=18
192324 Off ch=16 n=60 v=64
192360 Off ch=16 n=64 v=64
192360 On ch=16 n=60 v=18
192360 On ch=16 n=65 v=18
192384 Off ch=16 n=62 v=64
192420 Off ch=16 n=65 v=64
192420 On ch=16 n=62 v=18
192420 On ch=16 n=64 v=18
192444 Off ch=16 n=60 v=64
192480 Off ch=16 n=64 v=64
192480 On ch=16 n=60 v=18
192480 On ch=16 n=65 v=21
192504 Off ch=16 n=62 v=64
192540 Off ch=16 n=65 v=64
192540 On ch=16 n=62 v=18
192540 On ch=16 n=64 v=18
192564 Off ch=16 n=60 v=64
192600 Off ch=16 n=64 v=64
192600 On ch=16 n=60 v=18
192600 On ch=16 n=65 v=18
192624 Off ch=16 n=62 v=64
192660 Off ch=16 n=65 v=64
192660 On ch=16 n=62 v=18
192660 On ch=16 n=64 v=18
192684 Off ch=16 n=60 v=64
192720 Off ch=16 n=64 v=64
192720 On ch=16 n=60 v=18
192720 On ch=16 n=65 v=18
192744 Off ch=16 n=62 v=64
192780 Off ch=16 n=65 v=64
192780 On ch=16 n=62 v=18
192780 On ch=16 n=64 v=18
192804 Off ch=16 n=60 v=64
192840 Off ch=16 n=64 v=64
192840 On ch=16 n=60 v=18
192840 On ch=16 n=65 v=18
192864 Off ch=16 n=62 v=64
192900 Off ch=16 n=65 v=64
192900 On ch=16 n=62 v=18
192900 On ch=16 n=64 v=18
192924 Off ch=16 n=60 v=64
192960 Off ch=16 n=64 v=64
192960 On ch=16 n=60 v=18
192960 On ch=16 n=65 v=18
192984 Off ch=16 n=62 v=64
193020 Off ch=16 n=65 v=64
193020 On ch=16 n=62 v=18
193020 On ch=16 n=64 v=18
193044 Off ch=16 n=60 v=64
193080 Off ch=16 n=64 v=64
193080 On ch=16 n=60 v=18
193080 On ch=16 n=65 v=18
193104 Off ch=16 n=62 v=64
193140 Off ch=16 n=65 v=64
193140 On ch=16 n=62 v=18
193140 On ch=16 n=64 v=18
193164 Off ch=16 n=60 v=64
193200 Off ch=16 n=64 v=64
193200 On ch=16 n=60 v=18
193200 On ch=16 n=65 v=18
193224 Off ch=16 n=62 v=64
193260 Off ch=16 n=65 v=64
193260 On ch=16 n=62 v=18
193260 On ch=16 n=64 v=18
193284 Off ch=16 n=60 v=64
193320 Off ch=16 n=64 v=64
193320 On ch=16 n=60 v=18
193320 On ch=16 n=65 v=18
193344 Off ch=16 n=62 v=64
193380 Off ch=16 n=65 v=64
193380 On ch=16 n=62 v=18
193380 On ch=16 n=64 v=18
193404 Off ch=16 n=60 v=64
193440 Off ch=16 n=64 v=64
193440 On ch=16 n=60 v=18
193440 On ch=16 n=65 v=18
193464 Off ch=16 n=62 v=64
193500 Off ch=16 n=65 v=64
193500 On ch=16 n=62 v=18
193500 On ch=16 n=64 v=18
193524 Off ch=16 n=60 v=64
193560 Off ch=16 n=64 v=64
193560 On ch=16 n=60 v=18
193560 On ch=16 n=65 v=18
193584 Off ch=16 n=62 v=64
193620 Off ch=16 n=65 v=64
193620 On ch=16 n=62 v=18
193620 On ch=16 n=64 v=18
193644 Off ch=16 n=60 v=64
193680 Off ch=16 n=64 v=64
193680 On ch=16 n=60 v=18
193680 On ch=16 n=65 v=18
193704 Off ch=16 n=62 v=64
193740 Off ch=16 n=65 v=64
193740 On ch=16 n=62 v=18
193740 On ch=16 n=64 v=18
193764 Off ch=16 n=60 v=64
193800 Off ch=16 n=64 v=64
193800 On ch=16 n=60 v=18
193800 On ch=16 n=65 v=18
193824 Off ch=16 n=62 v=64
193860 Off ch=16 n=65 v=64
193860 On ch=16 n=62 v=18
193860 On ch=16 n=64 v=18
193884 Off ch=16 n=60 v=64
193920 Off ch=16 n=64 v=64
193920 On ch=16 n=60 v=18
193920 On ch=16 n=65 v=18
193944 Off ch=16 n=62 v=64
193980 Off ch=16 n=65 v=64
193980 On ch=16 n=62 v=18
193980 On ch=16 n=64 v=18
194004 Off ch=16 n=60 v=64
194040 Off ch=16 n=64 v=64
194040 On ch=16 n=60 v=18
194040 On ch=16 n=65 v=18
194064 Off ch=16 n=62 v=64
194100 Off ch=16 n=65 v=64
194100 On ch=16 n=62 v=18
194100 On ch=16 n=64 v=18
194124 Off ch=16 n=60 v=64
194160 Off ch=16 n=64 v=64
194160 On ch=16 n=60 v=18
194160 On ch=16 n=65 v=18
194184 Off ch=16 n=62 v=64
194220 Off ch=16 n=65 v=64
194220 On ch=16 n=62 v=18
194220 On ch=16 n=64 v=18
194244 Off ch=16 n=60 v=64
194280 Off ch=16 n=64 v=64
194280 On ch=16 n=60 v=18
194280 On ch=16 n=65 v=18
194304 Off ch=16 n=62 v=64
194340 Off ch=16 n=65 v=64
194340 On ch=16 n=62 v=18
194340 On ch=16 n=64 v=18
194364 Off ch=16 n=60 v=64
194400 Off ch=16 n=64 v=64
194400 On ch=16 n=60 v=18
194400 On ch=16 n=65 v=21
194424 Off ch=16 n=62 v=64
194460 Off ch=16 n=65 v=64
194460 On ch=16 n=62 v=18
194460 On ch=16 n=64 v=18
194484 Off ch=16 n=60 v=64
194520 Off ch=16 n=64 v=64
194520 On ch=16 n=60 v=18
194520 On ch=16 n=65 v=18
194544 Off ch=16 n=62 v=64
194580 Off ch=16 n=65 v=64
194580 On ch=16 n=62 v=18
194580 On ch=16 n=64 v=18
194604 Off ch=16 n=60 v=64
194640 Off ch=16 n=64 v=64
194640 On ch=16 n=60 v=18
194640 On ch=16 n=65 v=18
194664 Off ch=16 n=62 v=64
194700 Off ch=16 n=65 v=64
194700 On ch=16 n=62 v=18
194700 On ch=16 n=64 v=18
194724 Off ch=16 n=60 v=64
194760 Off ch=16 n=64 v=64
194760 On ch=16 n=60 v=18
194760 On ch=16 n=65 v=18
194784 Off ch=16 n=62 v=64
194820 Off ch=16 n=65 v=64
194820 On ch=16 n=62 v=18
194820 On ch=16 n=64 v=18
194844 Off ch=16 n=60 v=64
194880 Off ch=16 n=64 v=64
194880 On ch=16 n=60 v=18
194880 On ch=16 n=65 v=18
194904 Off ch=16 n=62 v=64
194940 Off ch=16 n=65 v=64
194940 On ch=16 n=62 v=18
194940 On ch=16 n=64 v=18
194964 Off ch=16 n=60 v=64
195000 Off ch=16 n=64 v=64
195000 On ch=16 n=60 v=18
195000 On ch=16 n=65 v=18
195024 Off ch=16 n=62 v=64
195060 Off ch=16 n=65 v=64
195060 On ch=16 n=62 v=18
195060 On ch=16 n=64 v=18
195084 Off ch=16 n=60 v=64
195120 Off ch=16 n=64 v=64
195120 On ch=16 n=60 v=18
195120 On ch=16 n=65 v=18
195144 Off ch=16 n=62 v=64
195180 Off ch=16 n=65 v=64
195180 On ch=16 n=62 v=18
195180 On ch=16 n=64 v=18
195204 Off ch=16 n=60 v=64
195240 Off ch=16 n=64 v=64
195240 On ch=16 n=60 v=18
195240 On ch=16 n=65 v=18
195264 Off ch=16 n=62 v=64
195300 Off ch=16 n=65 v=64
195300 On ch=16 n=62 v=18
195300 On ch=16 n=64 v=18
195324 Off ch=16 n=60 v=64
195360 Off ch=16 n=64 v=64
195360 On ch=16 n=60 v=18
195360 On ch=16 n=65 v=18
195384 Off ch=16 n=62 v=64
195420 Off ch=16 n=65 v=64
195420 On ch=16 n=62 v=18
195420 On ch=16 n=64 v=18
195444 Off ch=16 n=60 v=64
195480 Off ch=16 n=64 v=64
195480 On ch=16 n=60 v=18
195480 On ch=16 n=65 v=18
195504 Off ch=16 n=62 v=64
195540 Off ch=16 n=65 v=64
195540 On ch=16 n=62 v=18
195540 On ch=16 n=64 v=18
195564 Off ch=16 n=60 v=64
195600 Off ch=16 n=64 v=64
195600 On ch=16 n=60 v=18
195600 On ch=16 n=65 v=18
195624 Off ch=16 n=62 v=64
195660 Off ch=16 n=65 v=64
195660 On ch=16 n=62 v=18
195660 On ch=16 n=64 v=18
195684 Off ch=16 n=60 v=64
195720 Off ch=16 n=64 v=64
195720 On ch=16 n=60 v=18
195720 On ch=16 n=65 v=18
195744 Off ch=16 n=62 v=64
195780 Off ch=16 n=65 v=64
195780 On ch=16 n=62 v=18
195780 On ch=16 n=64 v=18
195804 Off ch=16 n=60 v=64
195840 Off ch=16 n=64 v=64
195840 On ch=16 n=60 v=18
195840 On ch=16 n=65 v=18
195864 Off ch=16 n=62 v=64
195900 Off ch=16 n=65 v=64
195900 On ch=16 n=62 v=18
195900 On ch=16 n=64 v=18
195924 Off ch=16 n=60 v=64
195960 Off ch=16 n=64 v=64
195960 On ch=16 n=60 v=18
195960 On ch=16 n=65 v=18
195984 Off ch=16 n=62 v=64
196020 Off ch=16 n=65 v=64
196020 On ch=16 n=62 v=18
196020 On ch=16 n=64 v=18
196044 Off ch=16 n=60 v=64
196080 Off ch=16 n=64 v=64
196080 On ch=16 n=60 v=18
196080 On ch=16 n=65 v=18
196104 Off ch=16 n=62 v=64
196140 Off ch=16 n=65 v=64
196140 On ch=16 n=62 v=18
196140 On ch=16 n=64 v=18
196164 Off ch=16 n=60 v=64
196200 Off ch=16 n=64 v=64
196200 On ch=16 n=60 v=18
196200 On ch=16 n=65 v=18
196224 Off ch=16 n=62 v=64
196260 Off ch=16 n=65 v=64
196260 On ch=16 n=62 v=18
196260 On ch=16 n=64 v=18
196284 Off ch=16 n=60 v=64
196320 Off ch=16 n=64 v=64
196320 On ch=16 n=60 v=18
196320 On ch=16 n=65 v=18
196344 Off ch=16 n=62 v=64
196380 Off ch=16 n=65 v=64
196380 On ch=16 n=62 v=18
196380 On ch=16 n=64 v=18
196404 Off ch=16 n=60 v=64
196440 Off ch=16 n=64 v=64
196440 On ch=16 n=60 v=18
196440 On ch=16 n=65 v=18
196464 Off ch=16 n=62 v=64
196500 Off ch=16 n=65 v=64
196500 On ch=16 n=62 v=18
196500 On ch=16 n=64 v=18
196524 Off ch=16 n=60 v=64
196560 Off ch=16 n=64 v=64
196560 On ch=16 n=60 v=18
196560 On ch=16 n=65 v=18
196584 Off ch=16 n=62 v=64
196620 Off ch=16 n=65 v=64
196620 On ch=16 n=62 v=18
196620 On ch=16 n=64 v=18
196644 Off ch=16 n=60 v=64
196680 Off ch=16 n=64 v=64
196680 On ch=16 n=60 v=18
196680 On ch=16 n=65 v=18
196704 Off ch=16 n=62 v=64
196740 Off ch=16 n=65 v=64
196740 On ch=16 n=62 v=18
196740 On ch=16 n=64 v=18
196764 Off ch=16 n=60 v=64
196800 Off ch=16 n=64 v=64
196800 On ch=16 n=60 v=18
196800 On ch=16 n=65 v=18
196824 Off ch=16 n=62 v=64
196860 Off ch=16 n=65 v=64
196860 On ch=16 n=62 v=18
196860 On ch=16 n=64 v=18
196884 Off ch=16 n=60 v=64
196920 Off ch=16 n=64 v=64
196920 On ch=16 n=60 v=18
196920 On ch=16 n=65 v=18
196944 Off ch=16 n=62 v=64
196980 Off ch=16 n=65 v=64
196980 On ch=16 n=62 v=18
196980 On ch=16 n=64 v=18
197004 Off ch=16 n=60 v=64
197040 Off ch=16 n=64 v=64
197040 On ch=16 n=60 v=18
197040 On ch=16 n=65 v=18
197064 Off ch=16 n=62 v=64
197100 Off ch=16 n=65 v=64
197100 On ch=16 n=62 v=18
197100 On ch=16 n=64 v=18
197124 Off ch=16 n=60 v=64
197160 Off ch=16 n=64 v=64
197160 On ch=16 n=60 v=18
197160 On ch=16 n=65 v=18
197184 Off ch=16 n=62 v=64
197220 Off ch=16 n=65 v=64
197220 On ch=16 n=62 v=18
197220 On ch=16 n=64 v=18
197244 Off ch=16 n=60 v=64
197280 Off ch=16 n=64 v=64
197280 On ch=16 n=60 v=22
197280 On ch=16 n=66 v=22
197304 Off ch=16 n=62 v=64
197340 Off ch=16 n=66 v=64
197340 On ch=16 n=62 v=22
197340 On ch=16 n=65 v=22
197364 Off ch=16 n=60 v=64
197400 Off ch=16 n=65 v=64
197400 On ch=16 n=60 v=22
197400 On ch=16 n=66 v=22
197424 Off ch=16 n=62 v=64
197460 Off ch=16 n=66 v=64
197460 On ch=16 n=62 v=22
197460 On ch=16 n=65 v=22
197484 Off ch=16 n=60 v=64
197520 Off ch=16 n=65 v=64
197520 On ch=16 n=60 v=22
197520 On ch=16 n=66 v=22
197544 Off ch=16 n=62 v=64
197580 Off ch=16 n=66 v=64
197580 On ch=16 n=62 v=22
197580 On ch=16 n=65 v=22
197604 Off ch=16 n=60 v=64
197640 Off ch=16 n=65 v=64
197640 On ch=16 n=60 v=22
197640 On ch=16 n=66 v=22
197664 Off ch=16 n=62 v=64
197700 Off ch=16 n=66 v=64
197700 On ch=16 n=62 v=22
197700 On ch=16 n=65 v=22
197724 Off ch=16 n=60 v=64
197760 Off ch=16 n=65 v=64
197760 On ch=16 n=60 v=22
197760 On ch=16 n=66 v=22
197784 Off ch=16 n=62 v=64
197820 Off ch=16 n=66 v=64
197820 On ch=16 n=62 v=22
197820 On ch=16 n=65 v=22
197844 Off ch=16 n=60 v=64
197880 Off ch=16 n=65 v=64
197880 On ch=16 n=60 v=22
197880 On ch=16 n=66 v=22
197904 Off ch=16 n=62 v=64
197940 Off ch=16 n=66 v=64
197940 On ch=16 n=62 v=22
197940 On ch=16 n=65 v=22
197964 Off ch=16 n=60 v=64
198000 Off ch=16 n=65 v=64
198000 On ch=16 n=60 v=22
198000 On ch=16 n=66 v=22
198024 Off ch=16 n=62 v=64
198060 Off ch=16 n=66 v=64
198060 On ch=16 n=62 v=22
198060 On ch=16 n=65 v=22
198084 Off ch=16 n=60 v=64
198120 Off ch=16 n=65 v=64
198120 On ch=16 n=60 v=22
198120 On ch=16 n=66 v=22
198144 Off ch=16 n=62 v=64
198180 Off ch=16 n=66 v=64
198180 On ch=16 n=62 v=22
198180 On ch=16 n=65 v=22
198204 Off ch=16 n=60 v=64
198240 Off ch=16 n=65 v=64
198240 On ch=16 n=60 v=22
198240 On ch=16 n=66 v=22
198264 Off ch=16 n=62 v=64
198300 Off ch=16 n=66 v=64
198300 On ch=16 n=62 v=22
198300 On ch=16 n=65 v=22
198324 Off ch=16 n=60 v=64
198360 Off ch=16 n=65 v=64
198360 On ch=16 n=60 v=22
198360 On ch=16 n=66 v=22
198384 Off ch=16 n=62 v=64
198420 Off ch=16 n=66 v=64
198420 On ch=16 n=62 v=22
198420 On ch=16 n=65 v=22
198444 Off ch=16 n=60 v=64
198480 Off ch=16 n=65 v=64
198480 On ch=16 n=60 v=22
198480 On ch=16 n=66 v=22
198504 Off ch=16 n=62 v=64
198540 Off ch=16 n=66 v=64
198540 On ch=16 n=62 v=22
198540 On ch=16 n=65 v=22
198564 Off ch=16 n=60 v=64
198600 Off ch=16 n=65 v=64
198600 On ch=16 n=60 v=22
198600 On ch=16 n=66 v=22
198624 Off ch=16 n=62 v=64
198660 Off ch=16 n=66 v=64
198660 On ch=16 n=62 v=22
198660 On ch=16 n=65 v=22
198684 Off ch=16 n=60 v=64
198720 Off ch=16 n=65 v=64
198720 On ch=16 n=60 v=22
198720 On ch=16 n=66 v=22
198744 Off ch=16 n=62 v=64
198780 Off ch=16 n=66 v=64
198780 On ch=16 n=62 v=22
198780 On ch=16 n=65 v=22
198804 Off ch=16 n=60 v=64
198840 Off ch=16 n=65 v=64
198840 On ch=16 n=60 v=22
198840 On ch=16 n=66 v=22
198864 Off ch=16 n=62 v=64
198900 Off ch=16 n=66 v=64
198900 On ch=16 n=62 v=22
198900 On ch=16 n=65 v=22
198924 Off ch=16 n=60 v=64
198960 Off ch=16 n=65 v=64
198960 On ch=16 n=60 v=22
198960 On ch=16 n=66 v=22
198984 Off ch=16 n=62 v=64
199020 Off ch=16 n=66 v=64
199020 On ch=16 n=62 v=22
199020 On ch=16 n=65 v=22
199044 Off ch=16 n=60 v=64
199080 Off ch=16 n=65 v=64
199080 On ch=16 n=60 v=22
199080 On ch=16 n=66 v=22
199104 Off ch=16 n=62 v=64
199140 Off ch=16 n=66 v=64
199140 On ch=16 n=62 v=22
199140 On ch=16 n=65 v=22
199164 Off ch=16 n=60 v=64
199200 Off ch=16 n=65 v=64
199200 On ch=16 n=60 v=22
199200 On ch=16 n=66 v=22
199224 Off ch=16 n=62 v=64
199260 Off ch=16 n=66 v=64
199260 On ch=16 n=62 v=22
199260 On ch=16 n=65 v=22
199284 Off ch=16 n=60 v=64
199320 Off ch=16 n=65 v=64
199320 On ch=16 n=60 v=22
199320 On ch=16 n=66 v=22
199344 Off ch=16 n=62 v=64
199380 Off ch=16 n=66 v=64
199380 On ch=16 n=62 v=22
199380 On ch=16 n=65 v=22
199404 Off ch=16 n=60 v=64
199440 Off ch=16 n=65 v=64
199440 On ch=16 n=60 v=22
199440 On ch=16 n=66 v=22
199464 Off ch=16 n=62 v=64
199500 Off ch=16 n=66 v=64
199500 On ch=16 n=62 v=22
199500 On ch=16 n=65 v=22
199524 Off ch=16 n=60 v=64
199560 Off ch=16 n=65 v=64
199560 On ch=16 n=60 v=22
199560 On ch=16 n=66 v=22
199584 Off ch=16 n=62 v=64
199620 Off ch=16 n=66 v=64
199620 On ch=16 n=62 v=22
199620 On ch=16 n=65 v=22
199644 Off ch=16 n=60 v=64
199680 Off ch=16 n=65 v=64
199680 On ch=16 n=60 v=22
199680 On ch=16 n=66 v=22
199704 Off ch=16 n=62 v=64
199740 Off ch=16 n=66 v=64
199740 On ch=16 n=62 v=22
199740 On ch=16 n=65 v=22
199764 Off ch=16 n=60 v=64
199800 Off ch=16 n=65 v=64
199800 On ch=16 n=60 v=22
199800 On ch=16 n=66 v=22
199824 Off ch=16 n=62 v=64
199860 Off ch=16 n=66 v=64
199860 On ch=16 n=62 v=22
199860 On ch=16 n=65 v=22
199884 Off ch=16 n=60 v=64
199920 Off ch=16 n=65 v=64
199920 On ch=16 n=60 v=22
199920 On ch=16 n=66 v=22
199944 Off ch=16 n=62 v=64
199980 Off ch=16 n=66 v=64
199980 On ch=16 n=62 v=22
199980 On ch=16 n=65 v=22
200004 Off ch=16 n=60 v=64
200040 Off ch=16 n=65 v=64
200040 On ch=16 n=60 v=22
200040 On ch=16 n=66 v=22
200064 Off ch=16 n=62 v=64
200100 Off ch=16 n=66 v=64
200100 On ch=16 n=62 v=22
200100 On ch=16 n=65 v=22
200124 Off ch=16 n=60 v=64
200160 Off ch=16 n=65 v=64
200160 On ch=16 n=60 v=22
200160 On ch=16 n=66 v=22
200184 Off ch=16 n=62 v=64
200220 Off ch=16 n=66 v=64
200220 On ch=16 n=62 v=22
200220 On ch=16 n=65 v=22
200244 Off ch=16 n=60 v=64
200280 Off ch=16 n=65 v=64
200280 On ch=16 n=60 v=22
200280 On ch=16 n=66 v=22
200304 Off ch=16 n=62 v=64
200340 Off ch=16 n=66 v=64
200340 On ch=16 n=62 v=22
200340 On ch=16 n=65 v=22
200364 Off ch=16 n=60 v=64
200400 Off ch=16 n=65 v=64
200400 On ch=16 n=60 v=22
200400 On ch=16 n=66 v=22
200424 Off ch=16 n=62 v=64
200460 Off ch=16 n=66 v=64
200460 On ch=16 n=62 v=22
200460 On ch=16 n=65 v=22
200484 Off ch=16 n=60 v=64
200520 Off ch=16 n=65 v=64
200520 On ch=16 n=60 v=22
200520 On ch=16 n=66 v=22
200544 Off ch=16 n=62 v=64
200580 Off ch=16 n=66 v=64
200580 On ch=16 n=62 v=22
200580 On ch=16 n=65 v=22
200604 Off ch=16 n=60 v=64
200640 Off ch=16 n=65 v=64
200640 On ch=16 n=60 v=22
200640 On ch=16 n=66 v=22
200664 Off ch=16 n=62 v=64
200700 Off ch=16 n=66 v=64
200700 On ch=16 n=62 v=22
200700 On ch=16 n=65 v=22
200724 Off ch=16 n=60 v=64
200760 Off ch=16 n=65 v=64
200760 On ch=16 n=60 v=22
200760 On ch=16 n=66 v=22
200784 Off ch=16 n=62 v=64
200820 Off ch=16 n=66 v=64
200820 On ch=16 n=62 v=22
200820 On ch=16 n=65 v=22
200844 Off ch=16 n=60 v=64
200880 Off ch=16 n=65 v=64
200880 On ch=16 n=60 v=22
200880 On ch=16 n=66 v=22
200904 Off ch=16 n=62 v=64
200940 Off ch=16 n=66 v=64
200940 On ch=16 n=62 v=22
200940 On ch=16 n=65 v=22
200964 Off ch=16 n=60 v=64
201000 Off ch=16 n=65 v=64
201000 On ch=16 n=60 v=22
201000 On ch=16 n=66 v=22
201024 Off ch=16 n=62 v=64
201060 Off ch=16 n=66 v=64
201060 On ch=16 n=62 v=22
201060 On ch=16 n=65 v=22
201084 Off ch=16 n=60 v=64
201120 Off ch=16 n=65 v=64
201120 On ch=16 n=60 v=22
201120 On ch=16 n=66 v=22
201144 Off ch=16 n=62 v=64
201180 Off ch=16 n=66 v=64
201180 On ch=16 n=62 v=22
201180 On ch=16 n=65 v=22
201204 Off ch=16 n=60 v=64
201240 Off ch=16 n=65 v=64
201240 On ch=16 n=60 v=22
201240 On ch=16 n=66 v=22
201264 Off ch=16 n=62 v=64
201300 Off ch=16 n=66 v=64
201300 On ch=16 n=62 v=22
201300 On ch=16 n=65 v=22
201324 Off ch=16 n=60 v=64
201360 Off ch=16 n=65 v=64
201360 On ch=16 n=60 v=22
201360 On ch=16 n=66 v=22
201384 Off ch=16 n=62 v=64
201420 Off ch=16 n=66 v=64
201420 On ch=16 n=62 v=22
201420 On ch=16 n=65 v=22
201444 Off ch=16 n=60 v=64
201480 Off ch=16 n=65 v=64
201480 On ch=16 n=60 v=22
201480 On ch=16 n=66 v=22
201504 Off ch=16 n=62 v=64
201540 Off ch=16 n=66 v=64
201540 On ch=16 n=62 v=22
201540 On ch=16 n=65 v=22
201564 Off ch=16 n=60 v=64
201600 Off ch=16 n=65 v=64
201600 On ch=16 n=60 v=22
201600 On ch=16 n=66 v=22
201624 Off ch=16 n=62 v=64
201660 Off ch=16 n=66 v=64
201660 On ch=16 n=62 v=22
201660 On ch=16 n=65 v=22
201684 Off ch=16 n=60 v=64
201720 Off ch=16 n=65 v=64
201720 On ch=16 n=60 v=22
201720 On ch=16 n=66 v=22
201744 Off ch=16 n=62 v=64
201780 Off ch=16 n=66 v=64
201780 On ch=16 n=62 v=22
201780 On ch=16 n=65 v=22
201804 Off ch=16 n=60 v=64
201840 Off ch=16 n=65 v=64
201840 On ch=16 n=60 v=22
201840 On ch=16 n=66 v=22
201864 Off ch=16 n=62 v=64
201900 Off ch=16 n=66 v=64
201900 On ch=16 n=62 v=22
201900 On ch=16 n=65 v=22
201924 Off ch=16 n=60 v=64
201960 Off ch=16 n=65 v=64
201960 On ch=16 n=60 v=22
201960 On ch=16 n=66 v=22
201984 Off ch=16 n=62 v=64
202020 Off ch=16 n=66 v=64
202020 On ch=16 n=62 v=22
202020 On ch=16 n=65 v=22
202044 Off ch=16 n=60 v=64
202080 Off ch=16 n=65 v=64
202080 On ch=16 n=60 v=22
202080 On ch=16 n=66 v=22
202104 Off ch=16 n=62 v=64
202140 Off ch=16 n=66 v=64
202140 On ch=16 n=62 v=22
202140 On ch=16 n=65 v=22
202164 Off ch=16 n=60 v=64
202200 Off ch=16 n=65 v=64
202200 On ch=16 n=60 v=22
202200 On ch=16 n=66 v=22
202224 Off ch=16 n=62 v=64
202260 Off ch=16 n=66 v=64
202260 On ch=16 n=62 v=22
202260 On ch=16 n=65 v=22
202284 Off ch=16 n=60 v=64
202320 Off ch=16 n=65 v=64
202320 On ch=16 n=60 v=22
202320 On ch=16 n=66 v=22
202344 Off ch=16 n=62 v=64
202380 Off ch=16 n=66 v=64
202380 On ch=16 n=62 v=22
202380 On ch=16 n=65 v=22
202404 Off ch=16 n=60 v=64
202440 Off ch=16 n=65 v=64
202440 On ch=16 n=60 v=22
202440 On ch=16 n=66 v=22
202464 Off ch=16 n=62 v=64
202500 Off ch=16 n=66 v=64
202500 On ch=16 n=62 v=22
202500 On ch=16 n=65 v=22
202524 Off ch=16 n=60 v=64
202560 Off ch=16 n=65 v=64
202560 On ch=16 n=60 v=22
202560 On ch=16 n=66 v=22
202584 Off ch=16 n=62 v=64
202620 Off ch=16 n=66 v=64
202620 On ch=16 n=62 v=22
202620 On ch=16 n=65 v=22
202644 Off ch=16 n=60 v=64
202680 Off ch=16 n=65 v=64
202680 On ch=16 n=60 v=22
202680 On ch=16 n=66 v=22
202704 Off ch=16 n=62 v=64
202740 Off ch=16 n=66 v=64
202740 On ch=16 n=62 v=22
202740 On ch=16 n=65 v=22
202764 Off ch=16 n=60 v=64
202800 Off ch=16 n=65 v=64
202800 On ch=16 n=60 v=22
202800 On ch=16 n=66 v=22
202824 Off ch=16 n=62 v=64
202860 Off ch=16 n=66 v=64
202860 On ch=16 n=62 v=22
202860 On ch=16 n=65 v=22
202884 Off ch=16 n=60 v=64
202920 Off ch=16 n=65 v=64
202920 On ch=16 n=60 v=22
202920 On ch=16 n=66 v=22
202944 Off ch=16 n=62 v=64
202980 Off ch=16 n=66 v=64
202980 On ch=16 n=62 v=22
202980 On ch=16 n=65 v=22
203004 Off ch=16 n=60 v=64
203040 Off ch=16 n=65 v=64
203040 On ch=16 n=60 v=22
203040 On ch=16 n=66 v=22
203064 Off ch=16 n=62 v=64
203100 Off ch=16 n=66 v=64
203100 On ch=16 n=62 v=22
203100 On ch=16 n=65 v=22
203124 Off ch=16 n=60 v=64
203160 Off ch=16 n=65 v=64
203160 On ch=16 n=60 v=22
203160 On ch=16 n=66 v=22
203184 Off ch=16 n=62 v=64
203220 Off ch=16 n=66 v=64
203220 On ch=16 n=62 v=22
203220 On ch=16 n=65 v=22
203244 Off ch=16 n=60 v=64
203280 Off ch=16 n=65 v=64
203280 On ch=16 n=60 v=22
203280 On ch=16 n=66 v=22
203304 Off ch=16 n=62 v=64
203340 Off ch=16 n=66 v=64
203340 On ch=16 n=62 v=22
203340 On ch=16 n=65 v=22
203364 Off ch=16 n=60 v=64
203400 Off ch=16 n=65 v=64
203400 On ch=16 n=60 v=22
203400 On ch=16 n=66 v=22
203424 Off ch=16 n=62 v=64
203460 Off ch=16 n=66 v=64
203460 On ch=16 n=62 v=22
203460 On ch=16 n=65 v=22
203484 Off ch=16 n=60 v=64
203520 Off ch=16 n=65 v=64
203520 On ch=16 n=60 v=22
203520 On ch=16 n=66 v=22
203544 Off ch=16 n=62 v=64
203580 Off ch=16 n=66 v=64
203580 On ch=16 n=62 v=22
203580 On ch=16 n=65 v=22
203604 Off ch=16 n=60 v=64
203640 Off ch=16 n=65 v=64
203640 On ch=16 n=60 v=22
203640 On ch=16 n=66 v=22
203664 Off ch=16 n=62 v=64
203700 Off ch=16 n=66 v=64
203700 On ch=16 n=62 v=22
203700 On ch=16 n=65 v=22
203724 Off ch=16 n=60 v=64
203760 Off ch=16 n=65 v=64
203760 On ch=16 n=60 v=22
203760 On ch=16 n=66 v=22
203784 Off ch=16 n=62 v=64
203820 Off ch=16 n=66 v=64
203820 On ch=16 n=62 v=22
203820 On ch=16 n=65 v=22
203844 Off ch=16 n=60 v=64
203880 Off ch=16 n=65 v=64
203880 On ch=16 n=60 v=22
203880 On ch=16 n=66 v=22
203904 Off ch=16 n=62 v=64
203940 Off ch=16 n=66 v=64
203940 On ch=16 n=62 v=22
203940 On ch=16 n=65 v=22
203964 Off ch=16 n=60 v=64
204000 Off ch=16 n=65 v=64
204000 On ch=16 n=60 v=22
204000 On ch=16 n=66 v=22
204024 Off ch=16 n=62 v=64
204060 Off ch=16 n=66 v=64
204060 On ch=16 n=62 v=22
204060 On ch=16 n=65 v=22
204084 Off ch=16 n=60 v=64
204120 Off ch=16 n=65 v=64
204120 On ch=16 n=60 v=22
204120 On ch=16 n=66 v=22
204144 Off ch=16 n=62 v=64
204180 Off ch=16 n=66 v=64
204180 On ch=16 n=62 v=22
204180 On ch=16 n=65 v=22
204204 Off ch=16 n=60 v=64
204240 Off ch=16 n=65 v=64
204240 On ch=16 n=60 v=22
204240 On ch=16 n=66 v=22
204264 Off ch=16 n=62 v=64
204300 Off ch=16 n=66 v=64
204300 On ch=16 n=62 v=22
204300 On ch=16 n=65 v=22
204324 Off ch=16 n=60 v=64
204360 Off ch=16 n=65 v=64
204360 On ch=16 n=60 v=22
204360 On ch=16 n=66 v=22
204384 Off ch=16 n=62 v=64
204420 Off ch=16 n=66 v=64
204420 On ch=16 n=62 v=22
204420 On ch=16 n=65 v=22
204444 Off ch=16 n=60 v=64
204480 Off ch=16 n=65 v=64
204480 On ch=16 n=60 v=22
204480 On ch=16 n=66 v=22
204504 Off ch=16 n=62 v=64
204540 Off ch=16 n=66 v=64
204540 On ch=16 n=62 v=22
204540 On ch=16 n=65 v=22
204564 Off ch=16 n=60 v=64
204600 Off ch=16 n=65 v=64
204600 On ch=16 n=60 v=22
204600 On ch=16 n=66 v=22
204624 Off ch=16 n=62 v=64
204660 Off ch=16 n=66 v=64
204660 On ch=16 n=62 v=22
204660 On ch=16 n=65 v=22
204684 Off ch=16 n=60 v=64
204720 Off ch=16 n=65 v=64
204720 On ch=16 n=60 v=22
204720 On ch=16 n=66 v=22
204744 Off ch=16 n=62 v=64
204780 Off ch=16 n=66 v=64
204780 On ch=16 n=62 v=22
204780 On ch=16 n=65 v=22
204804 Off ch=16 n=60 v=64
204840 Off ch=16 n=65 v=64
204840 On ch=16 n=60 v=22
204840 On ch=16 n=66 v=22
204864 Off ch=16 n=62 v=64
204900 Off ch=16 n=66 v=64
204900 On ch=16 n=62 v=22
204900 On ch=16 n=65 v=22
204924 Off ch=16 n=60 v=64
204960 Off ch=16 n=65 v=64
204960 On ch=16 n=60 v=22
204960 On ch=16 n=66 v=22
204984 Off ch=16 n=62 v=64
205020 Off ch=16 n=66 v=64
205020 On ch=16 n=62 v=22
205020 On ch=16 n=65 v=22
205044 Off ch=16 n=60 v=64
205080 Off ch=16 n=65 v=64
205080 On ch=16 n=60 v=22
205080 On ch=16 n=66 v=22
205104 Off ch=16 n=62 v=64
205140 Off ch=16 n=66 v=64
205140 On ch=16 n=62 v=22
205140 On ch=16 n=65 v=22
205164 Off ch=16 n=60 v=64
205200 Off ch=16 n=65 v=64
205200 On ch=16 n=60 v=22
205200 On ch=16 n=66 v=22
205224 Off ch=16 n=62 v=64
205260 Off ch=16 n=66 v=64
205260 On ch=16 n=62 v=22
205260 On ch=16 n=65 v=22
205284 Off ch=16 n=60 v=64
205320 Off ch=16 n=65 v=64
205320 On ch=16 n=60 v=22
205320 On ch=16 n=66 v=22
205344 Off ch=16 n=62 v=64
205380 Off ch=16 n=66 v=64
205380 On ch=16 n=62 v=22
205380 On ch=16 n=65 v=22
205404 Off ch=16 n=60 v=64
205440 Off ch=16 n=65 v=64
205440 On ch=16 n=60 v=22
205440 On ch=16 n=66 v=22
205464 Off ch=16 n=62 v=64
205500 Off ch=16 n=66 v=64
205500 On ch=16 n=62 v=22
205500 On ch=16 n=65 v=22
205524 Off ch=16 n=60 v=64
205560 Off ch=16 n=65 v=64
205560 On ch=16 n=60 v=22
205560 On ch=16 n=66 v=22
205584 Off ch=16 n=62 v=64
205620 Off ch=16 n=66 v=64
205620 On ch=16 n=62 v=22
205620 On ch=16 n=65 v=22
205644 Off ch=16 n=60 v=64
205680 Off ch=16 n=65 v=64
205680 On ch=16 n=60 v=22
205680 On ch=16 n=66 v=22
205704 Off ch=16 n=62 v=64
205740 Off ch=16 n=66 v=64
205740 On ch=16 n=62 v=22
205740 On ch=16 n=65 v=22
205764 Off ch=16 n=60 v=64
205800 Off ch=16 n=65 v=64
205800 On ch=16 n=60 v=22
205800 On ch=16 n=66 v=22
205824 Off ch=16 n=62 v=64
205860 Off ch=16 n=66 v=64
205860 On ch=16 n=62 v=22
205860 On ch=16 n=65 v=22
205884 Off ch=16 n=60 v=64
205920 Off ch=16 n=65 v=64
205920 On ch=16 n=60 v=22
205920 On ch=16 n=66 v=22
205944 Off ch=16 n=62 v=64
205980 Off ch=16 n=66 v=64
205980 On ch=16 n=62 v=22
205980 On ch=16 n=65 v=22
206004 Off ch=16 n=60 v=64
206040 Off ch=16 n=65 v=64
206040 On ch=16 n=60 v=22
206040 On ch=16 n=66 v=22
206064 Off ch=16 n=62 v=64
206100 Off ch=16 n=66 v=64
206100 On ch=16 n=62 v=22
206100 On ch=16 n=65 v=22
206124 Off ch=16 n=60 v=64
206160 Off ch=16 n=65 v=64
206160 On ch=16 n=60 v=22
206160 On ch=16 n=66 v=22
206184 Off ch=16 n=62 v=64
206220 Off ch=16 n=66 v=64
206220 On ch=16 n=62 v=22
206220 On ch=16 n=65 v=22
206244 Off ch=16 n=60 v=64
206280 Off ch=16 n=65 v=64
206280 On ch=16 n=60 v=22
206280 On ch=16 n=66 v=22
206304 Off ch=16 n=62 v=64
206340 Off ch=16 n=66 v=64
206340 On ch=16 n=62 v=22
206340 On ch=16 n=65 v=22
206364 Off ch=16 n=60 v=64
206400 Off ch=16 n=65 v=64
206400 On ch=16 n=60 v=22
206400 On ch=16 n=66 v=22
206424 Off ch=16 n=62 v=64
206460 Off ch=16 n=66 v=64
206460 On ch=16 n=62 v=22
206460 On ch=16 n=65 v=22
206484 Off ch=16 n=60 v=64
206520 Off ch=16 n=65 v=64
206520 On ch=16 n=60 v=22
206520 On ch=16 n=66 v=22
206544 Off ch=16 n=62 v=64
206580 Off ch=16 n=66 v=64
206580 On ch=16 n=62 v=22
206580 On ch=16 n=65 v=22
206604 Off ch=16 n=60 v=64
206640 Off ch=16 n=65 v=64
206640 On ch=16 n=60 v=22
206640 On ch=16 n=66 v=22
206664 Off ch=16 n=62 v=64
206700 Off ch=16 n=66 v=64
206700 On ch=16 n=62 v=22
206700 On ch=16 n=65 v=22
206724 Off ch=16 n=60 v=64
206760 Off ch=16 n=65 v=64
206760 On ch=16 n=60 v=22
206760 On ch=16 n=66 v=22
206784 Off ch=16 n=62 v=64
206820 Off ch=16 n=66 v=64
206820 On ch=16 n=62 v=22
206820 On ch=16 n=65 v=22
206844 Off ch=16 n=60 v=64
206880 Off ch=16 n=65 v=64
206880 On ch=16 n=60 v=22
206880 On ch=16 n=66 v=22
206904 Off ch=16 n=62 v=64
206940 Off ch=16 n=66 v=64
206940 On ch=16 n=62 v=22
206940 On ch=16 n=65 v=22
206964 Off ch=16 n=60 v=64
207000 Off ch=16 n=65 v=64
207000 On ch=16 n=60 v=22
207000 On ch=16 n=66 v=22
207024 Off ch=16 n=62 v=64
207060 Off ch=16 n=66 v=64
207060 On ch=16 n=62 v=22
207060 On ch=16 n=65 v=22
207084 Off ch=16 n=60 v=64
207120 Off ch=16 n=65 v=64
207120 On ch=16 n=60 v=22
207120 On ch=16 n=66 v=22
207144 Off ch=16 n=62 v=64
207180 Off ch=16 n=66 v=64
207180 On ch=16 n=62 v=22
207180 On ch=16 n=65 v=22
207204 Off ch=16 n=60 v=64
207240 Off ch=16 n=65 v=64
207240 On ch=16 n=60 v=22
207240 On ch=16 n=66 v=22
207264 Off ch=16 n=62 v=64
207300 Off ch=16 n=66 v=64
207300 On ch=16 n=62 v=22
207300 On ch=16 n=65 v=22
207324 Off ch=16 n=60 v=64
207360 Off ch=16 n=65 v=64
207360 On ch=16 n=60 v=22
207360 On ch=16 n=66 v=22
207384 Off ch=16 n=62 v=64
207420 Off ch=16 n=66 v=64
207420 On ch=16 n=62 v=22
207420 On ch=16 n=65 v=22
207444 Off ch=16 n=60 v=64
207480 Off ch=16 n=65 v=64
207480 On ch=16 n=60 v=22
207480 On ch=16 n=66 v=22
207504 Off ch=16 n=62 v=64
207540 Off ch=16 n=66 v=64
207540 On ch=16 n=62 v=22
207540 On ch=16 n=65 v=22
207564 Off ch=16 n=60 v=64
207600 Off ch=16 n=65 v=64
207600 On ch=16 n=60 v=22
207600 On ch=16 n=66 v=22
207624 Off ch=16 n=62 v=64
207660 Off ch=16 n=66 v=64
207660 On ch=16 n=62 v=22
207660 On ch=16 n=65 v=22
207684 Off ch=16 n=60 v=64
207720 Off ch=16 n=65 v=64
207720 On ch=16 n=60 v=22
207720 On ch=16 n=66 v=22
207744 Off ch=16 n=62 v=64
207780 Off ch=16 n=66 v=64
207780 On ch=16 n=62 v=22
207780 On ch=16 n=65 v=22
207804 Off ch=16 n=60 v=64
207840 Off ch=16 n=65 v=64
207840 On ch=16 n=60 v=22
207840 On ch=16 n=66 v=22
207864 Off ch=16 n=62 v=64
207900 Off ch=16 n=66 v=64
207900 On ch=16 n=62 v=22
207900 On ch=16 n=65 v=22
207924 Off ch=16 n=60 v=64
207960 Off ch=16 n=65 v=64
207960 On ch=16 n=60 v=22
207960 On ch=16 n=66 v=22
207984 Off ch=16 n=62 v=64
208020 Off ch=16 n=66 v=64
208020 On ch=16 n=62 v=22
208020 On ch=16 n=65 v=22
208044 Off ch=16 n=60 v=64
208080 Off ch=16 n=65 v=64
208080 On ch=16 n=60 v=22
208080 On ch=16 n=66 v=22
208104 Off ch=16 n=62 v=64
208140 Off ch=16 n=66 v=64
208140 On ch=16 n=62 v=22
208140 On ch=16 n=65 v=22
208164 Off ch=16 n=60 v=64
208200 Off ch=16 n=65 v=64
208200 On ch=16 n=60 v=22
208200 On ch=16 n=66 v=22
208224 Off ch=16 n=62 v=64
208260 Off ch=16 n=66 v=64
208260 On ch=16 n=62 v=22
208260 On ch=16 n=65 v=22
208284 Off ch=16 n=60 v=64
208320 Off ch=16 n=65 v=64
208320 On ch=16 n=60 v=22
208320 On ch=16 n=66 v=22
208344 Off ch=16 n=62 v=64
208380 Off ch=16 n=66 v=64
208380 On ch=16 n=62 v=22
208380 On ch=16 n=65 v=22
208404 Off ch=16 n=60 v=64
208440 Off ch=16 n=65 v=64
208440 On ch=16 n=60 v=22
208440 On ch=16 n=66 v=22
208464 Off ch=16 n=62 v=64
208500 Off ch=16 n=66 v=64
208500 On ch=16 n=62 v=22
208500 On ch=16 n=65 v=22
208524 Off ch=16 n=60 v=64
208560 Off ch=16 n=65 v=64
208560 On ch=16 n=60 v=22
208560 On ch=16 n=66 v=22
208584 Off ch=16 n=62 v=64
208620 Off ch=16 n=66 v=64
208620 On ch=16 n=62 v=22
208620 On ch=16 n=65 v=22
208644 Off ch=16 n=60 v=64
208680 Off ch=16 n=65 v=64
208680 On ch=16 n=60 v=22
208680 On ch=16 n=66 v=22
208704 Off ch=16 n=62 v=64
208740 Off ch=16 n=66 v=64
208740 On ch=16 n=62 v=22
208740 On ch=16 n=65 v=22
208764 Off ch=16 n=60 v=64
208800 Off ch=16 n=65 v=64
208800 On ch=16 n=60 v=22
208800 On ch=16 n=66 v=22
208824 Off ch=16 n=62 v=64
208860 Off ch=16 n=66 v=64
208860 On ch=16 n=62 v=22
208860 On ch=16 n=65 v=22
208884 Off ch=16 n=60 v=64
208920 Off ch=16 n=65 v=64
208920 On ch=16 n=60 v=22
208920 On ch=16 n=66 v=22
208944 Off ch=16 n=62 v=64
208980 Off ch=16 n=66 v=64
208980 On ch=16 n=62 v=22
208980 On ch=16 n=65 v=22
209004 Off ch=16 n=60 v=64
209040 Off ch=16 n=65 v=64
209040 On ch=16 n=60 v=22
209040 On ch=16 n=66 v=22
209064 Off ch=16 n=62 v=64
209100 Off ch=16 n=66 v=64
209100 On ch=16 n=62 v=22
209100 On ch=16 n=65 v=22
209124 Off ch=16 n=60 v=64
209160 Off ch=16 n=65 v=64
209160 On ch=16 n=60 v=22
209160 On ch=16 n=66 v=22
209184 Off ch=16 n=62 v=64
209220 Off ch=16 n=66 v=64
209220 On ch=16 n=62 v=22
209220 On ch=16 n=65 v=22
209244 Off ch=16 n=60 v=64
209280 Off ch=16 n=65 v=64
209280 On ch=16 n=60 v=22
209280 On ch=16 n=66 v=22
209304 Off ch=16 n=62 v=64
209340 Off ch=16 n=66 v=64
209340 On ch=16 n=62 v=22
209340 On ch=16 n=65 v=22
209364 Off ch=16 n=60 v=64
209400 Off ch=16 n=65 v=64
209400 On ch=16 n=60 v=22
209400 On ch=16 n=66 v=22
209424 Off ch=16 n=62 v=64
209460 Off ch=16 n=66 v=64
209460 On ch=16 n=62 v=22
209460 On ch=16 n=65 v=22
209484 Off ch=16 n=60 v=64
209520 Off ch=16 n=65 v=64
209520 On ch=16 n=60 v=22
209520 On ch=16 n=66 v=22
209544 Off ch=16 n=62 v=64
209580 Off ch=16 n=66 v=64
209580 On ch=16 n=62 v=22
209580 On ch=16 n=65 v=22
209604 Off ch=16 n=60 v=64
209640 Off ch=16 n=65 v=64
209640 On ch=16 n=60 v=22
209640 On ch=16 n=66 v=22
209664 Off ch=16 n=62 v=64
209700 Off ch=16 n=66 v=64
209700 On ch=16 n=62 v=22
209700 On ch=16 n=65 v=22
209724 Off ch=16 n=60 v=64
209760 Off ch=16 n=65 v=64
209760 On ch=16 n=60 v=22
209760 On ch=16 n=66 v=22
209784 Off ch=16 n=62 v=64
209820 Off ch=16 n=66 v=64
209820 On ch=16 n=62 v=22
209820 On ch=16 n=65 v=22
209844 Off ch=16 n=60 v=64
209880 Off ch=16 n=65 v=64
209880 On ch=16 n=60 v=22
209880 On ch=16 n=66 v=22
209904 Off ch=16 n=62 v=64
209940 Off ch=16 n=66 v=64
209940 On ch=16 n=62 v=22
209940 On ch=16 n=65 v=22
209964 Off ch=16 n=60 v=64
210000 Off ch=16 n=65 v=64
210000 On ch=16 n=60 v=22
210000 On ch=16 n=66 v=22
210024 Off ch=16 n=62 v=64
210060 Off ch=16 n=66 v=64
210060 On ch=16 n=62 v=22
210060 On ch=16 n=65 v=22
210084 Off ch=16 n=60 v=64
210120 Off ch=16 n=65 v=64
210120 On ch=16 n=60 v=22
210120 On ch=16 n=66 v=22
210144 Off ch=16 n=62 v=64
210180 Off ch=16 n=66 v=64
210180 On ch=16 n=62 v=22
210180 On ch=16 n=65 v=22
210204 Off ch=16 n=60 v=64
210240 Off ch=16 n=65 v=64
210240 On ch=16 n=60 v=22
210240 On ch=16 n=66 v=22
210264 Off ch=16 n=62 v=64
210300 Off ch=16 n=66 v=64
210300 On ch=16 n=62 v=22
210300 On ch=16 n=65 v=22
210324 Off ch=16 n=60 v=64
210360 Off ch=16 n=65 v=64
210360 On ch=16 n=60 v=22
210360 On ch=16 n=66 v=22
210384 Off ch=16 n=62 v=64
210420 Off ch=16 n=66 v=64
210420 On ch=16 n=62 v=22
210420 On ch=16 n=65 v=22
210444 Off ch=16 n=60 v=64
210480 Off ch=16 n=65 v=64
210480 On ch=16 n=60 v=22
210480 On ch=16 n=66 v=22
210504 Off ch=16 n=62 v=64
210540 Off ch=16 n=66 v=64
210540 On ch=16 n=62 v=22
210540 On ch=16 n=65 v=22
210564 Off ch=16 n=60 v=64
210600 Off ch=16 n=65 v=64
210600 On ch=16 n=60 v=22
210600 On ch=16 n=66 v=22
210624 Off ch=16 n=62 v=64
210660 Off ch=16 n=66 v=64
210660 On ch=16 n=62 v=22
210660 On ch=16 n=65 v=22
210684 Off ch=16 n=60 v=64
210720 Off ch=16 n=65 v=64
210720 On ch=16 n=60 v=22
210720 On ch=16 n=66 v=22
210744 Off ch=16 n=62 v=64
210780 Off ch=16 n=66 v=64
210780 On ch=16 n=62 v=22
210780 On ch=16 n=65 v=22
210804 Off ch=16 n=60 v=64
210840 Off ch=16 n=65 v=64
210840 On ch=16 n=60 v=22
210840 On ch=16 n=66 v=22
210864 Off ch=16 n=62 v=64
210900 Off ch=16 n=66 v=64
210900 On ch=16 n=62 v=22
210900 On ch=16 n=65 v=22
210924 Off ch=16 n=60 v=64
210960 Off ch=16 n=65 v=64
210960 On ch=16 n=60 v=22
210960 On ch=16 n=66 v=22
210984 Off ch=16 n=62 v=64
211020 Off ch=16 n=66 v=64
211020 On ch=16 n=62 v=22
211020 On ch=16 n=65 v=22
211044 Off ch=16 n=60 v=64
211080 Off ch=16 n=65 v=64
211080 On ch=16 n=60 v=22
211080 On ch=16 n=66 v=22
211104 Off ch=16 n=62 v=64
211140 Off ch=16 n=66 v=64
211140 On ch=16 n=62 v=22
211140 On ch=16 n=65 v=22
211164 Off ch=16 n=60 v=64
211200 Off ch=16 n=65 v=64
211200 On ch=16 n=60 v=22
211200 On ch=16 n=66 v=22
211224 Off ch=16 n=62 v=64
211260 Off ch=16 n=66 v=64
211260 On ch=16 n=62 v=22
211260 On ch=16 n=65 v=22
211284 Off ch=16 n=60 v=64
211320 Off ch=16 n=65 v=64
211320 On ch=16 n=60 v=22
211320 On ch=16 n=66 v=22
211344 Off ch=16 n=62 v=64
211380 Off ch=16 n=66 v=64
211380 On ch=16 n=62 v=22
211380 On ch=16 n=65 v=22
211404 Off ch=16 n=60 v=64
211440 Off ch=16 n=65 v=64
211440 On ch=16 n=60 v=22
211440 On ch=16 n=66 v=22
211464 Off ch=16 n=62 v=64
211500 Off ch=16 n=66 v=64
211500 On ch=16 n=62 v=22
211500 On ch=16 n=65 v=22
211524 Off ch=16 n=60 v=64
211560 Off ch=16 n=65 v=64
211560 On ch=16 n=60 v=22
211560 On ch=16 n=66 v=22
211584 Off ch=16 n=62 v=64
211620 Off ch=16 n=66 v=64
211620 On ch=16 n=62 v=22
211620 On ch=16 n=65 v=22
211644 Off ch=16 n=60 v=64
211680 Off ch=16 n=65 v=64
211680 On ch=16 n=60 v=22
211680 On ch=16 n=66 v=22
211704 Off ch=16 n=62 v=64
211740 Off ch=16 n=66 v=64
211740 On ch=16 n=62 v=22
211740 On ch=16 n=65 v=22
211764 Off ch=16 n=60 v=64
211800 Off ch=16 n=65 v=64
211800 On ch=16 n=60 v=22
211800 On ch=16 n=66 v=22
211824 Off ch=16 n=62 v=64
211860 Off ch=16 n=66 v=64
211860 On ch=16 n=62 v=22
211860 On ch=16 n=65 v=22
211884 Off ch=16 n=60 v=64
211920 Off ch=16 n=65 v=64
211920 On ch=16 n=60 v=22
211920 On ch=16 n=66 v=22
211944 Off ch=16 n=62 v=64
211980 Off ch=16 n=66 v=64
211980 On ch=16 n=62 v=22
211980 On ch=16 n=65 v=22
212004 Off ch=16 n=60 v=64
212040 Off ch=16 n=65 v=64
212040 On ch=16 n=60 v=22
212040 On ch=16 n=66 v=22
212064 Off ch=16 n=62 v=64
212100 Off ch=16 n=66 v=64
212100 On ch=16 n=62 v=22
212100 On ch=16 n=65 v=22
212124 Off ch=16 n=60 v=64
212160 Off ch=16 n=65 v=64
212160 On ch=16 n=60 v=22
212160 On ch=16 n=66 v=22
212184 Off ch=16 n=62 v=64
212220 Off ch=16 n=66 v=64
212220 On ch=16 n=62 v=22
212220 On ch=16 n=65 v=22
212244 Off ch=16 n=60 v=64
212280 Off ch=16 n=65 v=64
212280 On ch=16 n=60 v=22
212280 On ch=16 n=66 v=22
212304 Off ch=16 n=62 v=64
212340 Off ch=16 n=66 v=64
212340 On ch=16 n=62 v=22
212340 On ch=16 n=65 v=22
212364 Off ch=16 n=60 v=64
212400 Off ch=16 n=65 v=64
212400 On ch=16 n=60 v=22
212400 On ch=16 n=66 v=22
212424 Off ch=16 n=62 v=64
212460 Off ch=16 n=66 v=64
212460 On ch=16 n=62 v=22
212460 On ch=16 n=65 v=22
212484 Off ch=16 n=60 v=64
212520 Off ch=16 n=65 v=64
212520 On ch=16 n=60 v=22
212520 On ch=16 n=66 v=22
212544 Off ch=16 n=62 v=64
212580 Off ch=16 n=66 v=64
212580 On ch=16 n=62 v=22
212580 On ch=16 n=65 v=22
212604 Off ch=16 n=60 v=64
212640 Off ch=16 n=65 v=64
212640 On ch=16 n=60 v=22
212640 On ch=16 n=66 v=22
212664 Off ch=16 n=62 v=64
212700 Off ch=16 n=66 v=64
212700 On ch=16 n=62 v=22
212700 On ch=16 n=65 v=22
212724 Off ch=16 n=60 v=64
212760 Off ch=16 n=65 v=64
212760 On ch=16 n=60 v=22
212760 On ch=16 n=66 v=22
212784 Off ch=16 n=62 v=64
212820 Off ch=16 n=66 v=64
212820 On ch=16 n=62 v=22
212820 On ch=16 n=65 v=22
212844 Off ch=16 n=60 v=64
212880 Off ch=16 n=65 v=64
212880 On ch=16 n=60 v=22
212880 On ch=16 n=66 v=22
212904 Off ch=16 n=62 v=64
212940 Off ch=16 n=66 v=64
212940 On ch=16 n=62 v=22
212940 On ch=16 n=65 v=22
212964 Off ch=16 n=60 v=64
213000 Off ch=16 n=65 v=64
213000 On ch=16 n=60 v=22
213000 On ch=16 n=66 v=22
213024 Off ch=16 n=62 v=64
213060 Off ch=16 n=66 v=64
213060 On ch=16 n=62 v=22
213060 On ch=16 n=65 v=22
213084 Off ch=16 n=60 v=64
213120 Off ch=16 n=65 v=64
213120 On ch=16 n=60 v=22
213120 On ch=16 n=66 v=22
213144 Off ch=16 n=62 v=64
213180 Off ch=16 n=66 v=64
213180 On ch=16 n=62 v=22
213180 On ch=16 n=65 v=22
213204 Off ch=16 n=60 v=64
213240 Off ch=16 n=65 v=64
213240 On ch=16 n=60 v=22
213240 On ch=16 n=66 v=22
213264 Off ch=16 n=62 v=64
213300 Off ch=16 n=66 v=64
213300 On ch=16 n=62 v=22
213300 On ch=16 n=65 v=22
213324 Off ch=16 n=60 v=64
213360 Off ch=16 n=65 v=64
213360 On ch=16 n=60 v=22
213360 On ch=16 n=66 v=22
213384 Off ch=16 n=62 v=64
213420 Off ch=16 n=66 v=64
213420 On ch=16 n=62 v=22
213420 On ch=16 n=65 v=22
213444 Off ch=16 n=60 v=64
213480 Off ch=16 n=65 v=64
213480 On ch=16 n=60 v=22
213480 On ch=16 n=66 v=22
213504 Off ch=16 n=62 v=64
213540 Off ch=16 n=66 v=64
213540 On ch=16 n=62 v=22
213540 On ch=16 n=65 v=22
213564 Off ch=16 n=60 v=64
213600 Off ch=16 n=65 v=64
213600 On ch=16 n=60 v=22
213600 On ch=16 n=66 v=22
213624 Off ch=16 n=62 v=64
213660 Off ch=16 n=66 v=64
213660 On ch=16 n=62 v=22
213660 On ch=16 n=65 v=22
213684 Off ch=16 n=60 v=64
213720 Off ch=16 n=65 v=64
213720 On ch=16 n=60 v=22
213720 On ch=16 n=66 v=22
213744 Off ch=16 n=62 v=64
213780 Off ch=16 n=66 v=64
213780 On ch=16 n=62 v=22
213780 On ch=16 n=65 v=22
213804 Off ch=16 n=60 v=64
213840 Off ch=16 n=65 v=64
213840 On ch=16 n=60 v=22
213840 On ch=16 n=66 v=22
213864 Off ch=16 n=62 v=64
213900 Off ch=16 n=66 v=64
213900 On ch=16 n=62 v=22
213900 On ch=16 n=65 v=22
213924 Off ch=16 n=60 v=64
213960 Off ch=16 n=65 v=64
213960 On ch=16 n=60 v=22
213960 On ch=16 n=66 v=22
213984 Off ch=16 n=62 v=64
214020 Off ch=16 n=66 v=64
214020 On ch=16 n=62 v=22
214020 On ch=16 n=65 v=22
214044 Off ch=16 n=60 v=64
214080 Off ch=16 n=65 v=64
214080 On ch=16 n=60 v=22
214080 On ch=16 n=66 v=22
214104 Off ch=16 n=62 v=64
214140 Off ch=16 n=66 v=64
214140 On ch=16 n=62 v=22
214140 On ch=16 n=65 v=22
214164 Off ch=16 n=60 v=64
214200 Off ch=16 n=65 v=64
214200 On ch=16 n=60 v=22
214200 On ch=16 n=66 v=22
214224 Off ch=16 n=62 v=64
214260 Off ch=16 n=66 v=64
214260 On ch=16 n=62 v=22
214260 On ch=16 n=65 v=22
214284 Off ch=16 n=60 v=64
214320 Off ch=16 n=65 v=64
214320 On ch=16 n=60 v=22
214320 On ch=16 n=66 v=22
214344 Off ch=16 n=62 v=64
214380 Off ch=16 n=66 v=64
214380 On ch=16 n=62 v=22
214380 On ch=16 n=65 v=22
214404 Off ch=16 n=60 v=64
214440 Off ch=16 n=65 v=64
214440 On ch=16 n=60 v=22
214440 On ch=16 n=66 v=22
214464 Off ch=16 n=62 v=64
214500 Off ch=16 n=66 v=64
214500 On ch=16 n=62 v=22
214500 On ch=16 n=65 v=22
214524 Off ch=16 n=60 v=64
214560 Off ch=16 n=65 v=64
214584 Off ch=16 n=62 v=64
524160 Meta TrkEnd
TrkEnd
MTrk
0 Meta TrkName "gbN 2"
524160 Meta TrkEnd
TrkEnd
MTrk
0 Meta TrkName "gbN 3"
524160 Meta TrkEnd
TrkEnd
MTrk