MFile 1 11 48
MTrk
0 Meta 0x21 00
0 SysEx f0 09 01 f7 00 ff
0 Meta 0x21 00
0 TimeSig 9/8 12 8
0 KeySig 0 major
0 Tempo 375000
19872 Tempo 375000
19872 Meta Marker "Ride of the Valkyries
By Richard Wagner
Rearranged L. Roberts
"
19888 Tempo 377358
19904 Tempo 379747
19921 Tempo 382166
19937 Tempo 384615
19953 Tempo 387097
19969 Tempo 389610
19985 Tempo 392157
20002 Tempo 394737
20018 Tempo 397351
20034 Tempo 400000
20050 Tempo 402685
20066 Tempo 405405
20083 Tempo 408163
20099 Tempo 410959
20115 Tempo 413793
20131 Tempo 416667
20147 Tempo 419580
20164 Tempo 422535
20180 Tempo 425532
20196 Tempo 428571
20212 Tempo 431655
20228 Tempo 434783
20245 Tempo 437956
20261 Tempo 441176
20277 Tempo 444444
20293 Tempo 447761
20309 Tempo 451128
20326 Tempo 454545
20342 Tempo 458015
20358 Tempo 461538
20374 Tempo 465116
20390 Tempo 468750
20407 Tempo 472441
20423 Tempo 476190
20439 Tempo 480000
20455 Tempo 483871
20471 Tempo 487805
20488 Tempo 491803
20504 Tempo 495868
20520 Tempo 500000
20724 Tempo 500000
20730 Tempo 495868
20735 Tempo 491803
20741 Tempo 487805
20747 Tempo 483871
20753 Tempo 480000
20758 Tempo 476190
20764 Tempo 472441
20770 Tempo 468750
20775 Tempo 465116
20781 Tempo 461538
20787 Tempo 458015
20792 Tempo 454545
20798 Tempo 451128
20804 Tempo 447761
20810 Tempo 444444
20815 Tempo 441176
20821 Tempo 437956
20827 Tempo 434783
20832 Tempo 431655
20838 Tempo 428571
20844 Tempo 425532
20849 Tempo 422535
20855 Tempo 419580
20861 Tempo 416667
20867 Tempo 413793
20872 Tempo 410959
20878 Tempo 408163
20884 Tempo 405405
20889 Tempo 402685
20895 Tempo 400000
20901 Tempo 397351
20906 Tempo 394737
20912 Tempo 392157
20918 Tempo 389610
20924 Tempo 387097
20929 Tempo 384615
20935 Tempo 382166
20941 Tempo 379747
20946 Tempo 377358
20952 Tempo 375000
20952 Meta TrkEnd
TrkEnd
MTrk
0 Meta 0x21 00
0 Meta TrkName "Strings I"
0 PrCh ch=1 p=48
0 Par ch=1 c=7 v=110
0 Par ch=1 c=10 v=84
0 Par ch=1 c=91 v=70
0 Par ch=1 c=11 v=127
1 Par ch=1 c=93 v=30
408 On ch=1 n=71 v=69
410 On ch=1 n=71 v=0
413 On ch=1 n=73 v=82
414 On ch=1 n=73 v=0
419 On ch=1 n=74 v=88
423 On ch=1 n=74 v=0
425 On ch=1 n=76 v=88
429 On ch=1 n=76 v=0
431 On ch=1 n=78 v=91
446 On ch=1 n=78 v=0
623 On ch=1 n=83 v=69
624 On ch=1 n=83 v=0
629 On ch=1 n=85 v=78
630 On ch=1 n=85 v=0
636 On ch=1 n=86 v=80
640 On ch=1 n=86 v=0
641 On ch=1 n=88 v=82
645 On ch=1 n=88 v=0
647 On ch=1 n=90 v=82
662 On ch=1 n=90 v=0
839 On ch=1 n=71 v=68
840 On ch=1 n=71 v=0
846 On ch=1 n=73 v=82
848 On ch=1 n=73 v=0
852 On ch=1 n=74 v=92
854 On ch=1 n=74 v=0
857 On ch=1 n=76 v=88
858 On ch=1 n=76 v=0
863 On ch=1 n=78 v=90
879 On ch=1 n=78 v=0
1272 On ch=1 n=71 v=68
1276 On ch=1 n=71 v=0
1278 On ch=1 n=73 v=78
1282 On ch=1 n=73 v=0
1284 On ch=1 n=74 v=89
1288 On ch=1 n=74 v=0
1289 On ch=1 n=76 v=88
1292 On ch=1 n=76 v=0
1295 On ch=1 n=78 v=91
1311 On ch=1 n=78 v=0
1487 On ch=1 n=83 v=67
1488 On ch=1 n=83 v=0
1494 On ch=1 n=85 v=79
1498 On ch=1 n=85 v=0
1500 On ch=1 n=86 v=92
1501 On ch=1 n=86 v=0
1505 On ch=1 n=88 v=93
1507 On ch=1 n=88 v=0
1511 On ch=1 n=90 v=89
1530 On ch=1 n=90 v=0
1704 On ch=1 n=71 v=70
1705 On ch=1 n=71 v=0
1709 On ch=1 n=73 v=80
1713 On ch=1 n=73 v=0
1715 On ch=1 n=74 v=91
1717 On ch=1 n=74 v=0
1721 On ch=1 n=76 v=98
1723 On ch=1 n=76 v=0
1727 On ch=1 n=78 v=112
1745 On ch=1 n=78 v=0
1943 On ch=1 n=90 v=60
1950 On ch=1 n=90 v=0
1953 On ch=1 n=86 v=55
1960 On ch=1 n=86 v=0
1962 On ch=1 n=83 v=51
1968 On ch=1 n=83 v=0
1971 On ch=1 n=78 v=47
1978 On ch=1 n=78 v=0
1982 On ch=1 n=74 v=40
1987 On ch=1 n=74 v=0
1992 On ch=1 n=71 v=92
1996 On ch=1 n=71 v=0
1997 On ch=1 n=73 v=97
2001 On ch=1 n=73 v=0
2004 On ch=1 n=74 v=102
2007 On ch=1 n=74 v=0
2009 On ch=1 n=76 v=102
2013 On ch=1 n=76 v=0
2016 On ch=1 n=83 v=77
2016 On ch=1 n=78 v=117
2021 On ch=1 n=83 v=0
2026 On ch=1 n=79 v=86
2032 On ch=1 n=79 v=0
2033 On ch=1 n=78 v=0
2034 On ch=1 n=74 v=79
2040 On ch=1 n=74 v=0
2044 On ch=1 n=71 v=72
2049 On ch=1 n=71 v=0
2064 On ch=1 n=83 v=57
2065 On ch=1 n=83 v=0
2070 On ch=1 n=85 v=63
2072 On ch=1 n=85 v=0
2076 On ch=1 n=86 v=69
2080 On ch=1 n=86 v=0
2082 On ch=1 n=88 v=69
2085 On ch=1 n=88 v=0
2087 On ch=1 n=90 v=71
2087 On ch=1 n=78 v=122
2094 On ch=1 n=78 v=0
2097 On ch=1 n=74 v=114
2103 On ch=1 n=74 v=0
2104 On ch=1 n=90 v=0
2104 On ch=1 n=71 v=94
2108 On ch=1 n=71 v=0
2160 On ch=1 n=90 v=57
2167 On ch=1 n=90 v=0
2168 On ch=1 n=86 v=57
2173 On ch=1 n=86 v=0
2178 On ch=1 n=83 v=49
2182 On ch=1 n=83 v=0
2188 On ch=1 n=78 v=46
2196 On ch=1 n=78 v=0
2198 On ch=1 n=74 v=40
2203 On ch=1 n=74 v=0
2207 On ch=1 n=71 v=87
2210 On ch=1 n=71 v=0
2214 On ch=1 n=73 v=93
2215 On ch=1 n=73 v=0
2220 On ch=1 n=74 v=101
2222 On ch=1 n=74 v=0
2226 On ch=1 n=76 v=107
2228 On ch=1 n=76 v=0
2231 On ch=1 n=83 v=80
2231 On ch=1 n=78 v=105
2239 On ch=1 n=83 v=0
2242 On ch=1 n=79 v=82
2247 On ch=1 n=79 v=0
2248 On ch=1 n=78 v=0
2249 On ch=1 n=74 v=79
2257 On ch=1 n=74 v=0
2260 On ch=1 n=71 v=70
2267 On ch=1 n=71 v=0
2280 On ch=1 n=83 v=60
2283 On ch=1 n=83 v=0
2285 On ch=1 n=85 v=60
2287 On ch=1 n=85 v=0
2292 On ch=1 n=86 v=68
2293 On ch=1 n=86 v=0
2298 On ch=1 n=88 v=69
2299 On ch=1 n=88 v=0
2304 On ch=1 n=78 v=127
2304 On ch=1 n=90 v=79
2310 On ch=1 n=78 v=0
2312 On ch=1 n=74 v=112
2320 On ch=1 n=74 v=0
2320 On ch=1 n=71 v=96
2323 On ch=1 n=90 v=0
2326 On ch=1 n=71 v=0
2376 On ch=1 n=90 v=60
2382 On ch=1 n=90 v=0
2385 On ch=1 n=86 v=53
2393 On ch=1 n=86 v=0
2394 On ch=1 n=83 v=52
2399 On ch=1 n=83 v=0
2403 On ch=1 n=78 v=46
2411 On ch=1 n=78 v=0
2413 On ch=1 n=74 v=41
2420 On ch=1 n=74 v=0
2424 On ch=1 n=71 v=90
2428 On ch=1 n=71 v=0
2429 On ch=1 n=73 v=93
2433 On ch=1 n=73 v=0
2435 On ch=1 n=74 v=97
2436 On ch=1 n=74 v=0
2441 On ch=1 n=76 v=106
2442 On ch=1 n=76 v=0
2447 On ch=1 n=83 v=81
2448 On ch=1 n=78 v=113
2453 On ch=1 n=83 v=0
2458 On ch=1 n=79 v=85
2465 On ch=1 n=79 v=0
2465 On ch=1 n=78 v=0
2467 On ch=1 n=74 v=79
2473 On ch=1 n=74 v=0
2476 On ch=1 n=71 v=70
2481 On ch=1 n=71 v=0
2495 On ch=1 n=83 v=59
2497 On ch=1 n=83 v=0
2502 On ch=1 n=85 v=62
2504 On ch=1 n=85 v=0
2508 On ch=1 n=86 v=64
2510 On ch=1 n=86 v=0
2513 On ch=1 n=88 v=69
2516 On ch=1 n=88 v=0
2520 On ch=1 n=90 v=80
2520 On ch=1 n=78 v=127
2528 On ch=1 n=78 v=0
2528 On ch=1 n=74 v=115
2534 On ch=1 n=74 v=0
2537 On ch=1 n=90 v=0
2537 On ch=1 n=71 v=92
2542 On ch=1 n=71 v=0
2592 On ch=1 n=90 v=61
2598 On ch=1 n=90 v=0
2600 On ch=1 n=86 v=55
2605 On ch=1 n=86 v=0
2611 On ch=1 n=83 v=47
2616 On ch=1 n=83 v=0
2619 On ch=1 n=78 v=42
2625 On ch=1 n=78 v=0
2629 On ch=1 n=74 v=41
2637 On ch=1 n=74 v=0
2639 On ch=1 n=71 v=88
2640 On ch=1 n=71 v=0
2646 On ch=1 n=73 v=97
2647 On ch=1 n=73 v=0
2652 On ch=1 n=74 v=102
2656 On ch=1 n=74 v=0
2658 On ch=1 n=76 v=107
2661 On ch=1 n=76 v=0
2664 On ch=1 n=78 v=112
2664 On ch=1 n=83 v=87
2672 On ch=1 n=83 v=0
2673 On ch=1 n=79 v=85
2680 On ch=1 n=79 v=0
2680 On ch=1 n=78 v=0
2682 On ch=1 n=74 v=76
2691 On ch=1 n=74 v=0
2692 On ch=1 n=71 v=68
2696 On ch=1 n=71 v=0
2712 On ch=1 n=83 v=58
2713 On ch=1 n=83 v=0
2717 On ch=1 n=85 v=62
2718 On ch=1 n=85 v=0
2723 On ch=1 n=86 v=65
2727 On ch=1 n=86 v=0
2730 On ch=1 n=88 v=71
2735 On ch=1 n=88 v=0
2735 On ch=1 n=78 v=122
2735 On ch=1 n=90 v=68
2740 On ch=1 n=78 v=0
2744 On ch=1 n=74 v=115
2749 On ch=1 n=74 v=0
2752 On ch=1 n=90 v=0
2753 On ch=1 n=71 v=95
2758 On ch=1 n=71 v=0
2807 On ch=1 n=90 v=59
2814 On ch=1 n=90 v=0
2817 On ch=1 n=86 v=52
2822 On ch=1 n=86 v=0
2827 On ch=1 n=83 v=51
2833 On ch=1 n=83 v=0
2836 On ch=1 n=78 v=43
2844 On ch=1 n=78 v=0
2845 On ch=1 n=74 v=37
2852 On ch=1 n=74 v=0
2856 On ch=1 n=71 v=87
2858 On ch=1 n=71 v=0
2862 On ch=1 n=73 v=96
2866 On ch=1 n=73 v=0
2868 On ch=1 n=74 v=101
2870 On ch=1 n=74 v=0
2874 On ch=1 n=76 v=105
2877 On ch=1 n=76 v=0
2879 On ch=1 n=83 v=82
2879 On ch=1 n=78 v=106
2886 On ch=1 n=83 v=0
2889 On ch=1 n=79 v=85
2893 On ch=1 n=79 v=0
2895 On ch=1 n=78 v=0
2899 On ch=1 n=74 v=75
2906 On ch=1 n=74 v=0
2908 On ch=1 n=71 v=73
2915 On ch=1 n=71 v=0
2928 On ch=1 n=83 v=56
2930 On ch=1 n=83 v=0
2933 On ch=1 n=85 v=60
2934 On ch=1 n=85 v=0
2939 On ch=1 n=86 v=68
2943 On ch=1 n=86 v=0
2946 On ch=1 n=88 v=71
2947 On ch=1 n=88 v=0
2951 On ch=1 n=78 v=122
2952 On ch=1 n=90 v=82
2956 On ch=1 n=78 v=0
2960 On ch=1 n=74 v=113
2968 On ch=1 n=74 v=0
2968 On ch=1 n=71 v=97
2972 On ch=1 n=90 v=0
2974 On ch=1 n=71 v=0
3024 On ch=1 n=90 v=61
3029 On ch=1 n=90 v=0
3033 On ch=1 n=86 v=52
3039 On ch=1 n=86 v=0
3043 On ch=1 n=83 v=52
3049 On ch=1 n=83 v=0
3052 On ch=1 n=78 v=43
3060 On ch=1 n=78 v=0
3062 On ch=1 n=74 v=37
3070 On ch=1 n=74 v=0
3072 On ch=1 n=71 v=89
3074 On ch=1 n=71 v=0
3077 On ch=1 n=73 v=94
3079 On ch=1 n=73 v=0
3083 On ch=1 n=74 v=98
3084 On ch=1 n=74 v=0
3090 On ch=1 n=76 v=107
3091 On ch=1 n=76 v=0
3096 On ch=1 n=83 v=87
3096 On ch=1 n=78 v=114
3103 On ch=1 n=83 v=0
3105 On ch=1 n=79 v=82
3111 On ch=1 n=79 v=0
3111 On ch=1 n=78 v=0
3114 On ch=1 n=74 v=78
3122 On ch=1 n=74 v=0
3125 On ch=1 n=71 v=72
3130 On ch=1 n=71 v=0
3143 On ch=1 n=83 v=60
3144 On ch=1 n=83 v=0
3149 On ch=1 n=85 v=62
3151 On ch=1 n=85 v=0
3155 On ch=1 n=86 v=67
3157 On ch=1 n=86 v=0
3162 On ch=1 n=88 v=70
3163 On ch=1 n=88 v=0
3168 On ch=1 n=90 v=78
3168 On ch=1 n=78 v=127
3174 On ch=1 n=78 v=0
3177 On ch=1 n=74 v=116
3182 On ch=1 n=74 v=0
3185 On ch=1 n=71 v=96
3187 On ch=1 n=90 v=0
3192 On ch=1 n=71 v=0
3240 On ch=1 n=93 v=58
3247 On ch=1 n=93 v=0
3249 On ch=1 n=91 v=54
3256 On ch=1 n=91 v=0
3259 On ch=1 n=90 v=47
3264 On ch=1 n=90 v=0
3267 On ch=1 n=85 v=43
3274 On ch=1 n=85 v=0
3278 On ch=1 n=79 v=37
3286 On ch=1 n=79 v=0
3287 On ch=1 n=74 v=90
3291 On ch=1 n=74 v=0
3295 On ch=1 n=73 v=96
3300 On ch=1 n=73 v=0
3303 On ch=1 n=71 v=100
3308 On ch=1 n=71 v=0
3312 On ch=1 n=69 v=112
3312 On ch=1 n=86 v=90
3319 On ch=1 n=86 v=0
3322 On ch=1 n=81 v=82
3327 On ch=1 n=69 v=0
3329 On ch=1 n=81 v=0
3330 On ch=1 n=79 v=77
3336 On ch=1 n=79 v=0
3340 On ch=1 n=74 v=73
3345 On ch=1 n=74 v=0
3349 On ch=1 n=69 v=64
3354 On ch=1 n=69 v=0
3359 On ch=1 n=86 v=57
3365 On ch=1 n=86 v=0
3368 On ch=1 n=85 v=64
3372 On ch=1 n=85 v=0
3376 On ch=1 n=83 v=63
3382 On ch=1 n=83 v=0
3383 On ch=1 n=81 v=119
3389 On ch=1 n=81 v=0
3391 On ch=1 n=76 v=113
3398 On ch=1 n=76 v=0
3399 On ch=1 n=73 v=94
3407 On ch=1 n=73 v=0
3407 On ch=1 n=69 v=87
3413 On ch=1 n=69 v=0
3432 On ch=1 n=69 v=97
3433 On ch=1 n=69 v=0
3456 On ch=1 n=93 v=57
3461 On ch=1 n=93 v=0
3464 On ch=1 n=91 v=55
3472 On ch=1 n=91 v=0
3475 On ch=1 n=90 v=51
3481 On ch=1 n=90 v=0
3483 On ch=1 n=85 v=45
3488 On ch=1 n=85 v=0
3493 On ch=1 n=79 v=38
3500 On ch=1 n=79 v=0
3504 On ch=1 n=74 v=90
3507 On ch=1 n=74 v=0
3510 On ch=1 n=76 v=97
3513 On ch=1 n=76 v=0
3516 On ch=1 n=78 v=92
3519 On ch=1 n=78 v=0
3521 On ch=1 n=79 v=98
3525 On ch=1 n=79 v=0
3527 On ch=1 n=86 v=80
3528 On ch=1 n=81 v=113
3532 On ch=1 n=86 v=0
3543 On ch=1 n=81 v=0
3546 On ch=1 n=79 v=78
3554 On ch=1 n=79 v=0
3557 On ch=1 n=74 v=70
3561 On ch=1 n=74 v=0
3575 On ch=1 n=86 v=63
3577 On ch=1 n=86 v=0
3581 On ch=1 n=88 v=70
3584 On ch=1 n=88 v=0
3587 On ch=1 n=90 v=72
3591 On ch=1 n=90 v=0
3593 On ch=1 n=91 v=77
3598 On ch=1 n=91 v=0
3600 On ch=1 n=93 v=91
3600 On ch=1 n=81 v=127
3607 On ch=1 n=81 v=0
3609 On ch=1 n=78 v=116
3616 On ch=1 n=78 v=0
3617 On ch=1 n=93 v=0
3619 On ch=1 n=74 v=95
3625 On ch=1 n=74 v=0
3672 On ch=1 n=93 v=62
3678 On ch=1 n=93 v=0
3681 On ch=1 n=91 v=52
3688 On ch=1 n=91 v=0
3690 On ch=1 n=90 v=52
3694 On ch=1 n=90 v=0
3699 On ch=1 n=85 v=45
3706 On ch=1 n=85 v=0
3710 On ch=1 n=79 v=42
3715 On ch=1 n=79 v=0
3720 On ch=1 n=74 v=55
3726 On ch=1 n=76 v=94
3729 On ch=1 n=76 v=0
3731 On ch=1 n=78 v=93
3733 On ch=1 n=78 v=0
3738 On ch=1 n=79 v=102
3740 On ch=1 n=74 v=0
3743 On ch=1 n=79 v=0
3744 On ch=1 n=86 v=91
3744 On ch=1 n=81 v=115
3750 On ch=1 n=86 v=0
3762 On ch=1 n=81 v=0
3762 On ch=1 n=79 v=77
3769 On ch=1 n=79 v=0
3772 On ch=1 n=74 v=68
3779 On ch=1 n=74 v=0
3792 On ch=1 n=86 v=65
3797 On ch=1 n=86 v=0
3798 On ch=1 n=88 v=69
3800 On ch=1 n=88 v=0
3804 On ch=1 n=90 v=71
3808 On ch=1 n=90 v=0
3810 On ch=1 n=91 v=77
3813 On ch=1 n=91 v=0
3815 On ch=1 n=93 v=79
3816 On ch=1 n=81 v=92
3825 On ch=1 n=78 v=114
3833 On ch=1 n=78 v=0
3835 On ch=1 n=81 v=0
3835 On ch=1 n=93 v=0
3835 On ch=1 n=74 v=96
3840 On ch=1 n=74 v=0
3888 On ch=1 n=93 v=58
3893 On ch=1 n=93 v=0
3897 On ch=1 n=91 v=57
3902 On ch=1 n=91 v=0
3907 On ch=1 n=90 v=47
3913 On ch=1 n=90 v=0
3916 On ch=1 n=85 v=44
3924 On ch=1 n=85 v=0
3926 On ch=1 n=79 v=41
3934 On ch=1 n=79 v=0
3936 On ch=1 n=74 v=53
3942 On ch=1 n=76 v=95
3944 On ch=1 n=76 v=0
3947 On ch=1 n=78 v=97
3949 On ch=1 n=78 v=0
3953 On ch=1 n=79 v=101
3956 On ch=1 n=74 v=0
3957 On ch=1 n=79 v=0
3959 On ch=1 n=86 v=79
3967 On ch=1 n=86 v=0
3970 On ch=1 n=81 v=85
3975 On ch=1 n=81 v=0
3978 On ch=1 n=79 v=78
3983 On ch=1 n=79 v=0
3989 On ch=1 n=74 v=71
3996 On ch=1 n=74 v=0
4007 On ch=1 n=74 v=66
4008 On ch=1 n=74 v=0
4008 On ch=1 n=86 v=64
4012 On ch=1 n=86 v=0
4013 On ch=1 n=76 v=66
4013 On ch=1 n=88 v=69
4016 On ch=1 n=88 v=0
4018 On ch=1 n=76 v=0
4020 On ch=1 n=78 v=72
4020 On ch=1 n=90 v=71
4021 On ch=1 n=78 v=0
4022 On ch=1 n=90 v=0
4026 On ch=1 n=91 v=76
4026 On ch=1 n=79 v=74
4030 On ch=1 n=91 v=0
4031 On ch=1 n=79 v=0
4031 On ch=1 n=93 v=82
4032 On ch=1 n=81 v=91
4042 On ch=1 n=78 v=116
4049 On ch=1 n=78 v=0
4050 On ch=1 n=81 v=0
4050 On ch=1 n=93 v=0
4050 On ch=1 n=74 v=96
4057 On ch=1 n=74 v=0
4103 On ch=1 n=93 v=57
4107 On ch=1 n=93 v=0
4112 On ch=1 n=91 v=52
4119 On ch=1 n=91 v=0
4122 On ch=1 n=90 v=48
4127 On ch=1 n=90 v=0
4132 On ch=1 n=85 v=43
4139 On ch=1 n=85 v=0
4141 On ch=1 n=79 v=37
4147 On ch=1 n=79 v=0
4151 On ch=1 n=74 v=53
4157 On ch=1 n=76 v=94
4158 On ch=1 n=76 v=0
4163 On ch=1 n=78 v=97
4167 On ch=1 n=78 v=0
4169 On ch=1 n=79 v=100
4170 On ch=1 n=79 v=0
4171 On ch=1 n=74 v=0
4175 On ch=1 n=81 v=104
4175 On ch=1 n=86 v=79
4183 On ch=1 n=86 v=0
4193 On ch=1 n=81 v=0
4195 On ch=1 n=79 v=75
4201 On ch=1 n=79 v=0
4205 On ch=1 n=74 v=71
4212 On ch=1 n=74 v=0
4223 On ch=1 n=74 v=65
4223 On ch=1 n=86 v=63
4225 On ch=1 n=74 v=0
4227 On ch=1 n=86 v=0
4229 On ch=1 n=76 v=65
4230 On ch=1 n=88 v=69
4232 On ch=1 n=76 v=0
4234 On ch=1 n=88 v=0
4235 On ch=1 n=90 v=74
4236 On ch=1 n=90 v=0
4236 On ch=1 n=78 v=69
4239 On ch=1 n=78 v=0
4241 On ch=1 n=79 v=78
4242 On ch=1 n=91 v=75
4243 On ch=1 n=79 v=0
4246 On ch=1 n=91 v=0
4247 On ch=1 n=93 v=79
4248 On ch=1 n=81 v=92
4258 On ch=1 n=78 v=117
4265 On ch=1 n=78 v=0
4266 On ch=1 n=93 v=0
4266 On ch=1 n=74 v=97
4267 On ch=1 n=81 v=0
4273 On ch=1 n=74 v=0
4319 On ch=1 n=93 v=58
4325 On ch=1 n=93 v=0
4328 On ch=1 n=91 v=52
4334 On ch=1 n=91 v=0
4338 On ch=1 n=90 v=48
4342 On ch=1 n=90 v=0
4347 On ch=1 n=85 v=46
4353 On ch=1 n=85 v=0
4358 On ch=1 n=79 v=40
4365 On ch=1 n=79 v=0
4367 On ch=1 n=74 v=52
4374 On ch=1 n=76 v=97
4376 On ch=1 n=76 v=0
4380 On ch=1 n=78 v=92
4381 On ch=1 n=78 v=0
4386 On ch=1 n=74 v=0
4386 On ch=1 n=79 v=101
4390 On ch=1 n=79 v=0
4392 On ch=1 n=81 v=114
4392 On ch=1 n=86 v=92
4400 On ch=1 n=86 v=0
4410 On ch=1 n=81 v=0
4411 On ch=1 n=79 v=79
4418 On ch=1 n=79 v=0
4420 On ch=1 n=74 v=73
4425 On ch=1 n=74 v=0
4439 On ch=1 n=86 v=62
4440 On ch=1 n=86 v=0
4440 On ch=1 n=74 v=66
4444 On ch=1 n=74 v=0
4446 On ch=1 n=88 v=68
4446 On ch=1 n=76 v=65
4448 On ch=1 n=76 v=0
4450 On ch=1 n=88 v=0
4451 On ch=1 n=78 v=73
4451 On ch=1 n=90 v=72
4452 On ch=1 n=90 v=0
4453 On ch=1 n=78 v=0
4457 On ch=1 n=79 v=77
4458 On ch=1 n=91 v=78
4459 On ch=1 n=91 v=0
4459 On ch=1 n=79 v=0
4463 On ch=1 n=93 v=81
4464 On ch=1 n=81 v=90
4474 On ch=1 n=78 v=114
4482 On ch=1 n=78 v=0
4482 On ch=1 n=81 v=0
4482 On ch=1 n=93 v=0
4482 On ch=1 n=74 v=95
4487 On ch=1 n=74 v=0
4536 On ch=1 n=93 v=58
4541 On ch=1 n=93 v=0
4544 On ch=1 n=91 v=57
4549 On ch=1 n=91 v=0
4555 On ch=1 n=90 v=47
4561 On ch=1 n=90 v=0
4563 On ch=1 n=85 v=42
4568 On ch=1 n=85 v=0
4574 On ch=1 n=79 v=40
4582 On ch=1 n=79 v=0
4584 On ch=1 n=74 v=52
4589 On ch=1 n=76 v=93
4590 On ch=1 n=76 v=0
4595 On ch=1 n=78 v=97
4599 On ch=1 n=78 v=0
4601 On ch=1 n=79 v=100
4604 On ch=1 n=79 v=0
4606 On ch=1 n=74 v=0
4607 On ch=1 n=86 v=79
4608 On ch=1 n=81 v=117
4615 On ch=1 n=86 v=0
4625 On ch=1 n=81 v=0
4626 On ch=1 n=79 v=80
4634 On ch=1 n=79 v=0
4636 On ch=1 n=74 v=69
4642 On ch=1 n=74 v=0
4655 On ch=1 n=74 v=61
4656 On ch=1 n=74 v=0
4656 On ch=1 n=86 v=62
4657 On ch=1 n=86 v=0
4661 On ch=1 n=76 v=69
4662 On ch=1 n=88 v=65
4664 On ch=1 n=88 v=0
4665 On ch=1 n=76 v=0
4668 On ch=1 n=78 v=71
4668 On ch=1 n=90 v=72
4670 On ch=1 n=78 v=0
4672 On ch=1 n=90 v=0
4674 On ch=1 n=91 v=78
4674 On ch=1 n=79 v=75
4676 On ch=1 n=79 v=0
4676 On ch=1 n=91 v=0
4679 On ch=1 n=81 v=81
4680 On ch=1 n=93 v=91
4690 On ch=1 n=78 v=114
4696 On ch=1 n=78 v=0
4698 On ch=1 n=81 v=0
4698 On ch=1 n=74 v=95
4700 On ch=1 n=93 v=0
4704 On ch=1 n=74 v=0
4752 On ch=1 n=90 v=61
4756 On ch=1 n=90 v=0
4759 On ch=1 n=85 v=54
4767 On ch=1 n=85 v=0
4770 On ch=1 n=81 v=52
4777 On ch=1 n=81 v=0
4779 On ch=1 n=78 v=46
4785 On ch=1 n=78 v=0
4789 On ch=1 n=73 v=42
4796 On ch=1 n=73 v=0
4800 On ch=1 n=78 v=88
4803 On ch=1 n=78 v=0
4807 On ch=1 n=76 v=93
4812 On ch=1 n=76 v=0
4815 On ch=1 n=74 v=98
4819 On ch=1 n=74 v=0
4823 On ch=1 n=73 v=103
4824 On ch=1 n=85 v=87
4829 On ch=1 n=85 v=0
4833 On ch=1 n=81 v=84
4837 On ch=1 n=81 v=0
4840 On ch=1 n=73 v=0
4842 On ch=1 n=78 v=75
4850 On ch=1 n=78 v=0
4853 On ch=1 n=73 v=73
4860 On ch=1 n=73 v=0
4872 On ch=1 n=90 v=57
4878 On ch=1 n=90 v=0
4879 On ch=1 n=88 v=59
4885 On ch=1 n=88 v=0
4888 On ch=1 n=86 v=68
4892 On ch=1 n=86 v=0
4895 On ch=1 n=80 v=118
4896 On ch=1 n=85 v=81
4903 On ch=1 n=80 v=0
4906 On ch=1 n=77 v=115
4914 On ch=1 n=77 v=0
4915 On ch=1 n=73 v=96
4916 On ch=1 n=85 v=0
4923 On ch=1 n=73 v=0
4968 On ch=1 n=90 v=58
4972 On ch=1 n=90 v=0
4976 On ch=1 n=85 v=56
4981 On ch=1 n=85 v=0
4987 On ch=1 n=82 v=49
4993 On ch=1 n=82 v=0
4996 On ch=1 n=78 v=42
5003 On ch=1 n=78 v=0
5005 On ch=1 n=73 v=39
5014 On ch=1 n=73 v=0
5024 On ch=1 n=75 v=94
5030 On ch=1 n=75 v=0
5032 On ch=1 n=77 v=100
5039 On ch=1 n=77 v=0
5040 On ch=1 n=85 v=92
5040 On ch=1 n=78 v=113
5048 On ch=1 n=85 v=0
5050 On ch=1 n=82 v=82
5054 On ch=1 n=78 v=0
5056 On ch=1 n=82 v=0
5058 On ch=1 n=78 v=79
5066 On ch=1 n=78 v=0
5068 On ch=1 n=73 v=68
5075 On ch=1 n=73 v=0
5088 On ch=1 n=73 v=58
5088 On ch=1 n=85 v=60
5091 On ch=1 n=85 v=0
5092 On ch=1 n=73 v=0
5096 On ch=1 n=75 v=62
5096 On ch=1 n=87 v=61
5099 On ch=1 n=75 v=0
5101 On ch=1 n=87 v=0
5103 On ch=1 n=76 v=63
5103 On ch=1 n=88 v=64
5107 On ch=1 n=88 v=0
5107 On ch=1 n=76 v=0
5111 On ch=1 n=78 v=68
5112 On ch=1 n=90 v=78
5122 On ch=1 n=73 v=116
5128 On ch=1 n=78 v=0
5130 On ch=1 n=73 v=0
5132 On ch=1 n=90 v=0
5183 On ch=1 n=90 v=61
5190 On ch=1 n=90 v=0
5192 On ch=1 n=85 v=57
5197 On ch=1 n=85 v=0
5202 On ch=1 n=82 v=52
5207 On ch=1 n=82 v=0
5211 On ch=1 n=78 v=44
5219 On ch=1 n=78 v=0
5221 On ch=1 n=73 v=38
5229 On ch=1 n=73 v=0
5231 On ch=1 n=73 v=87
5234 On ch=1 n=73 v=0
5239 On ch=1 n=75 v=97
5244 On ch=1 n=75 v=0
5247 On ch=1 n=77 v=99
5252 On ch=1 n=77 v=0
5255 On ch=1 n=85 v=78
5256 On ch=1 n=78 v=115
5261 On ch=1 n=85 v=0
5266 On ch=1 n=82 v=86
5271 On ch=1 n=78 v=0
5272 On ch=1 n=82 v=0
5275 On ch=1 n=78 v=76
5283 On ch=1 n=78 v=0
5285 On ch=1 n=73 v=69
5291 On ch=1 n=73 v=0
5303 On ch=1 n=73 v=56
5304 On ch=1 n=85 v=60
5307 On ch=1 n=73 v=0
5308 On ch=1 n=85 v=0
5311 On ch=1 n=75 v=60
5312 On ch=1 n=87 v=64
5314 On ch=1 n=75 v=0
5316 On ch=1 n=87 v=0
5320 On ch=1 n=76 v=65
5320 On ch=1 n=88 v=64
5323 On ch=1 n=76 v=0
5326 On ch=1 n=88 v=0
5328 On ch=1 n=78 v=77
5328 On ch=1 n=90 v=78
5337 On ch=1 n=73 v=117
5343 On ch=1 n=73 v=0
5346 On ch=1 n=78 v=0
5348 On ch=1 n=90 v=0
5399 On ch=1 n=90 v=60
5406 On ch=1 n=90 v=0
5408 On ch=1 n=85 v=52
5413 On ch=1 n=85 v=0
5418 On ch=1 n=82 v=48
5423 On ch=1 n=82 v=0
5427 On ch=1 n=78 v=45
5435 On ch=1 n=78 v=0
5438 On ch=1 n=73 v=38
5444 On ch=1 n=73 v=0
5447 On ch=1 n=73 v=90
5450 On ch=1 n=73 v=0
5455 On ch=1 n=75 v=95
5459 On ch=1 n=75 v=0
5464 On ch=1 n=77 v=101
5468 On ch=1 n=77 v=0
5471 On ch=1 n=85 v=82
5472 On ch=1 n=78 v=115
5479 On ch=1 n=85 v=0
5482 On ch=1 n=82 v=84
5488 On ch=1 n=82 v=0
5488 On ch=1 n=78 v=0
5490 On ch=1 n=78 v=77
5497 On ch=1 n=78 v=0
5500 On ch=1 n=73 v=73
5504 On ch=1 n=73 v=0
5519 On ch=1 n=73 v=57
5520 On ch=1 n=85 v=59
5522 On ch=1 n=73 v=0
5523 On ch=1 n=85 v=0
5527 On ch=1 n=87 v=63
5527 On ch=1 n=75 v=62
5533 On ch=1 n=75 v=0
5533 On ch=1 n=87 v=0
5535 On ch=1 n=76 v=66
5536 On ch=1 n=88 v=63
5539 On ch=1 n=76 v=0
5542 On ch=1 n=88 v=0
5543 On ch=1 n=90 v=72
5544 On ch=1 n=78 v=81
5554 On ch=1 n=73 v=117
5560 On ch=1 n=73 v=0
5560 On ch=1 n=90 v=0
5564 On ch=1 n=78 v=0
5616 On ch=1 n=90 v=59
5622 On ch=1 n=90 v=0
5625 On ch=1 n=85 v=53
5632 On ch=1 n=85 v=0
5635 On ch=1 n=82 v=47
5640 On ch=1 n=82 v=0
5644 On ch=1 n=78 v=42
5651 On ch=1 n=78 v=0
5654 On ch=1 n=73 v=42
5661 On ch=1 n=73 v=0
5663 On ch=1 n=73 v=88
5667 On ch=1 n=73 v=0
5671 On ch=1 n=75 v=94
5675 On ch=1 n=75 v=0
5679 On ch=1 n=77 v=98
5686 On ch=1 n=77 v=0
5688 On ch=1 n=85 v=90
5688 On ch=1 n=78 v=117
5695 On ch=1 n=85 v=0
5698 On ch=1 n=82 v=85
5702 On ch=1 n=82 v=0
5702 On ch=1 n=78 v=0
5707 On ch=1 n=78 v=75
5713 On ch=1 n=78 v=0
5716 On ch=1 n=73 v=72
5721 On ch=1 n=73 v=0
5736 On ch=1 n=73 v=56
5736 On ch=1 n=85 v=60
5742 On ch=1 n=85 v=0
5742 On ch=1 n=73 v=0
5743 On ch=1 n=75 v=60
5744 On ch=1 n=87 v=64
5746 On ch=1 n=75 v=0
5748 On ch=1 n=87 v=0
5752 On ch=1 n=76 v=63
5752 On ch=1 n=88 v=68
5757 On ch=1 n=88 v=0
5758 On ch=1 n=76 v=0
5760 On ch=1 n=78 v=82
5760 On ch=1 n=90 v=78
5770 On ch=1 n=73 v=117
5777 On ch=1 n=73 v=0
5778 On ch=1 n=90 v=0
5779 On ch=1 n=78 v=0
5831 On ch=1 n=88 v=59
5838 On ch=1 n=88 v=0
5841 On ch=1 n=83 v=54
5847 On ch=1 n=83 v=0
5851 On ch=1 n=79 v=51
5858 On ch=1 n=79 v=0
5859 On ch=1 n=76 v=45
5865 On ch=1 n=76 v=0
5880 On ch=1 n=76 v=88
5883 On ch=1 n=76 v=0
5888 On ch=1 n=74 v=96
5894 On ch=1 n=74 v=0
5895 On ch=1 n=73 v=102
5900 On ch=1 n=73 v=0
5904 On ch=1 n=83 v=92
5910 On ch=1 n=83 v=0
5913 On ch=1 n=78 v=82
5917 On ch=1 n=78 v=0
5923 On ch=1 n=74 v=80
5928 On ch=1 n=74 v=0
5951 On ch=1 n=83 v=64
5952 On ch=1 n=83 v=0
5958 On ch=1 n=73 v=66
5958 On ch=1 n=85 v=68
5959 On ch=1 n=85 v=0
5962 On ch=1 n=73 v=0
5963 On ch=1 n=74 v=74
5964 On ch=1 n=86 v=73
5966 On ch=1 n=86 v=0
5967 On ch=1 n=74 v=0
5969 On ch=1 n=76 v=76
5970 On ch=1 n=88 v=73
5971 On ch=1 n=76 v=0
5974 On ch=1 n=88 v=0
5975 On ch=1 n=78 v=78
5975 On ch=1 n=90 v=81
5986 On ch=1 n=74 v=113
5992 On ch=1 n=78 v=0
5993 On ch=1 n=74 v=0
5994 On ch=1 n=90 v=0
6047 On ch=1 n=88 v=57
6053 On ch=1 n=88 v=0
6056 On ch=1 n=83 v=57
6062 On ch=1 n=83 v=0
6066 On ch=1 n=79 v=49
6073 On ch=1 n=79 v=0
6076 On ch=1 n=76 v=44
6082 On ch=1 n=76 v=0
6086 On ch=1 n=71 v=41
6094 On ch=1 n=71 v=0
6096 On ch=1 n=76 v=91
6099 On ch=1 n=76 v=0
6104 On ch=1 n=74 v=95
6108 On ch=1 n=74 v=0
6112 On ch=1 n=73 v=97
6119 On ch=1 n=73 v=0
6119 On ch=1 n=83 v=77
6120 On ch=1 n=71 v=114
6127 On ch=1 n=83 v=0
6129 On ch=1 n=78 v=84
6134 On ch=1 n=78 v=0
6137 On ch=1 n=71 v=0
6138 On ch=1 n=74 v=80
6146 On ch=1 n=74 v=0
6167 On ch=1 n=83 v=62
6168 On ch=1 n=83 v=0
6174 On ch=1 n=85 v=70
6177 On ch=1 n=85 v=0
6180 On ch=1 n=74 v=70
6180 On ch=1 n=86 v=69
6184 On ch=1 n=86 v=0
6184 On ch=1 n=74 v=0
6185 On ch=1 n=88 v=74
6186 On ch=1 n=76 v=75
6187 On ch=1 n=88 v=0
6188 On ch=1 n=76 v=0
6192 On ch=1 n=90 v=92
6192 On ch=1 n=78 v=88
6202 On ch=1 n=74 v=117
6209 On ch=1 n=74 v=0
6210 On ch=1 n=90 v=0
6211 On ch=1 n=78 v=0
6212 On ch=1 n=71 v=95
6217 On ch=1 n=71 v=0
6263 On ch=1 n=88 v=57
6269 On ch=1 n=88 v=0
6272 On ch=1 n=83 v=54
6280 On ch=1 n=83 v=0
6282 On ch=1 n=79 v=48
6289 On ch=1 n=79 v=0
6292 On ch=1 n=76 v=47
6297 On ch=1 n=76 v=0
6302 On ch=1 n=71 v=39
6309 On ch=1 n=71 v=0
6311 On ch=1 n=71 v=88
6315 On ch=1 n=71 v=0
6327 On ch=1 n=75 v=99
6334 On ch=1 n=75 v=0
6335 On ch=1 n=84 v=80
6335 On ch=1 n=76 v=103
6341 On ch=1 n=84 v=0
6346 On ch=1 n=79 v=86
6349 On ch=1 n=76 v=0
6353 On ch=1 n=79 v=0
6355 On ch=1 n=76 v=75
6363 On ch=1 n=76 v=0
6364 On ch=1 n=72 v=69
6371 On ch=1 n=72 v=0
6383 On ch=1 n=84 v=62
6387 On ch=1 n=84 v=0
6391 On ch=1 n=74 v=67
6391 On ch=1 n=86 v=64
6394 On ch=1 n=86 v=0
6397 On ch=1 n=74 v=0
6400 On ch=1 n=76 v=72
6400 On ch=1 n=88 v=69
6404 On ch=1 n=88 v=0
6405 On ch=1 n=76 v=0
6407 On ch=1 n=78 v=80
6408 On ch=1 n=90 v=92
6417 On ch=1 n=73 v=115
6423 On ch=1 n=73 v=0
6427 On ch=1 n=78 v=0
6428 On ch=1 n=70 v=96
6429 On ch=1 n=90 v=0
6433 On ch=1 n=70 v=0
6437 On ch=1 n=66 v=88
6444 On ch=1 n=66 v=0
6446 On ch=1 n=61 v=78
6453 On ch=1 n=61 v=0
6455 On ch=1 n=58 v=99
6476 On ch=1 n=58 v=0
6479 On ch=1 n=90 v=57
6486 On ch=1 n=90 v=0
6489 On ch=1 n=86 v=56
6496 On ch=1 n=86 v=0
6498 On ch=1 n=83 v=50
6504 On ch=1 n=83 v=0
6508 On ch=1 n=78 v=42
6516 On ch=1 n=78 v=0
6518 On ch=1 n=74 v=39
6524 On ch=1 n=74 v=0
6527 On ch=1 n=71 v=55
6534 On ch=1 n=73 v=96
6537 On ch=1 n=73 v=0
6540 On ch=1 n=74 v=92
6541 On ch=1 n=74 v=0
6546 On ch=1 n=76 v=101
6547 On ch=1 n=71 v=0
6549 On ch=1 n=76 v=0
6551 On ch=1 n=78 v=107
6552 On ch=1 n=83 v=88
6559 On ch=1 n=83 v=0
6566 On ch=1 n=78 v=0
6570 On ch=1 n=74 v=78
6576 On ch=1 n=74 v=0
6581 On ch=1 n=71 v=71
6587 On ch=1 n=71 v=0
6599 On ch=1 n=83 v=63
6600 On ch=1 n=71 v=62
6601 On ch=1 n=83 v=0
6604 On ch=1 n=71 v=0
6606 On ch=1 n=73 v=66
6606 On ch=1 n=85 v=68
6608 On ch=1 n=85 v=0
6610 On ch=1 n=73 v=0
6612 On ch=1 n=74 v=70
6612 On ch=1 n=86 v=70
6613 On ch=1 n=86 v=0
6616 On ch=1 n=74 v=0
6617 On ch=1 n=76 v=75
6618 On ch=1 n=88 v=76
6619 On ch=1 n=76 v=0
6622 On ch=1 n=88 v=0
6624 On ch=1 n=90 v=87
6624 On ch=1 n=78 v=92
6633 On ch=1 n=74 v=117
6641 On ch=1 n=74 v=0
6642 On ch=1 n=90 v=0
6643 On ch=1 n=78 v=0
6643 On ch=1 n=71 v=93
6648 On ch=1 n=71 v=0
6695 On ch=1 n=90 v=59
6701 On ch=1 n=90 v=0
6704 On ch=1 n=86 v=57
6709 On ch=1 n=86 v=0
6714 On ch=1 n=83 v=48
6719 On ch=1 n=83 v=0
6724 On ch=1 n=78 v=45
6731 On ch=1 n=78 v=0
6734 On ch=1 n=74 v=42
6740 On ch=1 n=74 v=0
6743 On ch=1 n=71 v=57
6749 On ch=1 n=73 v=96
6751 On ch=1 n=73 v=0
6756 On ch=1 n=74 v=94
6759 On ch=1 n=74 v=0
6761 On ch=1 n=76 v=102
6764 On ch=1 n=71 v=0
6766 On ch=1 n=76 v=0
6767 On ch=1 n=78 v=103
6768 On ch=1 n=83 v=88
6775 On ch=1 n=83 v=0
6785 On ch=1 n=78 v=0
6786 On ch=1 n=74 v=77
6793 On ch=1 n=74 v=0
6796 On ch=1 n=71 v=72
6804 On ch=1 n=71 v=0
6815 On ch=1 n=71 v=65
6816 On ch=1 n=71 v=0
6816 On ch=1 n=83 v=63
6820 On ch=1 n=83 v=0
6821 On ch=1 n=73 v=66
6821 On ch=1 n=85 v=70
6822 On ch=1 n=73 v=0
6823 On ch=1 n=85 v=0
6827 On ch=1 n=74 v=74
6828 On ch=1 n=86 v=69
6829 On ch=1 n=74 v=0
6832 On ch=1 n=86 v=0
6833 On ch=1 n=76 v=78
6833 On ch=1 n=88 v=78
6836 On ch=1 n=88 v=0
6838 On ch=1 n=76 v=0
6840 On ch=1 n=78 v=91
6840 On ch=1 n=90 v=88
6849 On ch=1 n=74 v=113
6856 On ch=1 n=74 v=0
6857 On ch=1 n=78 v=0
6857 On ch=1 n=71 v=95
6859 On ch=1 n=90 v=0
6866 On ch=1 n=71 v=0
6912 On ch=1 n=88 v=61
6918 On ch=1 n=88 v=0
6921 On ch=1 n=83 v=53
6929 On ch=1 n=83 v=0
6931 On ch=1 n=79 v=52
6938 On ch=1 n=79 v=0
6940 On ch=1 n=76 v=46
6945 On ch=1 n=76 v=0
6949 On ch=1 n=71 v=39
6957 On ch=1 n=71 v=0
6959 On ch=1 n=76 v=88
6959 On ch=1 n=67 v=52
6962 On ch=1 n=76 v=0
6968 On ch=1 n=74 v=92
6972 On ch=1 n=74 v=0
6976 On ch=1 n=73 v=99
6980 On ch=1 n=73 v=0
6981 On ch=1 n=67 v=0
6983 On ch=1 n=71 v=106
6983 On ch=1 n=83 v=78
6988 On ch=1 n=83 v=0
6994 On ch=1 n=78 v=83
6998 On ch=1 n=78 v=0
6998 On ch=1 n=71 v=0
7003 On ch=1 n=74 v=75
7008 On ch=1 n=74 v=0
7012 On ch=1 n=71 v=68
7017 On ch=1 n=71 v=0
7031 On ch=1 n=71 v=66
7031 On ch=1 n=83 v=64
7034 On ch=1 n=83 v=0
7035 On ch=1 n=71 v=0
7037 On ch=1 n=85 v=65
7037 On ch=1 n=73 v=69
7040 On ch=1 n=73 v=0
7040 On ch=1 n=85 v=0
7043 On ch=1 n=86 v=72
7044 On ch=1 n=74 v=72
7046 On ch=1 n=86 v=0
7048 On ch=1 n=74 v=0
7050 On ch=1 n=88 v=74
7050 On ch=1 n=76 v=75
7054 On ch=1 n=76 v=0
7054 On ch=1 n=88 v=0
7056 On ch=1 n=78 v=87
7056 On ch=1 n=90 v=88
7066 On ch=1 n=74 v=117
7073 On ch=1 n=74 v=0
7073 On ch=1 n=78 v=0
7074 On ch=1 n=90 v=0
7076 On ch=1 n=71 v=97
7084 On ch=1 n=71 v=0
7127 On ch=1 n=88 v=60
7132 On ch=1 n=88 v=0
7137 On ch=1 n=83 v=57
7143 On ch=1 n=83 v=0
7146 On ch=1 n=79 v=50
7150 On ch=1 n=79 v=0
7156 On ch=1 n=76 v=42
7163 On ch=1 n=76 v=0
7165 On ch=1 n=71 v=40
7170 On ch=1 n=71 v=0
7175 On ch=1 n=76 v=91
7178 On ch=1 n=76 v=0
7183 On ch=1 n=74 v=95
7189 On ch=1 n=74 v=0
7191 On ch=1 n=73 v=99
7195 On ch=1 n=73 v=0
7199 On ch=1 n=71 v=105
7200 On ch=1 n=83 v=91
7208 On ch=1 n=83 v=0
7210 On ch=1 n=78 v=83
7214 On ch=1 n=71 v=0
7216 On ch=1 n=78 v=0
7219 On ch=1 n=74 v=78
7227 On ch=1 n=74 v=0
7228 On ch=1 n=71 v=72
7235 On ch=1 n=71 v=0
7247 On ch=1 n=83 v=61
7248 On ch=1 n=83 v=0
7248 On ch=1 n=71 v=64
7252 On ch=1 n=71 v=0
7253 On ch=1 n=73 v=67
7254 On ch=1 n=85 v=68
7255 On ch=1 n=85 v=0
7256 On ch=1 n=73 v=0
7259 On ch=1 n=74 v=69
7260 On ch=1 n=86 v=73
7263 On ch=1 n=74 v=0
7264 On ch=1 n=86 v=0
7265 On ch=1 n=76 v=78
7266 On ch=1 n=88 v=73
7268 On ch=1 n=76 v=0
7269 On ch=1 n=88 v=0
7272 On ch=1 n=78 v=90
7272 On ch=1 n=90 v=90
7281 On ch=1 n=74 v=116
7288 On ch=1 n=74 v=0
7290 On ch=1 n=78 v=0
7291 On ch=1 n=90 v=0
7291 On ch=1 n=71 v=92
7297 On ch=1 n=71 v=0
7344 On ch=1 n=88 v=62
7349 On ch=1 n=88 v=0
7352 On ch=1 n=83 v=56
7359 On ch=1 n=83 v=0
7362 On ch=1 n=79 v=49
7369 On ch=1 n=79 v=0
7372 On ch=1 n=76 v=45
7380 On ch=1 n=76 v=0
7381 On ch=1 n=71 v=37
7387 On ch=1 n=71 v=0
7392 On ch=1 n=71 v=92
7397 On ch=1 n=71 v=0
7400 On ch=1 n=73 v=95
7405 On ch=1 n=73 v=0
7407 On ch=1 n=75 v=100
7413 On ch=1 n=75 v=0
7415 On ch=1 n=76 v=107
7416 On ch=1 n=84 v=89
7423 On ch=1 n=84 v=0
7425 On ch=1 n=79 v=81
7432 On ch=1 n=79 v=0
7432 On ch=1 n=76 v=0
7435 On ch=1 n=76 v=79
7441 On ch=1 n=76 v=0
7445 On ch=1 n=72 v=70
7452 On ch=1 n=72 v=0
7463 On ch=1 n=72 v=65
7464 On ch=1 n=84 v=66
7469 On ch=1 n=72 v=0
7471 On ch=1 n=84 v=0
7471 On ch=1 n=86 v=67
7471 On ch=1 n=74 v=66
7476 On ch=1 n=74 v=0
7477 On ch=1 n=86 v=0
7480 On ch=1 n=76 v=69
7480 On ch=1 n=88 v=68
7485 On ch=1 n=88 v=0
7485 On ch=1 n=76 v=0
7487 On ch=1 n=78 v=80
7488 On ch=1 n=90 v=87
7496 On ch=1 n=73 v=116
7501 On ch=1 n=73 v=0
7503 On ch=1 n=70 v=97
7505 On ch=1 n=78 v=0
7506 On ch=1 n=90 v=0
7508 On ch=1 n=70 v=0
7560 On ch=1 n=90 v=60
7566 On ch=1 n=90 v=0
7568 On ch=1 n=87 v=55
7574 On ch=1 n=87 v=0
7579 On ch=1 n=83 v=49
7583 On ch=1 n=83 v=0
7587 On ch=1 n=78 v=42
7595 On ch=1 n=78 v=0
7598 On ch=1 n=75 v=40
7605 On ch=1 n=75 v=0
7607 On ch=1 n=71 v=57
7613 On ch=1 n=73 v=96
7614 On ch=1 n=73 v=0
7620 On ch=1 n=75 v=102
7623 On ch=1 n=75 v=0
7626 On ch=1 n=76 v=102
7627 On ch=1 n=71 v=0
7629 On ch=1 n=76 v=0
7631 On ch=1 n=78 v=106
7631 On ch=1 n=83 v=82
7638 On ch=1 n=83 v=0
7650 On ch=1 n=75 v=77
7653 On ch=1 n=78 v=0
7657 On ch=1 n=75 v=0
7660 On ch=1 n=71 v=68
7666 On ch=1 n=71 v=0
7680 On ch=1 n=71 v=66
7680 On ch=1 n=83 v=62
7681 On ch=1 n=83 v=0
7683 On ch=1 n=71 v=0
7686 On ch=1 n=85 v=67
7686 On ch=1 n=73 v=70
7687 On ch=1 n=85 v=0
7688 On ch=1 n=73 v=0
7692 On ch=1 n=75 v=73
7692 On ch=1 n=87 v=70
7694 On ch=1 n=75 v=0
7696 On ch=1 n=87 v=0
7698 On ch=1 n=76 v=75
7698 On ch=1 n=88 v=76
7702 On ch=1 n=88 v=0
7702 On ch=1 n=76 v=0
7704 On ch=1 n=78 v=91
7704 On ch=1 n=90 v=90
7713 On ch=1 n=75 v=113
7720 On ch=1 n=75 v=0
7721 On ch=1 n=90 v=0
7722 On ch=1 n=78 v=0
7723 On ch=1 n=71 v=94
7731 On ch=1 n=71 v=0
7776 On ch=1 n=90 v=59
7781 On ch=1 n=90 v=0
7784 On ch=1 n=87 v=57
7792 On ch=1 n=87 v=0
7794 On ch=1 n=83 v=50
7800 On ch=1 n=83 v=0
7804 On ch=1 n=78 v=45
7811 On ch=1 n=78 v=0
7813 On ch=1 n=75 v=38
7818 On ch=1 n=75 v=0
7824 On ch=1 n=71 v=53
7830 On ch=1 n=73 v=96
7834 On ch=1 n=73 v=0
7835 On ch=1 n=75 v=100
7836 On ch=1 n=75 v=0
7841 On ch=1 n=76 v=104
7843 On ch=1 n=71 v=0
7845 On ch=1 n=76 v=0
7847 On ch=1 n=78 v=105
7848 On ch=1 n=83 v=97
7855 On ch=1 n=83 v=0
7867 On ch=1 n=75 v=80
7868 On ch=1 n=78 v=0
7874 On ch=1 n=75 v=0
7876 On ch=1 n=71 v=68
7880 On ch=1 n=71 v=0
7895 On ch=1 n=71 v=66
7895 On ch=1 n=83 v=62
7896 On ch=1 n=83 v=0
7896 On ch=1 n=71 v=0
7901 On ch=1 n=85 v=65
7902 On ch=1 n=73 v=66
7904 On ch=1 n=73 v=0
7904 On ch=1 n=85 v=0
7908 On ch=1 n=75 v=71
7908 On ch=1 n=87 v=70
7910 On ch=1 n=87 v=0
7910 On ch=1 n=75 v=0
7913 On ch=1 n=76 v=76
7914 On ch=1 n=76 v=0
7914 On ch=1 n=88 v=76
7917 On ch=1 n=88 v=0
7920 On ch=1 n=78 v=92
7920 On ch=1 n=90 v=90
7930 On ch=1 n=75 v=112
7936 On ch=1 n=75 v=0
7938 On ch=1 n=78 v=0
7940 On ch=1 n=90 v=0
7940 On ch=1 n=71 v=94
7946 On ch=1 n=71 v=0
7991 On ch=1 n=90 v=59
7998 On ch=1 n=90 v=0
8001 On ch=1 n=86 v=57
8006 On ch=1 n=86 v=0
8010 On ch=1 n=83 v=50
8014 On ch=1 n=83 v=0
8020 On ch=1 n=78 v=47
8027 On ch=1 n=78 v=0
8029 On ch=1 n=74 v=37
8035 On ch=1 n=74 v=0
8040 On ch=1 n=71 v=55
8045 On ch=1 n=73 v=94
8048 On ch=1 n=73 v=0
8052 On ch=1 n=74 v=98
8055 On ch=1 n=74 v=0
8057 On ch=1 n=76 v=106
8059 On ch=1 n=76 v=0
8059 On ch=1 n=71 v=0
8063 On ch=1 n=83 v=78
8063 On ch=1 n=78 v=105
8071 On ch=1 n=83 v=0
8082 On ch=1 n=74 v=79
8085 On ch=1 n=78 v=0
8089 On ch=1 n=74 v=0
8092 On ch=1 n=71 v=72
8099 On ch=1 n=71 v=0
8112 On ch=1 n=71 v=61
8112 On ch=1 n=83 v=65
8115 On ch=1 n=83 v=0
8116 On ch=1 n=71 v=0
8117 On ch=1 n=73 v=68
8118 On ch=1 n=85 v=67
8120 On ch=1 n=73 v=0
8123 On ch=1 n=85 v=0
8124 On ch=1 n=86 v=70
8124 On ch=1 n=74 v=71
8126 On ch=1 n=86 v=0
8127 On ch=1 n=74 v=0
8129 On ch=1 n=88 v=77
8130 On ch=1 n=76 v=74
8131 On ch=1 n=88 v=0
8135 On ch=1 n=76 v=0
8135 On ch=1 n=78 v=78
8135 On ch=1 n=90 v=82
8146 On ch=1 n=74 v=117
8152 On ch=1 n=74 v=0
8154 On ch=1 n=90 v=0
8155 On ch=1 n=78 v=0
8155 On ch=1 n=71 v=92
8159 On ch=1 n=71 v=0
8208 On ch=1 n=90 v=61
8215 On ch=1 n=90 v=0
8217 On ch=1 n=86 v=57
8225 On ch=1 n=86 v=0
8226 On ch=1 n=83 v=52
8230 On ch=1 n=83 v=0
8236 On ch=1 n=78 v=46
8242 On ch=1 n=78 v=0
8246 On ch=1 n=74 v=41
8253 On ch=1 n=74 v=0
8255 On ch=1 n=71 v=52
8262 On ch=1 n=73 v=95
8265 On ch=1 n=73 v=0
8267 On ch=1 n=74 v=101
8269 On ch=1 n=74 v=0
8273 On ch=1 n=76 v=107
8274 On ch=1 n=76 v=0
8275 On ch=1 n=71 v=0
8279 On ch=1 n=83 v=80
8279 On ch=1 n=78 v=102
8284 On ch=1 n=83 v=0
8297 On ch=1 n=74 v=76
8299 On ch=1 n=78 v=0
8304 On ch=1 n=74 v=0
8308 On ch=1 n=71 v=72
8315 On ch=1 n=71 v=0
8328 On ch=1 n=83 v=64
8328 On ch=1 n=71 v=63
8329 On ch=1 n=71 v=0
8332 On ch=1 n=83 v=0
8333 On ch=1 n=73 v=66
8334 On ch=1 n=85 v=68
8335 On ch=1 n=73 v=0
8337 On ch=1 n=85 v=0
8339 On ch=1 n=74 v=71
8340 On ch=1 n=86 v=72
8341 On ch=1 n=74 v=0
8342 On ch=1 n=86 v=0
8345 On ch=1 n=76 v=73
8346 On ch=1 n=88 v=78
8349 On ch=1 n=88 v=0
8349 On ch=1 n=76 v=0
8351 On ch=1 n=78 v=80
8352 On ch=1 n=90 v=90
8362 On ch=1 n=74 v=112
8367 On ch=1 n=74 v=0
8371 On ch=1 n=90 v=0
8371 On ch=1 n=78 v=0
8371 On ch=1 n=71 v=92
8376 On ch=1 n=71 v=0
8424 On ch=1 n=93 v=59
8431 On ch=1 n=93 v=0
8433 On ch=1 n=90 v=57
8440 On ch=1 n=90 v=0
8443 On ch=1 n=86 v=51
8450 On ch=1 n=86 v=0
8451 On ch=1 n=81 v=42
8457 On ch=1 n=81 v=0
8461 On ch=1 n=78 v=38
8466 On ch=1 n=78 v=0
8471 On ch=1 n=74 v=57
8477 On ch=1 n=76 v=93
8480 On ch=1 n=76 v=0
8484 On ch=1 n=78 v=97
8489 On ch=1 n=78 v=0
8490 On ch=1 n=74 v=0
8490 On ch=1 n=79 v=105
8495 On ch=1 n=79 v=0
8495 On ch=1 n=86 v=80
8496 On ch=1 n=81 v=115
8502 On ch=1 n=86 v=0
8515 On ch=1 n=78 v=79
8517 On ch=1 n=81 v=0
8522 On ch=1 n=78 v=0
8524 On ch=1 n=74 v=72
8528 On ch=1 n=74 v=0
8543 On ch=1 n=74 v=65
8544 On ch=1 n=74 v=0
8544 On ch=1 n=86 v=65
8546 On ch=1 n=86 v=0
8549 On ch=1 n=88 v=68
8549 On ch=1 n=76 v=65
8552 On ch=1 n=76 v=0
8553 On ch=1 n=88 v=0
8556 On ch=1 n=78 v=74
8556 On ch=1 n=90 v=74
8557 On ch=1 n=90 v=0
8560 On ch=1 n=78 v=0
8561 On ch=1 n=79 v=75
8562 On ch=1 n=91 v=75
8563 On ch=1 n=79 v=0
8567 On ch=1 n=91 v=0
8567 On ch=1 n=93 v=78
8568 On ch=1 n=81 v=89
8577 On ch=1 n=76 v=115
8582 On ch=1 n=76 v=0
8585 On ch=1 n=81 v=0
8585 On ch=1 n=93 v=0
8587 On ch=1 n=73 v=96
8592 On ch=1 n=73 v=0
8639 On ch=1 n=93 v=57
8644 On ch=1 n=93 v=0
8648 On ch=1 n=90 v=54
8652 On ch=1 n=90 v=0
8657 On ch=1 n=86 v=49
8663 On ch=1 n=86 v=0
8668 On ch=1 n=81 v=45
8673 On ch=1 n=81 v=0
8678 On ch=1 n=78 v=42
8684 On ch=1 n=78 v=0
8687 On ch=1 n=74 v=53
8694 On ch=1 n=76 v=96
8698 On ch=1 n=76 v=0
8700 On ch=1 n=78 v=101
8702 On ch=1 n=78 v=0
8706 On ch=1 n=79 v=102
8709 On ch=1 n=74 v=0
8711 On ch=1 n=79 v=0
8711 On ch=1 n=81 v=107
8712 On ch=1 n=86 v=92
8719 On ch=1 n=86 v=0
8730 On ch=1 n=81 v=0
8731 On ch=1 n=78 v=80
8738 On ch=1 n=78 v=0
8740 On ch=1 n=74 v=69
8747 On ch=1 n=74 v=0
8759 On ch=1 n=86 v=64
8760 On ch=1 n=86 v=0
8760 On ch=1 n=74 v=61
8763 On ch=1 n=74 v=0
8765 On ch=1 n=88 v=65
8765 On ch=1 n=76 v=70
8766 On ch=1 n=76 v=0
8768 On ch=1 n=88 v=0
8771 On ch=1 n=90 v=73
8771 On ch=1 n=78 v=73
8772 On ch=1 n=78 v=0
8773 On ch=1 n=90 v=0
8777 On ch=1 n=79 v=77
8778 On ch=1 n=91 v=77
8780 On ch=1 n=79 v=0
8781 On ch=1 n=91 v=0
8783 On ch=1 n=81 v=81
8783 On ch=1 n=93 v=77
8793 On ch=1 n=78 v=115
8798 On ch=1 n=78 v=0
8800 On ch=1 n=81 v=0
8801 On ch=1 n=93 v=0
8804 On ch=1 n=74 v=97
8808 On ch=1 n=74 v=0
8855 On ch=1 n=93 v=61
8861 On ch=1 n=93 v=0
8864 On ch=1 n=90 v=57
8871 On ch=1 n=90 v=0
8874 On ch=1 n=86 v=50
8878 On ch=1 n=86 v=0
8883 On ch=1 n=81 v=43
8891 On ch=1 n=81 v=0
8893 On ch=1 n=78 v=38
8898 On ch=1 n=78 v=0
8903 On ch=1 n=74 v=55
8909 On ch=1 n=76 v=94
8913 On ch=1 n=76 v=0
8916 On ch=1 n=78 v=101
8919 On ch=1 n=78 v=0
8921 On ch=1 n=79 v=103
8924 On ch=1 n=79 v=0
8925 On ch=1 n=74 v=0
8928 On ch=1 n=81 v=113
8928 On ch=1 n=86 v=91
8934 On ch=1 n=86 v=0
8946 On ch=1 n=78 v=80
8949 On ch=1 n=81 v=0
8953 On ch=1 n=78 v=0
8957 On ch=1 n=74 v=68
8962 On ch=1 n=74 v=0
8975 On ch=1 n=74 v=61
8976 On ch=1 n=86 v=61
8977 On ch=1 n=74 v=0
8979 On ch=1 n=86 v=0
8981 On ch=1 n=76 v=66
8982 On ch=1 n=88 v=69
8983 On ch=1 n=88 v=0
8984 On ch=1 n=76 v=0
8987 On ch=1 n=78 v=69
8988 On ch=1 n=90 v=70
8989 On ch=1 n=78 v=0
8990 On ch=1 n=90 v=0
8994 On ch=1 n=79 v=74
8994 On ch=1 n=91 v=77
8997 On ch=1 n=91 v=0
8998 On ch=1 n=79 v=0
9000 On ch=1 n=81 v=89
9000 On ch=1 n=93 v=92
9009 On ch=1 n=78 v=117
9014 On ch=1 n=78 v=0
9019 On ch=1 n=93 v=0
9019 On ch=1 n=74 v=94
9020 On ch=1 n=81 v=0
9023 On ch=1 n=74 v=0
9072 On ch=1 n=93 v=57
9077 On ch=1 n=93 v=0
9080 On ch=1 n=90 v=52
9087 On ch=1 n=90 v=0
9090 On ch=1 n=86 v=51
9096 On ch=1 n=86 v=0
9100 On ch=1 n=81 v=45
9105 On ch=1 n=81 v=0
9110 On ch=1 n=78 v=41
9118 On ch=1 n=78 v=0
9120 On ch=1 n=74 v=53
9125 On ch=1 n=76 v=97
9129 On ch=1 n=76 v=0
9132 On ch=1 n=78 v=99
9136 On ch=1 n=78 v=0
9137 On ch=1 n=79 v=105
9140 On ch=1 n=79 v=0
9142 On ch=1 n=74 v=0
9143 On ch=1 n=86 v=79
9143 On ch=1 n=81 v=107
9149 On ch=1 n=86 v=0
9162 On ch=1 n=81 v=0
9163 On ch=1 n=78 v=76
9168 On ch=1 n=78 v=0
9173 On ch=1 n=74 v=69
9179 On ch=1 n=74 v=0
9191 On ch=1 n=86 v=61
9192 On ch=1 n=74 v=65
9195 On ch=1 n=74 v=0
9195 On ch=1 n=86 v=0
9197 On ch=1 n=88 v=69
9198 On ch=1 n=88 v=0
9198 On ch=1 n=76 v=65
9202 On ch=1 n=76 v=0
9203 On ch=1 n=78 v=73
9204 On ch=1 n=90 v=72
9205 On ch=1 n=78 v=0
9206 On ch=1 n=90 v=0
9209 On ch=1 n=79 v=77
9210 On ch=1 n=91 v=75
9212 On ch=1 n=91 v=0
9213 On ch=1 n=79 v=0
9215 On ch=1 n=81 v=78
9215 On ch=1 n=93 v=80
9225 On ch=1 n=78 v=112
9232 On ch=1 n=78 v=0
9234 On ch=1 n=81 v=0
9235 On ch=1 n=93 v=0
9235 On ch=1 n=74 v=93
9241 On ch=1 n=74 v=0
9288 On ch=1 n=90 v=58
9293 On ch=1 n=90 v=0
9296 On ch=1 n=85 v=56
9304 On ch=1 n=85 v=0
9307 On ch=1 n=81 v=49
9311 On ch=1 n=81 v=0
9316 On ch=1 n=78 v=47
9324 On ch=1 n=78 v=0
9325 On ch=1 n=73 v=38
9330 On ch=1 n=73 v=0
9335 On ch=1 n=78 v=91
9338 On ch=1 n=78 v=0
9343 On ch=1 n=76 v=92
9349 On ch=1 n=76 v=0
9352 On ch=1 n=74 v=97
9358 On ch=1 n=74 v=0
9360 On ch=1 n=85 v=89
9360 On ch=1 n=73 v=115
9366 On ch=1 n=85 v=0
9370 On ch=1 n=81 v=81
9377 On ch=1 n=81 v=0
9379 On ch=1 n=78 v=76
9381 On ch=1 n=73 v=0
9387 On ch=1 n=78 v=0
9389 On ch=1 n=73 v=73
9396 On ch=1 n=73 v=0
9398 On ch=1 n=69 v=62
9407 On ch=1 n=69 v=0
9408 On ch=1 n=66 v=61
9408 On ch=1 n=78 v=62
9408 On ch=1 n=90 v=63
9413 On ch=1 n=90 v=0
9414 On ch=1 n=78 v=0
9415 On ch=1 n=88 v=66
9415 On ch=1 n=76 v=69
9418 On ch=1 n=76 v=0
9418 On ch=1 n=88 v=0
9423 On ch=1 n=74 v=71
9424 On ch=1 n=86 v=68
9428 On ch=1 n=86 v=0
9429 On ch=1 n=74 v=0
9430 On ch=1 n=66 v=0
9431 On ch=1 n=80 v=118
9431 On ch=1 n=73 v=82
9432 On ch=1 n=85 v=91
9438 On ch=1 n=80 v=0
9441 On ch=1 n=77 v=116
9446 On ch=1 n=77 v=0
9448 On ch=1 n=73 v=0
9451 On ch=1 n=73 v=97
9452 On ch=1 n=85 v=0
9456 On ch=1 n=73 v=0
9503 On ch=1 n=90 v=61
9508 On ch=1 n=90 v=0
9513 On ch=1 n=85 v=55
9520 On ch=1 n=85 v=0
9522 On ch=1 n=82 v=48
9529 On ch=1 n=82 v=0
9531 On ch=1 n=78 v=43
9538 On ch=1 n=78 v=0
9541 On ch=1 n=73 v=37
9547 On ch=1 n=73 v=0
9551 On ch=1 n=73 v=92
9552 On ch=1 n=70 v=53
9554 On ch=1 n=73 v=0
9559 On ch=1 n=75 v=97
9563 On ch=1 n=75 v=0
9568 On ch=1 n=77 v=100
9572 On ch=1 n=77 v=0
9572 On ch=1 n=70 v=0
9575 On ch=1 n=78 v=105
9576 On ch=1 n=85 v=89
9583 On ch=1 n=85 v=0
9585 On ch=1 n=82 v=82
9590 On ch=1 n=82 v=0
9594 On ch=1 n=78 v=0
9604 On ch=1 n=73 v=69
9610 On ch=1 n=73 v=0
9614 On ch=1 n=70 v=67
9619 On ch=1 n=70 v=0
9623 On ch=1 n=85 v=63
9624 On ch=1 n=73 v=64
9626 On ch=1 n=85 v=0
9630 On ch=1 n=73 v=0
9631 On ch=1 n=75 v=66
9632 On ch=1 n=87 v=68
9635 On ch=1 n=75 v=0
9636 On ch=1 n=87 v=0
9639 On ch=1 n=77 v=69
9639 On ch=1 n=89 v=68
9645 On ch=1 n=89 v=0
9645 On ch=1 n=77 v=0
9647 On ch=1 n=78 v=77
9648 On ch=1 n=90 v=91
9656 On ch=1 n=73 v=113
9661 On ch=1 n=73 v=0
9664 On ch=1 n=82 v=97
9665 On ch=1 n=90 v=0
9667 On ch=1 n=78 v=0
9670 On ch=1 n=82 v=0
9719 On ch=1 n=79 v=85
9720 On ch=1 n=71 v=82
9735 On ch=1 n=71 v=0
9737 On ch=1 n=79 v=0
10151 On ch=1 n=84 v=46
10158 On ch=1 n=84 v=0
10163 On ch=1 n=83 v=48
10164 On ch=1 n=80 v=49
10171 On ch=1 n=80 v=0
10172 On ch=1 n=83 v=0
10176 On ch=1 n=84 v=52
10183 On ch=1 n=84 v=0
10187 On ch=1 n=83 v=41
10188 On ch=1 n=80 v=40
10195 On ch=1 n=83 v=0
10199 On ch=1 n=80 v=0
10200 On ch=1 n=84 v=45
10207 On ch=1 n=84 v=0
10211 On ch=1 n=80 v=47
10212 On ch=1 n=83 v=49
10220 On ch=1 n=80 v=0
10222 On ch=1 n=83 v=0
10224 On ch=1 n=84 v=64
10231 On ch=1 n=84 v=0
10235 On ch=1 n=80 v=70
10236 On ch=1 n=83 v=69
10242 On ch=1 n=80 v=0
10243 On ch=1 n=83 v=0
10247 On ch=1 n=84 v=74
10257 On ch=1 n=84 v=0
10259 On ch=1 n=83 v=72
10260 On ch=1 n=80 v=74
10266 On ch=1 n=83 v=0
10268 On ch=1 n=80 v=0
10271 On ch=1 n=84 v=79
10282 On ch=1 n=84 v=0
10284 On ch=1 n=80 v=84
10284 On ch=1 n=83 v=80
10291 On ch=1 n=83 v=0
10294 On ch=1 n=80 v=0
10296 On ch=1 n=84 v=97
10304 On ch=1 n=84 v=0
10308 On ch=1 n=80 v=89
10308 On ch=1 n=83 v=89
10316 On ch=1 n=80 v=0
10317 On ch=1 n=83 v=0
10320 On ch=1 n=84 v=97
10328 On ch=1 n=84 v=0
10331 On ch=1 n=83 v=99
10332 On ch=1 n=80 v=102
10340 On ch=1 n=83 v=0
10341 On ch=1 n=80 v=0
10343 On ch=1 n=84 v=103
10353 On ch=1 n=84 v=0
10355 On ch=1 n=80 v=114
10356 On ch=1 n=83 v=111
10363 On ch=1 n=80 v=0
10364 On ch=1 n=83 v=0
10367 On ch=1 n=79 v=107
10367 On ch=1 n=84 v=104
10373 On ch=1 n=84 v=0
10374 On ch=1 n=79 v=0
10379 On ch=1 n=84 v=98
10380 On ch=1 n=79 v=99
10388 On ch=1 n=79 v=0
10388 On ch=1 n=84 v=0
10391 On ch=1 n=78 v=97
10391 On ch=1 n=83 v=94
10397 On ch=1 n=83 v=0
10399 On ch=1 n=78 v=0
10403 On ch=1 n=83 v=91
10404 On ch=1 n=78 v=92
10409 On ch=1 n=83 v=0
10411 On ch=1 n=78 v=0
10416 On ch=1 n=82 v=87
10416 On ch=1 n=77 v=84
10424 On ch=1 n=82 v=0
10425 On ch=1 n=77 v=0
10427 On ch=1 n=77 v=79
10427 On ch=1 n=82 v=77
10435 On ch=1 n=82 v=0
10435 On ch=1 n=77 v=0
10440 On ch=1 n=76 v=90
10440 On ch=1 n=81 v=92
10446 On ch=1 n=76 v=0
10447 On ch=1 n=81 v=0
10451 On ch=1 n=76 v=89
10452 On ch=1 n=81 v=87
10457 On ch=1 n=76 v=0
10461 On ch=1 n=81 v=0
10463 On ch=1 n=80 v=88
10464 On ch=1 n=75 v=87
10470 On ch=1 n=75 v=0
10470 On ch=1 n=80 v=0
10475 On ch=1 n=75 v=87
10476 On ch=1 n=80 v=85
10481 On ch=1 n=75 v=0
10484 On ch=1 n=80 v=0
10487 On ch=1 n=74 v=81
10488 On ch=1 n=79 v=84
10495 On ch=1 n=74 v=0
10497 On ch=1 n=79 v=0
10499 On ch=1 n=79 v=81
10500 On ch=1 n=74 v=80
10508 On ch=1 n=79 v=0
10509 On ch=1 n=74 v=0
10511 On ch=1 n=78 v=80
10511 On ch=1 n=73 v=77
10520 On ch=1 n=73 v=0
10520 On ch=1 n=78 v=0
10523 On ch=1 n=78 v=81
10524 On ch=1 n=73 v=77
10532 On ch=1 n=78 v=0
10533 On ch=1 n=73 v=0
10535 On ch=1 n=77 v=79
10536 On ch=1 n=72 v=79
10542 On ch=1 n=72 v=0
10544 On ch=1 n=77 v=0
10547 On ch=1 n=77 v=77
10548 On ch=1 n=72 v=81
10555 On ch=1 n=77 v=0
10557 On ch=1 n=72 v=0
10559 On ch=1 n=71 v=76
10559 On ch=1 n=76 v=74
10565 On ch=1 n=76 v=0
10566 On ch=1 n=71 v=0
10571 On ch=1 n=71 v=76
10571 On ch=1 n=76 v=76
10578 On ch=1 n=76 v=0
10578 On ch=1 n=71 v=0
10583 On ch=1 n=77 v=104
10584 On ch=1 n=72 v=106
10602 On ch=1 n=72 v=0
10603 On ch=1 n=77 v=0
10608 On ch=1 n=72 v=93
10640 On ch=1 n=72 v=0
10644 On ch=1 n=81 v=77
10651 On ch=1 n=81 v=0
10655 On ch=1 n=76 v=97
10677 On ch=1 n=76 v=0
10799 On ch=1 n=77 v=105
10818 On ch=1 n=77 v=0
10823 On ch=1 n=72 v=96
10857 On ch=1 n=72 v=0
10859 On ch=1 n=81 v=82
10869 On ch=1 n=81 v=0
10871 On ch=1 n=76 v=95
10892 On ch=1 n=76 v=0
11015 On ch=1 n=86 v=45
11023 On ch=1 n=86 v=0
11027 On ch=1 n=85 v=47
11027 On ch=1 n=82 v=50
11035 On ch=1 n=85 v=0
11037 On ch=1 n=82 v=0
11040 On ch=1 n=86 v=55
11049 On ch=1 n=86 v=0
11051 On ch=1 n=85 v=42
11052 On ch=1 n=82 v=42
11060 On ch=1 n=85 v=0
11062 On ch=1 n=82 v=0
11063 On ch=1 n=86 v=44
11071 On ch=1 n=86 v=0
11075 On ch=1 n=85 v=48
11076 On ch=1 n=82 v=52
11085 On ch=1 n=82 v=0
11086 On ch=1 n=85 v=0
11087 On ch=1 n=86 v=57
11096 On ch=1 n=86 v=0
11099 On ch=1 n=85 v=71
11100 On ch=1 n=82 v=67
11107 On ch=1 n=85 v=0
11109 On ch=1 n=82 v=0
11111 On ch=1 n=86 v=69
11118 On ch=1 n=86 v=0
11124 On ch=1 n=82 v=73
11124 On ch=1 n=85 v=74
11132 On ch=1 n=85 v=0
11135 On ch=1 n=82 v=0
11136 On ch=1 n=86 v=79
11147 On ch=1 n=86 v=0
11147 On ch=1 n=82 v=84
11147 On ch=1 n=85 v=84
11155 On ch=1 n=82 v=0
11157 On ch=1 n=85 v=0
11159 On ch=1 n=86 v=85
11170 On ch=1 n=86 v=0
11171 On ch=1 n=82 v=92
11171 On ch=1 n=85 v=90
11180 On ch=1 n=82 v=0
11181 On ch=1 n=85 v=0
11183 On ch=1 n=86 v=96
11191 On ch=1 n=86 v=0
11195 On ch=1 n=82 v=99
11195 On ch=1 n=85 v=97
11202 On ch=1 n=82 v=0
11204 On ch=1 n=85 v=0
11207 On ch=1 n=86 v=107
11215 On ch=1 n=86 v=0
11219 On ch=1 n=85 v=111
11219 On ch=1 n=82 v=114
11226 On ch=1 n=82 v=0
11227 On ch=1 n=85 v=0
11231 On ch=1 n=81 v=107
11232 On ch=1 n=86 v=107
11238 On ch=1 n=81 v=0
11239 On ch=1 n=86 v=0
11243 On ch=1 n=81 v=97
11244 On ch=1 n=86 v=99
11249 On ch=1 n=81 v=0
11253 On ch=1 n=86 v=0
11255 On ch=1 n=80 v=94
11255 On ch=1 n=85 v=97
11261 On ch=1 n=85 v=0
11264 On ch=1 n=80 v=0
11267 On ch=1 n=80 v=89
11268 On ch=1 n=85 v=92
11276 On ch=1 n=85 v=0
11276 On ch=1 n=80 v=0
11279 On ch=1 n=79 v=84
11280 On ch=1 n=84 v=82
11286 On ch=1 n=79 v=0
11288 On ch=1 n=84 v=0
11292 On ch=1 n=79 v=80
11292 On ch=1 n=84 v=79
11300 On ch=1 n=84 v=0
11301 On ch=1 n=79 v=0
11303 On ch=1 n=83 v=81
11303 On ch=1 n=78 v=78
11311 On ch=1 n=83 v=0
11312 On ch=1 n=78 v=0
11316 On ch=1 n=78 v=86
11316 On ch=1 n=83 v=86
11322 On ch=1 n=83 v=0
11322 On ch=1 n=78 v=0
11327 On ch=1 n=77 v=89
11328 On ch=1 n=82 v=86
11335 On ch=1 n=82 v=0
11335 On ch=1 n=77 v=0
11339 On ch=1 n=82 v=86
11340 On ch=1 n=77 v=83
11345 On ch=1 n=82 v=0
11346 On ch=1 n=77 v=0
11351 On ch=1 n=81 v=86
11351 On ch=1 n=76 v=85
11357 On ch=1 n=76 v=0
11358 On ch=1 n=81 v=0
11364 On ch=1 n=76 v=83
11364 On ch=1 n=81 v=79
11371 On ch=1 n=76 v=0
11373 On ch=1 n=81 v=0
11375 On ch=1 n=75 v=77
11375 On ch=1 n=80 v=80
11382 On ch=1 n=75 v=0
11384 On ch=1 n=80 v=0
11387 On ch=1 n=75 v=77
11388 On ch=1 n=80 v=82
11393 On ch=1 n=75 v=0
11395 On ch=1 n=80 v=0
11399 On ch=1 n=74 v=77
11399 On ch=1 n=79 v=77
11405 On ch=1 n=79 v=0
11405 On ch=1 n=74 v=0
11411 On ch=1 n=74 v=80
11412 On ch=1 n=79 v=81
11417 On ch=1 n=74 v=0
11418 On ch=1 n=79 v=0
11424 On ch=1 n=78 v=77
11424 On ch=1 n=73 v=77
11430 On ch=1 n=73 v=0
11431 On ch=1 n=78 v=0
11435 On ch=1 n=73 v=73
11435 On ch=1 n=78 v=77
11442 On ch=1 n=73 v=0
11443 On ch=1 n=78 v=0
11448 On ch=1 n=75 v=55
11448 On ch=1 n=79 v=56
11469 On ch=1 n=79 v=0
11469 On ch=1 n=75 v=0
11471 On ch=1 n=75 v=54
11502 On ch=1 n=75 v=0
11519 On ch=1 n=71 v=66
11588 On ch=1 n=71 v=0
11591 On ch=1 n=71 v=67
11611 On ch=1 n=71 v=0
11616 On ch=1 n=67 v=67
11650 On ch=1 n=67 v=0
11663 On ch=1 n=75 v=57
11664 On ch=1 n=79 v=53
11686 On ch=1 n=79 v=0
11718 On ch=1 n=75 v=0
11736 On ch=1 n=71 v=72
11803 On ch=1 n=71 v=0
11807 On ch=1 n=71 v=67
11826 On ch=1 n=71 v=0
11831 On ch=1 n=67 v=72
11865 On ch=1 n=67 v=0
11880 On ch=1 n=79 v=55
11901 On ch=1 n=79 v=0
11904 On ch=1 n=76 v=57
11935 On ch=1 n=76 v=0
11952 On ch=1 n=72 v=77
12021 On ch=1 n=72 v=0
12023 On ch=1 n=72 v=67
12042 On ch=1 n=72 v=0
12048 On ch=1 n=67 v=67
12081 On ch=1 n=67 v=0
12096 On ch=1 n=79 v=53
12116 On ch=1 n=79 v=0
12119 On ch=1 n=76 v=55
12152 On ch=1 n=76 v=0
12168 On ch=1 n=72 v=74
12236 On ch=1 n=72 v=0
12311 On ch=1 n=82 v=46
12311 On ch=1 n=91 v=45
12318 On ch=1 n=82 v=0
12321 On ch=1 n=91 v=0
12323 On ch=1 n=85 v=48
12324 On ch=1 n=90 v=52
12330 On ch=1 n=85 v=0
12333 On ch=1 n=90 v=0
12335 On ch=1 n=82 v=52
12336 On ch=1 n=91 v=57
12343 On ch=1 n=82 v=0
12345 On ch=1 n=91 v=0
12347 On ch=1 n=90 v=40
12348 On ch=1 n=85 v=42
12355 On ch=1 n=85 v=0
12356 On ch=1 n=90 v=0
12359 On ch=1 n=82 v=47
12360 On ch=1 n=91 v=47
12368 On ch=1 n=91 v=0
12368 On ch=1 n=82 v=0
12371 On ch=1 n=90 v=49
12372 On ch=1 n=85 v=47
12379 On ch=1 n=90 v=0
12382 On ch=1 n=85 v=0
12383 On ch=1 n=82 v=55
12384 On ch=1 n=91 v=65
12391 On ch=1 n=82 v=0
12394 On ch=1 n=91 v=0
12395 On ch=1 n=85 v=70
12396 On ch=1 n=90 v=66
12405 On ch=1 n=90 v=0
12405 On ch=1 n=85 v=0
12407 On ch=1 n=82 v=69
12407 On ch=1 n=91 v=72
12414 On ch=1 n=91 v=0
12417 On ch=1 n=82 v=0
12419 On ch=1 n=85 v=76
12420 On ch=1 n=90 v=73
12427 On ch=1 n=90 v=0
12429 On ch=1 n=85 v=0
12431 On ch=1 n=91 v=80
12431 On ch=1 n=82 v=76
12439 On ch=1 n=82 v=0
12439 On ch=1 n=91 v=0
12443 On ch=1 n=85 v=80
12443 On ch=1 n=90 v=80
12451 On ch=1 n=85 v=0
12452 On ch=1 n=90 v=0
12455 On ch=1 n=82 v=80
12455 On ch=1 n=91 v=82
12463 On ch=1 n=82 v=0
12464 On ch=1 n=91 v=0
12467 On ch=1 n=85 v=79
12468 On ch=1 n=90 v=77
12475 On ch=1 n=90 v=0
12476 On ch=1 n=85 v=0
12479 On ch=1 n=91 v=82
12480 On ch=1 n=82 v=87
12486 On ch=1 n=91 v=0
12489 On ch=1 n=82 v=0
12491 On ch=1 n=90 v=83
12492 On ch=1 n=85 v=87
12499 On ch=1 n=85 v=0
12500 On ch=1 n=90 v=0
12504 On ch=1 n=82 v=87
12504 On ch=1 n=91 v=82
12511 On ch=1 n=82 v=0
12514 On ch=1 n=91 v=0
12515 On ch=1 n=85 v=82
12516 On ch=1 n=90 v=85
12523 On ch=1 n=90 v=0
12523 On ch=1 n=85 v=0
12527 On ch=1 n=91 v=86
12528 On ch=1 n=82 v=82
12534 On ch=1 n=91 v=0
12538 On ch=1 n=82 v=0
12539 On ch=1 n=85 v=82
12540 On ch=1 n=90 v=82
12548 On ch=1 n=90 v=0
12548 On ch=1 n=85 v=0
12551 On ch=1 n=82 v=88
12552 On ch=1 n=91 v=89
12559 On ch=1 n=82 v=0
12560 On ch=1 n=91 v=0
12563 On ch=1 n=90 v=91
12564 On ch=1 n=85 v=90
12571 On ch=1 n=90 v=0
12573 On ch=1 n=85 v=0
12575 On ch=1 n=82 v=92
12576 On ch=1 n=91 v=90
12584 On ch=1 n=82 v=0
12585 On ch=1 n=91 v=0
12587 On ch=1 n=85 v=92
12588 On ch=1 n=90 v=94
12597 On ch=1 n=85 v=0
12598 On ch=1 n=90 v=0
12600 On ch=1 n=82 v=103
12600 On ch=1 n=91 v=107
12609 On ch=1 n=91 v=0
12609 On ch=1 n=82 v=0
12611 On ch=1 n=85 v=104
12611 On ch=1 n=90 v=105
12620 On ch=1 n=90 v=0
12621 On ch=1 n=85 v=0
12623 On ch=1 n=82 v=107
12624 On ch=1 n=91 v=99
12632 On ch=1 n=91 v=0
12632 On ch=1 n=82 v=0
12636 On ch=1 n=85 v=105
12636 On ch=1 n=90 v=102
12646 On ch=1 n=90 v=0
12647 On ch=1 n=85 v=0
12647 On ch=1 n=82 v=101
12647 On ch=1 n=91 v=104
12654 On ch=1 n=91 v=0
12655 On ch=1 n=82 v=0
12659 On ch=1 n=85 v=104
12659 On ch=1 n=90 v=99
12668 On ch=1 n=90 v=0
12670 On ch=1 n=85 v=0
12671 On ch=1 n=91 v=107
12672 On ch=1 n=82 v=117
12681 On ch=1 n=82 v=0
12681 On ch=1 n=91 v=0
12683 On ch=1 n=85 v=105
12684 On ch=1 n=90 v=107
12691 On ch=1 n=90 v=0
12693 On ch=1 n=85 v=0
12695 On ch=1 n=82 v=105
12696 On ch=1 n=91 v=103
12705 On ch=1 n=82 v=0
12706 On ch=1 n=91 v=0
12707 On ch=1 n=85 v=107
12708 On ch=1 n=90 v=105
12714 On ch=1 n=85 v=0
12718 On ch=1 n=90 v=0
12719 On ch=1 n=82 v=109
12720 On ch=1 n=91 v=111
12726 On ch=1 n=82 v=0
12727 On ch=1 n=91 v=0
12731 On ch=1 n=85 v=112
12731 On ch=1 n=90 v=111
12740 On ch=1 n=85 v=0
12744 On ch=1 n=75 v=91
12744 On ch=1 n=83 v=73
12749 On ch=1 n=75 v=0
12750 On ch=1 n=83 v=0
12750 On ch=1 n=90 v=0
12753 On ch=1 n=71 v=87
12753 On ch=1 n=87 v=75
12754 On ch=1 n=78 v=74
12758 On ch=1 n=87 v=0
12759 On ch=1 n=78 v=0
12761 On ch=1 n=71 v=0
12763 On ch=1 n=83 v=72
12764 On ch=1 n=85 v=74
12771 On ch=1 n=85 v=0
12774 On ch=1 n=78 v=75
12777 On ch=1 n=83 v=0
12780 On ch=1 n=78 v=0
12782 On ch=1 n=75 v=75
12786 On ch=1 n=75 v=0
12792 On ch=1 n=71 v=65
12811 On ch=1 n=71 v=0
12815 On ch=1 n=83 v=75
12815 On ch=1 n=78 v=77
12816 On ch=1 n=75 v=98
12820 On ch=1 n=83 v=0
12821 On ch=1 n=75 v=0
12825 On ch=1 n=75 v=85
12826 On ch=1 n=71 v=100
12832 On ch=1 n=71 v=0
12832 On ch=1 n=78 v=0
12836 On ch=1 n=71 v=81
12842 On ch=1 n=75 v=0
12853 On ch=1 n=71 v=0
12887 On ch=1 n=78 v=74
12887 On ch=1 n=71 v=91
12887 On ch=1 n=87 v=73
12893 On ch=1 n=78 v=0
12894 On ch=1 n=87 v=0
12895 On ch=1 n=71 v=0
12898 On ch=1 n=75 v=73
12898 On ch=1 n=83 v=74
12905 On ch=1 n=83 v=0
12905 On ch=1 n=75 v=0
12907 On ch=1 n=78 v=76
12908 On ch=1 n=71 v=74
12915 On ch=1 n=78 v=0
12916 On ch=1 n=71 v=0
12917 On ch=1 n=75 v=77
12923 On ch=1 n=75 v=0
12927 On ch=1 n=71 v=75
12931 On ch=1 n=71 v=0
12959 On ch=1 n=75 v=89
12960 On ch=1 n=83 v=72
12960 On ch=1 n=90 v=72
12966 On ch=1 n=75 v=0
12967 On ch=1 n=83 v=0
12969 On ch=1 n=90 v=0
12969 On ch=1 n=87 v=75
12970 On ch=1 n=71 v=92
12970 On ch=1 n=78 v=72
12976 On ch=1 n=71 v=0
12976 On ch=1 n=87 v=0
12977 On ch=1 n=78 v=0
12979 On ch=1 n=83 v=75
12979 On ch=1 n=85 v=74
12985 On ch=1 n=85 v=0
12990 On ch=1 n=78 v=76
12995 On ch=1 n=78 v=0
12996 On ch=1 n=83 v=0
12998 On ch=1 n=75 v=72
13005 On ch=1 n=75 v=0
13007 On ch=1 n=71 v=62
13024 On ch=1 n=71 v=0
13031 On ch=1 n=71 v=88
13031 On ch=1 n=87 v=77
13032 On ch=1 n=78 v=87
13036 On ch=1 n=87 v=0
13038 On ch=1 n=71 v=0
13040 On ch=1 n=78 v=0
13041 On ch=1 n=83 v=81
13041 On ch=1 n=75 v=86
13047 On ch=1 n=75 v=0
13048 On ch=1 n=83 v=0
13052 On ch=1 n=78 v=84
13052 On ch=1 n=71 v=83
13057 On ch=1 n=71 v=0
13058 On ch=1 n=78 v=0
13061 On ch=1 n=75 v=81
13065 On ch=1 n=75 v=0
13069 On ch=1 n=71 v=82
13074 On ch=1 n=71 v=0
13103 On ch=1 n=90 v=72
13103 On ch=1 n=75 v=89
13104 On ch=1 n=83 v=84
13109 On ch=1 n=83 v=0
13110 On ch=1 n=75 v=0
13110 On ch=1 n=90 v=0
13114 On ch=1 n=71 v=88
13114 On ch=1 n=78 v=74
13114 On ch=1 n=87 v=77
13121 On ch=1 n=78 v=0
13121 On ch=1 n=71 v=0
13122 On ch=1 n=87 v=0
13123 On ch=1 n=83 v=73
13124 On ch=1 n=85 v=72
13131 On ch=1 n=85 v=0
13134 On ch=1 n=78 v=74
13138 On ch=1 n=83 v=0
13141 On ch=1 n=78 v=0
13142 On ch=1 n=75 v=74
13148 On ch=1 n=75 v=0
13152 On ch=1 n=71 v=65
13170 On ch=1 n=71 v=0
13175 On ch=1 n=78 v=91
13176 On ch=1 n=87 v=75
13176 On ch=1 n=94 v=77
13181 On ch=1 n=87 v=0
13183 On ch=1 n=78 v=0
13184 On ch=1 n=94 v=0
13185 On ch=1 n=82 v=73
13186 On ch=1 n=75 v=89
13186 On ch=1 n=90 v=77
13192 On ch=1 n=82 v=0
13193 On ch=1 n=90 v=0
13193 On ch=1 n=75 v=0
13196 On ch=1 n=78 v=77
13196 On ch=1 n=87 v=74
13202 On ch=1 n=78 v=0
13203 On ch=1 n=87 v=0
13205 On ch=1 n=82 v=75
13206 On ch=1 n=75 v=75
13210 On ch=1 n=82 v=0
13211 On ch=1 n=75 v=0
13215 On ch=1 n=78 v=76
13219 On ch=1 n=78 v=0
13223 On ch=1 n=75 v=63
13242 On ch=1 n=75 v=0
13247 On ch=1 n=87 v=72
13247 On ch=1 n=78 v=87
13248 On ch=1 n=82 v=82
13252 On ch=1 n=78 v=0
13254 On ch=1 n=87 v=0
13257 On ch=1 n=75 v=98
13257 On ch=1 n=78 v=82
13263 On ch=1 n=75 v=0
13264 On ch=1 n=82 v=0
13267 On ch=1 n=75 v=81
13272 On ch=1 n=78 v=0
13282 On ch=1 n=75 v=0
13319 On ch=1 n=77 v=74
13319 On ch=1 n=82 v=72
13319 On ch=1 n=73 v=91
13324 On ch=1 n=73 v=0
13327 On ch=1 n=82 v=0
13330 On ch=1 n=73 v=74
13335 On ch=1 n=77 v=0
13348 On ch=1 n=73 v=0
13391 On ch=1 n=78 v=88
13391 On ch=1 n=94 v=73
13392 On ch=1 n=87 v=76
13396 On ch=1 n=94 v=0
13397 On ch=1 n=87 v=0
13399 On ch=1 n=78 v=0
13401 On ch=1 n=82 v=75
13402 On ch=1 n=75 v=90
13402 On ch=1 n=90 v=74
13407 On ch=1 n=75 v=0
13408 On ch=1 n=82 v=0
13410 On ch=1 n=90 v=0
13411 On ch=1 n=87 v=76
13412 On ch=1 n=78 v=75
13418 On ch=1 n=78 v=0
13419 On ch=1 n=87 v=0
13421 On ch=1 n=75 v=76
13421 On ch=1 n=82 v=76
13427 On ch=1 n=82 v=0
13427 On ch=1 n=75 v=0
13431 On ch=1 n=78 v=72
13438 On ch=1 n=78 v=0
13439 On ch=1 n=75 v=65
13459 On ch=1 n=75 v=0
13464 On ch=1 n=87 v=83
13464 On ch=1 n=78 v=101
13464 On ch=1 n=82 v=84
13470 On ch=1 n=78 v=0
13472 On ch=1 n=87 v=0
13474 On ch=1 n=78 v=83
13474 On ch=1 n=75 v=96
13479 On ch=1 n=75 v=0
13479 On ch=1 n=82 v=0
13484 On ch=1 n=75 v=85
13490 On ch=1 n=78 v=0
13501 On ch=1 n=75 v=0
13535 On ch=1 n=82 v=76
13536 On ch=1 n=75 v=101
13536 On ch=1 n=90 v=83
13541 On ch=1 n=82 v=0
13544 On ch=1 n=90 v=0
13544 On ch=1 n=75 v=0
13546 On ch=1 n=78 v=77
13546 On ch=1 n=87 v=72
13551 On ch=1 n=87 v=0
13555 On ch=1 n=78 v=0
13555 On ch=1 n=75 v=77
13556 On ch=1 n=82 v=73
13561 On ch=1 n=75 v=0
13562 On ch=1 n=82 v=0
13566 On ch=1 n=78 v=75
13572 On ch=1 n=78 v=0
13574 On ch=1 n=75 v=75
13582 On ch=1 n=75 v=0
13607 On ch=1 n=94 v=75
13607 On ch=1 n=78 v=87
13608 On ch=1 n=87 v=75
13613 On ch=1 n=87 v=0
13613 On ch=1 n=78 v=0
13615 On ch=1 n=94 v=0
13617 On ch=1 n=75 v=90
13617 On ch=1 n=82 v=76
13617 On ch=1 n=90 v=77
13622 On ch=1 n=75 v=0
13623 On ch=1 n=82 v=0
13625 On ch=1 n=90 v=0
13627 On ch=1 n=78 v=77
13627 On ch=1 n=87 v=75
13635 On ch=1 n=87 v=0
13635 On ch=1 n=78 v=0
13637 On ch=1 n=75 v=73
13638 On ch=1 n=82 v=74
13643 On ch=1 n=82 v=0
13644 On ch=1 n=75 v=0
13646 On ch=1 n=78 v=74
13650 On ch=1 n=78 v=0
13656 On ch=1 n=75 v=65
13676 On ch=1 n=75 v=0
13679 On ch=1 n=87 v=72
13680 On ch=1 n=78 v=99
13680 On ch=1 n=82 v=85
13685 On ch=1 n=87 v=0
13687 On ch=1 n=78 v=0
13690 On ch=1 n=78 v=84
13690 On ch=1 n=75 v=98
13695 On ch=1 n=75 v=0
13695 On ch=1 n=82 v=0
13700 On ch=1 n=75 v=81
13708 On ch=1 n=78 v=0
13715 On ch=1 n=75 v=0
13751 On ch=1 n=82 v=77
13752 On ch=1 n=90 v=83
13752 On ch=1 n=75 v=97
13756 On ch=1 n=82 v=0
13758 On ch=1 n=90 v=0
13760 On ch=1 n=75 v=0
13761 On ch=1 n=78 v=72
13762 On ch=1 n=87 v=75
13767 On ch=1 n=78 v=0
13770 On ch=1 n=87 v=0
13771 On ch=1 n=75 v=73
13772 On ch=1 n=82 v=77
13777 On ch=1 n=75 v=0
13780 On ch=1 n=82 v=0
13781 On ch=1 n=78 v=76
13786 On ch=1 n=78 v=0
13790 On ch=1 n=75 v=74
13797 On ch=1 n=75 v=0
13823 On ch=1 n=78 v=91
13824 On ch=1 n=87 v=75
13824 On ch=1 n=94 v=75
13828 On ch=1 n=78 v=0
13830 On ch=1 n=94 v=0
13831 On ch=1 n=87 v=0
13834 On ch=1 n=75 v=87
13834 On ch=1 n=82 v=72
13834 On ch=1 n=90 v=77
13840 On ch=1 n=90 v=0
13841 On ch=1 n=82 v=0
13842 On ch=1 n=75 v=0
13843 On ch=1 n=87 v=75
13844 On ch=1 n=78 v=73
13849 On ch=1 n=87 v=0
13850 On ch=1 n=78 v=0
13854 On ch=1 n=75 v=72
13854 On ch=1 n=82 v=75
13858 On ch=1 n=82 v=0
13861 On ch=1 n=75 v=0
13863 On ch=1 n=78 v=72
13869 On ch=1 n=78 v=0
13871 On ch=1 n=75 v=64
13889 On ch=1 n=75 v=0
13896 On ch=1 n=78 v=99
13896 On ch=1 n=90 v=86
13896 On ch=1 n=82 v=87
13902 On ch=1 n=90 v=0
13903 On ch=1 n=78 v=0
13904 On ch=1 n=82 v=0
13905 On ch=1 n=78 v=86
13906 On ch=1 n=87 v=81
13906 On ch=1 n=75 v=100
13911 On ch=1 n=87 v=0
13913 On ch=1 n=75 v=0
13913 On ch=1 n=78 v=0
13915 On ch=1 n=75 v=81
13916 On ch=1 n=82 v=85
13921 On ch=1 n=75 v=0
13922 On ch=1 n=82 v=0
13926 On ch=1 n=78 v=82
13932 On ch=1 n=78 v=0
13934 On ch=1 n=75 v=79
13941 On ch=1 n=75 v=0
13967 On ch=1 n=78 v=74
13967 On ch=1 n=82 v=76
13968 On ch=1 n=75 v=100
13973 On ch=1 n=82 v=0
13976 On ch=1 n=75 v=0
13978 On ch=1 n=75 v=72
13984 On ch=1 n=78 v=0
13994 On ch=1 n=75 v=0
14039 On ch=1 n=90 v=74
14040 On ch=1 n=82 v=73
14040 On ch=1 n=73 v=88
14046 On ch=1 n=73 v=0
14046 On ch=1 n=90 v=0
14048 On ch=1 n=82 v=0
14050 On ch=1 n=70 v=92
14050 On ch=1 n=78 v=77
14050 On ch=1 n=85 v=74
14056 On ch=1 n=70 v=0
14057 On ch=1 n=78 v=0
14058 On ch=1 n=85 v=0
14059 On ch=1 n=73 v=75
14059 On ch=1 n=82 v=72
14064 On ch=1 n=82 v=0
14065 On ch=1 n=73 v=0
14069 On ch=1 n=78 v=72
14070 On ch=1 n=70 v=76
14074 On ch=1 n=70 v=0
14074 On ch=1 n=78 v=0
14078 On ch=1 n=73 v=73
14082 On ch=1 n=73 v=0
14087 On ch=1 n=70 v=67
14108 On ch=1 n=70 v=0
14111 On ch=1 n=78 v=91
14112 On ch=1 n=82 v=85
14112 On ch=1 n=85 v=84
14116 On ch=1 n=78 v=0
14119 On ch=1 n=85 v=0
14122 On ch=1 n=73 v=96
14122 On ch=1 n=78 v=85
14129 On ch=1 n=73 v=0
14130 On ch=1 n=82 v=0
14131 On ch=1 n=73 v=80
14132 On ch=1 n=70 v=97
14138 On ch=1 n=78 v=0
14139 On ch=1 n=70 v=0
14141 On ch=1 n=70 v=78
14148 On ch=1 n=73 v=0
14157 On ch=1 n=70 v=0
14183 On ch=1 n=80 v=76
14183 On ch=1 n=85 v=72
14184 On ch=1 n=77 v=98
14189 On ch=1 n=85 v=0
14191 On ch=1 n=77 v=0
14193 On ch=1 n=73 v=91
14193 On ch=1 n=77 v=75
14198 On ch=1 n=73 v=0
14200 On ch=1 n=80 v=0
14203 On ch=1 n=73 v=74
14204 On ch=1 n=80 v=88
14209 On ch=1 n=80 v=0
14209 On ch=1 n=77 v=0
14219 On ch=1 n=73 v=0
14255 On ch=1 n=90 v=76
14256 On ch=1 n=82 v=73
14256 On ch=1 n=73 v=90
14261 On ch=1 n=90 v=0
14264 On ch=1 n=73 v=0
14264 On ch=1 n=82 v=0
14266 On ch=1 n=70 v=91
14266 On ch=1 n=78 v=75
14266 On ch=1 n=85 v=74
14272 On ch=1 n=85 v=0
14273 On ch=1 n=78 v=0
14274 On ch=1 n=70 v=0
14275 On ch=1 n=82 v=73
14276 On ch=1 n=73 v=77
14281 On ch=1 n=82 v=0
14283 On ch=1 n=73 v=0
14285 On ch=1 n=70 v=74
14286 On ch=1 n=78 v=73
14290 On ch=1 n=70 v=0
14291 On ch=1 n=78 v=0
14294 On ch=1 n=73 v=75
14298 On ch=1 n=73 v=0
14304 On ch=1 n=70 v=62
14321 On ch=1 n=70 v=0
14327 On ch=1 n=82 v=74
14327 On ch=1 n=85 v=77
14327 On ch=1 n=78 v=92
14332 On ch=1 n=78 v=0
14334 On ch=1 n=85 v=0
14337 On ch=1 n=73 v=96
14338 On ch=1 n=78 v=82
14343 On ch=1 n=73 v=0
14344 On ch=1 n=82 v=0
14347 On ch=1 n=73 v=82
14348 On ch=1 n=70 v=100
14354 On ch=1 n=78 v=0
14355 On ch=1 n=70 v=0
14357 On ch=1 n=70 v=79
14361 On ch=1 n=73 v=0
14371 On ch=1 n=70 v=0
14399 On ch=1 n=90 v=74
14399 On ch=1 n=73 v=88
14400 On ch=1 n=82 v=84
14405 On ch=1 n=90 v=0
14406 On ch=1 n=82 v=0
14406 On ch=1 n=73 v=0
14410 On ch=1 n=78 v=72
14410 On ch=1 n=70 v=89
14410 On ch=1 n=85 v=73
14415 On ch=1 n=78 v=0
14417 On ch=1 n=85 v=0
14417 On ch=1 n=70 v=0
14419 On ch=1 n=82 v=73
14420 On ch=1 n=73 v=73
14424 On ch=1 n=82 v=0
14428 On ch=1 n=73 v=0
14429 On ch=1 n=70 v=72
14429 On ch=1 n=78 v=73
14434 On ch=1 n=78 v=0
14435 On ch=1 n=70 v=0
14439 On ch=1 n=73 v=73
14443 On ch=1 n=73 v=0
14447 On ch=1 n=70 v=66
14465 On ch=1 n=70 v=0
14471 On ch=1 n=83 v=73
14471 On ch=1 n=76 v=90
14472 On ch=1 n=88 v=75
14477 On ch=1 n=88 v=0
14479 On ch=1 n=76 v=0
14482 On ch=1 n=80 v=75
14484 On ch=1 n=71 v=89
14486 On ch=1 n=83 v=0
14491 On ch=1 n=76 v=77
14493 On ch=1 n=71 v=0
14497 On ch=1 n=80 v=0
14501 On ch=1 n=71 v=77
14508 On ch=1 n=76 v=0
14514 On ch=1 n=71 v=0
14544 On ch=1 n=75 v=102
14544 On ch=1 n=78 v=84
14544 On ch=1 n=83 v=85
14549 On ch=1 n=83 v=0
14552 On ch=1 n=75 v=0
14554 On ch=1 n=71 v=98
14554 On ch=1 n=75 v=81
14560 On ch=1 n=71 v=0
14560 On ch=1 n=78 v=0
14563 On ch=1 n=71 v=84
14572 On ch=1 n=75 v=0
14577 On ch=1 n=71 v=0
14615 On ch=1 n=83 v=74
14615 On ch=1 n=90 v=74
14616 On ch=1 n=75 v=100
14621 On ch=1 n=90 v=0
14621 On ch=1 n=83 v=0
14622 On ch=1 n=75 v=0
14625 On ch=1 n=71 v=87
14625 On ch=1 n=87 v=74
14626 On ch=1 n=78 v=76
14631 On ch=1 n=78 v=0
14632 On ch=1 n=71 v=0
14633 On ch=1 n=87 v=0
14636 On ch=1 n=75 v=77
14636 On ch=1 n=83 v=73
14642 On ch=1 n=83 v=0
14644 On ch=1 n=75 v=0
14645 On ch=1 n=71 v=77
14645 On ch=1 n=78 v=72
14649 On ch=1 n=78 v=0
14649 On ch=1 n=71 v=0
14655 On ch=1 n=75 v=76
14661 On ch=1 n=75 v=0
14663 On ch=1 n=71 v=67
14682 On ch=1 n=71 v=0
14688 On ch=1 n=76 v=88
14688 On ch=1 n=83 v=72
14688 On ch=1 n=88 v=74
14695 On ch=1 n=88 v=0
14697 On ch=1 n=76 v=0
14697 On ch=1 n=80 v=73
14699 On ch=1 n=71 v=90
14703 On ch=1 n=83 v=0
14706 On ch=1 n=71 v=0
14707 On ch=1 n=76 v=76
14715 On ch=1 n=80 v=0
14717 On ch=1 n=71 v=75
14720 On ch=1 n=76 v=0
14733 On ch=1 n=71 v=0
14759 On ch=1 n=83 v=73
14760 On ch=1 n=75 v=101
14760 On ch=1 n=78 v=86
14764 On ch=1 n=83 v=0
14767 On ch=1 n=75 v=0
14770 On ch=1 n=71 v=100
14770 On ch=1 n=75 v=84
14776 On ch=1 n=78 v=0
14778 On ch=1 n=71 v=0
14780 On ch=1 n=71 v=80
14787 On ch=1 n=75 v=0
14797 On ch=1 n=71 v=0
14831 On ch=1 n=83 v=75
14831 On ch=1 n=75 v=92
14832 On ch=1 n=90 v=86
14837 On ch=1 n=90 v=0
14838 On ch=1 n=75 v=0
14839 On ch=1 n=83 v=0
14841 On ch=1 n=78 v=77
14841 On ch=1 n=87 v=73
14842 On ch=1 n=71 v=88
14847 On ch=1 n=87 v=0
14848 On ch=1 n=71 v=0
14848 On ch=1 n=78 v=0
14851 On ch=1 n=83 v=76
14852 On ch=1 n=75 v=75
14856 On ch=1 n=83 v=0
14860 On ch=1 n=75 v=0
14862 On ch=1 n=78 v=76
14862 On ch=1 n=71 v=73
14869 On ch=1 n=71 v=0
14869 On ch=1 n=78 v=0
14871 On ch=1 n=75 v=77
14878 On ch=1 n=75 v=0
14879 On ch=1 n=71 v=65
14898 On ch=1 n=71 v=0
14903 On ch=1 n=83 v=77
14903 On ch=1 n=88 v=77
14904 On ch=1 n=76 v=90
14910 On ch=1 n=88 v=0
14913 On ch=1 n=76 v=0
14913 On ch=1 n=80 v=74
14916 On ch=1 n=71 v=91
14918 On ch=1 n=83 v=0
14924 On ch=1 n=76 v=75
14926 On ch=1 n=71 v=0
14929 On ch=1 n=80 v=0
14934 On ch=1 n=71 v=77
14940 On ch=1 n=76 v=0
14947 On ch=1 n=71 v=0
14975 On ch=1 n=76 v=92
14975 On ch=1 n=80 v=77
14975 On ch=1 n=85 v=72
14980 On ch=1 n=76 v=0
14983 On ch=1 n=85 v=0
14986 On ch=1 n=73 v=96
14986 On ch=1 n=76 v=82
14991 On ch=1 n=80 v=0
14992 On ch=1 n=73 v=0
14996 On ch=1 n=73 v=81
15001 On ch=1 n=76 v=0
15013 On ch=1 n=73 v=0
15048 On ch=1 n=73 v=100
15048 On ch=1 n=90 v=86
15048 On ch=1 n=82 v=82
15053 On ch=1 n=82 v=0
15053 On ch=1 n=90 v=0
15054 On ch=1 n=73 v=0
15057 On ch=1 n=78 v=77
15057 On ch=1 n=85 v=77
15062 On ch=1 n=85 v=0
15065 On ch=1 n=78 v=0
15067 On ch=1 n=73 v=72
15067 On ch=1 n=82 v=73
15074 On ch=1 n=82 v=0
15075 On ch=1 n=73 v=0
15078 On ch=1 n=78 v=73
15084 On ch=1 n=78 v=0
15086 On ch=1 n=73 v=76
15092 On ch=1 n=73 v=0
15119 On ch=1 n=90 v=75
15119 On ch=1 n=83 v=74
15120 On ch=1 n=75 v=91
15124 On ch=1 n=83 v=0
15125 On ch=1 n=90 v=0
15128 On ch=1 n=75 v=0
15129 On ch=1 n=71 v=88
15129 On ch=1 n=78 v=77
15130 On ch=1 n=87 v=72
15136 On ch=1 n=71 v=0
15137 On ch=1 n=78 v=0
15138 On ch=1 n=87 v=0
15139 On ch=1 n=83 v=74
15140 On ch=1 n=75 v=76
15145 On ch=1 n=75 v=0
15146 On ch=1 n=83 v=0
15150 On ch=1 n=71 v=77
15150 On ch=1 n=78 v=75
15156 On ch=1 n=78 v=0
15156 On ch=1 n=71 v=0
15159 On ch=1 n=75 v=74
15163 On ch=1 n=75 v=0
15168 On ch=1 n=71 v=65
15185 On ch=1 n=71 v=0
15191 On ch=1 n=78 v=77
15191 On ch=1 n=83 v=74
15192 On ch=1 n=75 v=102
15197 On ch=1 n=83 v=0
15199 On ch=1 n=75 v=0
15202 On ch=1 n=71 v=100
15202 On ch=1 n=75 v=86
15206 On ch=1 n=78 v=0
15209 On ch=1 n=71 v=0
15212 On ch=1 n=71 v=84
15217 On ch=1 n=75 v=0
15227 On ch=1 n=71 v=0
15263 On ch=1 n=78 v=77
15263 On ch=1 n=87 v=74
15263 On ch=1 n=71 v=90
15271 On ch=1 n=71 v=0
15271 On ch=1 n=87 v=0
15271 On ch=1 n=78 v=0
15273 On ch=1 n=83 v=76
15273 On ch=1 n=75 v=77
15279 On ch=1 n=75 v=0
15281 On ch=1 n=83 v=0
15283 On ch=1 n=71 v=75
15283 On ch=1 n=78 v=72
15291 On ch=1 n=78 v=0
15291 On ch=1 n=71 v=0
15293 On ch=1 n=75 v=73
15300 On ch=1 n=75 v=0
15302 On ch=1 n=71 v=77
15308 On ch=1 n=71 v=0
15335 On ch=1 n=76 v=88
15335 On ch=1 n=83 v=73
15336 On ch=1 n=88 v=75
15344 On ch=1 n=88 v=0
15344 On ch=1 n=76 v=0
15346 On ch=1 n=80 v=77
15348 On ch=1 n=71 v=89
15353 On ch=1 n=83 v=0
15355 On ch=1 n=71 v=0
15356 On ch=1 n=76 v=77
15364 On ch=1 n=80 v=0
15366 On ch=1 n=71 v=77
15370 On ch=1 n=76 v=0
15380 On ch=1 n=71 v=0
15408 On ch=1 n=83 v=87
15408 On ch=1 n=78 v=86
15408 On ch=1 n=75 v=97
15416 On ch=1 n=75 v=0
15416 On ch=1 n=83 v=0
15418 On ch=1 n=75 v=86
15418 On ch=1 n=71 v=97
15423 On ch=1 n=71 v=0
15423 On ch=1 n=78 v=0
15427 On ch=1 n=71 v=81
15434 On ch=1 n=75 v=0
15443 On ch=1 n=71 v=0
15479 On ch=1 n=75 v=89
15480 On ch=1 n=83 v=82
15480 On ch=1 n=90 v=82
15485 On ch=1 n=90 v=0
15486 On ch=1 n=75 v=0
15488 On ch=1 n=83 v=0
15489 On ch=1 n=78 v=72
15490 On ch=1 n=71 v=88
15490 On ch=1 n=87 v=72
15495 On ch=1 n=71 v=0
15497 On ch=1 n=87 v=0
15497 On ch=1 n=78 v=0
15499 On ch=1 n=75 v=77
15500 On ch=1 n=83 v=72
15504 On ch=1 n=75 v=0
15505 On ch=1 n=83 v=0
15510 On ch=1 n=71 v=76
15510 On ch=1 n=78 v=75
15514 On ch=1 n=71 v=0
15517 On ch=1 n=78 v=0
15519 On ch=1 n=75 v=72
15526 On ch=1 n=75 v=0
15527 On ch=1 n=71 v=66
15544 On ch=1 n=71 v=0
15552 On ch=1 n=76 v=92
15552 On ch=1 n=83 v=73
15552 On ch=1 n=88 v=75
15557 On ch=1 n=88 v=0
15560 On ch=1 n=76 v=0
15561 On ch=1 n=80 v=74
15563 On ch=1 n=71 v=91
15568 On ch=1 n=83 v=0
15572 On ch=1 n=76 v=72
15573 On ch=1 n=71 v=0
15579 On ch=1 n=80 v=0
15581 On ch=1 n=71 v=74
15587 On ch=1 n=76 v=0
15596 On ch=1 n=71 v=0
15623 On ch=1 n=78 v=73
15623 On ch=1 n=83 v=76
15623 On ch=1 n=75 v=87
15629 On ch=1 n=75 v=0
15629 On ch=1 n=83 v=0
15633 On ch=1 n=71 v=101
15633 On ch=1 n=75 v=84
15638 On ch=1 n=78 v=0
15640 On ch=1 n=71 v=0
15643 On ch=1 n=71 v=82
15648 On ch=1 n=75 v=0
15659 On ch=1 n=71 v=0
15695 On ch=1 n=83 v=75
15695 On ch=1 n=75 v=88
15696 On ch=1 n=90 v=83
15700 On ch=1 n=83 v=0
15701 On ch=1 n=75 v=0
15703 On ch=1 n=90 v=0
15706 On ch=1 n=71 v=90
15706 On ch=1 n=87 v=76
15706 On ch=1 n=78 v=73
15711 On ch=1 n=87 v=0
15712 On ch=1 n=71 v=0
15714 On ch=1 n=78 v=0
15715 On ch=1 n=75 v=75
15715 On ch=1 n=83 v=73
15720 On ch=1 n=83 v=0
15720 On ch=1 n=75 v=0
15725 On ch=1 n=71 v=72
15726 On ch=1 n=78 v=76
15730 On ch=1 n=71 v=0
15733 On ch=1 n=78 v=0
15735 On ch=1 n=75 v=73
15742 On ch=1 n=75 v=0
15743 On ch=1 n=71 v=65
15763 On ch=1 n=71 v=0
15767 On ch=1 n=83 v=73
15768 On ch=1 n=76 v=87
15768 On ch=1 n=88 v=76
15773 On ch=1 n=88 v=0
15775 On ch=1 n=76 v=0
15777 On ch=1 n=80 v=75
15779 On ch=1 n=71 v=90
15783 On ch=1 n=83 v=0
15786 On ch=1 n=71 v=0
15787 On ch=1 n=76 v=74
15794 On ch=1 n=80 v=0
15797 On ch=1 n=71 v=72
15803 On ch=1 n=76 v=0
15810 On ch=1 n=71 v=0
15839 On ch=1 n=76 v=90
15840 On ch=1 n=80 v=82
15840 On ch=1 n=85 v=83
15845 On ch=1 n=76 v=0
15847 On ch=1 n=85 v=0
15849 On ch=1 n=73 v=97
15850 On ch=1 n=76 v=81
15855 On ch=1 n=80 v=0
15857 On ch=1 n=73 v=0
15860 On ch=1 n=73 v=82
15866 On ch=1 n=76 v=0
15877 On ch=1 n=73 v=0
15911 On ch=1 n=90 v=73
15911 On ch=1 n=73 v=89
15912 On ch=1 n=82 v=82
15918 On ch=1 n=90 v=0
15919 On ch=1 n=73 v=0
15920 On ch=1 n=82 v=0
15922 On ch=1 n=78 v=74
15922 On ch=1 n=85 v=75
15928 On ch=1 n=85 v=0
15928 On ch=1 n=78 v=0
15932 On ch=1 n=73 v=74
15932 On ch=1 n=82 v=76
15938 On ch=1 n=82 v=0
15940 On ch=1 n=73 v=0
15942 On ch=1 n=78 v=74
15949 On ch=1 n=78 v=0
15950 On ch=1 n=73 v=76
15955 On ch=1 n=73 v=0
15984 On ch=1 n=78 v=76
15984 On ch=1 n=75 v=87
15984 On ch=1 n=83 v=77
15991 On ch=1 n=83 v=0
15991 On ch=1 n=75 v=0
15994 On ch=1 n=75 v=75
15994 On ch=1 n=71 v=92
16000 On ch=1 n=78 v=0
16001 On ch=1 n=71 v=0
16004 On ch=1 n=71 v=75
16012 On ch=1 n=75 v=0
16021 On ch=1 n=71 v=0
16055 On ch=1 n=78 v=89
16055 On ch=1 n=83 v=72
16056 On ch=1 n=87 v=83
16062 On ch=1 n=78 v=0
16063 On ch=1 n=87 v=0
16065 On ch=1 n=75 v=100
16065 On ch=1 n=78 v=85
16071 On ch=1 n=75 v=0
16073 On ch=1 n=83 v=0
16075 On ch=1 n=71 v=100
16076 On ch=1 n=75 v=84
16082 On ch=1 n=78 v=0
16083 On ch=1 n=71 v=0
16085 On ch=1 n=71 v=82
16092 On ch=1 n=75 v=0
16101 On ch=1 n=71 v=0
16127 On ch=1 n=75 v=91
16127 On ch=1 n=83 v=75
16127 On ch=1 n=90 v=77
16133 On ch=1 n=83 v=0
16134 On ch=1 n=90 v=0
16135 On ch=1 n=75 v=0
16137 On ch=1 n=71 v=91
16137 On ch=1 n=87 v=74
16138 On ch=1 n=78 v=74
16143 On ch=1 n=87 v=0
16143 On ch=1 n=71 v=0
16146 On ch=1 n=78 v=0
16147 On ch=1 n=83 v=77
16148 On ch=1 n=75 v=72
16153 On ch=1 n=83 v=0
16156 On ch=1 n=75 v=0
16157 On ch=1 n=78 v=77
16157 On ch=1 n=71 v=74
16161 On ch=1 n=71 v=0
16161 On ch=1 n=78 v=0
16166 On ch=1 n=75 v=77
16175 On ch=1 n=75 v=0
16176 On ch=1 n=71 v=64
16196 On ch=1 n=71 v=0
16200 On ch=1 n=95 v=79
16200 On ch=1 n=75 v=102
16200 On ch=1 n=71 v=105
16200 On ch=1 n=83 v=103
16219 On ch=1 n=95 v=0
16220 On ch=1 n=75 v=0
16220 On ch=1 n=71 v=0
16220 On ch=1 n=83 v=0
16631 On ch=1 n=76 v=84
16631 On ch=1 n=84 v=84
16638 On ch=1 n=84 v=0
16638 On ch=1 n=76 v=0
16643 On ch=1 n=80 v=81
16644 On ch=1 n=83 v=83
16651 On ch=1 n=83 v=0
16653 On ch=1 n=80 v=0
16655 On ch=1 n=76 v=81
16656 On ch=1 n=84 v=83
16665 On ch=1 n=76 v=0
16666 On ch=1 n=84 v=0
16667 On ch=1 n=80 v=80
16667 On ch=1 n=83 v=84
16675 On ch=1 n=80 v=0
16676 On ch=1 n=83 v=0
16679 On ch=1 n=76 v=79
16680 On ch=1 n=84 v=79
16687 On ch=1 n=84 v=0
16690 On ch=1 n=76 v=0
16692 On ch=1 n=83 v=82
16692 On ch=1 n=80 v=80
16699 On ch=1 n=83 v=0
16702 On ch=1 n=80 v=0
16703 On ch=1 n=76 v=82
16703 On ch=1 n=84 v=83
16711 On ch=1 n=76 v=0
16713 On ch=1 n=84 v=0
16715 On ch=1 n=80 v=89
16715 On ch=1 n=83 v=90
16723 On ch=1 n=80 v=0
16725 On ch=1 n=83 v=0
16727 On ch=1 n=76 v=88
16728 On ch=1 n=84 v=88
16734 On ch=1 n=76 v=0
16737 On ch=1 n=84 v=0
16739 On ch=1 n=80 v=88
16740 On ch=1 n=83 v=86
16748 On ch=1 n=80 v=0
16749 On ch=1 n=83 v=0
16751 On ch=1 n=76 v=88
16752 On ch=1 n=84 v=87
16758 On ch=1 n=76 v=0
16760 On ch=1 n=84 v=0
16763 On ch=1 n=83 v=80
16763 On ch=1 n=80 v=81
16771 On ch=1 n=80 v=0
16772 On ch=1 n=83 v=0
16775 On ch=1 n=84 v=84
16775 On ch=1 n=76 v=83
16782 On ch=1 n=76 v=0
16783 On ch=1 n=84 v=0
16787 On ch=1 n=80 v=87
16788 On ch=1 n=83 v=91
16794 On ch=1 n=80 v=0
16797 On ch=1 n=83 v=0
16799 On ch=1 n=76 v=92
16800 On ch=1 n=84 v=93
16807 On ch=1 n=76 v=0
16808 On ch=1 n=84 v=0
16811 On ch=1 n=80 v=99
16812 On ch=1 n=83 v=99
16820 On ch=1 n=80 v=0
16821 On ch=1 n=83 v=0
16823 On ch=1 n=76 v=106
16823 On ch=1 n=84 v=105
16831 On ch=1 n=84 v=0
16833 On ch=1 n=76 v=0
16836 On ch=1 n=80 v=112
16836 On ch=1 n=83 v=114
16843 On ch=1 n=80 v=0
16844 On ch=1 n=83 v=0
16847 On ch=1 n=79 v=106
16848 On ch=1 n=76 v=122
16848 On ch=1 n=84 v=107
16855 On ch=1 n=84 v=0
16855 On ch=1 n=76 v=0
16855 On ch=1 n=79 v=0
16859 On ch=1 n=84 v=102
16859 On ch=1 n=79 v=101
16859 On ch=1 n=76 v=114
16866 On ch=1 n=84 v=0
16867 On ch=1 n=79 v=0
16868 On ch=1 n=76 v=0
16871 On ch=1 n=83 v=92
16872 On ch=1 n=78 v=95
16879 On ch=1 n=78 v=0
16879 On ch=1 n=83 v=0
16883 On ch=1 n=83 v=90
16884 On ch=1 n=78 v=87
16892 On ch=1 n=83 v=0
16893 On ch=1 n=78 v=0
16895 On ch=1 n=82 v=85
16895 On ch=1 n=77 v=86
16903 On ch=1 n=82 v=0
16904 On ch=1 n=77 v=0
16908 On ch=1 n=77 v=82
16908 On ch=1 n=82 v=82
16916 On ch=1 n=82 v=0
16917 On ch=1 n=77 v=0
16920 On ch=1 n=76 v=87
16920 On ch=1 n=81 v=87
16926 On ch=1 n=81 v=0
16926 On ch=1 n=76 v=0
16931 On ch=1 n=76 v=90
16932 On ch=1 n=81 v=91
16937 On ch=1 n=76 v=0
16941 On ch=1 n=81 v=0
16943 On ch=1 n=75 v=84
16944 On ch=1 n=80 v=84
16951 On ch=1 n=80 v=0
16951 On ch=1 n=75 v=0
16956 On ch=1 n=75 v=85
16956 On ch=1 n=80 v=83
16962 On ch=1 n=75 v=0
16964 On ch=1 n=80 v=0
16967 On ch=1 n=74 v=86
16968 On ch=1 n=79 v=85
16973 On ch=1 n=74 v=0
16976 On ch=1 n=79 v=0
16979 On ch=1 n=74 v=82
16980 On ch=1 n=79 v=82
16988 On ch=1 n=79 v=0
16988 On ch=1 n=74 v=0
16991 On ch=1 n=73 v=81
16991 On ch=1 n=78 v=78
16999 On ch=1 n=78 v=0
17000 On ch=1 n=73 v=0
17004 On ch=1 n=73 v=80
17004 On ch=1 n=78 v=79
17011 On ch=1 n=73 v=0
17013 On ch=1 n=78 v=0
17015 On ch=1 n=77 v=78
17015 On ch=1 n=72 v=77
17023 On ch=1 n=72 v=0
17024 On ch=1 n=77 v=0
17027 On ch=1 n=77 v=78
17028 On ch=1 n=72 v=78
17035 On ch=1 n=72 v=0
17035 On ch=1 n=77 v=0
17039 On ch=1 n=76 v=72
17040 On ch=1 n=71 v=77
17047 On ch=1 n=71 v=0
17048 On ch=1 n=76 v=0
17051 On ch=1 n=71 v=75
17051 On ch=1 n=76 v=75
17059 On ch=1 n=76 v=0
17059 On ch=1 n=71 v=0
17063 On ch=1 n=72 v=76
17064 On ch=1 n=77 v=77
17084 On ch=1 n=77 v=0
17085 On ch=1 n=72 v=0
17495 On ch=1 n=78 v=55
17495 On ch=1 n=86 v=57
17505 On ch=1 n=86 v=0
17505 On ch=1 n=78 v=0
17508 On ch=1 n=85 v=53
17508 On ch=1 n=82 v=53
17515 On ch=1 n=85 v=0
17518 On ch=1 n=82 v=0
17519 On ch=1 n=78 v=61
17519 On ch=1 n=86 v=59
17526 On ch=1 n=86 v=0
17528 On ch=1 n=78 v=0
17531 On ch=1 n=85 v=60
17532 On ch=1 n=82 v=62
17539 On ch=1 n=82 v=0
17541 On ch=1 n=85 v=0
17543 On ch=1 n=78 v=62
17543 On ch=1 n=86 v=62
17551 On ch=1 n=86 v=0
17552 On ch=1 n=78 v=0
17556 On ch=1 n=85 v=62
17556 On ch=1 n=82 v=66
17565 On ch=1 n=82 v=0
17566 On ch=1 n=85 v=0
17567 On ch=1 n=86 v=72
17568 On ch=1 n=78 v=81
17577 On ch=1 n=78 v=0
17578 On ch=1 n=86 v=0
17579 On ch=1 n=82 v=76
17579 On ch=1 n=85 v=80
17586 On ch=1 n=85 v=0
17587 On ch=1 n=82 v=0
17591 On ch=1 n=78 v=79
17591 On ch=1 n=86 v=82
17600 On ch=1 n=86 v=0
17601 On ch=1 n=78 v=0
17603 On ch=1 n=82 v=79
17603 On ch=1 n=85 v=78
17611 On ch=1 n=85 v=0
17612 On ch=1 n=82 v=0
17616 On ch=1 n=78 v=76
17616 On ch=1 n=86 v=76
17626 On ch=1 n=86 v=0
17626 On ch=1 n=78 v=0
17628 On ch=1 n=85 v=79
17628 On ch=1 n=82 v=83
17635 On ch=1 n=85 v=0
17637 On ch=1 n=82 v=0
17640 On ch=1 n=78 v=96
17640 On ch=1 n=86 v=97
17649 On ch=1 n=86 v=0
17649 On ch=1 n=78 v=0
17652 On ch=1 n=82 v=88
17652 On ch=1 n=85 v=87
17659 On ch=1 n=85 v=0
17662 On ch=1 n=82 v=0
17663 On ch=1 n=86 v=96
17664 On ch=1 n=78 v=93
17673 On ch=1 n=78 v=0
17673 On ch=1 n=86 v=0
17675 On ch=1 n=85 v=98
17676 On ch=1 n=82 v=102
17684 On ch=1 n=85 v=0
17685 On ch=1 n=82 v=0
17687 On ch=1 n=78 v=105
17687 On ch=1 n=86 v=104
17697 On ch=1 n=86 v=0
17697 On ch=1 n=78 v=0
17699 On ch=1 n=85 v=113
17699 On ch=1 n=82 v=111
17706 On ch=1 n=82 v=0
17708 On ch=1 n=85 v=0
17711 On ch=1 n=81 v=104
17711 On ch=1 n=86 v=102
17717 On ch=1 n=81 v=0
17719 On ch=1 n=86 v=0
17723 On ch=1 n=81 v=99
17724 On ch=1 n=86 v=102
17731 On ch=1 n=86 v=0
17732 On ch=1 n=81 v=0
17735 On ch=1 n=85 v=97
17735 On ch=1 n=80 v=95
17741 On ch=1 n=85 v=0
17742 On ch=1 n=80 v=0
17747 On ch=1 n=85 v=89
17748 On ch=1 n=80 v=91
17754 On ch=1 n=85 v=0
17756 On ch=1 n=80 v=0
17759 On ch=1 n=79 v=83
17759 On ch=1 n=84 v=84
17765 On ch=1 n=79 v=0
17767 On ch=1 n=84 v=0
17772 On ch=1 n=79 v=80
17772 On ch=1 n=84 v=80
17778 On ch=1 n=84 v=0
17779 On ch=1 n=79 v=0
17783 On ch=1 n=78 v=82
17784 On ch=1 n=83 v=88
17790 On ch=1 n=83 v=0
17792 On ch=1 n=78 v=0
17795 On ch=1 n=78 v=88
17796 On ch=1 n=83 v=91
17802 On ch=1 n=78 v=0
17804 On ch=1 n=83 v=0
17808 On ch=1 n=82 v=86
17808 On ch=1 n=77 v=87
17814 On ch=1 n=82 v=0
17817 On ch=1 n=77 v=0
17819 On ch=1 n=82 v=85
17820 On ch=1 n=77 v=84
17827 On ch=1 n=77 v=0
17828 On ch=1 n=82 v=0
17831 On ch=1 n=76 v=82
17832 On ch=1 n=81 v=85
17836 On ch=1 n=76 v=0
17842 On ch=1 n=81 v=0
17844 On ch=1 n=81 v=82
17844 On ch=1 n=76 v=79
17851 On ch=1 n=81 v=0
17853 On ch=1 n=76 v=0
17855 On ch=1 n=75 v=77
17855 On ch=1 n=80 v=79
17863 On ch=1 n=80 v=0
17864 On ch=1 n=75 v=0
17867 On ch=1 n=75 v=78
17867 On ch=1 n=80 v=79
17873 On ch=1 n=75 v=0
17876 On ch=1 n=80 v=0
17879 On ch=1 n=79 v=80
17880 On ch=1 n=74 v=80
17886 On ch=1 n=79 v=0
17889 On ch=1 n=74 v=0
17891 On ch=1 n=79 v=82
17892 On ch=1 n=74 v=82
17900 On ch=1 n=74 v=0
17900 On ch=1 n=79 v=0
17903 On ch=1 n=73 v=75
17903 On ch=1 n=78 v=72
17911 On ch=1 n=73 v=0
17912 On ch=1 n=78 v=0
17915 On ch=1 n=78 v=76
17915 On ch=1 n=73 v=74
17921 On ch=1 n=73 v=0
17921 On ch=1 n=78 v=0
17927 On ch=1 n=75 v=56
17928 On ch=1 n=79 v=55
17945 On ch=1 n=75 v=0
17950 On ch=1 n=79 v=0
17951 On ch=1 n=75 v=54
17984 On ch=1 n=75 v=0
18000 On ch=1 n=71 v=77
18066 On ch=1 n=71 v=0
18071 On ch=1 n=71 v=69
18092 On ch=1 n=71 v=0
18143 On ch=1 n=79 v=52
18144 On ch=1 n=75 v=56
18165 On ch=1 n=79 v=0
18202 On ch=1 n=75 v=0
18215 On ch=1 n=71 v=63
18284 On ch=1 n=71 v=0
18287 On ch=1 n=71 v=67
18307 On ch=1 n=71 v=0
18312 On ch=1 n=67 v=68
18344 On ch=1 n=67 v=0
18359 On ch=1 n=79 v=57
18381 On ch=1 n=79 v=0
18384 On ch=1 n=76 v=53
18416 On ch=1 n=76 v=0
18432 On ch=1 n=72 v=74
18501 On ch=1 n=72 v=0
18504 On ch=1 n=72 v=77
18526 On ch=1 n=72 v=0
18576 On ch=1 n=79 v=52
18596 On ch=1 n=79 v=0
18600 On ch=1 n=76 v=55
18633 On ch=1 n=76 v=0
18648 On ch=1 n=72 v=76
18713 On ch=1 n=72 v=0
18791 On ch=1 n=91 v=45
18792 On ch=1 n=82 v=46
18800 On ch=1 n=82 v=0
18801 On ch=1 n=91 v=0
18803 On ch=1 n=85 v=48
18804 On ch=1 n=90 v=51
18810 On ch=1 n=85 v=0
18813 On ch=1 n=90 v=0
18815 On ch=1 n=91 v=53
18816 On ch=1 n=82 v=55
18822 On ch=1 n=91 v=0
18825 On ch=1 n=82 v=0
18827 On ch=1 n=85 v=37
18827 On ch=1 n=90 v=38
18836 On ch=1 n=85 v=0
18837 On ch=1 n=90 v=0
18840 On ch=1 n=82 v=46
18840 On ch=1 n=91 v=47
18849 On ch=1 n=91 v=0
18850 On ch=1 n=82 v=0
18851 On ch=1 n=90 v=47
18852 On ch=1 n=85 v=52
18859 On ch=1 n=90 v=0
18860 On ch=1 n=85 v=0
18863 On ch=1 n=91 v=54
18863 On ch=1 n=82 v=56
18870 On ch=1 n=82 v=0
18873 On ch=1 n=91 v=0
18875 On ch=1 n=90 v=68
18876 On ch=1 n=85 v=68
18884 On ch=1 n=85 v=0
18884 On ch=1 n=90 v=0
18887 On ch=1 n=91 v=70
18888 On ch=1 n=82 v=74
18896 On ch=1 n=82 v=0
18897 On ch=1 n=91 v=0
18899 On ch=1 n=90 v=72
18900 On ch=1 n=85 v=74
18908 On ch=1 n=85 v=0
18909 On ch=1 n=90 v=0
18911 On ch=1 n=91 v=81
18912 On ch=1 n=82 v=76
18918 On ch=1 n=91 v=0
18923 On ch=1 n=82 v=0
18924 On ch=1 n=85 v=84
18924 On ch=1 n=90 v=81
18932 On ch=1 n=90 v=0
18934 On ch=1 n=85 v=0
18935 On ch=1 n=91 v=79
18936 On ch=1 n=82 v=89
18944 On ch=1 n=82 v=0
18944 On ch=1 n=91 v=0
18948 On ch=1 n=90 v=82
18948 On ch=1 n=85 v=81
18958 On ch=1 n=85 v=0
18959 On ch=1 n=90 v=0
18959 On ch=1 n=82 v=84
18960 On ch=1 n=91 v=83
18969 On ch=1 n=91 v=0
18969 On ch=1 n=82 v=0
18971 On ch=1 n=85 v=85
18972 On ch=1 n=90 v=83
18979 On ch=1 n=85 v=0
18980 On ch=1 n=90 v=0
18984 On ch=1 n=82 v=87
18984 On ch=1 n=91 v=85
18993 On ch=1 n=91 v=0
18993 On ch=1 n=82 v=0
18996 On ch=1 n=85 v=87
18996 On ch=1 n=90 v=84
19004 On ch=1 n=85 v=0
19005 On ch=1 n=90 v=0
19008 On ch=1 n=82 v=87
19008 On ch=1 n=91 v=83
19015 On ch=1 n=82 v=0
19018 On ch=1 n=91 v=0
19019 On ch=1 n=85 v=85
19020 On ch=1 n=90 v=84
19029 On ch=1 n=90 v=0
19029 On ch=1 n=85 v=0
19031 On ch=1 n=82 v=90
19032 On ch=1 n=91 v=89
19040 On ch=1 n=82 v=0
19042 On ch=1 n=91 v=0
19043 On ch=1 n=85 v=92
19044 On ch=1 n=90 v=87
19052 On ch=1 n=90 v=0
19053 On ch=1 n=85 v=0
19055 On ch=1 n=82 v=91
19056 On ch=1 n=91 v=89
19065 On ch=1 n=91 v=0
19066 On ch=1 n=82 v=0
19067 On ch=1 n=85 v=93
19067 On ch=1 n=90 v=96
19075 On ch=1 n=85 v=0
19076 On ch=1 n=90 v=0
19079 On ch=1 n=82 v=94
19080 On ch=1 n=91 v=102
19089 On ch=1 n=91 v=0
19089 On ch=1 n=82 v=0
19091 On ch=1 n=85 v=103
19091 On ch=1 n=90 v=102
19099 On ch=1 n=90 v=0
19100 On ch=1 n=85 v=0
19103 On ch=1 n=82 v=109
19103 On ch=1 n=91 v=102
19112 On ch=1 n=91 v=0
19113 On ch=1 n=82 v=0
19115 On ch=1 n=90 v=105
19116 On ch=1 n=85 v=104
19122 On ch=1 n=90 v=0
19123 On ch=1 n=85 v=0
19128 On ch=1 n=91 v=106
19128 On ch=1 n=82 v=106
19136 On ch=1 n=91 v=0
19137 On ch=1 n=82 v=0
19139 On ch=1 n=90 v=99
19139 On ch=1 n=85 v=101
19147 On ch=1 n=85 v=0
19147 On ch=1 n=90 v=0
19151 On ch=1 n=82 v=107
19151 On ch=1 n=91 v=105
19161 On ch=1 n=91 v=0
19161 On ch=1 n=82 v=0
19163 On ch=1 n=90 v=104
19164 On ch=1 n=85 v=102
19173 On ch=1 n=90 v=0
19174 On ch=1 n=85 v=0
19175 On ch=1 n=91 v=104
19176 On ch=1 n=82 v=106
19183 On ch=1 n=91 v=0
19184 On ch=1 n=82 v=0
19187 On ch=1 n=90 v=104
19188 On ch=1 n=85 v=104
19194 On ch=1 n=90 v=0
19198 On ch=1 n=85 v=0
19200 On ch=1 n=82 v=112
19200 On ch=1 n=91 v=110
19208 On ch=1 n=91 v=0
19210 On ch=1 n=82 v=0
19211 On ch=1 n=90 v=109
19212 On ch=1 n=85 v=108
19219 On ch=1 n=85 v=0
19220 On ch=1 n=90 v=0
19223 On ch=1 n=83 v=84
19223 On ch=1 n=95 v=86
19224 On ch=1 n=78 v=98
19228 On ch=1 n=95 v=0
19228 On ch=1 n=83 v=0
19229 On ch=1 n=78 v=0
19235 On ch=1 n=95 v=75
19235 On ch=1 n=83 v=74
19236 On ch=1 n=78 v=87
19241 On ch=1 n=83 v=0
19241 On ch=1 n=95 v=0
19242 On ch=1 n=78 v=0
19247 On ch=1 n=83 v=84
19247 On ch=1 n=78 v=100
19248 On ch=1 n=95 v=85
19254 On ch=1 n=83 v=0
19255 On ch=1 n=78 v=0
19256 On ch=1 n=95 v=0
19259 On ch=1 n=78 v=92
19259 On ch=1 n=95 v=72
19260 On ch=1 n=83 v=76
19266 On ch=1 n=78 v=0
19268 On ch=1 n=83 v=0
19268 On ch=1 n=95 v=0
19271 On ch=1 n=83 v=86
19272 On ch=1 n=78 v=100
19272 On ch=1 n=95 v=82
19278 On ch=1 n=95 v=0
19278 On ch=1 n=78 v=0
19279 On ch=1 n=83 v=0
19283 On ch=1 n=83 v=77
19283 On ch=1 n=78 v=92
19284 On ch=1 n=95 v=74
19291 On ch=1 n=78 v=0
19292 On ch=1 n=83 v=0
19293 On ch=1 n=95 v=0
19295 On ch=1 n=83 v=84
19295 On ch=1 n=78 v=102
19295 On ch=1 n=95 v=86
19301 On ch=1 n=95 v=0
19303 On ch=1 n=83 v=0
19304 On ch=1 n=78 v=0
19307 On ch=1 n=78 v=97
19307 On ch=1 n=83 v=83
19308 On ch=1 n=95 v=83
19315 On ch=1 n=95 v=0
19315 On ch=1 n=83 v=0
19315 On ch=1 n=78 v=0
19319 On ch=1 n=94 v=92
19320 On ch=1 n=82 v=92
19327 On ch=1 n=82 v=0
19327 On ch=1 n=94 v=0
19331 On ch=1 n=94 v=79
19331 On ch=1 n=82 v=81
19339 On ch=1 n=94 v=0
19340 On ch=1 n=82 v=0
19344 On ch=1 n=80 v=89
19344 On ch=1 n=92 v=86
19350 On ch=1 n=92 v=0
19352 On ch=1 n=80 v=0
19355 On ch=1 n=80 v=78
19356 On ch=1 n=92 v=76
19363 On ch=1 n=92 v=0
19363 On ch=1 n=80 v=0
19368 On ch=1 n=90 v=94
19368 On ch=1 n=78 v=97
19374 On ch=1 n=90 v=0
19376 On ch=1 n=78 v=0
19379 On ch=1 n=90 v=74
19380 On ch=1 n=78 v=76
19388 On ch=1 n=90 v=0
19389 On ch=1 n=78 v=0
19391 On ch=1 n=76 v=86
19392 On ch=1 n=88 v=83
19399 On ch=1 n=76 v=0
19401 On ch=1 n=88 v=0
19404 On ch=1 n=88 v=73
19404 On ch=1 n=76 v=74
19411 On ch=1 n=88 v=0
19413 On ch=1 n=76 v=0
19416 On ch=1 n=75 v=87
19416 On ch=1 n=87 v=83
19425 On ch=1 n=87 v=0
19425 On ch=1 n=75 v=0
19428 On ch=1 n=75 v=73
19428 On ch=1 n=87 v=73
19434 On ch=1 n=87 v=0
19435 On ch=1 n=75 v=0
19439 On ch=1 n=73 v=83
19440 On ch=1 n=85 v=84
19446 On ch=1 n=73 v=0
19449 On ch=1 n=85 v=0
19451 On ch=1 n=73 v=73
19452 On ch=1 n=85 v=73
19458 On ch=1 n=73 v=0
19461 On ch=1 n=85 v=0
19463 On ch=1 n=71 v=87
19464 On ch=1 n=83 v=87
19471 On ch=1 n=71 v=0
19472 On ch=1 n=83 v=0
19476 On ch=1 n=71 v=74
19476 On ch=1 n=83 v=72
19483 On ch=1 n=83 v=0
19484 On ch=1 n=71 v=0
19487 On ch=1 n=82 v=83
19488 On ch=1 n=70 v=83
19496 On ch=1 n=82 v=0
19497 On ch=1 n=70 v=0
19499 On ch=1 n=70 v=73
19499 On ch=1 n=82 v=77
19506 On ch=1 n=82 v=0
19506 On ch=1 n=70 v=0
19511 On ch=1 n=68 v=85
19511 On ch=1 n=80 v=86
19517 On ch=1 n=80 v=0
19519 On ch=1 n=68 v=0
19523 On ch=1 n=68 v=84
19524 On ch=1 n=80 v=85
19530 On ch=1 n=80 v=0
19530 On ch=1 n=68 v=0
19535 On ch=1 n=78 v=89
19536 On ch=1 n=66 v=94
19541 On ch=1 n=78 v=0
19543 On ch=1 n=66 v=0
19547 On ch=1 n=66 v=77
19548 On ch=1 n=78 v=79
19556 On ch=1 n=66 v=0
19557 On ch=1 n=78 v=0
19560 On ch=1 n=64 v=88
19560 On ch=1 n=76 v=89
19567 On ch=1 n=76 v=0
19567 On ch=1 n=64 v=0
19571 On ch=1 n=64 v=74
19572 On ch=1 n=76 v=75
19578 On ch=1 n=64 v=0
19580 On ch=1 n=76 v=0
19583 On ch=1 n=75 v=84
19584 On ch=1 n=63 v=95
19592 On ch=1 n=75 v=0
19593 On ch=1 n=63 v=0
19595 On ch=1 n=63 v=76
19595 On ch=1 n=75 v=76
19601 On ch=1 n=75 v=0
19604 On ch=1 n=63 v=0
19607 On ch=1 n=73 v=84
19608 On ch=1 n=61 v=87
19613 On ch=1 n=73 v=0
19614 On ch=1 n=61 v=0
19619 On ch=1 n=61 v=77
19620 On ch=1 n=73 v=73
19627 On ch=1 n=73 v=0
19628 On ch=1 n=61 v=0
19631 On ch=1 n=71 v=84
19632 On ch=1 n=59 v=83
19638 On ch=1 n=71 v=0
19639 On ch=1 n=59 v=0
19644 On ch=1 n=71 v=73
19644 On ch=1 n=59 v=74
19650 On ch=1 n=59 v=0
19653 On ch=1 n=71 v=0
19655 On ch=1 n=78 v=96
19656 On ch=1 n=71 v=95
19656 On ch=1 n=83 v=94
19663 On ch=1 n=71 v=0
19664 On ch=1 n=78 v=0
19665 On ch=1 n=83 v=0
19667 On ch=1 n=83 v=85
19668 On ch=1 n=71 v=87
19668 On ch=1 n=78 v=87
19674 On ch=1 n=83 v=0
19676 On ch=1 n=78 v=0
19677 On ch=1 n=71 v=0
19679 On ch=1 n=78 v=75
19679 On ch=1 n=71 v=73
19679 On ch=1 n=83 v=77
19685 On ch=1 n=71 v=0
19686 On ch=1 n=83 v=0
19688 On ch=1 n=78 v=0
19691 On ch=1 n=83 v=67
19692 On ch=1 n=78 v=64
19692 On ch=1 n=71 v=63
19698 On ch=1 n=83 v=0
19700 On ch=1 n=78 v=0
19701 On ch=1 n=71 v=0
19703 On ch=1 n=78 v=65
19704 On ch=1 n=83 v=65
19704 On ch=1 n=71 v=63
19711 On ch=1 n=71 v=0
19711 On ch=1 n=83 v=0
19712 On ch=1 n=78 v=0
19715 On ch=1 n=83 v=64
19716 On ch=1 n=71 v=64
19716 On ch=1 n=78 v=67
19722 On ch=1 n=78 v=0
19723 On ch=1 n=83 v=0
19726 On ch=1 n=71 v=0
19727 On ch=1 n=80 v=85
19728 On ch=1 n=83 v=94
19734 On ch=1 n=80 v=0
19737 On ch=1 n=83 v=0
19739 On ch=1 n=80 v=83
19740 On ch=1 n=83 v=85
19747 On ch=1 n=83 v=0
19747 On ch=1 n=80 v=0
19751 On ch=1 n=82 v=92
19758 On ch=1 n=82 v=0
19763 On ch=1 n=76 v=79
19763 On ch=1 n=82 v=80
19770 On ch=1 n=76 v=0
19771 On ch=1 n=82 v=0
19775 On ch=1 n=75 v=90
19776 On ch=1 n=80 v=90
19782 On ch=1 n=80 v=0
19784 On ch=1 n=75 v=0
19787 On ch=1 n=75 v=78
19788 On ch=1 n=80 v=79
19793 On ch=1 n=75 v=0
19795 On ch=1 n=80 v=0
19800 On ch=1 n=73 v=95
19800 On ch=1 n=78 v=94
19806 On ch=1 n=78 v=0
19809 On ch=1 n=73 v=0
19812 On ch=1 n=73 v=77
19812 On ch=1 n=78 v=77
19818 On ch=1 n=73 v=0
19820 On ch=1 n=78 v=0
19823 On ch=1 n=76 v=82
19824 On ch=1 n=71 v=85
19830 On ch=1 n=76 v=0
19832 On ch=1 n=71 v=0
19836 On ch=1 n=71 v=72
19836 On ch=1 n=76 v=73
19843 On ch=1 n=76 v=0
19844 On ch=1 n=71 v=0
19847 On ch=1 n=75 v=82
19847 On ch=1 n=70 v=82
19856 On ch=1 n=70 v=0
19856 On ch=1 n=75 v=0
19859 On ch=1 n=75 v=76
19860 On ch=1 n=70 v=72
19866 On ch=1 n=70 v=0
19868 On ch=1 n=75 v=0
19872 On ch=1 n=73 v=86
19872 On ch=1 n=68 v=85
19880 On ch=1 n=73 v=0
19881 On ch=1 n=68 v=0
19883 On ch=1 n=68 v=75
19883 On ch=1 n=73 v=75
19891 On ch=1 n=73 v=0
19892 On ch=1 n=68 v=0
19895 On ch=1 n=66 v=85
19896 On ch=1 n=71 v=84
19901 On ch=1 n=66 v=0
19903 On ch=1 n=71 v=0
19907 On ch=1 n=66 v=72
19907 On ch=1 n=71 v=77
19915 On ch=1 n=71 v=0
19916 On ch=1 n=66 v=0
19919 On ch=1 n=64 v=85
19920 On ch=1 n=70 v=86
19926 On ch=1 n=70 v=0
19928 On ch=1 n=64 v=0
19931 On ch=1 n=70 v=72
19932 On ch=1 n=64 v=77
19937 On ch=1 n=70 v=0
19940 On ch=1 n=64 v=0
19943 On ch=1 n=68 v=87
19944 On ch=1 n=63 v=92
19950 On ch=1 n=68 v=0
19952 On ch=1 n=63 v=0
19955 On ch=1 n=63 v=85
19956 On ch=1 n=68 v=85
19961 On ch=1 n=63 v=0
19964 On ch=1 n=68 v=0
19968 On ch=1 n=61 v=90
19968 On ch=1 n=66 v=89
19976 On ch=1 n=66 v=0
19976 On ch=1 n=61 v=0
19979 On ch=1 n=61 v=80
19980 On ch=1 n=66 v=77
19987 On ch=1 n=61 v=0
19988 On ch=1 n=66 v=0
19991 On ch=1 n=64 v=88
19991 On ch=1 n=59 v=91
19998 On ch=1 n=59 v=0
20000 On ch=1 n=64 v=0
20003 On ch=1 n=59 v=75
20003 On ch=1 n=64 v=78
20012 On ch=1 n=64 v=0
20012 On ch=1 n=59 v=0
20015 On ch=1 n=58 v=82
20015 On ch=1 n=63 v=83
20021 On ch=1 n=63 v=0
20021 On ch=1 n=58 v=0
20027 On ch=1 n=58 v=73
20028 On ch=1 n=63 v=72
20035 On ch=1 n=63 v=0
20036 On ch=1 n=58 v=0
20039 On ch=1 n=56 v=83
20039 On ch=1 n=61 v=85
20045 On ch=1 n=56 v=0
20048 On ch=1 n=61 v=0
20051 On ch=1 n=52 v=91
20051 On ch=1 n=56 v=77
20052 On ch=1 n=61 v=76
20057 On ch=1 n=56 v=0
20058 On ch=1 n=61 v=0
20059 On ch=1 n=52 v=0
20064 On ch=1 n=59 v=86
20064 On ch=1 n=54 v=101
20070 On ch=1 n=59 v=0
20073 On ch=1 n=54 v=0
20076 On ch=1 n=59 v=72
20076 On ch=1 n=54 v=92
20082 On ch=1 n=59 v=0
20084 On ch=1 n=54 v=0
20087 PrCh ch=1 p=44
20087 On ch=1 n=59 v=100
20096 On ch=1 n=59 v=0
20100 On ch=1 n=59 v=76
20107 On ch=1 n=59 v=0
20112 On ch=1 n=58 v=101
20121 On ch=1 n=58 v=0
20123 On ch=1 n=58 v=89
20130 On ch=1 n=58 v=0
20136 On ch=1 n=57 v=100
20142 On ch=1 n=57 v=0
20147 On ch=1 n=57 v=91
20153 On ch=1 n=57 v=0
20159 On ch=1 n=56 v=98
20168 On ch=1 n=56 v=0
20172 On ch=1 n=56 v=98
20181 On ch=1 n=56 v=0
20184 On ch=1 n=54 v=107
20191 On ch=1 n=54 v=0
20196 On ch=1 n=54 v=97
20203 On ch=1 n=54 v=0
20327 On ch=1 n=59 v=97
20334 On ch=1 n=59 v=0
20339 On ch=1 n=59 v=91
20348 On ch=1 n=59 v=0
20352 On ch=1 n=58 v=100
20359 On ch=1 n=58 v=0
20363 On ch=1 n=58 v=88
20370 On ch=1 n=58 v=0
20375 On ch=1 n=57 v=100
20382 On ch=1 n=57 v=0
20387 On ch=1 n=57 v=99
20396 On ch=1 n=57 v=0
20399 On ch=1 n=56 v=107
20408 On ch=1 n=56 v=0
20411 On ch=1 n=56 v=92
20419 On ch=1 n=56 v=0
20423 On ch=1 n=54 v=103
20432 On ch=1 n=54 v=0
20436 On ch=1 n=54 v=92
20442 On ch=1 n=54 v=0
20556 On ch=1 n=56 v=102
20565 On ch=1 n=56 v=0
20567 On ch=1 n=56 v=89
20575 On ch=1 n=56 v=0
20579 On ch=1 n=56 v=82
20586 On ch=1 n=56 v=0
20627 On ch=1 n=56 v=106
20634 On ch=1 n=56 v=0
20640 On ch=1 n=56 v=94
20646 On ch=1 n=56 v=0
20652 On ch=1 n=56 v=79
20659 On ch=1 n=56 v=0
20699 On ch=1 n=56 v=97
20708 On ch=1 n=56 v=0
20711 On ch=1 n=56 v=92
20720 On ch=1 n=56 v=0
20724 On ch=1 n=56 v=81
20730 On ch=1 n=56 v=0
20735 PrCh ch=1 p=48
20735 On ch=1 n=54 v=80
20743 On ch=1 n=54 v=0
20748 On ch=1 n=56 v=79
20758 On ch=1 n=56 v=0
20760 On ch=1 n=57 v=82
20770 On ch=1 n=57 v=0
20772 On ch=1 n=58 v=80
20781 On ch=1 n=58 v=0
20784 On ch=1 n=59 v=82
20793 On ch=1 n=59 v=0
20795 On ch=1 n=61 v=79
20804 On ch=1 n=61 v=0
20808 On ch=1 n=63 v=88
20818 On ch=1 n=63 v=0
20820 On ch=1 n=64 v=90
20827 On ch=1 n=64 v=0
20831 On ch=1 n=66 v=88
20840 On ch=1 n=66 v=0
20844 On ch=1 n=68 v=87
20851 On ch=1 n=68 v=0
20856 On ch=1 n=70 v=86
20867 On ch=1 n=70 v=0
20868 On ch=1 n=71 v=79
20876 On ch=1 n=71 v=0
20880 On ch=1 n=73 v=92
20889 On ch=1 n=73 v=0
20892 On ch=1 n=75 v=82
20900 On ch=1 n=75 v=0
20904 On ch=1 n=76 v=77
20914 On ch=1 n=76 v=0
20915 On ch=1 n=78 v=77
20922 On ch=1 n=78 v=0
20928 On ch=1 n=80 v=77
20937 On ch=1 n=80 v=0
20940 On ch=1 n=82 v=79
20948 On ch=1 n=82 v=0
20951 On ch=1 n=83 v=110
20974 On ch=1 n=83 v=0
20974 Meta TrkEnd
TrkEnd
MTrk
0 Meta 0x21 00
0 Meta TrkName "Strings II"
0 PrCh ch=2 p=49
0 Par ch=2 c=7 v=110
0 Par ch=2 c=10 v=64
0 Par ch=2 c=11 v=127
0 Par ch=2 c=91 v=70
1 Par ch=2 c=93 v=30
192 On ch=2 n=47 v=81
192 On ch=2 n=59 v=100
195 On ch=2 n=59 v=0
195 On ch=2 n=47 v=0
198 On ch=2 n=61 v=79
199 On ch=2 n=61 v=0
203 On ch=2 n=62 v=87
204 On ch=2 n=62 v=0
210 On ch=2 n=64 v=100
211 On ch=2 n=64 v=0
216 On ch=2 n=66 v=90
232 On ch=2 n=66 v=0
840 On ch=2 n=59 v=68
844 On ch=2 n=59 v=0
845 On ch=2 n=61 v=78
847 On ch=2 n=61 v=0
852 On ch=2 n=62 v=87
855 On ch=2 n=62 v=0
858 On ch=2 n=64 v=92
861 On ch=2 n=64 v=0
864 On ch=2 n=66 v=88
879 On ch=2 n=66 v=0
1055 On ch=2 n=59 v=72
1056 On ch=2 n=59 v=0
1061 On ch=2 n=61 v=79
1064 On ch=2 n=61 v=0
1068 On ch=2 n=62 v=91
1071 On ch=2 n=62 v=0
1074 On ch=2 n=64 v=87
1075 On ch=2 n=64 v=0
1080 On ch=2 n=66 v=89
1100 On ch=2 n=66 v=0
1271 On ch=2 n=59 v=71
1272 On ch=2 n=59 v=0
1278 On ch=2 n=61 v=81
1280 On ch=2 n=61 v=0
1284 On ch=2 n=62 v=87
1285 On ch=2 n=62 v=0
1290 On ch=2 n=64 v=92
1293 On ch=2 n=64 v=0
1295 On ch=2 n=66 v=92
1313 On ch=2 n=66 v=0
1488 On ch=2 n=59 v=70
1489 On ch=2 n=59 v=0
1494 On ch=2 n=61 v=82
1498 On ch=2 n=61 v=0
1500 On ch=2 n=62 v=87
1503 On ch=2 n=62 v=0
1506 On ch=2 n=64 v=88
1508 On ch=2 n=64 v=0
1511 On ch=2 n=66 v=91
1528 On ch=2 n=66 v=0
1703 On ch=2 n=59 v=72
1704 On ch=2 n=59 v=0
1709 On ch=2 n=61 v=80
1710 On ch=2 n=61 v=0
1716 On ch=2 n=62 v=90
1720 On ch=2 n=62 v=0
1722 On ch=2 n=64 v=97
1726 On ch=2 n=64 v=0
1727 On ch=2 n=66 v=97
1743 On ch=2 n=66 v=0
1920 On ch=2 n=66 v=87
1923 On ch=2 n=66 v=0
1926 On ch=2 n=64 v=93
1930 On ch=2 n=64 v=0
1932 On ch=2 n=62 v=104
1935 On ch=2 n=62 v=0
1938 On ch=2 n=61 v=112
1943 On ch=2 n=61 v=0
1943 On ch=2 n=59 v=100
1965 On ch=2 n=59 v=0
2053 On ch=2 n=66 v=60
2060 On ch=2 n=66 v=0
2063 On ch=2 n=62 v=55
2083 On ch=2 n=62 v=0
2113 On ch=2 n=66 v=91
2119 On ch=2 n=66 v=0
2122 On ch=2 n=62 v=81
2128 On ch=2 n=62 v=0
2130 On ch=2 n=59 v=101
2135 On ch=2 n=66 v=97
2138 On ch=2 n=66 v=0
2142 On ch=2 n=64 v=87
2143 On ch=2 n=64 v=0
2147 On ch=2 n=62 v=82
2149 On ch=2 n=62 v=0
2149 On ch=2 n=59 v=0
2154 On ch=2 n=61 v=77
2156 On ch=2 n=61 v=0
2159 On ch=2 n=59 v=77
2178 On ch=2 n=59 v=0
2270 On ch=2 n=66 v=58
2277 On ch=2 n=66 v=0
2279 On ch=2 n=62 v=56
2299 On ch=2 n=62 v=0
2329 On ch=2 n=66 v=87
2335 On ch=2 n=66 v=0
2338 On ch=2 n=62 v=82
2343 On ch=2 n=62 v=0
2345 On ch=2 n=59 v=102
2352 On ch=2 n=66 v=96
2356 On ch=2 n=66 v=0
2358 On ch=2 n=64 v=87
2359 On ch=2 n=64 v=0
2363 On ch=2 n=62 v=83
2364 On ch=2 n=59 v=0
2366 On ch=2 n=62 v=0
2369 On ch=2 n=61 v=80
2373 On ch=2 n=61 v=0
2376 On ch=2 n=59 v=77
2395 On ch=2 n=59 v=0
2486 On ch=2 n=66 v=62
2493 On ch=2 n=66 v=0
2496 On ch=2 n=62 v=52
2516 On ch=2 n=62 v=0
2545 On ch=2 n=66 v=91
2552 On ch=2 n=66 v=0
2554 On ch=2 n=62 v=79
2562 On ch=2 n=62 v=0
2562 On ch=2 n=59 v=97
2568 On ch=2 n=66 v=92
2571 On ch=2 n=66 v=0
2573 On ch=2 n=64 v=87
2575 On ch=2 n=64 v=0
2580 On ch=2 n=62 v=85
2583 On ch=2 n=59 v=0
2584 On ch=2 n=62 v=0
2585 On ch=2 n=61 v=80
2586 On ch=2 n=61 v=0
2591 On ch=2 n=59 v=78
2612 On ch=2 n=59 v=0
2701 On ch=2 n=66 v=62
2709 On ch=2 n=66 v=0
2712 On ch=2 n=62 v=56
2733 On ch=2 n=62 v=0
2762 On ch=2 n=66 v=90
2768 On ch=2 n=66 v=0
2770 On ch=2 n=62 v=79
2777 On ch=2 n=62 v=0
2777 On ch=2 n=59 v=98
2783 On ch=2 n=66 v=94
2784 On ch=2 n=66 v=0
2789 On ch=2 n=64 v=90
2793 On ch=2 n=64 v=0
2796 On ch=2 n=59 v=0
2796 On ch=2 n=62 v=83
2799 On ch=2 n=62 v=0
2801 On ch=2 n=61 v=79
2804 On ch=2 n=61 v=0
2807 On ch=2 n=59 v=77
2827 On ch=2 n=59 v=0
2918 On ch=2 n=66 v=61
2926 On ch=2 n=66 v=0
2927 On ch=2 n=62 v=54
2949 On ch=2 n=62 v=0
2978 On ch=2 n=66 v=92
2985 On ch=2 n=62 v=77
2986 On ch=2 n=66 v=0
2991 On ch=2 n=62 v=0
2993 On ch=2 n=59 v=100
3000 On ch=2 n=66 v=92
3003 On ch=2 n=66 v=0
3006 On ch=2 n=64 v=90
3009 On ch=2 n=64 v=0
3011 On ch=2 n=62 v=82
3014 On ch=2 n=62 v=0
3015 On ch=2 n=59 v=0
3017 On ch=2 n=61 v=77
3019 On ch=2 n=61 v=0
3024 On ch=2 n=59 v=79
3044 On ch=2 n=59 v=0
3134 On ch=2 n=66 v=62
3139 On ch=2 n=66 v=0
3144 On ch=2 n=62 v=55
3166 On ch=2 n=62 v=0
3193 On ch=2 n=66 v=89
3198 On ch=2 n=66 v=0
3202 On ch=2 n=62 v=78
3210 On ch=2 n=62 v=0
3210 On ch=2 n=59 v=102
3216 On ch=2 n=62 v=93
3221 On ch=2 n=62 v=0
3224 On ch=2 n=61 v=90
3227 On ch=2 n=61 v=0
3229 On ch=2 n=59 v=0
3239 On ch=2 n=57 v=79
3258 On ch=2 n=57 v=0
3360 On ch=2 n=66 v=53
3382 On ch=2 n=66 v=0
3416 On ch=2 n=64 v=81
3423 On ch=2 n=61 v=79
3424 On ch=2 n=64 v=0
3429 On ch=2 n=61 v=0
3431 On ch=2 n=57 v=101
3437 On ch=2 n=67 v=91
3440 On ch=2 n=67 v=0
3444 On ch=2 n=66 v=83
3448 On ch=2 n=66 v=0
3450 On ch=2 n=64 v=79
3454 On ch=2 n=64 v=0
3454 On ch=2 n=57 v=0
3456 On ch=2 n=62 v=79
3476 On ch=2 n=62 v=0
3504 On ch=2 n=62 v=88
3508 On ch=2 n=62 v=0
3510 On ch=2 n=64 v=96
3514 On ch=2 n=64 v=0
3515 On ch=2 n=66 v=93
3516 On ch=2 n=66 v=0
3522 On ch=2 n=67 v=99
3526 On ch=2 n=67 v=0
3527 On ch=2 n=69 v=104
3542 On ch=2 n=69 v=0
3566 On ch=2 n=69 v=58
3572 On ch=2 n=69 v=0
3576 On ch=2 n=66 v=57
3595 On ch=2 n=66 v=0
3629 On ch=2 n=69 v=89
3634 On ch=2 n=69 v=0
3638 On ch=2 n=66 v=78
3645 On ch=2 n=66 v=0
3647 On ch=2 n=62 v=101
3647 On ch=2 n=69 v=95
3648 On ch=2 n=69 v=0
3654 On ch=2 n=67 v=88
3658 On ch=2 n=67 v=0
3659 On ch=2 n=66 v=84
3660 On ch=2 n=66 v=0
3666 On ch=2 n=64 v=78
3667 On ch=2 n=64 v=0
3667 On ch=2 n=62 v=0
3671 On ch=2 n=62 v=78
3693 On ch=2 n=62 v=0
3719 On ch=2 n=62 v=87
3720 On ch=2 n=62 v=0
3726 On ch=2 n=64 v=95
3728 On ch=2 n=64 v=0
3731 On ch=2 n=66 v=96
3735 On ch=2 n=66 v=0
3737 On ch=2 n=67 v=97
3742 On ch=2 n=67 v=0
3743 On ch=2 n=69 v=104
3760 On ch=2 n=69 v=0
3782 On ch=2 n=69 v=59
3788 On ch=2 n=69 v=0
3791 On ch=2 n=66 v=54
3810 On ch=2 n=66 v=0
3845 On ch=2 n=69 v=91
3851 On ch=2 n=69 v=0
3853 On ch=2 n=66 v=79
3860 On ch=2 n=66 v=0
3863 On ch=2 n=69 v=94
3863 On ch=2 n=62 v=97
3865 On ch=2 n=69 v=0
3870 On ch=2 n=67 v=91
3875 On ch=2 n=67 v=0
3875 On ch=2 n=66 v=84
3877 On ch=2 n=66 v=0
3881 On ch=2 n=62 v=0
3881 On ch=2 n=64 v=78
3886 On ch=2 n=64 v=0
3887 On ch=2 n=62 v=77
3908 On ch=2 n=62 v=0
3936 On ch=2 n=62 v=88
3940 On ch=2 n=62 v=0
3941 On ch=2 n=64 v=96
3944 On ch=2 n=64 v=0
3947 On ch=2 n=66 v=94
3949 On ch=2 n=66 v=0
3954 On ch=2 n=67 v=99
3958 On ch=2 n=67 v=0
3959 On ch=2 n=69 v=104
3975 On ch=2 n=69 v=0
3997 On ch=2 n=69 v=57
4006 On ch=2 n=69 v=0
4007 On ch=2 n=66 v=53
4028 On ch=2 n=66 v=0
4061 On ch=2 n=69 v=89
4069 On ch=2 n=69 v=0
4069 On ch=2 n=66 v=82
4076 On ch=2 n=66 v=0
4079 On ch=2 n=62 v=97
4080 On ch=2 n=69 v=97
4084 On ch=2 n=69 v=0
4086 On ch=2 n=67 v=91
4088 On ch=2 n=67 v=0
4091 On ch=2 n=66 v=84
4094 On ch=2 n=66 v=0
4097 On ch=2 n=64 v=82
4098 On ch=2 n=64 v=0
4098 On ch=2 n=62 v=0
4104 On ch=2 n=62 v=82
4123 On ch=2 n=62 v=0
4151 On ch=2 n=62 v=88
4154 On ch=2 n=62 v=0
4158 On ch=2 n=64 v=97
4160 On ch=2 n=64 v=0
4163 On ch=2 n=66 v=97
4165 On ch=2 n=66 v=0
4170 On ch=2 n=67 v=99
4172 On ch=2 n=67 v=0
4176 On ch=2 n=69 v=105
4193 On ch=2 n=69 v=0
4214 On ch=2 n=69 v=62
4219 On ch=2 n=69 v=0
4224 On ch=2 n=66 v=53
4243 On ch=2 n=66 v=0
4277 On ch=2 n=69 v=92
4285 On ch=2 n=69 v=0
4285 On ch=2 n=66 v=82
4292 On ch=2 n=66 v=0
4296 On ch=2 n=62 v=100
4296 On ch=2 n=69 v=93
4299 On ch=2 n=69 v=0
4302 On ch=2 n=67 v=89
4306 On ch=2 n=67 v=0
4308 On ch=2 n=66 v=84
4310 On ch=2 n=66 v=0
4313 On ch=2 n=64 v=79
4314 On ch=2 n=62 v=0
4315 On ch=2 n=64 v=0
4319 On ch=2 n=62 v=79
4339 On ch=2 n=62 v=0
4368 On ch=2 n=62 v=88
4370 On ch=2 n=62 v=0
4374 On ch=2 n=64 v=95
4378 On ch=2 n=64 v=0
4380 On ch=2 n=66 v=97
4383 On ch=2 n=66 v=0
4386 On ch=2 n=67 v=97
4390 On ch=2 n=67 v=0
4391 On ch=2 n=69 v=105
4409 On ch=2 n=69 v=0
4430 On ch=2 n=69 v=62
4438 On ch=2 n=69 v=0
4440 On ch=2 n=66 v=52
4459 On ch=2 n=66 v=0
4493 On ch=2 n=69 v=90
4499 On ch=2 n=69 v=0
4501 On ch=2 n=66 v=79
4506 On ch=2 n=66 v=0
4511 On ch=2 n=69 v=92
4511 On ch=2 n=62 v=97
4513 On ch=2 n=69 v=0
4518 On ch=2 n=67 v=91
4521 On ch=2 n=67 v=0
4524 On ch=2 n=66 v=87
4527 On ch=2 n=66 v=0
4529 On ch=2 n=64 v=82
4532 On ch=2 n=64 v=0
4533 On ch=2 n=62 v=0
4535 On ch=2 n=62 v=78
4555 On ch=2 n=62 v=0
4584 On ch=2 n=62 v=87
4588 On ch=2 n=62 v=0
4589 On ch=2 n=64 v=95
4591 On ch=2 n=64 v=0
4596 On ch=2 n=66 v=96
4598 On ch=2 n=66 v=0
4601 On ch=2 n=67 v=99
4604 On ch=2 n=67 v=0
4607 On ch=2 n=69 v=107
4622 On ch=2 n=69 v=0
4645 On ch=2 n=69 v=58
4653 On ch=2 n=69 v=0
4656 On ch=2 n=66 v=57
4676 On ch=2 n=66 v=0
4709 On ch=2 n=69 v=90
4716 On ch=2 n=69 v=0
4718 On ch=2 n=66 v=82
4723 On ch=2 n=66 v=0
4727 On ch=2 n=66 v=96
4728 On ch=2 n=62 v=99
4731 On ch=2 n=66 v=0
4736 On ch=2 n=64 v=89
4740 On ch=2 n=64 v=0
4749 On ch=2 n=62 v=0
4752 On ch=2 n=61 v=81
4773 On ch=2 n=61 v=0
4799 On ch=2 n=69 v=55
4821 On ch=2 n=69 v=0
4861 On ch=2 n=69 v=61
4869 On ch=2 n=69 v=0
4872 On ch=2 n=66 v=52
4892 On ch=2 n=66 v=0
4925 On ch=2 n=68 v=89
4931 On ch=2 n=68 v=0
4934 On ch=2 n=65 v=78
4941 On ch=2 n=65 v=0
4943 On ch=2 n=61 v=102
4952 On ch=2 n=63 v=90
4955 On ch=2 n=63 v=0
4959 On ch=2 n=65 v=86
4963 On ch=2 n=65 v=0
4963 On ch=2 n=61 v=0
4968 On ch=2 n=66 v=78
4988 On ch=2 n=66 v=0
5015 On ch=2 n=70 v=54
5015 On ch=2 n=61 v=87
5019 On ch=2 n=61 v=0
5023 On ch=2 n=63 v=97
5028 On ch=2 n=63 v=0
5032 On ch=2 n=65 v=102
5036 On ch=2 n=65 v=0
5036 On ch=2 n=70 v=0
5040 On ch=2 n=66 v=103
5055 On ch=2 n=66 v=0
5078 On ch=2 n=70 v=59
5086 On ch=2 n=70 v=0
5087 On ch=2 n=66 v=52
5108 On ch=2 n=66 v=0
5131 On ch=2 n=70 v=96
5139 On ch=2 n=70 v=0
5141 On ch=2 n=66 v=88
5148 On ch=2 n=66 v=0
5149 On ch=2 n=61 v=78
5155 On ch=2 n=61 v=0
5159 On ch=2 n=61 v=96
5160 On ch=2 n=58 v=99
5162 On ch=2 n=61 v=0
5168 On ch=2 n=63 v=89
5174 On ch=2 n=63 v=0
5176 On ch=2 n=65 v=84
5181 On ch=2 n=65 v=0
5182 On ch=2 n=58 v=0
5184 On ch=2 n=66 v=78
5203 On ch=2 n=66 v=0
5231 On ch=2 n=70 v=57
5232 On ch=2 n=61 v=87
5235 On ch=2 n=61 v=0
5239 On ch=2 n=63 v=93
5245 On ch=2 n=63 v=0
5248 On ch=2 n=65 v=100
5250 On ch=2 n=70 v=0
5253 On ch=2 n=65 v=0
5256 On ch=2 n=66 v=102
5271 On ch=2 n=66 v=0
5293 On ch=2 n=70 v=57
5301 On ch=2 n=70 v=0
5304 On ch=2 n=66 v=55
5326 On ch=2 n=66 v=0
5347 On ch=2 n=70 v=93
5355 On ch=2 n=70 v=0
5356 On ch=2 n=66 v=91
5363 On ch=2 n=66 v=0
5366 On ch=2 n=61 v=78
5372 On ch=2 n=61 v=0
5375 On ch=2 n=58 v=102
5375 On ch=2 n=61 v=95
5378 On ch=2 n=61 v=0
5383 On ch=2 n=63 v=90
5389 On ch=2 n=63 v=0
5392 On ch=2 n=65 v=87
5395 On ch=2 n=58 v=0
5398 On ch=2 n=65 v=0
5399 On ch=2 n=66 v=81
5421 On ch=2 n=66 v=0
5448 On ch=2 n=70 v=52
5448 On ch=2 n=61 v=92
5451 On ch=2 n=61 v=0
5456 On ch=2 n=63 v=96
5461 On ch=2 n=63 v=0
5464 On ch=2 n=65 v=101
5470 On ch=2 n=70 v=0
5471 On ch=2 n=65 v=0
5472 On ch=2 n=66 v=104
5487 On ch=2 n=66 v=0
5509 On ch=2 n=70 v=59
5516 On ch=2 n=70 v=0
5519 On ch=2 n=66 v=57
5540 On ch=2 n=66 v=0
5564 On ch=2 n=70 v=92
5571 On ch=2 n=70 v=0
5573 On ch=2 n=66 v=87
5579 On ch=2 n=66 v=0
5582 On ch=2 n=61 v=81
5585 On ch=2 n=61 v=0
5592 On ch=2 n=58 v=99
5592 On ch=2 n=61 v=92
5595 On ch=2 n=61 v=0
5599 On ch=2 n=63 v=90
5604 On ch=2 n=63 v=0
5608 On ch=2 n=65 v=84
5611 On ch=2 n=65 v=0
5613 On ch=2 n=58 v=0
5615 On ch=2 n=66 v=79
5636 On ch=2 n=66 v=0
5663 On ch=2 n=70 v=56
5663 On ch=2 n=61 v=88
5668 On ch=2 n=61 v=0
5671 On ch=2 n=63 v=97
5677 On ch=2 n=63 v=0
5680 On ch=2 n=65 v=98
5682 On ch=2 n=70 v=0
5685 On ch=2 n=65 v=0
5687 On ch=2 n=66 v=105
5705 On ch=2 n=66 v=0
5726 On ch=2 n=70 v=57
5731 On ch=2 n=70 v=0
5736 On ch=2 n=66 v=55
5757 On ch=2 n=66 v=0
5779 On ch=2 n=70 v=96
5785 On ch=2 n=70 v=0
5789 On ch=2 n=66 v=90
5795 On ch=2 n=66 v=0
5797 On ch=2 n=61 v=79
5803 On ch=2 n=61 v=0
5807 On ch=2 n=66 v=92
5808 On ch=2 n=58 v=97
5809 On ch=2 n=66 v=0
5814 On ch=2 n=64 v=90
5816 On ch=2 n=64 v=0
5819 On ch=2 n=62 v=82
5822 On ch=2 n=62 v=0
5826 On ch=2 n=61 v=84
5829 On ch=2 n=61 v=0
5831 On ch=2 n=58 v=0
5831 On ch=2 n=59 v=80
5851 On ch=2 n=59 v=0
5869 On ch=2 n=71 v=40
5875 On ch=2 n=71 v=0
5879 On ch=2 n=67 v=57
5901 On ch=2 n=67 v=0
5904 On ch=2 n=71 v=105
5920 On ch=2 n=71 v=0
5933 On ch=2 n=71 v=65
5939 On ch=2 n=71 v=0
5941 On ch=2 n=66 v=60
5946 On ch=2 n=66 v=0
5951 On ch=2 n=71 v=57
5952 On ch=2 n=71 v=0
5952 On ch=2 n=62 v=52
5973 On ch=2 n=62 v=0
5995 On ch=2 n=71 v=94
6001 On ch=2 n=71 v=0
6004 On ch=2 n=66 v=88
6011 On ch=2 n=66 v=0
6014 On ch=2 n=62 v=82
6023 On ch=2 n=62 v=0
6023 On ch=2 n=59 v=102
6023 On ch=2 n=66 v=94
6024 On ch=2 n=66 v=0
6029 On ch=2 n=64 v=89
6032 On ch=2 n=64 v=0
6035 On ch=2 n=62 v=86
6037 On ch=2 n=62 v=0
6042 On ch=2 n=61 v=77
6043 On ch=2 n=59 v=0
6047 On ch=2 n=61 v=0
6047 On ch=2 n=59 v=77
6068 On ch=2 n=59 v=0
6095 On ch=2 n=67 v=53
6117 On ch=2 n=67 v=0
6148 On ch=2 n=71 v=62
6152 On ch=2 n=71 v=0
6158 On ch=2 n=66 v=62
6166 On ch=2 n=66 v=0
6167 On ch=2 n=71 v=58
6168 On ch=2 n=71 v=0
6168 On ch=2 n=62 v=57
6174 On ch=2 n=73 v=65
6175 On ch=2 n=73 v=0
6188 On ch=2 n=62 v=0
6221 On ch=2 n=66 v=90
6227 On ch=2 n=66 v=0
6230 On ch=2 n=62 v=82
6238 On ch=2 n=62 v=0
6240 On ch=2 n=66 v=93
6240 On ch=2 n=59 v=101
6244 On ch=2 n=66 v=0
6245 On ch=2 n=64 v=87
6249 On ch=2 n=64 v=0
6251 On ch=2 n=62 v=87
6255 On ch=2 n=62 v=0
6257 On ch=2 n=61 v=79
6259 On ch=2 n=61 v=0
6261 On ch=2 n=59 v=0
6264 On ch=2 n=59 v=78
6283 On ch=2 n=59 v=0
6311 On ch=2 n=67 v=55
6311 On ch=2 n=59 v=87
6317 On ch=2 n=59 v=0
6320 On ch=2 n=61 v=94
6320 On ch=2 n=73 v=94
6323 On ch=2 n=61 v=0
6325 On ch=2 n=73 v=0
6327 On ch=2 n=63 v=99
6333 On ch=2 n=63 v=0
6333 On ch=2 n=67 v=0
6335 On ch=2 n=64 v=103
6353 On ch=2 n=64 v=0
6374 On ch=2 n=67 v=58
6380 On ch=2 n=67 v=0
6383 On ch=2 n=72 v=57
6384 On ch=2 n=64 v=57
6386 On ch=2 n=72 v=0
6405 On ch=2 n=64 v=0
6455 On ch=2 n=66 v=93
6458 On ch=2 n=66 v=0
6461 On ch=2 n=64 v=88
6464 On ch=2 n=64 v=0
6468 On ch=2 n=62 v=85
6472 On ch=2 n=62 v=0
6473 On ch=2 n=60 v=82
6475 On ch=2 n=60 v=0
6527 On ch=2 n=59 v=88
6530 On ch=2 n=59 v=0
6534 On ch=2 n=61 v=95
6535 On ch=2 n=61 v=0
6540 On ch=2 n=62 v=95
6543 On ch=2 n=62 v=0
6546 On ch=2 n=64 v=101
6550 On ch=2 n=64 v=0
6552 On ch=2 n=66 v=106
6567 On ch=2 n=66 v=0
6590 On ch=2 n=66 v=60
6595 On ch=2 n=66 v=0
6599 On ch=2 n=62 v=56
6621 On ch=2 n=62 v=0
6653 On ch=2 n=66 v=89
6660 On ch=2 n=66 v=0
6662 On ch=2 n=62 v=82
6668 On ch=2 n=62 v=0
6672 On ch=2 n=66 v=97
6672 On ch=2 n=59 v=97
6676 On ch=2 n=66 v=0
6677 On ch=2 n=64 v=89
6678 On ch=2 n=64 v=0
6683 On ch=2 n=62 v=86
6685 On ch=2 n=62 v=0
6690 On ch=2 n=61 v=77
6691 On ch=2 n=61 v=0
6692 On ch=2 n=59 v=0
6696 On ch=2 n=59 v=80
6717 On ch=2 n=59 v=0
6744 On ch=2 n=59 v=89
6746 On ch=2 n=59 v=0
6750 On ch=2 n=61 v=92
6752 On ch=2 n=61 v=0
6756 On ch=2 n=62 v=93
6758 On ch=2 n=62 v=0
6761 On ch=2 n=64 v=102
6763 On ch=2 n=64 v=0
6768 On ch=2 n=66 v=104
6786 On ch=2 n=66 v=0
6806 On ch=2 n=66 v=58
6812 On ch=2 n=66 v=0
6815 On ch=2 n=62 v=54
6835 On ch=2 n=62 v=0
6868 On ch=2 n=66 v=87
6875 On ch=2 n=66 v=0
6877 On ch=2 n=62 v=78
6886 On ch=2 n=62 v=0
6887 On ch=2 n=59 v=102
6888 On ch=2 n=66 v=93
6889 On ch=2 n=66 v=0
6894 On ch=2 n=64 v=91
6897 On ch=2 n=64 v=0
6900 On ch=2 n=62 v=86
6901 On ch=2 n=62 v=0
6906 On ch=2 n=61 v=79
6909 On ch=2 n=61 v=0
6909 On ch=2 n=59 v=0
6912 On ch=2 n=59 v=82
6933 On ch=2 n=59 v=0
7021 On ch=2 n=66 v=57
7027 On ch=2 n=66 v=0
7032 On ch=2 n=62 v=52
7055 On ch=2 n=62 v=0
7084 On ch=2 n=66 v=87
7091 On ch=2 n=66 v=0
7094 On ch=2 n=62 v=80
7101 On ch=2 n=62 v=0
7103 On ch=2 n=66 v=95
7104 On ch=2 n=66 v=0
7104 On ch=2 n=59 v=97
7110 On ch=2 n=64 v=91
7111 On ch=2 n=64 v=0
7115 On ch=2 n=62 v=86
7119 On ch=2 n=62 v=0
7121 On ch=2 n=61 v=81
7124 On ch=2 n=61 v=0
7124 On ch=2 n=59 v=0
7127 On ch=2 n=59 v=82
7149 On ch=2 n=59 v=0
7175 On ch=2 n=67 v=52
7196 On ch=2 n=67 v=0
7237 On ch=2 n=66 v=61
7243 On ch=2 n=66 v=0
7247 On ch=2 n=62 v=52
7269 On ch=2 n=62 v=0
7301 On ch=2 n=66 v=87
7306 On ch=2 n=66 v=0
7310 On ch=2 n=62 v=78
7316 On ch=2 n=62 v=0
7319 On ch=2 n=66 v=95
7320 On ch=2 n=66 v=0
7320 On ch=2 n=59 v=100
7326 On ch=2 n=64 v=89
7329 On ch=2 n=64 v=0
7332 On ch=2 n=62 v=86
7335 On ch=2 n=62 v=0
7337 On ch=2 n=61 v=82
7341 On ch=2 n=61 v=0
7341 On ch=2 n=59 v=0
7343 On ch=2 n=59 v=81
7365 On ch=2 n=59 v=0
7392 On ch=2 n=67 v=55
7392 On ch=2 n=59 v=90
7398 On ch=2 n=59 v=0
7400 On ch=2 n=61 v=93
7403 On ch=2 n=61 v=0
7407 On ch=2 n=63 v=99
7411 On ch=2 n=63 v=0
7413 On ch=2 n=67 v=0
7415 On ch=2 n=64 v=105
7431 On ch=2 n=64 v=0
7453 On ch=2 n=67 v=61
7462 On ch=2 n=67 v=0
7463 On ch=2 n=64 v=56
7484 On ch=2 n=64 v=0
7511 On ch=2 n=66 v=91
7516 On ch=2 n=66 v=0
7520 On ch=2 n=61 v=82
7526 On ch=2 n=61 v=0
7527 On ch=2 n=58 v=99
7531 On ch=2 n=58 v=0
7535 On ch=2 n=54 v=102
7535 On ch=2 n=66 v=92
7539 On ch=2 n=66 v=0
7541 On ch=2 n=64 v=88
7542 On ch=2 n=64 v=0
7548 On ch=2 n=62 v=83
7552 On ch=2 n=62 v=0
7552 On ch=2 n=54 v=0
7553 On ch=2 n=61 v=81
7555 On ch=2 n=61 v=0
7559 On ch=2 n=59 v=79
7578 On ch=2 n=59 v=0
7607 On ch=2 n=59 v=90
7611 On ch=2 n=59 v=0
7613 On ch=2 n=61 v=95
7616 On ch=2 n=61 v=0
7620 On ch=2 n=63 v=99
7625 On ch=2 n=63 v=0
7626 On ch=2 n=64 v=102
7631 On ch=2 n=64 v=0
7632 On ch=2 n=66 v=102
7651 On ch=2 n=66 v=0
7669 On ch=2 n=66 v=60
7676 On ch=2 n=66 v=0
7679 On ch=2 n=63 v=57
7699 On ch=2 n=63 v=0
7732 On ch=2 n=66 v=91
7739 On ch=2 n=66 v=0
7741 On ch=2 n=63 v=80
7749 On ch=2 n=63 v=0
7752 On ch=2 n=66 v=97
7752 On ch=2 n=59 v=101
7755 On ch=2 n=66 v=0
7758 On ch=2 n=64 v=90
7761 On ch=2 n=64 v=0
7763 On ch=2 n=63 v=83
7767 On ch=2 n=63 v=0
7770 On ch=2 n=61 v=82
7772 On ch=2 n=59 v=0
7774 On ch=2 n=61 v=0
7776 On ch=2 n=59 v=79
7798 On ch=2 n=59 v=0
7824 On ch=2 n=59 v=89
7825 On ch=2 n=59 v=0
7829 On ch=2 n=61 v=96
7833 On ch=2 n=61 v=0
7836 On ch=2 n=63 v=99
7840 On ch=2 n=63 v=0
7841 On ch=2 n=64 v=106
7846 On ch=2 n=64 v=0
7847 On ch=2 n=66 v=105
7866 On ch=2 n=66 v=0
7886 On ch=2 n=66 v=60
7893 On ch=2 n=66 v=0
7896 On ch=2 n=63 v=56
7916 On ch=2 n=63 v=0
7948 On ch=2 n=66 v=88
7952 On ch=2 n=66 v=0
7958 On ch=2 n=63 v=77
7963 On ch=2 n=63 v=0
7967 On ch=2 n=66 v=93
7967 On ch=2 n=59 v=102
7968 On ch=2 n=66 v=0
7973 On ch=2 n=64 v=87
7977 On ch=2 n=64 v=0
7980 On ch=2 n=62 v=85
7983 On ch=2 n=62 v=0
7985 On ch=2 n=61 v=80
7987 On ch=2 n=59 v=0
7988 On ch=2 n=61 v=0
7991 On ch=2 n=59 v=79
8013 On ch=2 n=59 v=0
8040 On ch=2 n=59 v=89
8043 On ch=2 n=59 v=0
8045 On ch=2 n=61 v=92
8046 On ch=2 n=61 v=0
8052 On ch=2 n=62 v=97
8053 On ch=2 n=62 v=0
8058 On ch=2 n=64 v=103
8062 On ch=2 n=64 v=0
8064 On ch=2 n=66 v=105
8086 On ch=2 n=66 v=0
8102 On ch=2 n=66 v=60
8110 On ch=2 n=66 v=0
8112 On ch=2 n=62 v=57
8133 On ch=2 n=62 v=0
8165 On ch=2 n=66 v=87
8172 On ch=2 n=66 v=0
8173 On ch=2 n=63 v=77
8180 On ch=2 n=63 v=0
8183 On ch=2 n=66 v=96
8184 On ch=2 n=66 v=0
8184 On ch=2 n=59 v=102
8190 On ch=2 n=64 v=90
8193 On ch=2 n=64 v=0
8195 On ch=2 n=62 v=84
8199 On ch=2 n=62 v=0
8202 On ch=2 n=59 v=0
8202 On ch=2 n=61 v=78
8207 On ch=2 n=61 v=0
8208 On ch=2 n=59 v=81
8228 On ch=2 n=59 v=0
8256 On ch=2 n=59 v=89
8260 On ch=2 n=59 v=0
8261 On ch=2 n=61 v=97
8264 On ch=2 n=61 v=0
8268 On ch=2 n=62 v=99
8270 On ch=2 n=62 v=0
8273 On ch=2 n=64 v=105
8274 On ch=2 n=64 v=0
8280 On ch=2 n=66 v=105
8299 On ch=2 n=66 v=0
8318 On ch=2 n=66 v=61
8326 On ch=2 n=66 v=0
8327 On ch=2 n=62 v=52
8349 On ch=2 n=62 v=0
8381 On ch=2 n=66 v=90
8385 On ch=2 n=66 v=0
8389 On ch=2 n=63 v=80
8394 On ch=2 n=63 v=0
8399 On ch=2 n=62 v=95
8399 On ch=2 n=59 v=97
8405 On ch=2 n=62 v=0
8408 On ch=2 n=61 v=88
8412 On ch=2 n=61 v=0
8419 On ch=2 n=59 v=0
8424 On ch=2 n=57 v=82
8445 On ch=2 n=57 v=0
8471 On ch=2 n=62 v=92
8473 On ch=2 n=62 v=0
8478 On ch=2 n=64 v=94
8481 On ch=2 n=64 v=0
8483 On ch=2 n=66 v=98
8485 On ch=2 n=66 v=0
8490 On ch=2 n=67 v=106
8494 On ch=2 n=67 v=0
8495 On ch=2 n=69 v=106
8515 On ch=2 n=69 v=0
8533 On ch=2 n=69 v=61
8538 On ch=2 n=69 v=0
8544 On ch=2 n=66 v=53
8567 On ch=2 n=66 v=0
8596 On ch=2 n=69 v=87
8602 On ch=2 n=69 v=0
8605 On ch=2 n=64 v=79
8611 On ch=2 n=64 v=0
8615 On ch=2 n=69 v=96
8616 On ch=2 n=61 v=100
8618 On ch=2 n=69 v=0
8621 On ch=2 n=67 v=92
8622 On ch=2 n=67 v=0
8627 On ch=2 n=66 v=86
8631 On ch=2 n=66 v=0
8633 On ch=2 n=64 v=82
8634 On ch=2 n=61 v=0
8636 On ch=2 n=64 v=0
8640 On ch=2 n=62 v=79
8660 On ch=2 n=62 v=0
8687 On ch=2 n=62 v=88
8689 On ch=2 n=62 v=0
8693 On ch=2 n=64 v=97
8698 On ch=2 n=64 v=0
8700 On ch=2 n=66 v=100
8702 On ch=2 n=66 v=0
8706 On ch=2 n=67 v=103
8710 On ch=2 n=67 v=0
8712 On ch=2 n=69 v=106
8734 On ch=2 n=69 v=0
8750 On ch=2 n=69 v=61
8757 On ch=2 n=69 v=0
8760 On ch=2 n=66 v=57
8780 On ch=2 n=66 v=0
8813 On ch=2 n=69 v=88
8819 On ch=2 n=69 v=0
8822 On ch=2 n=66 v=78
8829 On ch=2 n=66 v=0
8831 On ch=2 n=69 v=97
8832 On ch=2 n=62 v=100
8835 On ch=2 n=69 v=0
8838 On ch=2 n=67 v=92
8839 On ch=2 n=67 v=0
8844 On ch=2 n=66 v=84
8847 On ch=2 n=66 v=0
8850 On ch=2 n=64 v=85
8851 On ch=2 n=62 v=0
8852 On ch=2 n=64 v=0
8855 On ch=2 n=62 v=80
8877 On ch=2 n=62 v=0
8904 On ch=2 n=62 v=91
8908 On ch=2 n=62 v=0
8909 On ch=2 n=64 v=93
8910 On ch=2 n=64 v=0
8915 On ch=2 n=66 v=102
8918 On ch=2 n=66 v=0
8921 On ch=2 n=67 v=104
8923 On ch=2 n=67 v=0
8927 On ch=2 n=69 v=103
8947 On ch=2 n=69 v=0
8965 On ch=2 n=69 v=61
8972 On ch=2 n=69 v=0
8975 On ch=2 n=66 v=52
8995 On ch=2 n=66 v=0
9029 On ch=2 n=69 v=89
9033 On ch=2 n=69 v=0
9038 On ch=2 n=66 v=82
9046 On ch=2 n=66 v=0
9047 On ch=2 n=69 v=95
9048 On ch=2 n=62 v=98
9049 On ch=2 n=69 v=0
9054 On ch=2 n=67 v=88
9058 On ch=2 n=67 v=0
9060 On ch=2 n=66 v=83
9063 On ch=2 n=66 v=0
9065 On ch=2 n=62 v=0
9065 On ch=2 n=64 v=84
9069 On ch=2 n=64 v=0
9072 On ch=2 n=62 v=78
9092 On ch=2 n=62 v=0
9120 On ch=2 n=62 v=90
9124 On ch=2 n=62 v=0
9125 On ch=2 n=64 v=92
9126 On ch=2 n=64 v=0
9131 On ch=2 n=66 v=101
9134 On ch=2 n=66 v=0
9137 On ch=2 n=67 v=105
9140 On ch=2 n=67 v=0
9144 On ch=2 n=69 v=106
9165 On ch=2 n=69 v=0
9182 On ch=2 n=69 v=59
9189 On ch=2 n=69 v=0
9191 On ch=2 n=66 v=56
9213 On ch=2 n=66 v=0
9245 On ch=2 n=69 v=87
9249 On ch=2 n=69 v=0
9254 On ch=2 n=66 v=80
9262 On ch=2 n=66 v=0
9264 On ch=2 n=62 v=101
9264 On ch=2 n=66 v=95
9269 On ch=2 n=66 v=0
9272 On ch=2 n=64 v=91
9276 On ch=2 n=64 v=0
9281 On ch=2 n=62 v=0
9287 On ch=2 n=61 v=81
9308 On ch=2 n=61 v=0
9335 On ch=2 n=69 v=54
9356 On ch=2 n=69 v=0
9460 On ch=2 n=68 v=92
9466 On ch=2 n=68 v=0
9470 On ch=2 n=65 v=77
9475 On ch=2 n=65 v=0
9480 On ch=2 n=61 v=97
9488 On ch=2 n=63 v=89
9491 On ch=2 n=63 v=0
9495 On ch=2 n=65 v=87
9497 On ch=2 n=61 v=0
9500 On ch=2 n=65 v=0
9504 On ch=2 n=66 v=79
9525 On ch=2 n=66 v=0
9551 On ch=2 n=61 v=90
9556 On ch=2 n=61 v=0
9559 On ch=2 n=63 v=95
9565 On ch=2 n=63 v=0
9567 On ch=2 n=65 v=101
9572 On ch=2 n=65 v=0
9575 On ch=2 n=66 v=106
9595 On ch=2 n=66 v=0
9623 On ch=2 n=66 v=52
9645 On ch=2 n=66 v=0
9672 On ch=2 n=66 v=90
9675 On ch=2 n=66 v=0
9679 On ch=2 n=61 v=78
9682 On ch=2 n=61 v=0
9688 On ch=2 n=58 v=78
9693 On ch=2 n=58 v=0
9696 On ch=2 n=54 v=101
9696 On ch=2 n=61 v=93
9700 On ch=2 n=61 v=0
9702 On ch=2 n=63 v=91
9706 On ch=2 n=63 v=0
9708 On ch=2 n=65 v=86
9712 On ch=2 n=65 v=0
9714 On ch=2 n=66 v=83
9715 On ch=2 n=54 v=0
9717 On ch=2 n=66 v=0
9719 On ch=2 n=59 v=97
9719 On ch=2 n=63 v=102
9736 On ch=2 n=63 v=0
9739 On ch=2 n=59 v=0
10151 On ch=2 n=68 v=39
10151 On ch=2 n=76 v=47
10158 On ch=2 n=76 v=0
10161 On ch=2 n=68 v=0
10164 On ch=2 n=71 v=46
10173 On ch=2 n=71 v=0
10175 On ch=2 n=68 v=47
10175 On ch=2 n=76 v=57
10183 On ch=2 n=68 v=0
10185 On ch=2 n=76 v=0
10187 On ch=2 n=71 v=53
10198 On ch=2 n=71 v=0
10199 On ch=2 n=68 v=58
10200 On ch=2 n=76 v=43
10209 On ch=2 n=68 v=0
10211 On ch=2 n=76 v=0
10211 On ch=2 n=71 v=67
10220 On ch=2 n=71 v=0
10223 On ch=2 n=68 v=70
10224 On ch=2 n=76 v=54
10232 On ch=2 n=68 v=0
10235 On ch=2 n=76 v=0
10235 On ch=2 n=71 v=72
10243 On ch=2 n=71 v=0
10247 On ch=2 n=76 v=63
10247 On ch=2 n=68 v=82
10256 On ch=2 n=68 v=0
10256 On ch=2 n=76 v=0
10260 On ch=2 n=71 v=87
10270 On ch=2 n=71 v=0
10272 On ch=2 n=76 v=74
10272 On ch=2 n=68 v=91
10281 On ch=2 n=68 v=0
10282 On ch=2 n=76 v=0
10283 On ch=2 n=71 v=94
10290 On ch=2 n=71 v=0
10295 On ch=2 n=76 v=83
10296 On ch=2 n=68 v=102
10302 On ch=2 n=76 v=0
10306 On ch=2 n=68 v=0
10308 On ch=2 n=71 v=107
10316 On ch=2 n=71 v=0
10319 On ch=2 n=76 v=96
10320 On ch=2 n=68 v=111
10326 On ch=2 n=76 v=0
10328 On ch=2 n=68 v=0
10332 On ch=2 n=71 v=113
10342 On ch=2 n=71 v=0
10344 On ch=2 n=68 v=119
10344 On ch=2 n=76 v=102
10351 On ch=2 n=68 v=0
10353 On ch=2 n=76 v=0
10355 On ch=2 n=71 v=124
10365 On ch=2 n=71 v=0
10368 On ch=2 n=76 v=120
10376 On ch=2 n=76 v=0
10380 On ch=2 n=76 v=115
10388 On ch=2 n=76 v=0
10391 On ch=2 n=75 v=108
10400 On ch=2 n=75 v=0
10404 On ch=2 n=75 v=103
10411 On ch=2 n=75 v=0
10416 On ch=2 n=74 v=98
10422 On ch=2 n=74 v=0
10427 On ch=2 n=74 v=94
10435 On ch=2 n=74 v=0
10440 On ch=2 n=73 v=96
10447 On ch=2 n=73 v=0
10451 On ch=2 n=73 v=96
10459 On ch=2 n=73 v=0
10463 On ch=2 n=72 v=92
10472 On ch=2 n=72 v=0
10476 On ch=2 n=72 v=94
10482 On ch=2 n=72 v=0
10487 On ch=2 n=71 v=96
10494 On ch=2 n=71 v=0
10499 On ch=2 n=71 v=96
10505 On ch=2 n=71 v=0
10511 On ch=2 n=70 v=94
10517 On ch=2 n=70 v=0
10524 On ch=2 n=70 v=96
10532 On ch=2 n=70 v=0
10535 On ch=2 n=69 v=93
10544 On ch=2 n=69 v=0
10547 On ch=2 n=69 v=92
10556 On ch=2 n=69 v=0
10560 On ch=2 n=68 v=92
10568 On ch=2 n=68 v=0
10572 On ch=2 n=68 v=90
10579 On ch=2 n=68 v=0
10584 On ch=2 n=69 v=90
10606 On ch=2 n=69 v=0
11015 On ch=2 n=78 v=45
11016 On ch=2 n=70 v=40
11025 On ch=2 n=70 v=0
11025 On ch=2 n=78 v=0
11028 On ch=2 n=73 v=47
11037 On ch=2 n=73 v=0
11039 On ch=2 n=78 v=54
11039 On ch=2 n=70 v=49
11047 On ch=2 n=70 v=0
11047 On ch=2 n=78 v=0
11051 On ch=2 n=73 v=53
11060 On ch=2 n=73 v=0
11063 On ch=2 n=78 v=45
11064 On ch=2 n=70 v=58
11071 On ch=2 n=70 v=0
11072 On ch=2 n=78 v=0
11076 On ch=2 n=73 v=66
11085 On ch=2 n=73 v=0
11088 On ch=2 n=70 v=70
11088 On ch=2 n=78 v=55
11096 On ch=2 n=78 v=0
11096 On ch=2 n=70 v=0
11099 On ch=2 n=73 v=74
11109 On ch=2 n=73 v=0
11111 On ch=2 n=78 v=63
11111 On ch=2 n=70 v=80
11118 On ch=2 n=70 v=0
11119 On ch=2 n=78 v=0
11123 On ch=2 n=73 v=86
11131 On ch=2 n=73 v=0
11135 On ch=2 n=78 v=76
11136 On ch=2 n=70 v=89
11145 On ch=2 n=78 v=0
11146 On ch=2 n=70 v=0
11148 On ch=2 n=73 v=96
11157 On ch=2 n=73 v=0
11160 On ch=2 n=70 v=102
11160 On ch=2 n=78 v=87
11169 On ch=2 n=78 v=0
11169 On ch=2 n=70 v=0
11171 On ch=2 n=73 v=105
11180 On ch=2 n=73 v=0
11183 On ch=2 n=70 v=112
11184 On ch=2 n=78 v=96
11191 On ch=2 n=78 v=0
11192 On ch=2 n=70 v=0
11195 On ch=2 n=73 v=113
11203 On ch=2 n=73 v=0
11207 On ch=2 n=78 v=106
11207 On ch=2 n=70 v=121
11214 On ch=2 n=78 v=0
11215 On ch=2 n=70 v=0
11219 On ch=2 n=73 v=125
11228 On ch=2 n=73 v=0
11232 On ch=2 n=78 v=120
11240 On ch=2 n=78 v=0
11244 On ch=2 n=78 v=115
11251 On ch=2 n=78 v=0
11255 On ch=2 n=77 v=112
11262 On ch=2 n=77 v=0
11268 On ch=2 n=77 v=102
11277 On ch=2 n=77 v=0
11279 On ch=2 n=76 v=98
11287 On ch=2 n=76 v=0
11292 On ch=2 n=76 v=94
11302 On ch=2 n=76 v=0
11303 On ch=2 n=75 v=96
11311 On ch=2 n=75 v=0
11316 On ch=2 n=75 v=96
11323 On ch=2 n=75 v=0
11328 On ch=2 n=74 v=96
11337 On ch=2 n=74 v=0
11339 On ch=2 n=74 v=95
11345 On ch=2 n=74 v=0
11351 On ch=2 n=73 v=96
11360 On ch=2 n=73 v=0
11363 On ch=2 n=73 v=93
11369 On ch=2 n=73 v=0
11376 On ch=2 n=72 v=95
11382 On ch=2 n=72 v=0
11387 On ch=2 n=72 v=97
11394 On ch=2 n=72 v=0
11400 On ch=2 n=71 v=96
11407 On ch=2 n=71 v=0
11412 On ch=2 n=71 v=97
11421 On ch=2 n=71 v=0
11423 On ch=2 n=70 v=87
11429 On ch=2 n=70 v=0
11436 On ch=2 n=70 v=92
11445 On ch=2 n=70 v=0
11447 On ch=2 n=71 v=71
11465 On ch=2 n=71 v=0
11507 On ch=2 n=67 v=56
11517 On ch=2 n=67 v=0
11591 On ch=2 n=63 v=55
11613 On ch=2 n=63 v=0
11652 On ch=2 n=59 v=67
11662 On ch=2 n=59 v=0
11664 On ch=2 n=63 v=67
11684 On ch=2 n=63 v=0
11724 On ch=2 n=67 v=57
11731 On ch=2 n=67 v=0
11736 On ch=2 n=55 v=63
11755 On ch=2 n=55 v=0
11808 On ch=2 n=63 v=52
11828 On ch=2 n=63 v=0
11867 On ch=2 n=59 v=68
11876 On ch=2 n=59 v=0
11879 On ch=2 n=64 v=54
11898 On ch=2 n=64 v=0
11939 On ch=2 n=67 v=53
11949 On ch=2 n=67 v=0
11951 On ch=2 n=55 v=66
11971 On ch=2 n=55 v=0
12024 On ch=2 n=64 v=53
12044 On ch=2 n=64 v=0
12083 On ch=2 n=60 v=72
12092 On ch=2 n=60 v=0
12095 On ch=2 n=64 v=72
12155 On ch=2 n=67 v=54
12162 On ch=2 n=64 v=0
12165 On ch=2 n=67 v=0
12168 On ch=2 n=55 v=78
12186 On ch=2 n=55 v=0
12192 On ch=2 n=60 v=77
12200 On ch=2 n=60 v=0
12204 On ch=2 n=60 v=78
12212 On ch=2 n=60 v=0
12215 On ch=2 n=64 v=90
12223 On ch=2 n=64 v=0
12228 On ch=2 n=64 v=92
12235 On ch=2 n=64 v=0
12239 On ch=2 n=67 v=97
12240 On ch=2 n=64 v=54
12245 On ch=2 n=67 v=0
12251 On ch=2 n=67 v=92
12259 On ch=2 n=64 v=0
12260 On ch=2 n=67 v=0
12263 On ch=2 n=72 v=100
12270 On ch=2 n=72 v=0
12276 On ch=2 n=72 v=101
12282 On ch=2 n=72 v=0
12288 On ch=2 n=76 v=106
12294 On ch=2 n=76 v=0
12299 On ch=2 n=76 v=102
12305 On ch=2 n=76 v=0
12311 On ch=2 n=73 v=42
12318 On ch=2 n=73 v=0
12323 On ch=2 n=76 v=45
12332 On ch=2 n=76 v=0
12335 On ch=2 n=73 v=48
12342 On ch=2 n=73 v=0
12348 On ch=2 n=76 v=57
12359 On ch=2 n=76 v=0
12359 On ch=2 n=73 v=61
12369 On ch=2 n=73 v=0
12372 On ch=2 n=76 v=64
12381 On ch=2 n=76 v=0
12384 On ch=2 n=73 v=67
12392 On ch=2 n=73 v=0
12395 On ch=2 n=76 v=73
12403 On ch=2 n=76 v=0
12408 On ch=2 n=73 v=79
12417 On ch=2 n=73 v=0
12420 On ch=2 n=76 v=86
12430 On ch=2 n=76 v=0
12432 On ch=2 n=73 v=90
12440 On ch=2 n=73 v=0
12443 On ch=2 n=76 v=97
12450 On ch=2 n=76 v=0
12456 On ch=2 n=73 v=92
12464 On ch=2 n=73 v=0
12468 On ch=2 n=76 v=93
12475 On ch=2 n=76 v=0
12479 On ch=2 n=73 v=97
12488 On ch=2 n=73 v=0
12491 On ch=2 n=76 v=99
12500 On ch=2 n=76 v=0
12503 On ch=2 n=73 v=100
12513 On ch=2 n=73 v=0
12516 On ch=2 n=76 v=101
12527 On ch=2 n=76 v=0
12528 On ch=2 n=73 v=99
12537 On ch=2 n=73 v=0
12540 On ch=2 n=76 v=101
12547 On ch=2 n=76 v=0
12552 On ch=2 n=73 v=105
12561 On ch=2 n=73 v=0
12564 On ch=2 n=76 v=104
12571 On ch=2 n=76 v=0
12575 On ch=2 n=73 v=107
12582 On ch=2 n=73 v=0
12588 On ch=2 n=76 v=108
12596 On ch=2 n=76 v=0
12599 On ch=2 n=73 v=111
12606 On ch=2 n=73 v=0
12611 On ch=2 n=76 v=107
12621 On ch=2 n=76 v=0
12624 On ch=2 n=73 v=116
12631 On ch=2 n=73 v=0
12635 On ch=2 n=76 v=117
12645 On ch=2 n=76 v=0
12647 On ch=2 n=73 v=114
12656 On ch=2 n=73 v=0
12659 On ch=2 n=76 v=115
12666 On ch=2 n=76 v=0
12671 On ch=2 n=73 v=122
12680 On ch=2 n=73 v=0
12684 On ch=2 n=76 v=120
12694 On ch=2 n=76 v=0
12696 On ch=2 n=73 v=121
12704 On ch=2 n=73 v=0
12707 On ch=2 n=76 v=121
12716 On ch=2 n=76 v=0
12720 On ch=2 n=73 v=123
12729 On ch=2 n=73 v=0
12731 On ch=2 n=76 v=123
12739 On ch=2 n=76 v=0
12764 On ch=2 n=66 v=89
12770 On ch=2 n=66 v=0
12773 On ch=2 n=63 v=90
12779 On ch=2 n=63 v=0
12782 On ch=2 n=66 v=75
12783 On ch=2 n=59 v=89
12787 On ch=2 n=66 v=0
12788 On ch=2 n=59 v=0
12791 On ch=2 n=54 v=78
12791 On ch=2 n=63 v=65
12809 On ch=2 n=63 v=0
12812 On ch=2 n=54 v=0
12835 On ch=2 n=66 v=87
12840 On ch=2 n=66 v=0
12845 On ch=2 n=63 v=88
12846 On ch=2 n=66 v=72
12852 On ch=2 n=63 v=0
12854 On ch=2 n=63 v=77
12855 On ch=2 n=59 v=88
12860 On ch=2 n=66 v=0
12861 On ch=2 n=59 v=0
12863 On ch=2 n=59 v=62
12864 On ch=2 n=54 v=81
12882 On ch=2 n=63 v=0
12883 On ch=2 n=54 v=0
12883 On ch=2 n=59 v=0
12897 On ch=2 n=66 v=87
12902 On ch=2 n=66 v=0
12907 On ch=2 n=63 v=88
12915 On ch=2 n=63 v=0
12917 On ch=2 n=66 v=76
12918 On ch=2 n=59 v=89
12922 On ch=2 n=66 v=0
12923 On ch=2 n=59 v=0
12926 On ch=2 n=63 v=74
12927 On ch=2 n=54 v=90
12931 On ch=2 n=63 v=0
12934 On ch=2 n=54 v=0
12935 On ch=2 n=51 v=78
12936 On ch=2 n=59 v=67
12936 On ch=2 n=66 v=66
12953 On ch=2 n=51 v=0
12954 On ch=2 n=59 v=0
12955 On ch=2 n=66 v=0
12980 On ch=2 n=66 v=87
12988 On ch=2 n=66 v=0
12990 On ch=2 n=63 v=88
12995 On ch=2 n=63 v=0
12998 On ch=2 n=66 v=73
12999 On ch=2 n=59 v=91
13004 On ch=2 n=66 v=0
13005 On ch=2 n=59 v=0
13007 On ch=2 n=54 v=80
13008 On ch=2 n=63 v=67
13024 On ch=2 n=54 v=0
13026 On ch=2 n=63 v=0
13041 On ch=2 n=66 v=92
13046 On ch=2 n=66 v=0
13052 On ch=2 n=63 v=89
13061 On ch=2 n=63 v=0
13061 On ch=2 n=66 v=75
13062 On ch=2 n=59 v=92
13066 On ch=2 n=59 v=0
13066 On ch=2 n=66 v=0
13069 On ch=2 n=63 v=73
13070 On ch=2 n=54 v=89
13076 On ch=2 n=63 v=0
13077 On ch=2 n=54 v=0
13079 On ch=2 n=51 v=82
13079 On ch=2 n=59 v=62
13079 On ch=2 n=66 v=65
13096 On ch=2 n=59 v=0
13098 On ch=2 n=51 v=0
13099 On ch=2 n=66 v=0
13123 On ch=2 n=66 v=91
13128 On ch=2 n=66 v=0
13133 On ch=2 n=63 v=89
13138 On ch=2 n=63 v=0
13143 On ch=2 n=59 v=88
13143 On ch=2 n=66 v=72
13147 On ch=2 n=59 v=0
13149 On ch=2 n=66 v=0
13151 On ch=2 n=63 v=66
13152 On ch=2 n=54 v=78
13169 On ch=2 n=54 v=0
13169 On ch=2 n=63 v=0
13195 On ch=2 n=70 v=92
13202 On ch=2 n=70 v=0
13205 On ch=2 n=66 v=92
13211 On ch=2 n=66 v=0
13214 On ch=2 n=70 v=72
13215 On ch=2 n=63 v=90
13221 On ch=2 n=70 v=0
13223 On ch=2 n=63 v=0
13224 On ch=2 n=66 v=63
13224 On ch=2 n=58 v=79
13242 On ch=2 n=66 v=0
13244 On ch=2 n=58 v=0
13268 On ch=2 n=70 v=91
13272 On ch=2 n=70 v=0
13278 On ch=2 n=70 v=73
13278 On ch=2 n=66 v=90
13283 On ch=2 n=66 v=0
13287 On ch=2 n=63 v=89
13287 On ch=2 n=66 v=75
13291 On ch=2 n=70 v=0
13293 On ch=2 n=63 v=0
13296 On ch=2 n=58 v=82
13296 On ch=2 n=63 v=62
13315 On ch=2 n=63 v=0
13316 On ch=2 n=58 v=0
13316 On ch=2 n=66 v=0
13332 On ch=2 n=58 v=90
13339 On ch=2 n=70 v=77
13341 On ch=2 n=58 v=0
13343 On ch=2 n=65 v=90
13345 On ch=2 n=65 v=0
13350 On ch=2 n=65 v=75
13353 On ch=2 n=70 v=0
13359 On ch=2 n=61 v=75
13363 On ch=2 n=65 v=0
13367 On ch=2 n=58 v=65
13386 On ch=2 n=58 v=0
13388 On ch=2 n=61 v=0
13412 On ch=2 n=70 v=89
13419 On ch=2 n=70 v=0
13422 On ch=2 n=66 v=88
13427 On ch=2 n=66 v=0
13430 On ch=2 n=63 v=90
13431 On ch=2 n=70 v=73
13437 On ch=2 n=70 v=0
13437 On ch=2 n=63 v=0
13439 On ch=2 n=66 v=64
13440 On ch=2 n=58 v=82
13460 On ch=2 n=58 v=0
13460 On ch=2 n=66 v=0
13484 On ch=2 n=70 v=88
13491 On ch=2 n=70 v=0
13494 On ch=2 n=70 v=76
13494 On ch=2 n=66 v=88
13501 On ch=2 n=66 v=0
13502 On ch=2 n=63 v=88
13503 On ch=2 n=66 v=73
13508 On ch=2 n=63 v=0
13509 On ch=2 n=70 v=0
13511 On ch=2 n=58 v=78
13512 On ch=2 n=63 v=65
13530 On ch=2 n=63 v=0
13530 On ch=2 n=58 v=0
13531 On ch=2 n=66 v=0
13545 On ch=2 n=70 v=87
13550 On ch=2 n=70 v=0
13555 On ch=2 n=66 v=90
13561 On ch=2 n=66 v=0
13565 On ch=2 n=70 v=74
13566 On ch=2 n=63 v=89
13569 On ch=2 n=70 v=0
13572 On ch=2 n=63 v=0
13574 On ch=2 n=58 v=87
13575 On ch=2 n=66 v=74
13581 On ch=2 n=66 v=0
13581 On ch=2 n=58 v=0
13583 On ch=2 n=54 v=80
13583 On ch=2 n=70 v=64
13584 On ch=2 n=63 v=64
13600 On ch=2 n=54 v=0
13601 On ch=2 n=70 v=0
13603 On ch=2 n=63 v=0
13627 On ch=2 n=70 v=92
13633 On ch=2 n=70 v=0
13638 On ch=2 n=66 v=88
13646 On ch=2 n=66 v=0
13646 On ch=2 n=70 v=77
13647 On ch=2 n=63 v=90
13651 On ch=2 n=70 v=0
13652 On ch=2 n=63 v=0
13655 On ch=2 n=58 v=81
13656 On ch=2 n=66 v=62
13673 On ch=2 n=58 v=0
13675 On ch=2 n=66 v=0
13699 On ch=2 n=70 v=92
13707 On ch=2 n=70 v=0
13709 On ch=2 n=70 v=76
13710 On ch=2 n=66 v=91
13715 On ch=2 n=66 v=0
13719 On ch=2 n=66 v=72
13719 On ch=2 n=63 v=91
13725 On ch=2 n=63 v=0
13725 On ch=2 n=70 v=0
13727 On ch=2 n=58 v=78
13728 On ch=2 n=63 v=63
13745 On ch=2 n=66 v=0
13746 On ch=2 n=63 v=0
13746 On ch=2 n=58 v=0
13761 On ch=2 n=70 v=87
13768 On ch=2 n=70 v=0
13771 On ch=2 n=66 v=92
13778 On ch=2 n=66 v=0
13781 On ch=2 n=70 v=73
13781 On ch=2 n=63 v=92
13787 On ch=2 n=63 v=0
13788 On ch=2 n=70 v=0
13791 On ch=2 n=58 v=87
13791 On ch=2 n=66 v=76
13798 On ch=2 n=66 v=0
13798 On ch=2 n=58 v=0
13799 On ch=2 n=54 v=81
13800 On ch=2 n=70 v=67
13800 On ch=2 n=63 v=62
13817 On ch=2 n=70 v=0
13817 On ch=2 n=54 v=0
13818 On ch=2 n=63 v=0
13844 On ch=2 n=70 v=87
13851 On ch=2 n=70 v=0
13854 On ch=2 n=66 v=88
13859 On ch=2 n=66 v=0
13862 On ch=2 n=70 v=75
13863 On ch=2 n=63 v=90
13868 On ch=2 n=63 v=0
13868 On ch=2 n=70 v=0
13871 On ch=2 n=58 v=82
13872 On ch=2 n=66 v=63
13890 On ch=2 n=66 v=0
13890 On ch=2 n=58 v=0
13916 On ch=2 n=70 v=89
13921 On ch=2 n=70 v=0
13926 On ch=2 n=70 v=74
13926 On ch=2 n=66 v=89
13932 On ch=2 n=70 v=0
13933 On ch=2 n=66 v=0
13934 On ch=2 n=63 v=91
13935 On ch=2 n=66 v=74
13939 On ch=2 n=63 v=0
13941 On ch=2 n=66 v=0
13943 On ch=2 n=58 v=81
13943 On ch=2 n=63 v=65
13944 On ch=2 n=70 v=63
13961 On ch=2 n=70 v=0
13962 On ch=2 n=58 v=0
13963 On ch=2 n=63 v=0
13977 On ch=2 n=70 v=90
13984 On ch=2 n=70 v=0
13987 On ch=2 n=70 v=75
13988 On ch=2 n=66 v=87
13993 On ch=2 n=66 v=0
13997 On ch=2 n=63 v=90
13998 On ch=2 n=66 v=75
14001 On ch=2 n=70 v=0
14002 On ch=2 n=63 v=0
14006 On ch=2 n=58 v=89
14007 On ch=2 n=63 v=76
14010 On ch=2 n=58 v=0
14011 On ch=2 n=66 v=0
14016 On ch=2 n=58 v=67
14016 On ch=2 n=54 v=77
14033 On ch=2 n=63 v=0
14036 On ch=2 n=54 v=0
14036 On ch=2 n=58 v=0
14060 On ch=2 n=66 v=88
14067 On ch=2 n=66 v=0
14070 On ch=2 n=61 v=91
14075 On ch=2 n=61 v=0
14078 On ch=2 n=58 v=87
14078 On ch=2 n=66 v=75
14085 On ch=2 n=66 v=0
14085 On ch=2 n=58 v=0
14087 On ch=2 n=61 v=66
14087 On ch=2 n=54 v=78
14106 On ch=2 n=54 v=0
14107 On ch=2 n=61 v=0
14141 On ch=2 n=66 v=88
14148 On ch=2 n=66 v=0
14151 On ch=2 n=66 v=72
14151 On ch=2 n=61 v=89
14156 On ch=2 n=61 v=0
14159 On ch=2 n=58 v=78
14159 On ch=2 n=61 v=64
14176 On ch=2 n=58 v=0
14178 On ch=2 n=61 v=0
14180 On ch=2 n=66 v=0
14214 On ch=2 n=65 v=92
14214 On ch=2 n=68 v=76
14219 On ch=2 n=65 v=0
14223 On ch=2 n=65 v=73
14223 On ch=2 n=61 v=89
14227 On ch=2 n=61 v=0
14228 On ch=2 n=68 v=0
14231 On ch=2 n=68 v=77
14231 On ch=2 n=61 v=62
14250 On ch=2 n=68 v=0
14251 On ch=2 n=61 v=0
14252 On ch=2 n=65 v=0
14275 On ch=2 n=66 v=90
14283 On ch=2 n=66 v=0
14286 On ch=2 n=61 v=92
14290 On ch=2 n=61 v=0
14294 On ch=2 n=66 v=74
14295 On ch=2 n=58 v=90
14301 On ch=2 n=66 v=0
14302 On ch=2 n=58 v=0
14303 On ch=2 n=61 v=67
14304 On ch=2 n=54 v=80
14322 On ch=2 n=54 v=0
14323 On ch=2 n=61 v=0
14357 On ch=2 n=66 v=92
14361 On ch=2 n=66 v=0
14367 On ch=2 n=66 v=74
14367 On ch=2 n=61 v=89
14371 On ch=2 n=61 v=0
14375 On ch=2 n=58 v=80
14376 On ch=2 n=61 v=66
14393 On ch=2 n=66 v=0
14394 On ch=2 n=58 v=0
14395 On ch=2 n=61 v=0
14420 On ch=2 n=66 v=92
14425 On ch=2 n=66 v=0
14430 On ch=2 n=61 v=90
14437 On ch=2 n=61 v=0
14439 On ch=2 n=58 v=87
14439 On ch=2 n=66 v=74
14444 On ch=2 n=66 v=0
14444 On ch=2 n=58 v=0
14447 On ch=2 n=54 v=77
14448 On ch=2 n=61 v=66
14467 On ch=2 n=61 v=0
14468 On ch=2 n=54 v=0
14495 On ch=2 n=68 v=89
14505 On ch=2 n=68 v=0
14508 On ch=2 n=64 v=92
14511 On ch=2 n=68 v=75
14517 On ch=2 n=64 v=0
14519 On ch=2 n=59 v=79
14520 On ch=2 n=64 v=63
14538 On ch=2 n=64 v=0
14538 On ch=2 n=68 v=0
14539 On ch=2 n=59 v=0
14563 On ch=2 n=66 v=87
14568 On ch=2 n=66 v=0
14573 On ch=2 n=63 v=91
14574 On ch=2 n=66 v=75
14580 On ch=2 n=63 v=0
14582 On ch=2 n=59 v=89
14582 On ch=2 n=63 v=72
14589 On ch=2 n=59 v=0
14590 On ch=2 n=66 v=0
14591 On ch=2 n=59 v=65
14592 On ch=2 n=66 v=79
14609 On ch=2 n=63 v=0
14610 On ch=2 n=66 v=0
14611 On ch=2 n=59 v=0
14635 On ch=2 n=66 v=87
14640 On ch=2 n=66 v=0
14646 On ch=2 n=63 v=92
14653 On ch=2 n=63 v=0
14654 On ch=2 n=66 v=76
14655 On ch=2 n=59 v=88
14659 On ch=2 n=66 v=0
14661 On ch=2 n=59 v=0
14663 On ch=2 n=63 v=62
14664 On ch=2 n=66 v=81
14681 On ch=2 n=66 v=0
14683 On ch=2 n=63 v=0
14712 On ch=2 n=68 v=91
14722 On ch=2 n=68 v=0
14723 On ch=2 n=64 v=92
14725 On ch=2 n=68 v=72
14731 On ch=2 n=64 v=0
14735 On ch=2 n=64 v=64
14736 On ch=2 n=59 v=79
14755 On ch=2 n=59 v=0
14756 On ch=2 n=64 v=0
14756 On ch=2 n=68 v=0
14780 On ch=2 n=66 v=92
14786 On ch=2 n=66 v=0
14789 On ch=2 n=66 v=76
14790 On ch=2 n=63 v=88
14794 On ch=2 n=63 v=0
14798 On ch=2 n=63 v=75
14798 On ch=2 n=59 v=87
14803 On ch=2 n=59 v=0
14805 On ch=2 n=66 v=0
14808 On ch=2 n=66 v=79
14808 On ch=2 n=59 v=67
14825 On ch=2 n=59 v=0
14827 On ch=2 n=66 v=0
14827 On ch=2 n=63 v=0
14852 On ch=2 n=66 v=88
14859 On ch=2 n=66 v=0
14862 On ch=2 n=63 v=91
14868 On ch=2 n=63 v=0
14870 On ch=2 n=59 v=91
14871 On ch=2 n=66 v=77
14875 On ch=2 n=59 v=0
14877 On ch=2 n=66 v=0
14879 On ch=2 n=63 v=65
14880 On ch=2 n=66 v=82
14897 On ch=2 n=63 v=0
14901 On ch=2 n=66 v=0
14928 On ch=2 n=68 v=91
14937 On ch=2 n=68 v=0
14940 On ch=2 n=64 v=92
14942 On ch=2 n=68 v=73
14946 On ch=2 n=64 v=0
14952 On ch=2 n=59 v=80
14952 On ch=2 n=64 v=63
14969 On ch=2 n=59 v=0
14970 On ch=2 n=68 v=0
14973 On ch=2 n=64 v=0
14995 On ch=2 n=68 v=91
15000 On ch=2 n=68 v=0
15005 On ch=2 n=68 v=75
15005 On ch=2 n=64 v=88
15010 On ch=2 n=64 v=0
15014 On ch=2 n=64 v=77
15014 On ch=2 n=61 v=87
15021 On ch=2 n=61 v=0
15021 On ch=2 n=68 v=0
15024 On ch=2 n=56 v=79
15024 On ch=2 n=61 v=63
15041 On ch=2 n=56 v=0
15042 On ch=2 n=61 v=0
15042 On ch=2 n=64 v=0
15058 On ch=2 n=70 v=90
15063 On ch=2 n=70 v=0
15067 On ch=2 n=66 v=87
15072 On ch=2 n=66 v=0
15077 On ch=2 n=70 v=75
15078 On ch=2 n=61 v=88
15083 On ch=2 n=70 v=0
15086 On ch=2 n=61 v=0
15086 On ch=2 n=66 v=74
15087 On ch=2 n=58 v=91
15090 On ch=2 n=66 v=0
15093 On ch=2 n=58 v=0
15095 On ch=2 n=61 v=67
15096 On ch=2 n=54 v=77
15096 On ch=2 n=70 v=64
15112 On ch=2 n=61 v=0
15114 On ch=2 n=54 v=0
15116 On ch=2 n=70 v=0
15140 On ch=2 n=66 v=92
15148 On ch=2 n=66 v=0
15149 On ch=2 n=63 v=90
15155 On ch=2 n=63 v=0
15158 On ch=2 n=59 v=77
15159 On ch=2 n=66 v=76
15163 On ch=2 n=59 v=0
15166 On ch=2 n=66 v=0
15168 On ch=2 n=63 v=62
15168 On ch=2 n=54 v=87
15186 On ch=2 n=54 v=0
15187 On ch=2 n=63 v=0
15212 On ch=2 n=66 v=91
15219 On ch=2 n=66 v=0
15221 On ch=2 n=66 v=73
15222 On ch=2 n=63 v=91
15226 On ch=2 n=63 v=0
15230 On ch=2 n=63 v=77
15231 On ch=2 n=59 v=81
15237 On ch=2 n=59 v=0
15237 On ch=2 n=66 v=0
15239 On ch=2 n=54 v=89
15240 On ch=2 n=59 v=63
15258 On ch=2 n=54 v=0
15258 On ch=2 n=63 v=0
15260 On ch=2 n=59 v=0
15273 On ch=2 n=66 v=87
15281 On ch=2 n=66 v=0
15284 On ch=2 n=63 v=90
15292 On ch=2 n=63 v=0
15293 On ch=2 n=59 v=88
15294 On ch=2 n=66 v=74
15298 On ch=2 n=59 v=0
15300 On ch=2 n=66 v=0
15303 On ch=2 n=63 v=77
15303 On ch=2 n=54 v=81
15310 On ch=2 n=54 v=0
15311 On ch=2 n=63 v=0
15312 On ch=2 n=59 v=66
15312 On ch=2 n=66 v=65
15312 On ch=2 n=52 v=89
15330 On ch=2 n=66 v=0
15331 On ch=2 n=59 v=0
15332 On ch=2 n=52 v=0
15360 On ch=2 n=68 v=87
15368 On ch=2 n=68 v=0
15372 On ch=2 n=64 v=88
15374 On ch=2 n=68 v=72
15380 On ch=2 n=64 v=0
15384 On ch=2 n=64 v=63
15384 On ch=2 n=59 v=77
15402 On ch=2 n=59 v=0
15402 On ch=2 n=68 v=0
15404 On ch=2 n=64 v=0
15428 On ch=2 n=66 v=87
15435 On ch=2 n=66 v=0
15438 On ch=2 n=66 v=74
15438 On ch=2 n=63 v=90
15440 On ch=2 n=63 v=0
15445 On ch=2 n=63 v=73
15446 On ch=2 n=59 v=80
15452 On ch=2 n=59 v=0
15452 On ch=2 n=66 v=0
15456 On ch=2 n=59 v=64
15456 On ch=2 n=54 v=92
15473 On ch=2 n=59 v=0
15473 On ch=2 n=63 v=0
15475 On ch=2 n=54 v=0
15499 On ch=2 n=66 v=89
15505 On ch=2 n=66 v=0
15510 On ch=2 n=63 v=89
15516 On ch=2 n=63 v=0
15519 On ch=2 n=59 v=81
15519 On ch=2 n=66 v=77
15523 On ch=2 n=66 v=0
15524 On ch=2 n=59 v=0
15528 On ch=2 n=63 v=65
15528 On ch=2 n=54 v=89
15546 On ch=2 n=54 v=0
15549 On ch=2 n=63 v=0
15576 On ch=2 n=68 v=90
15586 On ch=2 n=68 v=0
15587 On ch=2 n=64 v=87
15591 On ch=2 n=68 v=74
15594 On ch=2 n=64 v=0
15599 On ch=2 n=59 v=81
15600 On ch=2 n=64 v=65
15617 On ch=2 n=59 v=0
15618 On ch=2 n=64 v=0
15619 On ch=2 n=68 v=0
15643 On ch=2 n=66 v=92
15649 On ch=2 n=66 v=0
15654 On ch=2 n=63 v=92
15654 On ch=2 n=66 v=72
15661 On ch=2 n=63 v=0
15662 On ch=2 n=63 v=74
15662 On ch=2 n=59 v=78
15667 On ch=2 n=66 v=0
15668 On ch=2 n=59 v=0
15671 On ch=2 n=54 v=88
15672 On ch=2 n=59 v=65
15689 On ch=2 n=59 v=0
15690 On ch=2 n=54 v=0
15690 On ch=2 n=63 v=0
15716 On ch=2 n=66 v=91
15725 On ch=2 n=66 v=0
15726 On ch=2 n=63 v=91
15734 On ch=2 n=63 v=0
15734 On ch=2 n=59 v=81
15735 On ch=2 n=66 v=74
15738 On ch=2 n=59 v=0
15740 On ch=2 n=66 v=0
15743 On ch=2 n=63 v=65
15744 On ch=2 n=54 v=90
15762 On ch=2 n=54 v=0
15763 On ch=2 n=63 v=0
15791 On ch=2 n=68 v=88
15798 On ch=2 n=68 v=0
15804 On ch=2 n=64 v=90
15807 On ch=2 n=68 v=75
15813 On ch=2 n=64 v=0
15815 On ch=2 n=59 v=79
15816 On ch=2 n=64 v=67
15834 On ch=2 n=64 v=0
15836 On ch=2 n=59 v=0
15837 On ch=2 n=68 v=0
15859 On ch=2 n=68 v=91
15866 On ch=2 n=68 v=0
15869 On ch=2 n=68 v=74
15870 On ch=2 n=64 v=92
15875 On ch=2 n=64 v=0
15878 On ch=2 n=61 v=77
15878 On ch=2 n=64 v=76
15883 On ch=2 n=68 v=0
15884 On ch=2 n=61 v=0
15887 On ch=2 n=61 v=64
15887 On ch=2 n=56 v=87
15904 On ch=2 n=64 v=0
15906 On ch=2 n=56 v=0
15906 On ch=2 n=61 v=0
15922 On ch=2 n=70 v=87
15930 On ch=2 n=70 v=0
15932 On ch=2 n=66 v=92
15940 On ch=2 n=66 v=0
15941 On ch=2 n=70 v=75
15941 On ch=2 n=61 v=92
15946 On ch=2 n=70 v=0
15948 On ch=2 n=61 v=0
15950 On ch=2 n=66 v=75
15951 On ch=2 n=58 v=77
15956 On ch=2 n=66 v=0
15958 On ch=2 n=58 v=0
15959 On ch=2 n=61 v=64
15959 On ch=2 n=54 v=91
15960 On ch=2 n=70 v=65
15976 On ch=2 n=54 v=0
15978 On ch=2 n=61 v=0
15979 On ch=2 n=70 v=0
16004 On ch=2 n=66 v=88
16009 On ch=2 n=66 v=0
16013 On ch=2 n=66 v=74
16014 On ch=2 n=63 v=87
16019 On ch=2 n=63 v=0
16022 On ch=2 n=59 v=89
16023 On ch=2 n=63 v=73
16028 On ch=2 n=59 v=0
16029 On ch=2 n=66 v=0
16032 On ch=2 n=59 v=62
16032 On ch=2 n=54 v=79
16050 On ch=2 n=59 v=0
16052 On ch=2 n=54 v=0
16053 On ch=2 n=63 v=0
16085 On ch=2 n=66 v=92
16091 On ch=2 n=66 v=0
16094 On ch=2 n=66 v=76
16095 On ch=2 n=63 v=81
16101 On ch=2 n=63 v=0
16104 On ch=2 n=59 v=89
16104 On ch=2 n=63 v=64
16122 On ch=2 n=59 v=0
16123 On ch=2 n=63 v=0
16124 On ch=2 n=66 v=0
16148 On ch=2 n=66 v=87
16157 On ch=2 n=66 v=0
16158 On ch=2 n=63 v=88
16161 On ch=2 n=63 v=0
16165 On ch=2 n=66 v=76
16166 On ch=2 n=59 v=78
16171 On ch=2 n=66 v=0
16175 On ch=2 n=59 v=0
16176 On ch=2 n=54 v=91
16176 On ch=2 n=63 v=64
16195 On ch=2 n=54 v=0
16196 On ch=2 n=63 v=0
16199 On ch=2 n=67 v=105
16199 On ch=2 n=59 v=99
16200 On ch=2 n=55 v=102
16220 On ch=2 n=67 v=0
16222 On ch=2 n=55 v=0
16267 On ch=2 n=59 v=0
16271 On ch=2 n=63 v=97
16286 On ch=2 n=63 v=0
16308 On ch=2 n=59 v=102
16316 On ch=2 n=59 v=0
16320 On ch=2 n=63 v=100
16337 On ch=2 n=63 v=0
16344 On ch=2 n=67 v=113
16365 On ch=2 n=67 v=0
16392 On ch=2 n=55 v=112
16405 On ch=2 n=55 v=0
16416 On ch=2 n=59 v=97
16486 On ch=2 n=59 v=0
16487 On ch=2 n=63 v=101
16505 On ch=2 n=63 v=0
16523 On ch=2 n=59 v=101
16531 On ch=2 n=59 v=0
16535 On ch=2 n=63 v=100
16550 On ch=2 n=63 v=0
16560 On ch=2 n=67 v=113
16580 On ch=2 n=67 v=0
16607 On ch=2 n=55 v=110
16622 On ch=2 n=55 v=0
16632 On ch=2 n=68 v=41
16639 On ch=2 n=68 v=0
16644 On ch=2 n=71 v=42
16652 On ch=2 n=71 v=0
16656 On ch=2 n=68 v=52
16664 On ch=2 n=68 v=0
16667 On ch=2 n=71 v=53
16675 On ch=2 n=71 v=0
16680 On ch=2 n=68 v=60
16687 On ch=2 n=68 v=0
16691 On ch=2 n=71 v=65
16701 On ch=2 n=71 v=0
16704 On ch=2 n=68 v=72
16713 On ch=2 n=68 v=0
16715 On ch=2 n=71 v=77
16723 On ch=2 n=71 v=0
16728 On ch=2 n=68 v=78
16737 On ch=2 n=68 v=0
16740 On ch=2 n=71 v=87
16747 On ch=2 n=71 v=0
16751 On ch=2 n=68 v=87
16760 On ch=2 n=68 v=0
16763 On ch=2 n=71 v=96
16772 On ch=2 n=71 v=0
16775 On ch=2 n=68 v=100
16783 On ch=2 n=68 v=0
16788 On ch=2 n=71 v=104
16797 On ch=2 n=71 v=0
16800 On ch=2 n=68 v=108
16808 On ch=2 n=68 v=0
16812 On ch=2 n=71 v=114
16820 On ch=2 n=71 v=0
16824 On ch=2 n=68 v=118
16832 On ch=2 n=68 v=0
16836 On ch=2 n=71 v=125
16842 On ch=2 n=71 v=0
16872 On ch=2 n=75 v=109
16879 On ch=2 n=75 v=0
16884 On ch=2 n=75 v=102
16891 On ch=2 n=75 v=0
16896 On ch=2 n=74 v=101
16904 On ch=2 n=74 v=0
16908 On ch=2 n=74 v=97
16916 On ch=2 n=74 v=0
16920 On ch=2 n=73 v=96
16928 On ch=2 n=73 v=0
16932 On ch=2 n=73 v=97
16941 On ch=2 n=73 v=0
16943 On ch=2 n=72 v=96
16950 On ch=2 n=72 v=0
16955 On ch=2 n=72 v=97
16962 On ch=2 n=72 v=0
16968 On ch=2 n=71 v=93
16974 On ch=2 n=71 v=0
16980 On ch=2 n=71 v=93
16988 On ch=2 n=71 v=0
16991 On ch=2 n=70 v=94
16997 On ch=2 n=70 v=0
17003 On ch=2 n=70 v=94
17012 On ch=2 n=70 v=0
17016 On ch=2 n=69 v=97
17026 On ch=2 n=69 v=0
17027 On ch=2 n=69 v=96
17036 On ch=2 n=69 v=0
17040 On ch=2 n=68 v=88
17047 On ch=2 n=68 v=0
17052 On ch=2 n=68 v=90
17059 On ch=2 n=68 v=0
17063 On ch=2 n=57 v=101
17063 On ch=2 n=65 v=73
17085 On ch=2 n=65 v=0
17130 On ch=2 n=57 v=0
17136 On ch=2 n=60 v=100
17166 On ch=2 n=60 v=0
17171 On ch=2 n=55 v=99
17177 On ch=2 n=55 v=0
17183 On ch=2 n=60 v=98
17201 On ch=2 n=60 v=0
17208 On ch=2 n=64 v=115
17229 On ch=2 n=64 v=0
17255 On ch=2 n=52 v=111
17265 On ch=2 n=52 v=0
17279 On ch=2 n=57 v=98
17349 On ch=2 n=57 v=0
17351 On ch=2 n=60 v=99
17380 On ch=2 n=60 v=0
17388 On ch=2 n=55 v=97
17393 On ch=2 n=55 v=0
17399 On ch=2 n=60 v=101
17417 On ch=2 n=60 v=0
17423 On ch=2 n=64 v=117
17444 On ch=2 n=64 v=0
17471 On ch=2 n=52 v=110
17487 On ch=2 n=52 v=0
17495 On ch=2 n=70 v=39
17502 On ch=2 n=70 v=0
17507 On ch=2 n=73 v=47
17516 On ch=2 n=73 v=0
17519 On ch=2 n=70 v=51
17527 On ch=2 n=70 v=0
17531 On ch=2 n=73 v=55
17539 On ch=2 n=73 v=0
17544 On ch=2 n=70 v=61
17555 On ch=2 n=70 v=0
17555 On ch=2 n=73 v=66
17565 On ch=2 n=73 v=0
17567 On ch=2 n=70 v=67
17575 On ch=2 n=70 v=0
17579 On ch=2 n=73 v=72
17587 On ch=2 n=73 v=0
17591 On ch=2 n=70 v=78
17598 On ch=2 n=70 v=0
17603 On ch=2 n=73 v=82
17610 On ch=2 n=73 v=0
17616 On ch=2 n=70 v=90
17625 On ch=2 n=70 v=0
17628 On ch=2 n=73 v=97
17635 On ch=2 n=73 v=0
17639 On ch=2 n=70 v=102
17648 On ch=2 n=70 v=0
17652 On ch=2 n=73 v=104
17660 On ch=2 n=73 v=0
17664 On ch=2 n=70 v=110
17674 On ch=2 n=70 v=0
17675 On ch=2 n=73 v=112
17684 On ch=2 n=73 v=0
17687 On ch=2 n=70 v=121
17697 On ch=2 n=70 v=0
17699 On ch=2 n=73 v=127
17706 On ch=2 n=73 v=0
17711 On ch=2 n=78 v=121
17720 On ch=2 n=78 v=0
17724 On ch=2 n=78 v=116
17730 On ch=2 n=78 v=0
17736 On ch=2 n=77 v=108
17743 On ch=2 n=77 v=0
17748 On ch=2 n=77 v=107
17758 On ch=2 n=77 v=0
17759 On ch=2 n=76 v=101
17768 On ch=2 n=76 v=0
17771 On ch=2 n=76 v=93
17777 On ch=2 n=76 v=0
17783 On ch=2 n=75 v=92
17791 On ch=2 n=75 v=0
17796 On ch=2 n=75 v=94
17803 On ch=2 n=75 v=0
17807 On ch=2 n=74 v=92
17813 On ch=2 n=74 v=0
17820 On ch=2 n=74 v=97
17829 On ch=2 n=74 v=0
17832 On ch=2 n=73 v=95
17840 On ch=2 n=73 v=0
17843 On ch=2 n=73 v=96
17849 On ch=2 n=73 v=0
17855 On ch=2 n=72 v=93
17864 On ch=2 n=72 v=0
17867 On ch=2 n=72 v=92
17876 On ch=2 n=72 v=0
17880 On ch=2 n=71 v=92
17886 On ch=2 n=71 v=0
17892 On ch=2 n=71 v=94
17900 On ch=2 n=71 v=0
17904 On ch=2 n=70 v=92
17910 On ch=2 n=70 v=0
17916 On ch=2 n=70 v=92
17925 On ch=2 n=70 v=0
17927 On ch=2 n=71 v=69
17928 On ch=2 n=63 v=69
17928 On ch=2 n=55 v=67
17945 On ch=2 n=71 v=0
17947 On ch=2 n=55 v=0
17949 On ch=2 n=63 v=0
17987 On ch=2 n=67 v=55
17995 On ch=2 n=67 v=0
18072 On ch=2 n=63 v=56
18091 On ch=2 n=63 v=0
18096 On ch=2 n=67 v=57
18130 On ch=2 n=67 v=0
18131 On ch=2 n=59 v=72
18138 On ch=2 n=59 v=0
18144 On ch=2 n=63 v=70
18164 On ch=2 n=63 v=0
18203 On ch=2 n=67 v=54
18210 On ch=2 n=67 v=0
18215 On ch=2 n=55 v=70
18233 On ch=2 n=55 v=0
18288 On ch=2 n=63 v=55
18308 On ch=2 n=63 v=0
18347 On ch=2 n=59 v=67
18354 On ch=2 n=59 v=0
18359 On ch=2 n=64 v=68
18379 On ch=2 n=64 v=0
18420 On ch=2 n=67 v=55
18430 On ch=2 n=67 v=0
18432 On ch=2 n=55 v=63
18454 On ch=2 n=55 v=0
18503 On ch=2 n=64 v=55
18524 On ch=2 n=64 v=0
18528 On ch=2 n=67 v=68
18559 On ch=2 n=67 v=0
18564 On ch=2 n=60 v=71
18573 On ch=2 n=60 v=0
18575 On ch=2 n=64 v=69
18636 On ch=2 n=67 v=53
18641 On ch=2 n=64 v=0
18645 On ch=2 n=67 v=0
18647 On ch=2 n=55 v=81
18665 On ch=2 n=55 v=0
18672 On ch=2 n=60 v=79
18679 On ch=2 n=60 v=0
18683 On ch=2 n=60 v=77
18689 On ch=2 n=60 v=0
18696 On ch=2 n=64 v=89
18703 On ch=2 n=64 v=0
18708 On ch=2 n=64 v=92
18716 On ch=2 n=64 v=0
18719 On ch=2 n=67 v=96
18720 On ch=2 n=64 v=57
18725 On ch=2 n=67 v=0
18731 On ch=2 n=67 v=96
18739 On ch=2 n=67 v=0
18739 On ch=2 n=64 v=0
18743 On ch=2 n=72 v=97
18749 On ch=2 n=72 v=0
18756 On ch=2 n=72 v=101
18764 On ch=2 n=72 v=0
18768 On ch=2 n=76 v=106
18777 On ch=2 n=76 v=0
18779 On ch=2 n=76 v=103
18787 On ch=2 n=76 v=0
18791 On ch=2 n=73 v=40
18802 On ch=2 n=73 v=0
18804 On ch=2 n=76 v=44
18811 On ch=2 n=76 v=0
18816 On ch=2 n=73 v=52
18825 On ch=2 n=73 v=0
18828 On ch=2 n=76 v=52
18837 On ch=2 n=76 v=0
18839 On ch=2 n=73 v=61
18848 On ch=2 n=73 v=0
18852 On ch=2 n=76 v=63
18861 On ch=2 n=76 v=0
18864 On ch=2 n=73 v=68
18874 On ch=2 n=73 v=0
18876 On ch=2 n=76 v=74
18886 On ch=2 n=76 v=0
18887 On ch=2 n=73 v=82
18894 On ch=2 n=73 v=0
18900 On ch=2 n=76 v=85
18909 On ch=2 n=76 v=0
18912 On ch=2 n=73 v=88
18922 On ch=2 n=73 v=0
18924 On ch=2 n=76 v=94
18931 On ch=2 n=76 v=0
18935 On ch=2 n=73 v=96
18944 On ch=2 n=73 v=0
18948 On ch=2 n=76 v=96
18959 On ch=2 n=76 v=0
18960 On ch=2 n=73 v=102
18967 On ch=2 n=73 v=0
18972 On ch=2 n=76 v=102
18979 On ch=2 n=76 v=0
18983 On ch=2 n=73 v=101
18992 On ch=2 n=73 v=0
18996 On ch=2 n=76 v=98
19003 On ch=2 n=76 v=0
19007 On ch=2 n=73 v=97
19015 On ch=2 n=73 v=0
19020 On ch=2 n=76 v=97
19029 On ch=2 n=76 v=0
19032 On ch=2 n=73 v=107
19042 On ch=2 n=73 v=0
19044 On ch=2 n=76 v=104
19053 On ch=2 n=76 v=0
19055 On ch=2 n=73 v=106
19062 On ch=2 n=73 v=0
19068 On ch=2 n=76 v=111
19078 On ch=2 n=76 v=0
19079 On ch=2 n=73 v=109
19086 On ch=2 n=73 v=0
19091 On ch=2 n=76 v=109
19101 On ch=2 n=76 v=0
19104 On ch=2 n=73 v=113
19113 On ch=2 n=73 v=0
19115 On ch=2 n=76 v=116
19124 On ch=2 n=76 v=0
19127 On ch=2 n=73 v=112
19137 On ch=2 n=73 v=0
19139 On ch=2 n=76 v=112
19149 On ch=2 n=76 v=0
19151 On ch=2 n=73 v=117
19159 On ch=2 n=73 v=0
19164 On ch=2 n=76 v=120
19174 On ch=2 n=76 v=0
19175 On ch=2 n=73 v=121
19184 On ch=2 n=73 v=0
19188 On ch=2 n=76 v=117
19196 On ch=2 n=76 v=0
19200 On ch=2 n=73 v=124
19208 On ch=2 n=73 v=0
19212 On ch=2 n=76 v=124
19222 On ch=2 n=76 v=0
19224 On ch=2 n=75 v=84
19231 On ch=2 n=75 v=0
19235 On ch=2 n=75 v=72
19241 On ch=2 n=75 v=0
19248 On ch=2 n=75 v=84
19257 On ch=2 n=75 v=0
19260 On ch=2 n=75 v=76
19267 On ch=2 n=75 v=0
19271 On ch=2 n=75 v=87
19277 On ch=2 n=75 v=0
19284 On ch=2 n=75 v=76
19293 On ch=2 n=75 v=0
19320 On ch=2 n=76 v=100
19329 On ch=2 n=76 v=0
19332 On ch=2 n=76 v=89
19341 On ch=2 n=76 v=0
19343 On ch=2 n=75 v=99
19351 On ch=2 n=75 v=0
19355 On ch=2 n=75 v=88
19362 On ch=2 n=75 v=0
19367 On ch=2 n=73 v=100
19376 On ch=2 n=73 v=0
19380 On ch=2 n=73 v=89
19389 On ch=2 n=73 v=0
19392 On ch=2 n=71 v=100
19401 On ch=2 n=71 v=0
19403 On ch=2 n=71 v=87
19413 On ch=2 n=71 v=0
19415 On ch=2 n=70 v=102
19422 On ch=2 n=70 v=0
19427 On ch=2 n=70 v=92
19437 On ch=2 n=70 v=0
19440 On ch=2 n=68 v=98
19447 On ch=2 n=68 v=0
19452 On ch=2 n=68 v=92
19461 On ch=2 n=68 v=0
19464 On ch=2 n=66 v=102
19474 On ch=2 n=66 v=0
19476 On ch=2 n=66 v=92
19482 On ch=2 n=66 v=0
19488 On ch=2 n=64 v=101
19497 On ch=2 n=64 v=0
19500 On ch=2 n=64 v=87
19506 On ch=2 n=64 v=0
19511 On ch=2 n=63 v=98
19520 On ch=2 n=63 v=0
19523 On ch=2 n=63 v=87
19532 On ch=2 n=63 v=0
19536 On ch=2 n=61 v=102
19544 On ch=2 n=61 v=0
19547 On ch=2 n=61 v=92
19554 On ch=2 n=61 v=0
19560 On ch=2 n=59 v=99
19568 On ch=2 n=59 v=0
19571 On ch=2 n=59 v=88
19577 On ch=2 n=59 v=0
19583 On ch=2 n=58 v=101
19591 On ch=2 n=58 v=0
19595 On ch=2 n=58 v=87
19601 On ch=2 n=58 v=0
19608 On ch=2 n=56 v=97
19616 On ch=2 n=56 v=0
19620 On ch=2 n=56 v=92
19627 On ch=2 n=56 v=0
19631 On ch=2 n=54 v=102
19639 On ch=2 n=54 v=0
19644 On ch=2 n=54 v=92
19653 On ch=2 n=54 v=0
19655 On ch=2 n=75 v=109
19664 On ch=2 n=75 v=0
19668 On ch=2 n=75 v=101
19675 On ch=2 n=75 v=0
19679 On ch=2 n=75 v=91
19685 On ch=2 n=75 v=0
19691 On ch=2 n=75 v=82
19700 On ch=2 n=75 v=0
19704 On ch=2 n=75 v=77
19712 On ch=2 n=75 v=0
19716 On ch=2 n=75 v=80
19726 On ch=2 n=75 v=0
19728 On ch=2 n=75 v=101
19735 On ch=2 n=75 v=0
19740 On ch=2 n=75 v=90
19749 On ch=2 n=75 v=0
19751 On ch=2 n=76 v=83
19752 On ch=2 n=73 v=101
19757 On ch=2 n=76 v=0
19759 On ch=2 n=73 v=0
19763 On ch=2 n=73 v=89
19772 On ch=2 n=73 v=0
19775 On ch=2 n=71 v=97
19784 On ch=2 n=71 v=0
19787 On ch=2 n=71 v=87
19794 On ch=2 n=71 v=0
19799 On ch=2 n=70 v=101
19807 On ch=2 n=70 v=0
19811 On ch=2 n=70 v=87
19818 On ch=2 n=70 v=0
19824 On ch=2 n=68 v=97
19832 On ch=2 n=68 v=0
19836 On ch=2 n=68 v=89
19844 On ch=2 n=68 v=0
19847 On ch=2 n=66 v=101
19854 On ch=2 n=66 v=0
19859 On ch=2 n=66 v=87
19868 On ch=2 n=66 v=0
19871 On ch=2 n=64 v=97
19878 On ch=2 n=64 v=0
19883 PrCh ch=2 p=44
19883 On ch=2 n=64 v=92
19891 On ch=2 n=64 v=0
19896 On ch=2 n=63 v=100
19905 On ch=2 n=63 v=0
19908 On ch=2 n=63 v=91
19915 On ch=2 n=63 v=0
19919 On ch=2 n=61 v=100
19926 On ch=2 n=61 v=0
19931 On ch=2 n=61 v=92
19939 On ch=2 n=61 v=0
19944 On ch=2 n=59 v=98
19952 On ch=2 n=59 v=0
19955 On ch=2 n=59 v=90
19964 On ch=2 n=59 v=0
19967 On ch=2 n=58 v=102
19976 On ch=2 n=58 v=0
19980 On ch=2 n=58 v=91
19988 On ch=2 n=58 v=0
19992 On ch=2 n=56 v=102
20000 On ch=2 n=56 v=0
20003 On ch=2 n=56 v=89
20011 On ch=2 n=56 v=0
20016 On ch=2 n=54 v=98
20026 On ch=2 n=54 v=0
20027 On ch=2 n=54 v=87
20034 On ch=2 n=54 v=0
20040 On ch=2 n=52 v=101
20047 On ch=2 n=52 v=0
20208 On ch=2 n=59 v=98
20215 On ch=2 n=59 v=0
20219 On ch=2 n=59 v=91
20226 On ch=2 n=59 v=0
20232 On ch=2 n=58 v=102
20238 On ch=2 n=58 v=0
20244 On ch=2 n=58 v=90
20253 On ch=2 n=58 v=0
20255 On ch=2 n=57 v=100
20262 On ch=2 n=57 v=0
20267 On ch=2 n=57 v=90
20274 On ch=2 n=57 v=0
20279 On ch=2 n=56 v=101
20286 On ch=2 n=56 v=0
20292 On ch=2 n=56 v=90
20299 On ch=2 n=56 v=0
20304 On ch=2 n=54 v=98
20312 On ch=2 n=54 v=0
20315 On ch=2 n=54 v=87
20322 On ch=2 n=54 v=0
20447 On ch=2 n=59 v=97
20454 On ch=2 n=59 v=0
20460 On ch=2 n=59 v=91
20467 On ch=2 n=59 v=0
20472 On ch=2 n=58 v=100
20481 On ch=2 n=58 v=0
20483 On ch=2 n=58 v=91
20491 On ch=2 n=58 v=0
20495 On ch=2 n=57 v=102
20503 On ch=2 n=57 v=0
20508 On ch=2 n=57 v=88
20516 On ch=2 n=57 v=0
20520 On ch=2 n=54 v=100
20526 On ch=2 n=54 v=0
20531 On ch=2 n=54 v=89
20538 On ch=2 n=54 v=0
20544 On ch=2 n=54 v=78
20551 On ch=2 n=54 v=0
20592 On ch=2 n=54 v=98
20602 On ch=2 n=54 v=0
20604 On ch=2 n=54 v=89
20614 On ch=2 n=54 v=0
20615 On ch=2 n=54 v=80
20624 On ch=2 n=54 v=0
20663 On ch=2 n=54 v=99
20671 On ch=2 n=54 v=0
20676 On ch=2 n=54 v=92
20683 On ch=2 n=54 v=0
20688 On ch=2 n=54 v=80
20696 On ch=2 n=54 v=0
20696 Meta TrkEnd
TrkEnd
MTrk
0 Meta 0x21 00
0 Meta TrkName "Brass"
0 PrCh ch=3 p=61
0 Par ch=3 c=7 v=117
0 Par ch=3 c=10 v=63
0 Par ch=3 c=93 v=50
0 Par ch=3 c=91 v=100
1 Par ch=3 c=11 v=127
2807 On ch=3 n=59 v=103
2822 On ch=3 n=59 v=0
2846 On ch=3 n=54 v=110
2854 On ch=3 n=54 v=0
2855 On ch=3 n=59 v=115
2871 On ch=3 n=59 v=0
2879 On ch=3 n=62 v=122
2945 On ch=3 n=62 v=0
2951 On ch=3 n=59 v=107
3019 On ch=3 n=59 v=0
3024 On ch=3 n=62 v=109
3040 On ch=3 n=62 v=0
3062 On ch=3 n=59 v=108
3068 On ch=3 n=59 v=0
3072 On ch=3 n=62 v=114
3087 On ch=3 n=62 v=0
3095 On ch=3 n=66 v=126
3162 On ch=3 n=66 v=0
3168 On ch=3 n=62 v=107
3235 On ch=3 n=62 v=0
3239 On ch=3 n=66 v=112
3254 On ch=3 n=66 v=0
3278 On ch=3 n=62 v=107
3285 On ch=3 n=62 v=0
3287 On ch=3 n=66 v=113
3304 On ch=3 n=66 v=0
3311 On ch=3 n=69 v=124
3378 On ch=3 n=69 v=0
3383 On ch=3 n=57 v=107
3448 On ch=3 n=57 v=0
3455 On ch=3 n=62 v=109
3470 On ch=3 n=62 v=0
3493 On ch=3 n=57 v=109
3498 On ch=3 n=57 v=0
3504 On ch=3 n=62 v=112
3519 On ch=3 n=62 v=0
3528 On ch=3 n=66 v=127
3878 On ch=3 n=66 v=0
4320 On ch=3 n=50 v=105
4320 On ch=3 n=62 v=107
4335 On ch=3 n=50 v=0
4337 On ch=3 n=62 v=0
4357 On ch=3 n=45 v=107
4357 On ch=3 n=57 v=107
4362 On ch=3 n=45 v=0
4364 On ch=3 n=57 v=0
4367 On ch=3 n=50 v=115
4368 On ch=3 n=62 v=117
4382 On ch=3 n=50 v=0
4385 On ch=3 n=62 v=0
4392 On ch=3 n=54 v=124
4392 On ch=3 n=66 v=122
4457 On ch=3 n=54 v=0
4459 On ch=3 n=66 v=0
4463 On ch=3 n=62 v=106
4464 On ch=3 n=50 v=105
4529 On ch=3 n=50 v=0
4530 On ch=3 n=62 v=0
4536 On ch=3 n=54 v=106
4536 On ch=3 n=66 v=102
4553 On ch=3 n=66 v=0
4553 On ch=3 n=54 v=0
4573 On ch=3 n=50 v=108
4573 On ch=3 n=62 v=111
4578 On ch=3 n=50 v=0
4581 On ch=3 n=62 v=0
4583 On ch=3 n=54 v=114
4583 On ch=3 n=66 v=113
4599 On ch=3 n=54 v=0
4600 On ch=3 n=66 v=0
4607 On ch=3 n=69 v=126
4608 On ch=3 n=57 v=122
4673 On ch=3 n=69 v=0
4676 On ch=3 n=57 v=0
4679 On ch=3 n=66 v=108
4680 On ch=3 n=54 v=105
4744 On ch=3 n=66 v=0
4747 On ch=3 n=54 v=0
4751 On ch=3 n=57 v=103
4752 On ch=3 n=69 v=102
4767 On ch=3 n=57 v=0
4769 On ch=3 n=69 v=0
4790 On ch=3 n=54 v=111
4790 On ch=3 n=66 v=108
4796 On ch=3 n=66 v=0
4796 On ch=3 n=54 v=0
4799 On ch=3 n=57 v=115
4800 On ch=3 n=69 v=112
4815 On ch=3 n=57 v=0
4817 On ch=3 n=69 v=0
4823 On ch=3 n=73 v=122
4824 On ch=3 n=61 v=127
4888 On ch=3 n=73 v=0
4889 On ch=3 n=61 v=0
4896 On ch=3 n=49 v=106
4896 On ch=3 n=61 v=106
4962 On ch=3 n=49 v=0
4964 On ch=3 n=61 v=0
4968 On ch=3 n=54 v=108
4968 On ch=3 n=66 v=110
4983 On ch=3 n=66 v=0
4985 On ch=3 n=54 v=0
5005 On ch=3 n=61 v=110
5006 On ch=3 n=49 v=110
5011 On ch=3 n=49 v=0
5012 On ch=3 n=61 v=0
5016 On ch=3 n=54 v=115
5016 On ch=3 n=66 v=116
5031 On ch=3 n=54 v=0
5033 On ch=3 n=66 v=0
5039 On ch=3 n=70 v=122
5040 On ch=3 n=58 v=123
5365 On ch=3 n=66 v=80
5373 On ch=3 n=66 v=0
5376 On ch=3 n=61 v=82
5389 On ch=3 n=61 v=0
5395 On ch=3 n=70 v=0
5397 On ch=3 n=58 v=0
5581 On ch=3 n=66 v=77
5588 On ch=3 n=66 v=0
5591 On ch=3 n=61 v=82
5604 On ch=3 n=61 v=0
5616 On ch=3 n=70 v=80
5638 On ch=3 n=70 v=0
5798 On ch=3 n=66 v=81
5804 On ch=3 n=66 v=0
5807 On ch=3 n=54 v=99
5808 On ch=3 n=61 v=79
5825 On ch=3 n=61 v=0
5826 On ch=3 n=54 v=0
5832 On ch=3 n=55 v=103
5853 On ch=3 n=55 v=0
5870 On ch=3 n=52 v=108
5875 On ch=3 n=52 v=0
5879 On ch=3 n=55 v=116
5896 On ch=3 n=55 v=0
5903 On ch=3 n=59 v=112
6023 On ch=3 n=54 v=110
6024 On ch=3 n=66 v=109
6044 On ch=3 n=66 v=0
6045 On ch=3 n=54 v=0
6047 On ch=3 n=55 v=105
6062 On ch=3 n=55 v=0
6085 On ch=3 n=52 v=111
6089 On ch=3 n=52 v=0
6091 On ch=3 n=59 v=0
6096 On ch=3 n=55 v=117
6113 On ch=3 n=55 v=0
6120 On ch=3 n=59 v=113
6239 On ch=3 n=66 v=112
6240 On ch=3 n=54 v=111
6260 On ch=3 n=66 v=0
6261 On ch=3 n=54 v=0
6262 On ch=3 n=59 v=0
6263 On ch=3 n=55 v=102
6281 On ch=3 n=55 v=0
6301 On ch=3 n=52 v=111
6306 On ch=3 n=52 v=0
6312 On ch=3 n=55 v=115
6328 On ch=3 n=55 v=0
6336 On ch=3 n=60 v=122
6404 On ch=3 n=60 v=0
6408 On ch=3 n=54 v=105
6476 On ch=3 n=54 v=0
6480 On ch=3 n=50 v=105
6498 On ch=3 n=50 v=0
6518 On ch=3 n=54 v=107
6528 On ch=3 n=54 v=0
6528 On ch=3 n=59 v=117
6545 On ch=3 n=59 v=0
6551 On ch=3 n=62 v=126
6740 On ch=3 n=62 v=0
6878 On ch=3 n=66 v=79
6886 On ch=3 n=66 v=0
6889 On ch=3 n=59 v=82
6890 On ch=3 n=54 v=101
6894 On ch=3 n=59 v=0
6907 On ch=3 n=54 v=0
6913 On ch=3 n=55 v=102
6930 On ch=3 n=55 v=0
6952 On ch=3 n=52 v=109
6956 On ch=3 n=52 v=0
6961 On ch=3 n=55 v=113
6968 On ch=3 n=55 v=0
6986 On ch=3 n=59 v=117
7106 On ch=3 n=54 v=108
7106 On ch=3 n=66 v=112
7125 On ch=3 n=66 v=0
7126 On ch=3 n=54 v=0
7129 On ch=3 n=55 v=107
7130 On ch=3 n=67 v=107
7145 On ch=3 n=55 v=0
7148 On ch=3 n=67 v=0
7167 On ch=3 n=64 v=109
7168 On ch=3 n=52 v=110
7173 On ch=3 n=52 v=0
7173 On ch=3 n=59 v=0
7174 On ch=3 n=64 v=0
7177 On ch=3 n=55 v=117
7178 On ch=3 n=67 v=113
7193 On ch=3 n=67 v=0
7195 On ch=3 n=55 v=0
7201 On ch=3 n=71 v=117
7202 On ch=3 n=59 v=115
7321 On ch=3 n=54 v=107
7321 On ch=3 n=66 v=110
7342 On ch=3 n=54 v=0
7342 On ch=3 n=71 v=0
7343 On ch=3 n=59 v=0
7343 On ch=3 n=66 v=0
7345 On ch=3 n=67 v=104
7346 On ch=3 n=55 v=107
7361 On ch=3 n=67 v=0
7363 On ch=3 n=55 v=0
7383 On ch=3 n=52 v=111
7383 On ch=3 n=64 v=108
7389 On ch=3 n=52 v=0
7390 On ch=3 n=64 v=0
7393 On ch=3 n=55 v=113
7394 On ch=3 n=67 v=116
7410 On ch=3 n=67 v=0
7411 On ch=3 n=55 v=0
7417 On ch=3 n=61 v=110
7418 On ch=3 n=73 v=107
7483 On ch=3 n=61 v=0
7485 On ch=3 n=73 v=0
7490 On ch=3 n=54 v=108
7490 On ch=3 n=66 v=107
7556 On ch=3 n=54 v=0
7557 On ch=3 n=66 v=0
7561 On ch=3 n=66 v=104
7562 On ch=3 n=47 v=103
7579 On ch=3 n=66 v=0
7580 On ch=3 n=47 v=0
7599 On ch=3 n=63 v=111
7600 On ch=3 n=59 v=111
7608 On ch=3 n=59 v=0
7609 On ch=3 n=66 v=116
7626 On ch=3 n=63 v=0
7627 On ch=3 n=66 v=0
7633 On ch=3 n=59 v=109
7634 On ch=3 n=78 v=114
7849 On ch=3 n=47 v=97
7860 On ch=3 n=47 v=0
7898 On ch=3 n=53 v=101
7903 On ch=3 n=53 v=0
7922 On ch=3 n=54 v=100
7935 On ch=3 n=54 v=0
7935 On ch=3 n=78 v=0
7935 On ch=3 n=59 v=0
7959 On ch=3 n=66 v=102
7964 On ch=3 n=66 v=0
7969 On ch=3 n=59 v=98
7974 On ch=3 n=59 v=0
7993 On ch=3 n=47 v=102
7994 On ch=3 n=59 v=106
8009 On ch=3 n=59 v=0
8009 On ch=3 n=47 v=0
8031 On ch=3 n=42 v=107
8032 On ch=3 n=54 v=108
8037 On ch=3 n=54 v=0
8038 On ch=3 n=42 v=0
8042 On ch=3 n=59 v=113
8060 On ch=3 n=59 v=0
8066 On ch=3 n=50 v=124
8066 On ch=3 n=62 v=126
8131 On ch=3 n=50 v=0
8133 On ch=3 n=62 v=0
8137 On ch=3 n=47 v=109
8137 On ch=3 n=59 v=108
8202 On ch=3 n=47 v=0
8205 On ch=3 n=59 v=0
8210 On ch=3 n=50 v=103
8210 On ch=3 n=62 v=103
8226 On ch=3 n=62 v=0
8228 On ch=3 n=50 v=0
8247 On ch=3 n=47 v=112
8248 On ch=3 n=59 v=108
8252 On ch=3 n=47 v=0
8254 On ch=3 n=59 v=0
8257 On ch=3 n=50 v=112
8257 On ch=3 n=62 v=114
8275 On ch=3 n=62 v=0
8275 On ch=3 n=50 v=0
8281 On ch=3 n=54 v=125
8282 On ch=3 n=66 v=124
8348 On ch=3 n=66 v=0
8348 On ch=3 n=54 v=0
8353 On ch=3 n=50 v=108
8353 On ch=3 n=62 v=104
8418 On ch=3 n=50 v=0
8420 On ch=3 n=62 v=0
8425 On ch=3 n=54 v=107
8426 On ch=3 n=66 v=106
8442 On ch=3 n=66 v=0
8443 On ch=3 n=54 v=0
8464 On ch=3 n=50 v=108
8464 On ch=3 n=62 v=111
8471 On ch=3 n=62 v=0
8471 On ch=3 n=50 v=0
8473 On ch=3 n=54 v=113
8473 On ch=3 n=66 v=114
8488 On ch=3 n=66 v=0
8488 On ch=3 n=54 v=0
8498 On ch=3 n=57 v=126
8498 On ch=3 n=69 v=125
8563 On ch=3 n=57 v=0
8566 On ch=3 n=69 v=0
8570 On ch=3 n=45 v=109
8570 On ch=3 n=57 v=107
8637 On ch=3 n=57 v=0
8638 On ch=3 n=45 v=0
8641 On ch=3 n=50 v=104
8642 On ch=3 n=62 v=105
8656 On ch=3 n=50 v=0
8658 On ch=3 n=62 v=0
8679 On ch=3 n=47 v=107
8680 On ch=3 n=59 v=107
8685 On ch=3 n=47 v=0
8686 On ch=3 n=59 v=0
8690 On ch=3 n=50 v=114
8690 On ch=3 n=62 v=114
8708 On ch=3 n=62 v=0
8708 On ch=3 n=50 v=0
8713 On ch=3 n=54 v=122
8714 On ch=3 n=66 v=126
8804 On ch=3 n=54 v=0
8808 On ch=3 n=66 v=0
8833 On ch=3 n=45 v=105
8834 On ch=3 n=57 v=104
8852 On ch=3 n=45 v=0
8853 On ch=3 n=57 v=0
8857 On ch=3 n=62 v=106
8858 On ch=3 n=50 v=103
8875 On ch=3 n=62 v=0
8876 On ch=3 n=50 v=0
8896 On ch=3 n=45 v=110
8896 On ch=3 n=57 v=108
8900 On ch=3 n=45 v=0
8902 On ch=3 n=57 v=0
8906 On ch=3 n=50 v=113
8906 On ch=3 n=62 v=115
8921 On ch=3 n=62 v=0
8921 On ch=3 n=50 v=0
8929 On ch=3 n=54 v=127
8930 On ch=3 n=66 v=127
8997 On ch=3 n=66 v=0
8997 On ch=3 n=54 v=0
9001 On ch=3 n=62 v=107
9002 On ch=3 n=50 v=107
9067 On ch=3 n=50 v=0
9067 On ch=3 n=62 v=0
9073 On ch=3 n=66 v=107
9074 On ch=3 n=54 v=106
9089 On ch=3 n=54 v=0
9089 On ch=3 n=66 v=0
9111 On ch=3 n=50 v=108
9111 On ch=3 n=62 v=109
9116 On ch=3 n=50 v=0
9117 On ch=3 n=62 v=0
9121 On ch=3 n=54 v=112
9122 On ch=3 n=66 v=114
9137 On ch=3 n=54 v=0
9139 On ch=3 n=66 v=0
9145 On ch=3 n=57 v=124
9145 On ch=3 n=69 v=124
9210 On ch=3 n=57 v=0
9213 On ch=3 n=69 v=0
9217 On ch=3 n=54 v=108
9218 On ch=3 n=66 v=106
9285 On ch=3 n=66 v=0
9285 On ch=3 n=54 v=0
9290 On ch=3 n=57 v=115
9290 On ch=3 n=69 v=115
9307 On ch=3 n=57 v=0
9308 On ch=3 n=69 v=0
9327 On ch=3 n=54 v=120
9327 On ch=3 n=66 v=117
9331 On ch=3 n=66 v=0
9333 On ch=3 n=54 v=0
9337 On ch=3 n=57 v=123
9337 On ch=3 n=69 v=124
9354 On ch=3 n=57 v=0
9355 On ch=3 n=69 v=0
9362 On ch=3 n=61 v=126
9362 On ch=3 n=73 v=125
9430 On ch=3 n=73 v=0
9430 On ch=3 n=61 v=0
9433 On ch=3 n=49 v=117
9434 On ch=3 n=61 v=119
9501 On ch=3 n=61 v=0
9501 On ch=3 n=49 v=0
9505 On ch=3 n=54 v=117
9506 On ch=3 n=66 v=117
9521 On ch=3 n=54 v=0
9524 On ch=3 n=66 v=0
9544 On ch=3 n=49 v=121
9544 On ch=3 n=61 v=118
9549 On ch=3 n=61 v=0
9550 On ch=3 n=49 v=0
9553 On ch=3 n=54 v=124
9554 On ch=3 n=66 v=124
9569 On ch=3 n=54 v=0
9571 On ch=3 n=66 v=0
9577 On ch=3 n=58 v=127
9578 On ch=3 n=49 v=127
9589 On ch=3 n=49 v=0
9719 On ch=3 n=58 v=0
9721 On ch=3 n=59 v=81
9787 On ch=3 n=59 v=0
9794 On ch=3 n=63 v=78
9802 On ch=3 n=63 v=0
9830 On ch=3 n=59 v=80
9838 On ch=3 n=59 v=0
9842 On ch=3 n=59 v=81
9842 On ch=3 n=47 v=81
9842 On ch=3 n=63 v=78
9847 On ch=3 n=59 v=0
9848 On ch=3 n=47 v=0
9853 On ch=3 n=47 v=82
9854 On ch=3 n=59 v=81
9858 On ch=3 n=47 v=0
9859 On ch=3 n=59 v=0
9860 On ch=3 n=63 v=0
9865 On ch=3 n=59 v=77
9866 On ch=3 n=47 v=77
9866 On ch=3 n=67 v=78
9882 On ch=3 n=59 v=0
9884 On ch=3 n=47 v=0
9904 On ch=3 n=67 v=0
9913 On ch=3 n=47 v=82
9914 On ch=3 n=55 v=77
9914 On ch=3 n=59 v=78
9918 On ch=3 n=47 v=0
9921 On ch=3 n=59 v=0
9925 On ch=3 n=47 v=81
9926 On ch=3 n=59 v=81
9931 On ch=3 n=47 v=0
9931 On ch=3 n=55 v=0
9932 On ch=3 n=59 v=0
9938 On ch=3 n=59 v=82
10006 On ch=3 n=59 v=0
10010 On ch=3 n=63 v=79
10015 On ch=3 n=63 v=0
10045 On ch=3 n=59 v=77
10053 On ch=3 n=59 v=0
10058 On ch=3 n=59 v=77
10058 On ch=3 n=47 v=81
10058 On ch=3 n=63 v=80
10064 On ch=3 n=59 v=0
10065 On ch=3 n=47 v=0
10069 On ch=3 n=47 v=81
10069 On ch=3 n=59 v=80
10074 On ch=3 n=63 v=0
10075 On ch=3 n=59 v=0
10077 On ch=3 n=47 v=0
10081 On ch=3 n=59 v=87
10081 On ch=3 n=47 v=91
10082 On ch=3 n=67 v=88
10097 On ch=3 n=47 v=0
10097 On ch=3 n=59 v=0
10119 On ch=3 n=67 v=0
10130 On ch=3 n=55 v=101
10130 On ch=3 n=47 v=97
10130 On ch=3 n=59 v=97
10137 On ch=3 n=59 v=0
10138 On ch=3 n=47 v=0
10141 On ch=3 n=47 v=108
10141 On ch=3 n=59 v=111
10146 On ch=3 n=47 v=0
10146 On ch=3 n=55 v=0
10148 On ch=3 n=59 v=0
10154 On ch=3 n=52 v=100
10154 On ch=3 n=64 v=100
10580 On ch=3 n=64 v=0
10581 On ch=3 n=52 v=0
10586 On ch=3 n=57 v=81
10651 On ch=3 n=57 v=0
10657 On ch=3 n=60 v=79
10662 On ch=3 n=60 v=0
10694 On ch=3 n=55 v=81
10700 On ch=3 n=55 v=0
10705 On ch=3 n=52 v=80
10705 On ch=3 n=60 v=77
10711 On ch=3 n=52 v=0
10718 On ch=3 n=52 v=79
10723 On ch=3 n=60 v=0
10725 On ch=3 n=52 v=0
10729 On ch=3 n=52 v=80
10729 On ch=3 n=64 v=80
10745 On ch=3 n=52 v=0
10765 On ch=3 n=64 v=0
10777 On ch=3 n=52 v=78
10782 On ch=3 n=52 v=0
10789 On ch=3 n=52 v=81
10796 On ch=3 n=52 v=0
10801 On ch=3 n=57 v=79
10869 On ch=3 n=57 v=0
10874 On ch=3 n=60 v=80
10881 On ch=3 n=60 v=0
10910 On ch=3 n=55 v=79
10916 On ch=3 n=55 v=0
10921 On ch=3 n=52 v=80
10921 On ch=3 n=60 v=80
10926 On ch=3 n=52 v=0
10934 On ch=3 n=52 v=79
10937 On ch=3 n=60 v=0
10941 On ch=3 n=52 v=0
10945 On ch=3 n=52 v=82
10945 On ch=3 n=64 v=78
10961 On ch=3 n=52 v=0
10982 On ch=3 n=64 v=0
10993 On ch=3 n=52 v=78
11000 On ch=3 n=52 v=0
11006 On ch=3 n=52 v=77
11011 On ch=3 n=52 v=0
11017 On ch=3 n=54 v=102
11018 On ch=3 n=66 v=98
11442 On ch=3 n=54 v=0
11446 On ch=3 n=66 v=0
11569 On ch=3 n=47 v=79
11570 On ch=3 n=59 v=82
11575 On ch=3 n=59 v=0
11575 On ch=3 n=47 v=0
11581 On ch=3 n=47 v=77
11581 On ch=3 n=59 v=78
11587 On ch=3 n=59 v=0
11588 On ch=3 n=47 v=0
11593 On ch=3 n=47 v=79
11593 On ch=3 n=59 v=82
11609 On ch=3 n=59 v=0
11610 On ch=3 n=47 v=0
11785 On ch=3 n=47 v=81
11785 On ch=3 n=59 v=77
11790 On ch=3 n=47 v=0
11793 On ch=3 n=59 v=0
11797 On ch=3 n=59 v=77
11798 On ch=3 n=47 v=79
11803 On ch=3 n=47 v=0
11805 On ch=3 n=59 v=0
11809 On ch=3 n=47 v=78
11810 On ch=3 n=59 v=80
11826 On ch=3 n=47 v=0
11828 On ch=3 n=59 v=0
12001 On ch=3 n=52 v=78
12002 On ch=3 n=40 v=81
12008 On ch=3 n=52 v=0
12009 On ch=3 n=40 v=0
12013 On ch=3 n=40 v=80
12013 On ch=3 n=52 v=82
12019 On ch=3 n=40 v=0
12021 On ch=3 n=52 v=0
12026 On ch=3 n=40 v=77
12026 On ch=3 n=52 v=77
12044 On ch=3 n=52 v=0
12044 On ch=3 n=40 v=0
12097 On ch=3 n=60 v=61
12098 On ch=3 n=52 v=62
12098 On ch=3 n=64 v=61
12098 On ch=3 n=67 v=61
12282 On ch=3 n=60 v=0
12283 On ch=3 n=64 v=0
12284 On ch=3 n=67 v=0
12285 On ch=3 n=52 v=0
12289 On ch=3 n=67 v=57
12290 On ch=3 n=52 v=58
12290 On ch=3 n=64 v=59
12290 On ch=3 n=60 v=60
12294 On ch=3 n=67 v=0
12296 On ch=3 n=60 v=0
12296 On ch=3 n=64 v=0
12297 On ch=3 n=52 v=0
12301 On ch=3 n=60 v=61
12301 On ch=3 n=67 v=62
12302 On ch=3 n=52 v=61
12302 On ch=3 n=64 v=60
12306 On ch=3 n=60 v=0
12307 On ch=3 n=67 v=0
12310 On ch=3 n=52 v=0
12310 On ch=3 n=64 v=0
12313 On ch=3 n=66 v=62
12314 On ch=3 n=54 v=58
12703 On ch=3 n=66 v=0
12704 On ch=3 n=54 v=0
12721 On ch=3 n=66 v=120
12722 On ch=3 n=54 v=117
12734 On ch=3 n=54 v=0
12734 On ch=3 n=66 v=0
12746 On ch=3 n=47 v=126
12746 On ch=3 n=59 v=122
12762 On ch=3 n=59 v=0
12762 On ch=3 n=47 v=0
12783 On ch=3 n=54 v=109
12784 On ch=3 n=42 v=110
12791 On ch=3 n=42 v=0
12791 On ch=3 n=54 v=0
12793 On ch=3 n=47 v=116
12793 On ch=3 n=59 v=115
12811 On ch=3 n=59 v=0
12812 On ch=3 n=47 v=0
12817 On ch=3 n=51 v=124
12817 On ch=3 n=63 v=126
12882 On ch=3 n=63 v=0
12884 On ch=3 n=51 v=0
12889 On ch=3 n=47 v=109
12890 On ch=3 n=59 v=104
12956 On ch=3 n=59 v=0
12956 On ch=3 n=47 v=0
12961 On ch=3 n=51 v=102
12962 On ch=3 n=63 v=103
12979 On ch=3 n=51 v=0
12980 On ch=3 n=63 v=0
12999 On ch=3 n=47 v=111
12999 On ch=3 n=59 v=108
13006 On ch=3 n=47 v=0
13007 On ch=3 n=59 v=0
13010 On ch=3 n=51 v=117
13010 On ch=3 n=63 v=114
13025 On ch=3 n=51 v=0
13026 On ch=3 n=63 v=0
13034 On ch=3 n=54 v=127
13034 On ch=3 n=66 v=126
13099 On ch=3 n=66 v=0
13099 On ch=3 n=54 v=0
13106 On ch=3 n=51 v=106
13106 On ch=3 n=63 v=107
13171 On ch=3 n=63 v=0
13174 On ch=3 n=51 v=0
13177 On ch=3 n=54 v=104
13178 On ch=3 n=66 v=104
13193 On ch=3 n=66 v=0
13193 On ch=3 n=54 v=0
13215 On ch=3 n=63 v=112
13216 On ch=3 n=51 v=110
13220 On ch=3 n=63 v=0
13222 On ch=3 n=51 v=0
13225 On ch=3 n=54 v=115
13225 On ch=3 n=66 v=117
13242 On ch=3 n=66 v=0
13242 On ch=3 n=54 v=0
13249 On ch=3 n=58 v=122
13249 On ch=3 n=70 v=122
13314 On ch=3 n=70 v=0
13317 On ch=3 n=58 v=0
13321 On ch=3 n=58 v=107
13322 On ch=3 n=46 v=109
13387 On ch=3 n=46 v=0
13387 On ch=3 n=58 v=0
13393 On ch=3 n=51 v=105
13393 On ch=3 n=63 v=105
13408 On ch=3 n=63 v=0
13411 On ch=3 n=51 v=0
13432 On ch=3 n=46 v=111
13432 On ch=3 n=58 v=108
13437 On ch=3 n=58 v=0
13437 On ch=3 n=46 v=0
13441 On ch=3 n=51 v=112
13442 On ch=3 n=63 v=117
13458 On ch=3 n=51 v=0
13459 On ch=3 n=63 v=0
13466 On ch=3 n=54 v=127
13466 On ch=3 n=66 v=123
13558 On ch=3 n=66 v=0
13559 On ch=3 n=54 v=0
13586 On ch=3 n=46 v=105
13586 On ch=3 n=58 v=108
13602 On ch=3 n=58 v=0
13602 On ch=3 n=46 v=0
13610 On ch=3 n=51 v=105
13610 On ch=3 n=63 v=107
13626 On ch=3 n=63 v=0
13626 On ch=3 n=51 v=0
13647 On ch=3 n=47 v=110
13648 On ch=3 n=59 v=112
13653 On ch=3 n=59 v=0
13653 On ch=3 n=47 v=0
13657 On ch=3 n=51 v=115
13658 On ch=3 n=63 v=115
13673 On ch=3 n=51 v=0
13674 On ch=3 n=63 v=0
13681 On ch=3 n=54 v=127
13681 On ch=3 n=66 v=123
13746 On ch=3 n=66 v=0
13748 On ch=3 n=54 v=0
13753 On ch=3 n=51 v=108
13754 On ch=3 n=63 v=104
13819 On ch=3 n=63 v=0
13821 On ch=3 n=51 v=0
13826 On ch=3 n=54 v=107
13826 On ch=3 n=66 v=102
13841 On ch=3 n=66 v=0
13844 On ch=3 n=54 v=0
13863 On ch=3 n=51 v=112
13864 On ch=3 n=63 v=109
13868 On ch=3 n=51 v=0
13869 On ch=3 n=63 v=0
13874 On ch=3 n=54 v=114
13874 On ch=3 n=66 v=112
13890 On ch=3 n=54 v=0
13892 On ch=3 n=66 v=0
13898 On ch=3 n=58 v=124
13898 On ch=3 n=70 v=124
13966 On ch=3 n=70 v=0
13966 On ch=3 n=58 v=0
13970 On ch=3 n=54 v=105
13970 On ch=3 n=66 v=108
14035 On ch=3 n=54 v=0
14036 On ch=3 n=66 v=0
14041 On ch=3 n=58 v=102
14042 On ch=3 n=70 v=103
14056 On ch=3 n=58 v=0
14059 On ch=3 n=70 v=0
14079 On ch=3 n=54 v=107
14080 On ch=3 n=66 v=111
14086 On ch=3 n=54 v=0
14088 On ch=3 n=66 v=0
14089 On ch=3 n=58 v=112
14090 On ch=3 n=70 v=114
14104 On ch=3 n=58 v=0
14107 On ch=3 n=70 v=0
14114 On ch=3 n=61 v=126
14114 On ch=3 n=73 v=122
14180 On ch=3 n=61 v=0
14182 On ch=3 n=73 v=0
14185 On ch=3 n=61 v=108
14186 On ch=3 n=49 v=109
14252 On ch=3 n=61 v=0
14253 On ch=3 n=49 v=0
14258 On ch=3 n=54 v=105
14258 On ch=3 n=66 v=106
14274 On ch=3 n=66 v=0
14276 On ch=3 n=54 v=0
14295 On ch=3 n=61 v=109
14296 On ch=3 n=49 v=112
14301 On ch=3 n=61 v=0
14302 On ch=3 n=49 v=0
14305 On ch=3 n=66 v=115
14306 On ch=3 n=54 v=115
14321 On ch=3 n=66 v=0
14323 On ch=3 n=54 v=0
14329 On ch=3 n=58 v=122
14329 On ch=3 n=70 v=122
14421 On ch=3 n=58 v=0
14422 On ch=3 n=70 v=0
14449 On ch=3 n=54 v=109
14449 On ch=3 n=66 v=109
14465 On ch=3 n=66 v=0
14465 On ch=3 n=54 v=0
14473 On ch=3 n=56 v=107
14473 On ch=3 n=68 v=105
14490 On ch=3 n=56 v=0
14491 On ch=3 n=68 v=0
14511 On ch=3 n=52 v=109
14512 On ch=3 n=64 v=112
14517 On ch=3 n=64 v=0
14518 On ch=3 n=52 v=0
14522 On ch=3 n=56 v=113
14522 On ch=3 n=68 v=117
14539 On ch=3 n=56 v=0
14540 On ch=3 n=68 v=0
14545 On ch=3 n=59 v=123
14545 On ch=3 n=71 v=122
14638 On ch=3 n=59 v=0
14639 On ch=3 n=71 v=0
14666 On ch=3 n=54 v=105
14666 On ch=3 n=66 v=107
14683 On ch=3 n=66 v=0
14684 On ch=3 n=54 v=0
14689 On ch=3 n=56 v=106
14689 On ch=3 n=68 v=103
14704 On ch=3 n=56 v=0
14705 On ch=3 n=68 v=0
14727 On ch=3 n=52 v=109
14727 On ch=3 n=64 v=108
14732 On ch=3 n=64 v=0
14733 On ch=3 n=52 v=0
14738 On ch=3 n=56 v=114
14738 On ch=3 n=68 v=113
14754 On ch=3 n=68 v=0
14756 On ch=3 n=56 v=0
14761 On ch=3 n=59 v=126
14761 On ch=3 n=71 v=127
14852 On ch=3 n=71 v=0
14855 On ch=3 n=59 v=0
14882 On ch=3 n=54 v=104
14882 On ch=3 n=66 v=104
14897 On ch=3 n=54 v=0
14899 On ch=3 n=66 v=0
14905 On ch=3 n=56 v=103
14905 On ch=3 n=68 v=107
14920 On ch=3 n=68 v=0
14920 On ch=3 n=56 v=0
14943 On ch=3 n=52 v=112
14944 On ch=3 n=64 v=109
14949 On ch=3 n=52 v=0
14952 On ch=3 n=64 v=0
14953 On ch=3 n=56 v=115
14954 On ch=3 n=68 v=117
14971 On ch=3 n=56 v=0
14972 On ch=3 n=68 v=0
14977 On ch=3 n=61 v=124
14978 On ch=3 n=73 v=122
15043 On ch=3 n=61 v=0
15044 On ch=3 n=73 v=0
15049 On ch=3 n=54 v=106
15049 On ch=3 n=66 v=108
15114 On ch=3 n=54 v=0
15115 On ch=3 n=66 v=0
15121 On ch=3 n=59 v=106
15121 On ch=3 n=71 v=103
15137 On ch=3 n=59 v=0
15139 On ch=3 n=71 v=0
15159 On ch=3 n=54 v=107
15159 On ch=3 n=66 v=110
15165 On ch=3 n=66 v=0
15165 On ch=3 n=54 v=0
15170 On ch=3 n=59 v=117
15170 On ch=3 n=71 v=115
15188 On ch=3 n=71 v=0
15188 On ch=3 n=59 v=0
15193 On ch=3 n=63 v=127
15194 On ch=3 n=75 v=123
15284 On ch=3 n=63 v=0
15287 On ch=3 n=75 v=0
15313 On ch=3 n=66 v=105
15314 On ch=3 n=54 v=104
15328 On ch=3 n=66 v=0
15330 On ch=3 n=54 v=0
15337 On ch=3 n=68 v=104
15338 On ch=3 n=56 v=105
15353 On ch=3 n=56 v=0
15353 On ch=3 n=68 v=0
15375 On ch=3 n=52 v=109
15375 On ch=3 n=64 v=107
15380 On ch=3 n=64 v=0
15382 On ch=3 n=52 v=0
15385 On ch=3 n=68 v=115
15386 On ch=3 n=56 v=114
15401 On ch=3 n=68 v=0
15402 On ch=3 n=56 v=0
15410 On ch=3 n=59 v=127
15410 On ch=3 n=71 v=123
15501 On ch=3 n=59 v=0
15502 On ch=3 n=71 v=0
15530 On ch=3 n=54 v=109
15530 On ch=3 n=66 v=105
15545 On ch=3 n=66 v=0
15548 On ch=3 n=54 v=0
15553 On ch=3 n=56 v=103
15554 On ch=3 n=68 v=106
15571 On ch=3 n=56 v=0
15572 On ch=3 n=68 v=0
15592 On ch=3 n=52 v=108
15592 On ch=3 n=64 v=112
15597 On ch=3 n=52 v=0
15600 On ch=3 n=64 v=0
15601 On ch=3 n=56 v=117
15602 On ch=3 n=68 v=116
15617 On ch=3 n=68 v=0
15619 On ch=3 n=56 v=0
15625 On ch=3 n=59 v=123
15626 On ch=3 n=71 v=122
15719 On ch=3 n=59 v=0
15720 On ch=3 n=71 v=0
15745 On ch=3 n=66 v=107
15746 On ch=3 n=54 v=108
15762 On ch=3 n=66 v=0
15764 On ch=3 n=54 v=0
15770 On ch=3 n=56 v=115
15770 On ch=3 n=68 v=117
15787 On ch=3 n=68 v=0
15787 On ch=3 n=56 v=0
15807 On ch=3 n=52 v=107
15807 On ch=3 n=64 v=110
15814 On ch=3 n=64 v=0
15815 On ch=3 n=52 v=0
15817 On ch=3 n=56 v=117
15818 On ch=3 n=68 v=113
15833 On ch=3 n=56 v=0
15834 On ch=3 n=68 v=0
15842 On ch=3 n=61 v=127
15842 On ch=3 n=73 v=123
15907 On ch=3 n=61 v=0
15908 On ch=3 n=73 v=0
15913 On ch=3 n=54 v=107
15913 On ch=3 n=66 v=104
15979 On ch=3 n=66 v=0
15980 On ch=3 n=54 v=0
15985 On ch=3 n=59 v=107
15986 On ch=3 n=71 v=106
16003 On ch=3 n=71 v=0
16003 On ch=3 n=59 v=0
16021 On ch=3 n=66 v=103
16022 On ch=3 n=54 v=106
16028 On ch=3 n=66 v=0
16029 On ch=3 n=54 v=0
16033 On ch=3 n=71 v=106
16034 On ch=3 n=59 v=105
16050 On ch=3 n=71 v=0
16052 On ch=3 n=59 v=0
16057 On ch=3 n=63 v=115
16058 On ch=3 n=75 v=115
16075 On ch=3 n=63 v=0
16076 On ch=3 n=75 v=0
16093 On ch=3 n=59 v=114
16094 On ch=3 n=71 v=117
16098 On ch=3 n=59 v=0
16101 On ch=3 n=71 v=0
16106 On ch=3 n=63 v=117
16106 On ch=3 n=75 v=117
16123 On ch=3 n=63 v=0
16125 On ch=3 n=75 v=0
16129 On ch=3 n=66 v=126
16130 On ch=3 n=78 v=125
16147 On ch=3 n=78 v=0
16147 On ch=3 n=66 v=0
16165 On ch=3 n=63 v=127
16166 On ch=3 n=75 v=123
16170 On ch=3 n=63 v=0
16172 On ch=3 n=75 v=0
16177 On ch=3 n=66 v=122
16178 On ch=3 n=78 v=122
16195 On ch=3 n=66 v=0
16196 On ch=3 n=78 v=0
16201 On ch=3 n=55 v=97
16201 On ch=3 n=71 v=98
16202 On ch=3 n=59 v=117
16219 On ch=3 n=59 v=0
16321 On ch=3 n=47 v=101
16321 On ch=3 n=59 v=98
16326 On ch=3 n=59 v=0
16327 On ch=3 n=47 v=0
16333 On ch=3 n=47 v=101
16334 On ch=3 n=59 v=100
16339 On ch=3 n=59 v=0
16341 On ch=3 n=47 v=0
16346 On ch=3 n=47 v=98
16346 On ch=3 n=59 v=98
16361 On ch=3 n=47 v=0
16362 On ch=3 n=59 v=0
16387 On ch=3 n=55 v=0
16388 On ch=3 n=71 v=0
16394 On ch=3 n=47 v=97
16394 On ch=3 n=59 v=98
16399 On ch=3 n=59 v=0
16399 On ch=3 n=47 v=0
16406 On ch=3 n=47 v=97
16406 On ch=3 n=49 v=100
16411 On ch=3 n=47 v=0
16413 On ch=3 n=49 v=0
16417 On ch=3 n=55 v=102
16418 On ch=3 n=71 v=102
16537 On ch=3 n=47 v=100
16538 On ch=3 n=59 v=98
16544 On ch=3 n=47 v=0
16546 On ch=3 n=59 v=0
16549 On ch=3 n=47 v=99
16550 On ch=3 n=59 v=99
16555 On ch=3 n=59 v=0
16556 On ch=3 n=47 v=0
16561 On ch=3 n=59 v=101
16562 On ch=3 n=47 v=101
16579 On ch=3 n=47 v=0
16579 On ch=3 n=59 v=0
16604 On ch=3 n=71 v=0
16604 On ch=3 n=55 v=0
16610 On ch=3 n=47 v=98
16610 On ch=3 n=59 v=99
16615 On ch=3 n=47 v=0
16617 On ch=3 n=59 v=0
16621 On ch=3 n=47 v=97
16622 On ch=3 n=49 v=99
16628 On ch=3 n=47 v=0
16629 On ch=3 n=49 v=0
16633 On ch=3 n=52 v=98
16634 On ch=3 n=64 v=100
16821 On ch=3 n=64 v=0
16821 On ch=3 n=52 v=0
16825 On ch=3 n=52 v=98
16825 On ch=3 n=64 v=100
16833 On ch=3 n=52 v=0
16834 On ch=3 n=64 v=0
16837 On ch=3 n=64 v=97
16838 On ch=3 n=52 v=102
16842 On ch=3 n=64 v=0
16846 On ch=3 n=52 v=0
16849 On ch=3 n=52 v=102
16850 On ch=3 n=64 v=100
17052 On ch=3 n=52 v=0
17054 On ch=3 n=64 v=0
17185 On ch=3 n=64 v=100
17186 On ch=3 n=52 v=99
17190 On ch=3 n=64 v=0
17192 On ch=3 n=52 v=0
17197 On ch=3 n=52 v=97
17198 On ch=3 n=64 v=102
17205 On ch=3 n=52 v=0
17206 On ch=3 n=64 v=0
17209 On ch=3 n=52 v=99
17210 On ch=3 n=64 v=100
17225 On ch=3 n=52 v=0
17228 On ch=3 n=64 v=0
17257 On ch=3 n=64 v=97
17258 On ch=3 n=52 v=98
17265 On ch=3 n=52 v=0
17265 On ch=3 n=64 v=0
17269 On ch=3 n=52 v=102
17269 On ch=3 n=64 v=101
17274 On ch=3 n=64 v=0
17274 On ch=3 n=52 v=0
17401 On ch=3 n=52 v=100
17401 On ch=3 n=64 v=101
17407 On ch=3 n=52 v=0
17408 On ch=3 n=64 v=0
17413 On ch=3 n=64 v=100
17414 On ch=3 n=52 v=98
17419 On ch=3 n=64 v=0
17421 On ch=3 n=52 v=0
17426 On ch=3 n=52 v=97
17426 On ch=3 n=64 v=99
17441 On ch=3 n=64 v=0
17444 On ch=3 n=52 v=0
17473 On ch=3 n=52 v=100
17473 On ch=3 n=64 v=99
17480 On ch=3 n=64 v=0
17481 On ch=3 n=52 v=0
17485 On ch=3 n=52 v=100
17486 On ch=3 n=64 v=100
17491 On ch=3 n=64 v=0
17492 On ch=3 n=52 v=0
17497 On ch=3 n=54 v=99
17497 On ch=3 n=66 v=99
17682 On ch=3 n=66 v=0
17684 On ch=3 n=54 v=0
17690 On ch=3 n=54 v=98
17690 On ch=3 n=66 v=101
17695 On ch=3 n=54 v=0
17697 On ch=3 n=66 v=0
17701 On ch=3 n=54 v=97
17701 On ch=3 n=66 v=97
17706 On ch=3 n=54 v=0
17708 On ch=3 n=66 v=0
17713 On ch=3 n=66 v=102
17714 On ch=3 n=54 v=101
17919 On ch=3 n=66 v=0
17920 On ch=3 n=54 v=0
18049 On ch=3 n=47 v=69
18049 On ch=3 n=59 v=70
18055 On ch=3 n=47 v=0
18057 On ch=3 n=59 v=0
18061 On ch=3 n=47 v=72
18062 On ch=3 n=59 v=71
18067 On ch=3 n=47 v=0
18069 On ch=3 n=59 v=0
18074 On ch=3 n=47 v=72
18074 On ch=3 n=59 v=69
18092 On ch=3 n=59 v=0
18092 On ch=3 n=47 v=0
18121 On ch=3 n=47 v=69
18121 On ch=3 n=59 v=69
18127 On ch=3 n=59 v=0
18129 On ch=3 n=47 v=0
18134 On ch=3 n=47 v=68
18134 On ch=3 n=59 v=71
18139 On ch=3 n=47 v=0
18141 On ch=3 n=59 v=0
18146 On ch=3 n=47 v=67
18146 On ch=3 n=59 v=67
18163 On ch=3 n=47 v=0
18164 On ch=3 n=59 v=0
18265 On ch=3 n=59 v=70
18266 On ch=3 n=47 v=67
18271 On ch=3 n=59 v=0
18273 On ch=3 n=47 v=0
18277 On ch=3 n=59 v=70
18278 On ch=3 n=47 v=70
18283 On ch=3 n=47 v=0
18285 On ch=3 n=59 v=0
18289 On ch=3 n=47 v=70
18290 On ch=3 n=59 v=68
18305 On ch=3 n=47 v=0
18308 On ch=3 n=59 v=0
18338 On ch=3 n=47 v=71
18338 On ch=3 n=59 v=70
18343 On ch=3 n=47 v=0
18346 On ch=3 n=59 v=0
18349 On ch=3 n=47 v=72
18349 On ch=3 n=59 v=68
18356 On ch=3 n=47 v=0
18357 On ch=3 n=59 v=0
18362 On ch=3 n=48 v=80
18362 On ch=3 n=60 v=79
18430 On ch=3 n=60 v=0
18430 On ch=3 n=48 v=0
18433 On ch=3 n=52 v=81
18434 On ch=3 n=64 v=81
18448 On ch=3 n=52 v=0
18451 On ch=3 n=64 v=0
18469 On ch=3 n=48 v=82
18469 On ch=3 n=60 v=82
18476 On ch=3 n=60 v=0
18477 On ch=3 n=48 v=0
18481 On ch=3 n=64 v=81
18482 On ch=3 n=52 v=77
18497 On ch=3 n=52 v=0
18498 On ch=3 n=64 v=0
18505 On ch=3 n=55 v=78
18505 On ch=3 n=67 v=82
18530 On ch=3 n=67 v=0
18531 On ch=3 n=55 v=0
18553 On ch=3 n=55 v=79
18554 On ch=3 n=43 v=79
18569 On ch=3 n=43 v=0
18570 On ch=3 n=55 v=0
18577 On ch=3 n=60 v=79
18578 On ch=3 n=48 v=79
18643 On ch=3 n=48 v=0
18643 On ch=3 n=60 v=0
18650 On ch=3 n=52 v=80
18650 On ch=3 n=64 v=79
18666 On ch=3 n=64 v=0
18668 On ch=3 n=52 v=0
18686 On ch=3 n=48 v=79
18686 On ch=3 n=60 v=79
18694 On ch=3 n=60 v=0
18694 On ch=3 n=48 v=0
18697 On ch=3 n=52 v=81
18697 On ch=3 n=64 v=78
18712 On ch=3 n=64 v=0
18712 On ch=3 n=52 v=0
18721 On ch=3 n=55 v=79
18722 On ch=3 n=67 v=78
18746 On ch=3 n=55 v=0
18749 On ch=3 n=67 v=0
18770 On ch=3 n=43 v=77
18770 On ch=3 n=55 v=78
18785 On ch=3 n=55 v=0
18787 On ch=3 n=43 v=0
18793 On ch=3 n=61 v=79
18793 On ch=3 n=70 v=77
19219 On ch=3 n=70 v=0
19220 On ch=3 n=61 v=0
19225 On ch=3 n=66 v=80
19226 On ch=3 n=63 v=79
19226 On ch=3 n=59 v=77
19675 On ch=3 n=66 v=0
19676 On ch=3 n=59 v=0
19678 On ch=3 n=63 v=0
20953 On ch=3 n=54 v=120
20954 On ch=3 n=59 v=119
20954 On ch=3 n=63 v=118
20954 On ch=3 n=66 v=118
20969 On ch=3 n=63 v=0
20969 On ch=3 n=54 v=0
20969 On ch=3 n=59 v=0
20973 On ch=3 n=66 v=0
20973 Meta TrkEnd
TrkEnd
MTrk
0 Meta 0x21 00
0 Meta TrkName "French Horns"
0 PrCh ch=4 p=60
0 Par ch=4 c=7 v=117
0 Par ch=4 c=10 v=32
0 Par ch=4 c=93 v=50
0 Par ch=4 c=91 v=100
1 Par ch=4 c=11 v=127
1151 On ch=4 n=47 v=60
1161 On ch=4 n=47 v=0
1189 On ch=4 n=59 v=48
1194 On ch=4 n=59 v=0
1199 On ch=4 n=54 v=50
1206 On ch=4 n=54 v=0
1223 On ch=4 n=54 v=60
1234 On ch=4 n=54 v=0
1261 On ch=4 n=66 v=61
1269 On ch=4 n=66 v=0
1271 On ch=4 n=59 v=47
1289 On ch=4 n=59 v=0
1296 On ch=4 n=59 v=79
1315 On ch=4 n=59 v=0
1368 On ch=4 n=47 v=57
1379 On ch=4 n=47 v=0
1405 On ch=4 n=59 v=50
1413 On ch=4 n=59 v=0
1415 On ch=4 n=54 v=50
1421 On ch=4 n=54 v=0
1440 On ch=4 n=54 v=60
1451 On ch=4 n=54 v=0
1478 On ch=4 n=66 v=58
1485 On ch=4 n=66 v=0
1487 On ch=4 n=59 v=50
1495 On ch=4 n=59 v=0
1512 On ch=4 n=59 v=82
1529 On ch=4 n=59 v=0
1584 On ch=4 n=47 v=57
1597 On ch=4 n=47 v=0
1621 On ch=4 n=59 v=47
1627 On ch=4 n=59 v=0
1631 On ch=4 n=54 v=50
1637 On ch=4 n=54 v=0
1656 On ch=4 n=54 v=57
1669 On ch=4 n=54 v=0
1694 On ch=4 n=66 v=62
1700 On ch=4 n=66 v=0
1704 On ch=4 n=59 v=52
1711 On ch=4 n=59 v=0
1727 On ch=4 n=59 v=82
1742 On ch=4 n=59 v=0
1799 On ch=4 n=47 v=57
1812 On ch=4 n=47 v=0
1837 On ch=4 n=59 v=49
1844 On ch=4 n=59 v=0
1848 On ch=4 n=54 v=50
1856 On ch=4 n=54 v=0
1871 On ch=4 n=54 v=62
1883 On ch=4 n=54 v=0
1909 On ch=4 n=66 v=60
1916 On ch=4 n=66 v=0
1919 On ch=4 n=59 v=52
1925 On ch=4 n=59 v=0
1943 On ch=4 n=59 v=78
1958 On ch=4 n=59 v=0
2015 On ch=4 n=47 v=58
2028 On ch=4 n=47 v=0
2053 On ch=4 n=59 v=52
2060 On ch=4 n=59 v=0
2063 On ch=4 n=54 v=51
2069 On ch=4 n=54 v=0
2087 On ch=4 n=54 v=60
2100 On ch=4 n=54 v=0
2125 On ch=4 n=66 v=57
2131 On ch=4 n=66 v=0
2136 On ch=4 n=59 v=50
2142 On ch=4 n=59 v=0
2159 On ch=4 n=59 v=79
2175 On ch=4 n=59 v=0
2232 On ch=4 n=47 v=58
2241 On ch=4 n=47 v=0
2269 On ch=4 n=59 v=50
2276 On ch=4 n=59 v=0
2279 On ch=4 n=54 v=52
2285 On ch=4 n=54 v=0
2303 On ch=4 n=54 v=57
2314 On ch=4 n=54 v=0
2342 On ch=4 n=66 v=58
2348 On ch=4 n=66 v=0
2352 On ch=4 n=59 v=48
2359 On ch=4 n=59 v=0
2376 On ch=4 n=59 v=78
2394 On ch=4 n=59 v=0
2447 On ch=4 n=47 v=57
2459 On ch=4 n=47 v=0
2485 On ch=4 n=59 v=49
2490 On ch=4 n=59 v=0
2496 On ch=4 n=54 v=47
2502 On ch=4 n=54 v=0
2520 On ch=4 n=54 v=61
2530 On ch=4 n=54 v=0
2557 On ch=4 n=66 v=60
2564 On ch=4 n=66 v=0
2567 On ch=4 n=59 v=51
2572 On ch=4 n=59 v=0
2591 On ch=4 n=59 v=82
2610 On ch=4 n=59 v=0
2663 On ch=4 n=47 v=57
2674 On ch=4 n=47 v=0
2701 On ch=4 n=59 v=51
2707 On ch=4 n=59 v=0
2712 On ch=4 n=54 v=48
2720 On ch=4 n=54 v=0
2735 On ch=4 n=54 v=61
2747 On ch=4 n=54 v=0
2773 On ch=4 n=66 v=62
2780 On ch=4 n=66 v=0
2784 On ch=4 n=54 v=102
2784 On ch=4 n=59 v=49
2790 On ch=4 n=59 v=0
2799 On ch=4 n=54 v=0
3528 On ch=4 n=50 v=78
3548 On ch=4 n=50 v=0
3565 On ch=4 n=62 v=52
3570 On ch=4 n=62 v=0
3576 On ch=4 n=57 v=67
3589 On ch=4 n=57 v=0
3599 On ch=4 n=57 v=78
3621 On ch=4 n=57 v=0
3743 On ch=4 n=50 v=82
3766 On ch=4 n=50 v=0
3782 On ch=4 n=62 v=47
3790 On ch=4 n=62 v=0
3792 On ch=4 n=57 v=67
3805 On ch=4 n=57 v=0
3815 On ch=4 n=57 v=79
3838 On ch=4 n=57 v=0
3960 On ch=4 n=50 v=82
3983 On ch=4 n=50 v=0
3998 On ch=4 n=62 v=51
4004 On ch=4 n=62 v=0
4008 On ch=4 n=57 v=70
4021 On ch=4 n=57 v=0
4032 On ch=4 n=57 v=82
4055 On ch=4 n=57 v=0
4176 On ch=4 n=50 v=82
4197 On ch=4 n=50 v=0
4214 On ch=4 n=62 v=49
4223 On ch=4 n=62 v=0
4224 On ch=4 n=57 v=67
4239 On ch=4 n=57 v=0
4247 On ch=4 n=57 v=81
4268 On ch=4 n=57 v=0
5040 On ch=4 n=49 v=81
5060 On ch=4 n=49 v=0
5076 On ch=4 n=61 v=48
5084 On ch=4 n=61 v=0
5087 On ch=4 n=54 v=68
5100 On ch=4 n=54 v=0
5111 On ch=4 n=54 v=80
5134 On ch=4 n=54 v=0
5256 On ch=4 n=49 v=80
5268 On ch=4 n=49 v=0
5294 On ch=4 n=61 v=82
5300 On ch=4 n=61 v=0
5303 On ch=4 n=54 v=81
5315 On ch=4 n=54 v=0
5328 On ch=4 n=54 v=77
5341 On ch=4 n=54 v=0
5471 On ch=4 n=49 v=80
5484 On ch=4 n=49 v=0
5510 On ch=4 n=61 v=79
5517 On ch=4 n=61 v=0
5519 On ch=4 n=54 v=82
5525 On ch=4 n=54 v=0
5544 On ch=4 n=54 v=82
5556 On ch=4 n=54 v=0
5687 On ch=4 n=49 v=82
5697 On ch=4 n=49 v=0
5726 On ch=4 n=61 v=52
5734 On ch=4 n=61 v=0
5735 On ch=4 n=54 v=72
5741 On ch=4 n=54 v=0
5759 On ch=4 n=54 v=78
5771 On ch=4 n=54 v=0
6551 On ch=4 n=47 v=82
6564 On ch=4 n=47 v=0
6590 On ch=4 n=59 v=48
6595 On ch=4 n=59 v=0
6600 On ch=4 n=54 v=70
6606 On ch=4 n=54 v=0
6624 On ch=4 n=54 v=82
6635 On ch=4 n=54 v=0
6662 On ch=4 n=66 v=78
6668 On ch=4 n=66 v=0
6671 On ch=4 n=59 v=79
6677 On ch=4 n=59 v=0
6767 On ch=4 n=47 v=80
6780 On ch=4 n=47 v=0
6805 On ch=4 n=59 v=47
6812 On ch=4 n=59 v=0
6816 On ch=4 n=54 v=72
6823 On ch=4 n=54 v=0
6839 On ch=4 n=54 v=80
6849 On ch=4 n=54 v=0
8041 On ch=4 n=47 v=117
8059 On ch=4 n=47 v=0
9615 On ch=4 n=61 v=124
9620 On ch=4 n=61 v=0
9626 On ch=4 n=54 v=127
9635 On ch=4 n=54 v=0
9649 On ch=4 n=54 v=127
9666 On ch=4 n=54 v=0
9687 On ch=4 n=66 v=127
9693 On ch=4 n=66 v=0
9698 On ch=4 n=61 v=127
9704 On ch=4 n=61 v=0
11570 On ch=4 n=47 v=79
11571 On ch=4 n=59 v=82
11576 On ch=4 n=59 v=0
11576 On ch=4 n=47 v=0
11582 On ch=4 n=47 v=77
11582 On ch=4 n=59 v=78
11588 On ch=4 n=59 v=0
11589 On ch=4 n=47 v=0
11594 On ch=4 n=59 v=82
11594 On ch=4 n=47 v=79
11610 On ch=4 n=59 v=0
11611 On ch=4 n=47 v=0
11786 On ch=4 n=47 v=81
11786 On ch=4 n=59 v=77
11791 On ch=4 n=47 v=0
11794 On ch=4 n=59 v=0
11798 On ch=4 n=59 v=77
11799 On ch=4 n=47 v=79
11804 On ch=4 n=47 v=0
11806 On ch=4 n=59 v=0
11810 On ch=4 n=47 v=78
11811 On ch=4 n=59 v=80
11827 On ch=4 n=47 v=0
11829 On ch=4 n=59 v=0
12002 On ch=4 n=52 v=78
12003 On ch=4 n=40 v=81
12009 On ch=4 n=52 v=0
12010 On ch=4 n=40 v=0
12014 On ch=4 n=52 v=82
12014 On ch=4 n=40 v=80
12020 On ch=4 n=40 v=0
12022 On ch=4 n=52 v=0
12027 On ch=4 n=52 v=77
12027 On ch=4 n=40 v=77
12045 On ch=4 n=40 v=0
12045 On ch=4 n=52 v=0
12722 On ch=4 n=54 v=117
12734 On ch=4 n=54 v=0
12746 On ch=4 n=47 v=126
12762 On ch=4 n=47 v=0
12784 On ch=4 n=42 v=110
12791 On ch=4 n=42 v=0
12793 On ch=4 n=47 v=116
12812 On ch=4 n=47 v=0
12817 On ch=4 n=51 v=124
12884 On ch=4 n=51 v=0
12889 On ch=4 n=47 v=109
12956 On ch=4 n=47 v=0
12961 On ch=4 n=51 v=102
12979 On ch=4 n=51 v=0
12999 On ch=4 n=47 v=111
13006 On ch=4 n=47 v=0
13010 On ch=4 n=51 v=117
13025 On ch=4 n=51 v=0
13034 On ch=4 n=54 v=127
13099 On ch=4 n=54 v=0
13106 On ch=4 n=51 v=106
13174 On ch=4 n=51 v=0
13177 On ch=4 n=54 v=104
13193 On ch=4 n=54 v=0
13216 On ch=4 n=51 v=110
13222 On ch=4 n=51 v=0
13225 On ch=4 n=54 v=115
13242 On ch=4 n=54 v=0
13249 On ch=4 n=58 v=122
13317 On ch=4 n=58 v=0
13322 On ch=4 n=46 v=109
13387 On ch=4 n=46 v=0
13393 On ch=4 n=51 v=105
13411 On ch=4 n=51 v=0
13432 On ch=4 n=46 v=111
13437 On ch=4 n=46 v=0
13441 On ch=4 n=51 v=112
13458 On ch=4 n=51 v=0
13466 On ch=4 n=54 v=127
13559 On ch=4 n=54 v=0
13586 On ch=4 n=46 v=105
13602 On ch=4 n=46 v=0
13610 On ch=4 n=51 v=105
13626 On ch=4 n=51 v=0
13647 On ch=4 n=47 v=110
13653 On ch=4 n=47 v=0
13657 On ch=4 n=51 v=115
13673 On ch=4 n=51 v=0
13681 On ch=4 n=54 v=127
13748 On ch=4 n=54 v=0
13753 On ch=4 n=51 v=108
13821 On ch=4 n=51 v=0
13826 On ch=4 n=54 v=107
13844 On ch=4 n=54 v=0
13863 On ch=4 n=51 v=112
13868 On ch=4 n=51 v=0
13874 On ch=4 n=54 v=114
13890 On ch=4 n=54 v=0
13898 On ch=4 n=58 v=124
13966 On ch=4 n=58 v=0
13970 On ch=4 n=54 v=105
14035 On ch=4 n=54 v=0
14041 On ch=4 n=58 v=102
14056 On ch=4 n=58 v=0
14079 On ch=4 n=54 v=107
14086 On ch=4 n=54 v=0
14089 On ch=4 n=58 v=112
14104 On ch=4 n=58 v=0
14114 On ch=4 n=61 v=126
14180 On ch=4 n=61 v=0
14186 On ch=4 n=49 v=109
14253 On ch=4 n=49 v=0
14258 On ch=4 n=54 v=105
14276 On ch=4 n=54 v=0
14296 On ch=4 n=49 v=112
14302 On ch=4 n=49 v=0
14306 On ch=4 n=54 v=115
14323 On ch=4 n=54 v=0
14329 On ch=4 n=58 v=122
14421 On ch=4 n=58 v=0
14449 On ch=4 n=54 v=109
14465 On ch=4 n=54 v=0
14473 On ch=4 n=56 v=107
14490 On ch=4 n=56 v=0
14511 On ch=4 n=52 v=109
14518 On ch=4 n=52 v=0
14522 On ch=4 n=56 v=113
14539 On ch=4 n=56 v=0
14545 On ch=4 n=59 v=123
14638 On ch=4 n=59 v=0
14666 On ch=4 n=54 v=105
14684 On ch=4 n=54 v=0
14689 On ch=4 n=56 v=106
14704 On ch=4 n=56 v=0
14727 On ch=4 n=52 v=109
14733 On ch=4 n=52 v=0
14738 On ch=4 n=56 v=114
14756 On ch=4 n=56 v=0
14761 On ch=4 n=59 v=126
14855 On ch=4 n=59 v=0
14882 On ch=4 n=54 v=104
14897 On ch=4 n=54 v=0
14905 On ch=4 n=56 v=103
14920 On ch=4 n=56 v=0
14943 On ch=4 n=52 v=112
14949 On ch=4 n=52 v=0
14953 On ch=4 n=56 v=115
14971 On ch=4 n=56 v=0
14977 On ch=4 n=61 v=124
15043 On ch=4 n=61 v=0
15049 On ch=4 n=54 v=106
15114 On ch=4 n=54 v=0
15121 On ch=4 n=59 v=106
15137 On ch=4 n=59 v=0
15159 On ch=4 n=54 v=107
15165 On ch=4 n=54 v=0
15170 On ch=4 n=59 v=117
15188 On ch=4 n=59 v=0
15193 On ch=4 n=63 v=127
15284 On ch=4 n=63 v=0
15314 On ch=4 n=54 v=104
15330 On ch=4 n=54 v=0
15338 On ch=4 n=56 v=105
15353 On ch=4 n=56 v=0
15375 On ch=4 n=52 v=109
15382 On ch=4 n=52 v=0
15386 On ch=4 n=56 v=114
15402 On ch=4 n=56 v=0
15410 On ch=4 n=59 v=127
15501 On ch=4 n=59 v=0
15530 On ch=4 n=54 v=109
15548 On ch=4 n=54 v=0
15553 On ch=4 n=56 v=103
15571 On ch=4 n=56 v=0
15592 On ch=4 n=52 v=108
15597 On ch=4 n=52 v=0
15601 On ch=4 n=56 v=117
15619 On ch=4 n=56 v=0
15625 On ch=4 n=59 v=123
15719 On ch=4 n=59 v=0
15746 On ch=4 n=54 v=108
15764 On ch=4 n=54 v=0
15770 On ch=4 n=56 v=115
15787 On ch=4 n=56 v=0
15807 On ch=4 n=52 v=107
15815 On ch=4 n=52 v=0
15817 On ch=4 n=56 v=117
15833 On ch=4 n=56 v=0
15842 On ch=4 n=61 v=127
15907 On ch=4 n=61 v=0
15913 On ch=4 n=54 v=107
15980 On ch=4 n=54 v=0
15985 On ch=4 n=59 v=107
16003 On ch=4 n=59 v=0
16022 On ch=4 n=54 v=106
16029 On ch=4 n=54 v=0
16034 On ch=4 n=59 v=105
16052 On ch=4 n=59 v=0
16057 On ch=4 n=63 v=115
16075 On ch=4 n=63 v=0
16093 On ch=4 n=59 v=114
16098 On ch=4 n=59 v=0
16106 On ch=4 n=63 v=117
16123 On ch=4 n=63 v=0
16129 On ch=4 n=66 v=126
16147 On ch=4 n=66 v=0
16165 On ch=4 n=63 v=127
16170 On ch=4 n=63 v=0
16177 On ch=4 n=66 v=122
16195 On ch=4 n=66 v=0
16201 On ch=4 n=55 v=97
16202 On ch=4 n=59 v=117
16219 On ch=4 n=59 v=0
16321 On ch=4 n=47 v=101
16327 On ch=4 n=47 v=0
16333 On ch=4 n=47 v=101
16341 On ch=4 n=47 v=0
16346 On ch=4 n=47 v=98
16361 On ch=4 n=47 v=0
16387 On ch=4 n=55 v=0
16394 On ch=4 n=47 v=97
16399 On ch=4 n=47 v=0
16406 On ch=4 n=49 v=100
16406 On ch=4 n=47 v=97
16411 On ch=4 n=47 v=0
16413 On ch=4 n=49 v=0
16417 On ch=4 n=55 v=102
16537 On ch=4 n=47 v=100
16544 On ch=4 n=47 v=0
16549 On ch=4 n=47 v=99
16556 On ch=4 n=47 v=0
16562 On ch=4 n=47 v=101
16579 On ch=4 n=47 v=0
16604 On ch=4 n=55 v=0
16610 On ch=4 n=47 v=98
16615 On ch=4 n=47 v=0
16621 On ch=4 n=47 v=97
16622 On ch=4 n=49 v=99
16628 On ch=4 n=47 v=0
16629 On ch=4 n=49 v=0
16633 On ch=4 n=52 v=98
16821 On ch=4 n=52 v=0
16825 On ch=4 n=52 v=98
16833 On ch=4 n=52 v=0
16838 On ch=4 n=52 v=102
16846 On ch=4 n=52 v=0
16849 On ch=4 n=52 v=102
17052 On ch=4 n=52 v=0
17186 On ch=4 n=52 v=99
17192 On ch=4 n=52 v=0
17197 On ch=4 n=52 v=97
17205 On ch=4 n=52 v=0
17209 On ch=4 n=52 v=99
17225 On ch=4 n=52 v=0
17258 On ch=4 n=52 v=98
17265 On ch=4 n=52 v=0
17269 On ch=4 n=52 v=102
17274 On ch=4 n=52 v=0
17401 On ch=4 n=52 v=100
17407 On ch=4 n=52 v=0
17414 On ch=4 n=52 v=98
17421 On ch=4 n=52 v=0
17426 On ch=4 n=52 v=97
17444 On ch=4 n=52 v=0
17473 On ch=4 n=52 v=100
17481 On ch=4 n=52 v=0
17485 On ch=4 n=52 v=100
17492 On ch=4 n=52 v=0
17497 On ch=4 n=54 v=99
17684 On ch=4 n=54 v=0
17690 On ch=4 n=54 v=98
17695 On ch=4 n=54 v=0
17701 On ch=4 n=54 v=97
17706 On ch=4 n=54 v=0
17714 On ch=4 n=54 v=101
17920 On ch=4 n=54 v=0
18049 On ch=4 n=47 v=69
18055 On ch=4 n=47 v=0
18061 On ch=4 n=47 v=72
18067 On ch=4 n=47 v=0
18074 On ch=4 n=47 v=72
18092 On ch=4 n=47 v=0
18121 On ch=4 n=47 v=69
18129 On ch=4 n=47 v=0
18134 On ch=4 n=47 v=68
18139 On ch=4 n=47 v=0
18146 On ch=4 n=47 v=67
18163 On ch=4 n=47 v=0
18266 On ch=4 n=47 v=67
18273 On ch=4 n=47 v=0
18278 On ch=4 n=47 v=70
18283 On ch=4 n=47 v=0
18289 On ch=4 n=47 v=70
18305 On ch=4 n=47 v=0
18338 On ch=4 n=47 v=71
18343 On ch=4 n=47 v=0
18349 On ch=4 n=47 v=72
18356 On ch=4 n=47 v=0
18362 On ch=4 n=48 v=80
18430 On ch=4 n=48 v=0
18433 On ch=4 n=52 v=81
18448 On ch=4 n=52 v=0
18469 On ch=4 n=48 v=82
18477 On ch=4 n=48 v=0
18482 On ch=4 n=52 v=77
18497 On ch=4 n=52 v=0
18505 On ch=4 n=55 v=78
18531 On ch=4 n=55 v=0
18553 On ch=4 n=55 v=79
18554 On ch=4 n=43 v=79
18569 On ch=4 n=43 v=0
18570 On ch=4 n=55 v=0
18578 On ch=4 n=48 v=79
18643 On ch=4 n=48 v=0
18650 On ch=4 n=52 v=80
18668 On ch=4 n=52 v=0
18686 On ch=4 n=48 v=79
18694 On ch=4 n=48 v=0
18697 On ch=4 n=52 v=81
18712 On ch=4 n=52 v=0
18721 On ch=4 n=55 v=79
18746 On ch=4 n=55 v=0
18770 On ch=4 n=43 v=77
18770 On ch=4 n=55 v=78
18785 On ch=4 n=55 v=0
18787 On ch=4 n=43 v=0
18793 On ch=4 n=61 v=79
19220 On ch=4 n=61 v=0
19226 On ch=4 n=63 v=79
19226 On ch=4 n=59 v=77
19676 On ch=4 n=59 v=0
19678 On ch=4 n=63 v=0
20953 On ch=4 n=54 v=120
20954 On ch=4 n=59 v=119
20969 On ch=4 n=59 v=0
20969 On ch=4 n=54 v=0
20969 Meta TrkEnd
TrkEnd
MTrk
0 Meta 0x21 00
0 Meta TrkName "Trombones"
0 PrCh ch=5 p=57
0 Par ch=5 c=7 v=117
0 Par ch=5 c=10 v=64
0 Par ch=5 c=93 v=50
0 Par ch=5 c=91 v=100
1 Par ch=5 c=11 v=127
12721 On ch=5 n=66 v=120
12734 On ch=5 n=66 v=0
12746 On ch=5 n=59 v=122
12762 On ch=5 n=59 v=0
12783 On ch=5 n=54 v=109
12791 On ch=5 n=54 v=0
12793 On ch=5 n=59 v=115
12811 On ch=5 n=59 v=0
12817 On ch=5 n=63 v=126
12882 On ch=5 n=63 v=0
12890 On ch=5 n=59 v=104
12956 On ch=5 n=59 v=0
12962 On ch=5 n=63 v=103
12980 On ch=5 n=63 v=0
12999 On ch=5 n=59 v=108
13007 On ch=5 n=59 v=0
13010 On ch=5 n=63 v=114
13026 On ch=5 n=63 v=0
13034 On ch=5 n=66 v=126
13099 On ch=5 n=66 v=0
13106 On ch=5 n=63 v=107
13171 On ch=5 n=63 v=0
13178 On ch=5 n=66 v=104
13193 On ch=5 n=66 v=0
13215 On ch=5 n=63 v=112
13220 On ch=5 n=63 v=0
13225 On ch=5 n=66 v=117
13242 On ch=5 n=66 v=0
13249 On ch=5 n=70 v=122
13314 On ch=5 n=70 v=0
13321 On ch=5 n=58 v=107
13387 On ch=5 n=58 v=0
13393 On ch=5 n=63 v=105
13408 On ch=5 n=63 v=0
13432 On ch=5 n=58 v=108
13437 On ch=5 n=58 v=0
13442 On ch=5 n=63 v=117
13459 On ch=5 n=63 v=0
13466 On ch=5 n=66 v=123
13558 On ch=5 n=66 v=0
13586 On ch=5 n=58 v=108
13602 On ch=5 n=58 v=0
13610 On ch=5 n=63 v=107
13626 On ch=5 n=63 v=0
13648 On ch=5 n=59 v=112
13653 On ch=5 n=59 v=0
13658 On ch=5 n=63 v=115
13674 On ch=5 n=63 v=0
13681 On ch=5 n=66 v=123
13746 On ch=5 n=66 v=0
13754 On ch=5 n=63 v=104
13819 On ch=5 n=63 v=0
13826 On ch=5 n=66 v=102
13841 On ch=5 n=66 v=0
13864 On ch=5 n=63 v=109
13869 On ch=5 n=63 v=0
13874 On ch=5 n=66 v=112
13892 On ch=5 n=66 v=0
13898 On ch=5 n=70 v=124
13966 On ch=5 n=70 v=0
13970 On ch=5 n=66 v=108
14036 On ch=5 n=66 v=0
14042 On ch=5 n=70 v=103
14059 On ch=5 n=70 v=0
14080 On ch=5 n=66 v=111
14088 On ch=5 n=66 v=0
14090 On ch=5 n=70 v=114
14107 On ch=5 n=70 v=0
14114 On ch=5 n=73 v=122
14182 On ch=5 n=73 v=0
14185 On ch=5 n=61 v=108
14252 On ch=5 n=61 v=0
14258 On ch=5 n=66 v=106
14274 On ch=5 n=66 v=0
14295 On ch=5 n=61 v=109
14301 On ch=5 n=61 v=0
14305 On ch=5 n=66 v=115
14321 On ch=5 n=66 v=0
14329 On ch=5 n=70 v=122
14422 On ch=5 n=70 v=0
14449 On ch=5 n=66 v=109
14465 On ch=5 n=66 v=0
14473 On ch=5 n=68 v=105
14491 On ch=5 n=68 v=0
14512 On ch=5 n=64 v=112
14517 On ch=5 n=64 v=0
14522 On ch=5 n=68 v=117
14540 On ch=5 n=68 v=0
14545 On ch=5 n=71 v=122
14639 On ch=5 n=71 v=0
14666 On ch=5 n=66 v=107
14683 On ch=5 n=66 v=0
14689 On ch=5 n=68 v=103
14705 On ch=5 n=68 v=0
14727 On ch=5 n=64 v=108
14732 On ch=5 n=64 v=0
14738 On ch=5 n=68 v=113
14754 On ch=5 n=68 v=0
14761 On ch=5 n=71 v=127
14852 On ch=5 n=71 v=0
14882 On ch=5 n=66 v=104
14899 On ch=5 n=66 v=0
14905 On ch=5 n=68 v=107
14920 On ch=5 n=68 v=0
14944 On ch=5 n=64 v=109
14952 On ch=5 n=64 v=0
14954 On ch=5 n=68 v=117
14972 On ch=5 n=68 v=0
14978 On ch=5 n=73 v=122
15044 On ch=5 n=73 v=0
15049 On ch=5 n=66 v=108
15115 On ch=5 n=66 v=0
15121 On ch=5 n=71 v=103
15139 On ch=5 n=71 v=0
15159 On ch=5 n=66 v=110
15165 On ch=5 n=66 v=0
15170 On ch=5 n=71 v=115
15188 On ch=5 n=71 v=0
15194 On ch=5 n=75 v=123
15287 On ch=5 n=75 v=0
15313 On ch=5 n=66 v=105
15328 On ch=5 n=66 v=0
15337 On ch=5 n=68 v=104
15353 On ch=5 n=68 v=0
15375 On ch=5 n=64 v=107
15380 On ch=5 n=64 v=0
15385 On ch=5 n=68 v=115
15401 On ch=5 n=68 v=0
15410 On ch=5 n=71 v=123
15502 On ch=5 n=71 v=0
15530 On ch=5 n=66 v=105
15545 On ch=5 n=66 v=0
15554 On ch=5 n=68 v=106
15572 On ch=5 n=68 v=0
15592 On ch=5 n=64 v=112
15600 On ch=5 n=64 v=0
15602 On ch=5 n=68 v=116
15617 On ch=5 n=68 v=0
15626 On ch=5 n=71 v=122
15720 On ch=5 n=71 v=0
15745 On ch=5 n=66 v=107
15762 On ch=5 n=66 v=0
15770 On ch=5 n=68 v=117
15787 On ch=5 n=68 v=0
15807 On ch=5 n=64 v=110
15814 On ch=5 n=64 v=0
15818 On ch=5 n=68 v=113
15834 On ch=5 n=68 v=0
15842 On ch=5 n=73 v=123
15908 On ch=5 n=73 v=0
15913 On ch=5 n=66 v=104
15979 On ch=5 n=66 v=0
15986 On ch=5 n=71 v=106
16003 On ch=5 n=71 v=0
16021 On ch=5 n=66 v=103
16028 On ch=5 n=66 v=0
16033 On ch=5 n=71 v=106
16050 On ch=5 n=71 v=0
16058 On ch=5 n=75 v=115
16076 On ch=5 n=75 v=0
16094 On ch=5 n=71 v=117
16101 On ch=5 n=71 v=0
16106 On ch=5 n=75 v=117
16125 On ch=5 n=75 v=0
16130 On ch=5 n=78 v=125
16147 On ch=5 n=78 v=0
16166 On ch=5 n=75 v=123
16172 On ch=5 n=75 v=0
16178 On ch=5 n=78 v=122
16196 On ch=5 n=78 v=0
16201 On ch=5 n=71 v=98
16321 On ch=5 n=59 v=98
16326 On ch=5 n=59 v=0
16334 On ch=5 n=59 v=100
16339 On ch=5 n=59 v=0
16346 On ch=5 n=59 v=98
16362 On ch=5 n=59 v=0
16388 On ch=5 n=71 v=0
16394 On ch=5 n=59 v=98
16399 On ch=5 n=59 v=0
16418 On ch=5 n=71 v=102
16538 On ch=5 n=59 v=98
16546 On ch=5 n=59 v=0
16550 On ch=5 n=59 v=99
16555 On ch=5 n=59 v=0
16561 On ch=5 n=59 v=101
16579 On ch=5 n=59 v=0
16604 On ch=5 n=71 v=0
16610 On ch=5 n=59 v=99
16617 On ch=5 n=59 v=0
16634 On ch=5 n=64 v=100
16821 On ch=5 n=64 v=0
16825 On ch=5 n=64 v=100
16834 On ch=5 n=64 v=0
16837 On ch=5 n=64 v=97
16842 On ch=5 n=64 v=0
16850 On ch=5 n=64 v=100
17054 On ch=5 n=64 v=0
17185 On ch=5 n=64 v=100
17190 On ch=5 n=64 v=0
17198 On ch=5 n=64 v=102
17206 On ch=5 n=64 v=0
17210 On ch=5 n=64 v=100
17228 On ch=5 n=64 v=0
17257 On ch=5 n=64 v=97
17265 On ch=5 n=64 v=0
17269 On ch=5 n=64 v=101
17274 On ch=5 n=64 v=0
17401 On ch=5 n=64 v=101
17408 On ch=5 n=64 v=0
17413 On ch=5 n=64 v=100
17419 On ch=5 n=64 v=0
17426 On ch=5 n=64 v=99
17441 On ch=5 n=64 v=0
17473 On ch=5 n=64 v=99
17480 On ch=5 n=64 v=0
17486 On ch=5 n=64 v=100
17491 On ch=5 n=64 v=0
17497 On ch=5 n=66 v=99
17682 On ch=5 n=66 v=0
17690 On ch=5 n=66 v=101
17697 On ch=5 n=66 v=0
17701 On ch=5 n=66 v=97
17708 On ch=5 n=66 v=0
17713 On ch=5 n=66 v=102
17919 On ch=5 n=66 v=0
18049 On ch=5 n=59 v=70
18057 On ch=5 n=59 v=0
18062 On ch=5 n=59 v=71
18069 On ch=5 n=59 v=0
18074 On ch=5 n=59 v=69
18092 On ch=5 n=59 v=0
18121 On ch=5 n=59 v=69
18127 On ch=5 n=59 v=0
18134 On ch=5 n=59 v=71
18141 On ch=5 n=59 v=0
18146 On ch=5 n=59 v=67
18164 On ch=5 n=59 v=0
18265 On ch=5 n=59 v=70
18271 On ch=5 n=59 v=0
18277 On ch=5 n=59 v=70
18285 On ch=5 n=59 v=0
18290 On ch=5 n=59 v=68
18308 On ch=5 n=59 v=0
18338 On ch=5 n=59 v=70
18346 On ch=5 n=59 v=0
18349 On ch=5 n=59 v=68
18357 On ch=5 n=59 v=0
18362 On ch=5 n=60 v=79
18430 On ch=5 n=60 v=0
18434 On ch=5 n=64 v=81
18451 On ch=5 n=64 v=0
18469 On ch=5 n=60 v=82
18476 On ch=5 n=60 v=0
18481 On ch=5 n=64 v=81
18498 On ch=5 n=64 v=0
18505 On ch=5 n=67 v=82
18530 On ch=5 n=67 v=0
18577 On ch=5 n=60 v=79
18643 On ch=5 n=60 v=0
18650 On ch=5 n=64 v=79
18666 On ch=5 n=64 v=0
18686 On ch=5 n=60 v=79
18694 On ch=5 n=60 v=0
18697 On ch=5 n=64 v=78
18712 On ch=5 n=64 v=0
18722 On ch=5 n=67 v=78
18749 On ch=5 n=67 v=0
18793 On ch=5 n=70 v=77
19219 On ch=5 n=70 v=0
19225 On ch=5 n=66 v=80
19675 On ch=5 n=66 v=0
20954 On ch=5 n=66 v=118
20954 On ch=5 n=63 v=118
20969 On ch=5 n=63 v=0
20973 On ch=5 n=66 v=0
20973 Meta TrkEnd
TrkEnd
MTrk
0 Meta 0x21 00
0 Meta TrkName "Contrabass"
0 PrCh ch=6 p=48
0 Par ch=6 c=7 v=110
0 Par ch=6 c=10 v=44
2 Par ch=6 c=93 v=20
2 Par ch=6 c=91 v=64
2 Par ch=6 c=11 v=127
3 Pb ch=6 v=8552
192 On ch=6 n=47 v=70
196 On ch=6 n=47 v=0
197 On ch=6 n=49 v=82
199 On ch=6 n=49 v=0
203 On ch=6 n=50 v=88
205 On ch=6 n=50 v=0
209 On ch=6 n=52 v=98
213 On ch=6 n=52 v=0
216 On ch=6 n=54 v=118
234 On ch=6 n=54 v=0
1056 On ch=6 n=47 v=67
1059 On ch=6 n=47 v=0
1061 On ch=6 n=49 v=79
1065 On ch=6 n=49 v=0
1067 On ch=6 n=50 v=87
1072 On ch=6 n=50 v=0
1074 On ch=6 n=52 v=99
1077 On ch=6 n=52 v=0
1080 On ch=6 n=54 v=121
1102 On ch=6 n=54 v=0
1151 On ch=6 n=47 v=60
1156 On ch=6 n=47 v=0
1187 On ch=6 n=59 v=73
1193 On ch=6 n=59 v=0
1199 On ch=6 n=54 v=51
1211 On ch=6 n=54 v=0
1224 On ch=6 n=54 v=58
1241 On ch=6 n=54 v=0
1260 On ch=6 n=66 v=61
1266 On ch=6 n=66 v=0
1271 On ch=6 n=59 v=48
1278 On ch=6 n=59 v=0
1367 On ch=6 n=47 v=59
1373 On ch=6 n=47 v=0
1404 On ch=6 n=59 v=74
1411 On ch=6 n=59 v=0
1415 On ch=6 n=54 v=51
1423 On ch=6 n=54 v=0
1440 On ch=6 n=54 v=58
1458 On ch=6 n=54 v=0
1476 On ch=6 n=66 v=62
1482 On ch=6 n=66 v=0
1487 On ch=6 n=59 v=47
1495 On ch=6 n=59 v=0
1584 On ch=6 n=47 v=59
1590 On ch=6 n=47 v=0
1619 On ch=6 n=59 v=75
1626 On ch=6 n=59 v=0
1632 On ch=6 n=54 v=50
1638 On ch=6 n=54 v=0
1655 On ch=6 n=54 v=58
1670 On ch=6 n=54 v=0
1692 On ch=6 n=66 v=59
1700 On ch=6 n=66 v=0
1704 On ch=6 n=59 v=49
1709 On ch=6 n=59 v=0
1799 On ch=6 n=47 v=58
1806 On ch=6 n=47 v=0
1836 On ch=6 n=59 v=76
1841 On ch=6 n=59 v=0
1848 On ch=6 n=54 v=49
1854 On ch=6 n=54 v=0
1871 On ch=6 n=54 v=61
1888 On ch=6 n=54 v=0
1907 On ch=6 n=66 v=58
1913 On ch=6 n=66 v=0
1919 On ch=6 n=59 v=51
1925 On ch=6 n=59 v=0
2016 On ch=6 n=47 v=61
2023 On ch=6 n=47 v=0
2051 On ch=6 n=59 v=75
2056 On ch=6 n=59 v=0
2064 On ch=6 n=54 v=49
2072 On ch=6 n=54 v=0
2088 On ch=6 n=54 v=60
2106 On ch=6 n=54 v=0
2124 On ch=6 n=66 v=58
2132 On ch=6 n=66 v=0
2135 On ch=6 n=59 v=48
2141 On ch=6 n=59 v=0
2232 On ch=6 n=47 v=61
2238 On ch=6 n=47 v=0
2268 On ch=6 n=59 v=75
2274 On ch=6 n=59 v=0
2280 On ch=6 n=54 v=52
2285 On ch=6 n=54 v=0
2304 On ch=6 n=54 v=57
2320 On ch=6 n=54 v=0
2340 On ch=6 n=66 v=60
2345 On ch=6 n=66 v=0
2351 On ch=6 n=59 v=49
2357 On ch=6 n=59 v=0
2448 On ch=6 n=47 v=57
2454 On ch=6 n=47 v=0
2483 On ch=6 n=59 v=73
2491 On ch=6 n=59 v=0
2496 On ch=6 n=54 v=48
2501 On ch=6 n=54 v=0
2521 On ch=6 n=54 v=62
2539 On ch=6 n=54 v=0
2555 On ch=6 n=66 v=58
2560 On ch=6 n=66 v=0
2567 On ch=6 n=59 v=51
2574 On ch=6 n=59 v=0
2663 On ch=6 n=47 v=59
2671 On ch=6 n=47 v=0
2699 On ch=6 n=59 v=72
2705 On ch=6 n=59 v=0
2711 On ch=6 n=54 v=52
2718 On ch=6 n=54 v=0
2736 On ch=6 n=54 v=57
2754 On ch=6 n=54 v=0
2772 On ch=6 n=66 v=60
2780 On ch=6 n=66 v=0
2784 On ch=6 n=59 v=51
2792 On ch=6 n=59 v=0
2879 On ch=6 n=47 v=60
2884 On ch=6 n=47 v=0
2915 On ch=6 n=59 v=75
2923 On ch=6 n=59 v=0
2927 On ch=6 n=54 v=48
2935 On ch=6 n=54 v=0
2952 On ch=6 n=54 v=60
2967 On ch=6 n=54 v=0
2987 On ch=6 n=66 v=62
2994 On ch=6 n=66 v=0
2999 On ch=6 n=59 v=51
3005 On ch=6 n=59 v=0
3095 On ch=6 n=47 v=62
3100 On ch=6 n=47 v=0
3131 On ch=6 n=59 v=77
3138 On ch=6 n=59 v=0
3144 On ch=6 n=54 v=49
3152 On ch=6 n=54 v=0
3168 On ch=6 n=54 v=58
3185 On ch=6 n=54 v=0
3204 On ch=6 n=66 v=61
3210 On ch=6 n=66 v=0
3216 On ch=6 n=59 v=51
3223 On ch=6 n=59 v=0
3312 On ch=6 n=45 v=57
3318 On ch=6 n=45 v=0
3347 On ch=6 n=62 v=74
3355 On ch=6 n=62 v=0
3360 On ch=6 n=57 v=50
3366 On ch=6 n=57 v=0
3383 On ch=6 n=57 v=57
3401 On ch=6 n=57 v=0
3420 On ch=6 n=69 v=59
3425 On ch=6 n=69 v=0
3432 On ch=6 n=64 v=52
3438 On ch=6 n=64 v=0
3527 On ch=6 n=50 v=57
3534 On ch=6 n=50 v=0
3563 On ch=6 n=62 v=75
3570 On ch=6 n=62 v=0
3576 On ch=6 n=57 v=49
3583 On ch=6 n=57 v=0
3600 On ch=6 n=57 v=58
3618 On ch=6 n=57 v=0
3635 On ch=6 n=69 v=62
3640 On ch=6 n=69 v=0
3648 On ch=6 n=62 v=47
3655 On ch=6 n=62 v=0
3744 On ch=6 n=50 v=58
3749 On ch=6 n=50 v=0
3779 On ch=6 n=62 v=76
3784 On ch=6 n=62 v=0
3792 On ch=6 n=57 v=47
3798 On ch=6 n=57 v=0
3815 On ch=6 n=57 v=62
3833 On ch=6 n=57 v=0
3852 On ch=6 n=69 v=61
3858 On ch=6 n=69 v=0
3863 On ch=6 n=62 v=52
3870 On ch=6 n=62 v=0
3960 On ch=6 n=50 v=61
3968 On ch=6 n=50 v=0
3996 On ch=6 n=62 v=76
4004 On ch=6 n=62 v=0
4008 On ch=6 n=57 v=50
4013 On ch=6 n=57 v=0
4033 On ch=6 n=57 v=60
4050 On ch=6 n=57 v=0
4067 On ch=6 n=69 v=60
4074 On ch=6 n=69 v=0
4080 On ch=6 n=62 v=47
4088 On ch=6 n=62 v=0
4177 On ch=6 n=50 v=57
4183 On ch=6 n=50 v=0
4212 On ch=6 n=62 v=77
4220 On ch=6 n=62 v=0
4223 On ch=6 n=57 v=48
4229 On ch=6 n=57 v=0
4248 On ch=6 n=57 v=58
4265 On ch=6 n=57 v=0
4283 On ch=6 n=69 v=62
4288 On ch=6 n=69 v=0
4296 On ch=6 n=62 v=48
4302 On ch=6 n=62 v=0
4392 On ch=6 n=50 v=57
4397 On ch=6 n=50 v=0
4428 On ch=6 n=62 v=73
4435 On ch=6 n=62 v=0
4439 On ch=6 n=57 v=48
4445 On ch=6 n=57 v=0
4463 On ch=6 n=57 v=59
4479 On ch=6 n=57 v=0
4500 On ch=6 n=69 v=60
4508 On ch=6 n=69 v=0
4512 On ch=6 n=62 v=48
4517 On ch=6 n=62 v=0
4607 On ch=6 n=50 v=57
4616 On ch=6 n=50 v=0
4643 On ch=6 n=62 v=73
4650 On ch=6 n=62 v=0
4656 On ch=6 n=57 v=51
4661 On ch=6 n=57 v=0
4679 On ch=6 n=57 v=60
4694 On ch=6 n=57 v=0
4715 On ch=6 n=69 v=61
4721 On ch=6 n=69 v=0
4727 On ch=6 n=62 v=51
4733 On ch=6 n=62 v=0
4824 On ch=6 n=49 v=62
4832 On ch=6 n=49 v=0
4859 On ch=6 n=61 v=77
4865 On ch=6 n=61 v=0
4872 On ch=6 n=54 v=52
4880 On ch=6 n=54 v=0
4895 On ch=6 n=61 v=62
4911 On ch=6 n=61 v=0
4932 On ch=6 n=68 v=57
4938 On ch=6 n=68 v=0
4944 On ch=6 n=61 v=47
4952 On ch=6 n=61 v=0
5041 On ch=6 n=54 v=59
5047 On ch=6 n=54 v=0
5076 On ch=6 n=61 v=73
5081 On ch=6 n=61 v=0
5087 On ch=6 n=54 v=52
5095 On ch=6 n=54 v=0
5112 On ch=6 n=54 v=59
5127 On ch=6 n=54 v=0
5147 On ch=6 n=66 v=62
5154 On ch=6 n=66 v=0
5160 On ch=6 n=61 v=49
5165 On ch=6 n=61 v=0
5255 On ch=6 n=54 v=60
5262 On ch=6 n=54 v=0
5291 On ch=6 n=61 v=76
5297 On ch=6 n=61 v=0
5303 On ch=6 n=54 v=50
5309 On ch=6 n=54 v=0
5327 On ch=6 n=54 v=62
5345 On ch=6 n=54 v=0
5364 On ch=6 n=66 v=57
5370 On ch=6 n=66 v=0
5375 On ch=6 n=61 v=47
5382 On ch=6 n=61 v=0
5472 On ch=6 n=54 v=58
5480 On ch=6 n=54 v=0
5507 On ch=6 n=61 v=77
5513 On ch=6 n=61 v=0
5521 On ch=6 n=54 v=51
5528 On ch=6 n=54 v=0
5544 On ch=6 n=54 v=60
5561 On ch=6 n=54 v=0
5580 On ch=6 n=66 v=58
5588 On ch=6 n=66 v=0
5592 On ch=6 n=61 v=49
5598 On ch=6 n=61 v=0
5688 On ch=6 n=54 v=58
5693 On ch=6 n=54 v=0
5723 On ch=6 n=61 v=74
5728 On ch=6 n=61 v=0
5736 On ch=6 n=54 v=49
5742 On ch=6 n=54 v=0
5760 On ch=6 n=54 v=60
5777 On ch=6 n=54 v=0
5795 On ch=6 n=66 v=59
5801 On ch=6 n=66 v=0
5807 On ch=6 n=61 v=48
5812 On ch=6 n=61 v=0
5903 On ch=6 n=47 v=61
5909 On ch=6 n=47 v=0
5939 On ch=6 n=59 v=74
5944 On ch=6 n=59 v=0
5951 On ch=6 n=54 v=47
5958 On ch=6 n=54 v=0
5976 On ch=6 n=54 v=57
5991 On ch=6 n=54 v=0
6012 On ch=6 n=66 v=62
6020 On ch=6 n=66 v=0
6024 On ch=6 n=59 v=52
6030 On ch=6 n=59 v=0
6120 On ch=6 n=47 v=61
6128 On ch=6 n=47 v=0
6156 On ch=6 n=59 v=74
6161 On ch=6 n=59 v=0
6168 On ch=6 n=54 v=52
6176 On ch=6 n=54 v=0
6191 On ch=6 n=54 v=60
6209 On ch=6 n=54 v=0
6227 On ch=6 n=66 v=57
6232 On ch=6 n=66 v=0
6240 On ch=6 n=59 v=48
6245 On ch=6 n=59 v=0
6336 On ch=6 n=48 v=58
6341 On ch=6 n=48 v=0
6372 On ch=6 n=60 v=76
6378 On ch=6 n=60 v=0
6383 On ch=6 n=55 v=50
6391 On ch=6 n=55 v=0
6407 On ch=6 n=54 v=61
6425 On ch=6 n=54 v=0
6443 On ch=6 n=66 v=58
6451 On ch=6 n=66 v=0
6455 On ch=6 n=61 v=50
6461 On ch=6 n=61 v=0
6552 On ch=6 n=47 v=61
6557 On ch=6 n=47 v=0
6588 On ch=6 n=59 v=76
6596 On ch=6 n=59 v=0
6599 On ch=6 n=54 v=48
6607 On ch=6 n=54 v=0
6624 On ch=6 n=54 v=58
6639 On ch=6 n=54 v=0
6659 On ch=6 n=66 v=59
6667 On ch=6 n=66 v=0
6672 On ch=6 n=59 v=47
6678 On ch=6 n=59 v=0
6767 On ch=6 n=47 v=58
6775 On ch=6 n=47 v=0
6804 On ch=6 n=59 v=73
6809 On ch=6 n=59 v=0
6815 On ch=6 n=54 v=50
6821 On ch=6 n=54 v=0
6840 On ch=6 n=54 v=57
6856 On ch=6 n=54 v=0
6875 On ch=6 n=66 v=59
6883 On ch=6 n=66 v=0
6888 On ch=6 n=59 v=48
6896 On ch=6 n=59 v=0
6983 On ch=6 n=47 v=59
6989 On ch=6 n=47 v=0
7019 On ch=6 n=59 v=75
7025 On ch=6 n=59 v=0
7032 On ch=6 n=54 v=50
7038 On ch=6 n=54 v=0
7055 On ch=6 n=54 v=59
7072 On ch=6 n=54 v=0
7092 On ch=6 n=66 v=59
7100 On ch=6 n=66 v=0
7104 On ch=6 n=59 v=47
7112 On ch=6 n=59 v=0
7199 On ch=6 n=47 v=58
7204 On ch=6 n=47 v=0
7236 On ch=6 n=59 v=73
7241 On ch=6 n=59 v=0
7247 On ch=6 n=54 v=48
7254 On ch=6 n=54 v=0
7272 On ch=6 n=54 v=61
7289 On ch=6 n=54 v=0
7308 On ch=6 n=66 v=61
7316 On ch=6 n=66 v=0
7319 On ch=6 n=59 v=51
7324 On ch=6 n=59 v=0
7416 On ch=6 n=40 v=62
7423 On ch=6 n=40 v=0
7451 On ch=6 n=55 v=77
7457 On ch=6 n=55 v=0
7463 On ch=6 n=52 v=51
7468 On ch=6 n=52 v=0
7487 On ch=6 n=54 v=62
7503 On ch=6 n=54 v=0
7524 On ch=6 n=66 v=58
7532 On ch=6 n=66 v=0
7535 On ch=6 n=61 v=48
7542 On ch=6 n=61 v=0
7631 On ch=6 n=47 v=62
7639 On ch=6 n=47 v=0
7668 On ch=6 n=59 v=74
7675 On ch=6 n=59 v=0
7680 On ch=6 n=54 v=48
7686 On ch=6 n=54 v=0
7704 On ch=6 n=54 v=61
7720 On ch=6 n=54 v=0
7739 On ch=6 n=66 v=57
7747 On ch=6 n=66 v=0
7752 On ch=6 n=59 v=48
7758 On ch=6 n=59 v=0
7848 On ch=6 n=47 v=58
7853 On ch=6 n=47 v=0
7883 On ch=6 n=59 v=72
7889 On ch=6 n=59 v=0
7895 On ch=6 n=54 v=48
7901 On ch=6 n=54 v=0
7919 On ch=6 n=54 v=62
7935 On ch=6 n=54 v=0
7956 On ch=6 n=66 v=61
7962 On ch=6 n=66 v=0
7967 On ch=6 n=59 v=50
7972 On ch=6 n=59 v=0
8064 On ch=6 n=47 v=61
8071 On ch=6 n=47 v=0
8099 On ch=6 n=59 v=76
8104 On ch=6 n=59 v=0
8111 On ch=6 n=54 v=51
8119 On ch=6 n=54 v=0
8136 On ch=6 n=54 v=61
8151 On ch=6 n=54 v=0
8171 On ch=6 n=66 v=58
8176 On ch=6 n=66 v=0
8184 On ch=6 n=59 v=48
8192 On ch=6 n=59 v=0
8281 On ch=6 n=47 v=57
8286 On ch=6 n=47 v=0
8315 On ch=6 n=59 v=73
8322 On ch=6 n=59 v=0
8327 On ch=6 n=54 v=51
8335 On ch=6 n=54 v=0
8352 On ch=6 n=54 v=57
8368 On ch=6 n=54 v=0
8387 On ch=6 n=66 v=58
8392 On ch=6 n=66 v=0
8399 On ch=6 n=59 v=48
8406 On ch=6 n=59 v=0
8496 On ch=6 n=45 v=61
8504 On ch=6 n=45 v=0
8532 On ch=6 n=62 v=73
8539 On ch=6 n=62 v=0
8543 On ch=6 n=57 v=50
8548 On ch=6 n=57 v=0
8568 On ch=6 n=57 v=60
8585 On ch=6 n=57 v=0
8604 On ch=6 n=69 v=57
8609 On ch=6 n=69 v=0
8616 On ch=6 n=64 v=48
8623 On ch=6 n=64 v=0
8712 On ch=6 n=50 v=62
8717 On ch=6 n=50 v=0
8748 On ch=6 n=62 v=72
8755 On ch=6 n=62 v=0
8759 On ch=6 n=57 v=52
8765 On ch=6 n=57 v=0
8783 On ch=6 n=57 v=57
8799 On ch=6 n=57 v=0
8819 On ch=6 n=69 v=61
8827 On ch=6 n=69 v=0
8831 On ch=6 n=62 v=50
8838 On ch=6 n=62 v=0
8928 On ch=6 n=50 v=59
8936 On ch=6 n=50 v=0
8963 On ch=6 n=62 v=75
8971 On ch=6 n=62 v=0
8975 On ch=6 n=57 v=47
8980 On ch=6 n=57 v=0
9001 On ch=6 n=57 v=58
9016 On ch=6 n=57 v=0
9036 On ch=6 n=69 v=57
9041 On ch=6 n=69 v=0
9047 On ch=6 n=62 v=52
9052 On ch=6 n=62 v=0
9143 On ch=6 n=50 v=59
9150 On ch=6 n=50 v=0
9180 On ch=6 n=62 v=77
9185 On ch=6 n=62 v=0
9192 On ch=6 n=57 v=49
9197 On ch=6 n=57 v=0
9215 On ch=6 n=57 v=57
9233 On ch=6 n=57 v=0
9251 On ch=6 n=69 v=58
9256 On ch=6 n=69 v=0
9263 On ch=6 n=62 v=47
9270 On ch=6 n=62 v=0
9360 On ch=6 n=49 v=60
9369 On ch=6 n=49 v=0
9395 On ch=6 n=61 v=73
9401 On ch=6 n=61 v=0
9408 On ch=6 n=54 v=52
9416 On ch=6 n=54 v=0
9432 On ch=6 n=61 v=62
9449 On ch=6 n=61 v=0
9468 On ch=6 n=68 v=60
9473 On ch=6 n=68 v=0
9480 On ch=6 n=61 v=52
9488 On ch=6 n=61 v=0
9575 On ch=6 n=42 v=58
9580 On ch=6 n=42 v=0
9611 On ch=6 n=49 v=72
9619 On ch=6 n=49 v=0
9623 On ch=6 n=54 v=49
9628 On ch=6 n=54 v=0
9647 On ch=6 n=54 v=59
9664 On ch=6 n=54 v=0
9684 On ch=6 n=66 v=58
9689 On ch=6 n=66 v=0
9696 On ch=6 n=61 v=47
9704 On ch=6 n=61 v=0
10128 On ch=6 n=47 v=87
10128 On ch=6 n=59 v=90
10131 On ch=6 n=59 v=0
10132 On ch=6 n=47 v=0
10134 On ch=6 n=45 v=89
10134 On ch=6 n=57 v=87
10138 On ch=6 n=57 v=0
10139 On ch=6 n=45 v=0
10139 On ch=6 n=43 v=88
10139 On ch=6 n=55 v=91
10142 On ch=6 n=55 v=0
10143 On ch=6 n=43 v=0
10145 On ch=6 n=54 v=91
10146 On ch=6 n=42 v=90
10149 On ch=6 n=42 v=0
10149 On ch=6 n=54 v=0
10152 On ch=6 n=47 v=69
10154 On ch=6 n=47 v=0
10158 On ch=6 n=47 v=68
10159 On ch=6 n=47 v=0
10163 On ch=6 n=47 v=75
10165 On ch=6 n=47 v=0
10169 On ch=6 n=47 v=75
10170 On ch=6 n=47 v=0
10175 On ch=6 n=47 v=82
10176 On ch=6 n=47 v=0
10182 On ch=6 n=47 v=77
10185 On ch=6 n=47 v=0
10187 On ch=6 n=47 v=82
10188 On ch=6 n=47 v=0
10193 On ch=6 n=47 v=85
10194 On ch=6 n=47 v=0
10200 On ch=6 n=47 v=87
10201 On ch=6 n=47 v=0
10206 On ch=6 n=47 v=94
10209 On ch=6 n=47 v=0
10212 On ch=6 n=47 v=96
10215 On ch=6 n=47 v=0
10218 On ch=6 n=47 v=97
10221 On ch=6 n=47 v=0
10224 On ch=6 n=47 v=101
10227 On ch=6 n=47 v=0
10229 On ch=6 n=47 v=103
10232 On ch=6 n=47 v=0
10236 On ch=6 n=47 v=105
10238 On ch=6 n=47 v=0
10242 On ch=6 n=47 v=112
10244 On ch=6 n=47 v=0
10247 On ch=6 n=47 v=111
10248 On ch=6 n=47 v=0
10254 On ch=6 n=47 v=112
10255 On ch=6 n=47 v=0
10259 On ch=6 n=47 v=116
10260 On ch=6 n=47 v=0
10266 On ch=6 n=47 v=122
10267 On ch=6 n=47 v=0
10272 On ch=6 n=47 v=117
10274 On ch=6 n=47 v=0
10278 On ch=6 n=47 v=125
10279 On ch=6 n=47 v=0
10283 On ch=6 n=47 v=122
10285 On ch=6 n=47 v=0
10289 On ch=6 n=47 v=127
10290 On ch=6 n=47 v=0
10295 On ch=6 n=47 v=127
10296 On ch=6 n=47 v=0
10301 On ch=6 n=47 v=126
10304 On ch=6 n=47 v=0
10308 On ch=6 n=47 v=127
10309 On ch=6 n=47 v=0
10314 On ch=6 n=47 v=127
10315 On ch=6 n=47 v=0
10319 On ch=6 n=47 v=127
10320 On ch=6 n=47 v=0
10325 On ch=6 n=47 v=124
10326 On ch=6 n=47 v=0
10331 On ch=6 n=47 v=124
10333 On ch=6 n=47 v=0
10338 On ch=6 n=47 v=125
10339 On ch=6 n=47 v=0
10345 On ch=6 n=47 v=127
10346 On ch=6 n=47 v=0
10350 On ch=6 n=47 v=127
10351 On ch=6 n=47 v=0
10357 On ch=6 n=47 v=126
10358 On ch=6 n=47 v=0
10361 On ch=6 n=47 v=124
10362 On ch=6 n=47 v=0
10559 On ch=6 n=52 v=91
10560 On ch=6 n=40 v=92
10563 On ch=6 n=52 v=0
10565 On ch=6 n=40 v=0
10567 On ch=6 n=54 v=88
10568 On ch=6 n=42 v=92
10571 On ch=6 n=54 v=0
10573 On ch=6 n=42 v=0
10575 On ch=6 n=56 v=92
10576 On ch=6 n=44 v=92
10580 On ch=6 n=56 v=0
10581 On ch=6 n=44 v=0
10584 On ch=6 n=45 v=90
10584 On ch=6 n=57 v=89
10588 On ch=6 n=57 v=0
10590 On ch=6 n=45 v=0
10991 On ch=6 n=60 v=91
10992 On ch=6 n=48 v=90
10994 On ch=6 n=60 v=0
10995 On ch=6 n=48 v=0
10997 On ch=6 n=47 v=89
10997 On ch=6 n=59 v=92
10999 On ch=6 n=47 v=0
11000 On ch=6 n=59 v=0
11004 On ch=6 n=45 v=87
11004 On ch=6 n=57 v=89
11006 On ch=6 n=57 v=0
11006 On ch=6 n=45 v=0
11009 On ch=6 n=55 v=92
11010 On ch=6 n=43 v=92
11014 On ch=6 n=43 v=0
11014 On ch=6 n=55 v=0
11015 On ch=6 n=42 v=92
11016 On ch=6 n=54 v=88
11035 On ch=6 n=54 v=0
11036 On ch=6 n=42 v=0
11233 On ch=6 n=47 v=65
11234 On ch=6 n=47 v=0
11238 On ch=6 n=47 v=66
11239 On ch=6 n=47 v=0
11243 On ch=6 n=47 v=65
11245 On ch=6 n=47 v=0
11249 On ch=6 n=47 v=68
11251 On ch=6 n=47 v=0
11256 On ch=6 n=47 v=68
11257 On ch=6 n=47 v=0
11262 On ch=6 n=47 v=70
11266 On ch=6 n=47 v=0
11267 On ch=6 n=47 v=74
11269 On ch=6 n=47 v=0
11274 On ch=6 n=47 v=72
11278 On ch=6 n=47 v=0
11279 On ch=6 n=47 v=75
11280 On ch=6 n=47 v=0
11285 On ch=6 n=47 v=82
11286 On ch=6 n=47 v=0
11291 On ch=6 n=47 v=78
11293 On ch=6 n=47 v=0
11297 On ch=6 n=47 v=81
11298 On ch=6 n=47 v=0
11304 On ch=6 n=47 v=86
11305 On ch=6 n=47 v=0
11309 On ch=6 n=47 v=86
11312 On ch=6 n=47 v=0
11316 On ch=6 n=47 v=86
11317 On ch=6 n=47 v=0
11322 On ch=6 n=47 v=92
11323 On ch=6 n=47 v=0
11328 On ch=6 n=47 v=92
11329 On ch=6 n=47 v=0
11333 On ch=6 n=47 v=92
11336 On ch=6 n=47 v=0
11339 On ch=6 n=47 v=95
11340 On ch=6 n=47 v=0
11345 On ch=6 n=47 v=93
11347 On ch=6 n=47 v=0
11351 On ch=6 n=47 v=92
11353 On ch=6 n=47 v=0
11357 On ch=6 n=47 v=101
11360 On ch=6 n=47 v=0
11364 On ch=6 n=47 v=101
11365 On ch=6 n=47 v=0
11370 On ch=6 n=47 v=102
11371 On ch=6 n=47 v=0
11376 On ch=6 n=47 v=104
11377 On ch=6 n=47 v=0
11381 On ch=6 n=47 v=102
11384 On ch=6 n=47 v=0
11387 On ch=6 n=47 v=107
11389 On ch=6 n=47 v=0
11393 On ch=6 n=47 v=107
11394 On ch=6 n=47 v=0
11400 On ch=6 n=47 v=111
11401 On ch=6 n=47 v=0
11405 On ch=6 n=47 v=112
11406 On ch=6 n=47 v=0
11412 On ch=6 n=47 v=114
11415 On ch=6 n=47 v=0
11418 On ch=6 n=47 v=119
11421 On ch=6 n=47 v=0
11423 On ch=6 n=47 v=118
11424 On ch=6 n=47 v=0
11429 On ch=6 n=47 v=127
11430 On ch=6 n=47 v=0
11436 On ch=6 n=47 v=125
11437 On ch=6 n=47 v=0
11442 On ch=6 n=47 v=126
11446 On ch=6 n=47 v=0
11448 On ch=6 n=47 v=70
11515 On ch=6 n=47 v=0
11519 On ch=6 n=51 v=71
11549 On ch=6 n=51 v=0
11556 On ch=6 n=47 v=71
11564 On ch=6 n=47 v=0
11567 On ch=6 n=51 v=72
11585 On ch=6 n=51 v=0
11592 On ch=6 n=55 v=85
11636 On ch=6 n=55 v=0
11639 On ch=6 n=43 v=72
11657 On ch=6 n=43 v=0
11663 On ch=6 n=47 v=69
11733 On ch=6 n=47 v=0
11736 On ch=6 n=51 v=69
11768 On ch=6 n=51 v=0
11771 On ch=6 n=47 v=71
11779 On ch=6 n=47 v=0
11783 On ch=6 n=51 v=71
11803 On ch=6 n=51 v=0
11807 On ch=6 n=55 v=87
11851 On ch=6 n=55 v=0
11856 On ch=6 n=43 v=68
11874 On ch=6 n=43 v=0
11880 On ch=6 n=48 v=67
11950 On ch=6 n=48 v=0
11952 On ch=6 n=52 v=68
11984 On ch=6 n=52 v=0
11987 On ch=6 n=48 v=69
11995 On ch=6 n=48 v=0
12000 On ch=6 n=52 v=68
12019 On ch=6 n=52 v=0
12024 On ch=6 n=55 v=82
12066 On ch=6 n=55 v=0
12072 On ch=6 n=43 v=68
12089 On ch=6 n=43 v=0
12095 On ch=6 n=48 v=72
12163 On ch=6 n=48 v=0
12168 On ch=6 n=52 v=69
12197 On ch=6 n=52 v=0
12204 On ch=6 n=48 v=72
12209 On ch=6 n=48 v=0
12215 On ch=6 n=52 v=69
12232 On ch=6 n=52 v=0
12239 On ch=6 n=55 v=82
12280 On ch=6 n=55 v=0
12288 On ch=6 n=43 v=72
12306 On ch=6 n=43 v=0
12312 On ch=6 n=47 v=40
12314 On ch=6 n=47 v=0
12318 On ch=6 n=47 v=38
12321 On ch=6 n=47 v=0
12324 On ch=6 n=47 v=42
12326 On ch=6 n=47 v=0
12329 On ch=6 n=47 v=43
12330 On ch=6 n=47 v=0
12335 On ch=6 n=47 v=45
12338 On ch=6 n=47 v=0
12341 On ch=6 n=47 v=45
12343 On ch=6 n=47 v=0
12347 On ch=6 n=47 v=47
12350 On ch=6 n=47 v=0
12353 On ch=6 n=47 v=48
12356 On ch=6 n=47 v=0
12360 On ch=6 n=47 v=56
12361 On ch=6 n=47 v=0
12366 On ch=6 n=47 v=52
12367 On ch=6 n=47 v=0
12372 On ch=6 n=47 v=42
12374 On ch=6 n=47 v=0
12378 On ch=6 n=47 v=41
12380 On ch=6 n=47 v=0
12384 On ch=6 n=47 v=42
12385 On ch=6 n=47 v=0
12390 On ch=6 n=47 v=45
12391 On ch=6 n=47 v=0
12396 On ch=6 n=47 v=50
12399 On ch=6 n=47 v=0
12401 On ch=6 n=47 v=51
12402 On ch=6 n=47 v=0
12407 On ch=6 n=47 v=52
12409 On ch=6 n=47 v=0
12413 On ch=6 n=47 v=56
12416 On ch=6 n=47 v=0
12420 On ch=6 n=47 v=60
12423 On ch=6 n=47 v=0
12426 On ch=6 n=47 v=60
12429 On ch=6 n=47 v=0
12431 On ch=6 n=47 v=62
12433 On ch=6 n=47 v=0
12438 On ch=6 n=47 v=67
12440 On ch=6 n=47 v=0
12443 On ch=6 n=47 v=67
12444 On ch=6 n=47 v=0
12450 On ch=6 n=47 v=72
12451 On ch=6 n=47 v=0
12456 On ch=6 n=47 v=70
12459 On ch=6 n=47 v=0
12462 On ch=6 n=47 v=72
12464 On ch=6 n=47 v=0
12468 On ch=6 n=47 v=73
12469 On ch=6 n=47 v=0
12474 On ch=6 n=47 v=74
12477 On ch=6 n=47 v=0
12480 On ch=6 n=47 v=73
12481 On ch=6 n=47 v=0
12486 On ch=6 n=47 v=77
12490 On ch=6 n=47 v=0
12492 On ch=6 n=47 v=82
12493 On ch=6 n=47 v=0
12497 On ch=6 n=47 v=77
12500 On ch=6 n=47 v=0
12504 On ch=6 n=47 v=79
12505 On ch=6 n=47 v=0
12510 On ch=6 n=47 v=83
12511 On ch=6 n=47 v=0
12515 On ch=6 n=47 v=86
12518 On ch=6 n=47 v=0
12521 On ch=6 n=47 v=84
12522 On ch=6 n=47 v=0
12527 On ch=6 n=47 v=88
12528 On ch=6 n=47 v=0
12534 On ch=6 n=47 v=91
12535 On ch=6 n=47 v=0
12539 On ch=6 n=47 v=90
12540 On ch=6 n=47 v=0
12545 On ch=6 n=47 v=97
12546 On ch=6 n=47 v=0
12552 On ch=6 n=47 v=95
12553 On ch=6 n=47 v=0
12558 On ch=6 n=47 v=96
12559 On ch=6 n=47 v=0
12563 On ch=6 n=47 v=100
12564 On ch=6 n=47 v=0
12570 On ch=6 n=47 v=99
12571 On ch=6 n=47 v=0
12576 On ch=6 n=47 v=99
12579 On ch=6 n=47 v=0
12581 On ch=6 n=47 v=105
12582 On ch=6 n=47 v=0
12588 On ch=6 n=47 v=106
12590 On ch=6 n=47 v=0
12594 On ch=6 n=47 v=103
12596 On ch=6 n=47 v=0
12599 On ch=6 n=47 v=106
12600 On ch=6 n=47 v=0
12605 On ch=6 n=47 v=109
12608 On ch=6 n=47 v=0
12611 On ch=6 n=47 v=111
12614 On ch=6 n=47 v=0
12618 On ch=6 n=47 v=111
12619 On ch=6 n=47 v=0
12624 On ch=6 n=47 v=111
12626 On ch=6 n=47 v=0
12629 On ch=6 n=47 v=107
12630 On ch=6 n=47 v=0
12636 On ch=6 n=47 v=116
12637 On ch=6 n=47 v=0
12641 On ch=6 n=47 v=116
12644 On ch=6 n=47 v=0
12648 On ch=6 n=47 v=117
12651 On ch=6 n=47 v=0
12653 On ch=6 n=47 v=117
12654 On ch=6 n=47 v=0
12660 On ch=6 n=47 v=112
12662 On ch=6 n=47 v=0
12665 On ch=6 n=47 v=122
12666 On ch=6 n=47 v=0
12672 On ch=6 n=47 v=118
12674 On ch=6 n=47 v=0
12678 On ch=6 n=47 v=122
12681 On ch=6 n=47 v=0
12684 On ch=6 n=47 v=120
12687 On ch=6 n=47 v=0
12689 On ch=6 n=47 v=122
12690 On ch=6 n=47 v=0
12695 On ch=6 n=47 v=122
12698 On ch=6 n=47 v=0
12701 On ch=6 n=47 v=125
12703 On ch=6 n=47 v=0
12708 On ch=6 n=47 v=125
12710 On ch=6 n=47 v=0
12713 On ch=6 n=47 v=123
12716 On ch=6 n=47 v=0
12720 On ch=6 n=47 v=124
12723 On ch=6 n=47 v=0
12725 On ch=6 n=47 v=125
12728 On ch=6 n=47 v=0
12731 On ch=6 n=47 v=127
12734 On ch=6 n=47 v=0
12737 On ch=6 n=47 v=127
12739 On ch=6 n=47 v=0
12744 On ch=6 n=35 v=97
12761 On ch=6 n=35 v=0
12779 On ch=6 n=30 v=98
12786 On ch=6 n=30 v=0
12792 On ch=6 n=35 v=97
12805 On ch=6 n=35 v=0
12816 On ch=6 n=39 v=102
12885 On ch=6 n=39 v=0
12887 On ch=6 n=35 v=102
12954 On ch=6 n=35 v=0
12960 On ch=6 n=39 v=102
12975 On ch=6 n=39 v=0
12995 On ch=6 n=35 v=97
13004 On ch=6 n=35 v=0
13007 On ch=6 n=39 v=102
13020 On ch=6 n=39 v=0
13031 On ch=6 n=42 v=101
13097 On ch=6 n=42 v=0
13103 On ch=6 n=39 v=98
13169 On ch=6 n=39 v=0
13176 On ch=6 n=42 v=101
13192 On ch=6 n=42 v=0
13212 On ch=6 n=39 v=97
13219 On ch=6 n=39 v=0
13224 On ch=6 n=42 v=97
13235 On ch=6 n=42 v=0
13248 On ch=6 n=46 v=97
13313 On ch=6 n=46 v=0
13319 On ch=6 n=34 v=99
13384 On ch=6 n=34 v=0
13392 On ch=6 n=39 v=97
13409 On ch=6 n=39 v=0
13427 On ch=6 n=34 v=101
13433 On ch=6 n=34 v=0
13440 On ch=6 n=39 v=102
13451 On ch=6 n=39 v=0
13463 On ch=6 n=42 v=100
13556 On ch=6 n=42 v=0
13584 On ch=6 n=34 v=99
13604 On ch=6 n=34 v=0
13608 On ch=6 n=39 v=97
13625 On ch=6 n=39 v=0
13644 On ch=6 n=35 v=97
13649 On ch=6 n=35 v=0
13655 On ch=6 n=39 v=98
13668 On ch=6 n=39 v=0
13680 On ch=6 n=42 v=98
13747 On ch=6 n=42 v=0
13751 On ch=6 n=39 v=102
13817 On ch=6 n=39 v=0
13824 On ch=6 n=42 v=98
13842 On ch=6 n=42 v=0
13859 On ch=6 n=39 v=101
13867 On ch=6 n=39 v=0
13871 On ch=6 n=42 v=98
13883 On ch=6 n=42 v=0
13895 On ch=6 n=46 v=100
13961 On ch=6 n=46 v=0
13967 On ch=6 n=42 v=99
14034 On ch=6 n=42 v=0
14039 On ch=6 n=46 v=97
14054 On ch=6 n=46 v=0
14075 On ch=6 n=42 v=98
14080 On ch=6 n=42 v=0
14087 On ch=6 n=46 v=100
14096 On ch=6 n=46 v=0
14112 On ch=6 n=49 v=102
14178 On ch=6 n=49 v=0
14183 On ch=6 n=37 v=97
14250 On ch=6 n=37 v=0
14255 On ch=6 n=42 v=102
14272 On ch=6 n=42 v=0
14292 On ch=6 n=37 v=98
14298 On ch=6 n=37 v=0
14304 On ch=6 n=42 v=98
14317 On ch=6 n=42 v=0
14328 On ch=6 n=46 v=102
14420 On ch=6 n=46 v=0
14447 On ch=6 n=30 v=98
14465 On ch=6 n=30 v=0
14472 On ch=6 n=32 v=100
14490 On ch=6 n=32 v=0
14507 On ch=6 n=28 v=99
14515 On ch=6 n=28 v=0
14519 On ch=6 n=32 v=102
14532 On ch=6 n=32 v=0
14544 On ch=6 n=35 v=99
14638 On ch=6 n=35 v=0
14663 On ch=6 n=42 v=97
14681 On ch=6 n=42 v=0
14688 On ch=6 n=44 v=98
14705 On ch=6 n=44 v=0
14723 On ch=6 n=40 v=99
14729 On ch=6 n=40 v=0
14735 On ch=6 n=44 v=101
14746 On ch=6 n=44 v=0
14760 On ch=6 n=47 v=97
14851 On ch=6 n=47 v=0
14880 On ch=6 n=30 v=98
14899 On ch=6 n=30 v=0
14903 On ch=6 n=32 v=97
14921 On ch=6 n=32 v=0
14939 On ch=6 n=28 v=98
14945 On ch=6 n=28 v=0
14951 On ch=6 n=32 v=101
14964 On ch=6 n=32 v=0
14975 On ch=6 n=37 v=100
15043 On ch=6 n=37 v=0
15048 On ch=6 n=30 v=98
15113 On ch=6 n=30 v=0
15120 On ch=6 n=35 v=110
15136 On ch=6 n=35 v=0
15156 On ch=6 n=30 v=100
15162 On ch=6 n=30 v=0
15168 On ch=6 n=35 v=102
15178 On ch=6 n=35 v=0
15192 On ch=6 n=39 v=102
15285 On ch=6 n=39 v=0
15311 On ch=6 n=30 v=99
15329 On ch=6 n=30 v=0
15335 On ch=6 n=32 v=98
15351 On ch=6 n=32 v=0
15371 On ch=6 n=28 v=99
15379 On ch=6 n=28 v=0
15383 On ch=6 n=32 v=99
15396 On ch=6 n=32 v=0
15407 On ch=6 n=35 v=101
15499 On ch=6 n=35 v=0
15527 On ch=6 n=42 v=98
15547 On ch=6 n=42 v=0
15551 On ch=6 n=44 v=100
15568 On ch=6 n=44 v=0
15587 On ch=6 n=40 v=102
15595 On ch=6 n=40 v=0
15600 On ch=6 n=44 v=102
15613 On ch=6 n=44 v=0
15624 On ch=6 n=47 v=102
15715 On ch=6 n=47 v=0
15744 On ch=6 n=42 v=101
15764 On ch=6 n=42 v=0
15768 On ch=6 n=32 v=100
15783 On ch=6 n=32 v=0
15803 On ch=6 n=28 v=101
15811 On ch=6 n=28 v=0
15816 On ch=6 n=32 v=97
15826 On ch=6 n=32 v=0
15839 On ch=6 n=37 v=101
15933 On ch=6 n=37 v=0
15959 On ch=6 n=30 v=98
15976 On ch=6 n=30 v=0
15984 On ch=6 n=35 v=101
16010 On ch=6 n=35 v=0
16020 On ch=6 n=30 v=100
16028 On ch=6 n=30 v=0
16031 On ch=6 n=35 v=99
16051 On ch=6 n=35 v=0
16056 On ch=6 n=39 v=109
16082 On ch=6 n=39 v=0
16091 On ch=6 n=35 v=112
16099 On ch=6 n=35 v=0
16103 On ch=6 n=39 v=112
16123 On ch=6 n=39 v=0
16127 On ch=6 n=42 v=121
16156 On ch=6 n=42 v=0
16164 On ch=6 n=39 v=121
16172 On ch=6 n=39 v=0
16177 On ch=6 n=42 v=122
16195 On ch=6 n=42 v=0
16200 On ch=6 n=47 v=79
16270 On ch=6 n=47 v=0
16271 On ch=6 n=51 v=78
16292 On ch=6 n=51 v=0
16308 On ch=6 n=47 v=80
16315 On ch=6 n=47 v=0
16319 On ch=6 n=51 v=79
16336 On ch=6 n=51 v=0
16344 On ch=6 n=55 v=97
16366 On ch=6 n=55 v=0
16392 On ch=6 n=43 v=88
16403 On ch=6 n=43 v=0
16416 On ch=6 n=47 v=78
16485 On ch=6 n=47 v=0
16487 On ch=6 n=51 v=82
16509 On ch=6 n=51 v=0
16523 On ch=6 n=47 v=79
16530 On ch=6 n=47 v=0
16536 On ch=6 n=51 v=82
16554 On ch=6 n=51 v=0
16560 On ch=6 n=55 v=95
16580 On ch=6 n=55 v=0
16608 On ch=6 n=43 v=91
16624 On ch=6 n=43 v=0
16632 On ch=6 n=40 v=79
16654 On ch=6 n=40 v=0
16824 On ch=6 n=47 v=102
16827 On ch=6 n=47 v=0
16830 On ch=6 n=45 v=103
16833 On ch=6 n=45 v=0
16837 On ch=6 n=44 v=112
16838 On ch=6 n=44 v=0
16841 On ch=6 n=42 v=112
16845 On ch=6 n=42 v=0
16848 On ch=6 n=40 v=109
16868 On ch=6 n=40 v=0
17063 On ch=6 n=45 v=78
17132 On ch=6 n=45 v=0
17136 On ch=6 n=48 v=81
17157 On ch=6 n=48 v=0
17171 On ch=6 n=43 v=82
17178 On ch=6 n=43 v=0
17184 On ch=6 n=48 v=81
17201 On ch=6 n=48 v=0
17208 On ch=6 n=52 v=94
17229 On ch=6 n=52 v=0
17256 On ch=6 n=40 v=92
17268 On ch=6 n=40 v=0
17280 On ch=6 n=45 v=79
17348 On ch=6 n=45 v=0
17352 On ch=6 n=48 v=77
17373 On ch=6 n=48 v=0
17387 On ch=6 n=43 v=78
17394 On ch=6 n=43 v=0
17400 On ch=6 n=48 v=82
17415 On ch=6 n=48 v=0
17423 On ch=6 n=52 v=95
17443 On ch=6 n=52 v=0
17472 On ch=6 n=40 v=89
17488 On ch=6 n=40 v=0
17496 On ch=6 n=42 v=77
17515 On ch=6 n=42 v=0
17688 On ch=6 n=49 v=101
17689 On ch=6 n=49 v=0
17693 On ch=6 n=47 v=104
17695 On ch=6 n=47 v=0
17699 On ch=6 n=46 v=108
17701 On ch=6 n=46 v=0
17706 On ch=6 n=44 v=111
17709 On ch=6 n=44 v=0
17713 On ch=6 n=42 v=107
17735 On ch=6 n=42 v=0
17928 On ch=6 n=35 v=77
17996 On ch=6 n=35 v=0
18000 On ch=6 n=39 v=77
18021 On ch=6 n=39 v=0
18036 On ch=6 n=35 v=81
18042 On ch=6 n=35 v=0
18048 On ch=6 n=39 v=80
18065 On ch=6 n=39 v=0
18071 On ch=6 n=43 v=92
18094 On ch=6 n=43 v=0
18119 On ch=6 n=31 v=88
18135 On ch=6 n=31 v=0
18143 On ch=6 n=35 v=82
18212 On ch=6 n=35 v=0
18216 On ch=6 n=39 v=78
18236 On ch=6 n=39 v=0
18252 On ch=6 n=35 v=81
18258 On ch=6 n=35 v=0
18264 On ch=6 n=39 v=82
18282 On ch=6 n=39 v=0
18287 On ch=6 n=43 v=95
18309 On ch=6 n=43 v=0
18336 On ch=6 n=31 v=87
18352 On ch=6 n=31 v=0
18359 On ch=6 n=36 v=80
18427 On ch=6 n=36 v=0
18432 On ch=6 n=40 v=77
18455 On ch=6 n=40 v=0
18467 On ch=6 n=36 v=78
18474 On ch=6 n=36 v=0
18479 On ch=6 n=40 v=80
18494 On ch=6 n=40 v=0
18503 On ch=6 n=43 v=96
18526 On ch=6 n=43 v=0
18552 On ch=6 n=31 v=90
18570 On ch=6 n=31 v=0
18575 On ch=6 n=36 v=79
18644 On ch=6 n=36 v=0
18648 On ch=6 n=40 v=79
18669 On ch=6 n=40 v=0
18684 On ch=6 n=36 v=80
18690 On ch=6 n=36 v=0
18695 On ch=6 n=40 v=80
18711 On ch=6 n=40 v=0
18720 On ch=6 n=43 v=94
18742 On ch=6 n=43 v=0
18767 On ch=6 n=31 v=91
18785 On ch=6 n=31 v=0
18792 On ch=6 n=47 v=37
18795 On ch=6 n=47 v=0
18800 On ch=6 n=47 v=37
18803 On ch=6 n=47 v=0
18808 On ch=6 n=47 v=38
18813 On ch=6 n=47 v=0
18816 On ch=6 n=47 v=46
18819 On ch=6 n=47 v=0
18824 On ch=6 n=47 v=43
18828 On ch=6 n=47 v=0
18832 On ch=6 n=47 v=51
18836 On ch=6 n=47 v=0
18840 On ch=6 n=47 v=57
18842 On ch=6 n=47 v=0
18848 On ch=6 n=47 v=57
18852 On ch=6 n=47 v=0
18856 On ch=6 n=47 v=39
18861 On ch=6 n=47 v=0
18863 On ch=6 n=47 v=43
18864 On ch=6 n=47 v=0
18871 On ch=6 n=47 v=47
18875 On ch=6 n=47 v=0
18880 On ch=6 n=47 v=50
18882 On ch=6 n=47 v=0
18888 On ch=6 n=47 v=53
18891 On ch=6 n=47 v=0
18896 On ch=6 n=47 v=53
18900 On ch=6 n=47 v=0
18903 On ch=6 n=47 v=59
18908 On ch=6 n=47 v=0
18911 On ch=6 n=47 v=66
18914 On ch=6 n=47 v=0
18920 On ch=6 n=47 v=66
18924 On ch=6 n=47 v=0
18927 On ch=6 n=47 v=66
18929 On ch=6 n=47 v=0
18936 On ch=6 n=47 v=71
18941 On ch=6 n=47 v=0
18944 On ch=6 n=47 v=67
18947 On ch=6 n=47 v=0
18951 On ch=6 n=47 v=75
18956 On ch=6 n=47 v=0
18959 On ch=6 n=47 v=72
18962 On ch=6 n=47 v=0
18968 On ch=6 n=47 v=81
18973 On ch=6 n=47 v=0
18975 On ch=6 n=47 v=80
18977 On ch=6 n=47 v=0
18983 On ch=6 n=47 v=82
18988 On ch=6 n=47 v=0
18992 On ch=6 n=47 v=86
18995 On ch=6 n=47 v=0
18999 On ch=6 n=47 v=87
19001 On ch=6 n=47 v=0
19007 On ch=6 n=47 v=87
19009 On ch=6 n=47 v=0
19016 On ch=6 n=47 v=88
19018 On ch=6 n=47 v=0
19023 On ch=6 n=47 v=96
19027 On ch=6 n=47 v=0
19031 On ch=6 n=47 v=96
19035 On ch=6 n=47 v=0
19040 On ch=6 n=47 v=95
19043 On ch=6 n=47 v=0
19047 On ch=6 n=47 v=98
19049 On ch=6 n=47 v=0
19056 On ch=6 n=47 v=97
19058 On ch=6 n=47 v=0
19064 On ch=6 n=47 v=107
19067 On ch=6 n=47 v=0
19072 On ch=6 n=47 v=104
19076 On ch=6 n=47 v=0
19079 On ch=6 n=47 v=102
19081 On ch=6 n=47 v=0
19087 On ch=6 n=47 v=102
19089 On ch=6 n=47 v=0
19096 On ch=6 n=47 v=110
19100 On ch=6 n=47 v=0
19103 On ch=6 n=47 v=107
19108 On ch=6 n=47 v=0
19111 On ch=6 n=47 v=111
19116 On ch=6 n=47 v=0
19119 On ch=6 n=47 v=117
19122 On ch=6 n=47 v=0
19128 On ch=6 n=47 v=113
19133 On ch=6 n=47 v=0
19136 On ch=6 n=47 v=116
19140 On ch=6 n=47 v=0
19143 On ch=6 n=47 v=112
19147 On ch=6 n=47 v=0
19152 On ch=6 n=47 v=122
19157 On ch=6 n=47 v=0
19160 On ch=6 n=47 v=118
19165 On ch=6 n=47 v=0
19168 On ch=6 n=47 v=121
19172 On ch=6 n=47 v=0
19175 On ch=6 n=47 v=117
19176 On ch=6 n=47 v=0
19184 On ch=6 n=47 v=126
19189 On ch=6 n=47 v=0
19191 On ch=6 n=47 v=122
19196 On ch=6 n=47 v=0
19199 On ch=6 n=47 v=126
19202 On ch=6 n=47 v=0
19208 On ch=6 n=47 v=127
19210 On ch=6 n=47 v=0
19216 On ch=6 n=47 v=124
19221 On ch=6 n=47 v=0
19225 On ch=6 n=35 v=109
19239 On ch=6 n=35 v=0
19248 On ch=6 n=35 v=102
19264 On ch=6 n=35 v=0
19271 On ch=6 n=35 v=100
19286 On ch=6 n=35 v=0
19295 On ch=6 n=35 v=98
19301 On ch=6 n=35 v=0
19308 On ch=6 n=35 v=87
19316 On ch=6 n=35 v=0
19319 On ch=6 n=35 v=79
19328 On ch=6 n=35 v=0
19331 On ch=6 n=35 v=80
19338 On ch=6 n=35 v=0
19343 On ch=6 n=35 v=82
19352 On ch=6 n=35 v=0
19355 On ch=6 n=35 v=82
19362 On ch=6 n=35 v=0
19368 On ch=6 n=35 v=80
19377 On ch=6 n=35 v=0
19380 On ch=6 n=35 v=80
19389 On ch=6 n=35 v=0
19391 On ch=6 n=35 v=82
19398 On ch=6 n=35 v=0
19404 On ch=6 n=35 v=77
19411 On ch=6 n=35 v=0
19416 On ch=6 n=35 v=78
19425 On ch=6 n=35 v=0
19427 On ch=6 n=35 v=77
19436 On ch=6 n=35 v=0
19439 On ch=6 n=35 v=101
19448 On ch=6 n=35 v=0
19451 On ch=6 n=35 v=88
19458 On ch=6 n=35 v=0
19464 On ch=6 n=35 v=80
19471 On ch=6 n=35 v=0
19476 On ch=6 n=35 v=82
19482 On ch=6 n=35 v=0
19487 On ch=6 n=35 v=79
19495 On ch=6 n=35 v=0
19500 On ch=6 n=35 v=80
19509 On ch=6 n=35 v=0
19512 On ch=6 n=35 v=100
19520 On ch=6 n=35 v=0
19524 On ch=6 n=35 v=87
19532 On ch=6 n=35 v=0
19536 On ch=6 n=35 v=78
19545 On ch=6 n=35 v=0
19548 On ch=6 n=35 v=77
19556 On ch=6 n=35 v=0
19560 On ch=6 n=35 v=81
19567 On ch=6 n=35 v=0
19571 On ch=6 n=35 v=82
19579 On ch=6 n=35 v=0
19584 On ch=6 n=35 v=99
19593 On ch=6 n=35 v=0
19595 On ch=6 n=35 v=89
19603 On ch=6 n=35 v=0
19607 On ch=6 n=35 v=82
19614 On ch=6 n=35 v=0
19619 On ch=6 n=35 v=82
19628 On ch=6 n=35 v=0
19632 On ch=6 n=35 v=77
19638 On ch=6 n=35 v=0
19643 On ch=6 n=35 v=79
19652 On ch=6 n=35 v=0
19656 On ch=6 n=35 v=99
19662 On ch=6 n=35 v=0
19667 On ch=6 n=35 v=90
19675 On ch=6 n=35 v=0
19679 On ch=6 n=35 v=80
19687 On ch=6 n=35 v=0
19691 On ch=6 n=35 v=80
19698 On ch=6 n=35 v=0
19703 On ch=6 n=35 v=81
19710 On ch=6 n=35 v=0
19715 On ch=6 n=35 v=77
19723 On ch=6 n=35 v=0
19727 On ch=6 n=35 v=98
19733 On ch=6 n=35 v=0
19739 On ch=6 n=35 v=91
19745 On ch=6 n=35 v=0
19751 On ch=6 n=35 v=78
19758 On ch=6 n=35 v=0
19764 On ch=6 n=35 v=79
19773 On ch=6 n=35 v=0
19776 On ch=6 n=35 v=81
19782 On ch=6 n=35 v=0
19788 On ch=6 n=35 v=80
19796 On ch=6 n=35 v=0
19800 On ch=6 n=35 v=99
19809 On ch=6 n=35 v=0
19811 On ch=6 n=35 v=92
19820 On ch=6 n=35 v=0
19823 On ch=6 n=35 v=80
19831 On ch=6 n=35 v=0
19835 On ch=6 n=35 v=77
19844 On ch=6 n=35 v=0
19847 On ch=6 n=35 v=80
19856 On ch=6 n=35 v=0
19860 On ch=6 n=35 v=79
19868 On ch=6 n=35 v=0
19871 On ch=6 n=35 v=78
19891 On ch=6 n=35 v=0
20087 On ch=6 n=47 v=100
20096 On ch=6 n=47 v=0
20099 On ch=6 n=47 v=92
20108 On ch=6 n=47 v=0
20112 On ch=6 n=46 v=99
20120 On ch=6 n=46 v=0
20124 On ch=6 n=46 v=90
20133 On ch=6 n=46 v=0
20135 On ch=6 n=45 v=102
20145 On ch=6 n=45 v=0
20148 On ch=6 n=45 v=92
20156 On ch=6 n=45 v=0
20160 On ch=6 n=44 v=97
20167 On ch=6 n=44 v=0
20171 On ch=6 n=44 v=87
20179 On ch=6 n=44 v=0
20184 On ch=6 n=42 v=99
20193 On ch=6 n=42 v=0
20195 On ch=6 n=42 v=87
20202 On ch=6 n=42 v=0
20207 On ch=6 n=47 v=101
20214 On ch=6 n=47 v=0
20219 On ch=6 n=47 v=92
20225 On ch=6 n=47 v=0
20231 On ch=6 n=46 v=99
20237 On ch=6 n=46 v=0
20244 On ch=6 n=46 v=88
20252 On ch=6 n=46 v=0
20255 On ch=6 n=45 v=98
20265 On ch=6 n=45 v=0
20267 On ch=6 n=45 v=87
20275 On ch=6 n=45 v=0
20280 On ch=6 n=44 v=100
20287 On ch=6 n=44 v=0
20292 On ch=6 n=44 v=90
20299 On ch=6 n=44 v=0
20303 On ch=6 n=42 v=98
20312 On ch=6 n=42 v=0
20315 On ch=6 n=42 v=90
20322 On ch=6 n=42 v=0
20328 On ch=6 n=47 v=102
20335 On ch=6 n=47 v=0
20340 On ch=6 n=47 v=91
20350 On ch=6 n=47 v=0
20351 On ch=6 n=46 v=101
20360 On ch=6 n=46 v=0
20364 On ch=6 n=46 v=90
20373 On ch=6 n=46 v=0
20375 On ch=6 n=45 v=100
20382 On ch=6 n=45 v=0
20387 On ch=6 n=45 v=90
20396 On ch=6 n=45 v=0
20399 On ch=6 n=44 v=97
20405 On ch=6 n=44 v=0
20412 On ch=6 n=44 v=88
20421 On ch=6 n=44 v=0
20423 On ch=6 n=42 v=100
20432 On ch=6 n=42 v=0
20436 On ch=6 n=42 v=92
20446 On ch=6 n=42 v=0
20448 On ch=6 n=47 v=100
20457 On ch=6 n=47 v=0
20459 On ch=6 n=47 v=91
20469 On ch=6 n=47 v=0
20472 On ch=6 n=46 v=101
20481 On ch=6 n=46 v=0
20484 On ch=6 n=46 v=88
20494 On ch=6 n=46 v=0
20496 On ch=6 n=45 v=101
20504 On ch=6 n=45 v=0
20507 On ch=6 n=45 v=88
20517 On ch=6 n=45 v=0
20520 On ch=6 n=42 v=97
20528 On ch=6 n=42 v=0
20532 On ch=6 n=42 v=91
20540 On ch=6 n=42 v=0
20543 On ch=6 n=42 v=78
20553 On ch=6 n=42 v=0
20556 On ch=6 n=44 v=100
20566 On ch=6 n=44 v=0
20567 On ch=6 n=44 v=87
20577 On ch=6 n=44 v=0
20579 On ch=6 n=44 v=81
20585 On ch=6 n=44 v=0
20591 On ch=6 n=42 v=102
20598 On ch=6 n=42 v=0
20603 On ch=6 n=42 v=92
20610 On ch=6 n=42 v=0
20616 On ch=6 n=42 v=80
20624 On ch=6 n=42 v=0
20627 On ch=6 n=44 v=97
20636 On ch=6 n=44 v=0
20639 On ch=6 n=44 v=90
20646 On ch=6 n=44 v=0
20651 On ch=6 n=44 v=80
20660 On ch=6 n=44 v=0
20663 On ch=6 n=42 v=102
20673 On ch=6 n=42 v=0
20676 On ch=6 n=42 v=92
20686 On ch=6 n=42 v=0
20688 On ch=6 n=42 v=79
20697 On ch=6 n=42 v=0
20699 On ch=6 n=44 v=100
20708 On ch=6 n=44 v=0
20712 On ch=6 n=44 v=90
20722 On ch=6 n=44 v=0
20724 On ch=6 n=44 v=81
20732 On ch=6 n=44 v=0
20736 On ch=6 n=42 v=80
20746 On ch=6 n=42 v=0
20748 On ch=6 n=44 v=77
20756 On ch=6 n=44 v=0
20760 On ch=6 n=45 v=82
20771 On ch=6 n=45 v=0
20772 On ch=6 n=46 v=81
20781 On ch=6 n=46 v=0
20784 On ch=6 n=47 v=82
20793 On ch=6 n=47 v=0
20795 On ch=6 n=49 v=77
20802 On ch=6 n=49 v=0
20807 On ch=6 n=51 v=79
20814 On ch=6 n=51 v=0
20820 On ch=6 n=52 v=78
20828 On ch=6 n=52 v=0
20831 On ch=6 n=54 v=78
20841 On ch=6 n=54 v=0
20844 On ch=6 n=56 v=82
20853 On ch=6 n=56 v=0
20856 On ch=6 n=58 v=79
20866 On ch=6 n=58 v=0
20868 On ch=6 n=59 v=82
20875 On ch=6 n=59 v=0
20879 On ch=6 n=61 v=82
20888 On ch=6 n=61 v=0
20891 On ch=6 n=63 v=81
20900 On ch=6 n=63 v=0
20904 On ch=6 n=64 v=77
20912 On ch=6 n=64 v=0
20916 On ch=6 n=66 v=79
20924 On ch=6 n=66 v=0
20928 On ch=6 n=68 v=78
20935 On ch=6 n=68 v=0
20939 On ch=6 n=70 v=77
20946 On ch=6 n=70 v=0
20952 On ch=6 n=71 v=101
20972 On ch=6 n=71 v=0
20972 Meta TrkEnd
TrkEnd
MTrk
0 Meta 0x21 00
0 Meta TrkName "Clarinets"
0 PrCh ch=7 p=71
0 Par ch=7 c=7 v=90
0 Par ch=7 c=10 v=88
5 Par ch=7 c=93 v=30
5 Par ch=7 c=91 v=70
6 Par ch=7 c=11 v=127
215 On ch=7 n=66 v=97
225 On ch=7 n=66 v=0
228 On ch=7 n=67 v=91
237 On ch=7 n=67 v=0
239 On ch=7 n=66 v=79
250 On ch=7 n=66 v=0
251 On ch=7 n=67 v=71
259 On ch=7 n=67 v=0
264 On ch=7 n=66 v=59
275 On ch=7 n=66 v=0
276 On ch=7 n=67 v=50
286 On ch=7 n=67 v=0
287 On ch=7 n=66 v=49
296 On ch=7 n=66 v=0
300 On ch=7 n=67 v=41
309 On ch=7 n=67 v=0
312 On ch=7 n=66 v=51
320 On ch=7 n=66 v=0
323 On ch=7 n=67 v=52
331 On ch=7 n=67 v=0
335 On ch=7 n=66 v=51
343 On ch=7 n=66 v=0
347 On ch=7 n=67 v=38
355 On ch=7 n=67 v=0
359 On ch=7 n=66 v=51
369 On ch=7 n=66 v=0
372 On ch=7 n=67 v=58
382 On ch=7 n=67 v=0
383 On ch=7 n=66 v=71
391 On ch=7 n=66 v=0
395 On ch=7 n=67 v=80
406 On ch=7 n=67 v=0
407 On ch=7 n=66 v=87
417 On ch=7 n=66 v=0
419 On ch=7 n=67 v=89
427 On ch=7 n=67 v=0
432 On ch=7 n=66 v=91
432 On ch=7 n=78 v=89
440 On ch=7 n=78 v=0
442 On ch=7 n=66 v=0
444 On ch=7 n=67 v=80
444 On ch=7 n=79 v=82
453 On ch=7 n=79 v=0
455 On ch=7 n=67 v=0
455 On ch=7 n=66 v=82
455 On ch=7 n=78 v=80
464 On ch=7 n=78 v=0
466 On ch=7 n=66 v=0
467 On ch=7 n=79 v=72
468 On ch=7 n=67 v=67
474 On ch=7 n=79 v=0
475 On ch=7 n=67 v=0
479 On ch=7 n=78 v=57
480 On ch=7 n=66 v=57
489 On ch=7 n=78 v=0
490 On ch=7 n=66 v=0
492 On ch=7 n=67 v=49
492 On ch=7 n=79 v=48
501 On ch=7 n=79 v=0
501 On ch=7 n=67 v=0
503 On ch=7 n=66 v=51
504 On ch=7 n=78 v=50
511 On ch=7 n=66 v=0
512 On ch=7 n=78 v=0
515 On ch=7 n=67 v=37
515 On ch=7 n=79 v=42
522 On ch=7 n=67 v=0
524 On ch=7 n=79 v=0
527 On ch=7 n=66 v=51
527 On ch=7 n=78 v=50
535 On ch=7 n=66 v=0
536 On ch=7 n=78 v=0
540 On ch=7 n=67 v=48
540 On ch=7 n=79 v=49
547 On ch=7 n=79 v=0
548 On ch=7 n=67 v=0
551 On ch=7 n=66 v=48
551 On ch=7 n=78 v=49
560 On ch=7 n=66 v=0
562 On ch=7 n=78 v=0
563 On ch=7 n=79 v=42
564 On ch=7 n=67 v=38
573 On ch=7 n=67 v=0
573 On ch=7 n=79 v=0
575 On ch=7 n=78 v=49
576 On ch=7 n=66 v=47
584 On ch=7 n=66 v=0
584 On ch=7 n=78 v=0
587 On ch=7 n=67 v=61
587 On ch=7 n=79 v=62
594 On ch=7 n=79 v=0
598 On ch=7 n=67 v=0
599 On ch=7 n=78 v=70
600 On ch=7 n=66 v=70
606 On ch=7 n=78 v=0
609 On ch=7 n=66 v=0
611 On ch=7 n=67 v=71
611 On ch=7 n=79 v=69
620 On ch=7 n=79 v=0
620 On ch=7 n=67 v=0
623 On ch=7 n=78 v=82
624 On ch=7 n=66 v=80
632 On ch=7 n=78 v=0
633 On ch=7 n=66 v=0
635 On ch=7 n=67 v=87
635 On ch=7 n=79 v=89
642 On ch=7 n=67 v=0
645 On ch=7 n=79 v=0
647 On ch=7 n=66 v=91
647 On ch=7 n=78 v=88
654 On ch=7 n=78 v=0
660 On ch=7 n=79 v=90
666 On ch=7 n=66 v=0
670 On ch=7 n=79 v=0
671 On ch=7 n=78 v=80
678 On ch=7 n=78 v=0
684 On ch=7 n=79 v=71
692 On ch=7 n=79 v=0
696 On ch=7 n=78 v=58
705 On ch=7 n=78 v=0
707 On ch=7 n=79 v=49
717 On ch=7 n=79 v=0
719 On ch=7 n=78 v=51
727 On ch=7 n=78 v=0
732 On ch=7 n=79 v=41
742 On ch=7 n=79 v=0
743 On ch=7 n=78 v=52
750 On ch=7 n=78 v=0
755 On ch=7 n=79 v=52
763 On ch=7 n=79 v=0
767 On ch=7 n=78 v=51
776 On ch=7 n=78 v=0
779 On ch=7 n=79 v=51
787 On ch=7 n=79 v=0
792 On ch=7 n=78 v=39
801 On ch=7 n=78 v=0
804 On ch=7 n=79 v=47
814 On ch=7 n=79 v=0
815 On ch=7 n=78 v=57
823 On ch=7 n=78 v=0
828 On ch=7 n=79 v=68
838 On ch=7 n=79 v=0
840 On ch=7 n=78 v=81
850 On ch=7 n=78 v=0
853 On ch=7 n=79 v=92
861 On ch=7 n=79 v=0
864 On ch=7 n=78 v=92
865 On ch=7 n=66 v=90
872 On ch=7 n=66 v=0
873 On ch=7 n=78 v=0
875 On ch=7 n=67 v=77
875 On ch=7 n=79 v=82
884 On ch=7 n=79 v=0
885 On ch=7 n=67 v=0
887 On ch=7 n=78 v=80
888 On ch=7 n=66 v=78
895 On ch=7 n=78 v=0
898 On ch=7 n=66 v=0
899 On ch=7 n=67 v=68
899 On ch=7 n=79 v=69
909 On ch=7 n=79 v=0
910 On ch=7 n=67 v=0
913 On ch=7 n=66 v=62
913 On ch=7 n=78 v=60
920 On ch=7 n=78 v=0
920 On ch=7 n=66 v=0
923 On ch=7 n=67 v=50
924 On ch=7 n=79 v=50
931 On ch=7 n=67 v=0
932 On ch=7 n=79 v=0
935 On ch=7 n=66 v=52
935 On ch=7 n=78 v=48
946 On ch=7 n=78 v=0
946 On ch=7 n=66 v=0
947 On ch=7 n=67 v=39
949 On ch=7 n=79 v=41
956 On ch=7 n=67 v=0
957 On ch=7 n=79 v=0
960 On ch=7 n=66 v=48
960 On ch=7 n=78 v=50
967 On ch=7 n=66 v=0
969 On ch=7 n=78 v=0
971 On ch=7 n=67 v=49
972 On ch=7 n=79 v=50
980 On ch=7 n=67 v=0
981 On ch=7 n=79 v=0
983 On ch=7 n=78 v=47
984 On ch=7 n=66 v=48
991 On ch=7 n=78 v=0
994 On ch=7 n=66 v=0
995 On ch=7 n=79 v=51
996 On ch=7 n=67 v=48
1002 On ch=7 n=79 v=0
1006 On ch=7 n=67 v=0
1007 On ch=7 n=78 v=41
1008 On ch=7 n=66 v=37
1015 On ch=7 n=66 v=0
1017 On ch=7 n=78 v=0
1020 On ch=7 n=67 v=52
1020 On ch=7 n=79 v=51
1027 On ch=7 n=67 v=0
1030 On ch=7 n=79 v=0
1031 On ch=7 n=78 v=61
1032 On ch=7 n=66 v=58
1039 On ch=7 n=66 v=0
1041 On ch=7 n=78 v=0
1043 On ch=7 n=79 v=69
1044 On ch=7 n=67 v=72
1051 On ch=7 n=67 v=0
1052 On ch=7 n=79 v=0
1056 On ch=7 n=66 v=80
1056 On ch=7 n=78 v=82
1066 On ch=7 n=78 v=0
1066 On ch=7 n=66 v=0
1067 On ch=7 n=67 v=88
1067 On ch=7 n=79 v=90
1078 On ch=7 n=79 v=0
1078 On ch=7 n=67 v=0
1079 On ch=7 n=78 v=89
1080 On ch=7 n=66 v=102
1090 On ch=7 n=66 v=0
1091 On ch=7 n=67 v=91
1099 On ch=7 n=78 v=0
1101 On ch=7 n=67 v=0
1104 On ch=7 n=66 v=77
1111 On ch=7 n=66 v=0
1115 On ch=7 n=67 v=70
1125 On ch=7 n=67 v=0
1128 On ch=7 n=66 v=57
1138 On ch=7 n=66 v=0
1140 On ch=7 n=67 v=49
1149 On ch=7 n=67 v=0
1151 On ch=7 n=66 v=47
1158 On ch=7 n=66 v=0
1163 On ch=7 n=67 v=41
1171 On ch=7 n=67 v=0
1175 On ch=7 n=66 v=47
1185 On ch=7 n=66 v=0
1188 On ch=7 n=67 v=49
1197 On ch=7 n=67 v=0
1199 On ch=7 n=66 v=48
1209 On ch=7 n=66 v=0
1211 On ch=7 n=67 v=47
1221 On ch=7 n=67 v=0
1224 On ch=7 n=66 v=38
1231 On ch=7 n=66 v=0
1236 On ch=7 n=67 v=47
1246 On ch=7 n=67 v=0
1248 On ch=7 n=66 v=59
1255 On ch=7 n=66 v=0
1259 On ch=7 n=67 v=69
1267 On ch=7 n=67 v=0
1272 On ch=7 n=66 v=80
1279 On ch=7 n=66 v=0
1284 On ch=7 n=67 v=88
1294 On ch=7 n=67 v=0
1296 On ch=7 n=66 v=100
1296 On ch=7 n=78 v=100
1306 On ch=7 n=78 v=0
1306 On ch=7 n=66 v=0
1307 On ch=7 n=79 v=91
1308 On ch=7 n=67 v=88
1315 On ch=7 n=79 v=0
1318 On ch=7 n=67 v=0
1319 On ch=7 n=78 v=82
1320 On ch=7 n=66 v=81
1327 On ch=7 n=66 v=0
1328 On ch=7 n=78 v=0
1332 On ch=7 n=67 v=69
1332 On ch=7 n=79 v=71
1340 On ch=7 n=79 v=0
1342 On ch=7 n=67 v=0
1343 On ch=7 n=66 v=59
1343 On ch=7 n=78 v=59
1351 On ch=7 n=66 v=0
1352 On ch=7 n=78 v=0
1355 On ch=7 n=67 v=52
1356 On ch=7 n=79 v=51
1363 On ch=7 n=79 v=0
1363 On ch=7 n=67 v=0
1367 On ch=7 n=66 v=50
1367 On ch=7 n=78 v=50
1375 On ch=7 n=78 v=0
1375 On ch=7 n=66 v=0
1379 On ch=7 n=79 v=37
1380 On ch=7 n=67 v=38
1388 On ch=7 n=79 v=0
1389 On ch=7 n=67 v=0
1391 On ch=7 n=66 v=51
1392 On ch=7 n=78 v=51
1399 On ch=7 n=78 v=0
1400 On ch=7 n=66 v=0
1403 On ch=7 n=67 v=47
1403 On ch=7 n=79 v=52
1411 On ch=7 n=79 v=0
1412 On ch=7 n=67 v=0
1416 On ch=7 n=66 v=49
1416 On ch=7 n=78 v=48
1425 On ch=7 n=78 v=0
1426 On ch=7 n=66 v=0
1428 On ch=7 n=67 v=49
1428 On ch=7 n=79 v=48
1435 On ch=7 n=67 v=0
1437 On ch=7 n=79 v=0
1439 On ch=7 n=78 v=42
1440 On ch=7 n=66 v=40
1447 On ch=7 n=66 v=0
1447 On ch=7 n=78 v=0
1452 On ch=7 n=67 v=47
1452 On ch=7 n=79 v=52
1462 On ch=7 n=79 v=0
1462 On ch=7 n=67 v=0
1463 On ch=7 n=66 v=62
1463 On ch=7 n=78 v=57
1471 On ch=7 n=78 v=0
1471 On ch=7 n=66 v=0
1475 On ch=7 n=79 v=71
1476 On ch=7 n=67 v=67
1484 On ch=7 n=67 v=0
1484 On ch=7 n=79 v=0
1487 On ch=7 n=66 v=80
1488 On ch=7 n=78 v=78
1494 On ch=7 n=66 v=0
1497 On ch=7 n=78 v=0
1499 On ch=7 n=67 v=92
1500 On ch=7 n=79 v=92
1506 On ch=7 n=67 v=0
1509 On ch=7 n=79 v=0
1512 On ch=7 n=66 v=102
1512 On ch=7 n=78 v=99
1521 On ch=7 n=78 v=0
1522 On ch=7 n=66 v=0
1523 On ch=7 n=67 v=92
1524 On ch=7 n=79 v=87
1530 On ch=7 n=67 v=0
1534 On ch=7 n=79 v=0
1535 On ch=7 n=66 v=77
1536 On ch=7 n=78 v=78
1542 On ch=7 n=66 v=0
1544 On ch=7 n=78 v=0
1547 On ch=7 n=79 v=67
1548 On ch=7 n=67 v=68
1556 On ch=7 n=79 v=0
1558 On ch=7 n=67 v=0
1559 On ch=7 n=66 v=61
1559 On ch=7 n=78 v=60
1569 On ch=7 n=78 v=0
1569 On ch=7 n=66 v=0
1571 On ch=7 n=67 v=47
1572 On ch=7 n=79 v=50
1579 On ch=7 n=79 v=0
1581 On ch=7 n=67 v=0
1583 On ch=7 n=66 v=49
1583 On ch=7 n=78 v=48
1592 On ch=7 n=66 v=0
1593 On ch=7 n=78 v=0
1596 On ch=7 n=67 v=41
1596 On ch=7 n=79 v=41
1604 On ch=7 n=79 v=0
1606 On ch=7 n=67 v=0
1607 On ch=7 n=66 v=49
1608 On ch=7 n=78 v=51
1614 On ch=7 n=66 v=0
1618 On ch=7 n=78 v=0
1619 On ch=7 n=67 v=51
1620 On ch=7 n=79 v=48
1629 On ch=7 n=79 v=0
1629 On ch=7 n=67 v=0
1631 On ch=7 n=66 v=51
1631 On ch=7 n=78 v=52
1638 On ch=7 n=78 v=0
1640 On ch=7 n=66 v=0
1643 On ch=7 n=67 v=52
1643 On ch=7 n=79 v=48
1652 On ch=7 n=67 v=0
1653 On ch=7 n=79 v=0
1656 On ch=7 n=66 v=37
1656 On ch=7 n=78 v=40
1664 On ch=7 n=66 v=0
1667 On ch=7 n=78 v=0
1668 On ch=7 n=67 v=52
1668 On ch=7 n=79 v=49
1677 On ch=7 n=67 v=0
1678 On ch=7 n=79 v=0
1680 On ch=7 n=66 v=58
1680 On ch=7 n=78 v=60
1687 On ch=7 n=66 v=0
1689 On ch=7 n=78 v=0
1691 On ch=7 n=79 v=69
1692 On ch=7 n=67 v=67
1700 On ch=7 n=79 v=0
1702 On ch=7 n=67 v=0
1704 On ch=7 n=66 v=80
1705 On ch=7 n=78 v=80
1712 On ch=7 n=78 v=0
1713 On ch=7 n=66 v=0
1716 On ch=7 n=67 v=92
1716 On ch=7 n=79 v=91
1725 On ch=7 n=67 v=0
1727 On ch=7 n=79 v=0
1727 On ch=7 n=66 v=102
1728 On ch=7 n=78 v=101
1734 On ch=7 n=66 v=0
1737 On ch=7 n=78 v=0
1739 On ch=7 n=67 v=88
1739 On ch=7 n=79 v=92
1748 On ch=7 n=79 v=0
1748 On ch=7 n=67 v=0
1752 On ch=7 n=66 v=79
1752 On ch=7 n=78 v=82
1759 On ch=7 n=66 v=0
1760 On ch=7 n=78 v=0
1764 On ch=7 n=67 v=69
1764 On ch=7 n=79 v=68
1772 On ch=7 n=67 v=0
1773 On ch=7 n=79 v=0
1775 On ch=7 n=66 v=59
1775 On ch=7 n=78 v=61
1782 On ch=7 n=66 v=0
1784 On ch=7 n=78 v=0
1787 On ch=7 n=79 v=52
1788 On ch=7 n=67 v=51
1796 On ch=7 n=79 v=0
1797 On ch=7 n=67 v=0
1799 On ch=7 n=66 v=49
1799 On ch=7 n=78 v=48
1806 On ch=7 n=66 v=0
1808 On ch=7 n=78 v=0
1811 On ch=7 n=67 v=40
1812 On ch=7 n=79 v=37
1821 On ch=7 n=79 v=0
1821 On ch=7 n=67 v=0
1823 On ch=7 n=66 v=47
1824 On ch=7 n=78 v=47
1831 On ch=7 n=66 v=0
1832 On ch=7 n=78 v=0
1835 On ch=7 n=67 v=49
1836 On ch=7 n=79 v=48
1843 On ch=7 n=67 v=0
1846 On ch=7 n=79 v=0
1847 On ch=7 n=66 v=48
1847 On ch=7 n=78 v=47
1856 On ch=7 n=78 v=0
1857 On ch=7 n=66 v=0
1860 On ch=7 n=67 v=48
1860 On ch=7 n=79 v=49
1867 On ch=7 n=79 v=0
1868 On ch=7 n=67 v=0
1871 On ch=7 n=66 v=39
1872 On ch=7 n=78 v=41
1879 On ch=7 n=78 v=0
1879 On ch=7 n=66 v=0
1883 On ch=7 n=79 v=49
1884 On ch=7 n=67 v=52
1893 On ch=7 n=67 v=0
1893 On ch=7 n=79 v=0
1896 On ch=7 n=66 v=60
1896 On ch=7 n=78 v=61
1903 On ch=7 n=78 v=0
1906 On ch=7 n=66 v=0
1908 On ch=7 n=67 v=70
1908 On ch=7 n=79 v=67
1915 On ch=7 n=79 v=0
1918 On ch=7 n=67 v=0
1919 On ch=7 n=66 v=77
1919 On ch=7 n=78 v=77
1928 On ch=7 n=78 v=0
1928 On ch=7 n=66 v=0
1932 On ch=7 n=67 v=92
1932 On ch=7 n=79 v=92
1942 On ch=7 n=79 v=0
1942 On ch=7 n=67 v=0
1944 On ch=7 n=66 v=102
1944 On ch=7 n=78 v=87
1953 On ch=7 n=78 v=0
1956 On ch=7 n=79 v=79
1963 On ch=7 n=66 v=0
1966 On ch=7 n=79 v=0
1967 On ch=7 n=78 v=80
1977 On ch=7 n=78 v=0
1980 On ch=7 n=79 v=68
1989 On ch=7 n=79 v=0
1992 On ch=7 n=71 v=99
1992 On ch=7 n=78 v=57
1996 On ch=7 n=71 v=0
1998 On ch=7 n=73 v=99
2001 On ch=7 n=78 v=0
2002 On ch=7 n=73 v=0
2004 On ch=7 n=79 v=50
2009 On ch=7 n=74 v=98
2013 On ch=7 n=74 v=0
2015 On ch=7 n=79 v=0
2016 On ch=7 n=78 v=48
2021 On ch=7 n=76 v=112
2025 On ch=7 n=76 v=0
2025 On ch=7 n=78 v=0
2027 On ch=7 n=79 v=41
2037 On ch=7 n=79 v=0
2040 On ch=7 n=78 v=49
2050 On ch=7 n=78 v=0
2051 On ch=7 n=79 v=48
2059 On ch=7 n=79 v=0
2064 On ch=7 n=78 v=48
2072 On ch=7 n=78 v=0
2075 On ch=7 n=79 v=37
2085 On ch=7 n=79 v=0
2088 On ch=7 n=78 v=47
2095 On ch=7 n=78 v=0
2099 On ch=7 n=79 v=57
2106 On ch=7 n=79 v=0
2112 On ch=7 n=78 v=67
2123 On ch=7 n=78 v=0
2124 On ch=7 n=79 v=77
2134 On ch=7 n=79 v=0
2135 On ch=7 n=78 v=87
2136 On ch=7 n=59 v=101
2137 On ch=7 n=59 v=0
2141 On ch=7 n=61 v=99
2144 On ch=7 n=78 v=0
2145 On ch=7 n=61 v=0
2147 On ch=7 n=62 v=102
2148 On ch=7 n=62 v=0
2148 On ch=7 n=79 v=92
2153 On ch=7 n=64 v=98
2157 On ch=7 n=64 v=0
2158 On ch=7 n=79 v=0
2159 On ch=7 n=78 v=91
2160 On ch=7 n=66 v=99
2168 On ch=7 n=78 v=0
2172 On ch=7 n=79 v=82
2182 On ch=7 n=79 v=0
2182 On ch=7 n=66 v=0
2184 On ch=7 n=78 v=82
2194 On ch=7 n=78 v=0
2195 On ch=7 n=79 v=71
2206 On ch=7 n=79 v=0
2207 On ch=7 n=66 v=58
2208 On ch=7 n=71 v=97
2211 On ch=7 n=71 v=0
2214 On ch=7 n=66 v=0
2214 On ch=7 n=73 v=101
2216 On ch=7 n=73 v=0
2220 On ch=7 n=74 v=102
2220 On ch=7 n=79 v=47
2223 On ch=7 n=74 v=0
2226 On ch=7 n=76 v=107
2227 On ch=7 n=76 v=0
2231 On ch=7 n=79 v=0
2231 On ch=7 n=78 v=41
2241 On ch=7 n=78 v=0
2243 On ch=7 n=79 v=48
2254 On ch=7 n=79 v=0
2255 On ch=7 n=78 v=51
2264 On ch=7 n=78 v=0
2268 On ch=7 n=79 v=47
2278 On ch=7 n=79 v=0
2279 On ch=7 n=78 v=37
2288 On ch=7 n=78 v=0
2292 On ch=7 n=79 v=47
2301 On ch=7 n=79 v=0
2304 On ch=7 n=78 v=60
2312 On ch=7 n=78 v=0
2315 On ch=7 n=79 v=68
2322 On ch=7 n=79 v=0
2328 On ch=7 n=78 v=77
2337 On ch=7 n=78 v=0
2339 On ch=7 n=79 v=78
2348 On ch=7 n=79 v=0
2351 On ch=7 n=78 v=90
2358 On ch=7 n=78 v=0
2363 On ch=7 n=79 v=91
2373 On ch=7 n=79 v=0
2375 On ch=7 n=66 v=99
2376 On ch=7 n=78 v=91
2383 On ch=7 n=78 v=0
2387 On ch=7 n=79 v=80
2394 On ch=7 n=66 v=0
2396 On ch=7 n=79 v=0
2400 On ch=7 n=78 v=77
2409 On ch=7 n=78 v=0
2412 On ch=7 n=79 v=70
2422 On ch=7 n=79 v=0
2423 On ch=7 n=71 v=101
2424 On ch=7 n=66 v=62
2427 On ch=7 n=71 v=0
2430 On ch=7 n=73 v=98
2432 On ch=7 n=73 v=0
2432 On ch=7 n=66 v=0
2435 On ch=7 n=74 v=97
2436 On ch=7 n=74 v=0
2436 On ch=7 n=79 v=47
2442 On ch=7 n=76 v=109
2443 On ch=7 n=76 v=0
2447 On ch=7 n=79 v=0
2448 On ch=7 n=78 v=37
2455 On ch=7 n=78 v=0
2459 On ch=7 n=79 v=52
2467 On ch=7 n=79 v=0
2472 On ch=7 n=78 v=48
2480 On ch=7 n=78 v=0
2483 On ch=7 n=79 v=50
2492 On ch=7 n=79 v=0
2496 On ch=7 n=78 v=41
2503 On ch=7 n=78 v=0
2507 On ch=7 n=79 v=51
2517 On ch=7 n=79 v=0
2520 On ch=7 n=78 v=59
2527 On ch=7 n=78 v=0
2532 On ch=7 n=79 v=70
2542 On ch=7 n=79 v=0
2544 On ch=7 n=78 v=80
2554 On ch=7 n=78 v=0
2555 On ch=7 n=79 v=79
2565 On ch=7 n=79 v=0
2568 On ch=7 n=78 v=91
2569 On ch=7 n=59 v=97
2572 On ch=7 n=59 v=0
2575 On ch=7 n=61 v=100
2577 On ch=7 n=78 v=0
2579 On ch=7 n=61 v=0
2579 On ch=7 n=62 v=102
2581 On ch=7 n=79 v=91
2584 On ch=7 n=62 v=0
2587 On ch=7 n=64 v=101
2589 On ch=7 n=64 v=0
2590 On ch=7 n=79 v=0
2592 On ch=7 n=78 v=88
2593 On ch=7 n=66 v=100
2601 On ch=7 n=78 v=0
2604 On ch=7 n=79 v=79
2612 On ch=7 n=66 v=0
2613 On ch=7 n=79 v=0
2615 On ch=7 n=78 v=82
2623 On ch=7 n=78 v=0
2627 On ch=7 n=79 v=71
2638 On ch=7 n=79 v=0
2639 On ch=7 n=66 v=61
2640 On ch=7 n=71 v=101
2644 On ch=7 n=71 v=0
2645 On ch=7 n=73 v=98
2647 On ch=7 n=66 v=0
2650 On ch=7 n=73 v=0
2651 On ch=7 n=79 v=48
2652 On ch=7 n=74 v=98
2654 On ch=7 n=74 v=0
2657 On ch=7 n=76 v=110
2660 On ch=7 n=79 v=0
2662 On ch=7 n=76 v=0
2665 On ch=7 n=78 v=40
2673 On ch=7 n=78 v=0
2675 On ch=7 n=79 v=52
2685 On ch=7 n=79 v=0
2687 On ch=7 n=78 v=49
2695 On ch=7 n=78 v=0
2700 On ch=7 n=79 v=50
2710 On ch=7 n=79 v=0
2712 On ch=7 n=78 v=39
2720 On ch=7 n=78 v=0
2723 On ch=7 n=79 v=49
2733 On ch=7 n=79 v=0
2736 On ch=7 n=78 v=60
2744 On ch=7 n=78 v=0
2747 On ch=7 n=79 v=68
2756 On ch=7 n=79 v=0
2760 On ch=7 n=78 v=82
2769 On ch=7 n=78 v=0
2772 On ch=7 n=79 v=80
2780 On ch=7 n=79 v=0
2784 On ch=7 n=59 v=97
2784 On ch=7 n=78 v=87
2787 On ch=7 n=59 v=0
2790 On ch=7 n=61 v=100
2791 On ch=7 n=61 v=0
2793 On ch=7 n=78 v=0
2795 On ch=7 n=62 v=101
2796 On ch=7 n=62 v=0
2796 On ch=7 n=79 v=92
2801 On ch=7 n=64 v=98
2803 On ch=7 n=64 v=0
2807 On ch=7 n=79 v=0
2807 On ch=7 n=66 v=102
2807 On ch=7 n=78 v=89
2815 On ch=7 n=78 v=0
2819 On ch=7 n=79 v=78
2826 On ch=7 n=66 v=0
2829 On ch=7 n=79 v=0
2832 On ch=7 n=78 v=78
2840 On ch=7 n=78 v=0
2843 On ch=7 n=79 v=71
2854 On ch=7 n=79 v=0
2855 On ch=7 n=71 v=97
2856 On ch=7 n=66 v=61
2857 On ch=7 n=71 v=0
2861 On ch=7 n=73 v=99
2863 On ch=7 n=73 v=0
2866 On ch=7 n=66 v=0
2867 On ch=7 n=74 v=101
2867 On ch=7 n=79 v=52
2870 On ch=7 n=74 v=0
2874 On ch=7 n=76 v=108
2877 On ch=7 n=76 v=0
2878 On ch=7 n=79 v=0
2881 On ch=7 n=78 v=40
2889 On ch=7 n=78 v=0
2891 On ch=7 n=79 v=47
2901 On ch=7 n=79 v=0
2903 On ch=7 n=78 v=50
2913 On ch=7 n=78 v=0
2915 On ch=7 n=79 v=52
2923 On ch=7 n=79 v=0
2927 On ch=7 n=78 v=40
2935 On ch=7 n=78 v=0
2939 On ch=7 n=79 v=50
2947 On ch=7 n=79 v=0
2952 On ch=7 n=78 v=58
2960 On ch=7 n=78 v=0
2964 On ch=7 n=79 v=69
2974 On ch=7 n=79 v=0
2976 On ch=7 n=78 v=79
2984 On ch=7 n=78 v=0
2988 On ch=7 n=79 v=80
2997 On ch=7 n=79 v=0
2999 On ch=7 n=59 v=102
2999 On ch=7 n=78 v=92
3003 On ch=7 n=59 v=0
3005 On ch=7 n=61 v=102
3007 On ch=7 n=61 v=0
3007 On ch=7 n=78 v=0
3011 On ch=7 n=62 v=98
3012 On ch=7 n=79 v=89
3014 On ch=7 n=62 v=0
3019 On ch=7 n=64 v=97
3022 On ch=7 n=79 v=0
3023 On ch=7 n=64 v=0
3024 On ch=7 n=66 v=97
3025 On ch=7 n=78 v=89
3032 On ch=7 n=78 v=0
3036 On ch=7 n=79 v=80
3044 On ch=7 n=79 v=0
3044 On ch=7 n=66 v=0
3048 On ch=7 n=78 v=82
3056 On ch=7 n=78 v=0
3060 On ch=7 n=79 v=71
3070 On ch=7 n=79 v=0
3071 On ch=7 n=66 v=61
3072 On ch=7 n=71 v=101
3074 On ch=7 n=71 v=0
3077 On ch=7 n=73 v=100
3078 On ch=7 n=73 v=0
3079 On ch=7 n=66 v=0
3083 On ch=7 n=74 v=97
3084 On ch=7 n=79 v=50
3087 On ch=7 n=74 v=0
3090 On ch=7 n=76 v=111
3093 On ch=7 n=76 v=0
3093 On ch=7 n=79 v=0
3096 On ch=7 n=78 v=37
3104 On ch=7 n=78 v=0
3107 On ch=7 n=79 v=47
3117 On ch=7 n=79 v=0
3119 On ch=7 n=78 v=51
3127 On ch=7 n=78 v=0
3132 On ch=7 n=79 v=47
3140 On ch=7 n=79 v=0
3143 On ch=7 n=78 v=40
3153 On ch=7 n=78 v=0
3156 On ch=7 n=79 v=48
3167 On ch=7 n=79 v=0
3167 On ch=7 n=78 v=57
3177 On ch=7 n=78 v=0
3180 On ch=7 n=79 v=71
3189 On ch=7 n=79 v=0
3191 On ch=7 n=78 v=79
3199 On ch=7 n=78 v=0
3203 On ch=7 n=79 v=80
3213 On ch=7 n=79 v=0
3215 On ch=7 n=78 v=89
3222 On ch=7 n=78 v=0
3227 On ch=7 n=79 v=92
3236 On ch=7 n=79 v=0
3239 On ch=7 n=81 v=80
3240 On ch=7 n=69 v=87
3249 On ch=7 n=81 v=0
3251 On ch=7 n=83 v=72
3260 On ch=7 n=83 v=0
3261 On ch=7 n=69 v=0
3264 On ch=7 n=81 v=72
3272 On ch=7 n=81 v=0
3276 On ch=7 n=83 v=61
3286 On ch=7 n=83 v=0
3287 On ch=7 n=81 v=51
3288 On ch=7 n=74 v=68
3289 On ch=7 n=74 v=0
3293 On ch=7 n=76 v=77
3295 On ch=7 n=81 v=0
3297 On ch=7 n=76 v=0
3299 On ch=7 n=78 v=91
3299 On ch=7 n=83 v=38
3302 On ch=7 n=78 v=0
3305 On ch=7 n=79 v=100
3307 On ch=7 n=79 v=0
3308 On ch=7 n=83 v=0
3311 On ch=7 n=81 v=50
3321 On ch=7 n=81 v=0
3323 On ch=7 n=83 v=37
3332 On ch=7 n=83 v=0
3336 On ch=7 n=81 v=41
3346 On ch=7 n=81 v=0
3347 On ch=7 n=83 v=49
3356 On ch=7 n=83 v=0
3360 On ch=7 n=81 v=39
3368 On ch=7 n=81 v=0
3371 On ch=7 n=83 v=49
3380 On ch=7 n=83 v=0
3384 On ch=7 n=81 v=60
3394 On ch=7 n=81 v=0
3396 On ch=7 n=83 v=67
3404 On ch=7 n=83 v=0
3407 On ch=7 n=81 v=67
3415 On ch=7 n=81 v=0
3419 On ch=7 n=83 v=71
3430 On ch=7 n=83 v=0
3432 On ch=7 n=62 v=89
3432 On ch=7 n=81 v=82
3433 On ch=7 n=62 v=0
3438 On ch=7 n=64 v=87
3440 On ch=7 n=64 v=0
3441 On ch=7 n=81 v=0
3443 On ch=7 n=66 v=90
3444 On ch=7 n=83 v=77
3445 On ch=7 n=66 v=0
3450 On ch=7 n=67 v=92
3452 On ch=7 n=67 v=0
3455 On ch=7 n=83 v=0
3456 On ch=7 n=69 v=87
3456 On ch=7 n=81 v=78
3466 On ch=7 n=81 v=0
3468 On ch=7 n=83 v=68
3476 On ch=7 n=69 v=0
3478 On ch=7 n=83 v=0
3480 On ch=7 n=81 v=68
3487 On ch=7 n=81 v=0
3492 On ch=7 n=83 v=60
3499 On ch=7 n=83 v=0
3504 On ch=7 n=74 v=68
3504 On ch=7 n=81 v=48
3506 On ch=7 n=74 v=0
3509 On ch=7 n=76 v=77
3511 On ch=7 n=76 v=0
3515 On ch=7 n=81 v=0
3515 On ch=7 n=78 v=91
3516 On ch=7 n=78 v=0
3516 On ch=7 n=83 v=40
3521 On ch=7 n=79 v=100
3525 On ch=7 n=79 v=0
3526 On ch=7 n=83 v=0
3529 On ch=7 n=81 v=49
3536 On ch=7 n=81 v=0
3539 On ch=7 n=83 v=37
3549 On ch=7 n=83 v=0
3551 On ch=7 n=81 v=39
3560 On ch=7 n=81 v=0
3564 On ch=7 n=83 v=50
3572 On ch=7 n=83 v=0
3576 On ch=7 n=81 v=42
3583 On ch=7 n=81 v=0
3588 On ch=7 n=83 v=47
3597 On ch=7 n=83 v=0
3599 On ch=7 n=81 v=58
3608 On ch=7 n=81 v=0
3611 On ch=7 n=83 v=71
3621 On ch=7 n=83 v=0
3623 On ch=7 n=81 v=67
3631 On ch=7 n=81 v=0
3636 On ch=7 n=83 v=67
3646 On ch=7 n=83 v=0
3647 On ch=7 n=62 v=91
3648 On ch=7 n=81 v=78
3649 On ch=7 n=62 v=0
3654 On ch=7 n=64 v=91
3656 On ch=7 n=64 v=0
3657 On ch=7 n=81 v=0
3659 On ch=7 n=66 v=91
3660 On ch=7 n=83 v=79
3663 On ch=7 n=66 v=0
3665 On ch=7 n=67 v=92
3668 On ch=7 n=83 v=0
3670 On ch=7 n=67 v=0
3671 On ch=7 n=69 v=91
3672 On ch=7 n=81 v=79
3682 On ch=7 n=81 v=0
3683 On ch=7 n=83 v=68
3691 On ch=7 n=69 v=0
3692 On ch=7 n=83 v=0
3696 On ch=7 n=81 v=72
3704 On ch=7 n=81 v=0
3707 On ch=7 n=83 v=61
3717 On ch=7 n=83 v=0
3719 On ch=7 n=81 v=51
3720 On ch=7 n=74 v=71
3723 On ch=7 n=74 v=0
3725 On ch=7 n=76 v=82
3727 On ch=7 n=81 v=0
3728 On ch=7 n=76 v=0
3732 On ch=7 n=78 v=87
3732 On ch=7 n=83 v=38
3733 On ch=7 n=78 v=0
3737 On ch=7 n=79 v=97
3740 On ch=7 n=79 v=0
3741 On ch=7 n=83 v=0
3745 On ch=7 n=81 v=49
3754 On ch=7 n=81 v=0
3755 On ch=7 n=83 v=40
3764 On ch=7 n=83 v=0
3768 On ch=7 n=81 v=37
3777 On ch=7 n=81 v=0
3780 On ch=7 n=83 v=51
3787 On ch=7 n=83 v=0
3792 On ch=7 n=81 v=42
3802 On ch=7 n=81 v=0
3804 On ch=7 n=83 v=52
3811 On ch=7 n=83 v=0
3815 On ch=7 n=81 v=58
3823 On ch=7 n=81 v=0
3828 On ch=7 n=83 v=72
3835 On ch=7 n=83 v=0
3839 On ch=7 n=81 v=69
3848 On ch=7 n=81 v=0
3852 On ch=7 n=83 v=68
3862 On ch=7 n=83 v=0
3863 On ch=7 n=62 v=90
3863 On ch=7 n=81 v=82
3867 On ch=7 n=62 v=0
3869 On ch=7 n=64 v=88
3872 On ch=7 n=81 v=0
3874 On ch=7 n=64 v=0
3876 On ch=7 n=66 v=89
3876 On ch=7 n=83 v=81
3878 On ch=7 n=66 v=0
3882 On ch=7 n=67 v=92
3884 On ch=7 n=67 v=0
3884 On ch=7 n=83 v=0
3888 On ch=7 n=81 v=77
3889 On ch=7 n=69 v=87
3896 On ch=7 n=81 v=0
3899 On ch=7 n=83 v=70
3906 On ch=7 n=83 v=0
3908 On ch=7 n=69 v=0
3912 On ch=7 n=81 v=67
3921 On ch=7 n=81 v=0
3923 On ch=7 n=83 v=62
3931 On ch=7 n=83 v=0
3935 On ch=7 n=74 v=71
3936 On ch=7 n=81 v=48
3939 On ch=7 n=74 v=0
3942 On ch=7 n=76 v=80
3945 On ch=7 n=76 v=0
3945 On ch=7 n=81 v=0
3947 On ch=7 n=83 v=41
3948 On ch=7 n=78 v=92
3949 On ch=7 n=78 v=0
3953 On ch=7 n=79 v=97
3957 On ch=7 n=79 v=0
3958 On ch=7 n=83 v=0
3960 On ch=7 n=81 v=52
3968 On ch=7 n=81 v=0
3972 On ch=7 n=83 v=42
3979 On ch=7 n=83 v=0
3984 On ch=7 n=81 v=37
3993 On ch=7 n=81 v=0
3996 On ch=7 n=83 v=50
4005 On ch=7 n=83 v=0
4008 On ch=7 n=81 v=37
4017 On ch=7 n=81 v=0
4020 On ch=7 n=83 v=52
4027 On ch=7 n=83 v=0
4032 On ch=7 n=81 v=60
4040 On ch=7 n=81 v=0
4043 On ch=7 n=83 v=68
4053 On ch=7 n=83 v=0
4056 On ch=7 n=81 v=72
4065 On ch=7 n=81 v=0
4067 On ch=7 n=83 v=68
4077 On ch=7 n=83 v=0
4080 On ch=7 n=62 v=91
4081 On ch=7 n=81 v=78
4082 On ch=7 n=62 v=0
4085 On ch=7 n=64 v=92
4089 On ch=7 n=64 v=0
4090 On ch=7 n=81 v=0
4091 On ch=7 n=66 v=92
4093 On ch=7 n=83 v=78
4094 On ch=7 n=66 v=0
4097 On ch=7 n=67 v=92
4101 On ch=7 n=67 v=0
4104 On ch=7 n=83 v=0
4104 On ch=7 n=69 v=87
4104 On ch=7 n=81 v=81
4111 On ch=7 n=81 v=0
4116 On ch=7 n=83 v=71
4123 On ch=7 n=83 v=0
4126 On ch=7 n=69 v=0
4127 On ch=7 n=81 v=69
4136 On ch=7 n=81 v=0
4140 On ch=7 n=83 v=62
4150 On ch=7 n=83 v=0
4152 On ch=7 n=74 v=69
4152 On ch=7 n=81 v=47
4156 On ch=7 n=74 v=0
4158 On ch=7 n=76 v=79
4160 On ch=7 n=76 v=0
4160 On ch=7 n=81 v=0
4164 On ch=7 n=83 v=41
4165 On ch=7 n=78 v=88
4166 On ch=7 n=78 v=0
4170 On ch=7 n=79 v=102
4173 On ch=7 n=83 v=0
4174 On ch=7 n=79 v=0
4176 On ch=7 n=81 v=47
4184 On ch=7 n=81 v=0
4188 On ch=7 n=83 v=38
4195 On ch=7 n=83 v=0
4200 On ch=7 n=81 v=40
4209 On ch=7 n=81 v=0
4212 On ch=7 n=83 v=49
4223 On ch=7 n=83 v=0
4224 On ch=7 n=81 v=41
4233 On ch=7 n=81 v=0
4236 On ch=7 n=83 v=48
4247 On ch=7 n=83 v=0
4248 On ch=7 n=81 v=61
4256 On ch=7 n=81 v=0
4259 On ch=7 n=83 v=68
4266 On ch=7 n=83 v=0
4272 On ch=7 n=81 v=67
4281 On ch=7 n=81 v=0
4284 On ch=7 n=83 v=67
4294 On ch=7 n=83 v=0
4295 On ch=7 n=62 v=87
4295 On ch=7 n=81 v=78
4297 On ch=7 n=62 v=0
4302 On ch=7 n=64 v=90
4305 On ch=7 n=64 v=0
4305 On ch=7 n=81 v=0
4307 On ch=7 n=83 v=77
4308 On ch=7 n=66 v=87
4310 On ch=7 n=66 v=0
4314 On ch=7 n=67 v=92
4318 On ch=7 n=83 v=0
4319 On ch=7 n=67 v=0
4320 On ch=7 n=69 v=90
4321 On ch=7 n=81 v=77
4331 On ch=7 n=81 v=0
4332 On ch=7 n=83 v=68
4340 On ch=7 n=83 v=0
4341 On ch=7 n=69 v=0
4344 On ch=7 n=81 v=68
4352 On ch=7 n=81 v=0
4356 On ch=7 n=83 v=62
4365 On ch=7 n=83 v=0
4369 On ch=7 n=74 v=70
4369 On ch=7 n=81 v=47
4370 On ch=7 n=74 v=0
4374 On ch=7 n=76 v=79
4375 On ch=7 n=76 v=0
4376 On ch=7 n=81 v=0
4380 On ch=7 n=78 v=89
4380 On ch=7 n=83 v=37
4384 On ch=7 n=78 v=0
4385 On ch=7 n=79 v=102
4388 On ch=7 n=79 v=0
4390 On ch=7 n=83 v=0
4392 On ch=7 n=81 v=51
4401 On ch=7 n=81 v=0
4404 On ch=7 n=83 v=41
4412 On ch=7 n=83 v=0
4416 On ch=7 n=81 v=37
4426 On ch=7 n=81 v=0
4428 On ch=7 n=83 v=52
4437 On ch=7 n=83 v=0
4440 On ch=7 n=81 v=39
4447 On ch=7 n=81 v=0
4451 On ch=7 n=83 v=50
4460 On ch=7 n=83 v=0
4464 On ch=7 n=81 v=60
4473 On ch=7 n=81 v=0
4475 On ch=7 n=83 v=72
4484 On ch=7 n=83 v=0
4488 On ch=7 n=81 v=67
4497 On ch=7 n=81 v=0
4500 On ch=7 n=83 v=69
4511 On ch=7 n=83 v=0
4512 On ch=7 n=62 v=87
4512 On ch=7 n=81 v=79
4513 On ch=7 n=62 v=0
4517 On ch=7 n=64 v=91
4520 On ch=7 n=64 v=0
4520 On ch=7 n=81 v=0
4523 On ch=7 n=66 v=87
4524 On ch=7 n=83 v=78
4527 On ch=7 n=66 v=0
4530 On ch=7 n=67 v=88
4533 On ch=7 n=67 v=0
4535 On ch=7 n=83 v=0
4536 On ch=7 n=69 v=89
4536 On ch=7 n=81 v=81
4545 On ch=7 n=81 v=0
4547 On ch=7 n=83 v=68
4558 On ch=7 n=83 v=0
4558 On ch=7 n=69 v=0
4560 On ch=7 n=81 v=71
4570 On ch=7 n=81 v=0
4571 On ch=7 n=83 v=62
4582 On ch=7 n=83 v=0
4583 On ch=7 n=81 v=47
4584 On ch=7 n=74 v=68
4585 On ch=7 n=74 v=0
4589 On ch=7 n=76 v=82
4593 On ch=7 n=76 v=0
4593 On ch=7 n=81 v=0
4595 On ch=7 n=83 v=38
4596 On ch=7 n=78 v=91
4600 On ch=7 n=78 v=0
4601 On ch=7 n=79 v=99
4602 On ch=7 n=83 v=0
4605 On ch=7 n=79 v=0
4608 On ch=7 n=81 v=51
4616 On ch=7 n=81 v=0
4619 On ch=7 n=83 v=39
4628 On ch=7 n=83 v=0
4632 On ch=7 n=81 v=38
4642 On ch=7 n=81 v=0
4644 On ch=7 n=83 v=51
4652 On ch=7 n=83 v=0
4656 On ch=7 n=81 v=42
4666 On ch=7 n=81 v=0
4667 On ch=7 n=83 v=52
4676 On ch=7 n=83 v=0
4681 On ch=7 n=81 v=61
4689 On ch=7 n=81 v=0
4691 On ch=7 n=83 v=69
4701 On ch=7 n=83 v=0
4704 On ch=7 n=81 v=69
4715 On ch=7 n=81 v=0
4715 On ch=7 n=83 v=70
4725 On ch=7 n=83 v=0
4728 On ch=7 n=62 v=91
4728 On ch=7 n=81 v=79
4731 On ch=7 n=62 v=0
4733 On ch=7 n=64 v=90
4738 On ch=7 n=64 v=0
4739 On ch=7 n=81 v=0
4739 On ch=7 n=66 v=88
4739 On ch=7 n=83 v=82
4743 On ch=7 n=66 v=0
4746 On ch=7 n=67 v=91
4750 On ch=7 n=67 v=0
4750 On ch=7 n=83 v=0
4752 On ch=7 n=85 v=87
4760 On ch=7 n=85 v=0
4763 On ch=7 n=86 v=77
4774 On ch=7 n=86 v=0
4775 On ch=7 n=85 v=81
4783 On ch=7 n=85 v=0
4788 On ch=7 n=86 v=70
4798 On ch=7 n=86 v=0
4800 On ch=7 n=78 v=99
4800 On ch=7 n=85 v=60
4804 On ch=7 n=78 v=0
4806 On ch=7 n=80 v=97
4808 On ch=7 n=85 v=0
4811 On ch=7 n=80 v=0
4812 On ch=7 n=81 v=99
4812 On ch=7 n=86 v=48
4813 On ch=7 n=81 v=0
4818 On ch=7 n=83 v=112
4823 On ch=7 n=83 v=0
4823 On ch=7 n=86 v=0
4824 On ch=7 n=85 v=40
4834 On ch=7 n=85 v=0
4836 On ch=7 n=86 v=48
4846 On ch=7 n=86 v=0
4847 On ch=7 n=85 v=49
4855 On ch=7 n=85 v=0
4860 On ch=7 n=86 v=49
4867 On ch=7 n=86 v=0
4872 On ch=7 n=85 v=39
4881 On ch=7 n=85 v=0
4884 On ch=7 n=86 v=47
4892 On ch=7 n=86 v=0
4896 On ch=7 n=85 v=60
4906 On ch=7 n=85 v=0
4908 On ch=7 n=86 v=70
4915 On ch=7 n=86 v=0
4919 On ch=7 n=85 v=78
4929 On ch=7 n=85 v=0
4931 On ch=7 n=83 v=78
4941 On ch=7 n=83 v=0
4943 On ch=7 n=81 v=92
4950 On ch=7 n=81 v=0
4955 On ch=7 n=80 v=92
4965 On ch=7 n=80 v=0
4967 On ch=7 n=78 v=87
4969 On ch=7 n=66 v=100
4976 On ch=7 n=78 v=0
4979 On ch=7 n=77 v=81
4988 On ch=7 n=77 v=0
4988 On ch=7 n=66 v=0
4991 On ch=7 n=78 v=80
5000 On ch=7 n=78 v=0
5004 On ch=7 n=77 v=69
5012 On ch=7 n=77 v=0
5016 On ch=7 n=73 v=97
5017 On ch=7 n=78 v=57
5021 On ch=7 n=73 v=0
5023 On ch=7 n=75 v=99
5024 On ch=7 n=78 v=0
5026 On ch=7 n=75 v=0
5028 On ch=7 n=77 v=49
5037 On ch=7 n=77 v=0
5040 On ch=7 n=78 v=41
5047 On ch=7 n=78 v=0
5051 On ch=7 n=77 v=52
5059 On ch=7 n=77 v=0
5063 On ch=7 n=78 v=50
5070 On ch=7 n=78 v=0
5075 On ch=7 n=77 v=47
5083 On ch=7 n=77 v=0
5088 On ch=7 n=78 v=38
5096 On ch=7 n=78 v=0
5099 On ch=7 n=77 v=51
5108 On ch=7 n=77 v=0
5112 On ch=7 n=78 v=58
5120 On ch=7 n=78 v=0
5123 On ch=7 n=77 v=71
5131 On ch=7 n=77 v=0
5135 On ch=7 n=78 v=80
5142 On ch=7 n=78 v=0
5147 On ch=7 n=77 v=82
5154 On ch=7 n=77 v=0
5160 On ch=7 n=73 v=98
5160 On ch=7 n=78 v=88
5162 On ch=7 n=73 v=0
5166 On ch=7 n=71 v=102
5167 On ch=7 n=71 v=0
5168 On ch=7 n=78 v=0
5171 On ch=7 n=70 v=102
5171 On ch=7 n=77 v=89
5175 On ch=7 n=70 v=0
5178 On ch=7 n=68 v=99
5180 On ch=7 n=68 v=0
5180 On ch=7 n=77 v=0
5183 On ch=7 n=78 v=92
5191 On ch=7 n=78 v=0
5195 On ch=7 n=77 v=77
5203 On ch=7 n=77 v=0
5208 On ch=7 n=78 v=79
5219 On ch=7 n=78 v=0
5220 On ch=7 n=77 v=69
5229 On ch=7 n=77 v=0
5231 On ch=7 n=78 v=60
5232 On ch=7 n=73 v=102
5237 On ch=7 n=73 v=0
5239 On ch=7 n=78 v=0
5240 On ch=7 n=75 v=97
5243 On ch=7 n=75 v=0
5243 On ch=7 n=77 v=52
5253 On ch=7 n=77 v=0
5257 On ch=7 n=78 v=41
5266 On ch=7 n=78 v=0
5268 On ch=7 n=77 v=47
5277 On ch=7 n=77 v=0
5279 On ch=7 n=78 v=52
5289 On ch=7 n=78 v=0
5292 On ch=7 n=77 v=51
5299 On ch=7 n=77 v=0
5304 On ch=7 n=78 v=38
5312 On ch=7 n=78 v=0
5316 On ch=7 n=77 v=52
5327 On ch=7 n=77 v=0
5328 On ch=7 n=78 v=60
5335 On ch=7 n=78 v=0
5340 On ch=7 n=77 v=72
5350 On ch=7 n=77 v=0
5352 On ch=7 n=78 v=80
5363 On ch=7 n=78 v=0
5364 On ch=7 n=77 v=81
5374 On ch=7 n=77 v=0
5376 On ch=7 n=78 v=91
5386 On ch=7 n=78 v=0
5388 On ch=7 n=77 v=90
5399 On ch=7 n=77 v=0
5399 On ch=7 n=78 v=87
5407 On ch=7 n=78 v=0
5412 On ch=7 n=77 v=82
5422 On ch=7 n=77 v=0
5424 On ch=7 n=78 v=80
5432 On ch=7 n=78 v=0
5436 On ch=7 n=77 v=69
5446 On ch=7 n=77 v=0
5447 On ch=7 n=78 v=62
5448 On ch=7 n=73 v=100
5453 On ch=7 n=73 v=0
5455 On ch=7 n=78 v=0
5455 On ch=7 n=75 v=102
5458 On ch=7 n=75 v=0
5459 On ch=7 n=77 v=52
5470 On ch=7 n=77 v=0
5472 On ch=7 n=78 v=37
5481 On ch=7 n=78 v=0
5483 On ch=7 n=77 v=49
5493 On ch=7 n=77 v=0
5495 On ch=7 n=78 v=50
5504 On ch=7 n=78 v=0
5507 On ch=7 n=77 v=48
5516 On ch=7 n=77 v=0
5521 On ch=7 n=78 v=40
5527 On ch=7 n=78 v=0
5531 On ch=7 n=77 v=48
5539 On ch=7 n=77 v=0
5545 On ch=7 n=78 v=59
5553 On ch=7 n=78 v=0
5556 On ch=7 n=77 v=69
5565 On ch=7 n=77 v=0
5567 On ch=7 n=78 v=81
5577 On ch=7 n=78 v=0
5579 On ch=7 n=77 v=79
5590 On ch=7 n=77 v=0
5591 On ch=7 n=73 v=100
5592 On ch=7 n=73 v=0
5593 On ch=7 n=78 v=91
5597 On ch=7 n=71 v=102
5600 On ch=7 n=71 v=0
5601 On ch=7 n=78 v=0
5603 On ch=7 n=70 v=98
5604 On ch=7 n=77 v=89
5606 On ch=7 n=70 v=0
5609 On ch=7 n=68 v=97
5612 On ch=7 n=68 v=0
5615 On ch=7 n=77 v=0
5616 On ch=7 n=78 v=89
5624 On ch=7 n=78 v=0
5628 On ch=7 n=77 v=78
5637 On ch=7 n=77 v=0
5639 On ch=7 n=78 v=81
5647 On ch=7 n=78 v=0
5652 On ch=7 n=77 v=72
5660 On ch=7 n=77 v=0
5663 On ch=7 n=78 v=59
5664 On ch=7 n=73 v=98
5668 On ch=7 n=73 v=0
5672 On ch=7 n=75 v=98
5673 On ch=7 n=78 v=0
5675 On ch=7 n=77 v=49
5677 On ch=7 n=75 v=0
5685 On ch=7 n=77 v=0
5687 On ch=7 n=78 v=39
5695 On ch=7 n=78 v=0
5699 On ch=7 n=77 v=48
5706 On ch=7 n=77 v=0
5711 On ch=7 n=78 v=49
5719 On ch=7 n=78 v=0
5724 On ch=7 n=77 v=50
5732 On ch=7 n=77 v=0
5736 On ch=7 n=78 v=39
5745 On ch=7 n=78 v=0
5747 On ch=7 n=77 v=48
5757 On ch=7 n=77 v=0
5759 On ch=7 n=78 v=59
5767 On ch=7 n=78 v=0
5772 On ch=7 n=77 v=70
5779 On ch=7 n=77 v=0
5783 On ch=7 n=78 v=79
5791 On ch=7 n=78 v=0
5795 On ch=7 n=76 v=79
5804 On ch=7 n=76 v=0
5808 On ch=7 n=74 v=88
5816 On ch=7 n=74 v=0
5820 On ch=7 n=73 v=89
5831 On ch=7 n=73 v=0
5832 On ch=7 n=71 v=88
5840 On ch=7 n=71 v=0
5843 On ch=7 n=73 v=81
5854 On ch=7 n=73 v=0
5856 On ch=7 n=71 v=82
5866 On ch=7 n=71 v=0
5867 On ch=7 n=73 v=68
5875 On ch=7 n=73 v=0
5879 On ch=7 n=64 v=99
5880 On ch=7 n=64 v=0
5880 On ch=7 n=71 v=57
5885 On ch=7 n=66 v=98
5888 On ch=7 n=66 v=0
5890 On ch=7 n=71 v=0
5892 On ch=7 n=67 v=102
5892 On ch=7 n=73 v=49
5893 On ch=7 n=67 v=0
5897 On ch=7 n=69 v=109
5901 On ch=7 n=73 v=0
5902 On ch=7 n=69 v=0
5904 On ch=7 n=71 v=38
5914 On ch=7 n=71 v=0
5915 On ch=7 n=73 v=51
5926 On ch=7 n=73 v=0
5928 On ch=7 n=71 v=50
5938 On ch=7 n=71 v=0
5940 On ch=7 n=73 v=50
5949 On ch=7 n=73 v=0
5952 On ch=7 n=74 v=40
5961 On ch=7 n=74 v=0
5964 On ch=7 n=76 v=51
5974 On ch=7 n=76 v=0
5975 On ch=7 n=78 v=57
5984 On ch=7 n=78 v=0
5988 On ch=7 n=79 v=69
5996 On ch=7 n=79 v=0
5999 On ch=7 n=78 v=79
6010 On ch=7 n=78 v=0
6011 On ch=7 n=76 v=80
6022 On ch=7 n=76 v=0
6023 On ch=7 n=74 v=89
6024 On ch=7 n=66 v=102
6027 On ch=7 n=66 v=0
6029 On ch=7 n=64 v=101
6032 On ch=7 n=74 v=0
6033 On ch=7 n=64 v=0
6035 On ch=7 n=62 v=97
6036 On ch=7 n=73 v=89
6038 On ch=7 n=62 v=0
6042 On ch=7 n=61 v=102
6044 On ch=7 n=61 v=0
6047 On ch=7 n=73 v=0
6049 On ch=7 n=71 v=89
6055 On ch=7 n=71 v=0
6060 On ch=7 n=72 v=77
6068 On ch=7 n=72 v=0
6071 On ch=7 n=71 v=78
6078 On ch=7 n=71 v=0
6083 On ch=7 n=73 v=69
6093 On ch=7 n=73 v=0
6095 On ch=7 n=71 v=60
6096 On ch=7 n=64 v=97
6099 On ch=7 n=64 v=0
6101 On ch=7 n=66 v=102
6103 On ch=7 n=66 v=0
6104 On ch=7 n=71 v=0
6108 On ch=7 n=67 v=100
6108 On ch=7 n=72 v=49
6112 On ch=7 n=67 v=0
6113 On ch=7 n=69 v=109
6115 On ch=7 n=69 v=0
6117 On ch=7 n=72 v=0
6121 On ch=7 n=71 v=41
6131 On ch=7 n=71 v=0
6131 On ch=7 n=73 v=47
6141 On ch=7 n=73 v=0
6143 On ch=7 n=71 v=51
6153 On ch=7 n=71 v=0
6156 On ch=7 n=73 v=51
6166 On ch=7 n=73 v=0
6168 On ch=7 n=74 v=37
6177 On ch=7 n=74 v=0
6179 On ch=7 n=76 v=47
6189 On ch=7 n=76 v=0
6192 On ch=7 n=78 v=60
6201 On ch=7 n=78 v=0
6203 On ch=7 n=79 v=69
6213 On ch=7 n=79 v=0
6216 On ch=7 n=78 v=82
6226 On ch=7 n=78 v=0
6228 On ch=7 n=76 v=82
6235 On ch=7 n=76 v=0
6239 On ch=7 n=74 v=89
6249 On ch=7 n=74 v=0
6252 On ch=7 n=73 v=88
6260 On ch=7 n=73 v=0
6264 On ch=7 n=71 v=92
6271 On ch=7 n=71 v=0
6276 On ch=7 n=72 v=80
6287 On ch=7 n=72 v=0
6287 On ch=7 n=71 v=78
6297 On ch=7 n=71 v=0
6299 On ch=7 n=72 v=70
6308 On ch=7 n=72 v=0
6311 On ch=7 n=71 v=99
6311 On ch=7 n=73 v=57
6314 On ch=7 n=71 v=0
6322 On ch=7 n=73 v=0
6324 On ch=7 n=75 v=51
6335 On ch=7 n=75 v=0
6337 On ch=7 n=76 v=41
6345 On ch=7 n=76 v=0
6348 On ch=7 n=72 v=51
6358 On ch=7 n=72 v=0
6359 On ch=7 n=74 v=47
6369 On ch=7 n=74 v=0
6371 On ch=7 n=76 v=52
6379 On ch=7 n=76 v=0
6384 On ch=7 n=78 v=41
6394 On ch=7 n=78 v=0
6396 On ch=7 n=79 v=48
6405 On ch=7 n=79 v=0
6407 On ch=7 n=78 v=61
6417 On ch=7 n=78 v=0
6419 On ch=7 n=79 v=69
6427 On ch=7 n=79 v=0
6432 On ch=7 n=78 v=81
6441 On ch=7 n=78 v=0
6444 On ch=7 n=79 v=80
6453 On ch=7 n=79 v=0
6456 On ch=7 n=60 v=92
6457 On ch=7 n=78 v=92
6462 On ch=7 n=60 v=0
6464 On ch=7 n=78 v=0
6464 On ch=7 n=62 v=91
6468 On ch=7 n=62 v=0
6468 On ch=7 n=79 v=90
6471 On ch=7 n=64 v=87
6475 On ch=7 n=64 v=0
6477 On ch=7 n=79 v=0
6480 On ch=7 n=78 v=88
6490 On ch=7 n=78 v=0
6492 On ch=7 n=79 v=81
6502 On ch=7 n=79 v=0
6503 On ch=7 n=78 v=78
6513 On ch=7 n=78 v=0
6516 On ch=7 n=79 v=67
6524 On ch=7 n=79 v=0
6528 On ch=7 n=78 v=59
6529 On ch=7 n=71 v=102
6530 On ch=7 n=71 v=0
6534 On ch=7 n=61 v=101
6536 On ch=7 n=78 v=0
6537 On ch=7 n=61 v=0
6541 On ch=7 n=74 v=101
6541 On ch=7 n=79 v=50
6544 On ch=7 n=74 v=0
6545 On ch=7 n=76 v=107
6547 On ch=7 n=76 v=0
6551 On ch=7 n=79 v=0
6552 On ch=7 n=78 v=40
6561 On ch=7 n=78 v=0
6564 On ch=7 n=79 v=50
6573 On ch=7 n=79 v=0
6576 On ch=7 n=78 v=50
6585 On ch=7 n=78 v=0
6587 On ch=7 n=76 v=49
6596 On ch=7 n=76 v=0
6600 On ch=7 n=74 v=38
6608 On ch=7 n=74 v=0
6611 On ch=7 n=73 v=47
6621 On ch=7 n=73 v=0
6625 On ch=7 n=71 v=62
6632 On ch=7 n=71 v=0
6636 On ch=7 n=73 v=72
6643 On ch=7 n=73 v=0
6648 On ch=7 n=74 v=82
6658 On ch=7 n=74 v=0
6660 On ch=7 n=76 v=79
6669 On ch=7 n=76 v=0
6672 On ch=7 n=78 v=89
6681 On ch=7 n=78 v=0
6683 On ch=7 n=79 v=92
6691 On ch=7 n=79 v=0
6695 On ch=7 n=78 v=89
6703 On ch=7 n=78 v=0
6708 On ch=7 n=79 v=81
6716 On ch=7 n=79 v=0
6719 On ch=7 n=78 v=78
6727 On ch=7 n=78 v=0
6731 On ch=7 n=79 v=67
6741 On ch=7 n=79 v=0
6743 On ch=7 n=78 v=59
6744 On ch=7 n=71 v=100
6748 On ch=7 n=71 v=0
6750 On ch=7 n=61 v=101
6752 On ch=7 n=61 v=0
6753 On ch=7 n=78 v=0
6756 On ch=7 n=74 v=98
6756 On ch=7 n=79 v=51
6759 On ch=7 n=74 v=0
6761 On ch=7 n=76 v=108
6765 On ch=7 n=76 v=0
6766 On ch=7 n=79 v=0
6769 On ch=7 n=78 v=37
6778 On ch=7 n=78 v=0
6779 On ch=7 n=79 v=47
6787 On ch=7 n=79 v=0
6791 On ch=7 n=78 v=47
6800 On ch=7 n=78 v=0
6804 On ch=7 n=76 v=52
6813 On ch=7 n=76 v=0
6816 On ch=7 n=74 v=39
6824 On ch=7 n=74 v=0
6828 On ch=7 n=73 v=47
6839 On ch=7 n=73 v=0
6841 On ch=7 n=71 v=58
6848 On ch=7 n=71 v=0
6851 On ch=7 n=73 v=70
6862 On ch=7 n=73 v=0
6863 On ch=7 n=74 v=82
6872 On ch=7 n=74 v=0
6876 On ch=7 n=76 v=79
6886 On ch=7 n=76 v=0
6887 On ch=7 n=78 v=91
6888 On ch=7 n=66 v=91
6891 On ch=7 n=66 v=0
6894 On ch=7 n=64 v=87
6895 On ch=7 n=64 v=0
6895 On ch=7 n=78 v=0
6899 On ch=7 n=62 v=87
6900 On ch=7 n=74 v=90
6902 On ch=7 n=62 v=0
6906 On ch=7 n=61 v=89
6908 On ch=7 n=61 v=0
6910 On ch=7 n=74 v=0
6912 On ch=7 n=71 v=89
6920 On ch=7 n=71 v=0
6923 On ch=7 n=72 v=80
6934 On ch=7 n=72 v=0
6935 On ch=7 n=71 v=77
6945 On ch=7 n=71 v=0
6948 On ch=7 n=72 v=71
6957 On ch=7 n=72 v=0
6960 On ch=7 n=64 v=99
6961 On ch=7 n=71 v=57
6964 On ch=7 n=64 v=0
6965 On ch=7 n=66 v=102
6970 On ch=7 n=66 v=0
6971 On ch=7 n=71 v=0
6971 On ch=7 n=72 v=50
6972 On ch=7 n=67 v=101
6973 On ch=7 n=67 v=0
6978 On ch=7 n=69 v=107
6980 On ch=7 n=72 v=0
6981 On ch=7 n=69 v=0
6984 On ch=7 n=71 v=39
6992 On ch=7 n=71 v=0
6996 On ch=7 n=73 v=51
7004 On ch=7 n=73 v=0
7008 On ch=7 n=71 v=50
7016 On ch=7 n=71 v=0
7020 On ch=7 n=73 v=49
7028 On ch=7 n=73 v=0
7031 On ch=7 n=74 v=40
7041 On ch=7 n=74 v=0
7044 On ch=7 n=76 v=51
7052 On ch=7 n=76 v=0
7057 On ch=7 n=78 v=58
7066 On ch=7 n=78 v=0
7067 On ch=7 n=79 v=68
7074 On ch=7 n=79 v=0
7080 On ch=7 n=78 v=77
7091 On ch=7 n=78 v=0
7092 On ch=7 n=76 v=79
7101 On ch=7 n=76 v=0
7104 On ch=7 n=74 v=92
7112 On ch=7 n=74 v=0
7115 On ch=7 n=73 v=92
7124 On ch=7 n=73 v=0
7127 On ch=7 n=71 v=90
7136 On ch=7 n=71 v=0
7139 On ch=7 n=72 v=80
7147 On ch=7 n=72 v=0
7151 On ch=7 n=71 v=79
7160 On ch=7 n=71 v=0
7164 On ch=7 n=72 v=67
7174 On ch=7 n=72 v=0
7175 On ch=7 n=71 v=61
7176 On ch=7 n=64 v=99
7181 On ch=7 n=64 v=0
7181 On ch=7 n=66 v=97
7185 On ch=7 n=66 v=0
7185 On ch=7 n=71 v=0
7187 On ch=7 n=67 v=97
7188 On ch=7 n=72 v=49
7189 On ch=7 n=67 v=0
7194 On ch=7 n=69 v=109
7196 On ch=7 n=69 v=0
7198 On ch=7 n=72 v=0
7199 On ch=7 n=71 v=42
7206 On ch=7 n=71 v=0
7211 On ch=7 n=73 v=48
7221 On ch=7 n=73 v=0
7223 On ch=7 n=71 v=49
7233 On ch=7 n=71 v=0
7235 On ch=7 n=73 v=48
7244 On ch=7 n=73 v=0
7248 On ch=7 n=74 v=40
7257 On ch=7 n=74 v=0
7259 On ch=7 n=76 v=51
7267 On ch=7 n=76 v=0
7271 On ch=7 n=78 v=61
7281 On ch=7 n=78 v=0
7283 On ch=7 n=79 v=69
7292 On ch=7 n=79 v=0
7296 On ch=7 n=78 v=81
7306 On ch=7 n=78 v=0
7307 On ch=7 n=76 v=78
7316 On ch=7 n=76 v=0
7319 On ch=7 n=66 v=91
7319 On ch=7 n=74 v=87
7324 On ch=7 n=66 v=0
7325 On ch=7 n=64 v=92
7327 On ch=7 n=74 v=0
7329 On ch=7 n=64 v=0
7332 On ch=7 n=62 v=92
7332 On ch=7 n=73 v=92
7334 On ch=7 n=62 v=0
7337 On ch=7 n=61 v=91
7339 On ch=7 n=61 v=0
7342 On ch=7 n=73 v=0
7343 On ch=7 n=71 v=90
7351 On ch=7 n=71 v=0
7356 On ch=7 n=72 v=79
7366 On ch=7 n=72 v=0
7368 On ch=7 n=71 v=77
7378 On ch=7 n=71 v=0
7379 On ch=7 n=72 v=70
7387 On ch=7 n=72 v=0
7391 On ch=7 n=73 v=59
7392 On ch=7 n=71 v=101
7396 On ch=7 n=71 v=0
7404 On ch=7 n=73 v=0
7404 On ch=7 n=74 v=48
7414 On ch=7 n=74 v=0
7417 On ch=7 n=76 v=39
7426 On ch=7 n=76 v=0
7428 On ch=7 n=73 v=50
7438 On ch=7 n=73 v=0
7439 On ch=7 n=74 v=50
7449 On ch=7 n=74 v=0
7451 On ch=7 n=76 v=50
7459 On ch=7 n=76 v=0
7464 On ch=7 n=78 v=42
7471 On ch=7 n=78 v=0
7476 On ch=7 n=79 v=47
7485 On ch=7 n=79 v=0
7489 On ch=7 n=78 v=58
7497 On ch=7 n=78 v=0
7499 On ch=7 n=79 v=68
7510 On ch=7 n=79 v=0
7511 On ch=7 n=78 v=79
7518 On ch=7 n=78 v=0
7524 On ch=7 n=79 v=78
7534 On ch=7 n=79 v=0
7536 On ch=7 n=78 v=90
7544 On ch=7 n=78 v=0
7548 On ch=7 n=79 v=89
7558 On ch=7 n=79 v=0
7560 On ch=7 n=78 v=89
7569 On ch=7 n=78 v=0
7571 On ch=7 n=80 v=79
7580 On ch=7 n=80 v=0
7583 On ch=7 n=78 v=81
7593 On ch=7 n=78 v=0
7595 On ch=7 n=80 v=72
7603 On ch=7 n=80 v=0
7607 On ch=7 n=59 v=98
7607 On ch=7 n=78 v=58
7612 On ch=7 n=59 v=0
7614 On ch=7 n=61 v=97
7615 On ch=7 n=61 v=0
7615 On ch=7 n=78 v=0
7619 On ch=7 n=62 v=100
7619 On ch=7 n=80 v=48
7621 On ch=7 n=62 v=0
7625 On ch=7 n=64 v=107
7629 On ch=7 n=64 v=0
7630 On ch=7 n=80 v=0
7632 On ch=7 n=78 v=41
7642 On ch=7 n=78 v=0
7644 On ch=7 n=80 v=47
7652 On ch=7 n=80 v=0
7656 On ch=7 n=78 v=47
7666 On ch=7 n=78 v=0
7668 On ch=7 n=76 v=49
7677 On ch=7 n=76 v=0
7680 On ch=7 n=74 v=42
7688 On ch=7 n=74 v=0
7692 On ch=7 n=73 v=52
7702 On ch=7 n=73 v=0
7704 On ch=7 n=71 v=62
7711 On ch=7 n=71 v=0
7715 On ch=7 n=73 v=71
7725 On ch=7 n=73 v=0
7727 On ch=7 n=74 v=82
7736 On ch=7 n=74 v=0
7740 On ch=7 n=76 v=80
7748 On ch=7 n=76 v=0
7751 On ch=7 n=59 v=87
7752 On ch=7 n=78 v=91
7754 On ch=7 n=59 v=0
7758 On ch=7 n=61 v=88
7760 On ch=7 n=61 v=0
7762 On ch=7 n=78 v=0
7764 On ch=7 n=62 v=91
7764 On ch=7 n=80 v=89
7765 On ch=7 n=62 v=0
7769 On ch=7 n=64 v=90
7772 On ch=7 n=64 v=0
7772 On ch=7 n=80 v=0
7775 On ch=7 n=78 v=92
7783 On ch=7 n=78 v=0
7788 On ch=7 n=80 v=78
7796 On ch=7 n=80 v=0
7800 On ch=7 n=78 v=80
7809 On ch=7 n=78 v=0
7811 On ch=7 n=80 v=71
7820 On ch=7 n=80 v=0
7823 On ch=7 n=78 v=58
7824 On ch=7 n=59 v=97
7828 On ch=7 n=59 v=0
7829 On ch=7 n=61 v=99
7832 On ch=7 n=61 v=0
7832 On ch=7 n=78 v=0
7835 On ch=7 n=62 v=97
7835 On ch=7 n=80 v=48
7838 On ch=7 n=62 v=0
7842 On ch=7 n=64 v=110
7845 On ch=7 n=80 v=0
7847 On ch=7 n=64 v=0
7847 On ch=7 n=78 v=42
7857 On ch=7 n=78 v=0
7859 On ch=7 n=80 v=48
7868 On ch=7 n=80 v=0
7872 On ch=7 n=78 v=50
7879 On ch=7 n=78 v=0
7883 On ch=7 n=76 v=48
7890 On ch=7 n=76 v=0
7895 On ch=7 n=74 v=42
7904 On ch=7 n=74 v=0
7908 On ch=7 n=73 v=48
7918 On ch=7 n=73 v=0
7919 On ch=7 n=71 v=58
7926 On ch=7 n=71 v=0
7932 On ch=7 n=73 v=71
7941 On ch=7 n=73 v=0
7944 On ch=7 n=74 v=81
7954 On ch=7 n=74 v=0
7956 On ch=7 n=76 v=78
7966 On ch=7 n=76 v=0
7968 On ch=7 n=78 v=89
7977 On ch=7 n=78 v=0
7979 On ch=7 n=79 v=89
7988 On ch=7 n=79 v=0
7991 On ch=7 n=78 v=90
8000 On ch=7 n=78 v=0
8003 On ch=7 n=79 v=81
8012 On ch=7 n=79 v=0
8016 On ch=7 n=78 v=77
8024 On ch=7 n=78 v=0
8027 On ch=7 n=79 v=72
8038 On ch=7 n=79 v=0
8040 On ch=7 n=59 v=101
8040 On ch=7 n=78 v=57
8044 On ch=7 n=59 v=0
8046 On ch=7 n=61 v=101
8049 On ch=7 n=61 v=0
8049 On ch=7 n=78 v=0
8051 On ch=7 n=62 v=97
8052 On ch=7 n=79 v=52
8054 On ch=7 n=62 v=0
8058 On ch=7 n=64 v=112
8060 On ch=7 n=64 v=0
8062 On ch=7 n=79 v=0
8064 On ch=7 n=78 v=42
8071 On ch=7 n=78 v=0
8075 On ch=7 n=79 v=47
8086 On ch=7 n=79 v=0
8087 On ch=7 n=78 v=47
8096 On ch=7 n=78 v=0
8099 On ch=7 n=79 v=50
8107 On ch=7 n=79 v=0
8112 On ch=7 n=78 v=42
8122 On ch=7 n=78 v=0
8123 On ch=7 n=79 v=47
8133 On ch=7 n=79 v=0
8137 On ch=7 n=78 v=60
8146 On ch=7 n=78 v=0
8148 On ch=7 n=79 v=69
8158 On ch=7 n=79 v=0
8160 On ch=7 n=78 v=77
8171 On ch=7 n=78 v=0
8171 On ch=7 n=79 v=81
8180 On ch=7 n=79 v=0
8183 On ch=7 n=59 v=88
8184 On ch=7 n=78 v=87
8187 On ch=7 n=59 v=0
8190 On ch=7 n=61 v=90
8193 On ch=7 n=61 v=0
8193 On ch=7 n=78 v=0
8196 On ch=7 n=62 v=91
8196 On ch=7 n=79 v=91
8199 On ch=7 n=62 v=0
8202 On ch=7 n=64 v=88
8203 On ch=7 n=64 v=0
8207 On ch=7 n=79 v=0
8207 On ch=7 n=78 v=90
8215 On ch=7 n=78 v=0
8220 On ch=7 n=79 v=80
8229 On ch=7 n=79 v=0
8232 On ch=7 n=78 v=80
8241 On ch=7 n=78 v=0
8243 On ch=7 n=79 v=67
8253 On ch=7 n=79 v=0
8255 On ch=7 n=78 v=60
8255 On ch=7 n=59 v=98
8258 On ch=7 n=59 v=0
8262 On ch=7 n=61 v=102
8266 On ch=7 n=78 v=0
8267 On ch=7 n=61 v=0
8268 On ch=7 n=79 v=48
8269 On ch=7 n=62 v=101
8271 On ch=7 n=62 v=0
8275 On ch=7 n=64 v=110
8276 On ch=7 n=79 v=0
8277 On ch=7 n=64 v=0
8281 On ch=7 n=78 v=39
8289 On ch=7 n=78 v=0
8291 On ch=7 n=79 v=50
8299 On ch=7 n=79 v=0
8304 On ch=7 n=78 v=51
8311 On ch=7 n=78 v=0
8316 On ch=7 n=79 v=48
8325 On ch=7 n=79 v=0
8327 On ch=7 n=78 v=40
8335 On ch=7 n=78 v=0
8340 On ch=7 n=79 v=47
8350 On ch=7 n=79 v=0
8353 On ch=7 n=78 v=62
8361 On ch=7 n=78 v=0
8364 On ch=7 n=79 v=72
8372 On ch=7 n=79 v=0
8375 On ch=7 n=78 v=81
8384 On ch=7 n=78 v=0
8387 On ch=7 n=79 v=81
8398 On ch=7 n=79 v=0
8400 On ch=7 n=78 v=87
8409 On ch=7 n=78 v=0
8412 On ch=7 n=79 v=90
8420 On ch=7 n=79 v=0
8424 On ch=7 n=81 v=92
8433 On ch=7 n=81 v=0
8436 On ch=7 n=83 v=78
8444 On ch=7 n=83 v=0
8447 On ch=7 n=81 v=81
8454 On ch=7 n=81 v=0
8459 On ch=7 n=83 v=72
8469 On ch=7 n=83 v=0
8471 On ch=7 n=74 v=98
8472 On ch=7 n=74 v=0
8472 On ch=7 n=81 v=58
8477 On ch=7 n=76 v=97
8481 On ch=7 n=76 v=0
8483 On ch=7 n=81 v=0
8483 On ch=7 n=78 v=101
8483 On ch=7 n=83 v=52
8484 On ch=7 n=78 v=0
8490 On ch=7 n=79 v=107
8492 On ch=7 n=79 v=0
8494 On ch=7 n=83 v=0
8496 On ch=7 n=81 v=37
8506 On ch=7 n=81 v=0
8507 On ch=7 n=83 v=49
8518 On ch=7 n=83 v=0
8519 On ch=7 n=81 v=47
8527 On ch=7 n=81 v=0
8532 On ch=7 n=83 v=51
8540 On ch=7 n=83 v=0
8544 On ch=7 n=81 v=37
8554 On ch=7 n=81 v=0
8555 On ch=7 n=83 v=51
8565 On ch=7 n=83 v=0
8568 On ch=7 n=81 v=61
8577 On ch=7 n=81 v=0
8579 On ch=7 n=83 v=69
8588 On ch=7 n=83 v=0
8591 On ch=7 n=81 v=77
8600 On ch=7 n=81 v=0
8604 On ch=7 n=83 v=77
8611 On ch=7 n=83 v=0
8615 On ch=7 n=81 v=87
8616 On ch=7 n=62 v=91
8618 On ch=7 n=62 v=0
8622 On ch=7 n=81 v=0
8622 On ch=7 n=64 v=88
8625 On ch=7 n=64 v=0
8627 On ch=7 n=66 v=87
8628 On ch=7 n=83 v=87
8629 On ch=7 n=66 v=0
8634 On ch=7 n=67 v=92
8635 On ch=7 n=83 v=0
8638 On ch=7 n=67 v=0
8639 On ch=7 n=81 v=89
8648 On ch=7 n=81 v=0
8652 On ch=7 n=83 v=78
8662 On ch=7 n=83 v=0
8664 On ch=7 n=81 v=81
8672 On ch=7 n=81 v=0
8675 On ch=7 n=83 v=67
8682 On ch=7 n=83 v=0
8687 On ch=7 n=81 v=60
8688 On ch=7 n=74 v=98
8690 On ch=7 n=74 v=0
8694 On ch=7 n=76 v=99
8696 On ch=7 n=81 v=0
8698 On ch=7 n=76 v=0
8699 On ch=7 n=83 v=47
8700 On ch=7 n=78 v=101
8704 On ch=7 n=78 v=0
8705 On ch=7 n=79 v=112
8710 On ch=7 n=79 v=0
8710 On ch=7 n=83 v=0
8712 On ch=7 n=81 v=37
8720 On ch=7 n=81 v=0
8724 On ch=7 n=83 v=50
8732 On ch=7 n=83 v=0
8735 On ch=7 n=81 v=48
8743 On ch=7 n=81 v=0
8747 On ch=7 n=83 v=47
8756 On ch=7 n=83 v=0
8760 On ch=7 n=81 v=37
8768 On ch=7 n=81 v=0
8772 On ch=7 n=83 v=51
8782 On ch=7 n=83 v=0
8783 On ch=7 n=81 v=60
8793 On ch=7 n=81 v=0
8795 On ch=7 n=83 v=71
8805 On ch=7 n=83 v=0
8807 On ch=7 n=81 v=78
8814 On ch=7 n=81 v=0
8820 On ch=7 n=83 v=77
8827 On ch=7 n=83 v=0
8831 On ch=7 n=81 v=88
8840 On ch=7 n=81 v=0
8843 On ch=7 n=83 v=89
8853 On ch=7 n=83 v=0
8855 On ch=7 n=81 v=87
8863 On ch=7 n=81 v=0
8867 On ch=7 n=83 v=79
8878 On ch=7 n=83 v=0
8880 On ch=7 n=81 v=80
8890 On ch=7 n=81 v=0
8891 On ch=7 n=83 v=72
8899 On ch=7 n=83 v=0
8903 On ch=7 n=81 v=60
8904 On ch=7 n=74 v=97
8905 On ch=7 n=74 v=0
8910 On ch=7 n=81 v=0
8910 On ch=7 n=76 v=97
8914 On ch=7 n=76 v=0
8916 On ch=7 n=78 v=99
8916 On ch=7 n=83 v=48
8919 On ch=7 n=78 v=0
8922 On ch=7 n=79 v=112
8924 On ch=7 n=83 v=0
8925 On ch=7 n=79 v=0
8927 On ch=7 n=81 v=42
8934 On ch=7 n=81 v=0
8939 On ch=7 n=83 v=50
8947 On ch=7 n=83 v=0
8953 On ch=7 n=81 v=51
8961 On ch=7 n=81 v=0
8963 On ch=7 n=83 v=47
8971 On ch=7 n=83 v=0
8975 On ch=7 n=81 v=42
8982 On ch=7 n=81 v=0
8988 On ch=7 n=83 v=48
8997 On ch=7 n=83 v=0
9001 On ch=7 n=81 v=62
9009 On ch=7 n=81 v=0
9011 On ch=7 n=83 v=68
9022 On ch=7 n=83 v=0
9024 On ch=7 n=81 v=79
9035 On ch=7 n=81 v=0
9036 On ch=7 n=83 v=79
9043 On ch=7 n=83 v=0
9047 On ch=7 n=81 v=91
9048 On ch=7 n=62 v=87
9052 On ch=7 n=62 v=0
9054 On ch=7 n=81 v=0
9054 On ch=7 n=64 v=91
9055 On ch=7 n=64 v=0
9059 On ch=7 n=66 v=89
9059 On ch=7 n=83 v=88
9063 On ch=7 n=66 v=0
9065 On ch=7 n=67 v=91
9068 On ch=7 n=67 v=0
9069 On ch=7 n=83 v=0
9072 On ch=7 n=81 v=90
9082 On ch=7 n=81 v=0
9083 On ch=7 n=83 v=80
9094 On ch=7 n=83 v=0
9096 On ch=7 n=81 v=77
9105 On ch=7 n=81 v=0
9108 On ch=7 n=83 v=68
9117 On ch=7 n=83 v=0
9120 On ch=7 n=81 v=62
9120 On ch=7 n=74 v=101
9122 On ch=7 n=74 v=0
9125 On ch=7 n=76 v=101
9128 On ch=7 n=76 v=0
9130 On ch=7 n=81 v=0
9132 On ch=7 n=78 v=98
9132 On ch=7 n=83 v=52
9135 On ch=7 n=78 v=0
9138 On ch=7 n=79 v=110
9142 On ch=7 n=79 v=0
9142 On ch=7 n=83 v=0
9144 On ch=7 n=81 v=40
9154 On ch=7 n=81 v=0
9155 On ch=7 n=83 v=47
9165 On ch=7 n=83 v=0
9168 On ch=7 n=81 v=52
9177 On ch=7 n=81 v=0
9179 On ch=7 n=83 v=47
9186 On ch=7 n=83 v=0
9192 On ch=7 n=81 v=42
9201 On ch=7 n=81 v=0
9204 On ch=7 n=83 v=51
9212 On ch=7 n=83 v=0
9216 On ch=7 n=81 v=59
9223 On ch=7 n=81 v=0
9228 On ch=7 n=83 v=70
9238 On ch=7 n=83 v=0
9240 On ch=7 n=81 v=80
9249 On ch=7 n=81 v=0
9251 On ch=7 n=83 v=77
9261 On ch=7 n=83 v=0
9264 On ch=7 n=81 v=89
9274 On ch=7 n=81 v=0
9276 On ch=7 n=83 v=88
9287 On ch=7 n=83 v=0
9288 On ch=7 n=85 v=88
9298 On ch=7 n=85 v=0
9299 On ch=7 n=86 v=81
9309 On ch=7 n=86 v=0
9312 On ch=7 n=85 v=80
9319 On ch=7 n=85 v=0
9324 On ch=7 n=86 v=68
9334 On ch=7 n=86 v=0
9336 On ch=7 n=78 v=98
9336 On ch=7 n=85 v=58
9339 On ch=7 n=78 v=0
9342 On ch=7 n=80 v=101
9343 On ch=7 n=85 v=0
9346 On ch=7 n=80 v=0
9348 On ch=7 n=81 v=97
9348 On ch=7 n=86 v=51
9350 On ch=7 n=81 v=0
9353 On ch=7 n=85 v=107
9358 On ch=7 n=86 v=0
9370 On ch=7 n=85 v=0
9371 On ch=7 n=86 v=47
9378 On ch=7 n=86 v=0
9384 On ch=7 n=85 v=48
9394 On ch=7 n=85 v=0
9396 On ch=7 n=86 v=50
9403 On ch=7 n=86 v=0
9407 On ch=7 n=85 v=41
9416 On ch=7 n=85 v=0
9419 On ch=7 n=86 v=52
9428 On ch=7 n=86 v=0
9433 On ch=7 n=85 v=62
9439 On ch=7 n=85 v=0
9444 On ch=7 n=86 v=69
9454 On ch=7 n=86 v=0
9456 On ch=7 n=85 v=80
9467 On ch=7 n=85 v=0
9467 On ch=7 n=83 v=78
9478 On ch=7 n=83 v=0
9479 On ch=7 n=81 v=90
9486 On ch=7 n=81 v=0
9492 On ch=7 n=80 v=91
9501 On ch=7 n=80 v=0
9503 On ch=7 n=78 v=90
9511 On ch=7 n=78 v=0
9515 On ch=7 n=77 v=70
9523 On ch=7 n=77 v=0
9528 On ch=7 n=78 v=72
9535 On ch=7 n=78 v=0
9540 On ch=7 n=77 v=60
9547 On ch=7 n=77 v=0
9551 On ch=7 n=78 v=49
9552 On ch=7 n=73 v=71
9556 On ch=7 n=73 v=0
9559 On ch=7 n=78 v=0
9559 On ch=7 n=75 v=80
9563 On ch=7 n=77 v=40
9564 On ch=7 n=75 v=0
9574 On ch=7 n=77 v=0
9576 On ch=7 n=78 v=48
9585 On ch=7 n=78 v=0
9588 On ch=7 n=77 v=42
9598 On ch=7 n=77 v=0
9600 On ch=7 n=78 v=40
9609 On ch=7 n=78 v=0
9612 On ch=7 n=77 v=48
9622 On ch=7 n=77 v=0
9623 On ch=7 n=78 v=40
9633 On ch=7 n=78 v=0
9636 On ch=7 n=77 v=47
9643 On ch=7 n=77 v=0
9648 On ch=7 n=78 v=62
9658 On ch=7 n=78 v=0
9660 On ch=7 n=77 v=69
9668 On ch=7 n=77 v=0
9671 On ch=7 n=78 v=72
9679 On ch=7 n=78 v=0
9683 On ch=7 n=77 v=68
9691 On ch=7 n=77 v=0
9696 On ch=7 n=78 v=78
9702 On ch=7 n=78 v=0
9703 On ch=7 n=77 v=79
9709 On ch=7 n=77 v=0
9711 On ch=7 n=78 v=81
9718 On ch=7 n=78 v=0
9720 On ch=7 n=59 v=108
9721 On ch=7 n=63 v=112
9721 On ch=7 n=67 v=110
9904 On ch=7 n=59 v=0
9905 On ch=7 n=63 v=0
9907 On ch=7 n=67 v=0
9911 On ch=7 n=59 v=109
9911 On ch=7 n=67 v=108
9912 On ch=7 n=63 v=112
9918 On ch=7 n=67 v=0
9920 On ch=7 n=59 v=0
9921 On ch=7 n=63 v=0
9923 On ch=7 n=59 v=107
9923 On ch=7 n=63 v=112
9924 On ch=7 n=67 v=112
9930 On ch=7 n=59 v=0
9931 On ch=7 n=63 v=0
9932 On ch=7 n=67 v=0
9935 On ch=7 n=59 v=110
9936 On ch=7 n=63 v=112
9936 On ch=7 n=67 v=109
10120 On ch=7 n=59 v=0
10121 On ch=7 n=63 v=0
10122 On ch=7 n=67 v=0
10127 On ch=7 n=67 v=117
10127 On ch=7 n=63 v=121
10128 On ch=7 n=59 v=121
10134 On ch=7 n=67 v=0
10136 On ch=7 n=63 v=0
10137 On ch=7 n=59 v=0
10139 On ch=7 n=59 v=120
10139 On ch=7 n=63 v=117
10141 On ch=7 n=67 v=117
10145 On ch=7 n=63 v=0
10145 On ch=7 n=59 v=0
10147 On ch=7 n=67 v=0
10153 On ch=7 n=59 v=127
10153 On ch=7 n=64 v=126
10153 On ch=7 n=68 v=125
10159 On ch=7 n=68 v=0
10167 On ch=7 n=64 v=0
10169 On ch=7 n=59 v=0
10369 On ch=7 n=64 v=124
10369 On ch=7 n=67 v=127
10384 On ch=7 n=67 v=0
10386 On ch=7 n=64 v=0
10391 On ch=7 n=66 v=108
10392 On ch=7 n=63 v=108
10407 On ch=7 n=63 v=0
10408 On ch=7 n=66 v=0
10415 On ch=7 n=65 v=110
10416 On ch=7 n=62 v=107
10431 On ch=7 n=62 v=0
10432 On ch=7 n=65 v=0
10440 On ch=7 n=61 v=112
10440 On ch=7 n=64 v=112
10457 On ch=7 n=64 v=0
10458 On ch=7 n=61 v=0
10464 On ch=7 n=60 v=110
10464 On ch=7 n=63 v=109
10481 On ch=7 n=63 v=0
10481 On ch=7 n=60 v=0
10487 On ch=7 n=59 v=112
10487 On ch=7 n=62 v=107
10503 On ch=7 n=59 v=0
10505 On ch=7 n=62 v=0
10511 On ch=7 n=61 v=108
10512 On ch=7 n=58 v=111
10526 On ch=7 n=61 v=0
10529 On ch=7 n=58 v=0
10535 On ch=7 n=57 v=107
10535 On ch=7 n=60 v=111
10552 On ch=7 n=57 v=0
10553 On ch=7 n=60 v=0
10559 On ch=7 n=56 v=112
10560 On ch=7 n=59 v=112
10574 On ch=7 n=56 v=0
10576 On ch=7 n=59 v=0
10585 On ch=7 n=57 v=81
10585 On ch=7 n=65 v=80
10652 On ch=7 n=65 v=0
10655 On ch=7 n=57 v=0
10655 On ch=7 n=60 v=42
10768 On ch=7 n=60 v=0
10776 On ch=7 n=60 v=37
10783 On ch=7 n=60 v=0
10788 On ch=7 n=60 v=38
10796 On ch=7 n=60 v=0
10799 On ch=7 n=57 v=41
10799 On ch=7 n=65 v=41
10867 On ch=7 n=57 v=0
10869 On ch=7 n=65 v=0
10872 On ch=7 n=60 v=42
10985 On ch=7 n=60 v=0
10992 On ch=7 n=64 v=95
10992 On ch=7 n=60 v=96
10998 On ch=7 n=64 v=0
11000 On ch=7 n=60 v=0
11005 On ch=7 n=60 v=102
11005 On ch=7 n=64 v=102
11011 On ch=7 n=60 v=0
11013 On ch=7 n=64 v=0
11016 On ch=7 n=58 v=98
11016 On ch=7 n=61 v=98
11031 On ch=7 n=58 v=0
11034 On ch=7 n=61 v=0
11232 On ch=7 n=69 v=124
11233 On ch=7 n=66 v=126
11247 On ch=7 n=66 v=0
11247 On ch=7 n=69 v=0
11255 On ch=7 n=65 v=109
11255 On ch=7 n=68 v=107
11273 On ch=7 n=68 v=0
11273 On ch=7 n=65 v=0
11279 On ch=7 n=64 v=107
11280 On ch=7 n=67 v=112
11295 On ch=7 n=64 v=0
11298 On ch=7 n=67 v=0
11303 On ch=7 n=63 v=109
11303 On ch=7 n=66 v=107
11319 On ch=7 n=63 v=0
11320 On ch=7 n=66 v=0
11327 On ch=7 n=62 v=109
11328 On ch=7 n=65 v=110
11344 On ch=7 n=62 v=0
11345 On ch=7 n=65 v=0
11351 On ch=7 n=64 v=109
11352 On ch=7 n=61 v=108
11366 On ch=7 n=64 v=0
11368 On ch=7 n=61 v=0
11375 On ch=7 n=60 v=109
11376 On ch=7 n=63 v=111
11391 On ch=7 n=63 v=0
11393 On ch=7 n=60 v=0
11400 On ch=7 n=59 v=109
11400 On ch=7 n=62 v=108
11415 On ch=7 n=62 v=0
11417 On ch=7 n=59 v=0
11424 On ch=7 n=58 v=111
11424 On ch=7 n=61 v=110
11440 On ch=7 n=58 v=0
11442 On ch=7 n=61 v=0
11448 On ch=7 n=59 v=42
11448 On ch=7 n=63 v=38
11632 On ch=7 n=59 v=0
11634 On ch=7 n=63 v=0
11639 On ch=7 n=59 v=40
11640 On ch=7 n=63 v=42
11645 On ch=7 n=63 v=0
11647 On ch=7 n=59 v=0
11651 On ch=7 n=59 v=39
11651 On ch=7 n=63 v=41
11657 On ch=7 n=59 v=0
11658 On ch=7 n=63 v=0
11663 On ch=7 n=59 v=42
11664 On ch=7 n=63 v=40
11849 On ch=7 n=59 v=0
11850 On ch=7 n=63 v=0
11856 On ch=7 n=59 v=39
11856 On ch=7 n=63 v=39
11863 On ch=7 n=59 v=0
11864 On ch=7 n=63 v=0
11867 On ch=7 n=63 v=41
11868 On ch=7 n=59 v=37
11875 On ch=7 n=63 v=0
11876 On ch=7 n=59 v=0
11879 On ch=7 n=60 v=38
11879 On ch=7 n=64 v=37
12064 On ch=7 n=64 v=0
12066 On ch=7 n=60 v=0
12071 On ch=7 n=60 v=38
12071 On ch=7 n=64 v=40
12076 On ch=7 n=64 v=0
12078 On ch=7 n=60 v=0
12084 On ch=7 n=60 v=42
12084 On ch=7 n=64 v=42
12089 On ch=7 n=64 v=0
12092 On ch=7 n=60 v=0
15983 Par ch=7 c=10 v=64
15984 Par ch=7 c=11 v=127
16032 On ch=7 n=47 v=112
16037 On ch=7 n=47 v=0
16040 On ch=7 n=47 v=114
16042 On ch=7 n=47 v=0
16047 On ch=7 n=47 v=112
16052 On ch=7 n=47 v=0
16057 On ch=7 n=47 v=127
16091 On ch=7 n=47 v=0
16104 On ch=7 n=47 v=114
16108 On ch=7 n=47 v=0
16111 On ch=7 n=47 v=116
16115 On ch=7 n=47 v=0
16120 On ch=7 n=47 v=112
16123 On ch=7 n=47 v=0
16128 On ch=7 n=47 v=124
16166 On ch=7 n=47 v=0
16177 On ch=7 n=47 v=117
16181 On ch=7 n=47 v=0
16183 On ch=7 n=47 v=112
16187 On ch=7 n=47 v=0
16192 On ch=7 n=47 v=115
16197 On ch=7 n=47 v=0
16200 On ch=7 n=47 v=127
16236 On ch=7 n=47 v=0
17112 On ch=7 n=47 v=112
17117 On ch=7 n=47 v=0
17119 On ch=7 n=47 v=110
17124 On ch=7 n=47 v=0
17127 On ch=7 n=47 v=109
17130 On ch=7 n=47 v=0
17135 On ch=7 n=47 v=127
17170 On ch=7 n=47 v=0
17327 On ch=7 n=47 v=111
17331 On ch=7 n=47 v=0
17336 On ch=7 n=47 v=110
17339 On ch=7 n=47 v=0
17343 On ch=7 n=47 v=108
17346 On ch=7 n=47 v=0
17351 On ch=7 n=47 v=127
17388 On ch=7 n=47 v=0
17388 Meta TrkEnd
TrkEnd
MTrk
0 Meta 0x21 00
0 Meta TrkName "Timpani"
0 PrCh ch=8 p=47
0 Par ch=8 c=7 v=117
0 Par ch=8 c=10 v=64
6 Par ch=8 c=91 v=70
6 Par ch=8 c=93 v=30
6 Par ch=8 c=11 v=127
12744 On ch=8 n=49 v=119
12755 On ch=8 n=49 v=0
12958 On ch=8 n=49 v=122
12969 On ch=8 n=49 v=0
13175 On ch=8 n=49 v=122
13186 On ch=8 n=49 v=0
13392 On ch=8 n=49 v=122
13403 On ch=8 n=49 v=0
13606 On ch=8 n=49 v=122
13617 On ch=8 n=49 v=0
13823 On ch=8 n=49 v=120
13834 On ch=8 n=49 v=0
14038 On ch=8 n=49 v=122
14049 On ch=8 n=49 v=0
14254 On ch=8 n=49 v=119
14265 On ch=8 n=49 v=0
14470 On ch=8 n=49 v=121
14481 On ch=8 n=49 v=0
14687 On ch=8 n=49 v=122
14698 On ch=8 n=49 v=0
14903 On ch=8 n=49 v=120
14914 On ch=8 n=49 v=0
15119 On ch=8 n=49 v=122
15130 On ch=8 n=49 v=0
15334 On ch=8 n=49 v=122
15345 On ch=8 n=49 v=0
15551 On ch=8 n=49 v=121
15562 On ch=8 n=49 v=0
15766 On ch=8 n=49 v=121
15777 On ch=8 n=49 v=0
15984 On ch=8 n=49 v=122
15995 On ch=8 n=49 v=0
16126 On ch=8 n=49 v=72
16127 On ch=8 n=49 v=0
16132 On ch=8 n=49 v=72
16133 On ch=8 n=49 v=0
16139 On ch=8 n=49 v=79
16140 On ch=8 n=49 v=0
16144 On ch=8 n=49 v=80
16145 On ch=8 n=49 v=0
16151 On ch=8 n=49 v=84
16152 On ch=8 n=49 v=0
16156 On ch=8 n=49 v=85
16157 On ch=8 n=49 v=0
16162 On ch=8 n=49 v=68
16163 On ch=8 n=49 v=0
16169 On ch=8 n=49 v=70
16170 On ch=8 n=49 v=0
16176 On ch=8 n=49 v=72
16177 On ch=8 n=49 v=0
16181 On ch=8 n=49 v=77
16182 On ch=8 n=49 v=0
16186 On ch=8 n=49 v=79
16187 On ch=8 n=49 v=0
16193 On ch=8 n=49 v=80
16194 On ch=8 n=49 v=0
16200 On ch=8 n=49 v=124
16211 On ch=8 n=49 v=0
16343 On ch=8 n=49 v=82
16344 On ch=8 n=49 v=0
16349 On ch=8 n=49 v=85
16350 On ch=8 n=49 v=0
16354 On ch=8 n=49 v=88
16355 On ch=8 n=49 v=0
16361 On ch=8 n=49 v=92
16362 On ch=8 n=49 v=0
16366 On ch=8 n=49 v=92
16367 On ch=8 n=49 v=0
16373 On ch=8 n=49 v=97
16374 On ch=8 n=49 v=0
16379 On ch=8 n=49 v=77
16380 On ch=8 n=49 v=0
16384 On ch=8 n=49 v=77
16385 On ch=8 n=49 v=0
16391 On ch=8 n=49 v=87
16392 On ch=8 n=49 v=0
16397 On ch=8 n=49 v=86
16398 On ch=8 n=49 v=0
16403 On ch=8 n=49 v=90
16404 On ch=8 n=49 v=0
16409 On ch=8 n=49 v=89
16410 On ch=8 n=49 v=0
16415 On ch=8 n=49 v=71
16416 On ch=8 n=49 v=0
16421 On ch=8 n=49 v=71
16422 On ch=8 n=49 v=0
16426 On ch=8 n=49 v=72
16427 On ch=8 n=49 v=0
16433 On ch=8 n=49 v=69
16434 On ch=8 n=49 v=0
16439 On ch=8 n=49 v=71
16440 On ch=8 n=49 v=0
16445 On ch=8 n=49 v=71
16446 On ch=8 n=49 v=0
16451 On ch=8 n=49 v=69
16452 On ch=8 n=49 v=0
16457 On ch=8 n=49 v=69
16458 On ch=8 n=49 v=0
16462 On ch=8 n=49 v=71
16463 On ch=8 n=49 v=0
16468 On ch=8 n=49 v=71
16469 On ch=8 n=49 v=0
16475 On ch=8 n=49 v=71
16476 On ch=8 n=49 v=0
16481 On ch=8 n=49 v=72
16482 On ch=8 n=49 v=0
16487 On ch=8 n=49 v=68
16488 On ch=8 n=49 v=0
16492 On ch=8 n=49 v=67
16493 On ch=8 n=49 v=0
16499 On ch=8 n=49 v=67
16500 On ch=8 n=49 v=0
16504 On ch=8 n=49 v=67
16505 On ch=8 n=49 v=0
16510 On ch=8 n=49 v=71
16511 On ch=8 n=49 v=0
16516 On ch=8 n=49 v=71
16517 On ch=8 n=49 v=0
16523 On ch=8 n=49 v=70
16524 On ch=8 n=49 v=0
16528 On ch=8 n=49 v=70
16529 On ch=8 n=49 v=0
16535 On ch=8 n=49 v=76
16536 On ch=8 n=49 v=0
16541 On ch=8 n=49 v=74
16542 On ch=8 n=49 v=0
16547 On ch=8 n=49 v=79
16548 On ch=8 n=49 v=0
16553 On ch=8 n=49 v=78
16554 On ch=8 n=49 v=0
16559 On ch=8 n=49 v=83
16560 On ch=8 n=49 v=0
16564 On ch=8 n=49 v=86
16565 On ch=8 n=49 v=0
16570 On ch=8 n=49 v=91
16571 On ch=8 n=49 v=0
16576 On ch=8 n=49 v=92
16577 On ch=8 n=49 v=0
16582 On ch=8 n=49 v=97
16583 On ch=8 n=49 v=0
16588 On ch=8 n=49 v=93
16589 On ch=8 n=49 v=0
16595 On ch=8 n=49 v=80
16596 On ch=8 n=49 v=0
16601 On ch=8 n=49 v=78
16602 On ch=8 n=49 v=0
16606 On ch=8 n=49 v=86
16607 On ch=8 n=49 v=0
16612 On ch=8 n=49 v=87
16613 On ch=8 n=49 v=0
16618 On ch=8 n=49 v=89
16619 On ch=8 n=49 v=0
16624 On ch=8 n=49 v=92
16625 On ch=8 n=49 v=0
16631 On ch=8 n=49 v=72
16632 On ch=8 n=49 v=0
16636 On ch=8 n=49 v=69
16637 On ch=8 n=49 v=0
16643 On ch=8 n=49 v=68
16644 On ch=8 n=49 v=0
16649 On ch=8 n=49 v=70
16650 On ch=8 n=49 v=0
16654 On ch=8 n=49 v=72
16655 On ch=8 n=49 v=0
16660 On ch=8 n=49 v=68
16661 On ch=8 n=49 v=0
16667 On ch=8 n=49 v=69
16668 On ch=8 n=49 v=0
16673 On ch=8 n=49 v=69
16674 On ch=8 n=49 v=0
16678 On ch=8 n=49 v=68
16679 On ch=8 n=49 v=0
16684 On ch=8 n=49 v=71
16685 On ch=8 n=49 v=0
16691 On ch=8 n=49 v=68
16692 On ch=8 n=49 v=0
16697 On ch=8 n=49 v=71
16698 On ch=8 n=49 v=0
16703 On ch=8 n=49 v=71
16704 On ch=8 n=49 v=0
16708 On ch=8 n=49 v=67
16709 On ch=8 n=49 v=0
16714 On ch=8 n=49 v=72
16715 On ch=8 n=49 v=0
16720 On ch=8 n=49 v=70
16721 On ch=8 n=49 v=0
16726 On ch=8 n=49 v=68
16727 On ch=8 n=49 v=0
16733 On ch=8 n=49 v=71
16734 On ch=8 n=49 v=0
16739 On ch=8 n=49 v=71
16740 On ch=8 n=49 v=0
16744 On ch=8 n=49 v=72
16745 On ch=8 n=49 v=0
16751 On ch=8 n=49 v=76
16752 On ch=8 n=49 v=0
16756 On ch=8 n=49 v=75
16757 On ch=8 n=49 v=0
16763 On ch=8 n=49 v=78
16764 On ch=8 n=49 v=0
16769 On ch=8 n=49 v=82
16770 On ch=8 n=49 v=0
16775 On ch=8 n=49 v=85
16776 On ch=8 n=49 v=0
16781 On ch=8 n=49 v=86
16782 On ch=8 n=49 v=0
16786 On ch=8 n=49 v=87
16787 On ch=8 n=49 v=0
16793 On ch=8 n=49 v=90
16794 On ch=8 n=49 v=0
16798 On ch=8 n=49 v=93
16799 On ch=8 n=49 v=0
16804 On ch=8 n=49 v=93
16805 On ch=8 n=49 v=0
16811 On ch=8 n=49 v=81
16812 On ch=8 n=49 v=0
16816 On ch=8 n=49 v=79
16817 On ch=8 n=49 v=0
16823 On ch=8 n=49 v=82
16824 On ch=8 n=49 v=0
16829 On ch=8 n=49 v=84
16830 On ch=8 n=49 v=0
16835 On ch=8 n=49 v=92
16836 On ch=8 n=49 v=0
16840 On ch=8 n=49 v=87
16841 On ch=8 n=49 v=0
16846 On ch=8 n=49 v=120
16873 On ch=8 n=49 v=0
17062 On ch=8 n=49 v=70
17063 On ch=8 n=49 v=0
17069 On ch=8 n=49 v=68
17070 On ch=8 n=49 v=0
17074 On ch=8 n=49 v=70
17075 On ch=8 n=49 v=0
17080 On ch=8 n=49 v=72
17081 On ch=8 n=49 v=0
17087 On ch=8 n=49 v=69
17088 On ch=8 n=49 v=0
17093 On ch=8 n=49 v=67
17094 On ch=8 n=49 v=0
17099 On ch=8 n=49 v=72
17100 On ch=8 n=49 v=0
17105 On ch=8 n=49 v=71
17106 On ch=8 n=49 v=0
17110 On ch=8 n=49 v=72
17111 On ch=8 n=49 v=0
17117 On ch=8 n=49 v=69
17118 On ch=8 n=49 v=0
17122 On ch=8 n=49 v=68
17123 On ch=8 n=49 v=0
17129 On ch=8 n=49 v=67
17130 On ch=8 n=49 v=0
17134 On ch=8 n=49 v=70
17135 On ch=8 n=49 v=0
17141 On ch=8 n=49 v=71
17142 On ch=8 n=49 v=0
17147 On ch=8 n=49 v=67
17148 On ch=8 n=49 v=0
17153 On ch=8 n=49 v=72
17154 On ch=8 n=49 v=0
17158 On ch=8 n=49 v=68
17159 On ch=8 n=49 v=0
17165 On ch=8 n=49 v=67
17166 On ch=8 n=49 v=0
17170 On ch=8 n=49 v=71
17171 On ch=8 n=49 v=0
17176 On ch=8 n=49 v=71
17177 On ch=8 n=49 v=0
17183 On ch=8 n=49 v=68
17184 On ch=8 n=49 v=0
17188 On ch=8 n=49 v=69
17189 On ch=8 n=49 v=0
17195 On ch=8 n=49 v=81
17196 On ch=8 n=49 v=0
17201 On ch=8 n=49 v=77
17202 On ch=8 n=49 v=0
17207 On ch=8 n=49 v=82
17208 On ch=8 n=49 v=0
17212 On ch=8 n=49 v=82
17213 On ch=8 n=49 v=0
17218 On ch=8 n=49 v=92
17219 On ch=8 n=49 v=0
17225 On ch=8 n=49 v=88
17226 On ch=8 n=49 v=0
17230 On ch=8 n=49 v=95
17231 On ch=8 n=49 v=0
17236 On ch=8 n=49 v=92
17237 On ch=8 n=49 v=0
17242 On ch=8 n=49 v=77
17243 On ch=8 n=49 v=0
17249 On ch=8 n=49 v=77
17250 On ch=8 n=49 v=0
17254 On ch=8 n=49 v=84
17255 On ch=8 n=49 v=0
17260 On ch=8 n=49 v=87
17261 On ch=8 n=49 v=0
17267 On ch=8 n=49 v=91
17268 On ch=8 n=49 v=0
17273 On ch=8 n=49 v=90
17274 On ch=8 n=49 v=0
17278 On ch=8 n=49 v=70
17279 On ch=8 n=49 v=0
17284 On ch=8 n=49 v=67
17285 On ch=8 n=49 v=0
17290 On ch=8 n=49 v=71
17291 On ch=8 n=49 v=0
17297 On ch=8 n=49 v=70
17298 On ch=8 n=49 v=0
17303 On ch=8 n=49 v=67
17304 On ch=8 n=49 v=0
17308 On ch=8 n=49 v=70
17309 On ch=8 n=49 v=0
17315 On ch=8 n=49 v=70
17316 On ch=8 n=49 v=0
17321 On ch=8 n=49 v=67
17322 On ch=8 n=49 v=0
17326 On ch=8 n=49 v=70
17327 On ch=8 n=49 v=0
17332 On ch=8 n=49 v=70
17333 On ch=8 n=49 v=0
17339 On ch=8 n=49 v=69
17340 On ch=8 n=49 v=0
17344 On ch=8 n=49 v=72
17345 On ch=8 n=49 v=0
17351 On ch=8 n=49 v=69
17352 On ch=8 n=49 v=0
17356 On ch=8 n=49 v=72
17357 On ch=8 n=49 v=0
17362 On ch=8 n=49 v=68
17363 On ch=8 n=49 v=0
17369 On ch=8 n=49 v=67
17370 On ch=8 n=49 v=0
17374 On ch=8 n=49 v=68
17375 On ch=8 n=49 v=0
17381 On ch=8 n=49 v=71
17382 On ch=8 n=49 v=0
17386 On ch=8 n=49 v=68
17387 On ch=8 n=49 v=0
17393 On ch=8 n=49 v=72
17394 On ch=8 n=49 v=0
17398 On ch=8 n=49 v=74
17399 On ch=8 n=49 v=0
17404 On ch=8 n=49 v=77
17405 On ch=8 n=49 v=0
17411 On ch=8 n=49 v=81
17412 On ch=8 n=49 v=0
17417 On ch=8 n=49 v=80
17418 On ch=8 n=49 v=0
17422 On ch=8 n=49 v=85
17423 On ch=8 n=49 v=0
17429 On ch=8 n=49 v=82
17430 On ch=8 n=49 v=0
17435 On ch=8 n=49 v=92
17436 On ch=8 n=49 v=0
17441 On ch=8 n=49 v=91
17442 On ch=8 n=49 v=0
17446 On ch=8 n=49 v=96
17447 On ch=8 n=49 v=0
17453 On ch=8 n=49 v=94
17454 On ch=8 n=49 v=0
17459 On ch=8 n=49 v=77
17460 On ch=8 n=49 v=0
17465 On ch=8 n=49 v=79
17466 On ch=8 n=49 v=0
17470 On ch=8 n=49 v=85
17471 On ch=8 n=49 v=0
17476 On ch=8 n=49 v=84
17477 On ch=8 n=49 v=0
17483 On ch=8 n=49 v=91
17484 On ch=8 n=49 v=0
17489 On ch=8 n=49 v=89
17490 On ch=8 n=49 v=0
17495 On ch=8 n=49 v=68
17496 On ch=8 n=49 v=0
17501 On ch=8 n=49 v=72
17502 On ch=8 n=49 v=0
17506 On ch=8 n=49 v=70
17507 On ch=8 n=49 v=0
17512 On ch=8 n=49 v=70
17513 On ch=8 n=49 v=0
17518 On ch=8 n=49 v=67
17519 On ch=8 n=49 v=0
17525 On ch=8 n=49 v=67
17526 On ch=8 n=49 v=0
17531 On ch=8 n=49 v=71
17532 On ch=8 n=49 v=0
17536 On ch=8 n=49 v=69
17537 On ch=8 n=49 v=0
17542 On ch=8 n=49 v=68
17543 On ch=8 n=49 v=0
17548 On ch=8 n=49 v=68
17549 On ch=8 n=49 v=0
17554 On ch=8 n=49 v=69
17555 On ch=8 n=49 v=0
17561 On ch=8 n=49 v=68
17562 On ch=8 n=49 v=0
17567 On ch=8 n=49 v=72
17568 On ch=8 n=49 v=0
17573 On ch=8 n=49 v=70
17574 On ch=8 n=49 v=0
17579 On ch=8 n=49 v=70
17580 On ch=8 n=49 v=0
17584 On ch=8 n=49 v=69
17585 On ch=8 n=49 v=0
17590 On ch=8 n=49 v=72
17591 On ch=8 n=49 v=0
17596 On ch=8 n=49 v=67
17597 On ch=8 n=49 v=0
17602 On ch=8 n=49 v=68
17603 On ch=8 n=49 v=0
17608 On ch=8 n=49 v=71
17609 On ch=8 n=49 v=0
17615 On ch=8 n=49 v=75
17616 On ch=8 n=49 v=0
17620 On ch=8 n=49 v=77
17621 On ch=8 n=49 v=0
17626 On ch=8 n=49 v=81
17627 On ch=8 n=49 v=0
17632 On ch=8 n=49 v=82
17633 On ch=8 n=49 v=0
17639 On ch=8 n=49 v=84
17640 On ch=8 n=49 v=0
17645 On ch=8 n=49 v=85
17646 On ch=8 n=49 v=0
17651 On ch=8 n=49 v=92
17652 On ch=8 n=49 v=0
17657 On ch=8 n=49 v=90
17658 On ch=8 n=49 v=0
17663 On ch=8 n=49 v=93
17664 On ch=8 n=49 v=0
17668 On ch=8 n=49 v=94
17669 On ch=8 n=49 v=0
17675 On ch=8 n=49 v=78
17676 On ch=8 n=49 v=0
17680 On ch=8 n=49 v=80
17681 On ch=8 n=49 v=0
17688 On ch=8 n=49 v=84
17689 On ch=8 n=49 v=0
17692 On ch=8 n=49 v=82
17693 On ch=8 n=49 v=0
17699 On ch=8 n=49 v=89
17700 On ch=8 n=49 v=0
17705 On ch=8 n=49 v=87
17706 On ch=8 n=49 v=0
17712 On ch=8 n=49 v=120
17752 On ch=8 n=49 v=0
18791 On ch=8 n=49 v=71
18792 On ch=8 n=49 v=0
18797 On ch=8 n=49 v=69
18798 On ch=8 n=49 v=0
18802 On ch=8 n=49 v=67
18803 On ch=8 n=49 v=0
18809 On ch=8 n=49 v=71
18810 On ch=8 n=49 v=0
18815 On ch=8 n=49 v=71
18816 On ch=8 n=49 v=0
18821 On ch=8 n=49 v=67
18822 On ch=8 n=49 v=0
18827 On ch=8 n=49 v=70
18828 On ch=8 n=49 v=0
18833 On ch=8 n=49 v=72
18834 On ch=8 n=49 v=0
18839 On ch=8 n=49 v=67
18840 On ch=8 n=49 v=0
18844 On ch=8 n=49 v=71
18845 On ch=8 n=49 v=0
18850 On ch=8 n=49 v=71
18851 On ch=8 n=49 v=0
18856 On ch=8 n=49 v=71
18857 On ch=8 n=49 v=0
18862 On ch=8 n=49 v=70
18863 On ch=8 n=49 v=0
18868 On ch=8 n=49 v=71
18869 On ch=8 n=49 v=0
18874 On ch=8 n=49 v=70
18875 On ch=8 n=49 v=0
18880 On ch=8 n=49 v=68
18881 On ch=8 n=49 v=0
18886 On ch=8 n=49 v=67
18887 On ch=8 n=49 v=0
18892 On ch=8 n=49 v=70
18893 On ch=8 n=49 v=0
18898 On ch=8 n=49 v=71
18899 On ch=8 n=49 v=0
18904 On ch=8 n=49 v=72
18905 On ch=8 n=49 v=0
18910 On ch=8 n=49 v=72
18911 On ch=8 n=49 v=0
18916 On ch=8 n=49 v=74
18917 On ch=8 n=49 v=0
18922 On ch=8 n=49 v=78
18923 On ch=8 n=49 v=0
18928 On ch=8 n=49 v=80
18929 On ch=8 n=49 v=0
18935 On ch=8 n=49 v=84
18936 On ch=8 n=49 v=0
18940 On ch=8 n=49 v=83
18941 On ch=8 n=49 v=0
18946 On ch=8 n=49 v=91
18947 On ch=8 n=49 v=0
18953 On ch=8 n=49 v=91
18954 On ch=8 n=49 v=0
18959 On ch=8 n=49 v=96
18960 On ch=8 n=49 v=0
18965 On ch=8 n=49 v=94
18966 On ch=8 n=49 v=0
18970 On ch=8 n=49 v=78
18971 On ch=8 n=49 v=0
18977 On ch=8 n=49 v=79
18978 On ch=8 n=49 v=0
18983 On ch=8 n=49 v=86
18984 On ch=8 n=49 v=0
18989 On ch=8 n=49 v=84
18990 On ch=8 n=49 v=0
18994 On ch=8 n=49 v=89
18995 On ch=8 n=49 v=0
19001 On ch=8 n=49 v=87
19002 On ch=8 n=49 v=0
19006 On ch=8 n=49 v=71
19007 On ch=8 n=49 v=0
19012 On ch=8 n=49 v=67
19013 On ch=8 n=49 v=0
19019 On ch=8 n=49 v=67
19020 On ch=8 n=49 v=0
19024 On ch=8 n=49 v=67
19025 On ch=8 n=49 v=0
19031 On ch=8 n=49 v=71
19032 On ch=8 n=49 v=0
19036 On ch=8 n=49 v=72
19037 On ch=8 n=49 v=0
19042 On ch=8 n=49 v=68
19043 On ch=8 n=49 v=0
19049 On ch=8 n=49 v=67
19050 On ch=8 n=49 v=0
19055 On ch=8 n=49 v=70
19056 On ch=8 n=49 v=0
19061 On ch=8 n=49 v=71
19062 On ch=8 n=49 v=0
19066 On ch=8 n=49 v=69
19067 On ch=8 n=49 v=0
19073 On ch=8 n=49 v=69
19074 On ch=8 n=49 v=0
19079 On ch=8 n=49 v=70
19080 On ch=8 n=49 v=0
19085 On ch=8 n=49 v=69
19086 On ch=8 n=49 v=0
19091 On ch=8 n=49 v=70
19092 On ch=8 n=49 v=0
19097 On ch=8 n=49 v=68
19098 On ch=8 n=49 v=0
19103 On ch=8 n=49 v=68
19104 On ch=8 n=49 v=0
19108 On ch=8 n=49 v=68
19109 On ch=8 n=49 v=0
19114 On ch=8 n=49 v=70
19115 On ch=8 n=49 v=0
19120 On ch=8 n=49 v=70
19121 On ch=8 n=49 v=0
19127 On ch=8 n=49 v=71
19128 On ch=8 n=49 v=0
19133 On ch=8 n=49 v=77
19134 On ch=8 n=49 v=0
19138 On ch=8 n=49 v=82
19139 On ch=8 n=49 v=0
19145 On ch=8 n=49 v=79
19146 On ch=8 n=49 v=0
19150 On ch=8 n=49 v=84
19151 On ch=8 n=49 v=0
19157 On ch=8 n=49 v=87
19158 On ch=8 n=49 v=0
19163 On ch=8 n=49 v=88
19164 On ch=8 n=49 v=0
19169 On ch=8 n=49 v=88
19170 On ch=8 n=49 v=0
19175 On ch=8 n=49 v=93
19176 On ch=8 n=49 v=0
19181 On ch=8 n=49 v=96
19182 On ch=8 n=49 v=0
19186 On ch=8 n=49 v=79
19187 On ch=8 n=49 v=0
19192 On ch=8 n=49 v=82
19193 On ch=8 n=49 v=0
19198 On ch=8 n=49 v=85
19199 On ch=8 n=49 v=0
19205 On ch=8 n=49 v=83
19206 On ch=8 n=49 v=0
19212 On ch=8 n=49 v=91
19213 On ch=8 n=49 v=0
19217 On ch=8 n=49 v=92
19218 On ch=8 n=49 v=0
19223 On ch=8 n=49 v=122
19234 On ch=8 n=49 v=0
20952 On ch=8 n=49 v=126
20963 On ch=8 n=49 v=0
20963 Meta 0x21 00
21144 SysEx f0 09 01 f7 00 ff
21144 Meta 0x21 00
21144 Meta TrkEnd
TrkEnd
MTrk
0 Meta 0x21 00
0 Meta TrkName "Orchestra Hit"
0 PrCh ch=9 p=55
0 Par ch=9 c=7 v=110
0 Par ch=9 c=10 v=64
20951 On ch=9 n=83 v=120
20953 On ch=9 n=54 v=118
20953 On ch=9 n=47 v=118
20954 On ch=9 n=51 v=119
20969 On ch=9 n=54 v=0
20970 On ch=9 n=47 v=0
20972 On ch=9 n=51 v=0
20974 On ch=9 n=83 v=0
20974 Meta TrkEnd
TrkEnd
MTrk
0 Meta 0x21 00
0 Meta TrkName "Percussion"
0 PrCh ch=10 p=48
0 Par ch=10 c=7 v=110
0 Par ch=10 c=10 v=64
8065 On ch=10 n=59 v=64
8112 On ch=10 n=59 v=0
8281 On ch=10 n=59 v=64
8328 On ch=10 n=59 v=0
8497 On ch=10 n=59 v=64
8544 On ch=10 n=59 v=0
8713 On ch=10 n=59 v=94
8760 On ch=10 n=59 v=0
8929 On ch=10 n=59 v=64
8976 On ch=10 n=59 v=0
9144 On ch=10 n=59 v=64
9191 On ch=10 n=59 v=0
9361 On ch=10 n=59 v=64
9408 On ch=10 n=59 v=0
9577 On ch=10 n=59 v=124
9577 On ch=10 n=57 v=104
9624 On ch=10 n=57 v=0
9624 On ch=10 n=59 v=0
10368 On ch=10 n=59 v=94
10415 On ch=10 n=59 v=0
11017 On ch=10 n=59 v=94
11064 On ch=10 n=59 v=0
12310 On ch=10 n=57 v=84
12313 On ch=10 n=59 v=84
12357 On ch=10 n=57 v=0
12360 On ch=10 n=59 v=0
12816 On ch=10 n=59 v=104
12863 On ch=10 n=59 v=0
13032 On ch=10 n=59 v=104
13079 On ch=10 n=59 v=0
13247 On ch=10 n=59 v=104
13294 On ch=10 n=59 v=0
13464 On ch=10 n=59 v=104
13511 On ch=10 n=59 v=0
13680 On ch=10 n=59 v=104
13727 On ch=10 n=59 v=0
13896 On ch=10 n=59 v=104
13943 On ch=10 n=59 v=0
14113 On ch=10 n=59 v=104
14160 On ch=10 n=59 v=0
14328 On ch=10 n=59 v=104
14375 On ch=10 n=59 v=0
14545 On ch=10 n=59 v=104
14592 On ch=10 n=59 v=0
14761 On ch=10 n=59 v=104
14808 On ch=10 n=59 v=0
14977 On ch=10 n=59 v=104
15024 On ch=10 n=59 v=0
15193 On ch=10 n=59 v=124
15240 On ch=10 n=59 v=0
15409 On ch=10 n=59 v=104
15456 On ch=10 n=59 v=0
15624 On ch=10 n=59 v=104
15671 On ch=10 n=59 v=0
15841 On ch=10 n=59 v=104
15888 On ch=10 n=59 v=0
16057 On ch=10 n=59 v=124
16104 On ch=10 n=59 v=0
16201 On ch=10 n=59 v=127
16201 On ch=10 n=57 v=114
16248 On ch=10 n=57 v=0
16248 On ch=10 n=59 v=0
16416 On ch=10 n=59 v=94
16463 On ch=10 n=59 v=0
16632 On ch=10 n=59 v=127
16632 On ch=10 n=57 v=104
16679 On ch=10 n=57 v=0
16679 On ch=10 n=59 v=0
17496 On ch=10 n=59 v=127
17496 On ch=10 n=57 v=104
17543 On ch=10 n=57 v=0
17543 On ch=10 n=59 v=0
19224 On ch=10 n=59 v=127
19224 On ch=10 n=57 v=114
19271 On ch=10 n=57 v=0
19271 On ch=10 n=59 v=0
19656 On ch=10 n=59 v=94
19703 On ch=10 n=59 v=0
20952 On ch=10 n=57 v=127
20953 On ch=10 n=59 v=127
20999 On ch=10 n=57 v=0
21000 On ch=10 n=59 v=0
21000 Meta TrkEnd
TrkEnd
